<svg id="bb881938-3762-495b-ab51-67919194b193" data-name="Capa 1" xmlns="http://www.w3.org/2000/svg" viewBox="0 0 415 275.38"><defs><style>.\30 f7c6ea0-190a-4bc0-a2ba-8f47c3cd40ba,.\33 7e5ff6c-6172-4762-8422-b16138b172a0,.db236e8b-aa28-43a5-a3ce-f36ea432f220{font-size:16px;}.\33 7e5ff6c-6172-4762-8422-b16138b172a0,.a36a2a0e-b549-4265-a783-c352bc80841b,.d425320a-a55b-4d0f-85c6-9ce042b510de,.db236e8b-aa28-43a5-a3ce-f36ea432f220{fill:#757575;}.\30 bb5a708-c587-42d1-86d9-84a4ffd1a393,.\30 f7c6ea0-190a-4bc0-a2ba-8f47c3cd40ba,.d425320a-a55b-4d0f-85c6-9ce042b510de,.db236e8b-aa28-43a5-a3ce-f36ea432f220{font-family:ArialMT, Arial;}.\33 7e5ff6c-6172-4762-8422-b16138b172a0,.a6223a6c-8e9e-465b-bbf7-89b946083a70{font-family:Arial-BoldMT, Arial;font-weight:700;}.\32 a180003-0c8c-414f-96c0-3355c861aff0{fill:#61baba;}.\30 bb5a708-c587-42d1-86d9-84a4ffd1a393,.fec7584f-c8f4-416c-be13-892e5f2cccb9{fill:#fff;}.\34 d242ce0-9039-4ca1-9472-996af5c70aa6{fill:#419694;}.a16a42fe-6638-4e44-a857-5fb56a575764{fill:#194443;}.\30 bb5a708-c587-42d1-86d9-84a4ffd1a393,.d425320a-a55b-4d0f-85c6-9ce042b510de{font-size:14px;}.a36a2a0e-b549-4265-a783-c352bc80841b{font-size:12px;font-family:OpenSans, Open Sans;}.\33 8dffbb8-22ef-47b9-be69-4f27ba91165d{fill:#a3d0d1;}.ad8abaab-e261-4dcd-83a6-879df9984956{fill:#c7eae9;}.a6223a6c-8e9e-465b-bbf7-89b946083a70{font-size:21px;}.\30 f7c6ea0-190a-4bc0-a2ba-8f47c3cd40ba,.a6223a6c-8e9e-465b-bbf7-89b946083a70{fill:#323232;}.e54824b6-031e-4813-9ec9-631b11c40923{fill:#002f64;}.a962d45d-2aab-42b0-8ad5-c317a25dee1d{fill:#c96a23;}.\34 d36b564-4be0-40ad-bf57-fa169d1735cd{fill:#fecb41;}.b944aa93-4a03-462e-817d-cce0d77bc72a{letter-spacing:-0.07em;}.cecbaa21-94db-4281-a1eb-caf2222e589f{fill:#f49e20;}</style></defs><title>17.11_ConsumoDrogas</title><text class="db236e8b-aa28-43a5-a3ce-f36ea432f220" transform="translate(16.19 113.44)">15 - 24</text><text class="db236e8b-aa28-43a5-a3ce-f36ea432f220" transform="translate(154.55 87.75)">Mujeres</text><text class="db236e8b-aa28-43a5-a3ce-f36ea432f220" transform="translate(75.55 88.44)">Hombres</text><text class="37e5ff6c-6172-4762-8422-b16138b172a0" transform="translate(87.31 69.44)">Últimos 30 días</text><text class="37e5ff6c-6172-4762-8422-b16138b172a0" transform="translate(295.55 69.44)">Nunca</text><rect class="2a180003-0c8c-414f-96c0-3355c861aff0" x="72.5" y="92.48" width="76" height="27.97"/><path class="fec7584f-c8f4-416c-be13-892e5f2cccb9" d="M147,93v27H72V93h75m1-1H71v29h77V92Z" transform="translate(1 -0.02)"/><rect class="4d242ce0-9039-4ca1-9472-996af5c70aa6" x="72.5" y="119.8" width="76" height="27.97"/><path class="fec7584f-c8f4-416c-be13-892e5f2cccb9" d="M147,120.32v27H72v-27h75m1-1H71v29h77v-29Z" transform="translate(1 -0.02)"/><rect class="a16a42fe-6638-4e44-a857-5fb56a575764" x="72.5" y="173.94" width="76" height="27.97"/><path class="fec7584f-c8f4-416c-be13-892e5f2cccb9" d="M147,174.46v27H72v-27h75m1-1H71v29h77v-29Z" transform="translate(1 -0.02)"/><rect class="4d242ce0-9039-4ca1-9472-996af5c70aa6" x="72.5" y="201.26" width="76" height="27.97"/><path class="fec7584f-c8f4-416c-be13-892e5f2cccb9" d="M147,201.78v27H72v-27h75m1-1H71v29h77v-29Z" transform="translate(1 -0.02)"/><text class="0bb5a708-c587-42d1-86d9-84a4ffd1a393" transform="translate(96.42 112)">63,8</text><text class="0bb5a708-c587-42d1-86d9-84a4ffd1a393" transform="translate(102.42 139)">73</text><text class="0bb5a708-c587-42d1-86d9-84a4ffd1a393" transform="translate(100 193)">75,3</text><text class="0bb5a708-c587-42d1-86d9-84a4ffd1a393" transform="translate(96 221)">71,8</text><text class="db236e8b-aa28-43a5-a3ce-f36ea432f220" transform="translate(16.52 141.44)">25 - 34</text><text class="db236e8b-aa28-43a5-a3ce-f36ea432f220" transform="translate(16.15 194.44)">45 - 54</text><text class="db236e8b-aa28-43a5-a3ce-f36ea432f220" transform="translate(15.52 221.44)">55 - 64</text><text class="a36a2a0e-b549-4265-a783-c352bc80841b" transform="translate(6 271.6)">Fuente: Ministerio de Sanidad</text><rect class="4d242ce0-9039-4ca1-9472-996af5c70aa6" x="72.5" y="146.94" width="76" height="27.97"/><path class="fec7584f-c8f4-416c-be13-892e5f2cccb9" d="M147,147.46v27H72v-27h75m1-1H71v29h77v-29Z" transform="translate(1 -0.02)"/><text class="0bb5a708-c587-42d1-86d9-84a4ffd1a393" transform="translate(100 167)">70,6</text><rect class="38dffbb8-22ef-47b9-be69-4f27ba91165d" x="150.5" y="92.48" width="76" height="27.97"/><path class="fec7584f-c8f4-416c-be13-892e5f2cccb9" d="M225,93v27H150V93h75m1-1H149v29h77V92Z" transform="translate(1 -0.02)"/><rect class="38dffbb8-22ef-47b9-be69-4f27ba91165d" x="150.5" y="119.8" width="76" height="27.97"/><path class="fec7584f-c8f4-416c-be13-892e5f2cccb9" d="M225,120.32v27H150v-27h75m1-1H149v29h77v-29Z" transform="translate(1 -0.02)"/><rect class="38dffbb8-22ef-47b9-be69-4f27ba91165d" x="150.5" y="173.94" width="76" height="27.97"/><path class="fec7584f-c8f4-416c-be13-892e5f2cccb9" d="M225,174.46v27H150v-27h75m1-1H149v29h77v-29Z" transform="translate(1 -0.02)"/><rect class="ad8abaab-e261-4dcd-83a6-879df9984956" x="150.5" y="201.26" width="76" height="27.97"/><path class="fec7584f-c8f4-416c-be13-892e5f2cccb9" d="M225,201.78v27H150v-27h75m1-1H149v29h77v-29Z" transform="translate(1 -0.02)"/><rect class="38dffbb8-22ef-47b9-be69-4f27ba91165d" x="150.5" y="146.94" width="76" height="27.97"/><path class="fec7584f-c8f4-416c-be13-892e5f2cccb9" d="M225,147.46v27H150v-27h75m1-1H149v29h77v-29Z" transform="translate(1 -0.02)"/><text class="db236e8b-aa28-43a5-a3ce-f36ea432f220" transform="translate(16.15 166.44)">35 - 44</text><text class="a6223a6c-8e9e-465b-bbf7-89b946083a70" transform="translate(4.97 18.02)">Consumo de alcohol por franjas de edad</text><text class="0f7c6ea0-190a-4bc0-a2ba-8f47c3cd40ba" transform="translate(7.71 37.44)">Porcentaje de la población </text><polygon class="e54824b6-031e-4813-9ec9-631b11c40923" points="313 260.04 414 260.04 414 275.38 313 275.38 313 260.04 313 260.04"/><path class="fec7584f-c8f4-416c-be13-892e5f2cccb9" d="M393,263.48h-3.87V264l1,.24v7.15a.85.85,0,0,1-.71.36,1.52,1.52,0,0,1-1.25-.92l-1-1.73a2,2,0,0,0-1.77-1.19v-.12a2.37,2.37,0,0,0,2.45-2.2c0-1.48-1.35-2.06-2.91-2.06h-3.52V264l1.14.24v7.24h0l-1.32.25-3.29-9a4.13,4.13,0,0,1-1.19,1l.12.36-3,7.35-.91.24v.49h2.73v-.49l-.89-.23,1-2.68h2.79l1,2.66-1,.25v.49h6.66v-.49l-1.12-.24v-3.37a1.64,1.64,0,0,1,1.48,1.09l1.32,2.36a2.13,2.13,0,0,0,1.91,1.16,1.89,1.89,0,0,0,1.25-.52h3a4.48,4.48,0,0,0,4.6-4.35,4.36,4.36,0,0,0-4.68-4.35Zm-16.9,4.63,1.18-3.09,1.13,3.09Zm8.62-.65h-.59v-3.24h.74a1.47,1.47,0,0,1,1.52,1.55,1.69,1.69,0,0,1-1.67,1.69Zm8.19,4H391.7v-7.26H393c2,0,3.19,1.37,3.19,3.63s-1.26,3.63-3.22,3.63Z" transform="translate(1 -0.02)"/><path class="fec7584f-c8f4-416c-be13-892e5f2cccb9" d="M329.51,271.46l-3.22-8.74a4.13,4.13,0,0,1-1.19,1l.12.36-3,7.35-.64.24-.19.49h2.66v-.49l-.89-.23,1-2.68H327l1,2.66-1,.25v.49h3.57v-.49l-1-.23Zm-5.11-3.36,1.18-3.09,1.13,3.09Z" transform="translate(1 -0.02)"/><polygon class="fec7584f-c8f4-416c-be13-892e5f2cccb9" points="322.84 269.96 322.52 269.78 320.64 271.49 319.03 271.49 319.03 264.19 319.99 263.95 319.99 263.46 316.53 263.46 316.53 263.95 317.5 264.19 317.5 271.43 316.53 271.68 316.53 272.17 321.98 272.17 322.84 269.96 322.84 269.96"/><polygon class="fec7584f-c8f4-416c-be13-892e5f2cccb9" points="337.96 263.46 337.96 263.95 339.01 264.19 336.73 270.02 334.34 264.18 335.47 263.95 335.47 263.46 331.6 263.46 331.6 263.95 332.71 264.19 336.14 272.47 336.51 272.47 339.94 264.2 339.97 264.2 341.04 263.95 341.04 263.46 337.96 263.46 337.96 263.46"/><path class="fec7584f-c8f4-416c-be13-892e5f2cccb9" d="M371.28,263.48V264l1,.24s.08,4.31,0,5.4a2.2,2.2,0,0,1-2.34,2.13,2.16,2.16,0,0,1-2.34-2.24v-5.31l1-.23v-.49h-3.5V264l1,.24v5.35a3.21,3.21,0,0,0,3.46,3,3.15,3.15,0,0,0,3.46-3l.07-5.34,1-.24v-.49Z" transform="translate(1 -0.02)"/><path class="fec7584f-c8f4-416c-be13-892e5f2cccb9" d="M409.09,271.45l-3.2-8.72a4.13,4.13,0,0,1-1.19,1l.12.36-3,7.39-.51.21-.69-.22v-7.27l1.07-.24v-.49H398V264l1.05.25v7.25l-1,.24v.49h5.57v-.49l-.9-.23,1-2.68h2.79l1,2.66-1,.25v.49h3.57v-.49l-1-.25ZM404,268.11l1.18-3.09,1.13,3.09Z" transform="translate(1 -0.02)"/><path class="fec7584f-c8f4-416c-be13-892e5f2cccb9" d="M352.58,263.48V264l1.06.25.07,5.69-5.45-6.43h-2.33V264l1.05.23.09,0-.08,7.2h0l-1.07.25-3.29-9a4.13,4.13,0,0,1-1.19,1l.12.36-3,7.35-.91.24v.49h2.73v-.49l-.89-.23,1-2.68h2.79l1,2.66-1,.25v.49h5.72v-.49l-1.12-.24-.07-6.3,6.23,7.33h.41l.08-8.28,1.06-.24v-.49Zm-11.85,4.63,1.18-3.09,1.13,3.09Z" transform="translate(1 -0.02)"/><path class="fec7584f-c8f4-416c-be13-892e5f2cccb9" d="M361.74,267.74v.49l1,.25v2.8a3.26,3.26,0,0,1-2,.66c-2,0-3.24-1.67-3.24-4s1.24-4.15,3.27-4.15a3.1,3.1,0,0,1,2.91,2.37L364,266v-2.75l-.25-.14-.53.67a5.5,5.5,0,0,0-2.41-.61,4.87,4.87,0,0,0-4.88,4.8,4.43,4.43,0,0,0,4.51,4.64,4.49,4.49,0,0,0,2.81-.93l.77.51h.25v-3.74l.82-.31v-.4Z" transform="translate(1 -0.02)"/><text class="0bb5a708-c587-42d1-86d9-84a4ffd1a393" transform="translate(174.42 112)">54,9</text><text class="0bb5a708-c587-42d1-86d9-84a4ffd1a393" transform="translate(174.42 139)">53,2</text><text class="0bb5a708-c587-42d1-86d9-84a4ffd1a393" transform="translate(173 167)">53,8</text><text class="0bb5a708-c587-42d1-86d9-84a4ffd1a393" transform="translate(174 193)">56,1</text><text class="d425320a-a55b-4d0f-85c6-9ce042b510de" transform="translate(172 221)">44,9</text><text class="db236e8b-aa28-43a5-a3ce-f36ea432f220" transform="translate(327.55 87.75)">Mujeres</text><text class="db236e8b-aa28-43a5-a3ce-f36ea432f220" transform="translate(248.55 88.44)">Hombres</text><rect class="a962d45d-2aab-42b0-8ad5-c317a25dee1d" x="245.5" y="92.48" width="76" height="27.97"/><path class="fec7584f-c8f4-416c-be13-892e5f2cccb9" d="M320,93v27H245V93h75m1-1H244v29h77V92Z" transform="translate(1 -0.02)"/><rect class="4d36b564-4be0-40ad-bf57-fa169d1735cd" x="245.5" y="119.8" width="76" height="27.97"/><path class="fec7584f-c8f4-416c-be13-892e5f2cccb9" d="M320,120.32v27H245v-27h75m1-1H244v29h77v-29Z" transform="translate(1 -0.02)"/><rect class="4d36b564-4be0-40ad-bf57-fa169d1735cd" x="245.5" y="173.94" width="76" height="27.97"/><path class="fec7584f-c8f4-416c-be13-892e5f2cccb9" d="M320,174.46v27H245v-27h75m1-1H244v29h77v-29Z" transform="translate(1 -0.02)"/><rect class="4d36b564-4be0-40ad-bf57-fa169d1735cd" x="245.5" y="201.26" width="76" height="27.97"/><path class="fec7584f-c8f4-416c-be13-892e5f2cccb9" d="M320,201.78v27H245v-27h75m1-1H244v29h77v-29Z" transform="translate(1 -0.02)"/><text class="0bb5a708-c587-42d1-86d9-84a4ffd1a393" transform="translate(274.42 112)"><tspan class="b944aa93-4a03-462e-817d-cce0d77bc72a">1</tspan><tspan x="6.75" y="0">1</tspan></text><text class="0bb5a708-c587-42d1-86d9-84a4ffd1a393" transform="translate(272.42 139)">4,2</text><text class="0bb5a708-c587-42d1-86d9-84a4ffd1a393" transform="translate(279 193)">3</text><text class="0bb5a708-c587-42d1-86d9-84a4ffd1a393" transform="translate(273 221)">2,7</text><rect class="4d36b564-4be0-40ad-bf57-fa169d1735cd" x="245.5" y="146.94" width="76" height="27.97"/><path class="fec7584f-c8f4-416c-be13-892e5f2cccb9" d="M320,147.46v27H245v-27h75m1-1H244v29h77v-29Z" transform="translate(1 -0.02)"/><text class="0bb5a708-c587-42d1-86d9-84a4ffd1a393" transform="translate(273 167)">4,3</text><rect class="a962d45d-2aab-42b0-8ad5-c317a25dee1d" x="323.5" y="92.48" width="76" height="27.97"/><path class="fec7584f-c8f4-416c-be13-892e5f2cccb9" d="M398,93v27H323V93h75m1-1H322v29h77V92Z" transform="translate(1 -0.02)"/><rect class="cecbaa21-94db-4281-a1eb-caf2222e589f" x="323.5" y="119.8" width="76" height="27.97"/><path class="fec7584f-c8f4-416c-be13-892e5f2cccb9" d="M398,120.32v27H323v-27h75m1-1H322v29h77v-29Z" transform="translate(1 -0.02)"/><rect class="cecbaa21-94db-4281-a1eb-caf2222e589f" x="323.5" y="173.94" width="76" height="27.97"/><path class="fec7584f-c8f4-416c-be13-892e5f2cccb9" d="M398,174.46v27H323v-27h75m1-1H322v29h77v-29Z" transform="translate(1 -0.02)"/><rect class="cecbaa21-94db-4281-a1eb-caf2222e589f" x="323.5" y="201.26" width="76" height="27.97"/><path class="fec7584f-c8f4-416c-be13-892e5f2cccb9" d="M398,201.78v27H323v-27h75m1-1H322v29h77v-29Z" transform="translate(1 -0.02)"/><rect class="cecbaa21-94db-4281-a1eb-caf2222e589f" x="323.5" y="146.94" width="76" height="27.97"/><path class="fec7584f-c8f4-416c-be13-892e5f2cccb9" d="M398,147.46v27H323v-27h75m1-1H322v29h77v-29Z" transform="translate(1 -0.02)"/><text class="0bb5a708-c587-42d1-86d9-84a4ffd1a393" transform="translate(349.42 112)">14</text><text class="0bb5a708-c587-42d1-86d9-84a4ffd1a393" transform="translate(347.42 139)">8,1</text><text class="0bb5a708-c587-42d1-86d9-84a4ffd1a393" transform="translate(347 167)">6,8</text><text class="0bb5a708-c587-42d1-86d9-84a4ffd1a393" transform="translate(347 193)">5,7</text><text class="0bb5a708-c587-42d1-86d9-84a4ffd1a393" transform="translate(348 221)">9,5</text></svg>