<svg id="Capa_1" data-name="Capa 1" xmlns="http://www.w3.org/2000/svg" viewBox="0 0 1622.61 973.25"><defs><style>.cls-1,.cls-26,.cls-28,.cls-8,.cls-9{fill:none;}.cls-1{stroke:#828282;stroke-width:0.5px;}.cls-1,.cls-22,.cls-23,.cls-24,.cls-25,.cls-26,.cls-28,.cls-7,.cls-8,.cls-9{stroke-miterlimit:10;}.cls-2{font-size:40px;fill:#353535;}.cls-10,.cls-16,.cls-2,.cls-3{font-family:Arial-BoldMT, Arial;}.cls-11,.cls-16,.cls-2,.cls-3{font-weight:700;}.cls-10,.cls-3{font-size:30px;}.cls-3{fill:#757576;}.cls-4{font-size:27px;}.cls-10,.cls-19,.cls-27,.cls-4{fill:#747474;}.cls-27,.cls-4{font-family:ArialNarrow, Arial;}.cls-5{letter-spacing:-0.03em;}.cls-6{opacity:0.52;}.cls-22,.cls-23,.cls-24,.cls-25,.cls-7{fill:#538f92;stroke:#48756f;}.cls-8{stroke:#747474;}.cls-23,.cls-8{opacity:0.42;}.cls-9{stroke:#a8a8a8;}.cls-12,.cls-14,.cls-19{font-size:24px;}.cls-12,.cls-15,.cls-19{font-family:ArialMT, Arial;}.cls-13{letter-spacing:-0.04em;}.cls-17{fill:#283659;}.cls-18{fill:#fff;}.cls-20{letter-spacing:-0.02em;}.cls-21{letter-spacing:-0.11em;}.cls-22{opacity:0.38;}.cls-24{opacity:0.46;}.cls-25{opacity:0.71;}.cls-26{stroke:#c0bfbf;}.cls-26,.cls-28{opacity:0.6;}.cls-27{font-size:22px;}.cls-28{stroke:#cbcbcb;}</style></defs><title>2017.08_ISIS_Europa</title><line class="cls-1" x1="83.83" y1="279.61" x2="1608.5" y2="279.61"/><text x="4.83" y="-19.39"></text><text class="cls-2" transform="translate(18.92 34.32)">Cronología de los últimos ataques terroristas yihadistas perpretados en Europa</text><text class="cls-3" transform="translate(50.46 105.35)">2015</text><text class="cls-3" transform="translate(623.46 102.17)">2016</text><text class="cls-3" transform="translate(1196.46 106.68)">2017</text><text class="cls-4" transform="translate(52.83 197.59)">ENERO</text><text class="cls-4" transform="translate(326.58 198.94)">JULIO</text><text class="cls-4" transform="translate(186.33 197.94)">ABRI<tspan class="cls-5" x="51.67" y="0">L</tspan></text><text class="cls-4" transform="translate(459.71 197.94)">OCTUBRE</text><g class="cls-6"><path class="cls-7" d="M71.68,278.24A20.76,20.76,0,1,1,50.91,299a20.76,20.76,0,0,1,20.76-20.76h0" transform="translate(4.83 -19.39)"/><path class="cls-7" d="M101,293a6,6,0,0,1,6,6c-.3,4.3-2.74,6.19-6,6a6,6,0,0,1,0-12h0" transform="translate(4.83 -19.39)"/><path class="cls-7" d="M124,285.6a13.4,13.4,0,1,1-13.4,13.4A13.4,13.4,0,0,1,124,285.6h0" transform="translate(4.83 -19.39)"/><path class="cls-7" d="M152,293a6,6,0,1,1-6,6,6,6,0,0,1,6-6h0" transform="translate(4.83 -19.39)"/><path class="cls-7" d="M162.83,293a6,6,0,1,1-6,6,6,6,0,0,1,6-6h0" transform="translate(4.83 -19.39)"/><path class="cls-7" d="M195.24,293a6,6,0,1,1-6,6,6,6,0,0,1,6-6h0" transform="translate(4.83 -19.39)"/><path class="cls-7" d="M321.75,293a6,6,0,1,1-6,6,6,6,0,0,1,6-6h0" transform="translate(4.83 -19.39)"/><path class="cls-7" d="M572.88,228.84A70.16,70.16,0,1,1,502.72,299a70.16,70.16,0,0,1,70.16-70.16h0" transform="translate(4.83 -19.39)"/><path class="cls-7" d="M732.52,293a6,6,0,1,1-6,6,6,6,0,0,1,6-6h0" transform="translate(4.83 -19.39)"/><path class="cls-7" d="M785,263.54A35.46,35.46,0,1,1,749.54,299,35.46,35.46,0,0,1,785,263.54h0" transform="translate(4.83 -19.39)"/><path class="cls-7" d="M912.73,299" transform="translate(4.83 -19.39)"/><path class="cls-7" d="M917,288.62A10.38,10.38,0,1,1,906.62,299,10.38,10.38,0,0,1,917,288.62h0" transform="translate(4.83 -19.39)"/><path class="cls-7" d="M987,243.09A55.91,55.91,0,1,1,931.09,299,55.91,55.91,0,0,1,987,243.09h0" transform="translate(4.83 -19.39)"/><path class="cls-7" d="M1051.62,293a6,6,0,1,1-6,6,6,6,0,0,1,6-6h0" transform="translate(4.83 -19.39)"/><path class="cls-7" d="M1067.45,293a6,6,0,1,1-6,6,6,6,0,0,1,6-6h0" transform="translate(4.83 -19.39)"/><path class="cls-7" d="M1145,288.62A10.38,10.38,0,1,1,1134.64,299,10.38,10.38,0,0,1,1145,288.62h0" transform="translate(4.83 -19.39)"/><path class="cls-7" d="M1177.81,278.24A20.76,20.76,0,1,1,1157,299a20.76,20.76,0,0,1,20.76-20.76h0" transform="translate(4.83 -19.39)"/><path class="cls-7" d="M1207,293a6,6,0,1,1-6,6,6,6,0,0,1,6-6h0" transform="translate(4.83 -19.39)"/><path class="cls-7" d="M1219,293a6,6,0,1,1-6,6,6,6,0,0,1,6-6h0" transform="translate(4.83 -19.39)"/><path class="cls-7" d="M1330.48,290.52A8.48,8.48,0,1,1,1322,299a8.48,8.48,0,0,1,8.48-8.48h0" transform="translate(4.83 -19.39)"/><path class="cls-7" d="M1427.36,270.25A28.75,28.75,0,1,1,1398.62,299a28.75,28.75,0,0,1,28.75-28.75h0" transform="translate(4.83 -19.39)"/><path class="cls-7" d="M1510,279.12A19.88,19.88,0,1,1,1490.12,299,19.88,19.88,0,0,1,1510,279.12h0" transform="translate(4.83 -19.39)"/><path class="cls-7" d="M1540.58,293a6,6,0,1,1-6,6,6,6,0,0,1,6-6h0" transform="translate(4.83 -19.39)"/><path class="cls-7" d="M1581.26,268.81a28.11,28.11,0,1,1-28.11,28.11,28.11,28.11,0,0,1,28.11-28.11h0" transform="translate(4.83 -19.39)"/></g><text class="cls-4" transform="translate(623.83 197.94)">ENERO</text><text class="cls-4" transform="translate(785.98 197.94)">ABRI<tspan class="cls-5" x="51.67" y="0">L</tspan></text><text class="cls-4" transform="translate(924.83 197.94)">JULIO</text><text class="cls-4" transform="translate(1045.83 197.94)">OCTUBRE</text><text class="cls-4" transform="translate(1203.64 197.94)">ENERO</text><text class="cls-4" transform="translate(1356.5 197.94)">ABRI<tspan class="cls-5" x="51.67" y="0">L</tspan></text><text class="cls-4" transform="translate(1494.28 197.59)">JULIO</text><line class="cls-8" x1="80.83" y1="122.72" x2="80.83" y2="172.22"/><line class="cls-8" x1="221.83" y1="122.72" x2="221.83" y2="172.22"/><line class="cls-8" x1="653.83" y1="122.72" x2="653.83" y2="172.22"/><line class="cls-8" x1="809.83" y1="122.2" x2="809.83" y2="171.7"/><line class="cls-8" x1="1085.83" y1="122.72" x2="1085.83" y2="172.22"/><line class="cls-8" x1="1226.83" y1="123.2" x2="1226.83" y2="172.7"/><line class="cls-8" x1="122.83" y1="122.2" x2="122.83" y2="146.95"/><line class="cls-8" x1="169.83" y1="122.72" x2="169.83" y2="147.47"/><line class="cls-8" x1="311.83" y1="122.72" x2="311.83" y2="147.47"/><line class="cls-8" x1="406.83" y1="122.2" x2="406.83" y2="146.95"/><line class="cls-8" x1="757.83" y1="122.2" x2="757.83" y2="146.95"/><line class="cls-8" x1="707.83" y1="122.72" x2="707.83" y2="147.47"/><line class="cls-8" x1="858.83" y1="123.2" x2="858.83" y2="147.95"/><line class="cls-8" x1="998.83" y1="122.72" x2="998.83" y2="147.47"/><line class="cls-8" x1="1132.83" y1="122.72" x2="1132.83" y2="147.47"/><line class="cls-8" x1="1178.83" y1="122.72" x2="1178.83" y2="147.47"/><line class="cls-8" x1="1275.83" y1="122.2" x2="1275.83" y2="146.95"/><line class="cls-8" x1="606.83" y1="122.72" x2="606.83" y2="147.47"/><line class="cls-8" x1="265.83" y1="122.72" x2="265.83" y2="147.47"/><line class="cls-8" x1="456.83" y1="122.72" x2="456.83" y2="147.47"/><line class="cls-8" x1="555.83" y1="122.2" x2="555.83" y2="146.95"/><line class="cls-8" x1="357.83" y1="122.72" x2="357.83" y2="172.22"/><line class="cls-8" x1="507.83" y1="122.72" x2="507.83" y2="172.22"/><line class="cls-8" x1="905.83" y1="122.72" x2="905.83" y2="147.47"/><line class="cls-8" x1="955.83" y1="123.2" x2="955.83" y2="172.7"/><line class="cls-8" x1="1042.83" y1="123.2" x2="1042.83" y2="147.95"/><line class="cls-8" x1="1326.83" y1="122.2" x2="1326.83" y2="146.95"/><line class="cls-8" x1="1377.83" y1="123.2" x2="1377.83" y2="172.7"/><line class="cls-8" x1="1423.83" y1="123.2" x2="1423.83" y2="147.95"/><line class="cls-8" x1="1469.17" y1="123.2" x2="1469.17" y2="147.95"/><line class="cls-8" x1="1514.83" y1="123.2" x2="1514.83" y2="172.7"/><line class="cls-8" x1="1560.17" y1="123.2" x2="1560.17" y2="147.95"/><line class="cls-8" x1="1605.5" y1="122.72" x2="1605.5" y2="147.47"/><line class="cls-9" x1="577.71" y1="349.15" x2="577.71" y2="466.64"/><line class="cls-9" x1="991.83" y1="335.52" x2="991.83" y2="450.61"/><line class="cls-9" x1="789.83" y1="315.07" x2="789.83" y2="721.72"/><line class="cls-9" x1="1586.36" y1="302.81" x2="1585.83" y2="773.76"/><line class="cls-9" x1="1432.2" y1="308.36" x2="1431.83" y2="611.61"/><line class="cls-9" x1="76.83" y1="296.74" x2="76.19" y2="637.7"/><text class="cls-10" transform="translate(82.83 573.15)"><tspan class="cls-11">París - Charlie Hebdo</tspan><tspan class="cls-12"><tspan x="0" y="35">7 de enero de 2015</tspan><tspan x="0" y="62">12 muertos y 12 heridos</tspan></tspan></text><text x="4.83" y="-19.39"></text><text class="cls-10" transform="translate(273.18 402.09)"><tspan class="cls-11">París - Sala Bataclán</tspan><tspan class="cls-12"><tspan x="22.95" y="36">13 de noviembre de 2015</tspan><tspan x="10.98" y="63">130 muertos y 352 heridos</tspan></tspan></text><text class="cls-10" transform="translate(468.21 657.17)"><tspan class="cls-11">Bruselas -<tspan class="cls-13" x="145.06" y="0"> </tspan><tspan x="152.29" y="0">Aeropuerto </tspan></tspan><tspan class="cls-12"><tspan x="87.13" y="36">22 de marzo de 2016</tspan></tspan><tspan class="cls-14"><tspan class="cls-11" x="29.8" y="62" xml:space="preserve">  </tspan><tspan class="cls-15" x="43.14" y="62">31 muertos y 200 heridos</tspan></tspan></text><text class="cls-10" transform="translate(999.67 386.06)"><tspan class="cls-11">Niza - Paseo</tspan><tspan class="cls-12"><tspan x="0" y="36">14 de julio de 2016</tspan><tspan x="0" y="62">84 muertos y 100 heridos</tspan></tspan></text><text class="cls-10" transform="translate(877.81 547.06)"><tspan class="cls-11">Concierto<tspan class="cls-13" x="140.01" y="0"> </tspan><tspan x="147.23" y="0">Ariana Grande - Manchester</tspan></tspan><tspan class="cls-12"><tspan x="328.52" y="36">22 de mayo de 2017</tspan><tspan x="283.21" y="62" xml:space="preserve"> 22 muertos y</tspan><tspan class="cls-16" x="428.61" y="62"> </tspan><tspan x="435.28" y="62">59 heridos</tspan></tspan></text><text class="cls-10" transform="translate(1252.54 709.21)"><tspan class="cls-11">Barcelona - La Rambla</tspan><tspan class="cls-12"><tspan x="91.23" y="36">17 de agosto de 2017</tspan><tspan x="45.95" y="62" xml:space="preserve"> 15 muertos y 132 heridos</tspan></tspan></text><polygon class="cls-17" points="1374.23 917.39 1622.61 917.39 1622.61 955.12 1374.23 955.12 1374.23 917.39 1374.23 917.39"/><path class="cls-18" d="M1568.66,945.2h-9.52v1.19l2.5.59v17.57a2.08,2.08,0,0,1-1.75.88,3.73,3.73,0,0,1-3.09-2.27l-2.38-4.26a4.93,4.93,0,0,0-4.35-2.93v-.29c3.18-.08,6-2.34,6-5.42,0-3.65-3.32-5.08-7.16-5.08h-8.64v1.19l2.82.59v17.8h0l-3.25.62-8.09-22.06a10.16,10.16,0,0,1-2.92,2.49l.31.89-7.38,18.08-2.23.6v1.19h6.72v-1.19l-2.2-.57,2.5-6.59h6.85l2.4,6.54-2.58.62v1.19h16.38v-1.19l-2.76-.58v-8.29c1.86.12,2.75,1,3.65,2.68l3.25,5.8a5.25,5.25,0,0,0,4.7,2.85,4.65,4.65,0,0,0,3.08-1.27h7.34c6.24,0,11.3-4.79,11.3-10.7,0-6.24-4.83-10.7-11.5-10.7Zm-41.56,11.38,2.9-7.6,2.79,7.6Zm21.2-1.61h-1.46v-8h1.83a3.6,3.6,0,0,1,3.75,3.82,4.15,4.15,0,0,1-4.11,4.16Zm20.14,9.86h-3.05V947h3.14c4.86,0,7.84,3.36,7.84,8.92s-3.11,8.92-7.92,8.92Z" transform="translate(4.83 -19.39)"/><path class="cls-18" d="M1412.45,964.83l-7.91-21.49a10.15,10.15,0,0,1-2.92,2.49l.31.89-7.38,18.08-1.58.6-.47,1.19H1399v-1.19l-2.2-.57,2.5-6.59h6.85l2.4,6.54-2.58.62v1.19h8.79v-1.19l-2.34-.58Zm-12.56-8.25,2.9-7.6,2.79,7.6Z" transform="translate(4.83 -19.39)"/><polygon class="cls-18" points="1398.43 941.78 1397.63 941.34 1393 945.55 1389.05 945.55 1389.05 927.61 1391.43 927 1391.43 925.81 1382.91 925.81 1382.91 927 1385.3 927.61 1385.3 945.41 1382.91 946.02 1382.91 947.21 1396.3 947.21 1398.43 941.78 1398.43 941.78"/><polygon class="cls-18" points="1435.62 925.81 1435.62 927 1438.19 927.61 1432.59 941.93 1426.71 927.58 1429.48 927 1429.48 925.81 1419.98 925.81 1419.98 927 1422.69 927.6 1431.14 947.96 1432.05 947.96 1440.47 927.63 1440.55 927.63 1443.18 927 1443.18 925.81 1435.62 925.81 1435.62 925.81"/><path class="cls-18" d="M1515.17,945.2v1.19l2.56.6s.19,10.6.1,13.29c-.11,3.13-2.55,5.23-5.76,5.23s-5.67-2-5.76-5.5V947l2.49-.56V945.2h-8.6v1.19l2.44.58v13.15c.16,4.52,3.81,7.49,8.51,7.49s8.34-2.75,8.51-7.49l.17-13.13,2.51-.6V945.2Z" transform="translate(4.83 -19.39)"/><path class="cls-18" d="M1608.16,964.79l-7.87-21.44a10.15,10.15,0,0,1-2.92,2.49l.31.89-7.4,18.17-1.26.51-1.7-.54V947l2.62-.6V945.2h-9v1.19l2.59.61v17.82l-2.48.58v1.19h13.7v-1.19l-2.2-.57,2.5-6.59h6.85l2.4,6.54-2.58.62v1.19h8.79v-1.19l-2.38-.62Zm-12.53-8.21,2.9-7.6,2.79,7.6Z" transform="translate(4.83 -19.39)"/><path class="cls-18" d="M1469.19,945.2v1.19l2.61.61.16,14-13.41-15.81h-5.73v1.19l2.59.57.22.11-.19,17.7h0l-2.64.62-8.09-22.06a10.16,10.16,0,0,1-2.92,2.49l.31.89-7.38,18.08-2.23.6v1.19h6.72v-1.19l-2.2-.57,2.5-6.59h6.85l2.4,6.54-2.58.62v1.19h14.07v-1.19l-2.76-.6-.17-15.49,15.33,18h1l.2-20.36,2.6-.59V945.2Zm-29.14,11.38,2.9-7.6,2.79,7.6Z" transform="translate(4.83 -19.39)"/><path class="cls-18" d="M1491.72,955.66v1.19l2.42.61v6.89a8,8,0,0,1-4.84,1.61c-4.87,0-8-4.1-8-9.77,0-5.51,3.06-10.21,8-10.21a7.63,7.63,0,0,1,7.16,5.83l.69-.41v-6.76l-.62-.34-1.3,1.64a13.51,13.51,0,0,0-5.93-1.51,12,12,0,0,0-12,11.79c0,6.67,4.71,11.41,11.1,11.41a11.05,11.05,0,0,0,6.9-2.3l1.89,1.26h.61v-9.19l2-.77v-1Z" transform="translate(4.83 -19.39)"/><text class="cls-19" transform="translate(18.5 954.17)">Fuente: Global<tspan class="cls-20" x="157.43" y="0"> </tspan><tspan class="cls-21" x="163.66" y="0">T</tspan><tspan x="175.66" y="0">errorism Database y Peace</tspan><tspan class="cls-21" x="466.45" y="0">T</tspan><tspan x="478.45" y="0">ech Lab.</tspan></text><text class="cls-4" transform="translate(35.58 741.06)">Número de fallecidos </text><path class="cls-22" d="M106.5,780.47a70.16,70.16,0,1,1-70.16,70.16,70.16,70.16,0,0,1,70.16-70.16h0" transform="translate(4.83 -19.39)"/><path class="cls-23" d="M106.46,799.48a60.81,60.81,0,1,1-60.81,60.81,60.81,60.81,0,0,1,60.81-60.81h0" transform="translate(4.83 -19.39)"/><path class="cls-24" d="M106.5,843.29a39.35,39.35,0,1,1-39.35,39.35,39.35,39.35,0,0,1,39.35-39.35h0" transform="translate(4.83 -19.39)"/><path class="cls-25" d="M107.57,872.36a24.38,24.38,0,1,1-24.38,24.38,24.38,24.38,0,0,1,24.38-24.38h0" transform="translate(4.83 -19.39)"/><path class="cls-7" d="M106.5,909.18a6,6,0,1,1-6,6,6,6,0,0,1,6-6h0" transform="translate(4.83 -19.39)"/><line class="cls-26" x1="112.33" y1="761.08" x2="257.83" y2="761.08"/><line class="cls-26" x1="110.74" y1="902.4" x2="256.24" y2="902.4"/><text class="cls-27" transform="translate(263 770.23)">130</text><line class="cls-26" x1="111.33" y1="779.97" x2="256.83" y2="779.97"/><line class="cls-26" x1="111.09" y1="823.04" x2="256.58" y2="823.04"/><line class="cls-28" x1="110.74" y1="851.98" x2="256.24" y2="851.98"/><text class="cls-27" transform="translate(264 796.22)">100</text><text class="cls-27" transform="translate(266.14 830.3)">50</text><text class="cls-27" transform="translate(267.14 905.04)">1</text><text x="4.83" y="-19.39"></text><text class="cls-27" transform="translate(266.14 855.5)">25</text></svg>