<svg id="fb35c26a-06f9-41ac-aabc-8002b67eb3d6" data-name="Capa 1" xmlns="http://www.w3.org/2000/svg" viewBox="0 0 532 468"><defs><style>.c60d9919-72c1-48ed-98b9-35ffa7cea174{fill:#efb21b;}.\32 63b9e6d-034f-49c0-b7b0-835e0d3bb509,.\32 e096bfb-40c2-481c-8a6b-e3a6262574e0,.\32 e26ef51-6e12-449e-8d69-73af649f1e0b,.\32 f6ea626-bd36-4732-ad16-7d0f95806285,.\33 13860a7-2ade-4f7a-a4af-855e45182cfd,.\33 f47f656-7a10-465f-90e0-675f5f89b3de,.\35 04f4762-6ef8-4921-810c-3cb5a2ff3f69,.\35 ba7b658-6b25-4d1e-906d-ca577de36f85,.\36 150a5f8-9165-4213-a546-6595820b2f62,.\37 cb8e65f-6faf-4fea-9e46-55f30157a68c,.\38 0f5fe42-8328-4223-97e4-35d468aa8bd9,.a8808e3e-9927-406b-bc94-594383343ee0,.c60d9919-72c1-48ed-98b9-35ffa7cea174,.d9754815-6363-4f23-8593-925fd03bf640{stroke:#fff;stroke-linejoin:round;stroke-width:1.6px;}.\32 e26ef51-6e12-449e-8d69-73af649f1e0b,.\33 13860a7-2ade-4f7a-a4af-855e45182cfd,.\33 f47f656-7a10-465f-90e0-675f5f89b3de,.\35 04f4762-6ef8-4921-810c-3cb5a2ff3f69,.\37 cb8e65f-6faf-4fea-9e46-55f30157a68c,.c60d9919-72c1-48ed-98b9-35ffa7cea174,.d9754815-6363-4f23-8593-925fd03bf640{opacity:0.77;}.\33 13860a7-2ade-4f7a-a4af-855e45182cfd{fill:#3f4d78;}.\32 63b9e6d-034f-49c0-b7b0-835e0d3bb509,.\37 cb8e65f-6faf-4fea-9e46-55f30157a68c{fill:#ffe600;}.\32 e26ef51-6e12-449e-8d69-73af649f1e0b,.\32 f6ea626-bd36-4732-ad16-7d0f95806285{fill:#8e244f;}.\33 f47f656-7a10-465f-90e0-675f5f89b3de,.\38 0f5fe42-8328-4223-97e4-35d468aa8bd9{fill:#991d26;}.\36 150a5f8-9165-4213-a546-6595820b2f62,.d9754815-6363-4f23-8593-925fd03bf640{fill:#d57928;}.\32 e096bfb-40c2-481c-8a6b-e3a6262574e0,.\35 04f4762-6ef8-4921-810c-3cb5a2ff3f69{fill:#59a5a5;}.\38 b4ba5b7-cfb5-46f8-a45d-62832d099846{font-size:26px;}.\30 1f9cea1-e8da-4d99-bc28-3df13dbd3277,.\38 b4ba5b7-cfb5-46f8-a45d-62832d099846,.a61cf180-a90a-4503-8e36-560b06f18092{fill:#323232;}.\32 a9d1af1-aa10-4397-a916-572a177ae511,.\38 b4ba5b7-cfb5-46f8-a45d-62832d099846,.a61cf180-a90a-4503-8e36-560b06f18092,.e518e36f-0a7a-4274-8404-a872ba6dff1f{font-family:Arial-BoldMT, Arial;}.\32 69846b5-394e-4413-b355-f4f05a4e4cdf,.\36 4887516-808f-415c-865c-226a9de4d6be,.\38 b4ba5b7-cfb5-46f8-a45d-62832d099846,.\39 0ce1807-5bbd-46fa-a4fa-ba681e8dccb3,.a61cf180-a90a-4503-8e36-560b06f18092,.cc06922b-e3c8-4568-a098-1512242f7e83,.db17b04f-1eec-4869-bfeb-d4bac5f58941,.e518e36f-0a7a-4274-8404-a872ba6dff1f{font-weight:700;}.\30 1f9cea1-e8da-4d99-bc28-3df13dbd3277,.\30 ef1c08e-518c-472a-bb80-e6f1d5acc096,.\32 a9d1af1-aa10-4397-a916-572a177ae511{font-size:15px;}.\30 1f9cea1-e8da-4d99-bc28-3df13dbd3277,.\30 a233367-1793-49c2-ab07-edc29cb61f6a,.\30 ef1c08e-518c-472a-bb80-e6f1d5acc096,.\37 3391660-2be9-4586-a5c2-216f7620da51,.b17c0441-895a-4d52-898c-fa9a853a36c5,.d0b1453f-2b2d-47de-b770-8aa382104115{font-family:ArialMT, Arial;}.\30 a233367-1793-49c2-ab07-edc29cb61f6a{font-size:13px;}.\30 a233367-1793-49c2-ab07-edc29cb61f6a,.\30 ef1c08e-518c-472a-bb80-e6f1d5acc096,.\32 a9d1af1-aa10-4397-a916-572a177ae511,.\33 9a0d45a-83b1-4ecf-9b4f-2a68e26635ac{fill:#757575;}.\39 98a9868-43f6-4685-8b4b-87625f3a4a8e{fill:#283659;}.\35 ba7b658-6b25-4d1e-906d-ca577de36f85,.e5ea6a06-d531-49b2-b8ab-febe05863a03{fill:#fff;}.\36 4887516-808f-415c-865c-226a9de4d6be{letter-spacing:-0.02em;}.\32 69846b5-394e-4413-b355-f4f05a4e4cdf{letter-spacing:0em;}.\39 0ce1807-5bbd-46fa-a4fa-ba681e8dccb3{letter-spacing:-0.02em;}.\32 2503e8f-a107-4921-9a22-5ca386ee9eba,.\37 a807791-54e9-4f25-8517-c5592ec8eb20,.d8018797-9106-45a8-9564-1d774f6b4ecf{fill:none;stroke-miterlimit:10;}.d8018797-9106-45a8-9564-1d774f6b4ecf{stroke:#757575;}.a8808e3e-9927-406b-bc94-594383343ee0{fill:#159094;}.\32 63b9e6d-034f-49c0-b7b0-835e0d3bb509,.\32 e096bfb-40c2-481c-8a6b-e3a6262574e0,.\32 f6ea626-bd36-4732-ad16-7d0f95806285,.\36 150a5f8-9165-4213-a546-6595820b2f62,.\38 0f5fe42-8328-4223-97e4-35d468aa8bd9,.a8808e3e-9927-406b-bc94-594383343ee0{opacity:0.49;}.\32 2503e8f-a107-4921-9a22-5ca386ee9eba,.\37 a807791-54e9-4f25-8517-c5592ec8eb20{stroke:#323232;}.\32 2503e8f-a107-4921-9a22-5ca386ee9eba{stroke-dasharray:5.15 5.15;}.cc06922b-e3c8-4568-a098-1512242f7e83,.d0b1453f-2b2d-47de-b770-8aa382104115{letter-spacing:0em;}.\37 3391660-2be9-4586-a5c2-216f7620da51{letter-spacing:-0.07em;}.a61cf180-a90a-4503-8e36-560b06f18092{font-size:19.42px;}</style></defs><title>2017.11_Metaencuesta</title><path class="c60d9919-72c1-48ed-98b9-35ffa7cea174" d="M69.84,394.27A180.5,180.5,0,0,1,90.46,239.66l105.72,69.18A54.15,54.15,0,0,0,190,355.23Z"/><path class="313860a7-2ade-4f7a-a4af-855e45182cfd" d="M90.46,239.66A180.5,180.5,0,0,1,204,161.94l26.27,123.59a54.15,54.15,0,0,0-34.05,23.32Z"/><path class="7cb8e65f-6faf-4fea-9e46-55f30157a68c" d="M204,161.94A180.5,180.5,0,0,1,239,158l1.76,126.34a54.15,54.15,0,0,0-10.5,1.18Z"/><path class="2e26ef51-6e12-449e-8d69-73af649f1e0b" d="M239,158a180.5,180.5,0,0,1,45,5L254.23,285.86a54.15,54.15,0,0,0-13.49-1.51Z"/><path class="3f47f656-7a10-465f-90e0-675f5f89b3de" d="M283.94,163.06a180.5,180.5,0,0,1,90,52.8L281.23,301.7a54.15,54.15,0,0,0-27-15.84Z"/><path class="d9754815-6363-4f23-8593-925fd03bf640" d="M373.94,215.86a180.5,180.5,0,0,1,46.79,144l-125.46-15a54.15,54.15,0,0,0-14-43.2Z"/><path class="504f4762-6ef8-4921-810c-3cb5a2ff3f69" d="M420.73,359.87a180.5,180.5,0,0,1-7.56,34.41L293,355.23a54.15,54.15,0,0,0,2.27-10.32Z"/><text class="8b4ba5b7-cfb5-46f8-a45d-62832d099846" transform="translate(18.1 20.62)">Reparto de escaños según los sondeos</text><text class="01f9cea1-e8da-4d99-bc28-3df13dbd3277" transform="translate(42.2 43.74)">Comparación del promedio de las encuestas durante la campaña <tspan x="76.71" y="18">con el resultado de las elecciones del 27S</tspan></text><text class="0a233367-1793-49c2-ab07-edc29cb61f6a" transform="translate(6.5 457.02) scale(0.99 1)">Fuente: Electrograph</text><polygon class="998a9868-43f6-4685-8b4b-87625f3a4a8e" points="429 440.27 525.44 440.27 525.44 454.93 429 454.93 429 440.27 429 440.27"/><path class="e5ea6a06-d531-49b2-b8ab-febe05863a03" d="M506.36,443.55h-3.7V444l1,.23v6.81a.81.81,0,0,1-.68.35,1.45,1.45,0,0,1-1.2-.88l-.92-1.65a1.91,1.91,0,0,0-1.69-1.14v-.12a2.26,2.26,0,0,0,2.33-2.1c0-1.42-1.29-2-2.78-2h-3.35V444l1.1.23v6.91h0l-1.26.24L492,442.83a4,4,0,0,1-1.13,1l.12.35-2.87,7-.86.23v.46h2.62v-.46l-.85-.22,1-2.56h2.66l.93,2.54-1,.24v.46H499v-.46l-1-.23V448a1.57,1.57,0,0,1,1.42,1l1.26,2.25a2,2,0,0,0,1.82,1.11,1.8,1.8,0,0,0,1.2-.49h2.85a4.28,4.28,0,0,0,4.39-4.16,4.17,4.17,0,0,0-4.47-4.16ZM490.23,448l1.12-3,1.08,3Zm8.23-.62h-.57v-3.1h.71a1.4,1.4,0,0,1,1.45,1.48,1.61,1.61,0,0,1-1.57,1.62Zm7.82,3.83h-1.18v-6.93h1.22c1.89,0,3,1.31,3,3.46s-1.21,3.46-3.08,3.46Z"/><path class="e5ea6a06-d531-49b2-b8ab-febe05863a03" d="M445.71,451.17l-3.07-8.34a3.94,3.94,0,0,1-1.13,1l.12.35-2.85,7-.61.23-.18.46h2.54v-.46l-.85-.22,1-2.56h2.66l.93,2.54-1,.24v.46h3.42v-.46l-.91-.23Zm-4.87-3.2,1.13-3,1.08,3Z"/><polygon class="e5ea6a06-d531-49b2-b8ab-febe05863a03" points="438.39 449.75 438.08 449.58 436.29 451.21 434.75 451.21 434.75 444.25 435.68 444.01 435.68 443.54 432.37 443.54 432.37 444.01 433.3 444.25 433.3 451.15 432.37 451.39 432.37 451.86 437.57 451.86 438.39 449.75 438.39 449.75"/><polygon class="e5ea6a06-d531-49b2-b8ab-febe05863a03" points="452.83 443.54 452.83 444.01 453.83 444.25 451.66 449.81 449.37 444.24 450.45 444.01 450.45 443.54 446.76 443.54 446.76 444.01 447.82 444.24 451.1 452.14 451.45 452.14 454.72 444.25 454.75 444.25 455.77 444.01 455.77 443.54 452.83 443.54 452.83 443.54"/><path class="e5ea6a06-d531-49b2-b8ab-febe05863a03" d="M485.6,443.55V444l1,.24s.07,4.12,0,5.16a2.1,2.1,0,0,1-2.14,2h-.11a2.07,2.07,0,0,1-2.24-2.13v-5.07l1-.22v-.46h-3.34V444l.95.23v5.11a3.07,3.07,0,0,0,3.3,2.91,3,3,0,0,0,3.3-2.91l.06-5.1,1-.24v-.46Z"/><path class="e5ea6a06-d531-49b2-b8ab-febe05863a03" d="M521.7,451.15l-3.06-8.32a3.94,3.94,0,0,1-1.13,1l.12.35-2.86,7-.49.2-.66-.21v-6.94l1-.23v-.46h-3.48V444l1,.24v6.92l-1,.23v.46h5.3v-.46l-.85-.23,1-2.56h2.66l.93,2.54-1,.24v.46h3.43v-.46l-.92-.24ZM516.84,448l1.13-3,1.08,3Z"/><path class="e5ea6a06-d531-49b2-b8ab-febe05863a03" d="M467.75,443.55V444l1,.24.06,5.44-5.21-6.14H461.4V444l1,.22.08,0-.07,6.88h0l-1,.24-3.14-8.56a4,4,0,0,1-1.1,1l.12.35-2.87,7-.86.23v.46h2.62v-.46l-.85-.22,1-2.56h2.66l.93,2.54-1,.24v.46h5.47v-.46l-1-.24-.12-6,6,7h.39l.08-7.9,1-.23v-.46ZM456.44,448l1.13-3,1.08,3Z"/><path class="e5ea6a06-d531-49b2-b8ab-febe05863a03" d="M476.52,447.61v.46l.94.24V451a3.11,3.11,0,0,1-1.88.62c-1.89,0-3.1-1.57-3.1-3.79s1.18-4,3.14-4a3,3,0,0,1,2.78,2.26l.27-.16v-2.62l-.24-.13-.52.64a5.24,5.24,0,0,0-2.3-.59,4.65,4.65,0,0,0-4.66,4.58,4.22,4.22,0,0,0,4,4.43h.3a4.29,4.29,0,0,0,2.68-.89l.73.49h.24V448.3l.79-.3v-.38Z"/><path class="5ba7b658-6b25-4d1e-906d-ca577de36f85" d="M379.41,339.05C379.41,413.58,319,458,244.46,458S109.51,413.58,109.51,339.05a134.95,134.95,0,0,1,269.9,0Z"/><text class="2a9d1af1-aa10-4397-a916-572a177ae511" transform="translate(288.19 128.23) rotate(-0.14)"><tspan class="db17b04f-1eec-4869-bfeb-d4bac5f58941">CeC-</tspan><tspan class="64887516-808f-415c-865c-226a9de4d6be" x="35" y="0">P</tspan><tspan class="269846b5-394e-4413-b355-f4f05a4e4cdf" x="44.74" y="0"> </tspan><tspan class="b17c0441-895a-4d52-898c-fa9a853a36c5" x="48.9" y="0">9 </tspan></text><text class="2a9d1af1-aa10-4397-a916-572a177ae511" transform="translate(137.92 114.03) rotate(-0.14)"><tspan class="db17b04f-1eec-4869-bfeb-d4bac5f58941">CU</tspan><tspan class="90ce1807-5bbd-46fa-a4fa-ba681e8dccb3" x="21.67" y="0">P</tspan><tspan class="db17b04f-1eec-4869-bfeb-d4bac5f58941" x="31.4" y="0"> </tspan><tspan class="b17c0441-895a-4d52-898c-fa9a853a36c5" x="35.57" y="0">7</tspan></text><path class="39a0d45a-83b1-4ecf-9b4f-2a68e26635ac" d="M58.35,335.16l-10.69,1.06c-.35-3.54-.46-5.31-.54-8.85l1.82,0c.06,2.54.13,3.8.32,6.34l2.37-.19c-.18-2.31-.24-3.47-.31-5.78l1.81-.05c.06,2.28.12,3.41.3,5.69l2.91-.23c-.19-2.47-.25-3.7-.31-6.17l1.81,0C57.92,330.21,58,331.86,58.35,335.16Z"/><path class="39a0d45a-83b1-4ecf-9b4f-2a68e26635ac" d="M57.82,325l-10.74.06c0-2,0-3,.08-5.06a8.83,8.83,0,0,1,.42-2.75,2.62,2.62,0,0,1,1.12-1.3,2.87,2.87,0,0,1,1.72-.38,2.79,2.79,0,0,1,1.93.91,3.81,3.81,0,0,1,.86,2.3,5.05,5.05,0,0,1,1-1.17A11.09,11.09,0,0,1,56,316.47c.87-.48,1.31-.71,2.19-1.17-.09,1-.13,1.56-.19,2.61-1,.57-1.45.87-2.42,1.47A13.32,13.32,0,0,0,54,320.51a1.72,1.72,0,0,0-.47.67,3.79,3.79,0,0,0-.15,1.14c0,.18,0,.28,0,.46l4.48.07C57.82,323.72,57.82,324.16,57.82,325Zm-6.18-2.28c0-.69,0-1,0-1.71a10.37,10.37,0,0,0-.05-2.08,1.26,1.26,0,0,0-.42-.67,1.34,1.34,0,0,0-.79-.28,1.22,1.22,0,0,0-.89.27,1.45,1.45,0,0,0-.46.87,17.22,17.22,0,0,0-.1,1.73c0,.74,0,1.11,0,1.85Z"/><path class="39a0d45a-83b1-4ecf-9b4f-2a68e26635ac" d="M55.3,306.63c.4-.83.61-1.24,1-2a5,5,0,0,1,.82,8.41A5.62,5.62,0,0,1,53,314a5.46,5.46,0,0,1-4-1.89A5.29,5.29,0,0,1,48,308a5,5,0,0,1,1.69-3.32,4,4,0,0,1,2.16-.84c0,.95.06,1.42.12,2.37a2.22,2.22,0,0,0-1.44.65,2.58,2.58,0,0,0-.71,1.52,2.71,2.71,0,0,0,.58,2.2,3.94,3.94,0,0,0,2.67,1.11,4.44,4.44,0,0,0,3-.43,2.53,2.53,0,0,0,1.11-1.83,2.31,2.31,0,0,0-.32-1.59A3.23,3.23,0,0,0,55.3,306.63Z"/><path class="39a0d45a-83b1-4ecf-9b4f-2a68e26635ac" d="M57.94,299c.06-.55.09-.82.15-1.37a2.93,2.93,0,0,0,1.76-.38,2,2,0,0,0,.82-1.19,2.25,2.25,0,0,0-.19-1.72,2.16,2.16,0,0,0-1.35-1.08,2,2,0,0,0-1.61.18,2.2,2.2,0,0,0-1,1.38,4.08,4.08,0,0,0-.11,1l-1.08-.44c0-.09.06-.16.07-.22a3.14,3.14,0,0,0,0-1.68,1.49,1.49,0,0,0-1.11-1.07,1.53,1.53,0,0,0-1.3.19,2,2,0,0,0-.83,1.22,2,2,0,0,0,.11,1.48,2.31,2.31,0,0,0,1.23,1.05l-.56,1.33A3.24,3.24,0,0,1,51.23,296a3.65,3.65,0,0,1-.12-2.47,4.11,4.11,0,0,1,.84-1.63,2.86,2.86,0,0,1,1.34-.91,2.46,2.46,0,0,1,1.45,0,2.17,2.17,0,0,1,1.1.75,2.77,2.77,0,0,1,.54,1.39,2.61,2.61,0,0,1,1.32-1.25,2.65,2.65,0,0,1,1.82,0,3.19,3.19,0,0,1,2,1.7,3.81,3.81,0,0,1,.23,2.8,3.55,3.55,0,0,1-1.41,2.09A3.3,3.3,0,0,1,57.94,299Z"/><path class="39a0d45a-83b1-4ecf-9b4f-2a68e26635ac" d="M64.11,284.45l1.18.46c-1.05,2.69-1.53,4-2.4,6.79a2.3,2.3,0,0,1-.83-.43A4.65,4.65,0,0,1,61,290a12.18,12.18,0,0,1-1-2.22,17.9,17.9,0,0,0-1.3-3.13,2.64,2.64,0,0,0-1.25-1.18,1.68,1.68,0,0,0-1.45.11A2.33,2.33,0,0,0,55,284.9a2.35,2.35,0,0,0,0,1.77,2,2,0,0,0,1.3,1.1l-.59,1.35a3.16,3.16,0,0,1-1.84-1.8,4.11,4.11,0,0,1,.13-2.82,3.92,3.92,0,0,1,1.74-2.26,2.66,2.66,0,0,1,2.34-.16,3,3,0,0,1,1.08.73,5.13,5.13,0,0,1,.89,1.34,27.59,27.59,0,0,1,1,2.66,19.39,19.39,0,0,0,.75,1.94,4.22,4.22,0,0,0,.49.77C62.95,287.49,63.32,286.47,64.11,284.45Z"/><path class="39a0d45a-83b1-4ecf-9b4f-2a68e26635ac" d="M109.86,197.42c.66-.67,1-1,1.66-1.67l4.8,4.82a6.75,6.75,0,0,1,1.28,1.62,3,3,0,0,1,.25,1.89,4,4,0,0,1-1.13,2,3.4,3.4,0,0,1-2.35,1.2,3.63,3.63,0,0,1-2.53-1.11c.5-.69.76-1,1.27-1.72a2.79,2.79,0,0,0,1.14.69,1.22,1.22,0,0,0,1.18-.4,1.24,1.24,0,0,0,.43-1,3.19,3.19,0,0,0-1-1.42Z"/><path class="39a0d45a-83b1-4ecf-9b4f-2a68e26635ac" d="M120,202.42c-.31-1.94-.45-2.92-.69-4.88-1.85-.33-2.78-.49-4.65-.77.77-.75,1.16-1.12,1.94-1.85l2.53.57c-.13-1-.19-1.57-.31-2.61.76-.69,1.15-1,1.93-1.71.12,1.85.2,2.77.38,4.6,2,.41,3,.63,4.93,1.1-.77.67-1.15,1-1.91,1.69-1.12-.29-1.68-.43-2.82-.69.17,1.15.26,1.73.45,2.87C121.08,201.4,120.73,201.74,120,202.42Z"/><path class="39a0d45a-83b1-4ecf-9b4f-2a68e26635ac" d="M130,188.55l2.13-.79a5,5,0,0,1-5.15,6.66,5.61,5.61,0,0,1-3.67-2.12,5.54,5.54,0,0,1-1.58-4.12,5.18,5.18,0,0,1,2.1-3.64,4.92,4.92,0,0,1,3.45-1.22,4.08,4.08,0,0,1,2.13.87c-.61.71-.91,1.07-1.5,1.79a2.23,2.23,0,0,0-1.48-.52,2.52,2.52,0,0,0-1.53.6,2.66,2.66,0,0,0-1.07,2,4,4,0,0,0,1.17,2.64,4.44,4.44,0,0,0,2.44,1.75,2.5,2.5,0,0,0,2.06-.56,2.29,2.29,0,0,0,.85-1.38A3.22,3.22,0,0,0,130,188.55Z"/><path class="39a0d45a-83b1-4ecf-9b4f-2a68e26635ac" d="M143.66,183.79l-2,1.28-2.14-1.51c-1.47,1-2.2,1.47-3.63,2.49.27,1,.4,1.51.68,2.51l-1.87,1.37c-1.2-4.46-1.75-6.71-2.72-11.27l2.05-1.41C138,179.77,139.9,181.08,143.66,183.79Zm-5.74-1.34c-1.4-1-2.1-1.47-3.53-2.42.39,1.66.59,2.49,1,4.14C136.4,183.47,136.9,183.13,137.92,182.45Z"/><path class="39a0d45a-83b1-4ecf-9b4f-2a68e26635ac" d="M145.76,182.48l-4.62-7.63c-1.17.71-1.75,1.07-2.9,1.8l-1-1.53c3.12-2,4.72-2.94,8-4.74l.88,1.59c-1.19.66-1.79,1-3,1.69l4.5,7.7Z"/><path class="39a0d45a-83b1-4ecf-9b4f-2a68e26635ac" d="M160.79,173.18l.52,1.16c-2.62,1.18-3.92,1.8-6.48,3.1a2.31,2.31,0,0,1-.28-.89,4.7,4.7,0,0,1,.15-1.68,12.48,12.48,0,0,1,.88-2.25,17,17,0,0,0,1.26-3.12,2.66,2.66,0,0,0-.07-1.71,1.69,1.69,0,0,0-1.1-.95A2.26,2.26,0,0,0,154,167a2.29,2.29,0,0,0-1.23,1.23,2.06,2.06,0,0,0,.15,1.69l-1.35.52a3.2,3.2,0,0,1,0-2.57,4,4,0,0,1,2-1.88,3.8,3.8,0,0,1,2.77-.35,2.69,2.69,0,0,1,1.76,1.54,3.08,3.08,0,0,1,.26,1.27,5.08,5.08,0,0,1-.3,1.58,25.7,25.7,0,0,1-1.12,2.61,20.31,20.31,0,0,0-.83,1.9,4.25,4.25,0,0,0-.2.89C157.85,174.52,158.82,174.06,160.79,173.18Z"/><path class="39a0d45a-83b1-4ecf-9b4f-2a68e26635ac" d="M162.26,167.58a2.67,2.67,0,0,1-1.52-.29,2.16,2.16,0,0,1-.91-1.06,2.49,2.49,0,0,1,.06-2.17,4,4,0,0,1,4.54-1.82,2.53,2.53,0,0,1,1.58,1.52,2.11,2.11,0,0,1,.07,1.36,2.67,2.67,0,0,1-.87,1.25,3,3,0,0,1,1.85.4,2.75,2.75,0,0,1,1.11,1.41,3.09,3.09,0,0,1-.11,2.52,4.19,4.19,0,0,1-4.85,2,3.13,3.13,0,0,1-1.85-1.76,2.73,2.73,0,0,1-.19-1.83A2.76,2.76,0,0,1,162.26,167.58Zm.4,2.79a2.35,2.35,0,0,0,.68.9,1.93,1.93,0,0,0,1.07.44,2.45,2.45,0,0,0,1.18-.17,2.24,2.24,0,0,0,1.26-1.16,2.2,2.2,0,0,0-1.16-2.9,2.31,2.31,0,0,0-1.78,0,2.21,2.21,0,0,0-1.26,1.19A2,2,0,0,0,162.66,170.37Zm-1.52-4.74a1.63,1.63,0,0,0,1,.94,1.93,1.93,0,0,0,1.43-.07,1.9,1.9,0,0,0,1.05-.94,1.55,1.55,0,0,0,.05-1.28,1.58,1.58,0,0,0-1-.94,2.09,2.09,0,0,0-2.51,1A1.49,1.49,0,0,0,161.13,165.63Z"/><path class="39a0d45a-83b1-4ecf-9b4f-2a68e26635ac" d="M309.65,169.14l2.6-10.42c1.51.38,2.27.58,3.77,1a13.83,13.83,0,0,1,2.71,1,3,3,0,0,1,1.3,3.73,3.33,3.33,0,0,1-.9,1.45,3.09,3.09,0,0,1-1.25.7,3.46,3.46,0,0,1-1.29.13,15.26,15.26,0,0,1-2.31-.53l-1.43-.4-1.07,3.91Zm4.47-8.05-.8,2.94,1.22.34a6.84,6.84,0,0,0,1.81.36,1.54,1.54,0,0,0,.85-.29,1.37,1.37,0,0,0,.5-.72,1.31,1.31,0,0,0-.07-1,1.68,1.68,0,0,0-.78-.74,11.43,11.43,0,0,0-1.63-.55Z"/><path class="39a0d45a-83b1-4ecf-9b4f-2a68e26635ac" d="M320,168.6l2.14.56a2.59,2.59,0,0,0,.2,1.74,2.51,2.51,0,0,0,1.32,1.05,2.6,2.6,0,0,0,1.67.21,1.32,1.32,0,0,0,.91-.74,1,1,0,0,0,0-.69,1.84,1.84,0,0,0-.57-.74c-.21-.18-.72-.56-1.52-1.12a6.89,6.89,0,0,1-2.05-1.92,2.76,2.76,0,0,1-.27-2.39,2.55,2.55,0,0,1,1-1.27,3.1,3.1,0,0,1,1.77-.51,6.25,6.25,0,0,1,2.33.5,5.21,5.21,0,0,1,2.78,2.12,3,3,0,0,1,.12,2.64c-.87-.35-1.31-.52-2.19-.85a1.78,1.78,0,0,0-.14-1.35,2.52,2.52,0,0,0-1.26-.91,2.85,2.85,0,0,0-1.65-.23.76.76,0,0,0-.59.49.81.81,0,0,0,.1.73,6.92,6.92,0,0,0,1.74,1.46,10.64,10.64,0,0,1,2,1.68,2.87,2.87,0,0,1,.43,3.25,3.14,3.14,0,0,1-1.19,1.36,3.21,3.21,0,0,1-1.83.51,6.61,6.61,0,0,1-2.33-.54,5,5,0,0,1-2.62-2A4.16,4.16,0,0,1,320,168.6Z"/><path class="39a0d45a-83b1-4ecf-9b4f-2a68e26635ac" d="M336.76,175.67c.64.66,1,1,1.58,1.67a5,5,0,0,1-8.2-2.11,5.63,5.63,0,0,1,.42-4.22,5.44,5.44,0,0,1,3.14-3.12,5.32,5.32,0,0,1,4.27.5,5.07,5.07,0,0,1,2.55,2.74,4,4,0,0,1,.05,2.32c-.91-.29-1.36-.44-2.27-.71a2.22,2.22,0,0,0-.12-1.57A2.6,2.6,0,0,0,337,170a2.73,2.73,0,0,0-2.28-.21,3.92,3.92,0,0,0-2,2.13,4.44,4.44,0,0,0-.61,2.94,2.54,2.54,0,0,0,1.35,1.67,2.32,2.32,0,0,0,1.61.24A3.23,3.23,0,0,0,336.76,175.67Z"/><path class="39a0d45a-83b1-4ecf-9b4f-2a68e26635ac" d="M347.92,186.2l-.77,1c-2.28-1.75-3.46-2.58-5.85-4.16a2.3,2.3,0,0,1,.63-.68,4.65,4.65,0,0,1,1.53-.69,12.07,12.07,0,0,1,2.4-.32,18.05,18.05,0,0,0,3.37-.39,2.64,2.64,0,0,0,1.48-.88,1.68,1.68,0,0,0,.29-1.43,2.33,2.33,0,0,0-1-1.38,2.36,2.36,0,0,0-1.7-.5,2,2,0,0,0-1.42.95l-1.14-.94a3.15,3.15,0,0,1,2.24-1.28,4.13,4.13,0,0,1,2.68.9,3.93,3.93,0,0,1,1.69,2.3,2.66,2.66,0,0,1-.49,2.29,3,3,0,0,1-1,.83,5.14,5.14,0,0,1-1.54.48,28.05,28.05,0,0,1-2.84.26,19.28,19.28,0,0,0-2.07.19,4.2,4.2,0,0,0-.88.26C345.33,184.26,346.21,184.89,347.92,186.2Z"/><path class="39a0d45a-83b1-4ecf-9b4f-2a68e26635ac" d="M352.17,191.3l-1-.87,5.43-6.41a8.09,8.09,0,0,1-1.63-.18,11.09,11.09,0,0,1-1.6-.42l.8-1a9.73,9.73,0,0,0,2.44.37,5.34,5.34,0,0,0,1.92-.25l.72.62Z"/><path class="39a0d45a-83b1-4ecf-9b4f-2a68e26635ac" d="M422.5,364.47l10.74,0c0,1.64,0,2.46-.1,4.1a14.08,14.08,0,0,1-.38,3,3.22,3.22,0,0,1-1.23,1.68,3,3,0,0,1-2.16.45,3.27,3.27,0,0,1-1.6-.6,3.17,3.17,0,0,1-.94-1.11,3.63,3.63,0,0,1-.39-1.26,17.38,17.38,0,0,1,0-2.42c0-.61,0-.91.06-1.52l-4-.13C422.49,365.79,422.5,365.35,422.5,364.47Zm8.88,2.48-3-.09c0,.52,0,.78-.05,1.31a7.53,7.53,0,0,0,0,1.9,1.6,1.6,0,0,0,.46.79,1.35,1.35,0,0,0,.81.35,1.28,1.28,0,0,0,1-.3,1.77,1.77,0,0,0,.55-1,11.68,11.68,0,0,0,.18-1.78C431.36,367.66,431.37,367.42,431.38,366.94Z"/><path class="39a0d45a-83b1-4ecf-9b4f-2a68e26635ac" d="M421.74,374.54l10.61,1.63c-.25,1.61-.39,2.42-.73,4a14,14,0,0,1-.83,2.91,3.21,3.21,0,0,1-1.47,1.47,3,3,0,0,1-2.21.12,3.27,3.27,0,0,1-1.49-.84,3.17,3.17,0,0,1-.76-1.24,3.63,3.63,0,0,1-.19-1.3,17.21,17.21,0,0,1,.39-2.38c.13-.59.18-.89.3-1.48l-4-.75C421.53,375.83,421.6,375.4,421.74,374.54Zm8.4,3.8-3-.56c-.1.51-.15.77-.25,1.28a7.52,7.52,0,0,0-.24,1.88,1.6,1.6,0,0,0,.34.85,1.35,1.35,0,0,0,.74.47,1.28,1.28,0,0,0,1-.14,1.76,1.76,0,0,0,.69-.86,11.59,11.59,0,0,0,.45-1.73C430,379,430,378.81,430.13,378.34Z"/><path class="39a0d45a-83b1-4ecf-9b4f-2a68e26635ac" d="M427,391l1.19.45a63.23,63.23,0,0,1-3.3,7.48l-.92-.46a12.27,12.27,0,0,0-1.59-3.35,14.48,14.48,0,0,0-2.69-3.08,12.78,12.78,0,0,0-2.5-1.66c.22-.5.32-.76.53-1.26a12,12,0,0,1,2.64,1.64,13.25,13.25,0,0,1,2.6,2.72,12.38,12.38,0,0,1,1.66,3.12C425.67,394.39,426.15,393.26,427,391Z"/><path class="39a0d45a-83b1-4ecf-9b4f-2a68e26635ac" d="M412.54,264.1c.21.91.3,1.36.48,2.27a4.94,4.94,0,0,1-3.09-.22,5,5,0,0,1-2.19-2.08,5.05,5.05,0,0,1-.7-3.81,5.62,5.62,0,0,1,2.48-3.46,5.32,5.32,0,0,1,4.3-1.08,5.52,5.52,0,0,1,3.49,2.72,5.26,5.26,0,0,1,.82,3.76,4,4,0,0,1-1.15,2c-.63-.75-.95-1.11-1.59-1.84a2.21,2.21,0,0,0,.7-1.42,2.7,2.7,0,0,0-.43-1.67,2.82,2.82,0,0,0-1.88-1.4,3.84,3.84,0,0,0-2.77.82,4.41,4.41,0,0,0-2,2.23,2.59,2.59,0,0,0,.32,2.14,2.37,2.37,0,0,0,1.26,1A3.24,3.24,0,0,0,412.54,264.1Z"/><path class="39a0d45a-83b1-4ecf-9b4f-2a68e26635ac" d="M412.62,267.91c.5.71.75,1.06,1.24,1.79a1.53,1.53,0,0,0-.59.89,2,2,0,0,0,.2,1.19,2.2,2.2,0,0,0,.77,1,.65.65,0,0,0,.62,0,.52.52,0,0,0,.3-.29,1.67,1.67,0,0,0,0-.77,14.54,14.54,0,0,1-.5-3.43,2,2,0,0,1,1.12-1.67,2.06,2.06,0,0,1,1.91,0,4.25,4.25,0,0,1,1.8,2.18,4.92,4.92,0,0,1,.58,2.62,2.6,2.6,0,0,1-1,1.67c-.45-.73-.68-1.09-1.14-1.8a1.19,1.19,0,0,0,.43-.75,2,2,0,0,0-.22-1.09,2.54,2.54,0,0,0-.74-1.06.48.48,0,0,0-.49-.05.45.45,0,0,0-.24.36,9.94,9.94,0,0,0,.34,2.12,5.83,5.83,0,0,1,.12,2.61,1.83,1.83,0,0,1-1.17,1.2,2.37,2.37,0,0,1-2-.16,4.25,4.25,0,0,1-1.77-2.15,4.7,4.7,0,0,1-.51-2.58A3.07,3.07,0,0,1,412.62,267.91Z"/><path class="39a0d45a-83b1-4ecf-9b4f-2a68e26635ac" d="M418.26,280c.23.5.35.76.58,1.27a2.94,2.94,0,0,0-1.32,1.23,2,2,0,0,0-.11,1.45,2.28,2.28,0,0,0,1,1.4,2.16,2.16,0,0,0,1.71.27,1.94,1.94,0,0,0,1.31-1,2.24,2.24,0,0,0,.16-1.72,4.14,4.14,0,0,0-.41-.93l1.16-.16c0,.09,0,.17,0,.23a3.31,3.31,0,0,0,.85,1.49,1.48,1.48,0,0,0,1.5.39,1.51,1.51,0,0,0,1-.83,2.09,2.09,0,0,0,.1-1.51,2.14,2.14,0,0,0-.86-1.27,2.28,2.28,0,0,0-1.6-.3c-.08-.59-.12-.88-.21-1.47a3.2,3.2,0,0,1,2.33.57,3.82,3.82,0,0,1,1.37,2.15,4.31,4.31,0,0,1,.1,1.89,2.91,2.91,0,0,1-.7,1.5,2.4,2.4,0,0,1-1.25.74,2.14,2.14,0,0,1-1.33-.12,2.85,2.85,0,0,1-1.17-1,2.65,2.65,0,0,1-.52,1.77,2.62,2.62,0,0,1-1.57.93,3.2,3.2,0,0,1-2.56-.51,3.87,3.87,0,0,1-1.59-2.31,3.6,3.6,0,0,1,.15-2.52A3.32,3.32,0,0,1,418.26,280Z"/><path class="39a0d45a-83b1-4ecf-9b4f-2a68e26635ac" d="M418.53,294c-.07-.53-.11-.8-.19-1.33l8.3-1.29a8.57,8.57,0,0,1-1.12-1.23,11.82,11.82,0,0,1-.94-1.39l1.25-.24a10.32,10.32,0,0,0,1.62,1.93,5.48,5.48,0,0,0,1.63,1.1c.06.39.09.58.14,1Z"/><line class="d8018797-9106-45a8-9564-1d774f6b4ecf" x1="252.42" y1="130.8" x2="252.42" y2="154.79"/><line class="d8018797-9106-45a8-9564-1d774f6b4ecf" x1="212.32" y1="117.72" x2="212.32" y2="157.46"/><line class="d8018797-9106-45a8-9564-1d774f6b4ecf" x1="295.75" y1="259.07" x2="295.75" y2="298.81"/><line class="d8018797-9106-45a8-9564-1d774f6b4ecf" x1="344.5" y1="131.55" x2="252.42" y2="131.55"/><line class="d8018797-9106-45a8-9564-1d774f6b4ecf" x1="138.5" y1="118.5" x2="211.91" y2="118.03"/><text class="0ef1c08e-518c-472a-bb80-e6f1d5acc096" transform="translate(250.77 96.08) scale(0.99 1)">Mayoría absoluta: <tspan class="e518e36f-0a7a-4274-8404-a872ba6dff1f" x="123.4" y="0">68</tspan></text><path class="a8808e3e-9927-406b-bc94-594383343ee0" d="M116.27,381.34A135.45,135.45,0,0,1,222.67,205.9l15.7,93.51A40.64,40.64,0,0,0,206.45,352Z"/><path class="263b9e6d-034f-49c0-b7b0-835e0d3bb509" d="M222.67,205.9a135.45,135.45,0,0,1,41.14-.57l-13.1,93.91a40.64,40.64,0,0,0-12.34.17Z"/><path class="2f6ea626-bd36-4732-ad16-7d0f95806285" d="M263.81,205.33a135.45,135.45,0,0,1,39.41,11.81l-40.69,85.64a40.64,40.64,0,0,0-11.82-3.54Z"/><path class="80f5fe42-8328-4223-97e4-35d468aa8bd9" d="M303.22,217.14a135.45,135.45,0,0,1,46.88,36.78l-73.5,59.9a40.64,40.64,0,0,0-14.06-11Z"/><path class="6150a5f8-9165-4213-a546-6595820b2f62" d="M350.1,253.92a135.45,135.45,0,0,1,30.44,86.82l-94.81-.88a40.64,40.64,0,0,0-9.13-26Z"/><path class="2e096bfb-40c2-481c-8a6b-e3a6262574e0" d="M380.54,340.74a135.45,135.45,0,0,1-6.62,40.61L283.74,352a40.64,40.64,0,0,0,2-12.18Z"/><circle class="5ba7b658-6b25-4d1e-906d-ca577de36f85" cx="245.57" cy="341.33" r="111.81"/><line class="7a807791-54e9-4f25-8517-c5592ec8eb20" x1="246.5" y1="86" x2="246.5" y2="88.5"/><line class="22503e8f-a107-4921-9a22-5ca386ee9eba" x1="246.5" y1="93.65" x2="246.5" y2="224.93"/><line class="7a807791-54e9-4f25-8517-c5592ec8eb20" x1="246.5" y1="227.5" x2="246.5" y2="230"/><path class="39a0d45a-83b1-4ecf-9b4f-2a68e26635ac" d="M212.26,244.93l2.29.1a4.46,4.46,0,0,1-3.53,4.52,5,5,0,0,1-3.85-.35,5.6,5.6,0,0,1-2.62-3.34,5.45,5.45,0,0,1,.11-4.42,5.33,5.33,0,0,1,3.43-2.6,5.06,5.06,0,0,1,3.73.2,4,4,0,0,1,1.64,1.63c-.85.42-1.28.63-2.12,1.07a2.22,2.22,0,0,0-1.18-1,2.59,2.59,0,0,0-1.68,0,2.73,2.73,0,0,0-1.79,1.43,3.93,3.93,0,0,0,.06,2.89,4.42,4.42,0,0,0,1.6,2.54,2.55,2.55,0,0,0,2.13.27,2.33,2.33,0,0,0,1.33-.94A3.22,3.22,0,0,0,212.26,244.93Z"/><path class="39a0d45a-83b1-4ecf-9b4f-2a68e26635ac" d="M214.78,237.33l2.35-.51,1.17,5.7a11.45,11.45,0,0,0,.44,1.74,1.74,1.74,0,0,0,.88.9,2.47,2.47,0,0,0,1.52.12,2.34,2.34,0,0,0,1.34-.62,1.5,1.5,0,0,0,.42-1,11.7,11.7,0,0,0-.2-1.82l-1-5.86,2.38-.37.8,5.58a14.18,14.18,0,0,1,.21,2.73,3.06,3.06,0,0,1-.46,1.43,3.44,3.44,0,0,1-1.13,1.06,5.88,5.88,0,0,1-2,.68,6.42,6.42,0,0,1-2.38.1,3.49,3.49,0,0,1-1.44-.64,3,3,0,0,1-.87-1,12.63,12.63,0,0,1-.82-2.61Z"/><path class="39a0d45a-83b1-4ecf-9b4f-2a68e26635ac" d="M227.94,245.93l-1.3-10.66c1.53-.19,2.3-.27,3.83-.41a13.7,13.7,0,0,1,2.86-.06,3.07,3.07,0,0,1,1.76,1,3.11,3.11,0,0,1,.78,2.06,3.35,3.35,0,0,1-.31,1.68,3.08,3.08,0,0,1-.91,1.11,3.43,3.43,0,0,1-1.15.58,15,15,0,0,1-2.34.34l-1.47.14.41,4Zm1.27-9.12.31,3,1.26-.12a6.68,6.68,0,0,0,1.81-.32,1.53,1.53,0,0,0,.68-.58,1.38,1.38,0,0,0,.21-.85A1.32,1.32,0,0,0,233,237a1.67,1.67,0,0,0-1-.4,11.38,11.38,0,0,0-1.7.07Z"/><path class="39a0d45a-83b1-4ecf-9b4f-2a68e26635ac" d="M246.48,245.25l-1.33-.06c.12-3.36.18-5,.31-8.39a8,8,0,0,1-1.38.87,10.81,10.81,0,0,1-1.51.65V237a9.56,9.56,0,0,0,2.14-1.22,5.31,5.31,0,0,0,1.34-1.39l.94,0C246.8,238.79,246.69,240.95,246.48,245.25Z"/><path class="39a0d45a-83b1-4ecf-9b4f-2a68e26635ac" d="M250.32,240.19a9,9,0,0,1,.67-3,3.7,3.7,0,0,1,1.43-1.67,3.45,3.45,0,0,1,2.22-.4,3.75,3.75,0,0,1,1.64.55,3,3,0,0,1,1.05,1.15,5,5,0,0,1,.5,1.68,12,12,0,0,1-.95,5.51,3.92,3.92,0,0,1-1.43,1.62,3.15,3.15,0,0,1-2,.39,3.1,3.1,0,0,1-2.36-1.36A7,7,0,0,1,250.32,240.19Zm1.43.12a6.61,6.61,0,0,0,.31,3.57,1.86,1.86,0,0,0,3.13.35,6.6,6.6,0,0,0,1.1-3.4c.23-1.75.17-2.95-.21-3.58a2,2,0,0,0-1.58-1.07,1.89,1.89,0,0,0-1.67.6A6.26,6.26,0,0,0,251.75,240.32Z"/><path class="39a0d45a-83b1-4ecf-9b4f-2a68e26635ac" d="M342.61,337.5l10.54-2.07c.31,1.58.44,2.37.68,4a14,14,0,0,1,.22,3,3.17,3.17,0,0,1-.87,1.87,3,3,0,0,1-2,.89,3.29,3.29,0,0,1-1.69-.25,3.14,3.14,0,0,1-1.15-.88,3.55,3.55,0,0,1-.64-1.14,16.48,16.48,0,0,1-.46-2.36c-.09-.6-.13-.89-.23-1.49l-4,.66C342.86,338.79,342.78,338.36,342.61,337.5Zm9.19.7-3,.5c.08.51.12.76.2,1.28a7.24,7.24,0,0,0,.42,1.83,1.57,1.57,0,0,0,.61.67,1.36,1.36,0,0,0,.86.17,1.3,1.3,0,0,0,.92-.49,1.73,1.73,0,0,0,.35-1,11.61,11.61,0,0,0-.17-1.76C351.92,338.89,351.88,338.66,351.8,338.19Z"/><path class="39a0d45a-83b1-4ecf-9b4f-2a68e26635ac" d="M343.89,347.53l10.72-.66c.1,1.6.13,2.4.15,4a13.9,13.9,0,0,1-.17,3,3.17,3.17,0,0,1-1.1,1.73,3,3,0,0,1-2.12.61,3.3,3.3,0,0,1-1.64-.47,3.13,3.13,0,0,1-1-1,3.57,3.57,0,0,1-.48-1.21,16.22,16.22,0,0,1-.15-2.39c0-.6,0-.9,0-1.5l-4,.13C344,348.84,343.94,348.4,343.89,347.53Zm9,1.89-3,.1c0,.52,0,.77,0,1.29a7.25,7.25,0,0,0,.18,1.86,1.56,1.56,0,0,0,.52.74,1.36,1.36,0,0,0,.83.28,1.3,1.3,0,0,0,1-.37,1.72,1.72,0,0,0,.49-1,11.42,11.42,0,0,0,.06-1.76C352.92,350.13,352.92,349.89,352.9,349.42Z"/><path class="39a0d45a-83b1-4ecf-9b4f-2a68e26635ac" d="M342.76,366c.1-.53.14-.79.23-1.32l8.29,1.37a8.47,8.47,0,0,1-.68-1.52,11.68,11.68,0,0,1-.46-1.61l1.26.16a10.25,10.25,0,0,0,.94,2.33,5.48,5.48,0,0,0,1.2,1.55c-.07.39-.1.58-.17,1Z"/><path class="39a0d45a-83b1-4ecf-9b4f-2a68e26635ac" d="M341.08,373.18c.15-.52.22-.78.36-1.29l8.12,2.15a8.44,8.44,0,0,1-.53-1.58,11.86,11.86,0,0,1-.3-1.66l1.24.28a10.39,10.39,0,0,0,.71,2.42,5.49,5.49,0,0,0,1,1.67l-.26,1Z"/><path class="39a0d45a-83b1-4ecf-9b4f-2a68e26635ac" d="M282.42,249.76c1.77-3.91,2.66-5.87,4.44-9.77,1.42.64,2.13,1,3.53,1.67a13.88,13.88,0,0,1,2.5,1.45,3,3,0,0,1,.61,3.89,3.33,3.33,0,0,1-1.14,1.27,3.1,3.1,0,0,1-1.36.47,3.47,3.47,0,0,1-1.29-.11,15.22,15.22,0,0,1-2.19-.94l-1.34-.65-1.75,3.65C283.62,250.31,283.22,250.12,282.42,249.76Zm5.86-7.11L287,245.39l1.15.56a6.86,6.86,0,0,0,1.72.68,1.55,1.55,0,0,0,.89-.13,1.37,1.37,0,0,0,.62-.62,1.31,1.31,0,0,0,.12-1,1.68,1.68,0,0,0-.63-.86,11.5,11.5,0,0,0-1.51-.83Z"/><path class="39a0d45a-83b1-4ecf-9b4f-2a68e26635ac" d="M292.72,251.08l2,.93a2.58,2.58,0,0,0-.11,1.75,2.52,2.52,0,0,0,1.12,1.27,2.6,2.6,0,0,0,1.61.5,1.32,1.32,0,0,0,1-.57.94.94,0,0,0,.16-.67,1.84,1.84,0,0,0-.44-.83c-.18-.22-.61-.68-1.31-1.37a6.91,6.91,0,0,1-1.69-2.25,2.75,2.75,0,0,1,.16-2.4,2.56,2.56,0,0,1,1.21-1.07,3.12,3.12,0,0,1,1.84-.19,6.27,6.27,0,0,1,2.21.9,5.2,5.2,0,0,1,2.37,2.57,3,3,0,0,1-.34,2.62c-.8-.49-1.2-.74-2-1.22a1.77,1.77,0,0,0,.1-1.35,2.52,2.52,0,0,0-1.08-1.11,2.85,2.85,0,0,0-1.59-.52.76.76,0,0,0-.67.38.8.8,0,0,0,0,.74,6.9,6.9,0,0,0,1.46,1.74,10.61,10.61,0,0,1,1.69,2,2.86,2.86,0,0,1-.14,3.27,3.13,3.13,0,0,1-1.41,1.13,3.23,3.23,0,0,1-1.9.18,6.62,6.62,0,0,1-2.21-.94,5,5,0,0,1-2.24-2.45A4.14,4.14,0,0,1,292.72,251.08Z"/><path class="39a0d45a-83b1-4ecf-9b4f-2a68e26635ac" d="M308.06,260.95c.52.76.77,1.14,1.27,1.91a4.47,4.47,0,0,1-5.74-.17,4.93,4.93,0,0,1-2-3.31,5.6,5.6,0,0,1,1.14-4.09,5.46,5.46,0,0,1,3.64-2.52A5.33,5.33,0,0,1,310.5,254a5.05,5.05,0,0,1,2,3.12,4,4,0,0,1-.34,2.29c-.84-.44-1.27-.66-2.12-1.08a2.22,2.22,0,0,0,.15-1.57,2.59,2.59,0,0,0-1-1.37,2.73,2.73,0,0,0-2.21-.59,3.92,3.92,0,0,0-2.29,1.76,4.42,4.42,0,0,0-1.1,2.79,2.54,2.54,0,0,0,1,1.87,2.32,2.32,0,0,0,1.54.51A3.24,3.24,0,0,0,308.06,260.95Z"/><path class="39a0d45a-83b1-4ecf-9b4f-2a68e26635ac" d="M315,272.61l-.94-.95,5.95-5.93a8,8,0,0,1-1.6-.31,11,11,0,0,1-1.55-.55l.88-.92a9.67,9.67,0,0,0,2.4.57,5.36,5.36,0,0,0,1.93-.1l.66.67Z"/><path class="39a0d45a-83b1-4ecf-9b4f-2a68e26635ac" d="M328.21,275.29l-1-1a2.35,2.35,0,0,0,.52-1.14,2,2,0,0,0-.5-1.47,2.12,2.12,0,0,0-1.06-.7,3,3,0,0,0-1.71.06,6.38,6.38,0,0,0-2.12,1.35,3.11,3.11,0,0,1,1.63.22,3.49,3.49,0,0,1,1.28.95,3.24,3.24,0,0,1,.8,2.48,3.31,3.31,0,0,1-1.34,2.34,4.07,4.07,0,0,1-1.75.82,3.31,3.31,0,0,1-1.81-.11,3.47,3.47,0,0,1-1.48-1,3.56,3.56,0,0,1-.89-2.86,6.08,6.08,0,0,1,2.23-3.48c1.53-1.4,2.93-2.11,4.19-2.11a3.74,3.74,0,0,1,2.9,1.45,3.51,3.51,0,0,1,.93,2.23A2.86,2.86,0,0,1,328.21,275.29ZM321,273.87a3,3,0,0,0-.78,1.09,2.21,2.21,0,0,0-.16,1.25,2.14,2.14,0,0,0,.48,1.06A2,2,0,0,0,322,278a2.63,2.63,0,0,0,1.81-.68,2.38,2.38,0,0,0,1-1.6,2.11,2.11,0,0,0-.54-1.63,2.2,2.2,0,0,0-3.24-.18Z"/><line class="d8018797-9106-45a8-9564-1d774f6b4ecf" x1="277.42" y1="236.5" x2="277.42" y2="284.5"/><text class="2a9d1af1-aa10-4397-a916-572a177ae511" transform="translate(208.9 300.23) rotate(-0.14)"><tspan class="db17b04f-1eec-4869-bfeb-d4bac5f58941">CSQ</tspan><tspan class="64887516-808f-415c-865c-226a9de4d6be" x="32.5" y="0">P</tspan><tspan class="cc06922b-e3c8-4568-a098-1512242f7e83" x="42.24" y="0"> </tspan><tspan class="73391660-2be9-4586-a5c2-216f7620da51" x="46.41" y="0">1</tspan><tspan class="d0b1453f-2b2d-47de-b770-8aa382104115" x="53.63" y="0">1</tspan></text><line class="d8018797-9106-45a8-9564-1d774f6b4ecf" x1="277.18" y1="284.55" x2="210.5" y2="284.5"/><path class="39a0d45a-83b1-4ecf-9b4f-2a68e26635ac" d="M336.78,291.93c.17.92.24,1.37.38,2.29a4.52,4.52,0,0,1-5.17-2.53,5,5,0,0,1-.51-3.84,5.62,5.62,0,0,1,2.65-3.33,5.34,5.34,0,0,1,4.35-.87,5.48,5.48,0,0,1,3.34,2.86,5.22,5.22,0,0,1,.64,3.77,4,4,0,0,1-1.25,2c-.59-.77-.89-1.15-1.5-1.9a2.21,2.21,0,0,0,.77-1.39,2.68,2.68,0,0,0-.34-1.68,2.81,2.81,0,0,0-1.8-1.48,3.85,3.85,0,0,0-2.81.69,4.41,4.41,0,0,0-2.12,2.13,2.59,2.59,0,0,0,.21,2.15,2.36,2.36,0,0,0,1.21,1.1A3.24,3.24,0,0,0,336.78,291.93Z"/><path class="39a0d45a-83b1-4ecf-9b4f-2a68e26635ac" d="M336.69,295.73c.47.73.7,1.09,1.16,1.84a1.53,1.53,0,0,0-.62.87,1.94,1.94,0,0,0,.15,1.19,2.2,2.2,0,0,0,.73,1,.65.65,0,0,0,.61.06.52.52,0,0,0,.31-.28,1.68,1.68,0,0,0,0-.77,14.28,14.28,0,0,1-.35-3.45,2,2,0,0,1,1.19-1.62,2.06,2.06,0,0,1,1.91.1,4.22,4.22,0,0,1,1.7,2.24,4.89,4.89,0,0,1,.47,2.63,2.61,2.61,0,0,1-1,1.63c-.42-.74-.63-1.11-1.07-1.84a1.19,1.19,0,0,0,.46-.73,2,2,0,0,0-.18-1.09,2.53,2.53,0,0,0-.69-1.08.48.48,0,0,0-.48-.07.45.45,0,0,0-.26.35,9.8,9.8,0,0,0,.25,2.13,5.82,5.82,0,0,1,0,2.61,1.83,1.83,0,0,1-1.21,1.15,2.37,2.37,0,0,1-2-.24,4.23,4.23,0,0,1-1.68-2.22,4.67,4.67,0,0,1-.4-2.6A3.06,3.06,0,0,1,336.69,295.73Z"/><path class="39a0d45a-83b1-4ecf-9b4f-2a68e26635ac" d="M342,315.33l-1.24.24a69.25,69.25,0,0,0-1.66-7,2.3,2.3,0,0,1,.92-.1,4.6,4.6,0,0,1,1.61.48,11.8,11.8,0,0,1,2,1.34,18.93,18.93,0,0,0,2.79,2,2.64,2.64,0,0,0,1.69.33,1.66,1.66,0,0,0,1.16-.89,2.39,2.39,0,0,0,.16-1.72,2.42,2.42,0,0,0-1-1.53,2,2,0,0,0-1.69-.22c-.1-.59-.15-.89-.26-1.48a3.12,3.12,0,0,1,2.54.52,4.24,4.24,0,0,1,1.45,2.5,4,4,0,0,1-.24,2.9,2.63,2.63,0,0,1-1.89,1.4,3,3,0,0,1-1.3,0,5.2,5.2,0,0,1-1.47-.67c-.54-.33-1.31-.91-2.31-1.7a18.39,18.39,0,0,0-1.69-1.22,4.2,4.2,0,0,0-.83-.38C341.33,312.15,341.57,313.21,342,315.33Z"/><path class="39a0d45a-83b1-4ecf-9b4f-2a68e26635ac" d="M343.76,316.5c.15.56.22.85.35,1.41a2.5,2.5,0,0,0-1.39,1,2.07,2.07,0,0,0-.31,1.45,2.26,2.26,0,0,0,.91,1.56,2.68,2.68,0,0,0,2,.48,2.32,2.32,0,0,0,1.7-.87,2.44,2.44,0,0,0,.43-1.86,2.58,2.58,0,0,0-.46-1.2,2.29,2.29,0,0,0-.87-.75c0-.53,0-.8-.06-1.34,2.25.07,3.38.11,5.63.23.38,2.41.54,3.62.76,6.06l-1.25.12c-.18-1.93-.29-2.89-.57-4.8l-2.95-.21a3.92,3.92,0,0,1,1,2.11,3.57,3.57,0,0,1-.68,2.7,3.21,3.21,0,0,1-2.4,1.27,3.92,3.92,0,0,1-2.59-.65,3.66,3.66,0,0,1-1.62-2.71,3.73,3.73,0,0,1,.46-2.53A3.25,3.25,0,0,1,343.76,316.5Z"/><path class="39a0d45a-83b1-4ecf-9b4f-2a68e26635ac" d="M136.18,326c.16-.95.25-1.42.43-2.37l6.67,1.29a6.73,6.73,0,0,1,2,.63,3,3,0,0,1,1.27,1.42,4,4,0,0,1,.19,2.28,3.42,3.42,0,0,1-1.24,2.33,3.64,3.64,0,0,1-2.71.55c0-.86,0-1.29.06-2.15a2.78,2.78,0,0,0,1.33-.09,1.23,1.23,0,0,0,.74-1,1.25,1.25,0,0,0-.24-1.11,3.18,3.18,0,0,0-1.64-.6Z"/><path class="39a0d45a-83b1-4ecf-9b4f-2a68e26635ac" d="M147.41,324.34c-1.34-1.43-2-2.17-3.29-3.68-1.73.75-2.59,1.15-4.3,2,.22-1.07.34-1.6.58-2.66,1-.39,1.45-.58,2.42-.94-.68-.8-1-1.21-1.69-2,.26-1,.4-1.52.69-2.52,1.11,1.5,1.67,2.23,2.82,3.67,1.89-.76,2.83-1.12,4.73-1.79-.28,1-.42,1.47-.67,2.46-1.09.38-1.64.57-2.73,1,.78.87,1.17,1.3,2,2.14C147.71,322.91,147.61,323.38,147.41,324.34Z"/><path class="39a0d45a-83b1-4ecf-9b4f-2a68e26635ac" d="M146.21,314.73c.17-.87.26-1.3.44-2.16a2.59,2.59,0,0,0,1.73-.29,2.5,2.5,0,0,0,1-1.38,2.59,2.59,0,0,0,.11-1.68,1.32,1.32,0,0,0-.79-.87,1,1,0,0,0-.69,0,1.84,1.84,0,0,0-.71.61c-.17.22-.52.74-1,1.58a6.83,6.83,0,0,1-1.8,2.14,2.76,2.76,0,0,1-2.38.39,2.56,2.56,0,0,1-1.32-.93,3.08,3.08,0,0,1-.6-1.73,6.21,6.21,0,0,1,.37-2.34,5.16,5.16,0,0,1,2-2.88,3,3,0,0,1,2.63-.27c-.3.89-.44,1.33-.72,2.23a1.78,1.78,0,0,0-1.34.21,2.5,2.5,0,0,0-.83,1.3,2.83,2.83,0,0,0-.14,1.65.76.76,0,0,0,.52.56.81.81,0,0,0,.73-.13,6.83,6.83,0,0,0,1.36-1.81,10.62,10.62,0,0,1,1.56-2.1,2.87,2.87,0,0,1,3.22-.61,3.14,3.14,0,0,1,1.43,1.11,3.2,3.2,0,0,1,.61,1.8,6.56,6.56,0,0,1-.41,2.36,5,5,0,0,1-1.87,2.72A4.16,4.16,0,0,1,146.21,314.73Z"/><path class="39a0d45a-83b1-4ecf-9b4f-2a68e26635ac" d="M144.88,302.56c-.65-.73-1-1.11-1.61-1.85.39-.95.59-1.42,1-2.36.45,1.17.67,1.75,1.15,2.9Zm8.16,3.1-7.22-2.9c.33-.83.5-1.24.85-2.06l7.16,3C153.51,304.51,153.35,304.89,153,305.67Z"/><path class="39a0d45a-83b1-4ecf-9b4f-2a68e26635ac" d="M152.48,288.26l-.61,1.29a2.37,2.37,0,0,0-1.25-.07,2,2,0,0,0-1.19,1,2.11,2.11,0,0,0-.26,1.24,3,3,0,0,0,.69,1.56,6.37,6.37,0,0,0,2,1.48,3.09,3.09,0,0,1-.39-1.6,3.46,3.46,0,0,1,.41-1.54,3.24,3.24,0,0,1,2-1.64,3.32,3.32,0,0,1,2.66.39,4.08,4.08,0,0,1,1.41,1.32,3.3,3.3,0,0,1,.56,1.72,3.44,3.44,0,0,1-.43,1.76A3.56,3.56,0,0,1,155.8,297a6.11,6.11,0,0,1-4.06-.81c-1.86-.91-3-1.94-3.5-3.12a3.71,3.71,0,0,1,.28-3.22,3.5,3.5,0,0,1,1.73-1.68A2.88,2.88,0,0,1,152.48,288.26Zm1.36,7.24a3,3,0,0,0,1.3.32,2.22,2.22,0,0,0,1.22-.3,2.14,2.14,0,0,0,.81-.83,2,2,0,0,0,.11-1.61,2.63,2.63,0,0,0-1.3-1.43,2.38,2.38,0,0,0-1.84-.3,2.1,2.1,0,0,0-1.32,1.09,2.19,2.19,0,0,0-.18,1.72A2.22,2.22,0,0,0,153.84,295.51Z"/><path class="39a0d45a-83b1-4ecf-9b4f-2a68e26635ac" d="M152.3,286.15l-1.09-.64c1.57-2.66,2.4-4,4.15-6.53l.85.58a13.06,13.06,0,0,0,1.18,3.46,15.57,15.57,0,0,0,2.23,3.4,13.19,13.19,0,0,0,2.22,2l-.72,1.17a12.37,12.37,0,0,1-2.34-2,14.18,14.18,0,0,1-2.17-3.06,13.22,13.22,0,0,1-1.24-3.26C154.09,283.17,153.47,284.15,152.3,286.15Z"/><text class="a61cf180-a90a-4503-8e36-560b06f18092" transform="translate(182.19 401.42) scale(0.99 1)">135 escaños</text></svg>