<svg xmlns="http://www.w3.org/2000/svg" viewBox="0 0 572 493"><defs><style>.\32 3b6b9b0-0db4-4e31-8ce7-cd154bbd5bbf{isolation:isolate;}.d1525cb8-9adb-4552-8b5a-39c2bd2b0c21,.e517b7ca-43ba-4b38-8b35-1798cd0a4189{opacity:0.69;mix-blend-mode:multiply;}.\31 d564384-b428-479e-993d-7c6a48021538,.\32 6a650d7-5f09-46b2-b528-74ac32171c46,.\36 20b383a-d065-4fcc-a8b1-0a208302be66,.\37 cd5e3a6-2044-44bf-9c9d-472496cc80ca,.\37 d492624-dd9a-43e7-aa9f-f8051e63e206,.a9bcf95b-3cda-4d04-8bf5-3a26a0567c14,.b209d2d6-9b06-413a-a183-e8fe44cdaf3e,.c7d88430-8521-4f98-8116-5b414a370e7e,.cca7f78c-9213-4554-a24b-dd47d0ddf943,.f1b06f03-ef2a-4a57-a96c-0422415a023a{fill:none;}.\36 20b383a-d065-4fcc-a8b1-0a208302be66{stroke:#d6d6d6;}.\30 5178e1a-5c84-40ca-9a31-e461a9a08bb3,.\31 768ca8c-a2fa-4333-99e2-0dc2ecb527d1,.\36 20b383a-d065-4fcc-a8b1-0a208302be66,.\37 d492624-dd9a-43e7-aa9f-f8051e63e206,.\39 e06286e-2566-4a61-b7f5-3a18154235e6,.a9bcf95b-3cda-4d04-8bf5-3a26a0567c14,.b68fd1d3-d45c-47e5-ace3-5e0cc38ef1dc,.bcf72840-fb71-4253-ad55-6d17585e49a7,.cd2bcec6-d3b3-4627-8a86-c99620f565bb,.d1525cb8-9adb-4552-8b5a-39c2bd2b0c21,.f50f9d90-b1bc-4bf9-8d80-08053c63b852,.fddc5139-af6f-4a5a-92a9-9e05f4bcbee2{stroke-miterlimit:10;}.\33 5d8c043-7b21-43b4-b09d-ed825d2dc5d8,.\39 e06286e-2566-4a61-b7f5-3a18154235e6,.cd2bcec6-d3b3-4627-8a86-c99620f565bb{fill:#ffe600;}.\39 e06286e-2566-4a61-b7f5-3a18154235e6,.f1b06f03-ef2a-4a57-a96c-0422415a023a{stroke:#ffe600;}.\30 5178e1a-5c84-40ca-9a31-e461a9a08bb3,.\31 768ca8c-a2fa-4333-99e2-0dc2ecb527d1,.\39 e06286e-2566-4a61-b7f5-3a18154235e6,.b68fd1d3-d45c-47e5-ace3-5e0cc38ef1dc,.bcf72840-fb71-4253-ad55-6d17585e49a7,.cd2bcec6-d3b3-4627-8a86-c99620f565bb,.d1525cb8-9adb-4552-8b5a-39c2bd2b0c21,.f50f9d90-b1bc-4bf9-8d80-08053c63b852,.fddc5139-af6f-4a5a-92a9-9e05f4bcbee2{stroke-width:6px;}.cd2bcec6-d3b3-4627-8a86-c99620f565bb,.f50f9d90-b1bc-4bf9-8d80-08053c63b852{stroke:#f15a24;}.\30 372fb3d-b824-478f-9e0b-835c1b4de285,.\30 5178e1a-5c84-40ca-9a31-e461a9a08bb3{fill:#8e244f;}.\30 5178e1a-5c84-40ca-9a31-e461a9a08bb3,.\32 6a650d7-5f09-46b2-b528-74ac32171c46{stroke:#8e244f;}.bcf72840-fb71-4253-ad55-6d17585e49a7,.ce311f0e-1feb-4139-8a8d-d5652e2bf182{fill:#3f4d78;}.\37 cd5e3a6-2044-44bf-9c9d-472496cc80ca,.bcf72840-fb71-4253-ad55-6d17585e49a7{stroke:#3f4d78;}.\35 1a817dc-7446-4cf1-8a7a-080195c5f93d,.b68fd1d3-d45c-47e5-ace3-5e0cc38ef1dc{fill:#991d26;}.b209d2d6-9b06-413a-a183-e8fe44cdaf3e,.b68fd1d3-d45c-47e5-ace3-5e0cc38ef1dc{stroke:#991d26;}.d1525cb8-9adb-4552-8b5a-39c2bd2b0c21,.e117efe3-e39d-4974-ad3b-5df3f6b9db86{fill:#d57928;}.c7d88430-8521-4f98-8116-5b414a370e7e,.d1525cb8-9adb-4552-8b5a-39c2bd2b0c21{stroke:#d57928;}.\31 768ca8c-a2fa-4333-99e2-0dc2ecb527d1,.\32 83d06d6-96c4-4545-8003-0f3b651c5194{fill:#efb21b;}.\31 768ca8c-a2fa-4333-99e2-0dc2ecb527d1,.\31 d564384-b428-479e-993d-7c6a48021538{stroke:#efb21b;}.\33 7de7dc1-2f5a-43d8-84a2-569293ede51a,.f50f9d90-b1bc-4bf9-8d80-08053c63b852,.fddc5139-af6f-4a5a-92a9-9e05f4bcbee2{fill:#59a5a5;}.cca7f78c-9213-4554-a24b-dd47d0ddf943,.fddc5139-af6f-4a5a-92a9-9e05f4bcbee2{stroke:#59a5a5;}.a9bcf95b-3cda-4d04-8bf5-3a26a0567c14{stroke:#757575;}.\30 372fb3d-b824-478f-9e0b-835c1b4de285,.\32 83d06d6-96c4-4545-8003-0f3b651c5194,.\33 5d8c043-7b21-43b4-b09d-ed825d2dc5d8,.\33 7de7dc1-2f5a-43d8-84a2-569293ede51a,.\33 fe16467-68ad-4150-9316-2bbcefb6655e,.\35 1a817dc-7446-4cf1-8a7a-080195c5f93d,.ce311f0e-1feb-4139-8a8d-d5652e2bf182,.e117efe3-e39d-4974-ad3b-5df3f6b9db86{font-size:16px;}.\30 92812a5-351e-4a19-88b5-bfd3c9daa34e,.\33 fe16467-68ad-4150-9316-2bbcefb6655e,.\37 c0d106c-9c39-4145-b407-63a60c4a5879{fill:#757575;}.\33 fe16467-68ad-4150-9316-2bbcefb6655e,.\37 c0d106c-9c39-4145-b407-63a60c4a5879{font-family:ArialMT, Arial;}.\30 92812a5-351e-4a19-88b5-bfd3c9daa34e,.\37 c0d106c-9c39-4145-b407-63a60c4a5879{font-size:15px;}.\30 372fb3d-b824-478f-9e0b-835c1b4de285,.\30 92812a5-351e-4a19-88b5-bfd3c9daa34e,.\32 83d06d6-96c4-4545-8003-0f3b651c5194,.\33 5d8c043-7b21-43b4-b09d-ed825d2dc5d8,.\33 7de7dc1-2f5a-43d8-84a2-569293ede51a,.\35 1a817dc-7446-4cf1-8a7a-080195c5f93d,.c8cb5f33-b315-4504-9daf-8e97f2e8423c,.ce311f0e-1feb-4139-8a8d-d5652e2bf182,.e117efe3-e39d-4974-ad3b-5df3f6b9db86{font-family:Arial-BoldMT, Arial;font-weight:700;}.c8cb5f33-b315-4504-9daf-8e97f2e8423c{font-size:24.5px;}.\34 c8a555c-4fcd-4d7d-9b2f-80b21e05d440,.c8cb5f33-b315-4504-9daf-8e97f2e8423c{fill:#323232;}.\37 d492624-dd9a-43e7-aa9f-f8051e63e206{stroke:#323232;}.\33 cbb1a5d-6205-4ebc-b28b-ad5ef41b910e{letter-spacing:-0.02em;}.\38 50f19f5-43df-43be-b545-bdaea4e1e606{letter-spacing:-0.07em;}.de6badd8-d2fb-4d97-ab33-02952d5cc389{letter-spacing:0em;}</style></defs><title>2017.11_Metaencuesta</title><g class="23b6b9b0-0db4-4e31-8ce7-cd154bbd5bbf"><g id="ac29c3b0-54c5-42ac-8b88-ae899e535a9b" data-name="Capa 1"><g class="e517b7ca-43ba-4b38-8b35-1798cd0a4189"><line class="620b383a-d065-4fcc-a8b1-0a208302be66" x1="26.97" y1="387.13" x2="562.03" y2="387.13"/><line class="620b383a-d065-4fcc-a8b1-0a208302be66" x1="26.97" y1="325.36" x2="562.03" y2="325.36"/><line class="620b383a-d065-4fcc-a8b1-0a208302be66" x1="26.97" y1="263.59" x2="562.03" y2="263.59"/><line class="620b383a-d065-4fcc-a8b1-0a208302be66" x1="26.97" y1="201.81" x2="562.03" y2="201.81"/><line class="620b383a-d065-4fcc-a8b1-0a208302be66" x1="26.97" y1="140.04" x2="562.03" y2="140.04"/><line class="620b383a-d065-4fcc-a8b1-0a208302be66" x1="26.97" y1="78.27" x2="562.03" y2="78.27"/></g><g class="e517b7ca-43ba-4b38-8b35-1798cd0a4189"><line class="620b383a-d065-4fcc-a8b1-0a208302be66" x1="26.97" y1="448.91" x2="562.03" y2="448.91"/></g><g class="e517b7ca-43ba-4b38-8b35-1798cd0a4189"><path class="9e06286e-2566-4a61-b7f5-3a18154235e6" d="M30.07,387.13a1.72,1.72,0,1,0,1.72-1.82A1.77,1.77,0,0,0,30.07,387.13Z"/><path class="9e06286e-2566-4a61-b7f5-3a18154235e6" d="M30.07,367.37a1.72,1.72,0,1,0,1.72-1.82A1.77,1.77,0,0,0,30.07,367.37Z"/><path class="cd2bcec6-d3b3-4627-8a86-c99620f565bb" d="M105.13,357.48a1.72,1.72,0,1,0,1.72-1.82A1.77,1.77,0,0,0,105.13,357.48Z"/><path class="9e06286e-2566-4a61-b7f5-3a18154235e6" d="M180.19,376a1.72,1.72,0,1,0,1.72-1.82A1.77,1.77,0,0,0,180.19,376Z"/><path class="9e06286e-2566-4a61-b7f5-3a18154235e6" d="M405.37,383.43a1.72,1.72,0,1,0,1.72-1.82A1.77,1.77,0,0,0,405.37,383.43Z"/><path class="cd2bcec6-d3b3-4627-8a86-c99620f565bb" d="M480.43,369.84a1.72,1.72,0,1,0,1.72-1.82A1.77,1.77,0,0,0,480.43,369.84Z"/><path class="9e06286e-2566-4a61-b7f5-3a18154235e6" d="M480.43,385.9a1.72,1.72,0,1,0,1.72-1.82A1.77,1.77,0,0,0,480.43,385.9Z"/><path class="cd2bcec6-d3b3-4627-8a86-c99620f565bb" d="M480.43,377.25a1.72,1.72,0,1,0,1.72-1.82A1.77,1.77,0,0,0,480.43,377.25Z"/><path class="9e06286e-2566-4a61-b7f5-3a18154235e6" d="M480.43,369.84a1.72,1.72,0,1,0,1.72-1.82A1.77,1.77,0,0,0,480.43,369.84Z"/><path class="9e06286e-2566-4a61-b7f5-3a18154235e6" d="M480.43,384.66a1.72,1.72,0,1,0,1.72-1.82A1.77,1.77,0,0,0,480.43,384.66Z"/><path class="05178e1a-5c84-40ca-9a31-e461a9a08bb3" d="M480.43,379.72a1.72,1.72,0,1,0,1.72-1.82A1.77,1.77,0,0,0,480.43,379.72Z"/><path class="9e06286e-2566-4a61-b7f5-3a18154235e6" d="M555.49,381a1.72,1.72,0,1,0,1.72-1.82A1.77,1.77,0,0,0,555.49,381Z"/><path class="9e06286e-2566-4a61-b7f5-3a18154235e6" d="M555.49,355a1.72,1.72,0,1,0,1.72-1.82A1.77,1.77,0,0,0,555.49,355Z"/><path class="9e06286e-2566-4a61-b7f5-3a18154235e6" d="M555.49,362.42a1.72,1.72,0,1,0,1.72-1.82A1.77,1.77,0,0,0,555.49,362.42Z"/><path class="cd2bcec6-d3b3-4627-8a86-c99620f565bb" d="M555.49,379.72a1.72,1.72,0,1,0,1.72-1.82A1.77,1.77,0,0,0,555.49,379.72Z"/></g><g class="e517b7ca-43ba-4b38-8b35-1798cd0a4189"><path class="bcf72840-fb71-4253-ad55-6d17585e49a7" d="M30.07,224.05a1.72,1.72,0,1,0,1.72-1.82A1.77,1.77,0,0,0,30.07,224.05Z"/><path class="bcf72840-fb71-4253-ad55-6d17585e49a7" d="M30.07,248.76a1.72,1.72,0,1,0,1.72-1.82A1.77,1.77,0,0,0,30.07,248.76Z"/><path class="bcf72840-fb71-4253-ad55-6d17585e49a7" d="M105.13,215.4a1.72,1.72,0,1,0,1.72-1.82A1.77,1.77,0,0,0,105.13,215.4Z"/><path class="bcf72840-fb71-4253-ad55-6d17585e49a7" d="M180.19,185.75a1.72,1.72,0,1,0,1.72-1.82A1.77,1.77,0,0,0,180.19,185.75Z"/><path class="bcf72840-fb71-4253-ad55-6d17585e49a7" d="M405.37,194.4a1.72,1.72,0,1,0,1.72-1.82A1.77,1.77,0,0,0,405.37,194.4Z"/><path class="bcf72840-fb71-4253-ad55-6d17585e49a7" d="M480.43,243.82a1.72,1.72,0,1,0,1.72-1.82A1.77,1.77,0,0,0,480.43,243.82Z"/><path class="bcf72840-fb71-4253-ad55-6d17585e49a7" d="M480.43,227.76a1.72,1.72,0,1,0,1.72-1.82A1.77,1.77,0,0,0,480.43,227.76Z"/><path class="bcf72840-fb71-4253-ad55-6d17585e49a7" d="M480.43,250a1.72,1.72,0,1,0,1.72-1.82A1.77,1.77,0,0,0,480.43,250Z"/><path class="b68fd1d3-d45c-47e5-ace3-5e0cc38ef1dc" d="M480.43,272.24a1.72,1.72,0,1,0,1.72-1.82A1.77,1.77,0,0,0,480.43,272.24Z"/><path class="bcf72840-fb71-4253-ad55-6d17585e49a7" d="M480.43,220.35a1.72,1.72,0,1,0,1.72-1.82A1.77,1.77,0,0,0,480.43,220.35Z"/><path class="bcf72840-fb71-4253-ad55-6d17585e49a7" d="M480.43,230.23a1.72,1.72,0,1,0,1.72-1.82A1.77,1.77,0,0,0,480.43,230.23Z"/><path class="bcf72840-fb71-4253-ad55-6d17585e49a7" d="M555.49,227.76a1.72,1.72,0,1,0,1.72-1.82A1.77,1.77,0,0,0,555.49,227.76Z"/><path class="bcf72840-fb71-4253-ad55-6d17585e49a7" d="M555.49,206.76a1.72,1.72,0,1,0,1.72-1.82A1.77,1.77,0,0,0,555.49,206.76Z"/><path class="bcf72840-fb71-4253-ad55-6d17585e49a7" d="M555.49,172.16a1.72,1.72,0,1,0,1.72-1.82A1.77,1.77,0,0,0,555.49,172.16Z"/><path class="bcf72840-fb71-4253-ad55-6d17585e49a7" d="M555.49,208a1.72,1.72,0,1,0,1.72-1.82A1.77,1.77,0,0,0,555.49,208Z"/></g><g class="e517b7ca-43ba-4b38-8b35-1798cd0a4189"><path class="05178e1a-5c84-40ca-9a31-e461a9a08bb3" d="M30.07,357.48a1.72,1.72,0,1,0,1.72-1.82A1.77,1.77,0,0,0,30.07,357.48Z"/><path class="05178e1a-5c84-40ca-9a31-e461a9a08bb3" d="M30.07,348.83A1.72,1.72,0,1,0,31.79,347,1.77,1.77,0,0,0,30.07,348.83Z"/><path class="05178e1a-5c84-40ca-9a31-e461a9a08bb3" d="M105.13,357.48a1.72,1.72,0,1,0,1.72-1.82A1.77,1.77,0,0,0,105.13,357.48Z"/><path class="05178e1a-5c84-40ca-9a31-e461a9a08bb3" d="M180.19,347.6a1.72,1.72,0,1,0,1.72-1.82A1.77,1.77,0,0,0,180.19,347.6Z"/><path class="05178e1a-5c84-40ca-9a31-e461a9a08bb3" d="M405.37,336.48a1.72,1.72,0,1,0,1.72-1.82A1.77,1.77,0,0,0,405.37,336.48Z"/><path class="05178e1a-5c84-40ca-9a31-e461a9a08bb3" d="M480.43,353.78a1.72,1.72,0,1,0,1.72-1.82A1.77,1.77,0,0,0,480.43,353.78Z"/><path class="05178e1a-5c84-40ca-9a31-e461a9a08bb3" d="M480.43,337.71a1.72,1.72,0,1,0,1.72-1.82A1.77,1.77,0,0,0,480.43,337.71Z"/><path class="05178e1a-5c84-40ca-9a31-e461a9a08bb3" d="M480.43,355a1.72,1.72,0,1,0,1.72-1.82A1.77,1.77,0,0,0,480.43,355Z"/><path class="05178e1a-5c84-40ca-9a31-e461a9a08bb3" d="M480.43,334a1.72,1.72,0,1,0,1.72-1.82A1.77,1.77,0,0,0,480.43,334Z"/><path class="05178e1a-5c84-40ca-9a31-e461a9a08bb3" d="M480.43,381a1.72,1.72,0,1,0,1.72-1.82A1.77,1.77,0,0,0,480.43,381Z"/><path class="05178e1a-5c84-40ca-9a31-e461a9a08bb3" d="M480.43,374.78a1.72,1.72,0,1,0,1.72-1.82A1.77,1.77,0,0,0,480.43,374.78Z"/><path class="05178e1a-5c84-40ca-9a31-e461a9a08bb3" d="M555.49,339a1.72,1.72,0,1,0,1.72-1.82A1.77,1.77,0,0,0,555.49,339Z"/><path class="05178e1a-5c84-40ca-9a31-e461a9a08bb3" d="M555.49,360a1.72,1.72,0,1,0,1.72-1.82A1.77,1.77,0,0,0,555.49,360Z"/><path class="05178e1a-5c84-40ca-9a31-e461a9a08bb3" d="M555.49,376a1.72,1.72,0,1,0,1.72-1.82A1.77,1.77,0,0,0,555.49,376Z"/><path class="05178e1a-5c84-40ca-9a31-e461a9a08bb3" d="M555.49,356.25a1.72,1.72,0,1,0,1.72-1.82A1.77,1.77,0,0,0,555.49,356.25Z"/></g><g class="e517b7ca-43ba-4b38-8b35-1798cd0a4189"><path class="b68fd1d3-d45c-47e5-ace3-5e0cc38ef1dc" d="M30.07,245.06a1.72,1.72,0,1,0,1.72-1.82A1.77,1.77,0,0,0,30.07,245.06Z"/><path class="b68fd1d3-d45c-47e5-ace3-5e0cc38ef1dc" d="M30.07,250a1.72,1.72,0,1,0,1.72-1.82A1.77,1.77,0,0,0,30.07,250Z"/><path class="b68fd1d3-d45c-47e5-ace3-5e0cc38ef1dc" d="M105.13,252.47a1.72,1.72,0,1,0,1.72-1.82A1.77,1.77,0,0,0,105.13,252.47Z"/><path class="b68fd1d3-d45c-47e5-ace3-5e0cc38ef1dc" d="M180.19,274.71a1.72,1.72,0,1,0,1.72-1.82A1.77,1.77,0,0,0,180.19,274.71Z"/><path class="b68fd1d3-d45c-47e5-ace3-5e0cc38ef1dc" d="M405.37,268.53a1.72,1.72,0,1,0,1.72-1.82A1.77,1.77,0,0,0,405.37,268.53Z"/><path class="b68fd1d3-d45c-47e5-ace3-5e0cc38ef1dc" d="M480.43,258.65a1.72,1.72,0,1,0,1.72-1.82A1.77,1.77,0,0,0,480.43,258.65Z"/><path class="b68fd1d3-d45c-47e5-ace3-5e0cc38ef1dc" d="M480.43,262.35a1.72,1.72,0,1,0,1.72-1.82A1.77,1.77,0,0,0,480.43,262.35Z"/><path class="b68fd1d3-d45c-47e5-ace3-5e0cc38ef1dc" d="M480.43,252.47a1.72,1.72,0,1,0,1.72-1.82A1.77,1.77,0,0,0,480.43,252.47Z"/><path class="b68fd1d3-d45c-47e5-ace3-5e0cc38ef1dc" d="M480.43,272.24a1.72,1.72,0,1,0,1.72-1.82A1.77,1.77,0,0,0,480.43,272.24Z"/><path class="b68fd1d3-d45c-47e5-ace3-5e0cc38ef1dc" d="M480.43,235.17a1.72,1.72,0,1,0,1.72-1.82A1.77,1.77,0,0,0,480.43,235.17Z"/><path class="b68fd1d3-d45c-47e5-ace3-5e0cc38ef1dc" d="M480.43,259.88a1.72,1.72,0,1,0,1.72-1.82A1.77,1.77,0,0,0,480.43,259.88Z"/><path class="b68fd1d3-d45c-47e5-ace3-5e0cc38ef1dc" d="M555.49,240.11a1.72,1.72,0,1,0,1.72-1.82A1.77,1.77,0,0,0,555.49,240.11Z"/><path class="b68fd1d3-d45c-47e5-ace3-5e0cc38ef1dc" d="M555.49,264.82a1.72,1.72,0,1,0,1.72-1.82A1.77,1.77,0,0,0,555.49,264.82Z"/><path class="b68fd1d3-d45c-47e5-ace3-5e0cc38ef1dc" d="M555.49,304.36a1.72,1.72,0,1,0,1.72-1.82A1.77,1.77,0,0,0,555.49,304.36Z"/><path class="b68fd1d3-d45c-47e5-ace3-5e0cc38ef1dc" d="M555.49,247.53a1.72,1.72,0,1,0,1.72-1.82A1.77,1.77,0,0,0,555.49,247.53Z"/></g><path class="d1525cb8-9adb-4552-8b5a-39c2bd2b0c21" d="M480.43,137.57a1.72,1.72,0,1,0,1.72-1.82A1.77,1.77,0,0,0,480.43,137.57Z"/><path class="d1525cb8-9adb-4552-8b5a-39c2bd2b0c21" d="M30.07,163.52a1.72,1.72,0,1,0,1.72-1.82A1.77,1.77,0,0,0,30.07,163.52Z"/><path class="d1525cb8-9adb-4552-8b5a-39c2bd2b0c21" d="M30.07,174.63a1.72,1.72,0,1,0,1.72-1.82A1.77,1.77,0,0,0,30.07,174.63Z"/><path class="d1525cb8-9adb-4552-8b5a-39c2bd2b0c21" d="M105.13,185.75a1.72,1.72,0,1,0,1.72-1.82A1.77,1.77,0,0,0,105.13,185.75Z"/><path class="d1525cb8-9adb-4552-8b5a-39c2bd2b0c21" d="M180.19,187a1.72,1.72,0,1,0,1.72-1.82A1.77,1.77,0,0,0,180.19,187Z"/><path class="d1525cb8-9adb-4552-8b5a-39c2bd2b0c21" d="M405.37,178.34a1.72,1.72,0,1,0,1.72-1.82A1.77,1.77,0,0,0,405.37,178.34Z"/><path class="d1525cb8-9adb-4552-8b5a-39c2bd2b0c21" d="M480.43,167.22a1.72,1.72,0,1,0,1.72-1.82A1.77,1.77,0,0,0,480.43,167.22Z"/><path class="d1525cb8-9adb-4552-8b5a-39c2bd2b0c21" d="M480.43,172.16a1.72,1.72,0,1,0,1.72-1.82A1.77,1.77,0,0,0,480.43,172.16Z"/><path class="d1525cb8-9adb-4552-8b5a-39c2bd2b0c21" d="M480.43,179.58a1.72,1.72,0,1,0,1.72-1.82A1.77,1.77,0,0,0,480.43,179.58Z"/><path class="d1525cb8-9adb-4552-8b5a-39c2bd2b0c21" d="M480.43,157.34a1.72,1.72,0,1,0,1.72-1.82A1.77,1.77,0,0,0,480.43,157.34Z"/><path class="d1525cb8-9adb-4552-8b5a-39c2bd2b0c21" d="M480.43,147.45a1.72,1.72,0,1,0,1.72-1.82A1.77,1.77,0,0,0,480.43,147.45Z"/><path class="d1525cb8-9adb-4552-8b5a-39c2bd2b0c21" d="M555.49,187a1.72,1.72,0,1,0,1.72-1.82A1.77,1.77,0,0,0,555.49,187Z"/><path class="d1525cb8-9adb-4552-8b5a-39c2bd2b0c21" d="M555.49,163.52a1.72,1.72,0,1,0,1.72-1.82A1.77,1.77,0,0,0,555.49,163.52Z"/><path class="d1525cb8-9adb-4552-8b5a-39c2bd2b0c21" d="M555.49,146.22a1.72,1.72,0,1,0,1.72-1.82A1.77,1.77,0,0,0,555.49,146.22Z"/><path class="d1525cb8-9adb-4552-8b5a-39c2bd2b0c21" d="M555.49,162.28a1.72,1.72,0,1,0,1.72-1.82A1.77,1.77,0,0,0,555.49,162.28Z"/><g class="e517b7ca-43ba-4b38-8b35-1798cd0a4189"><path class="1768ca8c-a2fa-4333-99e2-0dc2ecb527d1" d="M480.43,172.16a1.72,1.72,0,1,0,1.72-1.82A1.77,1.77,0,0,0,480.43,172.16Z"/><path class="1768ca8c-a2fa-4333-99e2-0dc2ecb527d1" d="M480.43,157.34a1.72,1.72,0,1,0,1.72-1.82A1.77,1.77,0,0,0,480.43,157.34Z"/><path class="1768ca8c-a2fa-4333-99e2-0dc2ecb527d1" d="M555.49,187a1.72,1.72,0,1,0,1.72-1.82A1.77,1.77,0,0,0,555.49,187Z"/><path class="1768ca8c-a2fa-4333-99e2-0dc2ecb527d1" d="M30.07,183.28a1.72,1.72,0,1,0,1.72-1.82A1.77,1.77,0,0,0,30.07,183.28Z"/><path class="1768ca8c-a2fa-4333-99e2-0dc2ecb527d1" d="M30.07,166a1.72,1.72,0,1,0,1.72-1.82A1.77,1.77,0,0,0,30.07,166Z"/><path class="1768ca8c-a2fa-4333-99e2-0dc2ecb527d1" d="M105.13,173.4a1.72,1.72,0,1,0,1.72-1.82A1.77,1.77,0,0,0,105.13,173.4Z"/><path class="1768ca8c-a2fa-4333-99e2-0dc2ecb527d1" d="M180.19,184.52a1.72,1.72,0,1,0,1.72-1.82A1.77,1.77,0,0,0,180.19,184.52Z"/><path class="1768ca8c-a2fa-4333-99e2-0dc2ecb527d1" d="M405.37,183.28a1.72,1.72,0,1,0,1.72-1.82A1.77,1.77,0,0,0,405.37,183.28Z"/><path class="1768ca8c-a2fa-4333-99e2-0dc2ecb527d1" d="M480.43,170.93a1.72,1.72,0,1,0,1.72-1.82A1.77,1.77,0,0,0,480.43,170.93Z"/><path class="1768ca8c-a2fa-4333-99e2-0dc2ecb527d1" d="M480.43,148.69a1.72,1.72,0,1,0,1.72-1.82A1.77,1.77,0,0,0,480.43,148.69Z"/><path class="1768ca8c-a2fa-4333-99e2-0dc2ecb527d1" d="M555.49,174.63a1.72,1.72,0,1,0,1.72-1.82A1.77,1.77,0,0,0,555.49,174.63Z"/><path class="1768ca8c-a2fa-4333-99e2-0dc2ecb527d1" d="M555.49,224.05a1.72,1.72,0,1,0,1.72-1.82A1.77,1.77,0,0,0,555.49,224.05Z"/><path class="1768ca8c-a2fa-4333-99e2-0dc2ecb527d1" d="M555.49,198.11a1.72,1.72,0,1,0,1.72-1.82A1.77,1.77,0,0,0,555.49,198.11Z"/><path class="1768ca8c-a2fa-4333-99e2-0dc2ecb527d1" d="M480.43,145a1.72,1.72,0,1,0,1.72-1.82A1.77,1.77,0,0,0,480.43,145Z"/><path class="1768ca8c-a2fa-4333-99e2-0dc2ecb527d1" d="M480.43,163.52a1.72,1.72,0,1,0,1.72-1.82A1.77,1.77,0,0,0,480.43,163.52Z"/></g><g class="e517b7ca-43ba-4b38-8b35-1798cd0a4189"><path class="fddc5139-af6f-4a5a-92a9-9e05f4bcbee2" d="M30.07,361.19a1.72,1.72,0,1,0,1.72-1.82A1.77,1.77,0,0,0,30.07,361.19Z"/><path class="fddc5139-af6f-4a5a-92a9-9e05f4bcbee2" d="M30.07,366.13a1.72,1.72,0,1,0,1.72-1.82A1.77,1.77,0,0,0,30.07,366.13Z"/><path class="fddc5139-af6f-4a5a-92a9-9e05f4bcbee2" d="M105.13,373.54a1.72,1.72,0,1,0,1.72-1.82A1.77,1.77,0,0,0,105.13,373.54Z"/><path class="fddc5139-af6f-4a5a-92a9-9e05f4bcbee2" d="M180.19,373.54a1.72,1.72,0,1,0,1.72-1.82A1.77,1.77,0,0,0,180.19,373.54Z"/><path class="fddc5139-af6f-4a5a-92a9-9e05f4bcbee2" d="M405.37,387.13a1.72,1.72,0,1,0,1.72-1.82A1.77,1.77,0,0,0,405.37,387.13Z"/><path class="fddc5139-af6f-4a5a-92a9-9e05f4bcbee2" d="M480.43,377.25a1.72,1.72,0,1,0,1.72-1.82A1.77,1.77,0,0,0,480.43,377.25Z"/><path class="fddc5139-af6f-4a5a-92a9-9e05f4bcbee2" d="M480.43,389.6a1.72,1.72,0,1,0,1.72-1.82A1.77,1.77,0,0,0,480.43,389.6Z"/><path class="fddc5139-af6f-4a5a-92a9-9e05f4bcbee2" d="M480.43,358.72a1.72,1.72,0,1,0,1.72-1.82A1.77,1.77,0,0,0,480.43,358.72Z"/><path class="f50f9d90-b1bc-4bf9-8d80-08053c63b852" d="M480.43,382.19a1.72,1.72,0,1,0,1.72-1.82A1.77,1.77,0,0,0,480.43,382.19Z"/><path class="fddc5139-af6f-4a5a-92a9-9e05f4bcbee2" d="M480.43,371.07a1.72,1.72,0,1,0,1.72-1.82A1.77,1.77,0,0,0,480.43,371.07Z"/><path class="fddc5139-af6f-4a5a-92a9-9e05f4bcbee2" d="M480.43,382.19a1.72,1.72,0,1,0,1.72-1.82A1.77,1.77,0,0,0,480.43,382.19Z"/><path class="fddc5139-af6f-4a5a-92a9-9e05f4bcbee2" d="M555.49,379.72a1.72,1.72,0,1,0,1.72-1.82A1.77,1.77,0,0,0,555.49,379.72Z"/><path class="fddc5139-af6f-4a5a-92a9-9e05f4bcbee2" d="M555.49,378.48a1.72,1.72,0,1,0,1.72-1.82A1.77,1.77,0,0,0,555.49,378.48Z"/><path class="fddc5139-af6f-4a5a-92a9-9e05f4bcbee2" d="M555.49,382a1.72,1.72,0,1,0,1.72-1.82A1.77,1.77,0,0,0,555.49,382Z"/><path class="fddc5139-af6f-4a5a-92a9-9e05f4bcbee2" d="M555.49,372.31a1.72,1.72,0,1,0,1.72-1.82A1.77,1.77,0,0,0,555.49,372.31Z"/></g><line class="a9bcf95b-3cda-4d04-8bf5-3a26a0567c14" x1="27" y1="448.5" x2="561" y2="448.5"/><text class="3fe16467-68ad-4150-9316-2bbcefb6655e" transform="translate(6.66 384.02) scale(0.99 1)">5</text><text class="3fe16467-68ad-4150-9316-2bbcefb6655e" transform="translate(4.5 322.02) scale(0.99 1)">10</text><text class="3fe16467-68ad-4150-9316-2bbcefb6655e" transform="translate(6.83 200.02) scale(0.99 1)">20</text><text class="3fe16467-68ad-4150-9316-2bbcefb6655e" transform="translate(6.83 137.02) scale(0.99 1)">25</text><text class="3fe16467-68ad-4150-9316-2bbcefb6655e" transform="translate(9.83 74.02) scale(0.99 1)">30</text><text class="3fe16467-68ad-4150-9316-2bbcefb6655e" transform="translate(6.83 260.02) scale(0.99 1)">15</text><text class="7c0d106c-9c39-4145-b407-63a60c4a5879" transform="translate(75.5 135.02) scale(0.99 1)">Promedio diario de las encuestas</text><text class="092812a5-351e-4a19-88b5-bfd3c9daa34e" transform="translate(29.5 467.02) scale(0.99 1)">7 de diciembre</text><text class="092812a5-351e-4a19-88b5-bfd3c9daa34e" transform="translate(453.5 468.02) scale(0.99 1)">14 de diciembre</text><text class="092812a5-351e-4a19-88b5-bfd3c9daa34e" transform="translate(432.5 70.02) scale(0.99 1)">Porcentaje de voto</text><text class="7c0d106c-9c39-4145-b407-63a60c4a5879" transform="translate(245.5 99.02) scale(0.99 1)">Resultado de cada encuesta</text><text class="c8cb5f33-b315-4504-9daf-8e97f2e8423c" transform="translate(16.43 23.54)">Evolución de los sondeos durante la campaña</text><path class="7d492624-dd9a-43e7-aa9f-f8051e63e206" d="M442.5,91.5c28.77-12.47,80.53-1,109.42,35.21"/><polygon class="4c8a555c-4fcd-4d7d-9b2f-80b21e05d440" points="547.24 126.76 551.14 125.77 553.13 122.27 555.5 131.5 547.24 126.76"/><path class="7d492624-dd9a-43e7-aa9f-f8051e63e206" d="M301.5,131.5c28.78-12.47,106.33-10.22,137.32,25.3"/><polygon class="4c8a555c-4fcd-4d7d-9b2f-80b21e05d440" points="434.1 157 437.97 155.89 439.87 152.34 442.5 161.5 434.1 157"/><path class="f1b06f03-ef2a-4a57-a96c-0422415a023a" d="M30,378.05l74.92-19.9,74.92,18.65,224.75,7.46,74.92-5.6,74.92-8.39"/><path class="1d564384-b428-479e-993d-7c6a48021538" d="M479.5,159l74.92,36.58"/><path class="1d564384-b428-479e-993d-7c6a48021538" d="M30,174.13l74.92-1.24,74.92,11.19,224.75-1.24L479.5,159"/><path class="7cd5e3a6-2044-44bf-9c9d-472496cc80ca" d="M30,236.3l74.92-21.14,74.92-29.84L404.59,194l74.92,46.63,74.92-37.3"/><path class="26a650d7-5f09-46b2-b528-74ac32171c46" d="M30,353.81l74.92,4.35,74.92-9.95L404.59,337l74.92,19.69,74.92,1.76"/><path class="b209d2d6-9b06-413a-a183-e8fe44cdaf3e" d="M30,247.49l74.92,5,74.92,22.38,224.75-6.22,74.92-11.81,74.92,7.46"/><path class="c7d88430-8521-4f98-8116-5b414a370e7e" d="M479.5,159.62l74.92,4.56"/><path class="c7d88430-8521-4f98-8116-5b414a370e7e" d="M30,168.53l74.92,16.79,74.92,1.24,224.75-8.7,74.92-18.24"/><path class="cca7f78c-9213-4554-a24b-dd47d0ddf943" d="M30,364.37l74.92,9.95h74.92L404.59,388l74.92-10.36,74.92,1"/><text class="283d06d6-96c4-4545-8003-0f3b651c5194" transform="translate(16.5 48.02) scale(0.99 1)">ERC</text><text class="e117efe3-e39d-4974-ad3b-5df3f6b9db86" transform="translate(62.5 48.02) scale(0.99 1)">Cs</text><text class="35d8c043-7b21-43b4-b09d-ed825d2dc5d8" transform="translate(284.5 49.02) scale(0.99 1)">CU<tspan class="3cbb1a5d-6205-4ebc-b28b-ad5ef41b910e" x="23.11" y="0">P</tspan></text><text class="51a817dc-7446-4cf1-8a7a-080195c5f93d" transform="translate(154.5 48.02) scale(0.99 1)">PSC</text><text class="0372fb3d-b824-478f-9e0b-835c1b4de285" transform="translate(196.5 49.02) scale(0.99 1)">CeC-<tspan class="3cbb1a5d-6205-4ebc-b28b-ad5ef41b910e" x="37.34" y="0">P</tspan></text><text class="37de7dc1-2f5a-43d8-84a2-569293ede51a" transform="translate(253.5 49.02) scale(0.99 1)">P<tspan class="3cbb1a5d-6205-4ebc-b28b-ad5ef41b910e" x="10.67" y="0">P</tspan></text><text class="ce311f0e-1feb-4139-8a8d-d5652e2bf182" transform="translate(96.5 48.02) scale(0.99 1)">JxC<tspan class="850f19f5-43df-43be-b545-bdaea4e1e606" x="29.35" y="0">A</tspan><tspan class="de6badd8-d2fb-4d97-ab33-02952d5cc389" x="39.72" y="0">T</tspan></text></g></g></svg>