<svg id="ac894073-2985-48c3-956a-91c554219ae6" data-name="Capa 1" xmlns="http://www.w3.org/2000/svg" viewBox="0 0 572 493"><defs><style>.a33dc370-8751-4973-9fdd-fd9582f739c4,.a6756c6a-e871-4a9f-ab89-6284a1e23b9e,.b4690240-5c0b-4a3c-92f8-5149dacad192,.bb96051f-5fec-442e-8d9c-b88abf0de913{font-size:16px;}.\38 95388d0-0ee1-418d-a668-80a3bca001dc,.\38 b2a746d-ce6e-49d8-9ce4-28172f78ec1e,.bb96051f-5fec-442e-8d9c-b88abf0de913{fill:#757575;}.\38 b2a746d-ce6e-49d8-9ce4-28172f78ec1e,.bb96051f-5fec-442e-8d9c-b88abf0de913{font-family:ArialMT, Arial;}.\38 95388d0-0ee1-418d-a668-80a3bca001dc,.\38 b2a746d-ce6e-49d8-9ce4-28172f78ec1e{font-size:15px;}.\38 95388d0-0ee1-418d-a668-80a3bca001dc,.a33dc370-8751-4973-9fdd-fd9582f739c4,.a6756c6a-e871-4a9f-ab89-6284a1e23b9e,.b4690240-5c0b-4a3c-92f8-5149dacad192,.c0ba6433-2243-419a-be55-429dcf151bed{font-family:Arial-BoldMT, Arial;font-weight:700;}.\31 c3db50a-0c13-42a3-b1b6-1ff75baff00f,.\35 60132ab-f9da-4cde-a698-e2185a6a44e1,.\36 e30decd-a63c-4a8a-b499-9d33c1559d08,.\37 c00939e-4f9e-4c9a-9c49-5ee859790224,.\38 7924d1f-8d91-428c-a24a-ea18fef87808,.cbaab919-23e3-4c6d-b3a5-f3c1a8bad5d8{fill:none;}.\35 60132ab-f9da-4cde-a698-e2185a6a44e1{stroke:#323232;}.\30 4bc3979-4478-4502-8ab4-ea2402f408e9,.\30 8de7b60-1bcb-4560-a953-3658c14b45b5,.\35 60132ab-f9da-4cde-a698-e2185a6a44e1,.b2ab33c2-188e-4e38-b257-585a2430ceb6,.c77bd8d8-f5f5-477e-9acb-0c53388a6499,.e510f06f-d997-487d-b7cd-1d1ae8455919{stroke-miterlimit:10;}.\39 29bcf9d-c858-4b69-965d-0e82b7beb705,.c0ba6433-2243-419a-be55-429dcf151bed{fill:#323232;}.c0ba6433-2243-419a-be55-429dcf151bed{font-size:24.5px;}.cbaab919-23e3-4c6d-b3a5-f3c1a8bad5d8{stroke:#e6e6e6;}.\37 c00939e-4f9e-4c9a-9c49-5ee859790224{stroke:#000;}.\35 7bea9c4-3fda-4aee-b7c8-19c029d166f3{opacity:0.67;}.\30 4bc3979-4478-4502-8ab4-ea2402f408e9,.\30 8de7b60-1bcb-4560-a953-3658c14b45b5,.b4690240-5c0b-4a3c-92f8-5149dacad192{fill:#efb21b;}.\30 8de7b60-1bcb-4560-a953-3658c14b45b5,.\36 e30decd-a63c-4a8a-b499-9d33c1559d08{stroke:#efb21b;}.\30 4bc3979-4478-4502-8ab4-ea2402f408e9,.\30 8de7b60-1bcb-4560-a953-3658c14b45b5,.b2ab33c2-188e-4e38-b257-585a2430ceb6,.c77bd8d8-f5f5-477e-9acb-0c53388a6499,.e510f06f-d997-487d-b7cd-1d1ae8455919{stroke-width:6px;}.\30 4bc3979-4478-4502-8ab4-ea2402f408e9,.b2ab33c2-188e-4e38-b257-585a2430ceb6{stroke:#662d91;}.a33dc370-8751-4973-9fdd-fd9582f739c4,.b2ab33c2-188e-4e38-b257-585a2430ceb6,.e510f06f-d997-487d-b7cd-1d1ae8455919{fill:#3f4d78;}.\38 7924d1f-8d91-428c-a24a-ea18fef87808,.e510f06f-d997-487d-b7cd-1d1ae8455919{stroke:#3f4d78;}.a6756c6a-e871-4a9f-ab89-6284a1e23b9e,.c77bd8d8-f5f5-477e-9acb-0c53388a6499{fill:#8e244f;}.\31 c3db50a-0c13-42a3-b1b6-1ff75baff00f,.c77bd8d8-f5f5-477e-9acb-0c53388a6499{stroke:#8e244f;}.be22843a-4060-4bca-869a-39768bd3876d{letter-spacing:-0.02em;}</style></defs><title>2017.11_Metaencuesta</title><text class="bb96051f-5fec-442e-8d9c-b88abf0de913" transform="translate(3.66 448.02) scale(0.99 1)">0</text><text class="bb96051f-5fec-442e-8d9c-b88abf0de913" transform="translate(3.66 405.02) scale(0.99 1)">5</text><text class="bb96051f-5fec-442e-8d9c-b88abf0de913" transform="translate(0.83 369.02) scale(0.99 1)">10</text><text class="bb96051f-5fec-442e-8d9c-b88abf0de913" transform="translate(1.83 334.02) scale(0.99 1)">15</text><text class="bb96051f-5fec-442e-8d9c-b88abf0de913" transform="translate(1.83 297.02) scale(0.99 1)">20</text><text class="bb96051f-5fec-442e-8d9c-b88abf0de913" transform="translate(1.83 260.02) scale(0.99 1)">25</text><text class="bb96051f-5fec-442e-8d9c-b88abf0de913" transform="translate(1.83 222.02) scale(0.99 1)">30</text><text class="bb96051f-5fec-442e-8d9c-b88abf0de913" transform="translate(1.83 185.02) scale(0.99 1)">35</text><text class="bb96051f-5fec-442e-8d9c-b88abf0de913" transform="translate(1.83 148.02) scale(0.99 1)">40</text><text class="bb96051f-5fec-442e-8d9c-b88abf0de913" transform="translate(0.83 113.02) scale(0.99 1)">45</text><text class="bb96051f-5fec-442e-8d9c-b88abf0de913" transform="translate(2.83 76.02) scale(0.99 1)">50</text><text class="8b2a746d-ce6e-49d8-9ce4-28172f78ec1e" transform="translate(53.5 185.02) scale(0.99 1)">Promedio diario de las encuestas</text><text class="895388d0-0ee1-418d-a668-80a3bca001dc" transform="translate(17.5 464.02) scale(0.99 1)">7 de diciembre</text><text class="895388d0-0ee1-418d-a668-80a3bca001dc" transform="translate(455.5 464.02) scale(0.99 1)">14 de diciembre</text><text class="895388d0-0ee1-418d-a668-80a3bca001dc" transform="translate(433.5 76.02) scale(0.99 1)">Porcentaje de voto</text><text class="8b2a746d-ce6e-49d8-9ce4-28172f78ec1e" transform="translate(264.5 259.02) scale(0.99 1)">Resultado de cada encuesta</text><path class="560132ab-f9da-4cde-a698-e2185a6a44e1" d="M460.5,253.5c28.29-12.26,57.47-74.32,42.25-104"/><polygon class="929bcf9d-c858-4b69-965d-0e82b7beb705" points="507.29 149.98 503.32 150.61 501.01 153.91 499.5 144.5 507.29 149.98"/><path class="560132ab-f9da-4cde-a698-e2185a6a44e1" d="M281.5,184.5c34.4,19.11,86.15,10.83,94.17-30.09"/><polygon class="929bcf9d-c858-4b69-965d-0e82b7beb705" points="378.82 157.74 375.4 155.62 371.5 156.61 376.5 148.5 378.82 157.74"/><text class="c0ba6433-2243-419a-be55-429dcf151bed" transform="translate(25.84 23.54)">Evolución de los bloques durante la campaña</text><line class="cbaab919-23e3-4c6d-b3a5-f3c1a8bad5d8" x1="7" y1="410.85" x2="570" y2="410.85"/><line class="cbaab919-23e3-4c6d-b3a5-f3c1a8bad5d8" x1="7" y1="374" x2="570" y2="374"/><line class="cbaab919-23e3-4c6d-b3a5-f3c1a8bad5d8" x1="7" y1="337.14" x2="570" y2="337.14"/><line class="cbaab919-23e3-4c6d-b3a5-f3c1a8bad5d8" x1="7" y1="300.29" x2="570" y2="300.29"/><line class="cbaab919-23e3-4c6d-b3a5-f3c1a8bad5d8" x1="7" y1="263.44" x2="570" y2="263.44"/><line class="cbaab919-23e3-4c6d-b3a5-f3c1a8bad5d8" x1="7" y1="226.59" x2="570" y2="226.59"/><line class="cbaab919-23e3-4c6d-b3a5-f3c1a8bad5d8" x1="7" y1="189.74" x2="570" y2="189.74"/><line class="cbaab919-23e3-4c6d-b3a5-f3c1a8bad5d8" x1="7" y1="152.88" x2="570" y2="152.88"/><line class="cbaab919-23e3-4c6d-b3a5-f3c1a8bad5d8" x1="7" y1="116.03" x2="570" y2="116.03"/><line class="cbaab919-23e3-4c6d-b3a5-f3c1a8bad5d8" x1="7" y1="79.18" x2="570" y2="79.18"/><line class="7c00939e-4f9e-4c9a-9c49-5ee859790224" x1="19.92" y1="447.7" x2="570" y2="447.7"/><g class="57bea9c4-3fda-4aee-b7c8-19c029d166f3"><path class="08de7b60-1bcb-4560-a953-3658c14b45b5" d="M23,118.24a1.68,1.68,0,1,0,1.68-1.77A1.73,1.73,0,0,0,23,118.24Z"/><path class="08de7b60-1bcb-4560-a953-3658c14b45b5" d="M23,110.87a1.68,1.68,0,1,0,1.68-1.77A1.73,1.73,0,0,0,23,110.87Z"/><path class="08de7b60-1bcb-4560-a953-3658c14b45b5" d="M100.2,89.5a1.68,1.68,0,1,0,1.68-1.77A1.73,1.73,0,0,0,100.2,89.5Z"/><path class="08de7b60-1bcb-4560-a953-3658c14b45b5" d="M177.43,89.5a1.68,1.68,0,1,0,1.68-1.77A1.73,1.73,0,0,0,177.43,89.5Z"/><path class="08de7b60-1bcb-4560-a953-3658c14b45b5" d="M409.13,98.34a1.68,1.68,0,1,0,1.68-1.77A1.73,1.73,0,0,0,409.13,98.34Z"/><path class="08de7b60-1bcb-4560-a953-3658c14b45b5" d="M486.36,112.35a1.68,1.68,0,1,0,1.68-1.77A1.73,1.73,0,0,0,486.36,112.35Z"/><path class="04bc3979-4478-4502-8ab4-ea2402f408e9" d="M486.36,99.08A1.68,1.68,0,1,0,488,97.31,1.73,1.73,0,0,0,486.36,99.08Z"/><path class="08de7b60-1bcb-4560-a953-3658c14b45b5" d="M486.36,121.19a1.68,1.68,0,1,0,1.68-1.77A1.73,1.73,0,0,0,486.36,121.19Z"/><path class="08de7b60-1bcb-4560-a953-3658c14b45b5" d="M486.36,124.88a1.68,1.68,0,1,0,1.68-1.77A1.73,1.73,0,0,0,486.36,124.88Z"/><path class="08de7b60-1bcb-4560-a953-3658c14b45b5" d="M486.36,99.08A1.68,1.68,0,1,0,488,97.31,1.73,1.73,0,0,0,486.36,99.08Z"/><path class="08de7b60-1bcb-4560-a953-3658c14b45b5" d="M486.36,94.66A1.68,1.68,0,1,0,488,92.89,1.73,1.73,0,0,0,486.36,94.66Z"/><path class="08de7b60-1bcb-4560-a953-3658c14b45b5" d="M563.59,111.61a1.68,1.68,0,1,0,1.68-1.77A1.73,1.73,0,0,0,563.59,111.61Z"/><path class="08de7b60-1bcb-4560-a953-3658c14b45b5" d="M563.59,91a1.68,1.68,0,1,0,1.68-1.77A1.73,1.73,0,0,0,563.59,91Z"/><path class="08de7b60-1bcb-4560-a953-3658c14b45b5" d="M563.59,96.87a1.68,1.68,0,1,0,1.68-1.77A1.73,1.73,0,0,0,563.59,96.87Z"/><path class="08de7b60-1bcb-4560-a953-3658c14b45b5" d="M563.59,113.08a1.68,1.68,0,1,0,1.68-1.77A1.73,1.73,0,0,0,563.59,113.08Z"/><path class="e510f06f-d997-487d-b7cd-1d1ae8455919" d="M23,103.5a1.68,1.68,0,1,0,1.68-1.77A1.73,1.73,0,0,0,23,103.5Z"/><path class="e510f06f-d997-487d-b7cd-1d1ae8455919" d="M23,116a1.68,1.68,0,1,0,1.68-1.77A1.73,1.73,0,0,0,23,116Z"/><path class="e510f06f-d997-487d-b7cd-1d1ae8455919" d="M100.2,128.56a1.68,1.68,0,1,0,1.68-1.77A1.73,1.73,0,0,0,100.2,128.56Z"/><path class="e510f06f-d997-487d-b7cd-1d1ae8455919" d="M177.43,142.56a1.68,1.68,0,1,0,1.68-1.77A1.73,1.73,0,0,0,177.43,142.56Z"/><path class="e510f06f-d997-487d-b7cd-1d1ae8455919" d="M409.13,141.83a1.68,1.68,0,1,0,1.68-1.77A1.73,1.73,0,0,0,409.13,141.83Z"/><path class="e510f06f-d997-487d-b7cd-1d1ae8455919" d="M486.36,123.4a1.68,1.68,0,1,0,1.68-1.77A1.73,1.73,0,0,0,486.36,123.4Z"/><path class="e510f06f-d997-487d-b7cd-1d1ae8455919" d="M486.36,135.93a1.68,1.68,0,1,0,1.68-1.77A1.73,1.73,0,0,0,486.36,135.93Z"/><path class="b2ab33c2-188e-4e38-b257-585a2430ceb6" d="M486.36,116a1.68,1.68,0,1,0,1.68-1.77A1.73,1.73,0,0,0,486.36,116Z"/><path class="e510f06f-d997-487d-b7cd-1d1ae8455919" d="M486.36,116.77A1.68,1.68,0,1,0,488,115,1.73,1.73,0,0,0,486.36,116.77Z"/><path class="e510f06f-d997-487d-b7cd-1d1ae8455919" d="M486.36,99.82A1.68,1.68,0,1,0,488,98,1.73,1.73,0,0,0,486.36,99.82Z"/><path class="e510f06f-d997-487d-b7cd-1d1ae8455919" d="M486.36,115.29a1.68,1.68,0,1,0,1.68-1.77A1.73,1.73,0,0,0,486.36,115.29Z"/><path class="e510f06f-d997-487d-b7cd-1d1ae8455919" d="M563.59,125.61a1.68,1.68,0,1,0,1.68-1.77A1.73,1.73,0,0,0,563.59,125.61Z"/><path class="e510f06f-d997-487d-b7cd-1d1ae8455919" d="M563.59,125.61a1.68,1.68,0,1,0,1.68-1.77A1.73,1.73,0,0,0,563.59,125.61Z"/><path class="e510f06f-d997-487d-b7cd-1d1ae8455919" d="M563.59,140.35a1.68,1.68,0,1,0,1.68-1.77A1.73,1.73,0,0,0,563.59,140.35Z"/><path class="e510f06f-d997-487d-b7cd-1d1ae8455919" d="M563.59,110.87a1.68,1.68,0,1,0,1.68-1.77A1.73,1.73,0,0,0,563.59,110.87Z"/><path class="c77bd8d8-f5f5-477e-9acb-0c53388a6499" d="M23,393.16a1.68,1.68,0,1,0,1.68-1.77A1.73,1.73,0,0,0,23,393.16Z"/><path class="c77bd8d8-f5f5-477e-9acb-0c53388a6499" d="M23,388a1.68,1.68,0,1,0,1.68-1.77A1.73,1.73,0,0,0,23,388Z"/><path class="c77bd8d8-f5f5-477e-9acb-0c53388a6499" d="M100.2,393.16a1.68,1.68,0,1,0,1.68-1.77A1.73,1.73,0,0,0,100.2,393.16Z"/><path class="c77bd8d8-f5f5-477e-9acb-0c53388a6499" d="M177.43,387.26a1.68,1.68,0,1,0,1.68-1.77A1.73,1.73,0,0,0,177.43,387.26Z"/><path class="c77bd8d8-f5f5-477e-9acb-0c53388a6499" d="M409.13,380.63a1.68,1.68,0,1,0,1.68-1.77A1.73,1.73,0,0,0,409.13,380.63Z"/><path class="c77bd8d8-f5f5-477e-9acb-0c53388a6499" d="M486.36,390.95a1.68,1.68,0,1,0,1.68-1.77A1.73,1.73,0,0,0,486.36,390.95Z"/><path class="c77bd8d8-f5f5-477e-9acb-0c53388a6499" d="M486.36,381.37A1.68,1.68,0,1,0,488,379.6,1.73,1.73,0,0,0,486.36,381.37Z"/><path class="c77bd8d8-f5f5-477e-9acb-0c53388a6499" d="M486.36,391.69a1.68,1.68,0,1,0,1.68-1.77A1.73,1.73,0,0,0,486.36,391.69Z"/><path class="c77bd8d8-f5f5-477e-9acb-0c53388a6499" d="M486.36,379.16a1.68,1.68,0,1,0,1.68-1.77A1.73,1.73,0,0,0,486.36,379.16Z"/><path class="c77bd8d8-f5f5-477e-9acb-0c53388a6499" d="M486.36,407.16A1.68,1.68,0,1,0,488,405.4,1.73,1.73,0,0,0,486.36,407.16Z"/><path class="c77bd8d8-f5f5-477e-9acb-0c53388a6499" d="M486.36,403.48a1.68,1.68,0,1,0,1.68-1.77A1.73,1.73,0,0,0,486.36,403.48Z"/><path class="c77bd8d8-f5f5-477e-9acb-0c53388a6499" d="M563.59,382.1a1.68,1.68,0,1,0,1.68-1.77A1.73,1.73,0,0,0,563.59,382.1Z"/><path class="c77bd8d8-f5f5-477e-9acb-0c53388a6499" d="M563.59,394.63a1.68,1.68,0,1,0,1.68-1.77A1.73,1.73,0,0,0,563.59,394.63Z"/><path class="c77bd8d8-f5f5-477e-9acb-0c53388a6499" d="M563.59,404.22a1.68,1.68,0,1,0,1.68-1.77A1.73,1.73,0,0,0,563.59,404.22Z"/><path class="c77bd8d8-f5f5-477e-9acb-0c53388a6499" d="M563.59,392.42a1.68,1.68,0,1,0,1.68-1.77A1.73,1.73,0,0,0,563.59,392.42Z"/></g><text class="b4690240-5c0b-4a3c-92f8-5149dacad192" transform="translate(29.5 49.02) scale(0.99 1)">Bloque Independentista</text><text class="a6756c6a-e871-4a9f-ab89-6284a1e23b9e" transform="translate(433.5 50.02) scale(0.99 1)">CeC-<tspan class="be22843a-4060-4bca-869a-39768bd3876d" x="37.34" y="0">P</tspan></text><text class="a33dc370-8751-4973-9fdd-fd9582f739c4" transform="translate(224.5 49.02) scale(0.99 1)">Bloque Constitucionalista</text><path class="6e30decd-a63c-4a8a-b499-9d33c1559d08" d="M30.63,114.25l75.68-25H182l227,8.81,75.68,10.16,75.68-5.38"/><path class="87924d1f-8d91-428c-a24a-ea18fef87808" d="M30.63,109.47l75.68,18.72,75.68,14,227-.73,75.68-23.87,75.68,7.71"/><path class="1c3db50a-0c13-42a3-b1b6-1ff75baff00f" d="M30.63,389.25l75.68,2.57L182,385.94l227-6.61L484.69,391l75.68,1"/></svg>