<svg id="Capa_1" data-name="Capa 1" xmlns="http://www.w3.org/2000/svg" viewBox="0 0 517 572.02"><defs><style>.cls-1,.cls-7{fill:#fff;}.cls-2,.cls-4{font-size:16px;}.cls-2,.cls-4,.cls-9{fill:#757575;}.cls-13,.cls-2,.cls-7{font-family:ArialMT, Arial;}.cls-3{letter-spacing:-0.09em;}.cls-15,.cls-4{font-family:Arial-BoldMT, Arial;font-weight:700;}.cls-5{letter-spacing:-0.06em;}.cls-6{fill:#a3d0d1;}.cls-13,.cls-7{font-size:14px;}.cls-8{letter-spacing:-0.07em;}.cls-9{font-size:13px;font-family:OpenSans, Open Sans;}.cls-10{fill:#d8d8d8;}.cls-11{fill:#61baba;}.cls-12{fill:#419694;}.cls-13{fill:#fdffff;}.cls-14{fill:none;stroke:#757575;stroke-miterlimit:10;stroke-width:0.75px;}.cls-15{font-size:22px;fill:#323232;}.cls-16{fill:#002f64;}.cls-17{fill:#194443;}</style></defs><title>2017.09_Drones</title><rect class="cls-1" x="115.5" y="2.62" width="141" height="46.95"/><path class="cls-1" d="M236,13V58.95H96V13H236m1-1H95V59.95H237V12Z" transform="translate(20 -9.88)"/><text class="cls-2" transform="translate(22.41 93.58)">2001</text><text class="cls-2" transform="translate(146.1 67.9)">Somalia</text><text class="cls-2" transform="translate(224.82 67.58)">Pakistán</text><text class="cls-2" transform="translate(75.39 68.58)"><tspan class="cls-3">Y</tspan><tspan x="9.2" y="0">emen</tspan></text><text class="cls-4" transform="translate(391 84.58)">George <tspan x="0" y="15">Bush</tspan></text><text class="cls-4" transform="translate(391 306.58)">Barack <tspan x="0" y="15">Obama</tspan></text><text class="cls-4" transform="translate(390 529.58)">Donald <tspan class="cls-5" x="0" y="15">T</tspan><tspan x="8.89" y="15">rump</tspan></text><text class="cls-2" transform="translate(296.2 67.58)">Afganistán</text><rect class="cls-6" x="64.5" y="209.38" width="76" height="27.97"/><path class="cls-1" d="M120,219.75v27H45v-27h75m1-1H44v29h77v-29Z" transform="translate(20 -9.88)"/><rect class="cls-6" x="64.5" y="237.69" width="76" height="27.97"/><path class="cls-1" d="M120,248.07v27H45v-27h75m1-1H44v29h77v-29Z" transform="translate(20 -9.88)"/><rect class="cls-6" x="64.5" y="264.84" width="76" height="27.97"/><path class="cls-1" d="M120,275.22v27H45v-27h75m1-1H44v29h77v-29Z" transform="translate(20 -9.88)"/><rect class="cls-6" x="64.5" y="72.62" width="76" height="27.97"/><path class="cls-1" d="M120,83v27H45V83h75m1-1H44v29h77V82Z" transform="translate(20 -9.88)"/><rect class="cls-6" x="64.5" y="99.94" width="76" height="27.97"/><path class="cls-1" d="M120,110.32v27H45v-27h75m1-1H44v29h77v-29Z" transform="translate(20 -9.88)"/><rect class="cls-6" x="64.5" y="154.09" width="76" height="27.97"/><path class="cls-1" d="M120,164.46v27H45v-27h75m1-1H44v29h77v-29Z" transform="translate(20 -9.88)"/><rect class="cls-6" x="64.5" y="181.4" width="76" height="27.97"/><path class="cls-1" d="M120,191.78v27H45v-27h75m1-1H44v29h77v-29Z" transform="translate(20 -9.88)"/><rect class="cls-6" x="64.5" y="292.38" width="76" height="27.97"/><path class="cls-1" d="M120,302.76v27H45v-27h75m1-1H44v29h77v-29Z" transform="translate(20 -9.88)"/><rect class="cls-6" x="64.5" y="320.35" width="76" height="27.97"/><path class="cls-1" d="M120,330.73v27H45v-27h75m1-1H44v29h77v-29Z" transform="translate(20 -9.88)"/><rect class="cls-6" x="64.5" y="347.79" width="76" height="27.97"/><path class="cls-1" d="M120,358.17v27H45v-27h75m1-1H44v29h77v-29Z" transform="translate(20 -9.88)"/><text class="cls-7" transform="translate(99.42 92.15)">0</text><text class="cls-7" transform="translate(100.42 119.15)">1</text><text class="cls-7" transform="translate(100.42 173.15)">0</text><text class="cls-7" transform="translate(100 201.15)">0</text><text class="cls-7" transform="translate(100.43 228.05)">0</text><text class="cls-7" transform="translate(100.84 255.15)">0</text><text class="cls-7" transform="translate(99.42 282.15)">0</text><text class="cls-7" transform="translate(99 309.15)">1</text><text class="cls-7" transform="translate(100 338.15)">2</text><text class="cls-7" transform="translate(94.42 367.15)">13</text><rect class="cls-6" x="64.5" y="376.69" width="76" height="27.97"/><path class="cls-1" d="M120,387.07v27H45v-27h75m1-1H44v29h77v-29Z" transform="translate(20 -9.88)"/><rect class="cls-6" x="64.5" y="404.84" width="76" height="27.97"/><path class="cls-1" d="M120,415.22v27H45v-27h75m1-1H44v29h77v-29Z" transform="translate(20 -9.88)"/><rect class="cls-6" x="64.5" y="431.38" width="76" height="27.97"/><path class="cls-1" d="M120,441.76v27H45v-27h75m1-1H44v29h77v-29Z" transform="translate(20 -9.88)"/><rect class="cls-6" x="64.5" y="459.35" width="76" height="27.97"/><path class="cls-1" d="M120,469.73v27H45v-27h75m1-1H44v29h77v-29Z" transform="translate(20 -9.88)"/><rect class="cls-6" x="64.5" y="486.79" width="76" height="27.97"/><path class="cls-1" d="M120,497.17v27H45v-27h75m1-1H44v29h77v-29Z" transform="translate(20 -9.88)"/><text class="cls-7" transform="translate(94.84 394.15)">41</text><text class="cls-7" transform="translate(95.42 421.15)">22</text><text class="cls-7" transform="translate(96 449.15)">17</text><text class="cls-7" transform="translate(94 478.15)">21</text><text class="cls-7" transform="translate(96.42 506.15)">37</text><text class="cls-2" transform="translate(22.74 121.58)">2002</text><text class="cls-2" transform="translate(22.37 174.58)">2004</text><text class="cls-2" transform="translate(21.74 201.58)">2005</text><text class="cls-2" transform="translate(21.02 229.45)">2006</text><text class="cls-2" transform="translate(21.16 283.58)">2008</text><text class="cls-2" transform="translate(21.16 256.58)">2007</text><text class="cls-2" transform="translate(21.94 312.58)">2009</text><text class="cls-2" transform="translate(22.47 339.58)">2010</text><text class="cls-2" transform="translate(21.87 368.58)">20<tspan class="cls-8" x="17.8" y="0">1</tspan><tspan x="25.51" y="0">1</tspan></text><text class="cls-2" transform="translate(22.68 394.58)">2012</text><text class="cls-2" transform="translate(22.68 422.58)">2013</text><text class="cls-2" transform="translate(22.68 448.58)">2014</text><text class="cls-2" transform="translate(22.04 478.58)">2015</text><text class="cls-2" transform="translate(22.04 505.58)">2016</text><text class="cls-9" transform="translate(22 568.5)">Fuente: The Bureau of Investigative Journalism</text><rect class="cls-6" x="64.5" y="127.09" width="76" height="27.97"/><path class="cls-1" d="M120,137.46v27H45v-27h75m1-1H44v29h77v-29Z" transform="translate(20 -9.88)"/><text class="cls-7" transform="translate(100 147.15)">0</text><rect class="cls-1" x="142.5" y="210.38" width="76" height="27.97"/><path class="cls-1" d="M198,220.75v27H123v-27h75m1-1H122v29h77v-29Z" transform="translate(20 -9.88)"/><rect class="cls-1" x="142.5" y="237.69" width="76" height="27.97"/><path class="cls-1" d="M198,248.07v27H123v-27h75m1-1H122v29h77v-29Z" transform="translate(20 -9.88)"/><rect class="cls-1" x="142.5" y="265.84" width="76" height="27.97"/><path class="cls-1" d="M198,276.22v27H123v-27h75m1-1H122v29h77v-29Z" transform="translate(20 -9.88)"/><rect class="cls-10" x="142.5" y="72.62" width="76" height="27.97"/><path class="cls-1" d="M198,83v27H123V83h75m1-1H122v29h77V82Z" transform="translate(20 -9.88)"/><rect class="cls-10" x="142.5" y="99.94" width="76" height="27.97"/><path class="cls-1" d="M198,110.32v27H123v-27h75m1-1H122v29h77v-29Z" transform="translate(20 -9.88)"/><rect class="cls-10" x="142.5" y="154.09" width="76" height="27.97"/><path class="cls-1" d="M198,164.46v27H123v-27h75m1-1H122v29h77v-29Z" transform="translate(20 -9.88)"/><rect class="cls-10" x="142.5" y="181.4" width="76" height="27.97"/><path class="cls-1" d="M198,191.78v27H123v-27h75m1-1H122v29h77v-29Z" transform="translate(20 -9.88)"/><rect class="cls-10" x="142.5" y="209.55" width="76" height="27.97"/><path class="cls-1" d="M198,219.93v27H123v-27h75m1-1H122v29h77v-29Z" transform="translate(20 -9.88)"/><rect class="cls-6" x="142.5" y="236.87" width="76" height="27.97"/><path class="cls-1" d="M198,247.25v27H123v-27h75m1-1H122v29h77v-29Z" transform="translate(20 -9.88)"/><rect class="cls-6" x="142.5" y="265.01" width="76" height="27.97"/><path class="cls-1" d="M198,275.39v27H123v-27h75m1-1H122v29h77v-29Z" transform="translate(20 -9.88)"/><rect class="cls-6" x="142.5" y="292.38" width="76" height="27.97"/><path class="cls-1" d="M198,302.76v27H123v-27h75m1-1H122v29h77v-29Z" transform="translate(20 -9.88)"/><rect class="cls-6" x="142.5" y="320.35" width="76" height="27.97"/><path class="cls-1" d="M198,330.73v27H123v-27h75m1-1H122v29h77v-29Z" transform="translate(20 -9.88)"/><rect class="cls-6" x="142.5" y="347.79" width="76" height="27.97"/><path class="cls-1" d="M198,358.17v27H123v-27h75m1-1H122v29h77v-29Z" transform="translate(20 -9.88)"/><text class="cls-7" transform="translate(172 255.15)">3</text><text class="cls-7" transform="translate(172 281.15)">0</text><text class="cls-7" transform="translate(173 309.15)">1</text><text class="cls-7" transform="translate(173 338.15)">0</text><text class="cls-7" transform="translate(173 367.15)">1</text><rect class="cls-1" x="142.5" y="376.69" width="76" height="27.97"/><path class="cls-1" d="M198,387.07v27H123v-27h75m1-1H122v29h77v-29Z" transform="translate(20 -9.88)"/><rect class="cls-1" x="142.5" y="404.84" width="76" height="27.97"/><path class="cls-1" d="M198,415.22v27H123v-27h75m1-1H122v29h77v-29Z" transform="translate(20 -9.88)"/><rect class="cls-6" x="142.5" y="376.87" width="76" height="27.97"/><path class="cls-1" d="M198,387.25v27H123v-27h75m1-1H122v29h77v-29Z" transform="translate(20 -9.88)"/><rect class="cls-6" x="142.5" y="405.01" width="76" height="27.97"/><path class="cls-1" d="M198,415.39v27H123v-27h75m1-1H122v29h77v-29Z" transform="translate(20 -9.88)"/><rect class="cls-6" x="142.5" y="431.38" width="76" height="27.97"/><path class="cls-1" d="M198,441.76v27H123v-27h75m1-1H122v29h77v-29Z" transform="translate(20 -9.88)"/><rect class="cls-6" x="142.5" y="459.35" width="76" height="27.97"/><path class="cls-1" d="M198,469.73v27H123v-27h75m1-1H122v29h77v-29Z" transform="translate(20 -9.88)"/><rect class="cls-6" x="142.5" y="486.79" width="76" height="27.97"/><path class="cls-1" d="M198,497.17v27H123v-27h75m1-1H122v29h77v-29Z" transform="translate(20 -9.88)"/><text class="cls-7" transform="translate(172 394.15)">2</text><text class="cls-7" transform="translate(172 421.15)">1</text><text class="cls-7" transform="translate(173 449.15)">3</text><text class="cls-7" transform="translate(170 478.15)"><tspan class="cls-8">1</tspan><tspan x="6.75" y="0">1</tspan></text><text class="cls-7" transform="translate(170 506.15)">14</text><rect class="cls-10" x="142.5" y="127.09" width="76" height="27.97"/><path class="cls-1" d="M198,137.46v27H123v-27h75m1-1H122v29h77v-29Z" transform="translate(20 -9.88)"/><rect class="cls-1" x="220.5" y="210.38" width="76" height="27.97"/><path class="cls-1" d="M276,220.75v27H201v-27h75m1-1H200v29h77v-29Z" transform="translate(20 -9.88)"/><rect class="cls-1" x="220.5" y="237.69" width="76" height="27.97"/><path class="cls-1" d="M276,248.07v27H201v-27h75m1-1H200v29h77v-29Z" transform="translate(20 -9.88)"/><rect class="cls-1" x="220.5" y="265.84" width="76" height="27.97"/><path class="cls-1" d="M276,276.22v27H201v-27h75m1-1H200v29h77v-29Z" transform="translate(20 -9.88)"/><rect class="cls-6" x="220.5" y="154.09" width="76" height="27.97"/><path class="cls-1" d="M276,164.46v27H201v-27h75m1-1H200v29h77v-29Z" transform="translate(20 -9.88)"/><rect class="cls-10" x="220.5" y="126.58" width="76" height="27.97"/><path class="cls-1" d="M276,137v27H201V137h75m1-1H200v29h77V136Z" transform="translate(20 -9.88)"/><rect class="cls-10" x="220.5" y="98.58" width="76" height="27.97"/><path class="cls-1" d="M276,109v27H201V109h75m1-1H200v29h77V108Z" transform="translate(20 -9.88)"/><rect class="cls-10" x="220.5" y="72.61" width="76" height="27.97"/><path class="cls-1" d="M276,83v27H201V83h75m1-1H200v29h77V82Z" transform="translate(20 -9.88)"/><rect class="cls-6" x="220.5" y="181.4" width="76" height="27.97"/><path class="cls-1" d="M276,191.78v27H201v-27h75m1-1H200v29h77v-29Z" transform="translate(20 -9.88)"/><rect class="cls-6" x="220.5" y="209.55" width="76" height="27.97"/><path class="cls-1" d="M276,219.93v27H201v-27h75m1-1H200v29h77v-29Z" transform="translate(20 -9.88)"/><rect class="cls-6" x="220.5" y="236.87" width="76" height="27.97"/><path class="cls-1" d="M276,247.25v27H201v-27h75m1-1H200v29h77v-29Z" transform="translate(20 -9.88)"/><rect class="cls-6" x="220.5" y="264.01" width="76" height="27.97"/><path class="cls-1" d="M276,274.39v27H201v-27h75m1-1H200v29h77v-29Z" transform="translate(20 -9.88)"/><rect class="cls-6" x="220.5" y="292.38" width="76" height="27.97"/><path class="cls-1" d="M276,302.76v27H201v-27h75m1-1H200v29h77v-29Z" transform="translate(20 -9.88)"/><rect class="cls-11" x="220.5" y="320.35" width="76" height="27.97"/><path class="cls-1" d="M276,330.73v27H201v-27h75m1-1H200v29h77v-29Z" transform="translate(20 -9.88)"/><rect class="cls-6" x="220.5" y="347.79" width="76" height="27.97"/><path class="cls-1" d="M276,358.17v27H201v-27h75m1-1H200v29h77v-29Z" transform="translate(20 -9.88)"/><text class="cls-7" transform="translate(254 173.15)">1</text><text class="cls-7" transform="translate(254 201.15)">3</text><text class="cls-7" transform="translate(254.02 228.05)">2</text><text class="cls-7" transform="translate(253 255.15)">5</text><text class="cls-7" transform="translate(250 281.15)">38</text><text class="cls-7" transform="translate(251 309.15)">54</text><text class="cls-7" transform="translate(245 339.15)">128</text><text class="cls-7" transform="translate(250 367.15)">75</text><rect class="cls-1" x="220.5" y="376.69" width="76" height="27.97"/><path class="cls-1" d="M276,387.07v27H201v-27h75m1-1H200v29h77v-29Z" transform="translate(20 -9.88)"/><rect class="cls-1" x="220.5" y="404.84" width="76" height="27.97"/><path class="cls-1" d="M276,415.22v27H201v-27h75m1-1H200v29h77v-29Z" transform="translate(20 -9.88)"/><rect class="cls-6" x="220.5" y="376.87" width="76" height="27.97"/><path class="cls-1" d="M276,387.25v27H201v-27h75m1-1H200v29h77v-29Z" transform="translate(20 -9.88)"/><rect class="cls-6" x="220.5" y="405.01" width="76" height="27.97"/><path class="cls-1" d="M276,415.39v27H201v-27h75m1-1H200v29h77v-29Z" transform="translate(20 -9.88)"/><rect class="cls-6" x="220.5" y="431.38" width="76" height="27.97"/><path class="cls-1" d="M276,441.76v27H201v-27h75m1-1H200v29h77v-29Z" transform="translate(20 -9.88)"/><rect class="cls-10" x="298.5" y="210.38" width="76" height="27.97"/><path class="cls-1" d="M354,220.75v27H279v-27h75m1-1H278v29h77v-29Z" transform="translate(20 -9.88)"/><rect class="cls-10" x="298.5" y="237.69" width="76" height="27.97"/><path class="cls-1" d="M354,248.07v27H279v-27h75m1-1H278v29h77v-29Z" transform="translate(20 -9.88)"/><rect class="cls-10" x="298.5" y="265.84" width="76" height="27.97"/><path class="cls-1" d="M354,276.22v27H279v-27h75m1-1H278v29h77v-29Z" transform="translate(20 -9.88)"/><rect class="cls-10" x="298.5" y="154.09" width="76" height="27.97"/><path class="cls-1" d="M354,164.46v27H279v-27h75m1-1H278v29h77v-29Z" transform="translate(20 -9.88)"/><rect class="cls-10" x="298.5" y="126.58" width="76" height="27.97"/><path class="cls-1" d="M354,137v27H279V137h75m1-1H278v29h77V136Z" transform="translate(20 -9.88)"/><rect class="cls-10" x="298.5" y="98.58" width="76" height="27.97"/><path class="cls-1" d="M354,109v27H279V109h75m1-1H278v29h77V108Z" transform="translate(20 -9.88)"/><rect class="cls-10" x="298.5" y="72.61" width="76" height="27.97"/><path class="cls-1" d="M354,83v27H279V83h75m1-1H278v29h77V82Z" transform="translate(20 -9.88)"/><rect class="cls-10" x="298.5" y="181.4" width="76" height="27.97"/><path class="cls-1" d="M354,191.78v27H279v-27h75m1-1H278v29h77v-29Z" transform="translate(20 -9.88)"/><rect class="cls-10" x="298.5" y="209.55" width="76" height="27.97"/><path class="cls-1" d="M354,219.93v27H279v-27h75m1-1H278v29h77v-29Z" transform="translate(20 -9.88)"/><rect class="cls-10" x="298.5" y="236.87" width="76" height="27.97"/><path class="cls-1" d="M354,247.25v27H279v-27h75m1-1H278v29h77v-29Z" transform="translate(20 -9.88)"/><rect class="cls-10" x="298.5" y="264.01" width="76" height="27.97"/><path class="cls-1" d="M354,274.39v27H279v-27h75m1-1H278v29h77v-29Z" transform="translate(20 -9.88)"/><rect class="cls-10" x="298.5" y="292.38" width="76" height="27.97"/><path class="cls-1" d="M354,302.76v27H279v-27h75m1-1H278v29h77v-29Z" transform="translate(20 -9.88)"/><rect class="cls-10" x="298.5" y="320.35" width="76" height="27.97"/><path class="cls-1" d="M354,330.73v27H279v-27h75m1-1H278v29h77v-29Z" transform="translate(20 -9.88)"/><rect class="cls-10" x="298.5" y="347.79" width="76" height="27.97"/><path class="cls-1" d="M354,358.17v27H279v-27h75m1-1H278v29h77v-29Z" transform="translate(20 -9.88)"/><rect class="cls-10" x="298.5" y="376.69" width="76" height="27.97"/><path class="cls-1" d="M354,387.07v27H279v-27h75m1-1H278v29h77v-29Z" transform="translate(20 -9.88)"/><rect class="cls-10" x="298.5" y="404.84" width="76" height="27.97"/><path class="cls-1" d="M354,415.22v27H279v-27h75m1-1H278v29h77v-29Z" transform="translate(20 -9.88)"/><rect class="cls-10" x="298.5" y="376.87" width="76" height="27.97"/><path class="cls-1" d="M354,387.25v27H279v-27h75m1-1H278v29h77v-29Z" transform="translate(20 -9.88)"/><rect class="cls-10" x="298.5" y="405.01" width="76" height="27.97"/><path class="cls-1" d="M354,415.39v27H279v-27h75m1-1H278v29h77v-29Z" transform="translate(20 -9.88)"/><rect class="cls-10" x="298.5" y="431.38" width="76" height="27.97"/><path class="cls-1" d="M354,441.76v27H279v-27h75m1-1H278v29h77v-29Z" transform="translate(20 -9.88)"/><rect class="cls-6" x="220.5" y="459.35" width="76" height="27.97"/><path class="cls-1" d="M276,469.73v27H201v-27h75m1-1H200v29h77v-29Z" transform="translate(20 -9.88)"/><rect class="cls-6" x="220.5" y="486.79" width="76" height="27.97"/><path class="cls-1" d="M276,497.17v27H201v-27h75m1-1H200v29h77v-29Z" transform="translate(20 -9.88)"/><text class="cls-7" transform="translate(249 394.15)">50</text><text class="cls-7" transform="translate(249 421.15)">27</text><text class="cls-7" transform="translate(250 449.15)">25</text><text class="cls-7" transform="translate(250 478.15)">13</text><text class="cls-7" transform="translate(253 506.15)">3</text><rect class="cls-11" x="298.5" y="459.35" width="76" height="27.97"/><path class="cls-1" d="M354,469.73v27H279v-27h75m1-1H278v29h77v-29Z" transform="translate(20 -9.88)"/><rect class="cls-12" x="298.5" y="486.79" width="76" height="27.97"/><path class="cls-1" d="M354,497.17v27H279v-27h75m1-1H278v29h77v-29Z" transform="translate(20 -9.88)"/><text class="cls-7" transform="translate(326 478.15)">235</text><text class="cls-13" transform="translate(321 506.15)">1.072</text><text class="cls-2" transform="translate(22.37 146.58)">2003</text><line class="cls-14" x1="385.75" y1="288.12" x2="385.75" y2="73.62"/><line class="cls-14" x1="380.75" y1="288.12" x2="380.75" y2="73.62"/><line class="cls-14" x1="385.75" y1="511.12" x2="385.75" y2="295.62"/><line class="cls-14" x1="380.75" y1="511.12" x2="380.75" y2="295.62"/><line class="cls-14" x1="384.75" y1="540.12" x2="384.75" y2="518.62"/><line class="cls-14" x1="380.75" y1="540.12" x2="380.75" y2="518.62"/><text class="cls-15" transform="translate(46.63 18.87)">Ataques con drones perpetrados <tspan x="68.47" y="21">por Estados Unidos</tspan></text><polygon class="cls-16" points="340 556.18 441 556.18 441 571.52 340 571.52 340 556.18 340 556.18"/><path class="cls-1" d="M401,569.48h-3.87V570l1,.24v7.15a.85.85,0,0,1-.71.36,1.52,1.52,0,0,1-1.25-.92l-1-1.73a2,2,0,0,0-1.77-1.19v-.12a2.37,2.37,0,0,0,2.45-2.2c0-1.48-1.35-2.06-2.91-2.06h-3.52V570l1.14.24v7.24h0l-1.32.25-3.29-9a4.13,4.13,0,0,1-1.19,1l.12.36-3,7.35-.91.24v.49h2.73v-.49l-.89-.23,1-2.68h2.79l1,2.66-1,.25v.49h6.66v-.49l-1.12-.24v-3.37a1.64,1.64,0,0,1,1.48,1.09l1.32,2.36a2.13,2.13,0,0,0,1.91,1.16,1.89,1.89,0,0,0,1.25-.52h3a4.48,4.48,0,0,0,4.6-4.35,4.36,4.36,0,0,0-4.68-4.35Zm-16.9,4.63,1.18-3.09,1.13,3.09Zm8.62-.65h-.59v-3.24h.74a1.47,1.47,0,0,1,1.52,1.55,1.69,1.69,0,0,1-1.67,1.69Zm8.19,4H399.7v-7.26H401c2,0,3.19,1.37,3.19,3.63s-1.26,3.63-3.22,3.63Z" transform="translate(20 -9.88)"/><path class="cls-1" d="M337.51,577.46l-3.22-8.74a4.13,4.13,0,0,1-1.19,1l.12.36-3,7.35-.64.24-.19.49h2.66v-.49l-.89-.23,1-2.68H335l1,2.66-1,.25v.49h3.57v-.49l-1-.23Zm-5.11-3.36,1.18-3.09,1.13,3.09Z" transform="translate(20 -9.88)"/><polygon class="cls-1" points="349.84 566.1 349.52 565.92 347.64 567.63 346.03 567.63 346.03 560.34 346.99 560.09 346.99 559.6 343.53 559.6 343.53 560.09 344.5 560.34 344.5 567.57 343.53 567.82 343.53 568.31 348.98 568.31 349.84 566.1 349.84 566.1"/><polygon class="cls-1" points="364.96 559.6 364.96 560.09 366.01 560.33 363.73 566.16 361.34 560.32 362.47 560.09 362.47 559.6 358.6 559.6 358.6 560.09 359.71 560.33 363.14 568.61 363.51 568.61 366.94 560.34 366.97 560.34 368.04 560.09 368.04 559.6 364.96 559.6 364.96 559.6"/><path class="cls-1" d="M379.28,569.48V570l1,.24s.08,4.31,0,5.4a2.2,2.2,0,0,1-2.34,2.13,2.16,2.16,0,0,1-2.34-2.24v-5.31l1-.23v-.49h-3.5V570l1,.24v5.35a3.21,3.21,0,0,0,3.46,3,3.15,3.15,0,0,0,3.46-3l.07-5.34,1-.24v-.49Z" transform="translate(20 -9.88)"/><path class="cls-1" d="M417.09,577.45l-3.2-8.72a4.13,4.13,0,0,1-1.19,1l.12.36-3,7.39-.51.21-.69-.22v-7.27l1.07-.24v-.49H406V570l1.05.25v7.25l-1,.24v.49h5.57v-.49l-.9-.23,1-2.68h2.79l1,2.66-1,.25v.49h3.57v-.49l-1-.25ZM412,574.11l1.18-3.09,1.13,3.09Z" transform="translate(20 -9.88)"/><path class="cls-1" d="M360.58,569.48V570l1.06.25.07,5.69-5.45-6.43h-2.33V570l1.05.23.09,0-.08,7.2h0l-1.07.25-3.29-9a4.13,4.13,0,0,1-1.19,1l.12.36-3,7.35-.91.24v.49h2.73v-.49l-.89-.23,1-2.68h2.79l1,2.66-1,.25v.49h5.72v-.49l-1.12-.24-.07-6.3,6.23,7.33h.41l.08-8.28,1.06-.24v-.49Zm-11.85,4.63,1.18-3.09,1.13,3.09Z" transform="translate(20 -9.88)"/><path class="cls-1" d="M369.74,573.74v.49l1,.25v2.8a3.26,3.26,0,0,1-2,.66c-2,0-3.24-1.67-3.24-4s1.24-4.15,3.27-4.15a3.1,3.1,0,0,1,2.91,2.37L372,572v-2.75l-.25-.14-.53.67a5.5,5.5,0,0,0-2.41-.61,4.87,4.87,0,0,0-4.88,4.8,4.43,4.43,0,0,0,4.51,4.64,4.49,4.49,0,0,0,2.81-.93l.77.51h.25v-3.74l.82-.31v-.4Z" transform="translate(20 -9.88)"/><rect class="cls-6" x="64.5" y="514.79" width="76" height="27.97"/><path class="cls-1" d="M120,525.17v27H45v-27h75m1-1H44v29h77v-29Z" transform="translate(20 -9.88)"/><text class="cls-7" transform="translate(96.42 534.15)">93</text><text class="cls-2" transform="translate(22.04 534.58)">2017</text><rect class="cls-6" x="142.5" y="514.79" width="76" height="27.97"/><path class="cls-1" d="M198,525.17v27H123v-27h75m1-1H122v29h77v-29Z" transform="translate(20 -9.88)"/><text class="cls-7" transform="translate(169 534.15)">16</text><rect class="cls-6" x="220.5" y="514.79" width="76" height="27.97"/><path class="cls-1" d="M276,525.17v27H201v-27h75m1-1H200v29h77v-29Z" transform="translate(20 -9.88)"/><text class="cls-7" transform="translate(253 534.15)">5</text><rect class="cls-17" x="298.5" y="514.79" width="76" height="27.97"/><path class="cls-1" d="M354,525.17v27H279v-27h75m1-1H278v29h77v-29Z" transform="translate(20 -9.88)"/><text class="cls-7" transform="translate(323 534.15)">2.358</text></svg>