<svg id="c9949104-76fb-413d-b31f-8974490b077a" data-name="Capa 1" xmlns="http://www.w3.org/2000/svg" viewBox="0 0 534 454"><defs><style>.\31 08e3f60-5ccd-4952-9022-3c6a17bc5112,.\31 7d75c4f-ece3-41e5-adf8-8b2f15c5264b,.\33 6010f95-82e2-4824-bddf-231d81a7fae8,.\34 7b2708e-eb98-4e6f-a8b3-623374fec553,.\36 f9dfcb3-904d-490c-ba6a-f02cbf2a3b13,.\38 dc2a469-47c4-482c-a23f-78ad8442f541,.\39 eeedff1-809b-41c7-88b2-cf597fb1132a,.\39 f8acdad-3583-4faa-b6f1-a645a669064c,.c8cce1c6-d85a-40a3-b2d5-28b8c51d5e1d,.faa928c3-7d5b-42b5-80fd-32a5a1f17a53,.fdd1c489-df9c-4b2b-b6a6-94a12f7ca595{fill:none;}.faa928c3-7d5b-42b5-80fd-32a5a1f17a53{stroke:#757575;}.\36 f9dfcb3-904d-490c-ba6a-f02cbf2a3b13,.c8cce1c6-d85a-40a3-b2d5-28b8c51d5e1d,.faa928c3-7d5b-42b5-80fd-32a5a1f17a53,.fdd1c489-df9c-4b2b-b6a6-94a12f7ca595{stroke-miterlimit:10;}.a2703e2e-047d-4391-8a9f-46ca72cb1262{font-size:16px;}.\32 ad0641c-917f-4627-82cf-b8aae734e529,.\36 11dca00-36a9-4714-9188-752eb980659c,.a2703e2e-047d-4391-8a9f-46ca72cb1262,.dce621e6-437b-46f5-a248-69bd7261a9df{fill:#757575;}.\36 11dca00-36a9-4714-9188-752eb980659c,.\39 2f5312e-688a-486e-a8e5-2db5d7f4f906,.a2703e2e-047d-4391-8a9f-46ca72cb1262,.e927924a-dcb6-4cd4-90cd-9532436e2f5f{font-family:ArialMT, Arial;}.\32 ad0641c-917f-4627-82cf-b8aae734e529,.\34 5b62248-27a5-4766-93e5-1c94025b8741,.\34 dc8a970-e8dd-4e76-938c-c7e816d04495,.\36 11dca00-36a9-4714-9188-752eb980659c,.\39 c4a06a7-27d7-4dcf-8786-727c2d61014b,.b08b4976-85e6-4149-ab49-202ba0d83f79,.c88e993e-f72e-47c6-b2d3-d1f76ef973bd,.ee6286ca-ae4b-45e5-9aa3-e921b32fa830,.f67c6a51-b577-4d4e-a412-ddbaa2fb71ad{font-size:13px;}.b08b4976-85e6-4149-ab49-202ba0d83f79{fill:#efb21b;}.\32 ad0641c-917f-4627-82cf-b8aae734e529,.\34 5933420-2a6c-431c-8aee-bf1c0c50d83b,.\34 5b62248-27a5-4766-93e5-1c94025b8741,.\34 dc8a970-e8dd-4e76-938c-c7e816d04495,.\39 c4a06a7-27d7-4dcf-8786-727c2d61014b,.b08b4976-85e6-4149-ab49-202ba0d83f79,.c88e993e-f72e-47c6-b2d3-d1f76ef973bd,.dce621e6-437b-46f5-a248-69bd7261a9df,.ee6286ca-ae4b-45e5-9aa3-e921b32fa830,.f67c6a51-b577-4d4e-a412-ddbaa2fb71ad{font-family:Arial-BoldMT, Arial;}.\32 ad0641c-917f-4627-82cf-b8aae734e529,.\34 3f9cfa4-216a-4625-a001-b58589203858,.\34 5933420-2a6c-431c-8aee-bf1c0c50d83b,.\34 5b62248-27a5-4766-93e5-1c94025b8741,.\34 dc8a970-e8dd-4e76-938c-c7e816d04495,.\39 c4a06a7-27d7-4dcf-8786-727c2d61014b,.b08b4976-85e6-4149-ab49-202ba0d83f79,.c88e993e-f72e-47c6-b2d3-d1f76ef973bd,.ee6286ca-ae4b-45e5-9aa3-e921b32fa830,.f67c6a51-b577-4d4e-a412-ddbaa2fb71ad{font-weight:700;}.dce621e6-437b-46f5-a248-69bd7261a9df,.e927924a-dcb6-4cd4-90cd-9532436e2f5f{font-size:15px;}.\39 c4a06a7-27d7-4dcf-8786-727c2d61014b{fill:#d57928;}.ee6286ca-ae4b-45e5-9aa3-e921b32fa830{fill:#ffe600;}.\33 68fb736-5169-4109-873d-5b998bdc15c2{letter-spacing:-0.02em;}.\34 dc8a970-e8dd-4e76-938c-c7e816d04495{fill:#991d26;}.f67c6a51-b577-4d4e-a412-ddbaa2fb71ad{fill:#8e244f;}.\34 5b62248-27a5-4766-93e5-1c94025b8741{fill:#59a5a5;}.c8cce1c6-d85a-40a3-b2d5-28b8c51d5e1d{stroke:#d6d6d6;}.c88e993e-f72e-47c6-b2d3-d1f76ef973bd{fill:#3f4d78;}.\34 c092930-8136-4d33-a138-f261403d8766{letter-spacing:-0.07em;}.\34 5933420-2a6c-431c-8aee-bf1c0c50d83b,.e927924a-dcb6-4cd4-90cd-9532436e2f5f{fill:#323232;}.\34 5933420-2a6c-431c-8aee-bf1c0c50d83b{font-size:26px;}.\31 8390a4e-5d3c-4068-8e8b-32211d4ff7e3{fill:#283659;}.\34 8978d72-2bbd-4f75-bd46-f018421f49e5{fill:#fff;}.\36 f9dfcb3-904d-490c-ba6a-f02cbf2a3b13,.fdd1c489-df9c-4b2b-b6a6-94a12f7ca595{stroke:#323232;}.\36 f9dfcb3-904d-490c-ba6a-f02cbf2a3b13{stroke-dasharray:5.04 5.04;}.\39 eeedff1-809b-41c7-88b2-cf597fb1132a{stroke:#ffe600;}.\31 08e3f60-5ccd-4952-9022-3c6a17bc5112,.\31 7d75c4f-ece3-41e5-adf8-8b2f15c5264b,.\33 6010f95-82e2-4824-bddf-231d81a7fae8,.\34 7b2708e-eb98-4e6f-a8b3-623374fec553,.\38 dc2a469-47c4-482c-a23f-78ad8442f541,.\39 eeedff1-809b-41c7-88b2-cf597fb1132a,.\39 f8acdad-3583-4faa-b6f1-a645a669064c{stroke-width:1.5px;}.\38 dc2a469-47c4-482c-a23f-78ad8442f541{stroke:#efb21b;}.\34 7b2708e-eb98-4e6f-a8b3-623374fec553{stroke:#3f4d78;}.\31 08e3f60-5ccd-4952-9022-3c6a17bc5112{stroke:#8e244f;}.\33 6010f95-82e2-4824-bddf-231d81a7fae8{stroke:#991d26;}.\31 7d75c4f-ece3-41e5-adf8-8b2f15c5264b{stroke:#d57928;}.\39 f8acdad-3583-4faa-b6f1-a645a669064c{stroke:#59a5a5;}</style></defs><title>2017.11_Metaencuesta2_evolucion-02</title><line class="faa928c3-7d5b-42b5-80fd-32a5a1f17a53" x1="15" y1="404.5" x2="536" y2="404.5"/><line class="faa928c3-7d5b-42b5-80fd-32a5a1f17a53" x1="148.5" y1="405" x2="148.5" y2="412"/><line class="faa928c3-7d5b-42b5-80fd-32a5a1f17a53" x1="426.5" y1="404" x2="426.5" y2="411"/><line class="faa928c3-7d5b-42b5-80fd-32a5a1f17a53" x1="516.5" y1="404" x2="516.5" y2="411"/><line class="faa928c3-7d5b-42b5-80fd-32a5a1f17a53" x1="44.5" y1="404" x2="44.5" y2="411"/><text class="a2703e2e-047d-4391-8a9f-46ca72cb1262" transform="translate(13.66 399.02) scale(0.99 1)">0</text><text class="a2703e2e-047d-4391-8a9f-46ca72cb1262" transform="translate(13.66 353.02) scale(0.99 1)">5</text><text class="a2703e2e-047d-4391-8a9f-46ca72cb1262" transform="translate(12.5 297.02) scale(0.99 1)">10</text><text class="a2703e2e-047d-4391-8a9f-46ca72cb1262" transform="translate(11.83 195.02) scale(0.99 1)">20</text><text class="a2703e2e-047d-4391-8a9f-46ca72cb1262" transform="translate(11.83 137.02) scale(0.99 1)">25</text><text class="a2703e2e-047d-4391-8a9f-46ca72cb1262" transform="translate(11.83 90.02) scale(0.99 1)">30</text><text class="a2703e2e-047d-4391-8a9f-46ca72cb1262" transform="translate(11.83 245.02) scale(0.99 1)">15</text><text class="611dca00-36a9-4714-9188-752eb980659c" transform="translate(12.5 447.02) scale(0.99 1)">Fuente: Electrograph</text><text class="b08b4976-85e6-4149-ab49-202ba0d83f79" transform="translate(505.5 169.02) scale(0.99 1)">ERC</text><text class="2ad0641c-917f-4627-82cf-b8aae734e529" transform="translate(29.5 426.02) scale(0.99 1)">26 de octubre</text><text class="2ad0641c-917f-4627-82cf-b8aae734e529" transform="translate(131.5 425.02) scale(0.99 1)">1 de noviembre</text><text class="2ad0641c-917f-4627-82cf-b8aae734e529" transform="translate(473.5 425.02) scale(0.99 1)">12 de dic.</text><text class="2ad0641c-917f-4627-82cf-b8aae734e529" transform="translate(373.5 425.02) scale(0.99 1)">1 de diciembre</text><text></text><text class="dce621e6-437b-46f5-a248-69bd7261a9df" transform="translate(288.5 74.02) scale(0.99 1)"><tspan class="43f9cfa4-216a-4625-a001-b58589203858">Mediados de noviembre</tspan><tspan class="92f5312e-688a-486e-a8e5-2db5d7f4f906" x="0" y="18">Se anuncia que Puigdemont </tspan><tspan class="92f5312e-688a-486e-a8e5-2db5d7f4f906" x="0" y="36">liderará la candidatura </tspan><tspan class="92f5312e-688a-486e-a8e5-2db5d7f4f906" x="0" y="54">Junts per Cat</tspan></text><text class="9c4a06a7-27d7-4dcf-8786-727c2d61014b" transform="translate(467.5 171.02) scale(0.99 1)">Cs</text><text class="ee6286ca-ae4b-45e5-9aa3-e921b32fa830" transform="translate(505.5 354.02) scale(0.99 1)">CU<tspan class="368fb736-5169-4109-873d-5b998bdc15c2" x="18.78" y="0">P</tspan></text><text class="4dc8a970-e8dd-4e76-938c-c7e816d04495" transform="translate(506.5 277.02) scale(0.99 1)">PSC</text><text class="f67c6a51-b577-4d4e-a412-ddbaa2fb71ad" transform="translate(494.5 316.02) scale(0.99 1)">CeC-<tspan class="368fb736-5169-4109-873d-5b998bdc15c2" x="30.34" y="0">P</tspan></text><text class="45b62248-27a5-4766-93e5-1c94025b8741" transform="translate(514.5 336.02) scale(0.99 1)">P<tspan class="368fb736-5169-4109-873d-5b998bdc15c2" x="8.67" y="0">P</tspan></text><line class="c8cce1c6-d85a-40a3-b2d5-28b8c51d5e1d" x1="12.85" y1="199.5" x2="528.01" y2="199.5"/><line class="c8cce1c6-d85a-40a3-b2d5-28b8c51d5e1d" x1="12.85" y1="99.5" x2="528.01" y2="99.5"/><line class="c8cce1c6-d85a-40a3-b2d5-28b8c51d5e1d" x1="12.85" y1="299.5" x2="528.01" y2="299.5"/><line class="c8cce1c6-d85a-40a3-b2d5-28b8c51d5e1d" x1="13.84" y1="354.5" x2="529" y2="354.5"/><line class="c8cce1c6-d85a-40a3-b2d5-28b8c51d5e1d" x1="13.84" y1="248.5" x2="529" y2="248.5"/><line class="c8cce1c6-d85a-40a3-b2d5-28b8c51d5e1d" x1="13.84" y1="146.5" x2="529" y2="146.5"/><text class="c88e993e-f72e-47c6-b2d3-d1f76ef973bd" transform="translate(495.5 228.02) scale(0.99 1)">JxC<tspan class="4c092930-8136-4d33-a138-f261403d8766" x="23.85" y="0">A</tspan><tspan x="32.27" y="0">T</tspan></text><text class="e927924a-dcb6-4cd4-90cd-9532436e2f5f" transform="translate(94.13 35.74)">Porcentaje de voto de las encuestas publicadas desde <tspan x="64.21" y="18">el 26 de octubre al 12 de diciembre</tspan></text><text class="45933420-2a6c-431c-8aee-bf1c0c50d83b" transform="translate(61.46 21.62)">Evolución de los sondeos del 21-D</text><polygon class="18390a4e-5d3c-4068-8e8b-32211d4ff7e3" points="431 435.27 527.44 435.27 527.44 449.93 431 449.93 431 435.27 431 435.27"/><path class="48978d72-2bbd-4f75-bd46-f018421f49e5" d="M508.36,438.55h-3.7V439l1,.23v6.81a.81.81,0,0,1-.68.35,1.45,1.45,0,0,1-1.2-.88l-.92-1.65a1.91,1.91,0,0,0-1.69-1.14v-.12a2.26,2.26,0,0,0,2.33-2.1c0-1.42-1.29-2-2.78-2h-3.35V439l1.1.23v6.91h0l-1.26.24L494,437.83a4,4,0,0,1-1.13,1l.12.35-2.87,7-.86.23v.46h2.62v-.46l-.85-.22,1-2.56h2.66l.93,2.54-1,.24v.46H501v-.46l-1-.23V443a1.57,1.57,0,0,1,1.42,1l1.26,2.25a2,2,0,0,0,1.82,1.11,1.8,1.8,0,0,0,1.2-.49h2.85a4.28,4.28,0,0,0,4.39-4.16,4.17,4.17,0,0,0-4.47-4.16ZM492.23,443l1.12-3,1.08,3Zm8.23-.62h-.57v-3.1h.71a1.4,1.4,0,0,1,1.45,1.48,1.61,1.61,0,0,1-1.57,1.62Zm7.82,3.83h-1.18v-6.93h1.22c1.89,0,3,1.31,3,3.46s-1.21,3.46-3.08,3.46Z"/><path class="48978d72-2bbd-4f75-bd46-f018421f49e5" d="M447.71,446.17l-3.07-8.34a3.94,3.94,0,0,1-1.13,1l.12.35-2.85,7-.61.23-.18.46h2.54v-.46l-.85-.22,1-2.56h2.66l.93,2.54-1,.24v.46h3.42v-.46l-.91-.23Zm-4.87-3.2,1.13-3,1.08,3Z"/><polygon class="48978d72-2bbd-4f75-bd46-f018421f49e5" points="440.39 444.75 440.08 444.58 438.29 446.21 436.75 446.21 436.75 439.25 437.68 439.01 437.68 438.54 434.37 438.54 434.37 439.01 435.3 439.25 435.3 446.15 434.37 446.39 434.37 446.86 439.57 446.86 440.39 444.75 440.39 444.75"/><polygon class="48978d72-2bbd-4f75-bd46-f018421f49e5" points="454.83 438.54 454.83 439.01 455.83 439.25 453.66 444.81 451.37 439.24 452.45 439.01 452.45 438.54 448.76 438.54 448.76 439.01 449.82 439.24 453.1 447.14 453.45 447.14 456.72 439.25 456.75 439.25 457.77 439.01 457.77 438.54 454.83 438.54 454.83 438.54"/><path class="48978d72-2bbd-4f75-bd46-f018421f49e5" d="M487.6,438.55V439l1,.24s.07,4.12,0,5.16a2.1,2.1,0,0,1-2.14,2h-.11a2.07,2.07,0,0,1-2.24-2.13v-5.07l1-.22v-.46h-3.34V439l.95.23v5.11a3.07,3.07,0,0,0,3.3,2.91,3,3,0,0,0,3.3-2.91l.06-5.1,1-.24v-.46Z"/><path class="48978d72-2bbd-4f75-bd46-f018421f49e5" d="M523.7,446.15l-3.06-8.32a3.94,3.94,0,0,1-1.13,1l.12.35-2.86,7-.49.2-.66-.21v-6.94l1-.23v-.46h-3.48V439l1,.24v6.92l-1,.23v.46h5.3v-.46l-.85-.23,1-2.56h2.66l.93,2.54-1,.24v.46h3.43v-.46l-.92-.24ZM518.84,443l1.13-3,1.08,3Z"/><path class="48978d72-2bbd-4f75-bd46-f018421f49e5" d="M469.75,438.55V439l1,.24.06,5.44-5.21-6.14H463.4V439l1,.22.08,0-.07,6.88h0l-1,.24-3.14-8.56a4,4,0,0,1-1.1,1l.12.35-2.87,7-.86.23v.46h2.62v-.46l-.85-.22,1-2.56h2.66l.93,2.54-1,.24v.46h5.47v-.46l-1-.24-.12-6,6,7h.39l.08-7.9,1-.23v-.46ZM458.44,443l1.13-3,1.08,3Z"/><path class="48978d72-2bbd-4f75-bd46-f018421f49e5" d="M478.52,442.61v.46l.94.24V446a3.11,3.11,0,0,1-1.88.62c-1.89,0-3.1-1.57-3.1-3.79s1.18-4,3.14-4a3,3,0,0,1,2.78,2.26l.27-.16v-2.62l-.24-.13-.52.64a5.24,5.24,0,0,0-2.3-.59,4.65,4.65,0,0,0-4.66,4.58,4.22,4.22,0,0,0,4,4.43h.3a4.29,4.29,0,0,0,2.68-.89l.73.49h.24V443.3l.79-.3v-.38Z"/><line class="fdd1c489-df9c-4b2b-b6a6-94a12f7ca595" x1="284.5" y1="71" x2="284.5" y2="73.5"/><line class="6f9dfcb3-904d-490c-ba6a-f02cbf2a3b13" x1="284.5" y1="78.54" x2="284.5" y2="398.48"/><line class="fdd1c489-df9c-4b2b-b6a6-94a12f7ca595" x1="284.5" y1="401" x2="284.5" y2="403.5"/><path class="9eeedff1-809b-41c7-88b2-cf597fb1132a" d="M37.14,340.27,331,344.39l10.87,2.06,43.46-5.15v-5.15l54.33,7.21,54.33,10.31,10.87-24.74,10.87,15.46"/><path class="8dc2a469-47c4-482c-a23f-78ad8442f541" d="M37.14,133.1l293.82-1,10.87,24.74,43.46,3.09v30.92l54.33,3.09,54.33-10.31,10.87-8.25,10.87,9.28"/><path class="47b2708e-eb98-4e6f-a8b3-623374fec553" d="M37.14,304.2,331,265h10.87l43.46-33v-1l54.33-24.74,54.33,11.34,10.87-7.21,10.87-24.74"/><path class="108e3f60-5ccd-4952-9022-3c6a17bc5112" d="M37.14,291.83,331,336.15l10.87-17.52L385.28,332V316.57l54.33,1,54.33,11.34H504.8l10.87-8.25"/><path class="36010f95-82e2-4824-bddf-231d81a7fae8" d="M37.14,249.57,331,251.63l10.87,2.06,43.46-4.12V240.3l54.33-30.92,54.33,25.77,10.87,6.18,10.87,18.55"/><path class="17d75c4f-ece3-41e5-adf8-8b2f15c5264b" d="M37.14,203.19,331,144.44l10.87,45.35,43.46,4.12V173.3l54.33,36.07,54.33-42.26,10.87,18.55,10.87,1"/><path class="9f8acdad-3583-4faa-b6f1-a645a669064c" d="M37.14,315.53,331,345.42l10.87-36.07L385.28,330v15.46h54.33L493.93,332l10.87,10.31h10.87"/></svg>