<svg id="Capa_1" data-name="Capa 1" xmlns="http://www.w3.org/2000/svg" viewBox="0 0 917.54 834.57"><defs><style>.cls-1,.cls-13,.cls-14,.cls-2{fill:none;}.cls-1{stroke:#e6e6e6;}.cls-2{stroke:#757575;}.cls-3,.cls-4,.cls-5,.cls-6,.cls-7{isolation:isolate;}.cls-4{font-size:24px;}.cls-4,.cls-7{fill:gray;}.cls-10,.cls-4,.cls-7{font-family:ArialMT, Arial;}.cls-5,.cls-6,.cls-7{font-size:22px;}.cls-5{fill:#15acb1;}.cls-5,.cls-6,.cls-9{font-family:Arial-BoldMT, Arial;font-weight:700;}.cls-6{fill:#a01f51;}.cls-8{letter-spacing:-0.07em;}.cls-9{font-size:39px;}.cls-10,.cls-9{fill:#323232;}.cls-10{font-size:31px;}.cls-11{fill:#283659;}.cls-12{fill:#fff;}.cls-13{stroke:#15acb1;}.cls-13,.cls-14{stroke-width:3px;}.cls-14{stroke:#a01f51;}</style></defs><title>2017.09_EvolucionPensionGenerob</title><line class="cls-1" x1="26.79" y1="559.21" x2="910.73" y2="559.21"/><line class="cls-1" x1="27.69" y1="472.34" x2="911.63" y2="472.34"/><line class="cls-1" x1="29.37" y1="384.25" x2="913.31" y2="384.25"/><line class="cls-1" x1="27.69" y1="647.47" x2="911.63" y2="647.47"/><path class="cls-1" d="M886.25,666.51" transform="translate(17.69 -19.04)"/><path class="cls-1" d="M2.31,666.51" transform="translate(17.69 -19.04)"/><path class="cls-1" d="M887.15,755.76" transform="translate(17.69 -19.04)"/><path class="cls-1" d="M3.21,755.76" transform="translate(17.69 -19.04)"/><line class="cls-2" x1="23.48" y1="731.42" x2="907.42" y2="731.42"/><path class="cls-1" d="M874.55,691.51" transform="translate(17.69 -19.04)"/><path class="cls-1" d="M31.32,691.51" transform="translate(17.69 -19.04)"/><line class="cls-1" x1="27.68" y1="296.17" x2="911.61" y2="296.17"/><line class="cls-1" x1="29.57" y1="210.26" x2="913.13" y2="210.26"/><line class="cls-1" x1="26.03" y1="209.1" x2="909.97" y2="209.1"/><line class="cls-1" x1="27.93" y1="123.19" x2="911.48" y2="123.19"/><g class="cls-3"><text class="cls-4" transform="translate(103.07 762.09)">2010</text></g><g class="cls-3"><text class="cls-4" transform="translate(23.92 724.09)">0</text></g><g class="cls-3"><text class="cls-4" transform="translate(23.19 638.97)">200</text></g><g class="cls-3"><text class="cls-5" transform="translate(814.51 239.25)">Hombres</text></g><g class="cls-3"><text class="cls-6" transform="translate(830.21 431.88)">Mujeres</text></g><g class="cls-3"><text class="cls-4" transform="translate(24.79 553.97)">400</text></g><g class="cls-3"><text class="cls-4" transform="translate(24.95 464.96)">600</text></g><g class="cls-3"><text class="cls-4" transform="translate(23.79 377.15)">800</text></g><g class="cls-3"><text class="cls-4" transform="translate(20.95 287.35)">1.000</text></g><g class="cls-3"><text class="cls-4" transform="translate(20.57 202.6)">1.200</text></g><g class="cls-3"><text class="cls-4" transform="translate(20.95 114.59)">1.400</text></g><g class="cls-3"><text class="cls-7" transform="translate(28.19 827.43)">Fuente: Ministerio de Empleo y Seguridad Social</text></g><g class="cls-3"><text class="cls-4" transform="translate(212.72 762.09)">20<tspan class="cls-8" x="26.7" y="0">1</tspan><tspan x="38.26" y="0">1</tspan></text></g><g class="cls-3"><text class="cls-4" transform="translate(318.37 761.91)">2012</text></g><g class="cls-3"><text class="cls-4" transform="translate(435.22 762.09)">2013</text></g><g class="cls-3"><text class="cls-4" transform="translate(534.38 762.09)">2014</text></g><g class="cls-3"><text class="cls-4" transform="translate(640.15 759.9)">2015</text></g><g class="cls-3"><text class="cls-4" transform="translate(749.4 762.09)">2016</text></g><g class="cls-3"><text class="cls-4" transform="translate(853.63 762.09)">2017</text></g><text class="cls-9" transform="translate(33.28 33.46)">Evolución de la pensión media de jubilación </text><text class="cls-10" transform="translate(32.57 65.73)">Importe mensual en euros desde 2010 hasta julio de 2017</text><polygon class="cls-11" points="724.03 802.64 908.02 802.64 908.02 830.6 724.03 830.6 724.03 802.64 724.03 802.64"/><path class="cls-12" d="M853.94,827.93h-7.05v.88l1.85.44v13a1.54,1.54,0,0,1-1.3.66,2.76,2.76,0,0,1-2.29-1.68l-1.76-3.15a3.65,3.65,0,0,0-3.22-2.17v-.22c2.36-.06,4.45-1.74,4.45-4,0-2.71-2.46-3.76-5.31-3.76h-6.4v.88l2.09.44v13.19h0l-2.4.46-6-16.34a7.53,7.53,0,0,1-2.16,1.85l.23.66-5.47,13.4-1.65.44v.88h5v-.88l-1.63-.42,1.85-4.88h5.07l1.78,4.84-1.91.46v.88h12.14v-.88l-2-.43v-6.14a3,3,0,0,1,2.7,2l2.4,4.29a3.89,3.89,0,0,0,3.48,2.11,3.44,3.44,0,0,0,2.28-.94h5.43a8.16,8.16,0,0,0,8.37-7.93c0-4.62-3.58-7.93-8.52-7.93Zm-30.78,8.43,2.14-5.63,2.06,5.63Zm15.7-1.19h-1.08v-5.91h1.35a2.67,2.67,0,0,1,2.77,2.83,3.08,3.08,0,0,1-3,3.09Zm14.92,7.31h-2.26V829.25h2.32c3.6,0,5.81,2.49,5.81,6.61s-2.3,6.61-5.87,6.61Z" transform="translate(17.69 -19.04)"/><path class="cls-12" d="M738.23,842.47l-5.86-15.92a7.52,7.52,0,0,1-2.16,1.85l.23.66L725,842.45l-1.17.44-.35.88h4.84v-.88l-1.63-.42,1.85-4.88h5.07l1.78,4.84-1.91.46v.88H740v-.88l-1.74-.43Zm-9.3-6.11,2.15-5.63,2.06,5.63Z" transform="translate(17.69 -19.04)"/><polygon class="cls-12" points="741.95 820.72 741.36 820.39 737.94 823.51 735.01 823.51 735.01 810.22 736.77 809.77 736.77 808.88 730.46 808.88 730.46 809.77 732.23 810.22 732.23 823.4 730.46 823.86 730.46 824.74 740.38 824.74 741.95 820.72 741.95 820.72"/><polygon class="cls-12" points="769.5 808.88 769.5 809.77 771.41 810.22 767.26 820.83 762.9 810.2 764.96 809.77 764.96 808.88 757.91 808.88 757.91 809.77 759.93 810.21 766.19 825.29 766.86 825.29 773.1 810.23 773.15 810.23 775.1 809.77 775.1 808.88 769.5 808.88 769.5 808.88"/><path class="cls-12" d="M814.32,827.93v.88l1.9.45s.14,7.86.07,9.84A4,4,0,0,1,812,843a3.94,3.94,0,0,1-4.27-4.07v-9.68l1.84-.42v-.88h-6.37v.88l1.81.43V839c.12,3.35,2.82,5.55,6.3,5.55s6.18-2,6.3-5.55l.12-9.73,1.86-.45v-.88Z" transform="translate(17.69 -19.04)"/><path class="cls-12" d="M883.21,842.44l-5.83-15.88a7.52,7.52,0,0,1-2.16,1.85l.23.66L870,842.52l-.93.38-1.26-.4V829.25l1.94-.44v-.88h-6.64v.88l1.92.45v13.2l-1.84.43v.88H873.3v-.88l-1.63-.43,1.85-4.88h5.07l1.78,4.84-1.91.46v.88H885v-.88l-1.76-.46Zm-9.28-6.08,2.15-5.63,2.06,5.63Z" transform="translate(17.69 -19.04)"/><path class="cls-12" d="M780.27,827.93v.88l1.94.45.12,10.37-9.94-11.71h-4.24v.88l1.92.42.16.08-.14,13.12h0l-2,.46-6-16.34A7.53,7.53,0,0,1,760,828.4l.23.66-5.47,13.4-1.65.44v.88h5v-.88l-1.63-.42,1.85-4.88h5.07l1.78,4.84-1.91.46v.88h10.43v-.88l-2-.45L771.47,831l11.36,13.35h.75l.15-15.08,1.92-.44v-.88Zm-21.58,8.43,2.15-5.63,2.06,5.63Z" transform="translate(17.69 -19.04)"/><path class="cls-12" d="M797,835.68v.88l1.79.45v5.11a5.94,5.94,0,0,1-3.58,1.19c-3.6,0-5.91-3-5.91-7.24s2.26-7.56,6-7.56a5.65,5.65,0,0,1,5.31,4.32l.51-.3v-5l-.46-.25-1,1.22a10,10,0,0,0-4.39-1.12,8.88,8.88,0,0,0-8.9,8.74,8.06,8.06,0,0,0,8.22,8.46,8.19,8.19,0,0,0,5.11-1.7l1.4.93h.45V837l1.5-.57v-.73Z" transform="translate(17.69 -19.04)"/><path class="cls-13" d="M61.38,306l9.49-1.22,8.57-.85,9.48-.85,9.19-1.26,9.49-.76,9.19-.7,9.49-.78,9.49-.68L145,298l9.5-.8,9.19-.84,9.49-6.56,9.49-1.39,8.57-.88,9.48-.89,9.19-1.13,9.49-.67,9.19-3.07,9.49,1.68,9.49-.66,9.19-.82,9.5-.72,9.19-.7,9.49-8.64,9.49-1.36,8.88-.92,9.48-.89,9.19-.79,9.49-1.11,9.19-.68,9.49-.73,9.49-.7,9.19-.78,9.5-.89,9.19-.83,9.49-6.91,9.49-1.15,8.57-1,9.48-.77,9.19-1.22,9.49-.4,9.19-.47,9.49-.63,9.49-.58,9.19-.62,9.5-.66,9.19-.59,9.49-1.68,9.49-1.13,8.57-.72,9.48-.66,9.19-1.1,9.49-.48,9.19-.53,9.49-.67,9.49-.52,9.19-.72,9.5-.74,9.19-.65,9.49-1.74,9.49-1.34,8.57-.85,9.48-.77,9.19-1.16,9.49-.48,9.19-.59,9.49-.66,9.49-.66,9.19-.72,9.5-.69,9.19-.64,9.49-1.83,9.49-1.1,8.88-.79,9.48-.72,9.19-1.09,9.49-.44,9.19-.54,9.49-.64,9.49-.62,9.19-.7,9.5-.63,9.19-.61,9.49-1.87,9.49-1.06,8.57-.72,9.48-.66,9.19-1.11,9.49-.32,9.19-.44" transform="translate(17.69 -19.04)"/><path class="cls-14" d="M61.38,488.43l9.49-.6,8.57-.41,9.48-.41,9.19-.54,9.49-.42,9.19-.38,9.49-.41,9.49-.36,9.19-.59,9.5-.48,9.19-.43,9.49-4.66,9.49-.76,8.57-.48,9.48-.48,9.19-.56,9.49-.39,9.19-.4,9.49-.44,9.49-.4,9.19-.63,9.5-.45,9.19-.47,9.49-5,9.49-.83,8.88-.6,9.48-.57,9.19-.5,9.49-.61,9.19-.46,9.49-.56,9.49-.49,9.19-.77,9.5-.79,9.19-.66,9.49-5.28,9.49-.87,8.57-.75,9.48-.62,9.19-.89,9.49-.59,9.19-.57,9.49-.73,9.49-.62,9.19-.8,9.5-.74,9.19-.65,9.49-1.32,9.49-1,8.57-.61,9.48-.59,9.19-.75,9.49-.51,9.19-.52,9.49-.63,9.49-.48,9.19-.9,9.5-.79,9.19-.64,9.49-1.32,9.49-1.11,8.57-.74,9.48-.7,9.19-.87,9.49-.59,9.19-.64,9.49-.68,9.49-.71,9.19-1,9.5-.78,9.19-.65,9.49-1.34,9.49-1.11,8.88-.86,9.48-.8,9.19-.95,9.49-.65,9.19-.73,9.49-.79,9.49-.72,9.19-1.05,9.5-.8,9.19-.78,9.49-1.51,9.49-1.14,8.57-.78,9.48-.8,9.19-.91,9.49-.6,9.19-.68" transform="translate(17.69 -19.04)"/></svg>