<svg id="05f8b774-674b-407f-888b-c92ba2b107b2" data-name="Capa 1" xmlns="http://www.w3.org/2000/svg" viewBox="0 0 667 635"><defs><style>.\31 774587e-0e59-44b7-9d93-cf4a578aa4f8{fill:#efb21b;}.\31 774587e-0e59-44b7-9d93-cf4a578aa4f8,.\34 11740f2-a9a1-43aa-93ed-7384cb6d828a,.\39 1ec3902-5180-4973-8a46-71346d78ebc6,.ba73a5bf-0e00-4808-bb8a-ee94ee51e4fd,.d724bebe-5b43-41aa-832a-57ce5f28e94e,.e825cac4-025b-4517-8656-31ea323b034d,.e923cc74-46e3-443a-825e-020d0054c6f2,.f5ef092e-4f4c-4475-aecd-209e8e612ab1{stroke:#fff;stroke-linejoin:round;stroke-width:1.6px;}.\31 774587e-0e59-44b7-9d93-cf4a578aa4f8,.\39 1ec3902-5180-4973-8a46-71346d78ebc6,.ba73a5bf-0e00-4808-bb8a-ee94ee51e4fd,.d724bebe-5b43-41aa-832a-57ce5f28e94e,.e825cac4-025b-4517-8656-31ea323b034d,.e923cc74-46e3-443a-825e-020d0054c6f2{opacity:0.77;}.\39 1ec3902-5180-4973-8a46-71346d78ebc6{fill:#3f4d78;}.d724bebe-5b43-41aa-832a-57ce5f28e94e{fill:#ffe600;}.e825cac4-025b-4517-8656-31ea323b034d{fill:#8e244f;}.ba73a5bf-0e00-4808-bb8a-ee94ee51e4fd{fill:#d57928;}.e923cc74-46e3-443a-825e-020d0054c6f2{fill:#991d26;}.f5ef092e-4f4c-4475-aecd-209e8e612ab1{fill:#59a5a5;opacity:0.49;}.\37 11a779e-7f88-47a0-9a24-d6d263a3eee5{font-size:34px;}.\31 9855b96-3178-4269-a84b-b90e32922e01,.\37 11a779e-7f88-47a0-9a24-d6d263a3eee5{fill:#323232;}.\31 9855b96-3178-4269-a84b-b90e32922e01,.\31 b46b395-ba00-4aef-a9cc-e7a094807636,.\36 8baea54-eba9-45f2-8995-a4bb93293371,.\37 11a779e-7f88-47a0-9a24-d6d263a3eee5{font-family:Arial-BoldMT, Arial;}.\31 9855b96-3178-4269-a84b-b90e32922e01,.\36 8baea54-eba9-45f2-8995-a4bb93293371,.\37 11a779e-7f88-47a0-9a24-d6d263a3eee5,.\39 f9605b0-bcaa-49f1-b522-b9d4899006c3,.be5b7abc-6d06-42c2-ab92-0f44f625c744{font-weight:700;}.\34 11740f2-a9a1-43aa-93ed-7384cb6d828a{fill:#fff;}.\31 b46b395-ba00-4aef-a9cc-e7a094807636{font-size:24.57px;}.\31 3774224-b151-45cd-ac12-3a5f3fa5132a,.\31 b46b395-ba00-4aef-a9cc-e7a094807636,.\38 801ecc9-c41d-4df1-a3c3-5027525c6d4b,.b6e14d94-f7f1-4177-81bd-a8a3547bee97{fill:#757575;}.be5b7abc-6d06-42c2-ab92-0f44f625c744{letter-spacing:-0.02em;}.\38 801ecc9-c41d-4df1-a3c3-5027525c6d4b,.b17c51bf-911b-4006-aa00-7bf215f688a7,.b6e14d94-f7f1-4177-81bd-a8a3547bee97{font-family:ArialMT, Arial;}.\35 91624c7-234d-442d-b973-2e17e35d7be6,.eba0556b-8dae-48e2-af7c-491e3b4771e3,.f8e90235-2b9c-4405-9292-77a85adbbb4e{fill:none;stroke-miterlimit:10;}.f8e90235-2b9c-4405-9292-77a85adbbb4e{stroke:#757575;}.\38 801ecc9-c41d-4df1-a3c3-5027525c6d4b{font-size:24.57px;}.\35 91624c7-234d-442d-b973-2e17e35d7be6,.eba0556b-8dae-48e2-af7c-491e3b4771e3{stroke:#323232;}.eba0556b-8dae-48e2-af7c-491e3b4771e3{stroke-dasharray:4.91 4.91;}.\31 9855b96-3178-4269-a84b-b90e32922e01{font-size:31.81px;}.b6e14d94-f7f1-4177-81bd-a8a3547bee97{font-size:17px;}.ecca14e4-d078-4508-b435-71273ccf3106{letter-spacing:-0.06em;}.\34 3f2ba6c-0ae7-45b7-80da-0850cf722e1d{letter-spacing:0em;}.aa746ee7-dde5-470c-8d8a-20c3f3cf1b2c{letter-spacing:-0.07em;}.c58bca3f-b723-4f14-88fc-5859a2b13c24{letter-spacing:-0.06em;}</style></defs><title>2017.11_Metaencuesta</title><path class="1774587e-0e59-44b7-9d93-cf4a578aa4f8" d="M54.9,577.94A291,291,0,0,1,97.44,315.32l164,120.88A87.3,87.3,0,0,0,248.64,515Z"/><path class="91ec3902-5180-4973-8a46-71346d78ebc6" d="M97.44,315.32a291,291,0,0,1,222-118.06L328,400.78A87.3,87.3,0,0,0,261.4,436.2Z"/><path class="d724bebe-5b43-41aa-832a-57ce5f28e94e" d="M319.48,197.26a291,291,0,0,1,32.49.45L337.76,400.92a87.3,87.3,0,0,0-9.75-.14Z"/><path class="e825cac4-025b-4517-8656-31ea323b034d" d="M352,197.71a291,291,0,0,1,63.81,11.71l-58.88,195a87.3,87.3,0,0,0-19.14-3.51Z"/><path class="ba73a5bf-0e00-4808-bb8a-ee94ee51e4fd" d="M415.78,209.42A291,291,0,0,1,612,409.75l-196.2,54.78a87.3,87.3,0,0,0-58.85-60.1Z"/><path class="e923cc74-46e3-443a-825e-020d0054c6f2" d="M612,409.75a291,291,0,0,1,4.78,136.77l-199.55-41a87.3,87.3,0,0,0-1.43-41Z"/><path class="f5ef092e-4f4c-4475-aecd-209e8e612ab1" d="M616.74,546.53a291,291,0,0,1-8.3,31.41L414.7,515a87.3,87.3,0,0,0,2.49-9.42Z"/><text class="711a779e-7f88-47a0-9a24-d6d263a3eee5" transform="translate(9.69 39.55)">Composición del parlament tras el 21-D</text><path class="411740f2-a9a1-43aa-93ed-7384cb6d828a" d="M554.7,488.16c0,122.06-99,194.81-221,194.81s-221-72.75-221-194.81,99-221,221-221S554.7,366.1,554.7,488.16Z"/><text class="1b46b395-ba00-4aef-a9cc-e7a094807636" transform="translate(408.84 142.97) rotate(-0.14)"><tspan class="9f9605b0-bcaa-49f1-b522-b9d4899006c3">CeC-</tspan><tspan class="be5b7abc-6d06-42c2-ab92-0f44f625c744" x="57.33" y="0">P</tspan><tspan class="9f9605b0-bcaa-49f1-b522-b9d4899006c3" x="73.27" y="0"> </tspan><tspan class="b17c51bf-911b-4006-aa00-7bf215f688a7" x="80.09" y="0">8</tspan></text><text class="1b46b395-ba00-4aef-a9cc-e7a094807636" transform="translate(159.32 119.73) rotate(-0.14)"><tspan class="9f9605b0-bcaa-49f1-b522-b9d4899006c3">CU</tspan><tspan class="be5b7abc-6d06-42c2-ab92-0f44f625c744" x="35.48" y="0">P</tspan><tspan class="9f9605b0-bcaa-49f1-b522-b9d4899006c3" x="51.42" y="0"> </tspan><tspan class="b17c51bf-911b-4006-aa00-7bf215f688a7" x="58.25" y="0">4</tspan></text><path class="13774224-b151-45cd-ac12-3a5f3fa5132a" d="M632.84,528.63l17.3-3.13a68.92,68.92,0,0,1,1,7.42,24.19,24.19,0,0,1,0,5.51,5.79,5.79,0,0,1-1.72,3.26,4.59,4.59,0,0,1-3.46,1.18,5.11,5.11,0,0,1-2.7-.78,5.48,5.48,0,0,1-1.71-1.75,6.77,6.77,0,0,1-.86-2.09,39.31,39.31,0,0,1-.49-4.16c-.09-1-.14-1.57-.27-2.62l-6.58.81C633.21,530.81,633.1,530.08,632.84,528.63Zm15.05,1.85-5,.61c.11.92.16,1.37.24,2.29a15.6,15.6,0,0,0,.5,3.3,2.87,2.87,0,0,0,.91,1.29,2.11,2.11,0,0,0,1.38.45,2,2,0,0,0,1.56-.74,3.24,3.24,0,0,0,.7-1.82,20,20,0,0,0-.12-3.22C648,531.78,648,531.34,647.89,530.48Z"/><path class="13774224-b151-45cd-ac12-3a5f3fa5132a" d="M633.66,545.43l17.53,1.4a69.07,69.07,0,0,1-.92,7.33,24,24,0,0,1-1.36,5.3,5.76,5.76,0,0,1-2.48,2.7,4.6,4.6,0,0,1-3.64.26,5.13,5.13,0,0,1-2.42-1.44,5.48,5.48,0,0,1-1.21-2.12,6.72,6.72,0,0,1-.3-2.23,38.31,38.31,0,0,1,.58-4.11c.18-1,.26-1.54.4-2.57l-6.57-.9C633.47,547.6,633.54,546.88,633.66,545.43ZM647.75,551l-4.94-.67c-.12.9-.19,1.35-.34,2.25a15.24,15.24,0,0,0-.35,3.29,2.85,2.85,0,0,0,.56,1.47,2.12,2.12,0,0,0,1.22.78,2,2,0,0,0,1.7-.31,3.21,3.21,0,0,0,1.14-1.57,19.79,19.79,0,0,0,.7-3.11C647.57,552.28,647.63,551.86,647.75,551Z"/><path class="13774224-b151-45cd-ac12-3a5f3fa5132a" d="M624.78,573.42l3.62,2.14a57.9,57.9,0,0,0,3.82-7.44l1.81.8a61.59,61.59,0,0,1,5.62,13.89c-.48.79-.72,1.19-1.22,2l-9.61-6.13c-.58.91-.88,1.36-1.5,2.25l-1.63-1.13c.6-.87.89-1.3,1.46-2.19l-3.55-2.27C624.09,574.57,624.32,574.19,624.78,573.42Zm5.33,3.15,6.83,4a60.75,60.75,0,0,0-3.9-9.51A59.54,59.54,0,0,1,630.1,576.57Z"/><path class="13774224-b151-45cd-ac12-3a5f3fa5132a" d="M625.38,406.05,641,398c1.27,2.46,1.86,3.7,3,6.21a23.9,23.9,0,0,1,1.74,4.78,5.41,5.41,0,0,1-.52,3.43,4.82,4.82,0,0,1-2.81,2.29,5.11,5.11,0,0,1-5-.65,6.19,6.19,0,0,1-1.52-1.59,30,30,0,0,1-1.81-3.63c-.41-.93-.63-1.4-1.06-2.32l-6,2.83C626.38,408,626.06,407.37,625.38,406.05Zm14.84-2.93-4.51,2.13c.38.8.56,1.19.92,2a13,13,0,0,0,1.51,2.8,2.69,2.69,0,0,0,1.28.83,2.18,2.18,0,0,0,1.44-.08,2.07,2.07,0,0,0,1.22-1.2,3,3,0,0,0,.08-1.84,19.73,19.73,0,0,0-1.09-2.8C640.74,404.22,640.57,403.85,640.22,403.12Z"/><path class="13774224-b151-45cd-ac12-3a5f3fa5132a" d="M637,419c.61,1.38.9,2.07,1.46,3.47a4.24,4.24,0,0,0-2.07,2,4.36,4.36,0,0,0-.07,2.84,4.51,4.51,0,0,0,1.36,2.47,2.15,2.15,0,0,0,1.86.52,1.52,1.52,0,0,0,.95-.62,3.13,3.13,0,0,0,.42-1.53c0-.47,0-1.54,0-3.21a12.65,12.65,0,0,1,.42-4.76,4.48,4.48,0,0,1,2.8-2.84,4,4,0,0,1,2.66.06,5.31,5.31,0,0,1,2.47,2,11.26,11.26,0,0,1,1.71,3.82c.68,2.56.64,4.61,0,6.11a4.73,4.73,0,0,1-3.39,2.78c-.37-1.58-.57-2.37-1-3.94a2.86,2.86,0,0,0,1.64-1.55,4.53,4.53,0,0,0-.07-2.69,5.12,5.12,0,0,0-1.37-2.56,1.23,1.23,0,0,0-1.23-.32,1.31,1.31,0,0,0-.85.88,13,13,0,0,0-.16,3.89,17.71,17.71,0,0,1-.24,4.49,5.07,5.07,0,0,1-1.31,2.48,4.81,4.81,0,0,1-2.6,1.28,5.09,5.09,0,0,1-2.95-.33,5.44,5.44,0,0,1-2.43-2,11.59,11.59,0,0,1-1.55-3.66,8.67,8.67,0,0,1,0-5.51A6.86,6.86,0,0,1,637,419Z"/><path class="13774224-b151-45cd-ac12-3a5f3fa5132a" d="M643.57,449.1c-.36,1.52-.55,2.27-1,3.76a8.15,8.15,0,0,1-4.36-2.63,9.4,9.4,0,0,1,0-10.87,9.2,9.2,0,0,1,6.09-3.41c2.89-.49,5.28,0,7.14,1.49a9.37,9.37,0,0,1,3.23,6.72,9,9,0,0,1-1.51,6.32,6.48,6.48,0,0,1-3.18,2.18c-.37-1.6-.57-2.4-1-4a3.6,3.6,0,0,0,2.06-1.62,4.64,4.64,0,0,0,.57-2.85,4.8,4.8,0,0,0-1.78-3.51c-1-.82-2.61-1.07-4.68-.79s-3.71.93-4.55,1.89a4.37,4.37,0,0,0-1.06,3.42,4,4,0,0,0,1.1,2.49A5.31,5.31,0,0,0,643.57,449.1Z"/><path class="13774224-b151-45cd-ac12-3a5f3fa5132a" d="M636.14,470.6c.13-.88.19-1.32.3-2.2l13.65,1.7a14.68,14.68,0,0,1-1.21-2.51,20.91,20.91,0,0,1-.87-2.68l2.08.17a18.12,18.12,0,0,0,1.69,3.87,9.22,9.22,0,0,0,2.06,2.55c-.09.66-.13,1-.23,1.65Z"/><path class="13774224-b151-45cd-ac12-3a5f3fa5132a" d="M650.11,479.39l2,.41a103.94,103.94,0,0,1-3.46,13.29l-1.6-.51a20.16,20.16,0,0,0-3.42-5.1,23.38,23.38,0,0,0-5.14-4.34,20.38,20.38,0,0,0-4.47-2c.22-.89.33-1.34.53-2.24a19.21,19.21,0,0,1,4.69,2,21.35,21.35,0,0,1,4.91,3.77,20.26,20.26,0,0,1,3.48,4.7C648.82,485.36,649.31,483.38,650.11,479.39Z"/><path class="13774224-b151-45cd-ac12-3a5f3fa5132a" d="M535.06,254.54c1.14,1.11,1.7,1.67,2.77,2.82a8.29,8.29,0,0,1-4.57,2.32,8.8,8.8,0,0,1-4.95-1,9,9,0,0,1-4.59-4.59,9.17,9.17,0,0,1,0-7c1-2.76,2.6-4.61,4.92-5.44a10,10,0,0,1,7.77.73,9.5,9.5,0,0,1,4.9,4.7,6.38,6.38,0,0,1,.26,3.89c-1.61-.56-2.41-.82-4-1.31a3.57,3.57,0,0,0-.37-2.63,4.93,4.93,0,0,0-2.26-2,5.09,5.09,0,0,0-4.08-.31c-1.27.47-2.28,1.7-3.08,3.64s-1,3.69-.6,4.9a4.57,4.57,0,0,0,2.48,2.68,4.16,4.16,0,0,0,2.74.35A5.34,5.34,0,0,0,535.06,254.54Z"/><path class="13774224-b151-45cd-ac12-3a5f3fa5132a" d="M538.63,259.87c1.34.59,2,.91,3.32,1.56a2.52,2.52,0,0,0-.08,1.76,3.37,3.37,0,0,0,1.29,1.55,3.82,3.82,0,0,0,1.94.87,1.06,1.06,0,0,0,.92-.42.83.83,0,0,0,.19-.66,2.87,2.87,0,0,0-.7-1.09,28.9,28.9,0,0,1-3.67-4.6,3.3,3.3,0,0,1,2.91-4.85,7.52,7.52,0,0,1,4.57,1.79,8.72,8.72,0,0,1,3.12,3.47,4.25,4.25,0,0,1,0,3.24c-1.26-.76-1.9-1.12-3.19-1.82a2,2,0,0,0,0-1.44,3.53,3.53,0,0,0-1.27-1.44,4.55,4.55,0,0,0-2-1,.77.77,0,0,0-.75.31.73.73,0,0,0,0,.72,19.47,19.47,0,0,0,2.33,2.85,9.78,9.78,0,0,1,2.36,3.78,2.93,2.93,0,0,1-.73,2.66,3.89,3.89,0,0,1-3.11,1.32,7.38,7.38,0,0,1-4.29-1.74,8.2,8.2,0,0,1-2.88-3.29A5.13,5.13,0,0,1,538.63,259.87Z"/><path class="13774224-b151-45cd-ac12-3a5f3fa5132a" d="M556.63,273.37c.72.6,1.08.91,1.79,1.53a4.84,4.84,0,0,0-1.1,2.76,3.51,3.51,0,0,0,.85,2.27,3.94,3.94,0,0,0,2.51,1.47,3.52,3.52,0,0,0,2.77-.67,3.08,3.08,0,0,0,1.31-2.34,3.9,3.9,0,0,0-1-2.79,7.21,7.21,0,0,0-1.28-1.17l1.63-1,.24.32a6.12,6.12,0,0,0,2.36,1.79,2.52,2.52,0,0,0,3.52-2.29,3.8,3.8,0,0,0-1-2.47,3.89,3.89,0,0,0-2.25-1.45,3.62,3.62,0,0,0-2.64.59c-.56-.87-.85-1.3-1.44-2.15a5.12,5.12,0,0,1,3.95-.67,6.94,6.94,0,0,1,3.71,2.5,8,8,0,0,1,1.56,3,5,5,0,0,1,0,2.84,3.72,3.72,0,0,1-1.38,2,3.38,3.38,0,0,1-2.1.63,5,5,0,0,1-2.44-.79,4.55,4.55,0,0,1,.44,3.11,4.13,4.13,0,0,1-1.76,2.43,5.24,5.24,0,0,1-4.22.81,6.71,6.71,0,0,1-4-2.49,6.21,6.21,0,0,1-1.53-3.91A5.47,5.47,0,0,1,556.63,273.37Z"/><path class="13774224-b151-45cd-ac12-3a5f3fa5132a" d="M579.65,291.94c-.51-.91-.77-1.36-1.3-2.25a3.68,3.68,0,0,0,1.18-1.73,3.81,3.81,0,0,0-.45-2.78,4.1,4.1,0,0,0-1.61-1.65,4.89,4.89,0,0,0-2.86-.55,9.5,9.5,0,0,0-3.83,1.54,5.23,5.23,0,0,1,2.66,1,6.43,6.43,0,0,1,1.88,2.12,5.9,5.9,0,0,1,.6,4.56,5.14,5.14,0,0,1-2.94,3.35,6.49,6.49,0,0,1-3.11.62,5.69,5.69,0,0,1-2.88-.89,6.17,6.17,0,0,1-2.06-2.24,6.29,6.29,0,0,1-.65-5c.48-1.72,1.94-3.45,4.47-5.13,2.83-1.88,5.3-2.65,7.43-2.17a7,7,0,0,1,4.54,3.71,6.82,6.82,0,0,1,1,4.32A4.53,4.53,0,0,1,579.65,291.94Zm-11.53-5.32a4.78,4.78,0,0,0-1.55,1.56,3.75,3.75,0,0,0-.6,2,3.82,3.82,0,0,0,.48,1.91,3.46,3.46,0,0,0,2.16,1.68,4.23,4.23,0,0,0,3.16-.42,3.7,3.7,0,0,0,2.05-2.29,3.81,3.81,0,0,0-.42-3,4,4,0,0,0-2.34-1.94A3.47,3.47,0,0,0,568.12,286.61Z"/><path class="13774224-b151-45cd-ac12-3a5f3fa5132a" d="M129.5,232.74c1.14-1.19,1.72-1.78,2.88-2.94l7.85,7.89a10.75,10.75,0,0,1,2.08,2.67,4.91,4.91,0,0,1,.38,3.13,6.94,6.94,0,0,1-1.88,3.33,5.28,5.28,0,0,1-8.1.48c.82-1.2,1.24-1.8,2.09-3a4.47,4.47,0,0,0,1.91,1.07,2.09,2.09,0,0,0,2-.73,2.14,2.14,0,0,0,.72-1.76,5.1,5.1,0,0,0-1.67-2.32Z"/><path class="13774224-b151-45cd-ac12-3a5f3fa5132a" d="M146.35,240.73c-.45-3.21-.64-4.83-.92-8.11-3.07-.56-4.62-.81-7.76-1.22,1.34-1.28,2-1.91,3.38-3.15,1.69.36,2.53.55,4.2,1-.14-1.74-.2-2.62-.29-4.37,1.36-1.15,2-1.71,3.43-2.81,0,3.09,0,4.63.17,7.67,3.29.73,4.9,1.14,8.09,2-1.33,1.06-2,1.59-3.29,2.69-1.83-.52-2.76-.77-4.62-1.23.21,1.92.32,2.87.59,4.76C148.12,239,147.53,239.6,146.35,240.73Z"/><path class="13774224-b151-45cd-ac12-3a5f3fa5132a" d="M164.19,218.38c1.47-.43,2.21-.64,3.69-1a8,8,0,0,1-.07,5.09,9.22,9.22,0,0,1-9.45,5.34,9.14,9.14,0,0,1-5.88-3.74c-1.8-2.31-2.54-4.62-2.13-6.95a9.08,9.08,0,0,1,4.13-6,8.66,8.66,0,0,1,6.07-1.71,6.56,6.56,0,0,1,3.43,1.68c-1.16,1.11-1.73,1.67-2.86,2.8a3.62,3.62,0,0,0-2.4-1,4.45,4.45,0,0,0-2.69.86,4.64,4.64,0,0,0-2.11,3.2c-.19,1.29.35,2.78,1.59,4.47s2.6,2.81,3.84,3.08a4.29,4.29,0,0,0,3.49-.73,3.92,3.92,0,0,0,1.61-2.17A5.28,5.28,0,0,0,164.19,218.38Z"/><path class="13774224-b151-45cd-ac12-3a5f3fa5132a" d="M187.81,213c-1.45.64-2.17,1-3.6,1.64-1.25-1.18-1.88-1.76-3.16-2.91-2.66,1.29-4,2-6.56,3.4.24,1.69.36,2.54.63,4.22-1.34.76-2,1.14-3.33,1.94a176.15,176.15,0,0,1-2.21-19c1.52-.81,2.29-1.21,3.83-2A170.83,170.83,0,0,1,187.81,213Zm-9.15-3.4c-2.09-1.88-3.16-2.8-5.32-4.62.26,2.81.41,4.2.75,7C175.9,211,176.81,210.49,178.66,209.57Z"/><path class="13774224-b151-45cd-ac12-3a5f3fa5132a" d="M191.6,211.37l-5.49-13.54c-2.18.89-3.27,1.35-5.42,2.31l-1.22-2.71a133.23,133.23,0,0,1,15-5.85l.94,2.82c-2.23.74-3.34,1.14-5.55,2L195,210C193.62,210.56,192.95,210.83,191.6,211.37Z"/><path class="13774224-b151-45cd-ac12-3a5f3fa5132a" d="M206.92,201.32c1.3-.51,2-.76,3.27-1.24a3.06,3.06,0,0,0,1.31,1.65,2.52,2.52,0,0,0,1.84.25,2.49,2.49,0,0,0,1.64-1.17,3,3,0,0,0,.31-2.24,2.71,2.71,0,0,0-1.13-1.82,2.44,2.44,0,0,0-1.93-.34,6.6,6.6,0,0,0-1.59.62c-.09-1.11-.14-1.66-.23-2.77a3.62,3.62,0,0,0,2.13-1.09,2,2,0,0,0,.44-1.8,1.78,1.78,0,0,0-.88-1.26,2.3,2.3,0,0,0-1.67-.17,2.44,2.44,0,0,0-1.5,1,2.64,2.64,0,0,0-.41,1.9c-1.4.12-2.1.19-3.51.35a6.28,6.28,0,0,1,.42-2.75,4.8,4.8,0,0,1,1.66-2,7.64,7.64,0,0,1,2.83-1.22,6.33,6.33,0,0,1,4.83.61,3.85,3.85,0,0,1,1.93,2.61c.28,1.52-.43,2.89-2.06,4.17a4.45,4.45,0,0,1,2.88.92A4,4,0,0,1,219,198a5.27,5.27,0,0,1-1,4.21,7,7,0,0,1-8.24,2.1A5.46,5.46,0,0,1,206.92,201.32Z"/><path class="13774224-b151-45cd-ac12-3a5f3fa5132a" d="M229.12,201.85l-.47-4.18c-3.25.37-4.86.59-8.07,1.13l-.33-2a125.32,125.32,0,0,1,7.36-12.53l2.05-.21,1.1,11.34,2.58-.23.16,2-2.54.22.4,4.19Zm-.69-6.15-.89-7.88c-2.15,3.43-3.15,5.17-5,8.66C224.87,196.13,226.05,196,228.43,195.7Z"/><path class="13774224-b151-45cd-ac12-3a5f3fa5132a" d="M28.88,481.79l-17.5,1.73c-.57-5.79-.75-8.69-.89-14.49l3-.07c.1,4.15.21,6.23.53,10.38l3.89-.31c-.3-3.78-.4-5.68-.5-9.47l3-.08c.1,3.73.2,5.59.49,9.32l4.77-.37c-.32-4-.42-6.06-.51-10.1l3-.07C28.18,473.68,28.35,476.39,28.88,481.79Z"/><path class="13774224-b151-45cd-ac12-3a5f3fa5132a" d="M28,465.21l-17.58.09c0-3.32,0-5,.13-8.29a14.43,14.43,0,0,1,.7-4.51,4.29,4.29,0,0,1,1.83-2.14,4.71,4.71,0,0,1,2.83-.63,4.57,4.57,0,0,1,3.17,1.48,6.25,6.25,0,0,1,1.4,3.77,8.21,8.21,0,0,1,1.58-1.91,18.07,18.07,0,0,1,3-1.9c1.43-.78,2.15-1.16,3.59-1.91-.15,1.71-.21,2.56-.31,4.27-1.59.94-2.38,1.42-4,2.41a21.71,21.71,0,0,0-2.66,1.84,2.82,2.82,0,0,0-.77,1.09,6.24,6.24,0,0,0-.24,1.87c0,.3,0,.45,0,.76l7.34.11C28,463.06,28,463.78,28,465.21Zm-10.13-3.74c0-1.12,0-1.68.06-2.8a17,17,0,0,0-.08-3.41,2.06,2.06,0,0,0-.69-1.1,2.18,2.18,0,0,0-1.3-.46,2,2,0,0,0-1.46.44,2.38,2.38,0,0,0-.76,1.42,28.16,28.16,0,0,0-.17,2.83c0,1.21-.05,1.82-.07,3Z"/><path class="13774224-b151-45cd-ac12-3a5f3fa5132a" d="M23.89,435.06c.66-1.35,1-2,1.68-3.35a8,8,0,0,1,3.75,3.39,8.84,8.84,0,0,1-2.41,10.38,9.21,9.21,0,0,1-6.74,1.69c-2.91-.27-5.11-1.28-6.55-3.1A8.66,8.66,0,0,1,12,437.25a8.25,8.25,0,0,1,2.77-5.43,6.64,6.64,0,0,1,3.53-1.37c.06,1.56.1,2.33.19,3.88a3.64,3.64,0,0,0-2.35,1.06A4.22,4.22,0,0,0,15,437.87a4.43,4.43,0,0,0,.95,3.6c.82,1,2.28,1.59,4.36,1.82s3.83,0,4.86-.7a4.14,4.14,0,0,0,1.81-3,3.78,3.78,0,0,0-.53-2.6A5.28,5.28,0,0,0,23.89,435.06Z"/><path class="13774224-b151-45cd-ac12-3a5f3fa5132a" d="M28.21,422.59c.09-.9.14-1.35.25-2.24a4.8,4.8,0,0,0,2.88-.62,3.29,3.29,0,0,0,1.35-1.95,3.67,3.67,0,0,0-.32-2.82,3.54,3.54,0,0,0-2.21-1.76,3.19,3.19,0,0,0-2.64.3,3.6,3.6,0,0,0-1.63,2.26,6.69,6.69,0,0,0-.18,1.62l-1.77-.72c.05-.14.09-.26.12-.35a5.16,5.16,0,0,0,0-2.75,2.43,2.43,0,0,0-1.81-1.75,2.5,2.5,0,0,0-2.13.31,3.27,3.27,0,0,0-1.36,2,3.35,3.35,0,0,0,.18,2.43,3.79,3.79,0,0,0,2,1.72c-.37.87-.56,1.31-.92,2.18a5.31,5.31,0,0,1-2.81-2.7,6,6,0,0,1-.19-4A6.73,6.73,0,0,1,18.41,411a4.68,4.68,0,0,1,2.19-1.5,4,4,0,0,1,2.37,0,3.55,3.55,0,0,1,1.8,1.23,4.52,4.52,0,0,1,.89,2.27,4.28,4.28,0,0,1,2.15-2.05,4.34,4.34,0,0,1,3,0A5.22,5.22,0,0,1,34,413.67a6.24,6.24,0,0,1,.37,4.58,5.81,5.81,0,0,1-2.3,3.43A5.4,5.4,0,0,1,28.21,422.59Z"/><path class="13774224-b151-45cd-ac12-3a5f3fa5132a" d="M38.31,398.74l1.93.76c-1.72,4.4-2.51,6.63-3.93,11.12a3.73,3.73,0,0,1-1.35-.7,7.6,7.6,0,0,1-1.78-2.11,20.1,20.1,0,0,1-1.59-3.64A29.23,29.23,0,0,0,29.48,399a4.33,4.33,0,0,0-2.05-1.93,2.75,2.75,0,0,0-2.38.18,3.8,3.8,0,0,0-1.73,2.18,3.86,3.86,0,0,0,0,2.9,3.34,3.34,0,0,0,2.13,1.8c-.39.88-.58,1.33-1,2.22a5.17,5.17,0,0,1-3-3,6.73,6.73,0,0,1,.21-4.62,6.43,6.43,0,0,1,2.86-3.7,4.36,4.36,0,0,1,3.83-.26,5,5,0,0,1,1.76,1.19,8.4,8.4,0,0,1,1.46,2.2,45.16,45.16,0,0,1,1.69,4.36,31.6,31.6,0,0,0,1.24,3.18,6.91,6.91,0,0,0,.81,1.26C36.42,403.71,37,402,38.31,398.74Z"/><line class="f8e90235-2b9c-4405-9292-77a85adbbb4e" x1="346.72" y1="147.09" x2="346.72" y2="186.39"/><line class="f8e90235-2b9c-4405-9292-77a85adbbb4e" x1="281.05" y1="125.67" x2="281.05" y2="190.76"/><line class="f8e90235-2b9c-4405-9292-77a85adbbb4e" x1="417.68" y1="357.17" x2="417.68" y2="422.26"/><line class="f8e90235-2b9c-4405-9292-77a85adbbb4e" x1="497.53" y1="148.32" x2="346.72" y2="148.32"/><line class="f8e90235-2b9c-4405-9292-77a85adbbb4e" x1="160.15" y1="126.96" x2="280.38" y2="126.19"/><text class="8801ecc9-c41d-4df1-a3c3-5027525c6d4b" transform="translate(344.02 90.23) scale(0.99 1)">Mayoría absoluta: <tspan class="68baea54-eba9-45f2-8995-a4bb93293371" x="202.1" y="0">68</tspan></text><circle class="411740f2-a9a1-43aa-93ed-7384cb6d828a" cx="335.5" cy="491.9" r="183.12"/><line class="591624c7-234d-442d-b973-2e17e35d7be6" x1="337.03" y1="73.73" x2="337.03" y2="76.23"/><line class="eba0556b-8dae-48e2-af7c-491e3b4771e3" x1="337.03" y1="81.14" x2="337.03" y2="304.61"/><line class="591624c7-234d-442d-b973-2e17e35d7be6" x1="337.03" y1="307.06" x2="337.03" y2="309.56"/><text class="19855b96-3178-4269-a84b-b90e32922e01" transform="translate(243.7 508.3) scale(0.99 1)">135 escaños</text><text class="b6e14d94-f7f1-4177-81bd-a8a3547bee97" transform="translate(6.5 623.02) scale(0.99 1)">Fuente: Generalitat de Catalunya</text><text class="b6e14d94-f7f1-4177-81bd-a8a3547bee97" transform="translate(527.5 627.02) scale(0.99 1)">L<tspan class="ecca14e4-d078-4508-b435-71273ccf3106" x="9.45" y="0">A</tspan><tspan class="43f2ba6c-0ae7-45b7-80da-0850cf722e1d" x="19.86" y="0"> </tspan><tspan class="aa746ee7-dde5-470c-8d8a-20c3f3cf1b2c" x="24.58" y="0">V</tspan><tspan class="43f2ba6c-0ae7-45b7-80da-0850cf722e1d" x="34.66" y="0">ANGUARDI</tspan><tspan class="c58bca3f-b723-4f14-88fc-5859a2b13c24" x="124.39" y="0">A</tspan></text></svg>