<svg data-name="Capa 1" xmlns="http://www.w3.org/2000/svg" xmlns:xlink="http://www.w3.org/1999/xlink" viewBox="0 0 1327.06 1372.28" id="tooltip-svg-6"><defs>
<style>
	@import url('https://fonts.googleapis.com/css?family=Open+Sans');

		.tooltip {
			dominant-baseline: hanging;
		}

		.tooltip-trigger2,.cls-10{
			fill:#a30743;
		}
		.tooltip-trigger2,.cls-13,.cls-14,.tooltip-trigger,.tooltip-trigger3{
				stroke:#fff;
		}
		.tooltip-trigger2,.cls-11,.cls-13,.cls-14,.tooltip-trigger,.tooltip-trigger3{
				stroke-miterlimit:10;stroke-width:2px;
		}
		.tooltip-trigger,.cls-7{
				fill:#97d1d3;
		}
		.tooltip-trigger3,.cls-9{
				fill:#e58f8f;
		}
		.cls-4{
				font-size:47px;
		}
		.cls-4,.cls-5,.cls-8{
				fill:#323232;
		}
		.cls-4,.cls-7{
				font-family:OpenSans-Semibold, Open Sans;
				font-weight:700;
		}
		.cls-5{
				font-size:32px;
		}
		.cls-5,.cls-6{
				font-family:OpenSans-Semibold, Open Sans;
		}
		.cls-6{
				font-size:29px;
		}
		.cls-12,.cls-6{
				fill:#757575;
		}
		.cls-7{
				font-size:33px;
		}
		.cls-11{
				fill:none;stroke:#757575;
		}
		.cls-13{
				fill:#ddd;
		}
		.cls-14{
				fill:#6eabd6;
		}
		.tooltipinfo{
				font-family:OpenSans-Semibold, Open Sans;
				font-weight:35;
		}
		.tooltip-trigger2:hover{
			opacity:0.6;
		}
		.tooltip-trigger3:hover{
			opacity:0.6;
		}		
		.tooltip-trigger:hover{
			opacity:0.6;
		}
</style>
<linearGradient id="Degradado_sin_nombre_15" x1="693.14" y1="239.13" x2="1077.18" y2="239.13" gradientUnits="userSpaceOnUse">
<stop offset="0" stop-color="#ffd0cf"/><stop offset="0.96" stop-color="#a30743"/>

</linearGradient></defs><title>2017.12_Aguabis</title>

<g id="AFGANISTAN"><path class="tooltip-trigger" data-tooltip-text="AFGANISTÁN: 64,8" d="M751.27,691h45.25v45.41H751.27Z" style="fill:#a30743;stroke:#fff;stroke-miterlimit:10;stroke-width:2px"/></g>
	<g id="ANGOLA" ><path class="tooltip-trigger" data-tooltip-text="ANGOLA: -58,3" d="M453.54,1016.28H495v41.24H453.54Z" style="fill:#a30743;stroke:#fff;stroke-miterlimit:10;stroke-width:2px"/></g>
	<g id="EMIRATES_ARABES_UNIDOS" data-name="EMIRATES ARABES UNIDOS"><path class="tooltip-trigger" data-tooltip-text="EMIRATOS ÁRABES UNIDOS: -82,7" d="M692.13,803.85V780.22h23.52v23.63H692.13Z" style="fill:#a30743;stroke:#fff;stroke-miterlimit:10;stroke-width:2px"/></g>
	<g id="ARGENTINA"><path class="tooltip-trigger" data-tooltip-text="ARGENTINA: -27,1" d="M173.72,1123.5h50.85v51.2H173.72Z" style="fill:#e38b8d;stroke:#fff;stroke-miterlimit:10;stroke-width:2px"/></g>
	<g id="AUSTRALIA"><path class="tooltip-trigger" data-tooltip-text="AUSTRALIA; -30,8" d="M1272.8,1212.26h-37.64V1174.5h37.64Z" style="fill:#db7a83;stroke:#fff;stroke-miterlimit:10;stroke-width:2px"/></g>
	<g id="AUSTRIA"><path class="tooltip-trigger" data-tooltip-text="AUSTRIA: -11,3" d="M518.28,588.63v9.73h0v13H495.43v-22.7h22.85Z" style="fill:#f3b1b0;stroke:#fff;stroke-miterlimit:10;stroke-width:2px"/></g>
	<g id="AZERBAIYAN"><path class="tooltip-trigger" data-tooltip-text="AZERBAIYÁN: -22.58" d="M682.27,680.14v-13.2h24V691h-24Z" style="fill:#e89897;stroke:#fff;stroke-miterlimit:10;stroke-width:2px"/></g>
	<g id="BURUNDI"><path class="tooltip-trigger" data-tooltip-text="BURUNDI: -49.58" d="M571.38,1061v25H546.51v-25Z" style="fill:#b02252;stroke:#fff;stroke-miterlimit:10;stroke-width:2px"/></g>
	<g id="BÉLGICA"><path class="tooltip-trigger" data-tooltip-text="BÉLGICA: -11.94" d="M423.07,547.86v25.95h-26V547.86Z" style="fill:#f2afaf;stroke:#fff;stroke-miterlimit:10;stroke-width:2px"/></g>
	<g id="BENIN"><path class="tooltip-trigger" data-tooltip-text="BENIN: -55.91" d="M376.47,842.77V817.51h25.31v25.25H376.47Z" style="fill:#a30743;stroke:#fff;stroke-miterlimit:10;stroke-width:2px"/></g>
	<g id="BURKINA_FASO" data-name="BURKINA FASO"><path class="tooltip-trigger" data-tooltip-text="BURKINA FASO: -53.71" d="M335.48,842.77V809.64h33.16v33.13Z" style="fill:#a70f48;stroke:#fff;stroke-miterlimit:10;stroke-width:2px"/></g>
	<g id="BANGLADESH"><path class="tooltip-trigger" data-tooltip-text="BANGLADESH: -38.31" d="M1118.22,798.05h98.35v98.22h-98.35V798.05Z" style="fill:#ca5770;stroke:#fff;stroke-miterlimit:10;stroke-width:2px"/></g>
	<g id="QATAR"><path class="tooltip-trigger" data-tooltip-text="QATAR: -82.21" d="M713.63,780.22h-9.19v-9h9.19Z" style="fill:#a30743;stroke:#fff;stroke-miterlimit:10;stroke-width:2px"/></g>
	<g id="BAHAMAS"><path class="tooltip-trigger" data-tooltip-text="BAHAMAS: -36.31" d="M123.54,809.6V805h4.93v4.63Z" style="fill:#ce6075;stroke:#fff;stroke-miterlimit:10;stroke-width:2px"/></g>
	<g id="BELICE"><path class="tooltip-trigger" data-tooltip-text="BELICE: -50.43" d="M88.14,846.9h0v-4.63h4.7v4.63Z" style="fill:#ae1e50;stroke:#fff;stroke-miterlimit:10;stroke-width:2px"/></g>
	<g id="BOLIVIA"><path class="tooltip-trigger" data-tooltip-text="BOLIVIA: -38.79" d="M148.18,1071.15h25.54v25.25H148.18Z" style="fill:#c9556f;stroke:#fff;stroke-miterlimit:10;stroke-width:2px"/></g>
	<g id="BRASIL"><path class="tooltip-trigger" data-tooltip-text="BRASIL: -30.82" d="M173.72,1071.15H148.18V991.22h0V959.95H259.3v111.2H173.72Z" style="fill:#db7a83;stroke:#fff;stroke-miterlimit:10;stroke-width:2px"/></g>
	<g id="BARBADOS"><path class="tooltip-trigger" data-tooltip-text="BARBADOS: -9.1" d="M196.34,905.28v-4.17h4v4.17Z" style="fill:#f5b6b5;stroke:#fff;stroke-miterlimit:10;stroke-width:2px"/></g>
	<g id="BRUNEI"><path class="tooltip-trigger" data-tooltip-text="BRUNEI: -42.28" d="M1209.62,996.59h-4.93v-5.1h4.93Z" style="fill:#c14565;stroke:#fff;stroke-miterlimit:10;stroke-width:2px"/></g>
	<g id="BUTAN"><path class="tooltip-trigger" data-tooltip-text="BUTÁN: -47.08" d="M1076.78,839.52h6.94v6.95h-6.94v-6.95Z" style="fill:#b62e59;stroke:#fff;stroke-miterlimit:10;stroke-width:2px"/></g>
	<g id="BOTSWANA"><path class="tooltip-trigger" data-tooltip-text="BOTSUANA: -41.7" d="M513.8,1162.92v-11.58h11.65v11.58H513.8Z" style="fill:#c24767;stroke:#fff;stroke-miterlimit:10;stroke-width:2px"/></g>
	<g id="CANADA"><path class="tooltip-trigger" data-tooltip-text="CANADÁ: -25.29" d="M88.14,594.16V547.6h46.37v46.56Z" style="fill:#e69191;stroke:#fff;stroke-miterlimit:10;stroke-width:2px"/></g>
	<g id="SUIZA"><path class="tooltip-trigger" data-tooltip-text="SUIZA: -20.07" d="M423.07,608.56V586.09h22.4v22.47Z" style="fill:#eb9d9d;stroke:#fff;stroke-miterlimit:10;stroke-width:2px"/></g>
	<g id="CHILE"><path class="tooltip-trigger" data-tooltip-text="CHILE: -28.5" d="M206.2,1123.5H173.72v-32.43H206.2Z" style="fill:#e08589;stroke:#fff;stroke-miterlimit:10;stroke-width:2px"/></g>
	<g id="CHINA"><path class="tooltip-trigger" data-tooltip-text="CHINA: -20.54" d="M1189.69,798.05H1076.55l-86.36-1-86.36,1-.22-131.81V512.19h68.1l39.2-.92,39.2.92h69l35.28-.74,35.28.74V798.05Z" style="fill:#ea9c9c;stroke:#fff;stroke-miterlimit:10;stroke-width:2px"/></g>
	<g id="COSTA_MARFIL" data-name="COSTA MARFIL"><path class="tooltip-trigger" data-tooltip-text="COSTA DE MARFIL: -51.09" d="M298.06,883.77V846.24h37.41v37.53Z" style="fill:#ad1b4e;stroke:#fff;stroke-miterlimit:10;stroke-width:2px"/></g>
	<g id="CAMERUN"><path class="tooltip-trigger" data-tooltip-text="CAMERÚN: -51.91" d="M540,892.8v16.45H523v.23H502.6v-37.3H540Z" style="fill:#ab184c;stroke:#fff;stroke-miterlimit:10;stroke-width:2px"/></g>
	<g id="R.D._CONGO" data-name="R.D. CONGO"><path class="tooltip-trigger" data-tooltip-text="D.R. CONGO: -57.23" d="M495,1016.28H453.54V967.17h0V956.51h0v-8.57h68.33v68.34H495Z" style="fill:#a30743;stroke:#fff;stroke-miterlimit:10;stroke-width:2px"/></g>
	<g id="CONGO"><path class="tooltip-trigger" data-tooltip-text="CONGO: -53.83" d="M453.54,967.17v17.61H436.06V967.17h17.47Z" style="fill:#a70f47;stroke:#fff;stroke-miterlimit:10;stroke-width:2px"/></g>
	<g id="COLOMBIA"><path class="tooltip-trigger" data-tooltip-text="COLOMBIA: -32.36" d="M94.41,906.44h53.77v53.51H94.41Z" style="fill:#d7737f;stroke:#fff;stroke-miterlimit:10;stroke-width:2px"/></g>
	<g id="COMOROS"><path class="tooltip-trigger" data-tooltip-text="COMORAS: -50.4" d="M690.33,1189.1h-6.94v-6.95h6.94Z" style="fill:#ae1f50;stroke:#fff;stroke-miterlimit:10;stroke-width:2px"/></g>
	<g id="CABO_VERDE" data-name="CABO VERDE"><path class="tooltip-trigger" data-tooltip-text="CABO VERDE: -38.28" d="M257.29,794.58v-5.79h5.82v5.79Z" style="fill:#ca5770;stroke:#fff;stroke-miterlimit:10;stroke-width:2px"/></g>
	<g id="COSTA_RICA" data-name="COSTA RICA"><path class="tooltip-trigger" data-tooltip-text="COSTA RICA: -39.63" d="M111.44,906.44h-17V889.29h17v17.14Z" style="fill:#c7516c;stroke:#fff;stroke-miterlimit:10;stroke-width:2px"/></g>
	<g id="CUBA"><path class="tooltip-trigger" data-tooltip-text="CUBA: -10.23" d="M127.79,841.34h-26V815.16h26Z" style="fill:#f4b3b3;stroke:#fff;stroke-miterlimit:10;stroke-width:2px"/></g>
	<g id="CHIPRE"><path class="tooltip-trigger" data-tooltip-text="CHIPRE: -37.22" d="M588,737.59v-8.34h8.29v8.34Z" style="fill:#cc5c73;stroke:#fff;stroke-miterlimit:10;stroke-width:2px"/></g>
	<g id="R._CHECA" data-name="R. CHECA"><path class="tooltip-trigger" data-tooltip-text="REPUBLICA CHECA: -3.12" d="M518.28,588.63H493.19v-25h25.09v25Z" style="fill:#fac3c3;stroke:#fff;stroke-miterlimit:10;stroke-width:2px"/></g>
	<g id="ALEMANIA"><path class="tooltip-trigger" data-tooltip-text="ALEMANIA: -3.88" d="M423.07,573.81V516.12h70.12v70H423.07V573.81Z" style="fill:#f9c2c1;stroke:#fff;stroke-miterlimit:10;stroke-width:2px"/></g>
	<g id="DJIBOUTI"><path class="tooltip-trigger" data-tooltip-text="YIBUTI: -46.25" d="M587.73,909.25h7.62v7.64h-7.62Z" style="fill:#b8325b;stroke:#fff;stroke-miterlimit:10;stroke-width:2px"/></g>
	<g id="DINAMARCA"><path class="tooltip-trigger" data-tooltip-text="DINAMARCA: -9.15" d="M441.66,516.12H423.07v-18.3h18.59Z" style="fill:#f5b6b5;stroke:#fff;stroke-miterlimit:10;stroke-width:2px"/></g>
	<g id="REP._DOMINICANA" data-name="REP. DOMINICANA"><path class="tooltip-trigger" data-tooltip-text="REPÚBLICA DOMINICANA: -34.99" d="M166.33,854.31h25.09v25.25H166.33Z" style="fill:#d16778;stroke:#fff;stroke-miterlimit:10;stroke-width:2px"/></g>
	<g id="ARGELIA"><path class="tooltip-trigger" data-tooltip-text="ARGELIA: -38.85" d="M342,773V723.92H391V773Z" style="fill:#c9556e;stroke:#fff;stroke-miterlimit:10;stroke-width:2px"/></g>
	<g id="ECUADOR"><path class="tooltip-trigger" data-tooltip-text="ECUADOR: -40.24" d="M148.18,959.95v31.27H117V959.95Z" style="fill:#c54e6b;stroke:#fff;stroke-miterlimit:10;stroke-width:2px"/></g>
	<g id="EGIPTO"><path class="tooltip-trigger" data-tooltip-text="EGIPTO: -42.2" d="M602.29,742.92v75.29h-75.5V742.92h75.5Z" style="fill:#c14566;stroke:#fff;stroke-miterlimit:10;stroke-width:2px"/></g>
	<g id="ERITREA"><path class="tooltip-trigger" data-tooltip-text="ERITREA: -23.88" d="M587.73,909.25V925.7H571.38V909.25Z" style="fill:#e79594;stroke:#fff;stroke-miterlimit:10;stroke-width:2px"/></g>
	<g id="ESPAÑA"><path class="tooltip-trigger" data-tooltip-text="ESPAÑA: -16.77" d="M342.87,642.84h52.42V695.2H342.87V642.84Z" style="fill:#eea5a4;stroke:#fff;stroke-miterlimit:10;stroke-width:2px"/></g>
	<g id="ETIOPÍA"><path class="tooltip-trigger" data-tooltip-text="ETIOPÍA: -37.37" d="M571.38,925.7h78v77.84h-78V984.77h0V957.9h0Z" style="fill:#cc5b72;stroke:#fff;stroke-miterlimit:10;stroke-width:2px"/></g>
	<g id="FINLANDIA"><path class="tooltip-trigger" data-tooltip-text="FINLANDIA: -9.69" d="M465.41,453.11V435h18.15v18.07Z" style="fill:#f4b5b4;stroke:#fff;stroke-miterlimit:10;stroke-width:2px"/></g>
	<g id="FIJI"><path class="tooltip-trigger" data-tooltip-text="FIYI: -18.52" d="M1259.58,1140.68H1267v7.41h-7.39Z" style="fill:#eca1a0;stroke:#fff;stroke-miterlimit:10;stroke-width:2px"/></g>
	<g id="FRANCIA"><path class="tooltip-trigger" data-tooltip-text="FRANCIA: -13.32" d="M423.07,586.09v56.76h-63v-63h63v6.25Z" style="fill:#f1acac;stroke:#fff;stroke-miterlimit:10;stroke-width:2px"/></g>
	<g id="GABON"><path class="tooltip-trigger" data-tooltip-text="GABÓN: -53.25" d="M453.54,956.51h0v10.66H442.79V956.51h10.75Z" style="fill:#a81149;stroke:#fff;stroke-miterlimit:10;stroke-width:2px"/></g>
	<g id="PALESTINA"><path d="M624.69,759.37V742.92H641v16.45Z" style="fill:#b02252;stroke:#fff;stroke-miterlimit:10;stroke-width:2px"/></g>
	<g id="GRAN_BRETAÑA" data-name="GRAN BRETAÑA"><path class="tooltip-trigger" data-tooltip-text="REINO UNIDO: -12.09" d="M299.41,561.3V499h62.28V561.3H299.41Z" style="fill:#f2afaf;stroke:#fff;stroke-miterlimit:10;stroke-width:2px"/></g>
	<g id="GHANA"><path class="tooltip-trigger" data-tooltip-text="GHANA: -50" d="M335.48,842.77h41v41h-41v-41Z" style="fill:#af2051;stroke:#fff;stroke-miterlimit:10;stroke-width:2px"/></g>
	<g id="GUATEMALA"><path class="tooltip-trigger" data-tooltip-text="GUATEMALA: -45.75" d="M88.14,842.27v4.63h0v3.94H56.78V819.56H88.14Z" style="fill:#b9345c;stroke:#fff;stroke-miterlimit:10;stroke-width:2px"/></g>
	<g id="GUYANA"><path class="tooltip-trigger" data-tooltip-text="GUAYANA: -0.77" d="M198.14,959.95h-6.72v-6.72h6.72v6.72Z" style="fill:#fcc9c8;stroke:#fff;stroke-miterlimit:10;stroke-width:2px"/></g>
	<g id="HONDURAS"><path class="tooltip-trigger" data-tooltip-text="HONDURAS: -48.44" d="M88.14,846.9h23.3v23.4H88.14V846.9Z" style="fill:#b32855;stroke:#fff;stroke-miterlimit:10;stroke-width:2px"/></g>
	<g id="HAITÍ"><path class="tooltip-trigger" data-tooltip-text="HAITÍ: -36.91" d="M166.33,854.31V879.8H141V854.31Z" style="fill:#cd5e73;stroke:#fff;stroke-miterlimit:10;stroke-width:2px"/></g>
	<g id="INDONESIA"><path class="tooltip-trigger" data-tooltip-text="INDONESIA: -32.69" d="M1204.7,996.59h4.93V1121H1085.29V996.59H1204.7Z" style="fill:#d7717e;stroke:#fff;stroke-miterlimit:10;stroke-width:2px"/></g>
	<g id="INDIA"><path class="tooltip-trigger" data-tooltip-text="INDIA: -36.87" d="M1076.78,839.52v238.84h-61.83l-37.08.74-37.08-.74H796.52V798.05H903.83l86.36-1,86.36,1h.22Z" style="fill:#cd5e74;stroke:#fff;stroke-miterlimit:10;stroke-width:2px"/></g>
	<g id="IRLANDA"><path class="tooltip-trigger" data-tooltip-text="IRLANDA: -24" d="M279.92,515.66V499h17v16.68Z" style="fill:#e79494;stroke:#fff;stroke-miterlimit:10;stroke-width:2px"/></g>
	<g id="IRAN"><path class="tooltip-trigger" data-tooltip-text="IRÁN: -34.71" d="M751.27,691v69h-69V691h69Z" style="fill:#d26879;stroke:#fff;stroke-miterlimit:10;stroke-width:2px"/></g>
	<g id="IRAK"><path class="tooltip-trigger" data-tooltip-text="IRAK: -53.46" d="M682.27,691v47h-47V691Z" style="fill:#a71048;stroke:#fff;stroke-miterlimit:10;stroke-width:2px"/></g>
	<g id="ISLANDIA"><path class="tooltip-trigger" data-tooltip-text="ISLANDIA: -24.9" d="M280.59,455.43V450.8h4.48v4.63Z" style="fill:#e69292;stroke:#fff;stroke-miterlimit:10;stroke-width:2px"/></g>
	<g id="ISRAEL"><path class="tooltip-trigger" data-tooltip-text="ISRAEL: -46.82" d="M602.29,765.39V742.92h22.4v22.47Z" style="fill:#b72f5a;stroke:#fff;stroke-miterlimit:10;stroke-width:2px"/></g>
	<g id="ITALIA"><path class="tooltip-trigger" data-tooltip-text="ITALIA: -6.89" d="M423.07,608.56h60v59.77h-60V608.56Z" style="fill:#f7bbba;stroke:#fff;stroke-miterlimit:10;stroke-width:2px"/></g>
	<g id="JAMAICA"><path class="tooltip-trigger" data-tooltip-text="JAMAICA: -16.87" d="M127.79,841.34H141v13H127.79Z" style="fill:#eea4a4;stroke:#fff;stroke-miterlimit:10;stroke-width:2px"/></g>
	<g id="JORDANIA"><path class="tooltip-trigger" data-tooltip-text="JORDANIA: -64.49" d="M624.69,759.37h23.75v.69h0V783H624.69V759.37Z" style="fill:#a30743;stroke:#fff;stroke-miterlimit:10;stroke-width:2px"/></g>
	<g id="JAPON"><path class="tooltip-trigger" data-tooltip-text="JAPÓN: -4.07" d="M1212.09,712.57V625.93h86.7v86.64h-86.7Z" style="fill:#f9c1c0;stroke:#fff;stroke-miterlimit:10;stroke-width:2px"/></g>
	<g id="KAZAKHASTAN"><path class="tooltip-trigger" data-tooltip-text="KAZAJSTÁN: -4.91" d="M796.52,647.48H764V615h32.48v32.43Z" style="fill:#f8bfbf;stroke:#fff;stroke-miterlimit:10;stroke-width:2px"/></g>
	<g id="KENIA"><path class="tooltip-trigger" data-tooltip-text="KENIA: -54.11" d="M571.38,1003.54h53.77v53.75H571.38v-53.75Z" style="fill:#a60d46;stroke:#fff;stroke-miterlimit:10;stroke-width:2px"/></g>
	<g id="KIRGUISTAN"><path class="tooltip-trigger" data-tooltip-text="KIRGUISTÁN: -22.62" d="M796.52,647.48v-19h19v19Z" style="fill:#e89797;stroke:#fff;stroke-miterlimit:10;stroke-width:2px"/></g>
	<g id="CAMBOIA"><path class="tooltip-trigger" data-tooltip-text="CAMBOYA: -46.33" d="M1259.58,948.17h30.69v30.58h-30.69Z" style="fill:#b8325b;stroke:#fff;stroke-miterlimit:10;stroke-width:2px"/></g>
	<g id="LAOS"><path class="tooltip-trigger" data-tooltip-text="LAOS: -40.62" d="M1216.57,874V854.12h20.16V874Z" style="fill:#c54c6a;stroke:#fff;stroke-miterlimit:10;stroke-width:2px"/></g>
	<g id="LÍBANO"><path class="tooltip-trigger" data-tooltip-text="LÍBANO: -52.31" d="M621.11,742.92H602.29V724.16h18.82Z" style="fill:#aa164b;stroke:#fff;stroke-miterlimit:10;stroke-width:2px"/></g>
	<g id="LIBERIA"><path class="tooltip-trigger" data-tooltip-text="LIBERIA: -50.1" d="M298.06,867.32v16.45H281.49V867.32Z" style="fill:#af2051;stroke:#fff;stroke-miterlimit:10;stroke-width:2px"/></g>
	<g id="LIBIA"><path class="tooltip-trigger" data-tooltip-text="LIBIA: -33.76" d="M417,773V753.58h19.49V773Z" style="fill:#d46c7c;stroke:#fff;stroke-miterlimit:10;stroke-width:2px"/></g>
	<g id="SANTA_LUCÍA" data-name="SANTA LUCÍA"><path class="tooltip-trigger" data-tooltip-text="SANTA LUCÍA: -25.73" d="M191.64,904.12v-3.24H195v3.24Z" style="fill:#e69090;stroke:#fff;stroke-miterlimit:10;stroke-width:2px"/></g>
	<g id="SRI_LANKA" data-name="SRI LANKA"><path class="tooltip-trigger" data-tooltip-text="SRI LANKA: -19.85" d="M1041.38,1121v-35.44h35.4V1121Z" style="fill:#eb9e9d;stroke:#fff;stroke-miterlimit:10;stroke-width:2px"/></g>
	<g id="LESTOHO"><path class="tooltip-trigger" data-tooltip-text="LESOTO: -28.91" d="M571.38,1197.67H582.8V1209H571.38Z" style="fill:#df8388;stroke:#fff;stroke-miterlimit:10;stroke-width:2px"/></g>
	<g id="LUXEMBURGO"><path class="tooltip-trigger" data-tooltip-text="LUXEMBURGO: -33.36" d="M417.25,573.81h5.82v6h-5.82Z" style="fill:#d56e7d;stroke:#fff;stroke-miterlimit:10;stroke-width:2px"/></g>
	<g id="MARRUECOS"><path class="tooltip-trigger" data-tooltip-text="MARRUECOS: -31.53" d="M342,727.17V773h-45.7V727.17Z" style="fill:#d97781;stroke:#fff;stroke-miterlimit:10;stroke-width:2px"/></g>
	<g id="MADAGASCAR"><path class="tooltip-trigger" data-tooltip-text="MADAGASCAR: -54.86" d="M690.33,1189.1h38.31v38.46H690.33Z" style="fill:#a40a45;stroke:#fff;stroke-miterlimit:10;stroke-width:2px"/></g>
	<g id="MÉXICO"><path class="tooltip-trigger" data-tooltip-text="MÉXICO: -35.19" d="M88.14,819.56H1.22v-87.1H88.14Z" style="fill:#d16678;stroke:#fff;stroke-miterlimit:10;stroke-width:2px"/></g>
	<g id="MACEDONIA"><path class="tooltip-trigger" data-tooltip-text="MACEDONIA: -4.28" d="M544.72,644.23v11.12h-11.2V644.23Z" style="fill:#f9c1c0;stroke:#fff;stroke-miterlimit:10;stroke-width:2px"/></g>
	<g id="MALI"><path class="tooltip-trigger" data-tooltip-text="MALI: -52.44" d="M368.18,809.64H335.48V777h32.71Z" style="fill:#aa154b;stroke:#fff;stroke-miterlimit:10;stroke-width:2px"/></g>
	<g id="MYANMAR"><path class="tooltip-trigger" data-tooltip-text="MYANMAR: -25.52" d="M1216.57,854.12V798.05h56v56.06h-56Z" style="fill:#e69191;stroke:#fff;stroke-miterlimit:10;stroke-width:2px"/></g>
	<g id="MONGOLIA"><path class="tooltip-trigger" data-tooltip-text="MONGOLIA: -30.46" d="M903.61,512.19H890.16V498.75h13.44Z" style="fill:#dc7c84;stroke:#fff;stroke-miterlimit:10;stroke-width:2px"/></g>
	<g id="MOZAMBIQUE"><path class="tooltip-trigger" data-tooltip-text="MOZAMBIQUE: -52.15" d="M728.64,1227.55h8.74v8.57h-8.74v-8.57ZM571.38,1147.4h41.44v41.24H571.38V1147.4Z" style="fill:#aa164c;stroke:#fff;stroke-miterlimit:10;stroke-width:2px"/></g>
	<g id="MAURITANIA"><path class="tooltip-trigger" data-tooltip-text="MAURITANIA: -53.96" d="M296.27,773v16H280.37V773Z" style="fill:#a60e47;stroke:#fff;stroke-miterlimit:10;stroke-width:2px"/></g>
	<g id="MALAUI"><path class="tooltip-trigger" data-tooltip-text="MALAUI: -52.43" d="M571.38,1147.4v-15.52h0V1114.5h32.93v32.9Z" style="fill:#aa154b;stroke:#fff;stroke-miterlimit:10;stroke-width:2px"/></g>
	<g id="MALASIA"><path class="tooltip-trigger" data-tooltip-text="MALASIA: -45.33" d="M1259.58,948.17v43.09h-43V948.17h43Z" style="fill:#ba365d;stroke:#fff;stroke-miterlimit:10;stroke-width:2px"/></g>
	<g id="NAMIBIA"><path class="tooltip-trigger" data-tooltip-text="NAMIBIA: -47.45" d="M513.8,1162.92v12H501.7v-12Z" style="fill:#b52c58;stroke:#fff;stroke-miterlimit:10;stroke-width:2px"/></g>
	<g id="NIGER"><path class="tooltip-trigger" data-tooltip-text="NÍGER: -61.75" d="M502.6,842.77H467.65v-35H502.6Z" style="fill:#a30743;stroke:#fff;stroke-miterlimit:10;stroke-width:2px"/></g>
	<g id="NIGERIA"><path class="tooltip-trigger" data-tooltip-text="NIGERIA: -50.07" d="M397.53,842.77H502.6V947.94H397.53V842.77Z" style="fill:#af2051;stroke:#fff;stroke-miterlimit:10;stroke-width:2px"/></g>
	<g id="NICARAGUA"><path class="tooltip-trigger" data-tooltip-text="NICARAGUA: -35.43" d="M111.44,889.29h-19v-19h19Z" style="fill:#d06577;stroke:#fff;stroke-miterlimit:10;stroke-width:2px"/></g>
	<g id="PAÍSES_BAJOS" data-name="PAÍSES BAJOS"><path class="tooltip-trigger" data-tooltip-text="PAÍSES BAJOS: -13.04" d="M423.07,547.86H391.26V516.12h31.81Z" style="fill:#f1adad;stroke:#fff;stroke-miterlimit:10;stroke-width:2px"/></g>
	<g id="NORUEGA"><path class="tooltip-trigger" data-tooltip-text="NORUEGA: -18.5" d="M441.22,453.11v17.61h-17.7V453.11Z" style="fill:#eca1a0;stroke:#fff;stroke-miterlimit:10;stroke-width:2px"/></g>
	<g id="NEPAL"><path class="tooltip-trigger" data-tooltip-text="NEPAL: -38.28" d="M1118.22,798.05v41.47h-41.44V798.05Z" style="fill:#ca5770;stroke:#fff;stroke-miterlimit:10;stroke-width:2px"/></g>
	<g id="NUEVA_ZELANDA" data-name="NUEVA ZELANDA"><path class="tooltip-trigger" data-tooltip-text="NUEVA ZELANDA: -27.39" d="M1272.8,1212.26h16.8v16.68h-16.8Z" style="fill:#e38a8c;stroke:#fff;stroke-miterlimit:10;stroke-width:2px"/></g>
	<g id="OMÁN"><path d="M692.13,803.85h16.13v16.22H692.13Z" style="fill:#a30743;stroke:#fff;stroke-miterlimit:10;stroke-width:2px"/></g>
	<g id="PAKISTAN"><path class="tooltip-trigger" data-tooltip-text="PAKISTÁN: -46.99" d="M796.52,736.43V691l53.54-1.15L903.61,691l.22,107H796.52Z" style="fill:#b62f59;stroke:#fff;stroke-miterlimit:10;stroke-width:2px"/></g>
	<g id="PANAMÁ"><path class="tooltip-trigger" data-tooltip-text="PANAMÁ: -40.62" d="M126.9,906.44H111.44V890.92H126.9Z" style="fill:#c54c6a;stroke:#fff;stroke-miterlimit:10;stroke-width:2px"/></g>
	<g id="PERÚ"><path class="tooltip-trigger" data-tooltip-text="PERÚ: -33.97" d="M148.18,991.22h0v43.32H104.72V991.22h43.46Z" style="fill:#d46b7b;stroke:#fff;stroke-miterlimit:10;stroke-width:2px"/></g>
	<g id="FILIPINAS"><path class="tooltip-trigger" data-tooltip-text="FILIPINAS: -42.75" d="M1216.34,1120.29V1042h78.41v78.3h-78.41Z" style="fill:#c04264;stroke:#fff;stroke-miterlimit:10;stroke-width:2px"/></g>
	<g id="PAPUA_NUEVA_GUINEA" data-name="PAPUA NUEVA GUINEA"><path class="tooltip-trigger" data-tooltip-text="PAPÚA NUEVA GUINEA: -48.46" d="M1216.79,1148.09v-22h21.73v22Z" style="fill:#b32855;stroke:#fff;stroke-miterlimit:10;stroke-width:2px"/></g>
	<g id="POLONIA"><path class="tooltip-trigger" data-tooltip-text="POLONIA: -0.9" d="M540.68,516.12v47.49H493.19V516.12Z" style="fill:#fcc8c7;stroke:#fff;stroke-miterlimit:10;stroke-width:2px"/></g>
	<g id="PUERTO_RICO" data-name="PUERTO RICO"><path d="M191.42,879.56h14.34V893.7H191.42Z" style="fill:#fac4c4;stroke:#fff;stroke-miterlimit:10;stroke-width:2px"/></g>
	<g id="COREA_DEL_NORTE" data-name="COREA DEL NORTE"><path class="tooltip-trigger" data-tooltip-text="COREA DEL NORTE: -22.63" d="M1189.69,550.87V512.19h38.76v38.69Z" style="fill:#e89797;stroke:#fff;stroke-miterlimit:10;stroke-width:2px"/></g>
	<g id="PORTUGAL"><path class="tooltip-trigger" data-tooltip-text="PORTUGAL: -3.57" d="M342.87,642.84V667.4H318V642.84Z" style="fill:#fac2c2;stroke:#fff;stroke-miterlimit:10;stroke-width:2px"/></g>
	<g id="PARAGUAY"><path class="tooltip-trigger" data-tooltip-text="PARAGUAY: -40.7" d="M173.72,1091.07v-19.92h19.94v19.92Z" style="fill:#c44c6a;stroke:#fff;stroke-miterlimit:10;stroke-width:2px"/></g>
	<g id="POLINESIA_FRANCESA" data-name="POLINESIA FRANCESA"><path d="M14.88,993.77v-3.94h4v3.94Z" style="fill:#f7bdbc;stroke:#fff;stroke-miterlimit:10;stroke-width:2px"/></g>
	<g id="BAHRÉIN"><path class="tooltip-trigger" data-tooltip-text="BAHRÉIN: -66.4" d="M704.45,780.22H692.13V767.94h12.32v12.28Z" style="fill:#a30743;stroke:#fff;stroke-miterlimit:10;stroke-width:2px"/></g>
	<g id="ARABIA_SAUDITA" data-name="ARABIA SAUDITA"><path class="tooltip-trigger" data-tooltip-text="ARABIA SAUDÍ: -52.8" d="M692.13,780.22v23.63H648.44V760.06h43.68v20.15Z" style="fill:#a9134a;stroke:#fff;stroke-miterlimit:10;stroke-width:2px"/></g>
	<g id="SUDAN"><path class="tooltip-trigger" data-tooltip-text="SUDÁN: -4.16" d="M540,909.25h31.36V957.9H523V909.25Z" style="fill:#f9c1c0;stroke:#fff;stroke-miterlimit:10;stroke-width:2px"/></g>
	<g id="SUDAN_DEL_SUR" data-name="SUDAN DEL SUR"><path class="tooltip-trigger" data-tooltip-text="SUDÁN DEL SUR: -6.18" d="M571.38,957.9h0v26.87H544.49V957.9Z" style="fill:#f7bcbc;stroke:#fff;stroke-miterlimit:10;stroke-width:2px"/></g>
	<g id="ISLAS_SALOMON" data-name="ISLAS SALOMON"><path class="tooltip-trigger" data-tooltip-text="ISLAS SALOMÓN: -50.15" d="M1251.52,1132.57h-6v-5.79h6Z" style="fill:#af2051;stroke:#fff;stroke-miterlimit:10;stroke-width:2px"/></g>
	<g id="EL_SALVADOR" data-name="EL SALVADOR"><path class="tooltip-trigger" data-tooltip-text="EL SALVADOR: -19.54" d="M68.87,850.84H88.14V870.3H68.87Z" style="fill:#eb9e9e;stroke:#fff;stroke-miterlimit:10;stroke-width:2px"/></g>
	<g id="SOMALIA"><path class="tooltip-trigger" data-tooltip-text="SOMALIA: -48.06" d="M625.14,1003.54h29.12v29.19H625.14Z" style="fill:#b42a56;stroke:#fff;stroke-miterlimit:10;stroke-width:2px"/></g>
	<g id="SAO_TOME" data-name="SAO TOME"><path class="tooltip-trigger" data-tooltip-text="SANTO TOMÉ Y PRÍNCIPE: -43.84" d="M436.06,959.75v-3.47h3.36v3.47Z" style="fill:#bd3d61;stroke:#fff;stroke-miterlimit:10;stroke-width:2px"/></g>
	<g id="SURINAM"><path class="tooltip-trigger" data-tooltip-text="SURINAM: -29.98" d="M204,959.95h-5.82v-5.56H204Z" style="fill:#dd7e86;stroke:#fff;stroke-miterlimit:10;stroke-width:2px"/></g>
	<g id="SERBIA"><path class="tooltip-trigger" data-tooltip-text="SERBIA: 3.52" d="M518.28,598.36h0V580.29H536.2v18.07Z" style="fill:#fcc9c8;stroke:#fff;stroke-miterlimit:10;stroke-width:2px"/></g>
	<g id="ESLOVENIA"><path class="tooltip-trigger" data-tooltip-text="ESLOVENIA: -3.18" d="M507.08,611.34h11.2v11.12h-11.2Z" style="fill:#fac3c2;stroke:#fff;stroke-miterlimit:10;stroke-width:2px"/></g>
	<g id="SUECIA"><path class="tooltip-trigger" data-tooltip-text="SUECIA: -13.39" d="M441.22,470.72V453.11h24.19v24.32H441.22Z" style="fill:#f1acac;stroke:#fff;stroke-miterlimit:10;stroke-width:2px"/></g>
	<g id="SUAZILANDIA"><path class="tooltip-trigger" data-tooltip-text="SUAZILANDIA: -40.8" d="M580.34,1197.67h-9v-9h9Z" style="fill:#c44b69;stroke:#fff;stroke-miterlimit:10;stroke-width:2px"/></g>
	<g id="SIRIA"><path class="tooltip-trigger" data-tooltip-text="SIRIA: -40.84" d="M635.22,691v33.13H602.29V691Z" style="fill:#c44b69;stroke:#fff;stroke-miterlimit:10;stroke-width:2px"/></g>
	<g id="CHAD"><path class="tooltip-trigger" data-tooltip-text="CHAD: -60.15" d="M531.95,872.19H502.6V842.77h29.35Z" style="fill:#a30743;stroke:#fff;stroke-miterlimit:10;stroke-width:2px"/></g>
	<g id="TOGO"><path class="tooltip-trigger" data-tooltip-text="TOGO: -51.94" d="M376.47,842.77h21.06v21.31H376.47Z" style="fill:#ab174c;stroke:#fff;stroke-miterlimit:10;stroke-width:2px"/></g>

	<g id="TAILANDIA"><path class="tooltip-trigger" data-tooltip-text="TAILANDIA: -21.12" d="M1152.72,896.28h63.85v51.89h0v12h-63.85Z" style="fill:#ea9b9b;stroke:#fff;stroke-miterlimit:10;stroke-width:2px"/></g>

	<g id="TAJIKISTAN"><path class="tooltip-trigger" data-tooltip-text="TAYIKISTÁN: -34.2" d="M796.52,647.48h22.85v22.93H796.52V647.48Z" style="fill:#d36a7a;stroke:#fff;stroke-miterlimit:10;stroke-width:2px"/></g>

	<g id="TURKMENISTAN"><path class="tooltip-trigger" data-tooltip-text="TURKMENISTÁN: -28.66" d="M753.06,691H734.91v-18.3h18.15Z" style="fill:#e08489;stroke:#fff;stroke-miterlimit:10;stroke-width:2px"/></g>
	<g id="TIMOR_LESTE" data-name="TIMOR LESTE"><path class="tooltip-trigger" data-tooltip-text="TIMOR ORIENTAL: -42.32" d="M1251.52,1136.74v8.57h-8.74v-8.57Z" style="fill:#c14465;stroke:#fff;stroke-miterlimit:10;stroke-width:2px"/></g>

	<g id="TRINIDAD_Y_TOBAGO" class="tooltip-trigger" data-tooltip-text="TRINIDAD Y TOBAGO: -11.76" data-name="TRINIDAD Y TOBAGO"><path d="M191.42,916.86v-9h9v9Z" style="fill:#f2b0af;stroke:#fff;stroke-miterlimit:10;stroke-width:2px"/></g>
	<g id="TUNEZ"><path class="tooltip-trigger" data-tooltip-text="TÚNEZ: -30.97" d="M391,773V746.86h26V773Z" style="fill:#db7983;stroke:#fff;stroke-miterlimit:10;stroke-width:2px"/></g>

	<g id="TURQUIA"><path class="tooltip-trigger" data-tooltip-text="TURQUÍA: -33.66" d="M544.72,655.35h57.57v68.8H533.52v-68.8h11.2Z" style="fill:#d46d7c;stroke:#fff;stroke-miterlimit:10;stroke-width:2px"/></g>

	<g id="TANZANIA"><path class="tooltip-trigger" data-tooltip-text="TANZANIA: -55.59" d="M571.38,1086v-28.73H629v57.22H571.38V1086Z" style="fill:#a30743;stroke:#fff;stroke-miterlimit:10;stroke-width:2px"/></g>

	<g id="UGANDA"><path class="tooltip-trigger" data-tooltip-text="UGANDA: -59.58" d="M521.87,1016.28h0V984.77h49.51v49.58H521.87Z" style="fill:#a30743;stroke:#fff;stroke-miterlimit:10;stroke-width:2px"/></g>

	<g id="URUGUAY"><path class="tooltip-trigger" data-tooltip-text="URUGUAY: -10.81" d="M193.66,1071.15h14.11v14.13H193.66Z" style="fill:#f3b2b1;stroke:#fff;stroke-miterlimit:10;stroke-width:2px"/></g>
	<g id="ESTADOS_UNIDOS" data-name="ESTADOS UNIDOS"><path class="tooltip-trigger" data-tooltip-text="ESTADOS UNIDOS: -23.96" d="M88.14,594.16H226.59v138.3H88.14Z" style="fill:#e79494;stroke:#fff;stroke-miterlimit:10;stroke-width:2px"/></g>

	<g id="UZBEKISTAN"><path class="tooltip-trigger" data-tooltip-text="UZBEKISTÁN: -30.26" d="M796.52,691H753.06V647.48h43.46V691Z" style="fill:#dc7d85;stroke:#fff;stroke-miterlimit:10;stroke-width:2px"/></g>
	<g id="VENEZUELA"><path d="M191.42,959.95H148.18V916.86h43.24v43.09Z" style="fill:#c64f6b;stroke:#fff;stroke-miterlimit:10;stroke-width:2px"/></g>

	<g id="VIETNAM"><path class="tooltip-trigger" data-tooltip-text="VIETNAM: -30.97" d="M1216.57,896.28V874h74.15v74.13h-74.15V896.28Z" style="fill:#db7983;stroke:#fff;stroke-miterlimit:10;stroke-width:2px"/></g>

	<g id="VANUATU"><path class="tooltip-trigger" data-tooltip-text="VANUATU: -47.41" d="M1255.55,1136.74h4v3.94h-4Z" style="fill:#b52d58;stroke:#fff;stroke-miterlimit:10;stroke-width:2px"/></g>
	<g id="YEMEN"><path class="tooltip-trigger" data-tooltip-text="YEMEN: -59.5" d="M692.13,803.85v40.31H651.58V803.85Z" style="fill:#a30743;stroke:#fff;stroke-miterlimit:10;stroke-width:2px"/></g>
	<g id="SUDÁFRICA"><path class="tooltip-trigger" data-tooltip-text="SUDÁFRICA: -35.4" d="M513.8,1162.92h57.57v57.45H513.8v-57.45Z" style="fill:#d06577;stroke:#fff;stroke-miterlimit:10;stroke-width:2px"/></g>
	<g id="ZAMBIA"><path class="tooltip-trigger" data-tooltip-text="ZAMBIA: -52.72" d="M571.38,1114.5v17.37H540V1100.6h31.36Z" style="fill:#a9144a;stroke:#fff;stroke-miterlimit:10;stroke-width:2px"/></g>

	<g id="ZIMBABUE"><path class="tooltip-trigger" data-tooltip-text="ZIMBABUE: -39.7" d="M571.38,1131.88h0v31H540.46v-31Z" style="fill:#c7516c;stroke:#fff;stroke-miterlimit:10;stroke-width:2px"/></g>

	<g id="GUINEA"><path class="tooltip-trigger" data-tooltip-text="GUINEA: -54.42" d="M304.11,846.24H277v-27.1h27.11Z" style="fill:#a50c46;stroke:#fff;stroke-miterlimit:10;stroke-width:2px"/></g>
	<g id="GAMBIA"><path class="tooltip-trigger" data-tooltip-text="GAMBIA: -58.07" d="M277,819.14v11.12H266V819.14Z" style="fill:#a30743;stroke:#fff;stroke-miterlimit:10;stroke-width:2px"/></g>

	<g id="GUINEABISAU"><path class="tooltip-trigger" data-tooltip-text="GUINEA-BISSAU: -45.32" d="M277,830.26v10.19H266.7V830.26Z" style="fill:#ba365d;stroke:#fff;stroke-miterlimit:10;stroke-width:2px"/></g>

	<g id="GUINEA_ECUATORIAL" data-name="GUINEA ECUATORIAL"><path class="tooltip-trigger" data-tooltip-text="GUINEA ECUATORIAL: -65.45" d="M453.54,947.94v8.57H445v-8.57Z" style="fill:#a30743;stroke:#fff;stroke-miterlimit:10;stroke-width:2px"/></g>

	<g id="GRECIA"><path class="tooltip-trigger" data-tooltip-text="GRECIA: -8.19" d="M508.2,652.57h25.31v25.25H508.2V652.57Z" style="fill:#f5b8b7;stroke:#fff;stroke-miterlimit:10;stroke-width:2px"/></g>
	<g id="RUANDA"><path class="tooltip-trigger" data-tooltip-text="RUANDA: -40.66" d="M571.38,1061H544.94v-26.64h26.44V1061Z" style="fill:#c54c6a;stroke:#fff;stroke-miterlimit:10;stroke-width:2px"/></g>
	<g id="SENEGAL"><path class="tooltip-trigger" data-tooltip-text="SENEGAL: -52.61" d="M280.37,789h15.91v30.12H266V789Z" style="fill:#a9144a;stroke:#fff;stroke-miterlimit:10;stroke-width:2px"/></g>

	<g id="SIERRA_LEONA" data-name="SIERRA LEONA"><path class="tooltip-trigger" data-tooltip-text="SIERRA LEONA: -43.01" d="M298.06,846.24v21.08H277V846.24Z" style="fill:#bf4163;stroke:#fff;stroke-miterlimit:10;stroke-width:2px"/></g>

	<g id="COREA"><path class="tooltip-trigger" data-tooltip-text="COREA: -17.98" d="M1189.69,606V550.87H1245V606Z" style="fill:#eda2a2;stroke:#fff;stroke-miterlimit:10;stroke-width:2px"/></g>

	<g id="SINGAPUR"><path class="tooltip-trigger" data-tooltip-text="SINGAPUR: -49.27" d="M1241.44,991.26h18.15v18.3h-18.15Z" style="fill:#b12453;stroke:#fff;stroke-miterlimit:10;stroke-width:2px"/></g>

	<g id="MALTA"><path class="tooltip-trigger" data-tooltip-text="MALTA: -20.73" d="M423.74,718.13V713h4.93v5.1Z" style="fill:#ea9c9b;stroke:#fff;stroke-miterlimit:10;stroke-width:2px"/></g>

	<g id="MALDIVES"><path class="tooltip-trigger" data-tooltip-text="MALDIVAS: -50.24" d="M796.75,1151.57v-5.1h4.93v5.1Z" style="fill:#af1f51;stroke:#fff;stroke-miterlimit:10;stroke-width:2px"/></g>

	<g id="AUMENTA"><g id="ALBANIA"><path class="tooltip-trigger" data-tooltip-text="ALBANIA: 6.73" d="M508.2,652.57v13h-13v-13h13Z" style="fill:#97d1d3;stroke:#fff;stroke-miterlimit:10;stroke-width:2px"/></g>

	<g id="ARMENIA"><path class="tooltip-trigger" data-tooltip-text="ARMENIA: 18.46" d="M682.27,666.94v13.2H669.05v-13.2Z" style="fill:#97d1d3;stroke:#fff;stroke-miterlimit:10;stroke-width:2px"/></g>

	<g id="BUGLARIA"><path class="tooltip-trigger" data-tooltip-text="BULGARIA: 24.19" d="M544.72,655.35V634.73H565.1v20.62Z" style="fill:#97d1d3;stroke:#fff;stroke-miterlimit:10;stroke-width:2px"/></g>

	<g id="BOSNIA_HERZEGOVINA" data-name="BOSNIA HERZEGOVINA"><path class="tooltip-trigger" data-tooltip-text="BOSNIA Y HERZEGOVINA: 18.88" d="M508.2,652.57h-4.48V638.21h14.56v14.36Z" style="fill:#97d1d3;stroke:#fff;stroke-miterlimit:10;stroke-width:2px"/></g>

	<g id="BIELORUSIA"><path class="tooltip-trigger" data-tooltip-text="BIELORRUSIA: 7.83" d="M540.68,516.12h23.75V540H540.68Z" style="fill:#97d1d3;stroke:#fff;stroke-miterlimit:10;stroke-width:2px"/></g>
	
	<g id="ESTONIA"><path class="tooltip-trigger" data-tooltip-text="ESTONIA: 16.63" d="M564.43,492.26h-9v-8.8h9Z" style="fill:#97d1d3;stroke:#fff;stroke-miterlimit:10;stroke-width:2px"/></g>

	<g id="GEORGIA"><path class="tooltip-trigger" data-tooltip-text="GEORGIA: 30.76" d="M697.05,666.94H682.27V652.11h14.79Z" style="fill:#97d1d3;stroke:#fff;stroke-miterlimit:10;stroke-width:2px"/></g>

	<g id="CROACIA"><path class="tooltip-trigger" data-tooltip-text="CROACIA: 5.46" d="M518.28,638.21H502.38V622.46h15.91Z" style="fill:#97d1d3;stroke:#fff;stroke-miterlimit:10;stroke-width:2px"/></g>

	<g id="HUNGRIA"><path class="tooltip-trigger" data-tooltip-text="HUNGRÍA: 7.56" d="M518.28,611.34v-13h24v24.09h-24V611.34Z" style="fill:#97d1d3;stroke:#fff;stroke-miterlimit:10;stroke-width:2px"/></g>

	<g id="KUWAIT"><path class="tooltip-trigger" data-tooltip-text="KUWAIT: 0" d="M682.27,744.54v15.52H666.81V744.54Z" style="fill:#97d1d3;stroke:#fff;stroke-miterlimit:10;stroke-width:2px"/></g>

	<g id="LITUANIA"><path class="tooltip-trigger" data-tooltip-text="LITUANIA: 26.18" d="M564.43,516.12H551.21v-13h13.22Z" style="fill:#97d1d3;stroke:#fff;stroke-miterlimit:10;stroke-width:2px"/></g>

	<g id="LETONIA"><path class="tooltip-trigger" data-tooltip-text="LETONIA: 31.12" d="M555.47,492.26h9v10.89h-11V492.26Z" style="fill:#97d1d3;stroke:#fff;stroke-miterlimit:10;stroke-width:2px"/></g>

	<g id="MOLDAVIA"><path class="tooltip-trigger" data-tooltip-text="MOLDAVIA: 4.21" d="M578.77,600.68h14.56V615H578.77Z" style="fill:#97d1d3;stroke:#fff;stroke-miterlimit:10;stroke-width:2px"/></g>

	<g id="RUMANIA"><path d="M565.1,634.73H544.72V600.68h34.05v34.05Z" style="fill:#97d1d3;stroke:#fff;stroke-miterlimit:10;stroke-width:2px"/></g>

	<g id="RUSIA"><path class="tooltip-trigger" data-tooltip-text="RUSIA: 3.39" d="M593.55,543V450.33h92.52V543H593.55Z" style="fill:#97d1d3;stroke:#fff;stroke-miterlimit:10;stroke-width:2px"/></g>

	<g id="SERBIA-2" data-name="SERBIA"><path class="tooltip-trigger" data-tooltip-text="SERBIA: 3.52" d="M518.28,638.21V622.46h20.39v20.39H518.28Z" style="fill:#97d1d3;stroke:#fff;stroke-miterlimit:10;stroke-width:2px"/></g>

	<g id="UKRANIA"><path class="tooltip-trigger" data-tooltip-text="UCRANIA: 15.19" d="M593.33,615h0V563.38h51.75V615H593.33Z" style="fill:#97d1d3;stroke:#fff;stroke-miterlimit:10;stroke-width:2px"/></g>
</g>
	<g id="MAPA1"><g id="poca"><text transform="translate(16.68 1333.17)" style="font-size:29px;fill:#757575;font-family:OpenSans, Open Sans">Fuente: Banco Mundial</text><text transform="translate(1082.97 1331.48)" style="font-size:29px;fill:#757575;font-family:OpenSans, Open Sans">LA VANGUARDIA</text><text transform="translate(1000.06 285.35)" style="font-size:33px;fill:#757575;font-family:OpenSans, Open Sans">-82%</text><text transform="translate(688.18 283.85)" style="font-size:33px;fill:#757575;font-family:OpenSans, Open Sans">-0.1%</text><text transform="translate(340.54 213.35)" style="font-size:33px;fill:#97d1d3;font-family:OpenSans-Semibold, Open Sans;font-weight:700">AUMENTA</text><text transform="translate(794.15 216.35)" style="font-size:33px;fill:#af2051;font-family:OpenSans-Semibold, Open Sans;font-weight:700">DISMINUYE</text></g></g>
	<g id="TITULINS"><text transform="translate(115.22 155.9)" style="font-size:32px;fill:#323232;font-family:OpenSans, Open Sans">Variación porcentual de los recursos renovables de agua dulce por persona</text><text transform="translate(128.7 317.62)" style="font-size:32px;fill:#323232;font-family:OpenSans, Open Sans">El tamaño de cada país <tspan x="0" y="38.4">corresponde a su población</tspan></text><path d="M103.2,336.8S-25.92,403.49,65,505.12" style="fill:none;stroke:#757575;stroke-miterlimit:10;stroke-width:2px"/><polygon points="55.79 506.06 63.34 503.28 66.59 495.92 73.2 513.79 55.79 506.06" style="fill:#757575"/><rect x="693.14" y="233.41" width="384.04" height="11.44" style="fill:url(#Degradado_sin_nombre_15)"/><text transform="translate(58.59 50.92)" style="font-size:47px;fill:#323232;font-family:OpenSans-Semibold, Open Sans;font-weight:700">Evolución de los recursos hídricos disponibles por país<tspan x="358.43" y="56.4">desde 1992 hasta 2014</tspan></text></g>

<g id="tooltip" visibility="hidden" >
    <rect x="4" y="4" width="250" height="70" fill="#323232" opacity="0.1" rx="2" ry="2"/>
    <rect width="250" height="70" fill="white" opacity=" 0.9" rx="4" ry="4"/>
    <text class="tooltipinfo" x="3" y="50" fill="#757575" font-size="30" >Tooltip</text>
</g>

	<script type="text/ecmascript">
		(function() {
			var svg = document.getElementById('tooltip-svg-6');
			var tooltip = svg.getElementById('tooltip');
			var tooltipText = tooltip.getElementsByTagName('text')[0];
			var tooltipRects = tooltip.getElementsByTagName('rect');
			var triggers = svg.getElementsByClassName('tooltip-trigger');

			for (var i = 0; i &lt; triggers.length; i++) {
				triggers[i].addEventListener('mousemove', showTooltip);
				triggers[i].addEventListener('mouseout', hideTooltip);
			}

			function showTooltip(evt) {
				var CTM = svg.getScreenCTM();
				var x = (evt.clientX - CTM.e + -70) / CTM.a;
				var y = (evt.clientY - CTM.f + 20) / CTM.d;
				tooltip.setAttributeNS(null, "transform", "translate(" + x + " " + y + ")");
				tooltip.setAttributeNS(null, "visibility", "visible");

				tooltipText.firstChild.data = evt.target.getAttributeNS(null, "data-tooltip-text");
				var length = tooltipText.getComputedTextLength();
				for (var i = 0; i &lt; tooltipRects.length; i++) {
					tooltipRects[i].setAttributeNS(null, "width", length + 8);
				}
			}

			function hideTooltip(evt) {
				tooltip.setAttributeNS(null, "visibility", "hidden");
			}
		})()
    </script>

</svg>
