<svg id="Capa_1" data-name="Capa 1" xmlns="http://www.w3.org/2000/svg" viewBox="0 0 593 578"><title>2017.11_Metaencuesta</title><text transform="translate(19.27 29.4)" style="font-size:31px;fill:#323232;font-family:Arial-BoldMT, Arial;font-weight:700">Composición del parlamento andaluz<tspan x="107.58" y="37.2">tras las elecciones 2-D</tspan></text><path d="M81.27,266.32l-9.15-5.61c1-1.57,1.46-2.35,2.49-3.87a11.56,11.56,0,0,1,1.13-1.47,3.88,3.88,0,0,1,1.27-.93,2.67,2.67,0,0,1,1.41-.17,3,3,0,0,1,1.39.58A3.21,3.21,0,0,1,81.12,257,4.91,4.91,0,0,1,80,260.28c-.66,1-1,1.47-1.61,2.47L82,265.08Zm-4-4.25c.64-1,1-1.52,1.65-2.51a3.5,3.5,0,0,0,.78-2,1.77,1.77,0,0,0-.81-1.35,1.8,1.8,0,0,0-1.16-.36,1.76,1.76,0,0,0-1.09.46,7,7,0,0,0-.92,1.17c-.69,1-1,1.54-1.69,2.58Z" style="fill:#757575"/><path d="M84,256.2l.77-1.19a2.92,2.92,0,0,0,1.33.45,2.56,2.56,0,0,0,1.35-.36A4.53,4.53,0,0,0,88.79,254a4.36,4.36,0,0,0,.77-1.28,2.1,2.1,0,0,0,.13-1.16,1.51,1.51,0,0,0-.48-.85,1.34,1.34,0,0,0-.87-.35,2.29,2.29,0,0,0-1.15.36,17.6,17.6,0,0,0-1.72,1.22,12.57,12.57,0,0,1-1.92,1.31,3.2,3.2,0,0,1-1.55.36,2.32,2.32,0,0,1-1.31-.49,2.5,2.5,0,0,1-.89-1.33,3.08,3.08,0,0,1,.09-1.85A6.09,6.09,0,0,1,81,248a6.38,6.38,0,0,1,1.83-1.56,3.25,3.25,0,0,1,1.89-.43,3,3,0,0,1,1.65.7l-.91,1.18a2.11,2.11,0,0,0-1.7-.39A3.4,3.4,0,0,0,82,248.72a3.52,3.52,0,0,0-1,1.92,1.36,1.36,0,0,0,.49,1.22,1.19,1.19,0,0,0,1,.23,7,7,0,0,0,2.07-1.32,13.83,13.83,0,0,1,2.19-1.51,3.33,3.33,0,0,1,1.8-.38,2.54,2.54,0,0,1,1.45.67,2.89,2.89,0,0,1,.86,1.46,3.41,3.41,0,0,1-.08,1.86,5.34,5.34,0,0,1-1,1.87,6.84,6.84,0,0,1-1.9,1.66,3.63,3.63,0,0,1-2,.46A3.58,3.58,0,0,1,84,256.2Z" style="fill:#757575"/><path d="M89.55,246.89a5.38,5.38,0,0,1-2-4,5.54,5.54,0,0,1,1.87-4,6,6,0,0,1,2.69-1.54,4.66,4.66,0,0,1,2.83.14,5.88,5.88,0,0,1,2.4,1.73,6.21,6.21,0,0,1,1.39,2.66,4.77,4.77,0,0,1-.14,2.74,5.81,5.81,0,0,1-1.48,2.29,5.52,5.52,0,0,1-2.48,1.41,5,5,0,0,1-2.74,0A6,6,0,0,1,89.55,246.89Zm1.1-1.12a4.27,4.27,0,0,0,3,1.35,4,4,0,0,0,3.93-3.78,4.52,4.52,0,0,0-1.33-3.11,5,5,0,0,0-1.88-1.39,3.41,3.41,0,0,0-2.08-.16A4.34,4.34,0,0,0,89,242.51,4.3,4.3,0,0,0,90.65,245.77Z" style="fill:#757575"/><path d="M102.33,242l-6.86-8.26c2.69-2.23,4.08-3.29,6.94-5.31l.73,1c-2.31,1.62-3.44,2.47-5.64,4.24l2.06,2.56c2-1.61,3-2.38,5.11-3.86l.73,1c-2.07,1.47-3.08,2.23-5.05,3.82l2.29,2.85c2.11-1.7,3.2-2.51,5.42-4.07l.73,1C106.13,239,104.83,240,102.33,242Z" style="fill:#757575"/><path d="M112,231.59c.66-.52,1-.78,1.67-1.29a1.87,1.87,0,0,0,1.05.73,1.51,1.51,0,0,0,1.11-.17,1.49,1.49,0,0,0,.73-1,1.83,1.83,0,0,0-.23-1.36,1.67,1.67,0,0,0-1-.86,1.45,1.45,0,0,0-1.17.14,3.93,3.93,0,0,0-.8.64l-.63-1.57a2.13,2.13,0,0,0,1-1,1.25,1.25,0,0,0-.08-1.13,1.1,1.1,0,0,0-.73-.58,1.36,1.36,0,0,0-1,.19,1.45,1.45,0,0,0-.69.82,1.63,1.63,0,0,0,.11,1.18l-2,.8a3.9,3.9,0,0,1-.25-1.67,2.89,2.89,0,0,1,.6-1.43,4.5,4.5,0,0,1,1.4-1.19,3.73,3.73,0,0,1,2.87-.48,2.38,2.38,0,0,1,1.58,1.18,2.58,2.58,0,0,1-.42,2.79,2.66,2.66,0,0,1,1.82,0,2.44,2.44,0,0,1,1.29,1.2,3.23,3.23,0,0,1,.17,2.63,4.16,4.16,0,0,1-4.38,2.66A3.34,3.34,0,0,1,112,231.59Z" style="fill:#757575"/><path d="M119.65,227.32c.71-.46,1.06-.69,1.78-1.14a1.87,1.87,0,0,0,1,.82,1.52,1.52,0,0,0,1.13-.08,1.5,1.5,0,0,0,.82-.9,1.83,1.83,0,0,0-.11-1.38,1.66,1.66,0,0,0-.9-.95,1.46,1.46,0,0,0-1.18,0,4,4,0,0,0-.86.57l-.49-1.62a2.15,2.15,0,0,0,1.12-.91,1.25,1.25,0,0,0,0-1.13,1.1,1.1,0,0,0-.68-.64,1.37,1.37,0,0,0-1,.1,1.45,1.45,0,0,0-.76.76,1.62,1.62,0,0,0,0,1.18l-2,.63a3.89,3.89,0,0,1-.1-1.69,2.9,2.9,0,0,1,.73-1.37,4.55,4.55,0,0,1,1.5-1.07,3.77,3.77,0,0,1,2.91-.23,2.37,2.37,0,0,1,1.48,1.31,2.59,2.59,0,0,1-.67,2.74,2.68,2.68,0,0,1,1.82.18,2.43,2.43,0,0,1,1.19,1.31,3.22,3.22,0,0,1-.06,2.64,4.2,4.2,0,0,1-4.62,2.28A3.33,3.33,0,0,1,119.65,227.32Z" style="fill:#757575"/><path d="M336.71,174c-.49-4.27-.74-6.4-1.24-10.67,1.93-.22,2.9-.3,4.84-.4a12,12,0,0,1,2,0,4.14,4.14,0,0,1,1.58.48,2.69,2.69,0,0,1,1,1,2.88,2.88,0,0,1,.35,1.47,3.19,3.19,0,0,1-1,2.31,5.25,5.25,0,0,1-3.44,1c-1.2.06-1.8.1-3,.21l.4,4.35Zm.93-5.76c1.23-.11,1.85-.16,3.09-.21a3.76,3.76,0,0,0,2.17-.58,1.91,1.91,0,0,0,.24-2.6,1.83,1.83,0,0,0-1.06-.61,7.39,7.39,0,0,0-1.56,0c-1.29.06-1.93.11-3.22.23Z" style="fill:#757575"/><path d="M346.91,173.65c.2-4.29.3-6.44.5-10.73,1.93.09,2.89.17,4.8.38a11.93,11.93,0,0,1,1.91.34,4.1,4.1,0,0,1,1.47.73,2.69,2.69,0,0,1,.82,1.19,2.89,2.89,0,0,1,.11,1.51,3.2,3.2,0,0,1-1.36,2.12,5.21,5.21,0,0,1-3.54.46c-1.19-.14-1.78-.19-3-.27l-.3,4.35Zm1.83-5.53c1.23.09,1.84.14,3.06.28a3.72,3.72,0,0,0,2.22-.23,1.92,1.92,0,0,0,.65-2.53,1.82,1.82,0,0,0-.94-.78,7.29,7.29,0,0,0-1.52-.29c-1.27-.15-1.91-.2-3.2-.29Z" style="fill:#757575"/><path d="M367.72,176.17l-.7,1.78a52.61,52.61,0,0,0-7-2.28,4.66,4.66,0,0,1,1.24-1.79,11.45,11.45,0,0,1,3.1-1.76,20.23,20.23,0,0,0,2.34-1.07,2.12,2.12,0,0,0,.87-1,1.31,1.31,0,0,0-.05-1.14,1.72,1.72,0,0,0-1-.73,1.7,1.7,0,0,0-1.25,0,1.82,1.82,0,0,0-.86,1.08c-.87-.35-1.3-.52-2.18-.84a3.11,3.11,0,0,1,1.93-2,4.83,4.83,0,0,1,3,.14,4.37,4.37,0,0,1,2.51,1.79,2.58,2.58,0,0,1,.22,2.37,3.41,3.41,0,0,1-.78,1.18,6,6,0,0,1-1.34,1,17.8,17.8,0,0,1-1.84.79,16.37,16.37,0,0,0-1.63.7,3.35,3.35,0,0,0-.6.41C365.32,175.25,366.13,175.54,367.72,176.17Z" style="fill:#757575"/><path d="M378.71,174.53c-.85-.37-1.28-.55-2.13-.9a1.35,1.35,0,0,0,0-1,1.41,1.41,0,0,0-.7-.68,1.63,1.63,0,0,0-1.41,0,4.33,4.33,0,0,0-1.61,1.94,2.76,2.76,0,0,1,2.34.11,3.36,3.36,0,0,1,1.76,2,3.28,3.28,0,0,1-.34,2.71,3.76,3.76,0,0,1-6.87-.78,6.46,6.46,0,0,1,.6-4.25c.76-1.81,1.69-3,2.82-3.42a4.28,4.28,0,0,1,3.6.24,3.86,3.86,0,0,1,1.84,1.72A3,3,0,0,1,378.71,174.53ZM372,176.15a2.27,2.27,0,0,0-.21,1.61,1.49,1.49,0,0,0,.76,1,1.32,1.32,0,0,0,1.1.05A2.84,2.84,0,0,0,375,176.1a1.54,1.54,0,0,0-2-1A1.88,1.88,0,0,0,372,176.15Z" style="fill:#757575"/><path d="M534,296.08c.33.54.5.81.82,1.35a5.08,5.08,0,0,1-3.09.65,5,5,0,0,1-2.75-1.33,5.88,5.88,0,0,1-1.74-2.42,4.82,4.82,0,0,1-.1-2.69,7.06,7.06,0,0,1,1.24-2.67,5.44,5.44,0,0,1,2.36-1.88,4.53,4.53,0,0,1,2.88-.14,6.81,6.81,0,0,1,2.81,1.56,5.6,5.6,0,0,1,1.81,2.84,4.06,4.06,0,0,1-.38,2.9l-1.36-.92a3.18,3.18,0,0,0,.29-2.1,3.69,3.69,0,0,0-1.19-1.83,4.4,4.4,0,0,0-2.24-1.16,3.08,3.08,0,0,0-2.07.37,5.52,5.52,0,0,0-1.58,1.37,6.23,6.23,0,0,0-1.15,2.14,3.18,3.18,0,0,0,.05,2,4,4,0,0,0,1.11,1.63,3.47,3.47,0,0,0,2,.93A3.64,3.64,0,0,0,534,296.08Z" style="fill:#757575"/><path d="M534.78,299l1.07.89a1.83,1.83,0,0,0-.49,1.27,2.35,2.35,0,0,0,.61,1.38,2.27,2.27,0,0,0,1.16.86,1.1,1.1,0,0,0,1-.17.78.78,0,0,0,.31-.76,5.72,5.72,0,0,0-.55-1.41A18.63,18.63,0,0,1,537,299a2.15,2.15,0,0,1-.06-1.19,1.84,1.84,0,0,1,.56-.94,1.81,1.81,0,0,1,.89-.45,2.22,2.22,0,0,1,1,.06,3.26,3.26,0,0,1,.92.48,4.92,4.92,0,0,1,1,.91,5.43,5.43,0,0,1,1,1.61,2.43,2.43,0,0,1,.14,1.36,2.55,2.55,0,0,1-.66,1.13l-1-1a1.35,1.35,0,0,0,.39-1,2.24,2.24,0,0,0-.58-1.26,2.59,2.59,0,0,0-1.17-.93.85.85,0,0,0-.82.13.7.7,0,0,0-.23.44,1.35,1.35,0,0,0,.1.65c.06.14.25.54.56,1.2a14.65,14.65,0,0,1,.84,2.05,2,2,0,0,1,0,1.17,1.81,1.81,0,0,1-.71.94,2.19,2.19,0,0,1-1.24.41,2.66,2.66,0,0,1-1.41-.37,4.48,4.48,0,0,1-1.28-1.11,4,4,0,0,1-1-2.2A3,3,0,0,1,534.78,299Z" style="fill:#757575"/><path d="M545.23,315.73l-1.75.77A48.75,48.75,0,0,0,540.1,310a4.64,4.64,0,0,1,2.14-.42,11.32,11.32,0,0,1,3.46.92,20.91,20.91,0,0,0,2.43.89,2.11,2.11,0,0,0,1.34-.12,1.31,1.31,0,0,0,.76-.85,1.75,1.75,0,0,0-.21-1.24,1.73,1.73,0,0,0-.9-.88,1.81,1.81,0,0,0-1.38.17c-.38-.86-.58-1.29-1-2.15a3.1,3.1,0,0,1,2.78-.06,4.91,4.91,0,0,1,2,2.2,4.45,4.45,0,0,1,.54,3.07,2.57,2.57,0,0,1-1.5,1.85,3.38,3.38,0,0,1-1.38.29,6,6,0,0,1-1.63-.27,18.3,18.3,0,0,1-1.87-.74,15.94,15.94,0,0,0-1.66-.65,3.36,3.36,0,0,0-.71-.13C544.16,313.38,544.54,314.15,545.23,315.73Z" style="fill:#757575"/><path d="M545.86,322.9c-.25-.81-.38-1.21-.66-2l7.33-2.55A9.84,9.84,0,0,1,550,316l1.73-.7a8.37,8.37,0,0,0,1.67,1.56,4.2,4.2,0,0,0,2.14.89c.26.77.39,1.16.63,1.93Z" style="fill:#757575"/><path d="M19.1,487.82c-4.56-.7-6.84-1.1-11.4-2-.13-.65-.19-1-.31-1.62,3.87-2.66,5.83-3.93,9.78-6.38.1.65.16,1,.27,1.62-1.2.72-1.79,1.08-3,1.82.33,1.82.5,2.74.88,4.55l3.43.51C18.9,486.93,19,487.22,19.1,487.82Zm-5-2.19c-.3-1.48-.45-2.23-.72-3.72l-2.71,1.7c-.82.52-1.5.93-2,1.21a13.82,13.82,0,0,1,2.13.21Z" style="fill:#757575"/><path d="M16.32,471.81l-1,.12a2.49,2.49,0,0,1,1.44,2,3.17,3.17,0,0,1-.26,1.78,3.45,3.45,0,0,1-1.23,1.43,4.89,4.89,0,0,1-2,.76,5.27,5.27,0,0,1-2.15-.07,3,3,0,0,1-1.62-1,3.36,3.36,0,0,1-.76-1.74,2.83,2.83,0,0,1,.12-1.35,2.68,2.68,0,0,1,.65-1l-3.82.48c-.07-.56-.1-.84-.17-1.4l10.66-1.26C16.22,471.07,16.25,471.32,16.32,471.81Zm-3.26,4.75a3.34,3.34,0,0,0,2.11-1,2,2,0,0,0,.52-1.6,1.93,1.93,0,0,0-.9-1.39,3.23,3.23,0,0,0-2.22-.34,3.53,3.53,0,0,0-2.24.93,2,2,0,0,0-.53,1.68,1.93,1.93,0,0,0,.93,1.42A3.41,3.41,0,0,0,13.05,476.56Z" style="fill:#757575"/><path d="M13,463.33c0-.56,0-.84.07-1.4A3.38,3.38,0,0,1,15,463a4.22,4.22,0,0,1,0,5,4.1,4.1,0,0,1-2.83,1.33A4.14,4.14,0,0,1,9,468.62,3.63,3.63,0,0,1,7.7,466a3.53,3.53,0,0,1,.85-2.76A4.07,4.07,0,0,1,11.46,462l.35,0c.16,2.39.25,3.58.49,6a3,3,0,0,0,1.88-.93,2.24,2.24,0,0,0,.53-1.71,2.09,2.09,0,0,0-.48-1.22A2.55,2.55,0,0,0,13,463.33ZM11.22,468c-.18-1.79-.26-2.69-.39-4.49a2.55,2.55,0,0,0-1.43.63,2.14,2.14,0,0,0-.62,1.77,2.22,2.22,0,0,0,.75,1.54A2.34,2.34,0,0,0,11.22,468Z" style="fill:#757575"/><path d="M15.26,460.14l-10.72.6c0-.56,0-.85-.07-1.41l10.72-.52C15.22,459.34,15.23,459.61,15.26,460.14Z" style="fill:#757575"/><path d="M14,451.64a5.13,5.13,0,0,1,.89,1.42,4.25,4.25,0,0,1,.28,1.46,2.92,2.92,0,0,1-.57,2,2.18,2.18,0,0,1-2.63.53,2.15,2.15,0,0,1-.78-.67,3.23,3.23,0,0,1-.46-1,9.12,9.12,0,0,1-.23-1.21,14.1,14.1,0,0,0-.49-2.43H9.72a1.41,1.41,0,0,0-1.13.4,2.36,2.36,0,0,0-.43,1.58,2.5,2.5,0,0,0,.36,1.43,2,2,0,0,0,1.17.65c-.05.54-.08.81-.13,1.35a3.08,3.08,0,0,1-1.36-.56,2.63,2.63,0,0,1-.82-1.2,5.59,5.59,0,0,1-.31-1.86,5,5,0,0,1,.21-1.71,2.23,2.23,0,0,1,.59-1,2,2,0,0,1,.9-.43,6.83,6.83,0,0,1,1.22-.07h1.76a18.23,18.23,0,0,0,2.33-.08A3,3,0,0,0,15,450c0,.56,0,.83,0,1.39A2.81,2.81,0,0,1,14,451.64Zm-2.94.13a10.93,10.93,0,0,1,.53,2.21,5.06,5.06,0,0,0,.29,1.17,1.16,1.16,0,0,0,.44.52,1.11,1.11,0,0,0,.63.17,1.12,1.12,0,0,0,.87-.43,1.77,1.77,0,0,0,.32-1.19,2.83,2.83,0,0,0-.36-1.37,2.09,2.09,0,0,0-.92-.88,3.13,3.13,0,0,0-1.32-.21Z" style="fill:#757575"/><path d="M15,448.34l-7.78-.1c0-.5,0-.75,0-1.25l1.11,0a2.94,2.94,0,0,1-1.21-2.64A3.53,3.53,0,0,1,7.46,443a2.11,2.11,0,0,1,.7-.9,2.44,2.44,0,0,1,1-.38,7.14,7.14,0,0,1,1.28,0l4.78.24c0,.53,0,.8-.06,1.33l-4.73-.2a3.44,3.44,0,0,0-1.21.11,1.28,1.28,0,0,0-.66.54,1.87,1.87,0,0,0-.27,1,2.27,2.27,0,0,0,.49,1.54,2.55,2.55,0,0,0,2,.68L15,447C15,447.54,15,447.81,15,448.34Z" style="fill:#757575"/><path d="M14.36,436.94l1.18-.1a5.13,5.13,0,0,1,0,1,2.32,2.32,0,0,1-.31,1.1,1.29,1.29,0,0,1-.63.52,4.67,4.67,0,0,1-1.56.06l-4.47-.29c0,.4,0,.61-.06,1l-1-.06c0-.41,0-.61.06-1l-1.92-.12L5,437.61l2.71.19c0-.56.06-.84.11-1.4l1,.08c0,.55-.07.83-.11,1.39l4.54.33a2.25,2.25,0,0,0,.73,0,.56.56,0,0,0,.27-.21.91.91,0,0,0,.13-.45A4.45,4.45,0,0,0,14.36,436.94Z" style="fill:#757575"/><path d="M13.72,430.09l.34-1.36a3.38,3.38,0,0,1,1.69,1.44,3.73,3.73,0,0,1,.4,2.31,3.7,3.7,0,0,1-1.32,2.62,4.1,4.1,0,0,1-3,.76,4.14,4.14,0,0,1-2.94-1.32,3.63,3.63,0,0,1-.81-2.85,3.53,3.53,0,0,1,1.36-2.55,4.06,4.06,0,0,1,3.09-.65l.35.05c-.3,2.37-.44,3.56-.66,5.94a3,3,0,0,0,2-.55,2.24,2.24,0,0,0,.85-1.58,2.09,2.09,0,0,0-.24-1.29A2.55,2.55,0,0,0,13.72,430.09Zm-2.59,4.21c.17-1.79.26-2.69.48-4.48a2.55,2.55,0,0,0-1.52.34,2.14,2.14,0,0,0-.95,1.62,2.22,2.22,0,0,0,.44,1.65A2.34,2.34,0,0,0,11.12,434.3Z" style="fill:#757575"/><path d="M18.09,418.3c-.16.82-.23,1.23-.38,2L10.08,419a7.93,7.93,0,0,1,1.06,3l-1.84-.3a6.68,6.68,0,0,0-.67-2A3.92,3.92,0,0,0,7.17,418c.13-.71.2-1.06.33-1.77Z" style="fill:#757575"/><path d="M10.22,413.45l-1.87-.4c.63-3,1-4.44,1.73-7.39l1.45.37a10.46,10.46,0,0,0,1.93,2.43,13.25,13.25,0,0,0,3,2.19,12.12,12.12,0,0,0,3,1.2c-.18.78-.27,1.18-.45,2a13.1,13.1,0,0,1-4.22-1.91,13.92,13.92,0,0,1-3.47-3.32C10.86,410.52,10.64,411.5,10.22,413.45Z" style="fill:#757575"/><path d="M574.47,454.93c4.17-2,6.23-3.06,10.3-5.36.07.68.11,1,.17,1.7-3,1.53-4.5,2.26-7.53,3.63-.61.28-1.18.51-1.72.7q.89.2,1.79.49c3.19,1,4.77,1.58,7.93,2.76,0,.64,0,1,0,1.61-4.33-1.78-6.51-2.59-10.9-4.05C574.53,455.82,574.51,455.52,574.47,454.93Z" style="fill:#757575"/><path d="M580,461.45a5.14,5.14,0,0,1,5.63,5.64,5.87,5.87,0,0,1-.85,2.93,4.64,4.64,0,0,1-2.11,1.85,6,6,0,0,1-2.93.44,6.24,6.24,0,0,1-2.86-.92,4.73,4.73,0,0,1-1.82-2,5.71,5.71,0,0,1-.54-2.66,5.43,5.43,0,0,1,.8-2.72,5,5,0,0,1,2-1.85A6,6,0,0,1,580,461.45Zm0,1.55a4.29,4.29,0,0,0-3.07,1.07,3.9,3.9,0,0,0-.18,5.41,4.53,4.53,0,0,0,3.12,1.29,5.11,5.11,0,0,0,2.32-.32,3.4,3.4,0,0,0,1.6-1.32,4,4,0,0,0,.63-2.07,4,4,0,0,0-1-2.86A4.35,4.35,0,0,0,580,463Z" style="fill:#757575"/><path d="M574.3,472.61c2.08,1.87,3.1,2.84,5.1,4.87,2.24-1.28,3.35-2,5.55-3.38-.07.75-.11,1.12-.19,1.86-1.19.74-1.79,1.1-3,1.79a14,14,0,0,1-1.43.75,12.55,12.55,0,0,1,1.09,1.07c1,1.09,1.49,1.64,2.46,2.77-.11.68-.17,1-.29,1.69-1.7-2-2.57-3-4.35-4.84-2.49,1.39-3.75,2-6.27,3.25.13-.7.19-1,.3-1.75,1.69-.83,2.53-1.26,4.2-2.17l.78-.39c-.35-.3-.6-.51-.73-.64-1.34-1.31-2-1.94-3.39-3.18C574.2,473.64,574.24,473.3,574.3,472.61Z" style="fill:#757575"/><path d="M570.68,492.46c.22-.8.33-1.2.54-2l7.51,1.94a8.35,8.35,0,0,1-.83-3.15l1.82.42a7.06,7.06,0,0,0,.52,2.09,4,4,0,0,0,1.31,1.81c-.19.72-.28,1.07-.48,1.79Z" style="fill:#757575"/><path d="M569.3,502.8l-1.79-.68c1-2.74,1.52-4.13,2.37-6.92a4.79,4.79,0,0,1,1.75,1.29,12.35,12.35,0,0,1,1.7,3.09,17.33,17.33,0,0,0,1.07,2.29,2.16,2.16,0,0,0,1,.85,1.36,1.36,0,0,0,1.13,0,1.58,1.58,0,0,0,.72-.94,1.56,1.56,0,0,0,0-1.19,1.88,1.88,0,0,0-1.07-.86c.36-.82.53-1.23.87-2.05a3.2,3.2,0,0,1,2,1.93,4.44,4.44,0,0,1-.14,2.78,4,4,0,0,1-1.74,2.32,2.66,2.66,0,0,1-2.35.19,3.52,3.52,0,0,1-1.19-.75,5.79,5.79,0,0,1-1-1.3,15.56,15.56,0,0,1-.8-1.8c-.33-.84-.57-1.37-.7-1.61a3.44,3.44,0,0,0-.4-.6C570.18,500.42,569.9,501.22,569.3,502.8Z" style="fill:#757575"/><text transform="translate(301.77 107.08) scale(0.99 1)" style="font-size:15px;fill:#757575;font-family:ArialMT, Arial">Mayoría absoluta: <tspan x="123.4" y="0" style="font-family:Arial-BoldMT, Arial;font-weight:700">55</tspan></text><text transform="translate(466.5 572.02) scale(0.99 1)" style="font-size:15px;fill:#757575;font-family:ArialMT, Arial">L<tspan x="8.34" y="0" style="letter-spacing:-0.055171354044616205em">A</tspan><tspan x="17.52" y="0"> </tspan><tspan x="21.69" y="0" style="letter-spacing:-0.07421743645692876em">V</tspan><tspan x="30.58" y="0" style="letter-spacing:-0.000032781553205357225em">ANGUARDI</tspan><tspan x="109.75" y="0" style="letter-spacing:-0.055171354044616205em">A</tspan></text><text transform="translate(237.19 453.42) scale(0.99 1)" style="font-size:19.421810150146484px;fill:#323232;font-family:Arial-BoldMT, Arial;font-weight:700">109 escaños</text><path d="M33.44,533.48a274.5,274.5,0,0,1-3.21-159l185,52a82.35,82.35,0,0,0,1,47.71Z" style="fill:#8e244f;stroke:#fff;stroke-linejoin:round;stroke-width:1.60000002384186px;opacity:0.77"/><path d="M30.23,374.43a274.5,274.5,0,0,1,221.72-197L281.73,367.3a82.35,82.35,0,0,0-66.52,59.09Z" style="fill:#991d26;stroke:#fff;stroke-linejoin:round;stroke-width:1.60000002384186px;opacity:0.77"/><path d="M251.95,177.47a274.5,274.5,0,0,1,190.84,40.18L339,379.35a82.35,82.35,0,0,0-57.25-12.05Z" style="fill:#59a5a5;stroke:#fff;stroke-linejoin:round;stroke-width:1.60000002384186px;opacity:0.77"/><path d="M442.78,217.65A274.5,274.5,0,0,1,567.6,421L376.43,440.36a82.35,82.35,0,0,0-37.45-61Z" style="fill:#d57928;stroke:#fff;stroke-linejoin:round;stroke-width:1.60000002384186px;opacity:0.77"/><path d="M567.6,421a274.5,274.5,0,0,1-12,112.47L372.82,474.1a82.35,82.35,0,0,0,3.61-33.74Z" style="fill:#9ed879;stroke:#fff;stroke-linejoin:round;stroke-width:0.5px"/><path d="M481,443.64C481,547,395.37,633.26,292,633.26S104.89,549.48,104.89,446.13,188.67,259,292,259,481,340.29,481,443.64Z" style="fill:#fff;stroke:#fff;stroke-linejoin:round;stroke-width:1.60000002384186px"/><line x1="295.5" y1="101.5" x2="295.5" y2="104" style="fill:none;stroke:#757575;stroke-miterlimit:10"/><line x1="295.5" y1="109.05" x2="295.5" y2="358.98" style="fill:none;stroke:#757575;stroke-miterlimit:10;stroke-dasharray:5.049019813537598,5.049019813537598"/><line x1="295.5" y1="361.5" x2="295.5" y2="364" style="fill:none;stroke:#757575;stroke-miterlimit:10"/><text transform="translate(238.19 443.42) scale(0.99 1)" style="font-size:19.421810150146484px;fill:#323232;font-family:Arial-BoldMT, Arial;font-weight:700">109 escaños</text><text transform="translate(14.5 571.02) scale(0.99 1)" style="font-size:15px;fill:#757575;font-family:ArialMT, Arial">Fuente: Junta de<tspan x="112.58" y="0" style="letter-spacing:-0.055171354044616205em"> </tspan><tspan x="115.92" y="0">Andalucía</tspan></text></svg>