<svg id="Capa_1" data-name="Capa 1" xmlns="http://www.w3.org/2000/svg" viewBox="0 0 1527.62 1005.68"><defs><style>.cls-1,.cls-19,.cls-2,.cls-20,.cls-21,.cls-22,.cls-23,.cls-24,.cls-25,.cls-26,.cls-27,.cls-3,.cls-4{fill:none;}.cls-1{stroke:#000;}.cls-1,.cls-19,.cls-2,.cls-20,.cls-21,.cls-22,.cls-23,.cls-24,.cls-25,.cls-26,.cls-27,.cls-3,.cls-4,.cls-7,.cls-8,.cls-9{stroke-miterlimit:10;}.cls-2,.cls-7{stroke:#f49e20;}.cls-2,.cls-3,.cls-4,.cls-7,.cls-8,.cls-9{stroke-width:3px;}.cls-3,.cls-9{stroke:#159094;}.cls-4,.cls-8{stroke:#323232;}.cls-10,.cls-11,.cls-12,.cls-14,.cls-15,.cls-16,.cls-28,.cls-5,.cls-6{isolation:isolate;}.cls-6{font-size:30px;}.cls-11,.cls-12,.cls-28,.cls-6{fill:gray;}.cls-14,.cls-15,.cls-16,.cls-29,.cls-6{font-family:Arial-BoldMT, Arial;font-weight:700;}.cls-7{fill:#efc389;}.cls-8{fill:#969696;}.cls-9{fill:#94c4c4;}.cls-10,.cls-11,.cls-12{font-size:22px;}.cls-10{fill:#a3a3a4;}.cls-10,.cls-11,.cls-28,.cls-30{font-family:ArialMT, Arial;}.cls-12{font-family:Arial-ItalicMT, Arial;font-style:italic;}.cls-13{letter-spacing:-0.02em;}.cls-14,.cls-15,.cls-16{font-size:25px;}.cls-14{fill:#f49e20;}.cls-15{fill:#159094;}.cls-16,.cls-29,.cls-30{fill:#323232;}.cls-17{letter-spacing:-0.04em;}.cls-18{letter-spacing:-0.07em;}.cls-19,.cls-20,.cls-21,.cls-22,.cls-23,.cls-24,.cls-25,.cls-26{stroke:#757575;}.cls-20{stroke-dasharray:11.83 11.83;}.cls-21{stroke-dasharray:11.9 11.9;}.cls-22{stroke-dasharray:11.8 11.8;}.cls-23{stroke-dasharray:12.28 12.28;}.cls-24{stroke-dasharray:12.16 12.16;}.cls-25{stroke-dasharray:12.18 12.18;}.cls-26{stroke-dasharray:11.73 11.73;}.cls-27{stroke:#d8d8d7;}.cls-28{font-size:27px;}.cls-29{font-size:47px;}.cls-30{font-size:40px;}.cls-31{fill:#283659;}.cls-32{fill:#fff;}</style></defs><title>2017.09_Previa10O_Hechos</title><line class="cls-1" x1="55.12" y1="797.71" x2="55.12" y2="786.45"/><line class="cls-1" x1="103.98" y1="797.71" x2="103.98" y2="786.45"/><line class="cls-1" x1="152.83" y1="797.71" x2="152.83" y2="786.45"/><line class="cls-1" x1="201.69" y1="797.71" x2="201.69" y2="786.45"/><line class="cls-1" x1="250.55" y1="797.71" x2="250.55" y2="786.45"/><line class="cls-1" x1="299.4" y1="797.71" x2="299.4" y2="786.45"/><line class="cls-1" x1="348.26" y1="797.71" x2="348.26" y2="786.45"/><line class="cls-1" x1="397.12" y1="797.71" x2="397.12" y2="786.45"/><line class="cls-1" x1="445.98" y1="797.71" x2="445.98" y2="786.45"/><line class="cls-1" x1="494.83" y1="797.71" x2="494.83" y2="786.45"/><line class="cls-1" x1="543.69" y1="797.71" x2="543.69" y2="786.45"/><line class="cls-1" x1="592.55" y1="797.71" x2="592.55" y2="786.45"/><line class="cls-1" x1="641.4" y1="797.71" x2="641.4" y2="786.45"/><line class="cls-1" x1="690.26" y1="797.71" x2="690.26" y2="786.45"/><line class="cls-1" x1="739.12" y1="797.71" x2="739.12" y2="786.45"/><line class="cls-1" x1="787.98" y1="797.71" x2="787.98" y2="786.45"/><line class="cls-1" x1="836.83" y1="797.71" x2="836.83" y2="786.45"/><line class="cls-1" x1="885.69" y1="797.71" x2="885.69" y2="786.45"/><line class="cls-1" x1="934.55" y1="797.71" x2="934.55" y2="786.45"/><line class="cls-1" x1="983.4" y1="797.71" x2="983.4" y2="786.45"/><line class="cls-1" x1="1032.26" y1="797.71" x2="1032.26" y2="786.45"/><line class="cls-1" x1="1081.12" y1="797.71" x2="1081.12" y2="786.45"/><line class="cls-1" x1="1129.98" y1="797.71" x2="1129.98" y2="786.45"/><line class="cls-1" x1="1178.83" y1="797.71" x2="1178.83" y2="786.45"/><line class="cls-1" x1="1227.69" y1="797.71" x2="1227.69" y2="786.45"/><line class="cls-1" x1="1276.55" y1="797.71" x2="1276.55" y2="786.45"/><line class="cls-1" x1="1325.4" y1="797.71" x2="1325.4" y2="786.45"/><line class="cls-1" x1="1374.26" y1="797.71" x2="1374.26" y2="786.45"/><line class="cls-1" x1="1423.12" y1="797.71" x2="1423.12" y2="786.45"/><polyline class="cls-2" points="76.12 328.81 223.12 310.39 418.12 331.11 614.12 352.6 812.12 379.47 1008.12 353.37 1252.12 321.13 1399.12 312.69"/><polyline class="cls-3" points="79.12 363.35 226.12 374.86 421.12 338.79 616.12 352.6 812.12 329.57 1008.12 355.67 1252.12 361.81 1399.12 392.51"/><polyline class="cls-4" points="80.12 707.98 225.12 714.89 421.12 731.01 616.12 695.7 813.12 688.79 1008.12 688.79 1252.12 714.89 1399.12 692.63"/><g class="cls-5"><text class="cls-6" transform="translate(578.5 878.74) rotate(-90)">2016</text></g><g class="cls-5"><text class="cls-6" transform="translate(1165.5 876.74) rotate(-90)">2017</text></g><circle class="cls-7" cx="78.12" cy="333.2" r="10"/><circle class="cls-8" cx="421.12" cy="732.2" r="10"/><circle class="cls-8" cx="617.12" cy="692.2" r="10"/><circle class="cls-8" cx="812.12" cy="687.2" r="10"/><circle class="cls-8" cx="1008.12" cy="688.2" r="10"/><circle class="cls-8" cx="1255.12" cy="717.2" r="10"/><circle class="cls-8" cx="1402.12" cy="689.2" r="10"/><circle class="cls-8" cx="76.12" cy="709.2" r="10"/><circle class="cls-8" cx="226.12" cy="717.2" r="10"/><circle class="cls-9" cx="80.12" cy="361.2" r="10"/><circle class="cls-9" cx="226.12" cy="372.2" r="10"/><circle class="cls-9" cx="421.12" cy="340.2" r="10"/><circle class="cls-9" cx="620.12" cy="352.2" r="10"/><circle class="cls-9" cx="812.12" cy="329.2" r="10"/><circle class="cls-9" cx="1008.12" cy="347.2" r="10"/><circle class="cls-9" cx="1252.12" cy="361.2" r="10"/><circle class="cls-9" cx="1399.12" cy="395.2" r="10"/><circle class="cls-7" cx="223.12" cy="308.2" r="10"/><circle class="cls-7" cx="421.12" cy="336.2" r="10"/><circle class="cls-7" cx="620.12" cy="356.2" r="10"/><circle class="cls-7" cx="809.12" cy="381.2" r="10"/><circle class="cls-7" cx="1008.12" cy="355.2" r="10"/><circle class="cls-7" cx="1249.12" cy="323.2" r="10"/><circle class="cls-7" cx="1399.12" cy="313.2" r="10"/><g class="cls-5"><text class="cls-10" transform="translate(627.04 917.84) rotate(-90)">FEBRERO</text></g><g class="cls-5"><text class="cls-11" transform="translate(90 184.53)"><tspan xml:space="preserve">Elecciones al Parlament  27S</tspan></text></g><g class="cls-5"><text class="cls-11" transform="translate(527 258.53)">Elecciones Generales 20D</text></g><g class="cls-5"><text class="cls-11" transform="translate(819 260.53)">Elecciones Generales 26J</text></g><g class="cls-5"><text class="cls-11" transform="translate(579 196.53)">Puigdemont, elegido President</text></g><g class="cls-5"><text class="cls-11" transform="translate(974 196.53)">Cuestión de confianza a Puigdemont</text></g><g class="cls-5"><text class="cls-12" transform="translate(819 236.53)">Junio de 2016</text></g><g class="cls-5"><text class="cls-12" transform="translate(974 173.53)">Junio de 2016</text></g><g class="cls-5"><text class="cls-12" transform="translate(580 174.53)">Enero de 2016</text></g><g class="cls-5"><text class="cls-12" transform="translate(527 236.53)">Diciembre de 2015</text></g><g class="cls-5"><text class="cls-12" transform="translate(183 161.53)">Septiembre de 2015</text></g><g class="cls-5"><text class="cls-12" transform="translate(99 231.53)">Marzo de 2015</text></g><g class="cls-5"><text class="cls-12" transform="translate(1170 239.53)">Marzo de 2017</text></g><g class="cls-5"><text class="cls-11" transform="translate(1167 260.53)">Condena a Mas por el 9N</text></g><g class="cls-5"><text class="cls-11" transform="translate(98 257.53)">El<tspan class="cls-13" x="19.56" y="0"> </tspan><tspan x="25.28" y="0">TC tumba la Consulta</tspan></text></g><g class="cls-5"><text class="cls-11" transform="translate(0 998.53)">Fuente: Centre d’Estudis d’Opinió</text></g><g class="cls-5"><text class="cls-14" transform="translate(1409 296.53)">No</text></g><g class="cls-5"><text class="cls-15" transform="translate(1417 385.53)">Sí</text></g><g class="cls-5"><text class="cls-16" transform="translate(1352 667.53)">NS / NC</text></g><g class="cls-5"><text class="cls-10" transform="translate(673.04 892.84) rotate(-90)">MARZO</text></g><g class="cls-5"><text class="cls-10" transform="translate(80.04 891.84) rotate(-90)">MARZO</text></g><g class="cls-5"><text class="cls-10" transform="translate(134.04 878.84) rotate(-90)">ABRI<tspan class="cls-17" x="51.35" y="0">L</tspan></text></g><g class="cls-5"><text class="cls-10" transform="translate(183.04 878.84) rotate(-90)">M<tspan class="cls-18" x="18.33" y="0">A</tspan><tspan x="31.37" y="0">YO</tspan></text></g><g class="cls-5"><text class="cls-10" transform="translate(233.04 880.84) rotate(-90)">JUNIO</text></g><g class="cls-5"><text class="cls-10" transform="translate(282.04 876.84) rotate(-90)">JULIO</text></g><g class="cls-5"><text class="cls-10" transform="translate(327.04 903.84) rotate(-90)">AGOS<tspan class="cls-13" x="63.57" y="0">T</tspan><tspan x="76.61" y="0">O</tspan></text></g><g class="cls-5"><text class="cls-10" transform="translate(379.04 955.84) rotate(-90)">SEPTIEMBRE</text></g><g class="cls-5"><text class="cls-10" transform="translate(431.04 918.84) rotate(-90)">OCTUBRE</text></g><g class="cls-5"><text class="cls-10" transform="translate(477.04 943.84) rotate(-90)">NOVIEMBRE</text></g><g class="cls-5"><text class="cls-10" transform="translate(527.04 939.84) rotate(-90)">DICIEMBRE</text></g><g class="cls-5"><text class="cls-10" transform="translate(769.04 876.84) rotate(-90)">M<tspan class="cls-18" x="18.33" y="0">A</tspan><tspan x="31.37" y="0">YO</tspan></text></g><g class="cls-5"><text class="cls-10" transform="translate(819.04 878.84) rotate(-90)">JUNIO</text></g><g class="cls-5"><text class="cls-10" transform="translate(868.04 874.84) rotate(-90)">JULIO</text></g><g class="cls-5"><text class="cls-10" transform="translate(913.04 901.84) rotate(-90)">AGOS<tspan class="cls-13" x="63.57" y="0">T</tspan><tspan x="76.61" y="0">O</tspan></text></g><g class="cls-5"><text class="cls-10" transform="translate(965.04 953.84) rotate(-90)">SEPTIEMBRE</text></g><g class="cls-5"><text class="cls-10" transform="translate(1017.04 916.84) rotate(-90)">OCTUBRE</text></g><g class="cls-5"><text class="cls-10" transform="translate(1063.04 941.84) rotate(-90)">NOVIEMBRE</text></g><g class="cls-5"><text class="cls-10" transform="translate(1113.04 935.84) rotate(-90)">DICIEMBRE</text></g><g class="cls-5"><text class="cls-10" transform="translate(724.04 876.84) rotate(-90)">ABRI<tspan class="cls-17" x="51.35" y="0">L</tspan></text></g><g class="cls-5"><text class="cls-10" transform="translate(1210.04 917.84) rotate(-90)">FEBRERO</text></g><g class="cls-5"><text class="cls-10" transform="translate(1256.04 892.84) rotate(-90)">MARZO</text></g><g class="cls-5"><text class="cls-10" transform="translate(1352.04 876.84) rotate(-90)">M<tspan class="cls-18" x="18.33" y="0">A</tspan><tspan x="31.37" y="0">YO</tspan></text></g><g class="cls-5"><text class="cls-10" transform="translate(1402.04 878.84) rotate(-90)">JUNIO</text></g><g class="cls-5"><text class="cls-10" transform="translate(1307.04 876.84) rotate(-90)">ABRI<tspan class="cls-17" x="51.35" y="0">L</tspan></text></g><line class="cls-19" x1="376.12" y1="194.2" x2="376.12" y2="200.2"/><line class="cls-20" x1="376.12" y1="212.03" x2="376.12" y2="773.79"/><line class="cls-19" x1="376.12" y1="779.7" x2="376.12" y2="785.7"/><line class="cls-19" x1="822.12" y1="265.2" x2="822.12" y2="271.2"/><line class="cls-21" x1="822.12" y1="283.1" x2="822.12" y2="776.76"/><line class="cls-19" x1="822.12" y1="782.7" x2="822.12" y2="788.7"/><line class="cls-19" x1="1252.12" y1="268.2" x2="1252.12" y2="274.2"/><line class="cls-22" x1="1252.12" y1="286.01" x2="1252.12" y2="775.8"/><line class="cls-19" x1="1252.12" y1="781.7" x2="1252.12" y2="787.7"/><line class="cls-19" x1="527.12" y1="270.2" x2="527.12" y2="276.2"/><line class="cls-23" x1="527.12" y1="288.48" x2="527.12" y2="773.56"/><line class="cls-19" x1="527.12" y1="779.7" x2="527.12" y2="785.7"/><line class="cls-19" x1="578.12" y1="202.2" x2="578.12" y2="208.2"/><line class="cls-24" x1="578.12" y1="220.36" x2="578.12" y2="773.62"/><line class="cls-19" x1="578.12" y1="779.7" x2="578.12" y2="785.7"/><line class="cls-19" x1="975.12" y1="201.2" x2="975.12" y2="207.2"/><line class="cls-25" x1="975.12" y1="219.38" x2="975.12" y2="773.61"/><line class="cls-19" x1="975.12" y1="779.7" x2="975.12" y2="785.7"/><line class="cls-19" x1="97.12" y1="270.2" x2="97.12" y2="276.2"/><line class="cls-26" x1="97.12" y1="287.94" x2="97.12" y2="774.84"/><line class="cls-19" x1="97.12" y1="780.7" x2="97.12" y2="786.7"/><line class="cls-19" x1="1171.12" y1="268.2" x2="1413.62" y2="268.2"/><line class="cls-19" x1="97.62" y1="268.2" x2="334.12" y2="268.2"/><line class="cls-19" x1="87.62" y1="194.2" x2="376.12" y2="194.2"/><line class="cls-19" x1="526.62" y1="268.2" x2="788.12" y2="268.2"/><line class="cls-19" x1="578.62" y1="202.2" x2="877.12" y2="202.2"/><line class="cls-19" x1="973.62" y1="201.2" x2="1335.12" y2="201.2"/><line class="cls-19" x1="820.62" y1="266.2" x2="1081.12" y2="266.2"/><line class="cls-27" x1="12.54" y1="307.2" x2="1445.16" y2="307.2"/><line class="cls-27" x1="11.62" y1="402.2" x2="1451.62" y2="402.2"/><line class="cls-27" x1="11.62" y1="497.2" x2="1448.39" y2="497.2"/><line class="cls-27" x1="11.62" y1="593.2" x2="1448.39" y2="593.2"/><line class="cls-27" x1="12.54" y1="687.2" x2="1448.39" y2="687.2"/><line class="cls-19" x1="11.62" y1="786.2" x2="1445.12" y2="786.2"/><text class="cls-28" transform="translate(13.62 772.6) scale(1.03 1)">0</text><text class="cls-28" transform="translate(12.62 675.6) scale(1.03 1)">10</text><text class="cls-28" transform="translate(13.62 582.6) scale(1.03 1)">20</text><text class="cls-28" transform="translate(12.62 487.6) scale(1.03 1)">30</text><text class="cls-28" transform="translate(12.62 392.6) scale(1.03 1)">40</text><text class="cls-28" transform="translate(12.62 298.6) scale(1.03 1)">50</text><text class="cls-29" transform="translate(2.5 40.32)">¿Quiere que Catalunya se convierta en un Estado Independiente?</text><text class="cls-30" transform="translate(8.5 88.31)">Respuesta al cuestionario elaborado por el CEO, en porcentaje de la población</text><polygon class="cls-31" points="1255.62 967.74 1465.22 967.74 1465.22 999.58 1255.62 999.58 1255.62 967.74 1255.62 967.74"/><path class="cls-32" d="M1426.15,988.15h-8v1l2.11.5v14.83a1.76,1.76,0,0,1-1.48.75,3.15,3.15,0,0,1-2.6-1.91l-2-3.59a4.16,4.16,0,0,0-3.67-2.47V997c2.69-.07,5.07-2,5.07-4.57,0-3.08-2.8-4.28-6-4.28h-7.29v1l2.38.5v15h0l-2.74.53L1395,986.58a8.57,8.57,0,0,1-2.46,2.1l.26.75-6.23,15.26-1.88.51v1h5.67v-1l-1.86-.48,2.11-5.56h5.78l2,5.52-2.18.52v1h13.82v-1l-2.33-.49v-7c1.57.1,2.32.82,3.08,2.26l2.74,4.89a4.43,4.43,0,0,0,4,2.41,3.92,3.92,0,0,0,2.6-1.07h6.19a9.29,9.29,0,0,0,9.54-9c0-5.27-4.08-9-9.7-9Zm-35.07,9.6,2.44-6.41,2.35,6.41ZM1409,996.4h-1.23v-6.73h1.54a3,3,0,0,1,3.16,3.23,3.5,3.5,0,0,1-3.47,3.51Zm17,8.32h-2.58V989.66H1426c4.1,0,6.62,2.83,6.62,7.53s-2.62,7.53-6.69,7.53Z" transform="translate(-2.38 -13.3)"/><path class="cls-32" d="M1294.33,1004.72l-6.67-18.13a8.57,8.57,0,0,1-2.46,2.1l.26.75-6.23,15.26-1.33.51-.4,1H1283v-1l-1.86-.48,2.11-5.56H1289l2,5.52-2.18.52v1h7.42v-1l-2-.49Zm-10.6-7,2.44-6.41,2.35,6.41Z" transform="translate(-2.38 -13.3)"/><polygon class="cls-32" points="1276.04 988.33 1275.37 987.96 1271.46 991.51 1268.13 991.51 1268.13 976.37 1270.13 975.86 1270.13 974.85 1262.94 974.85 1262.94 975.86 1264.97 976.37 1264.97 991.39 1262.94 991.91 1262.94 992.91 1274.25 992.91 1276.04 988.33 1276.04 988.33"/><polygon class="cls-32" points="1307.42 974.85 1307.42 975.86 1309.59 976.37 1304.87 988.46 1299.91 976.35 1302.25 975.86 1302.25 974.85 1294.22 974.85 1294.22 975.86 1296.52 976.36 1303.65 993.54 1304.42 993.54 1311.52 976.39 1311.59 976.39 1313.81 975.86 1313.81 974.85 1307.42 974.85 1307.42 974.85"/><path class="cls-32" d="M1381,988.15v1l2.16.51s.16,8.95.08,11.21a4.56,4.56,0,0,1-4.86,4.41,4.49,4.49,0,0,1-4.86-4.64v-11l2.1-.47v-1h-7.26v1l2.06.49v11.1c.14,3.82,3.21,6.32,7.18,6.32s7-2.32,7.18-6.32l.14-11.08,2.12-.51v-1Z" transform="translate(-2.38 -13.3)"/><path class="cls-32" d="M1459.49,1004.68l-6.64-18.09a8.56,8.56,0,0,1-2.46,2.1l.26.75-6.24,15.33-1.06.43-1.44-.45V989.66l2.21-.5v-1h-7.56v1l2.18.52v15l-2.1.49v1h11.56v-1l-1.86-.48,2.11-5.56h5.78l2,5.52-2.18.52v1h7.42v-1l-2-.52Zm-10.57-6.93,2.44-6.41,2.35,6.41Z" transform="translate(-2.38 -13.3)"/><path class="cls-32" d="M1342.22,988.15v1l2.2.52.14,11.82-11.32-13.34h-4.83v1l2.19.48.18.1-.16,14.94h0l-2.23.53-6.83-18.62a8.57,8.57,0,0,1-2.46,2.1l.26.75-6.23,15.26-1.88.51v1h5.67v-1l-1.86-.48,2.11-5.56h5.78l2,5.52-2.18.52v1h11.88v-1l-2.33-.51-.14-13.07,12.94,15.21h.86l.17-17.18,2.19-.5v-1Zm-24.59,9.6,2.44-6.41,2.35,6.41Z" transform="translate(-2.38 -13.3)"/><path class="cls-32" d="M1361.23,997v1l2,.51v5.82a6.77,6.77,0,0,1-4.08,1.36c-4.11,0-6.73-3.46-6.73-8.25s2.58-8.62,6.79-8.62a6.43,6.43,0,0,1,6,4.92l.58-.34v-5.71l-.52-.29-1.1,1.39a11.4,11.4,0,0,0-5-1.27,10.11,10.11,0,0,0-10.13,10c0,5.63,4,9.63,9.36,9.63a9.33,9.33,0,0,0,5.83-1.94l1.59,1.06h.52v-7.75l1.7-.65V997Z" transform="translate(-2.38 -13.3)"/></svg>