<svg id="0818f910-b831-4ad2-afed-369dca7b84c7" data-name="Capa 1" xmlns="http://www.w3.org/2000/svg" viewBox="0 0 532 428"><defs><style>.\32 f572843-6367-481d-a6f0-de6f4b0a2f52,.\36 4483ba4-c7aa-4876-8ce3-63968d486820,.\37 480d0e8-fc78-4bb3-8788-20ea1ccadab1{fill:none;}.\32 f572843-6367-481d-a6f0-de6f4b0a2f52{stroke:#757575;}.\31 c2f27c5-dcb4-4402-a2ef-6ec16f3cc2c3,.\32 f572843-6367-481d-a6f0-de6f4b0a2f52,.\33 1969f31-d4f9-4f66-8a8b-fc5bb83c9b15,.\34 7244884-f9e0-4fbf-a41b-99af2a3a5f44,.\36 4483ba4-c7aa-4876-8ce3-63968d486820,.\36 d3c4cfe-3cec-4d67-beba-5edaf202491d,.\37 480d0e8-fc78-4bb3-8788-20ea1ccadab1,.b440a770-c6bd-4cfa-9123-8bbe103c227e,.db069d2b-7204-49a8-9c12-8df1e46c8e66,.dbb9469c-b8b2-4334-80ef-09dad9402180,.e4668ec9-d12e-43d4-b86f-7d408e9f1e3b{stroke-miterlimit:10;}.\33 49bada8-a097-4590-816e-98ca91d0466e{font-size:16px;}.\31 f5aa9f8-d559-4c88-8067-ff6f799a54c6,.\33 3c6c0fd-7e99-4819-9819-518c38fe66dc,.\33 49bada8-a097-4590-816e-98ca91d0466e,.\35 3b8c337-2cb5-414e-a774-6d1262a9dc03{fill:#323232;}.\30 bf3d235-bb31-43fd-8c89-b17392d1201e,.\31 f5aa9f8-d559-4c88-8067-ff6f799a54c6,.\33 3c6c0fd-7e99-4819-9819-518c38fe66dc,.\33 49bada8-a097-4590-816e-98ca91d0466e{font-family:Arial-BoldMT, Arial;}.\31 f5aa9f8-d559-4c88-8067-ff6f799a54c6,.\33 3c6c0fd-7e99-4819-9819-518c38fe66dc,.\33 49bada8-a097-4590-816e-98ca91d0466e,.\35 61677b8-a572-427c-88fe-834db74a85ab,.\36 4e2a41b-798f-41ea-953e-8fd7ded1eed1,.\37 497d287-8c09-4d64-8360-1fb9acae4bf6,.\38 92861bb-eaeb-4021-bc90-b471620d0aad,.aece3318-d392-48b2-9f4a-dd04689ab8d4{font-weight:700;}.\30 bf3d235-bb31-43fd-8c89-b17392d1201e,.\33 3c6c0fd-7e99-4819-9819-518c38fe66dc,.\35 3b8c337-2cb5-414e-a774-6d1262a9dc03{font-size:15px;}.\31 f5aa9f8-d559-4c88-8067-ff6f799a54c6{font-size:26px;}.\34 d34b969-0f8c-4ff4-8180-c8a0f51cb502,.\35 3b8c337-2cb5-414e-a774-6d1262a9dc03,.\37 6d736b3-fc60-4f21-a93e-0c2e982af88e,.a6f2e90e-a7b1-484e-958d-bde306b64f1d{font-family:ArialMT, Arial;}.\37 6d736b3-fc60-4f21-a93e-0c2e982af88e{font-size:13px;}.\30 bf3d235-bb31-43fd-8c89-b17392d1201e,.\37 6d736b3-fc60-4f21-a93e-0c2e982af88e{fill:#757575;}.a818b6e9-3adf-49f4-bbf4-c0d47be61f85{fill:#283659;}.\38 90b1aa3-dbcf-48c0-9ed6-889c1a93a37a{fill:#fff;}.\34 d34b969-0f8c-4ff4-8180-c8a0f51cb502,.\38 92861bb-eaeb-4021-bc90-b471620d0aad{letter-spacing:0em;}.\35 61677b8-a572-427c-88fe-834db74a85ab{letter-spacing:-0.02em;}.\36 4e2a41b-798f-41ea-953e-8fd7ded1eed1{letter-spacing:-0.07em;}.aece3318-d392-48b2-9f4a-dd04689ab8d4{letter-spacing:0em;}.\36 4483ba4-c7aa-4876-8ce3-63968d486820,.\37 480d0e8-fc78-4bb3-8788-20ea1ccadab1{stroke:#323232;}.\36 4483ba4-c7aa-4876-8ce3-63968d486820{stroke-dasharray:5.09 5.09;}.\30 ed4bc93-c460-4171-b73f-99cd077cf5ce{opacity:0.49;}.e4668ec9-d12e-43d4-b86f-7d408e9f1e3b{fill:#59a5a5;}.\31 c2f27c5-dcb4-4402-a2ef-6ec16f3cc2c3,.\33 1969f31-d4f9-4f66-8a8b-fc5bb83c9b15,.\34 7244884-f9e0-4fbf-a41b-99af2a3a5f44,.\36 d3c4cfe-3cec-4d67-beba-5edaf202491d,.b440a770-c6bd-4cfa-9123-8bbe103c227e,.db069d2b-7204-49a8-9c12-8df1e46c8e66,.dbb9469c-b8b2-4334-80ef-09dad9402180,.e4668ec9-d12e-43d4-b86f-7d408e9f1e3b{stroke:#fff;}.\36 d3c4cfe-3cec-4d67-beba-5edaf202491d{fill:#d57928;}.\31 c2f27c5-dcb4-4402-a2ef-6ec16f3cc2c3{fill:#991d26;}.dbb9469c-b8b2-4334-80ef-09dad9402180{fill:#8e244f;}.\34 7244884-f9e0-4fbf-a41b-99af2a3a5f44{fill:#ffe600;}.b440a770-c6bd-4cfa-9123-8bbe103c227e{fill:#1d6d6d;}.cc677d75-d9b1-45c3-8027-a4192dca23e2{opacity:0.76;}.db069d2b-7204-49a8-9c12-8df1e46c8e66{fill:#3f4d78;}.\33 1969f31-d4f9-4f66-8a8b-fc5bb83c9b15{fill:#efb21b;}</style></defs><title>2017.11_Metaencuesta2_pvotocompara</title><line class="2f572843-6367-481d-a6f0-de6f4b0a2f52" x1="357.18" y1="139.55" x2="266.5" y2="139.55"/><line class="2f572843-6367-481d-a6f0-de6f4b0a2f52" x1="230.18" y1="139.55" x2="124.42" y2="139.55"/><text class="349bada8-a097-4590-816e-98ca91d0466e" transform="translate(37.19 94.42) scale(0.99 1)">Promedio de las encuestas en el 21-D</text><text class="33c6c0fd-7e99-4819-9819-518c38fe66dc" transform="translate(36.19 246.42) scale(0.99 1)">Porcentaje de voto en el 27-S</text><text class="1f5aa9f8-d559-4c88-8067-ff6f799a54c6" transform="translate(25.34 20.62)">Porcentaje de voto según los sondeos</text><text class="53b8c337-2cb5-414e-a774-6d1262a9dc03" transform="translate(52.05 43.74)">Comparación del promedio de las encuestas para el 21-D con <tspan x="80.04" y="18">el resultado de las elecciones del 27S</tspan></text><text class="76d736b3-fc60-4f21-a93e-0c2e982af88e" transform="translate(9.5 419.02) scale(0.99 1)">Fuente: Electrograph</text><polygon class="a818b6e9-3adf-49f4-bbf4-c0d47be61f85" points="432 402.27 528.44 402.27 528.44 416.93 432 416.93 432 402.27 432 402.27"/><path class="890b1aa3-dbcf-48c0-9ed6-889c1a93a37a" d="M509.36,405.55h-3.7V406l1,.23v6.81a.81.81,0,0,1-.68.35,1.45,1.45,0,0,1-1.2-.88l-.92-1.65a1.91,1.91,0,0,0-1.69-1.14v-.12a2.26,2.26,0,0,0,2.33-2.1c0-1.42-1.29-2-2.78-2h-3.35V406l1.1.23v6.91h0l-1.26.24L495,404.83a4,4,0,0,1-1.13,1l.12.35-2.87,7-.86.23v.46h2.62v-.46l-.85-.22,1-2.56h2.66l.93,2.54-1,.24v.46H502v-.46l-1-.23V410a1.57,1.57,0,0,1,1.42,1l1.26,2.25a2,2,0,0,0,1.82,1.11,1.8,1.8,0,0,0,1.2-.49h2.85a4.28,4.28,0,0,0,4.39-4.16,4.17,4.17,0,0,0-4.47-4.16ZM493.23,410l1.12-3,1.08,3Zm8.23-.62h-.57v-3.1h.71a1.4,1.4,0,0,1,1.45,1.48,1.61,1.61,0,0,1-1.57,1.62Zm7.82,3.83h-1.18v-6.93h1.22c1.89,0,3,1.31,3,3.46s-1.21,3.46-3.08,3.46Z"/><path class="890b1aa3-dbcf-48c0-9ed6-889c1a93a37a" d="M448.71,413.17l-3.07-8.34a3.94,3.94,0,0,1-1.13,1l.12.35-2.85,7-.61.23-.18.46h2.54v-.46l-.85-.22,1-2.56h2.66l.93,2.54-1,.24v.46h3.42v-.46l-.91-.23Zm-4.87-3.2,1.13-3,1.08,3Z"/><polygon class="890b1aa3-dbcf-48c0-9ed6-889c1a93a37a" points="441.39 411.75 441.08 411.58 439.29 413.21 437.75 413.21 437.75 406.25 438.68 406.01 438.68 405.54 435.37 405.54 435.37 406.01 436.3 406.25 436.3 413.15 435.37 413.39 435.37 413.86 440.57 413.86 441.39 411.75 441.39 411.75"/><polygon class="890b1aa3-dbcf-48c0-9ed6-889c1a93a37a" points="455.83 405.54 455.83 406.01 456.83 406.25 454.66 411.81 452.37 406.24 453.45 406.01 453.45 405.54 449.76 405.54 449.76 406.01 450.82 406.24 454.1 414.14 454.45 414.14 457.72 406.25 457.75 406.25 458.77 406.01 458.77 405.54 455.83 405.54 455.83 405.54"/><path class="890b1aa3-dbcf-48c0-9ed6-889c1a93a37a" d="M488.6,405.55V406l1,.24s.07,4.12,0,5.16a2.1,2.1,0,0,1-2.14,2h-.11a2.07,2.07,0,0,1-2.24-2.13v-5.07l1-.22v-.46h-3.34V406l.95.23v5.11a3.07,3.07,0,0,0,3.3,2.91,3,3,0,0,0,3.3-2.91l.06-5.1,1-.24v-.46Z"/><path class="890b1aa3-dbcf-48c0-9ed6-889c1a93a37a" d="M524.7,413.15l-3.06-8.32a3.94,3.94,0,0,1-1.13,1l.12.35-2.86,7-.49.2-.66-.21v-6.94l1-.23v-.46h-3.48V406l1,.24v6.92l-1,.23v.46h5.3v-.46l-.85-.23,1-2.56h2.66l.93,2.54-1,.24v.46h3.43v-.46l-.92-.24ZM519.84,410l1.13-3,1.08,3Z"/><path class="890b1aa3-dbcf-48c0-9ed6-889c1a93a37a" d="M470.75,405.55V406l1,.24.06,5.44-5.21-6.14H464.4V406l1,.22.08,0-.07,6.88h0l-1,.24-3.14-8.56a4,4,0,0,1-1.1,1l.12.35-2.87,7-.86.23v.46h2.62v-.46l-.85-.22,1-2.56h2.66l.93,2.54-1,.24v.46h5.47v-.46l-1-.24-.12-6,6,7h.39l.08-7.9,1-.23v-.46ZM459.44,410l1.13-3,1.08,3Z"/><path class="890b1aa3-dbcf-48c0-9ed6-889c1a93a37a" d="M479.52,409.61v.46l.94.24V413a3.11,3.11,0,0,1-1.88.62c-1.89,0-3.1-1.57-3.1-3.79s1.18-4,3.14-4a3,3,0,0,1,2.78,2.26l.27-.16v-2.62l-.24-.13-.52.64a5.24,5.24,0,0,0-2.3-.59,4.65,4.65,0,0,0-4.66,4.58,4.22,4.22,0,0,0,4,4.43h.3a4.29,4.29,0,0,0,2.68-.89l.73.49h.24V410.3l.79-.3v-.38Z"/><text class="0bf3d235-bb31-43fd-8c89-b17392d1201e" transform="translate(60.61 159.04) rotate(-0.14)"><tspan class="7497d287-8c09-4d64-8360-1fb9acae4bf6">ERC </tspan><tspan class="4d34b969-0f8c-4ff4-8180-c8a0f51cb502" x="35.84" y="0">23</tspan></text><text class="0bf3d235-bb31-43fd-8c89-b17392d1201e" transform="translate(74.76 281.06) rotate(-0.14)"><tspan class="7497d287-8c09-4d64-8360-1fb9acae4bf6">JxSÍ </tspan><tspan class="a6f2e90e-a7b1-484e-958d-bde306b64f1d" x="35.02" y="0">39,5</tspan></text><text class="0bf3d235-bb31-43fd-8c89-b17392d1201e" transform="translate(191.66 281.05) rotate(-0.14)"><tspan class="7497d287-8c09-4d64-8360-1fb9acae4bf6">CU</tspan><tspan class="561677b8-a572-427c-88fe-834db74a85ab" x="21.67" y="0">P</tspan><tspan class="892861bb-eaeb-4021-bc90-b471620d0aad" x="31.4" y="0"> </tspan><tspan class="a6f2e90e-a7b1-484e-958d-bde306b64f1d" x="35.57" y="0">8,2</tspan></text><text class="0bf3d235-bb31-43fd-8c89-b17392d1201e" transform="translate(428.49 281.03) rotate(-0.14)"><tspan class="7497d287-8c09-4d64-8360-1fb9acae4bf6">P</tspan><tspan class="561677b8-a572-427c-88fe-834db74a85ab" x="10" y="0">P</tspan><tspan class="7497d287-8c09-4d64-8360-1fb9acae4bf6" x="19.74" y="0"> </tspan><tspan class="a6f2e90e-a7b1-484e-958d-bde306b64f1d" x="23.91" y="0">8,5</tspan></text><text class="0bf3d235-bb31-43fd-8c89-b17392d1201e" transform="translate(358.6 281.04) rotate(-0.14)"><tspan class="7497d287-8c09-4d64-8360-1fb9acae4bf6">Cs </tspan><tspan class="a6f2e90e-a7b1-484e-958d-bde306b64f1d" x="23.34" y="0">17,9</tspan></text><text class="0bf3d235-bb31-43fd-8c89-b17392d1201e" transform="translate(284.77 281.06) rotate(-0.14)"><tspan class="7497d287-8c09-4d64-8360-1fb9acae4bf6">PSC </tspan><tspan class="a6f2e90e-a7b1-484e-958d-bde306b64f1d" x="35.01" y="0">12,7</tspan></text><text class="0bf3d235-bb31-43fd-8c89-b17392d1201e" transform="translate(297.24 259.06) rotate(-0.14)"><tspan class="7497d287-8c09-4d64-8360-1fb9acae4bf6">CSQ</tspan><tspan class="561677b8-a572-427c-88fe-834db74a85ab" x="32.5" y="0">P</tspan><tspan class="892861bb-eaeb-4021-bc90-b471620d0aad" x="42.24" y="0"> </tspan><tspan class="a6f2e90e-a7b1-484e-958d-bde306b64f1d" x="46.41" y="0">8,9</tspan></text><text class="0bf3d235-bb31-43fd-8c89-b17392d1201e" transform="translate(146.99 159.07) rotate(-0.14)"><tspan class="7497d287-8c09-4d64-8360-1fb9acae4bf6">JxC</tspan><tspan class="64e2a41b-798f-41ea-953e-8fd7ded1eed1" x="27.52" y="0">A</tspan><tspan class="7497d287-8c09-4d64-8360-1fb9acae4bf6" x="37.24" y="0">T </tspan><tspan class="a6f2e90e-a7b1-484e-958d-bde306b64f1d" x="50.57" y="0">16,4</tspan></text><text class="0bf3d235-bb31-43fd-8c89-b17392d1201e" transform="translate(289.99 135.06) rotate(-0.14)"><tspan class="7497d287-8c09-4d64-8360-1fb9acae4bf6">CeC-</tspan><tspan class="561677b8-a572-427c-88fe-834db74a85ab" x="35" y="0">P</tspan><tspan class="aece3318-d392-48b2-9f4a-dd04689ab8d4" x="44.74" y="0"> </tspan><tspan class="4d34b969-0f8c-4ff4-8180-c8a0f51cb502" x="48.9" y="0">8,1</tspan></text><text class="0bf3d235-bb31-43fd-8c89-b17392d1201e" transform="translate(124.66 135.05) rotate(-0.14)"><tspan class="7497d287-8c09-4d64-8360-1fb9acae4bf6">CU</tspan><tspan class="561677b8-a572-427c-88fe-834db74a85ab" x="21.67" y="0">P</tspan><tspan class="892861bb-eaeb-4021-bc90-b471620d0aad" x="31.4" y="0"> </tspan><tspan class="a6f2e90e-a7b1-484e-958d-bde306b64f1d" x="35.57" y="0">6,1</tspan></text><text class="0bf3d235-bb31-43fd-8c89-b17392d1201e" transform="translate(275.77 159.06) rotate(-0.14)"><tspan class="7497d287-8c09-4d64-8360-1fb9acae4bf6">PSC </tspan><tspan class="a6f2e90e-a7b1-484e-958d-bde306b64f1d" x="35.01" y="0">15,7</tspan></text><text class="0bf3d235-bb31-43fd-8c89-b17392d1201e" transform="translate(356.6 159.04) rotate(-0.14)"><tspan class="7497d287-8c09-4d64-8360-1fb9acae4bf6">Cs </tspan><tspan class="a6f2e90e-a7b1-484e-958d-bde306b64f1d" x="23.34" y="0">21,5</tspan></text><text class="0bf3d235-bb31-43fd-8c89-b17392d1201e" transform="translate(431.49 159.03) rotate(-0.14)"><tspan class="7497d287-8c09-4d64-8360-1fb9acae4bf6">P</tspan><tspan class="561677b8-a572-427c-88fe-834db74a85ab" x="10" y="0">P</tspan><tspan class="7497d287-8c09-4d64-8360-1fb9acae4bf6" x="19.74" y="0"> </tspan><tspan class="a6f2e90e-a7b1-484e-958d-bde306b64f1d" x="23.91" y="0">6,8</tspan></text><text class="0bf3d235-bb31-43fd-8c89-b17392d1201e" transform="translate(213.77 389.08) scale(0.99 1)"><tspan class="7497d287-8c09-4d64-8360-1fb9acae4bf6">50%</tspan><tspan class="a6f2e90e-a7b1-484e-958d-bde306b64f1d" x="30.02" y="0" xml:space="preserve"> de los votos</tspan></text><line class="7480d0e8-fc78-4bb3-8788-20ea1ccadab1" x1="256.5" y1="109" x2="256.5" y2="111.5"/><line class="64483ba4-c7aa-4876-8ce3-63968d486820" x1="256.5" y1="116.59" x2="256.5" y2="368.46"/><line class="7480d0e8-fc78-4bb3-8788-20ea1ccadab1" x1="256.5" y1="371" x2="256.5" y2="373.5"/><g class="0ed4bc93-c460-4171-b73f-99cd077cf5ce"><rect class="e4668ec9-d12e-43d4-b86f-7d408e9f1e3b" x="428.88" y="287.9" width="38.12" height="48.1"/></g><g class="0ed4bc93-c460-4171-b73f-99cd077cf5ce"><rect class="6d3c4cfe-3cec-4d67-beba-5edaf202491d" x="348.2" y="287.9" width="80.4" height="48.1"/></g><g class="0ed4bc93-c460-4171-b73f-99cd077cf5ce"><rect class="1c2f27c5-dcb4-4402-a2ef-6ec16f3cc2c3" x="290.85" y="287.9" width="57.13" height="48.1"/></g><g class="0ed4bc93-c460-4171-b73f-99cd077cf5ce"><rect class="dbb9469c-b8b2-4334-80ef-09dad9402180" x="250.84" y="287.9" width="40.09" height="48.1"/></g><g class="0ed4bc93-c460-4171-b73f-99cd077cf5ce"><rect class="47244884-f9e0-4fbf-a41b-99af2a3a5f44" x="214.17" y="287.9" width="36.77" height="48.1"/></g><g class="0ed4bc93-c460-4171-b73f-99cd077cf5ce"><rect class="b440a770-c6bd-4cfa-9123-8bbe103c227e" x="36.8" y="287.9" width="177.31" height="48.1"/></g><line class="2f572843-6367-481d-a6f0-de6f4b0a2f52" x1="266.42" y1="139.8" x2="266.42" y2="163.79"/><line class="2f572843-6367-481d-a6f0-de6f4b0a2f52" x1="365.18" y1="263.55" x2="274.5" y2="263.55"/><line class="2f572843-6367-481d-a6f0-de6f4b0a2f52" x1="274.42" y1="263.8" x2="274.42" y2="287.79"/><line class="2f572843-6367-481d-a6f0-de6f4b0a2f52" x1="230.42" y1="139.8" x2="230.42" y2="163.79"/><g class="cc677d75-d9b1-45c3-8027-a4192dca23e2"><rect class="e4668ec9-d12e-43d4-b86f-7d408e9f1e3b" x="436.75" y="164" width="31.25" height="48"/></g><g class="cc677d75-d9b1-45c3-8027-a4192dca23e2"><rect class="6d3c4cfe-3cec-4d67-beba-5edaf202491d" x="342.49" y="164" width="94.09" height="48"/></g><g class="cc677d75-d9b1-45c3-8027-a4192dca23e2"><rect class="1c2f27c5-dcb4-4402-a2ef-6ec16f3cc2c3" x="272.77" y="164" width="69.64" height="48"/></g><g class="cc677d75-d9b1-45c3-8027-a4192dca23e2"><rect class="dbb9469c-b8b2-4334-80ef-09dad9402180" x="235.81" y="164" width="36.83" height="48"/></g><g class="cc677d75-d9b1-45c3-8027-a4192dca23e2"><rect class="db069d2b-7204-49a8-9c12-8df1e46c8e66" x="141.61" y="164" width="67.11" height="48"/></g><g class="cc677d75-d9b1-45c3-8027-a4192dca23e2"><rect class="31969f31-d4f9-4f66-8a8b-fc5bb83c9b15" x="36.78" y="164" width="104.07" height="48"/></g><g class="cc677d75-d9b1-45c3-8027-a4192dca23e2"><rect class="47244884-f9e0-4fbf-a41b-99af2a3a5f44" x="209.56" y="164" width="27.05" height="48"/></g></svg>