<svg id="19ad90e6-a510-4f12-adde-430a521bae8a" data-name="Capa 1" xmlns="http://www.w3.org/2000/svg" viewBox="0 0 532 402"><defs><style>.\36 d1e9832-0050-4168-9e57-27e8fc505693{font-size:26px;}.\32 620dd86-7864-485e-9688-8b58f848be56,.\36 d1e9832-0050-4168-9e57-27e8fc505693,.ec1080b9-8104-4fe9-a85f-8fc97707bc16{fill:#323232;}.\31 c895923-589f-4ad3-96ff-367f90dd5fad,.\36 d1e9832-0050-4168-9e57-27e8fc505693,.ec1080b9-8104-4fe9-a85f-8fc97707bc16,.fa3e3679-9d74-4919-bbe7-15797d6d59f6{font-family:Arial-BoldMT, Arial;}.\31 9759e93-9c3c-462f-bca0-8c409c4e47b4,.\32 ef77218-70c3-4ee0-aed7-6a0f9f4fd471,.\33 572af0c-b46b-4bf3-848c-4d6fde0cd8d1,.\36 d1e9832-0050-4168-9e57-27e8fc505693,.\39 59f3992-f498-4b8d-927b-345516588efb,.ec1080b9-8104-4fe9-a85f-8fc97707bc16,.fa3e3679-9d74-4919-bbe7-15797d6d59f6,.fcf587c7-c0a4-4b8c-89a5-04530b99d8b5{font-weight:700;}.\32 620dd86-7864-485e-9688-8b58f848be56,.ec1080b9-8104-4fe9-a85f-8fc97707bc16{font-size:15px;}.\32 620dd86-7864-485e-9688-8b58f848be56,.\32 d3b8233-67e4-44c8-8113-8517cdeb150b,.\37 a010082-837c-4e2d-b436-9f154d3629d7,.\38 a7b8f07-4bc9-4331-9709-2fbf1d04896f,.a3e2395f-576a-4a2c-a23b-1794c6a0defb{font-family:ArialMT, Arial;}.\32 d3b8233-67e4-44c8-8113-8517cdeb150b{font-size:11px;}.\31 c895923-589f-4ad3-96ff-367f90dd5fad,.\32 d3b8233-67e4-44c8-8113-8517cdeb150b,.b4817e64-6433-49fc-b6cc-8c74f235be07{fill:#757575;}.\36 296f8ca-fe7c-49b5-bce7-60034412db68{fill:#283659;}.\35 248feb6-563e-4d7c-98eb-51e7864ab7da,.ae24002c-3051-44b6-a913-0a5bc7b5f36c{fill:#fff;}.\31 90419fc-585c-4e26-a5af-bdb5edbbfd98{fill:#efb21b;}.\30 ac1710e-9e28-4679-9612-9adc4bc0f365,.\31 90419fc-585c-4e26-a5af-bdb5edbbfd98,.\33 4b0e7ed-8d1a-47da-bf81-6d47494dcad5,.\35 248feb6-563e-4d7c-98eb-51e7864ab7da,.\36 6d131ea-5d02-4e2c-81c5-06f2312efd23,.\37 7f12629-990a-45f1-81fa-082b3219b541,.\37 abba18b-07c7-49e5-9d37-2229b0b2a5e6,.\38 101fa0f-2811-479c-ae05-53061d9af259{stroke:#fff;stroke-linejoin:round;stroke-width:1.6px;}.\30 ac1710e-9e28-4679-9612-9adc4bc0f365,.\31 90419fc-585c-4e26-a5af-bdb5edbbfd98,.\33 4b0e7ed-8d1a-47da-bf81-6d47494dcad5,.\36 6d131ea-5d02-4e2c-81c5-06f2312efd23,.\37 7f12629-990a-45f1-81fa-082b3219b541,.\37 abba18b-07c7-49e5-9d37-2229b0b2a5e6,.\38 101fa0f-2811-479c-ae05-53061d9af259{opacity:0.77;}.\30 ac1710e-9e28-4679-9612-9adc4bc0f365{fill:#3f4d78;}.\38 101fa0f-2811-479c-ae05-53061d9af259{fill:#ffe600;}.\37 abba18b-07c7-49e5-9d37-2229b0b2a5e6{fill:#8e244f;}.\36 6d131ea-5d02-4e2c-81c5-06f2312efd23{fill:#991d26;}.\33 4b0e7ed-8d1a-47da-bf81-6d47494dcad5{fill:#d57928;}.\37 7f12629-990a-45f1-81fa-082b3219b541{fill:#59a5a5;}.\31 c895923-589f-4ad3-96ff-367f90dd5fad{font-size:13px;}.\31 9759e93-9c3c-462f-bca0-8c409c4e47b4{letter-spacing:-0.02em;}.\37 a010082-837c-4e2d-b436-9f154d3629d7,.\39 59f3992-f498-4b8d-927b-345516588efb{letter-spacing:0em;}.\32 ef77218-70c3-4ee0-aed7-6a0f9f4fd471{letter-spacing:-0.02em;}.\38 a7b8f07-4bc9-4331-9709-2fbf1d04896f,.fcf587c7-c0a4-4b8c-89a5-04530b99d8b5{letter-spacing:0em;}.\30 c4abded-8116-4c3e-ba19-363548ad9deb{fill:none;stroke:#323232;stroke-miterlimit:10;}</style></defs><title>2017.11_Metaencuesta</title><text class="6d1e9832-0050-4168-9e57-27e8fc505693" transform="translate(63.62 37.62)">Promedio de los sondeos del 21-D</text><text class="2620dd86-7864-485e-9688-8b58f848be56" transform="translate(23.76 56.74)">De las encuestas publicadas desde el 26 de octubre al 23 de noviembre</text><text class="2d3b8233-67e4-44c8-8113-8517cdeb150b" transform="translate(4.5 391.02) scale(0.99 1)">Fuente: Electrograph</text><text class="2d3b8233-67e4-44c8-8113-8517cdeb150b" transform="translate(8.5 374.02) scale(0.99 1)">*La suma de los porcentajes da 97,46% por el margen de error de las encuestas</text><polygon class="6296f8ca-fe7c-49b5-bce7-60034412db68" points="429 374.27 525.44 374.27 525.44 388.93 429 388.93 429 374.27 429 374.27"/><path class="ae24002c-3051-44b6-a913-0a5bc7b5f36c" d="M506.36,377.55h-3.7V378l1,.23v6.81a.81.81,0,0,1-.68.35,1.45,1.45,0,0,1-1.2-.88l-.92-1.65a1.91,1.91,0,0,0-1.69-1.14v-.12a2.26,2.26,0,0,0,2.33-2.1c0-1.42-1.29-2-2.78-2h-3.35V378l1.1.23v6.91h0l-1.26.24L492,376.83a4,4,0,0,1-1.13,1l.12.35-2.87,7-.86.23v.46h2.62v-.46l-.85-.22,1-2.56h2.66l.93,2.54-1,.24v.46H499v-.46l-1-.23V382a1.57,1.57,0,0,1,1.42,1l1.26,2.25a2,2,0,0,0,1.82,1.11,1.8,1.8,0,0,0,1.2-.49h2.85a4.28,4.28,0,0,0,4.39-4.16,4.17,4.17,0,0,0-4.47-4.16ZM490.23,382l1.12-3,1.08,3Zm8.23-.62h-.57v-3.1h.71a1.4,1.4,0,0,1,1.45,1.48,1.61,1.61,0,0,1-1.57,1.62Zm7.82,3.83h-1.18v-6.93h1.22c1.89,0,3,1.31,3,3.46s-1.21,3.46-3.08,3.46Z"/><path class="ae24002c-3051-44b6-a913-0a5bc7b5f36c" d="M445.71,385.17l-3.07-8.34a3.94,3.94,0,0,1-1.13,1l.12.35-2.85,7-.61.23-.18.46h2.54v-.46l-.85-.22,1-2.56h2.66l.93,2.54-1,.24v.46h3.42v-.46l-.91-.23Zm-4.87-3.2,1.13-3,1.08,3Z"/><polygon class="ae24002c-3051-44b6-a913-0a5bc7b5f36c" points="438.39 383.75 438.08 383.58 436.29 385.21 434.75 385.21 434.75 378.25 435.68 378.01 435.68 377.54 432.37 377.54 432.37 378.01 433.3 378.25 433.3 385.15 432.37 385.39 432.37 385.86 437.57 385.86 438.39 383.75 438.39 383.75"/><polygon class="ae24002c-3051-44b6-a913-0a5bc7b5f36c" points="452.83 377.54 452.83 378.01 453.83 378.25 451.66 383.81 449.37 378.24 450.45 378.01 450.45 377.54 446.76 377.54 446.76 378.01 447.82 378.24 451.1 386.14 451.45 386.14 454.72 378.25 454.75 378.25 455.77 378.01 455.77 377.54 452.83 377.54 452.83 377.54"/><path class="ae24002c-3051-44b6-a913-0a5bc7b5f36c" d="M485.6,377.55V378l1,.24s.07,4.12,0,5.16a2.1,2.1,0,0,1-2.14,2h-.11a2.07,2.07,0,0,1-2.24-2.13v-5.07l1-.22v-.46h-3.34V378l.95.23v5.11a3.07,3.07,0,0,0,3.3,2.91,3,3,0,0,0,3.3-2.91l.06-5.1,1-.24v-.46Z"/><path class="ae24002c-3051-44b6-a913-0a5bc7b5f36c" d="M521.7,385.15l-3.06-8.32a3.94,3.94,0,0,1-1.13,1l.12.35-2.86,7-.49.2-.66-.21v-6.94l1-.23v-.46h-3.48V378l1,.24v6.92l-1,.23v.46h5.3v-.46l-.85-.23,1-2.56h2.66l.93,2.54-1,.24v.46h3.43v-.46l-.92-.24ZM516.84,382l1.13-3,1.08,3Z"/><path class="ae24002c-3051-44b6-a913-0a5bc7b5f36c" d="M467.75,377.55V378l1,.24.06,5.44-5.21-6.14H461.4V378l1,.22.08,0-.07,6.88h0l-1,.24-3.14-8.56a4,4,0,0,1-1.1,1l.12.35-2.87,7-.86.23v.46h2.62v-.46l-.85-.22,1-2.56h2.66l.93,2.54-1,.24v.46h5.47v-.46l-1-.24-.12-6,6,7h.39l.08-7.9,1-.23v-.46ZM456.44,382l1.13-3,1.08,3Z"/><path class="ae24002c-3051-44b6-a913-0a5bc7b5f36c" d="M476.52,381.61v.46l.94.24V385a3.11,3.11,0,0,1-1.88.62c-1.89,0-3.1-1.57-3.1-3.79s1.18-4,3.14-4a3,3,0,0,1,2.78,2.26l.27-.16v-2.62l-.24-.13-.52.64a5.24,5.24,0,0,0-2.3-.59,4.65,4.65,0,0,0-4.66,4.58,4.22,4.22,0,0,0,4,4.43h.3a4.29,4.29,0,0,0,2.68-.89l.73.49h.24V382.3l.79-.3v-.38Z"/><path class="190419fc-585c-4e26-a5af-bdb5edbbfd98" d="M282,312.25A122.14,122.14,0,0,1,313.3,186.64l59.39,61.5a36.64,36.64,0,0,0-9.4,37.68Z"/><path class="0ac1710e-9e28-4679-9612-9adc4bc0f365" d="M313.3,186.64a122.14,122.14,0,0,1,56.13-30.86l20.1,83.1a36.64,36.64,0,0,0-16.84,9.26Z"/><path class="8101fa0f-2811-479c-ae05-53061d9af259" d="M369.43,155.79A122.14,122.14,0,0,1,393,152.47l3.58,85.43a36.64,36.64,0,0,0-7.08,1Z"/><path class="7abba18b-07c7-49e5-9d37-2229b0b2a5e6" d="M393,152.47a122.14,122.14,0,0,1,33.84,3.32l-20.1,83.1a36.64,36.64,0,0,0-10.15-1Z"/><path class="66d131ea-5d02-4e2c-81c5-06f2312efd23" d="M426.87,155.79A122.14,122.14,0,0,1,485.42,189l-61.09,59.82a36.64,36.64,0,0,0-17.56-10Z"/><path class="34b0e7ed-8d1a-47da-bf81-6d47494dcad5" d="M485.42,189a122.14,122.14,0,0,1,34.8,89.72l-85.45-3a36.64,36.64,0,0,0-10.44-26.92Z"/><path class="77f12629-990a-45f1-81fa-082b3219b541" d="M520.22,278.77a122.14,122.14,0,0,1-5.9,33.48L433,285.83a36.64,36.64,0,0,0,1.77-10Z"/><circle class="5248feb6-563e-4d7c-98eb-51e7864ab7da" cx="398.92" cy="275.05" r="89.95"/><path class="b4817e64-6433-49fc-b6cc-8c74f235be07" d="M521.71,280.35l9.28-.74c.11,1.38.15,2.07.2,3.45a12.06,12.06,0,0,1-.09,2.56,2.73,2.73,0,0,1-.92,1.52,2.64,2.64,0,0,1-1.82.57,2.87,2.87,0,0,1-1.44-.37,2.72,2.72,0,0,1-.91-.86,3.07,3.07,0,0,1-.44-1,13.89,13.89,0,0,1-.18-2.07c0-.52,0-.78-.06-1.3l-3.5.19C521.8,281.5,521.78,281.12,521.71,280.35Zm7.85,1.5-2.64.14c0,.45,0,.67.05,1.12a6.24,6.24,0,0,0,.19,1.61,1.35,1.35,0,0,0,.47.64,1.19,1.19,0,0,0,.73.23,1.12,1.12,0,0,0,.83-.34,1.49,1.49,0,0,0,.4-.85,9.93,9.93,0,0,0,0-1.52C529.59,282.46,529.58,282.26,529.56,281.85Z"/><path class="b4817e64-6433-49fc-b6cc-8c74f235be07" d="M521.88,289.14l9.3.4c-.06,1.38-.1,2.06-.22,3.43a12,12,0,0,1-.39,2.52,2.72,2.72,0,0,1-1.09,1.39,2.64,2.64,0,0,1-1.88.34,2.88,2.88,0,0,1-1.38-.54,2.72,2.72,0,0,1-.8-1,3.06,3.06,0,0,1-.31-1.08,13.77,13.77,0,0,1,.07-2.07c0-.52.06-.78.1-1.29l-3.5-.24C521.83,290.27,521.85,289.9,521.88,289.14Zm7.61,2.43-2.63-.18c0,.44,0,.67-.08,1.11a6.18,6.18,0,0,0,0,1.61,1.35,1.35,0,0,0,.39.68,1.19,1.19,0,0,0,.69.31,1.13,1.13,0,0,0,.87-.23,1.49,1.49,0,0,0,.5-.79,10,10,0,0,0,.2-1.5C529.44,292.17,529.46,292,529.49,291.56Z"/><path class="b4817e64-6433-49fc-b6cc-8c74f235be07" d="M519.42,305c.12-.45.18-.67.29-1.12l7.06,1.8a7.25,7.25,0,0,1-.48-1.35,10,10,0,0,1-.28-1.42l1.08.24a8.79,8.79,0,0,0,.64,2.07,4.73,4.73,0,0,0,.92,1.42l-.22.81Z"/><path class="b4817e64-6433-49fc-b6cc-8c74f235be07" d="M523,309.24a7.6,7.6,0,0,1,2.42,1.16,3.19,3.19,0,0,1,1.12,1.56,3.1,3.1,0,0,1-.12,2,3.37,3.37,0,0,1-.81,1.3,2.65,2.65,0,0,1-1.2.67,4.24,4.24,0,0,1-1.53.08,10.29,10.29,0,0,1-4.43-2,3.44,3.44,0,0,1-1.06-1.54,2.75,2.75,0,0,1,.09-1.8,2.7,2.7,0,0,1,1.62-1.72A6.12,6.12,0,0,1,523,309.24Zm-.39,1.2a5.72,5.72,0,0,0-3.07-.44,1.63,1.63,0,0,0-.93,2.58,5.72,5.72,0,0,0,2.63,1.64,5.25,5.25,0,0,0,3.06.56,1.82,1.82,0,0,0,1.24-1.15,1.68,1.68,0,0,0-.16-1.56A5.3,5.3,0,0,0,522.56,310.44Z"/><text class="1c895923-589f-4ad3-96ff-367f90dd5fad" transform="translate(420.05 134.52) rotate(-0.14)"><tspan class="3572af0c-b46b-4bf3-848c-4d6fde0cd8d1">CeC-</tspan><tspan class="19759e93-9c3c-462f-bca0-8c409c4e47b4" x="30.34" y="0">P</tspan><tspan class="3572af0c-b46b-4bf3-848c-4d6fde0cd8d1" x="38.77" y="0"> </tspan><tspan class="7a010082-837c-4e2d-b436-9f154d3629d7" x="42.38" y="0">10</tspan></text><text class="1c895923-589f-4ad3-96ff-367f90dd5fad" transform="translate(329.45 107.5) rotate(-0.14)"><tspan class="3572af0c-b46b-4bf3-848c-4d6fde0cd8d1">CU</tspan><tspan class="2ef77218-70c3-4ee0-aed7-6a0f9f4fd471" x="18.78" y="0">P</tspan><tspan class="fcf587c7-c0a4-4b8c-89a5-04530b99d8b5" x="27.21" y="0"> </tspan><tspan class="a3e2395f-576a-4a2c-a23b-1794c6a0defb" x="30.82" y="0">7</tspan></text><path class="b4817e64-6433-49fc-b6cc-8c74f235be07" d="M512.29,218.37c.21.79.31,1.18.49,2a4.31,4.31,0,0,1-2.69-.11,4.37,4.37,0,0,1-2-1.74,4.43,4.43,0,0,1-.73-3.29,4.84,4.84,0,0,1,2-3.08,4.59,4.59,0,0,1,3.71-1.06,4.87,4.87,0,0,1,3.13,2.29,4.6,4.6,0,0,1,.83,3.26,3.43,3.43,0,0,1-.94,1.79c-.57-.64-.86-.95-1.44-1.57a1.9,1.9,0,0,0,.57-1.26,2.37,2.37,0,0,0-.43-1.44,2.5,2.5,0,0,0-1.68-1.17,3.3,3.3,0,0,0-2.39.79,3.81,3.81,0,0,0-1.67,2,2.27,2.27,0,0,0,.34,1.85,2.07,2.07,0,0,0,1.13.88A2.83,2.83,0,0,0,512.29,218.37Z"/><path class="b4817e64-6433-49fc-b6cc-8c74f235be07" d="M512.47,221.67c.46.6.68.91,1.12,1.52a1.32,1.32,0,0,0-.49.79,1.71,1.71,0,0,0,.21,1,1.91,1.91,0,0,0,.69.86.56.56,0,0,0,.54,0,.45.45,0,0,0,.25-.26,1.48,1.48,0,0,0-.05-.67,12.86,12.86,0,0,1-.52-3,1.73,1.73,0,0,1,.93-1.48,1.78,1.78,0,0,1,1.66,0,3.72,3.72,0,0,1,1.62,1.87,4.3,4.3,0,0,1,.57,2.27,2.25,2.25,0,0,1-.81,1.47c-.41-.63-.61-.94-1-1.55a1,1,0,0,0,.36-.66,1.72,1.72,0,0,0-.22-.94,2.24,2.24,0,0,0-.67-.91.42.42,0,0,0-.42,0,.39.39,0,0,0-.2.32,8.71,8.71,0,0,0,.35,1.84,5.06,5.06,0,0,1,.16,2.27,1.58,1.58,0,0,1-1,1.07,2.06,2.06,0,0,1-1.78-.1,3.72,3.72,0,0,1-1.58-1.83,4.09,4.09,0,0,1-.5-2.22A2.66,2.66,0,0,1,512.47,221.67Z"/><path class="b4817e64-6433-49fc-b6cc-8c74f235be07" d="M515.53,233.5c-.14-.44-.22-.66-.37-1.09L522,230a7.3,7.3,0,0,1-1.15-.88,10.42,10.42,0,0,1-1-1l1-.4a9,9,0,0,0,1.69,1.39,4.86,4.86,0,0,0,1.56.69l.27.81Z"/><path class="b4817e64-6433-49fc-b6cc-8c74f235be07" d="M520.81,235.11a7.5,7.5,0,0,1,2.66-.34,3,3,0,0,1,2.78,2.49,3.44,3.44,0,0,1,0,1.55,2.66,2.66,0,0,1-.65,1.22,4.17,4.17,0,0,1-1.24.89,8.17,8.17,0,0,1-2.13.61,8.31,8.31,0,0,1-2.67.11,3.47,3.47,0,0,1-1.72-.73,2.76,2.76,0,0,1-.89-1.57,2.72,2.72,0,0,1,.42-2.32A6.12,6.12,0,0,1,520.81,235.11Zm.33,1.23a5.69,5.69,0,0,0-2.82,1.3,1.64,1.64,0,0,0,.61,2.68,5.71,5.71,0,0,0,3.1,0,5.21,5.21,0,0,0,2.88-1.18,1.84,1.84,0,0,0,.42-1.65,1.71,1.71,0,0,0-1-1.24A5.25,5.25,0,0,0,521.14,236.34Z"/><path class="b4817e64-6433-49fc-b6cc-8c74f235be07" d="M439.89,158c1.25-3.51,1.88-5.26,3.15-8.76,1.24.44,1.86.67,3.09,1.14a11.9,11.9,0,0,1,2.21,1,2.61,2.61,0,0,1,1,1.39,2.71,2.71,0,0,1-.17,1.89,2.93,2.93,0,0,1-.87,1.2,2.67,2.67,0,0,1-1.12.53,2.93,2.93,0,0,1-1.11,0,12.41,12.41,0,0,1-1.94-.62l-1.2-.45-1.23,3.29Zm4.52-6.58-.93,2.47,1,.38a5.7,5.7,0,0,0,1.52.43,1.33,1.33,0,0,0,.75-.19,1.21,1.21,0,0,0,.48-.59,1.14,1.14,0,0,0,0-.9,1.42,1.42,0,0,0-.6-.68,9.77,9.77,0,0,0-1.34-.59Z"/><path class="b4817e64-6433-49fc-b6cc-8c74f235be07" d="M448.85,158.29l1.81.6a2.22,2.22,0,0,0,.07,1.51,2.14,2.14,0,0,0,1.09,1,2.22,2.22,0,0,0,1.43.26,1.14,1.14,0,0,0,.82-.6.82.82,0,0,0,.06-.59,1.59,1.59,0,0,0-.46-.67c-.17-.17-.59-.52-1.25-1a5.73,5.73,0,0,1-1.64-1.76,2.38,2.38,0,0,1-.07-2.08,2.27,2.27,0,0,1,.93-1,2.66,2.66,0,0,1,1.54-.35,5.26,5.26,0,0,1,1.95.54,4.36,4.36,0,0,1,2.24,1.93,2.59,2.59,0,0,1,0,2.27l-1.83-.81a1.54,1.54,0,0,0,0-1.17,2.1,2.1,0,0,0-1-.83,2.4,2.4,0,0,0-1.4-.27.67.67,0,0,0-.53.39.7.7,0,0,0,0,.64,5.71,5.71,0,0,0,1.4,1.33,9.25,9.25,0,0,1,1.64,1.53,2.63,2.63,0,0,1,.54,1.33,2.66,2.66,0,0,1-.32,1.5,2.73,2.73,0,0,1-1.08,1.13,2.77,2.77,0,0,1-1.61.36,5.63,5.63,0,0,1-2-.58,4.27,4.27,0,0,1-2.17-1.88A3.57,3.57,0,0,1,448.85,158.29Z"/><path class="b4817e64-6433-49fc-b6cc-8c74f235be07" d="M463,165l1.32,1.46a4.31,4.31,0,0,1-7-2,5.6,5.6,0,0,1,3.34-6.24,4.51,4.51,0,0,1,3.61.51,4.24,4.24,0,0,1,2.09,2.37,3.53,3.53,0,0,1,0,2l-1.93-.62a1.91,1.91,0,0,0-.06-1.35,2.17,2.17,0,0,0-1-1,2.31,2.31,0,0,0-1.93-.22,3.46,3.46,0,0,0-1.75,1.79,3.83,3.83,0,0,0-.62,2.52,2.16,2.16,0,0,0,1.12,1.47,2,2,0,0,0,1.38.24A2.79,2.79,0,0,0,463,165Z"/><path class="b4817e64-6433-49fc-b6cc-8c74f235be07" d="M472.59,174l-.65.89c-2-1.46-3-2.16-5.1-3.52a2,2,0,0,1,.55-.59,4,4,0,0,1,1.32-.61,10.9,10.9,0,0,1,2.07-.31,14.64,14.64,0,0,0,2.88-.4,2.33,2.33,0,0,0,1.26-.79,1.47,1.47,0,0,0,.24-1.23,1.93,1.93,0,0,0-.84-1.16,2,2,0,0,0-1.45-.39,1.8,1.8,0,0,0-1.21.84l-1-.79a2.79,2.79,0,0,1,1.92-1.13,3.45,3.45,0,0,1,2.28.72,3.25,3.25,0,0,1,1.44,1.92,2.33,2.33,0,0,1-.41,2,2.7,2.7,0,0,1-.84.75,4.44,4.44,0,0,1-1.31.46,22.21,22.21,0,0,1-2.44.28,17.14,17.14,0,0,0-1.78.2,3.61,3.61,0,0,0-.75.24C470.33,172.4,471.09,172.93,472.59,174Z"/><path class="b4817e64-6433-49fc-b6cc-8c74f235be07" d="M475.68,172a8,8,0,0,1,1.88-1.91,3.25,3.25,0,0,1,1.8-.59,2.88,2.88,0,0,1,1.78.68,3.1,3.1,0,0,1,.93,1.12,2.56,2.56,0,0,1,.24,1.3,4.41,4.41,0,0,1-.4,1.46,8.67,8.67,0,0,1-1.23,1.84,8.44,8.44,0,0,1-1.95,1.82,3.39,3.39,0,0,1-1.77.57,2.67,2.67,0,0,1-1.68-.63,2.64,2.64,0,0,1-1.11-2.07A6.1,6.1,0,0,1,475.68,172Zm1,.73a5.76,5.76,0,0,0-1.41,2.76,1.59,1.59,0,0,0,2.13,1.66,5.79,5.79,0,0,0,2.34-2,5.48,5.48,0,0,0,1.47-2.73,1.71,1.71,0,0,0-.65-1.48,1.59,1.59,0,0,0-1.48-.3A5.52,5.52,0,0,0,476.66,172.69Z"/><path class="b4817e64-6433-49fc-b6cc-8c74f235be07" d="M309.95,173.65c.6-.62.9-.93,1.51-1.53l4.11,4.07a5.53,5.53,0,0,1,1.09,1.38,2.51,2.51,0,0,1,.19,1.63,3.65,3.65,0,0,1-1,1.74,3.16,3.16,0,0,1-2,1.12,3.07,3.07,0,0,1-2.21-.85c.44-.62.66-.93,1.11-1.55a2.34,2.34,0,0,0,1,.55,1.33,1.33,0,0,0,1.42-1.31,2.6,2.6,0,0,0-.87-1.2Z"/><path class="b4817e64-6433-49fc-b6cc-8c74f235be07" d="M318.78,177.74c-.23-1.67-.33-2.51-.48-4.21-1.61-.27-2.42-.39-4.07-.59.7-.67,1.06-1,1.77-1.66.89.18,1.33.27,2.2.47-.07-.9-.11-1.36-.16-2.27.71-.6,1.06-.9,1.79-1.49,0,1.61,0,2.4.11,4,1.73.35,2.58.55,4.25,1-.7.56-1,.85-1.73,1.43-1-.25-1.45-.37-2.43-.6.11,1,.17,1.49.31,2.47C319.71,176.85,319.4,177.14,318.78,177.74Z"/><path class="b4817e64-6433-49fc-b6cc-8c74f235be07" d="M328.09,165.92c.77-.25,1.16-.36,1.93-.59a4.15,4.15,0,0,1,0,2.65,4.4,4.4,0,0,1-1.67,2,4.46,4.46,0,0,1-3.26.87A4.71,4.71,0,0,1,322,169a4.49,4.49,0,0,1-1.15-3.59,4.79,4.79,0,0,1,2.12-3.13,4.59,4.59,0,0,1,3.16-1,3.4,3.4,0,0,1,1.81.83c-.6.59-.89.89-1.47,1.49a1.88,1.88,0,0,0-1.26-.5,2.36,2.36,0,0,0-1.4.48,2.45,2.45,0,0,0-1.09,1.69,3.22,3.22,0,0,0,.85,2.31,3.68,3.68,0,0,0,2,1.56,2.29,2.29,0,0,0,1.83-.42,2.07,2.07,0,0,0,.83-1.15A2.71,2.71,0,0,0,328.09,165.92Z"/><path class="b4817e64-6433-49fc-b6cc-8c74f235be07" d="M340.44,162.7c-.75.36-1.13.55-1.87.93-.67-.59-1-.88-1.7-1.45-1.38.72-2.06,1.1-3.41,1.89.14.88.21,1.31.37,2.19-.7.42-1,.63-1.73,1.06a96.19,96.19,0,0,1-1.34-9.83c.78-.45,1.18-.67,2-1.09A96.57,96.57,0,0,1,340.44,162.7Zm-4.84-1.59c-1.12-.94-1.69-1.4-2.84-2.31.17,1.46.26,2.18.47,3.62C334.16,161.88,334.64,161.62,335.59,161.11Z"/><path class="b4817e64-6433-49fc-b6cc-8c74f235be07" d="M342.4,161.78l-3.07-6.92c-1.13.51-1.68.77-2.79,1.31l-.67-1.39a77.3,77.3,0,0,1,7.71-3.36l.54,1.44c-1.15.44-1.72.67-2.86,1.15l2.91,7Z"/><path class="b4817e64-6433-49fc-b6cc-8c74f235be07" d="M355.26,157.23l-1.13.31-1.85-6.9a7.17,7.17,0,0,1-1,1.08,10.14,10.14,0,0,1-1.11.94l-.31-1a8.84,8.84,0,0,0,1.5-1.56,4.7,4.7,0,0,0,.79-1.49l.81-.22C353.92,151.9,354.37,153.68,355.26,157.23Z"/><path class="b4817e64-6433-49fc-b6cc-8c74f235be07" d="M357.92,154.42l1.11-.34a1.83,1.83,0,0,0,.76,1,1.59,1.59,0,0,0,1.09.14,2,2,0,0,0,.91-.41,2.1,2.1,0,0,0,.57-.74,3.75,3.75,0,0,0,.28-1.13,5.29,5.29,0,0,0,0-1.39l0-.22a2.89,2.89,0,0,1-.87,1,3.06,3.06,0,0,1-1.3.58,3,3,0,0,1-2.21-.39,3.14,3.14,0,0,1-.83-4.33,3.38,3.38,0,0,1,2.18-1.3,3.65,3.65,0,0,1,1.95.14,3,3,0,0,1,1.47,1.15,5.89,5.89,0,0,1,.77,2.49,8,8,0,0,1,0,2.83,3.48,3.48,0,0,1-1,1.75,3.35,3.35,0,0,1-1.73.86,2.83,2.83,0,0,1-1.91-.22A2.53,2.53,0,0,1,357.92,154.42Zm4.26-4.93a2,2,0,0,0-.81-1.42,1.92,1.92,0,0,0-1.5-.31,2.08,2.08,0,0,0-1.36.89,2.1,2.1,0,0,0-.32,1.68,1.85,1.85,0,0,0,.84,1.27,2,2,0,0,0,1.51.26,2,2,0,0,0,1.31-.79A2.07,2.07,0,0,0,362.18,149.49Z"/><path class="b4817e64-6433-49fc-b6cc-8c74f235be07" d="M277.68,245.6l-8.75-2.48c.8-2.79,1.23-4.17,2.12-6.93l1.46.47c-.65,2-1,3-1.56,5l1.93.57c.55-1.85.84-2.77,1.43-4.6l1.46.47c-.59,1.82-.87,2.73-1.42,4.57l2.37.7c.6-2,.91-3,1.57-5l1.46.47C278.88,241.51,278.47,242.87,277.68,245.6Z"/><path class="b4817e64-6433-49fc-b6cc-8c74f235be07" d="M280.27,237.29l-8.63-2.86c.53-1.57.8-2.36,1.36-3.92a7.33,7.33,0,0,1,1-2.05,2.19,2.19,0,0,1,1.21-.76,2.49,2.49,0,0,1,1.49.11,2.37,2.37,0,0,1,1.36,1.19,3.14,3.14,0,0,1,.14,2.06,4.38,4.38,0,0,1,1.07-.7,9.89,9.89,0,0,1,1.76-.51l2.06-.45c-.32.84-.48,1.26-.79,2.11l-2.33.61a12,12,0,0,0-1.6.5,1.47,1.47,0,0,0-.55.42,3.25,3.25,0,0,0-.42.88l-.13.37,3.59,1.23C280.63,236.22,280.51,236.57,280.27,237.29Zm-4.36-3.48.47-1.35a8.12,8.12,0,0,0,.48-1.67,1,1,0,0,0-.18-.64,1.14,1.14,0,0,0-.57-.42,1,1,0,0,0-.79,0,1.2,1.2,0,0,0-.59.57c-.07.14-.24.59-.51,1.33l-.5,1.44Z"/><path class="b4817e64-6433-49fc-b6cc-8c74f235be07" d="M282.61,221.6l1.25-1.49a4.05,4.05,0,0,1,1.48,2.17,4.59,4.59,0,0,1-2.57,5,4.69,4.69,0,0,1-3.59-.09,4.74,4.74,0,0,1-2.84-2.43,4.38,4.38,0,0,1,.06-3.53,4.15,4.15,0,0,1,2-2.3,3.48,3.48,0,0,1,1.93-.25c-.15.78-.22,1.16-.35,1.94a1.9,1.9,0,0,0-1.31.23,2.12,2.12,0,0,0-.88,1.07,2.25,2.25,0,0,0,0,1.89,3.39,3.39,0,0,0,1.94,1.49,3.72,3.72,0,0,0,2.52.31,2.14,2.14,0,0,0,1.3-1.28,2,2,0,0,0,.07-1.38A2.71,2.71,0,0,0,282.61,221.6Z"/><path class="b4817e64-6433-49fc-b6cc-8c74f235be07" d="M290,210.9l1,.48c-1.1,2.21-1.63,3.33-2.65,5.57a1.94,1.94,0,0,1-.65-.45,4,4,0,0,1-.78-1.2,11.13,11.13,0,0,1-.6-2,13.78,13.78,0,0,0-.83-2.73,2.26,2.26,0,0,0-1-1.09,1.44,1.44,0,0,0-1.23,0,1.88,1.88,0,0,0-1,1,1.92,1.92,0,0,0-.15,1.45,1.77,1.77,0,0,0,1,1L282.5,214a2.73,2.73,0,0,1-1.38-1.68,3.36,3.36,0,0,1,.34-2.29,3.17,3.17,0,0,1,1.62-1.68,2.29,2.29,0,0,1,2,.07,2.62,2.62,0,0,1,.86.69,4.24,4.24,0,0,1,.65,1.19,20.51,20.51,0,0,1,.65,2.32c.21.87.36,1.44.46,1.7a3.6,3.6,0,0,0,.34.7C288.79,213.37,289.19,212.54,290,210.9Z"/><path class="b4817e64-6433-49fc-b6cc-8c74f235be07" d="M287.51,208.25a7.81,7.81,0,0,1-2.16-1.49,3.2,3.2,0,0,1-.87-1.63,2.82,2.82,0,0,1,.34-1.82,3,3,0,0,1,.9-1.08,2.52,2.52,0,0,1,1.21-.46,4.33,4.33,0,0,1,1.47.12,8.4,8.4,0,0,1,2,.84,8.15,8.15,0,0,1,2.1,1.54,3.3,3.3,0,0,1,.86,1.62,2.68,2.68,0,0,1-.32,1.75,2.61,2.61,0,0,1-1.81,1.45A5.87,5.87,0,0,1,287.51,208.25Zm.54-1.08a5.54,5.54,0,0,0,2.9.88,1.61,1.61,0,0,0,1.27-.84,1.63,1.63,0,0,0,0-1.53,5.58,5.58,0,0,0-2.37-1.89,5.37,5.37,0,0,0-2.89-.92,1.67,1.67,0,0,0-1.3.89,1.56,1.56,0,0,0,0,1.47A5.45,5.45,0,0,0,288.06,207.17Z"/><line class="0c4abded-8116-4c3e-ba19-363548ad9deb" x1="405" y1="137" x2="405" y2="151.5"/><line class="0c4abded-8116-4c3e-ba19-363548ad9deb" x1="377.5" y1="111.5" x2="377.5" y2="154"/><line class="0c4abded-8116-4c3e-ba19-363548ad9deb" x1="475.5" y1="137.5" x2="405" y2="137.5"/><line class="0c4abded-8116-4c3e-ba19-363548ad9deb" x1="128" y1="137" x2="128" y2="151.5"/><line class="0c4abded-8116-4c3e-ba19-363548ad9deb" x1="198.5" y1="137.5" x2="128" y2="137.5"/><line class="0c4abded-8116-4c3e-ba19-363548ad9deb" x1="331" y1="111.5" x2="378" y2="111.5"/><line class="0c4abded-8116-4c3e-ba19-363548ad9deb" x1="104.5" y1="113.5" x2="104.5" y2="154.5"/><line class="0c4abded-8116-4c3e-ba19-363548ad9deb" x1="52.5" y1="113.5" x2="105" y2="113.5"/><path class="190419fc-585c-4e26-a5af-bdb5edbbfd98" d="M16.78,312A122.23,122.23,0,0,1,38.49,196.75L104.66,251a36.67,36.67,0,0,0-6.51,34.57Z"/><path class="0ac1710e-9e28-4679-9612-9adc4bc0f365" d="M38.49,196.75A122.23,122.23,0,0,1,89.2,160.13L119.88,240a36.67,36.67,0,0,0-15.21,11Z"/><path class="8101fa0f-2811-479c-ae05-53061d9af259" d="M89.2,160.13a122.23,122.23,0,0,1,27-7L128,237.91a36.67,36.67,0,0,0-8.11,2.09Z"/><path class="7abba18b-07c7-49e5-9d37-2229b0b2a5e6" d="M116.24,153.16a122.23,122.23,0,0,1,41,1.27l-17,83.86a36.67,36.67,0,0,0-12.3-.38Z"/><path class="66d131ea-5d02-4e2c-81c5-06f2312efd23" d="M157.26,154.43a122.23,122.23,0,0,1,61.78,33l-60.21,60.79a36.67,36.67,0,0,0-18.53-9.89Z"/><path class="34b0e7ed-8d1a-47da-bf81-6d47494dcad5" d="M219,187.39a122.23,122.23,0,0,1,36.2,88.74l-85.55-1.33a36.67,36.67,0,0,0-10.86-26.62Z"/><path class="77f12629-990a-45f1-81fa-082b3219b541" d="M255.23,276.13a122.23,122.23,0,0,1-6,35.87L167.9,285.56a36.67,36.67,0,0,0,1.79-10.76Z"/><circle class="5248feb6-563e-4d7c-98eb-51e7864ab7da" cx="133.2" cy="272.84" r="89.95"/><text class="2620dd86-7864-485e-9688-8b58f848be56" transform="translate(324.5 329.02) scale(0.99 1)">Promedio de <tspan class="fa3e3679-9d74-4919-bbe7-15797d6d59f6" x="89.22" y="0">escaños</tspan></text><text class="ec1080b9-8104-4fe9-a85f-8fc97707bc16" transform="translate(383.5 310.02) scale(0.99 1)">135</text><text class="ec1080b9-8104-4fe9-a85f-8fc97707bc16" transform="translate(113.5 310.02) scale(0.99 1)">100%*</text><text class="2620dd86-7864-485e-9688-8b58f848be56" transform="translate(22.5 329.02) scale(0.99 1)">Promedio de <tspan class="fa3e3679-9d74-4919-bbe7-15797d6d59f6" x="89.22" y="0">porcentaje de voto</tspan></text><path class="b4817e64-6433-49fc-b6cc-8c74f235be07" d="M255.61,276l9.27-.79c.12,1.39.17,2.09.23,3.48a12.44,12.44,0,0,1-.05,2.58,2.76,2.76,0,0,1-.89,1.54,2.62,2.62,0,0,1-1.81.6,2.84,2.84,0,0,1-1.44-.35,2.73,2.73,0,0,1-.92-.86,3.16,3.16,0,0,1-.46-1,14.19,14.19,0,0,1-.21-2.1c0-.53,0-.79-.07-1.32l-3.5.22C255.7,277.13,255.67,276.74,255.61,276Zm7.86,1.47-2.64.16c0,.45,0,.68.06,1.13a6.32,6.32,0,0,0,.21,1.63,1.38,1.38,0,0,0,.47.64,1.17,1.17,0,0,0,.73.22,1.11,1.11,0,0,0,.83-.35,1.52,1.52,0,0,0,.39-.86,10.43,10.43,0,0,0,0-1.53C263.51,278.05,263.49,277.84,263.47,277.43Z"/><path class="b4817e64-6433-49fc-b6cc-8c74f235be07" d="M255.89,284.94l9.3.23c0,1.39-.06,2.08-.15,3.47a12.43,12.43,0,0,1-.33,2.55,2.75,2.75,0,0,1-1.06,1.43,2.63,2.63,0,0,1-1.87.4,2.85,2.85,0,0,1-1.39-.5,2.72,2.72,0,0,1-.82-1,3.15,3.15,0,0,1-.34-1.09,14.05,14.05,0,0,1,0-2.1c0-.53,0-.79.07-1.32l-3.51-.17C255.86,286.1,255.87,285.71,255.89,284.94Zm7.65,2.31-2.64-.13c0,.45,0,.68-.06,1.13a6.26,6.26,0,0,0,0,1.64,1.37,1.37,0,0,0,.4.68,1.17,1.17,0,0,0,.7.3,1.12,1.12,0,0,0,.86-.26,1.51,1.51,0,0,0,.48-.81,10.36,10.36,0,0,0,.17-1.52C263.51,287.86,263.52,287.66,263.54,287.25Z"/><path class="b4817e64-6433-49fc-b6cc-8c74f235be07" d="M262.68,298.34l1.08.19c-.47,2.72-.76,4.08-1.44,6.76l-.86-.22a11.27,11.27,0,0,0-2-2.51,13.2,13.2,0,0,0-2.83-2.12,11,11,0,0,0-2.41-1c.1-.47.14-.71.23-1.19a10.43,10.43,0,0,1,2.52.95,12,12,0,0,1,2.68,1.86,11.28,11.28,0,0,1,2,2.32C262.12,301.39,262.33,300.38,262.68,298.34Z"/><path class="b4817e64-6433-49fc-b6cc-8c74f235be07" d="M253,304.77l1.25.35c-.15.53-.22.79-.37,1.31l-1.25-.37a2.29,2.29,0,0,1-1-.57,1.71,1.71,0,0,1-.43-1l.56-.18a1.12,1.12,0,0,0,.3.65,2,2,0,0,0,.8.43Z"/><path class="b4817e64-6433-49fc-b6cc-8c74f235be07" d="M259.76,310.27l1,.33c-.84,2.64-1.31,3.95-2.35,6.52l-.82-.33A11.21,11.21,0,0,0,256,314a13.13,13.13,0,0,0-2.52-2.5,11,11,0,0,0-2.26-1.29c.16-.46.24-.69.4-1.15a10.41,10.41,0,0,1,2.37,1.28,12,12,0,0,1,2.4,2.21,11.27,11.27,0,0,1,1.64,2.58C258.79,313.23,259.13,312.25,259.76,310.27Z"/><path class="b4817e64-6433-49fc-b6cc-8c74f235be07" d="M240.71,207.3c.26.77.39,1.15.63,1.92a4.22,4.22,0,0,1-2.7.08,4.89,4.89,0,0,1-3-4.93,4.79,4.79,0,0,1,1.91-3.16,4.68,4.68,0,0,1,3.65-1.22,4.77,4.77,0,0,1,3.19,2.05,4.5,4.5,0,0,1,1,3.13,3.48,3.48,0,0,1-.82,1.84c-.61-.58-.92-.87-1.53-1.43a1.91,1.91,0,0,0,.49-1.28,2.32,2.32,0,0,0-.5-1.39,2.44,2.44,0,0,0-1.72-1,3.36,3.36,0,0,0-2.34.91,3.77,3.77,0,0,0-1.57,2.07,2.27,2.27,0,0,0,.45,1.84,2.09,2.09,0,0,0,1.18.81A2.78,2.78,0,0,0,240.71,207.3Z"/><path class="b4817e64-6433-49fc-b6cc-8c74f235be07" d="M241.15,210.59c.51.57.76.85,1.26,1.43a1.31,1.31,0,0,0-.41.83,1.72,1.72,0,0,0,.31,1,1.93,1.93,0,0,0,.78.8.56.56,0,0,0,.54,0,.45.45,0,0,0,.22-.29,1.5,1.5,0,0,0-.12-.66,12.08,12.08,0,0,1-.8-2.92,1.72,1.72,0,0,1,.8-1.55,1.79,1.79,0,0,1,1.65-.17,3.69,3.69,0,0,1,1.77,1.68,4.27,4.27,0,0,1,.78,2.17,2.26,2.26,0,0,1-.65,1.54c-.47-.57-.71-.85-1.19-1.41a1,1,0,0,0,.29-.69,1.72,1.72,0,0,0-.31-.91,2.21,2.21,0,0,0-.75-.83.41.41,0,0,0-.42,0,.39.39,0,0,0-.17.34,8.28,8.28,0,0,0,.52,1.79,5.18,5.18,0,0,1,.4,2.24,1.59,1.59,0,0,1-.86,1.17,2,2,0,0,1-1.79.09,3.75,3.75,0,0,1-1.79-1.69,4.14,4.14,0,0,1-.73-2.2A2.64,2.64,0,0,1,241.15,210.59Z"/><path class="b4817e64-6433-49fc-b6cc-8c74f235be07" d="M248.89,226.67l-1,.43c-1-2.33-1.53-3.47-2.67-5.73a1.93,1.93,0,0,1,.77-.23,4,4,0,0,1,1.46.15,10.79,10.79,0,0,1,2,.81,15.52,15.52,0,0,0,2.71,1.18,2.28,2.28,0,0,0,1.49,0,1.45,1.45,0,0,0,.83-1,2,2,0,0,0-.16-1.48,2.08,2.08,0,0,0-1.08-1.12,1.76,1.76,0,0,0-1.48.1l-.46-1.21a2.73,2.73,0,0,1,2.24,0,3.64,3.64,0,0,1,1.65,1.85,3.46,3.46,0,0,1,.3,2.47,2.29,2.29,0,0,1-1.35,1.52,2.63,2.63,0,0,1-1.11.2,4.44,4.44,0,0,1-1.37-.3,24.11,24.11,0,0,1-2.27-1,17,17,0,0,0-1.65-.76,3.66,3.66,0,0,0-.78-.18C247.75,224.06,248.14,224.92,248.89,226.67Z"/><path class="b4817e64-6433-49fc-b6cc-8c74f235be07" d="M252.61,226.51a7.7,7.7,0,0,1,2.6-.66,3.22,3.22,0,0,1,1.86.47,3.06,3.06,0,0,1,1.19,1.57,3.31,3.31,0,0,1,.23,1.49,2.62,2.62,0,0,1-.47,1.27,4.28,4.28,0,0,1-1.1,1.05,8.33,8.33,0,0,1-2,.92,8.23,8.23,0,0,1-2.62.51,3.4,3.4,0,0,1-1.81-.48,2.78,2.78,0,0,1-1.11-1.45,2.73,2.73,0,0,1,.11-2.38A6,6,0,0,1,252.61,226.51Zm.47,1.17a5.66,5.66,0,0,0-2.63,1.65,1.65,1.65,0,0,0,1,2.59,5.68,5.68,0,0,0,3.06-.48,5.31,5.31,0,0,0,2.68-1.57,1.8,1.8,0,0,0,.2-1.66,1.66,1.66,0,0,0-1.12-1.07A5.37,5.37,0,0,0,253.08,227.68Z"/><path class="b4817e64-6433-49fc-b6cc-8c74f235be07" d="M251.13,235.84l1.24-.39c.16.52.25.78.4,1.3l-1.25.38a2.28,2.28,0,0,1-1.18.09,1.71,1.71,0,0,1-.89-.58l.37-.45a1.11,1.11,0,0,0,.61.38,2,2,0,0,0,.9-.08Z"/><path class="b4817e64-6433-49fc-b6cc-8c74f235be07" d="M257.37,239.26a2.4,2.4,0,0,1,.42-1.3,1.84,1.84,0,0,1,1-.67,2.14,2.14,0,0,1,1.86.33,3.69,3.69,0,0,1,1,4.26,2.15,2.15,0,0,1-1.5,1.18,1.79,1.79,0,0,1-1.18-.12,2.39,2.39,0,0,1-1-.93,2.65,2.65,0,0,1-.57,1.57,2.33,2.33,0,0,1-1.35.78,2.66,2.66,0,0,1-2.15-.44,3.77,3.77,0,0,1-1.11-4.48,2.69,2.69,0,0,1,1.72-1.4,2.32,2.32,0,0,1,1.6.06A2.45,2.45,0,0,1,257.37,239.26Zm-2.45,0a2,2,0,0,0-.85.48,1.69,1.69,0,0,0-.5.88,2.21,2.21,0,0,0,0,1.05,2,2,0,0,0,.84,1.25,1.78,1.78,0,0,0,1.43.25,1.75,1.75,0,0,0,1.2-.88,2.07,2.07,0,0,0,.18-1.56,2,2,0,0,0-.87-1.26A1.74,1.74,0,0,0,254.93,239.24Zm4.26-.72a1.39,1.39,0,0,0-.93.72,1.76,1.76,0,0,0-.11,1.27,1.73,1.73,0,0,0,.68,1.05,1.33,1.33,0,0,0,1.1.22,1.34,1.34,0,0,0,.92-.71,1.73,1.73,0,0,0,.13-1.28,1.76,1.76,0,0,0-.71-1.07A1.28,1.28,0,0,0,259.18,238.52Z"/><path class="b4817e64-6433-49fc-b6cc-8c74f235be07" d="M170.66,157.75l2.25-9c1.31.33,2,.5,3.25.87a12,12,0,0,1,2.35.85,2.6,2.6,0,0,1,1.13,3.22,2.9,2.9,0,0,1-.77,1.26,2.68,2.68,0,0,1-1.08.61,3,3,0,0,1-1.11.11,13.07,13.07,0,0,1-2-.46l-1.24-.35-.92,3.39Zm3.87-7-.69,2.55,1.06.29a5.9,5.9,0,0,0,1.57.31,1.33,1.33,0,0,0,.74-.25,1.2,1.2,0,0,0,.43-.62,1.14,1.14,0,0,0-.06-.9,1.45,1.45,0,0,0-.67-.63,9.84,9.84,0,0,0-1.41-.47Z"/><path class="b4817e64-6433-49fc-b6cc-8c74f235be07" d="M179.62,157.26l1.86.48a2.24,2.24,0,0,0,.18,1.51,2.17,2.17,0,0,0,1.15.91,2.24,2.24,0,0,0,1.45.17,1.14,1.14,0,0,0,.78-.65.82.82,0,0,0,0-.6,1.59,1.59,0,0,0-.5-.64c-.18-.16-.62-.48-1.32-1a5.94,5.94,0,0,1-1.78-1.65,2.39,2.39,0,0,1-.24-2.07,2.23,2.23,0,0,1,.86-1.11,2.69,2.69,0,0,1,1.53-.45,5.4,5.4,0,0,1,2,.42,4.49,4.49,0,0,1,2.41,1.82,2.58,2.58,0,0,1,.12,2.29l-1.9-.72a1.54,1.54,0,0,0-.13-1.17,2.16,2.16,0,0,0-1.09-.78,2.47,2.47,0,0,0-1.43-.19.66.66,0,0,0-.51.43.7.7,0,0,0,.09.64,6,6,0,0,0,1.51,1.25,9.19,9.19,0,0,1,1.75,1.44,2.48,2.48,0,0,1,.39,2.81,2.73,2.73,0,0,1-1,1.19,2.78,2.78,0,0,1-1.58.45,5.71,5.71,0,0,1-2-.46,4.31,4.31,0,0,1-2.28-1.73A3.6,3.6,0,0,1,179.62,157.26Z"/><path class="b4817e64-6433-49fc-b6cc-8c74f235be07" d="M194.19,163.27c.56.57.84.85,1.38,1.43a4.36,4.36,0,0,1-7.12-1.75,4.87,4.87,0,0,1,.34-3.66,4.73,4.73,0,0,1,2.7-2.72,4.6,4.6,0,0,1,3.7.4,4.37,4.37,0,0,1,2.23,2.34,3.51,3.51,0,0,1,.07,2l-2-.59a1.92,1.92,0,0,0-.12-1.36,2.24,2.24,0,0,0-1-1,2.35,2.35,0,0,0-2-.16,3.4,3.4,0,0,0-1.68,1.86,3.85,3.85,0,0,0-.51,2.55,2.19,2.19,0,0,0,1.18,1.43,2,2,0,0,0,1.39.19A2.8,2.8,0,0,0,194.19,163.27Z"/><path class="b4817e64-6433-49fc-b6cc-8c74f235be07" d="M201.94,172.11l-.95-.66,4.14-6a6.93,6.93,0,0,1-1.42,0,9.49,9.49,0,0,1-1.41-.22l.6-.92a8.29,8.29,0,0,0,2.13.11,4.61,4.61,0,0,0,1.63-.39l.67.47Z"/><path class="b4817e64-6433-49fc-b6cc-8c74f235be07" d="M205.8,171.92l1.05.68a2.16,2.16,0,0,0-.31,1.43,1.77,1.77,0,0,0,.66,1.09,1.93,1.93,0,0,0,1.5.43,2.32,2.32,0,0,0,1.52-.88,2,2,0,0,0,.55-1.55,2.08,2.08,0,0,0-.83-1.41,2.2,2.2,0,0,0-1-.47,2,2,0,0,0-1,.05l-.82-.8c1.46-1.29,2.2-1.93,3.69-3.19,1.63,1.26,2.42,1.92,4,3.26l-.71.83c-1.24-1.07-1.87-1.59-3.16-2.61l-2,1.63a3.32,3.32,0,0,1,1.84.73A3,3,0,0,1,212,173.2a2.82,2.82,0,0,1-.74,2.23,3.4,3.4,0,0,1-2,1.15,3.13,3.13,0,0,1-2.64-.73A3.18,3.18,0,0,1,205.4,174,2.8,2.8,0,0,1,205.8,171.92Z"/><path class="b4817e64-6433-49fc-b6cc-8c74f235be07" d="M31.49,185l1.39-1.49,4.28,4a5.78,5.78,0,0,1,1.15,1.37,2.55,2.55,0,0,1,.25,1.64,3.5,3.5,0,0,1-.95,1.76,3,3,0,0,1-2,1.11,3.13,3.13,0,0,1-2.21-.91L34.44,191a2.41,2.41,0,0,0,1,.57,1.06,1.06,0,0,0,1-.38,1.08,1.08,0,0,0,.36-.92,2.74,2.74,0,0,0-.91-1.21Z"/><path class="b4817e64-6433-49fc-b6cc-8c74f235be07" d="M40.44,189c-.31-1.68-.46-2.53-.72-4.23-1.61-.23-2.43-.34-4.06-.53l1.63-1.66,2.21.42c-.15-.9-.21-1.35-.35-2.26l1.61-1.55c.17,1.6.26,2.39.47,4,1.74.29,2.6.44,4.32.78l-1.61,1.55-2.47-.5c.18,1,.27,1.49.47,2.48Z"/><path class="b4817e64-6433-49fc-b6cc-8c74f235be07" d="M48.65,176.61l1.82-.78a4.16,4.16,0,0,1,.36,2.66,4.69,4.69,0,0,1-4.59,3.35,5.59,5.59,0,0,1-4.78-5.21,4.51,4.51,0,0,1,1.68-3.24,4.27,4.27,0,0,1,2.93-1.19,3.55,3.55,0,0,1,1.88.66l-1.23,1.62a1.93,1.93,0,0,0-1.3-.39,2.19,2.19,0,0,0-1.3.58,2.31,2.31,0,0,0-.85,1.75,3.46,3.46,0,0,0,1.11,2.24,3.83,3.83,0,0,0,2.18,1.42,2.19,2.19,0,0,0,1.77-.57,2,2,0,0,0,.69-1.23A2.78,2.78,0,0,0,48.65,176.61Z"/><path class="b4817e64-6433-49fc-b6cc-8c74f235be07" d="M60.34,171.76,58.66,173l-1.93-1.19c-1.23.93-1.84,1.4-3,2.35.28.86.42,1.29.7,2.14l-1.58,1.28c-1.23-3.81-1.81-5.74-2.87-9.63l1.7-1.32C55.18,168.6,56.93,169.63,60.34,171.76Zm-5.06-.83c-1.26-.78-1.9-1.16-3.18-1.91.42,1.42.64,2.13,1.08,3.54C54,171.89,54.43,171.57,55.28,170.92Z"/><path class="b4817e64-6433-49fc-b6cc-8c74f235be07" d="M62.1,170.5l-4.44-6.33c-1,.68-1.45,1-2.41,1.72l-.93-1.27c2.59-1.89,3.91-2.8,6.59-4.56l.86,1.32c-1,.65-1.48,1-2.46,1.64l4.36,6.39Z"/><path class="b4817e64-6433-49fc-b6cc-8c74f235be07" d="M73.6,163.2l-1,.58-3.67-6.29a6.6,6.6,0,0,1-.6,1.26,8.84,8.84,0,0,1-.79,1.16L67,159a7.87,7.87,0,0,0,1-1.86,4.48,4.48,0,0,0,.32-1.63l.69-.4Z"/><path class="b4817e64-6433-49fc-b6cc-8c74f235be07" d="M75,159.59l1-.7a2.51,2.51,0,0,0,1.27.91,1.75,1.75,0,0,0,1.25-.17,2,2,0,0,0,1-1.14,1.87,1.87,0,0,0-.11-1.49,1.7,1.7,0,0,0-1.07-.92,1.9,1.9,0,0,0-1.46.17,3.55,3.55,0,0,0-.69.51l-.35-.95.18-.08a2.65,2.65,0,0,0,1.06-1,1.29,1.29,0,0,0,0-1.33,1.34,1.34,0,0,0-.88-.72,1.69,1.69,0,0,0-1.24.18,1.73,1.73,0,0,0-.87.93,2,2,0,0,0,0,1.4l-1.17.4a2.84,2.84,0,0,1,.05-2.05,3.08,3.08,0,0,1,1.47-1.49,3.47,3.47,0,0,1,1.51-.41,2.45,2.45,0,0,1,1.35.32,2.16,2.16,0,0,1,.86.91,1.89,1.89,0,0,1,.18,1.14,2.36,2.36,0,0,1-.55,1.16,2.27,2.27,0,0,1,1.56.1,2.31,2.31,0,0,1,1.09,1.13,2.74,2.74,0,0,1,.09,2.26,3.32,3.32,0,0,1-1.66,1.8,3.09,3.09,0,0,1-2.18.33A2.83,2.83,0,0,1,75,159.59Z"/><path class="b4817e64-6433-49fc-b6cc-8c74f235be07" d="M83.35,158.1l-.56-1.17,1.22-.57.55,1.18a2.29,2.29,0,0,1,.26,1.16,1.7,1.7,0,0,1-.45,1l-.5-.3a1.11,1.11,0,0,0,.29-.65,2,2,0,0,0-.2-.88Z"/><path class="b4817e64-6433-49fc-b6cc-8c74f235be07" d="M85.12,154.56l1-.63a2.51,2.51,0,0,0,1.2,1,1.76,1.76,0,0,0,1.26-.08,2,2,0,0,0,1.08-1.06,1.86,1.86,0,0,0,0-1.5,1.7,1.7,0,0,0-1-1,1.91,1.91,0,0,0-1.47.07,3.57,3.57,0,0,0-.73.45l-.28-1,.18-.07a2.67,2.67,0,0,0,1.14-.9,1.29,1.29,0,0,0,.12-1.32,1.34,1.34,0,0,0-.82-.79,1.7,1.7,0,0,0-1.26.08,1.74,1.74,0,0,0-.94.86,2,2,0,0,0-.06,1.4l-1.2.31a2.84,2.84,0,0,1,.21-2A3.1,3.1,0,0,1,85.19,147a3.5,3.5,0,0,1,1.54-.29,2.46,2.46,0,0,1,1.32.42,2.15,2.15,0,0,1,.79,1,1.88,1.88,0,0,1,.09,1.15,2.36,2.36,0,0,1-.64,1.12,2.28,2.28,0,0,1,1.56.21,2.31,2.31,0,0,1,1,1.21,2.73,2.73,0,0,1-.08,2.26,3.33,3.33,0,0,1-1.8,1.67,3.11,3.11,0,0,1-2.21.17A2.83,2.83,0,0,1,85.12,154.56Z"/><path class="b4817e64-6433-49fc-b6cc-8c74f235be07" d="M9.41,267.24l-9.28-.67C.35,263.52.5,262,.9,259l1.56.21c-.29,2.18-.41,3.27-.6,5.47l2.06.18c.18-2,.28-3,.54-5L6,260c-.25,2-.36,3-.53,4.94l2.52.22c.19-2.16.31-3.24.59-5.39l1.55.21C9.77,262.88,9.62,264.33,9.41,267.24Z"/><path class="b4817e64-6433-49fc-b6cc-8c74f235be07" d="M10.38,258.37,1.17,257c.25-1.73.4-2.6.71-4.32a7.7,7.7,0,0,1,.7-2.3,2.27,2.27,0,0,1,1.11-1,2.48,2.48,0,0,1,1.53-.13,2.41,2.41,0,0,1,1.56,1,3.32,3.32,0,0,1,.46,2.09,4.42,4.42,0,0,1,1-.89,9.74,9.74,0,0,1,1.71-.79l2-.76c-.2.9-.29,1.35-.48,2.25-.9.39-1.36.58-2.26,1a11.93,11.93,0,0,0-1.53.77,1.51,1.51,0,0,0-.49.52,3.39,3.39,0,0,0-.27,1l-.07.4,3.83.63C10.55,257.22,10.49,257.6,10.38,258.37Zm-5-2.78c.1-.59.15-.88.25-1.47a8.81,8.81,0,0,0,.21-1.8,1.09,1.09,0,0,0-.28-.63,1.15,1.15,0,0,0-.65-.34,1.06,1.06,0,0,0-.8.12,1.27,1.27,0,0,0-.5.69c-.05.16-.16.65-.3,1.47-.11.63-.17.95-.27,1.58Z"/><path class="b4817e64-6433-49fc-b6cc-8c74f235be07" d="M10.39,242.07c.43-.67.65-1,1.09-1.67a4.19,4.19,0,0,1,1.76,2,4.28,4.28,0,0,1,0,2.64,4.31,4.31,0,0,1-2,2.73,4.82,4.82,0,0,1-3.66.43,4.75,4.75,0,0,1-3.22-2.08,4.6,4.6,0,0,1-.4-3.68,4.37,4.37,0,0,1,1.79-2.67,3.52,3.52,0,0,1,1.94-.5c-.06.82-.09,1.23-.14,2.05a1.92,1.92,0,0,0-1.3.41A2.24,2.24,0,0,0,5.54,243a2.36,2.36,0,0,0,.26,2A3.42,3.42,0,0,0,8,246.19a3.81,3.81,0,0,0,2.6,0,2.21,2.21,0,0,0,1.15-1.47,2,2,0,0,0-.11-1.42A2.78,2.78,0,0,0,10.39,242.07Z"/><path class="b4817e64-6433-49fc-b6cc-8c74f235be07" d="M16.88,230.37l1,.41c-.95,2.33-1.39,3.51-2.22,5.89a1.94,1.94,0,0,1-.7-.39,4,4,0,0,1-.91-1.15,11,11,0,0,1-.79-2,14.86,14.86,0,0,0-1.07-2.74,2.29,2.29,0,0,0-1.07-1,1.46,1.46,0,0,0-1.26.07,2,2,0,0,0-.93,1.13,2,2,0,0,0,0,1.53,1.78,1.78,0,0,0,1.1,1l-.54,1.15a2.75,2.75,0,0,1-1.56-1.6,3.54,3.54,0,0,1,.16-2.42,3.36,3.36,0,0,1,1.54-1.91,2.32,2.32,0,0,1,2-.1,2.64,2.64,0,0,1,.92.64,4.41,4.41,0,0,1,.75,1.17,22.79,22.79,0,0,1,.85,2.33,17.57,17.57,0,0,0,.62,1.7,3.67,3.67,0,0,0,.41.68C15.83,233,16.17,232.12,16.88,230.37Z"/><path class="b4817e64-6433-49fc-b6cc-8c74f235be07" d="M16.13,228.68l.4-1.19a2.14,2.14,0,0,0,1.46-.07,1.79,1.79,0,0,0,.89-.93,1.94,1.94,0,0,0,0-1.57,2.31,2.31,0,0,0-1.24-1.24,2,2,0,0,0-1.64-.13,2.08,2.08,0,0,0-1.15,1.16,2.21,2.21,0,0,0-.2,1.07,2,2,0,0,0,.3.94l-.57,1c-1.61-1.1-2.42-1.65-4-2.77.81-1.88,1.23-2.81,2.11-4.65l1,.47c-.7,1.47-1,2.21-1.69,3.69l2.07,1.5a3.33,3.33,0,0,1,.23-2,3,3,0,0,1,1.69-1.65,2.82,2.82,0,0,1,2.34.13,3.37,3.37,0,0,1,1.64,1.64,3.15,3.15,0,0,1,0,2.75,3.22,3.22,0,0,1-1.51,1.66A2.78,2.78,0,0,1,16.13,228.68Z"/><path class="b4817e64-6433-49fc-b6cc-8c74f235be07" d="M21.73,222.32l-1.16-.58.61-1.2,1.16.6a2.28,2.28,0,0,1,.91.76,1.7,1.7,0,0,1,.24,1l-.58.07a1.11,1.11,0,0,0-.17-.69,2,2,0,0,0-.7-.57Z"/><path class="b4817e64-6433-49fc-b6cc-8c74f235be07" d="M19.58,215.56a2.36,2.36,0,0,1-1.19.64A1.85,1.85,0,0,1,17.2,216a2.15,2.15,0,0,1-1.12-1.52,3.59,3.59,0,0,1,2.14-3.74,2.18,2.18,0,0,1,1.9.18,1.81,1.81,0,0,1,.78.89,2.35,2.35,0,0,1,.07,1.33,2.63,2.63,0,0,1,1.49-.74,2.35,2.35,0,0,1,1.52.36,2.65,2.65,0,0,1,1.27,1.78,3.72,3.72,0,0,1-2.27,4,2.7,2.7,0,0,1-2.21-.19,2.34,2.34,0,0,1-1.11-1.15A2.43,2.43,0,0,1,19.58,215.56Zm1.76,1.69a2,2,0,0,0,.95.24,1.69,1.69,0,0,0,1-.28,2.18,2.18,0,0,0,.72-.77,2,2,0,0,0,.24-1.48,1.89,1.89,0,0,0-2.34-1.35,2,2,0,0,0-1.2,1,2,2,0,0,0-.23,1.5A1.75,1.75,0,0,0,21.35,217.25Zm-3.58-2.41a1.4,1.4,0,0,0,1.17.12,1.72,1.72,0,0,0,.95-.83,1.68,1.68,0,0,0,.22-1.22,1.34,1.34,0,0,0-.65-.91,1.36,1.36,0,0,0-1.15-.12,1.69,1.69,0,0,0-1,.82,1.71,1.71,0,0,0-.22,1.25A1.29,1.29,0,0,0,17.77,214.84Z"/><text class="1c895923-589f-4ad3-96ff-367f90dd5fad" transform="matrix(1, 0.02, -0.02, 1, 141.17, 133.97)"><tspan class="3572af0c-b46b-4bf3-848c-4d6fde0cd8d1">CeC-</tspan><tspan class="2ef77218-70c3-4ee0-aed7-6a0f9f4fd471" x="30.33" y="0">P</tspan><tspan class="959f3992-f498-4b8d-927b-345516588efb" x="38.77" y="0"> </tspan><tspan class="8a7b8f07-4bc9-4331-9709-2fbf1d04896f" x="42.38" y="0">8,7</tspan></text><text class="1c895923-589f-4ad3-96ff-367f90dd5fad" transform="matrix(1, 0.02, -0.02, 1, 50.95, 111.06)"><tspan class="3572af0c-b46b-4bf3-848c-4d6fde0cd8d1">CU</tspan><tspan class="19759e93-9c3c-462f-bca0-8c409c4e47b4" x="18.78" y="0">P</tspan><tspan class="3572af0c-b46b-4bf3-848c-4d6fde0cd8d1" x="27.21" y="0"> </tspan><tspan class="a3e2395f-576a-4a2c-a23b-1794c6a0defb" x="30.82" y="0">5,9</tspan></text></svg>