<svg id="40ada087-65b4-419d-809c-991c52b564f9" data-name="Capa 1" xmlns="http://www.w3.org/2000/svg" viewBox="0 0 500 520"><defs><style>.\30 d570b78-593f-41d1-a137-9a18274b197a,.\31 1832bc4-8835-4bc4-9015-235cfbde4b8c,.\31 59f482e-fad8-4448-8d17-deb4c6e628a7,.\32 c03a4ab-e4ee-44d1-8903-330d2f9a7c69,.\33 79e945a-5be8-4972-8490-3825fbece69d,.\33 887fba4-3cdf-4067-b47f-2a09e378d12f,.\33 8d431f9-d6f5-4e56-ac7a-d58b9c3db7d5,.\33 ca6394f-2569-48e5-8296-008804e7a2a9,.\34 2c2d92a-f8d8-4d02-8fe0-e76de8936ae2,.\34 34a0b34-b7d3-4447-9064-b3c5a25dbf43,.\34 87ddd67-23fa-451f-9837-2248708bd963,.\35 2173988-988e-4c6c-b76b-bcbd4c481287,.\35 4c1a6c3-067d-4763-8f5a-2d416503b4e9,.\36 229f877-8589-4949-8053-b45e0152a3a8,.\36 45dbe33-089a-4677-9712-a1198758e200,.\36 d872c61-0131-4c8d-9cad-910c785886d7,.\37 13ffabd-5a53-4c85-8605-ae6f47ec5a4c,.\37 1e00c38-03ed-487d-92d1-a19204269c65,.\37 451f0c3-57cc-4198-a6c7-0298506d1df6,.\38 f3cc3bb-7869-416e-b956-7ebeb2d4df8f,.\39 9df2328-bf39-414e-9230-c9b8f5d36fff,.\39 a5a88ff-e33a-4c1d-ab31-0a39ba8ecdc2,.ab5f4206-4ad7-4cee-95bd-f71c69ee921b,.c626965d-d1db-4b71-b6cd-d42435ae27f1,.c9238203-0adc-4a8d-97a4-834fd407dfae,.caa693ff-ad08-42b3-8d94-c0c02ff9d7c6,.dd4213ee-64a4-4680-8ada-699120117e84,.ec4c61c4-74d7-4e64-ae28-84df8870a267,.fa4a1082-4872-4063-911b-3993c1bcf372,.fc688ea7-59c5-4648-9571-4f5f4bae8146{fill:none;stroke-opacity:0.4;}.\33 8d431f9-d6f5-4e56-ac7a-d58b9c3db7d5,.\36 45dbe33-089a-4677-9712-a1198758e200,.\38 f3cc3bb-7869-416e-b956-7ebeb2d4df8f,.\39 a5a88ff-e33a-4c1d-ab31-0a39ba8ecdc2,.fa4a1082-4872-4063-911b-3993c1bcf372{stroke:#d57928;}.\33 8d431f9-d6f5-4e56-ac7a-d58b9c3db7d5{stroke-width:64.39px;}.\30 d570b78-593f-41d1-a137-9a18274b197a,.\34 34a0b34-b7d3-4447-9064-b3c5a25dbf43,.\35 2173988-988e-4c6c-b76b-bcbd4c481287,.c626965d-d1db-4b71-b6cd-d42435ae27f1,.fc688ea7-59c5-4648-9571-4f5f4bae8146{stroke:#e82656;}.\30 d570b78-593f-41d1-a137-9a18274b197a{stroke-width:49.02px;}.\31 59f482e-fad8-4448-8d17-deb4c6e628a7,.\34 2c2d92a-f8d8-4d02-8fe0-e76de8936ae2,.\37 13ffabd-5a53-4c85-8605-ae6f47ec5a4c,.\39 9df2328-bf39-414e-9230-c9b8f5d36fff,.c9238203-0adc-4a8d-97a4-834fd407dfae{stroke:#ffe600;}.c9238203-0adc-4a8d-97a4-834fd407dfae{stroke-width:46.64px;}.\33 79e945a-5be8-4972-8490-3825fbece69d,.\33 ca6394f-2569-48e5-8296-008804e7a2a9,.\35 4c1a6c3-067d-4763-8f5a-2d416503b4e9{stroke:#12b4d9;}.\35 4c1a6c3-067d-4763-8f5a-2d416503b4e9{stroke-width:40.23px;}.\33 887fba4-3cdf-4067-b47f-2a09e378d12f,.\34 87ddd67-23fa-451f-9837-2248708bd963,.\37 451f0c3-57cc-4198-a6c7-0298506d1df6,.caa693ff-ad08-42b3-8d94-c0c02ff9d7c6,.dd4213ee-64a4-4680-8ada-699120117e84,.ec4c61c4-74d7-4e64-ae28-84df8870a267{stroke:#69bfbf;}.ec4c61c4-74d7-4e64-ae28-84df8870a267{stroke-width:34.87px;}.\31 1832bc4-8835-4bc4-9015-235cfbde4b8c,.\32 c03a4ab-e4ee-44d1-8903-330d2f9a7c69,.\36 229f877-8589-4949-8053-b45e0152a3a8,.\36 d872c61-0131-4c8d-9cad-910c785886d7,.\37 1e00c38-03ed-487d-92d1-a19204269c65,.ab5f4206-4ad7-4cee-95bd-f71c69ee921b{stroke:#be26a0;}.\32 c03a4ab-e4ee-44d1-8903-330d2f9a7c69{stroke-width:34.35px;}.\34 87ddd67-23fa-451f-9837-2248708bd963{stroke-width:31.01px;}.\33 ca6394f-2569-48e5-8296-008804e7a2a9{stroke-width:27.85px;}.\34 2c2d92a-f8d8-4d02-8fe0-e76de8936ae2{stroke-width:19.15px;}.ab5f4206-4ad7-4cee-95bd-f71c69ee921b{stroke-width:15.72px;}.\34 34a0b34-b7d3-4447-9064-b3c5a25dbf43{stroke-width:10.37px;}.\38 f3cc3bb-7869-416e-b956-7ebeb2d4df8f{stroke-width:9.49px;}.\36 d872c61-0131-4c8d-9cad-910c785886d7{stroke-width:7.55px;}.\37 13ffabd-5a53-4c85-8605-ae6f47ec5a4c{stroke-width:7.38px;}.\36 229f877-8589-4949-8053-b45e0152a3a8{stroke-width:6.15px;}.\35 2173988-988e-4c6c-b76b-bcbd4c481287{stroke-width:5.27px;}.\39 9df2328-bf39-414e-9230-c9b8f5d36fff{stroke-width:4.92px;}.fc688ea7-59c5-4648-9571-4f5f4bae8146{stroke-width:4.83px;}.caa693ff-ad08-42b3-8d94-c0c02ff9d7c6{stroke-width:3.6px;}.\31 1832bc4-8835-4bc4-9015-235cfbde4b8c{stroke-width:3.07px;}.\37 1e00c38-03ed-487d-92d1-a19204269c65{stroke-width:2.9px;}.dd4213ee-64a4-4680-8ada-699120117e84{stroke-width:2.72px;}.\31 59f482e-fad8-4448-8d17-deb4c6e628a7{stroke-width:2.2px;}.\36 45dbe33-089a-4677-9712-a1198758e200{stroke-width:1.84px;}.\37 451f0c3-57cc-4198-a6c7-0298506d1df6,.fa4a1082-4872-4063-911b-3993c1bcf372{stroke-width:1.05px;}.\33 7583a31-7976-4730-a701-f0148074b9ae{fill:#960f83;}.\34 710db71-3db7-45e4-8063-35506ae3dc79,.fc873319-17af-4740-83e0-12a7598d2848{font-size:14px;}.\34 710db71-3db7-45e4-8063-35506ae3dc79,.\38 38883a2-8f4e-431c-8906-b09a6fe44618,.edb957f8-c52f-4ec3-ad37-7618fb03f05c,.fc873319-17af-4740-83e0-12a7598d2848{fill:#323232;}.\34 710db71-3db7-45e4-8063-35506ae3dc79,.\38 38883a2-8f4e-431c-8906-b09a6fe44618,.\39 df5d484-ec96-4ef8-8927-dae16cb26197,.fc873319-17af-4740-83e0-12a7598d2848{font-family:ArialMT, Arial;}.\31 3d6adf4-a323-4eb6-bfc3-a3b0f3a4321f{letter-spacing:-0.02em;}.e2c6dd85-d7f5-44c0-805a-f8bda86bbfaf{fill:#d57928;}.\30 cb2026c-2c82-43b6-924b-f9d606a21a3f{fill:#ffe600;}.\34 710db71-3db7-45e4-8063-35506ae3dc79{isolation:isolate;}.bad9c87c-658e-40d8-bb6a-43e5c6627b3a{fill:#69bfbf;}.b1a22c2b-6a79-4edc-8aa2-0f8041c93a49{fill:#4ca2cc;}.e5cd53ea-d3c3-46c4-a51e-12cffc215df2{fill:#af0838;}.\35 3f9d0f0-84b0-453c-8c39-edb8dbc2ba73{fill:#efb21b;}.\34 34ed126-1556-484f-868b-f3cb453c0cf1{fill:#3f4d78;}.\39 df5d484-ec96-4ef8-8927-dae16cb26197{font-size:13px;fill:#757575;}.\33 3e2d5a9-1069-4a5c-9098-aaf19106302e{fill:#283659;}.a26d02d4-3883-4310-bf70-8ccee756ab2b{fill:#fff;}.edb957f8-c52f-4ec3-ad37-7618fb03f05c{font-size:26px;font-family:Arial-BoldMT, Arial;font-weight:700;}.\34 37702fe-e64f-4472-83a4-891126e5e320{letter-spacing:-0.06em;}.\38 38883a2-8f4e-431c-8906-b09a6fe44618{font-size:15px;}</style></defs><title>2017.12.05_TrasvaseVotos</title><path class="38d431f9-d6f5-4e56-ac7a-d58b9c3db7d5" d="M62.67,453.15c195.34,0,195.34,4,390.68,4"/><path class="0d570b78-593f-41d1-a137-9a18274b197a" d="M62.67,250.88c195.34,0,195.34,9.94,390.68,9.94"/><path class="c9238203-0adc-4a8d-97a4-834fd407dfae" d="M62.67,195.18c195.34,0,195.34,13.3,390.68,13.3"/><path class="54c1a6c3-067d-4763-8f5a-2d416503b4e9" d="M62.67,393C258,393,258,415.43,453.34,415.43"/><path class="ec4c61c4-74d7-4e64-ae28-84df8870a267" d="M62.67,126.76C258,126.76,258,140,453.34,140"/><path class="2c03a4ab-e4ee-44d1-8903-330d2f9a7c69" d="M62.67,327.94c195.34,0,195.34,3.15,390.68,3.15"/><path class="487ddd67-23fa-451f-9837-2248708bd963" d="M62.67,100.5c195.34,0,195.34-4,390.68-4"/><path class="3ca6394f-2569-48e5-8296-008804e7a2a9" d="M62.67,365.89c195.34,0,195.34-.15,390.68-.15"/><path class="42c2d92a-f8d8-4d02-8fe0-e76de8936ae2" d="M62.67,168.95c195.34,0,195.34-7.42,390.68-7.42"/><path class="ab5f4206-4ad7-4cee-95bd-f71c69ee921b" d="M62.67,308C258,308,258,286.63,453.34,286.63"/><path class="434a0b34-b7d3-4447-9064-b3c5a25dbf43" d="M62.67,278.83C258,278.83,258,390.35,453.34,390.35"/><path class="8f3cc3bb-7869-416e-b956-7ebeb2d4df8f" d="M62.67,421.39C258,421.39,258,296.68,453.34,296.68"/><path class="6d872c61-0131-4c8d-9cad-910c785886d7" d="M62.67,296.39C258,296.39,258,176,453.34,176"/><path class="713ffabd-5a53-4c85-8605-ae6f47ec5a4c" d="M62.67,158.37c195.34,0,195.34-46.56,390.68-46.56"/><path class="6229f877-8589-4949-8053-b45e0152a3a8" d="M62.67,344.09c195.34,0,195.34,52.85,390.68,52.85"/><path class="52173988-988e-4c6c-b76b-bcbd4c481287" d="M62.67,272.52C258,272.52,258,315.3,453.34,315.3"/><path class="99df2328-bf39-414e-9230-c9b8f5d36fff" d="M62.67,217.48c195.34,0,195.34,93.75,390.68,93.75"/><path class="fc688ea7-59c5-4648-9571-4f5f4bae8146" d="M62.67,229.41c195.34,0,195.34-58.32,390.68-58.32"/><path class="caa693ff-ad08-42b3-8d94-c0c02ff9d7c6" d="M62.67,142.1C258,142.1,258,188.45,453.34,188.45"/><path class="11832bc4-8835-4bc4-9015-235cfbde4b8c" d="M62.67,292.16c195.34,0,195.34-176.1,390.68-176.1"/><path class="71e00c38-03ed-487d-92d1-a19204269c65" d="M62.67,300.56c195.34,0,195.34-72.33,390.68-72.33"/><path class="dd4213ee-64a4-4680-8ada-699120117e84" d="M62.67,144.62c195.34,0,195.34,93.82,390.68,93.82"/><path class="159f482e-fad8-4448-8d17-deb4c6e628a7" d="M62.67,214.65C258,214.65,258,240.4,453.34,240.4"/><path class="645dbe33-089a-4677-9712-a1198758e200" d="M62.67,425.9C258,425.9,258,345.52,453.34,345.52"/><path class="7451f0c3-57cc-4198-a6c7-0298506d1df6" d="M62.67,146.13C258,146.13,258,308.85,453.34,308.85"/><path class="fa4a1082-4872-4063-911b-3993c1bcf372" d="M62.67,427.06c195.34,0,195.34-49.79,390.68-49.79"/><path class="9a5a88ff-e33a-4c1d-ab31-0a39ba8ecdc2" d="M62.67,417.32C258,417.32,258,117.84,453.34,117.84"/><path class="3887fba4-3cdf-4067-b47f-2a09e378d12f" d="M62.67,147.18C258,147.18,258,385.94,453.34,385.94"/><path class="3887fba4-3cdf-4067-b47f-2a09e378d12f" d="M62.67,146.72C258,146.72,258,354.4,453.34,354.4"/><path class="379e945a-5be8-4972-8490-3825fbece69d" d="M62.67,354.65C258,354.65,258,117.42,453.34,117.42"/><path class="c626965d-d1db-4b71-b6cd-d42435ae27f1" d="M62.67,274.66c195.34,0,195.34,80,390.68,80"/><path class="c626965d-d1db-4b71-b6cd-d42435ae27f1" d="M62.67,227.45C258,227.45,258,114.79,453.34,114.79"/><rect class="37583a31-7976-4730-a701-f0148074b9ae" x="58.68" y="290.93" width="3.99" height="56.82"/><text class="fc873319-17af-4740-83e0-12a7598d2848" transform="translate(67.45 321.8)">CSQ<tspan class="13d6adf4-a323-4eb6-bfc3-a3b0f3a4321f" x="30.34" y="0">P</tspan></text><rect class="e2c6dd85-d7f5-44c0-805a-f8bda86bbfaf" x="58.68" y="417.04" width="3.99" height="68.46"/><text class="fc873319-17af-4740-83e0-12a7598d2848" transform="translate(67.45 451)">Cs</text><rect class="0cb2026c-2c82-43b6-924b-f9d606a21a3f" x="58.68" y="155.43" width="3.99" height="64.01"/><text class="4710db71-3db7-45e4-8063-35506ae3dc79" transform="translate(67.45 190.51)">CU<tspan class="13d6adf4-a323-4eb6-bfc3-a3b0f3a4321f" x="20.22" y="0">P</tspan></text><rect class="bad9c87c-658e-40d8-bb6a-43e5c6627b3a" x="58.68" y="84.15" width="3.99" height="63.31"/><text class="4710db71-3db7-45e4-8063-35506ae3dc79" transform="translate(67.45 120.87)">Junts pel Sí</text><rect class="b1a22c2b-6a79-4edc-8aa2-0f8041c93a49" x="58.68" y="351.75" width="3.99" height="61.5"/><text class="fc873319-17af-4740-83e0-12a7598d2848" transform="translate(67.45 384.86)">P<tspan class="13d6adf4-a323-4eb6-bfc3-a3b0f3a4321f" x="9.34" y="0">P</tspan></text><rect class="e5cd53ea-d3c3-46c4-a51e-12cffc215df2" x="58.68" y="226.25" width="3.99" height="57.75"/><text class="fc873319-17af-4740-83e0-12a7598d2848" transform="translate(67.45 258.26)">PSC</text><rect class="37583a31-7976-4730-a701-f0148074b9ae" x="453.34" y="308.43" width="3.99" height="39.9"/><text class="fc873319-17af-4740-83e0-12a7598d2848" transform="translate(398.55 330.41)">Cec-<tspan class="13d6adf4-a323-4eb6-bfc3-a3b0f3a4321f" x="29.56" y="0">P</tspan></text><rect class="e2c6dd85-d7f5-44c0-805a-f8bda86bbfaf" x="453.34" y="384.86" width="3.99" height="104.39"/><text class="fc873319-17af-4740-83e0-12a7598d2848" transform="translate(433.73 437.3)">Cs</text><rect class="0cb2026c-2c82-43b6-924b-f9d606a21a3f" x="453.34" y="185" width="3.99" height="46.67"/><text class="fc873319-17af-4740-83e0-12a7598d2848" transform="translate(413.74 211.27)">CU<tspan class="13d6adf4-a323-4eb6-bfc3-a3b0f3a4321f" x="20.22" y="0">P</tspan></text><rect class="53f9d0f0-84b0-453c-8c39-edb8dbc2ba73" x="453.34" y="122.67" width="3.99" height="58"/><text class="fc873319-17af-4740-83e0-12a7598d2848" transform="translate(413.65 155.64)">ERC</text><rect class="434ed126-1556-484f-868b-f3cb453c0cf1" x="453.34" y="80.67" width="3.99" height="37.45"/><text class="fc873319-17af-4740-83e0-12a7598d2848" transform="translate(362.4 104.21)">Junts per Cat</text><rect class="b1a22c2b-6a79-4edc-8aa2-0f8041c93a49" x="453.34" y="351.5" width="3.99" height="28"/><text class="fc873319-17af-4740-83e0-12a7598d2848" transform="translate(431.44 369.03)">P<tspan class="13d6adf4-a323-4eb6-bfc3-a3b0f3a4321f" x="9.34" y="0">P</tspan></text><rect class="e5cd53ea-d3c3-46c4-a51e-12cffc215df2" x="453.34" y="236.04" width="3.99" height="64.52"/><text class="fc873319-17af-4740-83e0-12a7598d2848" transform="translate(414.74 271.98)">PSC</text><text class="9df5d484-ec96-4ef8-8927-dae16cb26197" transform="translate(8.36 511.86) scale(0.99 1)">Fuente: Barómetro del CIS de noviembre de 2017</text><polygon class="33e2d5a9-1069-4a5c-9098-aaf19106302e" points="391 498.92 494.29 498.92 494.29 514.61 391 514.61 391 498.92 391 498.92"/><path class="a26d02d4-3883-4310-bf70-8ccee756ab2b" d="M473.86,502.43h-4v.49l1,.25v7.3a.86.86,0,0,1-.73.37,1.55,1.55,0,0,1-1.29-.94l-1-1.77a2,2,0,0,0-1.81-1.22v-.12a2.42,2.42,0,0,0,2.5-2.25c0-1.52-1.38-2.11-3-2.11h-3.59v.49l1.17.25v7.4h0l-1.35.26-3.37-9.17a4.23,4.23,0,0,1-1.21,1l.13.37-3.07,7.52-.93.25v.49h2.81v-.49l-.92-.24,1-2.74h2.85l1,2.72-1.07.26v.49H466v-.49l-1.12-.24v-3.45a1.68,1.68,0,0,1,1.52,1.12l1.35,2.41a2.18,2.18,0,0,0,2,1.18,1.93,1.93,0,0,0,1.28-.53h3a4.58,4.58,0,0,0,4.7-4.45,4.47,4.47,0,0,0-4.78-4.45Zm-17.28,4.73,1.2-3.16,1.16,3.16Zm8.81-.67h-.61v-3.32h.76a1.5,1.5,0,0,1,1.56,1.59,1.73,1.73,0,0,1-1.68,1.73Zm8.38,4.1h-1.27v-7.43h1.3c2,0,3.26,1.4,3.26,3.71s-1.29,3.71-3.3,3.71Z"/><path class="a26d02d4-3883-4310-bf70-8ccee756ab2b" d="M408.9,510.59l-3.29-8.94a4.22,4.22,0,0,1-1.21,1l.13.37-3.05,7.52-.66.25-.2.49h2.72v-.49l-.92-.24,1-2.74h2.85l1,2.72-1.07.26v.49h3.66v-.49l-1-.24Zm-5.22-3.43,1.21-3.16,1.16,3.16Z"/><polygon class="a26d02d4-3883-4310-bf70-8ccee756ab2b" points="401.06 509.07 400.73 508.88 398.81 510.63 397.16 510.63 397.16 503.17 398.15 502.92 398.15 502.42 394.61 502.42 394.61 502.92 395.6 503.17 395.6 510.57 394.61 510.83 394.61 511.32 400.18 511.32 401.06 509.07 401.06 509.07"/><polygon class="a26d02d4-3883-4310-bf70-8ccee756ab2b" points="416.53 502.42 416.53 502.92 417.6 503.17 415.27 509.13 412.82 503.16 413.98 502.92 413.98 502.42 410.02 502.42 410.02 502.92 411.15 503.17 414.67 511.63 415.05 511.63 418.55 503.18 418.58 503.18 419.67 502.92 419.67 502.42 416.53 502.42 416.53 502.42"/><path class="a26d02d4-3883-4310-bf70-8ccee756ab2b" d="M451.62,502.43v.49l1.07.25s.08,4.41,0,5.52a2.25,2.25,0,0,1-2.3,2.19h-.11a2.21,2.21,0,0,1-2.4-2.28v-5.43l1-.24v-.49h-3.58v.49l1,.24v5.47a3.28,3.28,0,0,0,3.54,3.12,3.21,3.21,0,0,0,3.54-3.12l.07-5.46,1-.25v-.49Z"/><path class="a26d02d4-3883-4310-bf70-8ccee756ab2b" d="M490.3,510.57,487,501.66a4.22,4.22,0,0,1-1.21,1l.13.37-3.06,7.55-.52.21-.71-.22v-7.44l1.09-.25v-.49H479v.49l1.08.25v7.41l-1,.24v.49h5.68v-.49l-.92-.24,1-2.74h2.85l1,2.72-1.07.26v.49h3.67v-.49l-1-.26Zm-5.21-3.41,1.21-3.16,1.16,3.16Z"/><path class="a26d02d4-3883-4310-bf70-8ccee756ab2b" d="M432.5,502.43v.49l1.09.25.07,5.82-5.58-6.57H425.7v.49l1.08.24.09,0-.08,7.37h0l-1.12.26-3.37-9.17a4.23,4.23,0,0,1-1.17,1l.13.37-3.07,7.52-.93.25v.49h2.81v-.49l-.92-.24,1-2.74H423l1,2.72-1.07.26v.49h5.86v-.49l-1.12-.25-.13-6.43,6.38,7.49h.42l.08-8.47,1.08-.25v-.49Zm-12.12,4.73L421.6,504l1.16,3.16Z"/><path class="a26d02d4-3883-4310-bf70-8ccee756ab2b" d="M441.9,506.78v.49l1,.25v2.87a3.33,3.33,0,0,1-2,.67c-2,0-3.32-1.68-3.32-4.06s1.27-4.24,3.37-4.24a3.17,3.17,0,0,1,3,2.43l.29-.17V502.2l-.26-.14-.56.68a5.61,5.61,0,0,0-2.46-.63,5,5,0,0,0-5,4.91,4.52,4.52,0,0,0,4.29,4.74h.32a4.6,4.6,0,0,0,2.87-1l.79.52h.25v-3.82l.84-.32v-.41Z"/><text class="edb957f8-c52f-4ec3-ad37-7618fb03f05c" transform="translate(52.03 26.11)"><tspan class="437702fe-e64f-4472-83a4-891126e5e320">T</tspan><tspan x="14.45" y="0">rasvase de votos, según el CIS</tspan></text><text class="838883a2-8f4e-431c-8906-b09a6fe44618" transform="translate(20.65 59.57)">Recuerdo de voto <tspan x="5" y="13">elecciones 2015</tspan></text><text class="838883a2-8f4e-431c-8906-b09a6fe44618" transform="translate(369.27 58.57)">Intención de voto <tspan x="2.92" y="13">elecciones 2017</tspan></text></svg>