<svg id="286375aa-6763-480e-a425-929d78e04509" data-name="Capa 1" xmlns="http://www.w3.org/2000/svg" viewBox="0 0 589.28 514.36"><defs><style>.\30 0001681-6871-445b-a8e6-1718271a6e56,.b47b9c8f-d0a3-4312-93fe-623725bdfd01{fill:none;}.b47b9c8f-d0a3-4312-93fe-623725bdfd01{stroke:#e5e5e5;}.\30 0001681-6871-445b-a8e6-1718271a6e56{stroke:#323232;}.\31 5b57647-7430-4cdf-9341-f7ec4147645e,.\33 c31f0e6-f7f5-42c6-a9ae-0e0002402090,.baa9ff55-0fe1-47f6-ad56-bceb79bebd1d{font-size:13px;}.\33 c31f0e6-f7f5-42c6-a9ae-0e0002402090,.\35 5893445-92f6-4e15-b4b7-54b80fa40244{fill:#323232;}.\33 c31f0e6-f7f5-42c6-a9ae-0e0002402090{font-family:Arial-ItalicMT, Arial;font-style:italic;}.\39 77de3bc-a0eb-4529-8c69-ce61bc86f3b0{font-size:12px;}.\31 5b57647-7430-4cdf-9341-f7ec4147645e,.\33 107c428-7889-40ae-a6b0-590522970430,.\33 e5305ee-bc29-4e4e-b341-8cfb59e71c5d,.\36 11f4bbe-e67a-4539-a70c-25c6de550830,.\39 77de3bc-a0eb-4529-8c69-ce61bc86f3b0,.baa9ff55-0fe1-47f6-ad56-bceb79bebd1d,.eefa17fd-50e7-4261-a345-45d8c0d787af,.f36fd333-aa9c-40fd-9877-bf6d28ee6014{fill:#757575;}.\31 5b57647-7430-4cdf-9341-f7ec4147645e,.\32 2f37031-4a84-4615-b4d1-a7e8d4a17b3a,.\33 107c428-7889-40ae-a6b0-590522970430,.\36 11f4bbe-e67a-4539-a70c-25c6de550830,.\39 77de3bc-a0eb-4529-8c69-ce61bc86f3b0,.c8dbed34-0bfd-4f30-80d4-baaec878d4d0,.f36fd333-aa9c-40fd-9877-bf6d28ee6014{font-family:ArialMT, Arial;}.\33 107c428-7889-40ae-a6b0-590522970430,.\33 e5305ee-bc29-4e4e-b341-8cfb59e71c5d{font-size:14px;}.\33 e5305ee-bc29-4e4e-b341-8cfb59e71c5d,.\35 5893445-92f6-4e15-b4b7-54b80fa40244,.baa9ff55-0fe1-47f6-ad56-bceb79bebd1d{font-family:Arial-BoldMT, Arial;}.\32 ff273c6-90bc-4dfd-bc27-040f19b3f073,.\35 5893445-92f6-4e15-b4b7-54b80fa40244{font-weight:700;}.\32 2f37031-4a84-4615-b4d1-a7e8d4a17b3a{letter-spacing:0em;}.f36fd333-aa9c-40fd-9877-bf6d28ee6014{font-size:11px;}.\35 5893445-92f6-4e15-b4b7-54b80fa40244{font-size:26px;}.\36 d552f5f-fd5a-41e8-9c54-d1c93ae5bfb2{fill:#283659;}.cd92dbf9-b741-4200-85b0-366e31d24c86{fill:#fff;}.\34 d4b7a84-faf9-48bb-becd-a2141eb18d53{opacity:0.87;}.\35 be5251e-86dd-4b60-bb88-b3ae33d3f54e{fill:#a01f51;}.eefa17fd-50e7-4261-a345-45d8c0d787af{opacity:0.16;}.\36 11f4bbe-e67a-4539-a70c-25c6de550830{font-size:10px;}.ee3d7cf7-815e-488c-99ee-4db36accd9f2{letter-spacing:-0.07em;}</style></defs><title>2017.11_TrasladoSedesCatalunya</title><path class="b47b9c8f-d0a3-4312-93fe-623725bdfd01" d="M537.34,418.16" transform="translate(-1.72 -5.31)"/><line class="b47b9c8f-d0a3-4312-93fe-623725bdfd01" x1="1.28" y1="385.76" x2="535.63" y2="385.76"/><path class="b47b9c8f-d0a3-4312-93fe-623725bdfd01" d="M537.34,364" transform="translate(-1.72 -5.31)"/><line class="b47b9c8f-d0a3-4312-93fe-623725bdfd01" x1="1.28" y1="331.58" x2="535.63" y2="331.58"/><path class="b47b9c8f-d0a3-4312-93fe-623725bdfd01" d="M537.34,309.8" transform="translate(-1.72 -5.31)"/><line class="b47b9c8f-d0a3-4312-93fe-623725bdfd01" x1="1.28" y1="277.4" x2="535.63" y2="277.4"/><path class="b47b9c8f-d0a3-4312-93fe-623725bdfd01" d="M537.34,255.62" transform="translate(-1.72 -5.31)"/><line class="b47b9c8f-d0a3-4312-93fe-623725bdfd01" x1="1.28" y1="223.22" x2="535.63" y2="223.22"/><path class="b47b9c8f-d0a3-4312-93fe-623725bdfd01" d="M537.34,201.45" transform="translate(-1.72 -5.31)"/><line class="b47b9c8f-d0a3-4312-93fe-623725bdfd01" x1="1.28" y1="169.05" x2="535.63" y2="169.05"/><path class="b47b9c8f-d0a3-4312-93fe-623725bdfd01" d="M537.34,147.27" transform="translate(-1.72 -5.31)"/><line class="b47b9c8f-d0a3-4312-93fe-623725bdfd01" x1="1.28" y1="114.87" x2="535.63" y2="114.87"/><path class="b47b9c8f-d0a3-4312-93fe-623725bdfd01" d="M537.34,93.09" transform="translate(-1.72 -5.31)"/><line class="b47b9c8f-d0a3-4312-93fe-623725bdfd01" x1="1.28" y1="60.69" x2="535.63" y2="60.69"/><line class="00001681-6871-445b-a8e6-1718271a6e56" x1="1.28" y1="442.48" x2="571.28" y2="442.48"/><text class="3c31f0e6-f7f5-42c6-a9ae-0e0002402090" transform="translate(362.07 484.71) scale(0.99 1)">Noviembre 2017</text><text class="3c31f0e6-f7f5-42c6-a9ae-0e0002402090" transform="translate(45.32 485.46) scale(0.99 1)">Octubre 2017</text><text class="977de3bc-a0eb-4529-8c69-ce61bc86f3b0" transform="translate(4.07 510.46) scale(0.99 1)">Fuente: Colegio de Registradores de España</text><text class="3e5305ee-bc29-4e4e-b341-8cfb59e71c5d" transform="translate(270.54 72.46) scale(0.99 1)"><tspan class="2ff273c6-90bc-4dfd-bc27-040f19b3f073">19 OCTUBRE </tspan><tspan class="c8dbed34-0bfd-4f30-80d4-baaec878d4d0" x="92.57" y="0">- 268 empresas</tspan><tspan class="c8dbed34-0bfd-4f30-80d4-baaec878d4d0"><tspan x="0" y="16.8">Puigdemont plantea una DUI si se aplica el 155</tspan></tspan></text><text class="baa9ff55-0fe1-47f6-ad56-bceb79bebd1d" transform="translate(256.54 183.46) scale(0.99 1)"><tspan class="2ff273c6-90bc-4dfd-bc27-040f19b3f073">27 OCTUBRE</tspan><tspan class="22f37031-4a84-4615-b4d1-a7e8d4a17b3a" x="82.35" y="0" xml:space="preserve"> - 140 empresas</tspan><tspan class="c8dbed34-0bfd-4f30-80d4-baaec878d4d0"><tspan x="0" y="15.6">El Parlament declara la independencia</tspan><tspan x="0" y="31.2">y el Senado aprueba aplicar el 155</tspan></tspan></text><text class="3e5305ee-bc29-4e4e-b341-8cfb59e71c5d" transform="translate(126.61 56.46) scale(0.99 1)"><tspan class="2ff273c6-90bc-4dfd-bc27-040f19b3f073">10 OCTUBRE</tspan><tspan class="c8dbed34-0bfd-4f30-80d4-baaec878d4d0" x="88.68" y="0"> </tspan><tspan class="c8dbed34-0bfd-4f30-80d4-baaec878d4d0"><tspan x="-46.73" y="16.8">Puigdemont declara y </tspan><tspan x="-77.9" y="33.6">suspende la independencia</tspan></tspan></text><text class="3107c428-7889-40ae-a6b0-590522970430" transform="translate(410.54 46.46) scale(0.99 1)">Festivo o fin de semana</text><text class="3e5305ee-bc29-4e4e-b341-8cfb59e71c5d" transform="translate(45.54 112.46) scale(0.99 1)"><tspan class="2ff273c6-90bc-4dfd-bc27-040f19b3f073">6 OCTUBRE </tspan><tspan class="c8dbed34-0bfd-4f30-80d4-baaec878d4d0"><tspan x="0" y="16.8">Se aprueba el decreto que </tspan><tspan x="0" y="33.6">facilita el cambio de sedes</tspan></tspan></text><text class="3e5305ee-bc29-4e4e-b341-8cfb59e71c5d" transform="translate(373.54 245.46) scale(0.99 1)"><tspan class="2ff273c6-90bc-4dfd-bc27-040f19b3f073">28 OCTUBRE </tspan><tspan class="c8dbed34-0bfd-4f30-80d4-baaec878d4d0"><tspan x="0" y="16.8">Entra en vigor el artículo 155</tspan><tspan x="0" y="33.6">El Gobierno cesa al Govern</tspan></tspan></text><text class="15b57647-7430-4cdf-9341-f7ec4147645e" transform="translate(3.18 382.46) scale(0.99 1)">40</text><text class="15b57647-7430-4cdf-9341-f7ec4147645e" transform="translate(3.18 327.46) scale(0.99 1)">80</text><text class="15b57647-7430-4cdf-9341-f7ec4147645e" transform="translate(0 273.46) scale(0.99 1)">120</text><text class="15b57647-7430-4cdf-9341-f7ec4147645e" transform="translate(0 219.46) scale(0.99 1)">160</text><text class="15b57647-7430-4cdf-9341-f7ec4147645e" transform="translate(1 164.46) scale(0.99 1)">200</text><text class="15b57647-7430-4cdf-9341-f7ec4147645e" transform="translate(1 111.46) scale(0.99 1)">240</text><text class="15b57647-7430-4cdf-9341-f7ec4147645e" transform="translate(1 56.46) scale(0.99 1)">280</text><text class="f36fd333-aa9c-40fd-9877-bf6d28ee6014" transform="translate(363.46 455.46) scale(0.99 1)">1</text><line class="00001681-6871-445b-a8e6-1718271a6e56" x1="263.78" y1="72.19" x2="228.28" y2="72.19"/><line class="00001681-6871-445b-a8e6-1718271a6e56" x1="314.78" y1="219.19" x2="314.78" y2="248.19"/><line class="00001681-6871-445b-a8e6-1718271a6e56" x1="222.78" y1="197.19" x2="135.28" y2="197.19"/><line class="00001681-6871-445b-a8e6-1718271a6e56" x1="367.28" y1="243.19" x2="327.28" y2="243.19"/><line class="00001681-6871-445b-a8e6-1718271a6e56" x1="97.78" y1="146.19" x2="97.78" y2="434.69"/><text class="55893445-92f6-4e15-b4b7-54b80fa40244" transform="translate(19.26 22.31)">El traslado de sedes de empresas tras el 1-O</text><polygon class="6d552f5f-fd5a-41e8-9c54-d1c93ae5bfb2" points="465.47 497.69 565.5 497.69 565.5 512.89 465.47 512.89 465.47 497.69 465.47 497.69"/><path class="cd92dbf9-b741-4200-85b0-366e31d24c86" d="M547.43,506.4H543.6v.48l1,.24v7.07a.84.84,0,0,1-.71.36,1.5,1.5,0,0,1-1.25-.91l-1-1.71a2,2,0,0,0-1.75-1.18v-.12a2.34,2.34,0,0,0,2.42-2.17c0-1.47-1.34-2-2.89-2H536v.48l1.14.24v7.17h0l-1.3.25-3.26-8.88a4.09,4.09,0,0,1-1.17,1l.13.36-3,7.29-.9.24V515h2.72v-.48l-.89-.23,1-2.65h2.76l1,2.63-1,.25V515h6.6v-.48l-1.09-.23V511a1.63,1.63,0,0,1,1.47,1.09l1.3,2.33a2.11,2.11,0,0,0,1.89,1.15,1.87,1.87,0,0,0,1.24-.51h3a4.44,4.44,0,0,0,4.55-4.31,4.32,4.32,0,0,0-4.63-4.31ZM530.69,511l1.16-3.06L533,511Zm8.54-.65h-.59v-3.21h.73a1.45,1.45,0,0,1,1.51,1.54,1.67,1.67,0,0,1-1.63,1.68Zm8.11,4h-1.23v-7.19h1.26c2,0,3.16,1.35,3.16,3.59s-1.25,3.59-3.19,3.59Z" transform="translate(-1.72 -5.31)"/><path class="cd92dbf9-b741-4200-85b0-366e31d24c86" d="M484.52,514.3l-3.19-8.66a4.09,4.09,0,0,1-1.17,1l.13.36-3,7.28-.64.24-.19.48h2.63v-.48l-.89-.23,1-2.65H482l1,2.63-1,.25V515h3.54v-.48l-.95-.23ZM479.46,511l1.17-3.06,1.12,3.06Z" transform="translate(-1.72 -5.31)"/><polygon class="cd92dbf9-b741-4200-85b0-366e31d24c86" points="475.21 507.52 474.89 507.34 473.03 509.04 471.44 509.04 471.44 501.81 472.39 501.57 472.39 501.08 468.96 501.08 468.96 501.57 469.93 501.81 469.93 508.98 468.96 509.23 468.96 509.7 474.36 509.7 475.21 507.52 475.21 507.52"/><polygon class="cd92dbf9-b741-4200-85b0-366e31d24c86" points="490.19 501.08 490.19 501.57 491.23 501.81 488.97 507.58 486.6 501.8 487.72 501.57 487.72 501.08 483.89 501.08 483.89 501.57 484.99 501.81 488.39 510 488.75 510 492.15 501.82 492.17 501.82 493.23 501.57 493.23 501.08 490.19 501.08 490.19 501.08"/><path class="cd92dbf9-b741-4200-85b0-366e31d24c86" d="M525.89,506.4v.48l1,.24s.08,4.27,0,5.35a2.17,2.17,0,0,1-2.22,2.13h-.11a2.14,2.14,0,0,1-2.32-2.21v-5.26l1-.23v-.48h-3.46v.48l1,.23v5.3a3.18,3.18,0,0,0,3.43,3,3.11,3.11,0,0,0,3.43-3l.07-5.29,1-.24v-.48Z" transform="translate(-1.72 -5.31)"/><path class="cd92dbf9-b741-4200-85b0-366e31d24c86" d="M563.34,514.29l-3.17-8.63a4.09,4.09,0,0,1-1.17,1l.13.36-3,7.31-.51.21-.69-.22v-7.2l1.05-.24v-.48h-3.61v.48l1,.24v7.18l-1,.23V515H558v-.48l-.89-.23,1-2.65h2.76l1,2.63-1,.25V515h3.56v-.48l-1-.25Zm-5-3.31,1.17-3.06,1.12,3.06Z" transform="translate(-1.72 -5.31)"/><path class="cd92dbf9-b741-4200-85b0-366e31d24c86" d="M507.38,506.4v.48l1.05.24.07,5.64-5.4-6.37h-2.31v.48l1,.23.09,0-.08,7.13h0l-1.09.25-3.26-8.88a4.09,4.09,0,0,1-1.14,1l.13.36-3,7.29-.9.24V515h2.72v-.48l-.89-.23,1-2.65h2.76l1,2.63-1,.25V515h5.67v-.48l-1.09-.24-.13-6.23,6.18,7.26h.41l.08-8.2,1-.24v-.48ZM495.64,511l1.17-3.06,1.12,3.06Z" transform="translate(-1.72 -5.31)"/><path class="cd92dbf9-b741-4200-85b0-366e31d24c86" d="M516.47,510.61v.48l1,.24v2.78a3.23,3.23,0,0,1-1.95.65c-2,0-3.21-1.63-3.21-3.94s1.23-4.11,3.26-4.11a3.07,3.07,0,0,1,2.89,2.35l.28-.16v-2.72l-.25-.14-.54.66a5.44,5.44,0,0,0-2.39-.61,4.83,4.83,0,0,0-4.84,4.75,4.38,4.38,0,0,0,4.16,4.6h.31a4.45,4.45,0,0,0,2.78-.92l.76.51h.24v-3.7l.82-.31v-.4Z" transform="translate(-1.72 -5.31)"/><g class="4d4b7a84-faf9-48bb-becd-a2141eb18d53"><rect class="5be5251e-86dd-4b60-bb88-b3ae33d3f54e" x="63.28" y="439.81" width="7.45" height="1.38"/><polygon class="5be5251e-86dd-4b60-bb88-b3ae33d3f54e" points="73.63 441.19 81.08 441.19 81.08 441.19 73.63 441.19 73.63 441.19"/><rect class="5be5251e-86dd-4b60-bb88-b3ae33d3f54e" x="83.98" y="438.44" width="7.45" height="2.75"/><rect class="5be5251e-86dd-4b60-bb88-b3ae33d3f54e" x="94.33" y="435.69" width="7.45" height="5.5"/><polygon class="5be5251e-86dd-4b60-bb88-b3ae33d3f54e" points="104.68 441.19 112.13 441.19 112.13 441.19 104.68 441.19 104.68 441.19"/><rect class="5be5251e-86dd-4b60-bb88-b3ae33d3f54e" x="125.38" y="149.69" width="7.45" height="291.5"/><rect class="5be5251e-86dd-4b60-bb88-b3ae33d3f54e" x="135.72" y="197.81" width="7.45" height="243.38"/><rect class="5be5251e-86dd-4b60-bb88-b3ae33d3f54e" x="146.07" y="228.06" width="7.45" height="213.13"/><polygon class="5be5251e-86dd-4b60-bb88-b3ae33d3f54e" points="156.42 441.19 163.87 441.19 163.87 441.19 156.42 441.19 156.42 441.19"/><rect class="5be5251e-86dd-4b60-bb88-b3ae33d3f54e" x="166.77" y="329.81" width="7.45" height="111.38"/><polygon class="5be5251e-86dd-4b60-bb88-b3ae33d3f54e" points="177.12 441.19 184.57 441.19 184.57 441.19 177.12 441.19 177.12 441.19"/><polygon class="5be5251e-86dd-4b60-bb88-b3ae33d3f54e" points="187.47 441.19 194.92 441.19 194.92 441.19 187.47 441.19 187.47 441.19"/><rect class="5be5251e-86dd-4b60-bb88-b3ae33d3f54e" x="197.81" y="347.69" width="7.45" height="93.5"/><rect class="5be5251e-86dd-4b60-bb88-b3ae33d3f54e" x="208.16" y="296.81" width="7.45" height="144.38"/><rect class="5be5251e-86dd-4b60-bb88-b3ae33d3f54e" x="218.51" y="287.19" width="7.45" height="154"/><rect class="5be5251e-86dd-4b60-bb88-b3ae33d3f54e" x="228.86" y="72.69" width="7.45" height="368.5"/><rect class="5be5251e-86dd-4b60-bb88-b3ae33d3f54e" x="239.21" y="280.31" width="7.45" height="160.88"/><polygon class="5be5251e-86dd-4b60-bb88-b3ae33d3f54e" points="249.56 441.19 257.01 441.19 257.01 441.19 249.56 441.19 249.56 441.19"/><polygon class="5be5251e-86dd-4b60-bb88-b3ae33d3f54e" points="259.9 441.19 267.36 441.19 267.36 441.19 259.9 441.19 259.9 441.19"/><rect class="5be5251e-86dd-4b60-bb88-b3ae33d3f54e" x="270.25" y="314.69" width="7.45" height="126.5"/><rect class="5be5251e-86dd-4b60-bb88-b3ae33d3f54e" x="280.6" y="294.06" width="7.45" height="147.13"/><rect class="5be5251e-86dd-4b60-bb88-b3ae33d3f54e" x="290.95" y="300.94" width="7.45" height="140.25"/><rect class="5be5251e-86dd-4b60-bb88-b3ae33d3f54e" x="301.3" y="333.94" width="7.45" height="107.25"/><rect class="5be5251e-86dd-4b60-bb88-b3ae33d3f54e" x="311.65" y="248.69" width="7.45" height="192.5"/><polygon class="5be5251e-86dd-4b60-bb88-b3ae33d3f54e" points="322 441.19 329.45 441.19 329.45 441.19 322 441.19 322 441.19"/><polygon class="5be5251e-86dd-4b60-bb88-b3ae33d3f54e" points="332.34 441.19 339.79 441.19 339.79 441.19 332.34 441.19 332.34 441.19"/><rect class="5be5251e-86dd-4b60-bb88-b3ae33d3f54e" x="342.69" y="355.94" width="7.45" height="85.25"/><rect class="5be5251e-86dd-4b60-bb88-b3ae33d3f54e" x="353.04" y="305.06" width="7.45" height="136.12"/><polygon class="5be5251e-86dd-4b60-bb88-b3ae33d3f54e" points="363.39 441.19 370.84 441.19 370.84 441.19 363.39 441.19 363.39 441.19"/><rect class="5be5251e-86dd-4b60-bb88-b3ae33d3f54e" x="373.74" y="325.69" width="7.45" height="115.5"/><rect class="5be5251e-86dd-4b60-bb88-b3ae33d3f54e" x="384.09" y="322.94" width="7.45" height="118.25"/><polygon class="5be5251e-86dd-4b60-bb88-b3ae33d3f54e" points="394.43 441.19 401.88 441.19 401.88 441.19 394.43 441.19 394.43 441.19"/><polygon class="5be5251e-86dd-4b60-bb88-b3ae33d3f54e" points="404.78 441.19 412.23 441.19 412.23 441.19 404.78 441.19 404.78 441.19"/><rect class="5be5251e-86dd-4b60-bb88-b3ae33d3f54e" x="415.13" y="353.19" width="7.45" height="88"/><rect class="5be5251e-86dd-4b60-bb88-b3ae33d3f54e" x="425.48" y="354.56" width="7.45" height="86.63"/><rect class="5be5251e-86dd-4b60-bb88-b3ae33d3f54e" x="435.83" y="386.19" width="7.45" height="55"/><rect class="5be5251e-86dd-4b60-bb88-b3ae33d3f54e" x="446.18" y="346.31" width="7.45" height="94.88"/><rect class="5be5251e-86dd-4b60-bb88-b3ae33d3f54e" x="456.52" y="368.31" width="7.45" height="72.87"/><polygon class="5be5251e-86dd-4b60-bb88-b3ae33d3f54e" points="466.87 441.19 474.32 441.19 474.32 441.19 466.87 441.19 466.87 441.19"/><polygon class="5be5251e-86dd-4b60-bb88-b3ae33d3f54e" points="477.22 441.19 484.67 441.19 484.67 441.19 477.22 441.19 477.22 441.19"/><rect class="5be5251e-86dd-4b60-bb88-b3ae33d3f54e" x="487.57" y="399.94" width="7.45" height="41.25"/><rect class="5be5251e-86dd-4b60-bb88-b3ae33d3f54e" x="497.92" y="404.06" width="7.45" height="37.13"/><rect class="5be5251e-86dd-4b60-bb88-b3ae33d3f54e" x="508.27" y="383.44" width="7.45" height="57.75"/><rect class="5be5251e-86dd-4b60-bb88-b3ae33d3f54e" x="518.61" y="395.81" width="7.45" height="45.38"/><rect class="5be5251e-86dd-4b60-bb88-b3ae33d3f54e" x="528.96" y="375.19" width="7.45" height="66"/><rect class="5be5251e-86dd-4b60-bb88-b3ae33d3f54e" x="558.96" y="395.69" width="7.45" height="46.5"/></g><rect class="eefa17fd-50e7-4261-a345-45d8c0d787af" x="101.28" y="60.69" width="24" height="411"/><rect class="eefa17fd-50e7-4261-a345-45d8c0d787af" x="28.28" y="60.69" width="24" height="411"/><rect class="eefa17fd-50e7-4261-a345-45d8c0d787af" x="365.28" y="33.69" width="32" height="15"/><rect class="eefa17fd-50e7-4261-a345-45d8c0d787af" x="173.28" y="60.69" width="24" height="411"/><rect class="eefa17fd-50e7-4261-a345-45d8c0d787af" x="153.28" y="60.69" width="13" height="411"/><rect class="eefa17fd-50e7-4261-a345-45d8c0d787af" x="246.28" y="60.69" width="24" height="411"/><rect class="eefa17fd-50e7-4261-a345-45d8c0d787af" x="318.28" y="60.69" width="24" height="411"/><rect class="eefa17fd-50e7-4261-a345-45d8c0d787af" x="391.28" y="60.69" width="24" height="411"/><rect class="eefa17fd-50e7-4261-a345-45d8c0d787af" x="362.28" y="60.69" width="8" height="382"/><rect class="eefa17fd-50e7-4261-a345-45d8c0d787af" x="464.28" y="60.69" width="23" height="411"/><rect class="eefa17fd-50e7-4261-a345-45d8c0d787af" x="536.28" y="60.69" width="23" height="411"/><text class="611f4bbe-e67a-4539-a70c-25c6de550830" transform="translate(105.73 455.46) scale(0.99 1)">7/8</text><text class="611f4bbe-e67a-4539-a70c-25c6de550830" transform="translate(153.49 455.46) scale(0.99 1)">12</text><text class="611f4bbe-e67a-4539-a70c-25c6de550830" transform="translate(396.73 455.46) scale(0.99 1)">4/5</text><text class="611f4bbe-e67a-4539-a70c-25c6de550830" transform="translate(172.69 455.46) scale(0.99 1)">14/15</text><text class="611f4bbe-e67a-4539-a70c-25c6de550830" transform="translate(463.43 455.46) scale(0.99 1)"><tspan class="ee3d7cf7-815e-488c-99ee-4db36accd9f2">1</tspan><tspan x="4.82" y="0">1/12</tspan></text><text class="611f4bbe-e67a-4539-a70c-25c6de550830" transform="translate(534.69 455.46) scale(0.99 1)">18/19</text><text class="611f4bbe-e67a-4539-a70c-25c6de550830" transform="translate(245.69 455.46) scale(0.99 1)">21/22</text><text class="611f4bbe-e67a-4539-a70c-25c6de550830" transform="translate(317.69 455.46) scale(0.99 1)">28/29</text><line class="00001681-6871-445b-a8e6-1718271a6e56" x1="222.78" y1="50.19" x2="222.78" y2="197.19"/><line class="00001681-6871-445b-a8e6-1718271a6e56" x1="327.78" y1="243.19" x2="327.78" y2="441.69"/><text class="f36fd333-aa9c-40fd-9877-bf6d28ee6014" transform="translate(37.46 455.46) scale(0.99 1)">1</text><line class="00001681-6871-445b-a8e6-1718271a6e56" x1="40.78" y1="400.19" x2="40.78" y2="440.69"/><text class="977de3bc-a0eb-4529-8c69-ce61bc86f3b0" transform="translate(30.54 397.46) scale(0.99 1)">1-O</text></svg>