<svg id="Capa_1" data-name="Capa 1" xmlns="http://www.w3.org/2000/svg" viewBox="0 0 612.53 587.28"><defs><style>.cls-1,.cls-4{fill:none;}.cls-1{stroke:#d9d9d9;}.cls-2,.cls-7{fill:#15acb1;}.cls-2,.cls-3{stroke:#fff;}.cls-11,.cls-3{fill:#a3a3a4;}.cls-4{stroke:#323232;}.cls-10,.cls-11,.cls-16,.cls-5,.cls-6,.cls-7{isolation:isolate;}.cls-11,.cls-5,.cls-7{font-size:16px;}.cls-16,.cls-5,.cls-6{fill:#757575;}.cls-10,.cls-16,.cls-5{font-family:ArialMT, Arial;}.cls-6{font-size:15px;font-family:Arial-ItalicMT, Arial;font-style:italic;}.cls-11,.cls-13,.cls-7{font-family:Arial-BoldMT, Arial;font-weight:700;}.cls-8{letter-spacing:-0.02em;}.cls-9{letter-spacing:-0.07em;}.cls-10{font-size:15.3px;}.cls-10,.cls-15{fill:#fff;}.cls-12{letter-spacing:-0.06em;}.cls-13{font-size:22px;fill:#323232;}.cls-14{fill:#283659;}.cls-16{font-size:14px;}.cls-17{letter-spacing:-0.09em;}</style></defs><title>2017.09_Alemania_ComparacionVoto</title><path class="cls-1" d="M569.43,93V530.15" transform="translate(-11.97 -7.99)"/><path class="cls-1" d="M507.75,93V530.15" transform="translate(-11.97 -7.99)"/><path class="cls-1" d="M445.34,93V530.15" transform="translate(-11.97 -7.99)"/><path class="cls-1" d="M382.94,93V530.15" transform="translate(-11.97 -7.99)"/><path class="cls-1" d="M321.26,93V530.15" transform="translate(-11.97 -7.99)"/><path class="cls-1" d="M258.85,93V530.15" transform="translate(-11.97 -7.99)"/><path class="cls-1" d="M197.17,93V530.15" transform="translate(-11.97 -7.99)"/><rect class="cls-2" x="122.8" y="93.88" width="446.99" height="22.94"/><rect class="cls-3" x="122.8" y="117.28" width="462.23" height="22.94"/><rect class="cls-2" x="122.8" y="156.28" width="285.9" height="22.94"/><rect class="cls-3" x="122.8" y="179.68" width="365" height="22.94"/><rect class="cls-2" x="122.8" y="218.68" width="124.08" height="22.94"/><rect class="cls-3" x="122.8" y="306.65" width="101.59" height="22.94"/><rect class="cls-2" x="122.8" y="410.22" width="87.08" height="22.94"/><rect class="cls-3" x="122.8" y="433.62" width="90.7" height="22.94"/><rect class="cls-2" x="122.8" y="343.49" width="111.75" height="22.94"/><rect class="cls-3" x="122.8" y="366.89" width="29.75" height="22.94"/><rect class="cls-2" x="123.16" y="283.25" width="124.08" height="22.94"/><rect class="cls-3" x="123.16" y="241.25" width="23.95" height="22.94"/><rect class="cls-2" x="122.8" y="468.29" width="62.4" height="22.94"/><rect class="cls-3" x="122.8" y="491.69" width="169.07" height="22.94"/><path class="cls-4" d="M134.77,93V536" transform="translate(-11.97 -7.99)"/><text class="cls-5" transform="translate(32.69 118.37)">CDU - CSU</text><text class="cls-6" transform="translate(466.77 72.49)">Porcentaje de votos</text><text class="cls-7" transform="translate(2.61 72.14)">Sondeo de<tspan class="cls-8" x="81.78" y="0"> </tspan><tspan class="cls-9" x="85.94" y="0">Y</tspan><tspan x="95.42" y="0">ouGov</tspan></text><text class="cls-10" transform="translate(546.56 110.83) scale(1.05 1)">36</text><text class="cls-10" transform="translate(560.56 134.75) scale(1.05 1)">37</text><text class="cls-10" transform="translate(384.73 173.01) scale(1.05 1)">23</text><text class="cls-10" transform="translate(464.73 196.92) scale(1.05 1)">29</text><text class="cls-10" transform="translate(222.73 236.14) scale(1.05 1)">10</text><text class="cls-10" transform="translate(193.8 323.21) scale(1.05 1)">8,2</text><text class="cls-10" transform="translate(222.73 301.54) scale(1.05 1)">10</text><text class="cls-10" transform="translate(194.44 450.41) scale(1.05 1)">7</text><text class="cls-10" transform="translate(169.77 485.8) scale(1.05 1)">5</text><text class="cls-10" transform="translate(263.87 508.76) scale(1.05 1)">14</text><text class="cls-10" transform="translate(194.44 427.15) scale(1.05 1)">7</text><text class="cls-10" transform="translate(136.21 384.1) scale(1.05 1)">2</text><text class="cls-10" transform="translate(215.49 360.84) scale(1.05 1)">9</text><text class="cls-10" transform="translate(134.63 258.49) scale(1.05 1)">2</text><text class="cls-11" transform="translate(169.09 71.94)">Resultados 2013</text><text class="cls-5" transform="translate(81.13 186.37)">SPD</text><text class="cls-5" transform="translate(27.29 311.01)">La Izquierda</text><text class="cls-5" transform="translate(33.97 437.69)">Los <tspan class="cls-12" x="30.24" y="0">V</tspan><tspan x="40.03" y="0">erdes</tspan></text><text class="cls-5" transform="translate(39.76 234.01)">Alternativa<tspan x="-26.7" y="19.2">para</tspan><tspan class="cls-12" x="5.33" y="19.2"> </tspan><tspan x="8.89" y="19.2">Alemania</tspan></text><text class="cls-5" transform="translate(76.24 498.37)">Otros</text><text class="cls-5" transform="translate(64.66 357.37)">Partido<tspan x="-27.55" y="19.2">Dem. Libre</tspan></text><text class="cls-13" transform="translate(3.66 18.87)">Comparativa entre el resultado de las elecciones de 2013 <tspan x="77.63" y="26.4">y los sondeos para las elecciones de 2017</tspan></text><polygon class="cls-14" points="484.53 551 612.53 551 612.53 570.46 484.53 570.46 484.53 551 484.53 551"/><path class="cls-15" d="M599.19,563.35h-4.9V564l1.29.31v9a1.07,1.07,0,0,1-.9.46,1.92,1.92,0,0,1-1.59-1.17l-1.22-2.19a2.54,2.54,0,0,0-2.24-1.51v-.15a3,3,0,0,0,3.1-2.78c0-1.89-1.71-2.62-3.69-2.62h-4.45V564l1.45.31v9.18h0l-1.67.32-4.17-11.37a5.24,5.24,0,0,1-1.5,1.29l.16.46L575,573.46l-1.15.31v.61h3.48v-.61l-1.13-.29,1.29-3.39H581l1.24,3.37-1.33.32v.61h8.45v-.61l-1.39-.3V569.2a2.09,2.09,0,0,1,1.88,1.39l1.67,3A2.71,2.71,0,0,0,594,575a2.39,2.39,0,0,0,1.59-.65h3.78a5.68,5.68,0,0,0,5.82-5.52c0-3.21-2.49-5.52-5.93-5.52Zm-21.41,5.86,1.49-3.92,1.43,3.92Zm10.92-.83h-.75v-4.11h.94a1.86,1.86,0,0,1,1.93,2,2.14,2.14,0,0,1-2.09,2.15Zm10.38,5.09H597.5v-9.2h1.61c2.5,0,4,1.73,4,4.6s-1.6,4.6-4.08,4.6Z" transform="translate(-11.97 -7.99)"/><path class="cls-15" d="M518.69,573.46l-4.08-11.08a5.23,5.23,0,0,1-1.5,1.29l.16.46-3.78,9.32-.81.31-.24.61h3.37v-.61l-1.13-.29,1.29-3.39h3.53l1.24,3.37-1.33.32v.61h4.54v-.61l-1.21-.3Zm-6.47-4.25,1.5-3.92,1.43,3.92Z" transform="translate(-11.97 -7.99)"/><polygon class="cls-15" points="497 563.58 496.59 563.35 494.21 565.52 492.17 565.52 492.17 556.28 493.39 555.97 493.39 555.35 489 555.35 489 555.97 490.24 556.28 490.24 565.45 489 565.77 489 566.38 495.91 566.38 497 563.58 497 563.58"/><polygon class="cls-15" points="516.16 555.35 516.16 555.97 517.49 556.28 514.61 563.66 511.57 556.26 513.01 555.97 513.01 555.35 508.1 555.35 508.1 555.97 509.51 556.27 513.86 566.76 514.33 566.76 518.67 556.29 518.7 556.29 520.06 555.97 520.06 555.35 516.16 555.35 516.16 555.35"/><path class="cls-15" d="M571.62,563.35V564l1.32.31s.1,5.47,0,6.85a2.78,2.78,0,0,1-2.84,2.72H570a2.74,2.74,0,0,1-3-2.83v-6.73l1.28-.29v-.61h-4.43V564l1.26.3V571a4.07,4.07,0,0,0,4.38,3.86c2.42,0,4.3-1.39,4.38-3.86l.08-6.77,1.29-.31v-.61Z" transform="translate(-11.97 -7.99)"/><path class="cls-15" d="M619.55,573.44l-4.06-11a5.23,5.23,0,0,1-1.5,1.29l.16.46-3.79,9.36-.65.26-.88-.28v-9.22l1.35-.31v-.61h-4.62V564l1.34.31v9.18l-1.28.3v.61h7v-.61l-1.13-.3,1.29-3.39h3.53l1.24,3.37-1.33.32v.61h4.55v-.61l-1.22-.32Zm-6.46-4.23,1.5-3.92,1.43,3.92Z" transform="translate(-11.97 -7.99)"/><path class="cls-15" d="M547.93,563.35V564l1.35.31.08,7.21-6.92-8.15H539.5V564l1.34.29.11.06-.1,9.13h0l-1.39.32-4.17-11.37a5.24,5.24,0,0,1-1.45,1.29l.16.46-3.81,9.32-1.15.31v.61h3.48v-.61l-1.13-.29,1.29-3.39h3.53l1.24,3.37-1.33.32v.61h7.26v-.61l-1.39-.31-.16-8,7.9,9.29h.52l.1-10.49,1.34-.31v-.61Zm-15,5.86,1.5-3.92,1.43,3.92Z" transform="translate(-11.97 -7.99)"/><path class="cls-15" d="M559.57,568.74v.61l1.25.31v3.55a4.13,4.13,0,0,1-2.49.83c-2.5,0-4.11-2.09-4.11-5s1.57-5.26,4.17-5.26a3.93,3.93,0,0,1,3.69,3l.35-.21v-3.48l-.32-.17-.7.85a7,7,0,0,0-3.05-.78,6.18,6.18,0,0,0-6.19,6.08,5.61,5.61,0,0,0,5.32,5.88h.4a5.7,5.7,0,0,0,3.55-1.18l1,.65h.31v-4.74l1-.4v-.51Z" transform="translate(-11.97 -7.99)"/><text class="cls-16" transform="translate(2.03 549.13)">Fuente: Der Bundeswahlleiter<tspan x="0" y="16.8">Encuesta de sondeos de</tspan><tspan class="cls-8" x="154.12" y="16.8"> </tspan><tspan class="cls-17" x="157.75" y="16.8">Y</tspan><tspan x="165.81" y="16.8">ouGov del 19 de septiembre de 2017</tspan></text></svg>