<svg id="f2728cf5-aa2c-425f-94bd-1263e7221305" data-name="Capa 1" xmlns="http://www.w3.org/2000/svg" viewBox="0 0 534 497"><defs><style>.\30 adea912-93d3-4b6d-af05-78739a7f9b83,.bb3d867f-be34-473e-b30f-fb173137a4c2,.e21036b5-4511-4517-adcd-5369c16f8bb2{fill:none;}.bb3d867f-be34-473e-b30f-fb173137a4c2{stroke:#757575;}.\30 adea912-93d3-4b6d-af05-78739a7f9b83,.\31 643e3f4-40a3-47a8-a929-ba8f878675d8,.\37 763f111-87c7-4869-9d29-47191655884b,.\38 0382e0a-3d31-477d-b86a-60f8c6f123b1,.\38 3a1ca35-8ce5-4531-b2ef-123edee4e4f0,.b99b5d60-6b51-49a5-a784-660a7d3a955e,.bb3d867f-be34-473e-b30f-fb173137a4c2,.cdcf0c74-9387-4f31-bfe3-4b872e2ae246,.e0535c0e-8cb9-40fc-b899-d940565b3b01,.e21036b5-4511-4517-adcd-5369c16f8bb2{stroke-miterlimit:10;}.\36 53fb9dd-3fd9-491f-894a-3c2e9c1cd8e3{font-size:16px;}.\36 53fb9dd-3fd9-491f-894a-3c2e9c1cd8e3,.\37 b384391-1cb0-469d-9468-d340cfa83a02,.\39 c87c3e4-629d-4879-be5d-91754cc27c41,.e7384b32-ea4c-459f-b849-83d92db04c9f{fill:#757575;}.\36 53fb9dd-3fd9-491f-894a-3c2e9c1cd8e3,.\39 c87c3e4-629d-4879-be5d-91754cc27c41,.e7384b32-ea4c-459f-b849-83d92db04c9f,.f3f4fe08-90c8-40d2-b13e-70a378e83354{font-family:ArialMT, Arial;}.\37 b384391-1cb0-469d-9468-d340cfa83a02,.e7384b32-ea4c-459f-b849-83d92db04c9f{font-size:13px;}.\37 b384391-1cb0-469d-9468-d340cfa83a02,.e96bd918-3f2c-4dfc-9c53-d807ffddc99e{font-family:Arial-BoldMT, Arial;font-weight:700;}.\39 c87c3e4-629d-4879-be5d-91754cc27c41,.f3f4fe08-90c8-40d2-b13e-70a378e83354{font-size:15px;}.d27e3623-f89d-442e-b0f6-b229c01c6062{letter-spacing:-0.02em;}.ac96abe0-8a8d-429b-8ec1-4cf66b346374{letter-spacing:-0.07em;}.e21036b5-4511-4517-adcd-5369c16f8bb2{stroke:#d6d6d6;}.e96bd918-3f2c-4dfc-9c53-d807ffddc99e{font-size:26px;}.\31 10c8f25-7410-496b-9672-5ee65c8db874,.e96bd918-3f2c-4dfc-9c53-d807ffddc99e,.f3f4fe08-90c8-40d2-b13e-70a378e83354{fill:#323232;}.\33 90be058-94b2-4c2e-a8cd-e115994a9d43{fill:#283659;}.\36 11d1892-3ab6-4110-b066-522b6dc90111{fill:#fff;}.b4ada80e-101d-4416-8941-527c45f84dc6{opacity:0.82;}.\38 0382e0a-3d31-477d-b86a-60f8c6f123b1,.ce451fe8-0a2c-488d-a75a-755727a11a66{fill:#991d26;}.\31 643e3f4-40a3-47a8-a929-ba8f878675d8,.\37 763f111-87c7-4869-9d29-47191655884b,.\38 0382e0a-3d31-477d-b86a-60f8c6f123b1,.\38 3a1ca35-8ce5-4531-b2ef-123edee4e4f0,.b99b5d60-6b51-49a5-a784-660a7d3a955e,.cdcf0c74-9387-4f31-bfe3-4b872e2ae246,.e0535c0e-8cb9-40fc-b899-d940565b3b01{stroke:#fff;stroke-width:0.5px;}.\31 643e3f4-40a3-47a8-a929-ba8f878675d8,.\32 45db6fe-f484-4bd7-9c9a-7f06eabe0a84,.\36 a55191f-524d-4ce3-9e40-f00b09b7e5cb,.\37 763f111-87c7-4869-9d29-47191655884b,.\38 0382e0a-3d31-477d-b86a-60f8c6f123b1,.\38 3a1ca35-8ce5-4531-b2ef-123edee4e4f0,.aa2bc57f-21c7-44d4-b6cc-f629deee9097,.b8702cbf-b114-4d14-b2bc-e6442923e4fe,.b99b5d60-6b51-49a5-a784-660a7d3a955e,.cdcf0c74-9387-4f31-bfe3-4b872e2ae246,.ce451fe8-0a2c-488d-a75a-755727a11a66,.e0535c0e-8cb9-40fc-b899-d940565b3b01,.fed54fac-7c7a-461c-aae3-5c119cc67873{opacity:0.76;}.\35 77b5f0c-4256-494c-9984-10f7243faa2b{opacity:0.86;}.b8702cbf-b114-4d14-b2bc-e6442923e4fe,.cdcf0c74-9387-4f31-bfe3-4b872e2ae246{fill:#59a5a5;}.aa2bc57f-21c7-44d4-b6cc-f629deee9097,.b99b5d60-6b51-49a5-a784-660a7d3a955e{fill:#3f4d78;}.\31 643e3f4-40a3-47a8-a929-ba8f878675d8,.\36 a55191f-524d-4ce3-9e40-f00b09b7e5cb{fill:#efb21b;}.e34e68a0-c38e-401a-b39d-00e5899399df{opacity:0.52;}.\36 b837e6f-cf45-4c5d-b33f-eae3a29e9d6d,.\38 3a1ca35-8ce5-4531-b2ef-123edee4e4f0,.\39 434fb63-f9cc-4519-bb71-7d8e2d761f33{fill:#ffe600;}.e0535c0e-8cb9-40fc-b899-d940565b3b01,.fed54fac-7c7a-461c-aae3-5c119cc67873{fill:#d57928;}.\32 45db6fe-f484-4bd7-9c9a-7f06eabe0a84,.\37 763f111-87c7-4869-9d29-47191655884b{fill:#8e244f;}.\39 434fb63-f9cc-4519-bb71-7d8e2d761f33{opacity:0.9;}.\30 adea912-93d3-4b6d-af05-78739a7f9b83{stroke:#323232;}</style></defs><title>2017.11_Metaencuestabb</title><line class="bb3d867f-be34-473e-b30f-fb173137a4c2" x1="9" y1="448.42" x2="530" y2="448.42"/><text class="653fb9dd-3fd9-491f-894a-3c2e9c1cd8e3" transform="translate(8.66 442.02) scale(0.99 1)">0</text><text class="653fb9dd-3fd9-491f-894a-3c2e9c1cd8e3" transform="translate(7.66 382.02) scale(0.99 1)">5</text><text class="653fb9dd-3fd9-491f-894a-3c2e9c1cd8e3" transform="translate(5.5 320.02) scale(0.99 1)">10</text><text class="653fb9dd-3fd9-491f-894a-3c2e9c1cd8e3" transform="translate(7.83 198.02) scale(0.99 1)">20</text><text class="653fb9dd-3fd9-491f-894a-3c2e9c1cd8e3" transform="translate(7.83 135.02) scale(0.99 1)">25</text><text class="653fb9dd-3fd9-491f-894a-3c2e9c1cd8e3" transform="translate(10.83 72.02) scale(0.99 1)">30</text><text class="653fb9dd-3fd9-491f-894a-3c2e9c1cd8e3" transform="translate(7.83 258.02) scale(0.99 1)">15</text><text class="e7384b32-ea4c-459f-b849-83d92db04c9f" transform="translate(4.5 491.02) scale(0.99 1)">Fuente: Electrograph</text><text class="7b384391-1cb0-469d-9468-d340cfa83a02" transform="translate(58.5 467.02) scale(0.99 1)">ERC</text><text class="9c87c3e4-629d-4879-be5d-91754cc27c41" transform="translate(310.5 198.02) scale(0.99 1)">Promedio de todas las encuestas</text><text class="9c87c3e4-629d-4879-be5d-91754cc27c41" transform="translate(283.5 135.02) scale(0.99 1)">Resultado de cada encuesta</text><text class="7b384391-1cb0-469d-9468-d340cfa83a02" transform="translate(135.5 467.02) scale(0.99 1)">Cs</text><text class="7b384391-1cb0-469d-9468-d340cfa83a02" transform="translate(472.5 468.02) scale(0.99 1)">CU<tspan class="d27e3623-f89d-442e-b0f6-b229c01c6062" x="18.78" y="0">P</tspan></text><text class="7b384391-1cb0-469d-9468-d340cfa83a02" transform="translate(204.5 467.02) scale(0.99 1)">PSC</text><text class="7b384391-1cb0-469d-9468-d340cfa83a02" transform="translate(270.5 467.02) scale(0.99 1)">JxC<tspan class="ac96abe0-8a8d-429b-8ec1-4cf66b346374" x="23.85" y="0">A</tspan><tspan x="32.27" y="0">T</tspan></text><text class="7b384391-1cb0-469d-9468-d340cfa83a02" transform="translate(338.5 467.02) scale(0.99 1)">CeC-<tspan class="d27e3623-f89d-442e-b0f6-b229c01c6062" x="30.34" y="0">P</tspan></text><text class="7b384391-1cb0-469d-9468-d340cfa83a02" transform="translate(414.5 467.02) scale(0.99 1)">P<tspan class="d27e3623-f89d-442e-b0f6-b229c01c6062" x="8.67" y="0">P</tspan></text><line class="e21036b5-4511-4517-adcd-5369c16f8bb2" x1="8.85" y1="385.5" x2="529.36" y2="385.5"/><line class="e21036b5-4511-4517-adcd-5369c16f8bb2" x1="8.85" y1="323.5" x2="529.36" y2="323.5"/><line class="e21036b5-4511-4517-adcd-5369c16f8bb2" x1="8.85" y1="261.5" x2="529.36" y2="261.5"/><line class="e21036b5-4511-4517-adcd-5369c16f8bb2" x1="8.85" y1="201.5" x2="529.36" y2="201.5"/><line class="e21036b5-4511-4517-adcd-5369c16f8bb2" x1="8.85" y1="139.5" x2="529.36" y2="139.5"/><line class="e21036b5-4511-4517-adcd-5369c16f8bb2" x1="9.85" y1="77.5" x2="530.36" y2="77.5"/><text class="e96bd918-3f2c-4dfc-9c53-d807ffddc99e" transform="translate(57.62 25.62)">Promedio de los sondeos del 21-D</text><text class="f3f4fe08-90c8-40d2-b13e-70a378e83354" transform="translate(89.13 46.74)">Porcentaje de voto de las encuestas publicadas desde <tspan x="65.88" y="18">el 1 de octubre al 23 de noviembre</tspan></text><polygon class="390be058-94b2-4c2e-a8cd-e115994a9d43" points="431 478.27 527.44 478.27 527.44 492.93 431 492.93 431 478.27 431 478.27"/><path class="611d1892-3ab6-4110-b066-522b6dc90111" d="M508.36,481.55h-3.7V482l1,.23v6.81a.81.81,0,0,1-.68.35,1.45,1.45,0,0,1-1.2-.88l-.92-1.65a1.91,1.91,0,0,0-1.69-1.14v-.12a2.26,2.26,0,0,0,2.33-2.1c0-1.42-1.29-2-2.78-2h-3.35V482l1.1.23v6.91h0l-1.26.24L494,480.83a4,4,0,0,1-1.13,1l.12.35-2.87,7-.86.23v.46h2.62v-.46l-.85-.22,1-2.56h2.66l.93,2.54-1,.24v.46H501v-.46l-1-.23V486a1.57,1.57,0,0,1,1.42,1l1.26,2.25a2,2,0,0,0,1.82,1.11,1.8,1.8,0,0,0,1.2-.49h2.85a4.28,4.28,0,0,0,4.39-4.16,4.17,4.17,0,0,0-4.47-4.16ZM492.23,486l1.12-3,1.08,3Zm8.23-.62h-.57v-3.1h.71a1.4,1.4,0,0,1,1.45,1.48,1.61,1.61,0,0,1-1.57,1.62Zm7.82,3.83h-1.18v-6.93h1.22c1.89,0,3,1.31,3,3.46s-1.21,3.46-3.08,3.46Z"/><path class="611d1892-3ab6-4110-b066-522b6dc90111" d="M447.71,489.17l-3.07-8.34a3.94,3.94,0,0,1-1.13,1l.12.35-2.85,7-.61.23-.18.46h2.54v-.46l-.85-.22,1-2.56h2.66l.93,2.54-1,.24v.46h3.42v-.46l-.91-.23Zm-4.87-3.2,1.13-3,1.08,3Z"/><polygon class="611d1892-3ab6-4110-b066-522b6dc90111" points="440.39 487.75 440.08 487.58 438.29 489.21 436.75 489.21 436.75 482.25 437.68 482.01 437.68 481.54 434.37 481.54 434.37 482.01 435.3 482.25 435.3 489.15 434.37 489.39 434.37 489.86 439.57 489.86 440.39 487.75 440.39 487.75"/><polygon class="611d1892-3ab6-4110-b066-522b6dc90111" points="454.83 481.54 454.83 482.01 455.83 482.25 453.66 487.81 451.37 482.24 452.45 482.01 452.45 481.54 448.76 481.54 448.76 482.01 449.82 482.24 453.1 490.14 453.45 490.14 456.72 482.25 456.75 482.25 457.77 482.01 457.77 481.54 454.83 481.54 454.83 481.54"/><path class="611d1892-3ab6-4110-b066-522b6dc90111" d="M487.6,481.55V482l1,.24s.07,4.12,0,5.16a2.1,2.1,0,0,1-2.14,2h-.11a2.07,2.07,0,0,1-2.24-2.13v-5.07l1-.22v-.46h-3.34V482l.95.23v5.11a3.07,3.07,0,0,0,3.3,2.91,3,3,0,0,0,3.3-2.91l.06-5.1,1-.24v-.46Z"/><path class="611d1892-3ab6-4110-b066-522b6dc90111" d="M523.7,489.15l-3.06-8.32a3.94,3.94,0,0,1-1.13,1l.12.35-2.86,7-.49.2-.66-.21v-6.94l1-.23v-.46h-3.48V482l1,.24v6.92l-1,.23v.46h5.3v-.46l-.85-.23,1-2.56h2.66l.93,2.54-1,.24v.46h3.43v-.46l-.92-.24ZM518.84,486l1.13-3,1.08,3Z"/><path class="611d1892-3ab6-4110-b066-522b6dc90111" d="M469.75,481.55V482l1,.24.06,5.44-5.21-6.14H463.4V482l1,.22.08,0-.07,6.88h0l-1,.24-3.14-8.56a4,4,0,0,1-1.1,1l.12.35-2.87,7-.86.23v.46h2.62v-.46l-.85-.22,1-2.56h2.66l.93,2.54-1,.24v.46h5.47v-.46l-1-.24-.12-6,6,7h.39l.08-7.9,1-.23v-.46ZM458.44,486l1.13-3,1.08,3Z"/><path class="611d1892-3ab6-4110-b066-522b6dc90111" d="M478.52,485.61v.46l.94.24V489a3.11,3.11,0,0,1-1.88.62c-1.89,0-3.1-1.57-3.1-3.79s1.18-4,3.14-4a3,3,0,0,1,2.78,2.26l.27-.16v-2.62l-.24-.13-.52.64a5.24,5.24,0,0,0-2.3-.59,4.65,4.65,0,0,0-4.66,4.58,4.22,4.22,0,0,0,4,4.43h.3a4.29,4.29,0,0,0,2.68-.89l.73.49h.24V486.3l.79-.3v-.38Z"/><g class="b4ada80e-101d-4416-8941-527c45f84dc6"><rect class="80382e0a-3d31-477d-b86a-60f8c6f123b1" x="196.65" y="258" width="42.84" height="190.25"/></g><g class="577b5f0c-4256-494c-9984-10f7243faa2b"><rect class="cdcf0c74-9387-4f31-bfe3-4b872e2ae246" x="400.58" y="351.6" width="42.84" height="96.65"/></g><g class="577b5f0c-4256-494c-9984-10f7243faa2b"><rect class="b99b5d60-6b51-49a5-a784-660a7d3a955e" x="267.41" y="289.2" width="42.84" height="159.04"/></g><g class="b4ada80e-101d-4416-8941-527c45f84dc6"><rect class="1643e3f4-40a3-47a8-a929-ba8f878675d8" x="53" y="131.38" width="42.84" height="316.86"/></g><g class="e34e68a0-c38e-401a-b39d-00e5899399df"><rect class="83a1ca35-8ce5-4531-b2ef-123edee4e4f0" x="463.82" y="373.84" width="42.18" height="73.4"/></g><g class="b4ada80e-101d-4416-8941-527c45f84dc6"><polygon class="e0535c0e-8cb9-40fc-b899-d940565b3b01" points="122.5 193 165.5 193 165.5 447.5 122.57 447.5 122.5 193"/></g><g class="577b5f0c-4256-494c-9984-10f7243faa2b"><rect class="7763f111-87c7-4869-9d29-47191655884b" x="336.33" y="333" width="42.84" height="115.25"/></g><circle class="6a55191f-524d-4ce3-9e40-f00b09b7e5cb" cx="58" cy="119" r="5"/><circle class="6a55191f-524d-4ce3-9e40-f00b09b7e5cb" cx="65" cy="67" r="5"/><circle class="6a55191f-524d-4ce3-9e40-f00b09b7e5cb" cx="70" cy="169" r="5"/><circle class="6a55191f-524d-4ce3-9e40-f00b09b7e5cb" cx="79" cy="159" r="5"/><circle class="6a55191f-524d-4ce3-9e40-f00b09b7e5cb" cx="84" cy="114" r="5"/><circle class="fed54fac-7c7a-461c-aae3-5c119cc67873" cx="127.5" cy="208.5" r="5"/><circle class="fed54fac-7c7a-461c-aae3-5c119cc67873" cx="135" cy="224" r="5"/><circle class="fed54fac-7c7a-461c-aae3-5c119cc67873" cx="142" cy="209" r="5"/><circle class="fed54fac-7c7a-461c-aae3-5c119cc67873" cx="152" cy="180" r="5"/><circle class="fed54fac-7c7a-461c-aae3-5c119cc67873" cx="151" cy="219" r="5"/><circle class="fed54fac-7c7a-461c-aae3-5c119cc67873" cx="155" cy="271" r="5"/><circle class="fed54fac-7c7a-461c-aae3-5c119cc67873" cx="162" cy="170" r="5"/><circle class="ce451fe8-0a2c-488d-a75a-755727a11a66" cx="226" cy="221" r="5"/><circle class="aa2bc57f-21c7-44d4-b6cc-f629deee9097" cx="273" cy="328" r="5"/><circle class="aa2bc57f-21c7-44d4-b6cc-f629deee9097" cx="283" cy="321" r="5"/><circle class="aa2bc57f-21c7-44d4-b6cc-f629deee9097" cx="288" cy="315" r="5"/><circle class="aa2bc57f-21c7-44d4-b6cc-f629deee9097" cx="293" cy="238" r="5"/><circle class="aa2bc57f-21c7-44d4-b6cc-f629deee9097" cx="298" cy="239" r="5"/><circle class="245db6fe-f484-4bd7-9c9a-7f06eabe0a84" cx="339" cy="310" r="5"/><circle class="245db6fe-f484-4bd7-9c9a-7f06eabe0a84" cx="344" cy="324" r="5"/><circle class="245db6fe-f484-4bd7-9c9a-7f06eabe0a84" cx="351" cy="318" r="5"/><circle class="245db6fe-f484-4bd7-9c9a-7f06eabe0a84" cx="357" cy="351" r="5"/><circle class="245db6fe-f484-4bd7-9c9a-7f06eabe0a84" cx="364" cy="341" r="5"/><circle class="245db6fe-f484-4bd7-9c9a-7f06eabe0a84" cx="367" cy="368" r="5"/><circle class="245db6fe-f484-4bd7-9c9a-7f06eabe0a84" cx="373" cy="347" r="5"/><circle class="b8702cbf-b114-4d14-b2bc-e6442923e4fe" cx="412" cy="336" r="5"/><circle class="b8702cbf-b114-4d14-b2bc-e6442923e4fe" cx="417" cy="318" r="5"/><circle class="b8702cbf-b114-4d14-b2bc-e6442923e4fe" cx="422" cy="352" r="5"/><circle class="b8702cbf-b114-4d14-b2bc-e6442923e4fe" cx="427" cy="382" r="5"/><circle class="b8702cbf-b114-4d14-b2bc-e6442923e4fe" cx="437" cy="352" r="5"/><circle class="6b837e6f-cf45-4c5d-b33f-eae3a29e9d6d" cx="478" cy="372" r="5"/><circle class="6b837e6f-cf45-4c5d-b33f-eae3a29e9d6d" cx="485" cy="382" r="5"/><circle class="6b837e6f-cf45-4c5d-b33f-eae3a29e9d6d" cx="492" cy="373" r="5"/><circle class="9434fb63-f9cc-4519-bb71-7d8e2d761f33" cx="496" cy="378" r="5"/><circle class="9434fb63-f9cc-4519-bb71-7d8e2d761f33" cx="501" cy="382" r="5"/><circle class="6b837e6f-cf45-4c5d-b33f-eae3a29e9d6d" cx="468" cy="372" r="5"/><circle class="6b837e6f-cf45-4c5d-b33f-eae3a29e9d6d" cx="473" cy="379" r="5"/><circle class="b8702cbf-b114-4d14-b2bc-e6442923e4fe" cx="406" cy="341" r="5"/><circle class="aa2bc57f-21c7-44d4-b6cc-f629deee9097" cx="297" cy="281" r="5"/><circle class="aa2bc57f-21c7-44d4-b6cc-f629deee9097" cx="303" cy="281" r="5"/><circle class="ce451fe8-0a2c-488d-a75a-755727a11a66" cx="227" cy="266" r="5"/><circle class="ce451fe8-0a2c-488d-a75a-755727a11a66" cx="234" cy="276" r="5"/><circle class="ce451fe8-0a2c-488d-a75a-755727a11a66" cx="200" cy="258" r="5"/><circle class="ce451fe8-0a2c-488d-a75a-755727a11a66" cx="205" cy="304" r="5"/><circle class="ce451fe8-0a2c-488d-a75a-755727a11a66" cx="213" cy="289" r="5"/><circle class="ce451fe8-0a2c-488d-a75a-755727a11a66" cx="218" cy="258" r="5"/><circle class="6a55191f-524d-4ce3-9e40-f00b09b7e5cb" cx="89" cy="154" r="5"/><path class="0adea912-93d3-4b6d-af05-78739a7f9b83" d="M303,198s-43.21,29.27-31.1,79.74"/><polygon class="110c8f25-7410-496b-9672-5ee65c8db874" points="267.66 275.97 271.65 276.54 274.82 274.06 273.5 283.5 267.66 275.97"/><path class="0adea912-93d3-4b6d-af05-78739a7f9b83" d="M278.5,127.5c-.12-.2-123.37-24.72-123.43,31"/><polygon class="110c8f25-7410-496b-9672-5ee65c8db874" points="151.3 155.95 155.09 157.31 158.7 155.53 155.5 164.5 151.3 155.95"/></svg>