<svg id="Capa_1" data-name="Capa 1" xmlns="http://www.w3.org/2000/svg" viewBox="0 0 650 650"><defs><style>.cls-1,.cls-10,.cls-20{fill:none;}.cls-1{stroke:#757575;}.cls-1,.cls-10,.cls-14,.cls-16,.cls-18,.cls-19,.cls-20,.cls-22,.cls-23,.cls-24{stroke-miterlimit:10;}.cls-2{font-size:16px;}.cls-2,.cls-3,.cls-7,.cls-8{fill:#757575;}.cls-12,.cls-2,.cls-3,.cls-8{font-family:ArialMT, Arial;}.cls-3,.cls-7{font-size:13px;}.cls-4{letter-spacing:-0.06em;}.cls-5{letter-spacing:0em;}.cls-6{letter-spacing:-0.07em;}.cls-11,.cls-7{font-family:Arial-BoldMT, Arial;font-weight:700;}.cls-12,.cls-8{font-size:15px;}.cls-9{letter-spacing:-0.02em;}.cls-10{stroke:#d6d6d6;}.cls-11{font-size:30px;}.cls-11,.cls-12,.cls-21{fill:#323232;}.cls-13{opacity:0.82;}.cls-14,.cls-24{fill:#d57928;}.cls-14,.cls-16,.cls-18{stroke:#fff;stroke-width:0.5px;}.cls-14,.cls-15,.cls-16,.cls-17,.cls-18,.cls-19,.cls-22,.cls-23,.cls-24{opacity:0.76;}.cls-16{fill:#8e244f;}.cls-17,.cls-19{fill:#991d26;}.cls-18{fill:#59a5a5;}.cls-19{stroke:#545454;}.cls-20{stroke:#323232;}.cls-22{fill:#520793;stroke:#535353;}.cls-23{fill:#3f4d78;stroke:#505050;}.cls-24{stroke:#8e8e8e;}</style></defs><title>2017.11_Metaencuesta_anda</title><line class="cls-1" x1="48" y1="595.42" x2="569" y2="595.42"/><text class="cls-2" transform="translate(46.66 589.02) scale(0.99 1)">0</text><text class="cls-2" transform="translate(45.66 529.02) scale(0.99 1)">5</text><text class="cls-2" transform="translate(43.5 467.02) scale(0.99 1)">10</text><text class="cls-2" transform="translate(45.83 345.02) scale(0.99 1)">20</text><text class="cls-2" transform="translate(45.83 282.02) scale(0.99 1)">25</text><text class="cls-2" transform="translate(45.83 219.02) scale(0.99 1)">30</text><text class="cls-2" transform="translate(45.83 405.02) scale(0.99 1)">15</text><text class="cls-3" transform="translate(42.5 638.02) scale(0.99 1)">Fuente: Electrograph</text><text class="cls-3" transform="translate(459.5 639.02) scale(0.99 1)">L<tspan class="cls-4" x="7.23" y="0">A</tspan><tspan class="cls-5" x="15.18" y="0"> </tspan><tspan class="cls-6" x="18.8" y="0">V</tspan><tspan x="26.5" y="0">ANGUARDI</tspan><tspan class="cls-4" x="95.12" y="0">A</tspan></text><text class="cls-7" transform="translate(96.5 614.02) scale(0.99 1)">PSC</text><text class="cls-8" transform="translate(189.5 179.02) scale(0.99 1)">Promedio de todas las encuestas</text><text class="cls-8" transform="translate(377.5 272.02) scale(0.99 1)">Resultado de cada encuesta</text><text class="cls-7" transform="translate(337.5 614.02) scale(0.99 1)">PODEMOS</text><text class="cls-7" transform="translate(493.5 615.02) scale(0.99 1)">Cs</text><text class="cls-7" transform="translate(236.5 614.02) scale(0.99 1)">P<tspan class="cls-9" x="8.67" y="0">P</tspan></text><line class="cls-10" x1="47.85" y1="532.42" x2="568.36" y2="532.42"/><line class="cls-10" x1="47.85" y1="470.34" x2="568.36" y2="470.34"/><line class="cls-10" x1="47.85" y1="408.25" x2="568.36" y2="408.25"/><line class="cls-10" x1="47.85" y1="348.17" x2="568.36" y2="348.17"/><line class="cls-10" x1="47.85" y1="286.08" x2="568.36" y2="286.08"/><line class="cls-10" x1="47.85" y1="224" x2="568.36" y2="224"/><text class="cls-11" transform="translate(73.29 27.48)">Promedio de los sondeos del 2-N</text><text class="cls-12" transform="translate(94.69 48.74)">Porcentaje de voto de las encuestas de las elecciones andaluzas <tspan x="40.85" y="18">publicadas desde el 8 de octubre al 26 de noviembre</tspan></text><g class="cls-13"><rect class="cls-14" x="481.65" y="362" width="42.84" height="231.25"/></g><g class="cls-15"><rect class="cls-16" x="351.77" y="352" width="42.84" height="242.25"/></g><g class="cls-15"><rect class="cls-17" x="92" y="194" width="42.84" height="400.25"/></g><g class="cls-15"><polygon class="cls-18" points="221.8 334 264.8 334 264.8 594.5 221.87 594.5 221.8 334"/></g><circle class="cls-19" cx="95.5" cy="195.5" r="5"/><circle class="cls-19" cx="130.5" cy="197.5" r="5"/><circle class="cls-19" cx="122.5" cy="221.5" r="5"/><circle class="cls-19" cx="103.5" cy="169.5" r="5"/><circle class="cls-19" cx="112.5" cy="231.5" r="5"/><circle class="cls-19" cx="106.5" cy="217.5" r="5"/><circle class="cls-19" cx="109.5" cy="90.5" r="5"/><circle class="cls-19" cx="123.5" cy="187.5" r="5"/><circle class="cls-19" cx="122.5" cy="151.5" r="5"/><path class="cls-20" d="M241.18,185.46c17.47,25.32-61.63,27.89-100.25,24.17"/><polygon class="cls-21" points="144.13 206.24 142.17 209.75 143.33 213.6 135 208.98 144.13 206.24"/><path class="cls-20" d="M372.5,269.5c-.12-.2-123.37-24.72-123.43,31"/><polygon class="cls-21" points="245.3 297.95 249.09 299.31 252.7 297.52 249.5 306.5 245.3 297.95"/><line class="cls-10" x1="47.85" y1="162.34" x2="568.36" y2="162.34"/><text class="cls-2" transform="translate(46.83 159.02) scale(0.99 1)">35</text><circle class="cls-19" cx="101.5" cy="223.5" r="5"/><circle class="cls-19" cx="96.5" cy="221.5" r="5"/><circle class="cls-19" cx="114.5" cy="193.5" r="5"/><circle class="cls-19" cx="113.5" cy="221.5" r="5"/><circle class="cls-19" cx="129.5" cy="185.5" r="5"/><circle class="cls-19" cx="122.5" cy="232.5" r="5"/><circle class="cls-19" cx="103.5" cy="153.5" r="5"/><circle class="cls-19" cx="102.5" cy="232.5" r="5"/><circle class="cls-19" cx="129.5" cy="222.5" r="5"/><circle class="cls-19" cx="125.5" cy="168.5" r="5"/><circle class="cls-19" cx="124.5" cy="199.5" r="5"/><circle class="cls-19" cx="119.5" cy="217.5" r="5"/><circle class="cls-19" cx="113.5" cy="157.5" r="5"/><circle class="cls-19" cx="105.5" cy="198.5" r="5"/><circle class="cls-19" cx="113.5" cy="183.5" r="5"/><circle class="cls-22" cx="355.5" cy="350.5" r="5"/><circle class="cls-22" cx="371.5" cy="351.5" r="5"/><circle class="cls-22" cx="371" cy="346" r="5"/><circle class="cls-22" cx="379.5" cy="346.5" r="5"/><circle class="cls-22" cx="361" cy="360" r="5"/><circle class="cls-22" cx="365.5" cy="364.5" r="5"/><circle class="cls-22" cx="371.5" cy="405.5" r="5"/><circle class="cls-22" cx="370.5" cy="332.5" r="5"/><circle class="cls-22" cx="390" cy="369" r="5"/><circle class="cls-22" cx="369.5" cy="364.5" r="5"/><circle class="cls-22" cx="377.5" cy="359.5" r="5"/><circle class="cls-22" cx="365.5" cy="345.5" r="5"/><circle class="cls-22" cx="368.5" cy="387.5" r="5"/><circle class="cls-22" cx="378.5" cy="330.5" r="5"/><circle class="cls-22" cx="387.5" cy="351.5" r="5"/><circle class="cls-22" cx="362.5" cy="331.5" r="5"/><circle class="cls-22" cx="389.5" cy="358.5" r="5"/><circle class="cls-22" cx="357.5" cy="343.5" r="5"/><circle class="cls-22" cx="384.5" cy="380.5" r="5"/><circle class="cls-22" cx="383.5" cy="367.5" r="5"/><circle class="cls-22" cx="374.5" cy="371.5" r="5"/><circle class="cls-22" cx="386.5" cy="340.5" r="5"/><circle class="cls-22" cx="378.5" cy="337.5" r="5"/><circle class="cls-22" cx="357.5" cy="371.5" r="5"/><circle class="cls-23" cx="235.5" cy="317.5" r="5"/><circle class="cls-23" cx="259.5" cy="333.5" r="5"/><circle class="cls-23" cx="259.5" cy="342.5" r="5"/><circle class="cls-23" cx="225.5" cy="343.5" r="5"/><circle class="cls-23" cx="256.5" cy="347.5" r="5"/><circle class="cls-23" cx="248.5" cy="345.5" r="5"/><circle class="cls-23" cx="247.5" cy="337.5" r="5"/><circle class="cls-23" cx="248.5" cy="353.5" r="5"/><circle class="cls-23" cx="239.5" cy="331.5" r="5"/><circle class="cls-23" cx="246.5" cy="329.5" r="5"/><circle class="cls-23" cx="254.5" cy="330.5" r="5"/><circle class="cls-23" cx="227.5" cy="324.5" r="5"/><circle class="cls-23" cx="227.5" cy="356.5" r="5"/><circle class="cls-23" cx="234.5" cy="347.5" r="5"/><circle class="cls-23" cx="235.5" cy="341.5" r="5"/><circle class="cls-23" cx="228.5" cy="335.5" r="5"/><circle class="cls-23" cx="232.5" cy="353.5" r="5"/><circle class="cls-23" cx="244.5" cy="319.5" r="5"/><circle class="cls-23" cx="254.5" cy="319.5" r="5"/><circle class="cls-23" cx="258.5" cy="324.5" r="5"/><circle class="cls-23" cx="249.5" cy="314.5" r="5"/><circle class="cls-23" cx="241.5" cy="343.5" r="5"/><circle class="cls-23" cx="245.5" cy="372.5" r="5"/><circle class="cls-23" cx="234.5" cy="331.5" r="5"/><circle class="cls-24" cx="494.5" cy="324.5" r="5"/><circle class="cls-24" cx="514.5" cy="381.5" r="5"/><circle class="cls-24" cx="500.5" cy="343.5" r="5"/><circle class="cls-24" cx="492.5" cy="388.5" r="5"/><circle class="cls-24" cx="508.5" cy="415.5" r="5"/><circle class="cls-24" cx="486.5" cy="338.5" r="5"/><circle class="cls-24" cx="493.5" cy="345.5" r="5"/><circle class="cls-24" cx="491.5" cy="371.5" r="5"/><circle class="cls-24" cx="498.5" cy="413.5" r="5"/><circle class="cls-24" cx="510.5" cy="324.5" r="5"/><circle class="cls-24" cx="501.5" cy="318.5" r="5"/><circle class="cls-24" cx="516.5" cy="407.5" r="5"/><circle class="cls-24" cx="507.5" cy="336.5" r="5"/><circle class="cls-24" cx="487" cy="344" r="5"/><circle class="cls-24" cx="488.5" cy="356.5" r="5"/><circle class="cls-24" cx="500.5" cy="403.5" r="5"/><circle class="cls-24" cx="496.5" cy="361.5" r="5"/><circle class="cls-24" cx="502.5" cy="348.5" r="5"/><circle class="cls-24" cx="514.5" cy="360.5" r="5"/><circle class="cls-24" cx="517.5" cy="344.5" r="5"/><circle class="cls-24" cx="504.5" cy="377.5" r="5"/><circle class="cls-24" cx="509.5" cy="346.5" r="5"/><circle class="cls-24" cx="505.5" cy="362.5" r="5"/><circle class="cls-24" cx="517.5" cy="333.5" r="5"/><line class="cls-10" x1="47.85" y1="100.34" x2="568.36" y2="100.34"/><text class="cls-2" transform="translate(47.83 97.02) scale(0.99 1)">40</text></svg>