<svg id="svg2" xmlns="http://www.w3.org/2000/svg" xmlns:xlink="http://www.w3.org/1999/xlink" viewBox="0 0 654.95 536.71"><defs><style>.cls-1,.cls-20,.cls-21,.cls-4,.cls-7{fill:none;}.cls-1,.cls-11,.cls-2,.cls-21,.cls-4,.cls-5,.cls-6,.cls-7,.cls-8{stroke:#fff;}.cls-1,.cls-11,.cls-20,.cls-21,.cls-6{stroke-miterlimit:10;}.cls-11,.cls-2,.cls-5,.cls-6{fill:#cecdcc;}.cls-2,.cls-4,.cls-5,.cls-7,.cls-8{stroke-linecap:round;stroke-linejoin:round;}.cls-11,.cls-2,.cls-21{stroke-width:2px;}.cls-3{clip-path:url(#clip-path);}.cls-4{stroke-width:0.8px;}.cls-7,.cls-8{stroke-width:0.5px;}.cls-8{fill:#15acb1;}.cls-9{font-size:28px;}.cls-10,.cls-12,.cls-13,.cls-9{fill:#323232;}.cls-13,.cls-9{font-family:Arial-BoldMT, Arial;font-weight:700;}.cls-10,.cls-22{isolation:isolate;}.cls-10{font-size:19px;}.cls-10,.cls-12,.cls-15,.cls-22{font-family:ArialMT, Arial;}.cls-12{font-size:14px;}.cls-13,.cls-15,.cls-22{font-size:15px;}.cls-14{letter-spacing:-0.06em;}.cls-15,.cls-22{fill:#757575;}.cls-16{letter-spacing:-0.07em;}.cls-17{letter-spacing:-0.02em;}.cls-18{letter-spacing:-0.04em;}.cls-19{letter-spacing:-0.11em;}.cls-20{stroke:#757575;}.cls-23{fill:#283659;}.cls-24{fill:#fff;}</style><clipPath id="clip-path" transform="translate(5.68 -7.62)"><rect class="cls-1" x="204.18" y="374.43" width="158.71" height="82.4"/></clipPath></defs><title>2017.09_MenosParo1</title><g id="layer1"><path id="path4284" class="cls-2" d="M225,168.33c.09-.68.88-.91,1.31-1.37.9-.88,1.34.12,2,.82a2,2,0,0,0,3.46-.74,19,19,0,0,1,.73-3.82,5.43,5.43,0,0,0,.93-1.41c.33-.44.17-1,.11-1.48.5-.47,1.41-.53,1.5-1.34-.2-.43-.8-.75-1.16-1.14-1.22-.69.8-1.83.36-2.93-.16-1.55,1.68-2.27,2.62-3.2.54-.24,1.08-.63.83-1.31a16.3,16.3,0,0,1-.56-4,7.08,7.08,0,0,1,.53-2.27,1.71,1.71,0,0,1,1.24.57,8,8,0,0,0,2.85,3.6c.56.17.7,1,1.34.9a12.72,12.72,0,0,0,3.15,1.59c1.19,1,1.93-.4,2.87-.92a4.12,4.12,0,0,0,1.1-1c.36.12.92.8,1.21.32-.57-.92-1.57-1.61-2.08-2.61-.91-1.58-1.3-3.54-2.62-4.84a9,9,0,0,0-2.25-1.79c-.43-.53-.7-1.25-1.46-1.37-1.39-.35-1.9-1.89-2.61-3-.83-.84-.72-1.47.25-2,.65-.44,1.12-1.28,2-1.29a10.47,10.47,0,0,1,1.23-1,20.14,20.14,0,0,0,1.86-1.21c1.63.46,3.33.72,4.92,1.31,1.19.51,2.37,1.07,3.55,1.6a18.38,18.38,0,0,1,.11-3.26c0-1.28-.8-2.43-.74-3.72a5.3,5.3,0,0,0-.59-2.42c-.45-2,1.25-3.63,1.36-5.59.41-1.49.57-3.09,1.5-4.38a27.63,27.63,0,0,1,1.78-2.82,5.55,5.55,0,0,1,2.19-1.5c1.1-.42,2.19-.94,3.3-1.3a16.91,16.91,0,0,1,3.91.51c.87.06-.41.48-.66.72l-4,2.41c-.16.56-.22,1.08.44,1.29a16.68,16.68,0,0,0,3.28,1.62c.26.77-.4,1.37-.67,2-.34.5-.48,1.2-.94,1.58-.87.57-2,.86-2.61,1.72-.24.76-.46,1.76.3,2.31.61.59,1.37,1.07,1.58,1.94s0,1.62.14,2.43a3.89,3.89,0,0,0,1.22,2.52,23.58,23.58,0,0,1,1.89,2.52c.21,1-.82,1.73-1.61,2.15-.57.6,0,1.48.36,2s1,.52,1.16-.15.82-1.13,1.49-.86a1.93,1.93,0,0,1,2.75.55c.25.6,0,1.47-.75,1.51s-1.13.9-1.41,1.53c.35,1.13,2.95,1.05,2.27,2.67-.57.31-1.52-.06-1.88.64-.2.92.3,1.83.42,2.74a14.54,14.54,0,0,1,.5,2.63.72.72,0,0,0,.22,1.2,4.8,4.8,0,0,1,1.63,2.07c.29.39.62.84.33,1.33-.09.67-.33,1.43.15,2a6.5,6.5,0,0,0,2.18-.13,17.11,17.11,0,0,0,1.65-.47c.78.92.06,3.13,1.26,3.36.84.23,1.37-.51,2.08-.13.24.47.89-.14,1.34.23.46.12.93.7,1.4.53.63-.3,1.22-1,2-.76a11,11,0,0,0,1.47-.45,14.77,14.77,0,0,0,2.23-.11,33.65,33.65,0,0,0,3.64-1.24c.8-.08,1.55-.37,2.22.19.45.38,1,.19,1.37.63a6.41,6.41,0,0,1,1.31,1.45,3.32,3.32,0,0,0,0,2.26c.26.59.08,1.29.5,1.82a14,14,0,0,1,.72,2.5c.07.58-.5.75-.91,1s-1.21.55-1.35,1.24c-.3.56-.47,1.2-.79,1.72.95.44,1.36,1.77,1.79,2.78.22.56.74,1.13.64,1.75-.39.94-.21,2-.55,2.94-.17.49-.41.92-.12,1.43-.07.52.44.74.52,1.22s-.25,1.22.22,1.49a6.4,6.4,0,0,0,1.95.5c1,.51,2.14.92,3.13,1.49.41.37.47.79.81,1.22a12.56,12.56,0,0,0,3.5,3.56,18.35,18.35,0,0,1,2,2.49c.68,1.11,1.3,2.27,2,3.35.53.36.94,1,1.56,1.15.52-.25,1.31,0,1.32.62.13.47,0,1.19.64,1.25,1.29.53.89,2.49,1.66,3.52.9.81.47,1.94,0,2.82a3.18,3.18,0,0,0-.33,2.87c.12.55.35,1,.43,1.58a2.75,2.75,0,0,0,1.13,1.59,12.64,12.64,0,0,1,1.4,3.22c.29.83.47,1.8,1.3,2.27a7.52,7.52,0,0,0,1.72,1.23c.58,0,.35.82,0,1.06-1.33.67-2.81,1.06-4.2,1.62s-1.86,1.89-2.87,2.73c-.91.27-.89,1.39-1.36,2.07-.66,1-.28,2.2-.76,3.24-.16.53-.68,1.13-1.28.78-.77-.44-.23.49-.21.89.26.28.31,1,.5,1.5.68,2.33,1.25,4.7,2,7,.77,2.09,1.16,4.3,1.76,6.45l1,3.95c.38.55.39-.45.43-.85.25-.86-.34-1.76,0-2.59.36-.39,1.08,0,1.4-.5a2.34,2.34,0,0,0-.12-2c0-.55.82-.7,1.23-.42s1.11,0,1.23.62c.34.44,1.23-.14,1.37.52-.15.5-.46,1-.11,1.55-.07,1.1,1.15.54,1.59,1-.2.66-1.15.81-1.41,1.46a5,5,0,0,0-.82,2.21,12.6,12.6,0,0,0,1.11,1.51,18.75,18.75,0,0,1,2.2.72,25.89,25.89,0,0,1,1.05,3.12,6.43,6.43,0,0,1,.56,2.83c-.06,2.21-.33,4.4-.52,6.6a11.85,11.85,0,0,0-1.75,1.12c-.1,1.32-.32,2.66-.35,4a3.33,3.33,0,0,1,.43,1.94c0,2.79-.05,5.58-.13,8.37.05.82-.14,1.76.57,2.37,1.61,2.34,3.53,4.45,5.2,6.73.71.9.16,2.07-.08,3a10,10,0,0,0-1.12,2.82c-.87,3.18-1.87,6.42-1.64,9.76-.72-.2-.88.21-1.22.43,0,.09,0,.91.23,1,0,.91.14.18.43,0,.75-.15.43.67.44,1.11-.12,1,.19,2.26-.73,3-1.19.45-1.49,1.82-2.12,2.8a2,2,0,0,1-1.59,1.43,5.85,5.85,0,0,0-2.17,1.12c-.61,1.48-.9,3.08-1.38,4.61a3.48,3.48,0,0,1-1.06,2.2c-.52.64-1.56,1-1.46,2-.85,4.75-1.2,9.57-2.08,14.31a14.33,14.33,0,0,1-1.28,3.43c-8-4-16-7.94-23.93-11.91a1,1,0,0,1-1.24.74c-.48-.3-.92-.64-.81-1.27s-.75-.64-1.14-1Q279.66,322,274,319c-1.39-2.58-3.13-4.95-4.7-7.42-2-3-3.91-6-6-8.89a3.43,3.43,0,0,0-2-1.54c-4.47-2.12-8.87-4.39-13.33-6.55-1.61-1.19-3.72-1.31-5.53-2.09.79-1.57,1.57-3.34.94-5.11-.39-1.81-2-3.24-1.89-5.17,3.38.08,7-2.56,6.93-6.15-.11-2.09-1.93-3.62-2-5.71-.39-2.22-.71-4.45-1-6.68a5.56,5.56,0,0,0-2.45-.08,9.35,9.35,0,0,1-3.9-.36c-.66-.41-1.73-.8-1.56-1.76a2.29,2.29,0,0,1,.36-1.63,4.65,4.65,0,0,0,.7-2c.51-.31.43-.88.39-1.38.14-.69.73-.88.87-1.7.11-.62.7-.72.76-1.28s-.34-1.12.07-1.6c0-.74.39-1.54-.07-2.2a1.33,1.33,0,0,1,.25-1.24,3.68,3.68,0,0,0,0-1.42,2.69,2.69,0,0,0-.57-1.7,1.71,1.71,0,0,0-.35-1.31c0-.44.17-.93-.31-1.27-1-1.21-1.08-3-2.16-4.15-1.16-.59.06-.74.58-1.12.94-.56,1.67-1.53,2.81-1.72a5.68,5.68,0,0,0,3.84-2.88,4,4,0,0,0,.63-1.71,14.62,14.62,0,0,0-1-2.59,1.12,1.12,0,0,1-.19-1.41c.51-1,1.56-1.66,2.18-2.63.48-.54.2-1.4.83-1.85a2.68,2.68,0,0,0,1-1.66,11.9,11.9,0,0,1,1-2.93c-1.62-2-1.34-5.16-3.52-6.77-1-.53-2,.5-3.06.5a5.27,5.27,0,0,1-1.76-.2c-.71-.43-1.56-.7-1.95-1.51-1.67-2.32-2.72-5.28-5.34-6.74-1.71-2.87-4.18-5.45-4.83-8.82.06-1.38.15-3-1.12-3.9a2.63,2.63,0,0,0-1.64-.87,27.87,27.87,0,0,0-3.78,0,22,22,0,0,0-5.41.51c-.06.72-.82.28-1.29.29-1.15-.19-2.27-.54-3.39-.79-.62.44-1.36-.16-2,.11a9,9,0,0,1-2.2,2.19c-1.25.8-2.79.48-4.19.69a4.53,4.53,0,0,1-2.89-.22,1.44,1.44,0,0,1-1.74-.57c-1-1.93-2.1-4.34-4.49-4.73-.94.11-.17-1-.36-1.55a11.55,11.55,0,0,0-.18-2.27,10.51,10.51,0,0,1-1.62-.94l-.51-2a30.28,30.28,0,0,0,1.13-9.61l1-1.56a1.6,1.6,0,0,1,1.45.54c1,.53,1.73,1.37,2.64,2a2.65,2.65,0,0,0,2-.3c.78-1.73,1.44-3.77,3.37-4.54,1.18-.65,2.38-1.09,3,.41,1,1.61,2.89,1,4.42,1.22s3.61.84,3.94,2.69c.13.73-.25,1.65.67.89.71-1.06,3.08.71,2.89-.64l-.32-2.24Zm-1.28-9.48a30,30,0,0,1-4.27.27L211.27,161l-3.86-1.52c.63-.36,1.43-.53,1.78-1.23a16.28,16.28,0,0,0,1.91-2.92c.7-.72,1.77-.65,2.67-.94a2.4,2.4,0,0,1,1.75,0c1.36.32,2.71.74,4.07,1a15.31,15.31,0,0,0,4-.94c.66-.41.18.74.28,1.1Zm-1.1-14.54c-2.09-1-4.12-2.2-6.24-3.17-.63-.26-1.37-.21-1.82-.79-1.09-1.05-2.08-2.25-3.19-3.26l-1.83-.61-1.6,3.94a47.61,47.61,0,0,1-5,3.29l-1.79,1.07c-4.14-1.76-8.24-3.61-12.34-5.46.27,1.51.74,3.2-.14,4.61.21.82-.45.6-1,.5l-5.85-.85,3.19-14.5a13.84,13.84,0,0,0,4.86-.65c1.43-.35,2.88-.58,4.29-1,1.63-1.31,3.29-2.61,5-3.83.4-.63.41-1.45,1-2a6.3,6.3,0,0,1,1.19-2.15,5.26,5.26,0,0,0,1.18-1.9c.35-.86,1.46-.92,1.85-1.73a5.09,5.09,0,0,0,.29-3.85c-.29-.72-1.14-1.71-.43-2.46.46-.45-1-.55-.8-1a6.72,6.72,0,0,0,.62-3.32,1.26,1.26,0,0,1-.37-1.3c0-.68.28-.94.94-.78a4.34,4.34,0,0,1,3.1.77,43.79,43.79,0,0,0,6.61,2.7c1.16.18,2.37.67,3.51.39,1-.45,1.44-1.51,2.34-2.09,1.18-1.14,2.91-1.49,4.11-2.59,2.15-2.21,3.94-4.74,5.92-7.11s3.74-4.72,5.69-7L239.1,85c1.45,1.32,2.8,2.74,4.33,4,0,.54-.79.54-1,1a18.82,18.82,0,0,0-2.95,2.71c-.24.62-.79,1.12-.87,1.79.27.67,1.1.9,1.68,1.28l3.43,1.45c-1.18,1.74-2.29,3.56-3.51,5.26-.81.24.21.69.43,1,.94,1,2.18,1.77,3,3l4.74,5.91c-2.4,1.48-4.77,3-7.2,4.43a1.92,1.92,0,0,1-1.35,1,13.75,13.75,0,0,1-3.1,1.18c-1.93.18-2.32,2.18-3.26,3.5-.39.53.41,1.12.57,1.67l2.22,4.06L232.62,137Z" transform="translate(5.68 -7.62)"/><path id="path709" class="cls-2" d="M216.7,244.33a3.2,3.2,0,0,0-1.1.12,4.35,4.35,0,0,1-2.36.9c-.23.08-.5.09-.72.18a13.38,13.38,0,0,0-1.14,1.39c-.28.49.21,1,.38,1.4a3.4,3.4,0,0,1,.28,2.16,10.2,10.2,0,0,0-.43,2.16,1.55,1.55,0,0,1-.27.82,11.77,11.77,0,0,0-1.46,1.43c-.36.28-.5.76-.78,1.09a2.15,2.15,0,0,0-.86.7c-.42.46-.67,1-1,1.53-1.31,1.23-2,2.95-3,4.42a2.79,2.79,0,0,0,.1,1.29c.07.44.55.71.5,1.19a4.46,4.46,0,0,0,.26,2c-1-.24-1.75-1.12-2.8-1,.18,1.36-.2,2.73-.08,4.09a.59.59,0,0,1-.13.64c-.18.18-.11.53,0,.74s-.12.45-.08.66c-.19.12,0,.46-.28.58,0,.25.09.45-.07.65s.23.45.19.66c-.31.26,0,.69-.15,1s-.47.39-.74.53a1,1,0,0,1-.76.09,13.11,13.11,0,0,1-2.49.22c-.29-.07-.61-.08-.81-.35l-1-.87c-1.25,1-2.53,2-3.76,3.07a4.74,4.74,0,0,0-1,1.81,3.06,3.06,0,0,0-.4,1.33,10.41,10.41,0,0,0,.19,2.17c.18,1.56.32,3.12.53,4.68.11.46,0,1,.48,1.35s1,.92,1.46,1.38c.2.63-.48,1.2-.21,1.82.09.41,0,.89.37,1.22a4.34,4.34,0,0,1,.81,1.51,6.6,6.6,0,0,1,.52,2.4c-.11.28-.39.55-.23.86.13.16.41.3.4.56a21.25,21.25,0,0,1-.69,2.32,1.37,1.37,0,0,1-.44.79c-.69.79-1.44,1.52-2.2,2.24,4.77,4.77,9.2,9.85,13.93,14.64,3.69.43,7.4.74,11.06,1.35-.57,1.72-2.13,2.8-3.37,4a5.7,5.7,0,0,0-1.25,1.5l1.53,1.74c4.66.42,9.32.85,13.95,1.57a64.32,64.32,0,0,1,12,2.4,103.37,103.37,0,0,0,15.66,6,33.06,33.06,0,0,0,3.51.68,22.16,22.16,0,0,0,2.85.33c1.84.07,3.68.22,5.53.19a8.68,8.68,0,0,1,1.17.25,88.41,88.41,0,0,1,9.53-7.22,45.05,45.05,0,0,1,8.73-5.15l-.11-1.1c-1.71-.85-3.39-1.74-5.08-2.63-2.48-1.29-5-2.56-7.44-3.86a28.86,28.86,0,0,0-1.63-2.73c-2.79-4.31-5.66-8.57-8.5-12.84l-1.22-1.63c-5-2.3-9.8-4.82-14.71-7.2a9.22,9.22,0,0,0-3.13-1.32,22.49,22.49,0,0,1-2.4-.77c.57-1.33,1.42-2.7,1.11-4.21-.15-1.62-1.12-3-1.77-4.42-.19-.54-.75-1.84.22-1.67a6.85,6.85,0,0,0,6.21-4.61,4.55,4.55,0,0,0-.44-3.65,9.65,9.65,0,0,1-1.33-3.24c-.33-2-.66-3.91-.9-5.88l-.15-1.14a5.41,5.41,0,0,0-1.82-.15,9.19,9.19,0,0,1-2.27.14c-.74-.06-1.46-.26-2.19-.38-.52-.36-1.19-.56-1.52-1.13-.22-.25-.06-.61-.11-.91s-.07-.71.15-1c.24-.51.55-1,.75-1.52a7,7,0,0,1,.19-.9.93.93,0,0,0,.36-1,1.36,1.36,0,0,1,.21-.89c.45-.1.42-1,.75-1.32.15-.21.19-.64.53-.59a1.27,1.27,0,0,0,.08-.87c0-.32-.22-.66,0-.95a4.17,4.17,0,0,0,.26-1.41c0-.26.12-.53-.07-.75a1.43,1.43,0,0,1-.08-1.21,1.32,1.32,0,0,0,.23-.63.6.6,0,0,0,0-.6,2.78,2.78,0,0,1,0-.89c-.09-.21-.09-.44-.18-.64a1.09,1.09,0,0,0-.35-.64,2.4,2.4,0,0,0-.25-1.21c-.24-.23-.13-.55-.07-.89-.25-.52-.74-.89-.93-1.45a22,22,0,0,0-1.45-3.12c-.55-.29-1-1.12-1.41-1.27-.36.32-.6.77-1,1.05-.74.34-1.52.58-2.26.92-.29.24-.5.6-.84.75s-.85,0-1.27,0a2,2,0,0,1-1.38-.09,8.51,8.51,0,0,0-2.26-.46c-.53.34-.95.85-1.46,1.22-.66.26-1.3.58-2,.79a5.57,5.57,0,0,1-1.51.84,3.2,3.2,0,0,1-1.23.33,3.63,3.63,0,0,0-1.32.15,12.36,12.36,0,0,0-1.28.42,5.64,5.64,0,0,1-.79.79Z" transform="translate(5.68 -7.62)"/><g id="g687"><g class="cls-3"><g id="g689"><path id="path695" class="cls-4" d="M327.46,382.65l3.94,4.11,5.07,0,2.84.92,3.4,1.13,1.28-.07h3.86l0,3.47v7.41l3.76,0,3.69.07c-.15,7.5-.24,15-.21,22.52,2.42,0,4.85.12,7.27.14l-.57,1,.57,1.1,0,2.69v8.23l-1.74-.35-.07-2.38-3.16-.6-3.33.53-8.51,2.91-6.06,2.13-.28-.71-2.13.82-3.69,1.56-1.74.57L329,441l-4.25,2.23-4.89,2.48-7.27,4.72-.89.82,1.17,3.23-.78.32-2.23-3.55-4.61,2.2-1.84,1.45-5.11,2.41-4.15-.18-2.87-1.17-2.73-.64L261,464.7l-.43.32-9.79,3.3-1,.57-.82.53-.67.18-1.31.57-1.31.53-1,.78L224,486.12,220,489l-3.47,2.55-6.67,4.75-4,2.8-.71.5-.5-.82,6.91-5-2.27-3.26-.21-.39.07-.32.28,0,3.23-2.13.32.39-1.52,1,.71,1-.53.39.35.5.53-.39,1.31,1.77,1.56-1.24,5.92-4.43.07-1.24-.07-.11,0-.32,3.79-2.69,2.91-1.84.64,1.1L240,473l-.43-1.35,2.52-1.91,1.24-.64.07,0,.46-.11.53-.14,1.31.21.82-.6,4.18-1.42.11-1.28-.43-1.24.28-.53.67-.46.18-.11v0l.21.57,25.78-8.9,11.2-3.83,6.28,3.58,5.57-1.21,3.58-2.59-.5-.67-.25.21-.11-.14.43-.32.07.07.07.11.07,0,0,0,.07-.11.46.6,4.4-3.33-1.28-1.7-3.19,2.38-.25-.35-1.28,1,0,.07.5.85L303,450l-.35-.53-.74.57-.5-.57,5-3.79-.57-.74-5,3.83-.25-.32,1-.71-.82-1.13,4.75-3.55-.6-.82,1.21-.92,3.62,4.79,1.1-.82-1.31-1.67.6-.46-1-1.17,2.41-1.88,2.16,2.77,5.11-3.9.71-.28-.32-.57-2.27,1-.07-.18,2-.85-.78-1.91-1.81-.57-4.86,3.79-1-1.21v-.25l-.43-1.81.25-.07.39,1.63.89-.64-.53-1.52.32-.11.43,1.42.89-.64-.57-1.52.21-.11.6,1.42.82-.67-.71-1.42.21-.14.74,1.35.85-.64-.82-1.35.25-.18.82,1.35.89-.74-.89-1,.21-.21,1,1,3.86,1.28.14-.28.53-.39-.07-.78.53.57,2.8-1.88-2.52-1.35.11-.18,2.62,1.38.82-.53.64-1.28L322.11,428l.11-.25,3.65,1.88.85-1.6-3.79-2,.11-.25,3.79,2,.78-1.35-3.86-2.06.11-.28,3.9,2.06.53-.92-4-2.16.07-.21,4,2.13.18-.28-.11-.35.25-.43-3.44-1.88.11-.21,3.4,1.84-.32-1.17-2.87-1.6.14-.28,2.59,1.45-.25-1.17-1.74-.92.11-.32,1.6.85-.28-.89-1.84-1.17-.39-.18-5.89,10.74-8.55,2.16-.39-.28-.78-3.37.82-1.28,7.73-2,1.88-3.47.39-.64.71-1.31-.11-.5-12.48,3.23-2.13.5-2,.46-2.55.57.21.74-.57.18,2.87,11.63.6-.14.25.71-.64,1.06-.21,0-4,1-1-.6-.18-.71.67-.18-2.48-10.28-.53-2v-.21l.21-.21-.74-3.16,0-.18,3.4-.82-1.31-2.66-3-3.65-.71-.89-3.9-4.68-.21-.25-.67-.64-1.88-1.63-1.1-1.24.07-.82.11-.74v-3l0-1.56c.17-3.43.08-6.67.21-10.11,5.42-4.42,10.88-8.79,16.31-13.19l2.48.21,7.66,9.64C318.06,384.42,323.3,382.6,327.46,382.65Z" transform="translate(5.68 -7.62)"/></g></g><rect class="cls-1" x="209.86" y="366.81" width="158.71" height="82.4"/></g><path id="path697" class="cls-2" d="M257.58,348.76c-.44,3.89,0,7.9-.28,11.77.27,4.94-.87,10.09,1,14.82,5.61,5.78,11.49,11.28,17,17.09,4,3.94,8,7.81,11.84,11.91l.07-.82.11-.74v-3l0-1.56c.17-3.43.08-6.67.21-10.11,5.42-4.42,10.88-8.78,16.31-13.19l2.48.21,7.66,9.64c4-.36,9.27-2.18,13.44-2.13l3.94,4.11,5.07,0,2.84.92,3.4,1.13,1.28-.07h3.86l0,3.47,3.79.07,10.42.14,2.09-1.88,2.48-2.59.71-.43,10.92-11,1-1-.46-.43-.64-1.35.07,0L378,373l0-.11h-1.38L374.09,370l1.06-.74,3.83,2,.43-.11.89-.6.57-.18.92-.14c.09-7.86,0-15.76.14-23.61-.27-3.76.18-7.85,0-11.63-7.52-.06-15-.06-22.55,0l0,3.83-.07,3.72,0,3.86H355.4l-3.69,0H348l-4,0,0-3.79c-7.73,0-15.73.17-23.44,0q-16-8-32-16l-.46.71-.78,0-.74-.57c-4.31,1.76-7.6,4.49-11.45,7C268.82,338.12,263.37,343.61,257.58,348.76Z" transform="translate(5.68 -7.62)"/><path id="path25" class="cls-5" d="M327.46,382.65l3.94,4.11c1.71,0,3.42,0,5.13,0,2.07.66,4.12,1.35,6.18,2,1.71-.13,3.43-.05,5.14-.07-.05,3.63,0,7.26,0,10.89q3.72,0,7.45.11c-.15,7.5-.24,15-.21,22.52,2.42,0,4.85.12,7.27.14a5.33,5.33,0,0,0-.54,1c.21.5.64,1,.55,1.53.06,3.48,0,7,0,10.44l-1.74-.35-.07-2.38c-1.07-.19-2.14-.44-3.22-.59-1.16.21-2.35.32-3.5.6-4.79,1.63-9.58,3.27-14.34,5-.16-.29-.18-.93-.62-.58-2,.7-3.83,1.6-5.76,2.34a35.89,35.89,0,0,0-4.3,1.69c-3,1.6-6,3.13-9,4.66-2.43,1.59-4.9,3.14-7.31,4.76-.23.27-.66.5-.76.78l2.28,3.65,1.63-.53.93.76-38.38,16,26.1-13.06-.89-3.22-5.11,2.41c-1.4-.07-2.81-.09-4.2-.2-1-.39-2-.9-3.11-1.22-.83-.17-1.66-.43-2.49-.55L261,464.7a7.15,7.15,0,0,1-2.15.9c-2.7.92-5.42,1.81-8.11,2.75-.64.32-1.24.72-1.85,1.09a33.07,33.07,0,0,0-3.11,1.21c-.68.43-1.28,1-2,1.43-8.08,5.75-16.2,11.46-24.25,17.24-4,3-8.1,5.85-12.19,8.72l-2.18,1.52c-.08-.3-.66-.7-.35-.92l4.2-2.9.29-5.22c-.22-.23-.34-.82.14-.74l3.23-2.13c.45.32.22.54-.18.73l-1,.69.71,1c-.37.22-.69.44-.25.79.21.28.62-.65.78,0l1.13,1.53c1.3-1.08,2.68-2.05,4-3l-1.35-3.53,10.17-7.05-.78-1.6,10.91-7.57c-.08-.34-.35-.74-.31-1l1.12-.73c.31.16.56.7.93.5,4-1.43,8.11-2.83,12.15-4.29.25-.1.66-.6.82-.44.06.52.35.55.77.31,12.13-4.18,24.26-8.4,36.41-12.53l6.28,3.58c1.87-.42,3.76-.78,5.62-1.24l3.53-2.55c-.24-.2-.41-.93-.73-.48-.29-.18.39-.58.5-.3.22-.24.39.51.63.49l4.35-3.3-1.28-1.7-3.19,2.38c-.17-.55-.48-.19-.78.06s-.71.4-.75.71.64.69.32.91c-.36.54-.42-.58-.74-.24-.29.17-.62.7-.84.18-.5-.31.06-.5.32-.73l4.45-3.36c-.24-.17-.41-.88-.71-.63l-4.85,3.72c-.48-.33.06-.52.34-.75.53-.19.24-.51,0-.82s-.67-.63-.13-.81l4.46-3.33c-.12-.29-.66-.64-.51-.89l1.11-.85,3.62,4.79,1.1-.82-1.31-1.67c.24-.23.86-.43.37-.74l-.76-.89,2.41-1.88,2.16,2.77c1.72-1.3,3.43-2.64,5.16-3.92.35-.14.88-.22.44-.63-.16-.41-.64.13-.94.17l-1.44.63c-.18-.36.55-.34.77-.53l1.18-.5-.78-1.91-1.81-.57-4.86,3.79a13.29,13.29,0,0,1-1-1.27,19.42,19.42,0,0,0-.43-2c.44-.24.3.51.45.76s0,1.07.44.63c.26-.24.84-.38.52-.8l-.41-1.18c.46-.33.4.36.55.65s.15.9.54.41c.36-.21.69-.43.37-.84l-.4-1.07c.38-.27.37.5.57.73.13.42.28.75.62.27.41-.21.51-.49.2-.85-.11-.31-.44-.69-.41-1,.32-.26.39.5.6.69.16.4.35.71.69.26.43-.2.53-.46.18-.81-.1-.31-.59-.7-.43-1s.4.5.62.67c.19.39.38.74.72.26.29-.23.73-.46.23-.75-.13-.28-.81-.58-.43-.85.26.09.52.53.79.76.32.42.92.4,1.37.61l2.71.9c0-.4.63-.45.66-.79s-.11-.86.27-.3.6-.15.91-.26l2.1-1.41-2.52-1.35c.17-.38.62.2.91.25l1.82,1c.36-.28.88-.42,1-.91.07-.3.54-.74.34-1L322.11,428c.09-.51.57.09.86.14l2.9,1.49.85-1.6-3.79-2c.09-.51.57.09.86.15l3,1.59.78-1.35-3.86-2.06c.06-.55.56,0,.86.11l3.15,1.66c.13-.31.49-.68.48-1l-3.92-2.13c.08-.45.59.17.87.21l3.2,1.7c.35-.28-.11-.67.25-1,.09-.29-.58-.37-.79-.58l-2.59-1.41c.14-.45.61.16.91.22l2.6,1.41a7.19,7.19,0,0,0-.37-1.2l-2.82-1.57c.1-.55.54,0,.83.1l1.9,1.07a6.44,6.44,0,0,0-.3-1.2l-1.68-.89c0-.59.5,0,.8.05s.85.57.86.36c-.15-.35-.13-.83-.55-1a18.16,18.16,0,0,0-1.93-1.15l-5.89,10.74-8.55,2.16c-.4-.16-.48-.55-.54-.93l-.63-2.72a11.65,11.65,0,0,1,.87-1.29l7.67-2c.87-1.61,1.73-3.22,2.64-4.81.18-.33.44-.65.24-1-.21-.15-.7.15-1,.18-4.16,1.06-8.31,2.18-12.49,3.2-1.9.45-3.8.87-5.7,1.29,0,.34.44.85-.13.85s0,.64,0,1l2.65,10.75c.39-.15.74-.21.76.32.22.36-.23.65-.35,1s-.54.38-.89.48l-3.53.84a6.92,6.92,0,0,1-1-.66c-.1-.36-.32-.79.25-.76s0-.59.06-.9c-.94-3.81-1.79-7.65-2.81-11.44.08-.36.3-.61.07-1-.21-.91-.44-1.83-.64-2.74l3.4-.82c-.49-.93-.88-1.91-1.43-2.8-2.59-3.12-5.13-6.28-7.76-9.37a39.77,39.77,0,0,1-3.31-3.14c-.37-.23-.28-.62-.24-1a36,36,0,0,0,.13-4.27c.14-3.45.14-6.89.21-10.34-.3-1.19,1-1.61,1.68-2.31,4.88-4,9.78-7.89,14.66-11.85l2.48.21,7.66,9.64C318.54,384.33,322.89,382.66,327.46,382.65Z" transform="translate(5.68 -7.62)"/><path id="path4299" class="cls-2" d="M316.58,244.62c0,.25-.16,1-.31.48-.2-.08-.19-.63-.31-.9-.75-2.88-1.43-5.78-2.22-8.64a20.75,20.75,0,0,1-.68-2l-2-7.33c-.21-.09-.18-.67-.31-.94.19-.09.66.24,1,.18.57-.19.74-.84.91-1.35a13.35,13.35,0,0,0,.22-1.83,27.32,27.32,0,0,1,1.18-2.65c.26-.31.75-.33,1-.72.69-.82,1.23-1.84,2.26-2.29,1.43-.54,2.88-1,4.3-1.6a1,1,0,0,0,.46-1.06,18.84,18.84,0,0,0,2.33-.2c.57,0,1-.41,1.51-.58a2,2,0,0,1,1.52-.29c.39-.37,1-.25,1.38-.66.32-.23.88-.13,1.07-.54.65-.17,1.2-.62,1.84-.82a8,8,0,0,0,1.46.33,6.09,6.09,0,0,0,1.4-.44l9.44-.49c-.09-.4,0-.7.43-.71,1.21-.27,2.45-.38,3.65-.67,1-.08,2.06-.08,3.06-.21.5-.26.74-.8,1.24-1.06a21.05,21.05,0,0,1,2.33-1.05c.55-.16.92-.7,1.53-.69.37-.07.67-.36,1.06-.41s.54-.27.59-.69a7.93,7.93,0,0,1,1-2c.47-.57,1.29-.57,1.88-1a28.72,28.72,0,0,0,2.78-1.64,7.49,7.49,0,0,0,2.16-2.34,8.28,8.28,0,0,1,2-2,2.67,2.67,0,0,0,2.85-1.41c.22-.65.27-1.54,1-1.85a2.94,2.94,0,0,1,1.31-.58c.4-.1.82-.16,1-.54.36-.62,1-.56,1.68-.65.83,0,1.6-.9,2.35-.62a3.4,3.4,0,0,0,1.19.71,4.4,4.4,0,0,1,1.4.79,3,3,0,0,0,1.72.09c.54-.11,1.2,0,1.58-.47A8.35,8.35,0,0,0,385,190c.92.3,1.91.71,2.83.18a2.59,2.59,0,0,0,1-.36c.45-.17.92-.23,1.37-.39a10.48,10.48,0,0,1,1.37-.4c.56,0,.69-.71,1.22-.77a15.79,15.79,0,0,1,1.56,2.59,1.2,1.2,0,0,0,1,.37,3.42,3.42,0,0,0,1.16,0,9.89,9.89,0,0,0,.71,1.21l1.1,0a35.81,35.81,0,0,0,4.4,5.75c.59.64.35,1.5.28,2.26,0,.41.32.57.61.77a8.26,8.26,0,0,0,2.13.79,5.89,5.89,0,0,0,2,1.09c.38.64.42,1.71,1.17,2.2,1,.34.9,1.52,2,1.53a4.42,4.42,0,0,1,2.21,2.18,4.73,4.73,0,0,0,.15,2.06,1.85,1.85,0,0,0,.45,1.06c.32.21.33.69.51,1,.1.51.74.3,1.11.34a2.64,2.64,0,0,1,2.24.82,20,20,0,0,0,2.43,2.28c.43.25.45.79.81,1.11a3.09,3.09,0,0,0,2,.64,6.46,6.46,0,0,0,1.75-.54,4.72,4.72,0,0,0,1.75-.85,3.4,3.4,0,0,1,3.67.5,3.34,3.34,0,0,0,1.51.5,5.74,5.74,0,0,1,1.76.55,3,3,0,0,1,1.25,1.58c.17.48.29,1,.47,1.47.7.62,1.7.55,2.56.77l2.21.4c.11.36-.16,1.9-1,2.18-.41.11-.56.6-1,.55a42.92,42.92,0,0,1-4.62,1.17,7.31,7.31,0,0,1-2.37,0,2.17,2.17,0,0,1-.87-.65c-.41-.18-.53.39-.41.68a1.35,1.35,0,0,1,0,1.11c-.49.8-1.48,1-2.25,1.4-.51.36-1-.2-1.44-.41a5.72,5.72,0,0,1-1.74-1.26.41.41,0,0,0-.63.43,3.63,3.63,0,0,1,1,2.56,1.47,1.47,0,0,0,.32,1.06,1.85,1.85,0,0,1,.31,1.51c-.09.72-.84,1.15-1,1.84a1.61,1.61,0,0,1-.13,1.28c-.18.5-.7.82-.82,1.35a5.37,5.37,0,0,0-.71,1.69c-.32.79-.61,2.35.19,2.74.22,0,.91-.2.74.17a1,1,0,0,0,.12,1c.29,1.06.51,2.14.82,3.19.46.17.38.75.56,1.14a2.16,2.16,0,0,0,.75,1.16c.15.54-.32,1-.79,1.2s-.72-.4-1.07-.6a1.53,1.53,0,0,0-1.45-.35,3.14,3.14,0,0,0-1.9,1.33,7.27,7.27,0,0,0-1.19,5.42c.14,1.1.36,2.18.51,3.28-.42.09-.12-.76-.47-.73-.54.05-1.08.12-1.62.2.34.59,1,1.84.57,2.27q-.64.15-.69-.51c-.13-.45-.59,0-.89,0s-.87.16-.48.59l1.21,2.6c-.31.21-.68.32-1,.53-.72-.39-1.71,1.07-2.56,1.27-.55.58-.5-.92-1-.15-2,1.3-4.3,2.34-6,4.06-1.29,1.43-1.42,3.44-2.25,5.11.47,2.14.63,4.33,1,6.49a3.11,3.11,0,0,1-1.28-.39c-.23.21-.58.12-.88.21s-.62-.46-1-.4c-1.44-.19-2.89-.25-4.33-.38-.23.36.11.73.27,1.05a44.86,44.86,0,0,0,3.61,5c1.23,1.61,2.33,3.33,3.53,5a19.46,19.46,0,0,1,2.43,4.51c1.68,3.73,3.3,7.48,5,11.18a15.07,15.07,0,0,1-.42,2.37c-1.08,5.35-2,10.74-2.86,16.11.39.31.43.85.64,1.28l-.18,1.38c-1,.14-2.14-.41-3.11.06a36.31,36.31,0,0,0-6.68,5.65c-.57.5-1,1.29-1.58,1.67a5,5,0,0,1-1.88.21c-3.46,0-6.92-.19-10.39-.14q-13.47-.12-26.95-.07c0-4.75-.09-9.51,0-14.26.29-.62-.21-1.24-.05-1.87a48.36,48.36,0,0,1,1-5,15.59,15.59,0,0,0,.51-2.5l.72-3.11c.22-.32.65-.23.85-.57a1.39,1.39,0,0,0,.17-1A4.56,4.56,0,0,0,361,306a5.53,5.53,0,0,1-.8-1.84,17.89,17.89,0,0,1,0-2.63,14.16,14.16,0,0,1,.8-3.89c.28-.81.7-1.56,1-2.35a.66.66,0,0,0-1-.53c-1,.31-1.91.72-2.9,1-.76-.18-1.41-.75-2.22-.67-.51-.06-1.3.09-1.51-.52-.09-.46.11-1-.09-1.38.06-.93,0-1.86.07-2.79a19.67,19.67,0,0,0,.14-3.21c0-.39.14-.81-.22-1.09l-.85-1.12c.48-.6.19-1.42.2-2.12a4.13,4.13,0,0,1,.21-1.53c.3-.6,1-.71,1.57-1a7.9,7.9,0,0,0,3.05-1.27c.64-.48,1.24-1,1.84-1.53-.16-.52-.76-.71-1-1.2-.51-.71-1.06-1.39-1.55-2.11a11.19,11.19,0,0,1-.91-1.14c.11-.4.76-.09.95-.46.6-.65,1.28-1.23,1.82-1.92.12-.57-.49-.82-.8-1.19-.62-.55-1.17-1.2-1.84-1.7s-1.69-.46-2.46-.85c-1.23-.69-2.45-1.41-3.66-2.13a2,2,0,0,0-1.56-.23c-.59.06-1.18-.06-1.77,0-.39-.16-.38-.56-.34-.92.09-1.75.07-3.5.09-5.25-.17-.77-1-.88-1.64-1.16a7.17,7.17,0,0,0-1.58-.6c-.34-.07-.69-.31-1,0L341,257.7c-.68-1.55-1.4-3.08-2.08-4.64-.16-.38-.32-.87.07-1.17a.78.78,0,0,1,1-.33c.57.12,1.23.55,1.75.08.5-.27.58-.91.89-1.36a7,7,0,0,0,1.15-3.07,3.24,3.24,0,0,0-1.18-2.48,1.24,1.24,0,0,1-.09-1.53,18.2,18.2,0,0,0,1.21-1.38,2.58,2.58,0,0,0-.27-1.6c-.2-.3-.17-1.08-.69-.81-.31.77-.15,1.91-1.36,1.91a6.36,6.36,0,0,1-2,0,6,6,0,0,0-2.51,1.24c-.35.51-.05,1.2-.18,1.77a5.61,5.61,0,0,1-1,2.73c-.14-.25,0-.69,0-1s.14-.84-.16-1.18a2.58,2.58,0,0,0-1.48-1,5.14,5.14,0,0,1-.72-1c-.64-.45-1.64.09-2.18-.7-.56-.63-1.39-.9-2-1.47-.41-.23-.73.29-.8.62-.3,1.23-.54,2.49-.84,3.71a.75.75,0,0,1-1.08.18,11.56,11.56,0,0,0-2.11-.55c-.44-.27-.32-.82-.09-1.19a1.47,1.47,0,0,0,.14-1.49c-.09-.38-.21-.71-.65-.71-.68.39-2,1.09-2.3-.28-.18-.46.25-.85.24-1.29-.29-.56-1.18.07-1.43-.55-.12-.45-.61-.38-1-.43a1.3,1.3,0,0,0-1.16-.12c-.38.2-.32.58-.12.9a2.15,2.15,0,0,1,0,1.48c-.24.47-.81.4-1.25.43-.49.25-.29.92-.24,1.37A4.48,4.48,0,0,1,316.58,244.62Z" transform="translate(5.68 -7.62)"/><path id="path4301" class="cls-2" d="M342.36,240.93a3.19,3.19,0,0,1-2.19.43c-.31.17-.47.24-.61-.06a7.82,7.82,0,0,0-2.09.84c-.34.21-.77.44-.78.89a6.85,6.85,0,0,1-.5,3.23c-.15.2-.24,1-.53.78,0-.58.12-1.16.12-1.73a2.81,2.81,0,0,0-.72-.94,6,6,0,0,0-1-.47,3.15,3.15,0,0,1-.65-.9c-.21-.14-.41-.31-.68-.25s-.66.14-.92-.1c-.61-.32-1.09-.83-1.69-1.17a5.27,5.27,0,0,1-.93-.69c-.2-.09-.43-.1-.53.13a1.53,1.53,0,0,0-.4,1.11c-.13.76-.33,1.5-.53,2.23a8,8,0,0,1-.16.84.66.66,0,0,1-.85.29,7.23,7.23,0,0,0-1.64-.48,2.71,2.71,0,0,1-.77-.21.59.59,0,0,1-.21-.72c.12-.45.5-.83.46-1.32a3.94,3.94,0,0,0-.28-1c0-.27-.32-.23-.51-.31s-.4.17-.6.25a3,3,0,0,1-.87.34,1.44,1.44,0,0,1-.68-.53c-.12.11.31,1.06.87.81s1,.29.45.57c-.33.29-.73.53-1,.84s-.5.82-.69,1.25l-.27,1.21,1,1.49,2.23.67a4.72,4.72,0,0,1,.55,1.41c.38,1.25.79,2.51,1.15,3.76-.09,1.66-.13,3.32-.33,5l-.24,2.47-1.7,1-.43,4c.16.44.36.87.49,1.31-.07,1.39,0,2.79-.07,4.18s0,2.65-.09,4c0,.73,0,1.47,0,2.19,0,.24,0,.53.25.67,1,1.39,2,2.77,3.06,4.08a29.72,29.72,0,0,1,2.54,3.27c.57,1.08.06,2.29-.42,3.3a7.14,7.14,0,0,0-.74,1.72c-.44,1.77-.93,3.52-1.36,5.29a9.28,9.28,0,0,0-.33,2c0,1-.08,2.08-.12,3.11h-.92c0,.22,0,.53-.29.43-.28.07,0,.24.07.39s-.12.52,0,.61.06.35.11.52c.32.1.2-.27.24-.46s.42,0,.61,0c.13.15,0,.44,0,.65-.06.8-.06,1.61-.13,2.4a2.27,2.27,0,0,1-.58.94,2.16,2.16,0,0,0-1.1.89c-.56.91-1,1.89-1.56,2.8-.26.19-.48.46-.82.49a3.88,3.88,0,0,0-1.37.49c-.36.25-.77.47-1.1.74a16.29,16.29,0,0,0-.73,2.32c-.26,1-.61,2-.78,3a2.34,2.34,0,0,1-.5.94,5,5,0,0,1-1,1.05,3.62,3.62,0,0,0-.77.77c-.27,1.81-.59,3.61-.83,5.42-.13,1-.28,1.9-.37,2.86-.48,3.08-.51,6.3-1.78,9.2,0,.34-.72.85-.29,1l7.89,3.95c7.81.21,15.62,0,23.44,0l0,3.79c2.77,0,5.53,0,8.3,0,2.3,0,4.61,0,6.91,0,.1-6.47.17-12.94.11-19.4,0-2.07,0-4.13,0-6.2a1.45,1.45,0,0,0,.07-.88,2.28,2.28,0,0,1-.09-1.15c.52-3.56,1.62-7,2.25-10.52a.88.88,0,0,1,.6-.32,1,1,0,0,0,.42-.82c0-.23.08-.46-.17-.57A9.36,9.36,0,0,0,361,306a11.1,11.1,0,0,1-.64-1.24,3.65,3.65,0,0,1-.21-1.28,20.48,20.48,0,0,1,.5-4.88,18.07,18.07,0,0,1,.9-2.27,11.06,11.06,0,0,0,.47-1.07c-.06-.25-.19-.52-.48-.53s-.72.16-1.07.25c-.77.25-1.51.58-2.3.75-.58-.14-1.09-.49-1.67-.64a9.49,9.49,0,0,1-1.7-.16.69.69,0,0,1-.38-.8c0-.31.11-.65-.08-.92.08-.79-.05-1.59,0-2.38,0-1,.17-2,.23-3a6.28,6.28,0,0,1,0-1.42l-1.1-1.45a1,1,0,0,0,.26-.67,15.51,15.51,0,0,0-.08-1.75,10.64,10.64,0,0,1,.19-1.15,1.52,1.52,0,0,1,.93-.77,5.09,5.09,0,0,1,1.31-.51,10.84,10.84,0,0,0,1.86-.68,28.69,28.69,0,0,0,2.41-2,1.21,1.21,0,0,0-.49-.63,8.61,8.61,0,0,1-.92-1.16c-.34-.46-.71-.89-1-1.38l-1-1.23c0-.31.36-.27.57-.32s.44-.31.65-.47c.49-.52,1-1,1.48-1.55a.54.54,0,0,0-.1-.7c-.78-.74-1.55-1.5-2.34-2.22a8.76,8.76,0,0,0-1.59-.56,4,4,0,0,1-1.23-.49c-1.12-.64-2.25-1.28-3.36-2a2.25,2.25,0,0,0-1.35-.31c-.67.16-1.35,0-2,.07-.17-.09-.42-.22-.37-.46,0-1,.08-1.94.07-2.92s0-1.89,0-2.82a1.15,1.15,0,0,0-.78-.79,16.42,16.42,0,0,0-3.11-1.13L341,257.7c-.67-1.52-1.36-3-2-4.54-.09-.35-.36-.74-.11-1.08a1.4,1.4,0,0,1,.67-.59c.59,0,1.12.34,1.7.38a1.79,1.79,0,0,0,.83-.48,16.73,16.73,0,0,0,1.57-3.19,3.49,3.49,0,0,0-.79-3.34,1.32,1.32,0,0,1-.55-1c0-.24.17-.45.23-.68a18.14,18.14,0,0,0,1.21-1.38,2.21,2.21,0,0,0-.13-1.23l-.48-1.22c-.91-.16-.35,1.19-.78,1.56Z" transform="translate(5.68 -7.62)"/><path id="path4295" class="cls-5" d="M423.37,242c-.06.33-.23.69,0,1,.37,1.1.55,2.26.89,3.37.39.12.36.57.49.89a2,2,0,0,0,.63,1.21c.38.27.22.86-.12,1.09s-.76.57-1,.19a2.88,2.88,0,0,0-1.35-.87,3.24,3.24,0,0,0-1.77.58,5.89,5.89,0,0,0-1.62,2.49c-.87,2.28-.1,4.71.2,7-.34,0-.22-.5-.35-.72a14.33,14.33,0,0,0-1.74.19c.35.6.93,1.78.6,2.27-.3,0-.67.09-.66-.33s-.3-.5-.59-.29l-1,.34,1.38,3c-.31.21-.68.33-1,.53-.34-.5-1,.47-1.43.59s-1.22,1.09-1.6.62c-.22-.69-.82.22-1.23.31a30.93,30.93,0,0,0-5.23,3.5c-1.41,1.43-1.54,3.53-2.39,5.26.45,2,.61,4.14.92,6.22.19.46-.35.16-.6.16s-.55-.42-.75-.17c-.27,0-.51.09-.78.11s-.58-.44-1-.39c-1.46-.2-2.92-.26-4.39-.39-.22.29,0,.57.14.85.7,1.13,1.46,2.22,2.23,3.3a58.47,58.47,0,0,1,3.68,4.92c.85,1.25,1.65,2.54,2.52,3.76a9.09,9.09,0,0,1,.82,1.65c1.83,4.11,3.63,8.24,5.53,12.32l2.09,1.91,2.84-3c-.06-.42.39-.57.6-.85a11.58,11.58,0,0,1,2-1.8c.48-.59.68,0,.94.5,2.71,4.51,6.63,8.1,10,12.05l1,.14c1-3.16,1.8-6.4,2.92-9.52a4.12,4.12,0,0,1,1-1.4,9.67,9.67,0,0,1,2.45-1.66c.51-.34,1.2-.15,1.67-.57,8.9-5.1,17.37-10.91,26.34-15.89a3.61,3.61,0,0,1,1.14-1c3-1.82,5.94-3.62,8.89-5.46.88-.58,1.75-1.2,2.64-1.76a6.88,6.88,0,0,0,1.78-1c1.58-1,3.16-2,4.79-3a48,48,0,0,0,7.92-6.29c1.28-1.27,2.3-2.76,3.45-4.13a18.53,18.53,0,0,0,3.71-7.27c0-.59.38-.57.83-.53a5.88,5.88,0,0,1,1.15.5.9.9,0,0,0,.76.4c.25,0,.73.29.8,0a7.83,7.83,0,0,0,.3-1.57,13.78,13.78,0,0,1,1.31-2.91,17.27,17.27,0,0,1,1.55-2.35c1.71-2.16,3.58-4.2,5.38-6.28,3.87-4.39,7.82-8.7,11.7-13.08a15.48,15.48,0,0,1-1.25-1.08c-.13-.27-.38.5-.56-.05-.36-.4-.78-.76-1.11-1.18a8.62,8.62,0,0,1-.48-2.47,3.56,3.56,0,0,0-1.42-1.68c-.43-.32-1-.52-1.36-.88s-.54-.16-.79-.27-.62-.54-1-.74c-.54-.4-1.23-.53-1.76-1a7.3,7.3,0,0,1-1.34-1l-1.84-1.25-.53-2.06a10.89,10.89,0,0,0-1.85,1.82,5.13,5.13,0,0,0-1,1.37,9.77,9.77,0,0,0-.43,1.85c.06.32.4.37.68.39a2.48,2.48,0,0,0,1.39,0c.29,0,.61-.25.88-.15.43.14-.19.4-.39.44s-.52.38-.8.41-.45.14-.68.27a1.77,1.77,0,0,0-1.1.19c-.28.86-.52,1.74-.83,2.58-.19.34-.53-.07-.77-.16-.94-.56-1.91-1.07-2.83-1.63-.3-.1-.51-.37-.82-.46-.83-.45-1.61-1-2.47-1.37-2.27-.83-4.3-2.45-6.79-2.58l-3.46.42c-1.26-.58-2.69-.47-4-.7-.36-.26-.64.2-.95.27s-.76.19-1.13.16-.11-.78-.55-.77c-.28-.07-.36-.48-.67-.55s-.49-.32-.77-.37-.71,0-1-.23c-.77-.1-1.23-.84-1.95-1.09s-1.79-.35-2.43-1.07c-.25-.23.26-.57.36-.85l1.28-2-1-.67-2.41,3.65c.41.23.42.29,0,.13a4.27,4.27,0,0,1-1.34-.48c-.57.18-1.14.42-1.71.56-1.76-.24-3.52-.53-5.27-.84-1,.5-1.95,1.07-3,1.52l-3.85,1.32a23,23,0,0,0-.75,4,1.79,1.79,0,0,1-.55,1.23c-1.28,1.38-2.6,2.73-3.86,4.12l-1.58,3.5c-2,.37-3.91.79-5.86,1.13-.45,0-.77-.35-1.12-.59-.6-1.23-1.16-2.48-1.8-3.7-.89-1.2-1.82-2.37-2.68-3.59a4.8,4.8,0,0,0-1.26-1.75c-.19-.38-.52-.12-.51.22a2.25,2.25,0,0,1-.3,1.15c-.25.64-1,.87-1.46,1.25-.81.16-1.6.51-2.42.65a13.58,13.58,0,0,1-4.07.63,1.67,1.67,0,0,1-1.39-.5c-.12-.22-.52-.39-.62-.06-.18.5.3,1,0,1.52a2.51,2.51,0,0,1-1.5,1.15,10.48,10.48,0,0,1-1.16.5,7,7,0,0,1-1.5-.79,3.8,3.8,0,0,1-1.26-.94.41.41,0,0,0-.7.22c.29.59,1,1.2,1,2,.13.58-.05,1.27.38,1.74a1.53,1.53,0,0,1,.34,1.26c.07.81-.71,1.29-1,2-.08.34.18.73,0,1.07a4,4,0,0,1-.83,1.34c-.18.65-.69,1.16-.78,1.84a3.69,3.69,0,0,0-.21,2.52c.08.33.2.59.56.37A5,5,0,0,1,423.37,242Z" transform="translate(5.68 -7.62)"/><path id="path4287" class="cls-2" d="M462.77,402.37c.76-2,0-4.21.27-6.31s1-4.13,1.22-6.24c-.07-3.6.27-7.25-.49-10.79-.07-.83-.68-1.51-.85-2.26V374.6c1-2,2.51-3.63,3.19-5.73.31-1.12-.17-2.21-.39-3.3a2.4,2.4,0,0,1-.08-1c.42-.59.67-1.28,1.07-1.87-.2-.09,0-.47-.22-.68a5.2,5.2,0,0,1-.46-1.09,3.09,3.09,0,0,1-1.83-1c-.34-.29-.18-.78-.33-1.16a9.62,9.62,0,0,0-.78-2.15.34.34,0,0,1,.12-.63,1.72,1.72,0,0,1,1-.33c.57-.24,1-.73,1.68-.75a6,6,0,0,0,1.32-.29,1.91,1.91,0,0,0,1.07-.39,7.8,7.8,0,0,1,1-.59c-.9-3-1.33-6.07-2.14-9.07-.75-2.76-1.54-5.62-3.31-7.91a7.9,7.9,0,0,0-5.73-2.71,8.93,8.93,0,0,0-2.53.42c-1.56.72-3.17,1.35-4.73,2.09a7.52,7.52,0,0,0-1.52,1c0,.28.21.66-.18.76-1.89,1.2-3.81,2.37-5.68,3.59l-4.48,3.49a2.23,2.23,0,0,1-.87.35c-.18-.2-.31-.69-.6-.35-2.24,1.4-4.58,2.61-6.81,4-1.32.8-2.62,1.62-4,2.31-1.54.81-3.06,1.65-4.62,2.43l-6.31,3.65q-.07-1.88-.14-3.76c-2.11,0-4.21.1-6.32.1h-1.19c.13-6.29.15-12.58.14-18.86-3.17-.09-6.35-.18-9.51-.2a4.37,4.37,0,0,1-1.58.24c-3.62,0-7.24-.14-10.86-.15l-4.36,0c.21,3.94-.23,7.88,0,11.81-.14,7.81,0,15.62-.14,23.43a3.59,3.59,0,0,0-2,.65,1.33,1.33,0,0,1-.87.36l-3.79-1.93-1.06.74,2.48,2.94H378c.05.26.28.58.24.8a6,6,0,0,0,.39.89,1.91,1.91,0,0,0,.68.89l-11.95,12a3.52,3.52,0,0,0-1.15.88,43.73,43.73,0,0,1-3.17,3.14,10.85,10.85,0,0,1-1,.87c-4.72-.07-9.45-.12-14.17-.21v7.41q3.72,0,7.45.11c-.15,7.5-.24,15-.21,22.52,2.41,0,4.82.11,7.23.14l-.53,1a8,8,0,0,1,.57,1.2c.06,3.61,0,7.22,0,10.82l1.62,0,0-7.32,7.4-.05-.05,5.78-5.45-.07-.09,1.74,5.62.07,0,1.42c-3.17,0-6.34,0-9.51,0l-3.07-.09,0,1.81c1.66.11,3.31.27,5,.34,1.51-.12,3-.19,4.52-.33l6.43-1.75-.18-2.8c-.25,0-.72.21-.82,0l-.07-4.51c.19-.38.34-.82.81-.92a6.28,6.28,0,0,1,4.44-.21c1.74,1.05,4,1.13,5.43,2.77v2.38c.23-.07.71.1.78-.13,0-1.25,0-2.5,0-3.74,0-.26-.35-.73.13-.58.34,0,.61,0,.49.41l0,4c.65.12.76-.25.61-.87,0-1.22-.2-2.67.71-3.64s2.36-.8,3.56-1c3.35-.78,6.8-1.8,10.26-1.18a9.57,9.57,0,0,1,2.45.8,22.35,22.35,0,0,1,.07,2.74v2.68c.23,0,.76.22.64-.21l-.07-4.65h1a4.46,4.46,0,0,1,0,1.69,14.08,14.08,0,0,0-.15,2.94c-.12.29.64.4.46,0l0-2.13a1.91,1.91,0,0,0,.54-1,1.26,1.26,0,0,0,0-1,1.84,1.84,0,0,1,1.12-.68c3.63-1.05,7.55-1.88,11.3-1,.27.13.52.3.54.63s.43.56.33.93l0,2.07a.38.38,0,0,0,.67,0c0-1.15,0-2.31.06-3.45a1.53,1.53,0,0,0,.12-1c4.06-1.26,8.39-3.35,12.75-2.56a1.45,1.45,0,0,1,.8.64c.29.22.08.53,0,.81l-.57,2.34c.28.21.52.34.53-.13l.82-2.85c.23-.18.41-.52.75-.43h6.5c1,0-.29,5.58.75,5.45.15-.93-.32-3.56,1.09-3.59.78.08,7.43,3,8.21,3.05.75-.15.61,2.61,1.34,2.43.26-.11-.06-3.78.22-3.54l1.55,0c.65-.11-.1,3,.56,2.8.93-.15,6-.88,6.92-.84l2.13-1.87-1.43-2.32a16.07,16.07,0,0,0-1.08-3.56c-.1-3-.17-5.91-.29-8.86-.4-1.47-.85-2.93-1.23-4.4-.07-.39.45-.31.69-.39s.75,0,1-.27c.43-.64.05-1.41,0-2.1a8.34,8.34,0,0,1,.63-3.25Z" transform="translate(5.68 -7.62)"/><path id="path707" class="cls-2" d="M204.84,378.87c-3.45.17-6.88.18-10.34.13l-.14.71-.35.39-.25,1-.47,1.45c-1.57,1.39-2.8,3-4.52,4.06a10.05,10.05,0,0,1-2.45,1.3,4.09,4.09,0,0,1-1.88-.53c-.54,2-1,3.95-1.57,5.88a31.74,31.74,0,0,0-1.27,3.06,22.81,22.81,0,0,0-.71,2.58c.71,0,.15.76.15,1.18l-.79,3.43c-.45.24-.25,1-.42,1.4a45.69,45.69,0,0,0-.47,4.77,20,20,0,0,1-3.55-1l-1.41-.47.46-1.7-3.76-1.06-.21,1.6-2-.43a1.16,1.16,0,0,0-.74-1.17,12.17,12.17,0,0,1-3.33-.13,19.39,19.39,0,0,0-3.3-.33c.34-.58-.94-.36-.8-.83.35-.41-.81-.7-.9-.41l-1.42-.57c.2-.46-.7-.44-.18-1.09,0-.37.61-1.2.08-1.24l-3.9-.43-.57,1.74a16,16,0,0,1-3.71-1c-12-4.64-23.91-9.31-35.89-13.93-2.49-.94-5-1.8-7.49-2.78a26,26,0,0,0-3.8-1.53c-2.4-.91-4.87-1.64-7.25-2.6a10.15,10.15,0,0,0-2.89-1.06L91,378.79c3.24,15.79,2.1,30.29-3.12,45.6.41,2.2.76,4.41,1.2,6.6,1.5,3.21,2.94,6.45,4.49,9.64,2.36,4.19,4.74,8.36,7.23,12.48a69.78,69.78,0,0,0,4.14,5.93c1.31,1.69,2.56,3.44,3.91,5.1,5,4.54,10,9,15,13.59l15.53,18.14c2.14-.34,4.3-.61,6.42-1,4.45-2.48,8.87-5,13.34-7.47.57.09.56-1.15,1-.55l7.69,7.83,41-20.18,1.26,1.8-6.38-9.68.74-2.84a8.4,8.4,0,0,1-2.66-1.67c-1-.89-1.9-1.88-2.91-2.71l-4.42-1.22-6.7,2.55c-.25-.44-.42-1.08-1-.62l-31.9,11.37-2.52-6.2c2.62-.88,5.08-2.14,7.63-3.21l1.49-.65L159,454.2l5.5-2L171.7,459l24-19.36,1.17,1.31-1.67,1.31q.38.92,1,.14c.38-.23.83-.8,1.16-.82.13.43.87,1,.26,1.27l-1.15,1c.48.44.51.81-.12,1.09l-2.26,1.78c.33.39.93.81.21,1.12L191,450.73a12.4,12.4,0,0,0,3.57,1.22l20.65,3.1c.45-.46.38-1.22.6-1.81l.78-3.23c.54.36.89.27,1-.39.31-.69.42-1.48.76-2.14l2.42-2.11,1.6.39-4.25,19.43c.43,0,1.16.45,1.39.12L224.11,446l2.84.57c-.15,1.15-.64,2.28-.4,3.45l1.32,12.58-1.56.57c0,.69.79,0,1.2,0,7.33-2.42,14.7-4.76,22-7.33L255,454l-.53-9.86,5.11-1.91,3.79,11.28,6.63-2.34-2.39-8.31,12-3.23,2.67,8.7a22.17,22.17,0,0,0,3.11-1c1-.35,1.94-.67,2.91-1,.31-.43-.19-.94-.25-1.41-.24-.33-.14-1.35-.7-1-.63.47-.65-.31-.83-.75l-2.33-6.66c.4-.15,1.34-.12.66-.64-.38-.41.58-.65.79-1l10.57-8.65c.16.64.6.7,1.16.47s-.13-.91-.11-1.31a1.49,1.49,0,0,1,0-1.3c-.25-1.06-.51-2.11-.74-3.17l3.4-.82a30.81,30.81,0,0,0-1.47-2.83c-3.49-3.87-6.22-8.46-10.35-11.71-3-3.55-6.52-6.62-9.72-10q-10-10.07-20.11-20.11c-1.87-4.8-.72-10-1-15,.22-3.86-.16-7.74.27-11.59,3.56-3.27,7.19-6.47,10.74-9.75-1.33-.43-2.75-.15-4.12-.32a38.79,38.79,0,0,1-5.35-.44,30,30,0,0,1-6.55-1.66c-3-.95-5.92-2.07-8.84-3.22a29.91,29.91,0,0,0-6.73-2.64c-4.09-1-8.3-1.36-12.46-2-3.54-.47-7.11-.75-10.67-1.1l-1.56-1.77c-.33.52-.13,1.2-.16,1.78.2,1.12.55,2.22.64,3.34-.07.48,0,1-.35,1.27-.23.47-.12.95-.32,1.39s-.55,1-.32,1.58a23.52,23.52,0,0,1,.48,5.5,8.61,8.61,0,0,1,.15,1.79c.15.6-.09.88,0,1.25.37,1.19.3,2.46.83,3.6a2.23,2.23,0,0,1,.26,1.35c.32.25.1.9.2,1.33a18.13,18.13,0,0,0-.38,3.08,16.84,16.84,0,0,1-1.2,4.5c.29.37-.47.8-.53,1.25a33.49,33.49,0,0,1-2.17,4,10.81,10.81,0,0,1-2.24,4.81,14.2,14.2,0,0,0-2,4.69C204.82,374.52,204.85,376.72,204.84,378.87Z" transform="translate(5.68 -7.62)"/><path id="path4293" class="cls-6" d="M418.34,304.54c-.22.28-.66.44-.6.85l-2.84,3-2.09-1.91c-1.32,6.08-2.3,12.23-3.33,18.37.4.31.43.85.64,1.28l-.18,1.38c-.85.05-1.7-.12-2.54-.14a9.07,9.07,0,0,0-2.46,1.49,39,39,0,0,0-6.2,6c3.16.05,6.31.11,9.47.21,0,6.29,0,12.58-.14,18.86,2.3,0,4.6-.05,6.9-.11.27,0,.75-.15.63.29q.07,1.73.13,3.47c2.25-1.29,4.48-2.61,6.74-3.88,1.91-1,3.77-2,5.66-3,2.24-1.33,4.44-2.73,6.73-4,1-.54,1.91-1.12,2.86-1.7.19.21.29.65.64.43a7.36,7.36,0,0,0,1.78-1.21c1.21-.92,2.38-1.9,3.61-2.78l5.61-3.52c0-.28-.21-.65.17-.78A15.23,15.23,0,0,1,453,335.4c.95-.38,1.86-.86,2.82-1.21a7.37,7.37,0,0,1,3.72-.15,7.62,7.62,0,0,1,5,3.59c1.83,3.17,2.58,6.8,3.38,10.33.42,1.87.75,3.77,1.33,5.6a3.18,3.18,0,0,1,.76-.41c.71-.36,1-1.15,1.59-1.69.39-.41.75-.88,1.17-1.25.54-.14,1.13-.2,1.65-.38.29-.23,0-.59,0-.89l-.37-1.7,1.17-1.13c-.24-.24.19-.52.26-.78a32.45,32.45,0,0,1,2.12-3.13,8.1,8.1,0,0,1,1.17-1.41,19.42,19.42,0,0,0,2,.74c0,.36.42.34.66.48a8.53,8.53,0,0,1,2.12,1c.56.43,1.08.91,1.65,1.33.91.68,1.92,1.22,2.87,1.84.79-1.76,1.59-3.52,2.3-5.32.42-.24.53-.77.8-1.16.5-.86,1-1.76,1.48-2.59a1.61,1.61,0,0,0,.73-.7q2.92-4.52,5.87-9c.68-1.22,1.35-2.44,1.92-3.71a31.77,31.77,0,0,0,1.65-4.18,35.06,35.06,0,0,0,1.07-3.84A127.55,127.55,0,0,0,508,283.77a33.64,33.64,0,0,0-.12-3.95c-.14-1.1-.07-2.22-.11-3.34s-.06-2.15-.11-3.22c.24-.12,0-.56.09-.81-.07-3.39-.18-6.78-.18-10.17l0-1.46c-.18-.06-.18-.61,0-.67a14.82,14.82,0,0,1,.21-2.59c.56.1.19-1,.41-1.37a22.73,22.73,0,0,1,4.95-11.65c-.11-.3-.25-.65-.47-.21-1.29,1.48-2.62,2.91-3.87,4.42a24.11,24.11,0,0,0-2.32,3.25,11,11,0,0,0-1.12,2.17,5.33,5.33,0,0,0-.51,1.82c-.06.35-.17.69-.26,1a11.26,11.26,0,0,1-1.24-.25c-.33-.42-.87-.53-1.31-.78-.26.06-.69-.12-.85.09-.36,1.05-.65,2.13-1,3.17a18.36,18.36,0,0,1-1.58,2.89c-1,1.4-2.07,2.73-3.12,4.08a37.27,37.27,0,0,1-5.44,5.17,44.42,44.42,0,0,1-6,4c-1.39.87-2.77,1.78-4.18,2.63a5.6,5.6,0,0,0-1.66.95c-2,1.42-4.18,2.64-6.28,3.95-1.51.93-3,1.84-4.53,2.79a3,3,0,0,1-1.14,1c-8.93,5-17.35,10.8-26.24,15.84a3.52,3.52,0,0,0-1.47.45,10.18,10.18,0,0,0-2.47,1.75,6.8,6.8,0,0,0-.84,1.28c-1.07,3.11-1.89,6.3-2.87,9.43l-1-.14c-3.63-4.18-7.81-8-10.53-12.87a8.18,8.18,0,0,0-1.68,1.37Z" transform="translate(5.68 -7.62)"/></g><g id="layer19"><path id="path471" class="cls-7" d="M343.45,256.5,341,257.7,339.84,255l-.82-1.77-.21-.64,0-.28.14-.28.35-.39.25-.14.39,0,1,.28.35.07.35-.11.5-.35.28-.57c1.53-2.4,2.26-4.38,0-6.49l-.11-.6.25-.57L343.6,242l.14-.21,0-.67-.07-.32-.43-1.56-1,.71-.74,1.31-3,.28-1.7,1-.67,2.38-.57,1.63-.28.18v-1.56l-.07-.21-.07-.07-.07-.11-.74-.53-.14-.11-.18-.11c-.82-.32-.89-1.16-1.49-1.28l-.14-.07-.71,0-.11,0h-.11c-.34-.08-.71-.64-1-.85l-.21-.18-.25-.14-.25-.11-.35-.25L329,241l-.11-.11-.14-.07-.14-.11h-.07a2.61,2.61,0,0,0-.21.89L328.1,243l-.14.5-.43,1.6-.11.32-.28.11-.21,0-2.09-.71-.35-.11-.21-.11-.07-.11,0-.25,0-.11,0-.28.18-.35.21-.64-.11-.64-.21-.21-.07-.43-.6-.18-.64.43-.67.21-.46-.25-.25-.28c0,.26-.08.52.49.74.46,0,.95.06,1.1.28l-.1.26-.43.35-.71.53-.71,1.35-.28,1.17c.73,1.08.93,1.53,2.23,1.88l.39.07.21.14.07.11.92,2.38,1,2.34-.07,4-.21,3.76-1.88,1.1-.39,4,.5,1.28,0,.57-.07,6.67,0,.46,0,.89,0,1.6.07.64c1.66,2.37,3.43,4.57,5.28,6.81l.64,1,.11.6v.39l-.39,1.6-.28.6-.57,1.1-.39,1.52c-.86,3.1-1.77,6.18-1.56,9.43h-.92l0,.43h-.35v.21h.11v0l0,.07v.67l.21,0,0,.5h.21l0-.53.64.07,3.47.07h.21l1.49.11.18-1.88,1.17-8.33,2.87.53,3.23.64.89-4.79,1.1.85,2.09-1.17,1.38-1.6.39-1.38.67-1,1.06-1-1-.92-.07-.57v-.57l.14-.53-1.52.74-3.47.07-1.21-.14-5.21-.57-.25-.18c3-4.35,2.9-2.52,8.33-1.77l3-1.91-1.7-2.06-1.17-.18-1.21-.67.07-2.38,1.21-2.48,2.73-2.09,1.81-.71.53-.67v-1l-.53-.64h.18l0-.32.07-1.77,0-3.83-.11-.28-.21-.28A13.38,13.38,0,0,0,343.45,256.5Z" transform="translate(5.68 -7.62)"/><path id="path469" class="cls-7" d="M346.61,283.51l-1-.92-.07-.57v-.57l.14-.53-1.52.74-3.47.07-1.21-.14-5.21-.57-.25-.18c3-4.35,2.9-2.52,8.33-1.77l3-1.91-1.7-2.06-1.17-.18-1.21-.67.07-2.38,1.21-2.48,2.73-2.09,1.81-.71.53-.67v-1l-.53-.64h.18l.32.25.5,0,1.13,0,.6-.11.43,0,.78.32,1.1.67L354.8,267l2.09.64.32.18,2.41,2.3.07.18v.32l-.18.25-1.45,1.52-.07,0-.28.28-.64.11-.14.11v.14l1.21,1.52,1.1,1.45.43.6.57.5.14.32-.82.71-.78.64-.82.6-1.1.46-1.38.39-1.17.57-.28.25-.18.32-.18,1.06.11,1.6-.07.57-.21.32,1.1,1.45-.85-.28-.6-.21-.57-.28-1.17-1-1.06-.74-.35-.18-.46-.07-.11.18,0,.21.07.21.46,1.06,0,.32-.11.43-.43.35-.32,0-.25-.14-.35-.25-.71-1.1-.53-.78Z" transform="translate(5.68 -7.62)"/><path id="path607" class="cls-8" d="M308.81,188.35l-.32-.39-1.31-1.77-2-1.52-1.17-1.21-1.17-1.88-.32-.32-.18-.25-3.16-1.45-.6,0-1.21-.39-.28-.18V177.6l-.11-.35-.28-.25-.07-.32h0l0-.39-.18-.53.25-.57.28-1.28,0-.43v-.43l.21-.92.11-.21v-.21L297,171l-.32-.64-.28-.53-.25-.74-.46-.89-.14-.21-.25-.18-.53-.32.18-.18.11-.35.82-1.81,1.84-1.13.11-.14v-.21l.07-.28,0-.25-.35-1.1-.35-1.06-.28-.57,0-.57-.11-.5-.32-.85.11-1.13.07-.11,0-.35-.92-1.17-.89-.64-.21.07-.28-.14-.6-.32-.53-.28-.39.14-.6,0c-1.41.44-2.76,1-4.18,1.38l-.82,0-.74.07h-.39l-.28,0-.6.28-.25,0-.53.14-.39-.07-.39.11-1,.6-.35.21-.6-.28-.57-.32-.67-.18-.43.18-.35-.21,0,0c-.52-.41-.57,0-1.06.14l0,0-1.49,0c-.47-1.51-.13-1.69-.82-3.37l-1.49.46-.43,0-.14.07-.25.07-1.52,0c-.63-.77-.16-1.79,0-2.52l0-.18-.46-.71-.25-.64-.18-.21-.78-.82-.78-.67-.07-.18,0-.28.21-.39v-.46l-1-4.33,0-.5.11-.25.35-.21.39-.11.78,0,.21-.07.14-.11,0-.11c.11-1.66-1.5-1.17-2.41-2.41l.11-.35.6-.92.28-.21.78-.25.11,0,.18-.14c.51-1,.15-1.59-.82-2s-1-.12-1.81.21l-.53-.07-.35.18-.43.46-.46.74-.21.11-.25-.11-.5-.35-.35-.71-.18-.53,0-.46.21-.28c.77-.44,1.42-.8,1.67-1.74l-.07-.5-.25-.35-.28-.39-2.06-2.59-.35-.67c-.51-1.92.26-2.79-.64-4.18l-1.42-1.31-.28-.43-.07-.67.25-1,.18-.25.46-.39,2.13-1.17,1.52-2.91-.07-.64-1-.35-2-1-.92-.64.14-.89,5.11-3-2.13-.46-2.27-.14-4.11,1.67-1.49,1.31-2,3.33-.39.85-.74,3-.11.78-.46,1.21-.25.53-.53,1.7-.07.39.25,1.28.35.74.14,2.09.21.67.14.5.28,1,.07.5-.07.57-.07.53v.32l0,.5.07,1.52,0,0-3-1.38-.74-.32-.39-.14-4.29-1.06-.43.35-1,.53-1.21.82-.32.39-.18.07-.39.07-.21,0-1.31,1.13-1,.82c.69,1,1.63,3.09,2.59,3.86l1.31.53.25.21.21.35.43.57,1.31.89a9,9,0,0,1,2,2.34c.21.7.88,2,1.21,2.69a6.08,6.08,0,0,0,1.31,2,4.8,4.8,0,0,0,.82.89l.11.14.14.14,0,.14-.18.21-.5-.21-.53-.32-.39.46-.11.07-.18.11-.43.32-.18.14-.28.18-.18.11c-.52.31-.58.82-1.13.89a14.59,14.59,0,0,1-2.91-1.17l-.28-.18-.35-.21-.25-.14-.21-.14-.18-.11-.14-.07h-.25l-.11,0-.57-.64-.57-.32-.14-.11-.18-.18-.57-.5-.21-.25-.14-.21a6.17,6.17,0,0,1-1.24-1.91l-.14-.32-.07-.14-.14-.07-.18-.07-.39-.25-.46,0-.53,1.7v1.63l.35,2,.14.43.11.82,0,.35-.14.21-.46.21c-5.12,3.93-1.35,2.09-3.72,5.85l1.7,1.52-.18.5-.14.21L234,160l-.46.32.11.85-.07.35-.6,1.13-.39.39-.21.39V164l-.11.28-.07.11-.25.57,0,.71,0,.6-.21.85-.39.64-.18.18-.39.28-.53.28-.43,0-.46-.07-.25-.07-.53-.39-1.24-1.31-.11-.18-.89.46-1.21,1-.11.41-7.13,1.12.39,2.77c-2.08-.05-1.52-.76-3.65.5a3,3,0,0,0-2.48-3.62c-4.41-1.36-3.88,1.18-6.81-2.77-3.8,1.28-3.81,1.76-5.42,5.32l-.21.14-.6.18-.71.07-.53-.11-.57-.46-1.17-1-.78-.5-.57-.5-.92-.07-1,1.56a30.1,30.1,0,0,1-1.13,9.61l.53,2.06,1.6.85.18,1.35v1.45l-.14,1c3.16.3,3.75,2.76,5.21,5.07l.35.25.39.14.78-.11.6.25.46.11h.5l1.77-.18,1.35-.07,1.17-.07,1-.35.5-.35.46-.28,1.45-1.7.25-.11,1,.18.35,0,.35-.14.46.07.35.14,2.3.53.71.11.67.07.18-.43.6-.18,1.88-.25,3.72-.11h.78l.71-.07c1.37,0,2.38,0,3.33,1.13,1.82,2,.26,2.92,1.24,4.82.82,3,3,5.13,4.5,7.73,3,1.75,3.74,4.89,5.92,7.48l1.52.85,1.42.14.89-.14,1.1-.43.57-.14.39.07.39.14c2.07,1.67,1.86,4.78,3.44,6.74l-.67,1.63-.35,1.56-.07.32-.07.18-.11.14-.85,1-.25.35-.07.53-.18.57-.82,1-1.21,1.24-.35.64-.11.32-.07.32.5.85.39.78.18.6.14.6.25.53-.07.32-.35.89-.71,1.28-.53.57-.67.5-.64.39-1.28.5-.92.28-.78.46-1,.82-.78.46-.78.35c.29.14.19.37.53.5.57.4.95,1.7,1.24,2.27l1.1.53,1.42-.35,1.35-.67.18-.89.32-.21.82.5.92-.11.92-.46.5-.85.6,0,1.1,1.28,1,.46,1-.07,1.42-1.17.25-.64.46-.43,1.13,0,1.6-.67,2.62.21,2.52-1.56.25-1-.53-.39-2.16-.18-.78-.71.07-1.63-.82-.35-1,.35-.89-.57-.64-.64-2.48-.21-.11-1.52,1-.89,1-.67v-1l-.64-.64-.35-1.74.64-.67h.64l1.21-.43.57-.71.64-1,.82.18h1l.78-.82.74.71.25,1.52.82.64,1.13-.07.82,1.77h1.45l.57-.39,0-3.62.35-.78,1,.32.89-.43.6.35.32,2.2,1.56,1.06,1-.74,1.42-1.67,1.13-.18,1,.74.39.6-.53.64-.35.85.67,1.35.53.07,2.62-1.88,1.38-.07.35.35-1.28,2.52,0,1.35.46.82,1.67-.25.6.6-.43,1.24.25,1.52.67.53,1-.07.71-1.06,1.06-.11,1,.85.82-.11,1.31-.74h1.67l.28.89-.39,1,.25,1.06,1,.85,1.42.82.53,1.35-1.38,1.56-.25.82.53,1.35.35-.14,1.24-1.06.21-.21.14-.43.14-.71.11-.39.53-.67.43-1.13.64-1.17.5-.35,1.42.57.74,1.42.35.14.67-.78.32-1.1.78-.78.5-.39.28.18.5,1.31.32.11,1-.39.28-.25,2-.28.18.25-.35.53-.32.18-.57.67v.71l.28.5-.46.53-.35.46-.11.5-.43.57-.53.64.07.32.6.07,1.21.07.11.32-.39.43-.18.32-.11.43-.57.53-1.38.78-.6.53,0,1,.39.89.43.46,1.7.43.74.5.64.46.35-.07.11-.32,0-.6.92-1.7.74-.28,1.24-.39.43-.28.53.25,1.13.43,1.24-.57.89-.5.74.14.5.5.57,1.28,1.21,1.13.57.14,1.21-.6,1-.5-.07-.25-.07,0-1.35-5.32-.92-3.62-.21-.71-.18-.53-.21-.46-2.3-8.3-.07,0-.18-.74-.07-.28.71.21.21,0,.11,0,.35-.21.32-.57.18-.5.18-1c-.14-1.31.68-2.05,1.13-3.4l.18-.25.32-.18.25-.11.28-.28,1.13-1.45.5-.5.67-.39,3.69-1.35.6-.25.25-.21.18-.25.07-.28,0-.32a6.93,6.93,0,0,1-2.59-1.77l-.28-.43-.53-1.56-.85-2.3-.11-.14-.14-.32-.25-.28-.46-.35-.21-.21-.5-1.1,0-.18V205l-.14-.28-.43-1.56v-.74l.28-.85.53-1.06.11-.32.07-.14.14-.53v-.25l0-.21-.07-.14c-1-1.11-1-2.72-1.63-4l-.82-.32-.14-.11-.21-1.28-.07-.11-.14-.18-.35-.18h-.18l-.53.11-.28-.07" transform="translate(5.68 -7.62)"/><path id="path3515" class="cls-8" d="M223.89,154.77l-.18,4.08-2.87.28-1.31,0L211.27,161l-3.86-1.52,1.35-.67,1.35-1.74,1-1.74.6-.46,3-.71,4.75,1.21,2.8-.46,1.7-.64Z" transform="translate(5.68 -7.62)"/><path id="path3509" class="cls-8" d="M241.55,90.63l-1,.78-1,1L239,93.46l-.39.64,0,.32.11.28.57.43.92.53,3.51,1.49-3.44,5.21-.46.28,1.35,1.35.78.71.82.67,1.56,2,4,5-6.2,3.86-.39.18-.6.39-.18.28-.35.43-1.52.6-1.1.57-1.1.25-1.24.5-.57.28-.43.64-.5,1-.92,1.49,3,5.46L232.62,137l-10,7.34-5.28-2.73-.71-.35-.74-.25-.78-.18-.64-.53-3-3.16-1.91-.64-1.6,3.94-2.59,1.84-4.22,2.52-5-2.16-7.34-3.3.28,1.6.11.78,0,.64-.07.57-.18.53-.25.5,0,.64-6.81-1,3.19-14.5,1.84,0,1.49-.18,2-.57,1.84-.35,2-.53.74-.57,1.91-1.56,1.21-.89.78-.5.28-.25.21-.32.35-1.1.5-.74.53-1.31,1.42-1.77.32-.82.28-.46.28-.25.46-.32.25-.11.25-.18.43-.57.28-.67.14-1,0-1-.11-.74-.21-.53-.46-.85-.18-.74,0-.25.14-.28.28-.32-1-.67.35-.89.25-1,.14-.85,0-.64-.07-.21-.32-.32,0-.18V104l.18-1h1.35l.85,0,1,.25.85.57,1.17.57,1.13.53,3.94,1.45.89.25,1.17.14.71.18.46.07.5-.18.57-.28,1.13-1.24,1.13-1,.64-.43,2.41-1.28.35-.25.74-.74,1.1-1.24,9.82-12.2L239.1,85l3.62,3.4.6.46.11.11v.21l-.14.14-.43.21Z" transform="translate(5.68 -7.62)"/><path id="path513" class="cls-7" d="M261.76,301.46l-5.25-2.55-3.23-1.6-3.94-2-1.45-.71c-.82-.88-4.54-1.6-5.53-2.09.66-1.6,1.45-2.59,1.06-4.47-.31-2.36-2.27-4-2-5.81a7,7,0,0,0,6.6-4.22c1-3-.59-4-1.52-6.6l-.53-3.23-.14-.85-.5-3.65-1.31-.21-2.06.25-1-.07-1.88-.35-1.13-.67-.21-.21-.28-.39v-1.45l.89-1.74.18-1,.28-.28.11-.21,0-.11v-.25l0-.21v-.32l0-.11v-.11l.11-.25,0,0v0l0,0h.18a6.41,6.41,0,0,1,.5-1.17l.28-.57.11-.14.07,0h.14l.14-.5-.11-.6,0-.25v0l0-.07v-.11l0-.11.21-.43.18-1.6v-.07l0-.07-.07-.11-.07-.21-.07-.14v-.11c-.15-.73,0-.32.07-.89l0,0,.07-.11,0,0,0-.07v-.11l0-.14v0l0,0v-.07l.07-.14v-.11l0-.14v-.07l0,0v-.18l-.07-.25v0l0-.07c-.1-.25,0-.05,0-.35l0-.07,0-.14v-.11l0-.07v-.07l0-.07,0,0v-.07l-.07-.21v-.07l-.07-.11-.11-.14-.11-.11v0l0,0v-.07l0,0c.12-.18.17-.29,0-.5v0l0-.07,0-.14v-.07l-.07-.18,0,0v-.07l-.07-.07h0l0,0V244l0,0v-.14l0-.07v-.07l.07-.11v-.21a7,7,0,0,1-1.35-2.48l1.1.53,1.42-.35,1.35-.67.18-.89.32-.21.82.5.92-.11.92-.46.5-.85.6,0,1.1,1.28,1,.46,1-.07,1.42-1.17.25-.64.46-.43,1.13,0,1.6-.67,2.62.21,2.52-1.56.25-1-.53-.39-2.16-.18-.78-.71.07-1.63-.82-.35-1,.35-.89-.57-.64-.64-2.48-.21-.11-1.52,1-.89,1-.67v-1l-.64-.64-.35-1.74.64-.67h.64l1.21-.43.57-.71.64-1,.82.18h1l.78-.82.74.71.25,1.52.82.64,1.13-.07.82,1.77h1.45l.57-.39,0-3.62.35-.78,1,.32.89-.43.6.35.32,2.2,1.56,1.06,1-.74,1.42-1.67,1.13-.18,1,.74.39.6-.53.64-.35.85.67,1.35.53.07,2.62-1.88,1.38-.07.35.35-1.28,2.52,0,1.35.46.82,1.67-.25.6.6-.43,1.24.25,1.52.67.53,1-.07.71-1.06,1.06-.11,1,.85.82-.11,1.31-.74h1.67l.28.89-.39,1,.25,1.06,1,.85,1.42.82.53,1.35-1.38,1.56-.25.82.53,1.35-.85,3.47.14,2.09-.11.43-.28.39v.43l-.21.43,0,.35,0,.43.07.46v.46l0,.32v.25l-.07.21-2.16,1.88L284.88,254l-.57,1.31-.18.67-2.8.6-1,4.18-1.81,2.41-1,2.23-.18,2.3v.11l-.14,2-.74,1.17-1,1.17-.5,1-1.17-.14-4.68-.71-.32,4.5-.14,2,.21,5.35,1.21,2.13,1.31,1.31-3.33-.18-3.33-.28-2,.85.35.92-.07.74,0,3.12v2.8l0,5.71V302l-.43-.14-.85-.39" transform="translate(5.68 -7.62)"/><path id="path517" class="cls-8" d="M285,294.22l-4.18.67-1.31.71-1.49.82-.35,1.63-1,4.15-.18.78-.25,1.56-1.74,3.4-2.27,4.54-.6,2.84-2.2-3.4-5.6-8.4-1.24-1.67.43.14v-.74l0-5.71v-2.8l0-3.12.07-.74-.35-.92,2-.85,3.33.28,3.33.18-1.31-1.31L269,284.12l-.21-5.35.14-2,.32-4.5,4.68.71,1.17.14,8.86,1.35,6,.89Q287.4,284.79,285,294.22Z" transform="translate(5.68 -7.62)"/><path id="path679" class="cls-8" d="M310.3,361.31,310.2,373h-3.9l-18.79,0,0-13.72v-19l-.14-1.67-6.2-9.11,2.66-1.6,2.8-1.35.74.57.78,0,.46-.71c7.31,3.65,14.65,7.24,21.95,10.92C310.4,345.34,310.41,353.33,310.3,361.31Z" transform="translate(5.68 -7.62)"/><path id="path4361" class="cls-7" d="M204.75,498.69l.42.87.71-.5,4-2.8,6.67-4.75L220,489l4-2.84,20.64-14.64,1-.78,1.31-.53,1.31-.57.67-.18.82-.53,1-.57,9.79-3.3.43-.32,27.51-9.4,2.73.64,2.87,1.17,4.15.18,5.11-2.41.89,3.22-26.1,13.06,38.38-16-.93-.76-1.63.53-2.3-3.68.87-.84,7.27-4.72,4.89-2.48L329,441l2.69-1.13,1.74-.57,3.69-1.56,2.13-.82.28.71,6.06-2.13,8.51-2.91,3.33-.53,3.16.6.07,2.38,1.74.35v-8.23l0-2.69-.57-1.1.57-1c-4.47-.06-8.93-.28-13.4-.07L339.8,420l-6.81-1.7-5.39-1.67-.35.07-.21-.21L325.37,415l.14,3.37,1.28.74,1,.64.28.89-1.6-.85-.14.32L328,421l.28,1.17-2.59-1.45-.14.28,2.87,1.6.28,1.17-3.4-1.84-.07.21L328.7,424l-.25.43.07.35-.18.28-4-2.13-.11.21,4,2.16-.53.92-3.86-2.06-.14.28,3.86,2.06-.74,1.35-3.79-2-.11.21,3.76,2-.85,1.63-3.62-1.88-.14.25,3.62,1.88-.67,1.24-.78.57-2.66-1.38-.07.18L324,431.9l-2.8,1.84-.53-.53.07.78-.53.39-.14.28-3.86-1.28-1-1-.21.21.89,1-.89.74L314.2,433l-.25.18.85,1.35-.85.64-.74-1.35-.21.14.71,1.42-.85.67-.57-1.42-.25.11.6,1.49-.89.67-.46-1.42-.28.11.5,1.49-.85.67-.39-1.63-.28.07.46,1.77,0,.25,1,1.24,4.86-3.79,1.81.57.82,1.91-2.06.85.11.18,2.27-1,.32.57-.71.25-5.11,3.94-2.16-2.77L309.1,442l1,1.13-.6.5,1.28,1.67-1.1.82-3.62-4.79-1.21.92.64.82-4.79,3.55.85,1.13-1,.71.25.28,5-3.83.57.74-5,3.79.5.57.74-.57.35.53.39-.28-.43-.64-.18-.28h.14l1.28-1,.25.35,3.19-2.38,1.28,1.7-4.4,3.33-.46-.6-.07.11,0,0-.07,0-.07-.11-.07-.07-.43.32.11.14.25-.21.5.67-3.58,2.59L295,454.84l-6.28-3.58-11.2,3.83L251.76,464l-.21-.64-.18.14-.65.44c-4,1.44-8.08,2.84-12.13,4.27-.38.2-.62-.34-.93-.5l-1.12.73c0,.3.23.7.31,1L226,477.06l.78,1.6-10.17,7.05,1.35,3.53c-1.37,1-2.74,2-4,3l-1.13-1.53c-.17-.6-.57.32-.78,0-.44-.35-.12-.57.25-.79l-.71-1,1-.69c.41-.19.63-.41.18-.73l-3.23,2.13c-.48-.07-.36.51-.14.74l-.29,5.22Z" transform="translate(5.68 -7.62)"/><path id="path3445" class="cls-7" d="M304.7,422.58l-2.55.57.21.74-.57.18,2.87,11.63.6-.14.25.71-.64,1.06-.21,0-4,1-1-.6-.18-.71.67-.18-2.48-10.28-.53-2v-.21l.21-.21-.14-.6-.6-2.55,0-.18,3.4-.82-1.31-2.66-3-3.65-.71-.89-3.9-4.68-.21-.25-.67-.64-1.88-1.63-1.1-1.24.07-.82.11-.74v-3l0-1.56.07-2.2.07-2.62,0-1.1.11-4.18c5.42-4.42,10.88-8.78,16.31-13.19l2.48.21,7.66,9.64-.85,2.55-1.1,3.23-.85,2.48-.35,1-1,5.11-.14.89-1.1,5.71-.64,3.33,0,.71-2.94,6.42-1.28,2.8Z" transform="translate(5.68 -7.62)"/><path id="path3443" class="cls-8" d="M325.51,418.32l-5.89,10.74-8.55,2.16-.39-.28-.78-3.37.82-1.28,7.73-2,1.88-3.47.39-.64.71-1.31-.11-.5-12.48,3.23-2.13.5-2,.46-.89-3.58,1.28-2.8,2.94-6.42,0-.71.64-3.33,1.1-5.71.14-.89c.4-4.87,2.77-9.66,4.15-14.36l5.53-1,3.65-.67,1.56-.28.46-.07C325,394.53,325.15,406.55,325.51,418.32Z" transform="translate(5.68 -7.62)"/><path id="path743" class="cls-7" d="M355,422.22l-6.13.07L339.8,420l-6.81-1.7-5.39-1.67-.35.07-.21-.21L325.37,415c-.17-10.71-.42-21.49-.14-32.2l2.23-.11,3.94,4.11,5.07,0,2.84.92,3.4,1.13,1.28-.07h3.86l0,3.47v7.41l3.76,0,3.69.07C355.11,407.2,355,414.73,355,422.22Z" transform="translate(5.68 -7.62)"/><path id="path681" class="cls-8" d="M325.23,382.76l-.46.07-1.56.28-3.65.67-5.53,1-7.66-9.64L306.3,373h3.9c.12-11.89.2-23.78.32-35.67l10.07,5c7.71.21,15.71,0,23.44,0l0,3.79,4,0h3.62L351.57,358l0,15.07-3.65,0h-2.23l-.46,1.17-1.13.71,0,2.41v3.86l0,3.72v3.79l-1.28.07-3.4-1.13-2.84-.92-5.07,0-3.94-4.11Z" transform="translate(5.68 -7.62)"/><path id="path515" class="cls-7" d="M286.58,326.63l-.11-1.1-2.66-1.35-1.6-.85-6.1-3.16L274,319l-.89-1.6-1.42-2.13.6-2.84,2.27-4.54,1.74-3.4.25-1.56.18-.78,1-4.15.35-1.63,1.49-.82,1.31-.71c6.18-1.21,12-1.47,18.15-2.16l4.72.43,1.52.32,1.6.28.39.14,1.21,3.62.07,2.34.5,1.77.85,1.88.5,1.1.28,2,.92,6.06,1.28.82,1.91,2.55.28.89,1,3-.28,1.84-.25,1.49-.6,4.25,0,.5c-.54,3.31-.55,7.44-2.3,10.35-8-4-16-7.94-23.93-11.91l-.46.71-.78,0Z" transform="translate(5.68 -7.62)"/><path id="path611" class="cls-7" d="M326.4,302.48l0,.18-.07,1.17-.07,1.67-.25.57-.32.39-.6.32-.35.32-.35.57-1.35,2.48-.53.43-1.35.35-1.42.92-.25.57-.25.89-.89,3.16-.14.74-.25.64-.82,1-.78.64-.43.46-1-3-.28-.89-1.91-2.55-1.28-.82-.92-6.06-.28-2-.5-1.1-.85-1.88-.5-1.77-.07-2.34-1.21-3.62-.28-3.08-.07-.71c2-4.46,3.91-9,5.89-13.44l.74-.18.74-1.45,1.45.53.32.14,2.48-1.06,1.21-1.49,2.59-4.08,1.45-1.35-.14,8,0,1.6.07.64.11.18.07,0c1.68,2.66,4.06,5,5.74,7.55l.11.6v.39l-.39,1.6-.28.6-.57,1.1-.39,1.52c-.86,3.1-1.77,6.18-1.56,9.43h-.92l0,.43h-.35v.21h.11v0l0,.07v.67l.21,0,0,.5h.21l0-.53Z" transform="translate(5.68 -7.62)"/><path id="path463" class="cls-8" d="M340.41,342.44c-6.5,0-13.35.16-19.82,0l-8.08-4,1-2.13.39-1.56.57-3.58V331c.44-3.73,1-7.39,1.56-11.1l.43-.46.78-.64.82-1,.25-.64.14-.74.89-3.16.25-.89.25-.57,1.42-.92,1.35-.35.53-.43,1.35-2.48.35-.57.35-.32.6-.32.32-.39.25-.57.07-1.67.07-1.17,0-.18,3.47.07h.21l1.49.11.28,0,3.72,1.28,3.58,1.21-.35,2.09,3.94.67,2.87.53,2.55.46,1.84.43-.46,2.62-1.17,6.84-2.2,11.91-5.53-.28-.25,9.5Z" transform="translate(5.68 -7.62)"/><path id="path467" class="cls-8" d="M350,309.36l-1.84-.43-2.55-.46-2.87-.53-3.94-.67.35-2.09L335.58,304l-3.72-1.28-.28,0,.18-1.88,1.17-8.33,2.87.53,3.23.64.89-4.79,1.1.85,2.09-1.17,1.38-1.6.39-1.38.67-1,1.06-1,.71.64.53.78.71,1.1.35.25.25.14.32,0,.43-.35.11-.43,0-.32-.46-1.06-.07-.21,0-.21.11-.18.46.07.35.18,1.06.74,1.17,1,.57.28.6.21.85.28,0,.82.07.67-.18,1.88-.11,1.77,0,1.17,0,.5.11.21,0,1,0,.21.18.25.21.11.35.07,1.35.07.32.11.78.35.53.18.46-.11,2.55-.89.25,0,.35.11.14.18.11.32-.89,1.91-.53,1.49-.25,1.38-.18,1.45,0,1.31V304l.25,1,.6,1.1.6.14.82.28.21.18-.07.71-.14.25-.25.25-.32.07-.28.25-.74,3.23-4.43-.82L353,310Z" transform="translate(5.68 -7.62)"/><path id="path465" class="cls-7" d="M351.64,346.27H348l-4,0,0-3.79h-3.62V340l.25-9.5,5.53.28,2.2-11.91,1.17-6.84.46-2.62,2.94.6,3.44.6,4.43.82-.14,1.06-.35,1.38-.85,3.69-.21,1.6.21,1-.14.6,0,2.52c0,7.71,0,15.33-.11,23H355.4l-3.69,0Z" transform="translate(5.68 -7.62)"/><path id="path683" class="cls-7" d="M379.41,371.09l-.43.11c-9-4.61-18.3-8.74-27.41-13.19l.07-11.74h.07l3.69,0h3.79l0-3.86.07-3.72,0-3.83c7.52,0,15,0,22.55,0,.22,3.78-.24,7.86,0,11.63-.14,7.85,0,15.76-.14,23.61l-.92.14-.57.18Z" transform="translate(5.68 -7.62)"/><path id="path4304" class="cls-7" d="M287.5,373.08c-10,0-19.9,0-29.85,0-1-4.09-.09-8.41-.35-12.59.24-3.87-.16-7.88.28-11.77a143.16,143.16,0,0,1,23.54-19.18l6.2,9.11.14,1.67v19Z" transform="translate(5.68 -7.62)"/><path id="path4308" class="cls-8" d="M287.57,388.11l-.11,4.18,0,1.1-.07,2.62-.07,2.2,0,1.56v3l-.11.74-.07.82c-3.8-4.1-7.87-8-11.84-11.91-5.52-5.81-11.42-11.31-17-17.09l-.64-2.23c16.22,0,32.43-.06,48.65-.07l.07,2.09-2.48-.21C298.46,379.33,293,383.69,287.57,388.11Z" transform="translate(5.68 -7.62)"/><path id="path685" class="cls-7" d="M378.24,376.55l1-1a1.91,1.91,0,0,1-.68-.89,6,6,0,0,1-.39-.89c0-.22-.19-.54-.24-.8h-1.38L374.09,370l1-.74c-7.81-3.84-15.75-7.43-23.56-11.25l0,15.07-3.65,0h-2.23l-.46,1.17-1.13.71,0,2.41v3.86l0,3.72v3.79h3.86l0,3.47,3.79.07,10.42.14,2.09-1.88,2.48-2.59.71-.43Z" transform="translate(5.68 -7.62)"/><path id="path4184" class="cls-8" d="M321.47,240.58l0,.38.17.48c-.07,1.1,1.15.54,1.59,1-.2.66-1.15.81-1.41,1.46a5,5,0,0,0-.82,2.21,12.6,12.6,0,0,0,1.11,1.51,11.89,11.89,0,0,1,1.74.62l2,4.74-.09,4.08-.21,3.76-1.88,1.1-.39,4,.5,1.28,0,.57-1.45,1.35-1.49,2.3-1.1,1.77-1.21,1.49L316,275.71l-.32-.14L314.2,275l-.74,1.45-.74.18c-2,4.47-3.88,9-5.89,13.44l.07.71.28,3.08-.39-.14-1.6-.28-1.52-.32-4.72-.43c-4.64.66-9.35.66-14,1.49q2.4-9.43,4.93-18.83l-6-.89-8.86-1.35.5-1,1-1.17.74-1.17.14-2v-.11l.18-2.3,1-2.23,1.81-2.41,1-4.18,2.8-.6.18-.67.57-1.31,1.06-1.67,2.16-1.88.07-.21V250l0-.32v-.46l-.07-.46,0-.43,0-.35.21-.43v-.43l.28-.39.11-.43-.14-2.09.85-3.47.35-.14,1.24-1.06.21-.21.14-.43.14-.71.11-.39.53-.67.43-1.13.64-1.17.5-.35,1.42.57.74,1.42.35.14.67-.78.32-1.1.78-.78.5-.39.28.18.5,1.31.32.11,1-.39.28-.25,2-.28.18.25-.35.53-.32.18-.57.67v.71l.28.5-.46.53-.35.46-.11.5-.43.57-.53.64.07.32.6.07,1.21.07.11.32-.39.43-.18.32-.11.43-.57.53-1.38.78-.6.53,0,1,.39.89.43.46,1.7.43.74.5.64.46.35-.07.11-.32,0-.6.92-1.7.74-.28,1.24-.39.43-.28.53.25,1.13.43,1.24-.57.89-.5.74.14.5.5.57,1.28,1.21,1.13.57.14,1.21-.6,1-.5.18-.07.07-.64.11-1-.18-1.21v-.5l.11-.25.14-.14.18,0h.53l.28-.11.21-.14.14-.21.11-.85-.11-.46-.18-.39-.07-.32.35-.35.5-.07.67.25.57,0,.25.18.18.35.28.14h.78l.18.11.11.14V240Z" transform="translate(5.68 -7.62)"/></g><text class="cls-9" transform="translate(11.5 24.02)">Los barrios con menos paro de larga duracin </text><text class="cls-10" transform="translate(11.5 48.49)">Los diez con un menor porcentaje de poblacin en el paro</text><path class="cls-11" d="M415.72,357.58l22-12.55,11.63-7.09-.18-1.24s11.06-6.18,14.62-.14a122.58,122.58,0,0,1,5.45,17" transform="translate(5.68 -7.62)"/><path class="cls-11" d="M398.73,334.86l6-7.5,3.47.09,4-22.3,2.73,3.26,5.85-6,10.53,12.87,3.58-8.19s2.76-4,4.15-4.4,40.35-24.54,40.35-24.54,22.69-12,21-21.7c4.26.42,4.65-3.48,8.72-8.08" transform="translate(5.68 -7.62)"/><text class="cls-12" transform="translate(446.74 247.74)">Nou<tspan x="-5.44" y="16.8">Barris</tspan></text><text class="cls-12" transform="translate(460.5 298.96)">Sant<tspan x="-8.17" y="16.8">Andreu</tspan></text><text class="cls-12" transform="translate(380.86 405.7)">Sant Mart</text><text class="cls-12" transform="translate(145.78 421.73)">Sants - Montjuc</text><text class="cls-12" transform="translate(363.55 227.54)">Horta - <tspan x="-7.4" y="16.8">Guinard</tspan></text><text class="cls-12" transform="translate(212.64 277.24)">Les <tspan x="-5.44" y="16.8">Corts</tspan></text><text class="cls-13" transform="translate(277.48 82.23)">Sarri - Sant Gervasi</text><text class="cls-13" transform="translate(336.75 447.56)">Ciutat <tspan class="cls-14" x="46.66" y="0">V</tspan><tspan x="55.84" y="0">ella</tspan></text><text class="cls-13" transform="translate(12.58 306.62)">Eixample</text><text class="cls-13" transform="translate(476.98 359.33)">Grcia</text><text class="cls-15" transform="translate(286.8 100.23)"><tspan class="cls-16">V</tspan><tspan x="8.89" y="0">allvidrera,</tspan><tspan class="cls-17" x="73.92" y="0"> </tspan><tspan class="cls-18" x="77.81" y="0">T</tspan><tspan x="86.42" y="0">ibidabo i Les Planes</tspan><tspan x="0" y="18">Les</tspan><tspan class="cls-17" x="24.18" y="18"> </tspan><tspan class="cls-18" x="28.08" y="18">T</tspan><tspan x="36.69" y="18">res</tspan><tspan class="cls-17" x="57.52" y="18"> </tspan><tspan class="cls-19" x="61.42" y="18">T</tspan><tspan x="68.92" y="18">orres</tspan><tspan x="0" y="36">Sant Gervasi - La Bonanova</tspan></text><text class="cls-15" transform="translate(346.08 466.56)">El Barri Gtic</text><text class="cls-15" transform="translate(15.5 323.8)">Antiga Esquerra de lEixample<tspan x="0" y="18">Sant</tspan><tspan class="cls-14" x="30.86" y="18"> </tspan><tspan x="34.2" y="18">Antoni</tspan><tspan x="0" y="36">La Dreta de lEixample</tspan></text><text class="cls-15" transform="translate(484.09 376.81)">La <tspan class="cls-17" x="20.85" y="0">V</tspan><tspan x="30.59" y="0">ila de Grcia</tspan><tspan x="0" y="18">La Salut</tspan></text><line class="cls-20" x1="282.41" y1="86.49" x2="282.41" y2="137.54"/><line class="cls-20" x1="303.67" y1="301.75" x2="82.51" y2="301.75"/><line class="cls-20" x1="471.52" y1="354.17" x2="339.67" y2="354.17"/><line class="cls-20" x1="341.51" y1="452.82" x2="341.51" y2="473.16"/><path class="cls-1" d="M344,342.44" transform="translate(5.68 -7.62)"/><polyline class="cls-21" points="349.7 334.83 326.26 334.79 295.59 319.51"/><polyline class="cls-21" points="292.83 396.74 293.25 380.5 309.56 367.31 312.05 367.52 319.7 377.16 333.14 375.04 337.08 379.15 342.15 379.11 348.39 381.17 351.85 381.1 353.49 384.57"/><line class="cls-20" x1="339.67" y1="353.69" x2="339.67" y2="311.09"/><line class="cls-20" x1="303.81" y1="344.26" x2="303.81" y2="301.66"/><text class="cls-22" transform="translate(15.5 531.84)">Fuente:<tspan class="cls-14" x="50.87" y="0"> </tspan><tspan x="54.21" y="0">Ajuntament de Barcelona</tspan></text><polygon class="cls-23" points="500.52 512.39 628.52 512.39 628.52 531.84 500.52 531.84 500.52 512.39 500.52 512.39"/><path class="cls-24" d="M597.52,524.35h-4.9V525l1.29.31v9a1.07,1.07,0,0,1-.9.46,1.92,1.92,0,0,1-1.59-1.17l-1.22-2.19a2.54,2.54,0,0,0-2.24-1.51v-.15A3,3,0,0,0,591,527c0-1.89-1.71-2.62-3.69-2.62h-4.45V525l1.45.31v9.18h0l-1.67.32L578.5,523.4a5.24,5.24,0,0,1-1.5,1.29l.16.46-3.81,9.32-1.15.31v.61h3.48v-.61l-1.13-.29,1.29-3.39h3.53l1.24,3.37-1.33.32v.61h8.45v-.61l-1.39-.3V530.2a2.09,2.09,0,0,1,1.88,1.39l1.67,3A2.71,2.71,0,0,0,592.3,536a2.39,2.39,0,0,0,1.59-.65h3.78a5.68,5.68,0,0,0,5.82-5.52c0-3.21-2.49-5.52-5.93-5.52Zm-21.41,5.86,1.49-3.92,1.43,3.92Zm10.92-.83h-.75v-4.11h.94a1.86,1.86,0,0,1,1.93,2,2.14,2.14,0,0,1-2.09,2.15Zm10.38,5.09h-1.57v-9.2h1.61c2.5,0,4,1.73,4,4.6s-1.6,4.6-4.08,4.6Z" transform="translate(5.68 -7.62)"/><path class="cls-24" d="M517,534.47l-4.08-11.08a5.23,5.23,0,0,1-1.5,1.29l.16.46-3.78,9.32-.81.31-.24.61h3.37v-.61l-1.13-.29,1.29-3.39h3.53l1.24,3.37-1.33.32v.61h4.54v-.61l-1.21-.3Zm-6.47-4.25,1.5-3.92,1.43,3.92Z" transform="translate(5.68 -7.62)"/><polygon class="cls-24" points="512.98 524.97 512.57 524.74 510.19 526.91 508.16 526.91 508.16 517.66 509.38 517.35 509.38 516.73 504.99 516.73 504.99 517.35 506.22 517.66 506.22 526.83 504.99 527.15 504.99 527.76 511.89 527.76 512.98 524.97 512.98 524.97"/><polygon class="cls-24" points="532.15 516.73 532.15 517.35 533.48 517.66 530.59 525.04 527.56 517.65 528.99 517.35 528.99 516.73 524.09 516.73 524.09 517.35 525.49 517.65 529.85 528.14 530.31 528.14 534.65 517.67 534.69 517.67 536.05 517.35 536.05 516.73 532.15 516.73 532.15 516.73"/><path class="cls-24" d="M570,524.35V525l1.32.31s.1,5.47,0,6.85a2.78,2.78,0,0,1-2.84,2.72h-.14a2.74,2.74,0,0,1-3-2.83v-6.73l1.28-.29v-.61h-4.43V525l1.26.3v6.78a4.07,4.07,0,0,0,4.38,3.86c2.42,0,4.3-1.39,4.38-3.86l.08-6.77,1.29-.31v-.61Z" transform="translate(5.68 -7.62)"/><path class="cls-24" d="M617.89,534.44l-4.06-11a5.23,5.23,0,0,1-1.5,1.29l.16.46-3.79,9.36-.65.26-.88-.28v-9.22l1.35-.31v-.61H603.9V525l1.34.31v9.18l-1.28.3v.61h7v-.61l-1.13-.3,1.29-3.39h3.53l1.24,3.37-1.33.32v.61h4.55v-.61l-1.22-.32Zm-6.46-4.23,1.5-3.92,1.43,3.92Z" transform="translate(5.68 -7.62)"/><path class="cls-24" d="M546.27,524.35V525l1.35.31.08,7.21-6.92-8.15h-2.95V525l1.34.29.11.06-.1,9.13h0l-1.39.32-4.17-11.37a5.24,5.24,0,0,1-1.45,1.29l.16.46-3.81,9.32-1.15.31v.61h3.48v-.61l-1.13-.29,1.29-3.39h3.53l1.24,3.37-1.33.32v.61h7.26v-.61l-1.39-.31-.16-8,7.9,9.29h.52l.1-10.49L550,525v-.61Zm-15,5.86,1.5-3.92,1.43,3.92Z" transform="translate(5.68 -7.62)"/><path class="cls-24" d="M557.91,529.74v.61l1.25.31v3.55a4.13,4.13,0,0,1-2.49.83c-2.5,0-4.11-2.09-4.11-5s1.57-5.26,4.17-5.26a3.93,3.93,0,0,1,3.69,3l.35-.21v-3.48l-.32-.17-.7.85a7,7,0,0,0-3.05-.78,6.18,6.18,0,0,0-6.19,6.08,5.61,5.61,0,0,0,5.32,5.88h.4a5.7,5.7,0,0,0,3.55-1.18l1,.65h.31v-4.74l1-.4v-.51Z" transform="translate(5.68 -7.62)"/></svg>