<svg id="094e63b1-9330-43b4-bc32-fcacbd26fe7a" data-name="Capa 1" xmlns="http://www.w3.org/2000/svg" viewBox="0 0 589.28 514.36"><defs><style>.\35 b31ba81-d67d-4d3f-bd6e-490cc392d505,.d59f17d0-479c-4582-b493-b88be9c665b6{fill:none;}.\35 b31ba81-d67d-4d3f-bd6e-490cc392d505{stroke:#e5e5e5;}.d59f17d0-479c-4582-b493-b88be9c665b6{stroke:#323232;}.\31 f17148a-6c52-4216-beda-e34d4a70378b,.\34 93dc209-b2be-41d2-83b4-b2d79b595e5e,.e21fabed-2916-43ec-acaf-70592e2c8d9c{font-size:13px;}.\32 0bb68d4-0da2-4c4a-b832-0800a7b7c4d1,.\34 93dc209-b2be-41d2-83b4-b2d79b595e5e{fill:#323232;}.\34 93dc209-b2be-41d2-83b4-b2d79b595e5e{font-family:Arial-ItalicMT, Arial;font-style:italic;}.ac33ecc3-87a6-483b-b610-036755faa7e4{font-size:12px;}.\31 f17148a-6c52-4216-beda-e34d4a70378b,.\32 2a64e49-16be-46e3-a560-254c9b5e1328,.\33 6d7dc99-39e2-4537-8824-de110d77f153,.\37 41d6e70-ff8d-4863-a12d-528e0a12d758,.\37 a834501-3f37-4696-aba6-dd076b13794f,.ac33ecc3-87a6-483b-b610-036755faa7e4,.d809ede3-daa5-4a90-9853-441e4688bef0,.e21fabed-2916-43ec-acaf-70592e2c8d9c{fill:#757575;}.\33 6d7dc99-39e2-4537-8824-de110d77f153,.\37 a834501-3f37-4696-aba6-dd076b13794f,.ac33ecc3-87a6-483b-b610-036755faa7e4,.bbe4bb34-9953-4dab-95f5-18809b1dbb1f,.d809ede3-daa5-4a90-9853-441e4688bef0,.e21fabed-2916-43ec-acaf-70592e2c8d9c,.f4809d31-5c22-45c6-b971-b4044288f783{font-family:ArialMT, Arial;}.\33 6d7dc99-39e2-4537-8824-de110d77f153,.\37 41d6e70-ff8d-4863-a12d-528e0a12d758{font-size:14px;}.\31 f17148a-6c52-4216-beda-e34d4a70378b,.\32 0bb68d4-0da2-4c4a-b832-0800a7b7c4d1,.\37 41d6e70-ff8d-4863-a12d-528e0a12d758{font-family:Arial-BoldMT, Arial;}.\32 0bb68d4-0da2-4c4a-b832-0800a7b7c4d1,.\34 4e3bb15-479f-4b81-b0f5-be347a3c7b23{font-weight:700;}.bbe4bb34-9953-4dab-95f5-18809b1dbb1f{letter-spacing:0em;}.d809ede3-daa5-4a90-9853-441e4688bef0{font-size:11px;}.\32 0bb68d4-0da2-4c4a-b832-0800a7b7c4d1{font-size:26px;}.\39 9cdeffb-eb0a-4ab1-bcd1-e6fce32268e5{fill:#283659;}.b67081fb-0441-473a-a6c3-c66bba344e4f{fill:#fff;}.c8053933-40fe-47c2-af54-83f9b23f1b17{opacity:0.87;}.\33 9d6ece9-999f-4616-b66f-6c1fb2fd2164{fill:#a01f51;}.\32 2a64e49-16be-46e3-a560-254c9b5e1328{opacity:0.16;}.\37 a834501-3f37-4696-aba6-dd076b13794f{font-size:10px;}.\39 c5ce1c2-b503-48e7-90ab-e15d6683baca{letter-spacing:-0.07em;}</style></defs><title>2017.11_TrasladoSedesCatalunya</title><path class="5b31ba81-d67d-4d3f-bd6e-490cc392d505" d="M537.34,418.16" transform="translate(-1.72 -5.31)"/><line class="5b31ba81-d67d-4d3f-bd6e-490cc392d505" x1="1.28" y1="385.76" x2="535.63" y2="385.76"/><path class="5b31ba81-d67d-4d3f-bd6e-490cc392d505" d="M537.34,364" transform="translate(-1.72 -5.31)"/><line class="5b31ba81-d67d-4d3f-bd6e-490cc392d505" x1="1.28" y1="331.58" x2="535.63" y2="331.58"/><path class="5b31ba81-d67d-4d3f-bd6e-490cc392d505" d="M537.34,309.8" transform="translate(-1.72 -5.31)"/><line class="5b31ba81-d67d-4d3f-bd6e-490cc392d505" x1="1.28" y1="277.4" x2="535.63" y2="277.4"/><path class="5b31ba81-d67d-4d3f-bd6e-490cc392d505" d="M537.34,255.62" transform="translate(-1.72 -5.31)"/><line class="5b31ba81-d67d-4d3f-bd6e-490cc392d505" x1="1.28" y1="223.22" x2="535.63" y2="223.22"/><path class="5b31ba81-d67d-4d3f-bd6e-490cc392d505" d="M537.34,201.45" transform="translate(-1.72 -5.31)"/><line class="5b31ba81-d67d-4d3f-bd6e-490cc392d505" x1="1.28" y1="169.05" x2="535.63" y2="169.05"/><path class="5b31ba81-d67d-4d3f-bd6e-490cc392d505" d="M537.34,147.27" transform="translate(-1.72 -5.31)"/><line class="5b31ba81-d67d-4d3f-bd6e-490cc392d505" x1="1.28" y1="114.87" x2="535.63" y2="114.87"/><path class="5b31ba81-d67d-4d3f-bd6e-490cc392d505" d="M537.34,93.09" transform="translate(-1.72 -5.31)"/><line class="5b31ba81-d67d-4d3f-bd6e-490cc392d505" x1="1.28" y1="60.69" x2="535.63" y2="60.69"/><line class="d59f17d0-479c-4582-b493-b88be9c665b6" x1="1.28" y1="442.48" x2="571.28" y2="442.48"/><text class="493dc209-b2be-41d2-83b4-b2d79b595e5e" transform="translate(362.07 484.71) scale(0.99 1)">Noviembre 2017</text><text class="493dc209-b2be-41d2-83b4-b2d79b595e5e" transform="translate(45.32 485.46) scale(0.99 1)">Octubre 2017</text><text class="ac33ecc3-87a6-483b-b610-036755faa7e4" transform="translate(4.07 510.46) scale(0.99 1)">Fuente: Colegio de Registradores de España</text><text class="741d6e70-ff8d-4863-a12d-528e0a12d758" transform="translate(270.54 72.46) scale(0.99 1)"><tspan class="44e3bb15-479f-4b81-b0f5-be347a3c7b23">19 OCTUBRE </tspan><tspan class="f4809d31-5c22-45c6-b971-b4044288f783" x="92.57" y="0">- 268 empresas</tspan><tspan class="f4809d31-5c22-45c6-b971-b4044288f783"><tspan x="0" y="16.8">Puigdemont plantea una DUI si se aplica el 155</tspan></tspan></text><text class="1f17148a-6c52-4216-beda-e34d4a70378b" transform="translate(256.54 183.46) scale(0.99 1)"><tspan class="44e3bb15-479f-4b81-b0f5-be347a3c7b23">27 OCTUBRE</tspan><tspan class="bbe4bb34-9953-4dab-95f5-18809b1dbb1f" x="82.35" y="0" xml:space="preserve"> - 140 empresas</tspan><tspan class="f4809d31-5c22-45c6-b971-b4044288f783"><tspan x="0" y="15.6">El Parlament declara la independencia</tspan><tspan x="0" y="31.2">y el Senado aprueba aplicar el 155</tspan></tspan></text><text class="741d6e70-ff8d-4863-a12d-528e0a12d758" transform="translate(126.61 56.46) scale(0.99 1)"><tspan class="44e3bb15-479f-4b81-b0f5-be347a3c7b23">10 OCTUBRE</tspan><tspan class="f4809d31-5c22-45c6-b971-b4044288f783" x="88.68" y="0"> </tspan><tspan class="f4809d31-5c22-45c6-b971-b4044288f783"><tspan x="-46.73" y="16.8">Puigdemont declara y </tspan><tspan x="-77.9" y="33.6">suspende la independencia</tspan></tspan></text><text class="36d7dc99-39e2-4537-8824-de110d77f153" transform="translate(410.54 46.46) scale(0.99 1)">Festivo o fin de semana</text><text class="741d6e70-ff8d-4863-a12d-528e0a12d758" transform="translate(45.54 112.46) scale(0.99 1)"><tspan class="44e3bb15-479f-4b81-b0f5-be347a3c7b23">6 OCTUBRE </tspan><tspan class="f4809d31-5c22-45c6-b971-b4044288f783"><tspan x="0" y="16.8">Se aprueba el decreto que </tspan><tspan x="0" y="33.6">facilita el cambio de sedes</tspan></tspan></text><text class="ac33ecc3-87a6-483b-b610-036755faa7e4" transform="translate(59.54 409.46) scale(0.99 1)">1-O</text><text class="741d6e70-ff8d-4863-a12d-528e0a12d758" transform="translate(373.54 245.46) scale(0.99 1)"><tspan class="44e3bb15-479f-4b81-b0f5-be347a3c7b23">28 OCTUBRE </tspan><tspan class="f4809d31-5c22-45c6-b971-b4044288f783"><tspan x="0" y="16.8">Entra en vigor el artículo 155.</tspan><tspan x="0" y="33.6">El Gobierno cesa al Govern</tspan></tspan></text><text class="e21fabed-2916-43ec-acaf-70592e2c8d9c" transform="translate(3.18 382.46) scale(0.99 1)">40</text><text class="e21fabed-2916-43ec-acaf-70592e2c8d9c" transform="translate(3.18 327.46) scale(0.99 1)">80</text><text class="e21fabed-2916-43ec-acaf-70592e2c8d9c" transform="translate(0 273.46) scale(0.99 1)">120</text><text class="e21fabed-2916-43ec-acaf-70592e2c8d9c" transform="translate(0 219.46) scale(0.99 1)">160</text><text class="e21fabed-2916-43ec-acaf-70592e2c8d9c" transform="translate(1 164.46) scale(0.99 1)">200</text><text class="e21fabed-2916-43ec-acaf-70592e2c8d9c" transform="translate(1 111.46) scale(0.99 1)">240</text><text class="e21fabed-2916-43ec-acaf-70592e2c8d9c" transform="translate(1 56.46) scale(0.99 1)">280</text><text class="d809ede3-daa5-4a90-9853-441e4688bef0" transform="translate(52.46 455.46) scale(0.99 1)">1</text><text class="d809ede3-daa5-4a90-9853-441e4688bef0" transform="translate(363.46 455.46) scale(0.99 1)">1</text><line class="d59f17d0-479c-4582-b493-b88be9c665b6" x1="263.78" y1="72.19" x2="228.28" y2="72.19"/><line class="d59f17d0-479c-4582-b493-b88be9c665b6" x1="314.78" y1="219.19" x2="314.78" y2="248.19"/><line class="d59f17d0-479c-4582-b493-b88be9c665b6" x1="222.78" y1="197.19" x2="135.28" y2="197.19"/><line class="d59f17d0-479c-4582-b493-b88be9c665b6" x1="56.78" y1="400.19" x2="56.78" y2="440.69"/><line class="d59f17d0-479c-4582-b493-b88be9c665b6" x1="367.28" y1="243.19" x2="327.28" y2="243.19"/><line class="d59f17d0-479c-4582-b493-b88be9c665b6" x1="97.78" y1="146.19" x2="97.78" y2="434.69"/><text class="20bb68d4-0da2-4c4a-b832-0800a7b7c4d1" transform="translate(19.26 22.31)">El traslado de sedes de empresas tras el 1-O</text><polygon class="99cdeffb-eb0a-4ab1-bcd1-e6fce32268e5" points="465.47 497.69 565.5 497.69 565.5 512.89 465.47 512.89 465.47 497.69 465.47 497.69"/><path class="b67081fb-0441-473a-a6c3-c66bba344e4f" d="M547.43,506.4H543.6v.48l1,.24v7.07a.84.84,0,0,1-.71.36,1.5,1.5,0,0,1-1.25-.91l-1-1.71a2,2,0,0,0-1.75-1.18v-.12a2.34,2.34,0,0,0,2.42-2.17c0-1.47-1.34-2-2.89-2H536v.48l1.14.24v7.17h0l-1.3.25-3.26-8.88a4.09,4.09,0,0,1-1.17,1l.13.36-3,7.29-.9.24V515h2.72v-.48l-.89-.23,1-2.65h2.76l1,2.63-1,.25V515h6.6v-.48l-1.09-.23V511a1.63,1.63,0,0,1,1.47,1.09l1.3,2.33a2.11,2.11,0,0,0,1.89,1.15,1.87,1.87,0,0,0,1.24-.51h3a4.44,4.44,0,0,0,4.55-4.31,4.32,4.32,0,0,0-4.63-4.31ZM530.69,511l1.16-3.06L533,511Zm8.54-.65h-.59v-3.21h.73a1.45,1.45,0,0,1,1.51,1.54,1.67,1.67,0,0,1-1.63,1.68Zm8.11,4h-1.23v-7.19h1.26c2,0,3.16,1.35,3.16,3.59s-1.25,3.59-3.19,3.59Z" transform="translate(-1.72 -5.31)"/><path class="b67081fb-0441-473a-a6c3-c66bba344e4f" d="M484.52,514.3l-3.19-8.66a4.09,4.09,0,0,1-1.17,1l.13.36-3,7.28-.64.24-.19.48h2.63v-.48l-.89-.23,1-2.65H482l1,2.63-1,.25V515h3.54v-.48l-.95-.23ZM479.46,511l1.17-3.06,1.12,3.06Z" transform="translate(-1.72 -5.31)"/><polygon class="b67081fb-0441-473a-a6c3-c66bba344e4f" points="475.21 507.52 474.89 507.34 473.03 509.04 471.44 509.04 471.44 501.81 472.39 501.57 472.39 501.08 468.96 501.08 468.96 501.57 469.93 501.81 469.93 508.98 468.96 509.23 468.96 509.7 474.36 509.7 475.21 507.52 475.21 507.52"/><polygon class="b67081fb-0441-473a-a6c3-c66bba344e4f" points="490.19 501.08 490.19 501.57 491.23 501.81 488.97 507.58 486.6 501.8 487.72 501.57 487.72 501.08 483.89 501.08 483.89 501.57 484.99 501.81 488.39 510 488.75 510 492.15 501.82 492.17 501.82 493.23 501.57 493.23 501.08 490.19 501.08 490.19 501.08"/><path class="b67081fb-0441-473a-a6c3-c66bba344e4f" d="M525.89,506.4v.48l1,.24s.08,4.27,0,5.35a2.17,2.17,0,0,1-2.22,2.13h-.11a2.14,2.14,0,0,1-2.32-2.21v-5.26l1-.23v-.48h-3.46v.48l1,.23v5.3a3.18,3.18,0,0,0,3.43,3,3.11,3.11,0,0,0,3.43-3l.07-5.29,1-.24v-.48Z" transform="translate(-1.72 -5.31)"/><path class="b67081fb-0441-473a-a6c3-c66bba344e4f" d="M563.34,514.29l-3.17-8.63a4.09,4.09,0,0,1-1.17,1l.13.36-3,7.31-.51.21-.69-.22v-7.2l1.05-.24v-.48h-3.61v.48l1,.24v7.18l-1,.23V515H558v-.48l-.89-.23,1-2.65h2.76l1,2.63-1,.25V515h3.56v-.48l-1-.25Zm-5-3.31,1.17-3.06,1.12,3.06Z" transform="translate(-1.72 -5.31)"/><path class="b67081fb-0441-473a-a6c3-c66bba344e4f" d="M507.38,506.4v.48l1.05.24.07,5.64-5.4-6.37h-2.31v.48l1,.23.09,0-.08,7.13h0l-1.09.25-3.26-8.88a4.09,4.09,0,0,1-1.14,1l.13.36-3,7.29-.9.24V515h2.72v-.48l-.89-.23,1-2.65h2.76l1,2.63-1,.25V515h5.67v-.48l-1.09-.24-.13-6.23,6.18,7.26h.41l.08-8.2,1-.24v-.48ZM495.64,511l1.17-3.06,1.12,3.06Z" transform="translate(-1.72 -5.31)"/><path class="b67081fb-0441-473a-a6c3-c66bba344e4f" d="M516.47,510.61v.48l1,.24v2.78a3.23,3.23,0,0,1-1.95.65c-2,0-3.21-1.63-3.21-3.94s1.23-4.11,3.26-4.11a3.07,3.07,0,0,1,2.89,2.35l.28-.16v-2.72l-.25-.14-.54.66a5.44,5.44,0,0,0-2.39-.61,4.83,4.83,0,0,0-4.84,4.75,4.38,4.38,0,0,0,4.16,4.6h.31a4.45,4.45,0,0,0,2.78-.92l.76.51h.24v-3.7l.82-.31v-.4Z" transform="translate(-1.72 -5.31)"/><g class="c8053933-40fe-47c2-af54-83f9b23f1b17"><rect class="39d6ece9-999f-4616-b66f-6c1fb2fd2164" x="63.28" y="439.81" width="7.45" height="1.38"/><polygon class="39d6ece9-999f-4616-b66f-6c1fb2fd2164" points="73.63 441.19 81.08 441.19 81.08 441.19 73.63 441.19 73.63 441.19"/><rect class="39d6ece9-999f-4616-b66f-6c1fb2fd2164" x="83.98" y="438.44" width="7.45" height="2.75"/><rect class="39d6ece9-999f-4616-b66f-6c1fb2fd2164" x="94.33" y="435.69" width="7.45" height="5.5"/><polygon class="39d6ece9-999f-4616-b66f-6c1fb2fd2164" points="104.68 441.19 112.13 441.19 112.13 441.19 104.68 441.19 104.68 441.19"/><rect class="39d6ece9-999f-4616-b66f-6c1fb2fd2164" x="125.38" y="149.69" width="7.45" height="291.5"/><rect class="39d6ece9-999f-4616-b66f-6c1fb2fd2164" x="135.72" y="197.81" width="7.45" height="243.38"/><rect class="39d6ece9-999f-4616-b66f-6c1fb2fd2164" x="146.07" y="228.06" width="7.45" height="213.13"/><polygon class="39d6ece9-999f-4616-b66f-6c1fb2fd2164" points="156.42 441.19 163.87 441.19 163.87 441.19 156.42 441.19 156.42 441.19"/><rect class="39d6ece9-999f-4616-b66f-6c1fb2fd2164" x="166.77" y="329.81" width="7.45" height="111.38"/><polygon class="39d6ece9-999f-4616-b66f-6c1fb2fd2164" points="177.12 441.19 184.57 441.19 184.57 441.19 177.12 441.19 177.12 441.19"/><polygon class="39d6ece9-999f-4616-b66f-6c1fb2fd2164" points="187.47 441.19 194.92 441.19 194.92 441.19 187.47 441.19 187.47 441.19"/><rect class="39d6ece9-999f-4616-b66f-6c1fb2fd2164" x="197.81" y="347.69" width="7.45" height="93.5"/><rect class="39d6ece9-999f-4616-b66f-6c1fb2fd2164" x="208.16" y="296.81" width="7.45" height="144.38"/><rect class="39d6ece9-999f-4616-b66f-6c1fb2fd2164" x="218.51" y="287.19" width="7.45" height="154"/><rect class="39d6ece9-999f-4616-b66f-6c1fb2fd2164" x="228.86" y="72.69" width="7.45" height="368.5"/><rect class="39d6ece9-999f-4616-b66f-6c1fb2fd2164" x="239.21" y="280.31" width="7.45" height="160.88"/><polygon class="39d6ece9-999f-4616-b66f-6c1fb2fd2164" points="249.56 441.19 257.01 441.19 257.01 441.19 249.56 441.19 249.56 441.19"/><polygon class="39d6ece9-999f-4616-b66f-6c1fb2fd2164" points="259.9 441.19 267.36 441.19 267.36 441.19 259.9 441.19 259.9 441.19"/><rect class="39d6ece9-999f-4616-b66f-6c1fb2fd2164" x="270.25" y="314.69" width="7.45" height="126.5"/><rect class="39d6ece9-999f-4616-b66f-6c1fb2fd2164" x="280.6" y="294.06" width="7.45" height="147.13"/><rect class="39d6ece9-999f-4616-b66f-6c1fb2fd2164" x="290.95" y="300.94" width="7.45" height="140.25"/><rect class="39d6ece9-999f-4616-b66f-6c1fb2fd2164" x="301.3" y="333.94" width="7.45" height="107.25"/><rect class="39d6ece9-999f-4616-b66f-6c1fb2fd2164" x="311.65" y="248.69" width="7.45" height="192.5"/><polygon class="39d6ece9-999f-4616-b66f-6c1fb2fd2164" points="322 441.19 329.45 441.19 329.45 441.19 322 441.19 322 441.19"/><polygon class="39d6ece9-999f-4616-b66f-6c1fb2fd2164" points="332.34 441.19 339.79 441.19 339.79 441.19 332.34 441.19 332.34 441.19"/><rect class="39d6ece9-999f-4616-b66f-6c1fb2fd2164" x="342.69" y="355.94" width="7.45" height="85.25"/><rect class="39d6ece9-999f-4616-b66f-6c1fb2fd2164" x="353.04" y="305.06" width="7.45" height="136.12"/><polygon class="39d6ece9-999f-4616-b66f-6c1fb2fd2164" points="363.39 441.19 370.84 441.19 370.84 441.19 363.39 441.19 363.39 441.19"/><rect class="39d6ece9-999f-4616-b66f-6c1fb2fd2164" x="373.74" y="325.69" width="7.45" height="115.5"/><rect class="39d6ece9-999f-4616-b66f-6c1fb2fd2164" x="384.09" y="322.94" width="7.45" height="118.25"/><polygon class="39d6ece9-999f-4616-b66f-6c1fb2fd2164" points="394.43 441.19 401.88 441.19 401.88 441.19 394.43 441.19 394.43 441.19"/><polygon class="39d6ece9-999f-4616-b66f-6c1fb2fd2164" points="404.78 441.19 412.23 441.19 412.23 441.19 404.78 441.19 404.78 441.19"/><rect class="39d6ece9-999f-4616-b66f-6c1fb2fd2164" x="415.13" y="353.19" width="7.45" height="88"/><rect class="39d6ece9-999f-4616-b66f-6c1fb2fd2164" x="425.48" y="354.56" width="7.45" height="86.63"/><rect class="39d6ece9-999f-4616-b66f-6c1fb2fd2164" x="435.83" y="386.19" width="7.45" height="55"/><rect class="39d6ece9-999f-4616-b66f-6c1fb2fd2164" x="446.18" y="346.31" width="7.45" height="94.88"/><rect class="39d6ece9-999f-4616-b66f-6c1fb2fd2164" x="456.52" y="368.31" width="7.45" height="72.87"/><polygon class="39d6ece9-999f-4616-b66f-6c1fb2fd2164" points="466.87 441.19 474.32 441.19 474.32 441.19 466.87 441.19 466.87 441.19"/><polygon class="39d6ece9-999f-4616-b66f-6c1fb2fd2164" points="477.22 441.19 484.67 441.19 484.67 441.19 477.22 441.19 477.22 441.19"/><rect class="39d6ece9-999f-4616-b66f-6c1fb2fd2164" x="487.57" y="399.94" width="7.45" height="41.25"/><rect class="39d6ece9-999f-4616-b66f-6c1fb2fd2164" x="497.92" y="404.06" width="7.45" height="37.13"/><rect class="39d6ece9-999f-4616-b66f-6c1fb2fd2164" x="508.27" y="383.44" width="7.45" height="57.75"/><rect class="39d6ece9-999f-4616-b66f-6c1fb2fd2164" x="518.61" y="395.81" width="7.45" height="45.38"/><rect class="39d6ece9-999f-4616-b66f-6c1fb2fd2164" x="528.96" y="375.19" width="7.45" height="66"/><rect class="39d6ece9-999f-4616-b66f-6c1fb2fd2164" x="558.96" y="395.69" width="7.45" height="46.5"/></g><rect class="22a64e49-16be-46e3-a560-254c9b5e1328" x="101.28" y="60.69" width="24" height="411"/><rect class="22a64e49-16be-46e3-a560-254c9b5e1328" x="365.28" y="33.69" width="32" height="15"/><rect class="22a64e49-16be-46e3-a560-254c9b5e1328" x="173.28" y="60.69" width="24" height="411"/><rect class="22a64e49-16be-46e3-a560-254c9b5e1328" x="153.28" y="60.69" width="13" height="411"/><rect class="22a64e49-16be-46e3-a560-254c9b5e1328" x="246.28" y="60.69" width="24" height="411"/><rect class="22a64e49-16be-46e3-a560-254c9b5e1328" x="318.28" y="60.69" width="24" height="411"/><rect class="22a64e49-16be-46e3-a560-254c9b5e1328" x="391.28" y="60.69" width="24" height="411"/><rect class="22a64e49-16be-46e3-a560-254c9b5e1328" x="362.28" y="60.69" width="8" height="382"/><rect class="22a64e49-16be-46e3-a560-254c9b5e1328" x="464.28" y="60.69" width="23" height="411"/><rect class="22a64e49-16be-46e3-a560-254c9b5e1328" x="536.28" y="60.69" width="23" height="411"/><text class="7a834501-3f37-4696-aba6-dd076b13794f" transform="translate(105.73 455.46) scale(0.99 1)">7/8</text><text class="7a834501-3f37-4696-aba6-dd076b13794f" transform="translate(153.49 455.46) scale(0.99 1)">12</text><text class="7a834501-3f37-4696-aba6-dd076b13794f" transform="translate(396.73 455.46) scale(0.99 1)">4/5</text><text class="7a834501-3f37-4696-aba6-dd076b13794f" transform="translate(172.69 455.46) scale(0.99 1)">14/15</text><text class="7a834501-3f37-4696-aba6-dd076b13794f" transform="translate(463.43 455.46) scale(0.99 1)"><tspan class="9c5ce1c2-b503-48e7-90ab-e15d6683baca">1</tspan><tspan x="4.82" y="0">1/12</tspan></text><text class="7a834501-3f37-4696-aba6-dd076b13794f" transform="translate(534.69 455.46) scale(0.99 1)">18/19</text><text class="7a834501-3f37-4696-aba6-dd076b13794f" transform="translate(245.69 455.46) scale(0.99 1)">21/22</text><text class="7a834501-3f37-4696-aba6-dd076b13794f" transform="translate(317.69 455.46) scale(0.99 1)">28/29</text><line class="d59f17d0-479c-4582-b493-b88be9c665b6" x1="222.78" y1="50.19" x2="222.78" y2="197.19"/><line class="d59f17d0-479c-4582-b493-b88be9c665b6" x1="327.78" y1="243.19" x2="327.78" y2="441.69"/></svg>