<svg id="3d242453-a220-4c5a-916d-3570f222aa64" data-name="Capa 1" xmlns="http://www.w3.org/2000/svg" viewBox="0 0 532 393"><defs><style>.f86b207f-4969-4691-9cad-61db07c91f10{font-size:26px;}.\37 558923e-7625-4120-9dbe-8374457e80c4,.f86b207f-4969-4691-9cad-61db07c91f10{fill:#323232;}.\37 06e4efd-91fb-4680-98d6-eabf4bbee2b9,.\37 558923e-7625-4120-9dbe-8374457e80c4,.f86b207f-4969-4691-9cad-61db07c91f10{font-family:Arial-BoldMT, Arial;font-weight:700;}.c4e80bce-4266-4f23-99ab-29312abda75d{fill:#283659;}.\39 f30df87-37d4-4df5-b77a-e51d98977006,.c06c0362-b63a-4306-a4b5-7ed5f89dd52d{fill:#fff;}.\30 b4f3f09-6d59-4bc5-a8f6-fc0dddbcba55,.\30 ff87729-b5f7-4e59-9695-872d0ee84c10,.\31 9df1988-f375-45be-b79a-7f49040fcc83,.\31 f99b54c-4d27-4b98-bbec-8bbfff7c71b0,.\39 f30df87-37d4-4df5-b77a-e51d98977006,.cc610bd9-5468-4d8b-84d3-deaa1bbf2984,.d88d319b-b297-4698-91c7-160b79281e85,.f090e715-4255-4a59-9732-ac1be8952278{stroke:#fff;stroke-linejoin:round;stroke-width:1.6px;}.\30 d2eacf5-7acc-4cea-a4f3-65e7845224dc,.\30 fbeca25-e892-4110-898a-0924adb0f6b7,.\33 61c1cab-fc50-49ef-97a9-a2f9fc667fc2{fill:#757575;}.\37 e4cf3ee-0341-4d9c-b66f-7f9a80046258,.\38 0c9f61a-4834-4ef8-83fb-2327b5d42da2,.a4db7c47-450d-4d4c-a1fd-cb8a09866dd1{fill:none;stroke-miterlimit:10;}.\37 e4cf3ee-0341-4d9c-b66f-7f9a80046258{stroke:#757575;}.\37 558923e-7625-4120-9dbe-8374457e80c4{font-size:19.42px;}.\30 b4f3f09-6d59-4bc5-a8f6-fc0dddbcba55{fill:#ffe600;}.\30 b4f3f09-6d59-4bc5-a8f6-fc0dddbcba55,.\30 ff87729-b5f7-4e59-9695-872d0ee84c10,.\31 9df1988-f375-45be-b79a-7f49040fcc83,.\31 f99b54c-4d27-4b98-bbec-8bbfff7c71b0,.cc610bd9-5468-4d8b-84d3-deaa1bbf2984,.d88d319b-b297-4698-91c7-160b79281e85,.f090e715-4255-4a59-9732-ac1be8952278{opacity:0.77;}.\30 ff87729-b5f7-4e59-9695-872d0ee84c10{fill:#efb21b;}.\31 f99b54c-4d27-4b98-bbec-8bbfff7c71b0{fill:#3f4d78;}.cc610bd9-5468-4d8b-84d3-deaa1bbf2984{fill:#8e244f;}.\31 9df1988-f375-45be-b79a-7f49040fcc83{fill:#991d26;}.d88d319b-b297-4698-91c7-160b79281e85{fill:#d57928;}.f090e715-4255-4a59-9732-ac1be8952278{fill:#59a5a5;}.\38 0c9f61a-4834-4ef8-83fb-2327b5d42da2,.a4db7c47-450d-4d4c-a1fd-cb8a09866dd1{stroke:#323232;}.a4db7c47-450d-4d4c-a1fd-cb8a09866dd1{stroke-dasharray:4.86 4.86;}.\33 61c1cab-fc50-49ef-97a9-a2f9fc667fc2{font-size:15px;}.\30 fbeca25-e892-4110-898a-0924adb0f6b7,.\33 61c1cab-fc50-49ef-97a9-a2f9fc667fc2{font-family:ArialMT, Arial;}.\30 fbeca25-e892-4110-898a-0924adb0f6b7{font-size:13px;}</style></defs><title>2017.12.04_CISbo</title><text class="f86b207f-4969-4691-9cad-61db07c91f10" transform="translate(57.82 20.62)">Reparto de escaños según el CIS</text><polygon class="c4e80bce-4266-4f23-99ab-29312abda75d" points="434 353.27 530.44 353.27 530.44 367.93 434 367.93 434 353.27 434 353.27"/><path class="c06c0362-b63a-4306-a4b5-7ed5f89dd52d" d="M511.36,356.55h-3.7V357l1,.23v6.81a.81.81,0,0,1-.68.35,1.45,1.45,0,0,1-1.2-.88l-.92-1.65a1.91,1.91,0,0,0-1.69-1.14v-.12a2.26,2.26,0,0,0,2.33-2.1c0-1.42-1.29-2-2.78-2h-3.35V357l1.1.23v6.91h0l-1.26.24L497,355.83a4,4,0,0,1-1.13,1l.12.35-2.87,7-.86.23v.46h2.62v-.46l-.85-.22,1-2.56h2.66l.93,2.54-1,.24v.46H504v-.46l-1-.23V361a1.57,1.57,0,0,1,1.42,1l1.26,2.25a2,2,0,0,0,1.82,1.11,1.8,1.8,0,0,0,1.2-.49h2.85a4.28,4.28,0,0,0,4.39-4.16,4.17,4.17,0,0,0-4.47-4.16ZM495.23,361l1.12-3,1.08,3Zm8.23-.62h-.57v-3.1h.71a1.4,1.4,0,0,1,1.45,1.48,1.61,1.61,0,0,1-1.57,1.62Zm7.82,3.83h-1.18v-6.93h1.22c1.89,0,3,1.31,3,3.46s-1.21,3.46-3.08,3.46Z"/><path class="c06c0362-b63a-4306-a4b5-7ed5f89dd52d" d="M450.71,364.17l-3.07-8.34a3.94,3.94,0,0,1-1.13,1l.12.35-2.85,7-.61.23-.18.46h2.54v-.46l-.85-.22,1-2.56h2.66l.93,2.54-1,.24v.46h3.42v-.46l-.91-.23Zm-4.87-3.2,1.13-3,1.08,3Z"/><polygon class="c06c0362-b63a-4306-a4b5-7ed5f89dd52d" points="443.39 362.75 443.08 362.58 441.29 364.21 439.75 364.21 439.75 357.25 440.68 357.01 440.68 356.54 437.37 356.54 437.37 357.01 438.3 357.25 438.3 364.15 437.37 364.39 437.37 364.86 442.57 364.86 443.39 362.75 443.39 362.75"/><polygon class="c06c0362-b63a-4306-a4b5-7ed5f89dd52d" points="457.83 356.54 457.83 357.01 458.83 357.25 456.66 362.81 454.37 357.24 455.45 357.01 455.45 356.54 451.76 356.54 451.76 357.01 452.82 357.24 456.1 365.14 456.45 365.14 459.72 357.25 459.75 357.25 460.77 357.01 460.77 356.54 457.83 356.54 457.83 356.54"/><path class="c06c0362-b63a-4306-a4b5-7ed5f89dd52d" d="M490.6,356.55V357l1,.24s.07,4.12,0,5.16a2.1,2.1,0,0,1-2.14,2h-.11a2.07,2.07,0,0,1-2.24-2.13v-5.07l1-.22v-.46h-3.34V357l.95.23v5.11a3.07,3.07,0,0,0,3.3,2.91,3,3,0,0,0,3.3-2.91l.06-5.1,1-.24v-.46Z"/><path class="c06c0362-b63a-4306-a4b5-7ed5f89dd52d" d="M526.7,364.15l-3.06-8.32a3.94,3.94,0,0,1-1.13,1l.12.35-2.86,7-.49.2-.66-.21v-6.94l1-.23v-.46h-3.48V357l1,.24v6.92l-1,.23v.46h5.3v-.46l-.85-.23,1-2.56h2.66l.93,2.54-1,.24v.46h3.43v-.46l-.92-.24ZM521.84,361l1.13-3,1.08,3Z"/><path class="c06c0362-b63a-4306-a4b5-7ed5f89dd52d" d="M472.75,356.55V357l1,.24.06,5.44-5.21-6.14H466.4V357l1,.22.08,0-.07,6.88h0l-1,.24-3.14-8.56a4,4,0,0,1-1.1,1l.12.35-2.87,7-.86.23v.46h2.62v-.46l-.85-.22,1-2.56h2.66l.93,2.54-1,.24v.46h5.47v-.46l-1-.24-.12-6,6,7h.39l.08-7.9,1-.23v-.46ZM461.44,361l1.13-3,1.08,3Z"/><path class="c06c0362-b63a-4306-a4b5-7ed5f89dd52d" d="M481.52,360.61v.46l.94.24V364a3.11,3.11,0,0,1-1.88.62c-1.89,0-3.1-1.57-3.1-3.79s1.18-4,3.14-4a3,3,0,0,1,2.78,2.26l.27-.16v-2.62l-.24-.13-.52.64a5.24,5.24,0,0,0-2.3-.59,4.65,4.65,0,0,0-4.66,4.58,4.22,4.22,0,0,0,4,4.43h.3a4.29,4.29,0,0,0,2.68-.89l.73.49h.24V361.3l.79-.3v-.38Z"/><path class="9f30df87-37d4-4df5-b77a-e51d98977006" d="M395.41,262.05C395.41,336.58,335,381,260.46,381S125.51,336.58,125.51,262.05a134.95,134.95,0,0,1,269.9,0Z"/><path class="0d2eacf5-7acc-4cea-a4f3-65e7845224dc" d="M270.44,69.44l2.2.64a4.45,4.45,0,0,1-4.5,3.56,4.93,4.93,0,0,1-3.65-1.26,5.6,5.6,0,0,1-1.73-3.88,5.47,5.47,0,0,1,1.17-4.26,5.29,5.29,0,0,1,3.92-1.7,5,5,0,0,1,3.55,1.08,4.06,4.06,0,0,1,1.21,2l-2.3.54a2.23,2.23,0,0,0-.89-1.3,2.57,2.57,0,0,0-1.61-.43,2.71,2.71,0,0,0-2.06,1,3.94,3.94,0,0,0-.63,2.82A4.43,4.43,0,0,0,266,71a2.53,2.53,0,0,0,2,.77,2.32,2.32,0,0,0,1.51-.6A3.22,3.22,0,0,0,270.44,69.44Z"/><path class="0d2eacf5-7acc-4cea-a4f3-65e7845224dc" d="M279.19,71.06l2.09.47a3.45,3.45,0,0,1-1.38,1.63,3.85,3.85,0,0,1-2.18.48,3.65,3.65,0,0,1-3-1.41,4.42,4.42,0,0,1-.76-2.69,4.08,4.08,0,0,1,1.1-3,3.61,3.61,0,0,1,2.77-1,3.73,3.73,0,0,1,2.88,1.29,4.81,4.81,0,0,1,.78,3.57c-2.13-.15-3.2-.2-5.35-.26a2.06,2.06,0,0,0,.47,1.44,1.64,1.64,0,0,0,1.2.55,1.33,1.33,0,0,0,.84-.23A1.63,1.63,0,0,0,279.19,71.06Zm.23-2.07a1.9,1.9,0,0,0-.42-1.38,1.63,1.63,0,0,0-2.31-.07,1.83,1.83,0,0,0-.49,1.32C277.49,68.89,278.13,68.92,279.42,69Z"/><path class="0d2eacf5-7acc-4cea-a4f3-65e7845224dc" d="M290.39,70.67l2.06,1a5,5,0,0,1-8.39,1,5.61,5.61,0,0,1-1.08-4.1,5.49,5.49,0,0,1,1.84-4,5.25,5.25,0,0,1,4.12-1,5,5,0,0,1,3.32,1.63,4.06,4.06,0,0,1,.87,2.14l-2.35.16a2.22,2.22,0,0,0-.67-1.42,2.55,2.55,0,0,0-1.52-.68,2.69,2.69,0,0,0-2.18.61,4,4,0,0,0-1.07,2.68,4.44,4.44,0,0,0,.46,3,2.52,2.52,0,0,0,1.84,1.08,2.31,2.31,0,0,0,1.58-.35A3.23,3.23,0,0,0,290.39,70.67Z"/><path class="0d2eacf5-7acc-4cea-a4f3-65e7845224dc" d="M294,72.34l.35-2c1.67.29,2.51.45,4.17.8l-.42,2C296.49,72.79,295.67,72.63,294,72.34Z"/><path class="0d2eacf5-7acc-4cea-a4f3-65e7845224dc" d="M298.73,76.19,301,65.71c1.49.33,2.24.51,3.73.88a13.61,13.61,0,0,1,2.7.88,3.06,3.06,0,0,1,1.34,1.47,3.12,3.12,0,0,1,.06,2.2,3.35,3.35,0,0,1-.84,1.49,3.08,3.08,0,0,1-1.22.75,3.41,3.41,0,0,1-1.27.17,14.76,14.76,0,0,1-2.31-.45l-1.43-.35-.95,3.94ZM302.94,68l-.71,3,1.22.3a6.63,6.63,0,0,0,1.8.29,1.52,1.52,0,0,0,.83-.32,1.38,1.38,0,0,0,.47-.74,1.32,1.32,0,0,0-.1-1,1.66,1.66,0,0,0-.79-.7,11.23,11.23,0,0,0-1.62-.49Z"/><path class="0d2eacf5-7acc-4cea-a4f3-65e7845224dc" d="M312.79,77.58l1.28.32a2.19,2.19,0,0,0,.16,1.43,1.79,1.79,0,0,0,1,.79,2.14,2.14,0,0,0,1.12.13,2.36,2.36,0,0,0,1-.41,4.38,4.38,0,0,0,.93-1,6.44,6.44,0,0,0,.79-1.42l.09-.25a3.18,3.18,0,0,1-1.44.53,3.43,3.43,0,0,1-3.49-1.9,3.47,3.47,0,0,1-.09-2.73A3.41,3.41,0,0,1,316,71a3.63,3.63,0,0,1,2.84,0,4,4,0,0,1,1.77,1.28,3.53,3.53,0,0,1,.74,2,7.28,7.28,0,0,1-.69,3,9.56,9.56,0,0,1-1.68,2.86,4,4,0,0,1-2,1.21,3.65,3.65,0,0,1-2.19-.16,3.16,3.16,0,0,1-1.73-1.37A3,3,0,0,1,312.79,77.58Zm7-2.46a2.43,2.43,0,0,0,.05-1.92A2.14,2.14,0,0,0,318.59,72a2.25,2.25,0,0,0-1.82.09,2.51,2.51,0,0,0-1.29,1.51,2.25,2.25,0,0,0,1.35,3,2.17,2.17,0,0,0,1.72,0A2.45,2.45,0,0,0,319.78,75.12Z"/><path class="0d2eacf5-7acc-4cea-a4f3-65e7845224dc" d="M443.44,282.65l10.74-.08c0,1.64,0,2.46-.08,4.1a14,14,0,0,1-.36,3,3.22,3.22,0,0,1-1.22,1.69,3,3,0,0,1-2.16.47,3.27,3.27,0,0,1-1.6-.59,3.17,3.17,0,0,1-.95-1.1,3.65,3.65,0,0,1-.4-1.25,17.29,17.29,0,0,1,0-2.42c0-.61,0-.91.06-1.52l-4-.11C443.44,284,443.44,283.53,443.44,282.65Zm8.9,2.43-3-.08c0,.52,0,.78,0,1.31a7.54,7.54,0,0,0,.06,1.9,1.6,1.6,0,0,0,.47.79,1.34,1.34,0,0,0,.81.34,1.28,1.28,0,0,0,1-.31,1.76,1.76,0,0,0,.55-1,11.51,11.51,0,0,0,.17-1.79C452.31,285.81,452.32,285.57,452.33,285.08Z"/><path class="0d2eacf5-7acc-4cea-a4f3-65e7845224dc" d="M442.73,292.73l10.62,1.58c-.24,1.62-.38,2.42-.71,4a14.08,14.08,0,0,1-.82,2.91,3.21,3.21,0,0,1-1.47,1.48,3,3,0,0,1-2.21.13,3.27,3.27,0,0,1-1.49-.83,3.16,3.16,0,0,1-.77-1.23,3.63,3.63,0,0,1-.2-1.3,17.19,17.19,0,0,1,.38-2.39c.12-.59.18-.89.29-1.48l-4-.73C442.53,294,442.6,293.59,442.73,292.73Zm8.42,3.76-3-.55c-.09.51-.14.77-.25,1.28a7.48,7.48,0,0,0-.23,1.88,1.6,1.6,0,0,0,.34.85,1.35,1.35,0,0,0,.75.46,1.28,1.28,0,0,0,1-.15,1.75,1.75,0,0,0,.69-.86,11.66,11.66,0,0,0,.44-1.73C451,297.2,451.06,297,451.14,296.49Z"/><path class="0d2eacf5-7acc-4cea-a4f3-65e7845224dc" d="M448.08,309.16l1.19.44a63.31,63.31,0,0,1-3.26,7.49l-.92-.46a12.29,12.29,0,0,0-1.61-3.34,14.46,14.46,0,0,0-2.71-3.06,12.79,12.79,0,0,0-2.51-1.64c.21-.5.32-.76.52-1.27a12,12,0,0,1,2.65,1.62,13.23,13.23,0,0,1,2.62,2.71,12.38,12.38,0,0,1,1.68,3.11C446.76,312.56,447.23,311.43,448.08,309.16Z"/><path class="0d2eacf5-7acc-4cea-a4f3-65e7845224dc" d="M426.42,172.25c.2.89.29,1.34.48,2.23a4.41,4.41,0,0,1-5.26-2.26,4.88,4.88,0,0,1-.59-3.82,6.47,6.47,0,0,1,6.95-4.28,5.19,5.19,0,0,1,3.3,2.61,4.92,4.92,0,0,1,.7,3.58,4.09,4.09,0,0,1-1.16,2c-.62-.7-.93-1-1.56-1.74a2.23,2.23,0,0,0,.73-1.39,2.51,2.51,0,0,0-.37-1.6,2.66,2.66,0,0,0-1.8-1.35,4,4,0,0,0-2.78.77,4.44,4.44,0,0,0-2.09,2.16,2.51,2.51,0,0,0,.26,2.12,2.29,2.29,0,0,0,1.24,1A3.21,3.21,0,0,0,426.42,172.25Z"/><path class="0d2eacf5-7acc-4cea-a4f3-65e7845224dc" d="M434.34,172.62c.42.79.62,1.18,1,2l-1.31.67a4.84,4.84,0,0,1-1.33.5,2.12,2.12,0,0,1-1.11-.12,3.27,3.27,0,0,1-1.1-.72l.55-.77a1.88,1.88,0,0,0,.94.57,1.63,1.63,0,0,0,1-.19l-.5-.94Z"/><path class="0d2eacf5-7acc-4cea-a4f3-65e7845224dc" d="M428.23,179.28c.5.7.74,1,1.23,1.76a1.52,1.52,0,0,0-.58.89,1.9,1.9,0,0,0,.22,1.17,2.14,2.14,0,0,0,.79,1,.65.65,0,0,0,.62,0,.52.52,0,0,0,.29-.3,1.65,1.65,0,0,0-.06-.76,12.8,12.8,0,0,1-.52-3.37,2,2,0,0,1,1.13-1.64,2.1,2.1,0,0,1,1.9,0,4,4,0,0,1,1.77,2.06,4.67,4.67,0,0,1,.6,2.5,2.63,2.63,0,0,1-.93,1.66l-1.17-1.7a1.2,1.2,0,0,0,.42-.74,1.87,1.87,0,0,0-.23-1,2.42,2.42,0,0,0-.74-1,.48.48,0,0,0-.48,0,.45.45,0,0,0-.24.36,8.83,8.83,0,0,0,.35,2.06,5.82,5.82,0,0,1,.17,2.55,1.86,1.86,0,0,1-1.12,1.24,2.36,2.36,0,0,1-2.05-.07,4.13,4.13,0,0,1-1.83-2.1,4.55,4.55,0,0,1-.54-2.57A3,3,0,0,1,428.23,179.28Z"/><path class="0d2eacf5-7acc-4cea-a4f3-65e7845224dc" d="M434.23,191l.67,1.19a2.92,2.92,0,0,0-1.21,1.33,2,2,0,0,0,0,1.44,2.22,2.22,0,0,0,1.16,1.27,2.17,2.17,0,0,0,1.73.07,2,2,0,0,0,1.19-1.09,2.16,2.16,0,0,0,0-1.68,4,4,0,0,0-.48-.85l1.13-.27a2.22,2.22,0,0,0,.07.21,3,3,0,0,0,1,1.33,1.49,1.49,0,0,0,1.52.2,1.55,1.55,0,0,0,.95-.91,1.93,1.93,0,0,0,0-1.44,2,2,0,0,0-.94-1.11,2.35,2.35,0,0,0-1.61-.12c-.12-.55-.18-.83-.3-1.38a3.28,3.28,0,0,1,2.34.32,3.52,3.52,0,0,1,1.51,1.87,3.94,3.94,0,0,1,.26,1.77,2.82,2.82,0,0,1-.55,1.49,2.52,2.52,0,0,1-1.16.86,2.2,2.2,0,0,1-1.33.06,2.7,2.7,0,0,1-1.25-.78,2.58,2.58,0,0,1-.33,1.76,2.69,2.69,0,0,1-1.45,1.1,3.18,3.18,0,0,1-2.6-.18,3.75,3.75,0,0,1-1.83-2.12,3.5,3.5,0,0,1-.08-2.52A3.28,3.28,0,0,1,434.23,191Z"/><path class="0d2eacf5-7acc-4cea-a4f3-65e7845224dc" d="M436.12,204.66l-.4-1.27,8-2.55a7.61,7.61,0,0,1-1.27-1,10.26,10.26,0,0,1-1.11-1.18l1.21-.41a9.1,9.1,0,0,0,1.84,1.56,5.19,5.19,0,0,0,1.75.76l.27.88Z"/><path class="0d2eacf5-7acc-4cea-a4f3-65e7845224dc" d="M441.27,211l1.28-.33c.42,1.63.62,2.45,1,4.09l-1.29.3C441.88,213.47,441.69,212.66,441.27,211Z"/><path class="0d2eacf5-7acc-4cea-a4f3-65e7845224dc" d="M443,220.49l.43,1.3a2.92,2.92,0,0,0-1.45,1.07,2,2,0,0,0-.26,1.42,2.23,2.23,0,0,0,.9,1.48,2.17,2.17,0,0,0,1.68.4,2,2,0,0,0,1.38-.84,2.17,2.17,0,0,0,.33-1.65,4,4,0,0,0-.31-.93l1.17,0a2.21,2.21,0,0,0,0,.22,3,3,0,0,0,.7,1.5,1.49,1.49,0,0,0,1.45.49,1.55,1.55,0,0,0,1.1-.71,1.93,1.93,0,0,0,.25-1.42,2,2,0,0,0-.71-1.27,2.34,2.34,0,0,0-1.55-.43c0-.57,0-.85,0-1.42a3.27,3.27,0,0,1,2.24.77,3.54,3.54,0,0,1,1.12,2.14,4,4,0,0,1-.09,1.79,2.82,2.82,0,0,1-.83,1.36,2.51,2.51,0,0,1-1.31.62,2.19,2.19,0,0,1-1.31-.2,2.72,2.72,0,0,1-1.08-1,2.59,2.59,0,0,1-.66,1.67,2.68,2.68,0,0,1-1.63.8,3.17,3.17,0,0,1-2.51-.69,3.78,3.78,0,0,1-1.38-2.44,3.52,3.52,0,0,1,.41-2.49A3.28,3.28,0,0,1,443,220.49Z"/><path class="0d2eacf5-7acc-4cea-a4f3-65e7845224dc" d="M443.64,236.22l-1.26.11c-.26-2.87-.43-4.3-.82-7.16a2.3,2.3,0,0,1,.93,0,4.69,4.69,0,0,1,1.53.69,12.51,12.51,0,0,1,1.84,1.57,16.82,16.82,0,0,0,2.53,2.21,2.66,2.66,0,0,0,1.64.49,1.7,1.7,0,0,0,1.25-.73,2.25,2.25,0,0,0,.37-1.62,2.28,2.28,0,0,0-.76-1.56,2.06,2.06,0,0,0-1.65-.42c0-.58,0-.87-.05-1.45a3.2,3.2,0,0,1,2.44.81,4,4,0,0,1,1.11,2.53,3.79,3.79,0,0,1-.57,2.72,2.7,2.7,0,0,1-2,1.16,3.08,3.08,0,0,1-1.29-.16,5.08,5.08,0,0,1-1.39-.79,25.39,25.39,0,0,1-2.1-1.91c-.75-.74-1.26-1.2-1.52-1.4a4.25,4.25,0,0,0-.78-.48C443.33,233,443.45,234.07,443.64,236.22Z"/><path class="0d2eacf5-7acc-4cea-a4f3-65e7845224dc" d="M338.94,92.88l3.14-10.27c1.49.46,2.24.7,3.71,1.2a13.86,13.86,0,0,1,2.66,1.12,3,3,0,0,1,1.1,3.79,3.33,3.33,0,0,1-1,1.4,3.09,3.09,0,0,1-1.29.64,3.46,3.46,0,0,1-1.29.06,15.19,15.19,0,0,1-2.28-.65l-1.41-.48L341,93.55Zm4.89-7.81-1,2.89,1.2.4a6.83,6.83,0,0,0,1.79.45,1.55,1.55,0,0,0,.86-.25,1.37,1.37,0,0,0,.54-.69,1.31,1.31,0,0,0,0-1,1.68,1.68,0,0,0-.74-.77,11.52,11.52,0,0,0-1.6-.64Z"/><path class="0d2eacf5-7acc-4cea-a4f3-65e7845224dc" d="M349.29,92.88l2.11.67a2.59,2.59,0,0,0,.11,1.75,2.51,2.51,0,0,0,1.27,1.12,2.6,2.6,0,0,0,1.66.29,1.32,1.32,0,0,0,.95-.69,1,1,0,0,0,.07-.69,1.84,1.84,0,0,0-.54-.77c-.2-.2-.69-.6-1.46-1.2a6.9,6.9,0,0,1-1.95-2,2.76,2.76,0,0,1-.14-2.41,2.55,2.55,0,0,1,1.06-1.22,3.09,3.09,0,0,1,1.79-.41,6.25,6.25,0,0,1,2.3.62,5.2,5.2,0,0,1,2.67,2.26,3,3,0,0,1,0,2.64c-.85-.39-1.28-.59-2.15-1a1.78,1.78,0,0,0-.07-1.35,2.52,2.52,0,0,0-1.21-1,2.85,2.85,0,0,0-1.64-.32.76.76,0,0,0-.61.46.81.81,0,0,0,.06.74A6.89,6.89,0,0,0,355.21,92a10.65,10.65,0,0,1,1.92,1.78A2.87,2.87,0,0,1,357.4,97a3.14,3.14,0,0,1-1.26,1.3,3.21,3.21,0,0,1-1.86.41,6.62,6.62,0,0,1-2.3-.66,5,5,0,0,1-2.51-2.15A4.16,4.16,0,0,1,349.29,92.88Z"/><path class="0d2eacf5-7acc-4cea-a4f3-65e7845224dc" d="M365.68,100.81c.6.69.9,1,1.49,1.75a4.46,4.46,0,0,1-5.71.51,4.93,4.93,0,0,1-2.37-3,5.63,5.63,0,0,1,.64-4.2,5.44,5.44,0,0,1,3.3-2.95,5.32,5.32,0,0,1,4.24.72,5.07,5.07,0,0,1,2.41,2.86,4,4,0,0,1-.07,2.32c-.89-.34-1.34-.51-2.23-.83a2.22,2.22,0,0,0,0-1.58,2.6,2.6,0,0,0-1.12-1.25,2.73,2.73,0,0,0-2.26-.33,3.92,3.92,0,0,0-2.06,2,4.44,4.44,0,0,0-.76,2.9,2.54,2.54,0,0,0,1.26,1.74,2.32,2.32,0,0,0,1.59.32A3.23,3.23,0,0,0,365.68,100.81Z"/><path class="0d2eacf5-7acc-4cea-a4f3-65e7845224dc" d="M376.28,111.91l-.82,1c-2.19-1.86-3.32-2.76-5.63-4.46a2.31,2.31,0,0,1,.67-.64,4.65,4.65,0,0,1,1.57-.61,12.06,12.06,0,0,1,2.42-.2,18.17,18.17,0,0,0,3.38-.21,2.64,2.64,0,0,0,1.52-.8,1.67,1.67,0,0,0,.37-1.41,2.32,2.32,0,0,0-.92-1.43,2.36,2.36,0,0,0-1.68-.59,2,2,0,0,0-1.46.87l-1.09-1a3.15,3.15,0,0,1,2.3-1.16,4.12,4.12,0,0,1,2.63,1,3.93,3.93,0,0,1,1.57,2.39,2.66,2.66,0,0,1-.61,2.26,3,3,0,0,1-1,.78,5.14,5.14,0,0,1-1.56.4,28.1,28.1,0,0,1-2.85.11,19.33,19.33,0,0,0-2.08.09,4.21,4.21,0,0,0-.89.22C373.79,109.83,374.63,110.51,376.28,111.91Z"/><path class="0d2eacf5-7acc-4cea-a4f3-65e7845224dc" d="M380.25,117.22l-1-.92,5.75-6.12a8,8,0,0,1-1.62-.26,11,11,0,0,1-1.57-.51l.85-1a9.76,9.76,0,0,0,2.42.5,5.34,5.34,0,0,0,1.94-.15l.69.66Z"/><path class="0d2eacf5-7acc-4cea-a4f3-65e7845224dc" d="M77.24,305.77c0-.93,0-1.39,0-2.31a4.5,4.5,0,0,1,4.66,3.36,5,5,0,0,1-.17,3.87,5.61,5.61,0,0,1-3.2,2.8,5,5,0,0,1-7.21-3.27,5.16,5.16,0,0,1,0-3.79,4,4,0,0,1,1.56-1.72c.45.85.68,1.27,1.16,2.11a2.21,2.21,0,0,0-1,1.23,2.65,2.65,0,0,0,0,1.7,2.78,2.78,0,0,0,1.52,1.75,3.88,3.88,0,0,0,2.89-.19A4.41,4.41,0,0,0,80,309.59a2.57,2.57,0,0,0,.17-2.15,2.35,2.35,0,0,0-1-1.29A3.24,3.24,0,0,0,77.24,305.77Z"/><path class="0d2eacf5-7acc-4cea-a4f3-65e7845224dc" d="M69.53,303.48c-.25-.95-.36-1.42-.59-2.38l5.66-1.33a11.26,11.26,0,0,0,1.73-.49,1.75,1.75,0,0,0,.88-.91,2.5,2.5,0,0,0,.08-1.53,2.35,2.35,0,0,0-.65-1.33,1.5,1.5,0,0,0-1-.4,11.61,11.61,0,0,0-1.81.23L68,296.43c-.18-1-.26-1.44-.42-2.41l5.57-.9a14.16,14.16,0,0,1,2.73-.26,3.06,3.06,0,0,1,1.44.44,3.45,3.45,0,0,1,1.09,1.11,6,6,0,0,1,.72,2,6.5,6.5,0,0,1,.16,2.38,3.52,3.52,0,0,1-.59,1.46,3,3,0,0,1-1,.9,12.59,12.59,0,0,1-2.58.9Z"/><path class="0d2eacf5-7acc-4cea-a4f3-65e7845224dc" d="M77.81,290l-10.64,1.44c-.21-1.56-.3-2.34-.45-3.9a13.77,13.77,0,0,1-.08-2.91,3.12,3.12,0,0,1,.95-1.79,3.07,3.07,0,0,1,2.06-.79,3.32,3.32,0,0,1,1.68.31,3.11,3.11,0,0,1,1.11.92,3.51,3.51,0,0,1,.58,1.16,15.55,15.55,0,0,1,.35,2.35c.06.59.09.89.15,1.48l4-.45C77.63,288.73,77.69,289.16,77.81,290Zm-9.13-1.19,3-.34c-.06-.51-.08-.76-.13-1.27a7,7,0,0,0-.33-1.82,1.56,1.56,0,0,0-.58-.69,1.37,1.37,0,0,0-.85-.21,1.31,1.31,0,0,0-.94.44,1.69,1.69,0,0,0-.4,1,11.45,11.45,0,0,0,.08,1.73C68.6,288.15,68.62,288.38,68.67,288.84Z"/><path class="0d2eacf5-7acc-4cea-a4f3-65e7845224dc" d="M74.51,276.25c0-.53-.05-.79-.09-1.32a2.2,2.2,0,0,0,1.32-.59,1.8,1.8,0,0,0,.45-1.18A2.16,2.16,0,0,0,76,272a2.39,2.39,0,0,0-.69-.82,4.39,4.39,0,0,0-1.21-.6,6.38,6.38,0,0,0-1.59-.33h-.26a3.25,3.25,0,0,1,.94,1.22,3.51,3.51,0,0,1-.75,3.94,3.46,3.46,0,0,1-2.57.95,3.35,3.35,0,0,1-2.61-1.11,3.74,3.74,0,0,1-.89-2.76,4.1,4.1,0,0,1,.7-2.13A3.53,3.53,0,0,1,68.75,269a7.13,7.13,0,0,1,3.05-.22,9.52,9.52,0,0,1,3.22.77,4,4,0,0,1,1.74,1.52,3.68,3.68,0,0,1,.51,2.14,3.19,3.19,0,0,1-.78,2.06A3,3,0,0,1,74.51,276.25Zm-4.46-6a2.4,2.4,0,0,0-1.85.54,2.2,2.2,0,0,0-.77,1.58,2.31,2.31,0,0,0,.64,1.74,2.48,2.48,0,0,0,1.84.78,2.23,2.23,0,0,0,1.69-.62,2.31,2.31,0,0,0,.71-1.6,2.22,2.22,0,0,0-.54-1.65A2.44,2.44,0,0,0,70,270.27Z"/><path class="0d2eacf5-7acc-4cea-a4f3-65e7845224dc" d="M82.8,208l-10.54-2c.67-3.49,1.07-5.22,2-8.63l1.75.47c-.66,2.45-1,3.68-1.49,6.17l2.33.5c.48-2.27.76-3.39,1.35-5.63l1.75.47c-.59,2.2-.85,3.31-1.33,5.54l2.86.61c.52-2.42.81-3.62,1.46-6l1.75.48C83.81,203.18,83.43,204.79,82.8,208Z"/><path class="0d2eacf5-7acc-4cea-a4f3-65e7845224dc" d="M85.18,198.2l-10.31-3c.57-1.95.87-2.91,1.52-4.83a8.85,8.85,0,0,1,1.19-2.52,2.62,2.62,0,0,1,1.44-.93,2.87,2.87,0,0,1,1.76.12,2.79,2.79,0,0,1,1.6,1.42,3.82,3.82,0,0,1,.16,2.45,5,5,0,0,1,1.26-.84,11.1,11.1,0,0,1,2.08-.59c1-.21,1.46-.31,2.43-.49-.38,1-.57,1.46-.92,2.45-1.09.27-1.64.42-2.74.72a13.37,13.37,0,0,0-1.88.61,1.73,1.73,0,0,0-.64.51,3.8,3.8,0,0,0-.47,1.05l-.14.44,4.28,1.34C85.55,196.94,85.43,197.36,85.18,198.2Zm-5.28-3.95c.2-.65.31-1,.52-1.63a10.28,10.28,0,0,0,.54-2,1.26,1.26,0,0,0-.21-.77,1.34,1.34,0,0,0-.68-.49,1.22,1.22,0,0,0-.93,0,1.45,1.45,0,0,0-.69.7c-.09.17-.29.71-.59,1.62-.23.7-.35,1.05-.57,1.76Z"/><path class="0d2eacf5-7acc-4cea-a4f3-65e7845224dc" d="M88,179.83c.62-.68.93-1,1.57-1.67a5,5,0,0,1-1.61,8.3,5.63,5.63,0,0,1-4.24-.18,5.46,5.46,0,0,1-3.29-3,5.29,5.29,0,0,1,.24-4.27,5,5,0,0,1,2.56-2.7,4,4,0,0,1,2.3-.19c-.23.92-.35,1.38-.56,2.3a2.22,2.22,0,0,0-1.56.21,2.58,2.58,0,0,0-1.11,1.25,2.71,2.71,0,0,0-.07,2.28A3.93,3.93,0,0,0,84.48,184a4.44,4.44,0,0,0,3,.44A2.53,2.53,0,0,0,89,183a2.31,2.31,0,0,0,.14-1.62A3.23,3.23,0,0,0,88,179.83Z"/><path class="0d2eacf5-7acc-4cea-a4f3-65e7845224dc" d="M92.65,173.33c.33-.77.49-1.15.83-1.91a1.87,1.87,0,0,0,1.27.14,1.48,1.48,0,0,0,.88-.68,1.46,1.46,0,0,0,.17-1.19,1.84,1.84,0,0,0-.86-1.08,1.69,1.69,0,0,0-1.27-.29,1.43,1.43,0,0,0-1,.67,3.82,3.82,0,0,0-.39.93L91,168.87a2.07,2.07,0,0,0,.41-1.35,1.26,1.26,0,0,0-.61-.94,1.11,1.11,0,0,0-.92-.16,1.32,1.32,0,0,0-.77.63,1.4,1.4,0,0,0-.2,1,1.64,1.64,0,0,0,.66,1c-.53.64-.79,1-1.31,1.61a3.93,3.93,0,0,1-1-1.34,2.85,2.85,0,0,1-.17-1.52,4.37,4.37,0,0,1,.63-1.69A3.64,3.64,0,0,1,90,164.33a2.4,2.4,0,0,1,2,.28,2.58,2.58,0,0,1,1,2.62,2.62,2.62,0,0,1,1.59-.84,2.46,2.46,0,0,1,1.71.43A3.24,3.24,0,0,1,97.65,169a4.08,4.08,0,0,1-2.53,4.4A3.34,3.34,0,0,1,92.65,173.33Z"/><path class="0d2eacf5-7acc-4cea-a4f3-65e7845224dc" d="M102.27,160.65l1.51,1.17c-1.8,2.31-2.66,3.5-4.3,5.92A4.78,4.78,0,0,1,98.18,166a12.29,12.29,0,0,1-.72-3.46,17.33,17.33,0,0,0-.35-2.51,2.16,2.16,0,0,0-.74-1.12,1.36,1.36,0,0,0-1.09-.31,1.83,1.83,0,0,0-1.3,1.82,1.88,1.88,0,0,0,.77,1.14c-.58.68-.87,1-1.43,1.71a3.2,3.2,0,0,1-1.3-2.42,4.45,4.45,0,0,1,1-2.62,4,4,0,0,1,2.35-1.71,2.66,2.66,0,0,1,2.3.51,3.52,3.52,0,0,1,.92,1.07,5.78,5.78,0,0,1,.55,1.54,15.58,15.58,0,0,1,.24,2c.07.9.14,1.48.19,1.74a3.42,3.42,0,0,0,.21.69C100.72,162.66,101.23,162,102.27,160.65Z"/><path class="0d2eacf5-7acc-4cea-a4f3-65e7845224dc" d="M140.38,103.29l1.87-1.35,3.95,5.53a6.76,6.76,0,0,1,1,1.81,2.94,2.94,0,0,1-.07,1.9,4,4,0,0,1-1.45,1.77,3.37,3.37,0,0,1-2.52.78,3.63,3.63,0,0,1-2.29-1.54l1.54-1.46a2.79,2.79,0,0,0,1,.88,1.21,1.21,0,0,0,1.22-.19,1.23,1.23,0,0,0,.6-1,3.2,3.2,0,0,0-.76-1.57Z"/><path class="0d2eacf5-7acc-4cea-a4f3-65e7845224dc" d="M149.56,109.93c0-2,0-2.95.07-4.93-1.77-.62-2.66-.92-4.45-1.51l2.17-1.5,2.39,1c0-1,0-1.57.07-2.62l2.12-1.39c-.13,1.84-.18,2.76-.27,4.58,1.9.7,2.84,1.07,4.7,1.81l-2.14,1.4-2.68-1.11c0,1.16,0,1.75,0,2.91Z"/><path class="0d2eacf5-7acc-4cea-a4f3-65e7845224dc" d="M161.33,97.64l2.2-.51a4.92,4.92,0,0,1-5.94,5.92,6.53,6.53,0,0,1-4.34-6.91,5.07,5.07,0,0,1,2.5-3.29,4.81,4.81,0,0,1,3.51-.74,4.12,4.12,0,0,1,2,1.13l-1.68,1.57a2.25,2.25,0,0,0-1.39-.71,2.46,2.46,0,0,0-1.57.38,2.6,2.6,0,0,0-1.29,1.8,4,4,0,0,0,.81,2.77,4.45,4.45,0,0,0,2.17,2.06,2.47,2.47,0,0,0,2.11-.28,2.26,2.26,0,0,0,1-1.25A3.21,3.21,0,0,0,161.33,97.64Z"/><path class="0d2eacf5-7acc-4cea-a4f3-65e7845224dc" d="M175.41,94.43l-2.12,1.08-2-1.72c-1.55.81-2.32,1.23-3.86,2.08.15,1,.23,1.54.4,2.57l-2,1.14c-.67-4.57-1-6.86-1.45-11.49l2.14-1.15C170.15,89.88,171.93,91.38,175.41,94.43Zm-5.56-1.91c-1.28-1.12-1.93-1.68-3.23-2.79.22,1.69.33,2.54.58,4.22Z"/><path class="0d2eacf5-7acc-4cea-a4f3-65e7845224dc" d="M177.63,93.33l-3.92-8c-1.2.59-1.8.89-3,1.5l-.82-1.62c3.23-1.64,4.86-2.43,8.15-3.93l.76,1.65c-1.22.56-1.82.84-3,1.41l3.83,8.05Z"/><path class="0d2eacf5-7acc-4cea-a4f3-65e7845224dc" d="M193.22,85.13l.46,1.18c-2.67,1-4,1.58-6.63,2.7a2.32,2.32,0,0,1-.22-.9,4.75,4.75,0,0,1,.25-1.66,12.79,12.79,0,0,1,1-2.18,16.27,16.27,0,0,0,1.41-3,2.68,2.68,0,0,0,0-1.71,1.71,1.71,0,0,0-1-1,2.18,2.18,0,0,0-1.63.08,2.21,2.21,0,0,0-1.27,1.14,2.09,2.09,0,0,0,.05,1.69l-1.36.42a3.23,3.23,0,0,1,.11-2.56,3.86,3.86,0,0,1,2.08-1.72,3.68,3.68,0,0,1,2.72-.17A2.73,2.73,0,0,1,190.84,79a3.13,3.13,0,0,1,.2,1.28,5,5,0,0,1-.37,1.55,24.09,24.09,0,0,1-1.24,2.53c-.5.92-.81,1.54-.93,1.84a4.3,4.3,0,0,0-.25.88C190.23,86.31,191.22,85.91,193.22,85.13Z"/><path class="0d2eacf5-7acc-4cea-a4f3-65e7845224dc" d="M194,83.17l1.28-.61a2.48,2.48,0,0,0,1.21,1.17,2,2,0,0,0,1.46,0,2.17,2.17,0,0,0,1.3-1.23,2.69,2.69,0,0,0,0-2A2.38,2.38,0,0,0,198.07,79a2.31,2.31,0,0,0-1.84,0,2.42,2.42,0,0,0-1,.68,2.25,2.25,0,0,0-.52,1l-1.25.3c-.38-2.21-.56-3.32-.92-5.54,2.12-.79,3.19-1.17,5.33-1.91l.41,1.19c-1.71.59-2.56.89-4.26,1.51.17,1.17.26,1.75.43,2.92a3.68,3.68,0,0,1,1.76-1.36,3.37,3.37,0,0,1,2.66.1,3.32,3.32,0,0,1,1.76,2,3.91,3.91,0,0,1,0,2.66,3.52,3.52,0,0,1-2.26,2.18,3.58,3.58,0,0,1-2.55.06A3.22,3.22,0,0,1,194,83.17Z"/><path class="0d2eacf5-7acc-4cea-a4f3-65e7845224dc" d="M205.84,78.65l-.4-1.27c1.6-.5,2.4-.74,4-1.21l.37,1.27C208.22,77.91,207.43,78.15,205.84,78.65Z"/><path class="0d2eacf5-7acc-4cea-a4f3-65e7845224dc" d="M222.38,76.22l.28,1.24c-2.81.64-4.2,1-7,1.71a2.31,2.31,0,0,1-.08-.92,4.75,4.75,0,0,1,.5-1.61,12.74,12.74,0,0,1,1.32-2,16.28,16.28,0,0,0,1.85-2.79,2.67,2.67,0,0,0,.26-1.69,1.71,1.71,0,0,0-.88-1.15,2.2,2.2,0,0,0-1.63-.16,2.23,2.23,0,0,0-1.43.94,2.08,2.08,0,0,0-.2,1.68l-1.41.22a3.23,3.23,0,0,1,.49-2.51,3.88,3.88,0,0,1,2.32-1.4,3.7,3.7,0,0,1,2.73.23,2.72,2.72,0,0,1,1.4,1.86,3.11,3.11,0,0,1,0,1.3,5,5,0,0,1-.6,1.48A24.1,24.1,0,0,1,218.73,75c-.63.84-1,1.4-1.19,1.69a4.31,4.31,0,0,0-.38.83C219.24,76.95,220.29,76.69,222.38,76.22Z"/><path class="0d2eacf5-7acc-4cea-a4f3-65e7845224dc" d="M229.39,67.79l-1.34.36a2.42,2.42,0,0,0-.73-1,1.89,1.89,0,0,0-1.48-.28,2,2,0,0,0-1.08.58,3,3,0,0,0-.74,1.51,6.56,6.56,0,0,0,.13,2.51,3.09,3.09,0,0,1,1-1.3,3.35,3.35,0,0,1,1.41-.65A3.17,3.17,0,0,1,229,70a3.38,3.38,0,0,1,1.41,2.29,4.08,4.08,0,0,1-.1,1.93,3.25,3.25,0,0,1-1,1.53,3.41,3.41,0,0,1-1.63.79,3.51,3.51,0,0,1-2.92-.63,6.08,6.08,0,0,1-1.89-3.68,6.81,6.81,0,0,1,.22-4.68,3.56,3.56,0,0,1,2.57-1.79,3.33,3.33,0,0,1,2.31.27A2.93,2.93,0,0,1,229.39,67.79Zm-4.61,5.63a3,3,0,0,0,.56,1.21,2.19,2.19,0,0,0,1,.76,2.11,2.11,0,0,0,1.16.1,1.93,1.93,0,0,0,1.31-.95,2.63,2.63,0,0,0,.26-1.91,2.42,2.42,0,0,0-.94-1.61,2.06,2.06,0,0,0-1.65-.33,2.14,2.14,0,0,0-1.42.95A2.25,2.25,0,0,0,224.79,73.43Z"/><line class="7e4cf3ee-0341-4d9c-b66f-7f9a80046258" x1="311.75" y1="182.07" x2="311.75" y2="221.81"/><text class="7558923e-7625-4120-9dbe-8374457e80c4" transform="translate(198.19 324.42) scale(0.99 1)">135 escaños</text><path class="0b4f3f09-6d59-4bc5-a8f6-fc0dddbcba55" d="M89.83,315.64a180.5,180.5,0,0,1-8.48-44.44l126.1-7.93A54.15,54.15,0,0,0,210,276.6Z"/><path class="0ff87729-b5f7-4e59-9695-872d0ee84c10" d="M81.36,271.2a180.5,180.5,0,0,1,58.43-144.62l85.2,93.3a54.15,54.15,0,0,0-17.53,43.39Z"/><path class="1f99b54c-4d27-4b98-bbec-8bbfff7c71b0" d="M139.79,126.57A180.5,180.5,0,0,1,256.46,79.44L260,205.74a54.15,54.15,0,0,0-35,14.14Z"/><path class="cc610bd9-5468-4d8b-84d3-deaa1bbf2984" d="M256.46,79.44a180.5,180.5,0,0,1,45,4.42l-28,123.21A54.15,54.15,0,0,0,260,205.74Z"/><path class="19df1988-f375-45be-b79a-7f49040fcc83" d="M301.49,83.85a180.5,180.5,0,0,1,90.72,51.54l-91.5,87.13a54.15,54.15,0,0,0-27.22-15.46Z"/><path class="d88d319b-b297-4698-91c7-160b79281e85" d="M392.21,135.39a180.5,180.5,0,0,1,48.52,145.85l-125.46-15a54.15,54.15,0,0,0-14.56-43.75Z"/><path class="f090e715-4255-4a59-9732-ac1be8952278" d="M440.73,281.24a180.5,180.5,0,0,1-7.56,34.41L313,276.6a54.15,54.15,0,0,0,2.27-10.32Z"/><circle class="9f30df87-37d4-4df5-b77a-e51d98977006" cx="261.33" cy="257.57" r="120.57"/><line class="80c9f61a-4834-4ef8-83fb-2327b5d42da2" x1="259.76" y1="46.5" x2="259.76" y2="49"/><line class="a4db7c47-450d-4d4c-a1fd-cb8a09866dd1" x1="259.76" y1="53.86" x2="259.76" y2="226.57"/><line class="80c9f61a-4834-4ef8-83fb-2327b5d42da2" x1="259.76" y1="229" x2="259.76" y2="231.5"/><text class="361c1cab-fc50-49ef-97a9-a2f9fc667fc2" transform="translate(197.77 251.08) scale(0.99 1)">Mayoría absoluta: <tspan class="706e4efd-91fb-4680-98d6-eabf4bbee2b9" x="123.4" y="0">68</tspan></text><text class="7558923e-7625-4120-9dbe-8374457e80c4" transform="translate(210.19 299.42) scale(0.99 1)">135 escaños</text><text class="0fbeca25-e892-4110-898a-0924adb0f6b7" transform="translate(11.5 370.02) scale(0.99 1)">Fuente: CIS de noviembre de 2017</text></svg>