<svg id="50ebc0fe-7d2a-4851-931a-b0d3ecad278e" data-name="Capa 1" xmlns="http://www.w3.org/2000/svg" viewBox="0 0 534 497"><defs><style>.\30 3d3a476-43ec-4024-8cb2-9c1f54dd6ac0,.e4f0ffc0-6caf-4840-9d4e-4ac7115b8851,.f66839ac-6b8f-4b57-bdea-951b91ca88a8{fill:none;}.e4f0ffc0-6caf-4840-9d4e-4ac7115b8851{stroke:#757575;}.\30 3d3a476-43ec-4024-8cb2-9c1f54dd6ac0,.\34 7849f7c-8fbd-4309-9b4f-8b68ba4e9345,.\36 21ac3d4-e72b-4c3f-bc21-4c4fc88d31c2,.a7aeb09f-9bba-467a-adf2-1e47748c22e2,.b4367765-279d-4da5-b1df-9bb2c8daa0d3,.e1be63e3-00ce-4195-bb1d-e343387d5a70,.e26549aa-305c-4cc2-b53f-3569118b6f95,.e44a5a27-1673-4559-8fce-89593838e1de,.e4f0ffc0-6caf-4840-9d4e-4ac7115b8851,.f66839ac-6b8f-4b57-bdea-951b91ca88a8{stroke-miterlimit:10;}.f7b1e152-fbb0-4455-896e-57687740fefa{font-size:16px;}.\32 bc17b46-dc6d-45b3-8c2d-0fb2cc339d83,.\34 4b7da4d-723e-4fae-815a-3779ad267e91,.\38 9ca6243-e53f-45a6-af8d-d525ea683285,.f7b1e152-fbb0-4455-896e-57687740fefa{fill:#757575;}.\33 24011ac-1807-469d-a1be-1b740ef6b92e,.\34 4b7da4d-723e-4fae-815a-3779ad267e91,.\38 9ca6243-e53f-45a6-af8d-d525ea683285,.f7b1e152-fbb0-4455-896e-57687740fefa{font-family:ArialMT, Arial;}.\32 bc17b46-dc6d-45b3-8c2d-0fb2cc339d83,.\34 4b7da4d-723e-4fae-815a-3779ad267e91{font-size:13px;}.\32 bc17b46-dc6d-45b3-8c2d-0fb2cc339d83,.\39 1e52cd1-396b-49ae-b481-f68dddee83d5{font-family:Arial-BoldMT, Arial;font-weight:700;}.\33 24011ac-1807-469d-a1be-1b740ef6b92e,.\38 9ca6243-e53f-45a6-af8d-d525ea683285{font-size:15px;}.\34 187ef1c-c390-4b4c-94f9-4f72b1796a4e{letter-spacing:-0.02em;}.\36 560ddc1-fd7e-4ae2-b158-7d24fa122cf9{letter-spacing:-0.07em;}.\30 3d3a476-43ec-4024-8cb2-9c1f54dd6ac0{stroke:#d6d6d6;}.\39 1e52cd1-396b-49ae-b481-f68dddee83d5{font-size:26px;}.\33 24011ac-1807-469d-a1be-1b740ef6b92e,.\39 1e52cd1-396b-49ae-b481-f68dddee83d5,.e9408d78-eef3-4271-b68a-32fca7fe9f33{fill:#323232;}.be69758f-00a2-44bf-8ce5-14b9c6b39b23{fill:#283659;}.a39aece3-6c3c-422f-9660-d0ba5e7f97e7{fill:#fff;}.c98061d3-19e1-44b3-9a51-53c71bb8cb72{opacity:0.82;}.\32 fe39b8c-6811-42f1-a56c-9f3cc9336efe,.e26549aa-305c-4cc2-b53f-3569118b6f95{fill:#991d26;}.\34 7849f7c-8fbd-4309-9b4f-8b68ba4e9345,.\36 21ac3d4-e72b-4c3f-bc21-4c4fc88d31c2,.a7aeb09f-9bba-467a-adf2-1e47748c22e2,.b4367765-279d-4da5-b1df-9bb2c8daa0d3,.e1be63e3-00ce-4195-bb1d-e343387d5a70,.e26549aa-305c-4cc2-b53f-3569118b6f95,.e44a5a27-1673-4559-8fce-89593838e1de{stroke:#fff;stroke-width:0.5px;}.\32 277520c-bce7-49ef-bb90-0c359adedc9c,.\32 fe39b8c-6811-42f1-a56c-9f3cc9336efe,.\33 1bff6ec-dd78-435a-8539-6a7efd16c0e2,.\34 7849f7c-8fbd-4309-9b4f-8b68ba4e9345,.\35 8fb3bc0-7b45-418f-a21a-28e56ab59e5e,.\36 21ac3d4-e72b-4c3f-bc21-4c4fc88d31c2,.\36 e9c0852-7cd1-471a-8663-e794810b67d3,.\36 f32940b-de65-464b-bff4-42ba63a36c4d,.a7aeb09f-9bba-467a-adf2-1e47748c22e2,.b4367765-279d-4da5-b1df-9bb2c8daa0d3,.e1be63e3-00ce-4195-bb1d-e343387d5a70,.e26549aa-305c-4cc2-b53f-3569118b6f95,.e44a5a27-1673-4559-8fce-89593838e1de{opacity:0.76;}.\33 25e5211-40ed-4f5f-a807-c37dc0146826{opacity:0.86;}.\35 8fb3bc0-7b45-418f-a21a-28e56ab59e5e,.e1be63e3-00ce-4195-bb1d-e343387d5a70{fill:#59a5a5;}.\32 277520c-bce7-49ef-bb90-0c359adedc9c,.\36 21ac3d4-e72b-4c3f-bc21-4c4fc88d31c2{fill:#3f4d78;}.\33 1bff6ec-dd78-435a-8539-6a7efd16c0e2,.e44a5a27-1673-4559-8fce-89593838e1de{fill:#efb21b;}.\37 6edf1d2-3b8c-46be-883d-ca9914fb51bb{opacity:0.52;}.\31 410a9cb-bb0d-4afb-8bb9-688d93ddb479,.a7aeb09f-9bba-467a-adf2-1e47748c22e2,.d7b581a2-9225-412f-8fc0-27cf6983c46e{fill:#ffe600;}.\34 7849f7c-8fbd-4309-9b4f-8b68ba4e9345,.\36 f32940b-de65-464b-bff4-42ba63a36c4d{fill:#d57928;}.\36 e9c0852-7cd1-471a-8663-e794810b67d3,.b4367765-279d-4da5-b1df-9bb2c8daa0d3{fill:#8e244f;}.d7b581a2-9225-412f-8fc0-27cf6983c46e{opacity:0.9;}.f66839ac-6b8f-4b57-bdea-951b91ca88a8{stroke:#323232;}</style></defs><title>2017.11_Metaencuesta2_encuestas</title><line class="e4f0ffc0-6caf-4840-9d4e-4ac7115b8851" x1="9" y1="448.42" x2="530" y2="448.42"/><text class="f7b1e152-fbb0-4455-896e-57687740fefa" transform="translate(7.66 442.02) scale(0.99 1)">0</text><text class="f7b1e152-fbb0-4455-896e-57687740fefa" transform="translate(6.66 382.02) scale(0.99 1)">5</text><text class="f7b1e152-fbb0-4455-896e-57687740fefa" transform="translate(4.5 320.02) scale(0.99 1)">10</text><text class="f7b1e152-fbb0-4455-896e-57687740fefa" transform="translate(6.83 198.02) scale(0.99 1)">20</text><text class="f7b1e152-fbb0-4455-896e-57687740fefa" transform="translate(6.83 135.02) scale(0.99 1)">25</text><text class="f7b1e152-fbb0-4455-896e-57687740fefa" transform="translate(9.83 72.02) scale(0.99 1)">30</text><text class="f7b1e152-fbb0-4455-896e-57687740fefa" transform="translate(6.83 258.02) scale(0.99 1)">15</text><text class="44b7da4d-723e-4fae-815a-3779ad267e91" transform="translate(3.5 491.02) scale(0.99 1)">Fuente: Electrograph</text><text class="2bc17b46-dc6d-45b3-8c2d-0fb2cc339d83" transform="translate(57.5 467.02) scale(0.99 1)">ERC</text><text class="89ca6243-e53f-45a6-af8d-d525ea683285" transform="translate(291.5 198.02) scale(0.99 1)">Promedio de todas las encuestas</text><text class="89ca6243-e53f-45a6-af8d-d525ea683285" transform="translate(282.5 135.02) scale(0.99 1)">Resultado de cada encuesta</text><text class="2bc17b46-dc6d-45b3-8c2d-0fb2cc339d83" transform="translate(134.5 467.02) scale(0.99 1)">Cs</text><text class="2bc17b46-dc6d-45b3-8c2d-0fb2cc339d83" transform="translate(471.5 468.02) scale(0.99 1)">CU<tspan class="4187ef1c-c390-4b4c-94f9-4f72b1796a4e" x="18.78" y="0">P</tspan></text><text class="2bc17b46-dc6d-45b3-8c2d-0fb2cc339d83" transform="translate(276.5 467.02) scale(0.99 1)">PSC</text><text class="2bc17b46-dc6d-45b3-8c2d-0fb2cc339d83" transform="translate(197.5 467.02) scale(0.99 1)">JxC<tspan class="6560ddc1-fd7e-4ae2-b158-7d24fa122cf9" x="23.85" y="0">A</tspan><tspan x="32.27" y="0">T</tspan></text><text class="2bc17b46-dc6d-45b3-8c2d-0fb2cc339d83" transform="translate(337.5 467.02) scale(0.99 1)">CeC-<tspan class="4187ef1c-c390-4b4c-94f9-4f72b1796a4e" x="30.34" y="0">P</tspan></text><text class="2bc17b46-dc6d-45b3-8c2d-0fb2cc339d83" transform="translate(413.5 467.02) scale(0.99 1)">P<tspan class="4187ef1c-c390-4b4c-94f9-4f72b1796a4e" x="8.67" y="0">P</tspan></text><line class="03d3a476-43ec-4024-8cb2-9c1f54dd6ac0" x1="7.85" y1="385.5" x2="528.36" y2="385.5"/><line class="03d3a476-43ec-4024-8cb2-9c1f54dd6ac0" x1="7.85" y1="323.5" x2="528.36" y2="323.5"/><line class="03d3a476-43ec-4024-8cb2-9c1f54dd6ac0" x1="7.85" y1="261.5" x2="528.36" y2="261.5"/><line class="03d3a476-43ec-4024-8cb2-9c1f54dd6ac0" x1="7.85" y1="201.5" x2="528.36" y2="201.5"/><line class="03d3a476-43ec-4024-8cb2-9c1f54dd6ac0" x1="7.85" y1="139.5" x2="528.36" y2="139.5"/><line class="03d3a476-43ec-4024-8cb2-9c1f54dd6ac0" x1="8.85" y1="77.5" x2="529.36" y2="77.5"/><text class="91e52cd1-396b-49ae-b481-f68dddee83d5" transform="translate(57.62 25.62)">Promedio de los sondeos del 21-D</text><text class="324011ac-1807-469d-a1be-1b740ef6b92e" transform="translate(89.13 46.74)">Porcentaje de voto de las encuestas publicadas desde <tspan x="68.39" y="18">el 1 de octubre al 12 de diciembre</tspan></text><polygon class="be69758f-00a2-44bf-8ce5-14b9c6b39b23" points="431 478.27 527.44 478.27 527.44 492.93 431 492.93 431 478.27 431 478.27"/><path class="a39aece3-6c3c-422f-9660-d0ba5e7f97e7" d="M508.36,481.55h-3.7V482l1,.23v6.81a.81.81,0,0,1-.68.35,1.45,1.45,0,0,1-1.2-.88l-.92-1.65a1.91,1.91,0,0,0-1.69-1.14v-.12a2.26,2.26,0,0,0,2.33-2.1c0-1.42-1.29-2-2.78-2h-3.35V482l1.1.23v6.91h0l-1.26.24L494,480.83a4,4,0,0,1-1.13,1l.12.35-2.87,7-.86.23v.46h2.62v-.46l-.85-.22,1-2.56h2.66l.93,2.54-1,.24v.46H501v-.46l-1-.23V486a1.57,1.57,0,0,1,1.42,1l1.26,2.25a2,2,0,0,0,1.82,1.11,1.8,1.8,0,0,0,1.2-.49h2.85a4.28,4.28,0,0,0,4.39-4.16,4.17,4.17,0,0,0-4.47-4.16ZM492.23,486l1.12-3,1.08,3Zm8.23-.62h-.57v-3.1h.71a1.4,1.4,0,0,1,1.45,1.48,1.61,1.61,0,0,1-1.57,1.62Zm7.82,3.83h-1.18v-6.93h1.22c1.89,0,3,1.31,3,3.46s-1.21,3.46-3.08,3.46Z"/><path class="a39aece3-6c3c-422f-9660-d0ba5e7f97e7" d="M447.71,489.17l-3.07-8.34a3.94,3.94,0,0,1-1.13,1l.12.35-2.85,7-.61.23-.18.46h2.54v-.46l-.85-.22,1-2.56h2.66l.93,2.54-1,.24v.46h3.42v-.46l-.91-.23Zm-4.87-3.2,1.13-3,1.08,3Z"/><polygon class="a39aece3-6c3c-422f-9660-d0ba5e7f97e7" points="440.39 487.75 440.08 487.58 438.29 489.21 436.75 489.21 436.75 482.25 437.68 482.01 437.68 481.54 434.37 481.54 434.37 482.01 435.3 482.25 435.3 489.15 434.37 489.39 434.37 489.86 439.57 489.86 440.39 487.75 440.39 487.75"/><polygon class="a39aece3-6c3c-422f-9660-d0ba5e7f97e7" points="454.83 481.54 454.83 482.01 455.83 482.25 453.66 487.81 451.37 482.24 452.45 482.01 452.45 481.54 448.76 481.54 448.76 482.01 449.82 482.24 453.1 490.14 453.45 490.14 456.72 482.25 456.75 482.25 457.77 482.01 457.77 481.54 454.83 481.54 454.83 481.54"/><path class="a39aece3-6c3c-422f-9660-d0ba5e7f97e7" d="M487.6,481.55V482l1,.24s.07,4.12,0,5.16a2.1,2.1,0,0,1-2.14,2h-.11a2.07,2.07,0,0,1-2.24-2.13v-5.07l1-.22v-.46h-3.34V482l.95.23v5.11a3.07,3.07,0,0,0,3.3,2.91,3,3,0,0,0,3.3-2.91l.06-5.1,1-.24v-.46Z"/><path class="a39aece3-6c3c-422f-9660-d0ba5e7f97e7" d="M523.7,489.15l-3.06-8.32a3.94,3.94,0,0,1-1.13,1l.12.35-2.86,7-.49.2-.66-.21v-6.94l1-.23v-.46h-3.48V482l1,.24v6.92l-1,.23v.46h5.3v-.46l-.85-.23,1-2.56h2.66l.93,2.54-1,.24v.46h3.43v-.46l-.92-.24ZM518.84,486l1.13-3,1.08,3Z"/><path class="a39aece3-6c3c-422f-9660-d0ba5e7f97e7" d="M469.75,481.55V482l1,.24.06,5.44-5.21-6.14H463.4V482l1,.22.08,0-.07,6.88h0l-1,.24-3.14-8.56a4,4,0,0,1-1.1,1l.12.35-2.87,7-.86.23v.46h2.62v-.46l-.85-.22,1-2.56h2.66l.93,2.54-1,.24v.46h5.47v-.46l-1-.24-.12-6,6,7h.39l.08-7.9,1-.23v-.46ZM458.44,486l1.13-3,1.08,3Z"/><path class="a39aece3-6c3c-422f-9660-d0ba5e7f97e7" d="M478.52,485.61v.46l.94.24V489a3.11,3.11,0,0,1-1.88.62c-1.89,0-3.1-1.57-3.1-3.79s1.18-4,3.14-4a3,3,0,0,1,2.78,2.26l.27-.16v-2.62l-.24-.13-.52.64a5.24,5.24,0,0,0-2.3-.59,4.65,4.65,0,0,0-4.66,4.58,4.22,4.22,0,0,0,4,4.43h.3a4.29,4.29,0,0,0,2.68-.89l.73.49h.24V486.3l.79-.3v-.38Z"/><g class="c98061d3-19e1-44b3-9a51-53c71bb8cb72"><rect class="e26549aa-305c-4cc2-b53f-3569118b6f95" x="267.65" y="256" width="42.84" height="191.25"/></g><g class="325e5211-40ed-4f5f-a807-c37dc0146826"><rect class="e1be63e3-00ce-4195-bb1d-e343387d5a70" x="400.58" y="363" width="42.84" height="84.25"/></g><g class="325e5211-40ed-4f5f-a807-c37dc0146826"><rect class="621ac3d4-e72b-4c3f-bc21-4c4fc88d31c2" x="194.41" y="247" width="42.84" height="200.25"/></g><g class="c98061d3-19e1-44b3-9a51-53c71bb8cb72"><rect class="e44a5a27-1673-4559-8fce-89593838e1de" x="53" y="162" width="42.84" height="285.25"/></g><g class="76edf1d2-3b8c-46be-883d-ca9914fb51bb"><rect class="a7aeb09f-9bba-467a-adf2-1e47748c22e2" x="463.82" y="371" width="42.18" height="76.25"/></g><g class="c98061d3-19e1-44b3-9a51-53c71bb8cb72"><polygon class="47849f7c-8fbd-4309-9b4f-8b68ba4e9345" points="122.5 185 165.5 185 165.5 447.5 122.57 447.5 122.5 185"/></g><g class="325e5211-40ed-4f5f-a807-c37dc0146826"><rect class="b4367765-279d-4da5-b1df-9bb2c8daa0d3" x="336.33" y="345" width="42.84" height="102.25"/></g><circle class="31bff6ec-dd78-435a-8539-6a7efd16c0e2" cx="56" cy="122" r="5"/><circle class="31bff6ec-dd78-435a-8539-6a7efd16c0e2" cx="63" cy="161" r="5"/><circle class="31bff6ec-dd78-435a-8539-6a7efd16c0e2" cx="62" cy="121" r="5"/><circle class="31bff6ec-dd78-435a-8539-6a7efd16c0e2" cx="67" cy="194" r="5"/><circle class="31bff6ec-dd78-435a-8539-6a7efd16c0e2" cx="72" cy="154" r="5"/><circle class="31bff6ec-dd78-435a-8539-6a7efd16c0e2" cx="81" cy="183" r="5"/><circle class="6f32940b-de65-464b-bff4-42ba63a36c4d" cx="126" cy="207" r="5"/><circle class="6f32940b-de65-464b-bff4-42ba63a36c4d" cx="140" cy="169" r="5"/><circle class="6f32940b-de65-464b-bff4-42ba63a36c4d" cx="146" cy="217" r="5"/><circle class="6f32940b-de65-464b-bff4-42ba63a36c4d" cx="135" cy="192" r="5"/><circle class="6f32940b-de65-464b-bff4-42ba63a36c4d" cx="131" cy="136" r="5"/><circle class="6f32940b-de65-464b-bff4-42ba63a36c4d" cx="152" cy="170" r="5"/><circle class="6f32940b-de65-464b-bff4-42ba63a36c4d" cx="144" cy="196" r="5"/><circle class="6f32940b-de65-464b-bff4-42ba63a36c4d" cx="153" cy="186" r="5"/><circle class="6f32940b-de65-464b-bff4-42ba63a36c4d" cx="160" cy="189" r="5"/><circle class="2277520c-bce7-49ef-bb90-0c359adedc9c" cx="200" cy="327" r="5"/><circle class="2277520c-bce7-49ef-bb90-0c359adedc9c" cx="211" cy="229" r="5"/><circle class="2277520c-bce7-49ef-bb90-0c359adedc9c" cx="215" cy="233" r="5"/><circle class="2277520c-bce7-49ef-bb90-0c359adedc9c" cx="207" cy="280" r="5"/><circle class="2277520c-bce7-49ef-bb90-0c359adedc9c" cx="203" cy="280" r="5"/><circle class="6e9c0852-7cd1-471a-8663-e794810b67d3" cx="340" cy="313" r="5"/><circle class="6e9c0852-7cd1-471a-8663-e794810b67d3" cx="345" cy="342" r="5"/><circle class="6e9c0852-7cd1-471a-8663-e794810b67d3" cx="350" cy="340" r="5"/><circle class="6e9c0852-7cd1-471a-8663-e794810b67d3" cx="343" cy="366" r="5"/><circle class="6e9c0852-7cd1-471a-8663-e794810b67d3" cx="355" cy="357" r="5"/><circle class="6e9c0852-7cd1-471a-8663-e794810b67d3" cx="362" cy="342" r="5"/><circle class="6e9c0852-7cd1-471a-8663-e794810b67d3" cx="374" cy="344" r="5"/><circle class="6e9c0852-7cd1-471a-8663-e794810b67d3" cx="366" cy="354" r="5"/><circle class="6e9c0852-7cd1-471a-8663-e794810b67d3" cx="369" cy="354" r="5"/><circle class="58fb3bc0-7b45-418f-a21a-28e56ab59e5e" cx="414" cy="377" r="5"/><circle class="58fb3bc0-7b45-418f-a21a-28e56ab59e5e" cx="409" cy="377" r="5"/><circle class="58fb3bc0-7b45-418f-a21a-28e56ab59e5e" cx="419" cy="356" r="5"/><circle class="58fb3bc0-7b45-418f-a21a-28e56ab59e5e" cx="409" cy="332" r="5"/><circle class="58fb3bc0-7b45-418f-a21a-28e56ab59e5e" cx="428" cy="358" r="5"/><circle class="58fb3bc0-7b45-418f-a21a-28e56ab59e5e" cx="432" cy="371" r="5"/><circle class="58fb3bc0-7b45-418f-a21a-28e56ab59e5e" cx="437" cy="371" r="5"/><circle class="58fb3bc0-7b45-418f-a21a-28e56ab59e5e" cx="424" cy="376" r="5"/><circle class="1410a9cb-bb0d-4afb-8bb9-688d93ddb479" cx="476" cy="366" r="5"/><circle class="1410a9cb-bb0d-4afb-8bb9-688d93ddb479" cx="475" cy="379" r="5" transform="translate(-132.58 389.32) rotate(-39.56)"/><circle class="1410a9cb-bb0d-4afb-8bb9-688d93ddb479" cx="479" cy="371" r="5"/><circle class="d7b581a2-9225-412f-8fc0-27cf6983c46e" cx="486" cy="373" r="5"/><circle class="d7b581a2-9225-412f-8fc0-27cf6983c46e" cx="493" cy="386" r="5"/><circle class="d7b581a2-9225-412f-8fc0-27cf6983c46e" cx="495" cy="355" r="5"/><circle class="d7b581a2-9225-412f-8fc0-27cf6983c46e" cx="499" cy="377" r="5"/><circle class="1410a9cb-bb0d-4afb-8bb9-688d93ddb479" cx="465" cy="370" r="5"/><circle class="1410a9cb-bb0d-4afb-8bb9-688d93ddb479" cx="469" cy="377" r="5"/><circle class="58fb3bc0-7b45-418f-a21a-28e56ab59e5e" cx="403" cy="340" r="5"/><circle class="2277520c-bce7-49ef-bb90-0c359adedc9c" cx="226" cy="221" r="5"/><circle class="2277520c-bce7-49ef-bb90-0c359adedc9c" cx="231" cy="215" r="5"/><circle class="2277520c-bce7-49ef-bb90-0c359adedc9c" cx="218" cy="211" r="5"/><circle class="2fe39b8c-6811-42f1-a56c-9f3cc9336efe" cx="284" cy="266" r="5"/><circle class="2fe39b8c-6811-42f1-a56c-9f3cc9336efe" cx="289" cy="248" r="5"/><circle class="2fe39b8c-6811-42f1-a56c-9f3cc9336efe" cx="297" cy="212" r="5"/><circle class="2fe39b8c-6811-42f1-a56c-9f3cc9336efe" cx="302" cy="251" r="5"/><circle class="2fe39b8c-6811-42f1-a56c-9f3cc9336efe" cx="305" cy="271" r="5"/><circle class="2fe39b8c-6811-42f1-a56c-9f3cc9336efe" cx="300" cy="243" r="5"/><circle class="2fe39b8c-6811-42f1-a56c-9f3cc9336efe" cx="272" cy="259" r="5"/><circle class="2fe39b8c-6811-42f1-a56c-9f3cc9336efe" cx="277" cy="263" r="5"/><circle class="2fe39b8c-6811-42f1-a56c-9f3cc9336efe" cx="292" cy="259" r="5"/><circle class="31bff6ec-dd78-435a-8539-6a7efd16c0e2" cx="76" cy="196" r="5"/><circle class="31bff6ec-dd78-435a-8539-6a7efd16c0e2" cx="90" cy="186" r="5"/><circle class="31bff6ec-dd78-435a-8539-6a7efd16c0e2" cx="85" cy="172" r="5"/><path class="f66839ac-6b8f-4b57-bdea-951b91ca88a8" d="M285.5,194.5s-42.15-.92-51,41.11"/><polygon class="e9408d78-eef3-4271-b68a-32fca7fe9f33" points="231.4 232.21 234.76 234.41 238.69 233.51 233.5 241.5 231.4 232.21"/><path class="f66839ac-6b8f-4b57-bdea-951b91ca88a8" d="M278.5,127.5c-.12-.2-123.37-24.72-123.43,31"/><polygon class="e9408d78-eef3-4271-b68a-32fca7fe9f33" points="151.3 155.95 155.09 157.31 158.7 155.53 155.5 164.5 151.3 155.95"/></svg>