<svg id="Capa_1" data-name="Capa 1" xmlns="http://www.w3.org/2000/svg" viewBox="0 0 594 578"><title>2017.11_Metaencuesta</title><path d="M22.37,523.66a280.87,280.87,0,0,1,84.25-300l128,149.23a84.26,84.26,0,0,0-25.28,90Z" style="fill:#991d26;stroke:#fff;stroke-linejoin:round;stroke-width:1.60000002384186px;opacity:0.77"/><path d="M106.62,223.69a280.87,280.87,0,0,1,236-62.62L305.43,354.13a84.26,84.26,0,0,0-70.79,18.79Z" style="fill:#59a5a5;stroke:#fff;stroke-linejoin:round;stroke-width:1.60000002384186px;opacity:0.77"/><path d="M342.6,161.07a280.87,280.87,0,0,1,163.72,97.27l-151.78,125a84.26,84.26,0,0,0-49.12-29.18Z" style="fill:#d57928;stroke:#fff;stroke-linejoin:round;stroke-width:1.60000002384186px;opacity:0.77"/><path d="M506.32,258.34a280.87,280.87,0,0,1,62.62,150.25l-195.61,19.8a84.26,84.26,0,0,0-18.78-45.07Z" style="fill:#8e244f;stroke:#fff;stroke-linejoin:round;stroke-width:1.60000002384186px;opacity:0.77"/><path d="M568.94,408.59a280.87,280.87,0,0,1-12.32,115.08l-187-60.76a84.26,84.26,0,0,0,3.7-34.52Z" style="fill:#9ed879;stroke:#fff;stroke-linejoin:round;stroke-width:0.5px"/><path d="M524,432c0,129.71-107.51,238-237.21,238S51.92,564.84,51.92,435.13,157.08,200.27,286.79,200.27,524,302.29,524,432Z" style="fill:#fff;stroke:#fff;stroke-linejoin:round;stroke-width:1.60000002384186px"/><path d="M62.4,510.28C21.95,385.78,90.08,252.06,214.58,211.61q6.17-2,12.45-3.67l42.56,160.37a71.11,71.11,0,0,0-50.49,87q.5,1.88,1.1,3.73Z" style="fill:#991d26;stroke:#fff;stroke-linejoin:round;stroke-width:2px;opacity:0.49"/><path d="M227,207.94A237,237,0,0,1,470.8,286.37L342.72,391.84a71.11,71.11,0,0,0-73.13-23.53Z" style="fill:#59a5a5;stroke:#fff;stroke-linejoin:round;stroke-width:2px;opacity:0.49"/><path d="M470.8,286.37a237,237,0,0,1,50.63,110.55L357.9,425a71.11,71.11,0,0,0-15.19-33.17Z" style="fill:#8e244f;stroke:#fff;stroke-linejoin:round;stroke-width:2px;opacity:0.49"/><path d="M524.52,438.3a237,237,0,0,1-15,71.93l-155.2-58.67a71.11,71.11,0,0,0,4.5-21.58Z" style="fill:#d57928;stroke:#fff;stroke-linejoin:round;stroke-width:2px;opacity:0.49"/><path d="M521.34,398.17A237,237,0,0,1,524.27,439l-165.9-2.47a71.11,71.11,0,0,0-.88-12.25Z" style="fill:#a8831b;stroke:#fff;stroke-linejoin:round;stroke-width:2px;opacity:0.49"/><text transform="translate(8.27 32.4)" style="font-size:31px;fill:#323232;font-family:Arial-BoldMT, Arial;font-weight:700">Composición del parlamento andaluz</text><text transform="translate(53.02 58.74)" style="font-size:15px;fill:#323232;font-family:ArialMT, Arial">Comparación del resultado de las <tspan x="227.63" y="0" style="font-family:Arial-BoldMT, Arial;font-weight:700">elecciones de 2015</tspan><tspan x="363.55" y="0" xml:space="preserve"> con las del </tspan><tspan x="443.59" y="0" style="font-family:Arial-BoldMT, Arial;font-weight:700">2018</tspan></text><path d="M17,350.61,6.33,349.46c.2-1.83.32-2.75.59-4.57a11.56,11.56,0,0,1,.39-1.81,3.88,3.88,0,0,1,.75-1.39,2.67,2.67,0,0,1,1.2-.76,3,3,0,0,1,1.51-.08,3.21,3.21,0,0,1,2.1,1.36,4.91,4.91,0,0,1,.37,3.49c-.18,1.16-.26,1.75-.4,2.92l4.33.53C17.1,349.74,17.07,350,17,350.61Zm-5.42-2.13c.15-1.19.23-1.79.41-3a3.5,3.5,0,0,0-.17-2.18,1.77,1.77,0,0,0-1.31-.87,1.8,1.8,0,0,0-1.2.17,1.76,1.76,0,0,0-.79.88A7,7,0,0,0,8.19,345c-.19,1.22-.27,1.83-.42,3.06Z" style="fill:#757575"/><path d="M15.15,340.28c.07-.56.11-.85.18-1.41a2.92,2.92,0,0,0,1.39-.16,2.56,2.56,0,0,0,1.07-.9,4.53,4.53,0,0,0,.72-1.57,4.36,4.36,0,0,0,.15-1.49,2.1,2.1,0,0,0-.38-1.1,1.51,1.51,0,0,0-.8-.56,1.34,1.34,0,0,0-.93.05,2.29,2.29,0,0,0-.89.82,17.59,17.59,0,0,0-1,1.84,12.57,12.57,0,0,1-1.17,2,3.2,3.2,0,0,1-1.25,1,2.32,2.32,0,0,1-1.39.12,2.5,2.5,0,0,1-1.38-.82,3.08,3.08,0,0,1-.71-1.71,6.09,6.09,0,0,1,.17-2.25,6.38,6.38,0,0,1,1-2.2,3.25,3.25,0,0,1,1.52-1.2,3,3,0,0,1,1.79-.08c-.13.58-.2.88-.32,1.46a2.1,2.1,0,0,0-1.7.38,3.39,3.39,0,0,0-1,1.88,3.52,3.52,0,0,0,0,2.15,1.36,1.36,0,0,0,1,.89,1.19,1.19,0,0,0,1-.23,7,7,0,0,0,1.3-2.08,13.82,13.82,0,0,1,1.33-2.3,3.33,3.33,0,0,1,1.46-1.12,2.54,2.54,0,0,1,1.6,0,2.89,2.89,0,0,1,1.4,1,3.41,3.41,0,0,1,.73,1.72,5.35,5.35,0,0,1-.14,2.14,6.84,6.84,0,0,1-1,2.32,3.63,3.63,0,0,1-1.59,1.27A3.58,3.58,0,0,1,15.15,340.28Z" style="fill:#757575"/><path d="M16.16,329.5a5.38,5.38,0,0,1-3.49-2.79,5.54,5.54,0,0,1,0-4.42,6,6,0,0,1,1.77-2.54A4.66,4.66,0,0,1,17,318.66a5.88,5.88,0,0,1,2.91.53,6.2,6.2,0,0,1,2.4,1.81,4.77,4.77,0,0,1,1.05,2.53,5.81,5.81,0,0,1-.36,2.71,5.52,5.52,0,0,1-1.63,2.34,5,5,0,0,1-2.49,1.13A6,6,0,0,1,16.16,329.5Zm.51-1.48a4.28,4.28,0,0,0,3.25,0,4,4,0,0,0,1.93-5.1,4.52,4.52,0,0,0-2.53-2.24,5,5,0,0,0-2.3-.45,3.41,3.41,0,0,0-1.94.75,4.34,4.34,0,0,0-1.29,4.85A4.31,4.31,0,0,0,16.67,328Z" style="fill:#757575"/><path d="M25.62,319.64l-9.74-4.53c1.47-3.17,2.27-4.73,4-7.77L21,308c-1.39,2.46-2,3.71-3.28,6.25l3,1.43c1.11-2.31,1.71-3.45,3-5.68l1.1.62c-1.24,2.21-1.83,3.33-2.93,5.61l3.29,1.59c1.18-2.44,1.81-3.64,3.15-6l1.1.63C27.74,315.24,27,316.69,25.62,319.64Z" style="fill:#757575"/><path d="M29.89,306.05c.37-.75.56-1.13,1-1.88a1.87,1.87,0,0,0,1.26.21,1.51,1.51,0,0,0,.93-.63,1.49,1.49,0,0,0,.25-1.19,1.83,1.83,0,0,0-.79-1.13,1.67,1.67,0,0,0-1.26-.36,1.45,1.45,0,0,0-1,.63,3.93,3.93,0,0,0-.45.92l-1.24-1.15a2.13,2.13,0,0,0,.5-1.34,1.25,1.25,0,0,0-.55-1,1.1,1.1,0,0,0-.91-.21,1.36,1.36,0,0,0-.81.59,1.44,1.44,0,0,0-.27,1,1.62,1.62,0,0,0,.6,1c-.57.62-.86.93-1.42,1.56a3.9,3.9,0,0,1-.94-1.41,2.89,2.89,0,0,1-.07-1.55,4.5,4.5,0,0,1,.75-1.68,3.73,3.73,0,0,1,2.39-1.66,2.38,2.38,0,0,1,1.94.39,2.58,2.58,0,0,1,.81,2.7,2.66,2.66,0,0,1,1.66-.75,2.44,2.44,0,0,1,1.68.53A3.23,3.23,0,0,1,35.17,302a4.16,4.16,0,0,1-2.82,4.28A3.34,3.34,0,0,1,29.89,306.05Z" style="fill:#757575"/><path d="M35,298.92c.44-.72.66-1.08,1.12-1.79a1.87,1.87,0,0,0,1.24.32,1.52,1.52,0,0,0,1-.55,1.5,1.5,0,0,0,.35-1.17,1.83,1.83,0,0,0-.69-1.2,1.66,1.66,0,0,0-1.22-.47,1.46,1.46,0,0,0-1.06.54,4,4,0,0,0-.53.88L34,294.22a2.15,2.15,0,0,0,.62-1.3,1.25,1.25,0,0,0-.46-1,1.1,1.1,0,0,0-.89-.29,1.37,1.37,0,0,0-.86.52,1.45,1.45,0,0,0-.36,1,1.62,1.62,0,0,0,.51,1.07c-.63.57-.94.86-1.56,1.44a3.89,3.89,0,0,1-.81-1.48,2.9,2.9,0,0,1,.07-1.55,4.54,4.54,0,0,1,.9-1.61,3.77,3.77,0,0,1,2.53-1.46,2.37,2.37,0,0,1,1.9.55,2.59,2.59,0,0,1,.57,2.77,2.68,2.68,0,0,1,1.72-.61,2.43,2.43,0,0,1,1.63.67,3.22,3.22,0,0,1,1.07,2.41,4.2,4.2,0,0,1-3.19,4A3.33,3.33,0,0,1,35,298.92Z" style="fill:#757575"/><path d="M199,168.61l-5.76-9.06c1.64-1,2.48-1.54,4.18-2.47a12,12,0,0,1,1.77-.82,4.14,4.14,0,0,1,1.63-.25,2.69,2.69,0,0,1,1.36.5,2.89,2.89,0,0,1,1,1.17,3.19,3.19,0,0,1,.1,2.51,5.26,5.26,0,0,1-2.65,2.42c-1.06.57-1.58.87-2.61,1.5l2.25,3.74ZM197.34,163c1.06-.64,1.6-.95,2.68-1.54a3.76,3.76,0,0,0,1.7-1.47,1.91,1.91,0,0,0-.92-2.44,1.83,1.83,0,0,0-1.22-.09,7.38,7.38,0,0,0-1.42.64c-1.13.62-1.7.94-2.8,1.61Z" style="fill:#757575"/><path d="M208,163.86,203.83,154c1.77-.76,2.67-1.11,4.49-1.75a11.94,11.94,0,0,1,1.87-.52,4.1,4.1,0,0,1,1.64,0,2.69,2.69,0,0,1,1.26.71,2.89,2.89,0,0,1,.76,1.31,3.2,3.2,0,0,1-.3,2.5,5.21,5.21,0,0,1-3,2c-1.13.39-1.69.6-2.8,1l1.62,4.05Zm-.76-5.78c1.14-.46,1.72-.67,2.88-1.08a3.72,3.72,0,0,0,1.9-1.17,1.92,1.92,0,0,0-.52-2.56,1.82,1.82,0,0,0-1.19-.29,7.29,7.29,0,0,0-1.5.4c-1.21.42-1.81.65-3,1.13Z" style="fill:#757575"/><path d="M227.88,157.06,228,159a52.61,52.61,0,0,0-7.27,1,4.66,4.66,0,0,1,.33-2.15,11.44,11.44,0,0,1,2-2.94,20.2,20.2,0,0,0,1.64-2,2.12,2.12,0,0,0,.33-1.31,1.32,1.32,0,0,0-.54-1,1.72,1.72,0,0,0-1.22-.22,1.7,1.7,0,0,0-1.12.55,1.82,1.82,0,0,0-.3,1.35c-.93.06-1.4.1-2.33.2a3.11,3.11,0,0,1,.87-2.64,4.83,4.83,0,0,1,2.72-1.16,4.37,4.37,0,0,1,3,.52,2.58,2.58,0,0,1,1.23,2,3.41,3.41,0,0,1-.18,1.4,6,6,0,0,1-.79,1.45,17.79,17.79,0,0,1-1.32,1.51A16.55,16.55,0,0,0,224,156.9a3.38,3.38,0,0,0-.36.63C225.31,157.29,226.17,157.19,227.88,157.06Z" style="fill:#757575"/><path d="M237,150.8c-.93,0-1.39.06-2.31.12a1.35,1.35,0,0,0-.42-.92,1.41,1.41,0,0,0-.93-.31,1.63,1.63,0,0,0-1.28.59,4.34,4.34,0,0,0-.61,2.45,2.76,2.76,0,0,1,2.15-.92,3.36,3.36,0,0,1,2.47,1.05,3.28,3.28,0,0,1,.88,2.59,3.76,3.76,0,0,1-6.52,2.29,6.46,6.46,0,0,1-1.31-4.09c-.11-2,.23-3.41,1-4.31a4.28,4.28,0,0,1,3.34-1.35,3.86,3.86,0,0,1,2.4.75A3,3,0,0,1,237,150.8Zm-5.32,4.37a2.27,2.27,0,0,0,.51,1.54,1.49,1.49,0,0,0,1.11.55,1.32,1.32,0,0,0,1-.43,2.84,2.84,0,0,0,0-3,1.54,1.54,0,0,0-2.24,0A1.88,1.88,0,0,0,231.73,155.18Z" style="fill:#757575"/><path d="M434.31,184.6c.52.36.78.54,1.29.91a5.08,5.08,0,0,1-2.57,1.85,5,5,0,0,1-3.05-.11,5.88,5.88,0,0,1-2.57-1.51,4.83,4.83,0,0,1-1.17-2.42,7.06,7.06,0,0,1,.06-2.94,5.45,5.45,0,0,1,1.39-2.67,4.53,4.53,0,0,1,2.58-1.29,6.81,6.81,0,0,1,3.2.3,5.6,5.6,0,0,1,2.8,1.87,4.06,4.06,0,0,1,.82,2.81l-1.62-.29a3.18,3.18,0,0,0-.59-2,3.69,3.69,0,0,0-1.83-1.2,4.4,4.4,0,0,0-2.52-.16,3.08,3.08,0,0,0-1.74,1.17,5.52,5.52,0,0,0-.9,1.9,6.23,6.23,0,0,0-.18,2.42,3.18,3.18,0,0,0,.86,1.83,4,4,0,0,0,1.67,1,3.47,3.47,0,0,0,2.22,0A3.64,3.64,0,0,0,434.31,184.6Z" style="fill:#757575"/><path d="M436.21,187l1.34.38a1.83,1.83,0,0,0,.07,1.36,2.35,2.35,0,0,0,1.12,1,2.27,2.27,0,0,0,1.41.32,1.1,1.1,0,0,0,.82-.54.78.78,0,0,0,0-.81,5.71,5.71,0,0,0-1.07-1.07,18.64,18.64,0,0,1-1.67-1.52,2.16,2.16,0,0,1-.54-1.06,1.84,1.84,0,0,1,.13-1.08,1.81,1.81,0,0,1,.64-.77,2.22,2.22,0,0,1,1-.36,3.24,3.24,0,0,1,1,.06,4.9,4.9,0,0,1,1.25.44,5.42,5.42,0,0,1,1.52,1.09,2.42,2.42,0,0,1,.68,1.19,2.54,2.54,0,0,1-.15,1.3l-1.34-.55a1.35,1.35,0,0,0-.06-1.1,2.24,2.24,0,0,0-1-.92,2.59,2.59,0,0,0-1.45-.38.85.85,0,0,0-.7.45.7.7,0,0,0,0,.49,1.35,1.35,0,0,0,.35.56c.11.11.45.4,1,.87a14.65,14.65,0,0,1,1.6,1.54,2,2,0,0,1,.48,1.06,1.81,1.81,0,0,1-.27,1.15,2.19,2.19,0,0,1-1,.87,2.66,2.66,0,0,1-1.43.23,4.49,4.49,0,0,1-1.62-.5,4,4,0,0,1-1.85-1.59A3,3,0,0,1,436.21,187Z" style="fill:#757575"/><path d="M452.52,198.05l-1.29,1.41a48.75,48.75,0,0,0-5.72-4.61,4.64,4.64,0,0,1,1.79-1.25,11.31,11.31,0,0,1,3.54-.55,20.92,20.92,0,0,0,2.59-.16,2.11,2.11,0,0,0,1.18-.65,1.31,1.31,0,0,0,.35-1.09,1.75,1.75,0,0,0-.69-1,1.73,1.73,0,0,0-1.18-.44,1.81,1.81,0,0,0-1.19.71c-.7-.64-1.05-1-1.77-1.56a3.1,3.1,0,0,1,2.52-1.18,4.92,4.92,0,0,1,2.74,1.19,4.45,4.45,0,0,1,1.73,2.59,2.57,2.57,0,0,1-.63,2.3,3.38,3.38,0,0,1-1.15.82,6,6,0,0,1-1.6.41,18.29,18.29,0,0,1-2,.08,16,16,0,0,0-1.78.08,3.36,3.36,0,0,0-.7.17C450.59,196.33,451.25,196.89,452.52,198.05Z" style="fill:#757575"/><path d="M456,204.35c-.55-.64-.84-1-1.41-1.57l5.67-5.29A9.84,9.84,0,0,1,457,196.4l1.31-1.34a8.37,8.37,0,0,0,2.16.76,4.2,4.2,0,0,0,2.32,0c.55.6.82.9,1.35,1.52Z" style="fill:#757575"/><path d="M533.68,288.58c4.49-1.05,6.75-1.53,11.32-2.38l.89,1.39c-2.6,3.91-3.94,5.82-6.71,9.56l-.85-1.4c.84-1.11,1.26-1.67,2.09-2.8-1-1.57-1.49-2.35-2.51-3.9l-3.37.8Zm5.43.18c.83,1.26,1.24,1.9,2,3.18.76-1,1.14-1.54,1.88-2.58q.85-1.19,1.44-1.88a13.82,13.82,0,0,1-2.06.6Z" style="fill:#757575"/><path d="M542.23,302.4l.86-.48a2.49,2.49,0,0,1-2.09-1.35,3.17,3.17,0,0,1-.42-1.75,3.45,3.45,0,0,1,.61-1.79,4.89,4.89,0,0,1,1.59-1.46,5.27,5.27,0,0,1,2-.74,3,3,0,0,1,1.87.32,3.37,3.37,0,0,1,1.36,1.33,2.83,2.83,0,0,1,.39,1.3,2.67,2.67,0,0,1-.21,1.2l3.37-1.87.68,1.23-9.43,5.14Zm1.26-5.62a3.34,3.34,0,0,0-1.6,1.69,2,2,0,0,0,.11,1.68,1.93,1.93,0,0,0,1.35,1,3.23,3.23,0,0,0,2.19-.51,3.53,3.53,0,0,0,1.74-1.7,2,2,0,0,0-.13-1.75,1.93,1.93,0,0,0-1.39-1A3.41,3.41,0,0,0,543.49,296.78Z" style="fill:#757575"/><path d="M548.5,309l.46,1.33a3.38,3.38,0,0,1-2.2-.29,4.22,4.22,0,0,1-1.91-4.64,4.85,4.85,0,0,1,5.31-2.78,3.63,3.63,0,0,1,2.23,2,3.53,3.53,0,0,1,.24,2.88,4.07,4.07,0,0,1-2.24,2.23l-.32.15c-1-2.16-1.57-3.23-2.67-5.35a3,3,0,0,0-1.4,1.56,2.24,2.24,0,0,0,.15,1.78,2.09,2.09,0,0,0,.9,1A2.55,2.55,0,0,0,548.5,309Zm-.11-4.94c.83,1.6,1.24,2.4,2,4a2.55,2.55,0,0,0,1.09-1.11,2.14,2.14,0,0,0-.08-1.87,2.22,2.22,0,0,0-1.27-1.15A2.34,2.34,0,0,0,548.39,304.08Z" style="fill:#757575"/><path d="M547.55,312.84l9.73-4.55.59,1.28L548.11,314Z" style="fill:#757575"/><path d="M551.85,320.28a5.11,5.11,0,0,1-1.36-1,4.23,4.23,0,0,1-.81-1.25,2.92,2.92,0,0,1-.22-2.07,2.18,2.18,0,0,1,2.24-1.47,2.14,2.14,0,0,1,1,.33,3.23,3.23,0,0,1,.79.72,9.13,9.13,0,0,1,.66,1,14.12,14.12,0,0,0,1.36,2.07l.32-.12a1.41,1.41,0,0,0,.9-.79,2.36,2.36,0,0,0-.19-1.62,2.5,2.5,0,0,0-.86-1.2,2,2,0,0,0-1.33-.17l-.38-1.3a3.08,3.08,0,0,1,1.47,0,2.63,2.63,0,0,1,1.21.81,5.59,5.59,0,0,1,1,1.61,5,5,0,0,1,.44,1.67,2.24,2.24,0,0,1-.18,1.11,2,2,0,0,1-.67.73,6.82,6.82,0,0,1-1.1.51l-1.63.65a18.22,18.22,0,0,0-2.13.94,3,3,0,0,0-.74.66l-.52-1.29A2.81,2.81,0,0,1,551.85,320.28Zm2.68-1.22a10.93,10.93,0,0,1-1.31-1.86,5.06,5.06,0,0,0-.71-1,1.16,1.16,0,0,0-.61-.32,1.11,1.11,0,0,0-.65.08,1.12,1.12,0,0,0-.64.72,1.78,1.78,0,0,0,.15,1.23,2.83,2.83,0,0,0,.84,1.14,2.09,2.09,0,0,0,1.18.47,3.13,3.13,0,0,0,1.3-.3Z" style="fill:#757575"/><path d="M552.18,323.7l7.26-2.8.45,1.17-1,.39a2.94,2.94,0,0,1,2.1,2,3.53,3.53,0,0,1,.22,1.37,2.11,2.11,0,0,1-.32,1.1,2.44,2.44,0,0,1-.78.72,7.13,7.13,0,0,1-1.19.49l-4.52,1.55-.44-1.26,4.46-1.57a3.44,3.44,0,0,0,1.08-.55,1.28,1.28,0,0,0,.41-.75,1.87,1.87,0,0,0-.1-1,2.27,2.27,0,0,0-1-1.24,2.55,2.55,0,0,0-2.12.12l-4,1.5Z" style="fill:#757575"/><path d="M557,334l-1.05.53a5.13,5.13,0,0,1-.41-.92,2.32,2.32,0,0,1-.13-1.14,1.28,1.28,0,0,1,.39-.72,4.65,4.65,0,0,1,1.43-.64l4.25-1.4-.32-1,1-.33.32,1,1.83-.6,1.18,1.09-2.59.83.42,1.33-1,.31-.42-1.33-4.33,1.38a2.26,2.26,0,0,0-.67.29.56.56,0,0,0-.17.3.91.91,0,0,0,0,.47A4.47,4.47,0,0,0,557,334Z" style="fill:#757575"/><path d="M560.17,340.15c.08.56.12.84.19,1.39a3.38,3.38,0,0,1-2.1-.7,3.73,3.73,0,0,1-1.23-2,3.7,3.7,0,0,1,.25-2.92,4.85,4.85,0,0,1,5.75-1.71,3.63,3.63,0,0,1,1.81,2.35,3.53,3.53,0,0,1-.31,2.87,4.06,4.06,0,0,1-2.63,1.76l-.34.08c-.6-2.32-.92-3.47-1.6-5.76a3,3,0,0,0-1.67,1.27,2.24,2.24,0,0,0-.2,1.78,2.09,2.09,0,0,0,.7,1.11A2.55,2.55,0,0,0,560.17,340.15Zm.84-4.87c.51,1.73.76,2.59,1.22,4.34a2.55,2.55,0,0,0,1.29-.89,2.14,2.14,0,0,0,.28-1.85,2.22,2.22,0,0,0-1-1.37A2.34,2.34,0,0,0,561,335.28Z" style="fill:#757575"/><path d="M560.5,352.72c-.16-.82-.24-1.23-.41-2l7.6-1.56a7.93,7.93,0,0,1-2.11-2.41l1.82-.41a6.69,6.69,0,0,0,1.37,1.61,3.92,3.92,0,0,0,2,1c.14.7.21,1.06.35,1.76Z" style="fill:#757575"/><path d="M569.61,354.3l1.88-.33c.52,3,.75,4.49,1.14,7.5l-1.48.2a10.45,10.45,0,0,0-2.69-1.53,13.25,13.25,0,0,0-3.58-.93,12.12,12.12,0,0,0-3.26,0c-.12-.8-.18-1.19-.32-2a13.1,13.1,0,0,1,4.63.2,13.92,13.92,0,0,1,4.46,1.79C570.11,357.25,569.95,356.26,569.61,354.3Z" style="fill:#757575"/><path d="M575.47,448.93c4.17-2,6.23-3.06,10.3-5.36.07.68.11,1,.17,1.7-3,1.53-4.5,2.26-7.53,3.63-.61.28-1.18.51-1.72.7q.89.2,1.79.49c3.18,1,4.77,1.58,7.93,2.76,0,.64,0,1,0,1.61-4.33-1.78-6.51-2.59-10.9-4.05C575.53,449.82,575.51,449.52,575.47,448.93Z" style="fill:#757575"/><path d="M581,455.45a5.14,5.14,0,0,1,5.63,5.64,5.86,5.86,0,0,1-.85,2.93,4.64,4.64,0,0,1-2.11,1.85,6,6,0,0,1-2.93.44,6.24,6.24,0,0,1-2.86-.92,4.73,4.73,0,0,1-1.82-2,5.71,5.71,0,0,1-.54-2.66,5.43,5.43,0,0,1,.8-2.72,5,5,0,0,1,2-1.85A6,6,0,0,1,581,455.45Zm0,1.55a4.29,4.29,0,0,0-3.07,1.07,3.91,3.91,0,0,0-.18,5.41,4.53,4.53,0,0,0,3.12,1.29,5.11,5.11,0,0,0,2.32-.32,3.4,3.4,0,0,0,1.6-1.32,4,4,0,0,0,.63-2.07,4,4,0,0,0-1-2.86A4.35,4.35,0,0,0,581,457Z" style="fill:#757575"/><path d="M575.3,466.61c2.08,1.87,3.1,2.84,5.1,4.87,2.24-1.28,3.35-2,5.55-3.38-.07.75-.11,1.12-.19,1.86-1.19.74-1.79,1.1-3,1.79a14,14,0,0,1-1.43.75,12.53,12.53,0,0,1,1.09,1.07c1,1.09,1.49,1.64,2.46,2.77-.11.68-.17,1-.29,1.69-1.7-2-2.57-3-4.35-4.84-2.49,1.39-3.75,2-6.27,3.25.13-.7.19-1,.3-1.75,1.69-.83,2.53-1.26,4.2-2.17l.78-.39c-.35-.3-.6-.51-.73-.64-1.34-1.31-2-1.94-3.39-3.18C575.2,467.64,575.24,467.3,575.3,466.61Z" style="fill:#757575"/><path d="M571.68,486.46c.22-.8.33-1.2.54-2l7.51,1.94a8.34,8.34,0,0,1-.83-3.15l1.82.42a7.07,7.07,0,0,0,.52,2.09,4,4,0,0,0,1.31,1.81c-.19.72-.28,1.07-.48,1.79Z" style="fill:#757575"/><path d="M570.3,496.8l-1.79-.68c1-2.74,1.52-4.13,2.37-6.92a4.78,4.78,0,0,1,1.75,1.29,12.32,12.32,0,0,1,1.7,3.09,17.24,17.24,0,0,0,1.07,2.29,2.16,2.16,0,0,0,1,.85,1.36,1.36,0,0,0,1.13,0,1.58,1.58,0,0,0,.72-.94,1.56,1.56,0,0,0,0-1.19,1.88,1.88,0,0,0-1.07-.86c.36-.82.53-1.23.87-2.05A3.2,3.2,0,0,1,580,493.6a4.44,4.44,0,0,1-.14,2.78,4,4,0,0,1-1.74,2.32,2.66,2.66,0,0,1-2.35.19,3.52,3.52,0,0,1-1.19-.75,5.79,5.79,0,0,1-1-1.3,15.56,15.56,0,0,1-.8-1.8c-.33-.84-.57-1.37-.7-1.61a3.43,3.43,0,0,0-.4-.6C571.18,494.42,570.9,495.22,570.3,496.8Z" style="fill:#757575"/><text transform="translate(290.77 107.08) scale(0.99 1)" style="font-size:15px;fill:#757575;font-family:ArialMT, Arial">Mayoría absoluta: <tspan x="123.4" y="0" style="font-family:Arial-BoldMT, Arial;font-weight:700">55</tspan></text><line x1="370.68" y1="300.17" x2="370.68" y2="365.26" style="fill:none;stroke:#757575;stroke-miterlimit:10"/><circle cx="288.5" cy="434.9" r="183.12" style="fill:#fff;stroke:#fff;stroke-linejoin:round;stroke-width:1.60000002384186px"/><text transform="translate(3.5 571.02) scale(0.99 1)" style="font-size:15px;fill:#757575;font-family:ArialMT, Arial">Fuente: Junta de<tspan x="112.58" y="0" style="letter-spacing:-0.055171354044616205em"> </tspan><tspan x="115.92" y="0">Andalucía</tspan></text><text transform="translate(455.5 572.02) scale(0.99 1)" style="font-size:15px;fill:#757575;font-family:ArialMT, Arial">L<tspan x="8.34" y="0" style="letter-spacing:-0.055171354044616205em">A</tspan><tspan x="17.52" y="0"> </tspan><tspan x="21.69" y="0" style="letter-spacing:-0.07421743645692876em">V</tspan><tspan x="30.58" y="0" style="letter-spacing:-0.000032781553205357225em">ANGUARDI</tspan><tspan x="109.75" y="0" style="letter-spacing:-0.055171354044616205em">A</tspan></text><path d="M137.11,375l-10.59-1.77c.32-1.89.5-2.83.91-4.69a12,12,0,0,1,.54-1.85,4.08,4.08,0,0,1,.87-1.38,2.69,2.69,0,0,1,1.26-.7,2.92,2.92,0,0,1,1.51,0,3.18,3.18,0,0,1,2,1.55,5.16,5.16,0,0,1,.1,3.58c-.26,1.18-.38,1.77-.61,3l4.29.8C137.26,374.14,137.21,374.43,137.11,375Zm-5.28-2.49c.23-1.21.35-1.82.62-3a3.69,3.69,0,0,0,0-2.23,1.92,1.92,0,0,0-2.45-.9,1.81,1.81,0,0,0-.86.85,7.33,7.33,0,0,0-.44,1.47c-.28,1.24-.41,1.87-.64,3.12Z" style="fill:#757575"/><path d="M136,364.43c.12-.57.18-.85.31-1.41a2.9,2.9,0,0,0,1.4,0,2.62,2.62,0,0,0,1.15-.82,4.71,4.71,0,0,0,.87-1.52,4.51,4.51,0,0,0,.3-1.49,2.14,2.14,0,0,0-.26-1.15,1.49,1.49,0,0,0-.73-.64,1.33,1.33,0,0,0-.94,0,2.32,2.32,0,0,0-1,.74,17.39,17.39,0,0,0-1.21,1.77,13.55,13.55,0,0,1-1.37,1.94,3.3,3.3,0,0,1-1.34.91,2.29,2.29,0,0,1-1.4,0,2.45,2.45,0,0,1-1.3-.95,3.15,3.15,0,0,1-.55-1.81,6.38,6.38,0,0,1,.4-2.29,6.67,6.67,0,0,1,1.22-2.16,3.32,3.32,0,0,1,1.65-1.08,2.93,2.93,0,0,1,1.79.09c-.2.58-.29.87-.48,1.46a2.08,2.08,0,0,0-1.74.23A3.54,3.54,0,0,0,131.6,358a3.69,3.69,0,0,0-.26,2.2,1.35,1.35,0,0,0,.87,1,1.18,1.18,0,0,0,1.05-.15,7.49,7.49,0,0,0,1.5-2,13.82,13.82,0,0,1,1.57-2.21,3.36,3.36,0,0,1,1.58-1,2.5,2.5,0,0,1,1.59.15,2.87,2.87,0,0,1,1.29,1.1,3.47,3.47,0,0,1,.54,1.8A5.52,5.52,0,0,1,141,361a7.1,7.1,0,0,1-1.22,2.24,3.7,3.7,0,0,1-1.7,1.15A3.56,3.56,0,0,1,136,364.43Z" style="fill:#757575"/><path d="M138.15,353.6a5.28,5.28,0,0,1-3.14-3.2,5.73,5.73,0,0,1,.55-4.5,6.25,6.25,0,0,1,2.12-2.38,4.68,4.68,0,0,1,2.76-.79,5.74,5.74,0,0,1,2.82.91,6.16,6.16,0,0,1,2.13,2.13,4.85,4.85,0,0,1,.7,2.66,6,6,0,0,1-.71,2.66,5.68,5.68,0,0,1-1.91,2.15,5.1,5.1,0,0,1-2.61.86A5.91,5.91,0,0,1,138.15,353.6Zm.68-1.44a4.26,4.26,0,0,0,3.24.31,4.09,4.09,0,0,0,2.57-4.89,4.5,4.5,0,0,0-2.21-2.57,4.94,4.94,0,0,0-2.22-.73,3.43,3.43,0,0,0-2,.52,4,4,0,0,0,.66,7.36Z" style="fill:#757575"/><path d="M148.84,344.84l-9-5.84a75.27,75.27,0,0,1,5.28-7.31l1,.79c-1.82,2.27-2.68,3.44-4.31,5.85l2.73,1.84c1.47-2.17,2.24-3.23,3.87-5.28l1,.78c-1.61,2-2.37,3.07-3.81,5.21l3,2a67.35,67.35,0,0,1,4.07-5.51l1,.8A66.3,66.3,0,0,0,148.84,344.84Z" style="fill:#757575"/><path d="M160.34,330.89l-1.5-1.55c-1.34,1.29-2,2-3.25,3.32l-1.32-1.22a72.12,72.12,0,0,1-1.19-8.51c.58-.56.88-.84,1.48-1.38l4.6,5,1.07-1,1.2,1.35-1.05.95,1.46,1.59C161.23,330,160.93,330.32,160.34,330.89ZM157.58,328,155,325.4c.22,1.83.35,2.73.66,4.52C156.43,329.15,156.81,328.78,157.58,328Z" style="fill:#757575"/><path d="M158,321.33l-1.25-1.45a75.24,75.24,0,0,1,6.51-5.12l.87,1.22a9.93,9.93,0,0,0-.18,3.18,12.15,12.15,0,0,0,.86,3.63,11.49,11.49,0,0,0,1.6,2.85c-.65.51-1,.77-1.6,1.29a12.3,12.3,0,0,1-2.12-4.13,12.76,12.76,0,0,1-.51-4.86C160.41,319.24,159.58,319.92,158,321.33Z" style="fill:#757575"/><path d="M323.28,274.74c.08-4.29.12-6.44.19-10.74,2,0,3.06.1,5.08.3a12.48,12.48,0,0,1,2,.34,4.37,4.37,0,0,1,1.55.74,2.72,2.72,0,0,1,.87,1.2,2.79,2.79,0,0,1,.12,1.51,3.16,3.16,0,0,1-1.4,2.11,5.62,5.62,0,0,1-3.65.46c-1.23-.13-1.85-.17-3.09-.23l-.2,4.36Zm1.74-5.58c1.28.06,1.92.11,3.18.24a4,4,0,0,0,2.3-.23,1.74,1.74,0,0,0,.88-1.33,1.7,1.7,0,0,0-.23-1.2,1.91,1.91,0,0,0-1-.78,7.74,7.74,0,0,0-1.6-.28c-1.34-.14-2-.19-3.36-.25Z" style="fill:#757575"/><path d="M333.53,276c.94-4.19,1.41-6.29,2.34-10.48,2,.44,2.94.7,4.85,1.29a12.34,12.34,0,0,1,1.89.73,4.33,4.33,0,0,1,1.36,1,2.71,2.71,0,0,1,.6,1.34,2.8,2.8,0,0,1-.18,1.5,3.17,3.17,0,0,1-1.78,1.79,5.54,5.54,0,0,1-3.64-.27c-1.17-.37-1.76-.53-2.95-.84l-1.07,4.23Zm2.8-5.12c1.23.31,1.83.48,3,.86a4,4,0,0,0,2.28.22,1.74,1.74,0,0,0,1.12-1.13,1.71,1.71,0,0,0,0-1.22,1.89,1.89,0,0,0-.81-1,7.64,7.64,0,0,0-1.5-.59c-1.27-.4-1.91-.58-3.21-.91Z" style="fill:#757575"/><path d="M347.87,278.28c.81.32,1.21.49,2,.85a1.87,1.87,0,0,0-.12,1.28,1.58,1.58,0,0,0,.7.91,1.56,1.56,0,0,0,1.22.21,1.82,1.82,0,0,0,1.11-.82,1.62,1.62,0,0,0,.3-1.28,1.54,1.54,0,0,0-.71-1,4.17,4.17,0,0,0-1-.43l1.09-1.3a2.43,2.43,0,0,0,1.44.48,1.23,1.23,0,0,0,1-.57,1.06,1.06,0,0,0,.15-.93,1.53,1.53,0,0,0-.7-.83,1.62,1.62,0,0,0-1.12-.26,1.57,1.57,0,0,0-1,.64c-.7-.57-1.06-.84-1.79-1.38a3.68,3.68,0,0,1,1.37-1,3.07,3.07,0,0,1,1.64-.12,5.13,5.13,0,0,1,1.87.74,4.19,4.19,0,0,1,2,2.46,2.28,2.28,0,0,1-.29,2,2.65,2.65,0,0,1-2.77.82,2.78,2.78,0,0,1,.87,1.69,2.35,2.35,0,0,1-.48,1.71,3.25,3.25,0,0,1-2.3,1.31,4.39,4.39,0,0,1-4.47-2.64A3.39,3.39,0,0,1,347.87,278.28Z" style="fill:#757575"/><path d="M355.45,283.2c.75.45,1.11.69,1.85,1.18a1.86,1.86,0,0,0-.33,1.25,1.6,1.6,0,0,0,.55,1,1.58,1.58,0,0,0,1.17.42,1.81,1.81,0,0,0,1.24-.62,1.61,1.61,0,0,0,.5-1.22,1.57,1.57,0,0,0-.55-1.12,4.23,4.23,0,0,0-.91-.59l1.3-1.1a2.47,2.47,0,0,0,1.35.72,1.22,1.22,0,0,0,1.08-.4,1.06,1.06,0,0,0,.3-.9,1.56,1.56,0,0,0-.56-.94,1.64,1.64,0,0,0-1.07-.45,1.56,1.56,0,0,0-1.11.46c-.61-.68-.92-1-1.55-1.67a3.66,3.66,0,0,1,1.53-.78,3.09,3.09,0,0,1,1.64.16,5.21,5.21,0,0,1,1.73,1.06,4.26,4.26,0,0,1,1.55,2.78,2.27,2.27,0,0,1-.61,1.92,2.65,2.65,0,0,1-2.88.33,2.83,2.83,0,0,1,.59,1.82,2.33,2.33,0,0,1-.75,1.61,3.24,3.24,0,0,1-2.5.9,4.11,4.11,0,0,1-2.64-1.12,4,4,0,0,1-1.37-2.27A3.38,3.38,0,0,1,355.45,283.2Z" style="fill:#757575"/><path d="M409.35,327.91l7-8.1c1.4,1.22,2.08,1.84,3.43,3.1a11.78,11.78,0,0,1,1.27,1.36,3.92,3.92,0,0,1,.72,1.41,2.68,2.68,0,0,1,0,1.42,3,3,0,0,1-.79,1.29,3.19,3.19,0,0,1-2.32,1,5,5,0,0,1-3.1-1.7c-.86-.82-1.3-1.22-2.19-2l-2.91,3.25Zm4.86-3.22c.9.81,1.35,1.22,2.23,2.05a3.54,3.54,0,0,0,1.9,1.11,1.77,1.77,0,0,0,1.47-.58,1.79,1.79,0,0,0,.54-1.09,1.77,1.77,0,0,0-.28-1.16,7.13,7.13,0,0,0-1-1.1c-.9-.85-1.36-1.27-2.28-2.1Z" style="fill:#757575"/><path d="M419.17,331.89a3.77,3.77,0,0,1,3.22-1.26,4.1,4.1,0,0,1,2.46,1.4A3.92,3.92,0,0,1,426,334.9a3.75,3.75,0,0,1-1.51,2.71,5,5,0,0,1-2.11,1.15,3.35,3.35,0,0,1-1.9-.17,4.18,4.18,0,0,1-1.64-1.14,3.81,3.81,0,0,1-1.08-2.72A4.14,4.14,0,0,1,419.17,331.89Zm1,1.05a3.24,3.24,0,0,0-1.17,2,2.37,2.37,0,0,0,2.29,2.55,3.32,3.32,0,0,0,2.17-1,3,3,0,0,0,1.19-2,2.48,2.48,0,0,0-2.37-2.66A3.09,3.09,0,0,0,420.17,332.95Z" style="fill:#757575"/><path d="M425.55,345.51l.79-.58a2.56,2.56,0,0,1-2.27-1.1,3.29,3.29,0,0,1-.67-1.7,3.52,3.52,0,0,1,.33-1.87,4.8,4.8,0,0,1,1.35-1.69,5.1,5.1,0,0,1,1.9-1,3.05,3.05,0,0,1,1.93.08,3.56,3.56,0,0,1,1.57,1.19,3,3,0,0,1,.59,1.28,2.73,2.73,0,0,1,0,1.25l3.1-2.28.87,1.2-8.73,6.25Zm.44-5.82a3.3,3.3,0,0,0-1.34,1.91,2,2,0,0,0,.36,1.67,2,2,0,0,0,1.48.79,3.19,3.19,0,0,0,2.11-.77,3.43,3.43,0,0,0,1.49-1.92,2.09,2.09,0,0,0-.4-1.77,2,2,0,0,0-1.55-.82A3.32,3.32,0,0,0,426,339.69Z" style="fill:#757575"/><path d="M432.6,351.52l.59,1.31a3.41,3.41,0,0,1-2.23-.1,4.39,4.39,0,0,1-2.43-4.48,4.08,4.08,0,0,1,1.84-2.53,4,4,0,0,1,3.13-.83,3.8,3.8,0,0,1,2.48,1.79,3.7,3.7,0,0,1,.58,2.93,4,4,0,0,1-2,2.45l-.31.17c-1.26-2.1-1.91-3.14-3.28-5.18a3,3,0,0,0-1.21,1.72,2.32,2.32,0,0,0,.35,1.78,2.17,2.17,0,0,0,1,.88A2.57,2.57,0,0,0,432.6,351.52Zm-.68-5c1,1.54,1.54,2.32,2.51,3.9a2.49,2.49,0,0,0,1-1.23,2.23,2.23,0,0,0-.3-1.9,2.33,2.33,0,0,0-1.42-1.06A2.3,2.3,0,0,0,431.92,346.52Z" style="fill:#757575"/><path d="M432,355.48l6.74-3.89.64,1.12-1,.54a2.85,2.85,0,0,1,1.32.48,3.14,3.14,0,0,1,1,1.17,2.94,2.94,0,0,1,.4,1.54,1.92,1.92,0,0,1-.51,1.21,3,3,0,0,1,2.38,1.75,2.68,2.68,0,0,1,.24,2,2.58,2.58,0,0,1-1.52,1.43L437,365.07l-.56-1.22,4.44-2.07a3.35,3.35,0,0,0,1-.61,1.12,1.12,0,0,0,.29-.69,1.65,1.65,0,0,0-.18-.87,2.05,2.05,0,0,0-1.14-1.09,2.27,2.27,0,0,0-1.82.26l-4,2-.61-1.2,4.48-2.33a2.1,2.1,0,0,0,1-.92,1.36,1.36,0,0,0-.15-1.22,2.17,2.17,0,0,0-.79-.84,1.67,1.67,0,0,0-1.11-.23,4.51,4.51,0,0,0-1.53.59l-3.52,2Z" style="fill:#757575"/><path d="M441.13,364.89a3.79,3.79,0,0,1,3.45-.07,4,4,0,0,1,1.81,2.15,3.88,3.88,0,0,1,0,3.05,3.76,3.76,0,0,1-2.36,2,5,5,0,0,1-2.38.35,3.34,3.34,0,0,1-1.72-.81,4.14,4.14,0,0,1-1.13-1.63,3.76,3.76,0,0,1-.05-2.91A4.16,4.16,0,0,1,441.13,364.89Zm.56,1.32a3.26,3.26,0,0,0-1.8,1.49,2.34,2.34,0,0,0,1.25,3.16,3.33,3.33,0,0,0,2.37-.15,3,3,0,0,0,1.8-1.42A2.45,2.45,0,0,0,444,366,3.11,3.11,0,0,0,441.69,366.21Z" style="fill:#757575"/><path d="M442.83,373.61l.63,1.23a1.81,1.81,0,0,0-.94,1,2.31,2.31,0,0,0,0,1.51,2.23,2.23,0,0,0,.76,1.23,1.1,1.1,0,0,0,1,.2.79.79,0,0,0,.56-.59,5.88,5.88,0,0,0,0-1.49,15.64,15.64,0,0,1,0-2.22,2.08,2.08,0,0,1,.41-1.09,1.92,1.92,0,0,1,1.88-.7,2.2,2.2,0,0,1,.92.44,3.11,3.11,0,0,1,.65.75,4.62,4.62,0,0,1,.53,1.15,5.15,5.15,0,0,1,.26,1.77,2.35,2.35,0,0,1-.37,1.27,2.62,2.62,0,0,1-1,.8l-.55-1.29a1.37,1.37,0,0,0,.74-.8,2.13,2.13,0,0,0-.05-1.34,2.45,2.45,0,0,0-.71-1.26.85.85,0,0,0-.8-.18.71.71,0,0,0-.38.31,1.29,1.29,0,0,0-.17.62c0,.15,0,.58.05,1.29a16,16,0,0,1,0,2.17,2,2,0,0,1-.41,1.08,1.84,1.84,0,0,1-1,.62,2.18,2.18,0,0,1-1.3-.05,2.62,2.62,0,0,1-1.18-.85,4.42,4.42,0,0,1-.79-1.52,4,4,0,0,1-.12-2.45A3,3,0,0,1,442.83,373.61Z" style="fill:#757575"/><path d="M445,391.39c-.14-.84-.22-1.26-.38-2.09l7.62-1.45a8.63,8.63,0,0,1-2.11-2.55l1.82-.4a7.32,7.32,0,0,0,1.38,1.7,4,4,0,0,0,2,1.11c.14.75.21,1.12.33,1.87Z" style="fill:#757575"/><path d="M448.2,394.19c.2.85.3,1.28.49,2.14a1.74,1.74,0,0,0-1,.68,1.55,1.55,0,0,0-.29,1.09,1.51,1.51,0,0,0,.63,1.09,2.3,2.3,0,0,0,1.62.33,2,2,0,0,0,1.43-.61,1.66,1.66,0,0,0,.37-1.3,2.31,2.31,0,0,0-1-1.63c0-.73,0-1.1,0-1.83,2.28.15,3.42.23,5.69.43.31,2.46.44,3.7.62,6.18l-1.92.14c-.13-1.74-.21-2.61-.4-4.34l-1.85-.15a3.64,3.64,0,0,1,.51,1.51,3.5,3.5,0,0,1-.76,2.64,3.37,3.37,0,0,1-2.5,1.23,3.8,3.8,0,0,1-2.42-.64,3.74,3.74,0,0,1-1.69-2.9,4,4,0,0,1,.5-2.6A3.32,3.32,0,0,1,448.2,394.19Z" style="fill:#757575"/><path d="M455.23,462.46c-.19.63-.3.94-.52,1.55a5.25,5.25,0,0,1-2.49-2,5.33,5.33,0,0,1-.81-3,6.37,6.37,0,0,1,.59-3,5.07,5.07,0,0,1,1.86-2,6.93,6.93,0,0,1,2.77-1,5.08,5.08,0,0,1,3,.41,4.66,4.66,0,0,1,2.11,2.16,7.55,7.55,0,0,1,.77,3.41,6.21,6.21,0,0,1-.95,3.52,4,4,0,0,1-2.48,1.72c-.05-.7-.09-1.05-.16-1.75a3.15,3.15,0,0,0,1.79-1.25,4.11,4.11,0,0,0,.59-2.28,4.9,4.9,0,0,0-.67-2.64,3.09,3.09,0,0,0-1.69-1.35,5.15,5.15,0,0,0-2.09-.22,6.07,6.07,0,0,0-2.34.68,3.3,3.3,0,0,0-1.43,1.47,4.34,4.34,0,0,0-.45,2,3.51,3.51,0,0,0,2.59,3.54Z" style="fill:#757575"/><path d="M453.49,465c0,.57,0,.86,0,1.44a1.84,1.84,0,0,0-1.3.42,2.47,2.47,0,0,0-.73,1.36,2.39,2.39,0,0,0,0,1.47,1.1,1.1,0,0,0,.71.69.78.78,0,0,0,.79-.22,5.7,5.7,0,0,0,.81-1.33c.49-1,.84-1.69,1.09-2.07a2.28,2.28,0,0,1,.89-.83,1.79,1.79,0,0,1,1.08-.17,1.72,1.72,0,0,1,.91.43,2.25,2.25,0,0,1,.6.9,3.5,3.5,0,0,1,.19,1.08,5.33,5.33,0,0,1-.14,1.41,5.89,5.89,0,0,1-.75,1.85,2.57,2.57,0,0,1-1,1,2.44,2.44,0,0,1-1.31.16c.12-.6.17-.9.27-1.5a1.34,1.34,0,0,0,1.07-.33,2.44,2.44,0,0,0,.68-1.31,2.82,2.82,0,0,0,0-1.59.84.84,0,0,0-.6-.59.68.68,0,0,0-.49.1,1.45,1.45,0,0,0-.46.51c-.08.14-.28.56-.62,1.24a13.84,13.84,0,0,1-1.17,2,2.09,2.09,0,0,1-.95.73,1.76,1.76,0,0,1-1.18,0,2.18,2.18,0,0,1-1.05-.77,2.76,2.76,0,0,1-.53-1.37,4.75,4.75,0,0,1,.12-1.71,4.25,4.25,0,0,1,1.1-2.2A3.07,3.07,0,0,1,453.49,465Z" style="fill:#757575"/><path d="M449.77,477.39c-.31.82-.48,1.23-.84,2a1.41,1.41,0,0,0-1-.09,1.32,1.32,0,0,0-.7.6,1.53,1.53,0,0,0-.13,1.31,4.81,4.81,0,0,0,1.67,1.88,3.22,3.22,0,0,1,.43-2.36,3.85,3.85,0,0,1,2.08-1.7,3.41,3.41,0,0,1,2.76.18,3.09,3.09,0,0,1,1.8,2.28,5.11,5.11,0,0,1-3.72,5.55c-1.21.25-2.58-.25-4.12-1.41a6.51,6.51,0,0,1-2.69-3.51,4.18,4.18,0,0,1,.55-3.21,3.46,3.46,0,0,1,1.63-1.51A3.36,3.36,0,0,1,449.77,477.39Zm1.18,6.93a2,2,0,0,0,1.61.37,1.84,1.84,0,0,0,1.18-.85,1.64,1.64,0,0,0,.23-1.27,1.93,1.93,0,0,0-1.05-1.13,2.12,2.12,0,0,0-1.57-.32,1.8,1.8,0,0,0-1.27,2A1.85,1.85,0,0,0,450.95,484.31Z" style="fill:#757575"/><path d="M451.33,414l10.31-3c.19.66.28,1,.46,1.66l-10.39,2.72C451.57,414.87,451.49,414.59,451.33,414Z" style="fill:#757575"/><path d="M464,424.09c.05.68.08,1,.12,1.71l-6.19.34a7.15,7.15,0,0,1-2.59-.24,3.35,3.35,0,0,1-1.64-1.25,5.24,5.24,0,0,1-.87-2.46,5.83,5.83,0,0,1,.13-2.55,3.17,3.17,0,0,1,1.21-1.67,7,7,0,0,1,2.55-1l6.07-1.29c.14.67.21,1,.33,1.69L457,418.51a5.79,5.79,0,0,0-2,.65,2.07,2.07,0,0,0-.85,1.1,3.5,3.5,0,0,0-.12,1.64,3.32,3.32,0,0,0,1,2.22,4,4,0,0,0,2.78.47Z" style="fill:#757575"/><path d="M456.17,432.65c0,.88,0,1.31,0,2.19a1.76,1.76,0,0,0-1.15.44,1.55,1.55,0,0,0-.52,1,1.51,1.51,0,0,0,.37,1.2,2.32,2.32,0,0,0,1.49.7,2,2,0,0,0,1.54-.27,1.69,1.69,0,0,0,.66-1.21,2.33,2.33,0,0,0-.59-1.83c.16-.72.24-1.09.38-1.82,2.2.6,3.3.92,5.49,1.61a54.78,54.78,0,0,1-.85,6.52l-1.9-.34c.33-1.8.46-2.7.66-4.51l-1.77-.56a3.74,3.74,0,0,1,.16,1.64,3.57,3.57,0,0,1-1.38,2.46,3.29,3.29,0,0,1-2.73.58,3.87,3.87,0,0,1-2.18-1.23,3.75,3.75,0,0,1-1-3.16,4,4,0,0,1,1-2.37A3.4,3.4,0,0,1,456.17,432.65Z" style="fill:#757575"/><line x1="284.5" y1="101.5" x2="284.5" y2="104" style="fill:none;stroke:#757575;stroke-miterlimit:10"/><line x1="284.5" y1="109.04" x2="284.5" y2="307.98" style="fill:none;stroke:#757575;stroke-miterlimit:10;stroke-dasharray:5.036585330963135,5.036585330963135"/><line x1="284.5" y1="310.5" x2="284.5" y2="313" style="fill:none;stroke:#757575;stroke-miterlimit:10"/><text transform="translate(226.19 453.42) scale(0.99 1)" style="font-size:19.421810150146484px;fill:#323232;font-family:Arial-BoldMT, Arial;font-weight:700">109 escaños</text></svg>