<svg id="5f3be6d8-2acc-493b-aed6-4e19b396f29e" data-name="Capa 1" xmlns="http://www.w3.org/2000/svg" viewBox="0 0 532 402"><defs><style>.\35 48a9788-94e5-42cf-9c92-4660318fde9f{font-size:26px;}.\31 0cfe4f5-1317-4fab-8d4a-39e9904cb9f0,.\35 48a9788-94e5-42cf-9c92-4660318fde9f,.a5e788c8-f02a-40f9-a79d-96a9342c86b2{fill:#323232;}.\30 7f9f684-4c22-422f-af36-791074690f57,.\35 48a9788-94e5-42cf-9c92-4660318fde9f,.\39 bff97de-ec2c-4098-a8f2-e02ef9b204ea,.a5e788c8-f02a-40f9-a79d-96a9342c86b2{font-family:Arial-BoldMT, Arial;}.\30 3d66234-f178-480e-8645-5ea0bf2755e9,.\30 7f9f684-4c22-422f-af36-791074690f57,.\34 b0a2a3a-c1ef-4637-8d6e-9cd0584b0f6b,.\35 48a9788-94e5-42cf-9c92-4660318fde9f,.\37 917d01d-61c3-41a0-b212-d413e17753c9,.\38 5b86e07-7884-43b2-a7f0-d1d26330dbb9,.a370495b-83f4-4c53-a286-631f439f74d6,.a5e788c8-f02a-40f9-a79d-96a9342c86b2{font-weight:700;}.\31 0cfe4f5-1317-4fab-8d4a-39e9904cb9f0,.\33 26fb46d-400e-46d7-b569-b489c40c8c35,.a5e788c8-f02a-40f9-a79d-96a9342c86b2{font-size:15px;}.\31 0cfe4f5-1317-4fab-8d4a-39e9904cb9f0,.\31 36736c0-7e53-47c3-a276-5dc925b27109,.\33 26fb46d-400e-46d7-b569-b489c40c8c35,.d5db0c3d-6791-4dec-9a6b-71f6b7cdaa92,.ee85c1b9-d3cd-4b15-bbf7-20497768de82,.efa60508-38dc-41e1-b28f-1aeeee73874d{font-family:ArialMT, Arial;}.ee85c1b9-d3cd-4b15-bbf7-20497768de82{font-size:11px;}.\33 26fb46d-400e-46d7-b569-b489c40c8c35,.\35 e9d099c-f4f1-49d1-aa29-74e91672c91d,.\39 bff97de-ec2c-4098-a8f2-e02ef9b204ea,.ee85c1b9-d3cd-4b15-bbf7-20497768de82{fill:#757575;}.\31 d2245b8-86a2-4b8a-b51c-6842f7ad3cde{fill:#283659;}.\30 9038be2-f5f2-4f37-9e21-e787f15b46ad,.\31 26d0ecf-7c00-42c9-908a-f5607ff35ff7{fill:#fff;}.\35 de9a127-7ec7-47a5-b6cb-f998cf7787fd{fill:#efb21b;}.\31 26d0ecf-7c00-42c9-908a-f5607ff35ff7,.\33 11f9f82-a517-4552-b3c8-2a8e74e53502,.\35 de9a127-7ec7-47a5-b6cb-f998cf7787fd,.\37 357b964-6bc0-4141-a2d7-21562cb08895,.\39 96f763f-7269-4fba-96ab-8a859ada020d,.\39 a640157-b288-4b24-aee9-5df91b9a320d,.c78096f3-ef6e-4755-8e6a-27a402dcb24d,.d205574d-8f51-4b2f-8c4d-6b291c25fc95{stroke:#fff;stroke-linejoin:round;stroke-width:1.6px;}.\33 11f9f82-a517-4552-b3c8-2a8e74e53502,.\35 de9a127-7ec7-47a5-b6cb-f998cf7787fd,.\37 357b964-6bc0-4141-a2d7-21562cb08895,.\39 96f763f-7269-4fba-96ab-8a859ada020d,.\39 a640157-b288-4b24-aee9-5df91b9a320d,.c78096f3-ef6e-4755-8e6a-27a402dcb24d,.d205574d-8f51-4b2f-8c4d-6b291c25fc95{opacity:0.77;}.d205574d-8f51-4b2f-8c4d-6b291c25fc95{fill:#3f4d78;}.c78096f3-ef6e-4755-8e6a-27a402dcb24d{fill:#ffe600;}.\39 96f763f-7269-4fba-96ab-8a859ada020d{fill:#8e244f;}.\33 11f9f82-a517-4552-b3c8-2a8e74e53502{fill:#991d26;}.\37 357b964-6bc0-4141-a2d7-21562cb08895{fill:#d57928;}.\39 a640157-b288-4b24-aee9-5df91b9a320d{fill:#59a5a5;}.\39 bff97de-ec2c-4098-a8f2-e02ef9b204ea{font-size:13px;}.\37 917d01d-61c3-41a0-b212-d413e17753c9{letter-spacing:-0.02em;}.\31 36736c0-7e53-47c3-a276-5dc925b27109,.\38 5b86e07-7884-43b2-a7f0-d1d26330dbb9{letter-spacing:0em;}.a370495b-83f4-4c53-a286-631f439f74d6{letter-spacing:-0.02em;}.\34 b0a2a3a-c1ef-4637-8d6e-9cd0584b0f6b,.efa60508-38dc-41e1-b28f-1aeeee73874d{letter-spacing:0em;}.\31 ce2b201-7a79-4378-b7ce-18f9138260e4,.\34 4b07fa0-9bd4-44f3-bd42-edf27a340d43,.\38 0cc293f-b353-4118-b4f4-9b866ad4cc6f,.adeba0f6-3604-4d2c-8b96-261a8c58c637{fill:none;stroke-miterlimit:10;}.\31 ce2b201-7a79-4378-b7ce-18f9138260e4{stroke:#757575;}.\34 4b07fa0-9bd4-44f3-bd42-edf27a340d43,.\38 0cc293f-b353-4118-b4f4-9b866ad4cc6f,.adeba0f6-3604-4d2c-8b96-261a8c58c637{stroke:#323232;}.\38 0cc293f-b353-4118-b4f4-9b866ad4cc6f{stroke-dasharray:5.09 5.09;}.\34 4b07fa0-9bd4-44f3-bd42-edf27a340d43{stroke-dasharray:5.03 5.03;}</style></defs><title>2017.11_Metaencuestabb</title><text class="548a9788-94e5-42cf-9c92-4660318fde9f" transform="translate(63.62 37.62)">Promedio de los sondeos del 21-D</text><text class="10cfe4f5-1317-4fab-8d4a-39e9904cb9f0" transform="translate(23.76 56.74)">De las encuestas publicadas desde el 26 de octubre al 23 de noviembre</text><text class="ee85c1b9-d3cd-4b15-bbf7-20497768de82" transform="translate(4.5 391.02) scale(0.99 1)">Fuente: Electrograph</text><text class="ee85c1b9-d3cd-4b15-bbf7-20497768de82" transform="translate(8.5 374.02) scale(0.99 1)">*La suma de los porcentajes da 97,46% por el margen de error de las encuestas</text><polygon class="1d2245b8-86a2-4b8a-b51c-6842f7ad3cde" points="429 374.27 525.44 374.27 525.44 388.93 429 388.93 429 374.27 429 374.27"/><path class="09038be2-f5f2-4f37-9e21-e787f15b46ad" d="M506.36,377.55h-3.7V378l1,.23v6.81a.81.81,0,0,1-.68.35,1.45,1.45,0,0,1-1.2-.88l-.92-1.65a1.91,1.91,0,0,0-1.69-1.14v-.12a2.26,2.26,0,0,0,2.33-2.1c0-1.42-1.29-2-2.78-2h-3.35V378l1.1.23v6.91h0l-1.26.24L492,376.83a4,4,0,0,1-1.13,1l.12.35-2.87,7-.86.23v.46h2.62v-.46l-.85-.22,1-2.56h2.66l.93,2.54-1,.24v.46H499v-.46l-1-.23V382a1.57,1.57,0,0,1,1.42,1l1.26,2.25a2,2,0,0,0,1.82,1.11,1.8,1.8,0,0,0,1.2-.49h2.85a4.28,4.28,0,0,0,4.39-4.16,4.17,4.17,0,0,0-4.47-4.16ZM490.23,382l1.12-3,1.08,3Zm8.23-.62h-.57v-3.1h.71a1.4,1.4,0,0,1,1.45,1.48,1.61,1.61,0,0,1-1.57,1.62Zm7.82,3.83h-1.18v-6.93h1.22c1.89,0,3,1.31,3,3.46s-1.21,3.46-3.08,3.46Z"/><path class="09038be2-f5f2-4f37-9e21-e787f15b46ad" d="M445.71,385.17l-3.07-8.34a3.94,3.94,0,0,1-1.13,1l.12.35-2.85,7-.61.23-.18.46h2.54v-.46l-.85-.22,1-2.56h2.66l.93,2.54-1,.24v.46h3.42v-.46l-.91-.23Zm-4.87-3.2,1.13-3,1.08,3Z"/><polygon class="09038be2-f5f2-4f37-9e21-e787f15b46ad" points="438.39 383.75 438.08 383.58 436.29 385.21 434.75 385.21 434.75 378.25 435.68 378.01 435.68 377.54 432.37 377.54 432.37 378.01 433.3 378.25 433.3 385.15 432.37 385.39 432.37 385.86 437.57 385.86 438.39 383.75 438.39 383.75"/><polygon class="09038be2-f5f2-4f37-9e21-e787f15b46ad" points="452.83 377.54 452.83 378.01 453.83 378.25 451.66 383.81 449.37 378.24 450.45 378.01 450.45 377.54 446.76 377.54 446.76 378.01 447.82 378.24 451.1 386.14 451.45 386.14 454.72 378.25 454.75 378.25 455.77 378.01 455.77 377.54 452.83 377.54 452.83 377.54"/><path class="09038be2-f5f2-4f37-9e21-e787f15b46ad" d="M485.6,377.55V378l1,.24s.07,4.12,0,5.16a2.1,2.1,0,0,1-2.14,2h-.11a2.07,2.07,0,0,1-2.24-2.13v-5.07l1-.22v-.46h-3.34V378l.95.23v5.11a3.07,3.07,0,0,0,3.3,2.91,3,3,0,0,0,3.3-2.91l.06-5.1,1-.24v-.46Z"/><path class="09038be2-f5f2-4f37-9e21-e787f15b46ad" d="M521.7,385.15l-3.06-8.32a3.94,3.94,0,0,1-1.13,1l.12.35-2.86,7-.49.2-.66-.21v-6.94l1-.23v-.46h-3.48V378l1,.24v6.92l-1,.23v.46h5.3v-.46l-.85-.23,1-2.56h2.66l.93,2.54-1,.24v.46h3.43v-.46l-.92-.24ZM516.84,382l1.13-3,1.08,3Z"/><path class="09038be2-f5f2-4f37-9e21-e787f15b46ad" d="M467.75,377.55V378l1,.24.06,5.44-5.21-6.14H461.4V378l1,.22.08,0-.07,6.88h0l-1,.24-3.14-8.56a4,4,0,0,1-1.1,1l.12.35-2.87,7-.86.23v.46h2.62v-.46l-.85-.22,1-2.56h2.66l.93,2.54-1,.24v.46h5.47v-.46l-1-.24-.12-6,6,7h.39l.08-7.9,1-.23v-.46ZM456.44,382l1.13-3,1.08,3Z"/><path class="09038be2-f5f2-4f37-9e21-e787f15b46ad" d="M476.52,381.61v.46l.94.24V385a3.11,3.11,0,0,1-1.88.62c-1.89,0-3.1-1.57-3.1-3.79s1.18-4,3.14-4a3,3,0,0,1,2.78,2.26l.27-.16v-2.62l-.24-.13-.52.64a5.24,5.24,0,0,0-2.3-.59,4.65,4.65,0,0,0-4.66,4.58,4.22,4.22,0,0,0,4,4.43h.3a4.29,4.29,0,0,0,2.68-.89l.73.49h.24V382.3l.79-.3v-.38Z"/><path class="5de9a127-7ec7-47a5-b6cb-f998cf7787fd" d="M282,312.25A122.14,122.14,0,0,1,313.3,186.64l59.39,61.5a36.64,36.64,0,0,0-9.4,37.68Z"/><path class="d205574d-8f51-4b2f-8c4d-6b291c25fc95" d="M313.3,186.64a122.14,122.14,0,0,1,56.13-30.86l20.1,83.1a36.64,36.64,0,0,0-16.84,9.26Z"/><path class="c78096f3-ef6e-4755-8e6a-27a402dcb24d" d="M369.43,155.79A122.14,122.14,0,0,1,393,152.47l3.58,85.43a36.64,36.64,0,0,0-7.08,1Z"/><path class="996f763f-7269-4fba-96ab-8a859ada020d" d="M393,152.47a122.14,122.14,0,0,1,33.84,3.32l-20.1,83.1a36.64,36.64,0,0,0-10.15-1Z"/><path class="311f9f82-a517-4552-b3c8-2a8e74e53502" d="M426.87,155.79A122.14,122.14,0,0,1,485.42,189l-61.09,59.82a36.64,36.64,0,0,0-17.56-10Z"/><path class="7357b964-6bc0-4141-a2d7-21562cb08895" d="M485.42,189a122.14,122.14,0,0,1,34.8,89.72l-85.45-3a36.64,36.64,0,0,0-10.44-26.92Z"/><path class="9a640157-b288-4b24-aee9-5df91b9a320d" d="M520.22,278.77a122.14,122.14,0,0,1-5.9,33.48L433,285.83a36.64,36.64,0,0,0,1.77-10Z"/><circle class="126d0ecf-7c00-42c9-908a-f5607ff35ff7" cx="398.92" cy="275.05" r="89.95"/><path class="5e9d099c-f4f1-49d1-aa29-74e91672c91d" d="M521.71,280.35l9.28-.74c.11,1.38.15,2.07.2,3.45a12.06,12.06,0,0,1-.09,2.56,2.73,2.73,0,0,1-.92,1.52,2.64,2.64,0,0,1-1.82.57,2.87,2.87,0,0,1-1.44-.37,2.72,2.72,0,0,1-.91-.86,3.07,3.07,0,0,1-.44-1,13.89,13.89,0,0,1-.18-2.07c0-.52,0-.78-.06-1.3l-3.5.19C521.8,281.5,521.78,281.12,521.71,280.35Zm7.85,1.5-2.64.14c0,.45,0,.67.05,1.12a6.24,6.24,0,0,0,.19,1.61,1.35,1.35,0,0,0,.47.64,1.19,1.19,0,0,0,.73.23,1.12,1.12,0,0,0,.83-.34,1.49,1.49,0,0,0,.4-.85,9.93,9.93,0,0,0,0-1.52C529.59,282.46,529.58,282.26,529.56,281.85Z"/><path class="5e9d099c-f4f1-49d1-aa29-74e91672c91d" d="M521.88,289.14l9.3.4c-.06,1.38-.1,2.06-.22,3.43a12,12,0,0,1-.39,2.52,2.72,2.72,0,0,1-1.09,1.39,2.64,2.64,0,0,1-1.88.34,2.88,2.88,0,0,1-1.38-.54,2.72,2.72,0,0,1-.8-1,3.06,3.06,0,0,1-.31-1.08,13.77,13.77,0,0,1,.07-2.07c0-.52.06-.78.1-1.29l-3.5-.24C521.83,290.27,521.85,289.9,521.88,289.14Zm7.61,2.43-2.63-.18c0,.44,0,.67-.08,1.11a6.18,6.18,0,0,0,0,1.61,1.35,1.35,0,0,0,.39.68,1.19,1.19,0,0,0,.69.31,1.13,1.13,0,0,0,.87-.23,1.49,1.49,0,0,0,.5-.79,10,10,0,0,0,.2-1.5C529.44,292.17,529.46,292,529.49,291.56Z"/><path class="5e9d099c-f4f1-49d1-aa29-74e91672c91d" d="M519.42,305c.12-.45.18-.67.29-1.12l7.06,1.8a7.25,7.25,0,0,1-.48-1.35,10,10,0,0,1-.28-1.42l1.08.24a8.79,8.79,0,0,0,.64,2.07,4.73,4.73,0,0,0,.92,1.42l-.22.81Z"/><path class="5e9d099c-f4f1-49d1-aa29-74e91672c91d" d="M523,309.24a7.6,7.6,0,0,1,2.42,1.16,3.19,3.19,0,0,1,1.12,1.56,3.1,3.1,0,0,1-.12,2,3.37,3.37,0,0,1-.81,1.3,2.65,2.65,0,0,1-1.2.67,4.24,4.24,0,0,1-1.53.08,10.29,10.29,0,0,1-4.43-2,3.44,3.44,0,0,1-1.06-1.54,2.75,2.75,0,0,1,.09-1.8,2.7,2.7,0,0,1,1.62-1.72A6.12,6.12,0,0,1,523,309.24Zm-.39,1.2a5.72,5.72,0,0,0-3.07-.44,1.63,1.63,0,0,0-.93,2.58,5.72,5.72,0,0,0,2.63,1.64,5.25,5.25,0,0,0,3.06.56,1.82,1.82,0,0,0,1.24-1.15,1.68,1.68,0,0,0-.16-1.56A5.3,5.3,0,0,0,522.56,310.44Z"/><text class="9bff97de-ec2c-4098-a8f2-e02ef9b204ea" transform="translate(420.05 134.52) rotate(-0.14)"><tspan class="03d66234-f178-480e-8645-5ea0bf2755e9">CeC-</tspan><tspan class="7917d01d-61c3-41a0-b212-d413e17753c9" x="30.34" y="0">P</tspan><tspan class="03d66234-f178-480e-8645-5ea0bf2755e9" x="38.77" y="0"> </tspan><tspan class="136736c0-7e53-47c3-a276-5dc925b27109" x="42.38" y="0">10</tspan></text><text class="9bff97de-ec2c-4098-a8f2-e02ef9b204ea" transform="translate(329.45 107.5) rotate(-0.14)"><tspan class="03d66234-f178-480e-8645-5ea0bf2755e9">CU</tspan><tspan class="a370495b-83f4-4c53-a286-631f439f74d6" x="18.78" y="0">P</tspan><tspan class="4b0a2a3a-c1ef-4637-8d6e-9cd0584b0f6b" x="27.21" y="0"> </tspan><tspan class="d5db0c3d-6791-4dec-9a6b-71f6b7cdaa92" x="30.82" y="0">7</tspan></text><path class="5e9d099c-f4f1-49d1-aa29-74e91672c91d" d="M277.18,243.85l-9.07-2.07c.69-3,1.09-4.49,2-7.42l1.5.46c-.65,2.1-.94,3.16-1.48,5.3l2,.5c.49-1.95.76-2.92,1.34-4.83l1.5.46c-.57,1.89-.84,2.84-1.32,4.76l2.46.61c.52-2.08.81-3.11,1.44-5.15l1.5.46C278.19,239.67,277.82,241.05,277.18,243.85Z"/><path class="5e9d099c-f4f1-49d1-aa29-74e91672c91d" d="M279.53,235.39l-8.84-2.91c.55-1.67.84-2.5,1.46-4.14a7.62,7.62,0,0,1,1.11-2.15,2.26,2.26,0,0,1,1.28-.76,2.49,2.49,0,0,1,1.52.16,2.42,2.42,0,0,1,1.34,1.28,3.31,3.31,0,0,1,.07,2.13,4.36,4.36,0,0,1,1.12-.69,9.54,9.54,0,0,1,1.82-.45l2.12-.36c-.36.83-.53,1.25-.87,2.09-1,.21-1.43.31-2.39.54a11.56,11.56,0,0,0-1.64.48,1.49,1.49,0,0,0-.57.42,3.31,3.31,0,0,0-.44.9l-.13.38,3.66,1.29C279.9,234.31,279.77,234.67,279.53,235.39Zm-4.45-3.58c.2-.56.3-.84.5-1.4a8.94,8.94,0,0,0,.53-1.73A1.09,1.09,0,0,0,276,228a1.16,1.16,0,0,0-.57-.45,1.05,1.05,0,0,0-.81,0,1.26,1.26,0,0,0-.62.59,14.69,14.69,0,0,0-.56,1.39c-.22.6-.33.9-.54,1.51Z"/><path class="5e9d099c-f4f1-49d1-aa29-74e91672c91d" d="M282.53,219.56c.56-.57.84-.85,1.41-1.4a4.35,4.35,0,0,1-1.64,7.14,4.88,4.88,0,0,1-3.67-.28,4.73,4.73,0,0,1-2.76-2.65,4.58,4.58,0,0,1,.34-3.69,4.37,4.37,0,0,1,2.3-2.26,3.5,3.5,0,0,1,2-.1c-.23.79-.34,1.19-.55,2a1.92,1.92,0,0,0-1.36.14,2.24,2.24,0,0,0-1,1.05,2.35,2.35,0,0,0-.13,2,3.41,3.41,0,0,0,1.88,1.65,3.85,3.85,0,0,0,2.56.47,2.19,2.19,0,0,0,1.41-1.2,2,2,0,0,0,.17-1.4A2.8,2.8,0,0,0,282.53,219.56Z"/><path class="5e9d099c-f4f1-49d1-aa29-74e91672c91d" d="M290.88,212.22,289,211c-.93,1.39-1.39,2.09-2.26,3.51l-.89-.55c-1.13-2.77-1.65-4.2-2.59-7.11l.59-.86,5,3.43.76-1.08.85.61L289.7,210l1.83,1.27Zm-2.72-1.83L284.68,208c.68,2,1,3,1.82,4.9C287.15,211.91,287.48,211.4,288.16,210.39Z"/><path class="5e9d099c-f4f1-49d1-aa29-74e91672c91d" d="M289.25,206.56a7.76,7.76,0,0,1-1.93-1.87,3.2,3.2,0,0,1-.58-1.82,3,3,0,0,1,.71-1.82,3.24,3.24,0,0,1,1.15-1,2.62,2.62,0,0,1,1.33-.25,4.31,4.31,0,0,1,1.47.39,8.42,8.42,0,0,1,1.83,1.23,8.31,8.31,0,0,1,1.81,2,3.41,3.41,0,0,1,.55,1.79,2.73,2.73,0,0,1-.64,1.69,2.68,2.68,0,0,1-2.07,1.12A6.12,6.12,0,0,1,289.25,206.56Zm.74-1a5.74,5.74,0,0,0,2.77,1.39,1.62,1.62,0,0,0,1.68-2.15,5.73,5.73,0,0,0-2-2.35,5.37,5.37,0,0,0-2.74-1.47,1.77,1.77,0,0,0-1.51.68,1.63,1.63,0,0,0-.32,1.5A5.41,5.41,0,0,0,290,205.56Z"/><path class="5e9d099c-f4f1-49d1-aa29-74e91672c91d" d="M512.29,218.37c.21.79.31,1.18.49,2a4.31,4.31,0,0,1-2.69-.11,4.37,4.37,0,0,1-2-1.74,4.43,4.43,0,0,1-.73-3.29,4.84,4.84,0,0,1,2-3.08,4.59,4.59,0,0,1,3.71-1.06,4.87,4.87,0,0,1,3.13,2.29,4.6,4.6,0,0,1,.83,3.26,3.43,3.43,0,0,1-.94,1.79c-.57-.64-.86-.95-1.44-1.57a1.9,1.9,0,0,0,.57-1.26,2.37,2.37,0,0,0-.43-1.44,2.5,2.5,0,0,0-1.68-1.17,3.3,3.3,0,0,0-2.39.79,3.81,3.81,0,0,0-1.67,2,2.27,2.27,0,0,0,.34,1.85,2.07,2.07,0,0,0,1.13.88A2.83,2.83,0,0,0,512.29,218.37Z"/><path class="5e9d099c-f4f1-49d1-aa29-74e91672c91d" d="M512.47,221.67c.46.6.68.91,1.12,1.52a1.32,1.32,0,0,0-.49.79,1.71,1.71,0,0,0,.21,1,1.91,1.91,0,0,0,.69.86.56.56,0,0,0,.54,0,.45.45,0,0,0,.25-.26,1.48,1.48,0,0,0-.05-.67,12.86,12.86,0,0,1-.52-3,1.73,1.73,0,0,1,.93-1.48,1.78,1.78,0,0,1,1.66,0,3.72,3.72,0,0,1,1.62,1.87,4.3,4.3,0,0,1,.57,2.27,2.25,2.25,0,0,1-.81,1.47c-.41-.63-.61-.94-1-1.55a1,1,0,0,0,.36-.66,1.72,1.72,0,0,0-.22-.94,2.24,2.24,0,0,0-.67-.91.42.42,0,0,0-.42,0,.39.39,0,0,0-.2.32,8.71,8.71,0,0,0,.35,1.84,5.06,5.06,0,0,1,.16,2.27,1.58,1.58,0,0,1-1,1.07,2.06,2.06,0,0,1-1.78-.1,3.72,3.72,0,0,1-1.58-1.83,4.09,4.09,0,0,1-.5-2.22A2.66,2.66,0,0,1,512.47,221.67Z"/><path class="5e9d099c-f4f1-49d1-aa29-74e91672c91d" d="M515.53,233.5c-.14-.44-.22-.66-.37-1.09L522,230a7.3,7.3,0,0,1-1.15-.88,10.42,10.42,0,0,1-1-1l1-.4a9,9,0,0,0,1.69,1.39,4.86,4.86,0,0,0,1.56.69l.27.81Z"/><path class="5e9d099c-f4f1-49d1-aa29-74e91672c91d" d="M520.81,235.11a7.5,7.5,0,0,1,2.66-.34,3,3,0,0,1,2.78,2.49,3.44,3.44,0,0,1,0,1.55,2.66,2.66,0,0,1-.65,1.22,4.17,4.17,0,0,1-1.24.89,8.17,8.17,0,0,1-2.13.61,8.31,8.31,0,0,1-2.67.11,3.47,3.47,0,0,1-1.72-.73,2.76,2.76,0,0,1-.89-1.57,2.72,2.72,0,0,1,.42-2.32A6.12,6.12,0,0,1,520.81,235.11Zm.33,1.23a5.69,5.69,0,0,0-2.82,1.3,1.64,1.64,0,0,0,.61,2.68,5.71,5.71,0,0,0,3.1,0,5.21,5.21,0,0,0,2.88-1.18,1.84,1.84,0,0,0,.42-1.65,1.71,1.71,0,0,0-1-1.24A5.25,5.25,0,0,0,521.14,236.34Z"/><path class="5e9d099c-f4f1-49d1-aa29-74e91672c91d" d="M439.89,158c1.25-3.51,1.88-5.26,3.15-8.76,1.24.44,1.86.67,3.09,1.14a11.9,11.9,0,0,1,2.21,1,2.61,2.61,0,0,1,1,1.39,2.71,2.71,0,0,1-.17,1.89,2.93,2.93,0,0,1-.87,1.2,2.67,2.67,0,0,1-1.12.53,2.93,2.93,0,0,1-1.11,0,12.41,12.41,0,0,1-1.94-.62l-1.2-.45-1.23,3.29Zm4.52-6.58-.93,2.47,1,.38a5.7,5.7,0,0,0,1.52.43,1.33,1.33,0,0,0,.75-.19,1.21,1.21,0,0,0,.48-.59,1.14,1.14,0,0,0,0-.9,1.42,1.42,0,0,0-.6-.68,9.77,9.77,0,0,0-1.34-.59Z"/><path class="5e9d099c-f4f1-49d1-aa29-74e91672c91d" d="M448.85,158.29l1.81.6a2.22,2.22,0,0,0,.07,1.51,2.14,2.14,0,0,0,1.09,1,2.22,2.22,0,0,0,1.43.26,1.14,1.14,0,0,0,.82-.6.82.82,0,0,0,.06-.59,1.59,1.59,0,0,0-.46-.67c-.17-.17-.59-.52-1.25-1a5.73,5.73,0,0,1-1.64-1.76,2.38,2.38,0,0,1-.07-2.08,2.27,2.27,0,0,1,.93-1,2.66,2.66,0,0,1,1.54-.35,5.26,5.26,0,0,1,1.95.54,4.36,4.36,0,0,1,2.24,1.93,2.59,2.59,0,0,1,0,2.27l-1.83-.81a1.54,1.54,0,0,0,0-1.17,2.1,2.1,0,0,0-1-.83,2.4,2.4,0,0,0-1.4-.27.67.67,0,0,0-.53.39.7.7,0,0,0,0,.64,5.71,5.71,0,0,0,1.4,1.33,9.25,9.25,0,0,1,1.64,1.53,2.63,2.63,0,0,1,.54,1.33,2.66,2.66,0,0,1-.32,1.5,2.73,2.73,0,0,1-1.08,1.13,2.77,2.77,0,0,1-1.61.36,5.63,5.63,0,0,1-2-.58,4.27,4.27,0,0,1-2.17-1.88A3.57,3.57,0,0,1,448.85,158.29Z"/><path class="5e9d099c-f4f1-49d1-aa29-74e91672c91d" d="M463,165l1.32,1.46a4.31,4.31,0,0,1-7-2,5.6,5.6,0,0,1,3.34-6.24,4.51,4.51,0,0,1,3.61.51,4.24,4.24,0,0,1,2.09,2.37,3.53,3.53,0,0,1,0,2l-1.93-.62a1.91,1.91,0,0,0-.06-1.35,2.17,2.17,0,0,0-1-1,2.31,2.31,0,0,0-1.93-.22,3.46,3.46,0,0,0-1.75,1.79,3.83,3.83,0,0,0-.62,2.52,2.16,2.16,0,0,0,1.12,1.47,2,2,0,0,0,1.38.24A2.79,2.79,0,0,0,463,165Z"/><path class="5e9d099c-f4f1-49d1-aa29-74e91672c91d" d="M472.59,174l-.65.89c-2-1.46-3-2.16-5.1-3.52a2,2,0,0,1,.55-.59,4,4,0,0,1,1.32-.61,10.9,10.9,0,0,1,2.07-.31,14.64,14.64,0,0,0,2.88-.4,2.33,2.33,0,0,0,1.26-.79,1.47,1.47,0,0,0,.24-1.23,1.93,1.93,0,0,0-.84-1.16,2,2,0,0,0-1.45-.39,1.8,1.8,0,0,0-1.21.84l-1-.79a2.79,2.79,0,0,1,1.92-1.13,3.45,3.45,0,0,1,2.28.72,3.25,3.25,0,0,1,1.44,1.92,2.33,2.33,0,0,1-.41,2,2.7,2.7,0,0,1-.84.75,4.44,4.44,0,0,1-1.31.46,22.21,22.21,0,0,1-2.44.28,17.14,17.14,0,0,0-1.78.2,3.61,3.61,0,0,0-.75.24C470.33,172.4,471.09,172.93,472.59,174Z"/><path class="5e9d099c-f4f1-49d1-aa29-74e91672c91d" d="M475.68,172a8,8,0,0,1,1.88-1.91,3.25,3.25,0,0,1,1.8-.59,2.88,2.88,0,0,1,1.78.68,3.1,3.1,0,0,1,.93,1.12,2.56,2.56,0,0,1,.24,1.3,4.41,4.41,0,0,1-.4,1.46,8.67,8.67,0,0,1-1.23,1.84,8.44,8.44,0,0,1-1.95,1.82,3.39,3.39,0,0,1-1.77.57,2.67,2.67,0,0,1-1.68-.63,2.64,2.64,0,0,1-1.11-2.07A6.1,6.1,0,0,1,475.68,172Zm1,.73a5.76,5.76,0,0,0-1.41,2.76,1.59,1.59,0,0,0,2.13,1.66,5.79,5.79,0,0,0,2.34-2,5.48,5.48,0,0,0,1.47-2.73,1.71,1.71,0,0,0-.65-1.48,1.59,1.59,0,0,0-1.48-.3A5.52,5.52,0,0,0,476.66,172.69Z"/><path class="5e9d099c-f4f1-49d1-aa29-74e91672c91d" d="M309.95,173.65c.6-.62.9-.93,1.51-1.53l4.11,4.07a5.53,5.53,0,0,1,1.09,1.38,2.51,2.51,0,0,1,.19,1.63,3.65,3.65,0,0,1-1,1.74,3.16,3.16,0,0,1-2,1.12,3.07,3.07,0,0,1-2.21-.85c.44-.62.66-.93,1.11-1.55a2.34,2.34,0,0,0,1,.55,1.33,1.33,0,0,0,1.42-1.31,2.6,2.6,0,0,0-.87-1.2Z"/><path class="5e9d099c-f4f1-49d1-aa29-74e91672c91d" d="M318.78,177.74c-.23-1.67-.33-2.51-.48-4.21-1.61-.27-2.42-.39-4.07-.59.7-.67,1.06-1,1.77-1.66.89.18,1.33.27,2.2.47-.07-.9-.11-1.36-.16-2.27.71-.6,1.06-.9,1.79-1.49,0,1.61,0,2.4.11,4,1.73.35,2.58.55,4.25,1-.7.56-1,.85-1.73,1.43-1-.25-1.45-.37-2.43-.6.11,1,.17,1.49.31,2.47C319.71,176.85,319.4,177.14,318.78,177.74Z"/><path class="5e9d099c-f4f1-49d1-aa29-74e91672c91d" d="M328.09,165.92c.77-.25,1.16-.36,1.93-.59a4.15,4.15,0,0,1,0,2.65,4.4,4.4,0,0,1-1.67,2,4.46,4.46,0,0,1-3.26.87A4.71,4.71,0,0,1,322,169a4.49,4.49,0,0,1-1.15-3.59,4.79,4.79,0,0,1,2.12-3.13,4.59,4.59,0,0,1,3.16-1,3.4,3.4,0,0,1,1.81.83c-.6.59-.89.89-1.47,1.49a1.88,1.88,0,0,0-1.26-.5,2.36,2.36,0,0,0-1.4.48,2.45,2.45,0,0,0-1.09,1.69,3.22,3.22,0,0,0,.85,2.31,3.68,3.68,0,0,0,2,1.56,2.29,2.29,0,0,0,1.83-.42,2.07,2.07,0,0,0,.83-1.15A2.71,2.71,0,0,0,328.09,165.92Z"/><path class="5e9d099c-f4f1-49d1-aa29-74e91672c91d" d="M340.44,162.7c-.75.36-1.13.55-1.87.93-.67-.59-1-.88-1.7-1.45-1.38.72-2.06,1.1-3.41,1.89.14.88.21,1.31.37,2.19-.7.42-1,.63-1.73,1.06a96.19,96.19,0,0,1-1.34-9.83c.78-.45,1.18-.67,2-1.09A96.57,96.57,0,0,1,340.44,162.7Zm-4.84-1.59c-1.12-.94-1.69-1.4-2.84-2.31.17,1.46.26,2.18.47,3.62C334.16,161.88,334.64,161.62,335.59,161.11Z"/><path class="5e9d099c-f4f1-49d1-aa29-74e91672c91d" d="M342.4,161.78l-3.07-6.92c-1.13.51-1.68.77-2.79,1.31l-.67-1.39a77.3,77.3,0,0,1,7.71-3.36l.54,1.44c-1.15.44-1.72.67-2.86,1.15l2.91,7Z"/><path class="5e9d099c-f4f1-49d1-aa29-74e91672c91d" d="M355.26,157.23l-1.13.31-1.85-6.9a7.17,7.17,0,0,1-1,1.08,10.14,10.14,0,0,1-1.11.94l-.31-1a8.84,8.84,0,0,0,1.5-1.56,4.7,4.7,0,0,0,.79-1.49l.81-.22C353.92,151.9,354.37,153.68,355.26,157.23Z"/><path class="5e9d099c-f4f1-49d1-aa29-74e91672c91d" d="M357.92,154.42l1.11-.34a1.83,1.83,0,0,0,.76,1,1.59,1.59,0,0,0,1.09.14,2,2,0,0,0,.91-.41,2.1,2.1,0,0,0,.57-.74,3.75,3.75,0,0,0,.28-1.13,5.29,5.29,0,0,0,0-1.39l0-.22a2.89,2.89,0,0,1-.87,1,3.06,3.06,0,0,1-1.3.58,3,3,0,0,1-2.21-.39,3.14,3.14,0,0,1-.83-4.33,3.38,3.38,0,0,1,2.18-1.3,3.65,3.65,0,0,1,1.95.14,3,3,0,0,1,1.47,1.15,5.89,5.89,0,0,1,.77,2.49,8,8,0,0,1,0,2.83,3.48,3.48,0,0,1-1,1.75,3.35,3.35,0,0,1-1.73.86,2.83,2.83,0,0,1-1.91-.22A2.53,2.53,0,0,1,357.92,154.42Zm4.26-4.93a2,2,0,0,0-.81-1.42,1.92,1.92,0,0,0-1.5-.31,2.08,2.08,0,0,0-1.36.89,2.1,2.1,0,0,0-.32,1.68,1.85,1.85,0,0,0,.84,1.27,2,2,0,0,0,1.51.26,2,2,0,0,0,1.31-.79A2.07,2.07,0,0,0,362.18,149.49Z"/><line class="1ce2b201-7a79-4378-b7ce-18f9138260e4" x1="405" y1="137" x2="405" y2="151.5"/><line class="1ce2b201-7a79-4378-b7ce-18f9138260e4" x1="377.5" y1="111.5" x2="377.5" y2="154"/><line class="1ce2b201-7a79-4378-b7ce-18f9138260e4" x1="475.5" y1="137.5" x2="405" y2="137.5"/><line class="1ce2b201-7a79-4378-b7ce-18f9138260e4" x1="143" y1="136" x2="143" y2="152.5"/><line class="1ce2b201-7a79-4378-b7ce-18f9138260e4" x1="213.5" y1="136.5" x2="143" y2="136.5"/><line class="1ce2b201-7a79-4378-b7ce-18f9138260e4" x1="331" y1="111.5" x2="378" y2="111.5"/><line class="1ce2b201-7a79-4378-b7ce-18f9138260e4" x1="104.5" y1="114.5" x2="104.5" y2="155.5"/><line class="1ce2b201-7a79-4378-b7ce-18f9138260e4" x1="52.5" y1="114.5" x2="105" y2="114.5"/><path class="5de9a127-7ec7-47a5-b6cb-f998cf7787fd" d="M16.78,312A122.23,122.23,0,0,1,38.49,196.75L104.66,251a36.67,36.67,0,0,0-6.51,34.57Z"/><path class="d205574d-8f51-4b2f-8c4d-6b291c25fc95" d="M38.49,196.75A122.23,122.23,0,0,1,89.2,160.13L119.88,240a36.67,36.67,0,0,0-15.21,11Z"/><path class="c78096f3-ef6e-4755-8e6a-27a402dcb24d" d="M89.2,160.13a122.23,122.23,0,0,1,27-7L128,237.91a36.67,36.67,0,0,0-8.11,2.09Z"/><path class="996f763f-7269-4fba-96ab-8a859ada020d" d="M116.24,153.16a122.23,122.23,0,0,1,41,1.27l-17,83.86a36.67,36.67,0,0,0-12.3-.38Z"/><path class="311f9f82-a517-4552-b3c8-2a8e74e53502" d="M157.26,154.43a122.23,122.23,0,0,1,61.78,33l-60.21,60.79a36.67,36.67,0,0,0-18.53-9.89Z"/><path class="7357b964-6bc0-4141-a2d7-21562cb08895" d="M219,187.39a122.23,122.23,0,0,1,36.2,88.74l-85.55-1.33a36.67,36.67,0,0,0-10.86-26.62Z"/><path class="9a640157-b288-4b24-aee9-5df91b9a320d" d="M255.23,276.13a122.23,122.23,0,0,1-6,35.87L167.9,285.56a36.67,36.67,0,0,0,1.79-10.76Z"/><circle class="126d0ecf-7c00-42c9-908a-f5607ff35ff7" cx="133.2" cy="272.84" r="89.95"/><text class="10cfe4f5-1317-4fab-8d4a-39e9904cb9f0" transform="translate(324.5 329.02) scale(0.99 1)">Promedio de <tspan class="07f9f684-4c22-422f-af36-791074690f57" x="89.22" y="0">escaños</tspan></text><text class="326fb46d-400e-46d7-b569-b489c40c8c35" transform="translate(133.5 260.02) scale(0.99 1)">Mayoría <tspan x="0" y="18">Absoluta</tspan></text><text class="326fb46d-400e-46d7-b569-b489c40c8c35" transform="translate(404.5 260.02) scale(0.99 1)">Mayoría <tspan x="0" y="18">Absoluta</tspan></text><text class="a5e788c8-f02a-40f9-a79d-96a9342c86b2" transform="translate(383.5 310.02) scale(0.99 1)">135</text><text class="a5e788c8-f02a-40f9-a79d-96a9342c86b2" transform="translate(113.5 310.02) scale(0.99 1)">100%*</text><text class="10cfe4f5-1317-4fab-8d4a-39e9904cb9f0" transform="translate(22.5 329.02) scale(0.99 1)">Promedio de <tspan class="07f9f684-4c22-422f-af36-791074690f57" x="89.22" y="0">porcentaje de voto</tspan></text><path class="5e9d099c-f4f1-49d1-aa29-74e91672c91d" d="M255.61,276l9.27-.79c.12,1.39.17,2.09.23,3.48a12.44,12.44,0,0,1-.05,2.58,2.76,2.76,0,0,1-.89,1.54,2.62,2.62,0,0,1-1.81.6,2.84,2.84,0,0,1-1.44-.35,2.73,2.73,0,0,1-.92-.86,3.16,3.16,0,0,1-.46-1,14.19,14.19,0,0,1-.21-2.1c0-.53,0-.79-.07-1.32l-3.5.22C255.7,277.13,255.67,276.74,255.61,276Zm7.86,1.47-2.64.16c0,.45,0,.68.06,1.13a6.32,6.32,0,0,0,.21,1.63,1.38,1.38,0,0,0,.47.64,1.17,1.17,0,0,0,.73.22,1.11,1.11,0,0,0,.83-.35,1.52,1.52,0,0,0,.39-.86,10.43,10.43,0,0,0,0-1.53C263.51,278.05,263.49,277.84,263.47,277.43Z"/><path class="5e9d099c-f4f1-49d1-aa29-74e91672c91d" d="M255.89,284.94l9.3.23c0,1.39-.06,2.08-.15,3.47a12.43,12.43,0,0,1-.33,2.55,2.75,2.75,0,0,1-1.06,1.43,2.63,2.63,0,0,1-1.87.4,2.85,2.85,0,0,1-1.39-.5,2.72,2.72,0,0,1-.82-1,3.15,3.15,0,0,1-.34-1.09,14.05,14.05,0,0,1,0-2.1c0-.53,0-.79.07-1.32l-3.51-.17C255.86,286.1,255.87,285.71,255.89,284.94Zm7.65,2.31-2.64-.13c0,.45,0,.68-.06,1.13a6.26,6.26,0,0,0,0,1.64,1.37,1.37,0,0,0,.4.68,1.17,1.17,0,0,0,.7.3,1.12,1.12,0,0,0,.86-.26,1.51,1.51,0,0,0,.48-.81,10.36,10.36,0,0,0,.17-1.52C263.51,287.86,263.52,287.66,263.54,287.25Z"/><path class="5e9d099c-f4f1-49d1-aa29-74e91672c91d" d="M262.68,298.34l1.08.19c-.47,2.72-.76,4.08-1.44,6.76l-.86-.22a11.27,11.27,0,0,0-2-2.51,13.2,13.2,0,0,0-2.83-2.12,11,11,0,0,0-2.41-1c.1-.47.14-.71.23-1.19a10.43,10.43,0,0,1,2.52.95,12,12,0,0,1,2.68,1.86,11.28,11.28,0,0,1,2,2.32C262.12,301.39,262.33,300.38,262.68,298.34Z"/><path class="5e9d099c-f4f1-49d1-aa29-74e91672c91d" d="M253,304.77l1.25.35c-.15.53-.22.79-.37,1.31l-1.25-.37a2.29,2.29,0,0,1-1-.57,1.71,1.71,0,0,1-.43-1l.56-.18a1.12,1.12,0,0,0,.3.65,2,2,0,0,0,.8.43Z"/><path class="5e9d099c-f4f1-49d1-aa29-74e91672c91d" d="M259.76,310.27l1,.33c-.84,2.64-1.31,3.95-2.35,6.52l-.82-.33A11.21,11.21,0,0,0,256,314a13.13,13.13,0,0,0-2.52-2.5,11,11,0,0,0-2.26-1.29c.16-.46.24-.69.4-1.15a10.41,10.41,0,0,1,2.37,1.28,12,12,0,0,1,2.4,2.21,11.27,11.27,0,0,1,1.64,2.58C258.79,313.23,259.13,312.25,259.76,310.27Z"/><path class="5e9d099c-f4f1-49d1-aa29-74e91672c91d" d="M240.71,207.3c.26.77.39,1.15.63,1.92a4.22,4.22,0,0,1-2.7.08,4.89,4.89,0,0,1-3-4.93,4.79,4.79,0,0,1,1.91-3.16,4.68,4.68,0,0,1,3.65-1.22,4.77,4.77,0,0,1,3.19,2.05,4.5,4.5,0,0,1,1,3.13,3.48,3.48,0,0,1-.82,1.84c-.61-.58-.92-.87-1.53-1.43a1.91,1.91,0,0,0,.49-1.28,2.32,2.32,0,0,0-.5-1.39,2.44,2.44,0,0,0-1.72-1,3.36,3.36,0,0,0-2.34.91,3.77,3.77,0,0,0-1.57,2.07,2.27,2.27,0,0,0,.45,1.84,2.09,2.09,0,0,0,1.18.81A2.78,2.78,0,0,0,240.71,207.3Z"/><path class="5e9d099c-f4f1-49d1-aa29-74e91672c91d" d="M241.15,210.59c.51.57.76.85,1.26,1.43a1.31,1.31,0,0,0-.41.83,1.72,1.72,0,0,0,.31,1,1.93,1.93,0,0,0,.78.8.56.56,0,0,0,.54,0,.45.45,0,0,0,.22-.29,1.5,1.5,0,0,0-.12-.66,12.08,12.08,0,0,1-.8-2.92,1.72,1.72,0,0,1,.8-1.55,1.79,1.79,0,0,1,1.65-.17,3.69,3.69,0,0,1,1.77,1.68,4.27,4.27,0,0,1,.78,2.17,2.26,2.26,0,0,1-.65,1.54c-.47-.57-.71-.85-1.19-1.41a1,1,0,0,0,.29-.69,1.72,1.72,0,0,0-.31-.91,2.21,2.21,0,0,0-.75-.83.41.41,0,0,0-.42,0,.39.39,0,0,0-.17.34,8.28,8.28,0,0,0,.52,1.79,5.18,5.18,0,0,1,.4,2.24,1.59,1.59,0,0,1-.86,1.17,2,2,0,0,1-1.79.09,3.75,3.75,0,0,1-1.79-1.69,4.14,4.14,0,0,1-.73-2.2A2.64,2.64,0,0,1,241.15,210.59Z"/><path class="5e9d099c-f4f1-49d1-aa29-74e91672c91d" d="M248.89,226.67l-1,.43c-1-2.33-1.53-3.47-2.67-5.73a1.93,1.93,0,0,1,.77-.23,4,4,0,0,1,1.46.15,10.79,10.79,0,0,1,2,.81,15.52,15.52,0,0,0,2.71,1.18,2.28,2.28,0,0,0,1.49,0,1.45,1.45,0,0,0,.83-1,2,2,0,0,0-.16-1.48,2.08,2.08,0,0,0-1.08-1.12,1.76,1.76,0,0,0-1.48.1l-.46-1.21a2.73,2.73,0,0,1,2.24,0,3.64,3.64,0,0,1,1.65,1.85,3.46,3.46,0,0,1,.3,2.47,2.29,2.29,0,0,1-1.35,1.52,2.63,2.63,0,0,1-1.11.2,4.44,4.44,0,0,1-1.37-.3,24.11,24.11,0,0,1-2.27-1,17,17,0,0,0-1.65-.76,3.66,3.66,0,0,0-.78-.18C247.75,224.06,248.14,224.92,248.89,226.67Z"/><path class="5e9d099c-f4f1-49d1-aa29-74e91672c91d" d="M252.61,226.51a7.7,7.7,0,0,1,2.6-.66,3.22,3.22,0,0,1,1.86.47,3.06,3.06,0,0,1,1.19,1.57,3.31,3.31,0,0,1,.23,1.49,2.62,2.62,0,0,1-.47,1.27,4.28,4.28,0,0,1-1.1,1.05,8.33,8.33,0,0,1-2,.92,8.23,8.23,0,0,1-2.62.51,3.4,3.4,0,0,1-1.81-.48,2.78,2.78,0,0,1-1.11-1.45,2.73,2.73,0,0,1,.11-2.38A6,6,0,0,1,252.61,226.51Zm.47,1.17a5.66,5.66,0,0,0-2.63,1.65,1.65,1.65,0,0,0,1,2.59,5.68,5.68,0,0,0,3.06-.48,5.31,5.31,0,0,0,2.68-1.57,1.8,1.8,0,0,0,.2-1.66,1.66,1.66,0,0,0-1.12-1.07A5.37,5.37,0,0,0,253.08,227.68Z"/><path class="5e9d099c-f4f1-49d1-aa29-74e91672c91d" d="M251.13,235.84l1.24-.39c.16.52.25.78.4,1.3l-1.25.38a2.28,2.28,0,0,1-1.18.09,1.71,1.71,0,0,1-.89-.58l.37-.45a1.11,1.11,0,0,0,.61.38,2,2,0,0,0,.9-.08Z"/><path class="5e9d099c-f4f1-49d1-aa29-74e91672c91d" d="M257.37,239.26a2.4,2.4,0,0,1,.42-1.3,1.84,1.84,0,0,1,1-.67,2.14,2.14,0,0,1,1.86.33,3.69,3.69,0,0,1,1,4.26,2.15,2.15,0,0,1-1.5,1.18,1.79,1.79,0,0,1-1.18-.12,2.39,2.39,0,0,1-1-.93,2.65,2.65,0,0,1-.57,1.57,2.33,2.33,0,0,1-1.35.78,2.66,2.66,0,0,1-2.15-.44,3.77,3.77,0,0,1-1.11-4.48,2.69,2.69,0,0,1,1.72-1.4,2.32,2.32,0,0,1,1.6.06A2.45,2.45,0,0,1,257.37,239.26Zm-2.45,0a2,2,0,0,0-.85.48,1.69,1.69,0,0,0-.5.88,2.21,2.21,0,0,0,0,1.05,2,2,0,0,0,.84,1.25,1.78,1.78,0,0,0,1.43.25,1.75,1.75,0,0,0,1.2-.88,2.07,2.07,0,0,0,.18-1.56,2,2,0,0,0-.87-1.26A1.74,1.74,0,0,0,254.93,239.24Zm4.26-.72a1.39,1.39,0,0,0-.93.72,1.76,1.76,0,0,0-.11,1.27,1.73,1.73,0,0,0,.68,1.05,1.33,1.33,0,0,0,1.1.22,1.34,1.34,0,0,0,.92-.71,1.73,1.73,0,0,0,.13-1.28,1.76,1.76,0,0,0-.71-1.07A1.28,1.28,0,0,0,259.18,238.52Z"/><path class="5e9d099c-f4f1-49d1-aa29-74e91672c91d" d="M170.66,157.75l2.25-9c1.31.33,2,.5,3.25.87a12,12,0,0,1,2.35.85,2.6,2.6,0,0,1,1.13,3.22,2.9,2.9,0,0,1-.77,1.26,2.68,2.68,0,0,1-1.08.61,3,3,0,0,1-1.11.11,13.07,13.07,0,0,1-2-.46l-1.24-.35-.92,3.39Zm3.87-7-.69,2.55,1.06.29a5.9,5.9,0,0,0,1.57.31,1.33,1.33,0,0,0,.74-.25,1.2,1.2,0,0,0,.43-.62,1.14,1.14,0,0,0-.06-.9,1.45,1.45,0,0,0-.67-.63,9.84,9.84,0,0,0-1.41-.47Z"/><path class="5e9d099c-f4f1-49d1-aa29-74e91672c91d" d="M179.62,157.26l1.86.48a2.24,2.24,0,0,0,.18,1.51,2.17,2.17,0,0,0,1.15.91,2.24,2.24,0,0,0,1.45.17,1.14,1.14,0,0,0,.78-.65.82.82,0,0,0,0-.6,1.59,1.59,0,0,0-.5-.64c-.18-.16-.62-.48-1.32-1a5.94,5.94,0,0,1-1.78-1.65,2.39,2.39,0,0,1-.24-2.07,2.23,2.23,0,0,1,.86-1.11,2.69,2.69,0,0,1,1.53-.45,5.4,5.4,0,0,1,2,.42,4.49,4.49,0,0,1,2.41,1.82,2.58,2.58,0,0,1,.12,2.29l-1.9-.72a1.54,1.54,0,0,0-.13-1.17,2.16,2.16,0,0,0-1.09-.78,2.47,2.47,0,0,0-1.43-.19.66.66,0,0,0-.51.43.7.7,0,0,0,.09.64,6,6,0,0,0,1.51,1.25,9.19,9.19,0,0,1,1.75,1.44,2.48,2.48,0,0,1,.39,2.81,2.73,2.73,0,0,1-1,1.19,2.78,2.78,0,0,1-1.58.45,5.71,5.71,0,0,1-2-.46,4.31,4.31,0,0,1-2.28-1.73A3.6,3.6,0,0,1,179.62,157.26Z"/><path class="5e9d099c-f4f1-49d1-aa29-74e91672c91d" d="M194.19,163.27c.56.57.84.85,1.38,1.43a4.36,4.36,0,0,1-7.12-1.75,4.87,4.87,0,0,1,.34-3.66,4.73,4.73,0,0,1,2.7-2.72,4.6,4.6,0,0,1,3.7.4,4.37,4.37,0,0,1,2.23,2.34,3.51,3.51,0,0,1,.07,2l-2-.59a1.92,1.92,0,0,0-.12-1.36,2.24,2.24,0,0,0-1-1,2.35,2.35,0,0,0-2-.16,3.4,3.4,0,0,0-1.68,1.86,3.85,3.85,0,0,0-.51,2.55,2.19,2.19,0,0,0,1.18,1.43,2,2,0,0,0,1.39.19A2.8,2.8,0,0,0,194.19,163.27Z"/><path class="5e9d099c-f4f1-49d1-aa29-74e91672c91d" d="M201.94,172.11l-.95-.66,4.14-6a6.93,6.93,0,0,1-1.42,0,9.49,9.49,0,0,1-1.41-.22l.6-.92a8.29,8.29,0,0,0,2.13.11,4.61,4.61,0,0,0,1.63-.39l.67.47Z"/><path class="5e9d099c-f4f1-49d1-aa29-74e91672c91d" d="M205.8,171.92l1.05.68a2.16,2.16,0,0,0-.31,1.43,1.77,1.77,0,0,0,.66,1.09,1.93,1.93,0,0,0,1.5.43,2.32,2.32,0,0,0,1.52-.88,2,2,0,0,0,.55-1.55,2.08,2.08,0,0,0-.83-1.41,2.2,2.2,0,0,0-1-.47,2,2,0,0,0-1,.05l-.82-.8c1.46-1.29,2.2-1.93,3.69-3.19,1.63,1.26,2.42,1.92,4,3.26l-.71.83c-1.24-1.07-1.87-1.59-3.16-2.61l-2,1.63a3.32,3.32,0,0,1,1.84.73A3,3,0,0,1,212,173.2a2.82,2.82,0,0,1-.74,2.23,3.4,3.4,0,0,1-2,1.15,3.13,3.13,0,0,1-2.64-.73A3.18,3.18,0,0,1,205.4,174,2.8,2.8,0,0,1,205.8,171.92Z"/><path class="5e9d099c-f4f1-49d1-aa29-74e91672c91d" d="M31.49,185l1.39-1.49,4.28,4a5.78,5.78,0,0,1,1.15,1.37,2.55,2.55,0,0,1,.25,1.64,3.5,3.5,0,0,1-.95,1.76,3,3,0,0,1-2,1.11,3.13,3.13,0,0,1-2.21-.91L34.44,191a2.41,2.41,0,0,0,1,.57,1.06,1.06,0,0,0,1-.38,1.08,1.08,0,0,0,.36-.92,2.74,2.74,0,0,0-.91-1.21Z"/><path class="5e9d099c-f4f1-49d1-aa29-74e91672c91d" d="M40.44,189c-.31-1.68-.46-2.53-.72-4.23-1.61-.23-2.43-.34-4.06-.53l1.63-1.66,2.21.42c-.15-.9-.21-1.35-.35-2.26l1.61-1.55c.17,1.6.26,2.39.47,4,1.74.29,2.6.44,4.32.78l-1.61,1.55-2.47-.5c.18,1,.27,1.49.47,2.48Z"/><path class="5e9d099c-f4f1-49d1-aa29-74e91672c91d" d="M48.65,176.61l1.82-.78a4.16,4.16,0,0,1,.36,2.66,4.69,4.69,0,0,1-4.59,3.35,5.59,5.59,0,0,1-4.78-5.21,4.51,4.51,0,0,1,1.68-3.24,4.27,4.27,0,0,1,2.93-1.19,3.55,3.55,0,0,1,1.88.66l-1.23,1.62a1.93,1.93,0,0,0-1.3-.39,2.19,2.19,0,0,0-1.3.58,2.31,2.31,0,0,0-.85,1.75,3.46,3.46,0,0,0,1.11,2.24,3.83,3.83,0,0,0,2.18,1.42,2.19,2.19,0,0,0,1.77-.57,2,2,0,0,0,.69-1.23A2.78,2.78,0,0,0,48.65,176.61Z"/><path class="5e9d099c-f4f1-49d1-aa29-74e91672c91d" d="M60.34,171.76,58.66,173l-1.93-1.19c-1.23.93-1.84,1.4-3,2.35.28.86.42,1.29.7,2.14l-1.58,1.28c-1.23-3.81-1.81-5.74-2.87-9.63l1.7-1.32C55.18,168.6,56.93,169.63,60.34,171.76Zm-5.06-.83c-1.26-.78-1.9-1.16-3.18-1.91.42,1.42.64,2.13,1.08,3.54C54,171.89,54.43,171.57,55.28,170.92Z"/><path class="5e9d099c-f4f1-49d1-aa29-74e91672c91d" d="M62.1,170.5l-4.44-6.33c-1,.68-1.45,1-2.41,1.72l-.93-1.27c2.59-1.89,3.91-2.8,6.59-4.56l.86,1.32c-1,.65-1.48,1-2.46,1.64l4.36,6.39Z"/><path class="5e9d099c-f4f1-49d1-aa29-74e91672c91d" d="M73.6,163.2l-1,.58-3.67-6.29a6.6,6.6,0,0,1-.6,1.26,8.84,8.84,0,0,1-.79,1.16L67,159a7.87,7.87,0,0,0,1-1.86,4.48,4.48,0,0,0,.32-1.63l.69-.4Z"/><path class="5e9d099c-f4f1-49d1-aa29-74e91672c91d" d="M75,159.59l1-.7a2.51,2.51,0,0,0,1.27.91,1.75,1.75,0,0,0,1.25-.17,2,2,0,0,0,1-1.14,1.87,1.87,0,0,0-.11-1.49,1.7,1.7,0,0,0-1.07-.92,1.9,1.9,0,0,0-1.46.17,3.55,3.55,0,0,0-.69.51l-.35-.95.18-.08a2.65,2.65,0,0,0,1.06-1,1.29,1.29,0,0,0,0-1.33,1.34,1.34,0,0,0-.88-.72,1.69,1.69,0,0,0-1.24.18,1.73,1.73,0,0,0-.87.93,2,2,0,0,0,0,1.4l-1.17.4a2.84,2.84,0,0,1,.05-2.05,3.08,3.08,0,0,1,1.47-1.49,3.47,3.47,0,0,1,1.51-.41,2.45,2.45,0,0,1,1.35.32,2.16,2.16,0,0,1,.86.91,1.89,1.89,0,0,1,.18,1.14,2.36,2.36,0,0,1-.55,1.16,2.27,2.27,0,0,1,1.56.1,2.31,2.31,0,0,1,1.09,1.13,2.74,2.74,0,0,1,.09,2.26,3.32,3.32,0,0,1-1.66,1.8,3.09,3.09,0,0,1-2.18.33A2.83,2.83,0,0,1,75,159.59Z"/><path class="5e9d099c-f4f1-49d1-aa29-74e91672c91d" d="M83.35,158.1l-.56-1.17,1.22-.57.55,1.18a2.29,2.29,0,0,1,.26,1.16,1.7,1.7,0,0,1-.45,1l-.5-.3a1.11,1.11,0,0,0,.29-.65,2,2,0,0,0-.2-.88Z"/><path class="5e9d099c-f4f1-49d1-aa29-74e91672c91d" d="M85.12,154.56l1-.63a2.51,2.51,0,0,0,1.2,1,1.76,1.76,0,0,0,1.26-.08,2,2,0,0,0,1.08-1.06,1.86,1.86,0,0,0,0-1.5,1.7,1.7,0,0,0-1-1,1.91,1.91,0,0,0-1.47.07,3.57,3.57,0,0,0-.73.45l-.28-1,.18-.07a2.67,2.67,0,0,0,1.14-.9,1.29,1.29,0,0,0,.12-1.32,1.34,1.34,0,0,0-.82-.79,1.7,1.7,0,0,0-1.26.08,1.74,1.74,0,0,0-.94.86,2,2,0,0,0-.06,1.4l-1.2.31a2.84,2.84,0,0,1,.21-2A3.1,3.1,0,0,1,85.19,147a3.5,3.5,0,0,1,1.54-.29,2.46,2.46,0,0,1,1.32.42,2.15,2.15,0,0,1,.79,1,1.88,1.88,0,0,1,.09,1.15,2.36,2.36,0,0,1-.64,1.12,2.28,2.28,0,0,1,1.56.21,2.31,2.31,0,0,1,1,1.21,2.73,2.73,0,0,1-.08,2.26,3.33,3.33,0,0,1-1.8,1.67,3.11,3.11,0,0,1-2.21.17A2.83,2.83,0,0,1,85.12,154.56Z"/><path class="5e9d099c-f4f1-49d1-aa29-74e91672c91d" d="M9.41,267.24l-9.28-.67C.35,263.52.5,262,.9,259l1.56.21c-.29,2.18-.41,3.27-.6,5.47l2.06.18c.18-2,.28-3,.54-5L6,260c-.25,2-.36,3-.53,4.94l2.52.22c.19-2.16.31-3.24.59-5.39l1.55.21C9.77,262.88,9.62,264.33,9.41,267.24Z"/><path class="5e9d099c-f4f1-49d1-aa29-74e91672c91d" d="M10.38,258.37,1.17,257c.25-1.73.4-2.6.71-4.32a7.7,7.7,0,0,1,.7-2.3,2.27,2.27,0,0,1,1.11-1,2.48,2.48,0,0,1,1.53-.13,2.41,2.41,0,0,1,1.56,1,3.32,3.32,0,0,1,.46,2.09,4.42,4.42,0,0,1,1-.89,9.74,9.74,0,0,1,1.71-.79l2-.76c-.2.9-.29,1.35-.48,2.25-.9.39-1.36.58-2.26,1a11.93,11.93,0,0,0-1.53.77,1.51,1.51,0,0,0-.49.52,3.39,3.39,0,0,0-.27,1l-.07.4,3.83.63C10.55,257.22,10.49,257.6,10.38,258.37Zm-5-2.78c.1-.59.15-.88.25-1.47a8.81,8.81,0,0,0,.21-1.8,1.09,1.09,0,0,0-.28-.63,1.15,1.15,0,0,0-.65-.34,1.06,1.06,0,0,0-.8.12,1.27,1.27,0,0,0-.5.69c-.05.16-.16.65-.3,1.47-.11.63-.17.95-.27,1.58Z"/><path class="5e9d099c-f4f1-49d1-aa29-74e91672c91d" d="M10.39,242.07c.43-.67.65-1,1.09-1.67a4.19,4.19,0,0,1,1.76,2,4.28,4.28,0,0,1,0,2.64,4.31,4.31,0,0,1-2,2.73,4.82,4.82,0,0,1-3.66.43,4.75,4.75,0,0,1-3.22-2.08,4.6,4.6,0,0,1-.4-3.68,4.37,4.37,0,0,1,1.79-2.67,3.52,3.52,0,0,1,1.94-.5c-.06.82-.09,1.23-.14,2.05a1.92,1.92,0,0,0-1.3.41A2.24,2.24,0,0,0,5.54,243a2.36,2.36,0,0,0,.26,2A3.42,3.42,0,0,0,8,246.19a3.81,3.81,0,0,0,2.6,0,2.21,2.21,0,0,0,1.15-1.47,2,2,0,0,0-.11-1.42A2.78,2.78,0,0,0,10.39,242.07Z"/><path class="5e9d099c-f4f1-49d1-aa29-74e91672c91d" d="M16.88,230.37l1,.41c-.95,2.33-1.39,3.51-2.22,5.89a1.94,1.94,0,0,1-.7-.39,4,4,0,0,1-.91-1.15,11,11,0,0,1-.79-2,14.86,14.86,0,0,0-1.07-2.74,2.29,2.29,0,0,0-1.07-1,1.46,1.46,0,0,0-1.26.07,2,2,0,0,0-.93,1.13,2,2,0,0,0,0,1.53,1.78,1.78,0,0,0,1.1,1l-.54,1.15a2.75,2.75,0,0,1-1.56-1.6,3.54,3.54,0,0,1,.16-2.42,3.36,3.36,0,0,1,1.54-1.91,2.32,2.32,0,0,1,2-.1,2.64,2.64,0,0,1,.92.64,4.41,4.41,0,0,1,.75,1.17,22.79,22.79,0,0,1,.85,2.33,17.57,17.57,0,0,0,.62,1.7,3.67,3.67,0,0,0,.41.68C15.83,233,16.17,232.12,16.88,230.37Z"/><path class="5e9d099c-f4f1-49d1-aa29-74e91672c91d" d="M16.13,228.68l.4-1.19a2.14,2.14,0,0,0,1.46-.07,1.79,1.79,0,0,0,.89-.93,1.94,1.94,0,0,0,0-1.57,2.31,2.31,0,0,0-1.24-1.24,2,2,0,0,0-1.64-.13,2.08,2.08,0,0,0-1.15,1.16,2.21,2.21,0,0,0-.2,1.07,2,2,0,0,0,.3.94l-.57,1c-1.61-1.1-2.42-1.65-4-2.77.81-1.88,1.23-2.81,2.11-4.65l1,.47c-.7,1.47-1,2.21-1.69,3.69l2.07,1.5a3.33,3.33,0,0,1,.23-2,3,3,0,0,1,1.69-1.65,2.82,2.82,0,0,1,2.34.13,3.37,3.37,0,0,1,1.64,1.64,3.15,3.15,0,0,1,0,2.75,3.22,3.22,0,0,1-1.51,1.66A2.78,2.78,0,0,1,16.13,228.68Z"/><path class="5e9d099c-f4f1-49d1-aa29-74e91672c91d" d="M21.73,222.32l-1.16-.58.61-1.2,1.16.6a2.28,2.28,0,0,1,.91.76,1.7,1.7,0,0,1,.24,1l-.58.07a1.11,1.11,0,0,0-.17-.69,2,2,0,0,0-.7-.57Z"/><path class="5e9d099c-f4f1-49d1-aa29-74e91672c91d" d="M19.58,215.56a2.36,2.36,0,0,1-1.19.64A1.85,1.85,0,0,1,17.2,216a2.15,2.15,0,0,1-1.12-1.52,3.59,3.59,0,0,1,2.14-3.74,2.18,2.18,0,0,1,1.9.18,1.81,1.81,0,0,1,.78.89,2.35,2.35,0,0,1,.07,1.33,2.63,2.63,0,0,1,1.49-.74,2.35,2.35,0,0,1,1.52.36,2.65,2.65,0,0,1,1.27,1.78,3.72,3.72,0,0,1-2.27,4,2.7,2.7,0,0,1-2.21-.19,2.34,2.34,0,0,1-1.11-1.15A2.43,2.43,0,0,1,19.58,215.56Zm1.76,1.69a2,2,0,0,0,.95.24,1.69,1.69,0,0,0,1-.28,2.18,2.18,0,0,0,.72-.77,2,2,0,0,0,.24-1.48,1.89,1.89,0,0,0-2.34-1.35,2,2,0,0,0-1.2,1,2,2,0,0,0-.23,1.5A1.75,1.75,0,0,0,21.35,217.25Zm-3.58-2.41a1.4,1.4,0,0,0,1.17.12,1.72,1.72,0,0,0,.95-.83,1.68,1.68,0,0,0,.22-1.22,1.34,1.34,0,0,0-.65-.91,1.36,1.36,0,0,0-1.15-.12,1.69,1.69,0,0,0-1,.82,1.71,1.71,0,0,0-.22,1.25A1.29,1.29,0,0,0,17.77,214.84Z"/><text class="9bff97de-ec2c-4098-a8f2-e02ef9b204ea" transform="matrix(1, 0.02, -0.02, 1, 153.17, 133.97)"><tspan class="03d66234-f178-480e-8645-5ea0bf2755e9">CeC-</tspan><tspan class="a370495b-83f4-4c53-a286-631f439f74d6" x="30.33" y="0">P</tspan><tspan class="85b86e07-7884-43b2-a7f0-d1d26330dbb9" x="38.77" y="0"> </tspan><tspan class="efa60508-38dc-41e1-b28f-1aeeee73874d" x="42.38" y="0">8,7</tspan></text><text class="9bff97de-ec2c-4098-a8f2-e02ef9b204ea" transform="matrix(1, 0.02, -0.02, 1, 50.95, 111.06)"><tspan class="03d66234-f178-480e-8645-5ea0bf2755e9">CU</tspan><tspan class="7917d01d-61c3-41a0-b212-d413e17753c9" x="18.78" y="0">P</tspan><tspan class="03d66234-f178-480e-8645-5ea0bf2755e9" x="27.21" y="0"> </tspan><tspan class="d5db0c3d-6791-4dec-9a6b-71f6b7cdaa92" x="30.82" y="0">5,9</tspan></text><line class="adeba0f6-3604-4d2c-8b96-261a8c58c637" x1="396" y1="128.5" x2="396" y2="131"/><line class="80cc293f-b353-4118-b4f4-9b866ad4cc6f" x1="396" y1="136.09" x2="396" y2="275.96"/><line class="adeba0f6-3604-4d2c-8b96-261a8c58c637" x1="396" y1="278.5" x2="396" y2="281"/><line class="adeba0f6-3604-4d2c-8b96-261a8c58c637" x1="129" y1="128.5" x2="129" y2="131"/><line class="44b07fa0-9bd4-44f3-bd42-edf27a340d43" x1="129" y1="136.03" x2="129" y2="274.48"/><line class="adeba0f6-3604-4d2c-8b96-261a8c58c637" x1="129" y1="277" x2="129" y2="279.5"/></svg>