<svg id="2fa8db9c-1e9f-4237-b979-b8165b1108bc" data-name="Capa 1" xmlns="http://www.w3.org/2000/svg" viewBox="0 0 532 468"><defs><style>.db0e7f53-d8cc-4908-a22a-b54da8bf9fb2{fill:#efb21b;}.\30 67b80bd-5a89-415a-90fb-2c7d534a6442,.\30 af6ce06-1411-4fe0-a965-61307f8ff372,.\33 1f9ffc9-319f-44f7-b991-90d3e50c2e03,.\33 d5a1d26-888e-4540-98a8-c3f8420083c6,.\34 4d0bcd3-c5c7-474e-aff0-8dbc7f61576e,.\36 3317e6c-baeb-48eb-93c1-33f05e1e060c,.\37 27c02a7-5c31-4124-8262-469ae5ad63f1,.\37 8b70558-f65c-4c22-ae83-4a11608ee302,.\38 b792e64-308b-470c-91f8-c93ba33d96b8,.b4da9dc0-a449-48fb-b220-e0e09ad44edc,.cdf36ff0-dd2c-4976-ac1a-e85a148ea4fd,.d3b730c3-ea34-4d63-8f81-e1472ded1d1e,.db0e7f53-d8cc-4908-a22a-b54da8bf9fb2,.fad74acd-9900-4739-bd81-4aeae579bf1e{stroke:#fff;stroke-linejoin:round;stroke-width:1.6px;}.\30 67b80bd-5a89-415a-90fb-2c7d534a6442,.\34 4d0bcd3-c5c7-474e-aff0-8dbc7f61576e,.\37 8b70558-f65c-4c22-ae83-4a11608ee302,.\38 b792e64-308b-470c-91f8-c93ba33d96b8,.d3b730c3-ea34-4d63-8f81-e1472ded1d1e,.db0e7f53-d8cc-4908-a22a-b54da8bf9fb2,.fad74acd-9900-4739-bd81-4aeae579bf1e{opacity:0.77;}.\34 4d0bcd3-c5c7-474e-aff0-8dbc7f61576e{fill:#3f4d78;}.\33 1f9ffc9-319f-44f7-b991-90d3e50c2e03,.fad74acd-9900-4739-bd81-4aeae579bf1e{fill:#ffe600;}.\30 67b80bd-5a89-415a-90fb-2c7d534a6442,.\36 3317e6c-baeb-48eb-93c1-33f05e1e060c{fill:#8e244f;}.\30 af6ce06-1411-4fe0-a965-61307f8ff372,.\38 b792e64-308b-470c-91f8-c93ba33d96b8{fill:#991d26;}.\37 8b70558-f65c-4c22-ae83-4a11608ee302,.cdf36ff0-dd2c-4976-ac1a-e85a148ea4fd{fill:#d57928;}.\33 d5a1d26-888e-4540-98a8-c3f8420083c6,.d3b730c3-ea34-4d63-8f81-e1472ded1d1e{fill:#59a5a5;}.\36 b135cb7-d9d2-4cad-9cbe-d278484b66c2{font-size:26px;}.\36 b135cb7-d9d2-4cad-9cbe-d278484b66c2,.\36 c30de79-ec60-49dc-bf29-437c2ac2654e,.ed96e688-180d-4acf-bd5f-a67aa8b2f7ef{fill:#323232;}.\36 b135cb7-d9d2-4cad-9cbe-d278484b66c2,.\36 c30de79-ec60-49dc-bf29-437c2ac2654e,.\37 51ba300-1e69-4ddb-8634-7350850483e5,.\38 a7c592d-94e9-460d-a984-433a6168edf4{font-family:Arial-BoldMT, Arial;}.\34 16800d9-d3c5-4243-829d-caa478d92f18,.\35 98059bb-fd22-415a-8365-ccf5a32d9f86,.\36 b135cb7-d9d2-4cad-9cbe-d278484b66c2,.\36 c30de79-ec60-49dc-bf29-437c2ac2654e,.\38 a7c592d-94e9-460d-a984-433a6168edf4,.c5f663c1-4cf3-4c4e-9929-3c0baffc6a28,.d78e36a7-2d1d-46b6-bbfc-846068403d04{font-weight:700;}.\37 51ba300-1e69-4ddb-8634-7350850483e5,.ec97c7af-e601-444f-8a83-38258437edf9,.ed96e688-180d-4acf-bd5f-a67aa8b2f7ef{font-size:15px;}.\31 bc07d6f-715f-4e98-a764-8268026245c4,.\32 92c6ac7-e79b-42a4-b7ef-44826f5079c2,.\33 f66111c-8084-4ee9-bbbe-3eba80d6092d,.a5e3a1c8-1d17-4ba7-8ca6-6ed4e7e172b2,.b3c257bc-2a7a-42b2-b4b1-50f7e56678aa,.ec97c7af-e601-444f-8a83-38258437edf9,.ed96e688-180d-4acf-bd5f-a67aa8b2f7ef{font-family:ArialMT, Arial;}.b3c257bc-2a7a-42b2-b4b1-50f7e56678aa{font-size:13px;}.\37 51ba300-1e69-4ddb-8634-7350850483e5,.adf8971e-6cd5-4640-af2b-1d264ac3560c,.b3c257bc-2a7a-42b2-b4b1-50f7e56678aa,.ec97c7af-e601-444f-8a83-38258437edf9{fill:#757575;}.\33 070bfe9-1608-420e-b51e-c45c35084bfc{fill:#283659;}.\32 0265ba6-d919-4c1e-8b5e-1279890e9b89,.b4da9dc0-a449-48fb-b220-e0e09ad44edc{fill:#fff;}.c5f663c1-4cf3-4c4e-9929-3c0baffc6a28{letter-spacing:-0.02em;}.a5e3a1c8-1d17-4ba7-8ca6-6ed4e7e172b2{letter-spacing:0em;}.\34 d11df8d-711c-468a-a556-2b82ecaae28f,.\39 15e8103-7e3c-4f8c-b6a0-c3f18cd781cb,.bb178fcb-af14-4d12-93d3-2b91528e1ab0{fill:none;stroke-miterlimit:10;}.\34 d11df8d-711c-468a-a556-2b82ecaae28f{stroke:#757575;}.\37 27c02a7-5c31-4124-8262-469ae5ad63f1{fill:#159094;}.\30 af6ce06-1411-4fe0-a965-61307f8ff372,.\33 1f9ffc9-319f-44f7-b991-90d3e50c2e03,.\33 d5a1d26-888e-4540-98a8-c3f8420083c6,.\36 3317e6c-baeb-48eb-93c1-33f05e1e060c,.\37 27c02a7-5c31-4124-8262-469ae5ad63f1,.cdf36ff0-dd2c-4976-ac1a-e85a148ea4fd{opacity:0.49;}.\39 15e8103-7e3c-4f8c-b6a0-c3f18cd781cb,.bb178fcb-af14-4d12-93d3-2b91528e1ab0{stroke:#323232;}.\39 15e8103-7e3c-4f8c-b6a0-c3f18cd781cb{stroke-dasharray:5.15 5.15;}.\35 98059bb-fd22-415a-8365-ccf5a32d9f86{letter-spacing:-0.02em;}.\33 f66111c-8084-4ee9-bbbe-3eba80d6092d,.\34 16800d9-d3c5-4243-829d-caa478d92f18{letter-spacing:0em;}.\32 92c6ac7-e79b-42a4-b7ef-44826f5079c2{letter-spacing:-0.07em;}.\36 c30de79-ec60-49dc-bf29-437c2ac2654e{font-size:19.42px;}</style></defs><title>2017.11_Metaencuesta2_pescanos-04</title><path class="db0e7f53-d8cc-4908-a22a-b54da8bf9fb2" d="M70.62,395A180.29,180.29,0,0,1,100,228.34L199.45,306a54.09,54.09,0,0,0-8.81,50Z"/><path class="44d0bcd3-c5c7-474e-aff0-8dbc7f61576e" d="M204.46,163,230.8,286.39A54.09,54.09,0,0,0,199.45,306L100,228.34A180.29,180.29,0,0,1,204.46,163"/><path class="fad74acd-9900-4739-bd81-4aeae579bf1e" d="M241.32,159l.53,126.2a54.09,54.09,0,0,0-11.06,1.19L204.46,163"/><path class="067b80bd-5a89-415a-90fb-2c7d534a6442" d="M241.32,159a180.29,180.29,0,0,1,47.3,6.11L256,287a54.09,54.09,0,0,0-14.19-1.83L241.32,159"/><path class="8b792e64-308b-470c-91f8-c93ba33d96b8" d="M288.63,165.11a180.29,180.29,0,0,1,90,56.4L283,304A54.09,54.09,0,0,0,256,287Z"/><path class="78b70558-f65c-4c22-ae83-4a11608ee302" d="M421.69,355,296,344A54.09,54.09,0,0,0,283,304l95.55-82.44A180.29,180.29,0,0,1,421.69,355"/><path class="d3b730c3-ea34-4d63-8f81-e1472ded1d1e" d="M421.69,355a180.29,180.29,0,0,1-8.14,40l-120-39A54.09,54.09,0,0,0,296,344l125.72,11"/><text class="6b135cb7-d9d2-4cad-9cbe-d278484b66c2" transform="translate(18.1 20.62)">Reparto de escaños según los sondeos</text><text class="ed96e688-180d-4acf-bd5f-a67aa8b2f7ef" transform="translate(52.05 43.74)">Comparación del promedio de las encuestas para el 21-D con <tspan x="80.04" y="18">el resultado de las elecciones del 27S</tspan></text><text class="b3c257bc-2a7a-42b2-b4b1-50f7e56678aa" transform="translate(6.5 457.02) scale(0.99 1)">Fuente: Electrograph</text><polygon class="3070bfe9-1608-420e-b51e-c45c35084bfc" points="429 440.27 525.44 440.27 525.44 454.93 429 454.93 429 440.27 429 440.27"/><path class="20265ba6-d919-4c1e-8b5e-1279890e9b89" d="M506.36,443.55h-3.7V444l1,.23v6.81a.81.81,0,0,1-.68.35,1.45,1.45,0,0,1-1.2-.88l-.92-1.65a1.91,1.91,0,0,0-1.69-1.14v-.12a2.26,2.26,0,0,0,2.33-2.1c0-1.42-1.29-2-2.78-2h-3.35V444l1.1.23v6.91h0l-1.26.24L492,442.83a4,4,0,0,1-1.13,1l.12.35-2.87,7-.86.23v.46h2.62v-.46l-.85-.22,1-2.56h2.66l.93,2.54-1,.24v.46H499v-.46l-1-.23V448a1.57,1.57,0,0,1,1.42,1l1.26,2.25a2,2,0,0,0,1.82,1.11,1.8,1.8,0,0,0,1.2-.49h2.85a4.28,4.28,0,0,0,4.39-4.16,4.17,4.17,0,0,0-4.47-4.16ZM490.23,448l1.12-3,1.08,3Zm8.23-.62h-.57v-3.1h.71a1.4,1.4,0,0,1,1.45,1.48,1.61,1.61,0,0,1-1.57,1.62Zm7.82,3.83h-1.18v-6.93h1.22c1.89,0,3,1.31,3,3.46s-1.21,3.46-3.08,3.46Z"/><path class="20265ba6-d919-4c1e-8b5e-1279890e9b89" d="M445.71,451.17l-3.07-8.34a3.94,3.94,0,0,1-1.13,1l.12.35-2.85,7-.61.23-.18.46h2.54v-.46l-.85-.22,1-2.56h2.66l.93,2.54-1,.24v.46h3.42v-.46l-.91-.23Zm-4.87-3.2,1.13-3,1.08,3Z"/><polygon class="20265ba6-d919-4c1e-8b5e-1279890e9b89" points="438.39 449.75 438.08 449.58 436.29 451.21 434.75 451.21 434.75 444.25 435.68 444.01 435.68 443.54 432.37 443.54 432.37 444.01 433.3 444.25 433.3 451.15 432.37 451.39 432.37 451.86 437.57 451.86 438.39 449.75 438.39 449.75"/><polygon class="20265ba6-d919-4c1e-8b5e-1279890e9b89" points="452.83 443.54 452.83 444.01 453.83 444.25 451.66 449.81 449.37 444.24 450.45 444.01 450.45 443.54 446.76 443.54 446.76 444.01 447.82 444.24 451.1 452.14 451.45 452.14 454.72 444.25 454.75 444.25 455.77 444.01 455.77 443.54 452.83 443.54 452.83 443.54"/><path class="20265ba6-d919-4c1e-8b5e-1279890e9b89" d="M485.6,443.55V444l1,.24s.07,4.12,0,5.16a2.1,2.1,0,0,1-2.14,2h-.11a2.07,2.07,0,0,1-2.24-2.13v-5.07l1-.22v-.46h-3.34V444l.95.23v5.11a3.07,3.07,0,0,0,3.3,2.91,3,3,0,0,0,3.3-2.91l.06-5.1,1-.24v-.46Z"/><path class="20265ba6-d919-4c1e-8b5e-1279890e9b89" d="M521.7,451.15l-3.06-8.32a3.94,3.94,0,0,1-1.13,1l.12.35-2.86,7-.49.2-.66-.21v-6.94l1-.23v-.46h-3.48V444l1,.24v6.92l-1,.23v.46h5.3v-.46l-.85-.23,1-2.56h2.66l.93,2.54-1,.24v.46h3.43v-.46l-.92-.24ZM516.84,448l1.13-3,1.08,3Z"/><path class="20265ba6-d919-4c1e-8b5e-1279890e9b89" d="M467.75,443.55V444l1,.24.06,5.44-5.21-6.14H461.4V444l1,.22.08,0-.07,6.88h0l-1,.24-3.14-8.56a4,4,0,0,1-1.1,1l.12.35-2.87,7-.86.23v.46h2.62v-.46l-.85-.22,1-2.56h2.66l.93,2.54-1,.24v.46h5.47v-.46l-1-.24-.12-6,6,7h.39l.08-7.9,1-.23v-.46ZM456.44,448l1.13-3,1.08,3Z"/><path class="20265ba6-d919-4c1e-8b5e-1279890e9b89" d="M476.52,447.61v.46l.94.24V451a3.11,3.11,0,0,1-1.88.62c-1.89,0-3.1-1.57-3.1-3.79s1.18-4,3.14-4a3,3,0,0,1,2.78,2.26l.27-.16v-2.62l-.24-.13-.52.64a5.24,5.24,0,0,0-2.3-.59,4.65,4.65,0,0,0-4.66,4.58,4.22,4.22,0,0,0,4,4.43h.3a4.29,4.29,0,0,0,2.68-.89l.73.49h.24V448.3l.79-.3v-.38Z"/><path class="b4da9dc0-a449-48fb-b220-e0e09ad44edc" d="M379.41,339.05C379.41,413.58,319,458,244.46,458S109.51,413.58,109.51,339.05a134.95,134.95,0,0,1,269.9,0Z"/><text class="751ba300-1e69-4ddb-8634-7350850483e5" transform="translate(273.59 128.26) rotate(-0.14)"><tspan class="d78e36a7-2d1d-46b6-bbfc-846068403d04">CeC-</tspan><tspan class="c5f663c1-4cf3-4c4e-9929-3c0baffc6a28" x="35" y="0">P</tspan><tspan class="d78e36a7-2d1d-46b6-bbfc-846068403d04" x="44.74" y="0"> </tspan><tspan class="a5e3a1c8-1d17-4ba7-8ca6-6ed4e7e172b2" x="48.9" y="0">9 o 10</tspan></text><text class="751ba300-1e69-4ddb-8634-7350850483e5" transform="translate(137.92 114.03) rotate(-0.14)"><tspan class="d78e36a7-2d1d-46b6-bbfc-846068403d04">CU</tspan><tspan class="c5f663c1-4cf3-4c4e-9929-3c0baffc6a28" x="21.67" y="0">P</tspan><tspan class="d78e36a7-2d1d-46b6-bbfc-846068403d04" x="31.4" y="0"> </tspan><tspan class="1bc07d6f-715f-4e98-a764-8268026245c4" x="35.57" y="0">7</tspan></text><path class="adf8971e-6cd5-4640-af2b-1d264ac3560c" d="M324.23,176.89l3.56-10.13c1.47.52,2.2.79,3.65,1.36a13.82,13.82,0,0,1,2.61,1.23,3,3,0,0,1,.94,3.83,3.33,3.33,0,0,1-1,1.36,3.09,3.09,0,0,1-1.31.58,3.46,3.46,0,0,1-1.29,0,15.26,15.26,0,0,1-2.25-.75l-1.39-.53-1.43,3.79C325.47,177.33,325.06,177.18,324.23,176.89Zm5.21-7.6-1.07,2.85,1.19.45a6.84,6.84,0,0,0,1.77.53,1.54,1.54,0,0,0,.87-.21,1.37,1.37,0,0,0,.57-.67,1.31,1.31,0,0,0,0-1,1.68,1.68,0,0,0-.7-.8,11.43,11.43,0,0,0-1.57-.7Z"/><path class="adf8971e-6cd5-4640-af2b-1d264ac3560c" d="M334.56,177.31l2.08.76a2.59,2.59,0,0,0,0,1.75A2.51,2.51,0,0,0,337.9,181a2.6,2.6,0,0,0,1.64.36,1.32,1.32,0,0,0,1-.65,1,1,0,0,0,.1-.68,1.85,1.85,0,0,0-.5-.79c-.19-.2-.66-.63-1.41-1.26a6.89,6.89,0,0,1-1.86-2.1,2.76,2.76,0,0,1,0-2.41,2.55,2.55,0,0,1,1.11-1.17,3.1,3.1,0,0,1,1.81-.34,6.25,6.25,0,0,1,2.28.72,5.21,5.21,0,0,1,2.57,2.37,3,3,0,0,1-.13,2.64c-.84-.43-1.26-.64-2.1-1.05a1.78,1.78,0,0,0,0-1.36,2.52,2.52,0,0,0-1.17-1,2.85,2.85,0,0,0-1.62-.38.76.76,0,0,0-.63.43.81.81,0,0,0,0,.74,6.92,6.92,0,0,0,1.59,1.61,10.63,10.63,0,0,1,1.85,1.86,2.87,2.87,0,0,1,.12,3.28,3.14,3.14,0,0,1-1.31,1.24,3.21,3.21,0,0,1-1.87.33,6.61,6.61,0,0,1-2.27-.76,5,5,0,0,1-2.42-2.25A4.16,4.16,0,0,1,334.56,177.31Z"/><path class="adf8971e-6cd5-4640-af2b-1d264ac3560c" d="M350.61,185.92c.57.72.86,1.08,1.41,1.81a5,5,0,0,1-8-2.87,5.63,5.63,0,0,1,.82-4.17,5.44,5.44,0,0,1,3.42-2.81,5.32,5.32,0,0,1,4.2.9,5.07,5.07,0,0,1,2.29,3,4,4,0,0,1-.16,2.31c-.88-.38-1.32-.56-2.2-.92a2.22,2.22,0,0,0,0-1.58,2.6,2.6,0,0,0-1.07-1.29,2.73,2.73,0,0,0-2.25-.42,3.92,3.92,0,0,0-2.15,1.93,4.44,4.44,0,0,0-.88,2.87,2.54,2.54,0,0,0,1.18,1.79,2.32,2.32,0,0,0,1.58.39A3.23,3.23,0,0,0,350.61,185.92Z"/><path class="adf8971e-6cd5-4640-af2b-1d264ac3560c" d="M360.74,197.45l-.86.93c-2.11-2-3.2-2.89-5.44-4.69a2.3,2.3,0,0,1,.7-.62,4.65,4.65,0,0,1,1.59-.55,12.07,12.07,0,0,1,2.42-.1,18.05,18.05,0,0,0,3.39-.07,2.64,2.64,0,0,0,1.55-.74,1.68,1.68,0,0,0,.42-1.39,2.33,2.33,0,0,0-.86-1.47,2.36,2.36,0,0,0-1.65-.66,2,2,0,0,0-1.5.81l-1.05-1a3.15,3.15,0,0,1,2.35-1.06A4.13,4.13,0,0,1,364.4,188a3.93,3.93,0,0,1,1.47,2.45,2.66,2.66,0,0,1-.7,2.24,3,3,0,0,1-1.07.74,5.14,5.14,0,0,1-1.58.34,28,28,0,0,1-2.86,0,19.26,19.26,0,0,0-2.08,0,4.2,4.2,0,0,0-.9.18C358.34,195.27,359.15,196,360.74,197.45Z"/><path class="adf8971e-6cd5-4640-af2b-1d264ac3560c" d="M364.49,202.92l-.93-1,6-5.88a8.1,8.1,0,0,1-1.61-.33,11.09,11.09,0,0,1-1.55-.57l.89-.92a9.73,9.73,0,0,0,2.4.6,5.35,5.35,0,0,0,1.94-.07l.66.69Z"/><path class="adf8971e-6cd5-4640-af2b-1d264ac3560c" d="M411.88,257.61c.15.9.23,1.35.36,2.25a4.41,4.41,0,0,1-5.14-2.52,4.88,4.88,0,0,1-.4-3.84,6.47,6.47,0,0,1,7.15-3.93,5.19,5.19,0,0,1,3.16,2.77,4.92,4.92,0,0,1,.52,3.61,4.09,4.09,0,0,1-1.26,1.92c-.58-.73-.88-1.1-1.47-1.82a2.24,2.24,0,0,0,.8-1.35,2.52,2.52,0,0,0-.29-1.62,2.66,2.66,0,0,0-1.73-1.43,4,4,0,0,0-2.82.63,4.43,4.43,0,0,0-2.19,2,2.51,2.51,0,0,0,.15,2.13,2.3,2.3,0,0,0,1.19,1.11A3.21,3.21,0,0,0,411.88,257.61Z"/><path class="adf8971e-6cd5-4640-af2b-1d264ac3560c" d="M411.78,261.36c.48.71.71,1.07,1.18,1.79a1.52,1.52,0,0,0-.6.88,1.9,1.9,0,0,0,.19,1.18,2.14,2.14,0,0,0,.76,1,.65.65,0,0,0,.61,0,.52.52,0,0,0,.3-.29,1.66,1.66,0,0,0,0-.76,12.78,12.78,0,0,1-.43-3.38,2,2,0,0,1,1.18-1.61,2.1,2.1,0,0,1,1.9,0,4,4,0,0,1,1.72,2.1,4.67,4.67,0,0,1,.53,2.52,2.63,2.63,0,0,1-1,1.64L417,264.76a1.2,1.2,0,0,0,.44-.73,1.87,1.87,0,0,0-.2-1.05,2.42,2.42,0,0,0-.71-1,.48.48,0,0,0-.48-.05.45.45,0,0,0-.25.35,8.85,8.85,0,0,0,.29,2.07,5.8,5.8,0,0,1,.11,2.55,1.86,1.86,0,0,1-1.15,1.21,2.35,2.35,0,0,1-2-.13,4.14,4.14,0,0,1-1.77-2.15,4.57,4.57,0,0,1-.47-2.59A3,3,0,0,1,411.78,261.36Z"/><path class="adf8971e-6cd5-4640-af2b-1d264ac3560c" d="M418.33,280.4l-1.21.39c-.88-2.72-1.36-4.08-2.37-6.76a2.32,2.32,0,0,1,.91-.18,4.71,4.71,0,0,1,1.65.33,12.55,12.55,0,0,1,2.13,1.12,16.76,16.76,0,0,0,3,1.58,2.67,2.67,0,0,0,1.71.11,1.7,1.7,0,0,0,1.06-1,2.23,2.23,0,0,0,0-1.65A2.26,2.26,0,0,0,424.1,273a2.07,2.07,0,0,0-1.7,0c-.14-.56-.22-.84-.37-1.4a3.21,3.21,0,0,1,2.56.24,4,4,0,0,1,1.63,2.2,3.75,3.75,0,0,1,0,2.77,2.7,2.7,0,0,1-1.72,1.58,3.1,3.1,0,0,1-1.29.13,5.06,5.06,0,0,1-1.53-.46,25.13,25.13,0,0,1-2.47-1.38,20.6,20.6,0,0,0-1.8-1,4.25,4.25,0,0,0-.86-.29C417.32,277.35,417.67,278.36,418.33,280.4Z"/><path class="adf8971e-6cd5-4640-af2b-1d264ac3560c" d="M423.74,282.43a2.65,2.65,0,0,1,.45-1.47,2.17,2.17,0,0,1,1.15-.79,2.51,2.51,0,0,1,2.15.28,4,4,0,0,1,1.33,4.65,2.54,2.54,0,0,1-1.68,1.4,2.12,2.12,0,0,1-1.36-.06,2.64,2.64,0,0,1-1.15-1,3,3,0,0,1-.59,1.79,2.77,2.77,0,0,1-1.52,1,3.09,3.09,0,0,1-2.49-.36,4.14,4.14,0,0,1-1.44-5,3.14,3.14,0,0,1,1.95-1.65,2.59,2.59,0,0,1,3.22,1.23Zm-2.81.11a2.36,2.36,0,0,0-1,.58,1.93,1.93,0,0,0-.55,1,2.42,2.42,0,0,0,0,1.19,2.21,2.21,0,0,0,1,1.36,2.22,2.22,0,0,0,3-.86,2.28,2.28,0,0,0,.15-1.76,2.19,2.19,0,0,0-1-1.36A2,2,0,0,0,420.92,282.54Zm4.87-1a1.64,1.64,0,0,0-1,.86,1.9,1.9,0,0,0-.09,1.42,1.86,1.86,0,0,0,.82,1.13,1.55,1.55,0,0,0,1.27.18,1.59,1.59,0,0,0,1-.84,2.05,2.05,0,0,0-.73-2.57A1.5,1.5,0,0,0,425.8,281.52Z"/><path class="adf8971e-6cd5-4640-af2b-1d264ac3560c" d="M424.62,293.34a3.6,3.6,0,0,1,4.78,2.88,3.73,3.73,0,0,1-.5,2.92,3.84,3.84,0,0,1-2.67,1.57,5.08,5.08,0,0,1-2.41,0,3.29,3.29,0,0,1-1.56-1.06,4,4,0,0,1-.83-1.77,3.64,3.64,0,0,1,.47-2.83A4.19,4.19,0,0,1,424.62,293.34Zm.31,1.37a3.29,3.29,0,0,0-2,1.13,2.26,2.26,0,0,0,.67,3.27,3.37,3.37,0,0,0,2.36.23,3.1,3.1,0,0,0,2-1.08,2.34,2.34,0,0,0-.68-3.36A3.17,3.17,0,0,0,424.92,294.71Z"/><path class="adf8971e-6cd5-4640-af2b-1d264ac3560c" d="M425.24,313.59l-1.26.12c-.28-2.86-.45-4.29-.86-7.13a2.31,2.31,0,0,1,.93,0,4.71,4.71,0,0,1,1.54.68,12.55,12.55,0,0,1,1.84,1.55A16.83,16.83,0,0,0,430,311a2.66,2.66,0,0,0,1.65.48,1.7,1.7,0,0,0,1.25-.74,2.24,2.24,0,0,0,.36-1.62,2.27,2.27,0,0,0-.77-1.55,2.06,2.06,0,0,0-1.65-.41c0-.58,0-.87-.06-1.44a3.2,3.2,0,0,1,2.44.79,4,4,0,0,1,1.12,2.51,3.78,3.78,0,0,1-.56,2.72,2.7,2.7,0,0,1-2,1.17,3.09,3.09,0,0,1-1.29-.16,5.06,5.06,0,0,1-1.4-.78,25.29,25.29,0,0,1-2.11-1.89,20.66,20.66,0,0,0-1.53-1.39,4.31,4.31,0,0,0-.78-.47C424.91,310.38,425,311.45,425.24,313.59Z"/><path class="adf8971e-6cd5-4640-af2b-1d264ac3560c" d="M426.6,315.13c.09.52.14.77.22,1.29a2.19,2.19,0,0,0-1.25.73,1.77,1.77,0,0,0-.32,1.21,2.12,2.12,0,0,0,.35,1.07,2.34,2.34,0,0,0,.79.73,4.36,4.36,0,0,0,1.28.44,6.43,6.43,0,0,0,1.62.13l.26,0a3.17,3.17,0,0,1-1.08-1.07,3.36,3.36,0,0,1,.31-3.93,3.85,3.85,0,0,1,5.17-.38,3.55,3.55,0,0,1,1.18,2.53,3.87,3.87,0,0,1-.44,2.11,3.52,3.52,0,0,1-1.54,1.5,7.39,7.39,0,0,1-3,.61,9.56,9.56,0,0,1-3.29-.33,3.94,3.94,0,0,1-1.92-1.27,3.62,3.62,0,0,1-.76-2.06,3.14,3.14,0,0,1,.55-2.14A3,3,0,0,1,426.6,315.13Zm5.11,5.31a2.46,2.46,0,0,0,1.77-.74,2.09,2.09,0,0,0,.57-1.6,2.2,2.2,0,0,0-.83-1.59,2.54,2.54,0,0,0-1.91-.55,2.24,2.24,0,0,0-1.61.78,2.21,2.21,0,0,0-.53,1.64,2.13,2.13,0,0,0,.73,1.54A2.46,2.46,0,0,0,431.71,320.44Z"/><path class="adf8971e-6cd5-4640-af2b-1d264ac3560c" d="M423.27,364.49l10.74-.21c0,1.64,0,2.47,0,4.11a14.1,14.1,0,0,1-.33,3,3.22,3.22,0,0,1-1.2,1.71,3,3,0,0,1-2.15.49,3.27,3.27,0,0,1-1.61-.57,3.17,3.17,0,0,1-1-1.09,3.65,3.65,0,0,1-.41-1.25,17.43,17.43,0,0,1,0-2.43c0-.61,0-.91,0-1.52l-4-.06C423.29,365.81,423.29,365.37,423.27,364.49Zm8.92,2.33-3,0c0,.52,0,.79,0,1.31a7.54,7.54,0,0,0,.08,1.9,1.6,1.6,0,0,0,.48.78,1.35,1.35,0,0,0,.81.33,1.28,1.28,0,0,0,1-.32,1.77,1.77,0,0,0,.54-1,11.7,11.7,0,0,0,.15-1.79C432.18,367.54,432.19,367.3,432.19,366.82Z"/><path class="adf8971e-6cd5-4640-af2b-1d264ac3560c" d="M422.68,374.59,433.32,376c-.22,1.62-.35,2.43-.66,4a14,14,0,0,1-.79,2.93,3.22,3.22,0,0,1-1.45,1.5,3,3,0,0,1-2.2.15,3.27,3.27,0,0,1-1.5-.81,3.18,3.18,0,0,1-.78-1.22,3.64,3.64,0,0,1-.21-1.3,17.29,17.29,0,0,1,.35-2.39c.11-.59.17-.89.27-1.49l-4-.68C422.49,375.89,422.56,375.46,422.68,374.59Zm8.46,3.66-3-.51c-.09.51-.13.77-.23,1.28a7.54,7.54,0,0,0-.21,1.88,1.61,1.61,0,0,0,.35.85,1.35,1.35,0,0,0,.75.45,1.28,1.28,0,0,0,1-.16,1.76,1.76,0,0,0,.68-.87,11.61,11.61,0,0,0,.42-1.74C431,379,431.06,378.73,431.14,378.26Z"/><path class="adf8971e-6cd5-4640-af2b-1d264ac3560c" d="M424.17,391.8a2.87,2.87,0,0,1,1.28-1,2.1,2.1,0,0,1,1.4,0,2.4,2.4,0,0,1,1.51,1.59,3.86,3.86,0,0,1-.23,2.74,3.9,3.9,0,0,1-1.82,2.11,2.44,2.44,0,0,1-2.22.05,2.05,2.05,0,0,1-1-1,2.87,2.87,0,0,1-.22-1.56,3.05,3.05,0,0,1-1.64,1.07,2.66,2.66,0,0,1-1.79-.24,3.11,3.11,0,0,1-1.65-1.92,4.34,4.34,0,0,1,2-4.85,3.16,3.16,0,0,1,2.55-.15,2.65,2.65,0,0,1,1.46,1.13A2.83,2.83,0,0,1,424.17,391.8Zm-2.27-1.68a2.33,2.33,0,0,0-1.12-.13,2,2,0,0,0-1.06.47,2.53,2.53,0,0,0-.71,1,2.31,2.31,0,0,0-.08,1.72,2.07,2.07,0,0,0,1.14,1.23,2,2,0,0,0,1.72,0,2.41,2.41,0,0,0,1.26-1.34,2.31,2.31,0,0,0,.06-1.79A2,2,0,0,0,421.89,390.12Zm4.46,2.21a1.61,1.61,0,0,0-1.36.06,2.13,2.13,0,0,0-1,1.13,2.09,2.09,0,0,0-.11,1.47,1.55,1.55,0,0,0,2.2,1,2.33,2.33,0,0,0,1.13-2.66A1.45,1.45,0,0,0,426.35,392.33Z"/><path class="adf8971e-6cd5-4640-af2b-1d264ac3560c" d="M113.89,192.26l1.78-1.54,4.41,5.17a6.74,6.74,0,0,1,1.15,1.72,3,3,0,0,1,.1,1.9A4,4,0,0,1,120,201.4a3.4,3.4,0,0,1-2.43,1,3.63,3.63,0,0,1-2.44-1.3l1.4-1.62a2.79,2.79,0,0,0,1.09.77,1.22,1.22,0,0,0,1.2-.31,1.24,1.24,0,0,0,.51-1,3.19,3.19,0,0,0-.9-1.49Z"/><path class="adf8971e-6cd5-4640-af2b-1d264ac3560c" d="M123.65,198c-.16-2-.22-2.94-.32-4.92-1.82-.48-2.73-.7-4.58-1.12.82-.69,1.24-1,2.07-1.7l2.47.76c-.05-1-.07-1.58-.11-2.63.81-.63,1.22-.94,2.05-1.56,0,1.85,0,2.78,0,4.61,2,.56,2.92.85,4.83,1.47-.82.61-1.23.92-2,1.54-1.1-.37-1.65-.55-2.75-.91.08,1.16.13,1.74.23,2.9C124.77,197.1,124.4,197.41,123.65,198Z"/><path class="adf8971e-6cd5-4640-af2b-1d264ac3560c" d="M134.62,185l2.19-.62a5,5,0,0,1-5.65,6.24,5.61,5.61,0,0,1-3.5-2.39A5.54,5.54,0,0,1,126.4,184a5.19,5.19,0,0,1,2.37-3.47,4.92,4.92,0,0,1,3.53-.95,4.08,4.08,0,0,1,2.06,1c-.66.66-1,1-1.63,1.67a2.23,2.23,0,0,0-1.43-.63,2.52,2.52,0,0,0-1.58.48A2.66,2.66,0,0,0,128.5,184a4,4,0,0,0,1,2.72,4.44,4.44,0,0,0,2.3,1.93,2.5,2.5,0,0,0,2.1-.4,2.29,2.29,0,0,0,1-1.31A3.22,3.22,0,0,0,134.62,185Z"/><path class="adf8971e-6cd5-4640-af2b-1d264ac3560c" d="M148.63,181.25l-2.09,1.13-2-1.67c-1.54.86-2.3,1.3-3.81,2.2.19,1,.29,1.53.49,2.55l-2,1.22c-.86-4.53-1.23-6.82-1.85-11.45l2.15-1.24C143.27,176.81,145.1,178.27,148.63,181.25ZM143,179.48c-1.32-1.09-2-1.62-3.33-2.69.26,1.69.4,2.53.69,4.21C141.43,180.39,142,180.08,143,179.48Z"/><path class="adf8971e-6cd5-4640-af2b-1d264ac3560c" d="M150.83,180.12l-4-8c-1.22.62-1.83.93-3,1.58l-.86-1.6c3.27-1.75,4.93-2.57,8.3-4.12l.76,1.65c-1.24.57-1.86.86-3.08,1.46l3.9,8Z"/><path class="adf8971e-6cd5-4640-af2b-1d264ac3560c" d="M166.53,172l.43,1.19c-2.71,1-4,1.49-6.69,2.6a2.31,2.31,0,0,1-.21-.91,4.7,4.7,0,0,1,.28-1.66,12.48,12.48,0,0,1,1-2.17,17,17,0,0,0,1.5-3,2.66,2.66,0,0,0,.06-1.71,1.69,1.69,0,0,0-1-1,2.26,2.26,0,0,0-1.67.06,2.28,2.28,0,0,0-1.32,1.13,2.06,2.06,0,0,0,0,1.7l-1.39.42a3.2,3.2,0,0,1,.16-2.56,4,4,0,0,1,2.17-1.71,3.8,3.8,0,0,1,2.79-.13,2.69,2.69,0,0,1,1.64,1.67,3.08,3.08,0,0,1,.17,1.29,5.08,5.08,0,0,1-.42,1.55,25.69,25.69,0,0,1-1.32,2.51,20.29,20.29,0,0,0-1,1.83,4.24,4.24,0,0,0-.26.87C163.5,173.1,164.5,172.71,166.53,172Z"/><path class="adf8971e-6cd5-4640-af2b-1d264ac3560c" d="M167.38,170l1.32-.57a2.49,2.49,0,0,0,1.18,1.21,2,2,0,0,0,1.47.06,2.21,2.21,0,0,0,1.36-1.18,2.68,2.68,0,0,0,.1-2,2.25,2.25,0,0,0-3-1.61,2.5,2.5,0,0,0-1.07.65,2.27,2.27,0,0,0-.57,1l-1.28.27c-.31-2.23-.46-3.34-.73-5.58,2.2-.74,3.31-1.1,5.55-1.76l.36,1.21c-1.78.53-2.66.8-4.42,1.38.12,1.17.19,1.76.32,2.93a3.77,3.77,0,0,1,1.84-1.31,3.45,3.45,0,0,1,2.7.19,3.27,3.27,0,0,1,1.69,2.11,3.9,3.9,0,0,1-.13,2.66,3.58,3.58,0,0,1-2.36,2.09,3.65,3.65,0,0,1-2.56,0A3.23,3.23,0,0,1,167.38,170Z"/><path class="adf8971e-6cd5-4640-af2b-1d264ac3560c" d="M60.33,316.46l-10.74-.21c.07-3.55.17-5.32.5-8.84l1.81.17c-.24,2.52-.32,3.79-.42,6.33l2.38.09c.09-2.32.17-3.47.37-5.77l1.8.16c-.2,2.27-.28,3.4-.37,5.68l2.92.12c.1-2.47.18-3.7.42-6.16l1.8.17C60.49,311.49,60.4,313.14,60.33,316.46Z"/><path class="adf8971e-6cd5-4640-af2b-1d264ac3560c" d="M61,306.34l-10.67-1.2c.23-2,.36-3,.67-5a8.84,8.84,0,0,1,.74-2.68A2.62,2.62,0,0,1,53,296.27a2.87,2.87,0,0,1,1.76-.18,2.79,2.79,0,0,1,1.82,1.13,3.82,3.82,0,0,1,.58,2.39,5.05,5.05,0,0,1,1.1-1,11.1,11.1,0,0,1,1.95-.94c.92-.37,1.39-.55,2.31-.9-.21,1-.31,1.54-.49,2.57-1,.46-1.55.69-2.57,1.18a13.34,13.34,0,0,0-1.75.92,1.72,1.72,0,0,0-.54.61,3.8,3.8,0,0,0-.28,1.12l-.06.46,4.44.59C61.15,305,61.1,305.47,61,306.34Zm-5.87-3c.09-.68.14-1,.24-1.7a10.37,10.37,0,0,0,.19-2.07,1.27,1.27,0,0,0-.34-.72,1.34,1.34,0,0,0-.75-.37,1.22,1.22,0,0,0-.92.16,1.45,1.45,0,0,0-.56.81,17.24,17.24,0,0,0-.3,1.7c-.11.73-.16,1.1-.26,1.83Z"/><path class="adf8971e-6cd5-4640-af2b-1d264ac3560c" d="M60.65,287.76c.5-.77.75-1.16,1.26-1.91a5,5,0,0,1-.17,8.45,5.62,5.62,0,0,1-4.21.54,5.47,5.47,0,0,1-3.75-2.35,5.29,5.29,0,0,1-.49-4.25,5,5,0,0,1,2.07-3.1,4,4,0,0,1,2.24-.58c-.07.95-.11,1.42-.16,2.36a2.22,2.22,0,0,0-1.5.47,2.58,2.58,0,0,0-.88,1.42,2.71,2.71,0,0,0,.32,2.25,3.94,3.94,0,0,0,2.52,1.42,4.44,4.44,0,0,0,3-.07,2.53,2.53,0,0,0,1.31-1.69,2.31,2.31,0,0,0-.14-1.62A3.23,3.23,0,0,0,60.65,287.76Z"/><path class="adf8971e-6cd5-4640-af2b-1d264ac3560c" d="M64.16,280.51c.12-.54.18-.81.31-1.34a2.93,2.93,0,0,0,1.79-.17,2,2,0,0,0,1-1.08,2.25,2.25,0,0,0,0-1.73A2.17,2.17,0,0,0,66,275a2,2,0,0,0-1.62,0,2.2,2.2,0,0,0-1.15,1.25,4.08,4.08,0,0,0-.22,1l-1-.57.1-.21a3.14,3.14,0,0,0,.2-1.67,1.49,1.49,0,0,0-1-1.19,1.53,1.53,0,0,0-1.32,0,2,2,0,0,0-1,1.11,2,2,0,0,0-.06,1.49,2.31,2.31,0,0,0,1.1,1.19l-.72,1.26a3.24,3.24,0,0,1-1.51-1.84,3.65,3.65,0,0,1,.17-2.46,4.11,4.11,0,0,1,1-1.52,2.86,2.86,0,0,1,1.43-.75,2.46,2.46,0,0,1,1.44.15,2.17,2.17,0,0,1,1,.87,2.77,2.77,0,0,1,.38,1.44,2.61,2.61,0,0,1,1.45-1.09,2.65,2.65,0,0,1,1.81.18,3.19,3.19,0,0,1,1.77,1.92,3.81,3.81,0,0,1-.1,2.8,3.55,3.55,0,0,1-1.64,1.91A3.3,3.3,0,0,1,64.16,280.51Z"/><path class="adf8971e-6cd5-4640-af2b-1d264ac3560c" d="M67.43,272.51c.19-.54.29-.81.49-1.36a2.49,2.49,0,0,0,1.69,0,2.05,2.05,0,0,0,1.06-1,2.23,2.23,0,0,0,.1-1.8,2.68,2.68,0,0,0-1.38-1.48,2.34,2.34,0,0,0-1.89-.22,2.39,2.39,0,0,0-1.37,1.29,2.53,2.53,0,0,0-.28,1.23,2.27,2.27,0,0,0,.31,1.09l-.7,1.12c-1.83-1.31-2.73-2-4.54-3.33,1-2.15,1.53-3.22,2.64-5.32l1.11.59c-.88,1.67-1.31,2.52-2.12,4.22l2.34,1.8a3.83,3.83,0,0,1,.34-2.26,3.5,3.5,0,0,1,2-1.84,3.24,3.24,0,0,1,2.69.26,3.91,3.91,0,0,1,1.81,2,3.61,3.61,0,0,1-.14,3.15,3.68,3.68,0,0,1-1.79,1.84A3.24,3.24,0,0,1,67.43,272.51Z"/><line class="4d11df8d-711c-468a-a556-2b82ecaae28f" x1="252.42" y1="130.8" x2="252.42" y2="154.79"/><line class="4d11df8d-711c-468a-a556-2b82ecaae28f" x1="212.32" y1="117.72" x2="212.32" y2="157.46"/><line class="4d11df8d-711c-468a-a556-2b82ecaae28f" x1="295.75" y1="259.07" x2="295.75" y2="298.81"/><line class="4d11df8d-711c-468a-a556-2b82ecaae28f" x1="364" y1="131.5" x2="252.42" y2="131.55"/><line class="4d11df8d-711c-468a-a556-2b82ecaae28f" x1="138.5" y1="118.5" x2="211.91" y2="118.03"/><text class="ec97c7af-e601-444f-8a83-38258437edf9" transform="translate(250.77 96.08) scale(0.99 1)">Mayoría absoluta: <tspan class="8a7c592d-94e9-460d-a984-433a6168edf4" x="123.4" y="0">68</tspan></text><path class="727c02a7-5c31-4124-8262-469ae5ad63f1" d="M116.27,381.34A135.45,135.45,0,0,1,222.67,205.9l15.7,93.51A40.64,40.64,0,0,0,206.45,352Z"/><path class="31f9ffc9-319f-44f7-b991-90d3e50c2e03" d="M222.67,205.9a135.45,135.45,0,0,1,41.14-.57l-13.1,93.91a40.64,40.64,0,0,0-12.34.17Z"/><path class="63317e6c-baeb-48eb-93c1-33f05e1e060c" d="M263.81,205.33a135.45,135.45,0,0,1,39.41,11.81l-40.69,85.64a40.64,40.64,0,0,0-11.82-3.54Z"/><path class="0af6ce06-1411-4fe0-a965-61307f8ff372" d="M303.22,217.14a135.45,135.45,0,0,1,46.88,36.78l-73.5,59.9a40.64,40.64,0,0,0-14.06-11Z"/><path class="cdf36ff0-dd2c-4976-ac1a-e85a148ea4fd" d="M350.1,253.92a135.45,135.45,0,0,1,30.44,86.82l-94.81-.88a40.64,40.64,0,0,0-9.13-26Z"/><path class="3d5a1d26-888e-4540-98a8-c3f8420083c6" d="M380.54,340.74a135.45,135.45,0,0,1-6.62,40.61L283.74,352a40.64,40.64,0,0,0,2-12.18Z"/><circle class="b4da9dc0-a449-48fb-b220-e0e09ad44edc" cx="245.57" cy="341.33" r="111.81"/><line class="bb178fcb-af14-4d12-93d3-2b91528e1ab0" x1="246.5" y1="86" x2="246.5" y2="88.5"/><line class="915e8103-7e3c-4f8c-b6a0-c3f18cd781cb" x1="246.5" y1="93.65" x2="246.5" y2="224.93"/><line class="bb178fcb-af14-4d12-93d3-2b91528e1ab0" x1="246.5" y1="227.5" x2="246.5" y2="230"/><path class="adf8971e-6cd5-4640-af2b-1d264ac3560c" d="M212.26,244.93l2.29.1a4.46,4.46,0,0,1-3.53,4.52,5,5,0,0,1-3.85-.35,5.6,5.6,0,0,1-2.62-3.34,5.45,5.45,0,0,1,.11-4.42,5.33,5.33,0,0,1,3.43-2.6,5.06,5.06,0,0,1,3.73.2,4,4,0,0,1,1.64,1.63c-.85.42-1.28.63-2.12,1.07a2.22,2.22,0,0,0-1.18-1,2.59,2.59,0,0,0-1.68,0,2.73,2.73,0,0,0-1.79,1.43,3.93,3.93,0,0,0,.06,2.89,4.42,4.42,0,0,0,1.6,2.54,2.55,2.55,0,0,0,2.13.27,2.33,2.33,0,0,0,1.33-.94A3.22,3.22,0,0,0,212.26,244.93Z"/><path class="adf8971e-6cd5-4640-af2b-1d264ac3560c" d="M214.78,237.33l2.35-.51,1.17,5.7a11.45,11.45,0,0,0,.44,1.74,1.74,1.74,0,0,0,.88.9,2.47,2.47,0,0,0,1.52.12,2.34,2.34,0,0,0,1.34-.62,1.5,1.5,0,0,0,.42-1,11.7,11.7,0,0,0-.2-1.82l-1-5.86,2.38-.37.8,5.58a14.18,14.18,0,0,1,.21,2.73,3.06,3.06,0,0,1-.46,1.43,3.44,3.44,0,0,1-1.13,1.06,5.88,5.88,0,0,1-2,.68,6.42,6.42,0,0,1-2.38.1,3.49,3.49,0,0,1-1.44-.64,3,3,0,0,1-.87-1,12.63,12.63,0,0,1-.82-2.61Z"/><path class="adf8971e-6cd5-4640-af2b-1d264ac3560c" d="M227.94,245.93l-1.3-10.66c1.53-.19,2.3-.27,3.83-.41a13.7,13.7,0,0,1,2.86-.06,3.07,3.07,0,0,1,1.76,1,3.11,3.11,0,0,1,.78,2.06,3.35,3.35,0,0,1-.31,1.68,3.08,3.08,0,0,1-.91,1.11,3.43,3.43,0,0,1-1.15.58,15,15,0,0,1-2.34.34l-1.47.14.41,4Zm1.27-9.12.31,3,1.26-.12a6.68,6.68,0,0,0,1.81-.32,1.53,1.53,0,0,0,.68-.58,1.38,1.38,0,0,0,.21-.85A1.32,1.32,0,0,0,233,237a1.67,1.67,0,0,0-1-.4,11.38,11.38,0,0,0-1.7.07Z"/><path class="adf8971e-6cd5-4640-af2b-1d264ac3560c" d="M246.48,245.25l-1.33-.06c.12-3.36.18-5,.31-8.39a8,8,0,0,1-1.38.87,10.81,10.81,0,0,1-1.51.65V237a9.56,9.56,0,0,0,2.14-1.22,5.31,5.31,0,0,0,1.34-1.39l.94,0C246.8,238.79,246.69,240.95,246.48,245.25Z"/><path class="adf8971e-6cd5-4640-af2b-1d264ac3560c" d="M250.32,240.19a9,9,0,0,1,.67-3,3.7,3.7,0,0,1,1.43-1.67,3.45,3.45,0,0,1,2.22-.4,3.75,3.75,0,0,1,1.64.55,3,3,0,0,1,1.05,1.15,5,5,0,0,1,.5,1.68,12,12,0,0,1-.95,5.51,3.92,3.92,0,0,1-1.43,1.62,3.15,3.15,0,0,1-2,.39,3.1,3.1,0,0,1-2.36-1.36A7,7,0,0,1,250.32,240.19Zm1.43.12a6.61,6.61,0,0,0,.31,3.57,1.86,1.86,0,0,0,3.13.35,6.6,6.6,0,0,0,1.1-3.4c.23-1.75.17-2.95-.21-3.58a2,2,0,0,0-1.58-1.07,1.89,1.89,0,0,0-1.67.6A6.26,6.26,0,0,0,251.75,240.32Z"/><path class="adf8971e-6cd5-4640-af2b-1d264ac3560c" d="M342.61,337.5l10.54-2.07c.31,1.58.44,2.37.68,4a14,14,0,0,1,.22,3,3.17,3.17,0,0,1-.87,1.87,3,3,0,0,1-2,.89,3.29,3.29,0,0,1-1.69-.25,3.14,3.14,0,0,1-1.15-.88,3.55,3.55,0,0,1-.64-1.14,16.48,16.48,0,0,1-.46-2.36c-.09-.6-.13-.89-.23-1.49l-4,.66C342.86,338.79,342.78,338.36,342.61,337.5Zm9.19.7-3,.5c.08.51.12.76.2,1.28a7.24,7.24,0,0,0,.42,1.83,1.57,1.57,0,0,0,.61.67,1.36,1.36,0,0,0,.86.17,1.3,1.3,0,0,0,.92-.49,1.73,1.73,0,0,0,.35-1,11.61,11.61,0,0,0-.17-1.76C351.92,338.89,351.88,338.66,351.8,338.19Z"/><path class="adf8971e-6cd5-4640-af2b-1d264ac3560c" d="M343.89,347.53l10.72-.66c.1,1.6.13,2.4.15,4a13.9,13.9,0,0,1-.17,3,3.17,3.17,0,0,1-1.1,1.73,3,3,0,0,1-2.12.61,3.3,3.3,0,0,1-1.64-.47,3.13,3.13,0,0,1-1-1,3.57,3.57,0,0,1-.48-1.21,16.22,16.22,0,0,1-.15-2.39c0-.6,0-.9,0-1.5l-4,.13C344,348.84,343.94,348.4,343.89,347.53Zm9,1.89-3,.1c0,.52,0,.77,0,1.29a7.25,7.25,0,0,0,.18,1.86,1.56,1.56,0,0,0,.52.74,1.36,1.36,0,0,0,.83.28,1.3,1.3,0,0,0,1-.37,1.72,1.72,0,0,0,.49-1,11.42,11.42,0,0,0,.06-1.76C352.92,350.13,352.92,349.89,352.9,349.42Z"/><path class="adf8971e-6cd5-4640-af2b-1d264ac3560c" d="M342.76,366c.1-.53.14-.79.23-1.32l8.29,1.37a8.47,8.47,0,0,1-.68-1.52,11.68,11.68,0,0,1-.46-1.61l1.26.16a10.25,10.25,0,0,0,.94,2.33,5.48,5.48,0,0,0,1.2,1.55c-.07.39-.1.58-.17,1Z"/><path class="adf8971e-6cd5-4640-af2b-1d264ac3560c" d="M341.08,373.18c.15-.52.22-.78.36-1.29l8.12,2.15a8.44,8.44,0,0,1-.53-1.58,11.86,11.86,0,0,1-.3-1.66l1.24.28a10.39,10.39,0,0,0,.71,2.42,5.49,5.49,0,0,0,1,1.67l-.26,1Z"/><path class="adf8971e-6cd5-4640-af2b-1d264ac3560c" d="M282.42,249.76c1.77-3.91,2.66-5.87,4.44-9.77,1.42.64,2.13,1,3.53,1.67a13.88,13.88,0,0,1,2.5,1.45,3,3,0,0,1,.61,3.89,3.33,3.33,0,0,1-1.14,1.27,3.1,3.1,0,0,1-1.36.47,3.47,3.47,0,0,1-1.29-.11,15.22,15.22,0,0,1-2.19-.94l-1.34-.65-1.75,3.65C283.62,250.31,283.22,250.12,282.42,249.76Zm5.86-7.11L287,245.39l1.15.56a6.86,6.86,0,0,0,1.72.68,1.55,1.55,0,0,0,.89-.13,1.37,1.37,0,0,0,.62-.62,1.31,1.31,0,0,0,.12-1,1.68,1.68,0,0,0-.63-.86,11.5,11.5,0,0,0-1.51-.83Z"/><path class="adf8971e-6cd5-4640-af2b-1d264ac3560c" d="M292.72,251.08l2,.93a2.58,2.58,0,0,0-.11,1.75,2.52,2.52,0,0,0,1.12,1.27,2.6,2.6,0,0,0,1.61.5,1.32,1.32,0,0,0,1-.57.94.94,0,0,0,.16-.67,1.84,1.84,0,0,0-.44-.83c-.18-.22-.61-.68-1.31-1.37a6.91,6.91,0,0,1-1.69-2.25,2.75,2.75,0,0,1,.16-2.4,2.56,2.56,0,0,1,1.21-1.07,3.12,3.12,0,0,1,1.84-.19,6.27,6.27,0,0,1,2.21.9,5.2,5.2,0,0,1,2.37,2.57,3,3,0,0,1-.34,2.62c-.8-.49-1.2-.74-2-1.22a1.77,1.77,0,0,0,.1-1.35,2.52,2.52,0,0,0-1.08-1.11,2.85,2.85,0,0,0-1.59-.52.76.76,0,0,0-.67.38.8.8,0,0,0,0,.74,6.9,6.9,0,0,0,1.46,1.74,10.61,10.61,0,0,1,1.69,2,2.86,2.86,0,0,1-.14,3.27,3.13,3.13,0,0,1-1.41,1.13,3.23,3.23,0,0,1-1.9.18,6.62,6.62,0,0,1-2.21-.94,5,5,0,0,1-2.24-2.45A4.14,4.14,0,0,1,292.72,251.08Z"/><path class="adf8971e-6cd5-4640-af2b-1d264ac3560c" d="M308.06,260.95c.52.76.77,1.14,1.27,1.91a4.47,4.47,0,0,1-5.74-.17,4.93,4.93,0,0,1-2-3.31,5.6,5.6,0,0,1,1.14-4.09,5.46,5.46,0,0,1,3.64-2.52A5.33,5.33,0,0,1,310.5,254a5.05,5.05,0,0,1,2,3.12,4,4,0,0,1-.34,2.29c-.84-.44-1.27-.66-2.12-1.08a2.22,2.22,0,0,0,.15-1.57,2.59,2.59,0,0,0-1-1.37,2.73,2.73,0,0,0-2.21-.59,3.92,3.92,0,0,0-2.29,1.76,4.42,4.42,0,0,0-1.1,2.79,2.54,2.54,0,0,0,1,1.87,2.32,2.32,0,0,0,1.54.51A3.24,3.24,0,0,0,308.06,260.95Z"/><path class="adf8971e-6cd5-4640-af2b-1d264ac3560c" d="M315,272.61l-.94-.95,5.95-5.93a8,8,0,0,1-1.6-.31,11,11,0,0,1-1.55-.55l.88-.92a9.67,9.67,0,0,0,2.4.57,5.36,5.36,0,0,0,1.93-.1l.66.67Z"/><path class="adf8971e-6cd5-4640-af2b-1d264ac3560c" d="M328.21,275.29l-1-1a2.35,2.35,0,0,0,.52-1.14,2,2,0,0,0-.5-1.47,2.12,2.12,0,0,0-1.06-.7,3,3,0,0,0-1.71.06,6.38,6.38,0,0,0-2.12,1.35,3.11,3.11,0,0,1,1.63.22,3.49,3.49,0,0,1,1.28.95,3.24,3.24,0,0,1,.8,2.48,3.31,3.31,0,0,1-1.34,2.34,4.07,4.07,0,0,1-1.75.82,3.31,3.31,0,0,1-1.81-.11,3.47,3.47,0,0,1-1.48-1,3.56,3.56,0,0,1-.89-2.86,6.08,6.08,0,0,1,2.23-3.48c1.53-1.4,2.93-2.11,4.19-2.11a3.74,3.74,0,0,1,2.9,1.45,3.51,3.51,0,0,1,.93,2.23A2.86,2.86,0,0,1,328.21,275.29ZM321,273.87a3,3,0,0,0-.78,1.09,2.21,2.21,0,0,0-.16,1.25,2.14,2.14,0,0,0,.48,1.06A2,2,0,0,0,322,278a2.63,2.63,0,0,0,1.81-.68,2.38,2.38,0,0,0,1-1.6,2.11,2.11,0,0,0-.54-1.63,2.2,2.2,0,0,0-3.24-.18Z"/><line class="4d11df8d-711c-468a-a556-2b82ecaae28f" x1="277.42" y1="236.5" x2="277.42" y2="284.5"/><text class="751ba300-1e69-4ddb-8634-7350850483e5" transform="translate(208.9 300.23) rotate(-0.14)"><tspan class="d78e36a7-2d1d-46b6-bbfc-846068403d04">CSQ</tspan><tspan class="598059bb-fd22-415a-8365-ccf5a32d9f86" x="32.5" y="0">P</tspan><tspan class="416800d9-d3c5-4243-829d-caa478d92f18" x="42.24" y="0"> </tspan><tspan class="292c6ac7-e79b-42a4-b7ef-44826f5079c2" x="46.41" y="0">1</tspan><tspan class="3f66111c-8084-4ee9-bbbe-3eba80d6092d" x="53.63" y="0">1</tspan></text><line class="4d11df8d-711c-468a-a556-2b82ecaae28f" x1="277.18" y1="284.55" x2="210.5" y2="284.5"/><path class="adf8971e-6cd5-4640-af2b-1d264ac3560c" d="M336.78,291.93c.17.92.24,1.37.38,2.29a4.52,4.52,0,0,1-5.17-2.53,5,5,0,0,1-.51-3.84,5.62,5.62,0,0,1,2.65-3.33,5.34,5.34,0,0,1,4.35-.87,5.48,5.48,0,0,1,3.34,2.86,5.22,5.22,0,0,1,.64,3.77,4,4,0,0,1-1.25,2c-.59-.77-.89-1.15-1.5-1.9a2.21,2.21,0,0,0,.77-1.39,2.68,2.68,0,0,0-.34-1.68,2.81,2.81,0,0,0-1.8-1.48,3.85,3.85,0,0,0-2.81.69,4.41,4.41,0,0,0-2.12,2.13,2.59,2.59,0,0,0,.21,2.15,2.36,2.36,0,0,0,1.21,1.1A3.24,3.24,0,0,0,336.78,291.93Z"/><path class="adf8971e-6cd5-4640-af2b-1d264ac3560c" d="M336.69,295.73c.47.73.7,1.09,1.16,1.84a1.53,1.53,0,0,0-.62.87,1.94,1.94,0,0,0,.15,1.19,2.2,2.2,0,0,0,.73,1,.65.65,0,0,0,.61.06.52.52,0,0,0,.31-.28,1.68,1.68,0,0,0,0-.77,14.28,14.28,0,0,1-.35-3.45,2,2,0,0,1,1.19-1.62,2.06,2.06,0,0,1,1.91.1,4.22,4.22,0,0,1,1.7,2.24,4.89,4.89,0,0,1,.47,2.63,2.61,2.61,0,0,1-1,1.63c-.42-.74-.63-1.11-1.07-1.84a1.19,1.19,0,0,0,.46-.73,2,2,0,0,0-.18-1.09,2.53,2.53,0,0,0-.69-1.08.48.48,0,0,0-.48-.07.45.45,0,0,0-.26.35,9.8,9.8,0,0,0,.25,2.13,5.82,5.82,0,0,1,0,2.61,1.83,1.83,0,0,1-1.21,1.15,2.37,2.37,0,0,1-2-.24,4.23,4.23,0,0,1-1.68-2.22,4.67,4.67,0,0,1-.4-2.6A3.06,3.06,0,0,1,336.69,295.73Z"/><path class="adf8971e-6cd5-4640-af2b-1d264ac3560c" d="M342,315.33l-1.24.24a69.25,69.25,0,0,0-1.66-7,2.3,2.3,0,0,1,.92-.1,4.6,4.6,0,0,1,1.61.48,11.8,11.8,0,0,1,2,1.34,18.93,18.93,0,0,0,2.79,2,2.64,2.64,0,0,0,1.69.33,1.66,1.66,0,0,0,1.16-.89,2.39,2.39,0,0,0,.16-1.72,2.42,2.42,0,0,0-1-1.53,2,2,0,0,0-1.69-.22c-.1-.59-.15-.89-.26-1.48a3.12,3.12,0,0,1,2.54.52,4.24,4.24,0,0,1,1.45,2.5,4,4,0,0,1-.24,2.9,2.63,2.63,0,0,1-1.89,1.4,3,3,0,0,1-1.3,0,5.2,5.2,0,0,1-1.47-.67c-.54-.33-1.31-.91-2.31-1.7a18.39,18.39,0,0,0-1.69-1.22,4.2,4.2,0,0,0-.83-.38C341.33,312.15,341.57,313.21,342,315.33Z"/><path class="adf8971e-6cd5-4640-af2b-1d264ac3560c" d="M343.76,316.5c.15.56.22.85.35,1.41a2.5,2.5,0,0,0-1.39,1,2.07,2.07,0,0,0-.31,1.45,2.26,2.26,0,0,0,.91,1.56,2.68,2.68,0,0,0,2,.48,2.32,2.32,0,0,0,1.7-.87,2.44,2.44,0,0,0,.43-1.86,2.58,2.58,0,0,0-.46-1.2,2.29,2.29,0,0,0-.87-.75c0-.53,0-.8-.06-1.34,2.25.07,3.38.11,5.63.23.38,2.41.54,3.62.76,6.06l-1.25.12c-.18-1.93-.29-2.89-.57-4.8l-2.95-.21a3.92,3.92,0,0,1,1,2.11,3.57,3.57,0,0,1-.68,2.7,3.21,3.21,0,0,1-2.4,1.27,3.92,3.92,0,0,1-2.59-.65,3.66,3.66,0,0,1-1.62-2.71,3.73,3.73,0,0,1,.46-2.53A3.25,3.25,0,0,1,343.76,316.5Z"/><path class="adf8971e-6cd5-4640-af2b-1d264ac3560c" d="M136.18,326c.16-.95.25-1.42.43-2.37l6.67,1.29a6.73,6.73,0,0,1,2,.63,3,3,0,0,1,1.27,1.42,4,4,0,0,1,.19,2.28,3.42,3.42,0,0,1-1.24,2.33,3.64,3.64,0,0,1-2.71.55c0-.86,0-1.29.06-2.15a2.78,2.78,0,0,0,1.33-.09,1.23,1.23,0,0,0,.74-1,1.25,1.25,0,0,0-.24-1.11,3.18,3.18,0,0,0-1.64-.6Z"/><path class="adf8971e-6cd5-4640-af2b-1d264ac3560c" d="M147.41,324.34c-1.34-1.43-2-2.17-3.29-3.68-1.73.75-2.59,1.15-4.3,2,.22-1.07.34-1.6.58-2.66,1-.39,1.45-.58,2.42-.94-.68-.8-1-1.21-1.69-2,.26-1,.4-1.52.69-2.52,1.11,1.5,1.67,2.23,2.82,3.67,1.89-.76,2.83-1.12,4.73-1.79-.28,1-.42,1.47-.67,2.46-1.09.38-1.64.57-2.73,1,.78.87,1.17,1.3,2,2.14C147.71,322.91,147.61,323.38,147.41,324.34Z"/><path class="adf8971e-6cd5-4640-af2b-1d264ac3560c" d="M146.21,314.73c.17-.87.26-1.3.44-2.16a2.59,2.59,0,0,0,1.73-.29,2.5,2.5,0,0,0,1-1.38,2.59,2.59,0,0,0,.11-1.68,1.32,1.32,0,0,0-.79-.87,1,1,0,0,0-.69,0,1.84,1.84,0,0,0-.71.61c-.17.22-.52.74-1,1.58a6.83,6.83,0,0,1-1.8,2.14,2.76,2.76,0,0,1-2.38.39,2.56,2.56,0,0,1-1.32-.93,3.08,3.08,0,0,1-.6-1.73,6.21,6.21,0,0,1,.37-2.34,5.16,5.16,0,0,1,2-2.88,3,3,0,0,1,2.63-.27c-.3.89-.44,1.33-.72,2.23a1.78,1.78,0,0,0-1.34.21,2.5,2.5,0,0,0-.83,1.3,2.83,2.83,0,0,0-.14,1.65.76.76,0,0,0,.52.56.81.81,0,0,0,.73-.13,6.83,6.83,0,0,0,1.36-1.81,10.62,10.62,0,0,1,1.56-2.1,2.87,2.87,0,0,1,3.22-.61,3.14,3.14,0,0,1,1.43,1.11,3.2,3.2,0,0,1,.61,1.8,6.56,6.56,0,0,1-.41,2.36,5,5,0,0,1-1.87,2.72A4.16,4.16,0,0,1,146.21,314.73Z"/><path class="adf8971e-6cd5-4640-af2b-1d264ac3560c" d="M144.88,302.56c-.65-.73-1-1.11-1.61-1.85.39-.95.59-1.42,1-2.36.45,1.17.67,1.75,1.15,2.9Zm8.16,3.1-7.22-2.9c.33-.83.5-1.24.85-2.06l7.16,3C153.51,304.51,153.35,304.89,153,305.67Z"/><path class="adf8971e-6cd5-4640-af2b-1d264ac3560c" d="M152.48,288.26l-.61,1.29a2.37,2.37,0,0,0-1.25-.07,2,2,0,0,0-1.19,1,2.11,2.11,0,0,0-.26,1.24,3,3,0,0,0,.69,1.56,6.37,6.37,0,0,0,2,1.48,3.09,3.09,0,0,1-.39-1.6,3.46,3.46,0,0,1,.41-1.54,3.24,3.24,0,0,1,2-1.64,3.32,3.32,0,0,1,2.66.39,4.08,4.08,0,0,1,1.41,1.32,3.3,3.3,0,0,1,.56,1.72,3.44,3.44,0,0,1-.43,1.76A3.56,3.56,0,0,1,155.8,297a6.11,6.11,0,0,1-4.06-.81c-1.86-.91-3-1.94-3.5-3.12a3.71,3.71,0,0,1,.28-3.22,3.5,3.5,0,0,1,1.73-1.68A2.88,2.88,0,0,1,152.48,288.26Zm1.36,7.24a3,3,0,0,0,1.3.32,2.22,2.22,0,0,0,1.22-.3,2.14,2.14,0,0,0,.81-.83,2,2,0,0,0,.11-1.61,2.63,2.63,0,0,0-1.3-1.43,2.38,2.38,0,0,0-1.84-.3,2.1,2.1,0,0,0-1.32,1.09,2.19,2.19,0,0,0-.18,1.72A2.22,2.22,0,0,0,153.84,295.51Z"/><path class="adf8971e-6cd5-4640-af2b-1d264ac3560c" d="M152.3,286.15l-1.09-.64c1.57-2.66,2.4-4,4.15-6.53l.85.58a13.06,13.06,0,0,0,1.18,3.46,15.57,15.57,0,0,0,2.23,3.4,13.19,13.19,0,0,0,2.22,2l-.72,1.17a12.37,12.37,0,0,1-2.34-2,14.18,14.18,0,0,1-2.17-3.06,13.22,13.22,0,0,1-1.24-3.26C154.09,283.17,153.47,284.15,152.3,286.15Z"/><text class="6c30de79-ec60-49dc-bf29-437c2ac2654e" transform="translate(182.19 401.42) scale(0.99 1)">135 escaños</text></svg>