<svg id="f65c8af1-83df-4c5b-ac6a-45270bcf4f03" data-name="Capa 1" xmlns="http://www.w3.org/2000/svg" viewBox="0 0 534 454"><defs><style>.\30 334dfa1-05ab-4705-b944-f95155433ff0,.\35 5d5d7d6-d657-4024-8eb5-990880508a85,.\36 c39abb0-d161-48eb-a137-d239e790cb6e,.\38 104ecb3-9437-4065-9e6b-f06573a98d4b,.\38 b743cc4-71d4-46b9-a409-9372e72ad11f,.a719a2f1-d32c-4956-92ee-5e652bb8d864,.b4ae7add-961a-4692-913b-5941c5b71b01,.b59d2354-acc7-4ca4-9a0e-85cea220a4cd,.c8e942f1-1dd6-4f2d-96ac-7527b27a20da{fill:none;}.\38 104ecb3-9437-4065-9e6b-f06573a98d4b{stroke:#757575;}.\38 104ecb3-9437-4065-9e6b-f06573a98d4b,.a719a2f1-d32c-4956-92ee-5e652bb8d864{stroke-miterlimit:10;}.d2980b25-419a-4470-82ec-3e6556f79111{font-size:16px;}.\35 3d8d765-e62f-4b37-9559-4dae36da34a0,.\37 d7193c4-44c3-441e-9f78-d6ff960e8614,.d2980b25-419a-4470-82ec-3e6556f79111{fill:#757575;}.\35 3d8d765-e62f-4b37-9559-4dae36da34a0,.\38 e610bb0-7eec-4f35-95dd-0c33c996cea8,.d2980b25-419a-4470-82ec-3e6556f79111{font-family:ArialMT, Arial;}.\30 e5892a8-c74c-40af-8776-826640af37b8,.\32 33233ff-2055-4ea2-a393-250100d7729c,.\34 1c017bb-1549-4ab6-b056-eb48862cca70,.\35 3d8d765-e62f-4b37-9559-4dae36da34a0,.\35 80399d9-dda6-4ec0-8b81-3178c4fa911f,.\36 0f0406a-0355-4be4-887e-a9b242363026,.\37 d7193c4-44c3-441e-9f78-d6ff960e8614,.b35d0ede-5c1d-4588-ba88-14bbdf4ea093,.c5feb027-07c8-4022-ac1c-8b8082994303{font-size:13px;}.\35 80399d9-dda6-4ec0-8b81-3178c4fa911f{fill:#efb21b;}.\30 e5892a8-c74c-40af-8776-826640af37b8,.\32 33233ff-2055-4ea2-a393-250100d7729c,.\34 1c017bb-1549-4ab6-b056-eb48862cca70,.\35 80399d9-dda6-4ec0-8b81-3178c4fa911f,.\35 fcaae75-c605-4364-be2a-460168836595,.\36 0f0406a-0355-4be4-887e-a9b242363026,.\37 d7193c4-44c3-441e-9f78-d6ff960e8614,.b35d0ede-5c1d-4588-ba88-14bbdf4ea093,.c5feb027-07c8-4022-ac1c-8b8082994303{font-family:Arial-BoldMT, Arial;font-weight:700;}.b35d0ede-5c1d-4588-ba88-14bbdf4ea093{fill:#d57928;}.\30 e5892a8-c74c-40af-8776-826640af37b8{fill:#ffe600;}.e4f99a44-dc51-458c-b653-ff1a3bed1ed1{letter-spacing:-0.02em;}.\36 0f0406a-0355-4be4-887e-a9b242363026{fill:#991d26;}.c5feb027-07c8-4022-ac1c-8b8082994303{fill:#3f4d78;}.\33 5d662ff-ec10-4236-bb99-1eff2ce410cd{letter-spacing:-0.07em;}.\32 33233ff-2055-4ea2-a393-250100d7729c{fill:#8e244f;}.\34 1c017bb-1549-4ab6-b056-eb48862cca70{fill:#59a5a5;}.a719a2f1-d32c-4956-92ee-5e652bb8d864{stroke:#d6d6d6;}.\38 e610bb0-7eec-4f35-95dd-0c33c996cea8{font-size:15px;}.\35 fcaae75-c605-4364-be2a-460168836595,.\38 e610bb0-7eec-4f35-95dd-0c33c996cea8{fill:#323232;}.\35 fcaae75-c605-4364-be2a-460168836595{font-size:26px;}.\30 38aea33-854e-47d0-a3ed-a3b17e5deeb9{fill:#283659;}.\36 d194617-df3c-4316-9ae7-d3b42d61c793{fill:#fff;}.\35 5d5d7d6-d657-4024-8eb5-990880508a85{stroke:#ffe600;}.\30 334dfa1-05ab-4705-b944-f95155433ff0,.\35 5d5d7d6-d657-4024-8eb5-990880508a85,.\36 c39abb0-d161-48eb-a137-d239e790cb6e,.\38 b743cc4-71d4-46b9-a409-9372e72ad11f,.b4ae7add-961a-4692-913b-5941c5b71b01,.b59d2354-acc7-4ca4-9a0e-85cea220a4cd,.c8e942f1-1dd6-4f2d-96ac-7527b27a20da{stroke-width:1.5px;}.c8e942f1-1dd6-4f2d-96ac-7527b27a20da{stroke:#efb21b;}.\38 b743cc4-71d4-46b9-a409-9372e72ad11f{stroke:#3f4d78;}.b59d2354-acc7-4ca4-9a0e-85cea220a4cd{stroke:#8e244f;}.\36 c39abb0-d161-48eb-a137-d239e790cb6e{stroke:#991d26;}.\30 334dfa1-05ab-4705-b944-f95155433ff0{stroke:#d57928;}.b4ae7add-961a-4692-913b-5941c5b71b01{stroke:#59a5a5;}</style></defs><title>2017.11_Metaencuesta</title><line class="8104ecb3-9437-4065-9e6b-f06573a98d4b" x1="15" y1="404.5" x2="536" y2="404.5"/><line class="8104ecb3-9437-4065-9e6b-f06573a98d4b" x1="169.5" y1="405" x2="169.5" y2="412"/><line class="8104ecb3-9437-4065-9e6b-f06573a98d4b" x1="513.5" y1="405" x2="513.5" y2="412"/><line class="8104ecb3-9437-4065-9e6b-f06573a98d4b" x1="65.5" y1="404" x2="65.5" y2="411"/><text class="d2980b25-419a-4470-82ec-3e6556f79111" transform="translate(14.66 399.02) scale(0.99 1)">0</text><text class="d2980b25-419a-4470-82ec-3e6556f79111" transform="translate(14.66 353.02) scale(0.99 1)">5</text><text class="d2980b25-419a-4470-82ec-3e6556f79111" transform="translate(13.5 297.02) scale(0.99 1)">10</text><text class="d2980b25-419a-4470-82ec-3e6556f79111" transform="translate(12.83 195.02) scale(0.99 1)">20</text><text class="d2980b25-419a-4470-82ec-3e6556f79111" transform="translate(12.83 137.02) scale(0.99 1)">25</text><text class="d2980b25-419a-4470-82ec-3e6556f79111" transform="translate(12.83 90.02) scale(0.99 1)">30</text><text class="d2980b25-419a-4470-82ec-3e6556f79111" transform="translate(12.83 245.02) scale(0.99 1)">15</text><text class="53d8d765-e62f-4b37-9559-4dae36da34a0" transform="translate(13.5 447.02) scale(0.99 1)">Fuente: Electrograph</text><text class="580399d9-dda6-4ec0-8b81-3178c4fa911f" transform="translate(501.5 126.02) scale(0.99 1)">ERC</text><text class="7d7193c4-44c3-441e-9f78-d6ff960e8614" transform="translate(51.5 426.02) scale(0.99 1)">26 de octubre</text><text class="7d7193c4-44c3-441e-9f78-d6ff960e8614" transform="translate(153.5 425.02) scale(0.99 1)">1 de noviembre</text><text class="7d7193c4-44c3-441e-9f78-d6ff960e8614" transform="translate(426.5 424.02) scale(0.99 1)">23 de noviembre</text><text class="b35d0ede-5c1d-4588-ba88-14bbdf4ea093" transform="translate(512.5 177.02) scale(0.99 1)">Cs</text><text class="0e5892a8-c74c-40af-8776-826640af37b8" transform="translate(501.5 370.02) scale(0.99 1)">CU<tspan class="e4f99a44-dc51-458c-b653-ff1a3bed1ed1" x="18.78" y="0">P</tspan></text><text class="60f0406a-0355-4be4-887e-a9b242363026" transform="translate(501.5 240.02) scale(0.99 1)">PSC</text><text class="c5feb027-07c8-4022-ac1c-8b8082994303" transform="translate(489.5 284.02) scale(0.99 1)">JxC<tspan class="35d662ff-ec10-4236-bb99-1eff2ce410cd" x="23.85" y="0">A</tspan><tspan x="32.27" y="0">T</tspan></text><text class="233233ff-2055-4ea2-a393-250100d7729c" transform="translate(464.5 322.02) scale(0.99 1)">CeC-<tspan class="e4f99a44-dc51-458c-b653-ff1a3bed1ed1" x="30.34" y="0">P</tspan></text><text class="41c017bb-1549-4ab6-b056-eb48862cca70" transform="translate(512.5 304.02) scale(0.99 1)">P<tspan class="e4f99a44-dc51-458c-b653-ff1a3bed1ed1" x="8.67" y="0">P</tspan></text><line class="a719a2f1-d32c-4956-92ee-5e652bb8d864" x1="13.85" y1="95.5" x2="529.01" y2="95.5"/><line class="a719a2f1-d32c-4956-92ee-5e652bb8d864" x1="13.85" y1="199.5" x2="529.01" y2="199.5"/><line class="a719a2f1-d32c-4956-92ee-5e652bb8d864" x1="13.85" y1="301.5" x2="529.01" y2="301.5"/><line class="a719a2f1-d32c-4956-92ee-5e652bb8d864" x1="14.84" y1="357.5" x2="530" y2="357.5"/><line class="a719a2f1-d32c-4956-92ee-5e652bb8d864" x1="14.84" y1="249.5" x2="530" y2="249.5"/><line class="a719a2f1-d32c-4956-92ee-5e652bb8d864" x1="14.84" y1="142.5" x2="530" y2="142.5"/><text class="8e610bb0-7eec-4f35-95dd-0c33c996cea8" transform="translate(94.13 51.74)">Porcentaje de voto de las encuestas publicadas desde <tspan x="61.71" y="18">el 26 de octubre al 23 de noviembre</tspan></text><text class="5fcaae75-c605-4364-be2a-460168836595" transform="translate(61.46 29.62)">Evolución de los sondeos del 21-D</text><polygon class="038aea33-854e-47d0-a3ed-a3b17e5deeb9" points="431 435.27 527.44 435.27 527.44 449.93 431 449.93 431 435.27 431 435.27"/><path class="6d194617-df3c-4316-9ae7-d3b42d61c793" d="M508.36,438.55h-3.7V439l1,.23v6.81a.81.81,0,0,1-.68.35,1.45,1.45,0,0,1-1.2-.88l-.92-1.65a1.91,1.91,0,0,0-1.69-1.14v-.12a2.26,2.26,0,0,0,2.33-2.1c0-1.42-1.29-2-2.78-2h-3.35V439l1.1.23v6.91h0l-1.26.24L494,437.83a4,4,0,0,1-1.13,1l.12.35-2.87,7-.86.23v.46h2.62v-.46l-.85-.22,1-2.56h2.66l.93,2.54-1,.24v.46H501v-.46l-1-.23V443a1.57,1.57,0,0,1,1.42,1l1.26,2.25a2,2,0,0,0,1.82,1.11,1.8,1.8,0,0,0,1.2-.49h2.85a4.28,4.28,0,0,0,4.39-4.16,4.17,4.17,0,0,0-4.47-4.16ZM492.23,443l1.12-3,1.08,3Zm8.23-.62h-.57v-3.1h.71a1.4,1.4,0,0,1,1.45,1.48,1.61,1.61,0,0,1-1.57,1.62Zm7.82,3.83h-1.18v-6.93h1.22c1.89,0,3,1.31,3,3.46s-1.21,3.46-3.08,3.46Z"/><path class="6d194617-df3c-4316-9ae7-d3b42d61c793" d="M447.71,446.17l-3.07-8.34a3.94,3.94,0,0,1-1.13,1l.12.35-2.85,7-.61.23-.18.46h2.54v-.46l-.85-.22,1-2.56h2.66l.93,2.54-1,.24v.46h3.42v-.46l-.91-.23Zm-4.87-3.2,1.13-3,1.08,3Z"/><polygon class="6d194617-df3c-4316-9ae7-d3b42d61c793" points="440.39 444.75 440.08 444.58 438.29 446.21 436.75 446.21 436.75 439.25 437.68 439.01 437.68 438.54 434.37 438.54 434.37 439.01 435.3 439.25 435.3 446.15 434.37 446.39 434.37 446.86 439.57 446.86 440.39 444.75 440.39 444.75"/><polygon class="6d194617-df3c-4316-9ae7-d3b42d61c793" points="454.83 438.54 454.83 439.01 455.83 439.25 453.66 444.81 451.37 439.24 452.45 439.01 452.45 438.54 448.76 438.54 448.76 439.01 449.82 439.24 453.1 447.14 453.45 447.14 456.72 439.25 456.75 439.25 457.77 439.01 457.77 438.54 454.83 438.54 454.83 438.54"/><path class="6d194617-df3c-4316-9ae7-d3b42d61c793" d="M487.6,438.55V439l1,.24s.07,4.12,0,5.16a2.1,2.1,0,0,1-2.14,2h-.11a2.07,2.07,0,0,1-2.24-2.13v-5.07l1-.22v-.46h-3.34V439l.95.23v5.11a3.07,3.07,0,0,0,3.3,2.91,3,3,0,0,0,3.3-2.91l.06-5.1,1-.24v-.46Z"/><path class="6d194617-df3c-4316-9ae7-d3b42d61c793" d="M523.7,446.15l-3.06-8.32a3.94,3.94,0,0,1-1.13,1l.12.35-2.86,7-.49.2-.66-.21v-6.94l1-.23v-.46h-3.48V439l1,.24v6.92l-1,.23v.46h5.3v-.46l-.85-.23,1-2.56h2.66l.93,2.54-1,.24v.46h3.43v-.46l-.92-.24ZM518.84,443l1.13-3,1.08,3Z"/><path class="6d194617-df3c-4316-9ae7-d3b42d61c793" d="M469.75,438.55V439l1,.24.06,5.44-5.21-6.14H463.4V439l1,.22.08,0-.07,6.88h0l-1,.24-3.14-8.56a4,4,0,0,1-1.1,1l.12.35-2.87,7-.86.23v.46h2.62v-.46l-.85-.22,1-2.56h2.66l.93,2.54-1,.24v.46h5.47v-.46l-1-.24-.12-6,6,7h.39l.08-7.9,1-.23v-.46ZM458.44,443l1.13-3,1.08,3Z"/><path class="6d194617-df3c-4316-9ae7-d3b42d61c793" d="M478.52,442.61v.46l.94.24V446a3.11,3.11,0,0,1-1.88.62c-1.89,0-3.1-1.57-3.1-3.79s1.18-4,3.14-4a3,3,0,0,1,2.78,2.26l.27-.16v-2.62l-.24-.13-.52.64a5.24,5.24,0,0,0-2.3-.59,4.65,4.65,0,0,0-4.66,4.58,4.22,4.22,0,0,0,4,4.43h.3a4.29,4.29,0,0,0,2.68-.89l.73.49h.24V443.3l.79-.3v-.38Z"/><path class="55d5d7d6-d657-4024-8eb5-990880508a85" d="M63.56,340l81.14,6.17,257.5,1L434.38,340l64.38,4.11,16.09,2.06"/><path class="c8e942f1-1dd6-4f2d-96ac-7527b27a20da" d="M63.56,133.4,144.7,84.07l257.5,83.24,32.19-8.22,64.38-26.72L514.85,157"/><path class="8b743cc4-71d4-46b9-a409-9372e72ad11f" d="M63.56,304l81.14-3.08,257.5-67.83,32.19,2.06,64.38,29.8h16.09"/><path class="b59d2354-acc7-4ca4-9a0e-85cea220a4cd" d="M63.56,291.66l81.14,10.28L402.2,326.6l32.19-10.28,64.38,19.53,16.09-17.47"/><path class="6c39abb0-d161-48eb-a137-d239e790cb6e" d="M63.56,249.53l81.14,29.8,257.5-29.8,32.19-30.83,64.38,32.89,16.09,2.06"/><path class="0334dfa1-05ab-4705-b944-f95155433ff0" d="M63.56,203.28l81.14,13.36,257.5-41.11,32.19,38,64.38-68.85,16.09,45.22"/><path class="b4ae7add-961a-4692-913b-5941c5b71b01" d="M63.56,315.3l81.14-3.08,257.5,12.33,32.19,21.58,64.38-1,16.09-36"/></svg>