<svg id="Capa_1" data-name="Capa 1" xmlns="http://www.w3.org/2000/svg" viewBox="0 0 542 464.93"><defs><style>.cls-1,.cls-10,.cls-11,.cls-18{fill:none;}.cls-1{stroke:#757575;}.cls-1,.cls-10,.cls-11,.cls-12,.cls-14,.cls-18{stroke-miterlimit:10;}.cls-2,.cls-3{font-size:16px;}.cls-2,.cls-3,.cls-5{fill:#757575;}.cls-2,.cls-5,.cls-6{font-family:ArialMT, Arial;}.cls-15,.cls-3{font-family:Arial-BoldMT, Arial;font-weight:700;}.cls-4{letter-spacing:-0.06em;}.cls-5,.cls-6{font-size:13px;}.cls-15,.cls-19,.cls-6{fill:#323232;}.cls-7{letter-spacing:-0.02em;}.cls-8{letter-spacing:-0.04em;}.cls-9{letter-spacing:0em;}.cls-10{stroke:#000;}.cls-11{stroke:#bababa;}.cls-12{fill:#1abbc3;}.cls-12,.cls-14{stroke:#fff;stroke-width:0.5px;}.cls-13{opacity:0.92;}.cls-14{fill:#6e79a2;}.cls-15{font-size:26px;}.cls-16{fill:#283659;}.cls-17{fill:#fff;}.cls-18{stroke:#323232;}</style></defs><title>2017.11_AcosoSexualTrabajo</title><line class="cls-1" x1="5" y1="418.11" x2="526" y2="418.11"/><text class="cls-2" transform="translate(4.66 411.71) scale(0.99 1)">0</text><text class="cls-2" transform="translate(3.99 336.71) scale(0.99 1)">200</text><text class="cls-2" transform="translate(3.99 264.71) scale(0.99 1)">400</text><text class="cls-2" transform="translate(3.99 190.71) scale(0.99 1)">600</text><text class="cls-2" transform="translate(3.99 118.71) scale(0.99 1)">800</text><text class="cls-3" transform="translate(49.16 436.71) scale(0.99 1)">2005</text><text class="cls-3" transform="translate(95.16 436.71) scale(0.99 1)">2006</text><text class="cls-3" transform="translate(137.16 435.71) scale(0.99 1)">2007</text><text class="cls-3" transform="translate(182.16 435.71) scale(0.99 1)">2008</text><text class="cls-3" transform="translate(226.16 435.71) scale(0.99 1)">2009</text><text class="cls-3" transform="translate(270.16 435.71) scale(0.99 1)">2010</text><text class="cls-3" transform="translate(315.03 435.71) scale(0.99 1)">20<tspan class="cls-4" x="17.8" y="0">1</tspan><tspan x="25.81" y="0">1</tspan></text><text class="cls-3" transform="translate(358.16 435.71) scale(0.99 1)">2012</text><text class="cls-3" transform="translate(404.16 435.71) scale(0.99 1)">2013</text><text class="cls-3" transform="translate(446.16 436.71) scale(0.99 1)">2014</text><text class="cls-3" transform="translate(491.16 436.71) scale(0.99 1)">2015</text><text class="cls-2" transform="translate(5.16 45.71) scale(0.99 1)">1000</text><text class="cls-5" transform="translate(0.5 460.71) scale(0.99 1)">Fuente: Ministerio de Empleo</text><text class="cls-6" transform="translate(89.5 100.71) scale(0.99 1)">Actuaciones de <tspan x="0" y="15.6">Inspección de trabajo</tspan></text><text class="cls-6" transform="translate(329.5 87.71) scale(0.99 1)">Infracciones impuestas por <tspan x="0" y="15.6">Inspección de</tspan><tspan class="cls-7" x="80.22" y="15.6"> </tspan><tspan class="cls-8" x="83.6" y="15.6">T</tspan><tspan class="cls-9" x="91.06" y="15.6">rabajo</tspan></text><path class="cls-10" d="M8.85,66.83" transform="translate(-4 -18.31)"/><path class="cls-10" d="M8.85,431.83" transform="translate(-4 -18.31)"/><path class="cls-10" d="M54,431.83" transform="translate(-4 -18.31)"/><path class="cls-10" d="M8.85,431.83" transform="translate(-4 -18.31)"/><line class="cls-11" x1="4.85" y1="340.52" x2="525.36" y2="340.52"/><line class="cls-11" x1="4.85" y1="267.52" x2="525.36" y2="267.52"/><line class="cls-11" x1="4.85" y1="194.52" x2="525.36" y2="194.52"/><line class="cls-11" x1="4.85" y1="121.52" x2="525.36" y2="121.52"/><line class="cls-11" x1="4.85" y1="48.52" x2="525.36" y2="48.52"/><rect class="cls-12" x="52.94" y="375.2" width="31.77" height="1.46"/><rect class="cls-12" x="97.07" y="372.64" width="31.77" height="1.46"/><rect class="cls-12" x="141.2" y="379.94" width="31.77" height="2.56"/><rect class="cls-12" x="185.33" y="237.59" width="31.77" height="1.46"/><rect class="cls-12" x="229.46" y="118.24" width="31.77" height="1.46"/><rect class="cls-12" x="273.59" y="201.09" width="31.77" height="1.83"/><rect class="cls-12" x="317.71" y="229.56" width="31.77" height="2.19"/><rect class="cls-12" x="361.84" y="181.75" width="31.77" height="2.55"/><rect class="cls-12" x="405.97" y="162.04" width="31.77" height="2.92"/><rect class="cls-12" x="450.1" y="159.12" width="31.77" height="2.92"/><rect class="cls-12" x="494.23" y="54.73" width="31.77" height="2.56"/><g class="cls-13"><rect class="cls-14" x="52.94" y="376.66" width="31.77" height="36.86"/><rect class="cls-14" x="97.07" y="374.1" width="31.77" height="39.42"/><rect class="cls-14" x="141.2" y="382.5" width="31.77" height="31.02"/><rect class="cls-14" x="185.33" y="239.05" width="31.77" height="174.47"/><rect class="cls-14" x="229.46" y="119.7" width="31.77" height="293.82"/><rect class="cls-14" x="273.59" y="202.92" width="31.77" height="210.6"/><rect class="cls-14" x="317.71" y="231.75" width="31.77" height="181.77"/><rect class="cls-14" x="361.84" y="184.3" width="31.77" height="229.22"/><rect class="cls-14" x="405.97" y="164.96" width="31.77" height="248.56"/><rect class="cls-14" x="450.1" y="162.04" width="31.77" height="251.48"/><rect class="cls-14" x="494.23" y="57.28" width="31.77" height="356.24"/></g><text class="cls-15" transform="translate(47.75 22.31)">El acoso sexual en el ámbito laboral</text><polygon class="cls-16" points="427 447.96 523.44 447.96 523.44 462.62 427 462.62 427 447.96 427 447.96"/><path class="cls-17" d="M508.36,469.55h-3.7V470l1,.23v6.81a.81.81,0,0,1-.68.35,1.45,1.45,0,0,1-1.2-.88l-.92-1.65a1.91,1.91,0,0,0-1.69-1.14v-.12a2.26,2.26,0,0,0,2.33-2.1c0-1.42-1.29-2-2.78-2h-3.35V470l1.1.23v6.91h0l-1.26.24L494,468.83a4,4,0,0,1-1.13,1l.12.35-2.87,7-.86.23v.46h2.62v-.46l-.85-.22,1-2.56h2.66l.93,2.54-1,.24v.46H501v-.46l-1-.23V474a1.57,1.57,0,0,1,1.42,1l1.26,2.25a2,2,0,0,0,1.82,1.11,1.8,1.8,0,0,0,1.2-.49h2.85a4.28,4.28,0,0,0,4.39-4.16,4.17,4.17,0,0,0-4.47-4.16ZM492.23,474l1.12-3,1.08,3Zm8.23-.62h-.57v-3.1h.71a1.4,1.4,0,0,1,1.45,1.48,1.61,1.61,0,0,1-1.57,1.62Zm7.82,3.83h-1.18v-6.93h1.22c1.89,0,3,1.31,3,3.46s-1.21,3.46-3.08,3.46Z" transform="translate(-4 -18.31)"/><path class="cls-17" d="M447.71,477.17l-3.07-8.34a3.94,3.94,0,0,1-1.13,1l.12.35-2.85,7-.61.23-.18.46h2.54v-.46l-.85-.22,1-2.56h2.66l.93,2.54-1,.24v.46h3.42v-.46l-.91-.23Zm-4.87-3.2,1.13-3,1.08,3Z" transform="translate(-4 -18.31)"/><polygon class="cls-17" points="436.39 457.44 436.08 457.27 434.29 458.9 432.75 458.9 432.75 451.94 433.68 451.7 433.68 451.23 430.37 451.23 430.37 451.7 431.3 451.94 431.3 458.84 430.37 459.08 430.37 459.55 435.57 459.55 436.39 457.44 436.39 457.44"/><polygon class="cls-17" points="450.83 451.23 450.83 451.7 451.83 451.94 449.66 457.5 447.37 451.93 448.45 451.7 448.45 451.23 444.76 451.23 444.76 451.7 445.82 451.93 449.1 459.83 449.45 459.83 452.72 451.94 452.75 451.94 453.77 451.7 453.77 451.23 450.83 451.23 450.83 451.23"/><path class="cls-17" d="M487.6,469.55V470l1,.24s.07,4.12,0,5.16a2.1,2.1,0,0,1-2.14,2h-.11a2.07,2.07,0,0,1-2.24-2.13v-5.07l1-.22v-.46h-3.34V470l.95.23v5.11a3.07,3.07,0,0,0,3.3,2.91,3,3,0,0,0,3.3-2.91l.06-5.1,1-.24v-.46Z" transform="translate(-4 -18.31)"/><path class="cls-17" d="M523.7,477.15l-3.06-8.32a3.94,3.94,0,0,1-1.13,1l.12.35-2.86,7-.49.2-.66-.21v-6.94l1-.23v-.46h-3.48V470l1,.24v6.92l-1,.23v.46h5.3v-.46l-.85-.23,1-2.56h2.66l.93,2.54-1,.24v.46h3.43v-.46l-.92-.24ZM518.84,474l1.13-3,1.08,3Z" transform="translate(-4 -18.31)"/><path class="cls-17" d="M469.75,469.55V470l1,.24.06,5.44-5.21-6.14H463.4V470l1,.22.08,0-.07,6.88h0l-1,.24-3.14-8.56a4,4,0,0,1-1.1,1l.12.35-2.87,7-.86.23v.46h2.62v-.46l-.85-.22,1-2.56h2.66l.93,2.54-1,.24v.46h5.47v-.46l-1-.24-.12-6,6,7h.39l.08-7.9,1-.23v-.46ZM458.44,474l1.13-3,1.08,3Z" transform="translate(-4 -18.31)"/><path class="cls-17" d="M478.52,473.61v.46l.94.24V477a3.11,3.11,0,0,1-1.88.62c-1.89,0-3.1-1.57-3.1-3.79s1.18-4,3.14-4a3,3,0,0,1,2.78,2.26l.27-.16v-2.62l-.24-.13-.52.64a5.24,5.24,0,0,0-2.3-.59,4.65,4.65,0,0,0-4.66,4.58,4.22,4.22,0,0,0,4,4.43h.3a4.29,4.29,0,0,0,2.68-.89l.73.49h.24V474.3l.79-.3v-.38Z" transform="translate(-4 -18.31)"/><path class="cls-18" d="M398,94s17.5-58.19,91.17-23.63" transform="translate(-4 -18.31)"/><polygon class="cls-19" points="491.5 55.19 480.78 54.46 484.69 51.85 484.36 47.16 491.5 55.19"/><path class="cls-18" d="M145.5,146.5s28.34,57.59,76.27,45.17" transform="translate(-4 -18.31)"/><polygon class="cls-19" points="224.5 171.19 216.19 178 217.25 173.42 213.79 170.23 224.5 171.19"/></svg>