<svg id="033f0748-3f0b-4100-a909-295ea90fab36" data-name="Capa 1" xmlns="http://www.w3.org/2000/svg" viewBox="0 0 532 428"><defs><style>.\38 5bbcb58-48d9-48a0-b455-f3ce19cdfeb7,.\39 bf9e5d9-aa87-41d9-b0ed-ffea7e32ffb6,.b42b56af-ad61-421b-a6e9-707984a87b99{fill:none;stroke-miterlimit:10;}.\38 5bbcb58-48d9-48a0-b455-f3ce19cdfeb7{stroke:#757575;}.\32 3bb43dd-8bd0-4a0e-b546-4baa5b7a1587,.\34 d9b3218-2b1b-4477-9970-2a3e6291dcba{fill:#991d26;}.\32 3bb43dd-8bd0-4a0e-b546-4baa5b7a1587,.\35 2d9619e-fce6-428b-a58c-ca4255d8f1dd,.\35 a69a349-eb1c-4698-8fcf-87f6c81f33df,.\36 f002801-dc32-4dcb-beb9-52a4a0aa63c7,.\37 6025c59-ac5f-46c7-b884-81a9b6251188,.dcdad97a-c3f1-4399-9524-354c44a7ede8,.fbe98eca-6894-46ae-a461-7784e8097299{opacity:0.76;}.\36 f002801-dc32-4dcb-beb9-52a4a0aa63c7,.c58251db-7869-4d7b-9abb-621bfd4683b3{fill:#59a5a5;}.\35 2d9619e-fce6-428b-a58c-ca4255d8f1dd{fill:#3f4d78;}.\35 a69a349-eb1c-4698-8fcf-87f6c81f33df{fill:#efb21b;}.\37 6025c59-ac5f-46c7-b884-81a9b6251188,.c26f7dec-7202-4313-808e-a5d4197894b1{fill:#ffe600;}.c03c01ea-e1f8-4cd1-8a90-21a6e8bdf796,.fbe98eca-6894-46ae-a461-7784e8097299{fill:#d57928;}.\34 660966f-9129-479b-906e-455048efa973,.dcdad97a-c3f1-4399-9524-354c44a7ede8{fill:#8e244f;}.\33 2640f4f-82ea-40e1-81eb-299f6c94dea0{font-size:16px;}.\32 9d6812a-8fff-4c5d-b416-8d069a4d0d97,.\33 2640f4f-82ea-40e1-81eb-299f6c94dea0,.\38 40b94be-7996-4eb6-9039-76f4b5a17e87,.\38 cda388f-ae8e-44e1-b908-7a5d8f7ef3d7{fill:#323232;}.\33 2640f4f-82ea-40e1-81eb-299f6c94dea0,.\38 40b94be-7996-4eb6-9039-76f4b5a17e87,.\38 cda388f-ae8e-44e1-b908-7a5d8f7ef3d7,.c035641e-8388-4790-bb19-86f52347ebdd{font-family:Arial-BoldMT, Arial;}.\33 2640f4f-82ea-40e1-81eb-299f6c94dea0,.\38 40b94be-7996-4eb6-9039-76f4b5a17e87,.\38 cb9f03b-16b8-4794-bfc6-3ce1ded0b0d9,.\38 cda388f-ae8e-44e1-b908-7a5d8f7ef3d7,.\38 fe0fcf7-f6b8-4755-a01a-4cbc1bdc3a55,.\39 11f98a7-73d8-4857-aa83-073f4c72d837,.ae0f2076-89aa-4c9f-aa78-5f56933a3f71,.ef71f339-a9f4-4763-8e1e-ce72655df28f{font-weight:700;}.\32 9d6812a-8fff-4c5d-b416-8d069a4d0d97,.\38 cda388f-ae8e-44e1-b908-7a5d8f7ef3d7,.c035641e-8388-4790-bb19-86f52347ebdd{font-size:15px;}.\38 40b94be-7996-4eb6-9039-76f4b5a17e87{font-size:26px;}.\30 aec8b21-8f27-4ec3-8238-e04063e4833d,.\32 9d6812a-8fff-4c5d-b416-8d069a4d0d97,.\35 af35bba-4955-46d6-bdfc-17575953fbd7,.\38 ae1c59c-22be-4c0a-b6fb-c55350918b07,.c81c7199-10ff-478b-8c04-b84e3877e966{font-family:ArialMT, Arial;}.c81c7199-10ff-478b-8c04-b84e3877e966{font-size:13px;}.c035641e-8388-4790-bb19-86f52347ebdd,.c81c7199-10ff-478b-8c04-b84e3877e966{fill:#757575;}.a0510248-d622-4dd0-aa77-f3a356fa0147{fill:#283659;}.\32 137f0f6-d484-4cac-b3ba-a81b7dc3acc2{fill:#fff;}.\35 af35bba-4955-46d6-bdfc-17575953fbd7,.ae0f2076-89aa-4c9f-aa78-5f56933a3f71{letter-spacing:0em;}.\38 fe0fcf7-f6b8-4755-a01a-4cbc1bdc3a55{letter-spacing:-0.02em;}.\30 aec8b21-8f27-4ec3-8238-e04063e4833d,.\39 11f98a7-73d8-4857-aa83-073f4c72d837{letter-spacing:0em;}.\38 cb9f03b-16b8-4794-bfc6-3ce1ded0b0d9{letter-spacing:-0.07em;}.\39 bf9e5d9-aa87-41d9-b0ed-ffea7e32ffb6,.b42b56af-ad61-421b-a6e9-707984a87b99{stroke:#323232;}.b42b56af-ad61-421b-a6e9-707984a87b99{stroke-dasharray:4.97 4.97;}.\30 c3319a7-d13f-4e15-b3fe-bbab42b66e1e{opacity:0.49;}.\37 236362d-bbf6-4419-8fac-0158ca3426d8{fill:#159094;}</style></defs><title>2017.11_Metaencuesta</title><line class="85bbcb58-48d9-48a0-b455-f3ce19cdfeb7" x1="357.18" y1="139.55" x2="266.5" y2="139.55"/><line class="85bbcb58-48d9-48a0-b455-f3ce19cdfeb7" x1="230.18" y1="139.55" x2="124.42" y2="139.55"/><rect class="23bb43dd-8bd0-4a0e-b546-4baa5b7a1587" x="273.82" y="165" width="67.85" height="48"/><rect class="6f002801-dc32-4dcb-beb9-52a4a0aa63c7" x="432.53" y="165.15" width="34.47" height="47.52"/><rect class="52d9619e-fce6-428b-a58c-ca4255d8f1dd" x="150.42" y="164.91" width="56.72" height="48"/><rect class="5a69a349-eb1c-4698-8fcf-87f6c81f33df" x="37" y="164.91" width="113.01" height="48"/><rect class="76025c59-ac5f-46c7-b884-81a9b6251188" x="206.77" y="164.91" width="26.18" height="48"/><polygon class="fbe98eca-6894-46ae-a461-7784e8097299" points="432.62 165.06 432.62 212.76 341.85 212.76 341.85 165.14 432.62 165.06"/><rect class="dcdad97a-c3f1-4399-9524-354c44a7ede8" x="232.8" y="164.91" width="41.1" height="48"/><text class="32640f4f-82ea-40e1-81eb-299f6c94dea0" transform="translate(37.19 94.42) scale(0.99 1)">Promedio de las encuestas en el 21-D</text><text class="8cda388f-ae8e-44e1-b908-7a5d8f7ef3d7" transform="translate(36.19 246.42) scale(0.99 1)">Porcentaje de voto en el 27-S</text><text class="840b94be-7996-4eb6-9039-76f4b5a17e87" transform="translate(25.34 20.62)">Porcentaje de voto según los sondeos</text><text class="29d6812a-8fff-4c5d-b416-8d069a4d0d97" transform="translate(52.05 43.74)">Comparación del promedio de las encuestas para el 21-D con <tspan x="80.04" y="18">el resultado de las elecciones del 27S</tspan></text><text class="c81c7199-10ff-478b-8c04-b84e3877e966" transform="translate(9.5 419.02) scale(0.99 1)">Fuente: Electrograph</text><polygon class="a0510248-d622-4dd0-aa77-f3a356fa0147" points="432 402.27 528.44 402.27 528.44 416.93 432 416.93 432 402.27 432 402.27"/><path class="2137f0f6-d484-4cac-b3ba-a81b7dc3acc2" d="M509.36,405.55h-3.7V406l1,.23v6.81a.81.81,0,0,1-.68.35,1.45,1.45,0,0,1-1.2-.88l-.92-1.65a1.91,1.91,0,0,0-1.69-1.14v-.12a2.26,2.26,0,0,0,2.33-2.1c0-1.42-1.29-2-2.78-2h-3.35V406l1.1.23v6.91h0l-1.26.24L495,404.83a4,4,0,0,1-1.13,1l.12.35-2.87,7-.86.23v.46h2.62v-.46l-.85-.22,1-2.56h2.66l.93,2.54-1,.24v.46H502v-.46l-1-.23V410a1.57,1.57,0,0,1,1.42,1l1.26,2.25a2,2,0,0,0,1.82,1.11,1.8,1.8,0,0,0,1.2-.49h2.85a4.28,4.28,0,0,0,4.39-4.16,4.17,4.17,0,0,0-4.47-4.16ZM493.23,410l1.12-3,1.08,3Zm8.23-.62h-.57v-3.1h.71a1.4,1.4,0,0,1,1.45,1.48,1.61,1.61,0,0,1-1.57,1.62Zm7.82,3.83h-1.18v-6.93h1.22c1.89,0,3,1.31,3,3.46s-1.21,3.46-3.08,3.46Z"/><path class="2137f0f6-d484-4cac-b3ba-a81b7dc3acc2" d="M448.71,413.17l-3.07-8.34a3.94,3.94,0,0,1-1.13,1l.12.35-2.85,7-.61.23-.18.46h2.54v-.46l-.85-.22,1-2.56h2.66l.93,2.54-1,.24v.46h3.42v-.46l-.91-.23Zm-4.87-3.2,1.13-3,1.08,3Z"/><polygon class="2137f0f6-d484-4cac-b3ba-a81b7dc3acc2" points="441.39 411.75 441.08 411.58 439.29 413.21 437.75 413.21 437.75 406.25 438.68 406.01 438.68 405.54 435.37 405.54 435.37 406.01 436.3 406.25 436.3 413.15 435.37 413.39 435.37 413.86 440.57 413.86 441.39 411.75 441.39 411.75"/><polygon class="2137f0f6-d484-4cac-b3ba-a81b7dc3acc2" points="455.83 405.54 455.83 406.01 456.83 406.25 454.66 411.81 452.37 406.24 453.45 406.01 453.45 405.54 449.76 405.54 449.76 406.01 450.82 406.24 454.1 414.14 454.45 414.14 457.72 406.25 457.75 406.25 458.77 406.01 458.77 405.54 455.83 405.54 455.83 405.54"/><path class="2137f0f6-d484-4cac-b3ba-a81b7dc3acc2" d="M488.6,405.55V406l1,.24s.07,4.12,0,5.16a2.1,2.1,0,0,1-2.14,2h-.11a2.07,2.07,0,0,1-2.24-2.13v-5.07l1-.22v-.46h-3.34V406l.95.23v5.11a3.07,3.07,0,0,0,3.3,2.91,3,3,0,0,0,3.3-2.91l.06-5.1,1-.24v-.46Z"/><path class="2137f0f6-d484-4cac-b3ba-a81b7dc3acc2" d="M524.7,413.15l-3.06-8.32a3.94,3.94,0,0,1-1.13,1l.12.35-2.86,7-.49.2-.66-.21v-6.94l1-.23v-.46h-3.48V406l1,.24v6.92l-1,.23v.46h5.3v-.46l-.85-.23,1-2.56h2.66l.93,2.54-1,.24v.46h3.43v-.46l-.92-.24ZM519.84,410l1.13-3,1.08,3Z"/><path class="2137f0f6-d484-4cac-b3ba-a81b7dc3acc2" d="M470.75,405.55V406l1,.24.06,5.44-5.21-6.14H464.4V406l1,.22.08,0-.07,6.88h0l-1,.24-3.14-8.56a4,4,0,0,1-1.1,1l.12.35-2.87,7-.86.23v.46h2.62v-.46l-.85-.22,1-2.56h2.66l.93,2.54-1,.24v.46h5.47v-.46l-1-.24-.12-6,6,7h.39l.08-7.9,1-.23v-.46ZM459.44,410l1.13-3,1.08,3Z"/><path class="2137f0f6-d484-4cac-b3ba-a81b7dc3acc2" d="M479.52,409.61v.46l.94.24V413a3.11,3.11,0,0,1-1.88.62c-1.89,0-3.1-1.57-3.1-3.79s1.18-4,3.14-4a3,3,0,0,1,2.78,2.26l.27-.16v-2.62l-.24-.13-.52.64a5.24,5.24,0,0,0-2.3-.59,4.65,4.65,0,0,0-4.66,4.58,4.22,4.22,0,0,0,4,4.43h.3a4.29,4.29,0,0,0,2.68-.89l.73.49h.24V410.3l.79-.3v-.38Z"/><text class="c035641e-8388-4790-bb19-86f52347ebdd" transform="translate(54.36 159.06) rotate(-0.14)"><tspan class="ef71f339-a9f4-4763-8e1e-ce72655df28f">ERC </tspan><tspan class="5af35bba-4955-46d6-bdfc-17575953fbd7" x="35.84" y="0">25,8</tspan></text><text class="c035641e-8388-4790-bb19-86f52347ebdd" transform="translate(74.76 281.06) rotate(-0.14)"><tspan class="ef71f339-a9f4-4763-8e1e-ce72655df28f">JxSÍ </tspan><tspan class="8ae1c59c-22be-4c0a-b6fb-c55350918b07" x="35.02" y="0">39,5</tspan></text><text class="c035641e-8388-4790-bb19-86f52347ebdd" transform="translate(191.66 281.05) rotate(-0.14)"><tspan class="ef71f339-a9f4-4763-8e1e-ce72655df28f">CU</tspan><tspan class="8fe0fcf7-f6b8-4755-a01a-4cbc1bdc3a55" x="21.67" y="0">P</tspan><tspan class="911f98a7-73d8-4857-aa83-073f4c72d837" x="31.4" y="0"> </tspan><tspan class="8ae1c59c-22be-4c0a-b6fb-c55350918b07" x="35.57" y="0">8,2</tspan></text><text class="c035641e-8388-4790-bb19-86f52347ebdd" transform="translate(428.49 281.03) rotate(-0.14)"><tspan class="ef71f339-a9f4-4763-8e1e-ce72655df28f">P</tspan><tspan class="8fe0fcf7-f6b8-4755-a01a-4cbc1bdc3a55" x="10" y="0">P</tspan><tspan class="ef71f339-a9f4-4763-8e1e-ce72655df28f" x="19.74" y="0"> </tspan><tspan class="8ae1c59c-22be-4c0a-b6fb-c55350918b07" x="23.91" y="0">8,5</tspan></text><text class="c035641e-8388-4790-bb19-86f52347ebdd" transform="translate(358.6 281.04) rotate(-0.14)"><tspan class="ef71f339-a9f4-4763-8e1e-ce72655df28f">Cs </tspan><tspan class="8ae1c59c-22be-4c0a-b6fb-c55350918b07" x="23.34" y="0">17,9</tspan></text><text class="c035641e-8388-4790-bb19-86f52347ebdd" transform="translate(284.77 281.06) rotate(-0.14)"><tspan class="ef71f339-a9f4-4763-8e1e-ce72655df28f">PSC </tspan><tspan class="8ae1c59c-22be-4c0a-b6fb-c55350918b07" x="35.01" y="0">12,7</tspan></text><text class="c035641e-8388-4790-bb19-86f52347ebdd" transform="translate(297.24 259.06) rotate(-0.14)"><tspan class="ef71f339-a9f4-4763-8e1e-ce72655df28f">CSQ</tspan><tspan class="8fe0fcf7-f6b8-4755-a01a-4cbc1bdc3a55" x="32.5" y="0">P</tspan><tspan class="911f98a7-73d8-4857-aa83-073f4c72d837" x="42.24" y="0"> </tspan><tspan class="8ae1c59c-22be-4c0a-b6fb-c55350918b07" x="46.41" y="0">8,9</tspan></text><text class="c035641e-8388-4790-bb19-86f52347ebdd" transform="translate(146.99 159.07) rotate(-0.14)"><tspan class="ef71f339-a9f4-4763-8e1e-ce72655df28f">JxC</tspan><tspan class="8cb9f03b-16b8-4794-bfc6-3ce1ded0b0d9" x="27.52" y="0">A</tspan><tspan class="ef71f339-a9f4-4763-8e1e-ce72655df28f" x="37.24" y="0">T </tspan><tspan class="8ae1c59c-22be-4c0a-b6fb-c55350918b07" x="50.57" y="0">13,3</tspan></text><text class="c035641e-8388-4790-bb19-86f52347ebdd" transform="translate(289.99 135.06) rotate(-0.14)"><tspan class="ef71f339-a9f4-4763-8e1e-ce72655df28f">CeC-</tspan><tspan class="8fe0fcf7-f6b8-4755-a01a-4cbc1bdc3a55" x="35" y="0">P</tspan><tspan class="ae0f2076-89aa-4c9f-aa78-5f56933a3f71" x="44.74" y="0"> </tspan><tspan class="0aec8b21-8f27-4ec3-8238-e04063e4833d" x="48.9" y="0">8,7</tspan></text><text class="c035641e-8388-4790-bb19-86f52347ebdd" transform="translate(124.66 135.05) rotate(-0.14)"><tspan class="ef71f339-a9f4-4763-8e1e-ce72655df28f">CU</tspan><tspan class="8fe0fcf7-f6b8-4755-a01a-4cbc1bdc3a55" x="21.67" y="0">P</tspan><tspan class="911f98a7-73d8-4857-aa83-073f4c72d837" x="31.4" y="0"> </tspan><tspan class="8ae1c59c-22be-4c0a-b6fb-c55350918b07" x="35.57" y="0">5,9</tspan></text><text class="c035641e-8388-4790-bb19-86f52347ebdd" transform="translate(282.02 159.04) rotate(-0.14)"><tspan class="ef71f339-a9f4-4763-8e1e-ce72655df28f">PSC </tspan><tspan class="8ae1c59c-22be-4c0a-b6fb-c55350918b07" x="35.01" y="0">15</tspan></text><text class="c035641e-8388-4790-bb19-86f52347ebdd" transform="translate(356.6 159.04) rotate(-0.14)"><tspan class="ef71f339-a9f4-4763-8e1e-ce72655df28f">Cs </tspan><tspan class="8ae1c59c-22be-4c0a-b6fb-c55350918b07" x="23.34" y="0">20,8</tspan></text><text class="c035641e-8388-4790-bb19-86f52347ebdd" transform="translate(431.49 159.03) rotate(-0.14)"><tspan class="ef71f339-a9f4-4763-8e1e-ce72655df28f">P</tspan><tspan class="8fe0fcf7-f6b8-4755-a01a-4cbc1bdc3a55" x="10" y="0">P</tspan><tspan class="ef71f339-a9f4-4763-8e1e-ce72655df28f" x="19.74" y="0"> </tspan><tspan class="8ae1c59c-22be-4c0a-b6fb-c55350918b07" x="23.91" y="0">7,7</tspan></text><text class="c035641e-8388-4790-bb19-86f52347ebdd" transform="translate(213.77 389.08) scale(0.99 1)"><tspan class="ef71f339-a9f4-4763-8e1e-ce72655df28f">50%</tspan><tspan class="8ae1c59c-22be-4c0a-b6fb-c55350918b07" x="30.02" y="0" xml:space="preserve"> de los votos</tspan></text><line class="9bf9e5d9-aa87-41d9-b0ed-ffea7e32ffb6" x1="256.5" y1="85" x2="256.5" y2="87.5"/><line class="b42b56af-ad61-421b-a6e9-707984a87b99" x1="256.5" y1="92.47" x2="256.5" y2="368.51"/><line class="9bf9e5d9-aa87-41d9-b0ed-ffea7e32ffb6" x1="256.5" y1="371" x2="256.5" y2="373.5"/><path class="2137f0f6-d484-4cac-b3ba-a81b7dc3acc2" d="M538.7,413.15l-3.06-8.32a3.94,3.94,0,0,1-1.13,1l.12.35-2.86,7-.49.2-.66-.21v-6.94l1-.23v-.46h-3.48V406l1,.24v6.92l-1,.23v.46h5.3v-.46l-.85-.23,1-2.56h2.66l.93,2.54-1,.24v.46h3.43v-.46l-.92-.24ZM533.84,410l1.13-3,1.08,3Z"/><g class="0c3319a7-d13f-4e15-b3fe-bbab42b66e1e"><rect class="c58251db-7869-4d7b-9abb-621bfd4683b3" x="428.88" y="287.9" width="38.12" height="48.1"/></g><g class="0c3319a7-d13f-4e15-b3fe-bbab42b66e1e"><rect class="c03c01ea-e1f8-4cd1-8a90-21a6e8bdf796" x="348.2" y="287.9" width="80.4" height="48.1"/></g><g class="0c3319a7-d13f-4e15-b3fe-bbab42b66e1e"><rect class="4d9b3218-2b1b-4477-9970-2a3e6291dcba" x="290.85" y="287.9" width="57.13" height="48.1"/></g><g class="0c3319a7-d13f-4e15-b3fe-bbab42b66e1e"><rect class="4660966f-9129-479b-906e-455048efa973" x="250.84" y="287.9" width="40.09" height="48.1"/></g><g class="0c3319a7-d13f-4e15-b3fe-bbab42b66e1e"><rect class="c26f7dec-7202-4313-808e-a5d4197894b1" x="214.17" y="287.9" width="36.77" height="48.1"/></g><g class="0c3319a7-d13f-4e15-b3fe-bbab42b66e1e"><rect class="7236362d-bbf6-4419-8fac-0158ca3426d8" x="36.8" y="287.9" width="177.31" height="48.1"/></g><line class="85bbcb58-48d9-48a0-b455-f3ce19cdfeb7" x1="266.42" y1="139.8" x2="266.42" y2="163.79"/><line class="85bbcb58-48d9-48a0-b455-f3ce19cdfeb7" x1="365.18" y1="263.55" x2="274.5" y2="263.55"/><line class="85bbcb58-48d9-48a0-b455-f3ce19cdfeb7" x1="274.42" y1="263.8" x2="274.42" y2="287.79"/><line class="85bbcb58-48d9-48a0-b455-f3ce19cdfeb7" x1="230.42" y1="139.8" x2="230.42" y2="163.79"/></svg>