<svg id="Capa_1" data-name="Capa 1" xmlns="http://www.w3.org/2000/svg" viewBox="0 0 678.71 597.59"><defs><style>.cls-1,.cls-2,.cls-3,.cls-4,.cls-5,.cls-6{fill:none;stroke-miterlimit:10;}.cls-1,.cls-6{stroke:#757575;}.cls-1{stroke-width:0.5px;}.cls-2{stroke:#3f4d78;}.cls-2,.cls-3,.cls-4,.cls-5{stroke-width:2px;}.cls-3{stroke:#89d2d8;}.cls-4{stroke:#6e79a2;}.cls-5{stroke:#a01f51;}.cls-7{isolation:isolate;font-size:14px;fill:#757575;font-family:ArialMT, Arial;}.cls-8{letter-spacing:-0.04em;}.cls-9{letter-spacing:-0.07em;}.cls-10{letter-spacing:-0.02em;}.cls-11{font-size:25px;fill:#323232;}.cls-11,.cls-12,.cls-13,.cls-14,.cls-15,.cls-18{font-family:Arial-BoldMT, Arial;font-weight:700;}.cls-12,.cls-13,.cls-14,.cls-15{font-size:20px;}.cls-12{fill:#89d2d8;}.cls-13{fill:#6e79a2;}.cls-14{fill:#3f4d78;}.cls-15{fill:#a01f51;}.cls-16{fill:#283659;}.cls-17{fill:#fff;}.cls-18{font-size:17px;}</style></defs><title>2017.09_graficoembalses</title><line class="cls-1" x1="2.37" y1="389.17" x2="654.42" y2="389.17"/><line class="cls-1" x1="0.33" y1="303.68" x2="654.4" y2="303.68"/><line class="cls-1" x1="0.33" y1="224.18" x2="654.39" y2="224.18"/><line class="cls-1" x1="0.33" y1="137.19" x2="654.37" y2="137.19"/><line class="cls-1" x1="0.33" y1="54.69" x2="654.36" y2="54.69"/><path class="cls-2" d="M43.57,336.08h16.9l22.42,7h9l19.32-29,14.14-28,5.86-10,26.56-13,17.59-6s13.11,5,14.83,5,6.21-5,6.21-5h20.35L265,277l24.49-3L354,318.06l36.57,32L432,393.17l40,30,32.43,22,25.18,12" transform="translate(-7 -11.09)"/><polyline class="cls-3" points="36 145.03 64.75 145.03 97.31 110.98 109.09 110.98 129.18 94.96 144.42 84.94 154.12 94.96 165.9 94.96 174.9 84.94 187.37 74.93 193.61 74.93 210.23 74.93 226.86 74.93 238.64 74.93 251.7 64.91 265.55 64.91 280.03 78.94 312.77 104.97 352.25 145.03 379.97 185.09 394.51 195.1 431.23 233.16 458.94 261.2 485.96 273.22 492.89 273.22 509.52 287.24 562.86 287.24 569.79 275.22 591.96 277.23 597.5 287.24 605.12 287.24 609.97 273.22 613.43 277.23 618.98 287.24 655 287.24"/><polyline class="cls-4" points="36.57 277.26 60.98 215.17 65.8 215.17 92.62 215.17 108.44 193.14 120.13 179.12 137.33 179.12 151.77 165.1 162.09 171.77 172.63 173.11 183.64 165.1 206.56 150.41 229.03 126.38 255.17 126.38 265.25 102.34 283.6 102.34 295.98 102.34 328.07 125.04 361.55 157.09 394.56 198.48 415.65 230.53 450.04 269.25 475.26 303.97 493.14 315.99 517.44 332.01 542.66 349.37 563.29 357.38 594.48 357.38 606.4 337.35 617.4 330.67 626.11 329.34 655 328"/><polyline class="cls-5" points="36.57 252.56 67.63 229.86 79.09 221.85 93.31 213.84 104.31 201.82 121.28 191.14 132.74 180.45 146.04 169.77 152.46 169.77 168.05 160.42 186.39 160.42 194.64 147.07 201.52 147.07 223.53 138.06 235.91 138.06 244.16 128.38 257.46 120.37 278.84 120.37 300.56 129.71 325.78 138.06 348.53 149.74 373.47 175.11 420.69 229.86 458.75 275.26 484.43 293.95 512.4 305.97 542.66 315.32 569.26 308.64 590.81 301.96 613.27 295.29 627.95 285.94 651.1 280.6 655 281.94"/><line class="cls-6" x1="1.01" y1="473.53" x2="655" y2="473.99"/><line class="cls-6" x1="36" y1="472.99" x2="36" y2="486.71"/><line class="cls-6" x1="89.68" y1="473.99" x2="89.68" y2="487.71"/><line class="cls-6" x1="140.91" y1="473.98" x2="140.91" y2="487.71"/><line class="cls-6" x1="193.6" y1="473.52" x2="193.6" y2="487.25"/><line class="cls-6" x1="244.83" y1="473.59" x2="244.83" y2="486.78"/><line class="cls-6" x1="296.54" y1="473.59" x2="296.54" y2="486.79"/><line class="cls-6" x1="349.73" y1="473.59" x2="349.73" y2="486.78"/><line class="cls-6" x1="401.45" y1="473.59" x2="401.45" y2="486.78"/><line class="cls-6" x1="454.14" y1="474.05" x2="454.14" y2="487.24"/><line class="cls-6" x1="505.86" y1="473.52" x2="505.86" y2="487.24"/><line class="cls-6" x1="559.05" y1="473.52" x2="559.05" y2="487.25"/><line class="cls-6" x1="610.76" y1="473.52" x2="610.76" y2="487.25"/><text class="cls-7" transform="translate(66.98 528.12) rotate(-90)">ENERO</text><text class="cls-7" transform="translate(3 593.04)">Fuente: Embalses.net</text><text class="cls-7" transform="translate(119.65 546.12) rotate(-90)">FEBRERO</text><text class="cls-7" transform="translate(3 385.85)">25.000</text><text class="cls-7" transform="translate(2 469.18)">20.000</text><text class="cls-7" transform="translate(0 301.52)">30.000</text><text class="cls-7" transform="translate(2 220.43)">35.000</text><text class="cls-7" transform="translate(0 133.77)">40.000</text><text class="cls-7" transform="translate(0 51.77)">45.000</text><text class="cls-7" transform="translate(170.31 531.12) rotate(-90)">MARZO</text><text class="cls-7" transform="translate(224.98 529.12) rotate(-90)">ABRI<tspan class="cls-8" x="32.68" y="0">L</tspan></text><text class="cls-7" transform="translate(273.42 527.12) rotate(-90)">M<tspan class="cls-9" x="11.66" y="0">A</tspan><tspan x="19.96" y="0">YO</tspan></text><text class="cls-7" transform="translate(326.42 527.79) rotate(-90)">JUNIO</text><text class="cls-7" transform="translate(379.75 526.12) rotate(-90)">JULIO</text><text class="cls-7" transform="translate(429.75 537.45) rotate(-90)">AGOS<tspan class="cls-10" x="40.46" y="0">T</tspan><tspan x="48.75" y="0">O</tspan></text><text class="cls-7" transform="translate(483.75 570.45) rotate(-90)">SEPTIEMBRE</text><text class="cls-7" transform="translate(538.42 549.45) rotate(-90)">OCTUBRE</text><text class="cls-7" transform="translate(587.08 563.12) rotate(-90)">NOVIEMBRE</text><text class="cls-7" transform="translate(639.32 558.12) rotate(-90)">DICIEMBRE</text><line class="cls-6" x1="655" y1="473.99" x2="655" y2="487.71"/><text class="cls-11" transform="translate(32.72 25.31)">Evolución del agua embalsada en España en hm</text><text class="cls-12" transform="translate(611.49 315.04)">2015</text><text class="cls-13" transform="translate(609.8 355.53)">2016</text><text class="cls-14" transform="translate(609.49 450.95)">2017</text><text class="cls-15" transform="translate(597.3 261.22)">Media</text><polygon class="cls-16" points="530.3 576.98 658.3 576.98 658.3 596.43 530.3 596.43 530.3 576.98 530.3 576.98"/><path class="cls-17" d="M640,592.42h-4.9V593l1.29.31v9a1.07,1.07,0,0,1-.9.46,1.92,1.92,0,0,1-1.59-1.17l-1.22-2.19a2.54,2.54,0,0,0-2.24-1.51v-.15a3,3,0,0,0,3.1-2.78c0-1.89-1.71-2.62-3.69-2.62h-4.45V593l1.45.31v9.18h0l-1.67.32L621,591.43a5.24,5.24,0,0,1-1.5,1.29l.16.46-3.81,9.32-1.15.31v.61h3.47v-.61l-1.13-.29,1.29-3.39h3.53l1.24,3.37-1.33.32v.61h8.4v-.61l-1.39-.3v-4.25a2.09,2.09,0,0,1,1.88,1.39l1.67,3a2.71,2.71,0,0,0,2.42,1.47,2.39,2.39,0,0,0,1.59-.65h3.83A5.68,5.68,0,0,0,646,598c0-3.21-2.49-5.52-5.93-5.52Zm-21.41,5.86,1.49-3.92,1.43,3.92Zm10.92-.83h-.75v-4.08h.94a1.86,1.86,0,0,1,1.93,2,2.14,2.14,0,0,1-2.09,2.15Zm10.38,5.09H638.3v-9.17h1.61c2.5,0,4,1.73,4,4.6s-1.6,4.6-4.08,4.6Z" transform="translate(-7 -11.09)"/><path class="cls-17" d="M559.48,602.54l-4.08-11.08a5.23,5.23,0,0,1-1.5,1.29l.16.46-3.78,9.32-.81.31-.24.61h3.37v-.61l-1.13-.29,1.29-3.39h3.53l1.24,3.37-1.33.32v.61h4.54v-.61l-1.21-.3ZM553,598.29l1.5-3.92,1.43,3.92Z" transform="translate(-7 -11.09)"/><polygon class="cls-17" points="542.76 589.56 542.35 589.33 539.97 591.5 537.93 591.5 537.93 582.25 539.16 581.94 539.16 581.32 534.77 581.32 534.77 581.94 536 582.25 536 591.42 534.77 591.74 534.77 592.35 541.67 592.35 542.76 589.56 542.76 589.56"/><polygon class="cls-17" points="561.93 581.32 561.93 581.94 563.26 582.25 560.37 589.63 557.34 582.24 558.77 581.94 558.77 581.32 553.87 581.32 553.87 581.94 555.27 582.25 559.63 592.74 560.09 592.74 564.43 582.26 564.47 582.26 565.82 581.94 565.82 581.32 561.93 581.32 561.93 581.32"/><path class="cls-17" d="M612.41,592.42V593l1.32.31s.1,5.47,0,6.85a2.78,2.78,0,0,1-2.84,2.72h-.14a2.74,2.74,0,0,1-3-2.83v-6.71l1.28-.29v-.61H604.6v.61l1.26.3v6.78a4.07,4.07,0,0,0,4.26,3.87h.12c2.42,0,4.3-1.39,4.38-3.86l.08-6.77,1.29-.31v-.61Z" transform="translate(-7 -11.09)"/><path class="cls-17" d="M660.34,602.52l-4.06-11a5.23,5.23,0,0,1-1.5,1.29l.16.46-3.78,9.3-.65.26-.88-.28v-9.18l1.35-.31v-.61h-4.62v.61l1.34.31v9.18l-1.28.3v.61h7v-.61l-1.13-.3,1.29-3.39h3.58l1.24,3.37-1.33.32v.61h4.55v-.61l-1.22-.32Zm-6.46-4.23,1.5-3.92,1.43,3.92Z" transform="translate(-7 -11.09)"/><path class="cls-17" d="M588.72,592.42V593l1.35.31.08,7.21-6.91-8.18h-3V593l1.34.29.11.06-.1,9.13h0l-1.39.32-4.17-11.37a5.24,5.24,0,0,1-1.45,1.29l.16.46L571,602.48l-1.15.31v.61h3.48v-.61l-1.13-.29,1.29-3.39H577l1.24,3.37-1.33.32v.61h7.25v-.61l-1.39-.31-.16-8,7.9,9.29H591l.13-10.41,1.34-.31v-.61Zm-15,5.86,1.44-3.91,1.43,3.92Z" transform="translate(-7 -11.09)"/><path class="cls-17" d="M600.36,597.81v.61l1.25.31v3.55a4.13,4.13,0,0,1-2.49.83c-2.5,0-4.11-2.09-4.11-5s1.57-5.26,4.17-5.26a3.93,3.93,0,0,1,3.69,3l.35-.21v-3.48l-.32-.17-.7.85a7,7,0,0,0-3-.78,6.18,6.18,0,0,0-6.19,6.08,5.61,5.61,0,0,0,5.32,5.88h.4a5.7,5.7,0,0,0,3.55-1.18l1,.65h.31v-4.74l1-.4v-.51Z" transform="translate(-7 -11.09)"/><text class="cls-18" transform="translate(609.33 14.58)">3</text></svg>