<svg id="5f8e38aa-7f55-4023-9da2-430e731776b3" data-name="Capa 1" xmlns="http://www.w3.org/2000/svg" viewBox="0 0 532 468"><defs><style>.\31 4ca8549-c6eb-4b29-848c-ce3c6045d070{font-size:26px;}.\31 4ca8549-c6eb-4b29-848c-ce3c6045d070,.ade03718-3360-4ba0-97d5-d2b892feca64,.d02aedc5-a620-4dc1-bbd6-07323ecca502{fill:#323232;}.\31 4ca8549-c6eb-4b29-848c-ce3c6045d070,.\37 46222f8-10f1-4d92-8a94-e0117d532759,.\39 a5187c6-c9ef-4382-b16d-3d82127379f4,.ade03718-3360-4ba0-97d5-d2b892feca64{font-family:Arial-BoldMT, Arial;}.\31 4ca8549-c6eb-4b29-848c-ce3c6045d070,.\35 830a79a-d37a-4fd9-bb63-b1ebb4ba842c,.\37 46222f8-10f1-4d92-8a94-e0117d532759,.a8060fd5-b969-4b11-b880-3e2f3a896ef3,.ade03718-3360-4ba0-97d5-d2b892feca64,.b96d286b-23b1-4843-98d8-48ffd6c0da9f,.d31825d5-28dd-40ce-b78d-70fdd76bc136{font-weight:700;}.\39 a5187c6-c9ef-4382-b16d-3d82127379f4,.b4338d16-aeac-45b5-acd8-b4ec94aa42c9,.d02aedc5-a620-4dc1-bbd6-07323ecca502{font-size:15px;}.\32 cfd07c3-1379-4b62-9f51-30765ab567cc,.\36 b569341-12e4-4280-8260-bf3d83dbf7a9,.\39 67a1dc0-dd35-46df-9fdd-df4d81366d11,.\39 ab09122-b771-4b67-85e4-3b3b7cb5e6e4,.b4338d16-aeac-45b5-acd8-b4ec94aa42c9,.d02aedc5-a620-4dc1-bbd6-07323ecca502,.d74a0c33-7a7a-4976-a48f-a00089302581{font-family:ArialMT, Arial;}.d74a0c33-7a7a-4976-a48f-a00089302581{font-size:13px;}.\30 665cdc0-2810-490a-ab60-d913cdf18ddb,.\39 a5187c6-c9ef-4382-b16d-3d82127379f4,.b4338d16-aeac-45b5-acd8-b4ec94aa42c9,.d74a0c33-7a7a-4976-a48f-a00089302581{fill:#757575;}.\35 37d146e-3854-405e-8954-595b60779465{fill:#283659;}.\32 9cd977c-30aa-4e15-ad0f-4f483eef9d97,.\39 a084370-2864-4fa6-a0db-1c271689088d,.d3a2c918-b1c9-4f68-9e0d-6bc99829288f{fill:#fff;}.\33 3585533-0c31-457e-a89e-0248d5509467{fill:#efb21b;}.\33 3585533-0c31-457e-a89e-0248d5509467,.\34 f5752b0-def6-4dbb-9575-783e2bf6c903,.\35 aefee97-61b5-4723-a45f-c4e8f059f8f3,.\36 a6de613-c3fd-4728-b741-b7a8d69ed6c5,.\37 a6b7ccc-b78a-4bdc-9390-b353afc2363d,.\38 d05a5eb-9d07-41c6-adc9-023dba36eb36,.\39 3cabcde-49ec-4950-a118-83f0a308ac4b,.\39 a084370-2864-4fa6-a0db-1c271689088d,.a59fb5f5-373f-48d9-8628-aa822aea7fbf,.a7b36fc5-1cf6-4c2d-9c4b-6de05644c9e0,.ae679c2f-d622-4427-b453-fdb9fdd1cdcc,.b0351672-666e-40ec-b13b-89b90761c25a,.c9e2bc8c-2ab1-468f-9a5e-488bdf3153c0,.d3a2c918-b1c9-4f68-9e0d-6bc99829288f,.e0e7de30-dd9c-46c2-aa82-0af9d90ad2b8{stroke:#fff;stroke-linejoin:round;}.\33 3585533-0c31-457e-a89e-0248d5509467,.\34 f5752b0-def6-4dbb-9575-783e2bf6c903,.\35 aefee97-61b5-4723-a45f-c4e8f059f8f3,.\36 a6de613-c3fd-4728-b741-b7a8d69ed6c5,.\37 a6b7ccc-b78a-4bdc-9390-b353afc2363d,.\39 3cabcde-49ec-4950-a118-83f0a308ac4b,.a59fb5f5-373f-48d9-8628-aa822aea7fbf,.a7b36fc5-1cf6-4c2d-9c4b-6de05644c9e0,.ae679c2f-d622-4427-b453-fdb9fdd1cdcc,.b0351672-666e-40ec-b13b-89b90761c25a,.c9e2bc8c-2ab1-468f-9a5e-488bdf3153c0,.d3a2c918-b1c9-4f68-9e0d-6bc99829288f,.e0e7de30-dd9c-46c2-aa82-0af9d90ad2b8{stroke-width:1.6px;}.\33 3585533-0c31-457e-a89e-0248d5509467,.\34 f5752b0-def6-4dbb-9575-783e2bf6c903,.\39 3cabcde-49ec-4950-a118-83f0a308ac4b,.a59fb5f5-373f-48d9-8628-aa822aea7fbf,.ae679c2f-d622-4427-b453-fdb9fdd1cdcc,.b0351672-666e-40ec-b13b-89b90761c25a,.e0e7de30-dd9c-46c2-aa82-0af9d90ad2b8{opacity:0.77;}.\34 f5752b0-def6-4dbb-9575-783e2bf6c903{fill:#3f4d78;}.a7b36fc5-1cf6-4c2d-9c4b-6de05644c9e0,.ae679c2f-d622-4427-b453-fdb9fdd1cdcc{fill:#ffe600;}.\37 a6b7ccc-b78a-4bdc-9390-b353afc2363d,.e0e7de30-dd9c-46c2-aa82-0af9d90ad2b8{fill:#8e244f;}.\35 aefee97-61b5-4723-a45f-c4e8f059f8f3,.\39 3cabcde-49ec-4950-a118-83f0a308ac4b{fill:#991d26;}.b0351672-666e-40ec-b13b-89b90761c25a,.c9e2bc8c-2ab1-468f-9a5e-488bdf3153c0{fill:#d57928;}.\36 a6de613-c3fd-4728-b741-b7a8d69ed6c5,.a59fb5f5-373f-48d9-8628-aa822aea7fbf{fill:#59a5a5;}.b96d286b-23b1-4843-98d8-48ffd6c0da9f{letter-spacing:-0.02em;}.\39 ab09122-b771-4b67-85e4-3b3b7cb5e6e4{letter-spacing:0em;}.\32 4724cd5-98c2-4e39-9c0b-8f8b9b5857e9,.\33 b27b0c2-73b1-4b30-ac5a-bab9601fb557,.\35 aeb7205-7b93-42f1-8699-88bc693c9a4c{fill:none;stroke-miterlimit:10;}.\32 4724cd5-98c2-4e39-9c0b-8f8b9b5857e9{stroke:#757575;}.\38 d05a5eb-9d07-41c6-adc9-023dba36eb36{fill:#159094;}.\38 d05a5eb-9d07-41c6-adc9-023dba36eb36,.\39 a084370-2864-4fa6-a0db-1c271689088d{stroke-width:1.6px;}.\35 aefee97-61b5-4723-a45f-c4e8f059f8f3,.\36 a6de613-c3fd-4728-b741-b7a8d69ed6c5,.\37 a6b7ccc-b78a-4bdc-9390-b353afc2363d,.\38 d05a5eb-9d07-41c6-adc9-023dba36eb36,.a7b36fc5-1cf6-4c2d-9c4b-6de05644c9e0,.c9e2bc8c-2ab1-468f-9a5e-488bdf3153c0{opacity:0.49;}.\33 b27b0c2-73b1-4b30-ac5a-bab9601fb557,.\35 aeb7205-7b93-42f1-8699-88bc693c9a4c{stroke:#323232;}.\35 aeb7205-7b93-42f1-8699-88bc693c9a4c{stroke-dasharray:5.15 5.15;}.d31825d5-28dd-40ce-b78d-70fdd76bc136{letter-spacing:-0.02em;}.\35 830a79a-d37a-4fd9-bb63-b1ebb4ba842c,.\39 67a1dc0-dd35-46df-9fdd-df4d81366d11{letter-spacing:0em;}.\36 b569341-12e4-4280-8260-bf3d83dbf7a9{letter-spacing:-0.07em;}.ade03718-3360-4ba0-97d5-d2b892feca64{font-size:19.42px;}</style></defs><title>2017.11_Metaencuesta</title><text class="14ca8549-c6eb-4b29-848c-ce3c6045d070" transform="translate(18.1 20.62)">Reparto de escaños según los sondeos</text><text class="d02aedc5-a620-4dc1-bbd6-07323ecca502" transform="translate(52.05 43.74)">Comparación del promedio de las encuestas para el 21-D con <tspan x="80.04" y="18">el resultado de las elecciones del 27S</tspan></text><text class="d74a0c33-7a7a-4976-a48f-a00089302581" transform="translate(6.5 457.02) scale(0.99 1)">Fuente: Electrograph</text><polygon class="537d146e-3854-405e-8954-595b60779465" points="429 440.27 525.44 440.27 525.44 454.93 429 454.93 429 440.27 429 440.27"/><path class="29cd977c-30aa-4e15-ad0f-4f483eef9d97" d="M506.36,443.55h-3.7V444l1,.23v6.81a.81.81,0,0,1-.68.35,1.45,1.45,0,0,1-1.2-.88l-.92-1.65a1.91,1.91,0,0,0-1.69-1.14v-.12a2.26,2.26,0,0,0,2.33-2.1c0-1.42-1.29-2-2.78-2h-3.35V444l1.1.23v6.91h0l-1.26.24L492,442.83a4,4,0,0,1-1.13,1l.12.35-2.87,7-.86.23v.46h2.62v-.46l-.85-.22,1-2.56h2.66l.93,2.54-1,.24v.46H499v-.46l-1-.23V448a1.57,1.57,0,0,1,1.42,1l1.26,2.25a2,2,0,0,0,1.82,1.11,1.8,1.8,0,0,0,1.2-.49h2.85a4.28,4.28,0,0,0,4.39-4.16,4.17,4.17,0,0,0-4.47-4.16ZM490.23,448l1.12-3,1.08,3Zm8.23-.62h-.57v-3.1h.71a1.4,1.4,0,0,1,1.45,1.48,1.61,1.61,0,0,1-1.57,1.62Zm7.82,3.83h-1.18v-6.93h1.22c1.89,0,3,1.31,3,3.46s-1.21,3.46-3.08,3.46Z"/><path class="29cd977c-30aa-4e15-ad0f-4f483eef9d97" d="M445.71,451.17l-3.07-8.34a3.94,3.94,0,0,1-1.13,1l.12.35-2.85,7-.61.23-.18.46h2.54v-.46l-.85-.22,1-2.56h2.66l.93,2.54-1,.24v.46h3.42v-.46l-.91-.23Zm-4.87-3.2,1.13-3,1.08,3Z"/><polygon class="29cd977c-30aa-4e15-ad0f-4f483eef9d97" points="438.39 449.75 438.08 449.58 436.29 451.21 434.75 451.21 434.75 444.25 435.68 444.01 435.68 443.54 432.37 443.54 432.37 444.01 433.3 444.25 433.3 451.15 432.37 451.39 432.37 451.86 437.57 451.86 438.39 449.75 438.39 449.75"/><polygon class="29cd977c-30aa-4e15-ad0f-4f483eef9d97" points="452.83 443.54 452.83 444.01 453.83 444.25 451.66 449.81 449.37 444.24 450.45 444.01 450.45 443.54 446.76 443.54 446.76 444.01 447.82 444.24 451.1 452.14 451.45 452.14 454.72 444.25 454.75 444.25 455.77 444.01 455.77 443.54 452.83 443.54 452.83 443.54"/><path class="29cd977c-30aa-4e15-ad0f-4f483eef9d97" d="M485.6,443.55V444l1,.24s.07,4.12,0,5.16a2.1,2.1,0,0,1-2.14,2h-.11a2.07,2.07,0,0,1-2.24-2.13v-5.07l1-.22v-.46h-3.34V444l.95.23v5.11a3.07,3.07,0,0,0,3.3,2.91,3,3,0,0,0,3.3-2.91l.06-5.1,1-.24v-.46Z"/><path class="29cd977c-30aa-4e15-ad0f-4f483eef9d97" d="M521.7,451.15l-3.06-8.32a3.94,3.94,0,0,1-1.13,1l.12.35-2.86,7-.49.2-.66-.21v-6.94l1-.23v-.46h-3.48V444l1,.24v6.92l-1,.23v.46h5.3v-.46l-.85-.23,1-2.56h2.66l.93,2.54-1,.24v.46h3.43v-.46l-.92-.24ZM516.84,448l1.13-3,1.08,3Z"/><path class="29cd977c-30aa-4e15-ad0f-4f483eef9d97" d="M467.75,443.55V444l1,.24.06,5.44-5.21-6.14H461.4V444l1,.22.08,0-.07,6.88h0l-1,.24-3.14-8.56a4,4,0,0,1-1.1,1l.12.35-2.87,7-.86.23v.46h2.62v-.46l-.85-.22,1-2.56h2.66l.93,2.54-1,.24v.46h5.47v-.46l-1-.24-.12-6,6,7h.39l.08-7.9,1-.23v-.46ZM456.44,448l1.13-3,1.08,3Z"/><path class="29cd977c-30aa-4e15-ad0f-4f483eef9d97" d="M476.52,447.61v.46l.94.24V451a3.11,3.11,0,0,1-1.88.62c-1.89,0-3.1-1.57-3.1-3.79s1.18-4,3.14-4a3,3,0,0,1,2.78,2.26l.27-.16v-2.62l-.24-.13-.52.64a5.24,5.24,0,0,0-2.3-.59,4.65,4.65,0,0,0-4.66,4.58,4.22,4.22,0,0,0,4,4.43h.3a4.29,4.29,0,0,0,2.68-.89l.73.49h.24V448.3l.79-.3v-.38Z"/><path class="33585533-0c31-457e-a89e-0248d5509467" d="M69,394.87a183.24,183.24,0,0,1,47-188.44l89.1,92.27A55,55,0,0,0,191,355.23Z"/><path class="4f5752b0-def6-4dbb-9575-783e2bf6c903" d="M116,206.43a183.24,183.24,0,0,1,84.2-46.29l30.16,124.67a55,55,0,0,0-25.26,13.89Z"/><path class="ae679c2f-d622-4427-b453-fdb9fdd1cdcc" d="M200.21,160.14a183.24,183.24,0,0,1,35.41-5L241,283.32a55,55,0,0,0-10.62,1.49Z"/><path class="e0e7de30-dd9c-46c2-aa82-0af9d90ad2b8" d="M235.62,155.16a183.24,183.24,0,0,1,50.76,5L256.22,284.81A55,55,0,0,0,241,283.32Z"/><path class="93cabcde-49ec-4950-a118-83f0a308ac4b" d="M286.38,160.14A183.24,183.24,0,0,1,374.22,210l-91.64,89.74a55,55,0,0,0-26.35-15Z"/><path class="b0351672-666e-40ec-b13b-89b90761c25a" d="M374.22,210a183.24,183.24,0,0,1,52.21,134.6l-128.19-4.48a55,55,0,0,0-15.66-40.38Z"/><path class="a59fb5f5-373f-48d9-8628-aa822aea7fbf" d="M426.43,344.64a183.24,183.24,0,0,1-8.86,50.23l-122-39.64a55,55,0,0,0,2.66-15.07Z"/><path class="d3a2c918-b1c9-4f68-9e0d-6bc99829288f" d="M379.41,339.05C379.41,413.58,319,458,244.46,458S109.51,413.58,109.51,339.05a134.95,134.95,0,0,1,269.9,0Z"/><text class="9a5187c6-c9ef-4382-b16d-3d82127379f4" transform="translate(286.1 128.23) rotate(-0.14)"><tspan class="a8060fd5-b969-4b11-b880-3e2f3a896ef3">CeC-</tspan><tspan class="b96d286b-23b1-4843-98d8-48ffd6c0da9f" x="35" y="0">P</tspan><tspan class="a8060fd5-b969-4b11-b880-3e2f3a896ef3" x="44.74" y="0"> </tspan><tspan class="9ab09122-b771-4b67-85e4-3b3b7cb5e6e4" x="48.9" y="0">10</tspan></text><path class="0665cdc0-2810-490a-ab60-d913cdf18ddb" d="M426.34,350.54l10.69-1c.15,1.59.21,2.38.3,4a13.89,13.89,0,0,1-.05,2.95,3.14,3.14,0,0,1-1,1.77,3,3,0,0,1-2.09.69,3.32,3.32,0,0,1-1.66-.4,3.12,3.12,0,0,1-1.06-1,3.55,3.55,0,0,1-.53-1.19,16,16,0,0,1-.25-2.38c0-.6,0-.9-.09-1.5l-4,.28C426.46,351.86,426.43,351.42,426.34,350.54Zm9.08,1.57-3,.21c0,.51.05.77.08,1.28a7.14,7.14,0,0,0,.25,1.85,1.56,1.56,0,0,0,.55.72,1.36,1.36,0,0,0,.84.25,1.3,1.3,0,0,0,1-.4,1.71,1.71,0,0,0,.44-1,11.49,11.49,0,0,0,0-1.75C435.47,352.82,435.46,352.58,435.42,352.11Z"/><path class="0665cdc0-2810-490a-ab60-d913cdf18ddb" d="M426.7,360.66l10.73.28c0,1.59-.08,2.38-.19,4a13.88,13.88,0,0,1-.41,2.91,3.14,3.14,0,0,1-1.23,1.62,3.05,3.05,0,0,1-2.16.43,3.32,3.32,0,0,1-1.6-.59,3.12,3.12,0,0,1-.94-1.09,3.52,3.52,0,0,1-.38-1.24,16,16,0,0,1,0-2.39c0-.6.06-.9.09-1.49l-4-.21C426.65,362,426.67,361.53,426.7,360.66Zm8.82,2.65-3-.16c0,.51,0,.77-.08,1.28a7.05,7.05,0,0,0,0,1.86,1.56,1.56,0,0,0,.46.78,1.37,1.37,0,0,0,.8.35,1.3,1.3,0,0,0,1-.28,1.71,1.71,0,0,0,.56-.92,11.48,11.48,0,0,0,.2-1.73C435.48,364,435.49,363.78,435.52,363.31Z"/><path class="0665cdc0-2810-490a-ab60-d913cdf18ddb" d="M424.15,379c.13-.52.19-.78.32-1.29l8.17,1.94a8.27,8.27,0,0,1-.58-1.55,11.49,11.49,0,0,1-.35-1.63l1.25.25a10.12,10.12,0,0,0,.78,2.37,5.42,5.42,0,0,0,1.09,1.62l-.23.94Z"/><path class="0665cdc0-2810-490a-ab60-d913cdf18ddb" d="M428.32,383.82a8.79,8.79,0,0,1,2.81,1.29,3.67,3.67,0,0,1,1.32,1.78,3.58,3.58,0,0,1-.1,2.3,3.9,3.9,0,0,1-.91,1.52,3.07,3.07,0,0,1-1.37.8,4.9,4.9,0,0,1-1.76.12,9.48,9.48,0,0,1-2.46-.68,9.58,9.58,0,0,1-2.69-1.49,4,4,0,0,1-1.25-1.76,3.17,3.17,0,0,1,.07-2.08,3.12,3.12,0,0,1,1.83-2A7.07,7.07,0,0,1,428.32,383.82Zm-.43,1.39a6.61,6.61,0,0,0-3.55-.45,1.88,1.88,0,0,0-1,3,6.58,6.58,0,0,0,3.07,1.84c1.66.62,2.84.82,3.54.58a2.1,2.1,0,0,0,1.4-1.34,1.94,1.94,0,0,0-.21-1.79A6.13,6.13,0,0,0,427.89,385.21Z"/><path class="0665cdc0-2810-490a-ab60-d913cdf18ddb" d="M414.88,257.39c.23.9.34,1.35.55,2.25a4.52,4.52,0,0,1-5.35-2.13,5,5,0,0,1-.8-3.79,5.62,5.62,0,0,1,2.39-3.52,5.34,5.34,0,0,1,4.27-1.2,5.48,5.48,0,0,1,3.55,2.6,5.22,5.22,0,0,1,.92,3.71,4,4,0,0,1-1.09,2.06c-.65-.72-1-1.08-1.64-1.78a2.21,2.21,0,0,0,.66-1.44,2.68,2.68,0,0,0-.47-1.65,2.81,2.81,0,0,0-1.91-1.33,3.85,3.85,0,0,0-2.75.9,4.41,4.41,0,0,0-2,2.28,2.59,2.59,0,0,0,.37,2.13,2.36,2.36,0,0,0,1.29,1A3.24,3.24,0,0,0,414.88,257.39Z"/><path class="0665cdc0-2810-490a-ab60-d913cdf18ddb" d="M415.08,261.18c.53.69.78,1,1.29,1.74a1.53,1.53,0,0,0-.56.91,1.94,1.94,0,0,0,.25,1.18,2.2,2.2,0,0,0,.8,1,.65.65,0,0,0,.62,0,.52.52,0,0,0,.29-.3,1.67,1.67,0,0,0-.07-.76,14.31,14.31,0,0,1-.61-3.41,2,2,0,0,1,1.07-1.7,2.06,2.06,0,0,1,1.91,0,4.22,4.22,0,0,1,1.87,2.11,4.9,4.9,0,0,1,.67,2.59,2.61,2.61,0,0,1-.92,1.7c-.47-.71-.71-1.06-1.2-1.75a1.19,1.19,0,0,0,.41-.76,2,2,0,0,0-.26-1.08,2.53,2.53,0,0,0-.77-1,.48.48,0,0,0-.49,0,.45.45,0,0,0-.23.37,9.8,9.8,0,0,0,.41,2.1,5.82,5.82,0,0,1,.21,2.6,1.83,1.83,0,0,1-1.12,1.24,2.37,2.37,0,0,1-2.05-.08,4.24,4.24,0,0,1-1.84-2.09,4.68,4.68,0,0,1-.59-2.56A3.07,3.07,0,0,1,415.08,261.18Z"/><path class="0665cdc0-2810-490a-ab60-d913cdf18ddb" d="M421.84,280.33l-1.22.33a69.19,69.19,0,0,0-2.18-6.83,2.28,2.28,0,0,1,.91-.17A4.6,4.6,0,0,1,421,274a11.87,11.87,0,0,1,2.12,1.19,18.9,18.9,0,0,0,2.93,1.74,2.64,2.64,0,0,0,1.71.2,1.66,1.66,0,0,0,1.09-1,2.39,2.39,0,0,0,0-1.73,2.42,2.42,0,0,0-1.08-1.45,2,2,0,0,0-1.7-.1c-.14-.58-.22-.87-.37-1.46a3.12,3.12,0,0,1,2.57.33,4.24,4.24,0,0,1,1.63,2.38,4,4,0,0,1,0,2.91,2.63,2.63,0,0,1-1.78,1.54,3,3,0,0,1-1.3.06,5.17,5.17,0,0,1-1.52-.56c-.56-.29-1.37-.81-2.43-1.52a18.43,18.43,0,0,0-1.78-1.09,4.16,4.16,0,0,0-.86-.31C421,277.21,421.27,278.24,421.84,280.33Z"/><path class="0665cdc0-2810-490a-ab60-d913cdf18ddb" d="M423.43,281.64c.17.5.26.75.43,1.26a2.2,2.2,0,0,0-1.12.91,1.8,1.8,0,0,0-.14,1.25,2.16,2.16,0,0,0,.49,1,2.38,2.38,0,0,0,.88.62,4.41,4.41,0,0,0,1.33.27,6.34,6.34,0,0,0,1.62-.08l.26-.05a3.28,3.28,0,0,1-1.22-1,3.55,3.55,0,0,1-.29-4,3.46,3.46,0,0,1,2.23-1.58,3.34,3.34,0,0,1,2.81.41,3.78,3.78,0,0,1,1.58,2.46,4.17,4.17,0,0,1-.13,2.26,3.52,3.52,0,0,1-1.32,1.75,7,7,0,0,1-2.9,1,9.49,9.49,0,0,1-3.31.07,4,4,0,0,1-2.07-1,3.7,3.7,0,0,1-1-1.94,3.2,3.2,0,0,1,.22-2.19A3.05,3.05,0,0,1,423.43,281.64Zm5.85,4.66a2.39,2.39,0,0,0,1.65-1,2.22,2.22,0,0,0,.33-1.74A2.34,2.34,0,0,0,430.2,282a2.46,2.46,0,0,0-2-.28,2.22,2.22,0,0,0-1.47,1,2.33,2.33,0,0,0-.28,1.74,2.24,2.24,0,0,0,.95,1.47A2.43,2.43,0,0,0,429.29,286.3Z"/><text class="9a5187c6-c9ef-4382-b16d-3d82127379f4" transform="translate(137.92 114.03) rotate(-0.14)"><tspan class="a8060fd5-b969-4b11-b880-3e2f3a896ef3">CU</tspan><tspan class="b96d286b-23b1-4843-98d8-48ffd6c0da9f" x="21.67" y="0">P</tspan><tspan class="a8060fd5-b969-4b11-b880-3e2f3a896ef3" x="31.4" y="0"> </tspan><tspan class="2cfd07c3-1379-4b62-9f51-30765ab567cc" x="35.57" y="0">7</tspan></text><path class="0665cdc0-2810-490a-ab60-d913cdf18ddb" d="M311.78,166.44,314.48,156c1.5.39,2.25.6,3.74,1a13.76,13.76,0,0,1,2.7,1,3,3,0,0,1,1.27,3.73,3.35,3.35,0,0,1-.9,1.45,3.08,3.08,0,0,1-1.25.7,3.45,3.45,0,0,1-1.28.12,15.09,15.09,0,0,1-2.31-.55l-1.43-.41-1.1,3.9Zm4.54-8-.82,2.93,1.22.35a6.81,6.81,0,0,0,1.8.37,1.54,1.54,0,0,0,.85-.29,1.37,1.37,0,0,0,.51-.71,1.32,1.32,0,0,0-.06-1,1.68,1.68,0,0,0-.77-.74,11.4,11.4,0,0,0-1.62-.56Z"/><path class="0665cdc0-2810-490a-ab60-d913cdf18ddb" d="M322.11,166l2.14.57a2.59,2.59,0,0,0,.19,1.74,2.5,2.5,0,0,0,1.32,1.06,2.59,2.59,0,0,0,1.67.21,1.32,1.32,0,0,0,.91-.74,1,1,0,0,0,0-.69,1.83,1.83,0,0,0-.57-.75c-.21-.18-.71-.56-1.51-1.12a6.86,6.86,0,0,1-2-1.92,2.76,2.76,0,0,1-.26-2.4,2.56,2.56,0,0,1,1-1.27,3.09,3.09,0,0,1,1.77-.5,6.22,6.22,0,0,1,2.32.51,5.18,5.18,0,0,1,2.77,2.13,3,3,0,0,1,.11,2.64c-.87-.35-1.31-.52-2.19-.85a1.78,1.78,0,0,0-.14-1.35,2.51,2.51,0,0,0-1.25-.91,2.83,2.83,0,0,0-1.65-.23.76.76,0,0,0-.59.49.81.81,0,0,0,.09.73,6.84,6.84,0,0,0,1.73,1.46,10.61,10.61,0,0,1,2,1.69,2.87,2.87,0,0,1,.42,3.25,3.15,3.15,0,0,1-1.19,1.36,3.21,3.21,0,0,1-1.83.5,6.58,6.58,0,0,1-2.33-.55,5,5,0,0,1-2.61-2A4.16,4.16,0,0,1,322.11,166Z"/><path class="0665cdc0-2810-490a-ab60-d913cdf18ddb" d="M338.86,173.06c.64.66,1,1,1.58,1.66a5,5,0,0,1-8.19-2.1,5.62,5.62,0,0,1,.43-4.22,5.46,5.46,0,0,1,3.14-3.11,5.29,5.29,0,0,1,4.26.5,5,5,0,0,1,2.55,2.72,4,4,0,0,1,.05,2.31c-.91-.29-1.36-.43-2.27-.7a2.22,2.22,0,0,0-.12-1.57,2.59,2.59,0,0,0-1.18-1.18,2.72,2.72,0,0,0-2.27-.21,3.93,3.93,0,0,0-2,2.13,4.44,4.44,0,0,0-.61,2.94,2.53,2.53,0,0,0,1.34,1.67,2.31,2.31,0,0,0,1.61.24A3.24,3.24,0,0,0,338.86,173.06Z"/><path class="0665cdc0-2810-490a-ab60-d913cdf18ddb" d="M350.05,183.52l-.76,1c-2.3-1.73-3.47-2.55-5.87-4.12a2.29,2.29,0,0,1,.63-.68,4.65,4.65,0,0,1,1.53-.7,12.2,12.2,0,0,1,2.4-.34,17.85,17.85,0,0,0,3.36-.41,2.65,2.65,0,0,0,1.47-.89,1.68,1.68,0,0,0,.28-1.43,2.31,2.31,0,0,0-1-1.37,2.35,2.35,0,0,0-1.7-.48,2,2,0,0,0-1.41,1l-1.14-.93a3.16,3.16,0,0,1,2.23-1.29,4.1,4.1,0,0,1,2.68.88,3.91,3.91,0,0,1,1.7,2.28,2.66,2.66,0,0,1-.48,2.29,3.05,3.05,0,0,1-1,.84,5.11,5.11,0,0,1-1.53.5,27.63,27.63,0,0,1-2.84.28,19.38,19.38,0,0,0-2.07.21,4.22,4.22,0,0,0-.87.27C347.45,181.6,348.33,182.23,350.05,183.52Z"/><path class="0665cdc0-2810-490a-ab60-d913cdf18ddb" d="M353.67,181.22a9,9,0,0,1,2.21-2.16,3.7,3.7,0,0,1,2.11-.61,3.46,3.46,0,0,1,2.08.88,3.77,3.77,0,0,1,1.07,1.35,3,3,0,0,1,.25,1.54,5,5,0,0,1-.5,1.68,12,12,0,0,1-3.81,4.09,3.92,3.92,0,0,1-2.08.57,3.14,3.14,0,0,1-1.92-.8,3.1,3.1,0,0,1-1.23-2.43A7,7,0,0,1,353.67,181.22Zm1.13.89a6.62,6.62,0,0,0-1.69,3.15,1.87,1.87,0,0,0,2.43,2,6.59,6.59,0,0,0,2.78-2.25q1.73-2,1.78-3.11a2,2,0,0,0-.74-1.76,1.89,1.89,0,0,0-1.73-.42A6.25,6.25,0,0,0,354.8,182.11Z"/><path class="0665cdc0-2810-490a-ab60-d913cdf18ddb" d="M121,186.58l1.76-1.56,4.47,5.12a6.77,6.77,0,0,1,1.17,1.7,3,3,0,0,1,.12,1.9,4,4,0,0,1-1.26,1.91,3.4,3.4,0,0,1-2.42,1,3.63,3.63,0,0,1-2.45-1.27l1.38-1.63a2.8,2.8,0,0,0,1.1.76,1.22,1.22,0,0,0,1.2-.32,1.24,1.24,0,0,0,.5-1,3.2,3.2,0,0,0-.92-1.48Z"/><path class="0665cdc0-2810-490a-ab60-d913cdf18ddb" d="M130.85,192.24c-.18-2-.26-2.94-.37-4.92-1.82-.45-2.74-.67-4.59-1.07.81-.7,1.23-1,2.05-1.72l2.48.73c-.06-1-.09-1.57-.14-2.63.81-.64,1.21-1,2-1.58,0,1.85,0,2.78.08,4.61,2,.54,2.93.82,4.84,1.42-.81.62-1.22.93-2,1.57-1.1-.36-1.65-.53-2.77-.87.1,1.16.15,1.74.27,2.9C132,191.29,131.59,191.6,130.85,192.24Z"/><path class="0665cdc0-2810-490a-ab60-d913cdf18ddb" d="M141.66,179l2.18-.65a5,5,0,0,1-5.57,6.31,5.6,5.6,0,0,1-3.53-2.35,5.54,5.54,0,0,1-1.31-4.22,5.18,5.18,0,0,1,2.33-3.5,4.92,4.92,0,0,1,3.52-1,4.08,4.08,0,0,1,2.07,1c-.65.67-1,1-1.61,1.69a2.23,2.23,0,0,0-1.44-.61,2.52,2.52,0,0,0-1.57.5,2.66,2.66,0,0,0-1.2,1.9,4,4,0,0,0,1,2.71,4.44,4.44,0,0,0,2.32,1.9,2.5,2.5,0,0,0,2.09-.42,2.28,2.28,0,0,0,.94-1.32A3.22,3.22,0,0,0,141.66,179Z"/><path class="0665cdc0-2810-490a-ab60-d913cdf18ddb" d="M155.64,175.17l-2.08,1.15-2-1.65c-1.53.88-2.29,1.33-3.79,2.25.2,1,.3,1.53.52,2.55l-2,1.24c-.91-4.52-1.31-6.81-2-11.42l2.14-1.27C150.23,170.79,152.06,172.23,155.64,175.17ZM150,173.47c-1.33-1.07-2-1.6-3.36-2.65.28,1.69.43,2.53.74,4.2C148.42,174.39,148.94,174.08,150,173.47Z"/><path class="0665cdc0-2810-490a-ab60-d913cdf18ddb" d="M157.82,174l-4.12-7.91c-1.21.63-1.82,1-3,1.61l-.87-1.59c3.25-1.78,4.9-2.63,8.25-4.21l.78,1.64c-1.23.58-1.85.88-3.07,1.49l4,8Z"/><path class="0665cdc0-2810-490a-ab60-d913cdf18ddb" d="M172,167.6l-1.24.49-3.11-7.8a7.66,7.66,0,0,1-.9,1.34,10.42,10.42,0,0,1-1.1,1.19l-.49-1.17a9.23,9.23,0,0,0,1.44-2,5.23,5.23,0,0,0,.65-1.8l.86-.34Z"/><path class="0665cdc0-2810-490a-ab60-d913cdf18ddb" d="M174.56,164l1.19-.55a2.19,2.19,0,0,0,1,1,1.77,1.77,0,0,0,1.26,0,2.12,2.12,0,0,0,.95-.61,2.34,2.34,0,0,0,.51-.94,4.39,4.39,0,0,0,.1-1.35,6.4,6.4,0,0,0-.29-1.6l-.09-.25a3.18,3.18,0,0,1-.77,1.32,3.38,3.38,0,0,1-3.89.71,3.47,3.47,0,0,1-1.77-2.07,3.43,3.43,0,0,1,.09-2.82A3.58,3.58,0,0,1,175,155a3.9,3.9,0,0,1,2.16-.11A3.52,3.52,0,0,1,179,156a7.33,7.33,0,0,1,1.35,2.75,9.55,9.55,0,0,1,.52,3.27,4,4,0,0,1-.75,2.18,3.63,3.63,0,0,1-1.8,1.26,3.15,3.15,0,0,1-2.2,0A3,3,0,0,1,174.56,164Zm3.85-6.3a2.45,2.45,0,0,0-1.17-1.52,2.1,2.1,0,0,0-1.7-.14,2.21,2.21,0,0,0-1.34,1.21,2.53,2.53,0,0,0,0,2,2.24,2.24,0,0,0,2.89,1.45,2.14,2.14,0,0,0,1.31-1.1A2.46,2.46,0,0,0,178.41,157.69Z"/><path class="0665cdc0-2810-490a-ab60-d913cdf18ddb" d="M61.18,304.25l-10.64-1.47c.49-3.52.8-5.27,1.54-8.73l1.78.38c-.53,2.48-.77,3.73-1.17,6.24L55,301c.36-2.29.58-3.43,1.05-5.69l1.77.37c-.47,2.23-.68,3.35-1,5.6l2.89.46c.39-2.44.62-3.66,1.14-6.07l1.77.38C61.93,299.33,61.64,301,61.18,304.25Z"/><path class="0665cdc0-2810-490a-ab60-d913cdf18ddb" d="M63,294.28l-10.45-2.45c.46-2,.72-3,1.26-4.9a8.83,8.83,0,0,1,1.06-2.58,2.62,2.62,0,0,1,1.39-1,2.87,2.87,0,0,1,1.77,0,2.79,2.79,0,0,1,1.67,1.33,3.82,3.82,0,0,1,.29,2.44,5.05,5.05,0,0,1,1.21-.91,11.12,11.12,0,0,1,2-.7c1-.26,1.44-.38,2.4-.62-.33,1-.49,1.49-.79,2.49-1.08.33-1.62.51-2.7.87a13.35,13.35,0,0,0-1.84.71,1.72,1.72,0,0,0-.61.54,3.78,3.78,0,0,0-.41,1.08l-.12.45,4.34,1.11C63.35,293,63.24,293.43,63,294.28Zm-5.48-3.67c.17-.66.26-1,.44-1.66a10.38,10.38,0,0,0,.44-2,1.26,1.26,0,0,0-.25-.75,1.33,1.33,0,0,0-.7-.46,1.22,1.22,0,0,0-.93,0,1.46,1.46,0,0,0-.65.74,17.25,17.25,0,0,0-.5,1.65c-.19.71-.29,1.07-.47,1.79Z"/><path class="0665cdc0-2810-490a-ab60-d913cdf18ddb" d="M64.89,275.79c.58-.71.88-1.06,1.48-1.75a5,5,0,0,1-1.17,8.37,5.62,5.62,0,0,1-4.24,0,5.46,5.46,0,0,1-3.45-2.77,5.28,5.28,0,0,1,0-4.28,5,5,0,0,1,2.42-2.83,4,4,0,0,1,2.29-.31c-.19.93-.27,1.4-.44,2.33a2.22,2.22,0,0,0-1.55.29,2.58,2.58,0,0,0-1,1.31,2.71,2.71,0,0,0,0,2.28,3.93,3.93,0,0,0,2.33,1.7,4.44,4.44,0,0,0,3,.28,2.53,2.53,0,0,0,1.5-1.52,2.31,2.31,0,0,0,.06-1.62A3.24,3.24,0,0,0,64.89,275.79Z"/><path class="0665cdc0-2810-490a-ab60-d913cdf18ddb" d="M73.75,266.51l-2.25-1.24c-.93,1.69-1.38,2.54-2.24,4.27L68.18,269c-1.58-3.07-2.32-4.66-3.7-7.91l.59-1,6,3.44.76-1.31,1,.61-.75,1.3,2.23,1.27Zm-3.31-1.83-4.24-2.34c1,2.22,1.5,3.31,2.58,5.44C69.43,266.53,69.76,265.91,70.45,264.68Z"/><path class="0665cdc0-2810-490a-ab60-d913cdf18ddb" d="M71.31,260.16a9,9,0,0,1-2.4-1.95,3.7,3.7,0,0,1-.85-2,3.46,3.46,0,0,1,.63-2.16,3.76,3.76,0,0,1,1.22-1.22,3,3,0,0,1,1.5-.43,5,5,0,0,1,1.73.3A12,12,0,0,1,77.64,256a3.92,3.92,0,0,1,.81,2,3.14,3.14,0,0,1-.57,2,3.09,3.09,0,0,1-2.27,1.5A7,7,0,0,1,71.31,260.16Zm.75-1.23a6.62,6.62,0,0,0,3.33,1.32,1.86,1.86,0,0,0,1.71-2.64,6.6,6.6,0,0,0-2.55-2.5,6.18,6.18,0,0,0-3.3-1.41,2,2,0,0,0-1.66.94,1.88,1.88,0,0,0-.21,1.76A6.26,6.26,0,0,0,72.06,258.94Z"/><line class="24724cd5-98c2-4e39-9c0b-8f8b9b5857e9" x1="252.42" y1="130.8" x2="252.42" y2="154.79"/><line class="24724cd5-98c2-4e39-9c0b-8f8b9b5857e9" x1="212.32" y1="117.72" x2="212.32" y2="157.46"/><line class="24724cd5-98c2-4e39-9c0b-8f8b9b5857e9" x1="295.75" y1="259.07" x2="295.75" y2="298.81"/><line class="24724cd5-98c2-4e39-9c0b-8f8b9b5857e9" x1="358.18" y1="131.55" x2="252.42" y2="131.55"/><line class="24724cd5-98c2-4e39-9c0b-8f8b9b5857e9" x1="138.5" y1="118.5" x2="211.91" y2="118.03"/><text class="b4338d16-aeac-45b5-acd8-b4ec94aa42c9" transform="translate(245.77 94.08) scale(0.99 1)">Mayoría absoluta: <tspan class="746222f8-10f1-4d92-8a94-e0117d532759" x="123.4" y="0">67</tspan></text><path class="8d05a5eb-9d07-41c6-adc9-023dba36eb36" d="M116.27,381.34A135.45,135.45,0,0,1,222.67,205.9l15.7,93.51A40.64,40.64,0,0,0,206.45,352Z"/><path class="a7b36fc5-1cf6-4c2d-9c4b-6de05644c9e0" d="M222.67,205.9a135.45,135.45,0,0,1,41.14-.57l-13.1,93.91a40.64,40.64,0,0,0-12.34.17Z"/><path class="7a6b7ccc-b78a-4bdc-9390-b353afc2363d" d="M263.81,205.33a135.45,135.45,0,0,1,39.41,11.81l-40.69,85.64a40.64,40.64,0,0,0-11.82-3.54Z"/><path class="5aefee97-61b5-4723-a45f-c4e8f059f8f3" d="M303.22,217.14a135.45,135.45,0,0,1,46.88,36.78l-73.5,59.9a40.64,40.64,0,0,0-14.06-11Z"/><path class="c9e2bc8c-2ab1-468f-9a5e-488bdf3153c0" d="M350.1,253.92a135.45,135.45,0,0,1,30.44,86.82l-94.81-.88a40.64,40.64,0,0,0-9.13-26Z"/><path class="6a6de613-c3fd-4728-b741-b7a8d69ed6c5" d="M380.54,340.74a135.45,135.45,0,0,1-6.62,40.61L283.74,352a40.64,40.64,0,0,0,2-12.18Z"/><circle class="9a084370-2864-4fa6-a0db-1c271689088d" cx="245.57" cy="341.33" r="111.81"/><line class="3b27b0c2-73b1-4b30-ac5a-bab9601fb557" x1="240.76" y1="85.5" x2="240.76" y2="88"/><line class="5aeb7205-7b93-42f1-8699-88bc693c9a4c" x1="240.76" y1="93.15" x2="240.76" y2="224.43"/><line class="3b27b0c2-73b1-4b30-ac5a-bab9601fb557" x1="240.76" y1="227" x2="240.76" y2="229.5"/><path class="0665cdc0-2810-490a-ab60-d913cdf18ddb" d="M212.26,244.93l2.29.1a4.46,4.46,0,0,1-3.53,4.52,5,5,0,0,1-3.85-.35,5.6,5.6,0,0,1-2.62-3.34,5.44,5.44,0,0,1,.11-4.42,5.33,5.33,0,0,1,3.43-2.6,5.06,5.06,0,0,1,3.73.2,4,4,0,0,1,1.64,1.63c-.85.42-1.28.63-2.12,1.07a2.22,2.22,0,0,0-1.18-1,2.6,2.6,0,0,0-1.68,0,2.73,2.73,0,0,0-1.79,1.43,3.92,3.92,0,0,0,.06,2.89,4.42,4.42,0,0,0,1.6,2.54,2.55,2.55,0,0,0,2.13.27,2.32,2.32,0,0,0,1.33-.94A3.22,3.22,0,0,0,212.26,244.93Z"/><path class="0665cdc0-2810-490a-ab60-d913cdf18ddb" d="M214.78,237.33l2.35-.51,1.17,5.7a11.31,11.31,0,0,0,.44,1.74,1.74,1.74,0,0,0,.88.9,2.47,2.47,0,0,0,1.52.12,2.34,2.34,0,0,0,1.34-.62,1.5,1.5,0,0,0,.42-1,11.58,11.58,0,0,0-.2-1.81l-1-5.86,2.38-.37.8,5.58a14.18,14.18,0,0,1,.21,2.73,3.05,3.05,0,0,1-.46,1.43,3.44,3.44,0,0,1-1.13,1.06,5.89,5.89,0,0,1-2,.68,6.42,6.42,0,0,1-2.38.1,3.49,3.49,0,0,1-1.44-.64,3,3,0,0,1-.87-1,12.63,12.63,0,0,1-.82-2.61Z"/><path class="0665cdc0-2810-490a-ab60-d913cdf18ddb" d="M227.94,245.93l-1.3-10.66c1.53-.19,2.3-.27,3.83-.41a13.7,13.7,0,0,1,2.86-.06,3.07,3.07,0,0,1,1.76.95,3.1,3.1,0,0,1,.78,2.06,3.34,3.34,0,0,1-.31,1.68,3.08,3.08,0,0,1-.91,1.11,3.43,3.43,0,0,1-1.15.58,15,15,0,0,1-2.34.34l-1.47.14.41,4Zm1.27-9.12.31,3,1.26-.12a6.7,6.7,0,0,0,1.8-.32,1.53,1.53,0,0,0,.68-.58,1.38,1.38,0,0,0,.21-.85A1.32,1.32,0,0,0,233,237a1.67,1.67,0,0,0-1-.41,11.29,11.29,0,0,0-1.7.07Z"/><path class="0665cdc0-2810-490a-ab60-d913cdf18ddb" d="M246.48,245.25l-1.33-.06c.12-3.36.18-5,.31-8.39a8,8,0,0,1-1.38.87,10.77,10.77,0,0,1-1.51.65l0-1.27a9.61,9.61,0,0,0,2.14-1.22,5.31,5.31,0,0,0,1.34-1.39l.94,0C246.8,238.79,246.69,240.95,246.48,245.25Z"/><path class="0665cdc0-2810-490a-ab60-d913cdf18ddb" d="M250.32,240.2a9,9,0,0,1,.67-3,3.7,3.7,0,0,1,1.43-1.67,3.46,3.46,0,0,1,2.22-.4,3.76,3.76,0,0,1,1.64.55,3,3,0,0,1,1.05,1.15,5,5,0,0,1,.5,1.68,12,12,0,0,1-.95,5.51,3.92,3.92,0,0,1-1.43,1.62,3.15,3.15,0,0,1-2,.39,3.09,3.09,0,0,1-2.36-1.36A7,7,0,0,1,250.32,240.2Zm1.43.12a6.62,6.62,0,0,0,.31,3.57,1.86,1.86,0,0,0,3.13.35,6.6,6.6,0,0,0,1.1-3.4c.23-1.75.17-2.95-.21-3.58a2,2,0,0,0-1.58-1.07,1.89,1.89,0,0,0-1.67.6A6.25,6.25,0,0,0,251.75,240.32Z"/><path class="0665cdc0-2810-490a-ab60-d913cdf18ddb" d="M342.61,337.5l10.54-2.07c.31,1.58.44,2.37.68,4a14,14,0,0,1,.22,3,3.17,3.17,0,0,1-.86,1.87,3,3,0,0,1-2,.89,3.3,3.3,0,0,1-1.69-.25,3.13,3.13,0,0,1-1.15-.88,3.57,3.57,0,0,1-.64-1.14,16.49,16.49,0,0,1-.46-2.36c-.09-.6-.13-.89-.23-1.49l-4,.66C342.86,338.79,342.78,338.36,342.61,337.5Zm9.19.7-3,.5c.08.51.12.77.2,1.28a7.25,7.25,0,0,0,.42,1.83,1.57,1.57,0,0,0,.61.67,1.36,1.36,0,0,0,.86.17,1.29,1.29,0,0,0,.92-.49,1.73,1.73,0,0,0,.35-1,11.47,11.47,0,0,0-.17-1.76C351.92,338.89,351.88,338.66,351.8,338.19Z"/><path class="0665cdc0-2810-490a-ab60-d913cdf18ddb" d="M343.89,347.53l10.72-.66c.1,1.6.13,2.4.15,4a13.91,13.91,0,0,1-.17,3,3.17,3.17,0,0,1-1.1,1.73,3,3,0,0,1-2.12.61,3.3,3.3,0,0,1-1.64-.47,3.13,3.13,0,0,1-1-1,3.58,3.58,0,0,1-.48-1.21,16.35,16.35,0,0,1-.15-2.39c0-.6,0-.9,0-1.5l-4,.13C344,348.84,343.94,348.4,343.89,347.53Zm9,1.89-3,.1c0,.52,0,.77,0,1.29a7.16,7.16,0,0,0,.18,1.86,1.56,1.56,0,0,0,.52.74,1.36,1.36,0,0,0,.83.28,1.3,1.3,0,0,0,1-.37,1.73,1.73,0,0,0,.48-1,11.56,11.56,0,0,0,.06-1.76C352.92,350.13,352.92,349.89,352.9,349.42Z"/><path class="0665cdc0-2810-490a-ab60-d913cdf18ddb" d="M342.76,366c.1-.53.14-.79.23-1.32l8.29,1.37a8.46,8.46,0,0,1-.68-1.52,11.79,11.79,0,0,1-.46-1.61l1.26.16a10.3,10.3,0,0,0,.94,2.33,5.49,5.49,0,0,0,1.2,1.55c-.07.39-.1.58-.17,1Z"/><path class="0665cdc0-2810-490a-ab60-d913cdf18ddb" d="M341.08,373.18c.15-.52.22-.78.36-1.29l8.12,2.15a8.5,8.5,0,0,1-.53-1.58,11.89,11.89,0,0,1-.3-1.66l1.24.28a10.37,10.37,0,0,0,.71,2.42,5.49,5.49,0,0,0,1,1.67l-.27.95Z"/><path class="0665cdc0-2810-490a-ab60-d913cdf18ddb" d="M282.42,249.76c1.77-3.91,2.66-5.87,4.45-9.77,1.42.64,2.13,1,3.53,1.67a13.88,13.88,0,0,1,2.5,1.45,3,3,0,0,1,.61,3.9,3.33,3.33,0,0,1-1.14,1.27,3.11,3.11,0,0,1-1.36.47,3.48,3.48,0,0,1-1.29-.11,15.25,15.25,0,0,1-2.19-.94l-1.34-.65-1.75,3.65C283.62,250.31,283.22,250.12,282.42,249.76Zm5.86-7.11L287,245.39l1.15.56a6.9,6.9,0,0,0,1.72.68,1.55,1.55,0,0,0,.89-.13,1.37,1.37,0,0,0,.62-.62,1.31,1.31,0,0,0,.12-1,1.68,1.68,0,0,0-.63-.86,11.56,11.56,0,0,0-1.51-.83Z"/><path class="0665cdc0-2810-490a-ab60-d913cdf18ddb" d="M292.72,251.08l2,.93a2.58,2.58,0,0,0-.11,1.75,2.51,2.51,0,0,0,1.12,1.27,2.6,2.6,0,0,0,1.61.5,1.32,1.32,0,0,0,1-.57.94.94,0,0,0,.16-.67,1.84,1.84,0,0,0-.44-.83c-.18-.22-.61-.68-1.3-1.37a6.87,6.87,0,0,1-1.69-2.25,2.75,2.75,0,0,1,.16-2.4,2.56,2.56,0,0,1,1.21-1.08,3.11,3.11,0,0,1,1.83-.19,6.28,6.28,0,0,1,2.21.9,5.2,5.2,0,0,1,2.37,2.57,3,3,0,0,1-.34,2.62c-.8-.5-1.2-.74-2-1.22a1.77,1.77,0,0,0,.1-1.35,2.52,2.52,0,0,0-1.08-1.11,2.85,2.85,0,0,0-1.59-.51.76.76,0,0,0-.67.38.8.8,0,0,0,0,.74,6.88,6.88,0,0,0,1.46,1.74,10.62,10.62,0,0,1,1.69,2,2.87,2.87,0,0,1-.14,3.27,3.13,3.13,0,0,1-1.41,1.13,3.21,3.21,0,0,1-1.9.18,6.61,6.61,0,0,1-2.21-.94,5,5,0,0,1-2.24-2.44A4.14,4.14,0,0,1,292.72,251.08Z"/><path class="0665cdc0-2810-490a-ab60-d913cdf18ddb" d="M308.06,260.95c.52.76.77,1.14,1.27,1.91a4.47,4.47,0,0,1-5.74-.17,4.94,4.94,0,0,1-2-3.31,5.6,5.6,0,0,1,1.14-4.09,5.45,5.45,0,0,1,3.64-2.53A5.33,5.33,0,0,1,310.5,254a5,5,0,0,1,2,3.12,4,4,0,0,1-.34,2.29c-.84-.44-1.27-.66-2.12-1.08a2.22,2.22,0,0,0,.15-1.57,2.59,2.59,0,0,0-1-1.37,2.73,2.73,0,0,0-2.21-.6,3.93,3.93,0,0,0-2.29,1.76,4.42,4.42,0,0,0-1.1,2.79,2.54,2.54,0,0,0,1,1.87,2.32,2.32,0,0,0,1.55.51A3.23,3.23,0,0,0,308.06,260.95Z"/><path class="0665cdc0-2810-490a-ab60-d913cdf18ddb" d="M315,272.61l-.94-.95,5.95-5.93a8,8,0,0,1-1.6-.31,10.78,10.78,0,0,1-1.55-.55l.88-.92a9.65,9.65,0,0,0,2.4.57,5.33,5.33,0,0,0,1.93-.1l.66.67Z"/><path class="0665cdc0-2810-490a-ab60-d913cdf18ddb" d="M328.21,275.29l-1-1a2.35,2.35,0,0,0,.52-1.14,2,2,0,0,0-.5-1.47,2.12,2.12,0,0,0-1.06-.7,3,3,0,0,0-1.71.07,6.36,6.36,0,0,0-2.12,1.35,3.11,3.11,0,0,1,1.63.22,3.47,3.47,0,0,1,1.28.95,3.24,3.24,0,0,1,.8,2.48,3.32,3.32,0,0,1-1.34,2.34,4.08,4.08,0,0,1-1.75.82,3.29,3.29,0,0,1-1.8-.11,3.46,3.46,0,0,1-1.48-1,3.57,3.57,0,0,1-.89-2.86,6.08,6.08,0,0,1,2.23-3.48c1.53-1.4,2.93-2.11,4.19-2.11a3.74,3.74,0,0,1,2.9,1.45,3.51,3.51,0,0,1,.94,2.23A2.87,2.87,0,0,1,328.21,275.29ZM321,273.88a3,3,0,0,0-.78,1.09,2.21,2.21,0,0,0-.16,1.25,2.14,2.14,0,0,0,.48,1.06A2,2,0,0,0,322,278a2.63,2.63,0,0,0,1.81-.68,2.37,2.37,0,0,0,1-1.6,2.11,2.11,0,0,0-.54-1.63,2.2,2.2,0,0,0-3.24-.18Z"/><line class="24724cd5-98c2-4e39-9c0b-8f8b9b5857e9" x1="277.42" y1="236.5" x2="277.42" y2="284.5"/><text class="9a5187c6-c9ef-4382-b16d-3d82127379f4" transform="translate(208.9 300.23) rotate(-0.14)"><tspan class="a8060fd5-b969-4b11-b880-3e2f3a896ef3">CSQ</tspan><tspan class="d31825d5-28dd-40ce-b78d-70fdd76bc136" x="32.5" y="0">P</tspan><tspan class="5830a79a-d37a-4fd9-bb63-b1ebb4ba842c" x="42.24" y="0"> </tspan><tspan class="6b569341-12e4-4280-8260-bf3d83dbf7a9" x="46.41" y="0">1</tspan><tspan class="967a1dc0-dd35-46df-9fdd-df4d81366d11" x="53.63" y="0">1</tspan></text><line class="24724cd5-98c2-4e39-9c0b-8f8b9b5857e9" x1="277.18" y1="284.55" x2="210.5" y2="284.5"/><path class="0665cdc0-2810-490a-ab60-d913cdf18ddb" d="M336.78,291.93c.17.92.24,1.37.38,2.29a4.92,4.92,0,0,1-3.08-.35,5,5,0,0,1-2.09-2.17,5,5,0,0,1-.51-3.84,5.62,5.62,0,0,1,2.65-3.33,5.35,5.35,0,0,1,4.35-.87,5.48,5.48,0,0,1,3.34,2.86,5.22,5.22,0,0,1,.64,3.77,4,4,0,0,1-1.24,2c-.59-.77-.89-1.15-1.5-1.9a2.21,2.21,0,0,0,.77-1.39,2.69,2.69,0,0,0-.34-1.68,2.8,2.8,0,0,0-1.81-1.47,3.85,3.85,0,0,0-2.81.69,4.41,4.41,0,0,0-2.12,2.13,2.59,2.59,0,0,0,.21,2.15,2.36,2.36,0,0,0,1.21,1.1A3.24,3.24,0,0,0,336.78,291.93Z"/><path class="0665cdc0-2810-490a-ab60-d913cdf18ddb" d="M336.69,295.73c.47.73.7,1.09,1.16,1.83a1.53,1.53,0,0,0-.62.87,1.94,1.94,0,0,0,.16,1.19,2.2,2.2,0,0,0,.73,1,.65.65,0,0,0,.61.06.52.52,0,0,0,.31-.28,1.67,1.67,0,0,0,0-.77,14.31,14.31,0,0,1-.35-3.45,2,2,0,0,1,1.2-1.62,2.06,2.06,0,0,1,1.91.1,4.22,4.22,0,0,1,1.7,2.24,4.9,4.9,0,0,1,.47,2.63,2.61,2.61,0,0,1-1,1.63c-.42-.74-.63-1.11-1.07-1.84a1.19,1.19,0,0,0,.46-.73,2,2,0,0,0-.18-1.09,2.53,2.53,0,0,0-.69-1.08.48.48,0,0,0-.48-.07.45.45,0,0,0-.26.35,9.81,9.81,0,0,0,.25,2.13,5.81,5.81,0,0,1,0,2.61,1.83,1.83,0,0,1-1.21,1.15,2.37,2.37,0,0,1-2-.24,4.23,4.23,0,0,1-1.68-2.22,4.68,4.68,0,0,1-.4-2.6A3.07,3.07,0,0,1,336.69,295.73Z"/><path class="0665cdc0-2810-490a-ab60-d913cdf18ddb" d="M342,315.33l-1.24.24a69.25,69.25,0,0,0-1.66-7,2.29,2.29,0,0,1,.92-.1,4.6,4.6,0,0,1,1.61.48,11.85,11.85,0,0,1,2,1.34,18.89,18.89,0,0,0,2.79,2,2.64,2.64,0,0,0,1.69.33,1.66,1.66,0,0,0,1.16-.89,2.39,2.39,0,0,0,.16-1.72,2.42,2.42,0,0,0-1-1.53,2,2,0,0,0-1.69-.22c-.1-.59-.15-.89-.26-1.48a3.12,3.12,0,0,1,2.54.52,4.24,4.24,0,0,1,1.45,2.5,4,4,0,0,1-.24,2.9,2.63,2.63,0,0,1-1.89,1.4,3,3,0,0,1-1.3,0,5.2,5.2,0,0,1-1.47-.67c-.54-.34-1.31-.91-2.31-1.7a18.4,18.4,0,0,0-1.69-1.22,4.19,4.19,0,0,0-.83-.38C341.33,312.15,341.57,313.21,342,315.33Z"/><path class="0665cdc0-2810-490a-ab60-d913cdf18ddb" d="M343.76,316.5c.15.56.22.85.35,1.41a2.5,2.5,0,0,0-1.39,1,2.07,2.07,0,0,0-.31,1.45,2.26,2.26,0,0,0,.91,1.56,2.68,2.68,0,0,0,2,.48,2.32,2.32,0,0,0,1.7-.87,2.45,2.45,0,0,0,.43-1.86,2.58,2.58,0,0,0-.46-1.2,2.28,2.28,0,0,0-.87-.75c0-.53,0-.8-.06-1.34,2.25.07,3.38.11,5.63.23.38,2.41.54,3.62.76,6.06l-1.25.12c-.18-1.93-.29-2.89-.57-4.8l-2.95-.21a3.92,3.92,0,0,1,1,2.11,3.57,3.57,0,0,1-.68,2.7,3.2,3.2,0,0,1-2.4,1.27,3.92,3.92,0,0,1-2.59-.65,3.66,3.66,0,0,1-1.62-2.71,3.72,3.72,0,0,1,.46-2.53A3.25,3.25,0,0,1,343.76,316.5Z"/><path class="0665cdc0-2810-490a-ab60-d913cdf18ddb" d="M136.18,326c.16-.95.25-1.42.43-2.37l6.67,1.29a6.74,6.74,0,0,1,2,.63,3,3,0,0,1,1.27,1.42,4,4,0,0,1,.19,2.28,3.42,3.42,0,0,1-1.24,2.33,3.64,3.64,0,0,1-2.71.55c0-.86,0-1.29.06-2.15a2.79,2.79,0,0,0,1.33-.09,1.23,1.23,0,0,0,.74-1,1.25,1.25,0,0,0-.24-1.11,3.19,3.19,0,0,0-1.64-.6Z"/><path class="0665cdc0-2810-490a-ab60-d913cdf18ddb" d="M147.41,324.34c-1.34-1.44-2-2.17-3.29-3.68-1.73.75-2.59,1.15-4.3,2,.22-1.07.34-1.6.58-2.66,1-.39,1.45-.58,2.42-.94-.68-.8-1-1.21-1.69-2,.26-1,.4-1.52.69-2.52,1.11,1.5,1.67,2.23,2.82,3.67,1.89-.76,2.83-1.12,4.73-1.79-.28,1-.42,1.47-.67,2.46-1.09.38-1.64.57-2.73,1,.78.87,1.17,1.3,2,2.14C147.71,322.91,147.61,323.38,147.41,324.34Z"/><path class="0665cdc0-2810-490a-ab60-d913cdf18ddb" d="M146.21,314.73c.17-.87.26-1.3.44-2.16a2.59,2.59,0,0,0,1.73-.29,2.49,2.49,0,0,0,1-1.38,2.59,2.59,0,0,0,.11-1.68,1.32,1.32,0,0,0-.79-.87,1,1,0,0,0-.69,0,1.84,1.84,0,0,0-.71.61c-.17.22-.52.74-1,1.58a6.84,6.84,0,0,1-1.8,2.14,2.77,2.77,0,0,1-2.38.39,2.57,2.57,0,0,1-1.33-.93,3.08,3.08,0,0,1-.6-1.73,6.21,6.21,0,0,1,.37-2.34,5.17,5.17,0,0,1,2-2.88,3,3,0,0,1,2.63-.27c-.3.89-.44,1.33-.72,2.23a1.78,1.78,0,0,0-1.34.21,2.5,2.5,0,0,0-.83,1.3,2.82,2.82,0,0,0-.14,1.65.76.76,0,0,0,.52.56.81.81,0,0,0,.73-.13,6.85,6.85,0,0,0,1.35-1.81,10.67,10.67,0,0,1,1.56-2.1,2.87,2.87,0,0,1,3.22-.61,3.15,3.15,0,0,1,1.43,1.11,3.19,3.19,0,0,1,.61,1.8,6.56,6.56,0,0,1-.41,2.36,5,5,0,0,1-1.87,2.72A4.16,4.16,0,0,1,146.21,314.73Z"/><path class="0665cdc0-2810-490a-ab60-d913cdf18ddb" d="M144.88,302.56c-.65-.73-1-1.11-1.61-1.85.39-.95.59-1.42,1-2.36.44,1.17.67,1.75,1.15,2.89Zm8.16,3.1-7.22-2.9c.33-.83.5-1.24.85-2.06l7.16,3C153.51,304.51,153.35,304.89,153,305.67Z"/><path class="0665cdc0-2810-490a-ab60-d913cdf18ddb" d="M152.48,288.26l-.61,1.29a2.36,2.36,0,0,0-1.25-.07,2,2,0,0,0-1.19,1,2.11,2.11,0,0,0-.26,1.24,3,3,0,0,0,.69,1.56,6.39,6.39,0,0,0,2,1.48,3.09,3.09,0,0,1-.39-1.6,3.46,3.46,0,0,1,.41-1.54,3.23,3.23,0,0,1,2-1.64,3.32,3.32,0,0,1,2.67.39,4.08,4.08,0,0,1,1.41,1.33,3.29,3.29,0,0,1,.56,1.72,3.45,3.45,0,0,1-.43,1.76A3.55,3.55,0,0,1,155.8,297a6.1,6.1,0,0,1-4.06-.8c-1.86-.91-3-1.94-3.51-3.12a3.71,3.71,0,0,1,.28-3.22,3.5,3.5,0,0,1,1.73-1.68A2.88,2.88,0,0,1,152.48,288.26Zm1.36,7.24a3,3,0,0,0,1.3.32,2.22,2.22,0,0,0,1.22-.3,2.14,2.14,0,0,0,.81-.83,2,2,0,0,0,.11-1.61,2.63,2.63,0,0,0-1.3-1.43,2.38,2.38,0,0,0-1.84-.3,2.1,2.1,0,0,0-1.32,1.09,2.19,2.19,0,0,0-.18,1.72A2.22,2.22,0,0,0,153.84,295.51Z"/><path class="0665cdc0-2810-490a-ab60-d913cdf18ddb" d="M152.3,286.15l-1.09-.64c1.57-2.66,2.4-4,4.15-6.53l.85.58a13.06,13.06,0,0,0,1.18,3.46,15.58,15.58,0,0,0,2.23,3.4,13.19,13.19,0,0,0,2.22,2l-.72,1.17a12.35,12.35,0,0,1-2.34-2,14.16,14.16,0,0,1-2.17-3.06,13.18,13.18,0,0,1-1.24-3.26C154.09,283.17,153.47,284.15,152.3,286.15Z"/><text class="ade03718-3360-4ba0-97d5-d2b892feca64" transform="translate(182.19 401.42) scale(0.99 1)">135 escaños</text></svg>