<svg id="4c378fa0-95ec-44fb-9a25-6c1e22ec6f65" data-name="Capa 1" xmlns="http://www.w3.org/2000/svg" viewBox="0 0 534 454"><defs><style>.\32 bc2d7ba-8b9c-449f-9bd3-df3236401ffb,.\33 68b49e8-9706-45e5-a8bd-4097a81b2b3e,.\34 083a580-7044-41df-90b1-77b706bb5cd3,.\34 b35043c-978f-40df-a97b-31669feca7c2,.\34 d4ba9b0-7da9-4f60-aa3e-a1148d23b457,.\35 09f2de5-0e4d-4e68-b003-aa4713ce54b8,.\36 5b7ee3a-fbcd-47d9-bb6f-cf690ad4021f,.\36 8c9ad65-d5f4-4bd5-a72d-5d161eb9a978,.a75340dd-655d-4dc8-bf5d-44644a7f20a1,.eca787c3-d61e-47dc-b515-d452e7f7b2de,.f5d2cd96-ebac-40fc-9984-990f700aa48d{fill:none;}.\34 d4ba9b0-7da9-4f60-aa3e-a1148d23b457{stroke:#757575;}.\33 68b49e8-9706-45e5-a8bd-4097a81b2b3e,.\34 d4ba9b0-7da9-4f60-aa3e-a1148d23b457,.\35 09f2de5-0e4d-4e68-b003-aa4713ce54b8,.\36 8c9ad65-d5f4-4bd5-a72d-5d161eb9a978{stroke-miterlimit:10;}.dabf0049-0929-4a0a-91bd-d388c9f4c160{font-size:16px;}.\35 5b7f019-4562-4384-b2e3-b34203671f3b,.a07af212-d00d-4c80-aec8-e09c64b1e74f,.b57de242-83f4-4c32-8353-7b303b923722,.dabf0049-0929-4a0a-91bd-d388c9f4c160{fill:#757575;}.a07af212-d00d-4c80-aec8-e09c64b1e74f,.c98a1c6a-024b-4211-beb7-9265416135e8,.d577d054-481d-4922-bf5a-c93b4a990269,.dabf0049-0929-4a0a-91bd-d388c9f4c160{font-family:ArialMT, Arial;}.\30 8e300de-0421-4de6-882e-b07613d8b0bb,.\33 363b0d7-d978-4852-aa16-78c6f8730995,.\34 e66507f-e049-4fba-a0b0-00bbf6f2f68d,.\35 5b7f019-4562-4384-b2e3-b34203671f3b,.\35 f051a46-76d2-4a45-a417-bac7fa844405,.a07af212-d00d-4c80-aec8-e09c64b1e74f,.ae66540a-ae55-49c3-8462-5c54b1f5ee79,.b6753fed-a21c-45f5-968f-90bd99a17c45,.e43dabc6-b911-404d-ae48-93fb9fcf25d4{font-size:13px;}.\30 8e300de-0421-4de6-882e-b07613d8b0bb{fill:#efb21b;}.\30 8e300de-0421-4de6-882e-b07613d8b0bb,.\30 cceca7c-465a-4b0d-95fb-e5730f13322f,.\33 363b0d7-d978-4852-aa16-78c6f8730995,.\34 e66507f-e049-4fba-a0b0-00bbf6f2f68d,.\35 5b7f019-4562-4384-b2e3-b34203671f3b,.\35 f051a46-76d2-4a45-a417-bac7fa844405,.ae66540a-ae55-49c3-8462-5c54b1f5ee79,.b57de242-83f4-4c32-8353-7b303b923722,.b6753fed-a21c-45f5-968f-90bd99a17c45,.e43dabc6-b911-404d-ae48-93fb9fcf25d4{font-family:Arial-BoldMT, Arial;}.\30 8e300de-0421-4de6-882e-b07613d8b0bb,.\30 cceca7c-465a-4b0d-95fb-e5730f13322f,.\33 363b0d7-d978-4852-aa16-78c6f8730995,.\34 e66507f-e049-4fba-a0b0-00bbf6f2f68d,.\35 5b7f019-4562-4384-b2e3-b34203671f3b,.\35 f051a46-76d2-4a45-a417-bac7fa844405,.ae66540a-ae55-49c3-8462-5c54b1f5ee79,.b6753fed-a21c-45f5-968f-90bd99a17c45,.ca44079f-df12-4ff1-b43c-923b91306e10,.e43dabc6-b911-404d-ae48-93fb9fcf25d4{font-weight:700;}.b57de242-83f4-4c32-8353-7b303b923722,.d577d054-481d-4922-bf5a-c93b4a990269{font-size:15px;}.\33 363b0d7-d978-4852-aa16-78c6f8730995{fill:#d57928;}.ae66540a-ae55-49c3-8462-5c54b1f5ee79{fill:#ffe600;}.bd290d0e-2078-46b5-be91-3cd3c57e6386{letter-spacing:-0.02em;}.\35 f051a46-76d2-4a45-a417-bac7fa844405{fill:#991d26;}.b6753fed-a21c-45f5-968f-90bd99a17c45{fill:#8e244f;}.e43dabc6-b911-404d-ae48-93fb9fcf25d4{fill:#59a5a5;}.\33 68b49e8-9706-45e5-a8bd-4097a81b2b3e{stroke:#d6d6d6;}.\34 e66507f-e049-4fba-a0b0-00bbf6f2f68d{fill:#3f4d78;}.e17d39ba-0e3f-414a-8644-9dda7545df31{letter-spacing:-0.07em;}.\30 cceca7c-465a-4b0d-95fb-e5730f13322f,.d577d054-481d-4922-bf5a-c93b4a990269{fill:#323232;}.\30 cceca7c-465a-4b0d-95fb-e5730f13322f{font-size:26px;}.\39 9eecea2-0f8f-465e-91c8-1e0e449fc95e{fill:#283659;}.d92dfe26-7c8c-4470-af84-1ce07285a9bf{fill:#fff;}.\32 bc2d7ba-8b9c-449f-9bd3-df3236401ffb{stroke:#ffe600;}.\32 bc2d7ba-8b9c-449f-9bd3-df3236401ffb,.\34 083a580-7044-41df-90b1-77b706bb5cd3,.\34 b35043c-978f-40df-a97b-31669feca7c2,.\36 5b7ee3a-fbcd-47d9-bb6f-cf690ad4021f,.a75340dd-655d-4dc8-bf5d-44644a7f20a1,.eca787c3-d61e-47dc-b515-d452e7f7b2de,.f5d2cd96-ebac-40fc-9984-990f700aa48d{stroke-width:1.5px;}.a75340dd-655d-4dc8-bf5d-44644a7f20a1{stroke:#efb21b;}.\34 b35043c-978f-40df-a97b-31669feca7c2{stroke:#3f4d78;}.\34 083a580-7044-41df-90b1-77b706bb5cd3{stroke:#8e244f;}.f5d2cd96-ebac-40fc-9984-990f700aa48d{stroke:#991d26;}.eca787c3-d61e-47dc-b515-d452e7f7b2de{stroke:#d57928;}.\36 5b7ee3a-fbcd-47d9-bb6f-cf690ad4021f{stroke:#59a5a5;}.\35 09f2de5-0e4d-4e68-b003-aa4713ce54b8,.\36 8c9ad65-d5f4-4bd5-a72d-5d161eb9a978{stroke:#323232;}.\35 09f2de5-0e4d-4e68-b003-aa4713ce54b8{stroke-dasharray:5.04 5.04;}</style></defs><title>2017.11_Metaencuestafinal</title><line class="4d4ba9b0-7da9-4f60-aa3e-a1148d23b457" x1="15" y1="404.5" x2="536" y2="404.5"/><line class="4d4ba9b0-7da9-4f60-aa3e-a1148d23b457" x1="148.5" y1="405" x2="148.5" y2="412"/><line class="4d4ba9b0-7da9-4f60-aa3e-a1148d23b457" x1="512.5" y1="404" x2="512.5" y2="411"/><line class="4d4ba9b0-7da9-4f60-aa3e-a1148d23b457" x1="44.5" y1="404" x2="44.5" y2="411"/><text class="dabf0049-0929-4a0a-91bd-d388c9f4c160" transform="translate(14.66 399.02) scale(0.99 1)">0</text><text class="dabf0049-0929-4a0a-91bd-d388c9f4c160" transform="translate(14.66 353.02) scale(0.99 1)">5</text><text class="dabf0049-0929-4a0a-91bd-d388c9f4c160" transform="translate(13.5 297.02) scale(0.99 1)">10</text><text class="dabf0049-0929-4a0a-91bd-d388c9f4c160" transform="translate(12.83 195.02) scale(0.99 1)">20</text><text class="dabf0049-0929-4a0a-91bd-d388c9f4c160" transform="translate(12.83 137.02) scale(0.99 1)">25</text><text class="dabf0049-0929-4a0a-91bd-d388c9f4c160" transform="translate(12.83 90.02) scale(0.99 1)">30</text><text class="dabf0049-0929-4a0a-91bd-d388c9f4c160" transform="translate(12.83 245.02) scale(0.99 1)">15</text><text class="a07af212-d00d-4c80-aec8-e09c64b1e74f" transform="translate(13.5 447.02) scale(0.99 1)">Fuente: Electrograph</text><text class="08e300de-0421-4de6-882e-b07613d8b0bb" transform="translate(501.5 158.02) scale(0.99 1)">ERC</text><text class="55b7f019-4562-4384-b2e3-b34203671f3b" transform="translate(30.5 426.02) scale(0.99 1)">26 de octubre</text><text class="55b7f019-4562-4384-b2e3-b34203671f3b" transform="translate(132.5 425.02) scale(0.99 1)">1 de noviembre</text><text class="55b7f019-4562-4384-b2e3-b34203671f3b" transform="translate(437.5 425.02) scale(0.99 1)">1 de desembre</text><text></text><text class="b57de242-83f4-4c32-8353-7b303b923722" transform="translate(333.5 74.02) scale(0.99 1)"><tspan class="ca44079f-df12-4ff1-b43c-923b91306e10">Mediados de noviembre</tspan><tspan class="c98a1c6a-024b-4211-beb7-9265416135e8" x="0" y="18">Se anuncia que Puigdemont </tspan><tspan class="c98a1c6a-024b-4211-beb7-9265416135e8" x="0" y="36">liderará la candidatura </tspan><tspan class="c98a1c6a-024b-4211-beb7-9265416135e8" x="0" y="54">Junts per Cat</tspan></text><text class="3363b0d7-d978-4852-aa16-78c6f8730995" transform="translate(510.5 189.02) scale(0.99 1)">Cs</text><text class="ae66540a-ae55-49c3-8462-5c54b1f5ee79" transform="translate(501.5 370.02) scale(0.99 1)">CU<tspan class="bd290d0e-2078-46b5-be91-3cd3c57e6386" x="18.78" y="0">P</tspan></text><text class="5f051a46-76d2-4a45-a417-bac7fa844405" transform="translate(501.5 240.02) scale(0.99 1)">PSC</text><text class="b6753fed-a21c-45f5-968f-90bd99a17c45" transform="translate(490.5 311.02) scale(0.99 1)">CeC-<tspan class="bd290d0e-2078-46b5-be91-3cd3c57e6386" x="30.34" y="0">P</tspan></text><text class="e43dabc6-b911-404d-ae48-93fb9fcf25d4" transform="translate(510.5 336.02) scale(0.99 1)">P<tspan class="bd290d0e-2078-46b5-be91-3cd3c57e6386" x="8.67" y="0">P</tspan></text><line class="368b49e8-9706-45e5-a8bd-4097a81b2b3e" x1="13.85" y1="199.5" x2="529.01" y2="199.5"/><line class="368b49e8-9706-45e5-a8bd-4097a81b2b3e" x1="13.85" y1="95.5" x2="529.01" y2="95.5"/><line class="368b49e8-9706-45e5-a8bd-4097a81b2b3e" x1="13.85" y1="301.5" x2="529.01" y2="301.5"/><line class="368b49e8-9706-45e5-a8bd-4097a81b2b3e" x1="14.84" y1="357.5" x2="530" y2="357.5"/><line class="368b49e8-9706-45e5-a8bd-4097a81b2b3e" x1="14.84" y1="249.5" x2="530" y2="249.5"/><line class="368b49e8-9706-45e5-a8bd-4097a81b2b3e" x1="14.84" y1="142.5" x2="530" y2="142.5"/><text class="4e66507f-e049-4fba-a0b0-00bbf6f2f68d" transform="translate(457.5 215.02) scale(0.99 1)">JxC<tspan class="e17d39ba-0e3f-414a-8644-9dda7545df31" x="23.85" y="0">A</tspan><tspan x="32.27" y="0">T</tspan></text><text class="d577d054-481d-4922-bf5a-c93b4a990269" transform="translate(94.13 35.74)">Porcentaje de voto de las encuestas publicadas desde <tspan x="68.39" y="18">el 26 de octubre al 1 de diciembre</tspan></text><text class="0cceca7c-465a-4b0d-95fb-e5730f13322f" transform="translate(61.46 22.62)">Evolución de los sondeos del 21-D</text><polygon class="99eecea2-0f8f-465e-91c8-1e0e449fc95e" points="431 435.27 527.44 435.27 527.44 449.93 431 449.93 431 435.27 431 435.27"/><path class="d92dfe26-7c8c-4470-af84-1ce07285a9bf" d="M508.36,438.55h-3.7V439l1,.23v6.81a.81.81,0,0,1-.68.35,1.45,1.45,0,0,1-1.2-.88l-.92-1.65a1.91,1.91,0,0,0-1.69-1.14v-.12a2.26,2.26,0,0,0,2.33-2.1c0-1.42-1.29-2-2.78-2h-3.35V439l1.1.23v6.91h0l-1.26.24L494,437.83a4,4,0,0,1-1.13,1l.12.35-2.87,7-.86.23v.46h2.62v-.46l-.85-.22,1-2.56h2.66l.93,2.54-1,.24v.46H501v-.46l-1-.23V443a1.57,1.57,0,0,1,1.42,1l1.26,2.25a2,2,0,0,0,1.82,1.11,1.8,1.8,0,0,0,1.2-.49h2.85a4.28,4.28,0,0,0,4.39-4.16,4.17,4.17,0,0,0-4.47-4.16ZM492.23,443l1.12-3,1.08,3Zm8.23-.62h-.57v-3.1h.71a1.4,1.4,0,0,1,1.45,1.48,1.61,1.61,0,0,1-1.57,1.62Zm7.82,3.83h-1.18v-6.93h1.22c1.89,0,3,1.31,3,3.46s-1.21,3.46-3.08,3.46Z"/><path class="d92dfe26-7c8c-4470-af84-1ce07285a9bf" d="M447.71,446.17l-3.07-8.34a3.94,3.94,0,0,1-1.13,1l.12.35-2.85,7-.61.23-.18.46h2.54v-.46l-.85-.22,1-2.56h2.66l.93,2.54-1,.24v.46h3.42v-.46l-.91-.23Zm-4.87-3.2,1.13-3,1.08,3Z"/><polygon class="d92dfe26-7c8c-4470-af84-1ce07285a9bf" points="440.39 444.75 440.08 444.58 438.29 446.21 436.75 446.21 436.75 439.25 437.68 439.01 437.68 438.54 434.37 438.54 434.37 439.01 435.3 439.25 435.3 446.15 434.37 446.39 434.37 446.86 439.57 446.86 440.39 444.75 440.39 444.75"/><polygon class="d92dfe26-7c8c-4470-af84-1ce07285a9bf" points="454.83 438.54 454.83 439.01 455.83 439.25 453.66 444.81 451.37 439.24 452.45 439.01 452.45 438.54 448.76 438.54 448.76 439.01 449.82 439.24 453.1 447.14 453.45 447.14 456.72 439.25 456.75 439.25 457.77 439.01 457.77 438.54 454.83 438.54 454.83 438.54"/><path class="d92dfe26-7c8c-4470-af84-1ce07285a9bf" d="M487.6,438.55V439l1,.24s.07,4.12,0,5.16a2.1,2.1,0,0,1-2.14,2h-.11a2.07,2.07,0,0,1-2.24-2.13v-5.07l1-.22v-.46h-3.34V439l.95.23v5.11a3.07,3.07,0,0,0,3.3,2.91,3,3,0,0,0,3.3-2.91l.06-5.1,1-.24v-.46Z"/><path class="d92dfe26-7c8c-4470-af84-1ce07285a9bf" d="M523.7,446.15l-3.06-8.32a3.94,3.94,0,0,1-1.13,1l.12.35-2.86,7-.49.2-.66-.21v-6.94l1-.23v-.46h-3.48V439l1,.24v6.92l-1,.23v.46h5.3v-.46l-.85-.23,1-2.56h2.66l.93,2.54-1,.24v.46h3.43v-.46l-.92-.24ZM518.84,443l1.13-3,1.08,3Z"/><path class="d92dfe26-7c8c-4470-af84-1ce07285a9bf" d="M469.75,438.55V439l1,.24.06,5.44-5.21-6.14H463.4V439l1,.22.08,0-.07,6.88h0l-1,.24-3.14-8.56a4,4,0,0,1-1.1,1l.12.35-2.87,7-.86.23v.46h2.62v-.46l-.85-.22,1-2.56h2.66l.93,2.54-1,.24v.46h5.47v-.46l-1-.24-.12-6,6,7h.39l.08-7.9,1-.23v-.46ZM458.44,443l1.13-3,1.08,3Z"/><path class="d92dfe26-7c8c-4470-af84-1ce07285a9bf" d="M478.52,442.61v.46l.94.24V446a3.11,3.11,0,0,1-1.88.62c-1.89,0-3.1-1.57-3.1-3.79s1.18-4,3.14-4a3,3,0,0,1,2.78,2.26l.27-.16v-2.62l-.24-.13-.52.64a5.24,5.24,0,0,0-2.3-.59,4.65,4.65,0,0,0-4.66,4.58,4.22,4.22,0,0,0,4,4.43h.3a4.29,4.29,0,0,0,2.68-.89l.73.49h.24V443.3l.79-.3v-.38Z"/><path class="2bc2d7ba-8b9c-449f-9bd3-df3236401ffb" d="M43.56,340l70.74,6.17,224.49,1L366.85,340,423,344.07,437,348l39-12,12,8,23,2"/><path class="a75340dd-655d-4dc8-bf5d-44644a7f20a1" d="M43.56,133.4l67.61-49.33,214.56,83.24,26.82-8.22,70.3-26.72L437,158l39,35,12-35,23,6"/><path class="4b35043c-978f-40df-a97b-31669feca7c2" d="M43.56,304l70.74-3.08,224.49-67.83,28.06,2.06L423,264.94h14L476,232l12-1,23-23"/><path class="4083a580-7044-41df-90b1-77b706bb5cd3" d="M43.56,291.66l70.74,10.28L338.79,326.6l28.06-10.28L423,335.85,437,318l39,8,12,7,23-18"/><path class="f5d2cd96-ebac-40fc-9984-990f700aa48d" d="M43.56,249.53l70.74,29.8,224.49-29.8,28.06-30.83L423,251.58,437,254l39-13,12,7,23-1"/><path class="eca787c3-d61e-47dc-b515-d452e7f7b2de" d="M43.56,203.28l70.6,13.36,224.07-41.11,28,38,56-68.85L437,191l39-20,12,23h23"/><path class="65b7ee3a-fbcd-47d9-bb6f-cf690ad4021f" d="M43.56,315.3l70.74-3.08,224.49,12.33,28.06,21.58,56.12-1L437,309l39,40,12-18,23,13"/><line class="68c9ad65-d5f4-4bd5-a72d-5d161eb9a978" x1="329.5" y1="71" x2="329.5" y2="73.5"/><line class="509f2de5-0e4d-4e68-b003-aa4713ce54b8" x1="329.5" y1="78.54" x2="329.5" y2="398.48"/><line class="68c9ad65-d5f4-4bd5-a72d-5d161eb9a978" x1="329.5" y1="401" x2="329.5" y2="403.5"/></svg>