<svg id="cd399471-fd5b-47c1-80df-18df6d096f21" data-name="Capa 1" xmlns="http://www.w3.org/2000/svg" viewBox="0 0 543 555"><defs><style>.\31 0ba46fb-e245-4890-bea9-dc95988fcd22,.\35 fb01eef-b211-461a-aca9-b5465af3d92f,.\37 d8fb961-ba70-405d-80e3-cabbd710450b,.f138aee8-634a-45df-b778-3c8a6e7984e8{fill:none;}.\37 d8fb961-ba70-405d-80e3-cabbd710450b{stroke:#757575;}.\30 7acfdd6-ddd1-419a-becd-3c4386cc5a37,.\30 d8ef84e-fd9b-4870-ba83-3ce7333fd072,.\31 0ba46fb-e245-4890-bea9-dc95988fcd22,.\32 d94584a-8abd-457f-aa87-7e0e76cd8af7,.\32 fcb3bbf-a7f6-413e-9f8b-f7c80f7c1d24,.\34 b2c7f04-e746-45a0-9da1-ac2ebdfa10c6,.\35 fb01eef-b211-461a-aca9-b5465af3d92f,.\36 81811cb-3e4a-40cf-abf0-2f31708e8988,.\37 8d14b80-d3c6-4070-b20d-cb0bb5adc134,.\37 c9d1b84-21f4-4ce6-be04-8d247bf6d759,.\37 d8fb961-ba70-405d-80e3-cabbd710450b,.\39 de241f9-140f-4758-b0ec-b8e26ddce6d9,.f138aee8-634a-45df-b778-3c8a6e7984e8{stroke-miterlimit:10;}.f975c55d-daab-4047-a223-7889f35dde5a{font-size:16px;}.\32 fcb3bbf-a7f6-413e-9f8b-f7c80f7c1d24,.\33 75cd388-ba63-4925-9519-ad38d7045e00,.\33 dee8f23-9da7-4a3a-a75f-9afc47d1d038,.\34 233cda7-23ed-4f0e-b8bb-e17498cb82f4,.f975c55d-daab-4047-a223-7889f35dde5a{fill:#757575;}.\30 307fb57-c387-4ad1-aa10-5e4d99e4f5f4,.\32 9920d0e-6f46-47fa-8c0c-6b7333d8aafd,.\33 064f8b1-9818-4bf7-bc0e-421f1c3ee29a,.\33 75cd388-ba63-4925-9519-ad38d7045e00,.d915461f-9394-48bc-9660-149e9325a022,.f975c55d-daab-4047-a223-7889f35dde5a{font-family:ArialMT, Arial;}.\33 75cd388-ba63-4925-9519-ad38d7045e00{font-size:13px;}.\33 dee8f23-9da7-4a3a-a75f-9afc47d1d038,.\34 233cda7-23ed-4f0e-b8bb-e17498cb82f4{font-size:15px;}.\31 d0b724a-eb2d-4d65-815b-d8254f1e3540,.\33 dee8f23-9da7-4a3a-a75f-9afc47d1d038,.\34 233cda7-23ed-4f0e-b8bb-e17498cb82f4,.\39 ac96ed9-ecc5-4e04-9462-e0a4d62ff949{font-family:Arial-BoldMT, Arial;}.\31 83193c0-7475-41a8-834d-c4a9be854b3e,.\31 d0b724a-eb2d-4d65-815b-d8254f1e3540,.\33 925184a-1bf8-48a0-b365-df48ea9fdf91,.\33 dee8f23-9da7-4a3a-a75f-9afc47d1d038,.\38 a81e335-8d2f-4a3d-974d-e4fd6242ed80,.\39 2f81db2-536d-4f26-9d2a-ef5a4311a6cf,.af8fe489-b81f-4b93-9a64-c61ae2feb34b{font-weight:700;}.dd2bf5ca-86f8-4ece-a46f-5d1b97529ea2{letter-spacing:-0.02em;}.ea4f9238-80d6-40a5-b848-248e2bed796e{letter-spacing:-0.07em;}.\34 abf76da-e904-4915-93ae-c120482835c7{letter-spacing:-0.02em;}.\31 0ba46fb-e245-4890-bea9-dc95988fcd22{stroke:#d6d6d6;}.\31 d0b724a-eb2d-4d65-815b-d8254f1e3540{font-size:26px;}.\31 d0b724a-eb2d-4d65-815b-d8254f1e3540,.\39 ac96ed9-ecc5-4e04-9462-e0a4d62ff949{fill:#323232;}.aebe829e-8fb4-4868-b0f1-d9e17c936790{fill:#283659;}.\35 e23cd32-665a-4adb-978c-ea3f75697674{fill:#fff;}.dbf3846f-b3fc-4496-bb77-f214cf7c2b35{opacity:0.82;}.\36 81811cb-3e4a-40cf-abf0-2f31708e8988{fill:#991d26;}.\30 7acfdd6-ddd1-419a-becd-3c4386cc5a37,.\30 d8ef84e-fd9b-4870-ba83-3ce7333fd072,.\32 d94584a-8abd-457f-aa87-7e0e76cd8af7,.\32 fcb3bbf-a7f6-413e-9f8b-f7c80f7c1d24,.\34 b2c7f04-e746-45a0-9da1-ac2ebdfa10c6,.\36 81811cb-3e4a-40cf-abf0-2f31708e8988,.\37 8d14b80-d3c6-4070-b20d-cb0bb5adc134,.\37 c9d1b84-21f4-4ce6-be04-8d247bf6d759,.\39 de241f9-140f-4758-b0ec-b8e26ddce6d9{stroke:#fff;stroke-width:0.5px;}.\30 7acfdd6-ddd1-419a-becd-3c4386cc5a37,.\30 d8ef84e-fd9b-4870-ba83-3ce7333fd072,.\32 d94584a-8abd-457f-aa87-7e0e76cd8af7,.\32 fcb3bbf-a7f6-413e-9f8b-f7c80f7c1d24,.\36 81811cb-3e4a-40cf-abf0-2f31708e8988,.\37 8d14b80-d3c6-4070-b20d-cb0bb5adc134,.\37 c9d1b84-21f4-4ce6-be04-8d247bf6d759,.\39 de241f9-140f-4758-b0ec-b8e26ddce6d9{opacity:0.76;}.\31 04d1d4c-ba63-429d-88e0-3f8844c80d6e{opacity:0.86;}.\32 d94584a-8abd-457f-aa87-7e0e76cd8af7{fill:#59a5a5;}.\37 8d14b80-d3c6-4070-b20d-cb0bb5adc134{fill:#3f4d78;}.\30 7acfdd6-ddd1-419a-becd-3c4386cc5a37{fill:#efb21b;}.\34 b2c7f04-e746-45a0-9da1-ac2ebdfa10c6,.\35 ac6fec7-72db-45ca-85d3-fc2146c6ae77{opacity:0.52;}.\34 b2c7f04-e746-45a0-9da1-ac2ebdfa10c6,.\39 de241f9-140f-4758-b0ec-b8e26ddce6d9{fill:#ffe600;}.\30 d8ef84e-fd9b-4870-ba83-3ce7333fd072{fill:#d57928;}.\37 c9d1b84-21f4-4ce6-be04-8d247bf6d759{fill:#8e244f;}.\33 925184a-1bf8-48a0-b365-df48ea9fdf91{letter-spacing:-0.02em;}.\30 307fb57-c387-4ad1-aa10-5e4d99e4f5f4,.\31 83193c0-7475-41a8-834d-c4a9be854b3e{letter-spacing:0em;}.\39 2f81db2-536d-4f26-9d2a-ef5a4311a6cf,.d915461f-9394-48bc-9660-149e9325a022{letter-spacing:0em;}.\38 a81e335-8d2f-4a3d-974d-e4fd6242ed80{letter-spacing:-0.07em;}.\39 ac96ed9-ecc5-4e04-9462-e0a4d62ff949{font-size:17px;}.\33 064f8b1-9818-4bf7-bc0e-421f1c3ee29a{letter-spacing:0em;}.\35 fb01eef-b211-461a-aca9-b5465af3d92f,.f138aee8-634a-45df-b778-3c8a6e7984e8{stroke:#323232;}.f138aee8-634a-45df-b778-3c8a6e7984e8{stroke-dasharray:5.41 5.41;}</style></defs><title>2017.12.04_CIS_voto</title><line class="7d8fb961-ba70-405d-80e3-cabbd710450b" x1="9" y1="361.42" x2="530" y2="361.42"/><text class="f975c55d-daab-4047-a223-7889f35dde5a" transform="translate(8.66 355.02) scale(0.99 1)">0</text><text class="f975c55d-daab-4047-a223-7889f35dde5a" transform="translate(7.66 295.02) scale(0.99 1)">5</text><text class="f975c55d-daab-4047-a223-7889f35dde5a" transform="translate(5.5 233.02) scale(0.99 1)">10</text><text class="f975c55d-daab-4047-a223-7889f35dde5a" transform="translate(7.83 111.02) scale(0.99 1)">20</text><text class="f975c55d-daab-4047-a223-7889f35dde5a" transform="translate(7.83 48.02) scale(0.99 1)">25</text><text class="f975c55d-daab-4047-a223-7889f35dde5a" transform="translate(7.83 171.02) scale(0.99 1)">15</text><text class="375cd388-ba63-4925-9519-ad38d7045e00" transform="translate(8.5 544.02) scale(0.99 1)">Fuente: Barómetro de noviembre del CIS</text><text class="3dee8f23-9da7-4a3a-a75f-9afc47d1d038" transform="translate(132.5 381.02) scale(0.99 1)">ERC</text><text class="3dee8f23-9da7-4a3a-a75f-9afc47d1d038" transform="translate(61.5 380.02) scale(0.99 1)">Cs</text><text class="3dee8f23-9da7-4a3a-a75f-9afc47d1d038" transform="translate(410.5 380.02) scale(0.99 1)">CU<tspan class="dd2bf5ca-86f8-4ece-a46f-5d1b97529ea2" x="21.66" y="0">P</tspan></text><text class="3dee8f23-9da7-4a3a-a75f-9afc47d1d038" transform="translate(275.5 380.02) scale(0.99 1)">PSC</text><text class="3dee8f23-9da7-4a3a-a75f-9afc47d1d038" transform="translate(194.5 380.02) scale(0.99 1)">JxC<tspan class="ea4f9238-80d6-40a5-b848-248e2bed796e" x="27.52" y="0">A</tspan><tspan x="37.24" y="0">T</tspan></text><text class="3dee8f23-9da7-4a3a-a75f-9afc47d1d038" transform="translate(338.5 380.02) scale(0.99 1)">CeC-<tspan class="dd2bf5ca-86f8-4ece-a46f-5d1b97529ea2" x="35" y="0">P</tspan></text><text class="3dee8f23-9da7-4a3a-a75f-9afc47d1d038" transform="translate(479.5 380.02) scale(0.99 1)">P<tspan class="4abf76da-e904-4915-93ae-c120482835c7" x="10.01" y="0">P</tspan></text><line class="10ba46fb-e245-4890-bea9-dc95988fcd22" x1="8.85" y1="298.5" x2="529.36" y2="298.5"/><line class="10ba46fb-e245-4890-bea9-dc95988fcd22" x1="8.85" y1="236.5" x2="529.36" y2="236.5"/><line class="10ba46fb-e245-4890-bea9-dc95988fcd22" x1="8.85" y1="174.5" x2="529.36" y2="174.5"/><line class="10ba46fb-e245-4890-bea9-dc95988fcd22" x1="8.85" y1="114.5" x2="529.36" y2="114.5"/><line class="10ba46fb-e245-4890-bea9-dc95988fcd22" x1="8.85" y1="52.5" x2="529.36" y2="52.5"/><text class="1d0b724a-eb2d-4d65-815b-d8254f1e3540" transform="translate(73.06 24.62)">Porcentaje de voto según el CIS</text><polygon class="aebe829e-8fb4-4868-b0f1-d9e17c936790" points="431 536.27 527.44 536.27 527.44 550.93 431 550.93 431 536.27 431 536.27"/><path class="5e23cd32-665a-4adb-978c-ea3f75697674" d="M508.36,539.55h-3.7V540l1,.23v6.81a.81.81,0,0,1-.68.35,1.45,1.45,0,0,1-1.2-.88l-.92-1.65a1.91,1.91,0,0,0-1.69-1.14v-.12a2.26,2.26,0,0,0,2.33-2.1c0-1.42-1.29-2-2.78-2h-3.35V540l1.1.23v6.91h0l-1.26.24L494,538.83a4,4,0,0,1-1.13,1l.12.35-2.87,7-.86.23v.46h2.62v-.46l-.85-.22,1-2.56h2.66l.93,2.54-1,.24v.46H501v-.46l-1-.23V544a1.57,1.57,0,0,1,1.42,1l1.26,2.25a2,2,0,0,0,1.82,1.11,1.8,1.8,0,0,0,1.2-.49h2.85a4.28,4.28,0,0,0,4.39-4.16,4.17,4.17,0,0,0-4.47-4.16ZM492.23,544l1.12-3,1.08,3Zm8.23-.62h-.57v-3.1h.71a1.4,1.4,0,0,1,1.45,1.48,1.61,1.61,0,0,1-1.57,1.62Zm7.82,3.83h-1.18v-6.93h1.22c1.89,0,3,1.31,3,3.46s-1.21,3.46-3.08,3.46Z"/><path class="5e23cd32-665a-4adb-978c-ea3f75697674" d="M447.71,547.17l-3.07-8.34a3.94,3.94,0,0,1-1.13,1l.12.35-2.85,7-.61.23-.18.46h2.54v-.46l-.85-.22,1-2.56h2.66l.93,2.54-1,.24v.46h3.42v-.46l-.91-.23Zm-4.87-3.2,1.13-3,1.08,3Z"/><polygon class="5e23cd32-665a-4adb-978c-ea3f75697674" points="440.39 545.75 440.08 545.58 438.29 547.21 436.75 547.21 436.75 540.25 437.68 540.01 437.68 539.54 434.37 539.54 434.37 540.01 435.3 540.25 435.3 547.15 434.37 547.39 434.37 547.86 439.57 547.86 440.39 545.75 440.39 545.75"/><polygon class="5e23cd32-665a-4adb-978c-ea3f75697674" points="454.83 539.54 454.83 540.01 455.83 540.25 453.66 545.81 451.37 540.24 452.45 540.01 452.45 539.54 448.76 539.54 448.76 540.01 449.82 540.24 453.1 548.14 453.45 548.14 456.72 540.25 456.75 540.25 457.77 540.01 457.77 539.54 454.83 539.54 454.83 539.54"/><path class="5e23cd32-665a-4adb-978c-ea3f75697674" d="M487.6,539.55V540l1,.24s.07,4.12,0,5.16a2.1,2.1,0,0,1-2.14,2h-.11a2.07,2.07,0,0,1-2.24-2.13v-5.07l1-.22v-.46h-3.34V540l.95.23v5.11a3.07,3.07,0,0,0,3.3,2.91,3,3,0,0,0,3.3-2.91l.06-5.1,1-.24v-.46Z"/><path class="5e23cd32-665a-4adb-978c-ea3f75697674" d="M523.7,547.15l-3.06-8.32a3.94,3.94,0,0,1-1.13,1l.12.35-2.86,7-.49.2-.66-.21v-6.94l1-.23v-.46h-3.48V540l1,.24v6.92l-1,.23v.46h5.3v-.46l-.85-.23,1-2.56h2.66l.93,2.54-1,.24v.46h3.43v-.46l-.92-.24ZM518.84,544l1.13-3,1.08,3Z"/><path class="5e23cd32-665a-4adb-978c-ea3f75697674" d="M469.75,539.55V540l1,.24.06,5.44-5.21-6.14H463.4V540l1,.22.08,0-.07,6.88h0l-1,.24-3.14-8.56a4,4,0,0,1-1.1,1l.12.35-2.87,7-.86.23v.46h2.62v-.46l-.85-.22,1-2.56h2.66l.93,2.54-1,.24v.46h5.47v-.46l-1-.24-.12-6,6,7h.39l.08-7.9,1-.23v-.46ZM458.44,544l1.13-3,1.08,3Z"/><path class="5e23cd32-665a-4adb-978c-ea3f75697674" d="M478.52,543.61v.46l.94.24V547a3.11,3.11,0,0,1-1.88.62c-1.89,0-3.1-1.57-3.1-3.79s1.18-4,3.14-4a3,3,0,0,1,2.78,2.26l.27-.16v-2.62l-.24-.13-.52.64a5.24,5.24,0,0,0-2.3-.59,4.65,4.65,0,0,0-4.66,4.58,4.22,4.22,0,0,0,4,4.43h.3a4.29,4.29,0,0,0,2.68-.89l.73.49h.24V544.3l.79-.3v-.38Z"/><g class="dbf3846f-b3fc-4496-bb77-f214cf7c2b35"><rect class="681811cb-3e4a-40cf-abf0-2f31708e8988" x="267.65" y="162" width="42.84" height="198.25"/></g><g class="104d1d4c-ba63-429d-88e0-3f8844c80d6e"><rect class="2d94584a-8abd-457f-aa87-7e0e76cd8af7" x="464.58" y="291" width="42.84" height="69.25"/></g><g class="104d1d4c-ba63-429d-88e0-3f8844c80d6e"><rect class="78d14b80-d3c6-4070-b20d-cb0bb5adc134" x="192.41" y="154" width="42.84" height="206.25"/></g><g class="dbf3846f-b3fc-4496-bb77-f214cf7c2b35"><rect class="07acfdd6-ddd1-419a-becd-3c4386cc5a37" x="123" y="107" width="42.84" height="253.25"/></g><g class="5ac6fec7-72db-45ca-85d3-fc2146c6ae77"><rect class="9de241f9-140f-4758-b0ec-b8e26ddce6d9" x="400.82" y="280" width="42.18" height="80.25"/></g><g class="dbf3846f-b3fc-4496-bb77-f214cf7c2b35"><polygon class="0d8ef84e-fd9b-4870-ba83-3ce7333fd072" points="49.5 92 92.5 92 92.5 360.5 49.57 360.5 49.5 92"/></g><g class="104d1d4c-ba63-429d-88e0-3f8844c80d6e"><rect class="7c9d1b84-21f4-4ce6-be04-8d247bf6d759" x="336.33" y="264" width="42.84" height="96.25"/></g><text class="4233cda7-23ed-4f0e-b8bb-e17498cb82f4" transform="translate(283.99 511.06) rotate(-0.14)"><tspan class="af8fe489-b81f-4b93-9a64-c61ae2feb34b">CeC-</tspan><tspan class="3925184a-1bf8-48a0-b365-df48ea9fdf91" x="35" y="0">P</tspan><tspan class="183193c0-7475-41a8-834d-c4a9be854b3e" x="44.74" y="0"> </tspan><tspan class="d915461f-9394-48bc-9660-149e9325a022" x="48.9" y="0">8,6</tspan></text><text class="4233cda7-23ed-4f0e-b8bb-e17498cb82f4" transform="translate(304.02 478.04) rotate(-0.14)"><tspan class="af8fe489-b81f-4b93-9a64-c61ae2feb34b">PSC </tspan><tspan class="29920d0e-6f46-47fa-8c0c-6b7333d8aafd" x="35.01" y="0">16</tspan></text><text class="4233cda7-23ed-4f0e-b8bb-e17498cb82f4" transform="translate(173.99 478.07) rotate(-0.14)"><tspan class="af8fe489-b81f-4b93-9a64-c61ae2feb34b">JxC</tspan><tspan class="8a81e335-8d2f-4a3d-974d-e4fd6242ed80" x="27.52" y="0">A</tspan><tspan class="af8fe489-b81f-4b93-9a64-c61ae2feb34b" x="37.24" y="0">T </tspan><tspan class="29920d0e-6f46-47fa-8c0c-6b7333d8aafd" x="50.57" y="0">16,9</tspan></text><text class="4233cda7-23ed-4f0e-b8bb-e17498cb82f4" transform="translate(97.36 478.06) rotate(-0.14)"><tspan class="af8fe489-b81f-4b93-9a64-c61ae2feb34b">ERC </tspan><tspan class="0307fb57-c387-4ad1-aa10-5e4d99e4f5f4" x="35.84" y="0">20,8</tspan></text><text class="4233cda7-23ed-4f0e-b8bb-e17498cb82f4" transform="translate(30.66 478.05) rotate(-0.14)"><tspan class="af8fe489-b81f-4b93-9a64-c61ae2feb34b">CU</tspan><tspan class="3925184a-1bf8-48a0-b365-df48ea9fdf91" x="21.67" y="0">P</tspan><tspan class="92f81db2-536d-4f26-9d2a-ef5a4311a6cf" x="31.4" y="0"> </tspan><tspan class="29920d0e-6f46-47fa-8c0c-6b7333d8aafd" x="35.57" y="0">6,7</tspan></text><text class="4233cda7-23ed-4f0e-b8bb-e17498cb82f4" transform="translate(395.6 478.04) rotate(-0.14)"><tspan class="af8fe489-b81f-4b93-9a64-c61ae2feb34b">Cs </tspan><tspan class="29920d0e-6f46-47fa-8c0c-6b7333d8aafd" x="23.34" y="0">22,5</tspan></text><text class="4233cda7-23ed-4f0e-b8bb-e17498cb82f4" transform="translate(455.49 478.03) rotate(-0.14)"><tspan class="af8fe489-b81f-4b93-9a64-c61ae2feb34b">P</tspan><tspan class="3925184a-1bf8-48a0-b365-df48ea9fdf91" x="10" y="0">P</tspan><tspan class="af8fe489-b81f-4b93-9a64-c61ae2feb34b" x="19.74" y="0"> </tspan><tspan class="29920d0e-6f46-47fa-8c0c-6b7333d8aafd" x="23.91" y="0">5,8</tspan></text><text class="4233cda7-23ed-4f0e-b8bb-e17498cb82f4" transform="translate(432.36 511.06) rotate(-0.14)"><tspan class="af8fe489-b81f-4b93-9a64-c61ae2feb34b">Otros </tspan><tspan class="d915461f-9394-48bc-9660-149e9325a022" x="44.17" y="0">2,7</tspan></text><line class="7d8fb961-ba70-405d-80e3-cabbd710450b" x1="352.5" y1="496.55" x2="284.5" y2="496.55"/><line class="7d8fb961-ba70-405d-80e3-cabbd710450b" x1="503.5" y1="497.5" x2="431" y2="497.5"/><line class="7d8fb961-ba70-405d-80e3-cabbd710450b" x1="284.42" y1="458.5" x2="284.42" y2="496.5"/><line class="7d8fb961-ba70-405d-80e3-cabbd710450b" x1="503.42" y1="457.5" x2="503.42" y2="497.5"/><rect class="4b2c7f04-e746-45a0-9da1-ac2ebdfa10c6" x="49" y="441.51" width="30.65" height="16.17"/><rect class="07acfdd6-ddd1-419a-becd-3c4386cc5a37" x="79.69" y="441.51" width="95.15" height="16.17"/><rect class="78d14b80-d3c6-4070-b20d-cb0bb5adc134" x="175.05" y="441.51" width="77.31" height="16.17"/><rect class="7c9d1b84-21f4-4ce6-be04-8d247bf6d759" x="252.13" y="441.51" width="39.34" height="16.17"/><rect class="681811cb-3e4a-40cf-abf0-2f31708e8988" x="291.23" y="441.51" width="73.19" height="16.17"/><rect class="0d8ef84e-fd9b-4870-ba83-3ce7333fd072" x="364.3" y="441.51" width="102.93" height="16.17"/><rect class="2d94584a-8abd-457f-aa87-7e0e76cd8af7" x="467.32" y="441.51" width="26.53" height="16.17"/><rect class="2fcb3bbf-a7f6-413e-9f8b-f7c80f7c1d24" x="493.61" y="441.51" width="13.39" height="16.17"/><text class="9ac96ed9-ecc5-4e04-9462-e0a4d62ff949" transform="translate(226.77 419.08) scale(0.99 1)"><tspan class="af8fe489-b81f-4b93-9a64-c61ae2feb34b">50%</tspan><tspan class="3064f8b1-9818-4bf7-bc0e-421f1c3ee29a" x="34.03" y="0" xml:space="preserve"> de los votos</tspan></text><line class="5fb01eef-b211-461a-aca9-b5465af3d92f" x1="277.5" y1="425.5" x2="277.5" y2="428"/><line class="f138aee8-634a-45df-b778-3c8a6e7984e8" x1="277.5" y1="433.41" x2="277.5" y2="484.8"/><line class="5fb01eef-b211-461a-aca9-b5465af3d92f" x1="277.5" y1="487.5" x2="277.5" y2="490"/></svg>