<svg id="Capa_1" data-name="Capa 1" xmlns="http://www.w3.org/2000/svg" viewBox="0 0 628.13 574.22"><defs><style>.cls-1{fill:#b3c0e2;}.cls-1,.cls-5,.cls-6,.cls-7{stroke:#fff;stroke-miterlimit:10;}.cls-2{font-size:22px;fill:#323232;font-family:Arial-BoldMT, Arial;font-weight:700;}.cls-3{letter-spacing:-0.07em;}.cls-4{letter-spacing:-0.04em;}.cls-5{fill:#070d2d;}.cls-6{fill:#2d3e60;}.cls-7{fill:#8a96b7;}.cls-8,.cls-9{isolation:isolate;fill:#757575;font-family:ArialMT, Arial;}.cls-8{font-size:16px;}.cls-9{font-size:14px;}.cls-10{letter-spacing:-0.02em;}.cls-11{letter-spacing:-0.09em;}.cls-12{fill:#283659;}.cls-13{fill:#fff;}</style></defs><title>2017.09_Alemania_electioncomparison</title><path class="cls-1" d="M157.23,156.26l-1.31.68-.44.85-.36.21-1.37-.06-.4-.16-1.48-1.25-.69-1.16-.8-.55-.06.7-.92,1-1.17.63-1.52-.52,0-.89-.44-.59-.68.67-.63.09-1.36-1.41-.37-1,0-.33-.55-.45.19-.86.1-1.15-1.17-.14.45-1.57-.08-.22.49-1.22,1,1.25.63.57.23-.07,1.43-1.55.53-.88v-.49l1.08,0,1.07.18.16-1,.22-.35,1.14-.09.74.13.25-1.1-.29-.32.37-.43,1.19,0,1-.73.82.24-.29,1-1.05,1.34.89.74,1.2,1.33-.71,1.16,0,1.06-.73.06-.41.26-.11.61.42,1.88,1.84,1.2.15.54,1.75,1.82Zm-47.14-22.7-.79,0,.15-.67.7.28Zm-2-1.46-.43-.37.52-.48.26.27Z" transform="translate(-2.03 -6.87)"/><path class="cls-1" d="M123.4,135.64l.71-.07,3.15.18,1.64.14,1.53.67.78.6,1.18,1.77,1.19,2.74.69,1,1.21,1,.64.86.46,1.4,0,.52.5,1.33,1,.81,2.2,1.5,1.51.42,1.17.14-.1,1.15-.19.86.55.45,0,.33.37,1,1.36,1.41.63-.09.68-.67.44.59,0,.89,1.52.52,1.17-.63.92-1,.06-.7.8.55.69,1.16,1.48,1.25.4.16,1.37.06.36-.21.44-.85,1.31-.68.52.35,1.35.1,1.47,1.19,1.79,1,1.19.26,1,.42.44-.14.41-.25.77-.11h1.61l.91.75.14.39,1.42,1.29,1.17.5,1.45-.91.79-1.05,1.87.62,1.11,2.45,1,1.9.81,1.05,1.25.91,1.12.25.42.47-.63.88.24.37,1.7.46.7.74.07.85.4.57L185,173l.45.19,1.49-.86L188,172l.6.25,1.14,1.11,2.09.5.39,0-.9,1.07-1.42.31-.49,2.16.39.82-1,.13-.48.29-1.64,1.44-2,1.06-.55.19-1.65-.59-.44-.43-1.76-.16-1.18.31-.55-.16.13-.62-2.63.1-.28.2-.09.91-1.29,1.53-1.41.35-.81-.26-.7.2-1-.13-.93.36.14.38-.43,2.28.55,1,.63,2.22.73-.16.31.45.49,1.22.68.78.57,1,.69,1.47.6-.26.6-.5.34.1-.12.9-.89.69-.08,1,.35,1,.72,1.08,1,1.16-.73,0-1,.49-.38.65,0,.44,1.09,1.43,1.81,1.85,1,.68-.17.88-.82.39-.44-.05-.56.54,1,1.15.09.42-.76.65.69.69.66,1.37.41,0,.35.62-.28.47-1.24.33-.49.62,0,.74.63.47h.67v.79l-.63.92-1.36,1-1.3.4,0,.43.84.4.08.57-.24.73-.83-.09-1.61,0-.76.43-.6.09-1.21-.09-2.54.08-1.35.32.2.75-.56.54-1,.3-1.09.12.72,1.09,1,1.05.52-.23.19.38-.68.24-.33.5,0,.78,1,.57.09.9-.62.84-1.24.86-.23.44v1.33l.1,1.47.35.67.41.26.73,1,1.07,2-.14.24.22,1.07.85,1.2-.67.46-1,.42-.23,1.2.16.56.77.3-.36.79-1.55-.65-.33.4-.73.46-1.21.13-.26-.11-.53-.83-1.82-.83-1.15.27-.34.2.09.74-.37,1.13-.65,1-1.25,1.15-1.8.79-.63,0-.29-.4-.8.75-.73,1.78-.26.1-1.55-.3-1.37.36L148,248.74l-1.7,1.2-.41.12,0-1.08-.59-1.05-1.6.29,0,.59.29,1.39-.61-.6v-.8l-.82-.44-.5.18-1,.94-1.62.95,0,.2,1,1.51.79-.39.3.45-.19,1-1.05.51-1.49-.79-1.47-.34-1.35-1.09-.38.09-.4-.78.25-1.26.5-.81,1.46-.33.36-.45-.36-1.15-.2-1.71-.92-1.66.62-.26.36-.39.46-1.29-.28-.65.26-.54,1.1.75.38-.64-.69-.48-.67-.8-.06-.74-.27-.53-.4.38-1.21.22-1.48-.15-.69-.5.16-.8-1.68.12-1.49.19-.33-.21.09-.55.5-.82.21-.91-.67-1.89.25-.64.44-.17,1.4-1.61-.17-1.43.12-1-.55-.44-1.64-.45-.57.17-.13-.54.12-.81-.09-.84-.79-.66-.74,0-.63-1.16.45-.71-.37-.65-1.36.08-.31.65-.45-.25-.42-.92.68-1.17-.21-.75-.36-.38,0-1.19.47-.51-.41-.67-.78-.63.39-.93-.41-.69-.45-.17-.78.23-1.55-.46-.75-.32,0-1.08-.23-.42,1-.14.19-.5-.08-.58.86-1.15-2.6-1.3-.41-.92.62-.35.17-1.21.22-.52.81-.82.94.26,1.08-1.4.77-1.53,0-.75-.36-.63-.44-.34.27-.61.93-.83-.2-.42-2-.78-2.37,3.23-1,1.14-2.3.5-1.88-.51-1.15.48-1.08-.41-.11-4.15.15-.64-1.4-1.44-2.64,1.28-1.28-.71-1.44.86-.22,1.53-.71.58-1.9.11-1.21-.54-.55-.13.61,1.42-.24.91.3.27,1.87.77,1.37,1.14.38,2-.14.69.19,1.6v1l-.73,1.4.1.69.44.32,1,.34.08.37-.35.54-.72.48-.46,0-1.26.85v.91l-.62.3-.68-.5-1.09-.36-.4.29-1.17-.65L98.25,215l-.55.7-.84.72-1.29.15-.87.42-.13-.31-.69-.24-1-.07-1.12.79-.56.54L89.6,217l-.25-.73-.58-.86.45-.33,3.13-.89-.07-1.34.64-.65-.46-.78-1.9-.11-.83-.67,0-.88,1.25-2.5.3-.3-.68-1,.18-.42.7-.12.53-.3-.73-1,.05-.65-.27-.72-1.29-.87-1.41.5-.91-.18-2.09-1.34-.45-.13-.23-1.53-.5-1.15L82,197.15l-.54.72L81,199.11l.46.3-.19,1-.71,1.53-.79-.11-.85.38-2,1.52-1.86,1-.26.54-.53.23-.79.06-.58.68L71,206.05l-2-.27-1.05.14-.69.81h-1l-.54-.74-.31-.79v-.89l1-2,.5-.61.07-.94-.29-1.18-.65-.25-.94-2.93-.42,0-.44.77-.66.49-2.13-.89-.21-.4L59,196.17l-.58-.22L57,194.79l.33-1.53-.53-1.47.93.2,1.44-.48L58,190.18l.33-2,.52-.52,1.09-.22,1,.28H63l.66.57,1,.09.66-.2.87.43.81.26.39-.47,1-7,.7-1.68-.08-.57.59-.73,2.27-3.17.8-2.16.29-1-.15-3.13.21-1.43-.45-.41-.07-.76.69-1.55.8-.11-.29-1.77-.13-1.26.35-.24.49-1.3.14-1,.38-1.15-.28-.26-1.83-.29-2.93-.17L68.8,157l-.46-1,0-.59.45-1.39.11-1.26.53-2,.67-1.26-.34-1.11.51-.23,1.25.74.64-.12.58-.68-.57-.42-.82-1,.12-.37,2-2.07,2.3-1.61,1.41-.42,1.86-.09.26.14,2.85.16,1.18.62,1.25-.2,3.13-.88,1,.13,1,0,.68-.29,1.18,0,2.19-.21,2.66.42.51.35-.25.91.15,1.23.27.7.74-.2.36.17.71,1.29.18.76,1.1,2.51-.31.56.11.54-.25.27-1.53.52-.67,0-.37.58.24,1.09.67.86.52-.25.87.14,1.39,2.24,1.18.21.85-.68.5-.79.53-1.4.1-1.8-.07-.76-.29-.22-1,.27-.89-.14.41-2.63.3-.61.85-.73.57-.22.83.15.41.33.87,1.46.29.22,1.78.85,1.39.21.82.5.08,1.08-1.2.76-.49,1,2.07-.58.25.19.83,0,1.14-1.11-.46-2-.32-.9.35-.24.6-1-.67-.15-.84.52-1.35-.63h-.62l-.88-2.32.06-1.72,1.16-2.45.63-2.45.71-1.75.93-1.25,1.07-.59,1.14-.2.29.72.27,0,.62.9.65.66,1,.59,2.66.29,2.22-.42,1,.06-.53-1.49Zm-14.88,30,.58.5,1.26.77.85.2.36.34.76,2.09v.41l.4.27-.11.39.3.46.67.22.19.53-.15.68.29.67.4.16,1.26-.08.76.35,2.39.94.54.13,1.6-1.26v-.67l-.55-2.86.94-.35-.68-1-.41-.22-.55.35-.18.51-1.34,0-1-1.37-2.16-.28-.51-.78-2-.22L111,165.17l-.57-.23-.66.36-.64-.38-.32-.56-.78,0-.08.3ZM64,144.94H62.64l-.54.33-.51.68-.6.16-.76-.57-.23-.8.33-.38,2.42-.54.72.37Zm11.78-4.73H78l.65.14-.3.43-1.88.32-2.91.1-.43-.45.82-.48.81-.18Zm10.58-.47-.48.14-1.08-.17-1.64.13-.58.78-.51.11-.2-.67.39-.74.42-.17,2.59.05.94.24Zm4.36-.64-1,.34-1.65-.21-.34.47-.36-.12.09-.58.79-.56,2,.08.8.13ZM69.27,142l-2.51.14-.84-.08v-.27l4.28-.31h1.23l.61.31Zm25.33-3.56-.6.36-.83-.31.44-.39Zm-13.48,1.77,0,.56-1.87-.31.52-.52h.58Zm19,2-.76.09-.12-.54.6-.43.6.38Zm-33.24.73-.71.95-.49-.74.67-.46Z" transform="translate(-2.03 -6.87)"/><path class="cls-1" d="M108.51,165.6l-.56-.95.08-.3.78,0,.32.56.64.38.66-.36.57.23,1.41,1.28,2,.22.51.78,2.16.28,1,1.37,1.34,0,.18-.51.55-.35.41.22.68,1-.94.35.55,2.86v.67l-1.6,1.26-.54-.13-2.39-.94-.76-.35-1.26.08-.4-.16-.29-.67.15-.68-.19-.53-.67-.22-.3-.46.11-.39-.4-.27v-.41l-.76-2.09-.36-.34-.85-.2-1.26-.77Zm1.81-14.11.44-1.29L109.7,148l-.1-.59h.62l1.35.63.84-.52.67.15-.6,1-.35.24.32.9.46,2-1.14,1.11-.83,0-.25-.19-2.07.58.49-1Z" transform="translate(-2.03 -6.87)"/><path class="cls-1" d="M132,237.11l.15.25-.6.67-.73.18-.61-.06-1.17.56.86,1.15-1.45,1.88-.24.84-.79.71-1.26.74-.71.74-.09,1-.84-.35-.31.13-.39.81-.34.15-1.75-.23-.31-1L122,244l-.44-.39-1.16,0-.56-.69L116.68,244l-.49.27,0,.63,1.11,1.89.39.09,0,.82-.34,1-1.39-.18-1.07.65-1-.55-.44-.1-.93.19-.42.34-.77.24-.7-.16-2.56,1.68-.51.57-1.46,2.08.89,1.33.58.17,2.15-.95.36-.4.8.22.27.74L111,255l.76,3.39-.67.75-.65.39-.62.72.19.9.36.37-1.43.42-3.25-.31-.78.25-.72.75.64.75-.17,1.26.43.8-1.16.93-1.24,1.47-.35,1.5-.57.71-.81.67-.67,1.2-.52.52-.89-.11-.92.14-.42-.93-.57-.06-2.59,2.36L93.5,275l-1,.57,1,2.12.07.45L92.69,280l-.49.38-.78-.88-.66-.12-.49.45-.58-.1.06-1.39-1.13-1.39-.85-.92-.07-.61.3-.78.19-1.28-.28-.71-1.79-.2-.49-1.2L84,270.7l.2-1.13.52-.78L82.87,268l-.33.49-.79.44-.13.64.1,1.86-.29.86-1.43.88-.72.27-.11.31.24.74-.09.78-.55.46-1.35-.09-.73.52,0,.71-.27.2-1-.49-2.16,1.16-.63,0-1,.33-.41-.43-1.23.09-.14,2-.37,1-2,.73-1.15.24-.48-.24-.84.13.08-1.13-.52.22-.23.67-.52.72-.81.52-1-.34-.33.72-.56.15-1-.93-1.6,1.72-.8.39-1.36-.28-.92,1.26-.52.19.1.88.48.29-.26,1.55-1.42.61-1.2-1-.27-1-.91.19-.84.56,0,.22.6,1.74.43.55L51,291.33l.4.83-.12.57-1.58.41-1.08.16L48,292l-.4.17-.23.91-.42.11-.42-.5.22-.8-.62-.78-2.29.66-1.46,1.33-1,0,.36-1.16-.3-.54-1-.91-.81.14.4,1.86.57,1.13-.66-.09.11-.54-1.29-1.78-.46-.45.78-1,.53-1.6-.06-1-.92-.43.15-.93-.22-.41-.67-.47L37,284.9l-1.75-.12-.77-1-.33-1,0-.77,1.43-1,.7-.17.9-1.34.08-.34-1.08-.09-1.29-.25-.59-.83.43-.26-1.48-3.31-.62-.31L31,274.2l-.22-.72.22-.54-1.05-2-.61-.63.36-.59.54.47.76-.78-.16-.64.1-.56,1-.39.53.44.52-1.14-.28-.78.23-.86.45-.59-.62-.13-1.52-.7,0-1.25.44-1-1.7,0-1.43-.09-.37-.47-.59-1.52-.22-1.54,1.45-.57.55,1.44.43.06.47-.34.55-1.22,1.13-.91.56-.06,1.41-1.06.56-.55,1.09-.34.84-.11.41-.41-1-.8,1.22-.46-.38-.41-1.26.47-.54.39-.72-.07-.2-.55v-1.72l.23-1,.41-.22,1.22-1.12,1-1.44.55-1.1.65-.27,1.12-.89-.4-1.88.8-3.19-.11-1.89-.28-.73-1.08-1.94-1.68-2,1-2.23-2.14-.94-.25-.3,0-1.39.6-.34-.35-.39L34.08,227l-1-.08v-.49l1.13-.67L34,224.34l-.54-.66-.21-.69.53-.5.88.33,1.79-.8,3.1.84,0-.9-.94-1.86.81-.16.92.63,0,.5.84.66,1.65-.12.56.32.93.87L46,224l.28.08-.37-1.71.12-.42,1.63.55.5.56.85-.28.88-.58,1.5-.6,1.66-.41,1.08-.44.64.3.64.7,1.44-.84.76-.85.21-1,.85-.19.15-.37-.1-.95-1.93-1.78-1-.6-.79-.08,0-.64.31-.76,1.13-.09.4-.35.36-.84.1-.75,1.74.16.93,0,.54-.47.3-1.09.8-.83,1.27-.16.73-1.08.46-.93.84.16.58-.1.74-.55h1l.69-.81,1.05-.14,2,.27,1.88.12.58-.68.79-.06.53-.23.26-.54,1.86-1,2-1.52.85-.38.79.11.71-1.53.19-1-.46-.3.48-1.24.54-.72,2.12.91.5,1.15.23,1.53.45.13,2.09,1.34.91.18,1.41-.5,1.29.87.27.72-.05.65.73,1-.53.3-.7.12-.18.42.68,1-.3.3-1.25,2.5,0,.88.83.67,1.9.11.46.78-.64.65.07,1.34-3.13.89-.45.33.58.86.25.73,1.6.72.56-.54,1.12-.79,1,.07.69.24.13.31.87-.42,1.29-.15.84-.72.55-.7,1.42-1.15,1.17.65.4-.29,1.09.36.68.5.62-.3v-.91l1.26-.85.46,0,.72-.48.35-.54-.08-.37-1-.34-.44-.32-.1-.69.73-1.4v-1l-.19-1.6.14-.69-.38-2-1.37-1.14-1.87-.77-.3-.27.24-.91-.61-1.42.55.13,1.21.54,1.9-.11.71-.58.22-1.53,1.44-.86,1.28.71,2.64-1.28,1.4,1.44-.15.64.11,4.15,1.08.41,1.15-.48,1.88.51,2.3-.5,1-1.14,2.37-3.23,2,.78.2.42-.93.83-.27.61.44.34.36.63,0,.75-.77,1.53-1.08,1.4-.94-.26-.81.82-.22.52-.17,1.21-.62.35.41.92,2.6,1.3-.86,1.15.08.58-.19.5-1,.14.23.42,0,1.08.75.32,1.55.46.78-.23.45.17.41.69-.39.93.78.63.41.67-.47.51,0,1.19.36.38.21.75-.68,1.17.42.92.45.25.31-.65,1.36-.08.37.65-.45.71.63,1.16.74,0,.79.66.09.84-.12.81.13.54.57-.17,1.64.45.55.44-.12,1,.17,1.43-1.4,1.61-.44.17-.25.64.67,1.89-.21.91-.5.82-.09.55.33.21Z" transform="translate(-2.03 -6.87)"/><path class="cls-1" d="M145.88,250.06l-.13,1,.15.59,1.18,2.57,2.37.31.14.45.25,2,.12.1,2.68.64.47.22.85.8.56.15,0,.63-.59.41-.2.59.26.46,0,1.06-.31.29-.65-.75.15-.57-.38-.55-1.17.34-.23.37,1.12.83.35.64-.78,1-.11,1.22,1.27.53.86,1-.27.83-.7.43-1,.25-.58-.42-1.56-.42-1-.05-.54.83.08.45,1.13,1.83-.41.3-1.81.18.78.69,1.27,1.43V273l-1,.71-.08.85.48.16-.43.62-.8.25-.61-.3-.7.53L146,277l.26.42-.07.53-.78.32.37.51.09.83-.8,1.77L144,282.9l0,1.59,2,.34.42-.08.25-.56-.62-.95.4-.33,1.16-.33,1.48.13.47.76.49,1.22-1,.38-.38.55.34.67.22,2-.57,1.17.07.58-.22,1.22-.48,1.1-.63.28-1.08,1.45-1.79,1.15-1.28.32-1-.38-.52-.82-1.11-.18-.54.5.27.48-.5,1.81-.4.46.44.78v1.18l-.28.58-1.07,1-1.17.4-.83,1-.09.7-.41.57-1.16,0-.23-.54-1.74-.07-.54-.36-.15.64.46,1.23-.2,1.51.08,1.72.29.88-.2.93-1-.07-2.07.45-.51-.52-.56-1.59-1.1-.17-1.68-.5-1.7-.31-.46,0-.8.49-.82,1.61-.44-.61-.7-.61-.69,0-.18.39-1.48.08-.76.15-.66.9v.85l-.65,1,.12.46.71-.11.8.46v1.53l-.45.57-.05.69.27,3.17.37,1.8-.32.19.2.59-.15.65.84.45.41.88.26,1.11.54-.33.69.14.09.6-.63.39-.26.71.66.18.67.62-.77,1.68-1.11.52-.09,1.29.39.36-.06.86-1.07.88-.08.94.62.28.46,1-.32,1.7.63.39.33.6-.61.57-.19-.8-1-.1-.59.63-.27.62-.79.14-.12-.28-.79-.36-.87.28-.89,1.57.59.79-.82.62-2.15,2-1.07,0-.6-.42.12-.75.81-.23.16-.39-.25-1.79.79-.6.75.85.72-.81,0-.88-.53-.17-1.16.28-1.43-.67-1.14-.24-1-.35-.67-.62-.52-1.82,0-.78.46-.48-.08-1.06-.43-.16-2.65.62-.11.69.37.13.4,2.38-1.22,1.05-.64,0-.59-.51-.4-.93-.95-1.22-.86-.82-.5-.07-.8.27-.3-.91-.79-1.13L96.77,328l.2-.87.42-.33,1.38-.43.61-.31,1.3-1.86-.18-.26-1.11.05-.49-.26-.55-1.58-.62-1,.29-1.5-.9-.54-.27-.51,0-.69.4-1.23L96.91,315l-.35-.72-.68-.91-.43-.36-.81-1.2-.75-.67-1-.27-.82,0L86,313.13l-1,.25-1.78,0-.54-.28-.25-1.33-.22-.45-.84-.66-1.18-1.2.08-.74,1.53-.59.26-1.33.56-.84,1.28.4.86.82.16-1.74-1.11-1-.13-.87,1.11-1.18,2-.82.78.5.64,0,.82-.68L88,300.23l.46-.63,1.09,0,.2.59.7.08.61-.8,0-.74-.29-1.4-.74-.42-.4-1.68-1.17-1.65-1.6-.55,1.09-2.44-.62-1.1.2-1.15.3-.52L89,286.51l.6-.08.5.24.11.47,1,.3.53-.25,1-2.47-.33-1.22-.75-1.84.11-.85.45-.45.49-.38.85-1.82-.07-.45-1-2.12,1-.57.84-1.2,2.59-2.36.57.06.42.93.92-.14.89.11.52-.52.67-1.2.81-.67.57-.71.35-1.5,1.24-1.47,1.16-.93-.43-.8.17-1.26-.64-.75.72-.75.78-.25,3.25.31,1.43-.42-.36-.37-.19-.9.62-.72.65-.39.67-.75L111,255l.15-.37-.27-.74-.8-.22-.36.4-2.15.95-.58-.17-.89-1.33,1.46-2.08.51-.57,2.56-1.68.7.16.77-.24.42-.34.93-.19.44.1,1,.55,1.07-.65,1.39.18.34-1,0-.82-.39-.09-1.11-1.89,0-.63.49-.27,3.14-1.08.56.69,1.16,0,.44.39-.52,1.32.31,1,1.75.23.34-.15.39-.81.31-.13.84.35.09-1,.71-.74,1.26-.74.79-.71.24-.84,1.45-1.88-.86-1.15,1.17-.56.61.06.73-.18.6-.67-.15-.25,1.68-.12-.16.8.69.5,1.48.15,1.21-.22.4-.38.27.53.06.74.67.8.69.48-.38.64-1.1-.75-.26.54.28.65-.46,1.29-.36.39-.62.26.92,1.66.2,1.71.36,1.15-.36.45-1.46.33-.5.81-.25,1.26.4.78.38-.09,1.35,1.09,1.47.34,1.49.79,1.05-.51.19-1-.3-.45-.79.39-1-1.51,0-.2,1.62-.95,1-.94.5-.18.82.44v.8l.61.6-.29-1.39,0-.59,1.6-.29.59,1.05Z" transform="translate(-2.03 -6.87)"/><path class="cls-1" d="M92.2,280.37l-.45.45-.11.85.75,1.84.33,1.22-1,2.47-.53.25-1-.3-.11-.47-.5-.24-.6.08-1.16,1.29-.3.52-.2,1.15.62,1.1L86.83,293l1.6.55,1.17,1.65.4,1.68.74.42.29,1.4,0,.74-.61.8-.7-.08-.2-.59-1.09,0-.46.63,1.09,1.14-.82.68-.64,0-.78-.5-2,.82-1.11,1.18.13.87,1.11,1-.16,1.74-.86-.82-1.28-.4-.56.84-.26,1.33-1.53.59-.08.74,1.18,1.2.84.66.22.45.25,1.33.54.28,1.78,0,1-.25,6.09-2.19.82,0,1,.27.75.67.81,1.2.43.36.68.91.35.72.35,1.64-.4,1.23,0,.69.27.51.9.54-.29,1.5.62,1,.55,1.58.49.26,1.11-.05.18.26-1.3,1.86-.61.31-1.38.43-.42.33-.2.87.71,2.55.79,1.13.3.91L98.25,334l.46,1.64.88,2.44-.67.62.06.49.43.2h.88l.58.42-.43,1.5.05,1.6-.45.92-.93.74-.22.37.18.58.53.23.37.52-.07.41-.63.3-2.49,2.2.43.71-.23.58-1,1.73v1.17l-.43,1.93-.36.78L94.1,357.3l-.45,1-.21,1.09-.56,1.07-1.64,1.18-.31-.48L89.33,361l-2.43-.63-.76-.49-.53-.77L84,358.3l-1.57-1.36-.41-.14-.31.6-1-.22-.77.68-.37-.14-1.79-1.56-.85.81-1.14.11-1.23-.57-.55.4-1.32-.54v-.87l-.84-.5-1.41-.09-.79-.76-.91-1.87.33-.93-.35-.68-1.48-.84-2.51.4-.08.68-1.23-1.55-.56-1-.28-1,.06-.41.54-.73.54.38.71-1.1.88-.32.44-.59.37-1-.26-.3.56-.74.12-1.48-.27-.15-.81.28-2.29-1.37.25-.41-.47-.95-.57-.35L62,336.93l1.29-.44.61-.78-.73-.54.16-1.18-.09-2.51-.4-.77-.71.46-.69.05-.77-.57-.43-.52.1-.55-.66-.33-.43.36-1.56-.35-.19-.56-.63-1L56,327.3l-.52.47-.6-.31-1.47-.22-1.52.83-1.23.43-.57.69-.83-.19-.51.24L48,330l-.93.44-3.59.46-.83.74-.83-.25-.43-.63h-.74l-.56.44-.87-.17-.66-.69L37.34,330l-.49,0-1-.29,0-.43-.55-.68.83-1.15.53-.17.69-.66.72-1.51-.24-.77,2.34-1.85.21-1.82.56-.86L40.75,318l-.85-.71-.68.42-.73-.05-1-.66-.53-.86-1.61-.63-.82-1-.9-.55-.75-1-.16-2.36-.48-.31-.8-.06-.75-2.17.17-.42-.08-.76-.67-2,.75-2.12.72-1.35-.29-1.26.25-.47,1,.13.35-.14,0-1.1-.52-.93.33-.52,1-.76,1.57-.49.9-.63,0-.54.7-1.13.64-.16,1,1,.66-.68.65,0,.66.09L40,292.56l-.4-1.86.81-.14,1,.91.3.54-.36,1.16,1,0,1.46-1.33,2.29-.66.62.78-.22.8.42.5.42-.11.23-.91L48,292l.72,1.27,1.08-.16,1.58-.41.12-.57-.4-.83L51.6,290l-.43-.55-.6-1.74,0-.22.84-.56.91-.19.27,1,1.2,1,1.42-.61.26-1.55-.48-.29-.1-.88.52-.19.92-1.26,1.36.28.8-.39,1.6-1.72,1,.93.56-.15.33-.72,1,.34.81-.52.52-.72.23-.67.52-.22L65,281.51l.84-.13.48.24,1.15-.24,2-.73.37-1,.14-2,1.23-.09.41.43,1-.33.63,0,2.16-1.16,1,.49.27-.2,0-.71.73-.52,1.35.09.55-.46.09-.78-.24-.74.11-.31.72-.27,1.43-.88.29-.86-.1-1.86.13-.64.79-.44.33-.49,1.82.83-.52.78L84,270.7l1.68.53.49,1.2,1.79.2.28.71L88,274.62l-.3.78.07.61.85.92,1.13,1.39-.06,1.39.58.1.49-.45.66.12Z" transform="translate(-2.03 -6.87)"/><path class="cls-1" d="M102.38,424l-.32-.29.48-.66,1-.41.26.66-.24.52Zm30.45,5.9-.92,0-.85-.25-.39-.4-.63-1.63-.66-1-1.53-.32-.89-.51-.75-.17-1.41.34-1.44-.67-1.51-1-.68-.67-.52-1v-.48l-.37-.37-1.83-1.05-.5-.09-.5-.68-1.79-1.34-.27-.37-.69-.14-.2.63,1.46,1.59,1.6,1.12.73.22.71.66,1.05,2.28.22.88-.37.25-.8-.2-.42.53-1.54-.61-1-.62-2.33-.41-1.34.57-1.32.8-1.55.34-1.38-1.67.06-.77.74.18-.1-.56-1.2-.47-1.16-1-.88.77-.05.54.93.25.37.48-.47.83-.35-.06-1.6-.83-.73-1.83.13-.42.84-.69-.84-.65-.29.2-1.47-1.93-.41.63.15.72-.68.64-.38-.47.08-1-.17-.64L99.31,418l-.47,1.13-1.32.47-.8.05-1.4,1.46-1.37,2.2-.24.9.2.43L95.72,426l1.93-.2,0-.74,1.24-.46,1.35.12.71.88-1.09.41.18,1.54-.7.71-.68-.27.27-.77-1-.71-.75-.15-2,1.44.29.91.59.33-1.66.45-2-.16L90.8,429l-.81-.81-.07-.91-1.2-.47-1.31-.22-3.58,1.52-.45.88-.44.29-2.13.24-.75-.32-1.29-.12-.57.6-1-.34-.26-1.5-.32-.32-.76-.14-1.57,0-.35.72-.59.66-1.5.54-1.86.4-1-.21-1-1.22,1.7-.12.14-.29-.64-1-.75-.26-.17.37-.7.47-.35,0-.5-1.37-.71-1.36-.83-.81-.57-.78-.18-1.71.26-.44.91-.86.11-.87L65.42,418l.11-1.14,1-2.21,0-2,.79-.69.14-1.41.26-.63.78-.78.46-.92-.16-.9-.32-.71-1-1.38.14-2.31.4-1,.07-1.12.84-1.67,1.43-2.07.91-.92.83-2.78.12-.79.42-.44,1.06-.38.37-.7-.27-1.47,0-1.24.17-.66L75,385.4l.24-1.73,1-.64.3-.73.09-2-.11-1.1,1.11-1.78.47-1.08,1.28-.56.44-.41,2.35-2.66.19-1.39.43-.26.72.17L84,371l.29-1,.38-.25.93,0,.6-.44.57-.76.49-1.65.45-1.16L88.8,364l1.25-1.86,1.18-.46,1.64-1.18.56-1.07.21-1.09.45-1,1.11-1.25.36-.78.43-1.93v-1.17l1-1.73.23-.58-.43-.71,2.49-2.2.63-.3.07-.41-.37-.52-.53-.23-.18-.58.22-.37.93-.74.45-.92-.05-1.6.43-1.5-.58-.42H99.4l-.43-.2-.06-.49.67-.62-.88-2.44L98.25,334l.31-1.35.8-.27.5.07.86.82.95,1.22.4.93.59.51.64,0,1.22-1.05-.4-2.38-.37-.13.11-.69,2.65-.62.43.16.08,1.06-.46.48,0,.78.52,1.82.67.62,1,.35,1.14.24,1.43.67,1.16-.28.53.17,0,.88-.72.81-.75-.85-.79.6.25,1.79-.16.39-.81.23-.12.75.6.42,1.07,0,2.15-2,.82-.62-.59-.79.89-1.57.87-.28.79.36.12.28.79-.14.27-.62.59-.63,1,.1.19.8.61-.57-.33-.6-.63-.39.32-1.7.17-.08,2,.15.23.18,1,0,1.14-.41,1.12-1.39-.46-.82,1-.75.55-.1,2,.4.72-.07.42-.61-.64-.63.78-1.16-.24-.86-.4-.71-.58.12,0,.79-.77.23-.42-.63.85-.39-.94-.43-.5.13-.86-.45.61-1.19,1.45-.24.95.11.51-.43,1.05.22.55.28.61-.79.58-.06.4.32-.06.76.34.26.81-.17,3-1.23-.34,1.72-.21,1.8-.22.64.83.76.69-.28.08-1.08,1-.5.16.87.36,1,.69-.37.11-.7,1.17-.93,1.23,1.31.25.94-.56.8.28.81.68.29.38,1v.72l-.6,1.43-.32.39-.9.57,1,.46.48.07.19-1,.32-.51.76-.36.39,0,.42,1.73-.09,2-.34.69.48.42.78.16,2-.18,1.29-1.58-.7-.49,1-.73.45.08.23.58-.43.25.18.65,1,.44,0,1.47-.67.73-.08.49.52.34.66.11.88,2-.54.54-.57-.21-.57.41-.16,1.66.21.72.88.11.2.5-.41.53.08.43.56.76-.13.52-.46.31-.43.72.11,2.23.16.28.81.11,2.16,1.52.71.61.22.81-.94.56-.64,1,.78.4.65-.11.37,1.48.09.77,2.6.83,1,1.38.91,1.05,0,.5.5.28.83,1.07.17,1-.1,2.72-.18,2.26-.47,1.77-.4.16-.11,1.17.68.48,1.34,1.55.34,1-.84.74-.48.22-1.24.24-.08-.31.86-.94-.1-.54h-.77l-.47.46-.1,1-.86.65-.34,0-.14-1.12-.4-.6-1,.19-1.09-.85-.41,1.1-.07.76.45.85,1.71,1.84-.83.23-.08.67.52.64.14,1,0,1.4-.52.46-2.13.3.3.9-.72.16-1,.55-.88.9-1,.08-.29-.69-.59,0-1.23.62-.88,0-.21,1.64-1.19,1.44-.66.66-.09.45.76.16.09.81,2.12,3.93,0,1.71.69,2,.83,3.11.78,1,.22,1.56-.06,1.26-.5.7.34.57-.55.91-.16,1.38-.66.19-.24,1,.75.8-.22,2.48-.69.67,1.59,2.65-2.09,1.25.41.82,1.18.54-.18,1,.22,1.33.61.68-.31,1.08-1.24.59-.42.48-.69-1.26-1-.27-.8.19-.44.33-.46.87-.57.22-.93-.1-1.35-.64-.48-.41-.72-.18-.64.25-.18.74-2.7,2.62-1.34.08-.44-.45-1.15-.11-.79.89Z" transform="translate(-2.03 -6.87)"/><path class="cls-1" d="M160.87,431.61l-.76,2.54.28.83.92.49.25,2.12-1,.89-.68,1.56-2.28,2.27-.37.79-2.12,1.56-1.34.54-2.27.33.16-1.21.69-.12.53-.68-.49-.72.16-.56,1-1.63-.25-.88-1.52-.18-.39.32v.71l-.88.21-.79-.42-.67,1-.54-1.9-.43-.78.85-.39.34-.53-.71-1.42-1.26-1.48-1.26.23-.35-.2-1-1.69-.14-.67-1.26.21-1.47-.52-.13.56-1.13-.71-.59-.6.15-.25,0-1.3-.71-.43-.87.06-.65.72L137,432.5l-.54-.78-1.92-.41-1.49-.79-.21-.58,1-.45.79-.89,1.15.11.44.45,1.34-.08,2.7-2.62.18-.74.64-.25.72.18.48.41,1.35.64.93.1.57-.22.46-.87.44-.33.8-.19,1,.27.69,1.26.42-.48,1.24-.59.31-1.08-.61-.68-.22-1.33.18-1-1.18-.54-.41-.82,2.09-1.25-1.59-2.65.69-.67.22-2.48-.75-.8.24-1,.66-.19.16-1.38.55-.91-.34-.57.5-.7.06-1.26-.22-1.56-.78-1-.83-3.11-.69-2,0-1.71-2.12-3.93-.09-.81-.76-.16.09-.45.66-.66,1.19-1.44.21-1.64.88,0,1.23-.62.59,0,.29.69,1-.08.88-.9,1-.55.72-.16-.3-.9,2.13-.3.52-.46,0-1.4-.14-1-.52-.64.08-.67.83-.23L155,378.75l-.45-.85.07-.76.41-1.1,1.09.85,1-.19.4.6.14,1.12.34,0,.86-.65.1-1,.47-.46h.77l.1.54-.86.94.08.31,1.24-.24.48-.22.84-.74-.34-1-1.34-1.55-.68-.48.11-1.17.4-.16.47-1.77.18-2.26.1-2.72-.17-1-.83-1.07-.5-.28,0-.5-.91-1.05-1-1.38-2.6-.83-.09-.77-.37-1.48-.65.11-.78-.4.64-1,.94-.56-.22-.81-.71-.61-2.16-1.52-.81-.11-.16-.28-.11-2.23.43-.72.46-.31.13-.52-.56-.76-.08-.43.41-.53-.2-.5-.88-.11-.21-.72.16-1.66.57-.41.57.21.54-.54-.88-2-.66-.11-.52-.34.08-.49.67-.73,0-1.47-1-.44-.18-.65.43-.25-.23-.58-.45-.08-1,.73.7.49-1.29,1.58-2,.18-.78-.16-.48-.42.34-.69.09-2-.42-1.73-.39,0-.76.36-.32.51-.19,1-.48-.07-1-.46.9-.57.32-.39.6-1.43v-.72l-.38-1-.68-.29-.28-.81.56-.8-.25-.94L140.68,327l-1.17.93-.11.7-.69.37-.36-1-.16-.87-1,.5-.08,1.08-.69.28-.83-.76.22-.64.21-1.8.34-1.72-3,1.23-.81.17-.34-.26.06-.76-.4-.32-.58.06-.61.79-.55-.28-1.05-.22-.51.43-.95-.11-1.45.24-.61,1.19.86.45.5-.13.94.43-.85.39.42.63.77-.23,0-.79.58-.12.4.71.24.86-.78,1.16.64.63-.42.61-.72.07-2-.4-.55.1-1,.75.46.82-1.12,1.39-1.14.41-1,0-.23-.18-2-.15-.17.08-.46-1-.62-.28.08-.94,1.07-.88.06-.86-.39-.36.09-1.29,1.11-.52.77-1.68-.67-.62-.66-.18.26-.71.63-.39-.09-.6-.69-.14-.54.33-.26-1.11-.41-.88-.84-.45.15-.65-.2-.59.32-.19-.37-1.8-.27-3.17.05-.69.45-.57V312l-.8-.46-.71.11-.12-.46.65-1v-.85l.66-.9.76-.15,1.48-.08.18-.39.69,0,.7.61.44.61.82-1.61.8-.49.46,0,1.7.31,1.68.5,1.1.17.56,1.59.51.52,2.07-.45,1,.07.2-.93-.29-.88-.08-1.72.2-1.51-.46-1.23.15-.64.54.36,1.74.07.23.54,1.16,0,.41-.57.09-.7.83-1,1.17-.4,1.07-1,.28-.58v-1.18l-.44-.78.4-.46.5-1.81-.27-.48.54-.5,1.11.18.52.82,1,.38,1.28-.32,1.79-1.15,1.08-1.45.63-.28.48-1.1.22-1.22.29-.1,1.28-1.37.4-.69.39-.05.28.74.62-.15,1.57-.1.81,1.12.34.81,1.92.94.68,0,.32.52.19,1,.39.58,1,.9-.29.94.32.67.88.09.84-.45.64,1.37,1.19,1.06.32-.19.93,0,.32.76,1.08.2,0,1.47-.27,1.43.65,2.24.69,0,.83-.19.75.39.89.68.43-.47-.15-1.54.58.16,2.46.26.61-.37-.09-1.27-1.18-.31-1.13-.71-1.59-1.24,0-2,1.22.23.91-1.26,2.21-.12,1.19.12,1-.39.77.79V297l.74.79.31-.67,1.28.2.25.77,1.17-.55.16-.45.81-.07,1.29,1.64.07.32-.8.64,0,.52.41.71,1,.74.32-.09.24-1,1.53,1.15.39-.36L185,299l.22-1.47.56-.33-.42-1.53-.15-1,0-.89-.49-1.34-.13-.68,2.19-.6.32-.89.34-.5.74-.13,1.61.3.5.66-.6.3.09,2.39.92.56h1l.44,1.46.7.87L194,296l.44-.8.59-.12,1,.7,2.19-.62,1.55-.77,1.33-.21.86,1.28,1.26-.55.48-.74,1.14-.41.37,0,1.07,1.2.49,1-.21,1.16.62-.15,1,.66.79.34,1-.08.31.66.75.47.48,1.37-.38.41-.8.38-.23.52.56.61,1.42.41,1.4,1.77.5,1-.55,1.23.21,1.57,2.32,1.47-.44.65.61.34.5-.17.64.25.39.86,2.29,1.22,2,.53.7.5.3.45-.62.76-.18.55.25.41,1.85.44.32.26,0,.94-.86,1.58-.53,1.33-.52-.09-.23.38.11,2-.07.15-2,1.29.07.85,1.34,1.88,2.34.66.29.9-.13,1.67.23.67.95-.12.54,1.53v1.29l.62.77-.1.24,1,.47.48-.23.29.43,0,1.62-.3.59.52.33.32.82,0,.77.76.35.85,0,1.66,1.36,0,.93.73,1.28.74.26,2.22.25.46,0-.34-.79h.68l1.55.26.7.37,1.84,1.31,0,1.2.27.65,1.15.73,1.39,2.08,1.68,1.25.51.49-.13,1,1.12.92,1,.38,1.2-.4.42.08,1.25.94,2.39,2.17.44,2.15-.14.74,3,2,.4,0-.1-1.3.64-.27,1.39.26,1.66,1.22.49.56.7,1.51.69.66,1.42-.13,1,.64.59,1.4.73.36.94,1.31-.26.78.28.32.68.08,0,.43-1,2.45.65.86V373l.55,2.35,0,.79-.61,2.23-.83.82-.58-.32-.3,1,.19.61-.61.94-.63-.18-1.45-.73-.54-.72-1.1-.39-1.33.08-.68-.37-.86-.78-.62-.09,0,.59-.45.58-.85.64-.52-.49-.36.43.47.9.31,1.19-.8,2.61.47,1.39-.61,2.39-.2.37L253,391.49l-2,1.44-.34.14-1.43,0-1,.1-1.35.74-1.53.2-2.28,1.33-.4.76-1.31,1.47-2.49.44-.46.37-.48,1.47-.45.58-1.06.55-.42,1.07-.79.24-.27.51.28,1.35.38.57,1.95,1.57,1.11,1.22.49,1.79.25.36,1.43.37,1.66,2.47.6,1.22.74,1.06,0,.54-1,1.76-1.16,1.66.51.39L242,420l-.46.21-.49.86.86.81h1.87l1-.8.93.45,1.2,1.17.09,1.19.57.95.05.63-.58.61-.87,1.69.33,1.28-.73,1.27.49.38.14,1.55-1.25,1.42-.49-.59-.52-.32-.34.49-2-1-2-1.66-1.43-.65-.46-.38-.56-1.08.38-1.06.46-.51.55-.12-1.19-1-.28,0-.8-.9.65-.44,0-.67-1.07.07L235,423.9l-.65-.24-.73.05-2.23.52-.66,1.29-.23.75-1.28-.14-.76.56-.45,0-1.14-1.14-.93-1.27.1-.73-.46-.21-2.11.68-.81-.27-.08-.31-1.37.36-1,.65-.75-.74.15-.84.52-1.06-.5-.42-.72,1.15-.7.54-1.3.4.16.76,1.11,2,.36,1.42-.77.5-.2-.48-1.32.46-2-.31-.59-.22-1.07.4-1.47-.34-1.93.35-2,.62-.51,1-.64-.13-1.95-.15-2.31.11-.58.24-.77,0-.92-.4-.76.53-.59,1.21,0,1.57-.54.54-2.15.52-1.92-.23-.49-.16-1.43,1.7.21.65h.49l.21,1-2.59-.07-1.42,1.65-.26.64-.48.28-1.41.13-.11-.3.83-1.51-1.5,0-2.54,1.1-.41.78-2.75.14-1.16,0-.86-.26,0-.83.4-.63-.87-1.07L175.78,435l-.62.23-.59-.18,0-.74,1.13-1-.65-.93-1.07.16-1.88.63-1.06-.3-.44-.47-1.83-.37-.59-.68-2-.37-.69.09-.52.42-.23,1.09-1.64-.09-1.12-.21-1.16-.77.62-.73,0-.79-1.21.17,0,.74Z" transform="translate(-2.03 -6.87)"/><path class="cls-1" d="M64.65,350.89l-.11.69-1-.14-.45.25-.63,1H62L60.82,352l-1.77-.2-.71.12-.18.27-1.61-1-.07-.75-.61.23.06.45-.71,1.19-.6-.27-.31-1.8-.06-.86-.42-.79-.91-.9-.48.24L50.89,347l-1.26,0-.86.42.36,1-.57,1.18-.55.25-1.5-.9-1.26.09-.51-.56-.23-.64.69-.79-.3-.74-.76.17-.19-.34.17-1.19-.56-1.56-1.26-1.19H42l-.73-1-.6-1.3.3-.49.42.45.46-.73-.38-.91-.71-.24-.65-.69.12-.61.47-.18-.49-.71-2.48-1.58-.75-.76-.81.41-1.09-.26v-2.73l.76-1.08,1,.29.49,0,1.24.33.66.69.87.17.56-.44h.74l.43.63.83.25.83-.74,3.59-.46L48,330l.71-.77.51-.24.83.19.57-.69,1.23-.43,1.52-.83,1.47.22.6.31.52-.47.87.45.63,1,.19.56,1.56.35.43-.36.66.33-.1.55.43.52.77.57.69-.05.71-.46.4.77.09,2.51-.16,1.18.73.54-.61.78-1.29.44.39,1.09.57.35.47.95-.25.41,2.29,1.37.81-.28.27.15-.12,1.48-.56.74.26.3-.37,1-.44.59-.88.32-.71,1.1-.54-.38-.54.73-.06.41.28,1,.56,1Z" transform="translate(-2.03 -6.87)"/><path class="cls-1" d="M248.47,193.64l1.28.49-.67,1.14-.38,1.64.78-.39.8.17,2.41,1.09v.45l-1.35,2.18.16.81-1.33,1.51-.36-1.56-1.41-.67-.7.29h-.84l-.18-.43-.45-.1-1,.3-.41-1-.22-.06-1.11.55.31,1-.17.52-.93,0-.06-.46-1.3-1-.83.58-.4-.57-.63.39-.72.06-.14-.71h-.6l-1.68.86-.11.47-.91-.09-1-.58-.06-.39.64-.46.23-.49-.35-.49V198l1.42-2-.67-.43-.7.18.24-1.75.47,0,.14-.94-.19-.77.43-.34,1.17.45.34-.2-.49-.71.46-1,1.18,0,.41-1.18.62,0,.15,1,.86.19,1-.33.53-.91.79.51.22-.07,1.13-1.41,1.23.78v.78l-.27.16-.23,1,.35.6,1,0,1.15.8.18.95Z" transform="translate(-2.03 -6.87)"/><path class="cls-1" d="M267.53,156.52l.45,2.33.62,0,.21.63-1,1.85-.75,1-.15,1.39.63,1.29-.28,2.4-.45,1.53-.21.35-1.91,2.1L264,172l-.89.49-1.41,1.17-.11.49.57,2.29.26.46-.07.64-.73,1.24.12.85.49.2,2,.18,1.08,1.17.74.6,1.46.56.66.37.61.6,2.92,3.25,1.23.68,1.73.78.9.64,1.11,1.34-.47,1-.26.89.35,1.09.57.36V194l-.49,1-.74,1.19-.5.14-.38.52-.19,1.59.44.67.57,2,.34.51.19,1.45.54.66,2.74.6.35.22.53.79,0,3-.59,1.26.18,1.22.66.77.57.08.68.49.49.78-.21,1.5-.81,1.32.23.48v2.63L281,220.4l-1,1-1.17,1.36-.45.91.05.77.56.72.72.09.63.7.37,1.3-.08.69.36.61.74.78,1.33.79.72,1.42.48,2.18-.9,1.3-.72.12-.33,1-.36.43-1.86.21-.41-1-.51-.28-.46.07-.59.93-.72.31-.44-.18-1.33.23-.33.59-1.5.24-.89,1.08-.88.38-.18-.24-1.37-.47-1.77-.2-2.08,0-.82,1.14-.37,1.25,0,.69-.85,1,.26.64-.63,1.37-.45.41-.42.71-.1.64-1.62-.38-1,.65-.72.23-1.45-.35,0,.38-.43.35-1.21.53-2.72-.15-2.53.1-.24-.66-.58,0-.71.77-.58-.68-.15-.76-1.66-.59-1.09-.49-.54-.63-2.35.68-1.14,1,0,.54-1,.32-1.07-.11-.42-1-.4-.22.31-1.7-.18-1.32.2-.79-.05-.84-.57-.7-1.41-1.36.48-1-.21-.35-1.18-.63-.5.42-.37-.15-1.05-1.63,2-1.39,1-.86.67-1.15-.34-.75-.61-.66-.28-.9.56-.65-.25-1.07-.81-1.17-.49-1.18.87-.18-.44-.84-1.61.62-1.2-.06.19-1-.08-.38-.69-.13-1,.08-.36-.78-.53-.67-1.15-.11,0,.3-.79.27-1.05-.29-.28-1.5-1.35.35-.54-.13-.25-.6-1.13-.41-1.46-.66-.25-.32-.65.22-.07.59-.76.63-2.16,0-.15-.82-.87-.17-.61-.46-.16-.7-.55,0-.31.84-.55,0-2-1.24-.83-.92-.56-1.17-1-.43-1.77-3,.77-1.86.79-.27.53-.64-.75-.52-.72-.23.17-1.21.27-1.09.47-1,.72-1.27-.73-.86.47-.67-.42-1.92.71-1.46-.15-1.68-.36-.2-.81.36-.28-.34-.2-1.08-.56-.19-.37,1.07-1,.22L207.88,196l.4-1.1.45-.76-.28-1.8,0-.48.9.32.75-.51.19-.49,0-1.16-.24-1.06h-.28l-.59-1.47,0-1.76.45-1.17.57-.06.35-.79-.82-2.15-.91-.88-1.92,1-.27-1-2.72-.55-1,.62-.74-.14-.64-.42-1.33-.28-1.46-.52-.3-.69.54-.61,0-.65-.51-.22h-.75l-.47-.25-.61-.9-.71-.16-.85.54-.48-.41,0-.66-.27-.36-.86.18-.47-.34.39-.88-.4-.41-.74.27-.39,0-2.09-.5-1.14-1.11L188,172l-1.09.29-1.49.86L185,173l-1.32-1.35-.4-.57-.07-.85.51,0,2.14.21.69-.57.09-.55,1.75,0,.71.5,1.33.12.58-.62.26-1.22-.3-1.69,1.82-1.75,1.63-.08,1.94.68,1.65,0,.38-.3-.47-.94,1.17.12.83-1.06,1.38-.17,1.93-1.14.1-1-.24-.62,1.13-.72-.25-.89.81.06.12,1,.74.1.64-.25,2.58-.5.37,1,.47.49,1.34-.21,2,1,1.83,2.29,1.45-.26.15-.31.72-.17,1.85.71.79-.37.91,0,.29.35-.19.58.69.3.83.16,1-.13-.11.61-.39.48,1,.51,1-.2.17-.23.83-.22.29.52.49.34.74-.64,1.37-.37.67.34-.91.71.9.62,1.11-1,.44-.54.95-.33.88-.74-.13-.87,1.17-.74.88-.06.75,1.33.65.1.54-2,1.23-1,1.61,0,.5.88.78.44.66-1.93.74,0,.62-.21.92-1.32-.26-1.42.14-.65h.52l.28-.72-.15-.88.48-.38,1.11-.33.65-1.57.39-.08,1.45-1.61.91,0,.89.26.58-.24.59-.91-1.37-.63-.09-.73.17-1,.38.29.76,1.12,1.49.59v1.31l1.2.75-.13.89,1,.21,1.47-.33,1.2.17.21.71h.72l.7-.53.36-.85h.41l1,.65,1,0,.38-.49.54.53.13,1.54-.4,1.38-.88,1.32-1.31,1.48-.71,1.07-.07.68.79,0,.91-.39,1.36.45,1.43-.35-.12-.75,1-.5L265,158l1-.46,1.16-1Zm-19.06,37.12-.74-.23-.18-.95-1.15-.8-1,0-.35-.6.23-1,.27-.16v-.78l-1.23-.78-1.13,1.41-.22.07-.79-.51-.53.91-1,.33-.86-.19-.15-1-.62,0-.41,1.18-1.18,0-.46,1,.49.71-.34.2-1.17-.45-.43.34.19.77-.14.94-.47,0-.24,1.75.7-.18.67.43-1.42,2v.72l.35.49-.23.49-.64.46.06.39,1,.58.91.09.11-.47,1.68-.86h.6l.14.71.72-.06.63-.39.4.57.83-.58,1.3,1,.06.46.93,0,.17-.52-.31-1,1.11-.55.22.06.41,1,1-.3.45.1.18.43h.84l.7-.29,1.41.67.36,1.56,1.33-1.51-.16-.81,1.35-2.18v-.45l-2.41-1.09-.8-.17-.78.39.38-1.64.67-1.14Z" transform="translate(-2.03 -6.87)"/><path class="cls-1" d="M188.35,130.63l-.2.77-.63,1.09-.31-.12.08-1.54-.49.43v1l-.93-.05-.46-.73,0-.72.66-.57,1.83-.74.55.25Zm61.53-8.16,1.17,1.05,1.14.58,1,.23,1.24.67.9.88,2.53,2.09,1.08,1.15,1.44,1-.48.59.2.67.15,1.55-.46-.23-2.13.25-1.26.07-.66-.12-.64.27-.56.78-1.39.49.29-.61-.66-.52-.26,1.08-.52.32-.89-.07-1-.25-.2-.31.31-.62.57-.06,1-.41.65-.51.33-1-.26-1.15-.42-.76-.55-.39,0-.92.17-.26.8-.28.67.19.21,1.36.6-.2.54.2.51.59.36-.21-.08-2.29-.44-.87-.38-.12-.73-1-.61-.58-1.53,0,0,.81.46.3.19.43-.17.44-1.62.88-.3-.58.61-1-.11-.38-.52-.16-1.09.81-.33.61-.73.05-.17-.35.42-.56.55-1.91-.06-1.17-.85-.52-.61-.72-.19-.85.2-.5.64-.34.66.16.55,1.33Zm-30.58-12.1.53.15,0,.46-1.17-.26Zm48.24,46.14-.44,0-1.16,1-1,.46-.26.74-1,.5.12.75-1.43.35-1.36-.45-.91.39-.79,0,.07-.68.71-1.07,1.31-1.48.88-1.32.4-1.38-.13-1.54-.54-.53-.38.49-1,0-1-.65h-.41l-.36.85-.7.53h-.72l-.21-.71-1.2-.17-1.47.33-1-.21.13-.89-1.2-.75v-1.31l-1.49-.59-.76-1.12-.38-.29-.17,1,.09.73,1.37.63-.59.91-.58.24-.89-.26-.91,0-1.45,1.61-.39.08-.65,1.57-1.11.33-.48.38.15.88-.28.72h-.52l-.14.65.26,1.42-.92,1.32-.62.21-.74,0-.66,1.93-.78-.44-.5-.88-1.61,0-1.23,1-.54,2-.65-.1-.75-1.33-.88.06-1.17.74.13.87-.88.74-.95.33-.44.54-1.11,1-.9-.62.91-.71-.67-.34-1.37.37-.74.64-.49-.34-.29-.52-.83.22-.17.23-1,.2-1-.51.39-.48.11-.61-1,.13-.83-.16-.69-.3.19-.58-.29-.35-.91,0-.79.37-1.85-.71-.72.17-.15.31-1.45.26L213,161.09l-2-1-1.34.21-.47-.49-.37-1-2.58.5-.64.25-.74-.1-.12-1-.81-.06.25.89-1.13.72.24.62-.1,1-1.93,1.14-1.38.17L199.1,164l-1.17-.12.47.94-.38.3-1.65,0-1.94-.68-1.63.08L191,166.32l.3,1.69-.26,1.22-.58.62-1.33-.12-.71-.5-1.75,0-.09.55-.69.57-2.14-.21-.51,0-.7-.74-1.7-.46-.24-.37.63-.88-.42-.47-1.12-.25-1.25-.91-.81-1.05-1-1.9-1.11-2.45-1.87-.62-.79,1.05-1.45.91-1.17-.5-1.42-1.29-.14-.39-.91-.75h-1.61l-.77.11-.41.25.07-.73.41-.17.19-.67-.07-1.26.35-1.26.54-.36,1.09.23.72-.91.84-.39.69-.51.84-.88.58-1.24L171,150l.47-.11.63.47,1.23-.26.44-.59-.11-.29.16-1.74.6-.87-.39-.78.13-.84-.55-.68-1-.28-.34.2-1.29-.45-1.44-1.69-.18-.89.17-.31.06-1-.28-1.12-.41-.57v-.74l.61-1,.81-.16,1.19-1,.52-.66.91.24.27.46,1.39-.43-.12-.32-1.26-.4-.25-1.49.79-.4,1.29-1,1.4-.78,1.37-.38,1.45.15.89-.25.41.34.24.73L182,132l-.07.82.2.58.56.34.46,0,.71-.54.91-.09,1.43.58.25.59.86.25.72-.81.21-.61.29-2-.09-.25.69-1.47,1.12-.14.4-.4,1.14-1.84,0-.6-.38-.48-.64.47L189.55,128l-.15-.76.57-.88.9-.27.76-.56,1.19-1.48.45-.43,1.87-.12,1.46.36.89.06,4-1.5,2.85-.22.75-.57,1-2,.44-.4,2.62-1.74.88-.78.62-1.09,1-2.54.6-.56.56-.77.38-.77.56-2,.52-.75.34.54.92.69,1.61.13,1.29.26,2.69-.14,1.91,0,2-.26,0,.82-.34.28-.81.23-3,.26-.69,0-.39-.64-.83-.06-1.62.59-1.33.82-.16.63-1.83.41-1.6.23-.52.61.05,1.32-.75,1.13-.49.06-.19.44.23,1.5,1,.65,1.16.17.12-.36-.82-.16-.24-1,.64-.76.82-.28.06-1.19,1.55-.43.39-.82-.13-.6.33-.26.49.31.56-.08,1.37-.71.47-.42-.14-.7,1-.25.16.41-.71.31-.16,1.11.33.18.26-1.42h.34l.2,1.15,1.2,0,.21-.84.31-.22.66,1.68.87.2.82-.69.44-1.62.76-.62,1.51-.58.72-.63.46.24-.2.66.1,1,.67.69.76-.08.36.84-.37.74L230,116l0,.34.65.5,1,.17.61,0,.73.69,1.94.51.53,1.34.75.91,0,.71.42.07.79-.57.82.31.95,1.95.06.56.49.81,1,.32.16-.19-.72-1.24.42-.44.93-.3.81,0,1.63-.58,1.72-1.53,1,1.41,1.23,1.17.52.14.3.41-.32,2-1,1.12.55.64.85.7h.43l2.42,2.24.55.93-1.22,1-1,1.33-.31.54.26.75h1l.56.46.79,1.19.81.2,1.28,1,3.49,1.12,2.08.07,1-.87.27-.4.55.09.43.34.07.84-.35.53-.87.66.65.48.72-.18.48.6.2,2.16.93.73.12,2.32-.24.56.82,2.21.66.25.36,1.75.58,2.15.7,1.59ZM232,107.2l.42,0-.14.74-.58.19-.57.69-1,.43-.08-.42.65-1.46.58-.46Zm-1.62-4.85-.89.64.21,1.46v.61l-.51.48-.68,1.68.7-3.06,0-1.47.45-.53Zm5.9-2.47-.13.67.22.84.34.64.91.87.91.12,1.18-.21.95-.34,1.41-.31.78,0,.73.39.48.52.11.89-.29,1L242.42,106l-.78,1,0,1.12.5,1.15.87,1,.69,0,.47-.21,1,.83,1,1.41,0,.74-.33.95-.49.75-.91.42-.46-.48,1.24-.82.15-.45-.58-1.09-2.27.25-2.34.47-1,.75-2.16,2.31-.23.62.94-.07.4.43.24.63-.18.32-.74.35-1.77-.43.32-1.68-1.62,1.07-1.63-.65-.31-.76-1.25.2-1.12-2.09.15-1.47.18-.3,1.65-.23.68.28.39-.09.57-.71-.84-1.07-.78-.64-1.12.3-.19-.36.41-1.09.59-.12,1.82-1.06.13-.2-1.14-.88-1.36-.09L231,106l-.41-1.2,2.33-.71,1.13.47.12.93.62-.15-.36-1.37,1.13-1.09.53.09-.43,1.07-.05,1.26.71.05.36-.81-.67-.22.31-.65.84,1.24.29.57-.19.54.24.54,1.85.79-.32.82.94.09,0,.7-.7-.07.15.64,1.32.2.59-1.07-.3-1.43-1-.2-.05-1.39-.23-2.13-.74.28-.94.09-1-.83-.58-.69-.42-1-.41.11-.51,1-.36.41-1.12.81-.74.1.27-1.21.6-1.19.12-.68-.13-.6-.54.13-.87.84.27,1.32-1.39,1.54-.17-.53.91-.77.38-.92-.25-1.28.64-.86,1.11-.81,1.77-.45,1.64-.25.23.19,0,.68-.26.42-.68.22Z" transform="translate(-2.03 -6.87)"/><path class="cls-1" d="M235.27,235.57l1.05,1.63.37.15.5-.42,1.18.63.21.35-.48,1,1.41,1.36.57.7.05.84-.2.79.18,1.32-.31,1.7.4.22.42,1,1.07.11,1-.32,0-.54,1.14-1,2.35-.68.54.63,1.09.49,1.66.59.15.76.58.68.71-.77.58,0,.24.66,2.53-.1,2.72.15,1.21-.53.43-.35,0-.38,1.45.35.72-.23,1-.65,1.62.38.1-.64.42-.71.45-.41.63-1.37-.26-.64.85-1,0-.69.37-1.25.82-1.14,2.08,0,1.77.2,1.37.47.18.24.88-.38.89-1.08,1.5-.24.33-.59,1.33-.23.44.18.72-.31.59-.93.46-.07.51.28.41,1,1.86-.21.36-.43.33-1,.72-.12-.4,1.06.61,1.25.27.26,1,.22,1.9.71.49.38.65.17.46-.12,1,.12.77.4.62,1,.17.7,0,.92.12,1.21.56,2,.52.8,1.29,1.22.27,1.05-.12,1.35-.29.69-.25,3,.13,2-.33,2.1-.28.33,0,.76-1,3.18,0,.7-.62,1.88-.38.43-1.35,2,0,.59-.36,2.47-1,.18-.12-.18-2.16-.48-2.09-.7-.06-.34.42-1.59.38-.41-.14-1.19-1,.42-1,.58-.66-.52.46-.74.35-1.1v-1l-1.11-1-1.07-.32-1.62-.22-.63-.41-.69.68-.56.21-2.11-.74-.63-.62-.48,0-.27.47-.75,2.66.87.53.87,1,.3.16,1.57.36.37-.1.47.8-.34,1.13-2.35.92-1.09-.43-.68.45-.53,1.39L271,270l-1.16.31-1.65.93-1,1-1.22.2-.59-.07-.33-.35-1,.54-.23.76-.76.23-.57-.15-.19.71.28,1.12-.14.56-1.14.81-.88.18-.49-.35-1-.09-.84.42-1.79.42-.49-.36-.73.12-.44.65-.78.33-1.29-.11-.87.49.47.69.16.57-.47,1.79-.74.46-.11.34-.81,1-1.5-.5-.72-1.13-.64-.25.22.87-.21.49-1.25.59-.13.31.1.94-.84.37-.53-.93-.84.14-.38.69-.28.95.15.41-.82,2.23H242l-1.11-.28-1.47.58-.89.07-.41-.46-.4.17-.22,1.42v.78l-.23,1-.82,1.12-1.16.51-1.19-.6-.37-.31-2.21-1.28-.72.53-1.81.95-.7,1.24-.34.19-1.07-.41-2.25.3-.77.4-1.31.23-.58.88-.08.7-.74.51-1.83,1.46,0,.66-.92,1.33-1,2.56-.16.88.43.67v1l-1.37-.15-.42-.65.28-.58-.05-.9-1.43-1,.27-.49-1.54-.74,0-1.67-.53-.62-2.38.07-.13.19-.31-.66-1,.08-.79-.34-1-.66-.62.15.21-1.16-.49-1-1.07-1.2-.37,0,.15-.4-.85-.12-.27-.34.41-.52,1.13-.31L206,291l-1-1.55-1.38.07-.47-1.06.38-.58.66-.15.73-.7-.3-.79,1.16-.65.72-.59-.27-.5.85-.67.36.44-.29.4.79,1.1-.29,1-.26.3.55.65,1.25-.14,0-1,.71,0,.48.45.49-.31.17-.43-.9-.26,1-1.94.46-.1.41.84.32,0,1.35-.73.87-.15,1.5-1.62.16-.88-1.41-.15-.41-.37-.31-.94.57-.73-.28-.35-.86.19-.3-.41.17-.72.36-.3.61.18.55-.63,0-.72-1,.05-.12-1.17.86.2,2-.73,0-.72,1.1-.61.7.14.31.35.6-.36.07-.74.4-.87.69-.65,1.22-.46.86-.21.58.2,1.91-.19.35-.78-.65-.86-.51-2-.37-.62-.78.45-.87-.41-.27-.36-.1-.83-.7-.11-.45-1.13-1.15-.68-.2-.78-1.29.44-1.1,0-.59-.23,0-.56-.73-.36-1.4.72-.14-.44-1.37-.15-.25-.77.46-.32-.37-.46-1-.19.2-1.27-.06-.69-.48-3.39-.44,0-.25-1.61-.62-1.21.6-.41.67-.13.05-1.38-.22-.85-.37-.34-.13-1.09.41-.53-.21-.55-.75.08-.14-1.16,1.33-1.32.2-.88-.46-.14L211,242l.39-.17,1.21-1.16,1.32-.14.45-.38.64-.86,1.55,0,1-.41.6-.74,1.14.38,1.59-.33.91-.5.11-.46.59,0,.41.42.61-.1.77-.68.37-1.2.38-.35,1.31.26.42.27.64.05,1.87-1.7.63.35.12.84,1.41.45,1.36-.37,0-.65.89-.25.49.19.39,1.28Z" transform="translate(-2.03 -6.87)"/><path class="cls-1" d="M235.27,235.57l-.73.53-.39-1.28-.49-.19-.89.25,0,.65-1.36.37-1.41-.45-.12-.84-.63-.35-1.87,1.7-.64-.05-.42-.27-1.31-.26-.38.35-.37,1.2-.77.68-.61.1-.41-.42-.59,0-.11.46-.91.5-1.59.33-1.14-.38-.6.74-1,.41-1.55,0-.64.86-.45.38-1.32.14-1.21,1.16L211,242l.06,1.13.46.14-.2.88L210,245.52l.14,1.16.75-.08.21.55-.41.53.13,1.09.37.34.22.85-.05,1.38-.67.13-.6.41.62,1.21.25,1.61.44,0,.48,3.39.06.69-.2,1.27,1,.19.37.46-.46.32.25.77,1.37.15.14.44,0,.3-.68.79-.23,1.36,1.08-.13.21.37-.08.69-.66,1.12-.7.79-.17.7.19.35-.75.76-1-1.77-1.09.69-1.56-.62-1.72.29-.44.23-.12-.76L205.42,266l-2-1.3-.77-.41-1.36.31-.75.28-1.54-.46-1.16-.59-.4-.36-.25-1-.77-.54-.67.1-2.07-.34L193,262l-.18.45-1.72.07-.63-.49-.19-1.13.46-.69.31-.8-1.22-1.8-.51-.18-.57.21-.58,0-.69-.55.07-.42.55-.74.45.44.51-.43,1.33-2,.21-.48-1.49-1.26-.68-1-.17-1.14-.61-.5-.42.08-.89-.28-.28-.94-1.34.5-1.28-.19h-.82l-1.42.21-.77-.25-.24-.41-1.34-.53-.51-.05-.87.53-.88,0-.4-.47-.2-1.2,0-1.29-.8-.76-.4-.9.08-.67-1.14-1.25-.45-.9.21-.8,1.2.16.19-.47-.56-.67-.62.32-1-.95-1.21-.41-.82,0-.77-.32-1.75.35-.85-1.2-.22-1.07.14-.24-1.07-2-.73-1-.41-.26-.35-.67-.1-1.47v-1.33l.23-.44,1.24-.86.62-.84-.09-.9-1-.57,0-.78.33-.5.68-.24-.19-.38-.52.23-1-1.05-.72-1.09,1.09-.12,1-.3.56-.54-.2-.75,1.35-.32,2.54-.08,1.21.09.6-.09.76-.43,1.61,0,.83.09.24-.73-.08-.57-.84-.4,0-.43,1.3-.4,1.36-1,.63-.92v-.79h-.67l-.63-.47,0-.74.49-.62,1.24-.33.28-.47-.35-.62-.41,0-.66-1.37-.69-.69.76-.65-.09-.42-1-1.15.56-.54.44.05.82-.39.17-.88-1-.68-1.81-1.85-1.09-1.43,0-.44.38-.65,1-.49.73,0-1-1.16-.72-1.08-.35-1,.08-1,.89-.69.12-.9-.34-.1-.6.5-.6.26-.69-1.47-.57-1-.68-.78-.49-1.22-.31-.45-.73.16-.63-2.22-.55-1,.43-2.28-.14-.38.93-.36,1,.13.7-.2.81.26,1.41-.35,1.29-1.53.09-.91.28-.2,2.63-.1-.13.62.55.16,1.18-.31,1.76.16.44.43,1.65.59.55-.19,2-1.06,1.64-1.44.48-.29,1-.13-.39-.82.49-2.16,1.42-.31.9-1.07.74-.27.4.41-.39.88.47.34.86-.18.27.36,0,.66.48.41.85-.54.71.16.61.9.47.25h.75l.51.22,0,.65-.54.61.3.69,1.46.52,1.33.28.64.42.74.14,1-.62,2.72.55.27,1,1.92-1,.91.88.82,2.15-.35.79-.57.06-.45,1.17,0,1.76.59,1.47h.28l.24,1.06,0,1.16-.19.49-.75.51-.9-.32,0,.48.28,1.8-.45.76-.4,1.1,1.28,1.78,1-.22.37-1.07.56.19.2,1.08.28.34.81-.36.36.2.15,1.68-.71,1.46.42,1.92-.47.67.73.86-.72,1.27-.47,1-.27,1.09-.17,1.21.72.23.75.52-.53.64-.79.27-.77,1.86,1.77,3,1,.43.56,1.17.83.92,2,1.24.55,0,.31-.84.55,0,.16.7.61.46.87.17.15.82,2.16,0,.76-.63.07-.59.65-.22.25.32,1.46.66,1.13.41.25.6.54.13,1.35-.35.28,1.5,1.05.29.79-.27,0-.3,1.15.11.53.67.36.78,1-.08.69.13.08.38-.19,1,1.2.06,1.61-.62.44.84-.87.18.49,1.18.81,1.17.25,1.07-.56.65.28.9.61.66.34.75-.67,1.15-1,.86Z" transform="translate(-2.03 -6.87)"/><path class="cls-1" d="M214.33,262.4l1.4-.72.73.36,0,.56.59.23,1.1,0,1.29-.44.2.78,1.15.68.45,1.13.7.11.1.83.27.36.87.41.78-.45.37.62.51,2,.65.86-.35.78-1.91.19-.58-.2-.86.21-1.22.46-.69.65-.4.87-.07.74-.6.36-.31-.35-.7-.14-1.1.61,0,.72-2,.73-.86-.2.12,1.17,1-.05,0,.72-.55.63-.61-.18-.36.3-.17.72.3.41.86-.19.28.35-.57.73.31.94.41.37,1.41.15-.16.88-1.5,1.62-.87.15-1.35.73-.32,0-.41-.84-.46.1-1,1.94.9.26-.17.43-.49.31-.48-.45-.71,0,0,1-1.25.14-.55-.65.26-.3.29-1-.79-1.1.29-.4-.36-.44-.85.67.27.5-.72.59-1.16.65.3.79-.73.7-.66.15-.38.58.47,1.06,1.38-.07,1,1.55-.63,1.12-1.13.31-.41.52.27.34.85.12-.15.4-1.14.41-.48.74-1.26.55-.86-1.28-1.33.21-1.55.77-2.19.62-1-.7-.59.12-.44.8-1.12.16-.7-.87-.44-1.46h-1l-.92-.56-.09-2.39.6-.3-.5-.66-1.61-.3-.74.13-.34.5-.32.89-2.19.6.13.68.49,1.34,0,.89.15,1,.42,1.53-.56.33L185,299l.18,2.25-.39.36-1.53-1.15-.24,1-.32.09-1-.74-.41-.71,0-.52.8-.64-.07-.32L180.79,297l-.81.07-.16.45-1.17.55-.25-.77-1.28-.2-.31.67-.74-.79v-.33l-.77-.79-1,.39-1.19-.12-2.21.12-.91,1.26-1.22-.23,0,2,1.59,1.24,1.13.71,1.18.31.09,1.27-.61.37-2.46-.26-.58-.16.15,1.54-.43.47-.89-.68-.75-.39-.83.19-.69,0-.65-2.24.27-1.43,0-1.47-1.08-.2-.32-.76-.93,0-.32.19-1.19-1.06-.64-1.37-.84.45-.88-.09-.32-.67.29-.94-1-.9-.39-.58-.19-1-.32-.52-.68,0-1.92-.94-.34-.81-.81-1.12-1.57.1-.62.15-.28-.74-.39.05-.4.69L149,290l-.29.1-.07-.58.57-1.17-.22-2-.34-.67.38-.55,1-.38-.49-1.22-.47-.76-1.48-.13-1.16.33-.4.33.62.95-.25.56-.42.08-2-.34,0-1.59,1.1-1.48.8-1.77-.09-.83-.37-.51.78-.32.07-.53L146,277l.22-1.23.7-.53.61.3.8-.25.43-.62-.48-.16.08-.85,1-.71v-.36l-1.27-1.43-.78-.69,1.81-.18.41-.3-1.13-1.83-.08-.45.54-.83,1,.05,1.56.42.58.42,1-.25.7-.43.27-.83-.86-1-1.27-.53.11-1.22.78-1-.35-.64-1.12-.83.23-.37,1.17-.34.38.55-.15.57.65.75.31-.29,0-1.06-.26-.46.2-.59.59-.41,0-.63-.56-.15-.85-.8-.47-.22-2.68-.64-.12-.1-.25-2-.14-.45-2.37-.31-1.18-2.57-.15-.59.13-1,.41-.12,1.7-1.2,1.21-1.06,1.37-.36,1.55.3.26-.1.73-1.78.8-.75.29.4.63,0,1.8-.79,1.25-1.15.65-1,.37-1.13-.09-.74.34-.2,1.15-.27,1.82.83.53.83.26.11,1.21-.13.73-.46.33-.4,1.55.65.36-.79-.77-.3-.16-.56.23-1.2,1-.42.67-.46,1.75-.35.77.32.82,0,1.21.41,1,.95.62-.32.56.67-.19.47-1.2-.16-.21.8.45.9,1.14,1.25-.08.67.4.9.8.76,0,1.29.2,1.2.4.47.88,0,.87-.53.51.05,1.34.53.24.41.77.25,1.42-.21h.82l1.28.19,1.34-.5.28.94.89.28.42-.08.61.5.17,1.14.68,1,1.49,1.26-.21.48-1.33,2-.51.43-.45-.44-.55.74-.07.42.69.55.58,0,.57-.21.51.18,1.22,1.8-.31.8-.46.69.19,1.13.63.49,1.72-.07L193,262l.63-.27,2.07.34.67-.1.77.54.25,1,.4.36,1.16.59,1.54.46.75-.28,1.36-.31.77.41,2,1.3,1.29,1.57.12.76.44-.23,1.72-.29,1.56.62,1.09-.69,1,1.77.75-.76-.19-.35.17-.7.7-.79.66-1.12.08-.69-.21-.37-1.08.13.23-1.36.68-.79Z" transform="translate(-2.03 -6.87)"/><path class="cls-1" d="M181.79,109.65l1.19,1.77.41,1,0,.3-3.13-.78-.42.06-.12.83-1.25-.07-.65-.27.12-1.21-.14-.33-.86-.35-1.39.46-.1-.58.12-1.28.72-1.62.65-.68,2.79.61,1.51.79.33.41ZM114.92,108l-.85.15-.82-.8-.18-.43.23-.84,2.3-.87.64.19,0,.62-.31,1-.64.87Zm-3.42-4,1,.07.35.81-.65.1-.84-.64Zm3.34-2.57-1.11.24-.51-.06-1,.67-.42-.38.35-.47,1.52-.18,1.11-.41Zm-6.73.18.32.41-.23.39-.82-.05-.5-.6-.94-1.46-.15-.67,1.2-1.32.56,2.27Zm4.71-2-2.12-.13-2-1-.18-.68.32-.8.77-.64.85-.15,1.42-.08,1.16.3.45.4.23,1.07ZM173,132.74l.25,1.49,1.26.4.12.32-1.39.43-.27-.46-.91-.24-.52.66-1.19,1-.81.16-.61,1v.74l.41.57.28,1.12-.06,1-.17.31.18.89,1.44,1.69,1.29.45.34-.2,1,.28.55.68-.13.84.39.78-.6.87-.16,1.74.11.29-.44.59-1.23.26-.63-.47L171,150l.23,1.36-.58,1.24-.84.88-.69.51-.84.39-.72.91-1.09-.23-.54.36-.35,1.26.07,1.26-.19.67-.41.17-.07.73-.44.14-1-.42-1.19-.26-1.79-1-1.47-1.19-1.35-.1-.52-.35-.09-.4L155.39,154l-.15-.54-1.84-1.2-.42-1.88.11-.61.41-.26.73-.06,0-1.06.71-1.16-1.2-1.33-.89-.74,1.05-1.34.29-1-.82-.24-1,.73-1.19,0-.37.43.29.32-.25,1.1-.74-.13-1.14.09-.22.35-.16,1-1.07-.18-1.08,0v.49l-.53.88-1.43,1.55-.23.07-.63-.57-1-1.25-.49,1.22.08.22-.45,1.57-1.51-.42-2.2-1.5-1-.81-.5-1.33,0-.52-.46-1.4-.64-.86-1.21-1-.69-1-1.19-2.74-1.18-1.77-.78-.6-1.53-.67-1.64-.14-3.15-.18-.71.07-.08-.75-.93.19-.73-.37-1.23-1.64-.7-1.94-1.1-2.1.28-.64,1-.31,1.1.25.7.36.75-.34.23-.6-.15-.63-.8-1.24-.42-1.47-.5-.22-.73.27h-.72l-.69-.7-.45-1.29.22-1.22.53-.75.16-.67.18-1.61-.18-.85-.31-.22-1.37.31-.58-.3-.78,0-.51.27-.26.5-.85.15-1.41-.94-.51-.79.12-.89.35-1,.68-.37.09.6.31.26,1.41-.69,0-.88-.68.15-.63-.63.68-.63,1.54-.28,2.5-.28.86.24.94-.06.73-.6.5-.7.54-.46,1.09-.41.37-1v-.58l-.66-1.21-1,.48L121.5,109l.11.39-1,.34-1.48-.2-.5-.43V108l.93-.53.93-.94.13-.85-.18-.56.73-1.65L121,103l-1-.71-.37-1-1.51-.95-.56-.63-.17-1.59-.56-.42-.71.07.36-.6,0-.47-.27-1-.32-.69L115,93.57l-.77-.83,0-1.25-.25-.83h-2l-1,.41-.71.57-1.22.41-.84-.68-.22-.63-.61-.21-.89.92-.3.67-.2,2.38,0,1.83-.48-.3.5-5.51.29-1.29.75-2,.25-.47,1.6-3.5.62-.55,1.3.5-.47.21-.3-.27-.85,0v.44l.66.15.35.47-.08.37-1.1.47-.68.68-.45.83.14,2.55.4.79,1.07.68,1.6.1.79-.3,1.85,0L115,90v-.56l1.2.09,1,.74,1.29.12.64-.46.9-.09,2.84.3,1.68.74.83.64,1.11.14.57-.16.92.11,2.28,1.05-.15.61.37,1.18,2.37.34.72-.67.35-.87.67-.16.71,1.76.72-.86.58,0,.57-.59.71-.48,1.24-1.24h.65l-.52.76v.79l.31.49.47,0,3.75,1.65.55,0,.26.63.75,1,1.09.3.45-.8.35-1.15.64.39.68.63.36.59.22,1.58.41.68.86.87,0,3.15-.18.63-.08,2.52-.69,1.18-.93.87-2.17,1.13-1,.07,0,.45.67.73,1.11-.15,1.22-.62,4.13-.77.45,0,.78.54.76.74-.65,1,.51,1v1l-.77.22-.48,1.22.68,1.25.23-1.45.44-.22.59-1.77.4-.4,1.83-.78,1.09,0,1,.31,2.58,1.67,1.5.44,1.45.66.91.58.45.81.93,1,.75.25.59-.21.41.14.86-.2,1.34-1.08.77-1,1.59-1.1.57-.14,1,.17.22.51.7,0,1.3-.43.32-.62.42-.24.65.31-.11.76-1.19.87-.18.57.39,2.8.26,3.56-1.05.81-2.49,1.74-1.75,2.16-.65.39-1-.19-.64.21-1,1.15-.22,1,.69,1.41.63.56,1.56-.08.51.38.12,1.2Z" transform="translate(-2.03 -6.87)"/><text class="cls-2" transform="translate(66.2 39.24)"><tspan class="cls-3">V</tspan><tspan x="13.04" y="0">otos al partido</tspan><tspan x="-52.4" y="26.4">Alternativa para</tspan><tspan class="cls-4" x="113.89" y="26.4"> </tspan><tspan x="119.18" y="26.4">Alemania</tspan></text><text class="cls-2" transform="translate(348.83 39.24)">Sondeos para el partido <tspan x="-9.4" y="26.4">Alternativa para</tspan><tspan class="cls-4" x="156.89" y="26.4"> </tspan><tspan x="162.19" y="26.4">Alemania</tspan></text><rect class="cls-5" x="408.93" y="480.98" width="103.35" height="20.09"/><rect class="cls-6" x="304.91" y="480.98" width="103.35" height="20.09"/><rect class="cls-7" x="201.78" y="480.98" width="103.35" height="20.09"/><rect class="cls-1" x="97.97" y="480.98" width="103.35" height="20.09"/><text class="cls-8" transform="translate(98.84 474.94)">Porcentaje de votos:</text><text class="cls-8" transform="translate(43.97 13.73)">Eleccciones Generales 2013</text><text class="cls-8" transform="translate(365.67 13.73)">Elecciones Generales 2017</text><text class="cls-9" transform="translate(1.97 552.87)">Fuente: Der Bundeswahlleiter<tspan x="0" y="16.8">Encuesta de sondeos de</tspan><tspan class="cls-10" x="154.12" y="16.8"> </tspan><tspan class="cls-11" x="157.75" y="16.8">Y</tspan><tspan x="165.81" y="16.8">ouGov del 19 de septiembre de 2017</tspan></text><polygon class="cls-12" points="494.11 546.83 622.11 546.83 622.11 566.28 494.11 566.28 494.11 546.83 494.11 546.83"/><path class="cls-13" d="M598.82,558.05h-4.9v.61l1.29.31v9a1.07,1.07,0,0,1-.9.46,1.92,1.92,0,0,1-1.59-1.17l-1.22-2.19a2.54,2.54,0,0,0-2.24-1.51v-.15a3,3,0,0,0,3.1-2.78c0-1.89-1.71-2.62-3.69-2.62h-4.45v.61l1.45.31v9.18h0l-1.67.32-4.17-11.37a5.24,5.24,0,0,1-1.5,1.29l.16.46-3.81,9.32-1.15.31v.61H577v-.61l-1.13-.29,1.29-3.39h3.53l1.24,3.37-1.33.32v.61H589v-.61l-1.39-.3V563.9a2.09,2.09,0,0,1,1.88,1.39l1.67,3a2.71,2.71,0,0,0,2.42,1.47,2.39,2.39,0,0,0,1.59-.65H599a5.68,5.68,0,0,0,5.82-5.52c0-3.21-2.49-5.52-5.93-5.52Zm-21.41,5.86,1.49-3.92,1.43,3.92Zm10.92-.83h-.75V559h.94a1.86,1.86,0,0,1,1.93,2,2.14,2.14,0,0,1-2.09,2.15Zm10.38,5.09h-1.57V559h1.61c2.5,0,4,1.73,4,4.6s-1.6,4.6-4.08,4.6Z" transform="translate(-2.03 -6.87)"/><path class="cls-13" d="M518.32,568.17l-4.08-11.08a5.23,5.23,0,0,1-1.5,1.29l.16.46-3.78,9.32-.81.31-.24.61h3.37v-.61l-1.13-.29,1.29-3.39h3.53l1.24,3.37-1.33.32v.61h4.54v-.61l-1.21-.3Zm-6.47-4.25,1.5-3.92,1.43,3.92Z" transform="translate(-2.03 -6.87)"/><polygon class="cls-13" points="506.57 559.41 506.16 559.18 503.78 561.35 501.74 561.35 501.74 552.1 502.97 551.79 502.97 551.17 498.58 551.17 498.58 551.79 499.81 552.1 499.81 561.27 498.58 561.59 498.58 562.2 505.48 562.2 506.57 559.41 506.57 559.41"/><polygon class="cls-13" points="525.74 551.17 525.74 551.79 527.07 552.1 524.18 559.48 521.15 552.09 522.58 551.79 522.58 551.17 517.68 551.17 517.68 551.79 519.08 552.1 523.44 562.59 523.9 562.59 528.24 552.11 528.28 552.11 529.63 551.79 529.63 551.17 525.74 551.17 525.74 551.17"/><path class="cls-13" d="M571.25,558.05v.61l1.32.31s.1,5.47,0,6.85a2.78,2.78,0,0,1-2.84,2.72h-.14a2.74,2.74,0,0,1-3-2.83V559l1.28-.29v-.61h-4.43v.61l1.26.3v6.78a4.07,4.07,0,0,0,4.38,3.86c2.42,0,4.3-1.39,4.38-3.86l.08-6.77,1.29-.31v-.61Z" transform="translate(-2.03 -6.87)"/><path class="cls-13" d="M619.18,568.15l-4.06-11a5.23,5.23,0,0,1-1.5,1.29l.16.46L610,568.2l-.65.26-.88-.28V559l1.35-.31v-.61h-4.62v.61l1.34.31v9.18l-1.28.3v.61h7v-.61l-1.13-.3,1.29-3.39H616l1.24,3.37-1.33.32v.61h4.55v-.61l-1.22-.32Zm-6.46-4.23,1.5-3.92,1.43,3.92Z" transform="translate(-2.03 -6.87)"/><path class="cls-13" d="M547.56,558.05v.61l1.35.31.08,7.21L542.08,558h-2.95v.61l1.34.29.11.06-.1,9.13h0l-1.39.32-4.17-11.37a5.24,5.24,0,0,1-1.45,1.29l.16.46-3.81,9.32-1.15.31v.61h3.48v-.61l-1.13-.29,1.29-3.39h3.53l1.24,3.37-1.33.32v.61H543v-.61l-1.39-.31-.16-8,7.9,9.29h.52L550,559l1.34-.31v-.61Zm-15,5.86L534,560l1.43,3.92Z" transform="translate(-2.03 -6.87)"/><path class="cls-13" d="M559.2,563.44v.61l1.25.31v3.55a4.13,4.13,0,0,1-2.49.83c-2.5,0-4.11-2.09-4.11-5s1.57-5.26,4.17-5.26a3.93,3.93,0,0,1,3.69,3l.35-.21v-3.48l-.32-.17-.7.85a7,7,0,0,0-3.05-.78,6.18,6.18,0,0,0-6.19,6.08,5.61,5.61,0,0,0,5.32,5.88h.4a5.7,5.7,0,0,0,3.55-1.18l1,.65h.31v-4.74l1-.4v-.51Z" transform="translate(-2.03 -6.87)"/><path class="cls-6" d="M470.59,159.08l-1.31.68-.44.85-.36.21-1.37-.06-.4-.16-1.48-1.25-.69-1.16-.8-.55-.06.7-.92,1-1.17.63-1.52-.52,0-.89-.44-.59-.68.67-.63.09-1.36-1.41-.37-1,0-.33-.55-.45.19-.86.1-1.15-1.17-.14.45-1.57-.08-.22.49-1.22,1,1.25.63.57.23-.07,1.43-1.55.53-.88v-.49l1.08,0,1.07.18.16-1,.22-.35,1.14-.09.74.13.25-1.1-.29-.32.37-.43,1.19,0,1-.73.82.24-.29,1L466.24,148l.89.74,1.2,1.33-.71,1.16,0,1.06-.73.06-.41.26-.11.61.42,1.88,1.84,1.2.15.54,1.75,1.82Zm-47.14-22.7-.79,0,.15-.67.7.28Zm-2-1.46-.43-.37.52-.48.26.27Z" transform="translate(-2.03 -6.87)"/><path class="cls-7" d="M436.75,138.46l.71-.07,3.15.18,1.64.14,1.53.67.78.6,1.18,1.77,1.19,2.74.69,1,1.21,1,.64.86.46,1.4,0,.52.5,1.33,1,.81,2.2,1.5,1.51.42,1.17.14-.1,1.15-.19.86.55.45,0,.33.37,1,1.36,1.41.63-.09.68-.67.44.59,0,.89,1.52.52,1.17-.63.92-1,.06-.7.8.55.69,1.16,1.48,1.25.4.16,1.37.06.36-.21.44-.85,1.31-.68.52.35,1.35.1,1.47,1.19,1.79,1,1.19.26,1,.42.44-.14.41-.25.77-.11h1.61l.91.75.14.39,1.42,1.29,1.17.5,1.45-.91.79-1.05,1.87.62,1.11,2.45,1,1.9.81,1.05,1.25.91,1.12.25.42.47-.63.88.24.37,1.7.46.7.74.07.85.4.57,1.32,1.35.45.19,1.49-.86,1.09-.29.6.25,1.14,1.11,2.09.5.39,0-.9,1.07-1.42.31-.49,2.16.39.82-1,.13-.48.29-1.64,1.44-2,1.06-.55.19-1.65-.59-.44-.43-1.76-.16-1.18.31-.55-.16.13-.62-2.63.1-.28.2-.09.91-1.29,1.53-1.41.35-.81-.26-.7.2-1-.13-.93.36.14.38-.43,2.28.55,1,.63,2.22.73-.16.31.45.49,1.22.68.78.57,1,.69,1.47.6-.26.6-.5.34.1-.12.9-.89.69-.08,1,.35,1,.72,1.08,1,1.16-.73,0-1,.49-.38.65,0,.44,1.09,1.43,1.81,1.85,1,.68-.17.88-.82.39-.44-.05-.56.54,1,1.15.09.42L490,211l.69.69.66,1.37.41,0,.35.62-.28.47-1.24.33-.49.62,0,.74.63.47h.67v.79l-.63.92-1.36,1-1.3.4,0,.43.84.4.08.57-.24.73-.83-.09-1.61,0-.76.43-.6.09-1.21-.09-2.54.08-1.35.32.2.75-.56.54-1,.3-1.09.12.72,1.09,1,1.05.52-.23.19.38-.68.24-.33.5,0,.78,1,.57.09.9-.62.84-1.24.86-.23.44v1.33l.1,1.47.35.67.41.26.73,1,1.07,2-.14.24.22,1.07.85,1.2-.67.46-1,.42-.23,1.2.16.56.77.3-.36.79-1.55-.65-.33.4-.73.46-1.21.13-.26-.11-.53-.83-1.82-.83-1.15.27-.34.2.09.74-.37,1.13-.65,1L470,247.45l-1.8.79-.63,0-.29-.4-.8.75-.73,1.78-.26.1-1.55-.3-1.37.36-1.21,1.06-1.7,1.2-.41.12,0-1.08-.59-1.05-1.6.29,0,.59.29,1.39-.61-.6v-.8l-.82-.44-.5.18-1,.94-1.62.95,0,.2,1,1.51.79-.39.3.45-.19,1-1.05.51-1.49-.79-1.47-.34-1.35-1.09-.38.09-.4-.78.25-1.26.5-.81,1.46-.33.36-.45-.36-1.15-.2-1.71-.92-1.66.62-.26.36-.39.46-1.29-.28-.65.26-.54,1.1.75.38-.64-.69-.48-.67-.8-.06-.74-.27-.53-.4.38-1.21.22-1.48-.15-.69-.5.16-.8-1.68.12-1.49.19-.33-.21.09-.55.5-.82.21-.91-.67-1.89.25-.64.44-.17,1.4-1.61-.17-1.43.12-1-.55-.44-1.64-.45-.57.17-.13-.54.12-.81-.09-.84-.79-.66-.74,0-.63-1.16.45-.71-.37-.65-1.36.08-.31.65-.45-.25-.42-.92.68-1.17-.21-.75-.36-.38,0-1.19.47-.51-.41-.67-.78-.63.39-.93-.41-.69-.45-.17-.78.23-1.55-.46-.75-.32,0-1.08-.23-.42,1-.14.19-.5L435,214l.86-1.15-2.6-1.3-.41-.92.62-.35.17-1.21.22-.52.81-.82.94.26,1.08-1.4.77-1.53,0-.75-.36-.63-.44-.34.27-.61.93-.83-.2-.42-2-.78L433.27,204l-1,1.14-2.3.5-1.88-.51-1.15.48-1.08-.41-.11-4.15.15-.64-1.4-1.44-2.64,1.28-1.28-.71-1.44.86-.22,1.53-.71.58-1.9.11L415.1,202l-.55-.13.61,1.42-.24.91.3.27,1.87.77,1.37,1.14.38,2-.14.69.19,1.6v1l-.73,1.4.1.69.44.32,1,.34.08.37-.35.54-.72.48-.46,0-1.26.85v.91l-.62.3-.68-.5L414.6,217l-.4.29-1.17-.65-1.42,1.15-.55.7-.84.72-1.29.15-.87.42-.13-.31-.69-.24-1-.07-1.12.79-.56.54-1.6-.72-.25-.73-.58-.86.45-.33,3.13-.89-.07-1.34.64-.65-.46-.78-1.9-.11-.83-.67,0-.88,1.25-2.5.3-.3-.68-1,.18-.42.7-.12.53-.3-.73-1,.05-.65-.27-.72-1.29-.87-1.41.5-.91-.18-2.09-1.34-.45-.13L398,202l-.5-1.15L395.4,200l-.54.72-.48,1.24.46.3-.19,1-.71,1.53-.79-.11-.85.38-2,1.52-1.86,1-.26.54-.53.23-.79.06-.58.68-1.88-.12-2-.27-1.05.14-.69.81h-1l-.54-.74-.31-.79v-.89l1-2,.5-.61.07-.94L380,202.4l-.65-.25-.94-2.93-.42,0-.44.77-.66.49-2.13-.89-.21-.4L372.4,199l-.58-.22-1.46-1.17.33-1.53-.53-1.47.93.2,1.44-.48-1.2-1.33.33-2,.52-.52,1.09-.22,1,.28h2.07l.66.57,1,.09.66-.2.87.43.81.26.39-.47,1-7,.7-1.68-.08-.57.59-.73,2.27-3.17.8-2.16.29-1-.15-3.13.21-1.43-.45-.41-.07-.76.69-1.55.8-.11-.29-1.77-.13-1.26.35-.24.49-1.3.14-1,.38-1.15-.28-.26-1.83-.29-2.93-.17-1.08-.29-.46-1,0-.59.45-1.39.11-1.26.53-2,.67-1.26-.34-1.11.51-.23,1.25.74.64-.12.58-.68-.57-.42-.82-1,.12-.37,2-2.07,2.3-1.61,1.41-.42,1.86-.09.26.14,2.85.16,1.18.62,1.25-.2,3.13-.88,1,.13,1,0,.68-.29,1.18,0,2.19-.21,2.66.42.51.35L410,146l.15,1.23.27.7.74-.2.36.17.71,1.29.18.76,1.1,2.51-.31.56.11.54-.25.27-1.53.52-.67,0-.37.58.24,1.09.67.86.52-.25.87.14,1.39,2.24,1.18.21.85-.68.5-.79.53-1.4.1-1.8-.07-.76-.29-.22-1,.27-.89-.14.41-2.63.3-.61.85-.73.57-.22.83.15.41.33.87,1.46.29.22,1.78.85,1.39.21.82.5.08,1.08-1.2.76-.49,1,2.07-.58.25.19.83,0,1.14-1.11-.46-2-.32-.9.35-.24.6-1-.67-.15-.84.52-1.35-.63H423l-.88-2.32.06-1.72,1.16-2.45.63-2.45.71-1.75.93-1.25,1.07-.59,1.14-.2.29.72.27,0,.62.9.65.66,1,.59,2.66.29,2.22-.42,1,.06-.53-1.49Zm-14.88,30,.58.5,1.26.77.85.2.36.34.76,2.09v.41l.4.27-.11.39.3.46.67.22.19.53-.15.68.29.67.4.16,1.26-.08.76.35,2.39.94.54.13,1.6-1.26v-.67l-.55-2.86.94-.35-.68-1-.41-.22-.55.35-.18.51-1.34,0-1-1.37-2.16-.28-.51-.78-2-.22L424.37,168l-.57-.23-.66.36-.64-.38-.32-.56-.78,0-.08.3Zm-44.5-20.65H376l-.54.33-.51.68-.6.16-.76-.57-.23-.8.33-.38,2.42-.54.72.37ZM389.15,143h2.25l.65.14-.3.43-1.88.32L387,144l-.43-.45.82-.48.81-.18Zm10.58-.47-.48.14-1.08-.17-1.64.13-.58.78-.51.11-.2-.67.39-.74L396,142l2.59.05.94.24Zm4.36-.64-1,.34-1.65-.21-.34.47-.36-.12.09-.58.79-.56,2,.08.8.13Zm-21.47,2.9-2.51.14-.84-.08v-.27l4.28-.31h1.23l.61.31ZM408,141.28l-.6.36-.83-.31.44-.39ZM394.47,143l0,.56-1.87-.31.52-.52h.58Zm19,2-.76.09-.12-.54.6-.43.6.38Zm-33.24.73-.71.95-.49-.74.67-.46Z" transform="translate(-2.03 -6.87)"/><path class="cls-7" d="M421.87,168.42l-.56-.95.08-.3.78,0,.32.56.64.38.66-.36.57.23,1.41,1.28,2,.22.51.78,2.16.28,1,1.37,1.34,0,.18-.51.55-.35.41.22.68,1-.94.35.55,2.86v.67l-1.6,1.26-.54-.13-2.39-.94-.76-.35-1.26.08-.4-.16-.29-.67.15-.68-.19-.53-.67-.22-.3-.46.11-.39-.4-.27v-.41l-.76-2.09-.36-.34-.85-.2-1.26-.77Zm1.81-14.11.44-1.29-1.06-2.21-.1-.59h.62l1.35.63.84-.52.67.15-.6,1-.35.24.32.9.46,2-1.14,1.11-.83,0-.25-.19-2.07.58.49-1Z" transform="translate(-2.03 -6.87)"/><path class="cls-7" d="M445.39,239.93l.15.25-.6.67-.73.18-.61-.06-1.17.56.86,1.15-1.45,1.88-.24.84-.79.71-1.26.74-.71.74-.09,1-.84-.35-.31.13-.39.81-.34.15-1.75-.23-.31-1,.52-1.32-.44-.39-1.16,0-.56-.69L430,246.85l-.49.27,0,.63,1.11,1.89.39.09,0,.82-.34,1-1.39-.18-1.07.65-1-.55-.44-.1-.93.19-.42.34-.77.24L424,252l-2.56,1.68-.51.57-1.46,2.08.89,1.33.58.17,2.15-.95.36-.4.8.22.27.74-.15.37.76,3.39-.67.75-.65.39-.62.72.19.9.36.37-1.43.42-3.25-.31-.78.25-.72.75.64.75-.17,1.26.43.8-1.16.93L416,270.65l-.35,1.5-.57.71-.81.67-.67,1.2-.52.52-.89-.11-.92.14-.42-.93-.57-.06-2.59,2.36-.84,1.2-1,.57,1,2.12.07.45-.85,1.82-.49.38-.78-.88-.66-.12-.49.45-.58-.1.06-1.39L402,279.75l-.85-.92-.07-.61.3-.78.19-1.28-.28-.71-1.79-.2-.49-1.2-1.68-.53.2-1.13.52-.78-1.82-.83-.33.49-.79.44-.13.64.1,1.86-.29.86-1.43.88-.72.27-.11.31.24.74-.09.78-.55.46-1.35-.09-.73.52,0,.71-.27.2-1-.49-2.16,1.16-.63,0-1,.33-.41-.43-1.23.09-.14,2-.37,1-2,.73-1.15.24-.48-.24-.84.13.08-1.13-.52.22-.23.67-.52.72-.81.52-1-.34-.33.72-.56.15-1-.93-1.6,1.72-.8.39-1.36-.28L368.8,288l-.52.19.1.88.48.29-.26,1.55-1.42.61-1.2-1-.27-1-.91.19-.84.56,0,.22.6,1.74.43.55-.55,1.29.4.83-.12.57-1.58.41-1.08.16-.72-1.27-.4.17-.23.91-.42.11-.42-.5.22-.8-.62-.78-2.29.66-1.46,1.33-1,0,.36-1.16-.3-.54-1-.91-.81.14.4,1.86.57,1.13-.66-.09.11-.54-1.29-1.78-.46-.45.78-1,.53-1.6-.06-1-.92-.43.15-.93-.22-.41-.67-.47-.82-.16-1.75-.12-.77-1-.33-1,0-.77,1.43-1,.7-.17.9-1.34.08-.34-1.08-.09-1.29-.25-.59-.83.43-.26-1.48-3.31-.62-.31-1.61.06-.22-.72.22-.54-1.05-2-.61-.63.36-.59.54.47.76-.78-.16-.64.1-.56,1-.39.53.44.52-1.14-.28-.78.23-.86.45-.59-.62-.13-1.52-.7,0-1.25.44-1-1.7,0-1.43-.09-.37-.47-.59-1.52-.22-1.54,1.45-.57.55,1.44.43.06.47-.34.55-1.22,1.13-.91.56-.06,1.41-1.06.56-.55,1.09-.34.84-.11.41-.41-1-.8,1.22-.46-.38-.41-1.26.47-.54.39-.72-.07-.2-.55v-1.72l.23-1,.41-.22,1.22-1.12,1-1.44.55-1.1.65-.27,1.12-.89-.4-1.88.8-3.19-.11-1.89-.28-.73-1.08-1.94-1.68-2,1-2.23-2.14-.94-.25-.3,0-1.39.6-.34-.35-.39-1.15-.79-1-.08v-.49l1.13-.67-.23-1.45-.54-.66-.21-.69.53-.5.88.33,1.79-.8,3.1.84,0-.9-.94-1.86.81-.16.92.63,0,.5.84.66,1.65-.12.56.32.93.87,1.71,1.17.28.08-.37-1.71.12-.42,1.63.55.5.56.85-.28.88-.58,1.5-.6,1.66-.41,1.08-.44.64.3.64.7,1.44-.84.76-.85.21-1,.85-.19.15-.37-.1-.95-1.93-1.78-1-.6-.79-.08,0-.64.31-.76,1.13-.09.4-.35.36-.84.1-.75,1.74.16.93,0,.54-.47.3-1.09.8-.83,1.27-.16L377,211l.46-.93.84.16.58-.1.74-.55h1l.69-.81,1.05-.14,2,.27,1.88.12.58-.68.79-.06.53-.23.26-.54,1.86-1,2-1.52.85-.38.79.11.71-1.53.19-1-.46-.3.48-1.24.54-.72,2.12.91L398,202l.23,1.53.45.13,2.09,1.34.91.18,1.41-.5,1.29.87.27.72-.05.65.73,1-.53.3-.7.12-.18.42.68,1-.3.3-1.25,2.5,0,.88.83.67,1.9.11.46.78-.64.65.07,1.34-3.13.89-.45.33.58.86.25.73,1.6.72.56-.54,1.12-.79,1,.07.69.24.13.31.87-.42,1.29-.15.84-.72.55-.7,1.42-1.15,1.17.65.4-.29,1.09.36.68.5.62-.3v-.91l1.26-.85.46,0,.72-.48.35-.54-.08-.37-1-.34-.44-.32-.1-.69.73-1.4v-1l-.19-1.6.14-.69-.38-2-1.37-1.14-1.87-.77-.3-.27.24-.91-.61-1.42.55.13,1.21.54,1.9-.11.71-.58.22-1.53,1.44-.86,1.28.71,2.64-1.28,1.4,1.44-.15.64.11,4.15,1.08.41,1.15-.48,1.88.51,2.3-.5,1-1.14,2.37-3.23,2,.78.2.42-.93.83-.27.61.44.34.36.63,0,.75-.77,1.53-1.08,1.4-.94-.26-.81.82-.22.52-.17,1.21-.62.35.41.92,2.6,1.3L435,214l.08.58-.19.5-1,.14.23.42,0,1.08.75.32,1.55.46.78-.23.45.17.41.69-.39.93.78.63.41.67-.47.51,0,1.19.36.38.21.75-.68,1.17.42.92.45.25.31-.65,1.36-.08.37.65-.45.71.63,1.16.74,0,.79.66.09.84-.12.81.13.54.57-.17,1.64.45.55.44-.12,1,.17,1.43-1.4,1.61-.44.17-.25.64.67,1.89-.21.91-.5.82-.09.55.33.21Z" transform="translate(-2.03 -6.87)"/><path class="cls-6" d="M459.23,252.89l-.13,1,.15.59,1.18,2.57,2.37.31.14.45.25,2,.12.1,2.68.64.47.22.85.8.56.15,0,.63-.59.41-.2.59.26.46,0,1.06-.31.29-.65-.75.15-.57-.38-.55-1.17.34-.23.37,1.12.83.35.64-.78,1-.11,1.22,1.27.53.86,1-.27.83-.7.43-1,.25-.58-.42-1.56-.42-1-.05-.54.83.08.45,1.13,1.83-.41.3-1.81.18.78.69,1.27,1.43v.36l-1,.71-.08.85.48.16-.43.62-.8.25-.61-.3-.7.53-.22,1.23.26.42-.07.53-.78.32.37.51.09.83-.8,1.77-1.1,1.48,0,1.59,2,.34.42-.08L460,287l-.62-.95.4-.33,1.16-.33,1.48.13.47.76.49,1.22-1,.38-.38.55.34.67.22,2L462,292.3l.07.58-.22,1.22-.48,1.1-.63.28-1.08,1.45-1.79,1.15-1.28.32-1-.38-.52-.82-1.11-.18-.54.5.27.48-.5,1.81-.4.46.44.78v1.18l-.28.58-1.07,1-1.17.4-.83,1-.09.7-.41.57-1.16,0-.23-.54-1.74-.07-.54-.36-.15.64.46,1.23-.2,1.51.08,1.72.29.88-.2.93-1-.07-2.07.45-.51-.52-.56-1.59-1.1-.17-1.68-.5-1.7-.31-.46,0-.8.49-.82,1.61-.44-.61-.7-.61-.69,0-.18.39-1.48.08-.76.15-.66.9V313l-.65,1,.12.46.71-.11.8.46v1.53l-.45.57-.05.69.27,3.17.37,1.8-.32.19.2.59-.15.65.84.45.41.88.26,1.11.54-.33.69.14.09.6-.63.39-.26.71.66.18.67.62-.77,1.68-1.11.52-.09,1.29.39.36-.06.86-1.07.88-.08.94.62.28.46,1-.32,1.7.63.39.33.6-.61.57-.19-.8-1-.1-.59.63-.27.62-.79.14-.12-.28-.79-.36-.87.28-.89,1.57.59.79-.82.62-2.15,2-1.07,0-.6-.42.12-.75.81-.23.16-.39-.25-1.79.79-.6.75.85.72-.81,0-.88-.53-.17-1.16.28-1.43-.67-1.14-.24-1-.35-.67-.62-.52-1.82,0-.78.46-.48-.08-1.06-.43-.16-2.65.62-.11.69.37.13.4,2.38-1.22,1.05-.64,0-.59-.51-.4-.93-.95-1.22-.86-.82-.5-.07-.8.27-.3-.91-.79-1.13-.71-2.55.2-.87.42-.33,1.38-.43.61-.31L414,327l-.18-.26-1.11.05-.49-.26-.55-1.58-.62-1,.29-1.5-.9-.54-.27-.51,0-.69.4-1.23-.35-1.64-.35-.72-.68-.91-.43-.36-.81-1.2-.75-.67-1-.27-.82,0L399.37,316l-1,.25-1.78,0L396,316l-.25-1.33-.22-.45-.84-.66-1.18-1.2.08-.74,1.53-.59.26-1.33.56-.84,1.28.4.86.82.16-1.74-1.11-1-.13-.87,1.11-1.18,2-.82.78.5.64,0,.82-.68-1.09-1.14.46-.63,1.09,0,.2.59.7.08.61-.8,0-.74-.29-1.4-.74-.42L403,298l-1.17-1.65-1.6-.55,1.09-2.44-.62-1.1.2-1.15.3-.52,1.16-1.29.6-.08.5.24.11.47,1,.3L405,290l1-2.47-.33-1.22-.75-1.84.11-.85.45-.45.49-.38.85-1.82-.07-.45-1-2.12,1-.57.84-1.2,2.59-2.36.57.06.42.93.92-.14.89.11.52-.52.67-1.2.81-.67.57-.71.35-1.5,1.24-1.47,1.16-.93-.43-.8.17-1.26-.64-.75.72-.75.78-.25,3.25.31,1.43-.42-.36-.37-.19-.9.62-.72.65-.39.67-.75-.76-3.39.15-.37-.27-.74-.8-.22-.36.4-2.15.95-.58-.17-.89-1.33,1.46-2.08.51-.57L424,252l.7.16.77-.24.42-.34.93-.19.44.1,1,.55,1.07-.65,1.39.18.34-1,0-.82-.39-.09-1.11-1.89,0-.63.49-.27,3.14-1.08.56.69,1.16,0,.44.39-.52,1.32.31,1,1.75.23.34-.15.39-.81.31-.13.84.35.09-1,.71-.74,1.26-.74.79-.71.24-.84,1.45-1.88-.86-1.15,1.17-.56.61.06.73-.18.6-.67-.15-.25,1.68-.12-.16.8.69.5,1.48.15,1.21-.22.4-.38.27.53.06.74.67.8.69.48-.38.64-1.1-.75-.26.54.28.65-.46,1.29-.36.39-.62.26.92,1.66.2,1.71.36,1.15-.36.45-1.46.33-.5.81-.25,1.26.4.78.38-.09,1.35,1.09,1.47.34,1.49.79,1.05-.51.19-1-.3-.45-.79.39-1-1.51,0-.2,1.62-.95,1-.94.5-.18.82.44v.8l.61.6-.29-1.39,0-.59,1.6-.29.59,1.05Z" transform="translate(-2.03 -6.87)"/><path class="cls-6" d="M405.56,283.19l-.45.45-.11.85.75,1.84.33,1.22L405,290l-.53.25-1-.3-.11-.47-.5-.24-.6.08-1.16,1.29-.3.52-.2,1.15.62,1.1-1.09,2.44,1.6.55L403,298l.4,1.68.74.42.29,1.4,0,.74-.61.8-.7-.08-.2-.59-1.09,0-.46.63,1.09,1.14-.82.68-.64,0-.78-.5-2,.82L397,306.4l.13.87,1.11,1-.16,1.74-.86-.82-1.28-.4-.56.84-.26,1.33-1.53.59-.08.74,1.18,1.2.84.66.22.45L396,316l.54.28,1.78,0,1-.25,6.09-2.19.82,0,1,.27.75.67.81,1.2.43.36.68.91.35.72.35,1.64-.4,1.23,0,.69.27.51.9.54-.29,1.5.62,1,.55,1.58.49.26,1.11-.05.18.26-1.3,1.86-.61.31-1.38.43-.42.33-.2.87.71,2.55.79,1.13.3.91-.31,1.35.46,1.64.88,2.44-.67.62.06.49.43.2h.88l.58.42-.43,1.5.05,1.6-.45.92-.93.74-.22.37.18.58.53.23.37.52-.07.41-.63.3-2.49,2.2.43.71-.23.58-1,1.73v1.17l-.43,1.93-.36.78-1.11,1.25-.45,1-.21,1.09-.56,1.07-1.64,1.18-.31-.48-1.59-.22-2.43-.63-.76-.49-.53-.77-1.57-.77-1.57-1.36-.41-.14-.31.6-1-.22-.77.68-.37-.14L391.14,359l-.85.81-1.14.11-1.23-.57-.55.4-1.32-.54v-.87l-.84-.5-1.41-.09-.79-.76-.91-1.87.33-.93-.35-.68-1.48-.84-2.51.4-.08.68-1.23-1.55-.56-1-.28-1,.06-.41.54-.73.54.38.71-1.1.88-.32.44-.59.37-1-.26-.3.56-.74.12-1.48-.27-.15-.81.28-2.29-1.37.25-.41-.47-.95-.57-.35-.39-1.09,1.29-.44.61-.78-.73-.54.16-1.18-.09-2.51-.4-.77-.71.46-.69.05-.77-.57-.43-.52.1-.55-.66-.33-.43.36L371,332.1l-.19-.56-.63-1-.87-.45-.52.47-.6-.31-1.47-.22-1.52.83-1.23.43-.57.69-.83-.19-.51.24-.71.77-.93.44-3.59.46-.83.74-.83-.25-.43-.63H354l-.56.44-.87-.17-.66-.69-1.24-.33-.49,0-1-.29,0-.43-.55-.68.83-1.15.53-.17.69-.66.72-1.51-.24-.77,2.34-1.85.21-1.82.56-.86-.19-1.88-.85-.71-.68.42-.73-.05-1-.66-.53-.86-1.61-.63-.82-1-.9-.55-.75-1-.16-2.36-.48-.31-.8-.06-.75-2.17.17-.42-.08-.76-.67-2,.75-2.12.72-1.35-.29-1.26.25-.47,1,.13.35-.14,0-1.1-.52-.93.33-.52,1-.76,1.57-.49.9-.63,0-.54.7-1.13.64-.16,1,1,.66-.68.65,0,.66.09-.57-1.13-.4-1.86.81-.14,1,.91.3.54-.36,1.16,1,0,1.46-1.33,2.29-.66.62.78-.22.8.42.5.42-.11.23-.91.4-.17.72,1.27,1.08-.16,1.58-.41.12-.57-.4-.83.55-1.29-.43-.55-.6-1.74,0-.22.84-.56.91-.19.27,1,1.2,1,1.42-.61.26-1.55-.48-.29-.1-.88.52-.19.92-1.26,1.36.28.8-.39,1.6-1.72,1,.93.56-.15.33-.72,1,.34.81-.52.52-.72.23-.67.52-.22-.08,1.13.84-.13.48.24,1.15-.24,2-.73.37-1,.14-2,1.23-.09.41.43,1-.33.63,0,2.16-1.16,1,.49.27-.2,0-.71.73-.52,1.35.09.55-.46.09-.78-.24-.74.11-.31.72-.27,1.43-.88.29-.86-.1-1.86.13-.64.79-.44.33-.49,1.82.83-.52.78-.2,1.13,1.68.53.49,1.2,1.79.2.28.71-.19,1.28-.3.78.07.61.85.92,1.13,1.39-.06,1.39.58.1.49-.45.66.12Z" transform="translate(-2.03 -6.87)"/><path class="cls-6" d="M415.74,426.86l-.32-.29.48-.66,1-.41.26.66-.24.52Zm30.45,5.9-.92,0-.85-.25-.39-.4-.63-1.63-.66-1-1.53-.32-.89-.51-.75-.17-1.41.34-1.44-.67-1.51-1-.68-.67-.52-1V425l-.37-.37-1.83-1.05-.5-.09-.5-.68L429,421.46l-.27-.37-.69-.14-.2.63,1.46,1.59,1.6,1.12.73.22.71.66,1.05,2.28.22.88-.37.25-.8-.2-.42.53-1.54-.61-1-.62-2.33-.41-1.34.57-1.32.8L423,429l-1.38-1.67.06-.77.74.18-.1-.56-1.2-.47-1.16-1-.88.77-.05.54.93.25.37.48-.47.83-.35-.06-1.6-.83-.73-1.83.13-.42.84-.69-.84-.65-.29.2-1.47-1.93-.41.63.15.72-.68.64-.38-.47.08-1-.17-.64-1.48-.38-.47,1.13-1.32.47-.8.05-1.4,1.46-1.37,2.2-.24.9.2.43,1.82,1.43,1.93-.2,0-.74,1.24-.46,1.35.12.71.88-1.09.41.18,1.54-.7.71-.68-.27.27-.77-1-.71-.75-.15-2,1.44.29.91.59.33-1.66.45-2-.16-1.63-.31-.81-.81-.07-.91-1.2-.47-1.31-.22L397.18,431l-.45.88-.44.29-2.13.24-.75-.32-1.29-.12-.57.6-1-.34-.26-1.5-.32-.32-.76-.14-1.57,0-.35.72-.59.66-1.5.54-1.86.4-1-.21-1-1.22,1.7-.12.14-.29-.64-1-.75-.26-.17.37-.7.47-.35,0-.5-1.37-.71-1.36-.83-.81-.57-.78-.18-1.71.26-.44.91-.86.11-.87-.35-1.22.11-1.14,1-2.21,0-2,.79-.69.14-1.41.26-.63.78-.78.46-.92-.16-.9-.32-.71-1-1.38.14-2.31.4-1,.07-1.12.84-1.67,1.43-2.07.91-.92.83-2.78.12-.79L386,395l1.06-.38.37-.7-.27-1.47,0-1.24.17-.66,1.08-2.34.24-1.73,1-.64.3-.73.09-2-.11-1.1,1.11-1.78.47-1.08,1.28-.56.44-.41,2.35-2.66.19-1.39.43-.26.72.17.47-.27.29-1,.38-.25.93,0,.6-.44.57-.76.49-1.65.45-1.16,1.06-1.8,1.25-1.86,1.18-.46,1.64-1.18.56-1.07.21-1.09.45-1,1.11-1.25.36-.78.43-1.93V355l1-1.73.23-.58-.43-.71,2.49-2.2.63-.3.07-.41-.37-.52-.53-.23-.18-.58.22-.37.93-.74.45-.92-.05-1.6.43-1.5-.58-.42h-.88l-.43-.2-.06-.49.67-.62-.88-2.44-.46-1.64.31-1.35.8-.27.5.07.86.82.95,1.22.4.93.59.51.64,0,1.22-1.05-.4-2.38-.37-.13.11-.69,2.65-.62.43.16.08,1.06-.46.48,0,.78.52,1.82.67.62,1,.35,1.14.24,1.43.67,1.16-.28.53.17,0,.88-.72.81-.75-.85-.79.6.25,1.79-.16.39-.81.23-.12.75.6.42,1.07,0,2.15-2,.82-.62-.59-.79.89-1.57.87-.28.79.36.12.28.79-.14.27-.62.59-.63,1,.1.19.8.61-.57-.33-.6-.63-.39.32-1.7.17-.08,2,.15.23.18,1,0,1.14-.41,1.12-1.39-.46-.82,1-.75.55-.1,2,.4.72-.07.42-.61-.64-.63.78-1.16-.24-.86-.4-.71-.58.12,0,.79-.77.23-.42-.63.85-.39-.94-.43-.5.13-.86-.45.61-1.19,1.45-.24.95.11.51-.43,1.05.22.55.28.61-.79.58-.06.4.32-.06.76.34.26.81-.17,3-1.23-.34,1.72-.21,1.8L449,331l.83.76.69-.28.08-1.08,1-.5.16.87.36,1,.69-.37.11-.7,1.17-.93,1.23,1.31.25.94-.56.8.28.81.68.29.38,1v.72l-.6,1.43-.32.39-.9.57,1,.46.48.07.19-1,.32-.51.76-.36.39,0,.42,1.73-.09,2-.34.69.48.42.78.16,2-.18,1.29-1.58-.7-.49,1-.73.45.08.23.58-.43.25.18.65,1,.44,0,1.47-.67.73-.08.49.52.34.66.11.88,2-.54.54-.57-.21-.57.41-.16,1.66.21.72.88.11.2.5-.41.53.08.43.56.76-.13.52-.46.31-.43.72L464,355l.16.28.81.11,2.16,1.52.71.61.22.81-.94.56-.64,1,.78.4.65-.11.37,1.48.09.77,2.6.83,1,1.38.91,1.05,0,.5.5.28.83,1.07.17,1-.1,2.72-.18,2.26-.47,1.77-.4.16-.11,1.17.68.48,1.34,1.55.34,1-.84.74-.48.22-1.24.24-.08-.31.86-.94-.1-.54h-.77l-.47.46-.1,1-.86.65-.34,0-.14-1.12-.4-.6-1,.19-1.09-.85L468,380l-.07.76.45.85,1.71,1.84-.83.23-.08.67.52.64.14,1,0,1.4-.52.46-2.13.3.3.9-.72.16-1,.55-.88.9-1,.08-.29-.69-.59,0-1.23.62-.88,0-.21,1.64-1.19,1.44-.66.66-.09.45.76.16.09.81,2.12,3.93,0,1.71.69,2,.83,3.11.78,1,.22,1.56-.06,1.26-.5.7.34.57-.55.91-.16,1.38-.66.19-.24,1,.75.8-.22,2.48-.69.67,1.59,2.65L461.68,423l.41.82,1.18.54-.18,1,.22,1.33.61.68-.31,1.08-1.24.59-.42.48-.69-1.26-1-.27-.8.19-.44.33-.46.87-.57.22-.93-.1-1.35-.64-.48-.41-.72-.18-.64.25-.18.74L451,431.9l-1.34.08-.44-.45-1.15-.11-.79.89Z" transform="translate(-2.03 -6.87)"/><path class="cls-6" d="M474.23,434.44l-.76,2.54.28.83.92.49.25,2.12-1,.89-.68,1.56L471,445.14l-.37.79-2.12,1.56-1.34.54-2.27.33.16-1.21.69-.12.53-.68-.49-.72.16-.56,1-1.63-.25-.88-1.52-.18-.39.32v.71l-.88.21-.79-.42-.67,1-.54-1.9-.43-.78.85-.39.34-.53-.71-1.42-1.26-1.48-1.26.23-.35-.2-1-1.69-.14-.67-1.26.21-1.47-.52-.13.56-1.13-.71-.59-.6.15-.25,0-1.3-.71-.43-.87.06-.65.72-.91,2.22-.54-.78-1.92-.41-1.49-.79-.21-.58,1-.45.79-.89,1.15.11.44.45,1.34-.08,2.7-2.62.18-.74.64-.25.72.18.48.41,1.35.64.93.1.57-.22.46-.87.44-.33.8-.19,1,.27.69,1.26.42-.48,1.24-.59.31-1.08-.61-.68-.22-1.33.18-1-1.18-.54-.41-.82,2.09-1.25-1.59-2.65.69-.67.22-2.48-.75-.8.24-1,.66-.19.16-1.38.55-.91-.34-.57.5-.7.06-1.26-.22-1.56-.78-1-.83-3.11-.69-2,0-1.71-2.12-3.93-.09-.81-.76-.16.09-.45.66-.66,1.19-1.44.21-1.64.88,0L463,390l.59,0,.29.69,1-.08.88-.9,1-.55.72-.16-.3-.9,2.13-.3.52-.46,0-1.4-.14-1-.52-.64.08-.67.83-.23-1.71-1.84-.45-.85L468,380l.41-1.1,1.09.85,1-.19.4.6.14,1.12.34,0,.86-.65.1-1,.47-.46h.77l.1.54-.86.94.08.31,1.24-.24.48-.22.84-.74-.34-1-1.34-1.55-.68-.48.11-1.17.4-.16.47-1.77.18-2.26.1-2.72-.17-1-.83-1.07-.5-.28,0-.5-.91-1.05-1-1.38-2.6-.83-.09-.77-.37-1.48-.65.11-.78-.4.64-1,.94-.56-.22-.81-.71-.61L465,355.43l-.81-.11L464,355l-.11-2.23.43-.72.46-.31.13-.52-.56-.76-.08-.43.41-.53-.2-.5-.88-.11-.21-.72.16-1.66.57-.41.57.21.54-.54-.88-2-.66-.11-.52-.34.08-.49.67-.73,0-1.47-1-.44-.18-.65.43-.25-.23-.58-.45-.08-1,.73.7.49-1.29,1.58-2,.18-.78-.16-.48-.42.34-.69.09-2-.42-1.73-.39,0-.76.36-.32.51-.19,1-.48-.07-1-.46.9-.57.32-.39.6-1.43v-.72l-.38-1-.68-.29-.28-.81.56-.8-.25-.94L454,329.78l-1.17.93-.11.7-.69.37-.36-1-.16-.87-1,.5-.08,1.08-.69.28L449,331l.22-.64.21-1.8.34-1.72-3,1.23-.81.17-.34-.26.06-.76-.4-.32-.58.06-.61.79-.55-.28-1.05-.22-.51.43-.95-.11-1.45.24L438.9,329l.86.45.5-.13.94.43-.85.39.42.63.77-.23,0-.79.58-.12.4.71.24.86-.78,1.16.64.63-.42.61-.72.07-2-.4-.55.1-1,.75.46.82-1.12,1.39-1.14.41-1,0-.23-.18-2-.15-.17.08-.46-1-.62-.28.08-.94,1.07-.88.06-.86-.39-.36.09-1.29,1.11-.52.77-1.68-.67-.62-.66-.18.26-.71.63-.39-.09-.6-.69-.14-.54.33-.26-1.11-.41-.88-.84-.45.15-.65-.2-.59.32-.19-.37-1.8-.27-3.17.05-.69.45-.57v-1.53l-.8-.46-.71.11-.12-.46.65-1v-.85l.66-.9.76-.15,1.48-.08.18-.39.69,0,.7.61.44.61.82-1.61.8-.49.46,0,1.7.31,1.68.5,1.1.17.56,1.59.51.52,2.07-.45,1,.07.2-.93-.29-.88-.08-1.72.2-1.51-.46-1.23.15-.64.54.36,1.74.07.23.54,1.16,0,.41-.57.09-.7.83-1,1.17-.4,1.07-1,.28-.58v-1.18l-.44-.78.4-.46.5-1.81-.27-.48.54-.5,1.11.18.52.82,1,.38,1.28-.32,1.79-1.15,1.08-1.45.63-.28.48-1.1.22-1.22.29-.1,1.28-1.37.4-.69.39-.05.28.74.62-.15,1.57-.1.81,1.12.34.81L470,294l.68,0,.32.52.19,1,.39.58,1,.9-.29.94.32.67.88.09.84-.45.64,1.37,1.19,1.06.32-.19.93,0,.32.76,1.08.2,0,1.47-.27,1.43.65,2.24.69,0,.83-.19.75.39.89.68.43-.47-.15-1.54.58.16,2.46.26.61-.37-.09-1.27-1.18-.31-1.13-.71-1.59-1.24,0-2,1.22.23.91-1.26,2.21-.12,1.19.12,1-.39.77.79v.33l.74.79.31-.67,1.28.2.25.77,1.17-.55.16-.45.81-.07,1.29,1.64.07.32-.8.64,0,.52.41.71,1,.74.32-.09.24-1,1.53,1.15.39-.36-.18-2.25.22-1.47.56-.33-.42-1.53-.15-1,0-.89-.49-1.34-.13-.68,2.19-.6.32-.89.34-.5.74-.13,1.61.3.5.66-.6.3.09,2.39.92.56h1l.44,1.46.7.87,1.12-.16.44-.8.59-.12,1,.7,2.19-.62,1.55-.77,1.33-.21.86,1.28,1.26-.55L517,297l1.14-.41.37,0,1.07,1.2.49,1L519.9,300l.62-.15,1,.66.79.34,1-.08.31.66.75.47.48,1.37-.38.41-.8.38-.23.52.56.61,1.42.41,1.4,1.77.5,1-.55,1.23.21,1.57,2.32,1.47-.44.65.61.34.5-.17.64.25.39.86,2.29,1.22,2,.53.7.5.3.45-.62.76-.18.55.25.41,1.85.44.32.26,0,.94-.86,1.58-.53,1.33-.52-.09-.23.38.11,2-.07.15-2,1.29.07.85,1.34,1.88,2.34.66.29.9-.13,1.67.23.67.95-.12.54,1.53v1.29l.62.77-.1.24,1,.47.48-.23.29.43,0,1.62-.3.59.52.33.32.82,0,.77.76.35.85,0,1.66,1.36,0,.93.73,1.28.74.26,2.22.25.46,0-.34-.79h.68l1.55.26.7.37,1.84,1.31,0,1.2.27.65,1.15.73L557,352.6l1.68,1.25.51.49-.13,1,1.12.92,1,.38,1.2-.4.42.08,1.25.94,2.39,2.17.44,2.15-.14.74,3,2,.4,0-.1-1.3.64-.27,1.39.26,1.66,1.22.49.56.7,1.51.69.66,1.42-.13,1,.64.59,1.4.73.36.94,1.31-.26.78.28.32.68.08,0,.43-1,2.45.65.86v.45l.55,2.35,0,.79-.61,2.23-.83.82-.58-.32-.3,1,.19.61-.61.94-.63-.18-1.45-.73-.54-.72-1.1-.39-1.33.08-.68-.37-.86-.78-.62-.09,0,.59-.45.58-.85.64-.52-.49-.36.43.47.9.31,1.19-.8,2.61.47,1.39-.61,2.39-.2.37-2.42,2.58-2,1.44-.34.14-1.43,0-1,.1-1.35.74-1.53.2-2.28,1.33-.4.76-1.31,1.47-2.49.44-.46.37-.48,1.47-.45.58-1.06.55-.42,1.07-.79.24-.27.51.28,1.35.38.57,1.95,1.57,1.11,1.22.49,1.79.25.36,1.43.37,1.66,2.47.6,1.22.74,1.06,0,.54-1,1.76-1.16,1.66.51.39-.25.81-.46.21-.49.86.86.81h1.87l1-.8.93.45,1.2,1.17.09,1.19.57.95.05.63-.58.61-.87,1.69.33,1.28-.73,1.27.49.38.14,1.55-1.25,1.42-.49-.59-.52-.32-.34.49-2-1-2-1.66-1.43-.65-.46-.38-.56-1.08.38-1.06.46-.51.55-.12-1.19-1-.28,0-.8-.9.65-.44,0-.67-1.07.07-1.09-.07-.65-.24-.73.05-2.23.52-.66,1.29-.23.75-1.28-.14-.76.56-.45,0-1.14-1.14-.93-1.27.1-.73-.46-.21-2.11.68-.81-.27-.08-.31-1.37.36-1,.65-.75-.74.15-.84.52-1.06-.5-.42-.72,1.15-.7.54-1.3.4.16.76,1.11,2,.36,1.42-.77.5-.2-.48-1.32.46-2-.31-.59-.22-1.07.4-1.47-.34-1.93.35-2,.62-.51,1-.64-.13-1.95-.15-2.31.11-.58.24-.77,0-.92-.4-.76.53-.59,1.21,0,1.57-.54.54-2.15.52-1.92-.23-.49-.16-1.43,1.7.21.65h.49l.21,1-2.59-.07L502,441l-.26.64-.48.28-1.41.13-.11-.3.83-1.51-1.5,0-2.54,1.1-.41.78-2.75.14-1.16,0-.86-.26,0-.83.4-.63-.87-1.07-1.73-1.56-.62.23-.59-.18,0-.74,1.13-1-.65-.93-1.07.16-1.88.63-1.06-.3-.44-.47-1.83-.37-.59-.68-2-.37-.69.09-.52.42-.23,1.09-1.64-.09-1.12-.21-1.16-.77.62-.73,0-.79-1.21.17,0,.74Z" transform="translate(-2.03 -6.87)"/><path class="cls-6" d="M378,353.71l-.11.69-1-.14-.45.25-.63,1h-.46l-1.19-.68-1.77-.2-.71.12-.18.27-1.61-1-.07-.75-.61.23.06.45-.71,1.19-.6-.27-.31-1.8-.06-.86-.42-.79-.91-.9-.48.24-1.55-.92-1.26,0-.86.42.36,1-.57,1.18-.55.25-1.5-.9-1.26.09-.51-.56-.23-.64.69-.79-.3-.74-.76.17-.19-.34.17-1.19-.56-1.56L355.64,345h-.29l-.73-1-.6-1.3.3-.49.42.45.46-.73-.38-.91-.71-.24-.65-.69.12-.61.47-.18-.49-.71L351.09,337l-.75-.76-.81.41-1.09-.26v-2.73l.76-1.08,1,.29.49,0,1.24.33.66.69.87.17.56-.44h.74l.43.63.83.25.83-.74,3.59-.46.93-.44.71-.77.51-.24.83.19.57-.69,1.23-.43,1.52-.83,1.47.22.6.31.52-.47.87.45.63,1,.19.56,1.56.35.43-.36.66.33-.1.55.43.52.77.57.69-.05.71-.46.4.77.09,2.51-.16,1.18.73.54-.61.78-1.29.44.39,1.09.57.35.47.95-.25.41,2.29,1.37.81-.28.27.15-.12,1.48-.56.74.26.3-.37,1-.44.59-.88.32-.71,1.1-.54-.38-.54.73-.06.41.28,1,.56,1Z" transform="translate(-2.03 -6.87)"/><path class="cls-5" d="M561.83,196.47l1.28.49-.67,1.14-.38,1.64.78-.39.8.17,2.41,1.09v.45l-1.35,2.18.16.81-1.33,1.51-.36-1.56-1.41-.67-.7.29h-.84l-.18-.43-.45-.1-1,.3-.41-1-.22-.06-1.11.55.31,1-.17.52-.93,0-.06-.46-1.3-1-.83.58-.4-.57-.63.39-.72.06-.14-.71h-.6l-1.68.86-.11.47-.91-.09-1-.58-.06-.39.64-.46.23-.49-.35-.49v-.72l1.42-2-.67-.43-.7.18.24-1.75.47,0,.14-.94-.19-.77.43-.34,1.17.45.34-.2-.49-.71.46-1,1.18,0,.41-1.18.62,0,.15,1,.86.19,1-.33.53-.91.79.51.22-.07,1.13-1.41,1.23.78v.78l-.27.16-.23,1,.35.6,1,0,1.15.8.18.95Z" transform="translate(-2.03 -6.87)"/><path class="cls-5" d="M580.89,159.34l.45,2.33.62,0,.21.63-1,1.85-.75,1-.15,1.39.63,1.29-.28,2.4-.45,1.53-.21.35-1.91,2.1-.73.59-.89.49L575,176.49l-.11.49.57,2.29.26.46-.07.64-.73,1.24.12.85.49.2,2,.18,1.08,1.17.74.6,1.46.56.66.37.61.6,2.92,3.25,1.23.68,1.73.78.9.64,1.11,1.34-.47,1-.26.89.35,1.09.57.36v.62l-.49,1-.74,1.19-.5.14-.38.52-.19,1.59.44.67.57,2,.34.51.19,1.45.54.66,2.74.6.35.22.53.79,0,3-.59,1.26.18,1.22.66.77.57.08.68.49.49.78-.21,1.5-.81,1.32.23.48v2.63l-.35,1.65-1,1-1.17,1.36-.45.91.05.77.56.72.72.09.63.7.37,1.3-.08.69.36.61.74.78,1.33.79.72,1.42.48,2.18-.9,1.3-.72.12-.33,1-.36.43-1.86.21-.41-1-.51-.28-.46.07-.59.93-.72.31-.44-.18-1.33.23-.33.59-1.5.24-.89,1.08-.88.38-.18-.24-1.37-.47-1.77-.2L580,241l-.82,1.14-.37,1.25,0,.69-.85,1,.26.64-.63,1.37-.45.41-.42.71-.1.64-1.62-.38-1,.65-.72.23-1.45-.35,0,.38-.43.35-1.21.53-2.72-.15-2.53.1-.24-.66-.58,0-.71.77-.58-.68-.15-.76-1.66-.59-1.09-.49-.54-.63-2.35.68-1.14,1,0,.54-1,.32-1.07-.11-.42-1-.4-.22.31-1.7-.18-1.32.2-.79-.05-.84-.57-.7-1.41-1.36.48-1-.21-.35-1.18-.63-.5.42-.37-.15-1.05-1.63,2-1.39,1-.86.67-1.15-.34-.75-.61-.66-.28-.9.56-.65-.25-1.07-.81-1.17-.49-1.18.87-.18-.44-.84-1.61.62-1.2-.06.19-1-.08-.38-.69-.13-1,.08-.36-.78-.53-.67-1.15-.11,0,.3-.79.27-1.05-.29L542,224l-1.35.35-.54-.13-.25-.6-1.13-.41-1.46-.66-.25-.32-.65.22-.07.59-.76.63-2.16,0-.15-.82-.87-.17-.61-.46-.16-.7-.55,0-.31.84-.55,0-2-1.24-.83-.92-.56-1.17-1-.43-1.77-3,.77-1.86.79-.27.53-.64-.75-.52-.72-.23.17-1.21.27-1.09.47-1,.72-1.27-.73-.86.47-.67-.42-1.92.71-1.46L526,200.8l-.36-.2-.81.36-.28-.34-.2-1.08-.56-.19-.37,1.07-1,.22-1.28-1.78.4-1.1.45-.76-.28-1.8,0-.48.9.32.75-.51.19-.49,0-1.16-.24-1.06h-.28l-.59-1.47,0-1.76.45-1.17.57-.06.35-.79-.82-2.15-.91-.88-1.92,1-.27-1-2.72-.55-1,.62-.74-.14-.64-.42-1.33-.28-1.46-.52-.3-.69.54-.61,0-.65-.51-.22h-.75l-.47-.25-.61-.9-.71-.16-.85.54-.48-.41,0-.66-.27-.36-.86.18-.47-.34.39-.88-.4-.41-.74.27-.39,0-2.09-.5L502,175.08l-.6-.25-1.09.29-1.49.86-.45-.19L497,174.43l-.4-.57-.07-.85.51,0,2.14.21.69-.57.09-.55,1.75,0,.71.5,1.33.12.58-.62.26-1.22-.3-1.69,1.82-1.75,1.63-.08,1.94.68,1.65,0,.38-.3-.47-.94,1.17.12.83-1.06,1.38-.17,1.93-1.14.1-1-.24-.62,1.13-.72-.25-.89.81.06.12,1,.74.1.64-.25,2.58-.5.37,1,.47.49,1.34-.21,2,1,1.83,2.29,1.45-.26.15-.31.72-.17,1.85.71.79-.37.91,0,.29.35-.19.58.69.3.83.16,1-.13-.11.61-.39.48,1,.51,1-.2.17-.23.83-.22.29.52.49.34.74-.64,1.37-.37.67.34-.91.71.9.62,1.11-1,.44-.54.95-.33.88-.74L546,166l1.17-.74.88-.06.75,1.33.65.1.54-2,1.23-1,1.61,0,.5.88.78.44.66-1.93.74,0,.62-.21.92-1.32-.26-1.42.14-.65h.52l.28-.72-.15-.88.48-.38,1.11-.33.65-1.57.39-.08,1.45-1.61.91,0,.89.26.58-.24.59-.91-1.37-.63-.09-.73.17-1,.38.29.76,1.12,1.49.59v1.31l1.2.75-.13.89,1,.21,1.47-.33,1.2.17.21.71h.72l.7-.53.36-.85h.41l1,.65,1,0,.38-.49.54.53.13,1.54-.4,1.38-.88,1.32-1.31,1.48-.71,1.07-.07.68.79,0,.91-.39,1.36.45,1.43-.35-.12-.75,1-.5.26-.74,1-.46,1.16-1Zm-19.06,37.12-.74-.23-.18-.95-1.15-.8-1,0-.35-.6.23-1,.27-.16v-.78l-1.23-.78-1.13,1.41-.22.07-.79-.51L555,193l-1,.33-.86-.19-.15-1-.62,0-.41,1.18-1.18,0-.46,1,.49.71-.34.2-1.17-.45-.43.34.19.77-.14.94-.47,0-.24,1.75.7-.18.67.43-1.42,2v.72l.35.49-.23.49-.64.46.06.39,1,.58.91.09.11-.47,1.68-.86h.6l.14.71.72-.06.63-.39.4.57.83-.58,1.3,1,.06.46.93,0,.17-.52-.31-1,1.11-.55.22.06.41,1,1-.3.45.1.18.43h.84l.7-.29,1.41.67.36,1.56,1.33-1.51-.16-.81,1.35-2.18v-.45l-2.41-1.09-.8-.17-.78.39.38-1.64.67-1.14Z" transform="translate(-2.03 -6.87)"/><path class="cls-5" d="M501.7,133.46l-.2.77-.63,1.09-.31-.12.08-1.54-.49.43v1l-.93-.05-.46-.73,0-.72.66-.57,1.83-.74.55.25Zm61.53-8.16,1.17,1.05,1.14.58,1,.23,1.24.67.9.88,2.53,2.09,1.08,1.15,1.44,1-.48.59.2.67.15,1.55-.46-.23-2.13.25-1.26.07-.66-.12-.64.27-.56.78-1.39.49.29-.61-.66-.52-.26,1.08-.52.32-.89-.07-1-.25-.2-.31.31-.62.57-.06,1-.41.65-.51.33-1-.26-1.15-.42-.76-.55-.39,0-.92.17-.26.8-.28.67.19.21,1.36.6-.2.54.2.51.59.36-.21-.08-2.29-.44-.87-.38-.12-.73-1-.61-.58-1.53,0,0,.81.46.3.19.43-.17.44-1.62.88-.3-.58.61-1-.11-.38-.52-.16-1.09.81-.33.61-.73.05-.17-.35.42-.56.55-1.91-.06-1.17-.85-.52-.61-.72-.19-.85.2-.5.64-.34.66.16.55,1.33Zm-30.58-12.1.53.15,0,.46-1.17-.26Zm48.24,46.14-.44,0-1.16,1-1,.46-.26.74-1,.5.12.75-1.43.35-1.36-.45-.91.39-.79,0,.07-.68.71-1.07,1.31-1.48.88-1.32.4-1.38-.13-1.54-.54-.53-.38.49-1,0-1-.65h-.41l-.36.85-.7.53h-.72l-.21-.71-1.2-.17-1.47.33-1-.21.13-.89-1.2-.75v-1.31l-1.49-.59-.76-1.12-.38-.29-.17,1,.09.73,1.37.63-.59.91-.58.24-.89-.26-.91,0-1.45,1.61-.39.08-.65,1.57-1.11.33-.48.38.15.88-.28.72h-.52l-.14.65.26,1.42-.92,1.32-.62.21-.74,0-.66,1.93-.78-.44-.5-.88-1.61,0-1.23,1-.54,2-.65-.1-.75-1.33-.88.06L546,166l.13.87-.88.74-.95.33-.44.54-1.11,1-.9-.62.91-.71-.67-.34-1.37.37-.74.64-.49-.34-.29-.52-.83.22-.17.23-1,.2-1-.51.39-.48.11-.61-1,.13-.83-.16-.69-.3.19-.58-.29-.35-.91,0-.79.37-1.85-.71-.72.17-.15.31-1.45.26-1.83-2.29-2-1-1.34.21-.47-.49-.37-1-2.58.5-.64.25-.74-.1-.12-1-.81-.06.25.89-1.13.72.24.62-.1,1-1.93,1.14-1.38.17-.83,1.06-1.17-.12.47.94-.38.3-1.65,0-1.94-.68-1.63.08-1.82,1.75.3,1.69-.26,1.22-.58.62-1.33-.12-.71-.5-1.75,0-.09.55-.69.57-2.14-.21-.51,0-.7-.74-1.7-.46-.24-.37.63-.88-.42-.47-1.12-.25-1.25-.91-.81-1.05-1-1.9-1.11-2.45-1.87-.62-.79,1.05-1.45.91-1.17-.5-1.42-1.29-.14-.39-.91-.75h-1.61l-.77.11-.41.25.07-.73.41-.17.19-.67-.07-1.26.35-1.26.54-.36,1.09.23.72-.91.84-.39.69-.51.84-.88.58-1.24-.23-1.36.47-.11.63.47,1.23-.26.44-.59L487,152l.16-1.74.6-.87-.39-.78.13-.84-.55-.68-1-.28-.34.2-1.29-.45-1.44-1.69-.18-.89.17-.31.06-1-.28-1.12-.41-.57v-.74l.61-1,.81-.16,1.19-1,.52-.66.91.24.27.46,1.39-.43-.12-.32-1.26-.4-.25-1.49.79-.4,1.29-1,1.4-.78,1.37-.38,1.45.15.89-.25.41.34.24.73,1.16.88-.07.82.2.58.56.34.46,0,.71-.54.91-.09,1.43.58.25.59.86.25.72-.81.21-.61.29-2-.09-.25.69-1.47,1.12-.14.4-.4,1.14-1.84,0-.6-.38-.48-.64.47-1.24,1.55-.15-.76.57-.88.9-.27.76-.56,1.19-1.48.45-.43,1.87-.12,1.46.36.89.06,4-1.5,2.85-.22.75-.57,1-2,.44-.4,2.62-1.74.88-.78.62-1.09,1-2.54.6-.56.56-.77.38-.77.56-2,.52-.75.34.54.92.69,1.61.13,1.29.26,2.69-.14,1.91,0,2-.26,0,.82-.34.28-.81.23-3,.26-.69,0-.39-.64-.83-.06-1.62.59-1.33.82-.16.63-1.83.41-1.6.23-.52.61.05,1.32-.75,1.13-.49.06-.19.44.23,1.5,1,.65,1.16.17.12-.36-.82-.16-.24-1,.64-.76.82-.28.06-1.19,1.55-.43.39-.82-.13-.6.33-.26.49.31.56-.08,1.37-.71.47-.42-.14-.7,1-.25.16.41-.71.31-.16,1.11.33.18.26-1.42H533l.2,1.15,1.2,0,.21-.84.31-.22.66,1.68.87.2.82-.69.44-1.62.76-.62L540,113l.72-.63.46.24-.2.66.1,1,.67.69.76-.08.36.84-.37.74.87,2.47,0,.34.65.5,1,.17.61,0,.73.69,1.94.51.53,1.34.75.91,0,.71.42.07.79-.57.82.31.95,1.95.06.56.49.81,1,.32.16-.19-.72-1.24.42-.44.93-.3.81,0,1.63-.58,1.72-1.53,1,1.41,1.23,1.17.52.14.3.41-.32,2-1,1.12.55.64.85.7h.43L565,133l.55.93-1.22,1-1,1.33-.31.54.26.75h1l.56.46.79,1.19.81.2,1.28,1,3.49,1.12,2.08.07,1-.87.27-.4.55.09.43.34.07.84-.35.53-.87.66.65.48.72-.18.48.6.2,2.16.93.73.12,2.32-.24.56.82,2.21.66.25.36,1.75.58,2.15.7,1.59ZM545.34,110l.42,0-.14.74L545,111l-.57.69-1,.43-.08-.42.65-1.46.58-.46Zm-1.62-4.85-.89.64.21,1.46v.61l-.51.48-.68,1.68.7-3.06,0-1.47L543,105Zm5.9-2.47-.13.67.22.84.34.64.91.87.91.12,1.18-.21.95-.34,1.41-.31.78,0,.73.39.48.52.11.89-.29,1-1.46,1.09-.78,1,0,1.12.5,1.15.87,1,.69,0,.47-.21,1,.83,1,1.41,0,.74-.33.95-.49.75-.91.42-.46-.48,1.24-.82.15-.45-.58-1.09-2.27.25-2.34.47-1,.75L550.46,119l-.23.62.94-.07.4.43.24.63-.18.32-.74.35-1.77-.43.32-1.68-1.62,1.07-1.63-.65-.31-.76-1.25.2-1.12-2.09.15-1.47.18-.3,1.65-.23.68.28.39-.09.57-.71-.84-1.07-.78-.64-1.12.3-.19-.36.41-1.09.59-.12,1.82-1.06.13-.2-1.14-.88-1.36-.09-.34-.37-.41-1.2,2.33-.71,1.13.47.12.93.62-.15-.36-1.37,1.13-1.09.53.09-.43,1.07-.05,1.26.71.05.36-.81-.67-.22.31-.65.84,1.24.29.57-.19.54.24.54,1.85.79-.32.82.94.09,0,.7-.7-.07.15.64,1.32.2.59-1.07-.3-1.43-1-.2-.05-1.39-.23-2.13-.74.28-.94.09-1-.83-.58-.69-.42-1-.41.11-.51,1-.36.41-1.12.81-.74.1.27-1.21.6-1.19.12-.68-.13-.6-.54.13-.87.84.27,1.32-1.39,1.54-.17-.53.91-.77.38-.92-.25-1.28.64-.86,1.11-.81,1.77-.45,1.64-.25.23.19,0,.68-.26.42-.68.22Z" transform="translate(-2.03 -6.87)"/><path class="cls-5" d="M548.62,238.4l1.05,1.63.37.15.5-.42,1.18.63.21.35-.48,1,1.41,1.36.57.7.05.84-.2.79.18,1.32-.31,1.7.4.22.42,1,1.07.11,1-.32,0-.54,1.14-1,2.35-.68.54.63,1.09.49,1.66.59.15.76.58.68.71-.77.58,0,.24.66,2.53-.1,2.72.15,1.21-.53.43-.35,0-.38,1.45.35.72-.23,1-.65,1.62.38.1-.64.42-.71.45-.41.63-1.37-.26-.64.85-1,0-.69.37-1.25L580,241l2.08,0,1.77.2,1.37.47.18.24.88-.38.89-1.08,1.5-.24.33-.59,1.33-.23.44.18.72-.31.59-.93.46-.07.51.28.41,1,1.86-.21.36-.43.33-1,.72-.12-.4,1.06.61,1.25.27.26,1,.22,1.9.71.49.38.65.17.46-.12,1,.12.77.4.62,1,.17.7,0,.92.12,1.21.56,2,.52.8,1.29,1.22.27,1.05-.12,1.35-.29.69-.25,3,.13,2-.33,2.1-.28.33,0,.76-1,3.18,0,.7-.62,1.88-.38.43-1.35,2,0,.59-.36,2.47-1,.18-.12-.18-2.16-.48-2.09-.7-.06-.34.42-1.59.38-.41-.14-1.19-1,.42-1,.58-.66-.52.46-.74.35-1.1v-1l-1.11-1-1.07-.32-1.62-.22-.63-.41-.69.68-.56.21-2.11-.74-.63-.62-.48,0-.27.47-.75,2.66.87.53.87,1,.3.16,1.57.36.37-.1.47.8-.34,1.13-2.35.92-1.09-.43-.68.45-.53,1.39-.63.38-1.16.31-1.65.93-1,1-1.22.2-.59-.07-.33-.35-1,.54-.23.76-.76.23-.57-.15-.19.71.28,1.12-.14.56-1.14.81-.88.18-.49-.35-1-.09-.84.42-1.79.42-.49-.36-.73.12-.44.65-.78.33-1.29-.11-.87.49.47.69.16.57-.47,1.79-.74.46-.11.34-.81,1-1.5-.5-.72-1.13-.64-.25.22.87-.21.49-1.25.59-.13.31.1.94-.84.37-.53-.93-.84.14-.38.69-.28.95.15.41-.82,2.23h-.61l-1.11-.28-1.47.58-.89.07-.41-.46-.4.17-.22,1.42v.78l-.23,1-.82,1.12-1.16.51-1.19-.6-.37-.31-2.21-1.28-.72.53-1.81.95-.7,1.24-.34.19-1.07-.41-2.25.3-.77.4-1.31.23-.58.88-.08.7-.74.51-1.83,1.46,0,.66-.92,1.33-1,2.56-.16.88.43.67v1l-1.37-.15-.42-.65.28-.58-.05-.9-1.43-1,.27-.49-1.54-.74,0-1.67-.53-.62-2.38.07-.13.19-.31-.66-1,.08-.79-.34-1-.66-.62.15.21-1.16-.49-1-1.07-1.2-.37,0,.15-.4-.85-.12-.27-.34.41-.52,1.13-.31.63-1.12-1-1.55-1.38.07-.47-1.06.38-.58.66-.15.73-.7L518,289l1.16-.65.72-.59-.27-.5.85-.67.36.44-.29.4.79,1.1-.29,1-.26.3.55.65,1.25-.14,0-1,.71,0,.48.45.49-.31.17-.43-.9-.26,1-1.94.46-.1.41.84.32,0,1.35-.73.87-.15,1.5-1.62.16-.88-1.41-.15-.41-.37-.31-.94.57-.73-.28-.35-.86.19-.3-.41.17-.72.36-.3.61.18.55-.63,0-.72-1,.05-.12-1.17.86.2,2-.73,0-.72,1.1-.61.7.14.31.35.6-.36.07-.74.4-.87.69-.65,1.22-.46.86-.21.58.2,1.91-.19.35-.78-.65-.86-.51-2-.37-.62-.78.45-.87-.41-.27-.36-.1-.83-.7-.11-.45-1.13L533,266l-.2-.78-1.29.44-1.1,0-.59-.23,0-.56-.73-.36-1.4.72-.14-.44-1.37-.15-.25-.77.46-.32-.37-.46-1-.19.2-1.27-.06-.69-.48-3.39-.44,0L524,255.9l-.62-1.21.6-.41.67-.13.05-1.38-.22-.85-.37-.34L524,250.5l.41-.53-.21-.55-.75.08-.14-1.16,1.33-1.32.2-.88-.46-.14-.06-1.13.39-.17,1.21-1.16,1.32-.14.45-.38.64-.86,1.55,0,1-.41.6-.74,1.14.38,1.59-.33.91-.5.11-.46.59,0,.41.42.61-.1.77-.68.37-1.2.38-.35,1.31.26.42.27.64.05,1.87-1.7.63.35.12.84,1.41.45,1.36-.37,0-.65.89-.25.49.19.39,1.28Z" transform="translate(-2.03 -6.87)"/><path class="cls-5" d="M548.62,238.4l-.73.53-.39-1.28-.49-.19-.89.25,0,.65-1.36.37-1.41-.45-.12-.84-.63-.35-1.87,1.7-.64-.05-.42-.27-1.31-.26-.38.35-.37,1.2-.77.68-.61.1-.41-.42-.59,0-.11.46-.91.5-1.59.33-1.14-.38-.6.74-1,.41-1.55,0-.64.86-.45.38-1.32.14-1.21,1.16-.39.17.06,1.13.46.14-.2.88-1.33,1.32.14,1.16.75-.08.21.55-.41.53.13,1.09.37.34.22.85-.05,1.38-.67.13-.6.41.62,1.21.25,1.61.44,0,.48,3.39.06.69-.2,1.27,1,.19.37.46-.46.32.25.77,1.37.15.14.44,0,.3-.68.79-.23,1.36,1.08-.13.21.37-.08.69-.66,1.12-.7.79-.17.7.19.35-.75.76-1-1.77-1.09.69-1.56-.62-1.72.29-.44.23-.12-.76-1.29-1.57-2-1.3-.77-.41-1.36.31-.75.28-1.54-.46-1.16-.59-.4-.36-.25-1-.77-.54-.67.1-2.07-.34-.63.27-.18.45-1.72.07-.63-.49-.19-1.13.46-.69.31-.8-1.22-1.8-.51-.18-.57.21-.58,0-.69-.55.07-.42.55-.74.45.44.51-.43,1.33-2,.21-.48L502.47,255l-.68-1-.17-1.14-.61-.5-.42.08-.89-.28-.28-.94-1.34.5-1.28-.19H496l-1.42.21-.77-.25-.24-.41-1.34-.53-.51-.05-.87.53-.88,0-.4-.47-.2-1.2,0-1.29-.8-.76-.4-.9.08-.67-1.14-1.25-.45-.9.21-.8,1.2.16.19-.47-.56-.67-.62.32-1-.95-1.21-.41-.82,0-.77-.32-1.75.35-.85-1.2-.22-1.07.14-.24-1.07-2-.73-1-.41-.26-.35-.67-.1-1.47v-1.33l.23-.44,1.24-.86.62-.84-.09-.9-1-.57,0-.78.33-.5.68-.24-.19-.38-.52.23-1-1.05-.72-1.09,1.09-.12,1-.3.56-.54-.2-.75,1.35-.32,2.54-.08L485,222l.6-.09.76-.43,1.61,0,.83.09.24-.73-.08-.57-.84-.4,0-.43,1.3-.4,1.36-1,.63-.92v-.79h-.67l-.63-.47,0-.74.49-.62,1.24-.33.28-.47-.35-.62-.41,0-.66-1.37L490,211l.76-.65-.09-.42-1-1.15.56-.54.44.05.82-.39.17-.88-1-.68-1.81-1.85-1.09-1.43,0-.44.38-.65,1-.49.73,0-1-1.16-.72-1.08-.35-1,.08-1,.89-.69.12-.9-.34-.1-.6.5-.6.26-.69-1.47-.57-1-.68-.78-.49-1.22-.31-.45-.73.16-.63-2.22-.55-1,.43-2.28-.14-.38.93-.36,1,.13.7-.2.81.26,1.41-.35,1.29-1.53.09-.91.28-.2,2.63-.1-.13.62.55.16,1.18-.31,1.76.16.44.43,1.65.59.55-.19,2-1.06,1.64-1.44.48-.29,1-.13-.39-.82.49-2.16,1.42-.31.9-1.07.74-.27.4.41-.39.88.47.34.86-.18.27.36,0,.66.48.41.85-.54.71.16.61.9.47.25h.75l.51.22,0,.65-.54.61.3.69,1.46.52,1.33.28.64.42.74.14,1-.62,2.72.55.27,1,1.92-1,.91.88.82,2.15-.35.79-.57.06-.45,1.17,0,1.76.59,1.47h.28l.24,1.06,0,1.16-.19.49-.75.51-.9-.32,0,.48.28,1.8-.45.76-.4,1.1,1.28,1.78,1-.22.37-1.07.56.19.2,1.08.28.34.81-.36.36.2.15,1.68-.71,1.46.42,1.92-.47.67.73.86-.72,1.27-.47,1-.27,1.09-.17,1.21.72.23.75.52-.53.64-.79.27-.77,1.86,1.77,3,1,.43.56,1.17.83.92,2,1.24.55,0,.31-.84.55,0,.16.7.61.46.87.17.15.82,2.16,0,.76-.63.07-.59.65-.22.25.32,1.46.66,1.13.41.25.6.54.13L542,224l.28,1.5,1.05.29.79-.27,0-.3,1.15.11.53.67.36.78,1-.08.69.13.08.38-.19,1,1.2.06,1.61-.62.44.84-.87.18.49,1.18.81,1.17.25,1.07-.56.65.28.9.61.66.34.75-.67,1.15-1,.86Z" transform="translate(-2.03 -6.87)"/><path class="cls-5" d="M527.69,265.23l1.4-.72.73.36,0,.56.59.23,1.1,0,1.29-.44.2.78,1.15.68.45,1.13.7.11.1.83.27.36.87.41.78-.45.37.62.51,2,.65.86-.35.78-1.91.19-.58-.2-.86.21-1.22.46-.69.65-.4.87-.07.74-.6.36-.31-.35-.7-.14-1.1.61,0,.72-2,.73-.86-.2.12,1.17,1-.05,0,.72-.55.63-.61-.18-.36.3-.17.72.3.41.86-.19.28.35-.57.73.31.94.41.37,1.41.15-.16.88-1.5,1.62-.87.15-1.35.73-.32,0-.41-.84-.46.1-1,1.94.9.26-.17.43-.49.31-.48-.45-.71,0,0,1-1.25.14-.55-.65.26-.3.29-1-.79-1.1.29-.4-.36-.44-.85.67.27.5-.72.59L518,289l.3.79-.73.7-.66.15-.38.58.47,1.06,1.38-.07,1,1.55-.63,1.12-1.13.31-.41.52.27.34.85.12-.15.4L517,297l-.48.74-1.26.55-.86-1.28-1.33.21-1.55.77-2.19.62-1-.7-.59.12-.44.8-1.12.16-.7-.87-.44-1.46h-1l-.92-.56-.09-2.39.6-.3-.5-.66-1.61-.3-.74.13-.34.5-.32.89-2.19.6.13.68.49,1.34,0,.89.15,1,.42,1.53-.56.33-.22,1.47.18,2.25-.39.36-1.53-1.15-.24,1-.32.09-1-.74-.41-.71,0-.52.8-.64-.07-.32-1.29-1.64-.81.07-.16.45-1.17.55-.25-.77-1.28-.2-.31.67-.74-.79v-.33l-.77-.79-1,.39L486.5,299l-2.21.12-.91,1.26-1.22-.23,0,2,1.59,1.24,1.13.71,1.18.31.09,1.27-.61.37-2.46-.26-.58-.16.15,1.54-.43.47-.89-.68-.75-.39-.83.19-.69,0-.65-2.24.27-1.43,0-1.47-1.08-.2-.32-.76-.93,0-.32.19-1.19-1.06-.64-1.37-.84.45-.88-.09-.32-.67.29-.94-1-.9-.39-.58-.19-1-.32-.52-.68,0-1.92-.94-.34-.81-.81-1.12-1.57.1-.62.15-.28-.74-.39.05-.4.69-1.28,1.37-.29.1-.07-.58.57-1.17-.22-2-.34-.67.38-.55,1-.38-.49-1.22-.47-.76-1.48-.13-1.16.33-.4.33.62.95-.25.56-.42.08-2-.34,0-1.59,1.1-1.48.8-1.77-.09-.83-.37-.51.78-.32.07-.53-.26-.42.22-1.23.7-.53.61.3.8-.25.43-.62-.48-.16.08-.85,1-.71v-.36L461.49,274l-.78-.69,1.81-.18.41-.3L461.79,271l-.08-.45.54-.83,1,.05,1.56.42.58.42,1-.25.7-.43.27-.83-.86-1-1.27-.53.11-1.22.78-1-.35-.64-1.12-.83.23-.37,1.17-.34.38.55-.15.57.65.75.31-.29,0-1.06-.26-.46.2-.59.59-.41,0-.63-.56-.15-.85-.8-.47-.22-2.68-.64-.12-.1-.25-2-.14-.45-2.37-.31-1.18-2.57-.15-.59.13-1,.41-.12,1.7-1.2,1.21-1.06,1.37-.36,1.55.3.26-.1.73-1.78.8-.75.29.4.63,0,1.8-.79,1.25-1.15.65-1,.37-1.13-.09-.74.34-.2,1.15-.27,1.82.83.53.83.26.11,1.21-.13.73-.46.33-.4,1.55.65.36-.79-.77-.3-.16-.56.23-1.2,1-.42.67-.46,1.75-.35.77.32.82,0,1.21.41,1,.95.62-.32.56.67-.19.47-1.2-.16-.21.8.45.9,1.14,1.25-.08.67.4.9.8.76,0,1.29.2,1.2.4.47.88,0,.87-.53.51.05,1.34.53.24.41.77.25,1.42-.21h.82l1.28.19,1.34-.5.28.94.89.28.42-.08.61.5.17,1.14.68,1,1.49,1.26-.21.48-1.33,2-.51.43-.45-.44-.55.74-.07.42.69.55.58,0,.57-.21.51.18,1.22,1.8-.31.8-.46.69.19,1.13.63.49,1.72-.07.18-.45.63-.27,2.07.34.67-.1.77.54.25,1,.4.36,1.16.59,1.54.46.75-.28,1.36-.31.77.41,2,1.3,1.29,1.57.12.76.44-.23,1.72-.29,1.56.62,1.09-.69,1,1.77.75-.76-.19-.35.17-.7.7-.79.66-1.12.08-.69-.21-.37-1.08.13.23-1.36.68-.79Z" transform="translate(-2.03 -6.87)"/><path class="cls-7" d="M495.15,112.48l1.19,1.77.41,1,0,.3-3.13-.78-.42.06-.12.83-1.25-.07-.65-.27.12-1.21-.14-.33-.86-.35-1.39.46-.1-.58.12-1.28.72-1.62.65-.68,2.79.61,1.51.79.33.41Zm-66.87-1.65-.85.15-.82-.8-.18-.43.23-.84L429,108l.64.19,0,.62-.31,1-.64.87Zm-3.42-4,1,.07.35.81-.65.1-.84-.64Zm3.34-2.57-1.11.24-.51-.06-1,.67-.42-.38.35-.47,1.52-.18,1.11-.41Zm-6.73.18.32.41-.23.39-.82-.05-.5-.6-.94-1.46-.15-.67,1.2-1.32.56,2.27Zm4.71-2-2.12-.13-2-1-.18-.68.32-.8.77-.64.85-.15,1.42-.08,1.16.3.45.4.23,1.07Zm60.16,33.13.25,1.49,1.26.4.12.32-1.39.43-.27-.46-.91-.24-.52.66-1.19,1-.81.16-.61,1V141l.41.57.28,1.12-.06,1-.17.31.18.89,1.44,1.69,1.29.45.34-.2,1,.28.55.68-.13.84.39.78-.6.87L487,152l.11.29-.44.59-1.23.26-.63-.47-.47.11.23,1.36L484,155.4l-.84.88-.69.51-.84.39-.72.91-1.09-.23-.54.36-.35,1.26.07,1.26-.19.67-.41.17-.07.73-.44.14-1-.42-1.19-.26-1.79-1-1.47-1.19-1.35-.1-.52-.35-.09-.4-1.75-1.82-.15-.54-1.84-1.2-.42-1.88.11-.61.41-.26.73-.06,0-1.06.71-1.16-1.2-1.33-.89-.74,1.05-1.34.29-1-.82-.24-1,.73-1.19,0-.37.43.29.32-.25,1.1-.74-.13-1.14.09-.22.35-.16,1-1.07-.18-1.08,0v.49l-.53.88-1.43,1.55-.23.07-.63-.57-1-1.25-.49,1.22.08.22-.45,1.57-1.51-.42-2.2-1.5-1-.81-.5-1.33,0-.52-.46-1.4-.64-.86-1.21-1-.69-1-1.19-2.74L444.56,140l-.78-.6-1.53-.67-1.64-.14-3.15-.18-.71.07-.08-.75-.93.19-.73-.37-1.23-1.64-.7-1.94-1.1-2.1.28-.64,1-.31,1.1.25.7.36.75-.34.23-.6-.15-.63-.8-1.24-.42-1.47-.5-.22-.73.27h-.72l-.69-.7-.45-1.29.22-1.22.53-.75.16-.67.18-1.61-.18-.85-.31-.22-1.37.31-.58-.3-.78,0-.51.27-.26.5-.85.15-1.41-.94-.51-.79.12-.89.35-1,.68-.37.09.6.31.26,1.41-.69,0-.88-.68.15-.63-.63.68-.63,1.54-.28,2.5-.28.86.24.94-.06.73-.6.5-.7.54-.46,1.09-.41.37-1v-.58l-.66-1.21-1,.48-.82,1.65.11.39-1,.34-1.48-.2-.5-.43V110.8l.93-.53.93-.94.13-.85-.18-.56.73-1.65-.14-.43-1-.71-.37-1-1.51-.95-.56-.63-.17-1.59-.56-.42-.71.07.36-.6,0-.47-.27-1-.32-.69-.94-1.48-.77-.83,0-1.25-.25-.83h-2l-1,.41-.71.57-1.22.41-.84-.68-.22-.63-.61-.21-.89.92-.3.67-.2,2.38,0,1.83-.48-.3.5-5.51.29-1.29.75-2,.25-.47,1.6-3.5.62-.55,1.3.5-.47.21-.3-.27-.85,0v.44l.66.15.35.47-.08.37-1.1.47-.68.68-.45.83.14,2.55.4.79,1.07.68,1.6.1.79-.3,1.85,0,1.16-.43v-.56l1.2.09,1,.74,1.29.12.64-.46.9-.09,2.84.3,1.68.74.83.64,1.11.14.57-.16.92.11,2.28,1.05-.15.61.37,1.18,2.37.34.72-.67.35-.87.67-.16.71,1.76.72-.86.58,0,.57-.59.71-.48,1.24-1.24h.65l-.52.76v.79l.31.49.47,0,3.75,1.65.55,0,.26.63.75,1,1.09.3.45-.8.35-1.15.64.39.68.63.36.59.22,1.58.41.68.86.87,0,3.15-.18.63-.08,2.52-.69,1.18-.93.87-2.17,1.13-1,.07,0,.45.67.73,1.11-.15,1.22-.62,4.13-.77.45,0,.78.54.76.74-.65,1,.51,1v1l-.77.22-.48,1.22.68,1.25.23-1.45.44-.22.59-1.77.4-.4,1.83-.78,1.09,0,1,.31,2.58,1.67,1.5.44,1.45.66.91.58.45.81.93,1,.75.25.59-.21.41.14.86-.2,1.34-1.08.77-1,1.59-1.1.57-.14,1,.17.22.51.7,0,1.3-.43.32-.62.42-.24.65.31-.11.76-1.19.87-.18.57.39,2.8.26,3.56-1.05.81-2.49,1.74-1.75,2.16-.65.39-1-.19-.64.21-1,1.15-.22,1,.69,1.41.63.56,1.56-.08.51.38.12,1.2Z" transform="translate(-2.03 -6.87)"/><text class="cls-9" transform="translate(411.51 517.94)">De 14 a 18</text><text class="cls-9" transform="translate(306.41 517.94)">De <tspan class="cls-3" x="21.79" y="0">1</tspan><tspan x="28.53" y="0">1 a 14</tspan></text><text class="cls-9" transform="translate(201.78 517.11)">De 7 a 10</text><text class="cls-9" transform="translate(97.97 517.35)">De 3 a 6</text></svg>