<svg id="63a04bbc-872c-4db5-baa4-e86fc40f59d5" data-name="Capa 1" xmlns="http://www.w3.org/2000/svg" viewBox="0 0 500 520"><defs><style>.\30 6059b51-7bf7-4817-a191-d073e0929342,.\30 d7aa816-d1dc-4683-90e2-73532ff308a5,.\30 f946543-23c6-4d5c-a78d-f5cdefe354be,.\32 09d1fd0-1460-4900-a921-dbbd6e547773,.\32 227577e-380f-44ec-a802-66e4faa0593e,.\32 ffbaa1f-141e-4d56-9e81-9e049019e65c,.\33 473f466-9fb7-49c3-8a20-d94403a5e34b,.\33 9290e7f-1aed-4283-90da-5829587d5b6a,.\34 b9fc3d6-bf24-42e5-92cd-8bf209d910dd,.\35 3f66075-f6ae-45ee-80d5-6d9755952751,.\35 790ccc2-3df8-49ea-9d87-1966c101e8fd,.\36 39ac098-1dbd-4866-a1d1-60fa42ac4a16,.\37 048ecd2-3591-42dd-a399-df5d076e1555,.\38 6cfb747-f045-4255-af04-ba3418ec0744,.\38 769895e-81b3-4e79-8593-26c4e915041b,.\38 94cc9c7-d0f5-418a-b3f6-cf497ce3e04c,.\39 46830ec-e56d-4000-9c44-77e60b88adac,.\39 99432a2-5c45-4bc8-b3be-9ad49379577e,.\39 d709886-96ae-4ee8-b61d-4ef4dd13e41e,.a4688c0d-4b1b-4025-93a1-201136458bd5,.b5126645-b84d-4754-bf06-751efd63c651,.b5af7e9f-7512-48cd-b146-fe4a9d58aea7,.ba5e0cf5-4cf4-4be2-8404-a25b93b5065d,.c37a0597-02df-4f38-8647-fcec3ea65e6d,.c5310653-bc5a-4461-ab96-1d56d78305dc,.ccde700e-6236-4cb7-8839-9eeecb64bba0,.e338ca03-ec42-41da-bd10-68b9f83b5f04,.ee36ba50-6b5c-461b-8a86-bbd6988a8714,.f407c539-a237-4afd-9ce2-603331d51064,.f5796df0-9bc6-40ad-a6e2-7fb547795da7{fill:none;stroke-opacity:0.4;}.\30 6059b51-7bf7-4817-a191-d073e0929342,.\32 ffbaa1f-141e-4d56-9e81-9e049019e65c,.\35 3f66075-f6ae-45ee-80d5-6d9755952751,.\36 39ac098-1dbd-4866-a1d1-60fa42ac4a16,.f5796df0-9bc6-40ad-a6e2-7fb547795da7{stroke:#d57928;}.\32 ffbaa1f-141e-4d56-9e81-9e049019e65c{stroke-width:64.39px;}.\33 9290e7f-1aed-4283-90da-5829587d5b6a,.\38 6cfb747-f045-4255-af04-ba3418ec0744,.c5310653-bc5a-4461-ab96-1d56d78305dc,.e338ca03-ec42-41da-bd10-68b9f83b5f04,.ee36ba50-6b5c-461b-8a86-bbd6988a8714{stroke:#e82656;}.\33 9290e7f-1aed-4283-90da-5829587d5b6a{stroke-width:49.02px;}.\34 b9fc3d6-bf24-42e5-92cd-8bf209d910dd,.\35 790ccc2-3df8-49ea-9d87-1966c101e8fd,.\39 99432a2-5c45-4bc8-b3be-9ad49379577e,.ba5e0cf5-4cf4-4be2-8404-a25b93b5065d,.f407c539-a237-4afd-9ce2-603331d51064{stroke:#ffe600;}.\39 99432a2-5c45-4bc8-b3be-9ad49379577e{stroke-width:46.64px;}.\39 46830ec-e56d-4000-9c44-77e60b88adac,.\39 d709886-96ae-4ee8-b61d-4ef4dd13e41e,.c37a0597-02df-4f38-8647-fcec3ea65e6d{stroke:#12b4d9;}.\39 d709886-96ae-4ee8-b61d-4ef4dd13e41e{stroke-width:40.23px;}.\30 d7aa816-d1dc-4683-90e2-73532ff308a5,.\30 f946543-23c6-4d5c-a78d-f5cdefe354be,.\38 94cc9c7-d0f5-418a-b3f6-cf497ce3e04c,.b5126645-b84d-4754-bf06-751efd63c651,.b5af7e9f-7512-48cd-b146-fe4a9d58aea7,.ccde700e-6236-4cb7-8839-9eeecb64bba0{stroke:#69bfbf;}.ccde700e-6236-4cb7-8839-9eeecb64bba0{stroke-width:34.87px;}.\32 09d1fd0-1460-4900-a921-dbbd6e547773,.\32 227577e-380f-44ec-a802-66e4faa0593e,.\33 473f466-9fb7-49c3-8a20-d94403a5e34b,.\37 048ecd2-3591-42dd-a399-df5d076e1555,.\38 769895e-81b3-4e79-8593-26c4e915041b,.a4688c0d-4b1b-4025-93a1-201136458bd5{stroke:#be26a0;}.\33 473f466-9fb7-49c3-8a20-d94403a5e34b{stroke-width:34.35px;}.b5126645-b84d-4754-bf06-751efd63c651{stroke-width:31.01px;}.\39 46830ec-e56d-4000-9c44-77e60b88adac{stroke-width:27.85px;}.ba5e0cf5-4cf4-4be2-8404-a25b93b5065d{stroke-width:19.15px;}.\32 227577e-380f-44ec-a802-66e4faa0593e{stroke-width:15.72px;}.c5310653-bc5a-4461-ab96-1d56d78305dc{stroke-width:10.37px;}.\30 6059b51-7bf7-4817-a191-d073e0929342{stroke-width:9.49px;}.a4688c0d-4b1b-4025-93a1-201136458bd5{stroke-width:7.55px;}.f407c539-a237-4afd-9ce2-603331d51064{stroke-width:7.38px;}.\37 048ecd2-3591-42dd-a399-df5d076e1555{stroke-width:6.15px;}.ee36ba50-6b5c-461b-8a86-bbd6988a8714{stroke-width:5.27px;}.\34 b9fc3d6-bf24-42e5-92cd-8bf209d910dd{stroke-width:4.92px;}.e338ca03-ec42-41da-bd10-68b9f83b5f04{stroke-width:4.83px;}.\30 d7aa816-d1dc-4683-90e2-73532ff308a5{stroke-width:3.6px;}.\32 09d1fd0-1460-4900-a921-dbbd6e547773{stroke-width:3.07px;}.\38 769895e-81b3-4e79-8593-26c4e915041b{stroke-width:2.9px;}.b5af7e9f-7512-48cd-b146-fe4a9d58aea7{stroke-width:2.72px;}.\35 790ccc2-3df8-49ea-9d87-1966c101e8fd{stroke-width:2.2px;}.f5796df0-9bc6-40ad-a6e2-7fb547795da7{stroke-width:1.84px;}.\36 39ac098-1dbd-4866-a1d1-60fa42ac4a16,.\38 94cc9c7-d0f5-418a-b3f6-cf497ce3e04c{stroke-width:1.05px;}.\35 0567a0f-e00c-4ed2-bb64-decdfaed3e49{fill:#960f83;}.\31 5c348be-1edc-4611-b47b-f1e6d8378f75,.c6d29394-577c-4986-afff-ceb3050409d6{font-size:14px;}.\31 5c348be-1edc-4611-b47b-f1e6d8378f75,.\31 ba306c5-147e-4306-b2d5-05940fbcc224,.a6ed6797-023e-4cb1-ba1c-cbfa70c4d692,.c6d29394-577c-4986-afff-ceb3050409d6{fill:#323232;}.\31 5c348be-1edc-4611-b47b-f1e6d8378f75,.a6ed6797-023e-4cb1-ba1c-cbfa70c4d692,.ac1a4403-a326-4dc9-b35f-99eb434850a6,.c6d29394-577c-4986-afff-ceb3050409d6{font-family:ArialMT, Arial;}.\32 163f099-18b0-436b-8e8a-43ee37d6e082{letter-spacing:-0.02em;}.\39 606d680-e2a4-4808-823d-9ac8291a1848{fill:#d57928;}.f9c1b730-1424-4c5f-be7d-1a01f5c642a9{fill:#ffe600;}.c6d29394-577c-4986-afff-ceb3050409d6{isolation:isolate;}.d8258da1-c1ef-4585-99a6-a5d6362fa673{fill:#69bfbf;}.\32 b64216e-185b-49cf-80a1-854c0cc24a91{fill:#4ca2cc;}.\35 5ce2c18-633d-4e29-a380-0e59e4e818fd{fill:#af0838;}.e37210df-47da-41be-8d96-f697af187b16{fill:#efb21b;}.\36 272ac6a-a739-477c-92df-9b7efae3eb2b{fill:#3f4d78;}.ac1a4403-a326-4dc9-b35f-99eb434850a6{font-size:13px;fill:#757575;}.b2791407-875a-440b-8f20-73fa80b6bd89{fill:#283659;}.\32 61769b0-e0ae-4555-a595-2c87a3b8c76a{fill:#fff;}.\31 ba306c5-147e-4306-b2d5-05940fbcc224{font-size:26px;font-family:Arial-BoldMT, Arial;font-weight:700;}.\34 7376915-30ea-4468-9104-5e21b314e025{letter-spacing:-0.06em;}.a6ed6797-023e-4cb1-ba1c-cbfa70c4d692{font-size:15px;}</style></defs><title>2017.12.05_TrasvaseVotos</title><path class="2ffbaa1f-141e-4d56-9e81-9e049019e65c" d="M62.67,453.15c195.34,0,195.34,4,390.68,4"/><path class="39290e7f-1aed-4283-90da-5829587d5b6a" d="M62.67,250.88c195.34,0,195.34,9.94,390.68,9.94"/><path class="999432a2-5c45-4bc8-b3be-9ad49379577e" d="M62.67,195.18c195.34,0,195.34,13.3,390.68,13.3"/><path class="9d709886-96ae-4ee8-b61d-4ef4dd13e41e" d="M62.67,393C258,393,258,415.43,453.34,415.43"/><path class="ccde700e-6236-4cb7-8839-9eeecb64bba0" d="M62.67,126.76C258,126.76,258,140,453.34,140"/><path class="3473f466-9fb7-49c3-8a20-d94403a5e34b" d="M62.67,327.94c195.34,0,195.34,3.15,390.68,3.15"/><path class="b5126645-b84d-4754-bf06-751efd63c651" d="M62.67,100.5c195.34,0,195.34-4,390.68-4"/><path class="946830ec-e56d-4000-9c44-77e60b88adac" d="M62.67,365.89c195.34,0,195.34-.15,390.68-.15"/><path class="ba5e0cf5-4cf4-4be2-8404-a25b93b5065d" d="M62.67,168.95c195.34,0,195.34-7.42,390.68-7.42"/><path class="2227577e-380f-44ec-a802-66e4faa0593e" d="M62.67,308C258,308,258,286.63,453.34,286.63"/><path class="c5310653-bc5a-4461-ab96-1d56d78305dc" d="M62.67,278.83C258,278.83,258,390.35,453.34,390.35"/><path class="06059b51-7bf7-4817-a191-d073e0929342" d="M62.67,421.39C258,421.39,258,296.68,453.34,296.68"/><path class="a4688c0d-4b1b-4025-93a1-201136458bd5" d="M62.67,296.39C258,296.39,258,176,453.34,176"/><path class="f407c539-a237-4afd-9ce2-603331d51064" d="M62.67,158.37c195.34,0,195.34-46.56,390.68-46.56"/><path class="7048ecd2-3591-42dd-a399-df5d076e1555" d="M62.67,344.09c195.34,0,195.34,52.85,390.68,52.85"/><path class="ee36ba50-6b5c-461b-8a86-bbd6988a8714" d="M62.67,272.52C258,272.52,258,315.3,453.34,315.3"/><path class="4b9fc3d6-bf24-42e5-92cd-8bf209d910dd" d="M62.67,217.48c195.34,0,195.34,93.75,390.68,93.75"/><path class="e338ca03-ec42-41da-bd10-68b9f83b5f04" d="M62.67,229.41c195.34,0,195.34-58.32,390.68-58.32"/><path class="0d7aa816-d1dc-4683-90e2-73532ff308a5" d="M62.67,142.1C258,142.1,258,188.45,453.34,188.45"/><path class="209d1fd0-1460-4900-a921-dbbd6e547773" d="M62.67,292.16c195.34,0,195.34-176.1,390.68-176.1"/><path class="8769895e-81b3-4e79-8593-26c4e915041b" d="M62.67,300.56c195.34,0,195.34-72.33,390.68-72.33"/><path class="b5af7e9f-7512-48cd-b146-fe4a9d58aea7" d="M62.67,144.62c195.34,0,195.34,93.82,390.68,93.82"/><path class="5790ccc2-3df8-49ea-9d87-1966c101e8fd" d="M62.67,214.65C258,214.65,258,240.4,453.34,240.4"/><path class="f5796df0-9bc6-40ad-a6e2-7fb547795da7" d="M62.67,425.9C258,425.9,258,345.52,453.34,345.52"/><path class="894cc9c7-d0f5-418a-b3f6-cf497ce3e04c" d="M62.67,146.13C258,146.13,258,308.85,453.34,308.85"/><path class="639ac098-1dbd-4866-a1d1-60fa42ac4a16" d="M62.67,427.06c195.34,0,195.34-49.79,390.68-49.79"/><path class="53f66075-f6ae-45ee-80d5-6d9755952751" d="M62.67,417.32C258,417.32,258,117.84,453.34,117.84"/><path class="0f946543-23c6-4d5c-a78d-f5cdefe354be" d="M62.67,147.18C258,147.18,258,385.94,453.34,385.94"/><path class="0f946543-23c6-4d5c-a78d-f5cdefe354be" d="M62.67,146.72C258,146.72,258,354.4,453.34,354.4"/><path class="c37a0597-02df-4f38-8647-fcec3ea65e6d" d="M62.67,354.65C258,354.65,258,117.42,453.34,117.42"/><path class="86cfb747-f045-4255-af04-ba3418ec0744" d="M62.67,274.66c195.34,0,195.34,80,390.68,80"/><path class="86cfb747-f045-4255-af04-ba3418ec0744" d="M62.67,227.45C258,227.45,258,114.79,453.34,114.79"/><rect class="50567a0f-e00c-4ed2-bb64-decdfaed3e49" x="58.68" y="290.93" width="3.99" height="56.82"/><text class="15c348be-1edc-4611-b47b-f1e6d8378f75" transform="translate(67.45 321.8)">CSQ<tspan class="2163f099-18b0-436b-8e8a-43ee37d6e082" x="30.34" y="0">P</tspan></text><rect class="9606d680-e2a4-4808-823d-9ac8291a1848" x="58.68" y="417.04" width="3.99" height="68.46"/><text class="15c348be-1edc-4611-b47b-f1e6d8378f75" transform="translate(67.45 451)">Cs</text><rect class="f9c1b730-1424-4c5f-be7d-1a01f5c642a9" x="58.68" y="155.43" width="3.99" height="64.01"/><text class="c6d29394-577c-4986-afff-ceb3050409d6" transform="translate(67.45 190.51)">CU<tspan class="2163f099-18b0-436b-8e8a-43ee37d6e082" x="20.22" y="0">P</tspan></text><rect class="d8258da1-c1ef-4585-99a6-a5d6362fa673" x="58.68" y="84.15" width="3.99" height="63.31"/><text class="c6d29394-577c-4986-afff-ceb3050409d6" transform="translate(67.45 120.87)">Junts pel Sí</text><rect class="2b64216e-185b-49cf-80a1-854c0cc24a91" x="58.68" y="351.75" width="3.99" height="61.5"/><text class="15c348be-1edc-4611-b47b-f1e6d8378f75" transform="translate(67.45 384.86)">P<tspan class="2163f099-18b0-436b-8e8a-43ee37d6e082" x="9.34" y="0">P</tspan></text><rect class="55ce2c18-633d-4e29-a380-0e59e4e818fd" x="58.68" y="226.25" width="3.99" height="57.75"/><text class="15c348be-1edc-4611-b47b-f1e6d8378f75" transform="translate(67.45 258.26)">PSC</text><rect class="50567a0f-e00c-4ed2-bb64-decdfaed3e49" x="445.52" y="308.43" width="11.8" height="39.9"/><text class="15c348be-1edc-4611-b47b-f1e6d8378f75" transform="translate(373.55 330.41)">Cec-<tspan class="2163f099-18b0-436b-8e8a-43ee37d6e082" x="29.56" y="0">P</tspan></text><rect class="9606d680-e2a4-4808-823d-9ac8291a1848" x="445.29" y="384.86" width="12.03" height="104.39"/><text class="15c348be-1edc-4611-b47b-f1e6d8378f75" transform="translate(408.73 437.3)">Cs</text><rect class="f9c1b730-1424-4c5f-be7d-1a01f5c642a9" x="445.52" y="185" width="11.8" height="46.67"/><text class="15c348be-1edc-4611-b47b-f1e6d8378f75" transform="translate(388.74 211.27)">CU<tspan class="2163f099-18b0-436b-8e8a-43ee37d6e082" x="20.22" y="0">P</tspan></text><rect class="e37210df-47da-41be-8d96-f697af187b16" x="445.52" y="122.67" width="11.8" height="58"/><text class="15c348be-1edc-4611-b47b-f1e6d8378f75" transform="translate(388.65 155.64)">ERC</text><rect class="6272ac6a-a739-477c-92df-9b7efae3eb2b" x="445.52" y="80.67" width="11.8" height="37.45"/><text class="15c348be-1edc-4611-b47b-f1e6d8378f75" transform="translate(337.4 104.21)">Junts per Cat</text><rect class="2b64216e-185b-49cf-80a1-854c0cc24a91" x="445.52" y="351.5" width="11.8" height="28"/><text class="15c348be-1edc-4611-b47b-f1e6d8378f75" transform="translate(406.44 369.03)">P<tspan class="2163f099-18b0-436b-8e8a-43ee37d6e082" x="9.34" y="0">P</tspan></text><rect class="55ce2c18-633d-4e29-a380-0e59e4e818fd" x="445.52" y="236.04" width="11.8" height="65.82"/><text class="15c348be-1edc-4611-b47b-f1e6d8378f75" transform="translate(389.74 271.98)">PSC</text><text class="ac1a4403-a326-4dc9-b35f-99eb434850a6" transform="translate(8.36 511.86) scale(0.99 1)">Fuente: Barómetro del CIS de noviembre de 2017</text><polygon class="b2791407-875a-440b-8f20-73fa80b6bd89" points="391 498.92 494.29 498.92 494.29 514.61 391 514.61 391 498.92 391 498.92"/><path class="261769b0-e0ae-4555-a595-2c87a3b8c76a" d="M473.86,502.43h-4v.49l1,.25v7.3a.86.86,0,0,1-.73.37,1.55,1.55,0,0,1-1.29-.94l-1-1.77a2,2,0,0,0-1.81-1.22v-.12a2.42,2.42,0,0,0,2.5-2.25c0-1.52-1.38-2.11-3-2.11h-3.59v.49l1.17.25v7.4h0l-1.35.26-3.37-9.17a4.23,4.23,0,0,1-1.21,1l.13.37-3.07,7.52-.93.25v.49h2.81v-.49l-.92-.24,1-2.74h2.85l1,2.72-1.07.26v.49H466v-.49l-1.12-.24v-3.45a1.68,1.68,0,0,1,1.52,1.12l1.35,2.41a2.18,2.18,0,0,0,2,1.18,1.93,1.93,0,0,0,1.28-.53h3a4.58,4.58,0,0,0,4.7-4.45,4.47,4.47,0,0,0-4.78-4.45Zm-17.28,4.73,1.2-3.16,1.16,3.16Zm8.81-.67h-.61v-3.32h.76a1.5,1.5,0,0,1,1.56,1.59,1.73,1.73,0,0,1-1.68,1.73Zm8.38,4.1h-1.27v-7.43h1.3c2,0,3.26,1.4,3.26,3.71s-1.29,3.71-3.3,3.71Z"/><path class="261769b0-e0ae-4555-a595-2c87a3b8c76a" d="M408.9,510.59l-3.29-8.94a4.22,4.22,0,0,1-1.21,1l.13.37-3.05,7.52-.66.25-.2.49h2.72v-.49l-.92-.24,1-2.74h2.85l1,2.72-1.07.26v.49h3.66v-.49l-1-.24Zm-5.22-3.43,1.21-3.16,1.16,3.16Z"/><polygon class="261769b0-e0ae-4555-a595-2c87a3b8c76a" points="401.06 509.07 400.73 508.88 398.81 510.63 397.16 510.63 397.16 503.17 398.15 502.92 398.15 502.42 394.61 502.42 394.61 502.92 395.6 503.17 395.6 510.57 394.61 510.83 394.61 511.32 400.18 511.32 401.06 509.07 401.06 509.07"/><polygon class="261769b0-e0ae-4555-a595-2c87a3b8c76a" points="416.53 502.42 416.53 502.92 417.6 503.17 415.27 509.13 412.82 503.16 413.98 502.92 413.98 502.42 410.02 502.42 410.02 502.92 411.15 503.17 414.67 511.63 415.05 511.63 418.55 503.18 418.58 503.18 419.67 502.92 419.67 502.42 416.53 502.42 416.53 502.42"/><path class="261769b0-e0ae-4555-a595-2c87a3b8c76a" d="M451.62,502.43v.49l1.07.25s.08,4.41,0,5.52a2.25,2.25,0,0,1-2.3,2.19h-.11a2.21,2.21,0,0,1-2.4-2.28v-5.43l1-.24v-.49h-3.58v.49l1,.24v5.47a3.28,3.28,0,0,0,3.54,3.12,3.21,3.21,0,0,0,3.54-3.12l.07-5.46,1-.25v-.49Z"/><path class="261769b0-e0ae-4555-a595-2c87a3b8c76a" d="M490.3,510.57,487,501.66a4.22,4.22,0,0,1-1.21,1l.13.37-3.06,7.55-.52.21-.71-.22v-7.44l1.09-.25v-.49H479v.49l1.08.25v7.41l-1,.24v.49h5.68v-.49l-.92-.24,1-2.74h2.85l1,2.72-1.07.26v.49h3.67v-.49l-1-.26Zm-5.21-3.41,1.21-3.16,1.16,3.16Z"/><path class="261769b0-e0ae-4555-a595-2c87a3b8c76a" d="M432.5,502.43v.49l1.09.25.07,5.82-5.58-6.57H425.7v.49l1.08.24.09,0-.08,7.37h0l-1.12.26-3.37-9.17a4.23,4.23,0,0,1-1.17,1l.13.37-3.07,7.52-.93.25v.49h2.81v-.49l-.92-.24,1-2.74H423l1,2.72-1.07.26v.49h5.86v-.49l-1.12-.25-.13-6.43,6.38,7.49h.42l.08-8.47,1.08-.25v-.49Zm-12.12,4.73L421.6,504l1.16,3.16Z"/><path class="261769b0-e0ae-4555-a595-2c87a3b8c76a" d="M441.9,506.78v.49l1,.25v2.87a3.33,3.33,0,0,1-2,.67c-2,0-3.32-1.68-3.32-4.06s1.27-4.24,3.37-4.24a3.17,3.17,0,0,1,3,2.43l.29-.17V502.2l-.26-.14-.56.68a5.61,5.61,0,0,0-2.46-.63,5,5,0,0,0-5,4.91,4.52,4.52,0,0,0,4.29,4.74h.32a4.6,4.6,0,0,0,2.87-1l.79.52h.25v-3.82l.84-.32v-.41Z"/><text class="1ba306c5-147e-4306-b2d5-05940fbcc224" transform="translate(52.03 26.11)"><tspan class="47376915-30ea-4468-9104-5e21b314e025">T</tspan><tspan x="14.45" y="0">rasvase de votos, según el CIS</tspan></text><text class="a6ed6797-023e-4cb1-ba1c-cbfa70c4d692" transform="translate(20.65 59.57)">Recuerdo de voto <tspan x="5" y="13">elecciones 2015</tspan></text><text class="a6ed6797-023e-4cb1-ba1c-cbfa70c4d692" transform="translate(369.27 58.57)">Intención de voto <tspan x="2.92" y="13">elecciones 2017</tspan></text></svg>