<svg id="Capa_1" data-name="Capa 1" xmlns="http://www.w3.org/2000/svg" viewBox="0 0 892.9 860.37"><defs><style>.cls-1,.cls-14,.cls-15,.cls-17,.cls-2,.cls-3,.cls-4{fill:none;}.cls-1{stroke:#e6e6e6;}.cls-2{stroke:#757575;}.cls-3{stroke:#a01f51;}.cls-3,.cls-4{stroke-width:3px;}.cls-4{stroke:#15acb1;}.cls-5,.cls-6,.cls-7,.cls-8,.cls-9{isolation:isolate;}.cls-6{font-size:20px;}.cls-6,.cls-7{fill:gray;}.cls-19,.cls-6,.cls-7{font-family:ArialMT, Arial;}.cls-7,.cls-8,.cls-9{font-size:22px;}.cls-8{fill:#15acb1;}.cls-18,.cls-8,.cls-9{font-family:Arial-BoldMT, Arial;font-weight:700;}.cls-9{fill:#a01f51;}.cls-10{letter-spacing:-0.06em;}.cls-11{letter-spacing:-0.02em;}.cls-12{letter-spacing:-0.04em;}.cls-13{letter-spacing:-0.07em;}.cls-14,.cls-15,.cls-17{stroke:#323232;stroke-width:2px;}.cls-15{stroke-dasharray:11.98 11.98;}.cls-16,.cls-18,.cls-19{fill:#323232;}.cls-17{stroke-dasharray:11.52 11.52;}.cls-18{font-size:38px;}.cls-19{font-size:29px;}.cls-20{fill:#283659;}.cls-21{fill:#fff;}</style></defs><title>2017.09_EvolucionPensionGenero</title><line class="cls-1" x1="7.23" y1="534.85" x2="891.17" y2="534.85"/><line class="cls-1" x1="7.23" y1="452.81" x2="891.17" y2="452.81"/><line class="cls-1" x1="7.23" y1="370.78" x2="891.17" y2="370.78"/><line class="cls-1" x1="7.23" y1="698.91" x2="891.17" y2="698.91"/><line class="cls-1" x1="7.23" y1="616.88" x2="891.17" y2="616.88"/><line class="cls-2" y1="780.95" x2="883.94" y2="780.95"/><path class="cls-1" d="M874.55,709.38" transform="translate(-2.76 -10.47)"/><path class="cls-1" d="M31.32,709.38" transform="translate(-2.76 -10.47)"/><line class="cls-1" x1="7.23" y1="288.75" x2="891.17" y2="288.75"/><line class="cls-1" x1="7.23" y1="206.71" x2="891.17" y2="206.71"/><line class="cls-1" x1="9.12" y1="124.05" x2="892.67" y2="124.05"/><path class="cls-3" d="M61.38,561.15l57.51-8.53,57.67-15.3,57.51-7.55,57.51-17.39L349.1,493l57.67-16.49,57.51-20,57.51-10.5L553,420.87l46-12.35,45.9-13.86,45.9-16.78,45.9-13.13,46-13.25,45.9-6.64,45.9-3.65" transform="translate(-2.76 -10.47)"/><path class="cls-4" d="M61.38,447l57.51-12.88,57.67-24.9,57.51-11.16,57.51-27.56L349.1,349.3,406.77,319l57.51-31,57.51.41L553,256.11,599,245l45.9-17.23,45.9-21.66L736.72,191l46-17.88,45.9-9.27L874.55,144" transform="translate(-2.76 -10.47)"/><g class="cls-5"><text class="cls-6" transform="translate(72.46 807.54)">1999</text></g><g class="cls-5"><text class="cls-6" transform="translate(5.46 775.54)">0</text></g><g class="cls-5"><text class="cls-6" transform="translate(4.49 692.41)">2.000</text></g><g class="cls-5"><text class="cls-7" transform="translate(139.48 446.74)">Diferencia del 49%</text></g><g class="cls-5"><text class="cls-8" transform="translate(794.65 115.41)">Hombres</text></g><g class="cls-5"><text class="cls-9" transform="translate(809.75 364.41)">Mujeres</text></g><g class="cls-5"><text class="cls-7" transform="translate(655.84 282.64)">Diferencia del 43%</text></g><g class="cls-5"><text class="cls-6" transform="translate(4.49 610.41)">4.000</text></g><g class="cls-5"><text class="cls-6" transform="translate(4.49 526.41)">6.000</text></g><g class="cls-5"><text class="cls-6" transform="translate(4.49 447.41)">8.000</text></g><g class="cls-5"><text class="cls-6" transform="translate(4.49 364.41)">10.000</text></g><g class="cls-5"><text class="cls-6" transform="translate(4.49 281.41)">12.000</text></g><g class="cls-5"><text class="cls-6" transform="translate(4.49 199.41)">14.000</text></g><g class="cls-5"><text class="cls-6" transform="translate(4.49 115.41)">16.000</text></g><g class="cls-5"><text class="cls-6" transform="translate(7.74 853.88)">Fuente:<tspan class="cls-10" x="67.82" y="0"> </tspan><tspan x="72.28" y="0">Agencia</tspan><tspan class="cls-11" x="144.55" y="0"> </tspan><tspan class="cls-12" x="149.75" y="0">T</tspan><tspan x="161.22" y="0">ributaria</tspan></text></g><g class="cls-5"><text class="cls-6" transform="translate(166.78 806.54)">2001</text></g><g class="cls-5"><text class="cls-6" transform="translate(270.92 806.54)">2003</text></g><g class="cls-5"><text class="cls-6" transform="translate(374.07 806.54)">2005</text></g><g class="cls-5"><text class="cls-6" transform="translate(472.38 806.54)">2007</text></g><g class="cls-5"><text class="cls-6" transform="translate(566.7 806.54)">2009</text></g><g class="cls-5"><text class="cls-6" transform="translate(655.84 805.53)">20<tspan class="cls-13" x="22.25" y="0">1</tspan><tspan x="31.88" y="0">1</tspan></text></g><g class="cls-5"><text class="cls-6" transform="translate(738.29 805.16)">2013</text></g><g class="cls-5"><text class="cls-6" transform="translate(827.3 806.54)">2015</text></g><line class="cls-14" x1="853.3" y1="163.61" x2="853.3" y2="169.61"/><line class="cls-15" x1="853.3" y1="181.6" x2="853.3" y2="295.43"/><line class="cls-14" x1="853.3" y1="301.42" x2="853.3" y2="307.42"/><polygon class="cls-16" points="853.3 153.02 847.2 167.95 853.3 164.4 859.4 167.95 853.3 153.02"/><polygon class="cls-16" points="853.3 318.01 847.2 303.09 853.3 306.63 859.4 303.09 853.3 318.01"/><line class="cls-14" x1="118.12" y1="442.99" x2="118.12" y2="448.99"/><line class="cls-17" x1="118.12" y1="460.51" x2="118.12" y2="500.84"/><line class="cls-14" x1="118.12" y1="506.6" x2="118.12" y2="512.6"/><polygon class="cls-16" points="118.11 432.4 112.02 447.32 118.11 443.78 124.21 447.32 118.11 432.4"/><polygon class="cls-16" points="118.11 523.19 112.02 508.27 118.11 511.81 124.21 508.27 118.11 523.19"/><text class="cls-18" transform="translate(5.46 32.6)">Evolución del importe de la pensión media anual</text><text class="cls-19" transform="translate(7.23 67.44)">Desde 1999 hasta 2015, en euros.</text><polygon class="cls-20" points="723.2 832.07 887.56 832.07 887.56 857.04 723.2 857.04 723.2 832.07 723.2 832.07"/><path class="cls-21" d="M857.83,848.12h-6.3v.79l1.65.39v11.63a1.38,1.38,0,0,1-1.16.59,2.47,2.47,0,0,1-2-1.5l-1.58-2.82a3.26,3.26,0,0,0-2.88-1.94v-.19a3.85,3.85,0,0,0,4-3.59c0-2.42-2.2-3.36-4.74-3.36H839v.79l1.86.39v11.78h0l-2.15.41-5.35-14.6a6.72,6.72,0,0,1-1.93,1.65l.2.59-4.89,12-1.48.4v.79h4.45v-.79l-1.46-.38,1.65-4.36h4.53l1.59,4.33-1.71.41v.79h10.84v-.79l-1.83-.39v-5.49a2.67,2.67,0,0,1,2.41,1.78l2.15,3.84a3.47,3.47,0,0,0,3.11,1.89,3.08,3.08,0,0,0,2-.84H858a7.29,7.29,0,0,0,7.48-7.08c0-4.13-3.2-7.08-7.61-7.08Zm-27.5,7.53,1.92-5,1.84,5Zm14-1.06h-1V849.3h1.21a2.38,2.38,0,0,1,2.48,2.53,2.75,2.75,0,0,1-2.72,2.76Zm13.33,6.53h-2V849.3h2.07c3.21,0,5.19,2.22,5.19,5.9s-2.06,5.9-5.24,5.9Z" transform="translate(-2.76 -10.47)"/><path class="cls-21" d="M754.45,861.11l-5.23-14.22a6.72,6.72,0,0,1-1.93,1.65l.2.59-4.89,12-1,.4-.31.79h4.32v-.79l-1.46-.38,1.65-4.36h4.53l1.59,4.33-1.71.41v.79H756v-.79l-1.55-.38Zm-8.31-5.46,1.92-5,1.84,5Z" transform="translate(-2.76 -10.47)"/><polygon class="cls-21" points="739.22 848.22 738.69 847.92 735.63 850.71 733.01 850.71 733.01 838.84 734.58 838.44 734.58 837.65 728.94 837.65 728.94 838.44 730.53 838.84 730.53 850.62 728.94 851.02 728.94 851.81 737.81 851.81 739.22 848.22 739.22 848.22"/><polygon class="cls-21" points="763.82 837.65 763.82 838.44 765.53 838.84 761.82 848.32 757.93 838.82 759.77 838.44 759.77 837.65 753.47 837.65 753.47 838.44 755.27 838.83 760.86 852.31 761.47 852.31 767.04 838.85 767.09 838.85 768.83 838.44 768.83 837.65 763.82 837.65 763.82 837.65"/><path class="cls-21" d="M822.43,848.12v.79l1.69.4s.13,7,.06,8.79a3.58,3.58,0,0,1-3.81,3.46,3.52,3.52,0,0,1-3.81-3.64v-8.65l1.64-.37v-.79h-5.69v.79l1.61.38V858c.11,3,2.52,5,5.63,5s5.52-1.82,5.63-5l.11-8.69,1.66-.4v-.79Z" transform="translate(-2.76 -10.47)"/><path class="cls-21" d="M884,861.08l-5.21-14.19a6.71,6.71,0,0,1-1.93,1.65l.2.59-4.9,12-.83.34-1.13-.36V849.3l1.73-.39v-.79H866v.79l1.71.41v11.79l-1.64.39v.79h9.06v-.79l-1.46-.38,1.66-4.36h4.53l1.59,4.33-1.71.41v.79h5.81v-.79l-1.57-.41Zm-8.29-5.43,1.92-5,1.84,5Z" transform="translate(-2.76 -10.47)"/><path class="cls-21" d="M792,848.12v.79l1.73.4.11,9.27L785,848.12h-3.79v.79l1.72.38.14.08-.13,11.72h0l-1.75.41-5.35-14.6a6.72,6.72,0,0,1-1.93,1.65l.2.59-4.89,12-1.48.4v.79h4.45v-.79l-1.46-.38,1.65-4.36h4.53l1.59,4.33-1.71.41v.79h9.31v-.79l-1.82-.4-.11-10.25,10.14,11.93H795l.14-13.47,1.72-.39v-.79Zm-19.28,7.53,1.92-5,1.84,5Z" transform="translate(-2.76 -10.47)"/><path class="cls-21" d="M806.91,855v.79l1.6.4v4.56a5.31,5.31,0,0,1-3.2,1.07c-3.22,0-5.28-2.71-5.28-6.47s2-6.76,5.32-6.76a5,5,0,0,1,4.74,3.86l.46-.27v-4.48l-.41-.23-.86,1.09a8.94,8.94,0,0,0-3.92-1,7.93,7.93,0,0,0-7.95,7.8,7.2,7.2,0,0,0,7.34,7.55,7.31,7.31,0,0,0,4.57-1.52l1.25.83H811V856.2l1.34-.51V855Z" transform="translate(-2.76 -10.47)"/></svg>