<svg id="efc66116-b7e1-47d0-8e91-c62429ee1d05" data-name="Capa 1" xmlns="http://www.w3.org/2000/svg" viewBox="0 0 534 454"><defs><style>.\30 cd29263-538c-4809-915f-68089260b3b7,.\32 6a744a7-1fad-4236-a08c-24388c293224,.\34 b6f3b30-3f5f-48fe-a8d6-b8f7721aa912,.\37 6adfbba-dd1d-4812-b310-f1a95d8c788c,.a09b5121-77c3-44ff-92e0-23ca75cd8c40,.c905d444-9221-4418-bb10-f0c3966ed41e,.cbc061ab-ffe6-4027-86a7-7e958afaa1c1,.d4052a27-058d-45ac-ae3a-f203df131063,.eb4344c6-dd54-44e5-9a65-f122a991a1fc,.ef5fb034-f688-47a7-a76a-4a604dd62b99,.fa3b54cd-58ce-4357-ada1-a6c550f59e58{fill:none;}.d4052a27-058d-45ac-ae3a-f203df131063{stroke:#757575;}.\37 6adfbba-dd1d-4812-b310-f1a95d8c788c,.d4052a27-058d-45ac-ae3a-f203df131063,.eb4344c6-dd54-44e5-9a65-f122a991a1fc,.fa3b54cd-58ce-4357-ada1-a6c550f59e58{stroke-miterlimit:10;}.\38 0e8e89c-78f2-4607-8a92-c93b330f2511{font-size:16px;}.\35 c802aad-e0f4-4089-ad25-4ad3320140e6,.\37 4b1b46c-1432-4628-a504-66c738e4c344,.\38 0e8e89c-78f2-4607-8a92-c93b330f2511,.b01a23b8-8891-45f3-90b2-3fadacd4e3a3{fill:#757575;}.\36 418100f-7cd0-4af9-b2f6-f4e6c34c3cdc,.\38 0e8e89c-78f2-4607-8a92-c93b330f2511,.\38 2305791-30a1-423c-9358-c1dc44c10c1f,.b01a23b8-8891-45f3-90b2-3fadacd4e3a3{font-family:ArialMT, Arial;}.\31 36e336e-00c2-4505-9418-f6add41cc670,.\36 0fc9bd4-af17-4017-bb83-8f9d61e72ad3,.\37 4b1b46c-1432-4628-a504-66c738e4c344,.\38 1861d66-599f-4978-b412-cd28d6c0adfc,.\38 255caf8-482f-49e5-a5b1-50f5180ec46b,.b01a23b8-8891-45f3-90b2-3fadacd4e3a3,.d5863b48-cae5-4c9d-b03a-4c9dfd703df8,.e3540bbd-a6b3-4d30-a940-f156b72e460e,.e6d89500-c709-4052-a968-c9fdf4336e69{font-size:13px;}.\36 0fc9bd4-af17-4017-bb83-8f9d61e72ad3{fill:#efb21b;}.\31 36e336e-00c2-4505-9418-f6add41cc670,.\31 54c60d1-f27e-4252-9e09-0b993b8ec74c,.\35 c802aad-e0f4-4089-ad25-4ad3320140e6,.\36 0fc9bd4-af17-4017-bb83-8f9d61e72ad3,.\37 4b1b46c-1432-4628-a504-66c738e4c344,.\38 1861d66-599f-4978-b412-cd28d6c0adfc,.\38 255caf8-482f-49e5-a5b1-50f5180ec46b,.d5863b48-cae5-4c9d-b03a-4c9dfd703df8,.e3540bbd-a6b3-4d30-a940-f156b72e460e,.e6d89500-c709-4052-a968-c9fdf4336e69{font-family:Arial-BoldMT, Arial;}.\31 36e336e-00c2-4505-9418-f6add41cc670,.\31 54c60d1-f27e-4252-9e09-0b993b8ec74c,.\32 2127d22-bc8f-415c-ae2f-7dfc4ac85327,.\36 0fc9bd4-af17-4017-bb83-8f9d61e72ad3,.\37 4b1b46c-1432-4628-a504-66c738e4c344,.\38 1861d66-599f-4978-b412-cd28d6c0adfc,.\38 255caf8-482f-49e5-a5b1-50f5180ec46b,.d5863b48-cae5-4c9d-b03a-4c9dfd703df8,.e3540bbd-a6b3-4d30-a940-f156b72e460e,.e6d89500-c709-4052-a968-c9fdf4336e69{font-weight:700;}.\35 c802aad-e0f4-4089-ad25-4ad3320140e6,.\36 418100f-7cd0-4af9-b2f6-f4e6c34c3cdc{font-size:15px;}.\38 1861d66-599f-4978-b412-cd28d6c0adfc{fill:#d57928;}.e6d89500-c709-4052-a968-c9fdf4336e69{fill:#ffe600;}.\34 8272d96-6007-4204-9020-763729cc1087{letter-spacing:-0.02em;}.\31 36e336e-00c2-4505-9418-f6add41cc670{fill:#991d26;}.d5863b48-cae5-4c9d-b03a-4c9dfd703df8{fill:#8e244f;}.e3540bbd-a6b3-4d30-a940-f156b72e460e{fill:#59a5a5;}.\37 6adfbba-dd1d-4812-b310-f1a95d8c788c{stroke:#d6d6d6;}.\38 255caf8-482f-49e5-a5b1-50f5180ec46b{fill:#3f4d78;}.a20a18f4-126e-4ed9-8764-9ed6189b9422{letter-spacing:-0.07em;}.\31 54c60d1-f27e-4252-9e09-0b993b8ec74c,.\36 418100f-7cd0-4af9-b2f6-f4e6c34c3cdc{fill:#323232;}.\31 54c60d1-f27e-4252-9e09-0b993b8ec74c{font-size:26px;}.\37 f23d95f-0985-42e8-927a-b74c65b506dc{fill:#283659;}.\30 d8d4d71-6fbc-4440-a1ea-7db3939773d1{fill:#fff;}.eb4344c6-dd54-44e5-9a65-f122a991a1fc,.fa3b54cd-58ce-4357-ada1-a6c550f59e58{stroke:#323232;}.eb4344c6-dd54-44e5-9a65-f122a991a1fc{stroke-dasharray:5.04 5.04;}.c905d444-9221-4418-bb10-f0c3966ed41e{stroke:#ffe600;}.\30 cd29263-538c-4809-915f-68089260b3b7,.\32 6a744a7-1fad-4236-a08c-24388c293224,.\34 b6f3b30-3f5f-48fe-a8d6-b8f7721aa912,.a09b5121-77c3-44ff-92e0-23ca75cd8c40,.c905d444-9221-4418-bb10-f0c3966ed41e,.cbc061ab-ffe6-4027-86a7-7e958afaa1c1,.ef5fb034-f688-47a7-a76a-4a604dd62b99{stroke-width:1.5px;}.\32 6a744a7-1fad-4236-a08c-24388c293224{stroke:#efb21b;}.a09b5121-77c3-44ff-92e0-23ca75cd8c40{stroke:#d57928;}.\30 cd29263-538c-4809-915f-68089260b3b7{stroke:#8e244f;}.cbc061ab-ffe6-4027-86a7-7e958afaa1c1{stroke:#991d26;}.\34 b6f3b30-3f5f-48fe-a8d6-b8f7721aa912{stroke:#3f4d78;}.ef5fb034-f688-47a7-a76a-4a604dd62b99{stroke:#59a5a5;}</style></defs><title>2017.11_Metaencuesta2_evolucion</title><line class="d4052a27-058d-45ac-ae3a-f203df131063" x1="15" y1="404.5" x2="536" y2="404.5"/><line class="d4052a27-058d-45ac-ae3a-f203df131063" x1="148.5" y1="405" x2="148.5" y2="412"/><line class="d4052a27-058d-45ac-ae3a-f203df131063" x1="426.5" y1="404" x2="426.5" y2="411"/><line class="d4052a27-058d-45ac-ae3a-f203df131063" x1="516.5" y1="404" x2="516.5" y2="411"/><line class="d4052a27-058d-45ac-ae3a-f203df131063" x1="44.5" y1="404" x2="44.5" y2="411"/><text class="80e8e89c-78f2-4607-8a92-c93b330f2511" transform="translate(13.66 399.02) scale(0.99 1)">0</text><text class="80e8e89c-78f2-4607-8a92-c93b330f2511" transform="translate(13.66 353.02) scale(0.99 1)">5</text><text class="80e8e89c-78f2-4607-8a92-c93b330f2511" transform="translate(12.5 297.02) scale(0.99 1)">10</text><text class="80e8e89c-78f2-4607-8a92-c93b330f2511" transform="translate(11.83 195.02) scale(0.99 1)">20</text><text class="80e8e89c-78f2-4607-8a92-c93b330f2511" transform="translate(11.83 137.02) scale(0.99 1)">25</text><text class="80e8e89c-78f2-4607-8a92-c93b330f2511" transform="translate(11.83 90.02) scale(0.99 1)">30</text><text class="80e8e89c-78f2-4607-8a92-c93b330f2511" transform="translate(11.83 245.02) scale(0.99 1)">15</text><text class="b01a23b8-8891-45f3-90b2-3fadacd4e3a3" transform="translate(12.5 447.02) scale(0.99 1)">Fuente: Electrograph</text><text class="60fc9bd4-af17-4017-bb83-8f9d61e72ad3" transform="translate(505.5 169.02) scale(0.99 1)">ERC</text><text class="74b1b46c-1432-4628-a504-66c738e4c344" transform="translate(29.5 426.02) scale(0.99 1)">26 de octubre</text><text class="74b1b46c-1432-4628-a504-66c738e4c344" transform="translate(131.5 425.02) scale(0.99 1)">1 de noviembre</text><text class="74b1b46c-1432-4628-a504-66c738e4c344" transform="translate(473.5 425.02) scale(0.99 1)">12 de dic.</text><text class="74b1b46c-1432-4628-a504-66c738e4c344" transform="translate(373.5 425.02) scale(0.99 1)">1 de diciembre</text><text></text><text class="5c802aad-e0f4-4089-ad25-4ad3320140e6" transform="translate(288.5 74.02) scale(0.99 1)"><tspan class="22127d22-bc8f-415c-ae2f-7dfc4ac85327">Mediados de noviembre</tspan><tspan class="82305791-30a1-423c-9358-c1dc44c10c1f" x="0" y="18">Se anuncia que Puigdemont </tspan><tspan class="82305791-30a1-423c-9358-c1dc44c10c1f" x="0" y="36">liderará la candidatura </tspan><tspan class="82305791-30a1-423c-9358-c1dc44c10c1f" x="0" y="54">Junts per Cat</tspan></text><text class="81861d66-599f-4978-b412-cd28d6c0adfc" transform="translate(516.5 198.02) scale(0.99 1)">Cs</text><text class="e6d89500-c709-4052-a968-c9fdf4336e69" transform="translate(505.5 354.02) scale(0.99 1)">CU<tspan class="48272d96-6007-4204-9020-763729cc1087" x="18.78" y="0">P</tspan></text><text class="136e336e-00c2-4505-9418-f6add41cc670" transform="translate(506.5 277.02) scale(0.99 1)">PSC</text><text class="d5863b48-cae5-4c9d-b03a-4c9dfd703df8" transform="translate(494.5 316.02) scale(0.99 1)">CeC-<tspan class="48272d96-6007-4204-9020-763729cc1087" x="30.34" y="0">P</tspan></text><text class="e3540bbd-a6b3-4d30-a940-f156b72e460e" transform="translate(514.5 336.02) scale(0.99 1)">P<tspan class="48272d96-6007-4204-9020-763729cc1087" x="8.67" y="0">P</tspan></text><line class="76adfbba-dd1d-4812-b310-f1a95d8c788c" x1="12.85" y1="199.5" x2="528.01" y2="199.5"/><line class="76adfbba-dd1d-4812-b310-f1a95d8c788c" x1="12.85" y1="95.5" x2="528.01" y2="95.5"/><line class="76adfbba-dd1d-4812-b310-f1a95d8c788c" x1="12.85" y1="299.5" x2="528.01" y2="299.5"/><line class="76adfbba-dd1d-4812-b310-f1a95d8c788c" x1="13.84" y1="354.5" x2="529" y2="354.5"/><line class="76adfbba-dd1d-4812-b310-f1a95d8c788c" x1="13.84" y1="248.5" x2="529" y2="248.5"/><line class="76adfbba-dd1d-4812-b310-f1a95d8c788c" x1="13.84" y1="142.5" x2="529" y2="142.5"/><text class="8255caf8-482f-49e5-a5b1-50f5180ec46b" transform="translate(440.5 172.02) scale(0.99 1)">JxC<tspan class="a20a18f4-126e-4ed9-8764-9ed6189b9422" x="23.85" y="0">A</tspan><tspan x="32.27" y="0">T</tspan></text><text class="6418100f-7cd0-4af9-b2f6-f4e6c34c3cdc" transform="translate(94.13 35.74)">Porcentaje de voto de las encuestas publicadas desde <tspan x="64.21" y="18">el 26 de octubre al 12 de diciembre</tspan></text><text class="154c60d1-f27e-4252-9e09-0b993b8ec74c" transform="translate(61.46 22.62)">Evolución de los sondeos del 21-D</text><polygon class="7f23d95f-0985-42e8-927a-b74c65b506dc" points="431 435.27 527.44 435.27 527.44 449.93 431 449.93 431 435.27 431 435.27"/><path class="0d8d4d71-6fbc-4440-a1ea-7db3939773d1" d="M508.36,438.55h-3.7V439l1,.23v6.81a.81.81,0,0,1-.68.35,1.45,1.45,0,0,1-1.2-.88l-.92-1.65a1.91,1.91,0,0,0-1.69-1.14v-.12a2.26,2.26,0,0,0,2.33-2.1c0-1.42-1.29-2-2.78-2h-3.35V439l1.1.23v6.91h0l-1.26.24L494,437.83a4,4,0,0,1-1.13,1l.12.35-2.87,7-.86.23v.46h2.62v-.46l-.85-.22,1-2.56h2.66l.93,2.54-1,.24v.46H501v-.46l-1-.23V443a1.57,1.57,0,0,1,1.42,1l1.26,2.25a2,2,0,0,0,1.82,1.11,1.8,1.8,0,0,0,1.2-.49h2.85a4.28,4.28,0,0,0,4.39-4.16,4.17,4.17,0,0,0-4.47-4.16ZM492.23,443l1.12-3,1.08,3Zm8.23-.62h-.57v-3.1h.71a1.4,1.4,0,0,1,1.45,1.48,1.61,1.61,0,0,1-1.57,1.62Zm7.82,3.83h-1.18v-6.93h1.22c1.89,0,3,1.31,3,3.46s-1.21,3.46-3.08,3.46Z"/><path class="0d8d4d71-6fbc-4440-a1ea-7db3939773d1" d="M447.71,446.17l-3.07-8.34a3.94,3.94,0,0,1-1.13,1l.12.35-2.85,7-.61.23-.18.46h2.54v-.46l-.85-.22,1-2.56h2.66l.93,2.54-1,.24v.46h3.42v-.46l-.91-.23Zm-4.87-3.2,1.13-3,1.08,3Z"/><polygon class="0d8d4d71-6fbc-4440-a1ea-7db3939773d1" points="440.39 444.75 440.08 444.58 438.29 446.21 436.75 446.21 436.75 439.25 437.68 439.01 437.68 438.54 434.37 438.54 434.37 439.01 435.3 439.25 435.3 446.15 434.37 446.39 434.37 446.86 439.57 446.86 440.39 444.75 440.39 444.75"/><polygon class="0d8d4d71-6fbc-4440-a1ea-7db3939773d1" points="454.83 438.54 454.83 439.01 455.83 439.25 453.66 444.81 451.37 439.24 452.45 439.01 452.45 438.54 448.76 438.54 448.76 439.01 449.82 439.24 453.1 447.14 453.45 447.14 456.72 439.25 456.75 439.25 457.77 439.01 457.77 438.54 454.83 438.54 454.83 438.54"/><path class="0d8d4d71-6fbc-4440-a1ea-7db3939773d1" d="M487.6,438.55V439l1,.24s.07,4.12,0,5.16a2.1,2.1,0,0,1-2.14,2h-.11a2.07,2.07,0,0,1-2.24-2.13v-5.07l1-.22v-.46h-3.34V439l.95.23v5.11a3.07,3.07,0,0,0,3.3,2.91,3,3,0,0,0,3.3-2.91l.06-5.1,1-.24v-.46Z"/><path class="0d8d4d71-6fbc-4440-a1ea-7db3939773d1" d="M523.7,446.15l-3.06-8.32a3.94,3.94,0,0,1-1.13,1l.12.35-2.86,7-.49.2-.66-.21v-6.94l1-.23v-.46h-3.48V439l1,.24v6.92l-1,.23v.46h5.3v-.46l-.85-.23,1-2.56h2.66l.93,2.54-1,.24v.46h3.43v-.46l-.92-.24ZM518.84,443l1.13-3,1.08,3Z"/><path class="0d8d4d71-6fbc-4440-a1ea-7db3939773d1" d="M469.75,438.55V439l1,.24.06,5.44-5.21-6.14H463.4V439l1,.22.08,0-.07,6.88h0l-1,.24-3.14-8.56a4,4,0,0,1-1.1,1l.12.35-2.87,7-.86.23v.46h2.62v-.46l-.85-.22,1-2.56h2.66l.93,2.54-1,.24v.46h5.47v-.46l-1-.24-.12-6,6,7h.39l.08-7.9,1-.23v-.46ZM458.44,443l1.13-3,1.08,3Z"/><path class="0d8d4d71-6fbc-4440-a1ea-7db3939773d1" d="M478.52,442.61v.46l.94.24V446a3.11,3.11,0,0,1-1.88.62c-1.89,0-3.1-1.57-3.1-3.79s1.18-4,3.14-4a3,3,0,0,1,2.78,2.26l.27-.16v-2.62l-.24-.13-.52.64a5.24,5.24,0,0,0-2.3-.59,4.65,4.65,0,0,0-4.66,4.58,4.22,4.22,0,0,0,4,4.43h.3a4.29,4.29,0,0,0,2.68-.89l.73.49h.24V443.3l.79-.3v-.38Z"/><line class="fa3b54cd-58ce-4357-ada1-a6c550f59e58" x1="284.5" y1="71" x2="284.5" y2="73.5"/><line class="eb4344c6-dd54-44e5-9a65-f122a991a1fc" x1="284.5" y1="78.54" x2="284.5" y2="398.48"/><line class="fa3b54cd-58ce-4357-ada1-a6c550f59e58" x1="284.5" y1="401" x2="284.5" y2="403.5"/><path class="c905d444-9221-4418-bb10-f0c3966ed41e" d="M37.14,340.27,331,344.39l10.87,2.06,43.46-5.15v-5.15l54.33,7.21,54.33,10.31,10.87-24.74,10.87,15.46"/><path class="26a744a7-1fad-4236-a08c-24388c293224" d="M37.14,133.1l293.82-1,10.87,24.74,43.46,3.09v30.92l54.33,3.09,54.33-10.31,10.87-8.25,10.87,9.28"/><path class="a09b5121-77c3-44ff-92e0-23ca75cd8c40" d="M37.14,304.2,331,265h10.87l43.46-33v-1l54.33-24.74,54.33,11.34,10.87-7.21,10.87-24.74"/><path class="0cd29263-538c-4809-915f-68089260b3b7" d="M37.14,291.83,331,336.15l10.87-17.52L385.28,332V316.57l54.33,1,54.33,11.34H504.8l10.87-8.25"/><path class="cbc061ab-ffe6-4027-86a7-7e958afaa1c1" d="M37.14,249.57,331,251.63l10.87,2.06,43.46-4.12V240.3l54.33-30.92,54.33,25.77,10.87,6.18,10.87,18.55"/><path class="4b6f3b30-3f5f-48fe-a8d6-b8f7721aa912" d="M37.14,203.19,331,144.44l10.87,45.35,43.46,4.12V173.3l54.33,36.07,54.33-42.26,10.87,18.55,10.87,1"/><path class="ef5fb034-f688-47a7-a76a-4a604dd62b99" d="M37.14,315.53,331,345.42l10.87-36.07L385.28,330v15.46h54.33L493.93,332l10.87,10.31h10.87"/></svg>