<svg id="Capa_1" data-name="Capa 1" xmlns="http://www.w3.org/2000/svg" viewBox="0 0 1202.88 994.35"><defs><style>.cls-1,.cls-15,.cls-16,.cls-17,.cls-2,.cls-3,.cls-4,.cls-7,.cls-8{fill:none;}.cls-1{stroke:#757575;stroke-width:0.75px;}.cls-15,.cls-2{stroke:#323232;}.cls-3{stroke:#e6e6e6;}.cls-10,.cls-11,.cls-13,.cls-14,.cls-23,.cls-4,.cls-5,.cls-6,.cls-9{isolation:isolate;}.cls-4{font-size:12px;}.cls-4,.cls-5,.cls-6{font-family:ArialMT, Arial MT;}.cls-10,.cls-5{font-size:22px;}.cls-10,.cls-14,.cls-5,.cls-6{fill:gray;}.cls-6{font-size:20px;}.cls-7{stroke:#ccc;}.cls-8{stroke:#c7c6c9;}.cls-10,.cls-18,.cls-22{font-family:ArialMT, Arial;}.cls-11,.cls-13,.cls-14,.cls-22,.cls-23{font-size:24px;}.cls-11{fill:#f49e20;}.cls-11,.cls-13,.cls-14,.cls-23{font-family:Arial-BoldMT, Arial;font-weight:700;}.cls-12{letter-spacing:-0.06em;}.cls-13,.cls-18{fill:#323232;}.cls-15,.cls-16,.cls-17{stroke-width:3px;}.cls-16{stroke:#a01f51;}.cls-17{stroke:#f49e20;}.cls-18{font-size:51px;}.cls-19{font-size:31px;}.cls-20{fill:#283659;}.cls-21{fill:#fff;}.cls-22{fill:#757575;}.cls-23{fill:#a01f51;}</style></defs><title>2017.08_ViviendaBarcelona</title><line class="cls-1" x1="2" y1="762.46" x2="1182.75" y2="762.46"/><line class="cls-2" y1="878.35" x2="1183.75" y2="878.35"/><path class="cls-3" d="M1172.88,827.49" transform="translate(-6 -6.72)"/><path class="cls-3" d="M26,827.49" transform="translate(-6 -6.72)"/><text class="cls-4" transform="translate(15.88 766.46) scale(1.03 1)">1.000</text><line class="cls-1" x1="2" y1="647.29" x2="1182.75" y2="647.29"/><text class="cls-4" transform="translate(15.88 651.29) scale(1.03 1)">2.000</text><line class="cls-1" x1="2" y1="532.12" x2="1182.75" y2="532.12"/><text class="cls-4" transform="translate(15.88 536.12) scale(1.03 1)">3.000</text><line class="cls-1" x1="2" y1="416.96" x2="1182.75" y2="416.96"/><line class="cls-1" x1="2" y1="301.79" x2="1182.75" y2="301.79"/><line class="cls-1" x1="2" y1="186.62" x2="1182.75" y2="186.62"/><text class="cls-5" transform="translate(0 179.26) scale(1.03 1)">6.000</text><text class="cls-5" transform="translate(0 296.18) scale(1.03 1)">5.000</text><text class="cls-5" transform="translate(1.61 410.79) scale(1.03 1)">4.000</text><text class="cls-5" transform="translate(0 527.64) scale(1.03 1)">3.000</text><text class="cls-5" transform="translate(3 642.11) scale(1.03 1)">2.000</text><text class="cls-5" transform="translate(0 756.18) scale(1.03 1)">1.000</text><text class="cls-6" transform="translate(20 872.18) scale(1.03 1)">0</text><path class="cls-7" d="M70.44,687.71l84.65-4.63L237.82,679l83.69-5.94,84.61-29.16,84.65-18.37,82.73-12.67,83.69-17.57,84.61,12.42,84.65-47.35,83.65-15.64,83.69-6.81,84.61,63.26,84.65-41.61" transform="translate(-6 -6.72)"/><path class="cls-8" d="M70.44,593.91l84.65-9.58,82.73-6.78L321.51,563l84.61.59,84.65,1.82,82.73-28.67,83.69-18.63,84.61-1.57,84.65-110.5,83.65,34.22,83.69,28,84.61-205.85,84.65,122.78" transform="translate(-6 -6.72)"/><path class="cls-8" d="M70.44,512.75l84.65-59,82.73,1.49,83.69,3.7,84.61-5.85,84.65,31.63,82.73-14.3,83.69,15.77,84.61-1.93,84.65-52.15,83.65-28.33,83.69-12.23,84.61,2.14,84.65,1.12" transform="translate(-6 -6.72)"/><path class="cls-8" d="M70.44,526.72l84.65,25.48,82.73,3.16,83.69,13.06,84.61,8.82,84.65-17.44,82.73-34,83.69,4.61,84.61-46.8,84.65-57.56,83.65,53,83.69,12.8,84.61-45.42,84.65-50.89" transform="translate(-6 -6.72)"/><path class="cls-8" d="M70.44,505.94l84.65,50.13,82.73-46.12,83.69-6.79,84.61-10.49,84.65,4.13,82.73,4.34,83.69-18.67,84.61-13,84.65,18.3,83.65,25.6L993.8,384.27l84.61,20.55,84.65-48.21" transform="translate(-6 -6.72)"/><path class="cls-8" d="M70.44,577.26,155.09,562l82.73,7.14,83.69,30.67,84.61-3.66,84.65,9.11L573.5,603l83.69-49.74,84.61-12.54,84.65-15.34,83.65,51.21,83.69,34.37,84.61-120.82,84.65-4.11" transform="translate(-6 -6.72)"/><path class="cls-7" d="M70.44,441.2l84.65,57.13,82.73-14.06,83.69-6.59,84.61,36.07,84.65,3.7,82.73,6.18,83.69,18.21,84.61-11.17,84.65-21.8,83.65,20.36,83.69-15.36L1078.41,466l84.65-62.84" transform="translate(-6 -6.72)"/><path class="cls-7" d="M70.44,675.62l84.65-43,82.73-5.36,83.69-10.93,84.61-51,84.65,35.24,82.73-50.5,83.69-13.39,84.61-3.54L826.45,562,910.11,564l83.69-94,84.61,89.25,84.65-18.17" transform="translate(-6 -6.72)"/><path class="cls-7" d="M70.44,692.43l84.65,5.14,82.73,7.26,83.69-4.16,84.61-1.42L490.77,695l82.73-33.54,83.69-30.95,84.61-4.93,84.65-41.41,83.65-8,83.69,30,84.61,12.16,84.65-188.36" transform="translate(-6 -6.72)"/><path class="cls-7" d="M321.51,802.85l84.61,2.66,84.65-12.12H573.5l83.69-7.62m421.21-105.56,84.65,68.08" transform="translate(-6 -6.72)"/><path class="cls-7" d="M70.44,674.91l84.65-48.64L237.82,651l83.69,35.84,84.61-18.62,84.65-28.38,82.73.31,83.69-15.05,84.61,14.64,84.65-10.16,83.65,52.93L993.8,656.6l84.61-64.68,84.65-11.82" transform="translate(-6 -6.72)"/><path class="cls-8" d="M70.44,516l84.65,93.44,82.73,5.41,83.69-2.57,84.61,20,84.65-14.5,82.73-9.48,83.69-8.9,84.61-24.31,84.65,54,83.65,29.33,83.69-92.51,84.61-9.59L1163.06,594" transform="translate(-6 -6.72)"/><path class="cls-7" d="M70.44,728.61,155.09,652,237.82,627l83.69,22,84.61-15.06,84.65-24.31,82.73,8.89,83.69-10.1,84.61-9.52,84.65,59.92,83.65-72.65,83.69-2.84,84.61-28.4,84.65-81.37" transform="translate(-6 -6.72)"/><path class="cls-7" d="M70.44,676.21l84.65,43.95,82.73-2.49,83.69-21.86L406.12,691l84.65-37.21,82.73-29.36,83.69-33.25,84.61-3.65,84.65,25.07,83.65,29.24L993.8,614l84.61,7.7,84.65-65.8" transform="translate(-6 -6.72)"/><path class="cls-7" d="M70.44,676.49,155.09,615l82.73-61.12,83.69-5.51,84.61-42.11,84.65,117.85,82.73,39.68,83.69-21.29,84.61,13.34,84.65-39.15,83.65,44.07L993.8,522.7l84.61,66.82,84.65-8.25" transform="translate(-6 -6.72)"/><path class="cls-7" d="M70.44,615.36l84.65,31.31,82.73-4.28,83.69-8.74,84.61-1,84.65.78,82.73-19,83.69-2.52,84.61-3,84.65-202.78L910.11,525l83.69,75.86,84.61-35.18,84.65-49.82" transform="translate(-6 -6.72)"/><path class="cls-7" d="M70.44,576.52l84.65-27.11,82.73-8.33,83.69,6.39,84.61,1.62,84.65-11.3,82.73-3.71,83.69-13.28,84.61-16.49,84.65,30.83,83.65-40.7,83.69-31,84.61-39.74,84.65-98.57" transform="translate(-6 -6.72)"/><path class="cls-8" d="M70.44,564.91l84.65,7,82.73-15.42,83.69-28.37,84.61-7.21,84.65-2.74,82.73-17.75,83.69,5.9,84.61,7.52,84.65-13.68,83.65-29.84,83.69,23.9,84.61-16.52,84.65-110.93" transform="translate(-6 -6.72)"/><path class="cls-7" d="M70.44,297.93l84.65,61.9,82.73-27.17,83.69-10.73,84.61-34.57,84.65,12.18,82.73,3.64,83.69-15.44,84.61-1.3,84.65,212.17,83.65-80.66L993.8,283.86l84.61,15.93,84.65-18" transform="translate(-6 -6.72)"/><path class="cls-7" d="M70.44,346.89l84.65,88,82.73-10.8,83.69,20.12,84.61-.2,84.65,121.38,82.73-.07,83.69,13.6,84.61,67,84.65-257.39L910.11,621.7,993.8,372.64l84.61,192.24,84.65-73.11" transform="translate(-6 -6.72)"/><path class="cls-7" d="M70.44,341.49,155.09,378l82.73-9.41L321.51,379l84.61,9,84.65-60,82.73-1.11,83.69-2.36,84.61,4.94,84.65,38.81L910.11,331l83.69,103.4L1078.41,220l84.65,3.34" transform="translate(-6 -6.72)"/><path class="cls-7" d="M70.44,302l84.65,69.4,82.73,21.14,83.69,15.85,84.61.66,84.65,7.66,82.73-37.39,83.69-37.81,84.61,14,84.65,45,83.65-65.83,83.69-4.42,84.61-23.56,84.65-65.78" transform="translate(-6 -6.72)"/><path class="cls-7" d="M70.44,524.85l84.65-47.08,82.73-5.41,83.69-21.62,84.61,5.8,84.65,11.34,82.73.08,83.69-12.1,84.61-16.08,84.65-81.23,83.65-75.05,83.69,5.23,84.61,70.37,84.65-13.47" transform="translate(-6 -6.72)"/><path class="cls-7" d="M70.44,508.72l84.65-12.17,82.73-10.18,83.69,4.71,84.61-11.91,84.65-38.62,82.73-20,83.69-5,84.61-12.2,84.65,4.91,83.65-52L993.8,358l84.61,43.78,84.65-18.62" transform="translate(-6 -6.72)"/><path class="cls-7" d="M70.44,612.89l84.65-40.34,82.73-7.36,83.69-.38,84.61-14.91,84.65-11.83,82.73-2,83.69-8.63,84.61-4.6L826.45,481l83.65-36.13,83.69-17.41,84.61,34.24,84.65-115.09" transform="translate(-6 -6.72)"/><path class="cls-7" d="M70.44,606.48l84.65-3L237.82,592l83.69,32.1,84.61-4.73,84.65.69,82.73-1.58,83.69-56.35,84.61,7,84.65.26,83.65-104.47,83.69,12.17,84.61,16.15,84.65-8.48" transform="translate(-6 -6.72)"/><path class="cls-7" d="M70.44,667.47l84.65,2.84,82.73-22.08,83.69.7,84.61-12,84.65-15.87,82.73,6.52,83.69.67,84.61-.78,84.65,53.81L910.11,610l83.69,17.37,84.61-36.43,84.65,42.34" transform="translate(-6 -6.72)"/><path class="cls-7" d="M70.44,602.62l84.65-17.3,82.73-3.89,83.69-4.93,84.61.16L490.77,575l82.73-2.63,83.69-3.07,84.61-13.88,84.65-13.79,83.65-2.48,83.69-19.59,84.61-50,84.65,9.69" transform="translate(-6 -6.72)"/><path class="cls-7" d="M70.44,476.14l84.65,34.41L237.82,517l83.69-2.66,84.61,1.14,84.65,6.18,82.73-14.87,83.69,2.29,84.61-6.53,84.65-33.63,83.65,12.91,83.69-38.26,84.61-17.29L1163.06,341" transform="translate(-6 -6.72)"/><path class="cls-7" d="M70.44,600.77l84.65-35.9,82.73-4.54,83.69,9.58,84.61-3.63,84.65-7.84,82.73,5.38,83.69-20.33,84.61-9.82,84.65-47.91,83.65-37.3,83.69,22.12,84.61-40.75,84.65,36.62" transform="translate(-6 -6.72)"/><path class="cls-7" d="M70.44,638.25l84.65-10.6L237.82,615l83.69-4,84.61-19.94,84.65-19.87,82.73-4.74,83.69-23,84.61-10.68,84.65-20.66,83.65,51,83.69-12.65,84.61-29.23,84.65-22.78" transform="translate(-6 -6.72)"/><path class="cls-7" d="M70.44,664.59l84.65-17.29,82.73,35.14,83.69-36.51,84.61-5.61,84.65-3.94,82.73-3.2,83.69,14.26,84.61-5.08,84.65,43.38,83.65-52.09,83.69,3.87,84.61-38.14,84.65-45.32" transform="translate(-6 -6.72)"/><path class="cls-7" d="M70.44,623.3l84.65,22.33,82.73-1,83.69-13.9L406.12,635l84.65,2.42,82.73,5.49,83.69-4.2,84.61-7.59,84.65-60.61,83.65,39.64,83.69,8.46,84.61-.45,84.65-.7" transform="translate(-6 -6.72)"/><path class="cls-7" d="M70.44,628.77l84.65-176.67L237.82,590.3l83.69,15.37,84.61-15.31,84.65,9.28,82.73-13.26,83.69-7.16,84.61-4,84.65,20.19,83.65,34.23,83.69-43.21,84.61,7.72,84.65-104.92" transform="translate(-6 -6.72)"/><path class="cls-7" d="M70.44,716.49l84.65-13.54,82.73,2.43,83.69,4.33,84.61-.82,84.65,1,82.73-2.65L657.19,694l84.61-4.12,84.65-26.73,83.65,22.92,83.69,2.58,84.61-11.49,84.65-20.48" transform="translate(-6 -6.72)"/><path class="cls-7" d="M70.44,732.19l84.65-5.25,82.73-13.2,83.69-8.22L406.12,686l84.65-6,82.73,10.42,83.69-7.9,84.61,3.31,84.65.69,83.65,6.2,83.69-43.94,84.61,9,84.65.61" transform="translate(-6 -6.72)"/><path class="cls-7" d="M70.44,581.95l84.65,90.51,82.73,16.17,83.69,26.28,84.61,32.47,84.65-47.78,82.73-9,83.69-43.69,84.61,6.16,84.65,40.6,83.65-55.27,83.69,76.74,84.61-6.4,84.65-74.57" transform="translate(-6 -6.72)"/><path class="cls-7" d="M70.44,711.59l84.65-12.7,82.73,6,83.69-4.11,84.61,1.44,84.65-7.64,82.73.67,83.69,3.26,84.61-9.41,84.65-16,83.65-3.2L993.8,655l84.61.45,84.65-31.59" transform="translate(-6 -6.72)"/><path class="cls-7" d="M155.09,622.51l82.73,4.64,83.69-9.26L406.12,603l84.65-6.27,82.73-17.46,83.69-22.65,84.61-8.34,84.65-17.39" transform="translate(-6 -6.72)"/><path class="cls-7" d="M155.09,645.45l82.73.46,83.69,32.91,84.61-4.88,84.65-4.62,82.73,30.32,83.69-24,84.61,11.57" transform="translate(-6 -6.72)"/><path class="cls-7" d="M70.44,617.28l84.65,40.38,82.73,14.82,83.69,10.26,84.61,2.3,84.65-18.52,82.73-14.91,83.69-4,84.61-6.35,84.65-1.7,83.65-22.27,83.69-72.15,84.61,1.14,84.65,29.06" transform="translate(-6 -6.72)"/><path class="cls-7" d="M70.44,715.77l84.65-35.21,82.73-2.89,83.69.16,84.61-11.62,84.65-1,82.73-14.65,83.69-4.72,84.61,1.79,84.65-10.1,83.65,19.16,83.69-38.77,84.61,15.18,84.65-24.19" transform="translate(-6 -6.72)"/><path class="cls-7" d="M70.44,687.77l84.65-16.71,82.73,17.71,83.69,5.65,84.61-2.51,84.65-8.41,82.73-13.28,83.69-9,84.61-.13,84.65-9.41,83.65,17.53,83.69-37,84.61,39.54,84.65-32.27" transform="translate(-6 -6.72)"/><path class="cls-7" d="M70.44,709.91l84.65-9.66,82.73.47,83.69.23,84.61,6.2,84.65,18,82.73-4.76,83.69,9.81,84.61-8.07,84.65-27.82,83.65,18.12,83.69-20.88,84.61,36,84.65-7.85" transform="translate(-6 -6.72)"/><path class="cls-7" d="M155.09,813.79l82.73-36.24m419.37-11.91,84.61-40.86" transform="translate(-6 -6.72)"/><path class="cls-7" d="M70.44,657l84.65,16.42,82.73-4.25,83.69-3.72,84.61,12,84.65-2,82.73-11.8,83.69,5.42,84.61-7.21,84.65,81,83.65-99.61,83.69,8.37,84.61-11.44,84.65,13.87" transform="translate(-6 -6.72)"/><path class="cls-7" d="M70.44,673.29h84.65l82.73,8.81,83.69-4.88,84.61,1.3L490.77,685l82.73-12.51,83.69,1.65,84.61,10.73,84.65,46.1,83.65-104,83.69,29.33,84.61,71.7,84.65-60.43" transform="translate(-6 -6.72)"/><path class="cls-7" d="M70.44,724.36,155.09,709l82.73,11.24,83.69,14.43,84.61,9.92,84.65,13.07,82.73,1.12,83.69-.39L741.8,748l84.65-38.77L910.11,695l83.69,11.39,84.61-56,84.65,34" transform="translate(-6 -6.72)"/><path class="cls-7" d="M70.44,722.49l84.65-9.85,82.73-17,83.69,2.78L406.12,696l84.65,2.57,82.73,11,83.69-6,84.61,17,84.65-15.59L910.11,682l83.69,21.36,84.61-22.15,84.65-16.18" transform="translate(-6 -6.72)"/><path class="cls-7" d="M70.44,721.93l84.65,1,82.73-4.15,83.69-13.13,84.61-5.26,84.65-11.07,82.73-12.09,83.69,4.57,84.61-3.43,84.65,11.74,83.65-39.65,83.69,37.88,84.61-38.13,84.65,6.82" transform="translate(-6 -6.72)"/><path class="cls-7" d="M70.44,766.58l84.65,1.49,82.73-2.86,83.69,4.61,84.61,3,84.65-.56,82.73-23.11,83.69,1.76,84.61-5.57,84.65-7.95,83.65-9.13,83.69,7.6,84.61,15.59,84.65-24.73" transform="translate(-6 -6.72)"/><path class="cls-7" d="M237.82,746.6l83.69-40.94,84.61-18.28h84.65l82.73-63.61" transform="translate(-6 -6.72)"/><path class="cls-7" d="M155.09,747.43l82.73,10.43,83.69,26.5h84.61l84.65-9.73,82.73,5.68,83.69-22.68,84.61,6.84,84.65-13.34,83.65,22.12,83.69-2.41,84.61-22,84.65,3.77" transform="translate(-6 -6.72)"/><path class="cls-7" d="M155.09,570.26l82.73,67.09,83.69,16.09L406.12,647l84.65,43.89,82.73-1h83.69l84.61,2.91" transform="translate(-6 -6.72)"/><path class="cls-7" d="M70.44,743.77l84.65-83.34,82.73.16,83.69,8.65L406.12,668l84.65,10.22,82.73-4.43,83.69-2.08,84.61,1,84.65,24.86,83.65-32.68,83.69-30.68L1078.41,651l84.65,17.36" transform="translate(-6 -6.72)"/><path class="cls-7" d="M155.09,586.84h82.73m253-2.44,82.73-.53,83.69-19.59,84.61,2.37" transform="translate(-6 -6.72)"/><path class="cls-7" d="M70.44,770l84.65-47.16,82.73-5.07,83.69,4,84.61-1.73,84.65-7.69,82.73,2.19,83.69-3,84.61.17,84.65-46.15,83.65,24.68,83.69,10.92,84.61,20.91,84.65-31.73" transform="translate(-6 -6.72)"/><path class="cls-7" d="M70.44,646.54l84.65,8.56,82.73-8,83.69,2.72,84.61,1.38,84.65-10L573.5,637l83.69-5.87,84.61-2.1,84.65,10.27L910.11,626l83.69-34.71,84.61,13.51,84.65-29.08" transform="translate(-6 -6.72)"/><path class="cls-7" d="M70.44,556.68l84.65,72,82.73,2.89,83.69-11.34L406.12,633l84.65,0,82.73-19.42,83.69-17.66,84.61,5,84.65.48,83.65,13.46,83.69-64.49,84.61,17.75,84.65-33.77" transform="translate(-6 -6.72)"/><path class="cls-7" d="M70.44,663.11l84.65-2.29L237.82,665l83.69,3.71,84.61-7.16,84.65-24.84,82.73-1.8,83.69,8.64,84.61-7.7,84.65-28.55,83.65-42.85,83.69,58.21L1078.41,683l84.65-86.65" transform="translate(-6 -6.72)"/><path class="cls-7" d="M70.44,566.92l84.65,2.28,82.73,7.69,83.69-1.39,84.61,1.75,84.65.43,82.73-12.55L657.19,567l84.61,3L826.45,582l83.65-88.51,83.69,21.77,84.61,21.59,84.65-22.38" transform="translate(-6 -6.72)"/><path class="cls-7" d="M70.44,518.62l84.65,41.56,82.73,0L321.51,562l84.61,20.79,84.65,2,82.73-15.24,83.69,1.24,84.61-11L826.45,520l83.65-23,83.69-16.5,84.61,27.79,84.65-59.16" transform="translate(-6 -6.72)"/><path class="cls-7" d="M70.44,605.71l84.65-36,82.73-10,83.69-2.11,84.61-10.78,84.65-16.58,82.73,15.39,83.69-7.8,84.61,2.21,84.65-5.34,83.65-7.09,83.69-28.39,84.61-4.26,84.65-6.75" transform="translate(-6 -6.72)"/><path class="cls-7" d="M70.44,644.34l84.65-16.15,82.73-.44,83.69-16.6,84.61-10.66L490.77,587l82.73-23.89,83.69-12.61,84.61-11.85,84.65,22.86,83.65,24.21L993.8,437l84.61,87.33,84.65-21.13" transform="translate(-6 -6.72)"/><path class="cls-7" d="M155.09,564l82.73,11.23,83.69,8.29,84.61-22.22,84.65-71,82.73-2.84,83.69-28.05,84.61-27.13m252-34.39,84.61-59.46,84.65,169.77" transform="translate(-6 -6.72)"/><path class="cls-7" d="M70.44,530.88l84.65-5.94,82.73,3.1,83.69,2.29,84.61-8.82,84.65,10,82.73.52,83.69,4,84.61-5.46,84.65-92.93,83.65,28,83.69-92.73,84.61,84.15,84.65-76.16" transform="translate(-6 -6.72)"/><path class="cls-7" d="M70.44,364.17l84.65-107.29,82.73-29.49,83.69-44.14L406.12,151l84.65,27.33,82.73-11.91,83.69,49.49,84.61-18.12L826.45,85.89l83.65,232.34L993.8,298.3l84.61-4.85,84.65-132.28" transform="translate(-6 -6.72)"/><path class="cls-7" d="M70.44,681.14l84.65-19.22,82.73-44,83.69,2.52,84.61,3.19,84.65,3.11,82.73,37.89,83.69,2.59,84.61-46.88,84.65,12.22,83.65-46.38L993.8,635.7l84.61,1.43,84.65-70.66" transform="translate(-6 -6.72)"/><path class="cls-7" d="M70.44,458.06l84.65-33.48L237.82,436,321.51,413l84.61-9.57,84.65-48.14,82.73,37.87,83.69-16L741.8,379l84.65,88.31L910.11,500,993.8,641l84.61-151.62L1163.06,402" transform="translate(-6 -6.72)"/><path class="cls-7" d="M70.44,597.49,155.09,638l82.73-25.46,83.69-36.73L406.12,574l84.65-4,82.73-26.8,83.69-2.23,84.61-2.29,84.65-14.58,83.65,31.22,83.69-27.74,84.61-34,84.65,50.8" transform="translate(-6 -6.72)"/><path class="cls-7" d="M70.44,719.65l84.65-1,82.73.88,83.69.18,84.61-.3,84.65-82.06,82.73-4.61,83.69-2,84.61-2.34,84.65,56,83.65,15.63L993.8,670.9l84.61-16.19,84.65,10.53" transform="translate(-6 -6.72)"/><g class="cls-9"><text class="cls-10" transform="translate(62.43 910.17)">T4</text></g><g class="cls-9"><text class="cls-10" transform="translate(218.82 910.17)">T2</text></g><g class="cls-9"><text class="cls-11" transform="translate(818.45 384.78)"><tspan class="cls-12">L</tspan><tspan x="13.34" y="0">’Antiga Esquerra de l’Eixample</tspan></text></g><g class="cls-9"><text class="cls-13" transform="translate(954.27 529.39)">Media de Barcelona</text></g><g class="cls-9"><text class="cls-10" transform="translate(302.51 909.17)">T3</text></g><g class="cls-9"><text class="cls-10" transform="translate(387.12 909.17)">T4</text></g><g class="cls-9"><text class="cls-14" transform="translate(458.77 910.17)">2015</text></g><g class="cls-9"><text class="cls-14" transform="translate(125.28 909.17)">2014</text></g><g class="cls-9"><text class="cls-10" transform="translate(554.5 909.17)">T2</text></g><g class="cls-9"><text class="cls-10" transform="translate(638.19 910.17)">T3</text></g><g class="cls-9"><text class="cls-10" transform="translate(722.8 909.17)">T4</text></g><g class="cls-9"><text class="cls-14" transform="translate(793.45 910.17)">2016 </text></g><g class="cls-9"><text class="cls-10" transform="translate(891.1 910.17)">T2</text></g><g class="cls-9"><text class="cls-10" transform="translate(974.79 909.17)">T3</text></g><g class="cls-9"><text class="cls-10" transform="translate(1059.4 909.17)">T4</text></g><g class="cls-9"><text class="cls-14" transform="translate(1128.05 910.17)">2017 </text></g><path class="cls-15" d="M70.44,577.21l84.65-3.63,82.73-3.36,83.69,0,84.61-3.06,84.65-6,82.73-6.46,83.69-5.18,84.61-7.21,84.65-21.65,83.65-5.75,83.69-11.48,84.61,4,84.65-29.64" transform="translate(-6 -6.72)"/><path class="cls-16" d="M70.44,573.11l84.65,2.37,82.73-20.3,83.69-19.43,84.61-8.35,84.65-35.87,82.73-8.76,83.69-8.21,84.61-22.92,84.65-35.51L910.11,443l83.69-19.61,84.61,28.42L1163.06,413" transform="translate(-6 -6.72)"/><path class="cls-17" d="M70.44,546.68l84.65,12.65,82.73-20,83.69-10.81,84.61-8.28,84.65-5.71,82.73,4,83.69-6.63L741.8,503l84.65-18.86,83.65,29.75,83.69-37.33,84.61-44.14,84.65-23.62" transform="translate(-6 -6.72)"/><text class="cls-18" transform="translate(3.88 43.77)">Evolución del precio de la vivienda en Barcelona<tspan class="cls-19"><tspan x="0" y="37.2">Precio por m² en los 73 barrios de la ciudad</tspan></tspan></text><polygon class="cls-20" points="998.53 953.05 1183.59 953.05 1183.59 981.16 998.53 981.16 998.53 953.05 998.53 953.05"/><path class="cls-21" d="M1153,966h-7.09v.89l1.86.44v13.09a1.55,1.55,0,0,1-1.3.66,2.78,2.78,0,0,1-2.3-1.69l-1.78-3.17a3.67,3.67,0,0,0-3.24-2.18v-.22c2.37-.06,4.48-1.75,4.48-4,0-2.72-2.47-3.78-5.34-3.78h-6.44v.89l2.1.44v13.26h0l-2.42.46-6-16.44a7.57,7.57,0,0,1-2.17,1.86l.23.66-5.5,13.47-1.66.45V982h5v-.89l-1.64-.43,1.86-4.91h5.1l1.79,4.87-1.92.46V982h12.21v-.89l-2.05-.43v-6.18a3,3,0,0,1,2.72,2l2.42,4.32a3.91,3.91,0,0,0,3.5,2.13,3.46,3.46,0,0,0,2.3-.95h5.47a8.21,8.21,0,0,0,8.42-8c0-4.65-3.6-8-8.57-8Zm-31,8.48,2.16-5.66,2.08,5.66Zm15.8-1.2h-1.09v-5.94h1.36a2.68,2.68,0,0,1,2.79,2.85,3.09,3.09,0,0,1-3.07,3.1Zm15,7.35h-2.28v-13.3h2.34c3.62,0,5.84,2.5,5.84,6.65s-2.31,6.65-5.9,6.65Z" transform="translate(-6 -6.72)"/><path class="cls-21" d="M1036.61,980.67l-5.89-16a7.56,7.56,0,0,1-2.17,1.86l.23.66-5.5,13.47-1.17.45-.35.89h4.87v-.89l-1.64-.43,1.86-4.91h5.1l1.79,4.87-1.92.46V982h6.55v-.89l-1.75-.43Zm-9.36-6.15,2.16-5.66,2.08,5.66Z" transform="translate(-6 -6.72)"/><polygon class="cls-21" points="1016.56 971.23 1015.96 970.9 1012.52 974.04 1009.57 974.04 1009.57 960.67 1011.34 960.22 1011.34 959.33 1004.99 959.33 1004.99 960.22 1006.78 960.67 1006.78 973.93 1004.99 974.38 1004.99 975.27 1014.97 975.27 1016.56 971.23 1016.56 971.23"/><polygon class="cls-21" points="1044.27 959.33 1044.27 960.22 1046.18 960.66 1042.02 971.34 1037.63 960.65 1039.7 960.22 1039.7 959.33 1032.61 959.33 1032.61 960.22 1034.64 960.66 1040.93 975.83 1041.61 975.83 1047.89 960.68 1047.94 960.68 1049.9 960.22 1049.9 959.33 1044.27 959.33 1044.27 959.33"/><path class="cls-21" d="M1113.15,966v.89l1.91.45s.14,7.9.07,9.9a4,4,0,0,1-4.3,3.9,4,4,0,0,1-4.29-4.1v-9.73l1.85-.42V966H1102v.89l1.82.43v9.8c.12,3.37,2.84,5.58,6.34,5.58s6.22-2,6.34-5.58l.12-9.78,1.87-.45V966Z" transform="translate(-6 -6.72)"/><path class="cls-21" d="M1182.44,980.64l-5.87-16a7.56,7.56,0,0,1-2.17,1.86l.23.66-5.51,13.54-.94.38-1.27-.4V967.38l2-.44V966h-6.67v.89l1.93.46v13.28l-1.85.43V982h10.21v-.89l-1.64-.43,1.86-4.91h5.1l1.79,4.87-1.92.46V982h6.55v-.89l-1.77-.46Zm-9.33-6.11,2.16-5.66,2.08,5.66Z" transform="translate(-6 -6.72)"/><path class="cls-21" d="M1078.89,966v.89l1.95.46.12,10.43L1071,966h-4.27v.89l1.93.43.16.08-.14,13.19h0l-2,.46-6-16.44a7.57,7.57,0,0,1-2.17,1.86l.23.66-5.5,13.47-1.66.45V982h5v-.89l-1.64-.43,1.86-4.91h5.1l1.79,4.87-1.92.46V982h10.49v-.89l-2.05-.45-.13-11.54,11.42,13.43h.76l.15-15.17,1.94-.44V966Zm-21.71,8.48,2.16-5.66,2.08,5.66Z" transform="translate(-6 -6.72)"/><path class="cls-21" d="M1095.68,973.84v.89l1.8.45v5.14a6,6,0,0,1-3.6,1.2c-3.63,0-5.94-3.05-5.94-7.28s2.28-7.61,6-7.61a5.68,5.68,0,0,1,5.34,4.34l.51-.3v-5l-.46-.25-1,1.22a10.07,10.07,0,0,0-4.42-1.12,8.93,8.93,0,0,0-8.95,8.79,8.11,8.11,0,0,0,8.27,8.51,8.24,8.24,0,0,0,5.14-1.71l1.41.94h.46v-6.85l1.51-.57v-.73Z" transform="translate(-6 -6.72)"/><text class="cls-22" transform="translate(3.88 975.27)">Fuente: Incasol</text><g class="cls-9"><text class="cls-23" transform="translate(925.13 465.78)">La Dreta de l’Eixample</text></g></svg>