<svg id="a04c8b84-a66d-43ba-9835-90fece227087" data-name="Capa 1" xmlns="http://www.w3.org/2000/svg" viewBox="0 0 534 497"><defs><style>.\30 c4ca4a2-20c3-474c-b1f5-199a1fc9c3d3,.\32 f800d7d-b3a6-4ed3-ac42-971e4bbc5dff,.\35 0681325-bb0e-415e-b66d-795aa8ff1171{fill:none;}.\30 c4ca4a2-20c3-474c-b1f5-199a1fc9c3d3{stroke:#757575;}.\30 c4ca4a2-20c3-474c-b1f5-199a1fc9c3d3,.\32 f800d7d-b3a6-4ed3-ac42-971e4bbc5dff,.\34 9666551-3e10-43cb-b3ad-da0b0bf8e794,.\34 cf04b6f-6233-494c-8a04-cf1d5d67ad33,.\35 0681325-bb0e-415e-b66d-795aa8ff1171,.\36 831284a-57fb-482e-839d-58f8e40be4f7,.c17975e7-d06a-4ac7-b3ff-215c802402d3,.c8cdcb71-0342-4d0e-86fc-3b0f54c68233,.c9e8e644-4a87-4c62-9355-42ca71dc845d,.ec954e5f-a325-4b5e-923b-e6c2baa06623{stroke-miterlimit:10;}.f9c333f3-f70e-4019-87f9-7b7d2fc9c916{font-size:16px;}.\31 519051f-2024-4361-ae39-ea69efe0feb6,.\33 9673bac-3dc4-496d-b412-be9591a143d9,.b6542edb-8f66-4d7d-9c7a-4ad4582b08e1,.f9c333f3-f70e-4019-87f9-7b7d2fc9c916{fill:#757575;}.\31 04f9cfe-6cbe-4956-93aa-1940bebc101b,.\31 519051f-2024-4361-ae39-ea69efe0feb6,.b6542edb-8f66-4d7d-9c7a-4ad4582b08e1,.f9c333f3-f70e-4019-87f9-7b7d2fc9c916{font-family:ArialMT, Arial;}.\33 9673bac-3dc4-496d-b412-be9591a143d9,.b6542edb-8f66-4d7d-9c7a-4ad4582b08e1{font-size:13px;}.\33 9673bac-3dc4-496d-b412-be9591a143d9,.a207fc0a-5bb3-4936-8105-f264f8ba5988{font-family:Arial-BoldMT, Arial;font-weight:700;}.\31 04f9cfe-6cbe-4956-93aa-1940bebc101b,.\31 519051f-2024-4361-ae39-ea69efe0feb6{font-size:15px;}.c821345c-6201-4fd9-b536-aa70fb3acaa4{letter-spacing:-0.02em;}.\38 9e035e0-6e25-4be2-b2dc-11902991b0e4{letter-spacing:-0.07em;}.\32 f800d7d-b3a6-4ed3-ac42-971e4bbc5dff{stroke:#d6d6d6;}.a207fc0a-5bb3-4936-8105-f264f8ba5988{font-size:26px;}.\31 04f9cfe-6cbe-4956-93aa-1940bebc101b,.\33 ec7302a-37be-4cff-8bc0-afb7d9dac76c,.a207fc0a-5bb3-4936-8105-f264f8ba5988{fill:#323232;}.\36 cb14ec8-5d73-438d-b00d-d3500b2af510{fill:#283659;}.\30 c2c1f5a-669a-4572-ab0d-485923453dfe{fill:#fff;}.e6698ae3-c2b9-4b6f-af85-ec5a9762afac{opacity:0.82;}.\34 cf04b6f-6233-494c-8a04-cf1d5d67ad33,.\39 0950449-7595-4d48-9af8-417e62360d4e{fill:#991d26;}.\34 9666551-3e10-43cb-b3ad-da0b0bf8e794,.\34 cf04b6f-6233-494c-8a04-cf1d5d67ad33,.\36 831284a-57fb-482e-839d-58f8e40be4f7,.c17975e7-d06a-4ac7-b3ff-215c802402d3,.c8cdcb71-0342-4d0e-86fc-3b0f54c68233,.c9e8e644-4a87-4c62-9355-42ca71dc845d,.ec954e5f-a325-4b5e-923b-e6c2baa06623{stroke:#fff;stroke-width:0.5px;}.\33 5c23a1b-b8a5-4eb4-acd6-f0b7bd00e13b,.\33 b730fba-3aed-436b-83b4-ea77b5f16ac2,.\34 9666551-3e10-43cb-b3ad-da0b0bf8e794,.\34 cf04b6f-6233-494c-8a04-cf1d5d67ad33,.\35 2324e3a-359c-427d-a265-1badd61e45c3,.\35 6088780-e8f7-44f2-ae0b-050dc4cf4648,.\36 831284a-57fb-482e-839d-58f8e40be4f7,.\39 0950449-7595-4d48-9af8-417e62360d4e,.a502056a-f5f7-420c-a25e-c664243e0535,.c17975e7-d06a-4ac7-b3ff-215c802402d3,.c8cdcb71-0342-4d0e-86fc-3b0f54c68233,.c9e8e644-4a87-4c62-9355-42ca71dc845d,.ec954e5f-a325-4b5e-923b-e6c2baa06623{opacity:0.76;}.deb8cb54-9612-4b7d-b6be-e854b229d1a7{opacity:0.86;}.\35 6088780-e8f7-44f2-ae0b-050dc4cf4648,.c17975e7-d06a-4ac7-b3ff-215c802402d3{fill:#59a5a5;}.\36 831284a-57fb-482e-839d-58f8e40be4f7,.a502056a-f5f7-420c-a25e-c664243e0535{fill:#3f4d78;}.\33 5c23a1b-b8a5-4eb4-acd6-f0b7bd00e13b,.ec954e5f-a325-4b5e-923b-e6c2baa06623{fill:#efb21b;}.ece597b3-36fd-4a2b-9e74-123e3f099435{opacity:0.52;}.\37 11a226b-080e-47da-9bf8-ec44803b2cb3,.c9e8e644-4a87-4c62-9355-42ca71dc845d,.f1204dd7-bd41-4d75-b0e6-81be4aec40b0{fill:#ffe600;}.\33 b730fba-3aed-436b-83b4-ea77b5f16ac2,.\34 9666551-3e10-43cb-b3ad-da0b0bf8e794{fill:#d57928;}.\35 2324e3a-359c-427d-a265-1badd61e45c3,.c8cdcb71-0342-4d0e-86fc-3b0f54c68233{fill:#8e244f;}.f1204dd7-bd41-4d75-b0e6-81be4aec40b0{opacity:0.9;}.\35 0681325-bb0e-415e-b66d-795aa8ff1171{stroke:#323232;}</style></defs><title>2017.11_Metaencuesta</title><line class="0c4ca4a2-20c3-474c-b1f5-199a1fc9c3d3" x1="9" y1="448.42" x2="530" y2="448.42"/><text class="f9c333f3-f70e-4019-87f9-7b7d2fc9c916" transform="translate(8.66 442.02) scale(0.99 1)">0</text><text class="f9c333f3-f70e-4019-87f9-7b7d2fc9c916" transform="translate(7.66 382.02) scale(0.99 1)">5</text><text class="f9c333f3-f70e-4019-87f9-7b7d2fc9c916" transform="translate(5.5 320.02) scale(0.99 1)">10</text><text class="f9c333f3-f70e-4019-87f9-7b7d2fc9c916" transform="translate(7.83 198.02) scale(0.99 1)">20</text><text class="f9c333f3-f70e-4019-87f9-7b7d2fc9c916" transform="translate(7.83 135.02) scale(0.99 1)">25</text><text class="f9c333f3-f70e-4019-87f9-7b7d2fc9c916" transform="translate(10.83 72.02) scale(0.99 1)">30</text><text class="f9c333f3-f70e-4019-87f9-7b7d2fc9c916" transform="translate(7.83 258.02) scale(0.99 1)">15</text><text class="b6542edb-8f66-4d7d-9c7a-4ad4582b08e1" transform="translate(4.5 491.02) scale(0.99 1)">Fuente: Electrograph</text><text class="39673bac-3dc4-496d-b412-be9591a143d9" transform="translate(58.5 467.02) scale(0.99 1)">ERC</text><text class="1519051f-2024-4361-ae39-ea69efe0feb6" transform="translate(310.5 198.02) scale(0.99 1)">Promedio de todas las encuestas</text><text class="1519051f-2024-4361-ae39-ea69efe0feb6" transform="translate(283.5 135.02) scale(0.99 1)">Resultado de cada encuesta</text><text class="39673bac-3dc4-496d-b412-be9591a143d9" transform="translate(135.5 467.02) scale(0.99 1)">Cs</text><text class="39673bac-3dc4-496d-b412-be9591a143d9" transform="translate(472.5 468.02) scale(0.99 1)">CU<tspan class="c821345c-6201-4fd9-b536-aa70fb3acaa4" x="18.78" y="0">P</tspan></text><text class="39673bac-3dc4-496d-b412-be9591a143d9" transform="translate(204.5 467.02) scale(0.99 1)">PSC</text><text class="39673bac-3dc4-496d-b412-be9591a143d9" transform="translate(270.5 467.02) scale(0.99 1)">JxC<tspan class="89e035e0-6e25-4be2-b2dc-11902991b0e4" x="23.85" y="0">A</tspan><tspan x="32.27" y="0">T</tspan></text><text class="39673bac-3dc4-496d-b412-be9591a143d9" transform="translate(338.5 467.02) scale(0.99 1)">CeC-<tspan class="c821345c-6201-4fd9-b536-aa70fb3acaa4" x="30.34" y="0">P</tspan></text><text class="39673bac-3dc4-496d-b412-be9591a143d9" transform="translate(414.5 467.02) scale(0.99 1)">P<tspan class="c821345c-6201-4fd9-b536-aa70fb3acaa4" x="8.67" y="0">P</tspan></text><line class="2f800d7d-b3a6-4ed3-ac42-971e4bbc5dff" x1="8.85" y1="385.5" x2="529.36" y2="385.5"/><line class="2f800d7d-b3a6-4ed3-ac42-971e4bbc5dff" x1="8.85" y1="323.5" x2="529.36" y2="323.5"/><line class="2f800d7d-b3a6-4ed3-ac42-971e4bbc5dff" x1="8.85" y1="261.5" x2="529.36" y2="261.5"/><line class="2f800d7d-b3a6-4ed3-ac42-971e4bbc5dff" x1="8.85" y1="201.5" x2="529.36" y2="201.5"/><line class="2f800d7d-b3a6-4ed3-ac42-971e4bbc5dff" x1="8.85" y1="139.5" x2="529.36" y2="139.5"/><line class="2f800d7d-b3a6-4ed3-ac42-971e4bbc5dff" x1="9.85" y1="77.5" x2="530.36" y2="77.5"/><text class="a207fc0a-5bb3-4936-8105-f264f8ba5988" transform="translate(57.62 25.62)">Promedio de los sondeos del 21-D</text><text class="104f9cfe-6cbe-4956-93aa-1940bebc101b" transform="translate(89.13 46.74)">Porcentaje de voto de las encuestas publicadas desde <tspan x="65.88" y="18">el 1 de octubre al 23 de noviembre</tspan></text><polygon class="6cb14ec8-5d73-438d-b00d-d3500b2af510" points="431 478.27 527.44 478.27 527.44 492.93 431 492.93 431 478.27 431 478.27"/><path class="0c2c1f5a-669a-4572-ab0d-485923453dfe" d="M508.36,481.55h-3.7V482l1,.23v6.81a.81.81,0,0,1-.68.35,1.45,1.45,0,0,1-1.2-.88l-.92-1.65a1.91,1.91,0,0,0-1.69-1.14v-.12a2.26,2.26,0,0,0,2.33-2.1c0-1.42-1.29-2-2.78-2h-3.35V482l1.1.23v6.91h0l-1.26.24L494,480.83a4,4,0,0,1-1.13,1l.12.35-2.87,7-.86.23v.46h2.62v-.46l-.85-.22,1-2.56h2.66l.93,2.54-1,.24v.46H501v-.46l-1-.23V486a1.57,1.57,0,0,1,1.42,1l1.26,2.25a2,2,0,0,0,1.82,1.11,1.8,1.8,0,0,0,1.2-.49h2.85a4.28,4.28,0,0,0,4.39-4.16,4.17,4.17,0,0,0-4.47-4.16ZM492.23,486l1.12-3,1.08,3Zm8.23-.62h-.57v-3.1h.71a1.4,1.4,0,0,1,1.45,1.48,1.61,1.61,0,0,1-1.57,1.62Zm7.82,3.83h-1.18v-6.93h1.22c1.89,0,3,1.31,3,3.46s-1.21,3.46-3.08,3.46Z"/><path class="0c2c1f5a-669a-4572-ab0d-485923453dfe" d="M447.71,489.17l-3.07-8.34a3.94,3.94,0,0,1-1.13,1l.12.35-2.85,7-.61.23-.18.46h2.54v-.46l-.85-.22,1-2.56h2.66l.93,2.54-1,.24v.46h3.42v-.46l-.91-.23Zm-4.87-3.2,1.13-3,1.08,3Z"/><polygon class="0c2c1f5a-669a-4572-ab0d-485923453dfe" points="440.39 487.75 440.08 487.58 438.29 489.21 436.75 489.21 436.75 482.25 437.68 482.01 437.68 481.54 434.37 481.54 434.37 482.01 435.3 482.25 435.3 489.15 434.37 489.39 434.37 489.86 439.57 489.86 440.39 487.75 440.39 487.75"/><polygon class="0c2c1f5a-669a-4572-ab0d-485923453dfe" points="454.83 481.54 454.83 482.01 455.83 482.25 453.66 487.81 451.37 482.24 452.45 482.01 452.45 481.54 448.76 481.54 448.76 482.01 449.82 482.24 453.1 490.14 453.45 490.14 456.72 482.25 456.75 482.25 457.77 482.01 457.77 481.54 454.83 481.54 454.83 481.54"/><path class="0c2c1f5a-669a-4572-ab0d-485923453dfe" d="M487.6,481.55V482l1,.24s.07,4.12,0,5.16a2.1,2.1,0,0,1-2.14,2h-.11a2.07,2.07,0,0,1-2.24-2.13v-5.07l1-.22v-.46h-3.34V482l.95.23v5.11a3.07,3.07,0,0,0,3.3,2.91,3,3,0,0,0,3.3-2.91l.06-5.1,1-.24v-.46Z"/><path class="0c2c1f5a-669a-4572-ab0d-485923453dfe" d="M523.7,489.15l-3.06-8.32a3.94,3.94,0,0,1-1.13,1l.12.35-2.86,7-.49.2-.66-.21v-6.94l1-.23v-.46h-3.48V482l1,.24v6.92l-1,.23v.46h5.3v-.46l-.85-.23,1-2.56h2.66l.93,2.54-1,.24v.46h3.43v-.46l-.92-.24ZM518.84,486l1.13-3,1.08,3Z"/><path class="0c2c1f5a-669a-4572-ab0d-485923453dfe" d="M469.75,481.55V482l1,.24.06,5.44-5.21-6.14H463.4V482l1,.22.08,0-.07,6.88h0l-1,.24-3.14-8.56a4,4,0,0,1-1.1,1l.12.35-2.87,7-.86.23v.46h2.62v-.46l-.85-.22,1-2.56h2.66l.93,2.54-1,.24v.46h5.47v-.46l-1-.24-.12-6,6,7h.39l.08-7.9,1-.23v-.46ZM458.44,486l1.13-3,1.08,3Z"/><path class="0c2c1f5a-669a-4572-ab0d-485923453dfe" d="M478.52,485.61v.46l.94.24V489a3.11,3.11,0,0,1-1.88.62c-1.89,0-3.1-1.57-3.1-3.79s1.18-4,3.14-4a3,3,0,0,1,2.78,2.26l.27-.16v-2.62l-.24-.13-.52.64a5.24,5.24,0,0,0-2.3-.59,4.65,4.65,0,0,0-4.66,4.58,4.22,4.22,0,0,0,4,4.43h.3a4.29,4.29,0,0,0,2.68-.89l.73.49h.24V486.3l.79-.3v-.38Z"/><g class="e6698ae3-c2b9-4b6f-af85-ec5a9762afac"><rect class="4cf04b6f-6233-494c-8a04-cf1d5d67ad33" x="196.65" y="266.18" width="42.84" height="181.07"/></g><g class="deb8cb54-9612-4b7d-b6be-e854b229d1a7"><rect class="c17975e7-d06a-4ac7-b3ff-215c802402d3" x="400.58" y="350.6" width="42.84" height="96.65"/></g><g class="deb8cb54-9612-4b7d-b6be-e854b229d1a7"><rect class="6831284a-57fb-482e-839d-58f8e40be4f7" x="267.41" y="288.2" width="42.84" height="159.04"/></g><g class="e6698ae3-c2b9-4b6f-af85-ec5a9762afac"><rect class="ec954e5f-a325-4b5e-923b-e6c2baa06623" x="53" y="130.38" width="42.84" height="316.86"/></g><g class="ece597b3-36fd-4a2b-9e74-123e3f099435"><rect class="c9e8e644-4a87-4c62-9355-42ca71dc845d" x="463.82" y="373.84" width="42.18" height="73.4"/></g><g class="e6698ae3-c2b9-4b6f-af85-ec5a9762afac"><polygon class="49666551-3e10-43cb-b3ad-da0b0bf8e794" points="122.5 207.5 165.5 207.5 165.5 446.5 122.57 446.5 122.5 207.5"/></g><g class="deb8cb54-9612-4b7d-b6be-e854b229d1a7"><rect class="c8cdcb71-0342-4d0e-86fc-3b0f54c68233" x="336.33" y="337.14" width="42.84" height="110.11"/></g><circle class="35c23a1b-b8a5-4eb4-acd6-f0b7bd00e13b" cx="58" cy="119" r="5"/><circle class="35c23a1b-b8a5-4eb4-acd6-f0b7bd00e13b" cx="65" cy="67" r="5"/><circle class="35c23a1b-b8a5-4eb4-acd6-f0b7bd00e13b" cx="70" cy="169" r="5"/><circle class="35c23a1b-b8a5-4eb4-acd6-f0b7bd00e13b" cx="79" cy="159" r="5"/><circle class="35c23a1b-b8a5-4eb4-acd6-f0b7bd00e13b" cx="84" cy="114" r="5"/><circle class="3b730fba-3aed-436b-83b4-ea77b5f16ac2" cx="127.5" cy="208.5" r="5"/><circle class="3b730fba-3aed-436b-83b4-ea77b5f16ac2" cx="135" cy="224" r="5"/><circle class="3b730fba-3aed-436b-83b4-ea77b5f16ac2" cx="142" cy="209" r="5"/><circle class="3b730fba-3aed-436b-83b4-ea77b5f16ac2" cx="152" cy="180" r="5"/><circle class="3b730fba-3aed-436b-83b4-ea77b5f16ac2" cx="151" cy="219" r="5"/><circle class="3b730fba-3aed-436b-83b4-ea77b5f16ac2" cx="155" cy="271" r="5"/><circle class="3b730fba-3aed-436b-83b4-ea77b5f16ac2" cx="162" cy="170" r="5"/><circle class="90950449-7595-4d48-9af8-417e62360d4e" cx="226" cy="221" r="5"/><circle class="a502056a-f5f7-420c-a25e-c664243e0535" cx="273" cy="328" r="5"/><circle class="a502056a-f5f7-420c-a25e-c664243e0535" cx="283" cy="321" r="5"/><circle class="a502056a-f5f7-420c-a25e-c664243e0535" cx="288" cy="315" r="5"/><circle class="a502056a-f5f7-420c-a25e-c664243e0535" cx="293" cy="238" r="5"/><circle class="a502056a-f5f7-420c-a25e-c664243e0535" cx="298" cy="239" r="5"/><circle class="52324e3a-359c-427d-a265-1badd61e45c3" cx="339" cy="310" r="5"/><circle class="52324e3a-359c-427d-a265-1badd61e45c3" cx="344" cy="324" r="5"/><circle class="52324e3a-359c-427d-a265-1badd61e45c3" cx="351" cy="318" r="5"/><circle class="52324e3a-359c-427d-a265-1badd61e45c3" cx="357" cy="351" r="5"/><circle class="52324e3a-359c-427d-a265-1badd61e45c3" cx="364" cy="341" r="5"/><circle class="52324e3a-359c-427d-a265-1badd61e45c3" cx="367" cy="368" r="5"/><circle class="52324e3a-359c-427d-a265-1badd61e45c3" cx="373" cy="347" r="5"/><circle class="56088780-e8f7-44f2-ae0b-050dc4cf4648" cx="412" cy="336" r="5"/><circle class="56088780-e8f7-44f2-ae0b-050dc4cf4648" cx="417" cy="318" r="5"/><circle class="56088780-e8f7-44f2-ae0b-050dc4cf4648" cx="422" cy="352" r="5"/><circle class="56088780-e8f7-44f2-ae0b-050dc4cf4648" cx="427" cy="382" r="5"/><circle class="56088780-e8f7-44f2-ae0b-050dc4cf4648" cx="437" cy="352" r="5"/><circle class="711a226b-080e-47da-9bf8-ec44803b2cb3" cx="478" cy="372" r="5"/><circle class="711a226b-080e-47da-9bf8-ec44803b2cb3" cx="485" cy="382" r="5"/><circle class="711a226b-080e-47da-9bf8-ec44803b2cb3" cx="492" cy="373" r="5"/><circle class="f1204dd7-bd41-4d75-b0e6-81be4aec40b0" cx="496" cy="378" r="5"/><circle class="f1204dd7-bd41-4d75-b0e6-81be4aec40b0" cx="501" cy="382" r="5"/><circle class="711a226b-080e-47da-9bf8-ec44803b2cb3" cx="468" cy="372" r="5"/><circle class="711a226b-080e-47da-9bf8-ec44803b2cb3" cx="473" cy="379" r="5"/><circle class="56088780-e8f7-44f2-ae0b-050dc4cf4648" cx="406" cy="341" r="5"/><circle class="a502056a-f5f7-420c-a25e-c664243e0535" cx="297" cy="281" r="5"/><circle class="a502056a-f5f7-420c-a25e-c664243e0535" cx="303" cy="281" r="5"/><circle class="90950449-7595-4d48-9af8-417e62360d4e" cx="227" cy="266" r="5"/><circle class="90950449-7595-4d48-9af8-417e62360d4e" cx="234" cy="276" r="5"/><circle class="90950449-7595-4d48-9af8-417e62360d4e" cx="200" cy="258" r="5"/><circle class="90950449-7595-4d48-9af8-417e62360d4e" cx="205" cy="304" r="5"/><circle class="90950449-7595-4d48-9af8-417e62360d4e" cx="213" cy="289" r="5"/><circle class="90950449-7595-4d48-9af8-417e62360d4e" cx="218" cy="258" r="5"/><circle class="35c23a1b-b8a5-4eb4-acd6-f0b7bd00e13b" cx="89" cy="154" r="5"/><path class="50681325-bb0e-415e-b66d-795aa8ff1171" d="M303,198s-43.21,29.27-31.1,79.74"/><polygon class="3ec7302a-37be-4cff-8bc0-afb7d9dac76c" points="267.66 275.97 271.65 276.54 274.82 274.06 273.5 283.5 267.66 275.97"/><path class="50681325-bb0e-415e-b66d-795aa8ff1171" d="M278.5,127.5c-.12-.2-123.37-24.72-123.43,31"/><polygon class="3ec7302a-37be-4cff-8bc0-afb7d9dac76c" points="151.3 155.95 155.09 157.31 158.7 155.53 155.5 164.5 151.3 155.95"/></svg>