<svg id="805eaccb-aab8-4e84-90ce-2129da07d729" data-name="Capa 1" xmlns="http://www.w3.org/2000/svg" viewBox="0 0 569 578"><defs><style>.\35 82dc25c-09a7-457d-b794-8257af971a37,.e53832ec-5941-4fef-88ab-f7e2169ea4f7,.f50da205-5b04-4d81-a214-eea21d47b4f3,.ff82abc4-403e-44f7-8e53-41b1aead61e8{fill:none;}.\35 82dc25c-09a7-457d-b794-8257af971a37,.e53832ec-5941-4fef-88ab-f7e2169ea4f7{stroke:#e2e2e2;}.f50da205-5b04-4d81-a214-eea21d47b4f3{stroke:#ccc;}.\30 51e4fee-3ef9-4ef4-8611-6047c9a32445,.\31 1032629-39ec-4fe9-8731-a43c1cc8fdc3,.\33 43a24a6-21b0-4711-b73b-d9d3a4dc96c7,.\33 4b3f48b-054f-49de-b84e-d02a4aa407b2,.\35 9558eb1-9d60-46db-8848-ccc055324a43,.\38 af9e303-4bd7-403a-85ef-d0a93f710101,.bcf4c00b-287f-424c-a358-0b40f9f776a8,.caf2b136-bf60-4110-adde-d6c0e369f2eb,.e53832ec-5941-4fef-88ab-f7e2169ea4f7,.e81ae0ae-e64b-4836-a134-7c667b70393a,.f50da205-5b04-4d81-a214-eea21d47b4f3{opacity:0.25;}.\30 7820734-3906-4591-80ca-74f0d67d4963,.\33 4b3f48b-054f-49de-b84e-d02a4aa407b2,.\33 f910556-e6ea-4491-87be-bbdb23bcb0cd,.\35 1e574df-6e3a-419f-a12b-655d5ae813cb,.d119452f-80d7-48ea-9a6f-8909204fa5ce{fill:#159094;}.\30 51e4fee-3ef9-4ef4-8611-6047c9a32445,.\30 7820734-3906-4591-80ca-74f0d67d4963,.\31 1032629-39ec-4fe9-8731-a43c1cc8fdc3,.\33 43a24a6-21b0-4711-b73b-d9d3a4dc96c7,.\33 4b3f48b-054f-49de-b84e-d02a4aa407b2,.\33 f910556-e6ea-4491-87be-bbdb23bcb0cd,.\35 1e574df-6e3a-419f-a12b-655d5ae813cb,.\35 42832c2-15dd-4da9-9d31-01f4f569bc7b,.\35 9558eb1-9d60-46db-8848-ccc055324a43,.\37 4a533b7-9111-40c0-b14c-c1f3567541b4,.\38 40fb0b0-6e68-461e-8b55-757b7f283192,.\38 af9e303-4bd7-403a-85ef-d0a93f710101,.a39f33fa-0980-47c0-854c-16c0a8ede0de,.bcf4c00b-287f-424c-a358-0b40f9f776a8,.c7187073-fb26-4402-89c1-d947eb2a6518,.caf2b136-bf60-4110-adde-d6c0e369f2eb,.d119452f-80d7-48ea-9a6f-8909204fa5ce,.dd442af6-b468-45a0-8c18-6a48ce63e2cb,.e81ae0ae-e64b-4836-a134-7c667b70393a{fill-opacity:0.9;stroke:#fff;}.\30 51e4fee-3ef9-4ef4-8611-6047c9a32445,.\30 7820734-3906-4591-80ca-74f0d67d4963,.\31 1032629-39ec-4fe9-8731-a43c1cc8fdc3,.\33 43a24a6-21b0-4711-b73b-d9d3a4dc96c7,.\33 4b3f48b-054f-49de-b84e-d02a4aa407b2,.\33 f910556-e6ea-4491-87be-bbdb23bcb0cd,.\35 1e574df-6e3a-419f-a12b-655d5ae813cb,.\35 42832c2-15dd-4da9-9d31-01f4f569bc7b,.\35 9558eb1-9d60-46db-8848-ccc055324a43,.\37 4a533b7-9111-40c0-b14c-c1f3567541b4,.\38 40fb0b0-6e68-461e-8b55-757b7f283192,.\38 af9e303-4bd7-403a-85ef-d0a93f710101,.a39f33fa-0980-47c0-854c-16c0a8ede0de,.bcf4c00b-287f-424c-a358-0b40f9f776a8,.c7187073-fb26-4402-89c1-d947eb2a6518,.caf2b136-bf60-4110-adde-d6c0e369f2eb,.d119452f-80d7-48ea-9a6f-8909204fa5ce,.dd442af6-b468-45a0-8c18-6a48ce63e2cb,.e81ae0ae-e64b-4836-a134-7c667b70393a,.ff82abc4-403e-44f7-8e53-41b1aead61e8{stroke-miterlimit:10;}.\33 f910556-e6ea-4491-87be-bbdb23bcb0cd,.\35 1e574df-6e3a-419f-a12b-655d5ae813cb,.\35 42832c2-15dd-4da9-9d31-01f4f569bc7b,.\37 4a533b7-9111-40c0-b14c-c1f3567541b4,.\38 40fb0b0-6e68-461e-8b55-757b7f283192,.\38 af9e303-4bd7-403a-85ef-d0a93f710101,.c7187073-fb26-4402-89c1-d947eb2a6518,.caf2b136-bf60-4110-adde-d6c0e369f2eb,.e81ae0ae-e64b-4836-a134-7c667b70393a{stroke-width:0.5px;}.\30 7820734-3906-4591-80ca-74f0d67d4963,.\35 1e574df-6e3a-419f-a12b-655d5ae813cb{opacity:0.75;}.\37 3aed84c-4f2d-4737-95eb-2aaf42bca265{font-size:13px;}.\33 ea07980-861e-4abd-b6cf-62088386e275,.\37 3aed84c-4f2d-4737-95eb-2aaf42bca265,.b49017ea-8fc7-41b8-be95-7013fd53d12f,.dffab7fc-d25a-4bfc-8a95-d3cad721ddad{fill:#fff;}.\32 631623b-89c8-4b41-b10f-b1add0951c82,.\33 ea07980-861e-4abd-b6cf-62088386e275,.\37 3aed84c-4f2d-4737-95eb-2aaf42bca265,.\38 24e69f7-ee58-4ebd-af69-a18b0766bf7b,.b49017ea-8fc7-41b8-be95-7013fd53d12f,.dffab7fc-d25a-4bfc-8a95-d3cad721ddad{font-family:ArialMT, Arial;}.\35 42832c2-15dd-4da9-9d31-01f4f569bc7b,.\35 9558eb1-9d60-46db-8848-ccc055324a43,.\38 af9e303-4bd7-403a-85ef-d0a93f710101{fill:#a01f51;}.\33 f910556-e6ea-4491-87be-bbdb23bcb0cd,.\35 42832c2-15dd-4da9-9d31-01f4f569bc7b,.\37 4a533b7-9111-40c0-b14c-c1f3567541b4,.\38 40fb0b0-6e68-461e-8b55-757b7f283192,.c7187073-fb26-4402-89c1-d947eb2a6518,.dd442af6-b468-45a0-8c18-6a48ce63e2cb{opacity:0.8;}.dffab7fc-d25a-4bfc-8a95-d3cad721ddad{font-size:11px;}.\38 24e69f7-ee58-4ebd-af69-a18b0766bf7b,.b49017ea-8fc7-41b8-be95-7013fd53d12f{font-size:12px;}.\30 51e4fee-3ef9-4ef4-8611-6047c9a32445,.\30 7820734-3906-4591-80ca-74f0d67d4963,.\31 1032629-39ec-4fe9-8731-a43c1cc8fdc3,.\33 43a24a6-21b0-4711-b73b-d9d3a4dc96c7,.\33 4b3f48b-054f-49de-b84e-d02a4aa407b2,.\35 9558eb1-9d60-46db-8848-ccc055324a43,.a39f33fa-0980-47c0-854c-16c0a8ede0de,.bcf4c00b-287f-424c-a358-0b40f9f776a8,.d119452f-80d7-48ea-9a6f-8909204fa5ce,.dd442af6-b468-45a0-8c18-6a48ce63e2cb{stroke-width:0.1px;}.bcf4c00b-287f-424c-a358-0b40f9f776a8,.c7187073-fb26-4402-89c1-d947eb2a6518,.dd442af6-b468-45a0-8c18-6a48ce63e2cb{fill:#3f4d78;}.\32 631623b-89c8-4b41-b10f-b1add0951c82,.\33 ea07980-861e-4abd-b6cf-62088386e275{font-size:10px;}.\30 51e4fee-3ef9-4ef4-8611-6047c9a32445{fill:#bfb869;}.\31 1032629-39ec-4fe9-8731-a43c1cc8fdc3,.\37 4a533b7-9111-40c0-b14c-c1f3567541b4,.a39f33fa-0980-47c0-854c-16c0a8ede0de,.caf2b136-bf60-4110-adde-d6c0e369f2eb{fill:#91c43e;}.\33 43a24a6-21b0-4711-b73b-d9d3a4dc96c7,.\38 40fb0b0-6e68-461e-8b55-757b7f283192,.e81ae0ae-e64b-4836-a134-7c667b70393a{fill:#f49e20;}.a39f33fa-0980-47c0-854c-16c0a8ede0de,.d119452f-80d7-48ea-9a6f-8909204fa5ce{opacity:0.5;}.\37 8361ef9-09dc-41c2-ae73-b85e6c092378{isolation:isolate;font-size:10.12px;font-family:ArialMT, Arial MT;}.adb8def4-cf02-433d-8c37-40a7ff6ac145{font-size:19px;fill:#323232;font-family:Arial-BoldMT, Arial;font-weight:700;}.\35 6158657-fea2-4e3f-a20b-d5278d48d365{font-size:17px;}.\32 631623b-89c8-4b41-b10f-b1add0951c82,.\38 24e69f7-ee58-4ebd-af69-a18b0766bf7b{fill:#757575;}.a889685f-7973-4462-b781-538545827dff{letter-spacing:-0.06em;}.d368d68f-98e7-4705-8196-2a32b1c088cc{letter-spacing:-0.07em;}.ff82abc4-403e-44f7-8e53-41b1aead61e8{stroke:#757575;}</style></defs><title>2018.04_Euroescepticismo_2</title><line class="582dc25c-09a7-457d-b794-8257af971a37" x1="9.19" y1="527" x2="9.19" y2="54"/><line class="582dc25c-09a7-457d-b794-8257af971a37" x1="47.96" y1="527" x2="47.96" y2="54"/><line class="582dc25c-09a7-457d-b794-8257af971a37" x1="86.73" y1="527" x2="86.73" y2="54"/><line class="582dc25c-09a7-457d-b794-8257af971a37" x1="125.5" y1="527" x2="125.5" y2="54"/><line class="582dc25c-09a7-457d-b794-8257af971a37" x1="164.27" y1="527" x2="164.27" y2="54"/><line class="582dc25c-09a7-457d-b794-8257af971a37" x1="203.04" y1="527" x2="203.04" y2="54"/><line class="582dc25c-09a7-457d-b794-8257af971a37" x1="241.8" y1="527" x2="241.8" y2="54"/><line class="582dc25c-09a7-457d-b794-8257af971a37" x1="280.57" y1="527" x2="280.57" y2="54"/><line class="582dc25c-09a7-457d-b794-8257af971a37" x1="319.34" y1="527" x2="319.34" y2="54"/><line class="582dc25c-09a7-457d-b794-8257af971a37" x1="358.11" y1="527" x2="358.11" y2="54"/><line class="582dc25c-09a7-457d-b794-8257af971a37" x1="396.88" y1="527" x2="396.88" y2="54"/><line class="582dc25c-09a7-457d-b794-8257af971a37" x1="435.65" y1="527" x2="435.65" y2="54"/><line class="582dc25c-09a7-457d-b794-8257af971a37" x1="474.42" y1="527" x2="474.42" y2="54"/><line class="582dc25c-09a7-457d-b794-8257af971a37" x1="513.5" y1="531" x2="513.5" y2="58"/><line class="f50da205-5b04-4d81-a214-eea21d47b4f3" x1="513.19" y1="495.68" x2="513.19" y2="54"/><path class="f50da205-5b04-4d81-a214-eea21d47b4f3" d="M513.19,495.68V54"/><path class="e53832ec-5941-4fef-88ab-f7e2169ea4f7" d="M9.19,54V527"/><path class="51e574df-6e3a-419f-a12b-655d5ae813cb" d="M9.19,320c19.38,0,19.38,3.38,38.77,3.38s19.38,7.69,38.77,7.69,19.38,3.05,38.77,3.05,19.38.2,38.77.2,19.38,1.46,38.77,1.46,19.38-1.36,38.77-1.36,19.38,2.16,38.77,2.16S300,364,319.34,364s19.38,1,38.77,1,19.38,61.83,38.77,61.83,19.38-.05,38.77-.05S455,300.59,474.42,300.59s19.38,46.1,38.77,46.1v39.17c-19.38,0-19.38-46.1-38.77-46.1s-19.38,88-38.77,88-19.38.05-38.77.05S377.5,366,358.11,366s-19.38-1-38.77-1S300,337.5,280.57,337.5s-19.38-2.16-38.77-2.16S222.42,336.7,203,336.7s-19.38-1.46-38.77-1.46-19.38-.2-38.77-.2S106.11,332,86.73,332,67.34,324.3,48,324.3s-19.38-3.38-38.77-3.38Z"/><text class="73aed84c-4f2d-4737-95eb-2aaf42bca265" transform="translate(470.92 325.7) rotate(16.57) scale(1.1 1)">A</text><text class="73aed84c-4f2d-4737-95eb-2aaf42bca265" transform="matrix(0.83, 0.72, -0.65, 0.76, 478.95, 328.67)">l</text><text class="73aed84c-4f2d-4737-95eb-2aaf42bca265" transform="translate(481.17 330.23) rotate(54.18) scale(1.1 1)">e</text><text class="73aed84c-4f2d-4737-95eb-2aaf42bca265" transform="matrix(0.47, 0.99, -0.91, 0.42, 485.62, 336.31)">m</text><text class="73aed84c-4f2d-4737-95eb-2aaf42bca265" transform="translate(490.51 347.04) rotate(67.16) scale(1.1 1)">a</text><text class="73aed84c-4f2d-4737-95eb-2aaf42bca265" transform="translate(493.6 354.5) rotate(64.54) scale(1.1 1)">n</text><text class="73aed84c-4f2d-4737-95eb-2aaf42bca265" transform="translate(497.36 362.12) rotate(58.75) scale(1.1 1)">i</text><text class="73aed84c-4f2d-4737-95eb-2aaf42bca265" transform="matrix(0.79, 0.76, -0.69, 0.72, 499.6, 366.28)">a</text><path class="542832c2-15dd-4da9-9d31-01f4f569bc7b" d="M9.19,309c19.38,0,19.38-11.32,38.77-11.32s19.38,7.07,38.77,7.07,19.38-23.25,38.77-23.25,19.38-.2,38.77-.2,19.38,10.62,38.77,10.62,19.38-4.56,38.77-4.56,19.38-11.85,38.77-11.85S300,304.8,319.34,304.8s19.38-2.89,38.77-2.89,19.38,59.93,38.77,59.93,19.38.05,38.77.05,19.38,32.48,38.77,32.48S493.8,443,513.19,443v8.77c-19.38,0-19.38-48.65-38.77-48.65S455,370.1,435.65,370.1s-19.38-.05-38.77-.05-19.38-59.93-38.77-59.93S338.73,313,319.34,313,300,284.64,280.57,284.64s-19.38,11.85-38.77,11.85-19.38,4.56-38.77,4.56-19.38-10.62-38.77-10.62-19.38.2-38.77.2-19.38,18.89-38.77,18.89S67.34,302.44,48,302.44s-19.38,9.84-38.77,9.84Z"/><text class="dffab7fc-d25a-4bfc-8a95-d3cad721ddad" transform="translate(119.81 290.55) rotate(-14.39) scale(1.1 1)"> </text><text class="dffab7fc-d25a-4bfc-8a95-d3cad721ddad" transform="translate(122.79 289.77) rotate(-5.42) scale(1.1 1)"> </text><text class="dffab7fc-d25a-4bfc-8a95-d3cad721ddad" transform="matrix(1.1, 0, 0, 1, 125.95, 289.52)"> </text><text class="dffab7fc-d25a-4bfc-8a95-d3cad721ddad" transform="matrix(1.1, 0, 0, 1, 129.32, 289.52)"> </text><text class="b49017ea-8fc7-41b8-be95-7013fd53d12f" transform="translate(132.67 289.51) rotate(-0.31) scale(1.1 1)">A</text><text class="b49017ea-8fc7-41b8-be95-7013fd53d12f" transform="translate(141.41 289.46) rotate(-0.58) scale(1.1 1)">u</text><text class="b49017ea-8fc7-41b8-be95-7013fd53d12f" transform="translate(148.73 289.39) rotate(-0.42) scale(1.1 1)">s</text><text class="b49017ea-8fc7-41b8-be95-7013fd53d12f" transform="translate(155.29 289.34) rotate(-0.22) scale(1.1 1)">t</text><text class="b49017ea-8fc7-41b8-be95-7013fd53d12f" transform="matrix(1.1, 0, 0, 1, 158.94, 289.33)">r</text><text class="b49017ea-8fc7-41b8-be95-7013fd53d12f" transform="translate(163.31 289.32) rotate(-0.01) scale(1.1 1)">i</text><text class="b49017ea-8fc7-41b8-be95-7013fd53d12f" transform="translate(166.08 289.17) rotate(5.48) scale(1.1 1)">a</text><path class="59558eb1-9d60-46db-8848-ccc055324a43" d="M9.19,297.77c19.38,0,19.38,8.53,38.77,8.53s19.38,7.07,38.77,7.07,19.38,1.31,38.77,1.31,19.38,10.63,38.77,10.63,19.38,4.6,38.77,4.6,19.38-5.33,38.77-5.33,19.38,2.95,38.77,2.95,19.38,32.52,38.77,32.52,19.38-15.61,38.77-15.61,19.38,64.81,38.77,64.81,19.38-.7,38.77-.7,19.38,28.07,38.77,28.07,19.38,48.65,38.77,48.65v3.09c-19.38,0-19.38-48.65-38.77-48.65S455,413.28,435.65,413.28s-19.38.7-38.77.7-19.38-64.81-38.77-64.81-19.38,12.6-38.77,12.6S300,330.17,280.57,330.17s-19.38-2.95-38.77-2.95-19.38,5.33-38.77,5.33-19.38-4.6-38.77-4.6-19.38-9.42-38.77-9.42-19.38-1.31-38.77-1.31S67.34,310.15,48,310.15s-19.38-8.53-38.77-8.53Z"/><path class="dd442af6-b468-45a0-8c18-6a48ce63e2cb" d="M9.19,291.79c19.38,0,19.38-.08,38.77-.08s19.38-7.14,38.77-7.14,19.38,6.06,38.77,6.06,19.38-.2,38.77-.2,19.38,16.64,38.77,16.64,19.38-4.56,38.77-4.56,19.38,8.95,38.77,8.95,19.38,28.37,38.77,28.37,19.38,16,38.77,16,19.38,65.33,38.77,65.33,19.38-.7,38.77-.7,19.38,19.26,38.77,19.26,19.38,48.65,38.77,48.65v2.33c-19.38,0-19.38-48.65-38.77-48.65S455,422.78,435.65,422.78s-19.38.7-38.77.7-19.38-65.33-38.77-65.33-19.38-13.39-38.77-13.39S300,316.4,280.57,316.4s-19.38-8.95-38.77-8.95S222.42,312,203,312s-19.38-13.59-38.77-13.59-19.38.2-38.77.2-19.38-6.06-38.77-6.06S67.34,297.69,48,297.69s-19.38.08-38.77.08Z"/><text class="3ea07980-861e-4abd-b6cf-62088386e275" transform="translate(70.64 293.94) rotate(-16.77) scale(1.1 1)"> </text><text class="3ea07980-861e-4abd-b6cf-62088386e275" transform="matrix(1.07, -0.24, 0.22, 0.97, 73.45, 293.09)"> </text><text class="3ea07980-861e-4abd-b6cf-62088386e275" transform="translate(76.29 292.43) rotate(-8.94) scale(1.1 1)"> </text><text class="3ea07980-861e-4abd-b6cf-62088386e275" transform="translate(79.18 291.98) rotate(-5.44) scale(1.1 1)"> </text><text class="dffab7fc-d25a-4bfc-8a95-d3cad721ddad" transform="translate(82.07 291.6) rotate(-0.48) scale(1.1 1)">B</text><text class="dffab7fc-d25a-4bfc-8a95-d3cad721ddad" transform="matrix(1.09, 0.1, -0.09, 1, 89.92, 291.54)">é</text><text class="dffab7fc-d25a-4bfc-8a95-d3cad721ddad" transform="translate(96.44 292.19) rotate(10.03) scale(1.1 1)">l</text><text class="dffab7fc-d25a-4bfc-8a95-d3cad721ddad" transform="matrix(1.06, 0.29, -0.26, 0.97, 98.93, 292.54)">g</text><text class="dffab7fc-d25a-4bfc-8a95-d3cad721ddad" transform="translate(105.32 294.35) rotate(17.32) scale(1.1 1)">i</text><text class="dffab7fc-d25a-4bfc-8a95-d3cad721ddad" transform="matrix(1.06, 0.27, -0.24, 0.97, 108.1, 295.29)">c</text><text class="dffab7fc-d25a-4bfc-8a95-d3cad721ddad" transform="translate(114.56 296.89) rotate(6.17) scale(1.1 1)">a</text><path class="051e4fee-3ef9-4ef4-8611-6047c9a32445" d="M9.19,320c19.38,0,19.38,3.38,38.77,3.38s19.38,7.69,38.77,7.69,19.38,3.05,38.77,3.05,19.38.2,38.77.2,19.38,1.46,38.77,1.46,19.38-1.36,38.77-1.36,19.38,2.16,38.77,2.16S300,364,319.34,364s19.38,1,38.77,1,19.38,61.83,38.77,61.83,19.38-.05,38.77-.05,19.38,19.26,38.77,19.26,19.38,48.65,38.77,48.65v.92c-19.38,0-19.38-48.65-38.77-48.65S455,427.77,435.65,427.77s-19.38.05-38.77.05S377.5,366,358.11,366s-19.38-1-38.77-1S300,337.5,280.57,337.5s-19.38-2.16-38.77-2.16S222.42,336.7,203,336.7s-19.38-1.46-38.77-1.46-19.38-.2-38.77-.2S106.11,332,86.73,332,67.34,324.3,48,324.3s-19.38-3.38-38.77-3.38Z"/><path class="11032629-39ec-4fe9-8731-a43c1cc8fdc3" d="M9.19,320c19.38,0,19.38,3.38,38.77,3.38s19.38,7.69,38.77,7.69,19.38,3.05,38.77,3.05,19.38.2,38.77.2,19.38,1.46,38.77,1.46,19.38-1.36,38.77-1.36,19.38,2.16,38.77,2.16S300,364,319.34,364s19.38,1,38.77,1,19.38,61.83,38.77,61.83,19.38-2,38.77-2,19.38,19.26,38.77,19.26,19.38,48.65,38.77,48.65v.92c-19.38,0-19.38-48.65-38.77-48.65S455,425.81,435.65,425.81s-19.38,2-38.77,2S377.5,366,358.11,366s-19.38-1-38.77-1S300,337.5,280.57,337.5s-19.38-2.16-38.77-2.16S222.42,336.7,203,336.7s-19.38-1.46-38.77-1.46-19.38-.2-38.77-.2S106.11,332,86.73,332,67.34,324.3,48,324.3s-19.38-3.38-38.77-3.38Z"/><path class="8af9e303-4bd7-403a-85ef-d0a93f710101" d="M9.19,301.62c19.38,0,19.38,8.53,38.77,8.53s19.38,7.07,38.77,7.07,19.38,1.31,38.77,1.31h38.77c19.38,0,19.38,1.69,38.77,1.69s19.38-1.44,38.77-1.44,19.38,5.85,38.77,5.85S300,353,319.34,353s19.38-.08,38.77-.08,19.38,31.55,38.77,31.55,19.38-6.86,38.77-6.86,19.38,33.05,38.77,33.05,19.38,48.65,38.77,48.65v6.77c-19.38,0-19.38-48.65-38.77-48.65S455,384.37,435.65,384.37s-19.38,6.86-38.77,6.86-19.38-35.41-38.77-35.41-19.38.08-38.77.08S300,327.53,280.57,327.53s-19.38-5.85-38.77-5.85-19.38,2.23-38.77,2.23-19.38-1.69-38.77-1.69H125.5c-19.38,0-19.38-1.31-38.77-1.31s-19.38-7-38.77-7-19.38-8.53-38.77-8.53Z"/><path class="e81ae0ae-e64b-4836-a134-7c667b70393a" d="M9.19,320c19.38,0,19.38,1.38,38.77,1.38s19.38,7.23,38.77,7.23,19.38,1.31,38.77,1.31,19.38.2,38.77.2S183.65,327,203,327s19.38-5.33,38.77-5.33,19.38,13.76,38.77,13.76S300,362.9,319.34,362.9s19.38,1.54,38.77,1.54S377.5,426,396.88,426s19.38-35.26,38.77-35.26,19.38,26.72,38.77,26.72,19.38,48.65,38.77,48.65v6.16c-19.38,0-19.38-48.65-38.77-48.65S455,396.86,435.65,396.86,416.26,427,396.88,427s-19.38-61.52-38.77-61.52-19.38-1.54-38.77-1.54S300,336.45,280.57,336.45s-19.38-11.86-38.77-11.86-19.38,5.33-38.77,5.33-19.38,2-38.77,2-19.38-.2-38.77-.2-19.38-1.31-38.77-1.31S67.34,323.19,48,323.19s-19.38-2.26-38.77-2.26Z"/><path class="343a24a6-21b0-4711-b73b-d9d3a4dc96c7" d="M9.19,320c19.38,0,19.38,3.38,38.77,3.38s19.38,7.69,38.77,7.69,19.38,3.05,38.77,3.05,19.38.2,38.77.2,19.38,1,38.77,1,19.38-1.07,38.77-1.07,19.38,2.36,38.77,2.36S300,364,319.34,364s19.38.84,38.77.84,19.38,61.52,38.77,61.52,19.38.06,38.77.06,19.38,19.26,38.77,19.26,19.38,48.65,38.77,48.65v.92c-19.38,0-19.38-48.65-38.77-48.65S455,427.38,435.65,427.38s-19.38-.06-38.77-.06-19.38-61.52-38.77-61.52-19.38-.84-38.77-.84S300,337.5,280.57,337.5s-19.38-2.36-38.77-2.36-19.38,1.07-38.77,1.07-19.38-1-38.77-1-19.38-.2-38.77-.2S106.11,332,86.73,332,67.34,324.3,48,324.3s-19.38-3.38-38.77-3.38Z"/><path class="59558eb1-9d60-46db-8848-ccc055324a43" d="M9.19,320c19.38,0,19.38,3.38,38.77,3.38s19.38,7.69,38.77,7.69,19.38,3.05,38.77,3.05,19.38.2,38.77.2,19.38,1.46,38.77,1.46,19.38-8.56,38.77-8.56,19.38,2.95,38.77,2.95S300,355.9,319.34,355.9s19.38,2.26,38.77,2.26,19.38,65.33,38.77,65.33,19.38-.7,38.77-.7S455,442,474.42,442s19.38,48.65,38.77,48.65v1.23c-19.38,0-19.38-48.65-38.77-48.65S455,424,435.65,424s-19.38.94-38.77.94-19.38-64.57-38.77-64.57-19.38-2.26-38.77-2.26S300,332.4,280.57,332.4s-19.38-2.95-38.77-2.95S222.42,336.7,203,336.7s-19.38-1.46-38.77-1.46-19.38-.2-38.77-.2S106.11,332,86.73,332,67.34,324.3,48,324.3s-19.38-3.38-38.77-3.38Z"/><path class="59558eb1-9d60-46db-8848-ccc055324a43" d="M9.19,321c19.38,0,19.38,3.38,38.77,3.38s19.38,7.69,38.77,7.69,19.38,3.05,38.77,3.05,19.38.2,38.77.2,19.38,1.46,38.77,1.46,19.38-1.36,38.77-1.36,19.38,2.16,38.77,2.16S300,365,319.34,365s19.38,1,38.77,1,19.38,61.63,38.77,61.63,19.38.06,38.77.06S455,447,474.42,447s19.35,48.65,38.77,48.65v.92C493.8,496.6,493.8,448,474.42,448S455,428.69,435.65,428.69s-19.38-.06-38.77-.06S377.5,367,358.11,367s-19.38-1-38.77-1S300,338.5,280.57,338.5s-19.38-2.16-38.77-2.16S222.42,337.7,203,337.7s-19.38-1.46-38.77-1.46-19.38-.2-38.77-.2S106.11,333,86.73,333,67.34,325.3,48,325.3s-19.38-3.38-38.77-3.38Z"/><path class="11032629-39ec-4fe9-8731-a43c1cc8fdc3" d="M9.19,320c19.38,0,19.38,3.38,38.77,3.38S67.34,331,86.73,331s19.38,2.35,38.77,2.35,19.38.2,38.77.2,19.38,1,38.77,1,19.38-22.6,38.77-22.6,19.38,8.95,38.77,8.95,19.38,28.37,38.77,28.37,19.38-.08,38.77-.08,19.38,68.48,38.77,68.48,19.38-.7,38.77-.7,19.38,16.17,38.77,16.17,19.38,48.65,38.77,48.65v3.49c-19.38,0-19.38-48.65-38.77-48.65S455,420.45,435.65,420.45s-19.38.7-38.77.7-19.38-68.24-38.77-68.24-19.38.08-38.77.08S300,324.62,280.57,324.62s-19.38-8.95-38.77-8.95S222.42,335.46,203,335.46s-19.38-1-38.77-1-19.38-.2-38.77-.2-19.38-2.35-38.77-2.35S67.34,324.26,48,324.26s-19.38-3.38-38.77-3.38Z"/><path class="c7187073-fb26-4402-89c1-d947eb2a6518" d="M9.19,320c19.38,0,19.38,3.38,38.77,3.38s19.38-2.46,38.77-2.46,19.38,1.31,38.77,1.31h38.77c19.38,0,19.38,1.69,38.77,1.69s19.38-8.24,38.77-8.24,19.38-10,38.77-10S300,334,319.34,334s19.38,4.62,38.77,4.62,19.38,64.81,38.77,64.81,19.38-.7,38.77-.7,19.38-41.08,38.77-41.08,19.38,48.65,38.77,48.65v12.3C493.8,422.6,493.8,374,474.42,374s-19.38,34.6-38.77,34.6-19.38.7-38.77.7-19.38-64.81-38.77-64.81-19.38-4.62-38.77-4.62S300,311.46,280.57,311.46s-19.38,7.31-38.77,7.31S222.42,327,203,327s-19.38-1.69-38.77-1.69H125.5c-19.38,0-19.38-1.31-38.77-1.31s-19.38.28-38.77.28-19.38-3.38-38.77-3.38Z"/><path class="07820734-3906-4591-80ca-74f0d67d4963" d="M9.19,315.25c19.38,0,19.38-1.37,38.77-1.37s19.38-14.82,38.77-14.82,19.38,6.06,38.77,6.06,19.38-.2,38.77-.2,19.38-3.88,38.77-3.88,19.38-4.56,38.77-4.56,19.38-11.85,38.77-11.85S300,313,319.34,313s19.38-2.89,38.77-2.89,19.38,87.45,38.77,87.45,19.38-.7,38.77-.7,19.38,26.72,38.77,26.72,19.38,48.65,38.77,48.65v5.88c-19.38,0-19.38-48.65-38.77-48.65S455,402.74,435.65,402.74s-19.38.7-38.77.7-19.38-85.55-38.77-85.55-19.38,2.89-38.77,2.89S300,292.4,280.57,292.4s-19.38,10.11-38.77,10.11-19.38,4.56-38.77,4.56-19.38,3.88-38.77,3.88-19.38-.12-38.77-.12-19.38-6.06-38.77-6.06-19.38,12-38.77,12-19.38,1.37-38.77,1.37Z"/><text class="3ea07980-861e-4abd-b6cf-62088386e275" transform="translate(201.6 308.06) rotate(-0.27) scale(1.1 1)"> </text><text class="3ea07980-861e-4abd-b6cf-62088386e275" transform="matrix(1.09, -0.03, 0.03, 1, 204.76, 308.05)"> </text><text class="3ea07980-861e-4abd-b6cf-62088386e275" transform="translate(207.98 307.95) rotate(-3.78) scale(1.1 1)"> </text><text class="3ea07980-861e-4abd-b6cf-62088386e275" transform="translate(211.22 307.74) rotate(-6.39) scale(1.1 1)"> </text><text class="3ea07980-861e-4abd-b6cf-62088386e275" transform="translate(214.49 307.37) rotate(-9.38) scale(1.1 1)"> </text><text class="3ea07980-861e-4abd-b6cf-62088386e275" transform="translate(217.7 306.83) rotate(-12.06) scale(1.1 1)"> </text><text class="3ea07980-861e-4abd-b6cf-62088386e275" transform="matrix(1.07, -0.25, 0.23, 0.97, 220.74, 306.17)"> </text><text class="3ea07980-861e-4abd-b6cf-62088386e275" transform="translate(223.66 305.47) rotate(-12.38) scale(1.1 1)"> </text><text class="3ea07980-861e-4abd-b6cf-62088386e275" transform="matrix(1.08, -0.19, 0.18, 0.98, 226.57, 304.83)"> </text><text class="3ea07980-861e-4abd-b6cf-62088386e275" transform="translate(229.47 304.31) rotate(-7.4) scale(1.1 1)"> </text><text class="3ea07980-861e-4abd-b6cf-62088386e275" transform="translate(232.43 303.92) rotate(-4.85) scale(1.1 1)"> </text><text class="3ea07980-861e-4abd-b6cf-62088386e275" transform="matrix(1.09, -0.05, 0.05, 1, 235.41, 303.67)"> </text><text class="3ea07980-861e-4abd-b6cf-62088386e275" transform="translate(238.36 303.53) rotate(-0.95) scale(1.1 1)"> </text><text class="3ea07980-861e-4abd-b6cf-62088386e275" transform="translate(241.51 303.52) rotate(-1.54) scale(1.1 1)"> </text><text class="3ea07980-861e-4abd-b6cf-62088386e275" transform="translate(244.93 303.41) rotate(-6.58) scale(1.1 1)"> </text><text class="3ea07980-861e-4abd-b6cf-62088386e275" transform="translate(248.49 302.98) rotate(-13.05) scale(1.1 1)"> </text><text class="3ea07980-861e-4abd-b6cf-62088386e275" transform="translate(252.03 302.12) rotate(-20.46) scale(1.1 1)"> </text><text class="3ea07980-861e-4abd-b6cf-62088386e275" transform="matrix(0.98, -0.5, 0.46, 0.89, 255.36, 300.83)"> </text><text class="3ea07980-861e-4abd-b6cf-62088386e275" transform="translate(258.33 299.29) rotate(-30.87) scale(1.1 1)"> </text><text class="3ea07980-861e-4abd-b6cf-62088386e275" transform="matrix(0.94, -0.57, 0.52, 0.86, 260.97, 297.69)"> </text><text class="3ea07980-861e-4abd-b6cf-62088386e275" transform="matrix(0.96, -0.52, 0.48, 0.88, 263.47, 296.16)"> </text><text class="3ea07980-861e-4abd-b6cf-62088386e275" transform="matrix(1, -0.44, 0.4, 0.92, 266.03, 294.76)"> </text><text class="3ea07980-861e-4abd-b6cf-62088386e275" transform="translate(268.63 293.61) rotate(-17.94) scale(1.1 1)"> </text><text class="3ea07980-861e-4abd-b6cf-62088386e275" transform="translate(271.36 292.72) rotate(-12.19) scale(1.1 1)"> </text><text class="3ea07980-861e-4abd-b6cf-62088386e275" transform="translate(274.18 292.1) rotate(-6.98) scale(1.1 1)"> </text><text class="3ea07980-861e-4abd-b6cf-62088386e275" transform="translate(277.08 291.75) rotate(-2.55) scale(1.1 1)"> </text><text class="3ea07980-861e-4abd-b6cf-62088386e275" transform="matrix(1.09, 0.05, -0.05, 1, 279.95, 291.59)"> </text><text class="3ea07980-861e-4abd-b6cf-62088386e275" transform="translate(282.7 291.69) rotate(11.7) scale(1.1 1)"> </text><text class="3ea07980-861e-4abd-b6cf-62088386e275" transform="translate(285.39 292.22) rotate(21.5) scale(1.1 1)"> </text><text class="3ea07980-861e-4abd-b6cf-62088386e275" transform="translate(287.97 293.21) rotate(31.07) scale(1.1 1)"> </text><text class="3ea07980-861e-4abd-b6cf-62088386e275" transform="matrix(0.85, 0.7, -0.64, 0.77, 290.37, 294.64)"> </text><text class="3ea07980-861e-4abd-b6cf-62088386e275" transform="translate(292.55 296.44) rotate(46.03) scale(1.1 1)"> </text><text class="3ea07980-861e-4abd-b6cf-62088386e275" transform="translate(294.57 298.53) rotate(50.84) scale(1.1 1)"> </text><text class="3ea07980-861e-4abd-b6cf-62088386e275" transform="translate(296.42 300.81) rotate(53.91) scale(1.1 1)"> </text><text class="3ea07980-861e-4abd-b6cf-62088386e275" transform="matrix(0.62, 0.9, -0.82, 0.57, 298.19, 303.24)"> </text><text class="3ea07980-861e-4abd-b6cf-62088386e275" transform="translate(299.89 305.73) rotate(55.49) scale(1.1 1)"> </text><text class="3ea07980-861e-4abd-b6cf-62088386e275" transform="matrix(0.64, 0.89, -0.81, 0.59, 301.67, 308.33)"> </text><text class="3ea07980-861e-4abd-b6cf-62088386e275" transform="translate(303.63 311.02) rotate(50.37) scale(1.1 1)"> </text><text class="3ea07980-861e-4abd-b6cf-62088386e275" transform="translate(305.92 313.76) rotate(43.92) scale(1.1 1)"> </text><text class="3ea07980-861e-4abd-b6cf-62088386e275" transform="translate(308.78 316.43) rotate(33.34) scale(1.1 1)"> </text><text class="3ea07980-861e-4abd-b6cf-62088386e275" transform="translate(312.42 318.65) rotate(18.62) scale(1.1 1)"> </text><text class="3ea07980-861e-4abd-b6cf-62088386e275" transform="translate(316.47 319.85) rotate(4.1) scale(1.1 1)"> </text><text class="3ea07980-861e-4abd-b6cf-62088386e275" transform="translate(319.88 320.01) rotate(-0.65) scale(1.1 1)"> </text><text class="3ea07980-861e-4abd-b6cf-62088386e275" transform="translate(323 319.97) rotate(-1.84) scale(1.1 1)"> </text><text class="3ea07980-861e-4abd-b6cf-62088386e275" transform="translate(326.29 319.94) rotate(-4.91) scale(1.1 1)">G</text><text class="3ea07980-861e-4abd-b6cf-62088386e275" transform="translate(335.04 319.1) rotate(-8.19) scale(1.1 1)">r</text><text class="3ea07980-861e-4abd-b6cf-62088386e275" transform="translate(338.61 318.55) rotate(-7.84) scale(1.1 1)">e</text><text class="3ea07980-861e-4abd-b6cf-62088386e275" transform="translate(344.56 317.73) rotate(-4.7) scale(1.1 1)">c</text><text class="3ea07980-861e-4abd-b6cf-62088386e275" transform="matrix(1.09, -0.05, 0.05, 1, 349.93, 317.32)">i</text><text class="3ea07980-861e-4abd-b6cf-62088386e275" transform="matrix(1.1, -0.02, 0.02, 1, 352.31, 317.18)">a</text><path class="74a533b7-9111-40c0-b14c-c1f3567541b4" d="M9.19,256.26c19.38,0,19.38,13.8,38.77,13.8s19.38-.64,38.77-.64,19.38-3.05,38.77-3.05,19.38-.2,38.77-.2,19.38-18.64,38.77-18.64S222.42,243,241.8,243s19.38-2.16,38.77-2.16,19.38,30.47,38.77,30.47,19.38-1,38.77-1,19.38,59.93,38.77,59.93,19.38.05,38.77.05,19.38,9.54,38.77,9.54,19.38,46.1,38.77,46.1V410.3c-19.38,0-19.38-48.65-38.77-48.65s-19.38-9.54-38.77-9.54-19.38-.05-38.77-.05-19.38-59.93-38.77-59.93S338.73,295,319.34,295,300,264.55,280.57,264.55s-19.38,2.16-38.77,2.16-19.38,4.56-38.77,4.56-19.38,10.05-38.77,10.05-19.38.2-38.77.2-19.38,3.05-38.77,3.05-19.38.64-38.77.64S28.58,271.63,9.19,271.63Z"/><text class="73aed84c-4f2d-4737-95eb-2aaf42bca265" transform="translate(224.11 260.67) rotate(-3.04) scale(1.1 1)">H</text><text class="73aed84c-4f2d-4737-95eb-2aaf42bca265" transform="translate(235.19 259.96) rotate(-11.37) scale(1.1 1)">u</text><text class="73aed84c-4f2d-4737-95eb-2aaf42bca265" transform="translate(243.01 258.23) rotate(-11.77) scale(1.1 1)">n</text><text class="73aed84c-4f2d-4737-95eb-2aaf42bca265" transform="matrix(1.09, -0.1, 0.09, 1, 250.53, 256.65)">g</text><text class="73aed84c-4f2d-4737-95eb-2aaf42bca265" transform="matrix(1.1, -0.02, 0.02, 1, 258.25, 256.03)">r</text><text class="73aed84c-4f2d-4737-95eb-2aaf42bca265" transform="matrix(1.1, -0.01, 0.01, 1, 262.96, 255.98)">í</text><text class="73aed84c-4f2d-4737-95eb-2aaf42bca265" transform="translate(267.1 255.98) rotate(-2.52) scale(1.1 1)">a</text><path class="bcf4c00b-287f-424c-a358-0b40f9f776a8" d="M9.19,320c19.38,0,19.38,3.38,38.77,3.38s19.38,7.69,38.77,7.69,19.38,3.05,38.77,3.05,19.38.2,38.77.2,19.38,1.46,38.77,1.46,19.38-1.36,38.77-1.36,19.38,2.16,38.77,2.16S300,364,319.34,364s19.38,1,38.77,1,19.38,61.83,38.77,61.83,19.38-1.25,38.77-1.25,19.38,19.26,38.77,19.26,19.38,48.65,38.77,48.65v.92c-19.38,0-19.38-48.65-38.77-48.65S455,426.58,435.65,426.58s-19.38,1.25-38.77,1.25S377.5,366,358.11,366s-19.38-1-38.77-1S300,337.5,280.57,337.5s-19.38-2.16-38.77-2.16S222.42,336.7,203,336.7s-19.38-1.46-38.77-1.46-19.38-.2-38.77-.2S106.11,332,86.73,332,67.34,324.3,48,324.3s-19.38-3.38-38.77-3.38Z"/><path class="c7187073-fb26-4402-89c1-d947eb2a6518" d="M9.19,320c19.38,0,19.38,3.38,38.77,3.38s19.38,7.69,38.77,7.69,19.38,3.05,38.77,3.05,19.38.2,38.77.2,19.38,1.46,38.77,1.46,19.38-1.36,38.77-1.36,19.38,2.16,38.77,2.16S300,184.74,319.34,184.74s19.38-1,38.77-1,19.38,41.56,38.77,41.56,19.38.05,38.77.05,19.38-29.63,38.77-29.63S493.8,54,513.19,54V206.67c-19.38,0-19.38,46.93-38.77,46.93S455,283.23,435.65,283.23s-19.38-.05-38.77-.05-19.38-41.56-38.77-41.56-19.38,1-38.77,1S300,337.5,280.57,337.5s-19.38-2.16-38.77-2.16S222.42,336.7,203,336.7s-19.38-1.46-38.77-1.46-19.38-.2-38.77-.2S106.11,332,86.73,332,67.34,324.3,48,324.3s-19.38-3.38-38.77-3.38Z"/><text class="73aed84c-4f2d-4737-95eb-2aaf42bca265" transform="translate(322.33 218.74) rotate(-0.19) scale(1.1 1)">I</text><text class="73aed84c-4f2d-4737-95eb-2aaf42bca265" transform="translate(326.27 218.73) rotate(-0.73) scale(1.1 1)">t</text><text class="73aed84c-4f2d-4737-95eb-2aaf42bca265" transform="translate(330.18 218.7) rotate(-1.85) scale(1.1 1)">a</text><text class="73aed84c-4f2d-4737-95eb-2aaf42bca265" transform="translate(338.06 218.42) rotate(-2.93) scale(1.1 1)">l</text><text class="73aed84c-4f2d-4737-95eb-2aaf42bca265" transform="translate(341.23 218.26) rotate(-3.07) scale(1.1 1)">i</text><text class="73aed84c-4f2d-4737-95eb-2aaf42bca265" transform="translate(344.35 218.06) rotate(-2.2) scale(1.1 1)">a</text><path class="34b3f48b-054f-49de-b84e-d02a4aa407b2" d="M9.19,320c19.38,0,19.38,3,38.77,3s19.38,7.23,38.77,7.23,19.38,2.35,38.77,2.35,19.38.2,38.77.2,19.38,3,38.77,3,19.38-2.31,38.77-2.31,19.38,2.91,38.77,2.91,19.38,27.45,38.77,27.45,19.38-.4,38.77-.4S377.5,425,396.88,425s19.38-.94,38.77-.94,19.38,19.26,38.77,19.26,19.38,48.65,38.77,48.65v1c-19.38,0-19.38-48.65-38.77-48.65S455,425,435.65,425s-19.38.94-38.77.94-19.38-61.52-38.77-61.52-19.38.31-38.77.31S300,337.3,280.57,337.3s-19.38-2.91-38.77-2.91S222.42,336.7,203,336.7s-19.38-3-38.77-3-19.38-.2-38.77-.2-19.38-2.35-38.77-2.35S67.34,324,48,324s-19.38-3-38.77-3Z"/><path class="d119452f-80d7-48ea-9a6f-8909204fa5ce" d="M9.19,322c19.38,0,19.38,3.38,38.77,3.38s19.38,7.69,38.77,7.69,19.38.65,38.77.65,19.38.2,38.77.2,19.38,1.75,38.77,1.75,19.38-1.17,38.77-1.17,19.38,4.08,38.77,4.08S300,366,319.34,366s19.38,1,38.77,1,19.38,61.83,38.77,61.83,19.38-.8,38.77-.8,19.38,19.26,38.77,19.26S493.8,496,513.19,496v.92c-19.38,0-19.38-48.65-38.77-48.65S455,429,435.65,429s-19.38.8-38.77.8S377.5,368,358.11,368s-19.38-1-38.77-1S300,339.5,280.57,339.5s-19.38-4-38.77-4-19.38,1.17-38.77,1.17S183.65,335,164.27,335s-19.38-.2-38.77-.2S106.11,334,86.73,334,67.34,326.3,48,326.3s-19.38-3.38-38.77-3.38Z"/><path class="840fb0b0-6e68-461e-8b55-757b7f283192" d="M9.19,305.35c19.38,0,19.38-2.9,38.77-2.9s19.38,7.07,38.77,7.07,19.38,1.31,38.77,1.31,19.38.12,38.77.12,19.38-28.7,38.77-28.7,19.38-4.56,38.77-4.56,19.38,21.63,38.77,21.63,19.38,28.37,38.77,28.37,19.38,4.62,38.77,4.62,19.38,58.93,38.77,58.93,19.38-6.86,38.77-6.86S455,374,474.42,374s19.38,48.65,38.77,48.65V433c-19.38,0-19.38-48.65-38.77-48.65S455,390.7,435.65,390.7s-19.38,6.86-38.77,6.86-19.38-58.93-38.77-58.93S338.73,334,319.34,334,300,305.65,280.57,305.65s-19.38-18.27-38.77-18.27-19.38,4.56-38.77,4.56-19.38,22.87-38.77,22.87-19.38-.12-38.77-.12-19.38-1.31-38.77-1.31S67.34,306.31,48,306.31,28.58,309,9.19,309Z"/><text class="b49017ea-8fc7-41b8-be95-7013fd53d12f" transform="translate(194.85 292.66) rotate(-12.91) scale(1.1 1)">P</text><text class="b49017ea-8fc7-41b8-be95-7013fd53d12f" transform="matrix(1.09, -0.04, 0.04, 1, 203.2, 291.31)">a</text><text class="b49017ea-8fc7-41b8-be95-7013fd53d12f" transform="translate(210.88 290.97) rotate(-6.35) scale(1.1 1)">í</text><text class="b49017ea-8fc7-41b8-be95-7013fd53d12f" transform="translate(214.97 290.56) rotate(-11.32) scale(1.1 1)">s</text><text class="b49017ea-8fc7-41b8-be95-7013fd53d12f" transform="translate(221.49 289.15) rotate(-12.44) scale(1.1 1)">e</text><text class="b49017ea-8fc7-41b8-be95-7013fd53d12f" transform="matrix(1.09, -0.13, 0.12, 0.99, 228.46, 287.6)">s</text><text class="b49017ea-8fc7-41b8-be95-7013fd53d12f" transform="translate(234.84 286.9) rotate(-2.87) scale(1.1 1)"> </text><text class="b49017ea-8fc7-41b8-be95-7013fd53d12f" transform="translate(238.32 286.55) rotate(2.03) scale(1.1 1)">B</text><text class="b49017ea-8fc7-41b8-be95-7013fd53d12f" transform="matrix(1.01, 0.42, -0.38, 0.92, 246.45, 286.79)">a</text><text class="b49017ea-8fc7-41b8-be95-7013fd53d12f" transform="translate(252.71 289.62) rotate(35.57) scale(1.1 1)">j</text><text class="b49017ea-8fc7-41b8-be95-7013fd53d12f" transform="translate(254.94 291.02) rotate(44.66) scale(1.1 1)">o</text><text class="b49017ea-8fc7-41b8-be95-7013fd53d12f" transform="translate(259.98 296.17) rotate(47.86) scale(1.1 1)">s</text><path class="542832c2-15dd-4da9-9d31-01f4f569bc7b" d="M9.19,228.76c19.38,0,19.38-3.38,38.77-3.38s19.38-7.69,38.77-7.69,19.38-3.05,38.77-3.05,19.38-.2,38.77-.2S183.65,213,203,213s19.38,1.36,38.77,1.36,19.38-2.16,38.77-2.16,19.38,30.47,38.77,30.47,19.38-1,38.77-1,19.38,41.56,38.77,41.56,19.38.05,38.77.05S455,253.6,474.42,253.6s19.38,46.1,38.77,46.1v47c-19.38,0-19.38-46.1-38.77-46.1S455,330.22,435.65,330.22s-19.38-.05-38.77-.05-19.38-59.93-38.77-59.93-19.38,1-38.77,1S300,240.81,280.57,240.81,261.19,243,241.8,243s-19.38,4.56-38.77,4.56S183.65,249,164.27,249s-19.38.2-38.77.2-19.38,3.05-38.77,3.05-19.38.64-38.77.64-19.38,3.38-38.77,3.38Z"/><path class="34b3f48b-054f-49de-b84e-d02a4aa407b2" d="M9.19,318.16c19.38,0,19.38-1.37,38.77-1.37S67.34,324,86.73,324s19.38,1.31,38.77,1.31,19.38-10.52,38.77-10.52,19.38,1.69,38.77,1.69,19.38,13,38.77,13,19.38,2.95,38.77,2.95,19.38,25.73,38.77,25.73,19.38,2.26,38.77,2.26S377.5,414,396.88,414s19.38-.7,38.77-.7,19.38,16.17,38.77,16.17,19.38,48.65,38.77,48.65v3.67c-19.38,0-19.38-48.65-38.77-48.65S455,417,435.65,417s-19.38.7-38.77.7-19.38-55.35-38.77-55.35-19.38-2.26-38.77-2.26S300,334.33,280.57,334.33s-19.38-2.95-38.77-2.95S222.42,320.21,203,320.21s-19.38-1.69-38.77-1.69-19.38,9.23-38.77,9.23-19.38-1.31-38.77-1.31S67.34,319.22,48,319.22s-19.38,1.37-38.77,1.37Z"/><path class="840fb0b0-6e68-461e-8b55-757b7f283192" d="M9.19,285.29c19.38,0,19.38-.08,38.77-.08s19.38,7.35,38.77,7.35,19.38,6.06,38.77,6.06,19.38-.2,38.77-.2,19.38,34.12,38.77,34.12,19.38-1.17,38.77-1.17,19.38,2.95,38.77,2.95,19.38,27.45,38.77,27.45,19.38.53,38.77.53,19.38-240.45,38.77-240.45,19.38.05,38.77.05,19.38-19.26,38.77-19.26,19.38,104,38.77,104v93c-19.38,0-19.38-104-38.77-104S455,225.31,435.65,225.31s-19.38-.05-38.77-.05S377.5,363.43,358.11,363.43s-19.38-.53-38.77-.53S300,335.45,280.57,335.45s-19.38-2.95-38.77-2.95-19.38,1.17-38.77,1.17-19.38-28.74-38.77-28.74-19.38.2-38.77.2-19.38-6.06-38.77-6.06S67.34,291.71,48,291.71s-19.38.08-38.77.08Z"/><text class="73aed84c-4f2d-4737-95eb-2aaf42bca265" transform="matrix(1.1, 0, 0, 1, 399.53, 173.86)">R</text><text class="73aed84c-4f2d-4737-95eb-2aaf42bca265" transform="matrix(1.1, 0, 0, 1, 409.81, 173.87)">e</text><text class="73aed84c-4f2d-4737-95eb-2aaf42bca265" transform="matrix(1.1, 0, 0, 1, 417.74, 173.89)">i</text><text class="73aed84c-4f2d-4737-95eb-2aaf42bca265" transform="matrix(1.1, 0, 0, 1, 420.9, 173.9)">n</text><text class="73aed84c-4f2d-4737-95eb-2aaf42bca265" transform="matrix(1.1, 0, 0, 1, 428.83, 173.91)">o</text><text class="73aed84c-4f2d-4737-95eb-2aaf42bca265" transform="translate(437.61 173.92) rotate(-8.75) scale(1.1 1)"> </text><text class="73aed84c-4f2d-4737-95eb-2aaf42bca265" transform="matrix(0.9, -0.62, 0.57, 0.82, 444.24, 172.98)">U</text><text class="73aed84c-4f2d-4737-95eb-2aaf42bca265" transform="translate(453.15 166.13) rotate(-44.58) scale(1.1 1)">n</text><text class="73aed84c-4f2d-4737-95eb-2aaf42bca265" transform="matrix(0.85, -0.69, 0.63, 0.78, 458.68, 160.75)">i</text><text class="73aed84c-4f2d-4737-95eb-2aaf42bca265" transform="translate(460.62 158.77) rotate(-27.07) scale(1.1 1)">d</text><text class="73aed84c-4f2d-4737-95eb-2aaf42bca265" transform="translate(467.05 155.39) rotate(-7.58) scale(1.1 1)">o</text><path class="3f910556-e6ea-4491-87be-bbdb23bcb0cd" d="M9.19,271.63c19.38,0,19.38-18.75,38.77-18.75s19.38-.64,38.77-.64,19.38-3.05,38.77-3.05,19.38-.2,38.77-.2,19.38,22.27,38.77,22.27,19.38-4.56,38.77-4.56,19.38-2.16,38.77-2.16S300,295,319.34,295s19.38-2.89,38.77-2.89,19.38,59.93,38.77,59.93,19.38.05,38.77.05,19.38,32.24,38.77,32.24S493.8,433,513.19,433v10c-19.38,0-19.38-48.65-38.77-48.65S455,361.89,435.65,361.89s-19.38-.05-38.77-.05-19.38-59.93-38.77-59.93-19.38,2.89-38.77,2.89S300,275.53,280.57,275.53s-19.38,2.16-38.77,2.16-19.38,4.56-38.77,4.56-19.38-16.08-38.77-16.08-19.38.2-38.77.2-19.38,3.05-38.77,3.05-19.38.64-38.77.64S28.58,285.29,9.19,285.29Z"/><text class="73aed84c-4f2d-4737-95eb-2aaf42bca265" transform="translate(52.15 265.9) rotate(-0.86) scale(1.1 1)">R</text><text class="73aed84c-4f2d-4737-95eb-2aaf42bca265" transform="translate(62.39 265.72) rotate(-1.88) scale(1.1 1)">e</text><text class="73aed84c-4f2d-4737-95eb-2aaf42bca265" transform="translate(70.29 265.45) rotate(-1.27) scale(1.1 1)">p</text><text class="73aed84c-4f2d-4737-95eb-2aaf42bca265" transform="translate(78.18 265.28) rotate(-0.35) scale(1.1 1)">ú</text><text class="73aed84c-4f2d-4737-95eb-2aaf42bca265" transform="translate(86.19 265.29) rotate(-1.2) scale(1.1 1)">b</text><text class="73aed84c-4f2d-4737-95eb-2aaf42bca265" transform="translate(94.38 265.06) rotate(-4.01) scale(1.1 1)">l</text><text class="73aed84c-4f2d-4737-95eb-2aaf42bca265" transform="matrix(1.09, -0.12, 0.11, 0.99, 97.74, 264.82)">i</text><text class="73aed84c-4f2d-4737-95eb-2aaf42bca265" transform="translate(101.14 264.48) rotate(-8.77) scale(1.1 1)">c</text><text class="73aed84c-4f2d-4737-95eb-2aaf42bca265" transform="translate(108.08 263.33) rotate(-6.64) scale(1.1 1)">a</text><text class="73aed84c-4f2d-4737-95eb-2aaf42bca265" transform="matrix(1.09, -0.06, 0.06, 1, 115.81, 262.49)"> </text><text class="73aed84c-4f2d-4737-95eb-2aaf42bca265" transform="translate(119.65 262.21) rotate(-0.22) scale(1.1 1)">C</text><text class="73aed84c-4f2d-4737-95eb-2aaf42bca265" transform="matrix(1.1, 0, 0, 1, 129.93, 262.19)">h</text><text class="73aed84c-4f2d-4737-95eb-2aaf42bca265" transform="translate(137.84 262.16) rotate(-0.53) scale(1.1 1)">e</text><text class="73aed84c-4f2d-4737-95eb-2aaf42bca265" transform="translate(145.73 262.08) rotate(-0.49) scale(1.1 1)">c</text><text class="73aed84c-4f2d-4737-95eb-2aaf42bca265" transform="translate(152.87 262.02) rotate(-0.19) scale(1.1 1)">a</text><text class="73aed84c-4f2d-4737-95eb-2aaf42bca265" transform="matrix(1.1, 0, 0, 1, 160.77, 261.99)"> </text><path class="a39f33fa-0980-47c0-854c-16c0a8ede0de" d="M9.19,322c19.38,0,19.38,3.38,38.77,3.38s19.38,7.69,38.77,7.69,19.38,3.05,38.77,3.05,19.38.2,38.77.2,19.38,1.46,38.77,1.46,19.38-1.36,38.77-1.36,19.38-42,38.77-42,19.38,28.37,38.77,28.37,19.38,4.62,38.77,4.62,19.38,52.16,38.77,52.16,19.38,49.31,38.77,49.31,19.38,19.26,38.77,19.26,19.38,48.65,38.77,48.65v.92c-19.38,0-19.38-48.65-38.77-48.65S455,429.77,435.65,429.77s-19.38-43.32-38.77-43.32S377.5,334.3,358.11,334.3s-19.38-4.62-38.77-4.62S300,301.31,280.57,301.31s-19.38,36-38.77,36S222.42,338.7,203,338.7s-19.38-1.46-38.77-1.46-19.38-.2-38.77-.2S106.11,334,86.73,334,67.34,326.3,48,326.3s-19.38-3.38-38.77-3.38Z"/><path class="caf2b136-bf60-4110-adde-d6c0e369f2eb" d="M9.19,312.29c19.38,0,19.38,6.93,38.77,6.93s19.38,7.23,38.77,7.23,19.38,1.31,38.77,1.31,19.38.2,38.77.2S183.65,312,203,312s19.38-4.56,38.77-4.56,19.38,8.95,38.77,8.95,19.38,28.37,38.77,28.37,19.38-26.88,38.77-26.88S377.5,370,396.88,370s19.38.05,38.77.05,19.38,33.05,38.77,33.05,19.38,48.65,38.77,48.65v7.5c-19.38,0-19.38-48.65-38.77-48.65S455,377.6,435.65,377.6s-19.38-.05-38.77-.05-19.38-52.16-38.77-52.16-19.38,23.87-38.77,23.87S300,320.89,280.57,320.89s-19.38-8.95-38.77-8.95S222.42,316.5,203,316.5s-19.38,13.62-38.77,13.62-19.38-.2-38.77-.2-19.38-1.31-38.77-1.31S67.34,321.38,48,321.38s-19.38-6.13-38.77-6.13Z"/><text class="78361ef9-09dc-41c2-ae73-b85e6c092378" transform="translate(464.94 382.79) scale(1.1 1)"> </text><text class="78361ef9-09dc-41c2-ae73-b85e6c092378" transform="translate(103.03 262.58) scale(1.1 1)"> </text><text class="73aed84c-4f2d-4737-95eb-2aaf42bca265" transform="translate(391.5 308.81) scale(1.1 1)">Polonia</text><text class="b49017ea-8fc7-41b8-be95-7013fd53d12f" transform="translate(466.52 374.5) rotate(-17.18) scale(1.1 1)">S</text><text class="b49017ea-8fc7-41b8-be95-7013fd53d12f" transform="matrix(1.05, 0.31, -0.28, 0.96, 473.98, 372.06)">u</text><text class="b49017ea-8fc7-41b8-be95-7013fd53d12f" transform="matrix(0.78, 0.77, -0.7, 0.71, 480.21, 373.83)">e</text><text class="b49017ea-8fc7-41b8-be95-7013fd53d12f" transform="matrix(0.57, 0.94, -0.85, 0.52, 485.01, 378.69)">c</text><text class="b49017ea-8fc7-41b8-be95-7013fd53d12f" transform="translate(488.25 384.19) rotate(63.74) scale(1.1 1)">i</text><text class="b49017ea-8fc7-41b8-be95-7013fd53d12f" transform="translate(489.54 386.71) rotate(66.78) scale(1.1 1)">a</text><text class="adb8def4-cf02-433d-8c37-40a7ff6ac145" transform="translate(17.19 19.27)">Evolución del número de votos a partidos euroescépticos <tspan x="32.42" y="22.8">en las elecciones estatales de los países de la U.E</tspan><tspan class="56158657-fea2-4e3f-a20b-d5278d48d365" x="485.48" y="22.8">.</tspan></text><text class="2631623b-89c8-4b41-b10f-b1add0951c82" transform="translate(8.32 569.56)">Fuente: Elaboración Propia</text><text class="2631623b-89c8-4b41-b10f-b1add0951c82" transform="translate(468.71 569.56)">L<tspan class="a889685f-7973-4462-b781-538545827dff" x="5.56" y="0">A</tspan><tspan x="11.68" y="0"> </tspan><tspan class="d368d68f-98e7-4705-8196-2a32b1c088cc" x="14.46" y="0">V</tspan><tspan x="20.39" y="0">ANGUARDI</tspan><tspan class="a889685f-7973-4462-b781-538545827dff" x="73.17" y="0">A</tspan></text><text class="824e69f7-ee58-4ebd-af69-a18b0766bf7b" transform="translate(41.33 469.92)">El resto de países:<tspan class="a889685f-7973-4462-b781-538545827dff" x="99.39" y="0"> </tspan><tspan x="102.06" y="0">Austria, Bulgaria, Chipre, Croacia, Dinamarca, Eslovaquia, </tspan><tspan x="0" y="14.8">Eslovenia, España, Estonia, Finlandia, Francia, Hungría, Irlanda, Letonia, </tspan><tspan x="0" y="29.6">Lituania, Portugal y Rumanía</tspan></text><polyline class="ff82abc4-403e-44f7-8e53-41b1aead61e8" points="522 415 522 506 41 506"/><text class="824e69f7-ee58-4ebd-af69-a18b0766bf7b" transform="translate(11.32 541.75)">‘05</text><text class="824e69f7-ee58-4ebd-af69-a18b0766bf7b" transform="translate(40.32 541.75)"><tspan xml:space="preserve">‘06                         </tspan></text><text class="824e69f7-ee58-4ebd-af69-a18b0766bf7b" transform="translate(78.32 541.75)"><tspan xml:space="preserve">‘07                      </tspan></text><text class="824e69f7-ee58-4ebd-af69-a18b0766bf7b" transform="translate(117.32 541.75)">‘08</text><text class="824e69f7-ee58-4ebd-af69-a18b0766bf7b" transform="translate(156.32 541.75)"><tspan xml:space="preserve">‘09              </tspan></text><text class="824e69f7-ee58-4ebd-af69-a18b0766bf7b" transform="translate(194.32 541.75)"><tspan xml:space="preserve">‘10         </tspan></text><text class="824e69f7-ee58-4ebd-af69-a18b0766bf7b" transform="translate(235.32 541.75)">‘<tspan class="d368d68f-98e7-4705-8196-2a32b1c088cc" x="2.67" y="0">1</tspan><tspan x="8.45" y="0" xml:space="preserve">1       </tspan></text><text class="824e69f7-ee58-4ebd-af69-a18b0766bf7b" transform="translate(273.32 541.75)">‘12</text><text class="824e69f7-ee58-4ebd-af69-a18b0766bf7b" transform="translate(310.32 541.75)">‘13</text><text class="824e69f7-ee58-4ebd-af69-a18b0766bf7b" transform="translate(348.32 541.75)">‘14</text><text class="824e69f7-ee58-4ebd-af69-a18b0766bf7b" transform="translate(388.32 541.75)">‘15</text><text class="824e69f7-ee58-4ebd-af69-a18b0766bf7b" transform="translate(428.19 541.75)">‘16</text><text class="824e69f7-ee58-4ebd-af69-a18b0766bf7b" transform="translate(467.32 541.75)">‘17</text><text class="824e69f7-ee58-4ebd-af69-a18b0766bf7b" transform="translate(501.32 541.75)">‘18</text><text class="824e69f7-ee58-4ebd-af69-a18b0766bf7b" transform="translate(524 66.26)">34%</text><text class="824e69f7-ee58-4ebd-af69-a18b0766bf7b" transform="translate(524 316.26)">10%</text><text class="824e69f7-ee58-4ebd-af69-a18b0766bf7b" transform="translate(524 358.26)">9%</text><text class="824e69f7-ee58-4ebd-af69-a18b0766bf7b" transform="translate(526 423.26)">21%</text><text class="824e69f7-ee58-4ebd-af69-a18b0766bf7b" transform="translate(525 397.26)">5%</text><text class="824e69f7-ee58-4ebd-af69-a18b0766bf7b" transform="translate(524.95 215.26)">21%</text><line class="ff82abc4-403e-44f7-8e53-41b1aead61e8" x1="522" y1="58" x2="522" y2="195.5"/><line class="ff82abc4-403e-44f7-8e53-41b1aead61e8" x1="522" y1="207" x2="522" y2="292"/><line class="ff82abc4-403e-44f7-8e53-41b1aead61e8" x1="522" y1="306" x2="522" y2="344.5"/><line class="ff82abc4-403e-44f7-8e53-41b1aead61e8" x1="522" y1="351" x2="522" y2="384"/><line class="ff82abc4-403e-44f7-8e53-41b1aead61e8" x1="522.5" y1="388" x2="522.5" y2="409"/></svg>