<svg id="Capa_1" data-name="Capa 1" xmlns="http://www.w3.org/2000/svg" viewBox="0 0 607 626"><defs><style>@import url('https://fonts.googleapis.com/css?family=Open+Sans');
		.label {
        	font-family: OpenSans-Semibold, Open Sans;
        	font-size: 10px;
        	fill: #323232;
     	}.cls-1,.cls-10,.cls-11,.cls-2,.cls-3,.cls-4,.cls-5,.cls-6,.cls-7,.cls-8,.cls-9{fill:none;}.cls-1{stroke:#2193b0;stroke-width:243.06px;}.cls-2{stroke:#37a3bf;stroke-width:91.6px;}.cls-3,.cls-5{stroke:#64c2d8;}.cls-3{stroke-width:14.32px;}.cls-4{stroke:#ba0f65;stroke-opacity:0.89;stroke-width:9.51px;}.cls-10,.cls-11,.cls-5,.cls-6,.cls-7,.cls-8,.cls-9{stroke-width:7.27px;}.cls-6{stroke:#6dd5ed;}.cls-7{stroke:#8bdcea;}.cls-8{stroke:#a6e2e8;}.cls-9{stroke:#c2edef;}.cls-10{stroke:#d7f7f7;}.cls-11{stroke:#e6fffe;}.cls-12{fill:#2193b0;}.cls-13,.cls-14,.cls-15{isolation:isolate;}.cls-13,.cls-14,.cls-17,.cls-18,.cls-30{font-size:13px;}.cls-13,.cls-14,.cls-17,.cls-19{fill:#757575;}.cls-13,.cls-17,.cls-19,.cls-30{font-family:OpenSans, Open Sans;}.cls-14,.cls-15,.cls-16,.cls-18{font-family:OpenSans-Bold, Open Sans;}.cls-14,.cls-15,.cls-16,.cls-18,.cls-29{font-weight:700;}.cls-15,.cls-16,.cls-19{font-size:12px;}.cls-15,.cls-16{fill:#fff;}.cls-18,.cls-24{fill:#ba0f65;}.cls-20{fill:#d7f7f7;}.cls-21{fill:#e6fffe;}.cls-22{fill:#37a3bf;}.cls-23{fill:#64c2d8;}.cls-25{fill:#6dd5ed;}.cls-26{fill:#8bdcea;}.cls-27{fill:#a6e2e8;}.cls-28{fill:#c2edef;}.cls-29{font-size:25px;font-family:OpenSans-Semibold, Open Sans;}</style></defs><title>2018.10_Flujos</title><path class="cls-1" d="M63,205.53c245,0,245,50,490,50"/><path class="cls-2" d="M63,382.86c245,0,245,40,490,40"/><path class="cls-3" d="M63,445.82c245,0,245,30,490,30"/><path class="cls-4" d="M63,467.73c245,0,245,20,490,20"/><path class="cls-5" d="M63,486.12c245,0,245,10,490,10"/><path class="cls-6" d="M63,503.31H553"/><path class="cls-7" d="M63,519.93c245,0,245-10,490-10"/><path class="cls-8" d="M63,535.78c245,0,245-20,490-20"/><path class="cls-9" d="M63,551.1c245,0,245-30,490-30"/><path class="cls-10" d="M63,565.8c245,0,245-40,490-40"/><path class="cls-11" d="M63,581c245,0,245-50,490-50"/><rect class="cls-12" x="556.33" y="133" width="5.67" height="400"/><rect class="cls-12" x="55" y="84" width="6" height="243.06"/><text class="cls-13" transform="translate(13 94.03)">EE.UU</text><text class="cls-13" transform="translate(565 145.03)">Arabia<tspan x="0" y="15.6">Saudí</tspan></text><text class="cls-14" transform="translate(565 175.03)">15 M</text><text class="cls-15" transform="translate(68 99.03)">8,9 M</text><text class="cls-16" transform="translate(68 350.03)">3,3 M</text><text class="cls-16" transform="translate(68 450.03)">530.000</text><text class="cls-16" transform="translate(68 472.03)">352.000</text><text class="cls-13" transform="translate(2 349.03)">R. Unido</text><text class="cls-17" transform="translate(9 450.03)">Francia</text><text class="cls-18" transform="translate(7 472.03)">España</text><text class="cls-17" transform="translate(18 490.03)">Suiza</text><text class="cls-17" transform="translate(2 508.03)">Aleman.</text><text class="cls-17" transform="translate(20 524.03)">Italia</text><text class="cls-17" transform="translate(6 539.03)">Canadá</text><text class="cls-17" transform="translate(5 554.03)">Turquía</text><text class="cls-17" transform="translate(10 569.03)">Suecia</text><text class="cls-17" transform="translate(15 583.03)">Otros</text><text class="cls-19" transform="translate(509 619.03)">LA VANGUARDIA</text><text class="cls-19" transform="translate(4 619.03)">Fuente: Sipri</text><rect class="cls-20" x="55" y="563.63" width="5" height="4.35"/><rect class="cls-21" x="55" y="577.98" width="5" height="6.02"/><rect class="cls-22" x="55" y="337.06" width="5" height="91.6"/><rect class="cls-23" x="55" y="438.66" width="5" height="14.32"/><rect class="cls-24" x="55" y="462.97" width="5" height="9.51"/><rect class="cls-23" x="55" y="482.48" width="5" height="7.27"/><rect class="cls-25" x="55" y="499.75" width="5" height="7.13"/><rect class="cls-26" x="55" y="516.88" width="5" height="6.1"/><rect class="cls-27" x="55" y="532.98" width="5" height="5.59"/><rect class="cls-28" x="55" y="548.58" width="5" height="5.05"/><text class="cls-29" transform="translate(38.54 39.67)">¿De dónde importa las armas Arabia Saudí?</text><text class="cls-30" transform="translate(75.59 58.55)">Coste de la transferencia según el valor indicador de tendencia del SIPRI</text></svg>