<svg id="chart-container" xmlns="http://www.w3.org/2000/svg" viewBox="0 0 652 738"><defs><style>@import url('https://fonts.googleapis.com/css?family=Open+Sans');.cls-1,.cls-13,.cls-2{fill:#b2182b;}.cls-1,.cls-2{stroke:#b2182b;}.cls-1,.cls-5{opacity:0.25;}.cls-10,.cls-3,.cls-5{fill:#004182;}.cls-3,.cls-5{stroke:#004182;}.cls-4{fill:#45aedd;stroke:#45aedd;}.cls-6{font-size:17px;}.cls-6,.cls-8,.cls-9{fill:#757575;}.cls-10,.cls-12,.cls-13,.cls-15,.cls-6,.cls-8,.cls-9{font-family:OpenSans, Open Sans;}.cls-7{font-size:30px;}.cls-15,.cls-7{fill:#323232;}.cls-11,.cls-7{font-family:OpenSans-Bold, Open Sans;font-weight:700;}.cls-10,.cls-12,.cls-13,.cls-8{font-size:18px;}.cls-9{font-size:20px;}.cls-12{fill:#67a9cf;}.cls-14{fill:#ccc;stroke:#ccc;}.cls-15{font-size:19px;}</style></defs><title>2018.11_EleccionesEUA_2</title><circle class="cls-1" cx="249.8" cy="677.74" r="11.26"/><circle class="cls-1" cx="225.39" cy="671.2" r="11.26"/><circle class="cls-1" cx="200.97" cy="664.66" r="11.26"/><circle class="cls-1" cx="176.56" cy="658.12" r="11.26"/><circle class="cls-1" cx="152.14" cy="651.58" r="11.26"/><circle class="cls-1" cx="127.73" cy="645.04" r="11.26"/><circle class="cls-1" cx="103.31" cy="638.49" r="11.26"/><circle class="cls-1" cx="112.88" cy="610.32" r="11.26"/><circle class="cls-1" cx="137.38" cy="617.28" r="11.26"/><circle class="cls-1" cx="161.88" cy="624.35" r="11.26"/><circle class="cls-1" cx="187.37" cy="629.61" r="11.26"/><circle class="cls-1" cx="212.12" cy="636.8" r="11.26"/><circle class="cls-1" cx="126.04" cy="583.63" r="11.26"/><circle class="cls-1" cx="236.99" cy="644.29" r="11.26"/><circle class="cls-1" cx="150.94" cy="591.22" r="11.26"/><circle class="cls-1" cx="175.93" cy="599.07" r="11.26"/><circle class="cls-1" cx="142.57" cy="558.89" r="11.26"/><circle class="cls-1" cx="203.66" cy="603.84" r="11.26"/><circle class="cls-1" cx="264.96" cy="648.63" r="11.26"/><circle class="cls-1" cx="168.15" cy="567.39" r="11.26"/><circle class="cls-1" cx="229.53" cy="612.36" r="11.26"/><circle class="cls-1" cx="193.91" cy="576.42" r="11.26"/><circle class="cls-1" cx="162.19" cy="536.52" r="11.26"/><circle class="cls-1" cx="255.83" cy="621.84" r="11.26"/><circle class="cls-1" cx="188.62" cy="546.32" r="11.26"/><circle class="cls-1" cx="224.78" cy="581.85" r="11.26"/><circle class="cls-1" cx="215.34" cy="557" r="11.26"/><circle class="cls-1" cx="184.56" cy="516.9" r="11.26"/><circle class="cls-1" cx="252.21" cy="592.71" r="11.26"/><circle class="cls-1" cx="211.93" cy="528.43" r="11.26"/><circle class="cls-1" cx="209.3" cy="500.37" r="11.26"/><circle class="cls-1" cx="249.88" cy="564.53" r="11.26"/><circle class="cls-1" cx="239.64" cy="541.33" r="11.26"/><circle class="cls-1" cx="291" cy="628.65" r="11.26"/><circle class="cls-1" cx="280.32" cy="605.74" r="11.26"/><circle class="cls-1" cx="237.59" cy="514.11" r="11.26"/><circle class="cls-1" cx="235.99" cy="487.2" r="11.26"/><circle class="cls-1" cx="278.88" cy="578.96" r="11.26"/><circle class="cls-1" cx="266.17" cy="529.83" r="11.26"/><circle class="cls-1" cx="277.93" cy="552.58" r="11.26"/><circle class="cls-1" cx="265.05" cy="503.66" r="11.26"/><circle class="cls-1" cx="264.17" cy="477.64" r="11.26"/><circle class="cls-2" cx="294.22" cy="522.8" r="11.26"/><circle class="cls-2" cx="308.39" cy="597.33" r="11.26"/><circle class="cls-2" cx="293.74" cy="497.3" r="11.26"/><circle class="cls-2" cx="293.35" cy="471.84" r="11.26"/><circle class="cls-2" cx="308.04" cy="571.89" r="11.26"/><circle class="cls-2" cx="307.8" cy="546.48" r="11.26"/><circle class="cls-3" cx="323.04" cy="621.54" r="11.26"/><circle class="cls-2" cx="323.04" cy="520.44" r="11.26"/><circle class="cls-2" cx="323.04" cy="495.16" r="11.26"/><circle class="cls-2" cx="323.04" cy="469.89" r="11.26"/><circle class="cls-3" cx="338.29" cy="546.48" r="11.26"/><circle class="cls-3" cx="338.05" cy="571.89" r="11.26"/><circle class="cls-4" cx="352.74" cy="471.84" r="11.26"/><circle class="cls-3" cx="337.7" cy="597.33" r="11.26"/><circle class="cls-4" cx="352.35" cy="497.3" r="11.26"/><circle class="cls-3" cx="351.86" cy="522.8" r="11.26"/><circle class="cls-3" cx="381.92" cy="477.64" r="11.26"/><circle class="cls-3" cx="381.04" cy="503.66" r="11.26"/><circle class="cls-3" cx="368.16" cy="552.58" r="11.26"/><circle class="cls-3" cx="379.92" cy="529.83" r="11.26"/><circle class="cls-3" cx="367.21" cy="578.96" r="11.26"/><circle class="cls-3" cx="410.1" cy="487.2" r="11.26"/><circle class="cls-3" cx="355.09" cy="628.65" r="11.26"/><circle class="cls-3" cx="365.77" cy="605.74" r="11.26"/><circle class="cls-3" cx="408.5" cy="514.11" r="11.26"/><circle class="cls-3" cx="406.45" cy="541.33" r="11.26"/><circle class="cls-3" cx="396.21" cy="564.53" r="11.26"/><circle class="cls-3" cx="436.78" cy="500.37" r="11.26"/><circle class="cls-3" cx="434.16" cy="528.43" r="11.26"/><circle class="cls-3" cx="393.88" cy="592.71" r="11.26"/><circle class="cls-3" cx="430.75" cy="557" r="11.26"/><circle class="cls-3" cx="461.53" cy="516.9" r="11.26"/><circle class="cls-3" cx="421.3" cy="581.85" r="11.26"/><circle class="cls-3" cx="390.26" cy="621.84" r="11.26"/><circle class="cls-3" cx="457.47" cy="546.32" r="11.26"/><circle class="cls-5" cx="483.9" cy="536.52" r="11.26"/><circle class="cls-5" cx="452.18" cy="576.42" r="11.26"/><circle class="cls-5" cx="416.56" cy="612.36" r="11.26"/><circle class="cls-5" cx="381.13" cy="648.63" r="11.26"/><circle class="cls-5" cx="477.94" cy="567.39" r="11.26"/><circle class="cls-5" cx="442.42" cy="603.84" r="11.26"/><circle class="cls-5" cx="503.52" cy="558.89" r="11.26"/><circle class="cls-5" cx="470.16" cy="599.07" r="11.26"/><circle class="cls-5" cx="409.09" cy="644.29" r="11.26"/><circle class="cls-5" cx="495.14" cy="591.22" r="11.26"/><circle class="cls-5" cx="520.05" cy="583.63" r="11.26"/><circle class="cls-5" cx="433.96" cy="636.8" r="11.26"/><circle class="cls-5" cx="458.72" cy="629.61" r="11.26"/><circle class="cls-5" cx="484.2" cy="624.35" r="11.26"/><circle class="cls-5" cx="508.71" cy="617.28" r="11.26"/><circle class="cls-5" cx="533.21" cy="610.32" r="11.26"/><circle class="cls-5" cx="396.29" cy="677.74" r="11.26"/><circle class="cls-5" cx="420.7" cy="671.2" r="11.26"/><circle class="cls-5" cx="445.12" cy="664.66" r="11.26"/><circle class="cls-5" cx="469.53" cy="658.12" r="11.26"/><circle class="cls-5" cx="493.94" cy="651.58" r="11.26"/><circle class="cls-5" cx="518.36" cy="645.04" r="11.26"/><circle class="cls-5" cx="542.77" cy="638.49" r="11.26"/><text class="cls-6" transform="translate(4.55 731.82) rotate(-0.09)">Fuente: USA.GOV</text><text class="cls-6" transform="translate(516.55 733.82) rotate(-0.09)">LA VANGUARDIA</text><text class="cls-7" transform="translate(5 25.8)">Resultado en el Senado tras las elección de <tspan x="46.82" y="36">los 35 asientos que estaban en juego</tspan></text><text class="cls-8" transform="translate(204.13 437.68)">ANTES DE LAS ELECCIONES</text><text class="cls-8" transform="translate(188.41 127.68)">DESPUÉS DE LAS ELECCIONES</text><text class="cls-9" transform="translate(272.66 359.2)">Mayoría<tspan x="26.41" y="24">51</tspan></text><text class="cls-9" transform="translate(284.66 663.2)">Mayoría<tspan x="26.41" y="24">51</tspan></text><text class="cls-10" transform="translate(477.55 470.82) rotate(-0.09)">DEMÓCRATAS | <tspan class="cls-11" x="137.77" y="0">49</tspan></text><text class="cls-10" transform="translate(475.55 159.82) rotate(-0.09)">DEMÓCRATAS | <tspan class="cls-11" x="137.77" y="0">45</tspan></text><text class="cls-12" transform="translate(456.55 495.82) rotate(-0.09)">INDEPENDIENTES | <tspan class="cls-11" x="166.97" y="0">2</tspan></text><text class="cls-13" transform="translate(14.55 161.82) rotate(-0.09)">REPUBLICANOS | <tspan class="cls-11" x="150.58" y="0">51</tspan></text><text class="cls-13" transform="translate(9.55 470.82) rotate(-0.09)">REPUBLICANOS |<tspan class="cls-11" x="145.91" y="0" xml:space="preserve"> 51</tspan></text><circle class="cls-1" cx="238.25" cy="366.11" r="11.26"/><circle class="cls-1" cx="213.84" cy="359.57" r="11.26"/><circle class="cls-1" cx="189.43" cy="353.03" r="11.26"/><circle class="cls-1" cx="165.01" cy="346.49" r="11.26"/><circle class="cls-1" cx="140.6" cy="339.94" r="11.26"/><circle class="cls-1" cx="116.18" cy="333.4" r="11.26"/><circle class="cls-1" cx="91.77" cy="326.86" r="11.26"/><circle class="cls-1" cx="101.33" cy="298.68" r="11.26"/><circle class="cls-1" cx="125.83" cy="305.65" r="11.26"/><circle class="cls-1" cx="150.34" cy="312.72" r="11.26"/><circle class="cls-1" cx="175.82" cy="317.98" r="11.26"/><circle class="cls-1" cx="200.58" cy="325.17" r="11.26"/><circle class="cls-1" cx="114.49" cy="272" r="11.26"/><circle class="cls-1" cx="225.45" cy="332.66" r="11.26"/><circle class="cls-1" cx="139.4" cy="279.58" r="11.26"/><circle class="cls-1" cx="164.39" cy="287.44" r="11.26"/><circle class="cls-1" cx="131.02" cy="247.25" r="11.26"/><circle class="cls-1" cx="192.12" cy="292.21" r="11.26"/><circle class="cls-1" cx="253.41" cy="337" r="11.26"/><circle class="cls-1" cx="156.6" cy="255.76" r="11.26"/><circle class="cls-1" cx="217.98" cy="300.73" r="11.26"/><circle class="cls-1" cx="182.36" cy="264.79" r="11.26"/><circle class="cls-1" cx="150.64" cy="224.88" r="11.26"/><circle class="cls-1" cx="244.28" cy="310.21" r="11.26"/><circle class="cls-1" cx="177.07" cy="234.68" r="11.26"/><circle class="cls-1" cx="213.24" cy="270.22" r="11.26"/><circle class="cls-1" cx="203.79" cy="245.37" r="11.26"/><circle class="cls-1" cx="173.02" cy="205.26" r="11.26"/><circle class="cls-1" cx="240.66" cy="281.08" r="11.26"/><circle class="cls-1" cx="200.38" cy="216.8" r="11.26"/><circle class="cls-1" cx="197.76" cy="188.73" r="11.26"/><circle class="cls-1" cx="238.33" cy="252.9" r="11.26"/><circle class="cls-1" cx="228.09" cy="229.7" r="11.26"/><circle class="cls-1" cx="279.45" cy="317.01" r="11.26"/><circle class="cls-1" cx="268.77" cy="294.11" r="11.26"/><circle class="cls-1" cx="226.04" cy="202.48" r="11.26"/><circle class="cls-1" cx="224.44" cy="175.57" r="11.26"/><circle class="cls-1" cx="267.33" cy="267.33" r="11.26"/><circle class="cls-1" cx="254.63" cy="218.2" r="11.26"/><circle class="cls-1" cx="266.38" cy="240.95" r="11.26"/><circle class="cls-1" cx="253.5" cy="192.03" r="11.26"/><circle class="cls-1" cx="252.62" cy="166.01" r="11.26"/><circle class="cls-2" cx="282.68" cy="211.17" r="11.26"/><circle class="cls-2" cx="296.84" cy="285.7" r="11.26"/><circle class="cls-2" cx="282.19" cy="185.67" r="11.26"/><circle class="cls-2" cx="281.81" cy="160.2" r="11.26"/><circle class="cls-2" cx="296.49" cy="260.25" r="11.26"/><circle class="cls-2" cx="296.25" cy="234.85" r="11.26"/><circle class="cls-2" cx="311.5" cy="309.91" r="11.26"/><circle class="cls-2" cx="311.5" cy="208.81" r="11.26"/><circle class="cls-2" cx="311.5" cy="183.53" r="11.26"/><circle class="cls-2" cx="311.5" cy="158.26" r="11.26"/><circle class="cls-14" cx="326.74" cy="234.85" r="11.26"/><circle class="cls-2" cx="326.5" cy="260.25" r="11.26"/><circle class="cls-14" cx="341.19" cy="160.2" r="11.26"/><circle class="cls-2" cx="326.15" cy="285.7" r="11.26"/><circle class="cls-14" cx="340.8" cy="185.67" r="11.26"/><circle class="cls-14" cx="340.32" cy="211.17" r="11.26"/><circle class="cls-3" cx="370.37" cy="166.01" r="11.26"/><circle class="cls-3" cx="369.49" cy="192.03" r="11.26"/><circle class="cls-3" cx="356.61" cy="240.95" r="11.26"/><circle class="cls-3" cx="368.37" cy="218.2" r="11.26"/><circle class="cls-3" cx="355.66" cy="267.33" r="11.26"/><circle class="cls-3" cx="398.55" cy="175.57" r="11.26"/><circle class="cls-3" cx="343.54" cy="317.01" r="11.26"/><circle class="cls-3" cx="354.23" cy="294.11" r="11.26"/><circle class="cls-3" cx="396.95" cy="202.48" r="11.26"/><circle class="cls-3" cx="394.9" cy="229.7" r="11.26"/><circle class="cls-3" cx="384.66" cy="252.9" r="11.26"/><circle class="cls-3" cx="425.24" cy="188.73" r="11.26"/><circle class="cls-3" cx="422.61" cy="216.8" r="11.26"/><circle class="cls-3" cx="382.33" cy="281.08" r="11.26"/><circle class="cls-3" cx="419.21" cy="245.37" r="11.26"/><circle class="cls-3" cx="449.98" cy="205.26" r="11.26"/><circle class="cls-3" cx="409.76" cy="270.22" r="11.26"/><circle class="cls-3" cx="378.71" cy="310.21" r="11.26"/><circle class="cls-3" cx="445.92" cy="234.68" r="11.26"/><circle class="cls-5" cx="472.35" cy="224.88" r="11.26"/><circle class="cls-5" cx="440.63" cy="264.79" r="11.26"/><circle class="cls-5" cx="405.01" cy="300.73" r="11.26"/><circle class="cls-5" cx="369.58" cy="337" r="11.26"/><circle class="cls-5" cx="466.4" cy="255.76" r="11.26"/><circle class="cls-5" cx="430.88" cy="292.21" r="11.26"/><circle class="cls-5" cx="491.97" cy="247.25" r="11.26"/><circle class="cls-5" cx="458.61" cy="287.44" r="11.26"/><circle class="cls-5" cx="397.55" cy="332.66" r="11.26"/><circle class="cls-5" cx="483.6" cy="279.58" r="11.26"/><circle class="cls-5" cx="508.5" cy="272" r="11.26"/><circle class="cls-5" cx="422.42" cy="325.17" r="11.26"/><circle class="cls-5" cx="447.17" cy="317.98" r="11.26"/><circle class="cls-5" cx="472.66" cy="312.72" r="11.26"/><circle class="cls-5" cx="497.17" cy="305.65" r="11.26"/><circle class="cls-5" cx="521.66" cy="298.68" r="11.26"/><circle class="cls-5" cx="384.74" cy="366.11" r="11.26"/><circle class="cls-5" cx="409.15" cy="359.57" r="11.26"/><circle class="cls-5" cx="433.57" cy="353.03" r="11.26"/><circle class="cls-5" cx="457.98" cy="346.49" r="11.26"/><circle class="cls-5" cx="482.4" cy="339.94" r="11.26"/><circle class="cls-5" cx="506.81" cy="333.4" r="11.26"/><circle class="cls-5" cx="531.23" cy="326.86" r="11.26"/><text class="cls-15" transform="translate(58.95 93.36)">Los asientos en gris todavía están pendientes del escrutinio </text><script src="https://cdn.rawgit.com/duroty/elecciones-catalanas-2017/d05d9896b0405b7eab412484e4992d4917f46597/searcher/js/iframeResizer.contentWindow.min.js"></script></svg>