<svg id="26b9742d-15a4-488b-8af2-d55e9b579312" data-name="Capa 1" xmlns="http://www.w3.org/2000/svg" viewBox="0 0 565 548"><defs><style>.\33 8a775b6-c778-41e4-9e98-3a6a94cad7f6{fill:#f9f9f9;}.\30 5891c90-60f2-47ab-8ba9-6cf72070511c,.\30 864045c-0317-4bda-baa5-3ddbf6a32ab7,.\30 a98d336-1ed3-4308-9981-afdbaa3c68a0,.\31 1039873-1804-4c10-bbd1-9622288e9a6d,.\34 645a08b-a211-4d1e-b809-f34ac37608f5,.\37 1a17248-350c-4343-a3f4-f806f8876c76,.\38 ec9f590-a283-45b1-bf81-daded672fc1e,.ac3b6732-502d-4ce4-a764-706df7055cc5,.eaf134a0-089d-45f4-9c20-214d22533781,.fa1fd9bf-4e02-454b-bf1f-7a9e1a791a95,.fe1b48ed-f866-4900-9b5a-1ae933c121be{fill:none;}.fa1fd9bf-4e02-454b-bf1f-7a9e1a791a95{stroke:#e6e6e6;}.\30 864045c-0317-4bda-baa5-3ddbf6a32ab7,.aa46efe8-649e-423b-803c-44123dc477ab{stroke:#323232;}.eaf134a0-089d-45f4-9c20-214d22533781{stroke:#91c43e;}.\30 5891c90-60f2-47ab-8ba9-6cf72070511c,.\30 a98d336-1ed3-4308-9981-afdbaa3c68a0,.\34 645a08b-a211-4d1e-b809-f34ac37608f5,.eaf134a0-089d-45f4-9c20-214d22533781,.fe1b48ed-f866-4900-9b5a-1ae933c121be{stroke-linecap:round;stroke-linejoin:round;stroke-width:2px;}.\34 645a08b-a211-4d1e-b809-f34ac37608f5{stroke:#f49e20;}.\30 5891c90-60f2-47ab-8ba9-6cf72070511c{stroke:#4cbcbf;}.\30 a98d336-1ed3-4308-9981-afdbaa3c68a0{stroke:#d65b70;}.fe1b48ed-f866-4900-9b5a-1ae933c121be{stroke:#a01f51;}.\34 56901f7-dce0-4009-bb67-0a41d5a0ccda{font-size:16px;}.\31 cac9d45-e0cd-4759-9a4e-78fb6a2978a7,.\34 56901f7-dce0-4009-bb67-0a41d5a0ccda,.\34 58c7e8c-6a8c-4cab-9cc0-2003e914a508,.\34 8fc4e3e-c3ab-402d-a400-db31f632a2a9,.e917d529-8b43-4a20-9184-dee3aa740c33{fill:#757575;}.\31 cac9d45-e0cd-4759-9a4e-78fb6a2978a7,.\34 56901f7-dce0-4009-bb67-0a41d5a0ccda,.\34 8fc4e3e-c3ab-402d-a400-db31f632a2a9,.bb15ecd5-c9f7-4a9e-9770-f116d4d9f461,.e2f65268-e58e-405d-a58e-e600cbab91a8,.e917d529-8b43-4a20-9184-dee3aa740c33{font-family:ArialMT, Arial;}.\39 87df8bc-f6e5-49b0-8fed-4f07558bf74c{font-size:18px;}.\34 58c7e8c-6a8c-4cab-9cc0-2003e914a508,.\39 87df8bc-f6e5-49b0-8fed-4f07558bf74c{font-family:Arial-BoldMT, Arial;font-weight:700;}.f0c5c4a3-d870-4165-a76d-259a69c7abef{letter-spacing:-0.06em;}.\31 1039873-1804-4c10-bbd1-9622288e9a6d,.\37 1a17248-350c-4343-a3f4-f806f8876c76,.\38 ec9f590-a283-45b1-bf81-daded672fc1e,.ac3b6732-502d-4ce4-a764-706df7055cc5{stroke:#757575;}.\34 8fc4e3e-c3ab-402d-a400-db31f632a2a9,.bb15ecd5-c9f7-4a9e-9770-f116d4d9f461{font-size:17px;}.aa46efe8-649e-423b-803c-44123dc477ab,.bb15ecd5-c9f7-4a9e-9770-f116d4d9f461,.e2f65268-e58e-405d-a58e-e600cbab91a8{fill:#323232;}.\34 58c7e8c-6a8c-4cab-9cc0-2003e914a508,.e2f65268-e58e-405d-a58e-e600cbab91a8,.e917d529-8b43-4a20-9184-dee3aa740c33{font-size:15px;}.\34 88aab3c-1a79-4fec-9c7b-6c377383916f{letter-spacing:-0.07em;}.d2bc71a1-94e8-4051-bf89-9d8eb7478a9f{letter-spacing:-0.04em;}.\31 cac9d45-e0cd-4759-9a4e-78fb6a2978a7{font-size:13px;}.\37 1a17248-350c-4343-a3f4-f806f8876c76,.\38 ec9f590-a283-45b1-bf81-daded672fc1e,.ac3b6732-502d-4ce4-a764-706df7055cc5{stroke-width:0.5px;}.\38 ec9f590-a283-45b1-bf81-daded672fc1e{stroke-dasharray:4.98 4.98;}.\37 1a17248-350c-4343-a3f4-f806f8876c76{stroke-dasharray:5.04 5.04;}.ed6b4fcf-d494-4857-a10c-fdc2882effa9{fill:#4cbcbf;}.\37 6c1e79e-01ff-4efa-a725-e38d060f387c,.a8376024-be04-4df3-926a-16366c689fea,.b953dd54-2d6e-4de6-a15e-c649ae1eced3,.e4ad729a-e187-404d-b5b6-f916a2595f22,.ed6b4fcf-d494-4857-a10c-fdc2882effa9{opacity:0.65;}.\37 6c1e79e-01ff-4efa-a725-e38d060f387c{fill:#b21420;}.a8376024-be04-4df3-926a-16366c689fea{fill:#91c43e;}.b953dd54-2d6e-4de6-a15e-c649ae1eced3{fill:#a01f51;}.e4ad729a-e187-404d-b5b6-f916a2595f22{fill:#f49e20;}</style></defs><title>2018.05_ValoracionLideres</title><rect class="38a775b6-c778-41e4-9e98-3a6a94cad7f6" x="-2.55" y="128.55" width="367.1" height="342" transform="translate(-118.55 480.55) rotate(-90)"/><rect class="38a775b6-c778-41e4-9e98-3a6a94cad7f6" x="280.45" y="229.6" width="367.1" height="140" transform="translate(164.4 763.6) rotate(-90)"/><line class="fa1fd9bf-4e02-454b-bf1f-7a9e1a791a95" x1="9.9" y1="483.32" x2="555" y2="483.32"/><line class="fa1fd9bf-4e02-454b-bf1f-7a9e1a791a95" x1="9.9" y1="430.8" x2="555" y2="430.8"/><line class="fa1fd9bf-4e02-454b-bf1f-7a9e1a791a95" x1="9.9" y1="378.27" x2="555" y2="378.27"/><line class="fa1fd9bf-4e02-454b-bf1f-7a9e1a791a95" x1="9.9" y1="325.74" x2="555" y2="325.74"/><line class="fa1fd9bf-4e02-454b-bf1f-7a9e1a791a95" x1="9.9" y1="273.22" x2="555" y2="273.22"/><line class="0864045c-0317-4bda-baa5-3ddbf6a32ab7" x1="9.9" y1="220.69" x2="555" y2="220.69"/><line class="fa1fd9bf-4e02-454b-bf1f-7a9e1a791a95" x1="9.9" y1="168.16" x2="555" y2="168.16"/><line class="fa1fd9bf-4e02-454b-bf1f-7a9e1a791a95" x1="9.9" y1="115.63" x2="555" y2="115.63"/><path class="eaf134a0-089d-45f4-9c20-214d22533781" d="M14,264.29l21.12,11.56,21.13,9.45,21.36.53L99,279.52l20.89,18.91L141,294.75l21.36-11.56,21.37,4.73,20.89,17.33,21.13,2.1,21.36-6.83,21.37-2.63,20.89,5.25,21.13.53,21.36-5.78"/><path class="4645a08b-a211-4d1e-b809-f34ac37608f5" d="M331.88,221.74l21.37,55.68,21.12-3.68,7-9.45,14.16,11.56,21.36,13.66,21.37,6.83,42-6.3,21.36,5.25L523,272.69"/><path class="05891c90-60f2-47ab-8ba9-6cf72070511c" d="M14,333.62H35.12l21.13,5.25,21.36-.53L99,342l20.89,7.88L141,347.8l21.36-2.1,21.37,11,20.89-12.61,21.13,16.28L247.13,362l21.37,3.68,20.89-13.13,21.13-6.3,21.36-11,21.37-13.66,21.12,10,7-10.51,14.16-13.66,21.36,20,21.37-6.83,20.89,10,21.13,6.3,21.36-12.08L523,332.57"/><path class="0a98d336-1ed3-4308-9981-afdbaa3c68a0" d="M14,260.08l21.12,7.35,21.13,16.28L77.62,289,99,304.73l20.89,21L141,318.39l21.36,1.05,21.37,6.3,20.89,3.68,21.13-10,21.36-38.34L268.5,290l20.89,4.73,21.13-13.13h21.36l21.37,4.73,21.12.53,7-13.13,14.16,3.15,21.36,30.47,63.39-20,21.36,6.3L523,290"/><path class="fe1b48ed-f866-4900-9b5a-1ae933c121be" d="M331.88,280l21.37,4.73,21.12,32.57,7-13.13,14.16-3.68,21.36,13.66,21.37,18.38,42-6.83,21.36,2.63L523,349.91"/><text class="456901f7-dce0-4009-bb67-0a41d5a0ccda" transform="translate(10.84 506.57)">2012</text><text class="456901f7-dce0-4009-bb67-0a41d5a0ccda" transform="translate(90.84 506.57)">2013</text><text class="456901f7-dce0-4009-bb67-0a41d5a0ccda" transform="translate(255.84 506.57)">2015</text><text class="456901f7-dce0-4009-bb67-0a41d5a0ccda" transform="translate(348.84 505.57)">2016</text><text class="456901f7-dce0-4009-bb67-0a41d5a0ccda" transform="translate(443.84 505.57)">2017</text><text class="456901f7-dce0-4009-bb67-0a41d5a0ccda" transform="translate(175.84 506.57)">2014</text><text class="456901f7-dce0-4009-bb67-0a41d5a0ccda" transform="translate(522.84 505.57)">2018</text><text class="987df8bc-f6e5-49b0-8fed-4f07558bf74c" transform="translate(8.91 23.89)"><tspan class="f0c5c4a3-d870-4165-a76d-259a69c7abef">V</tspan><tspan x="11.01" y="0">aloración de los líderes políticos en las dos últimas legislaturas</tspan></text><line class="11039873-1804-4c10-bbd1-9622288e9a6d" x1="306.5" y1="17.5" x2="309.5" y2="17.5"/><text class="bb15ecd5-c9f7-4a9e-9770-f116d4d9f461" transform="translate(541 215.17)">5</text><text class="e2f65268-e58e-405d-a58e-e600cbab91a8" transform="translate(382 43.74)">PUNTUACIÓN SOBRE 10</text><text class="458c7e8c-6a8c-4cab-9cc0-2003e914a508" transform="translate(11 74.74)">X LEGISL<tspan class="488aab3c-1a79-4fec-9c7b-6c377383916f" x="68.34" y="0">A</tspan><tspan x="78.06" y="0">TUR</tspan><tspan class="d2bc71a1-94e8-4051-bf89-9d8eb7478a9f" x="108.89" y="0">A</tspan></text><text class="458c7e8c-6a8c-4cab-9cc0-2003e914a508" transform="translate(391 75.74)">XII LEGISL<tspan class="488aab3c-1a79-4fec-9c7b-6c377383916f" x="76.68" y="0">A</tspan><tspan x="86.4" y="0">TUR</tspan><tspan class="d2bc71a1-94e8-4051-bf89-9d8eb7478a9f" x="117.22" y="0">A</tspan></text><text class="458c7e8c-6a8c-4cab-9cc0-2003e914a508" transform="translate(224 75.74)">XI LEGISL<tspan class="488aab3c-1a79-4fec-9c7b-6c377383916f" x="72.51" y="0">A</tspan><tspan x="82.23" y="0">TUR</tspan><tspan class="d2bc71a1-94e8-4051-bf89-9d8eb7478a9f" x="113.05" y="0">A</tspan></text><text class="48fc4e3e-c3ab-402d-a400-db31f632a2a9" transform="translate(541 268.17)">4</text><text class="48fc4e3e-c3ab-402d-a400-db31f632a2a9" transform="translate(541 162.17)">6</text><text class="48fc4e3e-c3ab-402d-a400-db31f632a2a9" transform="translate(545 109.17)">7</text><text class="48fc4e3e-c3ab-402d-a400-db31f632a2a9" transform="translate(541 321.17)">3</text><text class="48fc4e3e-c3ab-402d-a400-db31f632a2a9" transform="translate(541 374.17)">2</text><text class="48fc4e3e-c3ab-402d-a400-db31f632a2a9" transform="translate(541 427.17)">1</text><text class="48fc4e3e-c3ab-402d-a400-db31f632a2a9" transform="translate(541 478.17)">0</text><line class="aa46efe8-649e-423b-803c-44123dc477ab" x1="14" y1="49" x2="559" y2="49"/><text class="1cac9d45-e0cd-4759-9a4e-78fb6a2978a7" transform="translate(9.67 537.97)">Fuente: Barómetro del CIS</text><text class="1cac9d45-e0cd-4759-9a4e-78fb6a2978a7" transform="translate(369.27 537.97)">Laura<tspan class="f0c5c4a3-d870-4165-a76d-259a69c7abef" x="33.25" y="0"> </tspan><tspan x="36.14" y="0" xml:space="preserve">Aragó  |  L</tspan><tspan class="f0c5c4a3-d870-4165-a76d-259a69c7abef" x="95.89" y="0">A</tspan><tspan x="103.84" y="0"> </tspan><tspan class="488aab3c-1a79-4fec-9c7b-6c377383916f" x="107.45" y="0">V</tspan><tspan x="115.16" y="0">ANGUARDI</tspan><tspan class="f0c5c4a3-d870-4165-a76d-259a69c7abef" x="183.78" y="0">A</tspan></text><line class="ac3b6732-502d-4ce4-a764-706df7055cc5" x1="14.4" y1="484.1" x2="14.4" y2="481.6"/><line class="8ec9f590-a283-45b1-bf81-daded672fc1e" x1="14.4" y1="476.62" x2="14.4" y2="90.99"/><line class="ac3b6732-502d-4ce4-a764-706df7055cc5" x1="14.4" y1="88.5" x2="14.4" y2="86"/><line class="ac3b6732-502d-4ce4-a764-706df7055cc5" x1="394.4" y1="482.1" x2="394.4" y2="479.6"/><line class="71a17248-350c-4343-a3f4-f806f8876c76" x1="394.4" y1="474.56" x2="394.4" y2="94.02"/><line class="ac3b6732-502d-4ce4-a764-706df7055cc5" x1="394.4" y1="91.5" x2="394.4" y2="89"/><line class="ac3b6732-502d-4ce4-a764-706df7055cc5" x1="352.4" y1="478.1" x2="352.4" y2="475.6"/><line class="71a17248-350c-4343-a3f4-f806f8876c76" x1="352.4" y1="470.56" x2="352.4" y2="90.02"/><line class="ac3b6732-502d-4ce4-a764-706df7055cc5" x1="352.4" y1="87.5" x2="352.4" y2="85"/><text class="e917d529-8b43-4a20-9184-dee3aa740c33" transform="translate(22 95.74)">Presidente: Rajoy<tspan x="0" y="18">PSOE: Sánchez</tspan><tspan x="0" y="36">IU: Garzón</tspan></text><circle class="ed6b4fcf-d494-4857-a10c-fdc2882effa9" cx="14" cy="90" r="4"/><circle class="ed6b4fcf-d494-4857-a10c-fdc2882effa9" cx="14" cy="334" r="4"/><circle class="ed6b4fcf-d494-4857-a10c-fdc2882effa9" cx="523" cy="334" r="4"/><circle class="76c1e79e-01ff-4efa-a725-e38d060f387c" cx="14" cy="109" r="4"/><circle class="a8376024-be04-4df3-926a-16366c689fea" cx="14" cy="128" r="4"/><circle class="a8376024-be04-4df3-926a-16366c689fea" cx="332" cy="297" r="4"/><circle class="a8376024-be04-4df3-926a-16366c689fea" cx="14" cy="264" r="4"/><circle class="ed6b4fcf-d494-4857-a10c-fdc2882effa9" cx="395" cy="92" r="4"/><circle class="76c1e79e-01ff-4efa-a725-e38d060f387c" cx="395" cy="112" r="4"/><circle class="76c1e79e-01ff-4efa-a725-e38d060f387c" cx="14" cy="260" r="4"/><circle class="76c1e79e-01ff-4efa-a725-e38d060f387c" cx="523" cy="290" r="4"/><circle class="b953dd54-2d6e-4de6-a15e-c649ae1eced3" cx="395" cy="130" r="4"/><circle class="b953dd54-2d6e-4de6-a15e-c649ae1eced3" cx="332" cy="280" r="4"/><circle class="b953dd54-2d6e-4de6-a15e-c649ae1eced3" cx="523" cy="350" r="4"/><circle class="e4ad729a-e187-404d-b5b6-f916a2595f22" cx="395" cy="148" r="4"/><circle class="e4ad729a-e187-404d-b5b6-f916a2595f22" cx="332" cy="222" r="4"/><circle class="e4ad729a-e187-404d-b5b6-f916a2595f22" cx="523" cy="273" r="4"/><text class="e917d529-8b43-4a20-9184-dee3aa740c33" transform="translate(406 98.74)">Presidente: Rajoy<tspan x="0" y="18">PSOE: Sánchez</tspan><tspan x="0" y="36">Podemos: Iglesias</tspan><tspan x="0" y="54">Cs: Rivera</tspan></text></svg>