<svg id="c496034b-486e-4b1e-b111-82f82c40afb6" data-name="Capa 1" xmlns="http://www.w3.org/2000/svg" viewBox="0 0 565 640"><defs><style>.e4e15840-797d-4b52-95cb-5f79c766d677{fill:#f9f9f9;}.\31 057eb48-80d7-4b7b-af3f-9d6f3f57562e,.\32 498071f-f78d-4b94-ae81-492b133b4c09,.\32 bec0bf4-74fd-447c-b81f-8266862421c4,.\35 c5e652c-4555-4a09-a251-614c83345b20,.\35 ce722d7-90f7-4499-8e86-19142c213480,.\36 0f8ee3f-98a4-4fb4-94fe-76ec50ba54f5,.\36 94af84e-cad7-404f-81e0-eb2f6e819963,.\39 00e36f3-bf1f-486a-8a04-df9f5b458ba4,.d3e712d9-cb6b-45f5-b7a0-206cbc74a3e8,.e2ca7a14-4e4a-437e-a2c3-93431300031d,.f244abe4-3d8e-486c-bbf6-f87ea8f81119{fill:none;}.\36 0f8ee3f-98a4-4fb4-94fe-76ec50ba54f5{stroke:#e6e6e6;}.\31 057eb48-80d7-4b7b-af3f-9d6f3f57562e,.\32 4b4a8f3-6d79-419d-9f5c-9beb22cedd50{stroke:#323232;}.\36 94af84e-cad7-404f-81e0-eb2f6e819963{stroke:#91c43e;}.\32 498071f-f78d-4b94-ae81-492b133b4c09,.\35 ce722d7-90f7-4499-8e86-19142c213480,.\36 94af84e-cad7-404f-81e0-eb2f6e819963,.\39 00e36f3-bf1f-486a-8a04-df9f5b458ba4,.e2ca7a14-4e4a-437e-a2c3-93431300031d{stroke-linecap:round;stroke-linejoin:round;stroke-width:2px;}.\35 ce722d7-90f7-4499-8e86-19142c213480{stroke:#f49e20;}.\32 498071f-f78d-4b94-ae81-492b133b4c09{stroke:#4cbcbf;}.\39 00e36f3-bf1f-486a-8a04-df9f5b458ba4{stroke:#d65b70;}.e2ca7a14-4e4a-437e-a2c3-93431300031d{stroke:#a01f51;}.\37 8cddb4d-3ac5-41da-a4bb-6128db78256f{font-size:16px;}.\37 8cddb4d-3ac5-41da-a4bb-6128db78256f,.a9d77c63-4fd5-4042-af95-0466c9b0b83c,.afb7ef9c-dea3-4f75-8d35-64f34dff05fd,.f960f95c-969f-445a-83cd-c573dcdcce7e{fill:#757575;}.\37 8cddb4d-3ac5-41da-a4bb-6128db78256f,.a9d77c63-4fd5-4042-af95-0466c9b0b83c,.afb7ef9c-dea3-4f75-8d35-64f34dff05fd,.d4ff784d-4b2f-43c4-a827-c0ef1a2c0bf1,.e5295b9d-705c-475d-8b47-2e6dd4b93985,.f960f95c-969f-445a-83cd-c573dcdcce7e{font-family:ArialMT, Arial;}.bd97a05f-1fc7-45e5-988b-ccf5c417fdc3{font-size:19px;font-family:Arial-BoldMT, Arial;font-weight:700;}.dc8e9c60-5592-4028-a671-78a11c8466fa{letter-spacing:-0.06em;}.\32 bec0bf4-74fd-447c-b81f-8266862421c4,.\35 c5e652c-4555-4a09-a251-614c83345b20,.d3e712d9-cb6b-45f5-b7a0-206cbc74a3e8,.f244abe4-3d8e-486c-bbf6-f87ea8f81119{stroke:#757575;}.\35 c5e652c-4555-4a09-a251-614c83345b20,.d3e712d9-cb6b-45f5-b7a0-206cbc74a3e8,.f244abe4-3d8e-486c-bbf6-f87ea8f81119{stroke-width:0.5px;}.f244abe4-3d8e-486c-bbf6-f87ea8f81119{stroke-dasharray:5;}.d3e712d9-cb6b-45f5-b7a0-206cbc74a3e8{stroke-dasharray:5 5;}.f960f95c-969f-445a-83cd-c573dcdcce7e{font-size:14px;}.a9d77c63-4fd5-4042-af95-0466c9b0b83c,.e5295b9d-705c-475d-8b47-2e6dd4b93985{font-size:17px;}.\32 4b4a8f3-6d79-419d-9f5c-9beb22cedd50,.d4ff784d-4b2f-43c4-a827-c0ef1a2c0bf1,.e5295b9d-705c-475d-8b47-2e6dd4b93985{fill:#323232;}.d4ff784d-4b2f-43c4-a827-c0ef1a2c0bf1{font-size:15px;}.\31 8ef5e75-38be-4eb0-8d91-55b8bdfc26ae{fill:#b21420;}.\30 ba159a0-9c04-4ddb-8dad-c0470a2031de,.\31 8ef5e75-38be-4eb0-8d91-55b8bdfc26ae,.e11eee29-f22c-4c85-92e7-6f18bb04bf1e,.ec8005c0-e144-44be-bf54-b56b7c3ec96f,.f5fefbc2-2b79-43c4-8970-b8c0d22b41de{opacity:0.65;}.e11eee29-f22c-4c85-92e7-6f18bb04bf1e{fill:#4cbcbf;}.\30 ba159a0-9c04-4ddb-8dad-c0470a2031de{fill:#91c43e;}.ec8005c0-e144-44be-bf54-b56b7c3ec96f{fill:#a01f51;}.f5fefbc2-2b79-43c4-8970-b8c0d22b41de{fill:#f49e20;}.afb7ef9c-dea3-4f75-8d35-64f34dff05fd{font-size:12px;}.\36 449991d-d76d-4517-8a26-31594cfb8a43{letter-spacing:-0.07em;}</style></defs><title>2018.05_ValoracionLideres</title><rect class="e4e15840-797d-4b52-95cb-5f79c766d677" x="153.9" y="316.1" width="368.1" height="127.9" transform="translate(-42.1 718) rotate(-90)"/><rect class="e4e15840-797d-4b52-95cb-5f79c766d677" x="-111.1" y="317.1" width="367.1" height="124.9" transform="translate(-307.1 452) rotate(-90)"/><line class="60f8ee3f-98a4-4fb4-94fe-76ec50ba54f5" x1="9.9" y1="563.32" x2="555" y2="563.32"/><line class="60f8ee3f-98a4-4fb4-94fe-76ec50ba54f5" x1="9.9" y1="510.8" x2="555" y2="510.8"/><line class="60f8ee3f-98a4-4fb4-94fe-76ec50ba54f5" x1="9.9" y1="458.27" x2="555" y2="458.27"/><line class="60f8ee3f-98a4-4fb4-94fe-76ec50ba54f5" x1="9.9" y1="405.74" x2="555" y2="405.74"/><line class="60f8ee3f-98a4-4fb4-94fe-76ec50ba54f5" x1="9.9" y1="353.22" x2="555" y2="353.22"/><line class="1057eb48-80d7-4b7b-af3f-9d6f3f57562e" x1="9.9" y1="300.69" x2="555" y2="300.69"/><line class="60f8ee3f-98a4-4fb4-94fe-76ec50ba54f5" x1="9.9" y1="248.16" x2="555" y2="248.16"/><line class="60f8ee3f-98a4-4fb4-94fe-76ec50ba54f5" x1="9.9" y1="195.63" x2="555" y2="195.63"/><path class="694af84e-cad7-404f-81e0-eb2f6e819963" d="M27.9,328.1l1.39-31.61,2.83,12.61,1.44,3.15,1.3-9.45L37.7,296l1.44,13.66L40.53,317l4.27,3.68,1.44-16.81,1.39,24.69,7,7.35,7.1-8.4,5.71-8.4L70.25,327l15.51-34.14L87.2,319.6l1.39,2.1L90,262.34l4.27,17.33,2.83,40.45,7-26.26,1.39-29.42,5.71,29.94,2.83-8.93,2.83,23.64,1.44-15.23,1.3-1.05,2.83.53,5.71,16.28,1.39-3.15,2.83.53,2.88-4.73m2.78,2.63,1.39,10.51,2.83.53,4.27,27.84,4.27,6.83,4.18-5.78,4.23,5.25,4.27,26.26,4.27-26.26,4.18,1.05,4.23,2.1,4.27,12.08,4.27-20.49,4.18,13.66,4.23,26.26h4.27l21.27-18.91,4.18-3.68,4.23-7.35,4.27,3.68,4.27-2.63,4.18,3.68L244,372.13l4.27,4.73,4.27-23.64,4.18,12.08,4.23.53,4.27,11,8.5-39.92L278,362.67l16.95-5.25,4.27,5.25,4.27-4.73h4.18l4.23-5.25,4.27,12.08,4.27-28.36,4.18-3.15,4.23,7.35,4.27,4.73,4.27,32,2.79,3.15,1.44,7.35,4.23,2.63L350.1,400l4.27-20,4.18,9.45,4.23,10L367,401l4.27.53,4.18,3.68,4.23,8.4L384,401.54l4.27,2.1,4.18,4.2,4.23-3.68,4.27-46.22,1.44-13.66h2.83l4.22,11.56,4.23,9.45,4.27.53,4.27-6.3,4.18,18.91,4.23-3.68,4.27-11.56,4.27,4.73,4.18,17.33,4.23,2.1,4.27-6.83,4.27-2.63,4.18,5.25,4.23.53,4.27-5.78"/><path class="5ce722d7-90f7-4499-8e86-19142c213480" d="M468.78,301.74l4.27,55.68,4.22-3.68,1.39-9.45,2.83,11.56,4.27,13.66,4.27,6.83,8.4-6.3,4.27,5.25L507,352.69"/><path class="2498071f-f78d-4b94-ae81-492b133b4c09" d="M29.3,331.15h2.83l1.44.53,1.3-12.08,2.83,8.93,1.44,6.3,1.39,12.08,4.27-2.1,1.44-1.05,1.39,4.73,7,2.1,7.1-32,5.71,23.64,2.78,3.15L77.35,317l1.39,24.69,5.71-32.57,1.3,9.45,1.44,12.61,1.39,8.4L90,321.17l4.27-5.25,2.83,17.86,7-11,1.39,8.4L107,316.45l4.27,21,2.83,3.68,2.83,6.3,1.44-4.73,1.3-8.4,2.83-20.49,1.44-1.58,4.27,28.36,1.39,5.25,2.83-2.63L135.3,327l1.35-31,1.44,7.35,1.39-6.83,2.83,7.35,4.27,23.64,4.27-6.83,4.18-6.3,4.23-24.16,4.27,25.74,4.27-21.54L172,312.77l4.23,1.05,4.27-8.4,4.27-12.61,4.18,12.08,4.23,1.58,4.27,6.83,4.27-20.49,4.22-33.09,4.23,20,4.27-2.1,4.27,13.13,4.18-1.58,4.23,9.45,4.27-1.58,4.27-32,4.18,29.94L244,308.57l4.27,5.25,4.27,7.35,4.18,32.57L261,329.05l4.27-8.93,4.27-20.49,4.22,10L278,338.51l4.27-5.78,4.27-8.4,4.18,13.13,4.23-3.15L299.21,348h4.27l4.18,6.83,4.23,10.51,4.27,3.15,4.27,1.05,4.18-18.91,4.23,12.61,4.27,3.15,8.5-25.74,4.23,13.13,4.27,5.78L354.37,379l4.18-1.58,2.83-28.89,1.39,28.36L367,373.7l4.27,5.78L375.5,401l4.23-2.63L384,383.68,388.27,431l4.18-3.15,4.23-.53,4.27-13.13,1.44-1.05h2.83l4.22.53,4.23,5.25,4.27-.53,4.27,3.68,4.18,7.88,4.23-2.1,4.27-2.1,4.27,11,4.18-12.61,4.23,16.28,4.27,1.58,4.27,3.68,4.18-13.13,4.23-6.3,4.27-11,4.27-13.66,4.22,10L478.67,401l2.83-13.66,4.27,20,4.27-6.83,4.18,10,4.23,6.3,4.27-12.08,4.27,7.88"/><path class="900e36f3-bf1f-486a-8a04-df9f5b458ba4" d="M26.46,248.16l2.83,7.35,2.83-7.88,1.44,34.14,1.3-17.33,2.83-12.61,1.44,4.2,1.39-4.73,4.27,18.91,1.44-27.31,1.39,36.24,7-16.28h7.1l5.71-4.73L70.25,286l7.1,1.05,1.39,4.73,5.71-17.33,1.3,7.35,1.44,19.44,1.39,4.2L90,262.34l4.27,20,2.83,33.09,7,5.78,1.39,2.1L107,312.77l4.27,6.83,2.83-4.2,2.83,16.28,1.44-34.14,1.3,53.05,2.83-32,1.44-2.1,4.27,44.12,1.39-15.23,2.83-32.57L135.3,296l1.35-34.67L138.09,275l1.39,10.51,2.83,12.61,4.27-15.23,4.27,28.89L155,298.59l4.23-31,4.27,44.12,4.27-10,4.18-11L176.21,307l4.27,2.63,4.27-2.63,4.18,22.59,4.23-20.49,4.27,15.76,4.27-13.13,1.44-1.58,11.28-39.4h4.27l4.18,10,4.23-4.2,4.27,12.08,4.27-4.2,4.18,14.71,4.23-6.3,4.27-5.78,4.27,4.73,4.18,18.91,4.23-6.3,4.27,24.16,4.27-25.21,4.22-87.2L278,252.36l4.27,5.25,4.27,4.2,4.18,22.06,4.23-8.4L299.21,308l4.27-7.88,4.18-20,4.23,23.64,4.27,9.45,4.27-8.93,4.18-10,4.23,5.78,4.27,4.73,4.27-23.11,4.22-11.56,4.23,43.6,4.27,1.05,4.27,9.45,4.18,6.3,2.83-24.69L362.77,339l4.27,8.4,4.27,6.83,4.18,14.18,4.23,12.08,4.27,1.05,4.27,8.4,4.18-5.78,4.23-3.15,4.27,21.54,1.44-76.16,2.83,13.66,4.22,7.35,4.23,16.28,4.27,5.25,4.27,15.76,4.18,21,4.23-7.35,4.27,1.05,4.27,6.3,4.18,3.68,4.23-10,4.27-38.34L456.1,370l4.18,4.73,4.23-13.13h4.27l4.27,4.73,4.22.53,1.39-13.13,2.83,3.15,4.27,30.47,12.68-20,4.27,6.3L507,370"/><path class="e2ca7a14-4e4a-437e-a2c3-93431300031d" d="M468.78,360l4.27,4.73,4.22,32.57,1.39-13.13,2.83-3.68,4.27,13.66L490,412.57l8.4-6.83,4.27,2.63L507,429.91"/><text class="78cddb4d-3ac5-41da-a4bb-6128db78256f" transform="translate(36.9 612.1) rotate(-90)">1990</text><text class="78cddb4d-3ac5-41da-a4bb-6128db78256f" transform="translate(206.9 612.1) rotate(-90)">2000</text><text class="78cddb4d-3ac5-41da-a4bb-6128db78256f" transform="translate(173.9 612.1) rotate(-90)">1998</text><text class="78cddb4d-3ac5-41da-a4bb-6128db78256f" transform="translate(139.9 612.1) rotate(-90)">1996</text><text class="78cddb4d-3ac5-41da-a4bb-6128db78256f" transform="translate(106.9 612.1) rotate(-90)">1994</text><text class="78cddb4d-3ac5-41da-a4bb-6128db78256f" transform="translate(71.9 612.1) rotate(-90)">1992</text><text class="78cddb4d-3ac5-41da-a4bb-6128db78256f" transform="translate(377.9 614.1) rotate(-90)">2010</text><text class="78cddb4d-3ac5-41da-a4bb-6128db78256f" transform="translate(408.9 612.1) rotate(-90)">2012</text><text class="78cddb4d-3ac5-41da-a4bb-6128db78256f" transform="translate(443.9 612.1) rotate(-90)">2014</text><text class="78cddb4d-3ac5-41da-a4bb-6128db78256f" transform="translate(479.9 612.1) rotate(-90)">2016</text><text class="78cddb4d-3ac5-41da-a4bb-6128db78256f" transform="translate(342.9 612.1) rotate(-90)">2008</text><text class="78cddb4d-3ac5-41da-a4bb-6128db78256f" transform="translate(309.9 612.1) rotate(-90)">2006</text><text class="78cddb4d-3ac5-41da-a4bb-6128db78256f" transform="translate(276.9 612.1) rotate(-90)">2004</text><text class="78cddb4d-3ac5-41da-a4bb-6128db78256f" transform="translate(240.9 612.1) rotate(-90)">2002</text><text class="78cddb4d-3ac5-41da-a4bb-6128db78256f" transform="translate(509.9 612.1) rotate(-90)">2018</text><text class="bd97a05f-1fc7-45e5-988b-ccf5c417fdc3" transform="translate(8.34 17.6)"><tspan class="dc8e9c60-5592-4028-a671-78a11c8466fa">V</tspan><tspan x="11.62" y="0">aloración de los líderes políticos en el congreso desde 1990</tspan></text><line class="f244abe4-3d8e-486c-bbf6-f87ea8f81119" x1="9.9" y1="565.5" x2="9.9" y2="63.5"/><line class="f244abe4-3d8e-486c-bbf6-f87ea8f81119" x1="135.4" y1="564.1" x2="135.4" y2="100"/><line class="5c5e652c-4555-4a09-a251-614c83345b20" x1="402.4" y1="563.1" x2="402.4" y2="560.6"/><line class="d3e712d9-cb6b-45f5-b7a0-206cbc74a3e8" x1="402.4" y1="555.6" x2="402.4" y2="68.5"/><line class="5c5e652c-4555-4a09-a251-614c83345b20" x1="402.4" y1="66" x2="402.4" y2="63.5"/><line class="f244abe4-3d8e-486c-bbf6-f87ea8f81119" x1="274.4" y1="563.1" x2="274.4" y2="156.5"/><text class="f960f95c-969f-445a-83cd-c573dcdcce7e" transform="translate(19 70.02)">Presidente: González<tspan x="0" y="16.8">PP:</tspan><tspan class="dc8e9c60-5592-4028-a671-78a11c8466fa" x="22.57" y="16.8"> </tspan><tspan x="25.68" y="16.8">Aznar</tspan><tspan x="0" y="33.6">IU:</tspan><tspan class="dc8e9c60-5592-4028-a671-78a11c8466fa" x="17.89" y="33.6"> </tspan><tspan x="21.01" y="33.6">Anguita</tspan></text><text class="f960f95c-969f-445a-83cd-c573dcdcce7e" transform="translate(142 106.02)">Presidente:<tspan class="dc8e9c60-5592-4028-a671-78a11c8466fa" x="70.82" y="0"> </tspan><tspan x="73.94" y="0">Aznar</tspan><tspan x="0" y="16.8">PSOE:</tspan><tspan class="dc8e9c60-5592-4028-a671-78a11c8466fa" x="42.79" y="16.8"> </tspan><tspan x="45.91" y="16.8">Almunia y Borrell</tspan><tspan x="0" y="33.6">IU:</tspan><tspan class="dc8e9c60-5592-4028-a671-78a11c8466fa" x="17.89" y="33.6"> </tspan><tspan x="21.01" y="33.6">Anguita y Llamazares</tspan></text><text class="f960f95c-969f-445a-83cd-c573dcdcce7e" transform="translate(282 161.02)">Presidente: Zapatero <tspan x="0" y="16.8">PP: Rajoy</tspan><tspan x="0" y="33.6">IU: Llamazares y Lara</tspan></text><text class="f960f95c-969f-445a-83cd-c573dcdcce7e" transform="translate(409 70.02)">Presidente: Rajoy<tspan x="0" y="16.8">PSOE: Sánchez</tspan><tspan x="0" y="33.6">IU: Lara y Garzón</tspan><tspan x="0" y="50.4">Podemos: Iglesias</tspan><tspan x="0" y="67.2">Cs: Rivera</tspan></text><line class="2bec0bf4-74fd-447c-b81f-8266862421c4" x1="306.5" y1="64.5" x2="309.5" y2="64.5"/><line class="2bec0bf4-74fd-447c-b81f-8266862421c4" x1="233.5" y1="11.5" x2="236.5" y2="11.5"/><text class="e5295b9d-705c-475d-8b47-2e6dd4b93985" transform="translate(541 295.17)">5</text><text class="d4ff784d-4b2f-43c4-a827-c0ef1a2c0bf1" transform="translate(378 42.74)">PUNTUACIÓN SOBRE 10</text><text class="a9d77c63-4fd5-4042-af95-0466c9b0b83c" transform="translate(541 348.17)">4</text><text class="a9d77c63-4fd5-4042-af95-0466c9b0b83c" transform="translate(541 242.17)">6</text><text class="a9d77c63-4fd5-4042-af95-0466c9b0b83c" transform="translate(545 189.17)">7</text><text class="a9d77c63-4fd5-4042-af95-0466c9b0b83c" transform="translate(541 401.17)">3</text><text class="a9d77c63-4fd5-4042-af95-0466c9b0b83c" transform="translate(541 454.17)">2</text><text class="a9d77c63-4fd5-4042-af95-0466c9b0b83c" transform="translate(541 507.17)">1</text><text class="a9d77c63-4fd5-4042-af95-0466c9b0b83c" transform="translate(541 558.17)">0</text><circle class="18ef5e75-38be-4eb0-8d91-55b8bdfc26ae" cx="10" cy="64" r="4"/><circle class="18ef5e75-38be-4eb0-8d91-55b8bdfc26ae" cx="26" cy="248" r="4"/><circle class="18ef5e75-38be-4eb0-8d91-55b8bdfc26ae" cx="510" cy="371" r="4"/><circle class="e11eee29-f22c-4c85-92e7-6f18bb04bf1e" cx="10" cy="81" r="4"/><circle class="0ba159a0-9c04-4ddb-8dad-c0470a2031de" cx="10" cy="99" r="4"/><circle class="e11eee29-f22c-4c85-92e7-6f18bb04bf1e" cx="135" cy="101" r="4"/><circle class="18ef5e75-38be-4eb0-8d91-55b8bdfc26ae" cx="135" cy="118" r="4"/><circle class="0ba159a0-9c04-4ddb-8dad-c0470a2031de" cx="135" cy="136" r="4"/><circle class="0ba159a0-9c04-4ddb-8dad-c0470a2031de" cx="469" cy="379" r="4"/><circle class="18ef5e75-38be-4eb0-8d91-55b8bdfc26ae" cx="274" cy="156" r="4"/><circle class="e11eee29-f22c-4c85-92e7-6f18bb04bf1e" cx="274" cy="173" r="4"/><circle class="e11eee29-f22c-4c85-92e7-6f18bb04bf1e" cx="508" cy="413" r="4" transform="translate(64.18 894.3) rotate(-86.43)"/><circle class="e11eee29-f22c-4c85-92e7-6f18bb04bf1e" cx="29" cy="331" r="4" transform="translate(-303.16 339.34) rotate(-86.43)"/><circle class="0ba159a0-9c04-4ddb-8dad-c0470a2031de" cx="274" cy="191" r="4"/><circle class="e11eee29-f22c-4c85-92e7-6f18bb04bf1e" cx="402" cy="63" r="4"/><circle class="18ef5e75-38be-4eb0-8d91-55b8bdfc26ae" cx="402" cy="80" r="4"/><circle class="0ba159a0-9c04-4ddb-8dad-c0470a2031de" cx="402" cy="98" r="4"/><circle class="ec8005c0-e144-44be-bf54-b56b7c3ec96f" cx="402" cy="116" r="4"/><circle class="ec8005c0-e144-44be-bf54-b56b7c3ec96f" cx="507" cy="430" r="4"/><circle class="ec8005c0-e144-44be-bf54-b56b7c3ec96f" cx="469" cy="360" r="4"/><circle class="f5fefbc2-2b79-43c4-8970-b8c0d22b41de" cx="402" cy="134" r="4"/><circle class="f5fefbc2-2b79-43c4-8970-b8c0d22b41de" cx="507" cy="353" r="4"/><circle class="f5fefbc2-2b79-43c4-8970-b8c0d22b41de" cx="469" cy="303" r="4"/><line class="24b4a8f3-6d79-419d-9f5c-9beb22cedd50" x1="10" y1="48" x2="555" y2="48"/><text class="afb7ef9c-dea3-4f75-8d35-64f34dff05fd" transform="translate(9.67 636.26)">Fuente: Barómetro del CIS</text><text class="afb7ef9c-dea3-4f75-8d35-64f34dff05fd" transform="translate(384.02 636.26)">Laura<tspan class="dc8e9c60-5592-4028-a671-78a11c8466fa" x="30.69" y="0"> </tspan><tspan x="33.36" y="0" xml:space="preserve">Aragó  |  L</tspan><tspan class="dc8e9c60-5592-4028-a671-78a11c8466fa" x="88.51" y="0">A</tspan><tspan x="95.85" y="0"> </tspan><tspan class="6449991d-d76d-4517-8a26-31594cfb8a43" x="99.19" y="0">V</tspan><tspan x="106.3" y="0">ANGUARDI</tspan><tspan class="dc8e9c60-5592-4028-a671-78a11c8466fa" x="169.64" y="0">A</tspan></text><circle class="0ba159a0-9c04-4ddb-8dad-c0470a2031de" cx="26" cy="327" r="4"/></svg>