<svg id="7925ab32-d5a6-44e8-927c-67e0f6d1b3ac" data-name="Capa 1" xmlns="http://www.w3.org/2000/svg" viewBox="0 0 1629 990"><defs><style>.\31 f4fe991-275d-4057-87e3-f3640f98bf9e,.\33 ece6eec-b7fd-4ca5-b04a-0cad65aa49a0,.\34 ffe5d0d-a0d7-4936-ace0-847da72c9ad0,.ad83cdce-715a-4f73-9c09-8db245d09e98,.cc01dec9-240e-42aa-94d8-3e90d98eca04{fill:none;}.\34 ffe5d0d-a0d7-4936-ace0-847da72c9ad0{stroke:#828282;stroke-width:0.5px;}.\31 f4fe991-275d-4057-87e3-f3640f98bf9e,.\33 ece6eec-b7fd-4ca5-b04a-0cad65aa49a0,.\34 ffe5d0d-a0d7-4936-ace0-847da72c9ad0,.\37 6f98a7d-c322-4d8b-8654-5dc67857df97,.\38 5d8a5e1-c915-4bc8-b93e-18a21bd8996c,.\39 7fcef01-4445-4d04-a271-a881a204956f,.ad83cdce-715a-4f73-9c09-8db245d09e98,.cc01dec9-240e-42aa-94d8-3e90d98eca04,.e7934d34-5a23-479d-a583-27787f61e4cd,.e9ac1cbb-8c47-40f2-8979-b7940738dd6b{stroke-miterlimit:10;}.db98f234-f992-4cf3-b39e-e335325d607f,.f33519d7-a926-4db5-be32-0d6270009404{font-size:30px;}.f33519d7-a926-4db5-be32-0d6270009404{fill:#757576;}.b8116f01-7c36-47fc-9298-ec33eea9e6d4,.db98f234-f992-4cf3-b39e-e335325d607f,.f33519d7-a926-4db5-be32-0d6270009404{font-family:Arial-BoldMT, Arial;}.b8116f01-7c36-47fc-9298-ec33eea9e6d4,.f33519d7-a926-4db5-be32-0d6270009404,.f775905d-cf08-441b-9818-aeabb09a047f{font-weight:700;}.b509d7ca-b7f4-494e-89db-e0ff8ce9b1b0{font-size:27px;}.b509d7ca-b7f4-494e-89db-e0ff8ce9b1b0,.c9522e72-32b2-41d8-beb4-6989342b2943,.db98f234-f992-4cf3-b39e-e335325d607f,.f3a3643f-3a75-44ed-b181-561599abac1b{fill:#747474;}.b509d7ca-b7f4-494e-89db-e0ff8ce9b1b0,.f3a3643f-3a75-44ed-b181-561599abac1b{font-family:ArialNarrow, Arial;}.\39 d36eabd-d2c2-4f6d-a447-818031db1867{letter-spacing:-0.03em;}.\32 adb47a7-2a8b-4d9b-ab37-9e8ed9719d88{opacity:0.52;}.\37 6f98a7d-c322-4d8b-8654-5dc67857df97,.\38 5d8a5e1-c915-4bc8-b93e-18a21bd8996c,.\39 7fcef01-4445-4d04-a271-a881a204956f,.e7934d34-5a23-479d-a583-27787f61e4cd,.e9ac1cbb-8c47-40f2-8979-b7940738dd6b{fill:#538f92;stroke:#48756f;}.\33 ece6eec-b7fd-4ca5-b04a-0cad65aa49a0{stroke:#747474;}.\33 ece6eec-b7fd-4ca5-b04a-0cad65aa49a0,.\37 6f98a7d-c322-4d8b-8654-5dc67857df97{opacity:0.42;}.ad83cdce-715a-4f73-9c09-8db245d09e98{stroke:#a8a8a8;}.\33 3e367cf-5040-42ef-b833-b5c1766f2273,.\36 335b105-c91c-4589-933a-cb65d7d13c29,.c9522e72-32b2-41d8-beb4-6989342b2943{font-size:24px;}.\33 3e367cf-5040-42ef-b833-b5c1766f2273,.b8c16004-c11a-454c-9e8d-0ad2ebaca337,.c9522e72-32b2-41d8-beb4-6989342b2943{font-family:ArialMT, Arial;}.\33 467f2c5-c979-453e-baf5-92c1baaa8285{letter-spacing:-0.04em;}.dd544871-de5f-48f3-b388-fcc86886d902{fill:#283659;}.\32 15b9e8e-2434-4b2e-a414-149e6868c44f{fill:#fff;}.\35 9ee4b18-d246-4322-98cf-f8a74df7a55e{letter-spacing:-0.02em;}.\35 6fcc20a-015e-4c96-acef-82f2aef55144{letter-spacing:-0.11em;}.e9ac1cbb-8c47-40f2-8979-b7940738dd6b{opacity:0.38;}.\39 7fcef01-4445-4d04-a271-a881a204956f{opacity:0.46;}.e7934d34-5a23-479d-a583-27787f61e4cd{opacity:0.71;}.cc01dec9-240e-42aa-94d8-3e90d98eca04{stroke:#c0bfbf;}.\31 f4fe991-275d-4057-87e3-f3640f98bf9e,.cc01dec9-240e-42aa-94d8-3e90d98eca04{opacity:0.6;}.f3a3643f-3a75-44ed-b181-561599abac1b{font-size:22px;}.\31 f4fe991-275d-4057-87e3-f3640f98bf9e{stroke:#cbcbcb;}</style></defs><title>2018.05.30_Ebola_segonav</title><line class="4ffe5d0d-a0d7-4936-ace0-847da72c9ad0" x1="79" y1="299" x2="1603.67" y2="299"/><text class="f33519d7-a926-4db5-be32-0d6270009404" transform="translate(45.63 124.74)">2015</text><text class="f33519d7-a926-4db5-be32-0d6270009404" transform="translate(618.63 121.56)">2016</text><text class="f33519d7-a926-4db5-be32-0d6270009404" transform="translate(1191.63 126.07)">2017</text><text class="b509d7ca-b7f4-494e-89db-e0ff8ce9b1b0" transform="translate(48 216.97)">ENERO</text><text class="b509d7ca-b7f4-494e-89db-e0ff8ce9b1b0" transform="translate(321.75 218.33)">JULIO</text><text class="b509d7ca-b7f4-494e-89db-e0ff8ce9b1b0" transform="translate(181.5 217.33)">ABRI<tspan class="9d36eabd-d2c2-4f6d-a447-818031db1867" x="51.67" y="0">L</tspan></text><text class="b509d7ca-b7f4-494e-89db-e0ff8ce9b1b0" transform="translate(454.88 217.33)">OCTUBRE</text><g class="2adb47a7-2a8b-4d9b-ab37-9e8ed9719d88"><path class="85d8a5e1-c915-4bc8-b93e-18a21bd8996c" d="M71.68,278.24A20.76,20.76,0,1,1,50.91,299a20.76,20.76,0,0,1,20.76-20.76h0"/><path class="85d8a5e1-c915-4bc8-b93e-18a21bd8996c" d="M101,293a6,6,0,0,1,6,6c-.3,4.3-2.74,6.19-6,6a6,6,0,0,1,0-12h0"/><path class="85d8a5e1-c915-4bc8-b93e-18a21bd8996c" d="M124,285.6a13.4,13.4,0,1,1-13.4,13.4A13.4,13.4,0,0,1,124,285.6h0"/><path class="85d8a5e1-c915-4bc8-b93e-18a21bd8996c" d="M152,293a6,6,0,1,1-6,6,6,6,0,0,1,6-6h0"/><path class="85d8a5e1-c915-4bc8-b93e-18a21bd8996c" d="M162.83,293a6,6,0,1,1-6,6,6,6,0,0,1,6-6h0"/><path class="85d8a5e1-c915-4bc8-b93e-18a21bd8996c" d="M195.24,293a6,6,0,1,1-6,6,6,6,0,0,1,6-6h0"/><path class="85d8a5e1-c915-4bc8-b93e-18a21bd8996c" d="M321.75,293a6,6,0,1,1-6,6,6,6,0,0,1,6-6h0"/><path class="85d8a5e1-c915-4bc8-b93e-18a21bd8996c" d="M572.88,228.84A70.16,70.16,0,1,1,502.72,299a70.16,70.16,0,0,1,70.16-70.16h0"/><path class="85d8a5e1-c915-4bc8-b93e-18a21bd8996c" d="M732.52,293a6,6,0,1,1-6,6,6,6,0,0,1,6-6h0"/><path class="85d8a5e1-c915-4bc8-b93e-18a21bd8996c" d="M785,263.54A35.46,35.46,0,1,1,749.54,299,35.46,35.46,0,0,1,785,263.54h0"/><path class="85d8a5e1-c915-4bc8-b93e-18a21bd8996c" d="M917,288.62A10.38,10.38,0,1,1,906.62,299,10.38,10.38,0,0,1,917,288.62h0"/><path class="85d8a5e1-c915-4bc8-b93e-18a21bd8996c" d="M987,243.09A55.91,55.91,0,1,1,931.09,299,55.91,55.91,0,0,1,987,243.09h0"/><path class="85d8a5e1-c915-4bc8-b93e-18a21bd8996c" d="M1051.62,293a6,6,0,1,1-6,6,6,6,0,0,1,6-6h0"/><path class="85d8a5e1-c915-4bc8-b93e-18a21bd8996c" d="M1067.45,293a6,6,0,1,1-6,6,6,6,0,0,1,6-6h0"/><path class="85d8a5e1-c915-4bc8-b93e-18a21bd8996c" d="M1145,288.62A10.38,10.38,0,1,1,1134.64,299,10.38,10.38,0,0,1,1145,288.62h0"/><path class="85d8a5e1-c915-4bc8-b93e-18a21bd8996c" d="M1177.81,278.24A20.76,20.76,0,1,1,1157,299a20.76,20.76,0,0,1,20.76-20.76h0"/><path class="85d8a5e1-c915-4bc8-b93e-18a21bd8996c" d="M1207,293a6,6,0,1,1-6,6,6,6,0,0,1,6-6h0"/><path class="85d8a5e1-c915-4bc8-b93e-18a21bd8996c" d="M1219,293a6,6,0,1,1-6,6,6,6,0,0,1,6-6h0"/><path class="85d8a5e1-c915-4bc8-b93e-18a21bd8996c" d="M1330.48,290.52A8.48,8.48,0,1,1,1322,299a8.48,8.48,0,0,1,8.48-8.48h0"/><path class="85d8a5e1-c915-4bc8-b93e-18a21bd8996c" d="M1427.36,270.25A28.75,28.75,0,1,1,1398.62,299a28.75,28.75,0,0,1,28.75-28.75h0"/><path class="85d8a5e1-c915-4bc8-b93e-18a21bd8996c" d="M1510,279.12A19.88,19.88,0,1,1,1490.12,299,19.88,19.88,0,0,1,1510,279.12h0"/><path class="85d8a5e1-c915-4bc8-b93e-18a21bd8996c" d="M1540.58,293a6,6,0,1,1-6,6,6,6,0,0,1,6-6h0"/><path class="85d8a5e1-c915-4bc8-b93e-18a21bd8996c" d="M1581.26,268.81a28.11,28.11,0,1,1-28.11,28.11,28.11,28.11,0,0,1,28.11-28.11h0"/></g><text class="b509d7ca-b7f4-494e-89db-e0ff8ce9b1b0" transform="translate(619 217.33)">ENERO</text><text class="b509d7ca-b7f4-494e-89db-e0ff8ce9b1b0" transform="translate(781.15 217.33)">ABRI<tspan class="9d36eabd-d2c2-4f6d-a447-818031db1867" x="51.67" y="0">L</tspan></text><text class="b509d7ca-b7f4-494e-89db-e0ff8ce9b1b0" transform="translate(920 217.33)">JULIO</text><text class="b509d7ca-b7f4-494e-89db-e0ff8ce9b1b0" transform="translate(1041 217.33)">OCTUBRE</text><text class="b509d7ca-b7f4-494e-89db-e0ff8ce9b1b0" transform="translate(1198.81 217.33)">ENERO</text><text class="b509d7ca-b7f4-494e-89db-e0ff8ce9b1b0" transform="translate(1351.67 217.33)">ABRI<tspan class="9d36eabd-d2c2-4f6d-a447-818031db1867" x="51.67" y="0">L</tspan></text><line class="3ece6eec-b7fd-4ca5-b04a-0cad65aa49a0" x1="76" y1="142.11" x2="76" y2="191.6"/><line class="3ece6eec-b7fd-4ca5-b04a-0cad65aa49a0" x1="217" y1="142.11" x2="217" y2="191.6"/><line class="3ece6eec-b7fd-4ca5-b04a-0cad65aa49a0" x1="649" y1="142.11" x2="649" y2="191.6"/><line class="3ece6eec-b7fd-4ca5-b04a-0cad65aa49a0" x1="805" y1="141.59" x2="805" y2="191.09"/><line class="3ece6eec-b7fd-4ca5-b04a-0cad65aa49a0" x1="1081" y1="142.11" x2="1081" y2="191.6"/><line class="3ece6eec-b7fd-4ca5-b04a-0cad65aa49a0" x1="1222" y1="142.59" x2="1222" y2="192.09"/><line class="3ece6eec-b7fd-4ca5-b04a-0cad65aa49a0" x1="118" y1="141.59" x2="118" y2="166.34"/><line class="3ece6eec-b7fd-4ca5-b04a-0cad65aa49a0" x1="165" y1="142.11" x2="165" y2="166.86"/><line class="3ece6eec-b7fd-4ca5-b04a-0cad65aa49a0" x1="307" y1="142.11" x2="307" y2="166.86"/><line class="3ece6eec-b7fd-4ca5-b04a-0cad65aa49a0" x1="402" y1="141.59" x2="402" y2="166.34"/><line class="3ece6eec-b7fd-4ca5-b04a-0cad65aa49a0" x1="753" y1="141.59" x2="753" y2="166.34"/><line class="3ece6eec-b7fd-4ca5-b04a-0cad65aa49a0" x1="703" y1="142.11" x2="703" y2="166.86"/><line class="3ece6eec-b7fd-4ca5-b04a-0cad65aa49a0" x1="854" y1="142.59" x2="854" y2="167.34"/><line class="3ece6eec-b7fd-4ca5-b04a-0cad65aa49a0" x1="994" y1="142.11" x2="994" y2="166.86"/><line class="3ece6eec-b7fd-4ca5-b04a-0cad65aa49a0" x1="1128" y1="142.11" x2="1128" y2="166.86"/><line class="3ece6eec-b7fd-4ca5-b04a-0cad65aa49a0" x1="1174" y1="142.11" x2="1174" y2="166.86"/><line class="3ece6eec-b7fd-4ca5-b04a-0cad65aa49a0" x1="1271" y1="141.59" x2="1271" y2="166.34"/><line class="3ece6eec-b7fd-4ca5-b04a-0cad65aa49a0" x1="602" y1="142.11" x2="602" y2="166.86"/><line class="3ece6eec-b7fd-4ca5-b04a-0cad65aa49a0" x1="261" y1="142.11" x2="261" y2="166.86"/><line class="3ece6eec-b7fd-4ca5-b04a-0cad65aa49a0" x1="452" y1="142.11" x2="452" y2="166.86"/><line class="3ece6eec-b7fd-4ca5-b04a-0cad65aa49a0" x1="551" y1="141.59" x2="551" y2="166.34"/><line class="3ece6eec-b7fd-4ca5-b04a-0cad65aa49a0" x1="353" y1="142.11" x2="353" y2="191.6"/><line class="3ece6eec-b7fd-4ca5-b04a-0cad65aa49a0" x1="503" y1="142.11" x2="503" y2="191.6"/><line class="3ece6eec-b7fd-4ca5-b04a-0cad65aa49a0" x1="901" y1="142.11" x2="901" y2="166.86"/><line class="3ece6eec-b7fd-4ca5-b04a-0cad65aa49a0" x1="951" y1="142.59" x2="951" y2="192.09"/><line class="3ece6eec-b7fd-4ca5-b04a-0cad65aa49a0" x1="1038" y1="142.59" x2="1038" y2="167.34"/><line class="3ece6eec-b7fd-4ca5-b04a-0cad65aa49a0" x1="1322" y1="141.59" x2="1322" y2="166.34"/><line class="3ece6eec-b7fd-4ca5-b04a-0cad65aa49a0" x1="1373" y1="142.59" x2="1373" y2="192.09"/><line class="3ece6eec-b7fd-4ca5-b04a-0cad65aa49a0" x1="1419" y1="142.59" x2="1419" y2="167.34"/><line class="3ece6eec-b7fd-4ca5-b04a-0cad65aa49a0" x1="1464.33" y1="142.59" x2="1464.33" y2="167.34"/><line class="3ece6eec-b7fd-4ca5-b04a-0cad65aa49a0" x1="1510" y1="142.59" x2="1510" y2="192.09"/><line class="3ece6eec-b7fd-4ca5-b04a-0cad65aa49a0" x1="1555.33" y1="142.59" x2="1555.33" y2="167.34"/><line class="3ece6eec-b7fd-4ca5-b04a-0cad65aa49a0" x1="1600.67" y1="142.11" x2="1600.67" y2="166.86"/><line class="ad83cdce-715a-4f73-9c09-8db245d09e98" x1="572.88" y1="368.53" x2="572.88" y2="486.03"/><line class="ad83cdce-715a-4f73-9c09-8db245d09e98" x1="987" y1="354.91" x2="987" y2="470"/><line class="ad83cdce-715a-4f73-9c09-8db245d09e98" x1="1581.53" y1="322.19" x2="1581" y2="793.15"/><line class="ad83cdce-715a-4f73-9c09-8db245d09e98" x1="1427.36" y1="327.75" x2="1427" y2="631"/><line class="ad83cdce-715a-4f73-9c09-8db245d09e98" x1="72" y1="316.13" x2="71.35" y2="657.09"/><text class="db98f234-f992-4cf3-b39e-e335325d607f" transform="translate(78 592.54)"><tspan class="f775905d-cf08-441b-9818-aeabb09a047f">París - Charlie Hebdo</tspan><tspan class="33e367cf-5040-42ef-b833-b5c1766f2273"><tspan x="0" y="35">7 de enero de 2015</tspan><tspan x="0" y="62">12 muertos y 12 heridos</tspan></tspan></text><text class="db98f234-f992-4cf3-b39e-e335325d607f" transform="translate(268.35 421.48)"><tspan class="f775905d-cf08-441b-9818-aeabb09a047f">París - Sala Bataclán</tspan><tspan class="33e367cf-5040-42ef-b833-b5c1766f2273"><tspan x="22.95" y="36">13 de noviembre de 2015</tspan><tspan x="10.98" y="63">130 muertos y 352 heridos</tspan></tspan></text><text class="db98f234-f992-4cf3-b39e-e335325d607f" transform="translate(463.37 676.56)"><tspan class="f775905d-cf08-441b-9818-aeabb09a047f">Bruselas -<tspan class="3467f2c5-c979-453e-baf5-92c1baaa8285" x="145.06" y="0"> </tspan><tspan x="152.29" y="0">Aeropuerto </tspan></tspan><tspan class="33e367cf-5040-42ef-b833-b5c1766f2273"><tspan x="87.13" y="36">22 de marzo de 2016</tspan></tspan><tspan class="6335b105-c91c-4589-933a-cb65d7d13c29"><tspan class="f775905d-cf08-441b-9818-aeabb09a047f" x="29.8" y="62" xml:space="preserve">  </tspan><tspan class="b8c16004-c11a-454c-9e8d-0ad2ebaca337" x="43.14" y="62">31 muertos y 200 heridos</tspan></tspan></text><text class="db98f234-f992-4cf3-b39e-e335325d607f" transform="translate(864.64 566.45)"><tspan class="f775905d-cf08-441b-9818-aeabb09a047f"><tspan xml:space="preserve"> Manchester - Concierto</tspan><tspan class="3467f2c5-c979-453e-baf5-92c1baaa8285" x="341.73" y="0"> </tspan><tspan x="348.96" y="0">Ariana Grande</tspan></tspan><tspan class="33e367cf-5040-42ef-b833-b5c1766f2273"><tspan x="336.85" y="36">22 de mayo de 2017</tspan><tspan x="291.55" y="62" xml:space="preserve"> 22 muertos y</tspan><tspan class="b8116f01-7c36-47fc-9298-ec33eea9e6d4" x="436.94" y="62"> </tspan><tspan x="443.61" y="62">59 heridos</tspan></tspan></text><text class="db98f234-f992-4cf3-b39e-e335325d607f" transform="translate(1264.35 728.6)"><tspan class="f775905d-cf08-441b-9818-aeabb09a047f">Barcelona y Cambrils</tspan><tspan class="33e367cf-5040-42ef-b833-b5c1766f2273"><tspan x="74.59" y="36">17 de agosto de 2017</tspan><tspan x="29.31" y="62" xml:space="preserve"> 16 muertos y 132 heridos</tspan></tspan></text><polygon class="dd544871-de5f-48f3-b388-fcc86886d902" points="1369.39 936.77 1617.77 936.77 1617.77 974.51 1369.39 974.51 1369.39 936.77 1369.39 936.77"/><path class="215b9e8e-2434-4b2e-a414-149e6868c44f" d="M1568.66,945.2h-9.52v1.19l2.5.59v17.57a2.08,2.08,0,0,1-1.75.88,3.73,3.73,0,0,1-3.09-2.27l-2.38-4.26a4.93,4.93,0,0,0-4.35-2.93v-.29c3.18-.08,6-2.34,6-5.42,0-3.65-3.32-5.08-7.16-5.08h-8.64v1.19l2.82.59v17.8h0l-3.25.62-8.09-22.06a10.16,10.16,0,0,1-2.92,2.49l.31.89-7.38,18.08-2.23.6v1.19h6.72v-1.19l-2.2-.57,2.5-6.59h6.85l2.4,6.54-2.58.62v1.19h16.38v-1.19l-2.76-.58v-8.29c1.86.12,2.75,1,3.65,2.68l3.25,5.8a5.25,5.25,0,0,0,4.7,2.85,4.65,4.65,0,0,0,3.08-1.27h7.34c6.24,0,11.3-4.79,11.3-10.7,0-6.24-4.83-10.7-11.5-10.7Zm-41.56,11.38,2.9-7.6,2.79,7.6Zm21.2-1.61h-1.46v-8h1.83a3.6,3.6,0,0,1,3.75,3.82,4.15,4.15,0,0,1-4.11,4.16Zm20.14,9.86h-3.05V947h3.14c4.86,0,7.84,3.36,7.84,8.92s-3.11,8.92-7.92,8.92Z"/><path class="215b9e8e-2434-4b2e-a414-149e6868c44f" d="M1412.45,964.83l-7.91-21.49a10.15,10.15,0,0,1-2.92,2.49l.31.89-7.38,18.08-1.58.6-.47,1.19H1399v-1.19l-2.2-.57,2.5-6.59h6.85l2.4,6.54-2.58.62v1.19h8.79v-1.19l-2.34-.58Zm-12.56-8.25,2.9-7.6,2.79,7.6Z"/><polygon class="215b9e8e-2434-4b2e-a414-149e6868c44f" points="1393.6 961.17 1392.8 960.73 1388.17 964.94 1384.22 964.94 1384.22 947 1386.59 946.39 1386.59 945.2 1378.07 945.2 1378.07 946.39 1380.47 947 1380.47 964.8 1378.07 965.41 1378.07 966.6 1391.47 966.6 1393.6 961.17 1393.6 961.17"/><polygon class="215b9e8e-2434-4b2e-a414-149e6868c44f" points="1430.78 945.2 1430.78 946.39 1433.36 947 1427.76 961.32 1421.87 946.97 1424.65 946.39 1424.65 945.2 1415.14 945.2 1415.14 946.39 1417.86 946.99 1426.31 967.35 1427.22 967.35 1435.64 947.02 1435.71 947.02 1438.35 946.39 1438.35 945.2 1430.78 945.2 1430.78 945.2"/><path class="215b9e8e-2434-4b2e-a414-149e6868c44f" d="M1515.17,945.2v1.19l2.56.6s.19,10.6.1,13.29c-.11,3.13-2.55,5.23-5.76,5.23s-5.67-2-5.76-5.5V947l2.49-.56V945.2h-8.6v1.19l2.44.58v13.15c.16,4.52,3.81,7.49,8.51,7.49s8.34-2.75,8.51-7.49l.17-13.13,2.51-.6V945.2Z"/><path class="215b9e8e-2434-4b2e-a414-149e6868c44f" d="M1608.16,964.79l-7.87-21.44a10.15,10.15,0,0,1-2.92,2.49l.31.89-7.4,18.17-1.26.51-1.7-.54V947l2.62-.6V945.2h-9v1.19l2.59.61v17.82l-2.48.58v1.19h13.7v-1.19l-2.2-.57,2.5-6.59h6.85l2.4,6.54-2.58.62v1.19h8.79v-1.19l-2.38-.62Zm-12.53-8.21,2.9-7.6,2.79,7.6Z"/><path class="215b9e8e-2434-4b2e-a414-149e6868c44f" d="M1469.19,945.2v1.19l2.61.61.16,14-13.41-15.81h-5.73v1.19l2.59.57.22.11-.19,17.7h0l-2.64.62-8.09-22.06a10.16,10.16,0,0,1-2.92,2.49l.31.89-7.38,18.08-2.23.6v1.19h6.72v-1.19l-2.2-.57,2.5-6.59h6.85l2.4,6.54-2.58.62v1.19h14.07v-1.19l-2.76-.6-.17-15.49,15.33,18h1l.2-20.36,2.6-.59V945.2Zm-29.14,11.38,2.9-7.6,2.79,7.6Z"/><path class="215b9e8e-2434-4b2e-a414-149e6868c44f" d="M1491.72,955.66v1.19l2.42.61v6.89a8,8,0,0,1-4.84,1.61c-4.87,0-8-4.1-8-9.77,0-5.51,3.06-10.21,8-10.21a7.63,7.63,0,0,1,7.16,5.83l.69-.41v-6.76l-.62-.34-1.3,1.64a13.51,13.51,0,0,0-5.93-1.51,12,12,0,0,0-12,11.79c0,6.67,4.71,11.41,11.1,11.41a11.05,11.05,0,0,0,6.9-2.3l1.89,1.26h.61v-9.19l2-.77v-1Z"/><text class="c9522e72-32b2-41d8-beb4-6989342b2943" transform="translate(13.67 973.56)">Fuente: Global<tspan class="59ee4b18-d246-4322-98cf-f8a74df7a55e" x="157.43" y="0"> </tspan><tspan class="56fcc20a-015e-4c96-acef-82f2aef55144" x="163.66" y="0">T</tspan><tspan x="175.66" y="0">errorism Database y Peace</tspan><tspan class="56fcc20a-015e-4c96-acef-82f2aef55144" x="466.45" y="0">T</tspan><tspan x="478.45" y="0">ech Lab.</tspan></text><text class="b509d7ca-b7f4-494e-89db-e0ff8ce9b1b0" transform="translate(30.75 760.44)">Número de fallecidos </text><path class="e9ac1cbb-8c47-40f2-8979-b7940738dd6b" d="M106.5,780.47a70.16,70.16,0,1,1-70.16,70.16,70.16,70.16,0,0,1,70.16-70.16h0"/><path class="76f98a7d-c322-4d8b-8654-5dc67857df97" d="M106.46,799.48a60.81,60.81,0,1,1-60.81,60.81,60.81,60.81,0,0,1,60.81-60.81h0"/><path class="97fcef01-4445-4d04-a271-a881a204956f" d="M106.5,843.29a39.35,39.35,0,1,1-39.35,39.35,39.35,39.35,0,0,1,39.35-39.35h0"/><path class="e7934d34-5a23-479d-a583-27787f61e4cd" d="M107.57,872.36a24.38,24.38,0,1,1-24.38,24.38,24.38,24.38,0,0,1,24.38-24.38h0"/><path class="85d8a5e1-c915-4bc8-b93e-18a21bd8996c" d="M106.5,909.18a6,6,0,1,1-6,6,6,6,0,0,1,6-6h0"/><line class="cc01dec9-240e-42aa-94d8-3e90d98eca04" x1="107.5" y1="780.47" x2="252.99" y2="780.47"/><line class="cc01dec9-240e-42aa-94d8-3e90d98eca04" x1="105.91" y1="921.78" x2="251.4" y2="921.78"/><text class="f3a3643f-3a75-44ed-b181-561599abac1b" transform="translate(258.17 789.61)">130</text><line class="cc01dec9-240e-42aa-94d8-3e90d98eca04" x1="106.5" y1="799.36" x2="251.99" y2="799.36"/><line class="cc01dec9-240e-42aa-94d8-3e90d98eca04" x1="106.25" y1="842.43" x2="251.75" y2="842.43"/><line class="1f4fe991-275d-4057-87e3-f3640f98bf9e" x1="105.91" y1="871.37" x2="251.4" y2="871.37"/><text class="f3a3643f-3a75-44ed-b181-561599abac1b" transform="translate(259.17 815.61)">100</text><text class="f3a3643f-3a75-44ed-b181-561599abac1b" transform="translate(261.31 849.68)">50</text><text class="f3a3643f-3a75-44ed-b181-561599abac1b" transform="translate(262.31 924.42)">1</text><text class="f3a3643f-3a75-44ed-b181-561599abac1b" transform="translate(261.31 874.89)">25</text></svg>