<svg id="2e86908c-a0e9-4f7e-b954-e642a663fa17" data-name="Capa 1" xmlns="http://www.w3.org/2000/svg" viewBox="0 0 543 555"><defs><style>.\32 d6ad6a6-6e6c-4149-8a9d-140f40b083df,.\34 6c939a5-d111-4814-9cb5-986d18ec018b,.\39 4fb1277-5c70-409e-b3ba-a537ac480468,.fc898c3f-01f7-4a17-9def-c819b839e682{fill:none;}.\34 6c939a5-d111-4814-9cb5-986d18ec018b{stroke:#757575;}.\30 4f7daf2-73fe-495b-8886-05eb37695c48,.\30 c4b80a8-c0f5-4dcd-bc1f-4f5cd4dda64b,.\32 d6ad6a6-6e6c-4149-8a9d-140f40b083df,.\32 f2a7ff3-9a49-4c32-81d7-902bd2278a0c,.\34 6c939a5-d111-4814-9cb5-986d18ec018b,.\38 ae20390-3334-4383-952a-0c2a5b9a02d7,.\39 4fb1277-5c70-409e-b3ba-a537ac480468,.\39 dda91fb-cd05-4eab-ac1c-9ca9d71d58b1,.aa3943cd-77bc-4e34-ae7c-e3fb0e2e35d5,.df663709-fc5b-4eeb-a4a9-ea5bdb3665e5,.fc898c3f-01f7-4a17-9def-c819b839e682,.fce491a7-d12c-44b5-90a9-cb9f6b9d5e36{stroke-miterlimit:10;}.e97489ad-c9ac-4b90-bcc3-d84100b8acd0{font-size:16px;}.\35 d8f3531-af99-4cf4-ab35-73ef34952804,.\38 d12917a-0070-4007-a3bd-049505ec2c77,.\39 dda91fb-cd05-4eab-ac1c-9ca9d71d58b1,.dbaf1d9d-e41a-4085-bf98-50b8469aaaf0,.e97489ad-c9ac-4b90-bcc3-d84100b8acd0{fill:#757575;}.\34 2dba75f-b68e-4c53-8b8a-81b64de9a181,.\38 d12917a-0070-4007-a3bd-049505ec2c77,.\39 ee66a78-ca94-40d3-89ba-ea629c04c670,.e97489ad-c9ac-4b90-bcc3-d84100b8acd0,.fe64ed4b-688e-4e7f-81ae-5ceaccf88983{font-family:ArialMT, Arial;}.\38 d12917a-0070-4007-a3bd-049505ec2c77{font-size:13px;}.\35 d8f3531-af99-4cf4-ab35-73ef34952804,.dbaf1d9d-e41a-4085-bf98-50b8469aaaf0{font-size:15px;}.\35 d8f3531-af99-4cf4-ab35-73ef34952804,.\36 13cd6c8-275c-4f68-808a-b9aa45e37329,.b8574f7b-2ac2-4668-a52d-8ad51c7ea3a6,.dbaf1d9d-e41a-4085-bf98-50b8469aaaf0{font-family:Arial-BoldMT, Arial;}.\35 d8f3531-af99-4cf4-ab35-73ef34952804,.\36 56ab719-f4a7-4b4b-979c-619d4a94a536,.af3f04d7-ca7c-40b9-b614-be21eee7e364,.b8574f7b-2ac2-4668-a52d-8ad51c7ea3a6,.c0c129c4-f41d-40ff-be73-c4351c41883a,.c34826b2-af78-4e14-9251-8ffc85f8c2f9,.c6c3e29d-422a-4e07-a456-1489e9e5dcb7{font-weight:700;}.\34 51dbbc3-cd21-4b03-a3ac-3db3b3d9a96e{letter-spacing:-0.02em;}.c6fda5f3-c67a-42ce-b95d-4e39f8c21aa1{letter-spacing:-0.07em;}.eeb7c821-bb82-47d0-8575-be1e4d038623{letter-spacing:-0.02em;}.fc898c3f-01f7-4a17-9def-c819b839e682{stroke:#d6d6d6;}.b8574f7b-2ac2-4668-a52d-8ad51c7ea3a6{font-size:26px;}.\36 13cd6c8-275c-4f68-808a-b9aa45e37329,.b8574f7b-2ac2-4668-a52d-8ad51c7ea3a6{fill:#323232;}.\34 f64d035-6119-4e61-a82b-46feffd9d0d5{fill:#283659;}.ebded813-14e7-42d8-a0f7-4d893a49cf16{fill:#fff;}.\37 fe4ab87-2a7d-4a79-8b58-a988e0e244a7{opacity:0.82;}.\30 4f7daf2-73fe-495b-8886-05eb37695c48{fill:#991d26;}.\30 4f7daf2-73fe-495b-8886-05eb37695c48,.\30 c4b80a8-c0f5-4dcd-bc1f-4f5cd4dda64b,.\32 f2a7ff3-9a49-4c32-81d7-902bd2278a0c,.\38 ae20390-3334-4383-952a-0c2a5b9a02d7,.\39 dda91fb-cd05-4eab-ac1c-9ca9d71d58b1,.aa3943cd-77bc-4e34-ae7c-e3fb0e2e35d5,.df663709-fc5b-4eeb-a4a9-ea5bdb3665e5,.fce491a7-d12c-44b5-90a9-cb9f6b9d5e36{stroke:#fff;stroke-width:0.5px;opacity:0.76;}.\37 655db0f-74f3-430b-aac3-874252fbf033{opacity:0.86;}.\38 ae20390-3334-4383-952a-0c2a5b9a02d7{fill:#59a5a5;}.df663709-fc5b-4eeb-a4a9-ea5bdb3665e5{fill:#3f4d78;}.\32 f2a7ff3-9a49-4c32-81d7-902bd2278a0c{fill:#efb21b;}.f7ac0035-900c-4071-99d1-7205991d94ca{opacity:0.52;}.fce491a7-d12c-44b5-90a9-cb9f6b9d5e36{fill:#ffe600;}.aa3943cd-77bc-4e34-ae7c-e3fb0e2e35d5{fill:#d57928;}.\30 c4b80a8-c0f5-4dcd-bc1f-4f5cd4dda64b{fill:#8e244f;}.c34826b2-af78-4e14-9251-8ffc85f8c2f9{letter-spacing:-0.02em;}.c0c129c4-f41d-40ff-be73-c4351c41883a{letter-spacing:0em;}.\34 2dba75f-b68e-4c53-8b8a-81b64de9a181{letter-spacing:0em;}.af3f04d7-ca7c-40b9-b614-be21eee7e364{letter-spacing:-0.07em;}.\36 56ab719-f4a7-4b4b-979c-619d4a94a536{letter-spacing:-0.02em;}.\36 13cd6c8-275c-4f68-808a-b9aa45e37329{font-size:17px;}.fe64ed4b-688e-4e7f-81ae-5ceaccf88983{letter-spacing:0em;}.\32 d6ad6a6-6e6c-4149-8a9d-140f40b083df,.\39 4fb1277-5c70-409e-b3ba-a537ac480468{stroke:#323232;}.\39 4fb1277-5c70-409e-b3ba-a537ac480468{stroke-dasharray:5.41 5.41;}</style></defs><title>2018.07_CEO</title><line class="46c939a5-d111-4814-9cb5-986d18ec018b" x1="9" y1="361.42" x2="530" y2="361.42"/><text class="e97489ad-c9ac-4b90-bcc3-d84100b8acd0" transform="translate(8.66 355.02) scale(0.99 1)">0</text><text class="e97489ad-c9ac-4b90-bcc3-d84100b8acd0" transform="translate(7.66 295.02) scale(0.99 1)">5</text><text class="e97489ad-c9ac-4b90-bcc3-d84100b8acd0" transform="translate(5.5 233.02) scale(0.99 1)">10</text><text class="e97489ad-c9ac-4b90-bcc3-d84100b8acd0" transform="translate(7.83 111.02) scale(0.99 1)">20</text><text class="e97489ad-c9ac-4b90-bcc3-d84100b8acd0" transform="translate(7.83 48.02) scale(0.99 1)">25</text><text class="e97489ad-c9ac-4b90-bcc3-d84100b8acd0" transform="translate(7.83 171.02) scale(0.99 1)">15</text><text class="8d12917a-0070-4007-a3bd-049505ec2c77" transform="translate(8.5 544.02) scale(0.99 1)">Fuente: Segunda oleada / Julio de 2018</text><text class="5d8f3531-af99-4cf4-ab35-73ef34952804" transform="translate(55.5 381.02) scale(0.99 1)">ERC</text><text class="5d8f3531-af99-4cf4-ab35-73ef34952804" transform="translate(134.5 380.02) scale(0.99 1)">Cs</text><text class="5d8f3531-af99-4cf4-ab35-73ef34952804" transform="translate(410.5 380.02) scale(0.99 1)">CU<tspan class="451dbbc3-cd21-4b03-a3ac-3db3b3d9a96e" x="21.66" y="0">P</tspan></text><text class="5d8f3531-af99-4cf4-ab35-73ef34952804" transform="translate(275.5 380.02) scale(0.99 1)">PSC</text><text class="5d8f3531-af99-4cf4-ab35-73ef34952804" transform="translate(194.5 380.02) scale(0.99 1)">JxC<tspan class="c6fda5f3-c67a-42ce-b95d-4e39f8c21aa1" x="27.52" y="0">A</tspan><tspan x="37.24" y="0">T</tspan></text><text class="5d8f3531-af99-4cf4-ab35-73ef34952804" transform="translate(338.5 380.02) scale(0.99 1)">CeC-<tspan class="451dbbc3-cd21-4b03-a3ac-3db3b3d9a96e" x="35" y="0">P</tspan></text><text class="5d8f3531-af99-4cf4-ab35-73ef34952804" transform="translate(479.5 380.02) scale(0.99 1)">P<tspan class="eeb7c821-bb82-47d0-8575-be1e4d038623" x="10.01" y="0">P</tspan></text><line class="fc898c3f-01f7-4a17-9def-c819b839e682" x1="8.85" y1="298.5" x2="529.36" y2="298.5"/><line class="fc898c3f-01f7-4a17-9def-c819b839e682" x1="8.85" y1="236.5" x2="529.36" y2="236.5"/><line class="fc898c3f-01f7-4a17-9def-c819b839e682" x1="8.85" y1="174.5" x2="529.36" y2="174.5"/><line class="fc898c3f-01f7-4a17-9def-c819b839e682" x1="8.85" y1="114.5" x2="529.36" y2="114.5"/><line class="fc898c3f-01f7-4a17-9def-c819b839e682" x1="8.85" y1="52.5" x2="529.36" y2="52.5"/><text class="b8574f7b-2ac2-4668-a52d-8ad51c7ea3a6" transform="translate(66.56 24.62)">Porcentaje de voto según el CEO</text><polygon class="4f64d035-6119-4e61-a82b-46feffd9d0d5" points="431 536.27 527.44 536.27 527.44 550.93 431 550.93 431 536.27 431 536.27"/><path class="ebded813-14e7-42d8-a0f7-4d893a49cf16" d="M508.36,539.55h-3.7V540l1,.23v6.81a.81.81,0,0,1-.68.35,1.45,1.45,0,0,1-1.2-.88l-.92-1.65a1.91,1.91,0,0,0-1.69-1.14v-.12a2.26,2.26,0,0,0,2.33-2.1c0-1.42-1.29-2-2.78-2h-3.35V540l1.1.23v6.91h0l-1.26.24L494,538.83a4,4,0,0,1-1.13,1l.12.35-2.87,7-.86.23v.46h2.62v-.46l-.85-.22,1-2.56h2.66l.93,2.54-1,.24v.46H501v-.46l-1-.23V544a1.57,1.57,0,0,1,1.42,1l1.26,2.25a2,2,0,0,0,1.82,1.11,1.8,1.8,0,0,0,1.2-.49h2.85a4.28,4.28,0,0,0,4.39-4.16,4.17,4.17,0,0,0-4.47-4.16ZM492.23,544l1.12-3,1.08,3Zm8.23-.62h-.57v-3.1h.71a1.4,1.4,0,0,1,1.45,1.48,1.61,1.61,0,0,1-1.57,1.62Zm7.82,3.83h-1.18v-6.93h1.22c1.89,0,3,1.31,3,3.46s-1.21,3.46-3.08,3.46Z"/><path class="ebded813-14e7-42d8-a0f7-4d893a49cf16" d="M447.71,547.17l-3.07-8.34a3.94,3.94,0,0,1-1.13,1l.12.35-2.85,7-.61.23-.18.46h2.54v-.46l-.85-.22,1-2.56h2.66l.93,2.54-1,.24v.46h3.42v-.46l-.91-.23Zm-4.87-3.2,1.13-3,1.08,3Z"/><polygon class="ebded813-14e7-42d8-a0f7-4d893a49cf16" points="440.39 545.75 440.08 545.58 438.29 547.21 436.75 547.21 436.75 540.25 437.68 540.01 437.68 539.54 434.37 539.54 434.37 540.01 435.3 540.25 435.3 547.15 434.37 547.39 434.37 547.86 439.57 547.86 440.39 545.75 440.39 545.75"/><polygon class="ebded813-14e7-42d8-a0f7-4d893a49cf16" points="454.83 539.54 454.83 540.01 455.83 540.25 453.66 545.81 451.37 540.24 452.45 540.01 452.45 539.54 448.76 539.54 448.76 540.01 449.82 540.24 453.1 548.14 453.45 548.14 456.72 540.25 456.75 540.25 457.77 540.01 457.77 539.54 454.83 539.54 454.83 539.54"/><path class="ebded813-14e7-42d8-a0f7-4d893a49cf16" d="M487.6,539.55V540l1,.24s.07,4.12,0,5.16a2.1,2.1,0,0,1-2.14,2h-.11a2.07,2.07,0,0,1-2.24-2.13v-5.07l1-.22v-.46h-3.34V540l.95.23v5.11a3.07,3.07,0,0,0,3.3,2.91,3,3,0,0,0,3.3-2.91l.06-5.1,1-.24v-.46Z"/><path class="ebded813-14e7-42d8-a0f7-4d893a49cf16" d="M523.7,547.15l-3.06-8.32a3.94,3.94,0,0,1-1.13,1l.12.35-2.86,7-.49.2-.66-.21v-6.94l1-.23v-.46h-3.48V540l1,.24v6.92l-1,.23v.46h5.3v-.46l-.85-.23,1-2.56h2.66l.93,2.54-1,.24v.46h3.43v-.46l-.92-.24ZM518.84,544l1.13-3,1.08,3Z"/><path class="ebded813-14e7-42d8-a0f7-4d893a49cf16" d="M469.75,539.55V540l1,.24.06,5.44-5.21-6.14H463.4V540l1,.22.08,0-.07,6.88h0l-1,.24-3.14-8.56a4,4,0,0,1-1.1,1l.12.35-2.87,7-.86.23v.46h2.62v-.46l-.85-.22,1-2.56h2.66l.93,2.54-1,.24v.46h5.47v-.46l-1-.24-.12-6,6,7h.39l.08-7.9,1-.23v-.46ZM458.44,544l1.13-3,1.08,3Z"/><path class="ebded813-14e7-42d8-a0f7-4d893a49cf16" d="M478.52,543.61v.46l.94.24V547a3.11,3.11,0,0,1-1.88.62c-1.89,0-3.1-1.57-3.1-3.79s1.18-4,3.14-4a3,3,0,0,1,2.78,2.26l.27-.16v-2.62l-.24-.13-.52.64a5.24,5.24,0,0,0-2.3-.59,4.65,4.65,0,0,0-4.66,4.58,4.22,4.22,0,0,0,4,4.43h.3a4.29,4.29,0,0,0,2.68-.89l.73.49h.24V544.3l.79-.3v-.38Z"/><g class="7fe4ab87-2a7d-4a79-8b58-a988e0e244a7"><rect class="04f7daf2-73fe-495b-8886-05eb37695c48" x="267.65" y="170" width="42.84" height="190.25"/></g><g class="7fe4ab87-2a7d-4a79-8b58-a988e0e244a7"><rect class="04f7daf2-73fe-495b-8886-05eb37695c48" x="313.43" y="441.85" width="70.79" height="15.94"/></g><g class="7655db0f-74f3-430b-aac3-874252fbf033"><rect class="8ae20390-3334-4383-952a-0c2a5b9a02d7" x="464.58" y="326" width="42.84" height="34.25"/></g><g class="7655db0f-74f3-430b-aac3-874252fbf033"><rect class="8ae20390-3334-4383-952a-0c2a5b9a02d7" x="481.26" y="441.85" width="12.74" height="15.94"/></g><g class="7655db0f-74f3-430b-aac3-874252fbf033"><rect class="df663709-fc5b-4eeb-a4a9-ea5bdb3665e5" x="192.41" y="135" width="42.84" height="225.25"/></g><g class="7655db0f-74f3-430b-aac3-874252fbf033"><rect class="df663709-fc5b-4eeb-a4a9-ea5bdb3665e5" x="192.12" y="441.85" width="83.82" height="15.94"/></g><g class="7fe4ab87-2a7d-4a79-8b58-a988e0e244a7"><rect class="2f2a7ff3-9a49-4c32-81d7-902bd2278a0c" x="50" y="63" width="42.84" height="297.25"/></g><g class="7fe4ab87-2a7d-4a79-8b58-a988e0e244a7"><rect class="2f2a7ff3-9a49-4c32-81d7-902bd2278a0c" x="81.23" y="441.85" width="110.61" height="15.94"/></g><g class="f7ac0035-900c-4071-99d1-7205991d94ca"><rect class="fce491a7-d12c-44b5-90a9-cb9f6b9d5e36" x="400.82" y="268" width="42.18" height="92.25"/></g><g class="f7ac0035-900c-4071-99d1-7205991d94ca"><rect class="fce491a7-d12c-44b5-90a9-cb9f6b9d5e36" x="46.63" y="441.98" width="34.33" height="15.69"/></g><g class="7fe4ab87-2a7d-4a79-8b58-a988e0e244a7"><polygon class="aa3943cd-77bc-4e34-ae7c-e3fb0e2e35d5" points="122.5 99 165.5 99 165.5 359.5 122.57 359.5 122.5 99"/></g><g class="7fe4ab87-2a7d-4a79-8b58-a988e0e244a7"><polygon class="aa3943cd-77bc-4e34-ae7c-e3fb0e2e35d5" points="481.35 441.82 481.35 457.82 384.41 457.82 384.41 441.85 481.35 441.82"/></g><g class="7655db0f-74f3-430b-aac3-874252fbf033"><rect class="0c4b80a8-c0f5-4dcd-bc1f-4f5cd4dda64b" x="336.33" y="259" width="42.84" height="101.25"/></g><g class="7655db0f-74f3-430b-aac3-874252fbf033"><rect class="0c4b80a8-c0f5-4dcd-bc1f-4f5cd4dda64b" x="275.85" y="441.85" width="37.68" height="15.94"/></g><text class="dbaf1d9d-e41a-4085-bf98-50b8469aaaf0" transform="translate(295.99 512.06) rotate(-0.14)"><tspan class="c6c3e29d-422a-4e07-a456-1489e9e5dcb7">CeC-</tspan><tspan class="c34826b2-af78-4e14-9251-8ffc85f8c2f9" x="35" y="0">P</tspan><tspan class="c0c129c4-f41d-40ff-be73-c4351c41883a" x="44.74" y="0"> </tspan><tspan class="42dba75f-b68e-4c53-8b8a-81b64de9a181" x="48.9" y="0">7,8</tspan></text><text class="5d8f3531-af99-4cf4-ab35-73ef34952804" transform="translate(299.85 478.05) rotate(-0.14)">PSC15,5</text><text class="dbaf1d9d-e41a-4085-bf98-50b8469aaaf0" transform="translate(173.99 478.07) rotate(-0.14)"><tspan class="c6c3e29d-422a-4e07-a456-1489e9e5dcb7">JxC</tspan><tspan class="af3f04d7-ca7c-40b9-b614-be21eee7e364" x="27.52" y="0">A</tspan><tspan class="c6c3e29d-422a-4e07-a456-1489e9e5dcb7" x="37.24" y="0">T </tspan><tspan class="9ee66a78-ca94-40d3-89ba-ea629c04c670" x="50.57" y="0">17,9</tspan></text><text class="dbaf1d9d-e41a-4085-bf98-50b8469aaaf0" transform="translate(103.61 478.04) rotate(-0.14)"><tspan class="c6c3e29d-422a-4e07-a456-1489e9e5dcb7">ERC </tspan><tspan class="42dba75f-b68e-4c53-8b8a-81b64de9a181" x="35.84" y="0">24</tspan></text><text class="dbaf1d9d-e41a-4085-bf98-50b8469aaaf0" transform="translate(36.92 478.03) rotate(-0.14)"><tspan class="c6c3e29d-422a-4e07-a456-1489e9e5dcb7">CU</tspan><tspan class="656ab719-f4a7-4b4b-979c-619d4a94a536" x="21.67" y="0">P</tspan><tspan class="c6c3e29d-422a-4e07-a456-1489e9e5dcb7" x="31.4" y="0"> </tspan><tspan class="9ee66a78-ca94-40d3-89ba-ea629c04c670" x="35.57" y="0">7</tspan></text><text class="dbaf1d9d-e41a-4085-bf98-50b8469aaaf0" transform="translate(395.6 478.04) rotate(-0.14)"><tspan class="c6c3e29d-422a-4e07-a456-1489e9e5dcb7">Cs </tspan><tspan class="9ee66a78-ca94-40d3-89ba-ea629c04c670" x="23.34" y="0">21,4</tspan></text><text class="dbaf1d9d-e41a-4085-bf98-50b8469aaaf0" transform="translate(455.49 478.03) rotate(-0.14)"><tspan class="c6c3e29d-422a-4e07-a456-1489e9e5dcb7">P</tspan><tspan class="c34826b2-af78-4e14-9251-8ffc85f8c2f9" x="10" y="0">P</tspan><tspan class="c6c3e29d-422a-4e07-a456-1489e9e5dcb7" x="19.74" y="0"> </tspan><tspan class="9ee66a78-ca94-40d3-89ba-ea629c04c670" x="23.91" y="0">3,8</tspan></text><text class="dbaf1d9d-e41a-4085-bf98-50b8469aaaf0" transform="translate(432.36 511.06) rotate(-0.14)"><tspan class="c6c3e29d-422a-4e07-a456-1489e9e5dcb7">Otros </tspan><tspan class="42dba75f-b68e-4c53-8b8a-81b64de9a181" x="44.17" y="0">2,6</tspan></text><line class="46c939a5-d111-4814-9cb5-986d18ec018b" x1="363.5" y1="496.55" x2="295.5" y2="496.55"/><line class="46c939a5-d111-4814-9cb5-986d18ec018b" x1="503.5" y1="497.5" x2="431" y2="497.5"/><line class="46c939a5-d111-4814-9cb5-986d18ec018b" x1="295.5" y1="459" x2="295.5" y2="497"/><line class="46c939a5-d111-4814-9cb5-986d18ec018b" x1="503.42" y1="457.5" x2="503.42" y2="497.5"/><rect class="9dda91fb-cd05-4eab-ac1c-9ca9d71d58b1" x="493.61" y="441.74" width="13.39" height="16.17"/><text class="613cd6c8-275c-4f68-808a-b9aa45e37329" transform="translate(226.77 419.08) scale(0.99 1)"><tspan class="c6c3e29d-422a-4e07-a456-1489e9e5dcb7">50%</tspan><tspan class="fe64ed4b-688e-4e7f-81ae-5ceaccf88983" x="34.03" y="0" xml:space="preserve"> de los votos</tspan></text><line class="2d6ad6a6-6e6c-4149-8a9d-140f40b083df" x1="281.5" y1="429.5" x2="281.5" y2="432"/><line class="94fb1277-5c70-409e-b3ba-a537ac480468" x1="281.5" y1="437.41" x2="281.5" y2="488.8"/><line class="2d6ad6a6-6e6c-4149-8a9d-140f40b083df" x1="281.5" y1="491.5" x2="281.5" y2="494"/></svg>