<svg xmlns="http://www.w3.org/2000/svg" viewBox="0 0 571 682"><defs><style>.\35 9baab64-1de3-4339-9a07-ee8b099f66ed,.ead0f913-e6ec-450b-bc84-b5c029bb3607{fill:#8dd0d3;}.\34 53184c4-c5aa-4e31-a805-7fb99f7c8f7d,.ead0f913-e6ec-450b-bc84-b5c029bb3607{stroke:#fff;}.\34 53184c4-c5aa-4e31-a805-7fb99f7c8f7d,.\37 e2381da-3f04-46ad-aa42-35ff3d5be375{fill:#c13456;}.\34 53184c4-c5aa-4e31-a805-7fb99f7c8f7d{stroke-opacity:0;}.\35 9baab64-1de3-4339-9a07-ee8b099f66ed,.\35 c3d4f8a-129f-4a28-a887-30bb3daa0024,.\37 e2381da-3f04-46ad-aa42-35ff3d5be375{font-size:15px;}.\31 e6f070c-765e-4bea-9559-ceb2e0a1d017,.\35 c3d4f8a-129f-4a28-a887-30bb3daa0024{fill:#757575;font-family:ArialMT, Arial;}.\38 8faec69-347b-45ba-b34f-97de40d91ff6{letter-spacing:-0.07em;}.f6b343d9-4d7f-43a6-afaa-31a4d4506c32{letter-spacing:0em;}.\32 dc01b99-550a-4f4e-8333-6c9335c556bd{letter-spacing:-0.06em;}.\31 e6f070c-765e-4bea-9559-ceb2e0a1d017{font-size:13px;}.\35 9baab64-1de3-4339-9a07-ee8b099f66ed,.\37 e2381da-3f04-46ad-aa42-35ff3d5be375,.\39 5952254-a0a2-4fd3-8a6a-34b01f385f06{font-family:Arial-BoldMT, Arial;font-weight:700;}.ec8948fa-5f1f-4ea0-a97f-35863f4b9d49{letter-spacing:-0.13em;}.\35 8f45a33-edfd-4683-9e47-a27cd685ab90{letter-spacing:-0.06em;}.\34 a4bb4ad-4d45-42d4-b2e7-e4448f7da180{letter-spacing:-0.02em;}.\39 6d59771-3a71-40b7-ba25-7a17d43b7e4c{letter-spacing:-0.04em;}.\33 8223f28-03a8-48a3-a5e0-6feaec859799{letter-spacing:-0.04em;}.\39 5952254-a0a2-4fd3-8a6a-34b01f385f06{font-size:23px;fill:#323232;}.\35 7eda51b-0547-4042-98bc-d88e6fdba9c6{fill:none;stroke:#757575;}</style></defs><title>2018.06_LideresMundiales</title><g id="101c3703-1208-4929-8182-4d7b56391eff" data-name="Capa 1"><path class="ead0f913-e6ec-450b-bc84-b5c029bb3607" d="M436.72,79a59.43,59.43,0,1,1,118.86,0"/><path class="ead0f913-e6ec-450b-bc84-b5c029bb3607" d="M460.88,85.78a34.41,34.41,0,1,1,68.82,0"/><path class="ead0f913-e6ec-450b-bc84-b5c029bb3607" d="M363.49,568a34.41,34.41,0,0,1,0-68.82"/><path class="453184c4-c5aa-4e31-a805-7fb99f7c8f7d" d="M73.34,614.6a12.74,12.74,0,0,1,0,25.48"/><path class="ead0f913-e6ec-450b-bc84-b5c029bb3607" d="M482,90.71a12.74,12.74,0,0,1,25.48,0"/><path class="ead0f913-e6ec-450b-bc84-b5c029bb3607" d="M362.89,248.24a56.62,56.62,0,0,1,0-113.24"/><path class="ead0f913-e6ec-450b-bc84-b5c029bb3607" d="M489.6,648.7a20.52,20.52,0,0,1,0-41"/><path class="ead0f913-e6ec-450b-bc84-b5c029bb3607" d="M70.85,654.88a29.81,29.81,0,1,1,0-59.61"/><path class="ead0f913-e6ec-450b-bc84-b5c029bb3607" d="M69.87,246.7a59.43,59.43,0,0,1,0-118.86"/><path class="ead0f913-e6ec-450b-bc84-b5c029bb3607" d="M362.86,364a43.29,43.29,0,1,1,0-86.58"/><path class="ead0f913-e6ec-450b-bc84-b5c029bb3607" d="M217,365.8a43.72,43.72,0,1,1,0-87.45"/><path class="ead0f913-e6ec-450b-bc84-b5c029bb3607" d="M489.49,464.35a36.45,36.45,0,1,1,0-72.89"/><path class="ead0f913-e6ec-450b-bc84-b5c029bb3607" d="M217.82,568.37a34.76,34.76,0,0,1,0-69.52"/><path class="ead0f913-e6ec-450b-bc84-b5c029bb3607" d="M72.49,471.41c-23.32,0-43.23-18.91-43.23-42.23A42.23,42.23,0,0,1,71.49,387"/><path class="ead0f913-e6ec-450b-bc84-b5c029bb3607" d="M489.91,239a48.27,48.27,0,0,1,0-96.53"/><path class="ead0f913-e6ec-450b-bc84-b5c029bb3607" d="M71.14,366.79a46,46,0,0,1,0-91.91"/><path class="ead0f913-e6ec-450b-bc84-b5c029bb3607" d="M218.07,247.6a58.91,58.91,0,1,1,0-117.82"/><path class="ead0f913-e6ec-450b-bc84-b5c029bb3607" d="M217.36,467.57a40.56,40.56,0,1,1,0-81.12"/><path class="ead0f913-e6ec-450b-bc84-b5c029bb3607" d="M362.25,465.71a39.73,39.73,0,1,1,0-79.45"/><path class="ead0f913-e6ec-450b-bc84-b5c029bb3607" d="M217.68,656.09a28.68,28.68,0,1,1,0-57.36"/><path class="453184c4-c5aa-4e31-a805-7fb99f7c8f7d" d="M365.08,164.14a26.35,26.35,0,0,1,0,52.7"/><path class="453184c4-c5aa-4e31-a805-7fb99f7c8f7d" d="M491.53,514.61a18.59,18.59,0,1,1,0,37.19"/><path class="453184c4-c5aa-4e31-a805-7fb99f7c8f7d" d="M491.85,613.94a15,15,0,0,1,0,29.95"/><path class="ead0f913-e6ec-450b-bc84-b5c029bb3607" d="M488.69,564.73a31.8,31.8,0,0,1,0-63.6"/><path class="453184c4-c5aa-4e31-a805-7fb99f7c8f7d" d="M72.62,164.37a23.28,23.28,0,0,1,0,46.56"/><path class="453184c4-c5aa-4e31-a805-7fb99f7c8f7d" d="M365.72,302.23a18.31,18.31,0,0,1,0,36.62"/><path class="453184c4-c5aa-4e31-a805-7fb99f7c8f7d" d="M219.62,299.27a22.65,22.65,0,1,1,0,45.29"/><path class="453184c4-c5aa-4e31-a805-7fb99f7c8f7d" d="M491.88,406.34a21.84,21.84,0,0,1,0,43.68"/><path class="453184c4-c5aa-4e31-a805-7fb99f7c8f7d" d="M365.33,518.62a15.46,15.46,0,0,1,0,30.91"/><path class="453184c4-c5aa-4e31-a805-7fb99f7c8f7d" d="M220.17,516a17,17,0,1,1,0,34"/><path class="453184c4-c5aa-4e31-a805-7fb99f7c8f7d" d="M74.12,408.54a20.43,20.43,0,0,1,0,40.87"/><path class="453184c4-c5aa-4e31-a805-7fb99f7c8f7d" d="M492.57,166.06a24.08,24.08,0,1,1,0,48.17"/><path class="453184c4-c5aa-4e31-a805-7fb99f7c8f7d" d="M73.73,297.26a23.21,23.21,0,1,1,0,46.42"/><path class="453184c4-c5aa-4e31-a805-7fb99f7c8f7d" d="M221,166.59a22.92,22.92,0,0,1,0,45.83"/><path class="453184c4-c5aa-4e31-a805-7fb99f7c8f7d" d="M220.25,402a24.74,24.74,0,1,1,0,49.48"/><path class="453184c4-c5aa-4e31-a805-7fb99f7c8f7d" d="M365,410.72a15.81,15.81,0,1,1,0,31.61"/><path class="453184c4-c5aa-4e31-a805-7fb99f7c8f7d" d="M220.2,605.83a20.67,20.67,0,1,1,0,41.33"/><path class="453184c4-c5aa-4e31-a805-7fb99f7c8f7d" d="M73.86,516.65a16.39,16.39,0,0,1,0,32.78"/><path class="453184c4-c5aa-4e31-a805-7fb99f7c8f7d" d="M491.43,305.85a17,17,0,1,1,0,34"/><path class="453184c4-c5aa-4e31-a805-7fb99f7c8f7d" d="M365.27,614.21a13.66,13.66,0,0,1,0,27.33"/><path class="ead0f913-e6ec-450b-bc84-b5c029bb3607" d="M71.12,568.83a36.42,36.42,0,1,1,0-72.83"/><path class="ead0f913-e6ec-450b-bc84-b5c029bb3607" d="M489.19,365.1a42.3,42.3,0,0,1,0-84.6"/><path class="ead0f913-e6ec-450b-bc84-b5c029bb3607" d="M362.77,654.92a28.3,28.3,0,1,1,0-56.61"/></g><g id="916c8587-8161-4d79-b50a-84a1d18d2f9d" data-name="NOMBRES"><text class="5c3d4f8a-129f-4a28-a887-30bb3daa0024" transform="translate(72 145)">ES<tspan class="88faec69-347b-45ba-b34f-97de40d91ff6" x="20.01" y="0">T</tspan><tspan class="f6b343d9-4d7f-43a6-afaa-31a4d4506c32" x="28.06" y="0">ADOS</tspan><tspan x="0" y="18">UNIDOS</tspan></text><text class="5c3d4f8a-129f-4a28-a887-30bb3daa0024" transform="translate(220 146)">AUSTRALI<tspan class="2dc01b99-550a-4f4e-8333-6c9335c556bd" x="73.35" y="0">A</tspan></text><text class="5c3d4f8a-129f-4a28-a887-30bb3daa0024" transform="translate(364 147)">ALEMANI<tspan class="2dc01b99-550a-4f4e-8333-6c9335c556bd" x="65.85" y="0">A</tspan></text><text class="5c3d4f8a-129f-4a28-a887-30bb3daa0024" transform="translate(491 149)">CANADÁ</text><text class="1e6f070c-765e-4bea-9559-ceb2e0a1d017" transform="translate(388 110)">350.000</text><text class="1e6f070c-765e-4bea-9559-ceb2e0a1d017" transform="translate(464.65 110)">40.000</text><text class="59baab64-1de3-4339-9a07-ee8b099f66ed" transform="translate(22 72)">JEFE DE GOBIERNO</text><text class="7e2381da-3f04-46ad-aa42-35ff3d5be375" transform="translate(20 106)">PROFESOR</text><text class="5c3d4f8a-129f-4a28-a887-30bb3daa0024" transform="translate(72 293)">CANADÁ</text><text class="5c3d4f8a-129f-4a28-a887-30bb3daa0024" transform="translate(364 294)">IRLAND<tspan class="2dc01b99-550a-4f4e-8333-6c9335c556bd" x="55.01" y="0">A</tspan></text><text class="5c3d4f8a-129f-4a28-a887-30bb3daa0024" transform="translate(220 293)">DINAMARC<tspan class="2dc01b99-550a-4f4e-8333-6c9335c556bd" x="80" y="0">A</tspan></text><text class="5c3d4f8a-129f-4a28-a887-30bb3daa0024" transform="translate(490 295)">FRANCI<tspan class="2dc01b99-550a-4f4e-8333-6c9335c556bd" x="55.83" y="0">A</tspan></text><text class="5c3d4f8a-129f-4a28-a887-30bb3daa0024" transform="translate(73 403)">JAPÓN</text><text class="5c3d4f8a-129f-4a28-a887-30bb3daa0024" transform="translate(221 399)">FINLANDI<tspan class="2dc01b99-550a-4f4e-8333-6c9335c556bd" x="68.34" y="0">A</tspan></text><text class="5c3d4f8a-129f-4a28-a887-30bb3daa0024" transform="translate(364 403)"><tspan class="ec8948fa-5f1f-4ea0-a97f-35863f4b9d49">P</tspan><tspan x="8.07" y="0">. BAJOS</tspan></text><text class="5c3d4f8a-129f-4a28-a887-30bb3daa0024" transform="translate(491 404)">CHILE</text><text class="5c3d4f8a-129f-4a28-a887-30bb3daa0024" transform="translate(73 512)">MÉXICO</text><text class="5c3d4f8a-129f-4a28-a887-30bb3daa0024" transform="translate(220 513)">TURQUÍ<tspan class="58f45a33-edfd-4683-9e47-a27cd685ab90" x="57.5" y="0">A</tspan></text><text class="5c3d4f8a-129f-4a28-a887-30bb3daa0024" transform="translate(365.01 513)">COLOMBI<tspan class="58f45a33-edfd-4683-9e47-a27cd685ab90" x="69.18" y="0">A</tspan></text><text class="5c3d4f8a-129f-4a28-a887-30bb3daa0024" transform="translate(367.01 611)">HUNGRÍ<tspan class="58f45a33-edfd-4683-9e47-a27cd685ab90" x="59.17" y="0">A</tspan></text><text class="5c3d4f8a-129f-4a28-a887-30bb3daa0024" transform="translate(493.03 611)">POLONI<tspan class="2dc01b99-550a-4f4e-8333-6c9335c556bd" x="56.68" y="0">A</tspan></text><text class="5c3d4f8a-129f-4a28-a887-30bb3daa0024" transform="translate(492.01 512)">I<tspan class="88faec69-347b-45ba-b34f-97de40d91ff6" x="4.17" y="0">T</tspan><tspan x="12.22" y="0">ALI</tspan><tspan class="58f45a33-edfd-4683-9e47-a27cd685ab90" x="34.73" y="0">A</tspan></text><text class="5c3d4f8a-129f-4a28-a887-30bb3daa0024" transform="translate(74.01 610)">PO<tspan class="4a4bb4ad-4d45-42d4-b2e7-e4448f7da180" x="21.67" y="0">R</tspan><tspan x="32.23" y="0">TUGA</tspan><tspan class="96d59771-3a71-40b7-ba25-7a17d43b7e4c" x="73.9" y="0">L</tspan></text><text class="5c3d4f8a-129f-4a28-a887-30bb3daa0024" transform="translate(5.01 677)">Fuente: OCDE, <tspan class="38223f28-03a8-48a3-a5e0-6feaec859799" x="106.71" y="0">W</tspan><tspan class="f6b343d9-4d7f-43a6-afaa-31a4d4506c32" x="120.31" y="0">age Indicator</tspan></text><text class="5c3d4f8a-129f-4a28-a887-30bb3daa0024" transform="translate(356.01 677)">Laura<tspan class="58f45a33-edfd-4683-9e47-a27cd685ab90" x="38.36" y="0"> </tspan><tspan x="41.7" y="0">Aragó | L</tspan><tspan class="2dc01b99-550a-4f4e-8333-6c9335c556bd" x="102.3" y="0">A</tspan><tspan x="111.48" y="0"> </tspan><tspan class="88faec69-347b-45ba-b34f-97de40d91ff6" x="115.65" y="0">V</tspan><tspan x="124.54" y="0">ANGUARDI</tspan><tspan class="58f45a33-edfd-4683-9e47-a27cd685ab90" x="203.72" y="0">A</tspan></text><text class="5c3d4f8a-129f-4a28-a887-30bb3daa0024" transform="translate(235 609)">ES<tspan class="88faec69-347b-45ba-b34f-97de40d91ff6" x="20.01" y="0">P</tspan><tspan x="28.9" y="0">AÑ</tspan><tspan class="2dc01b99-550a-4f4e-8333-6c9335c556bd" x="49.74" y="0">A</tspan></text><text class="95952254-a0a2-4fd3-8a6a-34b01f385f06" transform="translate(22 38)">Diferencia de sueldos en cada país</text><line class="57eda51b-0547-4042-98bc-d88e6fdba9c6" x1="507" y1="91" x2="507" y2="110"/><line class="57eda51b-0547-4042-98bc-d88e6fdba9c6" x1="437.5" y1="78.5" x2="437.5" y2="111"/></g></svg>