<svg id="7d286f08-406d-4789-80fe-d777187f0887" data-name="Capa 1" xmlns="http://www.w3.org/2000/svg" viewBox="0 0 530 790"><defs><style>.\35 b2fc921-87b5-49a6-b69b-3ff56393d8d9{fill:#fff5eb;}.\31 95fbcfc-f8cf-4829-8e52-2f8d721748c0,.\32 c4e72be-4a6c-44e8-b075-d16798bddc2b,.\32 f650376-3338-44fa-9b82-b54dd06aec02,.\34 f2bcbb7-c6a3-4af6-949b-955751942137,.\35 b2fc921-87b5-49a6-b69b-3ff56393d8d9,.\38 1924448-2f53-4736-a5c3-92fa4d07b0db,.a825c66a-91cd-493f-81e0-a7ba0209da9d,.bb4b8d2a-24c4-47f5-944a-a805f8a1ee80,.e65bc718-d769-4bdd-84b9-87de2092aa8c{stroke:#fff;stroke-miterlimit:10;}.\34 f2bcbb7-c6a3-4af6-949b-955751942137{fill:#fee6ce;}.e65bc718-d769-4bdd-84b9-87de2092aa8c{fill:#fdd0a2;}.a825c66a-91cd-493f-81e0-a7ba0209da9d{fill:#fd8d3c;}.\32 c4e72be-4a6c-44e8-b075-d16798bddc2b{fill:#f16913;}.\31 95fbcfc-f8cf-4829-8e52-2f8d721748c0{fill:#d94801;}.\32 f650376-3338-44fa-9b82-b54dd06aec02{fill:#a63603;}.\30 3f0adfb-c197-4df8-bbd2-a9b141d81a4f{font-size:21px;fill:#323232;font-family:Arial-BoldMT, Arial;font-weight:700;}.\35 08784f6-2c0e-47c6-a98b-4b8c9bc3a9d4,.d09d2a97-af22-46f7-9cb8-008744319111{font-size:14px;fill:#757575;font-family:ArialMT, Arial;}.\33 4adfd0b-27a1-4f0c-be04-f119e7445a5e{letter-spacing:-0.06em;}.bf19fa90-674b-4242-a2ce-c14becb535aa{letter-spacing:-0.07em;}.bb4b8d2a-24c4-47f5-944a-a805f8a1ee80{fill:#fdae6b;}.\38 1924448-2f53-4736-a5c3-92fa4d07b0db{fill:#7f2704;}.\35 08784f6-2c0e-47c6-a98b-4b8c9bc3a9d4{letter-spacing:-0.02em;}</style></defs><title>2018.05_ImportacionCafe</title><rect class="5b2fc921-87b5-49a6-b69b-3ff56393d8d9" x="229.16" y="48.24" width="39.12" height="10.08"/><rect class="4f2bcbb7-c6a3-4af6-949b-955751942137" x="268.27" y="48.24" width="39.12" height="10.08"/><rect class="e65bc718-d769-4bdd-84b9-87de2092aa8c" x="307.4" y="48.24" width="39.12" height="10.08"/><rect class="a825c66a-91cd-493f-81e0-a7ba0209da9d" x="346.52" y="48.24" width="39.12" height="10.08"/><rect class="2c4e72be-4a6c-44e8-b075-d16798bddc2b" x="385.64" y="48.24" width="39.12" height="10.08"/><rect class="195fbcfc-f8cf-4829-8e52-2f8d721748c0" x="424.76" y="48.24" width="39.12" height="10.08"/><rect class="2f650376-3338-44fa-9b82-b54dd06aec02" x="463.88" y="48.24" width="39.12" height="10.08"/><text class="03f0adfb-c197-4df8-bbd2-a9b141d81a4f" transform="translate(7 26.04)">Evolución del los 10 países que más café importan</text><text class="d09d2a97-af22-46f7-9cb8-008744319111" transform="translate(20.19 56.29)">MILES DE BOLSAS DE 60 KG</text><text class="d09d2a97-af22-46f7-9cb8-008744319111" transform="translate(7.9 782.29)">Fuente: Organización Internacional del Café</text><text class="d09d2a97-af22-46f7-9cb8-008744319111" transform="translate(322.89 780.03)">Laura<tspan class="34adfd0b-27a1-4f0c-be04-f119e7445a5e" x="35.81" y="0"> </tspan><tspan x="38.92" y="0">Aragó | L</tspan><tspan class="34adfd0b-27a1-4f0c-be04-f119e7445a5e" x="95.48" y="0">A</tspan><tspan x="104.05" y="0"> </tspan><tspan class="bf19fa90-674b-4242-a2ce-c14becb535aa" x="107.94" y="0">V</tspan><tspan x="116.24" y="0">ANGUARDI</tspan><tspan class="34adfd0b-27a1-4f0c-be04-f119e7445a5e" x="190.13" y="0">A</tspan></text><text class="d09d2a97-af22-46f7-9cb8-008744319111" transform="translate(231.31 72.82)">De 1.000</text><text class="d09d2a97-af22-46f7-9cb8-008744319111" transform="translate(406.74 72.82)">Más de 27.000</text><rect class="a825c66a-91cd-493f-81e0-a7ba0209da9d" x="25.31" y="615.64" width="44.08" height="22.7"/><rect class="bb4b8d2a-24c4-47f5-944a-a805f8a1ee80" x="25.31" y="592.94" width="44.08" height="22.7"/><rect class="2c4e72be-4a6c-44e8-b075-d16798bddc2b" x="25.31" y="570.25" width="44.08" height="22.7"/><rect class="e65bc718-d769-4bdd-84b9-87de2092aa8c" x="25.31" y="547.55" width="44.08" height="22.7"/><rect class="5b2fc921-87b5-49a6-b69b-3ff56393d8d9" x="25.31" y="524.86" width="44.08" height="22.7"/><rect class="4f2bcbb7-c6a3-4af6-949b-955751942137" x="25.31" y="502.16" width="44.08" height="22.7"/><rect class="bb4b8d2a-24c4-47f5-944a-a805f8a1ee80" x="25.31" y="479.47" width="44.08" height="22.7"/><rect class="bb4b8d2a-24c4-47f5-944a-a805f8a1ee80" x="25.31" y="456.77" width="44.08" height="22.7"/><rect class="a825c66a-91cd-493f-81e0-a7ba0209da9d" x="25.31" y="434.08" width="44.08" height="22.7"/><rect class="2c4e72be-4a6c-44e8-b075-d16798bddc2b" x="25.31" y="411.38" width="44.08" height="22.7"/><rect class="195fbcfc-f8cf-4829-8e52-2f8d721748c0" x="25.31" y="388.69" width="44.08" height="22.7"/><rect class="a825c66a-91cd-493f-81e0-a7ba0209da9d" x="25.31" y="365.99" width="44.08" height="22.7"/><rect class="a825c66a-91cd-493f-81e0-a7ba0209da9d" x="25.31" y="343.3" width="44.08" height="22.7"/><rect class="2c4e72be-4a6c-44e8-b075-d16798bddc2b" x="25.31" y="320.6" width="44.08" height="22.7"/><rect class="2c4e72be-4a6c-44e8-b075-d16798bddc2b" x="25.31" y="297.91" width="44.08" height="22.7"/><rect class="2c4e72be-4a6c-44e8-b075-d16798bddc2b" x="25.31" y="275.21" width="44.08" height="22.7"/><rect class="195fbcfc-f8cf-4829-8e52-2f8d721748c0" x="25.31" y="252.52" width="44.08" height="22.7"/><rect class="195fbcfc-f8cf-4829-8e52-2f8d721748c0" x="25.31" y="229.82" width="44.08" height="22.7"/><rect class="195fbcfc-f8cf-4829-8e52-2f8d721748c0" x="25.31" y="207.13" width="44.08" height="22.7"/><rect class="2c4e72be-4a6c-44e8-b075-d16798bddc2b" x="25.31" y="184.43" width="44.08" height="22.7"/><rect class="195fbcfc-f8cf-4829-8e52-2f8d721748c0" x="25.31" y="161.74" width="44.08" height="22.7"/><rect class="2f650376-3338-44fa-9b82-b54dd06aec02" x="25.31" y="139.04" width="44.08" height="22.7"/><rect class="2f650376-3338-44fa-9b82-b54dd06aec02" x="25.31" y="116.35" width="44.08" height="22.7"/><rect class="81924448-2f53-4736-a5c3-92fa4d07b0db" x="25.31" y="93.65" width="44.08" height="22.7"/><rect class="bb4b8d2a-24c4-47f5-944a-a805f8a1ee80" x="69.39" y="615.64" width="44.08" height="22.7"/><rect class="bb4b8d2a-24c4-47f5-944a-a805f8a1ee80" x="69.39" y="592.94" width="44.08" height="22.7"/><rect class="bb4b8d2a-24c4-47f5-944a-a805f8a1ee80" x="69.39" y="570.25" width="44.08" height="22.7"/><rect class="bb4b8d2a-24c4-47f5-944a-a805f8a1ee80" x="69.39" y="547.55" width="44.08" height="22.7"/><rect class="bb4b8d2a-24c4-47f5-944a-a805f8a1ee80" x="69.39" y="524.86" width="44.08" height="22.7"/><rect class="e65bc718-d769-4bdd-84b9-87de2092aa8c" x="69.39" y="502.16" width="44.08" height="22.7"/><rect class="bb4b8d2a-24c4-47f5-944a-a805f8a1ee80" x="69.39" y="479.47" width="44.08" height="22.7"/><rect class="bb4b8d2a-24c4-47f5-944a-a805f8a1ee80" x="69.39" y="456.77" width="44.08" height="22.7"/><rect class="bb4b8d2a-24c4-47f5-944a-a805f8a1ee80" x="69.39" y="434.08" width="44.08" height="22.7"/><rect class="bb4b8d2a-24c4-47f5-944a-a805f8a1ee80" x="69.39" y="411.38" width="44.08" height="22.7"/><rect class="bb4b8d2a-24c4-47f5-944a-a805f8a1ee80" x="69.39" y="388.69" width="44.08" height="22.7"/><rect class="a825c66a-91cd-493f-81e0-a7ba0209da9d" x="69.39" y="365.99" width="44.08" height="22.7"/><rect class="a825c66a-91cd-493f-81e0-a7ba0209da9d" x="69.39" y="343.3" width="44.08" height="22.7"/><rect class="a825c66a-91cd-493f-81e0-a7ba0209da9d" x="69.39" y="320.6" width="44.08" height="22.7"/><rect class="2c4e72be-4a6c-44e8-b075-d16798bddc2b" x="69.39" y="297.91" width="44.08" height="22.7"/><rect class="2c4e72be-4a6c-44e8-b075-d16798bddc2b" x="69.39" y="275.21" width="44.08" height="22.7"/><rect class="195fbcfc-f8cf-4829-8e52-2f8d721748c0" x="69.39" y="252.52" width="44.08" height="22.7"/><rect class="2f650376-3338-44fa-9b82-b54dd06aec02" x="69.39" y="229.82" width="44.08" height="22.7"/><rect class="2f650376-3338-44fa-9b82-b54dd06aec02" x="69.39" y="207.13" width="44.08" height="22.7"/><rect class="2f650376-3338-44fa-9b82-b54dd06aec02" x="69.39" y="184.43" width="44.08" height="22.7"/><rect class="2f650376-3338-44fa-9b82-b54dd06aec02" x="69.39" y="161.74" width="44.08" height="22.7"/><rect class="2f650376-3338-44fa-9b82-b54dd06aec02" x="69.39" y="139.04" width="44.08" height="22.7"/><rect class="81924448-2f53-4736-a5c3-92fa4d07b0db" x="69.39" y="116.35" width="44.08" height="22.7"/><rect class="81924448-2f53-4736-a5c3-92fa4d07b0db" x="69.39" y="93.65" width="44.08" height="22.7"/><rect class="e65bc718-d769-4bdd-84b9-87de2092aa8c" x="113.48" y="615.64" width="44.08" height="22.7"/><rect class="e65bc718-d769-4bdd-84b9-87de2092aa8c" x="113.48" y="592.94" width="44.08" height="22.7"/><rect class="4f2bcbb7-c6a3-4af6-949b-955751942137" x="113.48" y="570.25" width="44.08" height="22.7"/><rect class="bb4b8d2a-24c4-47f5-944a-a805f8a1ee80" x="113.48" y="547.55" width="44.08" height="22.7"/><rect class="bb4b8d2a-24c4-47f5-944a-a805f8a1ee80" x="113.48" y="524.86" width="44.08" height="22.7"/><rect class="bb4b8d2a-24c4-47f5-944a-a805f8a1ee80" x="113.48" y="502.16" width="44.08" height="22.7"/><rect class="bb4b8d2a-24c4-47f5-944a-a805f8a1ee80" x="113.48" y="479.47" width="44.08" height="22.7"/><rect class="bb4b8d2a-24c4-47f5-944a-a805f8a1ee80" x="113.48" y="456.77" width="44.08" height="22.7"/><rect class="bb4b8d2a-24c4-47f5-944a-a805f8a1ee80" x="113.48" y="434.08" width="44.08" height="22.7"/><rect class="bb4b8d2a-24c4-47f5-944a-a805f8a1ee80" x="113.48" y="411.38" width="44.08" height="22.7"/><rect class="a825c66a-91cd-493f-81e0-a7ba0209da9d" x="113.48" y="388.69" width="44.08" height="22.7"/><rect class="a825c66a-91cd-493f-81e0-a7ba0209da9d" x="113.48" y="365.99" width="44.08" height="22.7"/><rect class="a825c66a-91cd-493f-81e0-a7ba0209da9d" x="113.48" y="343.3" width="44.08" height="22.7"/><rect class="2c4e72be-4a6c-44e8-b075-d16798bddc2b" x="113.48" y="320.6" width="44.08" height="22.7"/><rect class="2c4e72be-4a6c-44e8-b075-d16798bddc2b" x="113.48" y="297.91" width="44.08" height="22.7"/><rect class="2c4e72be-4a6c-44e8-b075-d16798bddc2b" x="113.48" y="275.21" width="44.08" height="22.7"/><rect class="195fbcfc-f8cf-4829-8e52-2f8d721748c0" x="113.48" y="252.52" width="44.08" height="22.7"/><rect class="2f650376-3338-44fa-9b82-b54dd06aec02" x="113.48" y="229.82" width="44.08" height="22.7"/><rect class="2f650376-3338-44fa-9b82-b54dd06aec02" x="113.48" y="207.13" width="44.08" height="22.7"/><rect class="2f650376-3338-44fa-9b82-b54dd06aec02" x="113.48" y="184.43" width="44.08" height="22.7"/><rect class="2f650376-3338-44fa-9b82-b54dd06aec02" x="113.48" y="161.74" width="44.08" height="22.7"/><rect class="2f650376-3338-44fa-9b82-b54dd06aec02" x="113.48" y="139.04" width="44.08" height="22.7"/><rect class="81924448-2f53-4736-a5c3-92fa4d07b0db" x="113.48" y="116.35" width="44.08" height="22.7"/><rect class="81924448-2f53-4736-a5c3-92fa4d07b0db" x="113.48" y="93.65" width="44.08" height="22.7"/><rect class="4f2bcbb7-c6a3-4af6-949b-955751942137" x="157.56" y="615.64" width="44.08" height="22.7"/><rect class="e65bc718-d769-4bdd-84b9-87de2092aa8c" x="157.56" y="592.94" width="44.08" height="22.7"/><rect class="4f2bcbb7-c6a3-4af6-949b-955751942137" x="157.56" y="570.25" width="44.08" height="22.7"/><rect class="e65bc718-d769-4bdd-84b9-87de2092aa8c" x="157.56" y="547.55" width="44.08" height="22.7"/><rect class="a825c66a-91cd-493f-81e0-a7ba0209da9d" x="157.56" y="524.86" width="44.08" height="22.7"/><rect class="e65bc718-d769-4bdd-84b9-87de2092aa8c" x="157.56" y="502.16" width="44.08" height="22.7"/><rect class="bb4b8d2a-24c4-47f5-944a-a805f8a1ee80" x="157.56" y="479.47" width="44.08" height="22.7"/><rect class="bb4b8d2a-24c4-47f5-944a-a805f8a1ee80" x="157.56" y="456.77" width="44.08" height="22.7"/><rect class="bb4b8d2a-24c4-47f5-944a-a805f8a1ee80" x="157.56" y="434.08" width="44.08" height="22.7"/><rect class="a825c66a-91cd-493f-81e0-a7ba0209da9d" x="157.56" y="411.38" width="44.08" height="22.7"/><rect class="2c4e72be-4a6c-44e8-b075-d16798bddc2b" x="157.56" y="388.69" width="44.08" height="22.7"/><rect class="2c4e72be-4a6c-44e8-b075-d16798bddc2b" x="157.56" y="365.99" width="44.08" height="22.7"/><rect class="195fbcfc-f8cf-4829-8e52-2f8d721748c0" x="157.56" y="343.3" width="44.08" height="22.7"/><rect class="2c4e72be-4a6c-44e8-b075-d16798bddc2b" x="157.56" y="320.6" width="44.08" height="22.7"/><rect class="195fbcfc-f8cf-4829-8e52-2f8d721748c0" x="157.56" y="297.91" width="44.08" height="22.7"/><rect class="195fbcfc-f8cf-4829-8e52-2f8d721748c0" x="157.56" y="275.21" width="44.08" height="22.7"/><rect class="2f650376-3338-44fa-9b82-b54dd06aec02" x="157.56" y="252.52" width="44.08" height="22.7"/><rect class="195fbcfc-f8cf-4829-8e52-2f8d721748c0" x="157.56" y="229.82" width="44.08" height="22.7"/><rect class="2c4e72be-4a6c-44e8-b075-d16798bddc2b" x="157.56" y="207.13" width="44.08" height="22.7"/><rect class="195fbcfc-f8cf-4829-8e52-2f8d721748c0" x="157.56" y="184.43" width="44.08" height="22.7"/><rect class="195fbcfc-f8cf-4829-8e52-2f8d721748c0" x="157.56" y="161.74" width="44.08" height="22.7"/><rect class="2f650376-3338-44fa-9b82-b54dd06aec02" x="157.56" y="139.04" width="44.08" height="22.7"/><rect class="2c4e72be-4a6c-44e8-b075-d16798bddc2b" x="157.56" y="116.35" width="44.08" height="22.7"/><rect class="81924448-2f53-4736-a5c3-92fa4d07b0db" x="157.56" y="93.65" width="44.08" height="22.7"/><rect class="bb4b8d2a-24c4-47f5-944a-a805f8a1ee80" x="201.65" y="615.64" width="44.08" height="22.7"/><rect class="2c4e72be-4a6c-44e8-b075-d16798bddc2b" x="201.65" y="592.94" width="44.08" height="22.7"/><rect class="2c4e72be-4a6c-44e8-b075-d16798bddc2b" x="201.65" y="570.25" width="44.08" height="22.7"/><rect class="bb4b8d2a-24c4-47f5-944a-a805f8a1ee80" x="201.65" y="547.55" width="44.08" height="22.7"/><rect class="a825c66a-91cd-493f-81e0-a7ba0209da9d" x="201.65" y="524.86" width="44.08" height="22.7"/><rect class="bb4b8d2a-24c4-47f5-944a-a805f8a1ee80" x="201.65" y="502.16" width="44.08" height="22.7"/><rect class="195fbcfc-f8cf-4829-8e52-2f8d721748c0" x="201.65" y="479.47" width="44.08" height="22.7"/><rect class="195fbcfc-f8cf-4829-8e52-2f8d721748c0" x="201.65" y="456.77" width="44.08" height="22.7"/><rect class="2c4e72be-4a6c-44e8-b075-d16798bddc2b" x="201.65" y="434.08" width="44.08" height="22.7"/><rect class="195fbcfc-f8cf-4829-8e52-2f8d721748c0" x="201.65" y="411.38" width="44.08" height="22.7"/><rect class="2c4e72be-4a6c-44e8-b075-d16798bddc2b" x="201.65" y="388.69" width="44.08" height="22.7"/><rect class="195fbcfc-f8cf-4829-8e52-2f8d721748c0" x="201.65" y="365.99" width="44.08" height="22.7"/><rect class="2f650376-3338-44fa-9b82-b54dd06aec02" x="201.65" y="343.3" width="44.08" height="22.7"/><rect class="2c4e72be-4a6c-44e8-b075-d16798bddc2b" x="201.65" y="320.6" width="44.08" height="22.7"/><rect class="4f2bcbb7-c6a3-4af6-949b-955751942137" x="201.65" y="297.91" width="44.08" height="22.7"/><rect class="5b2fc921-87b5-49a6-b69b-3ff56393d8d9" x="201.65" y="275.21" width="44.08" height="22.7"/><rect class="bb4b8d2a-24c4-47f5-944a-a805f8a1ee80" x="201.65" y="252.52" width="44.08" height="22.7"/><rect class="a825c66a-91cd-493f-81e0-a7ba0209da9d" x="201.65" y="229.82" width="44.08" height="22.7"/><rect class="bb4b8d2a-24c4-47f5-944a-a805f8a1ee80" x="201.65" y="207.13" width="44.08" height="22.7"/><rect class="195fbcfc-f8cf-4829-8e52-2f8d721748c0" x="201.65" y="184.43" width="44.08" height="22.7"/><rect class="195fbcfc-f8cf-4829-8e52-2f8d721748c0" x="201.65" y="161.74" width="44.08" height="22.7"/><rect class="81924448-2f53-4736-a5c3-92fa4d07b0db" x="201.65" y="139.04" width="44.08" height="22.7"/><rect class="2f650376-3338-44fa-9b82-b54dd06aec02" x="201.65" y="116.35" width="44.08" height="22.7"/><rect class="195fbcfc-f8cf-4829-8e52-2f8d721748c0" x="201.65" y="93.65" width="44.08" height="22.7"/><rect class="e65bc718-d769-4bdd-84b9-87de2092aa8c" x="245.73" y="411.38" width="44.08" height="22.7"/><rect class="bb4b8d2a-24c4-47f5-944a-a805f8a1ee80" x="245.73" y="388.69" width="44.08" height="22.7"/><rect class="e65bc718-d769-4bdd-84b9-87de2092aa8c" x="245.73" y="365.99" width="44.08" height="22.7"/><rect class="bb4b8d2a-24c4-47f5-944a-a805f8a1ee80" x="245.73" y="343.3" width="44.08" height="22.7"/><rect class="bb4b8d2a-24c4-47f5-944a-a805f8a1ee80" x="245.73" y="320.6" width="44.08" height="22.7"/><rect class="bb4b8d2a-24c4-47f5-944a-a805f8a1ee80" x="245.73" y="297.91" width="44.08" height="22.7"/><rect class="a825c66a-91cd-493f-81e0-a7ba0209da9d" x="245.73" y="275.21" width="44.08" height="22.7"/><rect class="2c4e72be-4a6c-44e8-b075-d16798bddc2b" x="245.73" y="252.52" width="44.08" height="22.7"/><rect class="a825c66a-91cd-493f-81e0-a7ba0209da9d" x="245.73" y="229.82" width="44.08" height="22.7"/><rect class="81924448-2f53-4736-a5c3-92fa4d07b0db" x="245.73" y="207.13" width="44.08" height="22.7"/><rect class="2f650376-3338-44fa-9b82-b54dd06aec02" x="245.73" y="184.43" width="44.08" height="22.7"/><rect class="2f650376-3338-44fa-9b82-b54dd06aec02" x="245.73" y="161.74" width="44.08" height="22.7"/><rect class="2f650376-3338-44fa-9b82-b54dd06aec02" x="245.73" y="139.04" width="44.08" height="22.7"/><rect class="195fbcfc-f8cf-4829-8e52-2f8d721748c0" x="245.73" y="116.35" width="44.08" height="22.7"/><rect class="195fbcfc-f8cf-4829-8e52-2f8d721748c0" x="245.73" y="93.65" width="44.08" height="22.7"/><rect class="e65bc718-d769-4bdd-84b9-87de2092aa8c" x="289.81" y="615.64" width="44.08" height="22.7"/><rect class="e65bc718-d769-4bdd-84b9-87de2092aa8c" x="289.81" y="592.94" width="44.08" height="22.7"/><rect class="bb4b8d2a-24c4-47f5-944a-a805f8a1ee80" x="289.81" y="570.25" width="44.08" height="22.7"/><rect class="4f2bcbb7-c6a3-4af6-949b-955751942137" x="289.81" y="547.55" width="44.08" height="22.7"/><rect class="e65bc718-d769-4bdd-84b9-87de2092aa8c" x="289.81" y="524.86" width="44.08" height="22.7"/><rect class="e65bc718-d769-4bdd-84b9-87de2092aa8c" x="289.81" y="502.16" width="44.08" height="22.7"/><rect class="bb4b8d2a-24c4-47f5-944a-a805f8a1ee80" x="289.81" y="479.47" width="44.08" height="22.7"/><rect class="a825c66a-91cd-493f-81e0-a7ba0209da9d" x="289.81" y="456.77" width="44.08" height="22.7"/><rect class="a825c66a-91cd-493f-81e0-a7ba0209da9d" x="289.81" y="434.08" width="44.08" height="22.7"/><rect class="a825c66a-91cd-493f-81e0-a7ba0209da9d" x="289.81" y="411.38" width="44.08" height="22.7"/><rect class="a825c66a-91cd-493f-81e0-a7ba0209da9d" x="289.81" y="388.69" width="44.08" height="22.7"/><rect class="2c4e72be-4a6c-44e8-b075-d16798bddc2b" x="289.81" y="365.99" width="44.08" height="22.7"/><rect class="2c4e72be-4a6c-44e8-b075-d16798bddc2b" x="289.81" y="343.3" width="44.08" height="22.7"/><rect class="2c4e72be-4a6c-44e8-b075-d16798bddc2b" x="289.81" y="320.6" width="44.08" height="22.7"/><rect class="2c4e72be-4a6c-44e8-b075-d16798bddc2b" x="289.81" y="297.91" width="44.08" height="22.7"/><rect class="2c4e72be-4a6c-44e8-b075-d16798bddc2b" x="289.81" y="275.21" width="44.08" height="22.7"/><rect class="195fbcfc-f8cf-4829-8e52-2f8d721748c0" x="289.81" y="252.52" width="44.08" height="22.7"/><rect class="2f650376-3338-44fa-9b82-b54dd06aec02" x="289.81" y="229.82" width="44.08" height="22.7"/><rect class="2f650376-3338-44fa-9b82-b54dd06aec02" x="289.81" y="207.13" width="44.08" height="22.7"/><rect class="2f650376-3338-44fa-9b82-b54dd06aec02" x="289.81" y="184.43" width="44.08" height="22.7"/><rect class="2f650376-3338-44fa-9b82-b54dd06aec02" x="289.81" y="161.74" width="44.08" height="22.7"/><rect class="2f650376-3338-44fa-9b82-b54dd06aec02" x="289.81" y="139.04" width="44.08" height="22.7"/><rect class="2f650376-3338-44fa-9b82-b54dd06aec02" x="289.81" y="116.35" width="44.08" height="22.7"/><rect class="2f650376-3338-44fa-9b82-b54dd06aec02" x="289.81" y="93.65" width="44.08" height="22.7"/><rect class="e65bc718-d769-4bdd-84b9-87de2092aa8c" x="333.9" y="570.25" width="44.08" height="22.7"/><rect class="bb4b8d2a-24c4-47f5-944a-a805f8a1ee80" x="333.9" y="547.55" width="44.08" height="22.7"/><rect class="bb4b8d2a-24c4-47f5-944a-a805f8a1ee80" x="333.9" y="524.86" width="44.08" height="22.7"/><rect class="bb4b8d2a-24c4-47f5-944a-a805f8a1ee80" x="333.9" y="502.16" width="44.08" height="22.7"/><rect class="e65bc718-d769-4bdd-84b9-87de2092aa8c" x="333.9" y="479.47" width="44.08" height="22.7"/><rect class="bb4b8d2a-24c4-47f5-944a-a805f8a1ee80" x="333.9" y="456.77" width="44.08" height="22.7"/><rect class="bb4b8d2a-24c4-47f5-944a-a805f8a1ee80" x="333.9" y="434.08" width="44.08" height="22.7"/><rect class="e65bc718-d769-4bdd-84b9-87de2092aa8c" x="333.9" y="411.38" width="44.08" height="22.7"/><rect class="bb4b8d2a-24c4-47f5-944a-a805f8a1ee80" x="333.9" y="388.69" width="44.08" height="22.7"/><rect class="2c4e72be-4a6c-44e8-b075-d16798bddc2b" x="333.9" y="365.99" width="44.08" height="22.7"/><rect class="195fbcfc-f8cf-4829-8e52-2f8d721748c0" x="333.9" y="343.3" width="44.08" height="22.7"/><rect class="195fbcfc-f8cf-4829-8e52-2f8d721748c0" x="333.9" y="320.6" width="44.08" height="22.7"/><rect class="2c4e72be-4a6c-44e8-b075-d16798bddc2b" x="333.9" y="297.91" width="44.08" height="22.7"/><rect class="2c4e72be-4a6c-44e8-b075-d16798bddc2b" x="333.9" y="275.21" width="44.08" height="22.7"/><rect class="2c4e72be-4a6c-44e8-b075-d16798bddc2b" x="333.9" y="252.52" width="44.08" height="22.7"/><rect class="2f650376-3338-44fa-9b82-b54dd06aec02" x="333.9" y="229.82" width="44.08" height="22.7"/><rect class="195fbcfc-f8cf-4829-8e52-2f8d721748c0" x="333.9" y="207.13" width="44.08" height="22.7"/><rect class="195fbcfc-f8cf-4829-8e52-2f8d721748c0" x="333.9" y="184.43" width="44.08" height="22.7"/><rect class="2f650376-3338-44fa-9b82-b54dd06aec02" x="333.9" y="161.74" width="44.08" height="22.7"/><rect class="2f650376-3338-44fa-9b82-b54dd06aec02" x="333.9" y="139.04" width="44.08" height="22.7"/><rect class="2f650376-3338-44fa-9b82-b54dd06aec02" x="333.9" y="116.35" width="44.08" height="22.7"/><rect class="2f650376-3338-44fa-9b82-b54dd06aec02" x="333.9" y="93.65" width="44.08" height="22.7"/><rect class="bb4b8d2a-24c4-47f5-944a-a805f8a1ee80" x="377.98" y="615.64" width="44.08" height="22.7"/><rect class="e65bc718-d769-4bdd-84b9-87de2092aa8c" x="377.98" y="592.94" width="44.08" height="22.7"/><rect class="bb4b8d2a-24c4-47f5-944a-a805f8a1ee80" x="377.98" y="570.25" width="44.08" height="22.7"/><rect class="a825c66a-91cd-493f-81e0-a7ba0209da9d" x="377.98" y="547.55" width="44.08" height="22.7"/><rect class="2c4e72be-4a6c-44e8-b075-d16798bddc2b" x="377.98" y="524.86" width="44.08" height="22.7"/><rect class="e65bc718-d769-4bdd-84b9-87de2092aa8c" x="377.98" y="502.16" width="44.08" height="22.7"/><rect class="bb4b8d2a-24c4-47f5-944a-a805f8a1ee80" x="377.98" y="479.47" width="44.08" height="22.7"/><rect class="bb4b8d2a-24c4-47f5-944a-a805f8a1ee80" x="377.98" y="456.77" width="44.08" height="22.7"/><rect class="a825c66a-91cd-493f-81e0-a7ba0209da9d" x="377.98" y="434.08" width="44.08" height="22.7"/><rect class="bb4b8d2a-24c4-47f5-944a-a805f8a1ee80" x="377.98" y="411.38" width="44.08" height="22.7"/><rect class="bb4b8d2a-24c4-47f5-944a-a805f8a1ee80" x="377.98" y="388.69" width="44.08" height="22.7"/><rect class="bb4b8d2a-24c4-47f5-944a-a805f8a1ee80" x="377.98" y="365.99" width="44.08" height="22.7"/><rect class="bb4b8d2a-24c4-47f5-944a-a805f8a1ee80" x="377.98" y="343.3" width="44.08" height="22.7"/><rect class="bb4b8d2a-24c4-47f5-944a-a805f8a1ee80" x="377.98" y="320.6" width="44.08" height="22.7"/><rect class="a825c66a-91cd-493f-81e0-a7ba0209da9d" x="377.98" y="297.91" width="44.08" height="22.7"/><rect class="2c4e72be-4a6c-44e8-b075-d16798bddc2b" x="377.98" y="275.21" width="44.08" height="22.7"/><rect class="2f650376-3338-44fa-9b82-b54dd06aec02" x="377.98" y="252.52" width="44.08" height="22.7"/><rect class="195fbcfc-f8cf-4829-8e52-2f8d721748c0" x="377.98" y="229.82" width="44.08" height="22.7"/><rect class="2f650376-3338-44fa-9b82-b54dd06aec02" x="377.98" y="207.13" width="44.08" height="22.7"/><rect class="2f650376-3338-44fa-9b82-b54dd06aec02" x="377.98" y="184.43" width="44.08" height="22.7"/><rect class="81924448-2f53-4736-a5c3-92fa4d07b0db" x="377.98" y="161.74" width="44.08" height="22.7"/><rect class="2f650376-3338-44fa-9b82-b54dd06aec02" x="377.98" y="139.04" width="44.08" height="22.7"/><rect class="2f650376-3338-44fa-9b82-b54dd06aec02" x="377.98" y="116.35" width="44.08" height="22.7"/><rect class="2f650376-3338-44fa-9b82-b54dd06aec02" x="377.98" y="93.65" width="44.08" height="22.7"/><rect class="195fbcfc-f8cf-4829-8e52-2f8d721748c0" x="422.07" y="615.64" width="44.08" height="22.7"/><rect class="195fbcfc-f8cf-4829-8e52-2f8d721748c0" x="422.07" y="592.94" width="44.08" height="22.7"/><rect class="195fbcfc-f8cf-4829-8e52-2f8d721748c0" x="422.07" y="570.25" width="44.08" height="22.7"/><rect class="a825c66a-91cd-493f-81e0-a7ba0209da9d" x="422.07" y="547.55" width="44.08" height="22.7"/><rect class="a825c66a-91cd-493f-81e0-a7ba0209da9d" x="422.07" y="524.86" width="44.08" height="22.7"/><rect class="a825c66a-91cd-493f-81e0-a7ba0209da9d" x="422.07" y="502.16" width="44.08" height="22.7"/><rect class="195fbcfc-f8cf-4829-8e52-2f8d721748c0" x="422.07" y="479.47" width="44.08" height="22.7"/><rect class="2c4e72be-4a6c-44e8-b075-d16798bddc2b" x="422.07" y="456.77" width="44.08" height="22.7"/><rect class="a825c66a-91cd-493f-81e0-a7ba0209da9d" x="422.07" y="434.08" width="44.08" height="22.7"/><rect class="e65bc718-d769-4bdd-84b9-87de2092aa8c" x="422.07" y="411.38" width="44.08" height="22.7"/><rect class="2c4e72be-4a6c-44e8-b075-d16798bddc2b" x="422.07" y="388.69" width="44.08" height="22.7"/><rect class="a825c66a-91cd-493f-81e0-a7ba0209da9d" x="422.07" y="365.99" width="44.08" height="22.7"/><rect class="bb4b8d2a-24c4-47f5-944a-a805f8a1ee80" x="422.07" y="343.3" width="44.08" height="22.7"/><rect class="195fbcfc-f8cf-4829-8e52-2f8d721748c0" x="422.07" y="320.6" width="44.08" height="22.7"/><rect class="195fbcfc-f8cf-4829-8e52-2f8d721748c0" x="422.07" y="297.91" width="44.08" height="22.7"/><rect class="2c4e72be-4a6c-44e8-b075-d16798bddc2b" x="422.07" y="275.21" width="44.08" height="22.7"/><rect class="2f650376-3338-44fa-9b82-b54dd06aec02" x="422.07" y="252.52" width="44.08" height="22.7"/><rect class="81924448-2f53-4736-a5c3-92fa4d07b0db" x="422.07" y="229.82" width="44.08" height="22.7"/><rect class="4f2bcbb7-c6a3-4af6-949b-955751942137" x="422.07" y="207.13" width="44.08" height="22.7"/><rect class="e65bc718-d769-4bdd-84b9-87de2092aa8c" x="422.07" y="184.43" width="44.08" height="22.7"/><rect class="e65bc718-d769-4bdd-84b9-87de2092aa8c" x="422.07" y="161.74" width="44.08" height="22.7"/><rect class="bb4b8d2a-24c4-47f5-944a-a805f8a1ee80" x="422.07" y="139.04" width="44.08" height="22.7"/><rect class="bb4b8d2a-24c4-47f5-944a-a805f8a1ee80" x="422.07" y="116.35" width="44.08" height="22.7"/><rect class="81924448-2f53-4736-a5c3-92fa4d07b0db" x="422.07" y="93.65" width="44.08" height="22.7"/><text class="d09d2a97-af22-46f7-9cb8-008744319111" transform="translate(52.74 694.16) rotate(-90)">EE.UU.</text><text class="d09d2a97-af22-46f7-9cb8-008744319111" transform="translate(96.82 721.15) rotate(-90)">ALEMANIA</text><text class="d09d2a97-af22-46f7-9cb8-008744319111" transform="translate(140.9 696.83) rotate(-90)">ITALIA</text><text class="508784f6-2c0e-47c6-a98b-4b8c9bc3a9d4" transform="translate(184.99 695.88) rotate(-90)">JAPÓN</text><text class="d09d2a97-af22-46f7-9cb8-008744319111" transform="translate(229.07 709.85) rotate(-90)">FRANCIA</text><text class="d09d2a97-af22-46f7-9cb8-008744319111" transform="translate(273.16 710.5) rotate(-90)">BÉLGICA</text><text class="d09d2a97-af22-46f7-9cb8-008744319111" transform="translate(317.24 707.67) rotate(-90)">ESPAÑA</text><text class="d09d2a97-af22-46f7-9cb8-008744319111" transform="translate(361.32 694.77) rotate(-90)">RUSIA</text><text class="d09d2a97-af22-46f7-9cb8-008744319111" transform="translate(405.41 739.03) rotate(-90)">INGLATERRA</text><text class="d09d2a97-af22-46f7-9cb8-008744319111" transform="translate(449.49 750.41) rotate(-90)">PAÍSES BAJOS</text><text class="d09d2a97-af22-46f7-9cb8-008744319111" transform="translate(472.13 631.3)">1990</text><text class="d09d2a97-af22-46f7-9cb8-008744319111" transform="translate(472.13 608.61)">1991</text><text class="d09d2a97-af22-46f7-9cb8-008744319111" transform="translate(472.13 585.91)">1992</text><text class="d09d2a97-af22-46f7-9cb8-008744319111" transform="translate(472.13 563.21)">1993</text><text class="d09d2a97-af22-46f7-9cb8-008744319111" transform="translate(472.13 540.52)">1994</text><text class="d09d2a97-af22-46f7-9cb8-008744319111" transform="translate(472.13 517.82)">1995</text><text class="d09d2a97-af22-46f7-9cb8-008744319111" transform="translate(472.13 495.13)">1996</text><text class="d09d2a97-af22-46f7-9cb8-008744319111" transform="translate(472.13 472.43)">1997</text><text class="d09d2a97-af22-46f7-9cb8-008744319111" transform="translate(472.13 449.74)">1998</text><text class="d09d2a97-af22-46f7-9cb8-008744319111" transform="translate(472.13 427.04)">1999</text><text class="d09d2a97-af22-46f7-9cb8-008744319111" transform="translate(472.13 404.35)">2000</text><text class="d09d2a97-af22-46f7-9cb8-008744319111" transform="translate(472.13 381.65)">2001</text><text class="d09d2a97-af22-46f7-9cb8-008744319111" transform="translate(472.13 358.96)">2002</text><text class="d09d2a97-af22-46f7-9cb8-008744319111" transform="translate(472.13 336.26)">2003</text><text class="d09d2a97-af22-46f7-9cb8-008744319111" transform="translate(472.13 313.57)">2004</text><text class="d09d2a97-af22-46f7-9cb8-008744319111" transform="translate(472.13 290.87)">2005</text><text class="d09d2a97-af22-46f7-9cb8-008744319111" transform="translate(472.13 268.18)">2006</text><text class="d09d2a97-af22-46f7-9cb8-008744319111" transform="translate(472.13 245.48)">2007</text><text class="d09d2a97-af22-46f7-9cb8-008744319111" transform="translate(472.13 222.79)">2008</text><text class="d09d2a97-af22-46f7-9cb8-008744319111" transform="translate(472.13 200.09)">2009</text><text class="d09d2a97-af22-46f7-9cb8-008744319111" transform="translate(472.13 177.4)">2010</text><text class="d09d2a97-af22-46f7-9cb8-008744319111" transform="translate(472.13 154.7)">2011</text><text class="d09d2a97-af22-46f7-9cb8-008744319111" transform="translate(472.13 132.01)">2012</text><text class="d09d2a97-af22-46f7-9cb8-008744319111" transform="translate(472.13 109.31)">2013</text></svg>