<svg id="b6643bc0-0527-4ccb-8d66-d606302fe6a8" data-name="Capa 1" xmlns="http://www.w3.org/2000/svg" viewBox="0 0 510 935"><defs><style>.c0204823-9443-40a7-8102-d4f6b57a3b5f{font-size:28px;}.\30 f4a91d7-5dd7-4f9c-973f-4ad2619afed8,.c0204823-9443-40a7-8102-d4f6b57a3b5f{fill:#323232;}.\36 28c519a-8f97-40f6-8304-c8e673ab562f,.c0204823-9443-40a7-8102-d4f6b57a3b5f{font-family:Arial-BoldMT, Arial;font-weight:700;}.\30 f4a91d7-5dd7-4f9c-973f-4ad2619afed8,.\36 28c519a-8f97-40f6-8304-c8e673ab562f{font-size:16px;}.\30 f4a91d7-5dd7-4f9c-973f-4ad2619afed8,.df15f07b-7e25-4d5f-b360-a0276881c4b1{font-family:ArialMT, Arial;}.d913002a-66e2-4069-886d-5b114f3936b7{letter-spacing:-0.06em;}.\36 28c519a-8f97-40f6-8304-c8e673ab562f,.df15f07b-7e25-4d5f-b360-a0276881c4b1{fill:#757575;}.\31 1181ded-15f9-449f-8f64-c48acf88aa96{letter-spacing:-0.04em;}.\32 a5b6e19-ced3-4488-9f59-5ee17b81e682{letter-spacing:-0.07em;}.\31 e5d4a64-84b3-4c3a-9b3c-a6bcd0c9874e{fill:#c13456;}.\36 7e074f5-cc6f-4603-bb3c-c9ea7b23da69{fill:#e5e5e5;}.\31 6378744-8bb8-414a-9f98-feefffa0ab9c{letter-spacing:-0.02em;}.c109af45-ed61-4814-b988-e63ae036aa1f{letter-spacing:-0.13em;}.df15f07b-7e25-4d5f-b360-a0276881c4b1{font-size:15px;}.\34 6c5bd5c-1b96-47d6-8f58-cb6d248fb8dd{letter-spacing:-0.04em;}.\38 9c25a0f-10fb-484d-9547-c259ebba8aa1{letter-spacing:0em;}.d0635c69-b1cc-44e5-a839-2e871274bef5{letter-spacing:-0.06em;}.e18dab3e-e6d1-4c20-b51a-4f55540bf68c{letter-spacing:-0.06em;}.b6f1c19b-ce4e-4740-a016-4e388083e941{fill:none;stroke:#323232;}</style></defs><title>2018.06_LideresMundiales2</title><text class="c0204823-9443-40a7-8102-d4f6b57a3b5f" transform="translate(16.86 29.05)">¿Cuántos años tarda un profesor en <tspan x="9.3" y="33.6">cobrar el sueldo de su presidente?</tspan></text><text class="0f4a91d7-5dd7-4f9c-973f-4ad2619afed8" transform="translate(403 98.12)">1<tspan class="d913002a-66e2-4069-886d-5b114f3936b7" x="8.9" y="0"> </tspan><tspan x="12.46" y="0">AÑO</tspan></text><text class="628c519a-8f97-40f6-8304-c8e673ab562f" transform="translate(52.25 142.73)">AUSTRALI<tspan class="11181ded-15f9-449f-8f64-c48acf88aa96" x="80.88" y="0">A</tspan></text><text class="628c519a-8f97-40f6-8304-c8e673ab562f" transform="translate(88.13 258.17)">JAPÓN</text><text class="628c519a-8f97-40f6-8304-c8e673ab562f" transform="translate(72.7 297.48)">FRANCI<tspan class="11181ded-15f9-449f-8f64-c48acf88aa96" x="60.44" y="0">A</tspan></text><text class="628c519a-8f97-40f6-8304-c8e673ab562f" transform="translate(70.03 336.79)">LITUANI<tspan class="11181ded-15f9-449f-8f64-c48acf88aa96" x="63.1" y="0">A</tspan></text><text class="628c519a-8f97-40f6-8304-c8e673ab562f" transform="translate(93.49 372.76)">I<tspan class="2a5b6e19-ced3-4488-9f59-5ee17b81e682" x="4.45" y="0">T</tspan><tspan x="13.03" y="0">ALI</tspan><tspan class="11181ded-15f9-449f-8f64-c48acf88aa96" x="38.8" y="0">A</tspan></text><text class="628c519a-8f97-40f6-8304-c8e673ab562f" transform="translate(70.97 412.91)">TURQUÍ<tspan class="11181ded-15f9-449f-8f64-c48acf88aa96" x="61.33" y="0">A</tspan></text><text class="628c519a-8f97-40f6-8304-c8e673ab562f" transform="translate(89.23 179.54)">EE.UU.</text><text class="628c519a-8f97-40f6-8304-c8e673ab562f" transform="translate(95.41 220.52)">CHILE</text><rect class="1e5d4a64-84b3-4c3a-9b3c-a6bcd0c9874e" x="153.59" y="120" width="30.22" height="30.22"/><rect class="1e5d4a64-84b3-4c3a-9b3c-a6bcd0c9874e" x="187.84" y="120" width="30.22" height="30.22"/><rect class="1e5d4a64-84b3-4c3a-9b3c-a6bcd0c9874e" x="222.09" y="120" width="30.22" height="30.22"/><rect class="1e5d4a64-84b3-4c3a-9b3c-a6bcd0c9874e" x="256.34" y="120" width="30.22" height="30.22"/><rect class="1e5d4a64-84b3-4c3a-9b3c-a6bcd0c9874e" x="290.59" y="120" width="30.22" height="30.22"/><rect class="1e5d4a64-84b3-4c3a-9b3c-a6bcd0c9874e" x="460.59" y="78" width="30.22" height="30.22"/><rect class="1e5d4a64-84b3-4c3a-9b3c-a6bcd0c9874e" x="324.84" y="120" width="30.22" height="30.22"/><rect class="67e074f5-cc6f-4603-bb3c-c9ea7b23da69" x="359.09" y="120" width="30.22" height="30.22"/><rect class="67e074f5-cc6f-4603-bb3c-c9ea7b23da69" x="393.35" y="120" width="30.22" height="30.22"/><rect class="67e074f5-cc6f-4603-bb3c-c9ea7b23da69" x="427.6" y="120" width="30.22" height="30.22"/><rect class="67e074f5-cc6f-4603-bb3c-c9ea7b23da69" x="461.85" y="120" width="30.22" height="30.22"/><rect class="1e5d4a64-84b3-4c3a-9b3c-a6bcd0c9874e" x="153.59" y="159.02" width="30.22" height="30.22"/><rect class="1e5d4a64-84b3-4c3a-9b3c-a6bcd0c9874e" x="187.84" y="159.02" width="30.22" height="30.22"/><rect class="1e5d4a64-84b3-4c3a-9b3c-a6bcd0c9874e" x="222.09" y="159.02" width="30.22" height="30.22"/><rect class="1e5d4a64-84b3-4c3a-9b3c-a6bcd0c9874e" x="256.34" y="159.02" width="30.22" height="30.22"/><rect class="1e5d4a64-84b3-4c3a-9b3c-a6bcd0c9874e" x="290.59" y="159.02" width="30.22" height="30.22"/><rect class="1e5d4a64-84b3-4c3a-9b3c-a6bcd0c9874e" x="324.84" y="159.02" width="30.22" height="30.22"/><rect class="67e074f5-cc6f-4603-bb3c-c9ea7b23da69" x="359.09" y="159.02" width="30.22" height="30.22"/><rect class="67e074f5-cc6f-4603-bb3c-c9ea7b23da69" x="393.35" y="159.02" width="30.22" height="30.22"/><rect class="67e074f5-cc6f-4603-bb3c-c9ea7b23da69" x="427.6" y="159.02" width="30.22" height="30.22"/><rect class="67e074f5-cc6f-4603-bb3c-c9ea7b23da69" x="461.85" y="159.02" width="30.22" height="30.22"/><rect class="1e5d4a64-84b3-4c3a-9b3c-a6bcd0c9874e" x="153.59" y="198.04" width="30.22" height="30.22"/><rect class="1e5d4a64-84b3-4c3a-9b3c-a6bcd0c9874e" x="187.84" y="198.04" width="30.22" height="30.22"/><rect class="1e5d4a64-84b3-4c3a-9b3c-a6bcd0c9874e" x="222.09" y="198.04" width="30.22" height="30.22"/><rect class="1e5d4a64-84b3-4c3a-9b3c-a6bcd0c9874e" x="256.34" y="198.04" width="30.22" height="30.22"/><rect class="1e5d4a64-84b3-4c3a-9b3c-a6bcd0c9874e" x="290.59" y="198.04" width="30.22" height="30.22"/><rect class="1e5d4a64-84b3-4c3a-9b3c-a6bcd0c9874e" x="324.84" y="198.04" width="30.22" height="30.22"/><rect class="67e074f5-cc6f-4603-bb3c-c9ea7b23da69" x="359.09" y="198.04" width="30.22" height="30.22"/><rect class="67e074f5-cc6f-4603-bb3c-c9ea7b23da69" x="393.35" y="198.04" width="30.22" height="30.22"/><rect class="67e074f5-cc6f-4603-bb3c-c9ea7b23da69" x="427.6" y="198.04" width="30.22" height="30.22"/><rect class="67e074f5-cc6f-4603-bb3c-c9ea7b23da69" x="461.85" y="198.04" width="30.22" height="30.22"/><rect class="1e5d4a64-84b3-4c3a-9b3c-a6bcd0c9874e" x="153.59" y="236.77" width="30.22" height="30.22"/><rect class="1e5d4a64-84b3-4c3a-9b3c-a6bcd0c9874e" x="187.84" y="236.77" width="30.22" height="30.22"/><rect class="1e5d4a64-84b3-4c3a-9b3c-a6bcd0c9874e" x="222.09" y="236.77" width="30.22" height="30.22"/><rect class="1e5d4a64-84b3-4c3a-9b3c-a6bcd0c9874e" x="256.34" y="236.77" width="30.22" height="30.22"/><rect class="1e5d4a64-84b3-4c3a-9b3c-a6bcd0c9874e" x="290.59" y="236.77" width="30.22" height="30.22"/><rect class="1e5d4a64-84b3-4c3a-9b3c-a6bcd0c9874e" x="324.84" y="236.77" width="30.22" height="30.22"/><rect class="67e074f5-cc6f-4603-bb3c-c9ea7b23da69" x="359.09" y="236.77" width="30.22" height="30.22"/><rect class="67e074f5-cc6f-4603-bb3c-c9ea7b23da69" x="393.35" y="236.77" width="30.22" height="30.22"/><rect class="67e074f5-cc6f-4603-bb3c-c9ea7b23da69" x="427.6" y="236.77" width="30.22" height="30.22"/><rect class="67e074f5-cc6f-4603-bb3c-c9ea7b23da69" x="461.85" y="236.77" width="30.22" height="30.22"/><rect class="1e5d4a64-84b3-4c3a-9b3c-a6bcd0c9874e" x="153.59" y="275.1" width="30.22" height="30.22"/><rect class="1e5d4a64-84b3-4c3a-9b3c-a6bcd0c9874e" x="187.84" y="275.1" width="30.22" height="30.22"/><rect class="1e5d4a64-84b3-4c3a-9b3c-a6bcd0c9874e" x="222.09" y="275.1" width="30.22" height="30.22"/><rect class="1e5d4a64-84b3-4c3a-9b3c-a6bcd0c9874e" x="256.34" y="275.1" width="30.22" height="30.22"/><rect class="1e5d4a64-84b3-4c3a-9b3c-a6bcd0c9874e" x="290.59" y="275.1" width="30.22" height="30.22"/><rect class="67e074f5-cc6f-4603-bb3c-c9ea7b23da69" x="324.84" y="275.1" width="30.22" height="30.22"/><rect class="67e074f5-cc6f-4603-bb3c-c9ea7b23da69" x="359.09" y="275.1" width="30.22" height="30.22"/><rect class="67e074f5-cc6f-4603-bb3c-c9ea7b23da69" x="393.35" y="275.1" width="30.22" height="30.22"/><rect class="67e074f5-cc6f-4603-bb3c-c9ea7b23da69" x="427.6" y="275.1" width="30.22" height="30.22"/><rect class="67e074f5-cc6f-4603-bb3c-c9ea7b23da69" x="461.85" y="275.1" width="30.22" height="30.22"/><rect class="1e5d4a64-84b3-4c3a-9b3c-a6bcd0c9874e" x="153.59" y="314.01" width="30.22" height="30.22"/><rect class="1e5d4a64-84b3-4c3a-9b3c-a6bcd0c9874e" x="187.84" y="314.01" width="30.22" height="30.22"/><rect class="1e5d4a64-84b3-4c3a-9b3c-a6bcd0c9874e" x="222.09" y="314.01" width="30.22" height="30.22"/><rect class="1e5d4a64-84b3-4c3a-9b3c-a6bcd0c9874e" x="256.34" y="314.01" width="30.22" height="30.22"/><rect class="1e5d4a64-84b3-4c3a-9b3c-a6bcd0c9874e" x="290.59" y="314.01" width="30.22" height="30.22"/><rect class="67e074f5-cc6f-4603-bb3c-c9ea7b23da69" x="324.84" y="314.01" width="30.22" height="30.22"/><rect class="67e074f5-cc6f-4603-bb3c-c9ea7b23da69" x="359.09" y="314.01" width="30.22" height="30.22"/><rect class="67e074f5-cc6f-4603-bb3c-c9ea7b23da69" x="393.35" y="314.01" width="30.22" height="30.22"/><rect class="67e074f5-cc6f-4603-bb3c-c9ea7b23da69" x="427.6" y="314.01" width="30.22" height="30.22"/><rect class="67e074f5-cc6f-4603-bb3c-c9ea7b23da69" x="461.85" y="314.01" width="30.22" height="30.22"/><rect class="1e5d4a64-84b3-4c3a-9b3c-a6bcd0c9874e" x="154.42" y="351.74" width="30.22" height="30.22"/><rect class="1e5d4a64-84b3-4c3a-9b3c-a6bcd0c9874e" x="188.67" y="351.74" width="30.22" height="30.22"/><rect class="1e5d4a64-84b3-4c3a-9b3c-a6bcd0c9874e" x="222.92" y="351.74" width="30.22" height="30.22"/><rect class="1e5d4a64-84b3-4c3a-9b3c-a6bcd0c9874e" x="257.18" y="351.74" width="30.22" height="30.22"/><rect class="67e074f5-cc6f-4603-bb3c-c9ea7b23da69" x="291.43" y="351.74" width="30.22" height="30.22"/><rect class="67e074f5-cc6f-4603-bb3c-c9ea7b23da69" x="325.68" y="351.74" width="30.22" height="30.22"/><rect class="67e074f5-cc6f-4603-bb3c-c9ea7b23da69" x="359.93" y="351.74" width="30.22" height="30.22"/><rect class="67e074f5-cc6f-4603-bb3c-c9ea7b23da69" x="394.18" y="351.74" width="30.22" height="30.22"/><rect class="67e074f5-cc6f-4603-bb3c-c9ea7b23da69" x="428.43" y="351.74" width="30.22" height="30.22"/><rect class="67e074f5-cc6f-4603-bb3c-c9ea7b23da69" x="462.68" y="351.74" width="30.22" height="30.22"/><rect class="67e074f5-cc6f-4603-bb3c-c9ea7b23da69" x="153.59" y="390.25" width="30.22" height="30.22"/><rect class="67e074f5-cc6f-4603-bb3c-c9ea7b23da69" x="187.84" y="390.25" width="30.22" height="30.22"/><rect class="67e074f5-cc6f-4603-bb3c-c9ea7b23da69" x="222.09" y="390.25" width="30.22" height="30.22"/><rect class="67e074f5-cc6f-4603-bb3c-c9ea7b23da69" x="256.34" y="390.25" width="30.22" height="30.22"/><rect class="67e074f5-cc6f-4603-bb3c-c9ea7b23da69" x="290.59" y="390.25" width="30.22" height="30.22"/><rect class="67e074f5-cc6f-4603-bb3c-c9ea7b23da69" x="324.84" y="390.25" width="30.22" height="30.22"/><rect class="67e074f5-cc6f-4603-bb3c-c9ea7b23da69" x="359.09" y="390.25" width="30.22" height="30.22"/><rect class="67e074f5-cc6f-4603-bb3c-c9ea7b23da69" x="393.35" y="390.25" width="30.22" height="30.22"/><rect class="67e074f5-cc6f-4603-bb3c-c9ea7b23da69" x="427.6" y="390.25" width="30.22" height="30.22"/><rect class="67e074f5-cc6f-4603-bb3c-c9ea7b23da69" x="461.85" y="390.25" width="30.22" height="30.22"/><rect class="1e5d4a64-84b3-4c3a-9b3c-a6bcd0c9874e" x="359.74" y="120" width="19" height="30.22"/><rect class="1e5d4a64-84b3-4c3a-9b3c-a6bcd0c9874e" x="324.84" y="275.45" width="19" height="30.22"/><rect class="1e5d4a64-84b3-4c3a-9b3c-a6bcd0c9874e" x="359.74" y="158.41" width="16.75" height="30.22"/><rect class="1e5d4a64-84b3-4c3a-9b3c-a6bcd0c9874e" x="359.74" y="197.94" width="11.12" height="30.22"/><rect class="1e5d4a64-84b3-4c3a-9b3c-a6bcd0c9874e" x="324.84" y="313.76" width="14.5" height="30.22"/><rect class="1e5d4a64-84b3-4c3a-9b3c-a6bcd0c9874e" x="359.74" y="236.24" width="3.24" height="30.22"/><rect class="1e5d4a64-84b3-4c3a-9b3c-a6bcd0c9874e" x="291.43" y="352.25" width="27.36" height="30.22"/><rect class="1e5d4a64-84b3-4c3a-9b3c-a6bcd0c9874e" x="153.59" y="390.95" width="30.22" height="30.22"/><rect class="1e5d4a64-84b3-4c3a-9b3c-a6bcd0c9874e" x="187.84" y="390.95" width="30.22" height="30.22"/><rect class="1e5d4a64-84b3-4c3a-9b3c-a6bcd0c9874e" x="222.09" y="390.95" width="30.22" height="30.22"/><rect class="1e5d4a64-84b3-4c3a-9b3c-a6bcd0c9874e" x="256.34" y="390.95" width="30.22" height="30.22"/><rect class="1e5d4a64-84b3-4c3a-9b3c-a6bcd0c9874e" x="290.59" y="391.46" width="27.36" height="30.22"/><text class="628c519a-8f97-40f6-8304-c8e673ab562f" transform="translate(60.25 450.56)">ALEMANI<tspan class="11181ded-15f9-449f-8f64-c48acf88aa96" x="72.88" y="0">A</tspan></text><text class="628c519a-8f97-40f6-8304-c8e673ab562f" transform="translate(69.19 491.54)">HUNGRÍ<tspan class="11181ded-15f9-449f-8f64-c48acf88aa96" x="63.11" y="0">A</tspan></text><text class="628c519a-8f97-40f6-8304-c8e673ab562f" transform="translate(56.8 528.35)">FINLANDI<tspan class="11181ded-15f9-449f-8f64-c48acf88aa96" x="74.66" y="0">A</tspan></text><text class="628c519a-8f97-40f6-8304-c8e673ab562f" transform="translate(55.91 568.5)">COLOMBI<tspan class="11181ded-15f9-449f-8f64-c48acf88aa96" x="75.55" y="0">A</tspan></text><rect class="1e5d4a64-84b3-4c3a-9b3c-a6bcd0c9874e" x="152.46" y="429.73" width="30.22" height="30.22"/><rect class="1e5d4a64-84b3-4c3a-9b3c-a6bcd0c9874e" x="186.71" y="429.73" width="30.22" height="30.22"/><rect class="1e5d4a64-84b3-4c3a-9b3c-a6bcd0c9874e" x="220.96" y="429.73" width="30.22" height="30.22"/><rect class="1e5d4a64-84b3-4c3a-9b3c-a6bcd0c9874e" x="255.21" y="429.73" width="30.22" height="30.22"/><rect class="67e074f5-cc6f-4603-bb3c-c9ea7b23da69" x="289.47" y="429.73" width="30.22" height="30.22"/><rect class="67e074f5-cc6f-4603-bb3c-c9ea7b23da69" x="323.72" y="429.73" width="30.22" height="30.22"/><rect class="67e074f5-cc6f-4603-bb3c-c9ea7b23da69" x="357.97" y="429.73" width="30.22" height="30.22"/><rect class="67e074f5-cc6f-4603-bb3c-c9ea7b23da69" x="392.22" y="429.73" width="30.22" height="30.22"/><rect class="67e074f5-cc6f-4603-bb3c-c9ea7b23da69" x="426.47" y="429.73" width="30.22" height="30.22"/><rect class="67e074f5-cc6f-4603-bb3c-c9ea7b23da69" x="460.72" y="429.73" width="30.22" height="30.22"/><rect class="1e5d4a64-84b3-4c3a-9b3c-a6bcd0c9874e" x="152.46" y="469.01" width="30.22" height="30.22"/><rect class="1e5d4a64-84b3-4c3a-9b3c-a6bcd0c9874e" x="186.71" y="469.01" width="30.22" height="30.22"/><rect class="1e5d4a64-84b3-4c3a-9b3c-a6bcd0c9874e" x="220.96" y="469.01" width="30.22" height="30.22"/><rect class="1e5d4a64-84b3-4c3a-9b3c-a6bcd0c9874e" x="255.21" y="469.01" width="30.22" height="30.22"/><rect class="67e074f5-cc6f-4603-bb3c-c9ea7b23da69" x="289.47" y="469.01" width="30.22" height="30.22"/><rect class="67e074f5-cc6f-4603-bb3c-c9ea7b23da69" x="323.72" y="469.01" width="30.22" height="30.22"/><rect class="67e074f5-cc6f-4603-bb3c-c9ea7b23da69" x="357.97" y="469.01" width="30.22" height="30.22"/><rect class="67e074f5-cc6f-4603-bb3c-c9ea7b23da69" x="392.22" y="469.01" width="30.22" height="30.22"/><rect class="67e074f5-cc6f-4603-bb3c-c9ea7b23da69" x="426.47" y="469.01" width="30.22" height="30.22"/><rect class="67e074f5-cc6f-4603-bb3c-c9ea7b23da69" x="460.72" y="469.01" width="30.22" height="30.22"/><rect class="1e5d4a64-84b3-4c3a-9b3c-a6bcd0c9874e" x="152.46" y="507.45" width="30.22" height="30.22"/><rect class="1e5d4a64-84b3-4c3a-9b3c-a6bcd0c9874e" x="186.71" y="507.45" width="30.22" height="30.22"/><rect class="1e5d4a64-84b3-4c3a-9b3c-a6bcd0c9874e" x="220.96" y="507.45" width="30.22" height="30.22"/><rect class="1e5d4a64-84b3-4c3a-9b3c-a6bcd0c9874e" x="255.21" y="507.45" width="30.22" height="30.22"/><rect class="67e074f5-cc6f-4603-bb3c-c9ea7b23da69" x="289.47" y="507.45" width="30.22" height="30.22"/><rect class="67e074f5-cc6f-4603-bb3c-c9ea7b23da69" x="323.72" y="507.45" width="30.22" height="30.22"/><rect class="67e074f5-cc6f-4603-bb3c-c9ea7b23da69" x="357.97" y="507.45" width="30.22" height="30.22"/><rect class="67e074f5-cc6f-4603-bb3c-c9ea7b23da69" x="392.22" y="507.45" width="30.22" height="30.22"/><rect class="67e074f5-cc6f-4603-bb3c-c9ea7b23da69" x="426.47" y="507.45" width="30.22" height="30.22"/><rect class="67e074f5-cc6f-4603-bb3c-c9ea7b23da69" x="460.72" y="507.45" width="30.22" height="30.22"/><rect class="67e074f5-cc6f-4603-bb3c-c9ea7b23da69" x="152.46" y="545.96" width="30.22" height="30.22"/><rect class="67e074f5-cc6f-4603-bb3c-c9ea7b23da69" x="186.71" y="545.96" width="30.22" height="30.22"/><rect class="67e074f5-cc6f-4603-bb3c-c9ea7b23da69" x="220.96" y="545.96" width="30.22" height="30.22"/><rect class="67e074f5-cc6f-4603-bb3c-c9ea7b23da69" x="255.21" y="545.96" width="30.22" height="30.22"/><rect class="67e074f5-cc6f-4603-bb3c-c9ea7b23da69" x="289.47" y="545.96" width="30.22" height="30.22"/><rect class="67e074f5-cc6f-4603-bb3c-c9ea7b23da69" x="323.72" y="545.96" width="30.22" height="30.22"/><rect class="67e074f5-cc6f-4603-bb3c-c9ea7b23da69" x="357.97" y="545.96" width="30.22" height="30.22"/><rect class="67e074f5-cc6f-4603-bb3c-c9ea7b23da69" x="392.22" y="545.96" width="30.22" height="30.22"/><rect class="67e074f5-cc6f-4603-bb3c-c9ea7b23da69" x="426.47" y="545.96" width="30.22" height="30.22"/><rect class="67e074f5-cc6f-4603-bb3c-c9ea7b23da69" x="460.72" y="545.96" width="30.22" height="30.22"/><rect class="1e5d4a64-84b3-4c3a-9b3c-a6bcd0c9874e" x="288.72" y="430.09" width="19" height="30.22"/><rect class="1e5d4a64-84b3-4c3a-9b3c-a6bcd0c9874e" x="289.72" y="468.75" width="14.5" height="30.22"/><rect class="1e5d4a64-84b3-4c3a-9b3c-a6bcd0c9874e" x="289.47" y="507.96" width="6.53" height="30.22"/><rect class="1e5d4a64-84b3-4c3a-9b3c-a6bcd0c9874e" x="289.47" y="545.96" width="6.53" height="30.22"/><rect class="1e5d4a64-84b3-4c3a-9b3c-a6bcd0c9874e" x="152.46" y="546.65" width="30.22" height="30.22"/><rect class="1e5d4a64-84b3-4c3a-9b3c-a6bcd0c9874e" x="186.71" y="546.65" width="30.22" height="30.22"/><rect class="1e5d4a64-84b3-4c3a-9b3c-a6bcd0c9874e" x="220.96" y="546.65" width="30.22" height="30.22"/><rect class="1e5d4a64-84b3-4c3a-9b3c-a6bcd0c9874e" x="255.21" y="546.65" width="30.22" height="30.22"/><text class="628c519a-8f97-40f6-8304-c8e673ab562f" transform="translate(73.09 608.09)">CANADÁ</text><text class="628c519a-8f97-40f6-8304-c8e673ab562f" transform="translate(44.36 647.41)">DINAMARC<tspan class="11181ded-15f9-449f-8f64-c48acf88aa96" x="87.1" y="0">A</tspan></text><text class="628c519a-8f97-40f6-8304-c8e673ab562f" transform="translate(70.19 683.38)">IRLAND<tspan class="11181ded-15f9-449f-8f64-c48acf88aa96" x="60.44" y="0">A</tspan></text><text class="628c519a-8f97-40f6-8304-c8e673ab562f" transform="translate(52.1 723.53)">PORTUGA<tspan class="16378744-8bb8-414a-9f98-feefffa0ab9c" x="80" y="0">L</tspan></text><rect class="1e5d4a64-84b3-4c3a-9b3c-a6bcd0c9874e" x="151.91" y="585.71" width="30.22" height="30.22"/><rect class="1e5d4a64-84b3-4c3a-9b3c-a6bcd0c9874e" x="186.16" y="585.71" width="30.22" height="30.22"/><rect class="1e5d4a64-84b3-4c3a-9b3c-a6bcd0c9874e" x="220.42" y="585.71" width="30.22" height="30.22"/><rect class="1e5d4a64-84b3-4c3a-9b3c-a6bcd0c9874e" x="254.67" y="585.71" width="30.22" height="30.22"/><rect class="67e074f5-cc6f-4603-bb3c-c9ea7b23da69" x="288.92" y="585.71" width="30.22" height="30.22"/><rect class="67e074f5-cc6f-4603-bb3c-c9ea7b23da69" x="323.17" y="585.71" width="30.22" height="30.22"/><rect class="67e074f5-cc6f-4603-bb3c-c9ea7b23da69" x="357.42" y="585.71" width="30.22" height="30.22"/><rect class="67e074f5-cc6f-4603-bb3c-c9ea7b23da69" x="391.67" y="585.71" width="30.22" height="30.22"/><rect class="67e074f5-cc6f-4603-bb3c-c9ea7b23da69" x="425.92" y="585.71" width="30.22" height="30.22"/><rect class="67e074f5-cc6f-4603-bb3c-c9ea7b23da69" x="460.18" y="585.71" width="30.22" height="30.22"/><rect class="1e5d4a64-84b3-4c3a-9b3c-a6bcd0c9874e" x="151.91" y="624.63" width="30.22" height="30.22"/><rect class="1e5d4a64-84b3-4c3a-9b3c-a6bcd0c9874e" x="186.16" y="624.63" width="30.22" height="30.22"/><rect class="1e5d4a64-84b3-4c3a-9b3c-a6bcd0c9874e" x="220.42" y="624.63" width="30.22" height="30.22"/><rect class="67e074f5-cc6f-4603-bb3c-c9ea7b23da69" x="254.67" y="624.63" width="30.22" height="30.22"/><rect class="67e074f5-cc6f-4603-bb3c-c9ea7b23da69" x="288.92" y="624.63" width="30.22" height="30.22"/><rect class="67e074f5-cc6f-4603-bb3c-c9ea7b23da69" x="323.17" y="624.63" width="30.22" height="30.22"/><rect class="67e074f5-cc6f-4603-bb3c-c9ea7b23da69" x="357.42" y="624.63" width="30.22" height="30.22"/><rect class="67e074f5-cc6f-4603-bb3c-c9ea7b23da69" x="391.67" y="624.63" width="30.22" height="30.22"/><rect class="67e074f5-cc6f-4603-bb3c-c9ea7b23da69" x="425.92" y="624.63" width="30.22" height="30.22"/><rect class="67e074f5-cc6f-4603-bb3c-c9ea7b23da69" x="460.18" y="624.63" width="30.22" height="30.22"/><rect class="1e5d4a64-84b3-4c3a-9b3c-a6bcd0c9874e" x="152.75" y="662.36" width="30.22" height="30.22"/><rect class="1e5d4a64-84b3-4c3a-9b3c-a6bcd0c9874e" x="187" y="662.36" width="30.22" height="30.22"/><rect class="1e5d4a64-84b3-4c3a-9b3c-a6bcd0c9874e" x="221.25" y="662.36" width="30.22" height="30.22"/><rect class="67e074f5-cc6f-4603-bb3c-c9ea7b23da69" x="255.5" y="662.36" width="30.22" height="30.22"/><rect class="67e074f5-cc6f-4603-bb3c-c9ea7b23da69" x="289.75" y="662.36" width="30.22" height="30.22"/><rect class="67e074f5-cc6f-4603-bb3c-c9ea7b23da69" x="324.01" y="662.36" width="30.22" height="30.22"/><rect class="67e074f5-cc6f-4603-bb3c-c9ea7b23da69" x="358.26" y="662.36" width="30.22" height="30.22"/><rect class="67e074f5-cc6f-4603-bb3c-c9ea7b23da69" x="392.51" y="662.36" width="30.22" height="30.22"/><rect class="67e074f5-cc6f-4603-bb3c-c9ea7b23da69" x="426.76" y="662.36" width="30.22" height="30.22"/><rect class="67e074f5-cc6f-4603-bb3c-c9ea7b23da69" x="461.01" y="662.36" width="30.22" height="30.22"/><rect class="67e074f5-cc6f-4603-bb3c-c9ea7b23da69" x="151.91" y="700.86" width="30.22" height="30.22"/><rect class="67e074f5-cc6f-4603-bb3c-c9ea7b23da69" x="186.16" y="700.86" width="30.22" height="30.22"/><rect class="67e074f5-cc6f-4603-bb3c-c9ea7b23da69" x="220.42" y="700.86" width="30.22" height="30.22"/><rect class="67e074f5-cc6f-4603-bb3c-c9ea7b23da69" x="254.67" y="700.86" width="30.22" height="30.22"/><rect class="67e074f5-cc6f-4603-bb3c-c9ea7b23da69" x="288.92" y="700.86" width="30.22" height="30.22"/><rect class="67e074f5-cc6f-4603-bb3c-c9ea7b23da69" x="323.17" y="700.86" width="30.22" height="30.22"/><rect class="67e074f5-cc6f-4603-bb3c-c9ea7b23da69" x="357.42" y="700.86" width="30.22" height="30.22"/><rect class="67e074f5-cc6f-4603-bb3c-c9ea7b23da69" x="391.67" y="700.86" width="30.22" height="30.22"/><rect class="67e074f5-cc6f-4603-bb3c-c9ea7b23da69" x="425.92" y="700.86" width="30.22" height="30.22"/><rect class="67e074f5-cc6f-4603-bb3c-c9ea7b23da69" x="460.18" y="700.86" width="30.22" height="30.22"/><rect class="1e5d4a64-84b3-4c3a-9b3c-a6bcd0c9874e" x="255.17" y="624.37" width="27.83" height="30.22"/><rect class="1e5d4a64-84b3-4c3a-9b3c-a6bcd0c9874e" x="255.75" y="662.87" width="21.25" height="30.22"/><rect class="1e5d4a64-84b3-4c3a-9b3c-a6bcd0c9874e" x="151.91" y="701.56" width="30.22" height="30.22"/><rect class="1e5d4a64-84b3-4c3a-9b3c-a6bcd0c9874e" x="186.16" y="701.56" width="30.22" height="30.22"/><rect class="67e074f5-cc6f-4603-bb3c-c9ea7b23da69" x="220.42" y="701.56" width="30.22" height="30.22"/><rect class="67e074f5-cc6f-4603-bb3c-c9ea7b23da69" x="254.67" y="701.56" width="30.22" height="30.22"/><rect class="1e5d4a64-84b3-4c3a-9b3c-a6bcd0c9874e" x="220.92" y="701.07" width="27.36" height="30.22"/><text class="628c519a-8f97-40f6-8304-c8e673ab562f" transform="translate(79.3 761.17)">MÉXICO</text><text class="628c519a-8f97-40f6-8304-c8e673ab562f" transform="translate(68.96 802.16)"><tspan class="c109af45-ed61-4814-b988-e63ae036aa1f">P</tspan><tspan x="8.61" y="0">. BAJOS</tspan></text><text class="628c519a-8f97-40f6-8304-c8e673ab562f" transform="translate(75.85 838.96)">ES<tspan class="2a5b6e19-ced3-4488-9f59-5ee17b81e682" x="21.34" y="0">P</tspan><tspan x="30.83" y="0">AÑ</tspan><tspan class="11181ded-15f9-449f-8f64-c48acf88aa96" x="53.94" y="0">A</tspan></text><text class="628c519a-8f97-40f6-8304-c8e673ab562f" transform="translate(68.45 879.11)">POLONI<tspan class="11181ded-15f9-449f-8f64-c48acf88aa96" x="61.34" y="0">A</tspan></text><rect class="1e5d4a64-84b3-4c3a-9b3c-a6bcd0c9874e" x="150.79" y="740.34" width="30.22" height="30.22"/><rect class="1e5d4a64-84b3-4c3a-9b3c-a6bcd0c9874e" x="185.04" y="740.34" width="30.22" height="30.22"/><rect class="67e074f5-cc6f-4603-bb3c-c9ea7b23da69" x="219.29" y="740.34" width="30.22" height="30.22"/><rect class="67e074f5-cc6f-4603-bb3c-c9ea7b23da69" x="253.54" y="740.34" width="30.22" height="30.22"/><rect class="67e074f5-cc6f-4603-bb3c-c9ea7b23da69" x="287.79" y="740.34" width="30.22" height="30.22"/><rect class="67e074f5-cc6f-4603-bb3c-c9ea7b23da69" x="322.04" y="740.34" width="30.22" height="30.22"/><rect class="67e074f5-cc6f-4603-bb3c-c9ea7b23da69" x="356.3" y="740.34" width="30.22" height="30.22"/><rect class="67e074f5-cc6f-4603-bb3c-c9ea7b23da69" x="390.55" y="740.34" width="30.22" height="30.22"/><rect class="67e074f5-cc6f-4603-bb3c-c9ea7b23da69" x="424.8" y="740.34" width="30.22" height="30.22"/><rect class="67e074f5-cc6f-4603-bb3c-c9ea7b23da69" x="459.05" y="740.34" width="30.22" height="30.22"/><rect class="1e5d4a64-84b3-4c3a-9b3c-a6bcd0c9874e" x="150.79" y="779.62" width="30.22" height="30.22"/><rect class="1e5d4a64-84b3-4c3a-9b3c-a6bcd0c9874e" x="185.04" y="779.62" width="30.22" height="30.22"/><rect class="67e074f5-cc6f-4603-bb3c-c9ea7b23da69" x="219.29" y="779.62" width="30.22" height="30.22"/><rect class="67e074f5-cc6f-4603-bb3c-c9ea7b23da69" x="253.54" y="779.62" width="30.22" height="30.22"/><rect class="67e074f5-cc6f-4603-bb3c-c9ea7b23da69" x="287.79" y="779.62" width="30.22" height="30.22"/><rect class="67e074f5-cc6f-4603-bb3c-c9ea7b23da69" x="322.04" y="779.62" width="30.22" height="30.22"/><rect class="67e074f5-cc6f-4603-bb3c-c9ea7b23da69" x="356.3" y="779.62" width="30.22" height="30.22"/><rect class="67e074f5-cc6f-4603-bb3c-c9ea7b23da69" x="390.55" y="779.62" width="30.22" height="30.22"/><rect class="67e074f5-cc6f-4603-bb3c-c9ea7b23da69" x="424.8" y="779.62" width="30.22" height="30.22"/><rect class="67e074f5-cc6f-4603-bb3c-c9ea7b23da69" x="459.05" y="779.62" width="30.22" height="30.22"/><rect class="1e5d4a64-84b3-4c3a-9b3c-a6bcd0c9874e" x="150.79" y="818.06" width="30.22" height="30.22"/><rect class="67e074f5-cc6f-4603-bb3c-c9ea7b23da69" x="185.04" y="818.06" width="30.22" height="30.22"/><rect class="67e074f5-cc6f-4603-bb3c-c9ea7b23da69" x="219.29" y="818.06" width="30.22" height="30.22"/><rect class="67e074f5-cc6f-4603-bb3c-c9ea7b23da69" x="253.54" y="818.06" width="30.22" height="30.22"/><rect class="67e074f5-cc6f-4603-bb3c-c9ea7b23da69" x="287.79" y="818.06" width="30.22" height="30.22"/><rect class="67e074f5-cc6f-4603-bb3c-c9ea7b23da69" x="322.04" y="818.06" width="30.22" height="30.22"/><rect class="67e074f5-cc6f-4603-bb3c-c9ea7b23da69" x="356.3" y="818.06" width="30.22" height="30.22"/><rect class="67e074f5-cc6f-4603-bb3c-c9ea7b23da69" x="390.55" y="818.06" width="30.22" height="30.22"/><rect class="67e074f5-cc6f-4603-bb3c-c9ea7b23da69" x="424.8" y="818.06" width="30.22" height="30.22"/><rect class="67e074f5-cc6f-4603-bb3c-c9ea7b23da69" x="459.05" y="818.06" width="30.22" height="30.22"/><rect class="67e074f5-cc6f-4603-bb3c-c9ea7b23da69" x="150.79" y="856.57" width="30.22" height="30.22"/><rect class="67e074f5-cc6f-4603-bb3c-c9ea7b23da69" x="185.04" y="856.57" width="30.22" height="30.22"/><rect class="67e074f5-cc6f-4603-bb3c-c9ea7b23da69" x="219.29" y="856.57" width="30.22" height="30.22"/><rect class="67e074f5-cc6f-4603-bb3c-c9ea7b23da69" x="253.54" y="856.57" width="30.22" height="30.22"/><rect class="67e074f5-cc6f-4603-bb3c-c9ea7b23da69" x="287.79" y="856.57" width="30.22" height="30.22"/><rect class="67e074f5-cc6f-4603-bb3c-c9ea7b23da69" x="322.04" y="856.57" width="30.22" height="30.22"/><rect class="67e074f5-cc6f-4603-bb3c-c9ea7b23da69" x="356.3" y="856.57" width="30.22" height="30.22"/><rect class="67e074f5-cc6f-4603-bb3c-c9ea7b23da69" x="390.55" y="856.57" width="30.22" height="30.22"/><rect class="67e074f5-cc6f-4603-bb3c-c9ea7b23da69" x="424.8" y="856.57" width="30.22" height="30.22"/><rect class="67e074f5-cc6f-4603-bb3c-c9ea7b23da69" x="459.05" y="856.57" width="30.22" height="30.22"/><rect class="1e5d4a64-84b3-4c3a-9b3c-a6bcd0c9874e" x="219.04" y="740.7" width="21.96" height="30.22"/><rect class="1e5d4a64-84b3-4c3a-9b3c-a6bcd0c9874e" x="219.04" y="779.7" width="20.96" height="30.22"/><rect class="67e074f5-cc6f-4603-bb3c-c9ea7b23da69" x="287.79" y="818.57" width="27.36" height="30.22"/><rect class="1e5d4a64-84b3-4c3a-9b3c-a6bcd0c9874e" x="150.79" y="857.27" width="30.22" height="30.22"/><rect class="67e074f5-cc6f-4603-bb3c-c9ea7b23da69" x="185.04" y="857.27" width="30.22" height="30.22"/><rect class="67e074f5-cc6f-4603-bb3c-c9ea7b23da69" x="219.29" y="857.27" width="30.22" height="30.22"/><rect class="67e074f5-cc6f-4603-bb3c-c9ea7b23da69" x="253.54" y="857.27" width="30.22" height="30.22"/><rect class="1e5d4a64-84b3-4c3a-9b3c-a6bcd0c9874e" x="185.17" y="818.37" width="27.83" height="30.22"/><rect class="1e5d4a64-84b3-4c3a-9b3c-a6bcd0c9874e" x="185.17" y="857.37" width="24.83" height="30.22"/><text class="df15f07b-7e25-4d5f-b360-a0276881c4b1" transform="translate(25.01 920)">Fuente: OCDE, <tspan class="46c5bd5c-1b96-47d6-8f58-cb6d248fb8dd" x="106.71" y="0">W</tspan><tspan class="89c25a0f-10fb-484d-9547-c259ebba8aa1" x="120.31" y="0">age Indicator</tspan></text><text class="df15f07b-7e25-4d5f-b360-a0276881c4b1" transform="translate(282.01 920)">Laura<tspan class="d0635c69-b1cc-44e5-a839-2e871274bef5" x="38.36" y="0"> </tspan><tspan x="41.7" y="0">Aragó | L</tspan><tspan class="e18dab3e-e6d1-4c20-b51a-4f55540bf68c" x="102.3" y="0">A</tspan><tspan x="111.48" y="0"> </tspan><tspan class="2a5b6e19-ced3-4488-9f59-5ee17b81e682" x="115.65" y="0">V</tspan><tspan x="124.54" y="0">ANGUARDI</tspan><tspan class="d0635c69-b1cc-44e5-a839-2e871274bef5" x="203.72" y="0">A</tspan></text><line class="b6f1c19b-ce4e-4740-a016-4e388083e941" x1="18.5" y1="72.5" x2="499.5" y2="72.5"/></svg>