<svg xmlns="http://www.w3.org/2000/svg" viewBox="0 0 855 798"><defs><style>.eebb50e7-2c7d-48ac-9b45-ac62c3c06b12{font-size:24px;}.a41500be-b9d3-4ec4-873f-89c875f280d2,.b1901541-7d68-4b54-a565-1f88ba810b7f,.b6191d40-3bbc-4717-a756-e72c9972ddd9,.eebb50e7-2c7d-48ac-9b45-ac62c3c06b12{fill:#757575;}.\31 4d8b45a-b9e5-4687-905c-597f5d6c2ca3,.b6191d40-3bbc-4717-a756-e72c9972ddd9,.eebb50e7-2c7d-48ac-9b45-ac62c3c06b12{font-family:ArialMT, Arial;}.\31 b17c5be-5af8-4fae-a5c2-cee008809266,.\35 2eb5bc6-70e7-4627-bcc6-c88ed2fef22e,.\36 b7a8f36-ac47-4dcc-852e-517efcc2a7aa,.a1a79762-c669-46ec-9370-584dc5c2ad2c{fill:none;stroke:#757575;}.\31 b17c5be-5af8-4fae-a5c2-cee008809266,.\35 2eb5bc6-70e7-4627-bcc6-c88ed2fef22e,.\36 b7a8f36-ac47-4dcc-852e-517efcc2a7aa,.a1a79762-c669-46ec-9370-584dc5c2ad2c,.df478ecd-b203-4a7c-9db3-a621bfa1c54d,.f0461c2c-473f-49fb-a793-e1dfeaffa8b3{stroke-miterlimit:10;}.\36 b7a8f36-ac47-4dcc-852e-517efcc2a7aa{stroke-dasharray:5 5;}.a1a79762-c669-46ec-9370-584dc5c2ad2c{stroke-dasharray:4.91 4.91;}.\35 2eb5bc6-70e7-4627-bcc6-c88ed2fef22e{stroke-dasharray:4.99 4.99;}.a41500be-b9d3-4ec4-873f-89c875f280d2{fill-opacity:0.3;}.df478ecd-b203-4a7c-9db3-a621bfa1c54d{fill:#d80909;}.df478ecd-b203-4a7c-9db3-a621bfa1c54d,.f0461c2c-473f-49fb-a793-e1dfeaffa8b3{stroke:#fff;stroke-width:0.75px;}.f0461c2c-473f-49fb-a793-e1dfeaffa8b3{fill:#117c08;}.\31 4d8b45a-b9e5-4687-905c-597f5d6c2ca3{font-size:23px;}.\35 c954f37-f60a-49f0-bb16-77f2291cc589{font-size:37px;fill:#323232;}.\35 c954f37-f60a-49f0-bb16-77f2291cc589,.b1901541-7d68-4b54-a565-1f88ba810b7f{font-family:Arial-BoldMT, Arial;font-weight:700;}.b1901541-7d68-4b54-a565-1f88ba810b7f{font-size:32px;}.\38 3339255-31ee-4176-9784-20e39d3bdc2f{letter-spacing:-0.07em;}.\32 78bebeb-6a1e-4c46-8ca9-dbeb03fb10d6{letter-spacing:-0.04em;}.\39 b5405aa-4bcb-4a22-ba3c-375b4ac36f94{letter-spacing:-0.02em;}.b6191d40-3bbc-4717-a756-e72c9972ddd9{font-size:20px;}.fb862f45-4670-4cdc-8bfa-0a8b37b229ef{letter-spacing:-0.06em;}</style></defs><title>2018.06_Mundial_ComparacionesEquipo</title><g id="90d5f0b9-e2c1-4d6b-8d8e-50bc7126566e" data-name="Capa 1"><text class="eebb50e7-2c7d-48ac-9b45-ac62c3c06b12" transform="translate(536.07 601.56)">100 millones</text><text class="eebb50e7-2c7d-48ac-9b45-ac62c3c06b12" transform="translate(537.07 640.56)">50 millones</text><text class="eebb50e7-2c7d-48ac-9b45-ac62c3c06b12" transform="translate(534.07 691.56)">10 millones</text><line class="1b17c5be-5af8-4fae-a5c2-cee008809266" x1="758" y1="696.5" x2="755.5" y2="696.5"/><line class="6b7a8f36-ac47-4dcc-852e-517efcc2a7aa" x1="750.5" y1="696.5" x2="543" y2="696.5"/><line class="1b17c5be-5af8-4fae-a5c2-cee008809266" x1="540.5" y1="696.5" x2="538" y2="696.5"/><line class="1b17c5be-5af8-4fae-a5c2-cee008809266" x1="747" y1="645.5" x2="744.5" y2="645.5"/><line class="a1a79762-c669-46ec-9370-584dc5c2ad2c" x1="739.59" y1="645.5" x2="545.46" y2="645.5"/><line class="1b17c5be-5af8-4fae-a5c2-cee008809266" x1="543" y1="645.5" x2="540.5" y2="645.5"/><line class="1b17c5be-5af8-4fae-a5c2-cee008809266" x1="761" y1="606.5" x2="758.5" y2="606.5"/><line class="52eb5bc6-70e7-4627-bcc6-c88ed2fef22e" x1="753.51" y1="606.5" x2="546.49" y2="606.5"/><line class="1b17c5be-5af8-4fae-a5c2-cee008809266" x1="544" y1="606.5" x2="541.5" y2="606.5"/><path class="a41500be-b9d3-4ec4-873f-89c875f280d2" d="M812,666.78A61.78,61.78,0,1,1,750.18,605,61.78,61.78,0,0,1,812,666.78"/><circle class="a41500be-b9d3-4ec4-873f-89c875f280d2" cx="748.41" cy="712.11" r="17.52"/><circle class="a41500be-b9d3-4ec4-873f-89c875f280d2" cx="748.39" cy="686.42" r="41.75"/><circle class="df478ecd-b203-4a7c-9db3-a621bfa1c54d" cx="211" cy="366.78" r="55.32"/><circle class="df478ecd-b203-4a7c-9db3-a621bfa1c54d" cx="319.89" cy="366.78" r="53.57"/><circle class="df478ecd-b203-4a7c-9db3-a621bfa1c54d" cx="267.19" cy="460.05" r="53.57"/><circle class="df478ecd-b203-4a7c-9db3-a621bfa1c54d" cx="267.16" cy="275.61" r="51.75"/><circle class="df478ecd-b203-4a7c-9db3-a621bfa1c54d" cx="163.78" cy="270.68" r="51.75"/><circle class="df478ecd-b203-4a7c-9db3-a621bfa1c54d" cx="161.89" cy="461.92" r="51.75"/><circle class="df478ecd-b203-4a7c-9db3-a621bfa1c54d" cx="366.81" cy="276.8" r="47.91"/><circle class="df478ecd-b203-4a7c-9db3-a621bfa1c54d" cx="368.58" cy="455.81" r="47.91"/><circle class="df478ecd-b203-4a7c-9db3-a621bfa1c54d" cx="108.6" cy="353.67" r="47.91"/><circle class="df478ecd-b203-4a7c-9db3-a621bfa1c54d" cx="64.91" cy="438.96" r="47.91"/><circle class="df478ecd-b203-4a7c-9db3-a621bfa1c54d" cx="416.34" cy="353.91" r="43.74"/><circle class="df478ecd-b203-4a7c-9db3-a621bfa1c54d" cx="454.25" cy="430.25" r="41.49"/><circle class="df478ecd-b203-4a7c-9db3-a621bfa1c54d" cx="321.29" cy="202.62" r="39.12"/><circle class="df478ecd-b203-4a7c-9db3-a621bfa1c54d" cx="219.03" cy="198.54" r="39.12"/><circle class="df478ecd-b203-4a7c-9db3-a621bfa1c54d" cx="325.42" cy="525.29" r="33.88"/><circle class="df478ecd-b203-4a7c-9db3-a621bfa1c54d" cx="214.27" cy="529.66" r="33.88"/><circle class="df478ecd-b203-4a7c-9db3-a621bfa1c54d" cx="272.07" cy="152.79" r="30.93"/><circle class="df478ecd-b203-4a7c-9db3-a621bfa1c54d" cx="445.22" cy="285.06" r="30.93"/><circle class="df478ecd-b203-4a7c-9db3-a621bfa1c54d" cx="271.15" cy="560.71" r="30.93"/><circle class="df478ecd-b203-4a7c-9db3-a621bfa1c54d" cx="85.15" cy="281.83" r="27.66"/><circle class="df478ecd-b203-4a7c-9db3-a621bfa1c54d" cx="381.6" cy="524.81" r="22.3"/><circle class="df478ecd-b203-4a7c-9db3-a621bfa1c54d" cx="379.43" cy="210.52" r="19.56"/><circle class="df478ecd-b203-4a7c-9db3-a621bfa1c54d" cx="175.9" cy="518.14" r="6.19"/><circle class="f0461c2c-473f-49fb-a793-e1dfeaffa8b3" cx="624.83" cy="359.82" r="61.85"/><path class="f0461c2c-473f-49fb-a793-e1dfeaffa8b3" d="M774.16,359.82a43.74,43.74,0,1,1-43.74-43.74,43.74,43.74,0,0,1,43.74,43.74"/><circle class="f0461c2c-473f-49fb-a793-e1dfeaffa8b3" cx="693.4" cy="433.95" r="39.12"/><circle class="f0461c2c-473f-49fb-a793-e1dfeaffa8b3" cx="692.5" cy="292.1" r="33.88"/><circle class="f0461c2c-473f-49fb-a793-e1dfeaffa8b3" cx="632.6" cy="267.37" r="30.93"/><path class="f0461c2c-473f-49fb-a793-e1dfeaffa8b3" d="M625.88,483.52A30.93,30.93,0,1,1,656.8,452.6a30.93,30.93,0,0,1-30.93,30.93"/><circle class="f0461c2c-473f-49fb-a793-e1dfeaffa8b3" cx="757.27" cy="290.16" r="30.93"/><circle class="f0461c2c-473f-49fb-a793-e1dfeaffa8b3" cx="759.57" cy="425" r="27.66"/><circle class="f0461c2c-473f-49fb-a793-e1dfeaffa8b3" cx="576.55" cy="284.44" r="27.66"/><circle class="f0461c2c-473f-49fb-a793-e1dfeaffa8b3" cx="571.22" cy="431.51" r="27.66"/><circle class="f0461c2c-473f-49fb-a793-e1dfeaffa8b3" cx="678.71" cy="233.59" r="26.24"/><circle class="f0461c2c-473f-49fb-a793-e1dfeaffa8b3" cx="665.7" cy="491.49" r="24.74"/><circle class="f0461c2c-473f-49fb-a793-e1dfeaffa8b3" cx="792.31" cy="332.4" r="23.96"/><circle class="f0461c2c-473f-49fb-a793-e1dfeaffa8b3" cx="792.01" cy="385.9" r="23.14"/><circle class="f0461c2c-473f-49fb-a793-e1dfeaffa8b3" cx="726.61" cy="245.62" r="23.14"/><circle class="f0461c2c-473f-49fb-a793-e1dfeaffa8b3" cx="548.01" cy="325.45" r="22.3"/><circle class="f0461c2c-473f-49fb-a793-e1dfeaffa8b3" cx="740.91" cy="468.38" r="19.56"/><circle class="f0461c2c-473f-49fb-a793-e1dfeaffa8b3" cx="555.9" cy="392.36" r="14.37"/><circle class="f0461c2c-473f-49fb-a793-e1dfeaffa8b3" cx="554.34" cy="355.85" r="8.75"/><circle class="f0461c2c-473f-49fb-a793-e1dfeaffa8b3" cx="546.24" cy="371.36" r="8.75"/><circle class="f0461c2c-473f-49fb-a793-e1dfeaffa8b3" cx="810.25" cy="359.74" r="8.75"/><circle class="f0461c2c-473f-49fb-a793-e1dfeaffa8b3" cx="596.45" cy="256.17" r="6.92"/><circle class="f0461c2c-473f-49fb-a793-e1dfeaffa8b3" cx="590.51" cy="457.6" r="4.79"/></g><g id="35e492c9-d3f0-4239-9d94-0e1935ea0846" data-name="Capa 3"><text class="14d8b45a-b9e5-4687-905c-597f5d6c2ca3" transform="translate(51.99 67.58)">Cada círculo representa el valor de un futbolista en millones de euros</text><text class="5c954f37-f60a-49f0-bb16-77f2291cc589" transform="translate(19.27 37.6)">El valor de la selección española y portuguesa</text></g><g id="e774eb3e-a58a-448a-b254-6aab756f21f1" data-name="Capa 2"><text class="b1901541-7d68-4b54-a565-1f88ba810b7f" transform="translate(16.74 169.1)">ES<tspan class="83339255-31ee-4176-9784-20e39d3bdc2f" x="42.69" y="0">P</tspan><tspan x="61.66" y="0">AÑ</tspan><tspan class="278bebeb-6a1e-4c46-8ca9-dbeb03fb10d6" x="107.88" y="0">A</tspan></text><text class="b1901541-7d68-4b54-a565-1f88ba810b7f" transform="translate(587.16 169.1)">PORTUGA<tspan class="9b5405aa-4bcb-4a22-ba3c-375b4ac36f94" x="160" y="0">L</tspan></text><text class="b6191d40-3bbc-4717-a756-e72c9972ddd9" transform="translate(6.3 789.1)">Fuente: Elaboración propia a partir de<tspan class="9b5405aa-4bcb-4a22-ba3c-375b4ac36f94" x="335.76" y="0"> </tspan><tspan class="278bebeb-6a1e-4c46-8ca9-dbeb03fb10d6" x="340.96" y="0">T</tspan><tspan x="352.43" y="0">ransfermarkt</tspan></text><text class="b6191d40-3bbc-4717-a756-e72c9972ddd9" transform="translate(687.36 791.1)">L<tspan class="fb862f45-4670-4cdc-8bfa-0a8b37b229ef" x="11.12" y="0">A</tspan><tspan x="23.36" y="0"> </tspan><tspan class="83339255-31ee-4176-9784-20e39d3bdc2f" x="28.92" y="0">V</tspan><tspan x="40.77" y="0">ANGUARDI</tspan><tspan class="fb862f45-4670-4cdc-8bfa-0a8b37b229ef" x="146.34" y="0">A</tspan></text></g></svg>