<svg id="a25e5f42-f2c4-4ee6-a628-244b6dcc65a5" data-name="chart" xmlns="http://www.w3.org/2000/svg" viewBox="0 0 1372.8 1372.8"><defs><style>.\39 05288d7-80db-444b-b146-398e02df7830{font-size:41px;font-family:OpenSans, Open Sans;}.\30 f5083bc-e61a-4297-8d0d-d3df732ec121,.\39 05288d7-80db-444b-b146-398e02df7830{fill:#757575;}.\34 4752a14-f3ca-4350-971c-4bc3e18e1e0a{fill:#dd9a05;}.b5d9d4cd-17f1-4b31-a94f-277f832c72e1{opacity:0;}.\31 3a55015-251b-4d3c-88a3-5626ef101817,.\32 1a9e84f-854e-4850-a930-0664f770b7c0,.\37 1f9a65c-69bb-47d0-8ec2-db510cd653a4,.b5d9d4cd-17f1-4b31-a94f-277f832c72e1,.c1fb70d4-0bd9-4fd9-ab08-ab2ebda73591,.e88ecb96-059a-429f-84d2-0f3b5d1d0990,.ec93ae49-9e58-4eb3-9894-50b8457880f8,.ec9d9818-eb4c-453a-b36c-3ff6d83f57a0,.f11225cc-faff-4704-8e36-2f5fca64bb42,.fbbc9fbb-fa80-4bdf-94b4-b0505a408d5e{isolation:isolate;}.\31 3a55015-251b-4d3c-88a3-5626ef101817,.\32 1a9e84f-854e-4850-a930-0664f770b7c0,.\37 1f9a65c-69bb-47d0-8ec2-db510cd653a4,.c1fb70d4-0bd9-4fd9-ab08-ab2ebda73591,.e88ecb96-059a-429f-84d2-0f3b5d1d0990,.ec93ae49-9e58-4eb3-9894-50b8457880f8,.ec9d9818-eb4c-453a-b36c-3ff6d83f57a0,.f11225cc-faff-4704-8e36-2f5fca64bb42,.fbbc9fbb-fa80-4bdf-94b4-b0505a408d5e{font-size:12px;font-family:ArialMT-Bold, Arial MT;}.c1fb70d4-0bd9-4fd9-ab08-ab2ebda73591,.e65e6839-9ec1-4d3a-87d6-ca21fa34f481,.fea59e87-b524-41e1-b996-f25f89166f41{fill:none;}.c1fb70d4-0bd9-4fd9-ab08-ab2ebda73591{stroke:#fff;stroke-width:3.2px;}.\31 3a55015-251b-4d3c-88a3-5626ef101817,.\32 1a9e84f-854e-4850-a930-0664f770b7c0,.\33 9ac4d2e-56c5-4650-9004-5d6ebfded3ca,.\36 04aa4aa-6515-4d4f-877b-6af0e67fd22f,.\37 1f9a65c-69bb-47d0-8ec2-db510cd653a4,.c1fb70d4-0bd9-4fd9-ab08-ab2ebda73591,.e88ecb96-059a-429f-84d2-0f3b5d1d0990,.ec93ae49-9e58-4eb3-9894-50b8457880f8,.ec9d9818-eb4c-453a-b36c-3ff6d83f57a0,.f11225cc-faff-4704-8e36-2f5fca64bb42,.fbbc9fbb-fa80-4bdf-94b4-b0505a408d5e{font-weight:700;}.\37 1f9a65c-69bb-47d0-8ec2-db510cd653a4{fill:#1d6996;}.f11225cc-faff-4704-8e36-2f5fca64bb42{fill:#0f8554;}.\36 3b77db3-b3aa-4cd2-9118-9c58867db3ab{fill:#fff3d9;}.ac7521ec-2d91-48ce-8ff4-1d3637412089{fill:#efac06;}.e88ecb96-059a-429f-84d2-0f3b5d1d0990{fill:#edad08;}.acbabbe8-6cb2-4be6-b7fd-7d374210dd51{fill:#f8b500;}.ec9d9818-eb4c-453a-b36c-3ff6d83f57a0{fill:#73af48;}.d6f7d956-e0a3-4299-8d12-f143f9367037{fill:#f9c346;}.fbbc9fbb-fa80-4bdf-94b4-b0505a408d5e{fill:#94346e;}.\31 39eaffa-c100-42d0-8a0e-ef7662857588{fill:#fceabb;}.\32 1a9e84f-854e-4850-a930-0664f770b7c0{fill:#5f4690;}.\37 db71b26-7f93-42ca-ad51-bbd0d53b7d56{fill:#fad16f;}.\31 3a55015-251b-4d3c-88a3-5626ef101817{fill:#38a6a5;}.\36 2dad9b5-0dc5-4882-8e51-32ec14ec4c47{fill:#fbde95;}.ec93ae49-9e58-4eb3-9894-50b8457880f8{fill:#e17c05;}.fea59e87-b524-41e1-b996-f25f89166f41{stroke:#757575;stroke-miterlimit:10;stroke-width:4px;}.\33 9ac4d2e-56c5-4650-9004-5d6ebfded3ca{font-size:56px;fill:#323232;}.\33 9ac4d2e-56c5-4650-9004-5d6ebfded3ca,.\36 04aa4aa-6515-4d4f-877b-6af0e67fd22f{font-family:OpenSans-Bold, Open Sans;}</style></defs><title>2018.10.01_Migraciones</title><text class="905288d7-80db-444b-b146-398e02df7830" transform="translate(1040.7 1360.6)">LA VANGUARDIA</text><text class="905288d7-80db-444b-b146-398e02df7830" transform="translate(11.6 1354.6)">Fuente: Naciones Unidas</text><text class="905288d7-80db-444b-b146-398e02df7830" transform="translate(32.39 816.82)">EMIRATOS</text><text class="905288d7-80db-444b-b146-398e02df7830" transform="translate(35.39 729.82)">OTROS</text><text class="905288d7-80db-444b-b146-398e02df7830" transform="translate(41.39 900.83)">EGIPTO</text><path class="0f5083bc-e61a-4297-8d0d-d3df732ec121" d="M272.72,914l28.43-2.62c.13,1.44.21,2.15.37,3.58l-25.38,2.93a150.43,150.43,0,0,0,2.51,15.66l-2.95.61A153,153,0,0,1,272.72,914Z"/><path class="0f5083bc-e61a-4297-8d0d-d3df732ec121" d="M307.41,932.42a30.29,30.29,0,0,0,3.35,1.36,27.65,27.65,0,0,0,3.33.95c.41,1.55.63,2.32,1.08,3.85l-.39.12a24.13,24.13,0,0,1-3.73-1.67,24.55,24.55,0,0,1-3.57-2.26c-.23-.89-.34-1.34-.55-2.23Zm-30.35,7.79,27.76-6.7c.34,1.39.51,2.08.88,3.46l-27.6,7.33C277.67,942.68,277.46,941.86,277.06,940.21Z"/><path class="0f5083bc-e61a-4297-8d0d-d3df732ec121" d="M308.08,945.05c1.07,3.3,1.65,4.93,2.9,8.16,1.47,3.79,2.15,6.69,1.87,8.83a6,6,0,0,1-3.69,4.81,5.64,5.64,0,0,1-4.48.33,8,8,0,0,1-3.9-3.49l-.18.08c1.32,4.94.44,8.22-3,9.88a6.64,6.64,0,0,1-6.77-.33c-2.21-1.37-4.13-3.88-5.6-7.54-1.89-4.7-2.76-7.08-4.32-11.9Zm-10.4,7.42c.84,2.39,1.28,3.58,2.21,5.93,1,2.52,2.11,4.18,3.25,5a4,4,0,0,0,4.11.1,3.72,3.72,0,0,0,2.4-3.15,13.85,13.85,0,0,0-1.29-5.95c-.77-2-1.14-3-1.85-5Zm-2.65.93-10.08,3.53c1,2.81,1.51,4.21,2.61,7s2.34,4.5,3.74,5.47a4.51,4.51,0,0,0,4.7.25,4.27,4.27,0,0,0,2.69-3.55,14,14,0,0,0-1.32-6.41C296.38,957.18,295.92,955.93,295,953.4Z"/><path class="0f5083bc-e61a-4297-8d0d-d3df732ec121" d="M293.85,984.12,319,970.59c.68,1.26,1,1.88,1.73,3.12l-24.83,14.1C295.06,986.35,294.65,985.61,293.85,984.12Z"/><path class="0f5083bc-e61a-4297-8d0d-d3df732ec121" d="M314.63,1014.84c1.62-3.73,2.46-5.57,4.23-9.18-3.47-4.37-5.11-6.62-8.21-11.22-4,.61-6,.87-10,1.31-.92-1.44-1.37-2.17-2.26-3.64a204.23,204.23,0,0,0,31.22-4.69c.7,1,1.06,1.46,1.78,2.43a199.51,199.51,0,0,0-13.91,28.35C316.34,1016.86,315.76,1016.19,314.63,1014.84Zm5.81-12c1.81-3.43,2.74-5.12,4.68-8.44a37.26,37.26,0,0,1,2.43-3.64,30.33,30.33,0,0,1-4.14,1.31c-3.76.83-5.66,1.21-9.49,1.88C316.41,997.56,317.71,999.34,320.44,1002.82Z"/><path class="0f5083bc-e61a-4297-8d0d-d3df732ec121" d="M408.79,1127.42l21.77-18.47c.93,1.09,1.39,1.63,2.34,2.7l-19.15,16.91c4.1,4.64,6.23,6.88,10.65,11.18l-2.1,2.16A173.25,173.25,0,0,1,408.79,1127.42Z"/><path class="0f5083bc-e61a-4297-8d0d-d3df732ec121" d="M447.53,1122.64a30.86,30.86,0,0,0,3.53-.74,28.17,28.17,0,0,0,3.3-1.06c1.2,1.06,1.81,1.58,3,2.62l-.26.31a24.65,24.65,0,0,1-4,.67,25,25,0,0,1-4.21.11L447.2,1123ZM426.67,1146,446,1125c1,1,1.57,1.44,2.64,2.37l-18.9,21.41C428.49,1147.68,427.88,1147.13,426.67,1146Z"/><path class="0f5083bc-e61a-4297-8d0d-d3df732ec121" d="M455,1132.74c2.68,2.15,4,3.2,6.83,5.22,3.26,2.37,5.37,4.45,6.27,6.39a6,6,0,0,1-.58,6,5.7,5.7,0,0,1-3.59,2.68,7.79,7.79,0,0,1-5.1-.81l-.11.16c3.69,3.41,4.63,6.63,2.61,9.87a6.71,6.71,0,0,1-5.84,3.37c-2.55.06-5.44-1-8.56-3.21-4-2.85-6-4.33-9.81-7.41Zm-4.68,11.87c2,1.52,3,2.26,5,3.72s4,2.34,5.33,2.38a4,4,0,0,0,3.5-2.13,3.72,3.72,0,0,0,.36-3.93,13.4,13.4,0,0,0-4.25-4.28c-1.71-1.24-2.56-1.87-4.23-3.17Zm-1.72,2.23-6.52,8.46c2.3,1.77,3.46,2.64,5.82,4.33a11.33,11.33,0,0,0,6,2.5,4.55,4.55,0,0,0,4.06-2.34,4.29,4.29,0,0,0,.41-4.41,13.31,13.31,0,0,0-4.46-4.62C451.74,1149.23,450.69,1148.44,448.61,1146.84Z"/><path class="0f5083bc-e61a-4297-8d0d-d3df732ec121" d="M483.27,1183.06c-.14-4-.17-6-.15-10-4.9-2.29-7.31-3.52-12-6.13-3.21,2.38-4.84,3.54-8.17,5.81-1.43-.83-2.15-1.26-3.56-2.12A234.94,234.94,0,0,0,484.7,1152c1.06.55,1.58.82,2.65,1.35a233.57,233.57,0,0,0-.17,31.43C485.61,1184.08,484.83,1183.75,483.27,1183.06Zm0-13.27c.12-3.86.22-5.78.48-9.61a38.34,38.34,0,0,1,.55-4.34,31.09,31.09,0,0,1-3.09,3c-3,2.46-4.46,3.66-7.52,6C477.49,1167,479.41,1167.95,483.29,1169.79Z"/><path class="0f5083bc-e61a-4297-8d0d-d3df732ec121" d="M518.11,1194.89c-1.84-.45-2.76-.68-4.58-1.17a178.54,178.54,0,0,1-10.15-28.35l-.16-.06q-1.15,4.07-2.36,7.37l-5.63,15.22c-1.43-.53-2.14-.8-3.55-1.35l10.38-26.6c1.49.58,2.24.87,3.75,1.42a175.68,175.68,0,0,0,9.86,28.07l.18,0q.09-.52.65-3.33t.93-4l4.17-15.85c1.29.34,1.94.5,3.24.82Z"/><path class="0f5083bc-e61a-4297-8d0d-d3df732ec121" d="M758.5,1222.19a6.48,6.48,0,0,1-3.15,5.92c-2.19,1.42-5.23,2.1-9,1.92a23.56,23.56,0,0,1-9.41-2l.32-3.19a24.27,24.27,0,0,0,4.47,1.57,24.88,24.88,0,0,0,4.89.72,10.72,10.72,0,0,0,6-1.09,3.88,3.88,0,0,0,2-3.49,4.08,4.08,0,0,0-.69-2.43,6.39,6.39,0,0,0-2.26-1.77,43.59,43.59,0,0,0-4.75-2,14.16,14.16,0,0,1-6.13-3.79,6.9,6.9,0,0,1-1.39-5.25,6.4,6.4,0,0,1,3.07-5,11.65,11.65,0,0,1,6.85-1.56,23.32,23.32,0,0,1,8,1.63c-.4,1.16-.61,1.74-1,2.91a21.93,21.93,0,0,0-7.16-1.57,7.55,7.55,0,0,0-4.36.92,3.72,3.72,0,0,0-1.79,3,4.47,4.47,0,0,0,.41,2.47,5.27,5.27,0,0,0,1.9,1.86,22.64,22.64,0,0,0,4.31,1.94c3.29,1.17,5.61,2.3,6.89,3.5A6.41,6.41,0,0,1,758.5,1222.19Z"/><path class="0f5083bc-e61a-4297-8d0d-d3df732ec121" d="M765.75,1229.48,764,1201c1.35-.08,2-.13,3.37-.25l2.43,28.45C768.16,1229.32,767.36,1229.38,765.75,1229.48Z"/><path class="0f5083bc-e61a-4297-8d0d-d3df732ec121" d="M781.25,1215.8l1.9,11.72c-1.59.26-2.38.38-4,.6l-3.94-28.28c3.15-.44,4.72-.7,7.85-1.31,3.49-.68,6.19-.64,8.18.25a7.35,7.35,0,0,1,4.07,5.2c1,3.65-.38,6.7-4.28,8.94A148.65,148.65,0,0,0,803,1223.13c-1.83.52-2.75.76-4.59,1.23-4.41-3.78-6.52-5.74-10.53-9.77C785.23,1215.13,783.91,1215.37,781.25,1215.8Zm-.46-2.81c2-.32,3-.5,5-.89,2.55-.5,4.32-1.37,5.28-2.55a4.9,4.9,0,0,0,.77-4.49,4.74,4.74,0,0,0-2.66-3.57c-1.32-.55-3.21-.55-5.71-.07-1.75.34-2.64.49-4.4.78Z"/><path class="0f5083bc-e61a-4297-8d0d-d3df732ec121" d="M808.32,1221.53l-8.61-27.22c1.29-.41,1.93-.62,3.21-1.05l9.22,27C810.61,1220.8,809.85,1221,808.32,1221.53Z"/><path class="0f5083bc-e61a-4297-8d0d-d3df732ec121" d="M840.75,1207.61c-3.28-2.34-4.88-3.54-8-6-4.7,2.45-7.09,3.58-11.95,5.65-.07,4-.15,6-.39,10-1.51.6-2.28.89-3.8,1.46a204.64,204.64,0,0,0,.64-31.29c1-.48,1.55-.72,2.58-1.22a200.52,200.52,0,0,0,24.6,19.35C843,1206.38,842.23,1206.79,840.75,1207.61Zm-10.45-8.11c-3-2.46-4.4-3.72-7.23-6.28a38.17,38.17,0,0,1-3-3.11,31.54,31.54,0,0,1,.56,4.29c.18,3.82.22,5.74.24,9.59C824.67,1202.31,826.57,1201.41,830.31,1199.49Z"/><path class="0f5083bc-e61a-4297-8d0d-d3df732ec121" d="M290.36,595.57a6.84,6.84,0,0,1,4.09,5.18,14.2,14.2,0,0,1-1.37,8.26,23.14,23.14,0,0,1-4.54,7.36l-3-1.23a26.72,26.72,0,0,0,4.89-7.41,10,10,0,0,0,1.07-5.53,4,4,0,0,0-2.43-3.13,4.14,4.14,0,0,0-2.49-.4,5.92,5.92,0,0,0-2.5,1.31,31.07,31.07,0,0,0-3.58,3.62,16.29,16.29,0,0,1-5.63,4.57,7,7,0,0,1-5.45-.17,6,6,0,0,1-3.75-4.66,12.94,12.94,0,0,1,1.21-7.74A24.1,24.1,0,0,1,272,588l2.13,2.29a21.9,21.9,0,0,0-4.58,6.59,8.38,8.38,0,0,0-.85,4.8,3.56,3.56,0,0,0,2.23,2.8,4.36,4.36,0,0,0,2.48.38,5.66,5.66,0,0,0,2.42-1.24,29.48,29.48,0,0,0,3.4-3.42c2.34-2.66,4.34-4.28,6-4.92A6.32,6.32,0,0,1,290.36,595.57Z"/><path class="0f5083bc-e61a-4297-8d0d-d3df732ec121" d="M307.69,577.58c-3.19,6.1-4.74,9.19-7.73,15.43l-25.76-12.33c3.16-6.61,4.8-9.88,8.18-16.35L285,565.7c-2.66,5.09-4,7.65-6.48,12.83l8.27,4c2.33-4.78,3.52-7.15,6-11.84l2.6,1.35c-2.43,4.67-3.62,7-5.94,11.77l9.44,4.61c2.41-4.95,3.65-7.4,6.2-12.26Z"/><path class="0f5083bc-e61a-4297-8d0d-d3df732ec121" d="M318.19,531.22a16.39,16.39,0,0,1,6.36,7,12,12,0,0,1,.57,8.31c3.94-1,5.91-1.45,9.84-2.34-1.1,1.72-1.65,2.58-2.73,4.3-3.44.62-5.16,1-8.6,1.65l-.57,1c-2.34,3.86-5.21,6.21-8.67,7.07s-7.24.16-11.32-2.15-6.55-5.19-7.46-8.72-.14-7.39,2.35-11.5,5.48-6.39,9.07-7.18S314.35,528.73,318.19,531.22Zm-13.14,21.46c3.35,1.94,6.34,2.62,9,2.08s4.8-2.25,6.56-5.15,2.29-5.63,1.54-8.17-2.75-4.87-6-7-6.18-2.88-8.82-2.41-4.92,2.23-6.77,5.28-2.39,5.93-1.6,8.54S301.75,550.77,305.05,552.68Z"/><path class="0f5083bc-e61a-4297-8d0d-d3df732ec121" d="M324.25,497.5l14.85,11a9.8,9.8,0,0,1,4.3,7.11c.26,2.8-.67,5.67-2.78,8.67s-4.48,4.81-7.17,5.44a10.11,10.11,0,0,1-8.13-1.78L310,517.72c.84-1.25,1.26-1.88,2.1-3.12l15.42,10.46a7.08,7.08,0,0,0,5.73,1.34c1.85-.44,3.54-1.77,5.1-4a8.69,8.69,0,0,0,1.91-6,7.14,7.14,0,0,0-3.22-5l-15-11Z"/><path class="0f5083bc-e61a-4297-8d0d-d3df732ec121" d="M362.58,494.8c-4.3,5.22-6.41,7.87-10.53,13.25l-22.67-17.37c4.37-5.7,6.6-8.51,11.16-14l2.28,1.88c-3.58,4.35-5.35,6.55-8.82,11l7.26,5.65c3.2-4.11,4.82-6.15,8.13-10.17l2.26,1.86c-3.28,4-4.9,6-8.08,10.11l8.29,6.45c3.31-4.26,5-6.36,8.42-10.52Z"/><path class="0f5083bc-e61a-4297-8d0d-d3df732ec121" d="M372.36,461.66c3.44,3.22,5.12,6.7,5.1,10.39s-1.72,7.41-5.08,11.24c-2.21,2.52-3.31,3.79-5.48,6.35l-21.79-18.46c2.54-3,3.83-4.49,6.43-7.44,3.3-3.74,6.83-5.78,10.5-6.13S369.14,458.64,372.36,461.66Zm-2.53,2.89c-2.74-2.53-5.5-3.68-8.29-3.42s-5.58,1.93-8.3,5c-1.42,1.62-2.13,2.43-3.54,4.07L367,485.09c1.13-1.31,1.69-2,2.83-3.26,2.78-3.18,4.18-6.17,4.18-9.06S372.63,467.13,369.83,464.55Z"/><path class="0f5083bc-e61a-4297-8d0d-d3df732ec121" d="M401.06,453.33c-3.6-1.58-5.41-2.36-9-3.9-3.53,3.44-5.28,5.18-8.73,8.71,1.54,3.62,2.32,5.43,3.91,9l-2.46,2.57c-4.23-9.48-8.24-19.11-12-28.8l2.22-2.21c9.66,3.79,19.27,7.83,28.72,12.1Zm-11.93-5.26c-3.5-1.52-5.26-2.27-8.8-3.75q-1.69-.69-4-1.88a35.85,35.85,0,0,1,2,3.88c1.46,3.55,2.2,5.32,3.71,8.83C384.85,452.29,386.27,450.87,389.13,448.07Z"/><path class="0f5083bc-e61a-4297-8d0d-d3df732ec121" d="M424.37,432.4,421.32,435c-9.41-2.55-19-4.81-28.53-6.75l-.13.12q3.11,2.88,5.48,5.47l11,12L406.72,448,387.3,427.06l3.09-2.84c9.56,1.91,19.12,4.14,28.54,6.65l.13-.11q-.37-.37-2.34-2.46t-2.73-3l-10.63-12.47,2.65-2.24Z"/><path class="0f5083bc-e61a-4297-8d0d-d3df732ec121" d="M452.79,410.27c-5.45,3.93-8.14,5.94-13.45,10l-17.49-22.57c5.62-4.36,8.47-6.49,14.25-10.64l1.72,2.39c-4.54,3.27-6.79,4.94-11.24,8.33l5.58,7.31c4.1-3.13,6.18-4.67,10.36-7.7l1.72,2.37c-4.16,3-6.22,4.54-10.3,7.65l6.38,8.35c4.25-3.24,6.4-4.84,10.74-8Z"/><path class="0f5083bc-e61a-4297-8d0d-d3df732ec121" d="M477.83,393.39l-3.37,2.14c-9-3.81-18.12-7.36-27.32-10.61l-.14.1q2.68,3.28,4.68,6.17l9.21,13.36-2.66,1.85L441.86,383l3.44-2.39c9.2,3.21,18.36,6.73,27.34,10.51l.14-.09q-.32-.42-2-2.76t-2.29-3.39l-8.82-13.81,2.93-1.86Z"/><path class="0f5083bc-e61a-4297-8d0d-d3df732ec121" d="M501.72,356.33a7.81,7.81,0,0,1,.25,7.41c-1.16,2.38-3.48,4.5-6.95,6.43L491.85,372l5.52,9.78-3,1.74L480.1,358.71c2.87-1.65,4.31-2.46,7.21-4.07C494.3,350.77,499.15,351.42,501.72,356.33Zm-11.27,13.14,2.83-1.59c2.8-1.56,4.6-3.07,5.42-4.59a5.11,5.11,0,0,0-.25-5,4.72,4.72,0,0,0-3.8-2.75c-1.65-.16-3.76.45-6.3,1.86l-3.6,2Z"/><path class="0f5083bc-e61a-4297-8d0d-d3df732ec121" d="M533.83,363.12c-2.88-2.68-4.33-4-7.26-6.65-4.48,2.09-6.7,3.16-11.11,5.37.26,3.93.41,5.89.73,9.8L513,373.26c-.88-10.35-1.51-20.76-1.86-31.14l2.82-1.36q11.83,10.13,23.17,20.86Zm-9.54-8.88c-2.81-2.59-4.23-3.88-7.08-6.44q-1.37-1.21-3.11-3.08a35.85,35.85,0,0,1,.57,4.3c.21,3.83.33,5.74.6,9.56C518.85,356.82,520.66,356,524.29,354.24Z"/><path class="0f5083bc-e61a-4297-8d0d-d3df732ec121" d="M541,359.93l-11.46-26.15,3.42-1.48L543,355.77c4.94-2.12,7.43-3.15,12.43-5.14l1.11,2.8C550.25,355.92,547.14,357.22,541,359.93Z"/><path class="0f5083bc-e61a-4297-8d0d-d3df732ec121" d="M577.24,345.75c-6.41,2.21-9.6,3.37-15.91,5.8L551.08,324.9c6.69-2.57,10.06-3.8,16.86-6.15l1,2.79c-5.34,1.84-8,2.8-13.28,4.79l3.24,8.61c4.87-1.83,7.32-2.72,12.25-4.43l1,2.77c-4.9,1.7-7.33,2.58-12.18,4.4l3.7,9.83c5-1.9,7.58-2.81,12.69-4.58Z"/><path class="0f5083bc-e61a-4297-8d0d-d3df732ec121" d="M598,331.21a6.88,6.88,0,0,1-1.18,6.47,13.7,13.7,0,0,1-7,4.34,22,22,0,0,1-8.34,1.33l-1-3a25.38,25.38,0,0,0,8.6-1.1,9.59,9.59,0,0,0,4.77-2.79,4.05,4.05,0,0,0,.73-3.88,4.2,4.2,0,0,0-1.32-2.14,5.83,5.83,0,0,0-2.59-1,30.15,30.15,0,0,0-5-.36,15.73,15.73,0,0,1-7-1.3,7.07,7.07,0,0,1-3.4-4.24,6.06,6.06,0,0,1,1-5.86,12.41,12.41,0,0,1,6.47-4.11,23.28,23.28,0,0,1,8.93-1.06c-.13,1.24-.19,1.86-.31,3.1a21.14,21.14,0,0,0-7.83.82,8,8,0,0,0-4.07,2.48,3.58,3.58,0,0,0-.61,3.5,4.45,4.45,0,0,0,1.33,2.13,5.55,5.55,0,0,0,2.48,1,28.29,28.29,0,0,0,4.71.35c3.47,0,6,.5,7.5,1.33A6.38,6.38,0,0,1,598,331.21Z"/><path class="0f5083bc-e61a-4297-8d0d-d3df732ec121" d="M615.19,334.39l-3.45.89-6.51-24.76c-3.95,1-5.92,1.58-9.84,2.69l-.81-2.84c9.33-2.66,14-3.88,23.54-6.09l.67,2.87c-4,.93-6,1.42-9.93,2.43Z"/><path class="0f5083bc-e61a-4297-8d0d-d3df732ec121" d="M629.12,331.06l-6.23-27.87,3.7-.81,6,27.91Z"/><path class="0f5083bc-e61a-4297-8d0d-d3df732ec121" d="M664.66,324.51l-4.06.61c-6.81-7.09-13.89-14-21.12-20.67l-.17,0q1.14,4.08,1.79,7.53l3,15.94-3.25.63-5.53-28,4.21-.81c7.26,6.63,14.35,13.53,21.19,20.59l.17,0q-.12-.51-.7-3.32t-.73-4L657,296.78l3.53-.53Z"/><path class="0f5083bc-e61a-4297-8d0d-d3df732ec121" d="M692.57,321.27c-1.86-3.48-2.81-5.22-4.73-8.69-5.07.48-7.6.75-12.64,1.36-1.11,3.79-1.65,5.69-2.7,9.49l-3.62.48c2.74-10.06,5.76-20.1,9-30l3.21-.35c5.29,9,10.37,18.15,15.21,27.4Zm-6.16-11.55c-1.82-3.38-2.75-5.06-4.62-8.43q-.9-1.59-1.95-3.94a34.91,34.91,0,0,1-.95,4.25c-1.13,3.69-1.68,5.53-2.75,9.22C680.23,310.33,682.29,310.11,686.4,309.71Z"/><path class="0f5083bc-e61a-4297-8d0d-d3df732ec121" d="M1019.43,470.32a7,7,0,0,1-1.92-2.32l1.82-2.17a11.76,11.76,0,0,0,2,2.23,3.9,3.9,0,0,0,3.07,1.1,4.94,4.94,0,0,0,3-1.86l18.81-21.48c1.14,1,1.71,1.5,2.84,2.51l-18.86,21.07a8.11,8.11,0,0,1-5.28,3A7.4,7.4,0,0,1,1019.43,470.32Z"/><path class="0f5083bc-e61a-4297-8d0d-d3df732ec121" d="M1064.6,483.86c-3.39,3.06-6.89,4.54-10.47,4.52s-6.8-1.55-9.81-4.6-4.6-6.39-4.57-9.92,1.59-7,4.79-10.45,6.56-5.18,10.19-5.25,7.21,1.61,10.58,5,4.83,6.9,4.67,10.57S1068,480.79,1064.6,483.86Zm-17.29-17.78c-2.67,2.8-4,5.53-4.18,8.19s1,5.12,3.27,7.47,4.77,3.5,7.4,3.39,5.37-1.46,8.22-4.09,4.37-5.23,4.59-7.9-.91-5.31-3.41-7.85-5.16-3.74-7.87-3.59S1049.95,463.32,1047.32,466.08Z"/><path class="0f5083bc-e61a-4297-8d0d-d3df732ec121" d="M1069.67,493.37,1060.6,501c-.89-1.05-1.34-1.58-2.24-2.62l21.6-18.67c2.32,2.69,3.47,4,5.72,6.79,2.52,3.07,3.8,5.8,3.9,8.1a6.88,6.88,0,0,1-3.08,5.92c-3,2.3-6.28,2.17-9.9-.24-1.93,5.82-3,8.69-5.11,14.35-1-1.3-1.48-1.95-2.48-3.24,2-5.18,2.95-7.8,4.75-13.11C1072.15,496.32,1071.33,495.33,1069.67,493.37Zm2.18-1.84c1.28,1.51,1.91,2.27,3.17,3.8,1.62,2,3.14,3.14,4.61,3.5a5,5,0,0,0,4.41-1.18,4.52,4.52,0,0,0,2.06-4c-.12-1.49-1-3.33-2.8-5.46-1.23-1.5-1.85-2.24-3.11-3.73Z"/><path class="0f5083bc-e61a-4297-8d0d-d3df732ec121" d="M1099.93,530.41c-4,2.49-7.78,3.22-11.33,2.31s-6.66-3.42-9.5-7.52c-1.87-2.7-2.82-4-4.76-6.69l23-16.86c2.34,3.2,3.48,4.81,5.73,8.07,2.85,4.14,4,8.1,3.36,11.74S1103.68,528.07,1099.93,530.41Zm-2.13-3.16c3.14-2,5-4.38,5.41-7.15s-.48-5.9-2.83-9.3c-1.23-1.78-1.85-2.67-3.11-4.43l-18.56,13.27c1,1.38,1.47,2.07,2.44,3.46,2.36,3.4,4.88,5.46,7.66,6.15S1094.58,529.3,1097.8,527.24Z"/><path class="0f5083bc-e61a-4297-8d0d-d3df732ec121" d="M1100,560c2.55-3,3.81-4.49,6.31-7.53-2.29-4.32-3.48-6.45-5.94-10.68-3.9.53-5.84.81-9.7,1.42-.71-1.2-1.07-1.79-1.8-3,10.22-1.7,20.6-3,30.92-3.94.62,1.1.93,1.65,1.54,2.76-6.24,8.26-12.86,16.36-19.7,24.13C1101,561.93,1100.7,561.29,1100,560Zm8.42-9.92c2.44-2.93,3.65-4.41,6-7.41q1.13-1.43,2.89-3.29a36.3,36.3,0,0,1-4.27.81c-3.81.44-5.71.67-9.5,1.18C1105.62,544.85,1106.58,546.59,1108.46,550.1Z"/><path class="0f5083bc-e61a-4297-8d0d-d3df732ec121" d="M1112.85,588.07c-.58-1.47-.88-2.2-1.48-3.65,5.39-8.09,10.46-16.55,15.07-25.11l-.07-.16q-3.66,2.13-6.84,3.63l-14.67,7c-.55-1.15-.82-1.73-1.38-2.87l25.68-12.49c.74,1.53,1.11,2.29,1.83,3.83-4.58,8.59-9.61,17.08-15,25.21l.06.15,3.06-1.46q2.59-1.22,3.75-1.65l15.16-6.23c.54,1.3.8,2,1.32,3.27Z"/><path class="0f5083bc-e61a-4297-8d0d-d3df732ec121" d="M1115.78,595.7l26.79-9.89c.52,1.42.78,2.13,1.29,3.55L1117,599C1116.49,597.65,1116.26,597,1115.78,595.7Z"/><path class="0f5083bc-e61a-4297-8d0d-d3df732ec121" d="M1124.93,624.71c3.13-2.37,4.69-3.57,7.79-6-1.31-4.76-2-7.12-3.5-11.82-3.92-.34-5.88-.49-9.79-.75-.44-1.33-.66-2-1.12-3.33,10.36.59,20.79,1.58,31.07,3,.37,1.22.55,1.83.91,3.06-7.88,6.74-16.09,13.24-24.45,19.38C1125.47,626.81,1125.29,626.11,1124.93,624.71Zm10.36-7.89c3-2.34,4.52-3.53,7.5-5.95q1.41-1.16,3.53-2.59a36,36,0,0,1-4.34-.15c-3.82-.42-5.73-.6-9.54-.94C1133.64,611,1134.21,612.95,1135.29,616.82Z"/><g id="d8d82921-c726-467d-af5e-09d8c9501c2f" data-name="chords-container"><path id="8c3ce51e-62af-4443-a5f6-3a38fdc1467a" data-name="chords id" class="44752a14-f3ca-4350-971c-4bc3e18e1e0a" d="M708.37,374c216.77,0,392.5,175.73,392.5,392.5A392.5,392.5,0,0,1,939,1084.09Q708.37,766.53,688.76,374.52,708.37,766.53,708.37,374Z"/><g class="b5d9d4cd-17f1-4b31-a94f-277f832c72e1"><text class="c1fb70d4-0bd9-4fd9-ab08-ab2ebda73591" transform="translate(1031.2 652.98)">2,046,650</text><text class="c1fb70d4-0bd9-4fd9-ab08-ab2ebda73591" transform="translate(686.67 399.49)">0</text><text class="71f9a65c-69bb-47d0-8ec2-db510cd653a4" transform="translate(1031.2 652.98)">2,046,650</text><text class="f11225cc-faff-4704-8e36-2f5fca64bb42" transform="translate(686.67 399.49)">0</text></g><path id="b45c8a7a-49e8-458c-8b26-4e832570069d" data-name="chords id" class="63b77db3-b3aa-4cd2-9118-9c58867db3ab" d="M334.46,647.19a392.5,392.5,0,0,1,354.3-272.67Q708.37,766.53,334.46,647.19Z"/><g class="b5d9d4cd-17f1-4b31-a94f-277f832c72e1"><text class="c1fb70d4-0bd9-4fd9-ab08-ab2ebda73591" transform="translate(462.56 475.29)">986,812</text><text class="c1fb70d4-0bd9-4fd9-ab08-ab2ebda73591" transform="translate(462.56 475.29)">986,812</text><text class="f11225cc-faff-4704-8e36-2f5fca64bb42" transform="translate(462.56 475.29)">986,812</text><text class="f11225cc-faff-4704-8e36-2f5fca64bb42" transform="translate(462.56 475.29)">986,812</text></g><path id="9c8e4bf2-75c3-49d7-9573-e7499b17c7c5" data-name="chords id" class="ac7521ec-2d91-48ce-8ff4-1d3637412089" d="M922.89,1095.22a392.5,392.5,0,0,1-291,56.29,3162.39,3162.39,0,0,0,56.84-777Q708.37,766.53,922.89,1095.22Z"/><g class="b5d9d4cd-17f1-4b31-a94f-277f832c72e1"><text class="c1fb70d4-0bd9-4fd9-ab08-ab2ebda73591" transform="translate(756.49 1127.34)">630,490</text><text class="c1fb70d4-0bd9-4fd9-ab08-ab2ebda73591" transform="translate(686.67 399.49)">0</text><text class="e88ecb96-059a-429f-84d2-0f3b5d1d0990" transform="translate(756.49 1127.34)">630,490</text><text class="f11225cc-faff-4704-8e36-2f5fca64bb42" transform="translate(686.67 399.49)">0</text></g><path id="a9eb6d36-0104-4945-86cf-21a469f56b78" data-name="chords id" class="acbabbe8-6cb2-4be6-b7fd-7d374210dd51" d="M612.77,1147.21a392.5,392.5,0,0,1-204-127.17q299.65-253.51,280-645.52A2617.9,2617.9,0,0,1,612.77,1147.21Z"/><g class="b5d9d4cd-17f1-4b31-a94f-277f832c72e1"><text class="c1fb70d4-0bd9-4fd9-ab08-ab2ebda73591" transform="translate(492.31 1078.42)">506,966</text><text class="c1fb70d4-0bd9-4fd9-ab08-ab2ebda73591" transform="translate(686.67 399.49)">0</text><text class="ec9d9818-eb4c-453a-b36c-3ff6d83f57a0" transform="translate(492.31 1078.42)">506,966</text><text class="f11225cc-faff-4704-8e36-2f5fca64bb42" transform="translate(686.67 399.49)">0</text></g><path id="0d3ca811-f90a-4271-8793-856c71dbc3ac" data-name="chords id" class="d6f7d956-e0a3-4299-8d12-f143f9367037" d="M396.43,1004.75a392.5,392.5,0,0,1-63.84-124.88Q708.37,766.53,688.76,374.52,708.37,766.53,396.43,1004.75Z"/><g class="b5d9d4cd-17f1-4b31-a94f-277f832c72e1"><text class="c1fb70d4-0bd9-4fd9-ab08-ab2ebda73591" transform="translate(359.46 933.8)">292,545</text><text class="c1fb70d4-0bd9-4fd9-ab08-ab2ebda73591" transform="translate(686.67 399.49)">0</text><text class="fbbc9fbb-fa80-4bdf-94b4-b0505a408d5e" transform="translate(359.46 933.8)">292,545</text><text class="f11225cc-faff-4704-8e36-2f5fca64bb42" transform="translate(686.67 399.49)">0</text></g><path id="d4f91e15-fc74-4826-95bf-7d9500a8230b" data-name="chords id" class="139eaffa-c100-42d0-8a0e-ef7662857588" d="M317.18,734.55A392.5,392.5,0,0,1,329,666q379.41,100.51,359.8-291.5Q708.37,766.53,317.18,734.55Z"/><g class="b5d9d4cd-17f1-4b31-a94f-277f832c72e1"><text class="c1fb70d4-0bd9-4fd9-ab08-ab2ebda73591" transform="translate(324.5 704.26)">144,448</text><text class="c1fb70d4-0bd9-4fd9-ab08-ab2ebda73591" transform="translate(686.67 399.49)">0</text><text class="21a9e84f-854e-4850-a930-0664f770b7c0" transform="translate(324.5 704.26)">144,448</text><text class="f11225cc-faff-4704-8e36-2f5fca64bb42" transform="translate(686.67 399.49)">0</text></g><path id="61fe1721-8495-4b70-9baa-9fc90b291bad" data-name="chords id" class="7db71b26-7f93-42ca-ad51-bbd0d53b7d56" d="M327.4,860.94a392.5,392.5,0,0,1-10-60.41q391-34,371.41-426Q708.37,766.53,327.4,860.94Z"/><g class="b5d9d4cd-17f1-4b31-a94f-277f832c72e1"><text class="c1fb70d4-0bd9-4fd9-ab08-ab2ebda73591" transform="translate(324.17 826.83)">127,186</text><text class="c1fb70d4-0bd9-4fd9-ab08-ab2ebda73591" transform="translate(686.67 399.49)">0</text><text class="13a55015-251b-4d3c-88a3-5626ef101817" transform="translate(324.17 826.83)">127,186</text><text class="f11225cc-faff-4704-8e36-2f5fca64bb42" transform="translate(686.67 399.49)">0</text></g><path id="5233ffae-2c0b-43c6-aef9-e81bd27c6c9e" data-name="chords id" class="62dad9b5-0dc5-4882-8e51-32ec14ec4c47" d="M316.14,780.94q-.49-13.39-.07-26.8,392.3,12.39,372.69-379.62Q708.37,766.53,316.14,780.94Z"/><g class="b5d9d4cd-17f1-4b31-a94f-277f832c72e1"><text class="c1fb70d4-0bd9-4fd9-ab08-ab2ebda73591" transform="translate(322.53 767.48)">55,608</text><text class="c1fb70d4-0bd9-4fd9-ab08-ab2ebda73591" transform="translate(686.67 399.49)">0</text><text class="ec93ae49-9e58-4eb3-9894-50b8457880f8" transform="translate(322.53 767.48)">55,608</text><text class="f11225cc-faff-4704-8e36-2f5fca64bb42" transform="translate(686.67 399.49)">0</text></g></g><g id="b7ee180e-ac13-4ce6-9367-4aacd7d99803" data-name="arcs-container"><path class="44752a14-f3ca-4350-971c-4bc3e18e1e0a" d="M708.37,349c230.58,0,417.5,186.92,417.5,417.5a417.5,417.5,0,0,1-172.13,337.79L942,1088.14c177.62-129,217-377.6,88-555.22A397.5,397.5,0,0,0,708.37,369Z"/><path id="0bfada27-5a48-417e-9172-8a814e61c98f" data-name="label name0" class="e65e6839-9ec1-4d3a-87d6-ca21fa34f481" d="M579.38,369.46c219.3-71.24,454.83,48.78,526.07,268.08s-48.78,454.83-268.08,526.07"/><path class="ac7521ec-2d91-48ce-8ff4-1d3637412089" d="M936.55,1116.16A417.5,417.5,0,0,1,627,1176l3.9-19.62a397.5,397.5,0,0,0,294.68-57Z"/><path id="2bdae34b-e5df-4406-88a2-4f906aa4ea5f" data-name="label name1" class="e65e6839-9ec1-4d3a-87d6-ca21fa34f481" d="M298.47,845.83c43.73,226.39,262.72,374.47,489.11,330.73s374.47-262.72,330.73-489.11l0-.21"/><path class="acbabbe8-6cb2-4be6-b7fd-7d374210dd51" d="M606.68,1171.46a417.5,417.5,0,0,1-217-135.27l15.27-12.92a397.5,397.5,0,0,0,206.65,128.79Z"/><path id="e6e53aea-263a-4571-83d3-9fa761477b53" data-name="label name2" class="e65e6839-9ec1-4d3a-87d6-ca21fa34f481" d="M354.06,545.7c-122,195.67-62.25,453.18,133.42,575.16s453.18,62.25,575.16-133.42l.05-.08"/><path class="d6f7d956-e0a3-4299-8d12-f143f9367037" d="M376.56,1019.92a417.5,417.5,0,0,1-67.9-132.84l19.15-5.77a397.5,397.5,0,0,0,64.65,126.47Z"/><path id="ec782087-bb48-46c3-bf75-fcc61a6e11ea" data-name="label name3" class="e65e6839-9ec1-4d3a-87d6-ca21fa34f481" d="M518.35,394.78C313,499.69,231.61,751.19,336.52,956.52s356.41,286.74,561.74,181.83l.14-.07"/><path class="7db71b26-7f93-42ca-ad51-bbd0d53b7d56" d="M303.13,867a417.5,417.5,0,0,1-10.69-64.26L312.37,801a397.5,397.5,0,0,0,10.18,61.18Z"/><path id="9fd2b5c8-d28c-4ba0-9483-474d1c58866a" data-name="label name4" class="e65e6839-9ec1-4d3a-87d6-ca21fa34f481" d="M639.87,354.69C412.41,392.46,258.64,607.48,296.41,834.95s252.79,381.24,480.26,343.46l.21,0"/><path class="62dad9b5-0dc5-4882-8e51-32ec14ec4c47" d="M291.16,781.86q-.52-14.25-.07-28.5l20,.63q-.43,13.57.07,27.14Z"/><path id="c58e6e52-b6ca-4bfe-9ea8-b0313b91deff" data-name="label name5" class="e65e6839-9ec1-4d3a-87d6-ca21fa34f481" d="M707.3,349c-230.58.54-417.06,187.9-416.52,418.48S478.68,1184.57,709.26,1184h.2"/><path class="139eaffa-c100-42d0-8a0e-ef7662857588" d="M292.26,732.52a417.5,417.5,0,0,1,12.53-72.89l19.33,5.12a397.5,397.5,0,0,0-11.93,69.4Z"/><path id="c9aad20e-a475-4c67-85ef-539151138798" data-name="label name6" class="e65e6839-9ec1-4d3a-87d6-ca21fa34f481" d="M637.64,1178c-227.25-39-379.86-254.86-340.84-482.12S551.65,316,778.91,355l.2,0"/><path class="63b77db3-b3aa-4cd2-9118-9c58867db3ab" d="M310.64,639.59a417.5,417.5,0,0,1,376.87-290l1,20A397.5,397.5,0,0,0,329.69,645.67Z"/><path id="d15da510-dc67-475b-884c-b1033be83d30" data-name="label name7" class="e65e6839-9ec1-4d3a-87d6-ca21fa34f481" d="M377.51,1021.16C236.88,838.43,271,576.3,453.74,435.67s444.86-106.5,585.49,76.23"/></g><line class="fea59e87-b524-41e1-b996-f25f89166f41" x1="38.67" y1="857.78" x2="286.48" y2="857.78"/><line class="fea59e87-b524-41e1-b996-f25f89166f41" x1="38.67" y1="685.77" x2="271.48" y2="685.77"/><line class="fea59e87-b524-41e1-b996-f25f89166f41" x1="35.67" y1="769.77" x2="268.48" y2="769.77"/><text class="39ac4d2e-56c5-4650-9004-5d6ebfded3ca" transform="translate(160.65 82.24)">¿Dónde vive la población de Palestina?</text><text class="905288d7-80db-444b-b146-398e02df7830" transform="translate(113.84 135.98)">El <tspan class="604aa4aa-6515-4d4f-877b-6af0e67fd22f" x="43.82" y="0">79% </tspan><tspan x="138.21" y="0">de los 4,7 millones de palestinos vive en el extranjero</tspan></text></svg>