<svg id="dd999893-2bce-4378-a5ee-a1f8c3798e27" data-name="Capa 1" xmlns="http://www.w3.org/2000/svg" viewBox="0 0 624 615"><defs><style>.\37 72b5fc5-82e8-464e-bbaf-e2e80b2fc5fc{font-size:14px;font-family:OpenSans, Open Sans;}.\37 72b5fc5-82e8-464e-bbaf-e2e80b2fc5fc,.deeee17b-048e-4329-ad18-1d69658d4d30{fill:#757575;}.\39 863e9a4-7c8e-45aa-819b-b71cd71c464f{isolation:isolate;}.\32 0abf4c5-7d9a-4707-9b9b-f52e81a3ff06{fill:#323232;}.d2b5684a-f830-43e2-b33b-83b935533a45,.ecbb7486-890f-416c-b707-2af92386c8be{fill:#9bd646;}.\37 c2cd4fd-1f2f-4b16-b5a4-8403dddf7f8d,.ecbb7486-890f-416c-b707-2af92386c8be{opacity:0.6;}.\35 55eb53d-ac8e-44ed-b439-8b48d82cb4e9{fill:#d1d1d1;stroke:#ccc;}</style></defs><title>2018.07_Rusia_ras</title><text class="772b5fc5-82e8-464e-bbaf-e2e80b2fc5fc" transform="translate(5.28 583.67)">1960</text><path class="deeee17b-048e-4329-ad18-1d69658d4d30" d="M10.32,609.17H9.16v-10h5.57v1H10.32v3.66h4.14v1H10.32Z"/><path class="deeee17b-048e-4329-ad18-1d69658d4d30" d="M17.28,601.68v4.86a2,2,0,0,0,.42,1.37,1.7,1.7,0,0,0,1.31.45,2.13,2.13,0,0,0,1.72-.64,3.24,3.24,0,0,0,.54-2.1v-3.94H22.4v7.49h-.94l-.16-1h-.06a2.26,2.26,0,0,1-1,.85,3.25,3.25,0,0,1-1.41.29,2.87,2.87,0,0,1-2-.65,2.76,2.76,0,0,1-.68-2.08v-4.9Z"/><path class="deeee17b-048e-4329-ad18-1d69658d4d30" d="M28,609.31a3.44,3.44,0,0,1-2.62-1,3.92,3.92,0,0,1-1-2.81,4.34,4.34,0,0,1,.89-2.88,3,3,0,0,1,2.4-1.07,2.83,2.83,0,0,1,2.23.93,3.55,3.55,0,0,1,.82,2.44v.72H25.56a3,3,0,0,0,.67,2,2.3,2.3,0,0,0,1.78.68,6,6,0,0,0,2.39-.51v1a6,6,0,0,1-1.14.37A6.32,6.32,0,0,1,28,609.31Zm-.31-6.82a1.85,1.85,0,0,0-1.44.59,2.71,2.71,0,0,0-.63,1.63h3.92a2.49,2.49,0,0,0-.48-1.64A1.68,1.68,0,0,0,27.66,602.49Z"/><path class="deeee17b-048e-4329-ad18-1d69658d4d30" d="M37.78,609.17v-4.85a2,2,0,0,0-.42-1.37,1.7,1.7,0,0,0-1.31-.45,2.15,2.15,0,0,0-1.72.64,3.21,3.21,0,0,0-.55,2.1v3.93H32.66v-7.49h.92l.18,1h.05a2.31,2.31,0,0,1,1-.86,3.17,3.17,0,0,1,1.4-.3,2.85,2.85,0,0,1,2,.65,2.78,2.78,0,0,1,.68,2.09v4.89Z"/><path class="deeee17b-048e-4329-ad18-1d69658d4d30" d="M43.67,608.37a3.75,3.75,0,0,0,.58,0l.44-.09v.87a2,2,0,0,1-.54.15,4,4,0,0,1-.65.06q-2.17,0-2.17-2.29v-4.46H40.26V602l1.07-.47.48-1.6h.66v1.74h2.17v.88H42.47V607a1.52,1.52,0,0,0,.32,1A1.12,1.12,0,0,0,43.67,608.37Z"/><path class="deeee17b-048e-4329-ad18-1d69658d4d30" d="M49.36,609.31a3.44,3.44,0,0,1-2.62-1,3.92,3.92,0,0,1-1-2.81,4.34,4.34,0,0,1,.89-2.88,3,3,0,0,1,2.4-1.07,2.83,2.83,0,0,1,2.23.93,3.55,3.55,0,0,1,.82,2.44v.72H47a3,3,0,0,0,.67,2,2.3,2.3,0,0,0,1.78.68,6,6,0,0,0,2.39-.51v1a6,6,0,0,1-1.14.37A6.32,6.32,0,0,1,49.36,609.31ZM49,602.49a1.85,1.85,0,0,0-1.44.59,2.71,2.71,0,0,0-.63,1.63H50.9a2.49,2.49,0,0,0-.48-1.64A1.68,1.68,0,0,0,49,602.49Z"/><path class="deeee17b-048e-4329-ad18-1d69658d4d30" d="M53.88,602.41q0-.92.81-.92t.84.92a1,1,0,0,1-.23.68.9.9,0,0,1-1.19,0A.94.94,0,0,1,53.88,602.41Zm0,6a1,1,0,0,1,.21-.69.75.75,0,0,1,.6-.24.81.81,0,0,1,.62.24,1,1,0,0,1,.22.69,1,1,0,0,1-.23.68.9.9,0,0,1-1.19,0A.93.93,0,0,1,53.88,608.45Z"/><path class="deeee17b-048e-4329-ad18-1d69658d4d30" d="M61.58,599.18H64.4a5.33,5.33,0,0,1,2.88.59,2.1,2.1,0,0,1,.89,1.88,2.17,2.17,0,0,1-.5,1.47,2.39,2.39,0,0,1-1.45.75v.07q2.28.39,2.28,2.39a2.57,2.57,0,0,1-.91,2.09,3.86,3.86,0,0,1-2.53.75H61.58Zm1.16,4.28h1.91a3.11,3.11,0,0,0,1.77-.39,1.49,1.49,0,0,0,.54-1.3,1.32,1.32,0,0,0-.6-1.21,3.76,3.76,0,0,0-1.91-.37H62.74Zm0,1v3.74h2.08a3,3,0,0,0,1.82-.47,1.73,1.73,0,0,0,.61-1.47,1.55,1.55,0,0,0-.63-1.37,3.34,3.34,0,0,0-1.9-.44Z"/><path class="deeee17b-048e-4329-ad18-1d69658d4d30" d="M75.09,609.17l-.23-1.07h-.05a3.14,3.14,0,0,1-1.12,1,3.4,3.4,0,0,1-1.39.25,2.5,2.5,0,0,1-1.75-.57,2.1,2.1,0,0,1-.63-1.63q0-2.27,3.63-2.38l1.27,0v-.46a1.9,1.9,0,0,0-.38-1.3,1.56,1.56,0,0,0-1.21-.42,4.94,4.94,0,0,0-2.12.57l-.35-.87a5.36,5.36,0,0,1,1.21-.47,5.24,5.24,0,0,1,1.32-.17,2.85,2.85,0,0,1,2,.59,2.48,2.48,0,0,1,.65,1.91v5.11Zm-2.56-.8a2.3,2.3,0,0,0,1.66-.58,2.15,2.15,0,0,0,.6-1.63v-.68l-1.13,0a4.14,4.14,0,0,0-2,.42,1.27,1.27,0,0,0-.6,1.16,1.17,1.17,0,0,0,.37.94A1.55,1.55,0,0,0,72.52,608.37Z"/><path class="deeee17b-048e-4329-ad18-1d69658d4d30" d="M83.39,609.17v-4.85A2,2,0,0,0,83,603a1.7,1.7,0,0,0-1.31-.45,2.15,2.15,0,0,0-1.72.64,3.21,3.21,0,0,0-.55,2.1v3.93H78.27v-7.49h.92l.18,1h.05a2.31,2.31,0,0,1,1-.86,3.17,3.17,0,0,1,1.4-.3,2.85,2.85,0,0,1,2,.65,2.78,2.78,0,0,1,.68,2.09v4.89Z"/><path class="deeee17b-048e-4329-ad18-1d69658d4d30" d="M89.85,609.31a3.2,3.2,0,0,1-2.52-1,4.12,4.12,0,0,1-.89-2.83,4.25,4.25,0,0,1,.91-2.91,3.26,3.26,0,0,1,2.58-1,5.14,5.14,0,0,1,1.08.12,3.56,3.56,0,0,1,.85.27l-.35,1a5.32,5.32,0,0,0-.82-.25,3.7,3.7,0,0,0-.79-.1q-2.28,0-2.28,2.91a3.47,3.47,0,0,0,.56,2.12,1.94,1.94,0,0,0,1.65.74,5.05,5.05,0,0,0,1.92-.4v1A4.09,4.09,0,0,1,89.85,609.31Z"/><path class="deeee17b-048e-4329-ad18-1d69658d4d30" d="M100,605.42a4.13,4.13,0,0,1-.92,2.86,3.25,3.25,0,0,1-2.55,1,3.38,3.38,0,0,1-1.78-.47,3.11,3.11,0,0,1-1.2-1.35,4.72,4.72,0,0,1-.42-2.06,4.13,4.13,0,0,1,.92-2.85,3.24,3.24,0,0,1,2.54-1,3.17,3.17,0,0,1,2.5,1A4.11,4.11,0,0,1,100,605.42Zm-5.71,0a3.56,3.56,0,0,0,.57,2.19,2.28,2.28,0,0,0,3.38,0,3.53,3.53,0,0,0,.58-2.19,3.48,3.48,0,0,0-.58-2.17,2,2,0,0,0-1.71-.74,2,2,0,0,0-1.68.73A3.52,3.52,0,0,0,94.28,605.42Z"/><path class="deeee17b-048e-4329-ad18-1d69658d4d30" d="M110.21,609.17l-3.39-8.86h-.05q.1,1.05.1,2.5v6.36h-1.07v-10h1.75l3.17,8.24h.05l3.19-8.24h1.74v10h-1.16v-6.44q0-1.11.1-2.41h-.05l-3.42,8.85Z"/><path class="deeee17b-048e-4329-ad18-1d69658d4d30" d="M119.32,601.68v4.86a2,2,0,0,0,.42,1.37,1.7,1.7,0,0,0,1.31.45,2.13,2.13,0,0,0,1.72-.64,3.24,3.24,0,0,0,.54-2.1v-3.94h1.13v7.49h-.94l-.16-1h-.06a2.26,2.26,0,0,1-1,.85,3.25,3.25,0,0,1-1.41.29,2.87,2.87,0,0,1-2-.65,2.76,2.76,0,0,1-.68-2.08v-4.9Z"/><path class="deeee17b-048e-4329-ad18-1d69658d4d30" d="M132,609.17v-4.85a2,2,0,0,0-.42-1.37,1.7,1.7,0,0,0-1.31-.45,2.15,2.15,0,0,0-1.72.64,3.21,3.21,0,0,0-.55,2.1v3.93h-1.13v-7.49h.92l.18,1H128a2.31,2.31,0,0,1,1-.86,3.17,3.17,0,0,1,1.4-.3,2.85,2.85,0,0,1,2,.65,2.78,2.78,0,0,1,.68,2.09v4.89Z"/><path class="deeee17b-048e-4329-ad18-1d69658d4d30" d="M140.54,608.17h-.06a2.67,2.67,0,0,1-2.35,1.14,2.78,2.78,0,0,1-2.29-1,4.42,4.42,0,0,1-.82-2.86,4.5,4.5,0,0,1,.82-2.88,2.76,2.76,0,0,1,2.28-1,2.72,2.72,0,0,1,2.34,1.11h.09l0-.54,0-.53v-3h1.13v10.64h-.92Zm-2.27.19a2.07,2.07,0,0,0,1.69-.63,3.2,3.2,0,0,0,.52-2v-.24a3.76,3.76,0,0,0-.53-2.27,2,2,0,0,0-1.69-.68,1.74,1.74,0,0,0-1.53.78,3.86,3.86,0,0,0-.53,2.19,3.7,3.7,0,0,0,.53,2.17A1.78,1.78,0,0,0,138.27,608.36Z"/><path class="deeee17b-048e-4329-ad18-1d69658d4d30" d="M143.93,599.65a.76.76,0,0,1,.19-.57.71.71,0,0,1,1,0,.74.74,0,0,1,.2.57.75.75,0,0,1-.2.57.66.66,0,0,1-.47.19.66.66,0,0,1-.48-.19A.77.77,0,0,1,143.93,599.65Zm1.23,9.52H144v-7.49h1.13Z"/><path class="deeee17b-048e-4329-ad18-1d69658d4d30" d="M152.17,609.17l-.23-1.07h-.05a3.14,3.14,0,0,1-1.12,1,3.4,3.4,0,0,1-1.39.25,2.5,2.5,0,0,1-1.75-.57,2.1,2.1,0,0,1-.63-1.63q0-2.27,3.63-2.38l1.27,0v-.46a1.9,1.9,0,0,0-.38-1.3,1.56,1.56,0,0,0-1.21-.42,4.94,4.94,0,0,0-2.12.57l-.35-.87a5.36,5.36,0,0,1,1.21-.47,5.24,5.24,0,0,1,1.32-.17,2.85,2.85,0,0,1,2,.59,2.48,2.48,0,0,1,.65,1.91v5.11Zm-2.56-.8a2.3,2.3,0,0,0,1.66-.58,2.15,2.15,0,0,0,.6-1.63v-.68l-1.13,0a4.14,4.14,0,0,0-2,.42,1.27,1.27,0,0,0-.6,1.16,1.17,1.17,0,0,0,.37.94A1.55,1.55,0,0,0,149.61,608.37Z"/><path class="deeee17b-048e-4329-ad18-1d69658d4d30" d="M156.48,609.17h-1.13V598.54h1.13Z"/><path class="deeee17b-048e-4329-ad18-1d69658d4d30" d="M503.16,609.17v-10h1.16v8.94h4.41v1.05Z"/><path class="deeee17b-048e-4329-ad18-1d69658d4d30" d="M516.7,609.17,515.46,606h-4l-1.23,3.18H509l4-10h1l3.93,10Zm-1.61-4.22-1.16-3.1q-.23-.59-.46-1.44a12.9,12.9,0,0,1-.43,1.44l-1.18,3.1Z"/><path class="deeee17b-048e-4329-ad18-1d69658d4d30" d="M528.63,599.18h1.25l-3.6,10h-1.15l-3.58-10h1.23l2.3,6.47a18.14,18.14,0,0,1,.63,2.17,18,18,0,0,1,.64-2.21Z"/><path class="deeee17b-048e-4329-ad18-1d69658d4d30" d="M537.53,609.17,536.29,606h-4l-1.23,3.18h-1.18l4-10h1l3.93,10Zm-1.61-4.22-1.16-3.1q-.23-.59-.46-1.44a12.9,12.9,0,0,1-.43,1.44l-1.18,3.1Z"/><path class="deeee17b-048e-4329-ad18-1d69658d4d30" d="M547.92,609.17h-1.33l-5.46-8.39h-.05q.11,1.48.11,2.71v5.68h-1.07v-10h1.31l5.45,8.35h.05c0-.12,0-.52-.06-1.19s0-1.15,0-1.43v-5.74h1.09Z"/><path class="deeee17b-048e-4329-ad18-1d69658d4d30" d="M555.06,603.94h3.4v4.86a10.91,10.91,0,0,1-1.61.38,12.24,12.24,0,0,1-1.9.13,4.61,4.61,0,0,1-3.53-1.35,5.32,5.32,0,0,1-1.26-3.78,5.71,5.71,0,0,1,.63-2.73,4.23,4.23,0,0,1,1.8-1.79,5.84,5.84,0,0,1,2.75-.62,7.54,7.54,0,0,1,3,.59l-.45,1a6.66,6.66,0,0,0-2.6-.57,3.73,3.73,0,0,0-2.85,1.09,4.22,4.22,0,0,0-1,3,4.31,4.31,0,0,0,1,3.07,3.81,3.81,0,0,0,2.9,1,8.64,8.64,0,0,0,2-.24V605h-2.24Z"/><path class="deeee17b-048e-4329-ad18-1d69658d4d30" d="M568.4,599.18v6.47a3.52,3.52,0,0,1-1,2.69,4,4,0,0,1-2.84,1,3.79,3.79,0,0,1-2.79-1,3.65,3.65,0,0,1-1-2.71v-6.44h1.16v6.52a2.57,2.57,0,0,0,.68,1.92,2.76,2.76,0,0,0,2,.67,2.66,2.66,0,0,0,1.95-.67,2.59,2.59,0,0,0,.68-1.93v-6.51Z"/><path class="deeee17b-048e-4329-ad18-1d69658d4d30" d="M577.33,609.17,576.09,606h-4l-1.23,3.18h-1.18l4-10h1l3.93,10Zm-1.61-4.22-1.16-3.1q-.23-.59-.46-1.44a12.9,12.9,0,0,1-.43,1.44l-1.18,3.1Z"/><path class="deeee17b-048e-4329-ad18-1d69658d4d30" d="M581.07,605v4.16h-1.16v-10h2.74a4.31,4.31,0,0,1,2.72.7,2.55,2.55,0,0,1,.88,2.12,2.65,2.65,0,0,1-2,2.68l2.71,4.49h-1.37L583.16,605Zm0-1h1.59a2.75,2.75,0,0,0,1.8-.49,1.82,1.82,0,0,0,.57-1.47,1.67,1.67,0,0,0-.58-1.43,3.17,3.17,0,0,0-1.88-.44h-1.51Z"/><path class="deeee17b-048e-4329-ad18-1d69658d4d30" d="M596.54,604.08a5,5,0,0,1-1.34,3.78,5.31,5.31,0,0,1-3.87,1.31h-2.77v-10h3.06a4.49,4.49,0,0,1,4.92,4.9Zm-1.23,0a4,4,0,0,0-1-2.95,3.93,3.93,0,0,0-2.92-1h-1.69v8h1.42a4.3,4.3,0,0,0,3.12-1A4,4,0,0,0,595.31,604.12Z"/><path class="deeee17b-048e-4329-ad18-1d69658d4d30" d="M598.77,609.17v-10h1.16v10Z"/><path class="deeee17b-048e-4329-ad18-1d69658d4d30" d="M609,609.17,607.71,606h-4l-1.23,3.18H601.3l4-10h1l3.93,10Zm-1.61-4.22-1.16-3.1q-.23-.59-.46-1.44a12.9,12.9,0,0,1-.43,1.44l-1.18,3.1Z"/><text class="772b5fc5-82e8-464e-bbaf-e2e80b2fc5fc" transform="translate(48.67 583.67)">1965</text><text class="772b5fc5-82e8-464e-bbaf-e2e80b2fc5fc" transform="translate(98.06 582.67)">1970</text><text class="772b5fc5-82e8-464e-bbaf-e2e80b2fc5fc" transform="translate(150.46 582.67)">1975</text><text class="772b5fc5-82e8-464e-bbaf-e2e80b2fc5fc" transform="translate(200.85 582.67)">1980</text><text class="772b5fc5-82e8-464e-bbaf-e2e80b2fc5fc" transform="translate(251.93 582.67)">1985</text><text class="772b5fc5-82e8-464e-bbaf-e2e80b2fc5fc" transform="translate(304.63 582.67)">1990</text><text class="772b5fc5-82e8-464e-bbaf-e2e80b2fc5fc" transform="translate(356.34 582.34)">1995</text><text class="772b5fc5-82e8-464e-bbaf-e2e80b2fc5fc" transform="translate(407.2 583.67)">2000</text><text class="772b5fc5-82e8-464e-bbaf-e2e80b2fc5fc" transform="translate(458.59 583.67)">2005</text><text class="772b5fc5-82e8-464e-bbaf-e2e80b2fc5fc" transform="translate(507.98 582.67)">2010</text><text class="772b5fc5-82e8-464e-bbaf-e2e80b2fc5fc" transform="translate(559.87 581.17)">2015</text><g class="9863e9a4-7c8e-45aa-819b-b71cd71c464f"><path class="deeee17b-048e-4329-ad18-1d69658d4d30" d="M600.63,45.67h-6.57v-1L596.69,42a19.38,19.38,0,0,0,1.59-1.74,4.46,4.46,0,0,0,.57-1,2.89,2.89,0,0,0,.19-1.06,1.68,1.68,0,0,0-.49-1.27,1.86,1.86,0,0,0-1.35-.47,3.38,3.38,0,0,0-1.18.21,4.69,4.69,0,0,0-1.24.75l-.6-.77a4.61,4.61,0,0,1,3-1.15,3.18,3.18,0,0,1,2.21.72,2.48,2.48,0,0,1,.8,1.94,3.74,3.74,0,0,1-.53,1.88,11.92,11.92,0,0,1-2,2.35l-2.19,2.14v.05h5.14Z"/><path class="deeee17b-048e-4329-ad18-1d69658d4d30" d="M603.77,44l.1.16q-.18.68-.51,1.59t-.7,1.69h-.85q.18-.71.41-1.76t.31-1.67Z"/><path class="deeee17b-048e-4329-ad18-1d69658d4d30" d="M608.62,39.57a3.68,3.68,0,0,1,2.49.78,2.69,2.69,0,0,1,.91,2.14,3.1,3.1,0,0,1-1,2.43,4,4,0,0,1-2.72.88,5,5,0,0,1-2.58-.54V44.17a3.9,3.9,0,0,0,1.19.48,5.82,5.82,0,0,0,1.4.17,2.8,2.8,0,0,0,1.87-.57,2,2,0,0,0,.67-1.64q0-2.09-2.56-2.09a10.24,10.24,0,0,0-1.74.2l-.59-.38.38-4.68h5v1h-4l-.25,3A8,8,0,0,1,608.62,39.57Z"/></g><path class="deeee17b-048e-4329-ad18-1d69658d4d30" d="M597.76,410.17h-1.11V403q0-.89.05-1.68l-.32.3L594.76,403l-.6-.78,2.65-2h1Z"/><path class="deeee17b-048e-4329-ad18-1d69658d4d30" d="M604.69,404.07a3.68,3.68,0,0,1,2.49.78,2.69,2.69,0,0,1,.91,2.14,3.1,3.1,0,0,1-1,2.43,4,4,0,0,1-2.72.88,5,5,0,0,1-2.58-.54v-1.09a3.9,3.9,0,0,0,1.19.48,5.82,5.82,0,0,0,1.4.17,2.8,2.8,0,0,0,1.87-.57,2,2,0,0,0,.67-1.64q0-2.09-2.56-2.09a10.24,10.24,0,0,0-1.74.2l-.59-.38.38-4.68h5v1h-4l-.25,3A8,8,0,0,1,604.69,404.07Z"/><path class="deeee17b-048e-4329-ad18-1d69658d4d30" d="M616.19,405.16a7.29,7.29,0,0,1-.82,3.87,3,3,0,0,1-5,0,7.16,7.16,0,0,1-.84-3.84,7.3,7.3,0,0,1,.81-3.88,3,3,0,0,1,5,.05A7.12,7.12,0,0,1,616.19,405.16Zm-5.46,0a7.31,7.31,0,0,0,.51,3.17,1.84,1.84,0,0,0,3.28,0,10.06,10.06,0,0,0,0-6.32,1.85,1.85,0,0,0-3.28,0A7.27,7.27,0,0,0,610.73,405.16Z"/><path class="deeee17b-048e-4329-ad18-1d69658d4d30" d="M593.17,365.4a7.07,7.07,0,0,1,1.15-4.41,4,4,0,0,1,3.39-1.46,4.5,4.5,0,0,1,1.22.13v1a3.88,3.88,0,0,0-1.2-.17,3,3,0,0,0-2.45,1,5.13,5.13,0,0,0-.93,3.15h.08a2.62,2.62,0,0,1,2.38-1.18,2.79,2.79,0,0,1,2.12.81,3.07,3.07,0,0,1,.78,2.21,3.41,3.41,0,0,1-.85,2.45,3,3,0,0,1-2.3.89,3,3,0,0,1-2.46-1.17A5.15,5.15,0,0,1,593.17,365.4Zm3.36,3.45a1.9,1.9,0,0,0,1.51-.61,2.6,2.6,0,0,0,.54-1.77,2.28,2.28,0,0,0-.5-1.56,1.88,1.88,0,0,0-1.49-.57,2.51,2.51,0,0,0-1.13.25,2.1,2.1,0,0,0-.82.7,1.61,1.61,0,0,0-.3.92,3.16,3.16,0,0,0,.27,1.31,2.31,2.31,0,0,0,.78,1A1.93,1.93,0,0,0,596.53,368.84Z"/><path class="deeee17b-048e-4329-ad18-1d69658d4d30" d="M604.19,363.57a3.68,3.68,0,0,1,2.49.78,2.69,2.69,0,0,1,.91,2.14,3.1,3.1,0,0,1-1,2.43,4,4,0,0,1-2.72.88,5,5,0,0,1-2.58-.54v-1.09a3.9,3.9,0,0,0,1.19.48,5.82,5.82,0,0,0,1.4.17,2.8,2.8,0,0,0,1.87-.57,2,2,0,0,0,.67-1.64q0-2.09-2.56-2.09a10.24,10.24,0,0,0-1.74.2l-.59-.38.38-4.68h5v1h-4l-.25,3A8,8,0,0,1,604.19,363.57Z"/><path class="deeee17b-048e-4329-ad18-1d69658d4d30" d="M597.32,231.67l4.14-8.95H596v-1h6.65v.91l-4.09,9.08Z"/><path class="deeee17b-048e-4329-ad18-1d69658d4d30" d="M610.63,231.67h-6.57v-1l2.63-2.65a19.38,19.38,0,0,0,1.59-1.74,4.46,4.46,0,0,0,.57-1,2.89,2.89,0,0,0,.19-1.06,1.68,1.68,0,0,0-.49-1.27,1.86,1.86,0,0,0-1.35-.47,3.38,3.38,0,0,0-1.18.21,4.69,4.69,0,0,0-1.24.75l-.6-.77a4.61,4.61,0,0,1,3-1.15,3.18,3.18,0,0,1,2.21.72,2.48,2.48,0,0,1,.8,1.94,3.74,3.74,0,0,1-.53,1.88,11.92,11.92,0,0,1-2,2.35l-2.19,2.14v.05h5.14Z"/><path class="deeee17b-048e-4329-ad18-1d69658d4d30" d="M601.18,552.16a7.29,7.29,0,0,1-.82,3.87,3,3,0,0,1-5,0,7.16,7.16,0,0,1-.84-3.84,7.3,7.3,0,0,1,.81-3.88,3,3,0,0,1,5,.05A7.12,7.12,0,0,1,601.18,552.16Zm-5.46,0a7.31,7.31,0,0,0,.51,3.17,1.84,1.84,0,0,0,3.28,0,10.06,10.06,0,0,0,0-6.32,1.85,1.85,0,0,0-3.28,0A7.27,7.27,0,0,0,595.72,552.16Z"/><path class="deeee17b-048e-4329-ad18-1d69658d4d30" d="M597.68,504.07a3.68,3.68,0,0,1,2.49.78,2.69,2.69,0,0,1,.91,2.14,3.1,3.1,0,0,1-1,2.43,4,4,0,0,1-2.72.88,5,5,0,0,1-2.58-.54v-1.09a3.9,3.9,0,0,0,1.19.48,5.82,5.82,0,0,0,1.4.17,2.8,2.8,0,0,0,1.87-.57,2,2,0,0,0,.67-1.64q0-2.09-2.56-2.09a10.24,10.24,0,0,0-1.74.2l-.59-.38.38-4.68h5v1h-4l-.25,3A8,8,0,0,1,597.68,504.07Z"/><path class="deeee17b-048e-4329-ad18-1d69658d4d30" d="M609.19,505.16a7.29,7.29,0,0,1-.82,3.87,3,3,0,0,1-5,0,7.16,7.16,0,0,1-.84-3.84,7.3,7.3,0,0,1,.81-3.88,3,3,0,0,1,5,.05A7.12,7.12,0,0,1,609.19,505.16Zm-5.46,0a7.31,7.31,0,0,0,.51,3.17,1.84,1.84,0,0,0,3.28,0,10.06,10.06,0,0,0,0-6.32,1.85,1.85,0,0,0-3.28,0A7.27,7.27,0,0,0,603.72,505.16Z"/><path class="deeee17b-048e-4329-ad18-1d69658d4d30" d="M597.76,462.17h-1.11V455q0-.89.05-1.68l-.32.3L594.76,455l-.6-.78,2.65-2h1Z"/><path class="deeee17b-048e-4329-ad18-1d69658d4d30" d="M608.19,457.16a7.29,7.29,0,0,1-.82,3.87,3,3,0,0,1-5,0,7.16,7.16,0,0,1-.84-3.84,7.3,7.3,0,0,1,.81-3.88,3,3,0,0,1,5,.05A7.12,7.12,0,0,1,608.19,457.16Zm-5.46,0a7.31,7.31,0,0,0,.51,3.17,1.84,1.84,0,0,0,3.28,0,10.06,10.06,0,0,0,0-6.32,1.85,1.85,0,0,0-3.28,0A7.27,7.27,0,0,0,602.72,457.16Z"/><path class="deeee17b-048e-4329-ad18-1d69658d4d30" d="M616.19,457.16a7.29,7.29,0,0,1-.82,3.87,3,3,0,0,1-5,0,7.16,7.16,0,0,1-.84-3.84,7.3,7.3,0,0,1,.81-3.88,3,3,0,0,1,5,.05A7.12,7.12,0,0,1,616.19,457.16Zm-5.46,0a7.31,7.31,0,0,0,.51,3.17,1.84,1.84,0,0,0,3.28,0,10.06,10.06,0,0,0,0-6.32,1.85,1.85,0,0,0-3.28,0A7.27,7.27,0,0,0,610.73,457.16Z"/><path class="deeee17b-048e-4329-ad18-1d69658d4d30" d="M598.25,141.38h-1.11v-7.12q0-.89.05-1.68l-.32.3-1.63,1.33-.6-.78,2.65-2h1Z"/><path class="deeee17b-048e-4329-ad18-1d69658d4d30" d="M602.63,83.67h-6.57v-1L598.69,80a19.38,19.38,0,0,0,1.59-1.74,4.46,4.46,0,0,0,.57-1,2.89,2.89,0,0,0,.19-1.06,1.68,1.68,0,0,0-.49-1.27,1.86,1.86,0,0,0-1.35-.47,3.38,3.38,0,0,0-1.18.21,4.69,4.69,0,0,0-1.24.75l-.6-.77a4.61,4.61,0,0,1,3-1.15,3.18,3.18,0,0,1,2.21.72,2.48,2.48,0,0,1,.8,1.94,3.74,3.74,0,0,1-.53,1.88,11.92,11.92,0,0,1-2,2.35l-2.19,2.14v.05h5.14Z"/><path class="deeee17b-048e-4329-ad18-1d69658d4d30" d="M602.68,198.66a7.29,7.29,0,0,1-.82,3.87,3,3,0,0,1-5,0,7.16,7.16,0,0,1-.84-3.84,7.3,7.3,0,0,1,.81-3.88,3,3,0,0,1,5,.05A7.12,7.12,0,0,1,602.68,198.66Zm-5.46,0a7.31,7.31,0,0,0,.51,3.17,1.84,1.84,0,0,0,3.28,0,10.06,10.06,0,0,0,0-6.32,1.85,1.85,0,0,0-3.28,0A7.27,7.27,0,0,0,597.22,198.66Z"/><g class="9863e9a4-7c8e-45aa-819b-b71cd71c464f"><path class="20abf4c5-7d9a-4707-9b9b-f52e81a3ff06" d="M25.27,48.4a3.39,3.39,0,0,1-1.17,2.78,5.12,5.12,0,0,1-3.34,1H19.58v4.33H17.71V44.9H21a4.93,4.93,0,0,1,3.21.89A3.2,3.2,0,0,1,25.27,48.4Zm-5.7,2.15h1A3.52,3.52,0,0,0,22.68,50a1.85,1.85,0,0,0,.67-1.58,1.81,1.81,0,0,0-.6-1.49,3,3,0,0,0-1.87-.49h-1.3Z"/><path class="20abf4c5-7d9a-4707-9b9b-f52e81a3ff06" d="M27.55,56.46V44.9h1.87V56.46Z"/><path class="20abf4c5-7d9a-4707-9b9b-f52e81a3ff06" d="M32.43,44.9h3.39a6.37,6.37,0,0,1,3.41.7,2.45,2.45,0,0,1,1.05,2.2,2.69,2.69,0,0,1-.52,1.69,2.3,2.3,0,0,1-1.48.85v.08a2.94,2.94,0,0,1,1.77.91,2.76,2.76,0,0,1,.57,1.83,3,3,0,0,1-1.07,2.44,4.58,4.58,0,0,1-3,.88H32.43Zm1.87,4.78h1.8a3,3,0,0,0,1.71-.38A1.45,1.45,0,0,0,38.35,48a1.29,1.29,0,0,0-.58-1.18,3.6,3.6,0,0,0-1.85-.36H34.3Zm0,1.53v3.66h2a2.89,2.89,0,0,0,1.77-.46,1.69,1.69,0,0,0,.6-1.44A1.53,1.53,0,0,0,38,51.65a3.2,3.2,0,0,0-1.85-.44Z"/></g><path class="ecbb7486-890f-416c-b707-2af92386c8be" d="M313,170.23c4.94,0,4.94-.68,9.87-.68s4.94-.08,9.87-.08,4.94,3.8,9.87,3.8,4.94,1.66,9.87,1.66,4.94,2.64,9.87,2.64,4.94,0,9.87,0,4.94.25,9.87.25,4.94-.87,9.87-.87,4.94,8.82,9.87,8.82,4.94,4.94,9.87,4.94,4.94-4.2,9.87-4.2,4.94-3.09,9.87-3.09,4.94-2.54,9.87-2.54,4.94-5.61,9.87-5.61,4.94-10.58,9.87-10.58,4.94-11.4,9.87-11.4,4.94-14.88,9.87-14.88,4.94-20.4,9.87-20.4,4.94-23.79,9.87-23.79,4.94,28.86,9.87,28.86,4.94-19.91,9.87-19.91,4.94-34.7,9.87-34.7S535.18,58,540.11,58,545,52.28,550,52.28s4.94,15.38,9.87,15.38,4.94,45.8,9.87,45.8,4.94,5.51,9.87,5.51,4.94-19.29,9.87-19.29V203.59H313Z"/><g class="9863e9a4-7c8e-45aa-819b-b71cd71c464f"><path class="deeee17b-048e-4329-ad18-1d69658d4d30" d="M467.57,191.3h2.82a5.33,5.33,0,0,1,2.88.59,2.1,2.1,0,0,1,.89,1.88,2.18,2.18,0,0,1-.5,1.47,2.39,2.39,0,0,1-1.45.75v.07q2.28.39,2.28,2.39a2.57,2.57,0,0,1-.91,2.09,3.85,3.85,0,0,1-2.53.75h-3.49Zm1.16,4.28h1.91a3.11,3.11,0,0,0,1.77-.39,1.49,1.49,0,0,0,.54-1.3,1.32,1.32,0,0,0-.6-1.21,3.76,3.76,0,0,0-1.91-.37h-1.71Zm0,1v3.74h2.08a3,3,0,0,0,1.82-.47,1.73,1.73,0,0,0,.61-1.47,1.55,1.55,0,0,0-.62-1.37,3.34,3.34,0,0,0-1.9-.44Z"/><path class="deeee17b-048e-4329-ad18-1d69658d4d30" d="M476.38,191.77a.75.75,0,0,1,.19-.57.71.71,0,0,1,1,0,.74.74,0,0,1,.2.57.76.76,0,0,1-.2.57.7.7,0,0,1-1,0A.77.77,0,0,1,476.38,191.77Zm1.23,9.52h-1.13V193.8h1.13Z"/><path class="deeee17b-048e-4329-ad18-1d69658d4d30" d="M481.15,201.29H480V190.66h1.13Z"/><path class="deeee17b-048e-4329-ad18-1d69658d4d30" d="M484.69,201.29h-1.13V190.66h1.13Z"/><path class="deeee17b-048e-4329-ad18-1d69658d4d30" d="M493.56,197.54a4.13,4.13,0,0,1-.92,2.86,3.25,3.25,0,0,1-2.55,1,3.38,3.38,0,0,1-1.78-.47,3.11,3.11,0,0,1-1.2-1.35,4.72,4.72,0,0,1-.42-2.06,4.13,4.13,0,0,1,.92-2.85,3.24,3.24,0,0,1,2.54-1,3.17,3.17,0,0,1,2.5,1A4.12,4.12,0,0,1,493.56,197.54Zm-5.71,0a3.56,3.56,0,0,0,.57,2.19,2.28,2.28,0,0,0,3.38,0,3.53,3.53,0,0,0,.58-2.19,3.48,3.48,0,0,0-.58-2.17,2,2,0,0,0-1.71-.74,2,2,0,0,0-1.68.73A3.52,3.52,0,0,0,487.86,197.54Z"/><path class="deeee17b-048e-4329-ad18-1d69658d4d30" d="M500.68,201.29v-4.85a2,2,0,0,0-.42-1.37,1.7,1.7,0,0,0-1.31-.45,2.15,2.15,0,0,0-1.72.64,3.21,3.21,0,0,0-.55,2.1v3.93h-1.13V193.8h.92l.18,1h.05a2.31,2.31,0,0,1,1-.86,3.17,3.17,0,0,1,1.4-.3,2.85,2.85,0,0,1,2,.65,2.78,2.78,0,0,1,.68,2.09v4.89Z"/><path class="deeee17b-048e-4329-ad18-1d69658d4d30" d="M507.31,201.43a3.44,3.44,0,0,1-2.62-1,3.92,3.92,0,0,1-1-2.81,4.35,4.35,0,0,1,.89-2.88,3,3,0,0,1,2.4-1.07,2.83,2.83,0,0,1,2.23.93,3.55,3.55,0,0,1,.82,2.44v.72h-5.16a3,3,0,0,0,.67,2,2.3,2.3,0,0,0,1.78.68,6,6,0,0,0,2.39-.51v1a6,6,0,0,1-1.14.37A6.33,6.33,0,0,1,507.31,201.43Zm-.31-6.82a1.86,1.86,0,0,0-1.44.59,2.71,2.71,0,0,0-.63,1.63h3.92a2.49,2.49,0,0,0-.48-1.64A1.68,1.68,0,0,0,507,194.61Z"/><path class="deeee17b-048e-4329-ad18-1d69658d4d30" d="M516.83,199.25a1.88,1.88,0,0,1-.78,1.61,3.67,3.67,0,0,1-2.19.57,4.76,4.76,0,0,1-2.32-.47v-1.05a5.58,5.58,0,0,0,1.16.43,4.85,4.85,0,0,0,1.19.16,2.7,2.7,0,0,0,1.37-.28,1,1,0,0,0,.1-1.61,6,6,0,0,0-1.48-.73,8.09,8.09,0,0,1-1.49-.68,2.06,2.06,0,0,1-.66-.66,1.73,1.73,0,0,1-.21-.88,1.68,1.68,0,0,1,.75-1.45,3.48,3.48,0,0,1,2-.53,6,6,0,0,1,2.37.49l-.4.92a5.44,5.44,0,0,0-2-.46,2.35,2.35,0,0,0-1.22.25.78.78,0,0,0-.41.7.84.84,0,0,0,.15.51,1.51,1.51,0,0,0,.5.4,10.91,10.91,0,0,0,1.31.55,4.9,4.9,0,0,1,1.8,1A1.73,1.73,0,0,1,516.83,199.25Z"/><path class="deeee17b-048e-4329-ad18-1d69658d4d30" d="M527.42,200.29h-.06a2.67,2.67,0,0,1-2.35,1.14,2.78,2.78,0,0,1-2.29-1,4.42,4.42,0,0,1-.82-2.86,4.5,4.5,0,0,1,.82-2.88,2.76,2.76,0,0,1,2.28-1,2.72,2.72,0,0,1,2.34,1.11h.09l0-.54,0-.53v-3h1.13v10.64h-.92Zm-2.27.19a2.07,2.07,0,0,0,1.69-.63,3.2,3.2,0,0,0,.52-2v-.24a3.76,3.76,0,0,0-.53-2.27,2,2,0,0,0-1.69-.68,1.74,1.74,0,0,0-1.53.78,3.85,3.85,0,0,0-.53,2.19,3.7,3.7,0,0,0,.53,2.17A1.78,1.78,0,0,0,525.15,200.48Z"/><path class="deeee17b-048e-4329-ad18-1d69658d4d30" d="M534.06,201.43a3.44,3.44,0,0,1-2.62-1,3.92,3.92,0,0,1-1-2.81,4.35,4.35,0,0,1,.89-2.88,3,3,0,0,1,2.4-1.07,2.83,2.83,0,0,1,2.23.93,3.55,3.55,0,0,1,.82,2.44v.72h-5.16a3,3,0,0,0,.67,2,2.3,2.3,0,0,0,1.78.68,6,6,0,0,0,2.39-.51v1a6,6,0,0,1-1.14.37A6.33,6.33,0,0,1,534.06,201.43Zm-.31-6.82a1.86,1.86,0,0,0-1.44.59,2.71,2.71,0,0,0-.63,1.63h3.92a2.49,2.49,0,0,0-.48-1.64A1.68,1.68,0,0,0,533.75,194.61Z"/><path class="deeee17b-048e-4329-ad18-1d69658d4d30" d="M547.49,200.29h-.06a2.67,2.67,0,0,1-2.35,1.14,2.78,2.78,0,0,1-2.29-1,4.42,4.42,0,0,1-.82-2.86,4.5,4.5,0,0,1,.82-2.88,2.76,2.76,0,0,1,2.28-1,2.72,2.72,0,0,1,2.34,1.11h.09l0-.54,0-.53v-3h1.13v10.64h-.92Zm-2.27.19a2.07,2.07,0,0,0,1.69-.63,3.2,3.2,0,0,0,.52-2v-.24a3.76,3.76,0,0,0-.53-2.27,2,2,0,0,0-1.69-.68,1.74,1.74,0,0,0-1.53.78,3.85,3.85,0,0,0-.53,2.19,3.7,3.7,0,0,0,.53,2.17A1.78,1.78,0,0,0,545.22,200.48Z"/><path class="deeee17b-048e-4329-ad18-1d69658d4d30" d="M557.43,197.54a4.13,4.13,0,0,1-.92,2.86,3.25,3.25,0,0,1-2.55,1,3.38,3.38,0,0,1-1.78-.47,3.11,3.11,0,0,1-1.2-1.35,4.72,4.72,0,0,1-.42-2.06,4.13,4.13,0,0,1,.92-2.85,3.24,3.24,0,0,1,2.54-1,3.17,3.17,0,0,1,2.5,1A4.12,4.12,0,0,1,557.43,197.54Zm-5.71,0a3.56,3.56,0,0,0,.57,2.19,2.28,2.28,0,0,0,3.38,0,3.53,3.53,0,0,0,.58-2.19,3.48,3.48,0,0,0-.58-2.17,2,2,0,0,0-1.71-.74,2,2,0,0,0-1.68.73A3.52,3.52,0,0,0,551.72,197.54Zm1.31-4.9q.33-.42.71-1a12,12,0,0,0,.6-1h1.38v.14a10.07,10.07,0,0,1-.9,1.09,10.2,10.2,0,0,1-1,1H553Z"/><path class="deeee17b-048e-4329-ad18-1d69658d4d30" d="M560.56,201.29h-1.13V190.66h1.13Z"/><path class="deeee17b-048e-4329-ad18-1d69658d4d30" d="M567.57,201.29l-.23-1.07h-.05a3.14,3.14,0,0,1-1.12,1,3.39,3.39,0,0,1-1.39.25,2.5,2.5,0,0,1-1.75-.57,2.09,2.09,0,0,1-.63-1.63q0-2.27,3.63-2.38l1.27,0v-.46a1.89,1.89,0,0,0-.38-1.3,1.55,1.55,0,0,0-1.21-.42,4.94,4.94,0,0,0-2.12.57l-.35-.87a5.35,5.35,0,0,1,1.21-.47,5.23,5.23,0,0,1,1.32-.17,2.86,2.86,0,0,1,2,.59,2.49,2.49,0,0,1,.65,1.91v5.11Zm-2.56-.8a2.31,2.31,0,0,0,1.67-.58,2.15,2.15,0,0,0,.6-1.63v-.68l-1.13,0a4.14,4.14,0,0,0-2,.42,1.27,1.27,0,0,0-.6,1.16,1.17,1.17,0,0,0,.37.94A1.55,1.55,0,0,0,565,200.49Z"/><path class="deeee17b-048e-4329-ad18-1d69658d4d30" d="M574.17,193.66a4.44,4.44,0,0,1,.9.08l-.16,1.05a3.86,3.86,0,0,0-.82-.1,2,2,0,0,0-1.55.74,2.69,2.69,0,0,0-.65,1.84v4h-1.13V193.8h.94l.13,1.39h.05a3.31,3.31,0,0,1,1-1.13A2.26,2.26,0,0,1,574.17,193.66Z"/><path class="deeee17b-048e-4329-ad18-1d69658d4d30" d="M579.63,201.43a3.44,3.44,0,0,1-2.62-1,3.92,3.92,0,0,1-1-2.81,4.35,4.35,0,0,1,.89-2.88,3,3,0,0,1,2.4-1.07,2.83,2.83,0,0,1,2.23.93,3.55,3.55,0,0,1,.82,2.44v.72h-5.16a3,3,0,0,0,.67,2,2.3,2.3,0,0,0,1.78.68,6,6,0,0,0,2.39-.51v1a6,6,0,0,1-1.14.37A6.33,6.33,0,0,1,579.63,201.43Zm-.31-6.82a1.86,1.86,0,0,0-1.44.59,2.71,2.71,0,0,0-.63,1.63h3.92a2.49,2.49,0,0,0-.48-1.64A1.68,1.68,0,0,0,579.32,194.61Z"/><path class="deeee17b-048e-4329-ad18-1d69658d4d30" d="M589.15,199.25a1.88,1.88,0,0,1-.78,1.61,3.67,3.67,0,0,1-2.19.57,4.76,4.76,0,0,1-2.32-.47v-1.05a5.58,5.58,0,0,0,1.16.43,4.85,4.85,0,0,0,1.19.16,2.7,2.7,0,0,0,1.37-.28,1,1,0,0,0,.1-1.61,6,6,0,0,0-1.48-.73,8.09,8.09,0,0,1-1.49-.68,2.06,2.06,0,0,1-.66-.66,1.73,1.73,0,0,1-.21-.88,1.68,1.68,0,0,1,.75-1.45,3.48,3.48,0,0,1,2-.53,6,6,0,0,1,2.37.49l-.4.92a5.44,5.44,0,0,0-2-.46,2.35,2.35,0,0,0-1.22.25.78.78,0,0,0-.41.7.84.84,0,0,0,.15.51,1.51,1.51,0,0,0,.5.4,10.91,10.91,0,0,0,1.31.55,4.9,4.9,0,0,1,1.8,1A1.73,1.73,0,0,1,589.15,199.25Z"/></g><path class="20abf4c5-7d9a-4707-9b9b-f52e81a3ff06" d="M15.42,21.51H7.61V7.94h7.81V10.3H10.49v3h4.59v2.36H10.49v3.5h4.94Z"/><path class="20abf4c5-7d9a-4707-9b9b-f52e81a3ff06" d="M20.5,21.51l-4-10.37h3l2,5.91a10.55,10.55,0,0,1,.42,2.12H22A9.22,9.22,0,0,1,22.4,17l2-5.91h3l-4,10.37Z"/><path class="20abf4c5-7d9a-4707-9b9b-f52e81a3ff06" d="M38.27,16.3a5.57,5.57,0,0,1-1.34,4,4.84,4.84,0,0,1-3.72,1.43A5.2,5.2,0,0,1,30.57,21a4.35,4.35,0,0,1-1.75-1.88,6.31,6.31,0,0,1-.61-2.86,5.54,5.54,0,0,1,1.33-4,4.87,4.87,0,0,1,3.73-1.41,5.24,5.24,0,0,1,2.63.65,4.34,4.34,0,0,1,1.75,1.86A6.26,6.26,0,0,1,38.27,16.3Zm-7.17,0a4.35,4.35,0,0,0,.51,2.33,1.81,1.81,0,0,0,1.65.79,1.78,1.78,0,0,0,1.63-.78,4.42,4.42,0,0,0,.5-2.33,4.29,4.29,0,0,0-.5-2.31,2.13,2.13,0,0,0-3.27,0A4.28,4.28,0,0,0,31.09,16.3Z"/><path class="20abf4c5-7d9a-4707-9b9b-f52e81a3ff06" d="M43.43,21.51H40.6V7.07h2.83Z"/><path class="20abf4c5-7d9a-4707-9b9b-f52e81a3ff06" d="M53.75,21.51l-.38-1.33h-.15a3,3,0,0,1-1.29,1.12,4.4,4.4,0,0,1-1.9.39,3.62,3.62,0,0,1-2.76-1,3.94,3.94,0,0,1-.93-2.82V11.13h2.83v6.06a2.91,2.91,0,0,0,.4,1.68,1.45,1.45,0,0,0,1.27.56,1.91,1.91,0,0,0,1.72-.79A4.92,4.92,0,0,0,53.09,16V11.13h2.83V21.51Z"/><path class="20abf4c5-7d9a-4707-9b9b-f52e81a3ff06" d="M63.1,21.69q-4.84,0-4.84-5.32a5.67,5.67,0,0,1,1.32-4,4.94,4.94,0,0,1,3.78-1.4,7.2,7.2,0,0,1,3.23.71l-.83,2.19q-.67-.27-1.24-.44a4,4,0,0,0-1.15-.17q-2.21,0-2.21,3.14t2.21,3a5,5,0,0,0,1.51-.22,5.44,5.44,0,0,0,1.39-.68v2.42a4.56,4.56,0,0,1-1.39.6A7.81,7.81,0,0,1,63.1,21.69Z"/><path class="20abf4c5-7d9a-4707-9b9b-f52e81a3ff06" d="M68.54,8.45q0-1.38,1.54-1.38t1.54,1.38a1.35,1.35,0,0,1-.39,1,1.62,1.62,0,0,1-1.15.37Q68.54,9.85,68.54,8.45Zm3,13.05H68.66V11.13h2.83Z"/><path class="20abf4c5-7d9a-4707-9b9b-f52e81a3ff06" d="M83.88,16.3a5.57,5.57,0,0,1-1.34,4,4.84,4.84,0,0,1-3.72,1.43A5.2,5.2,0,0,1,76.19,21a4.35,4.35,0,0,1-1.75-1.88,6.31,6.31,0,0,1-.61-2.86,5.54,5.54,0,0,1,1.33-4,4.87,4.87,0,0,1,3.73-1.41,5.24,5.24,0,0,1,2.63.65,4.34,4.34,0,0,1,1.75,1.86A6.26,6.26,0,0,1,83.88,16.3Zm-7.17,0a4.35,4.35,0,0,0,.51,2.33,1.81,1.81,0,0,0,1.65.79,1.78,1.78,0,0,0,1.63-.78A4.42,4.42,0,0,0,81,16.3a4.29,4.29,0,0,0-.5-2.31,2.13,2.13,0,0,0-3.27,0A4.28,4.28,0,0,0,76.71,16.3ZM77.3,10V9.74A26.11,26.11,0,0,0,79.48,7h3.17v.19q-.48.48-1.65,1.43T79.19,10Z"/><path class="20abf4c5-7d9a-4707-9b9b-f52e81a3ff06" d="M95.79,21.51H93V15.45a2.91,2.91,0,0,0-.4-1.68,1.45,1.45,0,0,0-1.27-.56,1.91,1.91,0,0,0-1.72.79A4.92,4.92,0,0,0,89,16.63v4.88H86.22V11.13h2.16l.38,1.33h.16a3,3,0,0,1,1.3-1.14,4.44,4.44,0,0,1,1.89-.39,3.63,3.63,0,0,1,2.75,1,3.93,3.93,0,0,1,.94,2.82Z"/><path class="20abf4c5-7d9a-4707-9b9b-f52e81a3ff06" d="M106.93,21.69a3.37,3.37,0,0,1-2.87-1.42,6.52,6.52,0,0,1-1-3.93,6.53,6.53,0,0,1,1.06-4A3.45,3.45,0,0,1,107,10.94a3.38,3.38,0,0,1,3,1.52h.09a11.53,11.53,0,0,1-.21-2.07V7.07h2.84V21.51h-2.17L110,20.16h-.12A3.24,3.24,0,0,1,106.93,21.69Zm1-2.25a1.92,1.92,0,0,0,1.59-.63,3.67,3.67,0,0,0,.55-2.14v-.31a4.25,4.25,0,0,0-.51-2.39,1.91,1.91,0,0,0-1.67-.72,1.66,1.66,0,0,0-1.47.8,4.29,4.29,0,0,0-.52,2.33,4.06,4.06,0,0,0,.53,2.3A1.73,1.73,0,0,0,107.92,19.44Z"/><path class="20abf4c5-7d9a-4707-9b9b-f52e81a3ff06" d="M120.36,21.69a5.35,5.35,0,0,1-3.92-1.38A5.23,5.23,0,0,1,115,16.4a5.76,5.76,0,0,1,1.3-4,4.64,4.64,0,0,1,3.6-1.42,4.57,4.57,0,0,1,3.42,1.25,4.74,4.74,0,0,1,1.22,3.46V17H117.9a2.72,2.72,0,0,0,.71,1.88,2.51,2.51,0,0,0,1.87.68,7.78,7.78,0,0,0,1.77-.19,8.86,8.86,0,0,0,1.74-.62V21a6.67,6.67,0,0,1-1.59.55A10,10,0,0,1,120.36,21.69ZM120,13a1.8,1.8,0,0,0-1.41.57,2.64,2.64,0,0,0-.58,1.62h4a2.36,2.36,0,0,0-.55-1.62A1.86,1.86,0,0,0,120,13Z"/><path class="20abf4c5-7d9a-4707-9b9b-f52e81a3ff06" d="M129.72,21.51h-2.83V7.07h2.83Z"/><path class="20abf4c5-7d9a-4707-9b9b-f52e81a3ff06" d="M147.22,12.17a4.15,4.15,0,0,1-1.37,3.35A5.85,5.85,0,0,1,142,16.68h-1.23v4.82h-2.88V7.94h4.33A5.76,5.76,0,0,1,145.93,9,3.87,3.87,0,0,1,147.22,12.17Zm-6.49,2.15h.95a3.15,3.15,0,0,0,2-.52,1.83,1.83,0,0,0,.66-1.53,1.88,1.88,0,0,0-.55-1.49A2.59,2.59,0,0,0,142,10.3h-1.31Z"/><path class="20abf4c5-7d9a-4707-9b9b-f52e81a3ff06" d="M149.78,21.51V7.94h2.88V21.51Z"/><path class="20abf4c5-7d9a-4707-9b9b-f52e81a3ff06" d="M156.07,7.94h4.22a8.13,8.13,0,0,1,4.19.82,2.86,2.86,0,0,1,1.3,2.61,3.29,3.29,0,0,1-.57,2,2.28,2.28,0,0,1-1.52.94v.09a3,3,0,0,1,1.86,1.08,3.5,3.5,0,0,1,.57,2.1,3.45,3.45,0,0,1-1.34,2.89,5.8,5.8,0,0,1-3.64,1h-5.07Zm2.88,5.37h1.67a3.05,3.05,0,0,0,1.69-.36,1.35,1.35,0,0,0,.52-1.2,1.2,1.2,0,0,0-.57-1.12,3.66,3.66,0,0,0-1.8-.34h-1.51Zm0,2.28v3.53h1.87a2.78,2.78,0,0,0,1.75-.45,1.68,1.68,0,0,0,.57-1.39q0-1.69-2.41-1.69Z"/><path class="20abf4c5-7d9a-4707-9b9b-f52e81a3ff06" d="M171.39,19.51A28.81,28.81,0,0,1,169.75,24h-2q.6-2.47.94-4.66h2.6Z"/><path class="20abf4c5-7d9a-4707-9b9b-f52e81a3ff06" d="M186.82,21.51H184V7.07h2.83Z"/><path class="20abf4c5-7d9a-4707-9b9b-f52e81a3ff06" d="M196.38,21.51l-.55-1.41h-.07a4.19,4.19,0,0,1-1.47,1.25,4.76,4.76,0,0,1-2,.35,3.18,3.18,0,0,1-2.35-.85,3.28,3.28,0,0,1-.86-2.43A2.74,2.74,0,0,1,190.26,16a6.69,6.69,0,0,1,3.48-.87l1.8-.06V14.6A1.41,1.41,0,0,0,193.93,13a7.35,7.35,0,0,0-2.92.75l-.94-1.91a8.43,8.43,0,0,1,4-.94,5,5,0,0,1,3.2.91,3.36,3.36,0,0,1,1.11,2.76v6.91Zm-.83-4.81-1.09,0a3.51,3.51,0,0,0-1.84.45,1.4,1.4,0,0,0-.6,1.24q0,1.2,1.37,1.2a2.18,2.18,0,0,0,1.57-.57,2,2,0,0,0,.59-1.5Z"/><path class="20abf4c5-7d9a-4707-9b9b-f52e81a3ff06" d="M210.9,21.69A5.35,5.35,0,0,1,207,20.31a5.23,5.23,0,0,1-1.41-3.92,5.76,5.76,0,0,1,1.3-4,4.64,4.64,0,0,1,3.6-1.42,4.57,4.57,0,0,1,3.42,1.25,4.74,4.74,0,0,1,1.22,3.46V17h-6.69a2.72,2.72,0,0,0,.71,1.88,2.51,2.51,0,0,0,1.87.68,7.78,7.78,0,0,0,1.77-.19,8.86,8.86,0,0,0,1.74-.62V21a6.67,6.67,0,0,1-1.59.55A10,10,0,0,1,210.9,21.69ZM210.5,13a1.8,1.8,0,0,0-1.41.57,2.64,2.64,0,0,0-.58,1.62h4a2.36,2.36,0,0,0-.55-1.62A1.86,1.86,0,0,0,210.5,13Z"/><path class="20abf4c5-7d9a-4707-9b9b-f52e81a3ff06" d="M224.67,18.43a2.86,2.86,0,0,1-1.11,2.43,5.48,5.48,0,0,1-3.32.83,10.37,10.37,0,0,1-1.93-.15,7.24,7.24,0,0,1-1.49-.45V18.75a9.85,9.85,0,0,0,1.78.62,7.2,7.2,0,0,0,1.74.25q1.54,0,1.54-.89a.74.74,0,0,0-.2-.54,3,3,0,0,0-.71-.47q-.5-.26-1.34-.62a8.4,8.4,0,0,1-1.76-.93,2.61,2.61,0,0,1-.82-1,3.23,3.23,0,0,1-.25-1.36,2.46,2.46,0,0,1,1.07-2.14,5.22,5.22,0,0,1,3-.76,8.63,8.63,0,0,1,3.65.82l-.85,2q-.78-.33-1.46-.55a4.58,4.58,0,0,0-1.38-.21q-1.25,0-1.25.68a.79.79,0,0,0,.4.66,10.93,10.93,0,0,0,1.77.83,8.25,8.25,0,0,1,1.78.92,2.72,2.72,0,0,1,.83,1A3,3,0,0,1,224.67,18.43Z"/><path class="20abf4c5-7d9a-4707-9b9b-f52e81a3ff06" d="M232.57,21.69a3.44,3.44,0,0,1-2.87-1.33h-.15q.15,1.3.15,1.5v4.2h-2.83V11.13h2.3l.4,1.35h.13a3.27,3.27,0,0,1,2.94-1.54,3.37,3.37,0,0,1,2.88,1.42,6.57,6.57,0,0,1,1,3.94,7.77,7.77,0,0,1-.49,2.89,4,4,0,0,1-1.39,1.86A3.55,3.55,0,0,1,232.57,21.69Zm-.83-8.49a1.79,1.79,0,0,0-1.53.65,3.7,3.7,0,0,0-.5,2.13v.31a4.37,4.37,0,0,0,.5,2.39,1.77,1.77,0,0,0,1.57.72q1.9,0,1.9-3.14a4.48,4.48,0,0,0-.47-2.3A1.6,1.6,0,0,0,231.74,13.2Z"/><path class="20abf4c5-7d9a-4707-9b9b-f52e81a3ff06" d="M243.59,21.69a5.35,5.35,0,0,1-3.92-1.38,5.23,5.23,0,0,1-1.41-3.92,5.76,5.76,0,0,1,1.3-4,4.64,4.64,0,0,1,3.6-1.42,4.57,4.57,0,0,1,3.42,1.25,4.74,4.74,0,0,1,1.22,3.46V17h-6.69a2.72,2.72,0,0,0,.71,1.88,2.51,2.51,0,0,0,1.87.68,7.78,7.78,0,0,0,1.77-.19,8.86,8.86,0,0,0,1.74-.62V21a6.67,6.67,0,0,1-1.59.55A10,10,0,0,1,243.59,21.69Zm-.4-8.74a1.8,1.8,0,0,0-1.41.57,2.64,2.64,0,0,0-.58,1.62h4a2.36,2.36,0,0,0-.55-1.62A1.86,1.86,0,0,0,243.19,13Z"/><path class="20abf4c5-7d9a-4707-9b9b-f52e81a3ff06" d="M255.91,10.94a4.57,4.57,0,0,1,1,.08l-.21,2.65a3.26,3.26,0,0,0-.83-.09,3,3,0,0,0-2.11.7,2.51,2.51,0,0,0-.76,1.95v5.28h-2.83V11.13h2.14l.42,1.74h.14a3.9,3.9,0,0,1,1.3-1.41A3.21,3.21,0,0,1,255.91,10.94Z"/><path class="20abf4c5-7d9a-4707-9b9b-f52e81a3ff06" d="M265.34,21.51l-.55-1.41h-.07a4.19,4.19,0,0,1-1.47,1.25,4.76,4.76,0,0,1-2,.35,3.18,3.18,0,0,1-2.35-.85,3.28,3.28,0,0,1-.86-2.43A2.74,2.74,0,0,1,259.22,16a6.69,6.69,0,0,1,3.48-.87l1.8-.06V14.6A1.41,1.41,0,0,0,262.89,13a7.35,7.35,0,0,0-2.92.75L259,11.86a8.43,8.43,0,0,1,4-.94,5,5,0,0,1,3.2.91,3.36,3.36,0,0,1,1.11,2.76v6.91Zm-.83-4.81-1.09,0a3.51,3.51,0,0,0-1.84.45,1.4,1.4,0,0,0-.6,1.24q0,1.2,1.37,1.2a2.18,2.18,0,0,0,1.57-.57,2,2,0,0,0,.59-1.5Z"/><path class="20abf4c5-7d9a-4707-9b9b-f52e81a3ff06" d="M279.8,21.51H277V15.45a2.91,2.91,0,0,0-.4-1.68,1.45,1.45,0,0,0-1.27-.56,1.91,1.91,0,0,0-1.72.79,4.92,4.92,0,0,0-.53,2.63v4.88h-2.83V11.13h2.16l.38,1.33h.16a3,3,0,0,1,1.3-1.14,4.44,4.44,0,0,1,1.89-.39,3.63,3.63,0,0,1,2.75,1,3.93,3.93,0,0,1,.94,2.82Z"/><path class="20abf4c5-7d9a-4707-9b9b-f52e81a3ff06" d="M289.93,21.51h-8.19V19.84l4.81-6.54H282V11.13h7.74V13l-4.68,6.37h4.84Z"/><path class="20abf4c5-7d9a-4707-9b9b-f52e81a3ff06" d="M298.57,21.51,298,20.1h-.07a4.18,4.18,0,0,1-1.47,1.25,4.76,4.76,0,0,1-2,.35,3.18,3.18,0,0,1-2.35-.85,3.28,3.28,0,0,1-.86-2.43A2.74,2.74,0,0,1,292.45,16a6.69,6.69,0,0,1,3.48-.87l1.8-.06V14.6A1.41,1.41,0,0,0,296.12,13a7.36,7.36,0,0,0-2.92.75l-.94-1.91a8.43,8.43,0,0,1,4-.94,5,5,0,0,1,3.2.91,3.36,3.36,0,0,1,1.11,2.76v6.91Zm-.83-4.81-1.09,0a3.51,3.51,0,0,0-1.84.45,1.4,1.4,0,0,0-.6,1.24q0,1.2,1.37,1.2a2.18,2.18,0,0,0,1.57-.57,2,2,0,0,0,.59-1.5Z"/><path class="20abf4c5-7d9a-4707-9b9b-f52e81a3ff06" d="M311.68,21.69a3.37,3.37,0,0,1-2.87-1.42,6.52,6.52,0,0,1-1-3.93,6.53,6.53,0,0,1,1.06-4,3.45,3.45,0,0,1,2.93-1.42,3.38,3.38,0,0,1,3,1.52h.09a11.54,11.54,0,0,1-.21-2.07V7.07h2.84V21.51h-2.17l-.55-1.35h-.12A3.24,3.24,0,0,1,311.68,21.69Zm1-2.25a1.92,1.92,0,0,0,1.59-.63,3.67,3.67,0,0,0,.55-2.14v-.31A4.25,4.25,0,0,0,314.3,14a1.91,1.91,0,0,0-1.67-.72,1.66,1.66,0,0,0-1.47.8,4.28,4.28,0,0,0-.52,2.33,4.06,4.06,0,0,0,.53,2.3A1.73,1.73,0,0,0,312.67,19.44Z"/><path class="20abf4c5-7d9a-4707-9b9b-f52e81a3ff06" d="M325.11,21.69a5.35,5.35,0,0,1-3.92-1.38,5.23,5.23,0,0,1-1.41-3.92,5.76,5.76,0,0,1,1.3-4,4.64,4.64,0,0,1,3.6-1.42,4.57,4.57,0,0,1,3.42,1.25,4.74,4.74,0,0,1,1.22,3.46V17h-6.69a2.72,2.72,0,0,0,.71,1.88,2.51,2.51,0,0,0,1.87.68,7.77,7.77,0,0,0,1.77-.19,8.84,8.84,0,0,0,1.74-.62V21a6.65,6.65,0,0,1-1.59.55A10,10,0,0,1,325.11,21.69Zm-.4-8.74a1.8,1.8,0,0,0-1.41.57,2.65,2.65,0,0,0-.58,1.62h4a2.37,2.37,0,0,0-.55-1.62A1.86,1.86,0,0,0,324.71,13Z"/><path class="20abf4c5-7d9a-4707-9b9b-f52e81a3ff06" d="M339,21.51l-4-10.37h3l2,5.91a10.55,10.55,0,0,1,.42,2.12h.06a9.27,9.27,0,0,1,.42-2.12l2-5.91h3l-4,10.37Z"/><path class="20abf4c5-7d9a-4707-9b9b-f52e81a3ff06" d="M347.27,8.45q0-1.38,1.54-1.38t1.54,1.38a1.35,1.35,0,0,1-.38,1,1.62,1.62,0,0,1-1.15.37Q347.27,9.85,347.27,8.45Zm3,13.05h-2.83V11.13h2.83Z"/><path class="20abf4c5-7d9a-4707-9b9b-f52e81a3ff06" d="M356.47,21.69a3.37,3.37,0,0,1-2.87-1.42,6.52,6.52,0,0,1-1-3.93,6.53,6.53,0,0,1,1.06-4,3.45,3.45,0,0,1,2.93-1.42,3.38,3.38,0,0,1,3,1.52h.09a11.54,11.54,0,0,1-.21-2.07V7.07h2.84V21.51h-2.17l-.55-1.35h-.12A3.24,3.24,0,0,1,356.47,21.69Zm1-2.25a1.92,1.92,0,0,0,1.59-.63,3.67,3.67,0,0,0,.55-2.14v-.31a4.25,4.25,0,0,0-.51-2.39,1.91,1.91,0,0,0-1.67-.72,1.66,1.66,0,0,0-1.47.8,4.28,4.28,0,0,0-.52,2.33,4.06,4.06,0,0,0,.53,2.3A1.73,1.73,0,0,0,357.46,19.44Z"/><path class="20abf4c5-7d9a-4707-9b9b-f52e81a3ff06" d="M371.8,21.51l-.55-1.41h-.07a4.18,4.18,0,0,1-1.47,1.25,4.76,4.76,0,0,1-2,.35,3.18,3.18,0,0,1-2.35-.85,3.28,3.28,0,0,1-.86-2.43A2.74,2.74,0,0,1,365.68,16a6.69,6.69,0,0,1,3.48-.87L371,15V14.6A1.41,1.41,0,0,0,369.35,13a7.36,7.36,0,0,0-2.92.75l-.94-1.91a8.43,8.43,0,0,1,4-.94,5,5,0,0,1,3.2.91,3.36,3.36,0,0,1,1.11,2.76v6.91ZM371,16.7l-1.09,0a3.51,3.51,0,0,0-1.84.45,1.4,1.4,0,0,0-.6,1.24q0,1.2,1.37,1.2a2.18,2.18,0,0,0,1.57-.57,2,2,0,0,0,.59-1.5Z"/><path class="20abf4c5-7d9a-4707-9b9b-f52e81a3ff06" d="M380.14,11.13h3.1l2,5.84a8.14,8.14,0,0,1,.34,1.8h.06A8,8,0,0,1,386,17l1.92-5.84h3l-4.39,11.7a5.07,5.07,0,0,1-1.72,2.43,4.35,4.35,0,0,1-2.61.81,6.58,6.58,0,0,1-1.44-.16V23.67a4.85,4.85,0,0,0,1.11.12,2,2,0,0,0,1.31-.46,3,3,0,0,0,.88-1.39l.17-.51Z"/><path class="20abf4c5-7d9a-4707-9b9b-f52e81a3ff06" d="M400.2,21.51h-2.83V7.07h2.83Z"/><path class="20abf4c5-7d9a-4707-9b9b-f52e81a3ff06" d="M409.75,21.51l-.55-1.41h-.07a4.18,4.18,0,0,1-1.47,1.25,4.76,4.76,0,0,1-2,.35,3.18,3.18,0,0,1-2.35-.85,3.28,3.28,0,0,1-.86-2.43A2.74,2.74,0,0,1,403.63,16a6.69,6.69,0,0,1,3.48-.87l1.8-.06V14.6A1.41,1.41,0,0,0,407.3,13a7.36,7.36,0,0,0-2.92.75l-.94-1.91a8.43,8.43,0,0,1,4-.94,5,5,0,0,1,3.2.91,3.36,3.36,0,0,1,1.11,2.76v6.91Zm-.83-4.81-1.09,0a3.51,3.51,0,0,0-1.84.45,1.4,1.4,0,0,0-.6,1.24q0,1.2,1.37,1.2a2.18,2.18,0,0,0,1.57-.57,2,2,0,0,0,.59-1.5Z"/><path class="20abf4c5-7d9a-4707-9b9b-f52e81a3ff06" d="M425.27,21.69a3.44,3.44,0,0,1-2.87-1.33h-.15q.15,1.3.15,1.5v4.2h-2.83V11.13h2.3l.4,1.35h.13a3.27,3.27,0,0,1,2.94-1.54,3.37,3.37,0,0,1,2.88,1.42,6.57,6.57,0,0,1,1,3.94,7.77,7.77,0,0,1-.49,2.89,4,4,0,0,1-1.39,1.86A3.55,3.55,0,0,1,425.27,21.69Zm-.83-8.49a1.79,1.79,0,0,0-1.53.65,3.7,3.7,0,0,0-.5,2.13v.31a4.37,4.37,0,0,0,.5,2.39,1.77,1.77,0,0,0,1.57.72q1.9,0,1.9-3.14a4.49,4.49,0,0,0-.47-2.3A1.6,1.6,0,0,0,424.44,13.2Z"/><path class="20abf4c5-7d9a-4707-9b9b-f52e81a3ff06" d="M441,16.3a5.57,5.57,0,0,1-1.34,4A4.84,4.84,0,0,1,436,21.69a5.2,5.2,0,0,1-2.63-.65,4.35,4.35,0,0,1-1.75-1.88A6.31,6.31,0,0,1,431,16.3a5.55,5.55,0,0,1,1.33-4A4.87,4.87,0,0,1,436,10.94a5.24,5.24,0,0,1,2.63.65,4.34,4.34,0,0,1,1.75,1.86A6.26,6.26,0,0,1,441,16.3Zm-7.17,0a4.35,4.35,0,0,0,.51,2.33,1.81,1.81,0,0,0,1.65.79,1.78,1.78,0,0,0,1.63-.78,4.42,4.42,0,0,0,.5-2.33,4.29,4.29,0,0,0-.5-2.31,2.13,2.13,0,0,0-3.27,0A4.28,4.28,0,0,0,433.85,16.3Z"/><path class="20abf4c5-7d9a-4707-9b9b-f52e81a3ff06" d="M449.13,10.94A3.36,3.36,0,0,1,452,12.37a6.58,6.58,0,0,1,1,3.93,6.46,6.46,0,0,1-1.07,4,3.74,3.74,0,0,1-5.78.08H446l-.47,1.14h-2.16V7.07h2.83v3.36q0,.64-.11,2.05h.11A3.27,3.27,0,0,1,449.13,10.94Zm-.91,2.26a1.79,1.79,0,0,0-1.53.65,3.7,3.7,0,0,0-.5,2.13v.31a4.37,4.37,0,0,0,.5,2.39,1.77,1.77,0,0,0,1.57.72,1.58,1.58,0,0,0,1.39-.8,4.34,4.34,0,0,0,.52-2.33,4.12,4.12,0,0,0-.52-2.3A1.63,1.63,0,0,0,448.22,13.2Z"/><path class="20abf4c5-7d9a-4707-9b9b-f52e81a3ff06" d="M458.22,21.51h-2.83V7.07h2.83Z"/><path class="20abf4c5-7d9a-4707-9b9b-f52e81a3ff06" d="M467.77,21.51l-.55-1.41h-.07a4.18,4.18,0,0,1-1.47,1.25,4.76,4.76,0,0,1-2,.35,3.18,3.18,0,0,1-2.35-.85,3.28,3.28,0,0,1-.86-2.43A2.74,2.74,0,0,1,461.65,16a6.69,6.69,0,0,1,3.48-.87l1.8-.06V14.6A1.41,1.41,0,0,0,465.32,13a7.36,7.36,0,0,0-2.92.75l-.94-1.91a8.43,8.43,0,0,1,4-.94,5,5,0,0,1,3.2.91,3.36,3.36,0,0,1,1.11,2.76v6.91Zm-.83-4.81-1.09,0a3.51,3.51,0,0,0-1.84.45,1.4,1.4,0,0,0-.6,1.24q0,1.2,1.37,1.2a2.18,2.18,0,0,0,1.57-.57,2,2,0,0,0,.59-1.5Z"/><path class="20abf4c5-7d9a-4707-9b9b-f52e81a3ff06" d="M476.87,21.69q-4.84,0-4.84-5.32a5.67,5.67,0,0,1,1.32-4,4.94,4.94,0,0,1,3.78-1.4,7.21,7.21,0,0,1,3.23.71l-.84,2.19q-.67-.27-1.24-.44a4,4,0,0,0-1.15-.17q-2.21,0-2.21,3.14t2.21,3a5,5,0,0,0,1.51-.22A5.44,5.44,0,0,0,480,18.5v2.42a4.56,4.56,0,0,1-1.39.6A7.81,7.81,0,0,1,476.87,21.69Z"/><path class="20abf4c5-7d9a-4707-9b9b-f52e81a3ff06" d="M482.31,8.45q0-1.38,1.54-1.38t1.54,1.38a1.35,1.35,0,0,1-.38,1,1.62,1.62,0,0,1-1.15.37Q482.31,9.85,482.31,8.45Zm3,13.05h-2.83V11.13h2.83Z"/><path class="20abf4c5-7d9a-4707-9b9b-f52e81a3ff06" d="M497.66,16.3a5.57,5.57,0,0,1-1.34,4,4.84,4.84,0,0,1-3.72,1.43A5.2,5.2,0,0,1,490,21a4.35,4.35,0,0,1-1.75-1.88,6.31,6.31,0,0,1-.61-2.86,5.55,5.55,0,0,1,1.33-4,4.87,4.87,0,0,1,3.73-1.41,5.24,5.24,0,0,1,2.63.65A4.34,4.34,0,0,1,497,13.45,6.26,6.26,0,0,1,497.66,16.3Zm-7.17,0a4.35,4.35,0,0,0,.51,2.33,1.81,1.81,0,0,0,1.65.79,1.78,1.78,0,0,0,1.63-.78,4.42,4.42,0,0,0,.5-2.33,4.29,4.29,0,0,0-.5-2.31A2.13,2.13,0,0,0,491,14,4.28,4.28,0,0,0,490.48,16.3Zm.59-6.31V9.74A26,26,0,0,0,493.26,7h3.17v.19q-.48.48-1.65,1.43T493,10Z"/><path class="20abf4c5-7d9a-4707-9b9b-f52e81a3ff06" d="M509.57,21.51h-2.83V15.45a2.91,2.91,0,0,0-.4-1.68,1.45,1.45,0,0,0-1.27-.56,1.91,1.91,0,0,0-1.72.79,4.92,4.92,0,0,0-.53,2.63v4.88H500V11.13h2.16l.38,1.33h.16a3,3,0,0,1,1.3-1.14,4.44,4.44,0,0,1,1.89-.39,3.62,3.62,0,0,1,2.75,1,3.93,3.93,0,0,1,.94,2.82Z"/><path class="20abf4c5-7d9a-4707-9b9b-f52e81a3ff06" d="M522.11,21.69a5.35,5.35,0,0,1-3.92-1.38,5.23,5.23,0,0,1-1.41-3.92,5.76,5.76,0,0,1,1.3-4,4.64,4.64,0,0,1,3.6-1.42,4.57,4.57,0,0,1,3.42,1.25,4.74,4.74,0,0,1,1.22,3.46V17h-6.69a2.72,2.72,0,0,0,.71,1.88,2.51,2.51,0,0,0,1.87.68,7.77,7.77,0,0,0,1.77-.19,8.84,8.84,0,0,0,1.74-.62V21a6.65,6.65,0,0,1-1.59.55A10,10,0,0,1,522.11,21.69Zm-.4-8.74a1.8,1.8,0,0,0-1.41.57,2.65,2.65,0,0,0-.58,1.62h4a2.37,2.37,0,0,0-.55-1.62A1.86,1.86,0,0,0,521.71,13Z"/><path class="20abf4c5-7d9a-4707-9b9b-f52e81a3ff06" d="M538.22,21.51h-2.83V15.45a2.91,2.91,0,0,0-.4-1.68,1.45,1.45,0,0,0-1.27-.56A1.91,1.91,0,0,0,532,14a4.92,4.92,0,0,0-.53,2.63v4.88h-2.83V11.13h2.16l.38,1.33h.16a3,3,0,0,1,1.3-1.14,4.44,4.44,0,0,1,1.89-.39,3.62,3.62,0,0,1,2.75,1,3.93,3.93,0,0,1,.94,2.82Z"/><path class="20abf4c5-7d9a-4707-9b9b-f52e81a3ff06" d="M549.16,16.3v5.2h-2.88V7.94h4a6.76,6.76,0,0,1,4.09,1A3.59,3.59,0,0,1,555.66,12a3.6,3.6,0,0,1-.66,2.13,4.35,4.35,0,0,1-1.86,1.46q3.06,4.57,4,5.91h-3.19l-3.24-5.2Zm0-2.34h.93a3.55,3.55,0,0,0,2-.45,1.62,1.62,0,0,0,.65-1.43,1.48,1.48,0,0,0-.66-1.37A4,4,0,0,0,550,10.3h-.87Z"/><path class="20abf4c5-7d9a-4707-9b9b-f52e81a3ff06" d="M566,21.51l-.38-1.33h-.15a3,3,0,0,1-1.29,1.12,4.4,4.4,0,0,1-1.9.39,3.62,3.62,0,0,1-2.75-1,3.94,3.94,0,0,1-.93-2.82V11.13h2.83v6.06a2.91,2.91,0,0,0,.4,1.68,1.45,1.45,0,0,0,1.27.56,1.91,1.91,0,0,0,1.72-.79A4.92,4.92,0,0,0,565.3,16V11.13h2.83V21.51Z"/><path class="20abf4c5-7d9a-4707-9b9b-f52e81a3ff06" d="M578.33,18.43a2.86,2.86,0,0,1-1.11,2.43,5.48,5.48,0,0,1-3.32.83,10.38,10.38,0,0,1-1.93-.15,7.26,7.26,0,0,1-1.49-.45V18.75a9.85,9.85,0,0,0,1.78.62,7.2,7.2,0,0,0,1.74.25q1.54,0,1.54-.89a.74.74,0,0,0-.2-.54,3,3,0,0,0-.71-.47q-.5-.26-1.34-.62a8.36,8.36,0,0,1-1.76-.93,2.61,2.61,0,0,1-.82-1,3.23,3.23,0,0,1-.25-1.36,2.46,2.46,0,0,1,1.07-2.14,5.22,5.22,0,0,1,3-.76,8.63,8.63,0,0,1,3.65.82l-.85,2q-.78-.33-1.46-.55a4.58,4.58,0,0,0-1.38-.21q-1.25,0-1.25.68a.8.8,0,0,0,.4.66,10.9,10.9,0,0,0,1.77.83,8.27,8.27,0,0,1,1.78.92,2.71,2.71,0,0,1,.83,1A3,3,0,0,1,578.33,18.43Z"/><path class="20abf4c5-7d9a-4707-9b9b-f52e81a3ff06" d="M580.42,8.45q0-1.38,1.54-1.38t1.54,1.38a1.35,1.35,0,0,1-.38,1,1.62,1.62,0,0,1-1.15.37Q580.42,9.85,580.42,8.45Zm3,13.05h-2.83V11.13h2.83Z"/><path class="20abf4c5-7d9a-4707-9b9b-f52e81a3ff06" d="M592.92,21.51l-.55-1.41h-.07a4.18,4.18,0,0,1-1.47,1.25,4.76,4.76,0,0,1-2,.35,3.18,3.18,0,0,1-2.35-.85,3.28,3.28,0,0,1-.86-2.43A2.74,2.74,0,0,1,586.81,16a6.69,6.69,0,0,1,3.48-.87l1.8-.06V14.6A1.41,1.41,0,0,0,590.48,13a7.36,7.36,0,0,0-2.92.75l-.94-1.91a8.43,8.43,0,0,1,4-.94,5,5,0,0,1,3.2.91,3.36,3.36,0,0,1,1.11,2.76v6.91Zm-.83-4.81-1.09,0a3.51,3.51,0,0,0-1.84.45,1.4,1.4,0,0,0-.6,1.24q0,1.2,1.37,1.2a2.18,2.18,0,0,0,1.57-.57,2,2,0,0,0,.59-1.5Z"/><path class="555eb53d-ac8e-44ed-b439-8b48d82cb4e9" d="M12.45,45V568.58"/><line class="555eb53d-ac8e-44ed-b439-8b48d82cb4e9" x1="12.45" y1="568.04" x2="12.45" y2="45"/><line class="555eb53d-ac8e-44ed-b439-8b48d82cb4e9" x1="63.55" y1="568.04" x2="63.55" y2="45"/><line class="555eb53d-ac8e-44ed-b439-8b48d82cb4e9" x1="114.66" y1="568.04" x2="114.66" y2="45"/><line class="555eb53d-ac8e-44ed-b439-8b48d82cb4e9" x1="165.76" y1="568.04" x2="165.76" y2="45"/><line class="555eb53d-ac8e-44ed-b439-8b48d82cb4e9" x1="216.86" y1="568.04" x2="216.86" y2="45"/><line class="555eb53d-ac8e-44ed-b439-8b48d82cb4e9" x1="267.96" y1="568.04" x2="267.96" y2="45"/><line class="555eb53d-ac8e-44ed-b439-8b48d82cb4e9" x1="319.06" y1="568.04" x2="319.06" y2="45"/><line class="555eb53d-ac8e-44ed-b439-8b48d82cb4e9" x1="370.16" y1="568.04" x2="370.16" y2="45"/><line class="555eb53d-ac8e-44ed-b439-8b48d82cb4e9" x1="421.26" y1="568.04" x2="421.26" y2="45"/><line class="555eb53d-ac8e-44ed-b439-8b48d82cb4e9" x1="472.36" y1="568.04" x2="472.36" y2="45"/><line class="555eb53d-ac8e-44ed-b439-8b48d82cb4e9" x1="523.46" y1="568.04" x2="523.46" y2="45"/><line class="555eb53d-ac8e-44ed-b439-8b48d82cb4e9" x1="574.56" y1="568.04" x2="574.56" y2="45"/><g class="7c2cd4fd-1f2f-4b16-b5a4-8403dddf7f8d"><path class="d2b5684a-f830-43e2-b33b-83b935533a45" d="M12.11,369V334.17c5.11,0,5.11-17.36,10.21-17.36H42.75c5.11,0,5.11-17.36,10.21-17.36H165.3c5.11,0,5.11,17.36,10.21,17.36h51.06c5.11,0,5.11-17.36,10.21-17.36H247c5.1,0,5.1,17.36,10.21,17.36s5.11-17.36,10.21-17.36,5.11-17.36,10.21-17.36h40.85c5.11,0,5.11,17.36,10.21,17.36s5.11,17.36,10.21,17.36,5.11,34.72,10.21,34.72,5.11,17.36,10.21,17.36,5.11-17.36,10.21-17.36,5.11-17.36,10.21-17.36,5.11-17.36,10.21-17.36h10.22c5.1,0,5.1,17.36,10.21,17.36s5.11,17.36,10.21,17.36h40.85c5.11,0,5.11-17.36,10.21-17.36s5.11-17.36,10.21-17.36,5.11-17.36,10.21-17.36H502.3c5.11,0,5.11-17.36,10.21-17.36h10.21c5.11,0,5.11-17.36,10.21-17.36h10.21c5.11,0,5.11-17.36,10.21-17.36h20.42c5.11,0,5.11-17.36,10.21-17.36V369"/></g><path class="ecbb7486-890f-416c-b707-2af92386c8be" d="M12.11,435.24c5.09,0,5.09-1.36,10.17-1.36s5.09-1.38,10.17-1.38,5.09-1.39,10.17-1.39,5.09-1.41,10.17-1.41,5.09-1.42,10.17-1.42,5.09-.73,10.17-.73,5.09-.74,10.17-.74,5.09-.74,10.17-.74,5.09-.75,10.17-.75,5.09-.75,10.17-.75,5.09-.76,10.17-.76,5.09-.77,10.17-.77,5.09-.77,10.17-.77,5.09-.77,10.17-.77,5.09-.78,10.17-.78,5.09-1,10.17-1,5.09-1,10.17-1,5.09-1,10.17-1,5.09-1,10.17-1,5.09-1,10.17-1,5.09-.95,10.17-.95,5.09-.9,10.17-.9,5.09-.86,10.17-.86,5.09-1.09,10.17-1.09,5.09-1.13,10.17-1.13,5.09-1.05,10.17-1.05,5.09-1,10.17-1,5.09-1,10.17-1,5.09-.88,10.17-.88,5.09-.58,10.17-.58,5.09-.34,10.17-.34,5.09-.07,10.17-.07,5.09.17,10.17.17,5.09.19,10.17.19,5.09,0,10.17,0,5.09.22,10.17.22,5.09.25,10.17.25,5.09.25,10.17.25,5.09.46,10.17.46,5.09.63,10.17.63,5.09.63,10.17.63,5.09.68,10.17.68,5.09.67,10.17.67,5.09.59,10.17.59,5.09.56,10.17.56,5.09.48,10.17.48,5.09.25,10.17.25,5.09.06,10.17.06,5.09,0,10.17,0,5.09-.07,10.17-.07,5.09-.11,10.17-.11,5.09-.24,10.17-.24,5.09-.31,10.17-.31,5.09-.32,10.17-.32,5.09-.28,10.17-.28,5.09-.25,10.17-.25,5.09-.16,10.17-.16V557H12.11Z"/><text class="772b5fc5-82e8-464e-bbaf-e2e80b2fc5fc" transform="translate(445.91 549.18)">Millones de personas</text><text class="772b5fc5-82e8-464e-bbaf-e2e80b2fc5fc" transform="translate(444.91 365.18)">Millones de personas</text><path class="20abf4c5-7d9a-4707-9b9b-f52e81a3ff06" d="M27.15,396A3.33,3.33,0,0,1,26,398.79a5.17,5.17,0,0,1-3.34,1H21.46V404H19.59V392.59h3.29a5,5,0,0,1,3.21.88A3.14,3.14,0,0,1,27.15,396Zm-5.7,2.13h1a3.56,3.56,0,0,0,2.11-.5,1.82,1.82,0,0,0,.67-1.56,1.77,1.77,0,0,0-.6-1.47,3,3,0,0,0-1.87-.48h-1.3Z"/><path class="20abf4c5-7d9a-4707-9b9b-f52e81a3ff06" d="M36.9,399.68a4.72,4.72,0,0,1-1.09,3.3,3.89,3.89,0,0,1-3,1.19,4.15,4.15,0,0,1-2.14-.55,3.61,3.61,0,0,1-1.43-1.57,5.36,5.36,0,0,1-.5-2.37,4.68,4.68,0,0,1,1.08-3.28,3.91,3.91,0,0,1,3-1.18,3.81,3.81,0,0,1,3,1.21A4.66,4.66,0,0,1,36.9,399.68Zm-6.29,0q0,3,2.21,3t2.19-3q0-3-2.2-3a1.88,1.88,0,0,0-1.68.77A3.89,3.89,0,0,0,30.61,399.68Z"/><path class="20abf4c5-7d9a-4707-9b9b-f52e81a3ff06" d="M43.42,395.22a3,3,0,0,1,2.52,1.17,6.45,6.45,0,0,1,0,6.6,3.33,3.33,0,0,1-5.09,0h-.12l-.34,1H39V391.86h1.84v2.89c0,.21,0,.53,0,1s0,.69,0,.8h.08A2.91,2.91,0,0,1,43.42,395.22Zm-.48,1.5a1.86,1.86,0,0,0-1.6.65,3.8,3.8,0,0,0-.5,2.18v.13a4,4,0,0,0,.5,2.29,1.86,1.86,0,0,0,1.63.71,1.65,1.65,0,0,0,1.48-.77,4.1,4.1,0,0,0,.5-2.23Q45,396.72,42.95,396.72Z"/><path class="20abf4c5-7d9a-4707-9b9b-f52e81a3ff06" d="M50.81,404H49V391.86h1.84Z"/><path class="20abf4c5-7d9a-4707-9b9b-f52e81a3ff06" d="M58.85,404l-.37-1.2h-.06a3.55,3.55,0,0,1-1.26,1.07,4,4,0,0,1-1.62.29,2.75,2.75,0,0,1-2-.69,2.57,2.57,0,0,1-.71-1.95,2.28,2.28,0,0,1,1-2,5.71,5.71,0,0,1,3-.74l1.49,0v-.46A1.75,1.75,0,0,0,58,397a1.58,1.58,0,0,0-1.2-.41,4.13,4.13,0,0,0-1.27.2,9.45,9.45,0,0,0-1.17.46L53.71,396a6.34,6.34,0,0,1,1.54-.56,7.06,7.06,0,0,1,1.58-.19,3.74,3.74,0,0,1,2.49.72,2.81,2.81,0,0,1,.84,2.26V404Zm-2.73-1.25a2.27,2.27,0,0,0,1.61-.56,2,2,0,0,0,.61-1.57v-.75l-1.11,0a3.8,3.8,0,0,0-1.89.43,1.32,1.32,0,0,0-.59,1.18,1.15,1.15,0,0,0,.34.89A1.48,1.48,0,0,0,56.11,402.77Z"/><path class="20abf4c5-7d9a-4707-9b9b-f52e81a3ff06" d="M66.21,404.17a3.78,3.78,0,0,1-3-1.14,5.8,5.8,0,0,1,0-6.64,4,4,0,0,1,3.08-1.17,5.77,5.77,0,0,1,2.46.51l-.55,1.48a5.55,5.55,0,0,0-1.92-.45q-2.24,0-2.24,3a3.57,3.57,0,0,0,.56,2.18,1.93,1.93,0,0,0,1.64.73,4.7,4.7,0,0,0,2.32-.61v1.6a3.66,3.66,0,0,1-1.05.41A6.39,6.39,0,0,1,66.21,404.17Z"/><path class="20abf4c5-7d9a-4707-9b9b-f52e81a3ff06" d="M70.53,393.09a1,1,0,0,1,.27-.76,1,1,0,0,1,.77-.27.93.93,0,0,1,1,1,1,1,0,0,1-.27.74,1,1,0,0,1-.75.27,1,1,0,0,1-.77-.27A1,1,0,0,1,70.53,393.09ZM72.48,404H70.64v-8.64h1.84Z"/><path class="20abf4c5-7d9a-4707-9b9b-f52e81a3ff06" d="M82.77,399.68a4.72,4.72,0,0,1-1.09,3.3,3.89,3.89,0,0,1-3,1.19,4.15,4.15,0,0,1-2.14-.55,3.61,3.61,0,0,1-1.43-1.57,5.36,5.36,0,0,1-.5-2.37,4.68,4.68,0,0,1,1.08-3.28,3.91,3.91,0,0,1,3-1.18,3.81,3.81,0,0,1,3,1.21A4.66,4.66,0,0,1,82.77,399.68Zm-6.29,0q0,3,2.21,3t2.19-3q0-3-2.2-3a1.88,1.88,0,0,0-1.68.77A3.89,3.89,0,0,0,76.48,399.68Zm1-5.36v-.2q.45-.55.92-1.22t.75-1.15h2.13v.16a16.1,16.1,0,0,1-1.21,1.23,17.28,17.28,0,0,1-1.36,1.17Z"/><path class="20abf4c5-7d9a-4707-9b9b-f52e81a3ff06" d="M92.48,404H90.63V398.7a2.32,2.32,0,0,0-.4-1.49,1.56,1.56,0,0,0-1.28-.49,2,2,0,0,0-1.7.69,3.8,3.8,0,0,0-.54,2.3V404H84.88v-8.64h1.44l.26,1.13h.09a2.55,2.55,0,0,1,1.11-1,3.71,3.71,0,0,1,1.59-.34q3.11,0,3.11,3.16Z"/><path class="20abf4c5-7d9a-4707-9b9b-f52e81a3ff06" d="M23.77,235.15H17.31V223.73h6.46v1.58H19.18v3.11h4.3V230h-4.3v3.59h4.59Z"/><path class="20abf4c5-7d9a-4707-9b9b-f52e81a3ff06" d="M31.85,232.69a2.26,2.26,0,0,1-.92,1.94,4.42,4.42,0,0,1-2.64.68,6.24,6.24,0,0,1-2.77-.52V233.2a6.81,6.81,0,0,0,2.84.7q1.69,0,1.7-1a.81.81,0,0,0-.19-.55,2.23,2.23,0,0,0-.62-.45,10.63,10.63,0,0,0-1.2-.53,5.53,5.53,0,0,1-2-1.16,2.14,2.14,0,0,1-.53-1.5,2,2,0,0,1,.89-1.72,4.24,4.24,0,0,1,2.43-.61,6.9,6.9,0,0,1,2.88.62l-.59,1.38a6.41,6.41,0,0,0-2.35-.58q-1.45,0-1.45.83a.83.83,0,0,0,.38.69,8.35,8.35,0,0,0,1.65.77,7.55,7.55,0,0,1,1.55.76,2.26,2.26,0,0,1,.72.79A2.29,2.29,0,0,1,31.85,232.69Z"/><path class="20abf4c5-7d9a-4707-9b9b-f52e81a3ff06" d="M38.22,235.31a3,3,0,0,1-2.55-1.18h-.11q.11,1.09.11,1.33V239H33.83V226.51h1.48q.06.24.26,1.16h.09a2.88,2.88,0,0,1,2.58-1.31,3,3,0,0,1,2.52,1.17,6.43,6.43,0,0,1,0,6.59A3,3,0,0,1,38.22,235.31Zm-.45-7.45a1.91,1.91,0,0,0-1.6.64,3.32,3.32,0,0,0-.5,2v.27a4,4,0,0,0,.5,2.29,1.86,1.86,0,0,0,1.63.71,1.66,1.66,0,0,0,1.47-.78,4,4,0,0,0,.52-2.23,3.9,3.9,0,0,0-.51-2.2A1.71,1.71,0,0,0,37.77,227.86Z"/><path class="20abf4c5-7d9a-4707-9b9b-f52e81a3ff06" d="M47.58,235.31a4.18,4.18,0,0,1-3.15-1.18,4.46,4.46,0,0,1-1.14-3.24,4.9,4.9,0,0,1,1.05-3.33,3.64,3.64,0,0,1,2.9-1.21,3.56,3.56,0,0,1,2.7,1,4,4,0,0,1,1,2.86v1H45.18a2.84,2.84,0,0,0,.68,1.93,2.37,2.37,0,0,0,1.8.68,6.64,6.64,0,0,0,1.43-.14,7.5,7.5,0,0,0,1.42-.48v1.49a5.65,5.65,0,0,1-1.36.45A8.3,8.3,0,0,1,47.58,235.31Zm-.34-7.56a1.84,1.84,0,0,0-1.4.55,2.64,2.64,0,0,0-.63,1.62h3.92a2.39,2.39,0,0,0-.52-1.62A1.76,1.76,0,0,0,47.24,227.75Z"/><path class="20abf4c5-7d9a-4707-9b9b-f52e81a3ff06" d="M57.4,226.36a4.44,4.44,0,0,1,.91.08l-.18,1.71a3.47,3.47,0,0,0-.81-.09,2.35,2.35,0,0,0-1.79.72,2.6,2.6,0,0,0-.68,1.87v4.52H53v-8.64h1.44L54.7,228h.09a3.42,3.42,0,0,1,1.12-1.23A2.67,2.67,0,0,1,57.4,226.36Z"/><path class="20abf4c5-7d9a-4707-9b9b-f52e81a3ff06" d="M65.33,235.15,65,234H64.9A3.54,3.54,0,0,1,63.64,235a4,4,0,0,1-1.62.29,2.75,2.75,0,0,1-2-.69,2.57,2.57,0,0,1-.71-1.95,2.28,2.28,0,0,1,1-2,5.72,5.72,0,0,1,3-.74l1.49,0v-.46a1.75,1.75,0,0,0-.39-1.24,1.58,1.58,0,0,0-1.2-.41A4.16,4.16,0,0,0,62,228a9.61,9.61,0,0,0-1.17.46l-.59-1.31a6.38,6.38,0,0,1,1.54-.56,7.06,7.06,0,0,1,1.58-.19,3.74,3.74,0,0,1,2.49.72,2.82,2.82,0,0,1,.84,2.26v5.82Zm-2.73-1.25a2.27,2.27,0,0,0,1.61-.56,2,2,0,0,0,.61-1.57V231l-1.11,0a3.8,3.8,0,0,0-1.89.43,1.32,1.32,0,0,0-.59,1.18,1.15,1.15,0,0,0,.34.89A1.48,1.48,0,0,0,62.59,233.9Z"/><path class="20abf4c5-7d9a-4707-9b9b-f52e81a3ff06" d="M76.8,235.15H75v-5.31a2.32,2.32,0,0,0-.4-1.49,1.56,1.56,0,0,0-1.28-.49,2,2,0,0,0-1.7.69,3.8,3.8,0,0,0-.54,2.3v4.3H69.2v-8.64h1.44l.26,1.13H71a2.56,2.56,0,0,1,1.11-1,3.72,3.72,0,0,1,1.59-.34q3.11,0,3.11,3.16Z"/><path class="20abf4c5-7d9a-4707-9b9b-f52e81a3ff06" d="M85.13,235.15H78.58V234l4.37-6.1h-4.1v-1.41H85v1.28l-4.27,6h4.4Z"/><path class="20abf4c5-7d9a-4707-9b9b-f52e81a3ff06" d="M92.41,235.15,92,234H92A3.54,3.54,0,0,1,90.72,235a4,4,0,0,1-1.62.29,2.75,2.75,0,0,1-2-.69,2.57,2.57,0,0,1-.71-1.95,2.28,2.28,0,0,1,1-2,5.72,5.72,0,0,1,3-.74l1.49,0v-.46a1.75,1.75,0,0,0-.39-1.24,1.58,1.58,0,0,0-1.2-.41A4.16,4.16,0,0,0,89,228a9.61,9.61,0,0,0-1.17.46l-.59-1.31a6.38,6.38,0,0,1,1.54-.56,7.06,7.06,0,0,1,1.58-.19,3.74,3.74,0,0,1,2.49.72,2.82,2.82,0,0,1,.84,2.26v5.82Zm-2.73-1.25a2.27,2.27,0,0,0,1.61-.56,2,2,0,0,0,.61-1.57V231l-1.11,0a3.8,3.8,0,0,0-1.89.43,1.32,1.32,0,0,0-.59,1.18,1.15,1.15,0,0,0,.34.89A1.48,1.48,0,0,0,89.68,233.9Z"/><path class="20abf4c5-7d9a-4707-9b9b-f52e81a3ff06" d="M103.36,235.31a3,3,0,0,1-2.52-1.17,6.42,6.42,0,0,1,0-6.6,3,3,0,0,1,2.54-1.18,3,3,0,0,1,2.59,1.26h.09a11,11,0,0,1-.13-1.47V223h1.84v12.16h-1.44L106,234h-.09A2.94,2.94,0,0,1,103.36,235.31Zm.49-1.48a2,2,0,0,0,1.65-.64,3.35,3.35,0,0,0,.53-2.07v-.26a3.87,3.87,0,0,0-.53-2.32,2,2,0,0,0-1.66-.69,1.69,1.69,0,0,0-1.49.79,4,4,0,0,0-.52,2.24,3.92,3.92,0,0,0,.51,2.19A1.71,1.71,0,0,0,103.85,233.83Z"/><path class="20abf4c5-7d9a-4707-9b9b-f52e81a3ff06" d="M114.19,235.31a4.18,4.18,0,0,1-3.15-1.18,4.46,4.46,0,0,1-1.14-3.24,4.9,4.9,0,0,1,1.05-3.33,3.64,3.64,0,0,1,2.9-1.21,3.56,3.56,0,0,1,2.7,1,4,4,0,0,1,1,2.86v1h-5.76a2.84,2.84,0,0,0,.68,1.93,2.37,2.37,0,0,0,1.8.68,6.64,6.64,0,0,0,1.43-.14,7.5,7.5,0,0,0,1.42-.48v1.49a5.65,5.65,0,0,1-1.36.45A8.3,8.3,0,0,1,114.19,235.31Zm-.34-7.56a1.84,1.84,0,0,0-1.4.55,2.64,2.64,0,0,0-.63,1.62h3.92a2.39,2.39,0,0,0-.52-1.62A1.76,1.76,0,0,0,113.85,227.75Z"/><path class="20abf4c5-7d9a-4707-9b9b-f52e81a3ff06" d="M125.76,235.15l-3.28-8.64h1.94l1.76,5a10,10,0,0,1,.55,2h.06a13.78,13.78,0,0,1,.55-2l1.76-5h2l-3.3,8.64Z"/><path class="20abf4c5-7d9a-4707-9b9b-f52e81a3ff06" d="M132.24,224.22a1,1,0,0,1,.27-.76,1.05,1.05,0,0,1,.77-.27,1,1,0,0,1,.75.27,1,1,0,0,1,.27.76,1,1,0,0,1-.27.74,1,1,0,0,1-.75.27,1,1,0,0,1-.77-.27A1,1,0,0,1,132.24,224.22Zm1.95,10.93h-1.84v-8.64h1.84Z"/><path class="20abf4c5-7d9a-4707-9b9b-f52e81a3ff06" d="M139.72,235.31a3,3,0,0,1-2.52-1.17,6.42,6.42,0,0,1,0-6.6,3,3,0,0,1,2.54-1.18,3,3,0,0,1,2.59,1.26h.09a11,11,0,0,1-.13-1.47V223h1.84v12.16h-1.44L142.4,234h-.09A2.94,2.94,0,0,1,139.72,235.31Zm.49-1.48a2,2,0,0,0,1.65-.64,3.35,3.35,0,0,0,.53-2.07v-.26a3.87,3.87,0,0,0-.53-2.32,2,2,0,0,0-1.66-.69,1.69,1.69,0,0,0-1.49.79,4,4,0,0,0-.52,2.24,3.92,3.92,0,0,0,.51,2.19A1.71,1.71,0,0,0,140.22,233.83Z"/><path class="20abf4c5-7d9a-4707-9b9b-f52e81a3ff06" d="M152.19,235.15l-.37-1.2h-.06A3.54,3.54,0,0,1,150.5,235a4,4,0,0,1-1.62.29,2.75,2.75,0,0,1-2-.69,2.57,2.57,0,0,1-.71-1.95,2.28,2.28,0,0,1,1-2,5.72,5.72,0,0,1,3-.74l1.49,0v-.46a1.75,1.75,0,0,0-.39-1.24,1.58,1.58,0,0,0-1.2-.41,4.16,4.16,0,0,0-1.27.2,9.61,9.61,0,0,0-1.17.46l-.59-1.31a6.38,6.38,0,0,1,1.54-.56,7.06,7.06,0,0,1,1.58-.19,3.74,3.74,0,0,1,2.49.72,2.82,2.82,0,0,1,.84,2.26v5.82Zm-2.73-1.25a2.27,2.27,0,0,0,1.61-.56,2,2,0,0,0,.61-1.57V231l-1.11,0a3.8,3.8,0,0,0-1.89.43,1.32,1.32,0,0,0-.59,1.18,1.15,1.15,0,0,0,.34.89A1.48,1.48,0,0,0,149.45,233.9Z"/></svg>