<svg xmlns="http://www.w3.org/2000/svg" viewBox="0 0 855 798"><defs><style>.\30 ec2e799-dce8-472d-a52e-79a59e06942e{font-size:24px;}.\30 ec2e799-dce8-472d-a52e-79a59e06942e,.\32 b006591-b674-4474-a087-bcf8cd0c6236,.d0716835-f8ac-4409-a55b-34925ec93791,.e2cb9d04-e7bb-4b8e-8c50-e47720674155{fill:#757575;}.\30 ec2e799-dce8-472d-a52e-79a59e06942e,.\37 a9c387a-6fa4-409c-992f-1bd6bba11340,.d0716835-f8ac-4409-a55b-34925ec93791{font-family:ArialMT, Arial;}.\30 1169e65-7702-43b6-9ef9-37ee115904a9,.\36 104e10c-7410-43fd-8938-5158e2be9a65,.\37 5484f86-a48d-4358-80f6-22ac55fbc487,.a1cf5911-6622-468e-9ba9-198f8434d1b1{fill:none;stroke:#757575;}.\30 1169e65-7702-43b6-9ef9-37ee115904a9,.\36 104e10c-7410-43fd-8938-5158e2be9a65,.\36 5c63ac8-eac6-4cfe-968f-78fe72ec9741,.\37 5484f86-a48d-4358-80f6-22ac55fbc487,.a1cf5911-6622-468e-9ba9-198f8434d1b1,.ea089ae0-02a3-46d1-8721-bf3dd3d24121{stroke-miterlimit:10;}.\36 104e10c-7410-43fd-8938-5158e2be9a65{stroke-dasharray:5 5;}.a1cf5911-6622-468e-9ba9-198f8434d1b1{stroke-dasharray:4.91 4.91;}.\37 5484f86-a48d-4358-80f6-22ac55fbc487{stroke-dasharray:4.99 4.99;}.e2cb9d04-e7bb-4b8e-8c50-e47720674155{fill-opacity:0.3;}.\37 a9c387a-6fa4-409c-992f-1bd6bba11340{font-size:23px;}.d1ba7b9e-88c8-41d3-9460-38e9e5e2e59f{font-size:37px;fill:#323232;}.\32 b006591-b674-4474-a087-bcf8cd0c6236,.d1ba7b9e-88c8-41d3-9460-38e9e5e2e59f{font-family:Arial-BoldMT, Arial;font-weight:700;}.\32 b006591-b674-4474-a087-bcf8cd0c6236{font-size:32px;}.c7b5bffa-8f66-4507-8112-ad176c3adba7{letter-spacing:-0.04em;}.d0716835-f8ac-4409-a55b-34925ec93791{font-size:20px;}.\34 3676335-67da-433f-9243-b4b87fee750c{letter-spacing:-0.02em;}.\35 6cf0e87-cdda-44e9-ab77-9e270ef2120b{letter-spacing:-0.06em;}.b3ed2c9f-da12-41c9-96fe-1cc8fee58700{letter-spacing:-0.07em;}.\36 5c63ac8-eac6-4cfe-968f-78fe72ec9741{fill:#39398e;}.\36 5c63ac8-eac6-4cfe-968f-78fe72ec9741,.ea089ae0-02a3-46d1-8721-bf3dd3d24121{stroke:#fff;stroke-width:0.75px;}.ea089ae0-02a3-46d1-8721-bf3dd3d24121{fill:#ffc200;}</style></defs><title>2018.06_Mundial_ComparacionesEquipo</title><g id="24c579f2-d09a-4036-97e3-96e9ec737383" data-name="Capa 1"><text class="0ec2e799-dce8-472d-a52e-79a59e06942e" transform="translate(536.07 577.56)">120 millones</text><text class="0ec2e799-dce8-472d-a52e-79a59e06942e" transform="translate(538.07 630.56)">60 millones</text><text class="0ec2e799-dce8-472d-a52e-79a59e06942e" transform="translate(534.07 686.56)">10 millones</text><line class="01169e65-7702-43b6-9ef9-37ee115904a9" x1="758" y1="691.5" x2="755.5" y2="691.5"/><line class="6104e10c-7410-43fd-8938-5158e2be9a65" x1="750.5" y1="691.5" x2="543" y2="691.5"/><line class="01169e65-7702-43b6-9ef9-37ee115904a9" x1="540.5" y1="691.5" x2="538" y2="691.5"/><line class="01169e65-7702-43b6-9ef9-37ee115904a9" x1="747" y1="636.5" x2="744.5" y2="636.5"/><line class="a1cf5911-6622-468e-9ba9-198f8434d1b1" x1="739.59" y1="636.5" x2="545.46" y2="636.5"/><line class="01169e65-7702-43b6-9ef9-37ee115904a9" x1="543" y1="636.5" x2="540.5" y2="636.5"/><line class="01169e65-7702-43b6-9ef9-37ee115904a9" x1="760" y1="588.5" x2="757.5" y2="588.5"/><line class="75484f86-a48d-4358-80f6-22ac55fbc487" x1="752.51" y1="588.5" x2="545.49" y2="588.5"/><line class="01169e65-7702-43b6-9ef9-37ee115904a9" x1="543" y1="588.5" x2="540.5" y2="588.5"/><path class="e2cb9d04-e7bb-4b8e-8c50-e47720674155" d="M827.79,656.7A71.7,71.7,0,1,1,756.1,585a71.7,71.7,0,0,1,71.7,71.7"/><circle class="e2cb9d04-e7bb-4b8e-8c50-e47720674155" cx="754.04" cy="709.3" r="20.34"/><circle class="e2cb9d04-e7bb-4b8e-8c50-e47720674155" cx="754.01" cy="679.49" r="48.45"/></g><g id="1abf54bd-2b59-433a-aafb-72f8c8903549" data-name="Capa 3"><text class="7a9c387a-6fa4-409c-992f-1bd6bba11340" transform="translate(56.99 68.58)">Cada círculo representa el valor de un futbolista en millones de euros</text><text class="d1ba7b9e-88c8-41d3-9460-38e9e5e2e59f" transform="translate(26.4 37.6)">El valor de la selección francesa y australiana</text></g><g id="6ca23cc1-9293-4423-abb3-27dfd96d5f90" data-name="Capa 2"><text class="2b006591-b674-4474-a087-bcf8cd0c6236" transform="translate(202.24 133.1)">FRANCI<tspan class="c7b5bffa-8f66-4507-8112-ad176c3adba7" x="120.88" y="0">A</tspan></text><text class="2b006591-b674-4474-a087-bcf8cd0c6236" transform="translate(621.8 278.1)">AUSTRALI<tspan class="c7b5bffa-8f66-4507-8112-ad176c3adba7" x="161.77" y="0">A</tspan></text><text class="d0716835-f8ac-4409-a55b-34925ec93791" transform="translate(6.3 789.1)">Fuente: Elaboración propia a partir de<tspan class="43676335-67da-433f-9243-b4b87fee750c" x="335.76" y="0"> </tspan><tspan class="c7b5bffa-8f66-4507-8112-ad176c3adba7" x="340.96" y="0">T</tspan><tspan x="352.43" y="0">ransfermarkt</tspan></text><text class="d0716835-f8ac-4409-a55b-34925ec93791" transform="translate(687.36 791.1)">L<tspan class="56cf0e87-cdda-44e9-ab77-9e270ef2120b" x="11.12" y="0">A</tspan><tspan x="23.36" y="0"> </tspan><tspan class="b3ed2c9f-da12-41c9-96fe-1cc8fee58700" x="28.92" y="0">V</tspan><tspan x="40.77" y="0">ANGUARDI</tspan><tspan class="56cf0e87-cdda-44e9-ab77-9e270ef2120b" x="146.34" y="0">A</tspan></text><circle class="65c63ac8-eac6-4cfe-968f-78fe72ec9741" cx="211.04" cy="432.36" r="74.82"/><circle class="65c63ac8-eac6-4cfe-968f-78fe72ec9741" cx="354.16" cy="432.36" r="68.3"/><circle class="65c63ac8-eac6-4cfe-968f-78fe72ec9741" cx="288.81" cy="548.31" r="64.8"/><circle class="65c63ac8-eac6-4cfe-968f-78fe72ec9741" cx="288.64" cy="320.78" r="61.09"/><circle class="65c63ac8-eac6-4cfe-968f-78fe72ec9741" cx="171.27" cy="306.53" r="57.15"/><circle class="65c63ac8-eac6-4cfe-968f-78fe72ec9741" cx="169.15" cy="555.3" r="55.07"/><circle class="65c63ac8-eac6-4cfe-968f-78fe72ec9741" cx="402.64" cy="321.26" r="52.91"/><circle class="65c63ac8-eac6-4cfe-968f-78fe72ec9741" cx="406.33" cy="541.76" r="52.91"/><circle class="65c63ac8-eac6-4cfe-968f-78fe72ec9741" cx="92.91" cy="383.79" r="52.91"/><circle class="65c63ac8-eac6-4cfe-968f-78fe72ec9741" cx="93.39" cy="485" r="48.3"/><circle class="65c63ac8-eac6-4cfe-968f-78fe72ec9741" cx="460.29" cy="398.16" r="43.2"/><circle class="65c63ac8-eac6-4cfe-968f-78fe72ec9741" cx="481.52" cy="481.9" r="43.2"/><circle class="65c63ac8-eac6-4cfe-968f-78fe72ec9741" cx="236.31" cy="233.81" r="40.41"/><circle class="65c63ac8-eac6-4cfe-968f-78fe72ec9741" cx="352.74" cy="245.98" r="37.41"/><circle class="65c63ac8-eac6-4cfe-968f-78fe72ec9741" cx="225.56" cy="628.59" r="37.41"/><circle class="65c63ac8-eac6-4cfe-968f-78fe72ec9741" cx="361.5" cy="620.16" r="37.41"/><circle class="65c63ac8-eac6-4cfe-968f-78fe72ec9741" cx="301.56" cy="191.41" r="37.41"/><circle class="65c63ac8-eac6-4cfe-968f-78fe72ec9741" cx="489.54" cy="326.55" r="34.15"/><circle class="65c63ac8-eac6-4cfe-968f-78fe72ec9741" cx="293.6" cy="645.74" r="32.76"/><circle class="65c63ac8-eac6-4cfe-968f-78fe72ec9741" cx="342.28" cy="683.71" r="28.98"/><circle class="65c63ac8-eac6-4cfe-968f-78fe72ec9741" cx="87.69" cy="304.61" r="26.45"/><circle class="65c63ac8-eac6-4cfe-968f-78fe72ec9741" cx="96.13" cy="551.31" r="18.07"/><circle class="65c63ac8-eac6-4cfe-968f-78fe72ec9741" cx="399.52" cy="257.64" r="10.8"/><circle class="ea089ae0-02a3-46d1-8721-bf3dd3d24121" cx="696.2" cy="387.68" r="21.6"/><circle class="ea089ae0-02a3-46d1-8721-bf3dd3d24121" cx="737.12" cy="387.68" r="19.32"/><circle class="ea089ae0-02a3-46d1-8721-bf3dd3d24121" cx="718.61" cy="415.97" r="14.49"/><circle class="ea089ae0-02a3-46d1-8721-bf3dd3d24121" cx="718.56" cy="360.42" r="13.66"/><circle class="ea089ae0-02a3-46d1-8721-bf3dd3d24121" cx="694.21" cy="354.82" r="11.33"/><circle class="ea089ae0-02a3-46d1-8721-bf3dd3d24121" cx="693.64" cy="419.98" r="10.8"/><circle class="ea089ae0-02a3-46d1-8721-bf3dd3d24121" cx="742.91" cy="358.13" r="10.8"/><circle class="ea089ae0-02a3-46d1-8721-bf3dd3d24121" cx="743.87" cy="417.04" r="10.8"/><circle class="ea089ae0-02a3-46d1-8721-bf3dd3d24121" cx="675.48" cy="364.28" r="9.66"/><circle class="ea089ae0-02a3-46d1-8721-bf3dd3d24121" cx="676.92" cy="410.62" r="8.37"/><circle class="ea089ae0-02a3-46d1-8721-bf3dd3d24121" cx="756.61" cy="369.75" r="7.16"/><circle class="ea089ae0-02a3-46d1-8721-bf3dd3d24121" cx="707.92" cy="342.91" r="6.83"/><circle class="ea089ae0-02a3-46d1-8721-bf3dd3d24121" cx="756.73" cy="404.98" r="6.83"/><circle class="ea089ae0-02a3-46d1-8721-bf3dd3d24121" cx="705.64" cy="432.9" r="6.83"/><circle class="ea089ae0-02a3-46d1-8721-bf3dd3d24121" cx="731.6" cy="345.07" r="6.48"/><circle class="ea089ae0-02a3-46d1-8721-bf3dd3d24121" cx="733.42" cy="430.56" r="6.3"/><circle class="ea089ae0-02a3-46d1-8721-bf3dd3d24121" cx="670.37" cy="397.71" r="6.11"/><circle class="ea089ae0-02a3-46d1-8721-bf3dd3d24121" cx="670.12" cy="378.91" r="5.92"/><circle class="ea089ae0-02a3-46d1-8721-bf3dd3d24121" cx="761.66" cy="381.82" r="5.92"/><circle class="ea089ae0-02a3-46d1-8721-bf3dd3d24121" cx="760.73" cy="393.77" r="5.07"/><circle class="ea089ae0-02a3-46d1-8721-bf3dd3d24121" cx="719.54" cy="341.96" r="4.83"/><circle class="ea089ae0-02a3-46d1-8721-bf3dd3d24121" cx="726.31" cy="335.07" r="4.83"/><circle class="ea089ae0-02a3-46d1-8721-bf3dd3d24121" cx="713.84" cy="431.26" r="1.53"/></g></svg>