<svg id="2782600a-39f3-4065-bb60-9e371b598cb7" data-name="chart" xmlns="http://www.w3.org/2000/svg" viewBox="0 0 1372.8 1372.8"><defs><style>.\32 2bb3147-6753-4cc3-9bb8-0ed1c718cfa0,.bbea4b6d-8e06-4aee-b600-b4b37b723d80{fill:#757575;}.\32 2bb3147-6753-4cc3-9bb8-0ed1c718cfa0{font-size:41px;font-family:OpenSans, Open Sans;}.d9116420-5d73-4e3c-9761-9e2f51a5c023{fill:#e1ffe9;}.a0c150ba-e5fb-4aa1-859f-79d629b14b6b{opacity:0;}.\32 34be143-dda9-429a-82e3-33ee07dbf2d9,.\36 b65efa7-8162-420b-893e-595109f92da6,.\37 d892142-9752-43a3-97e9-8c3e4b81091b,.\39 0f03ab7-f4a0-4691-b62a-c4b85cd8ad9c,.a0c150ba-e5fb-4aa1-859f-79d629b14b6b,.b51cdd38-a2e3-4b10-985c-7d65782b1df4,.cf17be6c-d8b2-455d-8bb5-c324a4c30a0f,.df22eab8-6059-4870-8172-f410bf449c1f,.e2341f74-6e8d-4181-8084-f26fb3e47fa5,.edda63e7-98e9-458e-b53c-e0bfd1791826,.f830f3fb-e02e-48e8-9e9c-6f74114efa92{isolation:isolate;}.\32 34be143-dda9-429a-82e3-33ee07dbf2d9,.\36 b65efa7-8162-420b-893e-595109f92da6,.\37 d892142-9752-43a3-97e9-8c3e4b81091b,.\39 0f03ab7-f4a0-4691-b62a-c4b85cd8ad9c,.b51cdd38-a2e3-4b10-985c-7d65782b1df4,.cf17be6c-d8b2-455d-8bb5-c324a4c30a0f,.df22eab8-6059-4870-8172-f410bf449c1f,.e2341f74-6e8d-4181-8084-f26fb3e47fa5,.edda63e7-98e9-458e-b53c-e0bfd1791826,.f830f3fb-e02e-48e8-9e9c-6f74114efa92{font-size:12px;}.b51cdd38-a2e3-4b10-985c-7d65782b1df4,.b708f442-0a51-4d6c-9f6b-68bdd7b204ee,.f3248df4-9a62-4e21-a93c-b11ccf625464{fill:none;}.b51cdd38-a2e3-4b10-985c-7d65782b1df4{stroke:#fff;stroke-width:3.2px;}.\32 34be143-dda9-429a-82e3-33ee07dbf2d9,.\36 b65efa7-8162-420b-893e-595109f92da6,.\37 d892142-9752-43a3-97e9-8c3e4b81091b,.\39 0f03ab7-f4a0-4691-b62a-c4b85cd8ad9c,.b51cdd38-a2e3-4b10-985c-7d65782b1df4,.cf17be6c-d8b2-455d-8bb5-c324a4c30a0f,.df22eab8-6059-4870-8172-f410bf449c1f,.e2341f74-6e8d-4181-8084-f26fb3e47fa5,.edda63e7-98e9-458e-b53c-e0bfd1791826{font-family:ArialMT-Bold, Arial MT;}.\32 34be143-dda9-429a-82e3-33ee07dbf2d9,.\36 b65efa7-8162-420b-893e-595109f92da6,.\37 683a2e8-48fa-4f3d-a9f7-c91e3729eb08,.\37 d892142-9752-43a3-97e9-8c3e4b81091b,.\39 0f03ab7-f4a0-4691-b62a-c4b85cd8ad9c,.b51cdd38-a2e3-4b10-985c-7d65782b1df4,.cf17be6c-d8b2-455d-8bb5-c324a4c30a0f,.df22eab8-6059-4870-8172-f410bf449c1f,.e2341f74-6e8d-4181-8084-f26fb3e47fa5,.e93948d6-333e-4408-8db4-02964cc038b6,.edda63e7-98e9-458e-b53c-e0bfd1791826{font-weight:700;}.cf17be6c-d8b2-455d-8bb5-c324a4c30a0f{fill:#0f8554;}.f0a413f0-5e4b-4eab-ac95-8bd68f999714{fill:#1d976c;}.e2341f74-6e8d-4181-8084-f26fb3e47fa5{fill:#1d6996;}.de8ba118-b970-4200-a016-0c0915d195eb{fill:#40af7f;}.\39 0f03ab7-f4a0-4691-b62a-c4b85cd8ad9c{fill:#edad08;}.\36 a01008c-4fff-4465-bbf6-fad4bf043fbd{fill:#cbf7d6;}.df22eab8-6059-4870-8172-f410bf449c1f{fill:#5f4690;}.f5ba6411-b811-41c7-9989-d87d33d564d3{fill:#5cc792;}.\37 d892142-9752-43a3-97e9-8c3e4b81091b{fill:#73af48;}.\32 02006c6-b79d-41dc-abde-655376abc99f{fill:#78e0a5;}.\36 b65efa7-8162-420b-893e-595109f92da6{fill:#94346e;}.d7ede131-5549-4b44-974f-5f6cf65b04df{fill:#93f9b9;}.\32 34be143-dda9-429a-82e3-33ee07dbf2d9{fill:#38a6a5;}.\36 5813b3b-4fe8-4751-9a7e-875ac945d563{fill:#b7f9cd;}.edda63e7-98e9-458e-b53c-e0bfd1791826{fill:#e17c05;}.f830f3fb-e02e-48e8-9e9c-6f74114efa92{font-family:ArialMT, Arial MT;}.b708f442-0a51-4d6c-9f6b-68bdd7b204ee{stroke:#757575;stroke-miterlimit:10;stroke-width:4px;}.\37 683a2e8-48fa-4f3d-a9f7-c91e3729eb08{font-size:53px;fill:#323232;}.\37 683a2e8-48fa-4f3d-a9f7-c91e3729eb08,.e93948d6-333e-4408-8db4-02964cc038b6{font-family:OpenSans-Bold, Open Sans;}</style></defs><title>2018.10.01_Migraciones</title><path class="bbea4b6d-8e06-4aee-b600-b4b37b723d80" d="M773.68,1150.91c.94,4.47.46,8.25-1.54,11.31s-5.32,5-9.87,5.74-8.46-.06-11.28-2.3-4.45-5.73-5-10.39.31-8.33,2.33-11.15,5.11-4.52,9.32-5.19,7.49,0,10.31,2.13S772.74,1146.42,773.68,1150.91Zm-23.92,4c.47,3.84,1.71,6.65,3.77,8.39s4.84,2.37,8.28,1.82,5.91-2,7.29-4.3,1.66-5.34.91-9.14-2.13-6.46-4.13-8.11-4.55-2.19-7.73-1.68-5.48,1.83-6.91,4S749.3,1151.09,749.77,1154.88Z"/><path class="bbea4b6d-8e06-4aee-b600-b4b37b723d80" d="M793.08,1161l-3.58.94-6.36-24.8c-3.58.92-5.37,1.35-9,2.14l-.64-2.88c8.45-1.87,12.64-3,20.9-5.5l.86,2.82c-3.53,1.08-5.3,1.59-8.86,2.55Z"/><path class="bbea4b6d-8e06-4aee-b600-b4b37b723d80" d="M807.06,1144.34l3.79,11.25-3.51,1.16-8.79-27.17c3-1,4.5-1.48,7.48-2.54,3.33-1.18,6-1.49,8.07-.86a7.32,7.32,0,0,1,4.62,4.69c1.4,3.51.48,6.64-2.87,9.32,4.9,3.64,7.41,5.42,12.55,8.87-1.62.66-2.43,1-4.06,1.62-4.6-3.3-6.85-5-11.25-8.45C810.68,1143.1,809.48,1143.52,807.06,1144.34Zm-.91-2.7c1.83-.62,2.74-.93,4.56-1.58,2.34-.83,3.89-1.91,4.64-3.19a5,5,0,0,0,.11-4.53,4.75,4.75,0,0,0-3.06-3.2c-1.36-.38-3.21-.13-5.57.71-1.66.59-2.49.88-4.16,1.44Z"/><path class="bbea4b6d-8e06-4aee-b600-b4b37b723d80" d="M851.21,1122.45c2.18,4,2.8,7.78,1.76,11.28s-3.66,6.32-7.8,8.32-8.09,2.35-11.43,1-5.88-4.22-7.7-8.54-2.09-8.06-1-11.35,3.58-5.78,7.41-7.62,7.18-2.1,10.48-.9S849,1118.42,851.21,1122.45Zm-21.73,10.61c1.55,3.54,3.54,5.88,6,7s5.3.9,8.43-.61,5.08-3.61,5.74-6.19.07-5.59-1.74-9-3.89-5.58-6.27-6.59-5-.8-7.88.59-4.71,3.32-5.44,5.83S828,1129.56,829.48,1133.06Z"/><path class="bbea4b6d-8e06-4aee-b600-b4b37b723d80" d="M875.47,1115.77a6.67,6.67,0,0,1,.66,6.58c-1,2.28-2.93,4.36-5.93,6.17a21.33,21.33,0,0,1-8.21,3.27l-1.57-2.79a22.56,22.56,0,0,0,4.25-1.09,22.8,22.8,0,0,0,4.13-2,9.63,9.63,0,0,0,4.06-4,4,4,0,0,0-.31-4,4.24,4.24,0,0,0-1.85-1.7,6,6,0,0,0-2.75-.33,35.59,35.59,0,0,0-4.84.84,13.83,13.83,0,0,1-6.93.16,7.15,7.15,0,0,1-4.08-3.54,6.37,6.37,0,0,1-.39-5.83,11,11,0,0,1,4.73-5.08,21.5,21.5,0,0,1,7.56-2.93c.28,1.2.41,1.8.68,3a20,20,0,0,0-6.77,2.5,7.12,7.12,0,0,0-3,3.15,3.72,3.72,0,0,0,.27,3.49,4.63,4.63,0,0,0,1.72,1.81,5.21,5.21,0,0,0,2.55.51,22.79,22.79,0,0,0,4.5-.68c3.27-.75,5.74-1,7.42-.62A6.54,6.54,0,0,1,875.47,1115.77Z"/><path class="bbea4b6d-8e06-4aee-b600-b4b37b723d80" d="M1010.67,1016.23c-5,5.14-7.58,7.63-12.92,12.46l-19.15-21.18c4.79-4.33,7.11-6.57,11.6-11.18l2.11,2.06c-3.59,3.69-5.44,5.5-9.22,9l6.26,6.74c3.69-3.42,5.48-5.18,9-8.76l2.09,2c-3.55,3.63-5.37,5.4-9.09,8.86l7.15,7.7c4.12-3.83,6.13-5.79,10-9.82Z"/><path class="bbea4b6d-8e06-4aee-b600-b4b37b723d80" d="M1027.27,997.55c-4.51,5.55-6.85,8.25-11.71,13.51l-21-19.38c4.36-4.72,6.47-7.15,10.51-12.13l2.29,1.86c-3.24,4-4.91,5.95-8.35,9.77l6.84,6.15c3.35-3.72,5-5.62,8.14-9.5l2.27,1.85c-3.2,3.92-4.85,5.84-8.24,9.61l7.81,7c3.75-4.17,5.57-6.3,9.1-10.64Z"/><path class="bbea4b6d-8e06-4aee-b600-b4b37b723d80" d="M1029.39,991.56a2.73,2.73,0,0,1-1.16-1.74,2.54,2.54,0,0,1,.61-1.91,2.73,2.73,0,0,1,1.72-1.15,2.63,2.63,0,0,1,2,.62,2.55,2.55,0,0,1,1.13,1.75,2.73,2.73,0,0,1-.65,2,2.76,2.76,0,0,1-1.62,1.1A2.49,2.49,0,0,1,1029.39,991.56Z"/><path class="bbea4b6d-8e06-4aee-b600-b4b37b723d80" d="M1027.15,947.65l16,9.3a9.4,9.4,0,0,1,5,6.69c.48,2.83-.32,5.92-2.4,9.17s-4.55,5.2-7.28,5.86a9.72,9.72,0,0,1-8.11-1.89l-15-10.61c.77-1.09,1.15-1.64,1.91-2.74L1032.52,974a6.89,6.89,0,0,0,5.74,1.32c1.86-.48,3.58-1.9,5.1-4.26a8.71,8.71,0,0,0,1.64-6.25,6.94,6.94,0,0,0-3.61-4.68l-15.94-9.57C1026.13,949.38,1026.47,948.81,1027.15,947.65Z"/><path class="bbea4b6d-8e06-4aee-b600-b4b37b723d80" d="M1040.41,921.44l16.94,7.37a9.39,9.39,0,0,1,5.71,6.07c.8,2.76.37,5.94-1.33,9.41s-3.92,5.71-6.56,6.69a9.71,9.71,0,0,1-8.28-.93l-16.16-8.79c.64-1.18,1-1.77,1.58-3L1048.8,947a6.88,6.88,0,0,0,5.85.64c1.79-.69,3.34-2.31,4.57-4.84a8.75,8.75,0,0,0,.91-6.41,6.93,6.93,0,0,0-4.13-4.24l-17-7.64C1039.61,923.29,1039.88,922.68,1040.41,921.44Z"/><path class="bbea4b6d-8e06-4aee-b600-b4b37b723d80" d="M1067.56,925.19a2.72,2.72,0,0,1-1.59-1.36,2.56,2.56,0,0,1,.07-2,2.75,2.75,0,0,1,1.34-1.59,2.62,2.62,0,0,1,2.1,0,2.54,2.54,0,0,1,1.57,1.37,2.76,2.76,0,0,1-.08,2.1,2.79,2.79,0,0,1-1.26,1.51A2.48,2.48,0,0,1,1067.56,925.19Z"/><text class="22bb3147-6753-4cc3-9bb8-0ed1c718cfa0" transform="translate(1137.38 875.63)">AUSTRIA</text><path class="bbea4b6d-8e06-4aee-b600-b4b37b723d80" d="M1114.89,775c-3.86.91-5.78,1.35-9.64,2.18-.94,4.87-1.45,7.3-2.57,12.15,3.2,2.3,4.79,3.48,7.95,5.86-.35,1.46-.53,2.19-.9,3.64-8.13-6.39-16.57-12.54-25.15-18.31.24-1.12.36-1.68.59-2.79,10.17-1.79,20.37-4,30.38-6.49C1115.3,772.76,1115.17,773.51,1114.89,775Zm-12.79,2.7c-3.75.72-5.62,1.06-9.37,1.71a42.5,42.5,0,0,1-4.32.51,33.6,33.6,0,0,1,3.76,2.11c3.16,2.12,4.74,3.2,7.87,5.39C1100.93,783.56,1101.34,781.61,1102.11,777.72Z"/><path class="bbea4b6d-8e06-4aee-b600-b4b37b723d80" d="M1116.25,766.95l-28.21-4.4c.21-1.34.31-2,.5-3.34l25.28,3.67c.8-5.49,1.14-8.24,1.71-13.74l3,.31C1117.79,756.46,1117.34,760,1116.25,766.95Z"/><path class="bbea4b6d-8e06-4aee-b600-b4b37b723d80" d="M1120.14,726.53c-.26,7-.48,10.55-1.1,17.57l-28.44-2.52c.57-6.44.77-9.67,1-16.12l2.95.11c-.19,5.15-.34,7.73-.74,12.88l9.17.71c.39-5,.53-7.47.73-12.45l2.93.12c-.2,5-.35,7.54-.74,12.56l10.48.82c.43-5.51.59-8.27.79-13.79Z"/><path class="bbea4b6d-8e06-4aee-b600-b4b37b723d80" d="M1120.29,705.58c-10,4.51-15.07,6.61-25.23,10.5v.16q3-.26,7.15-.23l18.16.14c0,1.35,0,2,0,3.39l-28.55-.49c0-2,0-3,0-5.07,9.43-3.66,14.12-5.62,23.43-9.81V704c-9.53-3.7-14.32-5.42-23.94-8.57-.11-2-.18-3-.33-5l28.48-2.08c.11,1.46.16,2.19.25,3.66l-18.36,1.15q-3.16.2-6.88.15v.16c10.34,3.35,15.49,5.19,25.73,9.18C1120.25,703.81,1120.26,704.4,1120.29,705.58Z"/><path class="bbea4b6d-8e06-4aee-b600-b4b37b723d80" d="M1116.22,660.06c-3.35,2.11-5,3.15-8.4,5.19.71,4.87,1,7.32,1.54,12.21,3.77,1.11,5.66,1.69,9.42,2.89.14,1.48.21,2.22.34,3.69-9.77-3.33-19.75-6.32-29.75-8.93-.14-1.12-.21-1.68-.35-2.81,9-5,18-10.36,26.6-16C1115.87,657.81,1116,658.56,1116.22,660.06Zm-11.2,6.71c-3.31,1.9-5,2.83-8.3,4.65a42.72,42.72,0,0,1-3.91,1.88,33.9,33.9,0,0,1,4.25.75c3.68,1,5.52,1.45,9.2,2.48C1105.82,672.62,1105.57,670.66,1105,666.76Z"/><path class="bbea4b6d-8e06-4aee-b600-b4b37b723d80" d="M1109.62,627.91c.42,1.63.62,2.44,1,4.07-6.27,7.39-13,14.59-19.89,21.36l0,.16q4.08-1.1,7.54-1.76l15.94-3c.25,1.33.38,2,.62,3.33l-28.1,5.07c-.27-1.5-.41-2.25-.7-3.74,6.89-6.7,13.56-13.82,19.8-21.13l0-.17q-.5.17-3.25,1t-3.95,1.08l-15.92,3.9c-.3-1.23-.45-1.84-.77-3.06Z"/><path class="bbea4b6d-8e06-4aee-b600-b4b37b723d80" d="M1107.36,619.5l-27.48,7.76c-.37-1.3-.55-2-.94-3.25l27.4-8C1106.76,617.37,1107,618.08,1107.36,619.5Z"/><path class="bbea4b6d-8e06-4aee-b600-b4b37b723d80" d="M1097.12,588.79c-2.82,2.79-4.24,4.17-7.1,6.88,1.74,4.66,2.56,7,4.13,11.71,3.93.3,5.89.47,9.83.86.45,1.42.68,2.14,1.12,3.56-10.27-1.21-20.66-2.06-31-2.52-.37-1.08-.56-1.62-.95-2.69,7.76-6.82,15.33-14,22.56-21.38C1096.29,586.64,1096.57,587.35,1097.12,588.79Zm-9.51,9c-2.82,2.57-4.25,3.83-7.11,6.33a42.54,42.54,0,0,1-3.42,2.68,33.63,33.63,0,0,1,4.31-.15c3.8.17,5.71.27,9.52.51C1089.65,603.36,1089,601.49,1087.61,597.76Z"/><text class="22bb3147-6753-4cc3-9bb8-0ed1c718cfa0" transform="translate(988.38 1104.62)">ESLOVENIA</text><g id="6adbb43c-38dc-483a-8ef0-1dc68927c949" data-name="chords-container"><path id="6e2d0d10-2ebb-49dc-833e-ec423731aa29" data-name="chords id" class="d9116420-5d73-4e3c-9761-9e2f51a5c023" d="M658.21,1116.57C441.47,1119.8,263.14,946.7,259.92,730c-3.14-211.38,161.7-387.28,372.84-397.85Q652.38,724.11,658.21,1116.57Z"/><g class="a0c150ba-e5fb-4aa1-859f-79d629b14b6b"><text class="b51cdd38-a2e3-4b10-985c-7d65782b1df4" transform="translate(258.38 736.03)">1,856,964</text><text class="b51cdd38-a2e3-4b10-985c-7d65782b1df4" transform="translate(258.38 736.03)">1,856,964</text><text class="cf17be6c-d8b2-455d-8bb5-c324a4c30a0f" transform="translate(258.38 736.03)">1,856,964</text><text class="cf17be6c-d8b2-455d-8bb5-c324a4c30a0f" transform="translate(258.38 736.03)">1,856,964</text></g><path id="f1307cb0-23f5-4000-b8f8-c2766a0b9b99" data-name="chords id" class="f0a413f0-5e4b-4eab-ac95-8bd68f999714" d="M652.38,331.61a392.5,392.5,0,0,1,240.45,82.27Q652.38,724.11,632.76,332.11,652.38,724.11,652.38,331.61Z"/><g class="a0c150ba-e5fb-4aa1-859f-79d629b14b6b"><text class="b51cdd38-a2e3-4b10-985c-7d65782b1df4" transform="translate(749.67 376.41)">394,146</text><text class="b51cdd38-a2e3-4b10-985c-7d65782b1df4" transform="translate(630.67 357.07)">0</text><text class="e2341f74-6e8d-4181-8084-f26fb3e47fa5" transform="translate(749.67 376.41)">394,146</text><text class="cf17be6c-d8b2-455d-8bb5-c324a4c30a0f" transform="translate(630.67 357.07)">0</text></g><path id="98db88f9-6a91-4e82-9ad2-4d5a331609a4" data-name="chords id" class="de8ba118-b970-4200-a016-0c0915d195eb" d="M908,426.29A392.5,392.5,0,0,1,1027,606.91Q652.38,724.11,632.76,332.11,652.38,724.11,908,426.29Z"/><g class="a0c150ba-e5fb-4aa1-859f-79d629b14b6b"><text class="b51cdd38-a2e3-4b10-985c-7d65782b1df4" transform="translate(937.62 522)">333,687</text><text class="b51cdd38-a2e3-4b10-985c-7d65782b1df4" transform="translate(630.67 357.07)">0</text><text class="90f03ab7-f4a0-4691-b62a-c4b85cd8ad9c" transform="translate(937.62 522)">333,687</text><text class="cf17be6c-d8b2-455d-8bb5-c324a4c30a0f" transform="translate(630.67 357.07)">0</text></g><path id="85139c4d-ac20-42f9-ae8d-c52337ef1149" data-name="chords id" class="6a01008c-4fff-4465-bbf6-fad4bf043fbd" d="M880.27,1043.68a392.5,392.5,0,0,1-202.45,72.11q-25.44-391.67-45.06-783.68Q652.38,724.11,880.27,1043.68Z"/><g class="a0c150ba-e5fb-4aa1-859f-79d629b14b6b"><text class="b51cdd38-a2e3-4b10-985c-7d65782b1df4" transform="translate(754 1070.31)">331,540</text><text class="b51cdd38-a2e3-4b10-985c-7d65782b1df4" transform="translate(630.67 357.07)">0</text><text class="df22eab8-6059-4870-8172-f410bf449c1f" transform="translate(754 1070.31)">331,540</text><text class="cf17be6c-d8b2-455d-8bb5-c324a4c30a0f" transform="translate(630.67 357.07)">0</text></g><path id="8e9aa4fb-d56d-4ba7-8b1b-79345ce83364" data-name="chords id" class="f5ba6411-b811-41c7-9989-d87d33d564d3" d="M1032.36,625.78a392.5,392.5,0,0,1,11.19,130.56Q652.38,724.11,632.76,332.11,652.38,724.11,1032.36,625.78Z"/><g class="a0c150ba-e5fb-4aa1-859f-79d629b14b6b"><text class="b51cdd38-a2e3-4b10-985c-7d65782b1df4" transform="translate(996.85 692.73)">200,510</text><text class="b51cdd38-a2e3-4b10-985c-7d65782b1df4" transform="translate(630.67 357.07)">0</text><text class="7d892142-9752-43a3-97e9-8c3e4b81091b" transform="translate(996.85 692.73)">200,510</text><text class="cf17be6c-d8b2-455d-8bb5-c324a4c30a0f" transform="translate(630.67 357.07)">0</text></g><path id="85984ceb-3e0e-4c9e-a5e1-60ee9692c428" data-name="chords id" class="202006c6-b79d-41dc-abde-655376abc99f" d="M1041.45,775.85a392.5,392.5,0,0,1-30.37,107.6Q652.38,724.11,632.76,332.11,652.38,724.11,1041.45,775.85Z"/><g class="a0c150ba-e5fb-4aa1-859f-79d629b14b6b"><text class="b51cdd38-a2e3-4b10-985c-7d65782b1df4" transform="translate(984.37 823.95)">170,864</text><text class="b51cdd38-a2e3-4b10-985c-7d65782b1df4" transform="translate(630.67 357.07)">0</text><text class="6b65efa7-8162-420b-893e-595109f92da6" transform="translate(984.37 823.95)">170,864</text><text class="cf17be6c-d8b2-455d-8bb5-c324a4c30a0f" transform="translate(630.67 357.07)">0</text></g><path id="c6944d39-1e4e-4968-a919-8c92b258ab9e" data-name="chords id" class="d7ede131-5549-4b44-974f-5f6cf65b04df" d="M1002.67,901.19a392.5,392.5,0,0,1-44.57,69.08Q652.38,724.11,632.76,332.11,652.38,724.11,1002.67,901.19Z"/><g class="a0c150ba-e5fb-4aa1-859f-79d629b14b6b"><text class="b51cdd38-a2e3-4b10-985c-7d65782b1df4" transform="translate(939.5 923.34)">125,442</text><text class="b51cdd38-a2e3-4b10-985c-7d65782b1df4" transform="translate(630.67 357.07)">0</text><text class="234be143-dda9-429a-82e3-33ee07dbf2d9" transform="translate(939.5 923.34)">125,442</text><text class="cf17be6c-d8b2-455d-8bb5-c324a4c30a0f" transform="translate(630.67 357.07)">0</text></g><path id="e2f2534c-01d0-456a-b3ba-523c12314f0c" data-name="chords id" class="65813b3b-4fe8-4751-9a7e-875ac945d563" d="M945.41,985.24A392.5,392.5,0,0,1,896,1031.89Q652.38,724.11,632.76,332.11,652.38,724.11,945.41,985.24Z"/><g class="a0c150ba-e5fb-4aa1-859f-79d629b14b6b"><text class="b51cdd38-a2e3-4b10-985c-7d65782b1df4" transform="translate(882.86 991.45)">103,663</text><text class="b51cdd38-a2e3-4b10-985c-7d65782b1df4" transform="translate(630.67 357.07)">0</text><text class="edda63e7-98e9-458e-b53c-e0bfd1791826" transform="translate(882.86 991.45)">103,663</text><text class="cf17be6c-d8b2-455d-8bb5-c324a4c30a0f" transform="translate(630.67 357.07)">0</text></g></g><g id="9f61520d-8d70-4f91-ae16-5bbb5a6f3d5b" data-name="arcs-container"><path class="f0a413f0-5e4b-4eab-ac95-8bd68f999714" d="M652.38,306.61a417.5,417.5,0,0,1,255.76,87.51l-12.25,15.81a397.5,397.5,0,0,0-243.51-83.32Z"/><path id="61ee63a5-6621-4854-a5b9-4087aca1364d" data-name="label name0" class="f3248df4-9a62-4e21-a93c-b11ccf625464" d="M257.36,589C332,370.77,569.29,254.37,787.47,329s334.58,311.93,260,530.11l-.07.2"/><path class="de8ba118-b970-4200-a016-0c0915d195eb" d="M924.31,407.32a417.5,417.5,0,0,1,126.52,192.13l-19.09,6A397.5,397.5,0,0,0,911.29,422.5Z"/><path id="810ad162-374d-4219-a293-56a658c47cc6" data-name="label name1" class="f3248df4-9a62-4e21-a93c-b11ccf625464" d="M422.76,375.43c192.57-126.82,451.49-73.52,578.31,119.05S1074.59,946,882,1072.79l0,0"/><path class="f5ba6411-b811-41c7-9989-d87d33d564d3" d="M1056.56,619.52a417.5,417.5,0,0,1,11.9,138.88l-19.93-1.64a397.5,397.5,0,0,0-11.33-132.22Z"/><path id="573e2940-2fc8-4578-a58a-3b376866be57" data-name="label name2" class="f3248df4-9a62-4e21-a93c-b11ccf625464" d="M616.72,308.14c229.74-19.69,431.94,150.58,451.63,380.32S917.77,1120.4,688,1140.09"/><path class="202006c6-b79d-41dc-abde-655376abc99f" d="M1066.23,779.15a417.5,417.5,0,0,1-32.31,114.46l-18.28-8.12a397.5,397.5,0,0,0,30.76-109Z"/><path id="65d31485-7331-4694-9ad7-9f4e616faa8b" data-name="label name3" class="f3248df4-9a62-4e21-a93c-b11ccf625464" d="M539,1125.91c221.9,62.68,452.59-66.39,515.27-288.29S987.84,385,765.94,322.36l-.15,0"/><path class="d7ede131-5549-4b44-974f-5f6cf65b04df" d="M1025,912.46a417.5,417.5,0,0,1-47.41,73.49L962,973.41a397.5,397.5,0,0,0,45.14-70Z"/><path id="ae8c9bf1-74a2-40e0-8265-37862795059a" data-name="label name4" class="f3248df4-9a62-4e21-a93c-b11ccf625464" d="M426,1074.94c193.74,125,452.15,69.31,577.17-124.43s69.31-452.15-124.43-577.17l-.07,0"/><g id="590d330d-c646-4bdb-9934-6b0b631c135a" data-name="length4"><text class="f830f3fb-e02e-48e8-9e9c-6f74114efa92" transform="translate(994.68 983.65)"> </text><text class="f830f3fb-e02e-48e8-9e9c-6f74114efa92" transform="translate(1016.47 952.03)"> </text></g><path class="65813b3b-4fe8-4751-9a7e-875ac945d563" d="M964.07,1001.87a417.5,417.5,0,0,1-52.6,49.62l-12.41-15.68a397.5,397.5,0,0,0,50.08-47.24Z"/><path id="5f306082-0f35-4c48-8258-8906dc25b20a" data-name="label name5" class="f3248df4-9a62-4e21-a93c-b11ccf625464" d="M348.67,1010.59c158.22,167.73,422.45,175.45,590.18,17.24s175.45-422.45,17.24-590.18"/><path class="6a01008c-4fff-4465-bbf6-fad4bf043fbd" d="M894.79,1064a417.5,417.5,0,0,1-215.35,76.71l-1.3-20a397.5,397.5,0,0,0,205-73Z"/><path id="ad717764-ba05-46be-9a1e-0e053ac63424" data-name="label name6" class="f3248df4-9a62-4e21-a93c-b11ccf625464" d="M259.08,864.2c77.37,217.21,316.17,330.57,533.39,253.21S1123,801.24,1045.67,584"/><path class="d9116420-5d73-4e3c-9761-9e2f51a5c023" d="M658.58,1141.57C428,1145,238.35,960.88,234.92,730.32c-3.34-224.85,172-411.95,396.59-423.19l1,20C413.25,338.08,244.4,524.72,255.37,744c10.7,213.83,188.84,380.77,402.91,377.59Z"/><path id="20f2e5a6-7532-449a-9b4b-498e4080d8d8" data-name="label name7" class="f3248df4-9a62-4e21-a93c-b11ccf625464" d="M638.84,306.83C408.38,314.29,227.6,507.16,235.06,737.62s200.33,411.24,430.78,403.78h.07"/></g><path class="bbea4b6d-8e06-4aee-b600-b4b37b723d80" d="M256.3,486.59c-2.11-1.36-3.07-3.51-2.8-6.47s1.68-6.34,4.27-10.09a35.84,35.84,0,0,1,7.68-8.56l2.59,1.88a37.52,37.52,0,0,0-4.2,3.84,38.7,38.7,0,0,0-3.77,4.63c-1.82,2.64-2.82,4.87-3,6.67a3.82,3.82,0,0,0,1.59,3.93,3.54,3.54,0,0,0,2.5.63,7.72,7.72,0,0,0,3-1.38,55.35,55.35,0,0,0,4.89-3.94c2.92-2.55,5.4-4.09,7.4-4.63a6.21,6.21,0,0,1,5.54,1c1.78,1.29,2.52,3.25,2.25,5.86a18.74,18.74,0,0,1-3.55,8.48,37.34,37.34,0,0,1-7.21,8l-1.66-2.75a34.36,34.36,0,0,0,6.47-7,12.12,12.12,0,0,0,2.3-5.3,3.49,3.49,0,0,0-1.38-3.49,3.74,3.74,0,0,0-2.43-.78,6.69,6.69,0,0,0-2.91,1.12,36.72,36.72,0,0,0-4.61,3.6c-3.25,2.87-5.79,4.66-7.68,5.31A5.81,5.81,0,0,1,256.3,486.59Z"/><path class="bbea4b6d-8e06-4aee-b600-b4b37b723d80" d="M233.92,509.08c4.37-7.85,6.67-11.76,11.49-19.5l24.31,15c-4.52,7.26-6.67,10.91-10.77,18.27l-2.59-1.42c3.27-5.86,5-8.78,8.49-14.58L257,502.08c-3.39,5.57-5,8.37-8.17,14l-2.57-1.42c3.17-5.66,4.82-8.48,8.23-14.08l-9-5.42c-3.72,6.11-5.51,9.18-8.94,15.36Z"/><path class="bbea4b6d-8e06-4aee-b600-b4b37b723d80" d="M222.48,566.26a13.71,13.71,0,0,1-7.38-6.11,14.44,14.44,0,0,1-1.27-9.7c-4.08,2.32-6.12,3.51-10.17,6,1-2.48,1.52-3.72,2.57-6.19,3.59-1.86,5.39-2.77,9-4.54l.57-1.37c2.37-5.29,5.49-8.83,9.18-10.56s7.66-1.52,11.87.54,6.73,5,7.73,8.81.35,8.15-1.87,13.11-5,8.1-8.51,9.87S226.75,567.94,222.48,566.26Zm12.26-27.74c-3.49-1.66-6.64-1.92-9.42-.73s-5.09,3.76-6.85,7.69-2.14,7.35-1.15,10.13,3.31,4.88,6.91,6.34,6.67,1.56,9.32.4,4.77-3.6,6.44-7.34,2.1-7,1.22-9.8S238.19,540.16,234.74,538.52Z"/><path class="bbea4b6d-8e06-4aee-b600-b4b37b723d80" d="M224,604.85l-17.73-5.32a8.78,8.78,0,0,1-6.2-6c-1-3.06-.77-6.81.74-11.2s3.63-7.48,6.27-9.22a9.07,9.07,0,0,1,8.59-.87l17.26,6.43c-.6,1.58-.9,2.37-1.48,4l-17.55-6.34a6.4,6.4,0,0,0-6.07.6c-1.8,1.22-3.27,3.44-4.37,6.64s-1.21,5.62-.51,7.66a6.38,6.38,0,0,0,4.49,4.12l17.78,5.53C224.73,602.46,224.48,603.25,224,604.85Z"/><path class="bbea4b6d-8e06-4aee-b600-b4b37b723d80" d="M188.54,626.84c1.88-8.22,2.92-12.32,5.22-20.51l27.58,7.61c-2.15,7.67-3.12,11.51-4.89,19.21l-2.88-.65c1.4-6.14,2.17-9.2,3.81-15.32l-8.91-2.36c-1.58,5.87-2.32,8.81-3.68,14.7l-2.86-.65c1.37-5.93,2.11-8.89,3.7-14.8l-10.17-2.7c-1.73,6.44-2.54,9.67-4,16.13Z"/><path class="bbea4b6d-8e06-4aee-b600-b4b37b723d80" d="M196.08,666.52c-4.68-.65-8-2.76-10-6.42s-2.46-8.64-1.32-14.86c.75-4.09,1.16-6.14,2-10.23l28,5.8c-.89,4.24-1.3,6.36-2.07,10.6-1,5.38-2.85,9.36-5.74,12A12.72,12.72,0,0,1,196.08,666.52Zm.52-4.42c3.69.55,6.64-.2,8.87-2.2s3.71-5.23,4.54-9.73c.43-2.35.66-3.53,1.12-5.89l-22.43-4.41c-.41,2.08-.61,3.12-1,5.2-.95,5.09-.61,9.09.91,11.94S192.81,661.53,196.59,662.09Z"/><path class="bbea4b6d-8e06-4aee-b600-b4b37b723d80" d="M178.42,696c3.75-1.59,5.63-2.37,9.4-3.89.44-5.81.71-8.71,1.36-14.53-3.42-2.19-5.12-3.3-8.52-5.56.21-1.74.32-2.61.55-4.35,8.87,6,17.75,11.93,26.92,17.45-.13,1.36-.2,2-.32,3.39-10,3.66-19.92,7.66-29.66,11.95C178.25,698.68,178.3,697.79,178.42,696Zm12.49-5c3.67-1.39,5.5-2.06,9.18-3.38a38.86,38.86,0,0,1,4.26-1.25,30.42,30.42,0,0,1-4-1.91c-3.37-2-5-3-8.39-5.1C191.49,684.06,191.27,686.39,190.9,691Z"/><path class="bbea4b6d-8e06-4aee-b600-b4b37b723d80" d="M177.56,734.32c0-2-.06-2.93-.07-4.88,7.81-6.69,16-13.14,24.25-19.21V710q-4.24.22-7.76.09l-16.25-.62c.06-1.59.09-2.38.16-4l28.58,1.34c-.08,1.82-.12,2.73-.18,4.54-8.25,6-16.34,12.39-24.11,19v.2q.53-.05,3.39-.25t4.1-.16l16.41-.13c0,1.5,0,2.25.06,3.75Z"/><path class="bbea4b6d-8e06-4aee-b600-b4b37b723d80" d="M180.61,778c-1-8.09-1.36-12.15-2-20.3l28.53-2c.56,7.63.93,11.44,1.83,19l-2.93.33c-.72-6-1-9.07-1.53-15.14l-9.18.72c.48,5.83.77,8.74,1.45,14.54l-2.92.33c-.68-5.84-1-8.76-1.46-14.63l-10.49.82c.53,6.4.85,9.59,1.61,15.95Z"/><path class="bbea4b6d-8e06-4aee-b600-b4b37b723d80" d="M186.4,814.12c-.38-1.89-.57-2.84-.93-4.74,6.5-7.89,13.36-15.61,20.45-23l0-.19q-4.13,1-7.61,1.45l-16.09,2.27c-.23-1.55-.34-2.33-.55-3.88L210,782.31c.24,1.78.37,2.67.63,4.44-7.05,7.3-13.88,14.94-20.35,22.76l0,.19q.51-.14,3.29-.84t4-.88l16.12-3c.28,1.46.42,2.19.72,3.64Z"/><path class="bbea4b6d-8e06-4aee-b600-b4b37b723d80" d="M219.29,829.82c1,3.73,1.45,5.59,2.48,9.29,1.22,4.35,1.61,7.63,1.12,9.89a5.74,5.74,0,0,1-4.24,4.48,5.53,5.53,0,0,1-4.52-.42,8.92,8.92,0,0,1-3.51-4.24l-.19.05c.8,5.32-.55,8.54-4.2,9.68a6.74,6.74,0,0,1-6.68-1.35c-2-1.67-3.59-4.41-4.67-8.2-1.39-4.87-2.05-7.32-3.31-12.23Zm-10.84,6.92c.69,2.59,1,3.89,1.77,6.47.78,2.77,1.72,4.65,2.78,5.65a4,4,0,0,0,4.11.75,3.62,3.62,0,0,0,2.73-3c.29-1.52,0-3.71-.79-6.6-.63-2.26-.94-3.39-1.54-5.65Zm-2.72.71-10.34,2.7c.77,2.91,1.17,4.36,2,7.26a12.55,12.55,0,0,0,3.12,5.94,4.54,4.54,0,0,0,4.65.91,4.18,4.18,0,0,0,3.11-3.24c.38-1.65.14-3.91-.67-6.8C206.82,841.51,206.45,840.16,205.73,837.45Z"/><path class="bbea4b6d-8e06-4aee-b600-b4b37b723d80" d="M225.1,892.46c-4.23,1.73-8.11,1.77-11.62,0s-6.23-5.08-8-10-2-9.35-.48-12.9,4.53-6,9-7.47,8.28-1.22,11.59.57,5.78,5,7.52,9.72,1.86,8.57.47,12.1S229.34,890.73,225.1,892.46Zm-9.83-26.2c-3.67,1.23-6.12,3.13-7.33,5.74s-1.15,5.79.22,9.51,3.41,6.21,6,7.38,5.7,1,9.31-.43,5.91-3.41,7.05-5.93,1-5.53-.27-9.07-3.21-5.93-5.75-7.16S218.89,865.05,215.27,866.27Z"/><path class="bbea4b6d-8e06-4aee-b600-b4b37b723d80" d="M230.34,920.61a6.51,6.51,0,0,1-6.79-.55c-2.26-1.48-4.24-4-5.87-7.65a27.51,27.51,0,0,1-2.78-9.6l2.95-1.25a28.93,28.93,0,0,0,.84,4.89,29.77,29.77,0,0,0,1.71,4.9,12.23,12.23,0,0,0,3.78,5.2,3.88,3.88,0,0,0,4.07.41,3.84,3.84,0,0,0,1.88-1.71,6.69,6.69,0,0,0,.54-3,43.3,43.3,0,0,0-.53-5.52c-.48-3.37-.37-6,.27-7.75a6.61,6.61,0,0,1,3.87-3.91,6.08,6.08,0,0,1,6,.66,14.43,14.43,0,0,1,5,6.34,28.59,28.59,0,0,1,2.55,9.1l-3.14.14a26.32,26.32,0,0,0-2.15-8.09,9.36,9.36,0,0,0-3.06-4,3.57,3.57,0,0,0-3.6-.37,4.13,4.13,0,0,0-2,1.58,5.83,5.83,0,0,0-.68,2.76,29.24,29.24,0,0,0,.41,5.15c.56,3.78.62,6.56.11,8.34A6.09,6.09,0,0,1,230.34,920.61Z"/><path class="bbea4b6d-8e06-4aee-b600-b4b37b723d80" d="M240.32,955.43c-1-1.66-1.45-2.49-2.4-4.17,3.58-9.58,7.56-19.11,11.86-28.39l-.09-.17q-3.58,2.27-6.7,3.88L228.56,934c-.71-1.38-1.07-2.08-1.77-3.47l25.49-12.87c.8,1.59,1.21,2.39,2,4-4.29,9.2-8.26,18.65-11.83,28.15l.1.17q.43-.3,2.83-1.88t3.49-2.14l14.21-8.16c.73,1.28,1.1,1.92,1.85,3.2Z"/><path class="bbea4b6d-8e06-4aee-b600-b4b37b723d80" d="M245.44,964l24.31-15c.83,1.35,1.24,2,2.08,3.36l-24.17,15.21C246.76,966.14,246.32,965.42,245.44,964Z"/><path class="bbea4b6d-8e06-4aee-b600-b4b37b723d80" d="M266,994.69c1.86-3.61,2.81-5.41,4.73-9-3.31-4.64-4.94-7-8.1-11.72-4,.57-6,.84-10,1.34-.93-1.43-1.4-2.14-2.32-3.58,10.53-1.11,21.09-2.57,31.52-4.35l1.89,2.73c-5.33,9.17-10.39,18.57-15.13,28.06C267.55,996.8,267,996.1,266,994.69Zm6.41-11.76c1.93-3.4,2.9-5.09,4.88-8.44a39.5,39.5,0,0,1,2.47-3.68,30.72,30.72,0,0,1-4.23,1.13c-3.83.67-5.76,1-9.61,1.59C268.47,977.32,269.77,979.2,272.42,982.93Z"/><path class="bbea4b6d-8e06-4aee-b600-b4b37b723d80" d="M296.52,1010.48c6.77-.83,10.14-1.3,16.81-2.36,1.13,1.29,1.7,1.93,2.85,3.21-8.23,1.31-12.38,1.87-20.75,2.82l-8.41,7.22c-1.11-1.3-1.66-2-2.75-3.27l8.36-7c2.37-8.18,3.65-12.21,6.36-20.17,1.07,1.36,1.61,2,2.7,3.38C299.51,1000.68,298.48,1003.92,296.52,1010.48Z"/><path class="bbea4b6d-8e06-4aee-b600-b4b37b723d80" d="M327.36,1063.12c-1.26-1.14-1.88-1.72-3.13-2.87l9.1-9.91c-5.47-5.08-8.16-7.67-13.4-13l-9.51,9.51c-1.19-1.21-1.79-1.81-3-3l20.39-20c1.11,1.14,1.66,1.71,2.78,2.83l-8.6,8.6c5.21,5.26,7.87,7.84,13.31,12.88l8.23-9c1.17,1.08,1.75,1.62,2.93,2.69Z"/><path class="bbea4b6d-8e06-4aee-b600-b4b37b723d80" d="M350.57,1082.84c-6.41-5.09-9.56-7.7-15.71-13.06l18.66-21.66c5.77,5,8.71,7.47,14.72,12.23l-1.83,2.32c-4.79-3.8-7.14-5.74-11.78-9.69l-5.95,7c4.45,3.8,6.71,5.66,11.3,9.32l-1.82,2.3c-4.62-3.68-6.89-5.55-11.37-9.38l-6.79,8c4.88,4.17,7.36,6.21,12.41,10.21Z"/><path class="bbea4b6d-8e06-4aee-b600-b4b37b723d80" d="M367.49,1080.87l-7.09,9.55c-1.37-1-2.05-1.54-3.41-2.58l17.27-22.8c3,2.29,4.52,3.42,7.58,5.65,3.42,2.49,5.6,4.83,6.51,7.1a6.86,6.86,0,0,1-.89,6.75c-2.13,3.13-5.54,3.92-10.22,2.23.22,6.45.38,9.7.84,16.21-1.68-1.14-2.52-1.71-4.19-2.86-.24-6-.32-8.92-.36-14.82C371.09,1083.55,369.89,1082.66,367.49,1080.87Zm1.7-2.29c1.82,1.36,2.73,2,4.56,3.37,2.36,1.72,4.39,2.58,6,2.6a4.71,4.71,0,0,0,4.06-2.28,4.47,4.47,0,0,0,.66-4.53c-.63-1.47-2.16-3.07-4.58-4.83-1.7-1.24-2.54-1.86-4.22-3.12Z"/><path class="bbea4b6d-8e06-4aee-b600-b4b37b723d80" d="M402.13,1118.12c-8.82-5.16-13.15-7.86-21.61-13.49l1.44-2.17c9.54-2.73,19.05-5.84,28.36-9.27-6.17-3.72-9.21-5.64-15.19-9.61l1.65-2.5c7.57,5,11.44,7.44,19.32,12.06l-1.31,2.25c-9.26,3.54-18.74,6.75-28.25,9.58,6.73,4.37,10.16,6.48,17.12,10.55Z"/><path class="bbea4b6d-8e06-4aee-b600-b4b37b723d80" d="M426.75,1131.49c-7.47-3.75-11.14-5.71-18.38-9.79l14-24.94c6.78,3.82,10.22,5.65,17.22,9.17l-1.33,2.64c-5.57-2.8-8.33-4.25-13.77-7.24l-4.44,8.08c5.22,2.87,7.86,4.27,13.2,7L432,1119c-5.38-2.72-8-4.12-13.29-7l-5.07,9.23c5.73,3.15,8.63,4.68,14.5,7.63Z"/><path class="bbea4b6d-8e06-4aee-b600-b4b37b723d80" d="M455.29,1128.29c4.56,2,6.86,2.93,11.49,4.78l-5.2,12.91a47.27,47.27,0,0,1-6.08-1.29,53.88,53.88,0,0,1-6.77-2.47c-5.25-2.28-8.75-5.32-10.5-9s-1.55-7.6.48-11.78a13.91,13.91,0,0,1,5.43-6.06,14.48,14.48,0,0,1,8-1.92,26.33,26.33,0,0,1,9.63,2.35,35.22,35.22,0,0,1,9.13,5.62l-2.6,2.12a31.12,31.12,0,0,0-8-5.11c-4-1.72-7.48-2.17-10.57-1.31a10.84,10.84,0,0,0-7,6.25c-1.65,3.49-1.81,6.66-.43,9.5s4.28,5.25,8.69,7.15a38.56,38.56,0,0,0,7.31,2.33l3.37-8.14c-3.05-1.25-4.57-1.89-7.59-3.2Z"/><path class="bbea4b6d-8e06-4aee-b600-b4b37b723d80" d="M505.39,1147c-1.3,4.39-3.8,7.42-7.54,9s-8.3,1.57-13.54-.19-9-4.49-11-8-2-7.39-.34-11.77,4.34-7.19,7.94-8.59,7.86-1.23,12.89.46,8.34,4.07,10.39,7.42S506.7,1142.64,505.39,1147Zm-28.14-9.26c-1.35,3.63-1.37,6.76,0,9.38s4,4.63,8,6,7.38,1.36,10,.1,4.54-3.77,5.69-7.48,1-6.76-.37-9.27-3.93-4.36-7.72-5.63-7-1.34-9.64-.17S478.58,1134.19,477.25,1137.77Z"/><path class="bbea4b6d-8e06-4aee-b600-b4b37b723d80" d="M537.55,1140.5c1.8.39,2.7.58,4.51,1-6.33,8.47-12.94,16.8-19.76,24.88l-4.36-1.07c-2.17-10.26-4-20.67-5.51-31.05l4.31,1.2c1.24,8,1.95,12,3.5,20a44.89,44.89,0,0,1,.82,6.59,45.33,45.33,0,0,1,3.93-5.55C530.14,1150.16,532.65,1147,537.55,1140.5Z"/><path class="bbea4b6d-8e06-4aee-b600-b4b37b723d80" d="M541.43,1170.48l5.62-28,4.24.8L546,1171.33Z"/><path class="bbea4b6d-8e06-4aee-b600-b4b37b723d80" d="M587.93,1177c-2.15-.19-3.23-.29-5.37-.51-6.29-8.66-12.49-17.32-18.15-26.42l-.2,0q-.24,4.23-.78,7.71l-2.49,16-4.24-.65,4.65-28.19c1.94.31,2.91.46,4.86.74,5.56,9,11.61,17.81,18,26.25l.22,0q0-.53.1-3.4t.29-4.08l1.7-16.3,4.12.39Q589.27,1162.8,587.93,1177Z"/><path class="bbea4b6d-8e06-4aee-b600-b4b37b723d80" d="M625.14,1178.86c-2-3.65-3-5.49-5-9.16-6.54-.14-9.79-.27-16.25-.63-2.2,3.52-3.32,5.27-5.59,8.76l-4.8-.35c6-9.14,11.84-18.31,17.53-27.67l3.79.15c4.92,9.8,10,19.37,15.35,28.94C628.16,1178.89,627.16,1178.88,625.14,1178.86Zm-6.38-12.18c-1.79-3.58-2.66-5.38-4.37-9a36.27,36.27,0,0,1-1.67-4.19,28.54,28.54,0,0,1-1.87,4c-2,3.46-3,5.18-5.12,8.61C610.92,1166.45,613.52,1166.55,618.76,1166.68Z"/><path class="bbea4b6d-8e06-4aee-b600-b4b37b723d80" d="M990.33,441.2a7,7,0,0,1-6.2,2,12.71,12.71,0,0,1-6.8-3.87,20.56,20.56,0,0,1-4.83-6.43l2.18-2.35a23.39,23.39,0,0,0,2.06,3.55,22.83,22.83,0,0,0,2.72,3.23A8.91,8.91,0,0,0,984,440.1a4.13,4.13,0,0,0,3.72-1.2,4.33,4.33,0,0,0,1.31-2.14,5.61,5.61,0,0,0-.22-2.72,27.48,27.48,0,0,0-1.9-4.46,15.53,15.53,0,0,1-2-6.66,7.2,7.2,0,0,1,2.13-5,6.05,6.05,0,0,1,5.59-2,12,12,0,0,1,6.62,3.7,22,22,0,0,1,5,7.34l-2.88,1.17a19.93,19.93,0,0,0-4.26-6.46,7.76,7.76,0,0,0-4.05-2.38,3.59,3.59,0,0,0-3.35,1.14,4.53,4.53,0,0,0-1.25,2.17,5.52,5.52,0,0,0,.23,2.64,28.26,28.26,0,0,0,1.82,4.24c1.51,3,2.2,5.4,2.14,7.11A6.49,6.49,0,0,1,990.33,441.2Z"/><path class="bbea4b6d-8e06-4aee-b600-b4b37b723d80" d="M999.26,463c-4-5-6.12-7.45-10.44-12.23L1010,431.59c4.77,5.27,7.07,8,11.52,13.49l-2.3,1.85c-3.48-4.33-5.28-6.45-9-10.62l-6.9,6.09c3.36,3.8,5,5.73,8.18,9.67l-2.28,1.84c-3.15-3.9-4.77-5.81-8.09-9.57l-7.87,7c3.41,3.86,5.07,5.83,8.29,9.83Z"/><path class="bbea4b6d-8e06-4aee-b600-b4b37b723d80" d="M1014.73,463.56l-9.51,7.12c-.8-1.07-1.21-1.61-2-2.67l22.65-17.39c2.12,2.77,3.16,4.16,5.21,7,2.28,3.16,3.37,5.92,3.3,8.2a6.92,6.92,0,0,1-3.49,5.66c-3.14,2.1-6.38,1.8-9.78-.75-2.33,5.62-3.56,8.39-6.13,13.82-.87-1.32-1.31-2-2.2-3.29,2.37-5,3.5-7.5,5.67-12.63C1017,466.58,1016.24,465.56,1014.73,463.56Zm2.28-1.71c1.16,1.55,1.73,2.33,2.86,3.89,1.46,2,2.88,3.24,4.31,3.67a5.07,5.07,0,0,0,4.45-.93,4.55,4.55,0,0,0,2.33-3.82c0-1.48-.8-3.33-2.39-5.53-1.12-1.54-1.68-2.31-2.82-3.83Z"/><path class="bbea4b6d-8e06-4aee-b600-b4b37b723d80" d="M1041.6,473.16c1.92,3,2.86,4.56,4.69,7.65,2.15,3.63,3.15,6.57,3.06,8.76a5.76,5.76,0,0,1-3.37,5,6,6,0,0,1-4.41.66,7.64,7.64,0,0,1-4-2.81l-.17.1c1.63,4.38.68,7.48-2.68,9.29a7.37,7.37,0,0,1-6.52.51c-2.1-.85-3.91-2.62-5.48-5.32-2-3.47-3.07-5.19-5.22-8.58Zm-8.45,9.55c1.23,2,1.83,3,3,5s2.48,3.54,3.66,4.14a4.16,4.16,0,0,0,4.06-.37,3.65,3.65,0,0,0,2.1-3.33,12.31,12.31,0,0,0-2.09-5.74c-1.1-1.85-1.65-2.77-2.78-4.61Zm-2.39,1.48-9.09,5.61c1.27,2.07,1.9,3.11,3.13,5.2a9.1,9.1,0,0,0,3.81,3.95,4.92,4.92,0,0,0,4.54-.47,4.32,4.32,0,0,0,2.5-3.54,10.18,10.18,0,0,0-1.78-5.6C1032.64,487.27,1032,486.24,1030.76,484.19Z"/><path class="bbea4b6d-8e06-4aee-b600-b4b37b723d80" d="M1030.41,511.16l25.45-12.94c.67,1.32,1,2,1.66,3.31l-25.61,12.63C1031.32,513,1031,512.36,1030.41,511.16Z"/><path class="bbea4b6d-8e06-4aee-b600-b4b37b723d80" d="M1042.34,538.08c2.88-2.64,4.31-4,7.14-6.7-1.77-4.46-2.69-6.67-4.64-11-3.92.14-5.87.23-9.76.45-.57-1.23-.86-1.85-1.44-3.08,10.3-.71,20.75-1,31.07-.83.49,1.15.73,1.72,1.21,2.88-7.12,7.47-14.63,14.73-22.35,21.58C1043.08,540,1042.84,539.39,1042.34,538.08Zm9.51-8.82c2.76-2.62,4.13-3.95,6.85-6.64q1.28-1.29,3.24-2.93a37.48,37.48,0,0,1-4.32.36c-3.83,0-5.74.08-9.55.21C1049.64,523.83,1050.4,525.63,1051.85,529.26Z"/><path class="bbea4b6d-8e06-4aee-b600-b4b37b723d80" d="M723,266.7a10.67,10.67,0,0,0-8.38,2.92c-2,2.07-3,4.93-3,8.56s.93,6.62,2.74,8.68,4.36,3.12,7.7,3.26a30.28,30.28,0,0,0,7.09-.7l-.19,2.9a23.82,23.82,0,0,1-7.54.72c-4.29-.16-7.58-1.47-9.95-4s-3.64-6.16-3.69-10.86a15.57,15.57,0,0,1,1.74-7.75,12,12,0,0,1,5.35-5.1,17,17,0,0,1,8.34-1.58,20.64,20.64,0,0,1,8.76,2.13c-.71,1.09-1.06,1.64-1.76,2.74A17.47,17.47,0,0,0,723,266.7Z"/><path class="bbea4b6d-8e06-4aee-b600-b4b37b723d80" d="M739.79,282.05l-1.21,11.81-3.37-.32q1.28-14.22,2.56-28.44c3.52.32,5.28.5,8.78.92,3.92.47,6.71,1.56,8.36,3.16a6.88,6.88,0,0,1,1.82,6.41c-.6,3.73-3,5.9-7.26,6.66,2.58,5.54,3.79,8.32,6,13.9-1.57-.26-2.36-.39-3.94-.63-2.06-5.12-3.16-7.67-5.49-12.75C743.57,282.46,742.31,282.31,739.79,282.05Zm.29-2.84c1.95.2,2.92.31,4.86.54,2.5.3,4.39.09,5.68-.67A5,5,0,0,0,753,275.2a4.53,4.53,0,0,0-1.24-4.3c-1.11-1-3-1.68-5.75-2-1.91-.23-2.87-.33-4.79-.53Z"/><path class="bbea4b6d-8e06-4aee-b600-b4b37b723d80" d="M788.52,288.93c-1.25,4.4-3.41,7.51-6.38,9.42s-6.43,2.35-10.49,1.41-7.1-2.87-8.92-5.84-2.37-6.75-1.54-11.36,2.68-7.91,5.67-9.94,6.85-2.56,11.47-1.49,7.67,3.22,9.46,6.4S789.77,284.53,788.52,288.93Zm-23.65-5.64c-.73,3.8-.43,6.84.84,9.14s3.46,3.77,6.59,4.5,5.76.37,7.88-1.14,3.71-4.11,4.72-7.86.93-6.75-.29-9.12-3.55-4-7-4.78-6.27-.37-8.45,1.23S765.59,279.55,764.87,283.29Z"/><path class="bbea4b6d-8e06-4aee-b600-b4b37b723d80" d="M808,310.53c0-3.91-.08-5.87-.21-9.79-4.5-1.67-6.77-2.46-11.34-3.93-2.52,3-3.76,4.52-6.19,7.57l-3.26-1c6.35-8.15,13.14-16.11,20.17-23.67l3,1c.81,10.29,1.19,20.73,1.11,31.06Zm-.2-13c-.1-3.81-.18-5.71-.37-9.53q-.11-1.82,0-4.37a36.89,36.89,0,0,1-2.62,3.46c-2.53,2.87-3.78,4.32-6.24,7.24C802.25,295.57,804.1,296.21,807.78,297.56Z"/><path class="bbea4b6d-8e06-4aee-b600-b4b37b723d80" d="M837.39,294.9a10.53,10.53,0,0,0-8.79-.57c-2.67,1.11-4.7,3.36-6.13,6.69s-1.75,6.45-.91,9,2.75,4.57,5.76,6a30,30,0,0,0,6.77,2.12l-1.31,2.6a23.6,23.6,0,0,1-7.18-2.27c-3.86-1.82-6.34-4.3-7.5-7.57s-.89-7.08.9-11.42a15.7,15.7,0,0,1,4.62-6.45,11.94,11.94,0,0,1,6.87-2.61,16.79,16.79,0,0,1,8.23,1.79,20.5,20.5,0,0,1,7.19,5.37l-2.69,1.83A17.35,17.35,0,0,0,837.39,294.9Z"/><path class="bbea4b6d-8e06-4aee-b600-b4b37b723d80" d="M838.06,324.35l13.5-25.16c1.32.71,2,1.07,3.29,1.79L841,326Z"/><path class="bbea4b6d-8e06-4aee-b600-b4b37b723d80" d="M863.43,339.82c.86-3.82,1.27-5.74,2-9.6-4-2.7-6.07-4-10.2-6.51-3.16,2.33-4.71,3.52-7.8,5.92-1.18-.7-1.77-1-3-1.72,8.08-6.45,16.55-12.61,25.18-18.31l2.67,1.7c-1.56,10.22-3.58,20.49-6,30.54C865.17,341,864.59,340.62,863.43,339.82Zm2.77-12.69c.77-3.74,1.14-5.61,1.82-9.38q.31-1.8,1-4.26a36.75,36.75,0,0,1-3.36,2.75c-3.14,2.2-4.7,3.32-7.77,5.59C861.24,323.88,862.91,324.94,866.21,327.13Z"/><line class="b708f442-0a51-4d6c-9f6b-68bdd7b204ee" x1="930.76" y1="1054.8" x2="1200.79" y2="1054.8"/><line class="b708f442-0a51-4d6c-9f6b-68bdd7b204ee" x1="1065.78" y1="832.78" x2="1299.8" y2="832.78"/><text class="22bb3147-6753-4cc3-9bb8-0ed1c718cfa0" transform="translate(1040.7 1360.6)">LA VANGUARDIA</text><text class="22bb3147-6753-4cc3-9bb8-0ed1c718cfa0" transform="translate(11.6 1354.6)">Fuente: Naciones Unidas</text><text class="7683a2e8-48fa-4f3d-a9f7-c91e3729eb08" transform="translate(14.23 80.95)">¿Dónde vive la población de Bosnia y Herzegovina?</text><text class="22bb3147-6753-4cc3-9bb8-0ed1c718cfa0" transform="translate(130.47 136.98)">El <tspan class="e93948d6-333e-4408-8db4-02964cc038b6" x="43.82" y="0">47%</tspan><tspan x="127.56" y="0" xml:space="preserve"> de los 3,5 millones de bosnios vive en el extranjero</tspan></text></svg>