<svg id="301bb0ae-9262-4d3b-9376-85a0430c0629" data-name="Capa 1" xmlns="http://www.w3.org/2000/svg" viewBox="0 0 590 521.91"><defs><style>.\31 6615330-04f6-49d2-8290-c6d2780a57dc,.\33 11620ec-6dd6-4901-96e0-b98550e81085,.\34 35f84e1-ddfd-438e-9260-f3ab7807b058,.\36 65deef8-c8ba-4d30-a374-19c959a3707b,.\39 015a5aa-e771-409f-8ea6-efbb288e5370,.\39 f498e62-1a01-4ebd-bc51-c5b2c07baa8e,.b3dedee8-534c-4718-b078-f91349de28d4,.da3d69bf-5570-49c2-9a83-30d0733f0ff8,.efd232a4-db60-4724-9d1d-230a99578145,.f045eca9-3560-4cad-bcbb-1277c10a129f{fill:none;}.\34 35f84e1-ddfd-438e-9260-f3ab7807b058{stroke:#d9d9d9;}.\39 f498e62-1a01-4ebd-bc51-c5b2c07baa8e{stroke:#333;}.\37 5a42c9c-32b8-4958-bda3-f6e0c1ec743c,.da9654cb-f6e5-40d8-8245-283420c0a578{fill:#701538;}.da9654cb-f6e5-40d8-8245-283420c0a578{stroke:#701538;}.\32 d4b0f15-3564-4e1b-abba-fbd1298978c8,.\37 7a785ef-042f-4b03-ad12-a4bae73b2236,.da9654cb-f6e5-40d8-8245-283420c0a578{stroke-width:3px;}.\37 7a785ef-042f-4b03-ad12-a4bae73b2236,.da9654cb-f6e5-40d8-8245-283420c0a578{opacity:0.76;}.\34 f1fb862-77d9-41de-beee-f90a9735da49{fill:#387b94;stroke:#387b94;}.\34 9d4ae0d-5218-4e02-adb1-6fe6b020ae4f{fill:#afeeff;stroke:#afeeff;}.\32 d4b0f15-3564-4e1b-abba-fbd1298978c8,.\37 7a785ef-042f-4b03-ad12-a4bae73b2236,.\37 f1df100-7632-42be-8b9e-dc82ddaea1e8{fill:#159094;}.\32 d4b0f15-3564-4e1b-abba-fbd1298978c8,.\37 7a785ef-042f-4b03-ad12-a4bae73b2236{stroke:#159094;}.\32 d4b0f15-3564-4e1b-abba-fbd1298978c8{opacity:0.75;}.\31 6615330-04f6-49d2-8290-c6d2780a57dc,.\36 65deef8-c8ba-4d30-a374-19c959a3707b,.\39 015a5aa-e771-409f-8ea6-efbb288e5370,.b3dedee8-534c-4718-b078-f91349de28d4,.da3d69bf-5570-49c2-9a83-30d0733f0ff8,.efd232a4-db60-4724-9d1d-230a99578145,.f045eca9-3560-4cad-bcbb-1277c10a129f{stroke:#757575;}.efd232a4-db60-4724-9d1d-230a99578145{stroke-dasharray:4.24 4.24;}.b3dedee8-534c-4718-b078-f91349de28d4{stroke-dasharray:3.58 3.58;}.\36 65deef8-c8ba-4d30-a374-19c959a3707b{stroke-dasharray:3.92 3.92;}.\39 015a5aa-e771-409f-8ea6-efbb288e5370{stroke-dasharray:3.94 3.94;}.f045eca9-3560-4cad-bcbb-1277c10a129f{stroke-dasharray:3.8 3.8;}.bb1566ea-ff80-4451-80d4-b65639eaa8f1{fill:#d9d9d9;}.\31 6615330-04f6-49d2-8290-c6d2780a57dc{stroke-dasharray:4;}.\33 11620ec-6dd6-4901-96e0-b98550e81085{stroke:#323232;}.\35 1b678ef-cda8-481f-b2a8-aae2d6ab1ca8{font-size:24px;fill:#323232;}.\35 1b678ef-cda8-481f-b2a8-aae2d6ab1ca8,.\37 5a42c9c-32b8-4958-bda3-f6e0c1ec743c,.\37 f1df100-7632-42be-8b9e-dc82ddaea1e8,.e6c9f3bf-573e-4b9a-8d70-112a99d93eca,.fb5281d1-549f-474f-ab98-a4d6dd02e3bb{font-family:Arial-BoldMT, Arial;font-weight:700;}.\39 b84ad04-c9fc-43bd-9e5d-ed814f54da01{font-size:13px;}.\39 b84ad04-c9fc-43bd-9e5d-ed814f54da01,.e6c9f3bf-573e-4b9a-8d70-112a99d93eca,.fb5281d1-549f-474f-ab98-a4d6dd02e3bb,.fec80593-02fd-48c4-a832-3d0412a67d46,.fed93228-0d42-4f74-ad5d-590820f92809{fill:#757575;}.\39 b84ad04-c9fc-43bd-9e5d-ed814f54da01,.fec80593-02fd-48c4-a832-3d0412a67d46,.fed93228-0d42-4f74-ad5d-590820f92809{font-family:ArialMT, Arial;}.fed93228-0d42-4f74-ad5d-590820f92809{font-size:14px;}.\37 5a42c9c-32b8-4958-bda3-f6e0c1ec743c,.\37 f1df100-7632-42be-8b9e-dc82ddaea1e8,.fb5281d1-549f-474f-ab98-a4d6dd02e3bb{font-size:16px;}.e6c9f3bf-573e-4b9a-8d70-112a99d93eca{font-size:15px;}.fec80593-02fd-48c4-a832-3d0412a67d46{font-size:12px;}.\32 ba3487c-21a7-4c6e-a313-147408934700{letter-spacing:-0.06em;}.\34 64997dc-3e02-4c4f-9187-7133396518d3{letter-spacing:-0.07em;}</style></defs><title>2018.01_PiramidePoblacion</title><path class="435f84e1-ddfd-438e-9260-f3ab7807b058" d="M397.68,55.56V469" transform="translate(-3 -4.09)"/><path class="435f84e1-ddfd-438e-9260-f3ab7807b058" d="M368.24,55.56V470" transform="translate(-3 -4.09)"/><path class="435f84e1-ddfd-438e-9260-f3ab7807b058" d="M339,55.56V470" transform="translate(-3 -4.09)"/><path class="435f84e1-ddfd-438e-9260-f3ab7807b058" d="M456.64,58.94V469" transform="translate(-3 -4.09)"/><path class="435f84e1-ddfd-438e-9260-f3ab7807b058" d="M427.2,55.56V469" transform="translate(-3 -4.09)"/><path class="9f498e62-1a01-4ebd-bc51-c5b2c07baa8e" d="M309.52,55.56V247" transform="translate(-3 -4.09)"/><rect class="da9654cb-f6e5-40d8-8245-283420c0a578" x="307.67" y="230.35" width="76.38" height="3.26"/><rect class="da9654cb-f6e5-40d8-8245-283420c0a578" x="307.67" y="221.38" width="76.38" height="3.26"/><rect class="da9654cb-f6e5-40d8-8245-283420c0a578" x="307.67" y="212.4" width="73.44" height="3.26"/><rect class="da9654cb-f6e5-40d8-8245-283420c0a578" x="307.67" y="203.63" width="70.49" height="3.26"/><rect class="da9654cb-f6e5-40d8-8245-283420c0a578" x="307.67" y="194.66" width="79.33" height="3.26"/><rect class="da9654cb-f6e5-40d8-8245-283420c0a578" x="307.67" y="185.68" width="94.05" height="3.26"/><rect class="da9654cb-f6e5-40d8-8245-283420c0a578" x="307.67" y="176.91" width="102.88" height="3.26"/><rect class="da9654cb-f6e5-40d8-8245-283420c0a578" x="307.67" y="167.94" width="102.88" height="3.26"/><rect class="da9654cb-f6e5-40d8-8245-283420c0a578" x="307.67" y="158.96" width="102.88" height="3.26"/><rect class="da9654cb-f6e5-40d8-8245-283420c0a578" x="307.67" y="150.19" width="102.88" height="3.26"/><rect class="da9654cb-f6e5-40d8-8245-283420c0a578" x="307.67" y="141.22" width="108.77" height="3.26"/><rect class="da9654cb-f6e5-40d8-8245-283420c0a578" x="307.67" y="132.45" width="108.77" height="3.26"/><rect class="da9654cb-f6e5-40d8-8245-283420c0a578" x="307.67" y="123.47" width="102.88" height="3.26"/><rect class="da9654cb-f6e5-40d8-8245-283420c0a578" x="307.67" y="114.5" width="88.16" height="3.26"/><rect class="da9654cb-f6e5-40d8-8245-283420c0a578" x="307.67" y="105.73" width="67.55" height="3.26"/><rect class="da9654cb-f6e5-40d8-8245-283420c0a578" x="307.67" y="96.75" width="61.66" height="3.26"/><rect class="da9654cb-f6e5-40d8-8245-283420c0a578" x="307.67" y="87.78" width="50.05" height="3.26"/><rect class="da9654cb-f6e5-40d8-8245-283420c0a578" x="307.67" y="79.01" width="29.44" height="3.26"/><rect class="da9654cb-f6e5-40d8-8245-283420c0a578" x="307.67" y="70.03" width="14.72" height="3.26"/><polygon class="4f1fb862-77d9-41de-beee-f90a9735da49" points="306.52 64.52 306.52 64.52 306.52 67.79 306.52 64.52"/><polygon class="49d4ae0d-5218-4e02-adb1-6fe6b020ae4f" points="306.52 61.06 306.52 61.06 306.52 64.32 306.52 61.06"/><polygon class="4f1fb862-77d9-41de-beee-f90a9735da49" points="306.52 55.75 306.52 55.75 306.52 59.02 306.52 55.75"/><polygon class="49d4ae0d-5218-4e02-adb1-6fe6b020ae4f" points="306.52 52.29 306.52 52.29 306.52 55.55 306.52 52.29"/><path class="435f84e1-ddfd-438e-9260-f3ab7807b058" d="M250.28,55V469.83" transform="translate(-3 -4.09)"/><path class="435f84e1-ddfd-438e-9260-f3ab7807b058" d="M220.84,55V469.83" transform="translate(-3 -4.09)"/><path class="435f84e1-ddfd-438e-9260-f3ab7807b058" d="M191.56,55V469.83" transform="translate(-3 -4.09)"/><path class="435f84e1-ddfd-438e-9260-f3ab7807b058" d="M279.8,55V469.83" transform="translate(-3 -4.09)"/><path class="435f84e1-ddfd-438e-9260-f3ab7807b058" d="M161.84,55V469.83" transform="translate(-3 -4.09)"/><path class="435f84e1-ddfd-438e-9260-f3ab7807b058" d="M132.4,55V469.83" transform="translate(-3 -4.09)"/><path class="435f84e1-ddfd-438e-9260-f3ab7807b058" d="M103.12,55V469.83" transform="translate(-3 -4.09)"/><path class="435f84e1-ddfd-438e-9260-f3ab7807b058" d="M74,57.17V469" transform="translate(-3 -4.09)"/><path class="435f84e1-ddfd-438e-9260-f3ab7807b058" d="M515.6,58.94V470" transform="translate(-3 -4.09)"/><path class="435f84e1-ddfd-438e-9260-f3ab7807b058" d="M486.16,58.94V469" transform="translate(-3 -4.09)"/><path class="435f84e1-ddfd-438e-9260-f3ab7807b058" d="M545.12,58.94V469" transform="translate(-3 -4.09)"/><path class="435f84e1-ddfd-438e-9260-f3ab7807b058" d="M574,52.56V469" transform="translate(-3 -4.09)"/><rect class="2d4b0f15-3564-4e1b-abba-fbd1298978c8" x="225.66" y="230.19" width="79.33" height="3.26"/><rect class="2d4b0f15-3564-4e1b-abba-fbd1298978c8" x="222.71" y="221.22" width="82.27" height="3.26"/><rect class="2d4b0f15-3564-4e1b-abba-fbd1298978c8" x="228.6" y="212.24" width="76.38" height="3.26"/><rect class="2d4b0f15-3564-4e1b-abba-fbd1298978c8" x="228.6" y="203.47" width="76.38" height="3.26"/><rect class="2d4b0f15-3564-4e1b-abba-fbd1298978c8" x="222.71" y="194.5" width="82.27" height="3.26"/><rect class="2d4b0f15-3564-4e1b-abba-fbd1298978c8" x="205.05" y="185.52" width="99.93" height="3.26"/><rect class="2d4b0f15-3564-4e1b-abba-fbd1298978c8" x="199.16" y="176.75" width="105.82" height="3.26"/><rect class="2d4b0f15-3564-4e1b-abba-fbd1298978c8" x="202.1" y="167.78" width="102.88" height="3.26"/><rect class="2d4b0f15-3564-4e1b-abba-fbd1298978c8" x="202.1" y="158.8" width="102.88" height="3.26"/><rect class="2d4b0f15-3564-4e1b-abba-fbd1298978c8" x="205.05" y="150.03" width="99.93" height="3.26"/><rect class="2d4b0f15-3564-4e1b-abba-fbd1298978c8" x="202.1" y="141.06" width="102.88" height="3.26"/><rect class="2d4b0f15-3564-4e1b-abba-fbd1298978c8" x="205.05" y="132.29" width="99.93" height="3.26"/><rect class="2d4b0f15-3564-4e1b-abba-fbd1298978c8" x="216.82" y="123.31" width="88.16" height="3.26"/><rect class="2d4b0f15-3564-4e1b-abba-fbd1298978c8" x="231.54" y="114.34" width="73.44" height="3.26"/><rect class="2d4b0f15-3564-4e1b-abba-fbd1298978c8" x="251.99" y="105.57" width="52.99" height="3.26"/><rect class="2d4b0f15-3564-4e1b-abba-fbd1298978c8" x="263.76" y="96.59" width="41.22" height="3.26"/><rect class="2d4b0f15-3564-4e1b-abba-fbd1298978c8" x="275.54" y="87.62" width="29.44" height="3.26"/><rect class="2d4b0f15-3564-4e1b-abba-fbd1298978c8" x="290.26" y="78.84" width="14.72" height="3.26"/><rect class="2d4b0f15-3564-4e1b-abba-fbd1298978c8" x="299.09" y="69.87" width="5.89" height="3.26"/><path class="da3d69bf-5570-49c2-9a83-30d0733f0ff8" d="M229.77,237.93,212,228.82,206,219.72v-9.11l-3-9.11-3-9.11-3-9.11-3-9.11,5.93-9.11L209,156l20.77-9.11,3-9.11,5.93-9.11,8.9-9.11,14.84-9.11,23.74-9.11,8.9-9.11L301,83.13,306.92,74l3-9.11V55.81" transform="translate(-3 -4.09)"/><path class="da3d69bf-5570-49c2-9a83-30d0733f0ff8" d="M309.89,55.69V64.8l8.79,9.11L333.32,83l8.79,9.11,14.64,9.11,26.36,9.11,5.86,9.11,2.93,9.11,2.93,9.11-2.93,9.11,20.5,9.11,5.86,9.11,5.86,9.11-2.93,9.11-5.86,9.11-5.86,9.11V219.7l-8.79,9.11L386,237.93" transform="translate(-3 -4.09)"/><line class="da3d69bf-5570-49c2-9a83-30d0733f0ff8" x1="236.82" y1="233.48" x2="236.21" y2="231.58"/><polyline class="efd232a4-db60-4724-9d1d-230a99578145" points="234.93 227.54 233.93 224.39 231.04 215.29 225.26 206.2 222.37 197.11 222.37 188.01 225.26 178.92 226.9 173.75"/><polyline class="da3d69bf-5570-49c2-9a83-30d0733f0ff8" points="227.54 171.73 228.15 169.82 227.07 168.14"/><polyline class="b3dedee8-534c-4718-b078-f91349de28d4" points="225.15 165.11 222.37 160.73 210.81 151.64 207.07 145.74"/><polyline class="da3d69bf-5570-49c2-9a83-30d0733f0ff8" points="206.11 144.23 205.03 142.54 206.11 140.85"/><polyline class="665deef8-c8ba-4d30-a374-19c959a3707b" points="208.21 137.55 210.81 133.45 216.59 124.35 222.37 115.26 228.15 106.17 242.59 97.07 262.82 87.98 280.16 78.88 294.6 69.79 303.27 60.69 304.96 55.37"/><line class="da3d69bf-5570-49c2-9a83-30d0733f0ff8" x1="305.55" y1="53.51" x2="306.16" y2="51.6"/><line class="da3d69bf-5570-49c2-9a83-30d0733f0ff8" x1="306.16" y1="51.6" x2="307.23" y2="53.29"/><polyline class="9015a5aa-e771-409f-8ea6-efbb288e5370" points="309.35 56.61 311.97 60.71 326.48 69.82 349.71 78.93 372.93 88.05 393.25 97.16 401.96 106.27 401.96 115.38 404.87 124.49 407.77 133.6 407.77 142.72 404.87 151.83 390.35 160.94 384.39 167.18"/><polyline class="da3d69bf-5570-49c2-9a83-30d0733f0ff8" points="383.02 168.6 381.64 170.05 382.25 171.96"/><polyline class="f045eca9-3560-4cad-bcbb-1277c10a129f" points="383.4 175.57 384.55 179.16 387.45 188.28 387.45 197.39 381.64 206.5 378.74 215.61 372.93 224.72 372.93 229.94"/><line class="da3d69bf-5570-49c2-9a83-30d0733f0ff8" x1="372.93" y1="231.83" x2="372.93" y2="233.83"/><line class="435f84e1-ddfd-438e-9260-f3ab7807b058" x1="42" y1="465.91" x2="42" y2="274.02"/><path class="bb1566ea-ff80-4451-80d4-b65639eaa8f1" d="M45,272.08a30.22,30.22,0,0,0,4.76,8.55L45,278.91l-4.75,1.72A30.2,30.2,0,0,0,45,272.08Z" transform="translate(-3 -4.09)"/><line class="435f84e1-ddfd-438e-9260-f3ab7807b058" x1="42" y1="241.59" x2="42" y2="59.02"/><path class="bb1566ea-ff80-4451-80d4-b65639eaa8f1" d="M45,57.08a30.22,30.22,0,0,0,4.76,8.55L45,63.91l-4.75,1.72A30.2,30.2,0,0,0,45,57.08Z" transform="translate(-3 -4.09)"/><rect class="77a785ef-042f-4b03-ad12-a4bae73b2236" x="76.24" y="433.39" width="229.28" height="2.83"/><rect class="77a785ef-042f-4b03-ad12-a4bae73b2236" x="102.77" y="425.61" width="202.75" height="2.83"/><rect class="77a785ef-042f-4b03-ad12-a4bae73b2236" x="129.31" y="416.09" width="176.21" height="2.95"/><rect class="77a785ef-042f-4b03-ad12-a4bae73b2236" x="152.78" y="407.97" width="152.74" height="2.95"/><rect class="77a785ef-042f-4b03-ad12-a4bae73b2236" x="173.19" y="399.85" width="132.33" height="2.95"/><rect class="77a785ef-042f-4b03-ad12-a4bae73b2236" x="187.82" y="391.55" width="117.7" height="2.95"/><rect class="77a785ef-042f-4b03-ad12-a4bae73b2236" x="202.79" y="383.43" width="102.74" height="2.95"/><rect class="77a785ef-042f-4b03-ad12-a4bae73b2236" x="220.14" y="375.31" width="85.39" height="2.95"/><rect class="77a785ef-042f-4b03-ad12-a4bae73b2236" x="237.83" y="367.19" width="67.7" height="2.95"/><rect class="77a785ef-042f-4b03-ad12-a4bae73b2236" x="252.45" y="359.07" width="53.07" height="2.95"/><rect class="77a785ef-042f-4b03-ad12-a4bae73b2236" x="261.3" y="350.77" width="44.22" height="2.95"/><rect class="77a785ef-042f-4b03-ad12-a4bae73b2236" x="270.14" y="342.65" width="35.38" height="2.95"/><rect class="77a785ef-042f-4b03-ad12-a4bae73b2236" x="278.99" y="334.53" width="26.53" height="2.95"/><rect class="77a785ef-042f-4b03-ad12-a4bae73b2236" x="285.11" y="326.41" width="20.41" height="2.95"/><rect class="77a785ef-042f-4b03-ad12-a4bae73b2236" x="293.62" y="318.29" width="11.91" height="2.95"/><rect class="77a785ef-042f-4b03-ad12-a4bae73b2236" x="296.68" y="310.21" width="8.84" height="2.83"/><rect class="77a785ef-042f-4b03-ad12-a4bae73b2236" x="302.46" y="302.43" width="3.06" height="2.83"/><rect class="77a785ef-042f-4b03-ad12-a4bae73b2236" x="301.32" y="294.65" width="3.06" height="2.83"/><polygon class="4f1fb862-77d9-41de-beee-f90a9735da49" points="306.66 295.71 306.66 292.88 306.66 292.88 306.66 295.71"/><polygon class="49d4ae0d-5218-4e02-adb1-6fe6b020ae4f" points="306.66 292.7 306.66 289.87 306.66 289.87 306.66 292.7"/><polygon class="4f1fb862-77d9-41de-beee-f90a9735da49" points="306.66 287.93 306.66 285.1 306.66 285.1 306.66 287.93"/><polygon class="49d4ae0d-5218-4e02-adb1-6fe6b020ae4f" points="306.66 284.93 306.66 282.1 306.66 282.1 306.66 284.93"/><polygon class="4f1fb862-77d9-41de-beee-f90a9735da49" points="306.66 279.98 306.66 277.15 306.66 277.15 306.66 279.98"/><polygon class="49d4ae0d-5218-4e02-adb1-6fe6b020ae4f" points="306.66 276.97 306.66 274.14 306.66 274.14 306.66 276.97"/><rect class="da9654cb-f6e5-40d8-8245-283420c0a578" x="308.39" y="433.3" width="223.5" height="2.83"/><rect class="da9654cb-f6e5-40d8-8245-283420c0a578" x="308.39" y="425.52" width="196.97" height="2.83"/><rect class="da9654cb-f6e5-40d8-8245-283420c0a578" x="308.39" y="416" width="170.43" height="2.95"/><rect class="da9654cb-f6e5-40d8-8245-283420c0a578" x="308.39" y="407.88" width="150.02" height="2.95"/><rect class="da9654cb-f6e5-40d8-8245-283420c0a578" x="308.39" y="399.76" width="129.27" height="2.95"/><rect class="da9654cb-f6e5-40d8-8245-283420c0a578" x="308.39" y="391.45" width="117.7" height="2.95"/><rect class="da9654cb-f6e5-40d8-8245-283420c0a578" x="308.39" y="383.33" width="102.74" height="2.95"/><rect class="da9654cb-f6e5-40d8-8245-283420c0a578" x="308.39" y="375.22" width="85.39" height="2.95"/><rect class="da9654cb-f6e5-40d8-8245-283420c0a578" x="308.39" y="367.1" width="67.7" height="2.95"/><rect class="da9654cb-f6e5-40d8-8245-283420c0a578" x="308.39" y="358.98" width="55.79" height="2.95"/><rect class="da9654cb-f6e5-40d8-8245-283420c0a578" x="308.39" y="350.67" width="46.95" height="2.95"/><rect class="da9654cb-f6e5-40d8-8245-283420c0a578" x="308.39" y="342.55" width="38.1" height="2.95"/><rect class="da9654cb-f6e5-40d8-8245-283420c0a578" x="308.39" y="334.43" width="29.26" height="2.95"/><rect class="da9654cb-f6e5-40d8-8245-283420c0a578" x="308.39" y="326.31" width="23.47" height="2.95"/><rect class="da9654cb-f6e5-40d8-8245-283420c0a578" x="308.39" y="318.2" width="14.63" height="2.95"/><rect class="da9654cb-f6e5-40d8-8245-283420c0a578" x="308.39" y="310.12" width="8.84" height="2.83"/><rect class="da9654cb-f6e5-40d8-8245-283420c0a578" x="308.39" y="302.34" width="5.78" height="2.83"/><rect class="da9654cb-f6e5-40d8-8245-283420c0a578" x="308.39" y="294.57" width="3.06" height="2.83"/><path class="da3d69bf-5570-49c2-9a83-30d0733f0ff8" d="M65.76,439.37l32.32-8.32,23.51-8.32L151,414.41l26.45-8.32,23.51-8.32,17.63-8.32,14.69-8.32L248,372.8l11.75-8.32,8.82-8.32,8.82-8.32,5.88-8.32,5.88-8.32,8.82-8.32,2.94-8.32,5.88-8.32,2.94-8.32V273" transform="translate(-3 -4.09)"/><path class="da3d69bf-5570-49c2-9a83-30d0733f0ff8" d="M309.66,273V289.5l3.13,8.28,3.13,8.28,3.13,8.28,6.26,8.28,9.39,8.28,6.26,8.28,6.26,8.28,9.39,8.28L366,364l12.52,8.28L391,380.55l15.65,8.28,18.78,8.28,25,8.28,28.17,8.28,28.17,8.28,25,8.28,31.3,8.28" transform="translate(-3 -4.09)"/><path class="16615330-04f6-49d2-8290-c6d2780a57dc" d="M118.66,439.37l14.69-8.32L148,422.73l11.75-8.32,11.75-8.32,14.69-8.32,17.63-8.32,14.69-8.32,14.69-8.32,8.82-8.32,11.75-8.32,11.75-8.32,8.82-8.32,11.75-8.32,5.88-8.32,5.88-8.32,5.88-8.32,2.94-8.32,2.94-8.32V273" transform="translate(-3 -4.09)"/><path class="16615330-04f6-49d2-8290-c6d2780a57dc" d="M309.66,273V289.5l3.13,8.28,6.26,8.28,6.26,8.28,6.26,8.28,6.26,8.28,9.39,8.28,12.52,8.28,12.52,8.28,9.39,8.28,9.39,8.28,12.52,8.28,15.65,8.28L438,397.1l15.65,8.28,12.52,8.28,12.19,8,12.78,8.25,15.71,8.57" transform="translate(-3 -4.09)"/><path class="311620ec-6dd6-4901-96e0-b98550e81085" d="M309.52,55.56V247" transform="translate(-3 -4.09)"/><path class="311620ec-6dd6-4901-96e0-b98550e81085" d="M309.66,460.69V272.08" transform="translate(-3 -4.09)"/><text class="51b678ef-cda8-481f-b2a8-aae2d6ab1ca8" transform="translate(74.46 20.59)">Población por género y franja de edad </text><text class="9b84ad04-c9fc-43bd-9e5d-ed814f54da01" transform="translate(2 42.71)">Edad</text><text class="9b84ad04-c9fc-43bd-9e5d-ed814f54da01" transform="translate(416 482.71)">Porcentaje de la población</text><text class="fed93228-0d42-4f74-ad5d-590820f92809" transform="translate(22.11 233.43)">0</text><text class="fed93228-0d42-4f74-ad5d-590820f92809" transform="translate(16.21 198.43)">20</text><text class="fed93228-0d42-4f74-ad5d-590820f92809" transform="translate(17.21 161.43)">40</text><text class="fed93228-0d42-4f74-ad5d-590820f92809" transform="translate(17.21 126.43)">60</text><text class="fed93228-0d42-4f74-ad5d-590820f92809" transform="translate(17.21 89.43)">80</text><text class="fed93228-0d42-4f74-ad5d-590820f92809" transform="translate(1.23 61.43)">+100</text><text class="fed93228-0d42-4f74-ad5d-590820f92809" transform="translate(25.11 440.43)">0</text><text class="fed93228-0d42-4f74-ad5d-590820f92809" transform="translate(18.21 403.43)">20</text><text class="fed93228-0d42-4f74-ad5d-590820f92809" transform="translate(17.21 369.43)">40</text><text class="fed93228-0d42-4f74-ad5d-590820f92809" transform="translate(17.21 338.43)">60</text><text class="fed93228-0d42-4f74-ad5d-590820f92809" transform="translate(17.21 303.43)">80</text><text class="fed93228-0d42-4f74-ad5d-590820f92809" transform="translate(2.23 272.43)">+100</text><text class="75a42c9c-32b8-4958-bda3-f6e0c1ec743c" transform="translate(507.26 75.18)">Mujeres</text><text class="fb5281d1-549f-474f-ab98-a4d6dd02e3bb" transform="translate(281.93 45.18)">Europa</text><text class="fb5281d1-549f-474f-ab98-a4d6dd02e3bb" transform="translate(283.82 263.18)">África</text><text class="7f1df100-7632-42be-8b9e-dc82ddaea1e8" transform="translate(46.32 76.31)">Hombres</text><text class="e6c9f3bf-573e-4b9a-8d70-112a99d93eca" transform="translate(280.5 456.65)">1</text><text class="e6c9f3bf-573e-4b9a-8d70-112a99d93eca" transform="translate(327.5 456.65)">1</text><text class="e6c9f3bf-573e-4b9a-8d70-112a99d93eca" transform="translate(354.5 456.65)">2</text><text class="e6c9f3bf-573e-4b9a-8d70-112a99d93eca" transform="translate(384.5 456.65)">3</text><text class="e6c9f3bf-573e-4b9a-8d70-112a99d93eca" transform="translate(413.5 456.65)">4</text><text class="e6c9f3bf-573e-4b9a-8d70-112a99d93eca" transform="translate(443.5 456.65)">5</text><text class="e6c9f3bf-573e-4b9a-8d70-112a99d93eca" transform="translate(469.5 456.65)">6</text><text class="e6c9f3bf-573e-4b9a-8d70-112a99d93eca" transform="translate(501.5 456.65)">7</text><text class="e6c9f3bf-573e-4b9a-8d70-112a99d93eca" transform="translate(531.5 456.65)">8</text><text class="e6c9f3bf-573e-4b9a-8d70-112a99d93eca" transform="translate(560.5 456.65)">9</text><text class="e6c9f3bf-573e-4b9a-8d70-112a99d93eca" transform="translate(250.5 456.65)">2</text><text class="e6c9f3bf-573e-4b9a-8d70-112a99d93eca" transform="translate(221.5 456.65)">3</text><text class="e6c9f3bf-573e-4b9a-8d70-112a99d93eca" transform="translate(192.5 456.65)">4</text><text class="e6c9f3bf-573e-4b9a-8d70-112a99d93eca" transform="translate(162.5 456.65)">5</text><text class="e6c9f3bf-573e-4b9a-8d70-112a99d93eca" transform="translate(133.5 456.65)">6</text><text class="e6c9f3bf-573e-4b9a-8d70-112a99d93eca" transform="translate(104.5 456.65)">7</text><text class="e6c9f3bf-573e-4b9a-8d70-112a99d93eca" transform="translate(74.5 456.65)">8</text><text class="e6c9f3bf-573e-4b9a-8d70-112a99d93eca" transform="translate(44.5 456.65)">9</text><text x="-3" y="-4.09"></text><text class="fec80593-02fd-48c4-a832-3d0412a67d46" transform="translate(406 513.17)">Laura<tspan class="2ba3487c-21a7-4c6e-a313-147408934700" x="30.69" y="0"> </tspan><tspan x="33.36" y="0">Aragó | L</tspan><tspan class="2ba3487c-21a7-4c6e-a313-147408934700" x="81.84" y="0">A</tspan><tspan x="89.19" y="0"> </tspan><tspan class="464997dc-3e02-4c4f-9187-7133396518d3" x="92.52" y="0">V</tspan><tspan x="99.63" y="0">ANGUARDI</tspan><tspan class="2ba3487c-21a7-4c6e-a313-147408934700" x="162.97" y="0">A</tspan></text><text class="fec80593-02fd-48c4-a832-3d0412a67d46" transform="translate(1 513.17)">Fuente: PopulationPyramid.net</text></svg>