<svg id="chart-container" xmlns="http://www.w3.org/2000/svg" viewBox="0 0 741.05 777.92"><defs><style>.cls-1,.cls-14,.cls-2{fill:#b2182b;}.cls-1,.cls-2{stroke:#b2182b;}.cls-1,.cls-5{opacity:0.25;}.cls-12,.cls-3,.cls-5{fill:#004182;}.cls-3,.cls-5{stroke:#004182;}.cls-4{fill:#45aedd;stroke:#45aedd;}.cls-10,.cls-11,.cls-6{fill:none;}.cls-6{stroke:#777;}.cls-7{font-size:17px;}.cls-7,.cls-9{fill:#757575;}.cls-12,.cls-13,.cls-14,.cls-7,.cls-9{font-family:OpenSans, Open Sans;}.cls-8{font-size:30px;fill:#323232;font-family:OpenSans-Bold, Open Sans;font-weight:700;}.cls-9{font-size:25px;}.cls-11{stroke:#757575;}.cls-12,.cls-13,.cls-14{font-size:23px;}.cls-13{fill:#67a9cf;}</style></defs><title>2018.11_EleccionesEUA</title><circle class="cls-1" cx="250.13" cy="478" r="17.81"/><circle class="cls-1" cx="211.5" cy="467.65" r="17.81"/><circle class="cls-1" cx="172.86" cy="457.29" r="17.81"/><circle class="cls-1" cx="134.22" cy="446.94" r="17.81"/><circle class="cls-1" cx="95.59" cy="436.59" r="17.81"/><circle class="cls-1" cx="56.95" cy="426.24" r="17.81"/><circle class="cls-1" cx="18.31" cy="415.88" r="17.81"/><circle class="cls-1" cx="33.45" cy="371.29" r="17.81"/><circle class="cls-1" cx="72.22" cy="382.31" r="17.81"/><circle class="cls-1" cx="111" cy="393.5" r="17.81"/><circle class="cls-1" cx="151.33" cy="401.83" r="17.81"/><circle class="cls-1" cx="190.51" cy="413.21" r="17.81"/><circle class="cls-1" cx="54.28" cy="329.06" r="17.81"/><circle class="cls-1" cx="229.87" cy="425.06" r="17.81"/><circle class="cls-1" cx="93.69" cy="341.07" r="17.81"/><circle class="cls-1" cx="133.23" cy="353.5" r="17.81"/><circle class="cls-1" cx="80.44" cy="289.9" r="17.81"/><circle class="cls-1" cx="177.12" cy="361.05" r="17.81"/><circle class="cls-1" cx="274.12" cy="431.92" r="17.81"/><circle class="cls-1" cx="120.91" cy="303.37" r="17.81"/><circle class="cls-1" cx="218.06" cy="374.53" r="17.81"/><circle class="cls-1" cx="161.68" cy="317.65" r="17.81"/><circle class="cls-1" cx="111.49" cy="254.5" r="17.81"/><circle class="cls-1" cx="259.68" cy="389.53" r="17.81"/><circle class="cls-1" cx="153.31" cy="270.01" r="17.81"/><circle class="cls-1" cx="210.55" cy="326.25" r="17.81"/><circle class="cls-1" cx="195.59" cy="286.92" r="17.81"/><circle class="cls-1" cx="146.89" cy="223.45" r="17.81"/><circle class="cls-1" cx="253.94" cy="343.43" r="17.81"/><circle class="cls-1" cx="190.2" cy="241.7" r="17.81"/><circle class="cls-1" cx="186.05" cy="197.29" r="17.81"/><circle class="cls-1" cx="250.26" cy="298.84" r="17.81"/><circle class="cls-1" cx="234.05" cy="262.12" r="17.81"/><circle class="cls-1" cx="315.33" cy="400.3" r="17.81"/><circle class="cls-1" cx="298.43" cy="364.05" r="17.81"/><circle class="cls-1" cx="230.81" cy="219.04" r="17.81"/><circle class="cls-1" cx="228.28" cy="176.46" r="17.81"/><circle class="cls-1" cx="296.15" cy="321.67" r="17.81"/><circle class="cls-1" cx="276.04" cy="243.92" r="17.81"/><circle class="cls-1" cx="294.65" cy="279.93" r="17.81"/><circle class="cls-1" cx="274.27" cy="202.5" r="17.81"/><circle class="cls-1" cx="272.87" cy="161.32" r="17.81"/><circle class="cls-2" cx="320.44" cy="232.8" r="17.81"/><circle class="cls-2" cx="342.86" cy="350.75" r="17.81"/><circle class="cls-2" cx="319.67" cy="192.44" r="17.81"/><circle class="cls-2" cx="319.06" cy="152.14" r="17.81"/><circle class="cls-2" cx="342.3" cy="310.47" r="17.81"/><circle class="cls-2" cx="341.92" cy="270.27" r="17.81"/><circle class="cls-3" cx="366.05" cy="389.06" r="17.81"/><circle class="cls-2" cx="366.05" cy="229.06" r="17.81"/><circle class="cls-2" cx="366.05" cy="189.06" r="17.81"/><circle class="cls-2" cx="366.05" cy="149.06" r="17.81"/><circle class="cls-3" cx="390.17" cy="270.27" r="17.81"/><circle class="cls-3" cx="389.79" cy="310.47" r="17.81"/><circle class="cls-4" cx="413.04" cy="152.14" r="17.81"/><circle class="cls-3" cx="389.23" cy="350.75" r="17.81"/><circle class="cls-4" cx="412.42" cy="192.44" r="17.81"/><circle class="cls-3" cx="411.66" cy="232.8" r="17.81"/><circle class="cls-3" cx="459.22" cy="161.32" r="17.81"/><circle class="cls-3" cx="457.82" cy="202.5" r="17.81"/><circle class="cls-3" cx="437.45" cy="279.93" r="17.81"/><circle class="cls-3" cx="456.05" cy="243.92" r="17.81"/><circle class="cls-3" cx="435.94" cy="321.67" r="17.81"/><circle class="cls-3" cx="503.81" cy="176.46" r="17.81"/><circle class="cls-3" cx="416.76" cy="400.3" r="17.81"/><circle class="cls-3" cx="433.66" cy="364.05" r="17.81"/><circle class="cls-3" cx="501.28" cy="219.04" r="17.81"/><circle class="cls-3" cx="498.04" cy="262.12" r="17.81"/><circle class="cls-3" cx="481.84" cy="298.84" r="17.81"/><circle class="cls-3" cx="546.05" cy="197.29" r="17.81"/><circle class="cls-3" cx="541.89" cy="241.7" r="17.81"/><circle class="cls-3" cx="478.15" cy="343.43" r="17.81"/><circle class="cls-3" cx="536.5" cy="286.92" r="17.81"/><circle class="cls-3" cx="585.2" cy="223.45" r="17.81"/><circle class="cls-3" cx="521.55" cy="326.25" r="17.81"/><circle class="cls-3" cx="472.41" cy="389.53" r="17.81"/><circle class="cls-3" cx="578.78" cy="270.01" r="17.81"/><circle class="cls-5" cx="620.6" cy="254.5" r="17.81"/><circle class="cls-5" cx="570.41" cy="317.65" r="17.81"/><circle class="cls-5" cx="514.04" cy="374.53" r="17.81"/><circle class="cls-5" cx="457.97" cy="431.92" r="17.81"/><circle class="cls-5" cx="611.18" cy="303.37" r="17.81"/><circle class="cls-5" cx="554.97" cy="361.05" r="17.81"/><circle class="cls-5" cx="651.65" cy="289.9" r="17.81"/><circle class="cls-5" cx="598.86" cy="353.5" r="17.81"/><circle class="cls-5" cx="502.22" cy="425.06" r="17.81"/><circle class="cls-5" cx="638.4" cy="341.07" r="17.81"/><circle class="cls-5" cx="677.81" cy="329.06" r="17.81"/><circle class="cls-5" cx="541.58" cy="413.21" r="17.81"/><circle class="cls-5" cx="580.76" cy="401.83" r="17.81"/><circle class="cls-5" cx="621.09" cy="393.5" r="17.81"/><circle class="cls-5" cx="659.87" cy="382.31" r="17.81"/><circle class="cls-5" cx="698.64" cy="371.29" r="17.81"/><circle class="cls-5" cx="481.96" cy="478" r="17.81"/><circle class="cls-5" cx="520.59" cy="467.65" r="17.81"/><circle class="cls-5" cx="559.23" cy="457.29" r="17.81"/><circle class="cls-5" cx="597.87" cy="446.94" r="17.81"/><circle class="cls-5" cx="636.51" cy="436.59" r="17.81"/><circle class="cls-5" cx="675.14" cy="426.24" r="17.81"/><circle class="cls-5" cx="713.78" cy="415.88" r="17.81"/><path class="cls-6" d="M-24,425" transform="translate(-3.95 -11.09)"/><path class="cls-6" d="M43,76" transform="translate(-3.95 -11.09)"/><text class="cls-7" transform="translate(7.59 583.73) rotate(-0.09)">Fuente: Ballotpedia</text><text class="cls-7" transform="translate(586.59 583.73) rotate(-0.09)">LA VANGUARDIA</text><text class="cls-8" transform="translate(11.84 25.71)">Los 35 asientos que están en juego en el Senado</text><text class="cls-9" transform="translate(325.74 459.91)">Mayoría<tspan x="33.01" y="30">51</tspan></text><line class="cls-10" x1="393.05" y1="141.91" x2="393.05" y2="777.92"/><path class="cls-11" d="M345,439" transform="translate(-3.95 -11.09)"/><path class="cls-11" d="M357,382" transform="translate(-3.95 -11.09)"/><text class="cls-12" transform="translate(434.59 73.73) rotate(-0.09)">Demócratas (49)</text><text class="cls-13" transform="translate(219.59 73.73) rotate(-0.09)">Independientes (2)</text><text class="cls-14" transform="translate(16.59 72.73) rotate(-0.09)">Republicanos (51)</text></svg>