<svg xmlns="http://www.w3.org/2000/svg" viewBox="0 0 855 798"><defs><style>.f30c8a3a-7a53-46ef-9dee-9db414f3fdfe{font-size:24px;}.\30 9015a27-15ad-4bb7-8609-2a70e5af920e,.aff630d7-9a67-4298-940b-ee075f9c4ce7,.babc9e7e-e3f6-43f4-b0da-0ff7020ccb8b,.f30c8a3a-7a53-46ef-9dee-9db414f3fdfe{fill:#757575;}.\30 9015a27-15ad-4bb7-8609-2a70e5af920e,.\35 7bb199e-f39c-40f4-bb04-09ac3f6b42b2,.f30c8a3a-7a53-46ef-9dee-9db414f3fdfe{font-family:ArialMT, Arial;}.\33 dc06e1a-c23e-4f24-bd41-651ea24b8ac7,.cb089aa8-8a1d-4794-b17a-4d37041b4f5b,.cc556864-c3b5-4dab-9146-227dd3688daa,.dae961fa-07bd-4b5b-be47-21461b727205{fill:none;stroke:#757575;}.\33 dc06e1a-c23e-4f24-bd41-651ea24b8ac7,.\34 412fcb5-0c2a-4575-b2ed-819198bccb5a,.\36 89f549e-4e5c-49fb-b2e3-0e82770155ad,.cb089aa8-8a1d-4794-b17a-4d37041b4f5b,.cc556864-c3b5-4dab-9146-227dd3688daa,.dae961fa-07bd-4b5b-be47-21461b727205{stroke-miterlimit:10;}.\33 dc06e1a-c23e-4f24-bd41-651ea24b8ac7{stroke-dasharray:5.09 5.09;}.cc556864-c3b5-4dab-9146-227dd3688daa{stroke-dasharray:5 5;}.cb089aa8-8a1d-4794-b17a-4d37041b4f5b{stroke-dasharray:5.06 5.06;}.aff630d7-9a67-4298-940b-ee075f9c4ce7{fill-opacity:0.3;}.\34 412fcb5-0c2a-4575-b2ed-819198bccb5a{fill:#d80909;}.\34 412fcb5-0c2a-4575-b2ed-819198bccb5a,.\36 89f549e-4e5c-49fb-b2e3-0e82770155ad{stroke:#fff;stroke-width:0.75px;}.\35 7bb199e-f39c-40f4-bb04-09ac3f6b42b2{font-size:23px;}.c9001bba-e632-43b9-97d8-b86a1ad520d6{font-size:37px;fill:#323232;}.babc9e7e-e3f6-43f4-b0da-0ff7020ccb8b,.c9001bba-e632-43b9-97d8-b86a1ad520d6{font-family:Arial-BoldMT, Arial;font-weight:700;}.\36 89f549e-4e5c-49fb-b2e3-0e82770155ad{fill:#700a0a;}.babc9e7e-e3f6-43f4-b0da-0ff7020ccb8b{font-size:32px;}.\31 67db643-dcfc-447b-8a91-3ee6d31e8cf5{letter-spacing:-0.04em;}.\33 794e0b0-8138-4be7-a4c5-0f7662822404{letter-spacing:-0.07em;}.\30 9015a27-15ad-4bb7-8609-2a70e5af920e{font-size:20px;}.\31 2a73e6d-51ac-49a7-9654-5f4a6f7bdc0d{letter-spacing:-0.02em;}.a9b138ee-3d85-464e-a0af-e56543c1cfca{letter-spacing:-0.06em;}</style></defs><title>2018.06_Mundial_ComparacionesEquipo</title><g id="4a53cc3a-55fd-40e3-b2b1-1fe60bd7868a" data-name="Capa 1"><text class="f30c8a3a-7a53-46ef-9dee-9db414f3fdfe" transform="translate(562.07 516.56)">150 millones</text><text class="f30c8a3a-7a53-46ef-9dee-9db414f3fdfe" transform="translate(511.07 590.56)">75 millones</text><text class="f30c8a3a-7a53-46ef-9dee-9db414f3fdfe" transform="translate(500.07 677.56)">10 millones</text><line class="dae961fa-07bd-4b5b-be47-21461b727205" x1="734" y1="683.5" x2="731.5" y2="683.5"/><line class="3dc06e1a-c23e-4f24-bd41-651ea24b8ac7" x1="726.41" y1="683.5" x2="505.04" y2="683.5"/><line class="dae961fa-07bd-4b5b-be47-21461b727205" x1="502.5" y1="683.5" x2="500" y2="683.5"/><line class="dae961fa-07bd-4b5b-be47-21461b727205" x1="741" y1="596.5" x2="738.5" y2="596.5"/><line class="cc556864-c3b5-4dab-9146-227dd3688daa" x1="733.5" y1="596.5" x2="516" y2="596.5"/><line class="dae961fa-07bd-4b5b-be47-21461b727205" x1="513.5" y1="596.5" x2="511" y2="596.5"/><line class="dae961fa-07bd-4b5b-be47-21461b727205" x1="738.5" y1="528.5" x2="736" y2="528.5"/><line class="cb089aa8-8a1d-4794-b17a-4d37041b4f5b" x1="730.94" y1="528.5" x2="571.53" y2="528.5"/><line class="dae961fa-07bd-4b5b-be47-21461b727205" x1="569" y1="528.5" x2="566.5" y2="528.5"/><path class="aff630d7-9a67-4298-940b-ee075f9c4ce7" d="M843.12,635.36a110.36,110.36,0,0,1-113,110.33C671.56,744.31,623.81,696.56,622.43,638a110.36,110.36,0,1,1,220.69-2.66"/><circle class="aff630d7-9a67-4298-940b-ee075f9c4ce7" cx="729.59" cy="716.33" r="31.3"/><circle class="aff630d7-9a67-4298-940b-ee075f9c4ce7" cx="729.55" cy="670.44" r="74.57"/><circle class="4412fcb5-0c2a-4575-b2ed-819198bccb5a" cx="173.26" cy="451.27" r="111.08"/><path class="4412fcb5-0c2a-4575-b2ed-819198bccb5a" d="M474.59,451.27a95.12,95.12,0,1,1-95.12-95.12,95.12,95.12,0,0,1,95.12,95.12"/><circle class="4412fcb5-0c2a-4575-b2ed-819198bccb5a" cx="291" cy="609.37" r="86.04"/><circle class="4412fcb5-0c2a-4575-b2ed-819198bccb5a" cx="289.78" cy="312.32" r="70.25"/><circle class="4412fcb5-0c2a-4575-b2ed-819198bccb5a" cx="165.58" cy="283" r="57.36"/><circle class="4412fcb5-0c2a-4575-b2ed-819198bccb5a" cx="147.84" cy="617.78" r="57.36"/><circle class="4412fcb5-0c2a-4575-b2ed-819198bccb5a" cx="411.27" cy="308.34" r="51.31"/><circle class="4412fcb5-0c2a-4575-b2ed-819198bccb5a" cx="425.13" cy="588.68" r="49.68"/><circle class="4412fcb5-0c2a-4575-b2ed-819198bccb5a" cx="74.31" cy="330.11" r="45.35"/><circle class="4412fcb5-0c2a-4575-b2ed-819198bccb5a" cx="65.69" cy="560.94" r="42.54"/><circle class="4412fcb5-0c2a-4575-b2ed-819198bccb5a" cx="481.3" cy="365.23" r="40.34"/><circle class="4412fcb5-0c2a-4575-b2ed-819198bccb5a" cx="234.67" cy="219.29" r="38.27"/><circle class="4412fcb5-0c2a-4575-b2ed-819198bccb5a" cx="488.94" cy="527.85" r="38.48"/><circle class="4412fcb5-0c2a-4575-b2ed-819198bccb5a" cx="361.4" cy="235.03" r="37.19"/><circle class="4412fcb5-0c2a-4575-b2ed-819198bccb5a" cx="202.65" cy="692.29" r="35.13"/><circle class="4412fcb5-0c2a-4575-b2ed-819198bccb5a" cx="395" cy="663.97" r="31.42"/><path class="4412fcb5-0c2a-4575-b2ed-819198bccb5a" d="M9.23,399.11a31.42,31.42,0,1,1,31.42,31.42A31.42,31.42,0,0,1,9.23,399.11"/><path class="4412fcb5-0c2a-4575-b2ed-819198bccb5a" d="M11.64,494.39a28.68,28.68,0,1,1,28.68,28.68,28.68,28.68,0,0,1-28.68-28.68"/><circle class="4412fcb5-0c2a-4575-b2ed-819198bccb5a" cx="499.01" cy="431.78" r="28.53"/><circle class="4412fcb5-0c2a-4575-b2ed-819198bccb5a" cx="531.69" cy="478.54" r="28.53"/><circle class="4412fcb5-0c2a-4575-b2ed-819198bccb5a" cx="294.99" cy="221.5" r="22.1"/><circle class="4412fcb5-0c2a-4575-b2ed-819198bccb5a" cx="324.43" cy="191.17" r="20.17"/><circle class="4412fcb5-0c2a-4575-b2ed-819198bccb5a" cx="49.67" cy="442.43" r="12.83"/></g><g id="ef1f9c71-b1f7-4497-a971-8078e3cd7e3f" data-name="Capa 3"><text class="57bb199e-f39c-40f4-bb04-09ac3f6b42b2" transform="translate(56.99 68.58)">Cada círculo representa el valor de un futbolista en millones de euros</text><text class="c9001bba-e632-43b9-97d8-b86a1ad520d6" transform="translate(26.4 37.6)">El valor de la selección francesa y australiana</text><circle class="689f549e-4e5c-49fb-b2e3-0e82770155ad" cx="722.04" cy="333.58" r="9.02"/><circle class="689f549e-4e5c-49fb-b2e3-0e82770155ad" cx="739.12" cy="333.58" r="8.07"/><circle class="689f549e-4e5c-49fb-b2e3-0e82770155ad" cx="731.48" cy="347.2" r="7.55"/><circle class="689f549e-4e5c-49fb-b2e3-0e82770155ad" cx="731.48" cy="319.97" r="7.55"/><circle class="689f549e-4e5c-49fb-b2e3-0e82770155ad" cx="716.77" cy="318.16" r="7.27"/><circle class="689f549e-4e5c-49fb-b2e3-0e82770155ad" cx="717.31" cy="348.56" r="6.69"/><circle class="689f549e-4e5c-49fb-b2e3-0e82770155ad" cx="745.39" cy="320.56" r="6.38"/><circle class="689f549e-4e5c-49fb-b2e3-0e82770155ad" cx="745.39" cy="346.6" r="6.38"/><circle class="689f549e-4e5c-49fb-b2e3-0e82770155ad" cx="707.84" cy="339.55" r="6.38"/><circle class="689f549e-4e5c-49fb-b2e3-0e82770155ad" cx="706.27" cy="326.89" r="6.38"/><circle class="689f549e-4e5c-49fb-b2e3-0e82770155ad" cx="753.26" cy="330.6" r="6.38"/><circle class="689f549e-4e5c-49fb-b2e3-0e82770155ad" cx="757.51" cy="342.63" r="6.38"/><circle class="689f549e-4e5c-49fb-b2e3-0e82770155ad" cx="724.66" cy="358.96" r="6.05"/><circle class="689f549e-4e5c-49fb-b2e3-0e82770155ad" cx="725.22" cy="308.09" r="5.88"/><circle class="689f549e-4e5c-49fb-b2e3-0e82770155ad" cx="739.95" cy="309.78" r="5.71"/><circle class="689f549e-4e5c-49fb-b2e3-0e82770155ad" cx="739.84" cy="356.47" r="4.94"/><circle class="689f549e-4e5c-49fb-b2e3-0e82770155ad" cx="734" cy="363.9" r="4.51"/><circle class="689f549e-4e5c-49fb-b2e3-0e82770155ad" cx="733.52" cy="301.84" r="4.51"/><circle class="689f549e-4e5c-49fb-b2e3-0e82770155ad" cx="706.9" cy="349.66" r="3.77"/><circle class="689f549e-4e5c-49fb-b2e3-0e82770155ad" cx="755.54" cy="320.71" r="3.77"/><circle class="689f549e-4e5c-49fb-b2e3-0e82770155ad" cx="705.81" cy="316.75" r="3.77"/><circle class="689f549e-4e5c-49fb-b2e3-0e82770155ad" cx="748.56" cy="356.25" r="3.77"/><circle class="689f549e-4e5c-49fb-b2e3-0e82770155ad" cx="715.81" cy="357.99" r="2.85"/></g><g id="cfa1443a-2dd2-4e03-a257-d8115b497f5e" data-name="Capa 2"><text class="babc9e7e-e3f6-43f4-b0da-0ff7020ccb8b" transform="translate(218.24 149.1)">BÉLGIC<tspan class="167db643-dcfc-447b-8a91-3ee6d31e8cf5" x="120.89" y="0">A</tspan></text><text class="babc9e7e-e3f6-43f4-b0da-0ff7020ccb8b" transform="translate(648.61 256.1)"><tspan class="3794e0b0-8138-4be7-a4c5-0f7662822404">P</tspan><tspan x="18.97" y="0">ANAMÁ</tspan></text><text class="09015a27-15ad-4bb7-8609-2a70e5af920e" transform="translate(6.3 789.1)">Fuente: Elaboración propia a partir de<tspan class="12a73e6d-51ac-49a7-9654-5f4a6f7bdc0d" x="335.76" y="0"> </tspan><tspan class="167db643-dcfc-447b-8a91-3ee6d31e8cf5" x="340.96" y="0">T</tspan><tspan x="352.43" y="0">ransfermarkt</tspan></text><text class="09015a27-15ad-4bb7-8609-2a70e5af920e" transform="translate(687.36 791.1)">L<tspan class="a9b138ee-3d85-464e-a0af-e56543c1cfca" x="11.12" y="0">A</tspan><tspan x="23.36" y="0"> </tspan><tspan class="3794e0b0-8138-4be7-a4c5-0f7662822404" x="28.92" y="0">V</tspan><tspan x="40.77" y="0">ANGUARDI</tspan><tspan class="a9b138ee-3d85-464e-a0af-e56543c1cfca" x="146.34" y="0">A</tspan></text></g></svg>