<svg id="chart-container" xmlns="http://www.w3.org/2000/svg" viewBox="0 0 791.86 692.34"><defs><style>@import url('https://fonts.googleapis.com/css?family=Open+Sans');.cls-1,.cls-10{fill:#004182;}.cls-1{stroke:#004182;}.cls-11,.cls-2{fill:#67a9cf;}.cls-2{stroke:#67a9cf;}.cls-3{fill:#c6c6c6;stroke:#c6c6c6;}.cls-12,.cls-4{fill:#ef8a62;}.cls-4{stroke:#ef8a62;}.cls-13,.cls-5{fill:#b2182b;}.cls-5{stroke:#b2182b;}.cls-6{font-size:32px;fill:#323232;font-family:OpenSans-Bold, Open Sans;font-weight:700;}.cls-7{font-size:20px;}.cls-7,.cls-9{fill:#757575;}.cls-10,.cls-11,.cls-12,.cls-13,.cls-14,.cls-7,.cls-9{font-family:OpenSans, Open Sans;}.cls-8{fill:none;}.cls-9{font-size:25px;}.cls-10,.cls-11,.cls-12,.cls-13,.cls-14{font-size:23px;}.cls-14{fill:#a0a0a0;}</style></defs><title>2018.10_CamaraRepresentantes2</title><circle class="cls-1" cx="231.98" cy="591" r="9.73"/><circle class="cls-1" cx="210.85" cy="594.73" r="9.73"/><circle class="cls-1" cx="189.72" cy="598.45" r="9.73"/><circle class="cls-1" cx="168.59" cy="602.18" r="9.73"/><circle class="cls-1" cx="147.46" cy="605.91" r="9.73"/><circle class="cls-1" cx="126.33" cy="609.63" r="9.73"/><circle class="cls-1" cx="105.21" cy="613.36" r="9.73"/><circle class="cls-1" cx="84.08" cy="617.08" r="9.73"/><circle class="cls-1" cx="62.95" cy="620.81" r="9.73"/><circle class="cls-1" cx="41.82" cy="624.53" r="9.73"/><circle class="cls-1" cx="20.69" cy="628.26" r="9.73"/><circle class="cls-1" cx="17.32" cy="604.91" r="9.73"/><circle class="cls-1" cx="38.6" cy="602.1" r="9.73"/><circle class="cls-1" cx="59.74" cy="598.07" r="9.73"/><circle class="cls-1" cx="80.93" cy="594.46" r="9.73"/><circle class="cls-1" cx="102.13" cy="590.86" r="9.73"/><circle class="cls-1" cx="123.3" cy="586.74" r="9.73"/><circle class="cls-1" cx="144.52" cy="583.15" r="9.73"/><circle class="cls-1" cx="165.76" cy="579.59" r="9.73"/><circle class="cls-1" cx="186.97" cy="575.33" r="9.73"/><circle class="cls-1" cx="208.26" cy="571.77" r="9.73"/><circle class="cls-1" cx="15.41" cy="581.39" r="9.73"/><circle class="cls-1" cx="36.8" cy="579.52" r="9.73"/><circle class="cls-1" cx="58.09" cy="575.16" r="9.73"/><circle class="cls-1" cx="229.59" cy="568.25" r="9.73"/><circle class="cls-1" cx="79.44" cy="571.66" r="9.73"/><circle class="cls-1" cx="100.81" cy="568.2" r="9.73"/><circle class="cls-1" cx="122.22" cy="563.68" r="9.73"/><circle class="cls-1" cx="143.68" cy="560.23" r="9.73"/><circle class="cls-1" cx="14.97" cy="557.81" r="9.73"/><circle class="cls-1" cx="36.44" cy="556.86" r="9.73"/><circle class="cls-1" cx="165.19" cy="556.83" r="9.73"/><circle class="cls-1" cx="58.01" cy="552.19" r="9.73"/><circle class="cls-1" cx="79.6" cy="548.82" r="9.73"/><circle class="cls-1" cx="186.84" cy="552.05" r="9.73"/><circle class="cls-1" cx="101.25" cy="545.5" r="9.73"/><circle class="cls-1" cx="208.55" cy="548.67" r="9.73"/><circle class="cls-1" cx="16" cy="534.24" r="9.73"/><circle class="cls-1" cx="37.52" cy="534.23" r="9.73"/><circle class="cls-1" cx="123.1" cy="540.61" r="9.73"/><circle class="cls-1" cx="59.5" cy="529.27" r="9.73"/><circle class="cls-1" cx="144.94" cy="537.32" r="9.73"/><circle class="cls-1" cx="230.38" cy="545.38" r="9.73"/><circle class="cls-1" cx="81.43" cy="526.05" r="9.73"/><circle class="cls-1" cx="166.89" cy="534.13" r="9.73"/><circle class="cls-1" cx="103.45" cy="522.91" r="9.73"/><circle class="cls-1" cx="18.49" cy="510.78" r="9.73"/><circle class="cls-1" cx="40.03" cy="511.71" r="9.73"/><circle class="cls-1" cx="189.33" cy="528.89" r="9.73"/><circle class="cls-1" cx="125.94" cy="517.69" r="9.73"/><circle class="cls-1" cx="62.56" cy="506.51" r="9.73"/><circle class="cls-1" cx="84.9" cy="503.47" r="9.73"/><circle class="cls-1" cx="148.3" cy="514.63" r="9.73"/><circle class="cls-1" cx="211.71" cy="525.78" r="9.73"/><circle class="cls-1" cx="22.45" cy="487.52" r="9.73"/><circle class="cls-1" cx="43.96" cy="489.39" r="9.73"/><circle class="cls-1" cx="107.39" cy="500.55" r="9.73"/><circle class="cls-1" cx="170.85" cy="511.71" r="9.73"/><circle class="cls-1" cx="67.16" cy="484" r="9.73"/><circle class="cls-1" cx="234.36" cy="522.85" r="9.73"/><circle class="cls-1" cx="130.72" cy="495.11" r="9.73"/><circle class="cls-1" cx="90.01" cy="481.21" r="9.73"/><circle class="cls-1" cx="27.84" cy="464.55" r="9.73"/><circle class="cls-1" cx="49.31" cy="467.37" r="9.73"/><circle class="cls-1" cx="194.4" cy="506.17" r="9.73"/><circle class="cls-1" cx="153.73" cy="492.34" r="9.73"/><circle class="cls-1" cx="113.06" cy="478.57" r="9.73"/><circle class="cls-1" cx="73.3" cy="461.87" r="9.73"/><circle class="cls-1" cx="217.69" cy="503.46" r="9.73"/><circle class="cls-1" cx="177.01" cy="489.79" r="9.73"/><circle class="cls-1" cx="34.65" cy="441.96" r="9.73"/><circle class="cls-1" cx="56.03" cy="445.73" r="9.73"/><circle class="cls-1" cx="96.72" cy="459.37" r="9.73"/><circle class="cls-1" cx="137.41" cy="473.01" r="9.73"/><circle class="cls-1" cx="120.41" cy="457.09" r="9.73"/><circle class="cls-1" cx="80.93" cy="440.21" r="9.73"/><circle class="cls-1" cx="161.18" cy="470.65" r="9.73"/><circle class="cls-1" cx="241.43" cy="501.09" r="9.73"/><circle class="cls-1" cx="42.86" cy="419.84" r="9.73"/><circle class="cls-1" cx="201.99" cy="484.15" r="9.73"/><circle class="cls-1" cx="64.12" cy="424.56" r="9.73"/><circle class="cls-1" cx="105" cy="438.08" r="9.73"/><circle class="cls-1" cx="145.95" cy="451.56" r="9.73"/><circle class="cls-1" cx="185.33" cy="468.6" r="9.73"/><circle class="cls-1" cx="90.03" cy="419.12" r="9.73"/><circle class="cls-1" cx="129.4" cy="436.25" r="9.73"/><circle class="cls-1" cx="226.4" cy="482.06" r="9.73"/><circle class="cls-1" cx="52.43" cy="398.28" r="9.73"/><circle class="cls-1" cx="73.53" cy="403.95" r="9.73"/><circle class="cls-1" cx="170.58" cy="449.72" r="9.73"/><circle class="cls-1" cx="114.8" cy="417.45" r="9.73"/><circle class="cls-1" cx="212.01" cy="463.13" r="9.73"/><circle class="cls-1" cx="156.28" cy="430.91" r="9.73"/><circle class="cls-1" cx="100.55" cy="398.7" r="9.73"/><circle class="cls-1" cx="63.32" cy="377.35" r="9.73"/><circle class="cls-1" cx="251.46" cy="480.52" r="9.73"/><circle class="cls-1" cx="195.72" cy="448.34" r="9.73"/><circle class="cls-1" cx="139.98" cy="416.16" r="9.73"/><circle class="cls-1" cx="84.24" cy="383.98" r="9.73"/><circle class="cls-1" cx="126.08" cy="397.59" r="9.73"/><circle class="cls-1" cx="181.87" cy="429.75" r="9.73"/><circle class="cls-1" cx="237.7" cy="461.91" r="9.73"/><circle class="cls-1" cx="75.5" cy="357.15" r="9.73"/><circle class="cls-1" cx="112.44" cy="379.05" r="9.73"/><circle class="cls-1" cx="96.18" cy="364.72" r="9.73"/><circle class="cls-1" cx="168.33" cy="411.21" r="9.73"/><circle class="cls-1" cx="152.08" cy="396.96" r="9.73"/><circle class="cls-1" cx="224.33" cy="443.37" r="9.73"/><circle class="cls-1" cx="208.07" cy="429.22" r="9.73"/><circle class="cls-1" cx="138.77" cy="378.59" r="9.73"/><circle class="cls-1" cx="88.91" cy="337.74" r="9.73"/><circle class="cls-1" cx="125.64" cy="360.26" r="9.73"/><circle class="cls-1" cx="109.33" cy="346.27" r="9.73"/><circle class="cls-1" cx="194.94" cy="410.9" r="9.73"/><circle class="cls-1" cx="264.25" cy="461.56" r="9.73"/><circle class="cls-1" cx="182.01" cy="392.62" r="9.73"/><circle class="cls-1" cx="165.64" cy="378.75" r="9.73"/><circle class="cls-1" cx="251.42" cy="443.32" r="9.73"/><circle class="cls-1" cx="152.81" cy="360.57" r="9.73"/><circle class="cls-1" cx="103.5" cy="319.2" r="9.73"/><circle class="cls-1" cx="123.61" cy="328.68" r="9.73"/><circle class="cls-1" cx="140.1" cy="342.41" r="9.73"/><circle class="cls-1" cx="222.26" cy="411.42" r="9.73"/><circle class="cls-1" cx="238.79" cy="425.12" r="9.73"/><circle class="cls-1" cx="209.69" cy="393.33" r="9.73"/><circle class="cls-1" cx="180.56" cy="361.64" r="9.73"/><circle class="cls-1" cx="119.22" cy="301.61" r="9.73"/><circle class="cls-1" cx="197.23" cy="375.25" r="9.73"/><circle class="cls-1" cx="168.12" cy="343.62" r="9.73"/><circle class="cls-1" cx="138.99" cy="312.03" r="9.73"/><circle class="cls-1" cx="155.75" cy="325.6" r="9.73"/><circle class="cls-1" cx="279.56" cy="444.55" r="9.73"/><circle class="cls-1" cx="267.34" cy="426.58" r="9.73"/><circle class="cls-1" cx="238.16" cy="395.12" r="9.73"/><circle class="cls-1" cx="136.01" cy="285.03" r="9.73"/><circle class="cls-1" cx="196.77" cy="345.75" r="9.73"/><circle class="cls-1" cx="225.98" cy="377.18" r="9.73"/><circle class="cls-1" cx="255.21" cy="408.61" r="9.73"/><circle class="cls-1" cx="155.39" cy="296.4" r="9.73"/><circle class="cls-1" cx="184.62" cy="327.82" r="9.73"/><circle class="cls-1" cx="213.86" cy="359.24" r="9.73"/><circle class="cls-1" cx="172.51" cy="309.9" r="9.73"/><circle class="cls-1" cx="153.8" cy="269.53" r="9.73"/><circle class="cls-1" cx="172.75" cy="281.83" r="9.73"/><circle class="cls-1" cx="214.16" cy="331.16" r="9.73"/><circle class="cls-1" cx="202.22" cy="313.27" r="9.73"/><circle class="cls-1" cx="190.3" cy="295.37" r="9.73"/><circle class="cls-1" cx="255.6" cy="380.49" r="9.73"/><circle class="cls-1" cx="243.69" cy="362.6" r="9.73"/><circle class="cls-1" cx="231.8" cy="344.7" r="9.73"/><circle class="cls-1" cx="297.09" cy="429.85" r="9.73"/><circle class="cls-1" cx="285.23" cy="411.95" r="9.73"/><circle class="cls-1" cx="172.51" cy="255.17" r="9.73"/><circle class="cls-1" cx="273.38" cy="394.04" r="9.73"/><circle class="cls-1" cx="190.99" cy="268.4" r="9.73"/><circle class="cls-1" cx="232.63" cy="317.95" r="9.73"/><circle class="cls-1" cx="220.84" cy="300.03" r="9.73"/><circle class="cls-1" cx="209.05" cy="282.1" r="9.73"/><circle class="cls-1" cx="192.09" cy="242" r="9.73"/><circle class="cls-1" cx="250.91" cy="331.74" r="9.73"/><circle class="cls-1" cx="262.66" cy="349.7" r="9.73"/><circle class="cls-1" cx="274.41" cy="367.66" r="9.73"/><circle class="cls-1" cx="210.06" cy="256.15" r="9.73"/><circle class="cls-1" cx="228.66" cy="270.15" r="9.73"/><circle class="cls-1" cx="240.37" cy="288.18" r="9.73"/><circle class="cls-1" cx="293.07" cy="381.61" r="9.73"/><circle class="cls-1" cx="252.07" cy="306.23" r="9.73"/><circle class="cls-1" cx="304.79" cy="399.65" r="9.73"/><circle class="cls-1" cx="212.44" cy="230.08" r="9.73"/><circle class="cls-1" cx="316.49" cy="417.72" r="9.73"/><circle class="cls-1" cx="229.86" cy="245.13" r="9.73"/><circle class="cls-1" cx="271.05" cy="320.45" r="9.73"/><circle class="cls-1" cx="282.74" cy="338.6" r="9.73"/><circle class="cls-1" cx="294.4" cy="356.78" r="9.73"/><circle class="cls-1" cx="249.04" cy="259.56" r="9.73"/><circle class="cls-1" cx="260.71" cy="277.78" r="9.73"/><circle class="cls-1" cx="233.51" cy="219.45" r="9.73"/><circle class="cls-1" cx="272.35" cy="296.04" r="9.73"/><circle class="cls-1" cx="250.32" cy="235.39" r="9.73"/><circle class="cls-1" cx="314.04" cy="371.48" r="9.73"/><circle class="cls-1" cx="292.08" cy="310.92" r="9.73"/><circle class="cls-1" cx="270.1" cy="250.39" r="9.73"/><circle class="cls-1" cx="325.73" cy="389.89" r="9.73"/><circle class="cls-1" cx="255.19" cy="210.15" r="9.73"/><circle class="cls-1" cx="303.74" cy="329.38" r="9.73"/><circle class="cls-1" cx="281.75" cy="268.88" r="9.73"/><circle class="cls-1" cx="337.39" cy="408.42" r="9.73"/><circle class="cls-1" cx="315.38" cy="347.93" r="9.73"/><circle class="cls-1" cx="293.37" cy="287.45" r="9.73"/><circle class="cls-1" cx="271.35" cy="226.97" r="9.73"/><circle class="cls-1" cx="277.41" cy="202.22" r="9.73"/><circle class="cls-1" cx="291.74" cy="242.68" r="9.73"/><circle class="cls-1" cx="313.84" cy="303.21" r="9.73"/><circle class="cls-1" cx="303.38" cy="261.54" r="9.73"/><circle class="cls-1" cx="292.88" cy="219.9" r="9.73"/><circle class="cls-1" cx="336.01" cy="363.76" r="9.73"/><circle class="cls-1" cx="325.51" cy="322.13" r="9.73"/><circle class="cls-1" cx="314.98" cy="280.52" r="9.73"/><circle class="cls-1" cx="347.72" cy="382.8" r="9.73"/><circle class="cls-1" cx="337.14" cy="341.22" r="9.73"/><circle class="cls-1" cx="300.08" cy="195.68" r="9.73"/><circle class="cls-1" cx="313.85" cy="236.47" r="9.73"/><circle class="cls-1" cx="314.81" cy="214.21" r="9.73"/><circle class="cls-1" cx="325.48" cy="255.79" r="9.73"/><circle class="cls-1" cx="336.18" cy="297.37" r="9.73"/><circle class="cls-1" cx="359.39" cy="402.11" r="9.73"/><circle class="cls-1" cx="337.07" cy="275.28" r="9.73"/><circle class="cls-1" cx="323.11" cy="190.58" r="9.73"/><circle class="cls-1" cx="347.85" cy="316.91" r="9.73"/><circle class="cls-2" cx="336.33" cy="231.79" r="9.73"/><circle class="cls-2" cx="358.7" cy="358.56" r="9.73"/><circle class="cls-2" cx="337.06" cy="209.92" r="9.73"/><circle class="cls-2" cx="359.45" cy="336.71" r="9.73"/><circle class="cls-2" cx="347.95" cy="251.66" r="9.73"/><circle class="cls-2" cx="358.94" cy="293.46" r="9.73"/><circle class="cls-2" cx="370.43" cy="378.51" r="9.73"/><circle class="cls-2" cx="346.42" cy="186.92" r="9.73"/><circle class="cls-2" cx="359.5" cy="271.78" r="9.73"/><circle class="cls-2" cx="359.09" cy="228.66" r="9.73"/><circle class="cls-2" cx="359.54" cy="207.05" r="9.73"/><circle class="cls-2" cx="370.57" cy="313.76" r="9.73"/><circle class="cls-2" cx="370.66" cy="249.17" r="9.73"/><circle class="cls-2" cx="382.05" cy="398.92" r="9.73"/><circle class="cls-2" cx="369.91" cy="184.71" r="9.73"/><circle class="cls-2" cx="381.84" cy="355.94" r="9.73"/><circle class="cls-2" cx="382.1" cy="334.45" r="9.73"/><circle class="cls-2" cx="381.94" cy="291.5" r="9.73"/><circle class="cls-2" cx="382.14" cy="270.02" r="9.73"/><circle class="cls-2" cx="382" cy="227.08" r="9.73"/><circle class="cls-2" cx="382.16" cy="205.61" r="9.73"/><circle class="cls-2" cx="393.49" cy="377.07" r="9.73"/><circle class="cls-2" cx="393.49" cy="312.71" r="9.73"/><circle class="cls-2" cx="393.49" cy="248.34" r="9.73"/><circle class="cls-2" cx="393.49" cy="183.98" r="9.73"/><circle class="cls-2" cx="404.82" cy="205.61" r="9.73"/><circle class="cls-2" cx="404.97" cy="227.08" r="9.73"/><circle class="cls-2" cx="404.84" cy="270.02" r="9.73"/><circle class="cls-2" cx="405.03" cy="291.5" r="9.73"/><circle class="cls-3" cx="404.87" cy="334.45" r="9.73"/><circle class="cls-3" cx="405.13" cy="355.94" r="9.73"/><circle class="cls-3" cx="417.07" cy="184.71" r="9.73"/><circle class="cls-3" cx="404.93" cy="398.92" r="9.73"/><circle class="cls-3" cx="416.31" cy="249.17" r="9.73"/><circle class="cls-3" cx="416.4" cy="313.76" r="9.73"/><circle class="cls-3" cx="427.43" cy="207.05" r="9.73"/><circle class="cls-3" cx="427.88" cy="228.66" r="9.73"/><circle class="cls-3" cx="427.47" cy="271.78" r="9.73"/><circle class="cls-3" cx="416.55" cy="378.51" r="9.73"/><circle class="cls-3" cx="440.56" cy="186.92" r="9.73"/><circle class="cls-3" cx="428.04" cy="293.46" r="9.73"/><circle class="cls-3" cx="439.02" cy="251.66" r="9.73"/><circle class="cls-3" cx="427.52" cy="336.71" r="9.73"/><circle class="cls-3" cx="449.91" cy="209.92" r="9.73"/><circle class="cls-3" cx="428.27" cy="358.56" r="9.73"/><circle class="cls-3" cx="450.64" cy="231.79" r="9.73"/><circle class="cls-3" cx="439.12" cy="316.91" r="9.73"/><circle class="cls-3" cx="463.86" cy="190.58" r="9.73"/><circle class="cls-3" cx="449.9" cy="275.28" r="9.73"/><circle class="cls-3" cx="427.58" cy="402.11" r="9.73"/><circle class="cls-3" cx="450.79" cy="297.37" r="9.73"/><circle class="cls-3" cx="461.49" cy="255.79" r="9.73"/><circle class="cls-3" cx="472.16" cy="214.21" r="9.73"/><circle class="cls-3" cx="473.12" cy="236.47" r="9.73"/><circle class="cls-3" cx="439.25" cy="382.8" r="9.73"/><circle class="cls-3" cx="449.84" cy="341.22" r="9.73"/><circle class="cls-3" cx="486.89" cy="195.68" r="9.73"/><circle class="cls-3" cx="471.99" cy="280.52" r="9.73"/><circle class="cls-4" cx="461.46" cy="322.13" r="9.73"/><circle class="cls-4" cx="450.97" cy="363.76" r="9.73"/><circle class="cls-4" cx="494.09" cy="219.9" r="9.73"/><circle class="cls-4" cx="483.59" cy="261.54" r="9.73"/><circle class="cls-4" cx="473.13" cy="303.21" r="9.73"/><circle class="cls-4" cx="495.23" cy="242.68" r="9.73"/><circle class="cls-4" cx="509.56" cy="202.22" r="9.73"/><circle class="cls-4" cx="449.58" cy="408.42" r="9.73"/><circle class="cls-4" cx="471.59" cy="347.93" r="9.73"/><circle class="cls-4" cx="493.6" cy="287.45" r="9.73"/><circle class="cls-4" cx="515.62" cy="226.97" r="9.73"/><circle class="cls-4" cx="505.22" cy="268.88" r="9.73"/><circle class="cls-4" cx="483.23" cy="329.38" r="9.73"/><circle class="cls-4" cx="461.24" cy="389.89" r="9.73"/><circle class="cls-4" cx="531.78" cy="210.15" r="9.73"/><circle class="cls-4" cx="516.87" cy="250.39" r="9.73"/><circle class="cls-4" cx="494.89" cy="310.92" r="9.73"/><circle class="cls-4" cx="472.94" cy="371.48" r="9.73"/><circle class="cls-4" cx="536.65" cy="235.39" r="9.73"/><circle class="cls-4" cx="514.62" cy="296.04" r="9.73"/><circle class="cls-4" cx="526.26" cy="277.78" r="9.73"/><circle class="cls-4" cx="553.47" cy="219.45" r="9.73"/><circle class="cls-4" cx="537.93" cy="259.56" r="9.73"/><circle class="cls-4" cx="492.57" cy="356.78" r="9.73"/><circle class="cls-4" cx="504.23" cy="338.6" r="9.73"/><circle class="cls-4" cx="515.92" cy="320.45" r="9.73"/><circle class="cls-4" cx="557.11" cy="245.13" r="9.73"/><circle class="cls-4" cx="470.48" cy="417.72" r="9.73"/><circle class="cls-4" cx="482.18" cy="399.65" r="9.73"/><circle class="cls-4" cx="574.53" cy="230.08" r="9.73"/><circle class="cls-4" cx="534.91" cy="306.23" r="9.73"/><circle class="cls-4" cx="493.9" cy="381.61" r="9.73"/><circle class="cls-4" cx="546.6" cy="288.18" r="9.73"/><circle class="cls-4" cx="558.31" cy="270.15" r="9.73"/><circle class="cls-4" cx="576.92" cy="256.15" r="9.73"/><circle class="cls-4" cx="512.56" cy="367.66" r="9.73"/><circle class="cls-4" cx="524.31" cy="349.7" r="9.73"/><circle class="cls-4" cx="536.06" cy="331.74" r="9.73"/><circle class="cls-4" cx="594.88" cy="242" r="9.73"/><circle class="cls-4" cx="554.34" cy="317.95" r="9.73"/><circle class="cls-4" cx="566.13" cy="300.03" r="9.73"/><circle class="cls-4" cx="577.92" cy="282.1" r="9.73"/><circle class="cls-4" cx="595.98" cy="268.4" r="9.73"/><circle class="cls-4" cx="513.59" cy="394.04" r="9.73"/><circle class="cls-4" cx="501.74" cy="411.95" r="9.73"/><circle class="cls-4" cx="614.46" cy="255.17" r="9.73"/><circle class="cls-4" cx="489.88" cy="429.85" r="9.73"/><circle class="cls-4" cx="555.17" cy="344.7" r="9.73"/><circle class="cls-4" cx="543.28" cy="362.6" r="9.73"/><circle class="cls-4" cx="531.37" cy="380.49" r="9.73"/><circle class="cls-4" cx="596.67" cy="295.37" r="9.73"/><circle class="cls-4" cx="584.75" cy="313.27" r="9.73"/><circle class="cls-4" cx="572.81" cy="331.16" r="9.73"/><circle class="cls-4" cx="614.22" cy="281.83" r="9.73"/><circle class="cls-4" cx="633.18" cy="269.53" r="9.73"/><circle class="cls-4" cx="614.46" cy="309.9" r="9.73"/><circle class="cls-4" cx="573.11" cy="359.24" r="9.73"/><circle class="cls-4" cx="602.35" cy="327.82" r="9.73"/><circle class="cls-4" cx="631.58" cy="296.4" r="9.73"/><circle class="cls-4" cx="531.76" cy="408.61" r="9.73"/><circle class="cls-4" cx="560.99" cy="377.18" r="9.73"/><circle class="cls-4" cx="590.2" cy="345.75" r="9.73"/><circle class="cls-5" cx="519.63" cy="426.58" r="9.73"/><circle class="cls-4" cx="548.81" cy="395.12" r="9.73"/><circle class="cls-5" cx="650.96" cy="285.03" r="9.73"/><circle class="cls-5" cx="507.41" cy="444.55" r="9.73"/><circle class="cls-5" cx="631.22" cy="325.6" r="9.73"/><circle class="cls-5" cx="647.98" cy="312.03" r="9.73"/><circle class="cls-5" cx="618.85" cy="343.62" r="9.73"/><circle class="cls-5" cx="589.74" cy="375.25" r="9.73"/><circle class="cls-5" cx="667.75" cy="301.61" r="9.73"/><circle class="cls-5" cx="606.41" cy="361.64" r="9.73"/><circle class="cls-5" cx="577.28" cy="393.33" r="9.73"/><circle class="cls-5" cx="548.18" cy="425.12" r="9.73"/><circle class="cls-5" cx="564.71" cy="411.42" r="9.73"/><circle class="cls-5" cx="646.87" cy="342.41" r="9.73"/><circle class="cls-5" cx="663.36" cy="328.68" r="9.73"/><circle class="cls-5" cx="535.55" cy="443.32" r="9.73"/><circle class="cls-5" cx="634.16" cy="360.57" r="9.73"/><circle class="cls-5" cx="683.47" cy="319.2" r="9.73"/><circle class="cls-5" cx="621.33" cy="378.75" r="9.73"/><circle class="cls-5" cx="604.96" cy="392.62" r="9.73"/><circle class="cls-5" cx="522.72" cy="461.56" r="9.73"/><circle class="cls-5" cx="592.03" cy="410.9" r="9.73"/><circle class="cls-5" cx="677.65" cy="346.27" r="9.73"/><circle class="cls-5" cx="661.33" cy="360.26" r="9.73"/><circle class="cls-5" cx="698.06" cy="337.74" r="9.73"/><circle class="cls-5" cx="648.2" cy="378.59" r="9.73"/><circle class="cls-5" cx="578.9" cy="429.22" r="9.73"/><circle class="cls-5" cx="562.64" cy="443.37" r="9.73"/><circle class="cls-5" cx="634.89" cy="396.96" r="9.73"/><circle class="cls-5" cx="618.64" cy="411.21" r="9.73"/><circle class="cls-5" cx="690.79" cy="364.72" r="9.73"/><circle class="cls-5" cx="674.54" cy="379.05" r="9.73"/><circle class="cls-5" cx="549.27" cy="461.91" r="9.73"/><circle class="cls-5" cx="711.47" cy="357.15" r="9.73"/><circle class="cls-5" cx="605.1" cy="429.75" r="9.73"/><circle class="cls-5" cx="660.89" cy="397.59" r="9.73"/><circle class="cls-5" cx="535.51" cy="480.52" r="9.73"/><circle class="cls-5" cx="591.25" cy="448.34" r="9.73"/><circle class="cls-5" cx="647" cy="416.16" r="9.73"/><circle class="cls-5" cx="702.74" cy="383.98" r="9.73"/><circle class="cls-5" cx="723.65" cy="377.35" r="9.73"/><circle class="cls-5" cx="686.43" cy="398.7" r="9.73"/><circle class="cls-5" cx="630.69" cy="430.91" r="9.73"/><circle class="cls-5" cx="574.96" cy="463.13" r="9.73"/><circle class="cls-5" cx="672.17" cy="417.45" r="9.73"/><circle class="cls-5" cx="616.39" cy="449.72" r="9.73"/><circle class="cls-5" cx="713.44" cy="403.95" r="9.73"/><circle class="cls-5" cx="560.57" cy="482.06" r="9.73"/><circle class="cls-5" cx="734.54" cy="398.28" r="9.73"/><circle class="cls-5" cx="657.57" cy="436.25" r="9.73"/><circle class="cls-5" cx="696.94" cy="419.12" r="9.73"/><circle class="cls-5" cx="601.64" cy="468.6" r="9.73"/><circle class="cls-5" cx="641.02" cy="451.56" r="9.73"/><circle class="cls-5" cx="681.97" cy="438.08" r="9.73"/><circle class="cls-5" cx="722.85" cy="424.56" r="9.73"/><circle class="cls-5" cx="584.98" cy="484.15" r="9.73"/><circle class="cls-5" cx="744.11" cy="419.84" r="9.73"/><circle class="cls-5" cx="545.54" cy="501.09" r="9.73"/><circle class="cls-5" cx="625.79" cy="470.65" r="9.73"/><circle class="cls-5" cx="706.04" cy="440.21" r="9.73"/><circle class="cls-5" cx="666.57" cy="457.09" r="9.73"/><circle class="cls-5" cx="649.56" cy="473.01" r="9.73"/><circle class="cls-5" cx="690.25" cy="459.37" r="9.73"/><circle class="cls-5" cx="730.94" cy="445.73" r="9.73"/><circle class="cls-5" cx="569.28" cy="503.46" r="9.73"/><circle class="cls-5" cx="609.96" cy="489.79" r="9.73"/><circle class="cls-5" cx="752.32" cy="441.96" r="9.73"/><circle class="cls-5" cx="713.67" cy="461.87" r="9.73"/><circle class="cls-5" cx="673.92" cy="478.57" r="9.73"/><circle class="cls-5" cx="633.24" cy="492.34" r="9.73"/><circle class="cls-5" cx="592.57" cy="506.17" r="9.73"/><circle class="cls-5" cx="737.67" cy="467.37" r="9.73"/><circle class="cls-5" cx="696.96" cy="481.21" r="9.73"/><circle class="cls-5" cx="759.13" cy="464.55" r="9.73"/><circle class="cls-5" cx="656.25" cy="495.11" r="9.73"/><circle class="cls-5" cx="552.61" cy="522.85" r="9.73"/><circle class="cls-5" cx="719.81" cy="484" r="9.73"/><circle class="cls-5" cx="616.12" cy="511.71" r="9.73"/><circle class="cls-5" cx="679.58" cy="500.55" r="9.73"/><circle class="cls-5" cx="743.01" cy="489.39" r="9.73"/><circle class="cls-5" cx="575.26" cy="525.78" r="9.73"/><circle class="cls-5" cx="764.53" cy="487.52" r="9.73"/><circle class="cls-5" cx="638.67" cy="514.63" r="9.73"/><circle class="cls-5" cx="702.07" cy="503.47" r="9.73"/><circle class="cls-5" cx="724.41" cy="506.51" r="9.73"/><circle class="cls-5" cx="661.03" cy="517.69" r="9.73"/><circle class="cls-5" cx="597.64" cy="528.89" r="9.73"/><circle class="cls-5" cx="746.94" cy="511.71" r="9.73"/><circle class="cls-5" cx="768.48" cy="510.78" r="9.73"/><circle class="cls-5" cx="683.52" cy="522.91" r="9.73"/><circle class="cls-5" cx="620.08" cy="534.13" r="9.73"/><circle class="cls-5" cx="705.54" cy="526.05" r="9.73"/><circle class="cls-5" cx="556.59" cy="545.38" r="9.73"/><circle class="cls-5" cx="642.03" cy="537.32" r="9.73"/><circle class="cls-5" cx="727.47" cy="529.27" r="9.73"/><circle class="cls-5" cx="663.87" cy="540.61" r="9.73"/><circle class="cls-5" cx="749.45" cy="534.23" r="9.73"/><circle class="cls-5" cx="578.42" cy="548.67" r="9.73"/><circle class="cls-5" cx="770.97" cy="534.24" r="9.73"/><circle class="cls-5" cx="685.72" cy="545.5" r="9.73"/><circle class="cls-5" cx="600.13" cy="552.05" r="9.73"/><circle class="cls-5" cx="707.37" cy="548.82" r="9.73"/><circle class="cls-5" cx="728.96" cy="552.19" r="9.73"/><circle class="cls-5" cx="621.78" cy="556.83" r="9.73"/><circle class="cls-5" cx="750.53" cy="556.86" r="9.73"/><circle class="cls-5" cx="772" cy="557.81" r="9.73"/><circle class="cls-5" cx="643.29" cy="560.23" r="9.73"/><circle class="cls-5" cx="664.76" cy="563.68" r="9.73"/><circle class="cls-5" cx="686.16" cy="568.2" r="9.73"/><circle class="cls-5" cx="707.53" cy="571.66" r="9.73"/><circle class="cls-5" cx="557.39" cy="568.25" r="9.73"/><circle class="cls-5" cx="728.88" cy="575.16" r="9.73"/><circle class="cls-5" cx="750.17" cy="579.52" r="9.73"/><circle class="cls-5" cx="578.71" cy="571.77" r="9.73"/><circle class="cls-5" cx="771.56" cy="581.39" r="9.73"/><circle class="cls-5" cx="600" cy="575.33" r="9.73"/><circle class="cls-5" cx="621.21" cy="579.59" r="9.73"/><circle class="cls-5" cx="642.45" cy="583.15" r="9.73"/><circle class="cls-5" cx="663.68" cy="586.74" r="9.73"/><circle class="cls-5" cx="684.84" cy="590.86" r="9.73"/><circle class="cls-5" cx="706.04" cy="594.46" r="9.73"/><circle class="cls-5" cx="727.24" cy="598.07" r="9.73"/><circle class="cls-5" cx="748.38" cy="602.1" r="9.73"/><circle class="cls-5" cx="769.65" cy="604.91" r="9.73"/><circle class="cls-5" cx="554.99" cy="591" r="9.73"/><circle class="cls-5" cx="576.12" cy="594.73" r="9.73"/><circle class="cls-5" cx="597.25" cy="598.45" r="9.73"/><circle class="cls-5" cx="618.38" cy="602.18" r="9.73"/><circle class="cls-5" cx="639.51" cy="605.91" r="9.73"/><circle class="cls-5" cx="660.64" cy="609.63" r="9.73"/><circle class="cls-5" cx="681.77" cy="613.36" r="9.73"/><circle class="cls-5" cx="702.89" cy="617.08" r="9.73"/><circle class="cls-5" cx="724.02" cy="620.81" r="9.73"/><circle class="cls-5" cx="745.15" cy="624.53" r="9.73"/><circle class="cls-5" cx="766.28" cy="628.26" r="9.73"/><text class="cls-6" transform="translate(25.37 27.42)">Composición de la Cámara de Representantes <tspan x="220.77" y="38.4">según los sondeos</tspan></text><text class="cls-7" transform="translate(2.03 685.92) rotate(-0.09)">Fuente: Ballotpedia</text><text class="cls-7" transform="translate(634.03 686.92) rotate(-0.09)">LA VANGUARDIA</text><path class="cls-8" d="M394,887" transform="translate(-6.51 -6.9)"/><path class="cls-8" d="M394,282" transform="translate(-6.51 -6.9)"/><text class="cls-9" transform="translate(346.18 544.1)">Mayoría<tspan x="25.86" y="30">218</tspan></text><text class="cls-10" transform="translate(0.03 115.92) rotate(-0.09)">Demócratas (180)</text><text class="cls-11" transform="translate(1.03 143.92) rotate(-0.09)">Potencialmente demócratas (29)</text><text class="cls-12" transform="translate(431.03 143.92) rotate(-0.09)">Potencialmente republicanos (62)</text><text class="cls-13" transform="translate(589.03 114.92) rotate(-0.09)">Republicanos (135)</text><text class="cls-14" transform="translate(0.03 174.92) rotate(-0.09)">En duda (29)</text></svg>