<svg id="cfe45437-b188-47f1-9ed0-5a4b93c50b1f" data-name="Capa 1" xmlns="http://www.w3.org/2000/svg" viewBox="0 0 585 490"><defs><style>.\33 9fe55ee-1034-4c75-bf8a-1a5f918de10f,.a47ba7c0-764b-4e00-b5f5-884b519e8015,.b7bdf4db-745e-469f-954b-5a4429c17448,.b830d61d-c399-4fb3-ab50-6fa70f51ee63,.c5b41e0f-dfc7-40e7-ac4a-843e25d4da4d{fill:#757575;}.c5b41e0f-dfc7-40e7-ac4a-843e25d4da4d{opacity:0.09;}.b7bdf4db-745e-469f-954b-5a4429c17448{font-size:14px;}.\36 3923d8c-fee3-4999-8688-86d35a249ff7,.a47ba7c0-764b-4e00-b5f5-884b519e8015,.b58bb637-580d-496b-b88c-164cc869bc63,.b7bdf4db-745e-469f-954b-5a4429c17448{font-family:ArialMT, Arial;}.\33 9fe55ee-1034-4c75-bf8a-1a5f918de10f,.b830d61d-c399-4fb3-ab50-6fa70f51ee63{font-size:13px;}.\33 9fe55ee-1034-4c75-bf8a-1a5f918de10f,.b830d61d-c399-4fb3-ab50-6fa70f51ee63,.cc644343-1358-4c76-a686-95cce47fdc03{font-family:Arial-BoldMT, Arial;}.\37 fb86300-366e-4caa-9644-d5c55c5c832a,.b830d61d-c399-4fb3-ab50-6fa70f51ee63,.cc644343-1358-4c76-a686-95cce47fdc03{font-weight:700;}.\34 5466520-f4d5-4c1f-910d-2c992d227bac{letter-spacing:-0.06em;}.dbd31635-fa6b-4ed5-af25-1a08780e91aa{letter-spacing:0em;}.\34 445dad4-1d95-45ef-a4ae-b29367b2d401,.cfd5e223-18b9-4d02-b774-697fa1b98b41{fill:none;}.\34 445dad4-1d95-45ef-a4ae-b29367b2d401{stroke:#000;}.\34 445dad4-1d95-45ef-a4ae-b29367b2d401,.\35 b714b1d-2300-4874-8765-cfb704d3704f,.\39 fa27ee5-513e-4765-9a4e-b9c693bb8d3c,.be4c2682-83e6-4e23-a603-506226863ff7,.cfd5e223-18b9-4d02-b774-697fa1b98b41{stroke-miterlimit:10;}.cfd5e223-18b9-4d02-b774-697fa1b98b41{stroke:#d6d6d6;}.\39 fa27ee5-513e-4765-9a4e-b9c693bb8d3c{fill:#15acb1;stroke:#15acb1;}.be4c2682-83e6-4e23-a603-506226863ff7{fill:#a01f51;stroke:#a01f51;}.cc644343-1358-4c76-a686-95cce47fdc03{font-size:24px;}.\35 b714b1d-2300-4874-8765-cfb704d3704f,.\36 3923d8c-fee3-4999-8688-86d35a249ff7,.cc644343-1358-4c76-a686-95cce47fdc03{fill:#323232;}.\36 3923d8c-fee3-4999-8688-86d35a249ff7,.a47ba7c0-764b-4e00-b5f5-884b519e8015,.ac2bf6e0-5ba8-4794-8942-3dede1ec5a53,.b58bb637-580d-496b-b88c-164cc869bc63{font-size:11px;}.ac2bf6e0-5ba8-4794-8942-3dede1ec5a53{font-family:Arial-ItalicMT, Arial;font-style:italic;}.\32 b09d98f-0037-4f2c-86ab-3b6f34c58a5e{letter-spacing:-0.07em;}.\39 73cc728-9918-489d-b17c-35c4dcf049c6{letter-spacing:-0.06em;}.\39 9338d2d-7e87-49d0-b855-eb8c51442b7e{letter-spacing:0em;}.fe60324d-4e90-43b4-acb5-3f7d5abf4686{letter-spacing:-0.06em;}.\35 5ddf47f-8199-4959-9f0c-095c0b8aa9df{letter-spacing:0em;}.\33 90609c8-e93c-42ee-87ef-a1ab2218d71f{letter-spacing:-0.07em;}.b7e975ac-b757-4e3a-8f06-2a12679d969c{letter-spacing:-0.06em;}.\33 e9929ed-23d7-446e-8aab-81b41dee1d2d{letter-spacing:0em;}.\35 b714b1d-2300-4874-8765-cfb704d3704f{stroke:#757575;}</style></defs><title>2018.05_Palestine</title><rect class="c5b41e0f-dfc7-40e7-ac4a-843e25d4da4d" x="232" y="46" width="33" height="392.69"/><rect class="c5b41e0f-dfc7-40e7-ac4a-843e25d4da4d" x="295" y="46" width="33" height="392.69"/><rect class="c5b41e0f-dfc7-40e7-ac4a-843e25d4da4d" x="164" y="46" width="33" height="392.69"/><rect class="c5b41e0f-dfc7-40e7-ac4a-843e25d4da4d" x="99" y="46" width="33" height="392.69"/><rect class="c5b41e0f-dfc7-40e7-ac4a-843e25d4da4d" x="33" y="46" width="33" height="394.01"/><rect class="c5b41e0f-dfc7-40e7-ac4a-843e25d4da4d" x="356" y="46" width="33" height="392.59"/><rect class="c5b41e0f-dfc7-40e7-ac4a-843e25d4da4d" x="422" y="46" width="33" height="392.69"/><rect class="c5b41e0f-dfc7-40e7-ac4a-843e25d4da4d" x="482" y="46" width="33" height="392.5"/><rect class="c5b41e0f-dfc7-40e7-ac4a-843e25d4da4d" x="543" y="46" width="33" height="391.18"/><text class="b7bdf4db-745e-469f-954b-5a4429c17448" transform="translate(2.96 285.86) scale(1.01 1)">500</text><text class="b7bdf4db-745e-469f-954b-5a4429c17448" transform="translate(2.96 337.86) scale(1.01 1)">250</text><text class="b7bdf4db-745e-469f-954b-5a4429c17448" transform="translate(2.96 431.86) scale(1.01 1)">250</text><text class="b7bdf4db-745e-469f-954b-5a4429c17448" transform="translate(3.54 386.86) scale(1.01 1)">0</text><text class="b7bdf4db-745e-469f-954b-5a4429c17448" transform="translate(0.17 190.11) scale(1.01 1)">1000</text><text class="b7bdf4db-745e-469f-954b-5a4429c17448" transform="translate(2.96 238.11) scale(1.01 1)">750</text><text class="b7bdf4db-745e-469f-954b-5a4429c17448" transform="translate(1.17 91.36) scale(1.01 1)">1500</text><text class="b7bdf4db-745e-469f-954b-5a4429c17448" transform="translate(2.17 42.36) scale(1.01 1)">1750</text><text class="b830d61d-c399-4fb3-ab50-6fa70f51ee63" transform="translate(34.4 456.36) scale(1.01 1)">2001</text><text class="b830d61d-c399-4fb3-ab50-6fa70f51ee63" transform="translate(101.4 456.36) scale(1.01 1)">2003</text><text class="b830d61d-c399-4fb3-ab50-6fa70f51ee63" transform="translate(170.4 456.36) scale(1.01 1)">2005</text><text class="b830d61d-c399-4fb3-ab50-6fa70f51ee63" transform="translate(233.4 456.36) scale(1.01 1)">2007</text><text class="b830d61d-c399-4fb3-ab50-6fa70f51ee63" transform="translate(298.4 456.36) scale(1.01 1)">2009</text><text class="b830d61d-c399-4fb3-ab50-6fa70f51ee63" transform="translate(360.13 456.36) scale(1.01 1)">20<tspan class="45466520-f4d5-4c1f-910d-2c992d227bac" x="14.46" y="0">1</tspan><tspan class="dbd31635-fa6b-4ed5-af25-1a08780e91aa" x="20.97" y="0">1</tspan></text><text class="b830d61d-c399-4fb3-ab50-6fa70f51ee63" transform="translate(425.4 456.36) scale(1.01 1)">2013</text><text class="b830d61d-c399-4fb3-ab50-6fa70f51ee63" transform="translate(485.4 456.36) scale(1.01 1)">2015</text><text class="b830d61d-c399-4fb3-ab50-6fa70f51ee63" transform="translate(546.4 456.36) scale(1.01 1)">2017</text><text class="b7bdf4db-745e-469f-954b-5a4429c17448" transform="translate(0.16 139.36) scale(1.01 1)">1250</text><line class="4445dad4-1d95-45ef-a4ae-b29367b2d401" x1="23.16" y1="387.92" x2="37.19" y2="387.92"/><line class="cfd5e223-18b9-4d02-b774-697fa1b98b41" x1="3.01" y1="290.17" x2="581" y2="290.17"/><line class="cfd5e223-18b9-4d02-b774-697fa1b98b41" x1="3.01" y1="339.99" x2="581" y2="339.99"/><line class="cfd5e223-18b9-4d02-b774-697fa1b98b41" x1="3.01" y1="388.29" x2="583" y2="388.29"/><line class="cfd5e223-18b9-4d02-b774-697fa1b98b41" x1="3.01" y1="192.43" x2="581" y2="192.43"/><line class="cfd5e223-18b9-4d02-b774-697fa1b98b41" x1="3.01" y1="240.73" x2="581" y2="240.73"/><line class="cfd5e223-18b9-4d02-b774-697fa1b98b41" x1="3.01" y1="94.68" x2="581" y2="94.68"/><line class="cfd5e223-18b9-4d02-b774-697fa1b98b41" x1="3.01" y1="142.99" x2="581" y2="142.99"/><line class="cfd5e223-18b9-4d02-b774-697fa1b98b41" x1="3.01" y1="46.38" x2="581" y2="46.38"/><rect class="9fa27ee5-513e-4765-9a4e-b9c693bb8d3c" x="23.41" y="390.93" width="0.98" height="0.2"/><rect class="9fa27ee5-513e-4765-9a4e-b9c693bb8d3c" x="26.14" y="390.93" width="0.98" height="1.95"/><rect class="9fa27ee5-513e-4765-9a4e-b9c693bb8d3c" x="28.86" y="390.93" width="0.98" height="4.3"/><rect class="9fa27ee5-513e-4765-9a4e-b9c693bb8d3c" x="31.58" y="390.93" width="0.98" height="1.56"/><rect class="9fa27ee5-513e-4765-9a4e-b9c693bb8d3c" x="34.3" y="390.93" width="0.98" height="1.17"/><rect class="9fa27ee5-513e-4765-9a4e-b9c693bb8d3c" x="37.02" y="390.93" width="0.98" height="2.35"/><rect class="9fa27ee5-513e-4765-9a4e-b9c693bb8d3c" x="39.74" y="390.93" width="0.98" height="1.56"/><rect class="9fa27ee5-513e-4765-9a4e-b9c693bb8d3c" x="42.46" y="390.93" width="0.98" height="1.37"/><rect class="9fa27ee5-513e-4765-9a4e-b9c693bb8d3c" x="45.18" y="390.93" width="0.98" height="3.32"/><rect class="9fa27ee5-513e-4765-9a4e-b9c693bb8d3c" x="47.9" y="390.93" width="0.98" height="5.47"/><rect class="9fa27ee5-513e-4765-9a4e-b9c693bb8d3c" x="50.62" y="390.93" width="0.98" height="1.95"/><rect class="9fa27ee5-513e-4765-9a4e-b9c693bb8d3c" x="53.34" y="390.93" width="0.98" height="5.08"/><rect class="9fa27ee5-513e-4765-9a4e-b9c693bb8d3c" x="56.06" y="390.93" width="0.98" height="2.54"/><rect class="9fa27ee5-513e-4765-9a4e-b9c693bb8d3c" x="58.78" y="390.93" width="0.98" height="2.74"/><rect class="9fa27ee5-513e-4765-9a4e-b9c693bb8d3c" x="61.51" y="390.93" width="0.98" height="2.74"/><rect class="9fa27ee5-513e-4765-9a4e-b9c693bb8d3c" x="64.23" y="390.93" width="0.98" height="7.04"/><rect class="9fa27ee5-513e-4765-9a4e-b9c693bb8d3c" x="66.95" y="390.93" width="0.98" height="3.13"/><rect class="9fa27ee5-513e-4765-9a4e-b9c693bb8d3c" x="69.67" y="390.93" width="0.98" height="5.86"/><rect class="9fa27ee5-513e-4765-9a4e-b9c693bb8d3c" x="72.39" y="390.93" width="0.98" height="22.09"/><rect class="9fa27ee5-513e-4765-9a4e-b9c693bb8d3c" x="75.11" y="390.93" width="0.98" height="10.36"/><rect class="9fa27ee5-513e-4765-9a4e-b9c693bb8d3c" x="77.83" y="390.93" width="0.98" height="5.86"/><rect class="9fa27ee5-513e-4765-9a4e-b9c693bb8d3c" x="80.55" y="390.93" width="0.98" height="11.34"/><rect class="9fa27ee5-513e-4765-9a4e-b9c693bb8d3c" x="83.27" y="390.93" width="0.98" height="4.5"/><rect class="9fa27ee5-513e-4765-9a4e-b9c693bb8d3c" x="85.99" y="390.93" width="0.98" height="2.93"/><rect class="9fa27ee5-513e-4765-9a4e-b9c693bb8d3c" x="88.71" y="390.93" width="0.98" height="2.54"/><rect class="9fa27ee5-513e-4765-9a4e-b9c693bb8d3c" x="91.43" y="390.93" width="0.98" height="4.3"/><rect class="9fa27ee5-513e-4765-9a4e-b9c693bb8d3c" x="94.15" y="390.93" width="0.98" height="7.82"/><rect class="9fa27ee5-513e-4765-9a4e-b9c693bb8d3c" x="96.87" y="390.93" width="0.98" height="1.37"/><rect class="9fa27ee5-513e-4765-9a4e-b9c693bb8d3c" x="99.6" y="390.93" width="0.98" height="4.3"/><rect class="9fa27ee5-513e-4765-9a4e-b9c693bb8d3c" x="102.32" y="390.93" width="0.98" height="1.56"/><rect class="9fa27ee5-513e-4765-9a4e-b9c693bb8d3c" x="105.04" y="390.93" width="0.98" height="4.5"/><rect class="9fa27ee5-513e-4765-9a4e-b9c693bb8d3c" x="107.76" y="390.93" width="0.98" height="1.17"/><rect class="9fa27ee5-513e-4765-9a4e-b9c693bb8d3c" x="110.48" y="390.93" width="0.98" height="2.54"/><rect class="9fa27ee5-513e-4765-9a4e-b9c693bb8d3c" x="113.2" y="390.93" width="0.98" height="5.47"/><rect class="9fa27ee5-513e-4765-9a4e-b9c693bb8d3c" x="115.92" y="390.93" width="0.98" height="0.39"/><rect class="9fa27ee5-513e-4765-9a4e-b9c693bb8d3c" x="118.64" y="390.93" width="0.98" height="4.5"/><rect class="9fa27ee5-513e-4765-9a4e-b9c693bb8d3c" x="121.36" y="390.93" width="0.98" height="4.3"/><rect class="9fa27ee5-513e-4765-9a4e-b9c693bb8d3c" x="124.08" y="390.93" width="0.98" height="5.28"/><rect class="9fa27ee5-513e-4765-9a4e-b9c693bb8d3c" x="126.8" y="390.93" width="0.98" height="0.98"/><rect class="9fa27ee5-513e-4765-9a4e-b9c693bb8d3c" x="129.52" y="390.93" width="0.98" height="1.17"/><rect class="9fa27ee5-513e-4765-9a4e-b9c693bb8d3c" x="132.24" y="390.93" width="0.98" height="2.93"/><rect class="9fa27ee5-513e-4765-9a4e-b9c693bb8d3c" x="134.96" y="390.93" width="0.98" height="2.15"/><rect class="9fa27ee5-513e-4765-9a4e-b9c693bb8d3c" x="137.69" y="390.93" width="0.98" height="2.15"/><rect class="9fa27ee5-513e-4765-9a4e-b9c693bb8d3c" x="140.41" y="390.93" width="0.98" height="0.59"/><rect class="9fa27ee5-513e-4765-9a4e-b9c693bb8d3c" x="143.13" y="390.93" width="0.98" height="3.71"/><rect class="9fa27ee5-513e-4765-9a4e-b9c693bb8d3c" x="145.85" y="390.93" width="0.98" height="0.78"/><rect class="9fa27ee5-513e-4765-9a4e-b9c693bb8d3c" x="148.57" y="390.93" width="0.98" height="0.59"/><rect class="9fa27ee5-513e-4765-9a4e-b9c693bb8d3c" x="151.29" y="390.93" width="0.98" height="3.32"/><rect class="9fa27ee5-513e-4765-9a4e-b9c693bb8d3c" x="154.01" y="390.93" width="0.98" height="2.15"/><rect class="9fa27ee5-513e-4765-9a4e-b9c693bb8d3c" x="156.73" y="390.93" width="0.98" height="0.59"/><rect class="9fa27ee5-513e-4765-9a4e-b9c693bb8d3c" x="159.45" y="390.93" width="0.98" height="0.59"/><rect class="9fa27ee5-513e-4765-9a4e-b9c693bb8d3c" x="162.17" y="390.93" width="0.98" height="1.56"/><rect class="9fa27ee5-513e-4765-9a4e-b9c693bb8d3c" x="164.89" y="390.93" width="0.98" height="2.35"/><rect class="9fa27ee5-513e-4765-9a4e-b9c693bb8d3c" x="167.61" y="390.93" width="0.98" height="0.98"/><rect class="9fa27ee5-513e-4765-9a4e-b9c693bb8d3c" x="175.78" y="390.93" width="0.98" height="0.2"/><rect class="9fa27ee5-513e-4765-9a4e-b9c693bb8d3c" x="178.5" y="390.93" width="0.98" height="0.78"/><rect class="9fa27ee5-513e-4765-9a4e-b9c693bb8d3c" x="181.22" y="390.93" width="0.98" height="1.56"/><rect class="9fa27ee5-513e-4765-9a4e-b9c693bb8d3c" x="186.66" y="390.93" width="0.98" height="0.2"/><rect class="9fa27ee5-513e-4765-9a4e-b9c693bb8d3c" x="189.38" y="390.93" width="0.98" height="1.76"/><rect class="9fa27ee5-513e-4765-9a4e-b9c693bb8d3c" x="192.1" y="390.93" width="0.98" height="0.39"/><rect class="9fa27ee5-513e-4765-9a4e-b9c693bb8d3c" x="194.82" y="390.93" width="0.98" height="1.56"/><rect class="9fa27ee5-513e-4765-9a4e-b9c693bb8d3c" x="200.26" y="390.93" width="0.98" height="0.2"/><rect class="9fa27ee5-513e-4765-9a4e-b9c693bb8d3c" x="202.98" y="390.93" width="0.98" height="0.98"/><rect class="9fa27ee5-513e-4765-9a4e-b9c693bb8d3c" x="205.7" y="390.93" width="0.98" height="1.17"/><rect class="9fa27ee5-513e-4765-9a4e-b9c693bb8d3c" x="208.42" y="390.93" width="0.98" height="0.2"/><rect class="9fa27ee5-513e-4765-9a4e-b9c693bb8d3c" x="211.15" y="390.93" width="0.98" height="0.59"/><rect class="9fa27ee5-513e-4765-9a4e-b9c693bb8d3c" x="213.87" y="390.93" width="0.98" height="0.39"/><rect class="9fa27ee5-513e-4765-9a4e-b9c693bb8d3c" x="216.59" y="390.93" width="0.98" height="0.2"/><rect class="9fa27ee5-513e-4765-9a4e-b9c693bb8d3c" x="219.31" y="390.93" width="0.98" height="0.2"/><rect class="9fa27ee5-513e-4765-9a4e-b9c693bb8d3c" x="224.75" y="390.93" width="0.98" height="0.59"/><rect class="9fa27ee5-513e-4765-9a4e-b9c693bb8d3c" x="230.19" y="390.93" width="0.98" height="0.59"/><rect class="9fa27ee5-513e-4765-9a4e-b9c693bb8d3c" x="232.91" y="390.93" width="0.98" height="0.2"/><rect class="9fa27ee5-513e-4765-9a4e-b9c693bb8d3c" x="241.07" y="390.93" width="0.98" height="0.39"/><rect class="9fa27ee5-513e-4765-9a4e-b9c693bb8d3c" x="246.51" y="390.93" width="0.98" height="0.2"/><rect class="9fa27ee5-513e-4765-9a4e-b9c693bb8d3c" x="251.96" y="390.93" width="0.98" height="0.2"/><rect class="9fa27ee5-513e-4765-9a4e-b9c693bb8d3c" x="254.68" y="390.93" width="0.98" height="0.39"/><rect class="9fa27ee5-513e-4765-9a4e-b9c693bb8d3c" x="257.4" y="390.93" width="0.98" height="0.2"/><rect class="9fa27ee5-513e-4765-9a4e-b9c693bb8d3c" x="260.12" y="390.93" width="0.98" height="0.39"/><rect class="9fa27ee5-513e-4765-9a4e-b9c693bb8d3c" x="262.84" y="390.93" width="0.98" height="0.2"/><rect class="9fa27ee5-513e-4765-9a4e-b9c693bb8d3c" x="265.56" y="390.93" width="0.98" height="0.39"/><rect class="9fa27ee5-513e-4765-9a4e-b9c693bb8d3c" x="268.28" y="390.93" width="0.98" height="2.35"/><rect class="9fa27ee5-513e-4765-9a4e-b9c693bb8d3c" x="271" y="390.93" width="0.98" height="1.56"/><rect class="9fa27ee5-513e-4765-9a4e-b9c693bb8d3c" x="273.72" y="390.93" width="0.98" height="0.39"/><rect class="9fa27ee5-513e-4765-9a4e-b9c693bb8d3c" x="276.44" y="390.93" width="0.98" height="0.2"/><rect class="9fa27ee5-513e-4765-9a4e-b9c693bb8d3c" x="279.16" y="390.93" width="0.98" height="0.78"/><rect class="9fa27ee5-513e-4765-9a4e-b9c693bb8d3c" x="287.33" y="390.93" width="0.98" height="0.2"/><rect class="9fa27ee5-513e-4765-9a4e-b9c693bb8d3c" x="292.77" y="390.93" width="0.98" height="0.78"/><rect class="9fa27ee5-513e-4765-9a4e-b9c693bb8d3c" x="295.49" y="390.93" width="0.98" height="1.17"/><rect class="9fa27ee5-513e-4765-9a4e-b9c693bb8d3c" x="303.65" y="390.93" width="0.98" height="0.2"/><rect class="9fa27ee5-513e-4765-9a4e-b9c693bb8d3c" x="306.37" y="390.93" width="0.98" height="0.2"/><rect class="9fa27ee5-513e-4765-9a4e-b9c693bb8d3c" x="317.25" y="390.93" width="0.98" height="0.2"/><rect class="9fa27ee5-513e-4765-9a4e-b9c693bb8d3c" x="325.42" y="390.93" width="0.98" height="0.2"/><rect class="9fa27ee5-513e-4765-9a4e-b9c693bb8d3c" x="330.86" y="390.93" width="0.98" height="0.39"/><rect class="9fa27ee5-513e-4765-9a4e-b9c693bb8d3c" x="333.58" y="390.93" width="0.98" height="0.39"/><rect class="9fa27ee5-513e-4765-9a4e-b9c693bb8d3c" x="341.74" y="390.93" width="0.98" height="0.2"/><rect class="9fa27ee5-513e-4765-9a4e-b9c693bb8d3c" x="347.18" y="390.93" width="0.98" height="0.78"/><rect class="9fa27ee5-513e-4765-9a4e-b9c693bb8d3c" x="366.23" y="390.93" width="0.98" height="0.98"/><rect class="9fa27ee5-513e-4765-9a4e-b9c693bb8d3c" x="368.95" y="390.93" width="0.98" height="0.39"/><rect class="9fa27ee5-513e-4765-9a4e-b9c693bb8d3c" x="379.83" y="390.93" width="0.98" height="0.2"/><rect class="9fa27ee5-513e-4765-9a4e-b9c693bb8d3c" x="382.55" y="390.93" width="0.98" height="0.39"/><rect class="9fa27ee5-513e-4765-9a4e-b9c693bb8d3c" x="385.27" y="390.93" width="0.98" height="0.2"/><rect class="9fa27ee5-513e-4765-9a4e-b9c693bb8d3c" x="404.32" y="390.93" width="0.98" height="0.2"/><rect class="9fa27ee5-513e-4765-9a4e-b9c693bb8d3c" x="417.92" y="390.93" width="0.98" height="1.17"/><rect class="9fa27ee5-513e-4765-9a4e-b9c693bb8d3c" x="428.8" y="390.93" width="0.98" height="0.2"/><rect class="9fa27ee5-513e-4765-9a4e-b9c693bb8d3c" x="439.69" y="390.93" width="0.98" height="0.39"/><rect class="9fa27ee5-513e-4765-9a4e-b9c693bb8d3c" x="442.41" y="390.93" width="0.98" height="0.2"/><rect class="9fa27ee5-513e-4765-9a4e-b9c693bb8d3c" x="445.13" y="390.93" width="0.98" height="0.2"/><rect class="9fa27ee5-513e-4765-9a4e-b9c693bb8d3c" x="447.85" y="390.93" width="0.98" height="0.2"/><rect class="9fa27ee5-513e-4765-9a4e-b9c693bb8d3c" x="461.45" y="390.93" width="0.98" height="0.59"/><rect class="9fa27ee5-513e-4765-9a4e-b9c693bb8d3c" x="464.17" y="390.93" width="0.98" height="11.53"/><rect class="9fa27ee5-513e-4765-9a4e-b9c693bb8d3c" x="466.89" y="390.93" width="0.98" height="1.76"/><rect class="9fa27ee5-513e-4765-9a4e-b9c693bb8d3c" x="472.34" y="390.93" width="0.98" height="0.39"/><rect class="9fa27ee5-513e-4765-9a4e-b9c693bb8d3c" x="475.06" y="390.93" width="0.98" height="1.56"/><rect class="9fa27ee5-513e-4765-9a4e-b9c693bb8d3c" x="488.66" y="390.93" width="0.98" height="0.2"/><rect class="9fa27ee5-513e-4765-9a4e-b9c693bb8d3c" x="491.38" y="390.93" width="0.98" height="0.39"/><rect class="9fa27ee5-513e-4765-9a4e-b9c693bb8d3c" x="499.54" y="390.93" width="0.98" height="0.2"/><rect class="9fa27ee5-513e-4765-9a4e-b9c693bb8d3c" x="502.26" y="390.93" width="0.98" height="1.95"/><rect class="9fa27ee5-513e-4765-9a4e-b9c693bb8d3c" x="504.98" y="390.93" width="0.98" height="1.56"/><rect class="9fa27ee5-513e-4765-9a4e-b9c693bb8d3c" x="507.71" y="390.93" width="0.98" height="0.39"/><rect class="9fa27ee5-513e-4765-9a4e-b9c693bb8d3c" x="510.43" y="390.93" width="0.98" height="0.39"/><rect class="9fa27ee5-513e-4765-9a4e-b9c693bb8d3c" x="513.15" y="390.93" width="0.98" height="0.39"/><rect class="9fa27ee5-513e-4765-9a4e-b9c693bb8d3c" x="524.03" y="390.93" width="0.98" height="0.78"/><rect class="9fa27ee5-513e-4765-9a4e-b9c693bb8d3c" x="526.75" y="390.93" width="0.98" height="0.2"/><rect class="9fa27ee5-513e-4765-9a4e-b9c693bb8d3c" x="534.91" y="390.93" width="0.98" height="0.39"/><rect class="9fa27ee5-513e-4765-9a4e-b9c693bb8d3c" x="543.07" y="390.93" width="0.98" height="0.98"/><rect class="9fa27ee5-513e-4765-9a4e-b9c693bb8d3c" x="551.24" y="390.93" width="0.98" height="0.2"/><rect class="9fa27ee5-513e-4765-9a4e-b9c693bb8d3c" x="553.96" y="390.93" width="0.98" height="0.2"/><rect class="9fa27ee5-513e-4765-9a4e-b9c693bb8d3c" x="556.68" y="390.93" width="0.98" height="0.2"/><rect class="9fa27ee5-513e-4765-9a4e-b9c693bb8d3c" x="559.4" y="390.93" width="0.98" height="0.59"/><rect class="9fa27ee5-513e-4765-9a4e-b9c693bb8d3c" x="564.84" y="390.93" width="0.98" height="0.59"/><rect class="9fa27ee5-513e-4765-9a4e-b9c693bb8d3c" x="567.56" y="390.93" width="0.98" height="0.2"/><rect class="9fa27ee5-513e-4765-9a4e-b9c693bb8d3c" x="573" y="390.93" width="0.98" height="0.2"/><rect class="9fa27ee5-513e-4765-9a4e-b9c693bb8d3c" x="578.44" y="390.93" width="0.98" height="0.59"/><rect class="be4c2682-83e6-4e23-a603-506226863ff7" x="23.33" y="383.47" width="0.98" height="2.93"/><rect class="be4c2682-83e6-4e23-a603-506226863ff7" x="26.05" y="366.27" width="0.98" height="20.14"/><rect class="be4c2682-83e6-4e23-a603-506226863ff7" x="28.77" y="364.9" width="0.98" height="21.5"/><rect class="be4c2682-83e6-4e23-a603-506226863ff7" x="31.49" y="376.44" width="0.98" height="9.97"/><rect class="be4c2682-83e6-4e23-a603-506226863ff7" x="34.21" y="382.89" width="0.98" height="3.52"/><rect class="be4c2682-83e6-4e23-a603-506226863ff7" x="36.93" y="382.5" width="0.98" height="3.91"/><rect class="be4c2682-83e6-4e23-a603-506226863ff7" x="39.65" y="381.32" width="0.98" height="5.08"/><rect class="be4c2682-83e6-4e23-a603-506226863ff7" x="42.37" y="381.91" width="0.98" height="4.5"/><rect class="be4c2682-83e6-4e23-a603-506226863ff7" x="45.09" y="377.61" width="0.98" height="8.8"/><rect class="be4c2682-83e6-4e23-a603-506226863ff7" x="47.81" y="383.86" width="0.98" height="2.54"/><rect class="be4c2682-83e6-4e23-a603-506226863ff7" x="50.53" y="379.76" width="0.98" height="6.65"/><rect class="be4c2682-83e6-4e23-a603-506226863ff7" x="53.25" y="379.56" width="0.98" height="6.84"/><rect class="be4c2682-83e6-4e23-a603-506226863ff7" x="55.98" y="374.68" width="0.98" height="11.73"/><rect class="be4c2682-83e6-4e23-a603-506226863ff7" x="58.7" y="369.59" width="0.98" height="16.81"/><rect class="be4c2682-83e6-4e23-a603-506226863ff7" x="61.42" y="378.78" width="0.98" height="7.62"/><rect class="be4c2682-83e6-4e23-a603-506226863ff7" x="64.14" y="373.31" width="0.98" height="13.1"/><rect class="be4c2682-83e6-4e23-a603-506226863ff7" x="66.86" y="380.74" width="0.98" height="5.67"/><rect class="be4c2682-83e6-4e23-a603-506226863ff7" x="69.58" y="370.57" width="0.98" height="15.83"/><rect class="be4c2682-83e6-4e23-a603-506226863ff7" x="72.3" y="338.32" width="0.98" height="48.09"/><rect class="be4c2682-83e6-4e23-a603-506226863ff7" x="75.02" y="337.73" width="0.98" height="48.68"/><rect class="be4c2682-83e6-4e23-a603-506226863ff7" x="77.74" y="377.8" width="0.98" height="8.6"/><rect class="be4c2682-83e6-4e23-a603-506226863ff7" x="80.46" y="374.87" width="0.98" height="11.53"/><rect class="be4c2682-83e6-4e23-a603-506226863ff7" x="83.18" y="378" width="0.98" height="8.41"/><rect class="be4c2682-83e6-4e23-a603-506226863ff7" x="85.9" y="375.65" width="0.98" height="10.75"/><rect class="be4c2682-83e6-4e23-a603-506226863ff7" x="88.62" y="376.44" width="0.98" height="9.97"/><rect class="be4c2682-83e6-4e23-a603-506226863ff7" x="91.34" y="373.89" width="0.98" height="12.51"/><rect class="be4c2682-83e6-4e23-a603-506226863ff7" x="94.07" y="377.22" width="0.98" height="9.19"/><rect class="be4c2682-83e6-4e23-a603-506226863ff7" x="96.79" y="373.7" width="0.98" height="12.71"/><rect class="be4c2682-83e6-4e23-a603-506226863ff7" x="99.51" y="374.87" width="0.98" height="11.53"/><rect class="be4c2682-83e6-4e23-a603-506226863ff7" x="102.23" y="372.92" width="0.98" height="13.49"/><rect class="be4c2682-83e6-4e23-a603-506226863ff7" x="104.95" y="370.18" width="0.98" height="16.23"/><rect class="be4c2682-83e6-4e23-a603-506226863ff7" x="107.67" y="375.07" width="0.98" height="11.34"/><rect class="be4c2682-83e6-4e23-a603-506226863ff7" x="110.39" y="374.68" width="0.98" height="11.73"/><rect class="be4c2682-83e6-4e23-a603-506226863ff7" x="113.11" y="374.29" width="0.98" height="12.12"/><rect class="be4c2682-83e6-4e23-a603-506226863ff7" x="115.83" y="385.62" width="0.98" height="0.78"/><rect class="be4c2682-83e6-4e23-a603-506226863ff7" x="118.55" y="381.71" width="0.98" height="4.69"/><rect class="be4c2682-83e6-4e23-a603-506226863ff7" x="121.27" y="379.96" width="0.98" height="6.45"/><rect class="be4c2682-83e6-4e23-a603-506226863ff7" x="123.99" y="375.26" width="0.98" height="11.14"/><rect class="be4c2682-83e6-4e23-a603-506226863ff7" x="126.71" y="380.35" width="0.98" height="6.06"/><rect class="be4c2682-83e6-4e23-a603-506226863ff7" x="129.44" y="377.02" width="0.98" height="9.38"/><rect class="be4c2682-83e6-4e23-a603-506226863ff7" x="132.16" y="381.13" width="0.98" height="5.28"/><rect class="be4c2682-83e6-4e23-a603-506226863ff7" x="134.88" y="376.44" width="0.98" height="9.97"/><rect class="be4c2682-83e6-4e23-a603-506226863ff7" x="137.6" y="370.77" width="0.98" height="15.64"/><rect class="be4c2682-83e6-4e23-a603-506226863ff7" x="140.32" y="375.85" width="0.98" height="10.56"/><rect class="be4c2682-83e6-4e23-a603-506226863ff7" x="143.04" y="364.51" width="0.98" height="21.89"/><rect class="be4c2682-83e6-4e23-a603-506226863ff7" x="145.76" y="377.8" width="0.98" height="8.6"/><rect class="be4c2682-83e6-4e23-a603-506226863ff7" x="148.48" y="375.07" width="0.98" height="11.34"/><rect class="be4c2682-83e6-4e23-a603-506226863ff7" x="151.2" y="378.78" width="0.98" height="7.62"/><rect class="be4c2682-83e6-4e23-a603-506226863ff7" x="153.92" y="364.51" width="0.98" height="21.89"/><rect class="be4c2682-83e6-4e23-a603-506226863ff7" x="156.64" y="358.06" width="0.98" height="28.35"/><rect class="be4c2682-83e6-4e23-a603-506226863ff7" x="159.36" y="378.2" width="0.98" height="8.21"/><rect class="be4c2682-83e6-4e23-a603-506226863ff7" x="162.08" y="374.68" width="0.98" height="11.73"/><rect class="be4c2682-83e6-4e23-a603-506226863ff7" x="164.8" y="376.24" width="0.98" height="10.17"/><rect class="be4c2682-83e6-4e23-a603-506226863ff7" x="167.53" y="384.06" width="0.98" height="2.35"/><rect class="be4c2682-83e6-4e23-a603-506226863ff7" x="170.25" y="386.02" width="0.98" height="0.39"/><rect class="be4c2682-83e6-4e23-a603-506226863ff7" x="172.97" y="385.43" width="0.98" height="0.98"/><rect class="be4c2682-83e6-4e23-a603-506226863ff7" x="175.69" y="384.26" width="0.98" height="2.15"/><rect class="be4c2682-83e6-4e23-a603-506226863ff7" x="178.41" y="385.43" width="0.98" height="0.98"/><rect class="be4c2682-83e6-4e23-a603-506226863ff7" x="181.13" y="381.52" width="0.98" height="4.89"/><rect class="be4c2682-83e6-4e23-a603-506226863ff7" x="183.85" y="384.26" width="0.98" height="2.15"/><rect class="be4c2682-83e6-4e23-a603-506226863ff7" x="186.57" y="383.08" width="0.98" height="3.32"/><rect class="be4c2682-83e6-4e23-a603-506226863ff7" x="189.29" y="382.11" width="0.98" height="4.3"/><rect class="be4c2682-83e6-4e23-a603-506226863ff7" x="192.01" y="383.47" width="0.98" height="2.93"/><rect class="be4c2682-83e6-4e23-a603-506226863ff7" x="194.73" y="382.5" width="0.98" height="3.91"/><rect class="be4c2682-83e6-4e23-a603-506226863ff7" x="197.45" y="383.86" width="0.98" height="2.54"/><rect class="be4c2682-83e6-4e23-a603-506226863ff7" x="200.17" y="380.35" width="0.98" height="6.06"/><rect class="be4c2682-83e6-4e23-a603-506226863ff7" x="202.89" y="383.47" width="0.98" height="2.93"/><rect class="be4c2682-83e6-4e23-a603-506226863ff7" x="205.62" y="380.35" width="0.98" height="6.06"/><rect class="be4c2682-83e6-4e23-a603-506226863ff7" x="208.34" y="379.37" width="0.98" height="7.04"/><rect class="be4c2682-83e6-4e23-a603-506226863ff7" x="211.06" y="378" width="0.98" height="8.41"/><rect class="be4c2682-83e6-4e23-a603-506226863ff7" x="213.78" y="351.8" width="0.98" height="34.6"/><rect class="be4c2682-83e6-4e23-a603-506226863ff7" x="216.5" y="371.35" width="0.98" height="15.05"/><rect class="be4c2682-83e6-4e23-a603-506226863ff7" x="219.22" y="380.35" width="0.98" height="6.06"/><rect class="be4c2682-83e6-4e23-a603-506226863ff7" x="221.94" y="374.68" width="0.98" height="11.73"/><rect class="be4c2682-83e6-4e23-a603-506226863ff7" x="224.66" y="360.21" width="0.98" height="26.2"/><rect class="be4c2682-83e6-4e23-a603-506226863ff7" x="227.38" y="383.67" width="0.98" height="2.74"/><rect class="be4c2682-83e6-4e23-a603-506226863ff7" x="230.1" y="384.26" width="0.98" height="2.15"/><rect class="be4c2682-83e6-4e23-a603-506226863ff7" x="232.82" y="384.06" width="0.98" height="2.35"/><rect class="be4c2682-83e6-4e23-a603-506226863ff7" x="235.54" y="384.65" width="0.98" height="1.76"/><rect class="be4c2682-83e6-4e23-a603-506226863ff7" x="238.26" y="382.5" width="0.98" height="3.91"/><rect class="be4c2682-83e6-4e23-a603-506226863ff7" x="240.99" y="374.48" width="0.98" height="11.92"/><rect class="be4c2682-83e6-4e23-a603-506226863ff7" x="243.71" y="378.59" width="0.98" height="7.82"/><rect class="be4c2682-83e6-4e23-a603-506226863ff7" x="246.43" y="380.93" width="0.98" height="5.47"/><rect class="be4c2682-83e6-4e23-a603-506226863ff7" x="249.15" y="377.41" width="0.98" height="8.99"/><rect class="be4c2682-83e6-4e23-a603-506226863ff7" x="251.87" y="379.76" width="0.98" height="6.65"/><rect class="be4c2682-83e6-4e23-a603-506226863ff7" x="254.59" y="379.17" width="0.98" height="7.23"/><rect class="be4c2682-83e6-4e23-a603-506226863ff7" x="257.31" y="380.35" width="0.98" height="6.06"/><rect class="be4c2682-83e6-4e23-a603-506226863ff7" x="260.03" y="374.48" width="0.98" height="11.92"/><rect class="be4c2682-83e6-4e23-a603-506226863ff7" x="262.75" y="369.01" width="0.98" height="17.4"/><rect class="be4c2682-83e6-4e23-a603-506226863ff7" x="265.47" y="371.16" width="0.98" height="15.25"/><rect class="be4c2682-83e6-4e23-a603-506226863ff7" x="268.19" y="363.93" width="0.98" height="22.48"/><rect class="be4c2682-83e6-4e23-a603-506226863ff7" x="270.91" y="372.72" width="0.98" height="13.68"/><rect class="be4c2682-83e6-4e23-a603-506226863ff7" x="273.63" y="378.2" width="0.98" height="8.21"/><rect class="be4c2682-83e6-4e23-a603-506226863ff7" x="276.35" y="380.54" width="0.98" height="5.86"/><rect class="be4c2682-83e6-4e23-a603-506226863ff7" x="279.08" y="385.04" width="0.98" height="1.37"/><rect class="be4c2682-83e6-4e23-a603-506226863ff7" x="281.8" y="386.21" width="0.98" height="0.2"/><rect class="be4c2682-83e6-4e23-a603-506226863ff7" x="284.52" y="385.82" width="0.98" height="0.59"/><rect class="be4c2682-83e6-4e23-a603-506226863ff7" x="287.24" y="385.62" width="0.98" height="0.78"/><rect class="be4c2682-83e6-4e23-a603-506226863ff7" x="289.96" y="383.47" width="0.98" height="2.93"/><rect class="be4c2682-83e6-4e23-a603-506226863ff7" x="292.68" y="304.89" width="0.98" height="81.52"/><rect class="be4c2682-83e6-4e23-a603-506226863ff7" x="295.4" y="192.48" width="0.98" height="193.92"/><rect class="be4c2682-83e6-4e23-a603-506226863ff7" x="298.12" y="382.89" width="0.98" height="3.52"/><rect class="be4c2682-83e6-4e23-a603-506226863ff7" x="300.84" y="384.06" width="0.98" height="2.35"/><rect class="be4c2682-83e6-4e23-a603-506226863ff7" x="303.56" y="385.43" width="0.98" height="0.98"/><rect class="be4c2682-83e6-4e23-a603-506226863ff7" x="306.28" y="385.23" width="0.98" height="1.17"/><rect class="be4c2682-83e6-4e23-a603-506226863ff7" x="309" y="384.84" width="0.98" height="1.56"/><rect class="be4c2682-83e6-4e23-a603-506226863ff7" x="311.72" y="386.02" width="0.98" height="0.39"/><rect class="be4c2682-83e6-4e23-a603-506226863ff7" x="314.44" y="385.43" width="0.98" height="0.98"/><rect class="be4c2682-83e6-4e23-a603-506226863ff7" x="317.17" y="384.45" width="0.98" height="1.95"/><rect class="be4c2682-83e6-4e23-a603-506226863ff7" x="319.89" y="385.82" width="0.98" height="0.59"/><rect class="be4c2682-83e6-4e23-a603-506226863ff7" x="322.61" y="386.21" width="0.98" height="0.2"/><rect class="be4c2682-83e6-4e23-a603-506226863ff7" x="325.33" y="385.23" width="0.98" height="1.17"/><rect class="be4c2682-83e6-4e23-a603-506226863ff7" x="328.05" y="384.84" width="0.98" height="1.56"/><rect class="be4c2682-83e6-4e23-a603-506226863ff7" x="330.77" y="386.02" width="0.98" height="0.39"/><rect class="be4c2682-83e6-4e23-a603-506226863ff7" x="333.49" y="384.84" width="0.98" height="1.56"/><rect class="be4c2682-83e6-4e23-a603-506226863ff7" x="336.21" y="385.43" width="0.98" height="0.98"/><rect class="be4c2682-83e6-4e23-a603-506226863ff7" x="338.93" y="386.21" width="0.98" height="0.2"/><rect class="be4c2682-83e6-4e23-a603-506226863ff7" x="341.65" y="383.47" width="0.98" height="2.93"/><rect class="be4c2682-83e6-4e23-a603-506226863ff7" x="344.37" y="385.43" width="0.98" height="0.98"/><rect class="be4c2682-83e6-4e23-a603-506226863ff7" x="347.09" y="386.02" width="0.98" height="0.39"/><rect class="be4c2682-83e6-4e23-a603-506226863ff7" x="349.81" y="384.06" width="0.98" height="2.35"/><rect class="be4c2682-83e6-4e23-a603-506226863ff7" x="352.54" y="385.23" width="0.98" height="1.17"/><rect class="be4c2682-83e6-4e23-a603-506226863ff7" x="355.26" y="385.82" width="0.98" height="0.59"/><rect class="be4c2682-83e6-4e23-a603-506226863ff7" x="357.98" y="383.86" width="0.98" height="2.54"/><rect class="be4c2682-83e6-4e23-a603-506226863ff7" x="360.7" y="385.04" width="0.98" height="1.37"/><rect class="be4c2682-83e6-4e23-a603-506226863ff7" x="363.42" y="385.43" width="0.98" height="0.98"/><rect class="be4c2682-83e6-4e23-a603-506226863ff7" x="366.14" y="383.47" width="0.98" height="2.93"/><rect class="be4c2682-83e6-4e23-a603-506226863ff7" x="368.86" y="381.91" width="0.98" height="4.5"/><rect class="be4c2682-83e6-4e23-a603-506226863ff7" x="371.58" y="385.82" width="0.98" height="0.59"/><rect class="be4c2682-83e6-4e23-a603-506226863ff7" x="374.3" y="386.02" width="0.98" height="0.39"/><rect class="be4c2682-83e6-4e23-a603-506226863ff7" x="377.02" y="385.43" width="0.98" height="0.98"/><rect class="be4c2682-83e6-4e23-a603-506226863ff7" x="379.74" y="380.74" width="0.98" height="5.67"/><rect class="be4c2682-83e6-4e23-a603-506226863ff7" x="382.46" y="385.43" width="0.98" height="0.98"/><rect class="be4c2682-83e6-4e23-a603-506226863ff7" x="385.18" y="384.06" width="0.98" height="2.35"/><rect class="be4c2682-83e6-4e23-a603-506226863ff7" x="387.9" y="385.62" width="0.98" height="0.78"/><rect class="be4c2682-83e6-4e23-a603-506226863ff7" x="390.63" y="384.84" width="0.98" height="1.56"/><rect class="be4c2682-83e6-4e23-a603-506226863ff7" x="393.35" y="385.62" width="0.98" height="0.78"/><rect class="be4c2682-83e6-4e23-a603-506226863ff7" x="396.07" y="386.02" width="0.98" height="0.39"/><rect class="be4c2682-83e6-4e23-a603-506226863ff7" x="398.79" y="381.13" width="0.98" height="5.28"/><rect class="be4c2682-83e6-4e23-a603-506226863ff7" x="401.51" y="386.02" width="0.98" height="0.39"/><rect class="be4c2682-83e6-4e23-a603-506226863ff7" x="404.23" y="383.08" width="0.98" height="3.32"/><rect class="be4c2682-83e6-4e23-a603-506226863ff7" x="406.95" y="385.82" width="0.98" height="0.59"/><rect class="be4c2682-83e6-4e23-a603-506226863ff7" x="409.67" y="386.21" width="0.98" height="0.2"/><rect class="be4c2682-83e6-4e23-a603-506226863ff7" x="412.39" y="384.84" width="0.98" height="1.56"/><rect class="be4c2682-83e6-4e23-a603-506226863ff7" x="415.11" y="384.06" width="0.98" height="2.35"/><rect class="be4c2682-83e6-4e23-a603-506226863ff7" x="417.83" y="351.41" width="0.98" height="34.99"/><rect class="be4c2682-83e6-4e23-a603-506226863ff7" x="420.55" y="385.62" width="0.98" height="0.78"/><rect class="be4c2682-83e6-4e23-a603-506226863ff7" x="423.27" y="385.43" width="0.98" height="0.98"/><rect class="be4c2682-83e6-4e23-a603-506226863ff7" x="425.99" y="386.02" width="0.98" height="0.39"/><rect class="be4c2682-83e6-4e23-a603-506226863ff7" x="428.72" y="385.82" width="0.98" height="0.59"/><rect class="be4c2682-83e6-4e23-a603-506226863ff7" x="431.44" y="386.21" width="0.98" height="0.2"/><rect class="be4c2682-83e6-4e23-a603-506226863ff7" x="434.16" y="386.21" width="0.98" height="0.2"/><rect class="be4c2682-83e6-4e23-a603-506226863ff7" x="436.88" y="385.23" width="0.98" height="1.17"/><rect class="be4c2682-83e6-4e23-a603-506226863ff7" x="439.6" y="386.02" width="0.98" height="0.39"/><rect class="be4c2682-83e6-4e23-a603-506226863ff7" x="442.32" y="385.62" width="0.98" height="0.78"/><rect class="be4c2682-83e6-4e23-a603-506226863ff7" x="445.04" y="384.45" width="0.98" height="1.95"/><rect class="be4c2682-83e6-4e23-a603-506226863ff7" x="447.76" y="385.43" width="0.98" height="0.98"/><rect class="be4c2682-83e6-4e23-a603-506226863ff7" x="450.48" y="385.43" width="0.98" height="0.98"/><rect class="be4c2682-83e6-4e23-a603-506226863ff7" x="453.2" y="386.02" width="0.98" height="0.39"/><rect class="be4c2682-83e6-4e23-a603-506226863ff7" x="455.92" y="384.06" width="0.98" height="2.35"/><rect class="be4c2682-83e6-4e23-a603-506226863ff7" x="458.64" y="385.82" width="0.98" height="0.59"/><rect class="be4c2682-83e6-4e23-a603-506226863ff7" x="461.36" y="384.45" width="0.98" height="1.95"/><rect class="be4c2682-83e6-4e23-a603-506226863ff7" x="464.09" y="75.97" width="0.98" height="310.44"/><rect class="be4c2682-83e6-4e23-a603-506226863ff7" x="466.81" y="266.57" width="0.98" height="119.83"/><rect class="be4c2682-83e6-4e23-a603-506226863ff7" x="469.53" y="383.08" width="0.98" height="3.32"/><rect class="be4c2682-83e6-4e23-a603-506226863ff7" x="472.25" y="385.04" width="0.98" height="1.37"/><rect class="be4c2682-83e6-4e23-a603-506226863ff7" x="474.97" y="385.23" width="0.98" height="1.17"/><rect class="be4c2682-83e6-4e23-a603-506226863ff7" x="477.69" y="385.62" width="0.98" height="0.78"/><rect class="be4c2682-83e6-4e23-a603-506226863ff7" x="480.41" y="386.02" width="0.98" height="0.39"/><rect class="be4c2682-83e6-4e23-a603-506226863ff7" x="483.13" y="386.02" width="0.98" height="0.39"/><rect class="be4c2682-83e6-4e23-a603-506226863ff7" x="485.85" y="386.02" width="0.98" height="0.39"/><rect class="be4c2682-83e6-4e23-a603-506226863ff7" x="488.57" y="385.43" width="0.98" height="0.98"/><rect class="be4c2682-83e6-4e23-a603-506226863ff7" x="491.29" y="386.02" width="0.98" height="0.39"/><rect class="be4c2682-83e6-4e23-a603-506226863ff7" x="494.01" y="385.23" width="0.98" height="1.17"/><rect class="be4c2682-83e6-4e23-a603-506226863ff7" x="496.73" y="385.62" width="0.98" height="0.78"/><rect class="be4c2682-83e6-4e23-a603-506226863ff7" x="499.45" y="386.02" width="0.98" height="0.39"/><rect class="be4c2682-83e6-4e23-a603-506226863ff7" x="502.18" y="374.68" width="0.98" height="11.73"/><rect class="be4c2682-83e6-4e23-a603-506226863ff7" x="504.9" y="380.74" width="0.98" height="5.67"/><rect class="be4c2682-83e6-4e23-a603-506226863ff7" x="507.62" y="379.76" width="0.98" height="6.65"/><rect class="be4c2682-83e6-4e23-a603-506226863ff7" x="510.34" y="383.08" width="0.98" height="3.32"/><rect class="be4c2682-83e6-4e23-a603-506226863ff7" x="513.06" y="383.08" width="0.98" height="3.32"/><rect class="be4c2682-83e6-4e23-a603-506226863ff7" x="515.78" y="382.11" width="0.98" height="4.3"/><rect class="be4c2682-83e6-4e23-a603-506226863ff7" x="518.5" y="385.82" width="0.98" height="0.59"/><rect class="be4c2682-83e6-4e23-a603-506226863ff7" x="521.22" y="385.82" width="0.98" height="0.59"/><rect class="be4c2682-83e6-4e23-a603-506226863ff7" x="523.94" y="385.62" width="0.98" height="0.78"/><rect class="be4c2682-83e6-4e23-a603-506226863ff7" x="526.66" y="385.04" width="0.98" height="1.37"/><rect class="be4c2682-83e6-4e23-a603-506226863ff7" x="529.38" y="385.82" width="0.98" height="0.59"/><rect class="be4c2682-83e6-4e23-a603-506226863ff7" x="532.1" y="384.45" width="0.98" height="1.95"/><rect class="be4c2682-83e6-4e23-a603-506226863ff7" x="534.82" y="385.23" width="0.98" height="1.17"/><rect class="be4c2682-83e6-4e23-a603-506226863ff7" x="537.54" y="385.62" width="0.98" height="0.78"/><rect class="be4c2682-83e6-4e23-a603-506226863ff7" x="540.27" y="385.43" width="0.98" height="0.98"/><rect class="be4c2682-83e6-4e23-a603-506226863ff7" x="542.99" y="385.43" width="0.98" height="0.98"/><rect class="be4c2682-83e6-4e23-a603-506226863ff7" x="545.71" y="386.21" width="0.98" height="0.2"/><rect class="be4c2682-83e6-4e23-a603-506226863ff7" x="548.43" y="385.23" width="0.98" height="1.17"/><rect class="be4c2682-83e6-4e23-a603-506226863ff7" x="551.15" y="385.82" width="0.98" height="0.59"/><rect class="be4c2682-83e6-4e23-a603-506226863ff7" x="553.87" y="385.43" width="0.98" height="0.98"/><rect class="be4c2682-83e6-4e23-a603-506226863ff7" x="556.59" y="384.84" width="0.98" height="1.56"/><rect class="be4c2682-83e6-4e23-a603-506226863ff7" x="559.31" y="384.06" width="0.98" height="2.35"/><rect class="be4c2682-83e6-4e23-a603-506226863ff7" x="562.03" y="386.21" width="0.98" height="0.2"/><rect class="be4c2682-83e6-4e23-a603-506226863ff7" x="564.75" y="386.21" width="0.98" height="0.2"/><rect class="be4c2682-83e6-4e23-a603-506226863ff7" x="567.47" y="383.86" width="0.98" height="2.54"/><rect class="be4c2682-83e6-4e23-a603-506226863ff7" x="570.19" y="383.86" width="0.98" height="2.54"/><rect class="be4c2682-83e6-4e23-a603-506226863ff7" x="572.91" y="385.23" width="0.98" height="1.17"/><rect class="be4c2682-83e6-4e23-a603-506226863ff7" x="575.64" y="384.84" width="0.98" height="1.56"/><rect class="be4c2682-83e6-4e23-a603-506226863ff7" x="578.36" y="385.62" width="0.98" height="0.78"/><rect class="be4c2682-83e6-4e23-a603-506226863ff7" x="581.36" y="370.56" width="0.98" height="15.85"/><text class="cc644343-1358-4c76-a686-95cce47fdc03" transform="translate(53.37 30.18)">Palestinos e israelís fallecidos desde 2000 </text><text class="39fe55ee-1034-4c75-bf8a-1a5f918de10f" transform="translate(468 85.64)"><tspan class="7fb86300-366e-4caa-9644-d5c55c5c832a">Margen Protector</tspan><tspan class="ac2bf6e0-5ba8-4794-8942-3dede1ec5a53"><tspan x="0" y="13.2">Julio y agosto de 2014</tspan></tspan><tspan class="b58bb637-580d-496b-b88c-164cc869bc63"><tspan x="0" y="26.4">Israel bombardea Gaza</tspan></tspan></text><text class="63923d8c-fee3-4999-8688-86d35a249ff7" transform="translate(390.97 57.88)"><tspan class="2b09d98f-0037-4f2c-86ab-3b6f34c58a5e">P</tspan><tspan x="6.52" y="0">ALESTINOS </tspan><tspan class="973cc728-9918-489d-b17c-35c4dcf049c6" x="71.32" y="0">F</tspan><tspan class="99338d2d-7e87-49d0-b855-eb8c51442b7e" x="77.43" y="0">ALLECIDOS POR MES</tspan></text><text class="a47ba7c0-764b-4e00-b5f5-884b519e8015" transform="translate(2.3 484.21)">Fuente: B’TSELEM</text><text class="a47ba7c0-764b-4e00-b5f5-884b519e8015" transform="translate(487.96 484.21)">L<tspan class="fe60324d-4e90-43b4-acb5-3f7d5abf4686" x="6.12" y="0">A</tspan><tspan class="55ddf47f-8199-4959-9f0c-095c0b8aa9df" x="12.85" y="0"> </tspan><tspan class="390609c8-e93c-42ee-87ef-a1ab2218d71f" x="15.9" y="0">V</tspan><tspan class="55ddf47f-8199-4959-9f0c-095c0b8aa9df" x="22.42" y="0">ANGUARDI</tspan><tspan class="fe60324d-4e90-43b4-acb5-3f7d5abf4686" x="80.49" y="0">A</tspan></text><text class="63923d8c-fee3-4999-8688-86d35a249ff7" transform="translate(396.82 434.21)">ISRAELÍES <tspan class="973cc728-9918-489d-b17c-35c4dcf049c6" x="59.92" y="0">F</tspan><tspan class="99338d2d-7e87-49d0-b855-eb8c51442b7e" x="66.03" y="0">ALLECIDOS POR MES</tspan></text><text class="39fe55ee-1034-4c75-bf8a-1a5f918de10f" transform="translate(323.52 337.64)"><tspan class="7fb86300-366e-4caa-9644-d5c55c5c832a">Pilar defensivo</tspan><tspan class="ac2bf6e0-5ba8-4794-8942-3dede1ec5a53"><tspan x="11.77" y="13.2">Noviembre 2012</tspan></tspan><tspan class="b58bb637-580d-496b-b88c-164cc869bc63"><tspan x="-22.47" y="26.4">Israel bombardea Gaza</tspan></tspan></text><text class="39fe55ee-1034-4c75-bf8a-1a5f918de10f" transform="translate(497.05 305.33)"><tspan class="7fb86300-366e-4caa-9644-d5c55c5c832a">Inauguración <tspan x="-18.08" y="15.6">embajada EEUU</tspan></tspan><tspan class="ac2bf6e0-5ba8-4794-8942-3dede1ec5a53"><tspan x="-18.68" y="28.8">14 de mayo de 2018</tspan></tspan></text><text class="39fe55ee-1034-4c75-bf8a-1a5f918de10f" transform="translate(107.69 237.64)"><tspan class="7fb86300-366e-4caa-9644-d5c55c5c832a">Lluvia de <tspan class="b7e975ac-b757-4e3a-8f06-2a12679d969c" x="59.96" y="0">V</tspan><tspan class="3e9929ed-23d7-446e-8aab-81b41dee1d2d" x="67.91" y="0">erano</tspan></tspan><tspan class="ac2bf6e0-5ba8-4794-8942-3dede1ec5a53"><tspan x="34.2" y="13.2">Junio de 2006</tspan></tspan><tspan class="b58bb637-580d-496b-b88c-164cc869bc63"><tspan x="-11.64" y="26.4">Israel bombardea Gaza</tspan></tspan></text><text class="39fe55ee-1034-4c75-bf8a-1a5f918de10f" transform="translate(78 91.64)"><tspan class="7fb86300-366e-4caa-9644-d5c55c5c832a">Operación Escudo Defensivo</tspan><tspan class="ac2bf6e0-5ba8-4794-8942-3dede1ec5a53"><tspan x="0" y="13.2">Marzo y abril de 2002</tspan></tspan><tspan class="b58bb637-580d-496b-b88c-164cc869bc63"><tspan x="0" y="26.4">Israel reocupa las ciudades Palestinas</tspan></tspan></text><text class="39fe55ee-1034-4c75-bf8a-1a5f918de10f" transform="translate(299 207.64)"><tspan class="7fb86300-366e-4caa-9644-d5c55c5c832a">Plomo Fundido</tspan><tspan class="ac2bf6e0-5ba8-4794-8942-3dede1ec5a53"><tspan x="0" y="13.2">Dic. 2008 y enero de 2009</tspan></tspan><tspan class="b58bb637-580d-496b-b88c-164cc869bc63"><tspan x="0" y="26.4">Israel ataca Gaza</tspan></tspan></text><line class="5b714b1d-2300-4874-8765-cfb704d3704f" x1="215" y1="349.42" x2="215" y2="232"/><line class="5b714b1d-2300-4874-8765-cfb704d3704f" x1="582.5" y1="366.03" x2="582.5" y2="295.08"/><line class="5b714b1d-2300-4874-8765-cfb704d3704f" x1="73.5" y1="329.8" x2="73.5" y2="83"/></svg>