<svg id="bf79c885-3cd0-4a32-92c1-38a93caaf963" data-name="Capa 1" xmlns="http://www.w3.org/2000/svg" viewBox="0 0 472 516.27"><defs><style>.\30 67f9129-9662-4f7a-a694-9eb2b0242fe2,.\39 0fd7980-bc82-4850-999e-eae1a3544519,.ec4be756-9e4f-41e3-8acb-65416ab849b0{font-size:13px;}.\35 5176f84-6826-4064-9ad3-2278fdda2aa0,.ec4be756-9e4f-41e3-8acb-65416ab849b0{fill:#15acb1;}.\39 0fd7980-bc82-4850-999e-eae1a3544519,.ec4be756-9e4f-41e3-8acb-65416ab849b0,.ef4df27c-16f9-41f4-bdf8-932f530ce8b2{font-family:Arial-BoldMT, Arial;font-weight:700;}.\39 0fd7980-bc82-4850-999e-eae1a3544519,.da1ca93b-44d4-484e-83fd-fa77d89e3260{fill:#701538;}.\30 67f9129-9662-4f7a-a694-9eb2b0242fe2,.\39 8614901-a061-413d-a6a3-9f00e1f110a2{fill:#757575;font-family:ArialMT, Arial;}.\34 88d53fa-57cb-4b95-bda1-0122b1c900d6{letter-spacing:-0.11em;}.fd6ef064-a9d8-4474-bd0b-475373e16605{letter-spacing:-0.06em;}.\39 8614901-a061-413d-a6a3-9f00e1f110a2{font-size:12px;}.afbe0fab-c82e-4b8f-ba25-387e61827a74{fill:#283659;}.\30 c797ad2-4576-4862-a9bd-121634e0d7ae{fill:#fff;}.ef4df27c-16f9-41f4-bdf8-932f530ce8b2{font-size:20px;fill:#323232;}.\33 a657fc5-74c4-4d1c-b67f-cadda03af1b6,.b5f5bfef-ace5-4bc6-a4ca-f04c05d609b4{fill:none;}.\33 a657fc5-74c4-4d1c-b67f-cadda03af1b6{stroke:#d9d9d9;}.b5f5bfef-ace5-4bc6-a4ca-f04c05d609b4{stroke:#333;}</style></defs><title>2018.02_GoyaTaquilleras</title><text class="ec4be756-9e4f-41e3-8acb-65416ab849b0" transform="translate(5.33 56.17)">Nominadas</text><text class="90fd7980-bc82-4850-999e-eae1a3544519" transform="translate(87.33 56.17)">Ganadoras</text><text class="067f9129-9662-4f7a-a694-9eb2b0242fe2" transform="translate(5.31 109.17)">Perfectos desconocidos</text><text class="067f9129-9662-4f7a-a694-9eb2b0242fe2" transform="translate(70.61 89.17)"><tspan class="488d53fa-57cb-4b95-bda1-0122b1c900d6">T</tspan><tspan x="6.5" y="0">adeo Jones</tspan></text><text class="067f9129-9662-4f7a-a694-9eb2b0242fe2" transform="translate(65.29 124.17)">El Secreto de<tspan x="5.79" y="10">Marrowbone</tspan></text><text class="067f9129-9662-4f7a-a694-9eb2b0242fe2" transform="translate(92.74 147.17)"><tspan class="fd6ef064-a9d8-4474-bd0b-475373e16605">V</tspan><tspan x="7.95" y="0">erónica</tspan></text><text class="067f9129-9662-4f7a-a694-9eb2b0242fe2" transform="translate(76.74 185.17)">La llamada</text><text class="067f9129-9662-4f7a-a694-9eb2b0242fe2" transform="translate(104.93 165.17)">El Bar</text><text class="067f9129-9662-4f7a-a694-9eb2b0242fe2" transform="translate(81.18 203.17)">La Librería</text><text class="067f9129-9662-4f7a-a694-9eb2b0242fe2" transform="translate(68.89 223.17)">Abracadabra</text><text class="067f9129-9662-4f7a-a694-9eb2b0242fe2" transform="translate(121.66 243.17)">Oro</text><text class="067f9129-9662-4f7a-a694-9eb2b0242fe2" transform="translate(112.26 262.17)">Deep</text><text class="067f9129-9662-4f7a-a694-9eb2b0242fe2" transform="translate(69.6 281.17)"><tspan class="fd6ef064-a9d8-4474-bd0b-475373e16605">V</tspan><tspan x="7.95" y="0">erano 1993</tspan></text><text class="067f9129-9662-4f7a-a694-9eb2b0242fe2" transform="translate(79.74 301.17)">Zona hostil</text><text class="067f9129-9662-4f7a-a694-9eb2b0242fe2" transform="translate(69.63 319.17)">La Cordillera</text><text class="067f9129-9662-4f7a-a694-9eb2b0242fe2" transform="translate(97.81 339.17)">El<tspan class="fd6ef064-a9d8-4474-bd0b-475373e16605" x="11.56" y="0"> </tspan><tspan x="14.45" y="0">Autor</tspan></text><text class="067f9129-9662-4f7a-a694-9eb2b0242fe2" transform="translate(80.47 357.17)">Cantábrico</text><text class="067f9129-9662-4f7a-a694-9eb2b0242fe2" transform="translate(62.41 377.17)">Incierta Gloria</text><text class="067f9129-9662-4f7a-a694-9eb2b0242fe2" transform="translate(102.14 397.17)">Handia</text><text class="067f9129-9662-4f7a-a694-9eb2b0242fe2" transform="translate(43.17 412.17)">Muchos hijos, un <tspan x="-2.89" y="10">mono y un castillo</tspan></text><text class="067f9129-9662-4f7a-a694-9eb2b0242fe2" transform="translate(24.11 436.17)">Una mujer fantástica</text><text class="067f9129-9662-4f7a-a694-9eb2b0242fe2" transform="translate(107.93 455.17)">Pieles</text><text class="067f9129-9662-4f7a-a694-9eb2b0242fe2" transform="translate(42.89 473.17)">No sé decir adiós</text><text class="98614901-a061-413d-a6a3-9f00e1f110a2" transform="translate(7 512.38) scale(0.99 1)">Fuente: Premios Goya y Ministerio de Educación, Cultura y Deporte</text><polygon class="afbe0fab-c82e-4b8f-ba25-387e61827a74" points="385.44 500.84 468.47 500.84 468.47 513.46 385.44 513.46 385.44 500.84 385.44 500.84"/><path class="0c797ad2-4576-4862-a9bd-121634e0d7ae" d="M452.05,504.82h-3.18v.4l.83.2v5.87a.69.69,0,0,1-.59.3,1.25,1.25,0,0,1-1-.76l-.79-1.42a1.65,1.65,0,0,0-1.45-1v-.1a2,2,0,0,0,2-1.81c0-1.22-1.11-1.7-2.4-1.7h-2.89v.4l.94.2v6h0l-1.08.21-2.71-7.37a3.4,3.4,0,0,1-1,.83l.1.3-2.47,6-.74.2v.4h2.26v-.4l-.74-.19.83-2.2h2.29l.8,2.18-.86.21v.4h5.48v-.4l-.9-.19v-2.77a1.35,1.35,0,0,1,1.22.9l1.08,1.94a1.76,1.76,0,0,0,1.57,1,1.55,1.55,0,0,0,1-.42h2.45a3.68,3.68,0,0,0,3.78-3.58,3.59,3.59,0,0,0-3.84-3.58Zm-13.89,3.8,1-2.54.93,2.54Zm7.09-.54h-.49v-2.67h.61a1.2,1.2,0,0,1,1.25,1.28,1.39,1.39,0,0,1-1.35,1.39Zm6.73,3.3h-1v-6h1c1.62,0,2.62,1.12,2.62,3s-1,3-2.65,3Z" transform="translate(0 -1.16)"/><path class="0c797ad2-4576-4862-a9bd-121634e0d7ae" d="M399.83,511.38l-2.64-7.18a3.39,3.39,0,0,1-1,.83l.1.3-2.45,6-.53.2-.16.4h2.18v-.4l-.74-.19.83-2.2h2.29l.8,2.18-.86.21v.4h2.94v-.4l-.79-.19Zm-4.2-2.76,1-2.54.93,2.54Z" transform="translate(0 -1.16)"/><polygon class="0c797ad2-4576-4862-a9bd-121634e0d7ae" points="393.53 509 393.26 508.85 391.72 510.26 390.4 510.26 390.4 504.26 391.19 504.06 391.19 503.65 388.34 503.65 388.34 504.06 389.14 504.26 389.14 510.21 388.34 510.42 388.34 510.81 392.82 510.81 393.53 509 393.53 509"/><polygon class="0c797ad2-4576-4862-a9bd-121634e0d7ae" points="405.96 503.65 405.96 504.06 406.82 504.26 404.95 509.05 402.98 504.25 403.91 504.06 403.91 503.65 400.73 503.65 400.73 504.06 401.64 504.25 404.47 511.06 404.77 511.06 407.59 504.26 407.61 504.26 408.49 504.06 408.49 503.65 405.96 503.65 405.96 503.65"/><path class="0c797ad2-4576-4862-a9bd-121634e0d7ae" d="M434.17,504.82v.4l.86.2s.06,3.55,0,4.44a1.81,1.81,0,0,1-1.85,1.76h-.09a1.78,1.78,0,0,1-1.93-1.84v-4.37l.83-.19v-.4h-2.87v.4l.82.19v4.4a2.64,2.64,0,0,0,2.84,2.5,2.58,2.58,0,0,0,2.84-2.5l.05-4.39.84-.2v-.4Z" transform="translate(0 -1.16)"/><path class="0c797ad2-4576-4862-a9bd-121634e0d7ae" d="M465.26,511.37l-2.63-7.17a3.39,3.39,0,0,1-1,.83l.1.3-2.46,6.07-.42.17-.57-.18v-6l.88-.2v-.4h-3v.4l.87.2v6l-.83.19v.4h4.56v-.4l-.74-.19.83-2.2h2.29l.8,2.18-.86.21v.4h3v-.4l-.79-.21Zm-4.19-2.74,1-2.54.93,2.54Z" transform="translate(0 -1.16)"/><path class="0c797ad2-4576-4862-a9bd-121634e0d7ae" d="M418.81,504.82v.4l.88.2.05,4.68-4.49-5.28h-1.91v.4l.87.19.07,0-.06,5.92h0l-.9.21-2.71-7.37a3.4,3.4,0,0,1-.94.84l.1.3-2.47,6-.74.2v.4h2.26v-.4l-.74-.19.83-2.2h2.29l.8,2.18-.86.21v.4h4.71v-.4l-.9-.2-.1-5.17,5.13,6h.34l.07-6.81.87-.2v-.4Zm-9.74,3.8,1-2.54.93,2.54Z" transform="translate(0 -1.16)"/><path class="0c797ad2-4576-4862-a9bd-121634e0d7ae" d="M426.35,508.32v.4l.81.2v2.31a2.68,2.68,0,0,1-1.62.54c-1.62,0-2.67-1.35-2.67-3.27s1-3.41,2.71-3.41A2.55,2.55,0,0,1,428,507l.23-.14v-2.26l-.21-.11-.45.55a4.51,4.51,0,0,0-2-.51,4,4,0,0,0-4,3.94,3.64,3.64,0,0,0,3.45,3.81h.26a3.7,3.7,0,0,0,2.31-.77l.63.42h.2v-3.07l.68-.26v-.33Z" transform="translate(0 -1.16)"/><text class="ef4df27c-16f9-41f4-bdf8-932f530ce8b2" transform="translate(61.48 17.16)">Películas más taquilleras nominadas<tspan x="56.14" y="18">y ganadoras de los Goya</tspan></text><path class="3a657fc5-74c4-4d1c-b67f-cadda03af1b6" d="M428,62V487" transform="translate(0 -1.16)"/><path class="3a657fc5-74c4-4d1c-b67f-cadda03af1b6" d="M393.66,62V487" transform="translate(0 -1.16)"/><path class="3a657fc5-74c4-4d1c-b67f-cadda03af1b6" d="M359.76,62V487" transform="translate(0 -1.16)"/><path class="3a657fc5-74c4-4d1c-b67f-cadda03af1b6" d="M325.39,62V487" transform="translate(0 -1.16)"/><path class="3a657fc5-74c4-4d1c-b67f-cadda03af1b6" d="M291,62V487" transform="translate(0 -1.16)"/><path class="3a657fc5-74c4-4d1c-b67f-cadda03af1b6" d="M256.64,62V487" transform="translate(0 -1.16)"/><path class="3a657fc5-74c4-4d1c-b67f-cadda03af1b6" d="M222.73,62V487" transform="translate(0 -1.16)"/><path class="3a657fc5-74c4-4d1c-b67f-cadda03af1b6" d="M188.36,62V487" transform="translate(0 -1.16)"/><rect class="da1ca93b-44d4-484e-83fd-fa77d89e3260" x="153.98" y="78.22" width="307.02" height="14.32"/><rect class="55176f84-6826-4064-9ad3-2278fdda2aa0" x="153.98" y="97.32" width="246.27" height="14.32"/><rect class="55176f84-6826-4064-9ad3-2278fdda2aa0" x="153.98" y="116.42" width="125.73" height="14.32"/><rect class="da1ca93b-44d4-484e-83fd-fa77d89e3260" x="153.98" y="135.51" width="60.27" height="14.32"/><rect class="55176f84-6826-4064-9ad3-2278fdda2aa0" x="153.98" y="154.61" width="49.44" height="14.32"/><rect class="da1ca93b-44d4-484e-83fd-fa77d89e3260" x="153.98" y="174.14" width="46.15" height="14.32"/><rect class="da1ca93b-44d4-484e-83fd-fa77d89e3260" x="153.98" y="193.24" width="40.5" height="14.32"/><rect class="55176f84-6826-4064-9ad3-2278fdda2aa0" x="153.98" y="212.34" width="29.19" height="14.32"/><rect class="55176f84-6826-4064-9ad3-2278fdda2aa0" x="153.98" y="231.44" width="22.6" height="14.32"/><rect class="55176f84-6826-4064-9ad3-2278fdda2aa0" x="153.98" y="250.53" width="18.84" height="14.32"/><rect class="da1ca93b-44d4-484e-83fd-fa77d89e3260" x="153.98" y="270.07" width="17.89" height="14.32"/><rect class="55176f84-6826-4064-9ad3-2278fdda2aa0" x="153.98" y="289.16" width="15.07" height="14.32"/><rect class="55176f84-6826-4064-9ad3-2278fdda2aa0" x="153.98" y="308.26" width="15.07" height="14.32"/><rect class="da1ca93b-44d4-484e-83fd-fa77d89e3260" x="153.98" y="327.36" width="11.3" height="14.32"/><rect class="55176f84-6826-4064-9ad3-2278fdda2aa0" x="153.98" y="346.46" width="11.3" height="14.32"/><rect class="55176f84-6826-4064-9ad3-2278fdda2aa0" x="153.98" y="365.99" width="11.3" height="14.32"/><rect class="da1ca93b-44d4-484e-83fd-fa77d89e3260" x="153.98" y="385.09" width="8.95" height="14.32"/><rect class="da1ca93b-44d4-484e-83fd-fa77d89e3260" x="153.98" y="404.18" width="3.3" height="14.32"/><rect class="da1ca93b-44d4-484e-83fd-fa77d89e3260" x="153.98" y="423.28" width="2.35" height="14.32"/><rect class="55176f84-6826-4064-9ad3-2278fdda2aa0" x="153.98" y="442.38" width="1.41" height="14.32"/><rect class="da1ca93b-44d4-484e-83fd-fa77d89e3260" x="153.98" y="461.91" width="1.41" height="14.32"/><path class="b5f5bfef-ace5-4bc6-a4ca-f04c05d609b4" d="M154,62V487" transform="translate(0 -1.16)"/><text class="067f9129-9662-4f7a-a694-9eb2b0242fe2" transform="translate(356.01 56.17)">Millones de Euros</text><text class="067f9129-9662-4f7a-a694-9eb2b0242fe2" transform="translate(176.1 484.17)">2</text><text class="067f9129-9662-4f7a-a694-9eb2b0242fe2" transform="translate(212.1 484.17)">4</text><text class="067f9129-9662-4f7a-a694-9eb2b0242fe2" transform="translate(245.1 485.17)">6</text><text class="067f9129-9662-4f7a-a694-9eb2b0242fe2" transform="translate(281.1 485.17)">8</text><text class="067f9129-9662-4f7a-a694-9eb2b0242fe2" transform="translate(308.87 485.17)">10</text><text class="067f9129-9662-4f7a-a694-9eb2b0242fe2" transform="translate(341.87 485.17)">12</text><text class="067f9129-9662-4f7a-a694-9eb2b0242fe2" transform="translate(376.87 485.17)">14</text><text class="067f9129-9662-4f7a-a694-9eb2b0242fe2" transform="translate(410.87 485.17)">16</text></svg>