<svg id="chart-container" xmlns="http://www.w3.org/2000/svg" viewBox="0 0 736 766.72"><defs><style>@import url('https://fonts.googleapis.com/css?family=Open+Sans:400,600,700');.cls-1,.cls-2,.cls-8{fill:#b2182b;}.cls-1,.cls-2{stroke:#b2182b;}.cls-1,.cls-5{opacity:0.25;}.cls-3,.cls-5,.cls-9{fill:#004182;}.cls-3,.cls-5{stroke:#004182;}.cls-4{fill:#45aedd;stroke:#45aedd;}.cls-13,.cls-14,.cls-6{fill:none;}.cls-6{stroke:#777;}.cls-10,.cls-12,.cls-7{fill:#757575;}.cls-12,.cls-8,.cls-9{font-size:16px;}.cls-10,.cls-12,.cls-8,.cls-9{font-family:OpenSans, Open Sans;}.cls-10{font-size:15px;}.cls-11{font-size:28px;fill:#323232;font-family:OpenSans-Semibold, Open Sans;font-weight:700;}.cls-14{stroke:#757575;}</style></defs><title>2018.11_EleccionesEUA</title><circle class="cls-1" cx="250.09" cy="466.81" r="11.88"/><circle class="cls-1" cx="211.45" cy="456.45" r="11.88"/><circle class="cls-1" cx="172.81" cy="446.1" r="11.88"/><circle class="cls-1" cx="134.18" cy="435.75" r="11.88"/><circle class="cls-1" cx="95.54" cy="425.4" r="11.88"/><circle class="cls-1" cx="56.9" cy="415.04" r="11.88"/><circle class="cls-1" cx="18.27" cy="404.69" r="11.88"/><circle class="cls-1" cx="33.4" cy="360.1" r="11.88"/><circle class="cls-1" cx="72.17" cy="371.12" r="11.88"/><circle class="cls-1" cx="110.96" cy="382.31" r="11.88"/><circle class="cls-1" cx="151.29" cy="390.63" r="11.88"/><circle class="cls-1" cx="190.46" cy="402.01" r="11.88"/><circle class="cls-1" cx="54.23" cy="317.86" r="11.88"/><circle class="cls-1" cx="229.82" cy="413.87" r="11.88"/><circle class="cls-1" cx="93.64" cy="329.87" r="11.88"/><circle class="cls-1" cx="133.19" cy="342.3" r="11.88"/><circle class="cls-1" cx="80.39" cy="278.71" r="11.88"/><circle class="cls-1" cx="177.08" cy="349.85" r="11.88"/><circle class="cls-1" cx="274.07" cy="420.73" r="11.88"/><circle class="cls-1" cx="120.87" cy="292.17" r="11.88"/><circle class="cls-1" cx="218.01" cy="363.33" r="11.88"/><circle class="cls-1" cx="161.64" cy="306.46" r="11.88"/><circle class="cls-1" cx="111.44" cy="243.31" r="11.88"/><circle class="cls-1" cx="259.63" cy="378.34" r="11.88"/><circle class="cls-1" cx="153.27" cy="258.82" r="11.88"/><circle class="cls-1" cx="210.5" cy="315.05" r="11.88"/><circle class="cls-1" cx="195.55" cy="275.73" r="11.88"/><circle class="cls-1" cx="146.85" cy="212.26" r="11.88"/><circle class="cls-1" cx="253.9" cy="332.23" r="11.88"/><circle class="cls-1" cx="190.16" cy="230.51" r="11.88"/><circle class="cls-1" cx="186" cy="186.1" r="11.88"/><circle class="cls-1" cx="250.21" cy="287.64" r="11.88"/><circle class="cls-1" cx="234.01" cy="250.93" r="11.88"/><circle class="cls-1" cx="315.29" cy="389.11" r="11.88"/><circle class="cls-1" cx="298.38" cy="352.86" r="11.88"/><circle class="cls-1" cx="230.76" cy="207.85" r="11.88"/><circle class="cls-1" cx="228.23" cy="165.27" r="11.88"/><circle class="cls-1" cx="296.11" cy="310.47" r="11.88"/><circle class="cls-1" cx="276" cy="232.72" r="11.88"/><circle class="cls-1" cx="294.6" cy="268.73" r="11.88"/><circle class="cls-1" cx="274.22" cy="191.31" r="11.88"/><circle class="cls-1" cx="272.83" cy="150.13" r="11.88"/><circle class="cls-2" cx="320.39" cy="221.6" r="11.88"/><circle class="cls-2" cx="342.81" cy="339.55" r="11.88"/><circle class="cls-2" cx="319.62" cy="181.24" r="11.88"/><circle class="cls-2" cx="319.01" cy="140.94" r="11.88"/><circle class="cls-2" cx="342.26" cy="299.28" r="11.88"/><circle class="cls-2" cx="341.87" cy="259.08" r="11.88"/><circle class="cls-3" cx="366" cy="377.86" r="11.88"/><circle class="cls-2" cx="366" cy="217.86" r="11.88"/><circle class="cls-2" cx="366" cy="177.86" r="11.88"/><circle class="cls-2" cx="366" cy="137.86" r="11.88"/><circle class="cls-3" cx="390.13" cy="259.08" r="11.88"/><circle class="cls-3" cx="389.74" cy="299.28" r="11.88"/><circle class="cls-4" cx="412.99" cy="140.94" r="11.88"/><circle class="cls-3" cx="389.19" cy="339.55" r="11.88"/><circle class="cls-4" cx="412.38" cy="181.24" r="11.88"/><circle class="cls-3" cx="411.61" cy="221.6" r="11.88"/><circle class="cls-3" cx="459.17" cy="150.13" r="11.88"/><circle class="cls-3" cx="457.78" cy="191.31" r="11.88"/><circle class="cls-3" cx="437.4" cy="268.73" r="11.88"/><circle class="cls-3" cx="456" cy="232.72" r="11.88"/><circle class="cls-3" cx="435.89" cy="310.47" r="11.88"/><circle class="cls-3" cx="503.77" cy="165.27" r="11.88"/><circle class="cls-3" cx="416.71" cy="389.11" r="11.88"/><circle class="cls-3" cx="433.62" cy="352.86" r="11.88"/><circle class="cls-3" cx="501.24" cy="207.85" r="11.88"/><circle class="cls-3" cx="497.99" cy="250.93" r="11.88"/><circle class="cls-3" cx="481.79" cy="287.64" r="11.88"/><circle class="cls-3" cx="546" cy="186.1" r="11.88"/><circle class="cls-3" cx="541.84" cy="230.51" r="11.88"/><circle class="cls-3" cx="478.1" cy="332.23" r="11.88"/><circle class="cls-3" cx="536.45" cy="275.73" r="11.88"/><circle class="cls-3" cx="585.15" cy="212.26" r="11.88"/><circle class="cls-3" cx="521.5" cy="315.05" r="11.88"/><circle class="cls-3" cx="472.37" cy="378.34" r="11.88"/><circle class="cls-3" cx="578.73" cy="258.82" r="11.88"/><circle class="cls-5" cx="620.56" cy="243.31" r="11.88"/><circle class="cls-5" cx="570.36" cy="306.46" r="11.88"/><circle class="cls-5" cx="513.99" cy="363.33" r="11.88"/><circle class="cls-5" cx="457.93" cy="420.73" r="11.88"/><circle class="cls-5" cx="611.13" cy="292.17" r="11.88"/><circle class="cls-5" cx="554.92" cy="349.85" r="11.88"/><circle class="cls-5" cx="651.61" cy="278.71" r="11.88"/><circle class="cls-5" cx="598.81" cy="342.3" r="11.88"/><circle class="cls-5" cx="502.18" cy="413.87" r="11.88"/><circle class="cls-5" cx="638.36" cy="329.87" r="11.88"/><circle class="cls-5" cx="677.77" cy="317.86" r="11.88"/><circle class="cls-5" cx="541.54" cy="402.01" r="11.88"/><circle class="cls-5" cx="580.71" cy="390.63" r="11.88"/><circle class="cls-5" cx="621.04" cy="382.31" r="11.88"/><circle class="cls-5" cx="659.83" cy="371.12" r="11.88"/><circle class="cls-5" cx="698.6" cy="360.1" r="11.88"/><circle class="cls-5" cx="481.91" cy="466.81" r="11.88"/><circle class="cls-5" cx="520.55" cy="456.45" r="11.88"/><circle class="cls-5" cx="559.19" cy="446.1" r="11.88"/><circle class="cls-5" cx="597.82" cy="435.75" r="11.88"/><circle class="cls-5" cx="636.46" cy="425.4" r="11.88"/><circle class="cls-5" cx="675.1" cy="415.04" r="11.88"/><circle class="cls-5" cx="713.73" cy="404.69" r="11.88"/><path class="cls-6" d="M-31,410" transform="translate(3 -7.29)"/><path class="cls-6" d="M36,61" transform="translate(3 -7.29)"/><path class="cls-7" d="M321.43,112.94a3.11,3.11,0,0,1-1,2.77A5.9,5.9,0,0,1,317,117a9.43,9.43,0,0,1-3.74-.14l-.18-1.43a10.47,10.47,0,0,0,1.87.3,10.33,10.33,0,0,0,2,0,4.13,4.13,0,0,0,2.29-.83,1.83,1.83,0,0,0,.63-1.65,1.93,1.93,0,0,0-.4-1.06,2.59,2.59,0,0,0-1-.68,13.44,13.44,0,0,0-2.12-.58,6.74,6.74,0,0,1-2.9-1.19,3.23,3.23,0,0,1-1.1-2.18,2.76,2.76,0,0,1,.91-2.49,5.27,5.27,0,0,1,3.08-1.25,9.88,9.88,0,0,1,3.88.29l-.37,1.35a9,9,0,0,0-3.4-.3,3.41,3.41,0,0,0-1.94.74,1.63,1.63,0,0,0-.55,1.49,2,2,0,0,0,.39,1.05,2.44,2.44,0,0,0,1,.67,11.86,11.86,0,0,0,2,.56,7.53,7.53,0,0,1,3.12,1.22A2.93,2.93,0,0,1,321.43,112.94Z" transform="translate(3 -7.29)"/><path class="cls-7" d="M332.62,110.55a5.18,5.18,0,0,1-1,3.76,4.54,4.54,0,0,1-3.32,1.59,4.78,4.78,0,0,1-2.45-.39,4.12,4.12,0,0,1-1.78-1.58,5.82,5.82,0,0,1-.83-2.59,5.06,5.06,0,0,1,.9-3.77,4.59,4.59,0,0,1,3.38-1.62,4.47,4.47,0,0,1,3.54,1.07A5.05,5.05,0,0,1,332.62,110.55Zm-7.76.64a4.41,4.41,0,0,0,1,2.73,3.21,3.21,0,0,0,4.56-.38,4.4,4.4,0,0,0,.56-2.87,4.26,4.26,0,0,0-1-2.72,2.86,2.86,0,0,0-2.42-.76,2.82,2.82,0,0,0-2.22,1.14A4.3,4.3,0,0,0,324.87,111.19Z" transform="translate(3 -7.29)"/><path class="cls-7" d="M337.16,115.08l-1.52.1-.89-13.65,1.58-.1Z" transform="translate(3 -7.29)"/><path class="cls-7" d="M348.92,109.72a5.19,5.19,0,0,1-1.13,3.72,4.51,4.51,0,0,1-3.37,1.45,4.75,4.75,0,0,1-2.42-.5,4.12,4.12,0,0,1-1.71-1.66,5.84,5.84,0,0,1-.71-2.62,5.07,5.07,0,0,1,1.06-3.73,4.57,4.57,0,0,1,3.43-1.47,4.45,4.45,0,0,1,3.48,1.22A5.06,5.06,0,0,1,348.92,109.72Zm-7.75.31a4.42,4.42,0,0,0,.91,2.77,3.19,3.19,0,0,0,4.56-.19,4.41,4.41,0,0,0,.68-2.84,4.27,4.27,0,0,0-.88-2.76,2.84,2.84,0,0,0-2.37-.86,2.8,2.8,0,0,0-2.26,1A4.31,4.31,0,0,0,341.17,110Z" transform="translate(3 -7.29)"/><path class="cls-7" d="M360.83,114.56a4.78,4.78,0,0,1-3.52-1.29,4.93,4.93,0,0,1-1.33-3.6,5.34,5.34,0,0,1,1.18-3.71,4.14,4.14,0,0,1,3.28-1.38,4,4,0,0,1,3,1.2,4.38,4.38,0,0,1,1.09,3.15v.92c-2.79,0-4.19,0-7,0a3.73,3.73,0,0,0,.91,2.57,3.2,3.2,0,0,0,2.39.88,8.59,8.59,0,0,0,3.22-.63V114a8.46,8.46,0,0,1-1.53.47A9.09,9.09,0,0,1,360.83,114.56Zm-.41-8.76a2.6,2.6,0,0,0-2,.76,3.36,3.36,0,0,0-.85,2.1c2.13,0,3.19,0,5.32,0a3.07,3.07,0,0,0-.64-2.12A2.36,2.36,0,0,0,360.43,105.79Z" transform="translate(3 -7.29)"/><path class="cls-7" d="M373.65,112a2.39,2.39,0,0,1-1.11,2,5.11,5.11,0,0,1-2.94.65,6.69,6.69,0,0,1-3.09-.67l0-1.35a7.92,7.92,0,0,0,1.54.58,6.87,6.87,0,0,0,1.59.24,3.79,3.79,0,0,0,1.84-.31,1.23,1.23,0,0,0,.2-2.07,7.85,7.85,0,0,0-2-1,12,12,0,0,1-2-.92,2.7,2.7,0,0,1-.87-.86,2.25,2.25,0,0,1,.78-3,4.93,4.93,0,0,1,2.81-.62,8.45,8.45,0,0,1,3.22.73l-.59,1.17a7.64,7.64,0,0,0-2.77-.68,3.35,3.35,0,0,0-1.67.29,1,1,0,0,0-.58.88,1.05,1.05,0,0,0,.2.66,2.06,2.06,0,0,0,.66.53,15.5,15.5,0,0,0,1.76.76,6.7,6.7,0,0,1,2.4,1.33A2.15,2.15,0,0,1,373.65,112Z" transform="translate(3 -7.29)"/><path class="cls-7" d="M379.29,113.83a5.22,5.22,0,0,0,.78,0,5.28,5.28,0,0,0,.6-.09l-.06,1.11a2.86,2.86,0,0,1-.73.15,5.7,5.7,0,0,1-.86,0c-1.93-.1-2.85-1.11-2.77-3.07l.24-5.73-1.46-.06,0-.7,1.49-.55.74-2,.9,0-.1,2.23,3,.15-.06,1.13-3-.15-.26,5.66a1.9,1.9,0,0,0,.37,1.35A1.53,1.53,0,0,0,379.29,113.83Z" transform="translate(3 -7.29)"/><path class="cls-7" d="M391.59,110.84a5.21,5.21,0,0,1-1.53,3.57,4.47,4.47,0,0,1-3.49,1.07,4.69,4.69,0,0,1-2.33-.76,4.1,4.1,0,0,1-1.5-1.84,5.87,5.87,0,0,1-.41-2.68,5.09,5.09,0,0,1,1.46-3.59,4.51,4.51,0,0,1,3.55-1.08,4.41,4.41,0,0,1,3.3,1.59A5.08,5.08,0,0,1,391.59,110.84Zm-7.68-.55a4.45,4.45,0,0,0,.59,2.86,3.16,3.16,0,0,0,4.52.32,4.43,4.43,0,0,0,1-2.75,4.29,4.29,0,0,0-.56-2.84,2.82,2.82,0,0,0-2.25-1.12,2.77,2.77,0,0,0-2.35.79A4.33,4.33,0,0,0,383.91,110.29Z" transform="translate(3 -7.29)"/><path class="cls-7" d="M400.52,113.89a2.39,2.39,0,0,1-1.25,2,5.07,5.07,0,0,1-3,.44,6.64,6.64,0,0,1-3-.89l.12-1.35a7.87,7.87,0,0,0,1.49.69,6.82,6.82,0,0,0,1.57.35,3.76,3.76,0,0,0,1.85-.18,1.23,1.23,0,0,0,.34-2.05,7.81,7.81,0,0,0-1.89-1.14,11.89,11.89,0,0,1-1.91-1.06,2.69,2.69,0,0,1-.81-.92,2.25,2.25,0,0,1,1-2.92,4.9,4.9,0,0,1,2.84-.42,8.4,8.4,0,0,1,3.15,1l-.67,1.12a7.59,7.59,0,0,0-2.71-.87,3.33,3.33,0,0,0-1.68.17,1,1,0,0,0-.64.84,1.06,1.06,0,0,0,.15.68,2.05,2.05,0,0,0,.62.58,15.39,15.39,0,0,0,1.7.88,6.67,6.67,0,0,1,2.29,1.5A2.16,2.16,0,0,1,400.52,113.89Z" transform="translate(3 -7.29)"/><path class="cls-7" d="M413.55,118.16l-.1-1.4h-.07a4.22,4.22,0,0,1-1.64,1,4.73,4.73,0,0,1-1.88.07,3.43,3.43,0,0,1-2.21-1,2.65,2.65,0,0,1-.58-2.19c.24-1.93,2-2.75,5.23-2.4l1.71.18.08-.59a2.35,2.35,0,0,0-.27-1.73,2.18,2.18,0,0,0-1.56-.76,6.89,6.89,0,0,0-3,.35L409,108.5a7.63,7.63,0,0,1,3.53-.37,4,4,0,0,1,2.57,1.13,3.08,3.08,0,0,1,.52,2.55l-.95,6.51Zm-3.24-1.49a3.17,3.17,0,0,0,2.3-.44,2.72,2.72,0,0,0,1.09-2l.12-.86-1.52-.15a5.67,5.67,0,0,0-2.67.19,1.61,1.61,0,0,0-1,1.37,1.48,1.48,0,0,0,.34,1.26A2.13,2.13,0,0,0,410.31,116.68Z" transform="translate(3 -7.29)"/><path class="cls-7" d="M424.51,117.22a2.39,2.39,0,0,1-1.37,1.87,5.06,5.06,0,0,1-3,.25,6.61,6.61,0,0,1-3-1.08l.2-1.34a7.84,7.84,0,0,0,1.44.78,6.79,6.79,0,0,0,1.54.45,3.75,3.75,0,0,0,1.86-.07,1.23,1.23,0,0,0,.47-2,7.79,7.79,0,0,0-1.81-1.25,11.85,11.85,0,0,1-1.84-1.18,2.69,2.69,0,0,1-.75-1,2.26,2.26,0,0,1,1.16-2.85,4.88,4.88,0,0,1,2.86-.24,8.37,8.37,0,0,1,3.07,1.15l-.74,1.08a7.56,7.56,0,0,0-2.64-1,3.31,3.31,0,0,0-1.68.06,1,1,0,0,0-.69.8,1.06,1.06,0,0,0,.1.68,2,2,0,0,0,.58.62,15.34,15.34,0,0,0,1.63,1,6.66,6.66,0,0,1,2.18,1.64A2.16,2.16,0,0,1,424.51,117.22Z" transform="translate(3 -7.29)"/><path class="cls-7" d="M428.5,108.16a.93.93,0,0,1,.39-.68,1,1,0,0,1,1.28.24.92.92,0,0,1,.14.77.94.94,0,0,1-1.68.44A1,1,0,0,1,428.5,108.16ZM428,120.5l-1.48-.27,1.69-9.48,1.52.27Z" transform="translate(3 -7.29)"/><path class="cls-7" d="M435.19,122.07a4.71,4.71,0,0,1-3.16-2,5,5,0,0,1-.58-3.79,5.37,5.37,0,0,1,1.88-3.41,4.09,4.09,0,0,1,3.46-.72A3.91,3.91,0,0,1,439.5,114a4.4,4.4,0,0,1,.44,3.3l-.19.9c-2.71-.58-4.07-.85-6.79-1.38a3.74,3.74,0,0,0,.38,2.7,3.16,3.16,0,0,0,2.16,1.33,8.47,8.47,0,0,0,3.25,0l-.27,1.27a8.35,8.35,0,0,1-1.58.16A9,9,0,0,1,435.19,122.07Zm1.33-8.67a2.57,2.57,0,0,0-2.06.36,3.37,3.37,0,0,0-1.24,1.89c2.07.4,3.11.61,5.17,1a3.09,3.09,0,0,0-.2-2.2A2.33,2.33,0,0,0,436.52,113.4Z" transform="translate(3 -7.29)"/><path class="cls-7" d="M447.94,124.71l1.45-6.06a2.43,2.43,0,0,0-.14-1.84,2.36,2.36,0,0,0-1.59-1,3,3,0,0,0-2.46.28,4,4,0,0,0-1.31,2.47l-1.1,4.93-1.47-.33,2.07-9.41,1.23.27c0,.54,0,.8,0,1.34l.07,0a3.07,3.07,0,0,1,1.54-.78,4.48,4.48,0,0,1,1.95,0,4,4,0,0,1,2.5,1.45,3.45,3.45,0,0,1,.27,2.83l-1.48,6.11Z" transform="translate(3 -7.29)"/><path class="cls-7" d="M455.77,125.6a5.16,5.16,0,0,0,.76.14,5.23,5.23,0,0,0,.6,0l-.29,1.08a2.84,2.84,0,0,1-.75,0,5.64,5.64,0,0,1-.85-.14c-1.86-.48-2.55-1.67-2.07-3.57l1.4-5.56-1.41-.35.17-.68,1.56-.23,1.14-1.83.87.22-.55,2.16,2.86.74-.29,1.1-2.85-.74-1.41,5.49a1.91,1.91,0,0,0,.08,1.4A1.52,1.52,0,0,0,455.77,125.6Z" transform="translate(3 -7.29)"/><path class="cls-7" d="M468.37,125.16a5.22,5.22,0,0,1-2.22,3.18,4.44,4.44,0,0,1-3.62.34,4.65,4.65,0,0,1-2.12-1.22,4.1,4.1,0,0,1-1.09-2.1,5.9,5.9,0,0,1,.14-2.71,5.11,5.11,0,0,1,2.15-3.22,4.48,4.48,0,0,1,3.68-.34,4.38,4.38,0,0,1,2.89,2.23A5.1,5.1,0,0,1,468.37,125.16ZM461,123.06a4.46,4.46,0,0,0,0,2.92,3.13,3.13,0,0,0,4.34,1.23,4.44,4.44,0,0,0,1.52-2.49,4.3,4.3,0,0,0,0-2.9,2.8,2.8,0,0,0-2-1.55,2.75,2.75,0,0,0-2.45.3A4.35,4.35,0,0,0,461,123.06Z" transform="translate(3 -7.29)"/><path class="cls-7" d="M476.45,129.94a2.39,2.39,0,0,1-1.62,1.66,5,5,0,0,1-3-.17,6.59,6.59,0,0,1-2.77-1.48l.39-1.3a7.81,7.81,0,0,0,1.32,1,6.77,6.77,0,0,0,1.46.66,3.74,3.74,0,0,0,1.85.19,1.23,1.23,0,0,0,.75-1.94,7.76,7.76,0,0,0-1.61-1.49,11.82,11.82,0,0,1-1.65-1.42,2.69,2.69,0,0,1-.6-1.07,2.26,2.26,0,0,1,1.55-2.66,4.87,4.87,0,0,1,2.86.16,8.36,8.36,0,0,1,2.88,1.57l-.88,1a7.55,7.55,0,0,0-2.46-1.4,3.31,3.31,0,0,0-1.67-.18,1,1,0,0,0-.79.7,1.06,1.06,0,0,0,0,.69,2,2,0,0,0,.49.69,15.29,15.29,0,0,0,1.48,1.2,6.65,6.65,0,0,1,1.93,1.93A2.16,2.16,0,0,1,476.45,129.94Z" transform="translate(3 -7.29)"/><path class="cls-7" d="M486.46,136.28a4.71,4.71,0,0,1-2.86-2.38,5,5,0,0,1,0-3.83A5.37,5.37,0,0,1,485.9,127a4.09,4.09,0,0,1,3.53-.22,3.91,3.91,0,0,1,2.45,2.14,4.4,4.4,0,0,1,0,3.33l-.32.87c-2.6-1-3.91-1.42-6.53-2.32a3.75,3.75,0,0,0,0,2.73,3.16,3.16,0,0,0,1.95,1.62,8.47,8.47,0,0,0,3.22.47l-.45,1.22a8.35,8.35,0,0,1-1.58-.06A9,9,0,0,1,486.46,136.28Zm2.54-8.4a2.57,2.57,0,0,0-2.09.07,3.37,3.37,0,0,0-1.49,1.7c2,.69,3,1,5,1.76a3.09,3.09,0,0,0,.11-2.21A2.33,2.33,0,0,0,489,127.89Z" transform="translate(3 -7.29)"/><path class="cls-7" d="M499.32,138.1a2.39,2.39,0,0,1-1.72,1.55,5.05,5.05,0,0,1-3-.36,6.6,6.6,0,0,1-2.68-1.65l.47-1.27a7.82,7.82,0,0,0,1.25,1.06,6.78,6.78,0,0,0,1.41.75,3.75,3.75,0,0,0,1.83.31,1.23,1.23,0,0,0,.87-1.89,7.77,7.77,0,0,0-1.52-1.59,11.83,11.83,0,0,1-1.56-1.52,2.69,2.69,0,0,1-.53-1.1,2.26,2.26,0,0,1,1.72-2.55,4.88,4.88,0,0,1,2.84.35,8.37,8.37,0,0,1,2.77,1.75l-.94.91a7.56,7.56,0,0,0-2.37-1.56,3.31,3.31,0,0,0-1.66-.28,1,1,0,0,0-.84.64,1.06,1.06,0,0,0,0,.69,2,2,0,0,0,.44.72,15.32,15.32,0,0,0,1.4,1.3,6.66,6.66,0,0,1,1.8,2A2.16,2.16,0,0,1,499.32,138.1Z" transform="translate(3 -7.29)"/><path class="cls-7" d="M504,141.7a5.18,5.18,0,0,0,.74.24,5.24,5.24,0,0,0,.59.12l-.43,1a2.84,2.84,0,0,1-.74-.1,5.66,5.66,0,0,1-.82-.26c-1.78-.73-2.31-2-1.58-3.82l2.13-5.32-1.35-.54.26-.65,1.58,0,1.37-1.66.83.34-.84,2.07,2.74,1.12-.43,1-2.73-1.12-2.13,5.25a1.91,1.91,0,0,0-.1,1.4A1.52,1.52,0,0,0,504,141.7Z" transform="translate(3 -7.29)"/><path class="cls-7" d="M512.34,146.36l.28-1.38-.07,0a4.22,4.22,0,0,1-1.85.53,4.73,4.73,0,0,1-1.83-.44,3.43,3.43,0,0,1-1.85-1.59,2.65,2.65,0,0,1,0-2.26c.75-1.79,2.65-2.12,5.69-.9l1.59.64.24-.55a2.35,2.35,0,0,0,.2-1.74,2.18,2.18,0,0,0-1.3-1.15,6.89,6.89,0,0,0-2.94-.45c0-.48,0-.73,0-1.21a7.62,7.62,0,0,1,3.5.6,4,4,0,0,1,2.17,1.78,3.08,3.08,0,0,1-.19,2.6l-2.66,6Zm-2.72-2.3a3.17,3.17,0,0,0,2.33.2,2.71,2.71,0,0,0,1.58-1.59l.35-.8-1.42-.55a5.68,5.68,0,0,0-2.62-.54,1.61,1.61,0,0,0-1.32,1.06,1.48,1.48,0,0,0,0,1.3A2.13,2.13,0,0,0,509.62,144.06Zm3.65-9.42q.63-.32,1.41-.83a15.41,15.41,0,0,0,1.29-.91l1.74.76-.07.17a13.7,13.7,0,0,1-1.69.8,14.11,14.11,0,0,1-1.81.62l-1-.41Z" transform="translate(3 -7.29)"/><path class="cls-7" d="M522.39,151l2.67-5.63a2.42,2.42,0,0,0,.24-1.83,2.38,2.38,0,0,0-1.36-1.28,3,3,0,0,0-2.47-.24,4,4,0,0,0-1.8,2.14l-2.1,4.59-1.37-.63,4-8.77,1.15.52-.32,1.3.07,0a3.08,3.08,0,0,1,1.67-.45,4.51,4.51,0,0,1,1.9.45,4,4,0,0,1,2.15,1.95,3.44,3.44,0,0,1-.32,2.82l-2.72,5.67Z" transform="translate(3 -7.29)"/><path class="cls-7" d="M534.56,157.2a4.74,4.74,0,0,1-2.52-2.76,4.94,4.94,0,0,1,.48-3.81,5.35,5.35,0,0,1,2.75-2.75,4.12,4.12,0,0,1,3.54.27,3.94,3.94,0,0,1,2.14,2.47,4.38,4.38,0,0,1-.49,3.3l-.43.81c-2.46-1.31-3.7-2-6.18-3.22a3.73,3.73,0,0,0-.37,2.7,3.18,3.18,0,0,0,1.72,1.88,8.55,8.55,0,0,0,3.14.92l-.61,1.15a8.43,8.43,0,0,1-1.57-.29A9,9,0,0,1,534.56,157.2Zm3.67-8a2.59,2.59,0,0,0-2.09-.23,3.37,3.37,0,0,0-1.72,1.47c1.89,1,2.83,1.45,4.71,2.44a3.08,3.08,0,0,0,.41-2.17A2.35,2.35,0,0,0,538.23,149.24Z" transform="translate(3 -7.29)"/><path class="cls-7" d="M546.15,163.3l3.07-5.42a2.41,2.41,0,0,0,.37-1.81,2.39,2.39,0,0,0-1.27-1.38,3,3,0,0,0-2.45-.42,4,4,0,0,0-1.95,2l-2.42,4.43-1.33-.72,4.59-8.47,1.11.6-.41,1.28.07,0a3.09,3.09,0,0,1,1.7-.32,4.53,4.53,0,0,1,1.87.59,4,4,0,0,1,2,2.1,3.43,3.43,0,0,1-.52,2.79L547.47,164Z" transform="translate(3 -7.29)"/><path class="cls-7" d="M551.11,171.17a3.74,3.74,0,0,1-1.09-.9l.6-1a4.61,4.61,0,0,0,1,.78,1.33,1.33,0,0,0,1.08.21,1.68,1.68,0,0,0,.87-.81l5.76-9.62,1.33.8-5.75,9.51C553.92,171.74,552.66,172.09,551.11,171.17Zm9.43-13.66a.93.93,0,0,1,.6-.49,1,1,0,0,1,1.12.68.91.91,0,0,1-.14.77.93.93,0,0,1-.61.49,1,1,0,0,1-.68-.13.88.88,0,0,1-.29-1.31Z" transform="translate(3 -7.29)"/><path class="cls-7" d="M564.71,163.1l-3.3,5.31a2.45,2.45,0,0,0-.45,1.79,2.36,2.36,0,0,0,1.18,1.42,3,3,0,0,0,2.4.54,4,4,0,0,0,2.07-1.88l2.73-4.26,1.31.85L565.42,175l-1.06-.68.51-1.21-.07,0a3,3,0,0,1-1.68.22,4.58,4.58,0,0,1-1.8-.69,4,4,0,0,1-1.89-2.16,3.47,3.47,0,0,1,.62-2.75l3.3-5.37Z" transform="translate(3 -7.29)"/><path class="cls-7" d="M571.57,179.23a4.8,4.8,0,0,1-2.21-3,4.92,4.92,0,0,1,.9-3.73,5.33,5.33,0,0,1,3.05-2.42,4.16,4.16,0,0,1,3.5.69,4,4,0,0,1,1.87,2.71,4.36,4.36,0,0,1-.85,3.23l-.52.76c-2.31-1.6-3.48-2.38-5.81-3.93a3.72,3.72,0,0,0-.67,2.64,3.22,3.22,0,0,0,1.51,2.07,8.68,8.68,0,0,0,3,1.28l-.74,1.07a8.55,8.55,0,0,1-1.53-.47A9.18,9.18,0,0,1,571.57,179.23Zm4.55-7.5a2.61,2.61,0,0,0-2.06-.47,3.35,3.35,0,0,0-1.88,1.26c1.78,1.18,2.67,1.78,4.43,3a3.06,3.06,0,0,0,.65-2.12A2.38,2.38,0,0,0,576.12,171.73Z" transform="translate(3 -7.29)"/><path class="cls-7" d="M589.27,179.7l-.55.74-1.67-1a3,3,0,0,1-.09.93,2.89,2.89,0,0,1-.49,1,2.79,2.79,0,0,1-2.16,1.22,4.34,4.34,0,0,1-2.77-1,5,5,0,0,1-.66-.55,1.44,1.44,0,0,0-1.52.44.62.62,0,0,0-.06.67,2.63,2.63,0,0,0,.85.83l1.46,1a4.12,4.12,0,0,1,1.66,2,2.24,2.24,0,0,1-.42,2.07,2.72,2.72,0,0,1-2.52,1.18,7.48,7.48,0,0,1-3.64-1.59,5.52,5.52,0,0,1-2.06-2.31,2.25,2.25,0,0,1,.26-2.24,2.17,2.17,0,0,1,1.35-.91,3,3,0,0,1,1.86.24,1.6,1.6,0,0,1-.23-.8,1.33,1.33,0,0,1,.25-.82,1.49,1.49,0,0,1,.77-.59,3.05,3.05,0,0,1,1.21-.09,2.74,2.74,0,0,1-.45-1.6,3,3,0,0,1,.56-1.67,3,3,0,0,1,2.23-1.42,4.31,4.31,0,0,1,2.85,1,5.54,5.54,0,0,1,1.09,1Zm-13.16,4.41a1.3,1.3,0,0,0-.12,1.37,3.94,3.94,0,0,0,1.37,1.46,5.75,5.75,0,0,0,2.62,1.2,1.68,1.68,0,0,0,1.62-.67,1.16,1.16,0,0,0,.23-1.18,4.06,4.06,0,0,0-1.37-1.36L579,183.87a2.47,2.47,0,0,0-1.6-.55A1.66,1.66,0,0,0,576.11,184.1Zm5.37-6.2a1.91,1.91,0,0,0-.39,1.6,2.53,2.53,0,0,0,1.08,1.4c1.23.88,2.24.76,3.05-.36s.65-2.21-.61-3.11a2.38,2.38,0,0,0-1.7-.53A2.14,2.14,0,0,0,581.48,177.9Z" transform="translate(3 -7.29)"/><path class="cls-7" d="M595.16,190.17a5.16,5.16,0,0,1-3.25,2.14,4.57,4.57,0,0,1-3.54-1,4.79,4.79,0,0,1-1.56-1.93,4.12,4.12,0,0,1-.27-2.37,5.81,5.81,0,0,1,1.12-2.48,5.05,5.05,0,0,1,3.2-2.2,4.6,4.6,0,0,1,3.6,1.06,4.5,4.5,0,0,1,1.93,3.17A5,5,0,0,1,595.16,190.17Zm-6.21-4.73a4.41,4.41,0,0,0-1.06,2.72,3.23,3.23,0,0,0,3.65,2.78,4.39,4.39,0,0,0,2.34-1.75,4.25,4.25,0,0,0,1.07-2.7,2.87,2.87,0,0,0-1.29-2.19,2.82,2.82,0,0,0-2.42-.64A4.29,4.29,0,0,0,588.95,185.44Z" transform="translate(3 -7.29)"/><text class="cls-8" transform="matrix(0.96, 0.26, -0.26, 0.96, 28.22, 459.05)">REPUBLICANOS - 51</text><text class="cls-9" transform="matrix(0.97, -0.25, 0.25, 0.97, 561.45, 489.58)">DEMÓCRATAS - 49</text><text class="cls-10" transform="translate(8.51 567.57) rotate(-0.09)">Fuente: Ballotpedia</text><text class="cls-10" transform="translate(610.51 570.57) rotate(-0.09)">LA VANGUARDIA</text><text class="cls-11" transform="translate(19.81 23.99)">¿Tienen los republicanos posibilidades de mantener <tspan x="201.37" y="33.6">el control del Senado?</tspan></text><text class="cls-12" transform="translate(303.44 447.87)">Mayoría absoluta<tspan x="55.41" y="19.2">51</tspan></text><line class="cls-13" x1="393" y1="130.71" x2="393" y2="766.72"/><path class="cls-14" d="M338,424" transform="translate(3 -7.29)"/><path class="cls-14" d="M350,367" transform="translate(3 -7.29)"/></svg>