<svg id="12298f79-5d6c-4bc9-9b15-9190e3bef6de" data-name="chart" xmlns="http://www.w3.org/2000/svg" viewBox="0 0 1372.8 1383.98"><defs><style>.\35 69326a3-7f3f-46f3-88ed-b5a4edcb9c02{opacity:0;}.\32 a406967-adc3-49ae-8f47-a9fe551a9725,.\34 c31efe9-288f-4d2f-acdd-225fcfbbabc6,.\35 69326a3-7f3f-46f3-88ed-b5a4edcb9c02,.\36 7d80463-bca6-4e57-a133-51273d8e6c92,.\36 edefacf-bee9-476f-aff4-0ba9694e8815,.\38 5aabde3-62b5-4b54-b630-79af226fe98d,.a037865f-a34d-4e38-a19e-d3f9796a204b,.c93bfe99-59c3-41bd-b172-cedad0720eba,.e9fb7400-cff3-4e12-a343-a8362a619153{isolation:isolate;}.\32 a406967-adc3-49ae-8f47-a9fe551a9725,.\34 c31efe9-288f-4d2f-acdd-225fcfbbabc6,.\36 7d80463-bca6-4e57-a133-51273d8e6c92,.\36 edefacf-bee9-476f-aff4-0ba9694e8815,.\38 5aabde3-62b5-4b54-b630-79af226fe98d,.a037865f-a34d-4e38-a19e-d3f9796a204b,.c93bfe99-59c3-41bd-b172-cedad0720eba,.e9fb7400-cff3-4e12-a343-a8362a619153{font-size:12px;font-family:ArialMT-Bold, Arial MT;}.\33 613d0cf-cbd6-44f8-9a89-9a153ce3c992,.\33 dce0827-bfb7-4f4c-b12b-1e27095bb79a,.\38 5aabde3-62b5-4b54-b630-79af226fe98d{fill:none;}.\38 5aabde3-62b5-4b54-b630-79af226fe98d{stroke:#fff;stroke-width:3.2px;}.\32 a406967-adc3-49ae-8f47-a9fe551a9725,.\34 c31efe9-288f-4d2f-acdd-225fcfbbabc6,.\36 7d80463-bca6-4e57-a133-51273d8e6c92,.\36 edefacf-bee9-476f-aff4-0ba9694e8815,.\38 5aabde3-62b5-4b54-b630-79af226fe98d,.\39 ba961d7-c3e8-49ea-af83-83f1b47882f7,.a037865f-a34d-4e38-a19e-d3f9796a204b,.c93bfe99-59c3-41bd-b172-cedad0720eba,.e43a4c14-e896-48cb-bd97-c88800977223,.e9fb7400-cff3-4e12-a343-a8362a619153{font-weight:700;}.\32 a406967-adc3-49ae-8f47-a9fe551a9725{fill:#5f4690;}.\32 d243d29-9232-4bee-ba2c-88523900adab{fill:#f4def9;}.\35 3cfac2b-7ffe-47b5-9e08-6d71becbe701{fill:#6d0352;}.\34 c31efe9-288f-4d2f-acdd-225fcfbbabc6{fill:#1d6996;}.\36 ee21542-e000-4a59-97d8-c008b963e082{fill:#920366;}.c93bfe99-59c3-41bd-b172-cedad0720eba{fill:#edad08;}.da49cd4f-8b92-4910-a8d4-13bf9272fea1{fill:#a93f89;}.\36 edefacf-bee9-476f-aff4-0ba9694e8815{fill:#73af48;}.\38 933944c-47b7-4aa3-aa3f-6ad265247c6d{fill:#fbdcff;}.eac3f769-1168-438b-b69f-8f7b3d5f727c{fill:#ebb2f0;}.a037865f-a34d-4e38-a19e-d3f9796a204b{fill:#e17c05;}.\36 3a0be79-8c92-41c4-87ad-bade8e7e4960{fill:#bf67ac;}.e9fb7400-cff3-4e12-a343-a8362a619153{fill:#94346e;}.\32 1f4ec3f-b79a-4bd5-91f2-fc6450a4b27a{fill:#d58dce;}.\36 7d80463-bca6-4e57-a133-51273d8e6c92{fill:#38a6a5;}.ff9fcfd4-1c2e-4d8e-8a24-71036e38f58c{font-size:41px;font-family:OpenSans, Open Sans;}.\31 03cc796-4deb-41df-8bf0-2fc130f4cfb4,.ff9fcfd4-1c2e-4d8e-8a24-71036e38f58c{fill:#757575;}.\33 613d0cf-cbd6-44f8-9a89-9a153ce3c992{stroke:#757575;stroke-miterlimit:10;stroke-width:4px;}.\39 ba961d7-c3e8-49ea-af83-83f1b47882f7{font-size:55px;fill:#323232;}.\39 ba961d7-c3e8-49ea-af83-83f1b47882f7,.e43a4c14-e896-48cb-bd97-c88800977223{font-family:OpenSans-Bold, Open Sans;}</style></defs><title>2018.10.01_Migraciones</title><g id="7153f693-e4fa-49b3-8f71-4bceb5185be9" data-name="chords-container"><g class="569326a3-7f3f-46f3-88ed-b5a4edcb9c02"><text class="85aabde3-62b5-4b54-b630-79af226fe98d" transform="translate(252.03 817.07)">312,774</text><text class="85aabde3-62b5-4b54-b630-79af226fe98d" transform="translate(252.03 817.07)">312,774</text><text class="2a406967-adc3-49ae-8f47-a9fe551a9725" transform="translate(252.03 817.07)">312,774</text><text class="2a406967-adc3-49ae-8f47-a9fe551a9725" transform="translate(252.03 817.07)">312,774</text></g><path id="c096e3a2-341c-4b1c-a3c0-3bffc45e053f" data-name="chords id" class="2d243d29-9232-4bee-ba2c-88523900adab" d="M795.16,1126.31C581,1204,344.42,1093.27,266.77,879.09S299.82,428.34,514,350.7a412.5,412.5,0,0,1,120-24.18A2734.9,2734.9,0,0,0,795.16,1126.31Z"/><path id="2cbe0cea-76b3-4d25-a66a-4ab93f551d69" data-name="chords id" class="53cfac2b-7ffe-47b5-9e08-6d71becbe701" d="M653.58,328a412.5,412.5,0,0,1,261.7,93.64C740.81,634.22,655.24,595.13,633,328.52,646.58,454.13,670.24,550.46,653.58,328Z"/><g class="569326a3-7f3f-46f3-88ed-b5a4edcb9c02"><text class="85aabde3-62b5-4b54-b630-79af226fe98d" transform="translate(765.78 375.66)">62,498</text><text class="85aabde3-62b5-4b54-b630-79af226fe98d" transform="translate(630.87 353.49)">0</text><text class="4c31efe9-288f-4d2f-acdd-225fcfbbabc6" transform="translate(765.78 375.66)">62,498</text><text class="2a406967-adc3-49ae-8f47-a9fe551a9725" transform="translate(630.87 353.49)">0</text></g><path id="ec76fb77-5010-4002-90f0-480b8f2bf9e6" data-name="chords id" class="6ee21542-e000-4a59-97d8-c008b963e082" d="M930.88,435.12a412.5,412.5,0,0,1,129.44,236.7Q653.58,740.51,633,328.52,653.58,740.51,930.88,435.12Z"/><g class="569326a3-7f3f-46f3-88ed-b5a4edcb9c02"><text class="85aabde3-62b5-4b54-b630-79af226fe98d" transform="translate(975.22 554.59)">60,590</text><text class="85aabde3-62b5-4b54-b630-79af226fe98d" transform="translate(630.87 353.49)">0</text><text class="c93bfe99-59c3-41bd-b172-cedad0720eba" transform="translate(975.22 554.59)">60,590</text><text class="2a406967-adc3-49ae-8f47-a9fe551a9725" transform="translate(630.87 353.49)">0</text></g><path id="2ff0fcbd-fd6d-4118-b7fa-a86eb3c553ef" data-name="chords id" class="da49cd4f-8b92-4910-a8d4-13bf9272fea1" d="M1063.24,692.24A412.5,412.5,0,0,1,1045,870.59Q653.58,740.51,633,328.52,653.58,740.51,1063.24,692.24Z"/><g class="569326a3-7f3f-46f3-88ed-b5a4edcb9c02"><text class="85aabde3-62b5-4b54-b630-79af226fe98d" transform="translate(1020.72 779.88)">39,841</text><text class="85aabde3-62b5-4b54-b630-79af226fe98d" transform="translate(630.87 353.49)">0</text><text class="6edefacf-bee9-476f-aff4-0ba9694e8815" transform="translate(1020.72 779.88)">39,841</text><text class="2a406967-adc3-49ae-8f47-a9fe551a9725" transform="translate(630.87 353.49)">0</text></g><path id="c742654d-c9fb-4033-a09b-910695dfdf35" data-name="chords id" class="8933944c-47b7-4aa3-aa3f-6ad265247c6d" d="M923.32,1052.59a412.5,412.5,0,0,1-110,68.21Q653.58,740.51,633,328.52,653.58,740.51,923.32,1052.59Z"/><path id="13a1136c-0902-4877-8e60-2b7cc2e5e9c1" data-name="chords id" class="eac3f769-1168-438b-b69f-8f7b3d5f727c" d="M921.32,1050.25a412.5,412.5,0,0,1-110,68.21Q651.58,738.17,631,326.19,651.58,738.17,921.32,1050.25Z"/><g class="569326a3-7f3f-46f3-88ed-b5a4edcb9c02"><text class="85aabde3-62b5-4b54-b630-79af226fe98d" transform="translate(839.51 1069.79)">28,644</text><text class="85aabde3-62b5-4b54-b630-79af226fe98d" transform="translate(630.87 353.49)">0</text><text class="a037865f-a34d-4e38-a19e-d3f9796a204b" transform="translate(839.51 1069.79)">28,644</text><text class="2a406967-adc3-49ae-8f47-a9fe551a9725" transform="translate(630.87 353.49)">0</text></g><path id="012da8ad-8ac3-4b95-86fa-0b24fab5c128" data-name="chords id" class="63a0be79-8c92-41c4-87ad-bade8e7e4960" d="M1038,890a412.5,412.5,0,0,1-48.66,90.08Q653.58,740.51,633,328.52,653.58,740.51,1038,890Z"/><g class="569326a3-7f3f-46f3-88ed-b5a4edcb9c02"><text class="85aabde3-62b5-4b54-b630-79af226fe98d" transform="translate(976.17 924.67)">22,630</text><text class="85aabde3-62b5-4b54-b630-79af226fe98d" transform="translate(630.87 353.49)">0</text><text class="e9fb7400-cff3-4e12-a343-a8362a619153" transform="translate(976.17 924.67)">22,630</text><text class="2a406967-adc3-49ae-8f47-a9fe551a9725" transform="translate(630.87 353.49)">0</text></g><path id="58cbbe32-51ae-48b7-98d1-1b4252e0bc21" data-name="chords id" class="21f4ec3f-b79a-4bd5-91f2-fc6450a4b27a" d="M977,996.56a412.5,412.5,0,0,1-38.41,42.16Q653.58,740.51,633,328.52,653.58,740.51,977,996.56Z"/><g class="569326a3-7f3f-46f3-88ed-b5a4edcb9c02"><text class="85aabde3-62b5-4b54-b630-79af226fe98d" transform="translate(921.68 1001.47)">12,583</text><text class="85aabde3-62b5-4b54-b630-79af226fe98d" transform="translate(630.87 353.49)">0</text><text class="67d80463-bca6-4e57-a133-51273d8e6c92" transform="translate(921.68 1001.47)">12,583</text><text class="2a406967-adc3-49ae-8f47-a9fe551a9725" transform="translate(630.87 353.49)">0</text></g></g><g id="f02d675a-41e5-4ee0-bdcd-61f21eec50c4" data-name="arcs-container"><path class="53cfac2b-7ffe-47b5-9e08-6d71becbe701" d="M653.58,303a437.5,437.5,0,0,1,277.56,99.32l-12.69,15.46A417.5,417.5,0,0,0,653.58,323Z"/><path id="f8dde3e5-e464-46f2-b663-e00f7a7fccfb" data-name="label name0" class="3dce0827-bfb7-4f4c-b12b-1e27095bb79a" d="M241.65,593.11C323,365.6,573.41,247.12,800.92,328.48s346,331.76,264.63,559.27l-.05.15"/><path class="6ee21542-e000-4a59-97d8-c008b963e082" d="M947.69,416.62a437.5,437.5,0,0,1,137.28,251L1065.25,671a417.5,417.5,0,0,0-131-239.57Z"/><path id="82ab36fa-fc32-4175-8f4f-10547a25fc97" data-name="label name1" class="3dce0827-bfb7-4f4c-b12b-1e27095bb79a" d="M443.67,356.65c212-116,477.83-38.16,593.8,173.81s38.16,477.83-173.81,593.8l-.18.1"/><path class="da49cd4f-8b92-4910-a8d4-13bf9272fea1" d="M1088.07,689.31a437.5,437.5,0,0,1-19.32,189.16l-19-6.31a417.5,417.5,0,0,0,18.43-180.51Z"/><path id="e0948499-adb0-4ba7-a291-122c9a90918e" data-name="label name2" class="3dce0827-bfb7-4f4c-b12b-1e27095bb79a" d="M609.13,1175.74c240.37,24.55,455.14-150.41,479.69-390.79S938.4,329.82,698,305.27"/><path class="63a0be79-8c92-41c4-87ad-bade8e7e4960" d="M1061.34,899a437.5,437.5,0,0,1-51.61,95.54L993.45,983a417.5,417.5,0,0,0,49.25-91.18Z"/><path id="a5a438cd-2ce9-4b17-85f9-4ce0632c04c9" data-name="label name3" class="3dce0827-bfb7-4f4c-b12b-1e27095bb79a" d="M445.66,1125.44c212.59,114.83,478,35.58,592.86-177s35.58-478-177-592.86"/><path class="21f4ec3f-b79a-4bd5-91f2-fc6450a4b27a" d="M996.59,1012.08a437.5,437.5,0,0,1-40.73,44.71L942,1042.33a417.5,417.5,0,0,0,38.87-42.67Z"/><path id="fa1f6311-7a1b-45c9-b2a8-1de41a7affbc" data-name="label name4" class="3dce0827-bfb7-4f4c-b12b-1e27095bb79a" d="M358.95,1063.92c178.62,162.72,455.33,149.83,618-28.79s149.83-455.33-28.79-618h0"/><path class="eac3f769-1168-438b-b69f-8f7b3d5f727c" d="M939.67,1071.5a437.5,437.5,0,0,1-116.62,72.35l-7.75-18.44a417.5,417.5,0,0,0,111.29-69Z"/><path id="96ff9022-daef-4be1-ac9f-a719c7613a98" data-name="label name5" class="3dce0827-bfb7-4f4c-b12b-1e27095bb79a" d="M281.81,971.14c127.34,205.34,397,268.57,602.38,141.23s268.57-397,141.23-602.38l-.07-.12"/><path class="2d243d29-9232-4bee-ba2c-88523900adab" d="M802.68,1151.81c-227.16,82.35-478.06-35-560.41-262.2s35-478.06,262.2-560.41a437.5,437.5,0,0,1,127.24-25.65l1,20C402.42,335.05,225.08,531.08,236.6,761.37S444.15,1169,674.44,1157.48A417.5,417.5,0,0,0,795.87,1133Z"/><path id="8fdaa5ef-8466-4b54-99ef-1ebaf3866215" data-name="label name6" class="3dce0827-bfb7-4f4c-b12b-1e27095bb79a" d="M567.14,311.63C330.28,359.37,177,590.09,224.7,826.95S503.16,1217.12,740,1169.38"/></g><text class="ff9fcfd4-1c2e-4d8e-8a24-71036e38f58c" transform="translate(1040.7 1371.77)">LA VANGUARDIA</text><text class="ff9fcfd4-1c2e-4d8e-8a24-71036e38f58c" transform="translate(11.6 1365.77)">Fuente: Naciones Unidas</text><text class="ff9fcfd4-1c2e-4d8e-8a24-71036e38f58c" transform="translate(1110.59 1105.8)">P. BAJOS</text><path class="103cc796-4deb-41df-8bf0-2fc130f4cfb4" d="M198.22,879.82a6.62,6.62,0,0,1-6.52-1.42c-1.93-1.66-3.39-4.27-4.32-7.82a24,24,0,0,1-1-9.21l3.11-.76a25.56,25.56,0,0,0-.06,4.62,25.83,25.83,0,0,0,.78,4.74,10.61,10.61,0,0,0,2.73,5.29,3.94,3.94,0,0,0,3.9.93,4.07,4.07,0,0,0,2.16-1.32,6.23,6.23,0,0,0,1.08-2.66,37.39,37.39,0,0,0,.49-5.16,15.38,15.38,0,0,1,1.67-7.11,6.88,6.88,0,0,1,4.49-3.09,6.17,6.17,0,0,1,5.76,1.43,12.59,12.59,0,0,1,3.71,6.53,24.39,24.39,0,0,1,.8,8.73l-3.09-.3a22.49,22.49,0,0,0-.6-7.74,8.15,8.15,0,0,0-2.26-4.14,3.62,3.62,0,0,0-3.46-.83,4.37,4.37,0,0,0-2.21,1.19,5.5,5.5,0,0,0-1.17,2.45,26.15,26.15,0,0,0-.54,4.8c-.15,3.55-.61,6.12-1.44,7.69A6.33,6.33,0,0,1,198.22,879.82Z"/><path class="103cc796-4deb-41df-8bf0-2fc130f4cfb4" d="M198.61,906.05c-2.42-7-3.57-10.49-5.74-17.58l27.31-8.35c2,6.68,3.12,10,5.4,16.54l-2.79,1c-1.82-5.22-2.69-7.85-4.35-13.15l-8.78,2.76c1.6,5.08,2.43,7.6,4.16,12.61l-2.77,1c-1.74-5-2.58-7.58-4.19-12.69l-10,3.15c1.75,5.56,2.66,8.32,4.57,13.8Z"/><path class="103cc796-4deb-41df-8bf0-2fc130f4cfb4" d="M229.52,944.3a15.59,15.59,0,0,1-9.32,1.57,12.08,12.08,0,0,1-7.4-4.46c-1.33,4-2,6-3.23,10.05-.94-2-1.4-3.06-2.31-5.11,1.3-3.41,2-5.11,3.33-8.48l-.52-1.12c-1.9-4.45-2.11-8.41-.69-11.79s4.34-5.9,8.71-7.61,8.15-1.81,11.45-.44,5.8,4.14,7.59,8.33,2,7.74.62,11.1S233.67,942.37,229.52,944.3Zm-10-23.27c-3.59,1.44-6,3.39-7.12,5.88s-1,5.41.38,8.71,3.44,5.42,6,6.28,5.61.46,9.15-1.14,5.78-3.6,6.88-6,1-5.17-.38-8.32-3.26-5.2-5.79-6.12S223,919.62,219.48,921Z"/><path class="103cc796-4deb-41df-8bf0-2fc130f4cfb4" d="M255.94,965.06l-16.21,8.87a9.39,9.39,0,0,1-8.33.75c-2.7-1.08-5-3.36-6.76-6.85s-2.3-6.64-1.56-9.38a9.67,9.67,0,0,1,5.57-6.24l16.58-8c.62,1.29.93,1.93,1.56,3.21l-16.72,8.22a6.83,6.83,0,0,0-3.95,4.4c-.49,1.89-.08,4.12,1.23,6.67A9.12,9.12,0,0,0,232,971.4a6.89,6.89,0,0,0,5.9-.67l16.38-8.8C254.92,963.19,255.26,963.81,255.94,965.06Z"/><path class="103cc796-4deb-41df-8bf0-2fc130f4cfb4" d="M244.33,1001.77c-3.81-6.12-5.66-9.22-9.24-15.5l24.8-14.16c3.37,5.91,5.11,8.82,8.7,14.58l-2.5,1.56c-2.85-4.59-4.25-6.9-7-11.58l-8,4.62c2.61,4.49,3.94,6.71,6.67,11.11l-2.49,1.54c-2.75-4.43-4.09-6.67-6.71-11.18L239.53,988c2.86,4.91,4.32,7.35,7.32,12.16Z"/><path class="103cc796-4deb-41df-8bf0-2fc130f4cfb4" d="M274.46,1020.58c-3.82,2.76-7.58,3.73-11.27,2.83s-7.11-3.6-10.13-8.11c-2-3-3-4.47-4.91-7.48l24-15.44c2,3.13,3,4.69,5.11,7.77,2.63,3.91,3.72,7.61,3.23,11.18S278,1018,274.46,1020.58Zm-2.33-3.06c3-2.15,4.74-4.6,5.13-7.33s-.51-5.7-2.71-9c-1.15-1.71-1.72-2.57-2.85-4.3l-19.09,12.49c1,1.52,1.5,2.28,2.5,3.79,2.47,3.7,5.18,5.89,8,6.6S269,1019.72,272.13,1017.52Z"/><path class="103cc796-4deb-41df-8bf0-2fc130f4cfb4" d="M279.31,1050.82c1.81-3.53,2.73-5.29,4.59-8.78-3.15-3.95-4.7-5.94-7.75-10-3.84.95-5.76,1.41-9.62,2.3-.9-1.22-1.35-1.83-2.25-3,10.16-2.17,20.31-4.63,30.34-7.35l1.81,2.33c-5.13,9-10,18.22-14.67,27.51Zm6.22-11.53c1.87-3.34,2.81-5,4.72-8.31a42.48,42.48,0,0,1,2.38-3.66,33.7,33.7,0,0,1-4.07,1.48c-3.69,1-5.54,1.51-9.25,2.48C281.76,1034.52,283,1036.12,285.52,1039.29Z"/><path class="103cc796-4deb-41df-8bf0-2fc130f4cfb4" d="M301.19,1075.94c-1.16-1.24-1.74-1.87-2.89-3.12,1.89-9.6,4.1-19.21,6.63-28.67l-.11-.13q-3,3-5.67,5.27l-12.35,10.53-2.23-2.63,21.86-18.38c1,1.21,1.53,1.82,2.56,3-2.52,9.39-4.75,18.92-6.64,28.46l.12.13q.36-.39,2.36-2.44t2.94-2.85l12.06-11.1,2.23,2.4Z"/><path class="103cc796-4deb-41df-8bf0-2fc130f4cfb4" d="M328.43,1102.85c-5.27-4.81-7.86-7.26-13-12.27l20-20.36c4.79,4.71,7.23,7,12.18,11.54l-2,2.18c-3.95-3.6-5.9-5.43-9.74-9.15l-6.4,6.61c3.68,3.56,5.55,5.32,9.33,8.78l-2,2.16c-3.8-3.48-5.68-5.25-9.39-8.84l-7.31,7.55c4,3.9,6.08,5.83,10.22,9.61Z"/><path class="103cc796-4deb-41df-8bf0-2fc130f4cfb4" d="M352.83,1123.67l-3.31-2.66c.47-9.77,1.27-19.59,2.4-29.31l-.13-.11q-2.53,3.39-4.84,6l-10.68,12.22-2.58-2.27,18.94-21.37,3,2.61c-1.14,9.65-2,19.4-2.44,29.1l.13.11q.3-.44,2-2.76t2.49-3.25l10.31-12.74,2.55,2Z"/><path class="103cc796-4deb-41df-8bf0-2fc130f4cfb4" d="M395,1122.57a10.46,10.46,0,0,0-8.28-2c-2.79.58-5.26,2.32-7.39,5.26s-3.1,5.93-2.71,8.72,2.09,5.23,5.07,7.28a29.58,29.58,0,0,0,6.9,3.36l-1.61,2.42a24.83,24.83,0,0,1-7.43-3.68c-3.89-2.68-6.12-5.85-6.68-9.4s.58-7.23,3.36-11a16.36,16.36,0,0,1,6-5.19,12.5,12.5,0,0,1,7.1-1.19,16.48,16.48,0,0,1,7.37,3,20.46,20.46,0,0,1,6,6l-2.82,1.55A17.58,17.58,0,0,0,395,1122.57Z"/><path class="103cc796-4deb-41df-8bf0-2fc130f4cfb4" d="M409.6,1162.64c.46-3.94.7-5.91,1.21-9.83-4.33-2.59-6.48-3.91-10.74-6.61-3.25,2.24-4.89,3.35-8.18,5.55l-3.16-2.06c8.73-5.61,17.36-11.49,25.78-17.56l2.51,1.55c-1.63,10.25-3,20.59-4.08,30.91Zm1.77-13c.57-3.78.87-5.67,1.5-9.44a42.52,42.52,0,0,1,.94-4.26,33.76,33.76,0,0,1-3.28,2.82c-3.09,2.25-4.64,3.37-7.77,5.58C406.18,1146.51,407.9,1147.57,411.37,1149.65Z"/><path class="103cc796-4deb-41df-8bf0-2fc130f4cfb4" d="M430.78,1141.87c3,1.67,4.47,2.5,7.48,4.12,3.53,1.9,5.85,3.74,6.93,5.57a6.61,6.61,0,0,1-3.28,9.06,7.52,7.52,0,0,1-5-.16l-.09.17c3.85,2.85,5,5.94,3.25,9.35a7,7,0,0,1-5.28,4c-2.38.4-5.12-.22-8.2-1.86-4-2.11-5.93-3.19-9.83-5.38Zm-2.84,12.41c2.08,1.15,3.13,1.72,5.22,2.84s4,1.73,5.38,1.59a4.1,4.1,0,0,0,3.19-2.54,3.72,3.72,0,0,0,0-3.93,12.45,12.45,0,0,0-4.66-3.67c-1.83-1-2.75-1.48-4.57-2.49Zm-1.36,2.46-5.16,9.35c2.33,1.29,3.5,1.93,5.86,3.18a10.13,10.13,0,0,0,5.77,1.53,4.7,4.7,0,0,0,3.65-2.83,4.32,4.32,0,0,0,0-4.38,11.56,11.56,0,0,0-4.69-3.89C429.84,1158.54,428.75,1157.95,426.57,1156.75Z"/><path class="103cc796-4deb-41df-8bf0-2fc130f4cfb4" d="M473.67,1178.56c-1.75,4.22-4.31,7.06-7.72,8.45s-7.29,1.15-11.53-.76-7.11-4.7-8.31-8.12-.73-7.24,1.33-11.46,4.74-6.86,8.06-8.11,7-.93,11.05.91,6.57,4.33,7.83,7.69S475.43,1174.33,473.67,1178.56Zm-22.78-10.18c-1.67,3.49-2.12,6.53-1.31,9.12s2.83,4.64,6,6.09,6.11,1.63,8.56.51,4.42-3.47,5.93-7,1.83-6.56,1-9.07-2.73-4.43-5.8-5.82-5.82-1.57-8.28-.52S452.54,1164.94,450.89,1168.38Z"/><path class="103cc796-4deb-41df-8bf0-2fc130f4cfb4" d="M512.25,1177.66l3.65,1.17q-9.57,12-19.76,23.55l-3.53-1.23c-.52-10.21-.78-20.47-.78-30.69l3.52,1.32c.06,7.91.15,11.87.45,19.81a50.79,50.79,0,0,1-.15,6.51,50.43,50.43,0,0,1,4-5.29C504.8,1186.8,507.32,1183.77,512.25,1177.66Z"/><path class="103cc796-4deb-41df-8bf0-2fc130f4cfb4" d="M529.07,1212.38c-7.05-1.87-10.56-2.87-17.51-5l8.37-27.3c6.54,2,9.83,2.94,16.47,4.7l-.76,2.85c-5.29-1.4-7.91-2.14-13.14-3.69l-2.63,8.82c5,1.49,7.53,2.2,12.59,3.55l-.76,2.83c-5.09-1.36-7.63-2.08-12.67-3.58l-3,10.07c5.48,1.63,8.24,2.41,13.79,3.88Z"/><path class="103cc796-4deb-41df-8bf0-2fc130f4cfb4" d="M542.58,1203.55l-2.78,11.55-3.7-.91,6.91-27.71c3.28.82,4.93,1.21,8.24,2,3.7.85,6.3,2.08,7.8,3.77a7.08,7.08,0,0,1,1.47,6.49c-.75,3.7-3.36,5.79-7.84,6.18,2.31,5.76,3.51,8.63,6,14.36l-4.44-.9c-2.15-5.3-3.19-8-5.17-13.27C546.48,1204.48,545.18,1204.18,542.58,1203.55Zm.67-2.77c2,.47,3,.71,4.94,1.16,2.55.58,4.53.54,5.91-.12a4.92,4.92,0,0,0,2.66-3.72,4.61,4.61,0,0,0-.94-4.38c-1-1.07-2.83-1.89-5.44-2.49-1.83-.42-2.75-.64-4.57-1.07Z"/><path class="103cc796-4deb-41df-8bf0-2fc130f4cfb4" d="M592,1210c-.61,4.67-2.52,8.07-5.8,10.13s-7.71,2.68-13.21,1.76c-3.62-.6-5.42-.92-9-1.6l5.25-28.07c3.74.7,5.62,1,9.39,1.65,4.78.79,8.33,2.55,10.68,5.36S592.54,1205.58,592,1210Zm-4-.41c.51-3.69-.14-6.61-1.91-8.78s-4.65-3.55-8.64-4.21c-2.09-.35-3.13-.53-5.22-.9l-4,22.46,4.59.8c4.5.76,8.05.31,10.6-1.29S587.48,1213.32,588,1209.54Z"/><path class="103cc796-4deb-41df-8bf0-2fc130f4cfb4" d="M616,1227.06c-7.47-.57-11.19-.92-18.58-1.77l3.26-28.37c7,.8,10.45,1.13,17.48,1.66l-.22,2.94c-5.6-.42-8.38-.68-13.94-1.27l-1,9.15c5.32.57,8,.81,13.36,1.23l-.23,2.92c-5.4-.42-8.08-.67-13.44-1.24l-1.12,10.45c5.83.62,8.76.89,14.63,1.33Z"/><path class="103cc796-4deb-41df-8bf0-2fc130f4cfb4" d="M866.72,1160c1.74,4.23,2,8,.55,11.4s-4.31,5.9-8.66,7.44-8.33,1.48-11.52-.21-5.42-4.82-6.77-9.31-1.21-8.24.26-11.39,4.2-5.37,8.22-6.8,7.37-1.33,10.53.22S865,1155.75,866.72,1160Zm-22.79,8.26c1.16,3.69,2.89,6.22,5.23,7.56s5.19,1.45,8.47.28,5.45-3.05,6.38-5.55.66-5.55-.77-9.16-3.27-6-5.54-7.22-4.88-1.32-7.91-.25-5.06,2.8-6.06,5.23S842.78,1164.61,843.92,1168.25Z"/><path class="103cc796-4deb-41df-8bf0-2fc130f4cfb4" d="M887.62,1166.36c-1.34.64-2,1-3.35,1.58l-10.77-23.23c-3.35,1.55-5,2.3-8.44,3.74l-1.15-2.72c8-3.37,11.88-5.22,19.55-9.21l1.36,2.62c-3.27,1.7-4.92,2.53-8.25,4.12Z"/><path class="103cc796-4deb-41df-8bf0-2fc130f4cfb4" d="M898.34,1147.45l5.78,10.37c-1.29.72-1.94,1.08-3.24,1.78l-13.59-25.12c2.78-1.5,4.16-2.28,6.89-3.86,3.06-1.77,5.63-2.56,7.78-2.31a7.32,7.32,0,0,1,5.39,3.77c2,3.19,1.69,6.45-1.13,9.69,5.48,2.69,8.28,4,14,6.43-1.47.95-2.21,1.41-3.7,2.34-5.13-2.41-7.65-3.66-12.6-6.26C901.68,1145.58,900.57,1146.21,898.34,1147.45ZM897,1145c1.69-.94,2.52-1.42,4.19-2.38,2.15-1.25,3.47-2.59,4-4a5,5,0,0,0-.71-4.47,4.75,4.75,0,0,0-3.6-2.59c-1.41-.12-3.18.46-5.35,1.71-1.52.88-2.29,1.32-3.83,2.17Z"/><path class="103cc796-4deb-41df-8bf0-2fc130f4cfb4" d="M937.77,1117.89c2.87,3.55,4.17,7.14,3.78,10.77s-2.44,6.88-6.16,9.6-7.53,3.78-11.06,3.06-6.55-3.08-9.13-7-3.53-7.55-3-11,2.47-6.33,5.9-8.84,6.67-3.38,10.14-2.79S934.89,1114.33,937.77,1117.89Zm-19.43,14.39c2.17,3.2,4.55,5.14,7.17,5.76s5.37-.08,8.18-2.13,4.33-4.47,4.52-7.13-1-5.51-3.35-8.56-4.84-4.78-7.37-5.34-5,.12-7.64,2-4,4.12-4.29,6.73S916.2,1129.12,918.34,1132.28Z"/><path class="103cc796-4deb-41df-8bf0-2fc130f4cfb4" d="M960.41,1106.91a6.67,6.67,0,0,1,1.85,6.35c-.52,2.42-2.09,4.83-4.71,7.15a21.33,21.33,0,0,1-7.47,4.71l-2.05-2.46a22.56,22.56,0,0,0,4-1.84,22.8,22.8,0,0,0,3.71-2.67,9.63,9.63,0,0,0,3.27-4.65,4,4,0,0,0-1-3.83,4.24,4.24,0,0,0-2.13-1.34,6,6,0,0,0-2.77.18,35.58,35.58,0,0,0-4.61,1.71,13.83,13.83,0,0,1-6.79,1.42,7.15,7.15,0,0,1-4.66-2.74,6.37,6.37,0,0,1-1.45-5.66,11,11,0,0,1,3.73-5.86,21.5,21.5,0,0,1,6.9-4.25c.49,1.13.74,1.69,1.22,2.83a20,20,0,0,0-6.2,3.69,7.12,7.12,0,0,0-2.42,3.65,3.72,3.72,0,0,0,.9,3.38,4.63,4.63,0,0,0,2,1.47,5.21,5.21,0,0,0,2.6,0,22.78,22.78,0,0,0,4.3-1.49c3.08-1.34,5.46-2,7.19-2A6.54,6.54,0,0,1,960.41,1106.91Z"/><path class="103cc796-4deb-41df-8bf0-2fc130f4cfb4" d="M1034.81,1037.23c-.94,1.12-1.42,1.67-2.37,2.78l-21.62-18.65c4.22-4.89,6.27-7.39,10.25-12.46l2.32,1.82c-3.17,4.05-4.8,6.05-8.13,10l8,6.75c3.22-3.81,4.8-5.75,7.88-9.66l2.32,1.82c-3.11,3.95-4.7,5.9-7.95,9.74Z"/><path class="103cc796-4deb-41df-8bf0-2fc130f4cfb4" d="M1039.39,1012.38l9.52,7.1c-.87,1.17-1.31,1.75-2.19,2.91L1024,1005.1c1.92-2.52,2.86-3.8,4.72-6.36,2.08-2.87,4.12-4.63,6.19-5.26a7.31,7.31,0,0,1,6.45,1.3c3.12,2.12,4.13,5.22,2.88,9.29,6.08.27,9.15.35,15.3.39-1,1.43-1.44,2.14-2.41,3.56-5.63-.2-8.43-.34-14-.73C1041.65,1009.34,1040.9,1010.36,1039.39,1012.38Zm-2.29-1.7c1.15-1.54,1.71-2.31,2.84-3.86,1.45-2,2.11-3.75,2-5.22a5,5,0,0,0-2.46-3.8,4.75,4.75,0,0,0-4.33-.93c-1.34.45-2.72,1.7-4.2,3.73-1,1.43-1.56,2.13-2.61,3.55Z"/><path class="103cc796-4deb-41df-8bf0-2fc130f4cfb4" d="M1072.58,983.52c-3.92-.47-5.88-.72-9.78-1.27-2.49,4.2-3.76,6.28-6.39,10.4,2.25,3.22,3.37,4.84,5.57,8.12-.8,1.23-1.21,1.84-2,3.07-5.59-8.68-11.51-17.23-17.68-25.5l1.47-2.4c10.16,1.78,20.45,3.23,30.7,4.32C1073.7,981.56,1073.33,982.22,1072.58,983.52Zm-12.91-1.85c-3.76-.6-5.63-.92-9.37-1.59a43.11,43.11,0,0,1-4.23-1,34.15,34.15,0,0,1,2.84,3.24c2.28,3,3.41,4.58,5.63,7.67C1056.65,986.69,1057.67,985,1059.67,981.67Z"/><path class="103cc796-4deb-41df-8bf0-2fc130f4cfb4" d="M1087.54,954.76c-.7,1.5-1.05,2.25-1.77,3.74-9.51,1.69-19.21,3-28.83,3.86l-.08.14q3.87,1.72,7,3.38l14.3,7.68c-.63,1.18-1,1.77-1.6,2.95l-25-13.74c.73-1.33,1.09-2,1.8-3.32,9.55-.83,19.18-2.09,28.62-3.74l.07-.15q-.49-.19-3.14-1.29t-3.74-1.67l-14.79-7.05c.54-1.13.81-1.7,1.33-2.83Z"/><path class="103cc796-4deb-41df-8bf0-2fc130f4cfb4" d="M1072,925a9.89,9.89,0,0,0,0,8.21c1.2,2.53,3.45,4.53,6.79,6s6.46,1.77,9.06.82,4.6-3.07,5.89-6.35a27.67,27.67,0,0,0,1.65-7.29l2.73,1a23.37,23.37,0,0,1-1.84,7.88c-1.7,4.28-4.27,7.07-7.59,8.34s-7.14.9-11.43-1a17,17,0,0,1-6.39-4.68,12.37,12.37,0,0,1-2.79-6.49,15.35,15.35,0,0,1,1.13-7.54,19.06,19.06,0,0,1,4.36-6.83l2.18,2.33A16.43,16.43,0,0,0,1072,925Z"/><path class="103cc796-4deb-41df-8bf0-2fc130f4cfb4" d="M1101.18,921.25l-26.94-9.46c.44-1.27.66-1.9,1.1-3.17l27,9.19C1101.9,919.19,1101.66,919.88,1101.18,921.25Z"/><path class="103cc796-4deb-41df-8bf0-2fc130f4cfb4" d="M1110.44,890.69c-3.91.61-5.86.9-9.76,1.43-1.27,4.74-1.94,7.1-3.37,11.79,3,2.5,4.55,3.76,7.55,6.33-.44,1.41-.67,2.11-1.13,3.51-7.71-6.86-15.72-13.51-23.88-19.83.32-1.09.47-1.63.78-2.72,10.27-1,20.57-2.44,30.74-4.18C1111,888.5,1110.82,889.23,1110.44,890.69Zm-12.94,1.72c-3.79.44-5.68.64-9.46,1a42.93,42.93,0,0,1-4.34.19,34.06,34.06,0,0,1,3.61,2.36c3,2.32,4.51,3.5,7.49,5.88C1095.94,898.1,1096.48,896.21,1097.5,892.42Z"/><path class="103cc796-4deb-41df-8bf0-2fc130f4cfb4" d="M1128,828.36a181.92,181.92,0,0,1-5.5,17.89l-26.91-9.55a157.88,157.88,0,0,0,4.78-15.54l2.85.74c-1.32,5-2.06,7.55-3.73,12.52l8.72,2.92c1.64-4.89,2.38-7.36,3.69-12.32l2.83.75c-1.34,5-2.09,7.54-3.75,12.5l10,3.34c1.86-5.55,2.69-8.35,4.17-14Z"/><path class="103cc796-4deb-41df-8bf0-2fc130f4cfb4" d="M1133.08,802.85a181.56,181.56,0,0,1-3.31,18.3l-27.86-6.27a158.12,158.12,0,0,0,2.87-15.9l2.92.4c-.7,5.14-1.14,7.7-2.19,12.8l9,1.86c1-5,1.47-7.54,2.19-12.59l2.9.41c-.72,5.13-1.17,7.69-2.22,12.78l10.29,2.12c1.18-5.69,1.67-8.56,2.45-14.3Z"/><path class="103cc796-4deb-41df-8bf0-2fc130f4cfb4" d="M1131.78,796.42a2.39,2.39,0,0,1-2.38-2.9,2.89,2.89,0,0,1,.85-1.95,2.58,2.58,0,0,1,2-.56,2.49,2.49,0,0,1,1.88.91,2.9,2.9,0,0,1,.5,2.1,2.94,2.94,0,0,1-.8,1.86A2.44,2.44,0,0,1,1131.78,796.42Z"/><path class="103cc796-4deb-41df-8bf0-2fc130f4cfb4" d="M1106.08,760l18.43-1.29a9.21,9.21,0,0,1,7.87,2.86c2,2.16,3.05,5.3,3.1,9.31s-1,7.11-2.91,9.22a9.51,9.51,0,0,1-7.85,2.89l-18.38-.86c.06-1.34.09-2,.13-3.36l18.63.54a6.75,6.75,0,0,0,5.54-2.07c1.3-1.46,2-3.67,1.94-6.58a9.13,9.13,0,0,0-2.09-6.33,6.8,6.8,0,0,0-5.61-1.94l-18.57,1C1106.21,762.05,1106.17,761.38,1106.08,760Z"/><path class="103cc796-4deb-41df-8bf0-2fc130f4cfb4" d="M1101.72,730.79l18-4.14a9.19,9.19,0,0,1,8.22,1.62c2.3,1.84,3.85,4.79,4.51,8.76s.15,7.21-1.44,9.59a9.49,9.49,0,0,1-7.31,4.08l-18.29,2c-.15-1.34-.23-2-.4-3.35l18.48-2.35a6.74,6.74,0,0,0,5.15-2.91c1.06-1.65,1.38-3.94.89-6.82a9.21,9.21,0,0,0-3.06-6,6.78,6.78,0,0,0-5.85-1.06l-18.19,3.84C1102.17,732.77,1102,732.11,1101.72,730.79Z"/><path class="103cc796-4deb-41df-8bf0-2fc130f4cfb4" d="M1125.67,717.39a2.66,2.66,0,0,1-2.09-.15,2.73,2.73,0,0,1-1.17-1.72,2.94,2.94,0,0,1,.09-2.15,2.57,2.57,0,0,1,1.69-1.27,2.48,2.48,0,0,1,2.09.18,3,3,0,0,1,1.23,1.81,3,3,0,0,1-.07,2A2.43,2.43,0,0,1,1125.67,717.39Z"/><path class="103cc796-4deb-41df-8bf0-2fc130f4cfb4" d="M1014.8,440.35a7.89,7.89,0,0,1-7,2.36c-2.58-.41-5.23-2-8-4.68-1-1-1.54-1.48-2.57-2.46l-7.72,8.15L987,441.39l19.42-20.93c2.42,2.25,3.62,3.38,6,5.68C1018.1,431.68,1018.8,436.51,1014.8,440.35Zm-15.64-6.85,2.31,2.21c2.26,2.19,4.2,3.45,5.87,3.78a5.15,5.15,0,0,0,4.75-1.7,4.72,4.72,0,0,0,1.57-4.41c-.3-1.62-1.48-3.45-3.56-5.46-1.18-1.14-1.77-1.71-3-2.84Z"/><path class="103cc796-4deb-41df-8bf0-2fc130f4cfb4" d="M1032.06,469.1c-3.58,2.84-7.15,4.11-10.68,3.91s-6.6-1.88-9.33-5.05-4-6.54-3.74-10,2.13-6.83,5.55-10,6.87-4.74,10.46-4.61,7,2,10,5.52,4.23,7,3.79,10.63S1035.65,466.25,1032.06,469.1Zm-15.69-18.41c-2.85,2.61-4.43,5.23-4.77,7.84s.54,5.1,2.65,7.54,4.44,3.7,7,3.73,5.41-1.16,8.43-3.61,4.71-4.92,5.13-7.54-.49-5.27-2.75-7.9-4.79-4-7.48-4S1019.19,448.11,1016.38,450.68Z"/><path class="103cc796-4deb-41df-8bf0-2fc130f4cfb4" d="M1036.37,478.7l-9.53,7.09c-.81-1.08-1.21-1.62-2-2.7l22.73-17.29c2.1,2.76,3.13,4.15,5.15,6.95,2.27,3.13,3.34,5.87,3.28,8.14a7,7,0,0,1-3.47,5.66c-3.13,2.11-6.37,1.84-9.78-.7-2.32,5.63-3.54,8.4-6.06,13.86-.88-1.33-1.33-2-2.23-3.3,2.34-5,3.46-7.53,5.63-12.66C1038.6,481.73,1037.86,480.72,1036.37,478.7Zm2.29-1.7c1.15,1.55,1.73,2.33,2.86,3.89,1.46,2,2.88,3.24,4.31,3.66a5.07,5.07,0,0,0,4.44-.95,4.57,4.57,0,0,0,2.32-3.82c0-1.47-.8-3.32-2.38-5.5-1.11-1.53-1.67-2.29-2.8-3.81Z"/><path class="103cc796-4deb-41df-8bf0-2fc130f4cfb4" d="M1044,511.19c-.7-1.15-1.05-1.72-1.76-2.87l21.74-13.52c-2.09-3.36-3.16-5-5.34-8.32l2.46-1.63c5.21,7.88,7.69,11.9,12.36,20.1l-2.56,1.46c-2-3.44-3-5.14-5-8.52Z"/><path class="103cc796-4deb-41df-8bf0-2fc130f4cfb4" d="M1086.53,530.27l-16.73,7.83a10.07,10.07,0,0,1-8.24.53c-2.55-1-4.58-3.05-6.16-6.15s-2-5.91-1.29-8.49a10.43,10.43,0,0,1,5.38-6.27l16.1-8.91c.71,1.28,1.06,1.92,1.76,3.21l-16.39,8.86a7.28,7.28,0,0,0-3.88,4.38,8.4,8.4,0,0,0,1,6.1,8.09,8.09,0,0,0,4.27,4.25,7.34,7.34,0,0,0,5.85-.58L1085,527C1085.59,528.28,1085.91,528.94,1086.53,530.27Z"/><path class="103cc796-4deb-41df-8bf0-2fc130f4cfb4" d="M1082.66,555.64c1.51,3.84,2.24,5.77,3.64,9.66l-13.07,4.7a35.8,35.8,0,0,1-2.65-4,40.77,40.77,0,0,1-2.33-5c-1.61-4.08-1.75-7.7-.37-11s4.15-5.91,8.39-7.79a15.15,15.15,0,0,1,7.91-1.4,12.26,12.26,0,0,1,6.92,3.15,18.92,18.92,0,0,1,4.9,7.38,24.18,24.18,0,0,1,1.74,9.39l-3.24-.33a21.18,21.18,0,0,0-1.35-8.2c-1.39-3.55-3.49-5.92-6.23-7.07s-5.79-1-9.16.49c-3.54,1.53-5.82,3.59-6.91,6.16s-.92,5.55.44,9a28,28,0,0,0,2.76,5.31l8.24-3.06c-.94-2.52-1.42-3.78-2.4-6.29Z"/><path class="103cc796-4deb-41df-8bf0-2fc130f4cfb4" d="M1079.83,594.45c3.12-2.36,4.67-3.56,7.75-6-1.32-4.62-2-6.91-3.5-11.47-3.91-.28-5.86-.39-9.76-.59-.44-1.3-.66-1.94-1.11-3.23,10.32.43,20.72,1.25,31,2.43.37,1.18.55,1.78.9,3-7.87,6.7-16,13.16-24.35,19.28C1080.39,596.48,1080.2,595.8,1079.83,594.45Zm10.32-7.87c3-2.33,4.5-3.52,7.48-5.92q1.41-1.15,3.52-2.58a36.69,36.69,0,0,1-4.33-.07c-3.81-.35-5.72-.5-9.52-.77C1088.5,581,1089.07,582.83,1090.15,586.58Z"/><path class="103cc796-4deb-41df-8bf0-2fc130f4cfb4" d="M1081.74,601.73l27.7-6.91c.36,1.43.53,2.15.88,3.59l-24.85,5.93c1.21,5.06,1.76,7.61,2.77,12.73l-3,.58C1084,611.23,1083.31,608,1081.74,601.73Z"/><path class="103cc796-4deb-41df-8bf0-2fc130f4cfb4" d="M756.41,302.72c-1-3.77-1.58-5.66-2.71-9.42-4.81-.48-7.23-.66-12.08-.93-1.69,3.55-2.5,5.33-4.09,8.9l-3.44-.12c4.1-9.5,8.68-18.93,13.6-28l3.16.24c3.45,9.74,6.5,19.76,9,29.77Zm-3.52-12.5c-1.08-3.66-1.64-5.48-2.81-9.13q-.57-1.73-1.15-4.22a36.89,36.89,0,0,1-1.67,4c-1.73,3.42-2.58,5.14-4.22,8.59C747,289.7,749,289.85,752.89,290.22Z"/><path class="103cc796-4deb-41df-8bf0-2fc130f4cfb4" d="M786.16,307.84c-1.5-.35-2.25-.52-3.76-.84a259,259,0,0,0-12-26.57l-.17,0q-.3,4.22-.84,7.7l-2.48,16-3.09-.46,4-28.27c1.68.24,2.52.36,4.19.63a261.18,261.18,0,0,1,12.13,26.56l.16,0q.07-.52.55-3.35t.78-4l3.51-16,3.41.77Z"/><path class="103cc796-4deb-41df-8bf0-2fc130f4cfb4" d="M810.65,299c4,1.26,5.94,1.92,9.86,3.33l-4.69,13.07a36.57,36.57,0,0,1-4.78-.51,41.85,41.85,0,0,1-5.34-1.36c-4.18-1.32-7.08-3.47-8.8-6.61s-2-6.93-.89-11.42a14.93,14.93,0,0,1,3.85-7.06,12.29,12.29,0,0,1,6.87-3.41,19.3,19.3,0,0,1,9,.87,24.53,24.53,0,0,1,8.52,4.65l-2.33,2.28a21.44,21.44,0,0,0-7.32-4.18c-3.69-1.18-6.9-1-9.54.36s-4.41,3.9-5.38,7.44c-1,3.72-.82,6.8.51,9.25s3.75,4.19,7.31,5.33a28.63,28.63,0,0,0,5.86,1.22l2.86-8.31c-2.56-.88-3.85-1.31-6.43-2.12Z"/><path class="103cc796-4deb-41df-8bf0-2fc130f4cfb4" d="M851.38,316.33c-2.06,4.08-4.77,6.73-8,8s-6.77,1.1-10.58-.59-6.44-4.14-7.67-7.4-1.07-7.07.61-11.45,4.11-7.27,7.42-8.71,7.21-1.23,11.56.69,6.95,4.61,8.11,8.07S853.44,312.23,851.38,316.33Zm-22.2-10c-1.43,3.59-1.7,6.64-.88,9.13s2.69,4.35,5.63,5.65,5.59,1.44,8,.36,4.42-3.34,6.12-6.83,2.18-6.46,1.43-9-2.75-4.59-6-6-6.1-1.54-8.54-.38S830.59,302.79,829.18,306.34Z"/><path class="103cc796-4deb-41df-8bf0-2fc130f4cfb4" d="M850.68,332.1l13.48-25.18c1.32.71,2,1.06,3.29,1.79L855.1,331.07c4.54,2.51,6.78,3.82,11.2,6.55l-1.58,2.56C859.2,336.77,856.39,335.15,850.68,332.1Z"/><path class="103cc796-4deb-41df-8bf0-2fc130f4cfb4" d="M884,353.29c1-3.78,1.49-5.69,2.4-9.51-3.93-2.85-5.92-4.23-10-6.9-3.24,2.21-4.84,3.34-8,5.62-1.15-.74-1.73-1.11-2.9-1.83,8.31-6.14,17-12,25.86-17.35l2.6,1.81c-1.94,10.15-4.36,20.34-7.19,30.29C885.67,354.56,885.11,354.13,884,353.29Zm3.26-12.58c.91-3.7,1.35-5.56,2.18-9.3q.38-1.78,1.14-4.23a37.2,37.2,0,0,1-3.47,2.62c-3.23,2.08-4.82,3.14-8,5.28C882.41,337.27,884,338.4,887.24,340.71Z"/><line class="3613d0cf-cbd6-44f8-9a89-9a153ce3c992" x1="971.01" y1="1057.69" x2="1271.79" y2="1057.69"/><text class="9ba961d7-c3e8-49ea-af83-83f1b47882f7" transform="translate(156.66 92.66)">¿Dónde vive la población de Cabo Verde?</text><text class="ff9fcfd4-1c2e-4d8e-8a24-71036e38f58c" transform="translate(168.61 155.16)">El <tspan class="e43a4c14-e896-48cb-bd97-c88800977223" x="43.82" y="0">42% </tspan><tspan x="138.21" y="0">de los 500 mil caboverdianos vive en el extranjero</tspan></text></svg>