<svg id="823981ed-771f-47a9-8941-f3f1fb7ae68a" data-name="Capa 1" xmlns="http://www.w3.org/2000/svg" viewBox="0 0 609.38 606.02"><defs><style>.\30 18924a3-ca12-43b3-9bf2-13e2ab564f50{fill:none;stroke:#e4e5e3;}.\38 42a9168-d44e-45b0-a597-a41d768eef40,.b03c0076-4c5e-4d97-a25b-a4eceb4ce5d6{fill:#757575;}.b03c0076-4c5e-4d97-a25b-a4eceb4ce5d6{font-size:14px;font-family:OpenSans, Open Sans;}.\31 f2192d3-7dcf-40a3-90e5-d9c7ed1a9cbe{isolation:isolate;}.\34 07daeaf-726c-442f-9142-43a3e55eb8ad{fill:#9bd646;opacity:0.6;}.cd028ff4-fb25-4cdd-8408-284b301a782c{fill:#323232;}</style></defs><title>2018.07_Rusia_ras</title><line class="018924a3-ca12-43b3-9bf2-13e2ab564f50" x1="22.37" y1="554.05" x2="22.37" y2="38.25"/><path class="842a9168-d44e-45b0-a597-a41d768eef40" d="M19.67,575.17H18.56V568q0-.89.05-1.68l-.32.3L16.67,568l-.6-.78,2.65-2h1Z" transform="translate(-6.81 -6.95)"/><path class="842a9168-d44e-45b0-a597-a41d768eef40" d="M30,569.44q0,5.87-4.54,5.87a4.63,4.63,0,0,1-1.26-.14v-1a4,4,0,0,0,1.24.18,3,3,0,0,0,2.48-1,5.14,5.14,0,0,0,.91-3.11h-.08a2.43,2.43,0,0,1-1,.86,3.19,3.19,0,0,1-1.4.3,2.82,2.82,0,0,1-2.11-.79,3,3,0,0,1-.78-2.21,3.39,3.39,0,0,1,.87-2.46,3,3,0,0,1,2.29-.9,3.08,3.08,0,0,1,1.78.52,3.31,3.31,0,0,1,1.17,1.53A6.2,6.2,0,0,1,30,569.44ZM26.68,566a1.87,1.87,0,0,0-1.51.63,2.62,2.62,0,0,0-.53,1.75,2.27,2.27,0,0,0,.49,1.55,1.88,1.88,0,0,0,1.5.56,2.59,2.59,0,0,0,1.15-.25,2.07,2.07,0,0,0,.82-.69,1.59,1.59,0,0,0,.3-.92,3.13,3.13,0,0,0-.28-1.33,2.32,2.32,0,0,0-.78-1A2,2,0,0,0,26.68,566Z" transform="translate(-6.81 -6.95)"/><path class="842a9168-d44e-45b0-a597-a41d768eef40" d="M38,569.44q0,5.87-4.54,5.87a4.63,4.63,0,0,1-1.26-.14v-1a4,4,0,0,0,1.24.18,3,3,0,0,0,2.48-1,5.14,5.14,0,0,0,.91-3.11H36.8a2.43,2.43,0,0,1-1,.86,3.19,3.19,0,0,1-1.4.3,2.82,2.82,0,0,1-2.11-.79,3,3,0,0,1-.78-2.21,3.39,3.39,0,0,1,.87-2.46,3,3,0,0,1,2.29-.9,3.08,3.08,0,0,1,1.78.52,3.31,3.31,0,0,1,1.17,1.53A6.2,6.2,0,0,1,38,569.44ZM34.68,566a1.87,1.87,0,0,0-1.51.63,2.62,2.62,0,0,0-.53,1.75,2.27,2.27,0,0,0,.49,1.55,1.88,1.88,0,0,0,1.5.56,2.59,2.59,0,0,0,1.15-.25,2.07,2.07,0,0,0,.82-.69,1.59,1.59,0,0,0,.3-.92,3.13,3.13,0,0,0-.28-1.33,2.32,2.32,0,0,0-.78-1A2,2,0,0,0,34.68,566Z" transform="translate(-6.81 -6.95)"/><path class="842a9168-d44e-45b0-a597-a41d768eef40" d="M46.1,570.16a7.3,7.3,0,0,1-.82,3.87,3,3,0,0,1-5,0,7.16,7.16,0,0,1-.84-3.84,7.29,7.29,0,0,1,.81-3.88,3,3,0,0,1,5,.05A7.12,7.12,0,0,1,46.1,570.16Zm-5.46,0a7.31,7.31,0,0,0,.51,3.17,1.84,1.84,0,0,0,3.28,0,10,10,0,0,0,0-6.32,1.85,1.85,0,0,0-3.28,0A7.27,7.27,0,0,0,40.64,570.16Z" transform="translate(-6.81 -6.95)"/><text class="b03c0076-4c5e-4d97-a25b-a4eceb4ce5d6" transform="translate(0.97 602.22)">Fuente: Banco Mundial</text><text class="b03c0076-4c5e-4d97-a25b-a4eceb4ce5d6" transform="translate(494.97 602.22)">LA VANGUARDIA</text><line class="018924a3-ca12-43b3-9bf2-13e2ab564f50" x1="63.76" y1="554.05" x2="63.76" y2="38.25"/><path class="842a9168-d44e-45b0-a597-a41d768eef40" d="M61.06,575.17H60V568q0-.89.05-1.68l-.32.3L58.06,568l-.6-.78,2.65-2h1Z" transform="translate(-6.81 -6.95)"/><path class="842a9168-d44e-45b0-a597-a41d768eef40" d="M71.43,569.44q0,5.87-4.54,5.87a4.63,4.63,0,0,1-1.26-.14v-1a4,4,0,0,0,1.24.18,3,3,0,0,0,2.48-1,5.14,5.14,0,0,0,.91-3.11h-.08a2.43,2.43,0,0,1-1,.86,3.19,3.19,0,0,1-1.4.3,2.82,2.82,0,0,1-2.11-.79,3,3,0,0,1-.78-2.21,3.39,3.39,0,0,1,.87-2.46,3,3,0,0,1,2.29-.9,3.08,3.08,0,0,1,1.78.52A3.31,3.31,0,0,1,71,567.08,6.2,6.2,0,0,1,71.43,569.44ZM68.07,566a1.87,1.87,0,0,0-1.51.63,2.62,2.62,0,0,0-.53,1.75,2.27,2.27,0,0,0,.49,1.55,1.88,1.88,0,0,0,1.5.56,2.59,2.59,0,0,0,1.15-.25,2.07,2.07,0,0,0,.82-.69,1.59,1.59,0,0,0,.3-.92,3.13,3.13,0,0,0-.28-1.33,2.32,2.32,0,0,0-.78-1A2,2,0,0,0,68.07,566Z" transform="translate(-6.81 -6.95)"/><path class="842a9168-d44e-45b0-a597-a41d768eef40" d="M79.44,569.44q0,5.87-4.54,5.87a4.63,4.63,0,0,1-1.26-.14v-1a4,4,0,0,0,1.24.18,3,3,0,0,0,2.48-1,5.14,5.14,0,0,0,.91-3.11h-.08a2.43,2.43,0,0,1-1,.86,3.19,3.19,0,0,1-1.4.3,2.82,2.82,0,0,1-2.11-.79,3,3,0,0,1-.78-2.21,3.39,3.39,0,0,1,.87-2.46,3,3,0,0,1,2.29-.9,3.08,3.08,0,0,1,1.78.52A3.31,3.31,0,0,1,79,567.08,6.2,6.2,0,0,1,79.44,569.44ZM76.07,566a1.87,1.87,0,0,0-1.51.63,2.62,2.62,0,0,0-.53,1.75,2.27,2.27,0,0,0,.49,1.55,1.88,1.88,0,0,0,1.5.56,2.59,2.59,0,0,0,1.15-.25,2.07,2.07,0,0,0,.82-.69,1.59,1.59,0,0,0,.3-.92,3.13,3.13,0,0,0-.28-1.33,2.32,2.32,0,0,0-.78-1A2,2,0,0,0,76.07,566Z" transform="translate(-6.81 -6.95)"/><path class="842a9168-d44e-45b0-a597-a41d768eef40" d="M87.44,575.17H80.87v-1l2.63-2.65a19.38,19.38,0,0,0,1.59-1.74,4.43,4.43,0,0,0,.57-1,2.9,2.9,0,0,0,.19-1.06,1.68,1.68,0,0,0-.49-1.27A1.86,1.86,0,0,0,84,566a3.39,3.39,0,0,0-1.18.21,4.69,4.69,0,0,0-1.24.75l-.6-.77A4.61,4.61,0,0,1,84,565a3.17,3.17,0,0,1,2.21.72,2.48,2.48,0,0,1,.8,1.94,3.74,3.74,0,0,1-.53,1.88,11.94,11.94,0,0,1-2,2.35l-2.19,2.14v.05h5.14Z" transform="translate(-6.81 -6.95)"/><line class="018924a3-ca12-43b3-9bf2-13e2ab564f50" x1="105.15" y1="554.05" x2="105.15" y2="38.25"/><path class="842a9168-d44e-45b0-a597-a41d768eef40" d="M102.45,575.17h-1.11V568q0-.89.05-1.68l-.32.3L99.45,568l-.6-.78,2.65-2h1Z" transform="translate(-6.81 -6.95)"/><path class="842a9168-d44e-45b0-a597-a41d768eef40" d="M112.82,569.44q0,5.87-4.54,5.87a4.63,4.63,0,0,1-1.26-.14v-1a4,4,0,0,0,1.24.18,3,3,0,0,0,2.48-1,5.14,5.14,0,0,0,.91-3.11h-.08a2.43,2.43,0,0,1-1,.86,3.19,3.19,0,0,1-1.4.3,2.82,2.82,0,0,1-2.11-.79,3,3,0,0,1-.78-2.21,3.39,3.39,0,0,1,.87-2.46,3,3,0,0,1,2.29-.9,3.08,3.08,0,0,1,1.78.52,3.31,3.31,0,0,1,1.17,1.53A6.2,6.2,0,0,1,112.82,569.44ZM109.46,566a1.87,1.87,0,0,0-1.51.63,2.62,2.62,0,0,0-.53,1.75,2.27,2.27,0,0,0,.49,1.55,1.88,1.88,0,0,0,1.5.56,2.59,2.59,0,0,0,1.15-.25,2.07,2.07,0,0,0,.82-.69,1.59,1.59,0,0,0,.3-.92,3.13,3.13,0,0,0-.28-1.33,2.32,2.32,0,0,0-.78-1A2,2,0,0,0,109.46,566Z" transform="translate(-6.81 -6.95)"/><path class="842a9168-d44e-45b0-a597-a41d768eef40" d="M120.83,569.44q0,5.87-4.54,5.87a4.63,4.63,0,0,1-1.26-.14v-1a4,4,0,0,0,1.24.18,3,3,0,0,0,2.48-1,5.14,5.14,0,0,0,.91-3.11h-.08a2.43,2.43,0,0,1-1,.86,3.19,3.19,0,0,1-1.4.3,2.82,2.82,0,0,1-2.11-.79,3,3,0,0,1-.78-2.21,3.39,3.39,0,0,1,.87-2.46,3,3,0,0,1,2.29-.9,3.08,3.08,0,0,1,1.78.52,3.31,3.31,0,0,1,1.17,1.53A6.2,6.2,0,0,1,120.83,569.44ZM117.46,566a1.87,1.87,0,0,0-1.51.63,2.62,2.62,0,0,0-.53,1.75,2.27,2.27,0,0,0,.49,1.55,1.88,1.88,0,0,0,1.5.56,2.59,2.59,0,0,0,1.15-.25,2.07,2.07,0,0,0,.82-.69,1.59,1.59,0,0,0,.3-.92,3.13,3.13,0,0,0-.28-1.33,2.32,2.32,0,0,0-.78-1A2,2,0,0,0,117.46,566Z" transform="translate(-6.81 -6.95)"/><path class="842a9168-d44e-45b0-a597-a41d768eef40" d="M129.3,572.88h-1.48v2.3h-1.09v-2.3h-4.86v-1l4.74-6.76h1.2v6.72h1.48Zm-2.57-1v-3.32q0-1,.07-2.21h-.05a10.27,10.27,0,0,1-.62,1.09L123,571.84Z" transform="translate(-6.81 -6.95)"/><line class="018924a3-ca12-43b3-9bf2-13e2ab564f50" x1="146.54" y1="554.05" x2="146.54" y2="38.25"/><path class="842a9168-d44e-45b0-a597-a41d768eef40" d="M143.84,575.17h-1.11V568q0-.89.05-1.68l-.32.3L140.84,568l-.6-.78,2.65-2h1Z" transform="translate(-6.81 -6.95)"/><path class="842a9168-d44e-45b0-a597-a41d768eef40" d="M154.21,569.44q0,5.87-4.54,5.87a4.63,4.63,0,0,1-1.26-.14v-1a4,4,0,0,0,1.24.18,3,3,0,0,0,2.48-1,5.14,5.14,0,0,0,.91-3.11H153a2.43,2.43,0,0,1-1,.86,3.19,3.19,0,0,1-1.4.3,2.82,2.82,0,0,1-2.11-.79,3,3,0,0,1-.78-2.21,3.39,3.39,0,0,1,.87-2.46,3,3,0,0,1,2.29-.9,3.08,3.08,0,0,1,1.78.52,3.31,3.31,0,0,1,1.17,1.53A6.2,6.2,0,0,1,154.21,569.44ZM150.85,566a1.87,1.87,0,0,0-1.51.63,2.62,2.62,0,0,0-.53,1.75,2.27,2.27,0,0,0,.49,1.55,1.88,1.88,0,0,0,1.5.56,2.59,2.59,0,0,0,1.15-.25,2.07,2.07,0,0,0,.82-.69,1.59,1.59,0,0,0,.3-.92,3.13,3.13,0,0,0-.28-1.33,2.32,2.32,0,0,0-.78-1A2,2,0,0,0,150.85,566Z" transform="translate(-6.81 -6.95)"/><path class="842a9168-d44e-45b0-a597-a41d768eef40" d="M162.22,569.44q0,5.87-4.54,5.87a4.63,4.63,0,0,1-1.26-.14v-1a4,4,0,0,0,1.24.18,3,3,0,0,0,2.48-1,5.14,5.14,0,0,0,.91-3.11H161a2.43,2.43,0,0,1-1,.86,3.19,3.19,0,0,1-1.4.3,2.82,2.82,0,0,1-2.11-.79,3,3,0,0,1-.78-2.21,3.39,3.39,0,0,1,.87-2.46,3,3,0,0,1,2.29-.9,3.08,3.08,0,0,1,1.78.52,3.31,3.31,0,0,1,1.17,1.53A6.2,6.2,0,0,1,162.22,569.44ZM158.86,566a1.87,1.87,0,0,0-1.51.63,2.62,2.62,0,0,0-.53,1.75,2.27,2.27,0,0,0,.49,1.55,1.88,1.88,0,0,0,1.5.56,2.59,2.59,0,0,0,1.15-.25,2.07,2.07,0,0,0,.82-.69,1.59,1.59,0,0,0,.3-.92,3.13,3.13,0,0,0-.28-1.33,2.32,2.32,0,0,0-.78-1A2,2,0,0,0,158.86,566Z" transform="translate(-6.81 -6.95)"/><path class="842a9168-d44e-45b0-a597-a41d768eef40" d="M163.77,570.9a7.07,7.07,0,0,1,1.15-4.41A4,4,0,0,1,168.3,565a4.5,4.5,0,0,1,1.22.13v1a3.88,3.88,0,0,0-1.2-.17,3,3,0,0,0-2.45,1,5.13,5.13,0,0,0-.93,3.15H165a2.62,2.62,0,0,1,2.38-1.18,2.79,2.79,0,0,1,2.12.81,3.07,3.07,0,0,1,.78,2.21,3.4,3.4,0,0,1-.85,2.45,3,3,0,0,1-2.3.89,3,3,0,0,1-2.46-1.17A5.15,5.15,0,0,1,163.77,570.9Zm3.36,3.45a1.9,1.9,0,0,0,1.51-.61,2.6,2.6,0,0,0,.54-1.77,2.28,2.28,0,0,0-.5-1.56,1.88,1.88,0,0,0-1.49-.57,2.51,2.51,0,0,0-1.13.25,2.09,2.09,0,0,0-.82.7,1.61,1.61,0,0,0-.3.92,3.16,3.16,0,0,0,.27,1.31,2.32,2.32,0,0,0,.78,1A1.93,1.93,0,0,0,167.13,574.34Z" transform="translate(-6.81 -6.95)"/><line class="018924a3-ca12-43b3-9bf2-13e2ab564f50" x1="187.94" y1="554.05" x2="187.94" y2="38.25"/><path class="842a9168-d44e-45b0-a597-a41d768eef40" d="M185.24,575.17h-1.11V568q0-.89.05-1.68l-.32.3L182.23,568l-.6-.78,2.65-2h1Z" transform="translate(-6.81 -6.95)"/><path class="842a9168-d44e-45b0-a597-a41d768eef40" d="M195.61,569.44q0,5.87-4.54,5.87a4.63,4.63,0,0,1-1.26-.14v-1a4,4,0,0,0,1.24.18,3,3,0,0,0,2.48-1,5.14,5.14,0,0,0,.91-3.11h-.08a2.43,2.43,0,0,1-1,.86,3.19,3.19,0,0,1-1.4.3,2.82,2.82,0,0,1-2.11-.79,3,3,0,0,1-.78-2.21,3.39,3.39,0,0,1,.87-2.46,3,3,0,0,1,2.29-.9,3.08,3.08,0,0,1,1.78.52,3.31,3.31,0,0,1,1.17,1.53A6.2,6.2,0,0,1,195.61,569.44ZM192.24,566a1.87,1.87,0,0,0-1.51.63,2.62,2.62,0,0,0-.53,1.75,2.27,2.27,0,0,0,.49,1.55,1.88,1.88,0,0,0,1.5.56,2.59,2.59,0,0,0,1.15-.25,2.07,2.07,0,0,0,.82-.69,1.59,1.59,0,0,0,.3-.92,3.13,3.13,0,0,0-.28-1.33,2.32,2.32,0,0,0-.78-1A2,2,0,0,0,192.24,566Z" transform="translate(-6.81 -6.95)"/><path class="842a9168-d44e-45b0-a597-a41d768eef40" d="M203.61,569.44q0,5.87-4.54,5.87a4.63,4.63,0,0,1-1.26-.14v-1a4,4,0,0,0,1.24.18,3,3,0,0,0,2.48-1,5.14,5.14,0,0,0,.91-3.11h-.08a2.43,2.43,0,0,1-1,.86,3.19,3.19,0,0,1-1.4.3,2.82,2.82,0,0,1-2.11-.79,3,3,0,0,1-.78-2.21,3.39,3.39,0,0,1,.87-2.46,3,3,0,0,1,2.29-.9,3.08,3.08,0,0,1,1.78.52,3.31,3.31,0,0,1,1.17,1.53A6.2,6.2,0,0,1,203.61,569.44ZM200.25,566a1.87,1.87,0,0,0-1.51.63,2.62,2.62,0,0,0-.53,1.75,2.27,2.27,0,0,0,.49,1.55,1.88,1.88,0,0,0,1.5.56,2.59,2.59,0,0,0,1.15-.25,2.07,2.07,0,0,0,.82-.69,1.59,1.59,0,0,0,.3-.92,3.13,3.13,0,0,0-.28-1.33,2.32,2.32,0,0,0-.78-1A2,2,0,0,0,200.25,566Z" transform="translate(-6.81 -6.95)"/><path class="842a9168-d44e-45b0-a597-a41d768eef40" d="M208.35,565a3.39,3.39,0,0,1,2.17.64,2.12,2.12,0,0,1,.8,1.76,2.19,2.19,0,0,1-.46,1.35,4.05,4.05,0,0,1-1.46,1.11,4.92,4.92,0,0,1,1.73,1.22,2.3,2.3,0,0,1,.51,1.48,2.48,2.48,0,0,1-.87,2,3.54,3.54,0,0,1-2.38.74,3.81,3.81,0,0,1-2.46-.7,2.41,2.41,0,0,1-.86-2q0-1.72,2.09-2.67a3.86,3.86,0,0,1-1.35-1.15,2.45,2.45,0,0,1-.41-1.38,2.11,2.11,0,0,1,.8-1.73A3.34,3.34,0,0,1,208.35,565Zm-2.16,7.62a1.55,1.55,0,0,0,.57,1.28,2.5,2.5,0,0,0,1.6.46,2.39,2.39,0,0,0,1.59-.48,1.63,1.63,0,0,0,.57-1.31,1.6,1.6,0,0,0-.53-1.18,5.42,5.42,0,0,0-1.86-1,4.06,4.06,0,0,0-1.48,1A1.88,1.88,0,0,0,206.19,572.65Zm2.15-6.69a2,2,0,0,0-1.34.41,1.36,1.36,0,0,0-.49,1.09,1.57,1.57,0,0,0,.4,1.08,4.21,4.21,0,0,0,1.49.9,3.73,3.73,0,0,0,1.38-.88,1.63,1.63,0,0,0,.41-1.1,1.35,1.35,0,0,0-.5-1.1A2.09,2.09,0,0,0,208.34,566Z" transform="translate(-6.81 -6.95)"/><line class="018924a3-ca12-43b3-9bf2-13e2ab564f50" x1="229.33" y1="554.05" x2="229.33" y2="38.25"/><path class="842a9168-d44e-45b0-a597-a41d768eef40" d="M231.68,575.17h-6.57v-1l2.63-2.65a19.38,19.38,0,0,0,1.59-1.74,4.43,4.43,0,0,0,.57-1,2.9,2.9,0,0,0,.19-1.06,1.68,1.68,0,0,0-.49-1.27,1.86,1.86,0,0,0-1.35-.47,3.39,3.39,0,0,0-1.18.21,4.69,4.69,0,0,0-1.24.75l-.6-.77a4.61,4.61,0,0,1,3-1.15,3.17,3.17,0,0,1,2.21.72,2.48,2.48,0,0,1,.8,1.94,3.74,3.74,0,0,1-.53,1.88,11.94,11.94,0,0,1-2,2.35l-2.19,2.14v.05h5.14Z" transform="translate(-6.81 -6.95)"/><path class="842a9168-d44e-45b0-a597-a41d768eef40" d="M239.74,570.16a7.3,7.3,0,0,1-.82,3.87,3,3,0,0,1-5,0,7.16,7.16,0,0,1-.84-3.84,7.29,7.29,0,0,1,.81-3.88,3,3,0,0,1,5,.05A7.12,7.12,0,0,1,239.74,570.16Zm-5.46,0a7.31,7.31,0,0,0,.51,3.17,1.84,1.84,0,0,0,3.28,0,10,10,0,0,0,0-6.32,1.85,1.85,0,0,0-3.28,0A7.27,7.27,0,0,0,234.28,570.16Z" transform="translate(-6.81 -6.95)"/><path class="842a9168-d44e-45b0-a597-a41d768eef40" d="M247.74,570.16a7.3,7.3,0,0,1-.82,3.87,3,3,0,0,1-5,0,7.16,7.16,0,0,1-.84-3.84,7.29,7.29,0,0,1,.81-3.88,3,3,0,0,1,5,.05A7.12,7.12,0,0,1,247.74,570.16Zm-5.46,0a7.31,7.31,0,0,0,.51,3.17,1.84,1.84,0,0,0,3.28,0,10,10,0,0,0,0-6.32,1.85,1.85,0,0,0-3.28,0A7.27,7.27,0,0,0,242.28,570.16Z" transform="translate(-6.81 -6.95)"/><path class="842a9168-d44e-45b0-a597-a41d768eef40" d="M255.75,570.16a7.3,7.3,0,0,1-.82,3.87,3,3,0,0,1-5,0,7.16,7.16,0,0,1-.84-3.84,7.29,7.29,0,0,1,.81-3.88,3,3,0,0,1,5,.05A7.12,7.12,0,0,1,255.75,570.16Zm-5.46,0a7.31,7.31,0,0,0,.51,3.17,1.84,1.84,0,0,0,3.28,0,10,10,0,0,0,0-6.32,1.85,1.85,0,0,0-3.28,0A7.27,7.27,0,0,0,250.29,570.16Z" transform="translate(-6.81 -6.95)"/><line class="018924a3-ca12-43b3-9bf2-13e2ab564f50" x1="270.72" y1="554.05" x2="270.72" y2="38.25"/><path class="842a9168-d44e-45b0-a597-a41d768eef40" d="M270.38,575.17h-6.57v-1l2.63-2.65a19.38,19.38,0,0,0,1.59-1.74,4.43,4.43,0,0,0,.57-1,2.9,2.9,0,0,0,.19-1.06,1.68,1.68,0,0,0-.49-1.27A1.86,1.86,0,0,0,267,566a3.39,3.39,0,0,0-1.18.21,4.69,4.69,0,0,0-1.24.75l-.6-.77a4.61,4.61,0,0,1,3-1.15,3.17,3.17,0,0,1,2.21.72,2.48,2.48,0,0,1,.8,1.94,3.74,3.74,0,0,1-.53,1.88,11.94,11.94,0,0,1-2,2.35l-2.19,2.14v.05h5.14Z" transform="translate(-6.81 -6.95)"/><path class="842a9168-d44e-45b0-a597-a41d768eef40" d="M278.44,570.16a7.3,7.3,0,0,1-.82,3.87,3,3,0,0,1-5,0,7.16,7.16,0,0,1-.84-3.84,7.29,7.29,0,0,1,.81-3.88,3,3,0,0,1,5,.05A7.12,7.12,0,0,1,278.44,570.16Zm-5.46,0a7.31,7.31,0,0,0,.51,3.17,1.84,1.84,0,0,0,3.28,0,10,10,0,0,0,0-6.32,1.85,1.85,0,0,0-3.28,0A7.27,7.27,0,0,0,273,570.16Z" transform="translate(-6.81 -6.95)"/><path class="842a9168-d44e-45b0-a597-a41d768eef40" d="M286.45,570.16a7.3,7.3,0,0,1-.82,3.87,3,3,0,0,1-5,0,7.16,7.16,0,0,1-.84-3.84,7.29,7.29,0,0,1,.81-3.88,3,3,0,0,1,5,.05A7.12,7.12,0,0,1,286.45,570.16Zm-5.46,0a7.31,7.31,0,0,0,.51,3.17,1.84,1.84,0,0,0,3.28,0,10,10,0,0,0,0-6.32,1.85,1.85,0,0,0-3.28,0A7.27,7.27,0,0,0,281,570.16Z" transform="translate(-6.81 -6.95)"/><path class="842a9168-d44e-45b0-a597-a41d768eef40" d="M294.4,575.17h-6.57v-1l2.63-2.65a19.38,19.38,0,0,0,1.59-1.74,4.43,4.43,0,0,0,.57-1,2.9,2.9,0,0,0,.19-1.06,1.68,1.68,0,0,0-.49-1.27A1.86,1.86,0,0,0,291,566a3.39,3.39,0,0,0-1.18.21,4.69,4.69,0,0,0-1.24.75l-.6-.77a4.61,4.61,0,0,1,3-1.15,3.17,3.17,0,0,1,2.21.72,2.48,2.48,0,0,1,.8,1.94,3.74,3.74,0,0,1-.53,1.88,11.94,11.94,0,0,1-2,2.35l-2.19,2.14v.05h5.14Z" transform="translate(-6.81 -6.95)"/><line class="018924a3-ca12-43b3-9bf2-13e2ab564f50" x1="312.11" y1="554.05" x2="312.11" y2="38.25"/><path class="842a9168-d44e-45b0-a597-a41d768eef40" d="M311.78,575.17h-6.57v-1l2.63-2.65a19.38,19.38,0,0,0,1.59-1.74,4.46,4.46,0,0,0,.57-1,2.89,2.89,0,0,0,.19-1.06,1.68,1.68,0,0,0-.49-1.27,1.86,1.86,0,0,0-1.35-.47,3.38,3.38,0,0,0-1.18.21,4.69,4.69,0,0,0-1.24.75l-.6-.77a4.61,4.61,0,0,1,3-1.15,3.18,3.18,0,0,1,2.21.72,2.48,2.48,0,0,1,.8,1.94,3.74,3.74,0,0,1-.53,1.88,11.92,11.92,0,0,1-2,2.35l-2.19,2.14v.05h5.14Z" transform="translate(-6.81 -6.95)"/><path class="842a9168-d44e-45b0-a597-a41d768eef40" d="M319.84,570.16A7.29,7.29,0,0,1,319,574a3,3,0,0,1-5,0,7.16,7.16,0,0,1-.84-3.84,7.3,7.3,0,0,1,.81-3.88,3,3,0,0,1,5,.05A7.12,7.12,0,0,1,319.84,570.16Zm-5.46,0a7.31,7.31,0,0,0,.51,3.17,1.84,1.84,0,0,0,3.28,0,10.06,10.06,0,0,0,0-6.32,1.85,1.85,0,0,0-3.28,0A7.27,7.27,0,0,0,314.37,570.16Z" transform="translate(-6.81 -6.95)"/><path class="842a9168-d44e-45b0-a597-a41d768eef40" d="M327.84,570.16A7.29,7.29,0,0,1,327,574a3,3,0,0,1-5,0,7.16,7.16,0,0,1-.84-3.84,7.3,7.3,0,0,1,.81-3.88,3,3,0,0,1,5,.05A7.12,7.12,0,0,1,327.84,570.16Zm-5.46,0a7.31,7.31,0,0,0,.51,3.17,1.84,1.84,0,0,0,3.28,0,10.06,10.06,0,0,0,0-6.32,1.85,1.85,0,0,0-3.28,0A7.27,7.27,0,0,0,322.38,570.16Z" transform="translate(-6.81 -6.95)"/><path class="842a9168-d44e-45b0-a597-a41d768eef40" d="M336.26,572.88h-1.48v2.3h-1.09v-2.3h-4.86v-1l4.74-6.76h1.2v6.72h1.48Zm-2.57-1v-3.32q0-1,.07-2.21h-.05a10.27,10.27,0,0,1-.62,1.09L330,571.84Z" transform="translate(-6.81 -6.95)"/><line class="018924a3-ca12-43b3-9bf2-13e2ab564f50" x1="353.5" y1="554.05" x2="353.5" y2="38.25"/><path class="842a9168-d44e-45b0-a597-a41d768eef40" d="M353.17,575.17H346.6v-1l2.63-2.65a19.38,19.38,0,0,0,1.59-1.74,4.46,4.46,0,0,0,.57-1,2.89,2.89,0,0,0,.19-1.06,1.68,1.68,0,0,0-.49-1.27,1.86,1.86,0,0,0-1.35-.47,3.38,3.38,0,0,0-1.18.21,4.69,4.69,0,0,0-1.24.75l-.6-.77a4.61,4.61,0,0,1,3-1.15,3.18,3.18,0,0,1,2.21.72,2.48,2.48,0,0,1,.8,1.94,3.74,3.74,0,0,1-.53,1.88,11.92,11.92,0,0,1-2,2.35L348,574.06v.05h5.14Z" transform="translate(-6.81 -6.95)"/><path class="842a9168-d44e-45b0-a597-a41d768eef40" d="M361.23,570.16a7.29,7.29,0,0,1-.82,3.87,3,3,0,0,1-5,0,7.16,7.16,0,0,1-.84-3.84,7.3,7.3,0,0,1,.81-3.88,3,3,0,0,1,5,.05A7.12,7.12,0,0,1,361.23,570.16Zm-5.46,0a7.31,7.31,0,0,0,.51,3.17,1.84,1.84,0,0,0,3.28,0,10.06,10.06,0,0,0,0-6.32,1.85,1.85,0,0,0-3.28,0A7.27,7.27,0,0,0,355.77,570.16Z" transform="translate(-6.81 -6.95)"/><path class="842a9168-d44e-45b0-a597-a41d768eef40" d="M369.23,570.16a7.29,7.29,0,0,1-.82,3.87,3,3,0,0,1-5,0,7.16,7.16,0,0,1-.84-3.84,7.3,7.3,0,0,1,.81-3.88,3,3,0,0,1,5,.05A7.12,7.12,0,0,1,369.23,570.16Zm-5.46,0a7.31,7.31,0,0,0,.51,3.17,1.84,1.84,0,0,0,3.28,0,10.06,10.06,0,0,0,0-6.32,1.85,1.85,0,0,0-3.28,0A7.27,7.27,0,0,0,363.77,570.16Z" transform="translate(-6.81 -6.95)"/><path class="842a9168-d44e-45b0-a597-a41d768eef40" d="M370.73,570.9a7.07,7.07,0,0,1,1.15-4.41,4,4,0,0,1,3.39-1.46,4.5,4.5,0,0,1,1.22.13v1a3.88,3.88,0,0,0-1.2-.17,3,3,0,0,0-2.45,1,5.13,5.13,0,0,0-.93,3.15H372a2.62,2.62,0,0,1,2.38-1.18,2.79,2.79,0,0,1,2.12.81,3.07,3.07,0,0,1,.78,2.21,3.41,3.41,0,0,1-.85,2.45,3,3,0,0,1-2.3.89,3,3,0,0,1-2.46-1.17A5.15,5.15,0,0,1,370.73,570.9Zm3.36,3.45a1.9,1.9,0,0,0,1.51-.61,2.6,2.6,0,0,0,.54-1.77,2.28,2.28,0,0,0-.5-1.56,1.88,1.88,0,0,0-1.49-.57,2.51,2.51,0,0,0-1.13.25,2.1,2.1,0,0,0-.82.7,1.61,1.61,0,0,0-.3.92,3.16,3.16,0,0,0,.27,1.31,2.31,2.31,0,0,0,.78,1A1.93,1.93,0,0,0,374.09,574.34Z" transform="translate(-6.81 -6.95)"/><line class="018924a3-ca12-43b3-9bf2-13e2ab564f50" x1="394.89" y1="554.05" x2="394.89" y2="38.25"/><path class="842a9168-d44e-45b0-a597-a41d768eef40" d="M394.56,575.17H388v-1l2.63-2.65a19.38,19.38,0,0,0,1.59-1.74,4.46,4.46,0,0,0,.57-1,2.89,2.89,0,0,0,.19-1.06,1.68,1.68,0,0,0-.49-1.27,1.86,1.86,0,0,0-1.35-.47,3.38,3.38,0,0,0-1.18.21,4.69,4.69,0,0,0-1.24.75l-.6-.77a4.61,4.61,0,0,1,3-1.15,3.18,3.18,0,0,1,2.21.72,2.48,2.48,0,0,1,.8,1.94,3.74,3.74,0,0,1-.53,1.88,11.92,11.92,0,0,1-2,2.35l-2.19,2.14v.05h5.14Z" transform="translate(-6.81 -6.95)"/><path class="842a9168-d44e-45b0-a597-a41d768eef40" d="M402.62,570.16a7.29,7.29,0,0,1-.82,3.87,3,3,0,0,1-5,0,7.16,7.16,0,0,1-.84-3.84,7.3,7.3,0,0,1,.81-3.88,3,3,0,0,1,5,.05A7.12,7.12,0,0,1,402.62,570.16Zm-5.46,0a7.31,7.31,0,0,0,.51,3.17,1.84,1.84,0,0,0,3.28,0,10.06,10.06,0,0,0,0-6.32,1.85,1.85,0,0,0-3.28,0A7.27,7.27,0,0,0,397.16,570.16Z" transform="translate(-6.81 -6.95)"/><path class="842a9168-d44e-45b0-a597-a41d768eef40" d="M410.63,570.16a7.29,7.29,0,0,1-.82,3.87,3,3,0,0,1-5,0,7.16,7.16,0,0,1-.84-3.84,7.3,7.3,0,0,1,.81-3.88,3,3,0,0,1,5,.05A7.12,7.12,0,0,1,410.63,570.16Zm-5.46,0a7.31,7.31,0,0,0,.51,3.17,1.84,1.84,0,0,0,3.28,0,10.06,10.06,0,0,0,0-6.32,1.85,1.85,0,0,0-3.28,0A7.27,7.27,0,0,0,405.16,570.16Z" transform="translate(-6.81 -6.95)"/><path class="842a9168-d44e-45b0-a597-a41d768eef40" d="M415.31,565a3.39,3.39,0,0,1,2.17.64,2.12,2.12,0,0,1,.8,1.76,2.18,2.18,0,0,1-.46,1.35,4.06,4.06,0,0,1-1.46,1.11,4.91,4.91,0,0,1,1.73,1.22,2.3,2.3,0,0,1,.51,1.48,2.48,2.48,0,0,1-.87,2,3.54,3.54,0,0,1-2.38.74,3.81,3.81,0,0,1-2.46-.7,2.41,2.41,0,0,1-.86-2q0-1.72,2.09-2.67a3.86,3.86,0,0,1-1.35-1.15,2.45,2.45,0,0,1-.41-1.38,2.11,2.11,0,0,1,.8-1.73A3.34,3.34,0,0,1,415.31,565Zm-2.16,7.62a1.55,1.55,0,0,0,.57,1.28,2.5,2.5,0,0,0,1.6.46,2.39,2.39,0,0,0,1.59-.48,1.63,1.63,0,0,0,.57-1.31,1.6,1.6,0,0,0-.53-1.18,5.43,5.43,0,0,0-1.86-1,4.06,4.06,0,0,0-1.48,1A1.87,1.87,0,0,0,413.15,572.65ZM415.3,566a2,2,0,0,0-1.34.41,1.36,1.36,0,0,0-.49,1.09,1.57,1.57,0,0,0,.4,1.08,4.21,4.21,0,0,0,1.49.9,3.74,3.74,0,0,0,1.38-.88,1.64,1.64,0,0,0,.41-1.1,1.35,1.35,0,0,0-.5-1.1A2.09,2.09,0,0,0,415.3,566Z" transform="translate(-6.81 -6.95)"/><line class="018924a3-ca12-43b3-9bf2-13e2ab564f50" x1="436.29" y1="554.05" x2="436.29" y2="38.25"/><path class="842a9168-d44e-45b0-a597-a41d768eef40" d="M436,575.17h-6.57v-1l2.63-2.65a19.38,19.38,0,0,0,1.59-1.74,4.46,4.46,0,0,0,.57-1,2.89,2.89,0,0,0,.19-1.06,1.68,1.68,0,0,0-.49-1.27,1.86,1.86,0,0,0-1.35-.47,3.38,3.38,0,0,0-1.18.21,4.69,4.69,0,0,0-1.24.75l-.6-.77a4.61,4.61,0,0,1,3-1.15,3.18,3.18,0,0,1,2.21.72,2.48,2.48,0,0,1,.8,1.94,3.74,3.74,0,0,1-.53,1.88,11.92,11.92,0,0,1-2,2.35l-2.19,2.14v.05H436Z" transform="translate(-6.81 -6.95)"/><path class="842a9168-d44e-45b0-a597-a41d768eef40" d="M444,570.16a7.29,7.29,0,0,1-.82,3.87,3,3,0,0,1-5,0,7.16,7.16,0,0,1-.84-3.84,7.3,7.3,0,0,1,.81-3.88,3,3,0,0,1,5,.05A7.12,7.12,0,0,1,444,570.16Zm-5.46,0a7.31,7.31,0,0,0,.51,3.17,1.84,1.84,0,0,0,3.28,0,10.06,10.06,0,0,0,0-6.32,1.85,1.85,0,0,0-3.28,0A7.27,7.27,0,0,0,438.55,570.16Z" transform="translate(-6.81 -6.95)"/><path class="842a9168-d44e-45b0-a597-a41d768eef40" d="M449.6,575.17h-1.11V568q0-.89.05-1.68l-.32.3L446.6,568l-.6-.78,2.65-2h1Z" transform="translate(-6.81 -6.95)"/><path class="842a9168-d44e-45b0-a597-a41d768eef40" d="M460,570.16a7.29,7.29,0,0,1-.82,3.87,3,3,0,0,1-5,0,7.16,7.16,0,0,1-.84-3.84,7.3,7.3,0,0,1,.81-3.88,3,3,0,0,1,5,.05A7.12,7.12,0,0,1,460,570.16Zm-5.46,0a7.31,7.31,0,0,0,.51,3.17,1.84,1.84,0,0,0,3.28,0,10.06,10.06,0,0,0,0-6.32,1.85,1.85,0,0,0-3.28,0A7.27,7.27,0,0,0,454.56,570.16Z" transform="translate(-6.81 -6.95)"/><line class="018924a3-ca12-43b3-9bf2-13e2ab564f50" x1="477.68" y1="554.05" x2="477.68" y2="38.25"/><path class="842a9168-d44e-45b0-a597-a41d768eef40" d="M477.34,575.17h-6.57v-1l2.63-2.65a19.38,19.38,0,0,0,1.59-1.74,4.46,4.46,0,0,0,.57-1,2.89,2.89,0,0,0,.19-1.06,1.68,1.68,0,0,0-.49-1.27,1.86,1.86,0,0,0-1.35-.47,3.38,3.38,0,0,0-1.18.21,4.69,4.69,0,0,0-1.24.75l-.6-.77a4.61,4.61,0,0,1,3-1.15,3.18,3.18,0,0,1,2.21.72,2.48,2.48,0,0,1,.8,1.94,3.74,3.74,0,0,1-.53,1.88,11.92,11.92,0,0,1-2,2.35l-2.19,2.14v.05h5.14Z" transform="translate(-6.81 -6.95)"/><path class="842a9168-d44e-45b0-a597-a41d768eef40" d="M485.4,570.16a7.29,7.29,0,0,1-.82,3.87,3,3,0,0,1-5,0,7.16,7.16,0,0,1-.84-3.84,7.3,7.3,0,0,1,.81-3.88,3,3,0,0,1,5,.05A7.12,7.12,0,0,1,485.4,570.16Zm-5.46,0a7.31,7.31,0,0,0,.51,3.17,1.84,1.84,0,0,0,3.28,0,10.06,10.06,0,0,0,0-6.32,1.85,1.85,0,0,0-3.28,0A7.27,7.27,0,0,0,479.94,570.16Z" transform="translate(-6.81 -6.95)"/><path class="842a9168-d44e-45b0-a597-a41d768eef40" d="M491,575.17h-1.11V568q0-.89.05-1.68l-.32.3L488,568l-.6-.78,2.65-2h1Z" transform="translate(-6.81 -6.95)"/><path class="842a9168-d44e-45b0-a597-a41d768eef40" d="M501.36,575.17h-6.57v-1l2.63-2.65a19.38,19.38,0,0,0,1.59-1.74,4.46,4.46,0,0,0,.57-1,2.89,2.89,0,0,0,.19-1.06,1.68,1.68,0,0,0-.49-1.27,1.86,1.86,0,0,0-1.35-.47,3.38,3.38,0,0,0-1.18.21,4.69,4.69,0,0,0-1.24.75l-.6-.77a4.61,4.61,0,0,1,3-1.15,3.18,3.18,0,0,1,2.21.72,2.48,2.48,0,0,1,.8,1.94,3.74,3.74,0,0,1-.53,1.88,11.92,11.92,0,0,1-2,2.35l-2.19,2.14v.05h5.14Z" transform="translate(-6.81 -6.95)"/><line class="018924a3-ca12-43b3-9bf2-13e2ab564f50" x1="519.07" y1="554.05" x2="519.07" y2="38.25"/><path class="842a9168-d44e-45b0-a597-a41d768eef40" d="M518.74,575.17h-6.57v-1l2.63-2.65a19.38,19.38,0,0,0,1.59-1.74,4.46,4.46,0,0,0,.57-1,2.89,2.89,0,0,0,.19-1.06,1.68,1.68,0,0,0-.49-1.27,1.86,1.86,0,0,0-1.35-.47,3.38,3.38,0,0,0-1.18.21,4.69,4.69,0,0,0-1.24.75l-.6-.77a4.61,4.61,0,0,1,3-1.15,3.18,3.18,0,0,1,2.21.72,2.48,2.48,0,0,1,.8,1.94,3.74,3.74,0,0,1-.53,1.88,11.92,11.92,0,0,1-2,2.35l-2.19,2.14v.05h5.14Z" transform="translate(-6.81 -6.95)"/><path class="842a9168-d44e-45b0-a597-a41d768eef40" d="M526.79,570.16A7.29,7.29,0,0,1,526,574a3,3,0,0,1-5,0,7.16,7.16,0,0,1-.84-3.84,7.3,7.3,0,0,1,.81-3.88,3,3,0,0,1,5,.05A7.12,7.12,0,0,1,526.79,570.16Zm-5.46,0a7.31,7.31,0,0,0,.51,3.17,1.84,1.84,0,0,0,3.28,0,10.06,10.06,0,0,0,0-6.32,1.85,1.85,0,0,0-3.28,0A7.27,7.27,0,0,0,521.33,570.16Z" transform="translate(-6.81 -6.95)"/><path class="842a9168-d44e-45b0-a597-a41d768eef40" d="M532.38,575.17h-1.11V568q0-.89.05-1.68l-.32.3L529.38,568l-.6-.78,2.65-2h1Z" transform="translate(-6.81 -6.95)"/><path class="842a9168-d44e-45b0-a597-a41d768eef40" d="M543.22,572.88h-1.48v2.3h-1.09v-2.3h-4.86v-1l4.74-6.76h1.2v6.72h1.48Zm-2.57-1v-3.32q0-1,.07-2.21h-.05a10.27,10.27,0,0,1-.62,1.09l-3.12,4.44Z" transform="translate(-6.81 -6.95)"/><line class="018924a3-ca12-43b3-9bf2-13e2ab564f50" x1="560.46" y1="554.05" x2="560.46" y2="38.25"/><path class="842a9168-d44e-45b0-a597-a41d768eef40" d="M560.13,575.17h-6.57v-1l2.63-2.65a19.38,19.38,0,0,0,1.59-1.74,4.46,4.46,0,0,0,.57-1,2.89,2.89,0,0,0,.19-1.06,1.68,1.68,0,0,0-.49-1.27,1.86,1.86,0,0,0-1.35-.47,3.38,3.38,0,0,0-1.18.21,4.69,4.69,0,0,0-1.24.75l-.6-.77a4.61,4.61,0,0,1,3-1.15,3.18,3.18,0,0,1,2.21.72,2.48,2.48,0,0,1,.8,1.94,3.74,3.74,0,0,1-.53,1.88,11.92,11.92,0,0,1-2,2.35L555,574.06v.05h5.14Z" transform="translate(-6.81 -6.95)"/><path class="842a9168-d44e-45b0-a597-a41d768eef40" d="M568.19,570.16a7.29,7.29,0,0,1-.82,3.87,3,3,0,0,1-5,0,7.16,7.16,0,0,1-.84-3.84,7.3,7.3,0,0,1,.81-3.88,3,3,0,0,1,5,.05A7.12,7.12,0,0,1,568.19,570.16Zm-5.46,0a7.31,7.31,0,0,0,.51,3.17,1.84,1.84,0,0,0,3.28,0,10.06,10.06,0,0,0,0-6.32,1.85,1.85,0,0,0-3.28,0A7.27,7.27,0,0,0,562.72,570.16Z" transform="translate(-6.81 -6.95)"/><path class="842a9168-d44e-45b0-a597-a41d768eef40" d="M573.77,575.17h-1.11V568q0-.89.05-1.68l-.32.3L570.77,568l-.6-.78,2.65-2h1Z" transform="translate(-6.81 -6.95)"/><path class="842a9168-d44e-45b0-a597-a41d768eef40" d="M577.69,570.9a7.07,7.07,0,0,1,1.15-4.41,4,4,0,0,1,3.39-1.46,4.5,4.5,0,0,1,1.22.13v1a3.88,3.88,0,0,0-1.2-.17,3,3,0,0,0-2.45,1,5.13,5.13,0,0,0-.93,3.15h.08a2.62,2.62,0,0,1,2.38-1.18,2.79,2.79,0,0,1,2.12.81,3.07,3.07,0,0,1,.78,2.21,3.41,3.41,0,0,1-.85,2.45,3,3,0,0,1-2.3.89,3,3,0,0,1-2.46-1.17A5.15,5.15,0,0,1,577.69,570.9Zm3.36,3.45a1.9,1.9,0,0,0,1.51-.61,2.6,2.6,0,0,0,.54-1.77,2.28,2.28,0,0,0-.5-1.56,1.88,1.88,0,0,0-1.49-.57,2.51,2.51,0,0,0-1.13.25,2.1,2.1,0,0,0-.82.7,1.61,1.61,0,0,0-.3.92,3.16,3.16,0,0,0,.27,1.31,2.31,2.31,0,0,0,.78,1A1.93,1.93,0,0,0,581,574.34Z" transform="translate(-6.81 -6.95)"/><g class="1f2192d3-7dcf-40a3-90e5-d9c7ed1a9cbe"><path class="842a9168-d44e-45b0-a597-a41d768eef40" d="M599.13,44.17h-6.57v-1l2.63-2.65a19.38,19.38,0,0,0,1.59-1.74,4.46,4.46,0,0,0,.57-1,2.89,2.89,0,0,0,.19-1.06,1.68,1.68,0,0,0-.49-1.27,1.86,1.86,0,0,0-1.35-.47,3.38,3.38,0,0,0-1.18.21,4.69,4.69,0,0,0-1.24.75l-.6-.77a4.61,4.61,0,0,1,3-1.15,3.18,3.18,0,0,1,2.21.72,2.48,2.48,0,0,1,.8,1.94,3.74,3.74,0,0,1-.53,1.88,11.92,11.92,0,0,1-2,2.35L594,43.06v.05h5.14Z" transform="translate(-6.81 -6.95)"/><path class="842a9168-d44e-45b0-a597-a41d768eef40" d="M602.27,42.54l.1.16q-.18.68-.51,1.59t-.7,1.69h-.85q.18-.71.41-1.76t.31-1.67Z" transform="translate(-6.81 -6.95)"/><path class="842a9168-d44e-45b0-a597-a41d768eef40" d="M607.12,38.07a3.68,3.68,0,0,1,2.49.78,2.69,2.69,0,0,1,.91,2.14,3.1,3.1,0,0,1-1,2.43,4,4,0,0,1-2.72.88,5,5,0,0,1-2.58-.54V42.67a3.9,3.9,0,0,0,1.19.48,5.82,5.82,0,0,0,1.4.17,2.8,2.8,0,0,0,1.87-.57,2,2,0,0,0,.67-1.64q0-2.09-2.56-2.09a10.24,10.24,0,0,0-1.74.2l-.59-.38.38-4.68h5v1h-4l-.25,3A8,8,0,0,1,607.12,38.07Z" transform="translate(-6.81 -6.95)"/></g><path class="842a9168-d44e-45b0-a597-a41d768eef40" d="M597.76,410.17h-1.11V403q0-.89.05-1.68l-.32.3L594.76,403l-.6-.78,2.65-2h1Z" transform="translate(-6.81 -6.95)"/><path class="842a9168-d44e-45b0-a597-a41d768eef40" d="M604.69,404.07a3.68,3.68,0,0,1,2.49.78,2.69,2.69,0,0,1,.91,2.14,3.1,3.1,0,0,1-1,2.43,4,4,0,0,1-2.72.88,5,5,0,0,1-2.58-.54v-1.09a3.9,3.9,0,0,0,1.19.48,5.82,5.82,0,0,0,1.4.17,2.8,2.8,0,0,0,1.87-.57,2,2,0,0,0,.67-1.64q0-2.09-2.56-2.09a10.24,10.24,0,0,0-1.74.2l-.59-.38.38-4.68h5v1h-4l-.25,3A8,8,0,0,1,604.69,404.07Z" transform="translate(-6.81 -6.95)"/><path class="842a9168-d44e-45b0-a597-a41d768eef40" d="M616.19,405.16a7.29,7.29,0,0,1-.82,3.87,3,3,0,0,1-5,0,7.16,7.16,0,0,1-.84-3.84,7.3,7.3,0,0,1,.81-3.88,3,3,0,0,1,5,.05A7.12,7.12,0,0,1,616.19,405.16Zm-5.46,0a7.31,7.31,0,0,0,.51,3.17,1.84,1.84,0,0,0,3.28,0,10.06,10.06,0,0,0,0-6.32,1.85,1.85,0,0,0-3.28,0A7.27,7.27,0,0,0,610.73,405.16Z" transform="translate(-6.81 -6.95)"/><path class="842a9168-d44e-45b0-a597-a41d768eef40" d="M601.18,377.16a7.29,7.29,0,0,1-.82,3.87,3,3,0,0,1-5,0,7.16,7.16,0,0,1-.84-3.84,7.3,7.3,0,0,1,.81-3.88,3,3,0,0,1,5,.05A7.12,7.12,0,0,1,601.18,377.16Zm-5.46,0a7.31,7.31,0,0,0,.51,3.17,1.84,1.84,0,0,0,3.28,0,10.06,10.06,0,0,0,0-6.32,1.85,1.85,0,0,0-3.28,0A7.27,7.27,0,0,0,595.72,377.16Z" transform="translate(-6.81 -6.95)"/><path class="842a9168-d44e-45b0-a597-a41d768eef40" d="M595.82,226.17l4.14-8.95h-5.45v-1h6.65v.91l-4.09,9.08Z" transform="translate(-6.81 -6.95)"/><path class="842a9168-d44e-45b0-a597-a41d768eef40" d="M605.69,220.07a3.68,3.68,0,0,1,2.49.78,2.69,2.69,0,0,1,.91,2.14,3.1,3.1,0,0,1-1,2.43,4,4,0,0,1-2.72.88,5,5,0,0,1-2.58-.54v-1.09a3.9,3.9,0,0,0,1.19.48,5.82,5.82,0,0,0,1.4.17,2.8,2.8,0,0,0,1.87-.57,2,2,0,0,0,.67-1.64q0-2.09-2.56-2.09a10.24,10.24,0,0,0-1.74.2l-.59-.38.38-4.68h5v1h-4l-.25,3A8,8,0,0,1,605.69,220.07Z" transform="translate(-6.81 -6.95)"/><path class="842a9168-d44e-45b0-a597-a41d768eef40" d="M597.68,273.07a3.68,3.68,0,0,1,2.49.78,2.69,2.69,0,0,1,.91,2.14,3.1,3.1,0,0,1-1,2.43,4,4,0,0,1-2.72.88,5,5,0,0,1-2.58-.54v-1.09a3.9,3.9,0,0,0,1.19.48,5.82,5.82,0,0,0,1.4.17,2.8,2.8,0,0,0,1.87-.57,2,2,0,0,0,.67-1.64q0-2.09-2.56-2.09a10.24,10.24,0,0,0-1.74.2l-.59-.38.38-4.68h5v1h-4l-.25,3A8,8,0,0,1,597.68,273.07Z" transform="translate(-6.81 -6.95)"/><path class="842a9168-d44e-45b0-a597-a41d768eef40" d="M609.19,274.16a7.29,7.29,0,0,1-.82,3.87,3,3,0,0,1-5,0,7.16,7.16,0,0,1-.84-3.84,7.3,7.3,0,0,1,.81-3.88,3,3,0,0,1,5,.05A7.12,7.12,0,0,1,609.19,274.16Zm-5.46,0a7.31,7.31,0,0,0,.51,3.17,1.84,1.84,0,0,0,3.28,0,10.06,10.06,0,0,0,0-6.32,1.85,1.85,0,0,0-3.28,0A7.27,7.27,0,0,0,603.72,274.16Z" transform="translate(-6.81 -6.95)"/><path class="842a9168-d44e-45b0-a597-a41d768eef40" d="M601.13,336.17h-6.57v-1l2.63-2.65a19.38,19.38,0,0,0,1.59-1.74,4.46,4.46,0,0,0,.57-1,2.89,2.89,0,0,0,.19-1.06,1.68,1.68,0,0,0-.49-1.27,1.86,1.86,0,0,0-1.35-.47,3.38,3.38,0,0,0-1.18.21,4.69,4.69,0,0,0-1.24.75l-.6-.77a4.61,4.61,0,0,1,3-1.15,3.18,3.18,0,0,1,2.21.72,2.48,2.48,0,0,1,.8,1.94,3.74,3.74,0,0,1-.53,1.88,11.92,11.92,0,0,1-2,2.35L596,335.06v.05h5.14Z" transform="translate(-6.81 -6.95)"/><path class="842a9168-d44e-45b0-a597-a41d768eef40" d="M605.69,330.07a3.68,3.68,0,0,1,2.49.78,2.69,2.69,0,0,1,.91,2.14,3.1,3.1,0,0,1-1,2.43,4,4,0,0,1-2.72.88,5,5,0,0,1-2.58-.54v-1.09a3.9,3.9,0,0,0,1.19.48,5.82,5.82,0,0,0,1.4.17,2.8,2.8,0,0,0,1.87-.57,2,2,0,0,0,.67-1.64q0-2.09-2.56-2.09a10.24,10.24,0,0,0-1.74.2l-.59-.38.38-4.68h5v1h-4l-.25,3A8,8,0,0,1,605.69,330.07Z" transform="translate(-6.81 -6.95)"/><path class="842a9168-d44e-45b0-a597-a41d768eef40" d="M601.18,552.16a7.29,7.29,0,0,1-.82,3.87,3,3,0,0,1-5,0,7.16,7.16,0,0,1-.84-3.84,7.3,7.3,0,0,1,.81-3.88,3,3,0,0,1,5,.05A7.12,7.12,0,0,1,601.18,552.16Zm-5.46,0a7.31,7.31,0,0,0,.51,3.17,1.84,1.84,0,0,0,3.28,0,10.06,10.06,0,0,0,0-6.32,1.85,1.85,0,0,0-3.28,0A7.27,7.27,0,0,0,595.72,552.16Z" transform="translate(-6.81 -6.95)"/><path class="842a9168-d44e-45b0-a597-a41d768eef40" d="M597.68,504.07a3.68,3.68,0,0,1,2.49.78,2.69,2.69,0,0,1,.91,2.14,3.1,3.1,0,0,1-1,2.43,4,4,0,0,1-2.72.88,5,5,0,0,1-2.58-.54v-1.09a3.9,3.9,0,0,0,1.19.48,5.82,5.82,0,0,0,1.4.17,2.8,2.8,0,0,0,1.87-.57,2,2,0,0,0,.67-1.64q0-2.09-2.56-2.09a10.24,10.24,0,0,0-1.74.2l-.59-.38.38-4.68h5v1h-4l-.25,3A8,8,0,0,1,597.68,504.07Z" transform="translate(-6.81 -6.95)"/><path class="842a9168-d44e-45b0-a597-a41d768eef40" d="M609.19,505.16a7.29,7.29,0,0,1-.82,3.87,3,3,0,0,1-5,0,7.16,7.16,0,0,1-.84-3.84,7.3,7.3,0,0,1,.81-3.88,3,3,0,0,1,5,.05A7.12,7.12,0,0,1,609.19,505.16Zm-5.46,0a7.31,7.31,0,0,0,.51,3.17,1.84,1.84,0,0,0,3.28,0,10.06,10.06,0,0,0,0-6.32,1.85,1.85,0,0,0-3.28,0A7.27,7.27,0,0,0,603.72,505.16Z" transform="translate(-6.81 -6.95)"/><path class="842a9168-d44e-45b0-a597-a41d768eef40" d="M597.76,462.17h-1.11V455q0-.89.05-1.68l-.32.3L594.76,455l-.6-.78,2.65-2h1Z" transform="translate(-6.81 -6.95)"/><path class="842a9168-d44e-45b0-a597-a41d768eef40" d="M608.19,457.16a7.29,7.29,0,0,1-.82,3.87,3,3,0,0,1-5,0,7.16,7.16,0,0,1-.84-3.84,7.3,7.3,0,0,1,.81-3.88,3,3,0,0,1,5,.05A7.12,7.12,0,0,1,608.19,457.16Zm-5.46,0a7.31,7.31,0,0,0,.51,3.17,1.84,1.84,0,0,0,3.28,0,10.06,10.06,0,0,0,0-6.32,1.85,1.85,0,0,0-3.28,0A7.27,7.27,0,0,0,602.72,457.16Z" transform="translate(-6.81 -6.95)"/><path class="842a9168-d44e-45b0-a597-a41d768eef40" d="M616.19,457.16a7.29,7.29,0,0,1-.82,3.87,3,3,0,0,1-5,0,7.16,7.16,0,0,1-.84-3.84,7.3,7.3,0,0,1,.81-3.88,3,3,0,0,1,5,.05A7.12,7.12,0,0,1,616.19,457.16Zm-5.46,0a7.31,7.31,0,0,0,.51,3.17,1.84,1.84,0,0,0,3.28,0,10.06,10.06,0,0,0,0-6.32,1.85,1.85,0,0,0-3.28,0A7.27,7.27,0,0,0,610.73,457.16Z" transform="translate(-6.81 -6.95)"/><path class="842a9168-d44e-45b0-a597-a41d768eef40" d="M596.75,139.88h-1.11v-7.12q0-.89.05-1.68l-.32.3-1.63,1.33-.6-.78,2.65-2h1Z" transform="translate(-6.81 -6.95)"/><path class="842a9168-d44e-45b0-a597-a41d768eef40" d="M601.13,82.17h-6.57v-1l2.63-2.65a19.38,19.38,0,0,0,1.59-1.74,4.46,4.46,0,0,0,.57-1,2.89,2.89,0,0,0,.19-1.06,1.68,1.68,0,0,0-.49-1.27,1.86,1.86,0,0,0-1.35-.47,3.38,3.38,0,0,0-1.18.21,4.69,4.69,0,0,0-1.24.75l-.6-.77a4.61,4.61,0,0,1,3-1.15,3.18,3.18,0,0,1,2.21.72,2.48,2.48,0,0,1,.8,1.94,3.74,3.74,0,0,1-.53,1.88,11.92,11.92,0,0,1-2,2.35L596,81.06v.05h5.14Z" transform="translate(-6.81 -6.95)"/><path class="842a9168-d44e-45b0-a597-a41d768eef40" d="M601.18,197.16a7.29,7.29,0,0,1-.82,3.87,3,3,0,0,1-5,0,7.16,7.16,0,0,1-.84-3.84,7.3,7.3,0,0,1,.81-3.88,3,3,0,0,1,5,.05A7.12,7.12,0,0,1,601.18,197.16Zm-5.46,0a7.31,7.31,0,0,0,.51,3.17,1.84,1.84,0,0,0,3.28,0,10.06,10.06,0,0,0,0-6.32,1.85,1.85,0,0,0-3.28,0A7.27,7.27,0,0,0,595.72,197.16Z" transform="translate(-6.81 -6.95)"/><path class="407daeaf-726c-442f-9142-43a3e55eb8ad" d="M8,236.44H28.7c10.35,0,10.35,2.1,20.7,2.1s10.35,2.1,20.7,2.1,10.35,4.2,20.7,4.2,10.35,2.1,20.7,2.1,10.35-2.1,20.7-2.1,10.35-2.1,20.7-2.1,10.35-2.1,20.7-2.1h20.7c10.35,0,10.35,2.1,20.7,2.1s10.35,2.1,20.7,2.1h82.78c10.35,0,10.35-2.1,20.7-2.1s10.35-2.1,20.7-2.1,10.35-2.1,20.7-2.1h20.7c10.35,0,10.35-2.1,20.7-2.1h20.7c10.35,0,10.35-2.1,20.7-2.1H484c10.35,0,10.35-2.1,20.7-2.1h41.39c10.35,0,10.35-2.1,20.7-2.1V381.45H8Z" transform="translate(-6.81 -6.95)"/><path class="cd028ff4-fb25-4cdd-8408-284b301a782c" d="M13.27,224.65H6.81V213.23h6.46v1.58H8.68v3.11H13v1.56H8.68v3.59h4.59Z" transform="translate(-6.81 -6.95)"/><path class="cd028ff4-fb25-4cdd-8408-284b301a782c" d="M21.35,222.19a2.26,2.26,0,0,1-.92,1.94,4.42,4.42,0,0,1-2.64.68,6.24,6.24,0,0,1-2.77-.52V222.7a6.81,6.81,0,0,0,2.84.7q1.69,0,1.7-1a.81.81,0,0,0-.19-.55,2.23,2.23,0,0,0-.62-.45,10.63,10.63,0,0,0-1.2-.53,5.53,5.53,0,0,1-2-1.16,2.14,2.14,0,0,1-.53-1.5,2,2,0,0,1,.89-1.72,4.24,4.24,0,0,1,2.43-.61,6.9,6.9,0,0,1,2.88.62l-.59,1.38a6.41,6.41,0,0,0-2.35-.58q-1.45,0-1.45.83a.83.83,0,0,0,.38.69,8.35,8.35,0,0,0,1.65.77,7.55,7.55,0,0,1,1.55.76,2.26,2.26,0,0,1,.72.79A2.29,2.29,0,0,1,21.35,222.19Z" transform="translate(-6.81 -6.95)"/><path class="cd028ff4-fb25-4cdd-8408-284b301a782c" d="M27.72,224.81a3,3,0,0,1-2.55-1.18h-.11q.11,1.09.11,1.33v3.54H23.33V216h1.48q.06.24.26,1.16h.09a2.88,2.88,0,0,1,2.58-1.31A3,3,0,0,1,30.27,217a6.43,6.43,0,0,1,0,6.59A3,3,0,0,1,27.72,224.81Zm-.45-7.45a1.91,1.91,0,0,0-1.6.64,3.32,3.32,0,0,0-.5,2v.27a4,4,0,0,0,.5,2.29,1.86,1.86,0,0,0,1.63.71,1.66,1.66,0,0,0,1.47-.78,4,4,0,0,0,.52-2.23,3.9,3.9,0,0,0-.51-2.2A1.71,1.71,0,0,0,27.27,217.36Z" transform="translate(-6.81 -6.95)"/><path class="cd028ff4-fb25-4cdd-8408-284b301a782c" d="M37.08,224.81a4.18,4.18,0,0,1-3.15-1.18,4.46,4.46,0,0,1-1.14-3.24,4.9,4.9,0,0,1,1.05-3.33,3.64,3.64,0,0,1,2.9-1.21,3.56,3.56,0,0,1,2.7,1,4,4,0,0,1,1,2.86v1H34.68a2.84,2.84,0,0,0,.68,1.93,2.37,2.37,0,0,0,1.8.68,6.64,6.64,0,0,0,1.43-.14,7.5,7.5,0,0,0,1.42-.48v1.49a5.65,5.65,0,0,1-1.36.45A8.3,8.3,0,0,1,37.08,224.81Zm-.34-7.56a1.84,1.84,0,0,0-1.4.55,2.64,2.64,0,0,0-.63,1.62h3.92a2.39,2.39,0,0,0-.52-1.62A1.76,1.76,0,0,0,36.74,217.25Z" transform="translate(-6.81 -6.95)"/><path class="cd028ff4-fb25-4cdd-8408-284b301a782c" d="M46.9,215.86a4.44,4.44,0,0,1,.91.08l-.18,1.71a3.47,3.47,0,0,0-.81-.09,2.35,2.35,0,0,0-1.79.72,2.6,2.6,0,0,0-.68,1.87v4.52H42.52V216H44l.24,1.52h.09a3.42,3.42,0,0,1,1.12-1.23A2.67,2.67,0,0,1,46.9,215.86Z" transform="translate(-6.81 -6.95)"/><path class="cd028ff4-fb25-4cdd-8408-284b301a782c" d="M54.83,224.65l-.37-1.2H54.4a3.54,3.54,0,0,1-1.26,1.07,4,4,0,0,1-1.62.29,2.75,2.75,0,0,1-2-.69,2.57,2.57,0,0,1-.71-1.95,2.28,2.28,0,0,1,1-2,5.72,5.72,0,0,1,3-.74l1.49,0v-.46a1.75,1.75,0,0,0-.39-1.24,1.58,1.58,0,0,0-1.2-.41,4.16,4.16,0,0,0-1.27.2,9.61,9.61,0,0,0-1.17.46l-.59-1.31a6.38,6.38,0,0,1,1.54-.56,7.06,7.06,0,0,1,1.58-.19,3.74,3.74,0,0,1,2.49.72,2.82,2.82,0,0,1,.84,2.26v5.82Zm-2.73-1.25a2.27,2.27,0,0,0,1.61-.56,2,2,0,0,0,.61-1.57v-.75l-1.11,0a3.8,3.8,0,0,0-1.89.43,1.32,1.32,0,0,0-.59,1.18,1.15,1.15,0,0,0,.34.89A1.48,1.48,0,0,0,52.09,223.4Z" transform="translate(-6.81 -6.95)"/><path class="cd028ff4-fb25-4cdd-8408-284b301a782c" d="M66.3,224.65H64.46v-5.31a2.32,2.32,0,0,0-.4-1.49,1.56,1.56,0,0,0-1.28-.49,2,2,0,0,0-1.7.69,3.8,3.8,0,0,0-.54,2.3v4.3H58.7V216h1.44l.26,1.13h.09a2.56,2.56,0,0,1,1.11-1,3.72,3.72,0,0,1,1.59-.34q3.11,0,3.11,3.16Z" transform="translate(-6.81 -6.95)"/><path class="cd028ff4-fb25-4cdd-8408-284b301a782c" d="M74.63,224.65H68.08v-1.13l4.37-6.1h-4.1V216h6.16v1.28l-4.27,6h4.4Z" transform="translate(-6.81 -6.95)"/><path class="cd028ff4-fb25-4cdd-8408-284b301a782c" d="M81.91,224.65l-.37-1.2h-.06a3.54,3.54,0,0,1-1.26,1.07,4,4,0,0,1-1.62.29,2.75,2.75,0,0,1-2-.69,2.57,2.57,0,0,1-.71-1.95,2.28,2.28,0,0,1,1-2,5.72,5.72,0,0,1,3-.74l1.49,0v-.46a1.75,1.75,0,0,0-.39-1.24,1.58,1.58,0,0,0-1.2-.41,4.16,4.16,0,0,0-1.27.2,9.61,9.61,0,0,0-1.17.46l-.59-1.31a6.38,6.38,0,0,1,1.54-.56,7.06,7.06,0,0,1,1.58-.19,3.74,3.74,0,0,1,2.49.72,2.82,2.82,0,0,1,.84,2.26v5.82Zm-2.73-1.25a2.27,2.27,0,0,0,1.61-.56,2,2,0,0,0,.61-1.57v-.75l-1.11,0a3.8,3.8,0,0,0-1.89.43,1.32,1.32,0,0,0-.59,1.18,1.15,1.15,0,0,0,.34.89A1.48,1.48,0,0,0,79.18,223.4Z" transform="translate(-6.81 -6.95)"/><path class="cd028ff4-fb25-4cdd-8408-284b301a782c" d="M92.86,224.81a3,3,0,0,1-2.52-1.17,6.42,6.42,0,0,1,0-6.6,3,3,0,0,1,2.54-1.18,3,3,0,0,1,2.59,1.26h.09a11,11,0,0,1-.13-1.47V212.5h1.84v12.16H95.85l-.32-1.13h-.09A2.94,2.94,0,0,1,92.86,224.81Zm.49-1.48a2,2,0,0,0,1.65-.64,3.35,3.35,0,0,0,.53-2.07v-.26A3.87,3.87,0,0,0,95,218a2,2,0,0,0-1.66-.69,1.69,1.69,0,0,0-1.49.79,4,4,0,0,0-.52,2.24,3.92,3.92,0,0,0,.51,2.19A1.71,1.71,0,0,0,93.35,223.33Z" transform="translate(-6.81 -6.95)"/><path class="cd028ff4-fb25-4cdd-8408-284b301a782c" d="M103.69,224.81a4.18,4.18,0,0,1-3.15-1.18,4.46,4.46,0,0,1-1.14-3.24,4.9,4.9,0,0,1,1.05-3.33,3.64,3.64,0,0,1,2.9-1.21,3.56,3.56,0,0,1,2.7,1,4,4,0,0,1,1,2.86v1h-5.76a2.84,2.84,0,0,0,.68,1.93,2.37,2.37,0,0,0,1.8.68,6.64,6.64,0,0,0,1.43-.14,7.5,7.5,0,0,0,1.42-.48v1.49a5.65,5.65,0,0,1-1.36.45A8.3,8.3,0,0,1,103.69,224.81Zm-.34-7.56a1.84,1.84,0,0,0-1.4.55,2.64,2.64,0,0,0-.63,1.62h3.92a2.39,2.39,0,0,0-.52-1.62A1.76,1.76,0,0,0,103.35,217.25Z" transform="translate(-6.81 -6.95)"/><path class="cd028ff4-fb25-4cdd-8408-284b301a782c" d="M115.26,224.65,112,216h1.94l1.76,5a10,10,0,0,1,.55,2h.06a13.78,13.78,0,0,1,.55-2l1.76-5h2l-3.3,8.64Z" transform="translate(-6.81 -6.95)"/><path class="cd028ff4-fb25-4cdd-8408-284b301a782c" d="M121.74,213.72A1,1,0,0,1,122,213a1.05,1.05,0,0,1,.77-.27,1,1,0,0,1,.75.27,1,1,0,0,1,.27.76,1,1,0,0,1-.27.74,1,1,0,0,1-.75.27,1,1,0,0,1-.77-.27A1,1,0,0,1,121.74,213.72Zm1.95,10.93h-1.84V216h1.84Z" transform="translate(-6.81 -6.95)"/><path class="cd028ff4-fb25-4cdd-8408-284b301a782c" d="M129.22,224.81a3,3,0,0,1-2.52-1.17,6.42,6.42,0,0,1,0-6.6,3,3,0,0,1,2.54-1.18,3,3,0,0,1,2.59,1.26h.09a11,11,0,0,1-.13-1.47V212.5h1.84v12.16h-1.44l-.32-1.13h-.09A2.94,2.94,0,0,1,129.22,224.81Zm.49-1.48a2,2,0,0,0,1.65-.64,3.35,3.35,0,0,0,.53-2.07v-.26a3.87,3.87,0,0,0-.53-2.32,2,2,0,0,0-1.66-.69,1.69,1.69,0,0,0-1.49.79,4,4,0,0,0-.52,2.24,3.92,3.92,0,0,0,.51,2.19A1.71,1.71,0,0,0,129.72,223.33Z" transform="translate(-6.81 -6.95)"/><path class="cd028ff4-fb25-4cdd-8408-284b301a782c" d="M141.69,224.65l-.37-1.2h-.06a3.54,3.54,0,0,1-1.26,1.07,4,4,0,0,1-1.62.29,2.75,2.75,0,0,1-2-.69,2.57,2.57,0,0,1-.71-1.95,2.28,2.28,0,0,1,1-2,5.72,5.72,0,0,1,3-.74l1.49,0v-.46a1.75,1.75,0,0,0-.39-1.24,1.58,1.58,0,0,0-1.2-.41,4.16,4.16,0,0,0-1.27.2,9.61,9.61,0,0,0-1.17.46l-.59-1.31a6.38,6.38,0,0,1,1.54-.56,7.06,7.06,0,0,1,1.58-.19,3.74,3.74,0,0,1,2.49.72,2.82,2.82,0,0,1,.84,2.26v5.82ZM139,223.4a2.27,2.27,0,0,0,1.61-.56,2,2,0,0,0,.61-1.57v-.75l-1.11,0a3.8,3.8,0,0,0-1.89.43,1.32,1.32,0,0,0-.59,1.18,1.15,1.15,0,0,0,.34.89A1.48,1.48,0,0,0,139,223.4Z" transform="translate(-6.81 -6.95)"/><path class="407daeaf-726c-442f-9142-43a3e55eb8ad" d="M8,170.23c10.35,0,10.35-.68,20.7-.68s10.35-.08,20.7-.08,10.35,3.8,20.7,3.8,10.35,1.66,20.7,1.66,10.35,2.64,20.7,2.64,10.35,0,20.7,0,10.35.25,20.7.25,10.35-.87,20.7-.87,10.35,8.82,20.7,8.82,10.35,4.94,20.7,4.94,10.35-4.2,20.7-4.2,10.35-3.09,20.7-3.09,10.35-2.54,20.7-2.54,10.35-5.61,20.7-5.61,10.35-10.58,20.7-10.58,10.35-11.4,20.7-11.4,10.35-14.88,20.7-14.88,10.35-20.4,20.7-20.4,10.35-23.79,20.7-23.79,10.35,28.86,20.7,28.86,10.35-19.91,20.7-19.91,10.35-34.7,20.7-34.7S473.66,58,484,58s10.35-5.72,20.7-5.72S515,67.66,525.4,67.66s10.35,45.8,20.7,45.8,10.35,5.51,20.7,5.51,10.35-19.29,20.7-19.29V203.59H8Z" transform="translate(-6.81 -6.95)"/><g class="1f2192d3-7dcf-40a3-90e5-d9c7ed1a9cbe"><path class="cd028ff4-fb25-4cdd-8408-284b301a782c" d="M16.77,34.9a3.39,3.39,0,0,1-1.17,2.78,5.12,5.12,0,0,1-3.34,1H11.08V43H9.21V31.4H12.5a4.93,4.93,0,0,1,3.21.89A3.2,3.2,0,0,1,16.77,34.9ZM11.08,37h1a3.52,3.52,0,0,0,2.11-.51A1.85,1.85,0,0,0,14.85,35a1.81,1.81,0,0,0-.6-1.49A3,3,0,0,0,12.37,33h-1.3Z" transform="translate(-6.81 -6.95)"/><path class="cd028ff4-fb25-4cdd-8408-284b301a782c" d="M19.05,43V31.4h1.87V43Z" transform="translate(-6.81 -6.95)"/><path class="cd028ff4-fb25-4cdd-8408-284b301a782c" d="M23.93,31.4h3.39a6.37,6.37,0,0,1,3.41.7,2.45,2.45,0,0,1,1.05,2.2A2.69,2.69,0,0,1,31.27,36a2.3,2.3,0,0,1-1.48.85v.08a2.94,2.94,0,0,1,1.77.91,2.76,2.76,0,0,1,.57,1.83A3,3,0,0,1,31,42.08a4.58,4.58,0,0,1-3,.88H23.93Zm1.87,4.78h1.8a3,3,0,0,0,1.71-.38,1.45,1.45,0,0,0,.54-1.28,1.29,1.29,0,0,0-.58-1.18A3.6,3.6,0,0,0,27.42,33H25.8Zm0,1.53v3.66h2a2.89,2.89,0,0,0,1.77-.46,1.69,1.69,0,0,0,.6-1.44,1.53,1.53,0,0,0-.61-1.34,3.2,3.2,0,0,0-1.85-.44Z" transform="translate(-6.81 -6.95)"/></g><g class="1f2192d3-7dcf-40a3-90e5-d9c7ed1a9cbe"><path class="842a9168-d44e-45b0-a597-a41d768eef40" d="M463.07,189.8h2.82a5.33,5.33,0,0,1,2.88.59,2.1,2.1,0,0,1,.89,1.88,2.18,2.18,0,0,1-.5,1.47,2.39,2.39,0,0,1-1.45.75v.07q2.28.39,2.28,2.39a2.57,2.57,0,0,1-.91,2.09,3.85,3.85,0,0,1-2.53.75h-3.49Zm1.16,4.28h1.91a3.11,3.11,0,0,0,1.77-.39,1.49,1.49,0,0,0,.54-1.3,1.32,1.32,0,0,0-.6-1.21,3.76,3.76,0,0,0-1.91-.37h-1.71Zm0,1v3.74h2.08a3,3,0,0,0,1.82-.47,1.73,1.73,0,0,0,.61-1.47,1.55,1.55,0,0,0-.62-1.37,3.34,3.34,0,0,0-1.9-.44Z" transform="translate(-6.81 -6.95)"/><path class="842a9168-d44e-45b0-a597-a41d768eef40" d="M471.88,190.27a.75.75,0,0,1,.19-.57.71.71,0,0,1,1,0,.74.74,0,0,1,.2.57.76.76,0,0,1-.2.57.7.7,0,0,1-1,0A.77.77,0,0,1,471.88,190.27Zm1.23,9.52H472V192.3h1.13Z" transform="translate(-6.81 -6.95)"/><path class="842a9168-d44e-45b0-a597-a41d768eef40" d="M476.65,199.79h-1.13V189.16h1.13Z" transform="translate(-6.81 -6.95)"/><path class="842a9168-d44e-45b0-a597-a41d768eef40" d="M480.19,199.79h-1.13V189.16h1.13Z" transform="translate(-6.81 -6.95)"/><path class="842a9168-d44e-45b0-a597-a41d768eef40" d="M489.06,196a4.13,4.13,0,0,1-.92,2.86,3.25,3.25,0,0,1-2.55,1,3.38,3.38,0,0,1-1.78-.47,3.11,3.11,0,0,1-1.2-1.35,4.72,4.72,0,0,1-.42-2.06,4.13,4.13,0,0,1,.92-2.85,3.24,3.24,0,0,1,2.54-1,3.17,3.17,0,0,1,2.5,1A4.12,4.12,0,0,1,489.06,196Zm-5.71,0a3.56,3.56,0,0,0,.57,2.19,2.28,2.28,0,0,0,3.38,0,3.53,3.53,0,0,0,.58-2.19,3.48,3.48,0,0,0-.58-2.17,2,2,0,0,0-1.71-.74,2,2,0,0,0-1.68.73A3.52,3.52,0,0,0,483.36,196Z" transform="translate(-6.81 -6.95)"/><path class="842a9168-d44e-45b0-a597-a41d768eef40" d="M496.18,199.79v-4.85a2,2,0,0,0-.42-1.37,1.7,1.7,0,0,0-1.31-.45,2.15,2.15,0,0,0-1.72.64,3.21,3.21,0,0,0-.55,2.1v3.93h-1.13V192.3H492l.18,1h.05a2.31,2.31,0,0,1,1-.86,3.17,3.17,0,0,1,1.4-.3,2.85,2.85,0,0,1,2,.65,2.78,2.78,0,0,1,.68,2.09v4.89Z" transform="translate(-6.81 -6.95)"/><path class="842a9168-d44e-45b0-a597-a41d768eef40" d="M502.81,199.93a3.44,3.44,0,0,1-2.62-1,3.92,3.92,0,0,1-1-2.81,4.35,4.35,0,0,1,.89-2.88,3,3,0,0,1,2.4-1.07,2.83,2.83,0,0,1,2.23.93,3.55,3.55,0,0,1,.82,2.44v.72h-5.16a3,3,0,0,0,.67,2,2.3,2.3,0,0,0,1.78.68,6,6,0,0,0,2.39-.51v1a6,6,0,0,1-1.14.37A6.33,6.33,0,0,1,502.81,199.93Zm-.31-6.82a1.86,1.86,0,0,0-1.44.59,2.71,2.71,0,0,0-.63,1.63h3.92a2.49,2.49,0,0,0-.48-1.64A1.68,1.68,0,0,0,502.5,193.11Z" transform="translate(-6.81 -6.95)"/><path class="842a9168-d44e-45b0-a597-a41d768eef40" d="M512.33,197.75a1.88,1.88,0,0,1-.78,1.61,3.67,3.67,0,0,1-2.19.57,4.76,4.76,0,0,1-2.32-.47v-1.05a5.58,5.58,0,0,0,1.16.43,4.85,4.85,0,0,0,1.19.16,2.7,2.7,0,0,0,1.37-.28,1,1,0,0,0,.1-1.61,6,6,0,0,0-1.48-.73,8.09,8.09,0,0,1-1.49-.68,2.06,2.06,0,0,1-.66-.66,1.73,1.73,0,0,1-.21-.88,1.68,1.68,0,0,1,.75-1.45,3.48,3.48,0,0,1,2-.53,6,6,0,0,1,2.37.49l-.4.92a5.44,5.44,0,0,0-2-.46,2.35,2.35,0,0,0-1.22.25.78.78,0,0,0-.41.7.84.84,0,0,0,.15.51,1.51,1.51,0,0,0,.5.4,10.91,10.91,0,0,0,1.31.55,4.9,4.9,0,0,1,1.8,1A1.73,1.73,0,0,1,512.33,197.75Z" transform="translate(-6.81 -6.95)"/><path class="842a9168-d44e-45b0-a597-a41d768eef40" d="M522.92,198.79h-.06a2.67,2.67,0,0,1-2.35,1.14,2.78,2.78,0,0,1-2.29-1,4.42,4.42,0,0,1-.82-2.86,4.5,4.5,0,0,1,.82-2.88,2.76,2.76,0,0,1,2.28-1,2.72,2.72,0,0,1,2.34,1.11h.09l0-.54,0-.53v-3H524v10.64h-.92Zm-2.27.19a2.07,2.07,0,0,0,1.69-.63,3.2,3.2,0,0,0,.52-2v-.24a3.76,3.76,0,0,0-.53-2.27,2,2,0,0,0-1.69-.68,1.74,1.74,0,0,0-1.53.78,3.85,3.85,0,0,0-.53,2.19,3.7,3.7,0,0,0,.53,2.17A1.78,1.78,0,0,0,520.65,199Z" transform="translate(-6.81 -6.95)"/><path class="842a9168-d44e-45b0-a597-a41d768eef40" d="M529.56,199.93a3.44,3.44,0,0,1-2.62-1,3.92,3.92,0,0,1-1-2.81,4.35,4.35,0,0,1,.89-2.88,3,3,0,0,1,2.4-1.07,2.83,2.83,0,0,1,2.23.93,3.55,3.55,0,0,1,.82,2.44v.72h-5.16a3,3,0,0,0,.67,2,2.3,2.3,0,0,0,1.78.68,6,6,0,0,0,2.39-.51v1a6,6,0,0,1-1.14.37A6.33,6.33,0,0,1,529.56,199.93Zm-.31-6.82a1.86,1.86,0,0,0-1.44.59,2.71,2.71,0,0,0-.63,1.63h3.92a2.49,2.49,0,0,0-.48-1.64A1.68,1.68,0,0,0,529.25,193.11Z" transform="translate(-6.81 -6.95)"/><path class="842a9168-d44e-45b0-a597-a41d768eef40" d="M543,198.79h-.06a2.67,2.67,0,0,1-2.35,1.14,2.78,2.78,0,0,1-2.29-1,4.42,4.42,0,0,1-.82-2.86,4.5,4.5,0,0,1,.82-2.88,2.76,2.76,0,0,1,2.28-1,2.72,2.72,0,0,1,2.34,1.11H543l0-.54,0-.53v-3h1.13v10.64h-.92Zm-2.27.19a2.07,2.07,0,0,0,1.69-.63,3.2,3.2,0,0,0,.52-2v-.24a3.76,3.76,0,0,0-.53-2.27,2,2,0,0,0-1.69-.68,1.74,1.74,0,0,0-1.53.78,3.85,3.85,0,0,0-.53,2.19,3.7,3.7,0,0,0,.53,2.17A1.78,1.78,0,0,0,540.72,199Z" transform="translate(-6.81 -6.95)"/><path class="842a9168-d44e-45b0-a597-a41d768eef40" d="M552.93,196a4.13,4.13,0,0,1-.92,2.86,3.25,3.25,0,0,1-2.55,1,3.38,3.38,0,0,1-1.78-.47,3.11,3.11,0,0,1-1.2-1.35A4.72,4.72,0,0,1,546,196a4.13,4.13,0,0,1,.92-2.85,3.24,3.24,0,0,1,2.54-1,3.17,3.17,0,0,1,2.5,1A4.12,4.12,0,0,1,552.93,196Zm-5.71,0a3.56,3.56,0,0,0,.57,2.19,2.28,2.28,0,0,0,3.38,0,3.53,3.53,0,0,0,.58-2.19,3.48,3.48,0,0,0-.58-2.17,2,2,0,0,0-1.71-.74,2,2,0,0,0-1.68.73A3.52,3.52,0,0,0,547.22,196Zm1.31-4.9q.33-.42.71-1a12,12,0,0,0,.6-1h1.38v.14a10.07,10.07,0,0,1-.9,1.09,10.2,10.2,0,0,1-1,1h-.76Z" transform="translate(-6.81 -6.95)"/><path class="842a9168-d44e-45b0-a597-a41d768eef40" d="M556.06,199.79h-1.13V189.16h1.13Z" transform="translate(-6.81 -6.95)"/><path class="842a9168-d44e-45b0-a597-a41d768eef40" d="M563.07,199.79l-.23-1.07h-.05a3.14,3.14,0,0,1-1.12,1,3.39,3.39,0,0,1-1.39.25,2.5,2.5,0,0,1-1.75-.57,2.09,2.09,0,0,1-.63-1.63q0-2.27,3.63-2.38l1.27,0v-.46a1.89,1.89,0,0,0-.38-1.3,1.55,1.55,0,0,0-1.21-.42,4.94,4.94,0,0,0-2.12.57l-.35-.87a5.35,5.35,0,0,1,1.21-.47,5.23,5.23,0,0,1,1.32-.17,2.86,2.86,0,0,1,2,.59,2.49,2.49,0,0,1,.65,1.91v5.11Zm-2.56-.8a2.31,2.31,0,0,0,1.67-.58,2.15,2.15,0,0,0,.6-1.63v-.68l-1.13,0a4.14,4.14,0,0,0-2,.42,1.27,1.27,0,0,0-.6,1.16,1.17,1.17,0,0,0,.37.94A1.55,1.55,0,0,0,560.51,199Z" transform="translate(-6.81 -6.95)"/><path class="842a9168-d44e-45b0-a597-a41d768eef40" d="M569.67,192.16a4.44,4.44,0,0,1,.9.08l-.16,1.05a3.86,3.86,0,0,0-.82-.1,2,2,0,0,0-1.55.74,2.69,2.69,0,0,0-.65,1.84v4h-1.13V192.3h.94l.13,1.39h.05a3.31,3.31,0,0,1,1-1.13A2.26,2.26,0,0,1,569.67,192.16Z" transform="translate(-6.81 -6.95)"/><path class="842a9168-d44e-45b0-a597-a41d768eef40" d="M575.13,199.93a3.44,3.44,0,0,1-2.62-1,3.92,3.92,0,0,1-1-2.81,4.35,4.35,0,0,1,.89-2.88,3,3,0,0,1,2.4-1.07,2.83,2.83,0,0,1,2.23.93,3.55,3.55,0,0,1,.82,2.44v.72h-5.16a3,3,0,0,0,.67,2,2.3,2.3,0,0,0,1.78.68,6,6,0,0,0,2.39-.51v1a6,6,0,0,1-1.14.37A6.33,6.33,0,0,1,575.13,199.93Zm-.31-6.82a1.86,1.86,0,0,0-1.44.59,2.71,2.71,0,0,0-.63,1.63h3.92a2.49,2.49,0,0,0-.48-1.64A1.68,1.68,0,0,0,574.82,193.11Z" transform="translate(-6.81 -6.95)"/><path class="842a9168-d44e-45b0-a597-a41d768eef40" d="M584.65,197.75a1.88,1.88,0,0,1-.78,1.61,3.67,3.67,0,0,1-2.19.57,4.76,4.76,0,0,1-2.32-.47v-1.05a5.58,5.58,0,0,0,1.16.43,4.85,4.85,0,0,0,1.19.16,2.7,2.7,0,0,0,1.37-.28,1,1,0,0,0,.1-1.61,6,6,0,0,0-1.48-.73,8.09,8.09,0,0,1-1.49-.68,2.06,2.06,0,0,1-.66-.66,1.73,1.73,0,0,1-.21-.88,1.68,1.68,0,0,1,.75-1.45,3.48,3.48,0,0,1,2-.53,6,6,0,0,1,2.37.49l-.4.92a5.44,5.44,0,0,0-2-.46,2.35,2.35,0,0,0-1.22.25.78.78,0,0,0-.41.7.84.84,0,0,0,.15.51,1.51,1.51,0,0,0,.5.4,10.91,10.91,0,0,0,1.31.55,4.9,4.9,0,0,1,1.8,1A1.73,1.73,0,0,1,584.65,197.75Z" transform="translate(-6.81 -6.95)"/></g><g class="1f2192d3-7dcf-40a3-90e5-d9c7ed1a9cbe"><path class="842a9168-d44e-45b0-a597-a41d768eef40" d="M539.36,376.79l-1.24-3.18h-4l-1.23,3.18H531.7l4-10h1l3.93,10Zm-1.61-4.22-1.16-3.1q-.23-.59-.46-1.44a13.11,13.11,0,0,1-.43,1.44l-1.18,3.1Z" transform="translate(-6.81 -6.95)"/><path class="842a9168-d44e-45b0-a597-a41d768eef40" d="M546.89,376.79v-4.85a2,2,0,0,0-.42-1.37,1.7,1.7,0,0,0-1.31-.45,2.15,2.15,0,0,0-1.72.64,3.21,3.21,0,0,0-.55,2.1v3.93h-1.13V369.3h.92l.18,1h.05a2.31,2.31,0,0,1,1-.86,3.17,3.17,0,0,1,1.4-.3,2.85,2.85,0,0,1,2,.65,2.78,2.78,0,0,1,.68,2.09v4.89Zm-.85-8.5a1.38,1.38,0,0,1-.57-.13c-.19-.08-.37-.18-.55-.28l-.52-.28a1.05,1.05,0,0,0-.48-.13.64.64,0,0,0-.52.21,1.47,1.47,0,0,0-.27.62h-.67a2.36,2.36,0,0,1,.48-1.3,1.26,1.26,0,0,1,1-.47,1.53,1.53,0,0,1,.61.13,5.27,5.27,0,0,1,.56.28l.51.28a1,1,0,0,0,.46.13.61.61,0,0,0,.5-.2,1.61,1.61,0,0,0,.27-.63h.68a2.41,2.41,0,0,1-.47,1.3A1.27,1.27,0,0,1,546,368.3Z" transform="translate(-6.81 -6.95)"/><path class="842a9168-d44e-45b0-a597-a41d768eef40" d="M556.82,373a4.13,4.13,0,0,1-.92,2.86,3.25,3.25,0,0,1-2.55,1,3.38,3.38,0,0,1-1.78-.47,3.11,3.11,0,0,1-1.2-1.35,4.72,4.72,0,0,1-.42-2.06,4.13,4.13,0,0,1,.92-2.85,3.24,3.24,0,0,1,2.54-1,3.17,3.17,0,0,1,2.5,1A4.12,4.12,0,0,1,556.82,373Zm-5.71,0a3.56,3.56,0,0,0,.57,2.19,2.28,2.28,0,0,0,3.38,0,3.53,3.53,0,0,0,.58-2.19,3.48,3.48,0,0,0-.58-2.17,2,2,0,0,0-1.71-.74,2,2,0,0,0-1.68.73A3.52,3.52,0,0,0,551.11,373Z" transform="translate(-6.81 -6.95)"/><path class="842a9168-d44e-45b0-a597-a41d768eef40" d="M563.64,374.75a1.88,1.88,0,0,1-.78,1.61,3.67,3.67,0,0,1-2.19.57,4.76,4.76,0,0,1-2.32-.47v-1.05a5.58,5.58,0,0,0,1.16.43,4.85,4.85,0,0,0,1.19.16,2.7,2.7,0,0,0,1.37-.28,1,1,0,0,0,.1-1.61,6,6,0,0,0-1.48-.73,8.09,8.09,0,0,1-1.49-.68,2.06,2.06,0,0,1-.66-.66,1.73,1.73,0,0,1-.21-.88,1.68,1.68,0,0,1,.75-1.45,3.48,3.48,0,0,1,2-.53,6,6,0,0,1,2.37.49l-.4.92a5.44,5.44,0,0,0-2-.46,2.35,2.35,0,0,0-1.22.25.78.78,0,0,0-.41.7.84.84,0,0,0,.15.51,1.51,1.51,0,0,0,.5.4,10.91,10.91,0,0,0,1.31.55,4.9,4.9,0,0,1,1.8,1A1.73,1.73,0,0,1,563.64,374.75Z" transform="translate(-6.81 -6.95)"/></g><path class="cd028ff4-fb25-4cdd-8408-284b301a782c" d="M15.42,21.51H7.61V7.94h7.81V10.3H10.49v3h4.59v2.36H10.49v3.5h4.94Z" transform="translate(-6.81 -6.95)"/><path class="cd028ff4-fb25-4cdd-8408-284b301a782c" d="M20.5,21.51l-4-10.37h3l2,5.91a10.55,10.55,0,0,1,.42,2.12H22A9.22,9.22,0,0,1,22.4,17l2-5.91h3l-4,10.37Z" transform="translate(-6.81 -6.95)"/><path class="cd028ff4-fb25-4cdd-8408-284b301a782c" d="M38.27,16.3a5.57,5.57,0,0,1-1.34,4,4.84,4.84,0,0,1-3.72,1.43A5.2,5.2,0,0,1,30.57,21a4.35,4.35,0,0,1-1.75-1.88,6.31,6.31,0,0,1-.61-2.86,5.54,5.54,0,0,1,1.33-4,4.87,4.87,0,0,1,3.73-1.41,5.24,5.24,0,0,1,2.63.65,4.34,4.34,0,0,1,1.75,1.86A6.26,6.26,0,0,1,38.27,16.3Zm-7.17,0a4.35,4.35,0,0,0,.51,2.33,1.81,1.81,0,0,0,1.65.79,1.78,1.78,0,0,0,1.63-.78,4.42,4.42,0,0,0,.5-2.33,4.29,4.29,0,0,0-.5-2.31,2.13,2.13,0,0,0-3.27,0A4.28,4.28,0,0,0,31.09,16.3Z" transform="translate(-6.81 -6.95)"/><path class="cd028ff4-fb25-4cdd-8408-284b301a782c" d="M43.43,21.51H40.6V7.07h2.83Z" transform="translate(-6.81 -6.95)"/><path class="cd028ff4-fb25-4cdd-8408-284b301a782c" d="M53.75,21.51l-.38-1.33h-.15a3,3,0,0,1-1.29,1.12,4.4,4.4,0,0,1-1.9.39,3.62,3.62,0,0,1-2.76-1,3.94,3.94,0,0,1-.93-2.82V11.13h2.83v6.06a2.91,2.91,0,0,0,.4,1.68,1.45,1.45,0,0,0,1.27.56,1.91,1.91,0,0,0,1.72-.79A4.92,4.92,0,0,0,53.09,16V11.13h2.83V21.51Z" transform="translate(-6.81 -6.95)"/><path class="cd028ff4-fb25-4cdd-8408-284b301a782c" d="M63.1,21.69q-4.84,0-4.84-5.32a5.67,5.67,0,0,1,1.32-4,4.94,4.94,0,0,1,3.78-1.4,7.2,7.2,0,0,1,3.23.71l-.83,2.19q-.67-.27-1.24-.44a4,4,0,0,0-1.15-.17q-2.21,0-2.21,3.14t2.21,3a5,5,0,0,0,1.51-.22,5.44,5.44,0,0,0,1.39-.68v2.42a4.56,4.56,0,0,1-1.39.6A7.81,7.81,0,0,1,63.1,21.69Z" transform="translate(-6.81 -6.95)"/><path class="cd028ff4-fb25-4cdd-8408-284b301a782c" d="M68.54,8.45q0-1.38,1.54-1.38t1.54,1.38a1.35,1.35,0,0,1-.39,1,1.62,1.62,0,0,1-1.15.37Q68.54,9.85,68.54,8.45Zm3,13.05H68.66V11.13h2.83Z" transform="translate(-6.81 -6.95)"/><path class="cd028ff4-fb25-4cdd-8408-284b301a782c" d="M83.88,16.3a5.57,5.57,0,0,1-1.34,4,4.84,4.84,0,0,1-3.72,1.43A5.2,5.2,0,0,1,76.19,21a4.35,4.35,0,0,1-1.75-1.88,6.31,6.31,0,0,1-.61-2.86,5.54,5.54,0,0,1,1.33-4,4.87,4.87,0,0,1,3.73-1.41,5.24,5.24,0,0,1,2.63.65,4.34,4.34,0,0,1,1.75,1.86A6.26,6.26,0,0,1,83.88,16.3Zm-7.17,0a4.35,4.35,0,0,0,.51,2.33,1.81,1.81,0,0,0,1.65.79,1.78,1.78,0,0,0,1.63-.78A4.42,4.42,0,0,0,81,16.3a4.29,4.29,0,0,0-.5-2.31,2.13,2.13,0,0,0-3.27,0A4.28,4.28,0,0,0,76.71,16.3ZM77.3,10V9.74A26.11,26.11,0,0,0,79.48,7h3.17v.19q-.48.48-1.65,1.43T79.19,10Z" transform="translate(-6.81 -6.95)"/><path class="cd028ff4-fb25-4cdd-8408-284b301a782c" d="M95.79,21.51H93V15.45a2.91,2.91,0,0,0-.4-1.68,1.45,1.45,0,0,0-1.27-.56,1.91,1.91,0,0,0-1.72.79A4.92,4.92,0,0,0,89,16.63v4.88H86.22V11.13h2.16l.38,1.33h.16a3,3,0,0,1,1.3-1.14,4.44,4.44,0,0,1,1.89-.39,3.63,3.63,0,0,1,2.75,1,3.93,3.93,0,0,1,.94,2.82Z" transform="translate(-6.81 -6.95)"/><path class="cd028ff4-fb25-4cdd-8408-284b301a782c" d="M106.93,21.69a3.37,3.37,0,0,1-2.87-1.42,6.52,6.52,0,0,1-1-3.93,6.53,6.53,0,0,1,1.06-4A3.45,3.45,0,0,1,107,10.94a3.38,3.38,0,0,1,3,1.52h.09a11.53,11.53,0,0,1-.21-2.07V7.07h2.84V21.51h-2.17L110,20.16h-.12A3.24,3.24,0,0,1,106.93,21.69Zm1-2.25a1.92,1.92,0,0,0,1.59-.63,3.67,3.67,0,0,0,.55-2.14v-.31a4.25,4.25,0,0,0-.51-2.39,1.91,1.91,0,0,0-1.67-.72,1.66,1.66,0,0,0-1.47.8,4.29,4.29,0,0,0-.52,2.33,4.06,4.06,0,0,0,.53,2.3A1.73,1.73,0,0,0,107.92,19.44Z" transform="translate(-6.81 -6.95)"/><path class="cd028ff4-fb25-4cdd-8408-284b301a782c" d="M120.36,21.69a5.35,5.35,0,0,1-3.92-1.38A5.23,5.23,0,0,1,115,16.4a5.76,5.76,0,0,1,1.3-4,4.64,4.64,0,0,1,3.6-1.42,4.57,4.57,0,0,1,3.42,1.25,4.74,4.74,0,0,1,1.22,3.46V17H117.9a2.72,2.72,0,0,0,.71,1.88,2.51,2.51,0,0,0,1.87.68,7.78,7.78,0,0,0,1.77-.19,8.86,8.86,0,0,0,1.74-.62V21a6.67,6.67,0,0,1-1.59.55A10,10,0,0,1,120.36,21.69ZM120,13a1.8,1.8,0,0,0-1.41.57,2.64,2.64,0,0,0-.58,1.62h4a2.36,2.36,0,0,0-.55-1.62A1.86,1.86,0,0,0,120,13Z" transform="translate(-6.81 -6.95)"/><path class="cd028ff4-fb25-4cdd-8408-284b301a782c" d="M129.72,21.51h-2.83V7.07h2.83Z" transform="translate(-6.81 -6.95)"/><path class="cd028ff4-fb25-4cdd-8408-284b301a782c" d="M147.22,12.17a4.15,4.15,0,0,1-1.37,3.35A5.85,5.85,0,0,1,142,16.68h-1.23v4.82h-2.88V7.94h4.33A5.76,5.76,0,0,1,145.93,9,3.87,3.87,0,0,1,147.22,12.17Zm-6.49,2.15h.95a3.15,3.15,0,0,0,2-.52,1.83,1.83,0,0,0,.66-1.53,1.88,1.88,0,0,0-.55-1.49A2.59,2.59,0,0,0,142,10.3h-1.31Z" transform="translate(-6.81 -6.95)"/><path class="cd028ff4-fb25-4cdd-8408-284b301a782c" d="M149.78,21.51V7.94h2.88V21.51Z" transform="translate(-6.81 -6.95)"/><path class="cd028ff4-fb25-4cdd-8408-284b301a782c" d="M156.07,7.94h4.22a8.13,8.13,0,0,1,4.19.82,2.86,2.86,0,0,1,1.3,2.61,3.29,3.29,0,0,1-.57,2,2.28,2.28,0,0,1-1.52.94v.09a3,3,0,0,1,1.86,1.08,3.5,3.5,0,0,1,.57,2.1,3.45,3.45,0,0,1-1.34,2.89,5.8,5.8,0,0,1-3.64,1h-5.07Zm2.88,5.37h1.67a3.05,3.05,0,0,0,1.69-.36,1.35,1.35,0,0,0,.52-1.2,1.2,1.2,0,0,0-.57-1.12,3.66,3.66,0,0,0-1.8-.34h-1.51Zm0,2.28v3.53h1.87a2.78,2.78,0,0,0,1.75-.45,1.68,1.68,0,0,0,.57-1.39q0-1.69-2.41-1.69Z" transform="translate(-6.81 -6.95)"/><path class="cd028ff4-fb25-4cdd-8408-284b301a782c" d="M171.39,19.51A28.81,28.81,0,0,1,169.75,24h-2q.6-2.47.94-4.66h2.6Z" transform="translate(-6.81 -6.95)"/><path class="cd028ff4-fb25-4cdd-8408-284b301a782c" d="M186.82,21.51H184V7.07h2.83Z" transform="translate(-6.81 -6.95)"/><path class="cd028ff4-fb25-4cdd-8408-284b301a782c" d="M196.38,21.51l-.55-1.41h-.07a4.19,4.19,0,0,1-1.47,1.25,4.76,4.76,0,0,1-2,.35,3.18,3.18,0,0,1-2.35-.85,3.28,3.28,0,0,1-.86-2.43A2.74,2.74,0,0,1,190.26,16a6.69,6.69,0,0,1,3.48-.87l1.8-.06V14.6A1.41,1.41,0,0,0,193.93,13a7.35,7.35,0,0,0-2.92.75l-.94-1.91a8.43,8.43,0,0,1,4-.94,5,5,0,0,1,3.2.91,3.36,3.36,0,0,1,1.11,2.76v6.91Zm-.83-4.81-1.09,0a3.51,3.51,0,0,0-1.84.45,1.4,1.4,0,0,0-.6,1.24q0,1.2,1.37,1.2a2.18,2.18,0,0,0,1.57-.57,2,2,0,0,0,.59-1.5Z" transform="translate(-6.81 -6.95)"/><path class="cd028ff4-fb25-4cdd-8408-284b301a782c" d="M210.9,21.69A5.35,5.35,0,0,1,207,20.31a5.23,5.23,0,0,1-1.41-3.92,5.76,5.76,0,0,1,1.3-4,4.64,4.64,0,0,1,3.6-1.42,4.57,4.57,0,0,1,3.42,1.25,4.74,4.74,0,0,1,1.22,3.46V17h-6.69a2.72,2.72,0,0,0,.71,1.88,2.51,2.51,0,0,0,1.87.68,7.78,7.78,0,0,0,1.77-.19,8.86,8.86,0,0,0,1.74-.62V21a6.67,6.67,0,0,1-1.59.55A10,10,0,0,1,210.9,21.69ZM210.5,13a1.8,1.8,0,0,0-1.41.57,2.64,2.64,0,0,0-.58,1.62h4a2.36,2.36,0,0,0-.55-1.62A1.86,1.86,0,0,0,210.5,13Z" transform="translate(-6.81 -6.95)"/><path class="cd028ff4-fb25-4cdd-8408-284b301a782c" d="M224.67,18.43a2.86,2.86,0,0,1-1.11,2.43,5.48,5.48,0,0,1-3.32.83,10.37,10.37,0,0,1-1.93-.15,7.24,7.24,0,0,1-1.49-.45V18.75a9.85,9.85,0,0,0,1.78.62,7.2,7.2,0,0,0,1.74.25q1.54,0,1.54-.89a.74.74,0,0,0-.2-.54,3,3,0,0,0-.71-.47q-.5-.26-1.34-.62a8.4,8.4,0,0,1-1.76-.93,2.61,2.61,0,0,1-.82-1,3.23,3.23,0,0,1-.25-1.36,2.46,2.46,0,0,1,1.07-2.14,5.22,5.22,0,0,1,3-.76,8.63,8.63,0,0,1,3.65.82l-.85,2q-.78-.33-1.46-.55a4.58,4.58,0,0,0-1.38-.21q-1.25,0-1.25.68a.79.79,0,0,0,.4.66,10.93,10.93,0,0,0,1.77.83,8.25,8.25,0,0,1,1.78.92,2.72,2.72,0,0,1,.83,1A3,3,0,0,1,224.67,18.43Z" transform="translate(-6.81 -6.95)"/><path class="cd028ff4-fb25-4cdd-8408-284b301a782c" d="M232.57,21.69a3.44,3.44,0,0,1-2.87-1.33h-.15q.15,1.3.15,1.5v4.2h-2.83V11.13h2.3l.4,1.35h.13a3.27,3.27,0,0,1,2.94-1.54,3.37,3.37,0,0,1,2.88,1.42,6.57,6.57,0,0,1,1,3.94,7.77,7.77,0,0,1-.49,2.89,4,4,0,0,1-1.39,1.86A3.55,3.55,0,0,1,232.57,21.69Zm-.83-8.49a1.79,1.79,0,0,0-1.53.65,3.7,3.7,0,0,0-.5,2.13v.31a4.37,4.37,0,0,0,.5,2.39,1.77,1.77,0,0,0,1.57.72q1.9,0,1.9-3.14a4.48,4.48,0,0,0-.47-2.3A1.6,1.6,0,0,0,231.74,13.2Z" transform="translate(-6.81 -6.95)"/><path class="cd028ff4-fb25-4cdd-8408-284b301a782c" d="M243.59,21.69a5.35,5.35,0,0,1-3.92-1.38,5.23,5.23,0,0,1-1.41-3.92,5.76,5.76,0,0,1,1.3-4,4.64,4.64,0,0,1,3.6-1.42,4.57,4.57,0,0,1,3.42,1.25,4.74,4.74,0,0,1,1.22,3.46V17h-6.69a2.72,2.72,0,0,0,.71,1.88,2.51,2.51,0,0,0,1.87.68,7.78,7.78,0,0,0,1.77-.19,8.86,8.86,0,0,0,1.74-.62V21a6.67,6.67,0,0,1-1.59.55A10,10,0,0,1,243.59,21.69Zm-.4-8.74a1.8,1.8,0,0,0-1.41.57,2.64,2.64,0,0,0-.58,1.62h4a2.36,2.36,0,0,0-.55-1.62A1.86,1.86,0,0,0,243.19,13Z" transform="translate(-6.81 -6.95)"/><path class="cd028ff4-fb25-4cdd-8408-284b301a782c" d="M255.91,10.94a4.57,4.57,0,0,1,1,.08l-.21,2.65a3.26,3.26,0,0,0-.83-.09,3,3,0,0,0-2.11.7,2.51,2.51,0,0,0-.76,1.95v5.28h-2.83V11.13h2.14l.42,1.74h.14a3.9,3.9,0,0,1,1.3-1.41A3.21,3.21,0,0,1,255.91,10.94Z" transform="translate(-6.81 -6.95)"/><path class="cd028ff4-fb25-4cdd-8408-284b301a782c" d="M265.34,21.51l-.55-1.41h-.07a4.19,4.19,0,0,1-1.47,1.25,4.76,4.76,0,0,1-2,.35,3.18,3.18,0,0,1-2.35-.85,3.28,3.28,0,0,1-.86-2.43A2.74,2.74,0,0,1,259.22,16a6.69,6.69,0,0,1,3.48-.87l1.8-.06V14.6A1.41,1.41,0,0,0,262.89,13a7.35,7.35,0,0,0-2.92.75L259,11.86a8.43,8.43,0,0,1,4-.94,5,5,0,0,1,3.2.91,3.36,3.36,0,0,1,1.11,2.76v6.91Zm-.83-4.81-1.09,0a3.51,3.51,0,0,0-1.84.45,1.4,1.4,0,0,0-.6,1.24q0,1.2,1.37,1.2a2.18,2.18,0,0,0,1.57-.57,2,2,0,0,0,.59-1.5Z" transform="translate(-6.81 -6.95)"/><path class="cd028ff4-fb25-4cdd-8408-284b301a782c" d="M279.8,21.51H277V15.45a2.91,2.91,0,0,0-.4-1.68,1.45,1.45,0,0,0-1.27-.56,1.91,1.91,0,0,0-1.72.79,4.92,4.92,0,0,0-.53,2.63v4.88h-2.83V11.13h2.16l.38,1.33h.16a3,3,0,0,1,1.3-1.14,4.44,4.44,0,0,1,1.89-.39,3.63,3.63,0,0,1,2.75,1,3.93,3.93,0,0,1,.94,2.82Z" transform="translate(-6.81 -6.95)"/><path class="cd028ff4-fb25-4cdd-8408-284b301a782c" d="M289.93,21.51h-8.19V19.84l4.81-6.54H282V11.13h7.74V13l-4.68,6.37h4.84Z" transform="translate(-6.81 -6.95)"/><path class="cd028ff4-fb25-4cdd-8408-284b301a782c" d="M298.57,21.51,298,20.1h-.07a4.18,4.18,0,0,1-1.47,1.25,4.76,4.76,0,0,1-2,.35,3.18,3.18,0,0,1-2.35-.85,3.28,3.28,0,0,1-.86-2.43A2.74,2.74,0,0,1,292.45,16a6.69,6.69,0,0,1,3.48-.87l1.8-.06V14.6A1.41,1.41,0,0,0,296.12,13a7.36,7.36,0,0,0-2.92.75l-.94-1.91a8.43,8.43,0,0,1,4-.94,5,5,0,0,1,3.2.91,3.36,3.36,0,0,1,1.11,2.76v6.91Zm-.83-4.81-1.09,0a3.51,3.51,0,0,0-1.84.45,1.4,1.4,0,0,0-.6,1.24q0,1.2,1.37,1.2a2.18,2.18,0,0,0,1.57-.57,2,2,0,0,0,.59-1.5Z" transform="translate(-6.81 -6.95)"/><path class="cd028ff4-fb25-4cdd-8408-284b301a782c" d="M311.68,21.69a3.37,3.37,0,0,1-2.87-1.42,6.52,6.52,0,0,1-1-3.93,6.53,6.53,0,0,1,1.06-4,3.45,3.45,0,0,1,2.93-1.42,3.38,3.38,0,0,1,3,1.52h.09a11.54,11.54,0,0,1-.21-2.07V7.07h2.84V21.51h-2.17l-.55-1.35h-.12A3.24,3.24,0,0,1,311.68,21.69Zm1-2.25a1.92,1.92,0,0,0,1.59-.63,3.67,3.67,0,0,0,.55-2.14v-.31A4.25,4.25,0,0,0,314.3,14a1.91,1.91,0,0,0-1.67-.72,1.66,1.66,0,0,0-1.47.8,4.28,4.28,0,0,0-.52,2.33,4.06,4.06,0,0,0,.53,2.3A1.73,1.73,0,0,0,312.67,19.44Z" transform="translate(-6.81 -6.95)"/><path class="cd028ff4-fb25-4cdd-8408-284b301a782c" d="M325.11,21.69a5.35,5.35,0,0,1-3.92-1.38,5.23,5.23,0,0,1-1.41-3.92,5.76,5.76,0,0,1,1.3-4,4.64,4.64,0,0,1,3.6-1.42,4.57,4.57,0,0,1,3.42,1.25,4.74,4.74,0,0,1,1.22,3.46V17h-6.69a2.72,2.72,0,0,0,.71,1.88,2.51,2.51,0,0,0,1.87.68,7.77,7.77,0,0,0,1.77-.19,8.84,8.84,0,0,0,1.74-.62V21a6.65,6.65,0,0,1-1.59.55A10,10,0,0,1,325.11,21.69Zm-.4-8.74a1.8,1.8,0,0,0-1.41.57,2.65,2.65,0,0,0-.58,1.62h4a2.37,2.37,0,0,0-.55-1.62A1.86,1.86,0,0,0,324.71,13Z" transform="translate(-6.81 -6.95)"/><path class="cd028ff4-fb25-4cdd-8408-284b301a782c" d="M339,21.51l-4-10.37h3l2,5.91a10.55,10.55,0,0,1,.42,2.12h.06a9.27,9.27,0,0,1,.42-2.12l2-5.91h3l-4,10.37Z" transform="translate(-6.81 -6.95)"/><path class="cd028ff4-fb25-4cdd-8408-284b301a782c" d="M347.27,8.45q0-1.38,1.54-1.38t1.54,1.38a1.35,1.35,0,0,1-.38,1,1.62,1.62,0,0,1-1.15.37Q347.27,9.85,347.27,8.45Zm3,13.05h-2.83V11.13h2.83Z" transform="translate(-6.81 -6.95)"/><path class="cd028ff4-fb25-4cdd-8408-284b301a782c" d="M356.47,21.69a3.37,3.37,0,0,1-2.87-1.42,6.52,6.52,0,0,1-1-3.93,6.53,6.53,0,0,1,1.06-4,3.45,3.45,0,0,1,2.93-1.42,3.38,3.38,0,0,1,3,1.52h.09a11.54,11.54,0,0,1-.21-2.07V7.07h2.84V21.51h-2.17l-.55-1.35h-.12A3.24,3.24,0,0,1,356.47,21.69Zm1-2.25a1.92,1.92,0,0,0,1.59-.63,3.67,3.67,0,0,0,.55-2.14v-.31a4.25,4.25,0,0,0-.51-2.39,1.91,1.91,0,0,0-1.67-.72,1.66,1.66,0,0,0-1.47.8,4.28,4.28,0,0,0-.52,2.33,4.06,4.06,0,0,0,.53,2.3A1.73,1.73,0,0,0,357.46,19.44Z" transform="translate(-6.81 -6.95)"/><path class="cd028ff4-fb25-4cdd-8408-284b301a782c" d="M371.8,21.51l-.55-1.41h-.07a4.18,4.18,0,0,1-1.47,1.25,4.76,4.76,0,0,1-2,.35,3.18,3.18,0,0,1-2.35-.85,3.28,3.28,0,0,1-.86-2.43A2.74,2.74,0,0,1,365.68,16a6.69,6.69,0,0,1,3.48-.87L371,15V14.6A1.41,1.41,0,0,0,369.35,13a7.36,7.36,0,0,0-2.92.75l-.94-1.91a8.43,8.43,0,0,1,4-.94,5,5,0,0,1,3.2.91,3.36,3.36,0,0,1,1.11,2.76v6.91ZM371,16.7l-1.09,0a3.51,3.51,0,0,0-1.84.45,1.4,1.4,0,0,0-.6,1.24q0,1.2,1.37,1.2a2.18,2.18,0,0,0,1.57-.57,2,2,0,0,0,.59-1.5Z" transform="translate(-6.81 -6.95)"/><path class="cd028ff4-fb25-4cdd-8408-284b301a782c" d="M380.14,11.13h3.1l2,5.84a8.14,8.14,0,0,1,.34,1.8h.06A8,8,0,0,1,386,17l1.92-5.84h3l-4.39,11.7a5.07,5.07,0,0,1-1.72,2.43,4.35,4.35,0,0,1-2.61.81,6.58,6.58,0,0,1-1.44-.16V23.67a4.85,4.85,0,0,0,1.11.12,2,2,0,0,0,1.31-.46,3,3,0,0,0,.88-1.39l.17-.51Z" transform="translate(-6.81 -6.95)"/><path class="cd028ff4-fb25-4cdd-8408-284b301a782c" d="M400.2,21.51h-2.83V7.07h2.83Z" transform="translate(-6.81 -6.95)"/><path class="cd028ff4-fb25-4cdd-8408-284b301a782c" d="M409.75,21.51l-.55-1.41h-.07a4.18,4.18,0,0,1-1.47,1.25,4.76,4.76,0,0,1-2,.35,3.18,3.18,0,0,1-2.35-.85,3.28,3.28,0,0,1-.86-2.43A2.74,2.74,0,0,1,403.63,16a6.69,6.69,0,0,1,3.48-.87l1.8-.06V14.6A1.41,1.41,0,0,0,407.3,13a7.36,7.36,0,0,0-2.92.75l-.94-1.91a8.43,8.43,0,0,1,4-.94,5,5,0,0,1,3.2.91,3.36,3.36,0,0,1,1.11,2.76v6.91Zm-.83-4.81-1.09,0a3.51,3.51,0,0,0-1.84.45,1.4,1.4,0,0,0-.6,1.24q0,1.2,1.37,1.2a2.18,2.18,0,0,0,1.57-.57,2,2,0,0,0,.59-1.5Z" transform="translate(-6.81 -6.95)"/><path class="cd028ff4-fb25-4cdd-8408-284b301a782c" d="M425.27,21.69a3.44,3.44,0,0,1-2.87-1.33h-.15q.15,1.3.15,1.5v4.2h-2.83V11.13h2.3l.4,1.35h.13a3.27,3.27,0,0,1,2.94-1.54,3.37,3.37,0,0,1,2.88,1.42,6.57,6.57,0,0,1,1,3.94,7.77,7.77,0,0,1-.49,2.89,4,4,0,0,1-1.39,1.86A3.55,3.55,0,0,1,425.27,21.69Zm-.83-8.49a1.79,1.79,0,0,0-1.53.65,3.7,3.7,0,0,0-.5,2.13v.31a4.37,4.37,0,0,0,.5,2.39,1.77,1.77,0,0,0,1.57.72q1.9,0,1.9-3.14a4.49,4.49,0,0,0-.47-2.3A1.6,1.6,0,0,0,424.44,13.2Z" transform="translate(-6.81 -6.95)"/><path class="cd028ff4-fb25-4cdd-8408-284b301a782c" d="M441,16.3a5.57,5.57,0,0,1-1.34,4A4.84,4.84,0,0,1,436,21.69a5.2,5.2,0,0,1-2.63-.65,4.35,4.35,0,0,1-1.75-1.88A6.31,6.31,0,0,1,431,16.3a5.55,5.55,0,0,1,1.33-4A4.87,4.87,0,0,1,436,10.94a5.24,5.24,0,0,1,2.63.65,4.34,4.34,0,0,1,1.75,1.86A6.26,6.26,0,0,1,441,16.3Zm-7.17,0a4.35,4.35,0,0,0,.51,2.33,1.81,1.81,0,0,0,1.65.79,1.78,1.78,0,0,0,1.63-.78,4.42,4.42,0,0,0,.5-2.33,4.29,4.29,0,0,0-.5-2.31,2.13,2.13,0,0,0-3.27,0A4.28,4.28,0,0,0,433.85,16.3Z" transform="translate(-6.81 -6.95)"/><path class="cd028ff4-fb25-4cdd-8408-284b301a782c" d="M449.13,10.94A3.36,3.36,0,0,1,452,12.37a6.58,6.58,0,0,1,1,3.93,6.46,6.46,0,0,1-1.07,4,3.74,3.74,0,0,1-5.78.08H446l-.47,1.14h-2.16V7.07h2.83v3.36q0,.64-.11,2.05h.11A3.27,3.27,0,0,1,449.13,10.94Zm-.91,2.26a1.79,1.79,0,0,0-1.53.65,3.7,3.7,0,0,0-.5,2.13v.31a4.37,4.37,0,0,0,.5,2.39,1.77,1.77,0,0,0,1.57.72,1.58,1.58,0,0,0,1.39-.8,4.34,4.34,0,0,0,.52-2.33,4.12,4.12,0,0,0-.52-2.3A1.63,1.63,0,0,0,448.22,13.2Z" transform="translate(-6.81 -6.95)"/><path class="cd028ff4-fb25-4cdd-8408-284b301a782c" d="M458.22,21.51h-2.83V7.07h2.83Z" transform="translate(-6.81 -6.95)"/><path class="cd028ff4-fb25-4cdd-8408-284b301a782c" d="M467.77,21.51l-.55-1.41h-.07a4.18,4.18,0,0,1-1.47,1.25,4.76,4.76,0,0,1-2,.35,3.18,3.18,0,0,1-2.35-.85,3.28,3.28,0,0,1-.86-2.43A2.74,2.74,0,0,1,461.65,16a6.69,6.69,0,0,1,3.48-.87l1.8-.06V14.6A1.41,1.41,0,0,0,465.32,13a7.36,7.36,0,0,0-2.92.75l-.94-1.91a8.43,8.43,0,0,1,4-.94,5,5,0,0,1,3.2.91,3.36,3.36,0,0,1,1.11,2.76v6.91Zm-.83-4.81-1.09,0a3.51,3.51,0,0,0-1.84.45,1.4,1.4,0,0,0-.6,1.24q0,1.2,1.37,1.2a2.18,2.18,0,0,0,1.57-.57,2,2,0,0,0,.59-1.5Z" transform="translate(-6.81 -6.95)"/><path class="cd028ff4-fb25-4cdd-8408-284b301a782c" d="M476.87,21.69q-4.84,0-4.84-5.32a5.67,5.67,0,0,1,1.32-4,4.94,4.94,0,0,1,3.78-1.4,7.21,7.21,0,0,1,3.23.71l-.84,2.19q-.67-.27-1.24-.44a4,4,0,0,0-1.15-.17q-2.21,0-2.21,3.14t2.21,3a5,5,0,0,0,1.51-.22A5.44,5.44,0,0,0,480,18.5v2.42a4.56,4.56,0,0,1-1.39.6A7.81,7.81,0,0,1,476.87,21.69Z" transform="translate(-6.81 -6.95)"/><path class="cd028ff4-fb25-4cdd-8408-284b301a782c" d="M482.31,8.45q0-1.38,1.54-1.38t1.54,1.38a1.35,1.35,0,0,1-.38,1,1.62,1.62,0,0,1-1.15.37Q482.31,9.85,482.31,8.45Zm3,13.05h-2.83V11.13h2.83Z" transform="translate(-6.81 -6.95)"/><path class="cd028ff4-fb25-4cdd-8408-284b301a782c" d="M497.66,16.3a5.57,5.57,0,0,1-1.34,4,4.84,4.84,0,0,1-3.72,1.43A5.2,5.2,0,0,1,490,21a4.35,4.35,0,0,1-1.75-1.88,6.31,6.31,0,0,1-.61-2.86,5.55,5.55,0,0,1,1.33-4,4.87,4.87,0,0,1,3.73-1.41,5.24,5.24,0,0,1,2.63.65A4.34,4.34,0,0,1,497,13.45,6.26,6.26,0,0,1,497.66,16.3Zm-7.17,0a4.35,4.35,0,0,0,.51,2.33,1.81,1.81,0,0,0,1.65.79,1.78,1.78,0,0,0,1.63-.78,4.42,4.42,0,0,0,.5-2.33,4.29,4.29,0,0,0-.5-2.31A2.13,2.13,0,0,0,491,14,4.28,4.28,0,0,0,490.48,16.3Zm.59-6.31V9.74A26,26,0,0,0,493.26,7h3.17v.19q-.48.48-1.65,1.43T493,10Z" transform="translate(-6.81 -6.95)"/><path class="cd028ff4-fb25-4cdd-8408-284b301a782c" d="M509.57,21.51h-2.83V15.45a2.91,2.91,0,0,0-.4-1.68,1.45,1.45,0,0,0-1.27-.56,1.91,1.91,0,0,0-1.72.79,4.92,4.92,0,0,0-.53,2.63v4.88H500V11.13h2.16l.38,1.33h.16a3,3,0,0,1,1.3-1.14,4.44,4.44,0,0,1,1.89-.39,3.62,3.62,0,0,1,2.75,1,3.93,3.93,0,0,1,.94,2.82Z" transform="translate(-6.81 -6.95)"/><path class="cd028ff4-fb25-4cdd-8408-284b301a782c" d="M522.11,21.69a5.35,5.35,0,0,1-3.92-1.38,5.23,5.23,0,0,1-1.41-3.92,5.76,5.76,0,0,1,1.3-4,4.64,4.64,0,0,1,3.6-1.42,4.57,4.57,0,0,1,3.42,1.25,4.74,4.74,0,0,1,1.22,3.46V17h-6.69a2.72,2.72,0,0,0,.71,1.88,2.51,2.51,0,0,0,1.87.68,7.77,7.77,0,0,0,1.77-.19,8.84,8.84,0,0,0,1.74-.62V21a6.65,6.65,0,0,1-1.59.55A10,10,0,0,1,522.11,21.69Zm-.4-8.74a1.8,1.8,0,0,0-1.41.57,2.65,2.65,0,0,0-.58,1.62h4a2.37,2.37,0,0,0-.55-1.62A1.86,1.86,0,0,0,521.71,13Z" transform="translate(-6.81 -6.95)"/><path class="cd028ff4-fb25-4cdd-8408-284b301a782c" d="M538.22,21.51h-2.83V15.45a2.91,2.91,0,0,0-.4-1.68,1.45,1.45,0,0,0-1.27-.56A1.91,1.91,0,0,0,532,14a4.92,4.92,0,0,0-.53,2.63v4.88h-2.83V11.13h2.16l.38,1.33h.16a3,3,0,0,1,1.3-1.14,4.44,4.44,0,0,1,1.89-.39,3.62,3.62,0,0,1,2.75,1,3.93,3.93,0,0,1,.94,2.82Z" transform="translate(-6.81 -6.95)"/><path class="cd028ff4-fb25-4cdd-8408-284b301a782c" d="M549.16,16.3v5.2h-2.88V7.94h4a6.76,6.76,0,0,1,4.09,1A3.59,3.59,0,0,1,555.66,12a3.6,3.6,0,0,1-.66,2.13,4.35,4.35,0,0,1-1.86,1.46q3.06,4.57,4,5.91h-3.19l-3.24-5.2Zm0-2.34h.93a3.55,3.55,0,0,0,2-.45,1.62,1.62,0,0,0,.65-1.43,1.48,1.48,0,0,0-.66-1.37A4,4,0,0,0,550,10.3h-.87Z" transform="translate(-6.81 -6.95)"/><path class="cd028ff4-fb25-4cdd-8408-284b301a782c" d="M566,21.51l-.38-1.33h-.15a3,3,0,0,1-1.29,1.12,4.4,4.4,0,0,1-1.9.39,3.62,3.62,0,0,1-2.75-1,3.94,3.94,0,0,1-.93-2.82V11.13h2.83v6.06a2.91,2.91,0,0,0,.4,1.68,1.45,1.45,0,0,0,1.27.56,1.91,1.91,0,0,0,1.72-.79A4.92,4.92,0,0,0,565.3,16V11.13h2.83V21.51Z" transform="translate(-6.81 -6.95)"/><path class="cd028ff4-fb25-4cdd-8408-284b301a782c" d="M578.33,18.43a2.86,2.86,0,0,1-1.11,2.43,5.48,5.48,0,0,1-3.32.83,10.38,10.38,0,0,1-1.93-.15,7.26,7.26,0,0,1-1.49-.45V18.75a9.85,9.85,0,0,0,1.78.62,7.2,7.2,0,0,0,1.74.25q1.54,0,1.54-.89a.74.74,0,0,0-.2-.54,3,3,0,0,0-.71-.47q-.5-.26-1.34-.62a8.36,8.36,0,0,1-1.76-.93,2.61,2.61,0,0,1-.82-1,3.23,3.23,0,0,1-.25-1.36,2.46,2.46,0,0,1,1.07-2.14,5.22,5.22,0,0,1,3-.76,8.63,8.63,0,0,1,3.65.82l-.85,2q-.78-.33-1.46-.55a4.58,4.58,0,0,0-1.38-.21q-1.25,0-1.25.68a.8.8,0,0,0,.4.66,10.9,10.9,0,0,0,1.77.83,8.27,8.27,0,0,1,1.78.92,2.71,2.71,0,0,1,.83,1A3,3,0,0,1,578.33,18.43Z" transform="translate(-6.81 -6.95)"/><path class="cd028ff4-fb25-4cdd-8408-284b301a782c" d="M580.42,8.45q0-1.38,1.54-1.38t1.54,1.38a1.35,1.35,0,0,1-.38,1,1.62,1.62,0,0,1-1.15.37Q580.42,9.85,580.42,8.45Zm3,13.05h-2.83V11.13h2.83Z" transform="translate(-6.81 -6.95)"/><path class="cd028ff4-fb25-4cdd-8408-284b301a782c" d="M592.92,21.51l-.55-1.41h-.07a4.18,4.18,0,0,1-1.47,1.25,4.76,4.76,0,0,1-2,.35,3.18,3.18,0,0,1-2.35-.85,3.28,3.28,0,0,1-.86-2.43A2.74,2.74,0,0,1,586.81,16a6.69,6.69,0,0,1,3.48-.87l1.8-.06V14.6A1.41,1.41,0,0,0,590.48,13a7.36,7.36,0,0,0-2.92.75l-.94-1.91a8.43,8.43,0,0,1,4-.94,5,5,0,0,1,3.2.91,3.36,3.36,0,0,1,1.11,2.76v6.91Zm-.83-4.81-1.09,0a3.51,3.51,0,0,0-1.84.45,1.4,1.4,0,0,0-.6,1.24q0,1.2,1.37,1.2a2.18,2.18,0,0,0,1.57-.57,2,2,0,0,0,.59-1.5Z" transform="translate(-6.81 -6.95)"/><path class="407daeaf-726c-442f-9142-43a3e55eb8ad" d="M9,407c10.32,0,10.32-.58,20.64-.58s10.32-.34,20.64-.34S60.61,406,70.93,406s10.32.17,20.64.17,10.32.19,20.64.19,10.32,0,20.64,0,10.32.22,20.64.22,10.32.25,20.64.25,10.32.25,20.64.25,10.32.46,20.64.46,10.32.62,20.64.62,10.32.63,20.64.63,10.32.68,20.64.68,10.32.66,20.64.66,10.32.59,20.64.59,10.32.55,20.64.55,10.32.47,20.64.47,10.32.25,20.64.25,10.32.06,20.64.06,10.32,0,20.64,0,10.32-.06,20.64-.06,10.32-.11,20.64-.11,10.32-.24,20.64-.24,10.32-.31,20.64-.31,10.32-.32,20.64-.32,10.32-.28,20.64-.28,10.32-.25,20.64-.25,10.32-.15,20.64-.15v146H9Z" transform="translate(-6.81 -6.95)"/><path class="cd028ff4-fb25-4cdd-8408-284b301a782c" d="M15.65,393.55a3.33,3.33,0,0,1-1.17,2.74,5.17,5.17,0,0,1-3.34,1H10v4.27H8.09V390.09h3.29a5,5,0,0,1,3.21.88A3.14,3.14,0,0,1,15.65,393.55ZM10,395.67h1a3.56,3.56,0,0,0,2.11-.5,1.82,1.82,0,0,0,.67-1.56,1.77,1.77,0,0,0-.6-1.47,3,3,0,0,0-1.87-.48H10Z" transform="translate(-6.81 -6.95)"/><path class="cd028ff4-fb25-4cdd-8408-284b301a782c" d="M25.4,397.18a4.72,4.72,0,0,1-1.09,3.3,3.89,3.89,0,0,1-3,1.19,4.15,4.15,0,0,1-2.14-.55,3.61,3.61,0,0,1-1.43-1.57,5.36,5.36,0,0,1-.5-2.37,4.68,4.68,0,0,1,1.08-3.28,3.91,3.91,0,0,1,3-1.18,3.81,3.81,0,0,1,3,1.21A4.66,4.66,0,0,1,25.4,397.18Zm-6.29,0q0,3,2.21,3t2.19-3q0-3-2.2-3a1.88,1.88,0,0,0-1.68.77A3.89,3.89,0,0,0,19.11,397.18Z" transform="translate(-6.81 -6.95)"/><path class="cd028ff4-fb25-4cdd-8408-284b301a782c" d="M31.92,392.72a3,3,0,0,1,2.52,1.17,6.45,6.45,0,0,1,0,6.6,3.33,3.33,0,0,1-5.09,0h-.12l-.34,1H27.51V389.36h1.84v2.89c0,.21,0,.53,0,1s0,.69,0,.8h.08A2.91,2.91,0,0,1,31.92,392.72Zm-.48,1.5a1.86,1.86,0,0,0-1.6.65,3.8,3.8,0,0,0-.5,2.18v.13a4,4,0,0,0,.5,2.29,1.86,1.86,0,0,0,1.63.71A1.65,1.65,0,0,0,33,399.4a4.1,4.1,0,0,0,.5-2.23Q33.46,394.22,31.45,394.22Z" transform="translate(-6.81 -6.95)"/><path class="cd028ff4-fb25-4cdd-8408-284b301a782c" d="M39.31,401.52H37.48V389.36h1.84Z" transform="translate(-6.81 -6.95)"/><path class="cd028ff4-fb25-4cdd-8408-284b301a782c" d="M47.35,401.52l-.37-1.2h-.06a3.55,3.55,0,0,1-1.26,1.07,4,4,0,0,1-1.62.29,2.75,2.75,0,0,1-2-.69,2.57,2.57,0,0,1-.71-1.95,2.28,2.28,0,0,1,1-2,5.71,5.71,0,0,1,3-.74l1.49,0v-.46a1.75,1.75,0,0,0-.39-1.24,1.58,1.58,0,0,0-1.2-.41,4.13,4.13,0,0,0-1.27.2,9.45,9.45,0,0,0-1.17.46l-.59-1.31a6.34,6.34,0,0,1,1.54-.56,7.06,7.06,0,0,1,1.58-.19,3.74,3.74,0,0,1,2.49.72,2.81,2.81,0,0,1,.84,2.26v5.82Zm-2.73-1.25a2.27,2.27,0,0,0,1.61-.56,2,2,0,0,0,.61-1.57v-.75l-1.11,0a3.8,3.8,0,0,0-1.89.43,1.32,1.32,0,0,0-.59,1.18,1.15,1.15,0,0,0,.34.89A1.48,1.48,0,0,0,44.61,400.27Z" transform="translate(-6.81 -6.95)"/><path class="cd028ff4-fb25-4cdd-8408-284b301a782c" d="M54.71,401.67a3.78,3.78,0,0,1-3-1.14,5.8,5.8,0,0,1,0-6.64,4,4,0,0,1,3.08-1.17,5.77,5.77,0,0,1,2.46.51l-.55,1.48a5.55,5.55,0,0,0-1.92-.45q-2.24,0-2.24,3a3.57,3.57,0,0,0,.56,2.18,1.93,1.93,0,0,0,1.64.73,4.7,4.7,0,0,0,2.32-.61v1.6a3.66,3.66,0,0,1-1.05.41A6.39,6.39,0,0,1,54.71,401.67Z" transform="translate(-6.81 -6.95)"/><path class="cd028ff4-fb25-4cdd-8408-284b301a782c" d="M59,390.59a1,1,0,0,1,.27-.76,1,1,0,0,1,.77-.27.93.93,0,0,1,1,1,1,1,0,0,1-.27.74,1,1,0,0,1-.75.27,1,1,0,0,1-.77-.27A1,1,0,0,1,59,390.59ZM61,401.52H59.14v-8.64H61Z" transform="translate(-6.81 -6.95)"/><path class="cd028ff4-fb25-4cdd-8408-284b301a782c" d="M71.27,397.18a4.72,4.72,0,0,1-1.09,3.3,3.89,3.89,0,0,1-3,1.19,4.15,4.15,0,0,1-2.14-.55,3.61,3.61,0,0,1-1.43-1.57,5.36,5.36,0,0,1-.5-2.37,4.68,4.68,0,0,1,1.08-3.28,3.91,3.91,0,0,1,3-1.18,3.81,3.81,0,0,1,3,1.21A4.66,4.66,0,0,1,71.27,397.18Zm-6.29,0q0,3,2.21,3t2.19-3q0-3-2.2-3a1.88,1.88,0,0,0-1.68.77A3.89,3.89,0,0,0,65,397.18Zm1-5.36v-.2q.45-.55.92-1.22t.75-1.15h2.13v.16a16.1,16.1,0,0,1-1.21,1.23,17.28,17.28,0,0,1-1.36,1.17Z" transform="translate(-6.81 -6.95)"/><path class="cd028ff4-fb25-4cdd-8408-284b301a782c" d="M81,401.52H79.13V396.2a2.32,2.32,0,0,0-.4-1.49,1.56,1.56,0,0,0-1.28-.49,2,2,0,0,0-1.7.69,3.8,3.8,0,0,0-.54,2.3v4.3H73.38v-8.64h1.44l.26,1.13h.09a2.55,2.55,0,0,1,1.11-1,3.71,3.71,0,0,1,1.59-.34q3.11,0,3.11,3.16Z" transform="translate(-6.81 -6.95)"/><text class="b03c0076-4c5e-4d97-a25b-a4eceb4ce5d6" transform="translate(437.77 543.56)">Millones de personas</text></svg>