<svg id="f5f3e34a-ee6d-4ab3-b10d-104fc2987dcc" data-name="chart" xmlns="http://www.w3.org/2000/svg" viewBox="0 0 1978 1766.54"><defs><style>.f54b240a-66d9-4317-97b9-917ca29f730c{font-size:41px;}.\30 c6c1bdb-e4ae-41e1-bf68-403f7f7f688a,.\35 4839529-28b6-48a0-a105-66db02108c0f,.\36 7bfbfb7-ee1a-47ab-a6a9-4048340b16e1,.f54b240a-66d9-4317-97b9-917ca29f730c{fill:#757575;}.\34 c83ee14-8ca5-419e-adfc-198db43d6a92,.\35 4839529-28b6-48a0-a105-66db02108c0f,.f54b240a-66d9-4317-97b9-917ca29f730c{font-family:OpenSans, Open Sans;}.\35 4839529-28b6-48a0-a105-66db02108c0f{font-size:40px;}.b77b8a5f-bb7b-43fe-99f7-2d784b1080e3{font-size:76px;fill:#323232;}.\30 c6c1bdb-e4ae-41e1-bf68-403f7f7f688a,.af290537-4c27-4d0c-bf1d-eb2a396a9688,.b77b8a5f-bb7b-43fe-99f7-2d784b1080e3{font-family:OpenSans-Bold, Open Sans;}.\30 2d70227-5a7d-4f96-9733-88a0e694b39a,.\36 6cfb6a6-2b6f-40f3-ac51-1cdfc65620f0,.\37 9239fc6-ba68-45e0-bd48-b9ba9de7cc64,.\37 daa24ae-7719-4bc2-9742-69aea7f1d4e6,.af290537-4c27-4d0c-bf1d-eb2a396a9688,.b77b8a5f-bb7b-43fe-99f7-2d784b1080e3,.b84768c9-9825-42ff-b81f-fe7410d04ab6,.c27ee47d-ecfa-4d29-9976-bee724762a46,.e699a5ad-dc28-4aac-93c3-46d127930d2d,.ec601ad7-e017-4f31-818f-94d306cdf63b{font-weight:700;}.\30 c6c1bdb-e4ae-41e1-bf68-403f7f7f688a{font-size:61px;}.\34 c83ee14-8ca5-419e-adfc-198db43d6a92{font-size:54px;}.\36 f5889c1-57bf-4969-9662-33f447d49afb{fill:#c7e5f2;}.\39 8a70699-a95b-4fa7-aa77-bbe6aad2926e{opacity:0;}.\30 2d70227-5a7d-4f96-9733-88a0e694b39a,.\36 6cfb6a6-2b6f-40f3-ac51-1cdfc65620f0,.\37 daa24ae-7719-4bc2-9742-69aea7f1d4e6,.\39 8a70699-a95b-4fa7-aa77-bbe6aad2926e,.b84768c9-9825-42ff-b81f-fe7410d04ab6,.c27ee47d-ecfa-4d29-9976-bee724762a46,.e5f3c5f9-dcc9-486b-9d0c-482ae986962d,.e699a5ad-dc28-4aac-93c3-46d127930d2d,.ec601ad7-e017-4f31-818f-94d306cdf63b{isolation:isolate;}.\30 2d70227-5a7d-4f96-9733-88a0e694b39a,.\36 6cfb6a6-2b6f-40f3-ac51-1cdfc65620f0,.\37 daa24ae-7719-4bc2-9742-69aea7f1d4e6,.b84768c9-9825-42ff-b81f-fe7410d04ab6,.c27ee47d-ecfa-4d29-9976-bee724762a46,.e5f3c5f9-dcc9-486b-9d0c-482ae986962d,.e699a5ad-dc28-4aac-93c3-46d127930d2d,.ec601ad7-e017-4f31-818f-94d306cdf63b{font-size:12px;}.\36 e7a0803-4ef2-42bb-bcb8-eafd9c41627a,.a2850889-e376-431a-bc43-d89007c3bd33,.e699a5ad-dc28-4aac-93c3-46d127930d2d{fill:none;}.e699a5ad-dc28-4aac-93c3-46d127930d2d{stroke:#fff;stroke-width:3.2px;}.\30 2d70227-5a7d-4f96-9733-88a0e694b39a,.\36 6cfb6a6-2b6f-40f3-ac51-1cdfc65620f0,.\37 daa24ae-7719-4bc2-9742-69aea7f1d4e6,.b84768c9-9825-42ff-b81f-fe7410d04ab6,.c27ee47d-ecfa-4d29-9976-bee724762a46,.e699a5ad-dc28-4aac-93c3-46d127930d2d,.ec601ad7-e017-4f31-818f-94d306cdf63b{font-family:ArialMT-Bold, Arial MT;}.c27ee47d-ecfa-4d29-9976-bee724762a46{fill:#38a6a5;}.e3140b3b-6ddd-4bbb-871e-40ae622fc59c{fill:#007aaa;}.ec601ad7-e017-4f31-818f-94d306cdf63b{fill:#1d6996;}.\31 70f98e8-2a39-4121-aa58-e80f0471cb1b{fill:#5298ca;}.\30 2d70227-5a7d-4f96-9733-88a0e694b39a{fill:#edad08;}.\30 f7c15f5-fa1a-44aa-9f50-fbd0cc92e06e{fill:#95c8ec;}.\36 6cfb6a6-2b6f-40f3-ac51-1cdfc65620f0{fill:#94346e;}.\33 39b252b-156f-44b9-b9ab-f461a580ea6a{fill:#74b0db;}.b84768c9-9825-42ff-b81f-fe7410d04ab6{fill:#73af48;}.\36 0ad48c3-4039-4c42-9d44-1824eb4e20c0{fill:#ffded7;}.\37 daa24ae-7719-4bc2-9742-69aea7f1d4e6{fill:#e17c05;}.\32 6d343f6-1ffb-439a-8b84-58eddb76f6f3{fill:#fc4a1a;}.\39 0c30c18-63a7-4d44-a688-1192ccf55256{fill:#ff6e45;}.\33 655239d-b4a1-4976-a74a-69d6bd7eca5f{fill:#ff8c6b;}.\30 8850803-9a98-42e8-bbd8-1456b9c1e557{fill:#ffaa91;}.b0fcde56-d52f-41f5-8756-770343290073{fill:#ffc6b7;}.e5f3c5f9-dcc9-486b-9d0c-482ae986962d{font-family:ArialMT, Arial MT;}.\36 e7a0803-4ef2-42bb-bcb8-eafd9c41627a{stroke:#757575;stroke-miterlimit:10;stroke-width:4px;}</style></defs><title>2018.10.01_Migraciones</title><text class="f54b240a-66d9-4317-97b9-917ca29f730c" transform="translate(9.26 1751.63)">Fuente: Naciones Unidas</text><text class="f54b240a-66d9-4317-97b9-917ca29f730c" transform="translate(1648.82 1756.63)">LA VANGUARDIA</text><path class="67bfbfb7-ee1a-47ab-a6a9-4048340b16e1" d="M1772.83,592.39a7.84,7.84,0,0,1-6.26,4c-2.62.2-5.6-.71-9-2.71l-3.11-1.82-5.62,9.72-3-1.72L1759.93,575c2.88,1.63,4.31,2.46,7.15,4.15C1773.93,583.19,1775.78,587.7,1772.83,592.39Zm-16.93-3,2.79,1.63c2.74,1.61,4.94,2.4,6.65,2.33a5.12,5.12,0,0,0,4.22-2.77,4.72,4.72,0,0,0,.47-4.66c-.68-1.5-2.27-3-4.77-4.49l-3.55-2.08Z"/><path class="67bfbfb7-ee1a-47ab-a6a9-4048340b16e1" d="M1782.64,623.4c.92-3.81,1.37-5.72,2.23-9.56-4-2.8-6-4.17-10-6.86-3.25,2.2-4.87,3.32-8.07,5.56l-2.94-1.89c8.45-6,17.12-11.77,25.91-17.27l2.56,1.75c-2,10.16-4.23,20.32-6.78,30.35Zm3.05-12.64c.87-3.71,1.29-5.57,2.11-9.31q.38-1.78,1.13-4.22a36.15,36.15,0,0,1-3.44,2.64c-3.2,2.1-4.79,3.16-8,5.31C1780.83,607.37,1782.46,608.49,1785.7,610.76Z"/><path class="67bfbfb7-ee1a-47ab-a6a9-4048340b16e1" d="M1807.18,602.54q1.56-.34,3.57-1a35.12,35.12,0,0,0,3.34-1.22c1.42,1.08,2.13,1.63,3.54,2.72l-.25.32a32.12,32.12,0,0,1-4.19.71,33.67,33.67,0,0,1-4.36.29l-1.93-1.45Zm-18.39,25.37,17.11-22.86,2.94,2.22L1791.54,630Z"/><path class="67bfbfb7-ee1a-47ab-a6a9-4048340b16e1" d="M1815.74,639.83a7,7,0,0,1-6,2.6,13,13,0,0,1-7.25-3.31A20.88,20.88,0,0,1,1797,633l2-2.52a23.46,23.46,0,0,0,2.4,3.4,23.11,23.11,0,0,0,3,3,9.09,9.09,0,0,0,4.81,2.36,4.09,4.09,0,0,0,3.61-1.54,4.3,4.3,0,0,0,1.09-2.26,5.7,5.7,0,0,0-.49-2.7,28.67,28.67,0,0,0-2.33-4.29,15.34,15.34,0,0,1-2.63-6.46,7.17,7.17,0,0,1,1.71-5.15,6.09,6.09,0,0,1,5.4-2.43,11.93,11.93,0,0,1,6.86,3.06,22.16,22.16,0,0,1,5.62,6.77l-2.75,1.45a20.09,20.09,0,0,0-4.83-6,7.72,7.72,0,0,0-4.22-2,3.6,3.6,0,0,0-3.24,1.43,4.53,4.53,0,0,0-1.06,2.27,5.46,5.46,0,0,0,.46,2.61,27.47,27.47,0,0,0,2.2,4.07c1.8,2.88,2.73,5.18,2.84,6.89A6.48,6.48,0,0,1,1815.74,639.83Z"/><path class="67bfbfb7-ee1a-47ab-a6a9-4048340b16e1" d="M1827.37,660.73c-4.73-4.56-7.14-6.8-12.06-11.17l19-21.34c5.26,4.68,7.84,7.07,12.91,12l-2,2.12c-4-3.84-6-5.73-10.1-9.44l-6.17,6.82c3.77,3.41,5.63,5.15,9.3,8.67l-2,2.11c-3.64-3.5-5.49-5.22-9.24-8.61l-7,7.79c3.89,3.52,5.8,5.31,9.57,8.94Z"/><path class="67bfbfb7-ee1a-47ab-a6a9-4048340b16e1" d="M1849.15,672.11a7,7,0,0,1-6.25,1.92,12.93,12.93,0,0,1-6.82-4.09,20.75,20.75,0,0,1-4.76-6.64l2.25-2.28a23.32,23.32,0,0,0,2,3.64,22.84,22.84,0,0,0,2.68,3.34,9.05,9.05,0,0,0,4.51,2.87,4.1,4.1,0,0,0,3.75-1.13,4.3,4.3,0,0,0,1.34-2.12,5.69,5.69,0,0,0-.18-2.73,28.54,28.54,0,0,0-1.83-4.51,15.27,15.27,0,0,1-1.88-6.71,7.18,7.18,0,0,1,2.28-4.92,6.09,6.09,0,0,1,5.63-1.81,11.88,11.88,0,0,1,6.47,3.79,22.08,22.08,0,0,1,4.81,7.35l-2.89,1.14a20,20,0,0,0-4.11-6.48,7.68,7.68,0,0,0-4-2.44,3.61,3.61,0,0,0-3.37,1.06,4.54,4.54,0,0,0-1.31,2.13,5.45,5.45,0,0,0,.16,2.64,27.34,27.34,0,0,0,1.72,4.28c1.46,3.05,2.12,5.44,2,7.15A6.49,6.49,0,0,1,1849.15,672.11Z"/><path class="67bfbfb7-ee1a-47ab-a6a9-4048340b16e1" d="M1876.43,671.28c2.31,2.71,3.45,4.08,5.71,6.84,2.65,3.24,4.08,6,4.33,8.14a5.79,5.79,0,0,1-2.54,5.49,6,6,0,0,1-4.25,1.35,7.64,7.64,0,0,1-4.42-2.16l-.15.12c2.31,4.09,1.89,7.33-1.14,9.65a7.28,7.28,0,0,1-6.38,1.52c-2.23-.53-4.33-2-6.34-4.53-2.58-3.2-3.9-4.78-6.56-7.91Zm-7,10.65c1.51,1.8,2.25,2.71,3.74,4.53s3,3.14,4.27,3.55a4.15,4.15,0,0,0,4-1,3.66,3.66,0,0,0,1.56-3.62,12.36,12.36,0,0,0-2.93-5.34c-1.35-1.66-2-2.49-3.41-4.13Zm-2.16,1.8-8.19,6.86c1.59,1.9,2.38,2.85,3.94,4.78a9.31,9.31,0,0,0,4.43,3.39,4.88,4.88,0,0,0,4.43-1.15,4.32,4.32,0,0,0,1.9-3.9,10.44,10.44,0,0,0-2.65-5.3C1869.59,686.53,1868.82,685.59,1867.26,683.73Z"/><path class="67bfbfb7-ee1a-47ab-a6a9-4048340b16e1" d="M1882.07,725.86c2.19-3.25,3.27-4.89,5.41-8.19-2.74-4-4.14-6-7-9.86-3.81.95-5.71,1.44-9.49,2.44l-2.09-2.77c10-2.72,20.11-5.16,30.24-7.28l1.79,2.52c-5.37,8.84-11,17.58-16.89,26.1C1883.26,727.63,1882.87,727,1882.07,725.86Zm7.25-10.79c2.11-3.18,3.15-4.78,5.21-8q1-1.54,2.53-3.56a36.29,36.29,0,0,1-4.14,1.3c-3.73.87-5.59,1.32-9.29,2.24C1885.94,710.23,1887.08,711.83,1889.32,715.07Z"/><path class="67bfbfb7-ee1a-47ab-a6a9-4048340b16e1" d="M1877.65,732.77a6.87,6.87,0,0,1-1.19-2.73l2.35-1.58a11.42,11.42,0,0,0,1.32,2.68,3.83,3.83,0,0,0,2.63,1.87,5,5,0,0,0,3.4-1l24-15.54c.8,1.23,1.2,1.85,2,3.1l-23.86,15.19a8.13,8.13,0,0,1-5.88,1.48A7.28,7.28,0,0,1,1877.65,732.77Z"/><path class="67bfbfb7-ee1a-47ab-a6a9-4048340b16e1" d="M1917.52,757.29c-4,2.13-7.8,2.7-11.25,1.81s-6.19-3.19-8.3-6.89-2.77-7.32-1.8-10.7,3.42-6.31,7.41-8.76,7.68-3.27,11.18-2.43,6.45,3.3,8.78,7.38,2.83,7.73,1.74,11.21S1921.58,755.16,1917.52,757.29Zm-12-21.3c-3.31,2-5.37,4.26-6.2,6.77s-.43,5.16,1.19,8,3.71,4.57,6.27,5.11,5.56-.09,9-1.93,5.54-4,6.44-6.47.5-5.29-1.23-8.32-3.94-4.82-6.58-5.36S1908.78,734,1905.51,736Z"/><path class="67bfbfb7-ee1a-47ab-a6a9-4048340b16e1" d="M1922.07,781.85a6.94,6.94,0,0,1-6.55-.17,13.2,13.2,0,0,1-5.23-6.1,21.13,21.13,0,0,1-2.46-7.87l2.85-1.46a23.74,23.74,0,0,0,.77,4.12,23.4,23.4,0,0,0,1.52,4,9.24,9.24,0,0,0,3.4,4.2,4.08,4.08,0,0,0,3.93.12,4.27,4.27,0,0,0,1.94-1.6,5.76,5.76,0,0,0,.67-2.67,29.1,29.1,0,0,0-.34-4.9,15.44,15.44,0,0,1,.3-7,7.14,7.14,0,0,1,3.7-4,6.08,6.08,0,0,1,5.92.07,12.07,12.07,0,0,1,5,5.7,22.54,22.54,0,0,1,2.29,8.58l-3.11.16a20.46,20.46,0,0,0-1.9-7.53,7.81,7.81,0,0,0-3-3.6,3.6,3.6,0,0,0-3.54-.06,4.51,4.51,0,0,0-1.91,1.62,5.49,5.49,0,0,0-.67,2.57,27.81,27.81,0,0,0,.31,4.64c.44,3.39.33,5.89-.28,7.5A6.45,6.45,0,0,1,1922.07,781.85Z"/><path class="67bfbfb7-ee1a-47ab-a6a9-4048340b16e1" d="M1018.26,826.21a6.84,6.84,0,0,1,4.57,4.77,14.24,14.24,0,0,1-.57,8.36,23.23,23.23,0,0,1-3.81,7.77l-3.07-.93a25.92,25.92,0,0,0,2.36-3.69,25.65,25.65,0,0,0,1.78-4.17,10,10,0,0,0,.53-5.62,4,4,0,0,0-2.72-2.88,4.13,4.13,0,0,0-2.51-.16,5.94,5.94,0,0,0-2.37,1.55,31.1,31.1,0,0,0-3.21,4,16.38,16.38,0,0,1-5.16,5.12,7,7,0,0,1-5.45.37,6,6,0,0,1-4.18-4.28,13,13,0,0,1,.46-7.85,24.21,24.21,0,0,1,4.39-8.09l2.34,2.08a22,22,0,0,0-3.93,7,8.43,8.43,0,0,0-.38,4.88,3.56,3.56,0,0,0,2.49,2.57,4.35,4.35,0,0,0,2.51.13,5.67,5.67,0,0,0,2.29-1.48,29.73,29.73,0,0,0,3.05-3.74c2.07-2.88,3.91-4.7,5.48-5.49A6.31,6.31,0,0,1,1018.26,826.21Z"/><path class="67bfbfb7-ee1a-47ab-a6a9-4048340b16e1" d="M1033.82,806.65c-2.61,6.37-3.86,9.59-6.25,16.09l-26.81-9.83c2.53-6.91,3.86-10.33,6.64-17.11l2.73,1.12c-2.19,5.33-3.24,8-5.27,13.43l8.61,3.23c1.87-5,2.84-7.46,4.85-12.38l2.71,1.11c-2,4.89-3,7.35-4.82,12.3l9.84,3.7c1.94-5.16,2.94-7.72,5-12.79Z"/><path class="67bfbfb7-ee1a-47ab-a6a9-4048340b16e1" d="M1040.13,759.51a16.39,16.39,0,0,1,6.94,6.39,12.06,12.06,0,0,1,1.3,8.23c3.84-1.33,5.76-2,9.6-3.19-.95,1.8-1.42,2.71-2.34,4.52-3.37.92-5.05,1.4-8.42,2.4l-.48,1.05c-2,4.05-4.63,6.65-8,7.82s-7.2.82-11.47-1.11-7-4.58-8.22-8-.8-7.37,1.33-11.7,4.9-6.88,8.42-8S1036.08,757.36,1040.13,759.51Zm-11.21,22.58c3.51,1.63,6.55,2,9.12,1.26s4.58-2.68,6.08-5.72,1.79-5.81.81-8.28-3.17-4.61-6.61-6.4-6.41-2.32-9-1.62-4.71,2.67-6.29,5.88-1.86,6.13-.84,8.67S1025.46,780.48,1028.93,782.08Z"/><path class="67bfbfb7-ee1a-47ab-a6a9-4048340b16e1" d="M1043.33,725.33,1059,735a9.8,9.8,0,0,1,4.88,6.73c.5,2.77-.19,5.71-2,8.88s-4.05,5.18-6.68,6a10.11,10.11,0,0,1-8.25-1.07l-16.13-8.85c.73-1.32,1.09-2,1.83-3.3l16.26,9.09a7.08,7.08,0,0,0,5.82.84c1.8-.59,3.37-2.06,4.74-4.41a8.7,8.7,0,0,0,1.39-6.13,7.14,7.14,0,0,0-3.63-4.66l-15.89-9.65C1042.14,727.25,1042.54,726.61,1043.33,725.33Z"/><path class="67bfbfb7-ee1a-47ab-a6a9-4048340b16e1" d="M1081.33,719.46c-3.87,5.55-5.75,8.36-9.42,14.06l-24-15.44c3.9-6.06,5.9-9.05,10-14.95l2.42,1.69c-3.23,4.64-4.82,7-7.92,11.72l7.7,5c2.86-4.37,4.31-6.53,7.29-10.81l2.41,1.67c-3,4.25-4.4,6.4-7.24,10.74l8.8,5.75c3-4.52,4.46-6.75,7.54-11.17Z"/><path class="67bfbfb7-ee1a-47ab-a6a9-4048340b16e1" d="M1088.49,685.63c3.68,3,5.61,6.29,5.88,10s-1.14,7.52-4.19,11.6c-2,2.69-3,4-5,6.77L1062,697.31c2.31-3.21,3.47-4.8,5.84-8,3-4,6.37-6.32,10-7S1085,682.87,1088.49,685.63Zm-2.3,3.08c-2.92-2.31-5.76-3.24-8.53-2.76s-5.42,2.37-7.9,5.67c-1.3,1.73-1.94,2.6-3.21,4.35L1085,709.43c1-1.39,1.53-2.09,2.56-3.47,2.52-3.39,3.69-6.48,3.47-9.37S1089.18,691.08,1086.18,688.71Z"/><path class="67bfbfb7-ee1a-47ab-a6a9-4048340b16e1" d="M1116.5,675.15c-3.71-1.31-5.57-2-9.3-3.22-3.27,3.7-4.89,5.57-8.06,9.35,1.81,3.5,2.72,5.24,4.58,8.7l-2.25,2.75c-4.95-9.13-9.67-18.44-14.12-27.83l2.05-2.38c9.92,3,19.81,6.37,29.55,9.94Zm-12.28-4.36c-3.61-1.26-5.42-1.88-9.06-3.09q-1.74-.56-4.08-1.58a35.63,35.63,0,0,1,2.23,3.72c1.72,3.43,2.59,5.14,4.35,8.54C1100.25,675.32,1101.56,673.8,1104.22,670.8Z"/><path class="67bfbfb7-ee1a-47ab-a6a9-4048340b16e1" d="M1138.26,652.61l-2.86,2.79c-9.57-1.88-19.28-3.45-29-4.69l-.12.13q3.31,2.64,5.86,5.06L1124,667.06l-2.22,2.36-20.89-19.47c1.15-1.23,1.73-1.85,2.89-3.07,9.68,1.2,19.39,2.74,29,4.59l.12-.12q-.4-.35-2.51-2.29t-2.94-2.85l-11.48-11.7,2.5-2.43Z"/><path class="67bfbfb7-ee1a-47ab-a6a9-4048340b16e1" d="M1165.15,628.6c-5.19,4.28-7.74,6.46-12.77,10.92l-19-21.35c5.34-4.74,8.06-7.07,13.57-11.61l1.88,2.28c-4.34,3.57-6.48,5.39-10.71,9.09l6.06,6.92c3.9-3.41,5.87-5.09,9.86-8.39l1.87,2.26c-4,3.28-5.93,4.95-9.8,8.33l6.92,7.91c4-3.52,6.07-5.26,10.2-8.66Z"/><path class="67bfbfb7-ee1a-47ab-a6a9-4048340b16e1" d="M1189.11,610.15l-3.24,2.35c-9.2-3.25-18.57-6.21-28-8.85l-.14.11q2.89,3.1,5.06,5.86l10,12.75-2.54,2-17.83-22.3,3.3-2.61c9.4,2.6,18.78,5.53,28,8.74l.13-.1q-.34-.4-2.15-2.63t-2.5-3.24L1169.63,589l2.83-2Z"/><path class="67bfbfb7-ee1a-47ab-a6a9-4048340b16e1" d="M1215.53,583.65a6.91,6.91,0,0,1,.55,6.54,13.5,13.5,0,0,1-5.56,6,21.7,21.7,0,0,1-7.65,3.4l-1.77-2.67a24.22,24.22,0,0,0,4.06-1.26,24,24,0,0,0,3.91-2,9.47,9.47,0,0,0,3.85-3.9,4.07,4.07,0,0,0-.31-3.93,4.23,4.23,0,0,0-1.82-1.73,5.8,5.8,0,0,0-2.76-.35,29.77,29.77,0,0,0-4.88.92,15.63,15.63,0,0,1-7.06.54,7.09,7.09,0,0,1-4.38-3.22,6.07,6.07,0,0,1-.57-5.91,12.29,12.29,0,0,1,5.15-5.63,23,23,0,0,1,8.32-3.3c.2,1.23.3,1.84.51,3.07a20.86,20.86,0,0,0-7.31,2.79,8,8,0,0,0-3.27,3.43,3.59,3.59,0,0,0,.32,3.54,4.47,4.47,0,0,0,1.83,1.71,5.53,5.53,0,0,0,2.65.36,28.11,28.11,0,0,0,4.62-.86c3.35-.84,5.87-1,7.55-.63A6.41,6.41,0,0,1,1215.53,583.65Z"/><path class="67bfbfb7-ee1a-47ab-a6a9-4048340b16e1" d="M1231.66,550.59l8.51,16.4a9.82,9.82,0,0,1,.74,8.28c-1,2.63-3.07,4.79-6.26,6.56s-6.1,2.34-8.77,1.72a10.15,10.15,0,0,1-6.51-5.16l-9.3-15.88,3.24-1.88,9.29,16.15a7.1,7.1,0,0,0,4.55,3.72c1.84.42,3.93,0,6.29-1.33a8.63,8.63,0,0,0,4.32-4.53,7.16,7.16,0,0,0-.73-5.86l-8.69-16.44Z"/><path class="67bfbfb7-ee1a-47ab-a6a9-4048340b16e1" d="M1250,560.07l5.2,10.68L1252,572.3l-12.7-25.58c3.17-1.58,4.77-2.35,8-3.87,3.58-1.7,6.54-2.31,8.81-1.86a6.89,6.89,0,0,1,5,4.37c1.53,3.45.63,6.63-2.63,9.59,5.24,3.24,7.82,4.89,12.91,8.26l-3.83,1.7c-4.64-3.12-7-4.66-11.75-7.67C1253.47,558.36,1252.29,558.93,1250,560.07Zm-1.25-2.56c1.8-.88,2.7-1.31,4.51-2.17,2.33-1.1,3.85-2.32,4.56-3.67a5,5,0,0,0-.08-4.57,4.52,4.52,0,0,0-3.4-2.94c-1.48-.24-3.49.23-6,1.42-1.76.83-2.63,1.25-4.38,2.1Z"/><path class="67bfbfb7-ee1a-47ab-a6a9-4048340b16e1" d="M1275.92,561.27,1264.72,535l3.48-1.46,11,26.36Z"/><path class="67bfbfb7-ee1a-47ab-a6a9-4048340b16e1" d="M1309.44,548.53l-3.86,1.31c-7.92-5.78-16.1-11.34-24.38-16.59l-.16.06q1.85,3.81,3.12,7.09l5.86,15.14-3.06,1.2-10.5-26.56,4-1.55c8.31,5.22,16.5,10.74,24.44,16.5l.16-.06q-.21-.48-1.28-3.14t-1.43-3.83L1297,522.6l3.36-1.14Z"/><path class="67bfbfb7-ee1a-47ab-a6a9-4048340b16e1" d="M1336.1,540.48c-2.43-3.11-3.66-4.66-6.14-7.74-4.87,1.35-7.29,2.06-12.11,3.54-.41,3.93-.6,5.89-1,9.81l-3.45,1.11c.87-10.38,2-20.79,3.49-31.1l3.08-.9c6.77,7.92,13.35,16.06,19.68,24.33ZM1328,530.18c-2.38-3-3.58-4.51-6-7.49q-1.17-1.41-2.6-3.54a35.1,35.1,0,0,1-.18,4.35c-.45,3.82-.66,5.73-1.06,9.55C1322.13,531.86,1324.09,531.28,1328,530.18Z"/><path class="67bfbfb7-ee1a-47ab-a6a9-4048340b16e1" d="M1357.21,535.35c-6.28-9-9.53-13.44-16.24-22.23l-.17,0a69.3,69.3,0,0,1,2,6.87l4.28,17.65-3.23.8-6.93-27.7c2.24-.56,3.36-.83,5.61-1.37,6.25,8.2,9.28,12.35,15.15,20.73l.17,0c2-10.05,3-15.08,5.45-25.13,2.27-.43,3.4-.64,5.68-1.05l5,28.11-3.58.65L1367,514.59q-.58-3.11-1-6.82l-.18,0c-2.58,10.77-3.74,16.15-5.82,26.93Z"/><path class="67bfbfb7-ee1a-47ab-a6a9-4048340b16e1" d="M1820.67,1351.82c3.23-2.56,4.83-3.86,8-6.51l8.92,10.64a34,34,0,0,1-3.21,4.08,38.53,38.53,0,0,1-4.44,4c-3.75,3-7.51,4.2-11.17,3.72s-6.83-2.63-9.56-6.38a15.94,15.94,0,0,1-3.09-7.41,12.76,12.76,0,0,1,1.2-7.29,18.32,18.32,0,0,1,5.28-6.35,23.92,23.92,0,0,1,7.81-4.21c.35,1.24.52,1.86.86,3.1a21.32,21.32,0,0,0-7,3.57c-2.8,2.23-4.39,4.75-4.76,7.63s.51,5.8,2.71,8.74,4.86,4.83,7.7,5.18,5.87-.71,9-3.2a27.33,27.33,0,0,0,4.51-4.53l-5.58-6.79c-2.11,1.74-3.17,2.59-5.31,4.29Z"/><path class="67bfbfb7-ee1a-47ab-a6a9-4048340b16e1" d="M1841.33,1315.42l13,13.16a9.53,9.53,0,0,1,3.09,7.72c-.24,2.83-1.75,5.57-4.53,8.14s-5.59,3.83-8.38,3.79a9.84,9.84,0,0,1-7.4-3.79L1825,1330.55l2.54-2.24,12.37,13.94a7,7,0,0,0,5.23,2.69c1.91,0,3.89-.93,5.91-2.8a8.55,8.55,0,0,0,3.09-5.56,7,7,0,0,0-2.31-5.44l-12.93-13.36Z"/><path class="67bfbfb7-ee1a-47ab-a6a9-4048340b16e1" d="M1862.27,1314.35c-2-6.25-3-9.34-5.23-15.45,1-1.09,1.46-1.63,2.42-2.73,2.71,7.52,4,11.33,6.37,19.06l8.13,7.52c-1,1.08-1.5,1.62-2.51,2.69l-7.95-7.48c-7.92-1.89-11.83-2.92-19.56-5.14,1-1,1.56-1.57,2.59-2.63C1852.77,1312,1855.92,1312.79,1862.27,1314.35Z"/><path class="67bfbfb7-ee1a-47ab-a6a9-4048340b16e1" d="M1896.15,1296.49c-3.83-1-5.73-1.5-9.53-2.55-3,3.84-4.57,5.74-7.73,9.49,1.81,3.49,2.7,5.25,4.46,8.78-1,1.12-1.44,1.67-2.41,2.78-4.41-9.34-9.16-18.59-14.17-27.62l1.79-2.2c9.84,3.09,19.85,5.88,29.87,8.33C1897.53,1294.7,1897.07,1295.3,1896.15,1296.49Zm-12.55-3.54c-3.65-1.1-5.46-1.66-9.08-2.81a43.23,43.23,0,0,1-4.06-1.53,34.3,34.3,0,0,1,2.39,3.59c1.85,3.32,2.77,5,4.57,8.36C1879.93,1297.54,1881.17,1296,1883.6,1292.95Z"/><path class="67bfbfb7-ee1a-47ab-a6a9-4048340b16e1" d="M1914.9,1270c-.9,1.39-1.36,2.09-2.27,3.47-9.67.37-19.45.35-29.12-.06l-.09.13q3.6,2.22,6.45,4.29l13.13,9.54-2,2.71-23-17c.9-1.22,1.35-1.84,2.24-3.07,9.59.44,19.3.48,28.9.14l.09-.14q-.46-.25-2.94-1.71t-3.47-2.16l-13.68-9c.69-1.05,1-1.58,1.72-2.64Z"/><path class="67bfbfb7-ee1a-47ab-a6a9-4048340b16e1" d="M1929.36,1245.74c-3.94-.38-5.9-.59-9.81-1-2.4,4.27-3.63,6.39-6.16,10.58,2.33,3.17,3.48,4.76,5.77,8-.77,1.25-1.16,1.88-1.95,3.12-5.81-8.53-11.94-16.94-18.29-25.08l1.43-2.45c10.21,1.52,20.53,2.72,30.82,3.57C1930.45,1243.75,1930.09,1244.41,1929.36,1245.74Zm-13-1.54c-3.78-.51-5.66-.79-9.41-1.36a43.14,43.14,0,0,1-4.25-.88,34.13,34.13,0,0,1,2.92,3.17c2.35,3,3.51,4.5,5.81,7.54C1913.49,1249.3,1914.48,1247.61,1916.41,1244.19Z"/><path class="67bfbfb7-ee1a-47ab-a6a9-4048340b16e1" d="M1939.87,1225.14c-.62,1.32-.94,2-1.58,3.29l-25.7-12.45c2.83-5.83,4.17-8.78,6.74-14.74l2.71,1.17c-2,4.76-3.11,7.12-5.32,11.79l9.45,4.47c2.14-4.52,3.17-6.8,5.16-11.39l2.71,1.17c-2,4.63-3,6.93-5.2,11.48Z"/><path class="67bfbfb7-ee1a-47ab-a6a9-4048340b16e1" d="M1938,1199.89l11,4.44c-.55,1.36-.83,2-1.38,3.39l-26.38-10.93c1.22-3,1.82-4.44,3-7.42,1.3-3.34,2.84-5.58,4.68-6.74a7.26,7.26,0,0,1,6.58-.4c3.56,1.26,5.3,4,5.11,8.33,6-1.3,9-2,14.93-3.56-.57,1.64-.86,2.46-1.45,4.09-5.51,1.26-8.26,1.84-13.75,2.9C1939.38,1196.35,1938.91,1197.53,1938,1199.89Zm-2.64-1.07c.72-1.79,1.08-2.69,1.78-4.49.9-2.32,1.11-4.19.64-5.6a5,5,0,0,0-3.33-3.07,4.72,4.72,0,0,0-4.43.22c-1.18.79-2.22,2.37-3.14,4.73-.65,1.66-1,2.48-1.64,4.13Z"/><path class="67bfbfb7-ee1a-47ab-a6a9-4048340b16e1" d="M1954.85,1182.5a2.74,2.74,0,0,1-1.67-1.25,2.49,2.49,0,0,1,0-2,2.68,2.68,0,0,1,1.24-1.63,2.64,2.64,0,0,1,2.1-.05,2.57,2.57,0,0,1,1.64,1.28,3,3,0,0,1-1.12,3.6A2.51,2.51,0,0,1,1954.85,1182.5Z"/><text class="54839529-28b6-48a0-a105-66db02108c0f" transform="translate(1411.86 1656.11)">EE.UU.</text><text class="54839529-28b6-48a0-a105-66db02108c0f" transform="translate(1714.9 1657.09)">FRANCIA</text><path class="67bfbfb7-ee1a-47ab-a6a9-4048340b16e1" d="M1474.77,1496.35c-.58,4.53-2.31,7.95-5.3,10.15s-6.92,2.92-11.63,2-8.25-3.07-10.19-6.2-2.24-7-1-11.5,3.31-7.65,6.24-9.56,6.44-2.4,10.66-1.58,7.1,2.59,9.09,5.51S1475.35,1491.8,1474.77,1496.35Zm-24.43-4.56c-.92,3.76-.74,6.83.64,9.2s3.87,4,7.42,4.65,6.47.17,8.59-1.51,3.43-4.46,4-8.3.12-6.8-1.23-9-3.6-3.6-6.8-4.23-5.85-.2-8,1.36S1451.24,1488.09,1450.33,1491.79Z"/><path class="67bfbfb7-ee1a-47ab-a6a9-4048340b16e1" d="M1490.42,1512.13c-1.53-.08-2.3-.13-3.83-.23.71-10.22,1.06-15.33,1.77-25.54-3.72-.26-5.58-.43-9.29-.85l.34-2.93a171.31,171.31,0,0,0,21.71,1.33l0,2.95c-3.73,0-5.59-.09-9.31-.28C1491.24,1496.79,1491,1501.91,1490.42,1512.13Z"/><path class="67bfbfb7-ee1a-47ab-a6a9-4048340b16e1" d="M1509.34,1500.49c.14,4.75.21,7.12.35,11.87-1.54,0-2.3.06-3.84.08q-.19-14.28-.37-28.55c3.18,0,4.77-.09,7.94-.26,3.55-.18,6.21.26,8,1.45a7.32,7.32,0,0,1,3.18,5.78c.39,3.76-1.39,6.54-5.47,8.17,3.76,4.87,5.73,7.26,9.87,12-1.8.2-2.71.3-4.51.47-3.62-4.43-5.36-6.69-8.67-11.25C1513.26,1500.36,1512,1500.41,1509.34,1500.49Zm-.08-2.85c2-.06,3-.1,4.92-.2,2.54-.13,4.36-.73,5.46-1.75a5,5,0,0,0,1.4-4.32,4.74,4.74,0,0,0-2.07-3.93c-1.21-.74-3.07-1-5.6-.89-1.77.09-2.66.13-4.44.18Z"/><path class="67bfbfb7-ee1a-47ab-a6a9-4048340b16e1" d="M1558.83,1490.88c1.17,4.42.85,8.23-1.09,11.4s-5.31,5.3-10,6.22-8.74.25-11.68-1.92-4.66-5.62-5.26-10.27.17-8.33,2.14-11.2,5-4.64,9.21-5.46,7.52-.27,10.46,1.69S1557.66,1486.45,1558.83,1490.88Zm-24.24,5c.56,3.83,1.88,6.6,4,8.29s5,2.22,8.56,1.53,6-2.27,7.36-4.63,1.5-5.42.57-9.19-2.45-6.35-4.54-7.9-4.68-2-7.86-1.36-5.46,2-6.84,4.26S1534,1492.06,1534.59,1495.83Z"/><path class="67bfbfb7-ee1a-47ab-a6a9-4048340b16e1" d="M1584.64,1489.56a6.57,6.57,0,0,1-.84,6.61c-1.49,2.06-4,3.71-7.45,4.85a22.37,22.37,0,0,1-9.07,1.43l-.89-3.08a23.37,23.37,0,0,0,4.54-.13,23.84,23.84,0,0,0,4.63-1,10.18,10.18,0,0,0,5-3.07,3.93,3.93,0,0,0,.6-3.95,4.15,4.15,0,0,0-1.47-2.05,6.19,6.19,0,0,0-2.68-.89,39,39,0,0,0-5-.2,14,14,0,0,1-6.93-1.36,7,7,0,0,1-3.19-4.37,6.37,6.37,0,0,1,1-5.77,11.32,11.32,0,0,1,5.81-3.92,22.57,22.57,0,0,1,8.1-1.26c0,1.23,0,1.85,0,3.08a21,21,0,0,0-7.24,1,7.35,7.35,0,0,0-3.72,2.41,3.72,3.72,0,0,0-.55,3.47,4.55,4.55,0,0,0,1.27,2.15,5.23,5.23,0,0,0,2.41,1.06,22.86,22.86,0,0,0,4.63.3c3.43,0,5.95.23,7.55.93A6.46,6.46,0,0,1,1584.64,1489.56Z"/><path class="67bfbfb7-ee1a-47ab-a6a9-4048340b16e1" d="M33.54,867.52a6.8,6.8,0,0,1,5.29,4c1.06,2.25,1.32,5.08.83,8.54a24.68,24.68,0,0,1-2.44,8.53L34,888.23a27.5,27.5,0,0,0,1.7-4.16,27.3,27.3,0,0,0,1.05-4.53,10.52,10.52,0,0,0-.41-5.77,4,4,0,0,0-3.16-2.43,4,4,0,0,0-2.51.28,6.06,6.06,0,0,0-2.08,2,32.12,32.12,0,0,0-2.52,4.59,17.19,17.19,0,0,1-4.23,6.13,6.85,6.85,0,0,1-5.31,1.38,6,6,0,0,1-4.85-3.59,13.76,13.76,0,0,1-.86-8.08,25.51,25.51,0,0,1,3-9l2.65,1.69a23.14,23.14,0,0,0-2.73,7.85,8.92,8.92,0,0,0,.44,5,3.53,3.53,0,0,0,2.89,2.16,4.25,4.25,0,0,0,2.49-.32,5.83,5.83,0,0,0,2-1.92A31.78,31.78,0,0,0,24,875.16c1.57-3.29,3.09-5.46,4.51-6.53A6.21,6.21,0,0,1,33.54,867.52Z"/><path class="67bfbfb7-ee1a-47ab-a6a9-4048340b16e1" d="M45.84,845.13c-1.61,6.85-2.35,10.31-3.66,17.27l-28.06-5.3c1.41-7.47,2.19-11.17,3.92-18.52l2.87.68c-1.36,5.78-2,8.68-3.15,14.53l9,1.79c1.07-5.38,1.64-8,2.88-13.36l2.85.67c-1.23,5.27-1.8,7.93-2.86,13.26l10.31,2c1.1-5.53,1.69-8.28,3-13.75Z"/><path class="67bfbfb7-ee1a-47ab-a6a9-4048340b16e1" d="M45.37,796.61a16.17,16.17,0,0,1,7.75,5.4,12.34,12.34,0,0,1,2.42,8.09c3.63-1.92,5.45-2.85,9.09-4.64-.7,1.95-1,2.93-1.71,4.89-3.21,1.43-4.82,2.17-8,3.69l-.32,1.13c-1.41,4.38-3.65,7.41-6.83,9.12s-7,2-11.53.7-7.59-3.51-9.3-6.79-1.83-7.35-.32-12.07,3.94-7.74,7.28-9.4S41.06,795,45.37,796.61Zm-8,24.53c3.71,1.08,6.79,1,9.23-.17s4.16-3.41,5.22-6.7,1-6.12-.34-8.46-3.77-4.17-7.43-5.45-6.68-1.38-9.16-.26-4.32,3.43-5.44,6.93-1,6.51.37,8.92S33.69,820.07,37.36,821.14Z"/><path class="67bfbfb7-ee1a-47ab-a6a9-4048340b16e1" d="M44.24,761.6l16.84,7.61a9.74,9.74,0,0,1,5.68,6.1c.83,2.71.52,5.76-.91,9.21s-3.36,5.78-5.86,7a10,10,0,0,1-8.34.13L34.45,785.1c.55-1.45.83-2.17,1.4-3.62l17.35,6.8a7,7,0,0,0,5.9,0c1.72-.86,3.09-2.56,4.15-5.11a9,9,0,0,0,.62-6.36,7.08,7.08,0,0,0-4.19-4.19l-17-7.51C43.29,763.71,43.6,763,44.24,761.6Z"/><path class="67bfbfb7-ee1a-47ab-a6a9-4048340b16e1" d="M81.46,750.59c-3.23,6.06-4.78,9.14-7.75,15.35L47.94,753.64c3.19-6.67,4.85-10,8.32-16.47l2.6,1.39c-2.72,5.11-4,7.69-6.59,12.91l8.27,4c2.34-4.79,3.55-7.17,6-11.87L69.17,745c-2.48,4.67-3.68,7-6,11.78l9.44,4.62c2.41-4.93,3.66-7.37,6.24-12.21Z"/><path class="67bfbfb7-ee1a-47ab-a6a9-4048340b16e1" d="M85,715.69c4,2.54,6.24,5.67,6.88,9.35s-.37,7.69-3,12.15c-1.72,2.94-2.56,4.42-4.22,7.41l-25-13.86c2-3.54,3-5.29,5-8.78,2.6-4.42,5.74-7.18,9.32-8.26S81.32,713.31,85,715.69Zm-2,3.37c-3.16-2-6.09-2.58-8.82-1.76S69,720.36,66.89,724c-1.12,1.91-1.67,2.87-2.76,4.8L84,740.06c.87-1.53,1.3-2.29,2.19-3.8,2.16-3.71,3-7,2.48-9.83S86.27,721.09,83,719.07Z"/><path class="67bfbfb7-ee1a-47ab-a6a9-4048340b16e1" d="M112.09,702c-3.83-.93-5.75-1.38-9.61-2.24-2.94,4.07-4.39,6.13-7.2,10.3,2.14,3.31,3.23,5,5.42,8.22-.8,1.2-1.19,1.81-2,3-5.86-8.61-11.48-17.45-16.8-26.41l1.84-2.64c10.22,1.94,20.45,4.21,30.53,6.79C113.4,700.25,113,700.84,112.09,702ZM99.39,699c-3.73-.87-5.6-1.29-9.36-2.1q-1.79-.37-4.24-1.13a35.26,35.26,0,0,1,2.58,3.5c2,3.27,3.07,4.89,5.16,8.11C95.83,704,97,702.28,99.39,699Z"/><path class="67bfbfb7-ee1a-47ab-a6a9-4048340b16e1" d="M132,677.22c-1.07,1.22-1.6,1.84-2.65,3.08-9.76-1-19.65-1.59-29.46-1.81l-.11.14q3.54,2.32,6.31,4.49l12.78,10-2,2.6L94.2,678.31c1.05-1.37,1.58-2,2.65-3.4,9.81.18,19.71.75,29.48,1.69l.11-.13q-.43-.31-2.7-2.06t-3.18-2.58l-12.45-10.65,2.33-2.7Z"/><path class="67bfbfb7-ee1a-47ab-a6a9-4048340b16e1" d="M157.26,650.78c-4.94,4.71-7.36,7.12-12.09,12L124.6,643c5.07-5.27,7.67-7.86,13-12.91l2,2.13c-4.16,4-6.21,6-10.23,10.1l6.57,6.44c3.7-3.78,5.58-5.63,9.39-9.29l2,2.12c-3.79,3.63-5.66,5.47-9.33,9.22l7.51,7.35c3.81-3.89,5.74-5.8,9.68-9.55Z"/><path class="67bfbfb7-ee1a-47ab-a6a9-4048340b16e1" d="M180.29,630.47c-1.26,1-1.89,1.54-3.14,2.59-9.45-2.62-19.1-4.9-28.73-6.78l-.13.12q3.1,2.89,5.45,5.49l10.89,12-2.43,2.22-19.34-21c1.27-1.17,1.91-1.75,3.19-2.91,9.64,1.85,19.3,4.09,28.77,6.67l.13-.11q-.37-.38-2.31-2.49T170,623.22L159.5,610.6l2.76-2.27Z"/><path class="67bfbfb7-ee1a-47ab-a6a9-4048340b16e1" d="M198.38,598.3c3.58-2.45,5.39-3.65,9-6L214.95,604a39.6,39.6,0,0,1-3.57,3.64,45.51,45.51,0,0,1-4.64,3.58c-3.84,2.63-7.51,3.68-11.14,3.14s-6.84-2.64-9.6-6.37a14.63,14.63,0,0,1-3-7.48,12.71,12.71,0,0,1,1.77-7.6,20.65,20.65,0,0,1,6.44-6.64,26.47,26.47,0,0,1,9.12-4c.14,1.31.21,2,.35,3.26a23.21,23.21,0,0,0-8,3.37c-3.3,2.25-5.26,4.9-5.86,7.88s.2,5.95,2.35,8.92,4.82,4.87,7.65,5.3,5.84-.48,9.1-2.71a31.18,31.18,0,0,0,4.85-4.07l-4.83-7.34c-2.37,1.56-3.55,2.35-5.89,3.95Z"/><path class="67bfbfb7-ee1a-47ab-a6a9-4048340b16e1" d="M228.43,564.11l8.77,16.27a9.74,9.74,0,0,1,.82,8.3c-1,2.66-3.07,4.89-6.29,6.76s-6.15,2.54-8.87,2a10.07,10.07,0,0,1-6.69-5l-9.69-15.64,3.28-2,9.67,15.93a7,7,0,0,0,4.67,3.59c1.88.36,4-.15,6.37-1.53a9,9,0,0,0,4.33-4.68,7.09,7.09,0,0,0-.79-5.87L225,566Z"/><path class="67bfbfb7-ee1a-47ab-a6a9-4048340b16e1" d="M250,569.06c.59-6.64.94-10,1.79-16.65l3.83-1.74c-1.2,8.21-1.71,12.3-2.52,20.45l4.81,10-3.29,1.6-4.83-9.79c-6.93-4.45-10.47-6.61-17.67-10.79l3.75-2C241.65,563.64,244.48,565.42,250,569.06Z"/><path class="67bfbfb7-ee1a-47ab-a6a9-4048340b16e1" d="M289.49,567.58c-2.75-2.85-4.13-4.26-6.94-7.07-4.79,1.86-7.16,2.83-11.87,4.84,0,4,0,5.93,0,9.88l-3.35,1.49c-.21-10.44-.07-21,.4-31.39l3-1.24c7.62,7.14,15.06,14.57,22.22,22.17Zm-9.11-9.43c-2.69-2.75-4.05-4.11-6.8-6.82q-1.32-1.28-3-3.24a35,35,0,0,1,.24,4.35c-.09,3.86-.11,5.79-.13,9.64C274.55,560.47,276.49,559.68,280.37,558.15Z"/><path class="67bfbfb7-ee1a-47ab-a6a9-4048340b16e1" d="M320.57,557.3l-4,1.17c-7.83-6.08-16-11.92-24.25-17.38l-.17.06q1.72,3.87,2.87,7.19l5.29,15.34-3.19,1.11-9.55-26.91,4.18-1.46c8.3,5.44,16.47,11.24,24.33,17.3l.17,0q-.19-.49-1.15-3.19t-1.26-3.89l-4.64-15.72,3.55-1Z"/><path class="67bfbfb7-ee1a-47ab-a6a9-4048340b16e1" d="M348.54,550.41c-2.3-3.23-3.47-4.84-5.84-8-5.13,1.12-7.68,1.72-12.74,3-.67,3.91-1,5.87-1.57,9.78l-3.61,1c1.49-10.37,3.33-20.76,5.51-31l3.26-.77c6.51,8.22,12.8,16.69,18.78,25.3Zm-7.65-10.7c-2.26-3.12-3.41-4.68-5.73-7.77q-1.12-1.47-2.47-3.66a34.38,34.38,0,0,1-.47,4.35c-.71,3.81-1.05,5.71-1.7,9.52C334.65,541.12,336.72,540.63,340.89,539.71Z"/><path class="67bfbfb7-ee1a-47ab-a6a9-4048340b16e1" d="M782.7,630.57a128.09,128.09,0,0,0-14.89-7.15l11-26.37a151.94,151.94,0,0,1,17.66,8.48L795,608.12a149.38,149.38,0,0,0-13.66-6.75l-3.72,8.41c5,2.21,7.43,3.41,12.2,6l-1.4,2.58c-4.68-2.54-7.08-3.72-12-5.88l-4.25,9.61a130.5,130.5,0,0,1,11.94,5.9Z"/><path class="67bfbfb7-ee1a-47ab-a6a9-4048340b16e1" d="M801.89,643a127.84,127.84,0,0,0-13.52-9.2l14.78-24.43a151.69,151.69,0,0,1,16,10.91l-1.79,2.35A149.21,149.21,0,0,0,805,614l-4.93,7.76c4.55,2.89,6.77,4.43,11.06,7.66l-1.76,2.34c-4.22-3.18-6.4-4.69-10.87-7.53l-5.64,8.87a130.39,130.39,0,0,1,10.82,7.54Z"/><path class="67bfbfb7-ee1a-47ab-a6a9-4048340b16e1" d="M807.52,644.84a2.8,2.8,0,0,1,1.74-1.14,2.31,2.31,0,0,1,1.81.64,2.47,2.47,0,0,1,1,1.72,3.25,3.25,0,0,1-2.58,3,2.71,2.71,0,0,1-2.71-2.2A2.65,2.65,0,0,1,807.52,644.84Z"/><path class="67bfbfb7-ee1a-47ab-a6a9-4048340b16e1" d="M852.4,653.1l-14.56,11.38a10.11,10.11,0,0,1-8,2.33c-2.74-.41-5.2-1.92-7.56-4.52s-3.58-5.17-3.65-7.88a10.46,10.46,0,0,1,3.23-7.64l12.7-13.31c1.17,1.11,1.74,1.68,2.89,2.81l-13.16,13.19a7.25,7.25,0,0,0-2.43,5.35,9,9,0,0,0,2.72,5.69,8.62,8.62,0,0,0,5.28,3.13,7.3,7.3,0,0,0,5.58-1.91l14.39-11.77C850.9,651.2,851.4,651.83,852.4,653.1Z"/><path class="67bfbfb7-ee1a-47ab-a6a9-4048340b16e1" d="M871.43,683.08l-16.49,8.34a10.07,10.07,0,0,1-8.28.71c-2.61-1-4.76-2.93-6.58-6s-2.54-5.8-2.09-8.48a10.44,10.44,0,0,1,4.64-6.88l15-10.61c.93,1.32,1.39,2,2.3,3.33l-15.46,10.41a7.23,7.23,0,0,0-3.41,4.79c-.31,1.85.23,3.87,1.59,6.14a8.74,8.74,0,0,0,4.6,4.13,7.27,7.27,0,0,0,5.86-.77l16.4-8.76C870.32,680.9,870.69,681.62,871.43,683.08Z"/><path class="67bfbfb7-ee1a-47ab-a6a9-4048340b16e1" d="M850.79,701.29a2.77,2.77,0,0,1,2.07-.23,2.37,2.37,0,0,1,1.35,1.4,2.54,2.54,0,0,1,.12,2,3.2,3.2,0,0,1-3.64,1.51,2.79,2.79,0,0,1-1.47-3.23A2.62,2.62,0,0,1,850.79,701.29Z"/><path class="67bfbfb7-ee1a-47ab-a6a9-4048340b16e1" d="M584.85,1433.19a10.77,10.77,0,0,0-7.66,3.85,12.22,12.22,0,0,0-2.38,8.77c.24,3.73,1.42,6.55,3.58,8.43s5.15,2.66,8.89,2.26a30.28,30.28,0,0,0,7.7-2l.39,2.88a25.8,25.8,0,0,1-8.36,2.12c-4.9.51-8.82-.48-11.63-2.86s-4.29-5.94-4.53-10.63a16.26,16.26,0,0,1,1.39-7.82,12.83,12.83,0,0,1,4.76-5.45,17,17,0,0,1,7.57-2.5,21.11,21.11,0,0,1,8.43.62c-.43,1.21-.65,1.82-1.1,3A18.21,18.21,0,0,0,584.85,1433.19Z"/><path class="67bfbfb7-ee1a-47ab-a6a9-4048340b16e1" d="M623.17,1453c-2.44-3.16-3.63-4.75-6-8-5,1.1-7.58,1.6-12.67,2.47-1,3.85-1.45,5.77-2.51,9.62-1.55.24-2.32.36-3.88.58,3-9.94,5.57-20.15,7.64-30.33l2.88-.56c5.72,8.65,11.92,17.15,18.39,25.25C625.5,1452.47,624.72,1452.66,623.17,1453Zm-7.74-10.64c-2.19-3.15-3.26-4.73-5.37-7.92a41.08,41.08,0,0,1-2.2-3.77,32.48,32.48,0,0,1-.52,4.3c-.77,3.75-1.17,5.62-2,9.37C609.37,1443.64,611.4,1443.25,615.43,1442.38Z"/><path class="67bfbfb7-ee1a-47ab-a6a9-4048340b16e1" d="M656.17,1443.24c-1.65.6-2.48.89-4.15,1.46A264.41,264.41,0,0,1,628.34,1427l-.16,0q1.44,4,2.39,7.36l4.34,15.64-3.44.93-7.3-27.61c1.52-.4,2.28-.61,3.79-1a261.55,261.55,0,0,0,23.4,17.66l.17-.06q-.22-.48-1.3-3.13t-1.45-3.83l-5.38-15.48,3.06-1.09Z"/><path class="67bfbfb7-ee1a-47ab-a6a9-4048340b16e1" d="M683.76,1431.64c-3.06-2.56-4.58-3.85-7.56-6.47-4.67,2.17-7,3.2-11.79,5.16-.08,4-.15,5.95-.33,9.92-1.45.57-2.18.85-3.63,1.41.73-10.35,1-20.87.78-31.24l2.68-1.17c7.46,7.2,15.35,14.15,23.44,20.64C685.91,1430.6,685.2,1430.95,683.76,1431.64Zm-9.86-8.7c-2.82-2.6-4.21-3.91-7-6.57a41,41,0,0,1-3-3.2,32.56,32.56,0,0,1,.44,4.3c.07,3.82.09,5.74.07,9.58C668.28,1425.48,670.16,1424.66,673.9,1422.94Z"/><path class="67bfbfb7-ee1a-47ab-a6a9-4048340b16e1" d="M706.53,1402.3c2.54,4,3.28,7.79,2.08,11.46s-4.24,7-9.11,9.7c-3.21,1.8-4.83,2.67-8.09,4.36l-13.14-25.35c3.26-1.69,4.87-2.56,8.08-4.37,4.06-2.29,7.78-3.1,11.31-2.39S704.15,1398.58,706.53,1402.3Zm-3.23,2.17c-2-3.17-4.31-5-7-5.58s-5.7.11-9.11,2c-1.79,1-2.68,1.49-4.49,2.46l10.76,20.11c1.64-.88,2.46-1.32,4.09-2.23,4-2.21,6.45-4.81,7.39-7.66S705.31,1407.72,703.3,1404.47Z"/><path class="67bfbfb7-ee1a-47ab-a6a9-4048340b16e1" d="M737.54,1398.11c-3.56-1.83-5.32-2.76-8.8-4.67-4.13,3.15-6.23,4.68-10.49,7.63.76,3.89,1.12,5.85,1.78,9.78-1.3.88-2,1.31-3.27,2.17-1.49-10.28-3.46-20.63-5.87-30.73l2.38-1.73c8.86,5.41,18.1,10.48,27.42,15C739.44,1396.61,738.81,1397.11,737.54,1398.11ZM726,1391.77c-3.32-1.92-5-2.9-8.23-4.9a40.73,40.73,0,0,1-3.59-2.48,32.42,32.42,0,0,1,1.34,4.12c.88,3.73,1.3,5.6,2.1,9.36C721,1395.49,722.69,1394.27,726,1391.77Zm-17.52-11a33.11,33.11,0,0,0,0-3.6,29.91,29.91,0,0,0-.35-3.45c1.3-1,1.94-1.44,3.23-2.42l.25.33a26.12,26.12,0,0,1-.23,4.08,26.55,26.55,0,0,1-.77,4.13l-1.84,1.33Z"/><path class="67bfbfb7-ee1a-47ab-a6a9-4048340b16e1" d="M317.84,1425.21l-6.46,10c-1.31-.85-2-1.28-3.25-2.15L324,1409.31c2.71,1.82,4.08,2.7,6.84,4.41,3.09,1.91,5.06,3.83,5.92,5.86a7.26,7.26,0,0,1-.66,6.58c-1.83,3.3-4.91,4.55-9.24,3.53.35,6.17.62,9.27,1.35,15.51-1.61-.87-2.41-1.32-4-2.22-.47-5.72-.62-8.57-.78-14.23C321.2,1427.36,320.08,1426.66,317.84,1425.21Zm1.55-2.39c1.69,1.09,2.53,1.63,4.24,2.69,2.2,1.36,4.07,1.92,5.57,1.73a4.94,4.94,0,0,0,3.64-2.73,4.7,4.7,0,0,0,.52-4.42c-.59-1.31-2-2.62-4.19-4-1.54-1-2.31-1.44-3.84-2.43Z"/><path class="67bfbfb7-ee1a-47ab-a6a9-4048340b16e1" d="M333,1445.37a2.39,2.39,0,0,1,3.57-1.15,2.89,2.89,0,0,1,1.5,1.51,2.59,2.59,0,0,1-.23,2.1,2.5,2.5,0,0,1-1.54,1.42,2.89,2.89,0,0,1-2.13-.31,2.93,2.93,0,0,1-1.43-1.42A2.44,2.44,0,0,1,333,1445.37Z"/><path class="67bfbfb7-ee1a-47ab-a6a9-4048340b16e1" d="M386.65,1438.44l-5.1,17.76a9.28,9.28,0,0,1-5.35,6.42c-2.69,1.13-6,1.09-9.73-.2s-6.33-3.26-7.67-5.78a9.55,9.55,0,0,1-.14-8.36l6.83-17.08c1.27.51,1.9.75,3.17,1.24L362,1449.84a6.78,6.78,0,0,0,.12,5.91c.94,1.71,2.79,3.07,5.52,4a9.07,9.07,0,0,0,6.62.15,6.84,6.84,0,0,0,3.72-4.63l5.41-17.79C384.69,1437.88,385.35,1438.07,386.65,1438.44Z"/><path class="67bfbfb7-ee1a-47ab-a6a9-4048340b16e1" d="M412.4,1473.1c-1.73-.25-2.59-.38-4.32-.66a226.19,226.19,0,0,1-12.13-26.83l-.16,0q-.66,4.18-1.45,7.6l-3.72,15.8c-1.38-.32-2.06-.49-3.44-.83q3.47-13.85,6.93-27.7c1.49.37,2.23.55,3.73.9A223.73,223.73,0,0,0,409.73,1468l.17,0q0-.53.33-3.38t.53-4.06l2.56-16.19,3.14.47Q414.44,1459,412.4,1473.1Z"/><path class="67bfbfb7-ee1a-47ab-a6a9-4048340b16e1" d="M421.39,1474.23q1.53-14.2,3-28.39c1.35.14,2,.21,3.38.34q-1.3,14.22-2.61,28.43C423.68,1474.47,422.91,1474.4,421.39,1474.23Z"/><path class="67bfbfb7-ee1a-47ab-a6a9-4048340b16e1" d="M459.89,1460.82c.23,4.71-1,8.39-3.85,11s-7.12,3.93-12.68,3.82c-3.66-.07-5.49-.14-9.14-.34q.8-14.26,1.59-28.51c3.58.2,5.37.26,9,.32,4.55.07,8.1,1.22,10.75,3.6S459.67,1456.42,459.89,1460.82Zm-3.84.28c-.12-3.72-1.23-6.49-3.23-8.33s-4.89-2.75-8.72-2.82c-2,0-3-.07-5-.15-.37,9.12-.55,13.68-.92,22.79,1.85.07,2.77.1,4.62.14,4.53.1,7.94-.92,10.16-2.91S456.18,1464.91,456.05,1461.1Z"/><path class="67bfbfb7-ee1a-47ab-a6a9-4048340b16e1" d="M493.92,1456.89c.88,4.48.31,8.27-1.86,11.32s-5.7,5-10.47,5.62-8.8-.26-11.64-2.59-4.37-5.87-4.71-10.55.64-8.31,2.81-11.07,5.35-4.36,9.68-4.94,7.67.17,10.52,2.3S493,1452.39,493.92,1456.89Zm-24.83,3.53c.34,3.85,1.51,6.7,3.58,8.5s4.94,2.5,8.53,2,6.22-1.92,7.72-4.19,1.86-5.33,1.18-9.15-2.06-6.49-4.08-8.16-4.63-2.26-7.9-1.82-5.66,1.7-7.2,3.86S468.75,1456.62,469.09,1460.42Z"/><path class="67bfbfb7-ee1a-47ab-a6a9-4048340b16e1" d="M181.1,1350.53c-3.09,3.37-6.46,5.17-10.18,5.25s-7.34-1.6-10.66-5.07-5-7.26-4.76-10.93,2.18-7,5.77-10,7.11-4.35,10.61-4.23,6.65,1.74,9.63,4.85,4.31,6.2,4.26,9.74S184.19,1347.15,181.1,1350.53Zm-17.35-17.79c-2.92,2.54-4.53,5.16-4.77,7.89s.88,5.46,3.38,8.07,5.19,3.86,7.9,3.71,5.37-1.67,8-4.49,4-5.49,4.19-8.09-.87-5-3.13-7.37-4.67-3.53-7.32-3.49S166.62,1330.23,163.74,1332.74Z"/><path class="67bfbfb7-ee1a-47ab-a6a9-4048340b16e1" d="M184.81,1372.45c-1.21-1-1.81-1.43-3-2.4L198,1350.19c-2.89-2.35-4.32-3.56-7.11-6l2-2.2a171.31,171.31,0,0,0,17,13.58l-1.72,2.4c-3-2.17-4.52-3.29-7.45-5.59Z"/><path class="67bfbfb7-ee1a-47ab-a6a9-4048340b16e1" d="M207,1373.82l-6.55,9.91c-1.28-.85-1.92-1.27-3.18-2.14L213.38,1358c2.62,1.8,4,2.67,6.64,4.36,3,1.89,4.93,3.79,5.74,5.81a7.32,7.32,0,0,1-.73,6.55c-1.85,3.29-4.9,4.54-9.17,3.53.27,6.14.51,9.24,1.19,15.47-1.59-.87-2.38-1.32-4-2.22-.41-5.71-.53-8.55-.61-14.19C210.26,1376,209.16,1375.26,207,1373.82Zm1.57-2.38c1.64,1.09,2.47,1.62,4.14,2.67,2.15,1.35,4,1.91,5.48,1.71a5,5,0,0,0,3.63-2.72,4.74,4.74,0,0,0,.57-4.4c-.57-1.31-1.92-2.61-4.07-4-1.5-.95-2.25-1.43-3.73-2.41Z"/><path class="67bfbfb7-ee1a-47ab-a6a9-4048340b16e1" d="M253,1394.46c-1.59,4.28-4,7.22-7.46,8.69s-7.4,1.28-11.75-.67-7.29-4.83-8.45-8.3-.58-7.28,1.61-11.42,4.93-6.72,8.2-7.93,6.77-.91,10.67.83,6.3,4.11,7.58,7.41S254.58,1390.16,253,1394.46Zm-22.67-9.91c-1.75,3.45-2.26,6.48-1.47,9.1s2.84,4.71,6.12,6.18,6.24,1.61,8.68.45,4.35-3.57,5.76-7.19,1.66-6.6.84-9.07-2.69-4.32-5.65-5.64-5.62-1.5-8-.46S232,1381.14,230.31,1384.55Z"/><path class="67bfbfb7-ee1a-47ab-a6a9-4048340b16e1" d="M274.85,1408.24a6.57,6.57,0,0,1-4.49,4.92c-2.4.82-5.39.74-8.88-.32a22.37,22.37,0,0,1-8.24-4l1-3a23.37,23.37,0,0,0,3.79,2.51,23.82,23.82,0,0,0,4.38,1.82,10.19,10.19,0,0,0,5.88.39,3.93,3.93,0,0,0,2.77-2.88,4.15,4.15,0,0,0,0-2.52,6.19,6.19,0,0,0-1.68-2.27,39.13,39.13,0,0,0-4-3.06,14,14,0,0,1-4.89-5.1,7,7,0,0,1-.09-5.41,6.37,6.37,0,0,1,4.13-4.15,11.33,11.33,0,0,1,7,.14,22.57,22.57,0,0,1,7.35,3.63c-.7,1-1,1.52-1.76,2.53a21,21,0,0,0-6.51-3.34,7.35,7.35,0,0,0-4.42-.17,3.72,3.72,0,0,0-2.44,2.52,4.55,4.55,0,0,0-.2,2.49,5.23,5.23,0,0,0,1.36,2.26,22.87,22.87,0,0,0,3.62,2.92c2.83,1.94,4.73,3.61,5.63,5.11A6.46,6.46,0,0,1,274.85,1408.24Z"/><text class="b77b8a5f-bb7b-43fe-99f7-2d784b1080e3" transform="translate(31 83.42)">¿Dónde vive la población de Guyana y Surinam?</text><text class="0c6c1bdb-e4ae-41e1-bf68-403f7f7f688a" transform="translate(330.35 234.04)"><tspan class="79239fc6-ba68-45e0-bd48-b9ba9de7cc64">Guyana</tspan><tspan class="4c83ee14-8ca5-419e-adfc-198db43d6a92"><tspan x="-224.17" y="64.8">El </tspan><tspan class="af290537-4c27-4d0c-bf1d-eb2a396a9688" x="-166.46" y="64.8">63% </tspan><tspan x="-42.14" y="64.8">de los 770 mil guya</tspan><tspan x="439.54" y="64.8">-</tspan><tspan x="-190.91" y="129.6">nos vive en el extranjero</tspan></tspan></text><text class="0c6c1bdb-e4ae-41e1-bf68-403f7f7f688a" transform="translate(1305.12 236.17)"><tspan class="79239fc6-ba68-45e0-bd48-b9ba9de7cc64">Surinam</tspan><tspan class="4c83ee14-8ca5-419e-adfc-198db43d6a92"><tspan x="-303.52" y="64.8">El </tspan><tspan class="af290537-4c27-4d0c-bf1d-eb2a396a9688" x="-245.8" y="64.8">49%</tspan><tspan x="-135.5" y="64.8" xml:space="preserve"> de los 563 mil surinameses </tspan><tspan x="-126.09" y="129.6">vive en el extranjero</tspan></tspan></text><g id="2173dbe9-e16e-490c-920f-04107b326e03" data-name="chords-container"><path id="00c6627b-c1f7-482e-abd6-ece1e1bc6a1e" data-name="chords id" class="6f5889c1-57bf-4969-9662-33f447d49afb" d="M175.87,1260.26c-154-167.91-142.68-428.84,25.22-582.82a412.5,412.5,0,0,1,258.18-108Q479.89,981.47,175.87,1260.26Z"/><g class="98a70699-a95b-4fa7-aa77-bbe6aad2926e"><text class="e699a5ad-dc28-4aac-93c3-46d127930d2d" transform="translate(99.7 834.39)">284,979</text><text class="e699a5ad-dc28-4aac-93c3-46d127930d2d" transform="translate(99.7 834.39)">284,979</text><text class="c27ee47d-ecfa-4d29-9976-bee724762a46" transform="translate(99.7 834.39)">284,979</text><text class="c27ee47d-ecfa-4d29-9976-bee724762a46" transform="translate(99.7 834.39)">284,979</text></g><path id="5513f4cb-790e-4621-bc7e-66a0776cfe3c" data-name="chords id" class="e3140b3b-6ddd-4bbb-871e-40ae622fc59c" d="M479.89,569c227.82,0,412.5,184.68,412.5,412.5a412.5,412.5,0,0,1-115.3,286.06q-297.2-286.06-317.81-698Q479.89,981.47,479.89,569Z"/><g class="98a70699-a95b-4fa7-aa77-bbe6aad2926e"><text class="e699a5ad-dc28-4aac-93c3-46d127930d2d" transform="translate(814.77 829.77)">294,318</text><text class="e699a5ad-dc28-4aac-93c3-46d127930d2d" transform="translate(457.18 594.45)">0</text><text class="ec601ad7-e017-4f31-818f-94d306cdf63b" transform="translate(814.77 829.77)">294,318</text><text class="c27ee47d-ecfa-4d29-9976-bee724762a46" transform="translate(457.18 594.45)">0</text></g><path id="066abdf1-27c8-4a82-a471-c6b822aaaee9" data-name="chords id" class="170f98e8-2a39-4121-aa58-e80f0471cb1b" d="M762.41,1282a412.5,412.5,0,0,1-306.22,111.26,7663.53,7663.53,0,0,0,3.08-823.8Q479.89,981.47,762.41,1282Z"/><g class="98a70699-a95b-4fa7-aa77-bbe6aad2926e"><text class="e699a5ad-dc28-4aac-93c3-46d127930d2d" transform="translate(590.53 1345.67)">102,252</text><text class="e699a5ad-dc28-4aac-93c3-46d127930d2d" transform="translate(457.18 594.45)">0</text><text class="02d70227-5a7d-4f96-9733-88a0e694b39a" transform="translate(590.53 1345.67)">102,252</text><text class="c27ee47d-ecfa-4d29-9976-bee724762a46" transform="translate(457.18 594.45)">0</text></g><path id="becc85c3-1ea3-4778-967d-b8727672fa7f" data-name="chords id" class="0f7c15f5-fa1a-44aa-9f50-fbd0cc92e06e" d="M354,1374.28a412.5,412.5,0,0,1-163.79-99.17Q479.89,981.47,459.27,569.48,479.89,981.47,354,1374.28Z"/><g class="98a70699-a95b-4fa7-aa77-bbe6aad2926e"><text class="e699a5ad-dc28-4aac-93c3-46d127930d2d" transform="translate(260.84 1312.94)">58,993</text><text class="e699a5ad-dc28-4aac-93c3-46d127930d2d" transform="translate(457.18 594.45)">0</text><text class="66cfb6a6-2b6f-40f3-ac51-1cdfc65620f0" transform="translate(260.84 1312.94)">58,993</text><text class="c27ee47d-ecfa-4d29-9976-bee724762a46" transform="translate(457.18 594.45)">0</text></g><path id="fe895b97-6cfc-43b2-bd87-fc64b5b7b2b7" data-name="chords id" class="339b252b-156f-44b9-b9ab-f461a580ea6a" d="M435.64,1391.59a412.5,412.5,0,0,1-61.88-11.51,2622.51,2622.51,0,0,0,85.51-810.6A5220.12,5220.12,0,0,1,435.64,1391.59Z"/><g class="98a70699-a95b-4fa7-aa77-bbe6aad2926e"><text class="e699a5ad-dc28-4aac-93c3-46d127930d2d" transform="translate(390.7 1362.44)">19,233</text><text class="e699a5ad-dc28-4aac-93c3-46d127930d2d" transform="translate(457.18 594.45)">0</text><text class="b84768c9-9825-42ff-b81f-fe7410d04ab6" transform="translate(390.7 1362.44)">19,233</text><text class="c27ee47d-ecfa-4d29-9976-bee724762a46" transform="translate(457.18 594.45)">0</text></g></g><g id="00a3f26b-31fe-4eb8-8712-f3af20b3490f" data-name="arcs-container"><path class="e3140b3b-6ddd-4bbb-871e-40ae622fc59c" d="M479.89,544c241.62,0,437.5,195.88,437.5,437.5a437.5,437.5,0,0,1-122.29,303.4L780.68,1271c159.9-166.13,154.86-430.42-11.27-590.33A417.5,417.5,0,0,0,479.89,564Z"/><path id="06627340-3688-4006-ba93-80b74bd99bf5" data-name="label name0" class="a2850889-e376-431a-bc43-d89007c3bd33" d="M308.61,578.89c222.34-94.59,479.26,9,573.86,231.31s-9,479.26-231.31,573.86"/><path class="170f98e8-2a39-4121-aa58-e80f0471cb1b" d="M779.54,1300.24a437.5,437.5,0,0,1-324.78,118l1.15-20a417.5,417.5,0,0,0,309.93-112.61Z"/><path id="b2baf9b6-9728-4f7e-9990-1c597332dff4" data-name="label name1" class="a2850889-e376-431a-bc43-d89007c3bd33" d="M68.69,1130.87c82.51,227.1,333.49,344.32,560.59,261.81S973.6,1059.19,891.09,832.09v0"/><path class="339b252b-156f-44b9-b9ab-f461a580ea6a" d="M433,1416.44a437.5,437.5,0,0,1-65.63-12.2l5.15-19.33a417.5,417.5,0,0,0,62.63,11.64Z"/><path id="e7a04ac8-17d5-4c77-b762-63a9b0fd722c" data-name="label name2" class="a2850889-e376-431a-bc43-d89007c3bd33" d="M49.76,901.49C5.59,1139,162.36,1367.43,399.91,1411.59S865.85,1299,910,1061.44"/><path class="0f7c15f5-fa1a-44aa-9f50-fbd0cc92e06e" d="M346.34,1398.09a437.5,437.5,0,0,1-173.72-105.18l14-14.24A417.5,417.5,0,0,0,352.45,1379Z"/><path id="6ec5f8d1-36b2-47dd-8035-88460ef79625" data-name="label name3" class="a2850889-e376-431a-bc43-d89007c3bd33" d="M105.64,754.87c-125.14,206.69-59,475.7,147.66,600.84s475.7,59,600.84-147.66"/><path class="6f5889c1-57bf-4969-9662-33f447d49afb" d="M157.44,1277.16C-5.87,1099.08,6.11,822.33,184.19,659A437.5,437.5,0,0,1,458,544.51l1,20C228.73,576,51.38,772,62.91,1002.33a417.5,417.5,0,0,0,109.27,261.31Z"/><path id="cb27eb2c-0a82-461e-b08b-0197b473b21d" data-name="label name4" class="a2850889-e376-431a-bc43-d89007c3bd33" d="M313.83,1386.23C90.27,1294.54-16.63,1039,75.06,815.44S422.3,485,645.85,576.67l.09,0"/></g><g id="b7618c4f-b876-49af-b577-01f4f457a348" data-name="chords-container"><path id="c3cd604f-b526-495d-82a9-878928d2f8c9" data-name="chords id" class="60ad48c3-4039-4c42-9d44-1824eb4e20c0" d="M1466.78,1434c-241.19-8.79-429.58-211.44-420.79-452.63,8.26-226.57,188.43-409.2,414.87-420.53Q1482.7,997.33,1466.78,1434Z"/><g class="98a70699-a95b-4fa7-aa77-bbe6aad2926e"><text class="e699a5ad-dc28-4aac-93c3-46d127930d2d" transform="translate(1049.02 1000.12)">287,686</text><text class="e699a5ad-dc28-4aac-93c3-46d127930d2d" transform="translate(1049.02 1000.12)">287,686</text><text class="7daa24ae-7719-4bc2-9742-69aea7f1d4e6" transform="translate(1049.02 1000.12)">287,686</text><text class="7daa24ae-7719-4bc2-9742-69aea7f1d4e6" transform="translate(1049.02 1000.12)">287,686</text></g><path id="5bc9d0e2-572d-41b8-9e17-ddd2bc988e72" data-name="chords id" class="26d343f6-1ffb-439a-8b84-58eddb76f6f3" d="M1482.7,560.33c241.35,0,437,195.65,437,437a437,437,0,0,1-47,197.15q-390-197.15-411.84-633.6Q1482.7,997.33,1482.7,560.33Z"/><g class="98a70699-a95b-4fa7-aa77-bbe6aad2926e"><text class="e699a5ad-dc28-4aac-93c3-46d127930d2d" transform="translate(1811.96 781.5)">191,986</text><text class="e699a5ad-dc28-4aac-93c3-46d127930d2d" transform="translate(1458.77 585.84)">0</text><text class="ec601ad7-e017-4f31-818f-94d306cdf63b" transform="translate(1811.96 781.5)">191,986</text><text class="7daa24ae-7719-4bc2-9742-69aea7f1d4e6" transform="translate(1458.77 585.84)">0</text></g><path id="50138ffd-f624-4a49-baed-c27de3e4d772" data-name="chords id" class="90c30c18-63a7-4d44-a688-1192ccf55256" d="M1862.36,1213.72a437,437,0,0,1-95.29,115.42Q1482.7,997.33,1460.86,560.88,1482.7,997.33,1862.36,1213.72Z"/><g class="98a70699-a95b-4fa7-aa77-bbe6aad2926e"><text class="e699a5ad-dc28-4aac-93c3-46d127930d2d" transform="translate(1782.06 1259.63)">32,412</text><text class="e699a5ad-dc28-4aac-93c3-46d127930d2d" transform="translate(1458.77 585.84)">0</text><text class="02d70227-5a7d-4f96-9733-88a0e694b39a" transform="translate(1782.06 1259.63)">32,412</text><text class="7daa24ae-7719-4bc2-9742-69aea7f1d4e6" transform="translate(1458.77 585.84)">0</text></g><path id="4df5a832-6797-4d24-b9ba-21e83c0b99df" data-name="chords id" class="3655239d-b4a1-4976-a74a-69d6bd7eca5f" d="M1750.13,1342.95a437,437,0,0,1-99,57.62Q1482.7,997.33,1460.86,560.88,1482.7,997.33,1750.13,1342.95Z"/><g class="98a70699-a95b-4fa7-aa77-bbe6aad2926e"><text class="e699a5ad-dc28-4aac-93c3-46d127930d2d" transform="translate(1671.6 1353.41)">24,753</text><text class="e699a5ad-dc28-4aac-93c3-46d127930d2d" transform="translate(1458.77 585.84)">0</text><text class="b84768c9-9825-42ff-b81f-fe7410d04ab6" transform="translate(1671.6 1353.41)">24,753</text><text class="7daa24ae-7719-4bc2-9742-69aea7f1d4e6" transform="translate(1458.77 585.84)">0</text></g><path id="2dde5545-5e5e-40d3-bfda-a11fd5a79067" data-name="chords id" class="08850803-9a98-42e8-bbd8-1456b9c1e557" d="M1630.77,1408.48a437,437,0,0,1-65.06,17.89,6176.12,6176.12,0,0,1-104.85-865.5A2918.49,2918.49,0,0,0,1630.77,1408.48Z"/><g class="98a70699-a95b-4fa7-aa77-bbe6aad2926e"><text class="e699a5ad-dc28-4aac-93c3-46d127930d2d" transform="translate(1573.6 1394.58)">14,555</text><text class="e699a5ad-dc28-4aac-93c3-46d127930d2d" transform="translate(1458.77 585.84)">0</text><text class="66cfb6a6-2b6f-40f3-ac51-1cdfc65620f0" transform="translate(1573.6 1394.58)">14,555</text><text class="7daa24ae-7719-4bc2-9742-69aea7f1d4e6" transform="translate(1458.77 585.84)">0</text></g><path id="7b5ef0ea-38af-46c3-944d-8d4a007a5972" data-name="chords id" class="b0fcde56-d52f-41f5-8756-770343290073" d="M1544.16,1430a437,437,0,0,1-55.53,4.3q-5.93-437-27.77-873.41Q1482.7,997.33,1544.16,1430Z"/><g class="98a70699-a95b-4fa7-aa77-bbe6aad2926e"><text class="e699a5ad-dc28-4aac-93c3-46d127930d2d" transform="translate(1496.18 1408.1)">12,010</text><text class="e699a5ad-dc28-4aac-93c3-46d127930d2d" transform="translate(1458.77 585.84)">0</text><text class="c27ee47d-ecfa-4d29-9976-bee724762a46" transform="translate(1496.18 1408.1)">12,010</text><text class="7daa24ae-7719-4bc2-9742-69aea7f1d4e6" transform="translate(1458.77 585.84)">0</text></g></g><g id="416a420b-d7a1-475b-a99d-8b8f7ce82d86" data-name="arcs-container"><path class="26d343f6-1ffb-439a-8b84-58eddb76f6f3" d="M1482.7,535.33c255.16,0,462,206.84,462,462A462,462,0,0,1,1895,1205.76l-17.85-9C1987.29,978.88,1900,713,1682.1,602.87a442,442,0,0,0-199.41-47.54Z"/><path id="721bdcf2-956a-46bf-9fbe-75e5f932f263" data-name="label name0" class="a2850889-e376-431a-bc43-d89007c3bd33" d="M1240.68,603.8C1458,470.13,1742.57,538,1876.23,755.31s65.83,501.89-151.51,635.56"/><g id="81741eb7-139b-4478-9e96-8ccf0789e671" data-name="length0"><text class="e5f3c5f9-dcc9-486b-9d0c-482ae986962d" transform="translate(1882.24 753.62)"> </text></g><path class="90c30c18-63a7-4d44-a688-1192ccf55256" d="M1884.08,1226.1a462,462,0,0,1-100.74,122l-13-15.19a442,442,0,0,0,96.38-116.74Z"/><path id="6dc8e4a2-d54c-4879-bc0d-97658aaeeb5b" data-name="label name1" class="a2850889-e376-431a-bc43-d89007c3bd33" d="M1188.57,1353.6c196.73,162.49,487.93,134.73,650.42-62s134.73-487.93-62-650.42l-.16-.13"/><path class="3655239d-b4a1-4976-a74a-69d6bd7eca5f" d="M1765.43,1362.72a462,462,0,0,1-104.66,60.92l-7.71-18.45a442,442,0,0,0,100.13-58.28Z"/><path id="08137cf2-5706-4d73-97a2-1362fadcaa9d" data-name="label name2" class="a2850889-e376-431a-bc43-d89007c3bd33" d="M1083.41,1229.73c128.31,220.55,411.12,295.32,631.66,167s295.32-411.12,167-631.66l-.09-.15"/><path class="08850803-9a98-42e8-bbd8-1456b9c1e557" d="M1639.24,1432a462,462,0,0,1-68.79,18.92l-3.8-19.64a442,442,0,0,0,65.81-18.1Z"/><path id="246b69b3-126a-4502-aca9-4e59178d29e7" data-name="label name3" class="a2850889-e376-431a-bc43-d89007c3bd33" d="M1037.24,1119.84c67.66,246,322,390.61,568,322.95s390.61-322,322.95-568"/><path class="b0fcde56-d52f-41f5-8756-770343290073" d="M1547.67,1454.74a462,462,0,0,1-58.71,4.55l-.27-20a442,442,0,0,0,56.17-4.35Z"/><path id="8843d315-d4ec-4cb1-bf37-ec85788a65a9" data-name="label name4" class="a2850889-e376-431a-bc43-d89007c3bd33" d="M1022.08,1033c19.75,254.39,242,444.6,496.37,424.85S1963,1216,1943.32,961.64"/><path class="60ad48c3-4039-4c42-9d44-1824eb4e20c0" d="M1465.87,1459c-255-9.3-454.16-223.54-444.86-478.53,8.73-239.54,199.21-432.61,438.6-444.59l1,20c-243.8,12.2-431.56,219.73-419.36,463.54,11.46,229,196.18,411.26,425.34,419.62Z"/><path id="4315e94c-4c63-4c8c-9a9a-3350555f1837" data-name="label name5" class="a2850889-e376-431a-bc43-d89007c3bd33" d="M1479.57,535.34C1224.42,537,1019,745.26,1020.66,1000.41s209.92,460.61,465.07,458.91h.1"/></g><line class="6e7a0803-4ef2-42bb-bcb8-eafd9c41627a" x1="1677.87" y1="1424.1" x2="1677.87" y2="1611.81"/><line class="6e7a0803-4ef2-42bb-bcb8-eafd9c41627a" x1="1612.86" y1="1452.11" x2="1612.86" y2="1608.52"/><line class="6e7a0803-4ef2-42bb-bcb8-eafd9c41627a" x1="1614.55" y1="1609.83" x2="1419.14" y2="1609.83"/><line class="6e7a0803-4ef2-42bb-bcb8-eafd9c41627a" x1="1871.55" y1="1611.83" x2="1676.14" y2="1611.83"/></svg>