<svg xmlns="http://www.w3.org/2000/svg" viewBox="0 0 855 798"><defs><style>.bb2f2723-78fe-4dde-90c6-3f467b3a2b0c{font-size:24px;}.\31 193a152-3138-4a0f-ac67-0a5021c25a62,.bb2f2723-78fe-4dde-90c6-3f467b3a2b0c,.db5fa072-b426-4368-9e80-62b67f097066,.e4fcfd30-f7ca-43b3-b8f9-a625165a3f00{fill:#757575;}.\35 b0c7594-a10a-4d74-b402-9a5e8bcf5439,.bb2f2723-78fe-4dde-90c6-3f467b3a2b0c,.db5fa072-b426-4368-9e80-62b67f097066{font-family:ArialMT, Arial;}.\31 fd56d9a-7fa6-4623-a5f1-225c4c653a2e,.\37 d0448f5-1a5c-43ef-9330-d087694df336,.bf40a949-79a6-4dae-a8a9-1de1fac516cd,.cd61b280-8f9e-4d32-bf89-32448031bbb0{fill:none;stroke:#757575;}.\31 fd56d9a-7fa6-4623-a5f1-225c4c653a2e,.\37 d0448f5-1a5c-43ef-9330-d087694df336,.a347443a-0cc7-4800-aca1-5bdf66e5402f,.bf40a949-79a6-4dae-a8a9-1de1fac516cd,.cd61b280-8f9e-4d32-bf89-32448031bbb0,.d0bd90ca-4bec-4a4c-b1e5-95148221757a{stroke-miterlimit:10;}.\37 d0448f5-1a5c-43ef-9330-d087694df336{stroke-dasharray:5.09 5.09;}.bf40a949-79a6-4dae-a8a9-1de1fac516cd{stroke-dasharray:5 5;}.cd61b280-8f9e-4d32-bf89-32448031bbb0{stroke-dasharray:5.06 5.06;}.e4fcfd30-f7ca-43b3-b8f9-a625165a3f00{fill-opacity:0.3;}.a347443a-0cc7-4800-aca1-5bdf66e5402f{fill:#d80909;}.a347443a-0cc7-4800-aca1-5bdf66e5402f,.d0bd90ca-4bec-4a4c-b1e5-95148221757a{stroke:#fff;stroke-width:0.75px;}.\35 b0c7594-a10a-4d74-b402-9a5e8bcf5439{font-size:23px;}.b5e5a172-ec18-4e31-96b4-bf7d8cca00fe{font-size:37px;fill:#323232;}.\31 193a152-3138-4a0f-ac67-0a5021c25a62,.b5e5a172-ec18-4e31-96b4-bf7d8cca00fe{font-family:Arial-BoldMT, Arial;font-weight:700;}.d0bd90ca-4bec-4a4c-b1e5-95148221757a{fill:#700a0a;}.\31 193a152-3138-4a0f-ac67-0a5021c25a62{font-size:32px;}.aa4db0dc-1bd6-43e8-b786-23578bdcb32a{letter-spacing:-0.04em;}.\39 8f80e32-80a3-41a3-b867-babe42bd4bbd{letter-spacing:-0.07em;}.db5fa072-b426-4368-9e80-62b67f097066{font-size:20px;}.\31 a7bafc7-7d34-4cbd-b47b-66ea2b39da06{letter-spacing:-0.02em;}.e44addf7-394a-45ca-bb63-51be2b21acda{letter-spacing:-0.06em;}</style></defs><title>2018.06_Mundial_CEquipos</title><g id="1fc06ee9-f955-4bec-b068-02a3a0735128" data-name="Capa 1"><text class="bb2f2723-78fe-4dde-90c6-3f467b3a2b0c" transform="translate(562.07 516.56)">150 millones</text><text class="bb2f2723-78fe-4dde-90c6-3f467b3a2b0c" transform="translate(511.07 590.56)">75 millones</text><text class="bb2f2723-78fe-4dde-90c6-3f467b3a2b0c" transform="translate(500.07 677.56)">10 millones</text><line class="1fd56d9a-7fa6-4623-a5f1-225c4c653a2e" x1="734" y1="683.5" x2="731.5" y2="683.5"/><line class="7d0448f5-1a5c-43ef-9330-d087694df336" x1="726.41" y1="683.5" x2="505.04" y2="683.5"/><line class="1fd56d9a-7fa6-4623-a5f1-225c4c653a2e" x1="502.5" y1="683.5" x2="500" y2="683.5"/><line class="1fd56d9a-7fa6-4623-a5f1-225c4c653a2e" x1="741" y1="596.5" x2="738.5" y2="596.5"/><line class="bf40a949-79a6-4dae-a8a9-1de1fac516cd" x1="733.5" y1="596.5" x2="516" y2="596.5"/><line class="1fd56d9a-7fa6-4623-a5f1-225c4c653a2e" x1="513.5" y1="596.5" x2="511" y2="596.5"/><line class="1fd56d9a-7fa6-4623-a5f1-225c4c653a2e" x1="738.5" y1="528.5" x2="736" y2="528.5"/><line class="cd61b280-8f9e-4d32-bf89-32448031bbb0" x1="730.94" y1="528.5" x2="571.53" y2="528.5"/><line class="1fd56d9a-7fa6-4623-a5f1-225c4c653a2e" x1="569" y1="528.5" x2="566.5" y2="528.5"/><path class="e4fcfd30-f7ca-43b3-b8f9-a625165a3f00" d="M843.12,635.36a110.36,110.36,0,0,1-113,110.33C671.56,744.31,623.81,696.56,622.43,638a110.36,110.36,0,1,1,220.69-2.66"/><circle class="e4fcfd30-f7ca-43b3-b8f9-a625165a3f00" cx="729.59" cy="716.33" r="31.3"/><circle class="e4fcfd30-f7ca-43b3-b8f9-a625165a3f00" cx="729.55" cy="670.44" r="74.57"/><circle class="a347443a-0cc7-4800-aca1-5bdf66e5402f" cx="173.26" cy="451.27" r="111.08"/><path class="a347443a-0cc7-4800-aca1-5bdf66e5402f" d="M474.59,451.27a95.12,95.12,0,1,1-95.12-95.12,95.12,95.12,0,0,1,95.12,95.12"/><circle class="a347443a-0cc7-4800-aca1-5bdf66e5402f" cx="291" cy="609.37" r="86.04"/><circle class="a347443a-0cc7-4800-aca1-5bdf66e5402f" cx="289.78" cy="312.32" r="70.25"/><circle class="a347443a-0cc7-4800-aca1-5bdf66e5402f" cx="165.58" cy="283" r="57.36"/><circle class="a347443a-0cc7-4800-aca1-5bdf66e5402f" cx="147.84" cy="617.78" r="57.36"/><circle class="a347443a-0cc7-4800-aca1-5bdf66e5402f" cx="411.27" cy="308.34" r="51.31"/><circle class="a347443a-0cc7-4800-aca1-5bdf66e5402f" cx="425.13" cy="588.68" r="49.68"/><circle class="a347443a-0cc7-4800-aca1-5bdf66e5402f" cx="74.31" cy="330.11" r="45.35"/><circle class="a347443a-0cc7-4800-aca1-5bdf66e5402f" cx="65.69" cy="560.94" r="42.54"/><circle class="a347443a-0cc7-4800-aca1-5bdf66e5402f" cx="481.3" cy="365.23" r="40.34"/><circle class="a347443a-0cc7-4800-aca1-5bdf66e5402f" cx="234.67" cy="219.29" r="38.27"/><circle class="a347443a-0cc7-4800-aca1-5bdf66e5402f" cx="488.94" cy="527.85" r="38.48"/><circle class="a347443a-0cc7-4800-aca1-5bdf66e5402f" cx="361.4" cy="235.03" r="37.19"/><circle class="a347443a-0cc7-4800-aca1-5bdf66e5402f" cx="202.65" cy="692.29" r="35.13"/><circle class="a347443a-0cc7-4800-aca1-5bdf66e5402f" cx="395" cy="663.97" r="31.42"/><path class="a347443a-0cc7-4800-aca1-5bdf66e5402f" d="M9.23,399.11a31.42,31.42,0,1,1,31.42,31.42A31.42,31.42,0,0,1,9.23,399.11"/><path class="a347443a-0cc7-4800-aca1-5bdf66e5402f" d="M11.64,494.39a28.68,28.68,0,1,1,28.68,28.68,28.68,28.68,0,0,1-28.68-28.68"/><circle class="a347443a-0cc7-4800-aca1-5bdf66e5402f" cx="499.01" cy="431.78" r="28.53"/><circle class="a347443a-0cc7-4800-aca1-5bdf66e5402f" cx="531.69" cy="478.54" r="28.53"/><circle class="a347443a-0cc7-4800-aca1-5bdf66e5402f" cx="294.99" cy="221.5" r="22.1"/><circle class="a347443a-0cc7-4800-aca1-5bdf66e5402f" cx="324.43" cy="191.17" r="20.17"/><circle class="a347443a-0cc7-4800-aca1-5bdf66e5402f" cx="49.67" cy="442.43" r="12.83"/></g><g id="ea788d85-8b2a-4198-9185-a02c886839cf" data-name="Capa 3"><text class="5b0c7594-a10a-4d74-b402-9a5e8bcf5439" transform="translate(56.99 68.58)">Cada círculo representa el valor de un futbolista en millones de euros</text><text class="b5e5a172-ec18-4e31-96b4-bf7d8cca00fe" transform="translate(60.37 37.6)">El valor de la selección belga y panameña</text><circle class="d0bd90ca-4bec-4a4c-b1e5-95148221757a" cx="722.04" cy="333.58" r="9.02"/><circle class="d0bd90ca-4bec-4a4c-b1e5-95148221757a" cx="739.12" cy="333.58" r="8.07"/><circle class="d0bd90ca-4bec-4a4c-b1e5-95148221757a" cx="731.48" cy="347.2" r="7.55"/><circle class="d0bd90ca-4bec-4a4c-b1e5-95148221757a" cx="731.48" cy="319.97" r="7.55"/><circle class="d0bd90ca-4bec-4a4c-b1e5-95148221757a" cx="716.77" cy="318.16" r="7.27"/><circle class="d0bd90ca-4bec-4a4c-b1e5-95148221757a" cx="717.31" cy="348.56" r="6.69"/><circle class="d0bd90ca-4bec-4a4c-b1e5-95148221757a" cx="745.39" cy="320.56" r="6.38"/><circle class="d0bd90ca-4bec-4a4c-b1e5-95148221757a" cx="745.39" cy="346.6" r="6.38"/><circle class="d0bd90ca-4bec-4a4c-b1e5-95148221757a" cx="707.84" cy="339.55" r="6.38"/><circle class="d0bd90ca-4bec-4a4c-b1e5-95148221757a" cx="706.27" cy="326.89" r="6.38"/><circle class="d0bd90ca-4bec-4a4c-b1e5-95148221757a" cx="753.26" cy="330.6" r="6.38"/><circle class="d0bd90ca-4bec-4a4c-b1e5-95148221757a" cx="757.51" cy="342.63" r="6.38"/><circle class="d0bd90ca-4bec-4a4c-b1e5-95148221757a" cx="724.66" cy="358.96" r="6.05"/><circle class="d0bd90ca-4bec-4a4c-b1e5-95148221757a" cx="725.22" cy="308.09" r="5.88"/><circle class="d0bd90ca-4bec-4a4c-b1e5-95148221757a" cx="739.95" cy="309.78" r="5.71"/><circle class="d0bd90ca-4bec-4a4c-b1e5-95148221757a" cx="739.84" cy="356.47" r="4.94"/><circle class="d0bd90ca-4bec-4a4c-b1e5-95148221757a" cx="734" cy="363.9" r="4.51"/><circle class="d0bd90ca-4bec-4a4c-b1e5-95148221757a" cx="733.52" cy="301.84" r="4.51"/><circle class="d0bd90ca-4bec-4a4c-b1e5-95148221757a" cx="706.9" cy="349.66" r="3.77"/><circle class="d0bd90ca-4bec-4a4c-b1e5-95148221757a" cx="755.54" cy="320.71" r="3.77"/><circle class="d0bd90ca-4bec-4a4c-b1e5-95148221757a" cx="705.81" cy="316.75" r="3.77"/><circle class="d0bd90ca-4bec-4a4c-b1e5-95148221757a" cx="748.56" cy="356.25" r="3.77"/><circle class="d0bd90ca-4bec-4a4c-b1e5-95148221757a" cx="715.81" cy="357.99" r="2.85"/></g><g id="78ec4003-4a83-4735-a1ca-966e761f3b53" data-name="Capa 2"><text class="1193a152-3138-4a0f-ac67-0a5021c25a62" transform="translate(218.24 149.1)">BÉLGIC<tspan class="aa4db0dc-1bd6-43e8-b786-23578bdcb32a" x="120.89" y="0">A</tspan></text><text class="1193a152-3138-4a0f-ac67-0a5021c25a62" transform="translate(648.61 256.1)"><tspan class="98f80e32-80a3-41a3-b867-babe42bd4bbd">P</tspan><tspan x="18.97" y="0">ANAMÁ</tspan></text><text class="db5fa072-b426-4368-9e80-62b67f097066" transform="translate(6.3 789.1)">Fuente: Elaboración propia a partir de<tspan class="1a7bafc7-7d34-4cbd-b47b-66ea2b39da06" x="335.76" y="0"> </tspan><tspan class="aa4db0dc-1bd6-43e8-b786-23578bdcb32a" x="340.96" y="0">T</tspan><tspan x="352.43" y="0">ransfermarkt</tspan></text><text class="db5fa072-b426-4368-9e80-62b67f097066" transform="translate(687.36 791.1)">L<tspan class="e44addf7-394a-45ca-bb63-51be2b21acda" x="11.12" y="0">A</tspan><tspan x="23.36" y="0"> </tspan><tspan class="98f80e32-80a3-41a3-b867-babe42bd4bbd" x="28.92" y="0">V</tspan><tspan x="40.77" y="0">ANGUARDI</tspan><tspan class="e44addf7-394a-45ca-bb63-51be2b21acda" x="146.34" y="0">A</tspan></text></g></svg>