<svg id="76987c4f-86da-44a1-ae9a-eab2bb997b7d" data-name="Capa 1" xmlns="http://www.w3.org/2000/svg" viewBox="0 0 801 1152.88"><defs><style>.\37 95be09f-3f63-49ab-bb0e-8eb4cdfd3fb1{fill:#a01f51;stroke:#fff;stroke-width:0.75px;}.\37 95be09f-3f63-49ab-bb0e-8eb4cdfd3fb1,.ce7b6c6f-08ea-461b-a5a8-f47c5eee3eba,.e920c6fe-83f8-4e50-9fa0-a2229973efad,.f827a8e6-adb9-4ea8-a044-902c8a103a13{stroke-miterlimit:10;}.\31 5e7dfc4-9a3e-4370-9e28-3be0494340cd{font-size:24px;}.\31 5e7dfc4-9a3e-4370-9e28-3be0494340cd,.\32 1ed1a90-9089-46f2-93a8-01fb38cc48dc,.\33 b896ae0-ea17-4590-b271-5561e84c31f4,.\38 1d9f87d-65f1-403d-99e3-72607a246696{fill:#757575;}.\31 5e7dfc4-9a3e-4370-9e28-3be0494340cd,.\32 89a28d2-f0bd-4121-99fb-0f46e6a4c9f4,.\33 b896ae0-ea17-4590-b271-5561e84c31f4{font-family:ArialMT, Arial;}.ce7b6c6f-08ea-461b-a5a8-f47c5eee3eba,.e920c6fe-83f8-4e50-9fa0-a2229973efad,.f827a8e6-adb9-4ea8-a044-902c8a103a13{fill:none;stroke:#757575;}.e920c6fe-83f8-4e50-9fa0-a2229973efad{stroke-dasharray:5.01 5.01;}.ce7b6c6f-08ea-461b-a5a8-f47c5eee3eba{stroke-dasharray:5.12 5.12;}.\38 1d9f87d-65f1-403d-99e3-72607a246696{fill-opacity:0.3;}.\32 89a28d2-f0bd-4121-99fb-0f46e6a4c9f4{font-size:23px;}.d82b098a-e67a-4dd9-b846-74fd7341b264{font-size:38px;}.\32 1ed1a90-9089-46f2-93a8-01fb38cc48dc,.d82b098a-e67a-4dd9-b846-74fd7341b264{font-family:Arial-BoldMT, Arial;font-weight:700;}.\32 1ed1a90-9089-46f2-93a8-01fb38cc48dc,.\33 b896ae0-ea17-4590-b271-5561e84c31f4{font-size:20px;}.\36 66ee46b-6fd4-4b6f-8c8d-b6ac471d7136{letter-spacing:-0.04em;}.bd09a61f-9735-4900-a1af-adeb5bb05cc1{letter-spacing:-0.02em;}.a342de95-e303-4375-8c30-2de2b57682b9{letter-spacing:-0.07em;}.\34 7ad048b-d006-4c79-b643-2e2f0ae121f1{letter-spacing:-0.09em;}.\31 60f6a29-80ab-4e8d-b4c0-669e44a46aa4{letter-spacing:-0.06em;}</style></defs><title>2018.06_Mundial_OctavosEquipos</title><circle class="795be09f-3f63-49ab-bb0e-8eb4cdfd3fb1" cx="70.44" cy="233.63" r="27.16"/><circle class="795be09f-3f63-49ab-bb0e-8eb4cdfd3fb1" cx="119.59" cy="233.63" r="20.24"/><circle class="795be09f-3f63-49ab-bb0e-8eb4cdfd3fb1" cx="101.15" cy="269.23" r="18.11"/><circle class="795be09f-3f63-49ab-bb0e-8eb4cdfd3fb1" cx="101.15" cy="198.03" r="18.11"/><circle class="795be09f-3f63-49ab-bb0e-8eb4cdfd3fb1" cx="65.74" cy="188.03" r="16.94"/><circle class="795be09f-3f63-49ab-bb0e-8eb4cdfd3fb1" cx="66.73" cy="278.06" r="15.68"/><circle class="795be09f-3f63-49ab-bb0e-8eb4cdfd3fb1" cx="136.62" cy="200.03" r="15.68"/><circle class="795be09f-3f63-49ab-bb0e-8eb4cdfd3fb1" cx="135.2" cy="266.41" r="14.31"/><circle class="795be09f-3f63-49ab-bb0e-8eb4cdfd3fb1" cx="38.77" cy="263.03" r="14.31"/><circle class="795be09f-3f63-49ab-bb0e-8eb4cdfd3fb1" cx="39.59" cy="205.56" r="12.8"/><circle class="795be09f-3f63-49ab-bb0e-8eb4cdfd3fb1" cx="86.66" cy="291.12" r="6.4"/><circle class="795be09f-3f63-49ab-bb0e-8eb4cdfd3fb1" cx="87.4" cy="176.04" r="6.07"/><circle class="795be09f-3f63-49ab-bb0e-8eb4cdfd3fb1" cx="142.41" cy="247.13" r="4.53"/><circle class="795be09f-3f63-49ab-bb0e-8eb4cdfd3fb1" cx="216.1" cy="235.91" r="24.79"/><circle class="795be09f-3f63-49ab-bb0e-8eb4cdfd3fb1" cx="261.84" cy="235.91" r="19.2"/><circle class="795be09f-3f63-49ab-bb0e-8eb4cdfd3fb1" cx="244.08" cy="270.69" r="18.11"/><circle class="795be09f-3f63-49ab-bb0e-8eb4cdfd3fb1" cx="244.08" cy="201.12" r="18.11"/><circle class="795be09f-3f63-49ab-bb0e-8eb4cdfd3fb1" cx="210.39" cy="195.45" r="14.31"/><circle class="795be09f-3f63-49ab-bb0e-8eb4cdfd3fb1" cx="210.39" cy="276.36" r="14.31"/><circle class="795be09f-3f63-49ab-bb0e-8eb4cdfd3fb1" cx="278.07" cy="204.6" r="14.31"/><circle class="795be09f-3f63-49ab-bb0e-8eb4cdfd3fb1" cx="278.07" cy="267.21" r="14.31"/><circle class="795be09f-3f63-49ab-bb0e-8eb4cdfd3fb1" cx="185.89" cy="261.1" r="12.8"/><circle class="795be09f-3f63-49ab-bb0e-8eb4cdfd3fb1" cx="186.91" cy="210.78" r="11.98"/><circle class="795be09f-3f63-49ab-bb0e-8eb4cdfd3fb1" cx="292.74" cy="227.44" r="11.09"/><circle class="795be09f-3f63-49ab-bb0e-8eb4cdfd3fb1" cx="295.52" cy="249.15" r="9.05"/><circle class="795be09f-3f63-49ab-bb0e-8eb4cdfd3fb1" cx="227.6" cy="292.94" r="7.84"/><circle class="795be09f-3f63-49ab-bb0e-8eb4cdfd3fb1" cx="227.6" cy="178.87" r="7.84"/><circle class="795be09f-3f63-49ab-bb0e-8eb4cdfd3fb1" cx="265.52" cy="185.97" r="6.4"/><circle class="795be09f-3f63-49ab-bb0e-8eb4cdfd3fb1" cx="381.31" cy="234.25" r="20.24"/><circle class="795be09f-3f63-49ab-bb0e-8eb4cdfd3fb1" cx="420.83" cy="234.25" r="17.53"/><circle class="795be09f-3f63-49ab-bb0e-8eb4cdfd3fb1" cx="403.69" cy="266.82" r="17.53"/><circle class="795be09f-3f63-49ab-bb0e-8eb4cdfd3fb1" cx="403.65" cy="202.37" r="16.94"/><circle class="795be09f-3f63-49ab-bb0e-8eb4cdfd3fb1" cx="369.51" cy="198.47" r="15.68"/><circle class="795be09f-3f63-49ab-bb0e-8eb4cdfd3fb1" cx="368.86" cy="269.8" r="15.68"/><circle class="795be09f-3f63-49ab-bb0e-8eb4cdfd3fb1" cx="437.99" cy="203.79" r="15.68"/><circle class="795be09f-3f63-49ab-bb0e-8eb4cdfd3fb1" cx="436.35" cy="263.21" r="13.58"/><path class="795be09f-3f63-49ab-bb0e-8eb4cdfd3fb1" d="M328.73,224.11a11.09,11.09,0,1,1,11.09,11.09,11.09,11.09,0,0,1-11.09-11.09" transform="translate(11.46 -3.72)"/><path class="795be09f-3f63-49ab-bb0e-8eb4cdfd3fb1" d="M328.49,251.27a11.09,11.09,0,1,1,11.09,11.09,11.09,11.09,0,0,1-11.09-11.09" transform="translate(11.46 -3.72)"/><circle class="795be09f-3f63-49ab-bb0e-8eb4cdfd3fb1" cx="449.36" cy="241.34" r="10.12"/><path class="795be09f-3f63-49ab-bb0e-8eb4cdfd3fb1" d="M457.68,225.3a10.12,10.12,0,1,1-10.12-10.12,10.12,10.12,0,0,1,10.12,10.12" transform="translate(11.46 -3.72)"/><circle class="795be09f-3f63-49ab-bb0e-8eb4cdfd3fb1" cx="542.22" cy="231.11" r="24.79"/><circle class="795be09f-3f63-49ab-bb0e-8eb4cdfd3fb1" cx="589" cy="231.11" r="20.24"/><circle class="795be09f-3f63-49ab-bb0e-8eb4cdfd3fb1" cx="569.73" cy="266.27" r="18.11"/><circle class="795be09f-3f63-49ab-bb0e-8eb4cdfd3fb1" cx="569.22" cy="202.49" r="12.8"/><circle class="795be09f-3f63-49ab-bb0e-8eb4cdfd3fb1" cx="544.04" cy="191.81" r="12.8"/><circle class="795be09f-3f63-49ab-bb0e-8eb4cdfd3fb1" cx="537.31" cy="270.14" r="12.8"/><circle class="795be09f-3f63-49ab-bb0e-8eb4cdfd3fb1" cx="594.86" cy="198.19" r="11.45"/><circle class="795be09f-3f63-49ab-bb0e-8eb4cdfd3fb1" cx="600.4" cy="262.16" r="11.09"/><circle class="795be09f-3f63-49ab-bb0e-8eb4cdfd3fb1" cx="521.18" cy="201.09" r="10.12"/><circle class="795be09f-3f63-49ab-bb0e-8eb4cdfd3fb1" cx="564.14" cy="179.44" r="9.05"/><circle class="795be09f-3f63-49ab-bb0e-8eb4cdfd3fb1" cx="518.35" cy="256.88" r="8.59"/><circle class="795be09f-3f63-49ab-bb0e-8eb4cdfd3fb1" cx="698.2" cy="228.05" r="27.16"/><path class="795be09f-3f63-49ab-bb0e-8eb4cdfd3fb1" d="M760,231.77a22.17,22.17,0,1,1-22.17-22.17A22.17,22.17,0,0,1,760,231.77" transform="translate(11.46 -3.72)"/><circle class="795be09f-3f63-49ab-bb0e-8eb4cdfd3fb1" cx="727.85" cy="261.35" r="15.68"/><circle class="795be09f-3f63-49ab-bb0e-8eb4cdfd3fb1" cx="727.78" cy="195.59" r="15.01"/><circle class="795be09f-3f63-49ab-bb0e-8eb4cdfd3fb1" cx="699.7" cy="186.37" r="12.8"/><circle class="795be09f-3f63-49ab-bb0e-8eb4cdfd3fb1" cx="700.12" cy="268" r="11.09"/><circle class="795be09f-3f63-49ab-bb0e-8eb4cdfd3fb1" cx="755.56" cy="193.61" r="11.09"/><circle class="795be09f-3f63-49ab-bb0e-8eb4cdfd3fb1" cx="753.05" cy="259.59" r="7.84"/><circle class="795be09f-3f63-49ab-bb0e-8eb4cdfd3fb1" cx="680.87" cy="260.45" r="7.84"/><circle class="795be09f-3f63-49ab-bb0e-8eb4cdfd3fb1" cx="681.58" cy="196.9" r="6.4"/><circle class="795be09f-3f63-49ab-bb0e-8eb4cdfd3fb1" cx="64.38" cy="449.74" r="19.2"/><circle class="795be09f-3f63-49ab-bb0e-8eb4cdfd3fb1" cx="104.53" cy="449.74" r="19.2"/><circle class="795be09f-3f63-49ab-bb0e-8eb4cdfd3fb1" cx="84.45" cy="481.87" r="16.94"/><circle class="795be09f-3f63-49ab-bb0e-8eb4cdfd3fb1" cx="84.45" cy="418.34" r="16.32"/><circle class="795be09f-3f63-49ab-bb0e-8eb4cdfd3fb1" cx="54.41" cy="418.36" r="11.98"/><circle class="795be09f-3f63-49ab-bb0e-8eb4cdfd3fb1" cx="112.61" cy="419.73" r="10.12"/><circle class="795be09f-3f63-49ab-bb0e-8eb4cdfd3fb1" cx="112.02" cy="478.79" r="9.05"/><circle class="795be09f-3f63-49ab-bb0e-8eb4cdfd3fb1" cx="57.4" cy="478.44" r="8.59"/><circle class="795be09f-3f63-49ab-bb0e-8eb4cdfd3fb1" cx="125.96" cy="467.7" r="7.01"/><circle class="795be09f-3f63-49ab-bb0e-8eb4cdfd3fb1" cx="45.57" cy="468.13" r="5.36"/><circle class="795be09f-3f63-49ab-bb0e-8eb4cdfd3fb1" cx="233.39" cy="450.69" r="20.24"/><circle class="795be09f-3f63-49ab-bb0e-8eb4cdfd3fb1" cx="272.32" cy="450.69" r="16.94"/><circle class="795be09f-3f63-49ab-bb0e-8eb4cdfd3fb1" cx="256.02" cy="482.36" r="16.94"/><circle class="795be09f-3f63-49ab-bb0e-8eb4cdfd3fb1" cx="255.91" cy="420.5" r="15.68"/><circle class="795be09f-3f63-49ab-bb0e-8eb4cdfd3fb1" cx="225.22" cy="416.07" r="13.58"/><circle class="795be09f-3f63-49ab-bb0e-8eb4cdfd3fb1" cx="225.39" cy="483.7" r="11.98"/><circle class="795be09f-3f63-49ab-bb0e-8eb4cdfd3fb1" cx="285.22" cy="422.88" r="11.98"/><circle class="795be09f-3f63-49ab-bb0e-8eb4cdfd3fb1" cx="284.3" cy="476.88" r="10.12"/><circle class="795be09f-3f63-49ab-bb0e-8eb4cdfd3fb1" cx="212.31" cy="432.7" r="5.73"/><circle class="795be09f-3f63-49ab-bb0e-8eb4cdfd3fb1" cx="390.52" cy="441.97" r="21.23"/><circle class="795be09f-3f63-49ab-bb0e-8eb4cdfd3fb1" cx="429.18" cy="441.97" r="15.68"/><circle class="795be09f-3f63-49ab-bb0e-8eb4cdfd3fb1" cx="415" cy="471.88" r="15.68"/><circle class="795be09f-3f63-49ab-bb0e-8eb4cdfd3fb1" cx="414.59" cy="415.49" r="12.8"/><circle class="795be09f-3f63-49ab-bb0e-8eb4cdfd3fb1" cx="388.85" cy="406.23" r="12.8"/><circle class="795be09f-3f63-49ab-bb0e-8eb4cdfd3fb1" cx="386.44" cy="476.15" r="11.45"/><circle class="795be09f-3f63-49ab-bb0e-8eb4cdfd3fb1" cx="437.65" cy="417.37" r="8.59"/><circle class="795be09f-3f63-49ab-bb0e-8eb4cdfd3fb1" cx="439.34" cy="465.1" r="7.84"/><circle class="795be09f-3f63-49ab-bb0e-8eb4cdfd3fb1" cx="379.18" cy="419.68" r="2.02"/><circle class="795be09f-3f63-49ab-bb0e-8eb4cdfd3fb1" cx="552.33" cy="447.7" r="20.24"/><circle class="795be09f-3f63-49ab-bb0e-8eb4cdfd3fb1" cx="591.26" cy="447.7" r="16.94"/><circle class="795be09f-3f63-49ab-bb0e-8eb4cdfd3fb1" cx="574.46" cy="472.28" r="11.09"/><circle class="795be09f-3f63-49ab-bb0e-8eb4cdfd3fb1" cx="574.43" cy="423.59" r="10.71"/><circle class="795be09f-3f63-49ab-bb0e-8eb4cdfd3fb1" cx="554.05" cy="416.7" r="9.05"/><circle class="795be09f-3f63-49ab-bb0e-8eb4cdfd3fb1" cx="554.97" cy="476.72" r="7.16"/><circle class="795be09f-3f63-49ab-bb0e-8eb4cdfd3fb1" cx="589.53" cy="426.22" r="2.86"/><path class="795be09f-3f63-49ab-bb0e-8eb4cdfd3fb1" d="M672.85,448.84a16.94,16.94,0,1,1,16.94,16.94,16.94,16.94,0,0,1-16.94-16.94" transform="translate(11.46 -3.72)"/><circle class="795be09f-3f63-49ab-bb0e-8eb4cdfd3fb1" cx="735.61" cy="445.12" r="15.68"/><path class="795be09f-3f63-49ab-bb0e-8eb4cdfd3fb1" d="M708.1,487.26a12.8,12.8,0,1,1,12.8-12.8,12.8,12.8,0,0,1-12.8,12.8" transform="translate(11.46 -3.72)"/><path class="795be09f-3f63-49ab-bb0e-8eb4cdfd3fb1" d="M708.1,410.42a12.8,12.8,0,1,1-12.8,12.8,12.8,12.8,0,0,1,12.8-12.8" transform="translate(11.46 -3.72)"/><circle class="795be09f-3f63-49ab-bb0e-8eb4cdfd3fb1" cx="69.23" cy="622.09" r="18.11"/><circle class="795be09f-3f63-49ab-bb0e-8eb4cdfd3fb1" cx="99.2" cy="622.09" r="10.12"/><path class="795be09f-3f63-49ab-bb0e-8eb4cdfd3fb1" d="M79.68,636.14A10.12,10.12,0,0,1,89.8,646.26c0,5.59-4.53,8.12-10.12,8.12s-10.12-2.53-10.12-8.12A10.12,10.12,0,0,1,79.68,636.14Z" transform="translate(11.46 -3.72)"/><circle class="795be09f-3f63-49ab-bb0e-8eb4cdfd3fb1" cx="90.85" cy="602.91" r="9.05"/><circle class="795be09f-3f63-49ab-bb0e-8eb4cdfd3fb1" cx="393.76" cy="621.73" r="11.09"/><circle class="795be09f-3f63-49ab-bb0e-8eb4cdfd3fb1" cx="416.71" cy="621.73" r="10.12"/><circle class="795be09f-3f63-49ab-bb0e-8eb4cdfd3fb1" cx="406.14" cy="639.78" r="9.05"/><circle class="795be09f-3f63-49ab-bb0e-8eb4cdfd3fb1" cx="406.1" cy="604.82" r="8.1"/><circle class="795be09f-3f63-49ab-bb0e-8eb4cdfd3fb1" cx="388.93" cy="601.9" r="7.57"/><circle class="795be09f-3f63-49ab-bb0e-8eb4cdfd3fb1" cx="389.27" cy="640.09" r="6.07"/><circle class="795be09f-3f63-49ab-bb0e-8eb4cdfd3fb1" cx="74.27" cy="598.09" r="6.07"/><path class="795be09f-3f63-49ab-bb0e-8eb4cdfd3fb1" d="M534.16,625.17A12.8,12.8,0,1,1,547,638a12.81,12.81,0,0,1-12.8-12.8" transform="translate(11.46 -3.72)"/><circle class="795be09f-3f63-49ab-bb0e-8eb4cdfd3fb1" cx="582.46" cy="621.45" r="9.49"/><circle class="795be09f-3f63-49ab-bb0e-8eb4cdfd3fb1" cx="573.39" cy="639.09" r="8.59"/><path class="795be09f-3f63-49ab-bb0e-8eb4cdfd3fb1" d="M561.76,601.8a7.3,7.3,0,1,1-7.3,7.3,7.3,7.3,0,0,1,7.3-7.3" transform="translate(11.46 -3.72)"/><path class="795be09f-3f63-49ab-bb0e-8eb4cdfd3fb1" d="M547.87,599.93a5.36,5.36,0,1,1-5.36,5.36,5.36,5.36,0,0,1,5.36-5.36" transform="translate(11.46 -3.72)"/><path class="795be09f-3f63-49ab-bb0e-8eb4cdfd3fb1" d="M681.86,618.12a12.8,12.8,0,0,1,12.8-12.8" transform="translate(11.46 -3.72)"/><path class="795be09f-3f63-49ab-bb0e-8eb4cdfd3fb1" d="M694.66,605.32a12.8,12.8,0,1,1-12.8,12.8" transform="translate(11.46 -3.72)"/><path class="795be09f-3f63-49ab-bb0e-8eb4cdfd3fb1" d="M718.92,608.41a9.71,9.71,0,1,1-9.71,9.71,9.71,9.71,0,0,1,9.71-9.71" transform="translate(11.46 -3.72)"/><circle class="795be09f-3f63-49ab-bb0e-8eb4cdfd3fb1" cx="721.03" cy="632.4" r="8.82"/><circle class="795be09f-3f63-49ab-bb0e-8eb4cdfd3fb1" cx="720.68" cy="599.8" r="6.07"/><circle class="795be09f-3f63-49ab-bb0e-8eb4cdfd3fb1" cx="250.49" cy="618.88" r="16.32"/><path class="795be09f-3f63-49ab-bb0e-8eb4cdfd3fb1" d="M241.56,639.15a9.71,9.71,0,0,1,9.71,9.71c0,5.36-4.35,7.71-9.71,7.71s-9.71-2.35-9.71-7.71A9.71,9.71,0,0,1,241.56,639.15Z" transform="translate(11.46 -3.72)"/><circle class="795be09f-3f63-49ab-bb0e-8eb4cdfd3fb1" cx="233.49" cy="638.76" r="9.05"/><circle class="795be09f-3f63-49ab-bb0e-8eb4cdfd3fb1" cx="226.72" cy="623.27" r="7.01"/><circle class="795be09f-3f63-49ab-bb0e-8eb4cdfd3fb1" cx="229.43" cy="608.75" r="6.4"/><circle class="795be09f-3f63-49ab-bb0e-8eb4cdfd3fb1" cx="238.62" cy="601.67" r="4.29"/><circle class="795be09f-3f63-49ab-bb0e-8eb4cdfd3fb1" cx="70.16" cy="758.32" r="9.49"/><circle class="795be09f-3f63-49ab-bb0e-8eb4cdfd3fb1" cx="90.46" cy="758.32" r="9.05"/><circle class="795be09f-3f63-49ab-bb0e-8eb4cdfd3fb1" cx="80.73" cy="774.81" r="8.35"/><circle class="795be09f-3f63-49ab-bb0e-8eb4cdfd3fb1" cx="80.72" cy="742.74" r="7.57"/><circle class="795be09f-3f63-49ab-bb0e-8eb4cdfd3fb1" cx="65.69" cy="741.95" r="5.73"/><circle class="795be09f-3f63-49ab-bb0e-8eb4cdfd3fb1" cx="66.97" cy="773" r="3.79"/><circle class="795be09f-3f63-49ab-bb0e-8eb4cdfd3fb1" cx="232.08" cy="760.91" r="10.12"/><circle class="795be09f-3f63-49ab-bb0e-8eb4cdfd3fb1" cx="91.08" cy="640.91" r="10.12"/><circle class="795be09f-3f63-49ab-bb0e-8eb4cdfd3fb1" cx="253.08" cy="644.91" r="10.12"/><circle class="795be09f-3f63-49ab-bb0e-8eb4cdfd3fb1" cx="253" cy="760.91" r="9.05"/><circle class="795be09f-3f63-49ab-bb0e-8eb4cdfd3fb1" cx="243.58" cy="778.39" r="9.05"/><circle class="795be09f-3f63-49ab-bb0e-8eb4cdfd3fb1" cx="243.45" cy="746.61" r="6.4"/><circle class="795be09f-3f63-49ab-bb0e-8eb4cdfd3fb1" cx="230.57" cy="744.15" r="4.96"/><circle class="795be09f-3f63-49ab-bb0e-8eb4cdfd3fb1" cx="392.24" cy="756.92" r="12.8"/><circle class="795be09f-3f63-49ab-bb0e-8eb4cdfd3fb1" cx="419.59" cy="756.92" r="12.8"/><circle class="795be09f-3f63-49ab-bb0e-8eb4cdfd3fb1" cx="559.33" cy="753.01" r="15.68"/><circle class="795be09f-3f63-49ab-bb0e-8eb4cdfd3fb1" cx="585.81" cy="753.01" r="9.05"/><circle class="795be09f-3f63-49ab-bb0e-8eb4cdfd3fb1" cx="70.23" cy="883.94" r="11.09"/><circle class="795be09f-3f63-49ab-bb0e-8eb4cdfd3fb1" cx="90.08" cy="883.94" r="7.01"/><circle class="795be09f-3f63-49ab-bb0e-8eb4cdfd3fb1" cx="83.81" cy="898.42" r="7.01"/><circle class="795be09f-3f63-49ab-bb0e-8eb4cdfd3fb1" cx="83.69" cy="870.2" r="6.4"/><circle class="795be09f-3f63-49ab-bb0e-8eb4cdfd3fb1" cx="71.53" cy="866.63" r="4.53"/><circle class="795be09f-3f63-49ab-bb0e-8eb4cdfd3fb1" cx="70.84" cy="901.29" r="4.53"/><circle class="795be09f-3f63-49ab-bb0e-8eb4cdfd3fb1" cx="238.76" cy="879.85" r="15.68"/><circle class="795be09f-3f63-49ab-bb0e-8eb4cdfd3fb1" cx="263.49" cy="879.85" r="7.3"/><circle class="795be09f-3f63-49ab-bb0e-8eb4cdfd3fb1" cx="390.57" cy="876.53" r="12.8"/><circle class="795be09f-3f63-49ab-bb0e-8eb4cdfd3fb1" cx="412.96" cy="876.53" r="7.84"/><circle class="795be09f-3f63-49ab-bb0e-8eb4cdfd3fb1" cx="406.05" cy="891.94" r="7.3"/><circle class="795be09f-3f63-49ab-bb0e-8eb4cdfd3fb1" cx="405.44" cy="864.58" r="4.53"/><circle class="795be09f-3f63-49ab-bb0e-8eb4cdfd3fb1" cx="93.13" cy="1096.11" r="1.17"/><circle class="795be09f-3f63-49ab-bb0e-8eb4cdfd3fb1" cx="97" cy="1093.67" r="0.44"/><text class="15e7dfc4-9a3e-4370-9e28-3be0494340cd" transform="translate(633.07 1046.84)">180 Millones</text><text class="15e7dfc4-9a3e-4370-9e28-3be0494340cd" transform="translate(646.07 1086.84)">15 Millones</text><line class="f827a8e6-adb9-4ea8-a044-902c8a103a13" x1="568.92" y1="1091.84" x2="571.42" y2="1091.84"/><line class="e920c6fe-83f8-4e50-9fa0-a2229973efad" x1="576.43" y1="1091.84" x2="764.49" y2="1091.84"/><line class="f827a8e6-adb9-4ea8-a044-902c8a103a13" x1="767" y1="1091.84" x2="769.5" y2="1091.84"/><line class="f827a8e6-adb9-4ea8-a044-902c8a103a13" x1="573.06" y1="1050.38" x2="575.56" y2="1050.38"/><line class="ce7b6c6f-08ea-461b-a5a8-f47c5eee3eba" x1="580.68" y1="1050.38" x2="762.37" y2="1050.38"/><line class="f827a8e6-adb9-4ea8-a044-902c8a103a13" x1="764.93" y1="1050.38" x2="767.43" y2="1050.38"/><path class="81d9f87d-65f1-403d-99e3-72607a246696" d="M581.12,1081.44a26.56,26.56,0,1,1-26.56-26.56,26.56,26.56,0,0,1,26.56,26.56" transform="translate(11.46 -3.72)"/><path class="81d9f87d-65f1-403d-99e3-72607a246696" d="M562.17,1101.89a5.54,5.54,0,1,1-5.54-5.54,5.54,5.54,0,0,1,5.54,5.54" transform="translate(11.46 -3.72)"/><text class="289a28d2-f0bd-4121-99fb-0f46e6a4c9f4" transform="translate(50.99 60.86)">Cada círculo representa el valor de un futbolista en millones de euros</text><text class="d82b098a-e67a-4dd9-b846-74fd7341b264" transform="translate(51.05 32.6)">¿Cuánto aporta cada club en octavos?</text><text class="21ed1a90-9089-46f2-93a8-01fb38cc48dc" transform="translate(27.13 118.39)">BARCELON<tspan class="666ee46b-6fd4-4b6f-8c8d-b6ac471d7136" x="113.33" y="0">A</tspan><tspan x="46.83" y="24">794</tspan></text><text class="21ed1a90-9089-46f2-93a8-01fb38cc48dc" transform="translate(211.16 117.39)">M. CIT<tspan class="bd09a61f-9735-4900-a1af-adeb5bb05cc1" x="59.99" y="0">Y</tspan><tspan x="19.8" y="24">765</tspan></text><text class="21ed1a90-9089-46f2-93a8-01fb38cc48dc" transform="translate(334.83 117.39)">REA<tspan class="bd09a61f-9735-4900-a1af-adeb5bb05cc1" x="42.23" y="0">L</tspan><tspan x="54.08" y="0" xml:space="preserve"> MADRID</tspan><tspan x="53.13" y="24">655</tspan></text><text class="21ed1a90-9089-46f2-93a8-01fb38cc48dc" transform="translate(503.05 119.39)"><tspan class="bd09a61f-9735-4900-a1af-adeb5bb05cc1">T</tspan><tspan x="11.86" y="0">OTTENHAM</tspan><tspan x="45.9" y="24">575</tspan></text><text class="21ed1a90-9089-46f2-93a8-01fb38cc48dc" transform="translate(693.52 118.39)">PSG<tspan x="4.43" y="24">555</tspan></text><text class="21ed1a90-9089-46f2-93a8-01fb38cc48dc" transform="translate(38.39 351.39)"><tspan class="a342de95-e303-4375-8c30-2de2b57682b9">A</tspan><tspan x="12.96" y="0">TLÉTICO</tspan><tspan x="32.57" y="24">448</tspan></text><text class="21ed1a90-9089-46f2-93a8-01fb38cc48dc" transform="translate(194.53 351.39)">M. UNITED<tspan x="34.42" y="24">432</tspan></text><text class="21ed1a90-9089-46f2-93a8-01fb38cc48dc" transform="translate(358.32 349.39)">CHELSE<tspan class="666ee46b-6fd4-4b6f-8c8d-b6ac471d7136" x="81.12" y="0">A</tspan><tspan x="30.73" y="24">376</tspan></text><text class="21ed1a90-9089-46f2-93a8-01fb38cc48dc" transform="translate(511.38 350.39)">JUVENTUS<tspan x="36.66" y="24">262</tspan></text><text class="21ed1a90-9089-46f2-93a8-01fb38cc48dc" transform="translate(673.42 350.39)">B<tspan class="47ad048b-d006-4c79-b643-2e2f0ae121f1" x="14.44" y="0">A</tspan><tspan x="27.05" y="0">YERN</tspan><tspan x="24.62" y="24">210</tspan></text><text class="21ed1a90-9089-46f2-93a8-01fb38cc48dc" transform="translate(25.04 554.39)">LIVERPOO<tspan class="bd09a61f-9735-4900-a1af-adeb5bb05cc1" x="103.35" y="0">L</tspan><tspan x="40.92" y="24">160</tspan></text><text class="21ed1a90-9089-46f2-93a8-01fb38cc48dc" transform="translate(333.93 555.39)">SPORTING C<tspan class="bd09a61f-9735-4900-a1af-adeb5bb05cc1" x="124.45" y="0">P</tspan><tspan class="160f6a29-80ab-4e8d-b4c0-669e44a46aa4" x="52.58" y="24">1</tspan><tspan x="62.6" y="24">14</tspan></text><text class="21ed1a90-9089-46f2-93a8-01fb38cc48dc" transform="translate(508.74 555.39)">DORTMUND<tspan x="41.64" y="24">100</tspan></text><text class="21ed1a90-9089-46f2-93a8-01fb38cc48dc" transform="translate(694.06 554.39)">INTER<tspan x="18.88" y="24">91</tspan></text><text class="21ed1a90-9089-46f2-93a8-01fb38cc48dc" transform="translate(175.42 555.39)">AS MÓNACO<tspan x="45.54" y="24">134</tspan></text><text class="21ed1a90-9089-46f2-93a8-01fb38cc48dc" transform="translate(22.65 697.39)">GLADBACH <tspan x="48.87" y="24">84</tspan></text><text class="21ed1a90-9089-46f2-93a8-01fb38cc48dc" transform="translate(187.52 699.39)">LEICESTER<tspan x="45" y="24">81</tspan></text><text class="21ed1a90-9089-46f2-93a8-01fb38cc48dc" transform="translate(355.64 697.39)"><tspan class="a342de95-e303-4375-8c30-2de2b57682b9">V</tspan><tspan x="11.86" y="0">ALENCI</tspan><tspan class="666ee46b-6fd4-4b6f-8c8d-b6ac471d7136" x="86.3" y="0">A</tspan><tspan x="38.88" y="24">80</tspan></text><text class="21ed1a90-9089-46f2-93a8-01fb38cc48dc" transform="translate(542.78 698.39)"><tspan class="47ad048b-d006-4c79-b643-2e2f0ae121f1">L</tspan><tspan x="10.38" y="0">YON</tspan><tspan x="15.74" y="24">80</tspan></text><text class="21ed1a90-9089-46f2-93a8-01fb38cc48dc" transform="translate(686.98 698.39)">MILÁN<tspan x="20.54" y="24">76</tspan></text><text class="21ed1a90-9089-46f2-93a8-01fb38cc48dc" transform="translate(41.79 832.39)">SEVILL<tspan class="666ee46b-6fd4-4b6f-8c8d-b6ac471d7136" x="70.01" y="0">A</tspan><tspan x="30.73" y="24">74</tspan></text><text class="21ed1a90-9089-46f2-93a8-01fb38cc48dc" transform="translate(214.46 833.39)">ROM<tspan class="666ee46b-6fd4-4b6f-8c8d-b6ac471d7136" x="46.66" y="0">A</tspan><tspan x="19.06" y="24">73</tspan></text><text class="21ed1a90-9089-46f2-93a8-01fb38cc48dc" transform="translate(354.49 834.39)">ARSENA<tspan class="bd09a61f-9735-4900-a1af-adeb5bb05cc1" x="84.45" y="0">L</tspan><tspan x="37.03" y="24">73</tspan></text><text class="21ed1a90-9089-46f2-93a8-01fb38cc48dc" transform="translate(513.46 834.39)">MARSELL<tspan class="666ee46b-6fd4-4b6f-8c8d-b6ac471d7136" x="96.66" y="0">A</tspan><tspan x="44.06" y="24">65</tspan></text><text class="21ed1a90-9089-46f2-93a8-01fb38cc48dc" transform="translate(685.17 834.39)">CE<tspan class="a342de95-e303-4375-8c30-2de2b57682b9" x="27.78" y="0">LT</tspan><tspan class="666ee46b-6fd4-4b6f-8c8d-b6ac471d7136" x="49.25" y="0">A</tspan><tspan x="20.35" y="24">65</tspan></text><text class="21ed1a90-9089-46f2-93a8-01fb38cc48dc" transform="translate(29.2 939.39)">WEST HAM<tspan x="43.32" y="24">60</tspan></text><text class="21ed1a90-9089-46f2-93a8-01fb38cc48dc" transform="translate(173.68 939.39)">CSK<tspan class="666ee46b-6fd4-4b6f-8c8d-b6ac471d7136" x="42.23" y="0">A</tspan><tspan x="55.93" y="0" xml:space="preserve"> MOSCÚ</tspan><tspan x="56.84" y="24">51</tspan></text><text class="21ed1a90-9089-46f2-93a8-01fb38cc48dc" transform="translate(23.08 1045.39)">R. SOCIEDAD<tspan x="54.44" y="24">41</tspan></text><text class="21ed1a90-9089-46f2-93a8-01fb38cc48dc" transform="translate(186 1045.39)">S<tspan class="bd09a61f-9735-4900-a1af-adeb5bb05cc1" x="13.34" y="0">T</tspan><tspan x="25.2" y="0">OKE CIT</tspan><tspan class="bd09a61f-9735-4900-a1af-adeb5bb05cc1" x="106.31" y="0">Y</tspan><tspan x="48.52" y="24">40</tspan></text><text class="21ed1a90-9089-46f2-93a8-01fb38cc48dc" transform="translate(360.49 939.39)">OPOR<tspan class="bd09a61f-9735-4900-a1af-adeb5bb05cc1" x="58.9" y="0">T</tspan><tspan x="70.75" y="0">O</tspan><tspan x="32.03" y="24">50</tspan></text><text class="21ed1a90-9089-46f2-93a8-01fb38cc48dc" transform="translate(524.57 939.39)">BENFIC<tspan class="666ee46b-6fd4-4b6f-8c8d-b6ac471d7136" x="74.44" y="0">A</tspan><tspan x="32.95" y="24">48</tspan></text><text class="21ed1a90-9089-46f2-93a8-01fb38cc48dc" transform="translate(667.3 939.39)">NÁPOLES<tspan x="37.22" y="24">45</tspan></text><circle class="795be09f-3f63-49ab-bb0e-8eb4cdfd3fb1" cx="560.34" cy="879.72" r="14.31"/><circle class="795be09f-3f63-49ab-bb0e-8eb4cdfd3fb1" cx="581.76" cy="879.72" r="5.36"/><circle class="795be09f-3f63-49ab-bb0e-8eb4cdfd3fb1" cx="577.97" cy="891.17" r="4.96"/><circle class="795be09f-3f63-49ab-bb0e-8eb4cdfd3fb1" cx="577.23" cy="870.46" r="3.2"/><circle class="795be09f-3f63-49ab-bb0e-8eb4cdfd3fb1" cx="706.72" cy="758.09" r="10.12"/><circle class="795be09f-3f63-49ab-bb0e-8eb4cdfd3fb1" cx="726.93" cy="758.09" r="8.35"/><circle class="795be09f-3f63-49ab-bb0e-8eb4cdfd3fb1" cx="718.5" cy="774.21" r="8.1"/><circle class="795be09f-3f63-49ab-bb0e-8eb4cdfd3fb1" cx="718.5" cy="741.97" r="8.1"/><circle class="795be09f-3f63-49ab-bb0e-8eb4cdfd3fb1" cx="705.87" cy="743.39" r="2.86"/><circle class="795be09f-3f63-49ab-bb0e-8eb4cdfd3fb1" cx="709.43" cy="880.64" r="7.57"/><circle class="795be09f-3f63-49ab-bb0e-8eb4cdfd3fb1" cx="724.82" cy="880.64" r="6.07"/><circle class="795be09f-3f63-49ab-bb0e-8eb4cdfd3fb1" cx="718.33" cy="890.26" r="3.79"/><circle class="795be09f-3f63-49ab-bb0e-8eb4cdfd3fb1" cx="70.65" cy="986.62" r="10.12"/><circle class="795be09f-3f63-49ab-bb0e-8eb4cdfd3fb1" cx="91.57" cy="986.62" r="9.05"/><circle class="795be09f-3f63-49ab-bb0e-8eb4cdfd3fb1" cx="82.09" cy="1002.67" r="7.84"/><circle class="795be09f-3f63-49ab-bb0e-8eb4cdfd3fb1" cx="234.3" cy="991.04" r="8.1"/><circle class="795be09f-3f63-49ab-bb0e-8eb4cdfd3fb1" cx="251.98" cy="991.04" r="7.84"/><circle class="795be09f-3f63-49ab-bb0e-8eb4cdfd3fb1" cx="243.37" cy="1004.51" r="6.4"/><circle class="795be09f-3f63-49ab-bb0e-8eb4cdfd3fb1" cx="243.37" cy="977.56" r="6.4"/><path class="795be09f-3f63-49ab-bb0e-8eb4cdfd3fb1" d="M222.13,983.9a1,1,0,1,1,2,0" transform="translate(11.46 -3.72)"/><circle class="795be09f-3f63-49ab-bb0e-8eb4cdfd3fb1" cx="396.36" cy="989.55" r="8.59"/><circle class="795be09f-3f63-49ab-bb0e-8eb4cdfd3fb1" cx="413.99" cy="989.55" r="7.3"/><circle class="795be09f-3f63-49ab-bb0e-8eb4cdfd3fb1" cx="406.4" cy="1003.7" r="7.01"/><circle class="795be09f-3f63-49ab-bb0e-8eb4cdfd3fb1" cx="406.23" cy="978.15" r="4.75"/><circle class="795be09f-3f63-49ab-bb0e-8eb4cdfd3fb1" cx="397.36" cy="976.77" r="2.48"/><circle class="795be09f-3f63-49ab-bb0e-8eb4cdfd3fb1" cx="234.5" cy="979.16" r="2.48"/><circle class="795be09f-3f63-49ab-bb0e-8eb4cdfd3fb1" cx="554.49" cy="985.11" r="9.05"/><circle class="795be09f-3f63-49ab-bb0e-8eb4cdfd3fb1" cx="572.86" cy="985.11" r="7.57"/><path class="795be09f-3f63-49ab-bb0e-8eb4cdfd3fb1" d="M553.54,996a6.4,6.4,0,0,1,6.4,6.4c0,3.54-1.87,6.4-5.4,6.4s-7.4-2.87-7.4-6.4A6.4,6.4,0,0,1,553.54,996Z" transform="translate(11.46 -3.72)"/><circle class="795be09f-3f63-49ab-bb0e-8eb4cdfd3fb1" cx="564.81" cy="974.43" r="4.05"/><circle class="795be09f-3f63-49ab-bb0e-8eb4cdfd3fb1" cx="705.65" cy="989.49" r="11.09"/><circle class="795be09f-3f63-49ab-bb0e-8eb4cdfd3fb1" cx="726.06" cy="989.49" r="7.57"/><path class="795be09f-3f63-49ab-bb0e-8eb4cdfd3fb1" d="M704.63,1001.3a2,2,0,0,1,2-2" transform="translate(11.46 -3.72)"/><circle class="795be09f-3f63-49ab-bb0e-8eb4cdfd3fb1" cx="71.4" cy="1098.16" r="10.12"/><circle class="795be09f-3f63-49ab-bb0e-8eb4cdfd3fb1" cx="90.28" cy="1098.16" r="7.01"/><circle class="795be09f-3f63-49ab-bb0e-8eb4cdfd3fb1" cx="83.2" cy="1108.83" r="4.05"/><circle class="795be09f-3f63-49ab-bb0e-8eb4cdfd3fb1" cx="231.31" cy="1098.99" r="9.49"/><circle class="795be09f-3f63-49ab-bb0e-8eb4cdfd3fb1" cx="251.14" cy="1098.99" r="8.59"/><text class="3b896ae0-ea17-4590-b271-5561e84c31f4" transform="translate(18.24 1146.39)">Fuente: Propia a partir de<tspan class="bd09a61f-9735-4900-a1af-adeb5bb05cc1" x="226.8" y="0"> </tspan><tspan class="666ee46b-6fd4-4b6f-8c8d-b6ac471d7136" x="231.99" y="0">T</tspan><tspan x="243.47" y="0">ransfermarkt</tspan></text><text class="3b896ae0-ea17-4590-b271-5561e84c31f4" transform="translate(511.17 1143.39)">Laura<tspan class="160f6a29-80ab-4e8d-b4c0-669e44a46aa4" x="51.15" y="0"> </tspan><tspan x="55.61" y="0">Aragó | L</tspan><tspan class="160f6a29-80ab-4e8d-b4c0-669e44a46aa4" x="136.41" y="0">A</tspan><tspan x="148.64" y="0"> </tspan><tspan class="a342de95-e303-4375-8c30-2de2b57682b9" x="154.2" y="0">V</tspan><tspan x="166.05" y="0">ANGUARDI</tspan><tspan class="160f6a29-80ab-4e8d-b4c0-669e44a46aa4" x="271.62" y="0">A</tspan></text></svg>