<svg id="Capa_1" data-name="Capa 1" 
	xmlns="http://www.w3.org/2000/svg" 
	xmlns:xlink="http://www.w3.org/1999/xlink" 
	viewBox="0 0 396.85 396.85"><defs><style>

	@import url('https://fonts.googleapis.com/css?family=Open+Sans');

		.label {
        	font-family: OpenSans-Semibold, Open Sans;
        	font-size: 10px;
        	fill: #323232;
     	}

     	.label2 {
        	font-family: OpenSans-Semibold, Open Sans;
        	font-size: 12px;
        	fill: #ffffff;
     	}
		.indoeuropeas {
			fill:#a3d8d5;
			stroke: white;
			stroke-width: 0.5;
			stroke-opacity: 0.5;
		}
		.indoeuropeas:hover {
			opacity:0.5;
		}
		.austronesias {
			fill:#ed586e;
			stroke: white;
			stroke-width: 0.5;
			stroke-opacity: 0.5;
		}
		.austronesias:hover {
			opacity:0.5;
		}
		.turquicas {
			fill:#edad08;
			stroke: white;
			stroke-width: 0.5;
			stroke-opacity: 0.5;
		}
		.turquicas:hover {
			opacity:0.5;
		}
		.afroasiaticas {
			fill:#af0047;
			stroke: white;
			stroke-width: 0.5;
			stroke-opacity: 0.5;
		}
		.afroasiaticas:hover {
			opacity:0.5;
		}
			.sinotibetanas {
			fill:#94346e;
			stroke: white;
			stroke-width: 0.5;
			stroke-opacity: 0.5;
		}
		.sinotibetanas:hover {
			opacity:0.5;
		}
			.dravidianas {
			fill:#606060;
			stroke: white;
			stroke-width: 0.5;
			stroke-opacity: 0.5;
		}
		.dravidianas:hover {
			opacity:0.5;
		}
		.coreanas {
			fill:#93b222;
			stroke: white;
			stroke-width: 0.5;
			stroke-opacity: 0.5;
		}
		.coreanas:hover {
			opacity:0.5;
		}
				.criollas {
			fill:#0e968c;
			stroke: white;
			stroke-width: 0.5;
			stroke-opacity: 0.5;
		}
		.criollas:hover {
			opacity:0.5;
		}
.cls-1,.cls-11,.cls-2{fill:none;stroke-width:0.5px;}.cls-1{stroke:#757575;}.cls-2{stroke:#777;stroke-opacity:0.5;opacity:0.25;}.cls-3{fill:#ddd;}.cls-18{fill:#94346e;}.cls-17{fill:#a3d8d5;}.cls-20{fill:#dd1b61;}.cls-19{fill:#edad08;}.cls-21{fill:#93b222;}.cls-22{fill:#606060;}.cls-11{stroke:#fff;}.cls-12{fill:url(#Degradado_sin_nombre_4);}.cls-13{fill:url(#Degradado_sin_nombre_5);}.cls-14{font-size:18px;fill:#323232;}.cls-14,.cls-17,.cls-18,.cls-19,.cls-20,.cls-21,.cls-22,.cls-23{font-family:OpenSans-Semibold, Open Sans;font-weight:700;}.cls-15{font-size:10px;}.cls-15,.cls-16{fill:#757575;font-family:OpenSans, Open Sans;}.cls-16,.cls-17,.cls-18,.cls-19,.cls-20,.cls-21,.cls-22,.cls-23{font-size:9px;}.cls-23{fill:#0e968c;}.cls-24{fill:#c1c1c1;opacity:0.55;}</style>
	<linearGradient id="Degradado_sin_nombre_4" x1="265" y1="-60.5" x2="320" y2="-60.5" gradientTransform="translate(-93 88)" gradientUnits="userSpaceOnUse"><stop offset="0.16" stop-color="#fff"/><stop offset="0.31" stop-color="#fff" stop-opacity="0.99"/><stop offset="0.42" stop-color="#fff" stop-opacity="0.95"/><stop offset="0.52" stop-color="#fff" stop-opacity="0.89"/><stop offset="0.61" stop-color="#fff" stop-opacity="0.8"/><stop offset="0.7" stop-color="#fff" stop-opacity="0.68"/><stop offset="0.78" stop-color="#fff" stop-opacity="0.54"/><stop offset="0.86" stop-color="#fff" stop-opacity="0.38"/><stop offset="0.94" stop-color="#fff" stop-opacity="0.19"/><stop offset="1" stop-color="#fff" stop-opacity="0"/></linearGradient><linearGradient id="Degradado_sin_nombre_5" x1="266" y1="-14.5" x2="281" y2="-14.5" gradientTransform="translate(-74 405)" gradientUnits="userSpaceOnUse"><stop offset="0.16" stop-color="#fff" stop-opacity="0.25"/><stop offset="0.47" stop-color="#fff" stop-opacity="0.13"/><stop offset="0.8" stop-color="#fff" stop-opacity="0.04"/><stop offset="1" stop-color="#fff" stop-opacity="0"/></linearGradient></defs><title>2018.10_Asia</title><g id="BASE"><path id="sphere" class="cls-1" d="M195.75,444.24,171.84,443l-23.65-3.75L125.07,433l-22.35-8.58L81.38,413.59l-20.08-13L42.69,385.48,25.76,368.55,10.69,349.94l-13-20.08-10.87-21.33-8.58-22.35L-28,263l-3.75-23.65L-33,215.48l1.25-23.91L-28,167.92l6.2-23.13,8.58-22.35,10.87-21.33L10.69,81,25.76,62.42,42.69,45.49,61.3,30.42l20.08-13L102.71,6.51l22.35-8.58,23.13-6.2L171.84-12l23.91-1.25L219.67-12l23.65,3.75,23.13,6.2L288.8,6.51l21.33,10.87,20.08,13,18.61,15.07,16.93,16.93L380.82,81l13,20.08,10.87,21.33,8.58,22.35,6.2,23.13,3.75,23.65,1.25,23.91-1.25,23.91L419.51,263l-6.2,23.13-8.58,22.35-10.87,21.33-13,20.08-15.07,18.61-16.93,16.93-18.61,15.07-20.08,13L288.8,424.46,266.44,433l-23.13,6.2L219.67,443Z"/><path class="cls-2" d="M264.19,433.76l50.19-26.56,39.48-43.86,25.21-57.21,8.66-65.39-14.61-87.64L331.51,75,269.22,18.22,195.75-8.5m29.85-2.81L195.75-8.5M127.32-2.79,195.75-8.5M165.91,442.28l-37.74-17.57L97.82,384.27,78.17,325.38l-6.8-70.9,9.47-88.68,27-81.12,40.35-61.21,47.6-32m192,249.25L393,239l4.87-1.77,4.48-1.81,4.09-1.85,3.69-1.88,3.28-1.91,2.87-1.94,2.45-2,2-2,1.59-2,1.16-2,.73-2,.29-2v-.35m-457.51,0,.15,1.67.58,2,1,2,1.44,2,1.87,2,2.3,2,2.72,2L-19.8,231l3.55,1.89,3.95,1.86L-8,236.62l4.73,1.78,5.11,1.74,5.48,1.69,5.84,1.64,6.19,1.59,6.52,1.53,6.85,1.48,7.16,1.41,7.45,1.35,7.74,1.28,8,1.21,8.26,1.14,8.49,1.06,8.71,1,8.92.91,9.1.83,9.27.75,9.43.67,9.56.58,9.68.5,9.77.41,9.85.32,9.91.24,10,.15,10,.06,10,0,10-.12,9.93-.21,9.88-.29,9.8-.38,9.71-.47,9.6-.55,9.48-.64,9.33-.72,9.17-.8,9-.88,8.79-1,8.57-1,8.34-1.11,8.09-1.19,7.83-1.26L349,250l7.26-1.39,7-1.45,6.64-1.51,6.31-1.57,6-1.63,5.61-1.68m-93,181,52.6-37.66,37.78-54.15,19.25-65.34-1.15-70.14-20.6-66.3-37.9-58.21L293,25.17,232.34-2M347.28,386.85l59.78-90.1,8.25-109.92-21.8-65.55L353.4,64.46,298.7,21.61,234.47-3.29m183.07,274.8,3.2-92.58L398.4,114.17,357.3,58.79,301.24,17.91,235.43-4.68M391,96.37,324.9,28,235.18-6.09M322,24.72,233.73-7.47M280.27,2.91,231.13-8.77m24,3.35L227.45-10m10.78.67L222.81-11m-7.47-1.42-4.11-.1M206.42-13l-1.77.06m-6.51-.3-.35.1m-7.79,0,.87.09m-9.35.28h2.58m-12,.76,5.54-.24m-16.62,1.66,10.75-.91M147-8l19.71-2.59M96.77,9.26l62.41-17.5M44.22,44.12,96.59,10.25,157-6.9M-26,159.46l24.76-59.39,41-49.85L93.71,14,156.08-5.51M.46,334.6l-28-73.34-.23-79,22.2-65.09,40.84-56,55.7-41.7,65.4-23.55M69.51,406.25l-44.77-40.5L-6.47,313.34l-15.18-60.17,2-63.15L1.78,124.15,41.12,66.74,94.78,23.1l63-25.83M111.24,428.06,55.83,392.79,15.47,338.47l-21-67.55.66-73.51,19.92-66.6L51.71,72.05l50-45.48,58.69-28m-24,437.82L80.27,406.67,38.48,353.31,16.13,282.9,16,204.17,33.84,136.9l32.84-60,44.79-47.17,52.59-30m-10.78,440.5-51-25.17L63.74,363.3,42.81,291.78l-.52-81.69,15.24-67.86,28-61.08L123.8,32.51,168.7.81m7.47,442.59-30.93-19.12-23.69-49.05-13-72L108,218.73,116.68,150l16-62.66,21.87-50.8L180.27,2.33M185.09,444l-18-17.51-13.82-48.23-7.63-71.92-.34-85.15,5-69,9.21-63.1,12.57-51.41,14.76-35m6.51,441.46-4.14-16.8-3.18-47.85-1.76-71.89-.08-85.4,1.15-69.07,2.11-63.31,2.88-51.68L193.72,3m7.79,441.21,9.91-17L219,379.23l4.22-71.9.19-85.33-2.75-69-5.06-63.25-6.9-51.61-8.1-35.19M210,443.8l23.48-18.06,18-48.51,9.94-71.94.43-84.95-6.56-68.87L243.22,88.51,226.75,37.32,207.41,2.62m12,440.4,35.84-20,27.39-49.52,15.06-71.95.59-84.16-10.18-68.58-18.72-62.4L243.81,35.91l-30-33.83m16.62,439.51,46.21-23,35.1-50.88,19.17-71.79.6-82.84L318,144.95l-24.8-61.63L259.41,33.93,219.7,1.34M244.54,439l53.63-26.92L338.5,359.6l21.78-71.18.4-80.66L344.3,140.14,314.17,79.48,273.08,31.42,224.84.4M131.47,435l1.85.52,2.12.54,2.23.52,2.34.5,2.45.48,2.55.46,2.65.44,2.74.41,2.82.39,2.9.36,3,.34,3,.31,3.11.28,3.17.26,3.22.23,3.27.2,3.31.17,3.34.14,3.37.11,3.39.08,3.4.05,3.41,0h3.41l3.41,0,3.4-.07,3.38-.1,3.35-.13,3.32-.16,3.28-.19,3.24-.22,3.19-.25,3.13-.27,3.07-.3,3-.33,2.93-.36,2.85-.38,2.77-.41,2.68-.43,2.58-.45,2.48-.48,2.38-.5,2.27-.52,2.16-.54,2-.56L260,435m31.72-12.93,2.62-.86,2.43-.88,2.24-.91,2-.92,1.39-.7M89,417.82l.72.37,2,.93,2.17.91,2.37.89,2.56.87,2.74.85,2.92.82,3.09.8,3.26.77,3.42.74,3.58.71,3.73.67,3.87.64,4,.61,4.13.57,4.25.53,4.36.49,4.46.46,4.55.42,4.64.37,4.71.33,4.78.29,4.84.25,4.89.21,4.93.16,5,.12,5,.07,5,0h5l5-.06,5-.1,4.94-.15,4.9-.19,4.86-.23,4.8-.28,4.74-.32,4.66-.36,4.58-.4,4.49-.44,4.39-.48,4.29-.52,4.17-.56,4-.59,3.92-.63,3.78-.66L276,426l3.48-.73,3.32-.76,3.15-.79,3-.81,2.8-.84m27.41-18.79,3.37-1.11,3.13-1.14,2.88-1.16,2.63-1.19,2.37-1.21,2.11-1.23,1.84-1.25.72-.55m-284.92,0,.15.12,1.75,1.25,2,1.24,2.28,1.22,2.54,1.2,2.79,1.17,3,1.15,3.29,1.12L74.67,404l3.75,1.06,4,1,4.19,1L91,408l4.6.91,4.79.87,5,.82,5.14.78,5.31.73,5.46.68,5.6.64,5.73.59,5.85.53,6,.48,6.06.43,6.15.37,6.22.32,6.28.26,6.33.21,6.37.15,6.4.1,6.41,0,6.41,0,6.4-.08,6.38-.13,6.35-.19,6.3-.24,6.24-.3,6.17-.36,6.09-.41,6-.46,5.89-.52,5.78-.57,5.65-.62,5.51-.67,5.36-.72,5.2-.76,5-.81,4.86-.85,4.67-.89,4.47-.93,4.27-1,4.05-1,3.83-1,3.6-1.08m23.66-24.49,4-1.32,3.73-1.36,3.43-1.39,3.13-1.42,2.83-1.44,2.51-1.47,2.2-1.49,1.87-1.51,1.55-1.52.21-.24m-345.1,0,1.18,1.23,1.76,1.51,2.08,1.49,2.4,1.47,2.72,1.45,3,1.43,3.33,1.4L43.33,377l3.92,1.33,4.2,1.3,4.47,1.26,4.74,1.22,5,1.18,5.24,1.13,5.48,1.08,5.71,1,5.93,1,6.13.93,6.32.87,6.51.82,6.67.76,6.83.7,7,.64,7.1.57,7.22.51,7.32.45,7.41.38,7.49.31,7.55.25,7.59.18,7.63.11,7.64,0,7.64,0,7.63-.09,7.61-.16,7.57-.22,7.51-.29,7.44-.36,7.36-.42,7.26-.49,7.15-.55,7-.61,6.88-.68,6.73-.74,6.57-.8,6.39-.85,6.2-.91,6-1,5.79-1,5.56-1.07,5.33-1.11,5.08-1.16,4.83-1.2,4.57-1.25,4.3-1.28M362,349.36l4.54-1.49,4.22-1.53,3.88-1.57,3.54-1.6,3.19-1.63,2.84-1.66,2.48-1.68,2.12-1.7,1.75-1.72L392,333l.46-.72m-393.35,0,.07.12L.4,334.16,2,335.89l2,1.71,2.36,1.69L9.08,341l3.07,1.64,3.42,1.61,3.76,1.58,4.1,1.55,4.43,1.51,4.75,1.47,5.06,1.42L43,353.11l5.65,1.33,5.93,1.28,6.2,1.22,6.45,1.17,6.7,1.11,6.93,1,7.15,1,7.35.92,7.55.86,7.72.79,7.88.72,8,.65,8.16.58,8.28.5,8.38.43,8.46.36,8.53.28,8.58.2,8.62.13,8.64.05,8.64,0,8.63-.1,8.6-.18,8.55-.25,8.49-.33,8.41-.4,8.32-.48,8.21-.55,8.08-.62,7.94-.69,7.78-.76,7.61-.83,7.42-.9,7.22-1,7-1,6.78-1.09,6.54-1.15,6.29-1.2,6-1.26,5.75-1.31,5.46-1.36,5.16-1.41,4.86-1.45m14.14-33.52,4.93-1.62,4.57-1.66,4.21-1.7,3.84-1.74,3.47-1.77,3.08-1.8,2.69-1.82,2.3-1.85,1.9-1.87,1.5-1.88,1.09-1.89.35-.82m-428.68,0,.07.17.95,1.9,1.36,1.88,1.76,1.87,2.16,1.85,2.56,1.83,2.95,1.81,3.33,1.78,3.71,1.75L4.33,312l4.45,1.68,4.8,1.64,5.15,1.59,5.49,1.54L30,319.9l6.13,1.44,6.43,1.39,6.73,1.33,7,1.27,7.27,1.2,7.52,1.14,7.76,1.07,8,1,8.19.93,8.38.86,8.56.78,8.71.7,8.86.63,9,.55,9.09.47,9.18.39,9.26.3,9.31.22,9.35.14,9.37.06,9.38,0,9.36-.11,9.33-.19,9.28-.28,9.21-.36,9.13-.44,9-.52,8.9-.6,8.77-.68,8.61-.75,8.44-.83,8.26-.9,8.05-1,7.84-1,7.61-1.11,7.36-1.18,7.1-1.25,6.82-1.31,6.54-1.37,6.24-1.42,5.93-1.48,5.6-1.53,5.27-1.58m8.66-36.57,5.16-1.7,4.79-1.74,4.41-1.78,4-1.82,3.63-1.86,3.23-1.89,2.82-1.91,2.41-1.94,2-2,1.57-2,1.14-2,.72-2,.14-.66m-450.26,0,.56,2,1,2,1.42,2,1.84,2,2.26,1.94,2.68,1.92,3.09,1.9,3.49,1.87,3.89,1.83,4.28,1.8L-.2,277l5,1.71,5.4,1.67L16,282l6.09,1.57L28.5,285l6.74,1.45,7,1.39,7.34,1.33,7.62,1.26,7.88,1.19,8.13,1.12,8.36,1,8.58,1,8.78.9,9,.82,9.13.74,9.28.66,9.41.57,9.53.49,9.63.4,9.7.32,9.76.23,9.8.15,9.82.06,9.83,0,9.81-.12,9.78-.2,9.73-.29,9.65-.37,9.56-.46,9.46-.54,9.33-.63,9.19-.71,9-.79,8.85-.87,8.65-.95,8.44-1,8.21-1.1,8-1.17,7.71-1.24,7.44-1.3,7.15-1.37,6.85-1.43,6.54-1.49,6.21-1.55,5.87-1.6,5.52-1.65m0-77.79,5.16-1.7,4.79-1.74,4.41-1.78,4-1.82,3.63-1.86,3.23-1.89,2.82-1.91,2.41-1.94,2-2,1.57-2,1.14-2,.72-2,.29-2-.14-2v0m-450.26,0-.15,1.33.14,2,.57,2,1,2,1.42,2,1.84,2,2.26,1.94,2.68,1.92,3.09,1.9,3.49,1.87,3.89,1.83,4.28,1.8,4.66,1.76,5,1.71,5.4,1.67L16,204.17l6.09,1.57,6.42,1.51,6.74,1.45,7,1.39,7.34,1.33,7.62,1.26,7.88,1.19L73.27,215l8.36,1,8.58,1,8.78.9,9,.82,9.13.74,9.28.66,9.41.57,9.53.49,9.63.4,9.7.32,9.76.23,9.8.15,9.82.06,9.83,0,9.81-.12,9.78-.2,9.73-.29,9.65-.37,9.56-.46,9.46-.54,9.33-.63,9.19-.71,9-.79,8.85-.87,8.65-.95,8.44-1,8.21-1.1,8-1.17,7.71-1.24,7.44-1.3,7.15-1.37,6.85-1.43,6.54-1.49,6.21-1.55,5.87-1.6,5.52-1.65m-8.66-38.85,4.93-1.62,4.57-1.66,4.21-1.7,3.84-1.74,3.47-1.77,3.08-1.8L403,150.5l2.3-1.85,1.9-1.87,1.5-1.88,1.09-1.89.68-1.9.28-1.9-.13-1.9-.48-1.73m-428.68,0-.34,1.08-.28,1.9.13,1.9.54,1.9.95,1.9,1.36,1.89,1.76,1.87,2.16,1.85,2.56,1.83,2.95,1.81,3.33,1.78L.25,157l4.08,1.71,4.45,1.68,4.8,1.64,5.15,1.59,5.49,1.54L30,166.69l6.13,1.44,6.43,1.39,6.73,1.33,7,1.27,7.27,1.2,7.52,1.14,7.76,1.07,8,1,8.19.93,8.38.86,8.56.78,8.71.7,8.86.63,9,.55,9.09.47,9.18.39,9.26.3,9.31.22,9.35.14,9.37.06,9.38,0,9.36-.11,9.33-.19,9.28-.28,9.21-.36,9.13-.44,9-.52,8.9-.6,8.77-.68,8.61-.75,8.44-.83,8.26-.9,8.05-1,7.84-1,7.61-1.11,7.36-1.18,7.1-1.25,6.82-1.31,6.54-1.37,6.24-1.42,5.93-1.48,5.6-1.53,5.27-1.58M362,125.37l4.54-1.49,4.22-1.53,3.88-1.57,3.54-1.6,3.19-1.63,2.84-1.66,2.48-1.68,2.12-1.7,1.75-1.72L392,109l1-1.74.63-1.75.25-1.75-.12-1.76-.5-1.75-.8-1.62m-393.35,0-.55,1-.63,1.75-.25,1.75.12,1.76.5,1.75.88,1.75L.4,110.18,2,111.9l2,1.71,2.36,1.69L9.08,117l3.07,1.64,3.42,1.61,3.76,1.58,4.1,1.55,4.43,1.51,4.75,1.47,5.06,1.42L43,129.12l5.65,1.33,5.93,1.28L60.8,133l6.45,1.17,6.7,1.11,6.93,1,7.15,1,7.35.92,7.55.86,7.72.79,7.88.72,8,.65,8.16.58,8.28.5,8.38.43,8.46.36,8.53.28,8.58.2,8.62.13,8.64.05,8.64,0,8.63-.1,8.6-.18,8.55-.25,8.49-.33,8.41-.4,8.32-.48,8.21-.55,8.08-.62,7.94-.69,7.78-.76,7.61-.83,7.42-.9,7.22-1,7-1,6.78-1.09,6.54-1.15,6.29-1.2,6-1.26,5.75-1.31,5.46-1.36,5.16-1.41,4.86-1.45M342.82,90.86l4-1.32,3.73-1.36L354,86.8l3.13-1.42L360,83.94l2.51-1.47,2.2-1.49,1.87-1.51L368.09,78l1.22-1.53.89-1.54.56-1.55.23-1.55-.11-1.55-.44-1.55-.77-1.54-1.11-1.54-.25-.3m-345.1,0-1,1.29-.89,1.54-.56,1.55-.23,1.55.11,1.55.44,1.55.77,1.54L23,77.42l1.43,1.53,1.76,1.51L28.23,82l2.4,1.47,2.72,1.45,3,1.43,3.33,1.4,3.63,1.37,3.92,1.33,4.2,1.3L55.92,93l4.74,1.22,5,1.18,5.24,1.13,5.48,1.08,5.71,1,5.93,1,6.13.93,6.32.87,6.51.82,6.67.76,6.83.7,7,.64,7.1.57,7.22.51,7.32.45,7.41.38,7.49.31,7.55.25,7.59.18,7.63.11,7.64,0,7.64,0,7.63-.09,7.61-.16,7.57-.22,7.51-.29,7.44-.36,7.36-.42,7.26-.49,7.15-.55,7-.61,6.88-.68,6.73-.74,6.57-.8,6.39-.85,6.2-.91,6-1,5.79-1,5.56-1.07L324,95.76l5.08-1.16,4.83-1.2,4.57-1.25,4.3-1.28M319.16,60.14,322.53,59l3.13-1.14,2.88-1.16,2.63-1.19,2.37-1.21,2.11-1.23,1.84-1.25,1.57-1.26,1.3-1.28,1-1.29.75-1.29.47-1.3.19-1.3-.09-1.3-.37-1.3-.65-1.3-.93-1.29-1.2-1.28-1.33-1.15M53.3,36.5l-.85.71-1.3,1.28-1,1.29-.75,1.29-.47,1.3-.19,1.3.09,1.3.37,1.3.65,1.3.93,1.29L52,50.14l1.48,1.27,1.75,1.25,2,1.24,2.28,1.22L62,56.32l2.79,1.17,3,1.15,3.29,1.12,3.52,1.09,3.75,1.06,4,1,4.19,1,4.4.95,4.6.91,4.79.87,5,.82,5.14.78,5.31.73,5.46.68,5.6.64,5.73.59,5.85.53,6,.48,6.06.43,6.15.37,6.22.32,6.28.26,6.33.21,6.37.15,6.4.1,6.41,0,6.41,0,6.4-.08,6.38-.13,6.35-.19,6.3-.24,6.24-.3,6.17-.36L245,72l6-.46,5.89-.52,5.78-.57,5.65-.62,5.51-.67,5.36-.72,5.2-.76,5-.81,4.86-.85,4.67-.89,4.47-.93,4.27-1,4.05-1,3.83-1,3.6-1.08m-27.41-26,2.62-.86,2.43-.88,2.24-.91,2-.92,1.84-.94,1.64-1,1.43-1,1.22-1,1-1,.8-1,.58-1,.36-1,.15-1-.07-1-.29-1-.51-1-.72-1-.94-1-1.15-1-1.36-1-1.57-1-1.06-.58M89,13.15l-.46.24-1.64,1-1.43,1-1.22,1-1,1-.8,1-.58,1-.36,1-.15,1,.07,1,.29,1,.51,1,.72,1,.94,1,1.15,1,1.36,1,1.57,1,1.77.95,2,.93,2.17.91,2.37.89,2.56.87,2.74.85,2.92.82,3.09.8,3.26.77,3.42.74,3.58.71,3.73.67,3.87.64,4,.61,4.13.57,4.25.53,4.36.49,4.46.46,4.55.42,4.64.37,4.71.33,4.78.29,4.84.25,4.89.21,4.93.16,5,.12,5,.07,5,0h5l5-.06,5-.1,4.94-.15,4.9-.19,4.86-.23,4.8-.28,4.74-.32,4.66-.36,4.58-.4,4.49-.44,4.39-.48,4.29-.52,4.17-.56,4-.59,3.92-.63,3.78-.66,3.63-.7,3.48-.73,3.32-.76,3.15-.79,3-.81,2.8-.84M261.42,13.65l1.79-.59,1.66-.61,1.53-.62,1.4-.63,1.26-.64,1.12-.65,1-.66.84-.67.69-.68.55-.68.4-.69.25-.69.1-.69,0-.69-.2-.69-.35-.69-.49-.69-.64-.68L271.48,1l-.93-.67-1.07-.66L268.26-1l-1.35-.64-1.49-.62-1.62-.61-1.75-.6L260.18-4l-.15,0m-128.55,0-1.39.42L128.3-3l-1.66.61-1.53.62-1.4.63-1.26.64-1.12.65-1,.66-.84.67-.69.68-.55.68-.4.69-.25.69-.1.69,0,.69.2.69.35.69.49.69.64.68L120,9l.93.67,1.07.66,1.21.65,1.35.64,1.49.62,1.62.61,1.75.6,1.87.58,2,.56,2.12.54,2.23.52,2.34.5,2.45.48,2.55.46,2.65.44,2.74.41,2.82.39,2.9.36,3,.34,3,.31,3.11.28,3.17.26,3.22.23,3.27.2,3.31.17,3.34.14,3.37.11,3.39.08,3.4.05,3.41,0h3.41l3.41,0,3.4-.07,3.38-.1,3.35-.13,3.32-.16,3.28-.19L222,20l3.19-.25,3.13-.27,3.07-.3,3-.33,2.93-.36,2.85-.38,2.77-.41,2.68-.43,2.58-.45,2.48-.48,2.38-.5,2.27-.52,2.16-.54,2-.56,1.92-.57M229.09-.71,230-1l.85-.31.78-.31.71-.32.64-.33.57-.33L234-3l.42-.34.35-.34L235.1-4l.2-.35.13-.35.05-.35,0-.35-.1-.35-.18-.35-.25-.35-.33-.35-.4-.34-.47-.34-.54-.33-.62-.33-.69-.32-.75-.32-.82-.31-.89-.3-1-.29-1-.29-1.07-.28-1.13-.27-1.19-.26L222.81-11l-1.29-.23-1.34-.22-1.39-.21-1.43-.2-1.47-.18-1.51-.17-1.55-.16-1.58-.14-1.61-.13L208-12.77l-1.66-.1L204.65-13,203-13l-1.71-.06-1.72,0-1.73,0h-3.47l-1.73,0-1.72,0-1.71.05-1.7.07-1.69.08-1.67.1-1.65.11-1.62.13-1.59.14-1.56.15-1.53.17-1.49.18-1.45.19-1.41.21-1.36.22-1.31.23-1.26.24-1.21.25-1.15.26-1.1.27-1,.28-1,.29-.91.3-.85.31-.78.31-.71.32-.64.33-.57.33-.5.34L157-6.9l-.35.34-.28.35-.2.35-.13.35-.05.35,0,.35.1.35.18.35.25.35.33.35.4.34.47.34.54.33.62.33.69.32.75.32.82.31.89.3,1,.29,1,.29,1.07.28,1.13.27,1.19.26,1.24.25L170,1l1.34.22,1.39.21,1.43.2,1.47.18,1.51.17,1.55.16,1.58.14,1.61.13,1.64.12,1.66.1,1.68.09,1.7.07,1.71.06,1.72,0,1.73,0h3.47l1.73,0,1.72,0,1.71-.05,1.7-.07,1.69-.08,1.67-.1,1.65-.11,1.62-.13,1.59-.14,1.56-.15,1.53-.17,1.49-.18,1.45-.19,1.41-.21,1.36-.22,1.31-.23,1.26-.24L224.84.4,226,.14l1.1-.27,1-.28,1-.29"/><path class="cls-3" d="M-29.85,179.47l-.49,3,.57-3.48ZM35,77.84l.56-.78,1.3-1.14.7-1.18-.23-1.69,1.94-3L39.49,69l.84-1,.6.81,2-2.14,1.2,0,.43.91,2.79-2.76L48.85,63,47.8,62.6l-.07-1.15-2.18.64-1.32.1-2,1.46-1.16-.05L37.57,66l-1.92,3.31-1.86,2-2.22,4.2-.91,1.92-1.34,2.5.3.42-.39,1-.93-.24-2.06,2.34-1,1-.88.53-1.16,1.6-1.46,2.57.38,1.26-.49,2.07L22.68,94,25,94l.63-.71L27,90.89l2.58-3.3,0-1.55,1.91-2-.55-.57,2.28-2.53.4,1.31,1.74-.51.67-2.3,1.12-1.94-1.47.33L33.73,80ZM2.46,93.15l-.34.57-.89,1.53L.33,96.92l-.43.84.48-.52.52-.67,0,.33-.33.91-1,1.84.66-.93-.5,1.34-.1.74.55-.5.71-.91L1,99.17l1-1.38,1.64-2.36.57-.74h0l1.84-2.43,1.66-2,.08-.1,1.73-2.53,1-1.16,1-1.68,1-.95-.3-.13.44-1.27-1.42,1.36-.29-.64L12.25,81l.19-.81-.95,1.14-.17-.08L12.78,79l.24-.65,2.57-3.43,1.61-2.15,1.75-2,1.42-1.82,2.07-2.12-.3.83,1.89-2-.62,1.55L25.06,66l.75-.12.18.93L24.41,70l-.66,2,.77.24.08.79,1.86-.86L27.65,71l1.7-2.18.75-1.42.09-.66.7-1.11,1.91-3.17.76-1.73L35,58.56l.6,0,2.58-1.85,1-1.39,1.57-.3.62-.61-.71-.06-.42-.22-1.08.51-.3-.38-1.18.53L36,56.49l-.63.94.33.41-1,.88L34,58.59l-1.73.83.55-.89,1.33-1.18.83-1.43.54-.42,1-.37.65-.79.76-1.56,1.09-1-.28-.19L37.1,52.83l-2,1.56-.73.72-.52.31.32-.43-3.29,3.16-1,.85L28,60.8l-1.61,1.81-1.05,1.18-1.05,1.46-.6.6.15-.56-.68.64L22.06,67l1.31-1.55.53-.59.31-.46.46-.59-.12,0-1.76,2L22.6,66l.27-.34,1.59-1.82-.13.15h0L41.1,46.93,59.56,31.69l8.84-6.23.07,0,.26-.14-1.12.8-.81.55-.58.47,1.28-.83.36-.05,2.81-1.84,2.43-1.51,1.85-1,.75-.27-2.77,1.83-.22.31,2.49-1.45,1.94-1.11-.3.09,1.4-1,2-1.13h.55l.15.24-.81.76-.1.37,1.72-.59,1.8-1.32.08-.57-.8,0-.19-.26,2.06-1.22,1.49-1,3.29-1.63,3.3-1.7,1.85-.78,1.9-.69,3.21-.91.6-.1,1.54-.68,2-1.17-.53-.15-2.16.71L99,9.44l-2.22.7-2.12.68-4.42,2-2.74,1.47-2.34,1.35-3.28,1.67h-.19l-5.22,3L73.79,22l.91-.58h0l21-11.59,7-3.24h0l2-.83,3.57-1.33,5.43-1.77,1.93-.44,3.5-.73.95.08-.61.51,2.76-.57-.47.53.52.23-3,1.74h-.94L115.9,5.08l1.27-.18L114.91,6.2l-.74,1.13-3.66,2.82-1.58,1-2.41,1.1-2.14.51-1.26-.09L105.5,10l-.48,0-2.63,1.7-1.68.78L97,14.17l-1,1-.84.74,1.75-.81,1.48-1,1.44-.43L98,15.6l1-.14,2.49-1.5,4.06-.9,0,.39-1,.9,2.65-1,1.9-1.25,2.31-.83,2.05-1.2-.32,1.33-1.81,1.09-.88-.18-2,.93-.94.83,1.37.1,2.36-1,2.57-.19,4.69-.46.22.29-2.62.76.3.53,1.57-.39,1.19.46,2.31-.33-1.26,1.37,2.94-.88,1.23-1.27,1.43-.43,1,1.25v.89l-.61,3,2.15-.83.74-1.22.62-.39-.66-.46,1.73-.77,2-1.48,1-.55,4.15-1.13,3.27-1.36,1.12-.18,1.14.93-1.47,1L139,12.49l-.43.68-1.76,1.31L132.67,17,132,18.37l-2.3,1.2-6,2.36.74.59,1.42-.64,1.85-.25,1.64-.93,2.19-.75,1-1.25,2.28-1.17-.81-.39,1.35-1.1,3.55-1.67,1.23-1.7,3.4-.83,1.83-1.24.46.05-1.13,1-3,1.61.43.53,1.59-1.36,2.5-.38,1.94.27.22,1.32,1.3-1.62,2.66-1.84,2-.08,2,.42,2.22.07.48-1,2.47-.94,1,.09,2.69-.59,2.49.06.81-.41,2.39.09.31.44,2.81-.69,1.55.17.87-.69,1.4-.62L180.22,6l1,.61L179.81,7l1.76.37-.28.83,1.06-.36,2.6.15,1.72.9.53.67-.56.9-1.3.49-3.13.89-1.05.5,1.2.32,1.4.53,1.12-.31.15,1.22.65-.47,1.86-.24,3.52.38.15.89,4.85.32,0-1.45,2.4.32,1.8,0,2,1,.79,1.23-.56.84,1.89,1.54,2.23.77L207.3,17l2.29.83,1.9-.63,2.66.49.63-.61,2.14.16L215,15.45l1-.92,11,.4,2,1,4.34,1.15,4.08-.93h2.48l1.81.66,1.52,1.44,2,.35,1-.64,1.81-.37,2.45,0,1.62-.59,4.1,1.35.34-.88-2.53-1-.81-.92,3.65-.16,1.6-.56,3.79.2,2.45.45,4.29.78,5.14,1.13,2,1.19,1.3.28-2.53-1.31,2.36-.5,4.39,1.16.81,1.13-.79.7L284.78,22l.38.54-.82.24-1.72-.47-2-.18-1.56-.8-1.35,0-.56.59-1.55-.54-1-.8-.3.81,1.84.82.78,1h0l.1,1.28-1.49.22,2.46.87,3,1.59,1.26.44,1.34.87.52.67-2.6.09-1,2.55-.74.53v2.1l-.29,1.89.67,1.21-3.69-1.26-1.77,2.66-1.54-.79-.43,1.32-2.33,0,1,1.74.2,2.8.92,1,2.35.27,2.92,3.91-1.51.37,1,2.4,1.63,1.06L276.8,55l1.58,3.33L276,59.46l1.27,3-1.3,3.17-2-1.94-3.41-4.15-5-6.16L264,49.49l.42-1.81-.79-1.26,2.28-1,.44-3.71.54-3,.91-2.41-2.13-3.56-1.49.5,1,2.11-1.45,3.3-3.83-2.83-3.32,1.4-1,4.75,2.54,1.4-3.47,1.16-2.62.59-1-1.91-3-.1-1.51,1.51-5.94.06L234.57,46l-4.51,5.74-6.42,7.13,3.64.2,1.6,1.77,2.4.53,1-1.55,2.52,0,4.33,3,.93,2.53-.86,3.15.91,3.68.31,5.09-2.67,4.87-.36,2.3-2.82,4-3,4-1.47,2.07-3.49,2.15-1.81.11-2-1.59L219.2,97.9l-.33,1.16-1.14-.18-1.15,1.2-.77,1.2.33,2.49-1.48.8-.49.63-1.06,1.06-2,.62-1.27,1v1.53l-.33.39,1.27.56,1.85,1.53,3,4.16.95,2.32.34,4.18-1.08,2-2.91.77-2.53,1.57-2.94.36-.44-2,.49-2.75-1.56-3.77,2.34-.64L206,115l-1.55-.66-.36.68-.91.31-.13-.68-.82-.32-.86-.57.82-1.58.73-.42-.3-.65.74-1.92-.22-.57-1.81-.37-1.46-.93-4.28,1L193.27,110l-3.36,1,1.68-1.63L191,108l2.45-2.35-1.58-1.84L189.18,105l-3.53,2.4-2,2.26-3,.12-1.69,1.62,1.5,2.44,2.53.62,0,1.62,2.47,1.08,3.62-2.53,2.78,1.41,2,.1.5,1.89-4.54,1L188.33,121l-3.2,1.8-1.76,2.54,3.46,2.06L188,131l2,3.42,2.26,2.89-.09,2.8-2.16,1,.79,2,2,1.19-.56,3.1-.93,3-2,.34L186.72,155l-3,5-3.48,4.59-5.12,3.51-5.21,3.17-4.14.34-2.33,1.67L162.23,172,160,173.85l-5.23,1.77-3.9.44-1.57,4.11-2,.13-.72-2.9,1-1.47-4.73-1.5-1.75.55h0L136,178.06l-3.36,3.54-1.06,2.68,2.38,4.34,3,5.38,3.17,2.64,2.05,3.31,1.28,7.46-.86,7-3.3,2.46-4.46,2.33-3.25,3.14-4.86,3.41-1.24-2.64,1.19-2.63L124,218l-3.08-.8L119.57,215,118,210.79l-3.13-2.08-3.11-.17.8-3.08-3.17-.24-.66,4.35-2.4,5.64-1.42,3.41.05,2.9,2.35.33,1.26,3.76.48,3.49,1.94,2.45,2.21.64,1.84,2.21.84.44,2.12,2.55,1.48,2.77.15,2.68-.43,1.77.34,1.38.23,2.35,1.31,1.18,1.44,3.58-.08,1.33-2.68.07-3.53-3.17-4.37-3.47-.39-2L109.37,243l-.41-3.32-1.25-2.27.51-2.85-.73-1.75-1.38-1.65-.52-2-1.81-2.41-1.64-2.05-.72,2.29-.56-2.27.54-2.44,1.32-3.72-.13-3,1.35-2.95-1-2.47.69-4.3-1.24-2.2-.64-4.86-.05-5.06-1.1-3.42-2.52,1.76-4.23,2.42L92,193.92l-2-1.16L91.86,188l-.15-3.77-1.88-4.82.64-1.37-1.83-.72-1.73-3.46-.53-2.15.2-2-.24-1.94-.85-2.42-2.84-.52-.06,1.63-1.43,2-1.16-1-.61.65-.78-.54-1.12-.51-.73,1.36-2.07-.34-3.92.27-.46,2.95-2.1,2.07-4.86,2-4.26,4.06-2.7,2.1L53,183.6l-.36,1.8-1.62.71-2.85.94-1.36,0-1.41,2.83-.29,5.23-.37,3.3L43,201.89l-.91,6.71-1.5-.09-1.65,2.76.71,1.47-2.7.61-1.22,2.5-1.24.9-2.21-4.23-.57-5.8-.48-4.2-.65-2.07-.79-4.09.22-5.06,0-2.55-1.21-5.91.69-7.79.52-5.13,1.27-4.67.56-3.7L27.74,163l-1.48-.88-1.49-5.41,1.49-1.08L26.1,154,24.66,150l-1.19-1.4.36-2.88-.49-3.31L19.5,142l-3-1-2.69-.38-2.7-2.34L9.7,136.76l-1.51-1.22,1.36-4.76-.39-1L7.78,130,5.61,131l-1-2,.09-3.46-.61-1.67,1-3.83,1.73-5.2-.85.21,0-1.58-1.1,1.11L4.39,114l-.65,1.69-.52.74-1.11,2.88L.92,122.66,1,123.81l-.45,1.38,0,2-.64,1.52-.66,1.14-.42,1.3-.15,1.22-.38,1.29-.23,1,1.1-2.7,1.16-1.72L.8,130l-.17,1.34-.93,2.14-1.19,2L-1.88,137l.28-.05L-2,138l1.18,0,1,.67.74.53,1.95-2,2-1.84,1.87-1.83,1-1,0,.4L7,134.3l-.48.57-1,3-.38,2.82.29,1.72.93,1L7,144.47l-.09,2.44,0,1.42.42.72-.31.83-1.4,2-.63.95-1.11.92-1.48,2.34-.66-.51-.63.76-.88,1.81-.61,2.63-.29.4-.72-.33-1.4,1-.71,1.79-.58.64-.92-.47-.85.68L-6.34,166l-1,.72L-8,166l-1.28.8-.68-.12-1.22.49-.71,1.56-.38,1.29-1.66.89-2.3.59-1.64,2-.51-.12-.25-.45-1,1.15-.78.25-.8-.44-.27,0-.42.85-.28.08-.35.86-.38-.46-.36.27-.46-.74.33-2.44.52-2.08.16-1.26.59-3,.23-1.78.18,0,.41-1.82.29-.64.45-1.69.39-1.72L-20,157l.42-1.57.12-1.74.74-3.55.9-3.26.58-3.08,0-.94,1.06-4,1-2.63.91-2.14,1.51-4.44.47-1.75.17-1.14.86-2.3.39-.77.81-2,.31-1,1.23-2.91,1.34-3.26,1.2-2.75-.07-.35L-5,109.56l.68-1.17.79-1.28.28-.52L-4,107.76l-1.47,2.44-1,1.61-.34.43.58-1.36.83-1.86,2.79-5.4-.18.23-2.07,3.89-1.89,3.9-2.78,6-.92,2.18-.93,2.24-1.7,4.62-.31.48-1,2.36-1.14,4.12-.26.88-1.35,3.83-.32.5-1.39,3.9-1.46,4.71-.19,1.21-.27,1.8L-22,155.28l-.91,3.68-.28,2.27-.27,4.65-.23,2.61-.2,2.63-.11,1.56.06,1.54-.1,1.37-.37,1.58-.58.47.07,1.39.09,1-.17,1.75,0,2,.38.4,1-.25,1.06.39,1.07-.52.55.13.5-.43.63.3.37.16.63-.22h.68l.83-1,.46.28-.19,1.09-.55,2.19-.37,2-.51,1.24-1,4-1.21,4L-22,202.06l-1.54,5.07-1.25,3.72-1.48,4.41-1,2.38-1.33,2.69-.72,2.23-.71,3.86-.1,1.88-.11.74-.35,1-.07,1.43-.18,0,.07,2.63-.06,1.32.09,2.43-.08,1,.26,4.42.27,2.24.44,1.93.14,1,.19,2.12.19,1.22.24,1.79.53,2.69.85,4.11.33,1.13.41,1.84.75,3.77.8,3.43,1.46,5.93.58,2,.58,2.45.56,2.29.4,1.82.07.71.2.93.51,1.6h0l-6.41-23.07-4-23.61L-33,217.63l1-23.92L-28.44,170l6-23.19,8.37-22.43L-3.42,103Zm19.12-26-.65.77-.12.14h0Zm-2.08,2.47-.34.42-1,1.18L16.83,73l.42-.52h0ZM323.94,26l-.19-.13-1.59-1.06-.83-.53-.47-.26-2.63-1.64-1.93-1-2.83-1.6.22.28.57.62-.54-.06-2.91-1.13-.42,0-.9,0,.48.72-1.44-.09-1.46-.34.72.85,2.42,1.27.2.35.63.89,1.07,1,.56.89-2-1.15-3.32-2.14-.93-1-.91-.38L307.21,22l2.18,1.6,2.12,2,1.83.71,2.2,1.92,1.1,1.37.69,1.1,1.38,1.09,1.08,1.85,1.4,1.22.84,1.52-.59.13.39,1.08.49,1.27.54,1.19-.27,1.47-.63-.34-.71-1.64-.34-1.18-1.11-1.77.32-.81L319,34.67l-1.31-2-.56-.55L316.31,31l-2.46-1.74-1.79-1.49.58,1.13-.71-.24,1,1-2-.84,1.07.89-1.83-.93.83,1.28-.32.25-2-1.27-1.12-.87L306,27.72l-.09.92-2-.69-1.21-.25-1.88-1.21-1.88-.61-1.68-1.34-1.41-1.43L294.3,22l.18-.43.9.07-1.27-1.22.63-.09-.75-.86-1.67-.8-.87-.15-1-1-.21.23.29.76.62.52L290,18.88l-.33.68-1.62,0L286.42,19l-2.71-.69-.63-1.21-.56-1.57.38-.25,1.69.93.79-.74-2.53-.83L281,14.31l-2.08-.65-1.95-.45-1.77-.15-1.57-1,.68-.55-1.11-1.08-1.66-.83-1.35-1-.09-.43L269,7l.49-.14-1.63-1.15,1.08-.1,1.81.43-.66-.39.46-.36.85.33.8-.18-.3-.41,1.27-.15.33-.41.46,0-.7-.58,1,0,.38-.12.58-.22,1.44.16.08-.18L275,2.68,273.46,2l0-.27L271.3.79,269.77.07l1.2.28L269.82-.1,268-.67l.08-.06,2.34.52-3-1.07L270-.51,268.72-1l-1.21-.4L267-1.65l.47,0-.37-.22L266.65-2l-.94-.31.17.05h0l22.38,8.52,21.36,10.82ZM121,431.68l-.5-.18,1.43.49,1.17.38,1.15.37,1.07.33.87.25,3.82,1.22.73.23,1.25.39h0l.35.1h0Zm18.5,5.53-.71-.18-.47-.13-.32-.1-.8-.23-.93-.3.29,0,.95.2.62.11.57.08-.55-.23-.67-.26-.25-.19.41,0h.44l-.2-.19.23,0h.47L140,436l.86.08.94.08,1.49.26.32-.12-.74-.54,1.06.33,1.59.52L147,437l1.41.23,1,.06,1.5.23,1.3.16h.67l1.25.18,1.41.29h1l1.5.15h1.08l1.68.25.48-.2.28-.22.65-.16.95-.52,1.17.2,1.51.33,1.43.38,2.59.63,1.49.1,1.39.08h1.53l1.53,0,1.07-.17.86-.2,1.75,0,1.06-.14,1.37.21,1,.29,1.27.29h1.71l1.17.23,1.94.23,2,.1,1.59,0,1.19-.24,1-.25,1.43-.06,1.43.11,1.63.07,1.51-.14,1.43,0,1.37.06,1.41.05,1.49-.17,1.77-.17,1.63-.08,1.79-.06,1.51-.14,1.48-.12.81-.44.38-.37.8.2-.08.38.18.33.35.25,1.12.08,1.77-.14,2-.13,1.41-.13,2-.13,1.42-.12,1.87-.11,1.51-.07.56.18-.81.33.46.15,1.11,0,1.09.05,1.4,0,1.46-.07,1,0,1.37-.15,1.44-.36.55.08.29.12.55,0,1.2-.12,1.05-.1-.33.21.7,0,0,.12.77-.08,1.21-.21.92-.15,1.21-.23.93-.16.67-.11.29,0,.36-.05-.23.08-1.21.3-1.43.33-1.63.37-.7.15h0l-23.63,3.86-23.9,1.37L173,443.1l-23.67-3.63Zm-66.09-35.6,1.76,1,1.8.68.51.43.66.87-2.21-.51-1.35-1.17-.78-.85Zm188.49-7.29,2.34.62,1.64-.47,2.36-.67h1.56l-1.15,2.88-1.31.91-1.2,1.93-.61-.55-2.62,1.8-.48-.08-1.6.07-.75-1.86.3-1.54-.73-2,.52-1.13ZM274,311l1,2.73,2.46-1.54,1,1.42,1.56,1.26-.55,1.61.41,3,.32,1.72.83.35.55,2.92-.59,1.84.78,2.25L285.3,330l2.15,1.41,2,1.27-.6.87,1.52,1.93L291,339l1.47-.87,1,1.3.91-.6-.21,3.46,1.81,1.77,1.18,1.08,1.79,2.35.18,2.49-.43,1.81-.77,2,.65,2.5-1,2.76-1,1.49-1.7,2.81-.52,1.72-1.33,2.2-2.26,2.82-2.68,1.67-1.89,2.34-1.5,1.51-1.78,2.51-1.64,1.5-1.53,2.12-1.12,1.9-.2.83-2,1.09-3.22.41-3.06,1.33-1.7,1.13-2.16,1.26-1.94-.94-1.6-.31.93-1.4-1.77.63-3.2,2.08-2.29-.51-1.54-.29-1.64-.07-2.66-.56-1.49-1.49,0-2-.36-1.31-1.26-1-2.93-.16,1.32-1.38-.31-2-2,2-2.92.65,2-1.61.81-1.63,1.51-1.44.16-2.09-3.1,2.55-2.2,1.06-1.63,2.27-2.3-1,.36-1.48-1.7-2-1.57-1,.71-.69-4-1.58h-2.33l-3.07-1.31-6.07.43-4.44,1.13-3.9,1-3.21-.15L203,375.65l-2.92.67-.66,1.48-1.25,1.14-2.82.07-2.07.25-2.94-.52L188,379l-2.27.11-1.89,1.46-1-.14-1.61.76-1.5.85-2.39-.15-2.18,0L171.52,380l-1.81-.57-.1-1.6,1.6-.34.5-.63-.22-1,.22-2-.53-1.72-2.07-3-.71-1.71v-1.7l-1.56-2-.17-.9L165,361.55l-.66-2.43-2.23-2.54-.62-1.36,1.68,1.41-1.45-3,1.83,1,1.16,1.26-.2-1.62-2-2.57-.42-1-.92-1,.25-1.86.66-.77.37-1.63L162,343.5l1.33-2.34.45,2.54,1.4-2.23,2.91-1,1.73-1.38,2.77-1.17,1.67-.23,1,.44,2.89-1.2,2.25-.34.54-.73,1-.3,2.07.11,3.93-1,2-1.51.95-1.83,2.21-1.75.17-1.38.09-1.9,2.66-3,1.6,3,1.64-.7L197.93,324l1.21-1.71,1.68.76.49-2.7,2.12-1.76.94-1.41,2-.63.07-1,1.69.4.08-.9,1.71-.53,1.87-.51,2.81,1.6,2.09,2.09,2.39,0,2.43.28-.75-1.94,1.93-2.93,1.78-1-.58-.89,1.75-2.12L228,307.7l2,.37,3.27-.79v-1.87l-2.79-1.12,2.08-.6,2.52.82,2,1.43,3.19.81,1.11-.42,2.31,1,2.27-1.14,1.42.25.93-.75,1.63,1.72-1.12,2L247.23,311l-1.31.18.35,1.42-1.21,1.85-1.45,1.82.21,1,2.86,1.83,2.79,1,1.82,1.12,2.5,1.94,1-.06,1.84.79.46,1,3.36,1,2.51-1.35.91-1.93.89-1.61.64-2,1.39-2.91-.35-1.7.36-1.06-.25-2,.71-2.77.76-.79-.48-1.18,1-2,.84-2.07.17-1.06,1.48-1.49.91,1.73.08,2.29.89.38,0,1.53,1.17,1.76.09,2ZM143.26,252.84l2.85,1.49,3-.61.81-3.3,1.68-.67,4.71-.68,2.85-3,2-2.44,1.58-1.43,3.37-2.08,3.07-2.68,2-3.06,1.59,0,2,2,.17,1.74,2.6,1.15,3.29,1.24-.3,1.55-2.66.16.7,1.94-2.94,1.3L173.37,249l2.9,3.79-.69,1.8,4.46,3.71-4.71.39L174,261.34l.17,3.54-3.81,2.58-.08,3.86-1.49,5.87-.6-1.38-4.48,1.61-1.58-2.4-2.81-.31-2-1.3-4.64,1.21-1.44-1.93-2.56.11-3.22-.59-.65-5.22-1.94-1.17L141,262.39l-.53-3.45.46-3.61ZM330.91,30.93h0l-1-.73-1.19-.83-.67-.44-1.27-.86-1-.71h0l.14.06-.83-.61,3.71,2.58,1.35,1h0ZM251.42-6.39l-1.21-.3-2.5-.57-1.08-.25-.27-.08.29.06h0Zm13,3.66.14,0,1,.33-1.69-.48-.8-.26-1.64-.52-.89-.29L259-4.35l.7.23,1.75.56.88.31-.89-.22-2.8-.88,1,.36.18.16-3-.82-1.73-.47-3.59-1v-.06h0l1.82.44-2.41-.66.62.09-2.36-.58.33,0,2.2.52h0ZM243.83-8.16l2.56.56-.84-.16-.66-.14-1.11-.25ZM261-3.42l3.1,1.08-1.24-.29-.75,0-1.69-.49-2.89-.8-2.7-.72-1.76-.28-2-.79,0-.13L250-6.26h.43l.77.08,1.56.43,3.75,1.06,3.06.86Zm-27.27-6.66h0l-1.52-.25-1.77-.28h.09Zm-3.25-.43.65.05,1.27.17,2.23.35,1.54.28.39.08L235-9.82l1.36.26-2.09-.3-.63-.13-1.94-.32-.81-.16ZM238.25-9l.83.1L238-9.1l-.53-.14L238.8-9l1.79.32,2.68.63,2.92.69,1,.29-1-.18-2.62-.62,2.91.86.12.14-3.95-.8L241.28-8l-.36-.29h.87L241-8.52l-2.11-.23L237.22-9l-.22-.1Zm-9.37-1.87-.46-.07-.22,0,1.24.21.06,0-1.28-.16-1.28-.22h0l0,0-1.47-.21h.06l1,.13-.12,0h0Zm8.89,2.45L240.4-8l1.52.3.6.18,2.29.55,1.22.37-.21.11-3.3-.73-3.07-.66-.59-.23Zm-12.42-2.84.38.05,1.12.19-.51,0L225-11.25l0,0Zm9.39,2,1.85.37-.32.09-1.41-.23-1-.24-.2-.14Zm-3.08-.36,1.2.22.76.22-.47,0-1.42-.23-.09-.05Zm-6.27-1.49,1.46.2-.08,0-.71,0-1-.06-.65-.13-.18,0,.12-.07Zm1.93.41.87,0,.69.16.05.12,1.12.26-1.37-.19-.07.09-1.09-.07-.6-.19-.44-.23Zm-11.07-1.35-.14-.08,1.47.11,2.76.22,1.36.17,1.09.18-.26,0-.86,0-1.1-.09,1.1.17-.19.07-.79,0-1.47-.07-1.09-.06-.68-.08-.33,0-1.26-.17.54-.12-.46-.13-.54-.12Zm7,.47,1.23.15-.91-.1-1.87-.22-1.08-.07-.58-.06-1.15-.16-.19,0,.76.11-1.32-.1-1.65-.15-.83,0,.16.1-.75,0-1.55-.18-.29-.05-1.57-.07,1.13.14,2.13.22.28.14-.42.08-.06.1-.66,0-1.11-.07-.61-.07-1.24-.08h-1.39l-.47-.07v-.11l-1.28.08h-.85l-1,0-1.42-.09-.1,0-1.51,0-.92-.07-1-.07h0L200-12.42l-1-.07-.81-.1.11-.08,1.51-.09h1.48l.67,0-1.27,0,1.82-.07h1.25l1.87,0,1.59.07.67,0,2.25.14-.81-.07.72,0v0l1.16.06,1.58.11.92.07.54,0h0ZM148.49,186.71l-3.33,1.75-2.93-1.38.17-3.4,1.95-1.7,4.08-.91,2.09.18.71,1.54-1.74,1.67ZM8.69,86.43v0l.56-.67,0,.52.75-.35-1,.91-.43.65-.18.28-1,.62.3-.74.93-1.44Zm366.88,221,.46.82-.88,2-1.48.88-1.08-.09.22-1.51L374,308l.87.16Zm4.67-5.65.47-.3-.71,1.83-.22.25-1.57,1.3L376.65,306l.08-1.26,1.27-1.06.73-.41ZM11.29,80.2l-.17.24-.48.71-.39.53.06,0-.63.84.42-.68.37-.51.16-.22h0ZM208.38-12.92l.62,0-.53,0-3.34-.15-3-.08-.49,0,1.62.1-.86,0-2.57.05h-.92l.08.1-1.41,0-1.7,0h-1.66l-.68-.07-1.24.17-1.47-.06H190l-1.41,0,1.73.08.23.12h0l-1.12.25-1.65.08-.11.15-1.35.14-3.42.28-4.22.17-.1-.17,1.63-.23,2.38-.29H182l-1.53.2-2.14.13-.25.16H176.9l-.76-.12-.41.2-1.21.38-1.77.23-1.42,0,0-.33-.31,0,1.26-.27-1.36.2-1.15-.05h-1.07l-2.66.19-2.39.28,1-.16.49-.1-2.62.36-1.9.28h0L184.43-13l23.94.07ZM187,301l-1.65.06-5.23-2.66,3.66-.68,2.08,1.15,1.38,1.14Zm17.2-3.14-2.58,2.79-3.37.83-.47-.44.36-1.26,1.69-2.27,3.91-1.51.46-.89,3.4-.87,2.75-.16,1.24-.49,1.48.45-1.46,1-4.11,1.69Zm-28.36-5,1.43,1,2.44-.27,1,1.61-4.54.68-2.72.45-2.1-.07,1.31-2.13h2.16Zm19.75.17-.58,2.08-5.92,1-5.25-.5v-1.37l3.12-.75,2.48,1.14,2.63-.27Zm-56-6.4,7.41.73.81-1.52,7.25,2.11,1.48,2.5,5.88.88,4.85,2.37L162.84,295l-4.33-1.65-3.51,0-4-.43-3.64-.83-4.51-1.65L140,289.9l-1.58.39-7-1.95-.72-1.66-3.49-.5,2.48-3.46,4.63.5,3.13,1.66,1.6.37Zm102.63-1.68-2.06,2.67-.31-2.84.72-1.4.84-1.32.86,1.08Zm-29.29-9.7-1.49,1.3-2.75-.67-.77-1.65,4-.23Zm12.78-1.68,1.41,2.91L223.8,275l-3.3-.24-2.24.3-2.74-.08.94-2.14,4.91-.26Zm40.21,21-3.19-2.86-3.81-.52-1,1.13-4.83.39,1.74-3.15,2.44-1.18-.85-4.06-1.76-3.09-7.4-2.86-3.2-.17-5.81-3.31-1.18,1.91-1.51.4-.87-1.38v-1.67l-3-1.8,4.24-1.54,2.8,0-.32-1-5.76.2-1.55-2.26-3.52-.61-1.66-1.88,5.32-1.1,2-1.34,6.3,1.37.62,1.42,1.06,6.23,4,2.14,3.29-4.25,4.47-2.56,3.43-.19,3.28,1.17,2.82,1.21,4.07.48,6.5,2.21,6.83,1.67,2.5,1.76,2,1.76.48,2.2,5.94,1.82.78,1.94-3.35.72.67,2.45,3.06,2.18,2,3.76,2-.33-.27,1.67,2.67.36-1.12.81,3.57,1.18-.47,1.11-2.33.5-.78-.87-3-.12-3.54-.21-2.6-2.12-1.91-1.87-1.67-3.12L280,288l-3.17,1.32-2.33,1.42.31,2.73-3,1.5-2-.47Zm-61-38.24-3.2,3.91-3,.77-3.84-.76-6.65.17-3.49.54-.56,3,3.56,3.49,2.15-1.75,7.44-1.31-.32,1.79-1.74-.56-1.74,2.27L190,269.35l3.78,5-.72,1.32,3.57,4.44,0,2.51-2.12,1.13L193,282.37l1.92-3.13L191,280.71l-1-1.06.51-1.48-2.87-2.27.29-3.76-2.67,1.15.36,4.49.18,5.48-2.51.53-1.71-1.14,1.11-3.51-.63-3.72-1.68,0-1.24-2.66,1.64-2.51.57-3.07,2-5.86.83-1.61,3.4-2.88,3.12,1.18,5,.56,4.58-.17,3.95-2.88Zm13.73.94-.21,3.43-2-.35-.6,2.39,1.63,2-1.12.49-1.6-2.44-1.18-5,.8-3.15,1.31-1.46.29,2.15,2.35.3ZM128.77,282.5l-4.19-.19-3.27-3.41-4.89-3.49L114.75,273l-2.88-3.37L110,266.54l-2.87-5.68-3.23-3.54-1.05-3.46-1.32-3.18-3.22-2.79-1.8-3.56-2.63-2.48-3.55-4.74-.22-2,2.26.4,5.49,1.32,3.06,4.18,2.74,2.93,2,1.82,3.41,4.53,3.77.37,3.1,2.93L118,257l2.86,2-1.5,3.09,2.16,1.51,1.36.19.66,2.76,1.35,2.25,2.8.52,1.89,2.57-.87,4.73ZM234.15,127.41l.56,1.24L233.15,131l-1.48-1.14-1.59.93-.64,2.2-2.26-1-.15-1.76,1.59-2.27,1.9.36,1.16-1.6Zm18.07-11.95-.56,2.95.89,1.77-1.12,2.66-3.7,2-5.53.54-4,4.42-2.36-1.32-.49-2.75-5.51,1-3.68,1.87-3.83.19,3.58,2.62-1.68,6.41-2.06,1.64-1.75-1.42.59-3.4-2.2-1-1.53-2.52,3-1.22,1.53-2.37,3.11-2,2.1-2.58,6.22-1.32,3.49.59,2.31-6.58,2.34,1.61,3.87-3.83,1.45-1.49,1-4.43-1.34-3.9.73-2.26,2.88-.83,2.73,4.69.58,2.85-1.93,3.74Zm2.26-24.94,2.09.56L258,89.52l1.78,3.7-3.73,1.25L254.58,98l-5-2L249,99.85l-3.14.26-1.17-3.38.77-2.69,2.9-.38L247.91,89l.08-2.63,4.11,3.22Zm-208,130.32-.78,4-1.32.9-2.63.43-1.14-3.4V217l2-6.17,1.76,2.57,1.07,3Zm-64.81,56,.66,1.8.86,2.66,1.31,4.61.76,1.93.37,1.71.1,1-1-2.42.09,1,1,2.88.37,1.49,0,.64.91,3.05,1,3.94,1.29,4.6,2.06,6.3,1.74,4.61,1.44,3.71-.31.24v.84L-6.54,320l-1.17-1.81-1.06-2L-10.22,313l-1.47-3.08-1.14-2.63-.93-2.45.07-.28-.46-1.19-.69-2.38-.78-2.24-.78-1.89-.93-2.45L-18.49,291l-.39-1.8-.6-2.25.35.24.23-.34.12-.39.37.28-.07-1.68.18-1.67-.18-1.65L-19,280l.54.78,0-2.19-.49-2.24v-1.43Zm359.18,51,1.6,1.7.91,1.3-1.26,1-1.2-.63L339.47,330l-1.25-1.49L337,326.47l-.08-1.1,1.19-.17,1.25.89.89.95ZM148.12-4.88,146.85-5,148-5.44l.87-.06,1.32-.3.45.21-1.5.31ZM156.2-7l-3.4.89-1.08-.16L149-5.91l-.52,0-3,.46.17-.19,2.85-.75,1.06-.06,1.47-.4,3.64-.72,3.06-.44.62.22L157-7.61l-.27.19,1.2-.1-.16.18Zm1.76.62-1.52.47-2,.11-.15-.36,1.07-.52,1.09-.17.31-.21,1.94-.36.57.28-1.12.31,1,0Zm170.37,391.1-.4,1,2.18-1.39-.32,1-.87,1.09-1.65,1.36-2.76,2.16-1.8,1.24-.32,1-1.46.37-2.4,1.3-1.88,1.69-3.2,2.63L311,399.48l-1.54.85-1.71.32-.58-.5-2,.27.4-.78,2.55-1.93,4.48-2.86,1.67-.73,2.19-1.23,2.74-1.66,2.23-1.56,2.36-2.09,1.26-.82,1.4-1.51,2.3-1.54Zm12.32-13.83-.55,2.62,1.33-1.95.36.55-1.17,2.05.88.5,1.09-.13,1.8-1.37.68.06-2.23,2.6-1.74,1.76-1.32.33-1.1,1-.72,1.12-.65.57-1.8,1.63-2.33,2.05-2.23,1.41.23-.6-.47-.18,2.77-2.44.51-1.31-1.27-.55.77-1,2.09-1.3,1.83-2.21,1.15-1.78.46-1.68.39-.52-.21-.93,0-2.15.35-1.85.93-.42.17,1.34,1.14.35ZM209.33,228.59l.42,2.64.25,2.23-1.31,3.66-1.48-4-1.84,2,1.28,2.92-1.12,1.87-4.68-2.28-1.12-2.87,1.19-1.9L198.41,231l-1.24,1.65-1.87-.15-2.93,2.21-.65-1.16,1.56-3.36,2.49-1.11,2.15-1.5,1.4,1.8,3-1.1.63-1.78,2.78-.13-.25-3.08,3.2,1.86.34,2Zm-9.47-7.36-1.41,1.32-1.23,2.52L196,226.25l-2.42-2.76.81-1.07,1-1.12.42-2.47,2.16-.24-.62,2.69,2.88-3.86Zm-21.56,3.72L173,228.63l2-2.75,2.86-2.41,2.39-2.73,2.1-3.94.65,3.27-2.61,2.16Zm13.34-10.16L194,216h2.49l-.07,1.66-1.82,1.7-2.49,1.19-.14-1.86.29-2Zm14.12-1.12,1.14,4.45-3-1,.08,1.34,1,2.45-1.86.91L202.9,219l-1.19-.2-.62-2.41,2.3.31-.07-1.51-2.39-3,3.73.07Zm-15.49-3.59-1.06,3.45-1.66-2-2-3.05,3.32.17Zm-.63-21.63,2.32,1.14,1.16-1,.35,1-.63,1.65,1.29,2.85-1,3.3-2.27,1.31-.62,3.21.84,3.17,2,.45,1.71-.47,4.84,2.2-.37,2.17,1.28,1-.4,1.84-3-2-1.44-2.09-1,1.46-2.47-2.4-3.54.58-1.92-.9.21-1.65,1.22-1-1.14-.93-.51,1.43-1.88-2.31-.54-1.74-.1-3.81,1.53,1.33.48-6.22,1.28-3.59ZM319.27,280.8l-1,.51L317,280l-1.33-2.23-.56-2.83.48-.42.31,1.09,1,.73,1.49,2.22,1.49,1.08Zm-13-3.5-1.85.52-.61,1.13-2,1.13-1.85,1.08-1.88.19-2.86-.81-2-.87.35-1.21,3.18.24,2-.5.62-1.89.51-.15.25,2,2-.5,1-1.42,2-1.59-.29-2.22,2.09-.31.68.55-.15,2.14Zm4.16-4.21-1.12,1.15-.56-2.19-.76-1.4-1.54-1.09-1.94-1.42-2.5-.87,1-1,1.87.88,1.16.71,1.44.77,1.34,1.46,1.28,1.08ZM246.94,69.54l4.37,5.3-4-.75-.05,4.67,3.51,3.1.64,2.27-2.56-1.81-1,2.63-1.27-2.69L246,79.12l-1.34-3.4-.18-2.41-1.24-4.14-2.38-2.89-1.19-4.09,1.59-1.5-1.38-1.29.82-.48L242,60.81l1.84,2.79,1,3Zm11.85-57.33-.64.33L257,12l-.41-1,0-.1.58-.18,1.88.15.39.25.08.63ZM219.07,13.6l-1.63.13-2.37-.06-.25-.09.57-.79,1.21-.26,2,.59Zm4.14-4-.37.79h-1.66l-2.38-.52-.28-.57,1.95.1Zm-6-.32.31,1.34-3.66.21-1.41.52-2.63-1-.14-1.22,1-.39,2.47-.08Zm-90.18,1.14h-.63l-1.19-1,1.45-.75.18-.85L128.78,7,130,6.93l1.94-.79,3.85-.76.07-.36,4.1-.7,1.5-.65,2.78-.27,3.66-.25,2.19.31,2.06-.22,1.41.13-.88.64-1.35.32-3.49.11-3.12.12-4.74.73-4.1,1.08L131.75,7.4l-2.82,1.3Zm54.46-5.34-4.87.26L180,3.51l.73-.12.43.13,1.11,1ZM160.06-3.08l-.76-.05-.46,0-.64.13h-.84l.72-.35,1.29-.19-.21-.31,1,.1.29.18-1,.25,1-.13.79,0-.53.37Zm18.45,7-1.74,0-1.41-.62L175,2.71l.94-1-.39-.36,2.81-.73L180,.4l.22.78-.12,1.47Zm159.35,287.7.69,1.14-2.12.33-.89-2.11,1.72.61ZM334.24,290l-1.22.27-1.88-.08-.6-.48.35-1.51,2,.27.94.63Zm2.67-1.43-.54.77-1.95-2.89L334,284.3l1.06-.17.82,2.84Zm-5.13-3.86.07.74-2.34-1.23-1.64-1.09-1.1-1.09.51-.46,1.41.69,2.47,1.35Zm-7.18-2.65-.67.31-1.36-.67-1.24-1.38.21-.66,1.85,1.34ZM191.53,165.28l-2.26,6.26-1.62,3.2-1.88-3.33-.37-2.91,2.21-3.81,2.95-2.92,1.64,1.17Zm218-16.55.13.73-.33-.34-.35-1.07-.58-1.23-.12-.45-.12-.74-.31-.68-.09-.39h.07l.44.34.21.19.27.37.6,1.11.06.23.08,1.09Zm-2.4-5.4-.1.52-.4-.65-.19-.22-.09-.22-.06-.39.35.09.37.37ZM406,141.87l.13.43-.39.29-.12-.51Zm-.79.13,0,.25h-.07l-.29.13-.41-.74-.09-.12v-.71l.15.18Zm-2.2-1.19.05.45-.54-.43-.07-.31,0-.48.22-.09ZM319.29,30l1,1.28-1-.35-1.6-1-.95-1.17-.39-.56.37-.14,1.13.49Zm-14.78-.92.11.58-1-.16-1.3-.37.11-.74.81-.11Zm-16.91-6,1.07.18.11-.41,1.43.27,1.11-.06.31.25.18.69-1.25-.19-.86-.24-.46.41-.46-.1Zm63,287.42-1,.65-.57-1.39.31-1Zm-.86-5.12-.15,2.83-.65-.3-.62.31-.19-.92.49-2.76Z"/></g>
	<g id="SINOTIBETANAS">
		<path id="TAILANDIA" onmouseover="displayName('TAILANDIA');displaySecondLanguage('Burmese')" class="sinotibetanas" d="M118,210.79l-3.13-2.08-3.11-.17.8-3.08-3.17-.24-.66,4.35-2.4,5.64-1.42,3.41.05,2.9,2.35.33,1.26,3.76.48,3.49,1.94,2.45,2.21.64,1.84,2.21-1.28,1.53-2.45.28-.21-2.06-2.93-2-.66.66-1.38-1.65-.52-2-1.81-2.41-1.64-2.05-.72,2.29-.56-2.27.54-2.44,1.32-3.72,2-3.92,2.26-3.54L106,207.32l.22-1.85-.2-2.25-2-3.37-.62-2.07,1.29-.62,1.66-3.33-1.11-2.74L103.31,188l-1.19-3.62,1.54-.57,2.16-4.11,2.44,0,2.24-1.52,2.1-.74,1.33,1.34-.11,2.38,2.34.38-1.36,4.08-.34,3.55,4-2.06,1,.78,2.1,0,.87-1.33,2.68.47,2.42,3.4-.12,3.93,2.65,3.65-.42,3.35-1.33,1.72-3.41-.8-4.78.42-2.61,3.13Z"/>
		<path id="CHINA" onmouseover="displayName('CHINA');displaySecondLanguage('Cantonés')" class="sinotibetanas" d="M148.49,186.71l-3.33,1.75-2.93-1.38.17-3.4,1.95-1.7,4.08-.91,2.09.18.71,1.54-1.74,1.67ZM218.4,98.47l-2.08-2-1,1.95L210.91,100l.6,1.82-2.59-.08-1.46-1.07-1.94,2.49-3.26,1.9-2.44,2.27-4.28,1L193.27,110l-3.36,1,1.68-1.63L191,108l2.45-2.35-1.58-1.84L189.18,105l-3.53,2.4-2,2.26-3,.12-1.69,1.62,1.5,2.44,2.53.62,0,1.62,2.47,1.08,3.62-2.53,2.78,1.41,2,.1.5,1.89-4.54,1L188.33,121l-3.2,1.8-1.76,2.54,3.46,2.06L188,131l2,3.42,2.26,2.89-.09,2.8-2.16,1,.79,2,2,1.19-.56,3.1-.93,3-2,.34L186.72,155l-3,5-3.48,4.59-5.12,3.51-5.21,3.17-4.14.34-2.33,1.67L162.23,172,160,173.85l-5.23,1.77-3.9.44-1.57,4.11-2,.13-.72-2.9,1-1.47-4.73-1.5-1.75.55-3.5-1.22-1.52-1.69.81-2.22-3.14-.91-1.51-1.57L129,169.25l-3.45.21-2.75-.22-2,.81-1.87.43-.09,4.52-1.83-.26-.19-.94.11-1.63-2.67.93-1.39-.85-2.3-1.69,1.49-3.15-2-.95-.19-3.64-3.61.32,1.23-4.55,3.7-2.92.73-3.15.48-2.93-1.22-1-.61-2.34-1.91.1-3.28-.91,1.42-1.48-.92-2.49-2.58,1.36-2.36-1.21-4.13,2-3.47,2.48-2.56.18-1.06-1.17-1.56-.29-1.88-1.15-1.85.74-2.71,2.55.58-3-2,.54-3.25-.85-2.94-1.34-1.75-2-1.9-1.08-.33-1.93-1.34-.79L67,133.62l-1.68-1.5-1.39.69-2.56-3.22L59.8,126.8l1-4.13,1.54.83.84-1.83-.18-2,1.5-2.87-.62-4.65-3-2.2.67-2.81-.77-2,.13-1.07.71-2,.79-1.31L61.5,99.7l-.86.18,1.25-3.24,1-.63.17-.85L65.91,94l1.78-.33,1.94.92,2-2,2.93.17,1.5-1.17,4.39-1.13.72-.69.87-1.9,2-.58,1.35-6,4.91-.52,1.51-.52L96.6,75l3.59,1.71,2-1.23,1.9-3.09,1.92,0,2.8-1.8,1-.13-.64,2.22.94,1.9,2.58,1.6.32,2.75-2.69,3.62.2,1.51,2.6.91,3.09.84,2.16,2.38,1.41.53v3.19l.8,2.15,2.93.21,5.27,1.27,3.75-.16,2.55.72,3.53,2.38,3.4.23,1,1.15,3.74-1.63,4.83-.92,4.3.1,3.55-1,2.36-1.73,2.16-1.05-.28-1.13L163,91.1,164.77,89l1.51.36,2.77.78,3-1.68,4.37-1.17,2.24-2.13,2-.89,4-.37,2.13.4.35-1.15-2.31-2.3-2.07-1.06-2.15,1.15L178,80.39l-1.55.37L176,79.42l2.23-3.14,1.51-2.35,3,1.25,3.77-1.93.06-1.37,2.45-3.25,1.42-1,0-1.68-1.29-.73,2-1.48,3-.53,3.16-.08,3.59.87L203,65.15l1.69,3,1,1.31,1,1.88,1.18,3,4.57.92,3.34,2.17,1.44,3,4-.12L223.38,79l4.13-1.12-.83,2.94-.81,1.23-.32,3.61L224.22,89l-3.46-.47-2.24,1.24,1.08,2.85.05,4-1.47.14Z"/>
		<path id="BHUTÁN" onmouseover="displayName('BUTÁN');displaySecondLanguage('Dzngkha')" class="sinotibetanas" d="M90.79,146.27l.93,1.36-.79,2.31-2.52-.2-2.48-.58-2,.35-2.31-1.8.14-.76,2.71-2.55,1.85-.74,1.88,1.15,1.56.29Z"/>
		<g id="AUSTRALIA" onmouseover="displayName('AUSTRALIA');displaySecondLanguage('Mandarín')" ><polygon id="TRAZADO" class="sinotibetanas" points="274.01 311.01 275.04 313.74 277.5 312.2 278.54 313.63 280.1 314.89 279.55 316.5 279.96 319.49 280.27 321.21 281.11 321.56 281.65 324.48 281.06 326.32 281.85 328.57 285.3 330.03 287.45 331.44 289.45 332.7 288.86 333.57 290.38 335.51 290.95 339.01 292.42 338.14 293.45 339.45 294.36 338.85 294.15 342.31 295.96 344.08 297.14 345.17 298.93 347.51 299.11 350 298.68 351.81 297.91 353.79 298.56 356.29 297.53 359.05 296.55 360.53 294.85 363.34 294.32 365.06 293 367.26 290.74 370.08 288.06 371.76 286.17 374.1 284.67 375.6 282.89 378.12 281.25 379.61 279.72 381.74 278.6 383.64 278.4 384.47 276.4 385.56 273.19 385.96 270.12 387.29 268.42 388.42 266.27 389.68 264.33 388.75 262.72 388.44 263.66 387.04 261.88 387.66 258.69 389.74 256.39 389.23 254.85 388.94 253.21 388.88 250.55 388.31 249.05 386.82 249.01 384.85 248.65 383.53 247.39 382.53 244.46 382.37 245.79 380.99 245.47 378.97 243.51 380.97 240.6 381.62 242.57 380.01 243.38 378.39 244.89 376.94 245.06 374.85 241.96 377.41 239.76 378.47 238.13 380.73 235.83 379.71 236.19 378.23 234.49 376.27 232.91 375.28 233.63 374.59 229.62 373.01 227.28 373.01 224.22 371.7 218.14 372.14 213.7 373.27 209.8 374.29 206.59 374.14 202.98 375.65 200.06 376.32 199.39 377.8 198.15 378.95 195.33 379.02 193.26 379.27 190.32 378.74 187.95 379.03 185.68 379.14 183.79 380.59 182.83 380.46 181.23 381.21 179.72 382.06 177.34 381.9 175.16 381.86 171.52 380.01 169.71 379.44 169.61 377.84 171.21 377.5 171.7 376.87 171.49 375.85 171.71 373.87 171.18 372.15 169.11 369.14 168.4 367.43 168.39 365.72 166.83 363.71 166.66 362.82 165.01 361.55 164.35 359.12 162.12 356.58 161.5 355.22 163.18 356.63 161.73 353.66 163.56 354.64 164.72 355.89 164.53 354.28 162.54 351.71 162.13 350.69 161.21 349.69 161.45 347.83 162.11 347.06 162.48 345.43 161.96 343.5 163.29 341.15 163.74 343.69 165.14 341.46 168.05 340.42 169.78 339.04 172.55 337.87 174.22 337.64 175.27 338.08 178.16 336.88 180.4 336.54 180.95 335.8 181.94 335.5 184 335.61 187.93 334.65 189.96 333.14 190.9 331.32 193.11 329.57 193.29 328.19 193.37 326.29 196.04 323.32 197.64 326.34 199.28 325.64 197.93 323.99 199.13 322.28 200.81 323.04 201.3 320.34 203.42 318.58 204.37 317.16 206.32 316.54 206.39 315.54 208.08 315.94 208.16 315.03 209.87 314.5 211.74 313.98 214.56 315.59 216.65 317.67 219.04 317.64 221.48 317.92 220.72 315.98 222.66 313.05 224.44 312.06 223.85 311.17 225.6 309.05 227.98 307.7 229.94 308.07 233.21 307.28 233.21 305.41 230.41 304.3 232.49 303.69 235.01 304.51 237 305.94 240.19 306.76 241.3 306.33 243.61 307.36 245.88 306.21 247.3 306.46 248.23 305.71 249.87 307.44 248.75 309.44 247.23 310.98 245.92 311.16 246.27 312.58 245.06 314.44 243.61 316.26 243.81 317.26 246.67 319.09 249.47 320.08 251.28 321.2 253.78 323.14 254.82 323.08 256.65 323.87 257.12 324.92 260.48 325.89 262.99 324.54 263.91 322.61 264.8 321 265.44 319.03 266.82 316.12 266.47 314.41 266.82 313.35 266.58 311.31 267.29 308.55 268.05 307.76 267.57 306.58 268.61 304.58 269.44 302.51 269.61 301.45 271.09 299.97 272 301.7 272.08 303.99 272.97 304.37 273 305.9 274.17 307.65 274.26 309.69 274.01 311.01"/><polygon class="sinotibetanas" points="261.92 394.33 264.25 394.95 265.89 394.48 268.25 393.8 269.81 393.82 268.66 396.7 267.35 397.61 266.15 399.54 265.54 398.99 262.91 400.79 262.43 400.71 260.83 400.78 260.08 398.92 260.39 397.38 259.66 395.39 260.18 394.26 261.92 394.33"/></g></g>
	<g id="INDOEUROPEAS">
		<path id="FILIPINAS" onmouseover="displayName('FILIPINAS');displaySecondLanguage('Inglés')" class="indoeuropeas" d="M209.33,228.59l.42,2.64.25,2.23-1.31,3.66-1.48-4-1.84,2,1.28,2.92-1.12,1.87-4.68-2.28-1.12-2.87,1.19-1.9L198.41,231l-1.24,1.65-1.87-.15-2.93,2.21-.65-1.16,1.56-3.36,2.49-1.11,2.15-1.5,1.4,1.8,3-1.1.63-1.78,2.78-.13-.25-3.08,3.2,1.86.34,2Zm-9.47-7.36-1.41,1.32-1.23,2.52L196,226.25l-2.42-2.76.81-1.07,1-1.12.42-2.47,2.16-.24-.62,2.69,2.88-3.86Zm-21.56,3.72L173,228.63l2-2.75,2.86-2.41,2.39-2.73,2.1-3.94.65,3.27-2.61,2.16Zm13.34-10.16L194,216h2.49l-.07,1.66-1.82,1.7-2.49,1.19-.14-1.86.29-2Zm14.12-1.12,1.14,4.45-3-1,.08,1.34,1,2.45-1.86.91L202.9,219l-1.19-.2-.62-2.41,2.3.31-.07-1.51-2.39-3,3.73.07Zm-15.49-3.59-1.06,3.45-1.66-2-2-3.05,3.32.17Zm-.63-21.63,2.32,1.14,1.16-1,.35,1-.63,1.65,1.29,2.85-1,3.3-2.27,1.31-.62,3.21.84,3.17,2,.45,1.71-.47,4.84,2.2-.37,2.17,1.28,1-.4,1.84-3-2-1.44-2.09-1,1.46-2.47-2.4-3.54.58-1.92-.9.21-1.65,1.22-1-1.14-.93-.51,1.43-1.88-2.31-.54-1.74-.1-3.81,1.53,1.33.48-6.22,1.28-3.59Z"/>
		<path id="VIETNAM" onmouseover="displayName('VIETNAM');displaySecondLanguage('Inglés')" class="indoeuropeas" d="M141.09,175,136,178.06l-3.36,3.54-1.06,2.68,2.38,4.34,3,5.38,3.17,2.64,2.05,3.31,1.28,7.46-.86,7-3.3,2.46-4.46,2.33-3.25,3.14-4.86,3.41-1.24-2.64,1.19-2.63L124,218l3.31-1.39,4,0-1.51-2.52,6.48-2.69.74-4.75-.69-2.7.94-3.94-.73-2.86-2.57-2.92-2-3.64-2.57-4.86-4-2.66,1.18-1.35,2.4-.88-1-3.52-4.34-.33-1.13-3.68L120.8,170l2-.81,2.75.22,3.45-.21,3.23-1.88,1.51,1.57,3.14.91-.81,2.22,1.52,1.69Z"/>
		<path id="BRUNEI" onmouseover="displayName('BRUNEI');displaySecondLanguage('Inglés')" class="indoeuropeas" d="M161.14,243.59l1.58-1.43,3.37-2.08-.21,2-.25,2.53-1.89-.18-.84,1.32Z"/>
		<path id="TIMOR_ORIENTAL" onmouseover="displayName('TIMOR ORIENTAL');displaySecondLanguage('Mambai')" data-name="TIMOR ORIENTAL" class="indoeuropeas" d="M203.77,296l.46-.89,3.4-.87,2.75-.16,1.24-.49,1.48.45-1.46,1-4.11,1.69-3.31,1.1-.06-1.13Z"/>
		<path id="Camboya" onmouseover="displayName('CAMBOYA');displaySecondLanguage('Inglés')" class="indoeuropeas" d="M118,210.79l-.49-4.88,2.61-3.13,4.78-.42,3.41.8,2.93,1.75,1.88-2.64,3.19,1.66.69,2.7-.74,4.75-6.48,2.69,1.51,2.52-4,0L124,218l-3.08-.8L119.57,215Z"/><path id="SALOMON" class="indoeuropeas" d="M337.86,291.65l.69,1.14-2.12.33-.89-2.11,1.72.61ZM334.24,290l-1.22.27-1.88-.08-.6-.48.35-1.51,2,.27.94.63Zm2.67-1.43-.54.77-1.95-2.89L334,284.3l1.06-.17.82,2.84Zm-5.13-3.86.07.74-2.34-1.23-1.64-1.09-1.1-1.09.51-.46,1.41.69,2.47,1.35Zm-7.18-2.65-.67.31-1.36-.67-1.24-1.38.21-.66,1.85,1.34Z"/>
		<path id="COREA_DEL_SUR" onmouseover="displayName('COREA DEL SUR');displaySecondLanguage('Inglés')" data-name="COREA DEL SUR" class="indoeuropeas" d="M212.62,111.86l3,4.16.95,2.32.34,4.18-1.08,2-2.91.77-2.53,1.57-2.94.36-.44-2,.49-2.75-1.56-3.77,2.34-.64L206,115l.18-.33,1.41.11,1.14-1.63,2.21-.21,1.31-.26Z"/>
		<path id="INDONESIA" onmouseover="displayName('INDONESIA');displaySecondLanguage('Inglés')" class="indoeuropeas" d="M187,301l-1.65.06-5.23-2.66,3.66-.68,2.08,1.15,1.38,1.14Zm16.75-5,.39.73.06,1.13-2.58,2.79-3.37.83-.47-.44.36-1.26,1.69-2.27Zm-27.9-3.13,1.43,1,2.44-.27,1,1.61-4.54.68-2.72.45-2.1-.07,1.31-2.13h2.16Zm19.75.17-.58,2.08-5.92,1-5.25-.5v-1.37l3.12-.75,2.48,1.14,2.63-.27Zm-56-6.4,7.41.73.81-1.52,7.25,2.11,1.48,2.5,5.88.88,4.85,2.37L162.84,295l-4.33-1.65-3.51,0-4-.43-3.64-.83-4.51-1.65L140,289.9l-1.58.39-7-1.95-.72-1.66-3.49-.5,2.48-3.46,4.63.5,3.13,1.66,1.6.37Zm102.63-1.68-2.06,2.67-.31-2.84.72-1.4.84-1.32.86,1.08Zm-29.29-9.7-1.49,1.3-2.75-.67-.77-1.65,4-.23Zm12.78-1.68,1.41,2.91L223.8,275l-3.3-.24-2.24.3-2.74-.08.94-2.14,4.91-.26Zm40.91-3.79-.23,12.52-.47,12.29-3.19-2.86-3.81-.52-1,1.13-4.83.39,1.74-3.15,2.44-1.18-.85-4.06-1.76-3.09-7.4-2.86-3.2-.17-5.81-3.31-1.18,1.91-1.51.4-.87-1.38v-1.67l-3-1.8,4.24-1.54,2.8,0-.32-1-5.76.2-1.55-2.26-3.52-.61-1.66-1.88,5.32-1.1,2-1.34,6.3,1.37.62,1.42,1.06,6.23,4,2.14,3.29-4.25,4.47-2.56,3.43-.19,3.28,1.17,2.82,1.21Zm-61.67-13.43-3.2,3.91-3,.77-3.84-.76-6.65.17-3.49.54-.56,3,3.56,3.49,2.15-1.75,7.44-1.31-.32,1.79-1.74-.56-1.74,2.27L190,269.35l3.78,5-.72,1.32,3.57,4.44,0,2.51-2.12,1.13L193,282.37l1.92-3.13L191,280.71l-1-1.06.51-1.48-2.87-2.27.29-3.76-2.67,1.15.36,4.49.18,5.48-2.51.53-1.71-1.14,1.11-3.51-.63-3.72-1.68,0-1.24-2.66,1.64-2.51.57-3.07,2-5.86.83-1.61,3.4-2.88,3.12,1.18,5,.56,4.58-.17,3.95-2.88Zm13.73.94-.21,3.43-2-.35-.6,2.39,1.63,2-1.12.49-1.6-2.44-1.18-5,.8-3.15,1.31-1.46.29,2.15,2.35.3Zm-75.41-4.45.64,2.66,2.65,2.34,2.52-.69,2.49.39,2.29-1.89,1.88-.28,3.72,1.23,3.21-.74,2.06-5.42,1.53-1.33,1.4-4.46,4.54.11,3.43.73L173.37,249l2.9,3.79-.69,1.8,4.46,3.71-4.71.39L174,261.34l.17,3.54-3.81,2.58-.08,3.86-1.49,5.87-.6-1.38-4.48,1.61-1.58-2.4-2.81-.31-2-1.3-4.64,1.21-1.44-1.93-2.56.11-3.22-.59-.65-5.22-1.94-1.17L141,262.39l-.53-3.45.46-3.61ZM128.77,282.5l-4.19-.19-3.27-3.41-4.89-3.49L114.75,273l-2.88-3.37L110,266.54l-2.87-5.68-3.23-3.54-1.05-3.46-1.32-3.18-3.22-2.79-1.8-3.56-2.63-2.48-3.55-4.74-.22-2,2.26.4,5.49,1.32,3.06,4.18,2.74,2.93,2,1.82,3.41,4.53,3.77.37,3.1,2.93L118,257l2.86,2-1.5,3.09,2.16,1.51,1.36.19.66,2.76,1.35,2.25,2.8.52,1.89,2.57-.87,4.73Z"/>
		<path id="LAOS" onmouseover="displayName('LAOS');displaySecondLanguage('Francés')" class="indoeuropeas" d="M128.29,203.16l1.33-1.72.42-3.35-2.65-3.65.12-3.93-2.42-3.4-2.68-.47-.87,1.33-2.1,0-1-.78-4,2.06.34-3.55,1.36-4.08-2.34-.38.11-2.38-1.33-1.34.93-1.38,3.3-2.3.19.94,1.83.26.09-4.52,1.87-.43,1.61,3.23,1.13,3.68,4.34.33,1,3.52-2.4.88L125.3,183l4,2.66,2.57,4.86,2,3.64,2.57,2.92.73,2.86-.94,3.94-3.19-1.66-1.88,2.64Z"/>
		<g id="MALASIA" onmouseover="displayName('MALASIA');displaySecondLanguage('Inglés')" class="indoeuropeas">
			<polygon id="TRAZADO-2" data-name="TRAZADO"  points="115.02 234.4 115.86 234.83 117.97 237.39 119.45 240.16 119.6 242.84 119.17 244.61 119.5 245.99 119.73 248.34 121.04 249.52 122.48 253.1 122.4 254.43 119.73 254.5 116.2 251.33 111.84 247.87 111.45 245.82 109.37 243 108.96 239.69 107.71 237.41 108.22 234.56 107.49 232.81 108.15 232.16 111.08 234.14 111.29 236.21 113.74 235.93 115.02 234.4"/>
			<polygon class="indoeuropeas" points="175.65 245.49 172.21 244.75 167.67 244.65 166.27 249.11 164.74 250.44 162.67 255.86 159.46 256.6 155.74 255.36 153.86 255.64 151.56 257.54 149.07 257.15 146.55 257.83 143.9 255.5 143.26 252.84 146.11 254.32 149.12 253.72 149.93 250.41 151.61 249.74 156.32 249.06 159.17 246.03 161.14 243.59 162.9 245.7 163.74 244.38 165.62 244.56 165.88 242.03 166.09 240.08 169.16 237.4 171.18 234.34 172.77 234.36 174.78 236.41 174.95 238.14 177.55 239.29 180.84 240.53 180.54 242.09 177.88 242.25 178.58 244.19 175.65 245.49"/>
			</g>
		<g id="PAPUA_NUEVA_GUINEA" onmouseover="displayName('PAPÚA NUEVA GUINEA');displaySecondLanguage('Inglés')" class="indoeuropeas" data-name="PAPUA NUEVA GUINEA"><polygon id="TRAZADO-3" data-name="TRAZADO"  points="265.91 294.58 266.38 282.29 266.61 269.78 273.11 271.98 279.94 273.66 282.44 275.42 284.41 277.18 284.9 279.38 290.84 281.19 291.62 283.13 288.27 283.85 288.95 286.3 292.01 288.48 294.05 292.24 296.08 291.91 295.82 293.58 298.49 293.94 297.37 294.75 300.94 295.93 300.47 297.04 298.14 297.54 297.36 296.67 294.38 296.56 290.84 296.35 288.24 294.23 286.33 292.36 284.65 289.24 279.98 287.99 276.81 289.31 274.48 290.72 274.79 293.45 271.81 294.96 269.77 294.48 265.91 294.58"/><polygon class="indoeuropeas" points="310.48 273.09 309.36 274.25 308.8 272.05 308.04 270.65 306.51 269.57 304.56 268.15 302.06 267.28 303.06 266.24 304.93 267.12 306.09 267.84 307.53 268.6 308.87 270.06 310.15 271.14 310.48 273.09"/><polygon points="306.31 277.3 304.47 277.82 303.86 278.95 301.9 280.09 300.05 281.17 298.17 281.36 295.31 280.55 293.32 279.68 293.67 278.47 296.85 278.71 298.81 278.22 299.42 276.33 299.93 276.18 300.19 278.18 302.2 277.67 303.25 276.26 305.26 274.67 304.97 272.45 307.06 272.14 307.73 272.69 307.58 274.83 306.31 277.3"/><polygon points="319.27 280.8 318.31 281.31 316.96 280.03 315.63 277.8 315.06 274.97 315.54 274.55 315.85 275.64 316.83 276.38 318.32 278.59 319.81 279.68 319.27 280.8"/>
		</g>
		
		<path id="NUEVA_CALEDONIA" onmouseover="displayName('NUEVA CALEDONIA');displaySecondLanguage('Kazajo')" data-name="NUEVA CALEDONIA" class="indoeuropeas" d="M340.9,327.83l1.6,1.7.91,1.3-1.26,1-1.2-.63L339.47,330l-1.25-1.49L337,326.47l-.08-1.1,1.19-.17,1.25.89.89.95Z"/>
		<path id="NEPAL" onmouseover="displayName('NEPAL');displaySecondLanguage('Maithili')" class="indoeuropeas" d="M80.3,144.48l-.68,1.59-.28,2.46L78.6,150l-2.44-.28-3.21-1.41-2.09-.69-1-2.18-3.63-1.11-2.84-2.71-1.88-2.28-2-1.87,2.23-3.27,2.23-1.37,1.39-.69,1.68,1.5,1.84,2.87,1.34.79.33,1.93,1.9,1.08,1.75,2,2.94,1.34Z"/>
		<path id="ÍNDIA" onmouseover="displayName('INDIA');displaySecondLanguage('Bengalí')" class="indoeuropeas" d="M63.83,112.14l.62,4.65L63,119.65l.18,2-.84,1.83-1.54-.83-1,4.13,1.52,2.78,2.56,3.22-2.23,1.37-2.23,3.27,2,1.87,1.88,2.28,2.84,2.71,3.63,1.11,1,2.18,2.09.69,3.21,1.41,2.44.28.74-1.45.28-2.46.68-1.59,2-.54-.58,3-.14.76,2.31,1.8,2-.35,2.48.58,2.52.2.79-2.31-.93-1.36,2.56-.18,3.47-2.48,4.13-2,2.36,1.21,2.58-1.36.92,2.49-1.42,1.48,3.28.91-.08,1.46-1.26.58-.23,2.37-2.14-.92L100.3,152l-.38,2.2-2.43,3-.55,1.86-2.07,3L92.56,161l-.94,4-1,1.23,0,1.69-1.76.74-.43-6.35-.86-.09-1,2.41-1.28-2.22,1.44-2.07,1.44-.06,2.16-3.08-1.64-.87-2.86-.3L83,155.1l.39-2.69L82,152l-1.93-2L78.4,152.5,80,154.82,77.81,156l-1,1.3,1.59,1.28-1.06,2.25.38,3-.23,3.25-.73,1.36-2.07-.34-3.92.27-.46,2.95-2.1,2.07-4.86,2-4.26,4.06-2.7,2.1L53,183.6l-.36,1.8-1.62.71-2.85.94-1.36,0-1.41,2.83-.29,5.23-.37,3.3L43,201.89l-.91,6.71-1.5-.09-1.65,2.76.71,1.47-2.7.61-1.22,2.5-1.24.9-2.21-4.23-.57-5.8-.48-4.2-.65-2.07-.79-4.09.22-5.06,0-2.55-1.21-5.91.69-7.79.52-5.13,1.27-4.67.56-3.7L27.74,163l-1.48-.88-1.49-5.41,1.49-1.08L26.1,154,24.66,150,27,147.93l4.82,1.31.68-3.34-.55-2.22.84-2.94-.76-2,3.9-3.24,2.43.94,3.87-3.29,2.93-3.37,3.73-3.14L49.91,124l2.83-1.65-1-2.18.35-2.59.7-3.28,1.8-1.27,2.92,1.61h2.77Z"/>
		<path id="FIYI" onmouseover="displayName('FIYI');displaySecondLanguage('Fijian')" class="indoeuropeas" d="M375.57,307.4l.46.82-.88,2-1.48.88-1.08-.09.22-1.51L374,308l.87.16Zm4.67-5.65.47-.3-.71,1.83-.22.25-1.57,1.3L376.65,306l.08-1.26,1.27-1.06.73-.41Z"/>
		<path id="BANGLADESH" onmouseover="displayName('BANGLADESH');displaySecondLanguage('Chittagonian')" class="indoeuropeas" d="M88.89,168.63l-.6,2.78-1-.73-.38,3.17-.53-2.15.2-2-.24-1.94-.85-2.42-2.84-.52-.06,1.63-1.43,2-1.16-1-.61.65-.78-.54-1.12-.51.23-3.25-.38-3,1.06-2.25-1.59-1.28,1-1.3L80,154.82,78.4,152.5l1.72-2.43L82,152l1.39.38L83,155.1l2.78.9,2.86.3,1.64.87-2.16,3.08-1.44.06-1.44,2.07,1.28,2.22,1-2.41.86.09Z"/>
	</g>
	<g id="CRIOLLAS">
		<path id="VANATU" onmouseover="displayName('VANUATU');displaySecondLanguage('Bislama')" class="criollas" d="M350.63,310.53l-1,.65-.57-1.39.31-1Zm-.86-5.12-.15,2.83-.65-.3-.62.31-.19-.92.49-2.76Z"/></g>
	<g id="AFROASIÁTICA">
		
		<path id="TAIWÁN" onmouseover="displayName('TAIWÁN');displaySecondLanguage('Taiwanés')" class="afroasiaticas" d="M191.53,165.28l-2.26,6.26-1.62,3.2-1.88-3.33-.37-2.91,2.21-3.81,2.95-2.92,1.64,1.17Z"/>
		<path id="MYANMAR" onmouseover="displayName('MYANMAR');displaySecondLanguage('Shan')" class="afroasiaticas" d="M102.73,218.53l-.13-3,1.35-2.95-1-2.47.69-4.3-1.24-2.2-.64-4.86-.05-5.06-1.1-3.42-2.52,1.76-4.23,2.42L92,193.92l-2-1.16L91.86,188l-.15-3.77-1.88-4.82.64-1.37-1.83-.72-1.73-3.46.38-3.17,1,.73.6-2.78,1.76-.74,0-1.69,1-1.23.94-4,2.31,1.16,2.07-3,.55-1.86,2.43-3,.38-2.2,4.66-2.2,2.14.92.23-2.37,1.26-.58.08-1.46,1.91-.1.61,2.34,1.22,1-.48,2.93-.73,3.15-3.7,2.92-1.23,4.55,3.61-.32.19,3.64,2,.95-1.49,3.15,2.3,1.69,1.39.85,2.67-.93-.11,1.63-3.3,2.3-.93,1.38-2.1.74-2.24,1.52-2.44,0-2.16,4.11-1.54.57,1.19,3.62,1.85,3.09,1.11,2.74-1.66,3.33-1.29.62.62,2.07,2,3.37.2,2.25-.22,1.85,1.08,3.75-2.26,3.54Z"/></g >
		<g id="TURQUICA">
		<path id="MONGOLIA" onmouseover="displayName('MONGOLIA');displaySecondLanguage('Turco')" class="turquicas" d="M109.8,70.44l2.54-.21,5.55-2.07,4.05-1,1.43,1.15,2.28.31.82,1.59,2.22.35,3,1.11,3.16-1.92-.17-1.88,3.69-2.9,2,1.46,1.94.53,2.44,1-.37,2.33,3,1.55,2.48-.42,3.19-.2,2.34.56,2,1.63,1.12,1.69,2.35.09,3.09.66,2.5-.68,3.45-.4,4.07-2.08,1.46.38,1.2,1.09,3.08-.19-1.51,2.35L176,79.42l.53,1.34,1.55-.37,2.58.56,2.15-1.15,2.07,1.06,2.31,2.3-.35,1.15-2.13-.4-4,.37-2,.89-2.24,2.13-4.37,1.17-3,1.68-2.77-.78L164.77,89,163,91.1l.69,1.33.28,1.13-2.16,1.05-2.36,1.73-3.55,1-4.3-.1-4.83.92L143,99.83l-1-1.15-3.4-.23L135,96.07l-2.55-.72-3.75.16-5.27-1.27L120.54,94l-.8-2.15V88.71l-1.41-.53-2.16-2.38L113.09,85l-2.6-.91-.2-1.51L113,78.91l-.32-2.75-2.58-1.6-.94-1.9Z"/></g>
		<g id="COREANA">
			<path id="JAPÓN" onmouseover="displayName('JAPÓN');displaySecondLanguage('Coreano')" class="coreanas" d="M234.15,127.41l.56,1.24L233.15,131l-1.48-1.14-1.59.93-.64,2.2-2.26-1-.15-1.76,1.59-2.27,1.9.36,1.16-1.6Zm18.07-11.95-.56,2.95.89,1.77-1.12,2.66-3.7,2-5.53.54-4,4.42-2.36-1.32-.49-2.75-5.51,1-3.68,1.87-3.83.19,3.58,2.62-1.68,6.41-2.06,1.64-1.75-1.42.59-3.4-2.2-1-1.53-2.52,3-1.22,1.53-2.37,3.11-2,2.1-2.58,6.22-1.32,3.49.59,2.31-6.58,2.34,1.61,3.87-3.83,1.45-1.49,1-4.43-1.34-3.9.73-2.26,2.88-.83,2.73,4.69.58,2.85-1.93,3.74Zm2.26-24.94,2.09.56L258,89.52l1.78,3.7-3.73,1.25L254.58,98l-5-2L249,99.85l-3.14.26-1.17-3.38.77-2.69,2.9-.38L247.91,89l.08-2.63,4.11,3.22Z"/></g>
		<g id="DRAVIDIANA">
			<path id="SRI_LANKA" onmouseover="displayName('SRI LANKA');displaySecondLanguage('Tamil')" data-name="SRI LANKA" class="dravidianas" d="M46.52,220.84l-.78,4-1.32.9-2.63.43-1.14-3.4V217l2-6.17,1.76,2.57,1.07,3Z"/>
		</g><path class="cls-11" d="M25.63,93.32l1.46-.11,2.14-1.45.75.49,1-.36.7.72L32,94.93l.86.82-.25,3.62,1,.55L32,102.82l.83,1.89,1.48,0,1.25-1.43,1.6-.07,1.56-.72,2-2.6,1.83-.2,1-1.11.27,1.16.47.27,1,.32.94,1.12.32.58,2-.71.25.83,1.5-1.39,1.09.38.58-.42,1-1.32,1.51-1,.6,1-.8,1,.5.31-1.78,2.82.18,1.33,1.09-.55,1.08-.12,2.1-1.23,1.29.59,2.16.5-.13,1.07-1.44.11-1.4.39-2.6-.17-2.57.18-2,1.2-.3,1.59-.67,1.79L48,111.47l-.59,1.37L46.18,114l-1.87-.62-.37,2.54-1.73.55-1.9,1.9-.92,2.17-1.26.79-.58-.54-1.72,0-.7.94-1.43-.43-2,1.71-1.5,3-3.13.73-1.13-.73-.73.67-.85-.83-2-.07L20.43,123l3.1-2.68,1-2.33-.92-1.06,1.06-2.29,1-3L27.43,110l-.39-.77,1.86-2.35,3.15-4M6.77,133.5l-.28,1.37m-1,3-.73-.33L3.6,139.88l0,.64-.94.42-.61,1.51-1,1.33-.61,1.48-.58.65-3.16-4,1.08-4,.31-.88m6.71-22.46.51-2.2,1-1.86-.28-.22,1.6-2.38L8.82,105,9,102.32l1.53-3.66,1.88-2.44,1.14-.82,1.26-2L15,92l2.34-4.28,1.56-2.9.87-.86,2.62-3.8,1.13-.47m-.35,6.9h-.33l.74-2,1.48-1.36.48-1.1h-.48l-2.69,1.61m5.16-8.63.58-.35-.25,1.32.22.5.39-.28,1.05-1.94.53-.26.11.27L29.12,76.6l.16.47.78-.68,1.5-.89m45.92,91.61.23-3.25-.38-3,1.06-2.25-1.59-1.28,1-1.3L80,154.82,78.4,152.5l1.72-2.43L82,152l1.39.38L83,155.1l2.78.9,2.86.3,1.64.87-2.16,3.08-1.44.06-1.44,2.07,1.28,2.22,1-2.41.86.09.43,6.35-.6,2.78-1-.73-.38,3.17M26.41,62.61l.59-.9-.5.28L25.2,63.42l.1-.27,1.21-1.43-.35.31.45-.53,1.77-1.91,1.11-1.2.28-.29.38-.4.76-.78.64-.64L33,54.81l1-1,.49-.47-1.26,1.28v0l-.78.87-.74,1,.52-.41.27,0-1.2,1.42-.42.63M166.09,240.08l-.21,2-.25,2.53-1.89-.18-.84,1.32-1.76-2.11m-20-68.62-3.5-1.22-1.52-1.69.81-2.22-3.14-.91-1.51-1.57L129,169.25l-3.45.21-2.75-.22-2,.81-1.87.43-.09,4.52-1.83-.26-.19-.94.11-1.63-2.67.93-1.39-.85-2.3-1.69,1.49-3.15-2-.95-.19-3.64-3.61.32,1.23-4.55,3.7-2.92.73-3.15.48-2.93-1.22-1-.61-2.34-1.91.1-3.28-.91,1.42-1.48-.92-2.49-2.58,1.36-2.36-1.21-4.13,2-3.47,2.48-2.56.18.93,1.36-.79,2.31-2.52-.2-2.48-.58-2,.35-2.31-1.8.14-.76,2.71-2.55,1.85-.74,1.88,1.15,1.56.29,1.06,1.17M322.16,24.83l-1.88-1.24-2-1.26-1-.53L314.21,20l-2-1.1-1.06-.47L310,18l-1.52-.74,1.49,1,2.23,1.45-1.93-.88L309,18.27l-.7-.12.12.34L288.27,8.86,274.63,3.69M60.83,104.09l.71-2,.79-1.31L61.5,99.7l-.86.18,1.25-3.24,1-.63.17-.85L65.91,94l1.78-.33,1.94.92,2-2,2.93.17,1.5-1.17,4.39-1.13.72-.69.87-1.9,2-.58,1.35-6,4.91-.52,1.51-.52L96.6,75l3.59,1.71,2-1.23,1.9-3.09,1.92,0,2.8-1.8,1-.13-.64,2.22.94,1.9,2.58,1.6.32,2.75-2.69,3.62.2,1.51,2.6.91,3.09.84,2.16,2.38,1.41.53v3.19l.8,2.15,2.93.21,5.27,1.27,3.75-.16,2.55.72,3.53,2.38,3.4.23,1,1.15,3.74-1.63,4.83-.92,4.3.1,3.55-1,2.36-1.73,2.16-1.05-.28-1.13L163,91.1,164.77,89l1.51.36,2.77.78,3-1.68,4.37-1.17,2.24-2.13,2-.89,4-.37,2.13.4.35-1.15-2.31-2.3-2.07-1.06-2.15,1.15L178,80.39l-1.55.37L176,79.42l2.23-3.14,1.51-2.35,3,1.25,3.77-1.93.06-1.37,2.45-3.25,1.42-1,0-1.68-1.29-.73,2-1.48,3-.53,3.16-.08,3.59.87L203,65.15l1.69,3,1,1.31,1,1.88,1.18,3,4.57.92,3.34,2.17,1.44,3,4-.12L223.38,79l4.13-1.12-.83,2.94-.81,1.23-.32,3.61L224.22,89l-3.46-.47-2.24,1.24,1.08,2.85.05,4-1.47.14.2,1.73-2.08-2-1,1.95L210.91,100l.6,1.82-2.59-.08-1.46-1.07-1.94,2.49-3.26,1.9-2.44,2.27M81.72,146.94l.58-3-2,.54-3.25-.85-2.94-1.34-1.75-2-1.9-1.08-.33-1.93-1.34-.79L67,133.62l-1.68-1.5-1.39.69-2.56-3.22L59.8,126.8l1-4.13,1.54.83.84-1.83-.18-2,1.5-2.87-.62-4.65-3-2.2.67-2.81-.77-2M8.54,87.51l.07-.18-.18.12,0-.17-.09.09L8.61,87l.14-.24,0-.16-.2.09.12-.29M-24.89,179l-.66,1.78V180l-.21.09-.33-.5.23-1.19.17-1.13.58-1.53.59-1.43.21.67.41-.71m8.07-39.7-.5-3,.5-2.91.26-.7M4.24,94.68l0,.23.4-.52.07.14L3.86,95.9l-.35.41v0l-.71.93L3,96.57,1.6,98.64l-.21.55-.32.28-.56.85.34-.13-.8,1.32-3.28,5.07m-21.31,67.68.07-1.51.28-2.56,0-1.58.19-1.52,0-2.21-.3-.58.11-1-.47.43.24-2.19-.85,2.59-.11-1.71.38-1.6,1.68-5.22.78-2.42.45-.91.42-.05.86-1.74M80,20.5l-.62.4-1.83.83-3.21,2-1,.46.19-.36L75,22.69l.53-.43h-.33M-25.55,180.82-26,182l-.14,2.42-.07,2.15,0,1.69,2.08,7.18.83.63-3.92,9.5-1-.86-.85,2-.43-.44-.26,1-.41-.55-.13-1.65-.58.9-.24,1.39-.27-.84-.06-.63-.1-.08-.11-.29-.16-4.34-.17-.56,0-1.56.2-2.19,0-1.07.37-4.71.06-1.27.18-1.7.22-2.29,0-.78.32-1.93,0,.33.19-1.06m.57-3.48.76-3.8.26-.7.33-1.49.68-2.59.53-1.42,1-3.44.87-3.14M103.89,7.89l1.5-.68L111,5.05l2.89-1.35,2.17-1,.79-.16-2.24,1-.14.31-1.13.63,1.45-.3,2.63-.8h1l-1.63.86L114.25,5l-2.58.91-2.61,1.4-2.69.82-4.26,2.11-3,1.14L96.3,12.94l-2.3,1-2.54,1.73-1.79.77-2,.69-4.18,1.51m-52.64,47,.37-.27-.15,1,.21,1.33-.58,2.21-.4.65.76-.11,0,1.17L30.25,73l-.18,1.07m-3.75.66,1.22.36L27,76l-.2.76-.77.65-.51,1.38-1,.82-.39,1.11-.09.78-1.68,2.2-.33-.13,1.13-2.07.38-.48-.31-.26.48-1-.2,0L24,78.57l.19-1.23,1.29-1.43.81-1.18.76-2.06-.63-.5M26.32,61.8l-.06.07.36-.39v0m-.1.51-.87,1.05-1.53,1.61-.21.18M47.5,41.27l0,0-.25.22.08-.06.55-.46v0l-1.46,1.31.19-.14-1.07,1-.81.71-.31.2-1.71,1.47-1.59,1.41,0,0M203.77,296l.39.73.06,1.13m62.39-28.08-.23,12.52-.47,12.29M143.26,252.84l.64,2.66,2.65,2.34,2.52-.69,2.49.39,2.29-1.89,1.88-.28,3.72,1.23,3.21-.74,2.06-5.42,1.53-1.33,1.4-4.46,4.54.11,3.43.73M63.88,132.8l-2.23,1.37-2.23,3.27,2,1.87,1.88,2.28,2.84,2.71,3.63,1.11,1,2.18,2.09.69,3.21,1.41,2.44.28.74-1.45.28-2.46.68-1.59m28.37,1.86-.08,1.46-1.26.58-.23,2.37-2.14-.92L100.3,152l-.38,2.2-2.43,3-.55,1.86-2.07,3L92.56,161l-.94,4-1,1.23,0,1.69-1.76.74M24.66,150,27,147.93l4.82,1.31.68-3.34-.55-2.22.84-2.94-.76-2,3.9-3.24,2.43.94,3.87-3.29,2.93-3.37,3.73-3.14L49.91,124l2.83-1.65-1-2.18.35-2.59.7-3.28,1.8-1.27,2.92,1.61h2.77l3.58-2.51M20.43,123l-.1,2.19L20,127.58l.92,2.19L19.51,133l.59.89-.57,1.74-3.35,1-2.41,4M4.39,114,4,113.27,1.5,116.12.23,114.56l2.22-8.89.72-3.39.08-1.73,2.47-4.33,3.19-2,2.92-3.7,1.65-2.42.84-.44L16.07,86l.6-.23L17,87l-.38,1,.7-.24M3.5,96.35l-.63,2.07,2.85-2.21m-2.47,4.33-.39.38-1.65.31-1.78,4.07-.44.35-.72,1-.47-.06-.76,1.06-.69.75.13-1.33m4.37-6.91.64-.88,1.3-2m78.36-7.43-1.06-.73-.4-1.38-2.89-1L73.5,86l-.93.2-1.93-2-1.51.41-1.51,1.84-2.37-1.86-1.5.15L62.4,86,61,86.35,57.13,88l-2.29,2.12-.67-.16.54-1.68-2.09-.74,1.47-2.75-.78-.27,2.39-3.16-.18-2.89-2.74-.62-2-.15.88-3.27-.14-1.57-.14-3v-.36l-4.5.43L37.62,81.28l-.71-.13L38,78.3l0-1.24h-1.7L35,77.84M44.24,62.2l.06-.74,1.52-1.4,1.44-2.21-.59-.32,1.41-2.32,2.57-1.76.42-.7,3.75-2.53-1,2.06L56,50.4l4.73-1.86,1.31.68L62,52.11l0,1.66,2.26-.65,1.72.68,0,2L67,55.12l1.54.75,1.59-1.19,0-2.59,2.45-.89.55-.81L75,50.11,76.13,48l1.48-.7,5.39.62,1.29-.45H88.5l2.3-.75,1.9,1.23-2.21,2.88,2.14-.27,1.07,1.39-1.46,1.46,1.63.19,6.22-1.71-1.32.73.32,2.58-1.63,8,2.09-1.35L100.94,64l3.27-.28.72.71-.17,1.87,1,.81.08,1.41h2.91l0,2M-30.88,238.8l-.84-5.05-.16-2.32-1-10.89,0-.56,0-4.16,0-1.35.09-2.19.13-2.56.14-4.84.1-2.05.15-3.09.25-1.83.33-2m2,11.47-.78,3.73-.24,14.25.42,3.7M61.88,96.64l-4-.41-1.71-1.69L54,94.26l1.35-1.86L57,93.49l1.31-.84,1.25.69,3.91-1.77-1.2-2.29-1.85.48-.57-1.58,2.9-1.7L62.4,86M118,210.79l-.49-4.88,2.61-3.13,4.78-.42,3.41.8,2.93,1.75,1.88-2.64,3.19,1.66.69,2.7-.74,4.75-6.48,2.69,1.51,2.52-4,0L124,218m82-103,.18-.33,1.41.11,1.14-1.63,2.21-.21,1.31-.26.39-.87M2.11,119.32l-.69-.39.66-1.85-.58-1m126.79,87,1.33-1.72.42-3.35-2.65-3.65.12-3.93-2.42-3.4-2.68-.47-.87,1.33-2.1,0-1-.78-4,2.06.34-3.55,1.36-4.08-2.34-.38.11-2.38-1.33-1.34.93-1.38,3.3-2.3m4-3.75,1.61,3.23,1.13,3.68,4.34.33,1,3.52-2.4.88L125.3,183l4,2.66,2.57,4.86,2,3.64,2.57,2.92.73,2.86-.94,3.94M7.83,90.19l0,.47L6.95,92,6,92.91,4.75,94.54M62.85,30l-.38.47.86-.32L65.08,29l.82-.31,1.49-1,.41-.08,1-.33-1,1-.84.6.32,0-.88,1-1.55,1.08-.87.5-2.17,1.77-.61.61-.58.39-.59.73-.86.76-.69.32.15-.47-.28.12-1.08.9-2,1.64-.13-.29-.66.37-1.57,1.18.35-.44,0-.34L54,38l-.47.23.52-.53.23-.44,1-1.13.55-.69.2-.33-.64.36.07-.15,1.39-1L58.47,33l.4-.17,1.25-.9,1.31-1,1.42-1,1.07-.78.55-.47.85-.59.83-.53.7-.54,1-.84m2.81-1.84.5-.12-.85.88v.23l-.73.5-.37.37-1.85,1.46m6-3.52-.87.68-1.63,1-2,1.38M44.78,43.81l.42-.31-.6.61-.27.35-.9.87.33-.21,0,.15.61-.46-.13.23.37-.25.12.11-1.1,1.19-.19.32-.88.94-1,.84-.55.63L39.81,50l-.8.87-.42.36-.32.37-.18.05.18-.41.42-.42-.19.1-.53.52-.86.7-.94.82-.25.15,1.34-1.33,1.2-1.08,1.28-1.18,1.87-1.87,1.32-1.26,1-.93.37-.41M29.63,58.23l-.15.16M112.6,177.48l-2.1.74-2.24,1.52-2.44,0-2.16,4.11-1.54.57,1.19,3.62,1.85,3.09,1.11,2.74-1.66,3.33-1.29.62.62,2.07,2,3.37.2,2.25-.22,1.85,1.08,3.75-2.26,3.54-2,3.92M109.8,70.44l2.54-.21,5.55-2.07,4.05-1,1.43,1.15,2.28.31.82,1.59,2.22.35,3,1.11,3.16-1.92-.17-1.88,3.69-2.9,2,1.46,1.94.53,2.44,1-.37,2.33,3,1.55,2.48-.42,3.19-.2,2.34.56,2,1.63,1.12,1.69,2.35.09,3.09.66,2.5-.68,3.45-.4,4.07-2.08,1.46.38,1.2,1.09,3.08-.19M-28.25,261.85l.46,2,0-.28.18.45-.12-.86.23.54.15-.62,0-1.59m134.92-28.66.66-.66,2.93,2,.21,2.06,2.45-.28,1.28-1.53M115.9,5.08l-1.38.05L114.25,5M116,2.7l0-.13-2.34.78L115,2.61l-1.89.62.4-.29-2.23.71-3.42,1.16-4,1.46-1.37.61-1.15.46L102,7,99.23,8.16,94.8,10.24l-2.09,1L89.1,13.12l-.58.31M-10,166.66l.34-2.91,1-6.83,5.21-1.63,3.59-7.06.35-3M66.23,27.1l-1,.81-.78.82m-9,6.56-2.88,2.3-.82.62-.15,0-2.1,1.54L48.11,41l.28-.26L50,39.31l0,0,.56-.49-.29.21,1.35-1.11-.14.11m167,60.47.47.59M-1.5,135.51l-.43.07,0-.94M35.92,53.09l-.62.75.37-.17-.57.72m-.62-1.1.58-.58.34-.32.47-.48-.45.42,1.12-1.11,1.18-1.14,1-1,1-.89.44-.41m.59,6.48L42,53.13l1-.47.5.33,1-.81,1.57-1.59,1.7-1.17.88-.77L49.21,47,49,46.76l1.3-1.52h-.63l.91-1.54.61-.48L52.54,42l.09-.53,1-.8.65-.37L56,38.58l-.32-.28.16-.27-.71.42.15-.29M-8.68,156.91l-3.77-.66-1.5,1-1.93,3.44-.63.28.15-1.45-.4-.1-.71-1.11,0-.52-.92-.79-.3.14,0-1.29-.76,1.65-.41,1.67-.65.87m-9.33,19.41v-.19l.34-1.91.23-1.41L-29,174l.55-2.86.6-2.73.06-.63-.19.8,0-.28-.25,1.31-.48,2.37-.38,1.67-.46,2.37v0m-2.76,23.71-.16,1.3v-.57l0,.16m12.74-16.9,0,.06-.31,1.59-.7,3.92-.34,2-.86,2-1.19,2.72M48.39,40.74l-.64.49-1.09.89M10.56,86.51l.56-.52.57-.53L13,83.72l-.39.83.95-.17-.28.94.29.53,1.35-.46.2.4.92.23m30.12,15.4,3-3.13,1.12-2.61-.81-1.17,1.37-1.33,1.38.58,2-1.59,1.92-2,2.92-.11-1.34,1.42-.31,1,.82.11M37.62,81.28l1.39.59,1-1.67,1.89-.61,2.47-1.35.48,2.37-1.75,2.58,0,.86,1.64.43.06.76-1.6,3.59.23,2.87,0,1.9.68,2.19,1.38,2.15-1.29,2M-33,219.48l0,.51m55-136.39-.15-.84L22.7,81l.84-1.27M.18,100.31l-3.4,6.27"/>
		<g id="LETRAS"><rect id="Degradado" class="cls-12" x="172" y="-170" width="55" height="395" transform="translate(227 -172) rotate(90)"/><rect id="Degradado-2" data-name="Degradado" class="cls-13" x="192" y="193" width="15" height="395" transform="translate(-191 590) rotate(-90)"/><text class="cls-14" transform="translate(33.38 22.65)">El segundo idoma más hablado en Asia</text><text class="cls-15" transform="translate(40.93 36.95)">Haz clic en cada país para saber cuál es la segunda lengua más hablada</text><text class="cls-16" transform="translate(5.58 243.25)">Familias lingüísticas</text><text class="cls-17" transform="translate(6.34 257.25)">INDOEUROPEAS</text><text class="cls-18" transform="translate(6.1 269.25)">SINOTIBETANAS</text><text class="cls-19" transform="translate(5.84 281.89)">TURQUICA</text><text class="cls-20" transform="translate(5.84 295.89)">AFROASIÁTICA</text><text class="cls-21" transform="translate(5.84 309.89)">COREANAS</text><text class="cls-22" transform="translate(4.84 323.89)">DRAVIDIANAS</text><text class="cls-23" transform="translate(3.84 336.89)">CRIOLLAS</text><text class="cls-16" transform="translate(4.27 393.25)">Fuente: Ethnologue y CIA Factbook</text><text class="cls-16" transform="translate(325.05 393.25)">LA VANGUARDIA</text><rect class="cls-24" x="260" y="149" width="137" height="32"/></g>
 	<text class="label" id="country-name" x="270" y="160"> </text> 
 	<text class="label2" id="SecondLanguage" x="270" y="175"> </text>

 	<script type="text/javascript"><![CDATA[  
    function colourCountry(country_name, colour) {
        var country = document.getElementById(country-name);
        country.setAttributeNS(null, 'fill', colour);
    }
  
    function displayName(name) {
        document.getElementById('country-name').firstChild.data = name;
    }

    function displaySecondLanguage(language2) {
        document.getElementById('SecondLanguage').firstChild.data = language2;
    }
]]></script>

	</svg>