<svg id="Capa_1" data-name="Capa 1" xmlns="http://www.w3.org/2000/svg" viewBox="0 0 627 626"><defs><style>@import url('https://fonts.googleapis.com/css?family=Open+Sans');
		.label {
        	font-family: OpenSans-Semibold, Open Sans;
        	font-size: 10px;
        	fill: #323232;
     	}.cls-1,.cls-2,.cls-31,.cls-33{isolation:isolate;}.cls-1,.cls-2,.cls-31,.cls-32,.cls-5{font-size:13px;}.cls-1,.cls-2,.cls-3,.cls-32{fill:#757575;}.cls-1,.cls-3,.cls-32,.cls-5{font-family:OpenSans, Open Sans;}.cls-2,.cls-33{font-family:OpenSans-Bold, Open Sans;}.cls-2,.cls-31,.cls-33,.cls-4{font-weight:700;}.cls-3,.cls-33{font-size:12px;}.cls-4{font-size:25px;}.cls-31,.cls-4{font-family:OpenSans-Semibold, Open Sans;}.cls-10,.cls-11,.cls-12,.cls-13,.cls-14,.cls-15,.cls-16,.cls-17,.cls-18,.cls-6,.cls-7,.cls-8,.cls-9{fill:none;}.cls-6{stroke:#2193b0;stroke-width:125.02px;}.cls-7{stroke:#37a3bf;stroke-width:50.03px;}.cls-8{stroke:#ba0f65;stroke-width:30.2px;}.cls-9{stroke:#54c1d3;stroke-width:25.23px;}.cls-10{stroke:#64c2d8;stroke-width:25.06px;}.cls-11{stroke:#6dd5ed;stroke-width:21.62px;}.cls-12{stroke:#8bdcea;stroke-width:15.96px;}.cls-13,.cls-14,.cls-15{stroke:#a6e2e8;}.cls-13{stroke-width:9.18px;}.cls-14{stroke-width:8.24px;}.cls-15{stroke-width:7.55px;}.cls-16{stroke:#c2edef;stroke-width:7.04px;}.cls-17{stroke:#d7f7f7;stroke-width:4.2px;}.cls-18{stroke:#e6fffe;stroke-width:34.75px;}.cls-19{fill:#2193b0;}.cls-20{fill:#a6e2e8;}.cls-21{fill:#c2edef;}.cls-22{opacity:0.4;}.cls-23{fill:#d7f7f7;}.cls-24{fill:#e6fffe;}.cls-25{fill:#37a3bf;}.cls-26,.cls-31{fill:#ba0f65;}.cls-27{fill:#54c1d3;}.cls-28{fill:#64c2d8;}.cls-29{fill:#6dd5ed;}.cls-30{fill:#8bdcea;}.cls-33{fill:#fff;}</style></defs><title>2018.10_Flujos</title><text class="cls-1" transform="translate(2 162.03)">España</text><text class="cls-2" transform="translate(17 178.03)">4 M</text><text class="cls-3" transform="translate(522 620.03)">LA VANGUARDIA</text><text class="cls-4" transform="translate(121.92 39.67)">¿Dónde exporta armas España?</text><text class="cls-5" transform="translate(86.59 58.55)">Coste de la transferencia según el valor indicador de tendencia del SIPRI</text><path class="cls-6" d="M58,214.51c245,0,245-65,490-65"/><path class="cls-7" d="M58,302c245,0,245-55,490-55"/><path class="cls-8" d="M58,342.15c245,0,245-45,490-45"/><path class="cls-9" d="M58,369.86c245,0,245-35,490-35"/><path class="cls-10" d="M58,395c245,0,245-25,490-25"/><path class="cls-11" d="M58,418.35c245,0,245-15,490-15"/><path class="cls-12" d="M58,437.14c245,0,245-5,490-5"/><path class="cls-13" d="M58,449.71c245,0,245,5,490,5"/><path class="cls-14" d="M58,458.42c245,0,245,15,490,15"/><path class="cls-15" d="M58,466.31c245,0,245,25,490,25"/><path class="cls-16" d="M58,473.6c245,0,245,35,490,35"/><path class="cls-16" d="M58,480.08c245,0,245,45,490,45"/><path class="cls-17" d="M58,485.15c245,0,245,55,490,55"/><path class="cls-18" d="M58,504.62c245,0,245,65,490,65"/><rect class="cls-19" x="49.06" y="152" width="5.13" height="370"/><rect class="cls-19" x="551" y="87" width="5" height="125.02"/><rect class="cls-20" x="551" y="487.54" width="5" height="7.55"/><rect class="cls-21" x="551" y="505.09" width="5" height="7.04"/><rect class="cls-21" x="551" y="522.12" width="5" height="5.92"/><g class="cls-22"><rect class="cls-23" x="551" y="538.04" width="5" height="4.2"/></g><g class="cls-22"><rect class="cls-24" x="551" y="552.25" width="5" height="34.75"/></g><rect class="cls-25" x="551" y="222.02" width="5" height="50.03"/><rect class="cls-26" x="551" y="282.05" width="5" height="30.2"/><rect class="cls-27" x="551" y="322.25" width="5" height="25.23"/><rect class="cls-28" x="551" y="357.48" width="5" height="25.06"/><rect class="cls-29" x="551" y="392.53" width="5" height="21.62"/><rect class="cls-30" x="551" y="424.16" width="5" height="15.96"/><rect class="cls-20" x="551" y="450.12" width="5" height="9.18"/><rect class="cls-20" x="551" y="469.3" width="5" height="8.24"/><text class="cls-1" transform="translate(561 97.03)">Australia</text><text class="cls-1" transform="translate(559 231.03)">Turquía</text><text class="cls-1" transform="translate(561 338.03)">EAU</text><text class="cls-1" transform="translate(561 372.03)">Malasia</text><text class="cls-1" transform="translate(562 408.03)">Egipto</text><text class="cls-1" transform="translate(562 436.03)">Omán</text><text class="cls-31" transform="translate(561 292.03)">Arabia <tspan x="0" y="15.6">Saudí</tspan></text><text class="cls-32" transform="translate(561 456.03)">Indonesia</text><text class="cls-32" transform="translate(561 495.03)">Ecuador</text><text class="cls-32" transform="translate(561 477.03)">Kazajastán</text><text class="cls-32" transform="translate(561 513.03)">México</text><text class="cls-32" transform="translate(561 530.03)">EE.UU</text><text class="cls-32" transform="translate(561 545.03)">Francia</text><text class="cls-32" transform="translate(561 575.03)">Otros</text><text class="cls-33" transform="translate(511 102.03)">1,4 M</text><text class="cls-33" transform="translate(502 235.03)">583.000</text><text class="cls-33" transform="translate(501 296.03)">352.000</text><text class="cls-33" transform="translate(500 339.03)">294.000</text><text class="cls-33" transform="translate(500 374.03)">252.000</text><text class="cls-33" transform="translate(500 409.03)">186.000</text><text class="cls-3" transform="translate(5 620.03)">Fuente: Sipri</text></svg>