<svg id="Capa_1" data-name="Capa 1" 
	xmlns="http://www.w3.org/2000/svg" 
	xmlns:xlink="http://www.w3.org/1999/xlink" 
	viewBox="0 0 371.5 371.5"><defs>
	<style>
		@import url('https://fonts.googleapis.com/css?family=Open+Sans');
		.label {
        	font-family: OpenSans-Semibold, Open Sans;
        	font-size: 10px;
        	fill: #323232;
     	}

     	.label2 {
        	font-family: OpenSans-Semibold, Open Sans;
        	font-size: 12px;
        	fill: #fff;
     	}
		.indoeuropeas {
			fill:#a3d8d5;
			stroke: white;
			stroke-width: 0.5;
			stroke-opacity: 0.5;
		}
		.indoeuropeas:hover {
			opacity:0.5;
		}
		.uralicas {
			fill:#f4d69a;
			stroke: white;
			stroke-width: 0.5;
			stroke-opacity: 0.5;
		}
		.uralicas:hover {
			opacity:0.5;
		}
		.turquicas {
			fill:#edad08;
			stroke: white;
			stroke-width: 0.5;
			stroke-opacity: 0.5;
		}
		.turquicas:hover {
			opacity:0.5;
		}
		.cls-1{opacity:0.57;}
		.cls-2,.cls-5{fill:none;stroke:#777;}
		.cls-2,.cls-4{opacity:0.5;}
		.cls-3{opacity:0.25;}
		.cls-5{stroke-width:0.5px;}
		.cls-14,.indoeuropeas{fill:#a3d8d5;}
		.cls-7{fill:#ddd;stroke:white;stroke-width:0.5;}
		.cls-16{fill:#edad08;}
		.cls-15{fill:#f4d69a;}
		.cls-10{fill:url(#Degradado_sin_nombre_2);}
		.cls-11{font-size:17px;fill:#323232;}
		.cls-11,.cls-14,.cls-15,.cls-16{font-family:OpenSans-Semibold, Open Sans;font-weight:700;}
		.cls-12{font-size:10px;}
		.cls-12,.cls-13{fill:#757575;font-family:OpenSans, Open Sans;}
		.cls-13{font-size:9px;}
		.cls-14,.cls-15,.cls-16{font-family:OpenSans-Semibold, Open Sans;font-size:10px;}
		.cls-17{fill:#c1c1c1;opacity:0.5;}
	</style>
	<linearGradient id="Degradado_sin_nombre_2" x1="339" y1="-26" x2="398" y2="-26" gradientTransform="translate(-180.5 52.5)" gradientUnits="userSpaceOnUse"><stop offset="0.16" stop-color="#fff"/><stop offset="0.37" stop-color="#fff" stop-opacity="0.99"/><stop offset="0.49" stop-color="#fff" stop-opacity="0.96"/><stop offset="0.58" stop-color="#fff" stop-opacity="0.91"/><stop offset="0.66" stop-color="#fff" stop-opacity="0.83"/><stop offset="0.73" stop-color="#fff" stop-opacity="0.73"/><stop offset="0.8" stop-color="#fff" stop-opacity="0.61"/><stop offset="0.86" stop-color="#fff" stop-opacity="0.47"/><stop offset="0.92" stop-color="#fff" stop-opacity="0.3"/><stop offset="0.97" stop-color="#fff" stop-opacity="0.11"/><stop offset="1" stop-color="#fff" stop-opacity="0"/></linearGradient></defs>
	<title>2018.10_Europa</title><g id="base"><g id="sphere" class="cls-1"><polygon class="cls-2" points="342.14 749.22 295.67 746.78 249.7 739.5 204.75 727.46 161.3 710.78 119.83 689.65 80.8 664.3 44.64 635.01 11.73 602.11 -17.56 565.94 -42.91 526.91 -64.03 485.44 -80.71 442 -92.75 397.04 -100.03 351.08 -102.47 304.61 -100.04 258.13 -92.76 212.16 -80.71 167.21 -64.03 123.76 -42.91 82.3 -17.56 43.27 11.73 7.1 44.64 -25.81 80.81 -55.09 119.83 -80.44 161.3 -101.57 204.75 -118.25 249.7 -130.29 295.67 -137.57 342.14 -140.01 388.62 -137.57 434.58 -130.29 479.54 -118.25 522.98 -101.57 564.45 -80.44 603.48 -55.09 639.65 -25.8 672.55 7.1 701.84 43.27 727.19 82.3 748.32 123.77 764.99 167.21 777.04 212.17 784.32 258.13 786.75 304.61 784.32 351.08 777.04 397.05 764.99 442 748.32 485.45 727.19 526.91 701.84 565.94 672.55 602.11 639.64 635.02 603.48 664.3 564.45 689.65 522.98 710.78 479.53 727.46 434.58 739.5 388.62 746.78 342.14 749.22"/></g><g class="cls-3"><g class="cls-4"><path class="cls-5" d="M522.55-101.76l-82.82,0L342.14-40.21m-297,14L174.91-75.84,342.14-40.21M161.73,711,106,649,86.38,534.19l19.47-149.43,55.44-161.64,83-149.23L342.14-40.21m297,675.68,49.61-72.58,17.07-96.82L678.14,321.82,599.3,175l-118-127.13-139.18-88M-102.47,304.61l.38,11.67,1.23,12.22,2.07,12.18,2.91,12.11,3.75,12,4.57,11.9,5.39,11.76,6.2,11.6,7,11.42,7.78,11.22,8.54,11,9.3,10.75,10,10.48,10.74,10.2L-11.15,475,1,484.58l12.76,9.22,13.39,8.86,14,8.49,14.56,8.09,15.1,7.68,15.62,7.26L102.48,541,119,547.39l17,5.91,17.38,5.44,17.74,5,18.06,4.46,18.36,4,18.61,3.45L245,578.51l19,2.41,19.17,1.89,19.28,1.36,19.35.83,19.39.29,19.39-.24,19.36-.78L399.27,583l19.18-1.84,19-2.36,18.85-2.89,18.63-3.4,18.38-3.91,18.09-4.42,17.77-4.91,17.42-5.39,17-5.87,16.6-6.33,16.15-6.78,15.67-7.22L627.23,520l14.61-8.05,14-8.45,13.44-8.83,12.82-9.19,12.17-9.54,11.5-9.86,10.81-10.17,10.1-10.46,9.36-10.72,8.62-11,7.85-11.2,7.07-11.4,6.27-11.59,5.47-11.75L776,365.92l3.82-12,3-12.1L785,329.64l1.31-12.22.46-12.24v-.58M468.31-121.73l-43.51,5L374.91-79.11m42-54.57-25.62,11.14L362.28-82m5-57.27L349-83.52M318.2-139.36l17.37,55.83m-67-50.34,25.21,11.24,28.53,40.56m-105.11-40,43.07,5.22,49.38,37.68M163-102.34l62.13-5.14L298-75M105.49-71.8l82.24-21.64,99.92,23.93m-302.47,109L104.21-44l168-11.7M-66.62,129.69-16.51,54,59.88-3.31,157-38.05l110.65-9.63M-98.06,242.16-94,220.07l43.31-96.89L29,43.08,137.66-12.81,265.24-39.32M-98.45,364.23l4.33-96L-50.8,166.58l79.7-88.9L137.59,9.78l127.63-40.6M-67.64,477.11-81,315.72l42-106.39,77.3-97.57L143.73,32l123.8-54.49M-16.16,567.86l-40.43-94.53L-55.07,361l39.45-110.89L56.94,144.29l99-91L272.1-14.47M43.71,634.18l-57.59-98L-17,402.81l35.67-115L84.24,174.29,173.73,72.87l105.08-80M104.1,680.13l-65.59-92.7L31.9,439.78,62.71,321.07l56.67-120.24L196.68,90.2,287.44-.58M216,730.94l-52.25-73.69L156.28,495l18.46-124.2,34-130.32L255,116.1,309.37,9.16m-42,733.73-34.26-66L228,511.58l11.34-125.84,20.86-133.35L288.6,123.87,322,12.08m-5,736.43-7.17-16L305,686.71l-2.32-72.53.44-94.15L307,393.36l7.13-134.9,9.73-130.63L335.25,13.57m30.83,735,6.84-15.92,4.69-45.82,2.21-72.53-.42-94.16-3.7-126.69L368.9,258.53l-9.29-130.65L348.71,13.59m67,729.5,33.78-65.86,5.12-165.36L443.43,386,422.89,252.59,394.87,124,362,12.13M467.08,731.3,519,657.83l7.4-162.34-18.3-124.24L474.43,240.83l-45.9-124.51L374.63,9.24M521.24,711.55l63.26-83.16,8.05-156.91L567.69,349.62l-45.74-126L459.55,105.06,386.3,5M578.79,681l65.66-92.52,6.67-147.91L620.44,321.79,564,201.41,487,90.58l-90.39-91M699.09,569.68,740,474.93,738.6,362.06l-39.37-111L626.8,145,528,53.76l-116-68M750.9,479.52l13.95-162.71-42-106.5-77.22-97.77-105.31-80L416.67-22.26M782.35,367l-4.09-97.67L734.94,167.59,655.28,78.48,546.62,10.31,419-30.63M782.74,245l-4.33-23.78-43.32-97-79.7-80.31L546.7-12.28,419.07-39.12M751.92,132.1,702,55.76l-76.54-58L528-37.48l-111.2-10M700.44,41.35,581.11-43.15,412.18-55.48M640.57-25,537.86-72.5,405.47-62.85m174.7-8.07L497.46-93,396.85-69.37M273,743.81l6.69,1,12.22,1.55,12.32,1.21,12.39.87,12.44.53,12.47.19L354,749l12.44-.5,12.4-.84,12.33-1.18L403.42,745l7.86-1.16M93.43,673.15l7.38,4.83,10.71,6.5,11.15,6.2,11.57,5.89,12,5.56,12.34,5.23,12.69,4.88,13,4.53,13.31,4.17,13.59,3.8L225,728.14l14.06,3,14.26,2.64,14.43,2.25,14.57,1.85L297,739.36l14.77,1,14.83.63,14.86.22,14.86-.19,14.83-.59,14.77-1,14.69-1.41,14.58-1.81L429.62,734l14.28-2.61,14.08-3,13.86-3.38,13.61-3.76,13.34-4.13,13-4.5,12.72-4.85,12.37-5.2,12-5.53,11.61-5.86,11.19-6.17,10.76-6.47,8.38-5.46M2.3,591.29l6,6.83L17,607.2l9.3,8.83,9.91,8.56,10.49,8.28,11.05,8,11.59,7.68,12.11,7.35,12.61,7,13.08,6.65,13.53,6.29,13.95,5.91,14.34,5.52,14.71,5.12,15.05,4.71,15.36,4.29,15.64,3.86,15.9,3.43,16.12,3L258,714.22l16.47,2.09,16.6,1.63,16.7,1.18,16.76.72,16.79.25,16.8-.21,16.77-.67,16.7-1.13,16.61-1.59,16.48-2,16.33-2.5L457.18,709l15.92-3.39,15.67-3.82,15.39-4.25,15.08-4.67L534,687.77l14.38-5.48,14-5.87,13.57-6.25L589,663.54l12.65-7,12.16-7.32,11.64-7.65,11.1-8,10.54-8.26,10-8.54,9.36-8.81,8.74-9.06,6.79-7.71M-56.9,500.69l.32.65,5.82,10.9L-44.18,523l7.31,10.54,8,10.33,8.74,10.1,9.42,9.85,10.1,9.58,10.75,9.29,11.38,9,12,8.67,12.58,8.33,13.14,8,13.68,7.6,14.19,7.22,14.68,6.82,15.14,6.41,15.56,6,16,5.56,16.33,5.11L181.47,666l17,4.19,17.25,3.72,17.49,3.24,17.7,2.76,17.87,2.27,18,1.77,18.12,1.28,18.19.78,18.22.27,18.22-.23,18.19-.73,18.12-1.23,18-1.73,17.89-2.22,17.71-2.71,17.51-3.2,17.27-3.68,17-4.15,16.7-4.61,16.36-5.07,16-5.51,15.6-5.95,15.18-6.37,14.72-6.78L610,624.93l13.73-7.57L637,609.42l12.63-8.3,12-8.64,11.44-9,10.81-9.27L694,564.7l9.49-9.83,8.8-10.08,8.1-10.31L727.81,524l6.64-10.72,5.89-10.89.83-1.66M-91.18,404.18l2,7.75,3.69,11.83,4.5,11.72,5.31,11.59,6.1,11.43,6.89,11.25,7.66,11,8.41,10.83,9.15,10.58,9.88,10.32,10.58,10,11.26,9.74,11.93,9.42,12.57,9.08,13.18,8.73,13.77,8.36,14.34,8,14.87,7.57,15.38,7.15,15.86,6.72,16.31,6.28,16.73,5.82,17.12,5.36,17.47,4.88L191.54,624l18.08,3.9,18.33,3.4,18.55,2.89,18.73,2.38,18.88,1.86,19,1.34,19.06.81,19.1.29,19.1-.24,19.06-.76,19-1.29,18.89-1.81L436,634.47l18.57-2.84L473,628.27l18.1-3.85,17.82-4.35,17.5-4.83,17.15-5.31,16.77-5.78,16.35-6.23,15.91-6.68L608,584.12l14.92-7.53,14.39-7.93,13.83-8.32,13.24-8.7L677,542.59l12-9.39,11.33-9.71,10.65-10,9.94-10.3,9.22-10.56,8.48-10.81,7.73-11,7-11.23,6.18-11.41,5.38-11.57,4.58-11.71L773.19,413l2.27-8.87M-91.18,205l-.67,3.05-2.12,12-1.29,12-.46,12.06.38,12.06,1.21,12,2,12,2.87,11.92L-85.53,304l4.5,11.72,5.31,11.59,6.1,11.43L-62.73,350l7.66,11,8.41,10.83,9.15,10.58,9.88,10.32,10.58,10,11.26,9.74L6.14,422l12.57,9.08,13.18,8.73,13.77,8.36,14.34,8,14.87,7.57,15.38,7.15,15.86,6.72,16.31,6.28,16.73,5.82L156.28,495l17.47,4.88,17.79,4.39,18.08,3.9,18.33,3.4,18.55,2.89,18.73,2.38,18.88,1.86,19,1.34,19.06.81,19.1.29,19.1-.24,19.06-.76,19-1.29L417.29,517,436,514.71l18.57-2.84,18.35-3.35,18.1-3.85,17.82-4.35,17.5-4.83,17.15-5.31,16.77-5.78,16.35-6.23,15.91-6.68L608,464.37l14.92-7.53,14.39-7.93,13.83-8.32,13.24-8.7L677,422.84l12-9.39,11.33-9.71,10.65-10,9.94-10.3,9.22-10.56,8.48-10.81,7.73-11,7-11.23,6.18-11.41,5.38-11.57,4.58-11.71,3.77-11.82,2.94-11.92,2.12-12,1.29-12L780,245.3l-.38-12.06-1.21-12-2-12-.91-4.17M-56.89,108.51l-4.31,9.38-4.37,11.17-3.59,11.28L-72,151.71l-2,11.44-1.23,11.48-.43,11.5.36,11.51,1.15,11.48,1.95,11.44,2.74,11.38,3.52,11.29,4.3,11.18,5.07,11.05,5.82,10.9,6.57,10.73,7.31,10.54,8,10.33,8.74,10.1,9.42,9.85,10.1,9.58,10.75,9.29,11.38,9,12,8.67,12.58,8.33,13.14,8,13.68,7.6,14.19,7.22,14.68,6.82,15.14,6.41,15.56,6,16,5.56,16.33,5.11,16.67,4.66,17,4.19L215.69,438l17.49,3.24,17.7,2.76,17.87,2.27,18,1.77,18.12,1.28,18.19.78,18.22.27,18.22-.23,18.19-.73,18.12-1.23,18-1.73,17.89-2.22,17.71-2.71,17.51-3.2,17.27-3.68,17-4.15,16.7-4.61,16.36-5.07,16-5.51,15.6-5.95L581.08,403l14.72-6.78L610,389.06l13.73-7.57L637,373.55l12.63-8.3,12-8.64,11.44-9,10.81-9.27L694,328.83l9.49-9.83,8.8-10.08,8.1-10.31,7.38-10.52,6.64-10.72,5.89-10.89,5.14-11,4.37-11.17L753.44,233l2.81-11.37,2-11.44,1.23-11.48.44-11.5-.36-11.51-1.15-11.48-1.95-11.44-2.74-11.38-3.52-11.29-4.3-11.18-4.75-10.41M2.29,17.93,1,19.52-6.49,29l-6.8,9.7-6.12,9.88-5.43,10L-29.58,68.8l-4,10.3-3.31,10.4L-39.5,100l-1.86,10.54L-42.5,121.1l-.4,10.6.33,10.6,1.06,10.58,1.79,10.54,2.52,10.49,3.24,10.41,4,10.31,4.67,10.19,5.37,10,6.06,9.89,6.73,9.72L.24,244l8.05,9.31L17,262.38l9.3,8.83,9.91,8.56,10.49,8.28,11.05,8,11.59,7.68,12.11,7.35,12.61,7,13.08,6.65L120.65,331l13.95,5.91,14.34,5.52,14.71,5.12,15.05,4.71,15.36,4.29,15.64,3.86,15.9,3.43,16.12,3L258,369.4l16.47,2.09,16.6,1.63,16.7,1.18,16.76.72,16.79.25,16.8-.21,16.77-.67,16.7-1.13,16.61-1.59,16.48-2,16.33-2.5,16.14-2.95,15.92-3.39L488.77,357l15.39-4.25L519.24,348,534,343l14.38-5.48,14-5.87,13.57-6.25L589,318.72l12.65-7,12.16-7.32,11.64-7.65,11.1-8,10.54-8.26,10-8.54,9.36-8.81,8.74-9.06,8.11-9.29,7.46-9.5,6.8-9.7,6.12-9.88,5.43-10,4.73-10.18,4-10.3,3.31-10.4,2.59-10.48,1.86-10.54,1.13-10.58.4-10.6-.33-10.6-1.06-10.58L724,101l-2.52-10.49-3.24-10.41-4-10.31L709.6,59.58l-5.37-10-6.06-9.89-6.73-9.72L684,20.4,682,17.92M93.42-63.93l-1.92,1.3-9.82,7-9.32,7.3-8.81,7.55-8.28,7.79-7.73,8-7.17,8.21-6.6,8.4-6,8.58L22.33,9l-4.8,8.88-4.19,9L9.78,36l-2.93,9.2L4.56,54.46,2.91,63.78l-1,9.36-.35,9.38.29,9.38.94,9.36,1.59,9.33,2.23,9.27,2.87,9.2,3.5,9.12,4.13,9,4.75,8.89,5.36,8.75,6,8.59,6.54,8.42,7.12,8.23,7.68,8,8.23,7.81,8.76,7.58,9.28,7.33,9.78,7.06,10.25,6.79,10.71,6.5,11.15,6.2,11.57,5.89,12,5.56,12.34,5.23,12.69,4.88,13,4.53,13.31,4.17,13.59,3.8L225,284.85l14.06,3,14.26,2.64,14.43,2.25,14.57,1.85L297,296.07l14.77,1,14.83.63,14.86.22,14.86-.19,14.83-.59,14.77-1,14.69-1.41L415.18,293l14.44-2.21,14.28-2.61,14.08-3,13.86-3.38L485.45,278l13.34-4.13,13-4.5,12.72-4.85,12.37-5.2,12-5.53L560.54,248l11.19-6.17,10.76-6.47,10.3-6.76,9.82-7,9.32-7.3,8.81-7.55,8.28-7.79,7.73-8,7.17-8.21,6.6-8.4,6-8.58,5.41-8.74,4.8-8.88,4.19-9,3.56-9.11,2.93-9.2,2.29-9.27,1.65-9.32,1-9.36.35-9.38L682.44,74l-.94-9.36-1.59-9.33-2.23-9.27-2.87-9.2-3.5-9.12-4.13-9-4.75-8.89-5.36-8.75-6-8.59-6.54-8.42-7.12-8.23-7.68-8L621.54-40l-8.76-7.58-9.28-7.33L593.72-62l-2.87-2m-84.31-43.18-10.35-4.39-10.65-4.1-10.92-3.8-11.17-3.5L452-126.08,440.44-129l-11.8-2.55-12-2.22-5.41-.89M273-134.6l-4.26.69-12,2.19-11.81,2.52-11.63,2.84-11.42,3.16-11.19,3.47L199.75-116l-10.67,4.07-10.38,4.36-10.07,4.64L158.89-98l-9.39,5.18-9,5.43-8.64,5.67-8.24,5.91-7.83,6.13-7.39,6.34-6.95,6.54-6.49,6.72-6,6.89-5.54,7.05-5,7.2-4.54,7.33-4,7.45L66.24-6.59,63.25,1,60.79,8.77l-1.92,7.78-1.38,7.82-.84,7.85-.3,7.87L56.6,48l.79,7.86,1.33,7.83,1.87,7.78L63,79.15l2.94,7.65,3.47,7.56,4,7.46,4.5,7.34,5,7.21,5.49,7.07,6,6.91,6.45,6.74,6.91,6.55,7.35,6.36,7.79,6.15,8.2,5.93,8.6,5.7,9,5.46,9.36,5.2,9.71,4.94,10,4.67,10.35,4.39,10.65,4.1,10.92,3.8,11.17,3.5,11.4,3.18,11.61,2.87,11.8,2.55,12,2.22,12.11,1.89,12.22,1.55,12.32,1.21,12.39.87,12.44.53,12.47.19,12.47-.16,12.44-.5,12.4-.84,12.33-1.18,12.23-1.52,12.12-1.86,12-2.19,11.81-2.52L451,207.28l11.42-3.16,11.19-3.47,10.94-3.77,10.67-4.07,10.38-4.36,10.07-4.64,9.74-4.91,9.39-5.18,9-5.43,8.64-5.67,8.24-5.91,7.83-6.13,7.39-6.34,6.95-6.54,6.49-6.72,6-6.89,5.54-7.05,5-7.2,4.54-7.33,4-7.45L618,87.51l3-7.64,2.46-7.72,1.92-7.78,1.38-7.82.84-7.85.3-7.87L627.68,33l-.79-7.86-1.33-7.83L623.69,9.5l-2.41-7.72-2.94-7.65-3.47-7.56-4-7.46-4.5-7.34-5-7.21-5.49-7.07-6-6.91-6.45-6.74-6.91-6.55-7.35-6.36-7.79-6.15-8.2-5.93-8.6-5.7-9-5.46-9.36-5.2-9.71-4.94-10-4.67M470-108.81,462-112.22l-8.28-3.19-8.49-3-8.69-2.72-8.87-2.48-9-2.23-9.18-2-9.31-1.73L390.7-131l-9.51-1.21-9.58-.94L362-133.8l-9.68-.41-9.7-.15-9.7.12-9.68.39-9.64.65-9.59.92-9.52,1.18L285-129.65l-9.32,1.7-9.19,2-9,2.21-8.89,2.45-8.71,2.7-8.51,2.93-8.3,3.17L215-109.14l-7.83,3.61-7.58,3.82-7.3,4-7,4.23L178.55-89l-6.41,4.6-6.09,4.77-5.75,4.93-5.41,5.08-5,5.23-4.68,5.36-4.31,5.49L136.93-48l-3.53,5.7-3.14,5.79-2.73,5.87-2.33,5.94-1.91,6-1.5,6-1.08,6.09-.65,6.11-.23,6.12.19,6.12.62,6.11,1,6.09,1.46,6.05,1.87,6,2.29,6L130,47.91l3.1,5.8,3.5,5.71L140.47,65l4.27,5.5,4.65,5.37,5,5.24,5.37,5.1,5.72,4.95L171.55,96l6.38,4.61,6.69,4.43,7,4.24,7.28,4,7.55,3.84,7.81,3.63,8.05,3.41,8.28,3.19,8.49,3,8.69,2.72,8.87,2.48,9,2.23,9.18,2,9.31,1.73,9.42,1.47,9.51,1.21,9.58.94,9.64.68,9.68.41,9.7.15,9.7-.12,9.68-.39,9.64-.65,9.59-.92,9.52-1.18,9.43-1.44,9.32-1.7,9.19-2,9-2.21,8.89-2.45,8.71-2.7,8.51-2.93,8.3-3.17,8.08-3.39,7.83-3.61,7.58-3.82,7.3-4,7-4.23,6.72-4.42,6.41-4.6,6.09-4.77L524,86.71l5.4-5.08,5-5.23L539.12,71l4.31-5.49,3.92-5.6,3.53-5.7L554,48.46l2.73-5.87,2.33-5.94,1.91-6,1.5-6,1.08-6.09.65-6.11.23-6.12L564.26.15,563.64-6l-1-6.09-1.46-6.05-1.87-6-2.29-6-2.69-5.88-3.1-5.8-3.5-5.71-3.89-5.61-4.27-5.5-4.65-5.37-5-5.24-5.37-5.1-5.72-4.95L512.73-84l-6.38-4.61-6.69-4.43-7-4.24-7.28-4-7.55-3.84L470-108.81M429.62-97.94l-5.51-2.33-5.66-2.18-5.81-2-5.94-1.86L400.62-108l-6.18-1.53-6.28-1.35-6.37-1.18-6.44-1-6.5-.83-6.56-.65-6.59-.46-6.62-.28-6.63-.1-6.63.08-6.62.27-6.6.45L316-114l-6.51.81-6.45,1L296.71-111l-6.29,1.34-6.19,1.51-6.08,1.68-6,1.85-5.82,2-5.68,2.17-5.52,2.32-5.36,2.47-5.18,2.61-5,2.76-4.8,2.89-4.6,3-4.39,3.14L221.69-78l-3.93,3.37-3.7,3.48-3.45,3.58-3.2,3.67-2.95,3.75-2.68,3.83-2.42,3.9-2.15,4-1.87,4-1.59,4.07-1.31,4.11-1,4.14L190.69-28l-.45,4.18-.16,4.19.13,4.19.42,4.18.71,4.16,1,4.14,1.28,4.11,1.56,4.07,1.84,4,2.12,4,2.39,3.91L204.2,21l2.92,3.76,3.18,3.68L213.73,32l3.67,3.49,3.91,3.38,4.14,3.27,4.36,3.16,4.58,3,4.78,2.9,5,2.77,5.17,2.63,5.34,2.48,5.51,2.33,5.66,2.18,5.81,2,5.94,1.86,6.07,1.69,6.18,1.53,6.28,1.35,6.37,1.18,6.44,1,6.5.83,6.56.65,6.59.46,6.62.28,6.63.1,6.63-.08,6.62-.27,6.6-.45,6.56-.63,6.51-.81,6.45-1,6.37-1.16,6.29-1.34,6.19-1.51,6.08-1.68,6-1.85,5.82-2,5.68-2.17,5.52-2.32,5.36-2.47,5.18-2.61,5-2.76,4.8-2.89,4.6-3,4.39-3.14,4.16-3.26,3.93-3.37,3.7-3.48,3.45-3.58,3.2-3.67,2.95-3.75,2.68-3.83,2.42-3.9,2.15-4,1.87-4,1.59-4.07,1.31-4.11,1-4.14.74-4.16L494-15l.16-4.19-.13-4.19-.42-4.18-.71-4.16-1-4.14L490.67-40l-1.56-4.07-1.84-4-2.12-4L482.75-56l-2.66-3.84-2.92-3.76L474-67.25l-3.43-3.59-3.67-3.49L463-77.7,458.83-81l-4.36-3.16-4.58-3-4.78-2.9-5-2.77L435-95.46l-5.34-2.48m-43.06,23.1L383.76-76l-2.88-1.11-2.95-1-3-.94L371.83-80l-3.14-.78-3.19-.69-3.23-.6L359-82.54,355.7-83l-3.33-.33L349-83.52l-3.36-.14-3.37-.05-3.37,0-3.36.13-3.35.23-3.33.32-3.3.41-3.27.5-3.24.59-3.19.68-3.14.77-3.09.85-3,.94-3,1-2.88,1.1L298-75l-2.72,1.25-2.63,1.33L290.1-71l-2.44,1.47L285.32-68l-2.23,1.6L281-64.73,279-63l-1.88,1.77-1.75,1.82-1.63,1.86-1.5,1.91-1.36,1.94-1.23,2-1.09,2-.95,2-.81,2.06-.66,2.09-.52,2.1-.37,2.11L265-37.2l-.08,2.13.07,2.13.21,2.12.36,2.11.51,2.1.65,2.09.79,2.07.94,2,1.08,2,1.21,2,1.35,1.95,1.48,1.91,1.61,1.87,1.74,1.82,1.87,1.77,2,1.72,2.1,1.66,2.22,1.6,2.32,1.54L289.87.89l2.53,1.4L295,3.63l2.71,1.26,2.8,1.19,2.88,1.11,2.95,1,3,.94,3.08.86,3.14.78,3.19.69,3.23.6,3.27.51,3.3.42,3.33.33,3.35.24,3.36.14,3.37.05,3.37,0,3.36-.13,3.35-.23,3.33-.32,3.3-.41,3.27-.5,3.24-.59,3.19-.68,3.14-.77,3.09-.85,3-.94,3-1,2.88-1.1L386.3,5,389,3.75l2.63-1.33L394.19,1l2.44-1.47L399-2l2.23-1.6,2.11-1.66,2-1.71,1.88-1.77,1.75-1.82,1.63-1.86,1.5-1.91,1.36-1.94,1.23-2,1.09-2,.95-2,.81-2.06.66-2.09.52-2.1.37-2.11.23-2.12.08-2.13L419.28-37l-.21-2.12-.36-2.11-.51-2.1-.65-2.09-.79-2.07-.94-2-1.08-2-1.21-2-1.35-1.95-1.48-1.91-1.61-1.87-1.74-1.82-1.87-1.77-2-1.72-2.1-1.66-2.22-1.6-2.32-1.54-2.43-1.47-2.53-1.4-2.62-1.33-2.71-1.26"/></g></g></g>
	<g id="indoeuropeas">
		<polyline id="KOSOVO" class="indoeuropeas" onmouseover="displayName('KOSOVO');displaySecondLanguage('Serbo-Croata')" points="261.1 266.54 262.16 266.27 262.77 267.47 263.72 268.11 264.23 269.45 265.08 269.95 265.93 271.53 266.71 271.61 265.8 273.38 264.99 274.18 265.06 274.63 264.87 274.8 263.79 274.89 260.29 275.56 259.77 277.08 259.21 276.94 259.08 276.67 259.17 274.06 257.98 273.06 257.24 271.01 258.17 269.67 259.91 268.95"/>
		<path id="INGLATERRA" onmouseover="displayName('INGLATERRA');displaySecondLanguage('Polaco')" class="indoeuropeas" d="M169.06,150.42l-1.72-2.78-2.14-1.11,3-3.06,1.63-3.83,2.92,1.32,1,6Zm30.22-25.31-7.88,5.22,3.87.79,3.57,1.78-4.08,4.91-6.6,4.38,3.3,2.16-.14.83L190,154.51l1.9,2.22-1.82,8.75-.31,3.17,4.05,3.32-2.65,4.21-3,1.17-.15,4.26-5.41,2.08-5.32-2.46L169.56,180l-1.09-2.24-4.29,1.91L161,177l-4.14,1.16-1.24-2.43,9.57-4.12,4.21.27h0l-5.2-4.14.52-3.21,5-.05.13-4.62,3.27-4,5,3.33h0l2.76-3.61,0-5.28v-.12l-3.5-3.33.3-2.2,3.07-2.26,0-2.37-3.75,2.1,3.83-6.33.54-4.16,5.58-5.94,5.89-3.83,2.15,1.8Z"/>
		<path id="MACEDONIA" onmouseover="displayName('MACEDONIA');displaySecondLanguage('Albanés')" class="indoeuropeas" d="M259.07,276.9l.69.18.53-1.53,3.49-.66,1.3-.11,2-.15,2.6.24,2.45,2.86-.31,5.14-1.12.1-1.14,1.2-3.06-.59-2.43,1.35-3.84.1-2-2.24-.24-3.41Z"/>
		<path id="UCRANIA" onmouseover="displayName('UCRANIA');displaySecondLanguage('Ruso')" class="indoeuropeas" d="M326.27,204.62,328,205l1.27-1.68,1.42.42,4.94-.63,3,4.32L337.43,209l.37,2.35,3.88.39,1.74,3.3-.1,1.49,6.3,2.62,3.77-1.3,3.2,3.48,2.91-.18,7.52,2.13.2,2.23-1.81,4.11,1.4,4.16-.66,2.59-5,.79-2.59,2.24,0,3.4-4.2.74-3.47,2.57-5,.47-4.59,2.89.3,4.79,2.66,1.86,5.56-.52-1,2.78-6,1.38-7.52,4.42-3-1.62,1.28-3.61-5.92-2.4,1-1.44,5.23-2.44-1.52-1.79-8.28-2.19-.24-2.88-5,.74-2.23,4.13-4.55,5.46-2.37-1.48-2.65,1.07-2.3-1.59,1.43-.74,1.16-2.56,1.66-2.35-.27-1.4,1.16-.54.44,1.1,3.13.42,1.46-.49-.95-.83.44-1.13-1.71-2.07-.52-3.24-1.8-1.39.58-2.57-2.15-2.22-2.1-.44-3.53-2.69-3.48.46-1.34,1-2.17-.21-1.48,1.66-3.87.33-1.91,1L286.81,233l-3.26-.43-3-1.25-2.45,1.32v-2.08l-2.46-2.47,1.51-2.9,1.71-1.77,1,.6-.69-3.57,5.47-5.67,2.55-.57.83-2.06-1.35-6.85h2.31l2.89-1.72,3.67.24,4.71,1.08,5.1,2.3,3.74.45,1.71,1.22,1.91-1.19,1.11,1.86,4.37-.11,1.88.84.55-3.79,1.56-1.6Z"/>
		<path id="SUECIA" onmouseover="displayName('SUECIA');displaySecondLanguage('Inglés')" class="indoeuropeas" d="M248.29,142l3.15-3.55,4.8-3.94,4.22-7.79-.83-4,3.39-9.06,4.59-5.75,3.07.91,2.1-2.39-.25-2.57,8.19-8.25,5.53-6.7,3.47-4.28,2.65.56,1.92-3.52,4.82,2,1.65-4.27h1.73l2.78,3.8,3.32,5.15L306.5,98.74l.48,2.8-5.76,1.21-4.19,4.3-.53,4.29L289.87,116l-8.17,4.74-5.45,9.27,1.11,5.45,2.42,4.59-5.64,7.34-4.45.86-5,11.67-4.25,6.23-4.72-1.81-4.12,5.12-4.85-.85,1-7.08-.39-8.88Z"/>
		<path id="ESPAÑA" onmouseover="displayName('ESPAÑA');displaySecondLanguage('Catalán')" class="indoeuropeas" d="M111.56,224.35l2.79-4.73-.07-4,8.42-1.42,4.41,4.17,5.7,3.09,4,3.62,3.8,1.49,7.09,3.76.57,3.61,7.1,7.1,2.35-.81,4,5.52,6,1.32-1.35,4.32-6.48,2.95-6.84-1.09-1.4,2.24-4.58,2.68-4.21,5,.31,5-4.1,1.94-2.88,4.18-4.31-.3-5.67,3.85-6.26-3-4.56-2.48-4,.92L108.4,275l-2.08-1.85-.73-3.35L106,265l-3.8-3.53.68-2.53,2.88-1.64,1.49-1.54-.59-3,3.39-3.85.22-5.18,2.18.52,1.75-3.18,1.2-.61,2.69-5.38,2.94-.74.5-4.16-2.38-1.66L118,229l-2.51-1.45.69-4-2.22,0Z"/>
		<path id="ESLOVENIA" onmouseover="displayName('ESLOVENIA');displaySecondLanguage('R. Checa')" class="indoeuropeas" d="M230.94,234.41l4,1.56,3-1.1,4.44.79,1.27-1.05.83.27.37,2.74-4.51,1.12L239,241.67l-2,.37-.51,2.1-2-.62-1.41-1.63-1.27,1.05-3.48-1.12,1.31-.4-.35-3.49Z"/>
		<path id="PORTUGAL" onmouseover="displayName('PORTUGAL');displaySecondLanguage('Mirandés')" class="indoeuropeas" d="M111.56,224.35l2.42-.81,2.22,0-.69,4L118,229l1.16-.44,2.38,1.66-.5,4.16-2.94.74-2.69,5.38-1.2.61-1.75,3.18-2.18-.52-.22,5.18-3.39,3.85.59,3-1.49,1.54L102.91,259l-.68,2.53-2.65.73-1.93-2.39L95,259.21l3.22-5,1.62-4.5-1.64-1.83.24-3.25,2.59-4.29,3-1.45,1.71-2.58,3-3.6,1.4-3,.43-3Z"/>
		<path id="POLONIA" onmouseover="displayName('POLONIA'');displaySecondLanguage('Inglés')" class="indoeuropeas" d="M246.21,201.72l-.52-5.12,1.09-2.45.05-4.17-.81-3,1.8-1.65.14-3.93,3.56-1.43,7.64-1.86,6-1.35,4,2.05-.11,1.84,4.16.86,5.2,1.73,8.12,1.09,2.12,1.1.68,2.42-.36,3.32.79,3-.52,3-3,1.16.84,3.65-.45,3.36,1.35,6.85-.83,2.06-2.55.57-5.47,5.67.69,3.57-1-.6-4.18-3.58-3.73.51-2.16-1.15-3.23,1.11-1.89-3.09-2.21.66-.18-.49-1.37-4.1-3.45-1.14.12-2.41-3-1.49L252.35,210,250.2,208l.82-2-3.28-1.4Z"/>
		<path id="NORUEGA" onmouseover="displayName('NORUEGA');displaySecondLanguage('Inglés')" class="indoeuropeas" d="M331.27,79.28l-4.89,2.43-2.29.48,1.7-4.61-3-2.89-4.43,1.88-2.18,4.73L313,84l-2.63-2-3.64-.15-2.11-3.93-2.07,1.48h-1.73l-1.65,4.27-4.82-2-1.92,3.52-2.65-.56-3.47,4.28-5.53,6.7-8.19,8.25.25,2.57-2.1,2.39-3.07-.91L263,113.64l-3.39,9.06.83,4-4.22,7.79-4.8,3.94L248.29,142l-.74-5-10.46,5.79-5.56,0-3.32-5.18,2.31-7.69,6.77-15.7,5.08-3.19,10.92-2.78,9.18-5,9.39-7.68,11.88-11,6.36-3.9L300,74.08l6.44-1.91,4.12,1,5-4.92,4.48.77,4.68-.92,7.44,5.3L328.72,75Zm-6-53.69-4.25,2-2.46-1.82,1.57-1.36-.35-2,3.5-.71,0,2.3Zm-6.18-12.23,3.08,5.07-4.45,1.68-2.43,4.14-1.8.83-2.69,4.72-2.12-.21-1.91-4.37,2.38-1.71-1.48-2.21-.28-5.5,1.43-4.61,4.51-1L313,12.29l1.89.36,1.37-1.81,2,.21Zm10.62-2.64L331.84,13l-2.62,3-4.21.21-3.76-1.58.31-1.62-1.85-.44-.36-2.86,4.41-.88,1.37,1.65,1.77-1.53Z"/>
		<path id="PAÍSES_BAJOS" onmouseover="displayName('PAÍSES BAJOS');displaySecondLanguage('Francés')" data-name="PAÍSES BAJOS" class="indoeuropeas" d="M217.07,174.67l-.24,2.64-3.69,6.13L211,185.76l-2.52-.88-2.37,7.7-1.66-2.5L203.08,186l-4.5,0-2.79-1.72,3-1.11,8.21-9,6.8-.95Z"/>
		<path id="MONTENEGRO" onmouseover="displayName('MONTENEGRO');displaySecondLanguage('Albanés')" class="indoeuropeas" d="M252.3,275.56l-1.05-.79L250.16,272l-2.08-2,.87-1.18,1.63-4,2.1-1.45,1.15-.52,1.2,1.57.59,1.2,1.64,1.13,1.81,1.93-.55.59-1.34,1.54-1.61.42-.09-1.51-3.08,3.34Z"/>
		<path id="MOLDAVIA" onmouseover="displayName('MOLDAVIA');displaySecondLanguage('Ruso')" class="indoeuropeas" d="M298.37,232.42l1.34-1,3.48-.46,3.53,2.69,2.1.44,2.15,2.22-.58,2.57,1.8,1.39.52,3.24,1.71,2.07-.44,1.13.95.83-1.46.49-3.13-.42-.44-1.1-1.16.54.27,1.4-1.66,2.35-1.16,2.56-1.43.74-.66-3.58.87-3.23.13-3.38-2.59-4.79-1.34-3.37-1.35-2.41Z"/>
		<path id="LUXEMBURGO" onmouseover="displayName('LUXEMBURGO');displaySecondLanguage('Portugués')" class="indoeuropeas" d="M203.63,197.23l.23,1.92-1.5,3-1.33-.28-.73-1,2.1-3.84Z"/>
		<path id="LITUANIA" onmouseover="displayName('LITUANIA');displaySecondLanguage('Ruso')" class="indoeuropeas" d="M286.53,184.35l0-1.94.84-1.95L285.65,179l-4.27-2,.4-6.31,5.27-1.51,7,1.42,4.27-.23.36,1.6,2.2.72,3.64,4,0,3.36-3.92,2-1.61,4.08-5.29,2.25-4.32-.59-.68-2.42Z"/><path id="LETONIA" class="indoeuropeas" d="M281.78,170.75l1.33-5.46,3-4.25,4.33-1.91,2.22,5.88,3.35.28,1.73-5.5,3.67-.89L303,160l3.14,3.07,3.4.32,1.8,1.86,0,3.59.89,4.46-4.94,2.47-2.79,1-3.64-4-2.2-.72-.36-1.6-4.27.23-7-1.42Z"/>
		<path id="ITALIA" onmouseover="displayName('ITALIA');displaySecondLanguage('Alemán')" class="indoeuropeas" d="M225,298.93l-3.34,5.49L222,307l-2,3.62-3.85-3.9-2.75-1.53-7.07-5.87,1.71-3.67,6.46,2.38,6,.58Zm-29-31.56,1.61,6.23L194,283.24,191.71,282l-2.92,1.8-1.46-2.62,2.48-9,.1-4.63,2.77,1.29Zm34.94-33-1.56,3.53.35,3.49L226,239.34l-4.83,1.58-.78,3.77-1.22,2,.61,4.24,3.86,5,1.06,6.86,4.5,7.49,4.26.91,1,2-1.88,1.18,4.35,3.8,3.61,3.13,4,4.92.32,1.53-1.58,2.53-2.46-4.16-4.65-2.25-3.37,4.41,3.51,3.68-1.47,3.82-2.49-.05-4.4,5.86-2.54.06.51-2.31,2-3.81,1.57-1.35-1.27-4.89-.88-4.2-2.1-1.47-.88-3.65-3.22-2.21-1.61-3.62-3.89-1.5-3.3-4.49-3.49-6.19-2.3-5.3.62-7.8L205,247.17l-3.3-3.68-2.62.28-4,2.49-2.24-.14,1.65-3-2.35-1.82.73-6.08,2.48-1.66-.43-3.22.94-2,1.5,2.26,2.44.41,3.56-1.61.43,1.42,2.37.49,2-2.64,3.28,2,2.53-.61,1.35-2.91,2.61,1.88,1-1.24,5.18,0,.32,2.86Z"/>
		<path id="IRLANDA" onmouseover="displayName('IRLANDA');displaySecondLanguage('Irlandés')" class="indoeuropeas" d="M169.06,150.42l-2.37,5-6.31,4.37-8.68.22-4.21-4,7.24-5,2.72-7.57,7.86-2.28,4.49-1.53-1.63,3.83-3,3.06,2.14,1.11Z"/>
		<path id="ISLANDIA" onmouseover="displayName('ISLANDIA');displaySecondLanguage('Inglés')" class="indoeuropeas" d="M206.84,61.12l-4,3.1-1.27,5.42-6.87,2.1-9.84-1.16-2.8-.55-1.81-3.1-3.44-6.64,4.39-.44-.92-6.28,4.23,2.17,1.66-1.52L184,49.47l5.06-1.93,3.39,1.82-1.3,5.92,5.92-.26.73,3.45,6.12-.22Z"/>
		<path id="HUNGRÍA" onmouseover="displayName('HUNGRÍA');displaySecondLanguage('Rumano')" class="indoeuropeas" d="M243.58,234.61l2.83-4.46-.55-1.83,2.78.57,1.11-3,2.05,2.44,1.66,1.17,4.39-.11.72-1.44,2,.14,2.66-.73.44.58,2.52-.54,1.53-1.58,1.72-.19,4.92,3.12,1.2-.62,2.46,2.47v2.08l-3.38,1.15-3.3,4.79-4,4.66-4.44.76-3.16-.9-4.38,1.28-2.18.77-3.94-2.28-3.09-4-1.39-1.26-.37-2.74Z"/>
		<path id="GRECIA" onmouseover="displayName('GRECIA');displaySecondLanguage('Albania')" class="indoeuropeas" d="M270.68,326.78l3.1,3,4.88.12,4.59,1.05-.28,1.32,3.49-.58-1,2.2-9.09-.32.2-1.26-7.43-2.43Zm18.47-37.85-3.5-.59-2.93-1.06-7.22,1.16,3.47,4.81-3.12.9-3.23-.4-2.53-4.38-1.32,1.54.66,4.77,2.45,4-2.45,1.39,2.85,4,2.67,2.61-.43,4.37-5.31-2.76,1.28,4.16-3.92.29,1.43,7.11-4.05-.46-4.52-4.07L258,309.81l-.28-5.28L256,300.66l-2.3-4.87v-2.24l3.29-3.26.74-2.43,2.05-.82.43-2,3.84-.1,2.43-1.35,3.06.59,1.14-1.2,1.12-.1,4.2.78,4.83-1.56,3.72,3.16,5.3-.19.46-3.84,2.57,2.32-2.27,4.65Z"/>
		<path id="FRANCIA" onmouseover="displayName('FRANCIA');displaySecondLanguage('Inglés')" class="indoeuropeas" d="M-102.1,292.45l.16-1.34.19-2.31.21-1.72.28-5.43.42-4.49.67-2.63,0,2.32v5l-.21,10.23-.17,3.28-.69,2.63-.39,2.94-.23.41-.13-1.91L-102,297l0-1.34-.12.11Zm302-31.52-3.46,5.22-1.9-2.25.36-5.35,1.9-2.42,4.18-1.81Zm.35-60,.73,1,1.33.28,1.35,2.61,6,3.48-4.13,4.22-2.48,5-1.74.81-1.85-1.38-.54,1.9L194,221.7,192.7,225l2.67-.35.45,3.73-.94,2,.43,3.22-2.48,1.66-.73,6.08,2.35,1.82-1.65,3-5.93,2.63-9-5.45-7.92-.35-2.24,4.14-6-1.32-4-5.52-2.35.81-7.1-7.1-.57-3.61,4.25-3.13,7.33-13.63-.87-9.43-1.31-5-4.81-5.8,2.3-5.18,5.94,1.15,5.89,5.07,2.71-8.42,2.32,4.75,12.2-1.2,4-5.19,4.24.06-.55,2.71,1.88.88.68,3.58,1.51,4.48,2.45.27Z"/>
		<path id="FINLANDIA" onmouseover="displayName('FINLANDIA');displaySecondLanguage('Sueco')" class="indoeuropeas" d="M324.09,82.2l-1,4.67L327,91.66l-3.27,5,2.83,8-2.72,5.83,2.52,5.38-1.77,4.5,4.8,5.09L327.83,129l-3.67,4-8.87,8.63-6.95,0-7.1,1.91-6.48.71-1.39-4.2-3.08-2.87,2.39-6.84-.23-6.6,2.6-3.8L299.1,116l9-6.54,2.41-1.21.18-2.95L307,101.53l-.48-2.8,2.12-10.41-3.32-5.15-2.78-3.8,2.07-1.48,2.11,3.93,3.64.15L313,84l3.18-2.66,2.18-4.73,4.43-1.88,3,2.89Z"/>
		<path id="ESTONIA" onmouseover="displayName('ESTONIA');displaySecondLanguage('Ruso')" class="indoeuropeas" d="M297.72,159.79l1.19-4.23-1.63.73-2.06-2.89.44-4.19,5.27-1.4,5-.5,4,1.6,4.06.13.45,1.31-3.31,4,.4,6.9-2.05,2.18-3.4-.32L303,160l-1.63-1.08Z"/>
		<path id="DINAMARCA" onmouseover="displayName('DINAMARCA');displaySecondLanguage('Faroese')" class="indoeuropeas" d="M246.33,166.6l-4.43,5.14-2.83-5.2.52-3.1,6.7-.75Zm-12.79,1.34-3,.3-2.66-1.87V162l2.88-7.18,1.42-1.67,2-1.74,3.5.59,2.11-1.52,3.8-1.07L242,152.93l-2,2-.3,2.1,1.71,1.67-2,2.38-.89-1.1-4.8,4.24Z"/>
		<path id="R._CHECA" onmouseover="displayName('R. CHECA');displaySecondLanguage('Eslovaco')" data-name="R. CHECA" class="indoeuropeas" d="M250.52,222.36l-1.89-1.88-2.38-.1-3.13-3.1-1.84.17-3.55,2.4-2.86-3.26-1.73-3.84-1.83-2.39.46-3.23-.12-2.39,3.82-.72,2.25-1.4,3.71-.6,1.56-1.12,1,1.13,2.26-.29,1.52,2.88L251,206l-.82,2,2.16,2.08,1.18-1.76,3,1.49-.12,2.41,3.45,1.14,1.37,4.1-1.43-.27-1.05,1.21-1.19.11-.7,1.64-1,.18-.28.66-1.85.45-2.12-.57Z"/>
		<path id="BIELORÚSIA" onmouseover="displayName('BIELORÚSIA');displaySecondLanguage('Bieloruso')" class="indoeuropeas" d="M289.34,187.88l4.32.59,5.29-2.25,1.61-4.08,3.92-2,0-3.36,2.79-1,4.94-2.47,4.36,2.17.45,1.88,2.36-.74,4.15,2,.21,3.51-1.09,2,2.53,5,1.78,1.44-.33,1.34,3,1.42,1.25,2-1.87,1.59-3.73-.39-.94.66,1,2.56.92,4.87-4.12.28-1.56,1.6-.55,3.79-1.88-.84-4.37.11-1.11-1.86-1.91,1.19-1.71-1.22-3.74-.45-5.1-2.3-4.71-1.08-3.67-.24-2.89,1.72h-2.31l.45-3.36-.84-3.65,3-1.16.52-3-.79-3Z"/>
		<path id="BÉLGICA" class="indoeuropeas" d="M195.78,184.33l2.79,1.72,4.5,0,1.35,4.07,1.66,2.5-2.46,4.64-1.24-.12-2.1,3.84-2.45-4.64-2.45-.27-1.51-4.48-.68-3.58-1.88-.88.55-2.71Z"/>
		<path id="ALBANIA" class="indoeuropeas" d="M259.07,276.9l-1.15,2.49.24,3.41,2,2.24-.43,2-2.05.82-.74,2.43-3.29,3.26-.91-.7.18-1.7L250.25,288l.16-3.72,1.41-5.13,1.2-2.24-.72-1.37.09-2.49,3.08-3.34.09,1.51,1.61-.42.81,2.24,1.18,1Z"/></g>
		<g id="Extras"><path class="cls-7" d="M274,377.29l-1.43-6.36,2.12-4.52L274,363l2.71-3.4,8.68.76,6.17,2.59,6.37,2.79,3,1.4,5.22-2.1,2.81-2,5.84-.35,4.67,1.17,1.67,3.88,1.62-2.47,5.26,2,5.19.54,3.3-1.9,4.32,13.2-1.91,3.07-1.5,5.75-1.88,3.95-1.62,1.3-2.27-2.49-3-3.46L324,376.14l-.72.67,2.62,8.15,4.07,7.75"/><path class="cls-7" d="M379.45,284.74l6.11-.84,5.91,3.29,1.25,2.63-.2,3.81,4.56,1.5,2.54,2-3.81,2.62,2.76,8.66-1,2.52,3.94,5.83-2.8,1.61-2.32-1.74-7.21-.35-2.53,1.42-6.9,1.71-3.31.08-7,3.31-5.11.24-3.33-1.33L354.29,324l-2.06-1.47L352,326.9l-1.67,1.74-1.65,1.72-2.33-3.49,2.33-2.94-3.79.69-5.22-1.78-4.32,4.42-9.51.68-4.92-4.32-6.7-.55-1.59,3.13-4.36.69-5.74-4.51-6.75-.37-3-8-4-4.71,3.47-5.72-3.41-4.06,7.22-6.77,9.06.4,2.87-5.72,11,1.62,7.18-4.76,6.79-2,9.53-.09,10.17,5.36,8.47,2.77,6.74-1.48,5.06.43Zm-90.3,4.19,1.47-.73,2.27-4.65-2.57-2.32,6.05-1.88,4.82,1.44.44,3,4.86,2.86-1.2,1.82-6.94-.1-2.68,2.18-5.27,3.71-1.47-3.77Z"/><path class="cls-7" d="M176.07,349.06l.61-14.12-2.88-4.13.39-1.81-3.58-6,1-5.74,4.63-3,3-5.71,1.07-7.37,2.21-3.45,6.87-1.13,3.68,2.06-1.18,3.73,5.51-1.38,0,1.56-3.77,2.86-.92,3.45,1.52,2.43-2.34,6.28-4.75,2.65.12,4.4,3,1,.65,4,2,1.8-1.64,5.65-3.4,1.33-2.4,1.87L180.71,342l-.05,3.27-1.23,3Z"/><path class="cls-7" d="M365.94,348.8l-12.54,8.59-7.31-3-.14-.05.88-1.17-.12-3.16,1.55-4.24,3.46-3-1.08-3-2.88-.37-.64-5.91,1.51-3.2,1.65-1.72L352,326.9l.27-4.33,2.06,1.47,6.78-2.34L364.4,323l5.11-.24,7-3.31,3.31-.08,6.9-1.71-2.8,5.06-3.26,2.15.95,5.61-1.82,9.5Z"/><path id="SUIZA" class="indoeuropeas" d="M212.79,221.32l-.27,1.35-1.32,1.58,1.71,2,2.39.92-1.35,2.91-2.53.61-3.28-2-2,2.64-2.37-.49-.43-1.42L199.75,231l-2.44-.41-1.5-2.26-.45-3.73-2.67.35L194,221.7l4.92-2.89.54-1.9,1.85,1.38,1.74-.81,3.93,1.33,1.52-1.28Z"/><path class="cls-7" d="M69.64,324l-.15.47-.59,1.29-3.67,10.53L49.31,325.68,43.4,343.34l-4.72-2.51-2.33,2.68L34.13,354,16,340.25l-1.7,1.46L15.38,339l.08.08,10.4,7.43,1.34-2,2.91-1.62,4.72-8.26,9.1-2.72,5.33-7.11,1.65.5L54.44,321l4.31,1.91,1.42,2,2.22,1.4,2.16-.58,3.15,1.65,1.2-3.8Z"/><path class="cls-7" d="M350,401.35l-4.27-6.07-3.5-5.21-3.43,0,1.1-4.18.3-2.66.84-3.05,7.56,1.18,2.9-2.39,1.57-2.78,5.11-1.18,1.05-2.6,2.18-1.37-6.79-7.49,13.09-4.28,1.21-1.22,8,1.67L387,364.47l19.85,13.66"/><path class="cls-7" d="M286.53,184.35l-8.12-1.09-5.2-1.73,1.72-3.06,6.45-1.4,4.27,2,1.71,1.45-.84,1.95ZM398.12,64.79l-1.16.92-8.19,1L387.1,64l-4.88-.85-1.46-3.37,1.87-1.8-1.28-3.4,2.23-6.16-2.19-.34L384,41.69l-1.71-2.6,2.62-4.15,3.67-5.34,4.74-2.85,1.24-3,2.39-1.85,2.67,1.68.26,2.1-3.75,4.92-3.56,4.47-2.74,7.26L389.65,49l-.78,6.71,2.59,5.07Zm9.53,5.85.25-2.44M407,279.49l-3.8-1.35-2.12-3-5.43-1-3.3,1.55-1.12-1.34-8-3-8.36-.65-4.83-1-.63.95-7.44-6.19-6.42-2.72-4.85-4.43,3.94-1.32,4.27-6.58-3.11-2.94,7.69-3.43-.24-1.66-4.66,1.41,0-3.4,2.59-2.24,5-.79.66-2.59-1.4-4.16,1.81-4.11-.2-2.23-7.52-2.13-2.91.18-3.2-3.48-3.77,1.3-6.3-2.62.1-1.49-1.74-3.3-3.88-.39-.37-2.35,1.23-1.53-3-4.32-4.94.63-1.42-.42L328,205l-1.77-.38-.92-4.87-1-2.56.94-.66,3.73.39,1.87-1.59-1.25-2-3-1.42.33-1.34-1.78-1.44-2.53-5,1.09-2-.21-3.51-4.15-2-2.36.74-.45-1.88-4.36-2.17-.89-4.46,0-3.59-1.8-1.86,2.05-2.18-.4-6.9,3.31-4-.45-1.31,4.84-3.67-3.64-3.72,8.87-8.63,3.67-4,1.58-3.57-4.8-5.09,1.77-4.5-2.52-5.38,2.72-5.83-2.83-8,3.27-5-3.93-4.79,1-4.67,2.29-.48,4.89-2.43,2.92-2.21,4.27,4.15,7.56,1.6,11.2,7.26,2.58,3.08.69,4.54-3.06,3.81-5,2.08-14-5.09-2.28.83,5,5.12.19,3.22.19,7.15,4.36,2.11,2.71,1.79.32-3.42-2.11-3,2-2.68,8.22,4.05,2.63-1.85-2.62-5,6.61-7.23,2.89.16,3.26,2.14,1-4.88-3.15-3.8.77-4.19-2.76-4,8.26,1.3,2.42,3.54-3.49,1.28.73,3.77,2.82,2,4.3-2.09-.3-4.4,5.12-4.12L393.29,79l2.11-.12-1.23,4.53,3.63-.05,1.09-2.67,4.91-1.4,2.69-3.68m-.88,182.65-2.51-45-2.55,8.8,1.69,1.36-2,6.11,5.1,4.59m-43-225.3-1.39,1-1,.62.12,1-1.23,1.17L357,11.38l.24-1.89-2.82.17,2.15-1.33L358.41,8l.73,1.49L359.4,8l.81-1.11,2.22.92Zm44-18L404-9l-2.65-4.19"/><path class="cls-7" d="M122,288.55l.19,5.5-1.28,4.51L120,307l.85,2.17-1.93,2.35-7.27-2.06-3.29,1.49-3.22-.88L103,315.23l-7-.3-3.23,2.49L87.95,317l-5.41-1.75-9.91.45-3,8.28-.75-.45-1.2,3.8-3.15-1.65-2.16.58-2.22-1.4-1.42-2L54.44,321l-3.52,4.32-1.65-.5-5.33,7.11-9.1,2.72-4.72,8.26-2.91,1.62-1.34,2-10.4-7.43-.08-.08,1.26-2.94,2.32-.47,2.67-2.34.51-2.51,3.23-3.54,4.06-2.36,1.91.06,2.66-3,1.45-3.55,3.22-3,4-.27,5.62-4.9.12,0,3.33-1,4.63,2.2,5.52-2.26,3.11-.3,6.24-3.28,2.26-9.39,4.25-4.85L79.89,288l5-2.86,6.06-.39,4.73-.87,6.23-5.48,3.31-3.51,3.51,1.95,1.68,4.54,4.85,1.92,4.55,4.14Z"/><path class="cls-7" d="M31.4,399.35l-1.66-.94L28,401.76l-2,.05-2.33-6.89-1.86-7L19,383.76,17.2,380.1l-2.69-1.94-2.67-.31-2.18-2.39-2.15.86.53-3.9,2.17-2.23,2.3-5.84,1.41-7,.44-3.76,1.49-3-.17-4.12-1.42-4.79,1.7-1.46L34.13,354l2.22-10.48,2.33-2.68,4.72,2.51,5.91-17.67,15.93,10.66,3.67-10.53,14,28L96,378l-27.31,3"/><path class="cls-7" d="M179.94,398.68l-4.49-4.83-3.25.47-1.52-4.75.35-3.22-2.67-6.48,3.1-2.31.41-4.79,1.65-3.79.24-3.52,2.38-5.72.42-3.54-.5-7.15,3.35-.83,1.23-3,.05-3.27,4.78-1.67,2.4-1.87,3.4-1.33,1.64-5.65,6.46,4.47h2.68l4.81,2.52,7.47,5.3L216,351.1l5.39,2.68,8.4,5,6.27,5,3.43-1.41,3.56-2.95-.68-6.09,2.51-3.36,5.05-2.82,4.51-.35,8.4,2.81,1.8,3.71,2.4.35,1.9,1.56,6.34,1.66,1.35,2.72L274,363l.71,3.38-2.12,4.52,1.43,6.36"/><path class="cls-7" d="M346.71,350l-1.75.11-.58,1.36h-2.18l2.29-6.29,3.15-5.47.11-.27,2.88.37,1.08,3-3.46,3Z"/><path class="cls-7" d="M344.94,356.87l1.14-2.44,7.31,3,12.54-8.59,3,9.27-1.21,1.22-13.09,4.28,6.79,7.49-2.18,1.37-1.05,2.6-5.11,1.18L351.5,379l-2.9,2.39L341,380.19l-.22-1.12,3.35-12.25-.17-3,1-2.26Z"/><path class="cls-7" d="M346.09,354.43l-1.14,2.44-2.36-1.06-1.37,5.12,1.64.87-1.69,1.06-.29,2,3.12-1,.17,3-3.35,12.25-4.32-13.19,1.92-2.52-.45-.43,1.77-3.6,1.33-5.8.94-2,.19-.08h2.18l.58-1.36,1.75-.11.12,3.16-.88,1.17Z"/><path class="cls-7" d="M406.84,378.13,387,364.47l-10.08-4.72-8-1.67-3-9.27L379.77,340l1.82-9.5-.95-5.61,3.26-2.15,2.8-5.06,2.53-1.42,7.21.35,2.32,1.74,2.8-1.61,4.93,8.75"/><path class="cls-7" d="M284-13.42l4,.26,5.62,1.29,1,2.36-2,2.07-7.38.53-1.84.56L279.88-7.8,281.39-6,276-4,271.25-2l-6.88,4.47-2.81,3.73-1.85-1.23-3.61-.25-1.41,3.93-5,3.83-1.78-.71-3.76,5.06-3.09-2.12-1.14,3-2.57,1.16-2.68-1L233,16.23l-2.76,4.4-2.75,1.94.17-4.26-2.31.46.05,2.79-2.13,4.36L218.85,30l-3.65-1.6,1.4-2.76,2.11-4.15-3.91,3.35-4.82.58,3.18,4,1.58,2.19h-9.16l-8.64-.79-5.88-3.33-1.3-1.83L186,25.46l-8.56,1.74L170.53,26l-1-1.16-2.92-1.62-2.84-1.94-4.93.56-4.76,2.54-4.86,1.37-6.68-.56L137.67,29l-5.86,2.1-6.87,2.54-1.42-3.15L128,23.94l-1-4.75,3.31-4.12,6.44-4.7L145,2.74l4.44-3L155.67-3l6.38-5.22,5.26-1.15,2.47-2.14,8.46-1,2.88,1.8,3.09-.33,5.71-1.53-2.76-1.1"/><path class="cls-7" d="M344.94,356.87l0,4.71-1,2.26-3.12,1,.29-2,1.69-1.06-1.64-.87,1.37-5.12Z"/><path class="cls-7" d="M405.17,285.47l-4.54-1.71-1.26,1.41-7.89,2-5.91-3.29-6.11.84.62-3.37-1.84-5.17-3.47-2.63-3.19-.7-2.21-2.26.63-.95,4.83,1,8.36.65,8,3,1.12,1.34,3.3-1.55,5.43,1,2.12,3,3.8,1.35-1.33,1.24"/><path class="cls-7" d="M40,24.8l-1.32,2.92-.5,3-1.94-.14-.09-1,3.37-5.8,2.08-2,1.39.16Zm13.23-3,.21-1.49,2.74-5.17,3.5-4.47.21.8-2.46,4.94-3.11,4.65Zm7.33,12.14-5.13,1.2,1.92.78L56,38.86l-2,.22L52.29,43l1.44.51L52,47.88l-4.32,2,1.09,1.56L45.71,54l-3.52,3.61-5.08,2.31-.27-1.36,1-3,4.67-2.67.71-1.43-5-.31L38.52,49l2.62.45,1.47-4.15L42.46,42l.77-6.51L45,33.87l1.78.72,1.74-2.43,3.22.48L60.9,30l3.32-.17,2,1.39-.29,1.57-1.63.41ZM109.71-8l-8.36,6.14-3.85.7L93.26,4.14l-4,4.23-2.12,5.27L85,16.5l-5.4,4-.93,2.71-2.38,2.5-6.94,4.25-2.23-.83-2-.91-1.72-3.78-4.43-1-.08-4.72,2.7-7.34,1.3-4.65.57-3-3.3-.36L59.05.78,53.46.32,50-.5l-.33,2.22,5.17,1,2.37,4-.86,4.37-3.6,4.44-3-.76-6.36,4.73-4.49,3.75-3.84,6.18-.37,5.06,5.71-.87-4.1,3L34,40.16l-3-1.69-1.7-5.34L28,31.23,25.25,30l1.2-2.93L31,23.89l2.72,2.93,1.39-5.31.58-3.34L39.48,14l7.47-4.58,2.13-2.38L49,5.44l1.89-1.91-3.12-.06L44,5,42,5.3l-.18-.9.23-.9L40.94,4,44-2.1l2.71-4.95L46.6-8,45-9.2l-.14-.16-1.28.15,2-3m-1-1.61"/><path class="cls-7" d="M254.69,252.52l1.91.32-2,3.1,2,3.39-1.48,3.44-1.33.1-1.15.52-2.1,1.45-1.63,4-4.23-3.81-1.36-3.57-1.67-2.1-1.79-3.33-.62-2.58-1.72-4.09,1.85-2.88,1.43,2.14,1.49-1.33,2.47.34,4.21,2.16,3.65.59Z"/><path class="cls-7" d="M113.7,402.81,97.37,378.58,82.86,353.81l-14-28,.59-1.29.15-.47,3-8.28,9.91-.45L87.94,317l4.84.36L96,314.92l7,.3,2.09-5.17,3.22.88,3.29-1.49,7.27,2.06,1.93-2.35L120,307l.9-8.43,1.28-4.51-.19-5.5,6.34-1.63,6,1.26,4.32-1.56,5.77-.07,9.31,2.32,9,2.75,2.37,2.08,6-1.1,5.84,1.93L178.6,297l3.91.77-2.21,3.45-1.07,7.37-3,5.71-4.63,3-1,5.74,3.58,6-.39,1.81,2.88,4.13-.61,14.12.5,7.15-.42,3.54-2.38,5.72-.24,3.52-1.65,3.79-.41,4.79-3.1,2.31,2.67,6.48-.35,3.22,1.52,4.75,3.25-.47,4.49,4.83"/></g>
		<g id="turquicas">
			<path id="ALEMANIA" onmouseover="displayName('ALEMANIA');displaySecondLanguage('Turco')" class="turquicas" d="M233.54,167.94l-1,2.75,3.53,2.87-1,2.52,4.72-.17,3-1.35,3.8,4.06,1.3,2.8-.14,3.93L246,187l.81,3-.05,4.17-1.09,2.45.52,5.12-2.26.29-1-1.13L241.43,202l-3.71.6-2.25,1.4-3.82.72.12,2.39-.46,3.23,1.83,2.39,1.73,3.84-2.68,3-2,.5-.72,5-.82,1.14-1.07-1.91-2.24-.84-3.85.4-4.11-1.51-1.3,1.75-1.74-2.75-1.55,0-4.27-3.79L207,218.8l-3.93-1.33,2.48-5,4.13-4.22-6-3.48-1.35-2.61,1.5-3-.23-1.92,2.46-4.64,2.37-7.7,2.52.88,2.15-2.31,3.69-6.13.24-2.64,1.41-1.23,3.55.74.14,1.81,4.16-2.62.13-2.94,1.42-4.05,2.66,1.87Z"/>
			<path id="CHIPRE" onmouseover="displayName('CHIPRE');displaySecondLanguage('Turco')" class="turquicas" d="M334.89,336.24l.18.62-6.59,3-3.1-1.08L324,335.65l3-.2,1.18.43,1.73-.62,1.23.11.45.48.1.79.32-.29,1,.18,1.22-.57Z"/>
			<path id="BULGARIA" onmouseover="displayName('BULGARIA');displaySecondLanguage('Turco')" class="turquicas" d="M273.41,260.43l1.1,3.35,2.21-.27,4,1.73,8.06,1.33,3-1.68,6.68-1.17,3.77,3.13,3.2,1.05-3.16,3-2.53,5.36,1.45,4.55-4.82-1.44-6.05,1.88-.46,3.84-5.3.19-3.72-3.16L276,283.64l-4.2-.78.31-5.14-2.45-2.86,1.09-.95-.47-1,1.31-2.3,2.45-2.11-2.18-3.67,0-2.87Z"/>
			<path id="AUSTRIA" onmouseover="displayName('AUSTRIA');displaySecondLanguage('Turco')" class="turquicas" d="M249.75,225.91l-1.11,3-2.78-.57.55,1.83-2.83,4.46-1.27,1.05-4.44-.79-3,1.1-4-1.56-6.53-3.73-.32-2.86-5.18,0-1,1.24-2.61-1.88-2.39-.92-1.71-2,1.32-1.58.27-1.35,1.55,0,1.74,2.75,1.3-1.75,4.11,1.51,3.85-.4,2.24.84,1.07,1.91.82-1.14.72-5,2-.5,2.68-3,2.86,3.26,3.55-2.4,1.84-.17,3.13,3.1,2.38.1,1.89,1.88-.63.86Z"/></g>
		<g id="uralicas">
			<path id="CROACIA" onmouseover="displayName('CROACIA');displaySecondLanguage('Húngaro')" class="uralicas" d="M255.38,244.41l.66,3.16,1.25,2.46-2.6,2.49-2-2.13-3.65-.59-4.21-2.16-2.47-.34-1.49,1.33-1.43-2.14-1.85,2.88,1.72,4.09.62,2.58,1.79,3.33,1.67,2.1,1.36,3.57,4.23,3.81-.87,1.18-4.55-3.81L241,262.87l-4.38-3.29-3.1-6.54,1.19-.32L233.1,249l.55-2.56-3-2-2.42,2.86-.84-2.88.81-2.57.21-.07,3.48,1.12,1.27-1.05,1.41,1.63,2,.62L237,242l2-.37,1.24-2.93,4.51-1.12,1.39,1.26,3.09,4,3.94,2.28Z"/>
			<path id="ESLOVAQUIA" onmouseover="displayName('BULGARIA');displaySecondLanguage('Húngaro')" class="uralicas" d="M261.26,217.43l.18.49,2.21-.66,1.89,3.09,3.23-1.11,2.16,1.15,3.73-.51,4.18,3.58-1.71,1.77-1.51,2.9-1.2.62-4.92-3.12-1.72.19-1.53,1.58-2.52.54-.44-.58-2.66.73-2-.14-.72,1.44-4.39.11-1.66-1.17-2.05-2.44.13-2.69.63-.86,1.08-1.51,2.12.57,1.85-.45.28-.66,1-.18.7-1.64,1.19-.11,1.05-1.21Z"/>
			<path id="SERBIA" onmouseover="displayName('SERBIA');displaySecondLanguage('Húngaro')" class="uralicas" d="M273.41,260.43l-1.6,1.54,0,2.87,2.18,3.67-2.45,2.11-1.31,2.3.47,1-1.09.95-2.6-.24-2,.15-.09-.6.81-.8.92-1.77-.79-.08-.85-1.59-.86-.5-.51-1.33-.95-.64-.61-1.2-1.06.27L259.91,269l-1.4.34.55-.59-1.81-1.93-1.64-1.13-.59-1.2-1.2-1.57,1.33-.1,1.48-3.44-2-3.39,2-3.1-1.91-.32,2.6-2.49L256,247.58l-.66-3.16,4.38-1.28,3.16.9,2.29,3.45.15,2.51,2.91,2.3-.11,3.2,2.77,2.68,2-1.47,1.19,1.14L272.62,259Z"/>
			<path id="RUMANÍA" onmouseover="displayName('RUMANÍA');displaySecondLanguage('Húngaro')" class="uralicas" d="M278.08,232.67l2.45-1.32,3,1.25,3.26.43,2.12,2.14,1.91-1,3.87-.33,1.48-1.66,2.17.21,1.47.88,1.35,2.41,1.34,3.37,2.59,4.79-.13,3.38-.87,3.23.66,3.58,2.3,1.59,2.65-1.07,2.37,1.48,0,2-2.77,1.49-1.6-.83-2.28,9.18-3.2-1.05-3.77-3.13-6.68,1.17-3,1.68-8.06-1.33-4-1.73-2.21.27-1.1-3.35-.79-1.48,1.46-1.11-1.19-1.14-2,1.47-2.77-2.68.11-3.2-2.91-2.3-.15-2.51L262.92,244l4.44-.76,4-4.66,3.3-4.79Z"/></g>
			<g id="Capa_7" data-name="Capa 7"><rect id="Degradado" class="cls-10" x="158.5" y="-161.5" width="59" height="376" transform="translate(214.5 -161.5) rotate(90)"/><text class="cls-11" transform="translate(10.56 20)">El segundo idoma más hablado en Europa</text><text class="cls-12" transform="translate(17.41 34)">Haz clic en cada país para saber cuál es la segunda lengua más hablada</text><text class="cls-13" transform="translate(3.58 257.25)">Familias lingüísticas</text><text class="cls-14" transform="translate(3.34 270.25)">INDOEUROPEAS</text><text class="cls-15" transform="translate(3.1 281.25)">URALICAS</text><text class="cls-16" transform="translate(2.84 291.89)">TURQUICAS</text><text class="cls-13" transform="translate(5.46 367.25)">Fuente: Ethnologue y CIA Factbook</text><text class="cls-13" transform="translate(297.24 368.25)">LA VANGUARDIA</text>
		</g>
		<rect class="cls-17" x="1" y="73" width="100" height="32"/>
 	<text class="label" id="country-name" x="5" y="85"> </text> 
 	<text class="label2" id="SecondLanguage" x="5" y="100"> </text>

 	<script type="text/javascript"><![CDATA[  
    function colourCountry(country_name, colour) {
        var country = document.getElementById(country-name);
        country.setAttributeNS(null, 'fill', colour);
    }
  
    function displayName(name) {
        document.getElementById('country-name').firstChild.data = name;
    }

    function displaySecondLanguage(language2) {
        document.getElementById('SecondLanguage').firstChild.data = language2;
    }
]]></script>

		</svg>