<svg id="Capa_1" data-name="Capa 1" 
	xmlns="http://www.w3.org/2000/svg" 
	xmlns:xlink="http://www.w3.org/1999/xlink" 
	viewBox="0 0 313 326"><defs>
	<style>
		@import url('https://fonts.googleapis.com/css?family=Open+Sans');
		.label {
        	font-family: OpenSans-Semibold, Open Sans;
        	font-size: 8px;
        	fill: #323232;
     	}

     	.label2 {
        	font-family: OpenSans-Semibold, Open Sans;
        	font-size: 10px;
        	fill: #ffffff;
     	}
		.indoeuropeas {
			fill:#a3d8d5;
			stroke: white;
			stroke-width: 0.5;
			stroke-opacity: 0.5;
		}
		.indoeuropeas:hover {
			opacity:0.5;
		}
		.nigerocongolesas {
			fill:#1c478c;
			stroke: white;
			stroke-width: 0.5;
			stroke-opacity: 0.5;
		}
		.nigerocongolesas:hover {
			opacity:0.5;
		}
		.afroasiaticas {
			fill:#af0047;
			stroke: white;
			stroke-width: 0.5;
			stroke-opacity: 0.5;
		}
		.afroasiaticas:hover {
			opacity:0.5;
		}

		.joisanas {
			fill:#b1e02d;
			stroke: white;
			stroke-width: 0.5;
			stroke-opacity: 0.5;
		}
		.josianas:hover {
			opacity:0.5;
		}
		.cls-1{opacity:0.25;}
		.cls-2,.cls-3{fill:none;}
		.cls-2{stroke:#777;stroke-opacity:0.5;opacity:0.57;}
		.cls-2,.cls-3,.cls-6,.cls-8{stroke-width:0.5px;}
		.cls-3{stroke:#757575;opacity:0.5;}
		.cls-4{fill:#ddd;}
		.cls-16{fill:#a3d8d5;}
		.cls-6,.cls-8{stroke:#fff;}
		.cls-6{stroke-miterlimit:10;}
		.cls-6{fill:#7fc6c4;}
		.cls-20{fill:#b1e02d;}
		.cls-19,.cls-8{fill:#ed586e;}
		.cls-18{fill:#af0047;}
		.cls-17{fill:#1c478c;}
		.cls-11{fill:url(#Degradado_sin_nombre_3);}
		.cls-12{font-size:13px;fill:#323232;}
		.cls-12,.cls-16,.cls-17,.cls-18,.cls-19,.cls-20{font-family:OpenSans-Semibold, Open Sans;font-weight:700;}
		.cls-13,.cls-16,.cls-17,.cls-18,.cls-19,.cls-20{font-size:8px; }
		.cls-13,.cls-14,.cls-15{fill:#757575;font-family:OpenSans, Open Sans;}
		.cls-14{font-size:7px;}.cls-15{font-size:9px;}
		.cls-21{fill:#c1c1c1;opacity:0.55;}
	</style>
		<linearGradient id="Degradado_sin_nombre_3" x1="287" y1="-129" x2="336" y2="-129" gradientTransform="translate(-155.5 153.5)" gradientUnits="userSpaceOnUse"><stop offset="0.16" stop-color="#fff"/><stop offset="0.38" stop-color="#fff" stop-opacity="0.99"/><stop offset="0.49" stop-color="#fff" stop-opacity="0.96"/><stop offset="0.59" stop-color="#fff" stop-opacity="0.91"/><stop offset="0.66" stop-color="#fff" stop-opacity="0.83"/><stop offset="0.73" stop-color="#fff" stop-opacity="0.73"/><stop offset="0.8" stop-color="#fff" stop-opacity="0.61"/><stop offset="0.86" stop-color="#fff" stop-opacity="0.47"/><stop offset="0.92" stop-color="#fff" stop-opacity="0.31"/><stop offset="0.97" stop-color="#fff" stop-opacity="0.12"/><stop offset="1" stop-color="#fff" stop-opacity="0"/></linearGradient></defs><title>2018.10_Africa</title><g id="base" class="cls-1"><path class="cls-2" d="M146.8,425.57l5,.23m-5-.23-25.86-1.18m25.86,1.18-35.11-21.42-29.76-53L62,274.53l-7-88.46L61.57,102,80.2,31.37l28.09-47.18,33.56-17m5,458.4,80.45-19.18,68.2-51.13L341,279.95l16-88-13.61-80.81L304.33,41.38,244.85-8.29,172.66-31.43M-82.57,196.48l.07-.28.47-.5.9-.49,1.34-.49,1.77-.49,2.2-.48,2.62-.48,3-.47,3.45-.47,3.86-.46,4.26-.45L-54,191l5-.43,5.4-.42,5.76-.41,6.12-.39,6.46-.38,6.78-.36,7.1-.35,7.4-.33,7.69-.32,8-.3,8.21-.28,8.46-.27,8.68-.25,8.89-.23,9.08-.21,9.26-.19,9.41-.17,9.55-.15,9.67-.13,9.78-.11,9.86-.08,9.93-.06,10,0,10,0h10l10,0,10,0,9.92.07,9.85.09,9.76.11,9.66.13,9.54.15,9.39.17,9.23.19,9.06.21,8.86.23,8.65.25,8.42.27,8.18.29,7.92.3,7.65.32,7.36.34,7.05.35,6.74.37,6.41.38,6.07.39,5.72.41,5.35.42,5,.43,4.59.44,4.2.45,3.8.46,3.39.47,3,.47,2.56.48,2.14.48,1.71.49,1.28.49.84.49.41.5,0,.21M108.08,422.55l-7.36-1.38m6.33,1L4.36,376.26m102.86,45.61L24.33,389l-64.24-62.17-35.82-82-1.94-89.38,45-101.16L54.44-13.47m54.15,435L28.59,388l-62-62.72L-68,242.93l-1.87-89.39,21.52-65.69L-8.77,32.22l54-40.43L108.6-29.69m2.54,450.89L36.43,387l-57.89-63.24-32.28-82.61-1.75-89.41L-35.4,86.21l37-55.3L52-9.06,111.13-30m3.62,450.92L47.63,386.07l-52-63.71-29-82.88L-35,150.06l18-65.34,33.2-55L61.58-9.84,114.75-30.3m4.59,451-57.5-35.39L17.28,321.14-7.56,238l-1.35-89.43L6.55,83.4,35,28.67,73.79-10.52l45.55-20m5.43,451L78.64,384.61,42.89,320.13,23,236.82l-1.08-89.44L34.28,82.3,57.1,27.8,88.23-11.09l36.55-19.68m12.68,450.94-19.58-36.41-15.18-64.92-8.46-83.55-.46-89.46L99,80.9l9.69-54.22,13.21-38.5L137.45-31m6.87,451.16-5.2-36.52-4-65L132.83,235l-.12-89.46,1.4-64.89,2.57-54.17L140.19-12l4.12-19.14m6.94,451.22,9.33-36.5,7.23-65,4-83.59.22-89.46-2.51-64.9-4.62-54.18-6.3-38.44-7.39-19.15m6.81,451.28,23.58-36.36L199.92,319l10.19-83.53.55-89.46L204.32,81,192.66,26.79,176.74-11.75,158.06-31m6.46,451.34,37.12-36.1,28.77-64.68,16-83.41.87-89.45-10-65L219,27.3l-25-38.72L164.52-30.89m5.92,451.39L220,384.78l38.38-64.39,21.4-83.25,1.16-89.44L267.6,82.59,243.1,28l-33.41-39L170.45-30.72m5.21,451.44,60.43-35.24,46.83-64,26.11-83L310.44,149,294.19,83.75,264.3,29,223.53-10.34,175.65-30.49M180,421l69.49-34.68,53.86-63.58,30-82.8L335,150.51,316.31,85.13,281.93,30,235-9.62,180-30.22m5.53,451.84,81.08-33.37,62.84-62.56,35-82.23,1.9-89.39L345.43,90,307.09,35.32,254.71-5.28,192.88-28.21M186.55,422l83.25-32.65,64.52-62,36-81.93L372.24,156,343.52,78.7l-54.28-62M186.38,422.31l52.78-15.88M108.58,422.64h-.05l-.44-.08-.37-.08-.3-.08-.22-.09-.15-.09-.07-.09V422l.08-.09.16-.09.23-.09.31-.08.38-.08.45-.08.53-.08.6-.08.67-.08.74-.08.81-.08.87-.07.94-.07,1-.07,1.06-.07,1.12-.07,1.18-.06,1.23-.06,1.28-.06,1.33-.06,1.38-.05,1.43,0,1.47,0,1.51,0,1.54,0,1.58,0,1.61,0,1.63,0,1.66,0,1.68,0,1.7,0H153l1.71,0,1.7,0,1.68,0,1.66,0,1.63,0,1.6,0,1.57,0,1.54,0,1.5,0,1.46,0,1.42,0,1.38.05,1.33.06,1.28.06,1.23.06,1.17.06,1.11.07,1.05.07,1,.07.93.07.86.07.8.08.73.08.66.08.59.08.52.08.44.08.37.08.3.08.22.09.15.09.07.09v.09l-.08.09-.16.09-.23.09-.31.08-.38.08-.44.08M69.1,412.29l-.3-.12L68.5,412l-.14-.17v-.17l.16-.17.31-.17.46-.17.6-.17.75-.17.9-.16,1-.16,1.18-.16,1.32-.16,1.46-.15,1.59-.15,1.72-.15,1.85-.14,2-.14,2.09-.13,2.21-.13,2.32-.12,2.43-.12,2.53-.11,2.63-.11,2.72-.1,2.81-.1,2.89-.09,3-.08,3-.08,3.11-.07,3.17-.06,3.22-.06,3.27-.05,3.31,0,3.34,0,3.37,0,3.39,0h13.67l3.41,0,3.39,0,3.37,0,3.34,0,3.3,0,3.26.05,3.21.06,3.16.07,3.1.07,3,.08,3,.09,2.88.09,2.8.1,2.71.1,2.62.11,2.52.11,2.41.12,2.3.13,2.19.13,2.08.13,2,.14,1.83.14,1.7.15,1.57.15,1.44.15,1.3.16,1.16.16,1,.16.88.16.73.17.58.17.44.17.29.17.14.17v.17l-.16.17-.31.17-.26.1M32.56,395.37l-.22-.15-.2-.25,0-.25.23-.25.45-.25.67-.25.88-.24,1.1-.24,1.31-.24,1.52-.24L40,392.8l1.93-.23,2.13-.22,2.32-.22,2.51-.21,2.7-.21,2.88-.2,3.06-.2,3.23-.19,3.39-.18,3.55-.17,3.7-.17,3.84-.16,4-.15,4.11-.14L87.6,390l4.34-.12,4.45-.11,4.54-.1,4.63-.09,4.71-.08,4.78-.07,4.84-.06,4.89-.05,4.93,0,5,0,5,0h15l5,0,5,0,4.93,0,4.88.05,4.83.06,4.77.08,4.7.09,4.62.1,4.53.11,4.43.12,4.33.12,4.21.13,4.09.14,4,.15,3.82.16,3.68.17,3.53.18,3.37.18,3.2.19,3,.2,2.86.2,2.68.21,2.49.21,2.3.22,2.1.22,1.9.23,1.7.23,1.49.24,1.28.24,1.07.24.85.24.64.25.42.25.2.25,0,.25-.23.25-.17.11m-261.41-23-.24-.3,0-.32.3-.32.58-.32.86-.32,1.14-.31,1.41-.31,1.68-.31,2-.3,2.22-.3L12,369l2.74-.29,3-.28,3.23-.28,3.47-.27,3.71-.26,3.93-.25,4.15-.24,4.36-.23,4.56-.22,4.76-.21,4.94-.2,5.12-.19,5.28-.18,5.44-.17,5.58-.16,5.71-.15,5.84-.13,6-.12,6.05-.11L106,365l6.22-.08,6.28-.07,6.34-.05,6.38,0,6.41,0h19.29l6.41,0,6.37,0,6.33.06,6.28.07,6.21.08,6.13.1,6,.11,5.94.12,5.82.14,5.7.15,5.56.16,5.41.17,5.26.18,5.09.19,4.92.21,4.73.22,4.53.23,4.33.24,4.12.24,3.9.25,3.67.26,3.44.27,3.2.28,3,.28,2.7.29,2.44.29,2.18.3,1.92.3,1.65.31,1.37.31,1.1.31.82.32.54.32.26.32,0,.32-.23.26m-322.7-28.3-.14-.22,0-.38.36-.38.69-.38,1-.38,1.35-.37,1.68-.37,2-.37,2.33-.36,2.64-.36,3-.35,3.26-.34,3.56-.34,3.85-.33L1,338.88l4.42-.31,4.69-.3L15,338l5.2-.28,5.44-.27,5.67-.26,5.89-.24,6.1-.23,6.29-.22,6.48-.2,6.65-.19,6.81-.17,7-.16,7.09-.14,7.21-.13,7.32-.11,7.41-.1,7.49-.08,7.55-.06,7.6,0,7.64,0,7.66,0h7.67l7.66,0,7.63,0,7.6.05,7.55.07,7.48.08,7.4.1,7.3.12,7.2.13,7.07.15,6.94.16,6.79.18,6.63.19,6.45.2,6.27.22,6.07.23,5.86.24,5.64.26,5.4.27,5.16.28,4.91.29,4.65.3,4.38.31,4.1.32,3.81.33,3.52.34,3.22.34,2.91.35,2.6.36,2.28.36,2,.37,1.64.37,1.31.37,1,.38.65.38.31.38,0,.38-.11.17m-374.09-32.8-.05-.11,0-.43.4-.43.78-.43,1.16-.43,1.53-.42,1.9-.42,2.27-.41,2.63-.41,3-.4,3.34-.4,3.69-.39,4-.38,4.36-.37,4.68-.36,5-.35,5.3-.34,5.59-.33,5.87-.32,6.15-.3,6.41-.29,6.66-.27,6.89-.26,7.11-.25,7.32-.23,7.52-.21,7.7-.2,7.87-.18,8-.16,8.15-.15,8.27-.13,8.38-.11,8.47-.09,8.54-.07,8.6-.05,8.64,0,8.66,0h8.67l8.66,0,8.63,0,8.59.06,8.53.08,8.46.09,8.36.11,8.26.13,8.13.15,8,.17,7.84.18,7.68.2,7.49.22,7.3.23,7.08.25,6.86.26,6.62.28,6.37.29,6.11.3,5.84.32,5.55.33,5.26.34,4.95.35,4.63.36,4.31.37,4,.38,3.64.39,3.29.4,2.94.4,2.58.41,2.22.41,1.85.42,1.48.42,1.11.43.73.43.35.43,0,.43,0,0M-68.7,275l0-.46.44-.47.85-.46,1.26-.46,1.66-.46,2.06-.45,2.46-.45,2.85-.44,3.24-.44,3.62-.43,4-.42,4.37-.41,4.73-.4,5.08-.39,5.42-.38,5.75-.37,6.07-.36,6.37-.34,6.67-.33,7-.31,7.22-.3,7.48-.28,7.72-.27,7.95-.25,8.16-.23,8.35-.21,8.53-.2,8.7-.18,8.85-.16,9-.14,9.09-.12,9.19-.1,9.27-.08,9.33-.06,9.37,0,9.4,0h9.4l9.39,0,9.37,0,9.32.06,9.26.08,9.17.1,9.08.12,9,.14,8.83.16,8.68.18,8.51.2,8.33.22,8.13.23,7.92.25,7.69.27,7.44.28,7.19.3,6.91.32,6.63.33,6.33.34,6,.36,5.7.37,5.37.38,5,.39,4.68.4,4.32.41,3.95.42,3.57.43,3.19.44,2.8.44,2.41.45,2,.45,1.6.46,1.2.46.79.46.38.47v.4M-79.07,236.36-79,236l.46-.49.89-.49,1.32-.48,1.74-.48,2.16-.48,2.58-.47,3-.47,3.4-.46,3.8-.45,4.19-.44,4.58-.43,5-.42,5.32-.41,5.68-.4,6-.39,6.36-.37,6.68-.36,7-.34,7.29-.33,7.57-.31,7.84-.3,8.09-.28,8.33-.26,8.55-.24,8.76-.22,8.94-.2,9.12-.19,9.27-.17,9.41-.15,9.53-.12,9.63-.1,9.71-.08,9.77-.06,9.82,0,9.85,0h9.86l9.84,0,9.82,0,9.77.07,9.7.09,9.62.11,9.51.13,9.39.15,9.25.17,9.09.19,8.92.21,8.73.23,8.52.25,8.3.26,8.06.28,7.8.3,7.53.31,7.25.33,6.95.35,6.64.36,6.31.37,6,.39,5.63.4,5.27.41,4.9.42,4.52.43,4.14.44,3.74.45,3.34.46,2.94.47,2.52.47,2.1.48,1.68.48,1.26.48.83.49.4.49,0,.32M-79.07,156.59l.06-.17.46-.49.89-.49,1.32-.48,1.74-.48,2.16-.48,2.58-.47,3-.47,3.4-.46,3.8-.45,4.19-.44,4.58-.43,5-.42,5.32-.41,5.68-.4,6-.39,6.36-.37,6.68-.36,7-.34,7.29-.33L5.95,148l7.84-.3,8.09-.28,8.33-.26,8.55-.24,8.76-.22,8.94-.2,9.12-.19,9.27-.17,9.41-.15,9.53-.12,9.63-.1,9.71-.08,9.77-.06,9.82,0,9.85,0h9.86l9.84,0,9.82,0,9.77.07,9.7.09,9.62.11,9.51.13,9.39.15,9.25.17,9.09.19,8.92.21,8.73.23,8.52.25,8.3.26,8.06.28,7.8.3,7.53.31,7.25.33,6.95.35,6.64.36,6.31.37,6,.39,5.63.4,5.27.41,4.9.42,4.52.43,4.14.44,3.74.45,3.34.46,2.94.47,2.52.47,2.1.48,1.68.48,1.26.48.83.49.4.49,0,.11M-68.7,117.93l0-.06.44-.47.85-.46,1.26-.46,1.66-.46,2.06-.45,2.46-.45,2.85-.44,3.24-.44,3.62-.43,4-.42,4.37-.41,4.73-.4,5.08-.39,5.42-.38,5.75-.37,6.07-.36,6.37-.34,6.67-.33,7-.31,7.22-.3,7.48-.28,7.72-.27,7.95-.25,8.16-.23,8.35-.21,8.53-.2,8.7-.18,8.85-.16,9-.14,9.09-.12,9.19-.1,9.27-.08,9.33-.06,9.37,0,9.4,0h9.4l9.39,0,9.37,0,9.32.06,9.26.08,9.17.1,9.08.12,9,.14,8.83.16,8.68.18,8.51.2,8.33.22,8.13.23,7.92.25,7.69.27,7.44.28,7.19.3,6.91.32,6.63.33,6.33.34,6,.36,5.7.37,5.37.38,5,.39,4.68.4,4.32.41,3.95.42,3.57.43,3.19.44,2.8.44,2.41.45,2,.45,1.6.46,1.2.46.79.46.38.47h0M-51.75,81.65l.38-.38.78-.43,1.16-.43L-47.9,80l1.9-.42,2.27-.41,2.63-.41,3-.4,3.34-.4,3.69-.39,4-.38,4.36-.37,4.68-.36,5-.35,5.3-.34,5.59-.33,5.87-.32,6.15-.3,6.41-.29,6.66-.27L29.83,74l7.11-.25,7.32-.23,7.52-.21,7.7-.2,7.87-.18,8-.16,8.15-.15,8.27-.13,8.38-.11,8.47-.09,8.54-.07,8.6-.05,8.64,0,8.66,0h8.67l8.66,0,8.63,0,8.59.06,8.53.08,8.46.09,8.36.11,8.26.13,8.13.15,8,.17,7.84.18,7.68.2,7.49.22,7.3.23,7.08.25,6.86.26,6.62.28,6.37.29,6.11.3,5.84.32,5.55.33,5.26.34,4.95.35,4.63.36,4.31.37,4,.38,3.64.39,3.29.4,2.94.4,2.58.41,2.22.41,1.85.42,1.48.42,1.11.43.73.43.3.32M-28.74,48.84l.24-.21.69-.38,1-.38,1.35-.37,1.68-.37,2-.37,2.33-.36,2.64-.36,3-.35,3.26-.34L-7,45l3.85-.33L1,44.37l4.42-.31,4.69-.3L15,43.47l5.2-.28,5.44-.27,5.67-.26,5.89-.24,6.1-.23L49.62,42l6.48-.2,6.65-.19,6.81-.17,7-.16,7.09-.14L90.82,41l7.32-.11,7.41-.1,7.49-.08,7.55-.06,7.6,0,7.64,0,7.66,0h7.67l7.66,0,7.63,0,7.6.05,7.55.07,7.48.08,7.4.1,7.3.12,7.2.13,7.07.15,6.94.16,6.79.18,6.63.19,6.45.2,6.27.22,6.07.23,5.86.24,5.64.26,5.4.27,5.16.28,4.91.29,4.65.3,4.38.31,4.1.32,3.81.33,3.52.34,3.22.34,2.91.35,2.6.36,2.28.36,2,.37,1.64.37,1.31.37,1,.38.65.38.17.16M-.36,20.54l.07-.06.58-.32.86-.32,1.14-.31,1.41-.31,1.68-.31,2-.3,2.22-.3L12,18l2.74-.29,3-.28L21,17.18l3.47-.27,3.71-.26,3.93-.25,4.15-.24,4.36-.23,4.56-.22,4.76-.21,4.94-.2L60,15.09l5.28-.18,5.44-.17,5.58-.16L82,14.43l5.84-.13,6-.12,6.05-.11L106,14l6.22-.08,6.28-.07,6.34-.05,6.38,0,6.41,0h19.29l6.41,0,6.37,0,6.33.06,6.28.07,6.21.08,6.13.1,6,.11,5.94.12,5.82.14,5.7.15,5.56.16,5.41.17,5.26.18,5.09.19,4.92.21,4.73.22,4.53.23,4.33.24,4.12.24,3.9.25,3.67.26,3.44.27,3.2.28,3,.28,2.7.29,2.44.29,2.18.3,1.92.3,1.65.31,1.37.31,1.1.31.82.32.54.32,0,0M32.56-2.42l.28-.14.67-.25L34.39-3l1.1-.24,1.31-.24,1.52-.24L40-4,42-4.22l2.13-.22,2.32-.22,2.51-.21,2.7-.21,2.88-.2,3.06-.2,3.23-.19,3.39-.18L67.75-6l3.7-.17,3.84-.16,4-.15,4.11-.14,4.23-.13,4.34-.12L96.39-7l4.54-.1,4.63-.09,4.71-.08L115-7.37l4.84-.06,4.89-.05,4.93,0,5,0,5,0h15l5,0,5,0,4.93,0,4.88.05,4.83.06,4.77.08,4.7.09,4.62.1,4.53.11,4.43.12,4.33.12,4.21.13,4.09.14,4,.15,3.82.16,3.68.17,3.53.18,3.37.18,3.2.19,3,.2,2.86.2,2.68.21,2.49.21,2.3.22,2.1.22,1.9.23,1.7.23,1.49.24,1.28.24,1.07.24.85.24.64.25.2.1M69.1-19.33l.2-.07.6-.17.75-.17.9-.16,1-.16,1.18-.16,1.32-.16,1.46-.15,1.59-.15,1.72-.15L81.7-21l2-.14,2.09-.13L88-21.36l2.32-.12,2.43-.12,2.53-.11,2.63-.11,2.72-.1,2.81-.1,2.89-.09,3-.08,3-.08,3.11-.07,3.17-.06,3.22-.06,3.27-.05,3.31,0,3.34,0,3.37,0,3.39,0h13.67l3.41,0,3.39,0,3.37,0,3.34,0,3.3,0,3.26.05,3.21.06,3.16.07,3.1.07,3,.08,3,.09,2.88.09,2.8.1,2.71.1,2.62.11,2.52.11,2.41.12,2.3.13,2.19.13,2.08.13,2,.14,1.83.14,1.7.15,1.57.15,1.44.15,1.3.16,1.16.16,1,.16.88.16.73.17.58.17.13,0M108.58-29.68h0l.53-.08.6-.08.67-.08.74-.08.81-.08.87-.07.94-.07,1-.07,1.06-.07,1.12-.07,1.18-.06,1.23-.06,1.28-.06,1.33-.06,1.38-.05,1.43,0,1.47,0,1.51,0,1.54,0,1.58,0,1.61,0,1.63,0,1.66,0,1.68,0,1.7,0H153l1.71,0,1.7,0,1.68,0,1.66,0,1.63,0,1.6,0,1.57,0,1.54,0,1.5,0,1.46,0,1.42,0,1.38.05,1.33.06,1.28.06,1.23.06,1.17.06,1.11.07,1.05.07,1,.07.93.07.86.07.8.08.73.08.66.08.59.08.46.07"/><path id="sphere" class="cls-3" d="M146.8,425.85l-24-1.26-23.71-3.76-23.19-6.21L53.51,406l-21.39-10.9L12,382-6.68,366.93l-17-17L-38.76,331.3l-13.08-20.14-10.9-21.39-8.6-22.41-6.21-23.19-3.76-23.71-1.26-24,1.26-24,3.76-23.71,6.21-23.19,8.6-22.41,10.9-21.39,13.08-20.14L-23.65,43l17-17L12,10.92,32.12-2.16l21.39-10.9,22.41-8.6,23.19-6.21,23.71-3.76,24-1.26,24,1.26,23.71,3.76,23.19,6.21,22.41,8.6,21.39,10.9,20.14,13.08L300.28,26l17,17,15.11,18.66,13.08,20.14,10.9,21.39,8.6,22.41,6.21,23.19,3.76,23.71,1.26,24-1.26,24-3.76,23.71-6.21,23.19-8.6,22.41-10.9,21.39L332.36,331.3,317.25,350l-17,17L281.62,382l-20.14,13.08L240.09,406l-22.41,8.6-23.19,6.21-23.71,3.76Z"/></g><g id="EXTRA"><path class="cls-4" d="M255.12,121.37l-2.28.94-.42,1.67.1,1.29-3.18,1.52-5.3,1.64-2.83,2.63-1.53.18-1.08-.25-1.92,1.55-2.2.69-3,.14-.89.2-.7,1-.93.26-.48,1-1.8-.11-1.13.5-2.55-.25-1.13-2.27-.07-2.1-.7-1.14-1-2.84L219,126l.72-.17-.54-1.75.38-.72-.32-1.65,1.46-1.17-.53-1.6.76-1.83,1.58,1,.93-.32h4.11l.68.39,3.47.44,1.32-.15,1,1.27,1.56-.59,2-3.88,3-1.61,9.51-1.19,3.6,6.25Z"/><path class="cls-4" d="M271,50.85,270,49l-3.81-1.45L263,45.93l-2.31-1.48-3.84-2.17L254,39.21l-1.09-.56-2.51,0-1.24-.63-1.53-2.3-4.06-1.61-1.16,1.58-1.6.92,1.14,1.46-2.82-.05-5.5-10.34,5.1-1.39.57.25L244,28.63l2.5,1.11,3.71,2.58,2.39-.3,3.63-.06,3.94,2.17L261.85,37l1.08.07,1.94,2.39,2.82.22,1.46,1.42.79,0-.41-2,1.4-1.87.79-.47.79.32-.43,1.78L274.31,40l.95-.65,3.4,1.68-1.15,2-1.75-.37-.8,0-.83-.84-.45-1.34-2.35.54.51,1.86,0,1.6-1.92-.23.2,1.3,2.05.8,1.79,2.29.47,3.06-2.09-.74Z"/><path class="cls-4" d="M79.64,5.64l-1.21-.41-1.27.07,1.31-1.19L79,3l1.72-.13L81.83,4.1ZM93.38-4.42,89.69-2.24l2.16-.32,2.1,0L92.25-1,89.14.94l2,.08v.22l.2,2.47L92.56,4l-.15,2.49.13.87L95,7.77,94,9.24l-1.52.7.3,1.19L90,12.43l-3.08,0-4.28.75-.79-.45-2.15,1.17-1.93-.22-2.14,1-.9-.45,4.82-2.61,2.3-.56h0l-3.2-.3,0-.91,2.73-.78L81,7.87l1.39-1.49,3,.12h0l1.14-1.3-.49-1.31v0l-2.21-.32L83.8,3l1.43-1L85,1.44l-1.82,1,1.44-2-.13-1,2.4-2.1,2.77-1.63L91-4.2Z"/><path class="cls-4" d="M137.9,35.17l.37,0,.17-.58,1.77-.44.67-.11,1-.16,1.36-.05,1.47.91.19,1.89-.57.1-.51.5-1.63-.05-1.17.63-2,.26-1.22-.7-.36-1.23Z"/><path class="cls-4" d="M166.92,8.8l.93.1.5-.52.76.12,2.45-.2,1.88,1.32-.5.47.38.73,2,.13,1.15,1,.07.47,3.39.88,1.79-.36,1.89,1.15h1.45L189,15l.28.72L188.7,17l1,1.39-.13.84-2.45.15L186,20l.24,1.14-2.05.18-1.55.82-2.47.11-2.1,1,.51,1.64,1.48.66,2.77-.13-.32,1-2.92.43-3.48,1.53-1.66-.57.39-1.27-3.18-.81.41-.51,2.47-.86-.9-.61L169.3,23,169,22l-2.47.3-.82,1.44-1.92,2-1.32-.47-1.28.42-1.29-.5.68-.29.41-.9.67-.84-.25-.47.55-.21.31.36,1.63.09.71-.19-.55-.27.14-.39-1-.67-.52-1.08-1-.43.1-.86-1.27-.69-1.11-.1-2-.79-1.75.24-.61.37h-1.13l-.63.59-2,.24-.91.39L149,18.68H147.3l-1.66-.28-1.16.54-.17-.68-1.47-.68.55-1,.74-.65.56.15L144.05,15l2.37-2,1.27-.28.26-.67-1.27-2.05,1.19-.09,1.35-.63,1.91,0,2.51.19,2.81.57,2,.05,1,.34.88-.4.72.55,2.22-.1,1,.23,0-1.17.66-.5Z"/><path class="cls-4" d="M260.6,55.65,259.17,53l-2-.19L253,50l-2.22-.41-3.6-1.65-2-.34-.91.53L242.45,48l-1.18,1.69-2.16.53L237.72,48l-.92-3.15-2.52-1.07-.18-2-1.84-.22-.48-2.45,2.8.78,1.86-.86-2.69-1.79-1.51-1.66-1.74.67.69,2.1-1.66-1.89.72-.92,2.63-.51,2.11.85,2.88,2.31,1.23-.1,2.82.05-1.14-1.46,1.6-.92,1.16-1.58,4.06,1.61,1.53,2.3,1.24.63,2.51,0,1.09.56,2.84,3.07,3.84,2.17L263,45.93l3.27,1.59L270,49l1,1.88-.76-.13-1.55-.87.21,1.08-1.7.51.78,2.47-.92.9-1.73.39.15,1.41-1.71.35Z"/><path class="cls-4" d="M199.79,36.49l3-.08,3.17,1.46.8,1,.16,1.41,2.36.77,1.39.88-1.71.81,1.93,3.45-.31.93,2.32,2.48-1.28.49-1.26-.8-3.6-.46-1.17.46-3.33.42-1.65-.08-3.28,1.11-2.55,0-1.75-.6-3.27.82-1.13-.61.13,1.72-.73.68-.73.67L185.9,52l1-1.16-1.87.24-2.75-.74-1.92,1.76-4.78.31-2.77-1.68-3.45-.12-.62,1.28-2.19.36-3.22-1.67-3.49,0-2-3.06-2.38-1.69,1.42-2.33-2-1.43,3.26-2.8,4.67-.1,1.08-2.2,5.74.41,3.33-1.83,3.31-.78,4.82,0,5.5,2.07L191,38l3.28-.4,2.56.3Zm-45.48,1.64.71-.32.85-1.8-1.49-.76,3-.88,2.58.39.43,1.1,2.69.94-.49.7-3.56.15-1.23.89-2.46,1.56-1-1.36Z"/><path class="cls-4" d="M245,93.26l.53-.16.34,1,2.38-.5,2.66.17,1.94.16,1.57-2.35,1.73-2.2,1.36-2.11.89,1.22,1.15,2.81-1.56,0,.32,2.31.68.51-1.23.67.34,1.47-.57,1.46.25,1.45-.46.75-10-2.1-2-3.68Z"/><path class="cls-4" d="M275.75,42.61l-.17.87L273,42.87l.86,1.71,2.16-.11,3.18,1.11,3.54-.24L285,48.18l.46-.27,1.64.77.68,1.19,1.39,1.78-2.07-.13-1.55-.31-.47,1.32-.75.26-.36.61-1.43-1.07-1.32-2.59-.73-.18-.33-.92-1.56-.76-.29,1,.5,1.23-.08.43-1.35-.13.08,1.38-1.08-.63-1.09.92-.9-.41-.47-3.06-1.79-2.29-2.05-.8-.2-1.3,1.92.23,0-1.6L271.32,41l2.35-.54.45,1.34.83.84Z"/><path class="cls-4" d="M197.07,61.29l-5.82,3.38-3.85-1.33-.07,0,.38-.49-.24-1.33.54-1.76,1.57-1.19-.72-1.26-1.47-.18-.68-2.42.57-1.28.73-.67.73-.68-.13-1.72,1.13.61,3.27-.82,1.75.6,2.55,0,3.28-1.11,1.65.08,3.33-.42-1.08,1.9L203,52l.81,2.29L203.47,58Z"/><path class="cls-4" d="M109.38,20.07l0,.45-.57.64,1.06.46,1.34.06-.48,1.07-1.29.45-1.9-.3L106.63,24l-1.3.1-.34-.41-1.77.91-1.33.15-1-.55L100.38,23l-1.4.43.44-1.19,2.39-1.48.13-.65,1.1.22.86-.45h2.2l.7-.56Z"/><path class="cls-4" d="M121-5.32l1.3-1.1,2.12-1.28,1.43-2.11-.84-.87.84-2.23,1.79-1.52h1.69l.84-.62-.4-.52,3.37-2.1,2.13-1.56,1.32-1H138l.6-.72,2.71.19.37-.83.89-.05,1.85.61,2.27.88,0,2.11.54.56L144.5-17l-1.7,1L143-15,140-13.77l-3.73,1.41L134.43-10l1.11,1.24,1.7,1L135-5.62l-2.23.46-1.49,3.29L129.67,0,127-.13l-1.68,1.66-2.61.12-.12-2-1-2.28Z"/><path class="cls-4" d="M38.41,81.64l-.05.23-.26.68-1.46,5.3L26.89,88,24.5,97.11l-2.88.42-1.2,1.89-.73,5.25-11.43.42-.93,1.25.52-1.56h0l6.55-.56.68-1.33,1.61-1.68,2.29-5,5.12-4,2.65-4.52,1-.29,1.76-2.77,2.59-.46.93.42,1.35,0,1.19-.82,1.89-.17L38,81.65Z"/><path class="cls-4" d="M54.77,36.42l1.16-2-.37-1.19,4.54-2.12,2.78.41,3.39-.11,2.5.4,2.2-.2h4.17l.6,1.06,4.42,1.17,1.22-.63L84,34.37l3.32-.43-.4,1.65-3.28,2-3.79.68-.59,1-2.29,1.66L75,43.31,75.55,45l-2.1,1.38-1.28,2L69.79,49,67,51.45l-3.66.13-2.7,0-2.17,1.14L56.91,54l-1.29-.22-.65-1-.11-1.76-2.38-.4.19-1,1.48-1.18.71-.84-.56-.88,1.59-2-.28-1.76,1.25-.28.72-1.4.62-.44,1.06-2.28,1.57-.82-.06-1.42-1.45-.06-.6.37-1.51.05.05-1.38L56,35.67Z"/><path class="cls-4" d="M120,22.58l2.21.18,1.47-.6,2.39-.08.58-.44.46,0,.41.87-2.28.71-.43,1.07-1,.28-.1.74-1.08,0-.87-.43-.58.46-1.92-.08.66-.25-.46-1.13Z"/><path class="cls-4" d="M134.53,14.94l.13.14,1.1-.34,1.23.86,1.59-.53,1.21.25,1.89-.35,2.45.94-.74.65-.55,1-.57.26-2.8-.75-.88.15-.67.59-1.27.32-.27-.16-1.33.39-1.07.08-.26.51-2.28.32-1-.27-1.27-.64-.15-.87.26-.32.44-.55,1.15,0,.93-.26.09-.23.52-.12.23-.56.61-.11.45-.44Z"/><path class="cls-4" d="M144.16,28.53l-.71.62.23,1,1.4,1.19-1.12.87-.51.89.31.34-.5.4-1.36.05-1,.16-.09-.21.36-.33.35-.68-.41,0-.55-.52-.48-.13-.36-.44-.54-.17-.4-.39-.53.16-.45.93-.71.21.25-.24-1.08-.57-.94-.3L134.9,31l-.74-.47.69-.12.52-1.3-1.3-1,.8-1.19h-1l1.17-1-.84-.76-.58-1,2.18-.7,1.72.11,1.45,1,.27.84,1.68.63.18,1.11,1.64.78.91-.61.7.34-.68.46Z"/><path class="cls-4" d="M219.2,121.7l-.64-1.62-1.2-1.15-.44-1.51-2-1.37-2.25-3.17-1.35-3-2.76-2.59-1.67-.63-2.76-3.53-.69-2.54-.09-2.15-2.49-4L199.05,93l-2-.76-1.4-2.05.1-.8-1.18-1.84-1.11-.79-1.65-2.62-2.45-2.82-2-2.38h-1.73L186,77l0-1.19.27-1.35,3.88.58,1.34-1,.64-1.2,2.51-.44.39-1.12,1-.56-3.82-3.36,6.33-1.57.54-.49,4.09.95,5.28,2.39L219,75.54l6.08.39,2.94.39L229.19,78l2.24,0,1.94,3,1.76.82L236,83l2.53,1.52L239,86l0,1.16.67,1.19,1.15,1,.68,1.17.67.88,1.13.73.84-.23.91,1.38.31.83,2,3.68,10,2.1.46-.75,2,2.62-.61,7.28L250,112.45l-9.51,1.19-3,1.61-2,3.88-1.56.59-1-1.27-1.32.15-3.47-.44-.68-.39H223.4l-.93.32-1.58-1-.76,1.83.53,1.6Z"/><path class="cls-4" d="M144.83,3.75l-4.29,0-2.85-.24.62-1,3.21-.7,2.38.37,1,.34-.26.59ZM189.1-22.87l-.47.08-3.93-.26-1.14-.52L181-23.92l-1.12-.59.72-.2-1-.57.36-.79-1.13-.14.49-.75-1.17-.41.78-.39,1.14-.43,2-.05.22-.24.94,0,1.54.33.41.23-1.21.3-1.19.31-.44.76.73.89.42.93,1.89.9ZM296.49,22.69l-.49-.41-.16-.09-1.7-1.4-1.73-1.35-.72-.46-.07.17.17.35-1.94-1.24-2.38-1.89L286,15.6l-.87-.39-1.94-1.14,2.45,2.41,2,1.52,1.38,1.64-1.83-.81-.91-.21-1.92-1.25-.95-.16-1.67-.86-.11,1,.43,1.94-.7.31-.22.17-2.28-1.61-1.17.19-1.67-1.11-1.39-.56-2.15-1.47-1.18-.5-1.18.47-3.37-1.54.63,1.22-9.72-6.23-3.8-1.87-.3-.66-1.21,1.89-1.32,0-1.22-1.23-2.8-.88-1,.45-3-2.31-3.34-.61-.49.83-3.37.61-.31.51-6,.49-.18.73,2.71,1.6-1.33.53.89.64-1,1.06,4.51,1.74.41,1.11-2.92-.21,0,.69L229,12.42l-3.27-.06-1.55.94-3.21-1-5.85-1.77-3.38,0-3.16,2.46.66,1.76-3.13-1.46-.54,2.63.95.52-.5,1.86L208.92,20l1.8,0,2.39,1.76.38,1.33,1.47.45-.42,1.54-2.26.38-1.4,2.72,3.45,2.66.49,1.87,4.25,3.4-1.18,1.12-.2.72-1.28-.22-2.53-1.79-.81-.11-2-.7-1.25-1.18-2.76-.64-1.53.41-.65-.53-4.19-1.41-4.22-.51L194,30.74l-.25.32-4.18-2.37-3.42-1.07L183.4,26l1.88-.4,1.66-2.19-1.78-1.05,3.6-1-.25-.56-2.23.38L186,20l1.13-.7,2.45-.15.13-.84-1-1.39.58-1.28L189,15l-3.94-.84h-1.45L181.72,13l-1.79.36-3.39-.88-.07-.47-1.15-1-2-.13-.38-.73.5-.47L171.56,8.3l-2.45.2-.76-.12-.5.52-.93-.1L166,7.34l-.71-.76.42-.2,1.93.09.81-.48-.81-.6L166,5l.05-.4-1-.41-1.72-1.43.38-.58-.42-1L161,.68l-1.14.24-.4-.52L157-.12l-.86-1.21-.31-1-1.09-.46.85-.62-.85-1.81,1.32-1.08-.35-.33,2.12-1-2.22-.87,3.68-2.22,1.48-1,.45-.85-3-1.13.44-1-1.84-1.15.77-1.27-2.3-1.63,1.13-1L154-20.64v-.89l1.11-.11,2.21-.48,1.23-.41,2.63.75,4,.33,6.44,1.53,1.63.65.84.92-1.13.72-2.29.35L163-18.43l-1.06.17,3.07,1.07.44.68.84,1.55,2.42.5,1.55.43-.19-.76-1.37-.68.74-.56L174-15l1.13-.35-1.84-1.12,2.55-1.37,1.46.11,1.86.53,0-1-2-.85-.07-.79-1.82-.83,4.27.49,1.6.76-1.6.13.78.77L182-18l1.92-.26-.63-.87,2.09-.57,3-1,1,.09-.1.76,1.79.18.24-.43,2.26,0,.9-.48,2.67.84-.16-.82-2.49-.78-.16-.39,3.92.5,2.24.46,6.76,1.69-.69-.67-2.43-.74-.59-.27-1.48-.18-.89-.58-2.55-1-.86-.38-.7-.95-1.9-.95.06-.18,2.84.39,1.77.61,1.54.87,1.43.4,2.27.85,3.68,1.72,2.78.88,1.48.89,1.91,1.93,1.63.29-.58-.51.41-.31-1.14-.7-.54-.62-2.19-.82L211-19.92l-1.23-.17L208-20.82,205.77-22l-3.45-1-.55-.68-2.29-.78h.3l2.05.62,2.59,1.07,1.39.27-2.53-.85,0-.36,1.29,0,3.06.74-3.26-1-3.49-1.13.38-.12,1.49.16.68,0-2.2-.56-1.71-.58.42,0-.95-.37h.5l-.88-.23.48,0,1.07.24-1.4-.38.47.1-1.59-.37-.29-.07h0l23.11,6.51,22.3,8.89L264.05-.65l20,13.34ZM193.27-28.13l.07,0-1.07-.22h0Zm-29-3-.56,0-.41,0,.19.08-.46.07-1.05-.13-.14-.14-1.39,0,.9-.06h.87l.57.13-.07-.11.25-.06,1.24.12Zm25.58,2.33h0l-1.72-.31-1.83-.32-2.84-.48-1.06-.16-1.91-.32-.24,0h0Z"/><path class="cls-4" d="M144.48,18.93l1.16-.54,1.66.28H149l1.26.62.91-.39,2-.24.63-.59h1.13l.82.25.88.75.95,1.08,1.69,1.54.19,1.14-.2,1.12.61,1.21,1.29.5,1.28-.42,1.32.47.14.69-1.31.57-.88-.26-.5,3.28-1.71-.29-2.16-1-3.35.62-1.41.7-4.25-.15-2.22-.43-1.12.2-.81-1.12-.52-.48.68-.46-.7-.34-.91.61-1.64-.78L140.89,26l-1.68-.63-.27-.84-1.45-1,2.25-.5,1.74-1.76,1.34-1.74Z"/><path class="cls-4" d="M242.11,91.38l-.77-2.58.45-1.83.78-.36,1.22,1.12.53,2.07-.24,2.07-.84.23Z"/><path class="cls-4" d="M54.77,36.42,56,35.67l1.23-.45-.05,1.38,1.51-.05.6-.37,1.45.06.06,1.42-1.57.82-1.06,2.28-.62.44-.72,1.4-1.25.28.28,1.76-1.59,2,.56.88-.71.84-1.48,1.18-.19,1-1.43.83L49.81,51l-1.54.39,1.42-2.43.56-1.87-1.06-.24-.12-1.12,1.11-2,1.54-1.12.74-1.2,1.38-1.78.54-1.23v-1Z"/><path class="cls-4" d="M125.37,11.12l-.71-1.48.36-.8-.33-1.22-.68-.8.8-.61-.28-1.13,1.73-.66,3.82-1,3-.74,2.24.35.11.52,2.24,0,2.85.24,4.29,0L146,4l.56.67.1,1,.67.85v.9l-1.45.46.74,1.06.05,1L147.95,12l-.26.67-1.27.28-2.37,2,.65,1.11-.56-.15L141.68,15l-1.89.35-1.21-.25-1.59.53-1.23-.86-1.1.34-.13-.14-1-1.19-1.89-.14-.14-.75-1.71-.26-.47.62-1.3-.49.26-.66-1.83-.19Z"/><path class="cls-4" d="M290.07,52.56l2.34,1.55,2,2.46,3.95,1.5-.31,2.57-2,.34-3.55-1-.28,1.33,2.26,2.89,1.88,2.27L299,68.21,298.11,70l1.18,2.39-.57,3.27.1,3.38-.92,3.49L295,82.13l-1.29,3.51,2.2,1.66L297.2,90l2,1.87L300.78,95l-5.55-.29-1,2.31-2.2-1-1.61-2.61-2.93-2.8-4.75.45-4.47-.12-3.84.34-.17-4.07,3.43-1.66L277,83.93l-1.5-.62-1.11-3.06-3.15-1.62-1.83-2.11-2-1.83,5.21,1.91,2.51-.41,1.75.5.25-.72,1.95.37,2.8-1.26-1.08-2.87.59-1.83,1.84.09-.13-.92,1.66-.34,1,.35.5-.89-1-2,.06-1.93,1.07-.75-2-2.2,2.22.22,0-1.13-.74-1.24.39-1.29-1.11-1.6-1.25-1.37.5-1.3,1.89-.53,2.16-.22.68-.51Z"/><path class="cls-4" d="M107.65,5.89l.11.75-1.41,2.09-.94.88-1.42,0-.58,2.46-1.1-.54-1.08-1-2.4.53-1.65-.15,1.5-.67,3.57-3.41,3.53-1Z"/><path class="cls-4" d="M255.12,121.37l-1.49-2.67-3.6-6.25,9.14-3.43.61-7.28-2-2.62-.25-1.45.57-1.46-.34-1.47,1.23-.67-.68-.51L258,91.24l1.56,0,2,2.48,2,1.36,2.33.55,2,.72,1.87,2.12,1.11,1.23,1.19.5.19.81-.56,2.14-.24,1-1,1.13-.59,2.48-1.44-.24-.46.86-.1,1.86.88,2.5-.2.45-1.45-.06-1.72,1.33,0,1.82-.58.77-2-.09-1.11.91.27,1.52-1.4,1-1.87-.41-2,1.21Zm3.27-32.9-.89-1.22.55-1.17.46.32.11,1.44Z"/><path class="cls-4" d="M134.27,35.12l-.6-.21-.76-.92-1.23-.56.37-.48.56-1.53,1-.65.56-.26.74.47.39.38.94.3,1.08.57-.25.24-.59.63-.81.25-.16-.53-1.37,1.39Z"/><path class="cls-4" d="M154.91,18.09l.61-.37,1.75-.24,2,.79,1.11.1,1.27.69-.1.86,1,.43.52,1.08,1,.67-.14.39.55.27-.71.19-1.63-.09-.31-.36-.55.21.25.47-.67.84-.41.9-.68.29L159.25,24l.2-1.12-.19-1.14-1.69-1.54-.95-1.08-.88-.75Z"/><path class="cls-4" d="M313.71,39.16l.93,1,.73.86-.29-.11.38.79.93,1.42-1-1-.6-.17-2.44-2-1-.58-.54.22-2.17-.94-.87-.08-2.06-1.79-2.84-2.68-.86-.4-2.8-1.9-1.72-.56-1.71-.63-1.53-1.23-2.71-3.11L288.6,24,286,22.88l-2.39-1.48-2.2-1.82h0l.7-.31-.43-1.94.11-1,1.67.86.95.16,1.92,1.25.91.21,1.83.81L287.73,18l-2-1.52-2.45-2.41,1.94,1.14.87.39,1.4.78,2.38,1.89,1.94,1.24-.17-.35.07-.17.72.46,1.73,1.35,1.7,1.4.16.09.49.41h0Z"/><path class="cls-2" d="M17.14,129.75l-1.65-2.55-1.39-2.73-1.85-.93L11,122.48l-1.68.11-1.61.89L6.3,123.2,5,124.46l.14-2,1.19-1.89L7.47,117,8,113.29,8,111.45l.73-1.86-.32-1.73-1.1-1.53.93-1.25,11.43-.42.73-5.25,1.2-1.89,2.88-.42L26.89,88l9.75-.14,1.46-5.3,9.49,8.16-4.86.2-1.78,15.57-1.08,16.08.51.45-1.12,2.69L26,126.14l-.62.86-1.2-.21-1.93.82-2.05-1-1,.12L18.3,129Z"/><path class="cls-4" d="M102.5,13.72l.29.54-.54,1.07-.74.07-.47-.2.79-1.37Z"/><path class="cls-4" d="M141.16.15l.19-1.54,1.15-1.26,2.05-.68,1.69,1.48,1.75,0,.38-1.52,1.8-.34.94.24,1.89.74h1.77l1.09.46.31,1L157-.12l-2.31.79L153.39,1l-2.23-1L150-.13l-.33-.43-2.18.2-3.72-.13Z"/><path class="cls-4" d="M187.47,61.5l-.88,0-.22.57-1.1,0,.8-2.62,1.27-2.24,0-.11,1.47.18.72,1.26L188,59.75Z"/><path class="cls-4" d="M271.71,36.71l-.43-1.23,1-.33,3.88,1.16-.94-1.66.62-.52,3.5,1.35.41-.27,3,.27,2.74.48L287.12,37l1.34.49.28.63-1.45,1.38.24,1.12-2,.19.65,1.84-2.24-.52-.91.49L282.09,44l.74.72-.11.65-3.54.24L276,44.47l-2.16.11L273,42.87l2.61.62.17-.87,1.75.37,1.15-2-3.4-1.68-.95.65-2.24-1.18.43-1.78Z"/><path class="cls-4" d="M228.88,73.06l1,1.51-.1.77,1.63,2.59-2.24,0L228,76.32l-2.94-.39,1.59-3.2Z"/><path class="cls-4" d="M187,64.37l.44-1,3.85,1.33,5.82-3.38,2,4-.54.49-6.33,1.57L196,70.7l-1,.56-.39,1.12-2.51.44-.64,1.2-1.34,1-3.88-.58-.17-.5,1-5.34-.25-1.29.37-1Z"/><path class="cls-4" d="M271.71,36.71l-.79.47-1.4,1.87.41,2-.79,0-1.46-1.42-2.82-.22L262.93,37,261.85,37l-1.67-2.85L256.24,32l-3.63.06-2.39.3-3.71-2.58L244,28.63l-4.74-2.06-.57-.25-5.1,1.39,5.5,10.34-1.23.1L235,35.84,232.87,35l-2.63.51-.72.92-.45-.7.09-1.17-1-1-3.43-1L222.47,30l-1.74-.73-.49-.89,2.59.32-.86-2,1.89-.38,2.36.46-.94-2.59L224,22.57l-2.33.06-2.39-.69L217,23l-2,.5-1.47-.45-.38-1.33L210.72,20l-1.8,0L206,18.23l.5-1.86-.95-.52.54-2.63,3.13,1.46-.66-1.76,3.16-2.46,3.38,0L221,12.25l3.21,1,1.55-.94,3.27.06,3.57,1.34,0-.69,2.92.21-.41-1.11-4.51-1.74,1-1.06-.89-.64,1.33-.53-2.71-1.6.18-.73,6-.49.31-.51,3.37-.61.49-.83,3.34.61,3,2.31,1-.45,2.8.88L251.11,8l1.32,0,1.21-1.89.3.66,3.8,1.87,9.72,6.23-.63-1.22,3.37,1.54,1.18-.47,1.18.5,2.15,1.47,1.39.56,1.67,1.11,1.17-.19,2.28,1.61.89,1.62-.76.15,2.58,2.61.46,1.13-3.49-1.11,3.45,4.72-.21.55-2.06.87,5.46,5-.49.66,1.42,1.64L287.12,37,285.48,36l-2.74-.48-3-.27-.41.27-3.5-1.35-.62.52.94,1.66-3.88-1.16-1,.33Z"/><path class="cls-4" d="M121.55,45.88l-1.4,2.4.36.95-.84,1.59-2.29-1.14-1.56-.32-4.14-1.52.67-1.57,3.58.25,3.22-.36ZM104,37.28l1.3,2-1.23,3.9L102.73,43l-1.44,1-1-.78.69-3.55-.28-1.66,1.57.12Zm16-14.7-.55,1.29.46,1.13-2.12-.37-2.43,1-.12,1.33-.5.77.64,1.38,2.41,1.36,1.06,2.29L121.78,35l2.3,0,.65.62-.9.58,2.55,1,2.12.86L131,39.52l.27.54-.66,1.05L129,39.76l-2.59-.47-1.47,1.9L127,42.28l-.51,1.55-1.31.18-1.93,2.59-1.33.25.11-.93.82-1.62.74-.64-1-1.72-.75-1.48-1.21-.36-.72-1.26-1.86-.51L117,37.2,114.81,37l-2.07-1.27-2.3-1.82-1.61-1.6-.25-2.73-1.31-.3-2-.87-1.37.39-2,1.29-1.21.22.65-1.2-1.4-.32-.08-2.08,1.19-.83-.49-1,.34-.75,1,.55,1.33-.15,1.77-.91.34.41,1.3-.1.87-1.07,1.9.3,1.29-.45.48-1.07,1.53.35.43-.49,2.74-.48.4.89Z"/><path class="cls-4" d="M187.4,63.34l-.44,1-1.25-.47-.41,2.17.88.38-.8.44,0,.87,1.52-.43.25,1.29-1,5.34-2.89-5.78.84-1.08-.25-.19.7-1.54.35-2.46.36-.82.09,0,1.1,0,.22-.57.88,0,.24,1.33-.38.49Z"/><path class="cls-4" d="M79.64,5.64l-.8,1.59-3,2.09-4.71,1.49-2.69-.26L71.9,8.08l.74-2.26L76.69,4,79,3l-.5,1.15L77.16,5.3l1.27-.07Z"/><path class="cls-4" d="M230.78,73.26l-1.9-.21-2.2-.33-1.59,3.2L219,75.54l-10.56-6.92-5.28-2.39-4.09-.95-2-4L203.47,58l.34-3.81L203,52l1.49-.74,1.08-1.9,1.17-.46,3.6.46,1.26.8,1.28-.49,3,3.74,2.24,1,.75,1.84-1.22,1.07-.06,2.48,2.94,3.12,4.26,1.87L227,67.26l.1,2.39,1,0,.48,1.78Z"/><path class="cls-4" d="M239.11,50.17l2.16-.53L242.45,48l1.83.15.91-.53,2,.34,3.6,1.65L253,50l4.21,2.85,2,.19,1.43,2.65.68,3.93.26,2.32,1.35.52-.42,1.74,1.92,2.66,1,2.11,2.26.64,1,2.16-1.36,3,2,1.83,1.83,2.11,3.15,1.62,1.11,3.06,1.5.62.76,1.62-3.43,1.66.17,4.07L268.72,90l-3.44-.93-3.48-.57-2.48-4.35-1.61-.66-2.14.55L253,85.63l-4.06-1.27-3.83-2.76-3.25-1.07-2.93-3.31-3.48-4.58-1.52.5L231.62,72l-.84,1.28-2.17-1.8-.48-1.78-1,0-.1-2.39-2.25-2.54-4.26-1.87-2.94-3.12.06-2.48,1.22-1.07-.75-1.84-2.24-1-3-3.74-2.32-2.48.31-.93-1.93-3.45,1.71-.81.8,1.13,1.9,1.41,2.1.44,1-.07,2.61-2.13,1-.2,1.14.89-.45,1.46,2.32,1.62.65-.13,1.68,2.26,2.92.7,2.53,1.6,4.22.64,4-.7Z"/><path class="cls-4" d="M126.67,21.63,127.8,20l-.43-.55h1.5l.34-1,1.27.64,1,.27,2.28-.32.26-.51,1.07-.08,1.33-.39.27.16,1.27-.32.67-.59.88-.15,2.8.75.57-.26,1.47.68.17.68-1.66.54-1.34,1.74L139.74,23l-2.25.5-1.72-.11-2.18.7-1.08.4-2.23-.5-1.93-1.12-.83-.32-.41-.87Z"/><path class="cls-4" d="M335.32,121.46,334,123.78l.45,1.75-.76.86-1.52,1.22-.92.13,0,2.87,1.53,5,.76,3.22-.23,3.62,1.09,6.62-1.11.11-.58,2.91.85,1.34-1.91,1-.44,2.63-.8,1.07-2.67-3.82L326,148.72l-1.52-4-1.14-1.89L321.37,139l-1.51-4.86-.9-2.43-3.36-5.39-2.75-7.4-2-4.84-1.24-4.51-1.49-3.48-3,2-1.92-.54L298.62,103l.84-1.25-1.19-1.47-4-3.22,1-2.31,5.55.29-1.56-3.09-2-1.87-1.26-2.74-2.2-1.66L295,82.13l2.88.42.92-3.49-.1-3.38.57-3.27L298.11,70l.85-1.81-2.53-1.73-1.88-2.27-2.26-2.89.28-1.33,3.55,1,2-.34.31-2.57L302.6,62l1.31,2.64,1.68,1.74.85,1.68-1.62-.55,2.47,3.71,3,2.27L314.08,76l-.43,1.45.78,3.15,2.46,1.45,2.55,1.85,3.27,2.16,2.62.67,1.8,1.88,1.45.45,2.33,1,1.28.07-.46-1.38-1.25-2.26-.61-1.5.56-.64,1.45,2.77.36.71,2,1.48.64-.45"/><path class="cls-4" d="M147.2,53.56,149,54.62l2.53-.18,2.44.23-.07.55,1.76-.37-.38.93-4.72.26,0-.52-4-.62Zm7.1-15.43L152.46,38l-1.59-.27-3.66.75,2.12,1.64-1.55.48h-1.7l-1.61-1.51-.58.64.66,1.75,1.54,1.39-1.18.65,1.74,1.38,1.55.87.06,1.72-2.93-.81.93,1.55-2,.32,1.19,2.72-2.13,0L140.69,50l-1.12-2.44-.49-2-1.16-1.37-1.52-1.7-.16-.84,1.49-1.43.22-.95,1-.43.09-.76,2-.26,1.17-.63,1.63.05.51-.5.57-.1,2.23.08,2.39-.79,2.14,1,2.72-.27,0-1.43,1.49.76L155,37.8Z"/><path class="cls-4" d="M115.73,2.53l-.27.83,2.12.48-.28.77,2.47-.44,1.46-.61,2.36.84.93.69.28,1.13-.8.61.68.8L125,8.84l-.36.8.71,1.48-1.16.25-.6-.27-.72.46L121,12l-1.07.61-2,.54.27.71,0,1,1.16.58,1.23,1-1.16,1.16-1,.33,0,1.65-.34.44-.72-.52-1.25-.07-2,.48-2.3-.09-.55.68-1.15-.7-.82.15-2.57-.74-.7.56h-2.2l.91-1.81,1.84-1.73-3.47-.4-.94-.63.54-1.07-.29-.54.91-1.63L104,9.63l1.42,0,.94-.88,1.41-2.09-.11-.75.64-.48,1.95-.15.24.48,2-1.11-.2-.81.37-1.22,1.57.26Z"/><path class="cls-4" d="M187,64.37l.27,2-.37,1-1.52.43,0-.87.8-.44-.88-.38.41-2.17Z"/><path class="cls-4" d="M199.79,36.49l.08-1.21-1.28-1.94-1.91-1.06L195,31.93l-1.27-.87.25-.32,2.49.51,4.22.51,4.19,1.41.65.53,1.53-.41,2.76.64,1.25,1.18,2,.7-.57.38,1.91,1.59-.26.33-1.55-.2L210.24,37l-.53.46-3.77.37-3.17-1.46Z"/><path class="cls-4" d="M105.61,34.57l-1.46,2.22L103,36.21l-.2-1.9.83-1.06,2.09-1.09ZM101,15.19l.47.2.74-.07.94.63,3.47.4-1.84,1.73-.91,1.81-.86.45-1.1-.22-.13.65-2.39,1.48L99,23.45l1.4-.43.54,1.14-.34.75.49,1-1.19.83.08,2.08,1.4.32-.65,1.2-3,1.61-5.24-.67-4.29,1-.89,1.7L84,34.37l-2.61-1.22-1.22.63-4.42-1.17-.6-1.06,2.06-1.69,2.86-5.39-1.27-2.69-1.14-1.26-3.13-.89.79-1.84,3.33-.62,3.64.55L83,14.94l1.67,1,6.47-2,1.67-2,2.28-.52-.05.83,1.08,0,.68.94L98,14.32l1.33-.21Z"/><path class="cls-4" d="M122.33,1.13l-1.86,1.73-2-1.18V.82l3.45-.72Zm-6.6,1.39-1.55.34-1.57-.26-.41-1.17L113-.68l.59-.55.87-.61L116.4-2l1-.56,1.9-.58-.46,1-.88.66,0,.56,1.06.3-.81.78L117.64,0,115.51,1.5Zm-332.1-73.64,0,0,0,0"/><path class="cls-4" d="M129.32,17.19l-1.14-.46-1.25.14L125,16.11l-.95.19-1.67,1-1.77-.79-1.23-1-1.16-.58,0-1-.27-.71,2-.54L121,12l1.9-.47.72-.46.6.27,1.16-.25,1,.76,1.83.19-.26.66,1.3.49.47-.62,1.71.26.14.75,1.89.14,1,1.19h-.76l-.45.44-.61.11-.23.56-.52.12-.09.23-.93.26-1.15,0Z"/><path class="cls-4" d="M180.69,55.74l.13.25-3.16,1.26L176,56.84l-.89-1.28,1.52-.1.62.17.84-.26.63,0,.26.19.1.32.15-.12.5.07.58-.24Z"/><path class="cls-4" d="M133.59,24.07l.58,1,.84.76-1.17,1-1.23-.59-1.95,0-2.36-.43L127,26l-.68.56-.91-.61L124.64,27l1.21,1.26.52.84,1.19,1,1,.61,1,1.15,2.49,1-.37.48-2.65-1-1.58-1-2.54-.81-2.11-2,.6-.21-1.12-1.13.09-.91-1.73-.41-1.06,1.17-.66-.89.23-.93.11,0,1.92.08.58-.46.87.43,1.08,0,.1-.74,1-.28.43-1.07,2.28-.71.83.32L130.28,24l2.23.5Z"/><path class="cls-4" d="M336,81.22l-.19,2,.19,2.44-.83.31-1-1-.76-.17-1.4-.93-.33.8.29,2.5-1.45-2.77-.56.64-2-.52-2.21-1L323.6,81.9l-1.65-.8-1.39-1.7-1.23-.58-2.9-2.38-2-1.16-.35.75-3.81-2.57-3-2.27-2.47-3.71,1.62.55-.85-1.68-1.68-1.74L302.6,62l-4.22-3.91-3.95-1.5-2-2.46-2.34-1.55-.9-.91-1.39-1.78-.68-1.19-1.64-.77-.46.27-2.29-2.83.11-.65-.74-.72.91-1.29.91-.49,2.24.52-.65-1.84,2-.19-.24-1.12,1.45-1.38-.28-.63L287,35.9l.49-.66-5.46-5,2.06-.87.21-.55-3.45-4.72,3.49,1.11-.46-1.13-2.58-2.61.76-.15-.89-1.62.22-.17,2.2,1.82L286,22.88,288.6,24l2.91,2.22,2.71,3.11,1.53,1.23,1.71.63,1.72.56,2.8,1.9.86.4,2.84,2.68,2.06,1.79.87.08,2.17.94.54-.22,1,.58,2.44,2,.6.17,1,1-.93-1.42-.38-.79.29.11-.73-.86-.93-1h0l15.53,18.31M-216.37-71.12m0,0"/><path class="cls-4" d="M146.58,4.66l2.28,0,2.52-.82.47-1.22L153.68,2,153.39,1l1.34-.35L157-.12l2.42.53.4.52L161,.68l2.29.51.42,1-.38.58L165,4.19l1,.41L166,5l1.66.4.81.6-.81.48-1.93-.09-.42.2.71.76.88,1.46-2.07.12-.66.5,0,1.17-1-.23-2.22.1-.72-.55-.88.4-1-.34-2-.05-2.81-.57-2.51-.19-1.91,0-1.35.63-1.19.09-.05-1-.74-1.06,1.45-.46v-.9l-.67-.85Z"/><path class="cls-4" d="M144.16,28.53l.81,1.12,1.12-.2,2.22.43,4.25.15,1.41-.7,3.35-.62,2.16,1,1.71.29-1.41,1.14-.92,2,1.06,1.61-2.58-.39-3,.88,0,1.43-2.72.27-2.14-1-2.39.79-2.23-.08-.19-1.89-1.47-.91.5-.4-.31-.34.51-.89,1.12-.87-1.4-1.19-.23-1Z"/><path class="cls-4" d="M215.46,44.93l-2.1-.44-1.9-1.41-.8-1.13.57-.07,1.1.81,1.27,0,.14.46Zm3.62-8.85,2,1.55,2.19,2.09,1.33.17,1.15.81-2.16.18.38,2.28-.1,1-.77.68.6,1.49-.65.13-2.32-1.62.45-1.46-1.14-.89-1,.2-2.61,2.13-.75-2.07-1.43-.51-1.47-.83.49-.92-1.84-1,.32-.72-1.24-.53-.83-.77.53-.46,2.36.87,1.55.2.26-.33-1.91-1.59.57-.38.81.11,2.53,1.79,1.28.22.2-.72Z"/><path class="cls-4" d="M129.21,18.37l-.34,1h-1.5l.43.55-1.13,1.66-.58.44-2.39.08-1.47.6L120,22.58l-3.74-.64-.4-.89-2.74.48-.43.49-1.53-.35-1.34-.06-1.06-.46.57-.64,0-.45.82-.15,1.15.7.55-.68,2.3.09,2-.48,1.25.07.72.52.34-.44,0-1.65,1-.33,1.16-1.16,1.77.79,1.67-1,.95-.19,1.89.74,1.25-.14,1.14.46-.26.32Z"/><path class="cls-4" d="M205.94,37.86l3.77-.37.83.77,1.24.53-.32.72,1.84,1-.49.92,1.47.83,1.43.51.75,2.07-1,.07-1.72-1.75-.14-.46-1.27,0-1.1-.81-.57.07-1.39-.88-2.36-.77-.16-1.41Z"/><path class="cls-4" d="M97.18,10.92l1.65.15,2.4-.53,1.08,1,1.1.54-.91,1.63-.67.1L101,15.19l-1.71-1.08L98,14.32l-1.2-1.11-.68-.94-1.08,0,.05-.83Z"/><path class="cls-4" d="M133.84,26.86h1l-.8,1.19,1.3,1-.52,1.3-.69.12-.56.26-1,.65L132,32.94l-2.49-1-1-1.15-1-.61-1.19-1-.52-.84L124.64,27l.75-1.12.91.61L127,26l1.32-.07,2.36.43,1.95,0Z"/><path class="cls-4" d="M260.6,55.65,263.77,57l1.71-.35-.15-1.41,1.73-.39.92-.9-.78-2.47,1.7-.51-.21-1.08,1.55.87.76.13,1.3.08,2.09.74.9.41,1.09-.92,1.08.63-.08-1.38,1.35.13.08-.43-.5-1.23.29-1,1.56.76.33.92.73.18,1.32,2.59L284,53.39l.36-.61.75-.26.47-1.32,1.55.31,2.07.13.9.91-1,.28-.68.51-2.16.22-1.89.53-.5,1.3,1.25,1.37,1.11,1.6-.39,1.29.74,1.24,0,1.13-2.22-.22,2,2.2-1.07.75-.06,1.93,1,2-.5.89-1-.35-1.66.34.13.92-1.84-.09-.59,1.83,1.08,2.87L279,76.36,277.09,76l-.25.72-1.75-.5-2.51.41-5.21-1.91,1.36-3-1-2.16-2.26-.64-1-2.11-1.92-2.66.42-1.74-1.35-.52-.26-2.32Z"/><path class="cls-4" d="M137.9,35.17l-.42,1,.36,1.23,1.22.7-.09.76-1,.43-.22.95-1.49,1.43-.52-.2,0-.65-1.64-1-.17-1.38.38-2,.47-.89-.47-.45-.13-.9,1.37-1.39.16.53.81-.25.58.75.69.29Z"/><path class="cls-4" d="M144.83,3.75l-.18-.55.26-.59-1-.34-2.38-.37L141.16.15l2.58-.63,3.72.13,2.18-.2.33.43,1.19.13,2.23,1,.29.94-1.83.68-.47,1.22-2.52.82-2.28,0L146,4Z"/></g>
		<g id="indoureopeas">
			<path id="BURKINA_FASO" onmouseover="displayName('BURKINA FASO');displaySecondLanguage('Francés')" data-name="BURKINA FASO" class="indoeuropeas" d="M46.24,148.08l-2.33-1-1.65.19-1.3,1-1.5-.79-.5-1.27-1.48-.81v-2.25l1.1-1.67,0-1.31,3.07-3.28.8-2.66,1-1,1.61.48,1.54-.82.58-1,2.9-1.79L51,129l3.45-1.65,2-.59.81.71,2.27-.07L59,129.23l.3,1.73,1.77,2.47L61,135.3l4.1.79-.29,2.65-.89,1.17-1.81.4L61.28,142l-1.29.47-3.15,0-1.63-.27-1.21.65-1.56-.25-6.16.33L46,145.15Z"/>
			<path id="EGIPTO" onmouseover="displayName('EGITPO');displaySecondLanguage('Inglés')" class="indoeuropeas" d="M186.07,74l-.81,1.36-.47,2.57L184,79.68l-.76.59L182,79.15,180.3,77.6l-2.91-4.89-.33.3,1.75,3.59,2.45,3.47,3.15,5.44,1.48,1.92,1.34,2,3.57,4-.65.61.33,2.33L195,99.66l.71.75-14.44-.14L167,100.18l-14.9,0L151.94,87l-.16-12.29L150.7,72l.86-2.07L151,68.46l1.22-1.59,4.53,0,3.32.88,3.43,1,1.62.52,2.56-1,1.33-.94,3-.26,2.45.44,1.06,1.65.69-1.08,2.78.81,2.66.21,1.57-.82Z"/>
			<path id="TÚNEZ" onmouseover="displayName('TÚNEZ');displaySecondLanguage('Francés')" class="indoeuropeas" d="M98.57,71.36l-.49-5.94-1.79-1.29.1-.79-2.29-1.9L94.28,59l2.3-1.81,1.24-2.62.1-3,1-1.59,3.6-1.28,2.1.34-.38,1.56,2.85-1.16.12.59-1.83,1.53L105.08,53l1,.76-.85,2.74-2.37,1.62.33,1.74,1.66,0,.59,1.53,1.18.49-.54,2.5-1.74,1-1.18,1.07-2.47,1.3.16,1.37-.49,1.42Z"/>
			<path id="SUAZILANDIA" onmouseover="displayName('SUAZILANDIA');displaySecondLanguage('Inglés')" class="cls-6" d="M177.06,289.5l-.83,1.62-2.1.38-2-2,.05-1.27,1.06-1.37.4-1.07,1-.26,1.76.68.41,1.66Z"/>
			<path id="SUDÁN" onmouseover="displayName('SUDÁN');displaySecondLanguage('Inglés')" class="indoeuropeas" d="M187.59,147.79l-.55-.08v-1.95l-.5-1.34-2-1.56-.57-2.8.37-2.85-1.8-.28-.23.86L180,138l1,1.14.39,2.33-2.07,2.12-1.87,2.8-2,.39-3.33-2.3-1.46.8-.39,1.14-2,.73-.11.8-3.92,0-.55-.8-2.84-.15-1.41.67-1.1-.34-2-2.28-.69-1.07-2.83.53-1.07,1.81-1,3.49-1.35.74-1.21.43-.33-.18-1.37-1.13-.26-1.22.64-1.63v-1.59l-2.27-2.44-.43-1.66,0-.94L142.62,139l0-2.25-.81-1.49-1.38.22.4-1.41,1-1.6-.44-1.59,1.29-1.17-.81-.9,1-2.35,1.78-2.81,3.33.27L147.78,109l0-1.55h4.33l-.07-7.31,14.9,0,14.27.09,14.44.14,1.51,3.59-.74.66.86,3.8,1.72,4.44,1.48.94,2.13,1.41-1.7,2.11-2.68.59-1.09,1.14-.19,2.5-1.27,5.57.5,1.53-.43,3.29-1.34,3.77-2.23,1.89-1.52,2.94-.33,1.59-1.8,1.07-1,4.54Z"/><path id="RUANDA" class="cls-6" d="M174.12,189.74l1.57,2.27-.24,2.35-1.15.5-2.1-.28L171,196.86l-2.42-.32.38-2.19.55-.31.15-2.38,1.15-1.11,1,.42Z"/>
			<path id="GUINEA-BISAU" onmouseover="displayName('GUINEA-BISAU');displaySecondLanguage('Portugués')" class="indoeuropeas" d="M6,143.91l-1.43-1.56-1.24-.2-.54-1.06.09-.59-.79-.78L2,138.87l1.67-.69,1,.08.88-.47,5.65-.05L11,139.05l-.4.42.1,1.28-.56.53-.68,0-.9.69-.92,0Z"/>
			<path id="MOZAMBIQUE" onmouseover="displayName('MOZAMBIQUE');displaySecondLanguage('Portugués')" class="indoeuropeas" d="M189.61,231.31l2.91-.29,4.56,1.17,1-.49,2.65-.07,1.41-1.17,2.28.1,4.21-1.48,3.12-2.26.52,1.79-.38,3.94.24,3.47-.28,6.15.51,1.93-1.32,2.78-1.65,2.69-2.55,2.38-3.49,1.43-4.31,1.82-4.48,4.09-1.48.69-2.78,2.7-1.59.87-.5,2.72,1.53,2.9.53,2.23,0,1.14.66-.18-.42,3.69-.73,1.73.78.65L189.9,280l-1.61,1.31-3.05,1.23-4.45,2-1.67,1.35.19,1.55.89.26-.46,1.93-2.68-.05-.19-1.62-.41-1.66-.21-1.32.9-4.13-.77-2.66-1.45-5.3,4.11-4.27,1.14-2.74.58-.34.54-2.25-.54-1.14.31-2.87.87-2.67.24-4.9-1.92-1.26-1.79-.3-.78-1-1.73-.83-3.19.05-.2-1.46-.27-2.79,11.76-3.15,2.11,1.9,1.07-.35,1.46,1,.14,1.57-.9,1.81.14,2.75,2.32,2.43,1.31-2.68,1.67-.81,0-5-1.44-2.86-1.31-1.28-1.34,0-.84-5.13Z"/>
			<path id="LIBIA" onmouseover="displayName('LÍBIA');displaySecondLanguage('Italiano')" class="indoeuropeas" d="M114.74,97.12l-2.68,1.36-1.9-2L104.58,95l-1.37-2.23-2.64-1.62-1.73.67-1-2,0-1.52-1.76-2.54,1.56-1.48,0-2.18.69-1.9-.05-1.57,1-2.8,0-1.57-.67-3,1.75-.79.49-1.42-.16-1.37,2.47-1.3,1.18-1.07,1.74-1,.54-2.5L110.29,63l1.43-.3,2.7.52,4.27,1.43L120,67.6l3,.62,4.71,1.37,3.57,1.64,1.73-.88,1.71-1.53-.7-2.54,1.13-1.6,2.48-1.54L140,62.7l4.53.66,1.15,1.46,1.27,0,1.08.56,3.38.38.85,1.09L151,68.46l.55,1.42L150.7,72l1.07,2.72L151.94,87l.15,13.17.07,7.31h-4.33l0,1.55-14.86-7-14.39-6.86Z"/>
			<path id="LESOTHO" onmouseover="displayName('LESOTHO');displaySecondLanguage('Inglés')" class="indoeuropeas" d="M165.69,297.49l1.15,1.08-1.15,1.74-.65,1.15-2,.55-.68,1.13-1.24.35-2.49-2.74,1.93-2.26,2-1.4,1.67-.73Z"/>
			<path id="CAMERÚN" class="indoeuropeas" d="M105,176.26l-.49-.21-2.32.53-2.38-.51-1.86.28-6.34,0,.59-3.15-1.47-2.61L89,169.91l-.75-1.77-1-.55.08-1.1,1-2.82,1.93-3.84,1.13,0,2.36-2.34,1.46-.08L97.41,159l2.71-1.36.41-1.64.92-1.6.66-2,2.12-1.64.87-2.75.85-.88.61-2,1.11-2.5,3.36-3,.24-1.29.46-.7L110.25,136l.17-1.23,1.09-.23L113,137l.17,2.57-.22,2.58,2,3.52-2.18,0-1.1.29-1.77-.37-.89,1.85,2.24,2.27,1.69.65.51,1.62,1.17,2.7-.63,1.07-2.05,4-1,.73-.35,3.07.37,1.67-.34,1.18,1.85,2.06.31,1.43,1.45,2,1.8,1.27.16,1.82.41,1.15-.3,2.16-3.13-.92-3.2-1Z"/>
			<path id="BURUNDI" onmouseover="displayName('BURUNDI');displaySecondLanguage('Francés')" class="indoeuropeas" d="M169.76,203.19l-.21-4.82-1-1.83,2.42.32,1.23-2.27,2.1.28.22,1.58.85.91,0,1.3-1,.84-1.56,2.08L171.4,203Z"/>
			<path id="ARGELIA" onmouseover="displayName('ARGELIA');displaySecondLanguage('Inglés')" class="indoeuropeas" d="M104.58,95l-13,7L80.4,109.45l-5.24,1.74-4,.43.26-2.36-1.56-.57-2-1L67.23,106,57,98.25,47.59,90.7,38.1,82.54l.26-.68.05-.23,1.18-4.08,5.57-2.66,3.15-.6,2.74-1L52.7,71.6l3.93-1.42.84-2.47,1.84-.33L61,66.13l4.15-.65.91-1.29-.61-.67-.06-3.4.4-1.94-.48-2,3.38-1.79,3.36-.62,2.26-1.33,3.15-1,5.23-.65,5.05-.34,1.42.43,3.16-1.26,3.27-.07,1.1.7L98.88,50l-1,1.59-.1,3L96.58,57.2,94.28,59l-.18,2.42,2.29,1.9-.1.79,1.79,1.29.49,5.94.67,3,0,1.57-1,2.8.05,1.57-.69,1.9,0,2.18-1.56,1.48,1.76,2.54,0,1.52,1,2,1.73-.67,2.64,1.62Z"/>
			<path id="MADAGASCAR" onmouseover="displayName('MADAGASCAR');displaySecondLanguage('Francés')" class="indoeuropeas" d="M244.85,236l.77,1.7.6,2.62,0,4.73.68,1.85-.58,1.87-.75,1.13-.88-2.32-.8,1.14.3,2.9-.51,1.64-1.07.87-.67,3.27-2,4.45L237.5,267l-3.25,7.13-2.17,5.18-2.27,4.28-2.87.82-3.2,1.5L222,285l-2.46-1.37-.64-2,.27-3.31-.79-3,0-2.71,1-2.72,1.7-.63.18-1.26,2.05-2.86.62-2.43-.61-1.83-.38-2.44.1-3.56,1.48-2.14.75-2.46,1.8-.11,2.08-.76,1.4-.68,1.57,0,2.26-2.18,3.18-2.35,1.26-1.94-.31-1.69,1.46.51,2.22-2.69.3-2.36,1.33-1.73Z"/></g>
			<g id="Khoe-Sandawe">
				<path id="NAMIBIA" onmouseover="displayName('NAMIBIA');displaySecondLanguage('Nama')" class="joisanas" d="M121.45,296.16l-2.8-2.71-1.56-2.64-1-3.56L115,284.58l-1.61-5.71-.39-4.49-.59-2.05-1.53-1.54-2.11-3.12-2.24-4.56-1-2.4L102.28,257l-.42-3,1.76-.76,2.21-.68,2.45.09,2.34,1.73.56-.27,15.35-.27,2.68,1.84,9.23.52,7-1.59,3.14-.88L151,254l1.49.88,0,.32-2.15.87h-1.17l-2.43,1.52-1.45-1.6-5.85,1.36-2.83.13.12,13.62-3.66.14.3,10.95.43,13.53-3.06,1.85-1.86.27-2.23-.66-1.58-.25-.68-1.54-1.43-1Z"/></g>
			<g id="Afroasiatica">
				<path id="SUDÁN_DEL_SUR" onmouseover="displayName('SUDÁN DEL SUR');displaySecondLanguage('Árabe')" data-name="SUDÁN DEL SUR" class="afroasiaticas" d="M187.59,147.79l.13,3.05-.56,1.19-2.06.08-1.28,2.23,2.41.31,2,1.93.71,1.59,1.81.93,2.39,4.33-2.6,2.58-2.38,2.35-2.4,1.81-2.77,0-3.18.91-2.51-.91-1.63,1.07-3.5-2.67-1-1.7-2.21.83-1.83-.27-1.07.66-1.78-.49-2.44-3.28-.64-1.26-3-1.58-1-2.37-1.67-1.72-2.68-2.05,0-1.29-2.17-1.59-2.7-1.54,1.21-.43,1.35-.74,1-3.49,1.07-1.81,2.83-.53.69,1.07,2,2.28,1.1.34,1.41-.67,2.84.15.55.8,3.92,0,.11-.8,2-.73.39-1.14,1.46-.8,3.33,2.3,2-.39,1.87-2.8,2.07-2.12-.39-2.33L180,138l2.32-.18.23-.86,1.8.28-.37,2.85.57,2.8,2,1.56.5,1.34v1.95Z"/>
				<path id="ETIOPIA" onmouseover="displayName('ETIOPIA');displaySecondLanguage('Amaric')" class="afroasiaticas" d="M218.86,136.23l-1.19,1.69-1.14,1.79.36,1.08L217,142l2.08.1.88-.26.87.71-.73,1.37,1.51,2.17,1.47,1.9,1.5,1.43,12.29,4.89,3,0L230.12,166l-4.86.09L222,168.8l-2.42,0-1,1.24-2.6,0-1.57-1.37-3.46,1.61-1.1,1.64-2.57-.35-.87-.47-.9.1-1.21-.06-5-3.44-2.7,0-1.36-1.32,0-2.23-2-.68-2.39-4.33-1.81-.93-.71-1.59-2-1.93-2.41-.31,1.28-2.23,2.06-.08.56-1.19-.12-3.17,1-4.42,1.8-1.07.33-1.59,1.52-2.94,2.23-1.89,1.34-3.77.43-3.29,4.44.86,1-2.84,2.38,1.76,2.13-.87,1,.81,2.56.08,3.35,1.58,1,1.34,1.75,1.26,1.69,2.28Z"/>
				<polyline id="SOMALIA" onmouseover="displayName('SOMALIA');displaySecondLanguage('Árabe')" class="afroasiaticas" points="242.6 140.77 240.78 140.88 239.57 141.56 237.81 141.77 234.73 142.91 230.81 143.29 227.43 144.22 225.6 144.17 223.83 142.51 223 140.89 221.89 140.23 220.01 143.57 222.79 147.39 224.44 148.92 236.58 153.8 239.48 153.83 239.61 154.01 229.78 165.66 224.92 165.74 221.66 168.48 219.24 168.51 218.23 169.75 214.98 174.21 215.1 188.76 217.34 192.1 218.21 191.17 219.1 189.07 223.25 184.29 226.74 181.32 232.28 177.47 235.92 174.31 240.1 168.98 243.04 164.6 245.85 158.88 247.76 153.9 249.17 149.55 249.82 145.35 250.44 143.96 250.25 141.91 250.34 139.66 250.16 138.59 248.85 138.56 247.32 139.85 245.5 140.2 243.92 140.73"/>
				<path id="NÍGER" onmouseover="displayName('NÍGER');displaySecondLanguage('Hausa')" class="afroasiaticas" d="M64.84,138.74l.29-2.65L61,135.3l.05-1.86L59.31,131l-.3-1.73.48-1.86,2.3-.19,1.45-1.38,4.93-.42,3.28-.67.54-2.34,2.23-2.56.93-8.62,5.24-1.74,11.18-7.38,13-7,5.58,1.49,1.9,2,2.68-1.36.55,5.64,1.33.94v1.16l1.48,1.25-.88,1.59-1.81,7.55-.43,4.89-5,3.61-1.88,5,1.52,1.4-.1,2.47,2.46.07-.46,1.81-1.09.23-.17,1.23-.72.09-2.43-4.19-.89-.15-3.09,2.18-2.9-1.09-2-.2-1.12.55-2.22-.09-2.33,1.67-1.93.12L86.13,133l-1.83,1-1.91,0-1.29-1.44-3.62-1.37-4,.52-1,.84-.69,2.22-1.18,1.58-.51,3.46-2.64-2.18-1.32,0Z"/>
				<path id="NIGERIA" onmouseover="displayName('NIGERIA');displaySecondLanguage('Hausa')" class="afroasiaticas" d="M87.35,166.49l-4,1.48-1.44-.19-1.49.91-3,0-2-2.45-1.16-2.85-2.58-2.56-2.82.1-3.29.05.5-6.36,0-2.5.83-2.49,1.21-1.22L70,145.93l-.32-1,.82-1.58L69.87,141l.24-1.29.51-3.46,1.18-1.58.69-2.22,1-.84,4-.52,3.62,1.37,1.29,1.44,1.91,0,1.83-1,4.44,1.93,1.93-.12,2.33-1.67,2.22.09,1.12-.55,2,.2,2.9,1.09,3.09-2.18.89.15,2.43,4.19.72-.09,1.47,1.52-.46.7-.24,1.29-3.36,3-1.11,2.5-.61,2-.85.88-.87,2.75-2.12,1.64-.66,2-.92,1.6-.41,1.64L97.41,159l-2.13-1.59-1.46.08-2.36,2.34-1.13,0-1.93,3.84Z"/>
				<path id="MARRUECOS" onmouseover="displayName('MARRUECOS');displaySecondLanguage('Tamazight')" class="afroasiaticas" d="M65.35,56.17l.48,2-.4,1.94.06,3.4.61.67-.91,1.29L61,66.13,59.3,67.38l-1.84.33-.84,2.47L52.7,71.6,51,73.32l-2.74,1-3.15.6-5.57,2.66-1.18,4.08H38L37.5,83.5l-1.89.17-1.19.82-1.35,0-.93-.42-2.59.46-1.76,2.77-1,.29-2.65,4.52-5.12,4-2.29,5-1.61,1.68-.68,1.33-6.55.56h0l.58-1.7,1.34-1,1.44-1.93.15-1.22,1.69-2.59L15.3,94l1.12-.62,1.37-2.11.63-1.89,1.69-2.22,2.29-1.35,2.93-3.63.07-.05,1.85-1.38,2.8-.48,3-2.42,1.75-1,3.34-2.92.66-4.15,2.08-2.89,1-1.75,2.62-2.26,3.37-1.57,2.59-1.39,3.09-3.36,1.59-2,2.09,0,1.25,1.29,2.82-.29,2.8.62Z"/>
				<path id="YIBUTI" onmouseover="displayName('YBUTI');displaySecondLanguage('Árabe')" class="afroasiaticas" d="M221.5,135.67l1,1.21v1.61l-2,.89,1.66,1.09-1.22,2.05-.87-.71-.88.26L217,142l-.13-1.19-.36-1.08,1.14-1.79,1.19-1.69,1.61.36Z"/><path id="ERITREA" class="afroasiaticas" d="M218.86,136.23,217.51,135l-1.69-2.28-1.75-1.26-1-1.34-3.35-1.58-2.56-.08-1-.81-2.13.87-2.38-1.76-1,2.84-4.44-.86-.5-1.53,1.27-5.57.19-2.5,1.09-1.14,2.68-.59,1.7-2.11,2.5,4.37,1.3,3.49,2.17,1.88,5.33,3.68,2.22,2.21,2.18,2.25,1.26,1.34,1.89,1.19-1,.93Z"/>
				<path id="CHAD" onmouseover="displayName('CHAD');displaySecondLanguage('Árabe')" class="afroasiaticas" d="M111.51,134.56l.46-1.81-2.46-.07.1-2.47-1.52-1.4,1.88-5,5-3.61.43-4.89,1.81-7.55.88-1.59-1.48-1.25V103.7l-1.33-.94-.55-5.64,3.8-2L132.92,102l14.86,7,.22,14.89-3.33-.27-1.78,2.81-1,2.35.81.9-1.29,1.17.44,1.59-1,1.6-.4,1.41,1.38-.22.81,1.49,0,2.25,1.44,1.14,0,.94-2.49.66-2,1.58-2.88,4.27-3.72,1.82-3.82-.22-1.11.37.38,1.37-2.08,1.39-1.7,1.54-5,1.54-1-.89-.65-.07-.75,1-3.25.32.63-1.07-1.17-2.7-.51-1.62-1.69-.65L109,147.43l.89-1.85,1.77.37,1.1-.29,2.18,0-2-3.52.22-2.58L113,137Z"/></g>
			<g id="CongoNiger">
				<polygon id="MAURITANIA" onmouseover="displayName('MAURITANIA');displaySecondLanguage('Pulaar')" class="nigerocongolesas" points="39.19 125.64 40.38 123.01 39.86 122.66 40.72 106.72 42.58 90.67 46.98 90.52 38.23 82.92 36.75 87.99 27 88.23 24.57 97.36 21.79 97.59 20.55 99.6 19.79 104.95 8.37 105.29 7.51 106.48 8.44 107.86 8.76 109.59 8.03 111.45 7.96 113.29 7.47 116.97 6.38 120.53 5.19 122.42 5.12 124.31 6.3 123.2 7.75 123.42 9.32 122.58 11 122.48 12.25 123.53 14.09 124.47 15.29 126.84 17.14 129.75 18.3 129.01 19.19 126.75 20.2 126.62 22.26 127.61 24.21 126.72 25.39 127 25.98 126.08 39.19 125.64"/>
				<path id="ZAMBIA" onmouseover="displayName('ZAMBIA');displaySecondLanguage('Nyanja')" class="nigerocongolesas" d="M182.93,222.16l1.79,1.79.89,3.38-.69,1.07-.89,3.2.62,3.28-1.26,1.37-1.31,3.65,2,1-11.76,3.15.27,2.79-2.91.52-2.24,1.55-.49,1.34-1.38.3-3.39,3.18-2.16,2.5-1.29.08-1.23-.45-4.26-.43-.68-.29,0-.32L151,254l-2.48-.22-3.14.88-2.5-2.42L140.3,249l.09-12.47,8.13,0-.34-1.36.58-1.48-.69-1.85.45-1.92-.41-1.23,1.36.1.21,1.23,1.85-.09,2.48.37,1.3,1.8,3.12.56,2.41-1.24.84,2.08,3,.56,1.41,1.69,1.55,2.18,3,0-.22-4.25-1.08.71-2.69-1.55-1-.71.55-4,.77-4.69L166,221.8l1.16-2.54,1.07-.47,5.3-.64,1.54.42,1.62,1,1.55.68,2.48.69Z"/>
				<path id="TANZANIA" onmouseover="displayName('TANZANIA');displaySecondLanguage('Kinguja')" class="nigerocongolesas" d="M187.91,189.11l.66.44,14.1,8.31.23,2.32,5.47,4.08-1.89,4.91.16,2.26,2.41,1.49.08,1-1.13,2.4.18,1.21-.32,1.9,1.22,2.51,1.39,3.94,1.33.89-3.12,2.26-4.21,1.48-2.28-.1-1.41,1.17-2.65.07-1,.49L192.52,231l-2.91.29-.88-5.4L187.47,224l-.74-1.1-3.81-.78L180.75,221l-2.48-.69-1.55-.68-1.62-1-2-5-2.26-2.25-.76-2.32.41-2.07-.68-3.69,1.64-.18,1.45-1.44,1.56-2.08,1-.84,0-1.3-.85-.91-.22-1.58,1.15-.5.24-2.35-1.57-2.27,1.4-.47,4.34.08Z"/>
				<path id="UGANDA" onmouseover="displayName('UGANDA');displaySecondLanguage('Luganda')" class="nigerocongolesas" d="M174.12,189.74,171.74,191l-1-.42,0-3,.93-1.52.21-3.21.84-1.85,1.51-2.07,1.53-1.05,1.26-1.41-1.59-.55.2-4.65,1.63-1.07,2.51.91,3.18-.91,2.77,0,2.4-1.81,1.9,2.78.47,2,1.78,4.59-1.41,2.9L189,183.25l-1.13,1.61,0,4.24-8,.24-4.34-.08Z"/>
				<path id="TOGO" onmouseover="displayName('TOGO');displaySecondLanguage('Ewe y Mina')" class="nigerocongolesas" d="M62.44,161.48l-3,.9L58.67,161l-.86-2.48-.19-2,1-3.56-.82-1.41-.16-3.08.21-2.84-1.36-2,.35-1.22,3.15,0-.61,2.06,1,1.13L61.58,147l0,1.92.69.79-.65,9Z"/>
				<path id="ZIMBABUE" onmouseover="displayName('ZIMBABUE');displaySecondLanguage('Sindebele')" class="nigerocongolesas" d="M174.93,272.81l-1.94-.39-1.27.44-1.75-.65-1.5,0-2.29-1.73-2.85-.59-1-2.41,0-1.34-1.59-.42-4.18-4.22-1.15-2.23-.76-.69-1.43-3.09,4.26.43,1.23.45,1.29-.08,2.16-2.5,3.39-3.18,1.38-.3.49-1.34,2.24-1.55,2.91-.52.2,1.46,3.19-.05,1.73.83.78,1,1.79.3,1.92,1.26-.24,4.9-.87,2.67-.31,2.87.54,1.14-.54,2.25-.58.34L179,268.53Z"/>
				<path id="SUDÁFRICA" onmouseover="displayName('SUDÁFRICA');displaySecondLanguage('Isixhosa')" class="nigerocongolesas" d="M121.45,296.16l1.56-1.79,1.43,1,.68,1.54,1.58.25,2.23.66,1.86-.27,3.06-1.85-.43-13.53,1,.55,2.23,3.51-.28,2.24.83,1.28,2.55-.38,1.77-1.64,1.7-1.11.87-1.77,1.75-.86,1.52.45,1.73,1,2.93.18,2.32-.86.38-1.16.66-1.77,2-.29,1.12-1.4,1.29-2.48,3.37-2.79,5.31-2.75,1.5,0,1.75.65,1.27-.44,1.94.39,1.45,5.3.77,2.66-.9,4.13.21,1.32-1.76-.68-1,.26-.4,1.07-1.06,1.37-.05,1.27,2,2,2.1-.38.83-1.62,2.68.05-1.1,2.65-.64,3-1,1.62-2.51,1.79-.71.52-1.6,1.8-1.08,1.82-2.12,2.52-4.05,3.6L162.41,311l-2.6,1.57-3.53,1.33-1.7.18-.46,1-2-.51-1.66.65-3.6-.66-2,.42-1.38-.18-3.39,1.36-2.81.55-2,1.29-1.5.08-1.44-1.21-1.12-.05-1.51-1.52-.13.48-.5-.92-.1-2-1.22-2.32,1-.64-.24-2.68-2.42-3.29-1.91-3h0Zm44.25,1.33-1.47-1.12-1.67.73-2,1.4-1.93,2.26,2.49,2.74,1.24-.35.68-1.13,2-.55.65-1.15,1.15-1.74Z"/>
				<path id="SIERRA_LEONA" onmouseover="displayName('SIERRA LEONA');displaySecondLanguage('Mende')" data-name="SIERRA LEONA" class="nigerocongolesas" d="M16.11,160.17l-.86-.26L13,158.4l-1.49-2-.44-1.42L11,152l1.86-1.79.47-1.09.64-.87.88-.12.83-.76,2.58-.09.77,1.37.55,1.62-.21,1.15.43,1-.16,1.44.93-.26-1.67,1.88-1.65,2.19L17,158.89Z"/>
				<path id="SENEGAL" onmouseover="displayName('SENEGAL');displaySecondLanguage('Wolof')" class="nigerocongolesas" d="M2.63,134.21l-.73-2.94L.68,130l1.41-.78L4,126.45l1.06-2L6.3,123.2l1.41.27,1.61-.89,1.68-.11,1.25,1.06,1.85.93,1.39,2.73,1.65,2.55-.21,2.38.3,2.18,1,1,.08,1.49L18,138l-.49.23L15.86,138l-.3.44-.71.11-2.14-.86-1.5,0-5.65.05-.88.47-1-.08L2,138.87,2,135.93l2.71,0,.81-.57.55-.06,1.26-.93,1.18.76,1.33,0,1.46-.92-.46-1.09-1.12.69-.94,0-1.06-.9-1,.1L5.9,134Z"/>
				<path id="MALI" onmouseover="displayName('MALÍ');displaySecondLanguage('Bambara')" class="nigerocongolesas" d="M17.05,129.78l1.16-.74.89-2.27,1-.12,2.05,1,1.93-.82,1.2.21.62-.86,13.25-.45L40.29,123l-.51-.45,1.08-16.08,1.78-15.57,4.86-.2,9.42,7.55L67.15,106l.59,1.71,2,1,1.56.57-.26,2.36,4-.43-.93,8.62-2.23,2.56-.54,2.34-3.28.67-4.93.42-1.45,1.38-2.3.19-2.27.07-.81-.71-2,.59L50.87,129l-.8,1.21L47.16,132l-.58,1-1.54.82-1.61-.48-1,1-.8,2.66-3.07,3.28,0,1.31-1.1,1.67v2.25l-1.46.62-.85.51L34.7,145l-1,.47-.58-.06-.73,1.16-2.62,0-.88-.56-.47.37-.92-1.09.3-1.17-.37-.44-.75.41.26-1.27.79-1-1.18-1.58-.27-1.06-.64-.82-.64-.08-.86.56-1.12.55-1,.87L20.67,140l-.78-1-.52-.12-.91.55-.51,0v-1.41l.31-1.21-.08-1.49-1-1-.3-2.18Z"/>
				<path id="MALAUI" onmouseover="displayName('MALAUI');displaySecondLanguage('Chichewa')" class="nigerocongolesas" d="M189.61,231.31l-1.18,3,.84,5.13,1.34,0,1.31,1.28,1.44,2.86,0,5-1.67.81L190.42,252l-2.32-2.43-.14-2.75.9-1.81-.14-1.57-1.46-1-1.07.35-2.11-1.9-2-1,1.31-3.65,1.26-1.37L184,231.6l.89-3.2.69-1.07-.89-3.38-1.79-1.79,3.81.78.74,1.1,1.27,1.87Z"/>
				<path id="LIBERIA" onmouseover="displayName('LIBERIA');displaySecondLanguage('Fang')" class="nigerocongolesas" d="M28,169.36l-.9.06-3.4-1.78-2.88-2.93-2.69-2.07-2-2.47.86-1.29.26-1.16,1.65-2.19,1.67-1.88.71-.11.9-.47,1.19,2.37L23,157l.6.82h.94l.8-1.61.94.07L26,157.45l.21,1.89-.84,1.78.92,1.05,1.06.24L28.75,164l0,1.56-.34.51Z"/>
				<path id="KENIA" onmouseover="displayName('KENIA');displaySecondLanguage('Swahili')" class="nigerocongolesas" d="M217.68,192.41,215,194l-1,1.65-1.44.27L212,198.7l-1.26,1.6L210,203l-1.58,1.3-5.47-4.08-.23-2.32-14.1-8.31-.66-.44,0-4.24,1.13-1.61,1.93-2.62,1.41-2.9-1.78-4.59-.47-2-1.9-2.78,2.38-2.35,2.6-2.58,2,.68,0,2.23,1.36,1.32,2.7,0,5,3.44,1.21.06.9-.1.87.47,2.57.35,1.1-1.64,3.46-1.61L216,170l2.6,0-3.25,4.46.11,14.55Z"/>
				<path id="COSTA_MARFIL" onmouseover="displayName('COSTA MARFIL');displaySecondLanguage('Dyula')" data-name="COSTA MARFIL" class="nigerocongolesas" d="M45.08,166.4l-1.62.08L41,165.77l-2.26.1-4.17.81-2.45,1.21-3.46,1.56-.66-.08.41-3.28.34-.51,0-1.56-1.35-1.61-1.06-.24-.92-1.05.84-1.78L26,157.45l.24-1.15.53,0,.33-1.72-.21-.76.37-.56,1.29-.51L28,149.62,27.4,148l.4-1.33.69-.33L29,146l.88.56,2.62,0,.73-1.16.58.06,1-.47.38,1.65.85-.51,1.46-.62,1.48.81.5,1.27,1.5.79,1.3-1,1.65-.19,2.33,1,.55,5.55L45.09,157l-1.17,4.48,1.39,3.37Z"/>
				<path id="GUINEA" onmouseover="displayName('GUINEA');displaySecondLanguage('Fula')" class="nigerocongolesas" d="M26.29,156.29l-.94-.07-.8,1.61h-.94L23,157l.35-1.59-1.19-2.37-.9.47-.71.11-.93.26.16-1.44-.43-1,.21-1.15L19,148.69l-.77-1.37-2.58.09-.83.76-.88.12-.64.87-.47,1.09L11,152l-1.16-2.27-1.06-1.49L8,147.81l-.68-.75-.16-1.71-.35-.84-.81-.6,1.6-2,.92,0,.9-.69.68,0,.56-.53-.1-1.28.4-.42.23-1.31,1.5,0,2.14.86.71-.11.3-.44,1.69.24L18,138v1.41l.51,0,.91-.55L20,139l.78,1,1.36.26,1-.87,1.12-.55.86-.56.64.08.64.82.27,1.06,1.18,1.58-.79,1-.26,1.27.75-.41.37.44-.3,1.17.92,1.09-.69.33L27.4,148l.63,1.59.58,3.11-1.29.51-.37.56.21.76-.33,1.72Z"/>
				<path id="GHANA" onmouseover="displayName('GHANA');displaySecondLanguage('Ewe')" class="nigerocongolesas" d="M59.43,162.38l-5.83,2.44-2.06,1.41-3.29,1.23-3.16-1.05.23-1.57-1.39-3.37L45.09,157l1.7-3.35-.55-5.55L46,145.15l.28-2.21,6.16-.33,1.56.25,1.21-.65,1.63.27-.35,1.22,1.36,2-.21,2.84.16,3.08.82,1.41-1,3.56.19,2,.86,2.48Z"/>
				<path id="GAMBIA" onmouseover="displayName('GAMBIA');displaySecondLanguage('Mandinka')" class="nigerocongolesas" d="M2,135.93l.65-1.72L5.9,134l.83-.94,1-.1,1.06.9.94,0,1.12-.69.46,1.09-1.46.92-1.33,0-1.18-.76L6,135.28l-.55.06-.81.57Z"/>
				<path id="GABÓN" onmouseover="displayName('GABÓN');displaySecondLanguage('Fang')" class="nigerocongolesas" d="M97.34,201.31l-4-4L90.68,194l-2.39-4.1.12-1.34.85-1.29.93-2.92.79-3,1.32-.25,5.67,0v-4.8l1.86-.28,2.38.51,2.32-.53.49.21-.31,1.74,1.09,2.06,2.94-.35,1,.78L108,185.13l1.86,2.35.45,3.12-.5,2.66-1.2,1.91-3.48-.14-2.11-1.9-.31,1.78-2.64.52-1.33,1,1.51,2.63Z"/>
				<path id="GUINEA_ECUATORIAL" onmouseover="displayName('G. ECUATORIAL');displaySecondLanguage('Fang')" data-name="GUINEA ECUATORIAL" class="nigerocongolesas" d="M91,181.43l-.72-.59,1.37-4.5,6.34,0v4.8l-5.67,0Z"/>
				<path id="BENÍN" onmouseover="displayName('BENÍN');displaySecondLanguage('Fon')" class="nigerocongolesas" d="M65.52,161l-3.08.53-.8-2.71.65-9-.69-.79,0-1.92-1.17-1.34-1-1.13.61-2.06,1.29-.47.86-1.71,1.81-.4.89-1.17,1.31-1.16,1.32,0,2.64,2.18L69.87,141l.67,2.29-.82,1.58.32,1-1.95,2.46-1.21,1.22L66,152.09l0,2.5Z"/>
				<path id="R.D._CONGO" onmouseover="displayName('R.D. CONGO');displaySecondLanguage('Lingala')" data-name="R.D. CONGO" class="nigerocongolesas" d="M175.71,171.21l-.2,4.65,1.59.55-1.26,1.41-1.53,1.05-1.51,2.07L172,182.8l-.21,3.21-.93,1.52,0,3-1.15,1.11-.15,2.38-.55.31-.38,2.19,1,1.83.21,4.82.68,3.69-.41,2.07.76,2.32,2.26,2.25,2,5-1.54-.42-5.3.64-1.07.47L166,221.8l.85,1.76-.77,4.69-.55,4,1,.71,2.69,1.55,1.08-.71.22,4.25-3,0-1.55-2.18-1.41-1.69-3-.56-.84-2.08-2.41,1.24-3.12-.56-1.3-1.8-2.48-.37-1.85.09-.21-1.23-1.36-.1-1.8-.23-2.43.6-1.71-.1-1,.37.19-4.72-1.33-1.48-.31-2.45.57-2.4-.81-1.54-.08-2.51-4.81,0,.33-1.44-2,0-.21.69-2.45.16-1,2.33-.59,1-2.2-.55-1.29.57-2.61.33-1.54-2.08-.93-1.28L119,211.7l-1-3-11.62,0-1.37.49-1.13-.07-1.61.56-.57-1.24,1-.43.09-1.74.62-1,1.41-.85,1,.4,1.32-1.55,2.15,0,.26,1.13,1.48.7,2.3-2.53,2.27-2,1-1.29-.17-3.29,1.71-3.9L120,190.1l2.62-1.95.46-1.28.1-1.47.65-1.39-.2-2.26.5-3.54.8-2.5,1.2-2.14.24-2.4.37-2.78,1.56-2,2.14-1.29,3.27,1.34,2.53,1.46,2.91.39,3,.77,1.2-2.39.55-.31,1.82.4,4.44-2,1.58.83,1.29-.12.59-1,1.49-.33,3,.42,2.55.1,1.3-.42,2.44,3.28,1.78.49,1.07-.66,1.83.27,2.21-.83,1,1.7Z"/>
				<path id="CONGO" onmouseover="displayName('CONGO');displaySecondLanguage('Lingala')" class="nigerocongolesas" d="M104.82,204.45l-1.49-1.36-1.17.69-1.55,1.75-3.27-4.2,3-2.24-1.51-2.63,1.33-1,2.64-.52.31-1.78,2.11,1.9,3.48.14,1.2-1.91.5-2.66-.45-3.12L108,185.13l1.71-4.64-1-.78-2.94.35L104.73,178l.31-1.74,5,.12,3.2,1,3.13.92.3-2.16,2.11-3.72,2.39-2.12,2.68.65,2.55.22-.24,2.4-1.2,2.14-.8,2.5-.5,3.54.2,2.26-.65,1.39-.1,1.47-.46,1.28L120,190.1l-1.81,2.07-1.71,3.9.17,3.29-1,1.29-2.27,2-2.3,2.53-1.48-.7-.26-1.13-2.15,0-1.32,1.55Z"/>
				<path id="REPÚBLICA_CENTROAFRICANA" onmouseover="displayName('R. CENTROAFRICANA');displaySecondLanguage('Sangho')" data-name="REPÚBLICA CENTROAFRICANA" class="nigerocongolesas" d="M114,155.74l3.25-.32.75-1,.65.07,1,.89,5-1.54,1.7-1.54,2.08-1.39-.38-1.37,1.11-.37,3.82.22,3.72-1.82,2.88-4.27,2-1.58,2.49-.66.43,1.66,2.27,2.44v1.59l-.64,1.63.26,1.22,1.37,1.13,3,1.72L152.9,154l0,1.29,2.68,2.05,1.67,1.72,1,2.37,3,1.58.64,1.26-1.3.42-2.55-.1-3-.42-1.49.33-.59,1-1.29.12-1.58-.83-4.44,2-1.82-.4-.55.31-1.2,2.39-3-.77-2.91-.39-2.53-1.46-3.27-1.34-2.14,1.29-1.56,2-.37,2.78L123.8,171l-2.68-.65-2.39,2.12-2.11,3.72-.41-1.15-.16-1.82-1.8-1.27-1.45-2-.31-1.43-1.85-2.06.34-1.18-.37-1.67.35-3.07,1-.73Z"/>
				<path id="BOTSUANA" onmouseover="displayName('BOTSUANA');displaySecondLanguage('Kalanga')" class="nigerocongolesas" d="M168.48,272.17l-5.31,2.75-3.37,2.79-1.29,2.48-1.12,1.4-2,.29-.66,1.77-.38,1.16-2.32.86-2.93-.18-1.73-1-1.52-.45-1.75.86-.87,1.77-1.7,1.11-1.77,1.64-2.55.38-.83-1.28.28-2.24-2.23-3.51-1-.55-.3-10.95,3.66-.14-.12-13.62,2.83-.13,5.85-1.36,1.45,1.6,2.43-1.52h1.17l2.15-.87.68.29,1.43,3.09.76.69,1.15,2.23,4.18,4.22,1.59.42,0,1.34,1,2.41,2.85.59Z"/>
				<path id="ANGOLA" onmouseover="displayName('ANGOLA');displaySecondLanguage('Umbundu')" class="nigerocongolesas" d="M148.12,228.75l.41,1.23-.45,1.92.69,1.85-.58,1.48.34,1.36-8.13,0L140.3,249l2.62,3.18,2.5,2.42-7,1.59-9.23-.52-2.68-1.84-15.35.27-.56.27-2.34-1.73-2.45-.09-2.21.68-1.76.76-.5-2.44.31-3.43,1.11-3.59.12-1.68,1.06-3.55.84-1.62,2.09-2.6,1.18-1.77.3-2.94-.28-2.24-1.2-1.41-1.11-2.4-1-2.37.19-.83,1.15-1.59-1.28-3.84-.86-2.66-2-2.51.35-.78,1.61-.56,1.13.07,1.37-.49,11.62,0,1,3,1.17,2.39.93,1.28,1.54,2.08,2.61-.33,1.29-.57,2.2.55.59-1,1-2.33,2.45-.16.21-.69,2,0-.33,1.44,4.81,0,.08,2.51.81,1.54-.57,2.4.31,2.45,1.33,1.48-.19,4.72,1-.37,1.71.1,2.43-.6Zm-46.41-20.24-1.1-3,1.55-1.75,1.17-.69,1.49,1.36-1.41.85-.62,1-.09,1.74Z"/></g>
				<g id="noms"><rect id="Degradado" class="cls-11" x="131.5" y="-132.5" width="49" height="314" transform="translate(180.5 -131.5) rotate(90)"/><text class="cls-12" transform="translate(31.99 17)">El segundo idoma más hablado en África</text><text class="cls-13" transform="translate(24.63 30.08)">Haz clic en cada país para saber cuál es la segunda lengua más hablada</text><text class="cls-14" transform="translate(4.48 322.78)">Fuente: Ethnologue y CIA Factbook</text><text class="cls-15" transform="translate(5.46 230.3)">Familias lingüísticas:</text><text class="cls-16" transform="translate(6.08 243.54)">INDOEUROPEAS</text><text class="cls-17" transform="translate(5.99 255.54)">NÍGEROCONGOLESAS</text><text class="cls-18" transform="translate(5.66 266.19)">AFROASIÁTICAS</text><text class="cls-20" transform="translate(5.72 278.19)">JOISANAS</text><text class="cls-14" transform="translate(251.87 322.78)">LA VANGUARDIA</text><rect class="cls-21" x="222" y="198" width="91" height="32"/></g>
 	<text class="label" id="country-name" x="225" y="210"> </text> 
 	<text class="label2" id="SecondLanguage" x="225" y="225"> </text>

 	<script type="text/javascript"><![CDATA[  
    function colourCountry(country_name, colour) {
        var country = document.getElementById(country-name);
        country.setAttributeNS(null, 'fill', colour);
    }
  
    function displayName(name) {
        document.getElementById('country-name').firstChild.data = name;
    }

    function displaySecondLanguage(language2) {
        document.getElementById('SecondLanguage').firstChild.data = language2;
    }
]]></script>
			</svg>