<svg id="757b8872-0025-469b-ac35-b0716936d2fe" data-name="Capa 1" xmlns="http://www.w3.org/2000/svg" viewBox="0 0 1593.16 1295.84"><defs><style>.\37 b7fbd7d-03a2-42cf-ac9a-ac0929eaeb95,.\38 5b87191-3f00-4fe1-ae0c-02d5984e4ebc,.\39 99c4cec-544c-4607-99e2-b467fc423b35,.f6b76d61-38e8-42f7-831f-3b104b7691bb{fill:none;}.\37 b7fbd7d-03a2-42cf-ac9a-ac0929eaeb95,.\38 5b87191-3f00-4fe1-ae0c-02d5984e4ebc,.f6b76d61-38e8-42f7-831f-3b104b7691bb{stroke:#313232;}.\35 64914a9-47c6-434e-94b0-aff94f12a8a9,.\37 b7fbd7d-03a2-42cf-ac9a-ac0929eaeb95,.\38 5b87191-3f00-4fe1-ae0c-02d5984e4ebc,.\39 99c4cec-544c-4607-99e2-b467fc423b35,.aea26295-425e-4d31-b931-b1b5eeb598d2,.f6b76d61-38e8-42f7-831f-3b104b7691bb{stroke-miterlimit:10;}.\38 5b87191-3f00-4fe1-ae0c-02d5984e4ebc,.\39 99c4cec-544c-4607-99e2-b467fc423b35,.f6b76d61-38e8-42f7-831f-3b104b7691bb{stroke-width:2px;}.\37 b7fbd7d-03a2-42cf-ac9a-ac0929eaeb95,.\39 99c4cec-544c-4607-99e2-b467fc423b35,.f6b76d61-38e8-42f7-831f-3b104b7691bb{opacity:0.42;}.\32 c3acff8-2a3d-4fa5-9ded-45d476a89fc7{font-size:45px;}.\32 c3acff8-2a3d-4fa5-9ded-45d476a89fc7,.ecd3924c-967b-4b1e-b285-5544c393f7d0{fill:#353535;}.\32 c3acff8-2a3d-4fa5-9ded-45d476a89fc7,.\37 8d00ccf-0905-4fbf-8662-5b06a543cf3e,.abef498a-5ffa-4049-80ad-febd7197c932{font-family:Arial-BoldMT, Arial;}.\32 c3acff8-2a3d-4fa5-9ded-45d476a89fc7,.\34 7fe5406-a10b-45fb-9f3e-e9da532d6cf0,.\37 8d00ccf-0905-4fbf-8662-5b06a543cf3e{font-weight:700;}.\36 982df55-0a33-47df-b366-6d7f32720c00,.\37 8d00ccf-0905-4fbf-8662-5b06a543cf3e,.ecd3924c-967b-4b1e-b285-5544c393f7d0,.f7973fa6-da18-4469-9574-0952e1338e6c,.feca9065-eaa6-4c08-909d-52496483f7a0{font-size:35px;}.\36 982df55-0a33-47df-b366-6d7f32720c00,.af63e40a-5358-44a2-9b61-6345b6056407,.ecd3924c-967b-4b1e-b285-5544c393f7d0,.f7973fa6-da18-4469-9574-0952e1338e6c,.feca9065-eaa6-4c08-909d-52496483f7a0{font-family:ArialMT, Arial;}.\32 8d772f1-3182-4a01-b046-b8aa1f2f2f65{letter-spacing:-0.04em;}.afb5404e-37d1-4c44-b8e6-3c6f0b1cb14e{letter-spacing:-0.02em;}.d50bb424-534e-46fd-8e49-00be837cb663{letter-spacing:-0.06em;}.abef498a-5ffa-4049-80ad-febd7197c932{font-size:38px;}.abef498a-5ffa-4049-80ad-febd7197c932,.af63e40a-5358-44a2-9b61-6345b6056407{fill:#747474;}.af118dfd-d2bf-4db9-8beb-78d6b286cb39{letter-spacing:-0.07em;}.\37 8d00ccf-0905-4fbf-8662-5b06a543cf3e{fill:#757576;}.f7973fa6-da18-4469-9574-0952e1338e6c{fill:#1f888b;}.feca9065-eaa6-4c08-909d-52496483f7a0{fill:#cb762d;}.af63e40a-5358-44a2-9b61-6345b6056407{font-size:23px;}.\38 e1695c5-63d1-4748-b5d3-802a80c1598c{letter-spacing:-0.06em;}.\33 386340f-a6cd-423c-9695-bf48a6ed2a55{letter-spacing:0em;}.\30 d1a87de-937d-4b0b-a787-075f0ee1adcb{letter-spacing:-0.06em;}.\31 317c632-b1be-466e-a3ce-d0d278421184{letter-spacing:-0.06em;}.\39 99c4cec-544c-4607-99e2-b467fc423b35{stroke:#747474;}.\37 b7fbd7d-03a2-42cf-ac9a-ac0929eaeb95{stroke-width:4px;}.fbfba702-561e-4d5c-b5b6-0974aa954020{opacity:0.7;}.aea26295-425e-4d31-b931-b1b5eeb598d2{fill:#80bdbe;stroke:#1f888b;}.\35 64914a9-47c6-434e-94b0-aff94f12a8a9{fill:#de9732;stroke:#a76a24;}</style></defs><title>2018.05.30_Ebola_bona</title><line class="f6b76d61-38e8-42f7-831f-3b104b7691bb" x1="10.63" y1="477.84" x2="1558.53" y2="477.84"/><line class="f6b76d61-38e8-42f7-831f-3b104b7691bb" x1="13.28" y1="702.93" x2="1561.18" y2="702.93"/><text class="2c3acff8-2a3d-4fa5-9ded-45d476a89fc7" transform="translate(9.01 85.29)">¿Qué magnitud tiene este caso de ébola comparado con los anteriores?</text><text class="ecd3924c-967b-4b1e-b285-5544c393f7d0" transform="translate(22.24 149.22)">EVOLUCIÓN DE LOS BROTES DESDE E<tspan class="28d772f1-3182-4a01-b046-b8aa1f2f2f65" x="661.27" y="0">L</tspan><tspan x="679.44" y="0" xml:space="preserve"> DESCUBRIMIEN</tspan><tspan class="afb5404e-37d1-4c44-b8e6-3c6f0b1cb14e" x="957.53" y="0">T</tspan><tspan x="978.27" y="0">O DE L</tspan><tspan class="d50bb424-534e-46fd-8e49-00be837cb663" x="1093.03" y="0">A</tspan><tspan x="1114.44" y="0" xml:space="preserve"> ENFERMEDAD EN 1976</tspan></text><line class="85b87191-3f00-4fe1-ae0c-02d5984e4ebc" x1="44.52" y1="342.13" x2="44.52" y2="1036"/><line class="85b87191-3f00-4fe1-ae0c-02d5984e4ebc" x1="915.7" y1="349.84" x2="915.7" y2="1198"/><line class="85b87191-3f00-4fe1-ae0c-02d5984e4ebc" x1="1427.23" y1="343.67" x2="1427.23" y2="1024"/><line class="85b87191-3f00-4fe1-ae0c-02d5984e4ebc" x1="1205.93" y1="338.13" x2="1205.93" y2="781.51"/><line class="85b87191-3f00-4fe1-ae0c-02d5984e4ebc" x1="1565.85" y1="342.13" x2="1565.85" y2="1210"/><text class="abef498a-5ffa-4049-80ad-febd7197c932" transform="translate(61.29 958.65)"><tspan class="47fe5406-a10b-45fb-9f3e-e9da532d6cf0">1976 | Brotes simultáneos en RD <tspan x="0" y="36">Congo y Uganda</tspan></tspan><tspan class="6982df55-0a33-47df-b366-6d7f32720c00"><tspan x="0" y="72">602 casos y 431 muertes</tspan></tspan></text><text class="abef498a-5ffa-4049-80ad-febd7197c932" transform="translate(913.35 952.66)"><tspan class="47fe5406-a10b-45fb-9f3e-e9da532d6cf0"><tspan xml:space="preserve"> 2014 - 2016 | Guinea, Sierra </tspan><tspan x="224.07" y="36">Leona y Liberia</tspan></tspan><tspan class="6982df55-0a33-47df-b366-6d7f32720c00"><tspan x="17.05" y="72">28.610 casos y </tspan><tspan class="af118dfd-d2bf-4db9-8beb-78d6b286cb39" x="262.21" y="72">1</tspan><tspan x="279.07" y="72">1.308 muertes</tspan></tspan></text><text class="abef498a-5ffa-4049-80ad-febd7197c932" transform="translate(915.14 822.71)"><tspan class="47fe5406-a10b-45fb-9f3e-e9da532d6cf0"><tspan xml:space="preserve"> 2007 | Uganda y  RD Congo</tspan></tspan><tspan class="6982df55-0a33-47df-b366-6d7f32720c00"><tspan x="56.84" y="36">413 casos y 224 muertes</tspan></tspan></text><text class="abef498a-5ffa-4049-80ad-febd7197c932" transform="translate(418.05 808.71)"><tspan class="47fe5406-a10b-45fb-9f3e-e9da532d6cf0"><tspan xml:space="preserve"> 1995| RD Congo</tspan></tspan><tspan class="6982df55-0a33-47df-b366-6d7f32720c00"><tspan x="-89.04" y="36">315 casos y 224 muertes</tspan></tspan></text><text class="abef498a-5ffa-4049-80ad-febd7197c932" transform="translate(649.03 1149.13)"><tspan class="47fe5406-a10b-45fb-9f3e-e9da532d6cf0">2000 | Uganda</tspan><tspan class="6982df55-0a33-47df-b366-6d7f32720c00"><tspan x="-135.42" y="36">315 casos y 254 muertes</tspan></tspan></text><text class="abef498a-5ffa-4049-80ad-febd7197c932" transform="translate(1012.34 1151.18)"><tspan class="47fe5406-a10b-45fb-9f3e-e9da532d6cf0"><tspan xml:space="preserve"> 2018 -</tspan><tspan class="28d772f1-3182-4a01-b046-b8aa1f2f2f65" x="118.3" y="0"> </tspan><tspan x="127.45" y="0">Actualidad | RD Congo</tspan></tspan><tspan class="6982df55-0a33-47df-b366-6d7f32720c00"><tspan x="187.06" y="36">54 casos y 25 muertes</tspan></tspan></text><text class="78d00ccf-0905-4fbf-8662-5b06a543cf3e" transform="translate(138.81 246.08)">1980</text><text class="78d00ccf-0905-4fbf-8662-5b06a543cf3e" transform="translate(322.52 246.08)">1985</text><text class="78d00ccf-0905-4fbf-8662-5b06a543cf3e" transform="translate(502.23 246.08)">1990</text><text class="78d00ccf-0905-4fbf-8662-5b06a543cf3e" transform="translate(687.72 250.08)">1995</text><text class="78d00ccf-0905-4fbf-8662-5b06a543cf3e" transform="translate(868.64 252.41)">2000</text><text class="78d00ccf-0905-4fbf-8662-5b06a543cf3e" transform="translate(1046.86 252.41)">2005</text><text class="78d00ccf-0905-4fbf-8662-5b06a543cf3e" transform="translate(1233.48 253.74)">2010</text><text class="78d00ccf-0905-4fbf-8662-5b06a543cf3e" transform="translate(1417.68 253.74)">2015</text><text class="f7973fa6-da18-4469-9574-0952e1338e6c" transform="translate(60.23 422.11)">CASOS</text><text class="feca9065-eaa6-4c08-909d-52496483f7a0" transform="translate(60.23 640.96)">MUE<tspan class="afb5404e-37d1-4c44-b8e6-3c6f0b1cb14e" x="77.78" y="0">R</tspan><tspan x="102.42" y="0">TES</tspan></text><text class="af63e40a-5358-44a2-9b61-6345b6056407" transform="translate(24.29 1279.94)">Fuente: OMS</text><text class="af63e40a-5358-44a2-9b61-6345b6056407" transform="translate(1258.41 1279.94)">Laura<tspan class="8e1695c5-63d1-4748-b5d3-802a80c1598c" x="58.83" y="0"> </tspan><tspan class="3386340f-a6cd-423c-9695-bf48a6ed2a55" x="63.95" y="0">Aragó | L</tspan><tspan class="0d1a87de-937d-4b0b-a787-075f0ee1adcb" x="156.87" y="0">A</tspan><tspan x="170.94" y="0"> </tspan><tspan class="af118dfd-d2bf-4db9-8beb-78d6b286cb39" x="177.33" y="0">V</tspan><tspan x="190.96" y="0">ANGUARDI</tspan><tspan class="1317c632-b1be-466e-a3ce-d0d278421184" x="312.36" y="0">A</tspan></text><line class="999c4cec-544c-4607-99e2-b467fc423b35" x1="32.11" y1="263.04" x2="32.11" y2="312.53"/><line class="999c4cec-544c-4607-99e2-b467fc423b35" x1="67.99" y1="263.04" x2="67.99" y2="312.53"/><line class="7b7fbd7d-03a2-42cf-ac9a-ac0929eaeb95" x1="177.9" y1="263.04" x2="177.9" y2="344"/><line class="7b7fbd7d-03a2-42cf-ac9a-ac0929eaeb95" x1="361.45" y1="262.7" x2="361.45" y2="343.67"/><line class="7b7fbd7d-03a2-42cf-ac9a-ac0929eaeb95" x1="543.16" y1="263.07" x2="543.16" y2="344.04"/><line class="7b7fbd7d-03a2-42cf-ac9a-ac0929eaeb95" x1="726.65" y1="263.07" x2="726.65" y2="344.04"/><line class="7b7fbd7d-03a2-42cf-ac9a-ac0929eaeb95" x1="907.57" y1="262.7" x2="907.57" y2="343.67"/><line class="7b7fbd7d-03a2-42cf-ac9a-ac0929eaeb95" x1="1091.57" y1="263.07" x2="1091.57" y2="344.04"/><line class="7b7fbd7d-03a2-42cf-ac9a-ac0929eaeb95" x1="1272.41" y1="262.7" x2="1272.41" y2="343.67"/><line class="7b7fbd7d-03a2-42cf-ac9a-ac0929eaeb95" x1="1456.61" y1="262.7" x2="1456.61" y2="343.67"/><line class="999c4cec-544c-4607-99e2-b467fc423b35" x1="217.59" y1="262.52" x2="217.59" y2="312.01"/><line class="999c4cec-544c-4607-99e2-b467fc423b35" x1="287.81" y1="263.04" x2="287.81" y2="312.53"/><line class="999c4cec-544c-4607-99e2-b467fc423b35" x1="323.68" y1="263.52" x2="323.68" y2="313.01"/><line class="999c4cec-544c-4607-99e2-b467fc423b35" x1="42.8" y1="262.52" x2="42.8" y2="287.27"/><line class="999c4cec-544c-4607-99e2-b467fc423b35" x1="54.76" y1="263.04" x2="54.76" y2="287.78"/><line class="999c4cec-544c-4607-99e2-b467fc423b35" x1="90.89" y1="263.04" x2="90.89" y2="287.78"/><line class="999c4cec-544c-4607-99e2-b467fc423b35" x1="115.06" y1="262.52" x2="115.06" y2="287.27"/><line class="999c4cec-544c-4607-99e2-b467fc423b35" x1="204.36" y1="262.52" x2="204.36" y2="287.27"/><line class="999c4cec-544c-4607-99e2-b467fc423b35" x1="191.64" y1="263.04" x2="191.64" y2="287.78"/><line class="999c4cec-544c-4607-99e2-b467fc423b35" x1="230.05" y1="263.52" x2="230.05" y2="288.27"/><line class="999c4cec-544c-4607-99e2-b467fc423b35" x1="265.67" y1="263.04" x2="265.67" y2="287.78"/><line class="999c4cec-544c-4607-99e2-b467fc423b35" x1="299.76" y1="263.04" x2="299.76" y2="287.78"/><line class="999c4cec-544c-4607-99e2-b467fc423b35" x1="311.47" y1="263.04" x2="311.47" y2="287.78"/><line class="999c4cec-544c-4607-99e2-b467fc423b35" x1="336.15" y1="262.52" x2="336.15" y2="287.27"/><line class="999c4cec-544c-4607-99e2-b467fc423b35" x1="165.94" y1="263.04" x2="165.94" y2="287.78"/><line class="999c4cec-544c-4607-99e2-b467fc423b35" x1="79.18" y1="263.04" x2="79.18" y2="287.78"/><line class="999c4cec-544c-4607-99e2-b467fc423b35" x1="127.78" y1="263.04" x2="127.78" y2="287.78"/><line class="999c4cec-544c-4607-99e2-b467fc423b35" x1="152.96" y1="262.52" x2="152.96" y2="287.27"/><line class="999c4cec-544c-4607-99e2-b467fc423b35" x1="102.59" y1="263.04" x2="102.59" y2="312.53"/><line class="999c4cec-544c-4607-99e2-b467fc423b35" x1="140.75" y1="263.04" x2="140.75" y2="312.53"/><line class="999c4cec-544c-4607-99e2-b467fc423b35" x1="242.01" y1="263.04" x2="242.01" y2="287.78"/><line class="999c4cec-544c-4607-99e2-b467fc423b35" x1="254.73" y1="263.52" x2="254.73" y2="313.01"/><line class="999c4cec-544c-4607-99e2-b467fc423b35" x1="276.87" y1="263.52" x2="276.87" y2="288.27"/><line class="999c4cec-544c-4607-99e2-b467fc423b35" x1="349.12" y1="262.52" x2="349.12" y2="287.27"/><line class="999c4cec-544c-4607-99e2-b467fc423b35" x1="373.8" y1="263.52" x2="373.8" y2="288.27"/><line class="999c4cec-544c-4607-99e2-b467fc423b35" x1="385.33" y1="263.52" x2="385.33" y2="288.27"/><line class="999c4cec-544c-4607-99e2-b467fc423b35" x1="396.95" y1="263.52" x2="396.95" y2="313.01"/><line class="999c4cec-544c-4607-99e2-b467fc423b35" x1="432.83" y1="263.05" x2="432.83" y2="312.55"/><line class="999c4cec-544c-4607-99e2-b467fc423b35" x1="582.42" y1="262.54" x2="582.42" y2="312.03"/><line class="999c4cec-544c-4607-99e2-b467fc423b35" x1="652.64" y1="263.05" x2="652.64" y2="312.55"/><line class="999c4cec-544c-4607-99e2-b467fc423b35" x1="688.52" y1="263.54" x2="688.52" y2="313.03"/><line class="999c4cec-544c-4607-99e2-b467fc423b35" x1="407.64" y1="262.54" x2="407.64" y2="287.28"/><line class="999c4cec-544c-4607-99e2-b467fc423b35" x1="419.6" y1="263.05" x2="419.6" y2="287.8"/><line class="999c4cec-544c-4607-99e2-b467fc423b35" x1="455.72" y1="263.05" x2="455.72" y2="287.8"/><line class="999c4cec-544c-4607-99e2-b467fc423b35" x1="479.89" y1="262.54" x2="479.89" y2="287.28"/><line class="999c4cec-544c-4607-99e2-b467fc423b35" x1="569.19" y1="262.54" x2="569.19" y2="287.28"/><line class="999c4cec-544c-4607-99e2-b467fc423b35" x1="556.47" y1="263.05" x2="556.47" y2="287.8"/><line class="999c4cec-544c-4607-99e2-b467fc423b35" x1="594.89" y1="263.54" x2="594.89" y2="288.28"/><line class="999c4cec-544c-4607-99e2-b467fc423b35" x1="630.51" y1="263.05" x2="630.51" y2="287.8"/><line class="999c4cec-544c-4607-99e2-b467fc423b35" x1="664.6" y1="263.05" x2="664.6" y2="287.8"/><line class="999c4cec-544c-4607-99e2-b467fc423b35" x1="676.31" y1="263.05" x2="676.31" y2="287.8"/><line class="999c4cec-544c-4607-99e2-b467fc423b35" x1="700.98" y1="262.54" x2="700.98" y2="287.28"/><line class="999c4cec-544c-4607-99e2-b467fc423b35" x1="530.78" y1="263.05" x2="530.78" y2="287.8"/><line class="999c4cec-544c-4607-99e2-b467fc423b35" x1="444.02" y1="263.05" x2="444.02" y2="287.8"/><line class="999c4cec-544c-4607-99e2-b467fc423b35" x1="492.61" y1="263.05" x2="492.61" y2="287.8"/><line class="999c4cec-544c-4607-99e2-b467fc423b35" x1="517.8" y1="262.54" x2="517.8" y2="287.28"/><line class="999c4cec-544c-4607-99e2-b467fc423b35" x1="467.43" y1="263.05" x2="467.43" y2="312.55"/><line class="999c4cec-544c-4607-99e2-b467fc423b35" x1="505.59" y1="263.05" x2="505.59" y2="312.55"/><line class="999c4cec-544c-4607-99e2-b467fc423b35" x1="606.85" y1="263.05" x2="606.85" y2="287.8"/><line class="999c4cec-544c-4607-99e2-b467fc423b35" x1="619.57" y1="263.54" x2="619.57" y2="313.03"/><line class="999c4cec-544c-4607-99e2-b467fc423b35" x1="641.7" y1="263.54" x2="641.7" y2="288.28"/><line class="999c4cec-544c-4607-99e2-b467fc423b35" x1="713.96" y1="262.54" x2="713.96" y2="287.28"/><line class="999c4cec-544c-4607-99e2-b467fc423b35" x1="738.64" y1="263.54" x2="738.64" y2="288.28"/><line class="999c4cec-544c-4607-99e2-b467fc423b35" x1="750.17" y1="263.54" x2="750.17" y2="288.28"/><line class="999c4cec-544c-4607-99e2-b467fc423b35" x1="761.79" y1="263.54" x2="761.79" y2="313.03"/><line class="999c4cec-544c-4607-99e2-b467fc423b35" x1="797.66" y1="262.53" x2="797.66" y2="312.02"/><line class="999c4cec-544c-4607-99e2-b467fc423b35" x1="947.26" y1="262.01" x2="947.26" y2="311.51"/><line class="999c4cec-544c-4607-99e2-b467fc423b35" x1="1017.48" y1="262.53" x2="1017.48" y2="312.02"/><line class="999c4cec-544c-4607-99e2-b467fc423b35" x1="1053.36" y1="263.01" x2="1053.36" y2="312.51"/><line class="999c4cec-544c-4607-99e2-b467fc423b35" x1="772.48" y1="262.01" x2="772.48" y2="286.76"/><line class="999c4cec-544c-4607-99e2-b467fc423b35" x1="784.43" y1="262.53" x2="784.43" y2="287.28"/><line class="999c4cec-544c-4607-99e2-b467fc423b35" x1="820.56" y1="262.53" x2="820.56" y2="287.28"/><line class="999c4cec-544c-4607-99e2-b467fc423b35" x1="844.73" y1="262.01" x2="844.73" y2="286.76"/><line class="999c4cec-544c-4607-99e2-b467fc423b35" x1="934.03" y1="262.01" x2="934.03" y2="286.76"/><line class="999c4cec-544c-4607-99e2-b467fc423b35" x1="921.31" y1="262.53" x2="921.31" y2="287.28"/><line class="999c4cec-544c-4607-99e2-b467fc423b35" x1="959.73" y1="263.01" x2="959.73" y2="287.76"/><line class="999c4cec-544c-4607-99e2-b467fc423b35" x1="995.35" y1="262.53" x2="995.35" y2="287.28"/><line class="999c4cec-544c-4607-99e2-b467fc423b35" x1="1029.44" y1="262.53" x2="1029.44" y2="287.28"/><line class="999c4cec-544c-4607-99e2-b467fc423b35" x1="1041.14" y1="262.53" x2="1041.14" y2="287.28"/><line class="999c4cec-544c-4607-99e2-b467fc423b35" x1="1065.82" y1="262.01" x2="1065.82" y2="286.76"/><line class="999c4cec-544c-4607-99e2-b467fc423b35" x1="895.61" y1="262.53" x2="895.61" y2="287.28"/><line class="999c4cec-544c-4607-99e2-b467fc423b35" x1="808.86" y1="262.53" x2="808.86" y2="287.28"/><line class="999c4cec-544c-4607-99e2-b467fc423b35" x1="857.45" y1="262.53" x2="857.45" y2="287.28"/><line class="999c4cec-544c-4607-99e2-b467fc423b35" x1="882.64" y1="262.01" x2="882.64" y2="286.76"/><line class="999c4cec-544c-4607-99e2-b467fc423b35" x1="832.26" y1="262.53" x2="832.26" y2="312.02"/><line class="999c4cec-544c-4607-99e2-b467fc423b35" x1="870.43" y1="262.53" x2="870.43" y2="312.02"/><line class="999c4cec-544c-4607-99e2-b467fc423b35" x1="971.69" y1="262.53" x2="971.69" y2="287.28"/><line class="999c4cec-544c-4607-99e2-b467fc423b35" x1="984.41" y1="263.01" x2="984.41" y2="312.51"/><line class="999c4cec-544c-4607-99e2-b467fc423b35" x1="1006.54" y1="263.01" x2="1006.54" y2="287.76"/><line class="999c4cec-544c-4607-99e2-b467fc423b35" x1="1078.8" y1="262.01" x2="1078.8" y2="286.76"/><line class="999c4cec-544c-4607-99e2-b467fc423b35" x1="1103.48" y1="263.01" x2="1103.48" y2="287.76"/><line class="999c4cec-544c-4607-99e2-b467fc423b35" x1="1115.01" y1="263.01" x2="1115.01" y2="287.76"/><line class="999c4cec-544c-4607-99e2-b467fc423b35" x1="1126.63" y1="263.01" x2="1126.63" y2="312.51"/><line class="999c4cec-544c-4607-99e2-b467fc423b35" x1="1162.5" y1="262.55" x2="1162.5" y2="312.04"/><line class="999c4cec-544c-4607-99e2-b467fc423b35" x1="1312.1" y1="262.03" x2="1312.1" y2="311.52"/><line class="999c4cec-544c-4607-99e2-b467fc423b35" x1="1382.32" y1="262.55" x2="1382.32" y2="312.04"/><line class="999c4cec-544c-4607-99e2-b467fc423b35" x1="1418.19" y1="263.03" x2="1418.19" y2="312.52"/><line class="999c4cec-544c-4607-99e2-b467fc423b35" x1="1137.31" y1="262.03" x2="1137.31" y2="286.78"/><line class="999c4cec-544c-4607-99e2-b467fc423b35" x1="1149.27" y1="262.55" x2="1149.27" y2="287.29"/><line class="999c4cec-544c-4607-99e2-b467fc423b35" x1="1185.4" y1="262.55" x2="1185.4" y2="287.29"/><line class="999c4cec-544c-4607-99e2-b467fc423b35" x1="1209.57" y1="262.03" x2="1209.57" y2="286.78"/><line class="999c4cec-544c-4607-99e2-b467fc423b35" x1="1298.87" y1="262.03" x2="1298.87" y2="286.78"/><line class="999c4cec-544c-4607-99e2-b467fc423b35" x1="1286.15" y1="262.55" x2="1286.15" y2="287.29"/><line class="999c4cec-544c-4607-99e2-b467fc423b35" x1="1324.57" y1="263.03" x2="1324.57" y2="287.78"/><line class="999c4cec-544c-4607-99e2-b467fc423b35" x1="1360.19" y1="262.55" x2="1360.19" y2="287.29"/><line class="999c4cec-544c-4607-99e2-b467fc423b35" x1="1394.28" y1="262.55" x2="1394.28" y2="287.29"/><line class="999c4cec-544c-4607-99e2-b467fc423b35" x1="1405.98" y1="262.55" x2="1405.98" y2="287.29"/><line class="999c4cec-544c-4607-99e2-b467fc423b35" x1="1430.66" y1="262.03" x2="1430.66" y2="286.78"/><line class="999c4cec-544c-4607-99e2-b467fc423b35" x1="1260.45" y1="262.55" x2="1260.45" y2="287.29"/><line class="999c4cec-544c-4607-99e2-b467fc423b35" x1="1173.7" y1="262.55" x2="1173.7" y2="287.29"/><line class="999c4cec-544c-4607-99e2-b467fc423b35" x1="1222.29" y1="262.55" x2="1222.29" y2="287.29"/><line class="999c4cec-544c-4607-99e2-b467fc423b35" x1="1247.48" y1="262.03" x2="1247.48" y2="286.78"/><line class="999c4cec-544c-4607-99e2-b467fc423b35" x1="1197.1" y1="262.55" x2="1197.1" y2="312.04"/><line class="999c4cec-544c-4607-99e2-b467fc423b35" x1="1235.27" y1="262.55" x2="1235.27" y2="312.04"/><line class="999c4cec-544c-4607-99e2-b467fc423b35" x1="1336.52" y1="262.55" x2="1336.52" y2="287.29"/><line class="999c4cec-544c-4607-99e2-b467fc423b35" x1="1349.25" y1="263.03" x2="1349.25" y2="312.52"/><line class="999c4cec-544c-4607-99e2-b467fc423b35" x1="1371.38" y1="263.03" x2="1371.38" y2="287.78"/><line class="999c4cec-544c-4607-99e2-b467fc423b35" x1="1443.64" y1="262.03" x2="1443.64" y2="286.78"/><line class="999c4cec-544c-4607-99e2-b467fc423b35" x1="1468.31" y1="263.03" x2="1468.31" y2="287.78"/><line class="999c4cec-544c-4607-99e2-b467fc423b35" x1="1479.85" y1="263.03" x2="1479.85" y2="287.78"/><line class="999c4cec-544c-4607-99e2-b467fc423b35" x1="1491.47" y1="263.03" x2="1491.47" y2="312.52"/><line class="999c4cec-544c-4607-99e2-b467fc423b35" x1="1503.17" y1="262.01" x2="1503.17" y2="286.76"/><line class="999c4cec-544c-4607-99e2-b467fc423b35" x1="1514.7" y1="262.01" x2="1514.7" y2="286.76"/><line class="999c4cec-544c-4607-99e2-b467fc423b35" x1="1526.32" y1="262.01" x2="1526.32" y2="311.51"/><line class="999c4cec-544c-4607-99e2-b467fc423b35" x1="1538.02" y1="263.03" x2="1538.02" y2="287.78"/><line class="999c4cec-544c-4607-99e2-b467fc423b35" x1="1549.56" y1="263.03" x2="1549.56" y2="287.78"/><line class="999c4cec-544c-4607-99e2-b467fc423b35" x1="1561.18" y1="263.03" x2="1561.18" y2="312.52"/><g class="fbfba702-561e-4d5c-b5b6-0974aa954020"><path class="aea26295-425e-4d31-b931-b1b5eeb598d2" d="M46.52,453.54h0c18.45,0,31.93,21.3,17.19,40.65C44.36,508.94,23.06,495.46,23.06,477a23.47,23.47,0,0,1,23.47-23.47Z"/><path class="aea26295-425e-4d31-b931-b1b5eeb598d2" d="M77.18,476.36v-.7a.7.7,0,1,1-.7.7.7.7,0,0,1,.7-.7h0Z"/><path class="aea26295-425e-4d31-b931-b1b5eeb598d2" d="M143.48,473.36a4.09,4.09,0,1,1-4.09,4.09,4.09,4.09,0,0,1,4.09-4.09h0"/><path class="aea26295-425e-4d31-b931-b1b5eeb598d2" d="M688.52,472h0a5.05,5.05,0,0,1,5.05,5.05,5.13,5.13,0,0,1-5.05,5.05,5.05,5.05,0,0,1,0-10.11Z"/><path class="aea26295-425e-4d31-b931-b1b5eeb598d2" d="M725.43,464.39h0A12.44,12.44,0,1,1,713,476.83a12.44,12.44,0,0,1,12.44-12.44Z"/><path class="aea26295-425e-4d31-b931-b1b5eeb598d2" d="M764.7,472.63h0a5.43,5.43,0,1,1-5.43,5.43,5.43,5.43,0,0,1,5.43-5.43Z"/><path class="aea26295-425e-4d31-b931-b1b5eeb598d2" d="M772.23,473.94h0c3.07,0,5.31,3.54,2.86,6.76-3.22,2.45-6.76.21-6.76-2.86a3.9,3.9,0,0,1,3.9-3.9Z"/><path class="aea26295-425e-4d31-b931-b1b5eeb598d2" d="M915.7,463h0c11.36,0,19.66,13.11,10.58,25-11.91,9.07-25,.78-25-10.58A14.45,14.45,0,0,1,915.7,463Z"/><path class="aea26295-425e-4d31-b931-b1b5eeb598d2" d="M942.79,470.86h0c4.44,0,7.69,5.13,4.14,9.79-4.66,3.55-9.79.3-9.79-4.14a5.65,5.65,0,0,1,5.65-5.65Z"/><path class="aea26295-425e-4d31-b931-b1b5eeb598d2" d="M979.8,471.63h-1a5.38,5.38,0,1,1-5.38,5.38,5.38,5.38,0,0,1,5.38-5.38h1Z"/><path class="aea26295-425e-4d31-b931-b1b5eeb598d2" d="M1011.72,468.8h0a8.38,8.38,0,1,1-8.38,8.38,8.38,8.38,0,0,1,8.38-8.38Z"/><path class="aea26295-425e-4d31-b931-b1b5eeb598d2" d="M1046.64,473.62h0a2.89,2.89,0,1,1-2.89,2.89,2.89,2.89,0,0,1,2.89-2.89Z"/><path class="aea26295-425e-4d31-b931-b1b5eeb598d2" d="M1085.79,474.42h0a2.43,2.43,0,1,1-2.43,2.43,2.43,2.43,0,0,1,2.43-2.43Z"/><path class="aea26295-425e-4d31-b931-b1b5eeb598d2" d="M1208.48,465h0a11.38,11.38,0,1,1-11.38,11.38A11.38,11.38,0,0,1,1208.48,465Z"/><path class="aea26295-425e-4d31-b931-b1b5eeb598d2" d="M1242.81,472.19v-.35a4,4,0,1,1-4,4,4,4,0,0,1,4-4h0Z"/><path class="aea26295-425e-4d31-b931-b1b5eeb598d2" d="M1430.48,358.16A120.64,120.64,0,1,1,1309.84,478.8a120.64,120.64,0,0,1,120.64-120.64h0"/><path class="aea26295-425e-4d31-b931-b1b5eeb598d2" d="M1538.77,473.07h0a3.29,3.29,0,1,1-3.29,3.29,3.29,3.29,0,0,1,3.29-3.29Z"/><path class="aea26295-425e-4d31-b931-b1b5eeb598d2" d="M1567.48,471.33h0a4.59,4.59,0,0,1,4.59,4.57,4.67,4.67,0,0,1-4.62,4.62,4.59,4.59,0,0,1,0-9.19Z"/><path class="aea26295-425e-4d31-b931-b1b5eeb598d2" d="M1404.31,470.13h0a5.69,5.69,0,1,1-5.69,5.69,5.69,5.69,0,0,1,5.69-5.69Z"/><path class="aea26295-425e-4d31-b931-b1b5eeb598d2" d="M1366.56,472.87h0a5.29,5.29,0,1,1-5.29,5.29,5.29,5.29,0,0,1,5.29-5.29Z"/><path class="aea26295-425e-4d31-b931-b1b5eeb598d2" d="M1354.58,473.51h0a3.9,3.9,0,1,1-3.9,3.9,3.9,3.9,0,0,1,3.9-3.9Z"/><path class="aea26295-425e-4d31-b931-b1b5eeb598d2" d="M1224,469.11l-.39-.48a8.55,8.55,0,1,1-8.55,8.55,8.55,8.55,0,0,1,8.55-8.55h0Z"/><path class="aea26295-425e-4d31-b931-b1b5eeb598d2" d="M1021.66,472.21h0a4.15,4.15,0,1,1-4.15,4.15,4.15,4.15,0,0,1,4.15-4.15Z"/><path class="aea26295-425e-4d31-b931-b1b5eeb598d2" d="M690.33,477.14a.7.7,0,1,1-.7.7.7.7,0,0,1,.7-.7h0"/></g><g class="fbfba702-561e-4d5c-b5b6-0974aa954020"><path class="564914a9-47c6-434e-94b0-aff94f12a8a9" d="M44,686.42a15.93,15.93,0,1,1-15.93,15.93A15.93,15.93,0,0,1,44,686.42h0"/><path class="564914a9-47c6-434e-94b0-aff94f12a8a9" d="M76.09,702.07v-.65a.65.65,0,1,1-.65.65.65.65,0,0,1,.65-.65h0Z"/><path class="564914a9-47c6-434e-94b0-aff94f12a8a9" d="M143.34,699.66a3,3,0,1,1-3,3,3,3,0,0,1,3-3h0"/><path class="564914a9-47c6-434e-94b0-aff94f12a8a9" d="M688.34,699.34a3.59,3.59,0,1,1-3.59,3.59,3.59,3.59,0,0,1,3.59-3.59h0"/><path class="564914a9-47c6-434e-94b0-aff94f12a8a9" d="M726.61,691.93a10.28,10.28,0,1,1-10.28,10.28,10.28,10.28,0,0,1,10.28-10.28h0"/><path class="564914a9-47c6-434e-94b0-aff94f12a8a9" d="M764.41,698.6c3.4,0,5.89,3.93,3.17,7.5-3.57,2.72-7.5.23-7.5-3.17a4.33,4.33,0,0,1,4.33-4.33h0"/><path class="564914a9-47c6-434e-94b0-aff94f12a8a9" d="M773.9,700c2.32,0,4,2.68,2.17,5.12-2.44,1.86-5.12.16-5.12-2.17a3,3,0,0,1,3-3h0"/><path class="564914a9-47c6-434e-94b0-aff94f12a8a9" d="M914.75,693.19a9.65,9.65,0,1,1-9.65,9.65,9.65,9.65,0,0,1,9.65-9.65h0"/><path class="564914a9-47c6-434e-94b0-aff94f12a8a9" d="M943.12,699.63a4.7,4.7,0,1,1-4.7,4.7,4.7,4.7,0,0,1,4.7-4.7h0"/><path class="564914a9-47c6-434e-94b0-aff94f12a8a9" d="M978.67,699.06a4.28,4.28,0,1,1-4.28,4.28,4.28,4.28,0,0,1,4.28-4.28h0"/><path class="564914a9-47c6-434e-94b0-aff94f12a8a9" d="M1010.89,700.49a3.47,3.47,0,1,1-3.47,3.47,3.47,3.47,0,0,1,3.47-3.47h0"/><path class="564914a9-47c6-434e-94b0-aff94f12a8a9" d="M1021.09,702.09a1.71,1.71,0,1,1-1.71,1.71,1.71,1.71,0,0,1,1.71-1.71h0"/><path class="564914a9-47c6-434e-94b0-aff94f12a8a9" d="M1046.09,701.77h0a2,2,0,1,1-2,2,2,2,0,0,1,2-2Z"/><path class="564914a9-47c6-434e-94b0-aff94f12a8a9" d="M1086.28,699.89h0a3.92,3.92,0,1,1-3.92,3.92,3.92,3.92,0,0,1,3.92-3.92Z"/><path class="564914a9-47c6-434e-94b0-aff94f12a8a9" d="M1205.93,694.69h0a8.82,8.82,0,1,1-8.82,8.82,8.82,8.82,0,0,1,8.82-8.82Z"/><path class="564914a9-47c6-434e-94b0-aff94f12a8a9" d="M1224.65,700.52h0a2.41,2.41,0,1,1-2.41,2.41,2.41,2.41,0,0,1,2.41-2.41Z"/><path class="564914a9-47c6-434e-94b0-aff94f12a8a9" d="M1243.08,702.21a.65.65,0,1,1-.65.65.65.65,0,0,1,.65-.65h0"/><path class="564914a9-47c6-434e-94b0-aff94f12a8a9" d="M1353.8,701.38h0a3,3,0,1,1-3,3,3,3,0,0,1,3-3Z"/><path class="564914a9-47c6-434e-94b0-aff94f12a8a9" d="M1427.23,634.21h0a68.64,68.64,0,1,1-68.64,68.64,68.64,68.64,0,0,1,68.64-68.64Z"/><path class="564914a9-47c6-434e-94b0-aff94f12a8a9" d="M1538.86,702.73a1.12,1.12,0,1,1-1.12,1.12,1.12,1.12,0,0,1,1.12-1.12h0"/><path class="564914a9-47c6-434e-94b0-aff94f12a8a9" d="M1565.59,703.95v-3.23a3.23,3.23,0,1,1-3.23,3.23,3.23,3.23,0,0,1,3.23-3.23h0Z"/><path class="564914a9-47c6-434e-94b0-aff94f12a8a9" d="M1404.59,699.48h0a4.52,4.52,0,1,1-4.52,4.52,4.52,4.52,0,0,1,4.52-4.52Z"/><path class="564914a9-47c6-434e-94b0-aff94f12a8a9" d="M1366.25,699.87h0a3.47,3.47,0,1,1-3.47,3.47,3.47,3.47,0,0,1,3.47-3.47Z"/></g><line class="85b87191-3f00-4fe1-ae0c-02d5984e4ebc" x1="726.61" y1="361.86" x2="726.61" y2="858.1"/></svg>