<svg id="43e1151e-ffd4-45fe-bdfb-ec9843f965d0" data-name="chart" xmlns="http://www.w3.org/2000/svg" viewBox="0 0 1372.8 1372.8"><defs><style>.\36 cabe25e-c487-4468-a60b-1850d9997d98,.d0ee48b9-8a6b-47c6-ac72-862860bb01fb,.e8f510a6-40a3-4b28-8eca-c4ef0ca86e81{fill:none;}.d0ee48b9-8a6b-47c6-ac72-862860bb01fb{stroke:#757575;stroke-miterlimit:10;stroke-width:4px;}.\37 994ea1c-35c6-4150-89a0-01f080ae300a{font-size:41px;font-family:OpenSans, Open Sans;}.\37 994ea1c-35c6-4150-89a0-01f080ae300a,.e02abfa6-1933-4cd3-a4ab-bea05e4f386a{fill:#757575;}.\37 7d89e40-5426-48a6-8422-50d81c3dc553{fill:#cfeb8a;}.\34 f874596-74b4-47dd-975b-3c25d45b34b7{opacity:0;}.\34 2673bf8-c485-419e-be3c-b27a91a270af,.\34 f874596-74b4-47dd-975b-3c25d45b34b7,.\35 7727ef9-96d2-4efc-98a6-8aff3a950ee5,.\36 8a2e5ba-4813-414d-8c27-b44553edaa52,.\36 cabe25e-c487-4468-a60b-1850d9997d98,.\38 44e07b6-9e27-4057-817b-43bd5a53c775,.\38 8d08fb7-7fd3-4ee1-b976-c90bb785daac,.b554d416-b4bc-45f7-b3a0-9c16ae2d1186,.d544aaab-d332-48d2-9e6a-e6d03bf9da05{isolation:isolate;}.\34 2673bf8-c485-419e-be3c-b27a91a270af,.\35 7727ef9-96d2-4efc-98a6-8aff3a950ee5,.\36 8a2e5ba-4813-414d-8c27-b44553edaa52,.\36 cabe25e-c487-4468-a60b-1850d9997d98,.\38 44e07b6-9e27-4057-817b-43bd5a53c775,.\38 8d08fb7-7fd3-4ee1-b976-c90bb785daac,.b554d416-b4bc-45f7-b3a0-9c16ae2d1186,.d544aaab-d332-48d2-9e6a-e6d03bf9da05{font-size:12px;font-family:ArialMT-Bold, Arial MT;}.\36 cabe25e-c487-4468-a60b-1850d9997d98{stroke:#fff;stroke-width:3.2px;}.\34 2673bf8-c485-419e-be3c-b27a91a270af,.\35 1ac51ac-d289-4078-abd0-994931a940da,.\35 7727ef9-96d2-4efc-98a6-8aff3a950ee5,.\36 8a2e5ba-4813-414d-8c27-b44553edaa52,.\36 cabe25e-c487-4468-a60b-1850d9997d98,.\38 44e07b6-9e27-4057-817b-43bd5a53c775,.\38 8d08fb7-7fd3-4ee1-b976-c90bb785daac,.a8da83f1-7457-4dbb-a45a-11c36c0ec9f9,.b554d416-b4bc-45f7-b3a0-9c16ae2d1186,.d544aaab-d332-48d2-9e6a-e6d03bf9da05{font-weight:700;}.\38 44e07b6-9e27-4057-817b-43bd5a53c775{fill:#5f4690;}.\32 354b7a9-a2f6-43c1-9cfa-d5791dd2edd7{fill:#b3d156;}.b554d416-b4bc-45f7-b3a0-9c16ae2d1186{fill:#e17c05;}.\37 b90c064-0aa3-46d3-a0ca-296fe2c2b73e{fill:#566b0c;}.\34 2673bf8-c485-419e-be3c-b27a91a270af{fill:#1d6996;}.\37 fcb5e04-3555-4c83-9375-2056923a8024{fill:#668903;}.\38 8d08fb7-7fd3-4ee1-b976-c90bb785daac{fill:#edad08;}.a5c94ac2-5a51-4da4-b5cc-b2132b52ac89{fill:#84a311;}.\36 8a2e5ba-4813-414d-8c27-b44553edaa52{fill:#73af48;}.\33 f2d1170-5344-438a-be55-dd3682db2809{fill:#97b228;}.d544aaab-d332-48d2-9e6a-e6d03bf9da05{fill:#94346e;}.\39 c860dbc-04eb-4725-8c98-8d6b5e438c27{fill:#a0cc46;}.\35 7727ef9-96d2-4efc-98a6-8aff3a950ee5{fill:#38a6a5;}.a8da83f1-7457-4dbb-a45a-11c36c0ec9f9{font-size:55px;fill:#323232;}.\35 1ac51ac-d289-4078-abd0-994931a940da,.a8da83f1-7457-4dbb-a45a-11c36c0ec9f9{font-family:OpenSans-Bold, Open Sans;}</style></defs><title>2018.10.01_Migraciones</title><line class="d0ee48b9-8a6b-47c6-ac72-862860bb01fb" x1="746.23" y1="319.75" x2="1006.53" y2="319.75"/><line class="d0ee48b9-8a6b-47c6-ac72-862860bb01fb" x1="774.22" y1="394.75" x2="1324.51" y2="394.75"/><line class="d0ee48b9-8a6b-47c6-ac72-862860bb01fb" x1="838.72" y1="436.75" x2="1087.52" y2="436.75"/><line class="d0ee48b9-8a6b-47c6-ac72-862860bb01fb" x1="691.8" y1="188.25" x2="1320.01" y2="188.25"/><line class="d0ee48b9-8a6b-47c6-ac72-862860bb01fb" x1="715.72" y1="258.75" x2="1135.52" y2="258.75"/><line class="d0ee48b9-8a6b-47c6-ac72-862860bb01fb" x1="691.8" y1="384.82" x2="691.8" y2="188.82"/><line class="d0ee48b9-8a6b-47c6-ac72-862860bb01fb" x1="717.8" y1="390.6" x2="717.8" y2="257.82"/><line class="d0ee48b9-8a6b-47c6-ac72-862860bb01fb" x1="747.8" y1="403.6" x2="747.8" y2="319.75"/><text class="7994ea1c-35c6-4150-89a0-01f080ae300a" transform="translate(21.21 1358.59)">Fuente: Naciones Unidas</text><text class="7994ea1c-35c6-4150-89a0-01f080ae300a" transform="translate(1040.7 1360.6)">LA VANGUARDIA</text><text class="7994ea1c-35c6-4150-89a0-01f080ae300a" transform="translate(506.2 381.8)">FRANCIA</text><path class="e02abfa6-1933-4cd3-a4ab-bea05e4f386a" d="M426.45,1265.86a6.68,6.68,0,0,1-5.26,4c-2.46.4-5.3-.16-8.48-1.72a22.6,22.6,0,0,1-7.34-5.13l1.45-2.85a25.2,25.2,0,0,0,7.28,5.42,10,10,0,0,0,5.62,1.31,4,4,0,0,0,3.2-2.37,4.17,4.17,0,0,0,.44-2.48,6.05,6.05,0,0,0-1.25-2.53,35.07,35.07,0,0,0-3.44-3.68,14.8,14.8,0,0,1-4.12-5.81,7,7,0,0,1,.63-5.39,6.22,6.22,0,0,1,4.77-3.48,11.91,11.91,0,0,1,7.18,1.36,23,23,0,0,1,6.91,5l-2.23,2.15a21.17,21.17,0,0,0-6.05-4.52,7.71,7.71,0,0,0-4.49-.94,3.65,3.65,0,0,0-2.84,2.1,4.48,4.48,0,0,0-.55,2.44,5.39,5.39,0,0,0,1,2.45,25,25,0,0,0,3.15,3.48c2.5,2.39,4.07,4.39,4.68,6A6.43,6.43,0,0,1,426.45,1265.86Z"/><path class="e02abfa6-1933-4cd3-a4ab-bea05e4f386a" d="M445.78,1282.51c-6.64-2.69-9.94-4.1-16.5-7l11.63-26.08c6.2,2.77,9.33,4.1,15.6,6.64l-1.11,2.73c-5-2-7.48-3.08-12.43-5.24l-3.69,8.43c4.74,2.07,7.12,3.08,11.9,5l-1.11,2.71c-4.8-2-7.2-3-12-5.06l-4.21,9.63c5.18,2.27,7.78,3.36,13,5.48Z"/><path class="e02abfa6-1933-4cd3-a4ab-bea05e4f386a" d="M493.77,1284.36a15.89,15.89,0,0,1-5,8,11.82,11.82,0,0,1-8.09,2.59c2,3.63,3,5.44,5.15,9-2.09-.64-3.13-1-5.21-1.64-1.61-3.22-2.4-4.84-4-8.07l-1.15-.35c-4.46-1.5-7.47-3.93-9-7.22s-1.45-7.12.17-11.52,4-7.31,7.18-8.89,6.83-1.64,11.05-.22,6.92,3.64,8.48,6.86S495.11,1280,493.77,1284.36Zm-23.49-7.8c-1.31,3.64-1.45,6.71-.4,9.2s3.25,4.32,6.56,5.43,6.18,1,8.49-.36,4-3.9,5.19-7.6,1.19-6.7.16-9.12-3.13-4.13-6.3-5.2-5.93-1-8.26.32S471.57,1273,470.28,1276.55Z"/><path class="e02abfa6-1933-4cd3-a4ab-bea05e4f386a" d="M526.3,1278.49l-4.33,18a9.49,9.49,0,0,1-5,6.69c-2.56,1.28-5.71,1.45-9.42.46s-6.31-2.69-7.81-5.07a9.79,9.79,0,0,1-.85-8.29l5.14-17.66,3.36,1-5.08,17.93a6.91,6.91,0,0,0,.58,5.86c1,1.62,2.92,2.8,5.63,3.52a8.81,8.81,0,0,0,6.44-.32,7,7,0,0,0,3.42-4.83l4.49-18Z"/><path class="e02abfa6-1933-4cd3-a4ab-bea05e4f386a" d="M545.08,1311.73c-6.94-1.31-10.4-2-17.3-3.58l6.25-27.86c6.53,1.46,9.8,2.14,16.36,3.38l-.55,2.9c-5.22-1-7.83-1.52-13-2.65l-2,9c5,1.08,7.47,1.59,12.47,2.54l-.55,2.88c-5-1-7.53-1.47-12.54-2.56L532,1306c5.44,1.18,8.16,1.73,13.62,2.77Z"/><path class="e02abfa6-1933-4cd3-a4ab-bea05e4f386a" d="M578.77,1302.3c-.59,4.68-2.41,8.09-5.53,10.18s-7.34,2.77-12.6,1.94c-3.46-.55-5.19-.84-8.65-1.44l4.93-28.13c3.61.63,5.42.93,9,1.5,4.59.72,8,2.43,10.23,5.21S579.32,1297.92,578.77,1302.3Zm-3.77-.37c.49-3.69-.13-6.6-1.83-8.75s-4.45-3.49-8.29-4.09c-2-.32-3-.48-5-.82l-3.78,22.5,4.4.72c4.31.69,7.7.19,10.13-1.44S574.5,1305.71,575,1301.93Z"/><path class="e02abfa6-1933-4cd3-a4ab-bea05e4f386a" d="M603.71,1319.41c-1.3-3.74-1.94-5.61-3.18-9.36-5-.4-7.43-.64-12.38-1.16-1.9,3.45-2.87,5.17-4.82,8.61l-3.69-.43c5.27-8.93,10.34-18,15.17-27.19l2.91.27c3,9.91,6.3,19.78,9.79,29.53ZM599.66,1307c-1.13-3.65-1.69-5.47-2.77-9.12a43.06,43.06,0,0,1-1-4.23,34.31,34.31,0,0,1-1.68,4c-1.76,3.39-2.65,5.08-4.46,8.45C593.69,1306.46,595.68,1306.65,599.66,1307Z"/><path class="e02abfa6-1933-4cd3-a4ab-bea05e4f386a" d="M636.46,1320.8l-4.19-.06c-5.56-8-10.92-16.22-16-24.54h-.16q.11,4.23-.07,7.74l-.84,16.21-3.38-.19,1.66-28.51,3.91.21c5,8.28,10.32,16.45,15.84,24.41h.17q0-.53-.13-3.39t0-4.09c.12-6.55.17-9.83.29-16.38l3.24,0Q636.62,1306.52,636.46,1320.8Z"/><path class="e02abfa6-1933-4cd3-a4ab-bea05e4f386a" d="M674.18,1319.85c-7,.43-10.54.59-17.57.78q-.39-14.27-.79-28.54c6.65-.18,10-.33,16.61-.74l.18,2.94c-5.29.32-7.93.45-13.22.63l.32,9.19c5.06-.17,7.59-.29,12.65-.6l.17,2.92c-5.09.3-7.63.42-12.73.6l.36,10.5c5.53-.19,8.3-.32,13.83-.66Z"/><path class="e02abfa6-1933-4cd3-a4ab-bea05e4f386a" d="M705.71,1317l-4.16.49c-6.58-7.19-13-14.63-19.11-22.21h-.16q.67,4.18,1,7.68l1.31,16.18-3.38.26L679,1290.9l3.91-.31c6.07,7.54,12.42,14.94,18.94,22.1l.17,0q-.1-.52-.58-3.34t-.58-4.05L699,1289l3.23-.38Z"/><path class="e02abfa6-1933-4cd3-a4ab-bea05e4f386a" d="M743.08,1311c-6.93,1.36-10.41,2-17.37,3.11l-4.56-28.19c6.58-1.06,9.87-1.65,16.42-2.94l.57,2.89c-5.22,1-7.83,1.5-13.07,2.39l1.53,9.07c5-.85,7.51-1.3,12.51-2.28l.56,2.88c-5,1-7.54,1.44-12.58,2.29l1.75,10.36c5.48-.93,8.21-1.42,13.66-2.5Z"/><path class="e02abfa6-1933-4cd3-a4ab-bea05e4f386a" d="M765.59,1298.24a6.72,6.72,0,0,1-1.54,6.43c-1.64,1.84-4.16,3.16-7.55,3.92a21.71,21.71,0,0,1-8.75.54l-.65-3.14a24.22,24.22,0,0,0,8.89-.28,9.7,9.7,0,0,0,5.1-2.46,4,4,0,0,0,1-3.84,4.22,4.22,0,0,0-1.2-2.21,6,6,0,0,0-2.51-1.2,34.17,34.17,0,0,0-4.9-.74,14.39,14.39,0,0,1-6.72-2,7.1,7.1,0,0,1-2.83-4.62,6.26,6.26,0,0,1,1.49-5.68,11.48,11.48,0,0,1,6.32-3.39,22.21,22.21,0,0,1,8.38-.37c-.15,1.23-.22,1.84-.38,3.07a20.47,20.47,0,0,0-7.42.22,7.43,7.43,0,0,0-4,2.05,3.67,3.67,0,0,0-.87,3.41,4.55,4.55,0,0,0,1.08,2.25,5.3,5.3,0,0,0,2.3,1.28,24.22,24.22,0,0,0,4.55.77c3.38.32,5.82.91,7.3,1.81A6.48,6.48,0,0,1,765.59,1298.24Z"/><path class="e02abfa6-1933-4cd3-a4ab-bea05e4f386a" d="M787.3,1279.2a7.69,7.69,0,0,1-1.16,7.3c-1.62,2.1-4.36,3.71-8.22,4.77l-3.53,1,2.9,10.85-3.57.94-7.18-27.64c3-.78,4.52-1.19,7.53-2C781.3,1272.36,785.7,1273.89,787.3,1279.2Zm-13.65,10.28,3.13-.85c3.08-.84,5.17-1.94,6.27-3.25a5.07,5.07,0,0,0,.76-5,4.83,4.83,0,0,0-3.08-3.5c-1.52-.52-3.61-.4-6.28.33l-3.79,1Z"/><path class="e02abfa6-1933-4cd3-a4ab-bea05e4f386a" d="M818.55,1290.19c-2.73-2.88-4.08-4.33-6.75-7.24-4.75,1.66-7.14,2.47-11.93,4-.35,3.93-.55,5.9-1,9.84l-3.58,1.11c1.23-10.31,2.22-20.69,3-31l2.8-.94q10.24,11.73,21.08,23Zm-8.81-9.69c-2.53-2.87-3.79-4.31-6.28-7.2a42.59,42.59,0,0,1-2.67-3.45,34.08,34.08,0,0,1,.06,4.33c-.25,3.81-.39,5.72-.69,9.54C804,1282.47,805.92,1281.83,809.74,1280.5Z"/><path class="e02abfa6-1933-4cd3-a4ab-bea05e4f386a" d="M849.55,1277.94l-3.93,1.68c-8.43-5-16.76-10.29-24.86-15.82l-.16.06q1.82,3.82,3.08,7.1l5.82,15.15-3.22,1.22-10.06-26.73,3.72-1.42c8,5.5,16.3,10.78,24.67,15.76l.16-.07q-.25-.47-1.5-3t-1.7-3.72l-6.4-15.09,3-1.3Zm-20-25.06a4.34,4.34,0,0,1-1.74.32q-.92,0-1.84-.12t-1.75-.16a3.36,3.36,0,0,0-1.48.2,2,2,0,0,0-1.23,1.12,4.11,4.11,0,0,0-.11,2l-1.89.73a6.61,6.61,0,0,1,0-4,3.89,3.89,0,0,1,2.34-2.36,4.79,4.79,0,0,1,1.82-.34,17.11,17.11,0,0,1,1.86.11q.91.11,1.73.16a3.17,3.17,0,0,0,1.43-.2,1.86,1.86,0,0,0,1.17-1.11,4.43,4.43,0,0,0,.05-2l1.87-.79a6.6,6.6,0,0,1,.12,4A3.9,3.9,0,0,1,829.52,1252.88Z"/><path class="e02abfa6-1933-4cd3-a4ab-bea05e4f386a" d="M876,1265.63c-3.07-2.53-4.59-3.8-7.61-6.36-4.58,2.25-6.88,3.34-11.5,5.46.1,4,.14,5.93.18,9.9l-3.46,1.55c0-10.4-.17-20.84-.63-31.23l2.7-1.28c7.75,6.93,15.71,13.69,23.81,20.21Zm-10-8.54c-2.87-2.54-4.3-3.81-7.13-6.38a42.25,42.25,0,0,1-3.07-3.1,33.84,33.84,0,0,1,.56,4.29c.19,3.82.27,5.74.42,9.57C860.52,1259.75,862.36,1258.88,866,1257.08Z"/><text class="7994ea1c-35c6-4150-89a0-01f080ae300a" transform="translate(1138.21 226.79)">R. UNIDO</text><text class="7994ea1c-35c6-4150-89a0-01f080ae300a" transform="translate(1013.73 298.78)">EE.UU.</text><text class="7994ea1c-35c6-4150-89a0-01f080ae300a" transform="translate(1110.26 433.29)">ARGENTINA</text><text class="7994ea1c-35c6-4150-89a0-01f080ae300a" transform="translate(812.21 364.28)">ALEMANIA</text><text class="7994ea1c-35c6-4150-89a0-01f080ae300a" transform="translate(959.23 481.29)">OTROS</text><g id="66d01757-530e-4016-b77e-6b08a92a2670" data-name="chords-container"><path id="be3f229c-73b6-425c-9a78-99af0e596c5d" data-name="chords id" class="77d89e40-5426-48a6-8422-50d81c3dc553" d="M834.87,467.94c202.88,103.64,283.33,352.12,179.69,555s-352.12,283.33-555,179.69-283.33-352.12-179.69-555A412.5,412.5,0,0,1,626.59,423.3C628.21,824.58,708.21,662.58,834.87,467.94Z"/><g class="4f874596-74b4-47dd-975b-3c25d45b34b7"><text class="6cabe25e-c487-4468-a60b-1850d9997d98" transform="translate(535.97 1214.18)">45,001,714</text><text class="6cabe25e-c487-4468-a60b-1850d9997d98" transform="translate(535.97 1214.18)">45,001,714</text><text class="844e07b6-9e27-4057-817b-43bd5a53c775" transform="translate(535.97 1214.18)">45,001,714</text><text class="844e07b6-9e27-4057-817b-43bd5a53c775" transform="translate(535.97 1214.18)">45,001,714</text></g><path id="9af5730c-d6e9-42bc-bd0b-7f71a49dcc79" data-name="chords id" class="2354b7a9-a2f6-43c1-9cfa-d5791dd2edd7" d="M787.26,447.29q14.72,5.31,29,11.73Q647.21,835.29,626.59,423.3,647.21,835.29,787.26,447.29Z"/><g class="4f874596-74b4-47dd-975b-3c25d45b34b7"><text class="6cabe25e-c487-4468-a60b-1850d9997d98" transform="translate(770.82 476.06)">592,811</text><text class="6cabe25e-c487-4468-a60b-1850d9997d98" transform="translate(624.5 448.27)">0</text><text class="b554d416-b4bc-45f7-b3a0-9c16ae2d1186" transform="translate(770.82 476.06)">592,811</text><text class="844e07b6-9e27-4057-817b-43bd5a53c775" transform="translate(624.5 448.27)">0</text></g><path id="d0a388c6-15be-4890-a167-4ce20e133e31" data-name="chords id" class="7b90c064-0aa3-46d3-a0ca-296fe2c2b73e" d="M647.21,422.79q8.16,0,16.32.32-16.32,412.18-36.93.19Q647.21,835.29,647.21,422.79Z"/><g class="4f874596-74b4-47dd-975b-3c25d45b34b7"><text class="6cabe25e-c487-4468-a60b-1850d9997d98" transform="translate(633.19 447.86)">309,049</text><text class="6cabe25e-c487-4468-a60b-1850d9997d98" transform="translate(624.5 448.27)">0</text><text class="42673bf8-c485-419e-be3c-b27a91a270af" transform="translate(633.19 447.86)">309,049</text><text class="844e07b6-9e27-4057-817b-43bd5a53c775" transform="translate(624.5 448.27)">0</text></g><path id="d886649a-0613-44a9-bc72-4b2f0908531a" data-name="chords id" class="7fcb5e04-3555-4c83-9375-2056923a8024" d="M684.1,424.44q3.46.31,6.91.68-43.81,410.17-64.42-1.82Q647.21,835.29,684.1,424.44Z"/><g class="4f874596-74b4-47dd-975b-3c25d45b34b7"><text class="6cabe25e-c487-4468-a60b-1850d9997d98" transform="translate(663.43 449.65)">131,496</text><text class="6cabe25e-c487-4468-a60b-1850d9997d98" transform="translate(624.5 448.27)">0</text><text class="88d08fb7-7fd3-4ee1-b976-c90bb785daac" transform="translate(663.43 449.65)">131,496</text><text class="844e07b6-9e27-4057-817b-43bd5a53c775" transform="translate(624.5 448.27)">0</text></g><path id="c6100cae-f877-42a2-99db-052bad4b4e63" data-name="chords id" class="a5c94ac2-5a51-4da4-b5cc-b2132b52ac89" d="M711.46,427.82q2.87.45,5.73.94-70,406.52-90.59-5.46Q647.21,835.29,711.46,427.82Z"/><g class="4f874596-74b4-47dd-975b-3c25d45b34b7"><text class="6cabe25e-c487-4468-a60b-1850d9997d98" transform="translate(688.57 452.95)">109,881</text><text class="6cabe25e-c487-4468-a60b-1850d9997d98" transform="translate(624.5 448.27)">0</text><text class="68a2e5ba-4813-414d-8c27-b44553edaa52" transform="translate(688.57 452.95)">109,881</text><text class="844e07b6-9e27-4057-817b-43bd5a53c775" transform="translate(624.5 448.27)">0</text></g><path id="1bae45aa-43ad-491e-84b9-f9c31aa44603" data-name="chords id" class="3f2d1170-5344-438a-be55-dd3682db2809" d="M737.41,432.77q2.62.59,5.23,1.21Q647.21,835.29,626.59,423.3,647.21,835.29,737.41,432.77Z"/><g class="4f874596-74b4-47dd-975b-3c25d45b34b7"><text class="6cabe25e-c487-4468-a60b-1850d9997d98" transform="translate(712.72 457.73)">101,726</text><text class="6cabe25e-c487-4468-a60b-1850d9997d98" transform="translate(624.5 448.27)">0</text><text class="d544aaab-d332-48d2-9e6a-e6d03bf9da05" transform="translate(712.72 457.73)">101,726</text><text class="844e07b6-9e27-4057-817b-43bd5a53c775" transform="translate(624.5 448.27)">0</text></g><path id="777ffc34-47b1-4fc2-a024-44268041f407" data-name="chords id" class="9c860dbc-04eb-4725-8c98-8d6b5e438c27" d="M762.59,439.25q2.56.75,5.11,1.52Q647.21,835.29,626.59,423.3,647.21,835.29,762.59,439.25Z"/><g class="4f874596-74b4-47dd-975b-3c25d45b34b7"><text class="6cabe25e-c487-4468-a60b-1850d9997d98" transform="translate(736.31 463.96)">100,899</text><text class="6cabe25e-c487-4468-a60b-1850d9997d98" transform="translate(624.5 448.27)">0</text><text class="57727ef9-96d2-4efc-98a6-8aff3a950ee5" transform="translate(736.31 463.96)">100,899</text><text class="844e07b6-9e27-4057-817b-43bd5a53c775" transform="translate(624.5 448.27)">0</text></g></g><g id="734301b0-2e04-4927-9f07-3b4f2b0a67d7" data-name="arcs-container"><path class="7b90c064-0aa3-46d3-a0ca-296fe2c2b73e" d="M647.21,397.79q8.65,0,17.3.34l-.79,20q-8.25-.33-16.51-.33Z"/><path id="ad4e8b44-b30e-42e3-b25c-6e52cedc2954" data-name="label name0" class="e8f510a6-40a3-4b28-8eca-c4ef0ca86e81" d="M209.79,826.63c4.74-241.58,204.42-433.57,446-428.84s433.57,204.42,428.84,446v.15"/><path class="7fcb5e04-3555-4c83-9375-2056923a8024" d="M686.34,399.54q3.67.33,7.33.72l-2.12,19.89q-3.49-.37-7-.69Z"/><path id="cd5955a8-9cc7-4bbb-b8ad-e25a7b83069b" data-name="label name1" class="e8f510a6-40a3-4b28-8eca-c4ef0ca86e81" d="M211.81,792.49C235.41,552,449.48,376.21,689.95,399.81S1106.22,637.48,1082.62,878v.13"/><path class="a5c94ac2-5a51-4da4-b5cc-b2132b52ac89" d="M715.35,403.13q3,.48,6.07,1L718,423.84q-2.89-.5-5.79-1Z"/><path id="a8139119-4e68-41fb-b0ec-d69a96cdac27" data-name="label name2" class="e8f510a6-40a3-4b28-8eca-c4ef0ca86e81" d="M215.54,764.11C254.85,525.7,480,364.3,718.38,403.6S1118.19,668,1078.88,906.45v0"/><path class="3f2d1170-5344-438a-be55-dd3682db2809" d="M742.88,408.38q2.78.62,5.55,1.28l-4.63,19.46q-2.64-.63-5.3-1.22Z"/><path id="b9c3cb94-a126-4acb-94c8-efad48304689" data-name="label name3" class="e8f510a6-40a3-4b28-8eca-c4ef0ca86e81" d="M220.93,736.84C275.26,501.4,510.16,354.58,745.59,408.9s382.26,289.23,327.93,524.66l0,.17"/><path class="9c860dbc-04eb-4725-8c98-8d6b5e438c27" d="M769.58,415.25q2.71.79,5.42,1.62L769.15,436q-2.58-.79-5.17-1.54Z"/><path id="cfdfc93c-1f95-4242-8423-ba26b977c012" data-name="label name4" class="e8f510a6-40a3-4b28-8eca-c4ef0ca86e81" d="M228,710.21C297.05,478.67,540.75,347,772.29,416s363.24,312.78,294.16,544.32"/><path class="2354b7a9-a2f6-43c1-9cfa-d5791dd2edd7" d="M795.75,423.78q15.62,5.64,30.77,12.45l-8.2,18.24Q803.87,448,789,442.59Z"/><path id="a6748b12-738d-4fa6-923c-84dc8ea67e7d" data-name="label name5" class="e8f510a6-40a3-4b28-8eca-c4ef0ca86e81" d="M241.63,671.25c90.6-224,345.63-332.14,569.62-241.54s332.14,345.63,241.54,569.62"/><path class="77d89e40-5426-48a6-8422-50d81c3dc553" d="M846.24,445.68c215.17,109.92,300.5,373.46,190.58,588.64s-373.46,300.5-588.64,190.58S147.68,851.43,257.6,636.26A437.5,437.5,0,0,1,625.34,398.33l1,20C396.05,429.83,218.71,625.86,230.23,856.15s207.55,407.64,437.84,396.11,407.64-207.55,396.11-437.84a417.5,417.5,0,0,0-227-350.93Z"/><path id="de2a1ae1-b23c-4e7a-b37d-1b1eb2db28b8" data-name="label name6" class="e8f510a6-40a3-4b28-8eca-c4ef0ca86e81" d="M219.43,743.6c-50.59,236.27,99.94,468.81,336.21,519.4s468.68-99.85,519.35-336"/></g><text class="a8da83f1-7457-4dbb-a45a-11c36c0ec9f9" transform="translate(198.26 72.46)">¿Dónde vive la población de España?</text><text class="7994ea1c-35c6-4150-89a0-01f080ae300a" transform="translate(131.43 130.97)">El <tspan class="51ac51ac-d289-4078-abd0-994931a940da" x="43.82" y="0">2,9% </tspan><tspan x="150.11" y="0">de los 46 millones de españoles vive en el extranjero</tspan></text></svg>