<svg xmlns="http://www.w3.org/2000/svg" viewBox="0 0 855 798"><defs><style>.\38 ca180b3-eb00-4913-816a-43aeb185ff76{font-size:24px;}.\36 5aad8a4-fe9f-48bb-a0b5-9c5dd4471732,.\38 ca180b3-eb00-4913-816a-43aeb185ff76,.bf959f9f-ea92-472c-a404-5b2fd23c72e8,.d21c20f2-3f9b-40fb-ae6c-7d27cc9e9d74,.e9b2e9c0-c692-4a6d-8af2-7b8ac3a79e83{fill:#757575;}.\38 ca180b3-eb00-4913-816a-43aeb185ff76,.bb08cd1f-45f8-4341-958e-d6b55a4702ff,.bf959f9f-ea92-472c-a404-5b2fd23c72e8{font-family:ArialMT, Arial;}.\33 dbf0d5c-85e4-4674-a2bb-23d9a2d90cc6,.\36 9ba98b6-98a5-43ae-aa49-56b8741c728b,.\38 9dedefb-125d-42df-ba9e-7878e6f571f6,.e1b75050-3e5f-4247-8b56-486e09ba1644{fill:none;stroke:#757575;}.\33 dbf0d5c-85e4-4674-a2bb-23d9a2d90cc6,.\36 9ba98b6-98a5-43ae-aa49-56b8741c728b,.\38 9dedefb-125d-42df-ba9e-7878e6f571f6,.e1b75050-3e5f-4247-8b56-486e09ba1644,.ef601538-e1b3-4ac0-87b0-6253bfe9eeca,.f7e342ba-91b2-4bc0-ad16-6f71218cd8e2{stroke-miterlimit:10;}.\33 dbf0d5c-85e4-4674-a2bb-23d9a2d90cc6{stroke-dasharray:4.89 4.89;}.\38 9dedefb-125d-42df-ba9e-7878e6f571f6{stroke-dasharray:4.91 4.91;}.\36 9ba98b6-98a5-43ae-aa49-56b8741c728b{stroke-dasharray:4.99 4.99;}.\36 5aad8a4-fe9f-48bb-a0b5-9c5dd4471732{fill-opacity:0.3;}.ef601538-e1b3-4ac0-87b0-6253bfe9eeca{fill:#5cbc7c;}.ef601538-e1b3-4ac0-87b0-6253bfe9eeca,.f7e342ba-91b2-4bc0-ad16-6f71218cd8e2{stroke:#fff;stroke-width:0.75px;}.bb08cd1f-45f8-4341-958e-d6b55a4702ff{font-size:23px;}.eb44dce2-2014-46c8-9b63-9c9f700dda25{font-size:42px;fill:#323232;}.d21c20f2-3f9b-40fb-ae6c-7d27cc9e9d74,.e9b2e9c0-c692-4a6d-8af2-7b8ac3a79e83,.eb44dce2-2014-46c8-9b63-9c9f700dda25{font-family:Arial-BoldMT, Arial;font-weight:700;}.a72ed7ad-4e6b-456b-b8ff-c23bbc1368cc{letter-spacing:-0.04em;}.d21c20f2-3f9b-40fb-ae6c-7d27cc9e9d74{font-size:32px;}.e9b2e9c0-c692-4a6d-8af2-7b8ac3a79e83{font-size:28px;}.bf959f9f-ea92-472c-a404-5b2fd23c72e8{font-size:20px;}.\35 f2673dc-0e13-4c6a-bfae-3f4ceee20c6d{letter-spacing:-0.02em;}.e9b2c001-dcfa-48b6-a2b5-55b22191e3db{letter-spacing:-0.06em;}.ed8e0ec5-63c7-43f2-aee8-ef9df30afe62{letter-spacing:-0.07em;}.f7e342ba-91b2-4bc0-ad16-6f71218cd8e2{fill:#e21005;}</style></defs><title>2018.06_Mundial_ComparacionesEquipo</title><g id="417ae6e7-e5e9-4c32-a611-96e8fd9aa548" data-name="Capa 1"><text class="8ca180b3-eb00-4913-816a-43aeb185ff76" transform="translate(525.07 584.56)">16 millones</text><text class="8ca180b3-eb00-4913-816a-43aeb185ff76" transform="translate(525.07 636.56)">10 millones</text><text class="8ca180b3-eb00-4913-816a-43aeb185ff76" transform="translate(528.07 703.56)">1 millón</text><line class="e1b75050-3e5f-4247-8b56-486e09ba1644" x1="744" y1="713.5" x2="741.5" y2="713.5"/><line class="3dbf0d5c-85e4-4674-a2bb-23d9a2d90cc6" x1="736.61" y1="713.5" x2="543.45" y2="713.5"/><line class="e1b75050-3e5f-4247-8b56-486e09ba1644" x1="541" y1="713.5" x2="538.5" y2="713.5"/><line class="e1b75050-3e5f-4247-8b56-486e09ba1644" x1="737" y1="643.5" x2="734.5" y2="643.5"/><line class="89dedefb-125d-42df-ba9e-7878e6f571f6" x1="729.59" y1="643.5" x2="535.46" y2="643.5"/><line class="e1b75050-3e5f-4247-8b56-486e09ba1644" x1="533" y1="643.5" x2="530.5" y2="643.5"/><line class="e1b75050-3e5f-4247-8b56-486e09ba1644" x1="750" y1="589.5" x2="747.5" y2="589.5"/><line class="69ba98b6-98a5-43ae-aa49-56b8741c728b" x1="742.51" y1="589.5" x2="535.49" y2="589.5"/><line class="e1b75050-3e5f-4247-8b56-486e09ba1644" x1="533" y1="589.5" x2="530.5" y2="589.5"/><path class="65aad8a4-fe9f-48bb-a0b5-9c5dd4471732" d="M832.58,673.09a84.09,84.09,0,0,1-86.12,84.06c-44.61-1-81-37.43-82-82a84.09,84.09,0,1,1,168.15-2"/><circle class="ef601538-e1b3-4ac0-87b0-6253bfe9eeca" cx="693.08" cy="376.79" r="23.85"/><circle class="65aad8a4-fe9f-48bb-a0b5-9c5dd4471732" cx="746.08" cy="734.79" r="23.85"/><circle class="65aad8a4-fe9f-48bb-a0b5-9c5dd4471732" cx="746.04" cy="699.82" r="56.82"/><circle class="ef601538-e1b3-4ac0-87b0-6253bfe9eeca" cx="739.84" cy="376.79" r="22.92"/><circle class="ef601538-e1b3-4ac0-87b0-6253bfe9eeca" cx="717.37" cy="415.6" r="21.94"/><circle class="ef601538-e1b3-4ac0-87b0-6253bfe9eeca" cx="717.35" cy="339.16" r="20.92"/><circle class="ef601538-e1b3-4ac0-87b0-6253bfe9eeca" cx="675.91" cy="335.72" r="20.66"/><circle class="ef601538-e1b3-4ac0-87b0-6253bfe9eeca" cx="675.07" cy="417.2" r="20.39"/><circle class="ef601538-e1b3-4ac0-87b0-6253bfe9eeca" cx="758.1" cy="338.11" r="19.85"/><circle class="ef601538-e1b3-4ac0-87b0-6253bfe9eeca" cx="759.15" cy="414.94" r="19.85"/><circle class="ef601538-e1b3-4ac0-87b0-6253bfe9eeca" cx="651.71" cy="366.77" r="18.71"/><circle class="ef601538-e1b3-4ac0-87b0-6253bfe9eeca" cx="639.05" cy="401.98" r="18.71"/><circle class="ef601538-e1b3-4ac0-87b0-6253bfe9eeca" cx="780.14" cy="369.03" r="18.12"/><circle class="ef601538-e1b3-4ac0-87b0-6253bfe9eeca" cx="794.88" cy="402.12" r="18.12"/><circle class="ef601538-e1b3-4ac0-87b0-6253bfe9eeca" cx="699.02" cy="305.75" r="17.19"/><circle class="ef601538-e1b3-4ac0-87b0-6253bfe9eeca" cx="737.9" cy="307.46" r="16.87"/><circle class="ef601538-e1b3-4ac0-87b0-6253bfe9eeca" cx="696.01" cy="448.01" r="16.87"/><circle class="ef601538-e1b3-4ac0-87b0-6253bfe9eeca" cx="740.6" cy="445.86" r="16.2"/><circle class="ef601538-e1b3-4ac0-87b0-6253bfe9eeca" cx="719.92" cy="279.7" r="16.2"/><circle class="ef601538-e1b3-4ac0-87b0-6253bfe9eeca" cx="719.62" cy="465.26" r="12.38"/><circle class="ef601538-e1b3-4ac0-87b0-6253bfe9eeca" cx="788.2" cy="341.61" r="10.46"/><circle class="ef601538-e1b3-4ac0-87b0-6253bfe9eeca" cx="644.91" cy="338.4" r="10.46"/><circle class="ef601538-e1b3-4ac0-87b0-6253bfe9eeca" cx="759.9" cy="312.6" r="5.73"/><circle class="ef601538-e1b3-4ac0-87b0-6253bfe9eeca" cx="677.67" cy="310.44" r="4.68"/><circle class="ef601538-e1b3-4ac0-87b0-6253bfe9eeca" cx="760.47" cy="439.43" r="4.68"/></g><g id="44796700-1602-4093-9fde-67d9fb31b5e5" data-name="Capa 3"><text class="bb08cd1f-45f8-4341-958e-d6b55a4702ff" transform="translate(57.99 65.58)">Cada círculo representa el valor de un futbolista en millones de euros</text><text class="eb44dce2-2014-46c8-9b63-9c9f700dda25" transform="translate(106.33 41.18)">El valor de Rúsia y<tspan class="a72ed7ad-4e6b-456b-b8ff-c23bbc1368cc" x="373.49" y="0"> </tspan><tspan x="383.6" y="0">Arabia Saudí</tspan></text></g><g id="c008dcc6-c0d5-41a6-a0f5-f58ee8e67b50" data-name="Capa 2"><text class="d21c20f2-3f9b-40fb-ae6c-7d27cc9e9d74" transform="translate(11.46 142.1)">RUSI<tspan class="a72ed7ad-4e6b-456b-b8ff-c23bbc1368cc" x="76.45" y="0">A</tspan></text><text class="e9b2e9c0-c692-4a6d-8af2-7b8ac3a79e83" transform="translate(628.27 249.1)">ARABI<tspan class="a72ed7ad-4e6b-456b-b8ff-c23bbc1368cc" x="88.66" y="0">A</tspan><tspan x="107.84" y="0" xml:space="preserve"> SAUDÍ</tspan></text><text class="bf959f9f-ea92-472c-a404-5b2fd23c72e8" transform="translate(6.3 789.1)">Fuente: Elaboración propia a partir de<tspan class="5f2673dc-0e13-4c6a-bfae-3f4ceee20c6d" x="335.76" y="0"> </tspan><tspan class="a72ed7ad-4e6b-456b-b8ff-c23bbc1368cc" x="340.96" y="0">T</tspan><tspan x="352.43" y="0">ransfermarkt</tspan></text><text class="bf959f9f-ea92-472c-a404-5b2fd23c72e8" transform="translate(687.36 791.1)">L<tspan class="e9b2c001-dcfa-48b6-a2b5-55b22191e3db" x="11.12" y="0">A</tspan><tspan x="23.36" y="0"> </tspan><tspan class="ed8e0ec5-63c7-43f2-aee8-ef9df30afe62" x="28.92" y="0">V</tspan><tspan x="40.77" y="0">ANGUARDI</tspan><tspan class="e9b2c001-dcfa-48b6-a2b5-55b22191e3db" x="146.34" y="0">A</tspan></text><circle class="f7e342ba-91b2-4bc0-ad16-6f71218cd8e2" cx="220.18" cy="372.38" r="83.68"/><circle class="f7e342ba-91b2-4bc0-ad16-6f71218cd8e2" cx="387.54" cy="372.38" r="83.68"/><circle class="f7e342ba-91b2-4bc0-ad16-6f71218cd8e2" cx="306.86" cy="514.24" r="81.02"/><circle class="f7e342ba-91b2-4bc0-ad16-6f71218cd8e2" cx="303.86" cy="233.72" r="78.27"/><circle class="f7e342ba-91b2-4bc0-ad16-6f71218cd8e2" cx="159.44" cy="235.41" r="66.15"/><circle class="f7e342ba-91b2-4bc0-ad16-6f71218cd8e2" cx="448.28" cy="235.41" r="66.15"/><circle class="f7e342ba-91b2-4bc0-ad16-6f71218cd8e2" cx="444.66" cy="505.75" r="59.17"/><circle class="f7e342ba-91b2-4bc0-ad16-6f71218cd8e2" cx="164.06" cy="503.75" r="59.17"/><circle class="f7e342ba-91b2-4bc0-ad16-6f71218cd8e2" cx="523.45" cy="416.36" r="59.17"/><circle class="f7e342ba-91b2-4bc0-ad16-6f71218cd8e2" cx="88.69" cy="417.53" r="55.35"/><circle class="f7e342ba-91b2-4bc0-ad16-6f71218cd8e2" cx="63.35" cy="309.77" r="55.35"/><circle class="f7e342ba-91b2-4bc0-ad16-6f71218cd8e2" cx="541.05" cy="307.36" r="51.24"/><circle class="f7e342ba-91b2-4bc0-ad16-6f71218cd8e2" cx="208.65" cy="600.88" r="47.7"/><circle class="f7e342ba-91b2-4bc0-ad16-6f71218cd8e2" cx="401.84" cy="605.75" r="46.78"/><circle class="f7e342ba-91b2-4bc0-ad16-6f71218cd8e2" cx="221.32" cy="150.22" r="39.14"/><circle class="f7e342ba-91b2-4bc0-ad16-6f71218cd8e2" cx="386.35" cy="150.96" r="38.57"/><circle class="f7e342ba-91b2-4bc0-ad16-6f71218cd8e2" cx="68.71" cy="506.91" r="36.23"/><circle class="f7e342ba-91b2-4bc0-ad16-6f71218cd8e2" cx="538.82" cy="510.51" r="36.23"/><circle class="f7e342ba-91b2-4bc0-ad16-6f71218cd8e2" cx="322.37" cy="127.46" r="29.59"/><circle class="f7e342ba-91b2-4bc0-ad16-6f71218cd8e2" cx="271.64" cy="113.92" r="22.92"/><circle class="f7e342ba-91b2-4bc0-ad16-6f71218cd8e2" cx="334.05" cy="609.3" r="18.71"/><circle class="f7e342ba-91b2-4bc0-ad16-6f71218cd8e2" cx="273.47" cy="607.97" r="17.5"/><circle class="f7e342ba-91b2-4bc0-ad16-6f71218cd8e2" cx="434.53" cy="160.04" r="10.46"/></g></svg>