<svg xmlns="http://www.w3.org/2000/svg" viewBox="0 0 1300.87 737.58"><defs><style>.\31 3edade9-c2da-4c21-95ab-955cb9c87626,.dffe40a4-11ac-40f8-92e8-04918936dc0a{fill:#8dd0d3;}.\31 3edade9-c2da-4c21-95ab-955cb9c87626,.\33 794ad20-52dd-4191-8d59-f50f1141f33a{stroke:#fff;}.\33 794ad20-52dd-4191-8d59-f50f1141f33a,.f47ec5ac-81b6-4e0a-affa-40bb3156cb61{fill:#c13456;}.\33 794ad20-52dd-4191-8d59-f50f1141f33a{stroke-opacity:0;}.\35 35f170f-5a49-4aca-9739-8e19d0552d47{isolation:isolate;font-size:11px;font-family:ArialMT, Arial MT;}.\31 9258d48-a2a0-4170-97f9-84573e92bf1d{font-family:MyriadPro-Regular, Myriad Pro;}.\37 fdf87de-bae6-41b1-8df3-109133f4de7b,.dffe40a4-11ac-40f8-92e8-04918936dc0a,.f47ec5ac-81b6-4e0a-affa-40bb3156cb61{font-size:15px;}.\35 e7b1e34-48ef-4b10-89a0-e2cb09923f61,.\37 fdf87de-bae6-41b1-8df3-109133f4de7b{fill:#757575;font-family:ArialMT, Arial;}.a4b01119-b77a-44a8-83da-0d3128658489{letter-spacing:-0.07em;}.f97f5744-f253-49db-b859-506f2bbfddb0{letter-spacing:0em;}.ebeb527c-cea6-4c4f-90dd-bbf9e777fdcf{letter-spacing:-0.06em;}.\35 e7b1e34-48ef-4b10-89a0-e2cb09923f61{font-size:13px;}.ad144c78-3717-4452-894c-2057bb9626ec,.dffe40a4-11ac-40f8-92e8-04918936dc0a,.f47ec5ac-81b6-4e0a-affa-40bb3156cb61{font-family:Arial-BoldMT, Arial;font-weight:700;}.\38 4f77419-30f5-4802-af87-11d52c62423d{letter-spacing:-0.13em;}.\38 cdf7d6a-820a-417d-99c8-e76c7d128a3d{letter-spacing:-0.06em;}.e31f6935-4d71-4b37-b89c-0f9648c8c22f{letter-spacing:-0.02em;}.\36 6586ef2-da02-4f61-802d-b17a7163b5dc{letter-spacing:-0.04em;}.ba844122-e3fa-453e-80d6-c68552ba0567{letter-spacing:-0.04em;}.ad144c78-3717-4452-894c-2057bb9626ec{font-size:23px;fill:#323232;}.ab913043-51d0-4b97-8fd3-2724e9707a67{fill:none;stroke:#757575;}</style></defs><title>2018.06_LideresMundiales</title><g id="0e7c484b-f6e6-486d-a463-57d5e045f9b5" data-name="Capa 1"><path class="13edade9-c2da-4c21-95ab-955cb9c87626" d="M436.72,79a59.43,59.43,0,1,1,118.86,0" transform="translate(-5.01 55.71)"/><path class="13edade9-c2da-4c21-95ab-955cb9c87626" d="M460.88,85.78a34.41,34.41,0,1,1,68.82,0" transform="translate(-5.01 55.71)"/><path class="13edade9-c2da-4c21-95ab-955cb9c87626" d="M363.49,568a34.41,34.41,0,0,1,0-68.82" transform="translate(-5.01 55.71)"/><path class="3794ad20-52dd-4191-8d59-f50f1141f33a" d="M73.34,614.6a12.74,12.74,0,0,1,0,25.48" transform="translate(-5.01 55.71)"/><path class="13edade9-c2da-4c21-95ab-955cb9c87626" d="M482,90.71a12.74,12.74,0,0,1,25.48,0" transform="translate(-5.01 55.71)"/><path class="13edade9-c2da-4c21-95ab-955cb9c87626" d="M362.89,248.24a56.62,56.62,0,0,1,0-113.24" transform="translate(-5.01 55.71)"/><path class="13edade9-c2da-4c21-95ab-955cb9c87626" d="M489.6,648.7a20.52,20.52,0,0,1,0-41" transform="translate(-5.01 55.71)"/><path class="13edade9-c2da-4c21-95ab-955cb9c87626" d="M70.85,654.88a29.81,29.81,0,1,1,0-59.61" transform="translate(-5.01 55.71)"/><path class="13edade9-c2da-4c21-95ab-955cb9c87626" d="M69.87,246.7a59.43,59.43,0,0,1,0-118.86" transform="translate(-5.01 55.71)"/><path class="13edade9-c2da-4c21-95ab-955cb9c87626" d="M362.86,364a43.29,43.29,0,1,1,0-86.58" transform="translate(-5.01 55.71)"/><path class="13edade9-c2da-4c21-95ab-955cb9c87626" d="M217,365.8a43.72,43.72,0,1,1,0-87.45" transform="translate(-5.01 55.71)"/><path class="13edade9-c2da-4c21-95ab-955cb9c87626" d="M489.49,464.35a36.45,36.45,0,1,1,0-72.89" transform="translate(-5.01 55.71)"/><path class="13edade9-c2da-4c21-95ab-955cb9c87626" d="M217.82,568.37a34.76,34.76,0,0,1,0-69.52" transform="translate(-5.01 55.71)"/><path class="13edade9-c2da-4c21-95ab-955cb9c87626" d="M72.49,471.41c-23.32,0-43.23-18.91-43.23-42.23A42.23,42.23,0,0,1,71.49,387" transform="translate(-5.01 55.71)"/><path class="13edade9-c2da-4c21-95ab-955cb9c87626" d="M489.91,239a48.27,48.27,0,0,1,0-96.53" transform="translate(-5.01 55.71)"/><path class="13edade9-c2da-4c21-95ab-955cb9c87626" d="M71.14,366.79a46,46,0,0,1,0-91.91" transform="translate(-5.01 55.71)"/><path class="13edade9-c2da-4c21-95ab-955cb9c87626" d="M218.07,247.6a58.91,58.91,0,1,1,0-117.82" transform="translate(-5.01 55.71)"/><path class="13edade9-c2da-4c21-95ab-955cb9c87626" d="M217.36,467.57a40.56,40.56,0,1,1,0-81.12" transform="translate(-5.01 55.71)"/><path class="13edade9-c2da-4c21-95ab-955cb9c87626" d="M362.25,465.71a39.73,39.73,0,1,1,0-79.45" transform="translate(-5.01 55.71)"/><path class="13edade9-c2da-4c21-95ab-955cb9c87626" d="M217.68,656.09a28.68,28.68,0,1,1,0-57.36" transform="translate(-5.01 55.71)"/><path class="3794ad20-52dd-4191-8d59-f50f1141f33a" d="M365.08,164.14a26.35,26.35,0,0,1,0,52.7" transform="translate(-5.01 55.71)"/><path class="3794ad20-52dd-4191-8d59-f50f1141f33a" d="M491.53,514.61a18.59,18.59,0,1,1,0,37.19" transform="translate(-5.01 55.71)"/><path class="3794ad20-52dd-4191-8d59-f50f1141f33a" d="M491.85,613.94a15,15,0,0,1,0,29.95" transform="translate(-5.01 55.71)"/><path class="13edade9-c2da-4c21-95ab-955cb9c87626" d="M488.69,564.73a31.8,31.8,0,0,1,0-63.6" transform="translate(-5.01 55.71)"/><path class="3794ad20-52dd-4191-8d59-f50f1141f33a" d="M72.62,164.37a23.28,23.28,0,0,1,0,46.56" transform="translate(-5.01 55.71)"/><path class="3794ad20-52dd-4191-8d59-f50f1141f33a" d="M365.72,302.23a18.31,18.31,0,0,1,0,36.62" transform="translate(-5.01 55.71)"/><path class="3794ad20-52dd-4191-8d59-f50f1141f33a" d="M219.62,299.27a22.65,22.65,0,1,1,0,45.29" transform="translate(-5.01 55.71)"/><path class="3794ad20-52dd-4191-8d59-f50f1141f33a" d="M491.88,406.34a21.84,21.84,0,0,1,0,43.68" transform="translate(-5.01 55.71)"/><path class="3794ad20-52dd-4191-8d59-f50f1141f33a" d="M365.33,518.62a15.46,15.46,0,0,1,0,30.91" transform="translate(-5.01 55.71)"/><path class="3794ad20-52dd-4191-8d59-f50f1141f33a" d="M220.17,516a17,17,0,1,1,0,34" transform="translate(-5.01 55.71)"/><path class="3794ad20-52dd-4191-8d59-f50f1141f33a" d="M74.12,408.54a20.43,20.43,0,0,1,0,40.87" transform="translate(-5.01 55.71)"/><path class="3794ad20-52dd-4191-8d59-f50f1141f33a" d="M492.57,166.06a24.08,24.08,0,1,1,0,48.17" transform="translate(-5.01 55.71)"/><path class="3794ad20-52dd-4191-8d59-f50f1141f33a" d="M73.73,297.26a23.21,23.21,0,1,1,0,46.42" transform="translate(-5.01 55.71)"/><path class="3794ad20-52dd-4191-8d59-f50f1141f33a" d="M221,166.59a22.92,22.92,0,0,1,0,45.83" transform="translate(-5.01 55.71)"/><path class="3794ad20-52dd-4191-8d59-f50f1141f33a" d="M220.25,402a24.74,24.74,0,1,1,0,49.48" transform="translate(-5.01 55.71)"/><path class="3794ad20-52dd-4191-8d59-f50f1141f33a" d="M365,410.72a15.81,15.81,0,1,1,0,31.61" transform="translate(-5.01 55.71)"/><path class="3794ad20-52dd-4191-8d59-f50f1141f33a" d="M220.2,605.83a20.67,20.67,0,1,1,0,41.33" transform="translate(-5.01 55.71)"/><path class="3794ad20-52dd-4191-8d59-f50f1141f33a" d="M73.86,516.65a16.39,16.39,0,0,1,0,32.78" transform="translate(-5.01 55.71)"/><path class="3794ad20-52dd-4191-8d59-f50f1141f33a" d="M491.43,305.85a17,17,0,1,1,0,34" transform="translate(-5.01 55.71)"/><path class="3794ad20-52dd-4191-8d59-f50f1141f33a" d="M365.27,614.21a13.66,13.66,0,0,1,0,27.33" transform="translate(-5.01 55.71)"/><path class="13edade9-c2da-4c21-95ab-955cb9c87626" d="M71.12,568.83a36.42,36.42,0,1,1,0-72.83" transform="translate(-5.01 55.71)"/><path class="13edade9-c2da-4c21-95ab-955cb9c87626" d="M489.19,365.1a42.3,42.3,0,0,1,0-84.6" transform="translate(-5.01 55.71)"/><path class="13edade9-c2da-4c21-95ab-955cb9c87626" d="M362.77,654.92a28.3,28.3,0,1,1,0-56.61" transform="translate(-5.01 55.71)"/><text class="535f170f-5a49-4aca-9739-8e19d0552d47" transform="translate(1244.69 9.44)">Shinz<tspan class="19258d48-a2a0-4170-97f9-84573e92bf1d" x="27.51" y="0">ō</tspan><tspan x="33.55" y="0" xml:space="preserve"> Abe</tspan></text></g><g id="1173c8d4-9362-4a24-9d99-f0fc07456a6d" data-name="NOMBRES"><text class="7fdf87de-bae6-41b1-8df3-109133f4de7b" transform="translate(66.99 200.71)">ES<tspan class="a4b01119-b77a-44a8-83da-0d3128658489" x="20.01" y="0">T</tspan><tspan class="f97f5744-f253-49db-b859-506f2bbfddb0" x="28.06" y="0">ADOS</tspan><tspan x="0" y="18">UNIDOS</tspan></text><text class="7fdf87de-bae6-41b1-8df3-109133f4de7b" transform="translate(214.99 201.71)">AUSTRALI<tspan class="ebeb527c-cea6-4c4f-90dd-bbf9e777fdcf" x="73.35" y="0">A</tspan></text><text class="7fdf87de-bae6-41b1-8df3-109133f4de7b" transform="translate(358.99 202.71)">ALEMANI<tspan class="ebeb527c-cea6-4c4f-90dd-bbf9e777fdcf" x="65.85" y="0">A</tspan></text><text class="7fdf87de-bae6-41b1-8df3-109133f4de7b" transform="translate(485.99 204.71)">CANADÁ</text><text class="5e7b1e34-48ef-4b10-89a0-e2cb09923f61" transform="translate(382.99 165.71)">350.000</text><text class="5e7b1e34-48ef-4b10-89a0-e2cb09923f61" transform="translate(459.64 165.71)">40.000</text><text class="dffe40a4-11ac-40f8-92e8-04918936dc0a" transform="translate(16.99 127.71)">JEFE DE GOBIERNO</text><text class="f47ec5ac-81b6-4e0a-affa-40bb3156cb61" transform="translate(14.99 161.71)">PROFESOR</text><text class="7fdf87de-bae6-41b1-8df3-109133f4de7b" transform="translate(66.99 348.71)">CANADÁ</text><text class="7fdf87de-bae6-41b1-8df3-109133f4de7b" transform="translate(358.99 349.71)">IRLAND<tspan class="ebeb527c-cea6-4c4f-90dd-bbf9e777fdcf" x="55.01" y="0">A</tspan></text><text class="7fdf87de-bae6-41b1-8df3-109133f4de7b" transform="translate(214.99 348.71)">DINAMARC<tspan class="ebeb527c-cea6-4c4f-90dd-bbf9e777fdcf" x="80" y="0">A</tspan></text><text class="7fdf87de-bae6-41b1-8df3-109133f4de7b" transform="translate(484.99 350.71)">FRANCI<tspan class="ebeb527c-cea6-4c4f-90dd-bbf9e777fdcf" x="55.83" y="0">A</tspan></text><text class="7fdf87de-bae6-41b1-8df3-109133f4de7b" transform="translate(67.99 458.71)">JAPÓN</text><text class="7fdf87de-bae6-41b1-8df3-109133f4de7b" transform="translate(215.99 454.71)">FINLANDI<tspan class="ebeb527c-cea6-4c4f-90dd-bbf9e777fdcf" x="68.34" y="0">A</tspan></text><text class="7fdf87de-bae6-41b1-8df3-109133f4de7b" transform="translate(358.99 458.71)"><tspan class="84f77419-30f5-4802-af87-11d52c62423d">P</tspan><tspan x="8.07" y="0">. BAJOS</tspan></text><text class="7fdf87de-bae6-41b1-8df3-109133f4de7b" transform="translate(485.99 459.71)">CHILE</text><text class="7fdf87de-bae6-41b1-8df3-109133f4de7b" transform="translate(67.99 567.71)">MÉXICO</text><text class="7fdf87de-bae6-41b1-8df3-109133f4de7b" transform="translate(214.99 568.71)">TURQUÍ<tspan class="8cdf7d6a-820a-417d-99c8-e76c7d128a3d" x="57.5" y="0">A</tspan></text><text class="7fdf87de-bae6-41b1-8df3-109133f4de7b" transform="translate(360 568.71)">COLOMBI<tspan class="8cdf7d6a-820a-417d-99c8-e76c7d128a3d" x="69.18" y="0">A</tspan></text><text class="7fdf87de-bae6-41b1-8df3-109133f4de7b" transform="translate(362 666.71)">HUNGRÍ<tspan class="8cdf7d6a-820a-417d-99c8-e76c7d128a3d" x="59.17" y="0">A</tspan></text><text class="7fdf87de-bae6-41b1-8df3-109133f4de7b" transform="translate(488.01 666.71)">POLONI<tspan class="ebeb527c-cea6-4c4f-90dd-bbf9e777fdcf" x="56.68" y="0">A</tspan></text><text class="7fdf87de-bae6-41b1-8df3-109133f4de7b" transform="translate(487 567.71)">I<tspan class="a4b01119-b77a-44a8-83da-0d3128658489" x="4.17" y="0">T</tspan><tspan x="12.22" y="0">ALI</tspan><tspan class="8cdf7d6a-820a-417d-99c8-e76c7d128a3d" x="34.73" y="0">A</tspan></text><text class="7fdf87de-bae6-41b1-8df3-109133f4de7b" transform="translate(69 665.71)">PO<tspan class="e31f6935-4d71-4b37-b89c-0f9648c8c22f" x="21.67" y="0">R</tspan><tspan x="32.23" y="0">TUGA</tspan><tspan class="66586ef2-da02-4f61-802d-b17a7163b5dc" x="73.9" y="0">L</tspan></text><text class="7fdf87de-bae6-41b1-8df3-109133f4de7b" transform="translate(0 732.71)">Fuente: OCDE, <tspan class="ba844122-e3fa-453e-80d6-c68552ba0567" x="106.71" y="0">W</tspan><tspan class="f97f5744-f253-49db-b859-506f2bbfddb0" x="120.31" y="0">age Indicator</tspan></text><text class="7fdf87de-bae6-41b1-8df3-109133f4de7b" transform="translate(351 732.71)">Laura<tspan class="8cdf7d6a-820a-417d-99c8-e76c7d128a3d" x="38.36" y="0"> </tspan><tspan x="41.7" y="0">Aragó | L</tspan><tspan class="ebeb527c-cea6-4c4f-90dd-bbf9e777fdcf" x="102.3" y="0">A</tspan><tspan x="111.48" y="0"> </tspan><tspan class="a4b01119-b77a-44a8-83da-0d3128658489" x="115.65" y="0">V</tspan><tspan x="124.54" y="0">ANGUARDI</tspan><tspan class="8cdf7d6a-820a-417d-99c8-e76c7d128a3d" x="203.72" y="0">A</tspan></text><text class="7fdf87de-bae6-41b1-8df3-109133f4de7b" transform="translate(229.99 664.71)">ES<tspan class="a4b01119-b77a-44a8-83da-0d3128658489" x="20.01" y="0">P</tspan><tspan x="28.9" y="0">AÑ</tspan><tspan class="ebeb527c-cea6-4c4f-90dd-bbf9e777fdcf" x="49.74" y="0">A</tspan></text><text class="ad144c78-3717-4452-894c-2057bb9626ec" transform="translate(16.99 93.71)">Diferencia de sueldos en cada país</text><line class="ab913043-51d0-4b97-8fd3-2724e9707a67" x1="501.99" y1="146.71" x2="501.99" y2="165.71"/><line class="ab913043-51d0-4b97-8fd3-2724e9707a67" x1="432.49" y1="134.21" x2="432.49" y2="166.71"/></g></svg>