<svg xmlns="http://www.w3.org/2000/svg" viewBox="0 0 855 798"><defs><style>.\30 4ed36d5-c611-4b9f-bbe1-0e02291a2b86{fill:#f2cf00;}.\30 4ed36d5-c611-4b9f-bbe1-0e02291a2b86,.\33 68c505d-eadd-42b3-913a-6593b3981103{stroke:#fff;stroke-width:0.75px;}.\30 4ed36d5-c611-4b9f-bbe1-0e02291a2b86,.\30 85a35c8-fa76-433b-b069-e6b9259a78e3,.\30 9adfe4c-89b6-4209-b47a-89cf1f7c7a00,.\32 f7b5957-ed37-41db-8da0-41412e3cc8f9,.\33 68c505d-eadd-42b3-913a-6593b3981103,.\35 ef7828e-717a-46bc-b724-fc4f6dce885b{stroke-miterlimit:10;}.\33 68c505d-eadd-42b3-913a-6593b3981103{fill:#b70a06;}.a2d4c35d-943d-4436-9494-1af565a99c6d{font-size:24px;}.\37 b6ffc47-b2ec-4fd4-b7da-a03480f16d5c,.a2d4c35d-943d-4436-9494-1af565a99c6d,.aae5a167-0a01-4409-9a9b-5dd6908a614c,.c8f92032-10db-43ab-8391-b0e2f5d763bb{fill:#757575;}.\37 b6ffc47-b2ec-4fd4-b7da-a03480f16d5c,.\38 2f1ca38-b94a-48a3-904c-8e57236f2f15,.a2d4c35d-943d-4436-9494-1af565a99c6d{font-family:ArialMT, Arial;}.\30 85a35c8-fa76-433b-b069-e6b9259a78e3,.\30 9adfe4c-89b6-4209-b47a-89cf1f7c7a00,.\32 f7b5957-ed37-41db-8da0-41412e3cc8f9,.\35 ef7828e-717a-46bc-b724-fc4f6dce885b{fill:none;stroke:#757575;}.\30 9adfe4c-89b6-4209-b47a-89cf1f7c7a00{stroke-dasharray:5 5;}.\35 ef7828e-717a-46bc-b724-fc4f6dce885b{stroke-dasharray:4.92 4.92;}.\32 f7b5957-ed37-41db-8da0-41412e3cc8f9{stroke-dasharray:5.01 5.01;}.aae5a167-0a01-4409-9a9b-5dd6908a614c{fill-opacity:0.3;}.\38 2f1ca38-b94a-48a3-904c-8e57236f2f15{font-size:23px;}.\35 eb874ac-93df-4a1e-bc5c-dd1385359352{font-size:37px;fill:#323232;}.\35 eb874ac-93df-4a1e-bc5c-dd1385359352,.c8f92032-10db-43ab-8391-b0e2f5d763bb{font-family:Arial-BoldMT, Arial;font-weight:700;}.c8f92032-10db-43ab-8391-b0e2f5d763bb{font-size:32px;}.c940aff3-4cd3-47c7-89df-ee25d7ad01e3{letter-spacing:-0.02em;}.\35 391f5b0-f9b7-4953-8bcf-91f23628382a{letter-spacing:-0.04em;}.\37 b6ffc47-b2ec-4fd4-b7da-a03480f16d5c{font-size:20px;}.\32 c64b5c4-f805-4b0f-9250-8bc90d7ad5bd{letter-spacing:-0.06em;}.\31 eb3f595-6cca-408b-9d94-8570f6a168b5{letter-spacing:-0.07em;}</style></defs><title>2018.06_Mundial_ComparacionesEquipo</title><g id="0448a399-c462-4a99-ab63-c9e9b18e5f25" data-name="Capa 1"><circle class="04ed36d5-c611-4b9f-bbe1-0e02291a2b86" cx="192.85" cy="444.45" r="93.22"/><circle class="04ed36d5-c611-4b9f-bbe1-0e02291a2b86" cx="355.55" cy="444.45" r="69.48"/><circle class="04ed36d5-c611-4b9f-bbe1-0e02291a2b86" cx="295.13" cy="561.39" r="62.14"/><path class="04ed36d5-c611-4b9f-bbe1-0e02291a2b86" d="M295.13,265.37A62.14,62.14,0,1,1,233,327.51a62.14,62.14,0,0,1,62.14-62.14"/><circle class="04ed36d5-c611-4b9f-bbe1-0e02291a2b86" cx="183.06" cy="297.74" r="53.82"/><circle class="04ed36d5-c611-4b9f-bbe1-0e02291a2b86" cx="183.06" cy="591.16" r="53.82"/><circle class="04ed36d5-c611-4b9f-bbe1-0e02291a2b86" cx="410.9" cy="334.28" r="53.82"/><circle class="04ed36d5-c611-4b9f-bbe1-0e02291a2b86" cx="408.51" cy="553.25" r="51.53"/><circle class="04ed36d5-c611-4b9f-bbe1-0e02291a2b86" cx="91.39" cy="544.29" r="49.13"/><circle class="04ed36d5-c611-4b9f-bbe1-0e02291a2b86" cx="97.8" cy="345.57" r="43.94"/><circle class="04ed36d5-c611-4b9f-bbe1-0e02291a2b86" cx="253.48" cy="229.94" r="43.94"/><circle class="04ed36d5-c611-4b9f-bbe1-0e02291a2b86" cx="252.35" cy="653.37" r="39.3"/><circle class="04ed36d5-c611-4b9f-bbe1-0e02291a2b86" cx="459.09" cy="477.8" r="39.3"/><circle class="04ed36d5-c611-4b9f-bbe1-0e02291a2b86" cx="453.61" cy="407.64" r="31.07"/><circle class="04ed36d5-c611-4b9f-bbe1-0e02291a2b86" cx="364.01" cy="617.84" r="26.91"/><circle class="04ed36d5-c611-4b9f-bbe1-0e02291a2b86" cx="362.12" cy="274.88" r="23.04"/><circle class="04ed36d5-c611-4b9f-bbe1-0e02291a2b86" cx="81.63" cy="410.58" r="23.04"/><circle class="04ed36d5-c611-4b9f-bbe1-0e02291a2b86" cx="81.49" cy="473.89" r="21.97"/><path class="04ed36d5-c611-4b9f-bbe1-0e02291a2b86" d="M31.1,442.9a20.84,20.84,0,1,1,20.84,20.84A20.84,20.84,0,0,1,31.1,442.9"/><circle class="04ed36d5-c611-4b9f-bbe1-0e02291a2b86" cx="310.15" cy="641.8" r="19.65"/><circle class="04ed36d5-c611-4b9f-bbe1-0e02291a2b86" cx="309.08" cy="251.09" r="15.54"/><path class="04ed36d5-c611-4b9f-bbe1-0e02291a2b86" d="M114.33,272.9a15.54,15.54,0,1,1-15.54,15.54,15.54,15.54,0,0,1,15.54-15.54"/><circle class="04ed36d5-c611-4b9f-bbe1-0e02291a2b86" cx="338.18" cy="246.74" r="13.9"/><circle class="368c505d-eadd-42b3-913a-6593b3981103" cx="653.56" cy="382.07" r="43.94"/><circle class="368c505d-eadd-42b3-913a-6593b3981103" cx="730.1" cy="382.07" r="32.59"/><circle class="368c505d-eadd-42b3-913a-6593b3981103" cx="702.12" cy="439.25" r="31.07"/><circle class="368c505d-eadd-42b3-913a-6593b3981103" cx="701.88" cy="326.79" r="29.48"/><circle class="368c505d-eadd-42b3-913a-6593b3981103" cx="645.65" cy="309.08" r="29.48"/><circle class="368c505d-eadd-42b3-913a-6593b3981103" cx="644.26" cy="454.06" r="28.65"/><circle class="368c505d-eadd-42b3-913a-6593b3981103" cx="759.98" cy="328.62" r="28.65"/><circle class="368c505d-eadd-42b3-913a-6593b3981103" cx="754.49" cy="430.87" r="21.97"/><circle class="368c505d-eadd-42b3-913a-6593b3981103" cx="606.72" cy="339.05" r="19.65"/><circle class="368c505d-eadd-42b3-913a-6593b3981103" cx="607.79" cy="424.37" r="18.38"/><circle class="368c505d-eadd-42b3-913a-6593b3981103" cx="685.09" cy="281.97" r="18.38"/><path class="368c505d-eadd-42b3-913a-6593b3981103" d="M793,399a16.66,16.66,0,1,1-16.66-16.66A16.66,16.66,0,0,1,793,399"/><circle class="368c505d-eadd-42b3-913a-6593b3981103" cx="774.81" cy="368.49" r="13.9"/><circle class="368c505d-eadd-42b3-913a-6593b3981103" cx="679.12" cy="476.84" r="13"/><circle class="368c505d-eadd-42b3-913a-6593b3981103" cx="739.19" cy="461.24" r="12.03"/><circle class="368c505d-eadd-42b3-913a-6593b3981103" cx="732.43" cy="298.68" r="12.03"/><circle class="368c505d-eadd-42b3-913a-6593b3981103" cx="599.15" cy="395.2" r="12.03"/><circle class="368c505d-eadd-42b3-913a-6593b3981103" cx="598.96" cy="369.77" r="12.03"/><circle class="368c505d-eadd-42b3-913a-6593b3981103" cx="579.87" cy="382.63" r="10.99"/><circle class="368c505d-eadd-42b3-913a-6593b3981103" cx="712.43" cy="288.92" r="9.83"/><circle class="368c505d-eadd-42b3-913a-6593b3981103" cx="700.54" cy="478.8" r="8.51"/><circle class="368c505d-eadd-42b3-913a-6593b3981103" cx="608.94" cy="449.67" r="6.95"/><circle class="368c505d-eadd-42b3-913a-6593b3981103" cx="726.68" cy="281.16" r="6.41"/><text class="a2d4c35d-943d-4436-9494-1af565a99c6d" transform="translate(533.07 554.56)">180 millones</text><text class="a2d4c35d-943d-4436-9494-1af565a99c6d" transform="translate(537.07 629.56)">90 millones</text><text class="a2d4c35d-943d-4436-9494-1af565a99c6d" transform="translate(530.07 722.56)">20 millones</text><line class="085a35c8-fa76-433b-b069-e6b9259a78e3" x1="754" y1="727.5" x2="751.5" y2="727.5"/><line class="09adfe4c-89b6-4209-b47a-89cf1f7c7a00" x1="746.5" y1="727.5" x2="539" y2="727.5"/><line class="085a35c8-fa76-433b-b069-e6b9259a78e3" x1="536.5" y1="727.5" x2="534" y2="727.5"/><line class="085a35c8-fa76-433b-b069-e6b9259a78e3" x1="746" y1="635.5" x2="743.5" y2="635.5"/><line class="5ef7828e-717a-46bc-b724-fc4f6dce885b" x1="738.58" y1="635.5" x2="534.46" y2="635.5"/><line class="085a35c8-fa76-433b-b069-e6b9259a78e3" x1="532" y1="635.5" x2="529.5" y2="635.5"/><line class="085a35c8-fa76-433b-b069-e6b9259a78e3" x1="766" y1="564.5" x2="763.5" y2="564.5"/><line class="2f7b5957-ed37-41db-8da0-41412e3cc8f9" x1="758.49" y1="564.5" x2="540.51" y2="564.5"/><line class="085a35c8-fa76-433b-b069-e6b9259a78e3" x1="538" y1="564.5" x2="535.5" y2="564.5"/><path class="aae5a167-0a01-4409-9a9b-5dd6908a614c" d="M829,657.88a91.89,91.89,0,0,1-94.1,91.86c-48.74-1.15-88.5-40.9-89.65-89.65A91.89,91.89,0,1,1,829,657.88"/><circle class="aae5a167-0a01-4409-9a9b-5dd6908a614c" cx="735.86" cy="725.11" r="24.13"/><circle class="aae5a167-0a01-4409-9a9b-5dd6908a614c" cx="735.83" cy="689.73" r="57.49"/></g><g id="97b1540c-73ad-4988-b747-c566695fc99a" data-name="Capa 3"><text class="82f1ca38-b94a-48a3-904c-8e57236f2f15" transform="translate(51.99 67.58)">Cada círculo representa el valor de un futbolista en millones de euros</text><text class="5eb874ac-93df-4a1e-bc5c-dd1385359352" transform="translate(72.69 37.6)">El valor de la selección brasileña y suiza</text></g><g id="3151b06f-5514-4639-9121-508774e7de03" data-name="Capa 2"><text class="c8f92032-10db-43ab-8391-b0e2f5d763bb" transform="translate(205.38 148.1)">BRASI<tspan class="c940aff3-4cd3-47c7-89df-ee25d7ad01e3" x="99.56" y="0">L</tspan></text><text class="c8f92032-10db-43ab-8391-b0e2f5d763bb" transform="translate(639.24 204.1)">SUIZ<tspan class="5391f5b0-f9b7-4953-8bcf-91f23628382a" x="72.89" y="0">A</tspan></text><text class="7b6ffc47-b2ec-4fd4-b7da-a03480f16d5c" transform="translate(6.3 789.1)">Fuente: Elaboración propia a partir de<tspan class="c940aff3-4cd3-47c7-89df-ee25d7ad01e3" x="335.76" y="0"> </tspan><tspan class="5391f5b0-f9b7-4953-8bcf-91f23628382a" x="340.96" y="0">T</tspan><tspan x="352.43" y="0">ransfermarkt</tspan></text><text class="7b6ffc47-b2ec-4fd4-b7da-a03480f16d5c" transform="translate(687.36 791.1)">L<tspan class="2c64b5c4-f805-4b0f-9250-8bc90d7ad5bd" x="11.12" y="0">A</tspan><tspan x="23.36" y="0"> </tspan><tspan class="1eb3f595-6cca-408b-9d94-8570f6a168b5" x="28.92" y="0">V</tspan><tspan x="40.77" y="0">ANGUARDI</tspan><tspan class="2c64b5c4-f805-4b0f-9250-8bc90d7ad5bd" x="146.34" y="0">A</tspan></text></g></svg>