<svg id="44f8cb21-161f-4b23-967b-4b1a75844fb4" data-name="Capa 1" xmlns="http://www.w3.org/2000/svg" viewBox="0 0 1593.16 1295.84"><defs><style>.\36 9634bf2-3081-4edb-98ce-5c6c0abaeef9,.\36 f6614f0-35e0-48e3-96ff-53ebdc507967,.\39 914a85c-2874-44de-b394-51ee28d0bb8e,.c5b9bfac-dd97-45a6-a0da-d04160e321ce{fill:none;}.\36 f6614f0-35e0-48e3-96ff-53ebdc507967,.\39 914a85c-2874-44de-b394-51ee28d0bb8e{stroke:#313232;}.\33 c0d74c5-f4ab-4166-b8b3-67708c37a919,.\36 9634bf2-3081-4edb-98ce-5c6c0abaeef9,.\36 f6614f0-35e0-48e3-96ff-53ebdc507967,.\39 914a85c-2874-44de-b394-51ee28d0bb8e,.c5b9bfac-dd97-45a6-a0da-d04160e321ce,.d82cef42-7ec8-4cc1-bfac-53b127b5beec{stroke-miterlimit:10;}.\36 9634bf2-3081-4edb-98ce-5c6c0abaeef9,.\36 f6614f0-35e0-48e3-96ff-53ebdc507967{stroke-width:2px;}.\36 9634bf2-3081-4edb-98ce-5c6c0abaeef9,.\36 f6614f0-35e0-48e3-96ff-53ebdc507967,.\39 914a85c-2874-44de-b394-51ee28d0bb8e{opacity:0.42;}.\38 4c2afcc-10bf-42d2-aee1-6886ab21a519{font-size:45px;}.\38 4c2afcc-10bf-42d2-aee1-6886ab21a519,.\39 e3215da-cedf-4395-9258-bcc70b52f708{fill:#353535;}.\36 bdad415-962a-41eb-b6c9-95f367fc5d2d,.\37 de956e9-75d5-4014-b928-402b5cb79d49,.\38 4c2afcc-10bf-42d2-aee1-6886ab21a519{font-family:Arial-BoldMT, Arial;}.\30 c1ab1cc-669d-466d-8740-b1a15cf92e40,.\37 de956e9-75d5-4014-b928-402b5cb79d49,.\38 4c2afcc-10bf-42d2-aee1-6886ab21a519{font-weight:700;}.\30 5faf3ec-5e6f-42e2-bc11-607437e845dd,.\32 bd6eee3-22b1-4b97-be62-d9db9119c303,.\39 e3215da-cedf-4395-9258-bcc70b52f708{font-size:35px;}.\30 5faf3ec-5e6f-42e2-bc11-607437e845dd,.\32 bd6eee3-22b1-4b97-be62-d9db9119c303,.\35 3132e0e-eadb-4392-8701-232f13691586,.\38 234c1a4-2a1e-4808-a1c2-4d29f26bf40e,.\39 52cc558-cb3c-43df-bd39-beb4652b823d,.\39 e3215da-cedf-4395-9258-bcc70b52f708{font-family:ArialMT, Arial;}.\35 0779e24-5e3f-471b-ba33-b4b89d3001ac{letter-spacing:-0.04em;}.\35 5435663-5ea3-49da-90b9-d741162963bb{letter-spacing:-0.02em;}.d8fc653c-5e71-4bb6-ac1f-f5ba88cd003a{letter-spacing:-0.06em;}.c5b9bfac-dd97-45a6-a0da-d04160e321ce{stroke:#a8a8a8;}.\36 bdad415-962a-41eb-b6c9-95f367fc5d2d,.\37 de956e9-75d5-4014-b928-402b5cb79d49{font-size:30px;}.\36 bdad415-962a-41eb-b6c9-95f367fc5d2d,.\38 234c1a4-2a1e-4808-a1c2-4d29f26bf40e{fill:#747474;}.\39 52cc558-cb3c-43df-bd39-beb4652b823d{font-size:28px;}.bb6d9b57-bc94-44ec-8e18-4c3aef3fc12b{letter-spacing:-0.07em;}.\37 de956e9-75d5-4014-b928-402b5cb79d49{fill:#757576;}.\30 5faf3ec-5e6f-42e2-bc11-607437e845dd{fill:#1f888b;}.\32 bd6eee3-22b1-4b97-be62-d9db9119c303{fill:#cb762d;}.\38 234c1a4-2a1e-4808-a1c2-4d29f26bf40e{font-size:23px;}.\30 43abac7-1cda-49d4-88b7-fdf31207d5e8{letter-spacing:-0.06em;}.\34 1dfe8be-c98b-41bd-92e1-019a27ad2b0e{letter-spacing:0em;}.b54f5b65-a665-40a3-905a-34bea543db43{letter-spacing:-0.06em;}.aa89e998-fd6f-4b0d-bf6d-25519ae8da53{letter-spacing:-0.06em;}.\36 9634bf2-3081-4edb-98ce-5c6c0abaeef9{stroke:#747474;}.\39 914a85c-2874-44de-b394-51ee28d0bb8e{stroke-width:4px;}.\32 afb6197-363d-4144-9564-c2f5107e406f{opacity:0.7;}.\33 c0d74c5-f4ab-4166-b8b3-67708c37a919{fill:#80bdbe;stroke:#1f888b;}.d82cef42-7ec8-4cc1-bfac-53b127b5beec{fill:#de9732;stroke:#a76a24;}</style></defs><title>2018.05.30_Ebola</title><line class="6f6614f0-35e0-48e3-96ff-53ebdc507967" x1="10.63" y1="477.84" x2="1558.53" y2="477.84"/><line class="6f6614f0-35e0-48e3-96ff-53ebdc507967" x1="13.28" y1="702.93" x2="1561.18" y2="702.93"/><text class="84c2afcc-10bf-42d2-aee1-6886ab21a519" transform="translate(9.01 85.29)">¿Qué magnitud tiene este caso de ébola comparado con los anteriores?</text><text class="9e3215da-cedf-4395-9258-bcc70b52f708" transform="translate(22.24 149.22)">EVOLUCIÓN DE LOS BROTES DESDE E<tspan class="50779e24-5e3f-471b-ba33-b4b89d3001ac" x="661.27" y="0">L</tspan><tspan x="679.44" y="0" xml:space="preserve"> DESCUBRIMIEN</tspan><tspan class="55435663-5ea3-49da-90b9-d741162963bb" x="957.53" y="0">T</tspan><tspan x="978.27" y="0">O DE L</tspan><tspan class="d8fc653c-5e71-4bb6-ac1f-f5ba88cd003a" x="1093.03" y="0">A</tspan><tspan x="1114.44" y="0" xml:space="preserve"> ENFERMEDAD EN 1976</tspan></text><line class="c5b9bfac-dd97-45a6-a0da-d04160e321ce" x1="44.52" y1="342.13" x2="44.52" y2="939.1"/><line class="c5b9bfac-dd97-45a6-a0da-d04160e321ce" x1="915.7" y1="349.84" x2="915.7" y2="858.1"/><line class="c5b9bfac-dd97-45a6-a0da-d04160e321ce" x1="1427.23" y1="343.67" x2="1427.23" y2="1104.92"/><line class="c5b9bfac-dd97-45a6-a0da-d04160e321ce" x1="1205.93" y1="338.13" x2="1205.93" y2="966.1"/><line class="c5b9bfac-dd97-45a6-a0da-d04160e321ce" x1="1565.85" y1="342.13" x2="1565.85" y2="1210"/><text class="6bdad415-962a-41eb-b6c9-95f367fc5d2d" transform="translate(52.33 856.22)"><tspan class="0c1ab1cc-669d-466d-8740-b1a15cf92e40">1976 | Brotes simultáneos <tspan x="0" y="36">en RD Congo y Uganda</tspan></tspan><tspan class="952cc558-cb3c-43df-bd39-beb4652b823d"><tspan x="0" y="72">602 casos y 431 muertes</tspan></tspan></text><text class="6bdad415-962a-41eb-b6c9-95f367fc5d2d" transform="translate(1019.47 1034.38)"><tspan class="0c1ab1cc-669d-466d-8740-b1a15cf92e40"><tspan xml:space="preserve"> 2014 - 2016 | Guinea, Sierra </tspan><tspan x="176.89" y="36">Leona y Liberia</tspan></tspan><tspan class="952cc558-cb3c-43df-bd39-beb4652b823d"><tspan x="8.35" y="72">28.610 casos y </tspan><tspan class="bb6d9b57-bc94-44ec-8e18-4c3aef3fc12b" x="204.47" y="72">1</tspan><tspan x="217.97" y="72">1.308 muertes</tspan></tspan></text><text class="6bdad415-962a-41eb-b6c9-95f367fc5d2d" transform="translate(807.64 914.88)"><tspan class="0c1ab1cc-669d-466d-8740-b1a15cf92e40"><tspan xml:space="preserve"> 2007 | Uganda y RD Congo</tspan></tspan><tspan class="952cc558-cb3c-43df-bd39-beb4652b823d"><tspan x="-33.22" y="36">En total, 413 casos y 224 muertes</tspan></tspan></text><text class="6bdad415-962a-41eb-b6c9-95f367fc5d2d" transform="translate(477.9 1126.4)"><tspan class="0c1ab1cc-669d-466d-8740-b1a15cf92e40"><tspan xml:space="preserve"> 1995| RD Congo</tspan></tspan><tspan class="53132e0e-eadb-4392-8701-232f13691586"><tspan x="-96.75" y="36">315 casos y 224 muertes</tspan></tspan></text><text class="6bdad415-962a-41eb-b6c9-95f367fc5d2d" transform="translate(925.61 771.46)"><tspan class="0c1ab1cc-669d-466d-8740-b1a15cf92e40">2000 | Uganda</tspan><tspan class="952cc558-cb3c-43df-bd39-beb4652b823d"><tspan x="0" y="36">315 casos y </tspan><tspan x="0" y="72">254 muertes</tspan></tspan></text><text class="6bdad415-962a-41eb-b6c9-95f367fc5d2d" transform="translate(1129.83 1177.45)"><tspan class="0c1ab1cc-669d-466d-8740-b1a15cf92e40"><tspan xml:space="preserve"> 2018 -</tspan><tspan class="50779e24-5e3f-471b-ba33-b4b89d3001ac" x="93.4" y="0"> </tspan><tspan x="100.62" y="0">Actualidad | RD Congo</tspan></tspan><tspan class="952cc558-cb3c-43df-bd39-beb4652b823d"><tspan x="143.97" y="36">54 casos y 25 muertes</tspan></tspan></text><text class="7de956e9-75d5-4014-b928-402b5cb79d49" transform="translate(144.37 247.5)">1980</text><text class="7de956e9-75d5-4014-b928-402b5cb79d49" transform="translate(328.08 247.5)">1985</text><text class="7de956e9-75d5-4014-b928-402b5cb79d49" transform="translate(507.79 247.5)">1990</text><text class="7de956e9-75d5-4014-b928-402b5cb79d49" transform="translate(693.28 251.5)">1995</text><text class="7de956e9-75d5-4014-b928-402b5cb79d49" transform="translate(874.2 253.83)">2000</text><text class="7de956e9-75d5-4014-b928-402b5cb79d49" transform="translate(1052.43 253.83)">2005</text><text class="7de956e9-75d5-4014-b928-402b5cb79d49" transform="translate(1239.04 255.16)">2010</text><text class="7de956e9-75d5-4014-b928-402b5cb79d49" transform="translate(1423.24 255.16)">2015</text><text class="05faf3ec-5e6f-42e2-bc11-607437e845dd" transform="translate(60.23 422.11)">CASOS</text><text class="2bd6eee3-22b1-4b97-be62-d9db9119c303" transform="translate(60.23 640.96)">MUE<tspan class="55435663-5ea3-49da-90b9-d741162963bb" x="77.78" y="0">R</tspan><tspan x="102.42" y="0">TES</tspan></text><text class="8234c1a4-2a1e-4808-a1c2-4d29f26bf40e" transform="translate(24.29 1279.94)">Fuente: OMS</text><text class="8234c1a4-2a1e-4808-a1c2-4d29f26bf40e" transform="translate(1258.41 1279.94)">Laura<tspan class="043abac7-1cda-49d4-88b7-fdf31207d5e8" x="58.83" y="0"> </tspan><tspan class="41dfe8be-c98b-41bd-92e1-019a27ad2b0e" x="63.95" y="0">Aragó | L</tspan><tspan class="b54f5b65-a665-40a3-905a-34bea543db43" x="156.87" y="0">A</tspan><tspan x="170.94" y="0"> </tspan><tspan class="bb6d9b57-bc94-44ec-8e18-4c3aef3fc12b" x="177.33" y="0">V</tspan><tspan x="190.96" y="0">ANGUARDI</tspan><tspan class="aa89e998-fd6f-4b0d-bf6d-25519ae8da53" x="312.36" y="0">A</tspan></text><line class="69634bf2-3081-4edb-98ce-5c6c0abaeef9" x1="32.11" y1="263.04" x2="32.11" y2="312.53"/><line class="69634bf2-3081-4edb-98ce-5c6c0abaeef9" x1="67.99" y1="263.04" x2="67.99" y2="312.53"/><line class="9914a85c-2874-44de-b394-51ee28d0bb8e" x1="177.9" y1="263.04" x2="177.9" y2="344"/><line class="9914a85c-2874-44de-b394-51ee28d0bb8e" x1="361.45" y1="262.7" x2="361.45" y2="343.67"/><line class="9914a85c-2874-44de-b394-51ee28d0bb8e" x1="543.16" y1="263.07" x2="543.16" y2="344.04"/><line class="9914a85c-2874-44de-b394-51ee28d0bb8e" x1="726.65" y1="263.07" x2="726.65" y2="344.04"/><line class="9914a85c-2874-44de-b394-51ee28d0bb8e" x1="907.57" y1="262.7" x2="907.57" y2="343.67"/><line class="9914a85c-2874-44de-b394-51ee28d0bb8e" x1="1091.57" y1="263.07" x2="1091.57" y2="344.04"/><line class="9914a85c-2874-44de-b394-51ee28d0bb8e" x1="1272.41" y1="262.7" x2="1272.41" y2="343.67"/><line class="9914a85c-2874-44de-b394-51ee28d0bb8e" x1="1456.61" y1="262.7" x2="1456.61" y2="343.67"/><line class="69634bf2-3081-4edb-98ce-5c6c0abaeef9" x1="217.59" y1="262.52" x2="217.59" y2="312.01"/><line class="69634bf2-3081-4edb-98ce-5c6c0abaeef9" x1="287.81" y1="263.04" x2="287.81" y2="312.53"/><line class="69634bf2-3081-4edb-98ce-5c6c0abaeef9" x1="323.68" y1="263.52" x2="323.68" y2="313.01"/><line class="69634bf2-3081-4edb-98ce-5c6c0abaeef9" x1="42.8" y1="262.52" x2="42.8" y2="287.27"/><line class="69634bf2-3081-4edb-98ce-5c6c0abaeef9" x1="54.76" y1="263.04" x2="54.76" y2="287.78"/><line class="69634bf2-3081-4edb-98ce-5c6c0abaeef9" x1="90.89" y1="263.04" x2="90.89" y2="287.78"/><line class="69634bf2-3081-4edb-98ce-5c6c0abaeef9" x1="115.06" y1="262.52" x2="115.06" y2="287.27"/><line class="69634bf2-3081-4edb-98ce-5c6c0abaeef9" x1="204.36" y1="262.52" x2="204.36" y2="287.27"/><line class="69634bf2-3081-4edb-98ce-5c6c0abaeef9" x1="191.64" y1="263.04" x2="191.64" y2="287.78"/><line class="69634bf2-3081-4edb-98ce-5c6c0abaeef9" x1="230.05" y1="263.52" x2="230.05" y2="288.27"/><line class="69634bf2-3081-4edb-98ce-5c6c0abaeef9" x1="265.67" y1="263.04" x2="265.67" y2="287.78"/><line class="69634bf2-3081-4edb-98ce-5c6c0abaeef9" x1="299.76" y1="263.04" x2="299.76" y2="287.78"/><line class="69634bf2-3081-4edb-98ce-5c6c0abaeef9" x1="311.47" y1="263.04" x2="311.47" y2="287.78"/><line class="69634bf2-3081-4edb-98ce-5c6c0abaeef9" x1="336.15" y1="262.52" x2="336.15" y2="287.27"/><line class="69634bf2-3081-4edb-98ce-5c6c0abaeef9" x1="165.94" y1="263.04" x2="165.94" y2="287.78"/><line class="69634bf2-3081-4edb-98ce-5c6c0abaeef9" x1="79.18" y1="263.04" x2="79.18" y2="287.78"/><line class="69634bf2-3081-4edb-98ce-5c6c0abaeef9" x1="127.78" y1="263.04" x2="127.78" y2="287.78"/><line class="69634bf2-3081-4edb-98ce-5c6c0abaeef9" x1="152.96" y1="262.52" x2="152.96" y2="287.27"/><line class="69634bf2-3081-4edb-98ce-5c6c0abaeef9" x1="102.59" y1="263.04" x2="102.59" y2="312.53"/><line class="69634bf2-3081-4edb-98ce-5c6c0abaeef9" x1="140.75" y1="263.04" x2="140.75" y2="312.53"/><line class="69634bf2-3081-4edb-98ce-5c6c0abaeef9" x1="242.01" y1="263.04" x2="242.01" y2="287.78"/><line class="69634bf2-3081-4edb-98ce-5c6c0abaeef9" x1="254.73" y1="263.52" x2="254.73" y2="313.01"/><line class="69634bf2-3081-4edb-98ce-5c6c0abaeef9" x1="276.87" y1="263.52" x2="276.87" y2="288.27"/><line class="69634bf2-3081-4edb-98ce-5c6c0abaeef9" x1="349.12" y1="262.52" x2="349.12" y2="287.27"/><line class="69634bf2-3081-4edb-98ce-5c6c0abaeef9" x1="373.8" y1="263.52" x2="373.8" y2="288.27"/><line class="69634bf2-3081-4edb-98ce-5c6c0abaeef9" x1="385.33" y1="263.52" x2="385.33" y2="288.27"/><line class="69634bf2-3081-4edb-98ce-5c6c0abaeef9" x1="396.95" y1="263.52" x2="396.95" y2="313.01"/><line class="69634bf2-3081-4edb-98ce-5c6c0abaeef9" x1="432.83" y1="263.05" x2="432.83" y2="312.55"/><line class="69634bf2-3081-4edb-98ce-5c6c0abaeef9" x1="582.42" y1="262.54" x2="582.42" y2="312.03"/><line class="69634bf2-3081-4edb-98ce-5c6c0abaeef9" x1="652.64" y1="263.05" x2="652.64" y2="312.55"/><line class="69634bf2-3081-4edb-98ce-5c6c0abaeef9" x1="688.52" y1="263.54" x2="688.52" y2="313.03"/><line class="69634bf2-3081-4edb-98ce-5c6c0abaeef9" x1="407.64" y1="262.54" x2="407.64" y2="287.28"/><line class="69634bf2-3081-4edb-98ce-5c6c0abaeef9" x1="419.6" y1="263.05" x2="419.6" y2="287.8"/><line class="69634bf2-3081-4edb-98ce-5c6c0abaeef9" x1="455.72" y1="263.05" x2="455.72" y2="287.8"/><line class="69634bf2-3081-4edb-98ce-5c6c0abaeef9" x1="479.89" y1="262.54" x2="479.89" y2="287.28"/><line class="69634bf2-3081-4edb-98ce-5c6c0abaeef9" x1="569.19" y1="262.54" x2="569.19" y2="287.28"/><line class="69634bf2-3081-4edb-98ce-5c6c0abaeef9" x1="556.47" y1="263.05" x2="556.47" y2="287.8"/><line class="69634bf2-3081-4edb-98ce-5c6c0abaeef9" x1="594.89" y1="263.54" x2="594.89" y2="288.28"/><line class="69634bf2-3081-4edb-98ce-5c6c0abaeef9" x1="630.51" y1="263.05" x2="630.51" y2="287.8"/><line class="69634bf2-3081-4edb-98ce-5c6c0abaeef9" x1="664.6" y1="263.05" x2="664.6" y2="287.8"/><line class="69634bf2-3081-4edb-98ce-5c6c0abaeef9" x1="676.31" y1="263.05" x2="676.31" y2="287.8"/><line class="69634bf2-3081-4edb-98ce-5c6c0abaeef9" x1="700.98" y1="262.54" x2="700.98" y2="287.28"/><line class="69634bf2-3081-4edb-98ce-5c6c0abaeef9" x1="530.78" y1="263.05" x2="530.78" y2="287.8"/><line class="69634bf2-3081-4edb-98ce-5c6c0abaeef9" x1="444.02" y1="263.05" x2="444.02" y2="287.8"/><line class="69634bf2-3081-4edb-98ce-5c6c0abaeef9" x1="492.61" y1="263.05" x2="492.61" y2="287.8"/><line class="69634bf2-3081-4edb-98ce-5c6c0abaeef9" x1="517.8" y1="262.54" x2="517.8" y2="287.28"/><line class="69634bf2-3081-4edb-98ce-5c6c0abaeef9" x1="467.43" y1="263.05" x2="467.43" y2="312.55"/><line class="69634bf2-3081-4edb-98ce-5c6c0abaeef9" x1="505.59" y1="263.05" x2="505.59" y2="312.55"/><line class="69634bf2-3081-4edb-98ce-5c6c0abaeef9" x1="606.85" y1="263.05" x2="606.85" y2="287.8"/><line class="69634bf2-3081-4edb-98ce-5c6c0abaeef9" x1="619.57" y1="263.54" x2="619.57" y2="313.03"/><line class="69634bf2-3081-4edb-98ce-5c6c0abaeef9" x1="641.7" y1="263.54" x2="641.7" y2="288.28"/><line class="69634bf2-3081-4edb-98ce-5c6c0abaeef9" x1="713.96" y1="262.54" x2="713.96" y2="287.28"/><line class="69634bf2-3081-4edb-98ce-5c6c0abaeef9" x1="738.64" y1="263.54" x2="738.64" y2="288.28"/><line class="69634bf2-3081-4edb-98ce-5c6c0abaeef9" x1="750.17" y1="263.54" x2="750.17" y2="288.28"/><line class="69634bf2-3081-4edb-98ce-5c6c0abaeef9" x1="761.79" y1="263.54" x2="761.79" y2="313.03"/><line class="69634bf2-3081-4edb-98ce-5c6c0abaeef9" x1="797.66" y1="262.53" x2="797.66" y2="312.02"/><line class="69634bf2-3081-4edb-98ce-5c6c0abaeef9" x1="947.26" y1="262.01" x2="947.26" y2="311.51"/><line class="69634bf2-3081-4edb-98ce-5c6c0abaeef9" x1="1017.48" y1="262.53" x2="1017.48" y2="312.02"/><line class="69634bf2-3081-4edb-98ce-5c6c0abaeef9" x1="1053.36" y1="263.01" x2="1053.36" y2="312.51"/><line class="69634bf2-3081-4edb-98ce-5c6c0abaeef9" x1="772.48" y1="262.01" x2="772.48" y2="286.76"/><line class="69634bf2-3081-4edb-98ce-5c6c0abaeef9" x1="784.43" y1="262.53" x2="784.43" y2="287.28"/><line class="69634bf2-3081-4edb-98ce-5c6c0abaeef9" x1="820.56" y1="262.53" x2="820.56" y2="287.28"/><line class="69634bf2-3081-4edb-98ce-5c6c0abaeef9" x1="844.73" y1="262.01" x2="844.73" y2="286.76"/><line class="69634bf2-3081-4edb-98ce-5c6c0abaeef9" x1="934.03" y1="262.01" x2="934.03" y2="286.76"/><line class="69634bf2-3081-4edb-98ce-5c6c0abaeef9" x1="921.31" y1="262.53" x2="921.31" y2="287.28"/><line class="69634bf2-3081-4edb-98ce-5c6c0abaeef9" x1="959.73" y1="263.01" x2="959.73" y2="287.76"/><line class="69634bf2-3081-4edb-98ce-5c6c0abaeef9" x1="995.35" y1="262.53" x2="995.35" y2="287.28"/><line class="69634bf2-3081-4edb-98ce-5c6c0abaeef9" x1="1029.44" y1="262.53" x2="1029.44" y2="287.28"/><line class="69634bf2-3081-4edb-98ce-5c6c0abaeef9" x1="1041.14" y1="262.53" x2="1041.14" y2="287.28"/><line class="69634bf2-3081-4edb-98ce-5c6c0abaeef9" x1="1065.82" y1="262.01" x2="1065.82" y2="286.76"/><line class="69634bf2-3081-4edb-98ce-5c6c0abaeef9" x1="895.61" y1="262.53" x2="895.61" y2="287.28"/><line class="69634bf2-3081-4edb-98ce-5c6c0abaeef9" x1="808.86" y1="262.53" x2="808.86" y2="287.28"/><line class="69634bf2-3081-4edb-98ce-5c6c0abaeef9" x1="857.45" y1="262.53" x2="857.45" y2="287.28"/><line class="69634bf2-3081-4edb-98ce-5c6c0abaeef9" x1="882.64" y1="262.01" x2="882.64" y2="286.76"/><line class="69634bf2-3081-4edb-98ce-5c6c0abaeef9" x1="832.26" y1="262.53" x2="832.26" y2="312.02"/><line class="69634bf2-3081-4edb-98ce-5c6c0abaeef9" x1="870.43" y1="262.53" x2="870.43" y2="312.02"/><line class="69634bf2-3081-4edb-98ce-5c6c0abaeef9" x1="971.69" y1="262.53" x2="971.69" y2="287.28"/><line class="69634bf2-3081-4edb-98ce-5c6c0abaeef9" x1="984.41" y1="263.01" x2="984.41" y2="312.51"/><line class="69634bf2-3081-4edb-98ce-5c6c0abaeef9" x1="1006.54" y1="263.01" x2="1006.54" y2="287.76"/><line class="69634bf2-3081-4edb-98ce-5c6c0abaeef9" x1="1078.8" y1="262.01" x2="1078.8" y2="286.76"/><line class="69634bf2-3081-4edb-98ce-5c6c0abaeef9" x1="1103.48" y1="263.01" x2="1103.48" y2="287.76"/><line class="69634bf2-3081-4edb-98ce-5c6c0abaeef9" x1="1115.01" y1="263.01" x2="1115.01" y2="287.76"/><line class="69634bf2-3081-4edb-98ce-5c6c0abaeef9" x1="1126.63" y1="263.01" x2="1126.63" y2="312.51"/><line class="69634bf2-3081-4edb-98ce-5c6c0abaeef9" x1="1162.5" y1="262.55" x2="1162.5" y2="312.04"/><line class="69634bf2-3081-4edb-98ce-5c6c0abaeef9" x1="1312.1" y1="262.03" x2="1312.1" y2="311.52"/><line class="69634bf2-3081-4edb-98ce-5c6c0abaeef9" x1="1382.32" y1="262.55" x2="1382.32" y2="312.04"/><line class="69634bf2-3081-4edb-98ce-5c6c0abaeef9" x1="1418.19" y1="263.03" x2="1418.19" y2="312.52"/><line class="69634bf2-3081-4edb-98ce-5c6c0abaeef9" x1="1137.31" y1="262.03" x2="1137.31" y2="286.78"/><line class="69634bf2-3081-4edb-98ce-5c6c0abaeef9" x1="1149.27" y1="262.55" x2="1149.27" y2="287.29"/><line class="69634bf2-3081-4edb-98ce-5c6c0abaeef9" x1="1185.4" y1="262.55" x2="1185.4" y2="287.29"/><line class="69634bf2-3081-4edb-98ce-5c6c0abaeef9" x1="1209.57" y1="262.03" x2="1209.57" y2="286.78"/><line class="69634bf2-3081-4edb-98ce-5c6c0abaeef9" x1="1298.87" y1="262.03" x2="1298.87" y2="286.78"/><line class="69634bf2-3081-4edb-98ce-5c6c0abaeef9" x1="1286.15" y1="262.55" x2="1286.15" y2="287.29"/><line class="69634bf2-3081-4edb-98ce-5c6c0abaeef9" x1="1324.57" y1="263.03" x2="1324.57" y2="287.78"/><line class="69634bf2-3081-4edb-98ce-5c6c0abaeef9" x1="1360.19" y1="262.55" x2="1360.19" y2="287.29"/><line class="69634bf2-3081-4edb-98ce-5c6c0abaeef9" x1="1394.28" y1="262.55" x2="1394.28" y2="287.29"/><line class="69634bf2-3081-4edb-98ce-5c6c0abaeef9" x1="1405.98" y1="262.55" x2="1405.98" y2="287.29"/><line class="69634bf2-3081-4edb-98ce-5c6c0abaeef9" x1="1430.66" y1="262.03" x2="1430.66" y2="286.78"/><line class="69634bf2-3081-4edb-98ce-5c6c0abaeef9" x1="1260.45" y1="262.55" x2="1260.45" y2="287.29"/><line class="69634bf2-3081-4edb-98ce-5c6c0abaeef9" x1="1173.7" y1="262.55" x2="1173.7" y2="287.29"/><line class="69634bf2-3081-4edb-98ce-5c6c0abaeef9" x1="1222.29" y1="262.55" x2="1222.29" y2="287.29"/><line class="69634bf2-3081-4edb-98ce-5c6c0abaeef9" x1="1247.48" y1="262.03" x2="1247.48" y2="286.78"/><line class="69634bf2-3081-4edb-98ce-5c6c0abaeef9" x1="1197.1" y1="262.55" x2="1197.1" y2="312.04"/><line class="69634bf2-3081-4edb-98ce-5c6c0abaeef9" x1="1235.27" y1="262.55" x2="1235.27" y2="312.04"/><line class="69634bf2-3081-4edb-98ce-5c6c0abaeef9" x1="1336.52" y1="262.55" x2="1336.52" y2="287.29"/><line class="69634bf2-3081-4edb-98ce-5c6c0abaeef9" x1="1349.25" y1="263.03" x2="1349.25" y2="312.52"/><line class="69634bf2-3081-4edb-98ce-5c6c0abaeef9" x1="1371.38" y1="263.03" x2="1371.38" y2="287.78"/><line class="69634bf2-3081-4edb-98ce-5c6c0abaeef9" x1="1443.64" y1="262.03" x2="1443.64" y2="286.78"/><line class="69634bf2-3081-4edb-98ce-5c6c0abaeef9" x1="1468.31" y1="263.03" x2="1468.31" y2="287.78"/><line class="69634bf2-3081-4edb-98ce-5c6c0abaeef9" x1="1479.85" y1="263.03" x2="1479.85" y2="287.78"/><line class="69634bf2-3081-4edb-98ce-5c6c0abaeef9" x1="1491.47" y1="263.03" x2="1491.47" y2="312.52"/><line class="69634bf2-3081-4edb-98ce-5c6c0abaeef9" x1="1503.17" y1="262.01" x2="1503.17" y2="286.76"/><line class="69634bf2-3081-4edb-98ce-5c6c0abaeef9" x1="1514.7" y1="262.01" x2="1514.7" y2="286.76"/><line class="69634bf2-3081-4edb-98ce-5c6c0abaeef9" x1="1526.32" y1="262.01" x2="1526.32" y2="311.51"/><line class="69634bf2-3081-4edb-98ce-5c6c0abaeef9" x1="1538.02" y1="263.03" x2="1538.02" y2="287.78"/><line class="69634bf2-3081-4edb-98ce-5c6c0abaeef9" x1="1549.56" y1="263.03" x2="1549.56" y2="287.78"/><line class="69634bf2-3081-4edb-98ce-5c6c0abaeef9" x1="1561.18" y1="263.03" x2="1561.18" y2="312.52"/><g class="2afb6197-363d-4144-9564-c2f5107e406f"><path class="3c0d74c5-f4ab-4166-b8b3-67708c37a919" d="M46.52,453.54h0c18.45,0,31.93,21.3,17.19,40.65C44.36,508.94,23.06,495.46,23.06,477a23.47,23.47,0,0,1,23.47-23.47Z"/><path class="3c0d74c5-f4ab-4166-b8b3-67708c37a919" d="M77.18,476.36v-.7a.7.7,0,1,1-.7.7.7.7,0,0,1,.7-.7h0Z"/><path class="3c0d74c5-f4ab-4166-b8b3-67708c37a919" d="M143.48,473.36a4.09,4.09,0,1,1-4.09,4.09,4.09,4.09,0,0,1,4.09-4.09h0"/><path class="3c0d74c5-f4ab-4166-b8b3-67708c37a919" d="M688.52,472h0a5.05,5.05,0,0,1,5.05,5.05,5.13,5.13,0,0,1-5.05,5.05,5.05,5.05,0,0,1,0-10.11Z"/><path class="3c0d74c5-f4ab-4166-b8b3-67708c37a919" d="M725.43,464.39h0A12.44,12.44,0,1,1,713,476.83a12.44,12.44,0,0,1,12.44-12.44Z"/><path class="3c0d74c5-f4ab-4166-b8b3-67708c37a919" d="M764.7,472.63h0a5.43,5.43,0,1,1-5.43,5.43,5.43,5.43,0,0,1,5.43-5.43Z"/><path class="3c0d74c5-f4ab-4166-b8b3-67708c37a919" d="M772.23,473.94h0c3.07,0,5.31,3.54,2.86,6.76-3.22,2.45-6.76.21-6.76-2.86a3.9,3.9,0,0,1,3.9-3.9Z"/><path class="3c0d74c5-f4ab-4166-b8b3-67708c37a919" d="M915.7,463h0c11.36,0,19.66,13.11,10.58,25-11.91,9.07-25,.78-25-10.58A14.45,14.45,0,0,1,915.7,463Z"/><path class="3c0d74c5-f4ab-4166-b8b3-67708c37a919" d="M942.79,470.86h0c4.44,0,7.69,5.13,4.14,9.79-4.66,3.55-9.79.3-9.79-4.14a5.65,5.65,0,0,1,5.65-5.65Z"/><path class="3c0d74c5-f4ab-4166-b8b3-67708c37a919" d="M979.8,471.63h-1a5.38,5.38,0,1,1-5.38,5.38,5.38,5.38,0,0,1,5.38-5.38h1Z"/><path class="3c0d74c5-f4ab-4166-b8b3-67708c37a919" d="M1011.72,468.8h0a8.38,8.38,0,1,1-8.38,8.38,8.38,8.38,0,0,1,8.38-8.38Z"/><path class="3c0d74c5-f4ab-4166-b8b3-67708c37a919" d="M1046.64,473.62h0a2.89,2.89,0,1,1-2.89,2.89,2.89,2.89,0,0,1,2.89-2.89Z"/><path class="3c0d74c5-f4ab-4166-b8b3-67708c37a919" d="M1085.79,474.42h0a2.43,2.43,0,1,1-2.43,2.43,2.43,2.43,0,0,1,2.43-2.43Z"/><path class="3c0d74c5-f4ab-4166-b8b3-67708c37a919" d="M1208.48,465h0a11.38,11.38,0,1,1-11.38,11.38A11.38,11.38,0,0,1,1208.48,465Z"/><path class="3c0d74c5-f4ab-4166-b8b3-67708c37a919" d="M1242.81,472.19v-.35a4,4,0,1,1-4,4,4,4,0,0,1,4-4h0Z"/><path class="3c0d74c5-f4ab-4166-b8b3-67708c37a919" d="M1430.48,358.16A120.64,120.64,0,1,1,1309.84,478.8a120.64,120.64,0,0,1,120.64-120.64h0"/><path class="3c0d74c5-f4ab-4166-b8b3-67708c37a919" d="M1538.77,473.07h0a3.29,3.29,0,1,1-3.29,3.29,3.29,3.29,0,0,1,3.29-3.29Z"/><path class="3c0d74c5-f4ab-4166-b8b3-67708c37a919" d="M1567.48,471.33h0a4.59,4.59,0,0,1,4.59,4.57,4.67,4.67,0,0,1-4.62,4.62,4.59,4.59,0,0,1,0-9.19Z"/><path class="3c0d74c5-f4ab-4166-b8b3-67708c37a919" d="M1404.31,470.13h0a5.69,5.69,0,1,1-5.69,5.69,5.69,5.69,0,0,1,5.69-5.69Z"/><path class="3c0d74c5-f4ab-4166-b8b3-67708c37a919" d="M1366.56,472.87h0a5.29,5.29,0,1,1-5.29,5.29,5.29,5.29,0,0,1,5.29-5.29Z"/><path class="3c0d74c5-f4ab-4166-b8b3-67708c37a919" d="M1354.58,473.51h0a3.9,3.9,0,1,1-3.9,3.9,3.9,3.9,0,0,1,3.9-3.9Z"/><path class="3c0d74c5-f4ab-4166-b8b3-67708c37a919" d="M1224,469.11l-.39-.48a8.55,8.55,0,1,1-8.55,8.55,8.55,8.55,0,0,1,8.55-8.55h0Z"/><path class="3c0d74c5-f4ab-4166-b8b3-67708c37a919" d="M1021.66,472.21h0a4.15,4.15,0,1,1-4.15,4.15,4.15,4.15,0,0,1,4.15-4.15Z"/><path class="3c0d74c5-f4ab-4166-b8b3-67708c37a919" d="M690.33,477.14a.7.7,0,1,1-.7.7.7.7,0,0,1,.7-.7h0"/></g><g class="2afb6197-363d-4144-9564-c2f5107e406f"><path class="d82cef42-7ec8-4cc1-bfac-53b127b5beec" d="M44,686.42a15.93,15.93,0,1,1-15.93,15.93A15.93,15.93,0,0,1,44,686.42h0"/><path class="d82cef42-7ec8-4cc1-bfac-53b127b5beec" d="M76.09,702.07v-.65a.65.65,0,1,1-.65.65.65.65,0,0,1,.65-.65h0Z"/><path class="d82cef42-7ec8-4cc1-bfac-53b127b5beec" d="M143.34,699.66a3,3,0,1,1-3,3,3,3,0,0,1,3-3h0"/><path class="d82cef42-7ec8-4cc1-bfac-53b127b5beec" d="M688.34,699.34a3.59,3.59,0,1,1-3.59,3.59,3.59,3.59,0,0,1,3.59-3.59h0"/><path class="d82cef42-7ec8-4cc1-bfac-53b127b5beec" d="M726.61,691.93a10.28,10.28,0,1,1-10.28,10.28,10.28,10.28,0,0,1,10.28-10.28h0"/><path class="d82cef42-7ec8-4cc1-bfac-53b127b5beec" d="M764.41,698.6c3.4,0,5.89,3.93,3.17,7.5-3.57,2.72-7.5.23-7.5-3.17a4.33,4.33,0,0,1,4.33-4.33h0"/><path class="d82cef42-7ec8-4cc1-bfac-53b127b5beec" d="M773.9,700c2.32,0,4,2.68,2.17,5.12-2.44,1.86-5.12.16-5.12-2.17a3,3,0,0,1,3-3h0"/><path class="d82cef42-7ec8-4cc1-bfac-53b127b5beec" d="M914.75,693.19a9.65,9.65,0,1,1-9.65,9.65,9.65,9.65,0,0,1,9.65-9.65h0"/><path class="d82cef42-7ec8-4cc1-bfac-53b127b5beec" d="M943.12,699.63a4.7,4.7,0,1,1-4.7,4.7,4.7,4.7,0,0,1,4.7-4.7h0"/><path class="d82cef42-7ec8-4cc1-bfac-53b127b5beec" d="M978.67,699.06a4.28,4.28,0,1,1-4.28,4.28,4.28,4.28,0,0,1,4.28-4.28h0"/><path class="d82cef42-7ec8-4cc1-bfac-53b127b5beec" d="M1010.89,700.49a3.47,3.47,0,1,1-3.47,3.47,3.47,3.47,0,0,1,3.47-3.47h0"/><path class="d82cef42-7ec8-4cc1-bfac-53b127b5beec" d="M1021.09,702.09a1.71,1.71,0,1,1-1.71,1.71,1.71,1.71,0,0,1,1.71-1.71h0"/><path class="d82cef42-7ec8-4cc1-bfac-53b127b5beec" d="M1046.09,701.77h0a2,2,0,1,1-2,2,2,2,0,0,1,2-2Z"/><path class="d82cef42-7ec8-4cc1-bfac-53b127b5beec" d="M1086.28,699.89h0a3.92,3.92,0,1,1-3.92,3.92,3.92,3.92,0,0,1,3.92-3.92Z"/><path class="d82cef42-7ec8-4cc1-bfac-53b127b5beec" d="M1205.93,694.69h0a8.82,8.82,0,1,1-8.82,8.82,8.82,8.82,0,0,1,8.82-8.82Z"/><path class="d82cef42-7ec8-4cc1-bfac-53b127b5beec" d="M1224.65,700.52h0a2.41,2.41,0,1,1-2.41,2.41,2.41,2.41,0,0,1,2.41-2.41Z"/><path class="d82cef42-7ec8-4cc1-bfac-53b127b5beec" d="M1243.08,702.21a.65.65,0,1,1-.65.65.65.65,0,0,1,.65-.65h0"/><path class="d82cef42-7ec8-4cc1-bfac-53b127b5beec" d="M1353.8,701.38h0a3,3,0,1,1-3,3,3,3,0,0,1,3-3Z"/><path class="d82cef42-7ec8-4cc1-bfac-53b127b5beec" d="M1427.23,634.21h0a68.64,68.64,0,1,1-68.64,68.64,68.64,68.64,0,0,1,68.64-68.64Z"/><path class="d82cef42-7ec8-4cc1-bfac-53b127b5beec" d="M1538.86,702.73a1.12,1.12,0,1,1-1.12,1.12,1.12,1.12,0,0,1,1.12-1.12h0"/><path class="d82cef42-7ec8-4cc1-bfac-53b127b5beec" d="M1565.59,703.95v-3.23a3.23,3.23,0,1,1-3.23,3.23,3.23,3.23,0,0,1,3.23-3.23h0Z"/><path class="d82cef42-7ec8-4cc1-bfac-53b127b5beec" d="M1404.59,699.48h0a4.52,4.52,0,1,1-4.52,4.52,4.52,4.52,0,0,1,4.52-4.52Z"/><path class="d82cef42-7ec8-4cc1-bfac-53b127b5beec" d="M1366.25,699.87h0a3.47,3.47,0,1,1-3.47,3.47,3.47,3.47,0,0,1,3.47-3.47Z"/></g><line class="c5b9bfac-dd97-45a6-a0da-d04160e321ce" x1="726.61" y1="361.86" x2="726.61" y2="1167"/></svg>