<svg id="chart-container" xmlns="http://www.w3.org/2000/svg" viewBox="0 0 800 700"><defs><style>@import url('https://fonts.googleapis.com/css?family=Open+Sans');.cls-1,.cls-9{fill:#004182;}.cls-1{stroke:#004182;}.cls-10,.cls-2{fill:#67a9cf;}.cls-2{stroke:#67a9cf;}.cls-3{fill:#c6c6c6;stroke:#c6c6c6;}.cls-11,.cls-4{fill:#ef8a62;}.cls-4{stroke:#ef8a62;}.cls-12,.cls-5{fill:#b2182b;}.cls-5{stroke:#b2182b;}.cls-6{font-size:32px;fill:#323232;font-family:OpenSans-Bold, Open Sans;font-weight:700;}.cls-7{font-size:20px;}.cls-7,.cls-8{fill:#757575;}.cls-10,.cls-11,.cls-12,.cls-13,.cls-7,.cls-8,.cls-9{font-family:OpenSans, Open Sans;}.cls-8{font-size:25px;}.cls-10,.cls-11,.cls-12,.cls-13,.cls-9{font-size:23px;}.cls-13{fill:#a0a0a0;}</style></defs><title>2018.10_CamaraRepresentantes</title><circle class="cls-1" cx="238.49" cy="597.9" r="9.73"/><circle class="cls-1" cx="217.36" cy="601.63" r="9.73"/><circle class="cls-1" cx="196.23" cy="605.35" r="9.73"/><circle class="cls-1" cx="175.11" cy="609.08" r="9.73"/><circle class="cls-1" cx="153.98" cy="612.8" r="9.73"/><circle class="cls-1" cx="132.85" cy="616.53" r="9.73"/><circle class="cls-1" cx="111.72" cy="620.25" r="9.73"/><circle class="cls-1" cx="90.59" cy="623.98" r="9.73"/><circle class="cls-1" cx="69.46" cy="627.71" r="9.73"/><circle class="cls-1" cx="48.33" cy="631.43" r="9.73"/><circle class="cls-1" cx="27.21" cy="635.16" r="9.73"/><circle class="cls-1" cx="23.83" cy="611.81" r="9.73"/><circle class="cls-1" cx="45.11" cy="609" r="9.73"/><circle class="cls-1" cx="66.25" cy="604.96" r="9.73"/><circle class="cls-1" cx="87.45" cy="601.35" r="9.73"/><circle class="cls-1" cx="108.65" cy="597.76" r="9.73"/><circle class="cls-1" cx="129.81" cy="593.64" r="9.73"/><circle class="cls-1" cx="151.04" cy="590.05" r="9.73"/><circle class="cls-1" cx="172.27" cy="586.49" r="9.73"/><circle class="cls-1" cx="193.49" cy="582.23" r="9.73"/><circle class="cls-1" cx="214.78" cy="578.67" r="9.73"/><circle class="cls-1" cx="21.93" cy="588.29" r="9.73"/><circle class="cls-1" cx="43.31" cy="586.41" r="9.73"/><circle class="cls-1" cx="64.6" cy="582.05" r="9.73"/><circle class="cls-1" cx="236.1" cy="575.15" r="9.73"/><circle class="cls-1" cx="85.95" cy="578.56" r="9.73"/><circle class="cls-1" cx="107.33" cy="575.1" r="9.73"/><circle class="cls-1" cx="128.73" cy="570.58" r="9.73"/><circle class="cls-1" cx="150.19" cy="567.13" r="9.73"/><circle class="cls-1" cx="21.48" cy="564.7" r="9.73"/><circle class="cls-1" cx="42.95" cy="563.76" r="9.73"/><circle class="cls-1" cx="171.71" cy="563.73" r="9.73"/><circle class="cls-1" cx="64.52" cy="559.09" r="9.73"/><circle class="cls-1" cx="86.12" cy="555.72" r="9.73"/><circle class="cls-1" cx="193.36" cy="558.94" r="9.73"/><circle class="cls-1" cx="107.77" cy="552.4" r="9.73"/><circle class="cls-1" cx="215.06" cy="555.56" r="9.73"/><circle class="cls-1" cx="22.51" cy="541.13" r="9.73"/><circle class="cls-1" cx="44.03" cy="541.12" r="9.73"/><circle class="cls-1" cx="129.61" cy="547.51" r="9.73"/><circle class="cls-1" cx="66.02" cy="536.17" r="9.73"/><circle class="cls-1" cx="151.46" cy="544.22" r="9.73"/><circle class="cls-1" cx="236.9" cy="552.28" r="9.73"/><circle class="cls-1" cx="87.94" cy="532.95" r="9.73"/><circle class="cls-1" cx="173.41" cy="541.03" r="9.73"/><circle class="cls-1" cx="109.97" cy="529.81" r="9.73"/><circle class="cls-1" cx="25.01" cy="517.67" r="9.73"/><circle class="cls-1" cx="46.54" cy="518.6" r="9.73"/><circle class="cls-1" cx="195.84" cy="535.79" r="9.73"/><circle class="cls-1" cx="132.46" cy="524.59" r="9.73"/><circle class="cls-1" cx="69.07" cy="513.4" r="9.73"/><circle class="cls-1" cx="91.42" cy="510.37" r="9.73"/><circle class="cls-1" cx="154.82" cy="521.53" r="9.73"/><circle class="cls-1" cx="218.22" cy="532.68" r="9.73"/><circle class="cls-1" cx="28.96" cy="494.42" r="9.73"/><circle class="cls-1" cx="50.48" cy="496.29" r="9.73"/><circle class="cls-1" cx="113.91" cy="507.45" r="9.73"/><circle class="cls-1" cx="177.36" cy="518.61" r="9.73"/><circle class="cls-1" cx="73.68" cy="490.9" r="9.73"/><circle class="cls-1" cx="240.87" cy="529.75" r="9.73"/><circle class="cls-1" cx="137.24" cy="502" r="9.73"/><circle class="cls-1" cx="96.52" cy="488.11" r="9.73"/><circle class="cls-1" cx="34.35" cy="471.45" r="9.73"/><circle class="cls-1" cx="55.82" cy="474.27" r="9.73"/><circle class="cls-1" cx="200.91" cy="513.06" r="9.73"/><circle class="cls-1" cx="160.24" cy="499.24" r="9.73"/><circle class="cls-1" cx="119.57" cy="485.47" r="9.73"/><circle class="cls-1" cx="79.81" cy="468.77" r="9.73"/><circle class="cls-1" cx="224.2" cy="510.36" r="9.73"/><circle class="cls-1" cx="183.53" cy="496.69" r="9.73"/><circle class="cls-1" cx="41.17" cy="448.86" r="9.73"/><circle class="cls-1" cx="62.55" cy="452.63" r="9.73"/><circle class="cls-1" cx="103.23" cy="466.27" r="9.73"/><circle class="cls-1" cx="143.92" cy="479.9" r="9.73"/><circle class="cls-1" cx="126.92" cy="463.99" r="9.73"/><circle class="cls-1" cx="87.45" cy="447.11" r="9.73"/><circle class="cls-1" cx="167.69" cy="477.54" r="9.73"/><circle class="cls-1" cx="247.94" cy="507.99" r="9.73"/><circle class="cls-1" cx="49.37" cy="426.74" r="9.73"/><circle class="cls-1" cx="208.51" cy="491.05" r="9.73"/><circle class="cls-1" cx="70.64" cy="431.46" r="9.73"/><circle class="cls-1" cx="111.51" cy="444.98" r="9.73"/><circle class="cls-1" cx="152.46" cy="458.45" r="9.73"/><circle class="cls-1" cx="191.85" cy="475.5" r="9.73"/><circle class="cls-1" cx="96.54" cy="426.02" r="9.73"/><circle class="cls-1" cx="135.91" cy="443.14" r="9.73"/><circle class="cls-1" cx="232.91" cy="488.96" r="9.73"/><circle class="cls-1" cx="58.94" cy="405.18" r="9.73"/><circle class="cls-1" cx="80.05" cy="410.85" r="9.73"/><circle class="cls-1" cx="177.1" cy="456.62" r="9.73"/><circle class="cls-1" cx="121.32" cy="424.35" r="9.73"/><circle class="cls-1" cx="218.53" cy="470.03" r="9.73"/><circle class="cls-1" cx="162.8" cy="437.81" r="9.73"/><circle class="cls-1" cx="107.06" cy="405.6" r="9.73"/><circle class="cls-1" cx="69.84" cy="384.25" r="9.73"/><circle class="cls-1" cx="257.97" cy="487.42" r="9.73"/><circle class="cls-1" cx="202.23" cy="455.24" r="9.73"/><circle class="cls-1" cx="146.49" cy="423.06" r="9.73"/><circle class="cls-1" cx="90.75" cy="390.88" r="9.73"/><circle class="cls-1" cx="132.59" cy="404.48" r="9.73"/><circle class="cls-1" cx="188.39" cy="436.65" r="9.73"/><circle class="cls-1" cx="244.21" cy="468.81" r="9.73"/><circle class="cls-1" cx="82.01" cy="364.04" r="9.73"/><circle class="cls-1" cx="118.95" cy="385.95" r="9.73"/><circle class="cls-1" cx="102.7" cy="371.62" r="9.73"/><circle class="cls-1" cx="174.85" cy="418.11" r="9.73"/><circle class="cls-1" cx="158.6" cy="403.85" r="9.73"/><circle class="cls-1" cx="230.84" cy="450.27" r="9.73"/><circle class="cls-1" cx="214.58" cy="436.12" r="9.73"/><circle class="cls-1" cx="145.29" cy="385.49" r="9.73"/><circle class="cls-1" cx="95.42" cy="344.63" r="9.73"/><circle class="cls-1" cx="132.16" cy="367.16" r="9.73"/><circle class="cls-1" cx="115.84" cy="353.17" r="9.73"/><circle class="cls-1" cx="201.46" cy="417.8" r="9.73"/><circle class="cls-1" cx="270.77" cy="468.45" r="9.73"/><circle class="cls-1" cx="188.53" cy="399.51" r="9.73"/><circle class="cls-1" cx="172.15" cy="385.65" r="9.73"/><circle class="cls-1" cx="257.93" cy="450.21" r="9.73"/><circle class="cls-1" cx="159.32" cy="367.47" r="9.73"/><circle class="cls-1" cx="110.02" cy="326.1" r="9.73"/><circle class="cls-1" cx="130.13" cy="335.58" r="9.73"/><circle class="cls-1" cx="146.62" cy="349.31" r="9.73"/><circle class="cls-1" cx="228.78" cy="418.32" r="9.73"/><circle class="cls-1" cx="245.3" cy="432.02" r="9.73"/><circle class="cls-1" cx="216.2" cy="400.23" r="9.73"/><circle class="cls-1" cx="187.08" cy="368.54" r="9.73"/><circle class="cls-1" cx="125.74" cy="308.51" r="9.73"/><circle class="cls-1" cx="203.74" cy="382.15" r="9.73"/><circle class="cls-1" cx="174.63" cy="350.52" r="9.73"/><circle class="cls-1" cx="145.5" cy="318.93" r="9.73"/><circle class="cls-1" cx="162.26" cy="332.5" r="9.73"/><circle class="cls-1" cx="286.08" cy="451.45" r="9.73"/><circle class="cls-1" cx="273.86" cy="433.47" r="9.73"/><circle class="cls-1" cx="244.67" cy="402.02" r="9.73"/><circle class="cls-1" cx="142.52" cy="291.93" r="9.73"/><circle class="cls-1" cx="203.28" cy="352.65" r="9.73"/><circle class="cls-1" cx="232.5" cy="384.08" r="9.73"/><circle class="cls-1" cx="261.72" cy="415.5" r="9.73"/><circle class="cls-1" cx="161.9" cy="303.3" r="9.73"/><circle class="cls-1" cx="191.13" cy="334.72" r="9.73"/><circle class="cls-1" cx="220.38" cy="366.14" r="9.73"/><circle class="cls-1" cx="179.02" cy="316.79" r="9.73"/><circle class="cls-1" cx="160.31" cy="276.43" r="9.73"/><circle class="cls-1" cx="179.26" cy="288.73" r="9.73"/><circle class="cls-1" cx="220.68" cy="338.05" r="9.73"/><circle class="cls-1" cx="208.74" cy="320.17" r="9.73"/><circle class="cls-1" cx="196.82" cy="302.27" r="9.73"/><circle class="cls-1" cx="262.11" cy="387.39" r="9.73"/><circle class="cls-1" cx="250.21" cy="369.5" r="9.73"/><circle class="cls-1" cx="238.32" cy="351.6" r="9.73"/><circle class="cls-1" cx="303.6" cy="436.74" r="9.73"/><circle class="cls-1" cx="291.74" cy="418.85" r="9.73"/><circle class="cls-1" cx="179.03" cy="262.07" r="9.73"/><circle class="cls-1" cx="279.89" cy="400.94" r="9.73"/><circle class="cls-1" cx="197.51" cy="275.3" r="9.73"/><circle class="cls-1" cx="239.14" cy="324.85" r="9.73"/><circle class="cls-1" cx="227.35" cy="306.93" r="9.73"/><circle class="cls-1" cx="215.56" cy="289" r="9.73"/><circle class="cls-1" cx="198.6" cy="248.9" r="9.73"/><circle class="cls-1" cx="257.42" cy="338.64" r="9.73"/><circle class="cls-1" cx="269.18" cy="356.6" r="9.73"/><circle class="cls-1" cx="280.92" cy="374.56" r="9.73"/><circle class="cls-1" cx="216.57" cy="263.04" r="9.73"/><circle class="cls-1" cx="235.17" cy="277.05" r="9.73"/><circle class="cls-1" cx="246.88" cy="295.08" r="9.73"/><circle class="cls-1" cx="299.59" cy="388.51" r="9.73"/><circle class="cls-1" cx="258.58" cy="313.12" r="9.73"/><circle class="cls-1" cx="311.31" cy="406.55" r="9.73"/><circle class="cls-1" cx="218.96" cy="236.98" r="9.73"/><circle class="cls-1" cx="323.01" cy="424.62" r="9.73"/><circle class="cls-1" cx="236.37" cy="252.03" r="9.73"/><circle class="cls-1" cx="277.57" cy="327.35" r="9.73"/><circle class="cls-1" cx="289.25" cy="345.49" r="9.73"/><circle class="cls-1" cx="300.92" cy="363.67" r="9.73"/><circle class="cls-1" cx="255.56" cy="266.46" r="9.73"/><circle class="cls-1" cx="267.22" cy="284.68" r="9.73"/><circle class="cls-1" cx="240.02" cy="226.34" r="9.73"/><circle class="cls-1" cx="278.87" cy="302.93" r="9.73"/><circle class="cls-1" cx="256.83" cy="242.29" r="9.73"/><circle class="cls-1" cx="320.55" cy="378.38" r="9.73"/><circle class="cls-1" cx="298.59" cy="317.82" r="9.73"/><circle class="cls-1" cx="276.61" cy="257.29" r="9.73"/><circle class="cls-1" cx="332.25" cy="396.79" r="9.73"/><circle class="cls-1" cx="261.7" cy="217.04" r="9.73"/><circle class="cls-1" cx="310.26" cy="336.28" r="9.73"/><circle class="cls-1" cx="288.26" cy="275.78" r="9.73"/><circle class="cls-1" cx="343.91" cy="415.31" r="9.73"/><circle class="cls-1" cx="321.9" cy="354.83" r="9.73"/><circle class="cls-1" cx="299.88" cy="294.35" r="9.73"/><circle class="cls-1" cx="277.87" cy="233.87" r="9.73"/><circle class="cls-1" cx="283.92" cy="209.11" r="9.73"/><circle class="cls-1" cx="298.25" cy="249.58" r="9.73"/><circle class="cls-1" cx="320.36" cy="310.1" r="9.73"/><circle class="cls-1" cx="309.89" cy="268.44" r="9.73"/><circle class="cls-1" cx="299.4" cy="226.8" r="9.73"/><circle class="cls-1" cx="342.52" cy="370.66" r="9.73"/><circle class="cls-1" cx="332.02" cy="329.03" r="9.73"/><circle class="cls-1" cx="321.5" cy="287.42" r="9.73"/><circle class="cls-1" cx="354.24" cy="389.7" r="9.73"/><circle class="cls-1" cx="343.65" cy="348.12" r="9.73"/><circle class="cls-1" cx="306.59" cy="202.58" r="9.73"/><circle class="cls-1" cx="320.36" cy="243.37" r="9.73"/><circle class="cls-1" cx="321.33" cy="221.11" r="9.73"/><circle class="cls-1" cx="332" cy="262.69" r="9.73"/><circle class="cls-1" cx="342.7" cy="304.27" r="9.73"/><circle class="cls-1" cx="365.9" cy="409.01" r="9.73"/><circle class="cls-1" cx="343.59" cy="282.18" r="9.73"/><circle class="cls-1" cx="329.62" cy="197.48" r="9.73"/><circle class="cls-1" cx="354.36" cy="323.81" r="9.73"/><circle class="cls-2" cx="342.85" cy="238.69" r="9.73"/><circle class="cls-2" cx="365.22" cy="365.46" r="9.73"/><circle class="cls-2" cx="343.58" cy="216.82" r="9.73"/><circle class="cls-2" cx="365.96" cy="343.61" r="9.73"/><circle class="cls-2" cx="354.47" cy="258.56" r="9.73"/><circle class="cls-2" cx="365.45" cy="300.36" r="9.73"/><circle class="cls-2" cx="376.94" cy="385.41" r="9.73"/><circle class="cls-2" cx="352.93" cy="193.82" r="9.73"/><circle class="cls-2" cx="366.02" cy="278.67" r="9.73"/><circle class="cls-2" cx="365.6" cy="235.55" r="9.73"/><circle class="cls-2" cx="366.06" cy="213.95" r="9.73"/><circle class="cls-2" cx="377.08" cy="320.66" r="9.73"/><circle class="cls-2" cx="377.17" cy="256.07" r="9.73"/><circle class="cls-2" cx="388.56" cy="405.82" r="9.73"/><circle class="cls-2" cx="376.42" cy="191.61" r="9.73"/><circle class="cls-2" cx="388.36" cy="362.84" r="9.73"/><circle class="cls-2" cx="388.62" cy="341.34" r="9.73"/><circle class="cls-2" cx="388.46" cy="298.4" r="9.73"/><circle class="cls-2" cx="388.65" cy="276.92" r="9.73"/><circle class="cls-2" cx="388.52" cy="233.98" r="9.73"/><circle class="cls-2" cx="388.67" cy="212.51" r="9.73"/><circle class="cls-2" cx="400" cy="383.97" r="9.73"/><circle class="cls-2" cx="400" cy="319.6" r="9.73"/><circle class="cls-2" cx="400" cy="255.24" r="9.73"/><circle class="cls-2" cx="400" cy="190.88" r="9.73"/><circle class="cls-2" cx="411.33" cy="212.51" r="9.73"/><circle class="cls-2" cx="411.48" cy="233.98" r="9.73"/><circle class="cls-2" cx="411.35" cy="276.92" r="9.73"/><circle class="cls-2" cx="411.54" cy="298.4" r="9.73"/><circle class="cls-3" cx="411.38" cy="341.34" r="9.73"/><circle class="cls-3" cx="411.64" cy="362.84" r="9.73"/><circle class="cls-3" cx="423.58" cy="191.61" r="9.73"/><circle class="cls-3" cx="411.44" cy="405.82" r="9.73"/><circle class="cls-3" cx="422.83" cy="256.07" r="9.73"/><circle class="cls-3" cx="422.92" cy="320.66" r="9.73"/><circle class="cls-3" cx="433.94" cy="213.95" r="9.73"/><circle class="cls-3" cx="434.4" cy="235.55" r="9.73"/><circle class="cls-3" cx="433.98" cy="278.67" r="9.73"/><circle class="cls-3" cx="423.06" cy="385.41" r="9.73"/><circle class="cls-3" cx="447.07" cy="193.82" r="9.73"/><circle class="cls-3" cx="434.55" cy="300.36" r="9.73"/><circle class="cls-3" cx="445.53" cy="258.56" r="9.73"/><circle class="cls-3" cx="434.04" cy="343.61" r="9.73"/><circle class="cls-3" cx="456.42" cy="216.82" r="9.73"/><circle class="cls-3" cx="434.78" cy="365.46" r="9.73"/><circle class="cls-3" cx="457.15" cy="238.69" r="9.73"/><circle class="cls-3" cx="445.64" cy="323.81" r="9.73"/><circle class="cls-3" cx="470.38" cy="197.48" r="9.73"/><circle class="cls-3" cx="456.41" cy="282.18" r="9.73"/><circle class="cls-3" cx="434.1" cy="409.01" r="9.73"/><circle class="cls-3" cx="457.3" cy="304.27" r="9.73"/><circle class="cls-3" cx="468" cy="262.69" r="9.73"/><circle class="cls-3" cx="478.67" cy="221.11" r="9.73"/><circle class="cls-3" cx="479.64" cy="243.37" r="9.73"/><circle class="cls-3" cx="445.76" cy="389.7" r="9.73"/><circle class="cls-3" cx="456.35" cy="348.12" r="9.73"/><circle class="cls-3" cx="493.41" cy="202.58" r="9.73"/><circle class="cls-3" cx="478.5" cy="287.42" r="9.73"/><circle class="cls-4" cx="467.98" cy="329.03" r="9.73"/><circle class="cls-4" cx="457.48" cy="370.66" r="9.73"/><circle class="cls-4" cx="500.6" cy="226.8" r="9.73"/><circle class="cls-4" cx="490.11" cy="268.44" r="9.73"/><circle class="cls-4" cx="479.64" cy="310.1" r="9.73"/><circle class="cls-4" cx="501.75" cy="249.58" r="9.73"/><circle class="cls-4" cx="516.08" cy="209.11" r="9.73"/><circle class="cls-4" cx="456.09" cy="415.31" r="9.73"/><circle class="cls-4" cx="478.1" cy="354.83" r="9.73"/><circle class="cls-4" cx="500.12" cy="294.35" r="9.73"/><circle class="cls-4" cx="522.13" cy="233.87" r="9.73"/><circle class="cls-4" cx="511.74" cy="275.78" r="9.73"/><circle class="cls-4" cx="489.74" cy="336.28" r="9.73"/><circle class="cls-4" cx="467.75" cy="396.79" r="9.73"/><circle class="cls-4" cx="538.3" cy="217.04" r="9.73"/><circle class="cls-4" cx="523.39" cy="257.29" r="9.73"/><circle class="cls-4" cx="501.41" cy="317.82" r="9.73"/><circle class="cls-4" cx="479.45" cy="378.38" r="9.73"/><circle class="cls-4" cx="543.17" cy="242.29" r="9.73"/><circle class="cls-4" cx="521.13" cy="302.93" r="9.73"/><circle class="cls-4" cx="532.78" cy="284.68" r="9.73"/><circle class="cls-4" cx="559.98" cy="226.34" r="9.73"/><circle class="cls-4" cx="544.44" cy="266.46" r="9.73"/><circle class="cls-4" cx="499.08" cy="363.67" r="9.73"/><circle class="cls-4" cx="510.75" cy="345.49" r="9.73"/><circle class="cls-4" cx="522.43" cy="327.35" r="9.73"/><circle class="cls-4" cx="563.63" cy="252.03" r="9.73"/><circle class="cls-4" cx="476.99" cy="424.62" r="9.73"/><circle class="cls-4" cx="488.69" cy="406.55" r="9.73"/><circle class="cls-4" cx="581.04" cy="236.98" r="9.73"/><circle class="cls-4" cx="541.42" cy="313.12" r="9.73"/><circle class="cls-4" cx="500.41" cy="388.51" r="9.73"/><circle class="cls-4" cx="553.12" cy="295.08" r="9.73"/><circle class="cls-4" cx="564.83" cy="277.05" r="9.73"/><circle class="cls-4" cx="583.43" cy="263.04" r="9.73"/><circle class="cls-4" cx="519.08" cy="374.56" r="9.73"/><circle class="cls-4" cx="530.82" cy="356.6" r="9.73"/><circle class="cls-4" cx="542.58" cy="338.64" r="9.73"/><circle class="cls-4" cx="601.4" cy="248.9" r="9.73"/><circle class="cls-4" cx="560.86" cy="324.85" r="9.73"/><circle class="cls-4" cx="572.65" cy="306.93" r="9.73"/><circle class="cls-4" cx="584.44" cy="289" r="9.73"/><circle class="cls-4" cx="602.49" cy="275.3" r="9.73"/><circle class="cls-4" cx="520.11" cy="400.94" r="9.73"/><circle class="cls-4" cx="508.26" cy="418.85" r="9.73"/><circle class="cls-4" cx="620.97" cy="262.07" r="9.73"/><circle class="cls-4" cx="496.4" cy="436.74" r="9.73"/><circle class="cls-4" cx="561.68" cy="351.6" r="9.73"/><circle class="cls-4" cx="549.79" cy="369.5" r="9.73"/><circle class="cls-4" cx="537.89" cy="387.39" r="9.73"/><circle class="cls-4" cx="603.18" cy="302.27" r="9.73"/><circle class="cls-4" cx="591.26" cy="320.17" r="9.73"/><circle class="cls-4" cx="579.32" cy="338.05" r="9.73"/><circle class="cls-4" cx="620.74" cy="288.73" r="9.73"/><circle class="cls-4" cx="639.69" cy="276.43" r="9.73"/><circle class="cls-4" cx="620.98" cy="316.79" r="9.73"/><circle class="cls-4" cx="579.62" cy="366.14" r="9.73"/><circle class="cls-4" cx="608.87" cy="334.72" r="9.73"/><circle class="cls-4" cx="638.1" cy="303.3" r="9.73"/><circle class="cls-4" cx="538.28" cy="415.5" r="9.73"/><circle class="cls-4" cx="567.5" cy="384.08" r="9.73"/><circle class="cls-4" cx="596.72" cy="352.65" r="9.73"/><circle class="cls-5" cx="526.14" cy="433.47" r="9.73"/><circle class="cls-4" cx="555.33" cy="402.02" r="9.73"/><circle class="cls-5" cx="657.48" cy="291.93" r="9.73"/><circle class="cls-5" cx="513.92" cy="451.45" r="9.73"/><circle class="cls-5" cx="637.74" cy="332.5" r="9.73"/><circle class="cls-5" cx="654.5" cy="318.93" r="9.73"/><circle class="cls-5" cx="625.37" cy="350.52" r="9.73"/><circle class="cls-5" cx="596.26" cy="382.15" r="9.73"/><circle class="cls-5" cx="674.26" cy="308.51" r="9.73"/><circle class="cls-5" cx="612.92" cy="368.54" r="9.73"/><circle class="cls-5" cx="583.8" cy="400.23" r="9.73"/><circle class="cls-5" cx="554.7" cy="432.02" r="9.73"/><circle class="cls-5" cx="571.22" cy="418.32" r="9.73"/><circle class="cls-5" cx="653.38" cy="349.31" r="9.73"/><circle class="cls-5" cx="669.87" cy="335.58" r="9.73"/><circle class="cls-5" cx="542.07" cy="450.21" r="9.73"/><circle class="cls-5" cx="640.68" cy="367.47" r="9.73"/><circle class="cls-5" cx="689.98" cy="326.1" r="9.73"/><circle class="cls-5" cx="627.85" cy="385.65" r="9.73"/><circle class="cls-5" cx="611.47" cy="399.51" r="9.73"/><circle class="cls-5" cx="529.23" cy="468.45" r="9.73"/><circle class="cls-5" cx="598.54" cy="417.8" r="9.73"/><circle class="cls-5" cx="684.16" cy="353.17" r="9.73"/><circle class="cls-5" cx="667.84" cy="367.16" r="9.73"/><circle class="cls-5" cx="704.58" cy="344.63" r="9.73"/><circle class="cls-5" cx="654.71" cy="385.49" r="9.73"/><circle class="cls-5" cx="585.42" cy="436.12" r="9.73"/><circle class="cls-5" cx="569.16" cy="450.27" r="9.73"/><circle class="cls-5" cx="641.4" cy="403.85" r="9.73"/><circle class="cls-5" cx="625.15" cy="418.11" r="9.73"/><circle class="cls-5" cx="697.3" cy="371.62" r="9.73"/><circle class="cls-5" cx="681.05" cy="385.95" r="9.73"/><circle class="cls-5" cx="555.79" cy="468.81" r="9.73"/><circle class="cls-5" cx="717.99" cy="364.04" r="9.73"/><circle class="cls-5" cx="611.61" cy="436.65" r="9.73"/><circle class="cls-5" cx="667.41" cy="404.48" r="9.73"/><circle class="cls-5" cx="542.03" cy="487.42" r="9.73"/><circle class="cls-5" cx="597.77" cy="455.24" r="9.73"/><circle class="cls-5" cx="653.51" cy="423.06" r="9.73"/><circle class="cls-5" cx="709.25" cy="390.88" r="9.73"/><circle class="cls-5" cx="730.16" cy="384.25" r="9.73"/><circle class="cls-5" cx="692.94" cy="405.6" r="9.73"/><circle class="cls-5" cx="637.2" cy="437.81" r="9.73"/><circle class="cls-5" cx="581.47" cy="470.03" r="9.73"/><circle class="cls-5" cx="678.68" cy="424.35" r="9.73"/><circle class="cls-5" cx="622.9" cy="456.62" r="9.73"/><circle class="cls-5" cx="719.95" cy="410.85" r="9.73"/><circle class="cls-5" cx="567.09" cy="488.96" r="9.73"/><circle class="cls-5" cx="741.06" cy="405.18" r="9.73"/><circle class="cls-5" cx="664.09" cy="443.14" r="9.73"/><circle class="cls-5" cx="703.46" cy="426.02" r="9.73"/><circle class="cls-5" cx="608.15" cy="475.5" r="9.73"/><circle class="cls-5" cx="647.54" cy="458.45" r="9.73"/><circle class="cls-5" cx="688.49" cy="444.98" r="9.73"/><circle class="cls-5" cx="729.36" cy="431.46" r="9.73"/><circle class="cls-5" cx="591.49" cy="491.05" r="9.73"/><circle class="cls-5" cx="750.63" cy="426.74" r="9.73"/><circle class="cls-5" cx="552.06" cy="507.99" r="9.73"/><circle class="cls-5" cx="632.31" cy="477.54" r="9.73"/><circle class="cls-5" cx="712.55" cy="447.11" r="9.73"/><circle class="cls-5" cx="673.08" cy="463.99" r="9.73"/><circle class="cls-5" cx="656.08" cy="479.9" r="9.73"/><circle class="cls-5" cx="696.77" cy="466.27" r="9.73"/><circle class="cls-5" cx="737.45" cy="452.63" r="9.73"/><circle class="cls-5" cx="575.8" cy="510.36" r="9.73"/><circle class="cls-5" cx="616.47" cy="496.69" r="9.73"/><circle class="cls-5" cx="758.83" cy="448.86" r="9.73"/><circle class="cls-5" cx="720.19" cy="468.77" r="9.73"/><circle class="cls-5" cx="680.43" cy="485.47" r="9.73"/><circle class="cls-5" cx="639.76" cy="499.24" r="9.73"/><circle class="cls-5" cx="599.09" cy="513.06" r="9.73"/><circle class="cls-5" cx="744.18" cy="474.27" r="9.73"/><circle class="cls-5" cx="703.48" cy="488.11" r="9.73"/><circle class="cls-5" cx="765.65" cy="471.45" r="9.73"/><circle class="cls-5" cx="662.76" cy="502" r="9.73"/><circle class="cls-5" cx="559.13" cy="529.75" r="9.73"/><circle class="cls-5" cx="726.32" cy="490.9" r="9.73"/><circle class="cls-5" cx="622.64" cy="518.61" r="9.73"/><circle class="cls-5" cx="686.09" cy="507.45" r="9.73"/><circle class="cls-5" cx="749.52" cy="496.29" r="9.73"/><circle class="cls-5" cx="581.78" cy="532.68" r="9.73"/><circle class="cls-5" cx="771.04" cy="494.42" r="9.73"/><circle class="cls-5" cx="645.18" cy="521.53" r="9.73"/><circle class="cls-5" cx="708.58" cy="510.37" r="9.73"/><circle class="cls-5" cx="730.93" cy="513.4" r="9.73"/><circle class="cls-5" cx="667.54" cy="524.59" r="9.73"/><circle class="cls-5" cx="604.16" cy="535.79" r="9.73"/><circle class="cls-5" cx="753.46" cy="518.6" r="9.73"/><circle class="cls-5" cx="774.99" cy="517.67" r="9.73"/><circle class="cls-5" cx="690.03" cy="529.81" r="9.73"/><circle class="cls-5" cx="626.59" cy="541.03" r="9.73"/><circle class="cls-5" cx="712.06" cy="532.95" r="9.73"/><circle class="cls-5" cx="563.1" cy="552.28" r="9.73"/><circle class="cls-5" cx="648.54" cy="544.22" r="9.73"/><circle class="cls-5" cx="733.98" cy="536.17" r="9.73"/><circle class="cls-5" cx="670.39" cy="547.51" r="9.73"/><circle class="cls-5" cx="755.97" cy="541.12" r="9.73"/><circle class="cls-5" cx="584.94" cy="555.56" r="9.73"/><circle class="cls-5" cx="777.49" cy="541.13" r="9.73"/><circle class="cls-5" cx="692.23" cy="552.4" r="9.73"/><circle class="cls-5" cx="606.64" cy="558.94" r="9.73"/><circle class="cls-5" cx="713.88" cy="555.72" r="9.73"/><circle class="cls-5" cx="735.48" cy="559.09" r="9.73"/><circle class="cls-5" cx="628.29" cy="563.73" r="9.73"/><circle class="cls-5" cx="757.05" cy="563.76" r="9.73"/><circle class="cls-5" cx="778.52" cy="564.7" r="9.73"/><circle class="cls-5" cx="649.81" cy="567.13" r="9.73"/><circle class="cls-5" cx="671.27" cy="570.58" r="9.73"/><circle class="cls-5" cx="692.67" cy="575.1" r="9.73"/><circle class="cls-5" cx="714.05" cy="578.56" r="9.73"/><circle class="cls-5" cx="563.9" cy="575.15" r="9.73"/><circle class="cls-5" cx="735.4" cy="582.05" r="9.73"/><circle class="cls-5" cx="756.69" cy="586.41" r="9.73"/><circle class="cls-5" cx="585.22" cy="578.67" r="9.73"/><circle class="cls-5" cx="778.07" cy="588.29" r="9.73"/><circle class="cls-5" cx="606.51" cy="582.23" r="9.73"/><circle class="cls-5" cx="627.73" cy="586.49" r="9.73"/><circle class="cls-5" cx="648.96" cy="590.05" r="9.73"/><circle class="cls-5" cx="670.19" cy="593.64" r="9.73"/><circle class="cls-5" cx="691.35" cy="597.76" r="9.73"/><circle class="cls-5" cx="712.55" cy="601.35" r="9.73"/><circle class="cls-5" cx="733.75" cy="604.96" r="9.73"/><circle class="cls-5" cx="754.89" cy="609" r="9.73"/><circle class="cls-5" cx="776.17" cy="611.81" r="9.73"/><circle class="cls-5" cx="561.51" cy="597.9" r="9.73"/><circle class="cls-5" cx="582.64" cy="601.63" r="9.73"/><circle class="cls-5" cx="603.77" cy="605.35" r="9.73"/><circle class="cls-5" cx="624.89" cy="609.08" r="9.73"/><circle class="cls-5" cx="646.02" cy="612.8" r="9.73"/><circle class="cls-5" cx="667.15" cy="616.53" r="9.73"/><circle class="cls-5" cx="688.28" cy="620.25" r="9.73"/><circle class="cls-5" cx="709.41" cy="623.98" r="9.73"/><circle class="cls-5" cx="730.54" cy="627.71" r="9.73"/><circle class="cls-5" cx="751.67" cy="631.43" r="9.73"/><circle class="cls-5" cx="772.79" cy="635.16" r="9.73"/><text class="cls-6" transform="translate(31.88 34.32)">Composición de la Cámara de Representantes <tspan x="220.77" y="38.4">según los sondeos</tspan></text><text class="cls-7" transform="translate(8.55 692.82) rotate(-0.09)">Fuente: Ballotpedia</text><text class="cls-7" transform="translate(640.55 693.82) rotate(-0.09)">LA VANGUARDIA</text><text class="cls-8" transform="translate(352.7 551)">Mayoría<tspan x="25.86" y="30">218</tspan></text><text class="cls-9" transform="translate(6.55 122.82) rotate(-0.09)">Demócratas (180)</text><text class="cls-10" transform="translate(7.55 150.82) rotate(-0.09)">Potencialmente demócratas (29)</text><text class="cls-11" transform="translate(437.55 150.82) rotate(-0.09)">Potencialmente republicanos (39)</text><text class="cls-12" transform="translate(595.55 121.82) rotate(-0.09)">Republicanos (135)</text><text class="cls-13" transform="translate(6.55 181.82) rotate(-0.09)">En duda (29)</text></svg>