<svg id="fd754e9d-6553-4348-9696-4f9a9769e985" data-name="Capa 1" xmlns="http://www.w3.org/2000/svg" viewBox="0 0 532 438"><defs><style>.a2ecb536-f1f1-4af4-bd51-b7278330a401,.ec9f3d5d-599f-4150-ba38-61d55c68f226{fill:#efb21b;}.\31 2f0befa-6a5c-423c-a550-0a5b9598b512,.\31 ba2e1d7-e768-4148-86a4-c1d6465fc015,.\32 3561f11-ab07-4e55-b5ec-f4fd347361e5,.\32 a950c36-23a0-4fa2-8cb4-c1fd008ce15d,.\33 37df51b-22ba-4885-9c37-a742f5d722f4,.\36 4c8bae8-cca7-4a23-a374-e70aa3ea5649,.\36 87d5d2a-c324-42a6-8391-8f643464ab8d,.\37 7f6d569-6819-4086-968a-594b163c751a,.\39 327d9fc-e4eb-4db0-9eec-f5e66a798c94,.\39 ea40cef-6b41-4837-9b1a-9958186fa13a,.a2ecb536-f1f1-4af4-bd51-b7278330a401,.be503691-841b-4b20-b4f5-99f071b60c36,.cc06c54d-9652-4279-8e30-16137cd48413,.ec9f3d5d-599f-4150-ba38-61d55c68f226,.ee3b879a-bee9-491d-9926-d05e2f9e7caa{stroke:#fff;stroke-linejoin:round;stroke-width:1.6px;}.\31 2f0befa-6a5c-423c-a550-0a5b9598b512,.\31 ba2e1d7-e768-4148-86a4-c1d6465fc015,.\33 37df51b-22ba-4885-9c37-a742f5d722f4,.\36 4c8bae8-cca7-4a23-a374-e70aa3ea5649,.\37 7f6d569-6819-4086-968a-594b163c751a,.ec9f3d5d-599f-4150-ba38-61d55c68f226,.ee3b879a-bee9-491d-9926-d05e2f9e7caa{opacity:0.77;}.\36 87d5d2a-c324-42a6-8391-8f643464ab8d,.\37 7f6d569-6819-4086-968a-594b163c751a{fill:#3f4d78;}.\31 2f0befa-6a5c-423c-a550-0a5b9598b512,.\39 327d9fc-e4eb-4db0-9eec-f5e66a798c94{fill:#ffe600;}.\32 a950c36-23a0-4fa2-8cb4-c1fd008ce15d,.ee3b879a-bee9-491d-9926-d05e2f9e7caa{fill:#8e244f;}.\32 3561f11-ab07-4e55-b5ec-f4fd347361e5,.\33 37df51b-22ba-4885-9c37-a742f5d722f4{fill:#991d26;}.\36 4c8bae8-cca7-4a23-a374-e70aa3ea5649,.\39 ea40cef-6b41-4837-9b1a-9958186fa13a{fill:#d57928;}.\31 ba2e1d7-e768-4148-86a4-c1d6465fc015,.be503691-841b-4b20-b4f5-99f071b60c36{fill:#59a5a5;}.\38 ccfcf3a-a23c-420e-a74b-ce5896402867{font-size:26px;}.\34 63e21f7-f0c2-47ee-bc91-359ca14545c4,.\37 0a79946-f688-461b-9967-a2fcdf7bf44f,.\38 ccfcf3a-a23c-420e-a74b-ce5896402867{fill:#323232;}.\35 1670a78-e910-4523-8816-d9b01578a243,.\37 0a79946-f688-461b-9967-a2fcdf7bf44f,.\38 ccfcf3a-a23c-420e-a74b-ce5896402867,.\38 d00d2a6-47ea-49c6-9481-f3f1573bc24a,.afb27135-ced9-4769-ab89-210214f9d32d{font-family:Arial-BoldMT, Arial;}.\30 da7c389-5e2d-4090-bf17-6c3994bd7eac,.\33 971600a-d1ee-483a-aad9-7733e1be9a2d,.\34 e462fed-150e-4e6f-bfbd-3cb13f54d01b,.\37 0a79946-f688-461b-9967-a2fcdf7bf44f,.\38 ccfcf3a-a23c-420e-a74b-ce5896402867,.\38 d00d2a6-47ea-49c6-9481-f3f1573bc24a,.\39 2074238-d3f1-4308-ab21-23a02ab65300,.d0a6ccfa-1ada-472a-9593-00a29b6543e7,.e035af73-c55c-4e99-ab4e-13b7daa9dac8,.f3669a2e-5214-4f39-9aa5-7fc38452fee6{font-weight:700;}.\34 63e21f7-f0c2-47ee-bc91-359ca14545c4,.\35 1670a78-e910-4523-8816-d9b01578a243,.\37 c7053f3-04c8-42bf-955e-e4c21eff89bd{font-size:15px;}.\34 63e21f7-f0c2-47ee-bc91-359ca14545c4,.\34 8018379-ae44-493c-938b-46301d6b05cc,.\36 f13c725-4a70-4d02-83ed-93c9d9fb886e,.\37 c7053f3-04c8-42bf-955e-e4c21eff89bd,.\38 85b943e-8444-4cae-a61b-40b0820af06b,.b05438f5-59cb-48d1-93cd-cb8588dea7ec{font-family:ArialMT, Arial;}.\38 85b943e-8444-4cae-a61b-40b0820af06b,.afb27135-ced9-4769-ab89-210214f9d32d{font-size:13px;}.\35 1670a78-e910-4523-8816-d9b01578a243,.\37 c7053f3-04c8-42bf-955e-e4c21eff89bd,.\38 85b943e-8444-4cae-a61b-40b0820af06b,.\39 aa67920-57b0-4b84-889d-efe2d50577a7,.afb27135-ced9-4769-ab89-210214f9d32d{fill:#757575;}.\31 d60f0db-6355-420f-9144-af1dc1ede2be{fill:#283659;}.\36 e98d4bf-5358-4ae6-bd27-ba420fd7c84b,.cc06c54d-9652-4279-8e30-16137cd48413{fill:#fff;}.\34 e462fed-150e-4e6f-bfbd-3cb13f54d01b{letter-spacing:-0.02em;}.\30 3aa6d2d-6aa3-4ef3-9033-81b573c9338b,.\30 9db3d52-44f6-4c5a-9dfa-7710e139dca2,.\38 a595ce2-6048-43e2-884d-045ee96347c6{fill:none;stroke-miterlimit:10;}.\38 a595ce2-6048-43e2-884d-045ee96347c6{stroke:#757575;}.\30 3aa6d2d-6aa3-4ef3-9033-81b573c9338b,.\30 9db3d52-44f6-4c5a-9dfa-7710e139dca2{stroke:#323232;}.\30 3aa6d2d-6aa3-4ef3-9033-81b573c9338b{stroke-dasharray:5.14 5.14;}.\30 da7c389-5e2d-4090-bf17-6c3994bd7eac{letter-spacing:-0.02em;}.\33 971600a-d1ee-483a-aad9-7733e1be9a2d,.b05438f5-59cb-48d1-93cd-cb8588dea7ec{letter-spacing:0em;}.\36 f13c725-4a70-4d02-83ed-93c9d9fb886e,.d0a6ccfa-1ada-472a-9593-00a29b6543e7{letter-spacing:-0.07em;}.\32 3561f11-ab07-4e55-b5ec-f4fd347361e5,.\32 a950c36-23a0-4fa2-8cb4-c1fd008ce15d,.\36 87d5d2a-c324-42a6-8391-8f643464ab8d,.\39 327d9fc-e4eb-4db0-9eec-f5e66a798c94,.\39 ea40cef-6b41-4837-9b1a-9958186fa13a,.a2ecb536-f1f1-4af4-bd51-b7278330a401,.be503691-841b-4b20-b4f5-99f071b60c36{opacity:0.5;}.\37 0a79946-f688-461b-9967-a2fcdf7bf44f{font-size:19.42px;}.\39 2074238-d3f1-4308-ab21-23a02ab65300{letter-spacing:0em;}.e035af73-c55c-4e99-ab4e-13b7daa9dac8{letter-spacing:-0.02em;}</style></defs><title>2018.07_CEO</title><path class="ec9f3d5d-599f-4150-ba38-61d55c68f226" d="M127.3,308.92a134.65,134.65,0,0,1,24.31-127.44l72.62,60.08a40.39,40.39,0,0,0-7.29,38.23Z"/><path class="77f6d569-6819-4086-968a-594b163c751a" d="M151.61,181.48a134.65,134.65,0,0,1,90.61-48.18l9.2,93.8a40.39,40.39,0,0,0-27.18,14.45Z"/><path class="12f0befa-6a5c-423c-a550-0a5b9598b512" d="M242.21,133.31a134.65,134.65,0,0,1,33.74.94l-14.42,93.14a40.39,40.39,0,0,0-10.12-.28Z"/><path class="ee3b879a-bee9-491d-9926-d05e2f9e7caa" d="M276,134.25a134.65,134.65,0,0,1,32.44,9.3l-37.13,86.63a40.39,40.39,0,0,0-9.73-2.79Z"/><path class="337df51b-22ba-4885-9c37-a742f5d722f4" d="M308.4,143.55a134.65,134.65,0,0,1,57.52,46.91l-77.4,53.79a40.39,40.39,0,0,0-17.26-14.07Z"/><path class="64c8bae8-cca7-4a23-a374-e70aa3ea5649" d="M365.92,190.46a134.65,134.65,0,0,1,20.52,107.59l-91.76-21.52a40.39,40.39,0,0,0-6.16-32.28Z"/><path class="1ba2e1d7-e768-4148-86a4-c1d6465fc015" d="M386.44,298.06q-1.29,5.49-3,10.86l-89.64-29.13q.52-1.61.91-3.26Z"/><text class="8ccfcf3a-a23c-420e-a74b-ce5896402867" transform="translate(51.32 20.62)">Reparto de escaños según el CEO</text><text class="463e21f7-f0c2-47ee-bc91-359ca14545c4" transform="translate(71.81 43.74)">Comparación con el resultado de las elecciones del 21D</text><text class="885b943e-8444-4cae-a61b-40b0820af06b" transform="translate(9.5 430.02) scale(0.99 1)">Fuente: CEO</text><polygon class="1d60f0db-6355-420f-9144-af1dc1ede2be" points="432 413.27 528.44 413.27 528.44 427.93 432 427.93 432 413.27 432 413.27"/><path class="6e98d4bf-5358-4ae6-bd27-ba420fd7c84b" d="M509.36,416.55h-3.7V417l1,.23v6.81a.81.81,0,0,1-.68.35,1.45,1.45,0,0,1-1.2-.88l-.92-1.65a1.91,1.91,0,0,0-1.69-1.14v-.12a2.26,2.26,0,0,0,2.33-2.1c0-1.42-1.29-2-2.78-2h-3.35V417l1.1.23v6.91h0l-1.26.24L495,415.83a4,4,0,0,1-1.13,1l.12.35-2.87,7-.86.23v.46h2.62v-.46l-.85-.22,1-2.56h2.66l.93,2.54-1,.24v.46H502v-.46l-1-.23V421a1.57,1.57,0,0,1,1.42,1l1.26,2.25a2,2,0,0,0,1.82,1.11,1.8,1.8,0,0,0,1.2-.49h2.85a4.28,4.28,0,0,0,4.39-4.16,4.17,4.17,0,0,0-4.47-4.16ZM493.23,421l1.12-3,1.08,3Zm8.23-.62h-.57v-3.1h.71a1.4,1.4,0,0,1,1.45,1.48,1.61,1.61,0,0,1-1.57,1.62Zm7.82,3.83h-1.18v-6.93h1.22c1.89,0,3,1.31,3,3.46s-1.21,3.46-3.08,3.46Z"/><path class="6e98d4bf-5358-4ae6-bd27-ba420fd7c84b" d="M448.71,424.17l-3.07-8.34a3.94,3.94,0,0,1-1.13,1l.12.35-2.85,7-.61.23-.18.46h2.54v-.46l-.85-.22,1-2.56h2.66l.93,2.54-1,.24v.46h3.42v-.46l-.91-.23Zm-4.87-3.2,1.13-3,1.08,3Z"/><polygon class="6e98d4bf-5358-4ae6-bd27-ba420fd7c84b" points="441.39 422.75 441.08 422.58 439.29 424.21 437.75 424.21 437.75 417.25 438.68 417.01 438.68 416.54 435.37 416.54 435.37 417.01 436.3 417.25 436.3 424.15 435.37 424.39 435.37 424.86 440.57 424.86 441.39 422.75 441.39 422.75"/><polygon class="6e98d4bf-5358-4ae6-bd27-ba420fd7c84b" points="455.83 416.54 455.83 417.01 456.83 417.25 454.66 422.81 452.37 417.24 453.45 417.01 453.45 416.54 449.76 416.54 449.76 417.01 450.82 417.24 454.1 425.14 454.45 425.14 457.72 417.25 457.75 417.25 458.77 417.01 458.77 416.54 455.83 416.54 455.83 416.54"/><path class="6e98d4bf-5358-4ae6-bd27-ba420fd7c84b" d="M488.6,416.55V417l1,.24s.07,4.12,0,5.16a2.1,2.1,0,0,1-2.14,2h-.11a2.07,2.07,0,0,1-2.24-2.13v-5.07l1-.22v-.46h-3.34V417l.95.23v5.11a3.07,3.07,0,0,0,3.3,2.91,3,3,0,0,0,3.3-2.91l.06-5.1,1-.24v-.46Z"/><path class="6e98d4bf-5358-4ae6-bd27-ba420fd7c84b" d="M524.7,424.15l-3.06-8.32a3.94,3.94,0,0,1-1.13,1l.12.35-2.86,7-.49.2-.66-.21v-6.94l1-.23v-.46h-3.48V417l1,.24v6.92l-1,.23v.46h5.3v-.46l-.85-.23,1-2.56h2.66l.93,2.54-1,.24v.46h3.43v-.46l-.92-.24ZM519.84,421l1.13-3,1.08,3Z"/><path class="6e98d4bf-5358-4ae6-bd27-ba420fd7c84b" d="M470.75,416.55V417l1,.24.06,5.44-5.21-6.14H464.4V417l1,.22.08,0-.07,6.88h0l-1,.24-3.14-8.56a4,4,0,0,1-1.1,1l.12.35-2.87,7-.86.23v.46h2.62v-.46l-.85-.22,1-2.56h2.66l.93,2.54-1,.24v.46h5.47v-.46l-1-.24-.12-6,6,7h.39l.08-7.9,1-.23v-.46ZM459.44,421l1.13-3,1.08,3Z"/><path class="6e98d4bf-5358-4ae6-bd27-ba420fd7c84b" d="M479.52,420.61v.46l.94.24V424a3.11,3.11,0,0,1-1.88.62c-1.89,0-3.1-1.57-3.1-3.79s1.18-4,3.14-4a3,3,0,0,1,2.78,2.26l.27-.16v-2.62l-.24-.13-.52.64a5.24,5.24,0,0,0-2.3-.59,4.65,4.65,0,0,0-4.66,4.58,4.22,4.22,0,0,0,4,4.43h.3a4.29,4.29,0,0,0,2.68-.89l.73.49h.24V421.3l.79-.3v-.38Z"/><text class="51670a78-e910-4523-8816-d9b01578a243" transform="translate(250.92 359.03) rotate(-0.14)"><tspan class="f3669a2e-5214-4f39-9aa5-7fc38452fee6">CU</tspan><tspan class="4e462fed-150e-4e6f-bfbd-3cb13f54d01b" x="21.67" y="0">P</tspan><tspan class="f3669a2e-5214-4f39-9aa5-7fc38452fee6" x="31.4" y="0"> </tspan><tspan class="48018379-ae44-493c-938b-46301d6b05cc" x="35.57" y="0">7</tspan></text><line class="8a595ce2-6048-43e2-884d-045ee96347c6" x1="252.42" y1="99.5" x2="252.42" y2="154.79"/><line class="8a595ce2-6048-43e2-884d-045ee96347c6" x1="287.42" y1="99" x2="287.42" y2="167.79"/><line class="8a595ce2-6048-43e2-884d-045ee96347c6" x1="119" y1="99.5" x2="252.42" y2="99.5"/><line class="8a595ce2-6048-43e2-884d-045ee96347c6" x1="431" y1="99.5" x2="287.42" y2="99.5"/><text class="7c7053f3-04c8-42bf-955e-e4c21eff89bd" transform="translate(198.77 69.08) scale(0.99 1)">Mayoría absoluta: <tspan class="8d00d2a6-47ea-49c6-9481-f3f1573bc24a" x="123.4" y="0">68</tspan></text><line class="09db3d52-44f6-4c5a-9dfa-7710e139dca2" x1="260.5" y1="77" x2="260.5" y2="79.5"/><line class="03aa6d2d-6aa3-4ef3-9033-81b573c9338b" x1="260.5" y1="84.64" x2="260.5" y2="225.93"/><line class="09db3d52-44f6-4c5a-9dfa-7710e139dca2" x1="260.5" y1="228.5" x2="260.5" y2="231"/><line class="8a595ce2-6048-43e2-884d-045ee96347c6" x1="295.75" y1="259.07" x2="295.75" y2="298.81"/><line class="8a595ce2-6048-43e2-884d-045ee96347c6" x1="277.42" y1="236.5" x2="277.42" y2="284.5"/><text class="51670a78-e910-4523-8816-d9b01578a243" transform="translate(208.9 300.23) rotate(-0.14)"><tspan class="f3669a2e-5214-4f39-9aa5-7fc38452fee6">CSQ</tspan><tspan class="0da7c389-5e2d-4090-bf17-6c3994bd7eac" x="32.5" y="0">P</tspan><tspan class="3971600a-d1ee-483a-aad9-7733e1be9a2d" x="42.24" y="0"> </tspan><tspan class="6f13c725-4a70-4d02-83ed-93c9d9fb886e" x="46.41" y="0">1</tspan><tspan class="b05438f5-59cb-48d1-93cd-cb8588dea7ec" x="53.63" y="0">1</tspan></text><line class="8a595ce2-6048-43e2-884d-045ee96347c6" x1="277.18" y1="284.55" x2="210.5" y2="284.5"/><circle class="cc06c54d-9652-4279-8e30-16137cd48413" cx="253.5" cy="268.5" r="98.5"/><path class="a2ecb536-f1f1-4af4-bd51-b7278330a401" d="M159.84,298.36a98.83,98.83,0,0,1,11.29-84.65L229,251.59a29.65,29.65,0,0,0-3.39,25.4Z"/><path class="687d5d2a-c324-42a6-8391-8f643464ab8d" d="M171.13,213.71a98.83,98.83,0,0,1,62.15-42.55l14.38,67.67A29.65,29.65,0,0,0,229,251.59Z"/><path class="9ea40cef-6b41-4837-9b1a-9958186fa13a" d="M326.34,200.68A98.83,98.83,0,0,1,352,279.53l-68.69-8.19a29.65,29.65,0,0,0-7.69-23.65Z"/><path class="be503691-841b-4b20-b4f5-99f071b60c36" d="M352,279.53a98.83,98.83,0,0,1-4.14,18.84L282,277a29.65,29.65,0,0,0,1.24-5.65Z"/><path class="9327d9fc-e4eb-4db0-9eec-f5e66a798c94" d="M233.28,171.16A98.83,98.83,0,0,1,252.45,169l1,69.17a29.65,29.65,0,0,0-5.75.64Z"/><path class="2a950c36-23a0-4fa2-8cb4-c1fd008ce15d" d="M252.45,169a98.83,98.83,0,0,1,24.62,2.76L260.8,239a29.65,29.65,0,0,0-7.39-.83Z"/><path class="23561f11-ab07-4e55-b5ec-f4fd347361e5" d="M277.06,171.77a98.83,98.83,0,0,1,49.27,28.91l-50.76,47A29.65,29.65,0,0,0,260.8,239Z"/><circle class="cc06c54d-9652-4279-8e30-16137cd48413" cx="256.05" cy="269.93" r="61.22"/><text class="70a79946-f688-461b-9967-a2fcdf7bf44f" transform="translate(201.19 377.42) scale(0.99 1)">135 escaños</text><text class="51670a78-e910-4523-8816-d9b01578a243" transform="translate(260.19 344.23) rotate(-0.14)"><tspan class="f3669a2e-5214-4f39-9aa5-7fc38452fee6">CeC-</tspan><tspan class="0da7c389-5e2d-4090-bf17-6c3994bd7eac" x="35" y="0">P</tspan><tspan class="92074238-d3f1-4308-ab21-23a02ab65300" x="44.74" y="0"> </tspan><tspan class="48018379-ae44-493c-938b-46301d6b05cc" x="48.9" y="0">9 </tspan></text><path class="9aa67920-57b0-4b84-889d-efe2d50577a7" d="M295.32,234.78c.27.89.39,1.34.63,2.23a4.93,4.93,0,0,1-3.1,0,5,5,0,0,1-2.33-1.92,5,5,0,0,1-.94-3.76,5.62,5.62,0,0,1,2.26-3.6,5.34,5.34,0,0,1,4.22-1.35,5.48,5.48,0,0,1,3.64,2.47,5.23,5.23,0,0,1,1.06,3.68,4,4,0,0,1-1,2.1c-.68-.7-1-1-1.71-1.72a2.21,2.21,0,0,0,.61-1.46,2.69,2.69,0,0,0-.53-1.63,2.81,2.81,0,0,0-2-1.26,3.85,3.85,0,0,0-2.71,1,4.41,4.41,0,0,0-1.86,2.35A2.59,2.59,0,0,0,292,234a2.36,2.36,0,0,0,1.33,1A3.24,3.24,0,0,0,295.32,234.78Z"/><path class="9aa67920-57b0-4b84-889d-efe2d50577a7" d="M295.66,238.56c.55.67.82,1,1.36,1.69a1.5,1.5,0,0,0-.52.93,2,2,0,0,0,.35,1.22,2.88,2.88,0,0,0,1,1.07.69.69,0,0,0,.66,0,.45.45,0,0,0,.25-.33,2.18,2.18,0,0,0-.2-.84,9.87,9.87,0,0,1-.88-3.49,2,2,0,0,1,1-1.74,2.06,2.06,0,0,1,1.9-.12,4.49,4.49,0,0,1,2,2.08,7.24,7.24,0,0,1,1.13,2.83,2.47,2.47,0,0,1-.61,1.91l-1.68-2a1.13,1.13,0,0,0,.3-.83,2.56,2.56,0,0,0-.42-1.15,2.9,2.9,0,0,0-.87-1,.48.48,0,0,0-.49,0,.45.45,0,0,0-.22.38,7.37,7.37,0,0,0,.62,2.19,8.82,8.82,0,0,1,.74,2.91,1.52,1.52,0,0,1-.92,1.4,2.55,2.55,0,0,1-2.27-.16,5.92,5.92,0,0,1-2.37-2.35,4.29,4.29,0,0,1-.76-2.59A3.06,3.06,0,0,1,295.66,238.56Z"/><path class="9aa67920-57b0-4b84-889d-efe2d50577a7" d="M304.22,251.69c.36.55.53.82.84,1.34a2.88,2.88,0,0,0-1.17,1.36,2.11,2.11,0,0,0,0,1.45,2.27,2.27,0,0,0,1.14,1.31,2.17,2.17,0,0,0,1.73.13,1.94,1.94,0,0,0,1.22-1.07,2.23,2.23,0,0,0,0-1.72,4.18,4.18,0,0,0-.48-.89l1.14-.25c0,.09,0,.17.07.22a3.26,3.26,0,0,0,1,1.41,1.49,1.49,0,0,0,1.52.26,1.51,1.51,0,0,0,1-.91,2.07,2.07,0,0,0,0-1.5,2.13,2.13,0,0,0-1-1.19,2.37,2.37,0,0,0-1.65-.19c-.16-.61-.26-.92-.48-1.56a3.53,3.53,0,0,1,2.5.49,3.88,3.88,0,0,1,1.6,2.06,4.26,4.26,0,0,1,.25,1.87,2.89,2.89,0,0,1-.57,1.54,2.42,2.42,0,0,1-1.18.84,2.15,2.15,0,0,1-1.33,0,2.82,2.82,0,0,1-1.24-.86,2.5,2.5,0,0,1-1.86,2.85,3.19,3.19,0,0,1-2.59-.29,3.85,3.85,0,0,1-1.78-2.17,4.18,4.18,0,0,1-.13-2.58A3,3,0,0,1,304.22,251.69Z"/><path class="9aa67920-57b0-4b84-889d-efe2d50577a7" d="M314.21,266c-.16-.56-.24-.85-.4-1.41a2.34,2.34,0,0,0,1-.79,2.06,2.06,0,0,0,.21-1.58,2.2,2.2,0,0,0-.65-1.13,3,3,0,0,0-1.56-.72,6.23,6.23,0,0,0-2.5.26,3.11,3.11,0,0,1,1.37.94,3.57,3.57,0,0,1,.73,1.45,3.32,3.32,0,0,1-.4,2.61,3.28,3.28,0,0,1-2.25,1.49,4.06,4.06,0,0,1-1.93-.07,3.34,3.34,0,0,1-1.56-.92,3.51,3.51,0,0,1-.85-1.61,3.61,3.61,0,0,1,.48-3,6.11,6.11,0,0,1,3.54-2.15c2-.59,3.56-.61,4.7,0a3.84,3.84,0,0,1,2,2.66,3.65,3.65,0,0,1-.16,2.47A2.84,2.84,0,0,1,314.21,266Zm-5.86-4.61a3,3,0,0,0-1.18.63,2.23,2.23,0,0,0-.7,1.05,2.18,2.18,0,0,0,0,1.17,2,2,0,0,0,1,1.28,2.62,2.62,0,0,0,1.92.22,2.35,2.35,0,0,0,1.57-1,2.15,2.15,0,0,0,.25-1.72,2.23,2.23,0,0,0-1-1.43A2.19,2.19,0,0,0,308.35,261.37Z"/><text class="51670a78-e910-4523-8816-d9b01578a243" transform="translate(119.1 96.23) rotate(-0.14)"><tspan class="f3669a2e-5214-4f39-9aa5-7fc38452fee6">CU</tspan><tspan class="0da7c389-5e2d-4090-bf17-6c3994bd7eac" x="21.67" y="0">P</tspan><tspan class="3971600a-d1ee-483a-aad9-7733e1be9a2d" x="31.4" y="0"> </tspan><tspan class="48018379-ae44-493c-938b-46301d6b05cc" x="35.57" y="0">8-10</tspan></text><text class="51670a78-e910-4523-8816-d9b01578a243" transform="translate(355.68 97.24) rotate(-0.14)"><tspan class="f3669a2e-5214-4f39-9aa5-7fc38452fee6">Cec-</tspan><tspan class="4e462fed-150e-4e6f-bfbd-3cb13f54d01b" x="32.51" y="0">P</tspan><tspan class="f3669a2e-5214-4f39-9aa5-7fc38452fee6" x="42.25" y="0"> </tspan><tspan class="48018379-ae44-493c-938b-46301d6b05cc" x="46.41" y="0">8-10</tspan></text><path class="9aa67920-57b0-4b84-889d-efe2d50577a7" d="M306.21,140.49l3.18-10.26c1.51.47,2.27.72,3.76,1.24a14.14,14.14,0,0,1,2.69,1.15,3.14,3.14,0,0,1,1.25,1.61,3.06,3.06,0,0,1-.13,2.2,3.3,3.3,0,0,1-1,1.4,3.11,3.11,0,0,1-1.3.62,3.54,3.54,0,0,1-1.31,0,15.74,15.74,0,0,1-2.31-.68l-1.43-.49-1.28,3.84C307.49,140.89,307.07,140.76,306.21,140.49Zm5-7.78-1,2.89,1.22.42a7.07,7.07,0,0,0,1.81.47,1.57,1.57,0,0,0,.88-.24,1.36,1.36,0,0,0,.55-.69,1.3,1.3,0,0,0,0-1,1.71,1.71,0,0,0-.75-.78,11.75,11.75,0,0,0-1.62-.65Z"/><path class="9aa67920-57b0-4b84-889d-efe2d50577a7" d="M316.69,140.59c.86.27,1.28.41,2.13.7a2.27,2.27,0,0,0,1.38,2.89,2.65,2.65,0,0,0,1.67.31,1.31,1.31,0,0,0,1-.68,1,1,0,0,0,.08-.69,1.87,1.87,0,0,0-.54-.78c-.2-.2-.69-.61-1.47-1.22a7,7,0,0,1-2-2,2.75,2.75,0,0,1-.14-2.41,2.53,2.53,0,0,1,1.08-1.21,3.14,3.14,0,0,1,1.81-.4,6.4,6.4,0,0,1,2.33.65,5.3,5.3,0,0,1,2.69,2.3,3,3,0,0,1,0,2.65c-.86-.4-1.29-.6-2.16-1a1.78,1.78,0,0,0-.07-1.36,2.58,2.58,0,0,0-1.22-1,2.91,2.91,0,0,0-1.66-.33.76.76,0,0,0-.62.45.81.81,0,0,0,.06.74,7.07,7.07,0,0,0,1.68,1.57,10.79,10.79,0,0,1,1.94,1.81,3.08,3.08,0,0,1,.64,1.55,3,3,0,0,1-.39,1.73,3.12,3.12,0,0,1-1.27,1.29,3.25,3.25,0,0,1-1.87.39,6.77,6.77,0,0,1-2.32-.69,5.08,5.08,0,0,1-2.54-2.18A4.14,4.14,0,0,1,316.69,140.59Z"/><path class="9aa67920-57b0-4b84-889d-efe2d50577a7" d="M333.21,148.72c.61.7.9,1.06,1.49,1.77a4.88,4.88,0,0,1-2.83,1.27,5.52,5.52,0,0,1-5.3-3.9,5.59,5.59,0,0,1,.66-4.2,5,5,0,0,1,7.6-2.14,5.14,5.14,0,0,1,2.41,2.9,4,4,0,0,1-.08,2.32c-.9-.35-1.34-.52-2.24-.85a2.22,2.22,0,0,0,0-1.58,2.64,2.64,0,0,0-1.13-1.26,2.76,2.76,0,0,0-2.28-.36,3.9,3.9,0,0,0-2.08,2,4.4,4.4,0,0,0-.78,2.9,2.57,2.57,0,0,0,1.26,1.75,2.35,2.35,0,0,0,1.6.34A3.22,3.22,0,0,0,333.21,148.72Z"/><path class="9aa67920-57b0-4b84-889d-efe2d50577a7" d="M341.46,159.62l-1-.85,5.28-6.53a8.16,8.16,0,0,1-1.64-.14,11.17,11.17,0,0,1-1.61-.39l.77-1a9.77,9.77,0,0,0,2.46.32,5.35,5.35,0,0,0,1.92-.29l.74.61Z"/><path class="9aa67920-57b0-4b84-889d-efe2d50577a7" d="M345.87,160.15l1.06.8a2.19,2.19,0,0,0-.41,1.39,1.8,1.8,0,0,0,.6,1.11,2.16,2.16,0,0,0,1,.56,2.38,2.38,0,0,0,1.08,0,4.36,4.36,0,0,0,1.25-.53,6.36,6.36,0,0,0,1.28-1l.18-.19a3.24,3.24,0,0,1-1.54-.08,3.5,3.5,0,0,1-2.5-3.14,3.46,3.46,0,0,1,1-2.56,3.37,3.37,0,0,1,2.55-1.25,3.72,3.72,0,0,1,2.66,1.11,4.07,4.07,0,0,1,1.15,1.9,3.53,3.53,0,0,1-.1,2.18,7.18,7.18,0,0,1-1.81,2.47,9.51,9.51,0,0,1-2.67,2,4,4,0,0,1-2.28.34,3.69,3.69,0,0,1-2-1,3.2,3.2,0,0,1-1.06-1.94A3,3,0,0,1,345.87,160.15Zm7.44.5a2.41,2.41,0,0,0,.79-1.75,2.18,2.18,0,0,0-.7-1.6,2.3,2.3,0,0,0-1.73-.64,2.49,2.49,0,0,0-1.79.89,2.23,2.23,0,0,0-.63,1.68,2.3,2.3,0,0,0,.75,1.58,2.21,2.21,0,0,0,1.6.66A2.44,2.44,0,0,0,353.31,160.65Z"/><path class="9aa67920-57b0-4b84-889d-efe2d50577a7" d="M352.41,165.44l1-.92c1.19,1.25,1.78,1.89,2.92,3.18l-1,.88C354.16,167.3,353.59,166.67,352.41,165.44Z"/><path class="9aa67920-57b0-4b84-889d-efe2d50577a7" d="M359.08,176.34l-1,.76c-1.75-2.34-2.66-3.47-4.57-5.67a2.28,2.28,0,0,1,.8-.48,4.63,4.63,0,0,1,1.67-.24,12.15,12.15,0,0,1,2.42.36,18.28,18.28,0,0,0,3.37.57,2.62,2.62,0,0,0,1.67-.44,1.67,1.67,0,0,0,.66-1.3,2.38,2.38,0,0,0-.59-1.62,2.41,2.41,0,0,0-1.52-1,2,2,0,0,0-1.62.52l-.86-1.23A3.14,3.14,0,0,1,362,166a4.21,4.21,0,0,1,2.36,1.62,4,4,0,0,1,1,2.7,2.64,2.64,0,0,1-1.09,2.08,3,3,0,0,1-1.19.53,5.15,5.15,0,0,1-1.62,0,28.47,28.47,0,0,1-2.83-.55,19.41,19.41,0,0,0-2.06-.39,4.2,4.2,0,0,0-.92,0C357.08,173.72,357.76,174.58,359.08,176.34Z"/><path class="9aa67920-57b0-4b84-889d-efe2d50577a7" d="M361.83,182.48l-.75-1.14,7-4.69a8.28,8.28,0,0,1-1.53-.63,11.38,11.38,0,0,1-1.44-.86l1-.74a10,10,0,0,0,2.27,1.05,5.38,5.38,0,0,0,1.93.3l.53.81Z"/><path class="9aa67920-57b0-4b84-889d-efe2d50577a7" d="M376.79,196.53c.31.88.46,1.33.75,2.21a4.89,4.89,0,0,1-3.1.13A5.07,5.07,0,0,1,372,197a5.12,5.12,0,0,1-1.13-3.76,5.56,5.56,0,0,1,2.11-3.7,5.35,5.35,0,0,1,4.18-1.51,5.53,5.53,0,0,1,3.74,2.32,5.25,5.25,0,0,1,1.23,3.63,4,4,0,0,1-.91,2.14c-.71-.67-1.07-1-1.79-1.64A2.22,2.22,0,0,0,380,193a2.7,2.7,0,0,0-.61-1.61,2.83,2.83,0,0,0-2-1.18,3.85,3.85,0,0,0-2.68,1.11,4.37,4.37,0,0,0-1.76,2.43,2.62,2.62,0,0,0,.55,2.11,2.4,2.4,0,0,0,1.38.91A3.22,3.22,0,0,0,376.79,196.53Z"/><path class="9aa67920-57b0-4b84-889d-efe2d50577a7" d="M384.79,196.2c.52.78.77,1.18,1.27,2l-1.24.79a4.66,4.66,0,0,1-1.28.61,2.12,2.12,0,0,1-1.13,0,3.49,3.49,0,0,1-1.19-.65l.46-.84a2,2,0,0,0,1,.5,1.58,1.58,0,0,0,1-.28l-.61-.93Z"/><path class="9aa67920-57b0-4b84-889d-efe2d50577a7" d="M379.38,203.49c.56.67.84,1,1.39,1.69a1.53,1.53,0,0,0-.51.94,2,2,0,0,0,.31,1.17,2.22,2.22,0,0,0,.86.94.65.65,0,0,0,.62,0,.52.52,0,0,0,.27-.32,1.7,1.7,0,0,0-.11-.76,14.14,14.14,0,0,1-.8-3.39,2,2,0,0,1,1-1.76,2.06,2.06,0,0,1,1.9-.14,4.24,4.24,0,0,1,2,2,4.92,4.92,0,0,1,.81,2.54,2.61,2.61,0,0,1-.82,1.75c-.51-.68-.78-1-1.3-1.68a1.2,1.2,0,0,0,.36-.78,2,2,0,0,0-.32-1.06,2.56,2.56,0,0,0-.83-1,.48.48,0,0,0-.49,0,.45.45,0,0,0-.21.38,9.73,9.73,0,0,0,.52,2.08,5.89,5.89,0,0,1,.36,2.59,1.83,1.83,0,0,1-1,1.31,2.36,2.36,0,0,1-2.06,0,4.28,4.28,0,0,1-2-2,4.74,4.74,0,0,1-.74-2.55A3.06,3.06,0,0,1,379.38,203.49Z"/><path class="9aa67920-57b0-4b84-889d-efe2d50577a7" d="M387.37,222.3l-1.19.42c-1-2.72-1.5-4.07-2.68-6.71a2.28,2.28,0,0,1,.9-.23,4.62,4.62,0,0,1,1.67.25,12.08,12.08,0,0,1,2.2,1,18.43,18.43,0,0,0,3,1.53,2.63,2.63,0,0,0,1.72.07,1.66,1.66,0,0,0,1-1,2.38,2.38,0,0,0-.09-1.72,2.41,2.41,0,0,0-1.17-1.36,2,2,0,0,0-1.71,0c-.18-.57-.27-.86-.46-1.42a3.14,3.14,0,0,1,2.58.15,4.21,4.21,0,0,1,1.78,2.24,4,4,0,0,1,.18,2.89,2.64,2.64,0,0,1-1.66,1.67,3,3,0,0,1-1.29.15,5.16,5.16,0,0,1-1.56-.44c-.58-.25-1.43-.71-2.54-1.34a19.06,19.06,0,0,0-1.85-1,4.21,4.21,0,0,0-.88-.26C386.25,219.24,386.64,220.25,387.37,222.3Z"/><path class="9aa67920-57b0-4b84-889d-efe2d50577a7" d="M389.06,223.48l.52,1.22a2.2,2.2,0,0,0-1,1,1.81,1.81,0,0,0,0,1.26,2.16,2.16,0,0,0,.58,1,2.38,2.38,0,0,0,.93.55,4.37,4.37,0,0,0,1.35.16,6.36,6.36,0,0,0,1.61-.22l.25-.08a3.26,3.26,0,0,1-1.29-.84,3.52,3.52,0,0,1-.61-4,3.45,3.45,0,0,1,2.1-1.75,3.35,3.35,0,0,1,2.83.18,3.74,3.74,0,0,1,1.76,2.3,4.11,4.11,0,0,1,.06,2.24,3.53,3.53,0,0,1-1.17,1.85,7.12,7.12,0,0,1-2.8,1.24,9.5,9.5,0,0,1-3.29.36,4,4,0,0,1-2.15-.85,3.7,3.7,0,0,1-1.2-1.85,3.21,3.21,0,0,1,0-2.21A3,3,0,0,1,389.06,223.48Zm6.21,4.15a2.4,2.4,0,0,0,1.56-1.12,2.2,2.2,0,0,0,.19-1.75,2.31,2.31,0,0,0-1.19-1.43,2.48,2.48,0,0,0-2-.12,2.23,2.23,0,0,0-1.38,1.15,2.32,2.32,0,0,0-.13,1.75,2.22,2.22,0,0,0,1.06,1.38A2.44,2.44,0,0,0,395.28,227.64Z"/><path class="9aa67920-57b0-4b84-889d-efe2d50577a7" d="M392.1,231.34l1.29-.31c.41,1.68.59,2.53.93,4.23l-1.3.26C392.69,233.84,392.51,233,392.1,231.34Z"/><path class="9aa67920-57b0-4b84-889d-efe2d50577a7" d="M392.86,236.73c.17.53.25.8.42,1.34a2.92,2.92,0,0,0-1.46,1.06,2.06,2.06,0,0,0-.28,1.44,2.3,2.3,0,0,0,.86,1.53,2.15,2.15,0,0,0,1.67.47,1.93,1.93,0,0,0,1.41-.81,2.26,2.26,0,0,0,.36-1.69,4.19,4.19,0,0,0-.29-1l1.17,0c0,.1,0,.17,0,.23a3.27,3.27,0,0,0,.67,1.58,1.48,1.48,0,0,0,1.44.56,1.51,1.51,0,0,0,1.12-.7,2.08,2.08,0,0,0,.27-1.48,2.13,2.13,0,0,0-.7-1.35,2.29,2.29,0,0,0-1.55-.49c0-.59,0-.89,0-1.48a3.22,3.22,0,0,1,2.24.85,3.79,3.79,0,0,1,1.1,2.28,4.29,4.29,0,0,1-.12,1.88,2.91,2.91,0,0,1-.86,1.4,2.42,2.42,0,0,1-1.32.6,2.14,2.14,0,0,1-1.31-.27,2.83,2.83,0,0,1-1-1.09,2.67,2.67,0,0,1-.71,1.7,2.62,2.62,0,0,1-1.66.75,3.17,3.17,0,0,1-2.49-.8,3.91,3.91,0,0,1-1.32-2.51,3.64,3.64,0,0,1,.45-2.51A3.29,3.29,0,0,1,392.86,236.73Z"/><path class="9aa67920-57b0-4b84-889d-efe2d50577a7" d="M396.51,245.21a8.78,8.78,0,0,1,3.09.15,3.69,3.69,0,0,1,1.89,1.16,3.61,3.61,0,0,1,.77,2.18,3.94,3.94,0,0,1-.27,1.75,3.09,3.09,0,0,1-1,1.26,4.91,4.91,0,0,1-1.58.79,11.74,11.74,0,0,1-5.59,0,3.94,3.94,0,0,1-1.83-1.17,3.25,3.25,0,0,1-.72-2,3.18,3.18,0,0,1,.94-2.59A7,7,0,0,1,396.51,245.21Zm.12,1.47a6.53,6.53,0,0,0-3.46.92,1.92,1.92,0,0,0,.18,3.2,6.5,6.5,0,0,0,3.54.54c1.77-.06,2.93-.32,3.5-.81a2.12,2.12,0,0,0,.79-1.78,2,2,0,0,0-.87-1.59A6.12,6.12,0,0,0,396.63,246.68Z"/><path class="9aa67920-57b0-4b84-889d-efe2d50577a7" d="M147.12,166.14c.64-.72,1-1.08,1.61-1.79l5,4.59a6.65,6.65,0,0,1,1.35,1.57,3,3,0,0,1,.32,1.89,4.11,4.11,0,0,1-1.06,2.06,3.49,3.49,0,0,1-2.31,1.35,3.6,3.6,0,0,1-2.59-1c.48-.73.72-1.09,1.21-1.81a2.75,2.75,0,0,0,1.18.63,1.24,1.24,0,0,0,1.17-.47,1.27,1.27,0,0,0,.39-1.08,3.15,3.15,0,0,0-1.08-1.37Z"/><path class="9aa67920-57b0-4b84-889d-efe2d50577a7" d="M157.55,170.63c-.38-1.94-.56-2.91-.88-4.88-1.87-.24-2.82-.35-4.72-.53.75-.8,1.12-1.19,1.89-2l2.57.44c-.17-1-.25-1.57-.4-2.62.75-.73,1.13-1.1,1.89-1.82.18,1.86.29,2.78.53,4.61,2,.31,3,.49,5,.88-.75.71-1.13,1.07-1.87,1.79-1.14-.24-1.71-.35-2.86-.56.21,1.15.32,1.73.56,2.87C158.57,169.55,158.23,169.9,157.55,170.63Z"/><path class="9aa67920-57b0-4b84-889d-efe2d50577a7" d="M167.11,156.23l2.13-.87a4.84,4.84,0,0,1,.35,3.08,5.47,5.47,0,0,1-5.35,3.82,5.57,5.57,0,0,1-3.77-2,5.48,5.48,0,0,1-1.72-4.08,5.31,5.31,0,0,1,2-3.76,5,5,0,0,1,3.45-1.37,4.06,4.06,0,0,1,2.17.79c-.6.74-.89,1.11-1.47,1.86a2.23,2.23,0,0,0-1.5-.46,2.58,2.58,0,0,0-1.53.67,2.72,2.72,0,0,0-1,2,3.94,3.94,0,0,0,1.25,2.6,4.4,4.4,0,0,0,2.51,1.65,2.55,2.55,0,0,0,2.06-.65,2.34,2.34,0,0,0,.82-1.42A3.21,3.21,0,0,0,167.11,156.23Z"/><path class="9aa67920-57b0-4b84-889d-efe2d50577a7" d="M180.79,151c-.8.53-1.2.8-2,1.34l-2.18-1.45c-1.46,1-2.18,1.54-3.61,2.61.29,1,.44,1.5.74,2.49-.75.57-1.12.86-1.85,1.44-1.33-4.43-1.92-6.67-3-11.22.81-.6,1.22-.9,2-1.48C175,147.12,177,148.38,180.79,151ZM175,149.82c-1.43-.94-2.15-1.41-3.6-2.32.43,1.66.65,2.48,1.11,4.13C173.48,150.89,174,150.53,175,149.82Z"/><path class="9aa67920-57b0-4b84-889d-efe2d50577a7" d="M182.88,149.64l-4.78-7.53c-1.17.74-1.75,1.12-2.9,1.89l-1-1.51c3.12-2.09,4.72-3.09,8-5l.91,1.57c-1.2.69-1.79,1-3,1.77l4.65,7.61Z"/><path class="9aa67920-57b0-4b84-889d-efe2d50577a7" d="M197.89,140.06l.53,1.15c-2.63,1.2-3.93,1.84-6.48,3.19a2.3,2.3,0,0,1-.29-.88,4.68,4.68,0,0,1,.13-1.68,12.44,12.44,0,0,1,.87-2.26,17.32,17.32,0,0,0,1.25-3.14,2.65,2.65,0,0,0-.08-1.72,1.68,1.68,0,0,0-1.12-.93A2.29,2.29,0,0,0,191,134a2.33,2.33,0,0,0-1.23,1.25,2,2,0,0,0,.16,1.69l-1.36.55a3.18,3.18,0,0,1-.05-2.57,4.07,4.07,0,0,1,2-1.91,3.87,3.87,0,0,1,2.8-.39,2.68,2.68,0,0,1,1.78,1.52,3.06,3.06,0,0,1,.27,1.27,5.1,5.1,0,0,1-.29,1.58A26.33,26.33,0,0,1,194,139.6a20.2,20.2,0,0,0-.82,1.91,4.23,4.23,0,0,0-.19.9C194.94,141.43,195.92,141,197.89,140.06Z"/><path class="9aa67920-57b0-4b84-889d-efe2d50577a7" d="M196,132.05l-.51-1.16c2.8-1.24,4.22-1.83,7.09-2.92l.37,1a13.26,13.26,0,0,0-1,3.5,15.85,15.85,0,0,0-.13,4.07,13.26,13.26,0,0,0,.65,2.93l-1.27.54a12.41,12.41,0,0,1-.73-3,14.39,14.39,0,0,1,0-3.75,13.42,13.42,0,0,1,.85-3.37C199.18,130.67,198.12,131.12,196,132.05Z"/><path class="9aa67920-57b0-4b84-889d-efe2d50577a7" d="M206.36,134.44l-.46-1.24c1.61-.59,2.42-.88,4-1.42l.42,1.26C208.75,133.57,207.95,133.85,206.36,134.44Z"/><path class="9aa67920-57b0-4b84-889d-efe2d50577a7" d="M218.94,132.51l.32,1.22c-2.82.75-4.22,1.16-7,2.06a2.28,2.28,0,0,1-.13-.92,4.66,4.66,0,0,1,.42-1.63,12.45,12.45,0,0,1,1.25-2.09,17.46,17.46,0,0,0,1.78-2.89,2.63,2.63,0,0,0,.21-1.71,1.68,1.68,0,0,0-.95-1.11,2.32,2.32,0,0,0-1.7-.07,2.35,2.35,0,0,0-1.44,1,2,2,0,0,0-.13,1.7l-1.44.31a3.17,3.17,0,0,1,.39-2.55,4.11,4.11,0,0,1,2.35-1.55,3.92,3.92,0,0,1,2.84.09,2.67,2.67,0,0,1,1.51,1.79,3,3,0,0,1,.05,1.3,5.1,5.1,0,0,1-.56,1.51,26.54,26.54,0,0,1-1.56,2.41,20.15,20.15,0,0,0-1.14,1.75,4.24,4.24,0,0,0-.34.85C215.77,133.37,216.82,133.07,218.94,132.51Z"/><path class="9aa67920-57b0-4b84-889d-efe2d50577a7" d="M220.26,130.91l1.26-.43a2.18,2.18,0,0,0,.93,1.11,1.82,1.82,0,0,0,1.27.12,2.19,2.19,0,0,0,1-.51,2.38,2.38,0,0,0,.61-.89,4.34,4.34,0,0,0,.25-1.33,6.34,6.34,0,0,0-.12-1.62l-.06-.26a3.23,3.23,0,0,1-.92,1.24,3.5,3.5,0,0,1-4,.33,3.44,3.44,0,0,1-1.58-2.23,3.39,3.39,0,0,1,.39-2.81,3.68,3.68,0,0,1,2.38-1.58,4,4,0,0,1,2.21.1,3.55,3.55,0,0,1,1.75,1.28,7.22,7.22,0,0,1,1.07,2.87,9.42,9.42,0,0,1,.17,3.31,4,4,0,0,1-1,2.1,3.73,3.73,0,0,1-2,1.08,3.24,3.24,0,0,1-2.23-.2A3,3,0,0,1,220.26,130.91Zm4.57-5.91a2.42,2.42,0,0,0-1-1.63,2.17,2.17,0,0,0-1.71-.31,2.28,2.28,0,0,0-1.49,1.08,2.5,2.5,0,0,0-.26,2,2.22,2.22,0,0,0,1,1.47,2.29,2.29,0,0,0,1.74.26,2.21,2.21,0,0,0,1.44-1A2.43,2.43,0,0,0,224.83,125Z"/><path class="9aa67920-57b0-4b84-889d-efe2d50577a7" d="M122.84,307.49l-9.94,4.07a88,88,0,0,1-3.1-8.65l1.73-.54c.78,2.5,1.2,3.74,2.14,6.2l2.22-.85c-.85-2.24-1.24-3.37-2-5.64l1.73-.54c.7,2.23,1.09,3.34,1.92,5.54l2.73-1c-.9-2.37-1.32-3.57-2.06-6l1.73-.53A79,79,0,0,0,122.84,307.49Z"/><path class="9aa67920-57b0-4b84-889d-efe2d50577a7" d="M119.45,297.7l-10.32,3c-.58-2-.84-3-1.31-5.06a9.21,9.21,0,0,1-.33-2.85,2.68,2.68,0,0,1,.74-1.59,2.81,2.81,0,0,1,1.57-.83,2.76,2.76,0,0,1,2.11.4,4,4,0,0,1,1.43,2.05,5.13,5.13,0,0,1,.62-1.41,11,11,0,0,1,1.46-1.62c.72-.7,1.08-1,1.82-1.71.18,1,.28,1.57.5,2.61-.79.82-1.18,1.23-1.94,2.08a13.05,13.05,0,0,0-1.27,1.54,1.76,1.76,0,0,0-.27.78,4,4,0,0,0,.17,1.17l.12.46,4.34-1.13C119.09,296.41,119.21,296.84,119.45,297.7Zm-6.58-.59c-.18-.68-.26-1-.43-1.71a11.12,11.12,0,0,0-.61-2.05,1.3,1.3,0,0,0-.59-.56,1.32,1.32,0,0,0-.84-.07,1.2,1.2,0,0,0-.79.5,1.51,1.51,0,0,0-.22,1,17.78,17.78,0,0,0,.37,1.74c.18.74.27,1.11.46,1.85Z"/><path class="9aa67920-57b0-4b84-889d-efe2d50577a7" d="M112.23,280.21c.19-.92.29-1.37.5-2.28a4.89,4.89,0,0,1,2.73,1.48,5.59,5.59,0,0,1,.16,6.61,5.58,5.58,0,0,1-3.72,2.07,5.37,5.37,0,0,1-4.35-.85,5.48,5.48,0,0,1-2-3.9,5.22,5.22,0,0,1,.82-3.73,4,4,0,0,1,1.89-1.36c.27.93.4,1.4.69,2.32a2.22,2.22,0,0,0-1.23,1,2.68,2.68,0,0,0-.31,1.68,2.81,2.81,0,0,0,1.12,2,3.86,3.86,0,0,0,2.86.43,4.39,4.39,0,0,0,2.77-1.17,2.6,2.6,0,0,0,.61-2.08A2.38,2.38,0,0,0,114,281,3.23,3.23,0,0,0,112.23,280.21Z"/><path class="9aa67920-57b0-4b84-889d-efe2d50577a7" d="M114.77,264.88,116,265c-.2,2.9-.25,4.35-.23,7.25a2.28,2.28,0,0,1-.92-.15,4.62,4.62,0,0,1-1.43-.9,12.07,12.07,0,0,1-1.6-1.84,18.49,18.49,0,0,0-2.18-2.63,2.63,2.63,0,0,0-1.55-.76,1.66,1.66,0,0,0-1.35.55,2.39,2.39,0,0,0-.61,1.62,2.42,2.42,0,0,0,.53,1.72,2,2,0,0,0,1.57.66c-.06.6-.09.9-.15,1.5a3.13,3.13,0,0,1-2.31-1.17,4.24,4.24,0,0,1-.74-2.78,4,4,0,0,1,1-2.73,2.64,2.64,0,0,1,2.19-.87,3,3,0,0,1,1.24.38,5.16,5.16,0,0,1,1.25,1c.43.46,1,1.23,1.79,2.26a19.1,19.1,0,0,0,1.31,1.64,4.21,4.21,0,0,0,.7.59C114.57,268.15,114.62,267.06,114.77,264.88Z"/><path class="9aa67920-57b0-4b84-889d-efe2d50577a7" d="M113.69,263.11c0-.53,0-.8,0-1.34a2.19,2.19,0,0,0,1.36-.5,1.82,1.82,0,0,0,.54-1.15,2.18,2.18,0,0,0-.14-1.13,2.39,2.39,0,0,0-.63-.88,4.36,4.36,0,0,0-1.17-.69,6.32,6.32,0,0,0-1.56-.44l-.26,0a3.27,3.27,0,0,1,.85,1.29,3.55,3.55,0,0,1-1,3.91,3.44,3.44,0,0,1-2.63.77,3.35,3.35,0,0,1-2.52-1.31,3.77,3.77,0,0,1-.69-2.83,4.15,4.15,0,0,1,.85-2.09,3.54,3.54,0,0,1,1.81-1.23,7.1,7.1,0,0,1,3.06,0,9.45,9.45,0,0,1,3.16,1,4,4,0,0,1,1.63,1.64,3.73,3.73,0,0,1,.35,2.19,3.23,3.23,0,0,1-.93,2A3,3,0,0,1,113.69,263.11Zm-4-6.32a2.39,2.39,0,0,0-1.88.41,2.21,2.21,0,0,0-.88,1.54,2.33,2.33,0,0,0,.51,1.79,2.47,2.47,0,0,0,1.78.91,2.22,2.22,0,0,0,1.73-.5,2.33,2.33,0,0,0,.83-1.56,2.24,2.24,0,0,0-.42-1.7A2.43,2.43,0,0,0,109.67,256.79Z"/><path class="9aa67920-57b0-4b84-889d-efe2d50577a7" d="M114.06,254.65l-1.31-.23c.3-1.72.47-2.57.85-4.27l1.29.29C114.53,252.11,114.36,253,114.06,254.65Z"/><path class="9aa67920-57b0-4b84-889d-efe2d50577a7" d="M115.54,249.38c.06-.56.09-.84.16-1.4a2.92,2.92,0,0,0,1.77-.39,2.08,2.08,0,0,0,.83-1.21,2.33,2.33,0,0,0-.17-1.76,2.15,2.15,0,0,0-1.34-1.1,1.93,1.93,0,0,0-1.62.19,2.28,2.28,0,0,0-1,1.42,4.22,4.22,0,0,0-.12,1l-1.08-.45c0-.09.06-.16.07-.22a3.32,3.32,0,0,0,0-1.73,1.48,1.48,0,0,0-1.09-1.1,1.51,1.51,0,0,0-1.31.2,2.1,2.1,0,0,0-.85,1.26,2.15,2.15,0,0,0,.09,1.53,2.28,2.28,0,0,0,1.22,1.07c-.23.55-.35.82-.57,1.37a3.21,3.21,0,0,1-1.71-1.68,3.83,3.83,0,0,1-.09-2.54,4.34,4.34,0,0,1,.87-1.68,2.93,2.93,0,0,1,1.36-.94,2.41,2.41,0,0,1,1.45,0,2.13,2.13,0,0,1,1.09.77,2.85,2.85,0,0,1,.52,1.43,2.69,2.69,0,0,1,1.34-1.28,2.6,2.6,0,0,1,1.82,0,3.16,3.16,0,0,1,2,1.74,4,4,0,0,1,.19,2.85,3.68,3.68,0,0,1-1.43,2.13A3.29,3.29,0,0,1,115.54,249.38Z"/><path class="9aa67920-57b0-4b84-889d-efe2d50577a7" d="M115.61,240.08a8.7,8.7,0,0,1-2.77-1.38,3.42,3.42,0,0,1-1.09-4.15,4,4,0,0,1,1-1.51,3.12,3.12,0,0,1,1.39-.78,4.9,4.9,0,0,1,1.76-.09,11.65,11.65,0,0,1,5.1,2.29,3.94,3.94,0,0,1,1.2,1.81,3.29,3.29,0,0,1-.14,2.12,3.21,3.21,0,0,1-1.91,2A6.94,6.94,0,0,1,115.61,240.08Zm.48-1.4a6.49,6.49,0,0,0,3.54.54,1.94,1.94,0,0,0,1.13-3,6.45,6.45,0,0,0-3-1.92c-1.64-.66-2.82-.88-3.53-.66a2.14,2.14,0,0,0-1.45,1.33,2,2,0,0,0,.15,1.82A6.08,6.08,0,0,0,116.09,238.68Z"/><path class="9aa67920-57b0-4b84-889d-efe2d50577a7" d="M207.71,283.62l-9.23,1.17a73.49,73.49,0,0,1-.63-7.83l1.57-.06c.08,2.24.16,3.36.38,5.6l2.05-.21c-.21-2-.28-3.05-.36-5.09l1.57-.06c.08,2,.15,3,.35,5l2.52-.26c-.22-2.15-.29-3.23-.36-5.38l1.57-.05A65.72,65.72,0,0,0,207.71,283.62Z"/><path class="9aa67920-57b0-4b84-889d-efe2d50577a7" d="M207.1,274.81l-9.3.13c0-1.8,0-2.69.06-4.48a7.81,7.81,0,0,1,.38-2.44,2.3,2.3,0,0,1,1-1.15,2.46,2.46,0,0,1,1.5-.33,2.41,2.41,0,0,1,1.67.81,3.4,3.4,0,0,1,.73,2,4.36,4.36,0,0,1,.84-1,9.38,9.38,0,0,1,1.59-1c.76-.41,1.14-.61,1.91-1-.09.91-.12,1.36-.18,2.27-.84.5-1.26.75-2.1,1.28a11.17,11.17,0,0,0-1.41,1,1.5,1.5,0,0,0-.41.59,3.37,3.37,0,0,0-.13,1c0,.16,0,.24,0,.41l3.88,0C207.09,273.66,207.09,274,207.1,274.81Zm-5.37-2c0-.6,0-.9,0-1.5a9.49,9.49,0,0,0,0-1.83,1.11,1.11,0,0,0-.36-.59,1.14,1.14,0,0,0-.69-.25,1,1,0,0,0-.77.23,1.3,1.3,0,0,0-.41.77,15,15,0,0,0-.09,1.52c0,.65,0,1,0,1.63Z"/><path class="9aa67920-57b0-4b84-889d-efe2d50577a7" d="M205.06,258.73c.37-.71.56-1.07.94-1.77a3.91,3.91,0,0,1,2.23,4.46,4.32,4.32,0,0,1-1.68,2.9,4.88,4.88,0,0,1-3.58.86,4.36,4.36,0,0,1-4.22-5.4,4.47,4.47,0,0,1,1.54-2.9,3.48,3.48,0,0,1,1.89-.7c0,.84,0,1.25,0,2.09a1.91,1.91,0,0,0-1.26.54,2.3,2.3,0,0,0-.65,1.32,2.4,2.4,0,0,0,.46,1.95,3.36,3.36,0,0,0,2.29,1,3.83,3.83,0,0,0,2.58-.33,2.22,2.22,0,0,0,1-1.58,2,2,0,0,0-.25-1.39A2.8,2.8,0,0,0,205.06,258.73Z"/><path class="9aa67920-57b0-4b84-889d-efe2d50577a7" d="M207.56,252.14c.07-.48.1-.72.18-1.19a2.55,2.55,0,0,0,1.54-.27,1.77,1.77,0,0,0,.76-1,2,2,0,0,0-.09-1.51,1.88,1.88,0,0,0-1.12-1,1.68,1.68,0,0,0-1.41.1,1.93,1.93,0,0,0-.92,1.17,3.55,3.55,0,0,0-.14.86l-.92-.43.07-.19a2.8,2.8,0,0,0,.07-1.48,1.28,1.28,0,0,0-.91-1,1.31,1.31,0,0,0-1.14.12,1.79,1.79,0,0,0-.77,1,1.83,1.83,0,0,0,0,1.31,2,2,0,0,0,1,1l-.54,1.16a2.78,2.78,0,0,1-1.42-1.51,3.25,3.25,0,0,1,0-2.18,3.69,3.69,0,0,1,.81-1.41,2.5,2.5,0,0,1,1.2-.76,2.09,2.09,0,0,1,1.26,0,1.86,1.86,0,0,1,.92.7,2.44,2.44,0,0,1,.4,1.24,2.17,2.17,0,0,1,2.78-1,2.76,2.76,0,0,1,1.64,1.56,3.35,3.35,0,0,1,.08,2.44,3.12,3.12,0,0,1-1.3,1.77A2.86,2.86,0,0,1,207.56,252.14Z"/><path class="9aa67920-57b0-4b84-889d-efe2d50577a7" d="M213.61,239.71l1,.47c-1.07,2.28-1.56,3.44-2.45,5.78a2,2,0,0,1-.69-.41,4,4,0,0,1-.88-1.17,10.45,10.45,0,0,1-.72-2,16.16,16.16,0,0,0-.94-2.81,2.28,2.28,0,0,0-1-1.1,1.44,1.44,0,0,0-1.27,0,2.08,2.08,0,0,0-1,1.12,2.1,2.1,0,0,0-.11,1.56,1.75,1.75,0,0,0,1.06,1l-.58,1.16a2.71,2.71,0,0,1-1.5-1.67,3.67,3.67,0,0,1,.27-2.48,3.51,3.51,0,0,1,1.65-1.91,2.28,2.28,0,0,1,2,0,2.61,2.61,0,0,1,.89.7,4.48,4.48,0,0,1,.69,1.22c.2.51.44,1.31.74,2.38a16,16,0,0,0,.55,1.73,3.61,3.61,0,0,0,.39.7C212.43,242.3,212.8,241.43,213.61,239.71Z"/><text class="51670a78-e910-4523-8816-d9b01578a243" transform="translate(285.05 313.21) rotate(-0.14)"><tspan class="f3669a2e-5214-4f39-9aa5-7fc38452fee6">PSC </tspan><tspan class="48018379-ae44-493c-938b-46301d6b05cc" x="35.01" y="0">17</tspan></text><text class="afb27135-ced9-4769-ab89-210214f9d32d" transform="translate(166.75 313.22) rotate(-0.14)"><tspan class="f3669a2e-5214-4f39-9aa5-7fc38452fee6">JxC</tspan><tspan class="d0a6ccfa-1ada-472a-9593-00a29b6543e7" x="23.85" y="0">A</tspan><tspan class="f3669a2e-5214-4f39-9aa5-7fc38452fee6" x="32.27" y="0">T </tspan><tspan class="48018379-ae44-493c-938b-46301d6b05cc" x="43.82" y="0">34</tspan></text><text class="afb27135-ced9-4769-ab89-210214f9d32d" transform="translate(189.87 343.2) rotate(-0.14)"><tspan class="f3669a2e-5214-4f39-9aa5-7fc38452fee6">CU</tspan><tspan class="e035af73-c55c-4e99-ab4e-13b7daa9dac8" x="18.78" y="0">P</tspan><tspan class="f3669a2e-5214-4f39-9aa5-7fc38452fee6" x="27.21" y="0"> </tspan><tspan class="48018379-ae44-493c-938b-46301d6b05cc" x="30.82" y="0">4</tspan></text><text class="afb27135-ced9-4769-ab89-210214f9d32d" transform="translate(286.92 286.19) rotate(-0.14)"><tspan class="f3669a2e-5214-4f39-9aa5-7fc38452fee6">P</tspan><tspan class="e035af73-c55c-4e99-ab4e-13b7daa9dac8" x="8.67" y="0">P</tspan><tspan class="f3669a2e-5214-4f39-9aa5-7fc38452fee6" x="17.11" y="0"> </tspan><tspan class="48018379-ae44-493c-938b-46301d6b05cc" x="20.72" y="0">4</tspan></text><path class="9aa67920-57b0-4b84-889d-efe2d50577a7" d="M390.57,269.35l10.61-1.67c.25,1.62.36,2.44.53,4.07a14.22,14.22,0,0,1,.1,3,3.22,3.22,0,0,1-.95,1.86,3,3,0,0,1-2.06.8,3.26,3.26,0,0,1-1.68-.33,3.17,3.17,0,0,1-1.11-.94,3.66,3.66,0,0,1-.58-1.18,17.37,17.37,0,0,1-.37-2.41c-.06-.61-.1-.91-.17-1.52l-4,.5C390.77,270.67,390.7,270.23,390.57,269.35Zm9.16,1.09-3,.38c.07.52.1.78.15,1.31a7.59,7.59,0,0,0,.35,1.88,1.6,1.6,0,0,0,.58.71,1.34,1.34,0,0,0,.85.21,1.28,1.28,0,0,0,.94-.46,1.78,1.78,0,0,0,.39-1,11.67,11.67,0,0,0-.1-1.79C399.82,271.16,399.79,270.92,399.73,270.44Z"/><path class="9aa67920-57b0-4b84-889d-efe2d50577a7" d="M391.42,279.53l10.74-.13c0,1.63,0,2.45-.05,4.07a14.1,14.1,0,0,1-.33,3,3.22,3.22,0,0,1-1.2,1.69,3,3,0,0,1-2.15.49,3.27,3.27,0,0,1-1.61-.57,3.16,3.16,0,0,1-1-1.09,3.65,3.65,0,0,1-.41-1.25,17,17,0,0,1,0-2.42c0-.61,0-.91,0-1.52l-4.05-.08C391.43,280.86,391.43,280.41,391.42,279.53Zm8.91,2.38-3-.06c0,.52,0,.78,0,1.3a7.43,7.43,0,0,0,.08,1.89,1.6,1.6,0,0,0,.48.78,1.35,1.35,0,0,0,.81.33,1.29,1.29,0,0,0,1-.32,1.76,1.76,0,0,0,.54-1,11.71,11.71,0,0,0,.16-1.78C400.31,282.63,400.32,282.39,400.33,281.91Z"/><path class="9aa67920-57b0-4b84-889d-efe2d50577a7" d="M393.05,293.62c0,.56,0,.84-.09,1.4a3,3,0,0,0-1.75.46,2.06,2.06,0,0,0-.78,1.23,2.31,2.31,0,0,0,.24,1.73,2.16,2.16,0,0,0,1.37,1.06,1.92,1.92,0,0,0,1.61-.23,2.27,2.27,0,0,0,1-1.45,4.16,4.16,0,0,0,.08-1l1.1.41c0,.09-.05.17-.07.23a3.38,3.38,0,0,0,0,1.74,1.58,1.58,0,0,0,2.43.82,2.14,2.14,0,0,0,.81-1.31,2.19,2.19,0,0,0-.15-1.54,2.27,2.27,0,0,0-1.27-1c.21-.56.31-.85.51-1.41a3.18,3.18,0,0,1,1.78,1.62,3.91,3.91,0,0,1,.19,2.58,4.44,4.44,0,0,1-.82,1.75,2.94,2.94,0,0,1-1.33,1,2.38,2.38,0,0,1-1.45.06,2.12,2.12,0,0,1-1.11-.74,2.88,2.88,0,0,1-.56-1.42,2.67,2.67,0,0,1-1.3,1.32,2.6,2.6,0,0,1-1.82.07,3.2,3.2,0,0,1-2-1.68,3.91,3.91,0,0,1-.3-2.8,3.65,3.65,0,0,1,1.33-2.16A3.32,3.32,0,0,1,393.05,293.62Z"/><path class="9aa67920-57b0-4b84-889d-efe2d50577a7" d="M391.37,302.14l1.27.39c-.52,1.68-.8,2.51-1.41,4.16l-1.24-.46C390.59,304.61,390.86,303.79,391.37,302.14Z"/><path class="9aa67920-57b0-4b84-889d-efe2d50577a7" d="M384.87,310.12l2.33,1.08c.83-1.8,1.21-2.71,1.92-4.55l1.13.43a64.15,64.15,0,0,1,4.25,7.79L394,316l-6.26-3c-.27.56-.41.85-.7,1.4l-1.08-.55c.28-.55.42-.83.69-1.38l-2.31-1.12C384.53,310.86,384.65,310.61,384.87,310.12Zm3.43,1.58,4.4,2c-1.11-2.21-1.7-3.29-3-5.35C389.2,309.72,388.91,310.39,388.31,311.71Z"/><line class="8a595ce2-6048-43e2-884d-045ee96347c6" x1="221.5" y1="219.5" x2="221.5" y2="299.5"/><line class="8a595ce2-6048-43e2-884d-045ee96347c6" x1="284.5" y1="215" x2="284.5" y2="299"/><line class="8a595ce2-6048-43e2-884d-045ee96347c6" x1="243.5" y1="210" x2="243.5" y2="332"/><line class="8a595ce2-6048-43e2-884d-045ee96347c6" x1="261.5" y1="209" x2="261.5" y2="330.5"/><line class="8a595ce2-6048-43e2-884d-045ee96347c6" x1="222" y1="299.5" x2="170.5" y2="299.5"/><line class="8a595ce2-6048-43e2-884d-045ee96347c6" x1="336" y1="299.5" x2="284.5" y2="299.5"/><line class="8a595ce2-6048-43e2-884d-045ee96347c6" x1="244" y1="331.5" x2="192.5" y2="331.5"/><line class="8a595ce2-6048-43e2-884d-045ee96347c6" x1="313" y1="330.5" x2="261.5" y2="330.5"/></svg>