<svg id="a93ccbf6-ff0a-49da-9bb0-10d9a4b2ccb2" data-name="Capa 1" xmlns="http://www.w3.org/2000/svg" viewBox="0 0 590 543.91"><defs><style>.\30 ed4caf6-c8f5-4b8a-bb5a-f67abe7ec31a,.\33 e23b0bd-effe-486f-8082-b788e482396e,.\34 cec2160-b6e3-4de6-8808-fb06a5e882d4,.\36 2d1884f-b859-4821-b032-3566b89eefc3,.a2f5d1aa-7ba9-4137-adb1-733c491d54a0,.b32e4ba8-c87f-4a11-beb6-7df25c3df3ca,.bb7c66ca-aef4-48d8-b2e0-d20a74a0a14b,.c15437d3-1fb6-47f4-a50f-1f4f45c7d0b7,.e883fe3a-c3ad-4253-b020-7ed837ade1db,.eef1498f-8259-4131-882a-b74866cb3599{fill:none;}.b32e4ba8-c87f-4a11-beb6-7df25c3df3ca{stroke:#d9d9d9;}.e883fe3a-c3ad-4253-b020-7ed837ade1db{stroke:#333;}.\36 66a535b-c495-4c3b-8123-043e4cba85ce,.d11a03a8-b730-4c3d-a230-06dcfeb5ddca{fill:#701538;}.d11a03a8-b730-4c3d-a230-06dcfeb5ddca{stroke:#701538;}.d11a03a8-b730-4c3d-a230-06dcfeb5ddca,.e37f66b8-eb97-47df-ac9f-95b391f0c994,.f5dade9f-56c1-4d20-8399-cc509a32e7ac{stroke-width:3px;}.d11a03a8-b730-4c3d-a230-06dcfeb5ddca,.e37f66b8-eb97-47df-ac9f-95b391f0c994{opacity:0.76;}.\38 eef09c8-2625-4767-acf7-862ffadf4b3d{fill:#387b94;stroke:#387b94;}.ae4399af-9b8a-4def-9fdb-079f21d85b38{fill:#afeeff;stroke:#afeeff;}.\35 b012656-f081-45be-ba53-0b973da35474,.e37f66b8-eb97-47df-ac9f-95b391f0c994,.f5dade9f-56c1-4d20-8399-cc509a32e7ac{fill:#159094;}.e37f66b8-eb97-47df-ac9f-95b391f0c994,.f5dade9f-56c1-4d20-8399-cc509a32e7ac{stroke:#159094;}.f5dade9f-56c1-4d20-8399-cc509a32e7ac{opacity:0.75;}.\30 ed4caf6-c8f5-4b8a-bb5a-f67abe7ec31a,.\33 e23b0bd-effe-486f-8082-b788e482396e,.\36 2d1884f-b859-4821-b032-3566b89eefc3,.a2f5d1aa-7ba9-4137-adb1-733c491d54a0,.bb7c66ca-aef4-48d8-b2e0-d20a74a0a14b,.c15437d3-1fb6-47f4-a50f-1f4f45c7d0b7,.eef1498f-8259-4131-882a-b74866cb3599{stroke:#757575;stroke-width:2px;}.\36 2d1884f-b859-4821-b032-3566b89eefc3{stroke-dasharray:4.24 4.24;}.\33 e23b0bd-effe-486f-8082-b788e482396e{stroke-dasharray:3.58 3.58;}.bb7c66ca-aef4-48d8-b2e0-d20a74a0a14b{stroke-dasharray:3.92 3.92;}.c15437d3-1fb6-47f4-a50f-1f4f45c7d0b7{stroke-dasharray:3.94 3.94;}.a2f5d1aa-7ba9-4137-adb1-733c491d54a0{stroke-dasharray:3.8 3.8;}.\36 08c70b1-ae59-45c4-a6ad-c81ee39b359a{fill:#d9d9d9;}.\30 ed4caf6-c8f5-4b8a-bb5a-f67abe7ec31a{stroke-dasharray:4;}.\34 cec2160-b6e3-4de6-8808-fb06a5e882d4{stroke:#323232;}.\37 51872d8-2c78-4c94-82aa-2458bd7dad1c{font-size:24px;fill:#323232;}.\35 b012656-f081-45be-ba53-0b973da35474,.\36 66a535b-c495-4c3b-8123-043e4cba85ce,.\37 51872d8-2c78-4c94-82aa-2458bd7dad1c,.f3ef0000-5b8d-4883-8213-53d41bcfb213,.fb44fc39-0365-425d-8d68-cd3980795211{font-family:Arial-BoldMT, Arial;font-weight:700;}.ac584488-a587-417c-9d73-64ab8ee3d868{font-size:13px;}.ac584488-a587-417c-9d73-64ab8ee3d868,.b09e284e-3ee0-4136-961d-72c82438459b,.f3ef0000-5b8d-4883-8213-53d41bcfb213,.f41cbb02-893b-4ed1-8b06-515f4aee7182,.fb44fc39-0365-425d-8d68-cd3980795211{fill:#757575;}.ac584488-a587-417c-9d73-64ab8ee3d868,.b09e284e-3ee0-4136-961d-72c82438459b,.f41cbb02-893b-4ed1-8b06-515f4aee7182{font-family:ArialMT, Arial;}.f41cbb02-893b-4ed1-8b06-515f4aee7182{font-size:14px;}.\35 b012656-f081-45be-ba53-0b973da35474,.\36 66a535b-c495-4c3b-8123-043e4cba85ce,.f3ef0000-5b8d-4883-8213-53d41bcfb213{font-size:16px;}.fb44fc39-0365-425d-8d68-cd3980795211{font-size:15px;}.b09e284e-3ee0-4136-961d-72c82438459b{font-size:12px;}.\36 42fea39-71e8-4f0a-83bc-c504f1cb4ac3{letter-spacing:-0.06em;}.a9f25b47-66da-4b55-a1fe-2c5f2ef70985{letter-spacing:-0.07em;}</style></defs><title>2018.01_PiramidePoblacion</title><path class="b32e4ba8-c87f-4a11-beb6-7df25c3df3ca" d="M397.68,80V495" transform="translate(-3 -8.09)"/><path class="b32e4ba8-c87f-4a11-beb6-7df25c3df3ca" d="M368.24,80V496" transform="translate(-3 -8.09)"/><path class="b32e4ba8-c87f-4a11-beb6-7df25c3df3ca" d="M339,80V496" transform="translate(-3 -8.09)"/><path class="b32e4ba8-c87f-4a11-beb6-7df25c3df3ca" d="M456.64,80V495" transform="translate(-3 -8.09)"/><path class="b32e4ba8-c87f-4a11-beb6-7df25c3df3ca" d="M427.2,80V495" transform="translate(-3 -8.09)"/><path class="e883fe3a-c3ad-4253-b020-7ed837ade1db" d="M309.52,81.56V273" transform="translate(-3 -8.09)"/><rect class="d11a03a8-b730-4c3d-a230-06dcfeb5ddca" x="307.67" y="252.35" width="76.38" height="3.26"/><rect class="d11a03a8-b730-4c3d-a230-06dcfeb5ddca" x="307.67" y="243.38" width="76.38" height="3.26"/><rect class="d11a03a8-b730-4c3d-a230-06dcfeb5ddca" x="307.67" y="234.4" width="73.44" height="3.26"/><rect class="d11a03a8-b730-4c3d-a230-06dcfeb5ddca" x="307.67" y="225.63" width="70.49" height="3.26"/><rect class="d11a03a8-b730-4c3d-a230-06dcfeb5ddca" x="307.67" y="216.66" width="79.33" height="3.26"/><rect class="d11a03a8-b730-4c3d-a230-06dcfeb5ddca" x="307.67" y="207.68" width="94.05" height="3.26"/><rect class="d11a03a8-b730-4c3d-a230-06dcfeb5ddca" x="307.67" y="198.91" width="102.88" height="3.26"/><rect class="d11a03a8-b730-4c3d-a230-06dcfeb5ddca" x="307.67" y="189.94" width="102.88" height="3.26"/><rect class="d11a03a8-b730-4c3d-a230-06dcfeb5ddca" x="307.67" y="180.96" width="102.88" height="3.26"/><rect class="d11a03a8-b730-4c3d-a230-06dcfeb5ddca" x="307.67" y="172.19" width="102.88" height="3.26"/><rect class="d11a03a8-b730-4c3d-a230-06dcfeb5ddca" x="307.67" y="163.22" width="108.77" height="3.26"/><rect class="d11a03a8-b730-4c3d-a230-06dcfeb5ddca" x="307.67" y="154.45" width="108.77" height="3.26"/><rect class="d11a03a8-b730-4c3d-a230-06dcfeb5ddca" x="307.67" y="145.47" width="102.88" height="3.26"/><rect class="d11a03a8-b730-4c3d-a230-06dcfeb5ddca" x="307.67" y="136.5" width="88.16" height="3.26"/><rect class="d11a03a8-b730-4c3d-a230-06dcfeb5ddca" x="307.67" y="127.73" width="67.55" height="3.26"/><rect class="d11a03a8-b730-4c3d-a230-06dcfeb5ddca" x="307.67" y="118.75" width="61.66" height="3.26"/><rect class="d11a03a8-b730-4c3d-a230-06dcfeb5ddca" x="307.67" y="109.78" width="50.05" height="3.26"/><rect class="d11a03a8-b730-4c3d-a230-06dcfeb5ddca" x="307.67" y="101.01" width="29.44" height="3.26"/><rect class="d11a03a8-b730-4c3d-a230-06dcfeb5ddca" x="307.67" y="92.03" width="14.72" height="3.26"/><polygon class="8eef09c8-2625-4767-acf7-862ffadf4b3d" points="306.52 86.52 306.52 86.52 306.52 89.79 306.52 86.52"/><polygon class="ae4399af-9b8a-4def-9fdb-079f21d85b38" points="306.52 83.06 306.52 83.06 306.52 86.32 306.52 83.06"/><polygon class="8eef09c8-2625-4767-acf7-862ffadf4b3d" points="306.52 77.75 306.52 77.75 306.52 81.02 306.52 77.75"/><polygon class="ae4399af-9b8a-4def-9fdb-079f21d85b38" points="306.52 74.29 306.52 74.29 306.52 77.55 306.52 74.29"/><path class="b32e4ba8-c87f-4a11-beb6-7df25c3df3ca" d="M250.28,81V495.83" transform="translate(-3 -8.09)"/><path class="b32e4ba8-c87f-4a11-beb6-7df25c3df3ca" d="M220.84,81V495.83" transform="translate(-3 -8.09)"/><path class="b32e4ba8-c87f-4a11-beb6-7df25c3df3ca" d="M191.56,81V495.83" transform="translate(-3 -8.09)"/><path class="b32e4ba8-c87f-4a11-beb6-7df25c3df3ca" d="M279.8,81V495.83" transform="translate(-3 -8.09)"/><path class="b32e4ba8-c87f-4a11-beb6-7df25c3df3ca" d="M161.84,81V495.83" transform="translate(-3 -8.09)"/><path class="b32e4ba8-c87f-4a11-beb6-7df25c3df3ca" d="M132.4,81V495.83" transform="translate(-3 -8.09)"/><path class="b32e4ba8-c87f-4a11-beb6-7df25c3df3ca" d="M103.12,81V495.83" transform="translate(-3 -8.09)"/><path class="b32e4ba8-c87f-4a11-beb6-7df25c3df3ca" d="M74,80V495" transform="translate(-3 -8.09)"/><path class="b32e4ba8-c87f-4a11-beb6-7df25c3df3ca" d="M515.6,80V496" transform="translate(-3 -8.09)"/><path class="b32e4ba8-c87f-4a11-beb6-7df25c3df3ca" d="M486.16,80V495" transform="translate(-3 -8.09)"/><path class="b32e4ba8-c87f-4a11-beb6-7df25c3df3ca" d="M545.12,80V495" transform="translate(-3 -8.09)"/><path class="b32e4ba8-c87f-4a11-beb6-7df25c3df3ca" d="M574,80V495" transform="translate(-3 -8.09)"/><rect class="f5dade9f-56c1-4d20-8399-cc509a32e7ac" x="225.66" y="252.19" width="79.33" height="3.26"/><rect class="f5dade9f-56c1-4d20-8399-cc509a32e7ac" x="222.71" y="243.22" width="82.27" height="3.26"/><rect class="f5dade9f-56c1-4d20-8399-cc509a32e7ac" x="228.6" y="234.24" width="76.38" height="3.26"/><rect class="f5dade9f-56c1-4d20-8399-cc509a32e7ac" x="228.6" y="225.47" width="76.38" height="3.26"/><rect class="f5dade9f-56c1-4d20-8399-cc509a32e7ac" x="222.71" y="216.5" width="82.27" height="3.26"/><rect class="f5dade9f-56c1-4d20-8399-cc509a32e7ac" x="205.05" y="207.52" width="99.93" height="3.26"/><rect class="f5dade9f-56c1-4d20-8399-cc509a32e7ac" x="199.16" y="198.75" width="105.82" height="3.26"/><rect class="f5dade9f-56c1-4d20-8399-cc509a32e7ac" x="202.1" y="189.78" width="102.88" height="3.26"/><rect class="f5dade9f-56c1-4d20-8399-cc509a32e7ac" x="202.1" y="180.8" width="102.88" height="3.26"/><rect class="f5dade9f-56c1-4d20-8399-cc509a32e7ac" x="205.05" y="172.03" width="99.93" height="3.26"/><rect class="f5dade9f-56c1-4d20-8399-cc509a32e7ac" x="202.1" y="163.06" width="102.88" height="3.26"/><rect class="f5dade9f-56c1-4d20-8399-cc509a32e7ac" x="205.05" y="154.29" width="99.93" height="3.26"/><rect class="f5dade9f-56c1-4d20-8399-cc509a32e7ac" x="216.82" y="145.31" width="88.16" height="3.26"/><rect class="f5dade9f-56c1-4d20-8399-cc509a32e7ac" x="231.54" y="136.34" width="73.44" height="3.26"/><rect class="f5dade9f-56c1-4d20-8399-cc509a32e7ac" x="251.99" y="127.57" width="52.99" height="3.26"/><rect class="f5dade9f-56c1-4d20-8399-cc509a32e7ac" x="263.76" y="118.59" width="41.22" height="3.26"/><rect class="f5dade9f-56c1-4d20-8399-cc509a32e7ac" x="275.54" y="109.62" width="29.44" height="3.26"/><rect class="f5dade9f-56c1-4d20-8399-cc509a32e7ac" x="290.26" y="100.84" width="14.72" height="3.26"/><rect class="f5dade9f-56c1-4d20-8399-cc509a32e7ac" x="299.09" y="91.87" width="5.89" height="3.26"/><path class="eef1498f-8259-4131-882a-b74866cb3599" d="M229.77,263.93,212,254.82,206,245.72v-9.11l-3-9.11-3-9.11-3-9.11-3-9.11,5.93-9.11L209,182l20.77-9.11,3-9.11,5.93-9.11,8.9-9.11,14.84-9.11,23.74-9.11,8.9-9.11,5.93-9.11,5.93-9.11,3-9.11V81.81" transform="translate(-3 -8.09)"/><path class="eef1498f-8259-4131-882a-b74866cb3599" d="M309.89,81.69V90.8l8.79,9.11L333.32,109l8.79,9.11,14.64,9.11,26.36,9.11,5.86,9.11,2.93,9.11,2.93,9.11-2.93,9.11,20.5,9.11,5.86,9.11,5.86,9.11-2.93,9.11-5.86,9.11-5.86,9.11V245.7l-8.79,9.11L386,263.93" transform="translate(-3 -8.09)"/><line class="eef1498f-8259-4131-882a-b74866cb3599" x1="236.82" y1="255.48" x2="236.21" y2="253.58"/><polyline class="62d1884f-b859-4821-b032-3566b89eefc3" points="234.93 249.54 233.93 246.39 231.04 237.29 225.26 228.2 222.37 219.11 222.37 210.01 225.26 200.92 226.9 195.75"/><polyline class="eef1498f-8259-4131-882a-b74866cb3599" points="227.54 193.73 228.15 191.82 227.07 190.14"/><polyline class="3e23b0bd-effe-486f-8082-b788e482396e" points="225.15 187.11 222.37 182.73 210.81 173.64 207.07 167.74"/><polyline class="eef1498f-8259-4131-882a-b74866cb3599" points="206.11 166.23 205.03 164.54 206.11 162.85"/><polyline class="bb7c66ca-aef4-48d8-b2e0-d20a74a0a14b" points="208.21 159.55 210.81 155.45 216.59 146.35 222.37 137.26 228.15 128.16 242.59 119.07 262.82 109.98 280.16 100.88 294.6 91.79 303.27 82.69 304.96 77.37"/><line class="eef1498f-8259-4131-882a-b74866cb3599" x1="305.55" y1="75.51" x2="306.16" y2="73.6"/><line class="eef1498f-8259-4131-882a-b74866cb3599" x1="306.16" y1="73.6" x2="307.23" y2="75.29"/><polyline class="c15437d3-1fb6-47f4-a50f-1f4f45c7d0b7" points="309.35 78.61 311.97 82.71 326.48 91.82 349.71 100.93 372.93 110.05 393.25 119.16 401.96 128.27 401.96 137.38 404.87 146.49 407.77 155.6 407.77 164.72 404.87 173.83 390.35 182.94 384.39 189.18"/><polyline class="eef1498f-8259-4131-882a-b74866cb3599" points="383.02 190.6 381.64 192.05 382.25 193.96"/><polyline class="a2f5d1aa-7ba9-4137-adb1-733c491d54a0" points="383.4 197.57 384.55 201.16 387.45 210.28 387.45 219.39 381.64 228.5 378.74 237.61 372.93 246.72 372.93 251.94"/><line class="eef1498f-8259-4131-882a-b74866cb3599" x1="372.93" y1="253.83" x2="372.93" y2="255.83"/><line class="b32e4ba8-c87f-4a11-beb6-7df25c3df3ca" x1="42" y1="487.91" x2="42" y2="289.94"/><path class="608c70b1-ae59-45c4-a6ad-c81ee39b359a" d="M45,292a30.22,30.22,0,0,0,4.76,8.55L45,298.83l-4.75,1.72A30.2,30.2,0,0,0,45,292Z" transform="translate(-3 -8.09)"/><line class="b32e4ba8-c87f-4a11-beb6-7df25c3df3ca" x1="42" y1="263.59" x2="42" y2="77.94"/><path class="608c70b1-ae59-45c4-a6ad-c81ee39b359a" d="M45,80a30.22,30.22,0,0,0,4.76,8.55L45,86.83l-4.75,1.72A30.2,30.2,0,0,0,45,80Z" transform="translate(-3 -8.09)"/><rect class="e37f66b8-eb97-47df-ac9f-95b391f0c994" x="76.24" y="455.39" width="229.28" height="2.83"/><rect class="e37f66b8-eb97-47df-ac9f-95b391f0c994" x="102.77" y="447.61" width="202.75" height="2.83"/><rect class="e37f66b8-eb97-47df-ac9f-95b391f0c994" x="129.31" y="438.09" width="176.21" height="2.95"/><rect class="e37f66b8-eb97-47df-ac9f-95b391f0c994" x="152.78" y="429.97" width="152.74" height="2.95"/><rect class="e37f66b8-eb97-47df-ac9f-95b391f0c994" x="173.19" y="421.85" width="132.33" height="2.95"/><rect class="e37f66b8-eb97-47df-ac9f-95b391f0c994" x="187.82" y="413.55" width="117.7" height="2.95"/><rect class="e37f66b8-eb97-47df-ac9f-95b391f0c994" x="202.79" y="405.43" width="102.74" height="2.95"/><rect class="e37f66b8-eb97-47df-ac9f-95b391f0c994" x="220.14" y="397.31" width="85.39" height="2.95"/><rect class="e37f66b8-eb97-47df-ac9f-95b391f0c994" x="237.83" y="389.19" width="67.7" height="2.95"/><rect class="e37f66b8-eb97-47df-ac9f-95b391f0c994" x="252.45" y="381.07" width="53.07" height="2.95"/><rect class="e37f66b8-eb97-47df-ac9f-95b391f0c994" x="261.3" y="372.77" width="44.22" height="2.95"/><rect class="e37f66b8-eb97-47df-ac9f-95b391f0c994" x="270.14" y="364.65" width="35.38" height="2.95"/><rect class="e37f66b8-eb97-47df-ac9f-95b391f0c994" x="278.99" y="356.53" width="26.53" height="2.95"/><rect class="e37f66b8-eb97-47df-ac9f-95b391f0c994" x="285.11" y="348.41" width="20.41" height="2.95"/><rect class="e37f66b8-eb97-47df-ac9f-95b391f0c994" x="293.62" y="340.29" width="11.91" height="2.95"/><rect class="e37f66b8-eb97-47df-ac9f-95b391f0c994" x="296.68" y="332.21" width="8.84" height="2.83"/><rect class="e37f66b8-eb97-47df-ac9f-95b391f0c994" x="302.46" y="324.43" width="3.06" height="2.83"/><rect class="e37f66b8-eb97-47df-ac9f-95b391f0c994" x="301.32" y="316.65" width="3.06" height="2.83"/><polygon class="8eef09c8-2625-4767-acf7-862ffadf4b3d" points="306.66 317.71 306.66 314.88 306.66 314.88 306.66 317.71"/><polygon class="ae4399af-9b8a-4def-9fdb-079f21d85b38" points="306.66 314.7 306.66 311.87 306.66 311.87 306.66 314.7"/><polygon class="8eef09c8-2625-4767-acf7-862ffadf4b3d" points="306.66 309.93 306.66 307.1 306.66 307.1 306.66 309.93"/><polygon class="ae4399af-9b8a-4def-9fdb-079f21d85b38" points="306.66 306.93 306.66 304.1 306.66 304.1 306.66 306.93"/><polygon class="8eef09c8-2625-4767-acf7-862ffadf4b3d" points="306.66 301.98 306.66 299.15 306.66 299.15 306.66 301.98"/><polygon class="ae4399af-9b8a-4def-9fdb-079f21d85b38" points="306.66 298.97 306.66 296.14 306.66 296.14 306.66 298.97"/><rect class="d11a03a8-b730-4c3d-a230-06dcfeb5ddca" x="308.39" y="455.3" width="223.5" height="2.83"/><rect class="d11a03a8-b730-4c3d-a230-06dcfeb5ddca" x="308.39" y="447.52" width="196.97" height="2.83"/><rect class="d11a03a8-b730-4c3d-a230-06dcfeb5ddca" x="308.39" y="438" width="170.43" height="2.95"/><rect class="d11a03a8-b730-4c3d-a230-06dcfeb5ddca" x="308.39" y="429.88" width="150.02" height="2.95"/><rect class="d11a03a8-b730-4c3d-a230-06dcfeb5ddca" x="308.39" y="421.76" width="129.27" height="2.95"/><rect class="d11a03a8-b730-4c3d-a230-06dcfeb5ddca" x="308.39" y="413.45" width="117.7" height="2.95"/><rect class="d11a03a8-b730-4c3d-a230-06dcfeb5ddca" x="308.39" y="405.33" width="102.74" height="2.95"/><rect class="d11a03a8-b730-4c3d-a230-06dcfeb5ddca" x="308.39" y="397.22" width="85.39" height="2.95"/><rect class="d11a03a8-b730-4c3d-a230-06dcfeb5ddca" x="308.39" y="389.1" width="67.7" height="2.95"/><rect class="d11a03a8-b730-4c3d-a230-06dcfeb5ddca" x="308.39" y="380.98" width="55.79" height="2.95"/><rect class="d11a03a8-b730-4c3d-a230-06dcfeb5ddca" x="308.39" y="372.67" width="46.95" height="2.95"/><rect class="d11a03a8-b730-4c3d-a230-06dcfeb5ddca" x="308.39" y="364.55" width="38.1" height="2.95"/><rect class="d11a03a8-b730-4c3d-a230-06dcfeb5ddca" x="308.39" y="356.43" width="29.26" height="2.95"/><rect class="d11a03a8-b730-4c3d-a230-06dcfeb5ddca" x="308.39" y="348.31" width="23.47" height="2.95"/><rect class="d11a03a8-b730-4c3d-a230-06dcfeb5ddca" x="308.39" y="340.2" width="14.63" height="2.95"/><rect class="d11a03a8-b730-4c3d-a230-06dcfeb5ddca" x="308.39" y="332.12" width="8.84" height="2.83"/><rect class="d11a03a8-b730-4c3d-a230-06dcfeb5ddca" x="308.39" y="324.34" width="5.78" height="2.83"/><rect class="d11a03a8-b730-4c3d-a230-06dcfeb5ddca" x="308.39" y="316.57" width="3.06" height="2.83"/><path class="eef1498f-8259-4131-882a-b74866cb3599" d="M65.76,465.37l32.32-8.32,23.51-8.32L151,440.41l26.45-8.32,23.51-8.32,17.63-8.32,14.69-8.32L248,398.8l11.75-8.32,8.82-8.32,8.82-8.32,5.88-8.32,5.88-8.32,8.82-8.32,2.94-8.32,5.88-8.32,2.94-8.32V299" transform="translate(-3 -8.09)"/><path class="eef1498f-8259-4131-882a-b74866cb3599" d="M309.66,299V315.5l3.13,8.28,3.13,8.28,3.13,8.28,6.26,8.28,9.39,8.28,6.26,8.28,6.26,8.28,9.39,8.28L366,390l12.52,8.28L391,406.55l15.65,8.28,18.78,8.28,25,8.28,28.17,8.28,28.17,8.28,25,8.28,31.3,8.28" transform="translate(-3 -8.09)"/><path class="0ed4caf6-c8f5-4b8a-bb5a-f67abe7ec31a" d="M118.66,465.37l14.69-8.32L148,448.73l11.75-8.32,11.75-8.32,14.69-8.32,17.63-8.32,14.69-8.32,14.69-8.32,8.82-8.32,11.75-8.32,11.75-8.32,8.82-8.32,11.75-8.32,5.88-8.32,5.88-8.32,5.88-8.32,2.94-8.32,2.94-8.32V299" transform="translate(-3 -8.09)"/><path class="0ed4caf6-c8f5-4b8a-bb5a-f67abe7ec31a" d="M309.66,299V315.5l3.13,8.28,6.26,8.28,6.26,8.28,6.26,8.28,6.26,8.28,9.39,8.28,12.52,8.28,12.52,8.28,9.39,8.28,9.39,8.28,12.52,8.28,15.65,8.28L438,423.1l15.65,8.28,12.52,8.28,12.19,8,12.78,8.25,15.71,8.57" transform="translate(-3 -8.09)"/><path class="4cec2160-b6e3-4de6-8808-fb06a5e882d4" d="M309.52,81.56V273" transform="translate(-3 -8.09)"/><path class="4cec2160-b6e3-4de6-8808-fb06a5e882d4" d="M309.66,486.69V298.08" transform="translate(-3 -8.09)"/><text class="751872d8-2c78-4c94-82aa-2458bd7dad1c" transform="translate(27.09 20.59)">Población por género y franja de edad en 2017 </text><text class="ac584488-a587-417c-9d73-64ab8ee3d868" transform="translate(2 64.71)">Edad</text><text class="ac584488-a587-417c-9d73-64ab8ee3d868" transform="translate(537 48.71)">2037</text><text class="ac584488-a587-417c-9d73-64ab8ee3d868" transform="translate(433 48.71)">1997</text><text class="ac584488-a587-417c-9d73-64ab8ee3d868" transform="translate(432 504.71)">Porcentaje de población</text><text class="f41cbb02-893b-4ed1-8b06-515f4aee7182" transform="translate(22.11 255.43)">0</text><text class="f41cbb02-893b-4ed1-8b06-515f4aee7182" transform="translate(16.21 220.43)">20</text><text class="f41cbb02-893b-4ed1-8b06-515f4aee7182" transform="translate(17.21 183.43)">40</text><text class="f41cbb02-893b-4ed1-8b06-515f4aee7182" transform="translate(17.21 148.43)">60</text><text class="f41cbb02-893b-4ed1-8b06-515f4aee7182" transform="translate(17.21 111.43)">80</text><text class="f41cbb02-893b-4ed1-8b06-515f4aee7182" transform="translate(1.23 83.43)">+100</text><text class="f41cbb02-893b-4ed1-8b06-515f4aee7182" transform="translate(25.11 462.43)">0</text><text class="f41cbb02-893b-4ed1-8b06-515f4aee7182" transform="translate(18.21 425.43)">20</text><text class="f41cbb02-893b-4ed1-8b06-515f4aee7182" transform="translate(17.21 391.43)">40</text><text class="f41cbb02-893b-4ed1-8b06-515f4aee7182" transform="translate(17.21 360.43)">60</text><text class="f41cbb02-893b-4ed1-8b06-515f4aee7182" transform="translate(17.21 325.43)">80</text><text class="f41cbb02-893b-4ed1-8b06-515f4aee7182" transform="translate(2.23 294.43)">+100</text><text class="666a535b-c495-4c3b-8123-043e4cba85ce" transform="translate(507.26 97.18)">Mujeres</text><text class="f3ef0000-5b8d-4883-8213-53d41bcfb213" transform="translate(281.93 67.18)">Europa</text><text class="f3ef0000-5b8d-4883-8213-53d41bcfb213" transform="translate(283.82 285.18)">África</text><text class="5b012656-f081-45be-ba53-0b973da35474" transform="translate(46.32 98.31)">Hombres</text><text class="fb44fc39-0365-425d-8d68-cd3980795211" transform="translate(280.5 478.65)">1</text><text class="fb44fc39-0365-425d-8d68-cd3980795211" transform="translate(327.5 478.65)">1</text><text class="fb44fc39-0365-425d-8d68-cd3980795211" transform="translate(354.5 478.65)">2</text><text class="fb44fc39-0365-425d-8d68-cd3980795211" transform="translate(384.5 478.65)">3</text><text class="fb44fc39-0365-425d-8d68-cd3980795211" transform="translate(413.5 478.65)">4</text><text class="fb44fc39-0365-425d-8d68-cd3980795211" transform="translate(443.5 478.65)">5</text><text class="fb44fc39-0365-425d-8d68-cd3980795211" transform="translate(469.5 478.65)">6</text><text class="fb44fc39-0365-425d-8d68-cd3980795211" transform="translate(501.5 478.65)">7</text><text class="fb44fc39-0365-425d-8d68-cd3980795211" transform="translate(531.5 478.65)">8</text><text class="fb44fc39-0365-425d-8d68-cd3980795211" transform="translate(560.5 478.65)">9</text><text class="fb44fc39-0365-425d-8d68-cd3980795211" transform="translate(250.5 478.65)">2</text><text class="fb44fc39-0365-425d-8d68-cd3980795211" transform="translate(221.5 478.65)">3</text><text class="fb44fc39-0365-425d-8d68-cd3980795211" transform="translate(192.5 478.65)">4</text><text class="fb44fc39-0365-425d-8d68-cd3980795211" transform="translate(162.5 478.65)">5</text><text class="fb44fc39-0365-425d-8d68-cd3980795211" transform="translate(133.5 478.65)">6</text><text class="fb44fc39-0365-425d-8d68-cd3980795211" transform="translate(104.5 478.65)">7</text><text class="fb44fc39-0365-425d-8d68-cd3980795211" transform="translate(74.5 478.65)">8</text><text class="fb44fc39-0365-425d-8d68-cd3980795211" transform="translate(44.5 478.65)">9</text><text x="-3" y="-8.09"></text><text class="b09e284e-3ee0-4136-961d-72c82438459b" transform="translate(406 535.17)">Laura<tspan class="642fea39-71e8-4f0a-83bc-c504f1cb4ac3" x="30.69" y="0"> </tspan><tspan x="33.36" y="0">Aragó | L</tspan><tspan class="642fea39-71e8-4f0a-83bc-c504f1cb4ac3" x="81.84" y="0">A</tspan><tspan x="89.19" y="0"> </tspan><tspan class="a9f25b47-66da-4b55-a1fe-2c5f2ef70985" x="92.52" y="0">V</tspan><tspan x="99.63" y="0">ANGUARDI</tspan><tspan class="642fea39-71e8-4f0a-83bc-c504f1cb4ac3" x="162.97" y="0">A</tspan></text><text class="b09e284e-3ee0-4136-961d-72c82438459b" transform="translate(1 535.17)">Fuente: PopulationPyramid.net</text><line class="0ed4caf6-c8f5-4b8a-bb5a-f67abe7ec31a" x1="500" y1="44.91" x2="528" y2="44.91"/><line class="eef1498f-8259-4131-882a-b74866cb3599" x1="397" y1="44.91" x2="425" y2="44.91"/><path class="eef1498f-8259-4131-882a-b74866cb3599" d="M78,42" transform="translate(-3 -8.09)"/></svg>