<svg id="999b6864-121e-45f9-bbe5-43b54ff4d224" data-name="Capa 1" xmlns="http://www.w3.org/2000/svg" viewBox="0 0 530 790"><defs><style>.\31 bf98ec0-4f7e-467b-aeaf-8601d3704d40{fill:#fee6ce;}.\30 c0cf573-1243-4356-bb18-f5c6c965d9e1,.\31 bf98ec0-4f7e-467b-aeaf-8601d3704d40,.\33 83ff8c4-e5c6-4b7d-885a-26d3c94d58aa,.\34 5136795-f8da-4e1a-bfb4-5ab91aed83ac,.\34 8401e45-bfbe-4628-9644-e6d8db161ac7,.\35 bb2ba23-05ee-48a1-a7c5-e147d054f927,.\35 dd3be2d-f1b4-406c-ab2d-c26b48dcb30f,.\36 db5f630-180a-45a5-a6df-ebbfb792ac70,.bf5e0429-915e-406a-9364-d49bba9f48b3{stroke:#fff;stroke-miterlimit:10;}.\34 8401e45-bfbe-4628-9644-e6d8db161ac7{fill:#fdd0a2;}.bf5e0429-915e-406a-9364-d49bba9f48b3{fill:#fff5eb;}.\35 bb2ba23-05ee-48a1-a7c5-e147d054f927{fill:#fdae6b;}.\30 c0cf573-1243-4356-bb18-f5c6c965d9e1{fill:#fd8d3c;}.\35 dd3be2d-f1b4-406c-ab2d-c26b48dcb30f{fill:#f16913;}.\34 5136795-f8da-4e1a-bfb4-5ab91aed83ac{fill:#d94801;}.\33 83ff8c4-e5c6-4b7d-885a-26d3c94d58aa{fill:#a63603;}.\36 db5f630-180a-45a5-a6df-ebbfb792ac70{fill:#7f2704;}.\34 d61d127-b59d-497a-b75c-e1e4f4f4ba59{font-size:14px;fill:#757575;font-family:ArialMT, Arial;}.\37 1e0ea0e-653e-433e-9af3-f462c22e0297{letter-spacing:-0.01em;}.b6195d3f-7f5c-4cd9-8f87-12342911d0f4{letter-spacing:-0.05em;}.e595073c-2204-46dd-8055-b62b7aefaa2c{letter-spacing:0.01em;}.\33 255a3b4-749e-4764-9f07-af6a28862e5a{font-size:20px;fill:#323232;font-family:Arial-BoldMT, Arial;font-weight:700;}.f569d0d5-6daf-4539-afb3-b08c0c1f3ef2{letter-spacing:-0.06em;}.\37 9e3aff2-ebc4-417c-8d87-0c415ec3aa15{letter-spacing:-0.07em;}</style></defs><title>2018.05_ExportacionCafe</title><rect class="1bf98ec0-4f7e-467b-aeaf-8601d3704d40" x="23.64" y="622.07" width="44.08" height="20.17"/><rect class="48401e45-bfbe-4628-9644-e6d8db161ac7" x="23.64" y="601.9" width="44.08" height="20.17"/><rect class="1bf98ec0-4f7e-467b-aeaf-8601d3704d40" x="23.64" y="581.72" width="44.08" height="20.17"/><rect class="1bf98ec0-4f7e-467b-aeaf-8601d3704d40" x="23.64" y="561.55" width="44.08" height="20.17"/><rect class="1bf98ec0-4f7e-467b-aeaf-8601d3704d40" x="23.64" y="541.38" width="44.08" height="20.17"/><rect class="bf5e0429-915e-406a-9364-d49bba9f48b3" x="23.64" y="521.2" width="44.08" height="20.17"/><rect class="bf5e0429-915e-406a-9364-d49bba9f48b3" x="23.64" y="501.03" width="44.08" height="20.17"/><rect class="1bf98ec0-4f7e-467b-aeaf-8601d3704d40" x="23.64" y="480.86" width="44.08" height="20.17"/><rect class="1bf98ec0-4f7e-467b-aeaf-8601d3704d40" x="23.64" y="460.68" width="44.08" height="20.17"/><rect class="5bb2ba23-05ee-48a1-a7c5-e147d054f927" x="23.64" y="440.51" width="44.08" height="20.17"/><rect class="1bf98ec0-4f7e-467b-aeaf-8601d3704d40" x="23.64" y="420.34" width="44.08" height="20.17"/><rect class="5bb2ba23-05ee-48a1-a7c5-e147d054f927" x="23.64" y="400.16" width="44.08" height="20.17"/><rect class="0c0cf573-1243-4356-bb18-f5c6c965d9e1" x="23.64" y="379.99" width="44.08" height="20.17"/><rect class="5bb2ba23-05ee-48a1-a7c5-e147d054f927" x="23.64" y="359.81" width="44.08" height="20.17"/><rect class="5bb2ba23-05ee-48a1-a7c5-e147d054f927" x="23.64" y="339.64" width="44.08" height="20.17"/><rect class="5bb2ba23-05ee-48a1-a7c5-e147d054f927" x="23.64" y="319.47" width="44.08" height="20.17"/><rect class="0c0cf573-1243-4356-bb18-f5c6c965d9e1" x="23.64" y="299.29" width="44.08" height="20.17"/><rect class="0c0cf573-1243-4356-bb18-f5c6c965d9e1" x="23.64" y="279.12" width="44.08" height="20.17"/><rect class="0c0cf573-1243-4356-bb18-f5c6c965d9e1" x="23.64" y="258.95" width="44.08" height="20.17"/><rect class="5dd3be2d-f1b4-406c-ab2d-c26b48dcb30f" x="23.64" y="238.77" width="44.08" height="20.17"/><rect class="5dd3be2d-f1b4-406c-ab2d-c26b48dcb30f" x="23.64" y="218.6" width="44.08" height="20.17"/><rect class="45136795-f8da-4e1a-bfb4-5ab91aed83ac" x="23.64" y="198.43" width="44.08" height="20.17"/><rect class="0c0cf573-1243-4356-bb18-f5c6c965d9e1" x="23.64" y="178.25" width="44.08" height="20.17"/><rect class="5dd3be2d-f1b4-406c-ab2d-c26b48dcb30f" x="23.64" y="158.08" width="44.08" height="20.17"/><rect class="45136795-f8da-4e1a-bfb4-5ab91aed83ac" x="23.64" y="137.91" width="44.08" height="20.17"/><rect class="45136795-f8da-4e1a-bfb4-5ab91aed83ac" x="23.64" y="117.73" width="44.08" height="20.17"/><rect class="45136795-f8da-4e1a-bfb4-5ab91aed83ac" x="23.64" y="97.56" width="44.08" height="20.17"/><rect class="bf5e0429-915e-406a-9364-d49bba9f48b3" x="67.72" y="622.07" width="44.08" height="20.17"/><rect class="bf5e0429-915e-406a-9364-d49bba9f48b3" x="67.72" y="601.9" width="44.08" height="20.17"/><rect class="1bf98ec0-4f7e-467b-aeaf-8601d3704d40" x="67.72" y="581.72" width="44.08" height="20.17"/><rect class="1bf98ec0-4f7e-467b-aeaf-8601d3704d40" x="67.72" y="561.55" width="44.08" height="20.17"/><rect class="1bf98ec0-4f7e-467b-aeaf-8601d3704d40" x="67.72" y="541.38" width="44.08" height="20.17"/><rect class="1bf98ec0-4f7e-467b-aeaf-8601d3704d40" x="67.72" y="521.2" width="44.08" height="20.17"/><rect class="1bf98ec0-4f7e-467b-aeaf-8601d3704d40" x="67.72" y="501.03" width="44.08" height="20.17"/><rect class="48401e45-bfbe-4628-9644-e6d8db161ac7" x="67.72" y="480.86" width="44.08" height="20.17"/><rect class="48401e45-bfbe-4628-9644-e6d8db161ac7" x="67.72" y="460.68" width="44.08" height="20.17"/><rect class="48401e45-bfbe-4628-9644-e6d8db161ac7" x="67.72" y="440.51" width="44.08" height="20.17"/><rect class="5bb2ba23-05ee-48a1-a7c5-e147d054f927" x="67.72" y="420.34" width="44.08" height="20.17"/><rect class="0c0cf573-1243-4356-bb18-f5c6c965d9e1" x="67.72" y="400.16" width="44.08" height="20.17"/><rect class="5bb2ba23-05ee-48a1-a7c5-e147d054f927" x="67.72" y="379.99" width="44.08" height="20.17"/><rect class="5bb2ba23-05ee-48a1-a7c5-e147d054f927" x="67.72" y="359.81" width="44.08" height="20.17"/><rect class="0c0cf573-1243-4356-bb18-f5c6c965d9e1" x="67.72" y="339.64" width="44.08" height="20.17"/><rect class="5bb2ba23-05ee-48a1-a7c5-e147d054f927" x="67.72" y="319.47" width="44.08" height="20.17"/><rect class="0c0cf573-1243-4356-bb18-f5c6c965d9e1" x="67.72" y="299.29" width="44.08" height="20.17"/><rect class="5dd3be2d-f1b4-406c-ab2d-c26b48dcb30f" x="67.72" y="279.12" width="44.08" height="20.17"/><rect class="0c0cf573-1243-4356-bb18-f5c6c965d9e1" x="67.72" y="258.95" width="44.08" height="20.17"/><rect class="0c0cf573-1243-4356-bb18-f5c6c965d9e1" x="67.72" y="238.77" width="44.08" height="20.17"/><rect class="0c0cf573-1243-4356-bb18-f5c6c965d9e1" x="67.72" y="218.6" width="44.08" height="20.17"/><rect class="0c0cf573-1243-4356-bb18-f5c6c965d9e1" x="67.72" y="198.43" width="44.08" height="20.17"/><rect class="45136795-f8da-4e1a-bfb4-5ab91aed83ac" x="67.72" y="178.25" width="44.08" height="20.17"/><rect class="5dd3be2d-f1b4-406c-ab2d-c26b48dcb30f" x="67.72" y="158.08" width="44.08" height="20.17"/><rect class="383ff8c4-e5c6-4b7d-885a-26d3c94d58aa" x="67.72" y="137.91" width="44.08" height="20.17"/><rect class="5dd3be2d-f1b4-406c-ab2d-c26b48dcb30f" x="67.72" y="117.73" width="44.08" height="20.17"/><rect class="383ff8c4-e5c6-4b7d-885a-26d3c94d58aa" x="67.72" y="97.56" width="44.08" height="20.17"/><rect class="bf5e0429-915e-406a-9364-d49bba9f48b3" x="229.16" y="48.24" width="39.12" height="10.08"/><rect class="1bf98ec0-4f7e-467b-aeaf-8601d3704d40" x="268.27" y="48.24" width="39.12" height="10.08"/><rect class="48401e45-bfbe-4628-9644-e6d8db161ac7" x="307.4" y="48.24" width="39.12" height="10.08"/><rect class="0c0cf573-1243-4356-bb18-f5c6c965d9e1" x="346.52" y="48.24" width="39.12" height="10.08"/><rect class="5dd3be2d-f1b4-406c-ab2d-c26b48dcb30f" x="385.64" y="48.24" width="39.12" height="10.08"/><rect class="45136795-f8da-4e1a-bfb4-5ab91aed83ac" x="424.76" y="48.24" width="39.12" height="10.08"/><rect class="383ff8c4-e5c6-4b7d-885a-26d3c94d58aa" x="463.88" y="48.24" width="39.12" height="10.08"/><rect class="45136795-f8da-4e1a-bfb4-5ab91aed83ac" x="111.81" y="622.07" width="44.08" height="20.17"/><rect class="5dd3be2d-f1b4-406c-ab2d-c26b48dcb30f" x="111.81" y="601.9" width="44.08" height="20.17"/><rect class="6db5f630-180a-45a5-a6df-ebbfb792ac70" x="111.81" y="581.72" width="44.08" height="20.17"/><rect class="45136795-f8da-4e1a-bfb4-5ab91aed83ac" x="111.81" y="561.55" width="44.08" height="20.17"/><rect class="0c0cf573-1243-4356-bb18-f5c6c965d9e1" x="111.81" y="541.38" width="44.08" height="20.17"/><rect class="48401e45-bfbe-4628-9644-e6d8db161ac7" x="111.81" y="521.2" width="44.08" height="20.17"/><rect class="5bb2ba23-05ee-48a1-a7c5-e147d054f927" x="111.81" y="501.03" width="44.08" height="20.17"/><rect class="5bb2ba23-05ee-48a1-a7c5-e147d054f927" x="111.81" y="480.86" width="44.08" height="20.17"/><rect class="0c0cf573-1243-4356-bb18-f5c6c965d9e1" x="111.81" y="460.68" width="44.08" height="20.17"/><rect class="48401e45-bfbe-4628-9644-e6d8db161ac7" x="111.81" y="440.51" width="44.08" height="20.17"/><rect class="48401e45-bfbe-4628-9644-e6d8db161ac7" x="111.81" y="420.34" width="44.08" height="20.17"/><rect class="48401e45-bfbe-4628-9644-e6d8db161ac7" x="111.81" y="400.16" width="44.08" height="20.17"/><rect class="5bb2ba23-05ee-48a1-a7c5-e147d054f927" x="111.81" y="379.99" width="44.08" height="20.17"/><rect class="5bb2ba23-05ee-48a1-a7c5-e147d054f927" x="111.81" y="359.81" width="44.08" height="20.17"/><rect class="5bb2ba23-05ee-48a1-a7c5-e147d054f927" x="111.81" y="339.64" width="44.08" height="20.17"/><rect class="5bb2ba23-05ee-48a1-a7c5-e147d054f927" x="111.81" y="319.47" width="44.08" height="20.17"/><rect class="5bb2ba23-05ee-48a1-a7c5-e147d054f927" x="111.81" y="299.29" width="44.08" height="20.17"/><rect class="0c0cf573-1243-4356-bb18-f5c6c965d9e1" x="111.81" y="279.12" width="44.08" height="20.17"/><rect class="5bb2ba23-05ee-48a1-a7c5-e147d054f927" x="111.81" y="258.95" width="44.08" height="20.17"/><rect class="bf5e0429-915e-406a-9364-d49bba9f48b3" x="111.81" y="238.77" width="44.08" height="20.17"/><rect class="bf5e0429-915e-406a-9364-d49bba9f48b3" x="111.81" y="218.6" width="44.08" height="20.17"/><rect class="bf5e0429-915e-406a-9364-d49bba9f48b3" x="111.81" y="198.43" width="44.08" height="20.17"/><rect class="bf5e0429-915e-406a-9364-d49bba9f48b3" x="111.81" y="178.25" width="44.08" height="20.17"/><rect class="48401e45-bfbe-4628-9644-e6d8db161ac7" x="111.81" y="158.08" width="44.08" height="20.17"/><rect class="5bb2ba23-05ee-48a1-a7c5-e147d054f927" x="111.81" y="137.91" width="44.08" height="20.17"/><rect class="5dd3be2d-f1b4-406c-ab2d-c26b48dcb30f" x="111.81" y="117.73" width="44.08" height="20.17"/><rect class="5dd3be2d-f1b4-406c-ab2d-c26b48dcb30f" x="111.81" y="97.56" width="44.08" height="20.17"/><rect class="0c0cf573-1243-4356-bb18-f5c6c965d9e1" x="155.89" y="622.07" width="44.08" height="20.17"/><rect class="5bb2ba23-05ee-48a1-a7c5-e147d054f927" x="155.89" y="601.9" width="44.08" height="20.17"/><rect class="1bf98ec0-4f7e-467b-aeaf-8601d3704d40" x="155.89" y="581.72" width="44.08" height="20.17"/><rect class="5bb2ba23-05ee-48a1-a7c5-e147d054f927" x="155.89" y="561.55" width="44.08" height="20.17"/><rect class="1bf98ec0-4f7e-467b-aeaf-8601d3704d40" x="155.89" y="541.38" width="44.08" height="20.17"/><rect class="1bf98ec0-4f7e-467b-aeaf-8601d3704d40" x="155.89" y="521.2" width="44.08" height="20.17"/><rect class="5bb2ba23-05ee-48a1-a7c5-e147d054f927" x="155.89" y="501.03" width="44.08" height="20.17"/><rect class="5bb2ba23-05ee-48a1-a7c5-e147d054f927" x="155.89" y="480.86" width="44.08" height="20.17"/><rect class="5bb2ba23-05ee-48a1-a7c5-e147d054f927" x="155.89" y="460.68" width="44.08" height="20.17"/><rect class="48401e45-bfbe-4628-9644-e6d8db161ac7" x="155.89" y="440.51" width="44.08" height="20.17"/><rect class="48401e45-bfbe-4628-9644-e6d8db161ac7" x="155.89" y="420.34" width="44.08" height="20.17"/><rect class="48401e45-bfbe-4628-9644-e6d8db161ac7" x="155.89" y="400.16" width="44.08" height="20.17"/><rect class="1bf98ec0-4f7e-467b-aeaf-8601d3704d40" x="155.89" y="379.99" width="44.08" height="20.17"/><rect class="48401e45-bfbe-4628-9644-e6d8db161ac7" x="155.89" y="359.81" width="44.08" height="20.17"/><rect class="48401e45-bfbe-4628-9644-e6d8db161ac7" x="155.89" y="339.64" width="44.08" height="20.17"/><rect class="0c0cf573-1243-4356-bb18-f5c6c965d9e1" x="155.89" y="319.47" width="44.08" height="20.17"/><rect class="48401e45-bfbe-4628-9644-e6d8db161ac7" x="155.89" y="299.29" width="44.08" height="20.17"/><rect class="1bf98ec0-4f7e-467b-aeaf-8601d3704d40" x="155.89" y="279.12" width="44.08" height="20.17"/><rect class="5bb2ba23-05ee-48a1-a7c5-e147d054f927" x="155.89" y="258.95" width="44.08" height="20.17"/><rect class="5dd3be2d-f1b4-406c-ab2d-c26b48dcb30f" x="155.89" y="238.77" width="44.08" height="20.17"/><rect class="48401e45-bfbe-4628-9644-e6d8db161ac7" x="155.89" y="218.6" width="44.08" height="20.17"/><rect class="5bb2ba23-05ee-48a1-a7c5-e147d054f927" x="155.89" y="198.43" width="44.08" height="20.17"/><rect class="6db5f630-180a-45a5-a6df-ebbfb792ac70" x="155.89" y="178.25" width="44.08" height="20.17"/><rect class="6db5f630-180a-45a5-a6df-ebbfb792ac70" x="155.89" y="158.08" width="44.08" height="20.17"/><rect class="5bb2ba23-05ee-48a1-a7c5-e147d054f927" x="155.89" y="137.91" width="44.08" height="20.17"/><rect class="45136795-f8da-4e1a-bfb4-5ab91aed83ac" x="155.89" y="117.73" width="44.08" height="20.17"/><rect class="0c0cf573-1243-4356-bb18-f5c6c965d9e1" x="155.89" y="97.56" width="44.08" height="20.17"/><rect class="bf5e0429-915e-406a-9364-d49bba9f48b3" x="199.98" y="622.07" width="44.08" height="20.17"/><rect class="bf5e0429-915e-406a-9364-d49bba9f48b3" x="199.98" y="601.9" width="44.08" height="20.17"/><rect class="bf5e0429-915e-406a-9364-d49bba9f48b3" x="199.98" y="581.72" width="44.08" height="20.17"/><rect class="1bf98ec0-4f7e-467b-aeaf-8601d3704d40" x="199.98" y="561.55" width="44.08" height="20.17"/><rect class="1bf98ec0-4f7e-467b-aeaf-8601d3704d40" x="199.98" y="541.38" width="44.08" height="20.17"/><rect class="1bf98ec0-4f7e-467b-aeaf-8601d3704d40" x="199.98" y="521.2" width="44.08" height="20.17"/><rect class="48401e45-bfbe-4628-9644-e6d8db161ac7" x="199.98" y="501.03" width="44.08" height="20.17"/><rect class="48401e45-bfbe-4628-9644-e6d8db161ac7" x="199.98" y="480.86" width="44.08" height="20.17"/><rect class="5bb2ba23-05ee-48a1-a7c5-e147d054f927" x="199.98" y="460.68" width="44.08" height="20.17"/><rect class="5bb2ba23-05ee-48a1-a7c5-e147d054f927" x="199.98" y="440.51" width="44.08" height="20.17"/><rect class="0c0cf573-1243-4356-bb18-f5c6c965d9e1" x="199.98" y="420.34" width="44.08" height="20.17"/><rect class="5bb2ba23-05ee-48a1-a7c5-e147d054f927" x="199.98" y="400.16" width="44.08" height="20.17"/><rect class="5bb2ba23-05ee-48a1-a7c5-e147d054f927" x="199.98" y="379.99" width="44.08" height="20.17"/><rect class="5bb2ba23-05ee-48a1-a7c5-e147d054f927" x="199.98" y="359.81" width="44.08" height="20.17"/><rect class="5bb2ba23-05ee-48a1-a7c5-e147d054f927" x="199.98" y="339.64" width="44.08" height="20.17"/><rect class="48401e45-bfbe-4628-9644-e6d8db161ac7" x="199.98" y="319.47" width="44.08" height="20.17"/><rect class="5bb2ba23-05ee-48a1-a7c5-e147d054f927" x="199.98" y="299.29" width="44.08" height="20.17"/><rect class="5bb2ba23-05ee-48a1-a7c5-e147d054f927" x="199.98" y="279.12" width="44.08" height="20.17"/><rect class="5bb2ba23-05ee-48a1-a7c5-e147d054f927" x="199.98" y="258.95" width="44.08" height="20.17"/><rect class="48401e45-bfbe-4628-9644-e6d8db161ac7" x="199.98" y="238.77" width="44.08" height="20.17"/><rect class="5dd3be2d-f1b4-406c-ab2d-c26b48dcb30f" x="199.98" y="218.6" width="44.08" height="20.17"/><rect class="45136795-f8da-4e1a-bfb4-5ab91aed83ac" x="199.98" y="198.43" width="44.08" height="20.17"/><rect class="5dd3be2d-f1b4-406c-ab2d-c26b48dcb30f" x="199.98" y="178.25" width="44.08" height="20.17"/><rect class="5dd3be2d-f1b4-406c-ab2d-c26b48dcb30f" x="199.98" y="158.08" width="44.08" height="20.17"/><rect class="45136795-f8da-4e1a-bfb4-5ab91aed83ac" x="199.98" y="137.91" width="44.08" height="20.17"/><rect class="45136795-f8da-4e1a-bfb4-5ab91aed83ac" x="199.98" y="117.73" width="44.08" height="20.17"/><rect class="383ff8c4-e5c6-4b7d-885a-26d3c94d58aa" x="199.98" y="97.56" width="44.08" height="20.17"/><rect class="1bf98ec0-4f7e-467b-aeaf-8601d3704d40" x="244.06" y="622.07" width="44.08" height="20.17"/><rect class="1bf98ec0-4f7e-467b-aeaf-8601d3704d40" x="244.06" y="601.9" width="44.08" height="20.17"/><rect class="48401e45-bfbe-4628-9644-e6d8db161ac7" x="244.06" y="581.72" width="44.08" height="20.17"/><rect class="1bf98ec0-4f7e-467b-aeaf-8601d3704d40" x="244.06" y="561.55" width="44.08" height="20.17"/><rect class="1bf98ec0-4f7e-467b-aeaf-8601d3704d40" x="244.06" y="541.38" width="44.08" height="20.17"/><rect class="1bf98ec0-4f7e-467b-aeaf-8601d3704d40" x="244.06" y="521.2" width="44.08" height="20.17"/><rect class="48401e45-bfbe-4628-9644-e6d8db161ac7" x="244.06" y="501.03" width="44.08" height="20.17"/><rect class="1bf98ec0-4f7e-467b-aeaf-8601d3704d40" x="244.06" y="480.86" width="44.08" height="20.17"/><rect class="48401e45-bfbe-4628-9644-e6d8db161ac7" x="244.06" y="460.68" width="44.08" height="20.17"/><rect class="48401e45-bfbe-4628-9644-e6d8db161ac7" x="244.06" y="440.51" width="44.08" height="20.17"/><rect class="5bb2ba23-05ee-48a1-a7c5-e147d054f927" x="244.06" y="420.34" width="44.08" height="20.17"/><rect class="48401e45-bfbe-4628-9644-e6d8db161ac7" x="244.06" y="400.16" width="44.08" height="20.17"/><rect class="5bb2ba23-05ee-48a1-a7c5-e147d054f927" x="244.06" y="379.99" width="44.08" height="20.17"/><rect class="48401e45-bfbe-4628-9644-e6d8db161ac7" x="244.06" y="359.81" width="44.08" height="20.17"/><rect class="5bb2ba23-05ee-48a1-a7c5-e147d054f927" x="244.06" y="339.64" width="44.08" height="20.17"/><rect class="48401e45-bfbe-4628-9644-e6d8db161ac7" x="244.06" y="319.47" width="44.08" height="20.17"/><rect class="5bb2ba23-05ee-48a1-a7c5-e147d054f927" x="244.06" y="299.29" width="44.08" height="20.17"/><rect class="0c0cf573-1243-4356-bb18-f5c6c965d9e1" x="244.06" y="279.12" width="44.08" height="20.17"/><rect class="0c0cf573-1243-4356-bb18-f5c6c965d9e1" x="244.06" y="258.95" width="44.08" height="20.17"/><rect class="5bb2ba23-05ee-48a1-a7c5-e147d054f927" x="244.06" y="238.77" width="44.08" height="20.17"/><rect class="0c0cf573-1243-4356-bb18-f5c6c965d9e1" x="244.06" y="218.6" width="44.08" height="20.17"/><rect class="5dd3be2d-f1b4-406c-ab2d-c26b48dcb30f" x="244.06" y="198.43" width="44.08" height="20.17"/><rect class="383ff8c4-e5c6-4b7d-885a-26d3c94d58aa" x="244.06" y="178.25" width="44.08" height="20.17"/><rect class="5dd3be2d-f1b4-406c-ab2d-c26b48dcb30f" x="244.06" y="158.08" width="44.08" height="20.17"/><rect class="5dd3be2d-f1b4-406c-ab2d-c26b48dcb30f" x="244.06" y="137.91" width="44.08" height="20.17"/><rect class="383ff8c4-e5c6-4b7d-885a-26d3c94d58aa" x="244.06" y="117.73" width="44.08" height="20.17"/><rect class="383ff8c4-e5c6-4b7d-885a-26d3c94d58aa" x="244.06" y="97.56" width="44.08" height="20.17"/><rect class="bf5e0429-915e-406a-9364-d49bba9f48b3" x="288.14" y="622.07" width="44.08" height="20.17"/><rect class="bf5e0429-915e-406a-9364-d49bba9f48b3" x="288.14" y="601.9" width="44.08" height="20.17"/><rect class="bf5e0429-915e-406a-9364-d49bba9f48b3" x="288.14" y="581.72" width="44.08" height="20.17"/><rect class="bf5e0429-915e-406a-9364-d49bba9f48b3" x="288.14" y="561.55" width="44.08" height="20.17"/><rect class="bf5e0429-915e-406a-9364-d49bba9f48b3" x="288.14" y="541.38" width="44.08" height="20.17"/><rect class="48401e45-bfbe-4628-9644-e6d8db161ac7" x="288.14" y="521.2" width="44.08" height="20.17"/><rect class="1bf98ec0-4f7e-467b-aeaf-8601d3704d40" x="288.14" y="501.03" width="44.08" height="20.17"/><rect class="1bf98ec0-4f7e-467b-aeaf-8601d3704d40" x="288.14" y="480.86" width="44.08" height="20.17"/><rect class="48401e45-bfbe-4628-9644-e6d8db161ac7" x="288.14" y="460.68" width="44.08" height="20.17"/><rect class="5bb2ba23-05ee-48a1-a7c5-e147d054f927" x="288.14" y="440.51" width="44.08" height="20.17"/><rect class="5bb2ba23-05ee-48a1-a7c5-e147d054f927" x="288.14" y="420.34" width="44.08" height="20.17"/><rect class="5bb2ba23-05ee-48a1-a7c5-e147d054f927" x="288.14" y="400.16" width="44.08" height="20.17"/><rect class="5bb2ba23-05ee-48a1-a7c5-e147d054f927" x="288.14" y="379.99" width="44.08" height="20.17"/><rect class="5bb2ba23-05ee-48a1-a7c5-e147d054f927" x="288.14" y="359.81" width="44.08" height="20.17"/><rect class="0c0cf573-1243-4356-bb18-f5c6c965d9e1" x="288.14" y="339.64" width="44.08" height="20.17"/><rect class="5bb2ba23-05ee-48a1-a7c5-e147d054f927" x="288.14" y="319.47" width="44.08" height="20.17"/><rect class="5dd3be2d-f1b4-406c-ab2d-c26b48dcb30f" x="288.14" y="299.29" width="44.08" height="20.17"/><rect class="0c0cf573-1243-4356-bb18-f5c6c965d9e1" x="288.14" y="279.12" width="44.08" height="20.17"/><rect class="5dd3be2d-f1b4-406c-ab2d-c26b48dcb30f" x="288.14" y="258.95" width="44.08" height="20.17"/><rect class="0c0cf573-1243-4356-bb18-f5c6c965d9e1" x="288.14" y="238.77" width="44.08" height="20.17"/><rect class="5dd3be2d-f1b4-406c-ab2d-c26b48dcb30f" x="288.14" y="218.6" width="44.08" height="20.17"/><rect class="383ff8c4-e5c6-4b7d-885a-26d3c94d58aa" x="288.14" y="198.43" width="44.08" height="20.17"/><rect class="45136795-f8da-4e1a-bfb4-5ab91aed83ac" x="288.14" y="178.25" width="44.08" height="20.17"/><rect class="5dd3be2d-f1b4-406c-ab2d-c26b48dcb30f" x="288.14" y="158.08" width="44.08" height="20.17"/><rect class="5bb2ba23-05ee-48a1-a7c5-e147d054f927" x="288.14" y="137.91" width="44.08" height="20.17"/><rect class="5bb2ba23-05ee-48a1-a7c5-e147d054f927" x="288.14" y="117.73" width="44.08" height="20.17"/><rect class="5dd3be2d-f1b4-406c-ab2d-c26b48dcb30f" x="288.14" y="97.56" width="44.08" height="20.17"/><rect class="1bf98ec0-4f7e-467b-aeaf-8601d3704d40" x="332.23" y="622.07" width="44.08" height="20.17"/><rect class="bf5e0429-915e-406a-9364-d49bba9f48b3" x="332.23" y="601.9" width="44.08" height="20.17"/><rect class="bf5e0429-915e-406a-9364-d49bba9f48b3" x="332.23" y="581.72" width="44.08" height="20.17"/><rect class="bf5e0429-915e-406a-9364-d49bba9f48b3" x="332.23" y="561.55" width="44.08" height="20.17"/><rect class="0c0cf573-1243-4356-bb18-f5c6c965d9e1" x="332.23" y="541.38" width="44.08" height="20.17"/><rect class="5bb2ba23-05ee-48a1-a7c5-e147d054f927" x="332.23" y="521.2" width="44.08" height="20.17"/><rect class="6db5f630-180a-45a5-a6df-ebbfb792ac70" x="332.23" y="501.03" width="44.08" height="20.17"/><rect class="5dd3be2d-f1b4-406c-ab2d-c26b48dcb30f" x="332.23" y="480.86" width="44.08" height="20.17"/><rect class="0c0cf573-1243-4356-bb18-f5c6c965d9e1" x="332.23" y="460.68" width="44.08" height="20.17"/><rect class="45136795-f8da-4e1a-bfb4-5ab91aed83ac" x="332.23" y="440.51" width="44.08" height="20.17"/><rect class="48401e45-bfbe-4628-9644-e6d8db161ac7" x="332.23" y="420.34" width="44.08" height="20.17"/><rect class="5bb2ba23-05ee-48a1-a7c5-e147d054f927" x="332.23" y="400.16" width="44.08" height="20.17"/><rect class="0c0cf573-1243-4356-bb18-f5c6c965d9e1" x="332.23" y="379.99" width="44.08" height="20.17"/><rect class="48401e45-bfbe-4628-9644-e6d8db161ac7" x="332.23" y="359.81" width="44.08" height="20.17"/><rect class="48401e45-bfbe-4628-9644-e6d8db161ac7" x="332.23" y="339.64" width="44.08" height="20.17"/><rect class="1bf98ec0-4f7e-467b-aeaf-8601d3704d40" x="332.23" y="319.47" width="44.08" height="20.17"/><rect class="1bf98ec0-4f7e-467b-aeaf-8601d3704d40" x="332.23" y="299.29" width="44.08" height="20.17"/><rect class="48401e45-bfbe-4628-9644-e6d8db161ac7" x="332.23" y="279.12" width="44.08" height="20.17"/><rect class="0c0cf573-1243-4356-bb18-f5c6c965d9e1" x="332.23" y="258.95" width="44.08" height="20.17"/><rect class="5bb2ba23-05ee-48a1-a7c5-e147d054f927" x="332.23" y="238.77" width="44.08" height="20.17"/><rect class="48401e45-bfbe-4628-9644-e6d8db161ac7" x="332.23" y="218.6" width="44.08" height="20.17"/><rect class="0c0cf573-1243-4356-bb18-f5c6c965d9e1" x="332.23" y="198.43" width="44.08" height="20.17"/><rect class="48401e45-bfbe-4628-9644-e6d8db161ac7" x="332.23" y="178.25" width="44.08" height="20.17"/><rect class="5dd3be2d-f1b4-406c-ab2d-c26b48dcb30f" x="332.23" y="158.08" width="44.08" height="20.17"/><rect class="0c0cf573-1243-4356-bb18-f5c6c965d9e1" x="332.23" y="137.91" width="44.08" height="20.17"/><rect class="5dd3be2d-f1b4-406c-ab2d-c26b48dcb30f" x="332.23" y="117.73" width="44.08" height="20.17"/><rect class="5dd3be2d-f1b4-406c-ab2d-c26b48dcb30f" x="332.23" y="97.56" width="44.08" height="20.17"/><rect class="bf5e0429-915e-406a-9364-d49bba9f48b3" x="376.31" y="622.07" width="44.08" height="20.17"/><rect class="bf5e0429-915e-406a-9364-d49bba9f48b3" x="376.31" y="601.9" width="44.08" height="20.17"/><rect class="bf5e0429-915e-406a-9364-d49bba9f48b3" x="376.31" y="581.72" width="44.08" height="20.17"/><rect class="1bf98ec0-4f7e-467b-aeaf-8601d3704d40" x="376.31" y="561.55" width="44.08" height="20.17"/><rect class="1bf98ec0-4f7e-467b-aeaf-8601d3704d40" x="376.31" y="541.38" width="44.08" height="20.17"/><rect class="1bf98ec0-4f7e-467b-aeaf-8601d3704d40" x="376.31" y="521.2" width="44.08" height="20.17"/><rect class="48401e45-bfbe-4628-9644-e6d8db161ac7" x="376.31" y="501.03" width="44.08" height="20.17"/><rect class="5bb2ba23-05ee-48a1-a7c5-e147d054f927" x="376.31" y="480.86" width="44.08" height="20.17"/><rect class="48401e45-bfbe-4628-9644-e6d8db161ac7" x="376.31" y="460.68" width="44.08" height="20.17"/><rect class="48401e45-bfbe-4628-9644-e6d8db161ac7" x="376.31" y="440.51" width="44.08" height="20.17"/><rect class="5bb2ba23-05ee-48a1-a7c5-e147d054f927" x="376.31" y="420.34" width="44.08" height="20.17"/><rect class="1bf98ec0-4f7e-467b-aeaf-8601d3704d40" x="376.31" y="400.16" width="44.08" height="20.17"/><rect class="5bb2ba23-05ee-48a1-a7c5-e147d054f927" x="376.31" y="379.99" width="44.08" height="20.17"/><rect class="5bb2ba23-05ee-48a1-a7c5-e147d054f927" x="376.31" y="359.81" width="44.08" height="20.17"/><rect class="0c0cf573-1243-4356-bb18-f5c6c965d9e1" x="376.31" y="339.64" width="44.08" height="20.17"/><rect class="0c0cf573-1243-4356-bb18-f5c6c965d9e1" x="376.31" y="319.47" width="44.08" height="20.17"/><rect class="5dd3be2d-f1b4-406c-ab2d-c26b48dcb30f" x="376.31" y="299.29" width="44.08" height="20.17"/><rect class="0c0cf573-1243-4356-bb18-f5c6c965d9e1" x="376.31" y="279.12" width="44.08" height="20.17"/><rect class="5dd3be2d-f1b4-406c-ab2d-c26b48dcb30f" x="376.31" y="258.95" width="44.08" height="20.17"/><rect class="48401e45-bfbe-4628-9644-e6d8db161ac7" x="376.31" y="238.77" width="44.08" height="20.17"/><rect class="45136795-f8da-4e1a-bfb4-5ab91aed83ac" x="376.31" y="218.6" width="44.08" height="20.17"/><rect class="0c0cf573-1243-4356-bb18-f5c6c965d9e1" x="376.31" y="198.43" width="44.08" height="20.17"/><rect class="45136795-f8da-4e1a-bfb4-5ab91aed83ac" x="376.31" y="178.25" width="44.08" height="20.17"/><rect class="5dd3be2d-f1b4-406c-ab2d-c26b48dcb30f" x="376.31" y="158.08" width="44.08" height="20.17"/><rect class="45136795-f8da-4e1a-bfb4-5ab91aed83ac" x="376.31" y="137.91" width="44.08" height="20.17"/><rect class="5dd3be2d-f1b4-406c-ab2d-c26b48dcb30f" x="376.31" y="117.73" width="44.08" height="20.17"/><rect class="5dd3be2d-f1b4-406c-ab2d-c26b48dcb30f" x="376.31" y="97.56" width="44.08" height="20.17"/><rect class="48401e45-bfbe-4628-9644-e6d8db161ac7" x="420.4" y="622.07" width="44.08" height="20.17"/><rect class="bf5e0429-915e-406a-9364-d49bba9f48b3" x="420.4" y="601.9" width="44.08" height="20.17"/><rect class="48401e45-bfbe-4628-9644-e6d8db161ac7" x="420.4" y="581.72" width="44.08" height="20.17"/><rect class="0c0cf573-1243-4356-bb18-f5c6c965d9e1" x="420.4" y="561.55" width="44.08" height="20.17"/><rect class="48401e45-bfbe-4628-9644-e6d8db161ac7" x="420.4" y="541.38" width="44.08" height="20.17"/><rect class="5bb2ba23-05ee-48a1-a7c5-e147d054f927" x="420.4" y="521.2" width="44.08" height="20.17"/><rect class="5dd3be2d-f1b4-406c-ab2d-c26b48dcb30f" x="420.4" y="501.03" width="44.08" height="20.17"/><rect class="45136795-f8da-4e1a-bfb4-5ab91aed83ac" x="420.4" y="480.86" width="44.08" height="20.17"/><rect class="5bb2ba23-05ee-48a1-a7c5-e147d054f927" x="420.4" y="460.68" width="44.08" height="20.17"/><rect class="383ff8c4-e5c6-4b7d-885a-26d3c94d58aa" x="420.4" y="440.51" width="44.08" height="20.17"/><rect class="6db5f630-180a-45a5-a6df-ebbfb792ac70" x="420.4" y="420.34" width="44.08" height="20.17"/><rect class="5dd3be2d-f1b4-406c-ab2d-c26b48dcb30f" x="420.4" y="400.16" width="44.08" height="20.17"/><rect class="5bb2ba23-05ee-48a1-a7c5-e147d054f927" x="420.4" y="379.99" width="44.08" height="20.17"/><rect class="0c0cf573-1243-4356-bb18-f5c6c965d9e1" x="420.4" y="359.81" width="44.08" height="20.17"/><rect class="48401e45-bfbe-4628-9644-e6d8db161ac7" x="420.4" y="339.64" width="44.08" height="20.17"/><rect class="5bb2ba23-05ee-48a1-a7c5-e147d054f927" x="420.4" y="319.47" width="44.08" height="20.17"/><rect class="48401e45-bfbe-4628-9644-e6d8db161ac7" x="420.4" y="299.29" width="44.08" height="20.17"/><rect class="0c0cf573-1243-4356-bb18-f5c6c965d9e1" x="420.4" y="279.12" width="44.08" height="20.17"/><rect class="0c0cf573-1243-4356-bb18-f5c6c965d9e1" x="420.4" y="258.95" width="44.08" height="20.17"/><rect class="5bb2ba23-05ee-48a1-a7c5-e147d054f927" x="420.4" y="238.77" width="44.08" height="20.17"/><rect class="5bb2ba23-05ee-48a1-a7c5-e147d054f927" x="420.4" y="218.6" width="44.08" height="20.17"/><rect class="5bb2ba23-05ee-48a1-a7c5-e147d054f927" x="420.4" y="198.43" width="44.08" height="20.17"/><rect class="0c0cf573-1243-4356-bb18-f5c6c965d9e1" x="420.4" y="178.25" width="44.08" height="20.17"/><rect class="5bb2ba23-05ee-48a1-a7c5-e147d054f927" x="420.4" y="158.08" width="44.08" height="20.17"/><rect class="1bf98ec0-4f7e-467b-aeaf-8601d3704d40" x="420.4" y="137.91" width="44.08" height="20.17"/><rect class="bf5e0429-915e-406a-9364-d49bba9f48b3" x="420.4" y="117.73" width="44.08" height="20.17"/><rect class="1bf98ec0-4f7e-467b-aeaf-8601d3704d40" x="420.4" y="97.56" width="44.08" height="20.17"/><text class="4d61d127-b59d-497a-b75c-e1e4f4f4ba59" transform="translate(51.07 702.37) rotate(-90)">BRASIL</text><text class="4d61d127-b59d-497a-b75c-e1e4f4f4ba59" transform="translate(95.15 714.47) rotate(-90)">VIETNAM</text><text class="4d61d127-b59d-497a-b75c-e1e4f4f4ba59" transform="translate(139.23 726.46) rotate(-90)">COLOMBIA</text><text class="4d61d127-b59d-497a-b75c-e1e4f4f4ba59" transform="translate(183.32 730.27) rotate(-90)">INDONESIA</text><text class="4d61d127-b59d-497a-b75c-e1e4f4f4ba59" transform="translate(227.4 690.08) rotate(-90)">ÍNDIA</text><text class="4d61d127-b59d-497a-b75c-e1e4f4f4ba59" transform="translate(271.49 731.07) rotate(-90)">HONDU<tspan class="71e0ea0e-653e-433e-9af3-f462c22e0297" x="51.33" y="0">R</tspan><tspan x="61.3" y="0">AS</tspan></text><text class="4d61d127-b59d-497a-b75c-e1e4f4f4ba59" transform="translate(315.57 689.76) rotate(-90)"><tspan class="b6195d3f-7f5c-4cd9-8f87-12342911d0f4">P</tspan><tspan x="8.64" y="0">E</tspan><tspan class="e595073c-2204-46dd-8055-b62b7aefaa2c" x="17.98" y="0">R</tspan><tspan x="28.28" y="0">Ú</tspan></text><text class="4d61d127-b59d-497a-b75c-e1e4f4f4ba59" transform="translate(359.65 712.65) rotate(-90)">UGANDA</text><text class="4d61d127-b59d-497a-b75c-e1e4f4f4ba59" transform="translate(403.74 708.64) rotate(-90)">ETIOPÍA</text><text class="4d61d127-b59d-497a-b75c-e1e4f4f4ba59" transform="translate(447.82 739.93) rotate(-90)">GUATEMALA</text><text class="4d61d127-b59d-497a-b75c-e1e4f4f4ba59" transform="translate(470.46 636.46)">1990</text><text class="4d61d127-b59d-497a-b75c-e1e4f4f4ba59" transform="translate(470.46 616.29)">1991</text><text class="4d61d127-b59d-497a-b75c-e1e4f4f4ba59" transform="translate(470.46 596.11)">1992</text><text class="4d61d127-b59d-497a-b75c-e1e4f4f4ba59" transform="translate(470.46 575.94)">1993</text><text class="4d61d127-b59d-497a-b75c-e1e4f4f4ba59" transform="translate(470.46 555.77)">1994</text><text class="4d61d127-b59d-497a-b75c-e1e4f4f4ba59" transform="translate(470.46 535.59)">1995</text><text class="4d61d127-b59d-497a-b75c-e1e4f4f4ba59" transform="translate(470.46 515.42)">1996</text><text class="4d61d127-b59d-497a-b75c-e1e4f4f4ba59" transform="translate(470.46 495.25)">1997</text><text class="4d61d127-b59d-497a-b75c-e1e4f4f4ba59" transform="translate(470.46 475.07)">1998</text><text class="4d61d127-b59d-497a-b75c-e1e4f4f4ba59" transform="translate(470.46 454.9)">1999</text><text class="4d61d127-b59d-497a-b75c-e1e4f4f4ba59" transform="translate(470.46 434.73)">2000</text><text class="4d61d127-b59d-497a-b75c-e1e4f4f4ba59" transform="translate(470.46 414.55)">2001</text><text class="4d61d127-b59d-497a-b75c-e1e4f4f4ba59" transform="translate(470.46 394.38)">2002</text><text class="4d61d127-b59d-497a-b75c-e1e4f4f4ba59" transform="translate(470.46 374.21)">2003</text><text class="4d61d127-b59d-497a-b75c-e1e4f4f4ba59" transform="translate(470.46 354.03)">2004</text><text class="4d61d127-b59d-497a-b75c-e1e4f4f4ba59" transform="translate(470.46 333.86)">2005</text><text class="4d61d127-b59d-497a-b75c-e1e4f4f4ba59" transform="translate(470.46 313.69)">2006</text><text class="4d61d127-b59d-497a-b75c-e1e4f4f4ba59" transform="translate(470.46 293.51)">2007</text><text class="4d61d127-b59d-497a-b75c-e1e4f4f4ba59" transform="translate(470.46 273.34)">2008</text><text class="4d61d127-b59d-497a-b75c-e1e4f4f4ba59" transform="translate(470.46 253.16)">2009</text><text class="4d61d127-b59d-497a-b75c-e1e4f4f4ba59" transform="translate(470.46 232.99)">2010</text><text class="4d61d127-b59d-497a-b75c-e1e4f4f4ba59" transform="translate(470.46 212.82)">2011</text><text class="4d61d127-b59d-497a-b75c-e1e4f4f4ba59" transform="translate(470.46 192.64)">2012</text><text class="4d61d127-b59d-497a-b75c-e1e4f4f4ba59" transform="translate(470.46 172.47)">2013</text><text class="4d61d127-b59d-497a-b75c-e1e4f4f4ba59" transform="translate(470.46 152.3)">2014</text><text class="4d61d127-b59d-497a-b75c-e1e4f4f4ba59" transform="translate(470.46 132.12)">2015</text><text class="4d61d127-b59d-497a-b75c-e1e4f4f4ba59" transform="translate(470.46 111.95)">2016</text><text class="3255a3b4-749e-4764-9f07-af6a28862e5a" transform="translate(23.6 25.32)">Evolución del los 10 países que más café exportan</text><text class="4d61d127-b59d-497a-b75c-e1e4f4f4ba59" transform="translate(20.19 56.29)">MILES DE BOLSAS DE 60 KG</text><text class="4d61d127-b59d-497a-b75c-e1e4f4f4ba59" transform="translate(7.9 769.29)">Fuente: Organización Internacional del Café</text><text class="4d61d127-b59d-497a-b75c-e1e4f4f4ba59" transform="translate(322.89 767.03)">Laura<tspan class="f569d0d5-6daf-4539-afb3-b08c0c1f3ef2" x="35.81" y="0"> </tspan><tspan x="38.92" y="0">Aragó | L</tspan><tspan class="f569d0d5-6daf-4539-afb3-b08c0c1f3ef2" x="95.48" y="0">A</tspan><tspan x="104.05" y="0"> </tspan><tspan class="79e3aff2-ebc4-417c-8d87-0c415ec3aa15" x="107.94" y="0">V</tspan><tspan x="116.24" y="0">ANGUARDI</tspan><tspan class="f569d0d5-6daf-4539-afb3-b08c0c1f3ef2" x="190.13" y="0">A</tspan></text><text class="4d61d127-b59d-497a-b75c-e1e4f4f4ba59" transform="translate(231.31 72.82)">De 700</text><text class="4d61d127-b59d-497a-b75c-e1e4f4f4ba59" transform="translate(406.74 72.82)">Más de 37.000</text></svg>