<svg xmlns="http://www.w3.org/2000/svg" viewBox="0 0 500 605"><defs><style>.\30 a860ba7-3c1d-4120-ae5d-5e5da5e6806e,.\38 87b77d4-ea76-48b2-a719-b27f0c3f79b6{fill:none;}.\38 87b77d4-ea76-48b2-a719-b27f0c3f79b6{stroke:#b2b2b2;opacity:0.5;}.\30 a860ba7-3c1d-4120-ae5d-5e5da5e6806e{stroke:#323232;}.\30 0a22219-283c-44b7-b372-50e6dd904050{opacity:0.7;}.\38 3619ab6-98b1-4d02-9fe9-27ef215ff12e{fill:#13375e;}.\30 8ac8fda-0096-48b2-9f75-278b0926ddbb,.\31 6ffee5c-f6af-4f39-9aaa-14e8b3408c85,.\32 d05dad9-7de3-43e3-ac6c-9ac708f814da,.\33 c25a725-ca58-445f-ba02-155d99b4c7c4,.\37 2464f7d-f859-494d-8b4f-f7c4bbcc105a,.\38 3619ab6-98b1-4d02-9fe9-27ef215ff12e,.f8338462-cc51-4719-b33b-a70abd9f8048{stroke:#fff;stroke-linejoin:round;}.\31 6ffee5c-f6af-4f39-9aaa-14e8b3408c85{fill:#e6ab02;}.f8338462-cc51-4719-b33b-a70abd9f8048{fill:#fcf503;}.\32 3c077d2-df34-4f5b-9368-0195f9a2e9b5,.a777ba1c-c0b8-4029-bc90-87e58f2d7222{opacity:0.75;}.\30 8ac8fda-0096-48b2-9f75-278b0926ddbb{fill:#a01f51;}.\33 c25a725-ca58-445f-ba02-155d99b4c7c4{fill:#c1081a;}.\37 2464f7d-f859-494d-8b4f-f7c4bbcc105a{fill:#d95f02;}.\32 d05dad9-7de3-43e3-ac6c-9ac708f814da{fill:#4cbcbf;}.db7d9a24-7fbb-4d2a-a0e5-9f60348e0f96,.dd63c1d9-300f-427e-9e0b-3868fdb9b63d{font-size:16px;font-family:Arial-BoldMT, Arial;font-weight:700;}.\30 d4ce300-609c-4f5d-aebe-21b71454c0dd,.dd63c1d9-300f-427e-9e0b-3868fdb9b63d{fill:#323232;}.\35 ec36bcd-1a99-476c-a3e3-cfa9736db9db{letter-spacing:-0.04em;}.\30 d4ce300-609c-4f5d-aebe-21b71454c0dd,.bd65d6e3-6489-4fc1-8c83-5548feb39191{font-size:11px;}.\30 d4ce300-609c-4f5d-aebe-21b71454c0dd,.ac929034-fdaa-4d6c-ad3f-f00b9165aa37,.bd65d6e3-6489-4fc1-8c83-5548feb39191,.cb29b1fb-3160-4305-a6f6-fb885f6d2a4f{font-family:ArialMT, Arial;}.\39 2b98b96-4af4-4a0e-8331-5cca4f02205f{letter-spacing:-0.07em;}.\37 018f738-6664-4e2b-94b7-a8c1f749444c{letter-spacing:-0.06em;}.\36 b5df45b-6add-496e-9a27-31a31a5ee521{letter-spacing:0em;}.ac929034-fdaa-4d6c-ad3f-f00b9165aa37{font-size:10px;}.\32 3c077d2-df34-4f5b-9368-0195f9a2e9b5,.ac929034-fdaa-4d6c-ad3f-f00b9165aa37,.bd65d6e3-6489-4fc1-8c83-5548feb39191,.cb29b1fb-3160-4305-a6f6-fb885f6d2a4f,.db7d9a24-7fbb-4d2a-a0e5-9f60348e0f96{fill:#757575;}.\39 9c26f08-cdc7-4f04-98d5-d32c3b8433a3{letter-spacing:-0.06em;}.cb29b1fb-3160-4305-a6f6-fb885f6d2a4f{font-size:12.29px;}.\33 d82f15c-8e83-468a-8b11-3a61b0e3ce5d{letter-spacing:-0.02em;}.c394e257-cb48-45a6-80d5-271b58b127d2{font-size:12px;}</style></defs><title>2018.05_CisCatalanas_dos</title><g id="91fc8bd4-750f-4879-be88-5acddd123a69" data-name="líneas"><circle class="887b77d4-ea76-48b2-a719-b27f0c3f79b6" cx="95.6" cy="133.32" r="14.13"/><circle class="887b77d4-ea76-48b2-a719-b27f0c3f79b6" cx="95.6" cy="135.32" r="28.26"/><circle class="887b77d4-ea76-48b2-a719-b27f0c3f79b6" cx="95.6" cy="135.32" r="42.53"/><circle class="887b77d4-ea76-48b2-a719-b27f0c3f79b6" cx="95.6" cy="135.6" r="56.52"/><circle class="887b77d4-ea76-48b2-a719-b27f0c3f79b6" cx="95.6" cy="135.6" r="70.65"/><line class="887b77d4-ea76-48b2-a719-b27f0c3f79b6" x1="95.6" y1="214.7" x2="95.6" y2="47"/><line class="887b77d4-ea76-48b2-a719-b27f0c3f79b6" x1="25.37" y1="95.05" x2="165.83" y2="176.15"/><line class="887b77d4-ea76-48b2-a719-b27f0c3f79b6" x1="165.83" y1="93.05" x2="25.37" y2="174.15"/><circle class="887b77d4-ea76-48b2-a719-b27f0c3f79b6" cx="95.6" cy="313.32" r="14.13"/><circle class="887b77d4-ea76-48b2-a719-b27f0c3f79b6" cx="95.6" cy="313.32" r="28.26"/><circle class="887b77d4-ea76-48b2-a719-b27f0c3f79b6" cx="95.6" cy="313.32" r="42.53"/><circle class="887b77d4-ea76-48b2-a719-b27f0c3f79b6" cx="95.6" cy="313.6" r="56.52"/><circle class="887b77d4-ea76-48b2-a719-b27f0c3f79b6" cx="95.6" cy="313.6" r="70.65"/><line class="887b77d4-ea76-48b2-a719-b27f0c3f79b6" x1="95.6" y1="394.7" x2="95.6" y2="226"/><line class="887b77d4-ea76-48b2-a719-b27f0c3f79b6" x1="25.37" y1="273.05" x2="165.83" y2="354.15"/><line class="887b77d4-ea76-48b2-a719-b27f0c3f79b6" x1="165.83" y1="273.05" x2="25.37" y2="354.15"/><circle class="887b77d4-ea76-48b2-a719-b27f0c3f79b6" cx="256.6" cy="312.32" r="14.13"/><circle class="887b77d4-ea76-48b2-a719-b27f0c3f79b6" cx="256.6" cy="312.32" r="28.26"/><circle class="887b77d4-ea76-48b2-a719-b27f0c3f79b6" cx="256.6" cy="312.32" r="42.53"/><circle class="887b77d4-ea76-48b2-a719-b27f0c3f79b6" cx="256.6" cy="312.6" r="56.52"/><circle class="887b77d4-ea76-48b2-a719-b27f0c3f79b6" cx="256.6" cy="312.6" r="70.65"/><line class="887b77d4-ea76-48b2-a719-b27f0c3f79b6" x1="256.6" y1="393.7" x2="256.6" y2="226"/><line class="887b77d4-ea76-48b2-a719-b27f0c3f79b6" x1="186.37" y1="272.05" x2="326.83" y2="353.15"/><line class="887b77d4-ea76-48b2-a719-b27f0c3f79b6" x1="326.83" y1="272.05" x2="186.37" y2="353.15"/><circle class="887b77d4-ea76-48b2-a719-b27f0c3f79b6" cx="418.6" cy="310.32" r="14.13"/><circle class="887b77d4-ea76-48b2-a719-b27f0c3f79b6" cx="418.6" cy="310.32" r="28.26"/><circle class="887b77d4-ea76-48b2-a719-b27f0c3f79b6" cx="418.6" cy="310.32" r="42.53"/><circle class="887b77d4-ea76-48b2-a719-b27f0c3f79b6" cx="418.6" cy="310.6" r="56.52"/><circle class="887b77d4-ea76-48b2-a719-b27f0c3f79b6" cx="418.6" cy="310.6" r="70.65"/><line class="887b77d4-ea76-48b2-a719-b27f0c3f79b6" x1="418.6" y1="391.7" x2="418.6" y2="226"/><line class="887b77d4-ea76-48b2-a719-b27f0c3f79b6" x1="348.37" y1="270.05" x2="488.83" y2="351.15"/><line class="887b77d4-ea76-48b2-a719-b27f0c3f79b6" x1="488.83" y1="270.05" x2="348.37" y2="351.15"/><circle class="887b77d4-ea76-48b2-a719-b27f0c3f79b6" cx="95.6" cy="490.32" r="14.13"/><circle class="887b77d4-ea76-48b2-a719-b27f0c3f79b6" cx="95.6" cy="490.32" r="28.26"/><circle class="887b77d4-ea76-48b2-a719-b27f0c3f79b6" cx="95.6" cy="490.32" r="42.53"/><circle class="887b77d4-ea76-48b2-a719-b27f0c3f79b6" cx="95.6" cy="490.6" r="56.52"/><circle class="887b77d4-ea76-48b2-a719-b27f0c3f79b6" cx="95.6" cy="490.6" r="70.65"/><line class="887b77d4-ea76-48b2-a719-b27f0c3f79b6" x1="95.6" y1="571.7" x2="95.6" y2="403"/><line class="887b77d4-ea76-48b2-a719-b27f0c3f79b6" x1="25.37" y1="450.05" x2="165.83" y2="531.15"/><line class="887b77d4-ea76-48b2-a719-b27f0c3f79b6" x1="165.83" y1="450.05" x2="25.37" y2="531.15"/><circle class="887b77d4-ea76-48b2-a719-b27f0c3f79b6" cx="430.64" cy="506.39" r="10.78"/><circle class="887b77d4-ea76-48b2-a719-b27f0c3f79b6" cx="430.64" cy="506.39" r="21.57"/><circle class="887b77d4-ea76-48b2-a719-b27f0c3f79b6" cx="430.64" cy="506.39" r="32.46"/><circle class="887b77d4-ea76-48b2-a719-b27f0c3f79b6" cx="430.64" cy="506.6" r="43.13"/><circle class="887b77d4-ea76-48b2-a719-b27f0c3f79b6" cx="430.64" cy="506.6" r="53.92"/><line class="887b77d4-ea76-48b2-a719-b27f0c3f79b6" x1="430.64" y1="568.49" x2="430.64" y2="431.47"/><line class="887b77d4-ea76-48b2-a719-b27f0c3f79b6" x1="377.04" y1="475.66" x2="484.24" y2="537.55"/><line class="887b77d4-ea76-48b2-a719-b27f0c3f79b6" x1="484.24" y1="475.66" x2="377.04" y2="537.55"/><circle class="887b77d4-ea76-48b2-a719-b27f0c3f79b6" cx="256.02" cy="135.32" r="14.13"/><circle class="887b77d4-ea76-48b2-a719-b27f0c3f79b6" cx="256.02" cy="135.32" r="28.26"/><circle class="887b77d4-ea76-48b2-a719-b27f0c3f79b6" cx="256.02" cy="135.32" r="42.53"/><circle class="887b77d4-ea76-48b2-a719-b27f0c3f79b6" cx="256.02" cy="135.6" r="56.52"/><circle class="887b77d4-ea76-48b2-a719-b27f0c3f79b6" cx="256.02" cy="135.6" r="70.65"/><line class="887b77d4-ea76-48b2-a719-b27f0c3f79b6" x1="256.02" y1="216.7" x2="256.02" y2="47"/><line class="887b77d4-ea76-48b2-a719-b27f0c3f79b6" x1="185.78" y1="95.05" x2="326.25" y2="176.15"/><line class="887b77d4-ea76-48b2-a719-b27f0c3f79b6" x1="326.25" y1="95.05" x2="185.78" y2="176.15"/><circle class="887b77d4-ea76-48b2-a719-b27f0c3f79b6" cx="419.13" cy="135.22" r="14.13"/><circle class="887b77d4-ea76-48b2-a719-b27f0c3f79b6" cx="419.13" cy="135.22" r="28.26"/><circle class="887b77d4-ea76-48b2-a719-b27f0c3f79b6" cx="419.13" cy="135.22" r="42.53"/><circle class="887b77d4-ea76-48b2-a719-b27f0c3f79b6" cx="419.13" cy="135.51" r="56.52"/><circle class="887b77d4-ea76-48b2-a719-b27f0c3f79b6" cx="419.13" cy="135.51" r="70.65"/><line class="887b77d4-ea76-48b2-a719-b27f0c3f79b6" x1="419.13" y1="216.61" x2="419.13" y2="47"/><line class="887b77d4-ea76-48b2-a719-b27f0c3f79b6" x1="348.89" y1="94.96" x2="489.36" y2="176.06"/><line class="887b77d4-ea76-48b2-a719-b27f0c3f79b6" x1="489.36" y1="94.96" x2="348.89" y2="176.06"/><line class="0a860ba7-3c1d-4120-ae5d-5e5da5e6806e" x1="213.5" y1="424.5" x2="488.5" y2="424.5"/><line class="0a860ba7-3c1d-4120-ae5d-5e5da5e6806e" x1="13.5" y1="38.5" x2="495.5" y2="38.5"/></g><g id="c2125673-a02a-4523-ba25-4b64a8434350" data-name="Capa 1"><g class="00a22219-283c-44b7-b372-50e6dd904050"><path class="83619ab6-98b1-4d02-9fe9-27ef215ff12e" d="M256.68,70.92a65.14,65.14,0,0,1,56.55,32.35l-56.29,32.8Z"/><path class="83619ab6-98b1-4d02-9fe9-27ef215ff12e" d="M294.5,115.5c6,12,6,30-1,42l-36.87-21.44Z"/><path class="83619ab6-98b1-4d02-9fe9-27ef215ff12e" d="M296.5,159.5c-9.7,17-26,24-40,23l.13-46.44Z"/><path class="83619ab6-98b1-4d02-9fe9-27ef215ff12e" d="M256.5,187.5c-18,0-35.87-7.62-46-25l46.13-26.44Z"/><path class="83619ab6-98b1-4d02-9fe9-27ef215ff12e" d="M218.5,156.5c-7-14-7-26,0-42l38.13,21.56Z"/><path class="83619ab6-98b1-4d02-9fe9-27ef215ff12e" d="M212.5,110.5c10.17-17.78,22.52-23.92,43-24l1.13,49.56Z"/></g><g class="00a22219-283c-44b7-b372-50e6dd904050"><path class="16ffee5c-f6af-4f39-9aaa-14e8b3408c85" d="M95.59,61.95a73.9,73.9,0,0,1,63.9,37.12l-64.1,36.78Z"/><path class="16ffee5c-f6af-4f39-9aaa-14e8b3408c85" d="M140.5,110.5c9,13,6,37-2,50L95.39,135.85Z"/><path class="16ffee5c-f6af-4f39-9aaa-14e8b3408c85" d="M150.87,167.13c-12,20.64-31.8,32.44-55.66,32.37l.18-63.65Z"/><path class="16ffee5c-f6af-4f39-9aaa-14e8b3408c85" d="M95.5,201.5c-24.42-.07-43.85-12.82-56-34l55.89-31.65Z"/><path class="16ffee5c-f6af-4f39-9aaa-14e8b3408c85" d="M52.5,159.5c-9-16-9-34,1-49l41.89,25.35Z"/><path class="16ffee5c-f6af-4f39-9aaa-14e8b3408c85" d="M47.5,106.5a55.2,55.2,0,0,1,48-27l-.11,56.35Z"/></g><g class="00a22219-283c-44b7-b372-50e6dd904050"><path class="f8338462-cc51-4719-b33b-a70abd9f8048" d="M420.18,84a51.55,51.55,0,0,1,44.63,25.8l-44.66,25.75Z"/><path class="f8338462-cc51-4719-b33b-a70abd9f8048" d="M450.5,117.5c7,10,7,26,0,36l-30.35-17.91Z"/><path class="f8338462-cc51-4719-b33b-a70abd9f8048" d="M448.5,152.5c-7.37,12.75-13.27,17-28,17l-.35-33.91Z"/><path class="f8338462-cc51-4719-b33b-a70abd9f8048" d="M420.5,166.5c-12,0-23-8-27-15l26.65-15.91Z"/><path class="f8338462-cc51-4719-b33b-a70abd9f8048" d="M399.5,147.5c-4-6-6-17,0-24l20.65,12.09Z"/><path class="f8338462-cc51-4719-b33b-a70abd9f8048" d="M409.5,129.5c1-2,5-6,10-6l.65,12.09Z"/></g><g class="a777ba1c-c0b8-4029-bc90-87e58f2d7222"><path class="08ac8fda-0096-48b2-9f75-278b0926ddbb" d="M95.61,286.54a26.25,26.25,0,0,1,22.7,13.18L95.54,312.79Z"/><path class="08ac8fda-0096-48b2-9f75-278b0926ddbb" d="M137,292c8,13,8,31,0,45L95.54,312.79Z"/><path class="08ac8fda-0096-48b2-9f75-278b0926ddbb" d="M125,331c-5.25,9-19,17-29,15l-.46-33.21Z"/><path class="08ac8fda-0096-48b2-9f75-278b0926ddbb" d="M95,343c-9.57,0-20-6-24-16l24.54-14.21Z"/><path class="08ac8fda-0096-48b2-9f75-278b0926ddbb" d="M73.56,325.41a25.35,25.35,0,0,1,.06-25.35l21.92,12.73Z"/><path class="08ac8fda-0096-48b2-9f75-278b0926ddbb" d="M83,305a12.09,12.09,0,0,1,13-7l-.46,14.79Z"/></g><g class="00a22219-283c-44b7-b372-50e6dd904050"><path class="3c25a725-ca58-445f-ba02-155d99b4c7c4" d="M418.14,299.31A11.4,11.4,0,0,1,428,305l-9.86,5.72Z"/><path class="3c25a725-ca58-445f-ba02-155d99b4c7c4" d="M439.5,298.5c2.58,4.45,6,15,0,24l-21.34-11.79Z"/><path class="3c25a725-ca58-445f-ba02-155d99b4c7c4" d="M435.5,320.5c-1,7-9,14-17,12l-.34-21.79Z"/><path class="3c25a725-ca58-445f-ba02-155d99b4c7c4" d="M418.5,335.5c-5,2-18-4-21-12l20.66-12.79Z"/><path class="3c25a725-ca58-445f-ba02-155d99b4c7c4" d="M389.5,327.5c-6-8-9-23,0-34l28.66,17.21Z"/><path class="3c25a725-ca58-445f-ba02-155d99b4c7c4" d="M394.5,295.5c7-12,19-15,24-13l-.34,28.21Z"/></g><g class="00a22219-283c-44b7-b372-50e6dd904050"><path class="72464f7d-f859-494d-8b4f-f7c4bbcc105a" d="M257.14,295.8a15.34,15.34,0,0,1,13.28,7.67l-13.29,7.67Z"/><path class="72464f7d-f859-494d-8b4f-f7c4bbcc105a" d="M278.5,300.5c5,3,5,19,1,24l-22.36-13.36Z"/><path class="72464f7d-f859-494d-8b4f-f7c4bbcc105a" d="M273.5,322.5c-2,7-8,11-16,10l-.36-21.36Z"/><path class="72464f7d-f859-494d-8b4f-f7c4bbcc105a" d="M256.5,337.5c-13,1-18.62-6.15-22-12l22.64-14.36Z"/><path class="72464f7d-f859-494d-8b4f-f7c4bbcc105a" d="M230.5,327.5c-6-6-6-24-1-30l27.64,13.64Z"/><path class="72464f7d-f859-494d-8b4f-f7c4bbcc105a" d="M234.5,299.5c5-10,15.35-13,22-13l.64,24.64Z"/></g><g class="00a22219-283c-44b7-b372-50e6dd904050"><path class="2d05dad9-7de3-43e3-ac6c-9ac708f814da" d="M95,483.8a7.05,7.05,0,0,1,6.12,3.51L95,490.85Z"/><path class="2d05dad9-7de3-43e3-ac6c-9ac708f814da" d="M101.24,487.24a7.2,7.2,0,0,1,0,7.2L95,490.85Z"/><path class="2d05dad9-7de3-43e3-ac6c-9ac708f814da" d="M99.11,493.2A4.71,4.71,0,0,1,95,495.57v-4.71Z"/><path class="2d05dad9-7de3-43e3-ac6c-9ac708f814da" d="M95,496.67a5.82,5.82,0,0,1-5-2.9l5-2.92Z"/><path class="2d05dad9-7de3-43e3-ac6c-9ac708f814da" d="M87.07,495.47a9.2,9.2,0,0,1,0-9.2l8,4.58Z"/><path class="2d05dad9-7de3-43e3-ac6c-9ac708f814da" d="M85.5,484.5c1.75-3.06,5.48-6,9-6L95,490.85Z"/></g><text class="dd63c1d9-300f-427e-9e0b-3868fdb9b63d" transform="translate(13.67 18.12)"><tspan class="5ec36bcd-1a99-476c-a3e3-cfa9736db9db">A</tspan><tspan x="10.96" y="0" xml:space="preserve"> qué partidos políticos se sienten más cercanos los catalanes</tspan></text><text class="0d4ce300-609c-4f5d-aebe-21b71454c0dd" transform="translate(199.74 33.54)">POR PORCEN<tspan class="92b98b96-4af4-4a0e-8331-5cca4f02205f" x="73.96" y="0">T</tspan><tspan x="79.86" y="0">AJE DE L</tspan><tspan class="7018f738-6664-4e2b-94b7-a8c1f749444c" x="127.54" y="0">A</tspan><tspan class="6b5df45b-6add-496e-9a27-31a31a5ee521" x="134.27" y="0" xml:space="preserve"> POBLACIÓN, SEGÚN L</tspan><tspan class="7018f738-6664-4e2b-94b7-a8c1f749444c" x="255.92" y="0">A</tspan><tspan x="262.65" y="0" xml:space="preserve"> EDAD</tspan></text><text class="ac929034-fdaa-4d6c-ad3f-f00b9165aa37" transform="translate(2.67 603.83)">Fuente: Estudio Postelectoral de Catalunya del CIS</text><text class="ac929034-fdaa-4d6c-ad3f-f00b9165aa37" transform="translate(418.71 603.83)">L<tspan class="99c26f08-cdc7-4f04-98d5-d32c3b8433a3" x="5.56" y="0">A</tspan><tspan x="11.68" y="0"> </tspan><tspan class="92b98b96-4af4-4a0e-8331-5cca4f02205f" x="14.46" y="0">V</tspan><tspan x="20.39" y="0">ANGUARDI</tspan><tspan class="99c26f08-cdc7-4f04-98d5-d32c3b8433a3" x="73.17" y="0">A</tspan></text><text class="cb29b1fb-3160-4305-a6f6-fb885f6d2a4f" transform="translate(432.87 510.71)">0%</text><text class="cb29b1fb-3160-4305-a6f6-fb885f6d2a4f" transform="translate(433.87 440.62)">50%</text><text class="db7d9a24-7fbb-4d2a-a0e5-9f60348e0f96" transform="translate(98 58.9)">ERC</text><text class="db7d9a24-7fbb-4d2a-a0e5-9f60348e0f96" transform="translate(258 58.9)">JxC<tspan class="92b98b96-4af4-4a0e-8331-5cca4f02205f" x="29.35" y="0">A</tspan><tspan x="39.72" y="0">T</tspan></text><text class="db7d9a24-7fbb-4d2a-a0e5-9f60348e0f96" transform="translate(422 57.9)">CU<tspan class="3d82f15c-8e83-468a-8b11-3a61b0e3ce5d" x="23.11" y="0">P</tspan></text><text class="db7d9a24-7fbb-4d2a-a0e5-9f60348e0f96" transform="translate(98 234.9)">CeC-<tspan class="3d82f15c-8e83-468a-8b11-3a61b0e3ce5d" x="37.34" y="0">P</tspan></text><text class="db7d9a24-7fbb-4d2a-a0e5-9f60348e0f96" transform="translate(258 233.9)">C<tspan class="5ec36bcd-1a99-476c-a3e3-cfa9736db9db" x="11.55" y="0">’</tspan><tspan x="15.41" y="0">s</tspan></text><text class="db7d9a24-7fbb-4d2a-a0e5-9f60348e0f96" transform="translate(421 232.9)">PSC</text><text class="db7d9a24-7fbb-4d2a-a0e5-9f60348e0f96" transform="translate(98 415.9)">P<tspan class="3d82f15c-8e83-468a-8b11-3a61b0e3ce5d" x="10.67" y="0">P</tspan></text><text class="0d4ce300-609c-4f5d-aebe-21b71454c0dd" transform="translate(211.33 419.67)">¿CÓMO LEER E<tspan class="5ec36bcd-1a99-476c-a3e3-cfa9736db9db" x="83.12" y="0">L</tspan><tspan class="6b5df45b-6add-496e-9a27-31a31a5ee521" x="88.83" y="0" xml:space="preserve"> GRÁFICO?</tspan></text><text class="bd65d6e3-6489-4fc1-8c83-5548feb39191" transform="translate(213.33 443.67)">Cada círculo representa <tspan x="0" y="13.2">el porcentaje de población </tspan><tspan x="0" y="26.4">de cada franja de edad</tspan><tspan x="0" y="39.6">que se siente cerca o muy </tspan><tspan x="0" y="52.8">cerca de cada partido </tspan><tspan x="0" y="66">político. Cada fragmento </tspan><tspan x="0" y="79.2">del círculo representa</tspan><tspan x="0" y="92.4">una franja de edad y es </tspan><tspan x="0" y="105.6">más grande o menos en </tspan><tspan x="0" y="120">función del porcentaje de apoyo</tspan><tspan class="c394e257-cb48-45a6-80d5-271b58b127d2" x="155.95" y="120">.</tspan></text></g><g id="d3e0e49a-ee3f-4a1a-a902-4b8fe4b66e5c" data-name="letras"><path class="23c077d2-df34-4f5b-9368-0195f9a2e9b5" d="M442.68,453.31l.82-6.35c1.05.14,1.58.22,2.62.4a6.66,6.66,0,0,1,1.32.35,2.67,2.67,0,0,1,1,.68,2.53,2.53,0,0,1,.61,1.27,3.73,3.73,0,0,1-.09,1.55,4.18,4.18,0,0,1-.5,1.21,3.21,3.21,0,0,1-.68.79,2.5,2.5,0,0,1-.74.43,2.74,2.74,0,0,1-.86.14,5.35,5.35,0,0,1-1.09-.1C444.13,453.52,443.65,453.44,442.68,453.31Zm1-.62,1.45.24a4.12,4.12,0,0,0,1.07.08,1.6,1.6,0,0,0,.67-.2,2.06,2.06,0,0,0,.67-.68A3.68,3.68,0,0,0,448,451a2.63,2.63,0,0,0,0-1.59,1.8,1.8,0,0,0-.76-.9,4.17,4.17,0,0,0-1.24-.37l-1.57-.26Z"/><path class="23c077d2-df34-4f5b-9368-0195f9a2e9b5" d="M452.88,454.23l.78.39a2,2,0,0,1-1.09.78,2.41,2.41,0,0,1-1.44-.07,2.25,2.25,0,0,1-1.58-3,2.34,2.34,0,0,1,1.14-1.57,2.39,2.39,0,0,1,1.89-.1,2.17,2.17,0,0,1,1.43,3.06l-.08.19c-1.41-.53-2.12-.77-3.57-1.19a1.75,1.75,0,0,0,.12,1.25,1.44,1.44,0,0,0,.86.69,1.36,1.36,0,0,0,.81,0A1.55,1.55,0,0,0,452.88,454.23Zm-2.28-2.07c1.1.32,1.64.5,2.72.88a1.45,1.45,0,0,0,0-.94,1.39,1.39,0,0,0-.9-.78,1.47,1.47,0,0,0-1.09,0A1.34,1.34,0,0,0,450.6,452.15Z"/><path class="23c077d2-df34-4f5b-9368-0195f9a2e9b5" d="M459,458.58l-.72-.38,2.3-4.45a5.15,5.15,0,0,1-1,.1,7.21,7.21,0,0,1-1,0l.33-.69a6.31,6.31,0,0,0,1.52-.09,3.32,3.32,0,0,0,1.12-.39l.52.28Z"/><path class="23c077d2-df34-4f5b-9368-0195f9a2e9b5" d="M463.76,457.34a1.71,1.71,0,0,1-.41-.86,1.25,1.25,0,0,1,.19-.82,1.44,1.44,0,0,1,1.11-.7,2.67,2.67,0,0,1,2.59,1.73A1.46,1.46,0,0,1,467,458a1.22,1.22,0,0,1-.67.48,1.7,1.7,0,0,1-.94,0,1.83,1.83,0,0,1,.45,1.08,1.59,1.59,0,0,1-.33,1,1.84,1.84,0,0,1-1.3.76,2.64,2.64,0,0,1-2.65-1.76,1.86,1.86,0,0,1,.2-1.52,1.58,1.58,0,0,1,.83-.72A1.71,1.71,0,0,1,463.76,457.34Zm-1.24,1.14a1.37,1.37,0,0,0-.2.64,1.18,1.18,0,0,0,.16.68,1.55,1.55,0,0,0,.5.53,1.4,1.4,0,0,0,1,.25,1.22,1.22,0,0,0,.85-.53,1.2,1.2,0,0,0,.2-1,1.45,1.45,0,0,0-.65-.89,1.39,1.39,0,0,0-1-.24A1.18,1.18,0,0,0,462.51,458.47Zm1.81-2.36a1,1,0,0,0-.12.8,1.27,1.27,0,0,0,.55.71,1.24,1.24,0,0,0,.85.23.93.93,0,0,0,.8-1.18,1.25,1.25,0,0,0-.55-.73,1.27,1.27,0,0,0-.88-.23A.87.87,0,0,0,464.32,456.12Z"/><path class="23c077d2-df34-4f5b-9368-0195f9a2e9b5" d="M470,465.93a3.3,3.3,0,0,1-1-.23,2.74,2.74,0,0,1-.76-.5,1.85,1.85,0,0,1-.66-1.08,1.23,1.23,0,0,1,.29-1,1.19,1.19,0,0,1,.53-.37,1.28,1.28,0,0,1,.63-.06,2,2,0,0,1,.63.21,5.63,5.63,0,0,1,.64.42,10.39,10.39,0,0,0,1.3.86l.15-.14a.81.81,0,0,0,.29-.66,1.55,1.55,0,0,0-.54-.88,1.65,1.65,0,0,0-.81-.48,1.15,1.15,0,0,0-.78.23l-.57-.63a1.76,1.76,0,0,1,.81-.36,1.67,1.67,0,0,1,.9.17,3.67,3.67,0,0,1,1,.68,3.35,3.35,0,0,1,.7.86,1.42,1.42,0,0,1,.19.68,1.15,1.15,0,0,1-.18.57,3.83,3.83,0,0,1-.48.54l-.74.74a10.76,10.76,0,0,0-.95,1,1.75,1.75,0,0,0-.25.54l-.6-.6A1.66,1.66,0,0,1,470,465.93Zm1.18-1.3a7.81,7.81,0,0,1-1.21-.74,3.16,3.16,0,0,0-.65-.38.71.71,0,0,0-.42,0,.64.64,0,0,0-.33.2.66.66,0,0,0-.16.56,1.14,1.14,0,0,0,.4.64,1.82,1.82,0,0,0,.75.43,1.28,1.28,0,0,0,.77,0,1.8,1.8,0,0,0,.65-.47Z"/><path class="23c077d2-df34-4f5b-9368-0195f9a2e9b5" d="M475.79,472.52l-.62.43a39.19,39.19,0,0,0-2.7-3.49,1.33,1.33,0,0,1,.48-.28,2.71,2.71,0,0,1,1-.13,7.12,7.12,0,0,1,1.45.25,11.78,11.78,0,0,0,2,.42,1.55,1.55,0,0,0,1-.22,1,1,0,0,0,.41-.78,1.51,1.51,0,0,0-.36-1,1.53,1.53,0,0,0-.92-.62,1.18,1.18,0,0,0-1,.29l-.53-.76a1.84,1.84,0,0,1,1.52-.33,2.68,2.68,0,0,1,1.44,1,2.55,2.55,0,0,1,.62,1.69,1.54,1.54,0,0,1-.67,1.24,1.75,1.75,0,0,1-.72.29,3.12,3.12,0,0,1-1,0c-.38-.06-1-.2-1.7-.4a10.85,10.85,0,0,0-1.24-.27,2.51,2.51,0,0,0-.55,0C474.62,470.89,475,471.42,475.79,472.52Z"/><path class="23c077d2-df34-4f5b-9368-0195f9a2e9b5" d="M477.1,475.92l1.32-.78c-.62-1-.94-1.55-1.62-2.54l.59-.41a41.15,41.15,0,0,1,5.3.61l.39.67-3.6,2.06.47.84-.63.35-.46-.82-1.33.76Zm1.94-1.15,2.48-1.48c-1.47-.22-2.2-.29-3.65-.4C478.34,473.63,478.58,474,479,474.77Z"/><path class="23c077d2-df34-4f5b-9368-0195f9a2e9b5" d="M483.59,490.1l6-2.24c.37,1,.55,1.5.87,2.5a6.66,6.66,0,0,1,.31,1.33,2.67,2.67,0,0,1-.14,1.2,2.54,2.54,0,0,1-.84,1.13,3.74,3.74,0,0,1-1.41.64,4.17,4.17,0,0,1-1.3.13,3.2,3.2,0,0,1-1-.23,2.5,2.5,0,0,1-.72-.45,2.74,2.74,0,0,1-.53-.69,5.35,5.35,0,0,1-.42-1C484.09,491.48,483.93,491,483.59,490.1Zm1,.59c.2.55.29.83.47,1.39a4.12,4.12,0,0,0,.42,1,1.6,1.6,0,0,0,.49.5,2.07,2.07,0,0,0,.92.28,3.69,3.69,0,0,0,1.24-.14,2.63,2.63,0,0,0,1.39-.76,1.8,1.8,0,0,0,.44-1.1,4.17,4.17,0,0,0-.25-1.27c-.19-.61-.29-.91-.51-1.51Z"/><path class="23c077d2-df34-4f5b-9368-0195f9a2e9b5" d="M487.55,499.55c0,.35,0,.53,0,.88a2,2,0,0,1-1.2-.6,2.39,2.39,0,0,1,1.27-4.09,2.34,2.34,0,0,1,1.92.27,2.39,2.39,0,0,1,1,1.63,2.17,2.17,0,0,1-2,2.69l-.21,0c-.19-1.49-.31-2.23-.62-3.71a1.75,1.75,0,0,0-1.06.69,1.44,1.44,0,0,0-.21,1.08,1.36,1.36,0,0,0,.35.73A1.55,1.55,0,0,0,487.55,499.55Zm.76-3c.23,1.12.33,1.68.49,2.81a1.45,1.45,0,0,0,.82-.46,1.39,1.39,0,0,0,.27-1.16,1.47,1.47,0,0,0-.54-.95A1.34,1.34,0,0,0,488.32,496.56Z"/><path class="23c077d2-df34-4f5b-9368-0195f9a2e9b5" d="M487.3,508.26l-.75,0a39.25,39.25,0,0,0-.05-4.37,1.34,1.34,0,0,1,.55.06,2.71,2.71,0,0,1,.88.5,7.13,7.13,0,0,1,1,1.07,11.56,11.56,0,0,0,1.37,1.54,1.56,1.56,0,0,0,.94.42,1,1,0,0,0,.79-.37,1.48,1.48,0,0,0,.32-1,1.51,1.51,0,0,0-.36-1,1.18,1.18,0,0,0-1-.36c0-.37,0-.55,0-.92a1.84,1.84,0,0,1,1.41.65,2.64,2.64,0,0,1,.52,1.69,2.5,2.5,0,0,1-.52,1.7,1.55,1.55,0,0,1-1.28.58,1.77,1.77,0,0,1-.75-.2,3.11,3.11,0,0,1-.77-.6c-.27-.27-.64-.72-1.12-1.33a10.91,10.91,0,0,0-.82-1,2.51,2.51,0,0,0-.44-.34C487.34,506.28,487.34,506.94,487.3,508.26Z"/><path class="23c077d2-df34-4f5b-9368-0195f9a2e9b5" d="M488.18,509.19c0,.35,0,.53,0,.88a1.48,1.48,0,0,0-.94.38,1.28,1.28,0,0,0-.38.81,1.38,1.38,0,0,0,.32,1,1.58,1.58,0,0,0,1.08.55,1.37,1.37,0,0,0,1.1-.28,1.5,1.5,0,0,0,.5-1,1.6,1.6,0,0,0-.1-.77,1.38,1.38,0,0,0-.41-.56c.06-.32.09-.48.15-.8,1.3.35,1.95.53,3.24.91-.1,1.49-.18,2.23-.39,3.7l-.74-.1c.16-1.17.23-1.75.33-2.93l-1.68-.53a2.41,2.41,0,0,1,.28,1.39,2.19,2.19,0,0,1-.76,1.5,1.9,1.9,0,0,1-1.57.42,2.32,2.32,0,0,1-1.41-.74,2.24,2.24,0,0,1-.57-1.82,2.29,2.29,0,0,1,.61-1.43A1.93,1.93,0,0,1,488.18,509.19Z"/><path class="23c077d2-df34-4f5b-9368-0195f9a2e9b5" d="M485.18,520.13a3.3,3.3,0,0,1-.26-1,2.74,2.74,0,0,1,.08-.91,1.85,1.85,0,0,1,.65-1.09,1.23,1.23,0,0,1,1-.21,1.19,1.19,0,0,1,.57.3,1.28,1.28,0,0,1,.34.53,2,2,0,0,1,.11.66,5.63,5.63,0,0,1-.07.77,10.39,10.39,0,0,0-.15,1.55l.2.06a.81.81,0,0,0,.72,0,1.55,1.55,0,0,0,.53-.89,1.65,1.65,0,0,0,0-.94,1.15,1.15,0,0,0-.57-.59l.29-.8a1.76,1.76,0,0,1,.69.55,1.67,1.67,0,0,1,.27.87,3.67,3.67,0,0,1-.14,1.2,3.35,3.35,0,0,1-.43,1,1.42,1.42,0,0,1-.51.49,1.15,1.15,0,0,1-.59.1,3.83,3.83,0,0,1-.7-.18l-1-.31a10.66,10.66,0,0,0-1.34-.37,1.74,1.74,0,0,0-.59,0c.1-.32.15-.49.25-.81A1.66,1.66,0,0,1,485.18,520.13Zm1.7.43a7.81,7.81,0,0,1,.09-1.42,3.16,3.16,0,0,0,0-.75.72.72,0,0,0-.17-.38.64.64,0,0,0-.34-.2.66.66,0,0,0-.57.12,1.14,1.14,0,0,0-.38.66,1.82,1.82,0,0,0,0,.87,1.28,1.28,0,0,0,.37.68,1.8,1.8,0,0,0,.72.35Z"/><path class="23c077d2-df34-4f5b-9368-0195f9a2e9b5" d="M484.77,524.72c-.09.33-.13.49-.23.82a1.73,1.73,0,0,0-1.08.08,1.28,1.28,0,0,0-.61.65,1.43,1.43,0,0,0-.07,1.06,1.27,1.27,0,0,0,.68.78,1.14,1.14,0,0,0,1,0,1.41,1.41,0,0,0,.74-.76,2.62,2.62,0,0,0,.17-.6l.59.37-.07.13a2.08,2.08,0,0,0-.19,1,.93.93,0,0,0,1.32.76,1.31,1.31,0,0,0,.63-.68,1.25,1.25,0,0,0-.52-1.69l.47-.78a1.9,1.9,0,0,1,.84,1.17,2.39,2.39,0,0,1-.2,1.55,2.72,2.72,0,0,1-.69.94,1.78,1.78,0,0,1-.9.44,1.4,1.4,0,0,1-.86-.13,1.25,1.25,0,0,1-.56-.57,1.75,1.75,0,0,1-.16-.91,1.64,1.64,0,0,1-.92.64,1.52,1.52,0,0,1-1.08-.16,1.88,1.88,0,0,1-1-1.23,2.43,2.43,0,0,1,.17-1.71,2.26,2.26,0,0,1,1-1.14A2,2,0,0,1,484.77,524.72Z"/><path class="23c077d2-df34-4f5b-9368-0195f9a2e9b5" d="M479.69,531.1l1.31.8c.63-1,.93-1.56,1.49-2.62l.64.34a41.15,41.15,0,0,1,1.94,5l-.41.65-3.5-2.22-.52.8-.6-.4.51-.79-1.29-.82Zm1.92,1.17,2.47,1.5c-.5-1.4-.77-2.09-1.36-3.42C482.3,531.13,482.08,531.52,481.62,532.27Z"/><path class="23c077d2-df34-4f5b-9368-0195f9a2e9b5" d="M432.26,569.12l.28-6.4c.93,0,1.4,0,2.33,0a6.81,6.81,0,0,1,1.2.07,2.49,2.49,0,0,1,1,.42,2.77,2.77,0,0,1,.88,1,4.07,4.07,0,0,1,.38,1.5,3.9,3.9,0,0,1-.1,1.3,2.84,2.84,0,0,1-.44,1,2.41,2.41,0,0,1-.65.62,2.93,2.93,0,0,1-.89.36,5.5,5.5,0,0,1-1.22.13C433.92,569.18,433.37,569.17,432.26,569.12Zm1-.72h1.61a4.19,4.19,0,0,0,1.17-.14,1.67,1.67,0,0,0,.66-.36,1.92,1.92,0,0,0,.5-.83,3.47,3.47,0,0,0,.12-1.24,2.83,2.83,0,0,0-.44-1.52,1.81,1.81,0,0,0-.89-.69,4.09,4.09,0,0,0-1.17-.11h-1.44Z"/><path class="23c077d2-df34-4f5b-9368-0195f9a2e9b5" d="M443.3,566.94l.93-.07a1.92,1.92,0,0,1-.62,1.23,2.71,2.71,0,0,1-1.48.63,2.62,2.62,0,0,1-2-.39,2.2,2.2,0,0,1-.86-1.68,2.47,2.47,0,0,1,.49-1.87,2.42,2.42,0,0,1,1.6-.85,2.33,2.33,0,0,1,1.72.37,2.43,2.43,0,0,1,1,1.64l0,.21c-1.54.29-2.31.41-3.88.58a1.63,1.63,0,0,0,.63,1.11,1.58,1.58,0,0,0,1.17.26,1.53,1.53,0,0,0,.82-.35A1.48,1.48,0,0,0,443.3,566.94Zm-3.08-.85c1.16-.13,1.73-.21,2.87-.41a1.51,1.51,0,0,0-.47-.81,1.41,1.41,0,0,0-1.12-.29,1.48,1.48,0,0,0-.94.49A1.4,1.4,0,0,0,440.23,566.09Z"/><path class="23c077d2-df34-4f5b-9368-0195f9a2e9b5" d="M447.8,565.76l.83-.34a1.62,1.62,0,0,0,.77.78,1.41,1.41,0,0,0,1,0,1.55,1.55,0,0,0,.91-.7,1.2,1.2,0,0,0,.11-1,1.16,1.16,0,0,0-.66-.72,1.48,1.48,0,0,0-1.06,0,2.9,2.9,0,0,0-.56.26l-.11-.69.13,0a1.81,1.81,0,0,0,.86-.55.87.87,0,0,0,.16-.9.94.94,0,0,0-.52-.58,1.14,1.14,0,0,0-.84,0,1.18,1.18,0,0,0-.68.51,1.44,1.44,0,0,0-.16.95l-.85.09a2.06,2.06,0,0,1,.34-1.36,2.09,2.09,0,0,1,1.14-.79,2.33,2.33,0,0,1,1-.09,1.74,1.74,0,0,1,.86.35,1.54,1.54,0,0,1,.51.7,1.27,1.27,0,0,1,0,.79,1.58,1.58,0,0,1-.5.75,1.72,1.72,0,0,1,1.1.2,1.56,1.56,0,0,1,.68.85,1.75,1.75,0,0,1-.18,1.57,2.63,2.63,0,0,1-1.53,1.12,2.49,2.49,0,0,1-1.71,0A1.81,1.81,0,0,1,447.8,565.76Z"/><path class="23c077d2-df34-4f5b-9368-0195f9a2e9b5" d="M453.17,564l.84-.41a1.39,1.39,0,0,0,.79.65,1.42,1.42,0,0,0,1-.09,1.51,1.51,0,0,0,.83-.85,1.47,1.47,0,0,0-.08-1.22,1.4,1.4,0,0,0-.83-.78,1.56,1.56,0,0,0-1.15.09,1.67,1.67,0,0,0-.62.45,1.46,1.46,0,0,0-.32.62l-.79.21c-.22-1.33-.34-2-.6-3.3,1.22-.49,1.82-.76,3-1.34l.33.68c-1,.47-1.45.69-2.44,1.11.13.69.2,1,.32,1.73a2.5,2.5,0,0,1,1-.88,2.26,2.26,0,0,1,1.63-.12,2,2,0,0,1,1.23,1.06,2.11,2.11,0,0,1,.14,1.6,2.43,2.43,0,0,1-1.45,1.52,2.56,2.56,0,0,1-1.72.19A1.78,1.78,0,0,1,453.17,564Z"/><path class="23c077d2-df34-4f5b-9368-0195f9a2e9b5" d="M464.51,559.31a3.32,3.32,0,0,1-.52,1,3.12,3.12,0,0,1-.77.68,2.12,2.12,0,0,1-1.37.4,1.15,1.15,0,0,1-.89-.58,1.16,1.16,0,0,1-.16-.63,1.38,1.38,0,0,1,.16-.62,2.33,2.33,0,0,1,.41-.55,7.69,7.69,0,0,1,.6-.51,7.43,7.43,0,0,0,1.15-1.09l-.11-.17a.83.83,0,0,0-.58-.42,1.56,1.56,0,0,0-1,.32,1.66,1.66,0,0,0-.64.64,1.19,1.19,0,0,0,0,.81l-.78.35a1.87,1.87,0,0,1-.08-.88,1.69,1.69,0,0,1,.39-.79,3.79,3.79,0,0,1,.86-.74,3.41,3.41,0,0,1,.94-.46,1.42,1.42,0,0,1,.68,0,1.21,1.21,0,0,1,.53.28,3.94,3.94,0,0,1,.46.57l.61.85a9.64,9.64,0,0,0,.85,1.1,1.57,1.57,0,0,0,.51.32l-.79.56A1.48,1.48,0,0,1,464.51,559.31Zm-1.06-1.4a6.29,6.29,0,0,1-1,1,4,4,0,0,0-.57.55.77.77,0,0,0-.16.4.62.62,0,0,0,.09.38.63.63,0,0,0,.51.3,1.29,1.29,0,0,0,.8-.25,2,2,0,0,0,.68-.68,1.28,1.28,0,0,0,.19-.78,1.67,1.67,0,0,0-.32-.73Z"/><path class="23c077d2-df34-4f5b-9368-0195f9a2e9b5" d="M471,554.81l-1-1.12c-.93.87-1.41,1.29-2.4,2.1l-.46-.56a42.17,42.17,0,0,0-.36-5.21l.49-.46,2.88,3,.7-.69.51.51-.71.7,1.07,1.1Zm-1.54-1.65-2-2.11c.16,1.43.22,2.16.28,3.62C468.47,554.09,468.81,553.79,469.48,553.16Z"/><path class="23c077d2-df34-4f5b-9368-0195f9a2e9b5" d="M475.11,550.54l-1.16-1c-.84,1-1.28,1.46-2.17,2.38l-.52-.5a42.47,42.47,0,0,0-.91-5.16l.44-.52,3.2,2.65.63-.77.56.45-.64.78,1.18,1Zm-1.71-1.47-2.19-1.88c.31,1.41.44,2.13.66,3.59C472.49,550.11,472.8,549.77,473.4,549.07Z"/><path class="23c077d2-df34-4f5b-9368-0195f9a2e9b5" d="M377.56,539.39l5.67-3c.43.83.66,1.23,1.13,2a6.8,6.8,0,0,1,.54,1.07,2.49,2.49,0,0,1,.15,1.08,2.77,2.77,0,0,1-.46,1.28,4.07,4.07,0,0,1-1.1,1.08,3.9,3.9,0,0,1-1.18.57,2.84,2.84,0,0,1-1.06.1,2.41,2.41,0,0,1-.86-.25,2.93,2.93,0,0,1-.76-.59,5.5,5.5,0,0,1-.73-1C378.34,540.86,378.07,540.37,377.56,539.39Zm1.14.53c.31.57.47.85.8,1.4a4.18,4.18,0,0,0,.7.94,1.67,1.67,0,0,0,.64.39,1.91,1.91,0,0,0,1,0,3.46,3.46,0,0,0,1.14-.52A2.83,2.83,0,0,0,384,541a1.81,1.81,0,0,0,.15-1.12,4.09,4.09,0,0,0-.49-1.07c-.29-.5-.43-.75-.71-1.25Z"/><path class="23c077d2-df34-4f5b-9368-0195f9a2e9b5" d="M385,547.84l.53.77a1.92,1.92,0,0,1-1.38.09,2.7,2.7,0,0,1-1.29-1,2.62,2.62,0,0,1-.65-1.89,2.2,2.2,0,0,1,1-1.59,2.47,2.47,0,0,1,1.87-.52,2.41,2.41,0,0,1,1.54,1,2.33,2.33,0,0,1,.55,1.67,2.43,2.43,0,0,1-.93,1.65l-.16.13c-1-1.18-1.51-1.8-2.45-3.06a1.63,1.63,0,0,0-.64,1.1,1.58,1.58,0,0,0,.37,1.14,1.52,1.52,0,0,0,.72.53A1.48,1.48,0,0,0,385,547.84Zm-.81-3.08c.69.93,1.05,1.39,1.79,2.28a1.51,1.51,0,0,0,.47-.81,1.41,1.41,0,0,0-.31-1.11,1.48,1.48,0,0,0-.9-.57A1.4,1.4,0,0,0,384.18,544.76Z"/><path class="23c077d2-df34-4f5b-9368-0195f9a2e9b5" d="M389.2,554.36l1-1.14c-.94-.84-1.4-1.28-2.29-2.18l.51-.51a41,41,0,0,0,5.14-.84l.5.44-2.72,3.14.74.63-.46.55-.75-.64-1,1.16Zm1.5-1.68,1.93-2.15c-1.4.29-2.12.42-3.57.61C389.71,551.77,390,552.08,390.71,552.68Z"/><path class="23c077d2-df34-4f5b-9368-0195f9a2e9b5" d="M392.44,554.91l.78.52a1.39,1.39,0,0,0-.17,1,1.42,1.42,0,0,0,.56.8,1.51,1.51,0,0,0,1.15.3,1.47,1.47,0,0,0,1-.68,1.4,1.4,0,0,0,.26-1.11,1.56,1.56,0,0,0-.65-.95,1.67,1.67,0,0,0-.7-.31,1.46,1.46,0,0,0-.69,0l-.58-.58c1-.86,1.55-1.29,2.56-2.17,1,.81,1.57,1.19,2.66,1.92l-.42.62c-.89-.6-1.33-.91-2.18-1.55l-1.33,1.15a2.49,2.49,0,0,1,1.29.46,2.26,2.26,0,0,1,.92,1.36,2,2,0,0,1-.3,1.6,2.11,2.11,0,0,1-1.31.93,2.43,2.43,0,0,1-2-.49,2.55,2.55,0,0,1-1-1.39A1.78,1.78,0,0,1,392.44,554.91Z"/><path class="23c077d2-df34-4f5b-9368-0195f9a2e9b5" d="M402.23,562.34a3.32,3.32,0,0,1-1.11,0,3.12,3.12,0,0,1-1-.32,2.12,2.12,0,0,1-1-1,1.15,1.15,0,0,1,.05-1.06,1.16,1.16,0,0,1,.46-.46,1.39,1.39,0,0,1,.62-.17,2.33,2.33,0,0,1,.68.07,7.66,7.66,0,0,1,.74.26,7.42,7.42,0,0,0,1.52.45l.09-.18a.83.83,0,0,0,.07-.72,1.56,1.56,0,0,0-.75-.67,1.66,1.66,0,0,0-.88-.24,1.19,1.19,0,0,0-.7.41l-.69-.5a1.87,1.87,0,0,1,.72-.51,1.69,1.69,0,0,1,.88-.05,3.79,3.79,0,0,1,1.08.37,3.4,3.4,0,0,1,.87.58,1.42,1.42,0,0,1,.38.57,1.21,1.21,0,0,1,0,.6,3.94,3.94,0,0,1-.26.68l-.43,1a9.56,9.56,0,0,0-.52,1.29,1.56,1.56,0,0,0,0,.6l-.88-.4A1.48,1.48,0,0,1,402.23,562.34Zm.69-1.62a6.28,6.28,0,0,1-1.43-.37,4,4,0,0,0-.76-.22.77.77,0,0,0-.43.06.62.62,0,0,0-.29.27.63.63,0,0,0,0,.59,1.29,1.29,0,0,0,.62.56,2,2,0,0,0,.92.24,1.28,1.28,0,0,0,.78-.23,1.67,1.67,0,0,0,.47-.65Z"/><path class="23c077d2-df34-4f5b-9368-0195f9a2e9b5" d="M407.13,563.19l.91.25a1.38,1.38,0,0,0,.17,1,1.45,1.45,0,0,0,.8.58,1.54,1.54,0,0,0,1.2-.09,1.47,1.47,0,0,0,.75-1,1.39,1.39,0,0,0-.12-1.14,1.6,1.6,0,0,0-.94-.69,1.7,1.7,0,0,0-.77-.07,1.47,1.47,0,0,0-.65.25l-.74-.36c.71-1.14,1.05-1.72,1.73-2.88,1.25.43,1.89.63,3.18,1l-.19.73c-1-.28-1.57-.44-2.6-.78-.35.61-.53.91-.9,1.51a2.54,2.54,0,0,1,1.38,0,2.31,2.31,0,0,1,1.33,1,2,2,0,0,1,.24,1.61,2.1,2.1,0,0,1-1,1.3,2.48,2.48,0,0,1-2.12.19,2.6,2.6,0,0,1-1.44-1A1.78,1.78,0,0,1,407.13,563.19Z"/><path class="23c077d2-df34-4f5b-9368-0195f9a2e9b5" d="M415.12,567.11l.28-1.51c-1.27-.23-1.9-.37-3.14-.68l.17-.7a42.47,42.47,0,0,0,4-3.38l.67.12-.68,4.09,1,.15-.1.71-1-.16-.25,1.51Zm.41-2.22.53-2.84c-1.06,1-1.62,1.45-2.77,2.37C414.18,564.63,414.63,564.72,415.53,564.89Z"/><path class="23c077d2-df34-4f5b-9368-0195f9a2e9b5" d="M378.17,523.3l-5.89,2.5c-.42-1-.61-1.47-1-2.46a6.66,6.66,0,0,1-.37-1.31,2.67,2.67,0,0,1,.09-1.2,2.54,2.54,0,0,1,.79-1.17,3.74,3.74,0,0,1,1.38-.7,4.17,4.17,0,0,1,1.29-.18,3.2,3.2,0,0,1,1,.18,2.5,2.5,0,0,1,.74.42,2.74,2.74,0,0,1,.56.67,5.35,5.35,0,0,1,.46,1C377.61,521.95,377.79,522.4,378.17,523.3Zm-1-.55c-.22-.55-.32-.82-.53-1.37a4.12,4.12,0,0,0-.47-1,1.6,1.6,0,0,0-.51-.48,2.07,2.07,0,0,0-.93-.24,3.69,3.69,0,0,0-1.23.19,2.63,2.63,0,0,0-1.36.82,1.8,1.8,0,0,0-.39,1.11,4.17,4.17,0,0,0,.31,1.26c.22.6.33.89.57,1.48Z"/><path class="23c077d2-df34-4f5b-9368-0195f9a2e9b5" d="M373.8,514c0-.35,0-.52-.06-.87a2,2,0,0,1,1.22.54,2.41,2.41,0,0,1,.66,1.28,2.39,2.39,0,0,1-.22,1.79,2.41,2.41,0,0,1-1.54,1.07,2.34,2.34,0,0,1-1.93-.19,2.39,2.39,0,0,1-1-1.58,2.17,2.17,0,0,1,1.92-2.78l.21,0c.26,1.48.41,2.22.78,3.68a1.75,1.75,0,0,0,1-.73,1.44,1.44,0,0,0,.16-1.09,1.36,1.36,0,0,0-.38-.72A1.55,1.55,0,0,0,373.8,514Zm-.63,3c-.28-1.11-.4-1.67-.62-2.79a1.45,1.45,0,0,0-.8.49,1.39,1.39,0,0,0-.22,1.17,1.47,1.47,0,0,0,.58.92A1.34,1.34,0,0,0,373.17,517.05Z"/><path class="23c077d2-df34-4f5b-9368-0195f9a2e9b5" d="M373,509.75c-.06-.35-.09-.52-.15-.87a1.48,1.48,0,0,0,.87-.52,1.28,1.28,0,0,0,.25-.86,1.38,1.38,0,0,0-.47-1,1.58,1.58,0,0,0-1.15-.39,1.37,1.37,0,0,0-1,.44,1.5,1.5,0,0,0-.34,1.11,1.61,1.61,0,0,0,.22.75,1.38,1.38,0,0,0,.49.49c0,.33,0,.49,0,.82-1.34-.15-2-.23-3.34-.41-.12-1.49-.16-2.23-.18-3.73h.75c0,1.18,0,1.77.12,2.95l1.74.27a2.42,2.42,0,0,1-.49-1.33,2.19,2.19,0,0,1,.53-1.6,1.89,1.89,0,0,1,1.49-.65,2.32,2.32,0,0,1,1.51.52,2.24,2.24,0,0,1,.84,1.72,2.3,2.3,0,0,1-.38,1.51A1.93,1.93,0,0,1,373,509.75Z"/><path class="23c077d2-df34-4f5b-9368-0195f9a2e9b5" d="M372.75,504.44c0-.35,0-.53-.05-.88a1.48,1.48,0,0,0,.92-.42,1.28,1.28,0,0,0,.34-.83,1.38,1.38,0,0,0-.36-1,1.58,1.58,0,0,0-1.1-.51,1.37,1.37,0,0,0-1.09.33,1.49,1.49,0,0,0-.46,1.07,1.6,1.6,0,0,0,.14.77,1.38,1.38,0,0,0,.43.54c0,.32-.07.48-.11.81-1.31-.29-2-.44-3.27-.77,0-1.49.08-2.23.23-3.72l.75.07c-.11,1.17-.15,1.76-.2,2.94l1.71.45a2.41,2.41,0,0,1-.34-1.37,2.19,2.19,0,0,1,.7-1.53,1.9,1.9,0,0,1,1.55-.48,2.32,2.32,0,0,1,1.44.68,2.24,2.24,0,0,1,.65,1.8,2.29,2.29,0,0,1-.55,1.46A1.93,1.93,0,0,1,372.75,504.44Z"/><path class="23c077d2-df34-4f5b-9368-0195f9a2e9b5" d="M375.27,493.38a3.3,3.3,0,0,1,.31,1,2.74,2.74,0,0,1,0,.91,1.85,1.85,0,0,1-.6,1.12,1.23,1.23,0,0,1-1,.26,1.19,1.19,0,0,1-.58-.27,1.28,1.28,0,0,1-.37-.51,2,2,0,0,1-.14-.65,5.63,5.63,0,0,1,0-.77,10.38,10.38,0,0,0,.08-1.56l-.2-.05a.81.81,0,0,0-.72.08,1.55,1.55,0,0,0-.49.92,1.65,1.65,0,0,0,0,.94,1.15,1.15,0,0,0,.59.56l-.26.82a1.76,1.76,0,0,1-.72-.52,1.67,1.67,0,0,1-.31-.86,3.67,3.67,0,0,1,.09-1.2,3.35,3.35,0,0,1,.39-1,1.42,1.42,0,0,1,.49-.51,1.15,1.15,0,0,1,.59-.13,3.83,3.83,0,0,1,.71.14l1,.27a10.67,10.67,0,0,0,1.35.31,1.74,1.74,0,0,0,.59-.06c-.09.33-.13.49-.22.82A1.66,1.66,0,0,1,375.27,493.38Zm-1.72-.36a7.81,7.81,0,0,1,0,1.42,3.16,3.16,0,0,0,0,.75.72.72,0,0,0,.19.38.64.64,0,0,0,.34.18.66.66,0,0,0,.56-.15,1.14,1.14,0,0,0,.35-.67,1.82,1.82,0,0,0,0-.87,1.28,1.28,0,0,0-.4-.66,1.8,1.8,0,0,0-.73-.32Z"/><path class="23c077d2-df34-4f5b-9368-0195f9a2e9b5" d="M374.27,483.38l-.31.85a1.37,1.37,0,0,0-.75,0,1.29,1.29,0,0,0-.66.72,1.38,1.38,0,0,0-.09.79,1.79,1.79,0,0,0,.5.91,3.61,3.61,0,0,0,1.3.75,1.9,1.9,0,0,1-.33-1,2.24,2.24,0,0,1,.17-1,2.07,2.07,0,0,1,1.13-1.17,1.92,1.92,0,0,1,1.62.06,2.36,2.36,0,0,1,.9.72,2,2,0,0,1,.42,1,2.2,2.2,0,0,1-.16,1.1,2.25,2.25,0,0,1-1.28,1.31,3.57,3.57,0,0,1-2.47-.17,3.75,3.75,0,0,1-2.28-1.64,2.4,2.4,0,0,1,0-2,2.3,2.3,0,0,1,1-1.18A1.68,1.68,0,0,1,374.27,483.38Zm1.18,4.38a1.73,1.73,0,0,0,.79.1,1.35,1.35,0,0,0,.71-.28,1.37,1.37,0,0,0,.43-.57,1.24,1.24,0,0,0,0-1,1.54,1.54,0,0,0-.85-.79,1.38,1.38,0,0,0-1.12-.06,1.34,1.34,0,0,0-.74.77,1.39,1.39,0,0,0,0,1.08A1.29,1.29,0,0,0,375.44,487.76Z"/><path class="23c077d2-df34-4f5b-9368-0195f9a2e9b5" d="M380.28,482.18l-1.34-.74c-.58,1.06-.86,1.6-1.37,2.69l-.65-.31a41.17,41.17,0,0,1-2.16-4.88l.38-.67,3.6,2.07.49-.83.62.37-.48.81,1.33.76Zm-2-1.09-2.53-1.39c.56,1.38.86,2.05,1.5,3.35C377.67,482.26,377.88,481.87,378.31,481.09Z"/><path class="23c077d2-df34-4f5b-9368-0195f9a2e9b5" d="M394,457.19l-.67.69a1.34,1.34,0,0,0-.73-.24,1.43,1.43,0,0,0-.94.44,1.56,1.56,0,0,0-.44.73,1.83,1.83,0,0,0,.06,1.07,3.39,3.39,0,0,0,.89,1.21,2,2,0,0,1,.11-1,2.51,2.51,0,0,1,.59-.88,2.25,2.25,0,0,1,1.57-.68,1.86,1.86,0,0,1,1.48.68,2.27,2.27,0,0,1,.52,1,2.08,2.08,0,0,1-.05,1.12,2.44,2.44,0,0,1-.63,1,2.49,2.49,0,0,1-1.76.77,3.43,3.43,0,0,1-2.24-1.08,3.56,3.56,0,0,1-1.42-2.44,2.66,2.66,0,0,1,.9-2,2.54,2.54,0,0,1,1.43-.77A1.65,1.65,0,0,1,394,457.19Zm-.83,4.64a1.65,1.65,0,0,0,.7.39,1.39,1.39,0,0,0,.79,0,1.53,1.53,0,0,0,.65-.38,1.35,1.35,0,0,0,.41-1,1.5,1.5,0,0,0-.45-1.08,1.33,1.33,0,0,0-1-.48,1.46,1.46,0,0,0-1,.46,1.54,1.54,0,0,0-.48,1A1.25,1.25,0,0,0,393.21,461.84Z"/><path class="23c077d2-df34-4f5b-9368-0195f9a2e9b5" d="M396.9,458.88l.68-.65a1.46,1.46,0,0,0,.94.41,1.41,1.41,0,0,0,.89-.31,1.51,1.51,0,0,0,.6-1,1.54,1.54,0,0,0-.3-1.18,1.32,1.32,0,0,0-1-.61,1.64,1.64,0,0,0-1.17.38,1.79,1.79,0,0,0-.54.63,1.44,1.44,0,0,0-.16.7l-.73.48c-.62-1.19-.93-1.8-1.52-3a39.48,39.48,0,0,1,3.2-2.39l.42.62c-1,.71-1.55,1.08-2.54,1.86.29.65.44,1,.74,1.61a2.67,2.67,0,0,1,.9-1.2,2.39,2.39,0,0,1,1.71-.51,1.84,1.84,0,0,1,1.39.86,2.25,2.25,0,0,1,.37,1.56,2.44,2.44,0,0,1-1,1.71,2.55,2.55,0,0,1-1.53.58A1.91,1.91,0,0,1,396.9,458.88Z"/><path class="23c077d2-df34-4f5b-9368-0195f9a2e9b5" d="M405.67,457l-.43-.6a2,2,0,0,0,.45-.16A1,1,0,0,0,406,456a.75.75,0,0,0,.13-.34,4,4,0,0,0,0-.64s0-.11,0-.21a49.24,49.24,0,0,0-4-3.16l.89-.49c.92.73,1.36,1.1,2.23,1.87a9.44,9.44,0,0,1,.81.8,8.53,8.53,0,0,1-.14-1.11c-.06-1.17-.08-1.76-.09-2.94l.86-.38a50.12,50.12,0,0,0,.11,5.12,11.07,11.07,0,0,1,0,1.15,1.64,1.64,0,0,1-.19.73,1.24,1.24,0,0,1-.51.47A1.75,1.75,0,0,1,405.67,457Z"/><path class="23c077d2-df34-4f5b-9368-0195f9a2e9b5" d="M411.72,452.47l-1.45-4.41.8-.26.19.62a1.78,1.78,0,0,1,.51-.72,2.17,2.17,0,0,1,.9-.47,2,2,0,0,1,1,0,1.18,1.18,0,0,1,.68.45,2,2,0,0,1,1.51-1.15,1.83,1.83,0,0,1,1.32.15,1.45,1.45,0,0,1,.62,1.09l.48,3.15-.84.14-.5-2.88a1.85,1.85,0,0,0-.21-.65.69.69,0,0,0-.38-.27,1.15,1.15,0,0,0-.57,0,1.39,1.39,0,0,0-.88.52,1.28,1.28,0,0,0-.14,1.1l.6,2.63-.83.2-.73-2.92a1.17,1.17,0,0,0-.41-.71.92.92,0,0,0-.79-.06,1.49,1.49,0,0,0-.65.37,1,1,0,0,0-.32.63,2.48,2.48,0,0,0,.14,1l.7,2.3Z"/><path class="23c077d2-df34-4f5b-9368-0195f9a2e9b5" d="M422.83,449.88a3.59,3.59,0,0,1-.9.57,3.08,3.08,0,0,1-.93.22,2,2,0,0,1-1.31-.24,1.2,1.2,0,0,1-.57-.89,1.14,1.14,0,0,1,.09-.64,1.31,1.31,0,0,1,.41-.5,2.2,2.2,0,0,1,.62-.33,6.1,6.1,0,0,1,.79-.19,12.43,12.43,0,0,0,1.61-.37c0-.11,0-.18,0-.21a.78.78,0,0,0-.29-.66,1.72,1.72,0,0,0-1.08-.2,1.84,1.84,0,0,0-1,.28,1.14,1.14,0,0,0-.39.73H419a1.71,1.71,0,0,1,.31-.84,1.78,1.78,0,0,1,.78-.55,4.07,4.07,0,0,1,1.26-.27,3.74,3.74,0,0,1,1.18.07,1.54,1.54,0,0,1,.67.33,1.13,1.13,0,0,1,.31.53,3.6,3.6,0,0,1,.06.72l0,1a10.1,10.1,0,0,0,.09,1.39,1.69,1.69,0,0,0,.23.55l-.9,0A1.6,1.6,0,0,1,422.83,449.88Zm-.15-1.75a9.14,9.14,0,0,1-1.45.38,3.45,3.45,0,0,0-.76.22.75.75,0,0,0-.32.29.62.62,0,0,0-.08.38.65.65,0,0,0,.32.49,1.25,1.25,0,0,0,.79.14,2,2,0,0,0,.88-.26,1.33,1.33,0,0,0,.55-.57,1.71,1.71,0,0,0,.11-.79Zm-2-2.77c.24-.51.37-.77.63-1.27l1.3-.07c-.46.51-.69.77-1.13,1.29Z"/><path class="23c077d2-df34-4f5b-9368-0195f9a2e9b5" d="M424.65,449l.88-.11a1.07,1.07,0,0,0,.39.73,1.6,1.6,0,0,0,.92.29,1.56,1.56,0,0,0,.91-.16.64.64,0,0,0,.34-.49.46.46,0,0,0-.23-.44,3.9,3.9,0,0,0-.91-.33,12.27,12.27,0,0,1-1.37-.43,1.35,1.35,0,0,1-.58-.45,1.05,1.05,0,0,1-.2-.62,1,1,0,0,1,.17-.57,1.37,1.37,0,0,1,.47-.43,2.14,2.14,0,0,1,.62-.21,3.28,3.28,0,0,1,.84-.06,3.66,3.66,0,0,1,1.16.23,1.57,1.57,0,0,1,.71.49,1.47,1.47,0,0,1,.26.75l-.93,0a.8.8,0,0,0-.32-.59,1.5,1.5,0,0,0-.84-.25,1.74,1.74,0,0,0-.94.14.5.5,0,0,0-.29.41.4.4,0,0,0,.11.28.85.85,0,0,0,.35.22l.81.24a10.06,10.06,0,0,1,1.34.46,1.32,1.32,0,0,1,.56.47,1,1,0,0,1,.15.69,1.24,1.24,0,0,1-.33.71,1.71,1.71,0,0,1-.78.47,3.12,3.12,0,0,1-1.09.12,2.75,2.75,0,0,1-1.5-.43A1.76,1.76,0,0,1,424.65,449Z"/></g></svg>