<svg id="80cf40dd-62be-4bf8-bb9e-0b96bce30ef6" data-name="Capa 1" xmlns="http://www.w3.org/2000/svg" viewBox="0 0 505.33 668"><defs><style>.\30 1754631-2ab3-47c9-ad8c-94f19206770f,.\32 612b4da-7b78-49db-b1ca-6dad78aed899,.\34 0d2f601-3a55-4196-aacf-6a6c0d3c9389,.\36 791f3fc-f6e3-4950-996e-a18a1911ceef,.\36 d2844be-e69f-4587-a66e-3531edb94f29,.\38 0ef423f-9245-43c5-aabe-a4b925880ce5,.b2d963e7-d38b-45f4-a565-20d09233d160,.ba546474-7be4-4e6a-b28a-c931ba4cddfc,.fddf70f6-dcaf-4f13-8c5a-6706c3483070{opacity:0.8;}.\36 d2844be-e69f-4587-a66e-3531edb94f29,.b429bb33-8922-4b9b-8620-abdd3d4b8b15{fill:#f7f4f9;}.\30 1754631-2ab3-47c9-ad8c-94f19206770f,.\32 612b4da-7b78-49db-b1ca-6dad78aed899,.\34 0d2f601-3a55-4196-aacf-6a6c0d3c9389,.\35 4b2935c-877f-4ebd-87e1-42665666dac1,.\36 791f3fc-f6e3-4950-996e-a18a1911ceef,.\36 d2844be-e69f-4587-a66e-3531edb94f29,.\38 0ef423f-9245-43c5-aabe-a4b925880ce5,.a0eb5cec-9f8d-4694-99b6-9b32c6599388,.a168a22d-a665-4764-ae67-fedd5dac1a03,.a9155bfe-30f2-4681-bba1-ad34d23c424a,.b0da5022-a2fc-4dce-bbf3-146ff7173083,.b2d963e7-d38b-45f4-a565-20d09233d160,.b429bb33-8922-4b9b-8620-abdd3d4b8b15,.b6260720-39bb-473b-880e-2c0f14969b0d,.b762f805-ada1-494c-8870-87dfaa081db3,.ba546474-7be4-4e6a-b28a-c931ba4cddfc{stroke:#fff;stroke-miterlimit:10;stroke-width:0.2px;}.\35 4b2935c-877f-4ebd-87e1-42665666dac1{fill:#d4b9da;}.\32 612b4da-7b78-49db-b1ca-6dad78aed899,.a168a22d-a665-4764-ae67-fedd5dac1a03{fill:#c994c7;}.\38 0ef423f-9245-43c5-aabe-a4b925880ce5,.b6260720-39bb-473b-880e-2c0f14969b0d{fill:#e7e1ef;}.\36 791f3fc-f6e3-4950-996e-a18a1911ceef,.a9155bfe-30f2-4681-bba1-ad34d23c424a{fill:#e7298a;}.b2d963e7-d38b-45f4-a565-20d09233d160,.b762f805-ada1-494c-8870-87dfaa081db3{fill:#df65b0;}.\34 0d2f601-3a55-4196-aacf-6a6c0d3c9389,.b0da5022-a2fc-4dce-bbf3-146ff7173083{fill:#67001f;}.a0eb5cec-9f8d-4694-99b6-9b32c6599388,.ba546474-7be4-4e6a-b28a-c931ba4cddfc{fill:#980043;}.\32 f8b8732-603f-4657-b217-b97df214c2ab,.\35 61e8b87-9db5-428a-b924-fc526585c585{font-size:13px;}.\34 efb7e81-3f80-40bb-acac-e4552de9ac64,.\35 61e8b87-9db5-428a-b924-fc526585c585,.ff291131-cb8a-40ce-9295-42ddb4a2ab63{fill:#757575;}.\32 f8b8732-603f-4657-b217-b97df214c2ab,.\34 efb7e81-3f80-40bb-acac-e4552de9ac64,.\35 61e8b87-9db5-428a-b924-fc526585c585,.ff291131-cb8a-40ce-9295-42ddb4a2ab63{font-family:ArialMT, Arial;}.\34 efb7e81-3f80-40bb-acac-e4552de9ac64{font-size:14px;}.\39 fde3a0b-d31d-4119-992a-bf1b5c70fa60{letter-spacing:-0.03em;}.d95550c3-b6fc-44cf-9650-b5a672644683{letter-spacing:0.01em;}.ed984d68-0e17-4ec3-93ae-dd5df5beed49{letter-spacing:-0.01em;}.\37 0caa04e-644d-4520-9d91-8b49ac9b93a4{letter-spacing:-0.02em;}.\30 5499a37-ed09-4487-9a6c-dca9ee86b3aa{letter-spacing:-0.01em;}.ff291131-cb8a-40ce-9295-42ddb4a2ab63{font-size:12px;}.\33 4904ab6-9ec0-43d9-8c34-fc01e5905d21{letter-spacing:-0.04em;}.c37795da-1e83-46b2-a0f4-442215b86f82{letter-spacing:-0.05em;}.e6b10d32-0166-46a9-9f06-613e71f7e398{letter-spacing:0.04em;}.\30 1754631-2ab3-47c9-ad8c-94f19206770f{fill:#ce1256;}.ab8896d3-3819-4365-9ee3-d1d14164b473{font-size:20px;fill:#2e2e2e;font-family:Arial-BoldMT, Arial;font-weight:700;}.\32 f8b8732-603f-4657-b217-b97df214c2ab{fill:#767676;}.cf313945-a5d8-42e4-8c42-5608cb60a1dc{letter-spacing:-0.06em;}.\35 2626883-d368-4aeb-b435-55a01e396e01{letter-spacing:-0.07em;}</style></defs><title>2018.04_Euroescepticismo_3</title><g class="fddf70f6-dcaf-4f13-8c5a-6706c3483070"><rect class="b429bb33-8922-4b9b-8620-abdd3d4b8b15" x="17.21" y="373.14" width="28.22" height="18.29"/><rect class="54b2935c-877f-4ebd-87e1-42665666dac1" x="17.21" y="245.13" width="28.22" height="18.29"/><rect class="a168a22d-a665-4764-ae67-fedd5dac1a03" x="17.21" y="519.43" width="28.22" height="18.29"/><rect class="54b2935c-877f-4ebd-87e1-42665666dac1" x="17.21" y="354.85" width="28.22" height="18.29"/><rect class="b429bb33-8922-4b9b-8620-abdd3d4b8b15" x="17.21" y="537.72" width="28.22" height="18.29"/><rect class="b429bb33-8922-4b9b-8620-abdd3d4b8b15" x="17.21" y="446.29" width="28.22" height="18.29"/><rect class="a168a22d-a665-4764-ae67-fedd5dac1a03" x="17.21" y="226.84" width="28.22" height="18.29"/><rect class="b429bb33-8922-4b9b-8620-abdd3d4b8b15" x="17.21" y="190.27" width="28.22" height="18.29"/><rect class="b429bb33-8922-4b9b-8620-abdd3d4b8b15" x="17.21" y="464.57" width="28.22" height="18.29"/><rect class="b429bb33-8922-4b9b-8620-abdd3d4b8b15" x="17.21" y="556.01" width="28.22" height="18.29"/><rect class="b429bb33-8922-4b9b-8620-abdd3d4b8b15" x="17.21" y="428" width="28.22" height="18.29"/><rect class="b6260720-39bb-473b-880e-2c0f14969b0d" x="17.21" y="281.7" width="28.22" height="18.29"/><rect class="b429bb33-8922-4b9b-8620-abdd3d4b8b15" x="17.21" y="409.72" width="28.22" height="18.29"/><rect class="b6260720-39bb-473b-880e-2c0f14969b0d" x="17.21" y="318.28" width="28.22" height="18.29"/><rect class="a9155bfe-30f2-4681-bba1-ad34d23c424a" x="17.21" y="135.41" width="28.22" height="18.29"/><rect class="b429bb33-8922-4b9b-8620-abdd3d4b8b15" x="17.21" y="501.14" width="28.22" height="18.29"/><rect class="b429bb33-8922-4b9b-8620-abdd3d4b8b15" x="17.21" y="117.12" width="28.22" height="18.29"/><rect class="b429bb33-8922-4b9b-8620-abdd3d4b8b15" x="17.21" y="299.99" width="28.22" height="18.29"/><rect class="b6260720-39bb-473b-880e-2c0f14969b0d" x="17.21" y="482.86" width="28.22" height="18.29"/><rect class="b6260720-39bb-473b-880e-2c0f14969b0d" x="17.21" y="336.57" width="28.22" height="18.29"/><rect class="a9155bfe-30f2-4681-bba1-ad34d23c424a" x="17.21" y="153.69" width="28.22" height="18.29"/><rect class="b6260720-39bb-473b-880e-2c0f14969b0d" x="17.21" y="391.43" width="28.22" height="18.29"/><rect class="b6260720-39bb-473b-880e-2c0f14969b0d" x="17.21" y="171.98" width="28.22" height="18.29"/><rect class="a9155bfe-30f2-4681-bba1-ad34d23c424a" x="17.21" y="208.56" width="28.22" height="18.29"/><rect class="b429bb33-8922-4b9b-8620-abdd3d4b8b15" x="17.21" y="574.29" width="28.22" height="18.29"/><rect class="b6260720-39bb-473b-880e-2c0f14969b0d" x="17.21" y="263.42" width="28.22" height="18.29"/><rect class="b429bb33-8922-4b9b-8620-abdd3d4b8b15" x="45.43" y="373.14" width="28.22" height="18.29"/><rect class="a168a22d-a665-4764-ae67-fedd5dac1a03" x="45.43" y="245.13" width="28.22" height="18.29"/><rect class="a168a22d-a665-4764-ae67-fedd5dac1a03" x="45.43" y="519.43" width="28.22" height="18.29"/><rect class="54b2935c-877f-4ebd-87e1-42665666dac1" x="45.43" y="354.85" width="28.22" height="18.29"/><rect class="b429bb33-8922-4b9b-8620-abdd3d4b8b15" x="45.43" y="537.72" width="28.22" height="18.29"/><rect class="b429bb33-8922-4b9b-8620-abdd3d4b8b15" x="45.43" y="446.29" width="28.22" height="18.29"/><rect class="a168a22d-a665-4764-ae67-fedd5dac1a03" x="45.43" y="226.84" width="28.22" height="18.29"/><rect class="a168a22d-a665-4764-ae67-fedd5dac1a03" x="45.43" y="190.27" width="28.22" height="18.29"/><rect class="b429bb33-8922-4b9b-8620-abdd3d4b8b15" x="45.43" y="464.57" width="28.22" height="18.29"/><rect class="b429bb33-8922-4b9b-8620-abdd3d4b8b15" x="45.43" y="556.01" width="28.22" height="18.29"/><rect class="b429bb33-8922-4b9b-8620-abdd3d4b8b15" x="45.43" y="428" width="28.22" height="18.29"/><rect class="b6260720-39bb-473b-880e-2c0f14969b0d" x="45.43" y="281.7" width="28.22" height="18.29"/><rect class="b429bb33-8922-4b9b-8620-abdd3d4b8b15" x="45.43" y="409.72" width="28.22" height="18.29"/><rect class="b6260720-39bb-473b-880e-2c0f14969b0d" x="45.43" y="318.28" width="28.22" height="18.29"/><rect class="a9155bfe-30f2-4681-bba1-ad34d23c424a" x="45.43" y="135.41" width="28.22" height="18.29"/><rect class="b429bb33-8922-4b9b-8620-abdd3d4b8b15" x="45.43" y="501.14" width="28.22" height="18.29"/><rect class="b429bb33-8922-4b9b-8620-abdd3d4b8b15" x="45.43" y="117.12" width="28.22" height="18.29"/><rect class="54b2935c-877f-4ebd-87e1-42665666dac1" x="45.43" y="299.99" width="28.22" height="18.29"/><rect class="b6260720-39bb-473b-880e-2c0f14969b0d" x="45.43" y="482.86" width="28.22" height="18.29"/><rect class="b6260720-39bb-473b-880e-2c0f14969b0d" x="45.43" y="336.57" width="28.22" height="18.29"/><rect class="a9155bfe-30f2-4681-bba1-ad34d23c424a" x="45.43" y="153.69" width="28.22" height="18.29"/><rect class="b6260720-39bb-473b-880e-2c0f14969b0d" x="45.43" y="391.43" width="28.22" height="18.29"/><rect class="b6260720-39bb-473b-880e-2c0f14969b0d" x="45.43" y="171.98" width="28.22" height="18.29"/><rect class="a9155bfe-30f2-4681-bba1-ad34d23c424a" x="45.43" y="208.56" width="28.22" height="18.29"/><rect class="b429bb33-8922-4b9b-8620-abdd3d4b8b15" x="45.43" y="574.29" width="28.22" height="18.29"/><rect class="b6260720-39bb-473b-880e-2c0f14969b0d" x="45.43" y="263.42" width="28.22" height="18.29"/><rect class="b429bb33-8922-4b9b-8620-abdd3d4b8b15" x="73.66" y="373.14" width="28.22" height="18.29"/><rect class="a168a22d-a665-4764-ae67-fedd5dac1a03" x="73.66" y="245.13" width="28.22" height="18.29"/><rect class="a168a22d-a665-4764-ae67-fedd5dac1a03" x="73.66" y="519.43" width="28.22" height="18.29"/><rect class="54b2935c-877f-4ebd-87e1-42665666dac1" x="73.66" y="354.85" width="28.22" height="18.29"/><rect class="b429bb33-8922-4b9b-8620-abdd3d4b8b15" x="73.66" y="537.72" width="28.22" height="18.29"/><rect class="b429bb33-8922-4b9b-8620-abdd3d4b8b15" x="73.66" y="446.29" width="28.22" height="18.29"/><rect class="a168a22d-a665-4764-ae67-fedd5dac1a03" x="73.66" y="226.84" width="28.22" height="18.29"/><rect class="a168a22d-a665-4764-ae67-fedd5dac1a03" x="73.66" y="190.27" width="28.22" height="18.29"/><rect class="b429bb33-8922-4b9b-8620-abdd3d4b8b15" x="73.66" y="464.57" width="28.22" height="18.29"/><rect class="b429bb33-8922-4b9b-8620-abdd3d4b8b15" x="73.66" y="556.01" width="28.22" height="18.29"/><rect class="b429bb33-8922-4b9b-8620-abdd3d4b8b15" x="73.66" y="428" width="28.22" height="18.29"/><rect class="b6260720-39bb-473b-880e-2c0f14969b0d" x="73.66" y="281.7" width="28.22" height="18.29"/><rect class="b6260720-39bb-473b-880e-2c0f14969b0d" x="73.66" y="409.72" width="28.22" height="18.29"/><rect class="54b2935c-877f-4ebd-87e1-42665666dac1" x="73.66" y="318.28" width="28.22" height="18.29"/><rect class="a9155bfe-30f2-4681-bba1-ad34d23c424a" x="73.66" y="135.41" width="28.22" height="18.29"/><rect class="b429bb33-8922-4b9b-8620-abdd3d4b8b15" x="73.66" y="501.14" width="28.22" height="18.29"/><rect class="b429bb33-8922-4b9b-8620-abdd3d4b8b15" x="73.66" y="117.12" width="28.22" height="18.29"/><rect class="54b2935c-877f-4ebd-87e1-42665666dac1" x="73.66" y="299.99" width="28.22" height="18.29"/><rect class="b6260720-39bb-473b-880e-2c0f14969b0d" x="73.66" y="482.86" width="28.22" height="18.29"/><rect class="b6260720-39bb-473b-880e-2c0f14969b0d" x="73.66" y="336.57" width="28.22" height="18.29"/><rect class="b762f805-ada1-494c-8870-87dfaa081db3" x="73.66" y="153.69" width="28.22" height="18.29"/><rect class="b6260720-39bb-473b-880e-2c0f14969b0d" x="73.66" y="391.43" width="28.22" height="18.29"/><rect class="b6260720-39bb-473b-880e-2c0f14969b0d" x="73.66" y="171.98" width="28.22" height="18.29"/><rect class="a9155bfe-30f2-4681-bba1-ad34d23c424a" x="73.66" y="208.56" width="28.22" height="18.29"/><rect class="b429bb33-8922-4b9b-8620-abdd3d4b8b15" x="73.66" y="574.29" width="28.22" height="18.29"/><rect class="b6260720-39bb-473b-880e-2c0f14969b0d" x="73.66" y="263.42" width="28.22" height="18.29"/><rect class="b429bb33-8922-4b9b-8620-abdd3d4b8b15" x="101.88" y="373.14" width="28.22" height="18.29"/><rect class="b762f805-ada1-494c-8870-87dfaa081db3" x="101.88" y="245.13" width="28.22" height="18.29"/><rect class="a168a22d-a665-4764-ae67-fedd5dac1a03" x="101.88" y="519.43" width="28.22" height="18.29"/><rect class="54b2935c-877f-4ebd-87e1-42665666dac1" x="101.88" y="354.85" width="28.22" height="18.29"/><rect class="b429bb33-8922-4b9b-8620-abdd3d4b8b15" x="101.88" y="537.72" width="28.22" height="18.29"/><rect class="b429bb33-8922-4b9b-8620-abdd3d4b8b15" x="101.88" y="446.29" width="28.22" height="18.29"/><rect class="a168a22d-a665-4764-ae67-fedd5dac1a03" x="101.88" y="226.84" width="28.22" height="18.29"/><rect class="a168a22d-a665-4764-ae67-fedd5dac1a03" x="101.88" y="190.27" width="28.22" height="18.29"/><rect class="54b2935c-877f-4ebd-87e1-42665666dac1" x="101.88" y="464.57" width="28.22" height="18.29"/><rect class="b429bb33-8922-4b9b-8620-abdd3d4b8b15" x="101.88" y="556.01" width="28.22" height="18.29"/><rect class="b429bb33-8922-4b9b-8620-abdd3d4b8b15" x="101.88" y="428" width="28.22" height="18.29"/><rect class="b6260720-39bb-473b-880e-2c0f14969b0d" x="101.88" y="281.7" width="28.22" height="18.29"/><rect class="b6260720-39bb-473b-880e-2c0f14969b0d" x="101.88" y="409.72" width="28.22" height="18.29"/><rect class="54b2935c-877f-4ebd-87e1-42665666dac1" x="101.88" y="318.28" width="28.22" height="18.29"/><rect class="a9155bfe-30f2-4681-bba1-ad34d23c424a" x="101.88" y="135.41" width="28.22" height="18.29"/><rect class="b429bb33-8922-4b9b-8620-abdd3d4b8b15" x="101.88" y="501.14" width="28.22" height="18.29"/><rect class="b429bb33-8922-4b9b-8620-abdd3d4b8b15" x="101.88" y="117.12" width="28.22" height="18.29"/><rect class="54b2935c-877f-4ebd-87e1-42665666dac1" x="101.88" y="299.99" width="28.22" height="18.29"/><rect class="54b2935c-877f-4ebd-87e1-42665666dac1" x="101.88" y="482.86" width="28.22" height="18.29"/><rect class="b6260720-39bb-473b-880e-2c0f14969b0d" x="101.88" y="336.57" width="28.22" height="18.29"/><rect class="b762f805-ada1-494c-8870-87dfaa081db3" x="101.88" y="153.69" width="28.22" height="18.29"/><rect class="b6260720-39bb-473b-880e-2c0f14969b0d" x="101.88" y="391.43" width="28.22" height="18.29"/><rect class="b6260720-39bb-473b-880e-2c0f14969b0d" x="101.88" y="171.98" width="28.22" height="18.29"/><rect class="a9155bfe-30f2-4681-bba1-ad34d23c424a" x="101.88" y="208.56" width="28.22" height="18.29"/><rect class="b429bb33-8922-4b9b-8620-abdd3d4b8b15" x="101.88" y="574.29" width="28.22" height="18.29"/><rect class="b6260720-39bb-473b-880e-2c0f14969b0d" x="101.88" y="263.42" width="28.22" height="18.29"/><rect class="b429bb33-8922-4b9b-8620-abdd3d4b8b15" x="130.1" y="373.14" width="28.22" height="18.29"/><rect class="b762f805-ada1-494c-8870-87dfaa081db3" x="130.1" y="245.13" width="28.22" height="18.29"/><rect class="a168a22d-a665-4764-ae67-fedd5dac1a03" x="130.1" y="519.43" width="28.22" height="18.29"/><rect class="b6260720-39bb-473b-880e-2c0f14969b0d" x="130.1" y="354.85" width="28.22" height="18.29"/><rect class="b429bb33-8922-4b9b-8620-abdd3d4b8b15" x="130.1" y="537.72" width="28.22" height="18.29"/><rect class="b429bb33-8922-4b9b-8620-abdd3d4b8b15" x="130.1" y="446.29" width="28.22" height="18.29"/><rect class="a168a22d-a665-4764-ae67-fedd5dac1a03" x="130.1" y="226.84" width="28.22" height="18.29"/><rect class="a168a22d-a665-4764-ae67-fedd5dac1a03" x="130.1" y="190.27" width="28.22" height="18.29"/><rect class="54b2935c-877f-4ebd-87e1-42665666dac1" x="130.1" y="464.57" width="28.22" height="18.29"/><rect class="b429bb33-8922-4b9b-8620-abdd3d4b8b15" x="130.1" y="556.01" width="28.22" height="18.29"/><rect class="b429bb33-8922-4b9b-8620-abdd3d4b8b15" x="130.1" y="428" width="28.22" height="18.29"/><rect class="b6260720-39bb-473b-880e-2c0f14969b0d" x="130.1" y="281.7" width="28.22" height="18.29"/><rect class="b6260720-39bb-473b-880e-2c0f14969b0d" x="130.1" y="409.72" width="28.22" height="18.29"/><rect class="54b2935c-877f-4ebd-87e1-42665666dac1" x="130.1" y="318.28" width="28.22" height="18.29"/><rect class="a9155bfe-30f2-4681-bba1-ad34d23c424a" x="130.1" y="135.41" width="28.22" height="18.29"/><rect class="b429bb33-8922-4b9b-8620-abdd3d4b8b15" x="130.1" y="501.14" width="28.22" height="18.29"/><rect class="b429bb33-8922-4b9b-8620-abdd3d4b8b15" x="130.1" y="117.12" width="28.22" height="18.29"/><rect class="54b2935c-877f-4ebd-87e1-42665666dac1" x="130.1" y="299.99" width="28.22" height="18.29"/><rect class="54b2935c-877f-4ebd-87e1-42665666dac1" x="130.1" y="482.86" width="28.22" height="18.29"/><rect class="b6260720-39bb-473b-880e-2c0f14969b0d" x="130.1" y="336.57" width="28.22" height="18.29"/><rect class="b762f805-ada1-494c-8870-87dfaa081db3" x="130.1" y="153.69" width="28.22" height="18.29"/><rect class="b6260720-39bb-473b-880e-2c0f14969b0d" x="130.1" y="391.43" width="28.22" height="18.29"/><rect class="b6260720-39bb-473b-880e-2c0f14969b0d" x="130.1" y="171.98" width="28.22" height="18.29"/><rect class="a9155bfe-30f2-4681-bba1-ad34d23c424a" x="130.1" y="208.56" width="28.22" height="18.29"/><rect class="b429bb33-8922-4b9b-8620-abdd3d4b8b15" x="130.1" y="574.29" width="28.22" height="18.29"/><rect class="b6260720-39bb-473b-880e-2c0f14969b0d" x="130.1" y="263.42" width="28.22" height="18.29"/><rect class="b429bb33-8922-4b9b-8620-abdd3d4b8b15" x="158.32" y="373.14" width="28.22" height="18.29"/><rect class="b762f805-ada1-494c-8870-87dfaa081db3" x="158.32" y="245.13" width="28.22" height="18.29"/><rect class="54b2935c-877f-4ebd-87e1-42665666dac1" x="158.32" y="519.43" width="28.22" height="18.29"/><rect class="b6260720-39bb-473b-880e-2c0f14969b0d" x="158.32" y="354.85" width="28.22" height="18.29"/><rect class="b429bb33-8922-4b9b-8620-abdd3d4b8b15" x="158.32" y="537.72" width="28.22" height="18.29"/><rect class="b429bb33-8922-4b9b-8620-abdd3d4b8b15" x="158.32" y="446.29" width="28.22" height="18.29"/><rect class="a168a22d-a665-4764-ae67-fedd5dac1a03" x="158.32" y="226.84" width="28.22" height="18.29"/><rect class="b762f805-ada1-494c-8870-87dfaa081db3" x="158.32" y="190.27" width="28.22" height="18.29"/><rect class="54b2935c-877f-4ebd-87e1-42665666dac1" x="158.32" y="464.57" width="28.22" height="18.29"/><rect class="b429bb33-8922-4b9b-8620-abdd3d4b8b15" x="158.32" y="556.01" width="28.22" height="18.29"/><rect class="b429bb33-8922-4b9b-8620-abdd3d4b8b15" x="158.32" y="428" width="28.22" height="18.29"/><rect class="b6260720-39bb-473b-880e-2c0f14969b0d" x="158.32" y="281.7" width="28.22" height="18.29"/><rect class="b6260720-39bb-473b-880e-2c0f14969b0d" x="158.32" y="409.72" width="28.22" height="18.29"/><rect class="54b2935c-877f-4ebd-87e1-42665666dac1" x="158.32" y="318.28" width="28.22" height="18.29"/><rect class="b0da5022-a2fc-4dce-bbf3-146ff7173083" x="158.32" y="135.41" width="28.22" height="18.29"/><rect class="b429bb33-8922-4b9b-8620-abdd3d4b8b15" x="158.32" y="501.14" width="28.22" height="18.29"/><rect class="b429bb33-8922-4b9b-8620-abdd3d4b8b15" x="158.32" y="117.12" width="28.22" height="18.29"/><rect class="b6260720-39bb-473b-880e-2c0f14969b0d" x="158.32" y="299.99" width="28.22" height="18.29"/><rect class="54b2935c-877f-4ebd-87e1-42665666dac1" x="158.32" y="482.86" width="28.22" height="18.29"/><rect class="a168a22d-a665-4764-ae67-fedd5dac1a03" x="158.32" y="336.57" width="28.22" height="18.29"/><rect class="b762f805-ada1-494c-8870-87dfaa081db3" x="158.32" y="153.69" width="28.22" height="18.29"/><rect class="b6260720-39bb-473b-880e-2c0f14969b0d" x="158.32" y="391.43" width="28.22" height="18.29"/><rect class="b6260720-39bb-473b-880e-2c0f14969b0d" x="158.32" y="171.98" width="28.22" height="18.29"/><rect class="b762f805-ada1-494c-8870-87dfaa081db3" x="158.32" y="208.56" width="28.22" height="18.29"/><rect class="b429bb33-8922-4b9b-8620-abdd3d4b8b15" x="158.32" y="574.29" width="28.22" height="18.29"/><rect class="54b2935c-877f-4ebd-87e1-42665666dac1" x="158.32" y="263.42" width="28.22" height="18.29"/><rect class="b429bb33-8922-4b9b-8620-abdd3d4b8b15" x="186.53" y="373.14" width="28.22" height="18.29"/><rect class="b762f805-ada1-494c-8870-87dfaa081db3" x="186.53" y="245.13" width="28.22" height="18.29"/><rect class="54b2935c-877f-4ebd-87e1-42665666dac1" x="186.53" y="519.43" width="28.22" height="18.29"/><rect class="b6260720-39bb-473b-880e-2c0f14969b0d" x="186.53" y="354.85" width="28.22" height="18.29"/><rect class="b429bb33-8922-4b9b-8620-abdd3d4b8b15" x="186.53" y="537.72" width="28.22" height="18.29"/><rect class="b429bb33-8922-4b9b-8620-abdd3d4b8b15" x="186.53" y="446.29" width="28.22" height="18.29"/><rect class="54b2935c-877f-4ebd-87e1-42665666dac1" x="186.53" y="226.84" width="28.22" height="18.29"/><rect class="b762f805-ada1-494c-8870-87dfaa081db3" x="186.53" y="190.27" width="28.22" height="18.29"/><rect class="b429bb33-8922-4b9b-8620-abdd3d4b8b15" x="186.53" y="464.57" width="28.22" height="18.29"/><rect class="b6260720-39bb-473b-880e-2c0f14969b0d" x="186.53" y="556.01" width="28.22" height="18.29"/><rect class="b429bb33-8922-4b9b-8620-abdd3d4b8b15" x="186.53" y="428" width="28.22" height="18.29"/><rect class="a168a22d-a665-4764-ae67-fedd5dac1a03" x="186.53" y="281.7" width="28.22" height="18.29"/><rect class="b6260720-39bb-473b-880e-2c0f14969b0d" x="186.53" y="409.72" width="28.22" height="18.29"/><rect class="54b2935c-877f-4ebd-87e1-42665666dac1" x="186.53" y="318.28" width="28.22" height="18.29"/><rect class="b0da5022-a2fc-4dce-bbf3-146ff7173083" x="186.53" y="135.41" width="28.22" height="18.29"/><rect class="b6260720-39bb-473b-880e-2c0f14969b0d" x="186.53" y="501.14" width="28.22" height="18.29"/><rect class="b429bb33-8922-4b9b-8620-abdd3d4b8b15" x="186.53" y="117.12" width="28.22" height="18.29"/><rect class="54b2935c-877f-4ebd-87e1-42665666dac1" x="186.53" y="299.99" width="28.22" height="18.29"/><rect class="54b2935c-877f-4ebd-87e1-42665666dac1" x="186.53" y="482.86" width="28.22" height="18.29"/><rect class="a168a22d-a665-4764-ae67-fedd5dac1a03" x="186.53" y="336.57" width="28.22" height="18.29"/><rect class="b762f805-ada1-494c-8870-87dfaa081db3" x="186.53" y="153.69" width="28.22" height="18.29"/><rect class="b6260720-39bb-473b-880e-2c0f14969b0d" x="186.53" y="391.43" width="28.22" height="18.29"/><rect class="b6260720-39bb-473b-880e-2c0f14969b0d" x="186.53" y="171.98" width="28.22" height="18.29"/><rect class="b762f805-ada1-494c-8870-87dfaa081db3" x="186.53" y="208.56" width="28.22" height="18.29"/><rect class="b429bb33-8922-4b9b-8620-abdd3d4b8b15" x="186.53" y="574.29" width="28.22" height="18.29"/><rect class="54b2935c-877f-4ebd-87e1-42665666dac1" x="186.53" y="263.42" width="28.22" height="18.29"/><rect class="b429bb33-8922-4b9b-8620-abdd3d4b8b15" x="214.75" y="373.14" width="28.22" height="18.29"/><rect class="b762f805-ada1-494c-8870-87dfaa081db3" x="214.75" y="245.13" width="28.22" height="18.29"/><rect class="54b2935c-877f-4ebd-87e1-42665666dac1" x="214.75" y="519.43" width="28.22" height="18.29"/><rect class="b6260720-39bb-473b-880e-2c0f14969b0d" x="214.75" y="354.85" width="28.22" height="18.29"/><rect class="b429bb33-8922-4b9b-8620-abdd3d4b8b15" x="214.75" y="537.72" width="28.22" height="18.29"/><rect class="b429bb33-8922-4b9b-8620-abdd3d4b8b15" x="214.75" y="446.29" width="28.22" height="18.29"/><rect class="54b2935c-877f-4ebd-87e1-42665666dac1" x="214.75" y="226.84" width="28.22" height="18.29"/><rect class="54b2935c-877f-4ebd-87e1-42665666dac1" x="214.75" y="190.27" width="28.22" height="18.29"/><rect class="b429bb33-8922-4b9b-8620-abdd3d4b8b15" x="214.75" y="464.57" width="28.22" height="18.29"/><rect class="b6260720-39bb-473b-880e-2c0f14969b0d" x="214.75" y="556.01" width="28.22" height="18.29"/><rect class="b429bb33-8922-4b9b-8620-abdd3d4b8b15" x="214.75" y="428" width="28.22" height="18.29"/><rect class="a168a22d-a665-4764-ae67-fedd5dac1a03" x="214.75" y="281.7" width="28.22" height="18.29"/><rect class="b6260720-39bb-473b-880e-2c0f14969b0d" x="214.75" y="409.72" width="28.22" height="18.29"/><rect class="a168a22d-a665-4764-ae67-fedd5dac1a03" x="214.75" y="318.28" width="28.22" height="18.29"/><rect class="b0da5022-a2fc-4dce-bbf3-146ff7173083" x="214.75" y="135.41" width="28.22" height="18.29"/><rect class="b6260720-39bb-473b-880e-2c0f14969b0d" x="214.75" y="501.14" width="28.22" height="18.29"/><rect class="b429bb33-8922-4b9b-8620-abdd3d4b8b15" x="214.75" y="117.12" width="28.22" height="18.29"/><rect class="54b2935c-877f-4ebd-87e1-42665666dac1" x="214.75" y="299.99" width="28.22" height="18.29"/><rect class="b6260720-39bb-473b-880e-2c0f14969b0d" x="214.75" y="482.86" width="28.22" height="18.29"/><rect class="54b2935c-877f-4ebd-87e1-42665666dac1" x="214.75" y="336.57" width="28.22" height="18.29"/><rect class="b762f805-ada1-494c-8870-87dfaa081db3" x="214.75" y="153.69" width="28.22" height="18.29"/><rect class="b6260720-39bb-473b-880e-2c0f14969b0d" x="214.75" y="391.43" width="28.22" height="18.29"/><rect class="b6260720-39bb-473b-880e-2c0f14969b0d" x="214.75" y="171.98" width="28.22" height="18.29"/><rect class="b762f805-ada1-494c-8870-87dfaa081db3" x="214.75" y="208.56" width="28.22" height="18.29"/><rect class="54b2935c-877f-4ebd-87e1-42665666dac1" x="214.75" y="574.29" width="28.22" height="18.29"/><rect class="54b2935c-877f-4ebd-87e1-42665666dac1" x="214.75" y="263.42" width="28.22" height="18.29"/><rect class="b429bb33-8922-4b9b-8620-abdd3d4b8b15" x="242.97" y="373.14" width="28.22" height="18.29"/><rect class="b762f805-ada1-494c-8870-87dfaa081db3" x="242.97" y="245.13" width="28.22" height="18.29"/><rect class="54b2935c-877f-4ebd-87e1-42665666dac1" x="242.97" y="519.43" width="28.22" height="18.29"/><rect class="b6260720-39bb-473b-880e-2c0f14969b0d" x="242.97" y="354.85" width="28.22" height="18.29"/><rect class="b429bb33-8922-4b9b-8620-abdd3d4b8b15" x="242.97" y="537.72" width="28.22" height="18.29"/><rect class="b429bb33-8922-4b9b-8620-abdd3d4b8b15" x="242.97" y="446.29" width="28.22" height="18.29"/><rect class="54b2935c-877f-4ebd-87e1-42665666dac1" x="242.97" y="226.84" width="28.22" height="18.29"/><rect class="54b2935c-877f-4ebd-87e1-42665666dac1" x="242.97" y="190.27" width="28.22" height="18.29"/><rect class="b429bb33-8922-4b9b-8620-abdd3d4b8b15" x="242.97" y="464.57" width="28.22" height="18.29"/><rect class="b6260720-39bb-473b-880e-2c0f14969b0d" x="242.97" y="556.01" width="28.22" height="18.29"/><rect class="b429bb33-8922-4b9b-8620-abdd3d4b8b15" x="242.97" y="428" width="28.22" height="18.29"/><rect class="a168a22d-a665-4764-ae67-fedd5dac1a03" x="242.97" y="281.7" width="28.22" height="18.29"/><rect class="b6260720-39bb-473b-880e-2c0f14969b0d" x="242.97" y="409.72" width="28.22" height="18.29"/><rect class="a168a22d-a665-4764-ae67-fedd5dac1a03" x="242.97" y="318.28" width="28.22" height="18.29"/><rect class="b0da5022-a2fc-4dce-bbf3-146ff7173083" x="242.97" y="135.41" width="28.22" height="18.29"/><rect class="b6260720-39bb-473b-880e-2c0f14969b0d" x="242.97" y="501.14" width="28.22" height="18.29"/><rect class="b762f805-ada1-494c-8870-87dfaa081db3" x="242.97" y="117.12" width="28.22" height="18.29"/><rect class="54b2935c-877f-4ebd-87e1-42665666dac1" x="242.97" y="299.99" width="28.22" height="18.29"/><rect class="b6260720-39bb-473b-880e-2c0f14969b0d" x="242.97" y="482.86" width="28.22" height="18.29"/><rect class="54b2935c-877f-4ebd-87e1-42665666dac1" x="242.97" y="336.57" width="28.22" height="18.29"/><rect class="b762f805-ada1-494c-8870-87dfaa081db3" x="242.97" y="153.69" width="28.22" height="18.29"/><rect class="b6260720-39bb-473b-880e-2c0f14969b0d" x="242.97" y="391.43" width="28.22" height="18.29"/><rect class="b6260720-39bb-473b-880e-2c0f14969b0d" x="242.97" y="171.98" width="28.22" height="18.29"/><rect class="b762f805-ada1-494c-8870-87dfaa081db3" x="242.97" y="208.56" width="28.22" height="18.29"/><rect class="54b2935c-877f-4ebd-87e1-42665666dac1" x="242.97" y="574.29" width="28.22" height="18.29"/><rect class="54b2935c-877f-4ebd-87e1-42665666dac1" x="242.97" y="263.42" width="28.22" height="18.29"/><rect class="b429bb33-8922-4b9b-8620-abdd3d4b8b15" x="271.19" y="373.14" width="28.22" height="18.29"/><rect class="b762f805-ada1-494c-8870-87dfaa081db3" x="271.19" y="245.13" width="28.22" height="18.29"/><rect class="b6260720-39bb-473b-880e-2c0f14969b0d" x="271.19" y="519.43" width="28.22" height="18.29"/><rect class="a168a22d-a665-4764-ae67-fedd5dac1a03" x="271.19" y="354.85" width="28.22" height="18.29"/><rect class="b429bb33-8922-4b9b-8620-abdd3d4b8b15" x="271.19" y="537.72" width="28.22" height="18.29"/><rect class="b429bb33-8922-4b9b-8620-abdd3d4b8b15" x="271.19" y="446.29" width="28.22" height="18.29"/><rect class="54b2935c-877f-4ebd-87e1-42665666dac1" x="271.19" y="226.84" width="28.22" height="18.29"/><rect class="54b2935c-877f-4ebd-87e1-42665666dac1" x="271.19" y="190.27" width="28.22" height="18.29"/><rect class="b6260720-39bb-473b-880e-2c0f14969b0d" x="271.19" y="464.57" width="28.22" height="18.29"/><rect class="b6260720-39bb-473b-880e-2c0f14969b0d" x="271.19" y="556.01" width="28.22" height="18.29"/><rect class="b429bb33-8922-4b9b-8620-abdd3d4b8b15" x="271.19" y="428" width="28.22" height="18.29"/><rect class="a168a22d-a665-4764-ae67-fedd5dac1a03" x="271.19" y="281.7" width="28.22" height="18.29"/><rect class="b6260720-39bb-473b-880e-2c0f14969b0d" x="271.19" y="409.72" width="28.22" height="18.29"/><rect class="a168a22d-a665-4764-ae67-fedd5dac1a03" x="271.19" y="318.28" width="28.22" height="18.29"/><rect class="b0da5022-a2fc-4dce-bbf3-146ff7173083" x="271.19" y="135.41" width="28.22" height="18.29"/><rect class="b6260720-39bb-473b-880e-2c0f14969b0d" x="271.19" y="501.14" width="28.22" height="18.29"/><rect class="b762f805-ada1-494c-8870-87dfaa081db3" x="271.19" y="117.12" width="28.22" height="18.29"/><rect class="a168a22d-a665-4764-ae67-fedd5dac1a03" x="271.19" y="299.99" width="28.22" height="18.29"/><rect class="b6260720-39bb-473b-880e-2c0f14969b0d" x="271.19" y="482.86" width="28.22" height="18.29"/><rect class="54b2935c-877f-4ebd-87e1-42665666dac1" x="271.19" y="336.57" width="28.22" height="18.29"/><rect class="b762f805-ada1-494c-8870-87dfaa081db3" x="271.19" y="153.69" width="28.22" height="18.29"/><rect class="b6260720-39bb-473b-880e-2c0f14969b0d" x="271.19" y="391.43" width="28.22" height="18.29"/><rect class="b6260720-39bb-473b-880e-2c0f14969b0d" x="271.19" y="171.98" width="28.22" height="18.29"/><rect class="b762f805-ada1-494c-8870-87dfaa081db3" x="271.19" y="208.56" width="28.22" height="18.29"/><rect class="54b2935c-877f-4ebd-87e1-42665666dac1" x="271.19" y="574.29" width="28.22" height="18.29"/><rect class="a168a22d-a665-4764-ae67-fedd5dac1a03" x="271.19" y="263.42" width="28.22" height="18.29"/><rect class="b429bb33-8922-4b9b-8620-abdd3d4b8b15" x="299.41" y="373.14" width="28.22" height="18.29"/><rect class="b762f805-ada1-494c-8870-87dfaa081db3" x="299.41" y="245.13" width="28.22" height="18.29"/><rect class="b6260720-39bb-473b-880e-2c0f14969b0d" x="299.41" y="519.43" width="28.22" height="18.29"/><rect class="a168a22d-a665-4764-ae67-fedd5dac1a03" x="299.41" y="354.85" width="28.22" height="18.29"/><rect class="b6260720-39bb-473b-880e-2c0f14969b0d" x="299.41" y="537.72" width="28.22" height="18.29"/><rect class="b429bb33-8922-4b9b-8620-abdd3d4b8b15" x="299.41" y="446.29" width="28.22" height="18.29"/><rect class="b762f805-ada1-494c-8870-87dfaa081db3" x="299.41" y="226.84" width="28.22" height="18.29"/><rect class="54b2935c-877f-4ebd-87e1-42665666dac1" x="299.41" y="190.27" width="28.22" height="18.29"/><rect class="b6260720-39bb-473b-880e-2c0f14969b0d" x="299.41" y="464.57" width="28.22" height="18.29"/><rect class="b6260720-39bb-473b-880e-2c0f14969b0d" x="299.41" y="556.01" width="28.22" height="18.29"/><rect class="b6260720-39bb-473b-880e-2c0f14969b0d" x="299.41" y="428" width="28.22" height="18.29"/><rect class="a168a22d-a665-4764-ae67-fedd5dac1a03" x="299.41" y="281.7" width="28.22" height="18.29"/><rect class="b6260720-39bb-473b-880e-2c0f14969b0d" x="299.41" y="409.72" width="28.22" height="18.29"/><rect class="a168a22d-a665-4764-ae67-fedd5dac1a03" x="299.41" y="318.28" width="28.22" height="18.29"/><rect class="b0da5022-a2fc-4dce-bbf3-146ff7173083" x="299.41" y="135.41" width="28.22" height="18.29"/><rect class="b6260720-39bb-473b-880e-2c0f14969b0d" x="299.41" y="501.14" width="28.22" height="18.29"/><rect class="b762f805-ada1-494c-8870-87dfaa081db3" x="299.41" y="117.12" width="28.22" height="18.29"/><rect class="a168a22d-a665-4764-ae67-fedd5dac1a03" x="299.41" y="299.99" width="28.22" height="18.29"/><rect class="b6260720-39bb-473b-880e-2c0f14969b0d" x="299.41" y="482.86" width="28.22" height="18.29"/><rect class="54b2935c-877f-4ebd-87e1-42665666dac1" x="299.41" y="336.57" width="28.22" height="18.29"/><rect class="a9155bfe-30f2-4681-bba1-ad34d23c424a" x="299.41" y="153.69" width="28.22" height="18.29"/><rect class="54b2935c-877f-4ebd-87e1-42665666dac1" x="299.41" y="391.43" width="28.22" height="18.29"/><rect class="a0eb5cec-9f8d-4694-99b6-9b32c6599388" x="299.41" y="171.98" width="28.22" height="18.29"/><rect class="b762f805-ada1-494c-8870-87dfaa081db3" x="299.41" y="208.56" width="28.22" height="18.29"/><rect class="54b2935c-877f-4ebd-87e1-42665666dac1" x="299.41" y="574.29" width="28.22" height="18.29"/><rect class="a168a22d-a665-4764-ae67-fedd5dac1a03" x="299.41" y="263.42" width="28.22" height="18.29"/><rect class="b429bb33-8922-4b9b-8620-abdd3d4b8b15" x="327.63" y="373.14" width="28.22" height="18.29"/><rect class="b762f805-ada1-494c-8870-87dfaa081db3" x="327.63" y="245.13" width="28.22" height="18.29"/><rect class="b6260720-39bb-473b-880e-2c0f14969b0d" x="327.63" y="519.43" width="28.22" height="18.29"/><rect class="a168a22d-a665-4764-ae67-fedd5dac1a03" x="327.63" y="354.85" width="28.22" height="18.29"/><rect class="b6260720-39bb-473b-880e-2c0f14969b0d" x="327.63" y="537.72" width="28.22" height="18.29"/><rect class="b6260720-39bb-473b-880e-2c0f14969b0d" x="327.63" y="446.29" width="28.22" height="18.29"/><rect class="b762f805-ada1-494c-8870-87dfaa081db3" x="327.63" y="226.84" width="28.22" height="18.29"/><rect class="a9155bfe-30f2-4681-bba1-ad34d23c424a" x="327.63" y="190.27" width="28.22" height="18.29"/><rect class="b6260720-39bb-473b-880e-2c0f14969b0d" x="327.63" y="464.57" width="28.22" height="18.29"/><rect class="b6260720-39bb-473b-880e-2c0f14969b0d" x="327.63" y="556.01" width="28.22" height="18.29"/><rect class="b6260720-39bb-473b-880e-2c0f14969b0d" x="327.63" y="428" width="28.22" height="18.29"/><rect class="a168a22d-a665-4764-ae67-fedd5dac1a03" x="327.63" y="281.7" width="28.22" height="18.29"/><rect class="b6260720-39bb-473b-880e-2c0f14969b0d" x="327.63" y="409.72" width="28.22" height="18.29"/><rect class="a168a22d-a665-4764-ae67-fedd5dac1a03" x="327.63" y="318.28" width="28.22" height="18.29"/><rect class="b0da5022-a2fc-4dce-bbf3-146ff7173083" x="327.63" y="135.41" width="28.22" height="18.29"/><rect class="b6260720-39bb-473b-880e-2c0f14969b0d" x="327.63" y="501.14" width="28.22" height="18.29"/><rect class="b762f805-ada1-494c-8870-87dfaa081db3" x="327.63" y="117.12" width="28.22" height="18.29"/><rect class="a168a22d-a665-4764-ae67-fedd5dac1a03" x="327.63" y="299.99" width="28.22" height="18.29"/><rect class="b6260720-39bb-473b-880e-2c0f14969b0d" x="327.63" y="482.86" width="28.22" height="18.29"/><rect class="54b2935c-877f-4ebd-87e1-42665666dac1" x="327.63" y="336.57" width="28.22" height="18.29"/><rect class="a9155bfe-30f2-4681-bba1-ad34d23c424a" x="327.63" y="153.69" width="28.22" height="18.29"/><rect class="54b2935c-877f-4ebd-87e1-42665666dac1" x="327.63" y="391.43" width="28.22" height="18.29"/><rect class="a0eb5cec-9f8d-4694-99b6-9b32c6599388" x="327.63" y="171.98" width="28.22" height="18.29"/><rect class="b762f805-ada1-494c-8870-87dfaa081db3" x="327.63" y="208.56" width="28.22" height="18.29"/><rect class="b429bb33-8922-4b9b-8620-abdd3d4b8b15" x="327.63" y="574.29" width="28.22" height="18.29"/><rect class="a168a22d-a665-4764-ae67-fedd5dac1a03" x="327.63" y="263.42" width="28.22" height="18.29"/><rect class="54b2935c-877f-4ebd-87e1-42665666dac1" x="355.85" y="373.14" width="28.22" height="18.29"/><rect class="b762f805-ada1-494c-8870-87dfaa081db3" x="355.85" y="245.13" width="28.22" height="18.29"/><rect class="b6260720-39bb-473b-880e-2c0f14969b0d" x="355.85" y="519.43" width="28.22" height="18.29"/><rect class="54b2935c-877f-4ebd-87e1-42665666dac1" x="355.85" y="354.85" width="28.22" height="18.29"/><rect class="b6260720-39bb-473b-880e-2c0f14969b0d" x="355.85" y="537.72" width="28.22" height="18.29"/><rect class="b6260720-39bb-473b-880e-2c0f14969b0d" x="355.85" y="446.29" width="28.22" height="18.29"/><rect class="b762f805-ada1-494c-8870-87dfaa081db3" x="355.85" y="226.84" width="28.22" height="18.29"/><rect class="a9155bfe-30f2-4681-bba1-ad34d23c424a" x="355.85" y="190.27" width="28.22" height="18.29"/><rect class="b6260720-39bb-473b-880e-2c0f14969b0d" x="355.85" y="464.57" width="28.22" height="18.29"/><rect class="b6260720-39bb-473b-880e-2c0f14969b0d" x="355.85" y="556.01" width="28.22" height="18.29"/><rect class="b6260720-39bb-473b-880e-2c0f14969b0d" x="355.85" y="428" width="28.22" height="18.29"/><rect class="a168a22d-a665-4764-ae67-fedd5dac1a03" x="355.85" y="281.7" width="28.22" height="18.29"/><rect class="54b2935c-877f-4ebd-87e1-42665666dac1" x="355.85" y="409.72" width="28.22" height="18.29"/><rect class="a168a22d-a665-4764-ae67-fedd5dac1a03" x="355.85" y="318.28" width="28.22" height="18.29"/><rect class="b0da5022-a2fc-4dce-bbf3-146ff7173083" x="355.85" y="135.41" width="28.22" height="18.29"/><rect class="b6260720-39bb-473b-880e-2c0f14969b0d" x="355.85" y="501.14" width="28.22" height="18.29"/><rect class="b762f805-ada1-494c-8870-87dfaa081db3" x="355.85" y="117.12" width="28.22" height="18.29"/><rect class="a168a22d-a665-4764-ae67-fedd5dac1a03" x="355.85" y="299.99" width="28.22" height="18.29"/><rect class="b6260720-39bb-473b-880e-2c0f14969b0d" x="355.85" y="482.86" width="28.22" height="18.29"/><rect class="54b2935c-877f-4ebd-87e1-42665666dac1" x="355.85" y="336.57" width="28.22" height="18.29"/><rect class="a9155bfe-30f2-4681-bba1-ad34d23c424a" x="355.85" y="153.69" width="28.22" height="18.29"/><rect class="54b2935c-877f-4ebd-87e1-42665666dac1" x="355.85" y="391.43" width="28.22" height="18.29"/><rect class="a9155bfe-30f2-4681-bba1-ad34d23c424a" x="355.85" y="171.98" width="28.22" height="18.29"/><rect class="b762f805-ada1-494c-8870-87dfaa081db3" x="355.85" y="208.56" width="28.22" height="18.29"/><rect class="b429bb33-8922-4b9b-8620-abdd3d4b8b15" x="355.85" y="574.29" width="28.22" height="18.29"/><rect class="a168a22d-a665-4764-ae67-fedd5dac1a03" x="355.85" y="263.42" width="28.22" height="18.29"/><rect class="54b2935c-877f-4ebd-87e1-42665666dac1" x="384.07" y="373.14" width="28.22" height="18.29"/><rect class="b762f805-ada1-494c-8870-87dfaa081db3" x="384.07" y="245.13" width="28.22" height="18.29"/><rect class="b6260720-39bb-473b-880e-2c0f14969b0d" x="384.07" y="519.43" width="28.22" height="18.29"/><rect class="54b2935c-877f-4ebd-87e1-42665666dac1" x="384.07" y="354.85" width="28.22" height="18.29"/><rect class="b6260720-39bb-473b-880e-2c0f14969b0d" x="384.07" y="537.72" width="28.22" height="18.29"/><rect class="b6260720-39bb-473b-880e-2c0f14969b0d" x="384.07" y="446.29" width="28.22" height="18.29"/><rect class="b762f805-ada1-494c-8870-87dfaa081db3" x="384.07" y="226.84" width="28.22" height="18.29"/><rect class="a9155bfe-30f2-4681-bba1-ad34d23c424a" x="384.07" y="190.27" width="28.22" height="18.29"/><rect class="b6260720-39bb-473b-880e-2c0f14969b0d" x="384.07" y="464.57" width="28.22" height="18.29"/><rect class="b6260720-39bb-473b-880e-2c0f14969b0d" x="384.07" y="556.01" width="28.22" height="18.29"/><rect class="b6260720-39bb-473b-880e-2c0f14969b0d" x="384.07" y="428" width="28.22" height="18.29"/><rect class="a168a22d-a665-4764-ae67-fedd5dac1a03" x="384.07" y="281.7" width="28.22" height="18.29"/><rect class="54b2935c-877f-4ebd-87e1-42665666dac1" x="384.07" y="409.72" width="28.22" height="18.29"/><rect class="a168a22d-a665-4764-ae67-fedd5dac1a03" x="384.07" y="318.28" width="28.22" height="18.29"/><rect class="b0da5022-a2fc-4dce-bbf3-146ff7173083" x="384.07" y="135.41" width="28.22" height="18.29"/><rect class="b6260720-39bb-473b-880e-2c0f14969b0d" x="384.07" y="501.14" width="28.22" height="18.29"/><rect class="b0da5022-a2fc-4dce-bbf3-146ff7173083" x="384.07" y="117.12" width="28.22" height="18.29"/><rect class="a168a22d-a665-4764-ae67-fedd5dac1a03" x="384.07" y="299.99" width="28.22" height="18.29"/><rect class="b6260720-39bb-473b-880e-2c0f14969b0d" x="384.07" y="482.86" width="28.22" height="18.29"/><rect class="54b2935c-877f-4ebd-87e1-42665666dac1" x="384.07" y="336.57" width="28.22" height="18.29"/><rect class="a9155bfe-30f2-4681-bba1-ad34d23c424a" x="384.07" y="153.69" width="28.22" height="18.29"/><rect class="54b2935c-877f-4ebd-87e1-42665666dac1" x="384.07" y="391.43" width="28.22" height="18.29"/><rect class="a9155bfe-30f2-4681-bba1-ad34d23c424a" x="384.07" y="171.98" width="28.22" height="18.29"/><rect class="b762f805-ada1-494c-8870-87dfaa081db3" x="384.07" y="208.56" width="28.22" height="18.29"/><rect class="b429bb33-8922-4b9b-8620-abdd3d4b8b15" x="384.07" y="574.29" width="28.22" height="18.29"/><rect class="a168a22d-a665-4764-ae67-fedd5dac1a03" x="384.07" y="263.42" width="28.22" height="18.29"/></g><text class="561e8b87-9db5-428a-b924-fc526585c585" transform="translate(36.71 628.56) rotate(-90)">2005</text><text class="561e8b87-9db5-428a-b924-fc526585c585" transform="translate(64.93 628.56) rotate(-90)">2006</text><text class="561e8b87-9db5-428a-b924-fc526585c585" transform="translate(93.15 628.56) rotate(-90)">2007</text><text class="561e8b87-9db5-428a-b924-fc526585c585" transform="translate(121.37 628.56) rotate(-90)">2008</text><text class="561e8b87-9db5-428a-b924-fc526585c585" transform="translate(149.59 628.56) rotate(-90)">2009</text><text class="561e8b87-9db5-428a-b924-fc526585c585" transform="translate(177.81 628.56) rotate(-90)">2010</text><text class="561e8b87-9db5-428a-b924-fc526585c585" transform="translate(206.03 628.56) rotate(-90)">2011</text><text class="561e8b87-9db5-428a-b924-fc526585c585" transform="translate(234.25 628.56) rotate(-90)">2012</text><text class="561e8b87-9db5-428a-b924-fc526585c585" transform="translate(262.47 628.56) rotate(-90)">2013</text><text class="561e8b87-9db5-428a-b924-fc526585c585" transform="translate(290.69 628.56) rotate(-90)">2014</text><text class="561e8b87-9db5-428a-b924-fc526585c585" transform="translate(318.91 628.56) rotate(-90)">2015</text><text class="561e8b87-9db5-428a-b924-fc526585c585" transform="translate(347.13 628.56) rotate(-90)">2016</text><text class="561e8b87-9db5-428a-b924-fc526585c585" transform="translate(375.34 628.56) rotate(-90)">2017</text><text class="561e8b87-9db5-428a-b924-fc526585c585" transform="translate(403.56 628.56) rotate(-90)">2018</text><text class="4efb7e81-3f80-40bb-acac-e4552de9ac64" transform="translate(417.51 386.04)">Alemania</text><text class="4efb7e81-3f80-40bb-acac-e4552de9ac64" transform="translate(417.51 258.03)"><tspan class="9fde3a0b-d31d-4119-992a-bf1b5c70fa60">A</tspan><tspan x="8.93" y="0">ust</tspan><tspan class="d95550c3-b6fc-44cf-9650-b5a672644683" x="27.61" y="0">r</tspan><tspan x="32.47" y="0">ia</tspan></text><text class="4efb7e81-3f80-40bb-acac-e4552de9ac64" transform="translate(417.51 532.33)">Bélgica</text><text class="4efb7e81-3f80-40bb-acac-e4552de9ac64" transform="translate(417.51 367.76)">Bulga<tspan class="d95550c3-b6fc-44cf-9650-b5a672644683" x="35.81" y="0">r</tspan><tspan x="40.67" y="0">ia</tspan></text><text class="4efb7e81-3f80-40bb-acac-e4552de9ac64" transform="translate(417.51 550.63)">Chipre</text><text class="4efb7e81-3f80-40bb-acac-e4552de9ac64" transform="translate(417.51 459.2)">Croacia</text><text class="4efb7e81-3f80-40bb-acac-e4552de9ac64" transform="translate(417.51 239.75)">Dinamarca</text><text class="4efb7e81-3f80-40bb-acac-e4552de9ac64" transform="translate(417.51 203.18)">Esl<tspan class="ed984d68-0e17-4ec3-93ae-dd5df5beed49" x="19.45" y="0">o</tspan><tspan class="70caa04e-644d-4520-9d91-8b49ac9b93a4" x="27.02" y="0">v</tspan><tspan x="33.69" y="0">aquia</tspan></text><text class="4efb7e81-3f80-40bb-acac-e4552de9ac64" transform="translate(417.51 477.48)">Esl<tspan class="ed984d68-0e17-4ec3-93ae-dd5df5beed49" x="19.45" y="0">o</tspan><tspan class="70caa04e-644d-4520-9d91-8b49ac9b93a4" x="27.02" y="0">v</tspan><tspan x="33.69" y="0">enia</tspan></text><text class="4efb7e81-3f80-40bb-acac-e4552de9ac64" transform="translate(417.51 568.91)">España</text><text class="4efb7e81-3f80-40bb-acac-e4552de9ac64" transform="translate(417.51 440.9)">Estonia</text><text class="4efb7e81-3f80-40bb-acac-e4552de9ac64" transform="translate(417.51 294.61)">Finlandia</text><text class="4efb7e81-3f80-40bb-acac-e4552de9ac64" transform="translate(417.51 422.62)">F<tspan class="05499a37-ed09-4487-9a6c-dca9ee86b3aa" x="8.55" y="0">r</tspan><tspan x="13.07" y="0">ancia</tspan></text><text class="4efb7e81-3f80-40bb-acac-e4552de9ac64" transform="translate(417.51 331.18)">Grecia</text><text class="4efb7e81-3f80-40bb-acac-e4552de9ac64" transform="translate(417.51 148.31)">Hung<tspan class="d95550c3-b6fc-44cf-9650-b5a672644683" x="33.47" y="0">r</tspan><tspan x="38.33" y="0">ía</tspan></text><text class="4efb7e81-3f80-40bb-acac-e4552de9ac64" transform="translate(417.51 514.04)">I<tspan class="d95550c3-b6fc-44cf-9650-b5a672644683" x="3.89" y="0">r</tspan><tspan x="8.75" y="0">landa</tspan></text><text class="4efb7e81-3f80-40bb-acac-e4552de9ac64" transform="translate(417.51 130.02)">Italia</text><text class="ff291131-cb8a-40ce-9295-42ddb4a2ab63" transform="translate(453.07 92.33)">+65%</text><text class="ff291131-cb8a-40ce-9295-42ddb4a2ab63" transform="translate(39.21 92.35)">0%</text><text class="ff291131-cb8a-40ce-9295-42ddb4a2ab63" transform="translate(388.07 93)">50 - 64,9</text><text class="ff291131-cb8a-40ce-9295-42ddb4a2ab63" transform="translate(324.91 92.35)">35 - 49,9</text><text class="ff291131-cb8a-40ce-9295-42ddb4a2ab63" transform="translate(265.91 92.35)">25 - 49,9</text><text class="ff291131-cb8a-40ce-9295-42ddb4a2ab63" transform="translate(85.54 92.33)">0,1 - 9,9</text><text class="ff291131-cb8a-40ce-9295-42ddb4a2ab63" transform="translate(143.37 92.33)">10 - 14,9</text><text class="ff291131-cb8a-40ce-9295-42ddb4a2ab63" transform="translate(204.04 92.33)">15 - 24,9</text><text class="4efb7e81-3f80-40bb-acac-e4552de9ac64" transform="translate(418.51 312.89)">Letonia</text><text class="4efb7e81-3f80-40bb-acac-e4552de9ac64" transform="translate(417.51 495.76)">Lituania</text><text class="4efb7e81-3f80-40bb-acac-e4552de9ac64" transform="translate(417.51 349.47)"><tspan class="34904ab6-9ec0-43d9-8c34-fc01e5905d21">P</tspan><tspan x="8.78" y="0">aíses Bajos</tspan></text><text class="4efb7e81-3f80-40bb-acac-e4552de9ac64" transform="translate(417.51 166.6)"><tspan class="c37795da-1e83-46b2-a0f4-442215b86f82">P</tspan><tspan x="8.64" y="0">olonia</tspan></text><text class="4efb7e81-3f80-40bb-acac-e4552de9ac64" transform="translate(417.51 404.34)"><tspan class="c37795da-1e83-46b2-a0f4-442215b86f82">P</tspan><tspan x="8.64" y="0">o</tspan><tspan class="e6b10d32-0166-46a9-9f06-613e71f7e398" x="16.42" y="0">r</tspan><tspan x="21.63" y="0">tugal</tspan></text><text class="4efb7e81-3f80-40bb-acac-e4552de9ac64" transform="translate(417.51 184.89)">Reino Unido</text><text class="4efb7e81-3f80-40bb-acac-e4552de9ac64" transform="translate(417.51 221.47)">R. Checa</text><text class="4efb7e81-3f80-40bb-acac-e4552de9ac64" transform="translate(417.51 587.2)">Rumanía</text><text class="4efb7e81-3f80-40bb-acac-e4552de9ac64" transform="translate(417.51 276.33)">Suecia</text><rect class="6d2844be-e69f-4587-a66e-3531edb94f29" x="17.21" y="67.69" width="60.27" height="9.14"/><rect class="80ef423f-9245-43c5-aabe-a4b925880ce5" x="77.48" y="67.69" width="60.27" height="9.14"/><rect class="01754631-2ab3-47c9-ad8c-94f19206770f" x="318.54" y="67.69" width="60.27" height="9.14"/><rect class="ba546474-7be4-4e6a-b28a-c931ba4cddfc" x="378.8" y="67.69" width="60.27" height="9.14"/><rect class="6791f3fc-f6e3-4950-996e-a18a1911ceef" x="258.28" y="67.69" width="60.27" height="9.14"/><rect class="2612b4da-7b78-49db-b1ca-6dad78aed899" x="137.75" y="67.69" width="60.27" height="9.14"/><rect class="b2d963e7-d38b-45f4-a565-20d09233d160" x="198.01" y="67.69" width="60.27" height="9.14"/><rect class="40d2f601-3a55-4196-aacf-6a6c0d3c9389" x="439.07" y="67.69" width="60.27" height="9.14"/><text class="ab8896d3-3819-4365-9ee3-d1d14164b473" transform="translate(19.04 29.08)">Evolución del porcentaje de euroscepticismo en <tspan x="-3.37" y="24">los parlamentos estatales de los países de la U.E</tspan></text><text class="2f8b8732-603f-4657-b217-b97df214c2ab" transform="translate(17.21 654.71)">Fuente: Elaboración Propia</text><text class="2f8b8732-603f-4657-b217-b97df214c2ab" transform="translate(385.57 654.71)">L<tspan class="cf313945-a5d8-42e4-8c42-5608cb60a1dc" x="7.23" y="0">A</tspan><tspan x="15.18" y="0"> </tspan><tspan class="52626883-d368-4aeb-b435-55a01e396e01" x="18.8" y="0">V</tspan><tspan x="26.5" y="0">ANGUARDI</tspan><tspan class="cf313945-a5d8-42e4-8c42-5608cb60a1dc" x="95.12" y="0">A</tspan></text></svg>