<svg id="d4da84d0-bd10-40d0-bf37-d6a3c29def7d" data-name="Capa 1" xmlns="http://www.w3.org/2000/svg" viewBox="0 0 565 548"><defs><style>.f3ba6e66-08cf-4e91-9551-c48be6395a33{fill:#f9f9f9;}.\30 e2f6fce-6d87-4dfe-98fc-51b700ab9504,.\32 77783a8-30d0-43c4-8141-c4e53d97ae75,.\37 48c15bf-8ffe-489b-8fa8-4be4b378ac5c,.\38 1c891ff-b385-4951-92ef-9de9a9ca5278,.\38 50647b5-89cc-4928-bfb7-d962b505eca9,.a65000b3-bef6-466d-bee6-73852cd47483,.ad4c6503-67ff-4fe5-a9fd-ceaea327594a,.ad82138d-5c0b-45b7-af0b-aa34140dbfc7,.bde222c2-82d3-4659-a24f-a86ec1e4d278,.cc30e742-8bed-4f53-98e7-ce361697c212,.d01d744e-0a1c-4ee6-936c-46313e843dab{fill:none;}.a65000b3-bef6-466d-bee6-73852cd47483{stroke:#e6e6e6;}.\30 e2f6fce-6d87-4dfe-98fc-51b700ab9504,.\37 bbcc9bb-6e2c-4f39-81f3-de8f923d3787{stroke:#323232;}.cc30e742-8bed-4f53-98e7-ce361697c212{stroke:#91c43e;}.\32 77783a8-30d0-43c4-8141-c4e53d97ae75,.\37 48c15bf-8ffe-489b-8fa8-4be4b378ac5c,.\38 50647b5-89cc-4928-bfb7-d962b505eca9,.ad82138d-5c0b-45b7-af0b-aa34140dbfc7,.cc30e742-8bed-4f53-98e7-ce361697c212{stroke-linecap:round;stroke-linejoin:round;stroke-width:2px;}.\38 50647b5-89cc-4928-bfb7-d962b505eca9{stroke:#f49e20;}.ad82138d-5c0b-45b7-af0b-aa34140dbfc7{stroke:#4cbcbf;}.\37 48c15bf-8ffe-489b-8fa8-4be4b378ac5c{stroke:#d65b70;}.\32 77783a8-30d0-43c4-8141-c4e53d97ae75{stroke:#a01f51;}.\37 4f60efb-7948-4bde-b7b7-9230916e3034{font-size:16px;}.\32 d60b165-3373-490a-977a-9c9d006bde8e,.\33 b284dc3-bcce-4f7c-98b1-dc9c83dbe8e5,.\36 14d9e27-f8e2-40bf-8136-27c9795c8eda,.\37 4f60efb-7948-4bde-b7b7-9230916e3034,.d068c002-240a-421f-8343-c9454ffe0c03{fill:#757575;}.\30 532bfc7-c12d-4c29-af6b-0a84e3098677,.\32 d60b165-3373-490a-977a-9c9d006bde8e,.\33 b284dc3-bcce-4f7c-98b1-dc9c83dbe8e5,.\36 14d9e27-f8e2-40bf-8136-27c9795c8eda,.\37 4f60efb-7948-4bde-b7b7-9230916e3034,.b4fdf979-7902-468a-998e-035f92c70ce5{font-family:ArialMT, Arial;}.b8418aee-cf34-4179-9290-87572cdd700a{font-size:18px;}.b8418aee-cf34-4179-9290-87572cdd700a,.d068c002-240a-421f-8343-c9454ffe0c03{font-family:Arial-BoldMT, Arial;font-weight:700;}.\32 43c691f-fd44-4c27-b574-407f5d068f56{letter-spacing:-0.06em;}.\38 1c891ff-b385-4951-92ef-9de9a9ca5278,.ad4c6503-67ff-4fe5-a9fd-ceaea327594a,.bde222c2-82d3-4659-a24f-a86ec1e4d278,.d01d744e-0a1c-4ee6-936c-46313e843dab{stroke:#757575;}.\33 b284dc3-bcce-4f7c-98b1-dc9c83dbe8e5,.b4fdf979-7902-468a-998e-035f92c70ce5{font-size:17px;}.\30 532bfc7-c12d-4c29-af6b-0a84e3098677,.\37 bbcc9bb-6e2c-4f39-81f3-de8f923d3787,.b4fdf979-7902-468a-998e-035f92c70ce5{fill:#323232;}.\30 532bfc7-c12d-4c29-af6b-0a84e3098677,.\32 d60b165-3373-490a-977a-9c9d006bde8e,.d068c002-240a-421f-8343-c9454ffe0c03{font-size:15px;}.b96685c2-b631-4a6f-9934-7085ce1df071{letter-spacing:-0.07em;}.\33 3fb51f6-876d-4759-a4bd-b65f930f5cd3{letter-spacing:-0.04em;}.\36 14d9e27-f8e2-40bf-8136-27c9795c8eda{font-size:13px;}.\38 1c891ff-b385-4951-92ef-9de9a9ca5278,.ad4c6503-67ff-4fe5-a9fd-ceaea327594a,.d01d744e-0a1c-4ee6-936c-46313e843dab{stroke-width:0.5px;}.d01d744e-0a1c-4ee6-936c-46313e843dab{stroke-dasharray:4.98 4.98;}.ad4c6503-67ff-4fe5-a9fd-ceaea327594a{stroke-dasharray:5.04 5.04;}.\34 765f318-34e0-404f-be13-f654ca1f7fab{fill:#4cbcbf;}.\34 765f318-34e0-404f-be13-f654ca1f7fab,.ba51dc69-7c9a-4cff-a668-012630c4faf8,.d40bed81-e818-46cf-a14b-06284be58187,.de719a97-9e6d-4d9b-b4cc-b994b548e25d,.e735d290-f872-4c63-860a-1fc5ef184871{opacity:0.65;}.e735d290-f872-4c63-860a-1fc5ef184871{fill:#b21420;}.ba51dc69-7c9a-4cff-a668-012630c4faf8{fill:#91c43e;}.d40bed81-e818-46cf-a14b-06284be58187{fill:#a01f51;}.de719a97-9e6d-4d9b-b4cc-b994b548e25d{fill:#f49e20;}</style></defs><title>2018.05_ValoracionLideresbis</title><rect class="f3ba6e66-08cf-4e91-9551-c48be6395a33" x="-2.55" y="128.55" width="367.1" height="342" transform="translate(-118.55 480.55) rotate(-90)"/><rect class="f3ba6e66-08cf-4e91-9551-c48be6395a33" x="280.45" y="229.6" width="367.1" height="140" transform="translate(164.4 763.6) rotate(-90)"/><line class="a65000b3-bef6-466d-bee6-73852cd47483" x1="9.9" y1="483.32" x2="555" y2="483.32"/><line class="a65000b3-bef6-466d-bee6-73852cd47483" x1="9.9" y1="430.8" x2="555" y2="430.8"/><line class="a65000b3-bef6-466d-bee6-73852cd47483" x1="9.9" y1="378.27" x2="555" y2="378.27"/><line class="a65000b3-bef6-466d-bee6-73852cd47483" x1="9.9" y1="325.74" x2="555" y2="325.74"/><line class="a65000b3-bef6-466d-bee6-73852cd47483" x1="9.9" y1="273.22" x2="555" y2="273.22"/><line class="0e2f6fce-6d87-4dfe-98fc-51b700ab9504" x1="9.9" y1="220.69" x2="555" y2="220.69"/><line class="a65000b3-bef6-466d-bee6-73852cd47483" x1="9.9" y1="168.16" x2="555" y2="168.16"/><line class="a65000b3-bef6-466d-bee6-73852cd47483" x1="9.9" y1="115.63" x2="555" y2="115.63"/><path class="cc30e742-8bed-4f53-98e7-ce361697c212" d="M14,264.29l21.12,11.56,21.13,9.45,21.36.53L99,279.52l20.89,18.91L141,294.75l21.36-11.56,21.37,4.73,20.89,17.33,21.13,2.1,21.36-6.83,21.37-2.63,20.89,5.25,21.13.53,21.36-5.78"/><path class="850647b5-89cc-4928-bfb7-d962b505eca9" d="M331.88,221.74l21.37,55.68,21.12-3.68,7-9.45,14.16,11.56,21.36,13.66,21.37,6.83,42-6.3,21.36,5.25L523,272.69"/><path class="ad82138d-5c0b-45b7-af0b-aa34140dbfc7" d="M14,333.62H35.12l21.13,5.25,21.36-.53L99,342l20.89,7.88L141,347.8l21.36-2.1,21.37,11,20.89-12.61,21.13,16.28L247.13,362l21.37,3.68,20.89-13.13,21.13-6.3,21.36-11,21.37-13.66,21.12,10,7-10.51,14.16-13.66,21.36,20,21.37-6.83,20.89,10,21.13,6.3,21.36-12.08L523,332.57"/><path class="748c15bf-8ffe-489b-8fa8-4be4b378ac5c" d="M14,260.08l21.12,7.35,21.13,16.28L77.62,289,99,304.73l20.89,21L141,318.39l21.36,1.05,21.37,6.3,20.89,3.68,21.13-10,21.36-38.34L268.5,290l20.89,4.73,21.13-13.13h21.36l21.37,4.73,21.12.53,7-13.13,14.16,3.15,21.36,30.47,63.39-20,21.36,6.3L523,290"/><path class="277783a8-30d0-43c4-8141-c4e53d97ae75" d="M331.88,280l21.37,4.73,21.12,32.57,7-13.13,14.16-3.68,21.36,13.66,21.37,18.38,42-6.83,21.36,2.63L523,349.91"/><text class="74f60efb-7948-4bde-b7b7-9230916e3034" transform="translate(10.84 506.57)">2012</text><text class="74f60efb-7948-4bde-b7b7-9230916e3034" transform="translate(90.84 506.57)">2013</text><text class="74f60efb-7948-4bde-b7b7-9230916e3034" transform="translate(255.84 506.57)">2015</text><text class="74f60efb-7948-4bde-b7b7-9230916e3034" transform="translate(348.84 505.57)">2016</text><text class="74f60efb-7948-4bde-b7b7-9230916e3034" transform="translate(443.84 505.57)">2017</text><text class="74f60efb-7948-4bde-b7b7-9230916e3034" transform="translate(175.84 506.57)">2014</text><text class="74f60efb-7948-4bde-b7b7-9230916e3034" transform="translate(522.84 505.57)">2018</text><text class="b8418aee-cf34-4179-9290-87572cdd700a" transform="translate(7.4 23.89)"><tspan class="243c691f-fd44-4c27-b574-407f5d068f56">V</tspan><tspan x="11.01" y="0">aloración de los líderes políticos en las tres últimas legislaturas</tspan></text><line class="bde222c2-82d3-4659-a24f-a86ec1e4d278" x1="306.5" y1="17.5" x2="309.5" y2="17.5"/><text class="b4fdf979-7902-468a-998e-035f92c70ce5" transform="translate(541 215.17)">5</text><text class="0532bfc7-c12d-4c29-af6b-0a84e3098677" transform="translate(382 43.74)">PUNTUACIÓN SOBRE 10</text><text class="d068c002-240a-421f-8343-c9454ffe0c03" transform="translate(11 74.74)">X LEGISL<tspan class="b96685c2-b631-4a6f-9934-7085ce1df071" x="68.34" y="0">A</tspan><tspan x="78.06" y="0">TUR</tspan><tspan class="33fb51f6-876d-4759-a4bd-b65f930f5cd3" x="108.89" y="0">A</tspan></text><text class="d068c002-240a-421f-8343-c9454ffe0c03" transform="translate(391 75.74)">XII LEGISL<tspan class="b96685c2-b631-4a6f-9934-7085ce1df071" x="76.68" y="0">A</tspan><tspan x="86.4" y="0">TUR</tspan><tspan class="33fb51f6-876d-4759-a4bd-b65f930f5cd3" x="117.22" y="0">A</tspan></text><text class="d068c002-240a-421f-8343-c9454ffe0c03" transform="translate(224 75.74)">XI LEGISL<tspan class="b96685c2-b631-4a6f-9934-7085ce1df071" x="72.51" y="0">A</tspan><tspan x="82.23" y="0">TUR</tspan><tspan class="33fb51f6-876d-4759-a4bd-b65f930f5cd3" x="113.05" y="0">A</tspan></text><text class="3b284dc3-bcce-4f7c-98b1-dc9c83dbe8e5" transform="translate(541 268.17)">4</text><text class="3b284dc3-bcce-4f7c-98b1-dc9c83dbe8e5" transform="translate(541 162.17)">6</text><text class="3b284dc3-bcce-4f7c-98b1-dc9c83dbe8e5" transform="translate(545 109.17)">7</text><text class="3b284dc3-bcce-4f7c-98b1-dc9c83dbe8e5" transform="translate(541 321.17)">3</text><text class="3b284dc3-bcce-4f7c-98b1-dc9c83dbe8e5" transform="translate(541 374.17)">2</text><text class="3b284dc3-bcce-4f7c-98b1-dc9c83dbe8e5" transform="translate(541 427.17)">1</text><text class="3b284dc3-bcce-4f7c-98b1-dc9c83dbe8e5" transform="translate(541 478.17)">0</text><line class="7bbcc9bb-6e2c-4f39-81f3-de8f923d3787" x1="14" y1="49" x2="559" y2="49"/><text class="614d9e27-f8e2-40bf-8136-27c9795c8eda" transform="translate(9.67 537.97)">Fuente: Barómetro del CIS</text><text class="614d9e27-f8e2-40bf-8136-27c9795c8eda" transform="translate(369.27 537.97)">Laura<tspan class="243c691f-fd44-4c27-b574-407f5d068f56" x="33.25" y="0"> </tspan><tspan x="36.14" y="0" xml:space="preserve">Aragó  |  L</tspan><tspan class="243c691f-fd44-4c27-b574-407f5d068f56" x="95.89" y="0">A</tspan><tspan x="103.84" y="0"> </tspan><tspan class="b96685c2-b631-4a6f-9934-7085ce1df071" x="107.45" y="0">V</tspan><tspan x="115.16" y="0">ANGUARDI</tspan><tspan class="243c691f-fd44-4c27-b574-407f5d068f56" x="183.78" y="0">A</tspan></text><line class="81c891ff-b385-4951-92ef-9de9a9ca5278" x1="14.4" y1="484.1" x2="14.4" y2="481.6"/><line class="d01d744e-0a1c-4ee6-936c-46313e843dab" x1="14.4" y1="476.62" x2="14.4" y2="90.99"/><line class="81c891ff-b385-4951-92ef-9de9a9ca5278" x1="14.4" y1="88.5" x2="14.4" y2="86"/><line class="81c891ff-b385-4951-92ef-9de9a9ca5278" x1="394.4" y1="482.1" x2="394.4" y2="479.6"/><line class="ad4c6503-67ff-4fe5-a9fd-ceaea327594a" x1="394.4" y1="474.56" x2="394.4" y2="94.02"/><line class="81c891ff-b385-4951-92ef-9de9a9ca5278" x1="394.4" y1="91.5" x2="394.4" y2="89"/><line class="81c891ff-b385-4951-92ef-9de9a9ca5278" x1="352.4" y1="478.1" x2="352.4" y2="475.6"/><line class="ad4c6503-67ff-4fe5-a9fd-ceaea327594a" x1="352.4" y1="470.56" x2="352.4" y2="90.02"/><line class="81c891ff-b385-4951-92ef-9de9a9ca5278" x1="352.4" y1="87.5" x2="352.4" y2="85"/><text class="2d60b165-3373-490a-977a-9c9d006bde8e" transform="translate(22 95.74)">Presidente: Rajoy<tspan x="0" y="18">PSOE: Sánchez</tspan><tspan x="0" y="36">IU: Garzón</tspan></text><circle class="4765f318-34e0-404f-be13-f654ca1f7fab" cx="14" cy="90" r="4"/><circle class="4765f318-34e0-404f-be13-f654ca1f7fab" cx="14" cy="334" r="4"/><circle class="4765f318-34e0-404f-be13-f654ca1f7fab" cx="523" cy="334" r="4"/><circle class="e735d290-f872-4c63-860a-1fc5ef184871" cx="14" cy="109" r="4"/><circle class="ba51dc69-7c9a-4cff-a668-012630c4faf8" cx="14" cy="128" r="4"/><circle class="ba51dc69-7c9a-4cff-a668-012630c4faf8" cx="332" cy="297" r="4"/><circle class="ba51dc69-7c9a-4cff-a668-012630c4faf8" cx="14" cy="264" r="4"/><circle class="4765f318-34e0-404f-be13-f654ca1f7fab" cx="395" cy="92" r="4"/><circle class="e735d290-f872-4c63-860a-1fc5ef184871" cx="395" cy="112" r="4"/><circle class="e735d290-f872-4c63-860a-1fc5ef184871" cx="14" cy="260" r="4"/><circle class="e735d290-f872-4c63-860a-1fc5ef184871" cx="523" cy="290" r="4"/><circle class="d40bed81-e818-46cf-a14b-06284be58187" cx="395" cy="130" r="4"/><circle class="d40bed81-e818-46cf-a14b-06284be58187" cx="332" cy="280" r="4"/><circle class="d40bed81-e818-46cf-a14b-06284be58187" cx="523" cy="350" r="4"/><circle class="de719a97-9e6d-4d9b-b4cc-b994b548e25d" cx="395" cy="148" r="4"/><circle class="de719a97-9e6d-4d9b-b4cc-b994b548e25d" cx="332" cy="222" r="4"/><circle class="de719a97-9e6d-4d9b-b4cc-b994b548e25d" cx="523" cy="273" r="4"/><text class="2d60b165-3373-490a-977a-9c9d006bde8e" transform="translate(406 98.74)">Presidente: Rajoy<tspan x="0" y="18">PSOE: Sánchez</tspan><tspan x="0" y="36">Podemos: Iglesias</tspan><tspan x="0" y="54">Cs: Rivera</tspan></text></svg>