<svg id="Capa_1" data-name="Capa 1" 
	xmlns="http://www.w3.org/2000/svg" 
	xmlns:xlink="http://www.w3.org/1999/xlink" 
	viewBox="0 0 388.01 399.59"><defs>
	<style>
		@import url('https://fonts.googleapis.com/css?family=Open+Sans');
		.label {
        	font-family: OpenSans-Semibold, Open Sans;
        	font-size: 10px;
        	fill: #323232;
     	}

     	.label2 {
        	font-family: OpenSans-Semibold, Open Sans;
        	font-size: 12px;
        	fill: #ffffff;
     	}
		.indoeuropeas {
			fill:#a3d8d5;
			stroke: white;
			stroke-width: 0.5;
			stroke-opacity: 0.5;
		}
		.indoeuropeas:hover {
			opacity:0.5;
		}
		.amerindias {
			fill:#ef4a29;
			stroke: white;
			stroke-width: 0.5;
			stroke-opacity: 0.5;
		}
		.amerindias:hover {
			opacity:0.5;
		}
		.criollas {
			fill:#0e968c;
			stroke: white;
			stroke-width: 0.5;
			stroke-opacity: 0.5;
		}
		.criollas:hover {
			opacity:0.5;
		}
		.cls-1,.cls-3{fill:none;}
		.cls-1{stroke:#777;stroke-opacity:0.5;opacity:0.25;}
		.cls-1,.cls-10,.cls-3,.cls-9{stroke-width:0.5px;}
		.cls-2{opacity:0.5;}.cls-3{stroke:#757575;}.cls-4,.cls-5,.cls-6,.cls-7{font-size:11px;}
		.cls-16,.cls-4{fill:#757575;font-family:OpenSans, Open Sans;}
		.cls-5{fill:#a3d8d5;}
		.cls-15,.cls-5,.cls-6,.cls-7{font-family:OpenSans-Semibold, Open Sans;font-weight:700;}
		.cls-6{fill:#ef4a29;}
		.cls-7{fill:#0e968c;}
		.cls-8{fill:#c1c1c1;opacity:0.55;}
		.cls-9{fill:#ddd;}
		.cls-10,.cls-9{stroke:#fff;}
		.cls-10{fill:#a9a9a9;}
		.cls-14{fill:url(#Degradado_sin_nombre_4);}
		.cls-15{font-size:17px;fill:#323232;}
		.cls-16{font-size:10px;}
		.cls-17{fill:url(#Degradado_sin_nombre_24);}
	</style>
	<linearGradient id="Degradado_sin_nombre_4" x1="197.42" y1="-280.5" x2="263.42" y2="-280.5" gradientTransform="translate(-40 314)" gradientUnits="userSpaceOnUse"><stop offset="0.16" stop-color="#fff"/><stop offset="0.31" stop-color="#fff" stop-opacity="0.99"/><stop offset="0.42" stop-color="#fff" stop-opacity="0.95"/><stop offset="0.52" stop-color="#fff" stop-opacity="0.89"/><stop offset="0.61" stop-color="#fff" stop-opacity="0.8"/><stop offset="0.7" stop-color="#fff" stop-opacity="0.68"/><stop offset="0.78" stop-color="#fff" stop-opacity="0.54"/><stop offset="0.86" stop-color="#fff" stop-opacity="0.38"/><stop offset="0.94" stop-color="#fff" stop-opacity="0.19"/><stop offset="1" stop-color="#fff" stop-opacity="0"/></linearGradient><linearGradient id="Degradado_sin_nombre_24" x1="-140.58" y1="66.5" x2="-113.58" y2="66.5" gradientTransform="translate(316.5 320.5)" gradientUnits="userSpaceOnUse"><stop offset="0.16" stop-color="#fff"/><stop offset="0.23" stop-color="#fff" stop-opacity="0.96"/><stop offset="0.36" stop-color="#fff" stop-opacity="0.84"/><stop offset="0.53" stop-color="#fff" stop-opacity="0.64"/><stop offset="0.74" stop-color="#fff" stop-opacity="0.37"/><stop offset="0.98" stop-color="#fff" stop-opacity="0.03"/><stop offset="1" stop-color="#fff" stop-opacity="0"/></linearGradient></defs>
	<title>2018.10_MapAmericaSUD</title><g id="base"><path id="meridians" class="cls-1" d="M-210.12-87.32l53.07-67.5,69.15-51.29L-7.38-237.7,79-247.44m-5.93,666.2L62,398.33,52.91,339.9,47,250.51,44.94,140.95,47.54,10l7.39-119.78L66-200.15l13-47.28M368.16,253.64l33.39-79.18,11.39-85.41-25.42-127L315.14-146.44,206.81-220,79-247.44m5.93-5-5.93,5M-256.64,83.16l.14,1.7.75,2.53,1.38,2.52,2,2.51,2.65,2.49,3.28,2.47,3.89,2.44,4.51,2.41,5.11,2.38,5.7,2.33,6.29,2.29,6.86,2.24,7.42,2.19,8,2.13,8.49,2.07,9,2,9.5,1.93,10,1.86,10.43,1.78,10.87,1.7,11.29,1.61,11.68,1.53,12.06,1.44L-93,133l12.74,1.25,13,1.15,13.32,1.05,13.57,1,13.8.85,14,.74,14.17.64,14.32.53,14.44.42,14.53.31,14.6.2,14.64.09,14.64,0,14.63-.13,14.58-.24,14.5-.35,14.4-.46,14.27-.57,14.12-.67,13.93-.78,13.72-.88,13.49-1,13.23-1.09,12.94-1.19,12.63-1.28,12.29-1.38,11.93-1.47L291,128.19l11.15-1.64,10.72-1.73L323.19,123l9.81-1.88,9.33-2,8.83-2,8.31-2.09,7.78-2.15,7.23-2.2,6.67-2.26,6.09-2.3,5.5-2.35,4.91-2.39L402,99l3.69-2.45,3.06-2.48,2.44-2.5,1.8-2.52,1.17-2.53.53-2.53,0-.84M-230.27,213.57l-23.49-90.22,3.1-93.43,32.74-95.66,60.23-81.87,82.14-60.51,96.45-33.55M-110.72,360l-65.82-61-45.82-77.93-22.22-88.73,3.11-92.58,31.83-96.63,58.55-83.67,79.85-63,93.76-36.43M-41.73,396.34l-85.81-53.08-62.84-82-32.89-101.8.72-110.28,29.95-97.57,55.09-85.39,75.13-65.31,88.22-39.18M-3.89,408.41l-88.17-44.75-66.17-80.81-35.66-106.49-.57-118.48,27.16-98.43,50-87L-49.21-195l80-41.73M20.15,413.61l-81.33-38.13-61.89-78.67-33.86-108.3-1.14-122.91,23.54-99.2L-91.21-122l59.07-69.41,69.36-44m.19,651.61-68.74-33.09-52.75-76.56L-113.2,197.65l-1.27-125.51,19.21-99.85,35.35-89.59,48.21-71,56.6-45.9M51,417.64-1.23,388.21-41.52,313.4-63.89,204.34-65,77.24l14.3-100.36,26.31-90.52,35.88-72.3,42.13-47.4m8.95,651.74-33.09-27L3.87,317.83l-14.26-109-.75-128,9-100.71,16.47-91.17,22.46-73.19,26.37-48.43M83.26,418.79l8.88-25.68L99,320.24l3.84-109,.21-128.47L100.69-18.1l-4.39-91.54-6-73.69-7-49M93.68,418.49l29.75-26.72,23-73.43,12.82-109L160,81.22l-8-100.75-14.79-91.25L117-184.08,93.29-232.63M105,417.81l49.22-28.95,38-74.57,21.1-109.06,1.05-127.28L200.94-22.48l-24.73-90.65-33.73-72.48-39.6-47.6m15.3,649.73,66.24-32.4,50.89-76.24,28.12-109,1.26-125.83L246.26-26.86l-33.92-89.76-46.26-71.27-54.32-46.18m22.92,648.23L214.26,377l60.66-78.3,33.25-108.46,1.19-123.44L286.49-32.54l-42.08-88.61L187-190.84l-67.39-44.33m37.63,644.74L244.81,366l65.89-80.48,35.62-106.92L347,59.24,320.42-39.33l-49-87.23-66.77-67.82-78.41-42.13M192,399.22l87.08-51.6,64.11-82L377,162.73l-.44-112.05L347-47l-54.35-85.67L218.53-198.4l-87-39.62M253.93,369.64l71-60.14,50-79.46,24.74-92L397,41.35,365.46-55.44l-58.1-84-79.23-63.36-93-36.9M388.31-47.25,288.56-177.31,137.15-243.15m131.61,49.42L135.53-244.88M199.77-230l-67.58-16.52m29.74,4.44-34.69-6m10.64.78-17.06-2.14m-.19-.47-7.5-.68m-6.1-.74-2.62-.16m-8.95-.6-.55,0m-30.55-.06h.38m-11.72.7,2.13-.12m-15.3,1.41,6.43-.55m-22.92,2.9,15-1.79M.77-243.25l31-5.07M-34-232.9l60.55-13.91M-95.89-203.33,22.94-245.16m51.4,663.95,1.29,0,2.54,0h2.54l2.54,0h.5M-21.51,403.41l.29.09,2.54.75L-16,405l2.9.71,3.08.68,3.25.66,3.41.63,3.57.61,3.72.58,3.86.55,4,.52,4.12.49,4.24.46,4.36.43,4.46.39,4.55.36,4.64.33,4.72.29,4.79.25,4.85.22,4.9.18,4.94.14,5,.11,5,.07,5,0h5l5,0,5-.08,5-.12,4.93-.16,4.88-.19,4.83-.23,4.77-.27,4.69-.3,4.61-.34,4.52-.37,4.43-.41,4.32-.44,4.2-.47,4.08-.5,4-.53,3.81-.56,3.67-.59,3.52-.62,3.36-.64,3.19-.67,3-.69,2.84-.71,2.66-.73,1.93-.58M-80.82,378.32l1.32.68,2.56,1.19,2.85,1.17,3.14,1.14,3.43,1.12,3.71,1.09,4,1.06,4.24,1,4.5,1,4.75,1,5,.93,5.22.89,5.43.85,5.64.81,5.84.76,6,.72,6.2.67,6.37.63,6.52.58,6.66.53,6.79.48,6.9.42,7,.37,7.09.32,7.16.27,7.22.21,7.27.16,7.3.1,7.32,0h7.32l7.31-.06,7.29-.12,7.25-.17,7.2-.23,7.14-.28,7.06-.34,7-.39,6.86-.44,6.74-.49,6.61-.54,6.47-.59,6.31-.64,6.15-.69,6-.73L185,392l5.57-.82,5.36-.86,5.14-.9,4.91-.94,4.67-1,4.41-1,4.16-1,3.89-1.07,3.61-1.1,3.33-1.13,3-1.15,2.75-1.17,2.45-1.19.53-.28m-370.8-34.07,1.77,1.31,2.5,1.57,2.9,1.55,3.28,1.53,3.67,1.5,4,1.47,4.41,1.44,4.77,1.4,5.12,1.37,5.46,1.33,5.79,1.29,6.1,1.24,6.41,1.19,6.71,1.14,7,1.09,7.26,1,7.51,1,7.75.92,8,.87,8.19.8L-15,370l8.56.68,8.72.61,8.87.55,9,.48,9.11.41,9.21.34,9.28.27,9.34.2,9.38.13,9.41.06h9.41l9.4-.08,9.37-.15,9.32-.22,9.26-.29,9.17-.36,9.07-.43,9-.5,8.82-.57,8.67-.63,8.5-.7,8.32-.76,8.12-.82,7.9-.89,7.67-.94,7.43-1,7.17-1.06,6.89-1.11L236,362l6.31-1.21,6-1.26,5.68-1.3,5.34-1.34,5-1.38,4.65-1.42,4.28-1.45,3.92-1.48,3.54-1.51,3.15-1.53,2.76-1.56L289,345l1-.76m-465.24-42,.46.51,2,1.91,2.51,1.89,3,1.87,3.45,1.85,3.91,1.82,4.37,1.79,4.82,1.75,5.25,1.72,5.68,1.67,6.1,1.63,6.5,1.58,6.89,1.53,7.27,1.48,7.64,1.42,8,1.36,8.33,1.3,8.65,1.24,9,1.17,9.24,1.1,9.51,1,9.76,1,10,.88,10.2.81,10.4.73,10.57.65,10.72.57,10.86.49,11,.41,11.06.32,11.13.24,11.18.15,11.21.07H86.53l11.2-.1,11.17-.18,11.11-.27,11-.35L142,338.8l10.81-.52,10.67-.6L174,337l10.33-.76,10.13-.83,9.91-.91,9.67-1,9.42-1.06,9.14-1.13,8.85-1.19L250,328.9l8.21-1.32,7.87-1.38,7.52-1.44,7.15-1.5,6.76-1.55,6.37-1.6,6-1.65,5.54-1.69,5.11-1.73,4.67-1.77,4.22-1.8,3.76-1.83,3.29-1.86,2.82-1.88,2.35-1.9,1.76-1.79m-543.48-48.64.45.72,1.75,2.17,2.29,2.16,2.84,2.14,3.37,2.12,3.9,2.09,4.43,2.06,4.94,2,5.44,2,5.94,1.94,6.42,1.89,6.89,1.84,7.35,1.79,7.79,1.73,8.22,1.67,8.64,1.61,9,1.54,9.41,1.47,9.78,1.4,10.12,1.32,10.44,1.25,10.75,1.17,11,1.08,11.29,1,11.53.91,11.75.82,11.95.74,12.12.64,12.27.55,12.4.46,12.51.37,12.59.27,12.64.18,12.67.08,12.68,0,12.67-.11,12.63-.21,12.56-.3,12.47-.4,12.36-.49,12.23-.58,12.07-.68,11.89-.77,11.68-.85,11.45-.94,11.21-1,10.94-1.11,10.65-1.19,10.33-1.27,10-1.35,9.65-1.42,9.29-1.49,8.9-1.56,8.5-1.63,8.08-1.69,7.65-1.75,7.2-1.81,6.74-1.86,6.26-1.91,5.77-2,5.27-2,4.77-2,4.25-2.07,3.72-2.1,3.19-2.12,2.65-2.15,2.11-2.16,1.56-2.18h0m-604-53.82.18.47,1.3,2.37,1.9,2.36,2.49,2.34,3.08,2.32,3.66,2.3,4.24,2.27,4.8,2.23,5.36,2.19,5.91,2.15,6.44,2.1,7,2.05,7.48,2,8,1.94,8.46,1.88,8.92,1.81,9.37,1.74,9.8,1.67,10.21,1.6,10.61,1.52,11,1.44,11.33,1.35,11.66,1.26,12,1.18,12.25,1.08,12.51,1,12.75.9,13,.8,13.15.7,13.32.6,13.46.5,13.57.4,13.66.29,13.72.19,13.75.09,13.76,0,13.74-.12,13.7-.23,13.63-.33,13.53-.43,13.41-.53,13.27-.63,13.09-.73,12.9-.83,12.67-.93,12.43-1,12.16-1.12,11.87-1.21,11.55-1.29L267.4,240l10.86-1.46L288.73,237l10.08-1.62,9.66-1.7,9.22-1.77,8.77-1.84,8.3-1.9,7.81-2,7.31-2,6.79-2.07,6.26-2.12,5.72-2.17,5.17-2.21,4.61-2.24,4-2.28,3.46-2.3,2.88-2.33,2.29-2.35,1.7-2.36,1-2m-645.16-57.39.72,2.39,1.36,2.48,2,2.47,2.61,2.45,3.23,2.43,3.84,2.41,4.44,2.37,5,2.34,5.62,2.3,6.19,2.25,6.75,2.21,7.3,2.15,7.84,2.1,8.36,2,8.86,2,9.35,1.9,9.82,1.83,10.27,1.75,10.7,1.67,11.12,1.59,11.51,1.5,11.87,1.42,12.22,1.33,12.54,1.23L-65,192.06l13.12,1,13.36.94,13.59.84,13.79.73,14,.63,14.1.52,14.22.42,14.31.31,14.38.2,14.41.09,14.42,0,14.4-.13,14.36-.24,14.28-.34,14.18-.45L160,196l13.9-.66,13.72-.77,13.52-.87,13.28-1,13-1.07,12.74-1.17,12.44-1.26,12.11-1.36,11.75-1.45,11.38-1.53,11-1.62,10.56-1.7,10.12-1.78,9.66-1.85,9.19-1.92,8.69-2,8.18-2.06,7.66-2.11,7.12-2.17,6.56-2.22,6-2.27L388,160.9l4.83-2.35,4.23-2.39,3.63-2.42,3-2.44,2.4-2.46,1.78-2.48,1.15-2.49.4-1.53M-251.38,24l-.13,1,.11,2.5.74,2.49,1.36,2.48,2,2.47,2.61,2.45,3.23,2.43,3.84,2.41,4.44,2.37,5,2.34,5.62,2.3,6.19,2.25,6.75,2.21,7.3,2.15,7.84,2.1,8.36,2,8.86,2,9.35,1.9,9.82,1.83,10.27,1.75,10.7,1.67L-126,70.63l11.51,1.5,11.87,1.42,12.22,1.33,12.54,1.23L-65,77.24l13.12,1,13.36.94,13.59.84,13.79.73,14,.63,14.1.52,14.22.42,14.31.31,14.38.2L74.25,83l14.42,0,14.4-.13,14.36-.24,14.28-.34,14.18-.45L160,81.22l13.9-.66,13.72-.77,13.52-.87,13.28-1,13-1.07,12.74-1.17,12.44-1.26,12.11-1.36,11.75-1.45,11.38-1.53,11-1.62,10.56-1.7L319.49,65l9.66-1.85,9.19-1.92,8.69-2,8.18-2.06,7.66-2.11L370,52.9l6.56-2.22,6-2.27L388,46.09l4.83-2.35L397,41.35l3.63-2.42,3-2.44,2.4-2.46,1.78-2.48L409,29.07l.52-2.49-.11-2.5,0-.1M-235.75-33.41l-.12.34-.5,2.38.1,2.38.7,2.38,1.3,2.37,1.9,2.36,2.49,2.34,3.08,2.32,3.66,2.3L-218.9-12l4.8,2.23,5.36,2.19,5.91,2.15,6.44,2.1,7,2.05,7.48,2,8,1.94,8.46,1.88,8.92,1.81,9.37,1.74,9.8,1.67,10.21,1.6,10.61,1.52,11,1.44,11.33,1.35L-82.61,17l12,1.18,12.25,1.08,12.51,1,12.75.9,13,.8,13.15.7,13.32.6,13.46.5,13.57.4L47,24.39l13.72.19,13.75.09,13.76,0L102,24.53l13.7-.23L129.3,24l13.53-.43L156.25,23l13.27-.63,13.09-.73,12.9-.83,12.67-.93,12.43-1,12.16-1.12,11.87-1.21,11.55-1.29,11.21-1.38,10.86-1.46,10.48-1.54,10.08-1.62,9.66-1.7,9.22-1.77,8.77-1.84,8.3-1.9,7.81-2,7.31-2L356.67-4l6.26-2.12,5.72-2.17,5.17-2.21,4.61-2.24,4-2.28,3.46-2.3,2.88-2.33L391.11-22l1.7-2.36,1.1-2.37.5-2.38-.1-2.38-.52-1.91m-604-53.82-1,2.18-.46,2.19.09,2.19.65,2.19,1.2,2.19,1.75,2.17,2.29,2.16,2.84,2.14,3.37,2.12,3.9,2.09,4.43,2.06,4.94,2,5.44,2,5.94,1.94,6.42,1.89,6.89,1.84,7.35,1.79,7.79,1.73,8.22,1.67,8.64,1.61,9,1.54,9.41,1.47,9.78,1.4,10.12,1.32,10.44,1.25,10.75,1.17,11,1.08,11.29,1,11.53.91,11.75.82,11.95.74,12.12.64L12-33.19l12.4.46,12.51.37,12.59.27,12.64.18,12.67.08,12.68,0L100.17-32l12.63-.21,12.56-.3,12.47-.4,12.36-.49,12.23-.58,12.07-.68,11.89-.77,11.68-.85,11.45-.94,11.21-1,10.94-1.11,10.65-1.19,10.33-1.27,10-1.35,9.65-1.42,9.29-1.49,8.9-1.56,8.5-1.63,8.08-1.69,7.65-1.75,7.2-1.81,6.74-1.86,6.26-1.91,5.77-2,5.27-2,4.77-2L355-66.32l3.72-2.1,3.19-2.12,2.65-2.15,2.11-2.16L368.2-77l1-2.19.46-2.19-.09-2.19-.65-2.19-.74-1.47m-545-46.59-.9,1.94-.41,1.94L-178-128l.57,1.94,1.06,1.93,1.55,1.92,2,1.91,2.51,1.89,3,1.87,3.45,1.85,3.91,1.82,4.37,1.79,4.82,1.75,5.25,1.72,5.68,1.67,6.1,1.63,6.5,1.58,6.89,1.53,7.27,1.48,7.64,1.42,8,1.36,8.33,1.3,8.65,1.24,9,1.17,9.24,1.1,9.51,1,9.76,1,10,.88,10.2.81,10.4.73,10.57.65,10.72.57L19.75-86l11,.41,11.06.32,11.13.24,11.18.15,11.21.07H86.53l11.2-.1,11.17-.18L120-85.41l11-.35L142-86.2l10.81-.52,10.67-.6L174-88l10.33-.76,10.13-.83,9.91-.91,9.67-1,9.42-1.06,9.14-1.13,8.85-1.19L250-96.1l8.21-1.32,7.87-1.38,7.52-1.44,7.15-1.5,6.76-1.55,6.37-1.6,6-1.65,5.54-1.69,5.11-1.73,4.67-1.77,4.22-1.8,3.76-1.83,3.29-1.86,2.82-1.88,2.35-1.9,1.87-1.91,1.38-1.93.9-1.94.41-1.94-.08-1.94-.57-1.94-1.06-1.93-1.09-1.41m-508.61,0-.11.12-1.38,1.93m41.16-40-.75,1.62-.34,1.63.07,1.63.48,1.63.89,1.62,1.3,1.61,1.7,1.6,2.11,1.59,2.5,1.57,2.9,1.55,3.28,1.53,3.67,1.5,4,1.47,4.41,1.44,4.77,1.4,5.12,1.37,5.46,1.33,5.79,1.29,6.1,1.24,6.41,1.19,6.71,1.14,7,1.09,7.26,1,7.51,1,7.75.92,8,.87,8.19.8,8.38.74,8.56.68,8.72.61,8.87.55,9,.48,9.11.41,9.21.34,9.28.27,9.34.2,9.38.13,9.41.06h9.41l9.4-.08,9.37-.15,9.32-.22,9.26-.29,9.17-.36,9.07-.43,9-.5,8.82-.57,8.67-.63,8.5-.7,8.32-.76,8.12-.82,7.9-.89,7.67-.94,7.43-1,7.17-1.06,6.89-1.11,6.61-1.16,6.31-1.21,6-1.26,5.68-1.3,5.34-1.34,5-1.38,4.65-1.42,4.28-1.45,3.92-1.48,3.54-1.51,3.15-1.53,2.76-1.56,2.37-1.58,2-1.59,1.57-1.61,1.16-1.62.75-1.62.34-1.63-.07-1.63-.48-1.63-.89-1.62L292-176l-1.7-1.6-.34-.28m-421.9,0-1,.83-1.57,1.61-1.16,1.62m47.68-32.21-.58,1.26-.27,1.27.05,1.27.37,1.27.69,1.26,1,1.26,1.32,1.25L-83.7-196l1.95,1.22,2.25,1.21,2.56,1.19,2.85,1.17,3.14,1.14,3.43,1.12,3.71,1.09,4,1.06,4.24,1,4.5,1,4.75,1,5,.93,5.22.89,5.43.85,5.64.81,5.84.76,6,.72,6.2.67,6.37.63,6.52.58,6.66.53,6.79.48,6.9.42,7,.37,7.09.32,7.16.27,7.22.21,7.27.16,7.3.1,7.32,0h7.32l7.31-.06,7.29-.12,7.25-.17,7.2-.23,7.14-.28,7.06-.34,7-.39,6.86-.44,6.74-.49,6.61-.54,6.47-.59,6.31-.64,6.15-.69,6-.73,5.78-.78,5.57-.82,5.36-.86,5.14-.9,4.91-.94,4.67-1,4.41-1,4.16-1,3.89-1.07,3.61-1.1,3.33-1.13,3-1.15,2.75-1.17,2.45-1.19,2.15-1.21,1.84-1.23,1.53-1.24,1.22-1.25.9-1.26.58-1.26.27-1.27-.05-1.27-.37-1.27-.69-1.26-1-1.26L243.38-209l-1.64-1.24-1.95-1.22-.94-.52m-319.68,0-1.62.93-1.84,1.23-1.53,1.24L-87-207.35l-.9,1.26m52.75-23.42-.4.86-.18.87,0,.87.26.87.47.86.69.86.91.85,1.12.84,1.33.84,1.54.82,1.75.81,2,.8,2.15.78,2.35.77,2.54.75,2.72.73,2.9.71,3.08.68,3.25.66,3.41.63L.25-213l3.72.58,3.86.55,4,.52,4.12.49,4.24.46,4.36.43,4.46.39,4.55.36,4.64.33,4.72.29,4.79.25,4.85.22,4.9.18,4.94.14,5,.11,5,.07,5,0h5l5,0,5-.08,5-.12,4.93-.16,4.88-.19,4.83-.23,4.77-.27,4.69-.3,4.61-.34,4.52-.37,4.43-.41,4.32-.44,4.2-.47,4.08-.5,4-.53,3.81-.56,3.67-.59,3.52-.62,3.36-.64,3.19-.67,3-.69,2.84-.71,2.66-.73,2.47-.75,2.28-.77,2.08-.79,1.88-.8,1.68-.82,1.47-.83,1.26-.84,1-.85.83-.85.62-.86.4-.86.18-.87,0-.87-.26-.87-.47-.86-.69-.86-.91-.85-1.12-.84L189-233.2l-1.54-.82-1.75-.81-2-.8-2.15-.78-2.06-.68m-201,0-.54.17-2.28.77-2.08.79-1.88.8-1.68.82-1.47.83-1.26.84-1,.85-.83.85-.62.86M21-243.44l-.2.44-.09.44,0,.44.13.44.24.44.35.44.46.43.57.43.68.42.78.42.89.41,1,.41,1.09.4,1.19.39,1.29.38,1.38.37,1.47.36,1.56.35,1.65.34,1.73.32,1.81.31,1.89.29,2,.28,2,.27L47-234l2.15.23,2.21.22,2.26.2,2.31.18,2.36.17,2.4.15,2.43.13,2.46.11,2.49.09,2.51.07,2.52.05,2.53,0,2.54,0h2.54l2.54,0,2.53,0,2.52-.06,2.5-.08,2.48-.1,2.45-.12,2.42-.14,2.38-.15,2.34-.17,2.3-.19,2.25-.21,2.19-.22,2.13-.24,2.07-.26,2-.27,1.94-.29,1.86-.3,1.78-.31,1.7-.33,1.62-.34,1.53-.35,1.44-.36,1.35-.37,1.26-.38,1.16-.39,1.06-.4,1-.41.85-.41.75-.42.64-.43.53-.43.42-.43.31-.44.2-.44.09-.44,0-.44-.13-.44-.24-.44-.35-.44-.46-.43-.57-.43-.68-.42-.78-.42-.89-.41-1-.41-1.09-.4-1.19-.39-1.29-.38-1.38-.37-1.47-.36-1.56-.35-1.65-.34-1.73-.32-1.81-.31-1.89-.29-2-.28-2-.27-2.09-.25-2.15-.23-2.21-.22-2.26-.2-2.31-.18-2.36-.17-2.4-.15-2.43-.13-2.46-.11L90-252.32l-2.51-.07-2.52-.05-1.24,0m-9.41,0-2,0-2.52.06-2.5.08-2.48.1-2.45.12-2.42.14-2.38.15-2.34.17-2.3.19-2.25.21-2.19.22-2.13.24-2.07.26-2,.27-1.94.29-1.86.3-1.78.31-1.7.33-1.62.34-1.53.35-1.44.36-1.35.37-1.26.38-1.16.39-1.06.4-1,.41-.85.41-.75.42-.64.43-.53.43-.42.43-.31.44"/><g class="cls-2"><path id="sphere" class="cls-3" d="M79,418.81,43.93,417l-34.7-5.5-33.94-9.09-32.8-12.59-31.3-16-29.47-19.14-27.3-22.11-24.84-24.84-22.11-27.3L-211.67,251l-16-31.3-12.59-32.8-9.09-33.94-5.5-34.7-1.84-35.09,1.84-35.09,5.5-34.7,9.09-33.94,12.59-32.8,16-31.3,19.14-29.47,22.11-27.3,24.84-24.84,27.3-22.11,29.47-19.14,31.3-16,32.8-12.59,33.94-9.09,34.7-5.5L79-252.5l35.09,1.84,34.7,5.5,33.94,9.09,32.8,12.59,31.3,16,29.47,19.14,27.3,22.11,24.84,24.84,22.11,27.3,19.14,29.47,16,31.3,12.59,32.8,9.09,33.94,5.5,34.7,1.84,35.09-1.84,35.09-5.5,34.7-9.09,33.94-12.59,32.8-16,31.3-19.14,29.47-22.11,27.3L303.62,332.6l-27.3,22.11-29.47,19.14-31.3,16-32.8,12.59-33.94,9.09L114.1,417Z"/></g><text class="cls-4" transform="translate(8 308.25)">Familias lingüísticas</text><text class="cls-5" transform="translate(7.76 321.25)">INDOEUROPEAS</text><text class="cls-6" transform="translate(7.52 334)">AMERINDIAS</text><text class="cls-7" transform="translate(7.26 348)">CRIOLLAS</text><rect class="cls-8" x="280" y="311.5" width="137" height="32"/></g><g id="Extras"><path class="cls-9" d="M101.44.3l-1.2,3.46-1.56.73L96,3.83l-.89-2.47-2-1.28"/><path class="cls-9" d="M175.68,39.55l2.75.36L179.5,41l-1.2,1.54-4,.18-3.1.38-.54-2.46.69-.88Z"/><path class="cls-9" d="M389.19,39.34l-1.61-.72-.92.4-3.74,1.46-.43.89-.74.13-1,1.41-1.28-4.22,2-.71.33-1,.36-.21.47-1.66,1.13.8.89-.29.55-1.69-.76-1.45L384,33.73l-.62.26-1.12-1-.62.39-.16,1.55L379.23,36,377.3,32l-1.59-1.58.72-1.47.06-4.41-.25-3.12.24-2.13,1.17,0,.65-1.67,1.09-.57,1.38,1.22,1.66.89,2.21,3.6L386.8,26l.94,3.48,1.1,3.07"/><path class="cls-9" d="M386.67,40.24l-1.56-1.9h-1l-.8-1.4-.16-.88-.9-.93L381.9,34l1-1.41.74-.13.43-.89,3.74-1.46.37,1.95-.09.7.55,1.81-.16.9-.43.22-.33,1.21-.62.17Z"/><path class="cls-9" d="M115.51,98.87l-2-1.65-1.27-3.14,1.39-1.59-1.46-.38-1.11-1.91-2.89-1.58L105.7,89l-1.14,2-2.31,1.5L101,92.8,100.42,94l2.78,3.14-1.56.77-.83.87-2.71.32-1-3.49-.74,1-1.92-.32L93.23,94l-2.38-.37-1.51-.68-2.48,0-.16,1.27L86,93.34l.29-1.16L86.79,91l-.21-1.06.85-.7-1.21-.87,0-2.36,2.22-.53,2.09,2.08-.12,1.24,2.31.25.54-.48L94.85,90l2.83-.45,2.46-1.5,3.48-1.22,1.95-1.78,3.17.29-.2.58,3.21.15,2.58,1,1.89,1.72,2.2,1.57-.69.88,1.38,3.42-1.05,1.76L116.22,96Z"/><path class="cls-9" d="M70.18,76.56l-2-1.85-2.67-2.39-1.24-2-2.39-1.86-2.84-2.67.65-.9.93.89.44-.41,1.77-.23.73-1.32.84,0-.09-2.87,1.33-.13,1.19,0,1.24-1.56,1.67,1.2.6-.73,1-.69,2-1.61.09-1.2.55.05.74-1.4.59-.17,1,.89,1.14.26,1.24-.74h1.43l2-.76.77-.8,1.94.12-.49.56-.28,1.31.6,2.13-1.3,2-.61,2.35-.18,2.58.31,1.5L83,68.79l-.88.57-.53,2.51L82,73.42l-1.16,1.5.25,1.59.89,1L80.63,78.7l-1.7-.39L78,77.1l-1.84-.49-1.31.76-3.78-1.56Z"/><path class="cls-9" d="M9.88,3.66l-1.32,4L7.44,15.29l-.77,2.76.63,3.16,1.4,2.85.7,4.5L12.62,33l1,3.33,1.93,2.93L21.26,41l2.1,2.49L28.26,42l4.22-.47,4.16-.94,3.51-.92,3.58-2.29,1.45-3.34.62-4.82,1-1.67,3.74-1.44,5.79-1.24,4.81.26,3.32-.46,1.27,1.23-.22,2.77-3,3.39-1.38,3.5,1,1-.88,2.49-1.47,4.5-1.39-1.51-1.16.09-1.06.06-2.06,3.48-1-.7-.67.25,0,.86L47.32,46l-5.17-.09L42,49.13l-2.5,0,2,2,2,1.39.58,1.26.89.37-.2,2-7.18-.14-2.85,4.69.75,1.1-.69,1.35-.2,1.7-6.08-6.44-2.8-2-4.43-1.66L18.18,55l-4.55,2-2.81.47L7,55.85,3,54.58"/><path class="cls-9" d="M389.3,20.8l-.5.42.57,3.48L389,26l-2.16-3.26-2.21-3.6L383,18.3l-1.38-1.22-1.09.57-.65,1.67-1.17,0-.24,2.13-1-3-.18-3L376,10l-1.94-5.43-1.15-2.66"/><path class="cls-9" d="M388.84,32.6l-1.1-3.07L386.8,26l.32-1.34-.57-3.48.5-.42,1.55.91.6-1.65"/><path class="cls-9" d="M114.52,42l3.73.44,3,1.32,1,1.57-3.87.2-1.64,1-3.14-.86-3.24-2.06.63-1.34,2.29-.45Z"/><path class="cls-9" d="M61.08,65.4l-1-1.84L58.41,63l.42-2.34-.77-.64-1.16-.43-2.5.66-.19-.78-1.7-1-1.2-1.17-1.66-.52,1.21-1.46-.42-1.15.43-1.12,2.69-1.59,2.62-2.19.58.24,1.25-1,1.6-.07.52.48.88-.27,2.61.55,2.6-.13,1.83-.64.65-.65,1.8.31,1.34.4,1.48-.13,1.12-.5,2.57.81.89.13,1.73,1.08,1.63,1.3,2.06.89,1.49,1.61-1.94-.12-.77.8-2,.76H78.71l-1.24.74-1.14-.26-1-.89-.59.17L74,56.32l-.55-.05-.09,1.2-2,1.61-1,.69-.6.73-1.67-1.2-1.24,1.56-1.19,0-1.33.13.09,2.87-.84,0-.73,1.32Z"/><path class="cls-9" d="M146.09,34l.7,3.13-.25,2.24-1.26,1,1.51,1.68v1.58l-3.69-.85-2.55.49L137.21,43l-2.5,1.17-3-1.71.37-1.88,5.08.65,4.15.32,1.87-1.36-2.65-2.42-.11-2.21-3.47-.78L138,33.12l3.32.14Z"/><path class="cls-9" d="M389.32,45.37l-.69-.91L388,42l-.52-1.13-.76-.67.38-3.21.62-.17.33-1.21.43-.22.16-.9L388,32.72l.09-.7-.37-1.95.92-.4"/><path class="cls-9" d="M46.49,69.74l-2.86-1.08-3.53-.17-2.54-1.21-2.94-2.48.2-1.7.69-1.35-.75-1.1,2.85-4.69,7.18.14.2-2-.89-.37-.58-1.26-2-1.39-2-2,2.5,0,.14-3.27,5.17.09,5.14.14-.16,4.61-.61,6.56h1.68l1.8,1.09.5-.86,1.64.76L54.7,60.46,52,62.05l-.43,1.12L52,64.32l-1.21,1.46-1.33.34.29.68-1.07.63-2,1.44Z"/><path class="cls-9" d="M381.74,38.69,381.47,36l2.28-1.16.16-1.55.62-.39,1.12,1,.62-.26.43-1.26.76,1.45-.55,1.69-.89.29-1.13-.8-.47,1.66-.36.21-.33,1Z"/><path class="cls-9" d="M160,376.17l5.1-2,2.35.5,2.77-1.32,1.73,1.08-1.69,1.09-5,1.21-.8-.87-3.64,1.48Z"/><path class="cls-9" d="M59.53,72l-.66,1.36-3.3-.12-2-.59-2.33-1.2L48.07,71l-1.58-1.28.2-.86,2-1.44,1.07-.63-.29-.68,1.33-.34,1.66.52,1.2,1.17,1.7,1,.19.78,2.5-.66,1.16.43.77.64Z"/><path class="cls-9" d="M146.09,34l.59-1,4.2-.14,3.3,1.35,1.39-.2,1.13,2,2.92-.24,0,1.72,2.41.1,2.8,2L163,42l-2.66-1.15-2.44.36-1.81-.2-.89,1.1-2,.45-.94-1.37-1.73.91-1.89,4.05-1.45-.87-.39-1.65V42.05l-1.51-1.68,1.26-1,.25-2.24Z"/><path class="cls-9" d="M90.39,15.3l4.66.37,4.24,0,5.11,1.89,2.2,2.05,5-.73,2,1.32,4.72,3.45,3.49,2.52,1.79-.12,3.27,1.1-.3,1.63,4,.12,4.23,2.24-.56,1.37-3.57.84-3.65.39-3.77-.37-7.81.73L119,30.83l-2.28-1.45-3.52-.31-1.94-1.62-1.41-3.25-3.06.27L101.63,23,100,21.81,92.9,21,91,19.87l2-1.44-5.31-.26-3.86,3-2.25.08-.78,1.4-2.7.63-2.31-.55,2.86-1.77,1.17-2.07,2.45-1.27L85,16.5l4.07-.56Z"/><path class="cls-9" d="M86,93.34,82.87,92,81.7,90.82l.67-1-.23-1.29-1.6-1.4L78.27,86l-2-.75L75.9,83.5l-1.51-1.05.37,1.7-1.15,1.4-1.33-1.63-1.85-.59-.78-1.18.05-1.78.76-1.85-1.61-.83,1.33-1.12.87-.75,3.78,1.56,1.31-.76L78,77.1l1,1.21,1.7.39L82,77.45l1.46,3.18L85.7,83l2.71,2.49L86.19,86l0,2.36,1.21.87-.85.7L86.79,91l-.48,1.19Z"/><path class="cls-9" d="M52.46,46.1l0-.86.67-.25,1,.7,2.06-3.48,1.06-.06V43l1.06,0-.13,1.58-1,2.5.46.9L57,50.1l.35.56-.71,2.93-1.14,1.53-1,.17-1.16,2H51.69l.61-6.56Z"/><polygon class="cls-10" points="245.26 109.16 247.36 112.41 246.54 115 246.17 117.69 244.93 120.26 246.16 117.66 246.52 114.97 247.32 112.4 245.26 109.16"/></g>
	<g id="amerindias">
		<path id="VENEZUELA" onmouseover="displayName('VENEZUELA');displaySecondLanguage('Wayuu')" class="amerindias" d="M152,71.13l-.1,1.39-3.26.81,1.95,2.59L150.7,79l-2.37,3.49,2.3,4.57,2.42-.47,1.1-4.29-1.82-2-.46-4.42,6.86-2.66-.9-2.73,1.85-1.92,2.21,4,3.9-.08,3.76,3.09.32,1.92,5-.19,5.84-.93,3.28,2.44,4.22.47,2.92-2V75.8l6.66-.78,6.41-.52-4.42,2,2,2.64,4.3.14,4.21,2.58,1.15,4.62,2.74-.34,2.16,1.21-4,3.76-.35,2.17,1.93,2-1.27,1.2-3.24,1.19.22,2.68-1.38,1.72,3.8,4.16.77,1.59-1.89,2.37-6,2.62L201,114l-1.54,1.48-4.39-1.17-4.09-.48-1,.6,2.51,1.35-.16,3.91.83,3.61,4.65.2.31,1.2-3.89,1.9-.61,2.5-2.27,1.09-4.09,1.6-1.07,1.83-4.32.62-3.09-2.89L177,125.69l-1.52-2-2-1.18,2.78-3-.2-1.29-1.62-1.65-1.21-3.82.34-4.2,1.2-2,.91-3.21-2-.9-3.16.83-4-.12-2.25.73L160.07,99l-3.29-.6-7.27.85-1.4-2-1.43-.44-.24-1.21.62-2.19-.5-2.34-1.3-1.24-.8-2.67-3-.3L143,83.42l.55-4.19L145.08,77l2.1-1.76,1.31-3Z"/>
		<path id="PERÚ" onmouseover="displayName('PERÚ');displaySecondLanguage('Quechua')" class="amerindias" d="M159.58,236.6l-1.67,2.72L155,240.77l-5.2-2.75-.31-2.11L139,231l-9.66-5.48-4.17-3.16L123,218l1-1.57-4.59-7-5.39-10-5.24-10.92-2.34-2.5L104.64,182l-4.48-3.61L96,176.18l1.9-2.53-2.78-5.37,1.82-4,4.66-3.65.68,2.37-1.66,1.37.16,2.08,2.39-.47,2.37.58L108,169.4l3.3-2.38,1.14-3.86,3.59-5,7-2.4,6.35-6.15,1.8-3.78-.79-4.36,1.54-.58,3.83,2.61,1.84,2.66,2.67,1.4,3.34,5.89,4.27.57,3.17-1.63,2.07.91,3.41-.63,4.33,2.5-3.74,6,1.7.07,2.78,2.9-5.12,0-.77.88L151,166.18l-6.61,4.09-.46,2.65-1.5,2,.51,3-3.49,1.73-.06,2.36-1.53,1.08,2.23,4.94,3.07,3.28-1.28,2.41,3.74.19,2,2.86,5,0,4.75-3.44-.74,8.38,2.5.52,3.2-1.08,4.29,8.54-1.31,1.89-.51,3.8-.44,4.57L162,222.71l.82,1.92-1.37,1.84,2,4.32Z"/>
		<path id="PARAGUAY" onmouseover="displayName('PARAGUAY'');displaySecondLanguage('Guaraní')" class="amerindias" d="M192.82,258.35l3-6.14.55-2.73,3.11-4.66,9.06-2.14,4.66-.3,4.21,2.24-.2,1.56,1,2.7-1.6,6.87,4.92.52,2.18-1.16,2.94,1.06.57,1.41-.56,4.49.12,1.84,1.68.06,1.94-1,1.46.73-.66,2.7-1.35,2.93-1.61,2.87-1.87,4.3-5.13,4-3.84,1.09-5-.26-4.4-.88,6.37-7.64-.19-2.07-4.5-1.48-5.16-3.13-3.86-.44Z"/>
		<path id="Ecuador" onmouseover="displayName('ECUADOR');displaySecondLanguage('Quechua')" class="amerindias" d="M101.63,160.64l3.13-4.3-1.25-2.48-2.24,2.68-3.48-2.47L99,152.44l-1-5.19,2-.89,1.1-3.6,2.21-3.74-.42-2.35,3.22-1.28,4-2.37,5.84,3.2,1.09-.11,1.43,2.46,4.92.7,1.65-1,2.86,1.84,2.48,1.3.79,4.36-1.8,3.78L123,155.73l-7,2.4-3.59,5L111.28,167,108,169.4l-2.41-2.83L103.2,166l-2.39.47-.16-2.08,1.66-1.37Z"/>
		<path id="BOLIVIA" onmouseover="displayName('BOLIVIA');displaySecondLanguage('Quechua')" class="amerindias" d="M169.88,262.14l-3.81.87-1.2-6.76-2.21-5.52,2.2-5-2.59-2-.36-3.69-2.32-3.4,3.89-5.81-2-4.32,1.37-1.84-.82-1.92,2.32-2.77.44-4.57.51-3.8,1.31-1.89-4.29-8.54,4.1.27,2.86-.25,1.33-1.72,5-2.48,3-2.22,7.22-1.35-.82,4.17.53,2.07-.7,3.69,5.52,4.52,5.93.51,1.91,1.89,3.49.82,2,1.41,3.31-.3,2.87,1.37-.11,3.09.85,1.48-.21,2.3-1.52.21,1.24,6,9.75-.58-1.17,3.11.25,2,2.51,1.24.69,3.14-1.53,4.15-1.75,2.38,0,2.88-1.73,1.19.2-1.56-4.21-2.24-4.66.3-9.06,2.14-3.11,4.66-.55,2.73-3,6.14-.65-1-5.74.17-2.61,4.13-2.46-3.41-6.58-.83Z"/></g>
		<g id="indoeuropeos">
			<path id="URUGUAY" onmouseover="displayName('URUGUAY');displaySecondLanguage('Portugués')" class="indoeuropeas" d="M208.66,294.44l3.07-.74,3.42,3.09,1.68-.29,3.57,2.44,2.53,2.12,1.36,2.75-2.63,2.26.23,2.33L219,311.27l-5.63,2.83-2.78-.55-2.47.67-3.28-1.46-3,.39L200,311l1.24-2.81,1.28-1,1.33-4.35,2.58-4.67Z"/>
			<path id="SURINAM" onmouseover="displayName('SURINAM');displaySecondLanguage('Inglés')" class="indoeuropeas" d="M230.71,100.22l6.25.6.5-1.1,4.12-.81,5.51,1-2.39,5.27.56,3.94,2.11,3.25-.82,2.59-.37,2.7-1.24,2.57-2.95-.94-2.41.82-2.09-.32-.49,1.73.87,1.07-.45,1.23-2.82-.22-3.26-4.76-.77-3.22-1.67.14-2.44-4,.86-3.08-.33-1.35,3.12-1.79Z"/>
			<g id="CHILE"><polygon class="indoeuropeas" points="133.59 379.88 130.77 385.74 134.23 385.56 136.14 385.53 134.51 386.6 131.36 387.5 129.83 387.5 128.04 387.4 126.06 386.75 122.82 386.54 119.25 385.29 116.33 384.03 112.52 381.22 115.22 381.7 119.43 383.3 123.55 384.06 125.78 382.8 127.64 380.93 131.29 379.67 133.59 379.88"/><polygon id="trazado" class="indoeuropeas" points="169.88 262.14 170.34 263.35 167.85 268.53 161.95 271.21 160.98 279.2 159.69 280.78 160.92 282.56 156.93 285.64 153 290.14 150.57 294.37 150.36 298.73 146.61 303.43 147.53 310.85 148.62 311.58 147.86 315.5 144.39 319.69 143.83 323.13 139.84 325.93 139.12 329.61 139.67 333.4 136.71 334.91 134.79 338.37 132.94 342.26 132.65 346.71 130.77 347.51 130.79 351.58 132.34 352.83 130.6 354.34 132.32 354.95 132.42 356.22 130.47 356.93 130.37 358.88 127.72 363.28 124.89 366.07 124.9 367.64 123.13 369.63 119.87 371.06 119.3 374.19 120.27 375.2 122.75 374.93 121.97 377.06 122.88 378.64 131.21 378.66 134.23 378.94 131.16 379.07 129.21 379.81 125.7 380.93 124.14 383.42 122.69 383.54 119.19 382.83 115.87 381.11 111.96 379.69 111.3 377.97 112.75 376.29 111.37 374.42 112.03 369.35 114.32 366.32 119 363.75 113.19 362.98 117.59 359.99 120.13 354.34 124.46 355.4 128.26 348.06 125.61 347.2 123.37 351.69 120.83 351.27 123.14 346.12 125.9 339.2 128.41 336.52 127.79 332.78 128.17 328.34 130.12 328.15 134.05 321.5 138.42 314.69 141.49 308.22 141.37 301.68 143.38 297.94 143.56 292.36 147.27 286.61 149.36 277.46 152.21 267.35 155.06 256.21 155.5 247.95 155.02 240.77 157.92 239.33 159.59 236.6 161.91 240.01 162.27 243.7 164.86 245.74 162.66 250.74 164.87 256.26 166.06 263.02 169.88 262.14"/></g>
			<path id="BRASIL" onmouseover="displayName('BRASIL');displaySecondLanguage('Español')" class="indoeuropeas" d="M208.66,294.44l7.84-6.78,6.41-5,3.57-2.2,4.54-3,1.16-3.82-1.54-2.54-2.52,1.15,1.61-2.87,1.35-2.93.66-2.7-1.46-.73-1.94,1-1.68-.06-.12-1.84.56-4.49-.57-1.41-2.94-1.06-2.18,1.16-4.92-.52,1.6-6.87-1-2.7,1.73-1.19,0-2.88,1.75-2.38,1.53-4.15-.69-3.14L219,231.21l-.25-2,1.17-3.11-9.75.58-1.24-6,1.52-.21.21-2.3-.85-1.48.11-3.09L207,212.18l-3.31.3-2-1.41-3.49-.82-1.91-1.89-5.93-.51-5.52-4.52.7-3.69-.53-2.07.82-4.17-7.22,1.35-3,2.22-5,2.48-1.33,1.72-2.86.25-4.1-.27-3.2,1.08-2.5-.52.74-8.38-4.75,3.44-5,0-2-2.86-3.74-.19,1.28-2.41-3.07-3.28-2.23-4.94,1.53-1.08.06-2.36L143,178l-.51-3,1.5-2,.46-2.65,6.61-4.09,4.67-1.28.77-.88,5.12,0,2.75-15.77.14-2.5-.86-3.26-2.51-2,0-4.19,3.18-1.1,1.14.55.18-2.23-3.31-.45-.1-3.62,11-.39L175,127l1.57,1.75,1.13,3.36,1-.77,3.09,2.89,4.32-.62,1.07-1.83,4.09-1.6,2.27-1.09.61-2.5,3.89-1.9-.31-1.2-4.65-.2-.83-3.61.16-3.91L190,114.44l1-.6,4.09.48,4.39,1.17L201,114l3.88-1.17,6-2.62,1.89-2.37-.77-1.59,2.78-.48L216,107l-.6,2.61,1.87.74L218.6,113l-1.42,2.17-.73,5,1.42,2.83.42,2.66,3.3,2.45,2.61.07.56-1.17,1.67-.39,2.37-1.22,1.67-1.69,2.9.23,1.25-.31,2.82.22.45-1.23-.87-1.07.49-1.73,2.09.32,2.41-.82,2.95.94,2.23,1,1.53-1.73,1.13.13.72,1.56,2.4-.66,1.88-2.41,1.41-4.44,2.74-5.64,1.67-.46,1.34,3.07,3,9.85,2.62.65.18,4-3.61,5.18,1.51,1.57,8.51-.12.13,5.76L278,133.3l5.86,1.3,7.58,2.46,2.13,3.06-.82,3.28,5.25-2.53,8.39,1.72,6.35-1.27,5.93,3.68,4.8,5.45,2.94,1.07,3.31-.41,1.27,1.52.69,7,.3,3.29-2.54,9.6-2.41,4-6.53,8.77L317,192l-3.74,5.28-1,.28-1.84,4.21-1.7,10.06-2.91,8.41-1.25,3.55-1.76,2.3-2.48,7.09-5.86,7.41-2.19,5.38-3.88,2.72-1.85,3.16-4.38.66-7,2.88L271.55,258,266.42,260l-6.17,4.57-5.08,5.28-1.76,3.67-.15,2.55L250.88,281l-1.74,2.4-3.84,2.91-7.55,8.58-5,4-3.63,2.39-3.5,4.38-3.71,2.76-.23-2.33,2.63-2.26L222.93,301l-2.53-2.12-3.57-2.44-1.68.29-3.42-3.09Z"/>
			<g id="ARGENTINA" onmouseover="displayName('ARGENTINA');displaySecondLanguage('Inglés')"><polygon class="indoeuropeas" points="192.82 258.35 200.56 265.77 204.41 266.21 209.58 269.33 214.08 270.81 214.27 272.88 207.89 280.52 212.29 281.4 217.3 281.66 221.13 280.57 226.26 276.55 228.13 272.24 230.65 271.1 232.18 273.64 231.02 277.46 226.48 280.46 222.91 282.66 216.5 287.66 208.66 294.44 206.46 298.14 203.88 302.81 202.55 307.16 201.27 308.2 200.03 311.01 198.98 313.26 203.19 316.4 201.54 319.32 203.48 320.89 202.48 322.91 196.43 328.42 189.45 331.05 180.77 332.5 176.28 332.44 176.36 334.69 174.45 337.62 174.49 339.48 171.52 340.96 167.11 341.76 163.6 340.65 161.64 341.73 160.96 345.35 163.33 346.27 165.98 344.98 166.46 346.79 162.33 348.14 158.27 350.55 156.35 354.09 154.7 355.98 150.99 356.19 147.27 358.09 145.24 360.63 148.1 362.82 151.46 363.26 148.94 366.18 143.81 368.18 139.95 371.85 136.16 373.18 134.14 374.61 134.03 377.52 135.61 379.01 134.23 378.94 131.21 378.66 122.88 378.64 121.97 377.06 122.75 374.93 120.27 375.2 119.3 374.19 119.87 371.06 123.13 369.63 124.9 367.64 124.89 366.07 127.72 363.28 130.37 358.88 130.47 356.93 132.42 356.22 132.32 354.95 130.6 354.34 132.34 352.83 130.79 351.58 130.77 347.51 132.65 346.71 132.94 342.26 134.79 338.37 136.71 334.91 139.67 333.4 139.12 329.61 139.84 325.93 143.83 323.13 144.39 319.69 147.86 315.5 148.62 311.58 147.53 310.85 146.61 303.43 150.36 298.73 150.57 294.37 153 290.14 156.93 285.64 160.92 282.56 159.69 280.78 160.98 279.2 161.95 271.21 167.85 268.53 170.34 263.35 169.88 262.14 174.78 257.41 181.36 258.24 183.81 261.65 186.43 257.51 192.17 257.34 192.82 258.35"/><polygon class="indoeuropeas" points="136.14 385.53 134.23 385.56 130.77 385.74 133.59 379.88 134.31 381.07 135 382.97 138.43 384.3 142.56 384.68 140.35 386.03 137.26 386.33 136.14 385.53"/></g></g>
		<g id="Criollo">
			<path id="TRINIDAD_Y_TOBAGO" onmouseover="displayName('TRINIDAD Y TOBAGO');displaySecondLanguage('Inglés')" data-name="TRINIDAD Y TOBAGO" class="criollas" d="M205.17,74.16l3-1,1.12.12.1,4.38-4.4,1-1-.46,1.45-1.71Z"/>
			<path id="GUYANA" onmouseover="displayName('GUYANA');displaySecondLanguage('Criollo Guyanés')" class="criollas" d="M216.28,87.38l3.6,1.87,3.45,3.54.31,3,2,0,2.94,2.61,2.14,1.86-.59,5.32L227,107.33l.33,1.35-.86,3.08,2.44,4,1.67-.14.77,3.22,3.26,4.76-1.25.31-2.9-.23-1.67,1.69-2.37,1.22-1.67.39-.56,1.17-2.61-.07-3.3-2.45-.42-2.66-1.42-2.83.73-5L218.6,113l-1.29-2.61-1.87-.74L216,107l-1.28-1.25-2.78.48-3.8-4.16,1.38-1.72-.22-2.68,3.24-1.19,1.27-1.2-1.93-2,.35-2.17Z"/>
			<polygon id="GUAYANA_FRANCESA" data-name="GUAYANA FRANCESA" onmouseover="displayName('GUAYANA FRANCESA');displaySecondLanguage('Criollo Francés')" class="criollas" points="244.93 120.26 246.16 117.66 246.52 114.97 247.32 112.4 245.26 109.16 244.7 105.22 247.08 99.95 248.84 100.41 252.58 101.41 258.05 105.76 258.97 108.05 256.23 113.69 254.82 118.13 252.94 120.54 250.55 121.2 249.83 119.64 248.7 119.51 247.16 121.24 244.93 120.26"/><path id="COLOMBIA" class="criollas" d="M130.38,141.44l-2.48-1.3L125,138.3l-1.65,1-4.92-.7L117,136.1l-1.09.11-5.84-3.2-.78-1.78,2.16-.48-.26-2.9,1.35-2.13,2.89-.44,2.43-3.7,2.19-3.1-2.14-1.34,1.06-3.41-1.35-5.3,1.21-1.57-1-4.92-2.37-3.06.71-2.86,1.85.38,1.05-1.76-1.38-3.42.69-.88,3,.13,4.23-4.19,2.33-.69V83.65l.92-5,3.17-2.8,3.57-.22.41-1.23,4.45.35,4.31-3.11,2.15-1.38,2.57-2.92,2,.29L153,69.12l-1,2-3.55,1.11-1.31,3L145.08,77l-1.57,2.24L143,83.42,141.5,86.9l3,.3.8,2.67,1.3,1.24.5,2.34-.62,2.19.24,1.21,1.43.44,1.4,2,7.27-.85,3.29.6,4.12,4.86,2.25-.73,4,.12,3.16-.83,2,.9-.91,3.21-1.2,2-.34,4.2,1.21,3.82,1.62,1.65.2,1.29-2.78,3,2,1.18,1.52,2,1.76,5.69-1,.77-1.13-3.36L175,127l-1.84,2.09-11,.39.1,3.62,3.31.45-.18,2.23-1.14-.55-3.18,1.1,0,4.19,2.51,2,.86,3.26-.14,2.5-2.75,15.77-2.78-2.9-1.7-.07,3.74-6-4.33-2.5-3.41.63-2.07-.91L147.87,154l-4.27-.57-3.34-5.89-2.67-1.4-1.84-2.66-3.83-2.61Z"/></g>
			<g id="Capa_9" data-name="Capa 9"><rect id="Degradado" class="cls-14" x="157.42" y="-174.5" width="66" height="416" transform="translate(223.92 -156.92) rotate(90)"/><text class="cls-15" transform="translate(51.2 22.5)">El segundo idoma más hablado en <tspan x="77.69" y="20.4">América del Sur</tspan></text><text class="cls-16" transform="translate(24.83 55.1)">Haz clic en cada país para saber cuál es la segunda lengua más hablada</text><rect id="Degradado-2" data-name="Degradado" class="cls-17" x="175.92" y="197" width="27" height="380" transform="translate(-197.58 576.42) rotate(-90)"/><text class="cls-4" transform="translate(3.88 395.25)">Fuente: Ethnologue y CIA Factbook</text><text class="cls-4" transform="translate(313.66 395.25)">LA VANGUARDIA</text></g>
 	<text class="label" id="country-name" x="290" y="323"> </text> 
 	<text class="label2" id="SecondLanguage" x="290" y="337"> </text>

 	<script type="text/javascript"><![CDATA[  
    function colourCountry(country_name, colour) {
        var country = document.getElementById(country-name);
        country.setAttributeNS(null, 'fill', colour);
    }
  
    function displayName(name) {
        document.getElementById('country-name').firstChild.data = name;
    }

    function displaySecondLanguage(language2) {
        document.getElementById('SecondLanguage').firstChild.data = language2;
    }
]]></script>
		</svg>