<svg id="425fcf0b-9e1e-474a-adbe-d766c74da636" data-name="Capa 1" xmlns="http://www.w3.org/2000/svg" viewBox="0 0 455 502"><defs><style>.\35 d631e77-d34f-4c52-b08b-a9807ac28a5a,.c3e11c90-f334-471c-a1ed-3cf96c1eaa9c{fill:none;}.\35 d631e77-d34f-4c52-b08b-a9807ac28a5a{stroke:#e2e2e2;}.acd86ffd-f3f2-4d0b-a1b2-08ec815a6322{fill:#a01f51;}.acd86ffd-f3f2-4d0b-a1b2-08ec815a6322,.eb95e82a-8103-4716-94fe-748a6b4afaf8,.ed3fa61d-b9f0-4702-8ebe-68e0ce4b279f{fill-opacity:0.9;stroke:#fff;opacity:0.71;}.acd86ffd-f3f2-4d0b-a1b2-08ec815a6322,.c3e11c90-f334-471c-a1ed-3cf96c1eaa9c,.eb95e82a-8103-4716-94fe-748a6b4afaf8,.ed3fa61d-b9f0-4702-8ebe-68e0ce4b279f{stroke-miterlimit:10;}.\38 f654d49-ec46-4705-95f5-e0619a182eee,.b73d1a5c-0bb5-40a2-bce2-ed6c499e2c01{font-size:14px;}.b73d1a5c-0bb5-40a2-bce2-ed6c499e2c01{fill:#fff;}.\34 409e82b-2a4a-49b4-96b8-b0669ecb03b4,.\37 8e10cf6-af0b-4476-99b4-7a1dcd3d57c4,.\38 f654d49-ec46-4705-95f5-e0619a182eee,.b73d1a5c-0bb5-40a2-bce2-ed6c499e2c01{font-family:ArialMT, Arial;}.ed3fa61d-b9f0-4702-8ebe-68e0ce4b279f{fill:#3f4d78;}.eb95e82a-8103-4716-94fe-748a6b4afaf8{fill:#159094;}.\37 8e10cf6-af0b-4476-99b4-7a1dcd3d57c4{font-size:10px;}.\37 8e10cf6-af0b-4476-99b4-7a1dcd3d57c4,.\38 f654d49-ec46-4705-95f5-e0619a182eee{fill:#757575;}.\39 4834878-fbbd-48ea-94d0-e42003a5bb64{letter-spacing:-0.06em;}.d1360b2c-691a-4d03-bdb8-e53c1c6520dc{letter-spacing:-0.07em;}.\34 409e82b-2a4a-49b4-96b8-b0669ecb03b4{font-size:12px;}.\34 409e82b-2a4a-49b4-96b8-b0669ecb03b4,.\34 cba11e4-babf-41ae-ba4c-2ab845bbc0ac{fill:#323232;}.\34 cba11e4-babf-41ae-ba4c-2ab845bbc0ac{font-size:16px;font-family:Arial-BoldMT, Arial;font-weight:700;}.c3e11c90-f334-471c-a1ed-3cf96c1eaa9c{stroke:#757575;}</style></defs><title>2018.04_Euroescepticismo</title><line class="5d631e77-d34f-4c52-b08b-a9807ac28a5a" x1="4.84" y1="453.25" x2="4.84" y2="57"/><line class="5d631e77-d34f-4c52-b08b-a9807ac28a5a" x1="36.67" y1="453.25" x2="36.67" y2="57"/><line class="5d631e77-d34f-4c52-b08b-a9807ac28a5a" x1="68.51" y1="453.25" x2="68.51" y2="57"/><line class="5d631e77-d34f-4c52-b08b-a9807ac28a5a" x1="100.34" y1="453.25" x2="100.34" y2="57"/><line class="5d631e77-d34f-4c52-b08b-a9807ac28a5a" x1="132.17" y1="453.25" x2="132.17" y2="57"/><line class="5d631e77-d34f-4c52-b08b-a9807ac28a5a" x1="164" y1="453.25" x2="164" y2="57"/><line class="5d631e77-d34f-4c52-b08b-a9807ac28a5a" x1="195.83" y1="453.25" x2="195.83" y2="57"/><line class="5d631e77-d34f-4c52-b08b-a9807ac28a5a" x1="227.66" y1="453.25" x2="227.66" y2="57"/><line class="5d631e77-d34f-4c52-b08b-a9807ac28a5a" x1="259.49" y1="453.25" x2="259.49" y2="57"/><line class="5d631e77-d34f-4c52-b08b-a9807ac28a5a" x1="291.32" y1="453.25" x2="291.32" y2="57"/><line class="5d631e77-d34f-4c52-b08b-a9807ac28a5a" x1="323.15" y1="453.25" x2="323.15" y2="57"/><line class="5d631e77-d34f-4c52-b08b-a9807ac28a5a" x1="354.98" y1="453.25" x2="354.98" y2="57"/><line class="5d631e77-d34f-4c52-b08b-a9807ac28a5a" x1="386.82" y1="453.25" x2="386.82" y2="57"/><line class="5d631e77-d34f-4c52-b08b-a9807ac28a5a" x1="418.65" y1="453.25" x2="418.65" y2="57"/><path class="5d631e77-d34f-4c52-b08b-a9807ac28a5a" d="M418.65,453.25V57"/><path class="5d631e77-d34f-4c52-b08b-a9807ac28a5a" d="M4.84,57V453.25"/><path class="acd86ffd-f3f2-4d0b-a1b2-08ec815a6322" d="M4.84,418.19c15.92,0,15.92,4.59,31.83,4.59s15.92,2.68,31.83,2.68,15.92-32.38,31.83-32.38,15.92,24.62,31.83,24.62,15.92-.38,31.83-.38,15.92-2.08,31.83-2.08,15.92.59,31.83.59,15.92-54.91,31.83-54.91,15.92-.65,31.83-.65,15.92-18.94,31.83-18.94S339.07,340,355,340s15.92-7.43,31.83-7.43,15.92-22.1,31.83-22.1V417.9c-15.92,0-15.92-1.56-31.83-1.56S370.9,414.4,355,414.4s-15.92,1.33-31.83,1.33-15.92-11.13-31.83-11.13-15.92.14-31.83.14-15.92,41.56-31.83,41.56-15.92-1.65-31.83-1.65S179.91,447.4,164,447.4s-15.92-.33-31.83-.33-15.92-24.71-31.83-24.71-15.92,30.89-31.83,30.89-15.92-6.41-31.83-6.41S20.76,440.6,4.84,440.6Z"/><text class="b73d1a5c-0bb5-40a2-bce2-ed6c499e2c01" transform="translate(322.18 358.7) rotate(-3.96)">E</text><text class="b73d1a5c-0bb5-40a2-bce2-ed6c499e2c01" transform="translate(331.52 358.35) rotate(-1.97)">u</text><text class="b73d1a5c-0bb5-40a2-bce2-ed6c499e2c01" transform="matrix(1, -0.08, 0.08, 1, 339.55, 358.03)">r</text><text class="b73d1a5c-0bb5-40a2-bce2-ed6c499e2c01" transform="translate(344.14 357.63) rotate(-3.79)">o</text><text class="b73d1a5c-0bb5-40a2-bce2-ed6c499e2c01" transform="translate(351.82 357.13) rotate(-1.02)">e</text><text class="b73d1a5c-0bb5-40a2-bce2-ed6c499e2c01" transform="matrix(1, -0.08, 0.08, 1, 360.03, 357.17)">s</text><text class="b73d1a5c-0bb5-40a2-bce2-ed6c499e2c01" transform="translate(368.75 356.25) rotate(-20.8)">c</text><text class="b73d1a5c-0bb5-40a2-bce2-ed6c499e2c01" transform="translate(375.46 353.35) rotate(-21.98)">é</text><text class="b73d1a5c-0bb5-40a2-bce2-ed6c499e2c01" transform="translate(382.18 350.55) rotate(-8.33)">p</text><text class="b73d1a5c-0bb5-40a2-bce2-ed6c499e2c01" transform="translate(389.62 349.62) rotate(-0.54)">t</text><text class="b73d1a5c-0bb5-40a2-bce2-ed6c499e2c01" transform="translate(395.65 349.21) rotate(-21.24)">i</text><text class="b73d1a5c-0bb5-40a2-bce2-ed6c499e2c01" transform="matrix(0.67, -0.74, 0.74, 0.67, 401.11, 346.61)">c</text><text class="b73d1a5c-0bb5-40a2-bce2-ed6c499e2c01" transform="matrix(0.59, -0.81, 0.81, 0.59, 406.12, 340.76)">o</text><text class="b73d1a5c-0bb5-40a2-bce2-ed6c499e2c01" transform="translate(410.36 334.67) rotate(-44.9)">s</text><path class="ed3fa61d-b9f0-4702-8ebe-68e0ce4b279f" d="M4.84,69.25C20.76,69.25,20.76,63,36.67,63S52.59,56.6,68.51,56.6,84.42,59,100.34,59s15.92,3.81,31.83,3.81,15.92-.33,31.83-.33,15.92,2.75,31.83,2.75,15.92-1.65,31.83-1.65,15.92,8.32,31.83,8.32,15.92-.18,31.83-.18,15.92-1.5,31.83-1.5,15.92,1.34,31.83,1.34,15.92-4.86,31.83-4.86,15.92-1.56,31.83-1.56v246c-15.92,0-15.92,22.1-31.83,22.1s-15.92,7.43-31.83,7.43-15.92,1.3-31.83,1.3-15.92,18.94-31.83,18.94-15.92.65-31.83.65S243.58,381,227.66,381s-15.92,2.34-31.83,2.34-15.92,2.4-31.83,2.4-15.92,2.36-31.83,2.36-15.92,5.62-31.83,5.62-15.92,4-31.83,4-15.92-2.27-31.83-2.27-15.92-6.43-31.83-6.43Z"/><text class="b73d1a5c-0bb5-40a2-bce2-ed6c499e2c01" transform="matrix(1, -0.05, 0.05, 1, 316.11, 86.51)"> </text><text class="b73d1a5c-0bb5-40a2-bce2-ed6c499e2c01" transform="matrix(1, -0.03, 0.03, 1, 319.92, 86.31)"> </text><text class="b73d1a5c-0bb5-40a2-bce2-ed6c499e2c01" transform="translate(323.76 86.21) rotate(-0.35)"> </text><text class="b73d1a5c-0bb5-40a2-bce2-ed6c499e2c01" transform="translate(327.6 86.19) rotate(0.54)"> </text><text class="b73d1a5c-0bb5-40a2-bce2-ed6c499e2c01" transform="translate(331.45 86.22) rotate(1.67)"> </text><text class="b73d1a5c-0bb5-40a2-bce2-ed6c499e2c01" transform="translate(335.29 86.33) rotate(3.15)"> </text><text class="b73d1a5c-0bb5-40a2-bce2-ed6c499e2c01" transform="matrix(1, 0.08, -0.08, 1, 339.09, 86.54)">E</text><text class="b73d1a5c-0bb5-40a2-bce2-ed6c499e2c01" transform="translate(348.71 87.33) rotate(1.72)">u</text><text class="b73d1a5c-0bb5-40a2-bce2-ed6c499e2c01" transform="matrix(1, -0.01, 0.01, 1, 356.65, 87.55)">r</text><text class="b73d1a5c-0bb5-40a2-bce2-ed6c499e2c01" transform="matrix(0.99, -0.12, 0.12, 0.99, 362.04, 87.63)">o</text><text class="b73d1a5c-0bb5-40a2-bce2-ed6c499e2c01" transform="translate(370.78 86.35) rotate(-16.74)">p</text><text class="b73d1a5c-0bb5-40a2-bce2-ed6c499e2c01" transform="translate(377.94 84.02) rotate(-9.81)">e</text><text class="b73d1a5c-0bb5-40a2-bce2-ed6c499e2c01" transform="translate(385.34 82.87) rotate(-3.02)">í</text><text class="b73d1a5c-0bb5-40a2-bce2-ed6c499e2c01" transform="translate(389.11 82.7) rotate(-0.46)">s</text><text class="b73d1a5c-0bb5-40a2-bce2-ed6c499e2c01" transform="translate(396.32 82.62) rotate(-2.45)">t</text><text class="b73d1a5c-0bb5-40a2-bce2-ed6c499e2c01" transform="translate(400.49 82.47) rotate(-5.13)">a</text><text class="b73d1a5c-0bb5-40a2-bce2-ed6c499e2c01" transform="translate(408.19 81.71) rotate(-4.08)">s</text><path class="eb95e82a-8103-4716-94fe-748a6b4afaf8" d="M4.84,388.34c15.92,0,15.92,6.43,31.83,6.43S52.59,397,68.51,397s15.92,25.32,31.83,25.32,15.92-34.9,31.83-34.9,15.92-2.36,31.83-2.36,15.92-2.4,31.83-2.4,15.92-2.34,31.83-2.34,15.92,24.38,31.83,24.38,15.92-.14,31.83-.14,15.92,11.13,31.83,11.13,15.92-1.33,31.83-1.33,15.92,1.94,31.83,1.94,15.92,1.56,31.83,1.56v26.84c-15.92,0-15.92-1.56-31.83-1.56s-15.92-4.86-31.83-4.86-15.92,1.34-31.83,1.34-15.92-1.5-31.83-1.5-15.92-.18-31.83-.18-15.92-22.15-31.83-22.15-15.92-.59-31.83-.59-15.92,2.08-31.83,2.08-15.92.38-31.83.38-15.92,33.18-31.83,33.18-15.92-25.42-31.83-25.42-15.92-2.68-31.83-2.68-15.92-4.59-31.83-4.59Z"/><text class="b73d1a5c-0bb5-40a2-bce2-ed6c499e2c01" transform="matrix(1, -0.02, 0.02, 1, 326.09, 430.72)"> </text><text class="b73d1a5c-0bb5-40a2-bce2-ed6c499e2c01" transform="matrix(1, -0.05, 0.05, 1, 330.13, 430.63)"> </text><text class="b73d1a5c-0bb5-40a2-bce2-ed6c499e2c01" transform="translate(334.18 430.44) rotate(-4.2)"> </text><text class="b73d1a5c-0bb5-40a2-bce2-ed6c499e2c01" transform="translate(338.03 430.09) rotate(-3.84)">R</text><text class="b73d1a5c-0bb5-40a2-bce2-ed6c499e2c01" transform="translate(348 429.46) rotate(-0.71)">e</text><text class="b73d1a5c-0bb5-40a2-bce2-ed6c499e2c01" transform="matrix(1, 0.02, -0.02, 1, 355.72, 429.39)">f</text><text class="b73d1a5c-0bb5-40a2-bce2-ed6c499e2c01" transform="matrix(1, 0.06, -0.06, 1, 359.5, 429.39)">o</text><text class="b73d1a5c-0bb5-40a2-bce2-ed6c499e2c01" transform="translate(367.13 429.92) rotate(6.65)">r</text><text class="b73d1a5c-0bb5-40a2-bce2-ed6c499e2c01" transform="translate(372.02 430.67) rotate(3.91)">m</text><text class="b73d1a5c-0bb5-40a2-bce2-ed6c499e2c01" transform="translate(384.03 431.32) rotate(0.38)">i</text><text class="b73d1a5c-0bb5-40a2-bce2-ed6c499e2c01" transform="translate(387.13 431.31) rotate(1.06)">s</text><text class="b73d1a5c-0bb5-40a2-bce2-ed6c499e2c01" transform="translate(394.03 431.45) rotate(3.24)">t</text><text class="b73d1a5c-0bb5-40a2-bce2-ed6c499e2c01" transform="translate(397.83 431.65) rotate(5.42)">a</text><text class="b73d1a5c-0bb5-40a2-bce2-ed6c499e2c01" transform="translate(405.76 432.45) rotate(3.33)">s</text><text class="78e10cf6-af0b-4476-99b4-7a1dcd3d57c4" transform="translate(4.32 466.32)">‘05</text><text class="78e10cf6-af0b-4476-99b4-7a1dcd3d57c4" transform="translate(29.32 466.32)"><tspan xml:space="preserve">‘06                         </tspan></text><text class="78e10cf6-af0b-4476-99b4-7a1dcd3d57c4" transform="translate(4.32 494.56)">Fuente: Elaboración Propia</text><text class="78e10cf6-af0b-4476-99b4-7a1dcd3d57c4" transform="translate(340.71 494.56)">L<tspan class="94834878-fbbd-48ea-94d0-e42003a5bb64" x="5.56" y="0">A</tspan><tspan x="11.68" y="0"> </tspan><tspan class="d1360b2c-691a-4d03-bdb8-e53c1c6520dc" x="14.46" y="0">V</tspan><tspan x="20.39" y="0">ANGUARDI</tspan><tspan class="94834878-fbbd-48ea-94d0-e42003a5bb64" x="73.17" y="0">A</tspan></text><text class="4409e82b-2a4a-49b4-96b8-b0669ecb03b4" transform="translate(9.32 48.99)">En las elecciones estatales de los países miembros</text><text class="78e10cf6-af0b-4476-99b4-7a1dcd3d57c4" transform="translate(61.32 466.32)"><tspan xml:space="preserve">‘07                      </tspan></text><text class="78e10cf6-af0b-4476-99b4-7a1dcd3d57c4" transform="translate(93.32 466.32)">‘08</text><text class="78e10cf6-af0b-4476-99b4-7a1dcd3d57c4" transform="translate(125.32 466.32)"><tspan xml:space="preserve">‘09              </tspan></text><text class="78e10cf6-af0b-4476-99b4-7a1dcd3d57c4" transform="translate(157.32 466.32)"><tspan xml:space="preserve">‘10         </tspan></text><text class="78e10cf6-af0b-4476-99b4-7a1dcd3d57c4" transform="translate(189.32 466.32)">‘<tspan class="d1360b2c-691a-4d03-bdb8-e53c1c6520dc" x="2.22" y="0">1</tspan><tspan x="7.04" y="0" xml:space="preserve">1       </tspan></text><text class="78e10cf6-af0b-4476-99b4-7a1dcd3d57c4" transform="translate(220.32 466.32)">‘12</text><text class="78e10cf6-af0b-4476-99b4-7a1dcd3d57c4" transform="translate(253.32 466.32)">‘13</text><text class="78e10cf6-af0b-4476-99b4-7a1dcd3d57c4" transform="translate(285.32 466.32)">‘14</text><text class="78e10cf6-af0b-4476-99b4-7a1dcd3d57c4" transform="translate(312.32 466.32)">‘15</text><text class="78e10cf6-af0b-4476-99b4-7a1dcd3d57c4" transform="translate(345.32 466.32)">‘16</text><text class="78e10cf6-af0b-4476-99b4-7a1dcd3d57c4" transform="translate(377.32 466.32)">‘17</text><text class="78e10cf6-af0b-4476-99b4-7a1dcd3d57c4" transform="translate(406.32 466.32)">‘18</text><text class="4cba11e4-babf-41ae-ba4c-2ab845bbc0ac" transform="translate(10 15.12)">Evolución del número de votos a partidos europeístas, <tspan x="0" y="19.2">euroescépticos y reformistas </tspan></text><line class="c3e11c90-f334-471c-a1ed-3cf96c1eaa9c" x1="424" y1="67" x2="424" y2="301.5"/><line class="c3e11c90-f334-471c-a1ed-3cf96c1eaa9c" x1="424" y1="315" x2="424" y2="410.5"/><line class="c3e11c90-f334-471c-a1ed-3cf96c1eaa9c" x1="424" y1="421" x2="424" y2="446.5"/><text class="8f654d49-ec46-4705-95f5-e0619a182eee" transform="translate(426.67 78)">64%</text><text class="8f654d49-ec46-4705-95f5-e0619a182eee" transform="translate(426.67 326)">28%</text><text class="8f654d49-ec46-4705-95f5-e0619a182eee" transform="translate(427.56 431.89)">7%</text></svg>