<svg id="c4526994-0928-464d-85b9-3d8e45f060f1" data-name="Capa 1" xmlns="http://www.w3.org/2000/svg" viewBox="0 0 787 1153"><defs><style>.ff28cadb-fb2b-48a9-a1bb-ba3271a2269d{fill:#a01f51;stroke:#fff;stroke-width:0.75px;}.\31 2fcd65b-4b1a-4131-a3b3-d88f9a1ced75,.\33 0de66f8-56cf-4153-a4b7-913a48d21499,.b8f974e0-4fd9-479f-87b7-2de2427c6821,.ff28cadb-fb2b-48a9-a1bb-ba3271a2269d{stroke-miterlimit:10;}.\35 6108cdb-dcc5-4657-ad0a-c2d4e00f1338{font-size:24px;}.\35 6108cdb-dcc5-4657-ad0a-c2d4e00f1338,.\36 f818a5d-24c6-44dc-827c-e2e52446927b,.\39 5bb5ef8-41dc-4fd6-b680-2d711ec9230a,.ac90c38a-996e-4e97-9136-f701996c638e{fill:#757575;}.\35 6108cdb-dcc5-4657-ad0a-c2d4e00f1338,.ac90c38a-996e-4e97-9136-f701996c638e,.fc51e2a1-070c-430c-b8f3-c3cd18532d97{font-family:ArialMT, Arial;}.\31 2fcd65b-4b1a-4131-a3b3-d88f9a1ced75,.\33 0de66f8-56cf-4153-a4b7-913a48d21499,.b8f974e0-4fd9-479f-87b7-2de2427c6821{fill:none;stroke:#757575;}.b8f974e0-4fd9-479f-87b7-2de2427c6821{stroke-dasharray:5.01 5.01;}.\33 0de66f8-56cf-4153-a4b7-913a48d21499{stroke-dasharray:5.12 5.12;}.\36 f818a5d-24c6-44dc-827c-e2e52446927b{fill-opacity:0.3;}.fc51e2a1-070c-430c-b8f3-c3cd18532d97{font-size:23px;}.b12473ef-79cd-42cf-9d62-9986e3560c80{font-size:38px;}.\39 5bb5ef8-41dc-4fd6-b680-2d711ec9230a,.b12473ef-79cd-42cf-9d62-9986e3560c80{font-family:Arial-BoldMT, Arial;font-weight:700;}.\39 5bb5ef8-41dc-4fd6-b680-2d711ec9230a,.ac90c38a-996e-4e97-9136-f701996c638e{font-size:20px;}.dad694ba-412b-448e-8bbf-52201778510d{letter-spacing:-0.04em;}.\38 44ecba5-f4c3-46e6-bc45-a2691f4ad004{letter-spacing:-0.02em;}.\33 ac20db5-345a-4fc6-9dd1-38ee3336d919{letter-spacing:-0.07em;}.ddad1d3e-7e29-42c2-be6b-563b1788695e{letter-spacing:-0.09em;}.a392e19d-dd63-4203-b582-72d0ed405ae7{letter-spacing:-0.06em;}</style></defs><title>2018.06_Mundial_OctavosEquipos</title><circle class="ff28cadb-fb2b-48a9-a1bb-ba3271a2269d" cx="58.99" cy="237.35" r="27.16"/><circle class="ff28cadb-fb2b-48a9-a1bb-ba3271a2269d" cx="108.14" cy="237.35" r="20.24"/><circle class="ff28cadb-fb2b-48a9-a1bb-ba3271a2269d" cx="89.69" cy="272.95" r="18.11"/><circle class="ff28cadb-fb2b-48a9-a1bb-ba3271a2269d" cx="89.69" cy="201.74" r="18.11"/><circle class="ff28cadb-fb2b-48a9-a1bb-ba3271a2269d" cx="54.29" cy="191.75" r="16.94"/><circle class="ff28cadb-fb2b-48a9-a1bb-ba3271a2269d" cx="55.27" cy="281.78" r="15.68"/><circle class="ff28cadb-fb2b-48a9-a1bb-ba3271a2269d" cx="125.17" cy="203.75" r="15.68"/><circle class="ff28cadb-fb2b-48a9-a1bb-ba3271a2269d" cx="123.74" cy="270.12" r="14.31"/><circle class="ff28cadb-fb2b-48a9-a1bb-ba3271a2269d" cx="27.31" cy="266.75" r="14.31"/><circle class="ff28cadb-fb2b-48a9-a1bb-ba3271a2269d" cx="28.14" cy="209.28" r="12.8"/><circle class="ff28cadb-fb2b-48a9-a1bb-ba3271a2269d" cx="75.2" cy="294.84" r="6.4"/><circle class="ff28cadb-fb2b-48a9-a1bb-ba3271a2269d" cx="75.95" cy="179.76" r="6.07"/><circle class="ff28cadb-fb2b-48a9-a1bb-ba3271a2269d" cx="130.96" cy="250.84" r="4.53"/><circle class="ff28cadb-fb2b-48a9-a1bb-ba3271a2269d" cx="204.64" cy="239.62" r="24.79"/><circle class="ff28cadb-fb2b-48a9-a1bb-ba3271a2269d" cx="250.38" cy="239.62" r="19.2"/><circle class="ff28cadb-fb2b-48a9-a1bb-ba3271a2269d" cx="232.63" cy="274.41" r="18.11"/><circle class="ff28cadb-fb2b-48a9-a1bb-ba3271a2269d" cx="232.63" cy="204.84" r="18.11"/><circle class="ff28cadb-fb2b-48a9-a1bb-ba3271a2269d" cx="198.93" cy="199.17" r="14.31"/><circle class="ff28cadb-fb2b-48a9-a1bb-ba3271a2269d" cx="198.93" cy="280.07" r="14.31"/><circle class="ff28cadb-fb2b-48a9-a1bb-ba3271a2269d" cx="266.61" cy="208.31" r="14.31"/><circle class="ff28cadb-fb2b-48a9-a1bb-ba3271a2269d" cx="266.61" cy="270.93" r="14.31"/><circle class="ff28cadb-fb2b-48a9-a1bb-ba3271a2269d" cx="174.43" cy="264.82" r="12.8"/><circle class="ff28cadb-fb2b-48a9-a1bb-ba3271a2269d" cx="175.45" cy="214.49" r="11.98"/><circle class="ff28cadb-fb2b-48a9-a1bb-ba3271a2269d" cx="281.28" cy="231.16" r="11.09"/><circle class="ff28cadb-fb2b-48a9-a1bb-ba3271a2269d" cx="284.06" cy="252.87" r="9.05"/><circle class="ff28cadb-fb2b-48a9-a1bb-ba3271a2269d" cx="216.14" cy="296.66" r="7.84"/><circle class="ff28cadb-fb2b-48a9-a1bb-ba3271a2269d" cx="216.14" cy="182.58" r="7.84"/><circle class="ff28cadb-fb2b-48a9-a1bb-ba3271a2269d" cx="254.07" cy="189.68" r="6.4"/><circle class="ff28cadb-fb2b-48a9-a1bb-ba3271a2269d" cx="369.86" cy="237.96" r="20.24"/><circle class="ff28cadb-fb2b-48a9-a1bb-ba3271a2269d" cx="409.38" cy="237.96" r="17.53"/><circle class="ff28cadb-fb2b-48a9-a1bb-ba3271a2269d" cx="392.24" cy="270.54" r="17.53"/><circle class="ff28cadb-fb2b-48a9-a1bb-ba3271a2269d" cx="392.2" cy="206.09" r="16.94"/><circle class="ff28cadb-fb2b-48a9-a1bb-ba3271a2269d" cx="358.05" cy="202.19" r="15.68"/><circle class="ff28cadb-fb2b-48a9-a1bb-ba3271a2269d" cx="357.41" cy="273.52" r="15.68"/><circle class="ff28cadb-fb2b-48a9-a1bb-ba3271a2269d" cx="426.53" cy="207.5" r="15.68"/><circle class="ff28cadb-fb2b-48a9-a1bb-ba3271a2269d" cx="424.9" cy="266.93" r="13.58"/><path class="ff28cadb-fb2b-48a9-a1bb-ba3271a2269d" d="M328.73,224.11a11.09,11.09,0,1,1,11.09,11.09,11.09,11.09,0,0,1-11.09-11.09"/><path class="ff28cadb-fb2b-48a9-a1bb-ba3271a2269d" d="M328.49,251.27a11.09,11.09,0,1,1,11.09,11.09,11.09,11.09,0,0,1-11.09-11.09"/><circle class="ff28cadb-fb2b-48a9-a1bb-ba3271a2269d" cx="437.91" cy="245.06" r="10.12"/><path class="ff28cadb-fb2b-48a9-a1bb-ba3271a2269d" d="M457.68,225.3a10.12,10.12,0,1,1-10.12-10.12,10.12,10.12,0,0,1,10.12,10.12"/><circle class="ff28cadb-fb2b-48a9-a1bb-ba3271a2269d" cx="530.77" cy="234.83" r="24.79"/><circle class="ff28cadb-fb2b-48a9-a1bb-ba3271a2269d" cx="577.55" cy="234.83" r="20.24"/><circle class="ff28cadb-fb2b-48a9-a1bb-ba3271a2269d" cx="558.28" cy="269.99" r="18.11"/><circle class="ff28cadb-fb2b-48a9-a1bb-ba3271a2269d" cx="557.76" cy="206.21" r="12.8"/><circle class="ff28cadb-fb2b-48a9-a1bb-ba3271a2269d" cx="532.58" cy="195.53" r="12.8"/><circle class="ff28cadb-fb2b-48a9-a1bb-ba3271a2269d" cx="525.85" cy="273.86" r="12.8"/><circle class="ff28cadb-fb2b-48a9-a1bb-ba3271a2269d" cx="583.4" cy="201.9" r="11.45"/><circle class="ff28cadb-fb2b-48a9-a1bb-ba3271a2269d" cx="588.94" cy="265.88" r="11.09"/><circle class="ff28cadb-fb2b-48a9-a1bb-ba3271a2269d" cx="509.72" cy="204.81" r="10.12"/><circle class="ff28cadb-fb2b-48a9-a1bb-ba3271a2269d" cx="552.68" cy="183.16" r="9.05"/><circle class="ff28cadb-fb2b-48a9-a1bb-ba3271a2269d" cx="506.9" cy="260.6" r="8.59"/><circle class="ff28cadb-fb2b-48a9-a1bb-ba3271a2269d" cx="686.75" cy="231.77" r="27.16"/><path class="ff28cadb-fb2b-48a9-a1bb-ba3271a2269d" d="M760,231.77a22.17,22.17,0,1,1-22.17-22.17A22.17,22.17,0,0,1,760,231.77"/><circle class="ff28cadb-fb2b-48a9-a1bb-ba3271a2269d" cx="716.39" cy="265.07" r="15.68"/><circle class="ff28cadb-fb2b-48a9-a1bb-ba3271a2269d" cx="716.33" cy="199.31" r="15.01"/><circle class="ff28cadb-fb2b-48a9-a1bb-ba3271a2269d" cx="688.24" cy="190.09" r="12.8"/><circle class="ff28cadb-fb2b-48a9-a1bb-ba3271a2269d" cx="688.66" cy="271.71" r="11.09"/><circle class="ff28cadb-fb2b-48a9-a1bb-ba3271a2269d" cx="744.1" cy="197.32" r="11.09"/><circle class="ff28cadb-fb2b-48a9-a1bb-ba3271a2269d" cx="741.6" cy="263.3" r="7.84"/><circle class="ff28cadb-fb2b-48a9-a1bb-ba3271a2269d" cx="669.41" cy="264.17" r="7.84"/><circle class="ff28cadb-fb2b-48a9-a1bb-ba3271a2269d" cx="670.13" cy="200.62" r="6.4"/><circle class="ff28cadb-fb2b-48a9-a1bb-ba3271a2269d" cx="52.92" cy="453.45" r="19.2"/><circle class="ff28cadb-fb2b-48a9-a1bb-ba3271a2269d" cx="93.07" cy="453.45" r="19.2"/><circle class="ff28cadb-fb2b-48a9-a1bb-ba3271a2269d" cx="73" cy="485.58" r="16.94"/><circle class="ff28cadb-fb2b-48a9-a1bb-ba3271a2269d" cx="73" cy="422.05" r="16.32"/><circle class="ff28cadb-fb2b-48a9-a1bb-ba3271a2269d" cx="42.95" cy="422.07" r="11.98"/><circle class="ff28cadb-fb2b-48a9-a1bb-ba3271a2269d" cx="101.15" cy="423.45" r="10.12"/><circle class="ff28cadb-fb2b-48a9-a1bb-ba3271a2269d" cx="100.56" cy="482.51" r="9.05"/><circle class="ff28cadb-fb2b-48a9-a1bb-ba3271a2269d" cx="45.94" cy="482.16" r="8.59"/><circle class="ff28cadb-fb2b-48a9-a1bb-ba3271a2269d" cx="114.5" cy="471.42" r="7.01"/><circle class="ff28cadb-fb2b-48a9-a1bb-ba3271a2269d" cx="34.11" cy="471.85" r="5.36"/><circle class="ff28cadb-fb2b-48a9-a1bb-ba3271a2269d" cx="221.93" cy="454.41" r="20.24"/><circle class="ff28cadb-fb2b-48a9-a1bb-ba3271a2269d" cx="260.86" cy="454.41" r="16.94"/><circle class="ff28cadb-fb2b-48a9-a1bb-ba3271a2269d" cx="244.56" cy="486.08" r="16.94"/><circle class="ff28cadb-fb2b-48a9-a1bb-ba3271a2269d" cx="244.46" cy="424.21" r="15.68"/><circle class="ff28cadb-fb2b-48a9-a1bb-ba3271a2269d" cx="213.77" cy="419.79" r="13.58"/><circle class="ff28cadb-fb2b-48a9-a1bb-ba3271a2269d" cx="213.93" cy="487.42" r="11.98"/><circle class="ff28cadb-fb2b-48a9-a1bb-ba3271a2269d" cx="273.76" cy="426.6" r="11.98"/><circle class="ff28cadb-fb2b-48a9-a1bb-ba3271a2269d" cx="272.84" cy="480.6" r="10.12"/><circle class="ff28cadb-fb2b-48a9-a1bb-ba3271a2269d" cx="200.85" cy="436.41" r="5.73"/><circle class="ff28cadb-fb2b-48a9-a1bb-ba3271a2269d" cx="379.06" cy="445.68" r="21.23"/><circle class="ff28cadb-fb2b-48a9-a1bb-ba3271a2269d" cx="417.72" cy="445.68" r="15.68"/><circle class="ff28cadb-fb2b-48a9-a1bb-ba3271a2269d" cx="403.55" cy="475.6" r="15.68"/><circle class="ff28cadb-fb2b-48a9-a1bb-ba3271a2269d" cx="403.13" cy="419.21" r="12.8"/><circle class="ff28cadb-fb2b-48a9-a1bb-ba3271a2269d" cx="377.4" cy="409.94" r="12.8"/><circle class="ff28cadb-fb2b-48a9-a1bb-ba3271a2269d" cx="374.98" cy="479.87" r="11.45"/><circle class="ff28cadb-fb2b-48a9-a1bb-ba3271a2269d" cx="426.19" cy="421.09" r="8.59"/><circle class="ff28cadb-fb2b-48a9-a1bb-ba3271a2269d" cx="427.88" cy="468.82" r="7.84"/><circle class="ff28cadb-fb2b-48a9-a1bb-ba3271a2269d" cx="367.72" cy="423.4" r="2.02"/><circle class="ff28cadb-fb2b-48a9-a1bb-ba3271a2269d" cx="540.87" cy="451.41" r="20.24"/><circle class="ff28cadb-fb2b-48a9-a1bb-ba3271a2269d" cx="579.8" cy="451.41" r="16.94"/><circle class="ff28cadb-fb2b-48a9-a1bb-ba3271a2269d" cx="563.01" cy="475.99" r="11.09"/><circle class="ff28cadb-fb2b-48a9-a1bb-ba3271a2269d" cx="562.97" cy="427.31" r="10.71"/><circle class="ff28cadb-fb2b-48a9-a1bb-ba3271a2269d" cx="542.6" cy="420.42" r="9.05"/><circle class="ff28cadb-fb2b-48a9-a1bb-ba3271a2269d" cx="543.52" cy="480.44" r="7.16"/><circle class="ff28cadb-fb2b-48a9-a1bb-ba3271a2269d" cx="578.07" cy="429.94" r="2.86"/><path class="ff28cadb-fb2b-48a9-a1bb-ba3271a2269d" d="M672.85,448.84a16.94,16.94,0,1,1,16.94,16.94,16.94,16.94,0,0,1-16.94-16.94"/><circle class="ff28cadb-fb2b-48a9-a1bb-ba3271a2269d" cx="724.15" cy="448.84" r="15.68"/><path class="ff28cadb-fb2b-48a9-a1bb-ba3271a2269d" d="M708.1,487.26a12.8,12.8,0,1,1,12.8-12.8,12.8,12.8,0,0,1-12.8,12.8"/><path class="ff28cadb-fb2b-48a9-a1bb-ba3271a2269d" d="M708.1,410.42a12.8,12.8,0,1,1-12.8,12.8,12.8,12.8,0,0,1,12.8-12.8"/><circle class="ff28cadb-fb2b-48a9-a1bb-ba3271a2269d" cx="57.77" cy="625.81" r="18.11"/><circle class="ff28cadb-fb2b-48a9-a1bb-ba3271a2269d" cx="87.75" cy="625.81" r="10.12"/><path class="ff28cadb-fb2b-48a9-a1bb-ba3271a2269d" d="M79.68,636.14A10.12,10.12,0,0,1,89.8,646.26c0,5.59-4.53,8.12-10.12,8.12s-10.12-2.53-10.12-8.12A10.12,10.12,0,0,1,79.68,636.14Z"/><circle class="ff28cadb-fb2b-48a9-a1bb-ba3271a2269d" cx="79.4" cy="606.62" r="9.05"/><circle class="ff28cadb-fb2b-48a9-a1bb-ba3271a2269d" cx="382.3" cy="625.44" r="11.09"/><circle class="ff28cadb-fb2b-48a9-a1bb-ba3271a2269d" cx="405.26" cy="625.44" r="10.12"/><circle class="ff28cadb-fb2b-48a9-a1bb-ba3271a2269d" cx="394.68" cy="643.49" r="9.05"/><circle class="ff28cadb-fb2b-48a9-a1bb-ba3271a2269d" cx="394.64" cy="608.54" r="8.1"/><circle class="ff28cadb-fb2b-48a9-a1bb-ba3271a2269d" cx="377.47" cy="605.62" r="7.57"/><circle class="ff28cadb-fb2b-48a9-a1bb-ba3271a2269d" cx="377.81" cy="643.81" r="6.07"/><circle class="ff28cadb-fb2b-48a9-a1bb-ba3271a2269d" cx="62.81" cy="601.81" r="6.07"/><path class="ff28cadb-fb2b-48a9-a1bb-ba3271a2269d" d="M534.16,625.17A12.8,12.8,0,1,1,547,638a12.81,12.81,0,0,1-12.8-12.8"/><circle class="ff28cadb-fb2b-48a9-a1bb-ba3271a2269d" cx="571" cy="625.17" r="9.49"/><circle class="ff28cadb-fb2b-48a9-a1bb-ba3271a2269d" cx="561.94" cy="642.81" r="8.59"/><path class="ff28cadb-fb2b-48a9-a1bb-ba3271a2269d" d="M561.76,601.8a7.3,7.3,0,1,1-7.3,7.3,7.3,7.3,0,0,1,7.3-7.3"/><path class="ff28cadb-fb2b-48a9-a1bb-ba3271a2269d" d="M547.87,599.93a5.36,5.36,0,1,1-5.36,5.36,5.36,5.36,0,0,1,5.36-5.36"/><path class="ff28cadb-fb2b-48a9-a1bb-ba3271a2269d" d="M681.86,618.12a12.8,12.8,0,0,1,12.8-12.8"/><path class="ff28cadb-fb2b-48a9-a1bb-ba3271a2269d" d="M694.66,605.32a12.8,12.8,0,1,1-12.8,12.8"/><path class="ff28cadb-fb2b-48a9-a1bb-ba3271a2269d" d="M718.92,608.41a9.71,9.71,0,1,1-9.71,9.71,9.71,9.71,0,0,1,9.71-9.71"/><circle class="ff28cadb-fb2b-48a9-a1bb-ba3271a2269d" cx="709.57" cy="636.12" r="8.82"/><circle class="ff28cadb-fb2b-48a9-a1bb-ba3271a2269d" cx="709.22" cy="603.52" r="6.07"/><circle class="ff28cadb-fb2b-48a9-a1bb-ba3271a2269d" cx="239.04" cy="622.59" r="16.32"/><path class="ff28cadb-fb2b-48a9-a1bb-ba3271a2269d" d="M241.56,639.15a9.71,9.71,0,0,1,9.71,9.71c0,5.36-4.35,7.71-9.71,7.71s-9.71-2.35-9.71-7.71A9.71,9.71,0,0,1,241.56,639.15Z"/><circle class="ff28cadb-fb2b-48a9-a1bb-ba3271a2269d" cx="222.03" cy="642.48" r="9.05"/><circle class="ff28cadb-fb2b-48a9-a1bb-ba3271a2269d" cx="215.26" cy="626.99" r="7.01"/><circle class="ff28cadb-fb2b-48a9-a1bb-ba3271a2269d" cx="217.97" cy="612.47" r="6.4"/><circle class="ff28cadb-fb2b-48a9-a1bb-ba3271a2269d" cx="227.16" cy="605.39" r="4.29"/><circle class="ff28cadb-fb2b-48a9-a1bb-ba3271a2269d" cx="58.71" cy="762.03" r="9.49"/><circle class="ff28cadb-fb2b-48a9-a1bb-ba3271a2269d" cx="79" cy="762.03" r="9.05"/><circle class="ff28cadb-fb2b-48a9-a1bb-ba3271a2269d" cx="69.28" cy="778.52" r="8.35"/><circle class="ff28cadb-fb2b-48a9-a1bb-ba3271a2269d" cx="69.26" cy="746.45" r="7.57"/><circle class="ff28cadb-fb2b-48a9-a1bb-ba3271a2269d" cx="54.23" cy="745.67" r="5.73"/><circle class="ff28cadb-fb2b-48a9-a1bb-ba3271a2269d" cx="55.52" cy="776.72" r="3.79"/><circle class="ff28cadb-fb2b-48a9-a1bb-ba3271a2269d" cx="220.62" cy="764.63" r="10.12"/><circle class="ff28cadb-fb2b-48a9-a1bb-ba3271a2269d" cx="79.62" cy="644.63" r="10.12"/><circle class="ff28cadb-fb2b-48a9-a1bb-ba3271a2269d" cx="241.62" cy="648.63" r="10.12"/><circle class="ff28cadb-fb2b-48a9-a1bb-ba3271a2269d" cx="241.54" cy="764.63" r="9.05"/><circle class="ff28cadb-fb2b-48a9-a1bb-ba3271a2269d" cx="232.12" cy="782.11" r="9.05"/><circle class="ff28cadb-fb2b-48a9-a1bb-ba3271a2269d" cx="231.99" cy="750.33" r="6.4"/><circle class="ff28cadb-fb2b-48a9-a1bb-ba3271a2269d" cx="219.11" cy="747.87" r="4.96"/><circle class="ff28cadb-fb2b-48a9-a1bb-ba3271a2269d" cx="380.78" cy="760.64" r="12.8"/><circle class="ff28cadb-fb2b-48a9-a1bb-ba3271a2269d" cx="408.13" cy="760.64" r="12.8"/><circle class="ff28cadb-fb2b-48a9-a1bb-ba3271a2269d" cx="547.87" cy="756.73" r="15.68"/><circle class="ff28cadb-fb2b-48a9-a1bb-ba3271a2269d" cx="574.35" cy="756.73" r="9.05"/><circle class="ff28cadb-fb2b-48a9-a1bb-ba3271a2269d" cx="58.78" cy="887.66" r="11.09"/><circle class="ff28cadb-fb2b-48a9-a1bb-ba3271a2269d" cx="78.62" cy="887.66" r="7.01"/><circle class="ff28cadb-fb2b-48a9-a1bb-ba3271a2269d" cx="72.36" cy="902.13" r="7.01"/><circle class="ff28cadb-fb2b-48a9-a1bb-ba3271a2269d" cx="72.23" cy="873.91" r="6.4"/><circle class="ff28cadb-fb2b-48a9-a1bb-ba3271a2269d" cx="60.07" cy="870.35" r="4.53"/><circle class="ff28cadb-fb2b-48a9-a1bb-ba3271a2269d" cx="59.39" cy="905.01" r="4.53"/><circle class="ff28cadb-fb2b-48a9-a1bb-ba3271a2269d" cx="227.31" cy="883.57" r="15.68"/><circle class="ff28cadb-fb2b-48a9-a1bb-ba3271a2269d" cx="252.03" cy="883.57" r="7.3"/><circle class="ff28cadb-fb2b-48a9-a1bb-ba3271a2269d" cx="379.11" cy="880.24" r="12.8"/><circle class="ff28cadb-fb2b-48a9-a1bb-ba3271a2269d" cx="401.5" cy="880.24" r="7.84"/><circle class="ff28cadb-fb2b-48a9-a1bb-ba3271a2269d" cx="394.6" cy="895.66" r="7.3"/><circle class="ff28cadb-fb2b-48a9-a1bb-ba3271a2269d" cx="393.98" cy="868.3" r="4.53"/><circle class="ff28cadb-fb2b-48a9-a1bb-ba3271a2269d" cx="81.67" cy="1099.83" r="1.17"/><circle class="ff28cadb-fb2b-48a9-a1bb-ba3271a2269d" cx="85.54" cy="1097.38" r="0.44"/><text class="56108cdb-dcc5-4657-ad0a-c2d4e00f1338" transform="translate(621.62 1050.56)">180 Millones</text><text class="56108cdb-dcc5-4657-ad0a-c2d4e00f1338" transform="translate(634.62 1090.56)">15 Millones</text><line class="12fcd65b-4b1a-4131-a3b3-d88f9a1ced75" x1="557.46" y1="1095.56" x2="559.96" y2="1095.56"/><line class="b8f974e0-4fd9-479f-87b7-2de2427c6821" x1="564.98" y1="1095.56" x2="753.04" y2="1095.56"/><line class="12fcd65b-4b1a-4131-a3b3-d88f9a1ced75" x1="755.54" y1="1095.56" x2="758.04" y2="1095.56"/><line class="12fcd65b-4b1a-4131-a3b3-d88f9a1ced75" x1="561.61" y1="1054.1" x2="564.11" y2="1054.1"/><line class="30de66f8-56cf-4153-a4b7-913a48d21499" x1="569.23" y1="1054.1" x2="750.91" y2="1054.1"/><line class="12fcd65b-4b1a-4131-a3b3-d88f9a1ced75" x1="753.47" y1="1054.1" x2="755.97" y2="1054.1"/><path class="6f818a5d-24c6-44dc-827c-e2e52446927b" d="M581.12,1081.44a26.56,26.56,0,1,1-26.56-26.56,26.56,26.56,0,0,1,26.56,26.56"/><path class="6f818a5d-24c6-44dc-827c-e2e52446927b" d="M562.17,1101.89a5.54,5.54,0,1,1-5.54-5.54,5.54,5.54,0,0,1,5.54,5.54"/><text class="fc51e2a1-070c-430c-b8f3-c3cd18532d97" transform="translate(42.54 85.58)">Cada círculo representa el valor de un futbolista en millones de euros</text><text class="b12473ef-79cd-42cf-9d62-9986e3560c80" transform="translate(62.74 27.32)">El valor de los jugadores que aporta <tspan x="25.35" y="38">cada club en octavos del Mundial</tspan></text><text class="95bb5ef8-41dc-4fd6-b680-2d711ec9230a" transform="translate(15.67 122.1)">BARCELON<tspan class="dad694ba-412b-448e-8bbf-52201778510d" x="113.33" y="0">A</tspan><tspan x="46.83" y="24">794</tspan></text><text class="95bb5ef8-41dc-4fd6-b680-2d711ec9230a" transform="translate(199.7 121.1)">M. CIT<tspan class="844ecba5-f4c3-46e6-bc45-a2691f4ad004" x="59.99" y="0">Y</tspan><tspan x="19.8" y="24">765</tspan></text><text class="95bb5ef8-41dc-4fd6-b680-2d711ec9230a" transform="translate(323.37 121.1)">REA<tspan class="844ecba5-f4c3-46e6-bc45-a2691f4ad004" x="42.23" y="0">L</tspan><tspan x="54.08" y="0" xml:space="preserve"> MADRID</tspan><tspan x="53.13" y="24">655</tspan></text><text class="95bb5ef8-41dc-4fd6-b680-2d711ec9230a" transform="translate(491.6 123.1)"><tspan class="844ecba5-f4c3-46e6-bc45-a2691f4ad004">T</tspan><tspan x="11.86" y="0">OTTENHAM</tspan><tspan x="45.9" y="24">575</tspan></text><text class="95bb5ef8-41dc-4fd6-b680-2d711ec9230a" transform="translate(682.07 122.1)">PSG<tspan x="4.43" y="24">555</tspan></text><text class="95bb5ef8-41dc-4fd6-b680-2d711ec9230a" transform="translate(26.93 355.1)"><tspan class="3ac20db5-345a-4fc6-9dd1-38ee3336d919">A</tspan><tspan x="12.96" y="0">TLÉTICO</tspan><tspan x="32.57" y="24">448</tspan></text><text class="95bb5ef8-41dc-4fd6-b680-2d711ec9230a" transform="translate(183.08 355.1)">M. UNITED<tspan x="34.42" y="24">432</tspan></text><text class="95bb5ef8-41dc-4fd6-b680-2d711ec9230a" transform="translate(346.86 353.1)">CHELSE<tspan class="dad694ba-412b-448e-8bbf-52201778510d" x="81.12" y="0">A</tspan><tspan x="30.73" y="24">376</tspan></text><text class="95bb5ef8-41dc-4fd6-b680-2d711ec9230a" transform="translate(499.93 354.1)">JUVENTUS<tspan x="36.66" y="24">262</tspan></text><text class="95bb5ef8-41dc-4fd6-b680-2d711ec9230a" transform="translate(661.96 354.1)">B<tspan class="ddad1d3e-7e29-42c2-be6b-563b1788695e" x="14.44" y="0">A</tspan><tspan x="27.05" y="0">YERN</tspan><tspan x="24.62" y="24">210</tspan></text><text class="95bb5ef8-41dc-4fd6-b680-2d711ec9230a" transform="translate(13.58 558.1)">LIVERPOO<tspan class="844ecba5-f4c3-46e6-bc45-a2691f4ad004" x="103.35" y="0">L</tspan><tspan x="40.92" y="24">160</tspan></text><text class="95bb5ef8-41dc-4fd6-b680-2d711ec9230a" transform="translate(322.47 559.1)">SPORTING C<tspan class="844ecba5-f4c3-46e6-bc45-a2691f4ad004" x="124.45" y="0">P</tspan><tspan class="a392e19d-dd63-4203-b582-72d0ed405ae7" x="52.58" y="24">1</tspan><tspan x="62.6" y="24">14</tspan></text><text class="95bb5ef8-41dc-4fd6-b680-2d711ec9230a" transform="translate(497.28 559.1)">DORTMUND<tspan x="41.64" y="24">100</tspan></text><text class="95bb5ef8-41dc-4fd6-b680-2d711ec9230a" transform="translate(682.61 558.1)">INTER<tspan x="18.88" y="24">91</tspan></text><text class="95bb5ef8-41dc-4fd6-b680-2d711ec9230a" transform="translate(163.96 559.1)">AS MÓNACO<tspan x="45.54" y="24">134</tspan></text><text class="95bb5ef8-41dc-4fd6-b680-2d711ec9230a" transform="translate(11.19 701.1)">GLADBACH <tspan x="48.87" y="24">84</tspan></text><text class="95bb5ef8-41dc-4fd6-b680-2d711ec9230a" transform="translate(176.07 703.1)">LEICESTER<tspan x="45" y="24">81</tspan></text><text class="95bb5ef8-41dc-4fd6-b680-2d711ec9230a" transform="translate(344.19 701.1)"><tspan class="3ac20db5-345a-4fc6-9dd1-38ee3336d919">V</tspan><tspan x="11.86" y="0">ALENCI</tspan><tspan class="dad694ba-412b-448e-8bbf-52201778510d" x="86.3" y="0">A</tspan><tspan x="38.88" y="24">80</tspan></text><text class="95bb5ef8-41dc-4fd6-b680-2d711ec9230a" transform="translate(531.33 702.1)"><tspan class="ddad1d3e-7e29-42c2-be6b-563b1788695e">L</tspan><tspan x="10.38" y="0">YON</tspan><tspan x="15.74" y="24">80</tspan></text><text class="95bb5ef8-41dc-4fd6-b680-2d711ec9230a" transform="translate(675.53 702.1)">MILÁN<tspan x="20.54" y="24">76</tspan></text><text class="95bb5ef8-41dc-4fd6-b680-2d711ec9230a" transform="translate(30.33 836.1)">SEVILL<tspan class="dad694ba-412b-448e-8bbf-52201778510d" x="70.01" y="0">A</tspan><tspan x="30.73" y="24">74</tspan></text><text class="95bb5ef8-41dc-4fd6-b680-2d711ec9230a" transform="translate(203.01 837.1)">ROM<tspan class="dad694ba-412b-448e-8bbf-52201778510d" x="46.66" y="0">A</tspan><tspan x="19.06" y="24">73</tspan></text><text class="95bb5ef8-41dc-4fd6-b680-2d711ec9230a" transform="translate(343.03 838.1)">ARSENA<tspan class="844ecba5-f4c3-46e6-bc45-a2691f4ad004" x="84.45" y="0">L</tspan><tspan x="37.03" y="24">73</tspan></text><text class="95bb5ef8-41dc-4fd6-b680-2d711ec9230a" transform="translate(502.01 838.1)">MARSELL<tspan class="dad694ba-412b-448e-8bbf-52201778510d" x="96.66" y="0">A</tspan><tspan x="44.06" y="24">65</tspan></text><text class="95bb5ef8-41dc-4fd6-b680-2d711ec9230a" transform="translate(673.71 838.1)">CE<tspan class="3ac20db5-345a-4fc6-9dd1-38ee3336d919" x="27.78" y="0">LT</tspan><tspan class="dad694ba-412b-448e-8bbf-52201778510d" x="49.25" y="0">A</tspan><tspan x="20.35" y="24">65</tspan></text><text class="95bb5ef8-41dc-4fd6-b680-2d711ec9230a" transform="translate(17.75 943.1)">WEST HAM<tspan x="43.32" y="24">60</tspan></text><text class="95bb5ef8-41dc-4fd6-b680-2d711ec9230a" transform="translate(162.22 943.1)">CSK<tspan class="dad694ba-412b-448e-8bbf-52201778510d" x="42.23" y="0">A</tspan><tspan x="55.93" y="0" xml:space="preserve"> MOSCÚ</tspan><tspan x="56.84" y="24">51</tspan></text><text class="95bb5ef8-41dc-4fd6-b680-2d711ec9230a" transform="translate(11.63 1049.1)">R. SOCIEDAD<tspan x="54.44" y="24">41</tspan></text><text class="95bb5ef8-41dc-4fd6-b680-2d711ec9230a" transform="translate(174.54 1049.1)">S<tspan class="844ecba5-f4c3-46e6-bc45-a2691f4ad004" x="13.34" y="0">T</tspan><tspan x="25.2" y="0">OKE CIT</tspan><tspan class="844ecba5-f4c3-46e6-bc45-a2691f4ad004" x="106.31" y="0">Y</tspan><tspan x="48.52" y="24">40</tspan></text><text class="95bb5ef8-41dc-4fd6-b680-2d711ec9230a" transform="translate(349.03 943.1)">OPOR<tspan class="844ecba5-f4c3-46e6-bc45-a2691f4ad004" x="58.9" y="0">T</tspan><tspan x="70.75" y="0">O</tspan><tspan x="32.03" y="24">50</tspan></text><text class="95bb5ef8-41dc-4fd6-b680-2d711ec9230a" transform="translate(513.11 943.1)">BENFIC<tspan class="dad694ba-412b-448e-8bbf-52201778510d" x="74.44" y="0">A</tspan><tspan x="32.95" y="24">48</tspan></text><text class="95bb5ef8-41dc-4fd6-b680-2d711ec9230a" transform="translate(655.85 943.1)">NÁPOLES<tspan x="37.22" y="24">45</tspan></text><circle class="ff28cadb-fb2b-48a9-a1bb-ba3271a2269d" cx="548.89" cy="883.44" r="14.31"/><circle class="ff28cadb-fb2b-48a9-a1bb-ba3271a2269d" cx="570.3" cy="883.44" r="5.36"/><circle class="ff28cadb-fb2b-48a9-a1bb-ba3271a2269d" cx="566.51" cy="894.89" r="4.96"/><circle class="ff28cadb-fb2b-48a9-a1bb-ba3271a2269d" cx="565.78" cy="874.18" r="3.2"/><circle class="ff28cadb-fb2b-48a9-a1bb-ba3271a2269d" cx="695.26" cy="761.81" r="10.12"/><circle class="ff28cadb-fb2b-48a9-a1bb-ba3271a2269d" cx="715.47" cy="761.81" r="8.35"/><circle class="ff28cadb-fb2b-48a9-a1bb-ba3271a2269d" cx="707.04" cy="777.93" r="8.1"/><circle class="ff28cadb-fb2b-48a9-a1bb-ba3271a2269d" cx="707.04" cy="745.69" r="8.1"/><circle class="ff28cadb-fb2b-48a9-a1bb-ba3271a2269d" cx="694.41" cy="747.1" r="2.86"/><circle class="ff28cadb-fb2b-48a9-a1bb-ba3271a2269d" cx="697.97" cy="884.36" r="7.57"/><circle class="ff28cadb-fb2b-48a9-a1bb-ba3271a2269d" cx="713.36" cy="884.36" r="6.07"/><circle class="ff28cadb-fb2b-48a9-a1bb-ba3271a2269d" cx="706.87" cy="893.98" r="3.79"/><circle class="ff28cadb-fb2b-48a9-a1bb-ba3271a2269d" cx="59.2" cy="990.34" r="10.12"/><circle class="ff28cadb-fb2b-48a9-a1bb-ba3271a2269d" cx="80.12" cy="990.34" r="9.05"/><circle class="ff28cadb-fb2b-48a9-a1bb-ba3271a2269d" cx="70.64" cy="1006.39" r="7.84"/><circle class="ff28cadb-fb2b-48a9-a1bb-ba3271a2269d" cx="222.84" cy="994.75" r="8.1"/><circle class="ff28cadb-fb2b-48a9-a1bb-ba3271a2269d" cx="240.53" cy="994.75" r="7.84"/><circle class="ff28cadb-fb2b-48a9-a1bb-ba3271a2269d" cx="231.92" cy="1008.23" r="6.4"/><circle class="ff28cadb-fb2b-48a9-a1bb-ba3271a2269d" cx="231.92" cy="981.28" r="6.4"/><path class="ff28cadb-fb2b-48a9-a1bb-ba3271a2269d" d="M222.13,983.9a1,1,0,1,1,2,0"/><circle class="ff28cadb-fb2b-48a9-a1bb-ba3271a2269d" cx="384.9" cy="993.27" r="8.59"/><circle class="ff28cadb-fb2b-48a9-a1bb-ba3271a2269d" cx="402.54" cy="993.27" r="7.3"/><circle class="ff28cadb-fb2b-48a9-a1bb-ba3271a2269d" cx="394.94" cy="1007.41" r="7.01"/><circle class="ff28cadb-fb2b-48a9-a1bb-ba3271a2269d" cx="394.78" cy="981.86" r="4.75"/><circle class="ff28cadb-fb2b-48a9-a1bb-ba3271a2269d" cx="385.91" cy="980.49" r="2.48"/><circle class="ff28cadb-fb2b-48a9-a1bb-ba3271a2269d" cx="223.05" cy="982.88" r="2.48"/><circle class="ff28cadb-fb2b-48a9-a1bb-ba3271a2269d" cx="543.03" cy="988.82" r="9.05"/><circle class="ff28cadb-fb2b-48a9-a1bb-ba3271a2269d" cx="561.41" cy="988.82" r="7.57"/><path class="ff28cadb-fb2b-48a9-a1bb-ba3271a2269d" d="M553.54,996a6.4,6.4,0,0,1,6.4,6.4c0,3.54-1.87,6.4-5.4,6.4s-7.4-2.87-7.4-6.4A6.4,6.4,0,0,1,553.54,996Z"/><circle class="ff28cadb-fb2b-48a9-a1bb-ba3271a2269d" cx="553.35" cy="978.15" r="4.05"/><circle class="ff28cadb-fb2b-48a9-a1bb-ba3271a2269d" cx="694.19" cy="993.21" r="11.09"/><circle class="ff28cadb-fb2b-48a9-a1bb-ba3271a2269d" cx="714.6" cy="993.21" r="7.57"/><path class="ff28cadb-fb2b-48a9-a1bb-ba3271a2269d" d="M704.63,1001.3a2,2,0,0,1,2-2"/><circle class="ff28cadb-fb2b-48a9-a1bb-ba3271a2269d" cx="59.94" cy="1101.87" r="10.12"/><circle class="ff28cadb-fb2b-48a9-a1bb-ba3271a2269d" cx="78.82" cy="1101.87" r="7.01"/><circle class="ff28cadb-fb2b-48a9-a1bb-ba3271a2269d" cx="71.75" cy="1112.55" r="4.05"/><circle class="ff28cadb-fb2b-48a9-a1bb-ba3271a2269d" cx="219.85" cy="1102.71" r="9.49"/><circle class="ff28cadb-fb2b-48a9-a1bb-ba3271a2269d" cx="239.68" cy="1102.71" r="8.59"/><text class="ac90c38a-996e-4e97-9136-f701996c638e" transform="translate(6.79 1150.1)">Fuente: Propia a partir de<tspan class="844ecba5-f4c3-46e6-bc45-a2691f4ad004" x="226.8" y="0"> </tspan><tspan class="dad694ba-412b-448e-8bbf-52201778510d" x="231.99" y="0">T</tspan><tspan x="243.47" y="0">ransfermarkt</tspan></text><text class="ac90c38a-996e-4e97-9136-f701996c638e" transform="translate(499.71 1147.1)">Laura<tspan class="a392e19d-dd63-4203-b582-72d0ed405ae7" x="51.15" y="0"> </tspan><tspan x="55.61" y="0">Aragó | L</tspan><tspan class="a392e19d-dd63-4203-b582-72d0ed405ae7" x="136.41" y="0">A</tspan><tspan x="148.64" y="0"> </tspan><tspan class="3ac20db5-345a-4fc6-9dd1-38ee3336d919" x="154.2" y="0">V</tspan><tspan x="166.05" y="0">ANGUARDI</tspan><tspan class="a392e19d-dd63-4203-b582-72d0ed405ae7" x="271.62" y="0">A</tspan></text></svg>