<svg xmlns="http://www.w3.org/2000/svg" viewBox="0 0 855 798"><defs><style>.\31 5c94965-e0c9-43e6-8abd-6617561c2dc8{font-size:24px;}.\30 a52c627-e84b-4413-a7ed-e802f5486132,.\31 5c94965-e0c9-43e6-8abd-6617561c2dc8,.\35 e7ee5bd-c4a9-45f2-8779-cd31886816d9,.b6687164-b437-4b87-9709-0aa12c66fc8c{fill:#757575;}.\31 5c94965-e0c9-43e6-8abd-6617561c2dc8,.b6687164-b437-4b87-9709-0aa12c66fc8c,.db8ec976-eeb6-45ae-a9d5-58fefea79218{font-family:ArialMT, Arial;}.\30 96046a9-3927-4f6d-ae6f-adb7df138b48,.\34 ae417f7-65a8-41fb-b05a-0abb33ab21e6,.\39 b04a3e8-ea28-4e11-bea2-7482d60c8063,.f9180c9e-8874-46d6-8b99-b5ebdccb4a34{fill:none;stroke:#757575;}.\30 96046a9-3927-4f6d-ae6f-adb7df138b48,.\34 ae417f7-65a8-41fb-b05a-0abb33ab21e6,.\36 a571ece-e9a9-4869-a450-43594dd89caf,.\39 b04a3e8-ea28-4e11-bea2-7482d60c8063,.f0e6875b-3e7c-4f4f-9a91-1521731126d9,.f9180c9e-8874-46d6-8b99-b5ebdccb4a34{stroke-miterlimit:10;}.\30 96046a9-3927-4f6d-ae6f-adb7df138b48{stroke-dasharray:5 5;}.\34 ae417f7-65a8-41fb-b05a-0abb33ab21e6{stroke-dasharray:4.91 4.91;}.f9180c9e-8874-46d6-8b99-b5ebdccb4a34{stroke-dasharray:4.99 4.99;}.\30 a52c627-e84b-4413-a7ed-e802f5486132{fill-opacity:0.3;}.\36 a571ece-e9a9-4869-a450-43594dd89caf{fill:#97d1fc;}.\36 a571ece-e9a9-4869-a450-43594dd89caf,.f0e6875b-3e7c-4f4f-9a91-1521731126d9{stroke:#fff;stroke-width:0.75px;}.db8ec976-eeb6-45ae-a9d5-58fefea79218{font-size:23px;}.a54f212c-e073-4a23-8615-4a1553b6d5c9{font-size:37px;fill:#323232;}.\35 e7ee5bd-c4a9-45f2-8779-cd31886816d9,.a54f212c-e073-4a23-8615-4a1553b6d5c9{font-family:Arial-BoldMT, Arial;font-weight:700;}.\35 e7ee5bd-c4a9-45f2-8779-cd31886816d9{font-size:32px;}.\38 cfe3385-0da5-42b0-b740-8ffd158a36c6{letter-spacing:-0.04em;}.b6687164-b437-4b87-9709-0aa12c66fc8c{font-size:20px;}.\34 a9bccf8-b7e4-4603-a727-e499f74f4ade{letter-spacing:-0.02em;}.eeecaf50-2819-4767-b95a-51308bca8ef0{letter-spacing:-0.06em;}.\35 0b3b823-c4d3-4d54-8cec-42ad6651a94b{letter-spacing:-0.07em;}.f0e6875b-3e7c-4f4f-9a91-1521731126d9{fill:#39398e;}</style></defs><title>2018.06_Mundial_ComparacionesEquipo</title><g id="e4f860c0-b62e-4e96-b8e8-22895b5d284f" data-name="Capa 1"><text class="15c94965-e0c9-43e6-8abd-6617561c2dc8" transform="translate(523.07 520.56)">180 millones</text><text class="15c94965-e0c9-43e6-8abd-6617561c2dc8" transform="translate(518.07 600.56)">90 millones</text><text class="15c94965-e0c9-43e6-8abd-6617561c2dc8" transform="translate(511.07 689.56)">20 millones</text><line class="9b04a3e8-ea28-4e11-bea2-7482d60c8063" x1="735" y1="694.5" x2="732.5" y2="694.5"/><line class="096046a9-3927-4f6d-ae6f-adb7df138b48" x1="727.5" y1="694.5" x2="520" y2="694.5"/><line class="9b04a3e8-ea28-4e11-bea2-7482d60c8063" x1="517.5" y1="694.5" x2="515" y2="694.5"/><line class="9b04a3e8-ea28-4e11-bea2-7482d60c8063" x1="727" y1="606.5" x2="724.5" y2="606.5"/><line class="4ae417f7-65a8-41fb-b05a-0abb33ab21e6" x1="719.59" y1="606.5" x2="525.46" y2="606.5"/><line class="9b04a3e8-ea28-4e11-bea2-7482d60c8063" x1="523" y1="606.5" x2="520.5" y2="606.5"/><line class="9b04a3e8-ea28-4e11-bea2-7482d60c8063" x1="747" y1="531.5" x2="744.5" y2="531.5"/><line class="f9180c9e-8874-46d6-8b99-b5ebdccb4a34" x1="739.51" y1="531.5" x2="532.49" y2="531.5"/><line class="9b04a3e8-ea28-4e11-bea2-7482d60c8063" x1="530" y1="531.5" x2="527.5" y2="531.5"/><path class="0a52c627-e84b-4413-a7ed-e802f5486132" d="M842,642.82A114.82,114.82,0,0,1,724.45,757.61c-60.91-1.43-110.59-51.11-112-112A114.82,114.82,0,1,1,842,642.82"/><circle class="0a52c627-e84b-4413-a7ed-e802f5486132" cx="723.93" cy="727.07" r="32.57"/><circle class="0a52c627-e84b-4413-a7ed-e802f5486132" cx="723.88" cy="679.32" r="77.59"/><path class="6a571ece-e9a9-4869-a450-43594dd89caf" d="M285.22,453.44A120.25,120.25,0,1,1,165,333.19,120.25,120.25,0,0,1,285.22,453.44"/><circle class="6a571ece-e9a9-4869-a450-43594dd89caf" cx="374.85" cy="453.44" r="89.63"/><circle class="6a571ece-e9a9-4869-a450-43594dd89caf" cx="296.91" cy="604.29" r="80.17"/><circle class="6a571ece-e9a9-4869-a450-43594dd89caf" cx="296.16" cy="308.84" r="74.99"/><circle class="6a571ece-e9a9-4869-a450-43594dd89caf" cx="168.51" cy="276.54" r="56.69"/><circle class="6a571ece-e9a9-4869-a450-43594dd89caf" cx="165.62" cy="626.71" r="53.03"/><circle class="6a571ece-e9a9-4869-a450-43594dd89caf" cx="419.53" cy="322.11" r="49.09"/><circle class="6a571ece-e9a9-4869-a450-43594dd89caf" cx="414.05" cy="577.09" r="40.08"/><circle class="6a571ece-e9a9-4869-a450-43594dd89caf" cx="80.64" cy="317.07" r="40.08"/><circle class="6a571ece-e9a9-4869-a450-43594dd89caf" cx="80.25" cy="589.56" r="40.08"/><circle class="6a571ece-e9a9-4869-a450-43594dd89caf" cx="237.86" cy="212.03" r="38.03"/><circle class="6a571ece-e9a9-4869-a450-43594dd89caf" cx="223.52" cy="694.15" r="35.85"/><circle class="6a571ece-e9a9-4869-a450-43594dd89caf" cx="470.99" cy="530.42" r="33.54"/><circle class="6a571ece-e9a9-4869-a450-43594dd89caf" cx="474.07" cy="382.55" r="32.32"/><circle class="6a571ece-e9a9-4869-a450-43594dd89caf" cx="399.7" cy="646.76" r="31.05"/><circle class="6a571ece-e9a9-4869-a450-43594dd89caf" cx="384.42" cy="250.07" r="31.05"/><circle class="6a571ece-e9a9-4869-a450-43594dd89caf" cx="42.39" cy="372.05" r="26.89"/><circle class="6a571ece-e9a9-4869-a450-43594dd89caf" cx="51.92" cy="536.53" r="20.04"/><circle class="6a571ece-e9a9-4869-a450-43594dd89caf" cx="481.75" cy="477.94" r="20.04"/><circle class="6a571ece-e9a9-4869-a450-43594dd89caf" cx="33.04" cy="501.17" r="20.04"/><circle class="6a571ece-e9a9-4869-a450-43594dd89caf" cx="478.94" cy="431.39" r="16.77"/><circle class="6a571ece-e9a9-4869-a450-43594dd89caf" cx="35.1" cy="413.83" r="15.52"/><circle class="6a571ece-e9a9-4869-a450-43594dd89caf" cx="103.91" cy="632.52" r="8.96"/></g><g id="c10af675-cd00-4ee7-bcc6-43f5253a4b64" data-name="Capa 3"><text class="db8ec976-eeb6-45ae-a9d5-58fefea79218" transform="translate(51.99 67.58)">Cada círculo representa el valor de un futbolista en millones de euros</text><text class="a54f212c-e073-4a23-8615-4a1553b6d5c9" transform="translate(32.6 37.6)">El valor de la selección argentina e islandesa</text></g><g id="0798084e-5578-48d8-87e7-d091239dabe7" data-name="Capa 2"><text class="5e7ee5bd-c4a9-45f2-8779-cd31886816d9" transform="translate(164.13 144.1)">ARGENTIN<tspan class="8cfe3385-0da5-42b0-b740-8ffd158a36c6" x="167.11" y="0">A</tspan></text><text class="5e7ee5bd-c4a9-45f2-8779-cd31886816d9" transform="translate(613.68 217.1)">ISLANDI<tspan class="8cfe3385-0da5-42b0-b740-8ffd158a36c6" x="128" y="0">A</tspan></text><text class="b6687164-b437-4b87-9709-0aa12c66fc8c" transform="translate(6.3 789.1)">Fuente: Elaboración propia a partir de<tspan class="4a9bccf8-b7e4-4603-a727-e499f74f4ade" x="335.76" y="0"> </tspan><tspan class="8cfe3385-0da5-42b0-b740-8ffd158a36c6" x="340.96" y="0">T</tspan><tspan x="352.43" y="0">ransfermarkt</tspan></text><text class="b6687164-b437-4b87-9709-0aa12c66fc8c" transform="translate(687.36 791.1)">L<tspan class="eeecaf50-2819-4767-b95a-51308bca8ef0" x="11.12" y="0">A</tspan><tspan x="23.36" y="0"> </tspan><tspan class="50b3b823-c4d3-4d54-8cec-42ad6651a94b" x="28.92" y="0">V</tspan><tspan x="40.77" y="0">ANGUARDI</tspan><tspan class="eeecaf50-2819-4767-b95a-51308bca8ef0" x="146.34" y="0">A</tspan></text><circle class="f0e6875b-3e7c-4f4f-9a91-1521731126d9" cx="656.43" cy="352.78" r="49.09"/><circle class="f0e6875b-3e7c-4f4f-9a91-1521731126d9" cx="733.87" cy="352.78" r="28.34"/><circle class="f0e6875b-3e7c-4f4f-9a91-1521731126d9" cx="713.12" cy="405.53" r="28.34"/><circle class="f0e6875b-3e7c-4f4f-9a91-1521731126d9" cx="710.33" cy="312.94" r="17.93"/><circle class="f0e6875b-3e7c-4f4f-9a91-1521731126d9" cx="682.46" cy="292.28" r="16.77"/><circle class="f0e6875b-3e7c-4f4f-9a91-1521731126d9" cx="670.11" cy="416.45" r="16.03"/><circle class="f0e6875b-3e7c-4f4f-9a91-1521731126d9" cx="742.38" cy="311.12" r="14.17"/><circle class="f0e6875b-3e7c-4f4f-9a91-1521731126d9" cx="651.63" cy="289.7" r="14.17"/><circle class="f0e6875b-3e7c-4f4f-9a91-1521731126d9" cx="751.09" cy="390.01" r="12.68"/><circle class="f0e6875b-3e7c-4f4f-9a91-1521731126d9" cx="641.64" cy="412.75" r="12.68"/><circle class="f0e6875b-3e7c-4f4f-9a91-1521731126d9" cx="708.97" cy="284.07" r="10.98"/><circle class="f0e6875b-3e7c-4f4f-9a91-1521731126d9" cx="628.51" cy="299.59" r="10.98"/><circle class="f0e6875b-3e7c-4f4f-9a91-1521731126d9" cx="729.78" cy="289.79" r="10.61"/><circle class="f0e6875b-3e7c-4f4f-9a91-1521731126d9" cx="652.25" cy="434.93" r="10.02"/><circle class="f0e6875b-3e7c-4f4f-9a91-1521731126d9" cx="759.35" cy="326.16" r="8.5"/><circle class="f0e6875b-3e7c-4f4f-9a91-1521731126d9" cx="626.57" cy="400.19" r="6.94"/><circle class="f0e6875b-3e7c-4f4f-9a91-1521731126d9" cx="666.5" cy="275.57" r="6.34"/><circle class="f0e6875b-3e7c-4f4f-9a91-1521731126d9" cx="760.84" cy="374.06" r="6.01"/><circle class="f0e6875b-3e7c-4f4f-9a91-1521731126d9" cx="695.63" cy="274.11" r="5.67"/><circle class="f0e6875b-3e7c-4f4f-9a91-1521731126d9" cx="619.31" cy="313.02" r="5.3"/><circle class="f0e6875b-3e7c-4f4f-9a91-1521731126d9" cx="620.01" cy="391.42" r="4.01"/><circle class="f0e6875b-3e7c-4f4f-9a91-1521731126d9" cx="665.86" cy="439.18" r="4.01"/><circle class="f0e6875b-3e7c-4f4f-9a91-1521731126d9" cx="745.47" cy="405.72" r="4.01"/></g></svg>