<svg xmlns="http://www.w3.org/2000/svg" viewBox="0 0 500 605"><defs><style>.\31 c0bc3aa-1e42-4fcc-9af4-8328068d15c5,.c6e0e15b-8f04-4709-b0ee-87cbdab3da21{fill:none;}.\31 c0bc3aa-1e42-4fcc-9af4-8328068d15c5{stroke:#b2b2b2;opacity:0.5;}.c6e0e15b-8f04-4709-b0ee-87cbdab3da21{stroke:#323232;}.\34 832177e-63f4-4ce9-b25b-2e43f0ae7e1d,.\37 6c45d1e-db7d-4265-91ad-2dcc6b958f3c{font-size:16px;font-family:Arial-BoldMT, Arial;font-weight:700;}.\37 6c45d1e-db7d-4265-91ad-2dcc6b958f3c,.\37 c46d1e7-4b5d-4035-8cf9-79d48285c4dd{fill:#323232;}.\35 246d65d-c89c-489b-b65d-fe72076347b1{letter-spacing:-0.04em;}.\32 99a0c32-80ae-4f83-aaf0-c772bc674470,.\37 c46d1e7-4b5d-4035-8cf9-79d48285c4dd{font-size:11px;}.\32 99a0c32-80ae-4f83-aaf0-c772bc674470,.\36 6f23c44-bd4e-429f-9f49-4ee3a87c454b,.\37 c46d1e7-4b5d-4035-8cf9-79d48285c4dd,.b5affb78-9858-4421-ac07-8d67e1536761{font-family:ArialMT, Arial;}.\37 2e20fc3-289d-446e-801a-260315f0ef2c{letter-spacing:-0.07em;}.bfdefa65-e978-42e9-bcc7-fb5335ae616a{letter-spacing:-0.06em;}.c0024997-d9d6-4474-90b5-9399389b4957{letter-spacing:0em;}.\32 09c31f5-b5c4-4c61-8590-af605593a5e5{letter-spacing:-0.04em;}.b5affb78-9858-4421-ac07-8d67e1536761{font-size:10px;}.\32 99a0c32-80ae-4f83-aaf0-c772bc674470,.\34 832177e-63f4-4ce9-b25b-2e43f0ae7e1d,.\36 6f23c44-bd4e-429f-9f49-4ee3a87c454b,.\37 7c53823-0a16-465b-8ebd-6f0d47f16d58,.b5affb78-9858-4421-ac07-8d67e1536761{fill:#757575;}.\30 6308bcc-7ced-4a27-be95-39cef474078b{letter-spacing:-0.06em;}.\36 6f23c44-bd4e-429f-9f49-4ee3a87c454b{font-size:12.29px;}.\36 990926f-255a-4706-be83-f648b4c8573c{letter-spacing:-0.02em;}.e0419642-3166-4936-8e90-c0f121e623e2{font-size:12px;}.\31 9f7b32b-4a5f-4db8-a2b7-c4bb162c4baa{opacity:0.7;}.\38 79f75b3-8a87-4129-a3db-d7e155149b7c{fill:#e6ab02;}.\34 9eb873d-9f99-4d99-b87b-b9a241bf7200,.\36 81db089-fff9-4fcc-840f-1e3b948ce2bf,.\38 17938c0-4192-4451-b997-04c4976dc120,.\38 79f75b3-8a87-4129-a3db-d7e155149b7c,.\38 b680322-e96c-47d5-af62-7705252f4db9,.\39 397f8b3-4545-4956-83a5-75df398484ba,.a0cb7dc6-8416-4bef-87db-a6895299968b{stroke:#fff;stroke-linejoin:round;}.\38 b680322-e96c-47d5-af62-7705252f4db9{fill:#13375e;}.\39 397f8b3-4545-4956-83a5-75df398484ba{fill:#fcf503;}.a0cb7dc6-8416-4bef-87db-a6895299968b{fill:#a01f51;}.\36 81db089-fff9-4fcc-840f-1e3b948ce2bf{fill:#c1081a;}.\34 9eb873d-9f99-4d99-b87b-b9a241bf7200{fill:#4cbcbf;}.\38 17938c0-4192-4451-b997-04c4976dc120{fill:#d95f02;}.\37 7c53823-0a16-465b-8ebd-6f0d47f16d58{opacity:0.75;}</style></defs><title>2018.05_CisCatalanas_Edad</title><g id="5a8be808-e8b1-4b0e-b16d-cfd450fe8956" data-name="líneas"><circle class="1c0bc3aa-1e42-4fcc-9af4-8328068d15c5" cx="95.6" cy="133.32" r="14.13"/><circle class="1c0bc3aa-1e42-4fcc-9af4-8328068d15c5" cx="95.6" cy="135.32" r="28.26"/><circle class="1c0bc3aa-1e42-4fcc-9af4-8328068d15c5" cx="95.6" cy="135.32" r="42.53"/><circle class="1c0bc3aa-1e42-4fcc-9af4-8328068d15c5" cx="95.6" cy="135.6" r="56.52"/><circle class="1c0bc3aa-1e42-4fcc-9af4-8328068d15c5" cx="95.6" cy="135.6" r="70.65"/><line class="1c0bc3aa-1e42-4fcc-9af4-8328068d15c5" x1="95.6" y1="214.7" x2="95.6" y2="47"/><line class="1c0bc3aa-1e42-4fcc-9af4-8328068d15c5" x1="25.37" y1="95.05" x2="165.83" y2="176.15"/><line class="1c0bc3aa-1e42-4fcc-9af4-8328068d15c5" x1="165.83" y1="93.05" x2="25.37" y2="174.15"/><circle class="1c0bc3aa-1e42-4fcc-9af4-8328068d15c5" cx="95.6" cy="313.32" r="14.13"/><circle class="1c0bc3aa-1e42-4fcc-9af4-8328068d15c5" cx="95.6" cy="313.32" r="28.26"/><circle class="1c0bc3aa-1e42-4fcc-9af4-8328068d15c5" cx="95.6" cy="313.32" r="42.53"/><circle class="1c0bc3aa-1e42-4fcc-9af4-8328068d15c5" cx="95.6" cy="313.6" r="56.52"/><circle class="1c0bc3aa-1e42-4fcc-9af4-8328068d15c5" cx="95.6" cy="313.6" r="70.65"/><line class="1c0bc3aa-1e42-4fcc-9af4-8328068d15c5" x1="95.6" y1="394.7" x2="95.6" y2="226"/><line class="1c0bc3aa-1e42-4fcc-9af4-8328068d15c5" x1="25.37" y1="273.05" x2="165.83" y2="354.15"/><line class="1c0bc3aa-1e42-4fcc-9af4-8328068d15c5" x1="165.83" y1="273.05" x2="25.37" y2="354.15"/><circle class="1c0bc3aa-1e42-4fcc-9af4-8328068d15c5" cx="256.6" cy="312.32" r="14.13"/><circle class="1c0bc3aa-1e42-4fcc-9af4-8328068d15c5" cx="256.6" cy="312.32" r="28.26"/><circle class="1c0bc3aa-1e42-4fcc-9af4-8328068d15c5" cx="256.6" cy="312.32" r="42.53"/><circle class="1c0bc3aa-1e42-4fcc-9af4-8328068d15c5" cx="256.6" cy="312.6" r="56.52"/><circle class="1c0bc3aa-1e42-4fcc-9af4-8328068d15c5" cx="256.6" cy="312.6" r="70.65"/><line class="1c0bc3aa-1e42-4fcc-9af4-8328068d15c5" x1="256.6" y1="393.7" x2="256.6" y2="226"/><line class="1c0bc3aa-1e42-4fcc-9af4-8328068d15c5" x1="186.37" y1="272.05" x2="326.83" y2="353.15"/><line class="1c0bc3aa-1e42-4fcc-9af4-8328068d15c5" x1="326.83" y1="272.05" x2="186.37" y2="353.15"/><circle class="1c0bc3aa-1e42-4fcc-9af4-8328068d15c5" cx="418.6" cy="310.32" r="14.13"/><circle class="1c0bc3aa-1e42-4fcc-9af4-8328068d15c5" cx="418.6" cy="310.32" r="28.26"/><circle class="1c0bc3aa-1e42-4fcc-9af4-8328068d15c5" cx="418.6" cy="310.32" r="42.53"/><circle class="1c0bc3aa-1e42-4fcc-9af4-8328068d15c5" cx="418.6" cy="310.6" r="56.52"/><circle class="1c0bc3aa-1e42-4fcc-9af4-8328068d15c5" cx="418.6" cy="310.6" r="70.65"/><line class="1c0bc3aa-1e42-4fcc-9af4-8328068d15c5" x1="418.6" y1="391.7" x2="418.6" y2="226"/><line class="1c0bc3aa-1e42-4fcc-9af4-8328068d15c5" x1="348.37" y1="270.05" x2="488.83" y2="351.15"/><line class="1c0bc3aa-1e42-4fcc-9af4-8328068d15c5" x1="488.83" y1="270.05" x2="348.37" y2="351.15"/><circle class="1c0bc3aa-1e42-4fcc-9af4-8328068d15c5" cx="95.6" cy="490.32" r="14.13"/><circle class="1c0bc3aa-1e42-4fcc-9af4-8328068d15c5" cx="95.6" cy="490.32" r="28.26"/><circle class="1c0bc3aa-1e42-4fcc-9af4-8328068d15c5" cx="95.6" cy="490.32" r="42.53"/><circle class="1c0bc3aa-1e42-4fcc-9af4-8328068d15c5" cx="95.6" cy="490.6" r="56.52"/><circle class="1c0bc3aa-1e42-4fcc-9af4-8328068d15c5" cx="95.6" cy="490.6" r="70.65"/><line class="1c0bc3aa-1e42-4fcc-9af4-8328068d15c5" x1="95.6" y1="571.7" x2="95.6" y2="403"/><line class="1c0bc3aa-1e42-4fcc-9af4-8328068d15c5" x1="25.37" y1="450.05" x2="165.83" y2="531.15"/><line class="1c0bc3aa-1e42-4fcc-9af4-8328068d15c5" x1="165.83" y1="450.05" x2="25.37" y2="531.15"/><circle class="1c0bc3aa-1e42-4fcc-9af4-8328068d15c5" cx="430.64" cy="506.39" r="10.78"/><circle class="1c0bc3aa-1e42-4fcc-9af4-8328068d15c5" cx="430.64" cy="506.39" r="21.57"/><circle class="1c0bc3aa-1e42-4fcc-9af4-8328068d15c5" cx="430.64" cy="506.39" r="32.46"/><circle class="1c0bc3aa-1e42-4fcc-9af4-8328068d15c5" cx="430.64" cy="506.6" r="43.13"/><circle class="1c0bc3aa-1e42-4fcc-9af4-8328068d15c5" cx="430.64" cy="506.6" r="53.92"/><line class="1c0bc3aa-1e42-4fcc-9af4-8328068d15c5" x1="430.64" y1="568.49" x2="430.64" y2="431.47"/><line class="1c0bc3aa-1e42-4fcc-9af4-8328068d15c5" x1="377.04" y1="475.66" x2="484.24" y2="537.55"/><line class="1c0bc3aa-1e42-4fcc-9af4-8328068d15c5" x1="484.24" y1="475.66" x2="377.04" y2="537.55"/><circle class="1c0bc3aa-1e42-4fcc-9af4-8328068d15c5" cx="256.02" cy="135.32" r="14.13"/><circle class="1c0bc3aa-1e42-4fcc-9af4-8328068d15c5" cx="256.02" cy="135.32" r="28.26"/><circle class="1c0bc3aa-1e42-4fcc-9af4-8328068d15c5" cx="256.02" cy="135.32" r="42.53"/><circle class="1c0bc3aa-1e42-4fcc-9af4-8328068d15c5" cx="256.02" cy="135.6" r="56.52"/><circle class="1c0bc3aa-1e42-4fcc-9af4-8328068d15c5" cx="256.02" cy="135.6" r="70.65"/><line class="1c0bc3aa-1e42-4fcc-9af4-8328068d15c5" x1="256.02" y1="216.7" x2="256.02" y2="47"/><line class="1c0bc3aa-1e42-4fcc-9af4-8328068d15c5" x1="185.78" y1="95.05" x2="326.25" y2="176.15"/><line class="1c0bc3aa-1e42-4fcc-9af4-8328068d15c5" x1="326.25" y1="95.05" x2="185.78" y2="176.15"/><circle class="1c0bc3aa-1e42-4fcc-9af4-8328068d15c5" cx="419.13" cy="135.22" r="14.13"/><circle class="1c0bc3aa-1e42-4fcc-9af4-8328068d15c5" cx="419.13" cy="135.22" r="28.26"/><circle class="1c0bc3aa-1e42-4fcc-9af4-8328068d15c5" cx="419.13" cy="135.22" r="42.53"/><circle class="1c0bc3aa-1e42-4fcc-9af4-8328068d15c5" cx="419.13" cy="135.51" r="56.52"/><circle class="1c0bc3aa-1e42-4fcc-9af4-8328068d15c5" cx="419.13" cy="135.51" r="70.65"/><line class="1c0bc3aa-1e42-4fcc-9af4-8328068d15c5" x1="419.13" y1="216.61" x2="419.13" y2="47"/><line class="1c0bc3aa-1e42-4fcc-9af4-8328068d15c5" x1="348.89" y1="94.96" x2="489.36" y2="176.06"/><line class="1c0bc3aa-1e42-4fcc-9af4-8328068d15c5" x1="489.36" y1="94.96" x2="348.89" y2="176.06"/><line class="c6e0e15b-8f04-4709-b0ee-87cbdab3da21" x1="213.5" y1="424.5" x2="488.5" y2="424.5"/><line class="c6e0e15b-8f04-4709-b0ee-87cbdab3da21" x1="13.5" y1="38.5" x2="495.5" y2="38.5"/></g><g id="82ed97f0-5760-47a1-9b06-b484482896f7" data-name="Capa 1"><text class="76c45d1e-db7d-4265-91ad-2dcc6b958f3c" transform="translate(13.67 18.12)"><tspan class="5246d65d-c89c-489b-b65d-fe72076347b1">A</tspan><tspan x="10.96" y="0" xml:space="preserve"> qué partidos políticos se sienten más cercanos los catalanes</tspan></text><text class="7c46d1e7-4b5d-4035-8cf9-79d48285c4dd" transform="translate(121.09 33.54)">POR PORCEN<tspan class="72e20fc3-289d-446e-801a-260315f0ef2c" x="73.95" y="0">T</tspan><tspan x="79.86" y="0">AJE DE L</tspan><tspan class="bfdefa65-e978-42e9-bcc7-fb5335ae616a" x="127.54" y="0">A</tspan><tspan class="c0024997-d9d6-4474-90b5-9399389b4957" x="134.27" y="0" xml:space="preserve"> POBLACIÓN, SEGÚN E</tspan><tspan class="209c31f5-b5c4-4c61-8590-af605593a5e5" x="257.14" y="0">L</tspan><tspan x="262.85" y="0" xml:space="preserve"> NIVE</tspan><tspan class="5246d65d-c89c-489b-b65d-fe72076347b1" x="291.58" y="0">L</tspan><tspan x="297.29" y="0" xml:space="preserve"> DE ESTUDIOS</tspan></text><text class="b5affb78-9858-4421-ac07-8d67e1536761" transform="translate(2.67 603.83)">Fuente: Estudio Postelectoral de Catalunya del CIS</text><text class="b5affb78-9858-4421-ac07-8d67e1536761" transform="translate(418.71 603.83)">L<tspan class="06308bcc-7ced-4a27-be95-39cef474078b" x="5.56" y="0">A</tspan><tspan x="11.68" y="0"> </tspan><tspan class="72e20fc3-289d-446e-801a-260315f0ef2c" x="14.46" y="0">V</tspan><tspan x="20.39" y="0">ANGUARDI</tspan><tspan class="06308bcc-7ced-4a27-be95-39cef474078b" x="73.17" y="0">A</tspan></text><text class="66f23c44-bd4e-429f-9f49-4ee3a87c454b" transform="translate(432.87 510.71)">0%</text><text class="66f23c44-bd4e-429f-9f49-4ee3a87c454b" transform="translate(433.87 440.62)">50%</text><text class="4832177e-63f4-4ce9-b25b-2e43f0ae7e1d" transform="translate(98 58.9)">ERC</text><text class="4832177e-63f4-4ce9-b25b-2e43f0ae7e1d" transform="translate(258 58.9)">JxC<tspan class="72e20fc3-289d-446e-801a-260315f0ef2c" x="29.35" y="0">A</tspan><tspan x="39.72" y="0">T</tspan></text><text class="4832177e-63f4-4ce9-b25b-2e43f0ae7e1d" transform="translate(422 57.9)">CU<tspan class="6990926f-255a-4706-be83-f648b4c8573c" x="23.11" y="0">P</tspan></text><text class="4832177e-63f4-4ce9-b25b-2e43f0ae7e1d" transform="translate(98 234.9)">CeC-<tspan class="6990926f-255a-4706-be83-f648b4c8573c" x="37.34" y="0">P</tspan></text><text class="4832177e-63f4-4ce9-b25b-2e43f0ae7e1d" transform="translate(258 233.9)">C<tspan class="5246d65d-c89c-489b-b65d-fe72076347b1" x="11.55" y="0">’</tspan><tspan x="15.41" y="0">s</tspan></text><text class="4832177e-63f4-4ce9-b25b-2e43f0ae7e1d" transform="translate(421 232.9)">PSC</text><text class="4832177e-63f4-4ce9-b25b-2e43f0ae7e1d" transform="translate(98 415.9)">P<tspan class="6990926f-255a-4706-be83-f648b4c8573c" x="10.67" y="0">P</tspan></text><text class="7c46d1e7-4b5d-4035-8cf9-79d48285c4dd" transform="translate(211.33 419.67)">¿CÓMO LEER E<tspan class="5246d65d-c89c-489b-b65d-fe72076347b1" x="83.12" y="0">L</tspan><tspan class="c0024997-d9d6-4474-90b5-9399389b4957" x="88.83" y="0" xml:space="preserve"> GRÁFICO?</tspan></text><text class="299a0c32-80ae-4f83-aaf0-c772bc674470" transform="translate(213.33 443.67)">Cada círculo representa <tspan x="0" y="13.2">el porcentaje de población </tspan><tspan x="0" y="26.4">de cada nivel de estudios</tspan><tspan x="0" y="39.6">que se siente cerca o muy </tspan><tspan x="0" y="52.8">cerca de cada partido </tspan><tspan x="0" y="66">político. Cada fragmento </tspan><tspan x="0" y="79.2">del círculo representa</tspan><tspan x="0" y="92.4">una un nivel de estudios y es </tspan><tspan x="0" y="105.6">más grande o menos en </tspan><tspan x="0" y="120">función del porcentaje de apoyo</tspan><tspan class="e0419642-3166-4936-8e90-c0f121e623e2" x="155.95" y="120">.</tspan></text><g class="19f7b32b-4a5f-4db8-a2b7-c4bb162c4baa"><path class="879f75b3-8a87-4129-a3db-d7e155149b7c" d="M95.5,113.5c7-3,15,2,19,9L95.91,134Z"/><path class="879f75b3-8a87-4129-a3db-d7e155149b7c" d="M133.5,112.5c7,13,9,27,1,44L95.91,134Z"/><path class="879f75b3-8a87-4129-a3db-d7e155149b7c" d="M136.5,159.5c-9,16-24,24-41,24L95.91,134Z"/><path class="879f75b3-8a87-4129-a3db-d7e155149b7c" d="M96,203.65A69.61,69.61,0,0,1,35.7,169L95.91,134Z"/><path class="879f75b3-8a87-4129-a3db-d7e155149b7c" d="M37.5,167.92a67.53,67.53,0,0,1-.13-67.53L95.91,134Z"/><path class="879f75b3-8a87-4129-a3db-d7e155149b7c" d="M34.47,98.73A70.87,70.87,0,0,1,95.77,63.17L95.91,134Z"/></g><g class="19f7b32b-4a5f-4db8-a2b7-c4bb162c4baa"><path class="8b680322-e96c-47d5-af62-7705252f4db9" d="M256.27,104.91a30.69,30.69,0,0,1,26.57,15.37L256.25,135.6Z"/><path class="8b680322-e96c-47d5-af62-7705252f4db9" d="M289.5,116.5c6,12,7,26-1,38l-32.25-18.9Z"/><path class="8b680322-e96c-47d5-af62-7705252f4db9" d="M290.5,155.5c-7,11-21,20-34,20l-.25-39.9Z"/><path class="8b680322-e96c-47d5-af62-7705252f4db9" d="M256.21,190.2a54.6,54.6,0,0,1-47.27-27.34l47.31-27.26Z"/><path class="8b680322-e96c-47d5-af62-7705252f4db9" d="M208,163.43a55.73,55.73,0,0,1,0-55.73l48.24,27.9Z"/><path class="8b680322-e96c-47d5-af62-7705252f4db9" d="M207,107.14a56.84,56.84,0,0,1,49.24-28.38l0,56.84Z"/></g><g class="19f7b32b-4a5f-4db8-a2b7-c4bb162c4baa"><path class="9397f8b3-4545-4956-83a5-75df398484ba" d="M419.47,116.42a19.21,19.21,0,0,1,16.6,9.66l-16.67,9.55Z"/><path class="9397f8b3-4545-4956-83a5-75df398484ba" d="M438.91,124.46a22.48,22.48,0,0,1-.07,22.48l-19.43-11.3Z"/><path class="9397f8b3-4545-4956-83a5-75df398484ba" d="M445.5,150.5c-3,9-16,17-26,15l-.09-29.87Z"/><path class="9397f8b3-4545-4956-83a5-75df398484ba" d="M419.28,175.64a40,40,0,0,1-34.58-20.12l34.71-19.89Z"/><path class="9397f8b3-4545-4956-83a5-75df398484ba" d="M388.54,153.32a35.58,35.58,0,0,1,.12-35.58l30.75,17.89Z"/><path class="9397f8b3-4545-4956-83a5-75df398484ba" d="M381.5,113.5c7.41-12.74,23.26-21,38-21l-.09,43.13Z"/></g><g class="19f7b32b-4a5f-4db8-a2b7-c4bb162c4baa"><path class="a0cb7dc6-8416-4bef-87db-a6895299968b" d="M96.5,303.5c4.14,0,6,1.39,8,5L96,314.07Z"/><path class="a0cb7dc6-8416-4bef-87db-a6895299968b" d="M118.68,301.32a26,26,0,0,1-.29,26L96,314.07Z"/><path class="a0cb7dc6-8416-4bef-87db-a6895299968b" d="M117.75,326.95a25.26,25.26,0,0,1-22,12.38L96,314.07Z"/><path class="a0cb7dc6-8416-4bef-87db-a6895299968b" d="M95.7,342.41A28.34,28.34,0,0,1,71.32,328L96,314.07Z"/><path class="a0cb7dc6-8416-4bef-87db-a6895299968b" d="M72.4,327.36a27.09,27.09,0,0,1,.3-27.09L96,314.07Z"/><path class="a0cb7dc6-8416-4bef-87db-a6895299968b" d="M60.5,293.5c6.07-10.24,24-21.13,36-20l-.37,41.57Z"/></g><g class="19f7b32b-4a5f-4db8-a2b7-c4bb162c4baa"><path class="681db089-fff9-4fcc-840f-1e3b948ce2bf" d="M417.64,264.1A46,46,0,0,1,457.55,287l-39.82,23.09Z"/><path class="681db089-fff9-4fcc-840f-1e3b948ce2bf" d="M451.5,291.5c7.25,12.51,6.21,25.46-1,38l-32.78-19.37Z"/><path class="681db089-fff9-4fcc-840f-1e3b948ce2bf" d="M437.5,322.5c-4,8-11,11-20,11l.22-23.37Z"/><path class="681db089-fff9-4fcc-840f-1e3b948ce2bf" d="M417.5,329.5c-6,1-14.09-2-17-9l17.22-10.37Z"/><path class="681db089-fff9-4fcc-840f-1e3b948ce2bf" d="M398.5,321.5c-4-8-4-18,1-22l18.22,10.63Z"/><path class="681db089-fff9-4fcc-840f-1e3b948ce2bf" d="M398.5,299.5c2-6,13-12,19-11l.22,21.63Z"/></g><g class="19f7b32b-4a5f-4db8-a2b7-c4bb162c4baa"><path class="49eb873d-9f99-4d99-b87b-b9a241bf7200" d="M96.5,467.5c6.46.07,14.83,5.37,18,11L96,490Z"/><path class="49eb873d-9f99-4d99-b87b-b9a241bf7200" d="M108,483.21a13.86,13.86,0,0,1-.16,13.86L96,490Z"/><path class="49eb873d-9f99-4d99-b87b-b9a241bf7200" d="M105,495.33a10.45,10.45,0,0,1-9.11,5.12L96,490Z"/><path class="49eb873d-9f99-4d99-b87b-b9a241bf7200" d="M95.87,498.74a8.74,8.74,0,0,1-7.52-4.45L96,490Z"/><path class="49eb873d-9f99-4d99-b87b-b9a241bf7200" d="M87.23,494.91a10,10,0,0,1,.11-10L96,490Z"/><path class="49eb873d-9f99-4d99-b87b-b9a241bf7200" d="M88,485.3a9.23,9.23,0,0,1,8-4.52L96,490Z"/></g><g class="19f7b32b-4a5f-4db8-a2b7-c4bb162c4baa"><path class="817938c0-4192-4451-b997-04c4976dc120" d="M257.6,277.48a34.1,34.1,0,0,1,29.31,17.45l-29.76,16.66Z"/><path class="817938c0-4192-4451-b997-04c4976dc120" d="M285.71,295.59a32.74,32.74,0,0,1-.44,32.74l-28.13-16.75Z"/><path class="817938c0-4192-4451-b997-04c4976dc120" d="M286.51,329.06a34.18,34.18,0,0,1-29.82,16.69l.46-34.17Z"/><path class="817938c0-4192-4451-b997-04c4976dc120" d="M256.5,329.5c-7,0-12-3-15-8l15.64-9.92Z"/><path class="817938c0-4192-4451-b997-04c4976dc120" d="M236.5,323.5c-4-8-4-16,0-23l20.64,11.08Z"/><path class="817938c0-4192-4451-b997-04c4976dc120" d="M243.5,303.5c3-5,7-8,14-7l-.36,15.08Z"/></g><path class="77c53823-0a16-465b-8ebd-6f0d47f16d58" d="M440.39,450l.84,0a1.61,1.61,0,0,0,.19.77,1.51,1.51,0,0,0,.6.55,2.76,2.76,0,0,0,1,.31,2.63,2.63,0,0,0,.88,0,1.24,1.24,0,0,0,.62-.28.83.83,0,0,0,.27-.48.74.74,0,0,0-.09-.52,1.34,1.34,0,0,0-.53-.45,10.19,10.19,0,0,0-1.14-.47,7.86,7.86,0,0,1-1.25-.54,1.88,1.88,0,0,1-.67-.64,1.27,1.27,0,0,1-.17-.78,1.37,1.37,0,0,1,.39-.83,1.83,1.83,0,0,1,1-.51,3.72,3.72,0,0,1,1.33,0,3.86,3.86,0,0,1,1.35.43,1.9,1.9,0,0,1,.8.79,1.64,1.64,0,0,1,.16,1l-.87-.1a1.17,1.17,0,0,0-.33-.94,2.06,2.06,0,0,0-1.17-.48,2.15,2.15,0,0,0-1.26.11.77.77,0,0,0-.46.6.66.66,0,0,0,.21.57,4.33,4.33,0,0,0,1.31.61,8.11,8.11,0,0,1,1.43.62,1.94,1.94,0,0,1,.75.76,1.4,1.4,0,0,1,.11.9,1.6,1.6,0,0,1-.46.84,2,2,0,0,1-.95.51,3.24,3.24,0,0,1-1.25,0,4.19,4.19,0,0,1-1.41-.43,2.13,2.13,0,0,1-.85-.82A2,2,0,0,1,440.39,450Z"/><path class="77c53823-0a16-465b-8ebd-6f0d47f16d58" d="M447.38,447.74l.18-.84.85.19-.19.84Zm-1.1,5.09.93-4.3.83.19L447,453Z"/><path class="77c53823-0a16-465b-8ebd-6f0d47f16d58" d="M448.19,453.28l1.09-4.26.74.19-.16.6a1.8,1.8,0,0,1,1.72-.26,2.23,2.23,0,0,1,.75.38,1.26,1.26,0,0,1,.42.53,1.33,1.33,0,0,1,.07.6,3.76,3.76,0,0,1-.19.7l-.87,2.56-.73-.24.82-2.55a1.82,1.82,0,0,0,.12-.68.74.74,0,0,0-.22-.45,1.17,1.17,0,0,0-.52-.3,1.41,1.41,0,0,0-1,0,1.38,1.38,0,0,0-.67,1l-.63,2.32Z"/><path class="77c53823-0a16-465b-8ebd-6f0d47f16d58" d="M458.59,455.65l.69.45a1.94,1.94,0,0,1-1.1.61,2.54,2.54,0,0,1-2.54-1.42,2.3,2.3,0,0,1,.09-1.77,2.24,2.24,0,0,1,1.25-1.34,2.21,2.21,0,0,1,1.77.12,2.15,2.15,0,0,1,1.19,1.24,2.21,2.21,0,0,1-.22,1.78l-.1.18c-1.25-.65-1.89-.95-3.18-1.51a1.67,1.67,0,0,0,0,1.19,1.34,1.34,0,0,0,.72.75,1.26,1.26,0,0,0,.75.12A1.47,1.47,0,0,0,458.59,455.65Zm-1.88-2.2c1,.43,1.46.65,2.42,1.12a1.39,1.39,0,0,0,.09-.88,1.3,1.3,0,0,0-.74-.83,1.36,1.36,0,0,0-1-.08A1.28,1.28,0,0,0,456.72,453.45Z"/><path class="77c53823-0a16-465b-8ebd-6f0d47f16d58" d="M459.87,456.42l.74.27a1,1,0,0,0,0,.77,1.33,1.33,0,0,0,.6.61,1.29,1.29,0,0,0,.79.23.62.62,0,0,0,.48-.28.44.44,0,0,0,0-.46,3.33,3.33,0,0,0-.57-.63A9.48,9.48,0,0,1,461,456a1.19,1.19,0,0,1-.25-.62,1.05,1.05,0,0,1,.12-.6,1,1,0,0,1,.39-.41,1.26,1.26,0,0,1,.56-.17,1.8,1.8,0,0,1,.57.07,2.7,2.7,0,0,1,.67.28,3,3,0,0,1,.8.65,1.35,1.35,0,0,1,.34.68,1.48,1.48,0,0,1-.12.73l-.73-.34a.77.77,0,0,0,0-.62,1.23,1.23,0,0,0-.55-.54,1.43,1.43,0,0,0-.79-.26.48.48,0,0,0-.41.23.4.4,0,0,0,0,.28.75.75,0,0,0,.18.33l.53.52a8.87,8.87,0,0,1,.85.91,1.16,1.16,0,0,1,.24.61,1,1,0,0,1-.18.64,1.23,1.23,0,0,1-.57.47,1.49,1.49,0,0,1-.82.09,2.54,2.54,0,0,1-.91-.33,2.28,2.28,0,0,1-1-1A1.68,1.68,0,0,1,459.87,456.42Z"/><path class="77c53823-0a16-465b-8ebd-6f0d47f16d58" d="M465.05,460.37l-.29.6a3.13,3.13,0,0,1-.51-.28,1.39,1.39,0,0,1-.46-.47.75.75,0,0,1-.08-.46,2.58,2.58,0,0,1,.41-.79l1.4-2.11-.51-.33.31-.49.51.34.6-.91,1,.1-.87,1.27.69.48-.33.47-.68-.47-1.45,2.12a1.24,1.24,0,0,0-.2.36.32.32,0,0,0,0,.2.54.54,0,0,0,.19.2Z"/><path class="77c53823-0a16-465b-8ebd-6f0d47f16d58" d="M467.63,463.17l.41-.5a1.74,1.74,0,0,1-1.6-.32,2,2,0,0,1-.5-.57,1.27,1.27,0,0,1-.19-.61,1.4,1.4,0,0,1,.13-.59,3.63,3.63,0,0,1,.37-.59l1.6-2.2.67.5-1.47,1.95a4.05,4.05,0,0,0-.43.66.78.78,0,0,0,0,.56,1,1,0,0,0,.36.49,1.36,1.36,0,0,0,.62.27,1,1,0,0,0,.63-.09,2.23,2.23,0,0,0,.65-.58l1.5-1.82.64.54-2.84,3.35Z"/><path class="77c53823-0a16-465b-8ebd-6f0d47f16d58" d="M471.21,466.43l.39-.39a1.48,1.48,0,0,1-1.37-.43,1.9,1.9,0,0,1-.53-.9,2,2,0,0,1,0-1.08,2.7,2.7,0,0,1,.6-1.07,2.85,2.85,0,0,1,1-.74,1.73,1.73,0,0,1,1.09-.12,2.09,2.09,0,0,1,1,.54,1.76,1.76,0,0,1,.46.67,1.56,1.56,0,0,1,.1.71l1.54-1.54.6.61-4.36,4.23Zm-.29-3.31a1.86,1.86,0,0,0-.57,1.19,1.17,1.17,0,0,0,.36.91,1.15,1.15,0,0,0,.9.32,1.79,1.79,0,0,0,1.12-.61,1.91,1.91,0,0,0,.67-1.21,1.22,1.22,0,0,0-.39-1,1.17,1.17,0,0,0-1-.34A1.85,1.85,0,0,0,470.92,463.12Z"/><path class="77c53823-0a16-465b-8ebd-6f0d47f16d58" d="M476.38,464.29l.63-.58.58.64-.64.57Zm-3.83,3.54,3.23-3,.57.62-3.27,2.93Z"/><path class="77c53823-0a16-465b-8ebd-6f0d47f16d58" d="M475.33,467.64a2.1,2.1,0,0,1,1.87-.6,2.4,2.4,0,0,1,1.37.9,2.31,2.31,0,0,1,.55,1.7,2.08,2.08,0,0,1-.94,1.49,2.78,2.78,0,0,1-1.24.56,1.92,1.92,0,0,1-1.07-.18,2.46,2.46,0,0,1-.89-.71,2.21,2.21,0,0,1-.53-1.59A2.33,2.33,0,0,1,475.33,467.64Zm.54.64a1.81,1.81,0,0,0-.72,1.11,1.39,1.39,0,0,0,1.22,1.54,1.85,1.85,0,0,0,1.27-.46,1.67,1.67,0,0,0,.74-1.07,1.46,1.46,0,0,0-1.28-1.62A1.71,1.71,0,0,0,475.87,468.27Z"/><path class="77c53823-0a16-465b-8ebd-6f0d47f16d58" d="M477.76,472.18l.55.59a1,1,0,0,0-.35.69,1.38,1.38,0,0,0,.27.84,1.34,1.34,0,0,0,.61.57.62.62,0,0,0,.56,0,.44.44,0,0,0,.21-.41,3.47,3.47,0,0,0-.23-.84,9.85,9.85,0,0,1-.39-1.24,1.21,1.21,0,0,1,0-.67,1,1,0,0,1,.38-.49,1,1,0,0,1,.53-.19,1.27,1.27,0,0,1,.58.1,1.86,1.86,0,0,1,.48.33,2.82,2.82,0,0,1,.48.57,3.12,3.12,0,0,1,.44,1,1.39,1.39,0,0,1,0,.78,1.46,1.46,0,0,1-.43.6l-.51-.65a.77.77,0,0,0,.28-.56,1.28,1.28,0,0,0-.25-.75,1.49,1.49,0,0,0-.6-.6.48.48,0,0,0-.47,0,.39.39,0,0,0-.16.23.76.76,0,0,0,0,.38c0,.08.11.32.24.72a9.25,9.25,0,0,1,.36,1.22,1.19,1.19,0,0,1-.05.67,1,1,0,0,1-.45.49,1.21,1.21,0,0,1-.72.16,1.53,1.53,0,0,1-.78-.3,2.66,2.66,0,0,1-.68-.73,2.37,2.37,0,0,1-.47-1.34A1.67,1.67,0,0,1,477.76,472.18Z"/><path class="77c53823-0a16-465b-8ebd-6f0d47f16d58" d="M485,498.86l6.47-1.57c.28,1.17.41,1.76.62,2.94a7.55,7.55,0,0,1,.14,1.2,2.56,2.56,0,0,1-.17,1,1.67,1.67,0,0,1-.56.7,1.79,1.79,0,0,1-.87.34,2,2,0,0,1-1.5-.43,3.26,3.26,0,0,1-.91-2c-.13-.74-.21-1.11-.37-1.85l-2.64.58C485.13,499.39,485.09,499.22,485,498.86Zm3.62.14c.17.76.24,1.13.38,1.89a2.34,2.34,0,0,0,.53,1.29,1.18,1.18,0,0,0,1.62-.07,1.13,1.13,0,0,0,.29-.7,4.62,4.62,0,0,0-.1-1c-.14-.79-.22-1.18-.39-2Z"/><path class="77c53823-0a16-465b-8ebd-6f0d47f16d58" d="M486,505.08l4.8-.45c0,.33,0,.5.07.84l-.73.06a2,2,0,0,1,.72.54,1.11,1.11,0,0,1,.2.59,1.93,1.93,0,0,1-.22,1l-.77-.29a1.39,1.39,0,0,0,.15-.68.93.93,0,0,0-.19-.53.86.86,0,0,0-.47-.31,2.85,2.85,0,0,0-1-.08l-2.52.19C486.09,505.58,486.07,505.41,486,505.08Z"/><path class="77c53823-0a16-465b-8ebd-6f0d47f16d58" d="M491.94,508.15l.94,0c0,.39,0,.58,0,1H492C492,508.72,491.95,508.53,491.94,508.15Zm-5.72.12,4.82-.1c0,.37,0,.56,0,.93h-4.82C486.23,508.77,486.23,508.6,486.22,508.27Z"/><path class="77c53823-0a16-465b-8ebd-6f0d47f16d58" d="M486.22,510.38l4.82.13c0,.33,0,.5,0,.83l-.68,0a1.79,1.79,0,0,1,.53.71,2,2,0,0,1,.15,1,1.92,1.92,0,0,1-.31,1,1.19,1.19,0,0,1-.68.48,2,2,0,0,1,.62,1.77,1.73,1.73,0,0,1-.59,1.17,1.56,1.56,0,0,1-1.28.21l-3.26-.59c.06-.33.09-.49.14-.82l3,.49a2,2,0,0,0,.71,0,.7.7,0,0,0,.39-.26,1.08,1.08,0,0,0,.21-.52,1.32,1.32,0,0,0-.21-1,1.38,1.38,0,0,0-1-.49l-2.78-.32c0-.33.05-.5.09-.83l3.12.29a1.26,1.26,0,0,0,.84-.15.88.88,0,0,0,.33-.71,1.41,1.41,0,0,0-.13-.72,1,1,0,0,0-.51-.5,2.7,2.7,0,0,0-1-.19l-2.5-.12C486.2,510.88,486.21,510.72,486.22,510.38Z"/><path class="77c53823-0a16-465b-8ebd-6f0d47f16d58" d="M485.08,521.53a3.44,3.44,0,0,1-.28-1,2.82,2.82,0,0,1,.07-.93,1.91,1.91,0,0,1,.66-1.13,1.28,1.28,0,0,1,1.06-.23,1.25,1.25,0,0,1,.6.3,1.34,1.34,0,0,1,.37.54,2.08,2.08,0,0,1,.12.68,5.79,5.79,0,0,1-.07.8,11.18,11.18,0,0,0-.14,1.61l.2.06a.84.84,0,0,0,.75-.05,1.61,1.61,0,0,0,.54-.94,1.71,1.71,0,0,0,0-1,1.19,1.19,0,0,0-.59-.6c.12-.33.18-.5.29-.84a1.84,1.84,0,0,1,.73.56,1.73,1.73,0,0,1,.3.9,3.81,3.81,0,0,1-.13,1.25,3.45,3.45,0,0,1-.44,1.06,1.49,1.49,0,0,1-.53.51,1.18,1.18,0,0,1-.62.11,4,4,0,0,1-.73-.18l-1-.32a11.1,11.1,0,0,0-1.39-.37,1.82,1.82,0,0,0-.62,0c.11-.33.16-.5.25-.84A1.73,1.73,0,0,1,485.08,521.53Zm1.77.44a8.17,8.17,0,0,1,.08-1.47,3.25,3.25,0,0,0,0-.78.73.73,0,0,0-.18-.39.67.67,0,0,0-.35-.2.69.69,0,0,0-.59.13,1.17,1.17,0,0,0-.39.68,1.88,1.88,0,0,0,0,.9,1.34,1.34,0,0,0,.39.7,1.89,1.89,0,0,0,.75.36Z"/><path class="77c53823-0a16-465b-8ebd-6f0d47f16d58" d="M483.89,523.34l4.57,1.55-.28.79-.69-.25a2,2,0,0,1,.43.79,1.11,1.11,0,0,1-.06.62,1.93,1.93,0,0,1-.6.79l-.58-.58a1.39,1.39,0,0,0,.41-.56.93.93,0,0,0,0-.56.86.86,0,0,0-.3-.47A2.85,2.85,0,0,0,486,525l-2.37-.86Z"/><path class="77c53823-0a16-465b-8ebd-6f0d47f16d58" d="M488,528.56l.87.37-.39.89-.86-.38Zm-5.26-2.23,4.44,1.88-.37.86-4.4-2Z"/><path class="77c53823-0a16-465b-8ebd-6f0d47f16d58" d="M480.86,531.44a3.51,3.51,0,0,1,0-1.06,2.9,2.9,0,0,1,.3-.9,1.94,1.94,0,0,1,.92-1,1.28,1.28,0,0,1,1.09,0,1.24,1.24,0,0,1,.51.43,1.34,1.34,0,0,1,.22.62,2.11,2.11,0,0,1,0,.69,5.91,5.91,0,0,1-.26.77,11.58,11.58,0,0,0-.54,1.55l.18.11a.84.84,0,0,0,.74.12,1.65,1.65,0,0,0,.75-.79,1.75,1.75,0,0,0,.27-.95,1.19,1.19,0,0,0-.43-.73l.49-.75a1.83,1.83,0,0,1,.57.72,1.75,1.75,0,0,1,.07,1,3.89,3.89,0,0,1-.44,1.19,3.52,3.52,0,0,1-.69.94,1.51,1.51,0,0,1-.64.38,1.17,1.17,0,0,1-.63,0,4,4,0,0,1-.67-.35l-.93-.56a10.9,10.9,0,0,0-1.26-.7,1.8,1.8,0,0,0-.61-.12l.46-.76A1.71,1.71,0,0,1,480.86,531.44Zm1.62.85a8.45,8.45,0,0,1,.44-1.42,3.31,3.31,0,0,0,.21-.76.74.74,0,0,0-.08-.43.66.66,0,0,0-.29-.28.69.69,0,0,0-.61,0,1.19,1.19,0,0,0-.54.58,1.93,1.93,0,0,0-.24.88,1.35,1.35,0,0,0,.21.78,1.87,1.87,0,0,0,.64.53Z"/><path class="77c53823-0a16-465b-8ebd-6f0d47f16d58" d="M432.67,568.62l.78-.19a1.51,1.51,0,0,0,.38.67,1.43,1.43,0,0,0,.72.34,2.65,2.65,0,0,0,1,0,2.57,2.57,0,0,0,.83-.29,1.18,1.18,0,0,0,.48-.47.78.78,0,0,0,.08-.53.72.72,0,0,0-.27-.43,1.35,1.35,0,0,0-.63-.22c-.18,0-.57,0-1.16-.07a5.65,5.65,0,0,1-1.27-.15,1.64,1.64,0,0,1-.75-.43,1.26,1.26,0,0,1-.33-.69,1.44,1.44,0,0,1,.14-.86,1.66,1.66,0,0,1,.66-.7,3.12,3.12,0,0,1,1.06-.39,3.28,3.28,0,0,1,1.21,0,1.71,1.71,0,0,1,1.4,1.27l-.76.22a1.19,1.19,0,0,0-.59-.73,1.75,1.75,0,0,0-1.1-.07,1.82,1.82,0,0,0-1,.44.77.77,0,0,0-.23.67.65.65,0,0,0,.32.47,3.3,3.3,0,0,0,1.3.19,10,10,0,0,1,1.44.1,1.94,1.94,0,0,1,.92.41,1.38,1.38,0,0,1,.44.76,1.47,1.47,0,0,1-.1.92,1.88,1.88,0,0,1-.71.81,3.19,3.19,0,0,1-1.2.47,4,4,0,0,1-1.52,0,2,2,0,0,1-1-.54A1.81,1.81,0,0,1,432.67,568.62Z"/><path class="77c53823-0a16-465b-8ebd-6f0d47f16d58" d="M441.91,567.14l.81-.14a1.76,1.76,0,0,1-.41,1.17,2.29,2.29,0,0,1-1.21.71,2.24,2.24,0,0,1-1.74-.15,2.08,2.08,0,0,1-1-1.42,2.28,2.28,0,0,1,.19-1.75,2.09,2.09,0,0,1,1.32-.95,2,2,0,0,1,1.57.17,2.24,2.24,0,0,1,1,1.4l.05.18c-1.32.39-2,.57-3.32.9a1.53,1.53,0,0,0,.68.93,1.35,1.35,0,0,0,1,.11,1.29,1.29,0,0,0,.67-.4A1.36,1.36,0,0,0,441.91,567.14Zm-2.78-.46c1-.25,1.49-.38,2.47-.66a1.39,1.39,0,0,0-.5-.69,1.22,1.22,0,0,0-1-.15,1.26,1.26,0,0,0-.95,1.5Z"/><path class="77c53823-0a16-465b-8ebd-6f0d47f16d58" d="M446.44,565.49l.75-.18a1.75,1.75,0,0,1-.22,1.3,2,2,0,0,1-1.09.82,2.09,2.09,0,0,1-1.65-.06,2.14,2.14,0,0,1-1-1.38,2.8,2.8,0,0,1-.12-1.22,1.65,1.65,0,0,1,.47-1,2.32,2.32,0,0,1,.93-.58,2,2,0,0,1,1.24-.06,1.61,1.61,0,0,1,.9.73l-.66.35a1.16,1.16,0,0,0-.57-.48,1,1,0,0,0-.68,0,1.24,1.24,0,0,0-.76.66,2.29,2.29,0,0,0,.75,2.35,1.21,1.21,0,0,0,1,.07,1.16,1.16,0,0,0,.65-.5A1.22,1.22,0,0,0,446.44,565.49Z"/><path class="77c53823-0a16-465b-8ebd-6f0d47f16d58" d="M451.2,565.3l-.24-.57a1.73,1.73,0,0,1-1.1,1.23,2,2,0,0,1-.78.15,1.25,1.25,0,0,1-.63-.14,1.28,1.28,0,0,1-.42-.41,3.31,3.31,0,0,1-.28-.61l-.93-2.46.7-.27.86,2.19a3.76,3.76,0,0,0,.32.69.74.74,0,0,0,.46.3,1,1,0,0,0,.62-.07,1.38,1.38,0,0,0,.55-.41.94.94,0,0,0,.23-.59,2.08,2.08,0,0,0-.21-.81l-.89-2.09.69-.3,1.7,3.88Z"/><path class="77c53823-0a16-465b-8ebd-6f0d47f16d58" d="M453,564.5l-1.76-3.85.61-.28.26.55a1.66,1.66,0,0,1,1-1.24,2,2,0,0,1,.72-.21,1.18,1.18,0,0,1,.61.09,1.35,1.35,0,0,1,.45.36,3.82,3.82,0,0,1,.36.6l1.2,2.31-.71.36-1.17-2.3a1.83,1.83,0,0,0-.38-.54.71.71,0,0,0-.44-.17,1.06,1.06,0,0,0-.53.12,1.29,1.29,0,0,0-.62.63,1.39,1.39,0,0,0,.15,1.15l1,2.09Z"/><path class="77c53823-0a16-465b-8ebd-6f0d47f16d58" d="M460.15,560.75l-.27-.46a1.47,1.47,0,0,1-.81,1.2,1.93,1.93,0,0,1-1,.26,1.85,1.85,0,0,1-1-.34,2.49,2.49,0,0,1-.77-.89,2.89,2.89,0,0,1-.35-1.12,1.73,1.73,0,0,1,.21-1,1.88,1.88,0,0,1,.73-.72,1.55,1.55,0,0,1,.7-.22,1.51,1.51,0,0,1,.65.1l-1.07-1.8.62-.38,3,5Zm-3.2-.6a1.72,1.72,0,0,0,.92.88,1.16,1.16,0,0,0,1-.09,1.14,1.14,0,0,0,.57-.77,1.65,1.65,0,0,0-.29-1.19,1.93,1.93,0,0,0-1-.92,1.13,1.13,0,0,0-1,.09,1.09,1.09,0,0,0-.54.76A1.87,1.87,0,0,0,456.95,560.15Z"/><path class="77c53823-0a16-465b-8ebd-6f0d47f16d58" d="M464.1,557.6a2.9,2.9,0,0,1-.43.87,2.62,2.62,0,0,1-.65.6,1.78,1.78,0,0,1-1.18.36,1.07,1.07,0,0,1-.81-.52,1.1,1.1,0,0,1-.17-.56,1.22,1.22,0,0,1,.12-.56,1.94,1.94,0,0,1,.34-.5,6.15,6.15,0,0,1,.51-.47,6.82,6.82,0,0,0,1-1l-.1-.16a.77.77,0,0,0-.53-.39,1.34,1.34,0,0,0-.85.28,1.42,1.42,0,0,0-.56.58,1.09,1.09,0,0,0,0,.73l-.68.32a1.72,1.72,0,0,1-.11-.79,1.49,1.49,0,0,1,.33-.72,3.22,3.22,0,0,1,.76-.68,2.89,2.89,0,0,1,.83-.41,1.25,1.25,0,0,1,.61,0,1.11,1.11,0,0,1,.47.26,3.69,3.69,0,0,1,.41.52l.55.78a9.27,9.27,0,0,0,.77,1,1.47,1.47,0,0,0,.46.3l-.68.48A1.41,1.41,0,0,1,464.1,557.6Zm-1-1.28a5.57,5.57,0,0,1-.9.93,3.25,3.25,0,0,0-.49.49.67.67,0,0,0-.13.36.57.57,0,0,0,.09.35.59.59,0,0,0,.46.27,1.08,1.08,0,0,0,.69-.22,1.71,1.71,0,0,0,.57-.6,1.15,1.15,0,0,0,.15-.7,1.6,1.6,0,0,0-.3-.66Z"/><path class="77c53823-0a16-465b-8ebd-6f0d47f16d58" d="M466,556.89l-2.5-3.42.54-.4.38.52a1.81,1.81,0,0,1,0-.76.87.87,0,0,1,.3-.41,1.55,1.55,0,0,1,.75-.29l.2.69a1.16,1.16,0,0,0-.54.22.76.76,0,0,0-.27.38.78.78,0,0,0,0,.48,2.65,2.65,0,0,0,.4.75l1.33,1.78Z"/><path class="77c53823-0a16-465b-8ebd-6f0d47f16d58" d="M465.29,551.12l-.51-.65.57-.46.52.64Zm3.12,3.93-2.63-3.32.59-.47,2.67,3.29Z"/><path class="77c53823-0a16-465b-8ebd-6f0d47f16d58" d="M471.93,551.38a2.92,2.92,0,0,1-.31.92,2.63,2.63,0,0,1-.57.69,1.79,1.79,0,0,1-1.13.52,1.07,1.07,0,0,1-.88-.4,1.1,1.1,0,0,1-.25-.54,1.22,1.22,0,0,1,0-.57,2,2,0,0,1,.27-.54,6.19,6.19,0,0,1,.45-.53,6.87,6.87,0,0,0,.86-1.1l-.12-.14a.77.77,0,0,0-.58-.31,1.35,1.35,0,0,0-.81.39,1.43,1.43,0,0,0-.48.65,1.09,1.09,0,0,0,.12.72l-.63.41a1.72,1.72,0,0,1-.21-.77,1.5,1.5,0,0,1,.23-.76,3.24,3.24,0,0,1,.66-.77,2.91,2.91,0,0,1,.77-.52,1.26,1.26,0,0,1,.6-.12,1.11,1.11,0,0,1,.5.2,3.67,3.67,0,0,1,.48.46l.65.7a9.24,9.24,0,0,0,.9.89,1.46,1.46,0,0,0,.49.23l-.61.57A1.4,1.4,0,0,1,471.93,551.38Zm-1.13-1.14a5.61,5.61,0,0,1-.77,1,3.28,3.28,0,0,0-.42.55.67.67,0,0,0-.08.38.57.57,0,0,0,.14.33.59.59,0,0,0,.49.21,1.09,1.09,0,0,0,.66-.31,1.73,1.73,0,0,0,.49-.67,1.15,1.15,0,0,0,.06-.72,1.59,1.59,0,0,0-.39-.62Z"/><path class="77c53823-0a16-465b-8ebd-6f0d47f16d58" d="M477.84,548.7a6.5,6.5,0,0,1-2.05-.38,4.9,4.9,0,0,1-1.81-1.12,5.21,5.21,0,0,1-1.07-1.5,8.32,8.32,0,0,1-.66-2.22l.36-.39c.18.62.32,1.05.42,1.29a6.54,6.54,0,0,0,.56,1.08,6.09,6.09,0,0,0,4.66,2.82Z"/><path class="77c53823-0a16-465b-8ebd-6f0d47f16d58" d="M479.44,544.29l-.52.62-3.48-3a3.71,3.71,0,0,1-.09.87,4.89,4.89,0,0,1-.25.85l-.52-.46a4.31,4.31,0,0,0,.21-1.28,2.63,2.63,0,0,0-.16-1l.31-.37Z"/><path class="77c53823-0a16-465b-8ebd-6f0d47f16d58" d="M482.57,543.13l-.36.47a6,6,0,0,0-3.52-4.15,6.46,6.46,0,0,0-1.16-.38c-.26-.06-.71-.12-1.36-.2l.33-.42a8.31,8.31,0,0,1,2.31.28,5.17,5.17,0,0,1,1.66.82,4.84,4.84,0,0,1,1.4,1.61A6.6,6.6,0,0,1,482.57,543.13Z"/><path class="77c53823-0a16-465b-8ebd-6f0d47f16d58" d="M379.18,539.09l.5.57a1.41,1.41,0,0,0-.39.61,1.34,1.34,0,0,0,0,.75,2.49,2.49,0,0,0,.45.85,2.41,2.41,0,0,0,.61.56,1.11,1.11,0,0,0,.6.19.74.74,0,0,0,.47-.17.68.68,0,0,0,.25-.42,1.27,1.27,0,0,0-.09-.63c-.06-.16-.21-.49-.46-1a5.29,5.29,0,0,1-.43-1.12,1.55,1.55,0,0,1,0-.82,1.19,1.19,0,0,1,.43-.57,1.36,1.36,0,0,1,.78-.27,1.57,1.57,0,0,1,.88.25,3,3,0,0,1,.79.72,3.1,3.1,0,0,1,.55,1,1.61,1.61,0,0,1-.45,1.73l-.52-.54a1.12,1.12,0,0,0,.36-.81,1.65,1.65,0,0,0-.42-1,1.72,1.72,0,0,0-.81-.65.72.72,0,0,0-.66.1.61.61,0,0,0-.25.48,3.12,3.12,0,0,0,.41,1.17,9.36,9.36,0,0,1,.55,1.24,1.84,1.84,0,0,1,.06,1,1.3,1.3,0,0,1-.44.7,1.39,1.39,0,0,1-.81.32,1.77,1.77,0,0,1-1-.23,3,3,0,0,1-.92-.79,3.78,3.78,0,0,1-.7-1.25,1.89,1.89,0,0,1,0-1.11A1.71,1.71,0,0,1,379.18,539.09Z"/><path class="77c53823-0a16-465b-8ebd-6f0d47f16d58" d="M384.48,546.16l.47.61a1.67,1.67,0,0,1-1.16.17,2.16,2.16,0,0,1-1.12-.7,2.11,2.11,0,0,1-.64-1.52,2,2,0,0,1,.77-1.42,2.15,2.15,0,0,1,1.55-.61,2,2,0,0,1,1.37.69,1.91,1.91,0,0,1,.55,1.38,2.11,2.11,0,0,1-.73,1.46l-.13.12c-.9-.93-1.35-1.41-2.21-2.38a1.44,1.44,0,0,0-.48,1,1.28,1.28,0,0,0,.36.92,1.22,1.22,0,0,0,.62.38A1.29,1.29,0,0,0,384.48,546.16Zm-.83-2.53c.64.72,1,1.08,1.63,1.78a1.31,1.31,0,0,0,.36-.72,1.15,1.15,0,0,0-.32-.92,1.19,1.19,0,0,0-1.67-.13Z"/><path class="77c53823-0a16-465b-8ebd-6f0d47f16d58" d="M387.84,549.23l.48.55a1.65,1.65,0,0,1-1.18.38,1.89,1.89,0,0,1-1.16-.55,2,2,0,0,1-.68-1.41,2,2,0,0,1,.7-1.47,2.65,2.65,0,0,1,1-.64,1.57,1.57,0,0,1,1,0,2.18,2.18,0,0,1,.89.52,1.85,1.85,0,0,1,.59,1,1.52,1.52,0,0,1-.21,1.07l-.59-.4a1.09,1.09,0,0,0,.15-.69,1,1,0,0,0-.31-.57,1.17,1.17,0,0,0-.89-.35,2.17,2.17,0,0,0-1.64,1.66,1.14,1.14,0,0,0,.39.88,1.09,1.09,0,0,0,.7.33A1.16,1.16,0,0,0,387.84,549.23Z"/><path class="77c53823-0a16-465b-8ebd-6f0d47f16d58" d="M390.09,553.12l.37-.45a1.64,1.64,0,0,1-1.51-.38,1.92,1.92,0,0,1-.47-.58,1.19,1.19,0,0,1-.16-.59,1.21,1.21,0,0,1,.16-.53,3.16,3.16,0,0,1,.39-.5l1.64-1.85.53.47-1.45,1.68a3.56,3.56,0,0,0-.43.57.69.69,0,0,0,0,.51,1,1,0,0,0,.33.48,1.3,1.3,0,0,0,.58.29.89.89,0,0,0,.59-.06,2,2,0,0,0,.59-.53l1.36-1.66.55.45-2.5,3.12Z"/><path class="77c53823-0a16-465b-8ebd-6f0d47f16d58" d="M391.54,554.27,394,551.1l.51.39-.34.45a1.56,1.56,0,0,1,1.46.27,1.85,1.85,0,0,1,.49.51,1.11,1.11,0,0,1,.19.55,1.28,1.28,0,0,1-.1.54,3.67,3.67,0,0,1-.34.56l-1.4,2-.61-.43,1.41-2a1.73,1.73,0,0,0,.29-.55.67.67,0,0,0-.05-.44,1,1,0,0,0-.33-.39,1.22,1.22,0,0,0-.8-.25,1.32,1.32,0,0,0-.89.63l-1.32,1.74Z"/><path class="77c53823-0a16-465b-8ebd-6f0d47f16d58" d="M397.81,558.6l.26-.43a1.39,1.39,0,0,1-1.36-.15,1.83,1.83,0,0,1-.67-.75,1.75,1.75,0,0,1-.16-1,2.34,2.34,0,0,1,.41-1,2.72,2.72,0,0,1,.78-.78,1.63,1.63,0,0,1,.94-.27,1.77,1.77,0,0,1,.92.29,1.48,1.48,0,0,1,.49.49,1.42,1.42,0,0,1,.2.59l1-1.69.59.36L398.41,559Zm-.9-2.94a1.62,1.62,0,0,0-.34,1.15,1.1,1.1,0,0,0,.5.77,1.08,1.08,0,0,0,.89.13,1.56,1.56,0,0,0,.87-.77,1.82,1.82,0,0,0,.35-1.2,1.06,1.06,0,0,0-.49-.76,1,1,0,0,0-.87-.12A1.76,1.76,0,0,0,396.91,555.66Z"/><path class="77c53823-0a16-465b-8ebd-6f0d47f16d58" d="M402.19,560.52a2.75,2.75,0,0,1-.92,0,2.46,2.46,0,0,1-.79-.28,1.68,1.68,0,0,1-.82-.83,1,1,0,0,1,.08-.91,1,1,0,0,1,.4-.39,1.17,1.17,0,0,1,.52-.15,1.85,1.85,0,0,1,.56.07,5.77,5.77,0,0,1,.61.23,6.41,6.41,0,0,0,1.25.41l.09-.15a.73.73,0,0,0,.09-.61,1.26,1.26,0,0,0-.61-.59,1.34,1.34,0,0,0-.73-.21,1,1,0,0,0-.6.34l-.57-.43a1.62,1.62,0,0,1,.62-.44,1.41,1.41,0,0,1,.75,0,3,3,0,0,1,.9.34,2.72,2.72,0,0,1,.71.52,1.18,1.18,0,0,1,.3.5,1,1,0,0,1,0,.51,3.51,3.51,0,0,1-.25.57l-.41.8a8.64,8.64,0,0,0-.5,1.09,1.4,1.4,0,0,0,0,.51l-.7-.36A1.31,1.31,0,0,1,402.19,560.52Zm.65-1.37a5.29,5.29,0,0,1-1.17-.34,3.11,3.11,0,0,0-.63-.19.63.63,0,0,0-.36.05.56.56,0,0,0-.28.73,1,1,0,0,0,.49.48,1.62,1.62,0,0,0,.75.22,1.08,1.08,0,0,0,.65-.18,1.5,1.5,0,0,0,.42-.54Z"/><path class="77c53823-0a16-465b-8ebd-6f0d47f16d58" d="M403.61,561.79l1.76-3.59.57.28-.26.55a1.72,1.72,0,0,1,.65-.31.82.82,0,0,1,.47.07,1.46,1.46,0,0,1,.57.5l-.48.47a1.09,1.09,0,0,0-.42-.35.71.71,0,0,0-.44-.06.74.74,0,0,0-.4.22,2.49,2.49,0,0,0-.45.66l-.9,1.89Z"/><path class="77c53823-0a16-465b-8ebd-6f0d47f16d58" d="M408.12,558.67l.32-.71.64.28-.31.72ZM406.2,563l1.62-3.66.65.28-1.58,3.67Z"/><path class="77c53823-0a16-465b-8ebd-6f0d47f16d58" d="M410.82,564.33a2.77,2.77,0,0,1-.91.15,2.47,2.47,0,0,1-.82-.17,1.69,1.69,0,0,1-.92-.72,1,1,0,0,1,0-.91,1,1,0,0,1,.34-.44,1.17,1.17,0,0,1,.5-.22,1.85,1.85,0,0,1,.57,0,5.79,5.79,0,0,1,.64.14,6.46,6.46,0,0,0,1.3.24l.06-.16a.73.73,0,0,0,0-.62,1.27,1.27,0,0,0-.68-.5,1.35,1.35,0,0,0-.76-.11,1,1,0,0,0-.55.42l-.62-.35a1.62,1.62,0,0,1,.55-.52,1.41,1.41,0,0,1,.73-.14,3.07,3.07,0,0,1,.94.21,2.74,2.74,0,0,1,.78.42,1.18,1.18,0,0,1,.36.45,1,1,0,0,1,.06.51,3.49,3.49,0,0,1-.17.6l-.3.85a8.6,8.6,0,0,0-.35,1.14,1.4,1.4,0,0,0,0,.52l-.74-.26A1.3,1.3,0,0,1,410.82,564.33Zm.46-1.44a5.33,5.33,0,0,1-1.21-.18,3.12,3.12,0,0,0-.65-.11.64.64,0,0,0-.35.1.55.55,0,0,0-.22.26.55.55,0,0,0,0,.5,1,1,0,0,0,.55.41,1.63,1.63,0,0,0,.78.11,1.08,1.08,0,0,0,.62-.27,1.5,1.5,0,0,0,.34-.6Z"/><path class="77c53823-0a16-465b-8ebd-6f0d47f16d58" d="M415.65,568.09a6.13,6.13,0,0,1-.58-1.89,4.61,4.61,0,0,1,.15-2,4.91,4.91,0,0,1,.78-1.56,7.82,7.82,0,0,1,1.57-1.53l.48.13c-.44.42-.74.73-.9.91a6.19,6.19,0,0,0-.66.94,5.75,5.75,0,0,0-.31,5.14Z"/><path class="77c53823-0a16-465b-8ebd-6f0d47f16d58" d="M421.28,567.08l-.13.64c-1.61-.32-2.41-.5-4-.91a1.1,1.1,0,0,1,.2-.43,2.53,2.53,0,0,1,.66-.59,8.3,8.3,0,0,1,1.14-.58,7,7,0,0,0,1.54-.85,1.34,1.34,0,0,0,.5-.73.89.89,0,0,0-.16-.73,1.13,1.13,0,0,0-.71-.44,1.15,1.15,0,0,0-.86.1,1.09,1.09,0,0,0-.5.72l-.7-.25a1.71,1.71,0,0,1,.84-1,2,2,0,0,1,1.36-.1,1.91,1.91,0,0,1,1.18.71,1.43,1.43,0,0,1,.26,1.17,1.56,1.56,0,0,1-.27.61,2.44,2.44,0,0,1-.61.56,9.65,9.65,0,0,1-1.32.71c-.51.24-.84.39-1,.48a2.31,2.31,0,0,0-.39.28C419.5,566.72,420.09,566.85,421.28,567.08Z"/><path class="77c53823-0a16-465b-8ebd-6f0d47f16d58" d="M422.37,569.6l-.55-.1a6,6,0,0,0,1.87-3.35,5.88,5.88,0,0,0,.06-1.41,6.08,6.08,0,0,0-.19-1.13c-.06-.24-.21-.65-.43-1.22l.5.09a7.84,7.84,0,0,1,.78,2.05,4.87,4.87,0,0,1,0,1.74,4.55,4.55,0,0,1-.73,1.87A6.19,6.19,0,0,1,422.37,569.6Z"/><path class="77c53823-0a16-465b-8ebd-6f0d47f16d58" d="M376.2,496.27l-7,1.34a19.85,19.85,0,0,1-.27-7.09l.84.09a19.13,19.13,0,0,0,.05,5.5l2.2-.29a17.26,17.26,0,0,1-.11-4.3l.84.07a16.56,16.56,0,0,0,.1,4.13l3.22-.42C376.1,495.68,376.13,495.88,376.2,496.27Z"/><path class="77c53823-0a16-465b-8ebd-6f0d47f16d58" d="M376,491l-1-.13c.05-.43.09-.64.17-1.07l1,.19C376.13,490.44,376.09,490.64,376,491Z"/><path class="77c53823-0a16-465b-8ebd-6f0d47f16d58" d="M376.6,488.41l-6.86-2a19.82,19.82,0,0,1,1.44-3.68,9,9,0,0,1,.81-1.38,3.6,3.6,0,0,1,1-.93,1.94,1.94,0,0,1,1-.29,1.63,1.63,0,0,1,1,.32,2.07,2.07,0,0,1,.83,1.51,5,5,0,0,1-.76,2.56,16.27,16.27,0,0,0-.87,2l2.74,1C376.77,487.85,376.71,488,376.6,488.41Zm-3.23-2.2a17,17,0,0,1,.92-2.14,3.56,3.56,0,0,0,.5-1.62,1.13,1.13,0,0,0-.55-.94,1,1,0,0,0-.82-.14,1.48,1.48,0,0,0-.79.51A5.88,5.88,0,0,0,372,483a19.1,19.1,0,0,0-1,2.38Z"/><path class="77c53823-0a16-465b-8ebd-6f0d47f16d58" d="M388.85,466.92l.54-.68a1.64,1.64,0,0,0,.75.32,1.57,1.57,0,0,0,.82-.16,2.91,2.91,0,0,0,.86-.6,2.82,2.82,0,0,0,.55-.73,1.28,1.28,0,0,0,.16-.68.85.85,0,0,0-.22-.52.76.76,0,0,0-.48-.25,1.39,1.39,0,0,0-.71.16,11,11,0,0,0-1.1.65,8.22,8.22,0,0,1-1.23.7,2,2,0,0,1-.94.15,1.29,1.29,0,0,1-.74-.34,1.4,1.4,0,0,1-.43-.83,1.88,1.88,0,0,1,.19-1.1,3.9,3.9,0,0,1,.81-1.12,4.06,4.06,0,0,1,1.2-.85,2,2,0,0,1,1.15-.17,1.66,1.66,0,0,1,.92.49l-.63.66a1.2,1.2,0,0,0-1-.31,2.15,2.15,0,0,0-1.13.67,2.26,2.26,0,0,0-.71,1.1.78.78,0,0,0,.2.75.68.68,0,0,0,.59.18,4.55,4.55,0,0,0,1.32-.7,8.61,8.61,0,0,1,1.4-.8,2,2,0,0,1,1.09-.14,1.41,1.41,0,0,1,.8.47,1.61,1.61,0,0,1,.39.9,2.05,2.05,0,0,1-.19,1.1,3.43,3.43,0,0,1-.76,1.06,4.41,4.41,0,0,1-1.24.9,2.21,2.21,0,0,1-1.2.2A2,2,0,0,1,388.85,466.92Z"/><path class="77c53823-0a16-465b-8ebd-6f0d47f16d58" d="M397.35,461.86l-.4-.53a1.85,1.85,0,0,1-.73,1.54,2.12,2.12,0,0,1-.71.38,1.34,1.34,0,0,1-.67.06,1.41,1.41,0,0,1-.56-.27,3.56,3.56,0,0,1-.5-.51L392,460.43l.67-.57,1.59,1.92a4,4,0,0,0,.55.59.8.8,0,0,0,.56.15,1.1,1.1,0,0,0,.59-.26,1.47,1.47,0,0,0,.43-.57,1,1,0,0,0,.07-.66,2.24,2.24,0,0,0-.42-.78l-1.46-1.92.7-.53,2.67,3.62Z"/><path class="77c53823-0a16-465b-8ebd-6f0d47f16d58" d="M399.95,462.1,396.37,457l.66-.45.33.48a1.82,1.82,0,0,1,.24-.78,1.9,1.9,0,0,1,.62-.62,2.17,2.17,0,0,1,1.14-.37,1.83,1.83,0,0,1,1.08.32,2.73,2.73,0,0,1,.82.89,2.85,2.85,0,0,1,.41,1.21,2,2,0,0,1-.22,1.12,2.12,2.12,0,0,1-.73.81,1.64,1.64,0,0,1-.69.26,1.66,1.66,0,0,1-.67,0l1.23,1.81Zm-1.64-3.66a1.87,1.87,0,0,0,1,.85,1.21,1.21,0,0,0,1-.16,1.24,1.24,0,0,0,.56-.86,2,2,0,0,0-.37-1.34,1.81,1.81,0,0,0-1-.89,1.24,1.24,0,0,0-1,.15,1.27,1.27,0,0,0-.56.92A1.86,1.86,0,0,0,398.31,458.43Z"/><path class="77c53823-0a16-465b-8ebd-6f0d47f16d58" d="M405.5,455.14l.81-.28a2,2,0,0,1-.2,1.29,2.38,2.38,0,0,1-1,1,2.34,2.34,0,0,1-1.75.25,2.32,2.32,0,0,1-1.39-1.17,2.27,2.27,0,0,1-.3-1.85,2.33,2.33,0,0,1,1.22-1.37,2.26,2.26,0,0,1,1.78-.21,2.23,2.23,0,0,1,1.32,1.28l.08.19c-1.33.63-2,1-3.27,1.68a1.68,1.68,0,0,0,.95.77,1.42,1.42,0,0,0,1.07-.13,1.34,1.34,0,0,0,.58-.54A1.5,1.5,0,0,0,405.5,455.14Zm-3,.18c1-.54,1.47-.8,2.47-1.29a1.4,1.4,0,0,0-.67-.62,1.36,1.36,0,0,0-1.15.09,1.43,1.43,0,0,0-.72.78A1.3,1.3,0,0,0,402.5,455.31Z"/><path class="77c53823-0a16-465b-8ebd-6f0d47f16d58" d="M407.8,455.66l-1.84-4.1.72-.32.27.63a1.86,1.86,0,0,1,.26-.8,1.05,1.05,0,0,1,.46-.36,1.82,1.82,0,0,1,.92-.11c0,.31,0,.46,0,.77a1.33,1.33,0,0,0-.65.08.88.88,0,0,0-.41.33.81.81,0,0,0-.13.51,2.63,2.63,0,0,0,.22.87l.93,2.16Z"/><path class="77c53823-0a16-465b-8ebd-6f0d47f16d58" d="M408.72,449.5l-.31-.82.84-.31.3.82Zm1.91,5-1.61-4.2.82-.31,1.54,4.22Z"/><path class="77c53823-0a16-465b-8ebd-6f0d47f16d58" d="M411.51,451.76a2.14,2.14,0,0,1,.14-2,2.5,2.5,0,0,1,1.39-1,2.39,2.39,0,0,1,1.83.11,2.12,2.12,0,0,1,1.06,1.46,2.82,2.82,0,0,1,.07,1.39,2,2,0,0,1-.58,1,2.56,2.56,0,0,1-1,.58,2.3,2.3,0,0,1-1.73-.09A2.36,2.36,0,0,1,411.51,451.76Zm.82-.28a1.84,1.84,0,0,0,.79,1.1,1.44,1.44,0,0,0,1.95-.59,1.88,1.88,0,0,0,0-1.38,1.7,1.7,0,0,0-.74-1.11,1.51,1.51,0,0,0-2,.61A1.74,1.74,0,0,0,412.33,451.49Z"/><path class="77c53823-0a16-465b-8ebd-6f0d47f16d58" d="M417.42,452.38l-1-4.37.77-.18.15.67a1.86,1.86,0,0,1,.41-.73,1.06,1.06,0,0,1,.52-.26,1.84,1.84,0,0,1,.93.07l-.16.75a1.34,1.34,0,0,0-.65,0,.89.89,0,0,0-.47.25.81.81,0,0,0-.22.48,2.62,2.62,0,0,0,.05.9l.51,2.3Z"/><path class="77c53823-0a16-465b-8ebd-6f0d47f16d58" d="M423.51,449.85h.87a2,2,0,0,1-.63,1.14,2.43,2.43,0,0,1-1.32.55,2.37,2.37,0,0,1-1.74-.34,2.31,2.31,0,0,1-.92-1.57,2.27,2.27,0,0,1,.34-1.85,2.35,2.35,0,0,1,1.63-.89,2.3,2.3,0,0,1,1.76.4,2.22,2.22,0,0,1,.82,1.65s0,.11,0,.2c-1.48.15-2.22.24-3.68.49a1.68,1.68,0,0,0,.63,1,1.44,1.44,0,0,0,1.06.24,1.37,1.37,0,0,0,.74-.32A1.5,1.5,0,0,0,423.51,449.85ZM420.6,449c1.11-.18,1.66-.26,2.78-.39a1.29,1.29,0,0,0-1.55-1.1,1.45,1.45,0,0,0-.94.5A1.3,1.3,0,0,0,420.6,449Z"/><path class="77c53823-0a16-465b-8ebd-6f0d47f16d58" d="M425.09,449.8l.82-.18a1,1,0,0,0,.43.67,1.45,1.45,0,0,0,.89.19,1.42,1.42,0,0,0,.84-.25.63.63,0,0,0,.26-.51.45.45,0,0,0-.26-.4,3.63,3.63,0,0,0-.87-.23,10.08,10.08,0,0,1-1.31-.29,1.26,1.26,0,0,1-.58-.39,1,1,0,0,1-.24-.59,1,1,0,0,1,.11-.57,1.31,1.31,0,0,1,.4-.46,1.93,1.93,0,0,1,.55-.26,2.94,2.94,0,0,1,.76-.13,3.3,3.3,0,0,1,1.09.11,1.26,1.26,0,0,1,1,1.09l-.85.12a.78.78,0,0,0-.35-.53,1.34,1.34,0,0,0-.8-.16,1.57,1.57,0,0,0-.85.22.49.49,0,0,0-.23.42.4.4,0,0,0,.12.26.79.79,0,0,0,.34.18l.77.15a9.85,9.85,0,0,1,1.28.31,1.24,1.24,0,0,1,.57.39,1,1,0,0,1,.21.65,1.21,1.21,0,0,1-.23.72,1.58,1.58,0,0,1-.68.54,2.81,2.81,0,0,1-1,.22,2.5,2.5,0,0,1-1.45-.28A1.71,1.71,0,0,1,425.09,449.8Z"/></g></svg>