<svg id="ac7a053b-63d5-44c8-82a7-be06544ed463" data-name="Capa 1" xmlns="http://www.w3.org/2000/svg" viewBox="0 0 659 356.41"><defs><style>.\33 4ac8ce8-ffd9-459f-ab45-d0741897ca1a,.\36 31ec72c-7b54-46a5-942c-5e52ca90286f,.\39 6b3338f-207a-4339-a1f2-e508492f08ae,.\39 bc7ddba-dae0-4c33-ada4-85d7ede6b0e8,.cd2d05d3-f9c1-40a0-b37e-fcdbcf28e4af{fill:#757575;}.\39 bc7ddba-dae0-4c33-ada4-85d7ede6b0e8{opacity:0.09;}.\39 6b3338f-207a-4339-a1f2-e508492f08ae{font-size:14px;}.\36 31ec72c-7b54-46a5-942c-5e52ca90286f,.\37 d698333-b015-48d7-a9ec-e46a4c08a242,.\39 6b3338f-207a-4339-a1f2-e508492f08ae,.\39 855e42c-dc01-42f7-8905-5051e609a8a7{font-family:ArialMT, Arial;}.\33 4ac8ce8-ffd9-459f-ab45-d0741897ca1a,.cd2d05d3-f9c1-40a0-b37e-fcdbcf28e4af{font-size:13px;}.\31 de61cf1-5034-4fc3-b8cd-96c6f9a9d92b,.\33 4ac8ce8-ffd9-459f-ab45-d0741897ca1a,.cd2d05d3-f9c1-40a0-b37e-fcdbcf28e4af{font-family:Arial-BoldMT, Arial;}.\31 de61cf1-5034-4fc3-b8cd-96c6f9a9d92b,.\37 c57bfe1-844b-4cf7-90df-2a9345f4c154,.cd2d05d3-f9c1-40a0-b37e-fcdbcf28e4af{font-weight:700;}.\34 1c5f6ee-b640-4ec2-a632-fc8c963a8d3a{letter-spacing:-0.06em;}.f6f2097e-87ba-4fc5-8aed-8ea82da86b49{letter-spacing:0em;}.\37 83ff1f1-1602-444b-8d1e-5d9880c70e75,.abfcb741-7ea3-48b1-a1cb-207e3d7fb7ad,.f5b9f2c3-f693-4b35-a1ac-47e1b751be4d{fill:none;}.\37 83ff1f1-1602-444b-8d1e-5d9880c70e75{stroke:#000;}.\37 83ff1f1-1602-444b-8d1e-5d9880c70e75,.abfcb741-7ea3-48b1-a1cb-207e3d7fb7ad,.ddd61cf4-bd23-495a-a344-ee665fd77323,.efd34dd4-f2e6-49e9-9cf6-03832b31fe37,.f5b9f2c3-f693-4b35-a1ac-47e1b751be4d,.fb5c0d8c-40f7-465f-a3e7-825d4915c641{stroke-miterlimit:10;}.f5b9f2c3-f693-4b35-a1ac-47e1b751be4d{stroke:#d6d6d6;}.f0ababb5-c690-40f9-bb82-f06c1acee81a{fill:#606060;}.abfcb741-7ea3-48b1-a1cb-207e3d7fb7ad{stroke:#a9a9a9;}.efd34dd4-f2e6-49e9-9cf6-03832b31fe37{fill:#15acb1;stroke:#15acb1;}.fb5c0d8c-40f7-465f-a3e7-825d4915c641{fill:#a01f51;stroke:#a01f51;}.\31 de61cf1-5034-4fc3-b8cd-96c6f9a9d92b{font-size:24px;}.\31 de61cf1-5034-4fc3-b8cd-96c6f9a9d92b,.\39 855e42c-dc01-42f7-8905-5051e609a8a7,.ddd61cf4-bd23-495a-a344-ee665fd77323{fill:#323232;}.\36 31ec72c-7b54-46a5-942c-5e52ca90286f,.\37 d698333-b015-48d7-a9ec-e46a4c08a242,.\39 855e42c-dc01-42f7-8905-5051e609a8a7,.f1a1d99b-1386-47f7-8a7d-9c3950cb3a03{font-size:11px;}.f1a1d99b-1386-47f7-8a7d-9c3950cb3a03{font-family:Arial-ItalicMT, Arial;font-style:italic;}.fb48950a-d0e5-4b89-8a5c-41334ba03336{letter-spacing:-0.07em;}.\33 55c3c21-fdbd-46c7-85cb-82ebdc3d91d7{letter-spacing:-0.06em;}.ae0c943d-6c6d-4368-ac2d-6d86449da0ff{letter-spacing:0em;}.a6c81471-9676-4db1-ba2f-e5fed99d12a2{letter-spacing:-0.06em;}.\31 f0e6dae-fb33-4f9c-8b47-41db416c8f6c{letter-spacing:0em;}.\36 a9b788d-0428-446d-9f0d-db37da884d6a{letter-spacing:-0.07em;}.bfd8af53-a32d-44a5-9f09-b0b9f671068b{letter-spacing:-0.06em;}.\31 e3fefc7-717c-41d7-8d5d-af889d381224{letter-spacing:0em;}.ddd61cf4-bd23-495a-a344-ee665fd77323{stroke:#757575;}</style></defs><title>2018.05_Palestine</title><rect class="9bc7ddba-dae0-4c33-ada4-85d7ede6b0e8" x="232" y="45.41" width="33" height="260.13"/><rect class="9bc7ddba-dae0-4c33-ada4-85d7ede6b0e8" x="295" y="45.41" width="33" height="260.13"/><rect class="9bc7ddba-dae0-4c33-ada4-85d7ede6b0e8" x="164" y="45.41" width="33" height="260.13"/><rect class="9bc7ddba-dae0-4c33-ada4-85d7ede6b0e8" x="99" y="45.41" width="33" height="260.13"/><rect class="9bc7ddba-dae0-4c33-ada4-85d7ede6b0e8" x="33" y="45.41" width="33" height="261.01"/><rect class="9bc7ddba-dae0-4c33-ada4-85d7ede6b0e8" x="356" y="45.41" width="33" height="260.07"/><rect class="9bc7ddba-dae0-4c33-ada4-85d7ede6b0e8" x="422" y="45.41" width="33" height="260.13"/><rect class="9bc7ddba-dae0-4c33-ada4-85d7ede6b0e8" x="482" y="45.41" width="33" height="260.01"/><rect class="9bc7ddba-dae0-4c33-ada4-85d7ede6b0e8" x="543" y="45.41" width="33" height="259.14"/><text class="96b3338f-207a-4339-a1f2-e508492f08ae" transform="translate(2.96 204.26) scale(1.01 1)">500</text><text class="96b3338f-207a-4339-a1f2-e508492f08ae" transform="translate(2.96 237.26) scale(1.01 1)">250</text><text class="96b3338f-207a-4339-a1f2-e508492f08ae" transform="translate(1.96 302.26) scale(1.01 1)">250</text><text class="96b3338f-207a-4339-a1f2-e508492f08ae" transform="translate(2.54 269.26) scale(1.01 1)">0</text><text class="96b3338f-207a-4339-a1f2-e508492f08ae" transform="translate(3.17 139.51) scale(1.01 1)">1000</text><text class="96b3338f-207a-4339-a1f2-e508492f08ae" transform="translate(2.96 171.51) scale(1.01 1)">750</text><text class="96b3338f-207a-4339-a1f2-e508492f08ae" transform="translate(3.17 74.76) scale(1.01 1)">1500</text><text class="96b3338f-207a-4339-a1f2-e508492f08ae" transform="translate(1.17 42.76) scale(1.01 1)">1750</text><text class="cd2d05d3-f9c1-40a0-b37e-fcdbcf28e4af" transform="translate(33.4 326.76) scale(1.01 1)">2001</text><text class="cd2d05d3-f9c1-40a0-b37e-fcdbcf28e4af" transform="translate(100.4 326.76) scale(1.01 1)">2003</text><text class="cd2d05d3-f9c1-40a0-b37e-fcdbcf28e4af" transform="translate(169.4 326.76) scale(1.01 1)">2005</text><text class="cd2d05d3-f9c1-40a0-b37e-fcdbcf28e4af" transform="translate(232.4 326.76) scale(1.01 1)">2007</text><text class="cd2d05d3-f9c1-40a0-b37e-fcdbcf28e4af" transform="translate(297.4 326.76) scale(1.01 1)">2009</text><text class="cd2d05d3-f9c1-40a0-b37e-fcdbcf28e4af" transform="translate(359.13 326.76) scale(1.01 1)">20<tspan class="41c5f6ee-b640-4ec2-a632-fc8c963a8d3a" x="14.46" y="0">1</tspan><tspan class="f6f2097e-87ba-4fc5-8aed-8ea82da86b49" x="20.97" y="0">1</tspan></text><text class="cd2d05d3-f9c1-40a0-b37e-fcdbcf28e4af" transform="translate(424.4 326.76) scale(1.01 1)">2013</text><text class="cd2d05d3-f9c1-40a0-b37e-fcdbcf28e4af" transform="translate(484.4 326.76) scale(1.01 1)">2015</text><text class="cd2d05d3-f9c1-40a0-b37e-fcdbcf28e4af" transform="translate(545.4 326.76) scale(1.01 1)">2017</text><text class="96b3338f-207a-4339-a1f2-e508492f08ae" transform="translate(1.16 105.76) scale(1.01 1)">1250</text><path class="783ff1f1-1602-444b-8d1e-5d9880c70e75" d="M23.16,276.5" transform="translate(0 -4.59)"/><line class="783ff1f1-1602-444b-8d1e-5d9880c70e75" x1="23.16" y1="271.91" x2="37.19" y2="271.91"/><line class="f5b9f2c3-f693-4b35-a1ac-47e1b751be4d" x1="3.01" y1="207.16" x2="581" y2="207.16"/><line class="f5b9f2c3-f693-4b35-a1ac-47e1b751be4d" x1="3.01" y1="240.16" x2="581" y2="240.16"/><line class="f5b9f2c3-f693-4b35-a1ac-47e1b751be4d" x1="3.01" y1="272.16" x2="583" y2="272.16"/><line class="f0ababb5-c690-40f9-bb82-f06c1acee81a" x1="3.01" y1="305.16" x2="581" y2="305.16"/><path class="abfcb741-7ea3-48b1-a1cb-207e3d7fb7ad" d="M581,277.5" transform="translate(0 -4.59)"/><path class="abfcb741-7ea3-48b1-a1cb-207e3d7fb7ad" d="M3,277.5" transform="translate(0 -4.59)"/><line class="f5b9f2c3-f693-4b35-a1ac-47e1b751be4d" x1="3.01" y1="142.41" x2="581" y2="142.41"/><line class="f5b9f2c3-f693-4b35-a1ac-47e1b751be4d" x1="3.01" y1="174.41" x2="581" y2="174.41"/><line class="f5b9f2c3-f693-4b35-a1ac-47e1b751be4d" x1="3.01" y1="77.66" x2="581" y2="77.66"/><line class="f5b9f2c3-f693-4b35-a1ac-47e1b751be4d" x1="3.01" y1="109.66" x2="581" y2="109.66"/><line class="f5b9f2c3-f693-4b35-a1ac-47e1b751be4d" x1="3.01" y1="45.66" x2="581" y2="45.66"/><path class="f5b9f2c3-f693-4b35-a1ac-47e1b751be4d" d="M581,82.25" transform="translate(0 -4.59)"/><path class="f5b9f2c3-f693-4b35-a1ac-47e1b751be4d" d="M3,82.25" transform="translate(0 -4.59)"/><path class="abfcb741-7ea3-48b1-a1cb-207e3d7fb7ad" d="M581,17.5" transform="translate(0 -4.59)"/><rect class="efd34dd4-f2e6-49e9-9cf6-03832b31fe37" x="23.41" y="273.91" width="0.98" height="0.13"/><rect class="efd34dd4-f2e6-49e9-9cf6-03832b31fe37" x="26.14" y="273.91" width="0.98" height="1.3"/><rect class="efd34dd4-f2e6-49e9-9cf6-03832b31fe37" x="28.86" y="273.91" width="0.98" height="2.85"/><rect class="efd34dd4-f2e6-49e9-9cf6-03832b31fe37" x="31.58" y="273.91" width="0.98" height="1.04"/><rect class="efd34dd4-f2e6-49e9-9cf6-03832b31fe37" x="34.3" y="273.91" width="0.98" height="0.78"/><rect class="efd34dd4-f2e6-49e9-9cf6-03832b31fe37" x="37.02" y="273.91" width="0.98" height="1.55"/><rect class="efd34dd4-f2e6-49e9-9cf6-03832b31fe37" x="39.74" y="273.91" width="0.98" height="1.04"/><rect class="efd34dd4-f2e6-49e9-9cf6-03832b31fe37" x="42.46" y="273.91" width="0.98" height="0.91"/><rect class="efd34dd4-f2e6-49e9-9cf6-03832b31fe37" x="45.18" y="273.91" width="0.98" height="2.2"/><rect class="efd34dd4-f2e6-49e9-9cf6-03832b31fe37" x="47.9" y="273.91" width="0.98" height="3.63"/><rect class="efd34dd4-f2e6-49e9-9cf6-03832b31fe37" x="50.62" y="273.91" width="0.98" height="1.3"/><rect class="efd34dd4-f2e6-49e9-9cf6-03832b31fe37" x="53.34" y="273.91" width="0.98" height="3.37"/><rect class="efd34dd4-f2e6-49e9-9cf6-03832b31fe37" x="56.06" y="273.91" width="0.98" height="1.68"/><rect class="efd34dd4-f2e6-49e9-9cf6-03832b31fe37" x="58.78" y="273.91" width="0.98" height="1.81"/><rect class="efd34dd4-f2e6-49e9-9cf6-03832b31fe37" x="61.51" y="273.91" width="0.98" height="1.81"/><rect class="efd34dd4-f2e6-49e9-9cf6-03832b31fe37" x="64.23" y="273.91" width="0.98" height="4.66"/><rect class="efd34dd4-f2e6-49e9-9cf6-03832b31fe37" x="66.95" y="273.91" width="0.98" height="2.07"/><rect class="efd34dd4-f2e6-49e9-9cf6-03832b31fe37" x="69.67" y="273.91" width="0.98" height="3.89"/><rect class="efd34dd4-f2e6-49e9-9cf6-03832b31fe37" x="72.39" y="273.91" width="0.98" height="14.63"/><rect class="efd34dd4-f2e6-49e9-9cf6-03832b31fe37" x="75.11" y="273.91" width="0.98" height="6.86"/><rect class="efd34dd4-f2e6-49e9-9cf6-03832b31fe37" x="77.83" y="273.91" width="0.98" height="3.89"/><rect class="efd34dd4-f2e6-49e9-9cf6-03832b31fe37" x="80.55" y="273.91" width="0.98" height="7.51"/><rect class="efd34dd4-f2e6-49e9-9cf6-03832b31fe37" x="83.27" y="273.91" width="0.98" height="2.98"/><rect class="efd34dd4-f2e6-49e9-9cf6-03832b31fe37" x="85.99" y="273.91" width="0.98" height="1.94"/><rect class="efd34dd4-f2e6-49e9-9cf6-03832b31fe37" x="88.71" y="273.91" width="0.98" height="1.68"/><rect class="efd34dd4-f2e6-49e9-9cf6-03832b31fe37" x="91.43" y="273.91" width="0.98" height="2.85"/><rect class="efd34dd4-f2e6-49e9-9cf6-03832b31fe37" x="94.15" y="273.91" width="0.98" height="5.18"/><rect class="efd34dd4-f2e6-49e9-9cf6-03832b31fe37" x="96.87" y="273.91" width="0.98" height="0.91"/><rect class="efd34dd4-f2e6-49e9-9cf6-03832b31fe37" x="99.6" y="273.91" width="0.98" height="2.85"/><rect class="efd34dd4-f2e6-49e9-9cf6-03832b31fe37" x="102.32" y="273.91" width="0.98" height="1.04"/><rect class="efd34dd4-f2e6-49e9-9cf6-03832b31fe37" x="105.04" y="273.91" width="0.98" height="2.98"/><rect class="efd34dd4-f2e6-49e9-9cf6-03832b31fe37" x="107.76" y="273.91" width="0.98" height="0.78"/><rect class="efd34dd4-f2e6-49e9-9cf6-03832b31fe37" x="110.48" y="273.91" width="0.98" height="1.68"/><rect class="efd34dd4-f2e6-49e9-9cf6-03832b31fe37" x="113.2" y="273.91" width="0.98" height="3.63"/><rect class="efd34dd4-f2e6-49e9-9cf6-03832b31fe37" x="115.92" y="273.91" width="0.98" height="0.26"/><rect class="efd34dd4-f2e6-49e9-9cf6-03832b31fe37" x="118.64" y="273.91" width="0.98" height="2.98"/><rect class="efd34dd4-f2e6-49e9-9cf6-03832b31fe37" x="121.36" y="273.91" width="0.98" height="2.85"/><rect class="efd34dd4-f2e6-49e9-9cf6-03832b31fe37" x="124.08" y="273.91" width="0.98" height="3.5"/><rect class="efd34dd4-f2e6-49e9-9cf6-03832b31fe37" x="126.8" y="273.91" width="0.98" height="0.65"/><rect class="efd34dd4-f2e6-49e9-9cf6-03832b31fe37" x="129.52" y="273.91" width="0.98" height="0.78"/><rect class="efd34dd4-f2e6-49e9-9cf6-03832b31fe37" x="132.24" y="273.91" width="0.98" height="1.94"/><rect class="efd34dd4-f2e6-49e9-9cf6-03832b31fe37" x="134.96" y="273.91" width="0.98" height="1.42"/><rect class="efd34dd4-f2e6-49e9-9cf6-03832b31fe37" x="137.69" y="273.91" width="0.98" height="1.42"/><rect class="efd34dd4-f2e6-49e9-9cf6-03832b31fe37" x="140.41" y="273.91" width="0.98" height="0.39"/><rect class="efd34dd4-f2e6-49e9-9cf6-03832b31fe37" x="143.13" y="273.91" width="0.98" height="2.46"/><rect class="efd34dd4-f2e6-49e9-9cf6-03832b31fe37" x="145.85" y="273.91" width="0.98" height="0.52"/><rect class="efd34dd4-f2e6-49e9-9cf6-03832b31fe37" x="148.57" y="273.91" width="0.98" height="0.39"/><rect class="efd34dd4-f2e6-49e9-9cf6-03832b31fe37" x="151.29" y="273.91" width="0.98" height="2.2"/><rect class="efd34dd4-f2e6-49e9-9cf6-03832b31fe37" x="154.01" y="273.91" width="0.98" height="1.42"/><rect class="efd34dd4-f2e6-49e9-9cf6-03832b31fe37" x="156.73" y="273.91" width="0.98" height="0.39"/><rect class="efd34dd4-f2e6-49e9-9cf6-03832b31fe37" x="159.45" y="273.91" width="0.98" height="0.39"/><rect class="efd34dd4-f2e6-49e9-9cf6-03832b31fe37" x="162.17" y="273.91" width="0.98" height="1.04"/><rect class="efd34dd4-f2e6-49e9-9cf6-03832b31fe37" x="164.89" y="273.91" width="0.98" height="1.55"/><rect class="efd34dd4-f2e6-49e9-9cf6-03832b31fe37" x="167.61" y="273.91" width="0.98" height="0.65"/><rect class="efd34dd4-f2e6-49e9-9cf6-03832b31fe37" x="175.78" y="273.91" width="0.98" height="0.13"/><rect class="efd34dd4-f2e6-49e9-9cf6-03832b31fe37" x="178.5" y="273.91" width="0.98" height="0.52"/><rect class="efd34dd4-f2e6-49e9-9cf6-03832b31fe37" x="181.22" y="273.91" width="0.98" height="1.04"/><rect class="efd34dd4-f2e6-49e9-9cf6-03832b31fe37" x="186.66" y="273.91" width="0.98" height="0.13"/><rect class="efd34dd4-f2e6-49e9-9cf6-03832b31fe37" x="189.38" y="273.91" width="0.98" height="1.17"/><rect class="efd34dd4-f2e6-49e9-9cf6-03832b31fe37" x="192.1" y="273.91" width="0.98" height="0.26"/><rect class="efd34dd4-f2e6-49e9-9cf6-03832b31fe37" x="194.82" y="273.91" width="0.98" height="1.04"/><rect class="efd34dd4-f2e6-49e9-9cf6-03832b31fe37" x="200.26" y="273.91" width="0.98" height="0.13"/><rect class="efd34dd4-f2e6-49e9-9cf6-03832b31fe37" x="202.98" y="273.91" width="0.98" height="0.65"/><rect class="efd34dd4-f2e6-49e9-9cf6-03832b31fe37" x="205.7" y="273.91" width="0.98" height="0.78"/><rect class="efd34dd4-f2e6-49e9-9cf6-03832b31fe37" x="208.42" y="273.91" width="0.98" height="0.13"/><rect class="efd34dd4-f2e6-49e9-9cf6-03832b31fe37" x="211.15" y="273.91" width="0.98" height="0.39"/><rect class="efd34dd4-f2e6-49e9-9cf6-03832b31fe37" x="213.87" y="273.91" width="0.98" height="0.26"/><rect class="efd34dd4-f2e6-49e9-9cf6-03832b31fe37" x="216.59" y="273.91" width="0.98" height="0.13"/><rect class="efd34dd4-f2e6-49e9-9cf6-03832b31fe37" x="219.31" y="273.91" width="0.98" height="0.13"/><rect class="efd34dd4-f2e6-49e9-9cf6-03832b31fe37" x="224.75" y="273.91" width="0.98" height="0.39"/><rect class="efd34dd4-f2e6-49e9-9cf6-03832b31fe37" x="230.19" y="273.91" width="0.98" height="0.39"/><rect class="efd34dd4-f2e6-49e9-9cf6-03832b31fe37" x="232.91" y="273.91" width="0.98" height="0.13"/><rect class="efd34dd4-f2e6-49e9-9cf6-03832b31fe37" x="241.07" y="273.91" width="0.98" height="0.26"/><rect class="efd34dd4-f2e6-49e9-9cf6-03832b31fe37" x="246.51" y="273.91" width="0.98" height="0.13"/><rect class="efd34dd4-f2e6-49e9-9cf6-03832b31fe37" x="251.96" y="273.91" width="0.98" height="0.13"/><rect class="efd34dd4-f2e6-49e9-9cf6-03832b31fe37" x="254.68" y="273.91" width="0.98" height="0.26"/><rect class="efd34dd4-f2e6-49e9-9cf6-03832b31fe37" x="257.4" y="273.91" width="0.98" height="0.13"/><rect class="efd34dd4-f2e6-49e9-9cf6-03832b31fe37" x="260.12" y="273.91" width="0.98" height="0.26"/><rect class="efd34dd4-f2e6-49e9-9cf6-03832b31fe37" x="262.84" y="273.91" width="0.98" height="0.13"/><rect class="efd34dd4-f2e6-49e9-9cf6-03832b31fe37" x="265.56" y="273.91" width="0.98" height="0.26"/><rect class="efd34dd4-f2e6-49e9-9cf6-03832b31fe37" x="268.28" y="273.91" width="0.98" height="1.55"/><rect class="efd34dd4-f2e6-49e9-9cf6-03832b31fe37" x="271" y="273.91" width="0.98" height="1.04"/><rect class="efd34dd4-f2e6-49e9-9cf6-03832b31fe37" x="273.72" y="273.91" width="0.98" height="0.26"/><rect class="efd34dd4-f2e6-49e9-9cf6-03832b31fe37" x="276.44" y="273.91" width="0.98" height="0.13"/><rect class="efd34dd4-f2e6-49e9-9cf6-03832b31fe37" x="279.16" y="273.91" width="0.98" height="0.52"/><rect class="efd34dd4-f2e6-49e9-9cf6-03832b31fe37" x="287.33" y="273.91" width="0.98" height="0.13"/><rect class="efd34dd4-f2e6-49e9-9cf6-03832b31fe37" x="292.77" y="273.91" width="0.98" height="0.52"/><rect class="efd34dd4-f2e6-49e9-9cf6-03832b31fe37" x="295.49" y="273.91" width="0.98" height="0.78"/><rect class="efd34dd4-f2e6-49e9-9cf6-03832b31fe37" x="303.65" y="273.91" width="0.98" height="0.13"/><rect class="efd34dd4-f2e6-49e9-9cf6-03832b31fe37" x="306.37" y="273.91" width="0.98" height="0.13"/><rect class="efd34dd4-f2e6-49e9-9cf6-03832b31fe37" x="317.25" y="273.91" width="0.98" height="0.13"/><rect class="efd34dd4-f2e6-49e9-9cf6-03832b31fe37" x="325.42" y="273.91" width="0.98" height="0.13"/><rect class="efd34dd4-f2e6-49e9-9cf6-03832b31fe37" x="330.86" y="273.91" width="0.98" height="0.26"/><rect class="efd34dd4-f2e6-49e9-9cf6-03832b31fe37" x="333.58" y="273.91" width="0.98" height="0.26"/><rect class="efd34dd4-f2e6-49e9-9cf6-03832b31fe37" x="341.74" y="273.91" width="0.98" height="0.13"/><rect class="efd34dd4-f2e6-49e9-9cf6-03832b31fe37" x="347.18" y="273.91" width="0.98" height="0.52"/><rect class="efd34dd4-f2e6-49e9-9cf6-03832b31fe37" x="366.23" y="273.91" width="0.98" height="0.65"/><rect class="efd34dd4-f2e6-49e9-9cf6-03832b31fe37" x="368.95" y="273.91" width="0.98" height="0.26"/><rect class="efd34dd4-f2e6-49e9-9cf6-03832b31fe37" x="379.83" y="273.91" width="0.98" height="0.13"/><rect class="efd34dd4-f2e6-49e9-9cf6-03832b31fe37" x="382.55" y="273.91" width="0.98" height="0.26"/><rect class="efd34dd4-f2e6-49e9-9cf6-03832b31fe37" x="385.27" y="273.91" width="0.98" height="0.13"/><rect class="efd34dd4-f2e6-49e9-9cf6-03832b31fe37" x="404.32" y="273.91" width="0.98" height="0.13"/><rect class="efd34dd4-f2e6-49e9-9cf6-03832b31fe37" x="417.92" y="273.91" width="0.98" height="0.78"/><rect class="efd34dd4-f2e6-49e9-9cf6-03832b31fe37" x="428.8" y="273.91" width="0.98" height="0.13"/><rect class="efd34dd4-f2e6-49e9-9cf6-03832b31fe37" x="439.69" y="273.91" width="0.98" height="0.26"/><rect class="efd34dd4-f2e6-49e9-9cf6-03832b31fe37" x="442.41" y="273.91" width="0.98" height="0.13"/><rect class="efd34dd4-f2e6-49e9-9cf6-03832b31fe37" x="445.13" y="273.91" width="0.98" height="0.13"/><rect class="efd34dd4-f2e6-49e9-9cf6-03832b31fe37" x="447.85" y="273.91" width="0.98" height="0.13"/><rect class="efd34dd4-f2e6-49e9-9cf6-03832b31fe37" x="461.45" y="273.91" width="0.98" height="0.39"/><rect class="efd34dd4-f2e6-49e9-9cf6-03832b31fe37" x="464.17" y="273.91" width="0.98" height="7.64"/><rect class="efd34dd4-f2e6-49e9-9cf6-03832b31fe37" x="466.89" y="273.91" width="0.98" height="1.17"/><rect class="efd34dd4-f2e6-49e9-9cf6-03832b31fe37" x="472.34" y="273.91" width="0.98" height="0.26"/><rect class="efd34dd4-f2e6-49e9-9cf6-03832b31fe37" x="475.06" y="273.91" width="0.98" height="1.04"/><rect class="efd34dd4-f2e6-49e9-9cf6-03832b31fe37" x="488.66" y="273.91" width="0.98" height="0.13"/><rect class="efd34dd4-f2e6-49e9-9cf6-03832b31fe37" x="491.38" y="273.91" width="0.98" height="0.26"/><rect class="efd34dd4-f2e6-49e9-9cf6-03832b31fe37" x="499.54" y="273.91" width="0.98" height="0.13"/><rect class="efd34dd4-f2e6-49e9-9cf6-03832b31fe37" x="502.26" y="273.91" width="0.98" height="1.3"/><rect class="efd34dd4-f2e6-49e9-9cf6-03832b31fe37" x="504.98" y="273.91" width="0.98" height="1.04"/><rect class="efd34dd4-f2e6-49e9-9cf6-03832b31fe37" x="507.71" y="273.91" width="0.98" height="0.26"/><rect class="efd34dd4-f2e6-49e9-9cf6-03832b31fe37" x="510.43" y="273.91" width="0.98" height="0.26"/><rect class="efd34dd4-f2e6-49e9-9cf6-03832b31fe37" x="513.15" y="273.91" width="0.98" height="0.26"/><rect class="efd34dd4-f2e6-49e9-9cf6-03832b31fe37" x="524.03" y="273.91" width="0.98" height="0.52"/><rect class="efd34dd4-f2e6-49e9-9cf6-03832b31fe37" x="526.75" y="273.91" width="0.98" height="0.13"/><rect class="efd34dd4-f2e6-49e9-9cf6-03832b31fe37" x="534.91" y="273.91" width="0.98" height="0.26"/><rect class="efd34dd4-f2e6-49e9-9cf6-03832b31fe37" x="543.07" y="273.91" width="0.98" height="0.65"/><rect class="efd34dd4-f2e6-49e9-9cf6-03832b31fe37" x="551.24" y="273.91" width="0.98" height="0.13"/><rect class="efd34dd4-f2e6-49e9-9cf6-03832b31fe37" x="553.96" y="273.91" width="0.98" height="0.13"/><rect class="efd34dd4-f2e6-49e9-9cf6-03832b31fe37" x="556.68" y="273.91" width="0.98" height="0.13"/><rect class="efd34dd4-f2e6-49e9-9cf6-03832b31fe37" x="559.4" y="273.91" width="0.98" height="0.39"/><rect class="efd34dd4-f2e6-49e9-9cf6-03832b31fe37" x="564.84" y="273.91" width="0.98" height="0.39"/><rect class="efd34dd4-f2e6-49e9-9cf6-03832b31fe37" x="567.56" y="273.91" width="0.98" height="0.13"/><rect class="efd34dd4-f2e6-49e9-9cf6-03832b31fe37" x="573" y="273.91" width="0.98" height="0.13"/><rect class="efd34dd4-f2e6-49e9-9cf6-03832b31fe37" x="578.44" y="273.91" width="0.98" height="0.39"/><rect class="fb5c0d8c-40f7-465f-a3e7-825d4915c641" x="23.33" y="268.96" width="0.98" height="1.94"/><rect class="fb5c0d8c-40f7-465f-a3e7-825d4915c641" x="26.05" y="257.57" width="0.98" height="13.34"/><rect class="fb5c0d8c-40f7-465f-a3e7-825d4915c641" x="28.77" y="256.66" width="0.98" height="14.25"/><rect class="fb5c0d8c-40f7-465f-a3e7-825d4915c641" x="31.49" y="264.3" width="0.98" height="6.6"/><rect class="fb5c0d8c-40f7-465f-a3e7-825d4915c641" x="34.21" y="268.58" width="0.98" height="2.33"/><rect class="fb5c0d8c-40f7-465f-a3e7-825d4915c641" x="36.93" y="268.32" width="0.98" height="2.59"/><rect class="fb5c0d8c-40f7-465f-a3e7-825d4915c641" x="39.65" y="267.54" width="0.98" height="3.37"/><rect class="fb5c0d8c-40f7-465f-a3e7-825d4915c641" x="42.37" y="267.93" width="0.98" height="2.98"/><rect class="fb5c0d8c-40f7-465f-a3e7-825d4915c641" x="45.09" y="265.08" width="0.98" height="5.83"/><rect class="fb5c0d8c-40f7-465f-a3e7-825d4915c641" x="47.81" y="269.22" width="0.98" height="1.68"/><rect class="fb5c0d8c-40f7-465f-a3e7-825d4915c641" x="50.53" y="266.5" width="0.98" height="4.4"/><rect class="fb5c0d8c-40f7-465f-a3e7-825d4915c641" x="53.25" y="266.37" width="0.98" height="4.53"/><rect class="fb5c0d8c-40f7-465f-a3e7-825d4915c641" x="55.98" y="263.14" width="0.98" height="7.77"/><rect class="fb5c0d8c-40f7-465f-a3e7-825d4915c641" x="58.7" y="259.77" width="0.98" height="11.14"/><rect class="fb5c0d8c-40f7-465f-a3e7-825d4915c641" x="61.42" y="265.86" width="0.98" height="5.05"/><rect class="fb5c0d8c-40f7-465f-a3e7-825d4915c641" x="64.14" y="262.23" width="0.98" height="8.68"/><rect class="fb5c0d8c-40f7-465f-a3e7-825d4915c641" x="66.86" y="267.15" width="0.98" height="3.76"/><rect class="fb5c0d8c-40f7-465f-a3e7-825d4915c641" x="69.58" y="260.42" width="0.98" height="10.49"/><rect class="fb5c0d8c-40f7-465f-a3e7-825d4915c641" x="72.3" y="239.05" width="0.98" height="31.86"/><rect class="fb5c0d8c-40f7-465f-a3e7-825d4915c641" x="75.02" y="238.66" width="0.98" height="32.25"/><rect class="fb5c0d8c-40f7-465f-a3e7-825d4915c641" x="77.74" y="265.21" width="0.98" height="5.7"/><rect class="fb5c0d8c-40f7-465f-a3e7-825d4915c641" x="80.46" y="263.27" width="0.98" height="7.64"/><rect class="fb5c0d8c-40f7-465f-a3e7-825d4915c641" x="83.18" y="265.34" width="0.98" height="5.57"/><rect class="fb5c0d8c-40f7-465f-a3e7-825d4915c641" x="85.9" y="263.78" width="0.98" height="7.12"/><rect class="fb5c0d8c-40f7-465f-a3e7-825d4915c641" x="88.62" y="264.3" width="0.98" height="6.6"/><rect class="fb5c0d8c-40f7-465f-a3e7-825d4915c641" x="91.34" y="262.62" width="0.98" height="8.29"/><rect class="fb5c0d8c-40f7-465f-a3e7-825d4915c641" x="94.07" y="264.82" width="0.98" height="6.09"/><rect class="fb5c0d8c-40f7-465f-a3e7-825d4915c641" x="96.79" y="262.49" width="0.98" height="8.42"/><rect class="fb5c0d8c-40f7-465f-a3e7-825d4915c641" x="99.51" y="263.27" width="0.98" height="7.64"/><rect class="fb5c0d8c-40f7-465f-a3e7-825d4915c641" x="102.23" y="261.97" width="0.98" height="8.94"/><rect class="fb5c0d8c-40f7-465f-a3e7-825d4915c641" x="104.95" y="260.16" width="0.98" height="10.75"/><rect class="fb5c0d8c-40f7-465f-a3e7-825d4915c641" x="107.67" y="263.4" width="0.98" height="7.51"/><rect class="fb5c0d8c-40f7-465f-a3e7-825d4915c641" x="110.39" y="263.14" width="0.98" height="7.77"/><rect class="fb5c0d8c-40f7-465f-a3e7-825d4915c641" x="113.11" y="262.88" width="0.98" height="8.03"/><rect class="fb5c0d8c-40f7-465f-a3e7-825d4915c641" x="115.83" y="270.39" width="0.98" height="0.52"/><rect class="fb5c0d8c-40f7-465f-a3e7-825d4915c641" x="118.55" y="267.8" width="0.98" height="3.11"/><rect class="fb5c0d8c-40f7-465f-a3e7-825d4915c641" x="121.27" y="266.63" width="0.98" height="4.27"/><rect class="fb5c0d8c-40f7-465f-a3e7-825d4915c641" x="123.99" y="263.52" width="0.98" height="7.38"/><rect class="fb5c0d8c-40f7-465f-a3e7-825d4915c641" x="126.71" y="266.89" width="0.98" height="4.01"/><rect class="fb5c0d8c-40f7-465f-a3e7-825d4915c641" x="129.44" y="264.69" width="0.98" height="6.22"/><rect class="fb5c0d8c-40f7-465f-a3e7-825d4915c641" x="132.16" y="267.41" width="0.98" height="3.5"/><rect class="fb5c0d8c-40f7-465f-a3e7-825d4915c641" x="134.88" y="264.3" width="0.98" height="6.6"/><rect class="fb5c0d8c-40f7-465f-a3e7-825d4915c641" x="137.6" y="260.55" width="0.98" height="10.36"/><rect class="fb5c0d8c-40f7-465f-a3e7-825d4915c641" x="140.32" y="263.91" width="0.98" height="6.99"/><rect class="fb5c0d8c-40f7-465f-a3e7-825d4915c641" x="143.04" y="256.4" width="0.98" height="14.5"/><rect class="fb5c0d8c-40f7-465f-a3e7-825d4915c641" x="145.76" y="265.21" width="0.98" height="5.7"/><rect class="fb5c0d8c-40f7-465f-a3e7-825d4915c641" x="148.48" y="263.4" width="0.98" height="7.51"/><rect class="fb5c0d8c-40f7-465f-a3e7-825d4915c641" x="151.2" y="265.86" width="0.98" height="5.05"/><rect class="fb5c0d8c-40f7-465f-a3e7-825d4915c641" x="153.92" y="256.4" width="0.98" height="14.5"/><rect class="fb5c0d8c-40f7-465f-a3e7-825d4915c641" x="156.64" y="252.13" width="0.98" height="18.78"/><rect class="fb5c0d8c-40f7-465f-a3e7-825d4915c641" x="159.36" y="265.47" width="0.98" height="5.44"/><rect class="fb5c0d8c-40f7-465f-a3e7-825d4915c641" x="162.08" y="263.14" width="0.98" height="7.77"/><rect class="fb5c0d8c-40f7-465f-a3e7-825d4915c641" x="164.8" y="264.17" width="0.98" height="6.73"/><rect class="fb5c0d8c-40f7-465f-a3e7-825d4915c641" x="167.53" y="269.35" width="0.98" height="1.55"/><rect class="fb5c0d8c-40f7-465f-a3e7-825d4915c641" x="170.25" y="270.65" width="0.98" height="0.26"/><rect class="fb5c0d8c-40f7-465f-a3e7-825d4915c641" x="172.97" y="270.26" width="0.98" height="0.65"/><rect class="fb5c0d8c-40f7-465f-a3e7-825d4915c641" x="175.69" y="269.48" width="0.98" height="1.42"/><rect class="fb5c0d8c-40f7-465f-a3e7-825d4915c641" x="178.41" y="270.26" width="0.98" height="0.65"/><rect class="fb5c0d8c-40f7-465f-a3e7-825d4915c641" x="181.13" y="267.67" width="0.98" height="3.24"/><rect class="fb5c0d8c-40f7-465f-a3e7-825d4915c641" x="183.85" y="269.48" width="0.98" height="1.42"/><rect class="fb5c0d8c-40f7-465f-a3e7-825d4915c641" x="186.57" y="268.7" width="0.98" height="2.2"/><rect class="fb5c0d8c-40f7-465f-a3e7-825d4915c641" x="189.29" y="268.06" width="0.98" height="2.85"/><rect class="fb5c0d8c-40f7-465f-a3e7-825d4915c641" x="192.01" y="268.96" width="0.98" height="1.94"/><rect class="fb5c0d8c-40f7-465f-a3e7-825d4915c641" x="194.73" y="268.32" width="0.98" height="2.59"/><rect class="fb5c0d8c-40f7-465f-a3e7-825d4915c641" x="197.45" y="269.22" width="0.98" height="1.68"/><rect class="fb5c0d8c-40f7-465f-a3e7-825d4915c641" x="200.17" y="266.89" width="0.98" height="4.01"/><rect class="fb5c0d8c-40f7-465f-a3e7-825d4915c641" x="202.89" y="268.96" width="0.98" height="1.94"/><rect class="fb5c0d8c-40f7-465f-a3e7-825d4915c641" x="205.62" y="266.89" width="0.98" height="4.01"/><rect class="fb5c0d8c-40f7-465f-a3e7-825d4915c641" x="208.34" y="266.24" width="0.98" height="4.66"/><rect class="fb5c0d8c-40f7-465f-a3e7-825d4915c641" x="211.06" y="265.34" width="0.98" height="5.57"/><rect class="fb5c0d8c-40f7-465f-a3e7-825d4915c641" x="213.78" y="247.98" width="0.98" height="22.92"/><rect class="fb5c0d8c-40f7-465f-a3e7-825d4915c641" x="216.5" y="260.93" width="0.98" height="9.97"/><rect class="fb5c0d8c-40f7-465f-a3e7-825d4915c641" x="219.22" y="266.89" width="0.98" height="4.01"/><rect class="fb5c0d8c-40f7-465f-a3e7-825d4915c641" x="221.94" y="263.14" width="0.98" height="7.77"/><rect class="fb5c0d8c-40f7-465f-a3e7-825d4915c641" x="224.66" y="253.55" width="0.98" height="17.35"/><rect class="fb5c0d8c-40f7-465f-a3e7-825d4915c641" x="227.38" y="269.09" width="0.98" height="1.81"/><rect class="fb5c0d8c-40f7-465f-a3e7-825d4915c641" x="230.1" y="269.48" width="0.98" height="1.42"/><rect class="fb5c0d8c-40f7-465f-a3e7-825d4915c641" x="232.82" y="269.35" width="0.98" height="1.55"/><rect class="fb5c0d8c-40f7-465f-a3e7-825d4915c641" x="235.54" y="269.74" width="0.98" height="1.17"/><rect class="fb5c0d8c-40f7-465f-a3e7-825d4915c641" x="238.26" y="268.32" width="0.98" height="2.59"/><rect class="fb5c0d8c-40f7-465f-a3e7-825d4915c641" x="240.99" y="263.01" width="0.98" height="7.9"/><rect class="fb5c0d8c-40f7-465f-a3e7-825d4915c641" x="243.71" y="265.73" width="0.98" height="5.18"/><rect class="fb5c0d8c-40f7-465f-a3e7-825d4915c641" x="246.43" y="267.28" width="0.98" height="3.63"/><rect class="fb5c0d8c-40f7-465f-a3e7-825d4915c641" x="249.15" y="264.95" width="0.98" height="5.96"/><rect class="fb5c0d8c-40f7-465f-a3e7-825d4915c641" x="251.87" y="266.5" width="0.98" height="4.4"/><rect class="fb5c0d8c-40f7-465f-a3e7-825d4915c641" x="254.59" y="266.11" width="0.98" height="4.79"/><rect class="fb5c0d8c-40f7-465f-a3e7-825d4915c641" x="257.31" y="266.89" width="0.98" height="4.01"/><rect class="fb5c0d8c-40f7-465f-a3e7-825d4915c641" x="260.03" y="263.01" width="0.98" height="7.9"/><rect class="fb5c0d8c-40f7-465f-a3e7-825d4915c641" x="262.75" y="259.38" width="0.98" height="11.53"/><rect class="fb5c0d8c-40f7-465f-a3e7-825d4915c641" x="265.47" y="260.81" width="0.98" height="10.1"/><rect class="fb5c0d8c-40f7-465f-a3e7-825d4915c641" x="268.19" y="256.01" width="0.98" height="14.89"/><rect class="fb5c0d8c-40f7-465f-a3e7-825d4915c641" x="270.91" y="261.84" width="0.98" height="9.07"/><rect class="fb5c0d8c-40f7-465f-a3e7-825d4915c641" x="273.63" y="265.47" width="0.98" height="5.44"/><rect class="fb5c0d8c-40f7-465f-a3e7-825d4915c641" x="276.35" y="267.02" width="0.98" height="3.89"/><rect class="fb5c0d8c-40f7-465f-a3e7-825d4915c641" x="279.08" y="270" width="0.98" height="0.91"/><rect class="fb5c0d8c-40f7-465f-a3e7-825d4915c641" x="281.8" y="270.78" width="0.98" height="0.13"/><rect class="fb5c0d8c-40f7-465f-a3e7-825d4915c641" x="284.52" y="270.52" width="0.98" height="0.39"/><rect class="fb5c0d8c-40f7-465f-a3e7-825d4915c641" x="287.24" y="270.39" width="0.98" height="0.52"/><rect class="fb5c0d8c-40f7-465f-a3e7-825d4915c641" x="289.96" y="268.96" width="0.98" height="1.94"/><rect class="fb5c0d8c-40f7-465f-a3e7-825d4915c641" x="292.68" y="216.9" width="0.98" height="54"/><rect class="fb5c0d8c-40f7-465f-a3e7-825d4915c641" x="295.4" y="142.44" width="0.98" height="128.46"/><rect class="fb5c0d8c-40f7-465f-a3e7-825d4915c641" x="298.12" y="268.58" width="0.98" height="2.33"/><rect class="fb5c0d8c-40f7-465f-a3e7-825d4915c641" x="300.84" y="269.35" width="0.98" height="1.55"/><rect class="fb5c0d8c-40f7-465f-a3e7-825d4915c641" x="303.56" y="270.26" width="0.98" height="0.65"/><rect class="fb5c0d8c-40f7-465f-a3e7-825d4915c641" x="306.28" y="270.13" width="0.98" height="0.78"/><rect class="fb5c0d8c-40f7-465f-a3e7-825d4915c641" x="309" y="269.87" width="0.98" height="1.04"/><rect class="fb5c0d8c-40f7-465f-a3e7-825d4915c641" x="311.72" y="270.65" width="0.98" height="0.26"/><rect class="fb5c0d8c-40f7-465f-a3e7-825d4915c641" x="314.44" y="270.26" width="0.98" height="0.65"/><rect class="fb5c0d8c-40f7-465f-a3e7-825d4915c641" x="317.17" y="269.61" width="0.98" height="1.3"/><rect class="fb5c0d8c-40f7-465f-a3e7-825d4915c641" x="319.89" y="270.52" width="0.98" height="0.39"/><rect class="fb5c0d8c-40f7-465f-a3e7-825d4915c641" x="322.61" y="270.78" width="0.98" height="0.13"/><rect class="fb5c0d8c-40f7-465f-a3e7-825d4915c641" x="325.33" y="270.13" width="0.98" height="0.78"/><rect class="fb5c0d8c-40f7-465f-a3e7-825d4915c641" x="328.05" y="269.87" width="0.98" height="1.04"/><rect class="fb5c0d8c-40f7-465f-a3e7-825d4915c641" x="330.77" y="270.65" width="0.98" height="0.26"/><rect class="fb5c0d8c-40f7-465f-a3e7-825d4915c641" x="333.49" y="269.87" width="0.98" height="1.04"/><rect class="fb5c0d8c-40f7-465f-a3e7-825d4915c641" x="336.21" y="270.26" width="0.98" height="0.65"/><rect class="fb5c0d8c-40f7-465f-a3e7-825d4915c641" x="338.93" y="270.78" width="0.98" height="0.13"/><rect class="fb5c0d8c-40f7-465f-a3e7-825d4915c641" x="341.65" y="268.96" width="0.98" height="1.94"/><rect class="fb5c0d8c-40f7-465f-a3e7-825d4915c641" x="344.37" y="270.26" width="0.98" height="0.65"/><rect class="fb5c0d8c-40f7-465f-a3e7-825d4915c641" x="347.09" y="270.65" width="0.98" height="0.26"/><rect class="fb5c0d8c-40f7-465f-a3e7-825d4915c641" x="349.81" y="269.35" width="0.98" height="1.55"/><rect class="fb5c0d8c-40f7-465f-a3e7-825d4915c641" x="352.54" y="270.13" width="0.98" height="0.78"/><rect class="fb5c0d8c-40f7-465f-a3e7-825d4915c641" x="355.26" y="270.52" width="0.98" height="0.39"/><rect class="fb5c0d8c-40f7-465f-a3e7-825d4915c641" x="357.98" y="269.22" width="0.98" height="1.68"/><rect class="fb5c0d8c-40f7-465f-a3e7-825d4915c641" x="360.7" y="270" width="0.98" height="0.91"/><rect class="fb5c0d8c-40f7-465f-a3e7-825d4915c641" x="363.42" y="270.26" width="0.98" height="0.65"/><rect class="fb5c0d8c-40f7-465f-a3e7-825d4915c641" x="366.14" y="268.96" width="0.98" height="1.94"/><rect class="fb5c0d8c-40f7-465f-a3e7-825d4915c641" x="368.86" y="267.93" width="0.98" height="2.98"/><rect class="fb5c0d8c-40f7-465f-a3e7-825d4915c641" x="371.58" y="270.52" width="0.98" height="0.39"/><rect class="fb5c0d8c-40f7-465f-a3e7-825d4915c641" x="374.3" y="270.65" width="0.98" height="0.26"/><rect class="fb5c0d8c-40f7-465f-a3e7-825d4915c641" x="377.02" y="270.26" width="0.98" height="0.65"/><rect class="fb5c0d8c-40f7-465f-a3e7-825d4915c641" x="379.74" y="267.15" width="0.98" height="3.76"/><rect class="fb5c0d8c-40f7-465f-a3e7-825d4915c641" x="382.46" y="270.26" width="0.98" height="0.65"/><rect class="fb5c0d8c-40f7-465f-a3e7-825d4915c641" x="385.18" y="269.35" width="0.98" height="1.55"/><rect class="fb5c0d8c-40f7-465f-a3e7-825d4915c641" x="387.9" y="270.39" width="0.98" height="0.52"/><rect class="fb5c0d8c-40f7-465f-a3e7-825d4915c641" x="390.63" y="269.87" width="0.98" height="1.04"/><rect class="fb5c0d8c-40f7-465f-a3e7-825d4915c641" x="393.35" y="270.39" width="0.98" height="0.52"/><rect class="fb5c0d8c-40f7-465f-a3e7-825d4915c641" x="396.07" y="270.65" width="0.98" height="0.26"/><rect class="fb5c0d8c-40f7-465f-a3e7-825d4915c641" x="398.79" y="267.41" width="0.98" height="3.5"/><rect class="fb5c0d8c-40f7-465f-a3e7-825d4915c641" x="401.51" y="270.65" width="0.98" height="0.26"/><rect class="fb5c0d8c-40f7-465f-a3e7-825d4915c641" x="404.23" y="268.7" width="0.98" height="2.2"/><rect class="fb5c0d8c-40f7-465f-a3e7-825d4915c641" x="406.95" y="270.52" width="0.98" height="0.39"/><rect class="fb5c0d8c-40f7-465f-a3e7-825d4915c641" x="409.67" y="270.78" width="0.98" height="0.13"/><rect class="fb5c0d8c-40f7-465f-a3e7-825d4915c641" x="412.39" y="269.87" width="0.98" height="1.04"/><rect class="fb5c0d8c-40f7-465f-a3e7-825d4915c641" x="415.11" y="269.35" width="0.98" height="1.55"/><rect class="fb5c0d8c-40f7-465f-a3e7-825d4915c641" x="417.83" y="247.73" width="0.98" height="23.18"/><rect class="fb5c0d8c-40f7-465f-a3e7-825d4915c641" x="420.55" y="270.39" width="0.98" height="0.52"/><rect class="fb5c0d8c-40f7-465f-a3e7-825d4915c641" x="423.27" y="270.26" width="0.98" height="0.65"/><rect class="fb5c0d8c-40f7-465f-a3e7-825d4915c641" x="425.99" y="270.65" width="0.98" height="0.26"/><rect class="fb5c0d8c-40f7-465f-a3e7-825d4915c641" x="428.72" y="270.52" width="0.98" height="0.39"/><rect class="fb5c0d8c-40f7-465f-a3e7-825d4915c641" x="431.44" y="270.78" width="0.98" height="0.13"/><rect class="fb5c0d8c-40f7-465f-a3e7-825d4915c641" x="434.16" y="270.78" width="0.98" height="0.13"/><rect class="fb5c0d8c-40f7-465f-a3e7-825d4915c641" x="436.88" y="270.13" width="0.98" height="0.78"/><rect class="fb5c0d8c-40f7-465f-a3e7-825d4915c641" x="439.6" y="270.65" width="0.98" height="0.26"/><rect class="fb5c0d8c-40f7-465f-a3e7-825d4915c641" x="442.32" y="270.39" width="0.98" height="0.52"/><rect class="fb5c0d8c-40f7-465f-a3e7-825d4915c641" x="445.04" y="269.61" width="0.98" height="1.3"/><rect class="fb5c0d8c-40f7-465f-a3e7-825d4915c641" x="447.76" y="270.26" width="0.98" height="0.65"/><rect class="fb5c0d8c-40f7-465f-a3e7-825d4915c641" x="450.48" y="270.26" width="0.98" height="0.65"/><rect class="fb5c0d8c-40f7-465f-a3e7-825d4915c641" x="453.2" y="270.65" width="0.98" height="0.26"/><rect class="fb5c0d8c-40f7-465f-a3e7-825d4915c641" x="455.92" y="269.35" width="0.98" height="1.55"/><rect class="fb5c0d8c-40f7-465f-a3e7-825d4915c641" x="458.64" y="270.52" width="0.98" height="0.39"/><rect class="fb5c0d8c-40f7-465f-a3e7-825d4915c641" x="461.36" y="269.61" width="0.98" height="1.3"/><rect class="fb5c0d8c-40f7-465f-a3e7-825d4915c641" x="464.09" y="65.26" width="0.98" height="205.65"/><rect class="fb5c0d8c-40f7-465f-a3e7-825d4915c641" x="466.81" y="191.52" width="0.98" height="79.38"/><rect class="fb5c0d8c-40f7-465f-a3e7-825d4915c641" x="469.53" y="268.7" width="0.98" height="2.2"/><rect class="fb5c0d8c-40f7-465f-a3e7-825d4915c641" x="472.25" y="270" width="0.98" height="0.91"/><rect class="fb5c0d8c-40f7-465f-a3e7-825d4915c641" x="474.97" y="270.13" width="0.98" height="0.78"/><rect class="fb5c0d8c-40f7-465f-a3e7-825d4915c641" x="477.69" y="270.39" width="0.98" height="0.52"/><rect class="fb5c0d8c-40f7-465f-a3e7-825d4915c641" x="480.41" y="270.65" width="0.98" height="0.26"/><rect class="fb5c0d8c-40f7-465f-a3e7-825d4915c641" x="483.13" y="270.65" width="0.98" height="0.26"/><rect class="fb5c0d8c-40f7-465f-a3e7-825d4915c641" x="485.85" y="270.65" width="0.98" height="0.26"/><rect class="fb5c0d8c-40f7-465f-a3e7-825d4915c641" x="488.57" y="270.26" width="0.98" height="0.65"/><rect class="fb5c0d8c-40f7-465f-a3e7-825d4915c641" x="491.29" y="270.65" width="0.98" height="0.26"/><rect class="fb5c0d8c-40f7-465f-a3e7-825d4915c641" x="494.01" y="270.13" width="0.98" height="0.78"/><rect class="fb5c0d8c-40f7-465f-a3e7-825d4915c641" x="496.73" y="270.39" width="0.98" height="0.52"/><rect class="fb5c0d8c-40f7-465f-a3e7-825d4915c641" x="499.45" y="270.65" width="0.98" height="0.26"/><rect class="fb5c0d8c-40f7-465f-a3e7-825d4915c641" x="502.18" y="263.14" width="0.98" height="7.77"/><rect class="fb5c0d8c-40f7-465f-a3e7-825d4915c641" x="504.9" y="267.15" width="0.98" height="3.76"/><rect class="fb5c0d8c-40f7-465f-a3e7-825d4915c641" x="507.62" y="266.5" width="0.98" height="4.4"/><rect class="fb5c0d8c-40f7-465f-a3e7-825d4915c641" x="510.34" y="268.7" width="0.98" height="2.2"/><rect class="fb5c0d8c-40f7-465f-a3e7-825d4915c641" x="513.06" y="268.7" width="0.98" height="2.2"/><rect class="fb5c0d8c-40f7-465f-a3e7-825d4915c641" x="515.78" y="268.06" width="0.98" height="2.85"/><rect class="fb5c0d8c-40f7-465f-a3e7-825d4915c641" x="518.5" y="270.52" width="0.98" height="0.39"/><rect class="fb5c0d8c-40f7-465f-a3e7-825d4915c641" x="521.22" y="270.52" width="0.98" height="0.39"/><rect class="fb5c0d8c-40f7-465f-a3e7-825d4915c641" x="523.94" y="270.39" width="0.98" height="0.52"/><rect class="fb5c0d8c-40f7-465f-a3e7-825d4915c641" x="526.66" y="270" width="0.98" height="0.91"/><rect class="fb5c0d8c-40f7-465f-a3e7-825d4915c641" x="529.38" y="270.52" width="0.98" height="0.39"/><rect class="fb5c0d8c-40f7-465f-a3e7-825d4915c641" x="532.1" y="269.61" width="0.98" height="1.3"/><rect class="fb5c0d8c-40f7-465f-a3e7-825d4915c641" x="534.82" y="270.13" width="0.98" height="0.78"/><rect class="fb5c0d8c-40f7-465f-a3e7-825d4915c641" x="537.54" y="270.39" width="0.98" height="0.52"/><rect class="fb5c0d8c-40f7-465f-a3e7-825d4915c641" x="540.27" y="270.26" width="0.98" height="0.65"/><rect class="fb5c0d8c-40f7-465f-a3e7-825d4915c641" x="542.99" y="270.26" width="0.98" height="0.65"/><rect class="fb5c0d8c-40f7-465f-a3e7-825d4915c641" x="545.71" y="270.78" width="0.98" height="0.13"/><rect class="fb5c0d8c-40f7-465f-a3e7-825d4915c641" x="548.43" y="270.13" width="0.98" height="0.78"/><rect class="fb5c0d8c-40f7-465f-a3e7-825d4915c641" x="551.15" y="270.52" width="0.98" height="0.39"/><rect class="fb5c0d8c-40f7-465f-a3e7-825d4915c641" x="553.87" y="270.26" width="0.98" height="0.65"/><rect class="fb5c0d8c-40f7-465f-a3e7-825d4915c641" x="556.59" y="269.87" width="0.98" height="1.04"/><rect class="fb5c0d8c-40f7-465f-a3e7-825d4915c641" x="559.31" y="269.35" width="0.98" height="1.55"/><rect class="fb5c0d8c-40f7-465f-a3e7-825d4915c641" x="562.03" y="270.78" width="0.98" height="0.13"/><rect class="fb5c0d8c-40f7-465f-a3e7-825d4915c641" x="564.75" y="270.78" width="0.98" height="0.13"/><rect class="fb5c0d8c-40f7-465f-a3e7-825d4915c641" x="567.47" y="269.22" width="0.98" height="1.68"/><rect class="fb5c0d8c-40f7-465f-a3e7-825d4915c641" x="570.19" y="269.22" width="0.98" height="1.68"/><rect class="fb5c0d8c-40f7-465f-a3e7-825d4915c641" x="572.91" y="270.13" width="0.98" height="0.78"/><rect class="fb5c0d8c-40f7-465f-a3e7-825d4915c641" x="575.64" y="269.87" width="0.98" height="1.04"/><rect class="fb5c0d8c-40f7-465f-a3e7-825d4915c641" x="578.36" y="270.39" width="0.98" height="0.52"/><rect class="fb5c0d8c-40f7-465f-a3e7-825d4915c641" x="581.36" y="260.41" width="0.98" height="10.5"/><text class="1de61cf1-5034-4fc3-b8cd-96c6f9a9d92b" transform="translate(52.37 20.59)">Palestinos e israelís fallecidos desde 2000 </text><text class="34ac8ce8-ffd9-459f-ab45-d0741897ca1a" transform="translate(468 74.05)"><tspan class="7c57bfe1-844b-4cf7-90df-2a9345f4c154">Margen Protector</tspan><tspan class="f1a1d99b-1386-47f7-8a7d-9c3950cb3a03"><tspan x="0" y="13.2">Julio y agosto de 2014</tspan></tspan><tspan class="7d698333-b015-48d7-a9ec-e46a4c08a242"><tspan x="0" y="26.4">Israel bombardea Gaza</tspan></tspan></text><text class="9855e42c-dc01-42f7-8905-5051e609a8a7" transform="translate(385 41.62)"><tspan class="fb48950a-d0e5-4b89-8a5c-41334ba03336">P</tspan><tspan x="6.52" y="0">ALESTINOS </tspan><tspan class="355c3c21-fdbd-46c7-85cb-82ebdc3d91d7" x="71.32" y="0">F</tspan><tspan class="ae0c943d-6c6d-4368-ac2d-6d86449da0ff" x="77.43" y="0">ALLECIDOS POR MES</tspan></text><text class="631ec72c-7b54-46a5-942c-5e52ca90286f" transform="translate(2.3 350.62)">Fuente: B’TSELEM</text><text class="631ec72c-7b54-46a5-942c-5e52ca90286f" transform="translate(487.96 350.62)">L<tspan class="a6c81471-9676-4db1-ba2f-e5fed99d12a2" x="6.12" y="0">A</tspan><tspan class="1f0e6dae-fb33-4f9c-8b47-41db416c8f6c" x="12.85" y="0"> </tspan><tspan class="6a9b788d-0428-446d-9f0d-db37da884d6a" x="15.9" y="0">V</tspan><tspan class="1f0e6dae-fb33-4f9c-8b47-41db416c8f6c" x="22.42" y="0">ANGUARDI</tspan><tspan class="a6c81471-9676-4db1-ba2f-e5fed99d12a2" x="80.49" y="0">A</tspan></text><text class="9855e42c-dc01-42f7-8905-5051e609a8a7" transform="translate(398 300.62)">ISRAELÍES <tspan class="355c3c21-fdbd-46c7-85cb-82ebdc3d91d7" x="59.92" y="0">F</tspan><tspan class="ae0c943d-6c6d-4368-ac2d-6d86449da0ff" x="66.03" y="0">ALLECIDOS POR MES</tspan></text><text class="34ac8ce8-ffd9-459f-ab45-d0741897ca1a" transform="translate(323.52 229.05)"><tspan class="7c57bfe1-844b-4cf7-90df-2a9345f4c154">Pilar defensivo</tspan><tspan class="f1a1d99b-1386-47f7-8a7d-9c3950cb3a03"><tspan x="11.77" y="13.2">Noviembre 2012</tspan></tspan><tspan class="7d698333-b015-48d7-a9ec-e46a4c08a242"><tspan x="-22.47" y="26.4">Israel bombardea Gaza</tspan></tspan></text><text class="34ac8ce8-ffd9-459f-ab45-d0741897ca1a" transform="translate(498.38 205.05)"><tspan class="7c57bfe1-844b-4cf7-90df-2a9345f4c154">Inauguración <tspan x="-18.08" y="15.6">embajada EEUU</tspan></tspan><tspan class="f1a1d99b-1386-47f7-8a7d-9c3950cb3a03"><tspan x="-18.68" y="28.8">14 de mayo de 2018</tspan></tspan></text><text class="34ac8ce8-ffd9-459f-ab45-d0741897ca1a" transform="translate(106.69 204.05)"><tspan class="7c57bfe1-844b-4cf7-90df-2a9345f4c154">Lluvia de <tspan class="bfd8af53-a32d-44a5-9f09-b0b9f671068b" x="59.96" y="0">V</tspan><tspan class="1e3fefc7-717c-41d7-8d5d-af889d381224" x="67.91" y="0">erano</tspan></tspan><tspan class="f1a1d99b-1386-47f7-8a7d-9c3950cb3a03"><tspan x="34.2" y="13.2">Junio de 2006</tspan></tspan><tspan class="7d698333-b015-48d7-a9ec-e46a4c08a242"><tspan x="-11.64" y="26.4">Israel bombardea Gaza</tspan></tspan></text><text class="34ac8ce8-ffd9-459f-ab45-d0741897ca1a" transform="translate(78 108.05)"><tspan class="7c57bfe1-844b-4cf7-90df-2a9345f4c154">Operación Escudo Defensivo</tspan><tspan class="f1a1d99b-1386-47f7-8a7d-9c3950cb3a03"><tspan x="0" y="13.2">Marzo y abril de 2002</tspan></tspan><tspan class="7d698333-b015-48d7-a9ec-e46a4c08a242"><tspan x="0" y="26.4">Israel reocupa las ciudades Palestinas</tspan></tspan></text><text class="34ac8ce8-ffd9-459f-ab45-d0741897ca1a" transform="translate(299 140.05)"><tspan class="7c57bfe1-844b-4cf7-90df-2a9345f4c154">Plomo Fundido</tspan><tspan class="f1a1d99b-1386-47f7-8a7d-9c3950cb3a03"><tspan x="0" y="13.2">Dic. 2008 y enero de 2009</tspan></tspan><tspan class="7d698333-b015-48d7-a9ec-e46a4c08a242"><tspan x="0" y="26.4">Israel ataca Gaza</tspan></tspan></text><line class="ddd61cf4-bd23-495a-a344-ee665fd77323" x1="215" y1="246.41" x2="215" y2="199.41"/><line class="ddd61cf4-bd23-495a-a344-ee665fd77323" x1="582.5" y1="257.41" x2="582.5" y2="210.41"/><line class="ddd61cf4-bd23-495a-a344-ee665fd77323" x1="73.5" y1="233.41" x2="73.5" y2="102.41"/></svg>