<svg xmlns="http://www.w3.org/2000/svg" viewBox="0 0 855 798"><defs><style>.aeee505e-e41a-4a15-aa00-7a449cd3305e{font-size:24px;}.\31 47a974b-4a35-4df9-a7ce-3cb1065c83e0,.\32 b3db87e-9e49-42f0-9bca-b8c39df9426c,.aeee505e-e41a-4a15-aa00-7a449cd3305e,.f3c04f2b-1139-4930-b5a0-90a3ea34ad42{fill:#757575;}.\32 b3db87e-9e49-42f0-9bca-b8c39df9426c,.\39 be6968f-b4ff-43cf-940b-54bea406fa3c,.aeee505e-e41a-4a15-aa00-7a449cd3305e{font-family:ArialMT, Arial;}.\30 ffb4737-4452-4dc7-be90-85f58e48300e,.\39 9b4f159-9650-4978-bfa3-907b7a9d9a03,.b2d46ced-d3b7-4717-aa4f-e1c658b89db8,.e48f137e-1117-446c-86b3-3a7157452b36{fill:none;stroke:#757575;}.\30 ffb4737-4452-4dc7-be90-85f58e48300e,.\39 99b9fb1-87c4-4b41-bf75-e1a9a8926650,.\39 9b4f159-9650-4978-bfa3-907b7a9d9a03,.b2d46ced-d3b7-4717-aa4f-e1c658b89db8,.d6d9c6a6-3f7b-432e-b091-c7f8bababf67,.e48f137e-1117-446c-86b3-3a7157452b36{stroke-miterlimit:10;}.\39 9b4f159-9650-4978-bfa3-907b7a9d9a03{stroke-dasharray:5 5;}.e48f137e-1117-446c-86b3-3a7157452b36{stroke-dasharray:4.92 4.92;}.b2d46ced-d3b7-4717-aa4f-e1c658b89db8{stroke-dasharray:5.01 5.01;}.\31 47a974b-4a35-4df9-a7ce-3cb1065c83e0{fill-opacity:0.3;}.d6d9c6a6-3f7b-432e-b091-c7f8bababf67{fill:#3f3f3f;}.\39 99b9fb1-87c4-4b41-bf75-e1a9a8926650,.d6d9c6a6-3f7b-432e-b091-c7f8bababf67{stroke:#fff;stroke-width:0.75px;}.\39 be6968f-b4ff-43cf-940b-54bea406fa3c{font-size:23px;}.\31 6d4a98c-cf9c-4fb3-824d-724bcbd337f9{font-size:37px;fill:#323232;}.\31 6d4a98c-cf9c-4fb3-824d-724bcbd337f9,.f3c04f2b-1139-4930-b5a0-90a3ea34ad42{font-family:Arial-BoldMT, Arial;font-weight:700;}.\39 99b9fb1-87c4-4b41-bf75-e1a9a8926650{fill:#117c08;}.f3c04f2b-1139-4930-b5a0-90a3ea34ad42{font-size:32px;}.efaa55f8-0dc3-4356-bcd1-0091e3a70cad{letter-spacing:-0.04em;}.\32 b3db87e-9e49-42f0-9bca-b8c39df9426c{font-size:20px;}.\35 1490153-3fa7-462c-ae98-0ae8cb2e008b{letter-spacing:-0.02em;}.\37 29a8509-9d16-407f-a463-6b67473568c1{letter-spacing:-0.06em;}.\31 39c0287-871c-4bc8-bd14-535fc4735816{letter-spacing:-0.07em;}</style></defs><title>2018.06_Mundial_ComparacionesEquipo</title><g id="36232380-c3bd-444c-aa20-ddfdbfd760e5" data-name="Capa 1"><text class="aeee505e-e41a-4a15-aa00-7a449cd3305e" transform="translate(543.07 594.56)">90 millones</text><text class="aeee505e-e41a-4a15-aa00-7a449cd3305e" transform="translate(544.07 640.56)">45 millones</text><text class="aeee505e-e41a-4a15-aa00-7a449cd3305e" transform="translate(539.07 687.56)">10 millones</text><line class="0ffb4737-4452-4dc7-be90-85f58e48300e" x1="763" y1="692.5" x2="760.5" y2="692.5"/><line class="99b4f159-9650-4978-bfa3-907b7a9d9a03" x1="755.5" y1="692.5" x2="548" y2="692.5"/><line class="0ffb4737-4452-4dc7-be90-85f58e48300e" x1="545.5" y1="692.5" x2="543" y2="692.5"/><line class="0ffb4737-4452-4dc7-be90-85f58e48300e" x1="756" y1="647.5" x2="753.5" y2="647.5"/><line class="e48f137e-1117-446c-86b3-3a7157452b36" x1="748.58" y1="647.5" x2="544.46" y2="647.5"/><line class="0ffb4737-4452-4dc7-be90-85f58e48300e" x1="542" y1="647.5" x2="539.5" y2="647.5"/><line class="0ffb4737-4452-4dc7-be90-85f58e48300e" x1="773" y1="604.5" x2="770.5" y2="604.5"/><line class="b2d46ced-d3b7-4717-aa4f-e1c658b89db8" x1="765.49" y1="604.5" x2="547.51" y2="604.5"/><line class="0ffb4737-4452-4dc7-be90-85f58e48300e" x1="545" y1="604.5" x2="542.5" y2="604.5"/><path class="147a974b-4a35-4df9-a7ce-3cb1065c83e0" d="M821,665.88A59.89,59.89,0,1,1,761.11,606,59.89,59.89,0,0,1,821,665.88"/><circle class="147a974b-4a35-4df9-a7ce-3cb1065c83e0" cx="758.56" cy="707.96" r="15.73"/><circle class="147a974b-4a35-4df9-a7ce-3cb1065c83e0" cx="758.54" cy="684.9" r="37.47"/><circle class="d6d9c6a6-3f7b-432e-b091-c7f8bababf67" cx="215.7" cy="405.49" r="61.58"/><circle class="d6d9c6a6-3f7b-432e-b091-c7f8bababf67" cx="330.61" cy="405.49" r="53.33"/><circle class="d6d9c6a6-3f7b-432e-b091-c7f8bababf67" cx="281.11" cy="499.97" r="53.33"/><path class="d6d9c6a6-3f7b-432e-b091-c7f8bababf67" d="M281.11,257.69A53.33,53.33,0,1,1,227.78,311a53.33,53.33,0,0,1,53.33-53.33"/><circle class="d6d9c6a6-3f7b-432e-b091-c7f8bababf67" cx="175.25" cy="297.94" r="53.33"/><circle class="d6d9c6a6-3f7b-432e-b091-c7f8bababf67" cx="177.35" cy="511.4" r="51.06"/><path class="d6d9c6a6-3f7b-432e-b091-c7f8bababf67" d="M382.89,269.21a48.68,48.68,0,1,1-48.68,48.68,48.68,48.68,0,0,1,48.68-48.68"/><circle class="d6d9c6a6-3f7b-432e-b091-c7f8bababf67" cx="380.28" cy="491.72" r="46.18"/><circle class="d6d9c6a6-3f7b-432e-b091-c7f8bababf67" cx="116.15" cy="439.26" r="43.54"/><circle class="d6d9c6a6-3f7b-432e-b091-c7f8bababf67" cx="96.54" cy="354.41" r="43.54"/><circle class="d6d9c6a6-3f7b-432e-b091-c7f8bababf67" cx="427" cy="415.12" r="43.54"/><circle class="d6d9c6a6-3f7b-432e-b091-c7f8bababf67" cx="472.25" cy="340.71" r="43.54"/><circle class="d6d9c6a6-3f7b-432e-b091-c7f8bababf67" cx="235.82" cy="584.36" r="42.44"/><circle class="d6d9c6a6-3f7b-432e-b091-c7f8bababf67" cx="237.68" cy="227.58" r="40.73"/><circle class="d6d9c6a6-3f7b-432e-b091-c7f8bababf67" cx="343.41" cy="570.43" r="40.73"/><circle class="d6d9c6a6-3f7b-432e-b091-c7f8bababf67" cx="341.3" cy="238.74" r="40.73"/><circle class="d6d9c6a6-3f7b-432e-b091-c7f8bababf67" cx="89.92" cy="514.81" r="36.43"/><circle class="d6d9c6a6-3f7b-432e-b091-c7f8bababf67" cx="297.64" cy="630.04" r="34.42"/><path class="d6d9c6a6-3f7b-432e-b091-c7f8bababf67" d="M294.07,164a26.66,26.66,0,1,1-26.66,26.66A26.66,26.66,0,0,1,294.07,164"/><circle class="d6d9c6a6-3f7b-432e-b091-c7f8bababf67" cx="452.28" cy="480.62" r="26.66"/><circle class="d6d9c6a6-3f7b-432e-b091-c7f8bababf67" cx="96.45" cy="284.2" r="26.66"/><circle class="d6d9c6a6-3f7b-432e-b091-c7f8bababf67" cx="401.31" cy="553.92" r="19.47"/><circle class="d6d9c6a6-3f7b-432e-b091-c7f8bababf67" cx="176.73" cy="579.32" r="16.86"/></g><g id="420f0ae3-bf5c-4872-ac6e-3d8bfecba925" data-name="Capa 3"><text class="9be6968f-b4ff-43cf-940b-54bea406fa3c" transform="translate(51.99 67.58)">Cada círculo representa el valor de un futbolista en millones de euros</text><text class="16d4a98c-cf9c-4fb3-824d-724bcbd337f9" transform="translate(41.81 37.6)">El valor de la selección alemana y mexicana</text></g><g id="f36d175e-6d45-4161-bde5-dd744585c55e" data-name="Capa 2"><circle class="999b9fb1-87c4-4b41-bf75-e1a9a8926650" cx="647.26" cy="375.96" r="33.73"/><circle class="999b9fb1-87c4-4b41-bf75-e1a9a8926650" cx="713.28" cy="375.96" r="32.29"/><circle class="999b9fb1-87c4-4b41-bf75-e1a9a8926650" cx="681.62" cy="428.69" r="29.21"/><circle class="999b9fb1-87c4-4b41-bf75-e1a9a8926650" cx="681.57" cy="326.26" r="26.66"/><circle class="999b9fb1-87c4-4b41-bf75-e1a9a8926650" cx="633.3" cy="322.24" r="21.77"/><circle class="999b9fb1-87c4-4b41-bf75-e1a9a8926650" cx="632.35" cy="427.65" r="20.07"/><circle class="999b9fb1-87c4-4b41-bf75-e1a9a8926650" cx="726.44" cy="327.19" r="18.22"/><circle class="999b9fb1-87c4-4b41-bf75-e1a9a8926650" cx="726.56" cy="422.54" r="16.15"/><circle class="999b9fb1-87c4-4b41-bf75-e1a9a8926650" cx="606.72" cy="348.22" r="15.39"/><path class="999b9fb1-87c4-4b41-bf75-e1a9a8926650" d="M767.74,348.61a15.39,15.39,0,1,1-15.39-15.39,15.39,15.39,0,0,1,15.39,15.39"/><path class="999b9fb1-87c4-4b41-bf75-e1a9a8926650" d="M767.36,403.84A15.39,15.39,0,1,1,752,388.45a15.39,15.39,0,0,1,15.39,15.39"/><circle class="999b9fb1-87c4-4b41-bf75-e1a9a8926650" cx="607" cy="403.41" r="15.01"/><circle class="999b9fb1-87c4-4b41-bf75-e1a9a8926650" cx="711.58" cy="297.93" r="14.6"/><circle class="999b9fb1-87c4-4b41-bf75-e1a9a8926650" cx="656.02" cy="294.91" r="13.77"/><circle class="999b9fb1-87c4-4b41-bf75-e1a9a8926650" cx="717.36" cy="449.06" r="11.92"/><circle class="999b9fb1-87c4-4b41-bf75-e1a9a8926650" cx="649.65" cy="454.57" r="11.92"/><circle class="999b9fb1-87c4-4b41-bf75-e1a9a8926650" cx="756.96" cy="377.5" r="11.42"/><circle class="999b9fb1-87c4-4b41-bf75-e1a9a8926650" cx="774.15" cy="363.28" r="10.89"/><circle class="999b9fb1-87c4-4b41-bf75-e1a9a8926650" cx="603.88" cy="373.19" r="9.74"/><circle class="999b9fb1-87c4-4b41-bf75-e1a9a8926650" cx="590" cy="386.12" r="9.24"/><circle class="999b9fb1-87c4-4b41-bf75-e1a9a8926650" cx="750.61" cy="427.63" r="8.43"/><circle class="999b9fb1-87c4-4b41-bf75-e1a9a8926650" cx="691.05" cy="294.83" r="6.16"/><text class="f3c04f2b-1139-4930-b5a0-90a3ea34ad42" transform="translate(190.8 130.1)">ALEMANI<tspan class="efaa55f8-0dc3-4356-bcd1-0091e3a70cad" x="145.77" y="0">A</tspan></text><text class="f3c04f2b-1139-4930-b5a0-90a3ea34ad42" transform="translate(613.24 211.93)">MÉXICO</text><text class="2b3db87e-9e49-42f0-9bca-b8c39df9426c" transform="translate(6.3 789.1)">Fuente: Elaboración propia a partir de<tspan class="51490153-3fa7-462c-ae98-0ae8cb2e008b" x="335.76" y="0"> </tspan><tspan class="efaa55f8-0dc3-4356-bcd1-0091e3a70cad" x="340.96" y="0">T</tspan><tspan x="352.43" y="0">ransfermarkt</tspan></text><text class="2b3db87e-9e49-42f0-9bca-b8c39df9426c" transform="translate(687.36 791.1)">L<tspan class="729a8509-9d16-407f-a463-6b67473568c1" x="11.12" y="0">A</tspan><tspan x="23.36" y="0"> </tspan><tspan class="139c0287-871c-4bc8-bd14-535fc4735816" x="28.92" y="0">V</tspan><tspan x="40.77" y="0">ANGUARDI</tspan><tspan class="729a8509-9d16-407f-a463-6b67473568c1" x="146.34" y="0">A</tspan></text></g></svg>