<svg id="Capa_1" data-name="Capa 1" 
	xmlns="http://www.w3.org/2000/svg" 
	xmlns:xlink="http://www.w3.org/1999/xlink" 
	viewBox="0 0 392.15 392.15"><defs>
	<style>
		@import url('https://fonts.googleapis.com/css?family=Open+Sans');
		.label {
        	font-family: OpenSans-Semibold, Open Sans;
        	font-size: 10px;
        	fill: #323232;
     	}

     	.label2 {
        	font-family: OpenSans-Semibold, Open Sans;
        	font-size: 12px;
        	fill: #ffffff;
     	}
		.indoeuropeas {
			fill:#a3d8d5;
			stroke: white;
			stroke-width: 0.5;
			stroke-opacity: 0.5;
		}
		.indoeuropeas:hover {
			opacity:0.5;
		}
		.austronesias {
			fill:#ed586e;
			stroke: white;
			stroke-width: 0.5;
			stroke-opacity: 0.5;
		}
		.austronesias:hover {
			opacity:0.5;
		}
		.turquicas {
			fill:#edad08;
			stroke: white;
			stroke-width: 0.5;
			stroke-opacity: 0.5;
		}
		.turquicas:hover {
			opacity:0.5;
		}
		.afroasiaticas {
			fill:#af0047;
			stroke: white;
			stroke-width: 0.5;
			stroke-opacity: 0.5;
		}
		.afroasiaticas:hover {
			opacity:0.5;
		}
		.cls-1,.cls-2,.cls-8{fill:none;}
		.cls-1{stroke:#777;stroke-opacity:0.5;opacity:0.25;}
		.cls-1,.cls-8{stroke-width:0.5px;}
		.cls-2{stroke:#757575;}
		.cls-3{fill:#ddd;}
		.cls-3,.cls-8{opacity:0.5;}
		.cls-14{fill:#ed586e;}
		.cls-16{fill:#af0047;}
		.cls-15{fill:#edad08;}
		.cls-8{stroke:#fff;}
		.cls-9{fill:url(#Degradado_sin_nombre_19);}
		.cls-10{font-size:18px;fill:#323232;}
		.cls-10,.cls-13,.cls-14,.cls-15,.cls-16{font-family:OpenSans-Semibold, Open Sans;font-weight:700;}
		.cls-11{font-size:10px;}
		.cls-11,.cls-12{fill:#757575;font-family:OpenSans, Open Sans;}
		.cls-12,.cls-13,.cls-14,.cls-15,.cls-16{font-size:9px;}
		.cls-13{fill:#91e2dc;}
		.cls-17{fill:#c1c1c1;opacity:0.55;}
	</style>
	<linearGradient id="Degradado_sin_nombre_19" x1="297.15" y1="-74.5" x2="384.15" y2="-74.5" gradientTransform="translate(-144.5 118.5)" gradientUnits="userSpaceOnUse"><stop offset="0.16" stop-color="#fff"/><stop offset="0.23" stop-color="#fff" stop-opacity="0.96"/><stop offset="0.35" stop-color="#fff" stop-opacity="0.87"/><stop offset="0.5" stop-color="#fff" stop-opacity="0.71"/><stop offset="0.67" stop-color="#fff" stop-opacity="0.49"/><stop offset="0.87" stop-color="#fff" stop-opacity="0.21"/><stop offset="1" stop-color="#fff" stop-opacity="0"/></linearGradient></defs><title>2018.10_MORIENTE</title><g id="BASE"><path class="cls-1" d="M509.31,63.76l-107.59-68L256.87-2.88M179.1-48.14,216-40.73,256.87-2.88M4.42,467.35l-31.91-59-10.9-69.57,22.48-108.3,64-103,95.79-81.94,113-48.44m77.76,582.13,39.49-45.72L388.3,430l-10-115.24L349.81,192,307.17,80.47,256.87-2.88M-66.32,265.55l.11,4.7.68,7.84,1.29,7.82,1.9,7.78,2.51,7.73,3.11,7.66,3.71,7.58,4.3,7.48,4.88,7.37,5.45,7.24,6,7.1,6.56,6.95,7.1,6.78,7.63,6.6,8.14,6.41,8.63,6.21,9.11,6,9.57,5.77,10,5.53,10.44,5.28,10.84,5,11.22,4.75,11.59,4.48,11.92,4.19,12.24,3.9,12.54,3.6L128,430.6l13.05,3,13.27,2.65,13.47,2.33,13.64,2,13.78,1.67,13.9,1.33,14,1,14.05.65,14.09.31,14.1,0,14.08-.38,14-.72,14-1.06,13.88-1.4L335,440.19l13.6-2.06,13.43-2.39L375.3,433l13-3,12.75-3.35L413.54,423l12.18-4,11.86-4.25,11.52-4.53,11.15-4.81L471,400.36,481.36,395l9.93-5.58,9.48-5.81,9-6,8.54-6.25,8-6.45,7.53-6.64,7-6.82,6.46-7,5.9-7.13,5.34-7.27,4.77-7.39,4.18-7.5,3.59-7.59,3-7.67,2.39-7.74,1.78-7.79,1.17-7.83.55-7.85,0-3.15M462.65,16.34,391.19-17.17l-87.8.88m114.94,1.87-55.94-16-65.15,9.87M378.1-34l-88.24,9.95m51.73-22.24L281.47-26.9m26.37-26.69-35.5,24.74m3.42-28.23-13,27.19M244.3-57.39,253-30M212.43-54.57l30.86,25.43M143.24-37l82.25,12.28M103.81-19.09l52.92-13.36,61.16,11.16M60.27,9l68.33-29.3,82.86,3.09M13.76,52.6,96.93-2l109.5-10.53M-30.45,117.57,62.1,25.31,202.92-7.42m-263.63,213,1-5.18,31.43-75.5L29.59,62.43l78.86-43.67,92.6-20.83M-63.81,305.79l3.17-74.49,31.53-78.56,58-68.12L108,33.24,200.88,3.37m-239,394.22L-52,261.81l30.67-81.59,56.42-73.69,76.94-59L202.41,8.75m-151.32,506L-2.05,431.88-7,318l26.2-87.18,48.2-84,65.74-73,77.2-55.24M95.4,545.52,35.76,467.43,27.9,342.06l22.74-89.56,41.83-88.35,57-79,67-62.27M135.64,565.15l-33.9-25.73L78.54,494.8,67.63,434.38l2.14-72.06,18.58-91.58,34.18-92.06,46.61-84,54.73-68.2m-51.73,551-27.75-20.22L125.16,514.9l-9.26-61.2,1.42-75.46,13.86-93.16,25.49-95,34.77-88,40.82-72.86M205.89,584.7l-18.44-16.06-12.88-40.36-6.28-61.41.82-77.55,8.71-94.26,16-97,21.86-90.74,25.67-76.09m-3.42,557-7.18-13.76-5-39.21-2.47-61.43.3-78.59,3.31-94.84L233,202.31l8.29-92.21L251,32.28M269.43,588.5l4.8-13.54,3.36-39.1,1.65-61.43-.2-78.68-2.2-94.9-4.05-98.16-5.53-92.35-6.49-78m40.52,553.3,16.3-15.44,11.39-40,5.57-61.42-.71-77.84-7.64-94.42-14.06-97.28L293,108.08,270.44,31.52M370.5,568.11l33-24.56,22.64-44.16,10.7-60.65-2-72.86L417.16,274l-32.51-92.71-44.34-84.9L288.25,27.1M409.92,550.2l59.82-76.66,8.2-127.1-22-90-40.39-89.16L360.53,87.23,295.85,23.68m157.61,498.4,55.2-82.35,5.69-116.6-25.57-87.68-47-84.9L377.59,76.3,302.27,19.57M500,478.51l41.44-81.72,1.51-100.14L514.52,211.6l-52.26-80.06L391,63.88l-83.69-49M544.19,413.54l21.54-69.77-2.92-76-30.38-82.19-55.89-74.79L400.32,50.36,310.81,9.81M574.44,325.53l-1-88.05L542,158.3,484.14,89.05,405.28,36.14,312.68,4.46M577.54,225.32l-3.17-18.74-31.53-76.11-58-63.61-79.1-45.22L312.85-1m239,134.5L514.13,76.35,458.78,32.14,389.6,3.92,311.32-6.36M132,563.66l2.73,1.12,7.45,2.88,7.67,2.69,7.87,2.5,8.06,2.31,8.23,2.11,8.39,1.91,8.53,1.71,8.66,1.5,8.76,1.29,8.86,1.07,8.93.86,9,.64,9,.42,9.06.2,9.06,0,9.05-.24,9-.46,9-.68,8.92-.9,8.84-1.11,8.74-1.33,8.63-1.54,8.5-1.75,8.36-2,8.2-2.15,8-2.35,7.83-2.54L373,567.1l7.4-2.91,1.31-.55m-329.54-48,5.64,4.43,6.61,4.76,7,4.59,7.33,4.42,7.67,4.24,8,4,8.3,3.85,8.6,3.64,8.87,3.43,9.13,3.21,9.38,3,9.6,2.75,9.81,2.52,10,2.28,10.17,2,10.32,1.78,10.45,1.53,10.56,1.28,10.65,1,10.72.76,10.76.5,10.79.24,10.8,0,10.79-.29,10.76-.55,10.7-.81,10.63-1.07,10.54-1.33,10.42-1.58,10.29-1.83,10.13-2.08,10-2.33,9.77-2.57,9.56-2.8,9.33-3,9.09-3.25,8.82-3.47,8.54-3.68,8.24-3.89,7.93-4.08,7.61-4.27,7.26-4.45,6.91-4.62,6.54-4.79,4.36-3.45M-1.18,460.14l2.34,3,5.21,6.15,5.69,6,6.15,5.87,6.61,5.72,7,5.55,7.48,5.38L47.23,503l8.29,5,8.67,4.79,9,4.57,9.39,4.35,9.72,4.12,10,3.88,10.33,3.63,10.6,3.37,10.86,3.11,11.09,2.85,11.3,2.58,11.49,2.3,11.66,2,11.81,1.73,11.93,1.44,12,1.15,12.11.86,12.17.56,12.2.27,12.21,0,12.2-.33,12.16-.62,12.1-.92,12-1.21,11.91-1.5,11.78-1.79L348,547.15l11.46-2.35,11.26-2.63,11-2.9,10.81-3.17,10.55-3.43L413.37,529l10-3.92,9.66-4.16,9.32-4.39,9-4.62,8.6-4.83,8.21-5,7.81-5.23,7.39-5.41,7-5.59,6.52-5.75,6.06-5.9,5.59-6,5.11-6.18,1.38-1.8M-37.65,398.64l3.32,6.75,4,7,4.59,6.92,5.12,6.8,5.65,6.67,6.17,6.53,6.67,6.37,7.17,6.21,7.65,6,8.11,5.83,8.56,5.63,9,5.42L47.8,480l9.81,5,10.19,4.72,10.55,4.47,10.89,4.21,11.21,3.94,11.5,3.66,11.78,3.38,12,3.09L148,515.25l12.47,2.49,12.65,2.19L186,521.82l12.95,1.57L212,524.63l13.14.93,13.2.61,13.24.29,13.25,0,13.24-.35,13.19-.67,13.13-1,13-1.31,12.92-1.63,12.78-1.94,12.62-2.25,12.43-2.55,12.22-2.85,12-3.15,11.73-3.44,11.45-3.72,11.14-4,10.82-4.26L448,488.81,458.09,484l9.73-5,9.33-5.24,8.91-5.46,8.47-5.67,8-5.87,7.55-6.06,7.07-6.24,6.58-6.41,6.07-6.56,5.55-6.7,5-6.83,4.48-6.94,3.93-7,2.58-5.34M-59.18,333.13l1.68,6.76,2.47,7.61L-52,355l3.65,7.46,4.23,7.37,4.81,7.26,5.37,7.13,5.92,7,6.46,6.84,7,6.68,7.51,6.5,8,6.32,8.5,6.11,9,5.9,9.43,5.68,9.86,5.44L48,445.93l10.68,4.95,11.05,4.68L81.18,460l11.74,4.13L105,467.93l12.34,3.54,12.61,3.24,12.85,2.93,13.07,2.61,13.26,2.29,13.43,2,13.57,1.64,13.69,1.31,13.78,1,13.84.64,13.88.3,13.89,0L279,489l13.83-.71,13.76-1,13.67-1.38,13.54-1.71,13.4-2,13.23-2.36,13-2.68,12.81-3,12.56-3.3,12.29-3.6,12-3.9,11.68-4.18,11.34-4.46,11-4.73,10.6-5,10.2-5.25,9.78-5.49,9.34-5.72,8.88-5.95,8.41-6.16,7.92-6.35,7.41-6.54,6.89-6.71,6.36-6.87,5.81-7L554,375.7l4.69-7.28,4.12-7.39,3.54-7.48L569.3,346l2.35-7.62,1.26-5.24M-59.18,198l-.49,2.43-1.15,7.71-.55,7.73.06,7.73.67,7.72,1.27,7.7,1.87,7.66,2.47,7.61,3.06,7.54,3.65,7.46,4.23,7.37,4.81,7.26L-33.9,291l5.92,7,6.46,6.84,7,6.68L-7,318l8,6.32,8.5,6.11,9,5.9,9.43,5.68,9.86,5.44L48,352.7l10.68,4.95,11.05,4.68,11.41,4.41,11.74,4.13L105,374.7l12.34,3.54,12.61,3.24,12.85,2.93L155.86,387l13.26,2.29,13.43,2,13.57,1.64,13.69,1.31,13.78,1,13.84.64,13.88.3,13.89,0,13.87-.37,13.83-.71,13.76-1,13.67-1.38,13.54-1.71,13.4-2,13.23-2.36,13-2.68,12.81-3,12.56-3.3,12.29-3.6,12-3.9,11.68-4.18,11.34-4.46,11-4.73,10.6-5,10.2-5.25,9.78-5.49,9.34-5.72,8.88-5.95,8.41-6.16,7.92-6.35,7.41-6.54,6.89-6.71,6.36-6.87,5.81-7,5.26-7.16,4.69-7.28,4.12-7.39,3.54-7.48,2.95-7.56,2.35-7.62,1.75-7.67,1.15-7.71.55-7.73-.06-7.73-.67-7.72-1.27-7.7-.19-.91M-37.64,132.45l-.8,1.8-2.81,7.21-2.24,7.27-1.67,7.32-1.1,7.35-.52,7.37.06,7.38.63,7.37,1.21,7.35,1.79,7.31,2.36,7.26,2.92,7.2,3.48,7.12,4,7,4.59,6.92,5.12,6.8,5.65,6.67,6.17,6.53,6.67,6.37,7.17,6.21,7.65,6,8.11,5.83,8.56,5.63,9,5.42,9.41,5.2,9.81,5,10.19,4.72,10.55,4.47,10.89,4.21,11.21,3.94,11.5,3.66,11.78,3.38,12,3.09L148,331.63l12.47,2.49,12.65,2.19L186,338.19l12.95,1.57L212,341l13.14.93,13.2.61,13.24.29,13.25,0,13.24-.35,13.19-.67,13.13-1,13-1.31,12.92-1.63,12.78-1.94,12.62-2.25,12.43-2.55,12.22-2.85,12-3.15,11.73-3.44L415.53,318l11.14-4,10.82-4.26L448,305.18l10.11-4.77,9.73-5,9.33-5.24,8.91-5.46,8.47-5.67,8-5.87,7.55-6.06,7.07-6.24,6.58-6.41,6.07-6.56,5.55-6.7,5-6.83,4.48-6.94,3.93-7,3.37-7.14L555,206l2.24-7.27,1.67-7.32,1.1-7.35.52-7.37-.06-7.38-.63-7.37-1.21-7.35-1.79-7.31L554.47,140l-2.92-7.2-.17-.37M-1.18,71l-3.24,4.5-4.13,6.4-3.62,6.49-3.11,6.58-2.59,6.65-2.07,6.7L-21.49,115l-1,6.78-.48,6.8.05,6.8.59,6.79,1.12,6.77,1.65,6.74,2.17,6.69,2.69,6.63,3.21,6.56,3.72,6.48,4.23,6.38,4.72,6.27,5.21,6.15,5.69,6,6.15,5.87,6.61,5.72,7,5.55,7.48,5.38,7.89,5.19,8.29,5,8.67,4.79,9,4.57,9.39,4.35,9.72,4.12,10,3.88,10.33,3.63,10.6,3.37,10.86,3.11,11.09,2.85,11.3,2.58,11.49,2.3,11.66,2,11.81,1.73,11.93,1.44,12,1.15,12.11.86,12.17.56,12.2.27,12.21,0,12.2-.33,12.16-.62,12.1-.92,12-1.21,11.91-1.5,11.78-1.79L348,278.71l11.46-2.35,11.26-2.63,11-2.9,10.81-3.17,10.55-3.43,10.27-3.68,10-3.92,9.66-4.16,9.32-4.39,9-4.62,8.6-4.83,8.21-5,7.81-5.23,7.39-5.41,7-5.59,6.52-5.75,6.06-5.9,5.59-6,5.11-6.18,4.62-6.29,4.13-6.4,3.62-6.49,3.11-6.58,2.59-6.65,2.07-6.7,1.54-6.75,1-6.78.48-6.8-.05-6.8-.59-6.79L535,113.7,533.31,107l-2.17-6.69-2.69-6.63-3.21-6.56-3.72-6.48-4.23-6.38L514.91,71M483,36.94l-4.61-5.44-5-5.32L468,21l-5.84-5.06-.59-.49m-409.31,0-1.8,1.49L44.66,22,39.3,27.21l-4.95,5.35L29.83,38l-4.09,5.57-3.65,5.66L18.88,55l-2.75,5.82-2.29,5.88L12,72.62l-1.36,6-.9,6-.42,6,0,6,.52,6,1,6,1.46,6,1.92,5.92,2.38,5.87,2.84,5.8,3.29,5.73,3.74,5.64,4.18,5.55,4.61,5.44,5,5.32,5.44,5.2,5.84,5.06L57.84,175l6.61,4.76,7,4.59,7.33,4.42L86.43,193l8,4,8.3,3.85,8.6,3.64,8.87,3.43,9.13,3.21,9.38,3,9.6,2.75,9.81,2.52,10,2.28,10.17,2,10.32,1.78,10.45,1.53,10.56,1.28,10.65,1,10.72.76,10.76.5,10.79.24,10.8,0,10.79-.29,10.76-.55,10.7-.81,10.63-1.07,10.54-1.33,10.42-1.58,10.29-1.83,10.13-2.08,10-2.33,9.77-2.57,9.56-2.8,9.33-3,9.09-3.25,8.82-3.47,8.54-3.68,8.24-3.89,7.93-4.08,7.61-4.27,7.26-4.45,6.91-4.62,6.54-4.79,6.16-4.94,5.76-5.09,5.36-5.22,4.95-5.35L483.9,148l4.09-5.57,3.65-5.66,3.2-5.74,2.75-5.82,2.29-5.88,1.83-5.93,1.36-6,.9-6,.42-6,0-6-.52-6-1-6-1.46-6-1.92-5.92-2.38-5.87-2.84-5.8L491,48.13l-3.74-5.64L483,36.94M446.65,12.87l-3.87-4.57-4.22-4.47L434-.52l-4.9-4.25-5.23-4.12-5.55-4-5.86-3.85-6.15-3.71L399.88-24l-6.71-3.39-7-3.23-4.48-1.93M132-32.54,126.14-30l-6.92,3.26-6.66,3.43-6.38,3.58L100.09-16l-5.8,3.88-5.49,4L83.64-3.94,78.8.33l-4.5,4.38L70.16,9.2l-3.8,4.58-3.43,4.67L59.86,23.2,57.18,28,54.87,32.9l-1.92,4.93-1.54,5-1.14,5-.75,5-.36,5,0,5,.43,5,.83,5,1.22,5,1.61,5,2,4.92,2.38,4.87,2.76,4.81,3.14,4.74,3.5,4.65,3.87,4.57L75.17,116l4.57,4.36,4.9,4.25,5.23,4.12,5.55,4,5.86,3.85,6.15,3.71,6.44,3.55,6.71,3.39,7,3.23,7.21,3.06,7.45,2.88,7.67,2.69,7.87,2.5,8.06,2.31L174,166l8.39,1.91,8.53,1.71,8.66,1.5,8.76,1.29,8.86,1.07,8.93.86,9,.64,9,.42,9.06.2,9.06,0,9.05-.24,9-.46,9-.68,8.92-.9,8.84-1.11,8.74-1.33,8.63-1.54,8.5-1.75,8.36-2,8.2-2.15,8-2.35,7.83-2.54,7.62-2.73,7.4-2.91,7.17-3.09,6.92-3.26,6.66-3.43,6.38-3.58,6.09-3.74,5.8-3.88,5.49-4,5.17-4.15,4.84-4.27,4.5-4.38,4.15-4.49,3.8-4.58,3.43-4.67,3.06-4.75,2.69-4.82,2.31-4.88L460.79,82l1.54-5,1.14-5,.75-5,.36-5,0-5-.43-5-.83-5-1.22-5-1.61-5-2-4.92-2.38-4.87-2.76-4.81-3.14-4.74-3.5-4.65M404.5-3.52l-3-3.55-3.28-3.47-3.55-3.39-3.81-3.3-4.07-3.21-4.32-3.1-4.56-3-4.79-2.88-5-2.76-5.22-2.64-5.42-2.51-5.61-2.38L346.07-42l-6-2.1L334-46l-6.27-1.8-6.4-1.64-6.53-1.49-6.64-1.33-6.73-1.16-6.82-1-6.89-.83-6.95-.67-7-.5-7-.33-7-.15-7.05,0-7,.19-7,.36-7,.53-6.94.7-6.88.87-6.8,1L204.27-52l-6.61,1.36-6.5,1.52-6.38,1.67-6.24,1.83-6.09,2-5.93,2.12-5.76,2.27-5.57,2.4-5.38,2.54-5.18,2.66-5,2.79L134.92-26l-4.51,3-4.27,3.13-4,3.23-3.76,3.32-3.5,3.41-3.23,3.49-3,3.57L106,.83l-2.38,3.7-2.09,3.75-1.8,3.8-1.5,3.84L97,19.77l-.89,3.89-.58,3.91L95.3,31.5l0,3.93.34,3.92.64,3.91,1,3.89L98.51,51l1.56,3.83,1.85,3.79,2.15,3.74,2.44,3.68,2.73,3.62,3,3.55,3.28,3.47,3.55,3.39,3.81,3.3L127,86.6l4.32,3.1,4.56,3,4.79,2.88,5,2.76,5.22,2.64,5.42,2.51,5.61,2.38,5.79,2.24,6,2.1,6.12,1.95L186,114l6.4,1.64,6.53,1.49,6.64,1.33,6.73,1.16,6.82,1,6.89.83,6.95.67,7,.5,7,.33,7,.15,7.05,0,7-.19,7-.36,7-.53,6.94-.7,6.88-.87,6.8-1,6.71-1.2,6.61-1.36,6.5-1.52,6.38-1.67,6.24-1.83,6.09-2,5.93-2.12,5.76-2.27,5.57-2.4,5.38-2.54,5.18-2.66,5-2.79,4.74-2.91,4.51-3L387.59,86l4-3.23,3.76-3.32,3.5-3.41,3.23-3.49,3-3.57,2.67-3.63,2.38-3.7,2.09-3.75,1.8-3.8,1.5-3.84,1.19-3.87.89-3.89.58-3.91.28-3.92,0-3.93-.34-3.92-.64-3.91-1-3.89-1.25-3.86-1.56-3.83-1.85-3.79-2.15-3.74L407.22.1,404.5-3.52m-46.64-8.21-2.06-2.43-2.25-2.38-2.43-2.32-2.61-2.26-2.78-2.19-3-2.12-3.12-2-3.27-2L333-31.34l-3.57-1.81-3.71-1.72-3.84-1.63-4-1.53-4.08-1.43-4.19-1.33L305.33-42,301-43.14l-4.46-1-4.54-.91-4.61-.8-4.66-.68L278-47.12l-4.75-.45-4.78-.34-4.81-.22-4.82-.11H254l-4.82.13-4.8.25-4.78.36-4.75.48-4.7.59-4.65.71-4.59.82-4.52.93-4.45,1-4.36,1.15-4.27,1.25-4.17,1.35-4.06,1.45-3.94,1.55-3.81,1.64-3.68,1.74L180.09-31l-3.4,1.91-3.24,2L170.36-25l-2.92,2.14-2.75,2.21-2.57,2.27-2.39,2.33-2.21,2.39-2,2.44-1.83,2.49L152-6.23l-1.43,2.56-1.23,2.6-1,2.62-.82,2.65-.61,2.66-.4,2.68-.19,2.68,0,2.69.23,2.68.44,2.67.65,2.66.86,2.64,1.06,2.62,1.27,2.59,1.47,2.56L154,35.86l1.86,2.48,2.06,2.43,2.25,2.38,2.43,2.32,2.61,2.26L168,49.92,171,52l3.12,2,3.27,2L180.77,58l3.57,1.81,3.71,1.72,3.84,1.63,4,1.53,4.08,1.43,4.19,1.33,4.29,1.23,4.38,1.12,4.46,1,4.54.91,4.61.8,4.66.68,4.71.57,4.75.45,4.78.34,4.81.22,4.82.11h4.82l4.82-.13,4.8-.25,4.78-.36,4.75-.48,4.7-.59,4.65-.71,4.59-.82,4.52-.93,4.45-1,4.36-1.15,4.27-1.25,4.17-1.35,4.06-1.45,3.94-1.55,3.81-1.64,3.68-1.74,3.54-1.82,3.4-1.91,3.24-2,3.08-2.06,2.92-2.14L349,47.28,351.61,45,354,42.68l2.21-2.39,2-2.44,1.83-2.49,1.63-2.53,1.43-2.56,1.23-2.6,1-2.62.82-2.65.61-2.66.4-2.68.19-2.68,0-2.69L367.14,9l-.44-2.67L366,3.68,365.19,1l-1.06-2.62-1.27-2.59-1.47-2.56-1.67-2.52-1.86-2.48m-49.71.21-1-1.23L306-14l-1.23-1.18-1.32-1.15L302-17.39l-1.5-1.08-1.58-1-1.66-1-1.74-1-1.81-.92-1.88-.87-1.95-.83-2-.78-2.07-.73-2.13-.68-2.18-.62-2.22-.57L277-28l-2.3-.46-2.34-.4L270-29.19l-2.39-.29-2.41-.23-2.43-.17L260.3-30l-2.45-.05H255.4L253-30l-2.44.12-2.43.18-2.41.24-2.39.3-2.36.36-2.33.42-2.3.47-2.26.53-2.21.58-2.17.63-2.12.69-2.06.74-2,.79-1.94.83-1.87.88-1.8.93-1.72,1-1.65,1-1.57,1-1.48,1.09-1.4,1.12-1.31,1.15-1.22,1.18-1.12,1.21-1,1.24L204.47-10l-.83,1.28-.73,1.3L202.3-6.1l-.52,1.33-.41,1.34-.31,1.35-.2,1.36-.1,1.36V2l.12,1.36.22,1.36.33,1.35.44,1.34.54,1.33.64,1.32.75,1.3.85,1.28.95,1.26,1,1.23,1.14,1.21L209,17.52l1.32,1.15,1.41,1.11,1.5,1.08,1.58,1,1.66,1,1.74,1,1.81.92,1.88.87,1.95.83,2,.78L228,28l2.13.68,2.18.62,2.22.57,2.27.52,2.3.46,2.34.4,2.37.35,2.39.29,2.41.23,2.43.17,2.44.11,2.45.05h2.45l2.45-.07,2.44-.12,2.43-.18,2.41-.24,2.39-.3,2.36-.36,2.33-.42,2.3-.47,2.26-.53,2.21-.58,2.17-.63,2.12-.69,2.06-.74,2-.79,1.94-.83,1.87-.88,1.8-.93,1.72-1,1.65-1,1.57-1,1.48-1.09,1.4-1.12L305,17.29l1.22-1.18,1.12-1.21,1-1.24.93-1.26.83-1.28.73-1.3.62-1.32L312,7.16l.41-1.34.31-1.35.2-1.36.1-1.36V.38L312.85-1l-.22-1.36-.33-1.35L311.86-5l-.54-1.33-.64-1.32L309.93-9l-.85-1.28-.95-1.26"/><path id="sphere" class="cls-2" d="M256.87,588.74,223.08,587l-33.41-5.29L157,572.93,125.41,560.8,95.27,545.45,66.9,527,40.61,505.73,16.69,481.81-4.6,455.52-23,427.15-38.38,397-50.5,365.43l-8.76-32.68-5.29-33.41-1.77-33.78,1.77-33.78,5.29-33.41,8.76-32.68,12.12-31.58L-23,104-4.6,75.59,16.69,49.3,40.61,25.38,66.9,4.09,95.27-14.34l30.14-15.36L157-41.82l32.68-8.76,33.41-5.29,33.78-1.77,33.78,1.77,33.41,5.29,32.68,8.76,31.58,12.12,30.14,15.36L446.83,4.09l26.29,21.29L497,49.3l21.29,26.29L536.76,104l15.36,30.14,12.12,31.58L573,198.36l5.29,33.41,1.77,33.78-1.77,33.78L573,332.75l-8.76,32.68L552.12,397l-15.36,30.14-18.42,28.37L497,481.81l-23.92,23.92L446.83,527l-28.37,18.42L388.32,560.8l-31.58,12.12-32.68,8.76L290.65,587Z"/></g><g id="EXTRAS"><path class="cls-3" d="M458.18,291.25l-4.12,7.06-2.17,6.52-.07,4,4.34,4,5.25,4.94,4.31,1.36,3.26,2.88,3.59,8.5.94,9.2-2.89,5.07-4.28,5.6-2.91,5.84-4.8,7.13-1.93-2.5.82-4L454,355.52l-3.76.85-2.11-1.9-2.95-4.32-4.32-.73L437,351l.09-4.3-4,1.55.41,5.79-1.56,8.39-1,5,.69,3.55,3-1L437,374l1.21,4,2.8,1.86,2.81-.51,2.55,1.62,1.08,0,2.86,1.86,2.08,2.49.44,3.17-.36,2.4.51,1.48.43,2.7,1.62.65,1.85,3.46,0,1.64-3.15,1.68-4.33-1.73-5.51-1.61-.62-2.25-2.81-2.19-.83-3.79-1.82-2,.27-3.77-1.16-1.71-2-1.21-1-2.17-2.72-1.91-2.49-1.57-.51,3.22L427,377.34l.23-3.32.91-5.35-.86-3.61,1-4.42-1.94-2.47-.33-5.74-2.25-2-2.38-5.7-1.83-6.31-2.7-3.67-2.64,3.66-4.77,5.45-2.73.36-3.12-.34.69-7-1.75-4.67-4.68-5.05.26-2.1-2.88.11-4.07-3.43-1.81-2.44-.73-2.67-1.34-2.36-2.5-2.62-4.38.91.8,2.12-1,3.4-2.2-.6-.55,1.16-1.44-.27-1.94,0-.38,2.14-3.3.7-5.86,2.46.83,4-2.22,3.76-6.76,5.08-5,7.41-3.52,4.07L343,352.27l.19,2.47-2.48,1.73-4.58,2.63-2.42.64L332.45,364l1.55,6.74.55,4.33-2,5.29.43,8.81-2.78.63-2.29,4.24,1.71,1.48-4.89,2.07L323,401.28,320.88,403l-5.33-4.18-2.76-6.94-2.29-5-2-2.28-3.08-4.77-1.59-6.48-1.06-3.24-5.19-7L295,352.84,293.09,346l-.26-6.63-1.24-5.07L284.1,338l-3.73-.48-7-6.42,2.45-2.08-1.59-2.12-6.17-4.54L264.3,321l-1.57-4-4-4.21-9.4,1-8.28-.08-7.19.52-9.49-2.19-5.45-1.66-5.63-1.16-1.65-7-2.3-1.2-3.89.63-5.22,2.17-5.85-2.55-4.5-4.92-4.48-2.23-2.56-5.75-2.5-8-2.64.49L175,278.58l-2.07,1.86-2.71-.76.59,2.62-.62,1.2.88,4.45,1.18,5.11,2.19,1.66.55,2.09,3,2.86V302l-.7,1.77.39,2,1.23,1.78.45,1.91.58,1.46.14-4.07,1.66-2.7,1.41-.4,1.29,1.95-.26,3.25-1.44,3.1.73,2.25.91-.14,0,1.54,4-.34,4.14.68,3,.53,3.76-3.35,4-3.15,3.44-3.11,1.58-1.76.59.54-.64,2.26-.74.94.37,4.46,2,4,2.71,2.26,3.69,1,3,1.24,2.16,3.33,1.31,1.92,1.83.82-.07,1.23-2,3.18-.89,1.49-2.28,1.61-2.13,3.62-2.36-.47-1.16,1.22-1,2.7.46,3.7-.53.63-2.43-.22-3.41,1.73-.66,2.6-1.26,1-3.29-.36-2.15,1.15-.11,2.18-2.64,1.22-2.88-.83-3.65,1.39h-2.45l-3.91.93-1.19,2.24-.24,1.8L177,363.2l-8.57,1.16-5,2.93-2.32-.11-1.53-.59-3.23,1.62-3.39.38-4.36-.59-1.32,0-1.25,1.15-1.38.1-.91,1.15-2.52-.66-1.7.34-3.5-1.07-1-3.35.42-2.83-.68-1.74-.57-4.12L133,354.5h1l-.25-2.55.73-.87.05-2.36-.39-2.43-1.28-2-.12-2.22-2.28-2.53-2-5.14-.74-4.72L125,325.12l-2-1.45-2.27-6,.12-3.89.78-3.15-1.52-6.75-1.72-2.74-2.22-1.85-.85-3.55.5-1.15-.63-3.19-1-1.61-.8-4.57L111.79,280l-1.26-4.43-2.14-.7,1.44-2.73.67-1.82,1.08-2,.07-.83-1.76,1.78-2,3.77L106,275.47l-1.23.59-1-2.24-1.24-3.07-.78-8.77-.57.33.1,6.29,1.11,6.33,1.09,9.51.88,3.47.7,3.52,2.63,7.27-1.08.65-.59,3.54,4.28,6.5.59,1.35.5,5.72-1.19.67-.31,5.71.65,6.88,1.59,1.85,2.29,2.73,1.88,6.93.68,5.23,2.33,3.31,6.12,6.75,2.43,3.69,2.41,3.69,1.4,2.18,2.33,2.16,1.06,1.89-.36,2.13-3,.55,2.06,1.94,1.59,1.34.82,2.36,2.15,2.67,2.56.58,5-.27,5.71.53,4.73-.72,2.63.14,1.94-.61,3,.34,1.7.18,2.49-.36,2.84-.07,2.63-1.4,2,.29,0,1.46-.65,3-.13,2.73-1.23,1.69-1.78,5.31L169,399.17l-3.59,5.89-4.85,6.51-4.73,4.69-6.42,5.43-5.37,2.83-7.91,3L131.28,430l-5.65,4.29-1.16,2.15-1.15.79-3.56.91-1.21,1.58-1.9-.17-.64,3-1.56,1.38-.86,2.71-2,.9-2,4.78.44,2.55,3.31,2.48.22,1.16-1.17,2.21.39,1.37-.15,1.93,2,3.12,2.48,4.66L119,473.2l1,2,.28,4,1.06,3.65,1.07,6.14,1.17,2.1-1,2.32-1.44,2.09L118.5,497l-4.11.15-5,.18-4.36,2.22-1.62.08-2.54,1.46-1.66.18.34,2.35,2.93,3.31,1.5,2.26.39,1,.74.09.95,3.18-.2,1.26,1.24.89-.17,1.11-1.42.51-3.19-.16-4.49-.14-1.38.46.94,1.42,1.17.6.36,1.46,0,1.78.73,2.25-.39.9-2,.37-.56.11-.9.75-.26,1-1,1.06-2.55.95-1.56.43-1.95-.05-3.05-.73L83.64,529l.1.49L81.27,528l-1.36-.36-4.18-2.38-1.82-.75-1.53-.88-2.6-.82-2.47-1.16-1.13-.15-1.41-.79L62.59,519l-1.11-.69-2.41-2,.18.28-1-1L56.86,514l-2.55-2.5.61.12-1.78-2.24-4.15-4-3.42-3.56h0l-5-5.51-3.92-4-2.7-3.2-2.62-3.7-2.16-3-3.9-6.05-2.17-4.29-1.33-2.24-1.94-2.38-3-4.24-3.55-5.72-1.63-2.89-4-5.72-1.26-3.14L5.25,443l-.69-3.17V437l-.32-1.61.06-2.9.35-1.11,1.24-1.32L6.55,429l-.32-2.86-.67-2.53-1.3-2.25-1.37-3.26-1.26-3.19,0-.77.76-1-1.63-5-1.07-3.46-2-4.06.22-.63-.61-1.74-1.2-4-3.06-6.89-3.56-7.26-2.25-5.53-2-6.39.07-1.47.66-.91.74-2.77.66-3-.57-1.2,1.23-4.41.62-3.38-1-4.18-1.35-2-.46-2.68-.73-1.37.15-1.29-3.24-1-1.08-1.26-1.19,0-2.26-2.27-1.25-4.46-.57-4.37-1.57-5.11-2-2-2.25-2.46-2.11-1.74-2.06-1.26L-38.26,312l-1.39,0-2.06-1.22-1.72-4-.91-1.28-1.27-3-1.22-1.84-2.22-2.67-1.33-.7-1.78-1.23-.3-.71-.41-.75-1.34-5.36-.9-6.36-.82-5.18-.44-5.1-.28-1.18-.56-4.1-.18-4.11.09-2.27.48-3.86.08-4.13v-3l-.12-1.38,0-1.7.34-2.42.1-1.49-.08-1.64v-3.6l-.26-1.59.15-2,.18-.7,0-1.91.21-1.2.83-4.07.66-1.67.78-4.87.19-3.15.55.45,1.36-1.79,1-1.66.79-2.75,1-1.43,1.69-4,1.68-4.84.83-2.62,1-2,.74-2.92.51-3.49.88-1.78,1-1.95.82-.12,1.34-1.4.69-1.7,1.81-2.16,1.86-1.25.63.23,1.58-1.85,1.29-2.31,1.8-1.74,1.48.23,3.17-2.77h.05l1.47-.33,1.24,2,2.65-.92,1.28.16,3.24-1.5,3.15-6.17,2.92-2.79,1.7-2,2.79-1.31,2.65.52,2.24,0,4.1-2.89L7.54,154l1.05,1.81-.41,3.32,1.69,2,1,3.47.71,1.09,3.33-.19,2.48,1.74,2.43-.42,2.77.82,3.93,3,3.74,3.29.67,1.8,3.27.21,2.48,2.27.29,2,1.81,1.17,3.81.36,1.42,2-1.5,2.36,3.2,0-.35,1.08-2.65,1.33-1.28,2.22.23,1.93L39,196.55l-3.06,1-.92,3.07,1.33,1.19-.54,2.87.65,1.59,2.42,4.2,1.41.46,2,2.58,2.87,5L44.59,224,47,226.79l3.58,5L53,236.43l2.18-.37,2.56-1.42.84-4.39,2.09-1.89,3.41-1,2.62.59,4.19,3.53.27,2.93,1.31.7.78,1.45,3.33,2.36L76.8,241l4.91,2.2,3.12,3,3.23,3.21L89.57,251l3.53-.44,2.09-.88,3.6.93,2.61,1.76.26,3.07,1.47-1.41,2.84,2.45,3.09,1.44,2.41-.65,1.69-1.37-.19-.4,1.82-2.16,2-3.79,1-1.17.13,0,2.74-3.92,3.13-3.16.13-.16.86-4.24,1.65-1.91-.7-2.91,2.12-1.55-2.53-.31-2.86-2.31-3.67,2.17-6-1.48-2.05-4-3.95-1.73-1.66,1.85-2.78-.4-2.44-4.27L96,218.5l0-6.12-1.29-4,3.39-3.26-1-3.45,5.9-3.23,5.31,2.06,3.12-3.34,6.27,3.32,5.56-1.79h4.69l5.94,1.9,5.05,5.79,4.69,3.69,4.67.42,3.14,1.38,5.36-1.64L158,208l.11-3.92-1.57-2.54-1.87-1.16-.84-2-3.15-5.79-3.36-3.2-1.89-4,2.83-.06,4.48-3.53-1.17-2.64,5.83-.68.31-1.17-3.36,0-2.86-.39-2.89,1-3.25-.73-3.65,1-1.11,3.29,1.17,1.81,3.63.81L144,185.73l-4.12-.31L134,186.85l-1.45-1.72,1.75-2.18-3-2.84,1-.77,3.88-.57-.45-1.52-4.49-3.17.64-2-3.23-.51-2.48,2.33L122,176.68l-.54,1.35-2.07.45-.74-.88-3.78,5.76-2.66,1.4-2.88,3.14-.28,3.38-.5,2.15,2.2,2.92-1.17,1-4.12-1.44-2.13,1-4,1.51.05-2.87.52-1-1.91-1.09-1.46-1.29L92,191.51l.84,4-2,0L89,194.59l-.39-3.48-1.14.81-.78,3.39.45,3.21-1.74.49.7,3.27.93,2.3-1.27,2.93-2.42-2.91-.23,3.11-2.32-.54L80,212.35l-2.22-1.08-1.66-3.66.71-4.72,1.07-3.68-.07-3-.13-3.77.54-1.54-.34-.65.52-1.13-.77-2.63,1-2.51,2.08-3.23,1.24-1.3-.06-1.07-.39-.73.1-2.08L81,173.85l-1.56-3.41-.53-2.74-1.56-3,0-5h.74l.13-2.78,1-1.63-1.1-1.86L76,154.93l.33-2.09,1.15-1.58h.14l.83,0L77,149.16l-3.07.2-1.47,2.39-1.2,1.1-.83,3,.73,4.06L70,164.7l.5,5.87,2.1,1.38,0,1.51-1.33.46,1.43,3.37,1.21,2.79,1,4.09-.2,1.1-1.5,1.44-.35-3.29-2-2.38-3,2.41,1,3.15-1.74,2.35-1.36-.48L62,191.7l-1.4-.41.83-1.5,2-2.25,1.19-.65.5-3.57.56-3-.78-1.38.44-2.65-1.19-2.07,0-2.74-1.71-1.7-.61-3.62-.23-4.8.19-4,2.45-5.15-.75-1.47-.72-3-1.45-.26-2.79,1L57.48,148l-3.79.78-3.08-5.14-3.89-1.52-2.27,2.42-1.86,2.69-4,1-3-1.8-1.29,1.29-2.94,1.1-3.36,2.75-1.16,3.4-2.46.69L21.85,158l-1.95-.84L16.27,159,14.15,156l-1.43-2.33-2.06.05-1.75.74L8.48,153,9,150.58l1.46-3.17-.73-2.9-1.35.13-.19-1.87-1-.77L10,139.06l1.95-2.81-.2-1.45,1-2.15,2.34-2.52,1.71-.57,1.49-1.49,2.36-2,1.49-1.78,1.06-1.91,1.18-1.47,2.66-2.75,1.17-2.64,4.22.25.76,3.39,1.71,2.88.8,3,1.35,1.56,2.28,3.57,3-1.43L50,120.85l2.46-6.36.92-3.49-.49-4.55,2.77-3,2.52,1.67,1.28,4.25,4-5.09-.37,3.48,6.53,1.18,3.69-2.75,2.16.74,2,.61,1.92-.23,7.22-4.46,3.91.55,1.31,1.45,1.16-.55,1.67,1.1-.52,1.2,3.1-1,1-1.89,2.11-2.39,1.48-2.87,4-4.14,1.35-.83,1.67-.77,1.71,1,1.69-.6h2.47l-2.07,2-1.79.9-.88,1.3.38,1.39-1.89,1.19-.12-.87-4.06,1.89-1.38,2.4L101.53,105l1,2.5-1.35,1.47,2.65.74,2.11-.33.79,3.34-.17,2.07,2.45-.29,4.91.19,3.87.24,1.6,2.09-.65,1.18,2.12,1.35,2-1.68,4.19.32,2.28-4,2.57-3.3,3.16-2.19,3.18-.4-.66,4.25,1.88.84,2.86-3.24,2.13-2.51-1.21.15-.24-2.27,1.69-2.62,3.61.13,3.19.67,1.88,1.84,2.41.89,4.2-1.4-.91-3.13-4.18-1.41-4.91-.18-4.09-.81.65-3-.8-2.44,3.85-3.92,2.26-4.26,2.93-1.92,3.85-1.7,7.83-2.37,1.9-.29,1.23-1.83-.81-3.11-3.9-.37-4.12,1.9-1.93,2.61-5.66,1.69-6.52,1.44-6.53,4.88-1.31,3.7-.22,3.4-5.82,3.65-2.86-.29-6.83,6.61-4.5,3.25L116.49,105l-4,2.58L110,106.18l2.93-4.42,2.8-5.82L120,89.23l1.34-3.31-7.83,1.84-3-1,0-3.91,4-4.51,9.5-8.78,4-1.11,7.1.21,7.07-1.46,8.32-3.08,11.19-4.6L167,58.34l8.59-2.26,4.61.08,2.07,1.41,5.07-2,2.39,1.37,3.23.38,2.36,4.79-2.82.28-.19,3.21,2.7-.78,1,3.46L200,70.82l4.17,6.89.43,2.48-1.33,3-3.41,1.75-4,.26-6.79-6.12-1.74.05,1.13,4.26-1.1,2.07L184.86,90l1.94,2.25,1,1.7,1.47-2.1-.21-2.33,2.27-1.28,3.67,4.3L197.4,92l.21-3.71,7-3.15,1.79.72,1.27,2L210.18,85l-.54-3.07,2.15-2.46-.19-3.07,4.81,2.6.16,2.74-2.77,0-1,2.52,1,1.89,3.61-.37L219,83l5-1.45,8.12-2.94,1.45.4-2.65,2.54,2.43.78,1.81-1.42,3.86.23,3.31-1.68,2,2.93,2.65-2.93-1.8-2.77,1.19-1.45,5.65,1.61,2.7,1.48,7.5,5.24,1.26-2.47-2.19-2.38-.1-1-2.41-.42.6-2.17-1.09-3.53-.07-1.45,3.16-4.09.88-4,1.16-.91,4.5.93.69,2.41-1.18,3.7,1.3,1.35,1,3.1.4,6.26,2.64,2.67-.45,3.16-3.48,6.94,2.67.55.68-1.76,2.27-1.39.22-2.37,1.47-2.37-1.67-2.53.43-3.11-2.25-.19L271.74,76l.78-4.65-2.95-3.46,2.62-3.23-1-3.07.8-.17,1.36,2.33.17,4.32,2.08.62-1.48-3.1,2.46-2,3.42-.66,3.88,2-2.64-3.37L279.66,57,282,55.77l3.68-.45,3-1.18-2.16-1.9.35-3,1.49-.45,1.47-2.58,3-1.41-.27-1.17,2.88-1.3,1.58.53L298,40l2.07-.69L299,37.64l-.38-1.9.94-2.39,2.74.36-.45,1.44,2.74-.5,2,1.54V34.93l2.8-1.41,4,.37,2.25.74,1.88,1.81.1,1.61-.58,3.41.29,1.47,1.9-.26,2.6,0,.23-1.21,3.09,1.83-.56-1.16,1-1.58,3.89-1.68,2.25,1.3,4.6-2.68L333,35.13,335.58,34l1.24-1.24,3.74.17L344,34.35,345.51,36l4.77,1.11,3.2-.31-4.4-3.75,3.34-.27-.24-2.27,2.71-1.06-1-1.38,1.57-1.23-5.13-1.46-1.62-2.16L355,16.2l3.32.23,4.43-1.31-.88-4.44.75-1.8,2.1-.3,3.88,1.15L370,8.78,368.62,7l-.57-2,.44-1.82-1.28-2.16,3.8-1-2.25-1.67-2.87.28-2.49-.86-.28-3.08-1.59-2.17.32-2.66,1-1.22,1.48-2.19,2-2.34,2.91.36.38-.62-3-.06-2.4-2.81,1.64-1.78L369-19.49l2.49,1.85,4.29.52,1.41.58,1,1.08-.62.68.23,1.38-1.72,0,.35,1.08,1.76,1.42-1.08.39L375.18-11l2.26,1.56,1.77-.18,2.53,1h0l3.29,2,.83,1.55,1.7-.62,3.27.05.78-.33,1.78.27,1.48.62.84,2.27,6,4.79,1.29,1.42,4.53,3.23,4,3.12L414,11l-2.35,1,5.24,5.39h-1.56l2.5,2.31-.12,1.82L421,23.38l5,4,1.91.83.67-1.4,6.88,3.48L436,32l4,2.74,1.84.29,2.86,4.44L450,43l1.39,3.47,4.58,3.37,4.24,5.47-3-1.27-6.52-3.34-10.18-5.08L434,41.17l-2.84-3L428.92,37l-1.2-3.13-6.35-5.78-5.42-4.89-4.48-4.31-7.24-3.75.85,1.89,4.26,2.41,6,6-5.92-1.32,1.93,4.58,8.17,7.76,3,.18,1,4.26.18,2.78-3.48-2-1.15,2.06,1.95,3.3-2.2,4.37-.6,6.06,6.43,11.4,6.47,14.57,2.31-2.24,3.23,1.38,2-.92-1.54-2.89,1.33-1.7,6.09,1.2,3.72,2.9,3.57,5,4.94,4.48L463,97.46l4.14,8.57,2.31,3.4,2.76,7.46,2.47,7.55,1.22,3.82.06,5.31-1,1.4-2.75-.75.27,6,.87,1.78-.89.54.37,2.39.59,2.13,2.46,3.12-.26,2.08.23,1.18.22,2.13-.8,2.16,0,2.14,1.3,2.05.1.75,1.34-.11,2.54.79,5.4,3.49,2.46,2.42,3.46,5.29.82,3.41-1.37,3-.58,3.77-1.8,2.44-1.77-2.32-1.71-3.95-4-3.93,1.15-2.41-4.06-2.5-1.65.16.28,1.14-.41,1-.64-.81-.86.13-1.1-.18-.69-2.64.19-1-.76-.66-1.08-3-.65-.62-1.65.71-1.89-.27-2.36,4.2-.37,3.69L463,177.23l0-3.28-1.67-1.43-.1-4.75-2.87-1.42-1.05,3.37-.79,5.51.26,4.3-2.47,2.13-.09,3.24,3.31,2.28,2.66-.81,1.32,2.12,2.92-.17.94-5.71,3.36.05,1.69-1.21,1.89,2.17-2.81,4.29.25,3.58L468.52,196l.43,4.49,4.38.45,3.59,4,4,3.18,3.74,2.29,1.76,3.7-1.07,2.74,1.91,2.11,2.35.21L491,223.5,492,228l-1.38,1.72.2,7.06.26,8.43-.56,8.13-2.69,7.79-3.13,7.38-3.63,3.07-1.4,3.6-1.72-.91L476.79,278l-4.27,5.53-3.68,3,.21,6.18-2,1.43-2-3.23.36-2.48-5.59,1ZM42.26,356.92l2.93,3.76-2.62-3.35Zm45.49,15-.32,4,.36-4.56ZM200.6,217.18v-1.37l1.36-2.17-.46-2-4.32-2.52-.88-5.19-1.9-1.72.22-1.79,3.67,1.08.89-4,3.43-.42,3.24,1.26,1.57-5.24-.12-3.45-3.8-.24-2.92-1.78-4.78,1.72-3.72.57-2.42,2.92-3.83.24L180.75,198l2.27,5.82-1.2,3.6,2.94,7.23,1.54,3.26,1.32,4.25,1.88.57,1,1.7-3.48-.1-1.53,4.17-1.08,1.82-1.77,1-.41,2.76.6,4.31,3.87,1.82,2.55,3.26,6.07,1.86,7.08-.6.59-1.25-.3-4.06,1.4-5.76-3.06-2.3,1.63-3.67-2.74-.69,1.62-4.55,3.74,1.85,3.91-1.35-2.57-3.68-.73-3.31-3.51,1-1,4ZM310.5-53.15l.6.1,2.25.41-.43,0,2.53.65v.3l2.57.56,4.34,1,2.65.76,3.34,1.44,2,.69,3.57,1.3,3.61,1.06,3.57,1.58,1.64,1,3.13.95,1.43-.14,1.47.5,3.26,1.08,3,.89,3.17,1.13h-1.43l-3.93-.59-3.24-1-.14.23L353.94-38l3.52.77,5.37,1.63-.13-.59L367-35l3.75,1.37L374-32.31l2,.55,5.19,2.19,2.24.73,4,1.8,1.27.81,3,1.45,3.36,1.67L398-21.65l4.62,2.7-.27,0-3.93-2-3.13-1.63-4.16-1.92-3.05-1.7-2.46-1-5-2.14-1.15-.4-2.78-1.09-2.88-.62-3-.86,3.45,1.44.1.28,2.36.82-.4.48,1.79.52-1,.16,3.4,1.42,1.21.74-2-.26-1.67-.42-.08.56,3.11,1.66-.24.74.29.68L379-23.76l-.36.68-2.89-.75L372.2-25l-2.57-.58-1.6-.9-.53-.69-3.18-1-.9-.73L361-29.72l-1.37.13.25.54-2.65-.76,1,.6,2.54,1.08,1.33.34.41.77,2.63,1.49L366.39-24l-1,.34-.62,1.18L361.09-24,356-26.29l-1.18-.79,2.17.14-3.33-2-1.16.79.29,1.17-1,.69-.44.91.46,1.28-2.88-.47-2.39-1.56-3.46-1-2.25-.05-3.19-.64-1.7-.71-4.16-1.19-1-.71-4-.73-1.3-1.17.56-.81-1.3-.15-2.22-1.14.84-.14-1.73-1.11-1.86-.55-2.33-1.54L314.61-39l-.91-.55-2.65-.56-1.79-1.08-1.54-.69L305-43l-1.83-1.21-1.75-.55-2.47.07-2.82-.14-2.54-.69h-3.51l-3.4-.19L286-46.4l-1.71.08-1,.55-1.13-.31L280-47.62l-3.23.59.46-1-2.54,0-1,.31L271.38-48l-2.72-.74-4.51-.68-2.75-.29-2,0-2.74-.63,3-.56-3.84-.26-5.74.24-1.74.26-2.53-.57-2.06.69,2.35.37-1.15.48-2.45.21-1.56.24-1.82-.15-2.52-.44-2.24.32-4.15-.07-3,.59-3,.42,1.1.62-1.52.47-3.6.17-1.5-.94v1l-1.64.28.88,1.22,3.08.3,2.82.09,1.63,1.43-.79,1.35-2.47.21-2.53-.22L215-43.36l.62-.91-3.79.56-2.14-1-.8,1.39-3.64,0-1.13-.81-3.42,0-.28,1.15.79,1.13,2.66,1.05-2.6.68-2.89.69-3.65.37-1.51-.35L193-40.4l-2.77.08-1.13-.39,1.81-1.7,2.33-1,2.79-.43-.62-.51v-1.09l-.39-.42,1-1,3.06-.86.94-.66-1.14-.34,2.52-.7,1.49-1,.8-1-.28-.41L201.74-52l-4.31.8-2.86.23-2.64.33-3.59.89-6,1.35-3.56.82-3,.68-4.11,1.1-3.91,1.06L163-43.27l-3.23,1.05-1.64.3-3.28.92-4.77,1.55-6.66,2.4L142-36.5l1.1-.28,5.55-1.72,3.28-1.06-3,1.38-1,.79.59.22,2.12-.4,4.07-1,5-1.4.24.9,3.62-.52,5.28-.3-.79.62-4.38,1.5-2.41.95-.83.76-3,.91-4.36,1.3-1.91.39-3.78,1.88-2.83.25-5,.93-2.41,1.13-3.52,1.2-1,1.39,2.16.49.49.53-4.75,1.47-7.17,2.57-6.56,2.53-1.58.06-4.64,2.45-3.84,1.94L102.94-12l-2.38,1.38-4,1.75-1.9,1.4L92.53-6.24,88.11-4.41,88-5l.06-.62,2-2.13-.32-.76L92.84-11l5.55-3.66,3.54-2.3,2.26-1.45-.2-.25,1.88-1.26-.09-.21.28-.17h0l30.71-14.2,32-10.91,33-7.5,33.59-4,33.83-.48,33.69,3.06ZM104.39-19.41l-.47.39-2.83,1.93L97.75-15,94-12.81l.15-.43L90-11,86.82-9.12,82-6,78.44-3.47l1.32-.36L77.21-2.37,74.53-.53l.78-.92L78.9-4.16l1.33-.93.19-.13h0l4.81-3.07-1.43,1,4.09-2.6L89-10.59h0ZM267.79,585.8l2.32.15,3.46,0,.05.13-1.16.35-5.61.23,0-.35.63-.31ZM507.45,469.66l-.17.21-4,4.64-3.77,4.23-3.47,3.73-2.06,2-3.89,4-2.74,2.65-1.85,2-2,2-2.22,1.93-1.86,1.62-1.86,1.38-2.2,1.84-2,1.59-3,2.75-.7.48-2.14,1.82-2.17,1.85-2,1.37-1.95,1.34-1.59.38-1.17.54,1.43-1.61,1.85-1.37,1.05-1,.73-.94,2-2.23,1-1.49.57-1.91.71-1.39,1.34-1.82.05-1.18.51-.86-.66-.34,1.11-2.22-.42-1.37.3-1.09.7.5.56-2.35,1.16-.07.3.64.88-1.64-.28-1.58.23-.86-.29-.52,1.37-2.21,1.11-1.27,1.31-2,.58-1.82,2.57-3.44-.94,2.54,2.57-3.37,3.31-3,2.33-2.64,3.14-3.07,1.63-1.32.72-.18,3.15-3.2,2.12-1.83.82-1.18,1-1,1.7-1.22,3.71-3.63,2.34-3,1.58-2.68,2.51-3.43.72-1.67.85-2.21,3.23-5.14,0,2.38,1.52-1.88-.38-1,1.56-2.75,1-.25,1.35-3.4,2.17-3.42,1.17-2.25,1.61-2,.38-1.2,1.06-.67.35-1.09,1.36-1.76,1.45-1.85,1.38-.06.68,1,1.55-1.66,1.44-1.34.19-1.71,2.15-4.68,1.39-2.35-.09-.63,1.68-3.64,1.8-3.19,1-.92,2.08-3.17.5-2.16-1.3.64,1.34-2.14,1.2-.79.71.27,1.47-1.28.69-1.26.89-.44,1.44-2.92.62-.71.65-1.52.28.83-1.1,3.1L553,386.31l-.69,1.14-.28,1.39-1.19,3-1.33,3.11-.25,1,.72.07.92-.85h.38l.31.42.46-.81.43-.42-.25.86.88-1.32,1.5-3.34,1.14-2.85,1-2.47,1-2.71,1.57-4.32.49-1.68.49-1.47.6-2.16,1.13-3.69.51-1.46.19-1,.94-3.06.86-3,.34-1.34.88-2.8-.15,1.34-.6,2.58.18-.22L564.7,362l-.17,1.16-.62,2.27-.51,1.7h0l-.64,2.37,1.23-3.57-.23.86-.06.28-.75,2.25-.09.26h0L550.33,401l-15.76,29.93L515.77,459Zm-27.6-83.38,3,0,3.06-2.59.67-4.49,1.65-1.86,4.61-3.76,2.53-5.46,1.66-4.2,1.35-2.73,2.92-4.67,2.49-5.22,1.41-5,1.42-1,2.06,1.21.37,2,2.4-.27,3-.61-.08,2.08-2.26,1.91.8,1.91L510.46,357l-1.73,5.73,2.77,2.71-.53,2.61,4,1.58-4.07,3.5-1.15,4,.13,4.13-3.47,5.52-.24,4.66-1.76,7.91-.43-1.26-4.29,4.75-1.3-1.84-2.67,1.4-1.83-.3-4.68,4.35-1.31-1.39-2.6,1.72L482,408.11l-.42-5.82-2-.21-1.93-2.94-.56-3.81.42-4.62ZM85.78-8.34,83.56-6.88,81.41-5.36l-.12-.09L82-6l4.49-2.9,1.67-1,0,.09ZM89.71-9.6l1-.76,4-2.56,3.74-2.15-.53.41-3.88,2.43L90.39-9.94Zm-6.23,6.8-1.92.36,0,.53L79.45-.37h-.6l-2.7,2,0,.36-3,2.34-2.14.84-.65.93-2.2,1.28L65.39,9.27l-2.4,1,.72-.77,1.94-1.62,2.52-1.26,1-.76-.81-.39,1.33-1.16.23.36,2.79-2.21,2-1.8L79-2.76l1.35-.8-.15.44L82-4.34l.31.39L86-4.89l.89.11-.35.88-1,.84-.66.12Zm87.4-38.1-.63-.37,1.22-.36,1.4-.19.09,0v.35l-1,.33Zm7.25-2,1.16-1,1.66-.52,1.18-.1-.5.66-3,1ZM192.62-44l-1.47-.13-.67.41-1.86.24-3.15.58-3.19.69-1.48-.1-1.31.57-2.41.45,1-.77,4-1.09,2.37-.24.76-.89L187-45.43h2.16l2.8-.91-.79.77,1.59.46,1.48.72Zm-13.25,7.21,1.79-.86,2,.07,1,.62-1.08.73-2.19.42-1.42-.2-.26-.15Zm41.21-9.36.63-.6,3.08-.11,1.42-.38,3.26.13-1.27.62-.69.74-2.39,0-1.39,0-.87-.12Zm36.56,2.58.85-.76-3.7.5-2.44-.76-1.72.88-1.66-.46-1.9-1.44-.65.68,1.76,1.55-1.34.33-1.72-.15-2.14-.5-1.88-1.39-1.17-1-3.54-.37L232-46.64l-.31-.58,3.07-.48L233.1-48l.28-.51,3.78-.19,3.65,0,2.27-.24,3.6-.64,5.13-.37,3.65-.17,1.13.58,2.73.36,1.79-.11,2.23,1.1L262-48.1l-3,.18L256.34-48l-2.47.26,3.66.31,4-.06,2.66.11.83.56-4.35.44,2.79.06,3,.53-1.81,1.07-1.33.58-4.56.89Zm-15.49,1.2.86-1.19,3.05.94-.45.27-2.08.23Zm-42.17,9.67-1-.23,1.5-.57,1.52-.56,1.07-.73.58-.09,3.1,0,1,.45-.44.31-3.31,1Zm14.24-4.94L211-38.1l.75,1.42L209.37-35,204-35.41l-1.72-.79-1.94,1.37-.06.93-4.64.78-3.47.43L190.51-33l-1.72,1.38-3.69.27L180.4-29.8l-2.69.46-4.87.38.81-1.66-5.85,1.78-3.1,1.36L159-26.21l-2.44,1.52-2.43-.24-2.06-1.61,3.55-1.28,6.11-1.5,1.54-1.2-1.92-.17-3.86,1-3.93,1.37-1.67.45-4.84.89-2.16-.16,3.17-1.43,7.3-2.7-5.61,1.56-4.06,1.26-1.58.29,6.37-3,6-2.24,3.94-1.18.3.33,4.49-1.33,4.31-1.19-1,0,5.09-2.44,2.7-.58.92.75-3.48,1.49-3.34,1.73,1.76-.18,1,.43,1.11,1.38,2,0,1.79-.15,4.08-.89,4.37-1.22-.22.6,3.65-.27,1.56-.52,2.29-.22,0-.57,2.56-1.19,6.68-1.81,4.32-.76,3.11-.59,2.2,0-.71,1,2.35-.6,2.71,1.15.8,1.49-.57,1-3,1.4Zm21.94-3.3L233.55-41,231-40.4l-.85-.39.72-1L227.81-42l-1.14-1.32,2.23-1,1.8-.14,1.7.37,5.11.61.32.5-3.48.22,2.56.79Zm-12.79.28.33-1.39,1.94-.31,2.49,1.08.81.75-.07.8-1,.71-3.08.57-3.25.27.36-1.8Zm45.61-5.26,5.1-.33.57.71,3.51,1.19-1.19.55-1.9,1-2,.92.9,1.18-5.21-.19-2-.5-3.88-.28-1.42-.55L259.3-43l2.08-.38,4.33-1,2.51-1ZM227.7-37.43l0-.78,2.18-.27,2.14.13v.89l-1.46.82L228.78-37ZM237-35.55l-1.66-.7-.83-.91-.5-1.39,2.19-.52L238-39l.7,1,2.16-.41.93,1.42-1.44.11-1.51.9-1.86.15Zm12.07-2.3-.73-.65-1.11.4-1.45,0-.62-.89.51-.93,4.85-.57,3.64-.88,2.31-.06.2.58-3,.84,6.55-.22,2,.39L260-38l-1.31.52L255-38.17l-2.58-1.07-2.49,0,2.34,1.74-1.06.76-1.38-.17ZM233-34l-1.93-.32-2.36.52L227-34.16l-.52-.7-1.93,0-1.35-.18-1.81.38-2,.39-1.4.92-2.21.92-2.11.57-2.4-.05-1.53-.44,0-.63,1.25-1,2-.4,3.37-1.39,2.73-.81,2.5-.39,4.33-.36,1.56.79,1.14.8,2.11.49,2.81-.28,2,.32.21.84Zm26.53-1.12.34-1.56,1.09-.66,1.24-.06,2.69-.7,2.27-.15,1.66.55L266-36.44l-2.93,1.15-1.86-.11Zm-26.72,2.1.46-.16,2.28-.29.77.48-2.3.39-1.14-.19ZM252.29-35l2.18-.66,1.83.64-.93.67-1.68.25L252-34.35ZM252-33.06l1.3-.47,1.88,0v.31l-1.08.67-.6-.09Zm-16,.59,1.32-.69,1.28.31,1,.68.69.83-1.42.13-.72,0-1.86-.47Zm5.1-.22-1-.78,2,0,2.23.45,2.53-.17-.8.72,1.52.4.4.82-2.17-.11-3.27-.44Zm-10.57,5.37-1.92-.29.53-.92,0-1.89,1.7-.59,2.46-.25,1.92.56.67.72-.26.7,1.77-.38,1.66.49,1.36.86.12,1.07-.06.78-.73.32.79.43-1.78.5-2.17-.91-1.9-.1h-1.84ZM229.2-16.08l-1.56.62-1.51.44-2,.2L223-15.2l-.69-1.39.44-1.09-.4-.63-1.21.75L220-19.22l-.08-1L218-22l.93-1-.23-.54,2.09-1.26-1.57.3,0-.53-2.4-.43-.32-.88.51-1-.8-.77.47-1-.85-.28-1.65.75L213.3-29l1-2,3.76-.63,3-1.31,2.06-.31,2.38-.51,1.24.78-1.58.94,2.28,1.11-.48.3-3.94.08,3.11.68,2.13-.12.14.93-1.09.93.67.72,2.3.35,1.68.89-2.41.61h-1l-.21,1.11,2.12-.38,2.69-1,2.27.31,1.59.68,1.55.42.9.71-.65.68-.75.28-.95.72v1.08l-.93.13-1.48-.36,1.09,1.27-.3.6-.67.6-1.52.76-.66-.08-.89,1-1.31.43ZM470.84,301.53l-2.74,4.27-3.59.06-1.18-4.4,1.34-3.34,3.83-3.68,2.19-1.07,1.36,1.51L471,298.08Zm-359-67.44.27.07,1-1.09,2.76,1.07,4.07-.37-3.38,1.37,0,1.11,0,.47-4.71.75-1.67-1.38-.17-2.48Zm-1.41-129.33-4.16,2.54.16-3.89,1.33-1.92,4,.73ZM57.2,159.16,54,162.1l-.4-1.85,1.61-3.56,1.64-1.32,2.68-.51ZM79.64,74.4l1,1.3L79,79.7l-3.53,1.48L72.5,84l-4.6,1.84-4.25-1.18L63,81.49l5.21-2.13,4-4.44,4.62-.25Zm20.17-4.5-6,2,1.69,1.13,1.19,1.73-3.88,2.46L87.9,79l.91,1.92-.36.51-4,5.79.2,1.75-3.92,5.36-1.22,2,1,2.83-2.76,2.3-1.94.26-1.47,2.76-3.43.47L69,102.45l-3.43-2.06.2-1.63-2.74.57-.68-2.18L60,97.26l.21-1.77,6-1.19,2,.83h0L67,91.62l1.35-2,2.5.76,1.65-3,3-2.05,1.34,2.94h0l2.63-1.88L81.37,83l0-.07-.58-2.7.93-1.36,2.35-1L85,76.44l-2.63.74,4.21-3.43,1.8-2.56,5-2.87,4.42-1.47.42,1.49ZM80.23,217l1.13,2.68,2.81,1,2.45,1.61-.45.86,2.17.27-1.06,1.33-5.24-2,.39-.84-3.77-3.1ZM218.63-9.6l2.28,1.54-1,1.23,1.78.55,0,1.22-1.32,2.8L216,.53,213.8.06l-.21-1.58-.17-2.24-1,.26L212.72-2l-2,1.5,1.71.65-2,.63L207.17.71l2.15.9,2.55,1.8L211.21,5,209,5.78l-4.52-1.09-1.34,0-1.25-1.5-.07,1.29-4.14.18L194,4.9l-6.13,1.34-3.45,1.67-.39-1-1.85-.79-2.76,2-4.61,1.36-.6-.73-4.53,2.31-.6-1.78L167,10.87l-1.94.24-.93-1L164,8.82l-3.61,2.12-2.39.68,2.18-2.48L158.78,9l-1.35,1.65-3.23,2.22-4.27,1.7L148.83,13l2-1.4,3.1-2.1-3.64,1.33-2.73-.44-.31,2.87-.24,1.56-4.64-1.49-3.91-1.84-1.25-2.88.27-1.27-1.68-.69L131,6.42l-2.6-1.73.15-.81L128,2.52,127.71,1,125.24.63l-3.4.82L119,1.6,116.48.4l-4,1.57L109,2.45l-4.07.63,1.08-2,5.24-3.2,2.2-2.82L117-6.87l5.16-1.88L129.68-12l3.5-1.1,4.19-.75L143.09-16l2.92.06,2.32-.85,4.27.63.25,1.4,1.59.25,3.49,0-.63-1-.18-.49.2-.84L160-18.07l3.17-.13,2.06.32-.79.83-3.05,1.9,4.49-1.64,2.39-.79.26-.86,1.91-.69,3.27,1,2.25-.43,3.85-.44,5.85-.49,2.79-.68,1.87.23,4.77-1.3,2.09-1.2L199.38-24l2-1.41,2.34-.28,4-.15-1.17,1.64L205-23.1l4.69-1.76,3.51-.46,1.27.59-1.27,2.23-.75,2.17,1.25.6,3.26-.63,1,.87.86,2.21-.32.67,2.17.41,0,1.16-.64,1.27-1.19,1.13-1.94.13,1.77,1.45-2.66.66-.84.52L213-9.2l3.5-.71ZM516.47,415.59l-1.37,1.14-3.82.3,3.24-3.17H516l.89.43Zm14-15-2.49,5-2.71,3.2-.25-.21.55-1.7,1.76-3.77,3.19-4.35.5-1.34,2.6-3.29,2-2,.94-1.4.93-.48-1.19,2.19L533,397.1Zm-21.78,12.72,1.07.28,2.15-1.88.55,1.24-4.06,3.72-2.5,2.27L504,420.2l1.59-3.32,1.92-1.37Zm16.26-12.66-.83,2.82-4.88,5.1L515,411.41l.25-1.59,2.72-2.91,1.8-.28,2.15-2Zm-50.74,28.09,7.74-3.69,1.06-2.29,7-2,1.06,2,5.54-2.66,4.13-.3-4.41,4.33-3.86.8L489,427.09l-4,2-3.59,1.28-4.45.85-2.95,1.13-1.79,1.42-7.44,2-.54-1.52-3.92,1.51,3.35-5.56,5.14-2.21,3.22,0,1.68-.53Zm82.08-69.22-1.47,4.58L555,361l.56-2.14.61-2.15.31.68Zm-16.57,8.64-1.12,2.55-1.86,1-.42-1.45,2.82-3Zm8.38-10.67.64,2.49-1.91.49-2.07,2-1.47,1.88-1.8,1.76.77-3.18,3.2-3.65Zm24.42-22.43,0,.21-.59,2.42,0-.52v-.75L572,334l-1,2-1.17,3.88-1,3.36-.45,3-1.28,3.92-.59.93-1.4,2.92h0l-.64-1-1.44,2.12-.63,2L560.25,361l1.35-4.92,1.26-3.13.25-4.17-.37-2.39-3.16,1.85-1.58,2-2.77.13-.8,3.08-.87,1.52-.37-1,.13-2-1.59-.07,2.5-4.76,1.54-2-.12-1-3.23,4.22-.8-1.63-2.07,1.69-1-1.11,3.2-5,1.18-3,3.49-2.73.3,1.27.3,6.69,1.92-.26,1.9-7.37,2.23-6.21,1.56-2.66,1.37-.95,1.11-.57,1.57-2.36,2.19-2.08,2-3,.54.25.34.62-.14,2.24,1.14-2.28-.13,1.69-.84,3.34-.26,2.37.23.26-.41,2.85.42-1.91-.43,2.14.11-.51h0Zm-38,15.86-2.27,6.83L530,360.67,527,362.29l-5.27,4.57-2.85,2.92-.47,3.9,2.86,1.86,1.78-3.5,5.84-6.46-.27,2.35-1.32.48-1.41,3.86-2.84,4.09,2.72,3.44-.66,2,2.38,2.91-.29,3-1.77,2.72-1.06-.56,1.82-5-3.22,4.3-.68-.61.55-2.08-2.12-.82.49-4.66L519,384.17l0,5.1-.42,6.36-2.15,2.26-1.3-.24,1.31-4.86-.21-4-1.42,1-.88-2.36,1.53-4,.6-4,1.75-8.3.68-2.47,2.74-5.68,2.54-.62,4-2.64,3.48-3.24,2.83-6.09Zm9.47-8.11-.09,4.26-1.35,1-.4,3.28,1.06,1.33-.75,1.34-1-1.84-.83-5.18.45-4.33.82-2.64.28,2.39,1.56-1.23Zm-81.24,87.63-4.82,2.28-3.44-2.07L449,429.44l-1.8-1.93-3.3-2.31-2.19-2.53-3.44-5.11-4.11-2.37-1.41-3.55-1.82-3.07-4.37-1.51-2.64-3.27-3.74-1.5-5.33-3.75-.55-2.37,3.14-.79,7.53-1.52,4.47,3.32,3.8,2,2.67,1.06,4.57,3.49,4.7-1.77,3.89,1.71,2.67,2.87,3.41.7-1.8,4.59,2.54.51,1.59-.59.69,2.9,1.47,1.88,3.19-1.05,2,1.92-1.38,6.13ZM129.53,31.31l-3.38,1.24-3,3.11-4.37.18-4.39-2.27-1.13-.77.47-2.17L115,26.07l2.31.41,2.39-3.94,1.06,2,1.5-.66,1.13-3.19,3.35-.38.83,1.62-3.33,3.36,3.06.78-1.17,2.2,3.18.85ZM61,189.4l-3.12,3.18-.4,1.82-1.94,2.13-1.17-3.36-1.12-1.53-2.38-5.25,1.79-2.22,2.88,2.75,3.11,1.45Zm-7.59-26.54-.77,4.5-4.31,6-.91-1.22-2,.74-.1-2L49,165.09,50.21,162l1.1,1.34ZM506,169.13l1.22,1.24.79,4.12-1.65-.47-.26,2.31,1.17,3.33-2,.27-1.33-2.2-.69-4.07,1.37-.83-.5-2.9Zm-.27-28.46,2.16,4.3,1.81,1.71,1.58,4.32-.21,5.21-2.32,4.6,1.17,8.6-2.23-.09L505.36,166,503,171.22l-.81,5L500,179.07l4.07,1,3.35,9.53-.2,3.54-2-.65-1.9-4.83-2.11.15-2.74-2.26,1.1-3.66-.74-4.15.45-4.75-.67-4.84,2.58-6,2.37-1.64-4-10.32,2.51.5-1.23-7.8-.56-3-3.38-6.61L492.74,129,491,125.39l.52-3.16L497,126.6l2.79,3.4,2.41,6.37Zm-22.16-35.13,1.39-.74-1.09-3.17,4.48,3.75-.15,4.38,2.91,5.87-4.06.84,3.43,5.62-1.19,2.57-3.78-3.73-2.28-4.19.93-2.57-5-6.05-2.73-3.64,5.13,1.45ZM344,402.11l-.62,5.36-2.21,1.77-4.69,1.84-2.7-3.61-1.21-7.12,2.11-8.63,3.85,2.31,2.66,3.22ZM167.44,492l1.56,1.89,1.55,2.76,1.31,4.71,1.54,2-.33,1.7-.8.94-2-2.45-.87.94,1.32,2.88-.26,1.46-1.33.6.08,3-1.41,3.72-1.72,4.24-1.9,5.64-.92,4-1.33,3.11-3.74-.06-3.83.4-3-1.34-4.08-1.9-1.78-1.9-1.08-2.81-2.37-2.92-1-2.42.29-2.16,2.11-.06-.23-1.1,1.79-2v-2.08l-1.48-1.89-1.35-2.42-1-3.37,1.4-1.63.31-2.17,2.49.41,2.71-.16,1.79-.28,2.23.4,2.63-1.55,4-1.52,1.33-1.62-.89-1.77,2.26.87,2.61-2.18-.11-2.33,1.59-1.46ZM212,31.58l-3.51.33-.63-1.58,1.59-.5.75-1.28,2.46.28-1.08,1.37Zm2.09-8.51-.59,3.62-3.49.1-3.42,2-1.47.14-3.82,2.29-1.17-.54.91-3,2.22-.55.16-1.61,2.47-3.32,3.1-2.44,3.2.28L211,21.24l1,.59,1.71-.79,1.07.51Zm7.75.59.21,1.78-3,1.21-2.68-.73-1.52-1.69,1-.9-.9-.63,1.19-1.76,3.1.37,0,1.24L221,22ZM534.78,314.29l.74,2.95.52,2.56-.41,5.34L534,321.2l-1,3.71,1.31,2.71-.58,3L530,331l-1.22-2.75.61-3.11-2.18-.63-.68,2.84-1.46,1-2,4.63-.69-1,.7-5.13,1.75-3,1.38-3.26,1.37,1.28,2.05-3.35.14-2.61,2-2-.77-3.62,2.65.15.62,2.23Zm-8.29-2.74-.79,2.56-.44,3.91-.72,2.27-2.41-1.79.41-1.84.53-2-.21-3.33,1.6-1.72.12,3.72,1.33-6.67Zm-16.6,18.67L506,338.13l1.23-4.64,2-4.8,1.48-4.91.9-6.22,1.28,3.61-1.74,4.36Zm8.79-21.2h2.13l1.93-1.65.34,2.1-1,3.3-1.69,3.11-.51-2.2-.24-2.7Zm10.4-10.73L531,303l-2.42.75.36,1.6,1.25,2.37L529,310.1l-.73-3.34-.92.54-1-2.56,1.77-1.15-.41-1.82-2.52-2.17,2.76-2.4Zm-12.69,5.8,0,5-1.85-1.41-2.42-2.51,2.75-2Zm-7.49-26.61,2.28-.09.53-2.06.65,1,.11,2.48,2,2.73.33,4.8-1.36,3.13.53,4.42,1.63,3.4,1.75-.78,1.2-1.71,4.33-.46.32,2.94,1.22.34.18,2.54-2.8-.41-1.68-1.64-.37,2.47-2.59-1.35-2.66,3-1.81.13-.3-2.19.69-2-1.21-.41v2.12l-2.24-1.65-1-1.82-1.32-4.7,1.7.67-1.75-8.1L507,279Zm68.89,26.26-.27,2-.23,1.79-.41,2.83-.42,2.67-.31,1.65-.36,1.21-.25.47.23-1.69.55-2.11.39-2.06.34-2.69.1-.56-.22,2.16.35-2.12.32-2.46.43-3.4.21-2.4.25-2v.13l-.26,2.64Zm.66-6,.19-2.06.07-1.07-.05-.11-.11-.21-.27.87.2-2,.18-.38.08,0,.09-.19v1l-.12,1.35h0ZM456.62,82.05l8.23,4.23-2.52,1.8,5.43,6.5,5,1.76L475.51,99l-3.06-.65,2.47,4.29-3.5-2.79L467.61,96l-4.51-3.74L460.16,89l-5.59-4.87-4.71-2.34L444,76.93l-1.28-3.24-2.37-.84-.28-1.26,3.14,1.73,4.5,2.61L452,79.35ZM353.81-12,354.87-11l-1.44,0-3-1.31-.3-.13-.62-.76.25-1.25.73.1,2,1ZM348,19.72l-.53,1.35-1.44,1.55-.36,0L344.07,21V19.75l2.54-.45Zm-8.33-9.3,2,1.55-.79,1.17-2.54.83-1.69-.74L337.87,12ZM336,14.09l3.74,2-1.42,2.89.55,1.81-4.26.14L331.28,19l-.43-1.34,1.21-1.83ZM241.15,70.95l-1.16.3L234.14,70l0-2-2.84-1.6L231.8,64l2-.7.63-2.36,4.16-3.26L237.3,57l4.54-3.32,0-1.95,3.61-1.92,4.89-2.39,4.48-.64,2.25-1.52,2.48-.56,1,1.61-.82,1.31L255,49.72l-4.44,1.88-5.11,3.77-3.08,4-3.45,3.92L238.43,67Zm57-39.94-4,3.48-2.41-5.2.34-.66.84,0,4.09.95Zm-54.9-1.67-1.4.31-.93.15-.4.59-1.36.43-.56-1.07,1.08-1.06-1.87-.5,2-.33,1.32.2-.27,1,.9-.81,1.07-.48,1,1ZM291.66,31,290,32.11l-3.41-.18L284.07,31l-2.49-2.38-1.65-.39.43-3,1-1.28,2.91,1.22,4.77,2.61ZM500.23,246.88l1.22,9.46.16,5.13-3.07-3L496.86,255l-.08-6.31.87-5.67,1.91.42ZM367.32-35.8l3.51,1.29.42.42-1.09-.08L367-35.32l-1.7-.63-1.35-.67-.07-.31Zm16.5,13,1.67.87.41.69,0,.57L383.53-22l-1-.91Zm-6.22,5.07,0-.62-1.29-.78,0-.8L375.38-21l.57.15,2,1,.18.77-.22.35,1.45,1.08-.06.23Z"/></g>
	<g id="austronesias">
		<path id="ARABIA_SAUDITA" onmouseover="displayName('ARABIA SAUDITA');displaySecondLanguage('Tagalo')" data-name="ARABIA SAUDITA" class="austronesias" d="M134.58,348.7l-.39-2.43-1.28-2-.12-2.22-2.28-2.53-2-5.14-.74-4.72L125,325.12l-2-1.45-2.27-6,.12-3.89.78-3.15-1.52-6.75-1.72-2.74-2.22-1.85-.85-3.55.5-1.15-.63-3.19-1-1.61-.8-4.57L111.79,280l-1.26-4.43-2.14-.7,1.44-2.73.67-1.82,1.08-2,4.51,2.41,2.27-1.08,1.51-1.63,3.46.25,1.16-1.61,1.65-.5-2.85-6.71,9.18-.22,1-.59,4.82,2.9,5.62,5.51,10.49,14,8.5,2.21,4.08,1.34.76,2.85,3.35.46,1.18,5.11,2.19,1.66.55,2.09,3,2.86V302l-.7,1.77.39,2,1.23,1.78.45,1.91.58,1.46,1.38,1.32,1.42-.19.73,2.25.06,1.3,1.35,5.86,15,4.66L201,325l2.07,4.15-4.19,10.6-16,3.52-15-.21-5,1.6-4.22,5-2.48.44-1.1-2-2-.12-4.84-1.53-.85-.73-5.81-1.14-1.4.18-1.87-1.85-1.64,2.31.23,2.36Z"/>
	</g>
	<g id="afroasiaticas">
		<path id="YEMEN" onmouseover="displayName('YEMEN');displaySecondLanguage('Mehri')" class="afroasiaticas" d="M187.77,356.72l-3.91.93-1.19,2.24-.24,1.8L177,363.2l-8.57,1.16-5,2.93-2.32-.11-1.53-.59-3.23,1.62-3.39.38-4.36-.59-1.32,0-1.25,1.15-1.38.1-.91,1.15-2.52-.66-1.7.34-3.5-1.07-1-3.35.42-2.83-.68-1.74-.57-4.12L133,354.5h1l-.25-2.55.73-.87.05-2.36,2.37-1.18-.23-2.36,1.64-2.31,1.87,1.85,1.4-.18,5.81,1.14.85.73,4.84,1.53,2,.12,1.1,2,2.48-.44,4.22-5,5-1.6,15,.21,3.39,9.46Z"/>
		<path id="ISRAEL" onmouseover="displayName('ISRAEL');displaySecondLanguage('Árabe')" class="afroasiaticas" d="M119.74,251.27l-1.21,1.47-1.26-1.24-1.88,3.31.85,1-1.26.39-.58,1.37,2.15-.08-.48,2.14-4.42,7.94-.17-10.19,1.69-1.37-.19-.4,1.82-2.16,2-3.79,1-1.17.13,0,1.36.46.64-.83,1.12.29-.58,2.24-.79.64Z"/>
	</g>
	<g id="indoeuropeas">
		<path id="UZBEKISTAN" onmouseover="displayName('UZBEKISTÁN');displaySecondLanguage('Ruso')" class="indoeuropeas" d="M259.18,245.69l.09-3.44-5.89-2.42L248.81,237l-2.79-2.7-4.81-4-1.85-5.84L238,223.37l-4.59,0-1.53-1.23-.14-4.48-5.33-3.3-3.77,3L218.9,219l.38,2.86-4.72-.36,2.32-20.42,10.45-2.38.69.53,5.81,4.34,3.13,2.26,3.59,5.17,4.82-.65,7-.3,4.89,4.09-.31,5.6,2,0,.9,4.58,5.4.1,1.23,2.63,1.6-.08,1.72-4.05,5.38-4.09,2.33-1.14,1.28.49L275.49,222l3.23,2,2.92-1.56,5.22,2.63-5.15,4.36-3.31-.37-1.75.23-.7-1.54.75-2.63-5.63,1.52-1.24,3.64-2,3.15-3.64-.19-1.09,2.49,3.24,1.28,1.06,4.17-2.38,5.75-3.41-1.14Z"/>
		<path id="TURKMENISTAN" onmouseover="displayName('TURKMENISTÁN');displaySecondLanguage('Ruso')" class="indoeuropeas" d="M234.92,254.83l-.16-4.75-3.35-.38-4.8-5.29-3.49-.86-4.65-3.23-3.06-.79-2,.87-2.91-.46L207,242.81l-4,.64-.3-4.06,1.4-5.76-3.06-2.3,1.63-3.67-2.74-.69,1.62-4.55,3.74,1.85,3.91-1.35-2.57-3.68-.73-3.31-3.51,1-1,4-.73-3.76,2.1-1.6,4.8-.58,2.56,1.86,2.35,4.67,2.16-.05,4.72.36L218.9,219l3.73-1.62,3.77-3,5.33,3.3.14,4.48,1.53,1.23,4.59,0,1.37,1.08,1.85,5.84,4.81,4,2.79,2.7,4.57,2.81,5.89,2.42-.09,3.44-1.36-.17L255.72,244l-.72,2-3.79,1.06-1,4.49-2.6,1.67L244,254l-1,2.53-3.48.64Z"/>
		<path id="TURQUÍA" onmouseover="displayName('TURQUÍA');displaySecondLanguage('Kurdo')" class="indoeuropeas" d="M156.74,210.2l4.18.76L164,214.5l.17,2.07-1.06,2.56,2.64,2,1.2,1.94-3.14,1-.22,6.56-1.22,1.52,1.27,4.9-2.21.49-1.14-1.72L155.6,234l-2,.43-4.88-.32-2.16-.66-5.23.79-3.33-.93-1.83-1.63-4.83.18-1-1.45-1.13,2.94-1.43.85-1.42.84-.7-2.91,2.12-1.55-2.53-.31-2.86-2.31-3.67,2.17-6-1.48-2.05-4-3.95-1.73-1.66,1.85-2.78-.4-2.44-4.27L96,218.5l0-6.12-1.29-4,3.39-3.26-1-3.45,5.9-3.23,5.31,2.06,3.12-3.34,6.27,3.32,5.56-1.79h4.69l5.94,1.9,5.05,5.79,4.69,3.69,4.67.42,3.14,1.38Zm-56.9-15.72,1-.22,2.49-2.73-.94-2.08,4.05-.1,2.51,1.93-.5,2.15,2.2,2.92-1.17,1-4.12-1.44-2.13,1-4,1.51.05-2.87Z"/>
		<path id="EMIRATES_ARABES_UNIDOS" onmouseover="displayName('EMIRATOS A.U.');displaySecondLanguage('Persa')" data-name="EMIRATES ARABES UNIDOS" class="indoeuropeas" d="M183.46,314.25l.91-.14,0,1.54,4-.34,4.14.68,3,.53,3.76-3.35,4-3.15,3.44-3.11.79,2,.37,4.46-2.58-.23-.69,3.57.86.86-2.38.86-.19,2.26-1.65,2.13L201,325l-1.12,1.06-15-4.66-1.35-5.86Z"/>
		<path id="SIRIA" onmouseover="displayName('SIRIA');displaySecondLanguage('Kurdo')" class="indoeuropeas" d="M133.46,251.53l-9.72,3.35-4-3.61-.08-.07.79-.64.58-2.24,1.85-2.64,2.8-1.34,0-2.33-1.73-.86.86-4.24,1.65-1.91,1.42-.84,1.43-.85,1.13-2.94,1,1.45,4.83-.18,1.83,1.63,3.33.93,5.23-.79,2.16.66,4.88.32-3,2.89-2.6.78-.62,4.1-3.23,6.21Z"/>
		<path id="QATAR" onmouseover="displayName('QATAR');displaySecondLanguage('Inglés')" class="indoeuropeas" d="M179.94,310.88l.14-4.07,1.66-2.7,1.41-.4,1.29,1.95-.26,3.25-1.44,3.1-1.42.19Z"/>
		<path id="PAKISTÁN" onmouseover="displayName('PAKISTÁN');displaySecondLanguage('Sindhi')" class="indoeuropeas" d="M297.87,245.16l3.54,2.31,1.77,4.17,7.65,1.47-3.83,5.2-5,1.35-7.07-.76-2.08,2.61,2,4.79,1.92,3.68,4,2.44-3.75,3.6.37,4-4.28,6-2.7,5.9-4.84,6.2-5.79-.14-5.31,6.09,3.37,2.38.7,4.28,2.95,2.7,1.2,4.72-11.29.42-3.36,3.79L264.3,321l-1.57-4-4-4.21-9.4,1-8.28-.08-7.19.52,2.13-6.4,7.33-2.65-.36-2.59-2.37-1v-5l-4.66-2.64-1.86-3.48-2.29-3.06,8.08,3.21,4.93-.71,2.92.78,1-1.21,3.42.53,6.37-2.32.16-4.79,2.66-3.21,3.59,0,.51-1.58,3.65-.81,1.79.47,1.82-1.64-.36-3.38,1.9-3.46,2.94-1.55-2-3.65h4.46l1.17-2.09-.31-2.15,2.18-2.49-.68-2.78-1.21-2.33,2.51-2.6,4.75-1.48,5.09-1,2.17-1.22Z"/>
		<path id="OMÁN" onmouseover="displayName('OMÁN');displaySecondLanguage('Inglés')" class="indoeuropeas" d="M187.77,356.72l-1.46-4-3.39-9.46,16-3.52,4.19-10.6L201,325l.29-2.21,1.65-2.13.19-2.26,2.38-.86-.86-.86.69-3.57,2.58.23,2,4,2.71,2.26,3.69,1,3,1.24,2.16,3.33,1.31,1.92,1.83.82-.07,1.23-2,3.18-.89,1.49-2.28,1.61-2.13,3.62-2.36-.47-1.16,1.22-1,2.7.46,3.7-.53.63-2.43-.22-3.41,1.73-.66,2.6-1.26,1-3.29-.36-2.15,1.15-.11,2.18-2.64,1.22-2.88-.83-3.65,1.39Zm19.81-47.83-.79-2,1.58-1.76.59.54-.64,2.26Z"/>
		<path id="LÍBANO" onmouseover="displayName('LÍBANO');displaySecondLanguage('Francés')" class="indoeuropeas" d="M121,248.33l-1.12-.29-.64.83-1.36-.46,2.74-3.92,3.13-3.16.13-.16,1.73.86,0,2.33-2.8,1.34Z"/>
		<path id="KUWAIT" onmouseover="displayName('KUWAIT');displaySecondLanguage('Inglés')" class="indoeuropeas" d="M170.23,279.68l.59,2.62-.62,1.2.88,4.45-3.35-.46-.76-2.85-4.08-1.34,4.28-4.66Z"/>
		<path id="JORDANIA" onmouseover="displayName('JORDANIA');displaySecondLanguage('Inglés')" class="indoeuropeas" d="M118.53,252.74l1.21-1.47,4,3.61,9.72-3.35,0,7.12-1,.59-9.18.22,2.85,6.71-1.65.5-1.16,1.61-3.46-.25-1.51,1.63-2.27,1.08-4.51-2.41.07-.83,4.42-7.94.48-2.14L117.6,256Z"/>
		<path id="PALESTINA" onmouseover="displayName('PALESTINA');displaySecondLanguage('Hebreo')" class="indoeuropeas" d="M118.53,252.74,117.6,256l-1.05,1.39-2.15.08.58-1.37,1.26-.39-.85-1,1.88-3.31Z"/>
		<path id="IRAK" onmouseover="displayName('IRAK');displaySecondLanguage('Kurdo')" class="indoeuropeas" d="M172.93,280.44l-2.71-.76-3-1-4.28,4.66-8.5-2.21-10.49-14-5.62-5.51-4.82-2.9,0-7.12,10.75-3.15,3.23-6.21.62-4.1,2.6-.78,3-2.89,2-.43,4.66,1.84,1.14,1.72,2.21-.49,1.31,7.16,2.47,2.24-.32,3.29-2.56,1.47-1.89,4.1,2,5.9,4.93,4.1L171.2,270l-1.42,3.88,1.47.27-.42,3Z"/>
		<path id="ARMENIA" onmouseover="displayName('ARMENIA');displaySecondLanguage('Kurdo')" class="indoeuropeas" d="M164,214.5l5.69.37.47,1.6,1.3,1.27-1.13,1.2,1.71,2.33-1.54,1.51,1.39,1.85,1.63,1.26-.72,3.83-1.54-.14-1-3.52.21-.85-1.81-.36-.85-1.73-.88,0-1.2-1.94-2.64-2,1.06-2.56Z"/>
		<path id="AZERBAYAN" onmouseover="displayName('AZERBAYÁN');displaySecondLanguage('Ruso')" class="indoeuropeas" d="M171.23,229.59l-2.66-1.3-1.49-3-.16-2.2.88,0,.85,1.73,1.81.36-.21.85Zm13.52-15,1.54,3.26,1.32,4.25,1.88.57,1,1.7-3.48-.1-1.53,4.17-1.08,1.82-1.77,1-.41,2.76-1.1.09-2.06-3.35,2-2.48-.9-1.84-1.63.13-5.72,3.13.72-3.83-1.63-1.26-1.39-1.85,1.54-1.51-1.71-2.33,1.13-1.2-1.3-1.27-.47-1.6,1.19-.68,2.59,2.18,2.07.75.69-.53-1.27-3.35,1.2-.54,1.07.4,2,3.85,1.69.7,1-1.27Zm-439.6-326.1"/>
		<path id="AFGANISTÁN" onmouseover="displayName('AFGANISTÁN');displaySecondLanguage('Pasto')" class="indoeuropeas" d="M234.92,254.83l4.59,2.34,3.48-.64,1-2.53,3.62-.77,2.6-1.67,1-4.49L255,246l.72-2,2.11,1.51,1.36.17,2.49,0,3.41,1.14,1.39.66,3.2-1.89,1.54,1,1.36-2.63,2.67,0,.65-.85.36-2.29,1.81-2L280.5,240l-.38,1.74,1.35.19-.14,4.75,1.89,1.75,1.49-1.27,1.94-.68,2.59-2.7,3.1.18,4.56-.37,1,1.54-2.53.86-2.17,1.22-5.09,1-4.75,1.48-2.51,2.6,1.21,2.33.68,2.78-2.18,2.49.31,2.15-1.17,2.09H275.2l2,3.65-2.94,1.55-1.9,3.46.36,3.38-1.82,1.64-1.79-.47-3.65.81L265,279.8l-3.59,0L258.71,283l-.16,4.79-6.37,2.32-3.42-.53-1,1.21-2.92-.78-4.93.71-8.08-3.21,4.61-4.91-.26-3.63-3.58-1.11-.21-3.6L231,269.71l2.17-3-2-.94,1.49-4Z"/>
	</g>
	<g id="turquicas">
		<path id="RUSIA" onmouseover="displayName('RUSIA');displaySecondLanguage('Tártaro')" class="turquicas" d="M456.62,82.05l8.23,4.23-2.52,1.8,5.43,6.5,5,1.76L475.51,99l-3.06-.65,2.47,4.29-3.5-2.79L467.61,96l-4.51-3.74L460.16,89l-5.59-4.87-4.71-2.34L444,76.93l-1.28-3.24-2.37-.84-.28-1.26,3.14,1.73,4.5,2.61L452,79.35ZM127.68,123.9l-4.39-2.28-2.45-2.12,2-1.68,4.19.32,1.86,2.1.53,1.28-1.12,1.11ZM353.81-12,354.87-11l-1.44,0-3-1.31-.3-.13-.62-.76.25-1.25.73.1,2,1ZM348,19.72l-.53,1.35-1.44,1.55-.36,0L344.07,21V19.75l2.54-.45Zm-8.33-9.3,2,1.55-.79,1.17-2.54.83-1.69-.74L337.87,12ZM336,14.09l3.74,2-1.42,2.89.55,1.81-4.26.14L331.28,19l-.43-1.34,1.21-1.83ZM241.15,70.95l-1.16.3L234.14,70l0-2-2.84-1.6L231.8,64l2-.7.63-2.36,4.16-3.26L237.3,57l4.54-3.32,0-1.95,3.61-1.92,4.89-2.39,4.48-.64,2.25-1.52,2.48-.56,1,1.61-.82,1.31L255,49.72l-4.44,1.88-5.11,3.77-3.08,4-3.45,3.92L238.43,67Zm232.24,71-.85-.47-1.76-2.19.8-1.19-3.92-5.38-3.52-3.12.13-3.22,2.58-1.73-2.61-5.38-3.66-5.15-.87-2.24-2.8-4.61-1.15,4.38.24,3.27-2.38,2.92-4.22-3.11-4.64-.73-4.15,1.82-4.37-3.41-3-1.93-2.3-1.13-5-3.1-2.94-.08-3.79,1.16-2.34,2.19-1.69,2.68.21,3.4,2,.17,2,2.35,0,2.27,1.86,6.09,1.55,1.93-1,5.1-4,.19L415.44,136l-2.34-.73-1.78.41L410,141.1l-2.83,2.73-1.63,2.51-3.82,1-2.47,1.35-3.12-1.64-4-1-3.13.67L385.78,149,383.59,151l-5.18-.36-2.49-3.47-4,.07-2.91.43-4.27-.85-.63,6.25,2.59,2.53-1.41,4.55-5.08.22-3.23.8-3.09-1.75-3.34.88-3.38-.79-4,3.74-4.85,6L335,171.06l-1.21.73L331,169l-4.21,1.61-2.07-2-2.66-.58-2.41-2.75-2.12-.62L313,166.84l-5.38-2.34-1.26,3-10.06-12.48-4.86-3.6.92-1.76-7.47,5.73-3.16.55,0-2.9-4.38-1.52L274,153l-1.45-5.41-5.83-.91L263.87,149l-8.11,2-1.62,1.29-12.41,1.51-1.65,1.74,2.17,3.74-3.35,1.24.53,1.49-3.52,2.43,5.37,4-1,2.5-5-.49-1.16,1.53-4.26-3.09-5.57-.35-4,1.9-3.81-2.61-6.91-4.63-5.32-.62-8.34,4.61-1.38,3.8-2.75-3.71-4.28,5.28.73,1.28-3.08,3.63,2.08,4.21,2.72.35,1.48,4-1,2.7,1.7,1.2-2.42,2.92-3.83.24L180.75,198l2.27,5.82-1.2,3.6,2.94,7.23-2.86,1.78-1,1.27-1.69-.7-2-3.85-1.07-.4-2.18-1.77-.66-2.48-3.33-1.9-2.57.33-.4-1.16-4.45-3.81-5.25-2.26-2.84-1.75-.65.51-3.15-5.79-3.36-3.2-1.89-4,2.83-.06,4.48-3.53-1.17-2.64,5.83-.68.31-1.17-3.36,0,1-2.28,2.27-1,3.41.54,1.15-1.6.28-3.08,2.33-2.36.51-1.53-4.18-3-1.9-.49-1-3-2.75.07-3.18-3.06.5-1-.11-2.55-2.3-1.06.47-1.63,1.22-.76-.55-3.48-3.24-.6-.75-.57-1.29.85-1-.61.92-3.4.19-1.89.78-.24,2.17,1,1.64-.67-.14-1.61-1.42-1.55L150,136l-.64-1.31,0-3.81,1.29-1.07,1-2.34-1.89-2.14h-1.67l.34-1.32-1.93-2.29.92-3.09,1.21-2.33-.47-1.57,2-1,2.09-4.56,3.35-1.9.18-.93,4.2-1.4-.91-3.13,8.44-3.75,3.67-1.79,2.26-2-1.09-4.22,2.75-2.5.47-3.92,3.87-3.13,1.37-5.64,3.95-2.46-.5-3.79,2.48-2.71,1.59.17,4-.52,2.7-.78,1,3.46L200,70.82l4.17,6.89.43,2.48-1.33,3-3.41,1.75-4,.26-6.79-6.12-1.74.05,1.13,4.26-1.1,2.07L184.86,90l1.94,2.25,1,1.7,1.47-2.1-.21-2.33,2.27-1.28,3.67,4.3L197.4,92l.21-3.71,7-3.15,1.79.72,1.27,2L210.18,85l-.54-3.07,2.15-2.46-.19-3.07,4.81,2.6.16,2.74-2.77,0-1,2.52,1,1.89,3.61-.37L219,83l5-1.45,8.12-2.94,1.45.4-2.65,2.54,2.43.78,1.81-1.42,3.86.23,3.31-1.68,2,2.93,2.65-2.93-1.8-2.77,1.19-1.45,5.65,1.61,2.7,1.48,7.5,5.24,1.26-2.47-2.19-2.38-.1-1-2.41-.42.6-2.17-1.09-3.53-.07-1.45,3.16-4.09.88-4,1.16-.91,4.5.93.69,2.41-1.18,3.7,1.3,1.35,1,3.1.4,6.26,2.64,2.67-.45,3.16-3.48,6.94,2.67.55.68-1.76,2.27-1.39.22-2.37,1.47-2.37-1.67-2.53.43-3.11-2.25-.19L271.74,76l.78-4.65-2.95-3.46,2.62-3.23-1-3.07.8-.17,1.36,2.33.17,4.32,2.08.62-1.48-3.1,2.46-2,3.42-.66,3.88,2-2.64-3.37L279.66,57,282,55.77l3.68-.45,3-1.18-2.16-1.9.35-3,1.49-.45,1.47-2.58,3-1.41-.27-1.17,2.88-1.3,1.58.53L298,40l2.07-.69L299,37.64l-.38-1.9.94-2.39,2.74.36-.45,1.44,2.74-.5,2,1.54V34.93l2.8-1.41,4,.37,2.25.74,1.88,1.81.1,1.61-.58,3.41.29,1.47,1.9-.26,2.6,0,.23-1.21,3.09,1.83-.56-1.16,1-1.58,3.89-1.68,2.25,1.3,4.6-2.68L333,35.13,335.58,34l1.24-1.24,3.74.17L344,34.35,345.51,36l4.77,1.11,3.2-.31-4.4-3.75,3.34-.27-.24-2.27,2.71-1.06-1-1.38,1.57-1.23-5.13-1.46-1.62-2.16L355,16.2l3.32.23,4.43-1.31-.88-4.44.75-1.8,2.1-.3,3.88,1.15L370,8.78,368.62,7l-.57-2,.44-1.82-1.28-2.16,3.8-1-2.25-1.67-2.87.28-2.49-.86-.28-3.08-1.59-2.17.32-2.66,1-1.22,1.48-2.19,2-2.34,2.91.36.38-.62-3-.06-2.4-2.81,1.64-1.78L369-19.49l2.49,1.85,4.29.52,1.41.58,1,1.08-.62.68.23,1.38-1.72,0,.35,1.08,1.76,1.42-1.08.39L375.18-11l2.26,1.56,1.77-.18,2.53,1h0l3.29,2,.83,1.55,1.7-.62,3.27.05.78-.33,1.78.27,1.48.62.84,2.27,6,4.79,1.29,1.42,4.53,3.23,4,3.12L414,11l-2.35,1,5.24,5.39h-1.56l2.5,2.31-.12,1.82L421,23.38l5,4,1.91.83.67-1.4,6.88,3.48L436,32l4,2.74,1.84.29,2.86,4.44L450,43l1.39,3.47,4.58,3.37,4.24,5.47-3-1.27-6.52-3.34-10.18-5.08L434,41.17l-2.84-3L428.92,37l-1.2-3.13-6.35-5.78-5.42-4.89-4.48-4.31-7.24-3.75.85,1.89,4.26,2.41,6,6-5.92-1.32,1.93,4.58,8.17,7.76,3,.18,1,4.26.18,2.78-3.48-2-1.15,2.06,1.95,3.3-2.2,4.37-.6,6.06,6.43,11.4,6.47,14.57,2.31-2.24,3.23,1.38,2-.92-1.54-2.89,1.33-1.7,6.09,1.2,3.72,2.9,3.57,5,4.94,4.48L463,97.46l4.14,8.57,2.31,3.4,2.76,7.46,2.47,7.55,1.22,3.82.06,5.31-1,1.4-2.75-.75.27,6ZM298.15,31l-4,3.48-2.41-5.2.34-.66.84,0,4.09.95Zm-54.9-1.67-1.4.31-.93.15-.4.59-1.36.43-.56-1.07,1.08-1.06-1.87-.5,2-.33,1.32.2-.27,1,.9-.81,1.07-.48,1,1ZM291.66,31,290,32.11l-3.41-.18L284.07,31l-2.49-2.38-1.65-.39.43-3,1-1.28,2.91,1.22,4.77,2.61Z"/>
		<path id="KAZAJASTÁN" onmouseover="displayName('KAZAJASTÁN');displaySecondLanguage('Kazajo')" class="turquicas" d="M277.54,217.7l-2.33,1.14-5.38,4.09L268.11,227l-1.6.08-1.23-2.63-5.4-.1-.9-4.58-2,0,.31-5.6L252.37,210l-7,.3-4.82.65L237,205.81l-3.13-2.26L228,199.21l-.69-.53-10.45,2.38-2.32,20.42-2.16.05L210,216.87,207.49,215l-4.8.58-2.1,1.6v-1.37l1.36-2.17-.46-2-4.32-2.52-.88-5.19-1.9-1.72.22-1.79,3.67,1.08.89-4,3.43-.42,3.24,1.26,1.57-5.24-.12-3.45-3.8-.24-2.92-1.78-4.78,1.72-3.72.57-1.7-1.2,1-2.7-1.48-4-2.72-.35-2.08-4.21,3.08-3.63-.73-1.28,4.28-5.28,2.75,3.71,1.38-3.8,8.34-4.61,5.32.62,6.91,4.63,3.81,2.61,4-1.9,5.57.35,4.26,3.09,1.16-1.53,5,.49,1-2.5-5.37-4,3.52-2.43-.53-1.49,3.35-1.24-2.17-3.74,1.65-1.74,12.41-1.51,1.62-1.29,8.11-2,2.81-2.25,5.83.91L274,153l3.31-1.47,4.38,1.52,0,2.9,3.16-.55,7.47-5.73-.92,1.76,4.86,3.6,10.06,12.48,1.26-3,5.38,2.34,4.57-2.17,2.12.62,2.41,2.75,2.66.58,2.07,2L331,169l2.75,2.84-1.63,4.08L329.35,177l1.25,5.38-1.39,2.82-7.65-.45L321,194.85l-1.71,1.53-7.2,3.32,5.23,9-2.48,1.83.85,3.09-2.62-.46-2.35-1.71-6.07.15-6.75.57-1.39.75-6.05-1.82-2.21,1.33-.34,3.33L281,214.29l-2.66.93Z"/>
		<path id="IRÁN" onmouseover="displayName('ÍRÁN');displaySecondLanguage('Azerí')" class="turquicas" d="M203,243.45l4-.64,3.48-2.86,2.91.46,2-.87,3.06.79,4.65,3.23,3.49.86,4.8,5.29,3.35.38.16,4.75-2.22,6.93-1.49,4,2,.94-2.17,3,1.33,4.58.21,3.6,3.58,1.11.26,3.63-4.61,4.91,2.29,3.06,1.86,3.48,4.66,2.64v5l2.37,1,.36,2.59L236,307.89l-2.13,6.4-9.49-2.19-5.45-1.66-5.63-1.16-1.65-7-2.3-1.2-3.89.63-5.22,2.17-5.85-2.55-4.5-4.92-4.48-2.23-2.56-5.75-2.5-8-2.64.49L175,278.58l-2.07,1.86-2.11-3.37.42-3-1.47-.27L171.2,270l-1.61-4.66-4.93-4.1-2-5.9,1.89-4.1,2.56-1.47.32-3.29-2.47-2.24L163.6,237l-1.27-4.9,1.22-1.52.22-6.56,3.14-1,.16,2.2,1.49,3,2.66,1.3,1.54.14,5.72-3.13,1.63-.13.9,1.84-2,2.48,2.06,3.35,1.1-.09.6,4.31,3.87,1.82,2.55,3.26,6.07,1.86,7.08-.6Z"/>
		<path id="GEORGIA" onmouseover="displayName('GEORGIA');displaySecondLanguage('Azerí')" class="turquicas" d="M156.74,210.2,158,208l.11-3.92-1.57-2.54-1.87-1.16-.84-2,.65-.51,2.84,1.75,5.25,2.26,4.45,3.81.4,1.16,2.57-.33,3.33,1.9.66,2.48,2.18,1.77-1.2.54,1.27,3.35-.69.53-2.07-.75-2.59-2.18-1.19.68L164,214.5,160.92,211Z"/>
	</g>
	<g id="LLETRES">
		<path class="cls-8" d="M203,243.45l4-.64,3.48-2.86,2.91.46,2-.87,3.06.79,4.65,3.23,3.49.86,4.8,5.29,3.35.38.16,4.75,4.59,2.34,3.48-.64,1-2.53,3.62-.77,2.6-1.67,1-4.49L255,246l.72-2,2.11,1.51,1.36.17,2.49,0,3.41,1.14,1.39.66,3.2-1.89,1.54,1,1.36-2.63,2.67,0,.65-.85.36-2.29,1.81-2L280.5,240l-.38,1.74,1.35.19-.14,4.75,1.89,1.75,1.49-1.27,1.94-.68,2.59-2.7,3.1.18,4.56-.37,1,1.54-2.53.86-2.17,1.22-5.09,1-4.75,1.48-2.51,2.6,1.21,2.33.68,2.78-2.18,2.49.31,2.15-1.17,2.09H275.2l2,3.65-2.94,1.55-1.9,3.46.36,3.38-1.82,1.64-1.79-.47-3.65.81L265,279.8l-3.59,0L258.71,283l-.16,4.79-6.37,2.32-3.42-.53-1,1.21-2.92-.78-4.93.71-8.08-3.21,4.61-4.91-.26-3.63-3.58-1.11-.21-3.6L231,269.71l2.17-3-2-.94,1.49-4,2.22-6.93m-237,145.24,1.32.43,1,.81,1.14.34,10.39,7.24L13,412.79l1.36,3.32,1,2,1.71,3.17,2.42,1.19,1.15.14,2.18,1.88.44-.74.64-2,2.38,1.23.12-.64,2,1.12-.16,1.38,4.81,2.63.4,2.78,1,2.1-.24,2.27.69,2.78,1.59,2.29.63,4.87.91.14,1.77,1,2.4.67,1.91,1.2.65,1.51-.11,1.76,1.09,2.29-.3,1.23.64,1.58-8.39-4.4,2.94,12.53,3.55,4.56,3.28,3.71-6.65-2.26-9.24-5.74L28.51,461l-14-9.11-.41-.09-2.57-3.18-2.15-1.67-1.69-.77-1.27-.42M-3.88,394.28l1.17-.93h1l1.39,2.49-1.14,0-.44.75.08,1.87-.8-.17m84.61-220,.69-1.67,2.6-1.7-.34,1h1l-.11,1.67.42.9-.78,1.91L84.15,182l-.72,2.37.6,1.91-.74,1.28-1.37.17-1,1.53-2.66,1.62m128.54,116,.79,2m.37,4.46-2.58-.23-.69,3.57.86.86-2.38.86-.19,2.26-1.65,2.13L201,325l-1.12,1.06-15-4.66-1.35-5.86-.06-1.3m-10.53-33.81-2.11-3.37.42-3-1.47-.27L171.2,270l-1.61-4.66-4.93-4.1-2-5.9,1.89-4.1,2.56-1.47.32-3.29-2.47-2.24L163.6,237l-1.27-4.9,1.22-1.52.22-6.56,3.14-1m15.3,10.94-1.1.09-2.06-3.35,2-2.48-.9-1.84-1.63.13-5.72,3.13m-3.1-14.85,1.19-.68,2.59,2.18,2.07.75.69-.53-1.27-3.35,1.2-.54,1.07.4,2,3.85,1.69.7,1-1.27,2.86-1.78M77.5,107.5l.9,1.6,2.36.74-.58,2.89.09,1.92-2.75,2.64L76.9,117l-2.29,2.17.16-3.47-1.19-.59.62-3.19.79-2.46-.69-.89,1.15-1.68m-107.73,208-.21-4,1.73-11-.32-1.56.32-2.49-.51-2.66-.44-2.29.79-2.2.92.41.91-1.56,1.27.9.84-.85,1.13-.51.89,1,1.33,4.9L-24,294.5V298l-.87,1.43,0,1.59-1.77,1.68-1,.63-1,2.55L-29,309l-1.14,7.61m-.74-27.92-2-2.56-.95-1.69-.87-.14-.89-1.61L-39.24,278l-.6,2.66-.42,4-1.12-3.22-.93-1.18-.88.19-.64-2.33,0-2.1-.6-2.36.46-3,.92-1.23.32-1.7,2.37-1.67,1.09-2.87.81-.39.75,2,1.06.22.59-.85,2.13,0,.8-1,2.49.62,1.37.85.29,1.63,1.43,1.75-.81,2.14-.27,2.58.5,4.73-.49,2.45,2.49,4.28-.79,3.28m401,30.64L372.6,314l-2.3-3.71.28-3.48-3.16-.79.73-2.24,2.59-2.72-3.88-2.12,1-4.09,4.11,1.49,2.27-.27,1.09,3.7,4.57-.37,4.26-1.2,2.82.2-1.25,5.17-2,.88-.89,3.47L385.9,310l.15-3.67,1.27-.36,4,7.9.57,3.89-1.78-.37,1,4.25M109,191.28l-2.51-1.93-4.05.1L101.2,192l-3.16-.9-1.39-2.88-3.2.14L91.21,187l1.47-3.44L92,181.15l.87-.44v-.77l1.35-1.32,2-1-.31-2.9.73-2,1.33-.74-.25,2.48,1.35.24,1.9,1.95,4.37,2.46,2.19-.56,4.26.52,1.43,2.86,1.64,1.35M77.66,151.25l1.59,1.37,1-.48.32,1.35.91.77.86-1.32,1.19.11L85,151.31l2.83.07.42,1.1.62,3.26L90.5,158l1.44-.11-.5,2.25,0,1.89-2.15,1.2,1,.57-2,1.72.24,2.66-1.75,2.05-.78-.18-.78.14-1.56.59-2,2.43-1.38-3.36.18-2.66-.37-1.73-.11-2.58.35-1.85L80.6,158l1.81-1.6.21,1.7,1.19-.63,1.28.68,1.76,2.23,1.89,1.07.58,1.81m412,193.33,0,2.5v3.23l-1.77,1-.67,2.13L497.05,364m-38.87-72.7-4.31.6-2.44-1.22-.18-3.32-3.88.75L444.9,287l-2.69,4.35-3.85,2.34L435.06,295l-1.93,2.22-2,1.66,2,5.8-2.31.76-.66-1.09-.63-2.14-2.8,2.76-2.1-.26-3.67-.8.28-4.89-3,0-2.16-4.55-4.4,2.5-.94-6.56,3-5.91-.95-4.49-1.19-4.07-2.17-.63-2.24-2.68-2.36,1.24-4.81.72.87-2.75-2.85-2.72-2.47,3.26-3.94-.22-4.22,5-3.12,5.19L380.85,284l2.19,1.25.37,3.44-3.68,1.15-3.92.62L373.08,292l-4.57-1.07-.3-1.07,2.28-4.81,2.19-2,3.48.46,2.42-.49,2.28.94M45.19,360.68l2.09,3.12-.13,1.63,2.62,3.93,1.61,3,.85,3.45,3.12,3.42.59,1.87L54.47,381l-2.78-1.39-3.2-2-1.63-.35-.71.88-1.38-.52-1.6-1.84-4.8.09-1.85-1.46-.58.09-1.4,2.28-3-2.56-2.89-2.09-2.4-3.2-3.09-3.51-2.18.34-1.65,1.56-.54,3.15-2.41-1.77L14,366.24l-2.34,1.12-2.11,3.19-.33-1.63-.06-2.29L7.56,364l-1.18-3.38-.18-1.93L4.71,355l.4-1.23-.18-2.29.61-3.58.93-.3,2.31-3.73,3,1.6.82-.82.59.49.77,1.71,4.87,1.06,1.82-.94,2.19-.54-.16-2,1.13.18,3.68,2.48,4-.22L35.06,343l2.32-.94,2.67.49.14,2.39,1.91,4.35-.25,2.05-.93,1.75.08,1.69,1.26,2.16M94.54-13.91,98-15.82,100-17l1.31-.76,1.67-.9h-.07M308.58-53.47l-1-.16-.73-.09,4.24.8,1.28.5.64.37,1.8.55,1.13.43.5.38,3.25.55,3.64.56,1.06.63.91.51,1.89.69,2.39.69-13,2.17-8.81,3.06m-233,181-1.56,1.71-1.53,0-1.17-1.9-1.84,1.41-1.11-.73.18-1-2.33.47-1.16-.68-.13-1.76.85-2.56-1.49-.21,1.64-1.94,3.42-1.09.85-1.17.56,1.23,1.15-.24,1.68,1.56,1.18-.59,1.15,3.25M296.91,243.62l-1-3.13-.05-2.19-2.77-1.05-1.38.68-1.54-5.1,1.11-1.38-.72-1.26,3.84-3,2.82-1.35,4.56.31,1.15-3.72,5.25-1.26,1.16-2.38,6-3.85.36-1.33-.85-3.09,2.48-1.83-5.23-9,7.2-3.32,1.71-1.53.56-10.13,7.65.45,1.39-2.82L329.35,177l2.77-1.09,1.63-4.08,1.21-.73,2,3.48,3.76,2.14,5.57.78,3.8,3.64.63,6.54,2,2,4.56-.22,5-.61,5.44,2,2.39-.08,3.39,4.35,3.24,2.46,3.87-1.43,7.69-1.39,4.27-2.45,3.67-.55,6.34,1.09,4-1.75,2.18.94,2.49-4.48,4.22-4.21,4.51-2.53,2.56-3.62.65-3.81,1.07-2.78-1.38-1.35-2-1.37-.36-4,1.81-.46,3.4-.69,1.08-4.19,2.75-4.37-.23-4.33.81-2.51,3-3.09,2.19-.84-.93-1.8-4.39-1.65-2.91-.12-.6,3-2.86.9-1,1.5-1.94-1.49-1.53-5.73-1.36-4.2,4-.19,1-5.1-1.55-1.93-1.86-6.09,0-2.27-2-2.35-2-.17-.21-3.4,1.69-2.68,2.34-2.19,3.79-1.16,2.94.08,5,3.1,2.3,1.13,3,1.93,4.37,3.41,4.15-1.82,4.64.73,4.22,3.11,2.38-2.92-.24-3.27,1.15-4.38,2.8,4.61.87,2.24,3.66,5.15,2.61,5.38-2.58,1.73-.13,3.22,3.52,3.12,3.92,5.38-.8,1.19,1.76,2.19-3.19-1.24,1.19,3.29-1.5,5.11,2.06,2-1.85,1.63-2-.45.88,4.63-.67,4.72.17,4.65m-99.43,124L367,285.62l-2.61,1.8-5.5.65-5.48-.17-4.18-1.69-3.82-.41-2-2.37-2.77-.33-5.25-2.82-4-1.11-1.76,1.63-7-3-5-2.94-2-6,3.43.34-.21-2.88-2.19-2.63-.11-4.63-5.66-6-7.65-1.47-1.77-4.17-3.54-2.31M-52.46,295.44l.5-3.67.21-.31.16-2-.43-3.26-.45-1.27-.27-2.18.6-1.46.18-2.6.28-1.25.24.47.42-1.89,0-1.16.26-.37.67.54.29-4.55,0-2.65.44-1.37.38.22.29,0,.29,1.53,1.23,2.33.58-.85.27.6.59.31-.15,2.5.52.09.86.49m4.2,11-.62,7.6-1.45,2.81-1.23,4.63.41,5.38-.28,1.74M9.51,370.55l-.34,2.39-2.81-3-2.81-3.24-4.34-3.32-.42-.57-2-.88-2-2.18-1.57-.9L-12,354.49m-2.8-14.91,1.07-2.74,1.93-3.43.9.72,2.17-1.3,1.2.9,1.57,3.43,2.41.11.54-1.79,1-1.4.83-2.09,2-.7,1.17-2.95.88-.57.87-2.22,1.42-2.51,3.54-1.8.47-1.53.55-.63-1-2.94.42-1.52,1,.39.76,4.16-.37,3.47-.69,3.23,1.19,5.81-2-1.39-1-.32-1.5-1.6-1.1,1.8,1.62,4.32,1.4,1.89.22,2.38.69,4.14-.7,1m47.16,37.21,2.44,5.2,2,1.45,1.25-.3,2.05,1.19h2.58l1,2.52L71.05,396l-.46,5.52,1.83,1.37L70.9,404l-1.8.56-1.79,1.77-1,1.8-.26,3.67L65,413.13v3.48l-1.28.75-.1,2.66-.61.1-.34,2.32m1.77,8.08L63.92,425l-1.22-2.54,2.76,1.5,1.3-2,2.43,1.27.32,1.9,1,1.42.11,1.49-1.1.5-1.66,1.64-1.56,1-1.86-.56L65.55,435l-.27,2.11,1.1,2.91,2.84,3.51,3,6.4-1.83-1.14-6-1.75H63.32l-.92,2.18,1.23,2.28-.06,4.6.14,3.89L65,461.18,68.37,464l1.08-.24,1.16,4.48-3.37-1.42-2.22-3-1.93-2.42-3.42-2-1.34-2.57-2.39.1-3.49-2.15-1.74-2.53L48,450.66l-1.94-.86-.45-1.4-1.44-.82M-.38,395.84.55,397l1-.88,1.89,1.4.31,1.43,1.37,1.72L7,399.23l1.92-.81.83-.85-.32-3.84,1.42-3.43L12.49,389l2.41-.69.42-1.22.09-1.65.61-1.25-.17-2.78.54-3.9.84-2.51,1.23-1.86.36-2.76m-25.78,17,2.33-.57-1.41-4,1.07-.28,2.21,1.14.2-1.83,1.88,3.55,3,2.39,1-1.43.37-2.75-.45-3.91-1.65-3.94,1.56-4.38-.85-1.55-2.58-1.47-.89-3.15.33-1.88M116.57,236.26l-.36-.33-.88.15-.55-.32-.26.13.11-.57-.17-.43-.74-.33-1.2.08-.63-.54M88.45,135.55l.19-2.86-.29-1.91,1.23-2.05.66-1.6,2.32.21,1.67-.52,2.24.27,1.21-.46.19.92,1.35.22,0,2.18,1.41,1.53-1.05,1.15.59,1.77,1.19-1,1.26,1.54-.79,1.58,1.61,1.4-.43,3-.73-.44-1,.61-.71-.15-.88,1-.64-.07-.35.39-1.17,0-1-.77-1,.8m11.09-27.5-1.33,2.55-1.53.76-.49,2.1-1.33,2.73-1.37,1.41-1.29,3.47m-28.14,2.82,2.79-2.88,3.46-2.09-2.1-3.32.09-1.95L77,118.6l.48-1.3m2.75-2.64L84,110,85,111l1.89-1.14,4-3.37,1-1.68m8.57-3.5.82,1.69,1.74.33m30.85,271.41-2.1,2.32-1.06-1.19-1.25.07-2.82-.78.06-1.59-.27-1.53,1.93-2,2-1.86,2.12,1,1.63-.91M38.83,181.32l-2,2-2.28,4.9-2.84,3.45-3,1.33-1.79,3.81.49,4.71-.59,1.2L27.4,206l-3.26,9.75-1.19,5.09L22,223.3l-2.31,3.64-.79,2.44-1.54,2.41-1.09,3.32-2,1.14.17,5-.74,2.23-.06,3.63,1.71.19,1.45,4.17.17,4.18L3.57,257l-11.23,2.46L-12,258l-2.91-2.44,1-3.14-.84-2-1-3,.28-2.91-3.08-19.51L-20,205.53l.13-21.29.52-.82.16-.31,3-5.37,4.16.92,1.87,1.9,2,.89,2-1.29,3,1.16L-1.12,178,.1,179.08l1.81-.56L4.72,181l1.42-1.34L6.26,178l2.41-5.66,1.68-2.91,1.26-3.79M111,310.75l-17.76-6-16.6-6.48-16.34-7.37,5.51-19.3L71.84,253l.38-4.76,2.1-2.78.25-2.51L76.8,241m41.11,7.37,1.36.46.64-.83,1.12.29-.58,2.24-.79.64.08.07-1.21,1.47-1.26-1.24-1.88,3.31.85,1-1.26.39-.58,1.37,2.15-.08-.48,2.14-4.42,7.94m18.66,100.67-1.56-2.11L127,362.51l-2-2.25-1.07-2.14-4.05-3.25-3.36-1-1-1.42-3,.41-2.62-3.23-2,3.46-5.42-2.81-.23-2.25L105.3,341l1-3.36,1.74-1.16,3.61.18,2.87-2.31M39.37,130.2l-.77,2.49L40,138.53l1.38-.18.43,4.33,2.59,1.83m-34.68,0,1-1.61,1.71-.71,1.08-.83.56-2.08,2.57-2.12,1.55-3.44.83.65,1.69-1.88.71-.24L24.18,129l1.55-.08,1.44-2.7-.59-1.45-.65.13-.7-1.32,1.49-2.55-1-.32-1.32.2m131.35-14.61-.18.93-3.35,1.9-2.09,4.56-2,1-1.93-.89-.85-2.62-.61-1-2.48-.14m-10.57,267-1.27,1.55,1.67,3.27,1.7,2.9,1.84,2.28,16.72,9.6,4.44.81-15.55,12-6.81-1.29-4.73,2.38-3.31-.72L125,411.05l-3.5-.89-2-2.19-4.71.8-1.56,1.61-3.34-1.32-1.1-.88-1.17-.2-1.56-.51-6.1-6-3.4-1.07-1.59-2.14.14-2.76-2.48-1.65-2.51-6.33L88,385.6l-.68-2.28-2.21-3.27-2.86-1.4,1.85-2.28,2.5.76.85-1.29m.36-4.56,1.94-4.84,2.4-.66.71-1.94,2.48-3.24L98.49,359l2.55-4.48,1.35-4.23M168.76,74.61l.79-1.86,5.35-6.11.07-3.87-.12-2.91,1.83-.51-.34,2.86,2.12.81.78,1.76,3-1,3.24-2.5,3.46-.28.67,2.41-2.91,2.52-2.48,2.71.5,3.79-3.95,2.46-1.37,5.64-3.87,3.13-.47,3.92-2.75,2.5,1.09,4.22-2.26,2-3.67,1.79L159,101.81M74.6,119.17l.08.76.61.41M64.07,136.58,63,137.76,62.31,140l-1.76.7-2.09,3.95.72,1.62L57.48,148M-12.63,360.11l1.06.61,4.65,3.81.14-5.72M75.42,81.19l.14-2.05-.65-1,2.55-1.5,2.18-2.19m74.17,124,.65-.51,2.84,1.75,5.25,2.26,4.45,3.81.4,1.16,2.57-.33,3.33,1.9.66,2.48,2.18,1.77M164,214.5l5.69.37.47,1.6,1.3,1.27-1.13,1.2,1.71,2.33-1.54,1.51,1.39,1.85,1.63,1.26-.72,3.83-1.54-.14-1-3.52.21-.85-1.81-.36-.85-1.73-.88,0-1.2-1.94-2.64-2,1.06-2.56L164,214.5,160.92,211l-4.18-.76m-189.63,76-.47,1.31.47,3.67-.64,3.5-.41,4.08.3,2.46-1.14,3.71-.13,2.62.25,3.8.34,2.32m-17.35-36.16-.4-1-.59,1.3-.4-.87-.13-1.61.39-1.7-.1-4.17-.45-.26-.3-.53-.41-.57.31-1.7,0-1.72.3-1.29.1-2.64v-2.54l-1-2.41-.45.18-.33-.72-.39.5-.38,1-1,.46m.28-15.8.92-.94.25,1h.43l.21.66.3-.14.3-1.82.23-.15.42-1.54L-53,240l.47,3.32.27.55.22-.3.53,2,.24.17-.36,1.9.19.47.48.15.17.66.06,2,.47,1.66.61-.21.59.33.5.06.25.71.07,1.7-.14,1.66.15,3.21-.58.62-.39,1.43.42.16.07.93-.38,1.26.18,2.28m-5.8-42.08.85,3.15.5-.42.29.87,0,2.34.27,1,.53.21-.18,2-.7-.24-.37-1.4-.1-2.27-.61,0-.16-.5-.37-.08-.64-2.86m-.83,4.07.58.86.22,1.15.35.29,1.6,5.79M84,186.3l2.22.65,1.73-.47,1.61,1,1-.6.67.14m11.22,2.44.94,2.08-2.49,2.73-1,.22M81.77,173.21l-.79.64m13-29.39-1.48,1.79-1.39-.89-.22,1.32L88,149.14l-1,.47-2.24-1.33-1.95.2-1.74-1.76-2.5-3.65.65-2-2.79-.93-.89.65-.86-1.71-1-1-.33-1.62,1.16-.82.54-.85.82.28.13,2.13,1.21-.94L79,138l2.2.42,1,1,0,1.46.78-.62,1.85-3.2,1.24,0,2.35-1.51.62,2.68,2.67-1,1.07.22.83,2.63,1.3.5.51,1.6-.61.46L94,144.46l.45,2,.6,1.09,2.51.74.82-.83,1.12.47h1.73l.09.47,1.6.11,1.33-.77,1,.2,1.94,3,.87-.18.72,2.12-.58,1.39-2.29.12L102.7,157l-3.62,2.36L96.33,159l-1.56-1.19-2.84,0m-4.07-6.5.56-1.9-.38-.33M530.47,398.72l.14.59-.18,1.28m38.3-76.32-1.28,15L565.14,354m-85.29,32.29.77,2.81,2.81,1.17,2.57-2.39,2.52-1.08,2.24-3.71,1.85-1.51,3.65-.85,3-2.92L501,370l1.34-2.58.94-6.29,4.11-2.77,3.1-1.31M329.68,280.8l-2.67,3-1.22,5.47,4.9,1.44,4.87,2,6.66,2.07,6.64-.46L352,296.6l3.75-.21,5.89.1,3.89-1,.16-2.3-1.22-3.36-.07-2.45m40.44-13.57.83,1.95-1.24,1.49,1.18,3.21-3.33,0-4.77,5.53.82,3.06-1.47,5.29.33,2.71-1.12,5.06L392.3,302l.89,5.65-.71,2.14.92,2.15-2.07,1.93m-123.25,8.49,3.36-3.79,11.29-.42-1.2-4.72-2.95-2.7-.7-4.28-3.37-2.38,5.31-6.09,5.79.14,4.84-6.2,2.7-5.9,4.28-6-.37-4,3.75-3.6-4-2.44-1.92-3.68-2-4.79,2.08-2.61,7.07.76,5-1.35,3.83-5.2m-79,34.43,2.29,3.06,1.86,3.48,4.66,2.64v5l2.37,1,.36,2.59L236,307.89l-2.13,6.4m-63.64-34.61-3-1-4.28,4.66-8.5-2.21-10.49-14-5.62-5.51-4.82-2.9,0-7.12,10.75-3.15,3.23-6.21.62-4.1,2.6-.78,3-2.89,2-.43,4.66,1.84,1.14,1.72,2.21-.49M81.12,146.73l-1.85,2.08-.78,2.4m41.25,100.05,4,3.61,9.72-3.35m0,7.12-1,.59-9.18.22,2.85,6.71-1.65.5-1.16,1.61-3.46-.25-1.51,1.63-2.27,1.08-4.51-2.41m5-10.91L117.6,256l.93-3.31m197.16-39.11-2.62-.46-2.35-1.71-6.07.15-6.75.57-1.39.75-6.05-1.82-2.21,1.33-.34,3.33L281,214.29l-2.66.93-.78,2.48-2.33,1.14-5.38,4.09L268.11,227l-1.6.08-1.23-2.63-5.4-.1-.9-4.58-2,0,.31-5.6L252.37,210l-7,.3-4.82.65L237,205.81l-3.13-2.26L228,199.21l-.69-.53-10.45,2.38-2.32,20.42-2.16.05L210,216.87,207.49,215l-4.8.58-2.1,1.6m-8.53-27.26-1.7-1.2,1-2.7-1.48-4-2.72-.35-2.08-4.21,3.08-3.63-.73-1.28,4.28-5.28,2.75,3.71,1.38-3.8,8.34-4.61,5.32.62,6.91,4.63,3.81,2.61,4-1.9,5.57.35,4.26,3.09,1.16-1.53,5,.49,1-2.5-5.37-4,3.52-2.43-.53-1.49,3.35-1.24-2.17-3.74,1.65-1.74,12.41-1.51,1.62-1.29,8.11-2,2.81-2.25,5.83.91L274,153l3.31-1.47,4.38,1.52,0,2.9,3.16-.55,7.47-5.73-.92,1.76,4.86,3.6,10.06,12.48,1.26-3,5.38,2.34,4.57-2.17,2.12.62,2.41,2.75,2.66.58,2.07,2L331,169l2.75,2.84M111.63,447.55,104.27,441l-.43-2.72L86,423.24l-.81-.79-.07-5,1.38-1.42,2.4-2.31,1.81-2.88-2-6.23L88.21,402l-2.13-4.16,3.09-1.9,3.43-2.14M125,411.05l-4.63,4.35-.09,17.25,3.09,4.59M290.2,232.82l-8.14,1.38-5.46-1.55-4.68.62.28-3.25,4.74.75,1.47-1.79,3.31.37,5.15-4.36-5.22-2.63-2.92,1.56-3.23-2,3.32-3.78-1.28-.49m167.6,132.46-1.95-5.77,2.15-5.45,5.43-3.39,4.13-1,3.82.41,1.27-4.43,4,.12,1.54,2.94.5,6.35-6.45,7.27,2.29,2.2-4.43,2.44L454,355.52M478.56,172l-.14-.55,1.09-.79-.53-2.93,1.35-1.76.68-1.23-.45-1.42M85.9,176.06l1.16-.79.89,0,1.31-1.41.67,0,0,.93.38.61-.05,1,.36.5.08,1.24.43.2-1,1-.67.39-.1.42-.77-.17-2.16-.2-.69.94-.35-.25M171.08,288l-3.35-.46-.76-2.85-4.08-1.34m292,51.2,1-2.95-.61-4.44-4.25-3-1.29-5-4.07-2.83-3.28,1-.49,2.19-2.49,1.2-1.48-.4-4,5-1-4.68,0-6-3,.9-.9-3.08-2.23-.92.52-2.3,2.94-4.87m2.94-7.13,3.44,3.16,3,4,5.14-2.18,2.67,3.86L445,308.65l-.79,2.41,5.69.92,4.76,4.57,3.54,3.35L462,322l1.73,3.13.21,5.49M123.91,241.17l1.73.86,0,2.33-2.8,1.34L121,248.33M-56.38,272.69l.5-.79.27-1.22,1-1.2,1-.8M60.26,290.93l-2.65,10.43L53,299.12l-.58,2.16L40,283.19l-10.8-18.45-4.25.53-2.93.28-.85-4.06L17,255.67m7.11-39.87,1.87,0,1.25-1.89L28,211.6l2.8-.38,1.63-.9,2-.36,2.07-3.66M86.58,521.24l1.86,1.43-.39.88-.11.64L86,523.71l-.15.59L84.72,524l-4.23-3.44.94-.91,1.44-.21,1.49.19,2.22,1.62m41.63-394.49,2.36,1.23,3.84-.44,2.25-2.36,3-.54,1.09-2.19,2-.1,3.77-.63,1.93,2.29-.34,1.32h1.67l1.89,2.14-1,2.34-1.29,1.07,0,3.81L150,136l-.62.82,1.42,1.55.14,1.61-1.64.67-2.17-1-.78.24-.19,1.89-.92,3.4-2.6-.65-1.43.74-1.47,2.4-.89-.94-2.68-.81-.12-1.45-1.51.4-.66-1.15-2.11-1-2.35-2.53-2.47-1.64-2.1-.88-2.22.58-1.36-.44,1.28-2.13.62-2.58,2.12-.18,1.23-1.86.47-2.12,1.25-2.11.36-1.72-.89-1.13.61-1.27,1.12-1.11-.53-1.28-1.86-2.1m2.28-4,3.57,0,3.64,2.28,2.61.69-.31,1.11,1.07.9.88,3.33m7.43-7.72.47,1.57-1.21,2.33-.92,3.09M-19.21,183.1l-.2-.41-1.31,2.5-.88-1.52-1,.15-.55-1.23-.1-1.57-1.22-1.81-2.27,2.61-.51-.53-3.48,4.37-3.79,1-3.3,5.31-1.29.85-.84,1.3-1.83-6.15v-.06m150-33.57,1.8-.41,1.41,1.42,1.79.92.64,1.84,1.4-.28,2.38.54,1.35-.82,1.23.57,1.08-.41,2.2.38,1.36,2.5,1.14.71.67,1.92-1.07,1.61.7,1.29-.58,2.28.47,1.73-.57.67.35.75-1,0-1.77-.91,0-.83-.84.13-.22,1-1.64,1.25-1.39,1.49-1.06.21.57-2.55,1.4-2,1-2.25-.22-3.73.15-2.52-.13-1.88-.62-.88M89.4,180.23l1.17.27,1.43.65M-51.27,245.7l.43-1.33.38-2.09-.08-2.44.53-3.28.8-3.06.64.14,1-2.26.41.83.45,3.37,1,.73.42,1.44.53-.61,6.19,11.57,1.41-2.71-.11-1.08L-30.73,223l8.21-21.57,2.5,4M-12,258l-3.53,11.33-2.33,1.82-1.06,2.79-2.42-1.61-3.37-3.3-1.33.73-1.51-1.58m454.31,43.39-2.26,2.17L422.34,317l-3.11,1.36-1,6.45-1.75,1.61,3,3.89,3.55,2.82,2.42,2.8-.94,5.14-1.44,1.52,1.48,2.23,3.66,3,.93,2.69.26,2.42,2.39,4-2,5.69-1.7,6M86.08,170.05l.26,1.28,0,.92.63,1.07.53,1.65-.47.3M335,171.06l3.29-1.72,4.85-6,4-3.74,3.38.79,3.34-.88,3.09,1.75,3.23-.8,5.08-.22,1.41-4.55-2.59-2.53.63-6.25,4.27.85,2.91-.43,4-.07,2.49,3.47,5.18.36,2.19-2.09,3.16-2.24,3.13-.67,4,1,3.12,1.64,2.47-1.35,3.82-1,1.63-2.51L410,141.1l1.35-5.45,1.78-.41,2.34.73,2.51-2.23m-319,387.14-3.2-1.2-1-1.47-1.24-1.61-.84-1.24-.74-3.23-2-2.71L86.11,504l3.22-2.13.37-2.06.57-.07-.13-1.88-1-1.31-.56-2.6.2-2.2-1.16-4.66L84.94,485l-2.2-1.07-1.19-1.3L79.31,481l-3.68-1.38L75,478.11l-1-2.91,13,2,3,2.8,1.21.09,2,1.61.57,1.63-.62,1.44.92,2.78,3.53,3.33.85-2.11,1.85-.13-1.37-5-2.48-3.45-1.91-1.82-1.63-.5-2.16-5.6.84-2.62,3.52.86,5.91,3,1.19-.12,3.35.93,1.57-.69,2.95.94,5.19-.05,3.7-1.29M-49.22,233.5l.26-5.19.48-5.24-.23-3.2,0-2.78-.5-1.61-.74-.44-.24-1.88-.75.45m8.27-24,.81-.88,3.24,11.35,2.81-7.14,1.36-1.64,1.17,2.25,5.85-11.69,3.81,9.24,3.7-6.89M87,477.2l-2.62-1.89.75-3.17,1.22-.87L85,467.61l.46-3,.64-.83-1.65-3.95L82,457.18l4.69,2.43,1.07,1.48,1.85,2.5,2.06,6m345.17-86.17.74-1.19,3.92.71.54,2.39,3-1.78,1.34-2.62M47.51,472.33l3,.8,2.67,1.51L55,476.26l.12.33m-9.77,14.73,6.72,11.87-2-.22-1.65-.86L46,500.24l-1.63-1.15-1.42-1.69-1.83-1.68-.54.55m-15.6-231-1.76,8.46.84,2.17-.45,1.65.88,2.7L23.08,282l-4.17,9.42L17,297.84l-5.46,1.75-3,5.58,1,2.85-.68,3.23,2.16,1.65L10.25,315m-1.43,1.13-.66-.35L7,308.7l-.73-.77-3.14.88L.92,305.43l-1.65-1.64-1.05,0-1.79-1.63-2.26.61-1.56-1.18-3-5.69H-12l-1.43-1.43-.62-2.85-2.32-4.49-3-2.28-.92.36-1,2.44-1.19,1.2L-23.61,293M192.29,65.57l-4,.52-1.59-.17m-11.85-6-1-.35-2.7,2.33-2-2.18-2.55,1.82-1.32-.86-3.74,2-5.85,3.14-7.91,3.64-.84,1.67-2.11,1.11-1.4-1.15-4.78,2.78L133.3,79l-1,2.73-5.19,4.2L123,87.53l-3,1.7m67.79,267.49-1.46-4-3.39-9.46,16-3.52,4.19-10.6L201,325M120.84,119.5l2.45,2.12,4.39,2.28m-6.44,13.84-1.26,4.8-1.1,1.2-1.66-.11-4.86,2.72-.64,2.51-.41-.59-1.38-3.18-2.3-.37-.91-1.17-2.18.13-.18-2.41-1.45,0,0-.36m369.57.56.85.47M182.74,312l-1.42.19-1.38-1.32m-61.85-137,1,1.53,1.88-.19,1,1.47m-24-4.61-.06-1.15,1.14-.47-.38-1-1.52.62-.88-2.33.92-2.14-1-2.1.6-1.72L96.33,159m58,18.26,1-2.28,2.27-1,3.41.54,1.15-1.6.28-3.08,2.33-2.36.51-1.53-4.18-3-1.9-.49-1-3-2.75.07-3.18-3.06.5-1-.11-2.55-2.3-1.06.47-1.63,1.22-.76-.55-3.48-3.24-.6-.75-.57-1.29.85-1-.61M65,416.62l1.1.92,2.71-.33,1.87,3.33-.2,2.6-1.31.06m113.73-79.92-15-.21-5,1.6-4.22,5-2.48.44-1.1-2-2-.12-4.84-1.53-.85-.73-5.81-1.14-1.4.18-1.87-1.85-1.64,2.31.23,2.36-2.37,1.18M87.75,371.9l-.65-.33.34-2.5-.38-1.93-2.19-2.87-.15-3.88,1-3.58-2.1-1.13-.46,1-2.79-.76.92,1.92v3.21l-2.84,1.85-2.68,2.79-2.42-.4-3.46-4.46-1.82.36-.64,1.28h-2.4l-.26,1-4.4-1.88-.48-1.29-3.11-1.56-1.66.16-1.14-1-1.84-4-.56-1.73-3.13-.76-1.45,1.77-1.62,3.94-1.53.24-1.33-.09M40,342.54l.23-1.2L39,339.08l.43-3-.51-2.39-1.45-.46.72-1.64,1.4-1.57-.08-2.35,1.6-.86-.6-1.63,1.64-2.6,2.57-2.83,3.38,2.13,4.34-20.62m33.61,96.59-3,1.21-3.31-1.21-3.82-.27L73,395.39l-2,.58m92.9-14.86,0,.07-.15,2.13-.3,5.2-.15,2.68-2.56,2.71-3.92,3.57m-45.51-249.2-1.51.85-1.71,1.65M95.74,519.67l-.2,1-2.27-.61L90,517.5l-.53-1.06.59-.71,0-.75,1.1.24,2.36,1.37M126.42,235l1.42-.84,1.43-.85,1.13-2.94,1,1.45,4.83-.18,1.83,1.63,3.33.93,5.23-.79,2.16.66,4.88.32m111.46,12.45,2.38-5.75-1.06-4.17-3.24-1.28,1.09-2.49,3.64.19,2-3.15,1.24-3.64,5.63-1.52-.75,2.63.7,1.54,1.75-.23m-63.84-7.5,4.72.36L218.9,219l3.73-1.62,3.77-3,5.33,3.3.14,4.48,1.53,1.23,4.59,0,1.37,1.08,1.85,5.84,4.81,4,2.79,2.7,4.57,2.81,5.89,2.42-.09,3.44M82,457.18,79.21,455l-3-1.82-1.91-1.42-2-1.82m-3.41-32.68,1.61.09,5.08,2,9.62,3.14m-6.71,78H73.53l-2.61.88-.38,1.59-.63.69-2-.74.06,1.23.1.82-2.1-.44-3.18-1.68L60.48,501l-1.78-1.2-1.43-.18-.1,1.07-1.23,0-1,.44L52.53,500l-1.42-1.57-.74-1.78-3.76-4.33-1.21-1.05-4.69-10,3.56,1.93L39.48,470.3l2.8,1.44,5.56,1.86,2,2.32,2.07-.19,1.23.6,2,.26.82.63,2.48,3.71,1,1,2,2.71,6,6.06,1.9,1.16.43,1.24,2,2.74,3.41,1.91,3.24,2.66,1.73.74,2.25,1.39,1.29.17,2.4,1.23M75,478.11l-3.2-.82-2.12.49-.18,1.1L68,478.52,65.17,480l-1.64,1.37-1.38-.55-1.47-1L56,477.22M171.23,229.59l-2.66-1.3-1.49-3-.16-2.2m-55.44,34.21.17,10.19"/><rect id="Degradado" class="cls-9" x="152.65" y="-153" width="87" height="394" transform="translate(240.15 -152.15) rotate(90)"/><text class="cls-10" transform="translate(42.9 17.5)">El segundo idoma más hablado en<tspan x="52.63" y="17.6">Oriente Medio y Rusia</tspan></text><text class="cls-11" transform="translate(28.85 47.75)">Haz clic en cada país para saber cuál es la segunda lengua más hablada</text><text class="cls-12" transform="translate(4.58 300.75)">Familias lingüísticas</text><text class="cls-13" transform="translate(5.34 349.75)">INDOEUROPEAS</text><text class="cls-14" transform="translate(5.1 312.75)">AUSTRONESIAS</text><text class="cls-15" transform="translate(4.84 324.39)">TURQUICAS</text><text class="cls-16" transform="translate(4.84 336.39)">AFROASIÁTICAS</text><text class="cls-12" transform="translate(2.46 387.75)">Fuente: Ethnologue y CIA Factbook</text><text class="cls-12" transform="translate(315.24 389.75)">LA VANGUARDIA</text><rect class="cls-17" x="1.15" y="79.5" width="100" height="32"/></g>
 	<text class="label" id="country-name" x="8" y="92"> </text> 
 	<text class="label2" id="SecondLanguage" x="8" y="107"> </text>

 	<script type="text/javascript"><![CDATA[  
    function colourCountry(country_name, colour) {
        var country = document.getElementById(country-name);
        country.setAttributeNS(null, 'fill', colour);
    }
  
    function displayName(name) {
        document.getElementById('country-name').firstChild.data = name;
    }

    function displaySecondLanguage(language2) {
        document.getElementById('SecondLanguage').firstChild.data = language2;
    }
]]></script>



	</svg>