<svg id="Capa_1" data-name="Capa 1" xmlns="http://www.w3.org/2000/svg" viewBox="0 0 674 755.76"><defs><style>@import url('https://fonts.googleapis.com/css?family=Open+Sans:400,700');.cls-1,.cls-4{font-size:17px;}.cls-1,.cls-2,.cls-9{fill:#757575;}.cls-1,.cls-4,.cls-9{font-family:OpenSans, Open Sans;}.cls-2,.cls-9{font-size:16px;}.cls-2,.cls-3{font-family:OpenSans-Semibold, Open Sans;font-weight:700;}.cls-3{font-size:25px;}.cls-3,.cls-4{fill:#313131;}.cls-5,.cls-6,.cls-8{fill:none;}.cls-5{stroke:#757575;stroke-width:0.75px;}.cls-6{stroke:#d9d9d9;}.cls-6,.cls-8{stroke-width:1.02px;}.cls-7{fill:#177d97;fill-opacity:0.75;}.cls-8{stroke:#333;}</style></defs><title>2019.01_MercadoEdades</title><text class="cls-1" transform="translate(27.56 698.42)">17</text><text class="cls-1" transform="translate(56.56 698.42)">18</text><text class="cls-2" transform="translate(6.2 598.75)">2</text><text class="cls-2" transform="translate(6.2 522.75)">4</text><text class="cls-2" transform="translate(5.2 448.75)">6</text><text class="cls-2" transform="translate(5.2 377.75)">8</text><text class="cls-2" transform="translate(5.07 304.75)">10</text><text class="cls-2" transform="translate(5.07 228.75)">12</text><text class="cls-2" transform="translate(4.07 156.75)">14</text><text class="cls-2" transform="translate(4.07 85.75)">16</text><text class="cls-3" transform="translate(8.17 32)">Número de jugadores fichados en cada franja de edad</text><text class="cls-4" transform="translate(4.67 751.09)">FUENTE: Elaboración propia a partir de Transfermarket</text><text class="cls-4" transform="translate(536 751.42)">LA VANGUARDIA</text><line class="cls-5" x1="0.67" y1="732.33" x2="674" y2="732.33"/><path class="cls-6" d="M1,95H672"/><path class="cls-6" d="M1,167.48H672"/><path class="cls-6" d="M1,240H672"/><path class="cls-6" d="M1,313.52H672"/><path class="cls-6" d="M1,386H672"/><path class="cls-6" d="M1,458.48H672"/><path class="cls-6" d="M1,531H672"/><path class="cls-6" d="M1,604.52H672"/><rect class="cls-7" x="31.2" y="604.52" width="14.31" height="72.48"/><rect class="cls-7" x="59.06" y="203.73" width="14.31" height="473.27"/><rect class="cls-7" x="87.68" y="95" width="14.31" height="582"/><rect class="cls-7" x="116.3" y="349.76" width="14.31" height="327.24"/><rect class="cls-7" x="144.91" y="95" width="14.31" height="582"/><rect class="cls-7" x="172.78" y="277.27" width="14.31" height="399.73"/><rect class="cls-7" x="201.39" y="167.48" width="14.31" height="509.52"/><rect class="cls-7" x="230.01" y="422.24" width="14.31" height="254.76"/><rect class="cls-7" x="257.87" y="458.48" width="14.31" height="218.52"/><rect class="cls-7" x="286.49" y="386" width="14.31" height="291"/><rect class="cls-7" x="315.11" y="277.27" width="14.31" height="399.73"/><rect class="cls-7" x="343.72" y="604.52" width="14.31" height="72.48"/><rect class="cls-7" x="371.59" y="604.52" width="14.31" height="72.48"/><rect class="cls-7" x="400.2" y="604.52" width="14.31" height="72.48"/><rect class="cls-7" x="428.82" y="530.97" width="14.31" height="146.03"/><rect class="cls-7" x="457.43" y="530.97" width="14.31" height="146.03"/><rect class="cls-7" x="569.91" y="639.76" width="14.31" height="36.24"/><rect class="cls-7" x="656.3" y="639.76" width="14.31" height="36.24"/><path class="cls-8" d="M1,677H672"/><text class="cls-1" transform="translate(85.56 698.42)">19</text><text class="cls-1" transform="translate(113.56 698.42)">20</text><text class="cls-1" transform="translate(140.56 698.42)">21</text><text class="cls-1" transform="translate(168.56 698.42)">22</text><text class="cls-1" transform="translate(199.56 698.42)">23</text><text class="cls-1" transform="translate(227.56 698.42)">24</text><text class="cls-1" transform="translate(254.56 698.42)">25</text><text class="cls-1" transform="translate(282.56 698.42)">26</text><text class="cls-1" transform="translate(311.56 698.42)">27</text><text class="cls-1" transform="translate(339.56 698.42)">28</text><text class="cls-1" transform="translate(368.56 699.42)">29</text><text class="cls-1" transform="translate(395.55 698.42)">30</text><text class="cls-1" transform="translate(425.55 698.42)">31</text><text class="cls-1" transform="translate(453.55 699.42)">32</text><text class="cls-1" transform="translate(568.55 698.42)">36</text><text class="cls-1" transform="translate(651.55 700.42)">39</text><text class="cls-9" transform="translate(71.94 52.51)">Durante el mercado de invierno 2019 por las principales ligas europeas</text><text class="cls-9" transform="translate(478.16 86.51)">NÚMERO DE JUGADORES</text><text class="cls-9" transform="translate(0.96 718.51)">EDAD EN EL MOMENTO DE SER FICHADO</text></svg>