<svg id="Capa_1" data-name="Capa 1" xmlns="http://www.w3.org/2000/svg" viewBox="0 0 684.64 417.15"><defs><style>.cls-1,.cls-19,.cls-5{fill:#757575;}.cls-2,.cls-3{fill:none;}.cls-3{font-size:15.37px;}.cls-14,.cls-15,.cls-19,.cls-3,.cls-5,.cls-8{font-family:ArialMT, Arial;}.cls-4{fill:#701538;}.cls-5,.cls-8{font-size:17px;}.cls-6{letter-spacing:-0.07em;}.cls-7{font-size:21px;}.cls-13,.cls-14,.cls-15,.cls-7{fill:#323232;}.cls-13,.cls-7{font-family:Arial-BoldMT, Arial;font-weight:700;}.cls-8{fill:#353535;}.cls-9{letter-spacing:-0.02em;}.cls-10{letter-spacing:0em;}.cls-11{letter-spacing:-0.07em;}.cls-12{letter-spacing:-0.04em;}.cls-13{font-size:29px;}.cls-14{font-size:28px;}.cls-15{font-size:23px;}.cls-16{letter-spacing:-0.07em;}.cls-17{fill:#002f64;}.cls-18{fill:#fff;}.cls-19{font-size:14px;}.cls-20{letter-spacing:-0.06em;}.cls-21{font-family:Arial-ItalicMT, Arial;font-style:italic;}</style></defs><title>numero de agresiones a funcionarios en prisiones</title><line class="cls-1" x1="19.33" y1="325.52" x2="606.01" y2="325.52"/><line class="cls-2" x1="4.97" y1="325.52" x2="4.97" y2="320.19"/><line class="cls-2" x1="107.53" y1="325.52" x2="107.53" y2="320.19"/><line class="cls-2" x1="210.1" y1="325.52" x2="210.1" y2="320.19"/><line class="cls-2" x1="312.67" y1="325.52" x2="312.67" y2="320.19"/><line class="cls-2" x1="415.23" y1="325.52" x2="415.23" y2="320.19"/><line class="cls-2" x1="517.8" y1="325.52" x2="517.8" y2="320.19"/><line class="cls-2" x1="620.36" y1="325.52" x2="620.36" y2="320.19"/><text class="cls-3" transform="translate(672.93 336.83) scale(1.37 1)">0</text><text class="cls-3" transform="translate(0 303.34) scale(1.37 1)">100</text><text class="cls-3" transform="translate(0 260.66) scale(1.37 1)">200</text><text class="cls-3" transform="translate(0 217.97) scale(1.37 1)">300</text><text class="cls-3" transform="translate(0 175.28) scale(1.37 1)">400</text><text class="cls-3" transform="translate(0 132.6) scale(1.37 1)">500</text><line class="cls-2" x1="4.97" y1="314.03" x2="4.97" y2="112.1"/><line class="cls-2" x1="20.35" y1="325.52" x2="20.35" y2="325.52"/><line class="cls-2" x1="4.97" y1="282.84" x2="20.35" y2="282.84"/><line class="cls-2" x1="4.97" y1="240.15" x2="20.35" y2="240.15"/><line class="cls-2" x1="4.97" y1="197.47" x2="20.35" y2="197.47"/><line class="cls-2" x1="4.97" y1="154.78" x2="20.35" y2="154.78"/><line class="cls-2" x1="4.97" y1="112.1" x2="20.35" y2="112.1"/><rect class="cls-4" x="19.33" y="143.26" width="73.85" height="182.27"/><rect class="cls-4" x="121.89" y="152.22" width="73.85" height="173.3"/><rect class="cls-4" x="224.46" y="191.49" width="73.85" height="134.03"/><rect class="cls-4" x="327.03" y="172.28" width="73.85" height="153.24"/><rect class="cls-4" x="429.59" y="179.54" width="73.85" height="145.99"/><rect class="cls-4" x="532.16" y="171.86" width="73.85" height="153.67"/><text class="cls-5" transform="translate(38.19 345.83)">20<tspan class="cls-6" x="18.91" y="0">1</tspan><tspan x="27.1" y="0">1</tspan></text><text class="cls-5" transform="translate(140.93 344.83)">2012</text><text class="cls-5" transform="translate(244.93 344.83)">2013</text><text class="cls-5" transform="translate(350.93 344.83)">2014</text><text class="cls-5" transform="translate(451.01 344.82)">2015</text><text class="cls-5" transform="translate(554.6 343.82)">2016</text><text class="cls-7" transform="translate(41.71 135.83)">427</text><text class="cls-7" transform="translate(143.71 145.83)">406</text><text class="cls-7" transform="translate(247.71 185.03)">314</text><text class="cls-7" transform="translate(350.71 165.83)">359</text><text class="cls-7" transform="translate(449.79 172.83)">342</text><text class="cls-7" transform="translate(552.33 165.83)">360</text><text class="cls-8" transform="translate(488.67 94.03)"><tspan class="cls-9">T</tspan><tspan class="cls-10" x="10.08" y="0">O</tspan><tspan class="cls-11" x="23.3" y="0">T</tspan><tspan x="32.42" y="0">A</tspan><tspan class="cls-12" x="43.76" y="0">L</tspan><tspan class="cls-13"><tspan x="-9.99" y="34.8">2.208</tspan></tspan></text><text class="cls-14" transform="translate(14.01 24.03)">Número de agresiones a funcionarios en prisiones </text><text class="cls-15" transform="translate(15.26 53.03)">Lesiones sufridas por los funcionarios desde 20<tspan class="cls-16" x="485.85" y="0">1</tspan><tspan x="496.94" y="0">1 hasta </tspan><tspan x="0" y="27.6">2016, sin incluir Catalunya*</tspan></text><text x="3.97" y="-8.97"></text><polygon class="cls-17" points="501.83 391.21 642.97 391.21 642.97 412.1 501.83 412.1 501.83 391.21 501.83 391.21"/><path class="cls-18" d="M611.09,404.84h-5.41v.66l1.42.33v9.73a1.19,1.19,0,0,1-1,.49,2.11,2.11,0,0,1-1.75-1.25L603,412.44a2.8,2.8,0,0,0-2.47-1.62v-.16a3.28,3.28,0,0,0,3.42-3c0-2-1.89-2.81-4.07-2.81H595v.66l1.6.33v9.85h0l-1.84.34-4.59-12.21a5.72,5.72,0,0,1-1.66,1.38l.18.49-4.2,10-1.27.33v.66H587V416l-1.25-.32,1.42-3.64h3.89l1.37,3.62L591,416v.66h9.31V416l-1.57-.32v-4.59a2.29,2.29,0,0,1,2.07,1.49l1.84,3.21a3,3,0,0,0,2.67,1.58,2.68,2.68,0,0,0,1.75-.7h4.17a6.19,6.19,0,0,0,6.42-5.92c0-3.46-2.75-5.92-6.53-5.92Zm-23.61,6.3,1.65-4.21,1.58,4.21Zm12-.89h-.83v-4.41h1a2,2,0,0,1,2.13,2.12,2.33,2.33,0,0,1-2.34,2.3ZM611,415.71h-1.73v-9.88H611c2.76,0,4.46,1.86,4.46,4.94s-1.77,4.94-4.5,4.94Z" transform="translate(3.97 -8.97)"/><path class="cls-18" d="M522.33,415.71l-4.49-11.89a5.7,5.7,0,0,1-1.66,1.38l.17.49-4.2,10-.9.33-.27.66h3.71V416l-1.25-.32,1.42-3.64h3.89l1.37,3.62-1.47.34v.66h5V416l-1.33-.32Zm-7.14-4.57,1.64-4.21,1.58,4.21Z" transform="translate(3.97 -8.97)"/><polygon class="cls-18" points="515.58 404.71 515.13 404.47 512.5 406.8 510.26 406.8 510.26 396.87 511.61 396.53 511.61 395.87 506.76 395.87 506.76 396.53 508.13 396.87 508.13 406.72 506.76 407.06 506.76 407.72 514.38 407.72 515.58 404.71 515.58 404.71"/><polygon class="cls-18" points="536.72 395.87 536.72 396.53 538.18 396.87 535 404.8 531.65 396.85 533.23 396.53 533.23 395.87 527.83 395.87 527.83 396.53 529.37 396.86 534.17 408.13 534.69 408.13 539.48 396.88 539.52 396.88 541.01 396.53 541.01 395.87 536.72 395.87 536.72 395.87"/><path class="cls-18" d="M580.7,404.84v.66l1.45.33s.11,5.87.06,7.36a3,3,0,0,1-3.28,2.9,3,3,0,0,1-3.27-3v-7.23l1.41-.31v-.66h-4.89v.66l1.39.32v7.28c.09,2.5,2.16,4.15,4.83,4.15s4.74-1.52,4.83-4.15l.09-7.27,1.43-.33v-.66Z" transform="translate(3.97 -8.97)"/><path class="cls-18" d="M633.54,415.69l-4.47-11.87a5.73,5.73,0,0,1-1.66,1.38l.17.49-4.21,10.06-.71.28-1-.3v-9.9l1.49-.33v-.66H618.1v.66l1.47.34v9.86l-1.41.32v.66h7.78V416l-1.25-.32,1.42-3.64H630l1.37,3.62-1.47.34v.66h5V416l-1.35-.34Zm-7.12-4.54,1.64-4.21,1.58,4.21Z" transform="translate(3.97 -8.97)"/><path class="cls-18" d="M554.57,404.84v.66l1.48.34.09,7.75-7.62-8.75h-3.25v.66l1.47.32.12.06-.11,9.8h0l-1.5.34-4.6-12.21A5.7,5.7,0,0,1,539,405.2l.17.49-4.2,10-1.27.33v.66h3.82V416l-1.25-.32,1.42-3.64h3.89l1.37,3.62-1.47.34v.66h8V416l-1.57-.33-.1-8.57,8.71,10h.58l.12-11.27,1.48-.33v-.66ZM538,411.14l1.65-4.21,1.58,4.21Z" transform="translate(3.97 -8.97)"/><path class="cls-18" d="M567.37,410.64v.66l1.37.34v3.82a4.64,4.64,0,0,1-2.75.89c-2.76,0-4.53-2.27-4.53-5.41s1.74-5.65,4.57-5.65a4.31,4.31,0,0,1,4.07,3.23l.39-.22v-3.74l-.35-.19-.74.91a7.82,7.82,0,0,0-3.37-.83,6.72,6.72,0,0,0-6.82,6.53,6.1,6.1,0,0,0,6.3,6.32,6.39,6.39,0,0,0,3.92-1.27l1.07.7h.35v-5.09l1.15-.43v-.55Z" transform="translate(3.97 -8.97)"/><text class="cls-19" transform="translate(15.23 412.61)">Fuente: Instituciones Penitenciarias y<tspan class="cls-20" x="231.9" y="0"> </tspan><tspan x="235.02" y="0">Acaip</tspan></text><text class="cls-19" transform="translate(15.26 376.63)">(*): <tspan class="cls-21" x="22.55" y="0">Los centros penitenciarios de Catalunya se encuentran bajo la </tspan><tspan class="cls-21"><tspan x="0" y="16.8" xml:space="preserve">      administración de la Generalitat.</tspan></tspan></text></svg>