<svg id="bbb10782-bdb9-496a-b52a-76094ac63e8c" data-name="Capa 1" xmlns="http://www.w3.org/2000/svg" viewBox="0 0 638 712"><defs><style>.\35 c278b41-fc5b-49fe-94b8-e75b079d7cb0{font-size:15px;}.\35 c278b41-fc5b-49fe-94b8-e75b079d7cb0,.d11cee2d-118a-4445-a1ba-47432d56baad{fill:#757575;}.\35 c278b41-fc5b-49fe-94b8-e75b079d7cb0,.\37 4d1ad6a-214f-4a99-9379-097ac696bf4e,.d11cee2d-118a-4445-a1ba-47432d56baad{font-family:ArialMT, Arial;}.\37 4d1ad6a-214f-4a99-9379-097ac696bf4e,.d11cee2d-118a-4445-a1ba-47432d56baad{font-size:14px;}.\37 4d1ad6a-214f-4a99-9379-097ac696bf4e,.ab91193d-2214-47c6-9567-159233427d84{fill:#323232;}.aaa498e2-b758-4d08-bd9c-1496e6731620{letter-spacing:-0.06em;}.\30 6dfa08e-d518-4e32-a838-c8ae6fc23eb0{letter-spacing:-0.13em;}.\39 222c27a-5a94-4f6c-b581-9e2aa93a1527{letter-spacing:-0.07em;}.f4884915-5e72-498a-a159-52f5eba67692{letter-spacing:-0.06em;}.cc3844aa-efe7-4ffa-bcf8-a069a9f97bfd{letter-spacing:-0.02em;}.\37 33aa0aa-f79e-432a-ae44-97ef530615c8{letter-spacing:-0.11em;}.\31 b20824e-88be-469e-9ad8-afb31c3ce991{fill:#a5a5a5;stroke:#a5a5a5;}.\30 1fb171e-ed28-4d0c-8794-51f1850c1f6f,.ff9c0313-20f4-47f0-bd81-928d2d439117{fill:#efc100;stroke:#ddd;stroke-opacity:0;}.ff9c0313-20f4-47f0-bd81-928d2d439117{opacity:0.3;}.ab91193d-2214-47c6-9567-159233427d84{font-size:21px;font-family:Arial-BoldMT, Arial;font-weight:700;}.\39 61586ca-7dc5-4b19-abe9-7011d611c054{letter-spacing:-0.04em;}</style></defs><title>ave</title><text class="5c278b41-fc5b-49fe-94b8-e75b079d7cb0" transform="translate(11 68.67)">MADRID - FIGUERES | 797 km </text><text class="74d1ad6a-214f-4a99-9379-097ac696bf4e" transform="translate(10 135.67)">Madrid</text><text class="74d1ad6a-214f-4a99-9379-097ac696bf4e" transform="translate(12 239.67)">Madrid</text><text class="74d1ad6a-214f-4a99-9379-097ac696bf4e" transform="translate(12.65 345.67)">Madrid</text><text class="5c278b41-fc5b-49fe-94b8-e75b079d7cb0" transform="translate(8 168.67)">MADRID - LISBO<tspan class="aaa498e2-b758-4d08-bd9c-1496e6731620" x="116.68" y="0">A</tspan><tspan x="125.86" y="0" xml:space="preserve"> | 644 km</tspan></text><text class="5c278b41-fc5b-49fe-94b8-e75b079d7cb0" transform="translate(5 500.67)"><tspan class="06dfa08e-d518-4e32-a838-c8ae6fc23eb0">P</tspan><tspan x="8.07" y="0">. </tspan><tspan class="9222c27a-5a94-4f6c-b581-9e2aa93a1527" x="16.41" y="0">V</tspan><tspan x="25.3" y="0">ASCO | 175 km</tspan></text><text class="5c278b41-fc5b-49fe-94b8-e75b079d7cb0" transform="translate(13 596.67)"><tspan class="9222c27a-5a94-4f6c-b581-9e2aa93a1527">A</tspan><tspan x="8.89" y="0">TLÁNTICO | 165 km</tspan></text><text class="5c278b41-fc5b-49fe-94b8-e75b079d7cb0" transform="translate(11 382.67)">MADRID - LEÓN | 345 km</text><text class="5c278b41-fc5b-49fe-94b8-e75b079d7cb0" transform="translate(375 540.67)">Millones de personas que viven a <tspan x="0" y="18">una hora en coche de cada estación *</tspan></text><text class="5c278b41-fc5b-49fe-94b8-e75b079d7cb0" transform="translate(11 687.67)">*Una misma persona puede contabilizar en más de una estación<tspan x="0" y="18">Fuente: European Court of</tspan><tspan class="f4884915-5e72-498a-a159-52f5eba67692" x="177.61" y="18"> </tspan><tspan x="180.95" y="18">Auditors</tspan></text><text class="5c278b41-fc5b-49fe-94b8-e75b079d7cb0" transform="translate(508 706.67)">L<tspan class="aaa498e2-b758-4d08-bd9c-1496e6731620" x="8.34" y="0">A</tspan><tspan x="17.52" y="0"> </tspan><tspan class="9222c27a-5a94-4f6c-b581-9e2aa93a1527" x="21.69" y="0">V</tspan><tspan x="30.58" y="0">ANGUARDI</tspan><tspan class="aaa498e2-b758-4d08-bd9c-1496e6731620" x="109.75" y="0">A</tspan></text><text class="5c278b41-fc5b-49fe-94b8-e75b079d7cb0" transform="translate(10 273.67)">MADRID - GALICI<tspan class="aaa498e2-b758-4d08-bd9c-1496e6731620" x="121.68" y="0">A</tspan><tspan x="130.85" y="0" xml:space="preserve"> | 549 km</tspan></text><text class="74d1ad6a-214f-4a99-9379-097ac696bf4e" transform="translate(432.33 133.67)">Barcelona</text><text class="74d1ad6a-214f-4a99-9379-097ac696bf4e" transform="translate(234.33 134.67)">Zaragoza</text><text class="74d1ad6a-214f-4a99-9379-097ac696bf4e" transform="translate(566.33 133.67)">Figueres</text><text class="74d1ad6a-214f-4a99-9379-097ac696bf4e" transform="translate(470.33 239.67)">Lisboa</text><text class="74d1ad6a-214f-4a99-9379-097ac696bf4e" transform="translate(401.7 345.67)">Santiago</text><text class="74d1ad6a-214f-4a99-9379-097ac696bf4e" transform="translate(198.01 345.67)">Zamora</text><text class="74d1ad6a-214f-4a99-9379-097ac696bf4e" transform="translate(268.01 454.67)">León</text><text class="d11cee2d-118a-4445-a1ba-47432d56baad" transform="translate(521.01 593.67)">6,5</text><text class="d11cee2d-118a-4445-a1ba-47432d56baad" transform="translate(494.01 609.67)">2,5</text><text class="d11cee2d-118a-4445-a1ba-47432d56baad" transform="translate(466.01 626.67)">0,5</text><text class="74d1ad6a-214f-4a99-9379-097ac696bf4e" transform="translate(174.01 505.67)">Bilbao</text><text class="74d1ad6a-214f-4a99-9379-097ac696bf4e" transform="translate(172.01 548.67)"><tspan class="cc3844aa-efe7-4ffa-bcf8-a069a9f97bfd">V</tspan><tspan x="9.08" y="0">itoria</tspan></text><text class="74d1ad6a-214f-4a99-9379-097ac696bf4e" transform="translate(12.01 557.67)">Irún</text><text class="74d1ad6a-214f-4a99-9379-097ac696bf4e" transform="translate(13.01 648.67)"><tspan class="cc3844aa-efe7-4ffa-bcf8-a069a9f97bfd">V</tspan><tspan x="9.08" y="0">igo</tspan></text><text class="74d1ad6a-214f-4a99-9379-097ac696bf4e" transform="translate(106.01 649.67)"><tspan class="aaa498e2-b758-4d08-bd9c-1496e6731620">A</tspan><tspan x="8.57" y="0" xml:space="preserve"> Coruña</tspan></text><text class="74d1ad6a-214f-4a99-9379-097ac696bf4e" transform="translate(13.35 457.32)">Madrid</text><text class="74d1ad6a-214f-4a99-9379-097ac696bf4e" transform="translate(75.35 458.32)">Segovia</text><text class="74d1ad6a-214f-4a99-9379-097ac696bf4e" transform="translate(327.36 345.67)">Ourense</text><text class="74d1ad6a-214f-4a99-9379-097ac696bf4e" transform="translate(76.38 345.67)">Segovia</text><text class="74d1ad6a-214f-4a99-9379-097ac696bf4e" transform="translate(340.33 239.67)">Badajoz</text><text class="74d1ad6a-214f-4a99-9379-097ac696bf4e" transform="translate(256.33 239.67)">Cáceres</text><text class="74d1ad6a-214f-4a99-9379-097ac696bf4e" transform="translate(80.33 239.67)"><tspan class="733aa0aa-f79e-432a-ae44-97ef530615c8">T</tspan><tspan x="7" y="0">oledo</tspan></text><line class="1b20824e-88be-469e-9ad8-afb31c3ce991" x1="12" y1="97.5" x2="609" y2="97.5"/><line class="1b20824e-88be-469e-9ad8-afb31c3ce991" x1="12" y1="201.5" x2="493" y2="201.5"/><line class="1b20824e-88be-469e-9ad8-afb31c3ce991" x1="23" y1="304.5" x2="425" y2="304.5"/><line class="1b20824e-88be-469e-9ad8-afb31c3ce991" x1="20" y1="413.5" x2="280" y2="413.5"/><line class="1b20824e-88be-469e-9ad8-afb31c3ce991" x1="520" y1="597.5" x2="582" y2="597.5"/><line class="1b20824e-88be-469e-9ad8-afb31c3ce991" x1="487.5" y1="613.5" x2="583" y2="613.5"/><line class="1b20824e-88be-469e-9ad8-afb31c3ce991" x1="462" y1="629.5" x2="577" y2="629.5"/><line class="1b20824e-88be-469e-9ad8-afb31c3ce991" x1="20" y1="616.5" x2="147.5" y2="616.5"/><line class="1b20824e-88be-469e-9ad8-afb31c3ce991" x1="123.33" y1="523.58" x2="16.83" y2="523.58"/><line class="1b20824e-88be-469e-9ad8-afb31c3ce991" x1="153.33" y1="545.58" x2="123.33" y2="523.58"/><line class="1b20824e-88be-469e-9ad8-afb31c3ce991" x1="152.33" y1="502.58" x2="123.33" y2="523.58"/><circle class="01fb171e-ed28-4d0c-8794-51f1850c1f6f" cx="467.35" cy="97.92" r="22.83"/><circle class="01fb171e-ed28-4d0c-8794-51f1850c1f6f" cx="209.72" cy="97.92" r="8.61"/><circle class="01fb171e-ed28-4d0c-8794-51f1850c1f6f" cx="385.41" cy="97.92" r="15.33"/><circle class="01fb171e-ed28-4d0c-8794-51f1850c1f6f" cx="610.19" cy="97.92" r="10.61"/><circle class="01fb171e-ed28-4d0c-8794-51f1850c1f6f" cx="571.58" cy="97.92" r="21.15"/><circle class="01fb171e-ed28-4d0c-8794-51f1850c1f6f" cx="89.83" cy="97.92" r="23.07"/><circle class="01fb171e-ed28-4d0c-8794-51f1850c1f6f" cx="337.39" cy="97.92" r="7.49"/><circle class="01fb171e-ed28-4d0c-8794-51f1850c1f6f" cx="35.62" cy="97.92" r="24.73"/><circle class="ff9c0313-20f4-47f0-bd81-928d2d439117" cx="578.62" cy="622.92" r="24.73"/><path class="01fb171e-ed28-4d0c-8794-51f1850c1f6f" d="M275.91,97.92a9.65,9.65,0,1,1-9.65-9.65,9.65,9.65,0,0,1,9.65,9.65"/><circle class="01fb171e-ed28-4d0c-8794-51f1850c1f6f" cx="494.17" cy="200.42" r="17.01"/><circle class="01fb171e-ed28-4d0c-8794-51f1850c1f6f" cx="33" cy="200.42" r="24.73"/><circle class="01fb171e-ed28-4d0c-8794-51f1850c1f6f" cx="153.36" cy="200.42" r="9.08"/><circle class="01fb171e-ed28-4d0c-8794-51f1850c1f6f" cx="100.41" cy="200.42" r="23.89"/><circle class="01fb171e-ed28-4d0c-8794-51f1850c1f6f" cx="276.71" cy="200.42" r="6.05"/><circle class="01fb171e-ed28-4d0c-8794-51f1850c1f6f" cx="196.55" cy="200.42" r="5.7"/><circle class="01fb171e-ed28-4d0c-8794-51f1850c1f6f" cx="235.64" cy="200.42" r="5.65"/><circle class="01fb171e-ed28-4d0c-8794-51f1850c1f6f" cx="412.5" cy="200.42" r="6.39"/><circle class="01fb171e-ed28-4d0c-8794-51f1850c1f6f" cx="365.42" cy="200.42" r="6.99"/><circle class="01fb171e-ed28-4d0c-8794-51f1850c1f6f" cx="320.82" cy="200.42" r="7.83"/><circle class="01fb171e-ed28-4d0c-8794-51f1850c1f6f" cx="305.84" cy="303.53" r="5.47"/><path class="01fb171e-ed28-4d0c-8794-51f1850c1f6f" d="M58.15,303.53a24.61,24.61,0,1,1-24.61-24.61,24.61,24.61,0,0,1,24.61,24.61"/><circle class="01fb171e-ed28-4d0c-8794-51f1850c1f6f" cx="163.04" cy="303.53" r="9.61"/><circle class="01fb171e-ed28-4d0c-8794-51f1850c1f6f" cx="284.14" cy="303.53" r="3.72"/><path class="01fb171e-ed28-4d0c-8794-51f1850c1f6f" d="M359,313.11a9.58,9.58,0,1,1,9.58-9.58,9.58,9.58,0,0,1-9.58,9.58"/><circle class="01fb171e-ed28-4d0c-8794-51f1850c1f6f" cx="425.35" cy="303.53" r="13.13"/><circle class="01fb171e-ed28-4d0c-8794-51f1850c1f6f" cx="98.91" cy="303.53" r="21.76"/><circle class="01fb171e-ed28-4d0c-8794-51f1850c1f6f" cx="217.74" cy="303.53" r="8.5"/><circle class="01fb171e-ed28-4d0c-8794-51f1850c1f6f" cx="279.63" cy="414.54" r="6.42"/><circle class="01fb171e-ed28-4d0c-8794-51f1850c1f6f" cx="33.66" cy="414.56" r="24.61"/><circle class="01fb171e-ed28-4d0c-8794-51f1850c1f6f" cx="194.7" cy="413.88" r="8.51"/><circle class="01fb171e-ed28-4d0c-8794-51f1850c1f6f" cx="96.78" cy="413.19" r="21.76"/><circle class="01fb171e-ed28-4d0c-8794-51f1850c1f6f" cx="170.96" cy="414.22" r="8.29"/><circle class="01fb171e-ed28-4d0c-8794-51f1850c1f6f" cx="55.94" cy="523.48" r="14.84"/><circle class="01fb171e-ed28-4d0c-8794-51f1850c1f6f" cx="151.43" cy="504.48" r="14.54"/><circle class="01fb171e-ed28-4d0c-8794-51f1850c1f6f" cx="122.25" cy="523.48" r="15.46"/><circle class="01fb171e-ed28-4d0c-8794-51f1850c1f6f" cx="90.16" cy="523.48" r="12.16"/><circle class="01fb171e-ed28-4d0c-8794-51f1850c1f6f" cx="23.29" cy="523.48" r="14.16"/><circle class="01fb171e-ed28-4d0c-8794-51f1850c1f6f" cx="151.05" cy="545.48" r="14.65"/><circle class="ff9c0313-20f4-47f0-bd81-928d2d439117" cx="577.88" cy="630.68" r="15.46"/><circle class="01fb171e-ed28-4d0c-8794-51f1850c1f6f" cx="90.98" cy="616.15" r="9.94"/><circle class="01fb171e-ed28-4d0c-8794-51f1850c1f6f" cx="61.61" cy="616.15" r="11.39"/><circle class="01fb171e-ed28-4d0c-8794-51f1850c1f6f" cx="144.2" cy="616.15" r="13.13"/><circle class="01fb171e-ed28-4d0c-8794-51f1850c1f6f" cx="22.55" cy="616.15" r="11.91"/><circle class="01fb171e-ed28-4d0c-8794-51f1850c1f6f" cx="116.78" cy="616.15" r="10.43"/><text class="ab91193d-2214-47c6-9567-159233427d84" transform="translate(15.9 17.04)">Población potencial a la que puede alcanzar cada una de las <tspan x="27.41" y="25.2">estaciones de las líneas de</tspan><tspan class="961586ca-7dc5-4b19-abe9-7011d611c054" x="297.04" y="25.2"> </tspan><tspan class="9222c27a-5a94-4f6c-b581-9e2aa93a1527" x="302.1" y="25.2">A</tspan><tspan x="315.71" y="25.2">VE financiadas por la U.E.</tspan></text><circle class="ff9c0313-20f4-47f0-bd81-928d2d439117" cx="576.39" cy="637.92" r="7.49"/></svg>