<svg xmlns="http://www.w3.org/2000/svg" viewBox="0 0 500 464"><defs><style>.\32 42ff1b3-497e-4f18-b6c2-789be5e22a34,.caff89c4-35f1-484f-a509-58d63e8ddb52{fill:#d57928;}.\32 42ff1b3-497e-4f18-b6c2-789be5e22a34,.\32 a77abad-8c1f-4c0d-8f3a-0bd8f209a26e,.\33 dce1cb1-8178-4930-830f-5b7e3f5d2214,.\35 9dcca13-3e9a-4a23-b52b-4fb6c17a8451,.\36 10f4b4e-9ad4-442a-8446-0ac6b835b1fe,.\36 6ec1c7d-ab5a-4f41-a55b-99b5cb222a52,.\36 c1cb3df-0680-4d16-ad2e-c8032ec47d2a,.\37 a23a27a-19b4-4a56-b715-e6bce1985309,.\38 b7ad98c-feea-4b8d-9eee-f03332dfd9df,.\39 229cbad-226b-4273-8db9-96d25411a603,.a3570dd7-9e4b-4c43-9f46-b6b3209eac82,.c7053e0e-a6be-4755-a2d5-675b81ae6477,.caff89c4-35f1-484f-a509-58d63e8ddb52,.d10a6836-d246-4f06-9ce5-2eeb8a5cbc4f,.e5ca6eca-c4f8-4e54-9e24-51d387fccec5,.f891628a-89e6-46ce-bec5-1009c6c90b92,.f8e5d294-d398-4909-9a2c-41d906a764df,.fbfe2f1f-4229-4ba1-8a40-0a91832b2d50{stroke:#fff;}.\32 42ff1b3-497e-4f18-b6c2-789be5e22a34,.\32 a77abad-8c1f-4c0d-8f3a-0bd8f209a26e,.\33 dce1cb1-8178-4930-830f-5b7e3f5d2214,.\35 9dcca13-3e9a-4a23-b52b-4fb6c17a8451,.\36 10f4b4e-9ad4-442a-8446-0ac6b835b1fe,.\36 6ec1c7d-ab5a-4f41-a55b-99b5cb222a52,.\36 c1cb3df-0680-4d16-ad2e-c8032ec47d2a,.\37 a23a27a-19b4-4a56-b715-e6bce1985309,.\39 229cbad-226b-4273-8db9-96d25411a603,.a3570dd7-9e4b-4c43-9f46-b6b3209eac82,.c7053e0e-a6be-4755-a2d5-675b81ae6477,.caff89c4-35f1-484f-a509-58d63e8ddb52,.d10a6836-d246-4f06-9ce5-2eeb8a5cbc4f,.db977f50-1966-4544-8cc5-04ddf3808a8f,.e5ca6eca-c4f8-4e54-9e24-51d387fccec5,.f891628a-89e6-46ce-bec5-1009c6c90b92,.f8e5d294-d398-4909-9a2c-41d906a764df,.fbfe2f1f-4229-4ba1-8a40-0a91832b2d50{stroke-miterlimit:10;}.\32 42ff1b3-497e-4f18-b6c2-789be5e22a34,.\32 a77abad-8c1f-4c0d-8f3a-0bd8f209a26e,.\36 10f4b4e-9ad4-442a-8446-0ac6b835b1fe,.\38 b7ad98c-feea-4b8d-9eee-f03332dfd9df,.\39 229cbad-226b-4273-8db9-96d25411a603,.a3570dd7-9e4b-4c43-9f46-b6b3209eac82{stroke-width:0.5px;}.\36 10f4b4e-9ad4-442a-8446-0ac6b835b1fe,.f891628a-89e6-46ce-bec5-1009c6c90b92{fill:#f49e20;}.\35 9dcca13-3e9a-4a23-b52b-4fb6c17a8451,.a3570dd7-9e4b-4c43-9f46-b6b3209eac82{fill:#fecb41;}.\38 b7ad98c-feea-4b8d-9eee-f03332dfd9df,.db977f50-1966-4544-8cc5-04ddf3808a8f{fill:none;}.\38 b7ad98c-feea-4b8d-9eee-f03332dfd9df{stroke-linecap:round;stroke-linejoin:round;}.\37 a23a27a-19b4-4a56-b715-e6bce1985309,.\39 229cbad-226b-4273-8db9-96d25411a603{fill:#159094;}.\32 a77abad-8c1f-4c0d-8f3a-0bd8f209a26e,.\33 dce1cb1-8178-4930-830f-5b7e3f5d2214{fill:#136361;}.\35 a505afd-fbe6-4909-b65a-fd490786304c,.\36 85757cb-dd63-4c22-9a70-f3715a4a575b,.f4672a9a-06a6-463f-89a4-6cc37a0a409c{font-size:12px;}.\36 85757cb-dd63-4c22-9a70-f3715a4a575b{fill:#fff;}.\32 7e23951-0fe9-4098-bc56-9ff736d7753d,.\35 a505afd-fbe6-4909-b65a-fd490786304c,.\36 85757cb-dd63-4c22-9a70-f3715a4a575b,.d902c24f-4631-485d-abaa-5f968dae9806,.f4672a9a-06a6-463f-89a4-6cc37a0a409c{font-family:ArialMT, Arial;}.\32 7e23951-0fe9-4098-bc56-9ff736d7753d{font-size:11px;}.\32 7e23951-0fe9-4098-bc56-9ff736d7753d,.\33 c2d3a43-073b-4ed3-8ba4-9ed469fe8251,.\35 a505afd-fbe6-4909-b65a-fd490786304c,.d902c24f-4631-485d-abaa-5f968dae9806,.d9d77a31-0d67-4805-9fa2-3ea8638c7aae{fill:#757575;}.bce7d3d6-78b3-49c4-98d6-11b8b0cd7de7{letter-spacing:-0.07em;}.\33 f1c1a89-2eff-410e-a21d-74d861f5232c{letter-spacing:-0.04em;}.db977f50-1966-4544-8cc5-04ddf3808a8f{stroke:#757575;}.\30 9b44a38-dc85-4272-a7e1-cded16694b64{font-size:21px;font-family:Arial-BoldMT, Arial;font-weight:700;}.\30 9b44a38-dc85-4272-a7e1-cded16694b64,.f4672a9a-06a6-463f-89a4-6cc37a0a409c{fill:#323232;}.a824a131-d531-4083-b944-b639539c19e8,.d9d77a31-0d67-4805-9fa2-3ea8638c7aae{letter-spacing:-0.06em;}.bf49878e-cd90-42d1-8d3e-aab193182d5a{letter-spacing:-0.02em;}.d10a6836-d246-4f06-9ce5-2eeb8a5cbc4f{fill:#af5b1c;}.c7053e0e-a6be-4755-a2d5-675b81ae6477{fill:#f9f077;}.\36 6ec1c7d-ab5a-4f41-a55b-99b5cb222a52{fill:#fff7c0;}.d902c24f-4631-485d-abaa-5f968dae9806{font-size:10px;}.\31 6dd6c4a-4e4a-46bd-95f9-5a6553bf8841{font-size:7px;}.\36 c1cb3df-0680-4d16-ad2e-c8032ec47d2a{fill:#15acb1;}.f8e5d294-d398-4909-9a2c-41d906a764df{fill:#89d2d8;}.e5ca6eca-c4f8-4e54-9e24-51d387fccec5{fill:#c9f3f4;}.fbfe2f1f-4229-4ba1-8a40-0a91832b2d50{fill:#e3ffff;}</style></defs><title>BARCELONA</title><g id="2a0af1ad-b433-4769-8c33-e5a2e6295cad" data-name="Capa 1"><g id="4d0b685c-d894-4f7a-8007-b55d82538308" data-name="layer19"><g id="6feac591-0fe4-4cb9-9245-24293ab9f4ef" data-name="g4239"><path id="431ae546-bd15-4028-b969-88b6f2db6c6e" data-name="path4284" class="242ff1b3-497e-4f18-b6c2-789be5e22a34" d="M43.28,141.45c-.18-.32.09-.67.13-1,.11-.66.61-.38,1.1-.27a1.08,1.08,0,0,0,1.25-1.42,10.12,10.12,0,0,1-.9-1.87,2.9,2.9,0,0,0,0-.9c0-.29-.24-.48-.42-.67.07-.36.44-.67.22-1a3.48,3.48,0,0,0-.86-.12c-.74.09-.24-1-.78-1.37-.56-.62,0-1.51.11-2.21.16-.28.26-.62-.06-.82a8.7,8.7,0,0,1-1.5-1.53,3.78,3.78,0,0,1-.49-1.14.91.91,0,0,1,.71-.15,4.28,4.28,0,0,0,2.37.64c.29-.1.61.19.86,0a6.79,6.79,0,0,0,1.86-.32c.84.07.7-.78.94-1.31a2.2,2.2,0,0,0,.17-.76c.19-.06.65,0,.62-.25-.54-.22-1.18-.19-1.72-.46a10.89,10.89,0,0,0-2.66-1.25,4.82,4.82,0,0,0-1.53-.06c-.35-.09-.7-.31-1.06-.12-.71.29-1.42-.21-2.06-.44s-.77-.4-.52-.92.07-.9.44-1.18a5.59,5.59,0,0,1,.22-.8,10.75,10.75,0,0,0,.41-1.11c.85-.32,1.66-.75,2.53-1,.67-.16,1.35-.29,2-.44a9.81,9.81,0,0,1-1-1.44c-.39-.56-1.12-.79-1.5-1.36a2.83,2.83,0,0,0-1-.85c-.83-.72-.62-2-1.19-2.83a6.92,6.92,0,0,1-.75-2.35,14.75,14.75,0,0,1-.13-1.78,3,3,0,0,1,.46-1.34c.34-.53.64-1.1,1-1.6a9,9,0,0,1,1.84-1c.39-.25,0,.33-.06.52l-1,2.32c.11.29.25.53.6.41a8.9,8.9,0,0,0,1.92-.35c.36.25.27.72.36,1.09a3.66,3.66,0,0,1,.1,1,4.62,4.62,0,0,0-.57,1.57c.14.4.36.9.86.9a2.34,2.34,0,0,1,1.29.33c.34.26.51.7.83,1a2.08,2.08,0,0,0,1.32.7,12.59,12.59,0,0,1,1.61.48c.41.37.2,1,0,1.43-.05.44.47.63.8.76s.59-.09.45-.43,0-.75.37-.84a1,1,0,0,1,1.36-.64.56.56,0,0,1,.16.89c-.29.29-.2.75-.12,1.1.51.38,1.6-.48,1.82.42-.15.32-.67.46-.6.87s.71.69,1,1a7.76,7.76,0,0,1,1,1,.39.39,0,0,0,.48.44,2.56,2.56,0,0,1,1.36.37c.25.08.53.16.56.46s.31.72.7.81a3.47,3.47,0,0,0,.89-.75,9.14,9.14,0,0,0,.56-.73c.62.15,1,1.33,1.61,1,.43-.17.43-.65.85-.72.25.13.34-.34.65-.33s.62,0,.77-.22.2-.82.61-1a5.89,5.89,0,0,0,.49-.66,7.88,7.88,0,0,0,.92-.76,18,18,0,0,0,1.17-1.69c.32-.29.55-.65,1-.62.31,0,.47-.23.79-.16a3.42,3.42,0,0,1,1,.21c.19.35.33.79.73,1s.44.53.79.62a7.47,7.47,0,0,1,1.1.84c.21.23,0,.48-.07.72s-.35.62-.19,1,.18.67.21,1c.55-.11,1.15.33,1.65.63.27.17.68.25.83.55.13.53.54.92.7,1.44.08.27.12.53.4.65.13.24.42.18.61.36s.28.6.57.57a3.42,3.42,0,0,0,1-.4c.6-.11,1.21-.28,1.81-.35.29,0,.45.19.74.27A6.71,6.71,0,0,0,84,123a9.8,9.8,0,0,1,1.67.42c.64.26,1.28.56,1.93.8a3.23,3.23,0,0,0,1,0c.14-.27.55-.44.76-.15s.37.51.67.33c.72-.18,1.17.79,1.83,1s.82.68.88,1.22A1.7,1.7,0,0,0,93.5,128c.23.2.48.33.69.54a1.47,1.47,0,0,0,1,.32,6.75,6.75,0,0,1,1.62.94c.39.27.77.62,1.28.56a4,4,0,0,0,1.13,0c.26-.17.41.24.32.46-.36.71-.87,1.35-1.29,2s-.2,1.4-.37,2.08c-.31.4.06.88.07,1.32,0,.63.58,1,.7,1.63.1.28.07.7-.3.74s.05.28.19.45.46.34.69.49c1,.79,2,1.62,3.08,2.38s1.87,1.48,2.8,2.21l1.68,1.38c.34.12,0-.32-.09-.5-.17-.45-.7-.65-.82-1.11,0-.28.48-.33.44-.66a1.25,1.25,0,0,0-.69-.83c-.18-.23.13-.56.4-.57s.47-.36.73-.12c.28.08.49-.45.75-.21.09.26.14.59.45.7.32.49.66-.13,1-.08.12.35-.24.71-.14,1.08a2.69,2.69,0,0,0,.35,1.21,6.73,6.73,0,0,0,1,.3,10,10,0,0,1,1.17-.39,13.83,13.83,0,0,1,1.44,1c.4.33.91.55,1.14,1,.68,1,1.25,2,1.87,3a6.33,6.33,0,0,0-.4,1c.38.6.71,1.24,1.11,1.81a1.78,1.78,0,0,1,.8.7c.87,1.21,1.75,2.41,2.6,3.63.28.33.5.8,1,.84,1.43.49,2.93.79,4.37,1.24.59.16.72.84.93,1.33a5.32,5.32,0,0,0,.41,1.57,15.88,15.88,0,0,0,2.39,4.71c-.37.14-.31.37-.39.57,0,0,.28.4.42.37.31.37.12,0,.18-.14.27-.3.4.15.54.34.27.47.8.91.62,1.5-.37.57-.06,1.25,0,1.87a1.09,1.09,0,0,1-.23,1.12,3.13,3.13,0,0,0-.58,1.17c.21.83.59,1.61.87,2.42a1.86,1.86,0,0,1,.24,1.28c0,.44-.36.92,0,1.31,1.14,2.31,2.52,4.49,3.65,6.8a7.65,7.65,0,0,1,.54,1.88c-4.69.81-9.37,1.65-14.06,2.48a.55.55,0,0,1-.3.71c-.3,0-.6,0-.75-.29s-.53,0-.79,0l-6.78,1.08c-1.42-.67-2.91-1.13-4.37-1.69-1.8-.63-3.58-1.33-5.39-1.92a1.83,1.83,0,0,0-1.37,0c-2.59.51-5.2.93-7.8,1.42a13.89,13.89,0,0,0-3,.86,3.49,3.49,0,0,0-1.22-2.49c-.74-.65-1.89-.76-2.45-1.62a3.54,3.54,0,0,0,1-4.84c-.71-.86-2-.94-2.68-1.81-.87-.83-1.72-1.69-2.55-2.55a3,3,0,0,0-1.08.75,5,5,0,0,1-1.79,1.08c-.41,0-1,.21-1.23-.26a1.22,1.22,0,0,1-.36-.82,2.48,2.48,0,0,0-.33-1.08c.12-.29-.1-.52-.27-.72s0-.61-.17-1,.08-.53-.08-.79-.5-.37-.48-.71c-.23-.32-.32-.78-.73-.92a.71.71,0,0,1-.29-.61,2,2,0,0,0-.43-.62,1.44,1.44,0,0,0-.78-.55.91.91,0,0,0-.57-.45c-.13-.19-.22-.45-.53-.45-.82-.2-1.41-.94-2.24-1.09-.68.11-.21-.33-.11-.66.23-.54.23-1.19.66-1.63a3,3,0,0,0,.74-2.45,2.15,2.15,0,0,0-.28-.93,7.8,7.8,0,0,0-1.26-.79c-.28-.07-.52-.23-.53-.55a17.93,17.93,0,0,1,.1-1.82c0-.38-.36-.66-.23-1.06a1.43,1.43,0,0,0-.1-1,6.36,6.36,0,0,1-.51-1.57c-1.34-.35-2.21-1.79-3.66-1.79-.62.11-.7.85-1.16,1.18a2.81,2.81,0,0,1-.82.47,2.22,2.22,0,0,1-1.31,0c-1.45-.46-2.84-1.4-4.43-1.2-1.64-.69-3.52-1-4.87-2.26-.41-.61-.88-1.33-1.72-1.32a1.4,1.4,0,0,0-1,.15,14.9,14.9,0,0,0-1.62,1.2,11.76,11.76,0,0,0-2.16,1.94c.2.33-.26.38-.46.53-.55.28-1.14.49-1.71.74-.13.39-.63.36-.82.68a4.8,4.8,0,0,1-.25,1.64c-.28.74-1,1.09-1.58,1.63a2.42,2.42,0,0,1-1.31.82.77.77,0,0,1-.93.31c-1-.52-2.28-1.2-3.43-.6-.37.34-.39-.37-.65-.55a6.17,6.17,0,0,0-.8-.92,5.61,5.61,0,0,1-1,.11l-.84-.68a16.17,16.17,0,0,0-2.56-4.49l-.08-1a.86.86,0,0,1,.79-.23c.58-.08,1.18,0,1.76,0a1.41,1.41,0,0,0,.75-.75c-.22-1-.57-2.07,0-3,.3-.65.68-1.22,1.42-.78.93.38,1.54-.51,2.28-.88s1.81-.79,2.54-.09c.29.27.41.79.57.17,0-.68,1.55-.67,1-1.19l-.85-.86,2.71-2.74Zm-3.56-3.67A16,16,0,0,1,38,139.25l-2.91,3.41-2.14.57c.16-.36.44-.68.37-1.09a8.69,8.69,0,0,0-.11-1.86c.07-.53.55-.84.85-1.25a1.28,1.28,0,0,1,.74-.57c.68-.29,1.4-.54,2.06-.86a8.17,8.17,0,0,0,1.43-1.69c.16-.39.31.26.47.39l1,1.49Zm-5.09-5.89c-1.23.21-2.47.36-3.69.62-.35.09-.65.34-1,.24-.8-.11-1.61-.31-2.41-.39l-1,.32.56,2.2a25.42,25.42,0,0,1-1.11,3l-.43,1c-2.34.56-4.68,1.06-7,1.57.6.56,1.33,1.14,1.4,2,.35.29,0,.4-.27.53l-2.78,1.49-3.23-7.24a7.39,7.39,0,0,0,1.88-1.82c.5-.6,1.05-1.16,1.52-1.8.28-1.08.58-2.16.92-3.22,0-.4-.28-.75-.22-1.17a3.36,3.36,0,0,1-.17-1.3,2.81,2.81,0,0,0-.1-1.19c-.12-.48.33-.85.24-1.33a2.72,2.72,0,0,0-1.1-1.74c-.35-.22-1-.37-1-.92.05-.34-.6.08-.67-.19A3.59,3.59,0,0,0,14.2,121a.67.67,0,0,1-.57-.44c-.23-.28-.18-.49.16-.63a2.31,2.31,0,0,1,1.57-.65,23.38,23.38,0,0,0,3.7-.94,4.93,4.93,0,0,0,1.63-.95c.27-.5.14-1.11.34-1.64.15-.87.77-1.56.94-2.42.22-1.63.19-3.29.29-4.93s.11-3.21.22-4.82l.42-2.38c1,.11,2.07.29,3.12.33.17.23-.17.48-.14.74a10,10,0,0,0-.41,2.1c.1.34,0,.73.19,1,.33.2.76,0,1.12,0l1.93-.46c0,1.12.15,2.26.16,3.37-.27.36.31.23.52.32a14.16,14.16,0,0,1,2.21.33l3.91,1c-.56,1.4-1.09,2.81-1.68,4.19a1,1,0,0,1-.25.87,7.34,7.34,0,0,1-1,1.49c-.77.69-.3,1.67-.29,2.54,0,.35.53.35.78.54l2.24,1,1.26,4.89-2,6.32Z"/><path id="0c3de2fd-9390-405a-b846-6dc360faea91" data-name="path709" class="610f4b4e-9ad4-442a-8446-0ac6b835b1fe" d="M63.84,176.71a1.71,1.71,0,0,0-.43.4,2.32,2.32,0,0,1-.73,1.14c-.07.11-.19.2-.25.3a7.14,7.14,0,0,0,0,1c0,.3.39.34.61.48a1.82,1.82,0,0,1,.8.84,5.44,5.44,0,0,0,.5,1.06.83.83,0,0,1,.14.44,6.28,6.28,0,0,0-.17,1.07,3.53,3.53,0,0,0,0,.72,1.15,1.15,0,0,0-.15.57c0,.33,0,.66,0,1a12.61,12.61,0,0,0,.12,2.84,1.49,1.49,0,0,0,.45.52c.17.17.46.13.59.35a2.38,2.38,0,0,0,.75.79c-.49.2-1.11.07-1.51.48.51.53.78,1.24,1.26,1.78a.32.32,0,0,1,.15.31c0,.13.12.26.24.31s.09.23.17.31.15.19.06.34c.1.1.18.16.17.3s.24.12.29.23.21.3.26.48-.08.32-.15.46a.52.52,0,0,1-.3.28,7,7,0,0,1-1,.89.65.65,0,0,1-.46.11l-.7-.06c-.21.84-.45,1.67-.64,2.51a2.53,2.53,0,0,0,.14,1.1,1.64,1.64,0,0,0,.25.7,5.56,5.56,0,0,0,.77.87c.57.61,1.13,1.24,1.71,1.84.2.16.35.43.63.43s.71.09,1.06.13c.28.21.17.66.49.85s.3.37.55.4a2.32,2.32,0,0,1,.83.39,3.52,3.52,0,0,1,1,.86c0,.15,0,.36.18.44s.27,0,.35.12a11.35,11.35,0,0,1,.44,1.21.73.73,0,0,1,.06.48c0,.56-.14,1.11-.23,1.66,3.56.53,7.08,1.31,10.63,1.86,1.72-1,3.41-2,5.18-2.93a5.93,5.93,0,0,1-.17,2.8,3,3,0,0,0-.06,1l1.21.26c2.13-1.3,4.27-2.59,6.49-3.75a34.34,34.34,0,0,1,5.93-2.79,55.19,55.19,0,0,0,8.62-2.4,17.65,17.65,0,0,0,1.72-.82,11.83,11.83,0,0,0,1.33-.76c.81-.55,1.65-1.07,2.43-1.67A4.63,4.63,0,0,1,116,201a47.2,47.2,0,0,1,1.8-6.12,24.05,24.05,0,0,1,2.11-5l-.39-.44c-1,.18-2,.33-3,.49l-4.42.7a15.41,15.41,0,0,0-1.56-.65c-2.57-1-5.15-1.88-7.72-2.81l-1-.32c-2.86.58-5.74,1-8.6,1.58a4.92,4.92,0,0,0-1.76.43,12,12,0,0,1-1.27.43,3.85,3.85,0,0,0-.86-2.16,7.63,7.63,0,0,0-2.16-1.33c-.25-.17-.91-.55-.44-.79a3.66,3.66,0,0,0,1.2-3.95,2.43,2.43,0,0,0-1.35-1.43,5.15,5.15,0,0,1-1.6-1c-.76-.74-1.52-1.47-2.25-2.24l-.43-.44a2.89,2.89,0,0,0-.83.51,4.91,4.91,0,0,1-.93.78c-.34.21-.71.35-1.06.53a2.3,2.3,0,0,1-1,0c-.17,0-.22-.24-.34-.36s-.26-.28-.25-.48-.08-.6-.16-.89a3.73,3.73,0,0,1-.2-.45.5.5,0,0,0-.17-.56.73.73,0,0,1-.19-.45c.16-.19-.12-.55-.1-.81s-.12-.34,0-.42a.68.68,0,0,0-.24-.4c-.11-.13-.3-.21-.3-.41a2.23,2.23,0,0,0-.33-.69c-.07-.12-.12-.27-.27-.3a.76.76,0,0,1-.42-.5.7.7,0,0,0-.1-.34.32.32,0,0,0-.18-.27c-.1-.13-.24-.21-.3-.37s-.18-.16-.28-.22a.58.58,0,0,0-.35-.16c-.14-.14-.25-.36-.49-.44s-.23-.19-.31-.36a6.59,6.59,0,0,1-.86-.33,11.77,11.77,0,0,0-1.61-.88c-.33.05-.78-.17-1-.1-.05.25,0,.52-.08.76s-.47.73-.68,1.11a2.42,2.42,0,0,1-.12.59c-.11.22-.35.29-.53.42a1.07,1.07,0,0,1-.62.4,4.54,4.54,0,0,0-1.12.52c-.12.32-.14.67-.24,1s-.38.66-.6,1a3,3,0,0,1-.38.84,1.71,1.71,0,0,1-.42.53,1.94,1.94,0,0,0-.52.48,6.6,6.6,0,0,0-.41.59,3,3,0,0,1-.09.59l-.37.29Z"/><path id="155495f1-0c84-4e90-8670-bc96a7199943" data-name="path697" class="610f4b4e-9ad4-442a-8446-0ac6b835b1fe" d="M114.53,208.56c1,1.81,2.49,3.41,3.61,5.14,1.69,2,2.83,4.61,5.13,6,4.24.7,8.51,1.2,12.73,1.94,3,.43,5.93.8,8.86,1.36l-.23-.37-.19-.35-1-1.29-.48-.68c-1-1.52-2.08-2.89-3.12-4.41.92-3.62,1.88-7.22,2.82-10.84l1.13-.7,6.35,1.71c1.62-1.44,3.29-3.88,5.09-5.18l3,.52,2.17-1.62,1.51-.5,1.82-.59.53-.44,1.66-1.23,1.09,1.5,1.65-1.17,4.52-3.25.3-1.47.24-1.9.17-.41,1.21-8.17.12-.77-.33,0-.7-.38,0,0-.32-.21,0,0-.59.44-2-.48.22-.66,2.26-.38.15-.18.19-.54.19-.26.35-.35c-2.45-3.4-5-6.77-7.43-10.18-1.31-1.53-2.41-3.43-3.71-5q-4.87,3.54-9.69,7.14L155,172l1.15,1.62,1.21,1.67-1.63,1.2-1.59,1.16-1.58,1.17-1.75,1.27-1.19-1.64c-3.33,2.43-6.7,5.07-10.07,7.42q-9.41,1.63-18.81,3.31l0,.45-.32.26H120a36.77,36.77,0,0,0-2.7,6.63,116.63,116.63,0,0,0-2.73,12.07Z"/><path id="41e6db13-01f5-4596-9434-69c3f7ca5eea" data-name="path25" class="610f4b4e-9ad4-442a-8446-0ac6b835b1fe" d="M155.29,200.94l3,.52c.73-.54,1.45-1.11,2.2-1.63l3.3-1.09c.69-.6,1.46-1.11,2.18-1.66,1.13,1.57,2.29,3.13,3.44,4.68q1.61-1.17,3.23-2.32,3.47,4.91,7.05,9.73c1-.76,2.12-1.49,3.17-2.25a2.85,2.85,0,0,0,.1.62c.25.15.58.2.72.48,1.13,1.48,2.22,3,3.32,4.47l-.86.4-.78-1c-.52.26-1.06.49-1.57.77-.43.46-.91.89-1.31,1.37-1.54,2.22-3.07,4.44-4.58,6.68-.16-.07-.37-.35-.45-.05-.62.92-1.14,1.9-1.73,2.83a19.16,19.16,0,0,0-1.31,2.09c-.78,1.63-1.59,3.25-2.4,4.87-.54,1.46-1.1,2.9-1.62,4.36,0,.19-.13.43-.08.58l2.14.84.53-.75.64,0-11.4,19.05,7.06-13.89-1.4-1.1-1.43,2.66c-.62.41-1.24.85-1.87,1.25-.57.16-1.16.26-1.72.47s-.85.34-1.24.55l-8.81,12.74a3.82,3.82,0,0,1-.64,1.07c-.87,1.25-1.75,2.5-2.61,3.75-.17.34-.3.7-.45,1.05a17.65,17.65,0,0,0-1,1.5c-.16.4-.23.83-.39,1.24-1.64,5-3.32,10.06-4.94,15.1-.78,2.55-1.62,5.08-2.47,7.61l-.45,1.35c-.13-.1-.51-.09-.44-.28l.88-2.58-1.53-2.33c-.17,0-.4-.24-.18-.36l.71-1.94c.29,0,.27.16.15.37l-.22.62.61.19c-.09.21-.16.41.14.42s.06-.47.32-.27l1,.3c.22-.87.5-1.73.77-2.59l-1.7-1.09,2.13-6.26-.84-.44L144,267c-.14-.12-.39-.21-.46-.35l.25-.67c.18,0,.46.12.56-.08,1.28-1.9,2.59-3.79,3.86-5.7.08-.12.09-.47.21-.45.19.21.32.12.43-.11,3.88-5.65,7.75-11.3,11.65-16.93l3.83-.45c.67-.77,1.37-1.53,2-2.32l.71-2.22c-.16,0-.47-.27-.46,0-.18,0,0-.37.12-.28,0-.17.33.09.43,0l.82-2.8-1.09-.33-.62,2c-.25-.18-.27.07-.32.27s-.18.4-.1.54.5.09.42.29c0,.35-.37-.12-.4.13s0,.5-.3.34c-.31,0-.13-.24-.09-.42l.85-2.85c-.16,0-.46-.25-.51,0l-.9,3.14c-.31,0-.14-.24-.09-.43s-.06-.29-.27-.35-.49-.06-.31-.31l.86-2.84c-.14-.09-.49-.06-.5-.22l.21-.72,3.07.91.21-.7-1.09-.3c0-.18.23-.46-.08-.43l-.61-.14.44-1.57,1.81.5c.33-1.11.63-2.22,1-3.32.11-.17.31-.37,0-.41s-.23.26-.35.37l-.42.73c-.19-.1.13-.32.16-.47l.35-.59-.94-.57-1,.33-.88,3.17a7.09,7.09,0,0,1-.83-.23,10.37,10.37,0,0,0-.82-.72c.11-.24.29.12.43.18s.36.44.39.13.24-.43,0-.51l-.55-.38c.1-.29.29,0,.44.11s.35.34.36,0,.16-.4-.11-.48l-.51-.33c.08-.24.32.1.48.13s.36.23.35-.08.06-.37-.19-.43-.41-.15-.48-.28.33.09.48.1.37.2.38-.11.08-.37-.18-.41-.48-.11-.49-.27.33.09.48.09.4.2.39-.12.17-.43-.14-.4c-.15-.08-.53,0-.45-.23.14,0,.39.06.58.08s.52-.12.78-.17l1.45-.48c-.11-.19.13-.39,0-.55s-.32-.33,0-.22.21-.25.31-.4l.45-1.27-1.51.22c0-.22.33-.11.47-.18l1.08-.17c.07-.24.24-.46.14-.71s0-.49-.16-.52l-2.07.32c-.12-.25.27-.14.41-.21l1.72-.28-.14-1-2.26.35c-.12-.25.27-.14.42-.21l1.81-.28-.09-.83-2.31.34c-.15-.26.25-.16.4-.22l1.88-.29c0-.17,0-.45-.1-.56l-2.36.33c-.11-.22.31-.12.44-.19l1.91-.29c.06-.23-.26-.25-.19-.49s-.37,0-.52,0l-1.56.21c-.08-.24.31-.12.46-.19l1.57-.22a3.84,3.84,0,0,0-.54-.4l-1.71.22c-.13-.27.24-.16.39-.22l1.15-.14a3.44,3.44,0,0,0-.51-.42l-1,.15c-.18-.26.2-.18.36-.23s.55,0,.49-.12-.32-.32-.54-.24a9.7,9.7,0,0,0-1.19.12l.88,6.48-3,3.64c-.23.06-.38-.08-.53-.23l-1.13-1a6.22,6.22,0,0,1,0-.83l2.67-3.28c-.14-1-.28-1.93-.39-2.9,0-.2,0-.42-.22-.52s-.25.29-.38.4c-1.45,1.78-2.88,3.57-4.34,5.34-.67.79-1.35,1.58-2,2.36.13.13.46.23.21.41s.21.27.3.41l4.55,3.77c.12-.19.25-.33.43-.11s.11.35.16.53-.11.33-.23.49l-1.25,1.48a3.69,3.69,0,0,1-.66,0c-.16-.12-.39-.24-.13-.4s-.17-.27-.26-.4c-1.62-1.34-3.2-2.72-4.84-4-.08-.18-.06-.35-.29-.46l-1.15-1,1.2-1.43c-.5-.24-1-.54-1.5-.75-2.1-.52-4.2-1.07-6.31-1.56a21.23,21.23,0,0,1-2.42-.29c-.24,0-.32-.18-.42-.35a19.21,19.21,0,0,0-1.3-1.87c-1-1.52-2.13-3-3.19-4.51-.51-.42-.09-1,0-1.52.84-3.25,1.7-6.49,2.53-9.74l1.13-.7,6.35,1.71c1.8-1.63,3.13-3.73,5.09-5.18Z"/><path id="583b8084-ecdc-4d3a-b1d5-d40875e7dd91" data-name="path4299" class="a3570dd7-9e4b-4c43-9f46-b6b3209eac82" d="M106.81,145.13c.1.1.27.5,0,.31-.11,0-.28-.21-.42-.29-1.23-1-2.45-2-3.7-3a11.08,11.08,0,0,1-.94-.66l-3.2-2.5c-.12,0-.29-.23-.43-.31.05-.1.36-.1.47-.23s.05-.59,0-.87a7.13,7.13,0,0,0-.48-.86,14.59,14.59,0,0,1-.34-1.51c0-.22.22-.38.18-.61a3.71,3.71,0,0,1,.24-1.7c.44-.69.91-1.35,1.34-2.05a.52.52,0,0,0-.14-.6,10.06,10.06,0,0,0,.94-.82c.26-.17.29-.49.47-.73s.27-.52.56-.61c0-.28.35-.43.38-.72s.34-.33.29-.57c.22-.28.32-.64.53-.94a4.26,4.26,0,0,0,.73-.32,3.25,3.25,0,0,0,.46-.63l3.9-3.21c-.17-.14-.24-.29,0-.44.43-.5.93-.94,1.35-1.45.41-.36.86-.69,1.25-1.06.13-.27.06-.58.2-.85a11.24,11.24,0,0,1,.67-1.19c.18-.24.17-.59.44-.78s.17-.37.32-.51.15-.29,0-.48a4.23,4.23,0,0,1-.2-1.2c0-.4.37-.66.49-1a15.33,15.33,0,0,0,.67-1.58,4,4,0,0,0,.19-1.69,4.42,4.42,0,0,1,.25-1.5,1.42,1.42,0,0,0,.78-1.51c-.11-.35-.37-.75-.16-1.11a1.57,1.57,0,0,1,.38-.67c.14-.17.3-.33.28-.56s.27-.57.51-.81.4-.9.82-1a1.82,1.82,0,0,0,.74-.08,2.35,2.35,0,0,1,.85-.1,1.63,1.63,0,0,0,.77-.51c.2-.22.52-.37.53-.7a4.46,4.46,0,0,0,.13-.88c.49-.16,1-.3,1.27-.82a1.38,1.38,0,0,0,.33-.48c.14-.22.32-.39.46-.6a5.59,5.59,0,0,1,.46-.61c.24-.18.07-.53.28-.72a8.43,8.43,0,0,1,1.49.62.64.64,0,0,0,.53-.15,1.82,1.82,0,0,0,.49-.38,5.28,5.28,0,0,0,.69.29l.46-.36a19.12,19.12,0,0,0,3.71,1.07c.45.09.63.53.84.88.11.19.32.14.51.14a4.41,4.41,0,0,0,1.17-.34,3.14,3.14,0,0,0,1.19-.16c.37.15.72.6,1.2.58s.87.37,1.34,0a2.36,2.36,0,0,1,1.64.24c.23.28.37.67.72.83a1,1,0,0,0,.53.31c.2,0,.36.19.54.27s.41-.11.58-.2a1.41,1.41,0,0,1,1.22-.36,10.65,10.65,0,0,0,1.77.21c.26,0,.45.2.7.22a1.65,1.65,0,0,0,1.07-.37c.27-.19.38-.53.58-.78a2.52,2.52,0,0,0,.48-.92,1.81,1.81,0,0,1,1.74-.95,1.78,1.78,0,0,0,.81-.26,3.06,3.06,0,0,1,.93-.32,1.62,1.62,0,0,1,1,.28c.23.15.45.34.67.48.5,0,.9-.3,1.34-.48l1.08-.53c.16.12.53.86.27,1.24-.14.18,0,.44-.26.56a22.91,22.91,0,0,1-1.61,2,3.9,3.9,0,0,1-1,.76,1.16,1.16,0,0,1-.58,0c-.23.05-.1.34,0,.42a.72.72,0,0,1,.33.49c0,.5-.33.89-.52,1.32s-.49.23-.75.28a3.05,3.05,0,0,1-1.15,0,.22.22,0,0,0-.13.39,1.94,1.94,0,0,1,1.26.77.79.79,0,0,0,.47.35,1,1,0,0,1,.61.55c.19.34,0,.76.16,1.1a.86.86,0,0,1,.35.59c.08.27,0,.57.08.84a2.87,2.87,0,0,0,.23,1c.11.44.48,1.2,1,1.11.08-.09.33-.37.37-.16a.56.56,0,0,0,.36.38c.46.36.9.76,1.36,1.11.25-.07.4.2.6.31a1.15,1.15,0,0,0,.69.26.59.59,0,0,1,0,.77c-.13.25-.44.06-.65.08a.82.82,0,0,0-.74.31,1.68,1.68,0,0,0-.39,1.17,3.88,3.88,0,0,0,1.21,2.7c.41.43.85.82,1.26,1.25-.15.17-.29-.29-.44-.16s-.43.39-.63.6c.33.15,1,.48,1,.79a.26.26,0,0,1-.46,0c-.2-.15-.26.17-.38.28s-.32.34,0,.41l1.35.73c-.07.19-.19.35-.26.54-.43.06-.39,1-.7,1.36-.05.43-.5-.24-.49.27a18,18,0,0,0-1.3,3.65c-.1,1,.48,1.93.66,2.91.88.77,1.64,1.66,2.47,2.48a1.66,1.66,0,0,1-.67.24c0,.16-.21.23-.31.37s-.41,0-.57.16c-.68.37-1.32.81-2,1.21,0,.23.28.28.45.37a24,24,0,0,0,3.13,1c1,.3,2.06.69,3.09,1a10.39,10.39,0,0,1,2.48,1.17c1.91,1.06,3.79,2.16,5.71,3.2a8,8,0,0,1,.57,1.15c1.23,2.64,2.57,5.23,3.89,7.83.27,0,.45.23.68.35l.36.65c-.4.39-1,.5-1.32,1a19.38,19.38,0,0,0-1.08,4.55,7.91,7.91,0,0,1-.15,1.22,2.67,2.67,0,0,1-.74.69c-1.48,1.11-3,2.12-4.5,3.24q-5.82,4.22-11.59,8.52c-1.53-2-3.06-4.06-4.51-6.13-.07-.36-.48-.46-.61-.79a25.82,25.82,0,0,1-1.14-2.47,8.32,8.32,0,0,0-.58-1.24l-.68-1.56c0-.21.21-.31.19-.51a.74.74,0,0,0-.24-.48,2.44,2.44,0,0,0-.86.26,3,3,0,0,1-.93-.54,9.55,9.55,0,0,1-.84-1.12,7.56,7.56,0,0,1-.89-1.93c-.14-.44-.2-.89-.3-1.34a.35.35,0,0,0-.58.08c-.32.44-.59.92-.94,1.33-.38.16-.84.13-1.17.42-.24.14-.53.45-.82.26s-.26-.45-.48-.56c-.27-.42-.61-.78-.86-1.22a10.5,10.5,0,0,0-1-1.42c-.12-.17-.2-.39-.44-.4l-.72-.21c0-.41-.37-.67-.59-1a2.21,2.21,0,0,1-.39-.72c-.06-.35.22-.63.35-.94a4.22,4.22,0,0,0,.91-1.51c.12-.41.21-.82.31-1.24-.23-.18-.55-.06-.8-.2-.44-.14-.9-.26-1.33-.41a6,6,0,0,1-.75-.2c-.08-.21.3-.28.26-.5.05-.47.16-.93.17-1.4-.13-.28-.47-.2-.72-.26-.44,0-.89-.14-1.33-.14s-.87.34-1.33.42l-2.25.25a1.08,1.08,0,0,0-.74.4c-.23.21-.53.35-.75.57-.22.06-.34-.12-.44-.29-.52-.78-1.08-1.52-1.63-2.28-.32-.28-.73,0-1.07,0a3.82,3.82,0,0,0-.87.24c-.17.08-.39.09-.43.3l-.56,1.13c-.78-.45-1.58-.88-2.36-1.33-.19-.11-.41-.27-.34-.52a.42.42,0,0,1,.32-.46c.28-.13.7-.15.77-.52s0-.58-.05-.87a3.74,3.74,0,0,0-.48-1.68,1.73,1.73,0,0,0-1.29-.69.66.66,0,0,1-.52-.63,9.72,9.72,0,0,0,.08-1,1.38,1.38,0,0,0-.62-.6c-.18-.07-.41-.41-.55-.13.11.43.54.87,0,1.25a3.4,3.4,0,0,1-.87.66,3.21,3.21,0,0,0-.68,1.33c0,.33.36.53.49.82a3,3,0,0,1,.46,1.47c-.14-.06-.2-.31-.31-.44s-.21-.4-.44-.45a1.38,1.38,0,0,0-1,0,2.74,2.74,0,0,1-.61-.18c-.42,0-.67.56-1.16.39s-.88.06-1.32,0c-.25,0-.22.35-.14.52.26.62.56,1.24.82,1.86,0,.25-.19.4-.41.42a6.17,6.17,0,0,0-1.08.43c-.28,0-.39-.25-.41-.48a.78.78,0,0,0-.41-.69c-.16-.13-.32-.24-.51-.1-.17.38-.52,1.11-1.08.61-.22-.14-.16-.44-.31-.63-.3-.15-.48.4-.79.22s-.38,0-.55.12a.69.69,0,0,0-.53.32c-.1.21,0,.35.23.42a1.15,1.15,0,0,1,.48.63c0,.28-.22.43-.4.58s.17.49.33.66a2.39,2.39,0,0,1,.55.74Z"/><path id="f5f07e88-024f-483e-8224-eee58db020c9" data-name="path4301" class="610f4b4e-9ad4-442a-8446-0ac6b835b1fe" d="M116.71,135.37a1.7,1.7,0,0,1-.81.88c-.08.17-.13.25-.28.17a4.18,4.18,0,0,0-.63,1c-.08.2-.19.43-.05.63a3.66,3.66,0,0,1,.81,1.55c0,.13.21.5,0,.5-.17-.26-.32-.54-.5-.78a1.5,1.5,0,0,0-.61-.18,3.2,3.2,0,0,0-.57.11,1.68,1.68,0,0,1-.56-.18c-.13,0-.27,0-.37.11s-.24.27-.43.25c-.36.05-.73,0-1.1,0a2.81,2.81,0,0,1-.62,0c-.11,0-.22.09-.19.22a.82.82,0,0,0,.18.6c.18.37.33.75.48,1.13a4.27,4.27,0,0,1,.2.41.35.35,0,0,1-.27.39,3.86,3.86,0,0,0-.85.31,1.45,1.45,0,0,1-.39.15.32.32,0,0,1-.32-.24c-.09-.23,0-.51-.22-.71s-.29-.22-.43-.33-.21,0-.32,0-.12.2-.18.3a1.6,1.6,0,0,1-.26.42.77.77,0,0,1-.46,0c0,.09.47.36.63.07s.51-.18.37.1-.14.46-.17.69,0,.51.1.75l.27.6.91.31,1.17-.42a2.52,2.52,0,0,1,.69.43c.56.42,1.13.82,1.69,1.25.49.74,1,1.47,1.44,2.24l.68,1.14-.42,1,1.09,1.86c.21.14.43.26.63.41.41.62.87,1.21,1.3,1.82s.84,1.14,1.22,1.73c.22.32.46.63.72.93.09.09.17.23.32.21.86.29,1.73.56,2.61.78a15.87,15.87,0,0,1,2.13.6,2,2,0,0,1,.87,1.55,3.81,3.81,0,0,0,.23,1c.37.9.72,1.81,1.09,2.7a5,5,0,0,0,.49,1c.31.46.62.92.94,1.37l-.4.29c.06.1.18.22,0,.27s.09.09.15.14.12.26.21.25.14.13.21.19,0-.18,0-.28.19-.13.26-.19.15.18.22.26c.23.36.48.71.71,1.07a1.21,1.21,0,0,1,0,.59,1.15,1.15,0,0,0-.19.73c0,.57.16,1.13.22,1.7-.05.16-.06.35-.2.47a2.07,2.07,0,0,0-.43.64c-.08.22-.18.44-.24.67a8.7,8.7,0,0,0,.42,1.23c.21.51.37,1,.62,1.54a1.25,1.25,0,0,1,.09.56,2.67,2.67,0,0,1-.1.77,1.93,1.93,0,0,0-.08.57c.46.86.89,1.74,1.37,2.59.25.45.48.91.75,1.35a19.09,19.09,0,0,1,2.15,4.51c.1.15,0,.59.2.53l4.64-.81c3.42-2.39,6.71-5,10.07-7.42l1.19,1.64c1.2-.86,2.39-1.74,3.58-2.62q1.5-1.08,3-2.18c-2-2.81-4-5.61-6.11-8.36-.65-.89-1.32-1.77-1.95-2.67-.07-.15-.1-.31-.25-.4a1.22,1.22,0,0,1-.4-.46c-.91-1.69-1.53-3.51-2.38-5.23a.47.47,0,0,1,.16-.33.53.53,0,0,0-.08-.48c-.06-.11-.11-.22-.25-.19a5,5,0,0,0-.74.27,5.93,5.93,0,0,1-.67-.33,2,2,0,0,1-.5-.48,10.93,10.93,0,0,1-1.34-2.25,9.65,9.65,0,0,1-.33-1.26,5.91,5.91,0,0,0-.14-.61.31.31,0,0,0-.37-.08c-.19.08-.26.3-.38.45-.25.35-.47.73-.75,1.05-.3.12-.62.13-.92.25a5.07,5.07,0,0,1-.78.47.37.37,0,0,1-.42-.22c-.11-.13-.16-.31-.33-.37-.22-.37-.53-.67-.74-1s-.56-.92-.85-1.37a3.35,3.35,0,0,1-.46-.6l-.93-.28a.54.54,0,0,0-.1-.37,8.28,8.28,0,0,0-.59-.73,5.68,5.68,0,0,1-.28-.56.81.81,0,0,1,.15-.62,2.72,2.72,0,0,1,.4-.63,5.79,5.79,0,0,0,.58-.88,15.32,15.32,0,0,0,.42-1.6.65.65,0,0,0-.41-.11,4.6,4.6,0,0,1-.77-.21c-.29-.09-.59-.16-.86-.28l-.83-.2c-.12-.12.07-.23.14-.32s.09-.27.13-.41c0-.38.12-.76.14-1.14a.29.29,0,0,0-.26-.27l-1.71-.21a4.68,4.68,0,0,0-.86.27,2.15,2.15,0,0,1-.68.18c-.69.08-1.37.16-2.06.22a1.2,1.2,0,0,0-.68.29c-.23.28-.59.42-.85.67-.1,0-.25,0-.31-.08-.31-.42-.58-.86-.9-1.27s-.58-.82-.89-1.22a.61.61,0,0,0-.58-.09,8.77,8.77,0,0,0-1.69.5l-.64,1.3-2.32-1.3c-.15-.12-.39-.2-.39-.43a.75.75,0,0,1,.1-.46c.26-.18.59-.21.85-.38a1,1,0,0,0,.2-.47,8.93,8.93,0,0,0-.34-1.87,1.86,1.86,0,0,0-1.4-1.18.7.7,0,0,1-.55-.25c-.09-.09-.07-.25-.12-.36a9.68,9.68,0,0,0,.08-1,1.18,1.18,0,0,0-.44-.49l-.59-.37c-.44.22.23.62.16.92h0Z"/><path id="841e2514-f1cf-4730-8570-6a419e1d66f5" data-name="path4295" class="a3570dd7-9e4b-4c43-9f46-b6b3209eac82" d="M151.82,110.1c.08.16.12.37.31.43.51.35,1,.79,1.45,1.16.21-.07.34.13.49.23a1.09,1.09,0,0,0,.65.32c.25,0,.37.3.29.51s-.15.48-.38.41a1.54,1.54,0,0,0-.86.05,1.73,1.73,0,0,0-.58.81,3.14,3.14,0,0,0,.1,1.58c.35,1.25,1.45,2.05,2.31,2.95-.13.13-.25-.14-.38-.2a7.65,7.65,0,0,0-.69.63c.34.15,1,.47,1,.78-.13.1-.26.25-.39.07s-.28-.12-.35.06l-.33.46,1.54.84c-.07.19-.19.36-.26.54-.3-.11-.28.52-.43.71s-.18.86-.49.77-.28.35-.43.53a16.51,16.51,0,0,0-1.13,3.16c-.15,1.06.46,2,.64,3,.84.74,1.58,1.59,2.37,2.38.23.14-.1.18-.21.26s-.37,0-.38.16-.19.2-.3.29-.39,0-.54.14c-.69.38-1.34.82-2,1.22,0,.19.2.23.33.32.66.26,1.33.49,2,.71a31.21,31.21,0,0,1,3.14.94c.76.27,1.51.56,2.28.82a4.85,4.85,0,0,1,.87.45c2.09,1.19,4.17,2.38,6.28,3.53l1.51.16.26-2.19c-.16-.16,0-.37,0-.56a6.18,6.18,0,0,1,.27-1.4c0-.41.3-.2.56-.08,2.6,1.08,5.42,1.37,8.14,2l.49-.27c-.57-1.68-1.26-3.32-1.77-5a2.2,2.2,0,0,1,0-.93,5.16,5.16,0,0,1,.53-1.49c.11-.31.47-.45.54-.78,2.2-5,4-10.2,6.27-15.18a1.93,1.93,0,0,1,.17-.8c.69-1.72,1.4-3.44,2.08-5.16.19-.53.37-1.07.57-1.59a3.67,3.67,0,0,0,.46-1c.36-.93.72-1.87,1.12-2.79a25.61,25.61,0,0,0,1.41-5.21c.15-.95.11-1.91.17-2.87a9.89,9.89,0,0,0-.71-4.3c-.21-.24,0-.36.19-.49a3.14,3.14,0,0,1,.65-.15.48.48,0,0,0,.45-.07c.1-.09.41-.11.34-.26a4.18,4.18,0,0,0-.37-.77,7.35,7.35,0,0,1-.36-1.67,9.22,9.22,0,0,1-.08-1.5c0-1.47.2-2.94.32-4.41.27-3.11.6-6.22.87-9.33a8.27,8.27,0,0,1-.88-.07c-.14-.07,0,.33-.26.15s-.58-.08-.85-.15a4.6,4.6,0,0,1-1-.91,1.9,1.9,0,0,0-1.14-.27c-.29,0-.58.08-.86.05s-.28.1-.43.14-.43,0-.66,0-.7.16-1.06.15a3.9,3.9,0,0,1-.89,0l-1.19,0-.88-.71a5.81,5.81,0,0,0-.22,1.37,2.74,2.74,0,0,0,0,.92,5.22,5.22,0,0,0,.4.93c.13.12.29,0,.42-.05s.47-.2.6-.43.18-.3.33-.34,0,.23,0,.31-.1.33-.21.43-.15.2-.21.33-.36.24-.41.43c.15.46.33.91.46,1.37,0,.21-.25.14-.38.17-.58.06-1.16.15-1.73.2-.16.05-.33,0-.5.06-.5.07-1,.09-1.5.19-1.24.36-2.62.31-3.73,1l-1.35,1.28a8.31,8.31,0,0,0-2,1c-.24,0-.21.29-.32.42s-.27.33-.43.43-.29-.3-.48-.16-.31-.09-.46,0-.31,0-.45.08-.29.24-.48.2c-.36.2-.8,0-1.18.15s-.88.42-1.38.31c-.18,0-.07-.33-.12-.48l-.07-1.25-.66,0,.12,2.33c.25,0,.27,0,0,.07a2.28,2.28,0,0,1-.73.22c-.19.26-.36.54-.56.78-.83.46-1.68.89-2.53,1.31-.27.53-.5,1.08-.79,1.59L160,88.49a12.26,12.26,0,0,0,.94,1.95,1,1,0,0,1,.16.7c-.11,1-.25,2-.35,3l.43,2c-.72.78-1.43,1.58-2.16,2.34a1.12,1.12,0,0,1-.67.1c-.65-.34-1.29-.7-1.94-1s-1.53-.44-2.29-.69a2.56,2.56,0,0,0-1.1-.35c-.21-.1-.26.11-.15.26a1.2,1.2,0,0,1,.24.59c.1.35-.15.69-.23,1-.3.33-.52.72-.83,1a7.25,7.25,0,0,1-1.55,1.56.89.89,0,0,1-.76.23c-.12-.06-.35,0-.28.17s.46.35.48.65a1.34,1.34,0,0,1-.28,1,5.59,5.59,0,0,1-.34.58,3.72,3.72,0,0,1-.9.14,2,2,0,0,1-.84,0,.22.22,0,0,0-.23.32c.31.16.81.2,1.05.55s.38.56.71.63a.82.82,0,0,1,.54.43c.29.32.11.78.21,1.16.08.17.31.26.33.47a2.15,2.15,0,0,1,.07.84,8,8,0,0,0,.25,1c.17.42.28.92.71,1.15.14.12.27.19.36,0a2.69,2.69,0,0,1,.25-.17Z"/><path id="09f579e2-bd4a-48c8-b7e2-db4a998b16dc" data-name="path4293" class="a3570dd7-9e4b-4c43-9f46-b6b3209eac82" d="M169.52,138.56c0,.19-.14.4,0,.56l-.26,2.19-1.51-.16c1.37,3,2.9,6,4.4,8.94.27,0,.45.23.68.35l.36.65c-.35.29-.77.48-1.14.75a4.84,4.84,0,0,0-.58,1.42,20.82,20.82,0,0,0-.76,4.54c1.37-1,2.75-2,4.13-2.91,2,2.7,4,5.4,5.93,8.14q1.48-1.1,2.93-2.24c.13-.07.27-.3.36-.07l1.16,1.45c.56-1.27,1.09-2.54,1.66-3.8.52-1,1-2.05,1.48-3.08.54-1.28,1-2.58,1.62-3.85.25-.54.46-1.09.69-1.64.15,0,.33.18.41,0a3.93,3.93,0,0,0,.38-1.08c.23-.78.42-1.57.67-2.34l1.29-3.29c-.09-.12-.3-.22-.18-.39a8.13,8.13,0,0,1,.93-1.86c.29-.47.53-1,.83-1.41a3.93,3.93,0,0,1,1.55-1.25,4.07,4.07,0,0,1,3.29,0,19.45,19.45,0,0,1,4.73,3.36c.78.67,1.52,1.38,2.35,2a1.7,1.7,0,0,1,.2-.42,4.09,4.09,0,0,0,.15-1.23c0-.3,0-.62.1-.9s.42-.45.59-.69-.19-.25-.29-.38l-.7-.61.14-.86c-.18,0-.08-.28-.14-.41a17.33,17.33,0,0,1-.08-2,4.33,4.33,0,0,1,.05-1,10.37,10.37,0,0,0,1.09-.31c.11.16.29,0,.44,0a4.56,4.56,0,0,1,1.22-.26c.38,0,.75,0,1.13,0,.61,0,1.21-.08,1.82-.12-.22-1-.44-2-.7-3,.1-.24,0-.5,0-.75-.06-.53-.15-1.06-.19-1.58a.86.86,0,0,0,.09-.53q-.18-2.86-.34-5.73c-.09-.74-.2-1.48-.36-2.2a17,17,0,0,0-.62-2.32,18.72,18.72,0,0,0-.76-2,68.1,68.1,0,0,0-8.34-15,18,18,0,0,0-1.3-1.66c-.41-.43-.74-.93-1.1-1.4s-.71-.9-1.07-1.35c.06-.13-.17-.25-.22-.38-1.11-1.43-2.23-2.85-3.31-4.31l-.45-.63c-.1,0-.27-.21-.21-.29A7.92,7.92,0,0,1,193,90c.27-.14-.24-.49-.26-.72a12.14,12.14,0,0,1-1.57-6.57c-.14-.1-.31-.2-.27.06-.08,1-.2,2.08-.26,3.12a12.87,12.87,0,0,0,0,2.13,5.87,5.87,0,0,0,.21,1.28,2.84,2.84,0,0,0,.36.94c.08.17.14.35.22.53a6,6,0,0,1-.61.29,2.11,2.11,0,0,0-.81.08c-.1.11-.33.17-.33.31.18.57.4,1.12.55,1.69a9.8,9.8,0,0,1,.24,1.74c0,.91,0,1.83,0,2.74a19.89,19.89,0,0,1-.7,3.94,23.71,23.71,0,0,1-1.3,3.62c-.32.82-.63,1.64-1,2.46a3,3,0,0,0-.41.93c-.42,1.25-1,2.46-1.44,3.69-.35.88-.72,1.75-1.06,2.63a1.58,1.58,0,0,1-.18.78c-2.25,5-4,10.14-6.24,15.13a1.88,1.88,0,0,0-.49.66,5.44,5.44,0,0,0-.51,1.53,3.63,3.63,0,0,0,0,.82c.53,1.67,1.19,3.3,1.76,5l-.49.27c-2.89-.64-5.89-1-8.61-2.18a4.37,4.37,0,0,0-.28,1.12l-.08.56Z"/><path id="2ee7d0b2-3065-4dee-b52b-0d23f0d80002" data-name="path4287" class="610f4b4e-9ad4-442a-8446-0ac6b835b1fe" d="M219.63,166.46c-.32-1.11-1.32-1.82-1.89-2.79s-.89-2.08-1.46-3.06a30.12,30.12,0,0,0-3.64-4.48c-.29-.33-.77-.43-1.08-.7l-.69-.93a23.24,23.24,0,0,0-.45-3.47c-.22-.58-.78-.9-1.21-1.29a1.28,1.28,0,0,1-.37-.42c0-.39-.12-.76-.13-1.15-.11,0-.16-.2-.31-.22a2.78,2.78,0,0,1-.54-.32,1.65,1.65,0,0,1-1.12.13c-.24,0-.32-.28-.51-.39a5.14,5.14,0,0,0-1-.68.18.18,0,0,1-.15-.31.92.92,0,0,1,.32-.45c.17-.28.21-.64.48-.86a3.22,3.22,0,0,0,.47-.54,1,1,0,0,0,.34-.51,4.16,4.16,0,0,1,.22-.56c-1.33-1-2.5-2.18-3.8-3.21a11.75,11.75,0,0,0-3.93-2.35,4.22,4.22,0,0,0-3.32.66,4.77,4.77,0,0,0-1,1c-.44.81-.93,1.59-1.37,2.4a4,4,0,0,0-.34.9c.09.12.3.22.16.38-.43,1.12-.88,2.22-1.3,3.34s-.54,2-.81,2.92a1.19,1.19,0,0,1-.26.43c-.14,0-.35-.2-.37,0-.52,1.31-1.14,2.57-1.65,3.88-.31.76-.61,1.53-1,2.26s-.79,1.68-1.21,2.51l-1.55,3.57L184,160.6c-.9.67-1.78,1.38-2.68,2l-.51.38c-1.94-2.74-3.93-5.45-5.93-8.14-1.39,1-2.78,1.94-4.15,2.93a2.33,2.33,0,0,1-.6.6c-1.56,1.15-3.15,2.24-4.71,3.38l-1.88,1.37c1.34,1.62,2.4,3.45,3.76,5.06,2.42,3.4,4.94,6.72,7.38,10.1a1.92,1.92,0,0,0-.64.9.71.71,0,0,1-.26.43l-2.24.37-.22.66,2,.48.59-.44c.11.1.31.16.36.27a3.19,3.19,0,0,0,.45.26,1,1,0,0,0,.58.17q-.67,4.47-1.33,8.94a1.88,1.88,0,0,0-.21.74,23.34,23.34,0,0,1-.36,2.35,5.79,5.79,0,0,1-.16.7c-2,1.47-4.09,2.95-6.15,4.41l2.35,3.18q1.61-1.17,3.23-2.32,3.47,4.91,7.05,9.73c1-.76,2.11-1.48,3.15-2.23l.09.59a4.29,4.29,0,0,1,.62.33c1.17,1.53,2.3,3.09,3.45,4.64l.69-.52-2.34-3.14,3.16-2.37,1.81,2.5-2.36,1.7.51.78,2.44-1.75.44.62c-1.36,1-2.71,2-4.08,3l-1.35.94.59.77c.75-.48,1.51-.93,2.24-1.43s1.24-1,1.84-1.58l2.21-2.79-1-1.15c-.11.07-.24.32-.35.26L190,206.43c0-.22-.11-.46.06-.65a3.35,3.35,0,0,1,1.84-1.5c1.08-.1,2.1-.8,3.21-.53l.75,1c.07-.1.34-.18.29-.3-.4-.53-.79-1.08-1.19-1.6-.1-.1-.38-.2-.13-.29s.26-.19.34,0l1.26,1.73c.32-.16.25-.35,0-.57-.39-.53-.93-1.08-.85-1.79s.76-1.09,1.22-1.54a13.64,13.64,0,0,1,4-3.76,5.11,5.11,0,0,1,1.31-.43,11.93,11.93,0,0,1,.9,1.16l.85,1.15c.09-.09.4-.15.21-.29l-1.5-2,.41-.3a2.38,2.38,0,0,1,.54.72,7.52,7.52,0,0,0,.87,1.31c0,.16.4,0,.21-.14l-.66-.93a1,1,0,0,0-.08-.59.67.67,0,0,0-.31-.41,1,1,0,0,1,.26-.65,12,12,0,0,1,4.53-4,.42.42,0,0,1,.43.1c.15.09.36.11.44.29l.64.9c.17.06.28,0,.29-.21-.35-.5-.73-1-1.07-1.5,0-.2-.15-.33-.27-.48,1.35-1.83,2.54-4.1,4.66-5.14a.77.77,0,0,1,.55,0c.19,0,.2.2.27.34l.5,1.19c.19,0,.33,0,.19-.22l-.56-1.48c0-.15,0-.35.19-.42l2.79-2.06c.45-.32,1.65,2.49,2.05,2.1-.23-.45-1.27-1.43-.67-1.89.36-.22,4.15-1.06,4.49-1.3s1.09.93,1.35.62c.08-.13-1.22-1.6-1-1.59l.65-.51c.24-.25.9,1.31,1.13,1s2.29-2.27,2.71-2.56l.32-1.48-1.35-.54a8.58,8.58,0,0,0-1.59-1.18c-1-1.24-1.95-2.48-2.94-3.71-.64-.5-1.29-1-1.92-1.5-.15-.14.09-.28.17-.39s.31-.25.35-.44c0-.41-.42-.62-.65-.91a4.45,4.45,0,0,1-.76-1.6l-.08-.27Z"/><path id="94ea404f-05af-4e11-be9c-d9a314a56c63" data-name="path707" class="610f4b4e-9ad4-442a-8446-0ac6b835b1fe" d="M101.45,238.23c-1.43,1.17-2.9,2.26-4.4,3.34l.16.35,0,.28.21.5.26.77a18.48,18.48,0,0,1-.65,3.18,5.37,5.37,0,0,1-.64,1.33,2.18,2.18,0,0,1-1,.37c.39,1,.84,2,1.19,3a16.94,16.94,0,0,0,.43,1.72,12.18,12.18,0,0,0,.51,1.33c.32-.21.31.28.44.46l.75,1.72c-.12.25.2.49.27.73a24.4,24.4,0,0,0,1.31,2.2,10.69,10.69,0,0,1-1.85.69l-.75.25-.34-.88-2,.74.42.75-1,.46a.62.62,0,0,0-.69-.27,6.5,6.5,0,0,1-1.47,1,10.35,10.35,0,0,0-1.52.91c0-.36-.52.14-.61-.1s-.57,0-.52.11l-.79.21c-.06-.26-.44,0-.43-.41-.13-.15-.12-.71-.36-.56l-1.81,1.05.31.93a8.56,8.56,0,0,1-1.91.75c-6.61,1.81-13.22,3.59-19.82,5.41-1.37.39-2.73.82-4.1,1.18a13.86,13.86,0,0,0-2.11.55c-1.32.37-2.61.84-3.94,1.18a5.42,5.42,0,0,0-1.57.46l-.92.39A44.73,44.73,0,0,1,65.67,294.9c.87.81,1.73,1.65,2.61,2.45,1.66.9,3.31,1.84,5,2.71,2.34,1.05,4.69,2.08,7.06,3.06A37.25,37.25,0,0,0,84,304.36c1.1.31,2.19.67,3.29.95,3.58.36,7.17.7,10.75,1.08l12.42,2.86c.81-.82,1.65-1.63,2.44-2.47,1.12-2.48,2.22-5,3.36-7.44.27-.14-.12-.67.24-.54l5.78.92,11.18-21.67,1.11.38-5.81-2.13-.58-1.45a4.48,4.48,0,0,1-1.67.13c-.7-.07-1.41-.2-2.11-.24l-2.29.88L120,278.83c-.25-.11-.52-.33-.63.05l-10.09,15-3-1.86c.85-1.21,1.5-2.53,2.26-3.8l.43-.75-3.29-2.35,1.73-2.6,5.24.6,4.15-15.92.92.19-.3,1.09q.46.28.48-.26c.09-.22.1-.6.24-.72.19.14.68.13.51.46l-.16.81c.34,0,.47.19.3.51l-.4,1.48c.26.07.65.05.44.42l-.51,2.29a6.62,6.62,0,0,0,1.92-.61l9.85-5.22c0-.34-.23-.64-.32-1l-.69-1.64c.35,0,.47-.17.31-.49s-.29-.77-.36-1.16l.37-1.67.81-.34,4.34,9.69c.18-.14.64-.17.63-.39L131,261l1.4-.66a5.5,5.5,0,0,0,.92,1.61l4.56,5-.49.74c.24.29.34-.25.51-.38,2.38-3.37,4.8-6.71,7.11-10.12l1.77-2.58-3.36-4.06,1.58-2.44,5.21,3.64,2.1-3.11-3.66-2.81,4.14-5.2,3.91,2.89a11.84,11.84,0,0,0,1-1.42c.3-.46.62-.91.93-1.36,0-.28-.38-.34-.56-.53s-.49-.53-.63-.22-.38.07-.6-.06l-3.12-2.12c.12-.19.54-.47.08-.48-.29-.05,0-.47,0-.68l1.79-7.07c.27.22.48.11.65-.16s-.34-.35-.47-.53a.79.79,0,0,1-.42-.55l-1.33-1.13,1.2-1.43a16.45,16.45,0,0,0-1.53-.75c-2.72-.55-5.35-1.66-8.16-1.74-2.42-.57-4.9-.77-7.34-1.2l-15-2.25c-2.33-1.47-3.49-4.07-5.18-6.13-1.13-1.73-2.53-3.27-3.56-5.06.49-2.53,1-5.06,1.52-7.6a11.06,11.06,0,0,0-1.87,1.17,20.71,20.71,0,0,1-2.44,1.51,16,16,0,0,1-3.34,1.37c-1.59.54-3.2,1-4.82,1.42a16,16,0,0,0-3.73,1c-2.08.86-4,2.05-6,3.08-1.67.92-3.29,1.93-4.93,2.91l-1.23-.27c0,.33.32.56.5.82.44.42.94.78,1.34,1.23.12.23.33.45.25.66s.25.45.3.7.09.61.36.78a12.55,12.55,0,0,1,2,2.21,4.59,4.59,0,0,1,.63.72c.25.21.24.41.38.55a15.21,15.21,0,0,0,1.5,1.28c.31.12.36.28.54.5.21,0,.33.35.51.51a9.68,9.68,0,0,0,.81,1.44,9,9,0,0,1,.91,2.32c.24.06.05.49.17.7a17.88,17.88,0,0,1,.35,2.42,5.77,5.77,0,0,1,.56,2.77,7.58,7.58,0,0,0,.62,2.66c.66.94,1.37,1.88,2,2.81Z"/><path id="b056ff7f-1c98-4dcb-88df-6e39295caa25" data-name="path3515" class="8b7ad98c-feea-4b8d-9eee-f03332dfd9df" d="M38.51,136l1.22,1.81-1.14,1-.57.4-2.94,3.44-2.14.57.36-.72,0-1.17-.13-1.06.11-.39,1.08-1.27,2.42-1,1.06-1.09.53-.81.11.25Z"/><path id="eb920e58-dfab-423e-b3a8-27a2b2dc4d71" data-name="path3509" class="8b7ad98c-feea-4b8d-9eee-f03332dfd9df" d="M25.73,102.83l-.16.64-.13.75.09.64,0,.4.09.15.14.09h.38l.56-.06,2-.47.18,3.33-.11.27,1,.15.56.06.56,0,1.29.34,3.31.87-1.44,3.63-.11.2-.13.36v.18l0,.3-.46.74-.29.59-.39.46-.38.61-.15.3,0,.41.09.57.08.93,3,1.4,1.26,4.89-2,6.32-3.13.5-.42.07-.4.13-.39.17-.44,0-2.3-.4-1,.33.56,2.2-.53,1.61-1,2.42-2.83.66-4.2.91.63.59.29.3.19.29.15.27.09.28.05.29.19.29-3.24,1.73-3.23-7.24.78-.6.58-.55.67-.87.68-.74.68-.86.14-.48.33-1.28.24-.76.18-.46,0-.2v-.2l-.2-.58,0-.48-.19-.73,0-1.21-.12-.45,0-.29,0-.2.1-.28.07-.12.05-.15v-.38l-.09-.38-.25-.47-.31-.45-.28-.29-.26-.16-.47-.22-.31-.26-.06-.12,0-.17,0-.23-.66,0-.13-.49-.22-.52-.21-.41-.22-.26-.1-.07-.24,0-.07-.06-.16-.21-.23-.47.58-.43.38-.25.49-.2.55,0,.68-.13.66-.13,2.15-.62.46-.17.55-.31.36-.15.22-.12.16-.23.15-.3.09-.89.18-.77.14-.39.63-1.31.07-.22.08-.56.08-.88.35-8.35.45-2.52,2.63.31H26l.07.09,0,.11-.12.23-.21.89Z"/></g></g><g id="f5b2e927-7c08-4cf3-9a4a-54c85be17db3" data-name="layer19"><g id="cb3b5fb0-06bd-4342-935c-5ae726f60a90" data-name="g4239"><path id="edfe6eaf-7d7d-49bb-8438-cf374fe50f6b" data-name="path4284" class="9229cbad-226b-4273-8db9-96d25411a603" d="M291.11,143.93c-.18-.32.09-.67.12-1,.1-.66.61-.38,1.1-.28a1.08,1.08,0,0,0,1.24-1.43,10.12,10.12,0,0,1-.91-1.87,2.9,2.9,0,0,0-.05-.9c0-.29-.24-.47-.43-.67.06-.36.43-.68.21-1.05a3.48,3.48,0,0,0-.86-.12c-.74.1-.24-1-.79-1.37-.56-.61,0-1.51.09-2.21.15-.28.26-.62-.07-.82a8.7,8.7,0,0,1-1.51-1.52,3.78,3.78,0,0,1-.5-1.14.91.91,0,0,1,.71-.15,4.28,4.28,0,0,0,2.37.63c.29-.11.61.19.86,0a6.79,6.79,0,0,0,1.85-.33c.84.07.7-.79.93-1.31a2.2,2.2,0,0,0,.16-.76c.19-.06.65,0,.62-.25-.54-.21-1.19-.19-1.73-.45a10.89,10.89,0,0,0-2.67-1.23,4.82,4.82,0,0,0-1.53,0c-.35-.09-.7-.31-1.06-.12-.7.29-1.42-.2-2.07-.43s-.78-.4-.52-.92.07-.9.43-1.18a5.59,5.59,0,0,1,.22-.8,10.75,10.75,0,0,0,.41-1.11c.84-.33,1.65-.76,2.52-1,.67-.16,1.35-.3,2-.45a9.81,9.81,0,0,1-1-1.43c-.39-.56-1.12-.78-1.51-1.35a2.83,2.83,0,0,0-1-.85c-.84-.72-.63-2-1.21-2.82a6.92,6.92,0,0,1-.76-2.35,14.75,14.75,0,0,1-.14-1.78,3,3,0,0,1,.46-1.34c.34-.53.63-1.1,1-1.61a9,9,0,0,1,1.83-1c.39-.25,0,.33-.05.52l-1,2.33c.11.29.25.53.6.41a8.9,8.9,0,0,0,1.92-.36c.36.25.27.71.37,1.09a3.66,3.66,0,0,1,.11,1,4.62,4.62,0,0,0-.56,1.57c.14.4.37.9.87.89a2.34,2.34,0,0,1,1.3.33c.35.26.51.7.84,1a2.08,2.08,0,0,0,1.33.69,12.59,12.59,0,0,1,1.61.47c.41.37.21,1,0,1.43-.05.44.48.63.8.76s.59-.09.45-.44,0-.75.36-.85a1,1,0,0,1,1.35-.65.56.56,0,0,1,.16.89c-.29.29-.2.75-.11,1.1.51.37,1.6-.49,1.83.41-.15.32-.67.46-.6.88s.71.68,1.06,1a7.76,7.76,0,0,1,1.06,1,.39.39,0,0,0,.48.44,2.56,2.56,0,0,1,1.36.36c.25.07.53.16.56.46s.32.71.71.81a3.47,3.47,0,0,0,.89-.75,9.14,9.14,0,0,0,.55-.73c.62.14,1,1.32,1.61,1,.43-.17.42-.66.84-.72.25.12.34-.34.65-.33s.62,0,.77-.22.2-.82.6-1a5.89,5.89,0,0,0,.48-.66,7.88,7.88,0,0,0,.92-.76,18,18,0,0,0,1.16-1.7c.31-.29.54-.65,1-.63.32,0,.47-.23.78-.17a3.42,3.42,0,0,1,1,.2c.19.35.33.78.74,1s.45.52.79.62a7.47,7.47,0,0,1,1.11.84c.21.23,0,.48-.06.72s-.34.62-.18,1,.19.66.21,1c.55-.12,1.15.32,1.65.62.27.17.68.25.83.54.13.53.54.92.71,1.43.09.26.12.53.41.65.13.24.42.18.62.36s.28.6.57.56a3.42,3.42,0,0,0,1-.41c.6-.11,1.21-.29,1.81-.36.29,0,.45.19.74.26a6.71,6.71,0,0,0,2.64.4,9.8,9.8,0,0,1,1.67.41c.65.26,1.28.56,1.94.79a3.23,3.23,0,0,0,1,0c.14-.27.54-.44.76-.16s.37.51.67.33c.72-.19,1.18.78,1.84,1s.82.68.89,1.22a1.7,1.7,0,0,0,.78,1.33c.23.19.48.33.69.54a1.47,1.47,0,0,0,1,.31,6.75,6.75,0,0,1,1.63.92c.39.26.77.62,1.28.55a4,4,0,0,0,1.13,0c.26-.17.41.24.33.46-.35.71-.86,1.35-1.28,2s-.19,1.4-.35,2.09c-.3.41.06.88.08,1.32,0,.63.58,1,.71,1.63.1.28.07.7-.29.74s.06.28.2.45.47.34.69.48c1,.78,2,1.61,3.09,2.36s1.88,1.47,2.82,2.19l1.69,1.37c.34.12,0-.32-.09-.5-.17-.45-.71-.64-.83-1.11,0-.28.47-.33.44-.66a1.25,1.25,0,0,0-.7-.82c-.18-.23.13-.56.39-.57s.47-.36.73-.13c.28.08.48-.45.75-.22.1.26.14.59.45.7.32.49.66-.14,1-.08.13.35-.23.71-.13,1.08a2.69,2.69,0,0,0,.36,1.21,6.73,6.73,0,0,0,1,.29,10,10,0,0,1,1.17-.4,13.83,13.83,0,0,1,1.45,1c.4.33.91.54,1.14,1,.68,1,1.27,2,1.89,3a6.33,6.33,0,0,0-.39,1c.38.6.72,1.24,1.12,1.81a1.78,1.78,0,0,1,.8.69c.88,1.2,1.76,2.4,2.62,3.62.28.33.5.8,1,.83,1.44.48,2.93.77,4.38,1.21.59.16.73.83.94,1.32a5.32,5.32,0,0,0,.42,1.56,15.88,15.88,0,0,0,2.42,4.69c-.37.15-.31.37-.39.57,0,0,.28.4.42.36.31.37.12,0,.18-.14.27-.3.4.15.55.33.27.47.8.9.63,1.5-.36.58-.05,1.25,0,1.87a1.09,1.09,0,0,1-.22,1.12,3.13,3.13,0,0,0-.57,1.17c.21.83.6,1.6.88,2.41a1.86,1.86,0,0,1,.25,1.28c0,.44-.35.92,0,1.31,1.16,2.3,2.55,4.47,3.69,6.78a7.65,7.65,0,0,1,.55,1.88c-4.68.84-9.36,1.71-14,2.57a.55.55,0,0,1-.29.72c-.3,0-.6,0-.75-.28s-.53,0-.79,0l-6.77,1.12c-1.42-.66-2.92-1.11-4.38-1.67-1.8-.62-3.59-1.3-5.4-1.88a1.83,1.83,0,0,0-1.37,0c-2.59.53-5.2,1-7.79,1.47a13.89,13.89,0,0,0-3,.88,3.49,3.49,0,0,0-1.24-2.48c-.75-.65-1.89-.74-2.46-1.6a3.54,3.54,0,0,0,1-4.84c-.71-.86-2-.93-2.7-1.79-.88-.82-1.73-1.67-2.57-2.54a3,3,0,0,0-1.07.75,5,5,0,0,1-1.78,1.09c-.41,0-1,.21-1.23-.25a1.22,1.22,0,0,1-.37-.81,2.48,2.48,0,0,0-.34-1.07c.12-.29-.1-.52-.28-.72s0-.61-.17-1,.07-.53-.08-.79-.5-.37-.48-.7c-.23-.32-.33-.78-.73-.92a.71.71,0,0,1-.29-.61,2,2,0,0,0-.44-.62,1.44,1.44,0,0,0-.79-.55.91.91,0,0,0-.57-.45c-.14-.19-.22-.45-.54-.45-.82-.19-1.42-.93-2.25-1.08-.68.12-.21-.33-.11-.66.22-.54.22-1.19.65-1.64a3,3,0,0,0,.72-2.46,2.15,2.15,0,0,0-.28-.93,7.8,7.8,0,0,0-1.26-.78c-.28-.07-.52-.22-.53-.54a17.93,17.93,0,0,1,.09-1.82c0-.38-.36-.66-.24-1.06a1.43,1.43,0,0,0-.11-1,6.36,6.36,0,0,1-.52-1.56c-1.34-.34-2.22-1.77-3.67-1.76-.62.11-.69.86-1.15,1.19a2.81,2.81,0,0,1-.82.48,2.22,2.22,0,0,1-1.32,0c-1.46-.46-2.85-1.39-4.44-1.17-1.65-.68-3.53-1-4.89-2.23-.42-.61-.89-1.32-1.73-1.31a1.4,1.4,0,0,0-1,.15,14.9,14.9,0,0,0-1.62,1.21,11.76,11.76,0,0,0-2.15,1.95c.2.33-.26.38-.46.54-.55.28-1.14.5-1.7.75-.12.39-.63.37-.81.68a4.8,4.8,0,0,1-.24,1.64c-.28.74-1,1.1-1.57,1.64a2.42,2.42,0,0,1-1.31.83.77.77,0,0,1-.92.31c-1-.51-2.29-1.18-3.43-.58-.37.35-.39-.37-.65-.54a6.17,6.17,0,0,0-.8-.91,5.61,5.61,0,0,1-1,.12l-.85-.68a16.17,16.17,0,0,0-2.59-4.47l-.09-1a.86.86,0,0,1,.79-.24c.58-.08,1.18,0,1.76,0a1.41,1.41,0,0,0,.75-.76c-.22-1-.59-2.07,0-3,.29-.65.67-1.23,1.42-.79.93.38,1.54-.52,2.28-.89s1.81-.8,2.54-.11c.29.27.42.79.57.17,0-.68,1.54-.68,1-1.2l-.85-.86,2.69-2.76Zm-3.58-3.64a16,16,0,0,1-1.74,1.48l-2.89,3.43-2.14.59c.15-.36.44-.68.37-1.1a8.69,8.69,0,0,0-.12-1.86c.07-.53.55-.84.84-1.26a1.28,1.28,0,0,1,.74-.58c.68-.3,1.39-.55,2.06-.88a8.17,8.17,0,0,0,1.42-1.7c.15-.39.32.26.47.38l1,1.48Zm-5.12-5.86c-1.23.22-2.47.38-3.68.65-.35.09-.65.35-1,.24-.8-.1-1.61-.3-2.41-.37l-1,.33.58,2.19a25.42,25.42,0,0,1-1.09,3l-.42,1c-2.33.57-4.68,1.09-7,1.62.6.56,1.34,1.13,1.42,2,.35.29,0,.4-.27.53l-2.77,1.51L261.45,140a7.39,7.39,0,0,0,1.87-1.83c.5-.6,1-1.17,1.51-1.81.28-1.08.57-2.17.9-3.23,0-.4-.29-.75-.23-1.16a3.36,3.36,0,0,1-.18-1.3,2.81,2.81,0,0,0-.11-1.19c-.13-.48.33-.86.24-1.33a2.72,2.72,0,0,0-1.11-1.74c-.35-.21-1-.37-1-.91.05-.34-.6.09-.67-.18a3.59,3.59,0,0,0-.8-1.62.67.67,0,0,1-.57-.44c-.23-.28-.18-.49.15-.64a2.31,2.31,0,0,1,1.57-.66,23.38,23.38,0,0,0,3.69-1,4.93,4.93,0,0,0,1.62-1c.27-.5.13-1.11.33-1.64.14-.87.76-1.57.93-2.42.21-1.63.17-3.29.25-4.93s.09-3.21.19-4.82l.41-2.38c1,.1,2.08.27,3.12.31.18.23-.17.48-.14.75A10,10,0,0,0,273,107c.1.34,0,.73.2,1,.33.2.76,0,1.12,0l1.93-.48c.05,1.12.16,2.25.18,3.37-.27.36.31.23.52.31a14.16,14.16,0,0,1,2.21.31l3.92,1c-.55,1.4-1.07,2.81-1.66,4.2a1,1,0,0,1-.25.88,7.34,7.34,0,0,1-.95,1.5c-.77.69-.29,1.68-.27,2.54,0,.35.53.35.78.53l2.25,1,1.29,4.88-1.92,6.34Z"/><path id="0ba73869-6408-48e8-a162-aa3ec73b5fdc" data-name="path709" class="9229cbad-226b-4273-8db9-96d25411a603" d="M311.89,179.06a1.71,1.71,0,0,0-.43.4,2.32,2.32,0,0,1-.72,1.14c-.07.11-.19.2-.25.31a7.14,7.14,0,0,0,0,1c0,.3.4.34.61.48a1.82,1.82,0,0,1,.81.83,5.44,5.44,0,0,0,.51,1.06.83.83,0,0,1,.15.43,6.28,6.28,0,0,0-.17,1.08,3.53,3.53,0,0,0,0,.72,1.15,1.15,0,0,0-.14.58c0,.33.05.66,0,1a12.61,12.61,0,0,0,.14,2.84,1.49,1.49,0,0,0,.46.52c.17.17.46.13.59.35a2.38,2.38,0,0,0,.76.78c-.48.2-1.11.08-1.5.49.51.52.79,1.23,1.27,1.77a.32.32,0,0,1,.15.31c0,.13.12.26.24.31s.09.23.17.31.15.19.07.34c.1.1.18.16.18.3s.24.12.29.22.21.3.26.48-.08.32-.15.46a.52.52,0,0,1-.3.28,7,7,0,0,1-1,.89.65.65,0,0,1-.46.11l-.7-.06c-.2.84-.44,1.67-.62,2.52a2.53,2.53,0,0,0,.15,1.1,1.64,1.64,0,0,0,.25.7,5.56,5.56,0,0,0,.78.86c.58.61,1.14,1.23,1.72,1.83.2.16.35.43.63.42s.71.08,1.06.12c.28.21.18.66.49.85s.31.36.55.4a2.32,2.32,0,0,1,.83.39,3.52,3.52,0,0,1,1,.86c0,.15,0,.36.18.44s.27,0,.35.11a11.35,11.35,0,0,1,.45,1.21.73.73,0,0,1,.06.48c0,.56-.13,1.11-.22,1.66,3.56.51,7.08,1.26,10.64,1.8,1.72-1,3.4-2,5.16-3a5.93,5.93,0,0,1-.15,2.8,3,3,0,0,0-.05,1l1.21.25c2.13-1.31,4.25-2.62,6.46-3.79A34.34,34.34,0,0,1,349.6,209a55.19,55.19,0,0,0,8.61-2.45,17.65,17.65,0,0,0,1.72-.83,11.83,11.83,0,0,0,1.33-.77c.81-.56,1.65-1.08,2.42-1.69a4.63,4.63,0,0,1,.58-.27,47.2,47.2,0,0,1,1.76-6.14,24.05,24.05,0,0,1,2.08-5l-.4-.44c-1,.18-2,.34-3,.5l-4.41.73a15.41,15.41,0,0,0-1.57-.64c-2.57-.95-5.16-1.85-7.74-2.76l-1-.31c-2.85.6-5.73,1.08-8.59,1.64a4.92,4.92,0,0,0-1.76.44,12,12,0,0,1-1.27.44,3.85,3.85,0,0,0-.87-2.15,7.63,7.63,0,0,0-2.17-1.32c-.25-.17-.91-.54-.44-.78a3.66,3.66,0,0,0,1.18-4,2.43,2.43,0,0,0-1.36-1.42,5.15,5.15,0,0,1-1.61-1c-.77-.73-1.53-1.46-2.27-2.23l-.43-.44a2.89,2.89,0,0,0-.82.52,4.91,4.91,0,0,1-.93.79c-.33.21-.71.36-1.06.54a2.3,2.3,0,0,1-1,0c-.17,0-.22-.24-.34-.35s-.26-.28-.25-.47-.09-.6-.17-.89a3.73,3.73,0,0,1-.21-.45.5.5,0,0,0-.18-.56.73.73,0,0,1-.19-.45c.16-.19-.13-.54-.1-.8s-.12-.34,0-.42a.68.68,0,0,0-.25-.4c-.11-.13-.3-.21-.3-.4s-.23-.46-.34-.69-.12-.27-.27-.3a.76.76,0,0,1-.42-.49.7.7,0,0,0-.1-.34.32.32,0,0,0-.18-.27c-.1-.13-.24-.21-.3-.37s-.18-.16-.28-.22a.58.58,0,0,0-.36-.16c-.14-.14-.25-.35-.49-.44s-.23-.19-.31-.36a6.59,6.59,0,0,1-.86-.32A11.77,11.77,0,0,0,319,170c-.33.05-.78-.16-1-.09-.05.25,0,.52-.08.76s-.47.74-.67,1.11a2.42,2.42,0,0,1-.12.59c-.11.22-.35.29-.53.43a1.07,1.07,0,0,1-.62.4,4.54,4.54,0,0,0-1.11.53c-.12.32-.13.67-.23,1s-.37.66-.59,1a3,3,0,0,1-.38.85,1.71,1.71,0,0,1-.42.53,1.94,1.94,0,0,0-.52.49,6.6,6.6,0,0,0-.41.59,3,3,0,0,1-.09.59l-.36.3Z"/><path id="13ba331e-47c8-461e-b7d9-80d1c713ee96" data-name="path697" class="9229cbad-226b-4273-8db9-96d25411a603" d="M362.79,210.58c1.06,1.8,2.51,3.39,3.65,5.12,1.7,2,2.86,4.59,5.17,6,4.24.67,8.52,1.14,12.74,1.85,3,.41,5.94.76,8.87,1.3l-.23-.37-.19-.35-1-1.29-.48-.68c-1-1.52-2.1-2.88-3.14-4.39.9-3.62,1.84-7.24,2.75-10.86l1.13-.7,6.36,1.67c1.61-1.45,3.26-3.9,5.06-5.21l3,.5,2.15-1.64,1.51-.51,1.82-.6.52-.44,1.65-1.24,1.1,1.5,1.64-1.18,4.5-3.28.29-1.47.23-1.9.17-.41,1.16-8.18.11-.77-.33,0-.7-.37,0,0-.32-.21,0,0-.59.44-2-.46.22-.66,2.26-.39.15-.18.19-.54.19-.26.35-.36c-2.48-3.39-5-6.73-7.5-10.13-1.32-1.52-2.44-3.41-3.74-5q-4.85,3.57-9.65,7.2l1.21,1.65,1.16,1.61,1.22,1.66-1.62,1.21-1.59,1.17-1.58,1.18-1.74,1.28-1.2-1.63c-3.31,2.46-6.67,5.11-10,7.49q-9.4,1.7-18.79,3.43l0,.45-.32.26h-.5a36.77,36.77,0,0,0-2.66,6.65,116.63,116.63,0,0,0-2.65,12.09Z"/><path id="018c0c0c-a420-4b95-97ad-4a8fea458b1c" data-name="path25" class="9229cbad-226b-4273-8db9-96d25411a603" d="M403.5,202.69l3,.5c.73-.55,1.45-1.12,2.19-1.65l3.29-1.11c.69-.6,1.45-1.12,2.17-1.68,1.14,1.57,2.31,3.11,3.47,4.66q1.6-1.18,3.22-2.34,3.5,4.88,7.12,9.69c1-.77,2.11-1.5,3.15-2.27a2.85,2.85,0,0,0,.1.62c.25.15.58.2.72.48,1.14,1.47,2.23,3,3.35,4.45l-.86.4-.79-1c-.52.26-1.06.5-1.56.78-.43.46-.9.89-1.3,1.38-1.52,2.23-3,4.46-4.54,6.71-.16-.07-.37-.34-.45,0-.61.92-1.13,1.91-1.71,2.84a19.16,19.16,0,0,0-1.3,2.1c-.77,1.64-1.57,3.26-2.37,4.89-.53,1.46-1.09,2.91-1.6,4.38,0,.19-.12.43-.08.58l2.14.83.53-.75.64,0-11.27,19.12,7-13.94-1.41-1.09-1.41,2.66c-.62.42-1.23.86-1.86,1.26-.57.17-1.16.27-1.72.48s-.85.35-1.24.56L401.36,259a3.82,3.82,0,0,1-.63,1.07c-.86,1.26-1.74,2.51-2.59,3.77-.17.34-.3.71-.44,1.06a17.65,17.65,0,0,0-.94,1.51c-.16.4-.23.84-.38,1.24-1.61,5-3.25,10.08-4.84,15.13-.77,2.55-1.59,5.09-2.42,7.63l-.44,1.35c-.13-.1-.51-.09-.44-.28l.87-2.59-1.55-2.32c-.17,0-.41-.24-.18-.36l.7-1.94c.29,0,.27.16.15.37l-.22.62.61.18c-.09.21-.15.41.14.42s.06-.47.32-.27l1,.29c.21-.88.49-1.73.75-2.59l-1.71-1.08,2.09-6.27-.84-.43,2.24-6.72c-.14-.12-.39-.21-.47-.35l.24-.67c.18,0,.46.12.56-.09,1.27-1.91,2.56-3.81,3.82-5.72.08-.12.09-.47.21-.45.19.2.32.12.43-.11,3.84-5.67,7.68-11.35,11.54-17l3.83-.48c.66-.78,1.36-1.54,2-2.33l.69-2.22c-.16,0-.47-.26-.46,0-.18,0,0-.37.12-.29,0-.17.33.09.43,0l.8-2.8-1.09-.32-.6,2c-.25-.18-.27.08-.31.27s-.18.4-.1.54.5.09.43.28c0,.35-.37-.11-.4.13s0,.5-.3.35c-.31,0-.13-.24-.1-.42l.83-2.86c-.16,0-.46-.24-.51,0l-.88,3.14c-.31,0-.14-.24-.1-.43s-.06-.29-.27-.34-.49-.05-.32-.3l.84-2.85c-.15-.08-.49-.06-.5-.22l.2-.72,3.08.89.21-.7-1.09-.29c0-.18.23-.46-.08-.43l-.61-.14.43-1.57,1.81.49c.32-1.11.62-2.23.95-3.33.1-.17.31-.37,0-.41s-.23.26-.35.37l-.41.73c-.19-.1.13-.32.16-.47l.35-.59-.95-.57-1,.34-.86,3.18a7.09,7.09,0,0,1-.83-.22,10.37,10.37,0,0,0-.82-.72c.11-.24.29.12.43.18s.36.44.39.13.24-.43,0-.51l-.55-.37c.09-.29.29,0,.44.1s.35.34.36,0,.16-.4-.11-.48l-.51-.33c.07-.24.32.1.48.13s.36.23.35-.08.06-.37-.19-.43-.41-.15-.49-.28.33.09.48.1.38.19.38-.11.08-.37-.18-.41-.48-.11-.49-.27.33.08.48.09.4.19.39-.12.16-.43-.14-.39c-.15-.08-.53,0-.46-.22.14,0,.39.06.58.07s.52-.12.78-.18l1.45-.49c-.11-.19.13-.39,0-.55s-.32-.33,0-.22.21-.26.3-.4l.45-1.27-1.51.23c0-.22.33-.11.47-.19l1.08-.17c.07-.24.24-.46.14-.71s0-.49-.16-.52l-2.07.33c-.13-.25.27-.15.41-.22l1.71-.29-.15-1-2.26.37c-.13-.25.27-.14.41-.21l1.81-.29-.1-.83-2.31.36c-.15-.26.25-.16.4-.23l1.88-.3c0-.17,0-.45-.1-.56l-2.36.34c-.11-.22.31-.12.44-.19l1.91-.3c.06-.23-.26-.25-.2-.49s-.37,0-.52,0l-1.56.22c-.08-.23.31-.13.46-.2l1.56-.23a3.84,3.84,0,0,0-.54-.39l-1.71.23c-.13-.27.23-.17.39-.22l1.15-.15a3.44,3.44,0,0,0-.51-.42l-1,.16c-.18-.26.2-.18.36-.23s.55,0,.49-.12-.32-.31-.55-.24a9.7,9.7,0,0,0-1.19.12L415,225l-3,3.66c-.22.06-.38-.08-.53-.23l-1.14-1a6.22,6.22,0,0,1,0-.83l2.65-3.3c-.15-1-.29-1.93-.41-2.9,0-.2,0-.42-.23-.52s-.25.29-.38.4c-1.44,1.79-2.85,3.59-4.31,5.37-.67.8-1.34,1.59-2,2.37.13.13.46.22.22.41s.21.27.3.41l4.57,3.74c.12-.19.25-.33.43-.11s.11.35.16.53-.11.33-.22.49l-1.24,1.49a3.69,3.69,0,0,1-.66.05c-.16-.12-.39-.24-.14-.4s-.17-.27-.26-.4c-1.62-1.33-3.21-2.69-4.87-4-.08-.18-.07-.35-.29-.46l-1.15-1,1.19-1.44c-.5-.24-1-.53-1.51-.74-2.11-.51-4.2-1-6.32-1.52a21.23,21.23,0,0,1-2.42-.28c-.24,0-.32-.18-.42-.35a19.21,19.21,0,0,0-1.31-1.87c-1-1.52-2.15-3-3.22-4.48-.51-.41-.09-1,0-1.52.81-3.25,1.65-6.5,2.47-9.75l1.13-.7,6.36,1.67c1.79-1.64,3.11-3.75,5.06-5.21Z"/><path id="82c6daf0-0417-4e75-be13-a3811e0620af" data-name="path4299" class="2a77abad-8c1f-4c0d-8f3a-0bd8f209a26e" d="M354.66,147.2c.1.1.27.5,0,.31-.11,0-.28-.21-.42-.29-1.24-1-2.46-2-3.72-3a11.08,11.08,0,0,1-.95-.66l-3.22-2.48c-.12,0-.29-.23-.43-.3.05-.1.36-.11.47-.23s0-.6,0-.87a7.13,7.13,0,0,0-.49-.85,14.59,14.59,0,0,1-.35-1.51c0-.22.21-.38.18-.61A3.71,3.71,0,0,1,346,135c.44-.69.9-1.36,1.32-2.06a.52.52,0,0,0-.14-.6,10.06,10.06,0,0,0,.93-.83c.26-.17.29-.49.46-.73s.27-.53.56-.61c0-.28.35-.43.38-.72s.34-.34.28-.57c.22-.28.31-.65.53-.94a4.26,4.26,0,0,0,.73-.33,3.25,3.25,0,0,0,.46-.63l3.88-3.23c-.17-.14-.24-.28,0-.44.43-.5.93-.94,1.34-1.46.41-.36.86-.69,1.24-1.07.13-.27.06-.58.19-.85a11.24,11.24,0,0,1,.66-1.2c.18-.25.17-.6.43-.79s.17-.37.32-.51.14-.29,0-.48a4.23,4.23,0,0,1-.21-1.2c0-.4.37-.66.49-1a15.33,15.33,0,0,0,.66-1.59,4,4,0,0,0,.17-1.69,4.42,4.42,0,0,1,.24-1.5,1.42,1.42,0,0,0,.77-1.52c-.11-.35-.38-.74-.17-1.11a1.57,1.57,0,0,1,.38-.67c.14-.17.3-.33.28-.57s.26-.57.51-.81.39-.9.81-1a1.82,1.82,0,0,0,.74-.08,2.35,2.35,0,0,1,.85-.11,1.63,1.63,0,0,0,.76-.51c.2-.22.52-.37.53-.71a4.46,4.46,0,0,0,.12-.88c.49-.17,1-.31,1.27-.83a1.38,1.38,0,0,0,.33-.49c.14-.22.32-.39.46-.61a5.59,5.59,0,0,1,.46-.61c.24-.18.07-.53.28-.72a8.43,8.43,0,0,1,1.5.61.64.64,0,0,0,.53-.15,1.82,1.82,0,0,0,.49-.38,5.28,5.28,0,0,0,.69.29l.46-.37a19.12,19.12,0,0,0,3.72,1c.46.08.63.53.84.88.11.19.32.14.51.13a4.41,4.41,0,0,0,1.16-.35,3.14,3.14,0,0,0,1.19-.16c.37.15.72.6,1.21.57s.87.36,1.34,0a2.36,2.36,0,0,1,1.64.23c.24.28.38.67.72.83a1,1,0,0,0,.53.31c.2,0,.36.19.55.27s.41-.11.58-.21a1.41,1.41,0,0,1,1.22-.37,10.65,10.65,0,0,0,1.77.2c.26,0,.45.19.7.22a1.65,1.65,0,0,0,1.07-.37c.27-.19.38-.53.57-.79a2.52,2.52,0,0,0,.48-.92,1.81,1.81,0,0,1,1.73-1,1.78,1.78,0,0,0,.81-.27,3.06,3.06,0,0,1,.93-.33,1.62,1.62,0,0,1,1,.27c.23.15.45.34.67.48.5,0,.9-.31,1.34-.49l1.08-.54c.16.12.54.86.28,1.24-.14.18,0,.44-.26.56a22.91,22.91,0,0,1-1.6,2,3.9,3.9,0,0,1-1,.76,1.16,1.16,0,0,1-.58,0c-.23.06-.1.34,0,.42a.72.72,0,0,1,.34.49c0,.5-.32.89-.51,1.32s-.49.23-.75.29a3.05,3.05,0,0,1-1.15,0,.22.22,0,0,0-.13.39,1.94,1.94,0,0,1,1.26.76.79.79,0,0,0,.48.35,1,1,0,0,1,.61.55c.19.34,0,.76.17,1.1a.86.86,0,0,1,.35.59c.08.27,0,.57.08.84a2.87,2.87,0,0,0,.24.95c.11.44.49,1.2,1,1.11.08-.09.32-.38.37-.16a.56.56,0,0,0,.36.38c.46.36.9.75,1.37,1.1.25-.07.41.2.61.31a1.15,1.15,0,0,0,.69.26.59.59,0,0,1,0,.77c-.13.25-.44.06-.65.09a.82.82,0,0,0-.73.31,1.68,1.68,0,0,0-.38,1.17,3.88,3.88,0,0,0,1.23,2.7c.41.42.85.82,1.27,1.24-.15.18-.29-.28-.44-.16s-.43.4-.63.6c.34.15,1,.48,1,.79a.26.26,0,0,1-.46,0c-.2-.15-.26.18-.38.29s-.32.35,0,.41l1.35.73c-.07.19-.19.36-.25.55-.43.06-.39,1-.69,1.36,0,.43-.51-.23-.49.27a18,18,0,0,0-1.28,3.66c-.09,1,.49,1.92.67,2.9.88.77,1.65,1.65,2.49,2.47a1.66,1.66,0,0,1-.67.24c0,.16-.21.24-.31.37s-.41,0-.57.16c-.67.38-1.31.82-2,1.22,0,.23.28.27.45.36a24,24,0,0,0,3.13,1c1,.29,2.06.68,3.1,1a10.39,10.39,0,0,1,2.48,1.15c1.91,1.05,3.81,2.14,5.73,3.17a8,8,0,0,1,.58,1.15c1.25,2.63,2.6,5.21,3.94,7.8.27,0,.46.22.68.34l.37.65c-.4.39-1,.51-1.31,1a19.38,19.38,0,0,0-1,4.55,7.91,7.91,0,0,1-.14,1.22,2.67,2.67,0,0,1-.74.69c-1.48,1.11-3,2.14-4.48,3.26q-5.8,4.26-11.54,8.6c-1.54-2-3.08-4-4.55-6.1-.07-.36-.49-.46-.62-.78a25.82,25.82,0,0,1-1.16-2.46,8.32,8.32,0,0,0-.58-1.23l-.69-1.56c0-.21.2-.31.18-.51a.74.74,0,0,0-.25-.48,2.44,2.44,0,0,0-.86.27,3,3,0,0,1-.93-.53,9.55,9.55,0,0,1-.85-1.12,7.56,7.56,0,0,1-.9-1.92c-.14-.44-.2-.89-.31-1.34a.35.35,0,0,0-.58.08c-.31.44-.59.92-.93,1.34-.38.16-.84.13-1.16.42-.24.14-.53.46-.81.26s-.26-.45-.48-.56c-.27-.41-.61-.78-.86-1.21a10.5,10.5,0,0,0-1-1.42c-.12-.17-.2-.39-.44-.39l-.72-.21c0-.41-.37-.67-.59-1a2.21,2.21,0,0,1-.4-.72c-.07-.35.22-.64.34-.94a4.22,4.22,0,0,0,.9-1.52c.12-.41.21-.83.3-1.24-.23-.17-.55-.06-.8-.2-.45-.14-.9-.26-1.34-.41a6,6,0,0,1-.76-.2c-.08-.21.29-.28.26-.5,0-.47.15-.93.16-1.4-.13-.28-.47-.19-.72-.25-.44,0-.89-.14-1.33-.14s-.87.34-1.32.43l-2.25.26a1.08,1.08,0,0,0-.74.4c-.23.21-.52.35-.75.58-.22.06-.34-.12-.44-.28-.52-.78-1.09-1.52-1.64-2.27-.32-.28-.73,0-1.07,0a3.82,3.82,0,0,0-.87.25c-.17.08-.39.09-.43.31L369.3,145c-.79-.45-1.59-.87-2.37-1.32-.19-.11-.41-.27-.34-.52a.42.42,0,0,1,.32-.46c.28-.13.7-.16.77-.53s0-.58-.06-.87a3.74,3.74,0,0,0-.49-1.68,1.73,1.73,0,0,0-1.3-.68.66.66,0,0,1-.53-.63,9.72,9.72,0,0,0,.07-1,1.38,1.38,0,0,0-.63-.6c-.18-.06-.42-.41-.56-.12.12.43.55.86,0,1.25a3.4,3.4,0,0,1-.87.67,3.21,3.21,0,0,0-.68,1.33c0,.33.36.53.49.82a3,3,0,0,1,.47,1.47c-.14-.06-.21-.3-.32-.43s-.21-.4-.45-.45a1.38,1.38,0,0,0-1,0,2.74,2.74,0,0,1-.61-.18c-.42,0-.67.56-1.15.4s-.88.06-1.32,0c-.25,0-.22.35-.14.52.27.62.57,1.24.83,1.85a.4.4,0,0,1-.4.42,6.17,6.17,0,0,0-1.08.44c-.28,0-.4-.25-.42-.48a.78.78,0,0,0-.42-.68c-.16-.13-.32-.24-.51-.1-.17.38-.52,1.11-1.07.62-.22-.14-.17-.44-.31-.63-.3-.14-.48.41-.79.22s-.38,0-.55.13a.69.69,0,0,0-.53.32c-.1.21,0,.35.24.42a1.15,1.15,0,0,1,.48.63c0,.28-.22.43-.4.59s.17.49.33.66a2.39,2.39,0,0,1,.56.74Z"/><path id="6a2b3984-c0ce-4b67-b6a0-fad217a826ee" data-name="path4301" class="9229cbad-226b-4273-8db9-96d25411a603" d="M364.49,137.37a1.7,1.7,0,0,1-.8.88c-.08.17-.13.25-.28.17a4.18,4.18,0,0,0-.63,1c-.08.2-.19.43,0,.63a3.66,3.66,0,0,1,.82,1.54c0,.13.21.5,0,.5-.17-.26-.32-.54-.5-.78a1.5,1.5,0,0,0-.61-.17,3.2,3.2,0,0,0-.57.12,1.68,1.68,0,0,1-.56-.17c-.13,0-.27,0-.37.11s-.24.27-.42.25c-.36.06-.73,0-1.1,0a2.81,2.81,0,0,1-.62,0c-.11,0-.21.09-.18.22a.82.82,0,0,0,.18.6c.19.36.34.74.49,1.12a4.27,4.27,0,0,1,.2.41.35.35,0,0,1-.27.4,3.86,3.86,0,0,0-.85.32,1.45,1.45,0,0,1-.39.16.32.32,0,0,1-.32-.24c-.1-.23-.05-.51-.23-.71s-.29-.22-.44-.33-.21,0-.32,0-.12.2-.18.3a1.6,1.6,0,0,1-.26.42.77.77,0,0,1-.46,0c0,.09.47.35.63.07s.5-.19.37.1-.14.46-.17.69,0,.51.11.75l.27.6.92.31,1.17-.43a2.52,2.52,0,0,1,.69.43c.56.41,1.14.82,1.7,1.24.49.74,1,1.46,1.45,2.23l.69,1.13-.41,1,1.1,1.85c.21.14.43.26.63.4.41.62.87,1.21,1.31,1.81s.85,1.13,1.24,1.73c.23.32.47.63.72.92.09.09.18.22.32.21.86.28,1.73.55,2.62.76a15.87,15.87,0,0,1,2.13.58,2,2,0,0,1,.88,1.55,3.81,3.81,0,0,0,.24,1c.38.9.73,1.8,1.11,2.7a5,5,0,0,0,.5,1c.31.46.63.91.95,1.37l-.39.3c.06.1.18.21,0,.27s.09.09.16.14.12.26.21.25.14.13.21.19,0-.18,0-.28.19-.13.26-.2.15.18.22.26c.23.36.49.71.72,1.07a1.21,1.21,0,0,1,.05.59,1.15,1.15,0,0,0-.18.73c.05.57.17,1.13.23,1.69,0,.16-.06.35-.19.47a2.07,2.07,0,0,0-.43.65c-.07.22-.18.44-.23.67a8.7,8.7,0,0,0,.43,1.22c.21.51.37,1,.63,1.53a1.25,1.25,0,0,1,.09.56,2.67,2.67,0,0,1-.09.77,1.93,1.93,0,0,0-.08.58c.46.86.9,1.73,1.38,2.58.25.45.49.9.76,1.34a19.09,19.09,0,0,1,2.18,4.5c.1.15,0,.59.2.53l4.64-.84c3.4-2.41,6.67-5,10-7.49l1.2,1.63c1.19-.87,2.38-1.76,3.56-2.64q1.49-1.09,3-2.2c-2-2.79-4.07-5.58-6.17-8.32-.66-.88-1.33-1.76-2-2.66-.07-.15-.11-.31-.25-.4a1.22,1.22,0,0,1-.4-.46c-.92-1.68-1.55-3.5-2.41-5.21a.47.47,0,0,1,.16-.33.53.53,0,0,0-.08-.48c-.06-.11-.11-.22-.26-.19a5,5,0,0,0-.74.27,5.93,5.93,0,0,1-.67-.32,2,2,0,0,1-.5-.48,10.93,10.93,0,0,1-1.35-2.25,9.65,9.65,0,0,1-.34-1.26,5.91,5.91,0,0,0-.14-.61.31.31,0,0,0-.37-.08c-.19.08-.26.3-.38.45-.25.35-.46.73-.75,1.06-.29.13-.62.14-.92.26a5.07,5.07,0,0,1-.78.48.37.37,0,0,1-.42-.22c-.11-.13-.16-.31-.33-.37-.22-.37-.53-.66-.74-1s-.57-.91-.86-1.36a3.35,3.35,0,0,1-.47-.6l-.94-.27a.54.54,0,0,0-.11-.37,8.28,8.28,0,0,0-.59-.72,5.68,5.68,0,0,1-.29-.55.81.81,0,0,1,.15-.63,2.72,2.72,0,0,1,.4-.64,5.79,5.79,0,0,0,.58-.88,15.32,15.32,0,0,0,.41-1.61.65.65,0,0,0-.41-.11,4.6,4.6,0,0,1-.77-.2c-.29-.09-.59-.15-.87-.27l-.83-.2c-.12-.12.07-.23.14-.32s.09-.27.13-.41c0-.38.12-.76.13-1.14a.29.29,0,0,0-.27-.27l-1.71-.2a4.68,4.68,0,0,0-.86.27,2.15,2.15,0,0,1-.68.18c-.69.09-1.37.17-2.06.24a1.2,1.2,0,0,0-.68.3c-.23.28-.59.42-.84.68-.1,0-.25,0-.31-.08-.31-.41-.59-.86-.9-1.27s-.59-.82-.9-1.21a.61.61,0,0,0-.58-.09,8.77,8.77,0,0,0-1.69.51l-.63,1.3L367,143.68c-.15-.12-.39-.2-.39-.42a.75.75,0,0,1,.1-.47c.25-.18.59-.21.85-.38a1,1,0,0,0,.2-.47,8.93,8.93,0,0,0-.35-1.86,1.86,1.86,0,0,0-1.41-1.17.7.7,0,0,1-.55-.24c-.09-.09-.07-.25-.12-.36a9.68,9.68,0,0,0,.07-1,1.18,1.18,0,0,0-.45-.48l-.59-.37c-.44.22.24.62.17.92h0Z"/><path id="c9339182-04c2-47de-bb6b-e9b3662c20f0" data-name="path4295" class="2a77abad-8c1f-4c0d-8f3a-0bd8f209a26e" d="M399.44,111.88c.08.16.12.37.32.43.51.35,1,.79,1.46,1.15.21-.07.34.13.49.22a1.09,1.09,0,0,0,.66.32c.25,0,.37.3.3.5s-.14.48-.38.41a1.54,1.54,0,0,0-.86.06,1.73,1.73,0,0,0-.57.81,3.14,3.14,0,0,0,.11,1.58c.36,1.25,1.47,2,2.33,2.93-.13.13-.25-.14-.38-.2a7.65,7.65,0,0,0-.68.64c.34.14,1,.47,1,.78-.13.1-.26.26-.39.07s-.29-.12-.34.07l-.32.47,1.54.83c-.07.19-.19.36-.25.55-.3-.11-.28.52-.42.71s-.17.86-.49.78-.28.36-.42.53a16.51,16.51,0,0,0-1.11,3.17c-.14,1.06.47,2,.66,3,.85.73,1.59,1.58,2.38,2.36.23.14-.1.18-.2.26s-.37,0-.37.17-.19.2-.3.3-.39,0-.54.14c-.68.38-1.33.83-2,1.24,0,.19.2.23.33.32.66.26,1.33.48,2,.69a31.21,31.21,0,0,1,3.15.92c.76.26,1.52.55,2.28.8a4.85,4.85,0,0,1,.88.45c2.1,1.17,4.19,2.36,6.31,3.49l1.51.15.25-2.2c-.16-.16,0-.37,0-.56a6.18,6.18,0,0,1,.26-1.4c0-.41.3-.2.56-.09,2.6,1.06,5.42,1.34,8.15,1.93l.48-.27c-.58-1.67-1.28-3.31-1.8-5a2.2,2.2,0,0,1,0-.93,5.16,5.16,0,0,1,.52-1.49c.11-.31.46-.45.53-.78,2.17-5,3.93-10.22,6.17-15.22a1.93,1.93,0,0,1,.16-.8c.68-1.73,1.38-3.45,2.05-5.18.19-.53.36-1.07.56-1.6a3.67,3.67,0,0,0,.45-1c.35-.94.71-1.87,1.1-2.79a25.61,25.61,0,0,0,1.37-5.22c.14-1,.1-1.91.15-2.87a9.89,9.89,0,0,0-.74-4.3c-.21-.24,0-.36.18-.49a3.14,3.14,0,0,1,.65-.16.48.48,0,0,0,.45-.07c.1-.09.4-.11.34-.26a4.18,4.18,0,0,0-.37-.77,7.35,7.35,0,0,1-.37-1.66,9.22,9.22,0,0,1-.09-1.5c0-1.47.18-2.94.29-4.41.25-3.11.56-6.22.81-9.34a8.27,8.27,0,0,1-.88-.06c-.14-.07,0,.33-.26.16s-.58-.08-.85-.15a4.6,4.6,0,0,1-1-.9,1.9,1.9,0,0,0-1.15-.26c-.29,0-.58.08-.86.06s-.28.1-.42.14-.43,0-.66,0-.7.17-1.06.16a3.9,3.9,0,0,1-.89,0l-1.19.06-.89-.71a5.81,5.81,0,0,0-.21,1.37,2.74,2.74,0,0,0,0,.92,5.22,5.22,0,0,0,.41.93c.13.11.29,0,.41-.05s.47-.2.6-.43.18-.3.33-.34,0,.23,0,.31-.1.33-.21.43-.15.2-.2.33-.36.24-.41.43c.15.46.33.91.47,1.37,0,.21-.25.14-.38.18-.58.06-1.16.15-1.73.21-.16.06-.33,0-.5.07-.5.07-1,.09-1.49.2-1.24.37-2.62.33-3.72,1.07l-1.34,1.29a8.31,8.31,0,0,0-1.95,1c-.24,0-.21.29-.32.42s-.27.33-.43.43-.3-.3-.48-.15-.31-.09-.46,0-.31,0-.45.09-.29.25-.48.21c-.36.21-.8,0-1.18.16s-.88.42-1.38.32c-.18,0-.07-.33-.12-.48L413.74,82l-.65,0,.14,2.33c.25,0,.27,0,0,.07a2.28,2.28,0,0,1-.73.22c-.19.26-.35.54-.55.79-.83.46-1.67.9-2.52,1.33-.26.53-.49,1.08-.78,1.59l-1.22,1.8a12.26,12.26,0,0,0,1,1.94,1,1,0,0,1,.16.7c-.11,1-.24,2-.33,3l.45,2c-.72.78-1.42,1.59-2.14,2.36a1.12,1.12,0,0,1-.67.11c-.65-.33-1.29-.69-2-1s-1.54-.43-2.29-.68a2.56,2.56,0,0,0-1.1-.34c-.21-.1-.26.12-.15.26a1.2,1.2,0,0,1,.24.59c.1.35-.15.69-.23,1-.3.33-.52.73-.82,1.05a7.25,7.25,0,0,1-1.54,1.57.89.89,0,0,1-.75.23c-.12-.05-.35,0-.28.17s.46.35.48.65a1.34,1.34,0,0,1-.27,1,5.59,5.59,0,0,1-.33.58,3.72,3.72,0,0,1-.9.14,2,2,0,0,1-.84,0,.22.22,0,0,0-.23.32c.31.16.81.19,1.06.54s.38.56.72.62a.82.82,0,0,1,.55.43c.29.32.11.78.22,1.16.08.17.31.25.34.47a2.15,2.15,0,0,1,.07.84,8,8,0,0,0,.25,1c.17.42.29.91.72,1.14.14.12.27.19.36,0a2.69,2.69,0,0,1,.25-.17Z"/><path id="581d3098-3e37-4d60-83c2-ec97b91a906d" data-name="path4293" class="2a77abad-8c1f-4c0d-8f3a-0bd8f209a26e" d="M417.32,140.23c0,.19-.14.4,0,.56l-.25,2.2-1.51-.15c1.39,3,2.94,6,4.46,8.91.27,0,.45.23.68.34l.37.65c-.35.29-.76.49-1.13.75a4.84,4.84,0,0,0-.57,1.42,20.82,20.82,0,0,0-.73,4.55c1.37-1,2.73-2,4.11-2.94,2,2.68,4,5.38,6,8.1q1.47-1.11,2.91-2.25c.13-.07.27-.3.36-.08l1.17,1.44c.55-1.27,1.08-2.55,1.64-3.81.51-1,1-2.06,1.46-3.09.53-1.29,1-2.59,1.6-3.86.24-.54.46-1.09.68-1.64.15,0,.33.18.41,0a3.93,3.93,0,0,0,.37-1.09c.22-.78.41-1.57.65-2.34l1.27-3.3c-.09-.12-.3-.21-.18-.38a8.13,8.13,0,0,1,.92-1.87c.28-.47.52-1,.82-1.42a3.93,3.93,0,0,1,1.54-1.26,4.07,4.07,0,0,1,3.29-.07,19.45,19.45,0,0,1,4.75,3.33c.78.66,1.53,1.37,2.36,2a1.7,1.7,0,0,1,.19-.42,4.09,4.09,0,0,0,.14-1.23c0-.3,0-.62.1-.91s.42-.45.58-.69-.19-.25-.29-.38l-.7-.61.14-.86c-.18,0-.09-.28-.14-.41a17.33,17.33,0,0,1-.1-2,4.33,4.33,0,0,1,0-1,10.37,10.37,0,0,0,1.09-.32c.12.16.29,0,.44,0a4.56,4.56,0,0,1,1.21-.27c.38,0,.75,0,1.13,0,.61,0,1.21-.09,1.82-.13-.23-1-.45-2-.72-3,.1-.24,0-.5,0-.75-.06-.53-.16-1.06-.2-1.58a.86.86,0,0,0,.09-.53q-.2-2.86-.37-5.73c-.1-.74-.21-1.47-.37-2.2a17,17,0,0,0-.63-2.32,18.72,18.72,0,0,0-.77-2A68.1,68.1,0,0,0,449,102.66a18,18,0,0,0-1.31-1.65c-.41-.43-.74-.93-1.11-1.39s-.71-.9-1.08-1.34c.06-.13-.17-.25-.22-.38-1.12-1.43-2.25-2.84-3.33-4.29l-.46-.63c-.1,0-.27-.2-.22-.29a7.92,7.92,0,0,1-.74-1.17c.27-.14-.24-.49-.26-.71a12.14,12.14,0,0,1-1.61-6.56c-.14-.1-.31-.2-.27.06-.08,1-.19,2.08-.24,3.13a12.87,12.87,0,0,0,0,2.13,5.87,5.87,0,0,0,.22,1.28,2.84,2.84,0,0,0,.36.94c.09.17.15.35.22.52a6,6,0,0,1-.61.29,2.11,2.11,0,0,0-.81.09c-.09.11-.33.17-.33.31.18.56.41,1.12.57,1.69a9.8,9.8,0,0,1,.25,1.74c0,.91,0,1.83,0,2.74a19.89,19.89,0,0,1-.67,3.95,23.71,23.71,0,0,1-1.28,3.63c-.32.82-.62,1.65-.94,2.46a3,3,0,0,0-.41.94c-.41,1.25-.94,2.47-1.42,3.7-.34.88-.71,1.76-1,2.64a1.58,1.58,0,0,1-.18.78c-2.22,5-4,10.17-6.14,15.17a1.88,1.88,0,0,0-.49.66,5.44,5.44,0,0,0-.5,1.54,3.63,3.63,0,0,0,0,.81c.54,1.67,1.21,3.29,1.79,4.95l-.48.27c-2.89-.62-5.89-.91-8.62-2.13a4.37,4.37,0,0,0-.28,1.12l-.07.56Z"/><path id="bac76bae-ae31-405f-b659-e0dacfbc7e35" data-name="path4287" class="2a77abad-8c1f-4c0d-8f3a-0bd8f209a26e" d="M467.62,167.8c-.33-1.11-1.33-1.81-1.9-2.78s-.91-2.08-1.48-3.05a30.12,30.12,0,0,0-3.66-4.46c-.3-.33-.77-.43-1.09-.69l-.69-.93a23.24,23.24,0,0,0-.47-3.47c-.23-.58-.78-.89-1.22-1.29a1.28,1.28,0,0,1-.37-.42c0-.39-.12-.76-.14-1.14-.11,0-.16-.2-.31-.22a2.78,2.78,0,0,1-.55-.32,1.65,1.65,0,0,1-1.12.14c-.24,0-.33-.28-.51-.39a5.14,5.14,0,0,0-1-.67.18.18,0,0,1-.15-.31.92.92,0,0,1,.31-.45c.17-.28.21-.65.48-.86a3.22,3.22,0,0,0,.47-.55,1,1,0,0,0,.33-.51,4.16,4.16,0,0,1,.22-.56c-1.34-1-2.51-2.17-3.82-3.19a11.75,11.75,0,0,0-3.95-2.32,4.22,4.22,0,0,0-3.32.68,4.77,4.77,0,0,0-.94,1c-.44.81-.92,1.59-1.35,2.4a4,4,0,0,0-.34.9c.09.12.3.22.17.38-.42,1.12-.87,2.23-1.28,3.35s-.53,2-.8,2.93a1.19,1.19,0,0,1-.26.43c-.14,0-.35-.19-.37,0-.51,1.31-1.12,2.58-1.63,3.89-.3.76-.6,1.53-1,2.27s-.78,1.69-1.19,2.52l-1.53,3.58-1.26-1.56c-.9.68-1.77,1.39-2.67,2.07l-.51.39c-2-2.73-4-5.42-6-8.1-1.38,1-2.77,2-4.13,3a2.33,2.33,0,0,1-.6.61c-1.55,1.16-3.14,2.26-4.69,3.41l-1.87,1.39c1.35,1.61,2.42,3.44,3.8,5,2.44,3.38,5,6.69,7.44,10.05a1.92,1.92,0,0,0-.64.91.71.71,0,0,1-.26.43l-2.23.39-.22.66,2,.46.59-.44c.11.09.31.16.36.27a3.19,3.19,0,0,0,.45.26,1,1,0,0,0,.58.16q-.64,4.47-1.27,8.95a1.88,1.88,0,0,0-.21.74,23.34,23.34,0,0,1-.35,2.35,5.79,5.79,0,0,1-.16.7c-2,1.48-4.07,3-6.12,4.45l2.37,3.17q1.6-1.18,3.22-2.34,3.5,4.88,7.12,9.69c1-.76,2.1-1.5,3.14-2.25l.09.59a4.29,4.29,0,0,1,.63.33c1.18,1.52,2.32,3.08,3.48,4.61l.68-.53-2.36-3.12,3.14-2.39,1.83,2.49-2.35,1.71.52.77,2.43-1.77.45.62c-1.36,1-2.7,2-4.06,3l-1.34.94.59.76c.74-.48,1.5-.94,2.23-1.44s1.23-1,1.83-1.59l2.19-2.81-1-1.14c-.11.07-.24.32-.35.27L438.27,208c0-.22-.12-.46.05-.65a3.35,3.35,0,0,1,1.83-1.51c1.08-.11,2.09-.81,3.2-.56l.76,1c.07-.1.34-.19.29-.31-.4-.53-.79-1.07-1.2-1.6-.1-.1-.38-.2-.13-.29s.26-.2.34,0l1.27,1.72c.32-.16.25-.35,0-.57-.39-.52-.94-1.07-.86-1.78s.75-1.1,1.21-1.55a13.64,13.64,0,0,1,4-3.79,5.11,5.11,0,0,1,1.3-.44,11.93,11.93,0,0,1,.91,1.15l.86,1.15c.09-.09.39-.15.21-.29l-1.52-2,.41-.31a2.38,2.38,0,0,1,.54.72,7.52,7.52,0,0,0,.88,1.3c0,.16.4,0,.21-.14l-.67-.92a1,1,0,0,0-.08-.59.67.67,0,0,0-.31-.41,1,1,0,0,1,.26-.65,12,12,0,0,1,4.51-4,.42.42,0,0,1,.43.09c.15.09.36.1.44.29l.65.89c.17.06.28,0,.29-.22-.36-.5-.74-1-1.08-1.49,0-.2-.16-.33-.27-.47,1.33-1.84,2.51-4.12,4.63-5.17a.77.77,0,0,1,.55,0c.19,0,.21.2.27.34l.51,1.18c.19,0,.33,0,.19-.22l-.57-1.48c0-.15,0-.35.19-.42l2.78-2.08c.45-.32,1.66,2.48,2.06,2.09-.23-.45-1.28-1.42-.69-1.88.36-.22,4.14-1.09,4.49-1.33s1.09.92,1.35.61c.08-.13-1.23-1.59-1-1.58l.65-.51c.24-.26.91,1.3,1.13,1s2.27-2.29,2.69-2.58l.31-1.48-1.36-.53a8.58,8.58,0,0,0-1.6-1.17c-1-1.23-2-2.47-3-3.69-.64-.5-1.3-1-1.93-1.49-.16-.14.09-.28.17-.39s.31-.25.35-.44c0-.41-.43-.62-.65-.91a4.45,4.45,0,0,1-.77-1.59l-.08-.27Z"/><path id="6aa01c01-41bd-44eb-ba06-8c5af1e4710f" data-name="path707" class="2a77abad-8c1f-4c0d-8f3a-0bd8f209a26e" d="M349.9,240.33c-1.42,1.18-2.88,2.28-4.38,3.36l.17.35,0,.28.21.5.26.77a18.48,18.48,0,0,1-.63,3.18,5.37,5.37,0,0,1-.63,1.34,2.18,2.18,0,0,1-1,.37c.4,1,.86,2,1.21,3a16.94,16.94,0,0,0,.44,1.72,12.18,12.18,0,0,0,.52,1.33c.31-.21.31.28.44.46l.76,1.72c-.12.25.2.49.27.73a24.4,24.4,0,0,0,1.33,2.19,10.69,10.69,0,0,1-1.85.7l-.75.25-.35-.87-1.95.75.42.75-1,.47a.62.62,0,0,0-.69-.26,6.5,6.5,0,0,1-1.46,1,10.35,10.35,0,0,0-1.52.92c0-.36-.52.15-.61-.1s-.57,0-.52.11l-.79.21c-.06-.26-.44,0-.43-.41-.13-.15-.13-.71-.36-.56l-1.81,1.06.31.92a8.56,8.56,0,0,1-1.91.76c-6.6,1.85-13.2,3.68-19.79,5.54-1.36.4-2.72.84-4.09,1.21a13.86,13.86,0,0,0-2.11.56c-1.32.38-2.61.86-3.93,1.21a5.42,5.42,0,0,0-1.57.47l-.91.39a44.73,44.73,0,0,1,13.26,20.48c.88.81,1.74,1.64,2.63,2.43,1.67.89,3.32,1.81,5,2.68,2.35,1,4.7,2.05,7.08,3a37.25,37.25,0,0,0,3.67,1.21c1.1.3,2.19.65,3.3.93,3.58.34,7.17.65,10.75,1l12.44,2.78c.8-.83,1.64-1.64,2.42-2.48,1.11-2.49,2.18-5,3.31-7.46.27-.14-.13-.67.23-.54l5.79.88,11-21.74,1.11.37-5.83-2.09-.59-1.45a4.48,4.48,0,0,1-1.67.14c-.7-.07-1.41-.19-2.11-.23l-2.28.9-2,3.24c-.25-.11-.52-.33-.63.05l-10,15.07-3.06-1.85c.84-1.21,1.49-2.54,2.23-3.81l.43-.75-3.3-2.33,1.71-2.61,5.25.56,4-15.94.92.19-.29,1.09q.46.27.48-.26c.09-.22.1-.6.24-.72.19.14.68.13.52.46l-.16.81c.34,0,.48.18.3.51l-.4,1.48c.26.06.65,0,.45.41l-.5,2.3a6.62,6.62,0,0,0,1.92-.62l9.81-5.28c0-.34-.23-.64-.32-1l-.7-1.63c.35,0,.47-.17.3-.49s-.29-.77-.36-1.16l.36-1.68.81-.34,4.4,9.66c.18-.14.64-.18.63-.39l-4.19-9.72,1.39-.67a5.5,5.5,0,0,0,.93,1.6l4.59,4.95-.48.74c.24.29.34-.25.51-.38,2.36-3.38,4.75-6.74,7-10.17l1.76-2.59-3.38-4,1.57-2.45,5.23,3.6,2.08-3.12-3.68-2.79,4.1-5.23,3.93,2.86a11.84,11.84,0,0,0,1-1.43c.3-.46.61-.91.92-1.37,0-.28-.39-.34-.56-.52s-.49-.53-.63-.22-.38.07-.6-.06l-3.13-2.1c.12-.19.53-.48.08-.48-.29-.05,0-.47,0-.68l1.75-7.08c.28.22.48.11.65-.17s-.34-.35-.47-.52a.79.79,0,0,1-.42-.55l-1.33-1.12,1.19-1.44a16.45,16.45,0,0,0-1.54-.74c-2.73-.54-5.37-1.62-8.17-1.69-2.42-.55-4.91-.74-7.35-1.15l-15-2.15c-2.34-1.45-3.51-4-5.22-6.1-1.14-1.72-2.55-3.25-3.59-5,.48-2.54,1-5.07,1.47-7.61a11.06,11.06,0,0,0-1.86,1.18,20.71,20.71,0,0,1-2.43,1.52,16,16,0,0,1-3.33,1.39c-1.58.55-3.19,1-4.81,1.45a16,16,0,0,0-3.72,1c-2.07.87-4,2.08-6,3.12-1.66.93-3.28,2-4.91,2.94l-1.23-.26c0,.33.33.55.5.81.44.41.94.77,1.34,1.22.12.23.33.45.26.65s.25.44.31.7.09.61.37.78a12.55,12.55,0,0,1,2,2.2,4.59,4.59,0,0,1,.64.71c.25.21.24.4.38.55a15.21,15.21,0,0,0,1.51,1.27c.31.12.36.28.54.49.21,0,.33.35.51.5a9.68,9.68,0,0,0,.82,1.43,9,9,0,0,1,.93,2.31c.24.06.06.49.17.7a17.88,17.88,0,0,1,.37,2.42,5.77,5.77,0,0,1,.58,2.77,7.58,7.58,0,0,0,.64,2.65c.66.94,1.38,1.87,2.07,2.79Z"/><path id="3567f545-e550-4683-a7e4-cb34e885ef33" data-name="path3515" class="8b7ad98c-feea-4b8d-9eee-f03332dfd9df" d="M286.3,138.49l1.23,1.8-1.14,1-.57.4-2.92,3.46-2.14.59.36-.72,0-1.17-.13-1.06.11-.39,1.08-1.28,2.42-1,1-1.09.52-.82.11.25Z"/><path id="b02752f7-88e0-4bcb-b37d-94951c5aa292" data-name="path3509" class="8b7ad98c-feea-4b8d-9eee-f03332dfd9df" d="M273.31,105.43l-.16.64-.12.75.1.64,0,.4.09.15.14.09h.38l.56-.07,2-.49.2,3.33-.11.27,1,.14.56.05.56,0,1.29.33,3.31.85-1.41,3.64-.11.2-.13.36,0,.18,0,.3L281,118l-.29.59-.39.46-.37.61-.15.3,0,.41.09.57.08.93,3,1.38,1.29,4.88-1.92,6.34-3.13.52-.42.08-.4.13-.39.17-.44,0-2.3-.38-1,.34.58,2.19-.52,1.62-1,2.43-2.83.68-4.19.94.63.59.3.3.19.28.15.27.09.28.05.29.19.28-3.23,1.76L261.45,140l.78-.61.58-.55.67-.88.67-.74.68-.86.14-.48.32-1.28.23-.76.17-.46,0-.2v-.2l-.2-.58,0-.48-.19-.73,0-1.21-.12-.45,0-.29,0-.2.09-.28.07-.12,0-.16V128l-.09-.38-.26-.47-.31-.45-.28-.28-.26-.16-.47-.22-.31-.26-.06-.12,0-.17,0-.23-.65,0-.13-.49-.22-.52-.21-.41-.22-.26-.1-.07-.24,0-.07-.06-.16-.21-.23-.47.58-.43.37-.26.49-.2.55,0,.68-.13.66-.14,2.15-.64.46-.18.55-.31.36-.15.22-.12.16-.23.15-.3.09-.89.18-.77.14-.39.62-1.32.07-.22.08-.56.07-.88.29-8.36.43-2.52,2.63.3h.48l.07.09,0,.11-.11.23-.21.89Z"/></g></g><text class="685757cb-dd63-4c22-9a70-f3715a4a575b" transform="translate(134 201.58)">2</text><text class="685757cb-dd63-4c22-9a70-f3715a4a575b" transform="translate(378 201.58)">2</text></g><g id="15aecb25-1750-47da-bbf4-0d33f2460395" data-name="titulos"><text class="27e23951-0fe9-4098-bc56-9ff736d7753d" transform="translate(262.41 51.85)"><tspan class="bce7d3d6-78b3-49c4-98d6-11b8b0cd7de7">V</tspan><tspan x="6.52" y="0">ARIACIN INTERANUA</tspan><tspan class="3f1c1a89-2eff-410e-a21d-74d861f5232c" x="126.31" y="0">L</tspan><tspan x="132.02" y="0" xml:space="preserve"> DE PRECIO (%)</tspan></text><line class="db977f50-1966-4544-8cc5-04ddf3808a8f" x1="263.5" y1="55.5" x2="493.5" y2="55.5"/><line class="db977f50-1966-4544-8cc5-04ddf3808a8f" x1="9" y1="55.5" x2="240.5" y2="55.5"/><text class="09b44a38-dc85-4272-a7e1-cded16694b64" transform="translate(7 21.37)">Evolucin del precio de la vivienda en Barcelona</text></g><g id="60a0e8e6-eab9-4413-a841-f549a7cecc8c" data-name="Barrios"><line class="db977f50-1966-4544-8cc5-04ddf3808a8f" x1="10" y1="374.5" x2="492.5" y2="374.5"/><text class="f4672a9a-06a6-463f-89a4-6cc37a0a409c" transform="translate(174.67 388.59)">4<tspan class="3c2d3a43-073b-4ed3-8ba4-9ed469fe8251" x="6.67" y="0">. Les Corts</tspan><tspan x="0" y="14.4">5</tspan><tspan class="3c2d3a43-073b-4ed3-8ba4-9ed469fe8251" x="6.67" y="14.4">. Sarri - Sant Gervasi</tspan><tspan x="0" y="28.8">6</tspan><tspan class="3c2d3a43-073b-4ed3-8ba4-9ed469fe8251" x="6.67" y="28.8">. Grcia</tspan></text><text class="f4672a9a-06a6-463f-89a4-6cc37a0a409c" transform="translate(365.67 389.59)">7<tspan class="3c2d3a43-073b-4ed3-8ba4-9ed469fe8251" x="6.67" y="0">. Horta Guinard</tspan><tspan x="0" y="14.4">8</tspan><tspan class="3c2d3a43-073b-4ed3-8ba4-9ed469fe8251" x="6.67" y="14.4">. Nou Barris</tspan><tspan x="0" y="28.8">9. </tspan><tspan class="3c2d3a43-073b-4ed3-8ba4-9ed469fe8251" x="13.34" y="28.8">Sant</tspan><tspan class="d9d77a31-0d67-4805-9fa2-3ea8638c7aae" x="38.03" y="28.8"> </tspan><tspan class="3c2d3a43-073b-4ed3-8ba4-9ed469fe8251" x="40.7" y="28.8">Andreu</tspan><tspan x="0" y="43.2">10. </tspan><tspan class="3c2d3a43-073b-4ed3-8ba4-9ed469fe8251" x="20.02" y="43.2">Sant Mart</tspan></text><text class="f4672a9a-06a6-463f-89a4-6cc37a0a409c" transform="translate(8.67 389.59)">1<tspan class="3c2d3a43-073b-4ed3-8ba4-9ed469fe8251" x="6.67" y="0">. Ciutat </tspan><tspan class="d9d77a31-0d67-4805-9fa2-3ea8638c7aae" x="48.02" y="0">V</tspan><tspan class="3c2d3a43-073b-4ed3-8ba4-9ed469fe8251" x="55.37" y="0">ella</tspan><tspan x="0" y="14.4">2</tspan><tspan class="3c2d3a43-073b-4ed3-8ba4-9ed469fe8251" x="6.67" y="14.4">. </tspan><tspan class="d9d77a31-0d67-4805-9fa2-3ea8638c7aae" x="13.34" y="14.4">L</tspan><tspan class="3c2d3a43-073b-4ed3-8ba4-9ed469fe8251" x="19.35" y="14.4">Eixample</tspan><tspan x="0" y="28.8">3</tspan><tspan class="3c2d3a43-073b-4ed3-8ba4-9ed469fe8251" x="6.67" y="28.8">. Sants - Montjuc</tspan></text><text class="27e23951-0fe9-4098-bc56-9ff736d7753d" transform="translate(11.41 370.85)">DISTRI<tspan class="bf49878e-cd90-42d1-8d3e-aab193182d5a" x="36.06" y="0">T</tspan><tspan x="42.58" y="0">OS DE BARCELON</tspan><tspan class="a824a131-d531-4083-b944-b639539c19e8" x="140.38" y="0">A</tspan></text></g><g id="e75371d8-db2f-40e0-a177-f40312f6eff2" data-name="fuente"><text class="5a505afd-fbe6-4909-b65a-fd490786304c" transform="translate(396.67 456.59)">L<tspan class="a824a131-d531-4083-b944-b639539c19e8" x="6.67" y="0">A</tspan><tspan x="14.02" y="0"> </tspan><tspan class="bce7d3d6-78b3-49c4-98d6-11b8b0cd7de7" x="17.35" y="0">V</tspan><tspan x="24.46" y="0">ANGUARDI</tspan><tspan class="a824a131-d531-4083-b944-b639539c19e8" x="87.8" y="0">A</tspan></text><text class="5a505afd-fbe6-4909-b65a-fd490786304c" transform="translate(6.67 454.59)">Fuente:<tspan class="bf49878e-cd90-42d1-8d3e-aab193182d5a" x="40.69" y="0"> </tspan><tspan x="43.81" y="0">TINS</tspan><tspan class="a824a131-d531-4083-b944-b639539c19e8" x="71.14" y="0">A</tspan></text></g><g id="370078af-dc7e-407e-896f-e57e9c6de81e" data-name="numeros"><text class="685757cb-dd63-4c22-9a70-f3715a4a575b" transform="translate(189 127.58)">9</text><text class="685757cb-dd63-4c22-9a70-f3715a4a575b" transform="translate(87 163.58)">5</text><text class="685757cb-dd63-4c22-9a70-f3715a4a575b" transform="translate(108 252.58)">3</text><text class="685757cb-dd63-4c22-9a70-f3715a4a575b" transform="translate(130 128.58)">7</text><text class="685757cb-dd63-4c22-9a70-f3715a4a575b" transform="translate(156 212.58)">1</text><text class="685757cb-dd63-4c22-9a70-f3715a4a575b" transform="translate(189 179.58)">10</text><text class="685757cb-dd63-4c22-9a70-f3715a4a575b" transform="translate(135 170.58)">6</text><text class="685757cb-dd63-4c22-9a70-f3715a4a575b" transform="translate(80 200.58)">4</text><text class="685757cb-dd63-4c22-9a70-f3715a4a575b" transform="translate(164 113.58)">8</text><text class="685757cb-dd63-4c22-9a70-f3715a4a575b" transform="translate(438 130.58)">9</text><text class="685757cb-dd63-4c22-9a70-f3715a4a575b" transform="translate(336 166.58)">5</text><text class="685757cb-dd63-4c22-9a70-f3715a4a575b" transform="translate(357 255.58)">3</text><text class="685757cb-dd63-4c22-9a70-f3715a4a575b" transform="translate(379 131.58)">7</text><text class="685757cb-dd63-4c22-9a70-f3715a4a575b" transform="translate(405 215.58)">1</text><text class="685757cb-dd63-4c22-9a70-f3715a4a575b" transform="translate(438 182.58)">10</text><text class="685757cb-dd63-4c22-9a70-f3715a4a575b" transform="translate(384 173.58)">6</text><text class="685757cb-dd63-4c22-9a70-f3715a4a575b" transform="translate(329 203.58)">4</text><text class="685757cb-dd63-4c22-9a70-f3715a4a575b" transform="translate(413 116.58)">8</text></g><g id="c8024b6d-28f0-4653-8f62-6bc2c7bdbb27" data-name="Leyenda"><rect class="d10a6836-d246-4f06-9ce5-2eeb8a5cbc4f" x="163.75" y="336.5" width="21.25" height="14"/><rect class="caff89c4-35f1-484f-a509-58d63e8ddb52" x="163.75" y="323.5" width="21.25" height="14"/><rect class="f891628a-89e6-46ce-bec5-1009c6c90b92" x="163.75" y="310.5" width="21.25" height="14"/><rect class="59dcca13-3e9a-4a23-b52b-4fb6c17a8451" x="163.75" y="296.5" width="21.25" height="14"/><rect class="c7053e0e-a6be-4755-a2d5-675b81ae6477" x="163.75" y="282.5" width="21.25" height="14"/><rect class="66ec1c7d-ab5a-4f41-a55b-99b5cb222a52" x="163.75" y="268.5" width="21.25" height="14"/><text class="d902c24f-4631-485d-abaa-5f968dae9806" transform="translate(190.41 278.59)">0 - 1.000</text><text class="27e23951-0fe9-4098-bc56-9ff736d7753d" transform="translate(10.41 51.85)">PRECIO MEDIO (/m<tspan class="16dd6c4a-4e4a-46bd-95f9-5a6553bf8841" x="106.34" y="-4">2</tspan><tspan x="110.24" y="0" xml:space="preserve">)     </tspan></text><text class="d902c24f-4631-485d-abaa-5f968dae9806" transform="translate(190.41 292.59)">1.000 - 2.000</text><text class="d902c24f-4631-485d-abaa-5f968dae9806" transform="translate(190.41 306.59)">2.000 - 3.000</text><text class="d902c24f-4631-485d-abaa-5f968dae9806" transform="translate(190.41 320.59)">3.000 - 4.000</text><text class="d902c24f-4631-485d-abaa-5f968dae9806" transform="translate(190.41 333.59)">4.000 - 5.000</text><text class="d902c24f-4631-485d-abaa-5f968dae9806" transform="translate(190.41 347.59)">5.000 - 6.000</text><rect class="3dce1cb1-8178-4930-830f-5b7e3f5d2214" x="399.75" y="336.5" width="21.25" height="14"/><rect class="7a23a27a-19b4-4a56-b715-e6bce1985309" x="399.75" y="323.5" width="21.25" height="14"/><rect class="6c1cb3df-0680-4d16-ad2e-c8032ec47d2a" x="399.75" y="310.5" width="21.25" height="14"/><rect class="f8e5d294-d398-4909-9a2c-41d906a764df" x="399.75" y="296.5" width="21.25" height="14"/><rect class="e5ca6eca-c4f8-4e54-9e24-51d387fccec5" x="399.75" y="282.5" width="21.25" height="14"/><rect class="fbfe2f1f-4229-4ba1-8a40-0a91832b2d50" x="399.75" y="268.5" width="21.25" height="14"/><text class="d902c24f-4631-485d-abaa-5f968dae9806" transform="translate(426.41 278.59)">Menos de -10%</text><text class="d902c24f-4631-485d-abaa-5f968dae9806" transform="translate(426.41 292.59)">-10% a -5%</text><text class="d902c24f-4631-485d-abaa-5f968dae9806" transform="translate(426.41 306.59)">-5% a 0%</text><text class="d902c24f-4631-485d-abaa-5f968dae9806" transform="translate(426.41 320.59)">0% a 5%</text><text class="d902c24f-4631-485d-abaa-5f968dae9806" transform="translate(426.41 333.59)">5% a 10%</text><text class="d902c24f-4631-485d-abaa-5f968dae9806" transform="translate(426.41 347.59)">Ms de 10%</text></g></svg>