<svg id="Capa_1" data-name="Capa 1" xmlns="http://www.w3.org/2000/svg" viewBox="0 0 931.91 775.12"><defs><style>.cls-1{font-size:32px;}.cls-1,.cls-2,.cls-63{fill:#353535;}.cls-1,.cls-63,.cls-64{font-family:Arial-BoldMT, Arial;font-weight:700;}.cls-2{font-size:22px;}.cls-2,.cls-6,.cls-65,.cls-68{font-family:ArialMT, Arial;}.cls-3{letter-spacing:-0.06em;}.cls-4{fill:#002f64;}.cls-5{fill:#fff;}.cls-6{font-size:20px;}.cls-49,.cls-6,.cls-62{fill:#757575;}.cls-10,.cls-11,.cls-12,.cls-13,.cls-14,.cls-15,.cls-16,.cls-17,.cls-18,.cls-19,.cls-20,.cls-21,.cls-22,.cls-23,.cls-24,.cls-25,.cls-26,.cls-27,.cls-28,.cls-29,.cls-30,.cls-31,.cls-32,.cls-33,.cls-34,.cls-35,.cls-36,.cls-37,.cls-38,.cls-39,.cls-40,.cls-41,.cls-42,.cls-43,.cls-44,.cls-45,.cls-46,.cls-47,.cls-50,.cls-51,.cls-52,.cls-53,.cls-54,.cls-55,.cls-56,.cls-57,.cls-58,.cls-59,.cls-60,.cls-7,.cls-70,.cls-71,.cls-72,.cls-73,.cls-74,.cls-75,.cls-76,.cls-77,.cls-79,.cls-8,.cls-9{fill:none;}.cls-10,.cls-11,.cls-13,.cls-16,.cls-17,.cls-18,.cls-23,.cls-50,.cls-7,.cls-8,.cls-9{stroke:#701538;}.cls-10,.cls-11,.cls-12,.cls-13,.cls-14,.cls-15,.cls-16,.cls-17,.cls-18,.cls-19,.cls-20,.cls-21,.cls-22,.cls-23,.cls-24,.cls-25,.cls-26,.cls-27,.cls-28,.cls-29,.cls-30,.cls-31,.cls-32,.cls-33,.cls-34,.cls-35,.cls-36,.cls-37,.cls-38,.cls-39,.cls-40,.cls-41,.cls-42,.cls-43,.cls-44,.cls-45,.cls-46,.cls-47,.cls-50,.cls-51,.cls-52,.cls-53,.cls-54,.cls-55,.cls-56,.cls-57,.cls-58,.cls-59,.cls-60,.cls-7,.cls-75,.cls-76,.cls-77,.cls-8,.cls-9{stroke-opacity:0.4;}.cls-7{stroke-width:38.22px;}.cls-8{stroke-width:27.24px;}.cls-9{stroke-width:25.56px;}.cls-10{stroke-width:25.44px;}.cls-11{stroke-width:22.41px;}.cls-12,.cls-14,.cls-15,.cls-19,.cls-20,.cls-21,.cls-22,.cls-24,.cls-25,.cls-26,.cls-51{stroke:#d57928;}.cls-12{stroke-width:20.81px;}.cls-13{stroke-width:19.45px;}.cls-14{stroke-width:19.4px;}.cls-15{stroke-width:18.91px;}.cls-16{stroke-width:18.53px;}.cls-17{stroke-width:15.77px;}.cls-18{stroke-width:15.74px;}.cls-19{stroke-width:15.73px;}.cls-20{stroke-width:15.71px;}.cls-21{stroke-width:12.97px;}.cls-22{stroke-width:11.17px;}.cls-23{stroke-width:10.37px;}.cls-24{stroke-width:9.94px;}.cls-25{stroke-width:9.69px;}.cls-26{stroke-width:5.57px;}.cls-27,.cls-29,.cls-30,.cls-33,.cls-34,.cls-35,.cls-36,.cls-37,.cls-39,.cls-41,.cls-53{stroke:#639f42;}.cls-27{stroke-width:4.14px;}.cls-28,.cls-31,.cls-32,.cls-38,.cls-40,.cls-42,.cls-43,.cls-44,.cls-54,.cls-77{stroke:#159094;}.cls-28{stroke-width:3.03px;}.cls-29{stroke-width:2.95px;}.cls-30{stroke-width:2.69px;}.cls-31{stroke-width:2.42px;}.cls-32{stroke-width:2.21px;}.cls-33{stroke-width:2.2px;}.cls-34{stroke-width:2.12px;}.cls-35{stroke-width:2.09px;}.cls-36{stroke-width:1.88px;}.cls-37{stroke-width:1.73px;}.cls-38{stroke-width:1.64px;}.cls-39{stroke-width:1.52px;}.cls-40{stroke-width:1.31px;}.cls-41{stroke-width:1.17px;}.cls-42{stroke-width:1.16px;}.cls-43{stroke-width:1.12px;}.cls-45,.cls-55{stroke:#fecb41;}.cls-46,.cls-52,.cls-75{stroke:#991d26;}.cls-47,.cls-48,.cls-57,.cls-58,.cls-59,.cls-60,.cls-61,.cls-62,.cls-70,.cls-72{stroke:#757575;}.cls-48,.cls-61,.cls-62,.cls-70,.cls-72,.cls-73,.cls-74,.cls-76,.cls-79{stroke-miterlimit:10;}.cls-50{stroke-width:180.44px;}.cls-51{stroke-width:115.39px;}.cls-52{stroke-width:19.65px;}.cls-53{stroke-width:18.54px;}.cls-54{stroke-width:16.52px;}.cls-55{stroke-width:16.01px;}.cls-56{stroke:#1a1e4b;stroke-width:6.59px;}.cls-57{stroke-width:6.24px;}.cls-58{stroke-width:5.71px;}.cls-59{stroke-width:3.5px;}.cls-60{stroke-width:1.21px;}.cls-61{fill:#666;}.cls-63{isolation:isolate;}.cls-63,.cls-68,.cls-78{font-size:26px;}.cls-64{font-size:24px;}.cls-64,.cls-65,.cls-68,.cls-78{fill:#323232;}.cls-65{font-size:23px;}.cls-66{letter-spacing:-0.06em;}.cls-67{letter-spacing:0em;}.cls-69{letter-spacing:-0.04em;}.cls-70,.cls-79{stroke-width:2px;}.cls-73{stroke:#cd9eaf;}.cls-73,.cls-74,.cls-75,.cls-76,.cls-77{stroke-width:9px;}.cls-74{stroke:#f9caa3;}.cls-76{stroke:#add9af;}.cls-78{font-family:Arial-ItalicMT, Arial;font-style:italic;}.cls-79{stroke:#939292;}</style></defs><title>bcn_area_incidencia</title><text class="cls-1" transform="translate(116.53 27.45)">Incidencias más frecuentes por áreas y distritos</text><text class="cls-2" transform="translate(116.53 56.45)">Las incidencias presentadas en el<tspan class="cls-3" x="331.44" y="0"> </tspan><tspan x="336.34" y="0">Ajuntamente de Barcelona, entre 2014 y 2017</tspan></text><polygon class="cls-4" points="724.71 737.14 931.91 737.14 931.91 768.62 724.71 768.62 724.71 737.14 724.71 737.14"/><path class="cls-5" d="M788.84,749.23H780.9v1l2.09.49v14.66a1.74,1.74,0,0,1-1.46.74,3.12,3.12,0,0,1-2.58-1.89l-2-3.55a4.11,4.11,0,0,0-3.63-2.44V758c2.66-.07,5-2,5-4.52,0-3-2.77-4.24-6-4.24h-7.21v1l2.35.49v14.85h0l-2.71.52-6.75-18.41a8.48,8.48,0,0,1-2.43,2.08l.26.74-6.16,15.09-1.86.5v1h5.6v-1l-1.83-.48,2.08-5.49h5.71l2,5.46-2.15.52v1h13.67v-1l-2.3-.49v-6.91c1.55.1,2.29.81,3,2.24l2.71,4.83a4.38,4.38,0,0,0,3.92,2.38,3.87,3.87,0,0,0,2.57-1.06H789a9.19,9.19,0,0,0,9.43-8.93c0-5.21-4-8.93-9.59-8.93Zm-34.67,9.49,2.42-6.34,2.32,6.34Zm17.69-1.34h-1.22v-6.65h1.53a3,3,0,0,1,3.12,3.19,3.46,3.46,0,0,1-3.43,3.47Zm16.8,8.23h-2.55V750.73h2.62c4.05,0,6.54,2.8,6.54,7.44s-2.59,7.44-6.61,7.44Z" transform="translate(102.1 -5.06)"/><path class="cls-5" d="M658.52,765.61l-6.6-17.93a8.45,8.45,0,0,1-2.43,2.08l.26.74-6.16,15.09-1.31.5-.39,1h5.45v-1l-1.84-.48,2.08-5.49h5.71l2,5.46-2.15.52v1h7.33v-1l-2-.48ZM648,758.73l2.42-6.34,2.32,6.34Z" transform="translate(102.1 -5.06)"/><polygon class="cls-5" points="744.9 757.5 744.23 757.13 740.37 760.64 737.08 760.64 737.08 745.67 739.06 745.17 739.06 744.17 731.95 744.17 731.95 745.17 733.95 745.68 733.95 760.52 731.95 761.03 731.95 762.03 743.12 762.03 744.9 757.5 744.9 757.5"/><polygon class="cls-5" points="775.92 744.17 775.92 745.17 778.07 745.67 773.4 757.62 768.49 745.65 770.81 745.17 770.81 744.17 762.87 744.17 762.87 745.17 765.14 745.66 772.19 762.65 772.95 762.65 779.97 745.69 780.04 745.69 782.23 745.17 782.23 744.17 775.92 744.17 775.92 744.17"/><path class="cls-5" d="M744.22,749.23v1l2.13.5s.16,8.85.08,11.09a4.51,4.51,0,0,1-4.81,4.36,4.44,4.44,0,0,1-4.81-4.59v-10.9l2.07-.47v-1h-7.17v1l2,.48v11c.13,3.77,3.18,6.25,7.1,6.25s7-2.29,7.1-6.25l.14-11,2.09-.5v-1Z" transform="translate(102.1 -5.06)"/><path class="cls-5" d="M821.79,765.57l-6.57-17.89a8.48,8.48,0,0,1-2.43,2.08l.26.74-6.17,15.16-1.05.43-1.42-.45V750.72l2.19-.5v-1h-7.47v1l2.16.51V765.6l-2.07.49v1h11.43v-1l-1.84-.48,2.08-5.49h5.72l2,5.46-2.15.52v1h7.33v-1l-2-.52Zm-10.45-6.85,2.41-6.34,2.33,6.34Z" transform="translate(102.1 -5.06)"/><path class="cls-5" d="M705.86,749.23v1l2.18.51.13,11.68L697,749.23h-4.78v1l2.16.48.18.09-.16,14.77h0l-2.2.52-6.75-18.41a8.48,8.48,0,0,1-2.43,2.08l.26.74-6.16,15.09-1.86.5v1h5.6v-1l-1.83-.48,2.08-5.49h5.71l2,5.46-2.15.52v1H698.4v-1l-2.3-.5L696,752.67l12.79,15h.85l.17-17,2.17-.5v-1Zm-24.3,9.49,2.42-6.34,2.32,6.34Z" transform="translate(102.1 -5.06)"/><path class="cls-5" d="M724.66,758v1l2,.51v5.75a6.69,6.69,0,0,1-4,1.34c-4.06,0-6.65-3.42-6.65-8.15s2.55-8.52,6.71-8.52a6.36,6.36,0,0,1,6,4.86l.58-.34v-5.64l-.51-.29-1.08,1.37a11.29,11.29,0,0,0-4.95-1.26,10,10,0,0,0-10,9.84c0,5.56,3.93,9.52,9.25,9.52A9.22,9.22,0,0,0,727.7,766l1.57,1h.51v-7.66l1.69-.64V758Z" transform="translate(102.1 -5.06)"/><text class="cls-6" transform="translate(111.86 768.62)">Fuente:<tspan class="cls-3" x="67.82" y="0"> </tspan><tspan x="72.28" y="0">Ajuntament de Barcelona</tspan></text><path class="cls-7" d="M450.22,185.86c98.69,0,121.39-1.23,238.88-1.23" transform="translate(102.1 -5.06)"/><path class="cls-8" d="M450.22,232.87c98.69,0,121.39,79.9,238.88,79.9" transform="translate(102.1 -5.06)"/><path class="cls-9" d="M450.22,212.11c98.69,0,121.39,38.95,238.88,38.95" transform="translate(102.1 -5.06)"/><path class="cls-10" d="M450.22,254.55c98.69,0,121.39,114.56,238.88,114.56" transform="translate(102.1 -5.06)"/><path class="cls-11" d="M450.22,274.25c98.69,0,121.39,145.28,238.88,145.28" transform="translate(102.1 -5.06)"/><path class="cls-12" d="M450.07,387.53c117.49,0,121.53-113.75,239-113.75" transform="translate(102.1 -5.06)"/><path class="cls-13" d="M450.22,304.46c98.69,0,121.39,212.25,238.88,212.25" transform="translate(102.1 -5.06)"/><path class="cls-14" d="M450.07,440.9c117.49,0,121.53,43.34,239,43.34" transform="translate(102.1 -5.06)"/><path class="cls-15" d="M450.07,371.11c117.49,0,121.53-158.49,239-158.49" transform="translate(102.1 -5.06)"/><path class="cls-16" d="M450.22,320.09c98.69,0,121.39,237.75,238.88,237.75" transform="translate(102.1 -5.06)"/><path class="cls-17" d="M450.22,290c98.69,0,121.39,177,238.88,177" transform="translate(102.1 -5.06)"/><path class="cls-18" d="M450.22,329.3c98.69,0,121.39,267.83,238.88,267.83" transform="translate(102.1 -5.06)"/><path class="cls-19" d="M450.07,426.37c117.49,0,121.53,11.85,239,11.85" transform="translate(102.1 -5.06)"/><path class="cls-20" d="M450.07,402.64c117.49,0,121.53-68.82,239-68.82" transform="translate(102.1 -5.06)"/><path class="cls-21" d="M450.07,414.5c117.49,0,121.53-26.56,239-26.56" transform="translate(102.1 -5.06)"/><path class="cls-22" d="M450.07,465.86c117.49,0,121.53,144.45,239,144.45" transform="translate(102.1 -5.06)"/><path class="cls-23" d="M450.22,340c98.69,0,121.39,293.41,238.88,293.41" transform="translate(102.1 -5.06)"/><path class="cls-24" d="M450.07,461.05c117.49,0,121.53,110.74,239,110.74" transform="translate(102.1 -5.06)"/><path class="cls-25" d="M450.07,452.93c117.49,0,121.53,78.06,239,78.06" transform="translate(102.1 -5.06)"/><path class="cls-26" d="M450.07,472.78c117.49,0,121.53,168.48,239,168.48" transform="translate(102.1 -5.06)"/><path class="cls-27" d="M450.22,533.67c117.49,0,121.39-309.75,238.88-309.75" transform="translate(102.1 -5.06)"/><path class="cls-28" d="M450.22,574.4c117.49,0,121.39-229.32,238.88-229.32" transform="translate(102.1 -5.06)"/><path class="cls-29" d="M450.22,537.14c117.49,0,121.39-251.71,238.88-251.71" transform="translate(102.1 -5.06)"/><path class="cls-30" d="M450.22,542c117.49,0,121.39-146.37,238.88-146.37" transform="translate(102.1 -5.06)"/><path class="cls-31" d="M450.22,569.56c117.49,0,121.39-342.43,238.88-342.43" transform="translate(102.1 -5.06)"/><path class="cls-32" d="M450.22,571.83C567.7,571.83,571.61,288,689.09,288" transform="translate(102.1 -5.06)"/><path class="cls-33" d="M450.22,544.37C567.7,544.37,571.61,447,689.09,447" transform="translate(102.1 -5.06)"/><path class="cls-34" d="M450.22,539.62c117.49,0,121.39-197.07,238.88-197.07" transform="translate(102.1 -5.06)"/><path class="cls-35" d="M450.22,546.48c117.49,0,121.39-51.71,238.88-51.71" transform="translate(102.1 -5.06)"/><path class="cls-36" d="M450.22,548.16c117.49,0,121.39,29.42,238.88,29.42" transform="translate(102.1 -5.06)"/><path class="cls-37" d="M450.22,548.35c117.49,0,121.39-11.77,238.88-11.77" transform="translate(102.1 -5.06)"/><path class="cls-38" d="M450.22,576.68c117.49,0,121.39-179,238.88-179" transform="translate(102.1 -5.06)"/><path class="cls-39" d="M450.22,549.82c117.49,0,121.39,66.71,238.88,66.71" transform="translate(102.1 -5.06)"/><path class="cls-40" d="M450.22,579.88c117.49,0,121.39-41.81,238.88-41.81" transform="translate(102.1 -5.06)"/><path class="cls-41" d="M450.22,549.18c117.49,0,121.39,95.39,238.88,95.39" transform="translate(102.1 -5.06)"/><path class="cls-42" d="M450.22,578.06c117.49,0,121.39-129.41,238.88-129.41" transform="translate(102.1 -5.06)"/><path class="cls-43" d="M450.22,582c117.49,0,121.39,35.86,238.88,35.86" transform="translate(102.1 -5.06)"/><path class="cls-44" d="M450.22,581c117.49,0,121.39-2,238.88-2" transform="translate(102.1 -5.06)"/><path class="cls-44" d="M450.22,582.89c117.49,0,121.39,62.63,238.88,62.63" transform="translate(102.1 -5.06)"/><path class="cls-45" d="M449.93,595.82c118.73,0,122.92-99,239.16-99" transform="translate(102.1 -5.06)"/><path class="cls-44" d="M450.22,578.93c117.49,0,121.39-82.84,238.88-82.84" transform="translate(102.1 -5.06)"/><path class="cls-46" d="M450.36,492.05c117.48,0,121.25-202.87,238.74-202.87" transform="translate(102.1 -5.06)"/><path class="cls-46" d="M450.36,491.77c117.48,0,121.25-263.32,238.74-263.32" transform="translate(102.1 -5.06)"/><path class="cls-47" d="M450.07,638.7c117.49,0,121.53-349.28,239-349.28" transform="translate(102.1 -5.06)"/><path class="cls-47" d="M450.36,663.71c113.84,0,117.6-166.42,238.74-166.42" transform="translate(102.1 -5.06)"/><path class="cls-46" d="M450.36,492.29c117.48,0,121.25-145.64,238.74-145.64" transform="translate(102.1 -5.06)"/><path class="cls-46" d="M450.36,492.78c117.48,0,121.25,46,238.74,46" transform="translate(102.1 -5.06)"/><path class="cls-46" d="M450.36,492.43c117.48,0,121.25-93.83,238.74-93.83" transform="translate(102.1 -5.06)"/><path class="cls-46" d="M450.36,492.56c117.48,0,121.25-43.28,238.74-43.28" transform="translate(102.1 -5.06)"/><path class="cls-46" d="M450.36,493c117.48,0,121.25,125.42,238.74,125.42" transform="translate(102.1 -5.06)"/><path class="cls-46" d="M450.36,493.11c117.48,0,121.25,152.84,238.74,152.84" transform="translate(102.1 -5.06)"/><path class="cls-47" d="M450.07,638.83c117.49,0,121.53-292.05,239-292.05" transform="translate(102.1 -5.06)"/><path class="cls-46" d="M450.36,492.89c117.48,0,121.25,86.55,238.74,86.55" transform="translate(102.1 -5.06)"/><path class="cls-47" d="M450.07,639.14c117.49,0,121.53-59.6,239-59.6" transform="translate(102.1 -5.06)"/><path class="cls-47" d="M450.07,639.27c117.49,0,121.53,6.78,239,6.78" transform="translate(102.1 -5.06)"/><path class="cls-46" d="M450.36,492.67c117.48,0,121.25,3.78,238.74,3.78" transform="translate(102.1 -5.06)"/><path class="cls-47" d="M450.07,638.57c117.49,0,121.53-409.93,239-409.93" transform="translate(102.1 -5.06)"/><path class="cls-47" d="M450.36,663.51c113.84,0,117.6-373.94,238.74-373.94" transform="translate(102.1 -5.06)"/><path class="cls-47" d="M450.07,639c117.49,0,121.53-189.59,239-189.59" transform="translate(102.1 -5.06)"/><path class="cls-47" d="M450.07,639.06c117.49,0,121.53-100.18,239-100.18" transform="translate(102.1 -5.06)"/><path class="cls-47" d="M450.07,638.91c117.49,0,121.53-240.22,239-240.22" transform="translate(102.1 -5.06)"/><path class="cls-47" d="M450.36,663.88c113.84,0,117.6-45.33,238.74-45.33" transform="translate(102.1 -5.06)"/><path class="cls-47" d="M450.36,663.6c113.84,0,117.6-214.16,238.74-214.16" transform="translate(102.1 -5.06)"/><path class="cls-47" d="M450.36,663.45c113.84,0,117.6-434.75,238.74-434.75" transform="translate(102.1 -5.06)"/><path class="cls-47" d="M450.36,663.81c113.84,0,117.6-124.87,238.74-124.87" transform="translate(102.1 -5.06)"/><path class="cls-47" d="M450.07,639.2c117.49,0,121.53-20.71,239-20.71" transform="translate(102.1 -5.06)"/><path class="cls-47" d="M450.07,639c117.49,0,121.53-142.52,239-142.52" transform="translate(102.1 -5.06)"/><path class="cls-47" d="M450.36,663.84c113.84,0,117.6-84.25,238.74-84.25" transform="translate(102.1 -5.06)"/><path class="cls-45" d="M449.93,595.45c118.73,0,122.92-305.94,239.16-305.94" transform="translate(102.1 -5.06)"/><path class="cls-47" d="M450.36,663.91c113.84,0,117.6-17.81,238.74-17.81" transform="translate(102.1 -5.06)"/><path class="cls-47" d="M450.36,663.55c113.84,0,117.6-316.72,238.74-316.72" transform="translate(102.1 -5.06)"/><path class="cls-47" d="M450.36,663.57c76.35,0,80-264.85,238.74-264.85" transform="translate(102.1 -5.06)"/><path class="cls-47" d="M450.22,717.66c117.49,0,121.39-428,238.88-428" transform="translate(102.1 -5.06)"/><path class="cls-47" d="M450.22,717.65c117.49,0,121.39-488.93,238.88-488.93" transform="translate(102.1 -5.06)"/><path class="cls-47" d="M450.22,717.67c117.49,0,121.39-370.82,238.88-370.82" transform="translate(102.1 -5.06)"/><path class="cls-47" d="M450.22,685.22c117.49,0,121.39-286.48,238.88-286.48" transform="translate(102.1 -5.06)"/><path class="cls-45" d="M449.93,595.47c118.73,0,122.92-146,239.16-146" transform="translate(102.1 -5.06)"/><path class="cls-47" d="M450.22,717.68c117.49,0,121.39-318.95,238.88-318.95" transform="translate(102.1 -5.06)"/><path class="cls-47" d="M450.22,685.21c117.49,0,121.39-456.48,238.88-456.48" transform="translate(102.1 -5.06)"/><path class="cls-47" d="M450.22,717.69c117.49,0,121.39-99.12,238.88-99.12" transform="translate(102.1 -5.06)"/><path class="cls-47" d="M450.22,717.68c117.49,0,121.39-268.21,238.88-268.21" transform="translate(102.1 -5.06)"/><path class="cls-47" d="M450.22,748c117.49,0,121.39-349.23,238.88-349.23" transform="translate(102.1 -5.06)"/><path class="cls-45" d="M449.93,596.17c118.73,0,122.92-57.25,239.16-57.25" transform="translate(102.1 -5.06)"/><path class="cls-47" d="M450.22,685.23c117.49,0,121.39-105.62,238.88-105.62" transform="translate(102.1 -5.06)"/><path class="cls-45" d="M449.93,596.17c119.86,0,124,22.35,239.16,22.35" transform="translate(102.1 -5.06)"/><path class="cls-47" d="M450.22,717.68c117.49,0,121.39-220.31,238.88-220.31" transform="translate(102.1 -5.06)"/><path class="cls-47" d="M450.22,685.23c117.49,0,121.39-66.65,238.88-66.65" transform="translate(102.1 -5.06)"/><path class="cls-47" d="M450.22,717.69c117.49,0,121.39-138.08,238.88-138.08" transform="translate(102.1 -5.06)"/><path class="cls-47" d="M450.22,748c117.49,0,121.39-458.35,238.88-458.35" transform="translate(102.1 -5.06)"/><path class="cls-47" d="M450.22,685.22C567.7,685.22,571.61,539,689.09,539" transform="translate(102.1 -5.06)"/><path class="cls-47" d="M450.22,685.22c117.49,0,121.39-235.75,238.88-235.75" transform="translate(102.1 -5.06)"/><path class="cls-47" d="M450.22,685.21c117.49,0,121.39-395.59,238.88-395.59" transform="translate(102.1 -5.06)"/><line class="cls-48" x1="552.31" y1="742.91" x2="552.31" y2="742.13"/><polyline class="cls-49" points="552.31 338.95 551.13 338.95 551.13 162.13 552.31 162.13"/><rect class="cls-49" x="550.91" y="563.31" width="1.4" height="14.9"/><line class="cls-49" x1="552.03" y1="590.38" x2="552.03" y2="591.11"/><line class="cls-48" x1="552.31" y1="712.59" x2="552.31" y2="712.63"/><rect class="cls-49" x="550.91" y="526.58" width="1.4" height="18.12"/><rect class="cls-49" x="551.05" y="486.58" width="1.4" height="1.53"/><rect class="cls-49" x="791.19" y="454.21" width="1.4" height="38.1"/><rect class="cls-49" x="791.19" y="233.47" width="1.4" height="51.09"/><rect class="cls-49" x="791.19" y="584.35" width="1.4" height="29.16"/><rect class="cls-49" x="791.19" y="294.36" width="1.4" height="47.43"/><rect class="cls-49" x="791.19" y="623.32" width="1.4" height="17.73"/><rect class="cls-49" x="791.19" y="351.59" width="1.4" height="42.09"/><rect class="cls-49" x="791.19" y="543.7" width="1.4" height="30.85"/><polygon class="cls-49" points="791.19 161.12 792.6 160.12 792.6 223.67 791.19 223.67 791.19 161.12"/><rect class="cls-49" x="791.19" y="403.49" width="1.4" height="40.93"/><rect class="cls-49" x="791.19" y="502.11" width="1.4" height="31.79"/><path class="cls-50" d="M213.84,318.5c117.49,0,117.49-62.9,235-62.9" transform="translate(102.1 -5.06)"/><path class="cls-51" d="M213.84,463.45c117.49,0,117.49-45.1,235-45.1" transform="translate(102.1 -5.06)"/><path class="cls-52" d="M213.84,529.63c117.49,0,117.49-28.3,235-28.3" transform="translate(102.1 -5.06)"/><path class="cls-53" d="M213.84,548.34c117.49,0,117.49-7.5,235-7.5" transform="translate(102.1 -5.06)"/><path class="cls-54" d="M213.84,565.52c117.49,0,117.49,10.3,235,10.3" transform="translate(102.1 -5.06)"/><path class="cls-55" d="M213.84,581.46c117.49,0,117.49,21.1,235,21.1" transform="translate(102.1 -5.06)"/><path class="cls-56" d="M213.84,592.53c117.49,0,117.49,29.9,235,29.9" transform="translate(102.1 -5.06)"/><path class="cls-57" d="M213.84,598.82c117.49,0,117.49,42.7,235,42.7" transform="translate(102.1 -5.06)"/><path class="cls-58" d="M213.84,604.68c117.49,0,117.49,60.5,235,60.5" transform="translate(102.1 -5.06)"/><path class="cls-59" d="M213.84,609.19c117.49,0,117.49,77.3,235,77.3" transform="translate(102.1 -5.06)"/><path class="cls-60" d="M213.84,611.5c117.49,0,117.49,106.1,235,106.1" transform="translate(102.1 -5.06)"/><path class="cls-47" d="M213.84,612.19c117.49,0,117.49,135.9,235,135.9" transform="translate(102.1 -5.06)"/><rect class="cls-61" x="550.91" y="741.93" width="1.4" height="0.19"/><rect class="cls-49" x="550.91" y="614.15" width="1.4" height="6.46"/><rect class="cls-62" x="550.91" y="633.25" width="1.4" height="6.21"/><rect class="cls-49" x="550.91" y="160.79" width="1.4" height="178.17"/><rect class="cls-49" x="550.91" y="562.67" width="1.4" height="16.19"/><rect class="cls-49" x="550.77" y="589.6" width="1.4" height="15.69"/><rect class="cls-61" x="550.91" y="711.95" width="1.4" height="1.19"/><rect class="cls-49" x="550.91" y="356.75" width="1.4" height="113.08"/><rect class="cls-49" x="550.91" y="526.7" width="1.4" height="18.17"/><rect class="cls-62" x="550.91" y="679.72" width="1.4" height="3.43"/><rect class="cls-49" x="550.91" y="486.64" width="1.4" height="19.26"/><rect class="cls-62" x="550.91" y="657.32" width="1.4" height="5.6"/><line class="cls-49" x1="314.54" y1="225.02" x2="315.94" y2="225.02"/><line class="cls-49" x1="315.94" y1="607.23" x2="314.54" y2="607.23"/><polyline class="cls-49" points="552.31 468.86 551.13 468.86 551.13 356.56 552.31 356.56"/><text class="cls-63" transform="translate(561.35 129.73) scale(0.95 1)">Área</text><text class="cls-63" transform="translate(798.42 130.73)">Distrito</text><text class="cls-64" transform="translate(321.94 129.73)">Barcelona</text><text class="cls-65" transform="translate(801.42 178.63)">Sant Martí</text><text class="cls-65" transform="translate(800.42 252.02)">Eixample</text><text class="cls-65" transform="translate(801.42 312.71)">Horta-<tspan x="0" y="27.6">Guinardó</tspan></text><text class="cls-65" transform="translate(800.42 380.05)">Nou Barris</text><text class="cls-65" transform="translate(800.42 416.31)">Sants-<tspan x="0" y="27.6">Montjuïc</tspan></text><text class="cls-65" transform="translate(799.42 479.17)">Ciutat <tspan class="cls-66" x="66.47" y="0">V</tspan><tspan x="80.54" y="0">ella</tspan></text><text class="cls-65" transform="translate(800.42 511.01)">Sarrià-Sant<tspan x="0" y="27.6">Gervasi</tspan></text><text class="cls-65" transform="translate(800.01 568.77)">Sant<tspan class="cls-66" x="47.31" y="0"> </tspan><tspan class="cls-67" x="52.43" y="0">Andreu</tspan></text><text class="cls-65" transform="translate(801.42 605.15)">Gràcia</text><text class="cls-65" transform="translate(800.42 642.95)">Les Corts</text><text class="cls-68" transform="translate(117.98 242)">Mantenimiento<tspan x="39" y="31.2">del espacio</tspan><tspan x="89.58" y="62.4">urbano</tspan></text><text class="cls-68" transform="translate(149.45 384.17)">Recogida y<tspan x="34.71" y="31.2">limpieza</tspan></text><text class="cls-68" transform="translate(151.76 483.11)"><tspan class="cls-69">T</tspan><tspan x="14.92" y="0">ransportes</tspan><tspan x="42.36" y="31.2">públicos</tspan></text><text class="cls-68" transform="translate(110.6 552.92)">Sanidad<tspan x="13.03" y="31.2">pública</tspan></text><text class="cls-68" transform="translate(197.02 682.43)">Ocio</text><line class="cls-70" x1="315" y1="112.83" x2="315" y2="607.47"/><line class="cls-71" x1="310" y1="602.47" x2="310" y2="607.03"/><path class="cls-70" d="M448.67,348.53" transform="translate(102.1 -5.06)"/><line class="cls-70" x1="552.03" y1="112.83" x2="552.03" y2="261.87"/><line class="cls-70" x1="791.19" y1="112.83" x2="791.19" y2="218.85"/><path class="cls-72" d="M213.58,288" transform="translate(102.1 -5.06)"/><path class="cls-72" d="M213.58,445.56" transform="translate(102.1 -5.06)"/><path class="cls-72" d="M211.58,546.34" transform="translate(102.1 -5.06)"/><path class="cls-72" d="M213.58,567.76" transform="translate(102.1 -5.06)"/><path class="cls-72" d="M212.58,583.91" transform="translate(102.1 -5.06)"/><path class="cls-72" d="M45.44,458" transform="translate(102.1 -5.06)"/><text class="cls-68" transform="translate(118.69 629.87)">Movilidad</text><path class="cls-72" d="M211.58,549.18" transform="translate(102.1 -5.06)"/><path class="cls-72" d="M108.9,573.91" transform="translate(102.1 -5.06)"/><path class="cls-73" d="M199.92,230" transform="translate(102.1 -5.06)"/><path class="cls-74" d="M202.92,336.91" transform="translate(102.1 -5.06)"/><text x="102.1" y="-5.06"></text><path class="cls-75" d="M199.92,438.41" transform="translate(102.1 -5.06)"/><text x="102.1" y="-5.06"></text><text x="102.1" y="-5.06"></text><path class="cls-76" d="M199.92,502.47" transform="translate(102.1 -5.06)"/><path class="cls-76" d="M199.92,471.9" transform="translate(102.1 -5.06)"/><path class="cls-77" d="M199.92,556.43" transform="translate(102.1 -5.06)"/><path class="cls-77" d="M199.92,526.86" transform="translate(102.1 -5.06)"/><text class="cls-78" transform="translate(346.02 694.15)">Resto</text><line class="cls-79" x1="258" y1="522.82" x2="314" y2="522.82"/><line class="cls-79" x1="209" y1="546.65" x2="314" y2="546.65"/><line class="cls-79" x1="258" y1="423.95" x2="314" y2="423.95"/><line class="cls-79" x1="256.52" y1="312.03" x2="312.52" y2="312.03"/><line class="cls-79" x1="223" y1="564.46" x2="314" y2="564.46"/><line class="cls-79" x1="243" y1="583.91" x2="314" y2="583.91"/><line class="cls-79" x1="223" y1="563.76" x2="223" y2="605.76"/><line class="cls-79" x1="243" y1="582.44" x2="243" y2="659.44"/></svg>