<svg id="Capa_1" data-name="Capa 1" xmlns="http://www.w3.org/2000/svg" viewBox="0 0 1358.47 798.47"><defs><style>.cls-1,.cls-10,.cls-11,.cls-12,.cls-13,.cls-14,.cls-15,.cls-16,.cls-17,.cls-18,.cls-19,.cls-2,.cls-20,.cls-21,.cls-22,.cls-23,.cls-24,.cls-25,.cls-26,.cls-27,.cls-28,.cls-29,.cls-3,.cls-30,.cls-31,.cls-32,.cls-33,.cls-34,.cls-35,.cls-36,.cls-37,.cls-38,.cls-39,.cls-4,.cls-40,.cls-41,.cls-46,.cls-47,.cls-48,.cls-49,.cls-5,.cls-50,.cls-51,.cls-52,.cls-53,.cls-54,.cls-55,.cls-56,.cls-6,.cls-69,.cls-7,.cls-8,.cls-9{fill:none;}.cls-1,.cls-10,.cls-11,.cls-12,.cls-17,.cls-2,.cls-3,.cls-4,.cls-46,.cls-5,.cls-7{stroke:#701538;}.cls-1,.cls-10,.cls-11,.cls-12,.cls-13,.cls-14,.cls-15,.cls-16,.cls-17,.cls-18,.cls-19,.cls-2,.cls-20,.cls-21,.cls-22,.cls-23,.cls-24,.cls-25,.cls-26,.cls-27,.cls-28,.cls-29,.cls-3,.cls-30,.cls-31,.cls-32,.cls-33,.cls-34,.cls-35,.cls-36,.cls-37,.cls-38,.cls-39,.cls-4,.cls-40,.cls-41,.cls-46,.cls-47,.cls-48,.cls-49,.cls-5,.cls-50,.cls-51,.cls-52,.cls-53,.cls-54,.cls-55,.cls-56,.cls-6,.cls-7,.cls-8,.cls-9{stroke-opacity:0.4;}.cls-1{stroke-width:38.22px;}.cls-2{stroke-width:27.24px;}.cls-3{stroke-width:25.56px;}.cls-4{stroke-width:25.44px;}.cls-5{stroke-width:22.41px;}.cls-13,.cls-14,.cls-15,.cls-16,.cls-18,.cls-19,.cls-20,.cls-47,.cls-6,.cls-8,.cls-9{stroke:#d57928;}.cls-6{stroke-width:20.81px;}.cls-7{stroke-width:19.45px;}.cls-8{stroke-width:19.4px;}.cls-9{stroke-width:18.91px;}.cls-10{stroke-width:18.53px;}.cls-11{stroke-width:15.77px;}.cls-12{stroke-width:15.74px;}.cls-13{stroke-width:15.73px;}.cls-14{stroke-width:15.71px;}.cls-15{stroke-width:12.97px;}.cls-16{stroke-width:11.17px;}.cls-17{stroke-width:10.37px;}.cls-18{stroke-width:9.94px;}.cls-19{stroke-width:9.69px;}.cls-20{stroke-width:5.57px;}.cls-21,.cls-23,.cls-24,.cls-27,.cls-28,.cls-29,.cls-30,.cls-31,.cls-33,.cls-35,.cls-49{stroke:#639f42;}.cls-21{stroke-width:4.14px;}.cls-22,.cls-25,.cls-26,.cls-32,.cls-34,.cls-36,.cls-37,.cls-38,.cls-50{stroke:#159094;}.cls-22{stroke-width:3.03px;}.cls-23{stroke-width:2.95px;}.cls-24{stroke-width:2.69px;}.cls-25{stroke-width:2.42px;}.cls-26{stroke-width:2.21px;}.cls-27{stroke-width:2.2px;}.cls-28{stroke-width:2.12px;}.cls-29{stroke-width:2.09px;}.cls-30{stroke-width:1.88px;}.cls-31{stroke-width:1.73px;}.cls-32{stroke-width:1.64px;}.cls-33{stroke-width:1.52px;}.cls-34{stroke-width:1.31px;}.cls-35{stroke-width:1.17px;}.cls-36{stroke-width:1.16px;}.cls-37{stroke-width:1.12px;}.cls-39,.cls-51{stroke:#fecb41;}.cls-40,.cls-48{stroke:#991d26;}.cls-41,.cls-42,.cls-53,.cls-54,.cls-55,.cls-56,.cls-57,.cls-58,.cls-69{stroke:#757575;}.cls-42,.cls-57,.cls-58,.cls-69{stroke-miterlimit:10;}.cls-43,.cls-58,.cls-68{fill:#757575;}.cls-44,.cls-59,.cls-61,.cls-62{isolation:isolate;}.cls-44{font-size:21px;}.cls-44,.cls-59,.cls-61,.cls-62,.cls-64{fill:#353535;}.cls-44,.cls-59,.cls-61,.cls-64,.cls-68{font-family:ArialMT, Arial;}.cls-45{letter-spacing:-0.06em;}.cls-46{stroke-width:180.44px;}.cls-47{stroke-width:115.39px;}.cls-48{stroke-width:19.65px;}.cls-49{stroke-width:18.54px;}.cls-50{stroke-width:16.52px;}.cls-51{stroke-width:16.01px;}.cls-52{stroke:#1a1e4b;stroke-width:6.59px;}.cls-53{stroke-width:6.24px;}.cls-54{stroke-width:5.71px;}.cls-55{stroke-width:3.5px;}.cls-56{stroke-width:1.21px;}.cls-57{fill:#666;}.cls-59,.cls-68{font-size:20px;}.cls-60{letter-spacing:-0.04em;}.cls-61{font-size:28px;}.cls-62{font-size:16px;font-family:Arial-ItalicMT, Arial;font-style:italic;}.cls-63{font-size:38px;fill:#323232;font-family:Arial-BoldMT, Arial;font-weight:700;}.cls-64{font-size:27px;}.cls-65{letter-spacing:-0.06em;}.cls-66{fill:#002f64;}.cls-67{fill:#fff;}.cls-69{stroke-width:4px;}</style></defs><title>Bcn_areas_distritos_incidencias</title><path class="cls-1" d="M631.38,219.39c252.66,0,310.78-1.23,611.55-1.23" transform="translate(-16.08 -14.41)"/><path class="cls-2" d="M631.38,266.41c252.66,0,310.78,79.9,611.55,79.9" transform="translate(-16.08 -14.41)"/><path class="cls-3" d="M631.38,245.65c252.66,0,310.78,38.95,611.55,38.95" transform="translate(-16.08 -14.41)"/><path class="cls-4" d="M631.38,288.09c252.66,0,310.78,114.56,611.55,114.56" transform="translate(-16.08 -14.41)"/><path class="cls-5" d="M631.38,307.79c252.66,0,310.78,145.28,611.55,145.28" transform="translate(-16.08 -14.41)"/><path class="cls-6" d="M631,421.07c300.78,0,311.14-113.75,611.91-113.75" transform="translate(-16.08 -14.41)"/><path class="cls-7" d="M631.38,338C884,338,942.16,550.24,1242.93,550.24" transform="translate(-16.08 -14.41)"/><path class="cls-8" d="M631,474.44c300.78,0,311.14,43.34,611.91,43.34" transform="translate(-16.08 -14.41)"/><path class="cls-9" d="M631,404.65c300.78,0,311.14-158.49,611.91-158.49" transform="translate(-16.08 -14.41)"/><path class="cls-10" d="M631.38,353.63c252.66,0,310.78,237.75,611.55,237.75" transform="translate(-16.08 -14.41)"/><path class="cls-11" d="M631.38,323.5c252.66,0,310.78,177,611.55,177" transform="translate(-16.08 -14.41)"/><path class="cls-12" d="M631.38,362.83c252.66,0,310.78,267.83,611.55,267.83" transform="translate(-16.08 -14.41)"/><path class="cls-13" d="M631,459.9c300.78,0,311.14,11.85,611.91,11.85" transform="translate(-16.08 -14.41)"/><path class="cls-14" d="M631,436.18c300.78,0,311.14-68.82,611.91-68.82" transform="translate(-16.08 -14.41)"/><path class="cls-15" d="M631,448c300.78,0,311.14-26.56,611.91-26.56" transform="translate(-16.08 -14.41)"/><path class="cls-16" d="M631,499.4c300.78,0,311.14,144.45,611.91,144.45" transform="translate(-16.08 -14.41)"/><path class="cls-17" d="M631.38,373.58C884,373.58,942.16,667,1242.93,667" transform="translate(-16.08 -14.41)"/><path class="cls-18" d="M631,494.59c300.78,0,311.14,110.74,611.91,110.74" transform="translate(-16.08 -14.41)"/><path class="cls-19" d="M631,486.47c300.78,0,311.14,78.06,611.91,78.06" transform="translate(-16.08 -14.41)"/><path class="cls-20" d="M631,506.32c300.78,0,311.13,168.48,611.91,168.48" transform="translate(-16.08 -14.41)"/><path class="cls-21" d="M631.38,567.21c300.77,0,310.78-309.75,611.55-309.75" transform="translate(-16.08 -14.41)"/><path class="cls-22" d="M631.38,607.94c300.77,0,310.78-229.32,611.55-229.32" transform="translate(-16.08 -14.41)"/><path class="cls-23" d="M631.38,570.68C932.15,570.68,942.16,319,1242.93,319" transform="translate(-16.08 -14.41)"/><path class="cls-24" d="M631.38,575.52c300.77,0,310.78-146.37,611.55-146.37" transform="translate(-16.08 -14.41)"/><path class="cls-25" d="M631.38,603.1c300.77,0,310.78-342.43,611.55-342.43" transform="translate(-16.08 -14.41)"/><path class="cls-26" d="M631.38,605.37c300.77,0,310.78-283.88,611.55-283.88" transform="translate(-16.08 -14.41)"/><path class="cls-27" d="M631.38,577.91c300.77,0,310.78-97.37,611.55-97.37" transform="translate(-16.08 -14.41)"/><path class="cls-28" d="M631.38,573.16c300.77,0,310.78-197.07,611.55-197.07" transform="translate(-16.08 -14.41)"/><path class="cls-29" d="M631.38,580c300.77,0,310.78-51.71,611.55-51.71" transform="translate(-16.08 -14.41)"/><path class="cls-30" d="M631.38,581.7c300.77,0,310.78,29.42,611.55,29.42" transform="translate(-16.08 -14.41)"/><path class="cls-31" d="M631.38,581.89c300.77,0,310.78-11.77,611.55-11.77" transform="translate(-16.08 -14.41)"/><path class="cls-32" d="M631.38,610.22c300.77,0,310.78-179,611.55-179" transform="translate(-16.08 -14.41)"/><path class="cls-33" d="M631.38,583.36c300.77,0,310.78,66.71,611.55,66.71" transform="translate(-16.08 -14.41)"/><path class="cls-34" d="M631.38,613.42c300.77,0,310.78-41.81,611.55-41.81" transform="translate(-16.08 -14.41)"/><path class="cls-35" d="M631.38,582.72c300.77,0,310.78,95.39,611.55,95.39" transform="translate(-16.08 -14.41)"/><path class="cls-36" d="M631.38,611.6c300.77,0,310.78-129.41,611.55-129.41" transform="translate(-16.08 -14.41)"/><path class="cls-37" d="M631.38,615.5c300.77,0,310.78,35.86,611.55,35.86" transform="translate(-16.08 -14.41)"/><path class="cls-38" d="M631.38,614.51c300.77,0,310.78-2,611.55-2" transform="translate(-16.08 -14.41)"/><path class="cls-38" d="M631.38,616.43c300.77,0,310.78,62.63,611.55,62.63" transform="translate(-16.08 -14.41)"/><path class="cls-39" d="M630.66,629.36c304,0,314.68-99,612.27-99" transform="translate(-16.08 -14.41)"/><path class="cls-38" d="M631.38,612.47c300.77,0,310.78-82.84,611.55-82.84" transform="translate(-16.08 -14.41)"/><path class="cls-40" d="M631.74,525.59c300.78,0,310.42-202.87,611.2-202.87" transform="translate(-16.08 -14.41)"/><path class="cls-40" d="M631.74,525.31c300.78,0,310.42-263.32,611.2-263.32" transform="translate(-16.08 -14.41)"/><path class="cls-41" d="M631,672.24C931.8,672.24,942.15,323,1242.93,323" transform="translate(-16.08 -14.41)"/><path class="cls-41" d="M631.74,697.25c291.43,0,301.08-166.42,611.2-166.42" transform="translate(-16.08 -14.41)"/><path class="cls-40" d="M631.74,525.82c300.78,0,310.42-145.64,611.2-145.64" transform="translate(-16.08 -14.41)"/><path class="cls-40" d="M631.74,526.32c300.78,0,310.42,46,611.2,46" transform="translate(-16.08 -14.41)"/><path class="cls-40" d="M631.74,526c300.78,0,310.42-93.83,611.2-93.83" transform="translate(-16.08 -14.41)"/><path class="cls-40" d="M631.74,526.1c300.78,0,310.42-43.28,611.2-43.28" transform="translate(-16.08 -14.41)"/><path class="cls-40" d="M631.74,526.54c300.78,0,310.42,125.42,611.2,125.42" transform="translate(-16.08 -14.41)"/><path class="cls-40" d="M631.74,526.65c300.78,0,310.42,152.84,611.2,152.84" transform="translate(-16.08 -14.41)"/><path class="cls-41" d="M631,672.37c300.78,0,311.13-292.05,611.91-292.05" transform="translate(-16.08 -14.41)"/><path class="cls-40" d="M631.74,526.43c300.78,0,310.42,86.55,611.2,86.55" transform="translate(-16.08 -14.41)"/><path class="cls-41" d="M631,672.68c300.78,0,311.13-59.6,611.91-59.6" transform="translate(-16.08 -14.41)"/><path class="cls-41" d="M631,672.81c300.78,0,311.13,6.78,611.91,6.78" transform="translate(-16.08 -14.41)"/><path class="cls-40" d="M631.74,526.2c300.78,0,310.42,3.78,611.2,3.78" transform="translate(-16.08 -14.41)"/><path class="cls-41" d="M631,672.11c300.78,0,311.13-409.93,611.91-409.93" transform="translate(-16.08 -14.41)"/><path class="cls-41" d="M631.74,697c291.43,0,301.08-373.94,611.2-373.94" transform="translate(-16.08 -14.41)"/><path class="cls-41" d="M631,672.5c300.78,0,311.13-189.59,611.91-189.59" transform="translate(-16.08 -14.41)"/><path class="cls-41" d="M631,672.6c300.78,0,311.13-100.18,611.91-100.18" transform="translate(-16.08 -14.41)"/><path class="cls-41" d="M631,672.45c300.78,0,311.13-240.22,611.91-240.22" transform="translate(-16.08 -14.41)"/><path class="cls-41" d="M631.74,697.41c291.43,0,301.08-45.33,611.2-45.33" transform="translate(-16.08 -14.41)"/><path class="cls-41" d="M631.74,697.14c291.43,0,301.08-214.16,611.2-214.16" transform="translate(-16.08 -14.41)"/><path class="cls-41" d="M631.74,697c291.43,0,301.08-434.75,611.2-434.75" transform="translate(-16.08 -14.41)"/><path class="cls-41" d="M631.74,697.35c291.43,0,301.08-124.87,611.2-124.87" transform="translate(-16.08 -14.41)"/><path class="cls-41" d="M631,672.74c300.78,0,311.13-20.71,611.91-20.71" transform="translate(-16.08 -14.41)"/><path class="cls-41" d="M631,672.55C931.8,672.55,942.15,530,1242.93,530" transform="translate(-16.08 -14.41)"/><path class="cls-41" d="M631.74,697.38c291.43,0,301.08-84.25,611.2-84.25" transform="translate(-16.08 -14.41)"/><path class="cls-39" d="M630.66,629c304,0,314.68-305.94,612.27-305.94" transform="translate(-16.08 -14.41)"/><path class="cls-41" d="M631.74,697.45c291.43,0,301.08-17.81,611.2-17.81" transform="translate(-16.08 -14.41)"/><path class="cls-41" d="M631.74,697.09c291.43,0,301.08-316.72,611.2-316.72" transform="translate(-16.08 -14.41)"/><path class="cls-41" d="M631.74,697.11c195.46,0,204.91-264.85,611.2-264.85" transform="translate(-16.08 -14.41)"/><path class="cls-41" d="M631.38,751.2c300.78,0,310.78-428,611.55-428" transform="translate(-16.08 -14.41)"/><path class="cls-41" d="M631.38,751.19c300.78,0,310.78-488.93,611.55-488.93" transform="translate(-16.08 -14.41)"/><path class="cls-41" d="M631.38,751.21c300.78,0,310.78-370.82,611.55-370.82" transform="translate(-16.08 -14.41)"/><path class="cls-41" d="M631.38,718.75c300.78,0,310.78-286.48,611.55-286.48" transform="translate(-16.08 -14.41)"/><path class="cls-39" d="M630.66,629c304,0,314.68-146,612.27-146" transform="translate(-16.08 -14.41)"/><path class="cls-41" d="M631.38,751.22c300.78,0,310.78-318.95,611.55-318.95" transform="translate(-16.08 -14.41)"/><path class="cls-41" d="M631.38,718.75c300.78,0,310.78-456.48,611.55-456.48" transform="translate(-16.08 -14.41)"/><path class="cls-41" d="M631.38,751.23c300.78,0,310.78-99.12,611.55-99.12" transform="translate(-16.08 -14.41)"/><path class="cls-41" d="M631.38,751.22C932.16,751.22,942.16,483,1242.93,483" transform="translate(-16.08 -14.41)"/><path class="cls-41" d="M631.38,781.51c300.78,0,310.77-349.23,611.55-349.23" transform="translate(-16.08 -14.41)"/><path class="cls-39" d="M630.66,629.7c304,0,314.68-57.25,612.27-57.25" transform="translate(-16.08 -14.41)"/><path class="cls-41" d="M631.38,718.76c300.78,0,310.78-105.62,611.55-105.62" transform="translate(-16.08 -14.41)"/><path class="cls-39" d="M630.66,629.71c306.85,0,317.55,22.35,612.27,22.35" transform="translate(-16.08 -14.41)"/><path class="cls-41" d="M631.38,751.22c300.78,0,310.78-220.31,611.55-220.31" transform="translate(-16.08 -14.41)"/><path class="cls-41" d="M631.38,718.77c300.78,0,310.78-66.65,611.55-66.65" transform="translate(-16.08 -14.41)"/><path class="cls-41" d="M631.38,751.23c300.78,0,310.78-138.08,611.55-138.08" transform="translate(-16.08 -14.41)"/><path class="cls-41" d="M631.38,781.51c300.78,0,310.77-458.35,611.55-458.35" transform="translate(-16.08 -14.41)"/><path class="cls-41" d="M631.38,718.76c300.78,0,310.78-146.26,611.55-146.26" transform="translate(-16.08 -14.41)"/><path class="cls-41" d="M631.38,718.76C932.16,718.76,942.16,483,1242.93,483" transform="translate(-16.08 -14.41)"/><path class="cls-41" d="M631.38,718.75c300.78,0,310.78-395.59,611.55-395.59" transform="translate(-16.08 -14.41)"/><line class="cls-42" x1="615.3" y1="767.1" x2="615.3" y2="766.32"/><polyline class="cls-43" points="615.3 363.14 612.28 363.14 612.28 186.32 615.3 186.32"/><rect class="cls-43" x="611.7" y="587.5" width="3.6" height="14.9"/><line class="cls-43" x1="614.58" y1="614.58" x2="614.58" y2="615.3"/><line class="cls-42" x1="615.3" y1="736.78" x2="615.3" y2="736.82"/><rect class="cls-43" x="611.7" y="550.77" width="3.6" height="18.12"/><rect class="cls-43" x="612.06" y="510.77" width="3.59" height="1.53"/><rect class="cls-43" x="1226.85" y="478.4" width="3.6" height="38.1"/><text class="cls-44" transform="translate(1237.08 503.45)">Ciutat <tspan class="cls-45" x="60.69" y="0">V</tspan><tspan x="73.54" y="0">ella</tspan></text><rect class="cls-43" x="1226.85" y="257.66" width="3.6" height="51.09"/><text class="cls-44" transform="translate(1237.08 288.21)">Eixample</text><rect class="cls-43" x="1226.85" y="608.54" width="3.6" height="29.16"/><text class="cls-44" transform="translate(1235.08 629.48)">Gràcia</text><rect class="cls-43" x="1226.85" y="318.55" width="3.6" height="47.43"/><text class="cls-44" transform="translate(1236.58 336.27)">Horta-<tspan x="0" y="25.2">Guinardó</tspan></text><rect class="cls-43" x="1226.85" y="647.51" width="3.6" height="17.73"/><text class="cls-44" transform="translate(1237.08 660.4)">Les Corts</text><rect class="cls-43" x="1226.85" y="375.78" width="3.6" height="42.09"/><text class="cls-44" transform="translate(1235.08 402.83)">Nou Barris</text><rect class="cls-43" x="1226.85" y="567.89" width="3.6" height="30.85"/><text class="cls-44" transform="translate(1235.08 590.96)">Sant<tspan class="cls-45" x="43.2" y="0"> </tspan><tspan x="47.88" y="0">Andreu</tspan></text><rect class="cls-43" x="1226.85" y="138.31" width="3.6" height="109.55"/><text class="cls-44" transform="translate(1237.08 206.99)">Sant <tspan x="0" y="25.2">Martí</tspan></text><rect class="cls-43" x="1226.85" y="427.68" width="3.6" height="40.93"/><text class="cls-44" transform="translate(1237.08 440.31)">Sants-<tspan x="0" y="25.2">Montjuïc</tspan></text><rect class="cls-43" x="1226.85" y="526.3" width="3.6" height="31.79"/><text class="cls-44" transform="translate(1237.08 542.2)">Sarrià-<tspan x="0" y="25.2">Sant Gervasi</tspan></text><path class="cls-46" d="M26.24,352C327,352,327,289.13,627.79,289.13" transform="translate(-16.08 -14.41)"/><path class="cls-47" d="M26.24,497C327,497,327,451.89,627.79,451.89" transform="translate(-16.08 -14.41)"/><path class="cls-48" d="M26.24,563.16c300.78,0,300.78-28.3,601.55-28.3" transform="translate(-16.08 -14.41)"/><path class="cls-49" d="M26.24,581.88c300.78,0,300.78-7.5,601.55-7.5" transform="translate(-16.08 -14.41)"/><path class="cls-50" d="M26.24,599.06c300.78,0,300.78,10.3,601.55,10.3" transform="translate(-16.08 -14.41)"/><path class="cls-51" d="M26.24,615C327,615,327,636.1,627.79,636.1" transform="translate(-16.08 -14.41)"/><path class="cls-52" d="M26.24,626.07C327,626.07,327,656,627.79,656" transform="translate(-16.08 -14.41)"/><path class="cls-53" d="M26.24,632.36c300.78,0,300.78,42.7,601.55,42.7" transform="translate(-16.08 -14.41)"/><path class="cls-54" d="M26.24,638.21c300.78,0,300.78,60.5,601.55,60.5" transform="translate(-16.08 -14.41)"/><path class="cls-55" d="M26.24,642.73C327,642.73,327,720,627.79,720" transform="translate(-16.08 -14.41)"/><path class="cls-56" d="M26.24,645C327,645,327,751.14,627.79,751.14" transform="translate(-16.08 -14.41)"/><path class="cls-41" d="M26.24,645.73c300.78,0,300.78,135.9,601.55,135.9" transform="translate(-16.08 -14.41)"/><rect class="cls-57" x="611.7" y="766.12" width="3.59" height="0.19"/><rect class="cls-43" x="611.7" y="638.34" width="3.59" height="6.46"/><rect class="cls-58" x="611.7" y="657.44" width="3.59" height="6.21"/><rect class="cls-43" x="611.7" y="132.98" width="3.59" height="230.17"/><text class="cls-59" transform="translate(441.14 270)">Mantenimiento del<tspan x="26.66" y="24">espacio urbano</tspan></text><rect class="cls-43" x="611.7" y="586.86" width="3.59" height="16.19"/><text class="cls-59" transform="translate(520.01 600.1)">Movilidad</text><rect class="cls-43" x="611.34" y="613.79" width="3.59" height="15.69"/><text class="cls-59" transform="translate(561.95 628.32)">Ocio</text><rect class="cls-57" x="611.7" y="736.14" width="3.59" height="1.19"/><rect class="cls-43" x="611.7" y="380.95" width="3.59" height="113.08"/><text class="cls-59" transform="translate(427.28 432.68)">Recogida y limpieza<tspan x="9.96" y="24">del espacio urbano</tspan></text><rect class="cls-43" x="611.7" y="550.89" width="3.59" height="18.17"/><text class="cls-59" transform="translate(460.14 567.29)">Sanidad pública</text><rect class="cls-58" x="611.7" y="703.91" width="3.59" height="3.43"/><rect class="cls-43" x="611.7" y="510.83" width="3.59" height="19.26"/><text class="cls-59" transform="translate(420.63 526.09)"><tspan class="cls-60">T</tspan><tspan x="11.47" y="0">ransportes públicos</tspan></text><rect class="cls-58" x="611.7" y="681.51" width="3.59" height="5.6"/><rect class="cls-43" x="6.56" y="249.21" width="3.59" height="382.21"/><text class="cls-61" transform="translate(12.92 158.03)">Barcelona</text><polyline class="cls-43" points="615.3 493.05 612.28 493.05 612.28 380.75 615.3 380.75"/><text class="cls-62" transform="translate(622.43 646.3)">No data</text><text class="cls-63" transform="translate(6.56 32.6)">Incidencias más frecuentes por áreas y distritos</text><text class="cls-64" transform="translate(9.15 68.59)">Las incidencias presentadas en el<tspan class="cls-65" x="406.77" y="0"> </tspan><tspan x="412.78" y="0">Ajuntamente de Barcelona, entre 2014 y 2017</tspan></text><polygon class="cls-66" points="1147.97 757.1 1355.17 757.1 1355.17 788.57 1147.97 788.57 1147.97 757.1 1147.97 757.1"/><path class="cls-67" d="M1330.28,778.53h-7.94v1l2.09.49v14.66a1.74,1.74,0,0,1-1.46.74,3.12,3.12,0,0,1-2.58-1.89l-2-3.55a4.11,4.11,0,0,0-3.63-2.44v-.24c2.66-.07,5-2,5-4.52,0-3-2.77-4.24-6-4.24h-7.21v1l2.35.49v14.85h0l-2.71.52L1299.5,777a8.48,8.48,0,0,1-2.43,2.08l.26.74-6.16,15.09-1.86.5v1h5.6v-1l-1.83-.48,2.08-5.49h5.71l2,5.46-2.15.52v1h13.67v-1l-2.3-.49V788c1.55.1,2.3.81,3,2.24l2.71,4.83a4.38,4.38,0,0,0,3.92,2.38,3.87,3.87,0,0,0,2.57-1.06h6.12a9.19,9.19,0,0,0,9.43-8.93c0-5.21-4-8.93-9.59-8.93ZM1295.62,788l2.42-6.34,2.32,6.34Zm17.69-1.34h-1.22V780h1.53a3,3,0,0,1,3.12,3.19,3.46,3.46,0,0,1-3.43,3.47Zm16.8,8.23h-2.55V780h2.62c4.05,0,6.54,2.8,6.54,7.44s-2.59,7.44-6.61,7.44Z" transform="translate(-16.08 -14.41)"/><path class="cls-67" d="M1200,794.91l-6.6-17.93a8.45,8.45,0,0,1-2.43,2.08l.26.74L1185,794.89l-1.31.5-.39,1h5.45v-1l-1.84-.48,2.08-5.49h5.71l2,5.46-2.15.52v1h7.33v-1l-2-.48ZM1189.49,788l2.42-6.34,2.32,6.34Z" transform="translate(-16.08 -14.41)"/><polygon class="cls-67" points="1168.16 777.45 1167.49 777.08 1163.64 780.6 1160.34 780.6 1160.34 765.62 1162.32 765.12 1162.32 764.13 1155.21 764.13 1155.21 765.12 1157.21 765.63 1157.21 780.48 1155.21 780.98 1155.21 781.98 1166.39 781.98 1168.16 777.45 1168.16 777.45"/><polygon class="cls-67" points="1199.18 764.13 1199.18 765.12 1201.33 765.62 1196.66 777.57 1191.75 765.6 1194.07 765.12 1194.07 764.13 1186.14 764.13 1186.14 765.12 1188.4 765.62 1195.45 782.6 1196.21 782.6 1203.23 765.64 1203.3 765.64 1205.49 765.12 1205.49 764.13 1199.18 764.13 1199.18 764.13"/><path class="cls-67" d="M1285.67,778.53v1l2.13.5s.16,8.85.08,11.09a4.51,4.51,0,0,1-4.81,4.36,4.44,4.44,0,0,1-4.81-4.59V780l2.07-.47v-1h-7.17v1l2,.48v11c.13,3.77,3.18,6.25,7.1,6.25s7-2.29,7.1-6.25l.14-11,2.09-.5v-1Z" transform="translate(-16.08 -14.41)"/><path class="cls-67" d="M1363.24,794.87,1356.67,777a8.48,8.48,0,0,1-2.43,2.08l.26.74L1348.32,795l-1.05.43-1.42-.45V780l2.19-.5v-1h-7.47v1l2.16.51V794.9l-2.07.49v1h11.43v-1l-1.84-.48,2.08-5.49H1358l2,5.46-2.15.52v1h7.33v-1l-2-.52ZM1352.79,788l2.41-6.34,2.33,6.34Z" transform="translate(-16.08 -14.41)"/><path class="cls-67" d="M1247.31,778.53v1l2.18.51.13,11.68-11.19-13.18h-4.78v1l2.16.48.18.09-.16,14.77h0l-2.2.52L1226.89,777a8.48,8.48,0,0,1-2.43,2.08l.26.74-6.16,15.09-1.86.5v1h5.6v-1l-1.83-.48,2.08-5.49h5.71l2,5.46-2.15.52v1h11.74v-1l-2.3-.5-.14-12.92,12.79,15h.85l.17-17,2.17-.5v-1ZM1223,788l2.42-6.34,2.32,6.34Z" transform="translate(-16.08 -14.41)"/><path class="cls-67" d="M1266.1,787.26v1l2,.51v5.75a6.69,6.69,0,0,1-4,1.34c-4.06,0-6.65-3.42-6.65-8.15s2.55-8.52,6.71-8.52a6.36,6.36,0,0,1,6,4.86l.58-.34v-5.64l-.51-.29-1.08,1.37a11.29,11.29,0,0,0-4.95-1.26,10,10,0,0,0-10,9.84c0,5.56,3.93,9.52,9.25,9.52a9.22,9.22,0,0,0,5.76-1.92l1.57,1h.51v-7.66l1.69-.64v-.82Z" transform="translate(-16.08 -14.41)"/><text class="cls-68" transform="translate(0 791.98)">Fuente:<tspan class="cls-45" x="67.82" y="0"> </tspan><tspan x="72.28" y="0">Ajuntament de Barcelona</tspan></text><line class="cls-69" x1="8.15" y1="136.98" x2="8.15" y2="256.78"/><text class="cls-61" transform="translate(621.59 158.03)">Área</text><text class="cls-61" transform="translate(1237.45 157.03)">Distrito</text></svg>