<?xml version="1.0" encoding="utf-8"?>
<!-- Generator: Adobe Illustrator 21.0.2, SVG Export Plug-In . SVG Version: 6.00 Build 0)  -->
<svg version="1.1" id="Capa_1" xmlns="http://www.w3.org/2000/svg" xmlns:xlink="http://www.w3.org/1999/xlink" x="0px" y="0px"
	 viewBox="0 0 805.7 997.9" style="enable-background:new 0 0 805.7 997.9;" xml:space="preserve">
<style type="text/css">
	.st0{opacity:0.7;fill:#84BCB4;stroke:#757575;}
	.st1{opacity:0.7;fill:#248982;stroke:#757575;}
	.st2{opacity:0.7;fill:#001B1C;stroke:#757575;}
	.st3{opacity:0.7;fill:#034749;stroke:#757575;}
	.st4{fill:none;}
	.st5{fill:#FFFFFF;}
	.st6{font-family:'OpenSans';}
	.st7{font-size:18px;}
	.st8{font-size:23px;}
	.st9{fill:#323232;}
	.st10{fill:#757575;}
	.st11{font-size:16px;}
	.st12{font-family:'OpenSans-Bold';}
	.st13{font-size:32px;}
	.st14{font-size:27px;}
	.st15{fill:#002F64;}
</style>
<path class="st0" d="M782.8,473.7L782.8,473.7l-3.4,2.8l-4.4,3.8l-1.9,1.9l-2.2,2.2l-1.9,2.4l-0.9,1.3l-0.9,1.6l-1,1.8l-0.3,1.2
	l-0.6,1.6l-2-0.6l-0.5-0.6l-1.6-1l-0.3,0l-0.2,0.6l-0.8,1.8l-0.8,1.5l-0.4,0.7l-0.7,1l-0.5,0.7l-0.3,0.4l-0.5,0.7l-0.6,0.8l-1.2,1.5
	l-0.4-0.3l-0.6-0.4l-1.3,1.5l-3,3.5l-1.9,1.9l-2.4,2.2l-0.4,0.3l-2.6,1.9l-2.7,1.8l-0.6,0.4l-2.3,1.5l-4,2.3l-3.1,1.6l-1.1,0.5
	l-1.4,0.6l-1.5,0.7l-8,3.8l-0.3,0.1l-0.6,0.1l-5.3,2.7l-9.7,4.4l-4.3,2l-3.2,1.5l-0.5,0.4l-0.5,0.4l-0.2,0.2l-7.5,3.3l-5.3,2.3
	l-5.2,2.3l-1.3,0.6l-4.3,2.1l-3.3,1.6l-1.8,0.9l-2.9,1.4l-1.4,0.7l-0.5,0.2l-3.9,1.8l-0.5,0.2l-2.3,0.8l-1.2,0.5l-5.7,2.6l-3,1.3
	l-1.7,0.1l-2.3,0.9l-1.4,0.7l-2.3,1.5l-1.5,1.8l-0.9,1.8l-0.3,0.5l0,0.1l-0.6,0.9l-3.4,7.6l0,0l-2.1,4.6l-1.7-0.4l-0.1-0.2l-4-5.8
	l-6.2-9l-1-1.7l-0.2-0.5l-0.4-0.9l-2.9-5.9l-1.9,1l-0.2,0.1l-2.7,2.1l-0.3,0.2l-0.7,0.6l-0.2,0.5l-5.6,4.6l-3.1-3.7l-0.6-2.1
	l-0.1-0.4l-2.4-8.4l-1.4-4.8l-1.5-5.4l-0.9-3.4l-0.1-0.3l-0.3-0.4l-0.1-0.2l-2.8-5.8l-1.8-3.6l-0.3-0.5l-0.3-0.5l-0.7-1.4l-1.5-2.5
	l-1.3-2.2l-0.7-1.4l-0.3-0.6l-0.7-1.5l-0.8-1.8l-0.2-0.9l0-0.2l0.2-0.4l5.4,1l0.7,0.1l1.8,0.4l0.4,0.4l0.5,0.3l0.1,0l0.1,0l0.2,0
	l0.1,0l0.3-0.1l0.6,0.1l0.3-0.2l0.8,0.5l1.3,0.4l0.1-4.6l0.1-3.4l0-1.5l-0.1-1.9l0.7-1.1l0,0l2.3-4.3l0.6-1l0.2-0.4l0.4-0.4l0.7-0.7
	l1.1-1l1.3-0.8l0.4-0.3l3.6-1.7l1.7-0.8l0.3-0.1l0,0l1.8-0.8l2-0.9l7.2-2.9l-1.4-4.5l0.6-0.1l0.1,0l0.9-0.2l0.8-0.1l0.7-0.1l0-0.8
	l0-0.5l0-0.4l0.4,0l-0.2-0.4l-0.1-0.1l0.1,0l1,0l0.8,0l1.3,0l0.4,0l0-4.1l0-1.8l0.1-1l0.6-2.2l0.7-1.5l1-1.7l0.7-0.7l0.5-0.7
	l0.3-0.4l0.9-0.6l1.8-0.6l1-0.1l0.6,0.1l0.5,0.3l0.3,0.2l0.4,0.4l0.9,1.1l0.3,0.2l0.6-0.2l0.4-0.1l0.8-0.6l0.3-0.6l0-0.4l-0.3-0.4
	l-0.5-0.6l-0.2-0.4l-0.3-2.4l-0.5-0.4l-0.2-2l0-0.6l-0.1-0.8l-0.3-2.2l-0.2-0.9l0.3-0.9l0.1-0.2l-0.9-0.2l-0.8,0.2l-0.3-1.3l0-1
	l0.2-0.9l0.7-1.5l0.5-1.3l1.2-1.7l0.2-0.4l1.2-1.2l0.6-1l0.2-0.5l0-1.1l0.5-0.7l1.3-1.4l0.4-0.6l0.3-1.4l0-0.3l-0.2-0.5l-0.6-1.1
	l0.1-1.4l0-1.1l-0.2-1.6l-0.5-1l-0.5-0.7l0.2-0.5l0.3-0.3l0.3-0.1l0.5,0.2l0.7,0.9l3.3,2.5l0.5,0.2l3.5-1.1l0.9-0.6l0.4-0.4l0.4-0.7
	l0-1.7l0.2-0.4l0.3-0.2l0.4,0.1l0.7,0.9l0.8,0.5l0.7,0.2l1.9,0.2l1.8,0l5.1-0.6l2.9-0.5l0.4,0.1l0.3-0.2l0.4-0.3l0.2-0.1l0.7-0.3
	l0.8-0.7l0.8-1.1l0.1-0.4l0.3,0.2l3.7,4l0,0l0.5,0.5l0,0l0.1,0.1l1.3,2.4l0,0l0.1,0.5l0,0l0.5,2.7l0,2.5l1,1.4l2.1,2.3l0,0l0,0
	l0.3-0.2l0,0l0,0l2-1.3l2.7-0.6l4.2,0.1l1.9,0.2l1.3-0.8l0,0l0,0l1.5-5l0.4-2l2.5-3.3l1.7-1.3l1.7-0.9l2.3,0l1.7-0.7l0,0l0,0
	l3.8-1.7l0.7-2.2l1.1-1.9l1.3-0.5l6.6-0.4l5.1-1.4l0,0l1.8-0.5l3.6,0.2l8.1,2l0,0l0.1,0l0,0l0.7,0.2l0.9,0.7l0.5,0.5l0,0l0.8,0.8
	l0.7,0.4l2.2,1.8l2.5,0.8l1.5,0.8l0,0l0,0l0.1,0l4.1,1.6l0,0l0,0l0,0l0.7,0.5l1.8,0.8l0,0l0,0l3.2,0.5l1.6,0.1l0,0l0,0l0.6,0l3.1,0
	l0,0l0.4,0.1l0,0l2.4,0.7l2.5,0.7l3.2,2.1l1.4,1.4l1.6,0.8l3.1,1.2l7.5,8l1,1.2l0,0l0,0l1.5-4.3l1.3-0.6l0,0l0,0l2.1-0.9l-2.8-2.7
	l1.9-3.2l3.6-3.9l2.7-2.1l-0.1,0.5l0,0l-0.7,4.3l3.6,2.5l10.2,7.5l0.9,1.1l2.3,5.3l0,0l0.1,0.3l3.3,1.8l-0.1,1.4l0,0l-0.1,2.3l0,0
	l0,0l0,0.1l-4.5,3.9l0,0l-0.5,0.4l-1.6,1.1l-9.9,8.6L782.8,473.7z"/>
<path class="st0" d="M534.3,604.3l-6.4-0.8l-6.2-0.7l-6.4-0.7l-6.3-0.7l-6.1-0.6l-7.3-0.8l0.7-4.8l0.5-3.8l0.5-3.7l0.5-3.5l0.6-4.1
	l0.7-4.3l0.4-1l-0.1-1.8l0.8-2.7l2.4-6.2l1-2.3l0.5-1.8l0.1-0.3l2-5.1l0.5-0.3l0.6-0.1l0.5-0.4l0.3-0.4l0.3-1.2l-0.3-0.3l-1.3-0.6
	l-1-0.4l-0.7-1.8l-0.1-0.2l-0.2-1.7l0.3-1.9l0.4-2.2l0.7-2.5l0.8-2.3l1.3-2.5l2-3.1l-0.1-0.6l-0.2-0.3l-0.6-0.3l-0.4,0l-4.6,1
	l-0.8,0l-0.8-0.2l-1.2-0.2l-1.5-0.3l-0.8-0.8l-0.7-0.1l-0.1,0l-0.5-0.1l-0.4-0.3l-0.2-0.4l0-0.4l0.3-1.6l-0.1-0.4l0.2-0.9l0.2-2
	l0.7-3l0.8-3.2l0.1-1.1l0,0l0.2-1.4l-1.5-2.7l0.4-0.5l0.3-1l0.3-2.8l0.6-1.8l0.4-0.5l0.5-0.4l2.2-0.8l2.4-0.4l2.1-0.6l1.6-0.9l1.6-1
	l1.5-1l-0.2-0.6l-0.8-1l-0.6-1.1l-1.5-2.7l-0.2-0.4l-1.5-2.5l0-0.2l0.2-0.2l1.1,0l0.3-0.2l0.3-0.2l3-2.4l0.4-0.4l0.1-0.5l-0.1-0.3
	l-3.5-4.4l-0.3-0.2l-0.2-0.1l-3.4-1.5l-4.2-3.1l-1.7-1.4l-1.2-0.7l-0.8-0.1l-1.1,0.1l-1.9-0.3l-0.9,0l0,0l-0.5-0.5l0-0.6l0.6-3.1
	l1-6.5l-0.1-0.5l-0.3-0.5l-0.4-0.4l-2.3-1.2l-0.8-0.5l-1.5-0.6l-0.4-0.2l-0.4-0.1l-2.9,1l-1.6,0.6l-1.4-4.7l-0.9-3.3l-0.2-1.1
	l0.1-0.5l0.3-0.5l0.7-0.6l0.5-0.2l0.7,0.1l1.5,0.7l0.6,0.2l0.7-0.1l0.9-0.5l0.5-0.7l2.8-4l0.6-1.3l0.2-0.9l0-1.4l-0.2-0.9l-0.2-0.7
	l-1.3-2.1l-0.1-1l0.6-0.9l2.1-1.8l0.3-0.4l0.3-1.1l0-0.6l-0.6-2.6l-0.4-0.1l-0.2,0.1l-0.2,0.1l-0.1,0.1l-0.1,0.2l-0.1,0.3l-0.4,1.5
	l-0.1,0.2l-0.1,0.1l-0.1,0.1l-0.2,0.1l-0.6,0.2l-0.6,0.2l-0.6,0.1l-0.7,0l-0.4,0l-0.4-0.1l-0.2,0l-0.2,0l-0.6,0.2l-0.2-0.5l-1.3,0.2
	l-0.8,0.2l-1.3,0.4l-1.3,0.6l-0.4,0.3l-0.2,0.3l-0.1,0.3l-0.1,0.6l0,0.4l0,0.6l0,0.2l-0.2,0.3l-0.9,2.4l-1.2,2l-0.1,0.1l-0.2,0
	l-0.1-0.1l0.7-2.9l-0.3-0.8l-0.7-0.9l-0.6-0.5l-0.9-0.5l-0.5-0.8l-0.4-0.9l-0.6-0.5l-0.8-0.1l-0.9,0l-1.2-0.9l-1-1l-1.5-1.2
	l-0.7-0.8l-0.5-0.2l-0.3,0.1l-0.7,0.7l-0.3,0.6l-0.2,0.7l-0.6,1.8l-0.8,2l-0.5,1.4l-0.3,0.3l-0.4,0.2l-0.5,0l-1.9-1l-1.6-0.5
	l-0.7-0.2l-0.4-0.5l0-0.5l0.3-0.6l0.9-1.3l0.2-0.8l-0.4-1.8l-1-0.4l-1.2,0.6l-1.2,0.2l-0.7-0.5l-0.4-0.7l-0.1-0.7l0.1-0.7l0.6-1
	l0.1-0.3l-0.1-0.3l-0.3-0.2l-1.4-0.1l-0.4-0.3l-0.2-0.6l-0.4-0.3l-1-0.2l-1.1-0.5l-0.8,0l-0.7,0.6l0,0.5l0.2,0.7l0.1,0.8l-0.4,1.4
	l-0.3,0.4l-0.4,0.2l-0.5,0.1l-0.9-0.1l-0.3,0l-0.3,0.2l-0.2,0.4l-0.2,0.8l0,2.1l-0.4,1.7l-0.3,1.1l-0.3,0.1l-0.1-0.4l-0.1,0
	l-0.3-2.9l-0.1-0.6l-0.6-5.8l-0.2-1.6l-0.3-2.7l-0.2-2l-0.1-0.5l0-0.3l0-0.2l0-0.2l-0.2-1l-0.1-0.4l-0.1-0.5l-0.2-1.5l-0.1-0.5
	l-0.7-5.9L441,411l-0.2-1.6l-0.3-2.2l-0.1-0.5l-0.1-0.6l-0.1-1.2l-0.1,0l-0.1-0.5l-0.1-0.8l0,0l0-0.3l0,0l0-0.2l1.2,0.5l0.3,0.1
	l0.2,0l0.6-0.3l0.7-0.9l0.4-0.8l0.5-1.7l0.2-1l0.2-0.7l0.4-0.7l1-1.5l0.7-1.3l0.3-0.5l0.4-0.3l0.6-0.3l0.5-0.1l0.5-0.4l2.3-2.3
	l1-0.8l1.2-0.6l6.7-1.6l1.1-0.3l0.5-0.3l0.4-0.4l0.2-0.5l0-0.5l0,0l0-0.7l0,0l4.1-0.1l7-0.9l3.2-1.2l2.6-0.7l0.3,0.1l0,0l0.3,0l0,0
	l1.5,0.2l2.7,0.2l0,0l1.5,0.1l10.4,0.8l4.3-0.2l0.7,0l0-0.1l2.4-0.1l6.6-1l1.4-0.3l0,0l3.5-0.8l0,0l0.1,0l6.1-2.2l0.1-0.1l0,0
	l5.4-5.1l3.8-2.2l6.6-1.9l1.8-0.7l0,0l0,0l2.4-0.9l6.6-4.8l0,0l1.1-0.8l2.9-3l0,0l0,0l0.7-0.8l0,0l2.1-2.3l4.4-2.4l5,1.3l0,0
	l0.3,0.1l0,0l1,0.3l7.6,3.4l0,0l0.9,0.4l0,0l0,0l3.3-2.5l0,0l1-0.8l5.3,0.2l2.9,0.3l0,0l0.6,0.1l2.7,0.1l2,0.9l0,0l0.2,0.1l1.2,1.1
	l2.2,1.7l0.3,0.4l0,0l0.7,0.8l0,0l0,0l1.2,1.3l0.1,0.1l0,0l0,0l2.2,2.1l0,0l0.5,0.5l0.7,1.9l0,0l1.1,2.9l0.8,2.7l1.6,3.6l0.3,0.5
	l0,0l1.3,2l0.6,0.6l0,0l2.3,2.3l3.4,1.9l0,0l0.9,0.5l2.6,1.8l1.8,4.1l0.2,0.6l0,0l0.9,2.5l0.2,2.9l0.4,3.1l0.4,1.9l1,0.4l0,0
	l0.9,0.3l0,0l1.9,0.9l2,1.5l2.9,3.6l1.1,1.2l0.5,0.2l0.2,0.1l0.1,0l0,0l1,0.1l4.6,1l4.9-1l4.1,0.2l3.1,1.4l2.4,1.4l1.1,1.3l0,0
	l1.4,1.6l0.7,0.9l0,0l1.9,2.4l1.7,1.7l1.5,1.1l0,0l3.1,2.3l-0.1,0.4l-0.8,1.1l-0.8,0.7l-0.7,0.3l-0.2,0.1l-0.4,0.3l-0.3,0.2
	l-0.4-0.1l-2.9,0.5l-5.1,0.6l-1.8,0l-1.9-0.2l-0.7-0.2l-0.8-0.5l-0.7-0.9l-0.4-0.1l-0.3,0.2l-0.2,0.4l0,1.7l-0.4,0.7l-0.4,0.4
	l-0.9,0.6l-3.5,1.1l-0.5-0.2l-3.3-2.5l-0.7-0.9l-0.5-0.2l-0.3,0.1l-0.3,0.3l-0.2,0.5l0.5,0.7l0.5,1l0.2,1.6l0,1.1l-0.1,1.4l0.6,1.1
	l0.2,0.5l0,0.3l-0.3,1.4l-0.4,0.6l-1.3,1.4l-0.5,0.7l0,1.1l-0.2,0.5l-0.6,1l-1.2,1.2l-0.2,0.4l-1.2,1.7l-0.5,1.3l-0.7,1.5l-0.2,0.9
	l0,1l0.3,1.3l0.8-0.2l0.9,0.2l-0.1,0.2l-0.3,0.9l0.2,0.9l0.3,2.2l0.1,0.8l0,0.6l0.2,2l0.5,0.4l0.3,2.4l0.2,0.4l0.5,0.6l0.3,0.4
	l0,0.4l-0.3,0.6l-0.8,0.6l-0.4,0.1l-0.6,0.2l-0.3-0.2l-0.9-1.1l-0.4-0.4l-0.3-0.2l-0.5-0.3l-0.6-0.1l-1,0.1l-1.8,0.6l-0.9,0.6
	l-0.3,0.4l-0.5,0.7l-0.7,0.7l-1,1.7l-0.7,1.5l-0.6,2.2l-0.1,1l0,1.8l0,4.1l-0.4,0l-1.3,0l-0.8,0l-1,0l-0.1,0l0.1,0.1l0.2,0.4l-0.4,0
	l0,0.4l0,0.5l0,0.8l-0.7,0.1l-0.8,0.1l-0.9,0.2l-0.1,0l-0.6,0.1l1.4,4.5l-7.2,2.9l-2,0.9l-1.8,0.8l0,0l-0.3,0.1l-1.7,0.8l-3.6,1.7
	l-0.4,0.3l-1.3,0.8l-1.1,1l-0.7,0.7l-0.4,0.4l-0.2,0.4l-0.6,1l-2.3,4.3l0,0l-0.7,1.1l0.1,1.9l0,1.5l-0.1,3.4l-0.1,4.6l-1.3-0.4
	l-0.8-0.5l-0.3,0.2l-0.6-0.1l-0.3,0.1l-0.1,0l-0.2,0l-0.1,0l-0.1,0l-0.5-0.3l-0.4-0.4L582,514l-0.7-0.1l-5.4-1l-0.2,0.4l0,0.2
	l0.2,0.9l0.8,1.8l0.7,1.5l0.3,0.6l0.7,1.4l1.3,2.2l1.5,2.5l0.7,1.4l0.3,0.5l0.3,0.5l1.8,3.6l2.8,5.8l0.1,0.2l0.3,0.4l0.1,0.3
	l0.9,3.4l1.5,5.4l1.4,4.8l2.4,8.4l0.1,0.4l0.6,2.1l-1,2.7l-0.8,1.9l-0.4,1l-1.5,4.6l-1.4,4.2l-0.9,2.5l-0.8,2.4l-1,3.1l-0.7,2.1
	l-0.1,0.3l-1.1,3.5l-0.9,2.4l-0.5,0.9L583,594l-0.7,0.6l-1,0.6l-1.9,1l-0.7,0.4l-2.6,1.4l-0.3,0.2l-1.1,0.6l-0.3,0.2l-2.7,1.6
	l-1.3,0.9l-2,1.5l-2.5,2l-0.9,0.7l-1.8,1.5l-1.8,0.3l-3.9-0.5l-3-0.4l-1-0.1l-6.6-0.9l-5.8-0.7L534.3,604.3z"/>
<path class="st0" d="M353.4,176.1l0.2,0.3l-1.4,2.2l-1.5,0.9l-1.2,1.1l0,0l-3.4,3.3l-1.5,2l-1.4,4.1l-0.1,3l4.2,6.1l0.4,2.2l-1.7,4
	l-1.1,1l0,0l0,0l-0.3,0.3l-2.3,1.1l-6.2,2.5l-1.4,0.9l0,0l-1,0.6l-0.7,1l0,0.5l0,0l0,0.7l0,0l-0.3,12l-5.4,3.7l-4.9,4.7l-4.2,3.4
	l-3.2,4.5l-3.1,3.8l-2.8,2.3l0,0l0,0l0,0l-1.1,0.9l-3-0.7l-1.4-0.9l-2.3-2l-7.1-5.8l-2.2-2.3l-2.6-3.3l-1.1,0l0,0l0,0l-1.7,3.2
	l-1.4,0.6l0,0l-0.6,0.3l-6.7,3.5l-7.4,1.9l-0.8,0l0,0l0,0l-2.6,0l-5.7-4.2l-1.5-0.1l-1.4,0.3l-3.1-3.8l-0.5-0.9l0,0l0,0l-1.4-2.6
	l-0.8-0.9l0,0l0,0l-2.2,3.1l-2.6,1.9l-3,0.8l-4.1-0.1l-2.9-2.7l-1-2.4l-0.4-2.1l0.7-2.7l2.5-3.7l2.6-2.9l2.8-1.8l2.6-2.9l0,0l0,0
	l0.8-0.9l0,0l0.6-0.6l7.1,0.4l0,0l3.9,0.2l3.6-1.2l0.5-0.1l1.4-0.8l0.3-0.2l4.7-2.7l0.6-0.4l0,0l0.9-0.7l1.1-1l0,0l0,0l1.8-2.3
	l1.2-2l2.3-2.2l2-2.2l0,0l0,0l1.9-2l0,0l1.8-1.9l0,0l0,0l1.2-2.5l0.8-2.6l0.1-0.5l0,0l0,0l0.8-4.6l0.3-4.2l-0.1-6.2l0.8,0l0.7,0.2
	l1.4,0.3l8.7,4.6l4.1,1.5l0,0l2.1,0.8l3.8,0.5l3.5-1.8l3.9-2.9l8.1-3.1l0,0l0.4-0.1l3.9-2.2l4.9-4.2l4.9-6.9l6.4-6.3l2.4-2.1
	l2.9-1.7l0,0l0.5-0.3l0.7,8.1l-0.6,3.6l-0.1,0.7l0,0l-0.4,2.8l0,0.9l0,0l-0.1,2.5l0.9,2.6L353.4,176.1z M277.3,269.1l1.7-1.2
	l5.4-2.4l0,0l0,0l1.3-1.8l1.3-2.1l2.1-1.6l1.8-0.4l1.2,0l4.7,1.5l3.9,1.7l1.8,1.2l0.9,1.3l1,0.9l1.1,0.1l0.8-0.1l2-2.2l0.3,0.5
	l-0.2,1.2l0,0l0,0l-0.2,1.2l-0.1,4.6l-3.7,0.9l-4.1,0.5l-4.6-0.5l-3.4,0.1l-2.2,0.8l-1.7,0.4l-3.7-0.9l-4,0.1l-2-0.3l-1.7-1.1l0-1.4
	L277.3,269.1z M414.1,597.1L411,595l-0.2-0.2l-5.5-3.6l-6.6-4.3l-6.1-3.9l-6-3.8l-0.4-0.2l-5.7-3.7l-1-0.6l-1.2-0.8l-2.3-1.5l-1,1.1
	l-0.9,0l-0.4,0l-1.1-1.1l0.1-1.9l-4.2-2.8l-3.3-2.3l-8.9-6l-3.4-2.4l-1.2-2.9l-2-4.2l-2.8-5.9l-4.2-8.6l-1.3-2.7l-2-4.1l-1.4-2.4
	l-0.4-0.6l-0.7-0.4l-0.7-0.4L328,519l-5.2-3.3l-6.1-4l-2.4-1.6l-0.2-0.2l-0.3-0.3l-1.7-1l-3.2-1.5l-3.6-1.6l0.8-1.2l0.5-1l0.6-0.8
	l0.4-0.9l0.2-0.7l0.5-2.1l0-0.7l0-0.4l-0.1-1.2l-1-3.7l-0.7-1.8l-0.3-2.1l0.1-1.2l2.8,0l1.4-0.2l1.7-0.3l1.7-0.9l2.8-2.1l1.2-1.2
	l0.7-1.3l0.5-1.2l0.5-1.4l0.1-1.5l-0.1-1.4l-0.4-1.5l-0.7-1.7l-0.8-2.8l-0.1-5.6l0-1.5l0.1-6.3l-2.2-0.6l-3.6,0l-1.8-0.3l-3.2-1
	l-1.8-1.4l-0.3-0.4l-0.4-0.8l0.4-2.5l2-2.8l0.6-1.6l0.5-0.5l0.2-0.2l0.1-0.1l0.1-0.2l0-0.2l0-0.1l0-0.1l0-0.4l0.1-0.6l0-0.2l0-0.1
	l0-0.1l0.3-0.5l0-0.1l0,0l0.1,0l0.1,0l0.2-0.1l0.1-0.1l0.1-0.1l0.3-0.5l0.1-0.2l0.6-0.9l0.1-0.2l0.5-0.7l0.2-0.2l0.2-0.1l0.1,0
	l0.1,0l0.4-0.8l0-1.1l0-0.4l0-0.1l0-0.2l0-0.1l0-0.1l0.1-0.1l0.5-0.7l0.7-2.7l0-0.1l0-0.1l-0.1-0.2l0-0.2l-0.1-0.3l0-0.1l0-0.2
	l0-0.3l0-0.2l0-0.1l0-0.1l0-0.1l0.1-0.1l0.1-0.1l0.1-0.1l0.1-0.3l0.1-0.1l0.1-0.1l0.1-0.1l0-0.1l0-0.1l0-0.1l0.1-0.2l0.1-0.2l0-0.2
	l0.1-0.1l0-0.1l0-0.1l0-0.3l0-0.1l0-0.1l0-0.1l0-0.2l0-0.4l0-0.1l0-0.1l0-0.2l0-0.1l0-0.1l0-0.1l0-0.1l0-0.1l0-0.2l0-0.2l0-0.1
	l0-0.1l-0.1-0.2l0-0.1l0-0.1l0-0.2l0-0.2l0-0.1l-0.1-0.2l-0.2-1l0-0.1l0-0.1l0-0.2l0-0.1l0-0.1l0-0.1l0-0.1l0-0.3l0-0.1l-0.1-0.3
	l0-0.1l0-0.1l0-0.1l-0.1,0l0,0l0-0.1l0-0.1l0-0.1l0-0.1l0-0.1l0-0.1l0-0.1l0.1-0.2l0-0.1l0-0.1l0-0.1l-0.1-0.3l0-0.1l-0.8-1.4
	l-0.4-1.3l-0.2-0.8l-0.4-1.7l-0.2-0.7l-0.1-0.3l-0.1-0.4l-0.1-0.3l-0.1-0.4l-0.2-0.4l-0.2-0.3l-0.3-0.3l-0.1-0.1l-0.1-0.1l-0.1-0.1
	l-0.1-0.1l-0.1-0.1l-0.1-0.2l-0.1-0.1l-0.1-0.1l-0.1-0.1l0,0l-0.1-0.1l0,0l1.3-0.7l0,0l0.1,0l0,0l1.7-0.3l0,0l2.8-0.6l6-2.5l3.9-4.4
	l0,0l0.5-1.8l0,0l0,0l0,0l0.5-1.7l-1.6-4.2l3.3-3.7l2.1-2l2.6-3.2l1.6-2.9l0.4-4.1l-1.3-6.4l-1.9-4.8l-1.9-1.4l0,0l0,0l-0.9-0.2
	l-0.6-0.1l0,0l0,0l-2,0.5l-3.3-1.1l-4.5-4.6l-2.6-4.1l-3.2-5.4l0,0l0,0l-2-3.5l-1.9-4.5l0,0l-0.2-0.6l0,0l0,0l0,0l-1.8-6.1l-0.2-4.7
	l-0.4-2.4l-0.1-0.5l0,0l0,0l-0.3-1.2L303,325l-3.6-1.6l0,0l0,0l-0.7,1.6l-1.4,1.1l-0.1,0.1l0,0l0,0l-2,0.8l-4.4-0.4L287,326l0,0l0,0
	l0,0l0,0l-4.5-0.6l0,0l0,0l-1.2-0.1l-4.6-0.2l-3.4,1.1l0,0l-2.4,0.8l-3.9,0.5L265,327l-3.2-0.2l-0.9-0.2l-1.9-0.5l-2.8-1.4l-1.3-2.4
	l-1.3-2.1l-0.4-0.9l0,0l0,0l-3-7.2l-2.3-3.2l0,0l0,0l-0.6-0.8l0-2l5.4-11.8l4.6-9.3l1.7-1.1l1,0.7l3.7,4.3l0,0l0,0l2.5-2.9l0.3-0.2
	l0,0l4.4-2.3l0,0l0.4-0.2l5.2-1.9l2.6-0.2l3.7,1l0.9,4.5l2.8,2.8l3.6,2.6l3.9,3.3l0,0l0,0l0,0l0,0l0.1,0l0,0l0.2,0l0,0l0,0l3.5-0.5
	l2.7-0.2l2.4-0.8l5.4-2.3l2.9-1.8l2.3,2.9l0,0l0,0l2.1-1.3l0,0l0.5-0.3l0,0l0,0l0.8-3.5l1.3-1.9l0-5.5l2.1-1.3l0,0l0,0l1-3.2
	l2.5-0.2l0,0l0,0l-0.8-2.2l-1-0.2l-0.4-0.8l0.6-1.7l0.1-1.3l5-4l0,0l0,0l2.8-3.9l2-1.5l1-0.2l0,0l0,0l0.7-0.1l0.8-4.8l4.2,3.5
	l3.1,3.9l3.1,1l2.6,4.7l0,0l0,0l5.6-3.8l2.2-2.2l0,0l0.5-0.5l0,0l0,0l-3.9-1.2l-2.8-10.3l-1-2.9l-2-3.6l-2.6-3.4l-1.8-2.9l-0.2-1.9
	l3.2-2.9l0,0l0.2-0.2l3.4-1.4l0,0l0.2-0.1l4.4-1.3l0.4,0.2l2.1,1.9l2.9,1.6l2.9,1.1l0,0l0,0l1.3,0.2l0.9-0.1l0,0l2.3-0.2l0,0l0,0
	l0-3.1l0.3-6.7l-0.5-2.4l-1.4-3l-0.2-1.7l3.9-6.6l2.3-1.3l0,0l0,0l0.3-0.1l1.4-3.4l1.9-3.4l2-2.7l1.7-1.8l1.4-1.1l3.5-1.5l3.3-0.4
	l0.1,0.1l0,0l1.2,1.2l2.8,2.4l0,0l0,0l0.6,0.5l0,0.8l-1.6,0.2l-1.5,0.4l-0.9,0.7l0,0l0,0l-0.1,1l0.2,1l1.2,1.2l0,0l0.4,0.4l1,1.3
	l0.9,1.6l0.3,0.7l0,0l0.1,0.2l-0.3,0.6l-1.1,1.2l-0.2,0.1l0,0l-3.7,2.7l0,0l0,0l-0.2,0.2l-2.6,1.7l0,0l0,0l-0.4,1.1l0.1,1.5l0.5,1.5
	l0,0l1.1,3.1l-0.2,6.4l2,3.2l2.3,4l0.1,1l-0.1,0.2l0,0l-0.1,0.4l-0.4,0.2l0,0l-2.4,1.2l-0.1,0.4l0,0l0,0l-0.4,1.2l0,0l-0.1,0.1
	l-0.1,1.1l0.5,1l0.6,0.8l0,0l0,0l0.8,0.1l0,0l0,0l0.8,0.1l1.7-0.4l2,0.1l1.5,1l0.5,1l0,0.2l0,0l0,0l-0.3,1.3l-0.5,2.6l-0.1,0.3l0,0
	l-0.5,1.8l-0.5,1.6l0,0l0,0l-0.3,0.9l-0.8,1.5l0,0l-0.3,0.6l-0.2,1.9l0.2,2.4l0.4,3.1l0,0l0.2,1.3l0,0l0,0.3l1.1,2.9l1.6,3l0,0
	l2.1,3.9l0,0l1,1.9l2.6,3.2l0,0l0,0l1.3-0.4l0,0l3.9-1.2l3.2,2.4l2.1,0.8l1.5-0.2l2.9-1.5l4.1-0.2l3.8-0.5l5.6-0.3l4.1,1l3.5-1.6
	l0.8,1l0.5,1.6l-1.3,4.2l0.3,2.7l0.9,2.8l-0.8,3.7l-1.4,2.4l-2.8,2.2l0,0l0,0l-1.9,4.4l0,0l-0.7,1.5l1.5,1.1l0,0l0.2,0.1l0.8,1.7
	l0.6,2.6l0.1,3.4l-1.4,3.9l-1.2,1.3l0,0l-1.2,1.3l0.3,0.1l1,0.7l0,0l0.7,0.4l2,1.9l0,0l2.8,2.8l1.8,2.3l3.5,2.9l4.2,6.2l2.3,3.2
	l1.7,3.1l0.1,0.1l0,0l2.6,3.1l0.9,1.6l0,0l1.6,2.7l1.4,3.3l1,7.3l0,1.4l0,0l0,2.2l0,0l-0.2,4l0.1,0.3l0,0l0.8,3.9l0,0l1,5.1l0.7,1.2
	l0,0l1.8,3.1l2.9,2.5l0,0l0,0l0,0.7l0,0l0,0.5l-0.2,0.5l-0.4,0.4l-0.5,0.3l-1.1,0.3l-6.7,1.6l-1.2,0.6l-1,0.8l-2.3,2.3l-0.5,0.4
	l-0.5,0.1l-0.6,0.3l-0.4,0.3l-0.3,0.5l-0.7,1.3l-1,1.5l-0.4,0.7l-0.2,0.7l-0.2,1l-0.5,1.7l-0.4,0.8l-0.7,0.9l-0.6,0.3l-0.2,0
	l-0.3-0.1l-1.2-0.5l0,0.2l0,0l0,0.3l0,0l0.1,0.8l0.1,0.5l0.1,0l0.1,1.2l0.1,0.6l0.1,0.5l0.3,2.2l0.2,1.6l0.1,0.6l0.7,5.9l0.1,0.5
	l0.2,1.5l0.1,0.5l0.1,0.4l0.2,1l0,0.2l0,0.2l0,0.3l0.1,0.5l0.2,2l0.3,2.7l0.2,1.6l0.6,5.8l0.1,0.6l0.3,2.9l0.1,0l0.1,0.4l0.3-0.1
	l0.3-1.1l0.4-1.7l0-2.1l0.2-0.8l0.2-0.4l0.3-0.2l0.3,0l0.9,0.1l0.5-0.1l0.4-0.2l0.3-0.4l0.4-1.4l-0.1-0.8l-0.2-0.7l0-0.5l0.7-0.6
	l0.8,0l1.1,0.5l1,0.2l0.4,0.3l0.2,0.6l0.4,0.3l1.4,0.1l0.3,0.2l0.1,0.3l-0.1,0.3l-0.6,1l-0.1,0.7l0.1,0.7l0.1,0.3l0,0.3l0,0.3
	l0.1,0.2l0.1,0.2l0.1,0.1l0.2,0.1l0.2,0.1l0.2,0.1l0.2,0l0.2,0l0.2,0l0.3,0l0.2,0l0.2,0.1l0.1,0.1l0,0.2l-0.1,0.3l-0.2,0.1l-0.3,0.2
	l-0.7,0.4l-1.2,0.7l-1.6,2l-0.8,2.1l1.4,2.7l3.7,1.6l0.3,0.6l1.4,8.5l-1.2,5.8l-1.7,6.9l-3.2,1.3l-0.4,1.6l-1.3,5.2l0.5,2.3
	l-0.2,1.1l0,0.1l-1.8,11.1l-0.2,0.8l-0.2,1.5l-0.4,2.8l0,1.1l0.1,0.1l0.1,0.2l0.1,0.1l1.7,3.2l1.7,3l0.7,1.2l3,4.8l0.9,1.8l0,1.1
	l-0.1,0.7l-0.1,0.2l-1,2.5l-0.6,1l-1.2,1.8l-1,2.5l-1.3,3l-1.5,3.6l-0.8,1.8l-0.4,1.1l-0.6,2.8l-0.7,3.5l-0.4,0l-1.2-0.1l-0.1,0.7
	l-0.6-0.1l-0.1,0.4l0.2,0l0,0.1l0.1,0.1l0,0l0,0.1l-0.2,1.1l0.3,0l-0.2,0.9l0.4,0.1l0.2-0.9l1.1,0.2l0,0.3l-0.4,2.2l-0.5,2.6
	l-0.6,0.9l-0.6,0.6l-1.1,0.4l-0.7,0.5l-0.8,0.9l-2.9,4l-1,0.6l-2.4,0.4l-2.6,1.3l-0.6,0.9l-0.7,1.5l-2.3,5.2l-0.5,1.2l-0.6,1.1
	l-1.7,1.6l-1.5,0.9l-0.9,0.7l-1,3.1l-0.8,2.5l-2.1,7.1l-0.2,0.8l0,0.1l-1.4,5.1l-1.9,6.1l-1.1,2.6L414.1,597.1z"/>
<path class="st1" d="M226,779.5l-0.2,0.6l-0.2,0l-0.1,0l0.2-0.6L226,779.5z M210.8,840.7l-0.1,0l-1.2,0.7l-1,0.5l-1,0.5l-0.1,0.1
	l0,0l0,0l-0.4,0.4l0,0l-1.2,0.5l0,0l0,0l-0.7,0.2l-0.7,0.5l0,0l0,0l-0.8,0.6l0,0l0,0l-0.2,0.1l-1,0.5l-0.7,0.2l0,0l-0.3,0.1
	l-0.8,0.4l-1,0.6l-0.5,0.2l-0.9,0.5l-0.7,0.5l0,0l0,0l-1.2,0.7l-0.9,0.5l-0.4,0.2l0,0l-0.2,0.1l-0.2,0.1l0,0l0,0l-0.3,0.2l-0.5,0.2
	l0,0l-0.3,0.1l-0.3,0.2l0,0l0,0l-0.3,0.2l-0.7,0.5l-1.9,0.8l0,0l-0.1,0l-0.6,0.4l-0.6,0.3l-0.6,0.3l-0.4-0.1l-0.9,0.4l-1.3,0.8
	l-1.7,0.9l-0.7,0.2l-2.1,1.3l-1.2,0.5l-1.3,0.8l-0.2,0l-0.3-0.1l-0.1,0l-0.6,0.6l-0.5,0.1l-0.5,0.4l-0.7,0.4l-0.7,0.2l-0.6,0.3
	l-0.6,0.5l-0.4,0.1l-0.4,0.3l-0.7,0.2l-0.5,0.3l-0.6,0.4l-0.6,0.2l-0.5,0.1l-1.3,1.1l-0.2,0.1l-0.4,0l-0.2,0.1l-0.5,0.3l-0.6,0.4
	l-2.1,1l-0.4,0.5l-1.2,0.4l-0.9,0.4l-0.6,0.3l-1.8,1.1l-0.6,0.3l-1.1,0.6l-0.5,0.4l-0.7,0.3l-0.7,0.3l-0.8,0.5l-0.8,0.4l-0.8,0.6
	l-1.1,0.4l-0.9,0.4l-0.5,0.4l-1.1,0.6l-0.7,0.3l-1.6,0.8l-1.2,0.8l-1.4,0.8l-0.5,0.4l-0.6,0.9l-0.9,0.8l-0.2,0.3l-0.3,0.6l-0.6,0.8
	l-0.6,0.9l-0.9,0.9l-1.4,1.7l-0.4,0.4l-1,1.5l-2.5,2.8l-0.7,1l-0.5,0.5l-1.3,1.6l-1.5,2.1l-0.8,0.7l-0.4,0.6l-0.4,0.8l-0.3,0.4
	l-1.4,1.5l-1,1.2l-0.9,1.4l-0.6,0.6l-2.7,3.5l-1.2,1.3l-0.8,0.8l-0.6,1l-0.6,1l-0.3,0.3l-0.5,0.3l-0.2,0.2l-0.9,1.5l-1.1,1.2
	l-0.7,0.9l-0.8,1.2l-1.7,2.3l-0.4,0.6l-0.4,0.4l-0.3,0.2l-0.4,0.1l-0.6,0l-0.5-0.2l0,0l-0.2-0.3l-0.2-0.3l-0.1-0.5l0.1-0.6l0.2-0.3
	l0.3-0.3l0.3-0.2l0.3,0.5l0,0l0,0l1.7-1.8l2-2.9l4.8-5.8l5-6.3l9-11.5l4.2-5.2l4.4-5.5l0.7-0.9l0.4-0.3l22.3-12l14.9-7.9l-0.7-1.3
	l-0.4-0.6l-0.6-1.4l-0.1-0.5l-0.1-0.3l0.4-0.5l1.1-0.7l0.9-0.3l0.3,0.4l-0.1,0.4l-0.5,0l-1.4,0.7l0,0l0,0l1.4,2.5l4.9-2.6l0,0l0,0
	l-0.6-1.3l0.2-0.2l0,0l0,0l0.4-0.3l0.5-0.6l0.1-1.1l1.2-0.6l1.2-0.5l3.4-2l2-0.9l2.1-1.3l1.3-0.7l1.4-0.6l1-0.6l0.3-0.9l0.5-0.6
	l0.8-0.5l1.5,2.5l0,0l0,0l0.7-0.2l0.5-0.4l0.9-0.5l0.3-0.1l1.3-0.9l1.9-0.8l1.3-0.8l0.7-0.7l-0.9-1.6l1.3-0.8l4.1-1.9l2.8-1.7
	l1.9-0.9l2.5-1.5l3.4-1.8l2.2-1.2l1-0.7l0.4-2.4l0.2-1.4l-0.3-0.3l0,0l0,0l-1.1,0.5l-0.3-0.7l20.4-11.1l0.6-0.4l-0.6-1.2l0.7-0.5
	l2.2-0.7l0.4,1.5l0,0l0,0l91.9-20.6l1.8,1.3l0,0l0,0l1.1-1.1l0.3-0.1l0.4,0.3l0.1,0.3L347,788l-0.8-0.5l0,0l0,0l-2,2.7l-3.3,3.4
	l-0.4,0.3l-0.2,0l0,0l0,0l-0.2,0l-0.2-0.1l-0.4-0.5l-0.3-0.1l0,0l0,0l-0.4,0.1l-0.3,0l-0.7,0.2l-0.8,0.3l-0.8,0l-1.4,0.4l-1.3,0.2
	l-0.2,0l-0.7,0.2l-1.9,0.4l-1.5,0.4l-2,0.3l-0.7,0.4l-0.9,0.1l-1,0.2L323,797l-3.4,0.8l-1.8,0.2l-1.7,0.5l-0.7,0l-0.7,0l-0.5,0
	l-0.2,0.1l-0.5,0.5l-0.3,0.1l-0.9,0l-1.8,0.5l-0.4,0.1l-0.4,0.1l-0.2,0.1l0,0l0,0l-0.4,0.3l-1.2,0.1l0,0l-1.5,0.1l-0.7,0.1l-2.1,0.7
	l-2.3,0.6l-1.7,0.2l-0.4,0.3l-0.6,0.1l-0.6,0.1l-0.9,0l-3,0.8l-1.9,0.3l-1.2,0.4l-1.8,0.4l-1.6,0.3l-1.2,0.5l0,0l0,0l-0.2,0.1
	l-0.9,0.3l0,0l-1,0.2l-0.3,0l0,0l-1.7,0.1l-1.6,0.6l-2.5,0.4l-3,1l-0.3,0.2l0,0l0,0l-0.9,0.5l-0.8,0.2l-0.6,0.3l-0.2,0l0,0l-0.4,0.1
	l-0.4,0.2l-0.7,0.1l-1.1,0.4l-0.8,0l-0.5,0.2l-1.1,0l-1,0l-2.3,1.2l-0.8,0.6l-0.8,0.5l0,0l0,0l0,0l-0.7,0.5l-0.9,0.3l0,0l-0.4,0.2
	l-0.4,0.3l0,0l0,0l-1.4,1l-0.7,0.3l-1,0.3l0,0l-0.6,0.2l-0.8,0.6l-0.2,0.2l0,0l0,0l-1,0.6l-1.5,0.7l-1.8,1l-0.9,0.4l-0.1,0.1l0,0
	l-0.9,0.4l-0.5,0.4l-1.6,0.9l-0.3,0.1L245,822l-1,0.4l-0.9,0.5l-0.4,0.4l0,0l0,0l-0.1,0.1l-0.6,0.4l-0.5,0.1l0,0l-0.5,0.1l-0.6,0.5
	l-0.1,0.1l0,0l0,0l-0.9,0.5l-0.6,0.3l0,0l-1.6,0.8l-0.8,0.5l-1,0.4l-0.4,0.3l0,0l0,0l-0.1,0.1l-0.8,0.4l0,0l-0.8,0.4l-0.6,0.3
	l-0.2,0.1l0,0l0,0l-0.4,0.3l-0.8,0.4l0,0l-0.1,0l0,0l0,0l0,0l-0.7,0.5l-2.2,1.4l-1.2,0.5l-1.2,0.7l-0.8,0.3l-0.8,0.6l-1.9,0.8
	l-1.3,0.7l-1.2,0.6l-0.1,0.1l0,0l-0.8,0.4l-0.6,0.4l0,0l0,0l-0.8,0.6l-2.3,1.3l-2.9,1.4l-0.8,0.5L210.8,840.7z M353.7,705.1l1.6,2.4
	l2.8,3.2l1.1,1.4l4,6.3l1.7,2.8l0,0.1l1,1.6l4.2,6.7l1.6,4.8l-6.1,0.8l0,0.3l0.3,3.5l0.2,2.1l-0.5,0.3l0,0.3l0.3,3.3l-0.2,0.3l0,0
	l0-0.1l0,0l0,0l-1.2,0.1l-0.4-0.1l-0.6-1l0,0l0,0l-10.8,6.7l0.8,1.2l-2.2,1.4l-0.6-1l0,0l-0.1-0.2l0,0l0,0l-9.2,5.6l0.6,1l-1.6,0.4
	l2.5,13.7l0,0l0,0l1.4-0.2l0.8,3.7l-0.1,0.5l-0.3,0.2l-13.2,3l-0.3-1.4l2.6-0.7l-2.8-14.4l0,0l0,0l-20.4,3.1l0,0.2l0,0l0,0l0.2,1.6
	l-1,0.2l0,0l-0.4,0.1l2.4,13.3l-11.6,2.5l-1.2-6.6l-2.4-13l0,0l0-0.1l0,0l0,0l-9.5,2l-1.6,17.3L234,794.9l0,0l-3.9,0.8l-0.7,0.2
	l-2.7-14.9l0.7-0.2l0.1,0.3l0,0l0,0l0.2-0.1l-0.3-1.4l-1.1-0.4l-0.4-0.1l0,0l-0.1,0l0,0l0,0l-0.1,0.2l0.1,0l-0.2,0.6l-2-0.5
	l-5.9-1.5l0,0l-36.2-9.2l0,0l0,0l-2.4-0.5l-2.1-0.6l-0.4-0.8l0.7-1l7.2-4.4l-0.8-1.3l5.2-3.1l-0.8-1.3l3.5-2.2l-1.5-2.5l0,0l0,0
	l-3.4,2l-0.3-0.5l3.4-2l-2-3.1l0,0l0,0l-46.2,28.8l-9.4-11.2l-0.7-0.9l0,0l0,0l-1,0.7l-0.3-1.3l0,0l0,0L120,766l1.5,7.1l1.2,6
	l-13.7,3.2l0.2,1.2l-1.7,0.4l2.5,12l0.2,0.6l0.2,0.2l0,0l0,0l0.1,0l4.3-1.1l0.7-0.1l0.3,0l0.2-0.1l0.2-0.2l0.2-0.3l0.2-0.2l0.7-0.2
	l0.6,0.1l0.1,0l0.2,0.1l0,0l0,0l0.6-0.1l2.1-0.5l0.2,0l2.8-0.6l0.1-0.1l0.2-0.5l0.1-0.1l0.1,0l0.3-0.1l0.1,0l0.1,0l0.4,0.3l0,0l0,0
	l0.2,0l1.3-0.4l1.9-0.5l0.9-0.3l0.7-0.1l0.9-0.2l0.3-0.1l0.1-0.4l0.1-0.1l0.3-0.1l0.2,0l0.2,0.3l0.2,0.1l0,0l0,0l0.2,0l1.9-0.5
	l1-0.2l0.8-0.2l1.9-0.4l0.7-0.3l0.1-0.1l0-0.2l0-0.1l0.1,0l0.5-0.1l0.1,0.1l0.1,0.3l0.1,0.1l0,0l0,0l0.3,0l1.3-0.4l1.6-0.5l0.8-0.2
	l1-0.1l1.9-0.5l0.2-0.1l0.1-0.4l0.5-0.2l0.1,0l0.3,0.4l0,0l0,0l0.2,0l1.3-0.4l1.4-0.3l1.2-0.3l0.6-0.1l0.9-0.2l0.8-0.1l0.7-0.2
	l0.1-0.1l0.1-0.4l0.3-0.1l0.3,0l0.1,0.1l0.1,0.2l0.1,0.1l0,0l0,0l0.3,0l0.7-0.2l0.8-0.1l1.5-0.4l1.3-0.4l-0.1-0.4l0.6-0.2l0.1,0.4
	l0,0l0,0l0.5-0.1l0.3-0.2l0.1-0.4l0.2-0.1l0.2,0l0.1,0l0.1,0l0.2,0.1l0,0l0,0l0.2,0l2.3-0.4l4.4-1l1.3-0.3l3.5-0.8l0.1-0.1l2.2-0.5
	l0.5-0.1l1.7-0.5l0.2,0l1.6,0.5l0.4,0.2l0,0l0,0l2.9,1l0.4,0.2l0.5,0.1l1.1,0.4l0.4,0.3l0.8,1.1l0.2,0.1l0,0l0,0l0.2,0l0.8-0.1
	l0.4,0l3.4,0.7l0,0.1l0,0l0,0l0.3,0l0.2,0.1l0.1,0.1l0.1,0.6l0,0l0,0l0.3-0.1l1.3,7.6l-0.8,0.4l-1.7,0.7l-0.1,0.1l0,0.1l0.3,0.4
	l0.1,0.3l0.2,0.5l0.3,0.4l0.3,0.6l0.2,0.6l0.5,0.9l0.4,1.1l0.2,0.5l0.3,0.9l0.2,0.3l0,0l0,0l0.2,0l1-0.5l-0.4-0.8l0-0.2l0.1-0.2
	l0.3-0.2l0.5-0.2l0.3-0.3l-0.3-0.6l0.7-0.3l3,6.3l-0.7,0.3l-0.3-0.6l0,0l0,0l-1.2,0.6l-0.2,0l-0.3-0.2l-0.3-0.6l-0.1,0l0,0l-0.1,0
	l-0.9,0.5l0.2,0.4l0.1,0.3l0.2,0.3l0.2,0.5l0.3,0.5l0.4,1l1.1,1.6l0.1,0.3l0,0.8l0.5,1.1l0.2,0.2l0.1,0.3l0.5,0.9l0.6,0.6l0.2,0.3
	l0.1,0.4l-0.1,0.2l-0.2,0.2l-0.2,0.1l-0.3,0.1l-0.2,0l-0.2-0.2l-0.4-0.7l-0.8-1.9l-0.1-0.1l0,0l0,0l-0.2,0l-2.7,1l-0.1,0.1l-0.1,0.1
	l-0.1,0.2l0,0.3l0,0.1l0,0l0,0l0.3-0.1l0.1,0.2l-1.4,0.5l0.5,1.4l0,0l0,0l1.9-0.9l0.2,0.3l-2.3,1.1l-0.7-1.8l0,0l0,0l-0.4,0.1
	l-0.1-0.2l0.2-0.1l-0.1-0.2l-0.2-0.3l-0.1-0.1l0,0l-4.8,1.7l-0.5,0.2l-1.3,0.4l-1.6,0.6l-1.4,0.5l-0.9,0.4l0.1,0.4l0,0l0,0l0,0.1
	l0.9,2l0.3,0.9l-1.1,0.6l-0.2-0.1l-0.6-1.4l-0.4-0.7l-0.6-1.3l0,0l0,0l-2.6,0.9l-1.4,0.7l-2.8,1.1l-3.2,1l-0.6,0.3l-2,0.7l-0.8,0.3
	l-0.6,0.1L166,823l-0.6,0.3l-1.5,0.5l-0.9,0.4l-0.6,0.1l-3,1.1l-0.3,0l-0.3,0.2l-1.2,0.5l-1.2,0.5l-1.9,0.7l-0.8,0.3l-1.6,0.4
	l-0.4,0.2l-0.8,0.4l-0.8,0.3l-3.4,1.2l-3.9,1.4l-3.3,1.3l-3.7,1.3l-2.4,0.8l-0.8,0.3l-1.6,0.5l-0.5,0.3l-0.3,0.1l-1,0.7l-1.1,0.1
	l-0.7,0.3l-0.2,0l-0.1-0.1l0,0l0,0l-0.4,0.2l-3.3,1.2l-0.2,0l-0.2-0.1l-0.2-0.2l-0.2-0.2l0-0.3l0.1-0.2l0.2-0.4l0.3-0.2l2.6-1l0-0.1
	l-0.2-0.2l-0.8-1l-1.2-1.6l-1.3-1.7l-5.9-7.8l-2-2.6l-0.1-0.1l0,0l0,0l-0.1,0.1l-0.1,0.9l-0.2,0.4l-0.2,0.3l-0.3,0.3l-0.3,0.2
	l-0.5,0.2l-0.3,0l-0.7,0l-0.3-0.1l-0.2-0.2l-0.1-0.1l0-0.2l0.1-0.2l0.1-0.1l0.2-0.1l1.1,0l0.3-0.1l0.1-0.1l0.1-0.2l0.1-0.3l0-0.2
	l-0.2-0.4l-0.1-0.1l-0.2-0.1l0,0l0,0l-0.7,0.2l-2,0.8l-1.1,0.6l-0.7,0.2L107,823l-0.6,0.2l-0.9,0.4l-0.9,0.3l-1.4,0.7l-2.2,0.9
	l-1.4,0.6l-2,1.1l-1.7,0.8l-2,0.7l-1.6,0.7l-2.1,0.7l-0.8,0.3l-2.9,0.6l-0.2,0.5l-0.9,0.2l0-0.2l-4.5,1.1l-3.1,0.6l-2.3-1l-0.5-0.5
	l-6.3-6.5l0,0l0,0l-6-6.9l0,0l-10.1-15.1l0,0l-8-10.9l0,0l-6.6-7.7l-4.6-4.6l-2.5-2.7l-3-4l-3.2-4.6l-3.6-6.6l-1.5-2.5l-2-4.1
	l-2.6-6.3l-3.2-7l-3-7.3l-2.2-6l-1.3-4.3l-1.3-4.5l-0.9-5l-0.7-4l-0.5-2.7l0.1-4.9l0.3-5.2l0.7-3.8l3.8-10.9l4-8.1l2.9-5.2l0.7-1
	l0.8-2.1l1.9-6l1.5-9.1l-0.1-2.8l-0.7-4.3l0.9-3.9l1.2-4.7l0.3-1.5l0.1-1.5l-0.1-1.5l-0.2-1.5l-0.3-1.2l-0.2-1.2l-0.3-4.8l4.1,3.3
	l0,0l0,0l4.6,3.7l134.2,66l0,0l0,0l3.6,0.2l0.7-2.5l2.1-6.9l2.5-7.2l1.8-4.2l0,0l0,0l1.9-4.5l6.6-13.8l0,0l0,0l0.2-0.5l1.4,0.6l0,0
	l0,0l1.8,0.5l0.8-0.4l0,0l5.3-2.4l0,0l0.2-0.1l0.4-0.3l0,0l3.9-2.8l0,0l6.5-4.6l0,0l2.5-1.8l2.6,0.4l0,0l3.1,0.4l1,0.1l0.3,0l0,0
	l3.3-0.3l2.2-0.6l2.3-0.8l0,0l0,0l0.9-4.9l0,0l0,0l0.7-3.6l2.3-6.1l2.2-2.6l0,0l0,0l1.8-2.1l1.3-2.6l0,0l2-3.2l0,0l0,0l0,0l4-5.3
	l0.1-0.1l0,0l1.4-1.9l0.8-1.7l0,0l0,0l2.3-5.2l2-9.7l-0.4-2.6l-0.3-2.6l1-18.9l1.1-2.4l1-1.7l0,0l0,0l0.7-1.1l0.3-1.6l0.1-1.7
	l-0.3-2.7l0.1-1.4l0,0l0,0l0.2-4.1l0,0l0.5,1.2l0,0l0,0l0,0l0,0l2.2,3.3l0,0l0,0l4.8,1l5.1,1l2.9,0.7l2.3,0.5l2.6,0.6l3.7,0.8
	l1.6,0.5l0.9,0.3l7.9,2l0.1,0l0,0l1.3,0.3l2.2,0.7l1.4,0.5l2.3,0.8l3.1,1.1l1.3,0.6l2.4,1.5l4.2,2.6l7.6,3.9l2.8,1.4l0.3,0.1l0,0
	l5.3,2.5l0,0l2.6,1.2l3.8,1.3l5.9,1.5l0.5,0.1l7.6,1.2l2.6,0.3l0.9,0.3l1.1,0.4l-6.4,4.4l-0.8,0.6l-6.8,4.7l-1.5,1.1l-5.5,3.9
	l-0.3,1.3l-0.6,2.6l0,0.2l0,0.1l-0.9,5.3l-0.8,5.4l-0.3,2.2l-0.6,3l-0.2,1l-1,6.4l-1,6.7l-0.6,3.8l0,0.7l0,0.1l-0.1,1.7l0.2,1.2
	l0.1,0.8l0.4,3.2l2.6,3.3l5.9,7.8l0.3,0.3l0.6,0.8l3.6,4.6l0.7,0.9l0.7,0.9l3.2,4.1l1.8,2.2l2.2,2.9l2.7,3.6l0.6,0.9l0.5,0.6
	l1.7,2.2l1.2,1.6l2.3,3l0.8,1l1.6,2.1l2.9,3.8l0.5,0.7l1.7,2.2l2,2.5l1.6,2.3L353.7,705.1L353.7,705.1L353.7,705.1z"/>
<path class="st1" d="M646.9,779l0.5,0.3l0,0l0,0l2.2-1l1.5,0l0.2,0.1l0.1,0.1l0,0.4l-0.1,0.4l-0.1,0.3l-0.3,0.5l-0.7,0.6l-0.4,0.2
	l-0.9,0.4l-1.3,0.2l-0.5,0.3l-0.1,0.2l0,0.4l0.2,1l0,0.5l-0.1,0.3l-0.3,0.1l-0.2-0.1l-0.2-0.7l-0.1-1.3l-0.1-0.2l-0.1-0.1l0,0l0,0
	l-0.2,0l-0.5,0.3l-1.9,0.3l-0.4,0.1l0,0l-0.3,0l0-0.2l0.2-0.2l0.5-0.7l0.1-0.4l0.5-1L646.9,779z M642.4,780.3l0.1,0.1l-0.2,0.4
	l-0.9,0.6l-0.2,0.4l-0.4,0.4l-0.4,0.2l-0.4,0.1l-0.1,0l0.2-0.7l0.6-0.6L642.4,780.3z M639.4,780.6l0.1,0.1l-0.2,0.4l-0.9,0.6
	l-0.2,0.4l-0.4,0.4l-0.4,0.2l-0.4,0.1l-0.1,0l0.2-0.7l0.6-0.6L639.4,780.6z M610.6,781.2L610.6,781.2l-0.3-0.2l-0.1-0.2l0.1-0.2
	l0.1-0.1l0,0l0,0l0.1-0.1l0.3-0.2l0.4,0l1.7-0.3l0.8,0.2l0.2-0.1l0.3-0.3l4.3-1.1l0.5,0l0.7,0.1l1.4,0l0.2,0.1l0.1,0.1l0.1,0.2
	l0,0.2l-0.1,0.2l-0.3,0.2l-0.3,0.1l-1.9-0.1l-1.1,0.2l-0.8,0.4l-0.8,0.2l-0.9,0.1l-2.5,0.8l-1.4,0l0,0l-0.3,0L610.6,781.2z
	 M474.9,772.4l2.7-18.7l-0.7-2l1.2-1.6l-12-1.6l-0.4-0.1l0.1-1.1l0.4-2.3l0.3-2.3l3.1-19.4l1.1-7.1l1-6.2l-12.8-1.6l1-6.5l1-6.1
	l6.4,0.8l12.9,1.6l5.1,0.6l1.4-1l2.6-1.8l4.9-4l0.3-0.1l1.1-0.5l6-4.6l15.3-11.8l2.3-1.8l-0.7-0.8l-0.7-2.4l0.2,0l-0.2-0.9l0.3-0.5
	l0.3-0.5l0.3-0.4l0.7-1.1l0.2-0.3l0.3-0.4l0.8-0.1l1.7-0.9l1-0.2l1.6-0.1l1.3-8.4l1-6.5l0.3-1.6l0.8-4.9l1-6.5l0.9-6.3l1.1-6.4
	l0-0.4l0.9-6.3l0.5-3.3l0.5-3.2l0.6-3.3l0.3-3.3l7,0.8l5.8,0.7l6.6,0.9l1,0.1l3,0.4l3.9,0.5l1.8-0.3l1.4,0.2l2.1,0.2l6.3,0.8
	l6.5,0.9l-0.9,6.1l-0.3,2.1l-0.3,1.9l-0.3,2.2l-0.2,0.9l-1.1,7l0,0.1l-0.5,3.7l-0.4,2l-1.1,6.3l6.7,0.7l4.8,0.4l1.5,0.1l-0.5,4.9
	l-0.2,1.6l0.5-0.2l11.8-5.1l1.5-0.5l9.6-3.8l8.1-3.6l6.3-2.7l3.2-1.5l0.5,0.9l0.7-0.1l1-0.4l0.2-0.2l8.4-5l10.9-5.2l0.1-1l1.8-1
	l1.8-0.6l4.7-1.4l1.3-0.4l2.1-0.6l2-0.2l1.3,0l1.3,0.1l2.6,0.7l2.8,1.5l1.3,1l1.3,1.4l1.5,2.3l0.6,1.4l0.8,2.7l0.3,1.9l0.5,2
	l0.4,3.2l0,0.3l0.7,7.9l0.2,1.8l0.5,5.6l-2.4,2.4l0,0l0,0l-8.6,2.5l0,0l0,0l0,0l0,0l0.6,1.4l1,4.6l0.5,1.4l0.4,1l0.3,0.6l1.2,3.8
	l0,0l0.7,2.3l0,0l-1.6,2.2l-0.8,1.1l0,0l0,0l-2,2.9l-3.3,5l-3,5.7l-0.5,3.2l1.8,5.8l0,0l0.4,1.5l-0.4,3.3l-1.6,9.7l0,0l-0.3,1.6
	l-3,4.6l-0.7,3.3l-0.8,3.4l-0.8,5.5l-1.3,6.6l0,0l-0.3,1.7l-1.3,2.9l0,0l-1.9,4.2l0,0l0,0l0,0l0,0l0,0l-0.2,0.4l-1.7,0.3l0,0l-0.1,0
	l-0.3,0.1l0.8,7.1l-0.7,1.2l-0.4,1.5l3.8,18.4l-4.2,0.9l-0.9,1l-0.2,0.2l-0.3,0.1l-0.8-0.1l-2.1,0.5l-1,1l0.1,0.3l-0.1,0.1l-1.2,0.1
	l-0.1,0l-0.1-0.3l0-0.2l1.2-0.4l0.1,0l0.8-0.7l0,0l0,0l-2.2,0.4l0,0.3l-2.5,0.6l-0.1,0.6l-0.1,0.5l-1,0.1l-0.3-0.5l0.6-0.5l0,0l0,0
	l-3.4,0.7l-0.2,1.3l0,0.7l0.1,0.1l0.3,0.1l0,0l0,0l0.8-0.2l0.5-0.2l0.6,0.1l0.1,0.1l-0.1,0.1l-0.2,0.2l-0.9,0.6l-0.5,0.4l-0.4,0.3
	l-0.3,0.5l-0.2,0.2l-0.2,0.1l-0.3,0.1l-0.4,0l-0.2-0.1l-0.2-0.1l-0.1-0.1l-0.2-0.2l-0.1-0.4l0.2-1l0.1-0.5l0.1-0.9l0.3-0.2l0.2,0
	l0.3-2.4l0,0l0,0l-2.4,0.5l-0.5,3l0.1,0.1l0.1,0.1l-0.2,2.4l-0.2,0.4l-0.3,0.3l-0.4,0.2l-0.3,0l-0.2,0l-0.2,0l-0.3-0.2l-0.2-0.3
	l-0.1-0.4l0-0.3l0.3-0.8l0.4-1.7l0.1-0.5l0-0.5l-0.3-0.4l0,0l0,0l-1.4,0.1l-0.7,0.1l-0.3-0.4l-0.2-0.9l-0.1-1.4l-0.6-0.5l-0.2,0
	l-1.7-0.3l-2-0.1l-1.6-0.2l-0.9,0l-2.1-0.3l-1.2,0l-0.2,0l-0.1-0.1l-0.1-0.2l0-0.2l0.1-0.2l0.1-0.2l0.2-0.1l0.7,0.1l0.1,0l0.4-2.2
	l0,0l0,0l-3.4-0.3l-1.1,3.2l0.6,0.2l-0.4,1.4l-0.7-0.1l-0.3,1.9l-0.1,0.2l-0.2,0.1l-0.2,0l-0.2-0.1l-0.1-0.2l0-0.2l1.5-9.4l-0.4-0.3
	l-0.4-0.2l0,0l0,0l-0.5-0.3l0,0l0,0l-4.7-1.7l-1.8-0.3l-1.4-0.3l-1.3,0l0,0l-1.1,0l0,0l-3.2,0.1l-1.8,0.3l-1,0.4l-0.7,6.6l-0.1,0.5
	l-0.2,0.2l-0.2,0l-0.2-0.1l-0.1-0.2l0.2-2.1l0.5-5.1l-0.5-0.2l-0.2,0l-0.9-0.2l-5.4-0.7l-1.7,0l-2.3,0.3l-3.1,0.7l-4.4,1.6l0,0l0,0
	l-0.6,0.5l0,0l0,0l-0.9,6.4l-0.3,1.5l0,0l0,0l-0.1,0.3l-0.5,0l-0.1-0.4l0.1-0.8l-0.3,0l-0.6-0.1l-0.2,0.7l0,0l0,0l-0.2,0.9l-0.5-0.3
	l0.6-3.4l0.4-3l-1.8-1.4l-2.4-0.9l-0.4-0.1l-4.4-0.2l-4.1,0.3l-3.1,0.2l-3.6,0.5l-2.2,0.4l-0.6,0.4l0,0l0,0l-1.1,0.7l-1,6.9l0,0l0,0
	l0,0l-0.9-0.1l0,0l0,0l0,0l0.4-2.6l0,0l0,0l-1.3-0.1l-0.4,2.4l-0.8-0.1l1.4-8.5l-2.6-1.5l-2.4-0.8l-0.2,0l-4-0.3l-4.2,0.2l-0.9,0.1
	l0,0l0,0l-3.6,0.4l-3.2,0.2l0,0l-1.5,0.1l-4.1,0.8l-1.5,0.5l0,0l0,0l-1.3,0.4l0,0l-0.3,0.1l-1.1,5.9l-0.8-0.1l1.3-7.6l0,0l0,0
	l-1.5-0.2l-1.2,7.6l-0.8-0.1l1.1-6.8l-0.7-0.6l-0.9-0.6l-0.7-0.4l-0.3-0.2l-1.4-0.5l-0.7-0.2l-0.5-0.1l-2.2-0.6l-2.8-0.5l-1.5,0
	l-1.6,0.2l-1.5,0.4l-1.6,0.5l-1.2,0.2l-1.3,0.5l-0.1,1l-1.2,7.6l0,0l0.8,0.1l0.1-0.6l0.2,0l0.3,0l0,0.3l0,0l0,0l0.4,0l0,0l0.8,0.1
	l0.3,0l0.5-0.1l0.2,0.1l0.1,0.1l-0.1,0.2l-0.1,0.1l-0.1,0l-1.6-0.2l0,0l-0.4,0l-0.5,3l-2.7,0.7l-3.6,0.6l-3.9,0.5l-3.9,0.2l-3.5,0
	l-2.2-0.2l-1.9-0.3l-1.8-0.4l-0.7-0.2l-0.2,0l-0.7-0.2l-0.8-0.3l-0.1-0.1l-0.2-0.2l-0.1-0.3l0,0l0,0l-0.1,0.1l0,0l0,0l-0.1,0l0,0
	l0,0l-0.1,0.2l0.1,0.2l0.1,0.1l0,0l0,0l0,0l0,0l0.2,0.1l0,0.1l0.1,0.2l0.3,0.1l0.1,0.1l0.1,0l0.2,0.1l0.3,0l0.2,0.1l0.3,0.2l0.5,0.1
	l0.3,0.1l0.3,0l0.4,0.2l0.6,0.2l0.3,0.1l-0.2,0.3l-0.2,0.4l0,0.1l-0.1,0l-0.1,0l-0.1,0l-1.3-0.4l-0.1,0l-0.2-0.2l-0.1,0l-0.6-0.1
	l-0.3,0l-0.3-0.1l-0.1,0.1l-0.1-0.2l-0.1,0l-0.2-0.1l-0.8-0.4l-0.3-0.3l-0.1-0.3l-0.2-0.2l-0.3-0.7l0-0.3l-0.1-0.4l0-0.2l0.1-0.1
	l0-0.3l-0.1-0.1l0.1-0.8l0.1-0.1l0.2,0.1l0.2,0l0.1,0.1l1.1,0.4l0,0l0,0l0.1,0l0.4,0.2l0.1,0.1l0,0l0,0l0.3,0l0.2,0l0.2-0.4l0.3,0.1
	l0,0.1l0,0l-0.1,0.3l1.6,0.6l0.1,0.6l1.6,0.4l0.8,0.1l0.8,0.1l4.1,0.3l5.1-0.1l1.3-0.1l3.7-0.5l0.3-1.8l0,0l0,0l0-0.2l0,0l0,0
	l-5.4-0.4l-1-0.1l0,0l-0.5,0l-0.2,1l-3.2-0.3l0.5-3.6l10.1,1l1.2-8.4l0,0l0,0l0-0.2l0,0l0,0l-0.6-0.1l0.1-0.5l0,0l0,0l-10.8-1.3
	l-0.1,0.7l-0.2,0l-0.4-0.1l-1,6.6l-1.3-0.1l-0.1,0.7l0,0l0,0l0.6,0.1l0.3,0l-0.8,1.8l-0.4,0l-0.1,0.8l0.2,0.1l-0.1,0.2l-0.4,0
	l-0.3-0.1L474.9,772.4z"/>
<path class="st0" d="M495.6,599.9l-1.1,6.6l-1,6.3l-1.1,6.6l-6.5-0.8l-6.4-0.7l-6.4-0.7l-6.9-0.8l1-6.5l-6.2-0.7l-0.1,0l-6.5-0.7
	l-6.5-0.7l-0.4,0l-6.1-0.7L440,607l-9.1-0.9l-1.5-0.2l-0.7-0.1l-0.3,0l-1.4-0.2l-12.9-8.4l2.2-3.5l1.1-2.6l1.9-6.1l1.4-5.1l0-0.1
	l0.2-0.8l2.1-7.1l0.8-2.5l1-3.1l0.9-0.7l1.5-0.9l1.7-1.6l0.6-1.1l0.5-1.2l2.3-5.2l0.7-1.5l0.6-0.9l2.6-1.3l2.4-0.4l1-0.6l2.9-4
	l0.8-0.9l0.7-0.5l1.1-0.4l0.6-0.6l0.6-0.9l0.5-2.6l0.4-2.2l0-0.3l-1.1-0.2l-0.2,0.9l-0.4-0.1l0.2-0.9l-0.3,0l0.2-1.1l0-0.1l0,0
	l-0.1-0.1l0-0.1l-0.2,0l0.1-0.4l0.6,0.1l0.1-0.7l1.2,0.1l0.4,0l0.7-3.5l0.6-2.8l0.4-1.1l0.8-1.8l1.5-3.6l1.3-3l1-2.5l1.2-1.8l0.6-1
	l1-2.5l0.1-0.2l0.1-0.7l0-1.1l-0.9-1.8l-3-4.8l-0.7-1.2l-1.7-3l-1.7-3.2l-0.1-0.1l-0.1-0.2l-0.1-0.1l0-1.1l0.4-2.8l0.2-1.5l0.2-0.8
	l1.8-11.1l0-0.1l0.2-1.1l-0.5-2.3l1.3-5.2l0.4-1.6l3.2-1.3l1.7-6.9l1.2-5.8l-1.4-8.5l-0.3-0.6l-3.7-1.6l-1.4-2.7l0.8-2.1l1.6-2
	l1.2-0.7l0.7-0.4l0.3-0.2l0.2-0.1l0.1-0.3l0-0.2l-0.1-0.1l-0.2-0.1l-0.2,0l-0.3,0l-0.2,0l-0.2,0l-0.2,0l-0.2-0.1l-0.2-0.1l-0.2-0.1
	l-0.1-0.1l-0.1-0.2l-0.1-0.2l0-0.3l0-0.3l-0.1-0.3l0.4,0.7l0.7,0.5l1.2-0.2l1.2-0.6l1,0.4l0.4,1.8l-0.2,0.8l-0.9,1.3l-0.3,0.6l0,0.5
	l0.4,0.5l0.7,0.2l1.6,0.5l1.9,1l0.5,0l0.4-0.2l0.3-0.3l0.5-1.4l0.8-2l0.6-1.8l0.2-0.7l0.3-0.6l0.7-0.7l0.3-0.1l0.5,0.2l0.7,0.8
	l1.5,1.2l1,1l1.2,0.9l0.9,0l0.8,0.1l0.6,0.5l0.4,0.9l0.5,0.8l0.9,0.5l0.6,0.5l0.7,0.9l0.3,0.8l-0.7,2.9l0.1,0.1l0.2,0l0.1-0.1l1.2-2
	l0.9-2.4l0.2-0.3l0-0.2l0-0.6l0-0.4l0.1-0.6l0.1-0.3l0.2-0.3l0.4-0.3l1.3-0.6l1.3-0.4l0.8-0.2l1.3-0.2l0.2,0.5l0.6-0.2l0.2,0l0.2,0
	l0.4,0.1l0.4,0l0.7,0l0.6-0.1l0.6-0.2l0.6-0.2l0.2-0.1l0.1-0.1l0.1-0.1l0.1-0.2l0.4-1.5l0.1-0.3l0.1-0.2l0.1-0.1l0.2-0.1l0.2-0.1
	l0.4,0.1l0.6,2.6l0,0.6l-0.3,1.1l-0.3,0.4l-2.1,1.8l-0.6,0.9l0.1,1l1.3,2.1l0.2,0.7l0.2,0.9l0,1.4l-0.2,0.9l-0.6,1.3l-2.8,4
	l-0.5,0.7l-0.9,0.5l-0.7,0.1l-0.6-0.2l-1.5-0.7l-0.7-0.1l-0.5,0.2l-0.7,0.6l-0.3,0.5l-0.1,0.5l0.2,1.1l0.9,3.3l1.4,4.7l1.6-0.6
	l2.9-1l0.4,0.1l0.4,0.2l1.5,0.6l0.8,0.5l2.3,1.2l0.4,0.4l0.3,0.5l0.1,0.5l-1,6.5l-0.6,3.1l0,0.6l0.5,0.5l0,0l0.9,0l1.9,0.3l1.1-0.1
	l0.8,0.1l1.2,0.7l1.7,1.4l4.2,3.1l3.4,1.5l0.2,0.1l0.3,0.2l3.5,4.4l0.1,0.3l-0.1,0.5l-0.4,0.4l-3,2.4l-0.3,0.2l-0.3,0.2l-1.1,0
	l-0.2,0.2l0,0.2l1.5,2.5l0.2,0.4l1.5,2.7l0.6,1.1l0.8,1l0.2,0.6l-1.5,1l-1.6,1l-1.6,0.9l-2.1,0.6l-2.4,0.4l-2.2,0.8l-0.5,0.4
	l-0.4,0.5l-0.6,1.8L499,512l-0.3,1l-0.4,0.5l1.5,2.7l-0.2,1.4l0,0l-0.1,1.1l-0.8,3.2l-0.7,3l-0.2,2l-0.2,0.9l0.1,0.4l-0.3,1.6l0,0.4
	l0.2,0.4l0.4,0.3l0.5,0.1l0.1,0l0.7,0.1l0.8,0.8l1.5,0.3l1.2,0.2l0.8,0.2l0.8,0l4.6-1l0.4,0l0.6,0.3l0.2,0.3l0.1,0.6l-2,3.1
	l-1.3,2.5l-0.8,2.3l-0.7,2.5l-0.4,2.2l-0.3,1.9l0.2,1.7l0.1,0.2l0.7,1.8l1,0.4l1.3,0.6l0.3,0.3l-0.3,1.2l-0.3,0.4l-0.5,0.4l-0.6,0.1
	l-0.5,0.3l-2,5.1l-0.1,0.3l-0.5,1.8l-1,2.3l-2.4,6.2l-0.8,2.7l0.1,1.8l-0.4,1l-0.7,4.3l-0.6,4.1l-0.5,3.5l-0.5,3.7l-0.5,3.8
	L495.6,599.9z"/>
<path class="st1" d="M372.6,572.1l-5.2,1.8l-4,1.7l-0.9,0.5l0,0l-2.1,1l-4.4,2.3l-4.9,2.4l-3,1.7l-4.8,2.8l-4.4,2.9l-0.8,0.5
	l-1.1-0.4l-0.9-0.3l-2.6-0.3l-7.6-1.2l-0.5-0.1l-5.9-1.5l-3.8-1.3l-2.6-1.2l0,0l-5.3-2.5l0,0l-0.3-0.1l-2.8-1.4l-7.6-3.9l-4.2-2.6
	l-2.4-1.5l-1.3-0.6l-3.1-1.1l-2.3-0.8l-1.4-0.5l-2.2-0.7l-1.3-0.3l0,0l-0.1,0l-7.9-2l-0.9-0.3l-1.6-0.5l-3.7-0.8l-2.6-0.6l-2.3-0.5
	l-2.9-0.7l-5.1-1l-4.8-1l0,0l0,0l-2.2-3.3l0,0l0,0l-0.5-1.2l0,0l0,0l8.8-6.8l0,0l0,0l0.1-0.6l-4.6-1.1l-11.1-2.5l-1.7-0.5l-0.1-0.1
	l0,0l0,0l-5.7-7.7l0,0l0,0l-12.5-16.7l-1.5-2.6l1.6-3.4l2.5-6.8l0.8-2.7l0.8-4.8l0-0.3l0,0l0,0l-0.2-1.8l-0.9-3.9l-1-2l0-1l0,0l0,0
	l-0.1-9.2l0,0l0,0l0,0l5.3-1.7l1.1-11l1.4,0.1l0,0l4.8,0.2l0,0l1.2,0l2.3-0.6l2.1-1.1l2.2-2l0,0l0,0l0.7-1.9l1.5-7l0.9-0.3l0,0l0,0
	l0.9-0.3l3.5,1.7l0,0l0,0l0.6-2.8l0,0l0,0l0.1-0.2l-0.3-2.7l0.3-0.9l0,0l0,0l0.5-1.7l2.7-5.5l2.3-1.7l1.8-2.8l1.6-1.6l0,0l1-1.1
	l4.2-3.7l0,0l0,0l1.1-4.5l1.4-3l0,0l0,0l0.1-0.1l2.2-2.5l1.3-1.4l1.4-1l2-1l1.9-0.7l0,0l4.1-1.5l2.5-0.3l6.5-1.3l0,0l2.9-0.6
	l4.8-0.8l3.2,0.1l0,0l0,0l0.6,0l3.8-0.1l0,0l0,0l0,0l5.4-1.2l2.5-1.4l0,0l0,0l0.1,0.1l0,0l0.1,0.1l0.1,0.1l0.1,0.1l0.1,0.2l0.1,0.1
	l0.1,0.1l0.1,0.1l0.1,0.1l0.1,0.1l0.3,0.3l0.2,0.3l0.2,0.4l0.1,0.4l0.1,0.3l0.1,0.4l0.1,0.3l0.2,0.7l0.4,1.7l0.2,0.8l0.4,1.3
	l0.8,1.4l0,0.1l0.1,0.3l0,0.1l0,0.1l0,0.1l-0.1,0.2l0,0.1l0,0.1l0,0.1l0,0.1l0,0.1l0,0.1l0,0.1l0,0l0.1,0l0,0.1l0,0.1l0,0.1l0.1,0.3
	l0,0.1l0,0.3l0,0.1l0,0.1l0,0.1l0,0.1l0,0.2l0,0.1l0,0.1l0.2,1l0.1,0.2l0,0.1l0,0.2l0,0.2l0,0.1l0,0.1l0.1,0.2l0,0.1l0,0.1l0,0.2
	l0,0.2l0,0.1l0,0.1l0,0.1l0,0.1l0,0.1l0,0.2l0,0.1l0,0.1l0,0.4l0,0.2l0,0.1l0,0.1l0,0.1l0,0.3l0,0.1l0,0.1l-0.1,0.1l0,0.2l-0.1,0.2
	l-0.1,0.2l0,0.1l0,0.1l0,0.1l-0.1,0.1l-0.1,0.1l-0.1,0.1l-0.1,0.3l-0.1,0.1l-0.1,0.1l-0.1,0.1l0,0.1l0,0.1l0,0.1l0,0.2l0,0.3l0,0.2
	l0,0.1l0.1,0.3l0,0.2l0.1,0.2l0,0.1l0,0.1l-0.7,2.7l-0.5,0.7l-0.1,0.1l0,0.1l0,0.1l0,0.2l0,0.1l0,0.4l0,1.1l-0.4,0.8l-0.1,0l-0.1,0
	l-0.2,0.1l-0.2,0.2l-0.5,0.7l-0.1,0.2l-0.6,0.9l-0.1,0.2l-0.3,0.5l-0.1,0.1l-0.1,0.1l-0.2,0.1l-0.1,0l-0.1,0l0,0l0,0.1l-0.3,0.5
	l0,0.1l0,0.1l0,0.2l-0.1,0.6l0,0.4l0,0.1l0,0.1l0,0.2l-0.1,0.2l-0.1,0.1l-0.2,0.2l-0.5,0.5l-0.6,1.6l-2,2.8l-0.4,2.5l0.4,0.8
	l0.3,0.4l1.8,1.4l3.2,1l1.8,0.3l3.6,0l2.2,0.6l-0.1,6.3l0,1.5l0.1,5.6l0.8,2.8l0.7,1.7l0.4,1.5l0.1,1.4l-0.1,1.5l-0.5,1.4l-0.5,1.2
	l-0.7,1.3l-1.2,1.2l-2.8,2.1l-1.7,0.9l-1.7,0.3l-1.4,0.2l-2.8,0l-0.1,1.2l0.3,2.1l0.7,1.8l1,3.7l0.1,1.2l0,0.4l0,0.7l-0.5,2.1
	l-0.2,0.7l-0.4,0.9l-0.6,0.8l-0.5,1l-0.8,1.2l3.6,1.6l3.2,1.5l1.7,1l0.3,0.3l0.2,0.2l2.4,1.6l6.1,4l5.2,3.3l8.4,5.4l0.7,0.4l0.7,0.4
	l0.4,0.6l1.4,2.4l2,4.1l1.3,2.7l4.2,8.6l2.8,5.9l2,4.2l1.2,2.9l3.4,2.4l8.9,6l3.3,2.3l4.2,2.8L372.6,572.1z"/>
<path class="st2" d="M428.5,782.5L428.5,782.5l-0.4,0.3l-6.5,1.2l-0.4-0.1l-0.3-0.1l0,0l0,0l0-0.2l0-0.2l0.3-0.3l0.4-0.2l1.2-0.2
	l5.3-1.1l0.2,0l0.2,0.2l0.1,0.3L428.5,782.5z M365.8,745.1l0.2-0.3l-0.3-3.3l0-0.3l0.5-0.3l-0.2-2.1l-0.3-3.5l0-0.3l6.1-0.8
	l-1.6-4.8l-4.2-6.7l-1-1.6l0-0.1l-1.7-2.8l-4-6.3l-1.1-1.4l-2.8-3.2l-1.6-2.4l0.3-1.3l0.4-1.3l0.8-5.1l0.5-2.6l0-0.1l0.7-3.6
	l0.8-4.6l0,0l0.3-1.8l1.1-6.4l0.1-0.7l7.5-4.6l0.4-0.3l4.3-2.6l1.5-0.9l2.1-1.3l1.1-0.7l0.2-0.1l8.2-5.1l0.4-0.2l4.9-3l0.7-0.5
	l4.2,0.8l10.7,18l9.6-0.7l6.6-0.5l3.3-0.3l0.3,0l0.1,0l3.7,0.3l0.8,1l5,6.7l8.8,0.9l4.6,2.1l5.5,2.6l0.1,0l2.1,0.1l0.1,0l6.5,0.7
	l-0.9,6l-1,6.1l-1,6.5l12.8,1.6l-1,6.2l-1.1,7.1l-3.1,19.4l-0.3,2.3l-0.4,2.3l-0.1,1.1l0.4,0.1l12,1.6l-1.2,1.6l0.7,2l-2.7,18.7
	l-1.3-0.2l-1.7-0.6l0.3-3.1l0,0l0,0l-1.9,0.1l-0.7,0.4l-1,1.1l-0.2-0.2l0.8-0.9l-1.2-0.8l-0.9-0.5l-1.1-0.5l-2.4-0.9l-0.1,0
	l-1.4-0.4l-1.1-0.1l-2.3,0.1l-1.2,0.1l-1.7,0.4l-1.3,0.4l-1.5,0.7l-1.3,0.8l-1.3,1.2l-0.5,0.9l0.2,0.1l0.2,0.3l0.3,0.6l1,6.1
	l-0.8,0.2l-1.2-5.8l-0.1-0.3l-0.2-0.1l0,0l0,0l-0.2,0l-2,0.5l-0.3,0.2l-0.1,0.2l0,0.3l1,5.8l-0.8,0.1l-1.4-8.1l-1.4-0.4l0,0l0,0
	l-3-0.4l-3.1,0.1l-0.9,0.1l-5.5,1l-2.2,0.6l-2.4,1.4l-0.7,0.5l-2,2.1l-0.9,1.4l-0.6,0.1l-1.2-0.6l-4.2-0.4l-3.4,0.5l-4.6,1.5
	l-9.3,3.1l-2.1,0.6l-2.8,1.1l-1.8,1l-2,1.3l-1.1,0.6l-1.5,1.1l-1.1,0.9l-0.4,0.4l0,0l-0.1,0.1l-0.7,0.6l-0.7,1l-0.7,1.2l0,0l-1,1.7
	l-0.2,0.5l0,0l0,0.1l-0.1,0.7l0.1,0.6l1.1,3.3l0,0l0,0l3.5-0.7l0.4,0l0.2,0.1l0.1,0.1l0.1,0.2l0.1,0.3l0,0.3l-0.1,0.1l-0.1,0.1
	l-0.2,0.1l-37.9,8.8l-0.4,0.1l-0.3,0.2l-0.5,0.3l0,0l0,0l-0.3,0.2l-0.5,0.2l-0.2,0l0,0l-0.4,0l-0.5,0.1l-2.6,0.8l-0.1,0l-0.3,0.2
	l-2.9,1.1l0.1,0.4l-0.9,0.4l-0.3-0.9l0,0l0,0l-20.4,8.2l-1.1-3.1l0.9-0.3l0.6,1.6l0,0l0,0l0.9-0.4l0.2,0.7l0,0l0,0l18.6-7.6l0-0.1
	l0.2-0.2l0.2-0.1l6.6-2.8l0.1-0.2l-0.4-1.1l0-0.2l0.1-0.4l0.1-0.1l0.3-0.3l0.3-0.2l0.3,0l0.3,0.1l1.8,1.2l0.2,0.1l0,0l0,0l0.4,0
	l0.3,0l0.1,0l0.1,0.1l0,0l0,0l17-3.9l0.2-0.1l0.3-0.3l0.1-0.1l0,0l0,0l0.1-0.2l-0.7-4.8l-0.2-1l-0.3-0.2l0,0l0,0l-2.7,0.5l-0.5-0.4
	l0,0l0,0l-1.3,0.6l-2.2,0.6l-2.1,0.4l-1.2,0.4l-1.8,0.1l-2-0.2l-0.9-0.2l-0.2,0.3l0,0l0,0l-0.1,0.1L353,797l0,0l-0.1,0.1l-0.5,0.1
	l-0.6,1.2l0,0.6l0.6,1.9l0,0.4l-0.1,0.2l-0.1,0.1l-0.2,0l-0.2-0.2l-1.1-1.7l-0.1-0.2l0-0.4l0-0.3l1-2.2l-0.1-0.3l-0.4-0.7l0,0l0,0
	l0-0.1l-0.1-0.1l0-0.1l1.8-2.1l0.3-0.6l-0.6-0.5l1.5-1.2l0.3-0.1l0.6,0.3l0.1,0.1l-0.8,1.9l0,0l0,0l9.9-1.1l2.9-1.5l3.8-2.2
	l-0.2-0.3l0.8-0.5l0,0l7.5-4.3l0,0l0,0l-2-3.6l0,0l0,0l-8,4.6l0,0.5l-0.1,0.2l-0.4,0.3l-0.1,0.2l-1.1,0.7l-0.6-1l0.5-0.3l-0.8-1.5
	l0,0l0,0l-0.5,0.3l-0.3-0.5l1.8-1l-0.9-1.6l0-0.4l0.2-0.2l8.6-5l-0.1-0.1l0,0l-0.2-0.3l-0.4-0.7l0.1-0.4l1.8-1.1l0.1,0l0.2,0
	l4.9,8.7l0,0l0,0l2.3-1.3l-3.2-5.3l1.9-1.2l3.7-2.1l3,5.1l0,0l0,0l4.2-2.6l-0.8-1.3l-0.4-1.4l7.2-2.1l-0.8-3.5l-2.9-1.4l0,0l0,0
	l-9.3,5.5l-1.5-2.5l11-6.6l0.4,0l6.5,2.9l0,0l0,0l0-0.4l1.8-1l5.9-3.1l-1.3-2.7l0.3-0.3l2.7,1.9l0,0l0,0l0.1,0.1l0,0l0,0l7-9.5
	l-1.1-0.7l1.8-2.5l-0.4-6l-3.4-2.4l0,0l0,0l-12,16.1l0.2,0.6l-0.5,0.7l-0.9-0.6l0,0l0,0l-15.2,2l-0.4-0.3l-0.6-6l1.6-2l13-1.7
	l0.9-0.2l6.5-8.7l-0.1-1l0,0l0,0l-34.2,4.5l0.2,1.3l-1.1,0.2l2.2,22.8l-0.1,0.2l-0.2,0.1l-0.3,0.1l-7.2,0.9l-0.2-0.1l-0.1-0.1
	l-0.1-0.6l-1.5-15L365.8,745.1z"/>
<path class="st1" d="M563.3,607.3l1.8-1.5l0.9-0.7l2.5-2l2-1.5l1.3-0.9l2.7-1.6l0.3-0.2l1.1-0.6l0.3-0.2l2.6-1.4l0.7-0.4l1.9-1
	l1-0.6l0.7-0.6l0.7-0.9l0.5-0.9l0.9-2.4l1.1-3.5l0.1-0.3l0.7-2.1l1-3.1l0.8-2.4l0.9-2.5l1.4-4.2l1.5-4.6l0.4-1l0.8-1.9l1-2.7
	l3.1,3.7l5.6-4.6l0.2-0.5l0.7-0.6l0.3-0.2l2.7-2.1l0.2-0.1l1.9-1l2.9,5.9l0.4,0.9l0.2,0.5l1,1.7l6.2,9l4,5.8l0.1,0.2l1.7,0.4
	l2.1-4.6l0,0l3.4-7.6l0.6-0.9l0-0.1l0.3-0.5l0.9-1.8l1.5-1.8l2.3-1.5l1.4-0.7l2.3-0.9l1.7-0.1l3-1.3l5.7-2.6l1.2-0.5l2.3-0.8
	l0.5-0.2l3.9-1.8l0.5-0.2l1.4-0.7l2.9-1.4l1.8-0.9l3.3-1.6l4.3-2.1l1.3-0.6l5.2-2.3l5.3-2.3l7.5-3.3l0.2-0.2l0.5-0.4l0.5-0.4
	l3.2-1.5l4.3-2l9.7-4.4l5.3-2.7l0.6-0.1l0.3-0.1l8-3.8l1.5-0.7l1.4-0.6l1.1-0.5l3.1-1.6l4-2.3l2.3-1.5l0.6-0.4l2.7-1.8l2.6-1.9
	l0.4-0.3l2.4-2.2l1.9-1.9l3-3.5l1.3-1.5l0.6,0.4l0.4,0.3l1.2-1.5l0.6-0.8l0.5-0.7l0.3-0.4l0.5-0.7l0.7-1l0.4-0.7l0.8-1.5l0.8-1.8
	l0.2-0.6l0.3,0l1.6,1l0.5,0.6l2,0.6l0.6-1.6l0.3-1.2l1-1.8l0.9-1.6l0.9-1.3l1.9-2.4l2.2-2.2l1.9-1.9l4.4-3.8l3.3-2.8l0.1,0l0,0
	l6.3-5.5l9.9-8.6l1.6-1.1l-4.4,3.8l-0.8,0.7l-9.5,8.9l-7.2,7.6l0,0l0,0l-1.3,1.5l0,0l-1.3,1.5l-2.2,3.4l-1.5,3.7l-1.9,6.2l0,0l0,0
	l-0.7,2.4l-1,4.8l0,0l-0.8,3.8l-0.9,6.4l-0.8,6.6l-0.2,2.7l0,0l0,0l-0.1,1.4l0,0l0,0l-1,6.8l0,0l-0.3,1.9l-1,8.2l-0.5,3.7l0,0
	l-0.3,2.1l-0.4,1.5l0,0l-0.5,2l-1.5,5.2l-0.5,2.2l0,0l0,0l-1.4,5.7l-0.5,2.3l0,0l-8.4,26.2l-1.6,5.3l-3.5,6.4l-3.2,4.8l-1.4,1.9l0,0
	l-0.4,0.5l0,0l-1.9,2.5l0,0l0,0.1l-0.1,0.1l0,0l-0.2,0.3l0,0l-0.1,0.1l0,0l-1.1,1.4l-6.7,8l0,0l-3.1,3.5l-5,6.1l0,0l-3.3,4.9
	l-1.3,2.3l-2.5,4.1l-1.4-0.6l-14.8-11.9l0,0l0,0l-19,19.2L679,645l-0.2-1.8l-0.7-7.9l0-0.3l-0.4-3.2l-0.5-2l-0.3-1.9l-0.8-2.7
	l-0.6-1.4l-1.5-2.3l-1.3-1.4l-1.3-1l-2.8-1.5l-2.6-0.7l-1.3-0.1l-1.3,0l-2,0.2l-2.1,0.6l-1.3,0.4l-4.7,1.4l-1.8,0.6l-1.8,1l-0.1,1
	l-10.9,5.2l-8.4,5l-0.2,0.2l-1,0.4l-0.7,0.1l-0.5-0.9l-3.2,1.5l-6.3,2.7l-8.1,3.6l-9.6,3.8l-1.5,0.5l-11.8,5.1l-0.5,0.2l0.2-1.6
	l0.5-4.9l-1.5-0.1l-4.8-0.4l-6.7-0.7l1.1-6.3l0.4-2l0.5-3.7l0-0.1l1.1-7l0.2-0.9l0.3-2.2l0.3-1.9l0.3-2.1l0.9-6.1l-6.5-0.9l-6.3-0.8
	l-2.1-0.2L563.3,607.3z"/>
<path class="st3" d="M461.1,695.8l0.9-6l-6.5-0.7l-0.1,0l-2.1-0.1l-0.1,0l-5.5-2.6l-4.6-2.1l-8.8-0.9l-5-6.7l-0.8-1l-3.7-0.3l-0.1,0
	l-0.3,0l-3.3,0.3l-6.6,0.5l-9.6,0.7l-10.7-18L390,658l-0.7,0.5l-4.9,3l-0.4,0.2l-8.2,5.1l-0.2,0.1l-1.1,0.7l-2.1,1.3l-1.5,0.9
	l-4.3,2.6l-0.4,0.3l-7.5,4.6l-0.1,0.7l-1.1,6.4l-0.3,1.8l0,0l-0.8,4.6l-0.7,3.6l0,0.1l-0.5,2.6l-0.8,5.1l-0.4,1.3l-0.3,1.3l0,0l0,0
	l-0.4-0.6l-1.6-2.3l-2-2.5l-1.7-2.2l-0.5-0.7l-2.9-3.8l-1.6-2.1l-0.8-1l-2.3-3l-1.2-1.6l-1.7-2.2l-0.5-0.6l-0.6-0.9l-2.7-3.6
	l-2.2-2.9l-1.8-2.2l-3.2-4.1l-0.7-0.9l-0.7-0.9l-3.6-4.6l-0.6-0.8l-0.3-0.3l-5.9-7.8l-2.6-3.3l-0.4-3.2l-0.1-0.8l-0.2-1.2l0.1-1.7
	l0-0.1l0-0.7l0.6-3.8l1-6.7l1-6.4l0.2-1l0.6-3l0.3-2.2l0.8-5.4l0.9-5.3l0-0.1l0-0.2l0.6-2.6l0.3-1.3l5.5-3.9l1.5-1.1l6.8-4.7
	l0.8-0.6l6.4-4.4l0.8-0.5l4.4-2.9l4.8-2.8l3-1.7l4.9-2.4l4.4-2.3l2.1-1l0,0l0.9-0.5l4-1.7l5.2-1.8l1.1,1.1l0.4,0l0.9,0l1-1.1
	l2.3,1.5l1.2,0.8l1,0.6l5.7,3.7l0.4,0.2l6,3.8l6.1,3.9l6.6,4.3l5.5,3.6l0.2,0.2l3.2,2.1l12.9,8.4l1.4,0.2l0.3,0l0.7,0.1l1.5,0.2
	l9.1,0.9l1.5,0.2l6.1,0.7l0.4,0l6.5,0.7l6.5,0.7l0.1,0l6.2,0.7l-1,6.5l6.9,0.8l6.4,0.7l6.4,0.7l6.5,0.8l1.1-6.6l1-6.3l1.1-6.6
	l7.3,0.8l6.1,0.6l6.3,0.7l6.4,0.7l6.2,0.7l6.4,0.8l-0.3,3.3l-0.6,3.3l-0.5,3.2l-0.5,3.3l-0.9,6.3l0,0.4l-1.1,6.4l-0.9,6.3l-1,6.5
	l-0.8,4.9l-0.3,1.6l-1,6.5l-1.3,8.4l-1.6,0.1l-1,0.2l-1.7,0.9l-0.8,0.1l-0.3,0.4l-0.2,0.3l-0.7,1.1l-0.3,0.4l-0.3,0.5l-0.3,0.5
	l0.2,0.9l-0.2,0l0.7,2.4l0.7,0.8l-2.3,1.8l-15.3,11.8l-6,4.6l-1.1,0.5l-0.3,0.1l-4.9,4l-2.6,1.8l-1.4,1l-5.1-0.6l-12.9-1.6
	L461.1,695.8z"/>
<rect x="176.2" y="706.8" class="st4" width="196.5" height="31.5"/>
<text transform="matrix(1 0 0 1 176.2342 720.4571)" class="st5 st6 st7">Sants -Montjuïc</text>
<rect x="352.8" y="625.7" class="st4" width="139.4" height="31.5"/>
<text transform="matrix(1 0 0 1 352.8368 639.3641)" class="st5 st6 st7">L’Eixample</text>
<rect x="342.4" y="702.3" class="st4" width="139.4" height="67.1"/>
<text transform="matrix(1 0 0 1 365.0052 715.9318)" class="st5 st6 st7">Ciutat Vella</text>
<rect x="236.7" y="521.6" class="st4" width="129.1" height="39.3"/>
<text transform="matrix(1 0 0 1 236.7084 535.3123)" class="st5 st6 st7">Les Corts</text>
<rect x="526" y="701.9" class="st4" width="196.5" height="102"/>
<text transform="matrix(1 0 0 1 525.9578 715.6197)" class="st5 st6 st7">Sant Martí</text>
<rect x="516.4" y="286.4" class="st4" width="133" height="102"/>
<text transform="matrix(1 0 0 1 559.0741 303.8973)"><tspan x="0" y="0" class="st5 st6 st8">Sant </tspan><tspan x="-15.8" y="27.6" class="st5 st6 st8">Andreu</tspan></text>
<rect x="615.4" y="481" class="st4" width="133" height="102"/>
<text transform="matrix(1 0 0 1 637.1077 494.63)" class="st9 st6 st7">Nou Barris</text>
<rect x="606.4" y="586.2" class="st4" width="133" height="27.4"/>
<text transform="matrix(1 0 0 1 620.9802 599.8983)" class="st5 st6 st7">Sant Andreu</text>
<rect x="468.7" y="408" class="st4" width="164.8" height="30.9"/>
<text transform="matrix(1 0 0 1 482.4312 421.6791)" class="st9 st6 st7">Horta -Guinardó</text>
<rect x="300.1" y="413" class="st4" width="169.2" height="102"/>
<text transform="matrix(1 0 0 1 354.9188 426.6326)"><tspan x="0" y="0" class="st9 st6 st7">Sarrià - </tspan><tspan x="-22.5" y="21.6" class="st9 st6 st7">Sant Gervasi</tspan></text>
<rect x="392.6" y="566.6" class="st4" width="133" height="27.7"/>
<text transform="matrix(1 0 0 1 432.3515 580.2932)" class="st9 st6 st7">Gràcia</text>
<rect x="-112.4" y="956.7" class="st4" width="623.3" height="27.7"/>
<text transform="matrix(1 0 0 1 62.8061 968.8156)" class="st10 st6 st11">Fuente: Idescat y Mossos d’Esquadra</text>
<rect x="176.4" y="105.9" class="st0" width="148.1" height="24"/>
<rect x="324.5" y="105.9" class="st1" width="148.1" height="24"/>
<rect x="472.6" y="105.9" class="st3" width="148.1" height="24"/>
<rect x="619.9" y="105.9" class="st2" width="148.1" height="24"/>
<rect x="180.3" y="111.6" class="st4" width="120.7" height="23.5"/>
<text transform="matrix(1 0 0 1 180.3137 123.7201)" class="st9 st6 st11">Menos de 6.5</text>
<rect x="305.1" y="111.6" class="st4" width="148.9" height="23.5"/>
<text transform="matrix(1 0 0 1 328.9285 123.7201)" class="st5 st6 st11">Entre 6.5 y 11</text>
<rect x="476" y="111.6" class="st4" width="117.1" height="23.5"/>
<text transform="matrix(1 0 0 1 476.0012 123.7201)" class="st5 st6 st11">Entre 11  y 25</text>
<rect x="578.4" y="111.6" class="st4" width="169.2" height="23.5"/>
<text transform="matrix(1 0 0 1 630.288 123.7201)" class="st5 st6 st11">Hasta 40</text>
<rect x="-28.5" y="19" class="st4" width="777" height="28.9"/>
<text transform="matrix(1 0 0 1 40.0383 43.2999)" class="st9 st12 st13">Tasa de delitos por cada cien habitantes</text>
<rect x="-56.6" y="55.6" class="st4" width="623.4" height="28.9"/>
<text transform="matrix(1 0 0 1 41.5538 76.083)" class="st9 st6 st14">Registrados en 2016 en Barcelona</text>
<polygon class="st15" points="580,946.4 749.6,946.4 749.6,972.2 580,972.2 580,946.4 "/>
<path class="st5" d="M716.1,952.2h-6.5v0.8l1.7,0.4v12c-0.2,0.3-0.6,0.6-1.2,0.6c-1.1,0-1.8-1-2.1-1.5l-1.6-2.9
	c-0.7-1.2-1.4-1.8-3-2v-0.2c2.2-0.1,4.1-1.6,4.1-3.7c0-2.5-2.3-3.5-4.9-3.5h-5.9v0.8l1.9,0.4v12.2h0l-2.2,0.4l-5.5-15.1
	c-0.7,0.8-1.4,1.4-2,1.7l0.2,0.6l-5,12.3l-1.5,0.4v0.8h4.6V966l-1.5-0.4l1.7-4.5h4.7l1.6,4.5l-1.8,0.4v0.8h11.2V966l-1.9-0.4v-5.7
	c1.3,0.1,1.9,0.7,2.5,1.8l2.2,4c0.7,1.3,1.9,1.9,3.2,1.9c1,0,1.9-0.6,2.1-0.9h5c4.3,0,7.7-3.3,7.7-7.3
	C723.9,955.2,720.6,952.2,716.1,952.2L716.1,952.2z M687.7,959.9l2-5.2l1.9,5.2H687.7L687.7,959.9z M702.2,958.8c-0.2,0-0.7,0-1,0
	v-5.4h1.2c1.6,0,2.6,1.2,2.6,2.6C704.9,957.4,703.9,958.8,702.2,958.8L702.2,958.8z M715.9,965.6h-2.1v-12.2h2.1
	c3.3,0,5.4,2.3,5.4,6.1C721.3,963.2,719.2,965.6,715.9,965.6L715.9,965.6z"/>
<path class="st5" d="M609.4,965.6l-5.4-14.7c-0.7,0.8-1.4,1.4-2,1.7l0.2,0.6l-5,12.3l-1.1,0.4l-0.3,0.8h4.5V966l-1.5-0.4l1.7-4.5
	h4.7l1.6,4.5L605,966v0.8h6V966L609.4,965.6L609.4,965.6z M600.8,959.9l2-5.2l1.9,5.2H600.8L600.8,959.9z"/>
<polygon class="st5" points="596.5,963.1 596,962.8 592.8,965.7 590.1,965.7 590.1,953.4 591.7,953 591.7,952.2 585.9,952.2 
	585.9,953 587.6,953.4 587.6,965.6 585.9,966 585.9,966.8 595.1,966.8 596.5,963.1 "/>
<polygon class="st5" points="621.9,952.2 621.9,953 623.7,953.4 619.9,963.2 615.8,953.4 617.7,953 617.7,952.2 611.2,952.2 
	611.2,953 613.1,953.4 618.9,967.3 619.5,967.3 625.2,953.4 625.3,953.4 627.1,953 627.1,952.2 621.9,952.2 "/>
<path class="st5" d="M679.5,952.2v0.8l1.7,0.4c0,0,0.1,7.2,0.1,9.1c-0.1,2.1-1.7,3.6-3.9,3.6c-2.3,0-3.9-1.3-3.9-3.8v-8.9l1.7-0.4
	v-0.8h-5.9v0.8l1.7,0.4v9c0.1,3.1,2.6,5.1,5.8,5.1s5.7-1.9,5.8-5.1l0.1-9l1.7-0.4v-0.8H679.5L679.5,952.2z"/>
<path class="st5" d="M743,965.5l-5.4-14.6c-0.7,0.8-1.4,1.4-2,1.7l0.2,0.6l-5.1,12.4L730,966l-1.2-0.4v-12.2l1.8-0.4v-0.8h-6.1v0.8
	l1.8,0.4v12.2l-1.7,0.4v0.8h9.4V966l-1.5-0.4l1.7-4.5h4.7l1.6,4.5l-1.8,0.4v0.8h6V966L743,965.5L743,965.5z M734.5,959.9l2-5.2
	l1.9,5.2H734.5L734.5,959.9z"/>
<path class="st5" d="M648.1,952.2v0.8l1.8,0.4l0.1,9.6l-9.2-10.8H637v0.8l1.8,0.4l0.1,0.1l-0.1,12.1h0L637,966l-5.5-15.1
	c-0.7,0.8-1.4,1.4-2,1.7l0.2,0.6l-5,12.3l-1.5,0.4v0.8h4.6V966l-1.5-0.4l1.7-4.5h4.7l1.6,4.5l-1.8,0.4v0.8h9.6V966l-1.9-0.4L640,955
	l10.5,12.3h0.7l0.1-13.9l1.8-0.4v-0.8H648.1L648.1,952.2z M628.3,959.9l2-5.2l1.9,5.2H628.3L628.3,959.9z"/>
<path class="st5" d="M663.5,959.3v0.8l1.6,0.4v4.7c-0.8,0.6-2.1,1.1-3.3,1.1c-3.3,0-5.4-2.8-5.4-6.7c0-3.8,2.1-7,5.5-7
	c2.2,0,4.2,1.5,4.9,4l0.5-0.3v-4.6l-0.4-0.2l-0.9,1.1c-0.9-0.5-2.5-1-4-1c-4.5,0-8.2,3.7-8.2,8.1c0,4.6,3.2,7.8,7.6,7.8
	c1.8,0,3.4-0.5,4.7-1.6l1.3,0.9h0.4v-6.3l1.4-0.5v-0.7H663.5L663.5,959.3z"/>
</svg>
