<svg xmlns="http://www.w3.org/2000/svg" viewBox="0 0 855 798"><defs><style>.\33 f10ef18-063a-42c6-a8f5-1521175e10c7{font-size:24px;}.\33 daeafe8-f6c4-4920-86fd-c531d964a47b,.\33 f10ef18-063a-42c6-a8f5-1521175e10c7,.\39 a228bef-1e5f-442d-af98-f186ce9f1055,.\39 a452246-65ae-406e-b512-61538ae4602e{fill:#757575;}.\33 daeafe8-f6c4-4920-86fd-c531d964a47b,.\33 f10ef18-063a-42c6-a8f5-1521175e10c7,.eb2829c8-cfe0-4538-bb13-473617b114a1{font-family:ArialMT, Arial;}.\31 61ffb02-d121-40e9-acc0-bd8e1bd06b3b,.\34 87b3ff7-b83f-44f2-81a5-e03fa4d7a8c2,.\36 7bfc9ee-ee81-4de6-a953-574d2cbf656d,.\37 84eea75-1784-4646-acc9-8c9aa0745d69{fill:none;stroke:#757575;}.\31 61ffb02-d121-40e9-acc0-bd8e1bd06b3b,.\34 87b3ff7-b83f-44f2-81a5-e03fa4d7a8c2,.\35 84c7a6d-f226-4d56-b8dc-49c3d2427448,.\36 7bfc9ee-ee81-4de6-a953-574d2cbf656d,.\37 84eea75-1784-4646-acc9-8c9aa0745d69,.ec1d7395-b3ef-414b-8f4d-bac183f75064{stroke-miterlimit:10;}.\36 7bfc9ee-ee81-4de6-a953-574d2cbf656d{stroke-dasharray:5 5;}.\34 87b3ff7-b83f-44f2-81a5-e03fa4d7a8c2{stroke-dasharray:4.91 4.91;}.\31 61ffb02-d121-40e9-acc0-bd8e1bd06b3b{stroke-dasharray:4.99 4.99;}.\39 a228bef-1e5f-442d-af98-f186ce9f1055{fill-opacity:0.3;}.ec1d7395-b3ef-414b-8f4d-bac183f75064{fill:#d80909;}.\35 84c7a6d-f226-4d56-b8dc-49c3d2427448,.ec1d7395-b3ef-414b-8f4d-bac183f75064{stroke:#fff;stroke-width:0.75px;}.\35 84c7a6d-f226-4d56-b8dc-49c3d2427448{fill:#117c08;}.eb2829c8-cfe0-4538-bb13-473617b114a1{font-size:23px;}.f368475b-48eb-4312-8191-167c85b07494{font-size:37px;fill:#323232;}.\39 a452246-65ae-406e-b512-61538ae4602e,.f368475b-48eb-4312-8191-167c85b07494{font-family:Arial-BoldMT, Arial;font-weight:700;}.\39 a452246-65ae-406e-b512-61538ae4602e{font-size:32px;}.\35 40ee830-5d19-4e92-b30b-9bb3283e4ad0{letter-spacing:-0.07em;}.be56214a-818a-4976-b82c-7f118c9279da{letter-spacing:-0.04em;}.\31 6c86dba-0fcf-4d2f-9951-4b0f71d115a1{letter-spacing:-0.02em;}.\33 daeafe8-f6c4-4920-86fd-c531d964a47b{font-size:20px;}.\37 47bc79d-86af-42c8-b1ee-f96b8bebcefe{letter-spacing:-0.06em;}</style></defs><title>Comparacion_equpo</title><g id="fb98b090-03e8-42e5-8a6e-0c6872e4fbff" data-name="Capa 1"><text class="3f10ef18-063a-42c6-a8f5-1521175e10c7" transform="translate(536.07 601.56)">100 millones</text><text class="3f10ef18-063a-42c6-a8f5-1521175e10c7" transform="translate(537.07 640.56)">50 millones</text><text class="3f10ef18-063a-42c6-a8f5-1521175e10c7" transform="translate(534.07 691.56)">10 millones</text><line class="784eea75-1784-4646-acc9-8c9aa0745d69" x1="758" y1="696.5" x2="755.5" y2="696.5"/><line class="67bfc9ee-ee81-4de6-a953-574d2cbf656d" x1="750.5" y1="696.5" x2="543" y2="696.5"/><line class="784eea75-1784-4646-acc9-8c9aa0745d69" x1="540.5" y1="696.5" x2="538" y2="696.5"/><line class="784eea75-1784-4646-acc9-8c9aa0745d69" x1="747" y1="645.5" x2="744.5" y2="645.5"/><line class="487b3ff7-b83f-44f2-81a5-e03fa4d7a8c2" x1="739.59" y1="645.5" x2="545.46" y2="645.5"/><line class="784eea75-1784-4646-acc9-8c9aa0745d69" x1="543" y1="645.5" x2="540.5" y2="645.5"/><line class="784eea75-1784-4646-acc9-8c9aa0745d69" x1="761" y1="606.5" x2="758.5" y2="606.5"/><line class="161ffb02-d121-40e9-acc0-bd8e1bd06b3b" x1="753.51" y1="606.5" x2="546.49" y2="606.5"/><line class="784eea75-1784-4646-acc9-8c9aa0745d69" x1="544" y1="606.5" x2="541.5" y2="606.5"/><path class="9a228bef-1e5f-442d-af98-f186ce9f1055" d="M812,666.78A61.78,61.78,0,1,1,750.18,605,61.78,61.78,0,0,1,812,666.78"/><circle class="9a228bef-1e5f-442d-af98-f186ce9f1055" cx="748.41" cy="712.11" r="17.52"/><circle class="9a228bef-1e5f-442d-af98-f186ce9f1055" cx="748.39" cy="686.42" r="41.75"/><circle class="ec1d7395-b3ef-414b-8f4d-bac183f75064" cx="211" cy="366.78" r="55.32"/><circle class="ec1d7395-b3ef-414b-8f4d-bac183f75064" cx="319.89" cy="366.78" r="53.57"/><circle class="ec1d7395-b3ef-414b-8f4d-bac183f75064" cx="267.19" cy="460.05" r="53.57"/><circle class="ec1d7395-b3ef-414b-8f4d-bac183f75064" cx="267.16" cy="275.61" r="51.75"/><circle class="ec1d7395-b3ef-414b-8f4d-bac183f75064" cx="163.78" cy="270.68" r="51.75"/><circle class="ec1d7395-b3ef-414b-8f4d-bac183f75064" cx="161.89" cy="461.92" r="51.75"/><circle class="ec1d7395-b3ef-414b-8f4d-bac183f75064" cx="366.81" cy="276.8" r="47.91"/><circle class="ec1d7395-b3ef-414b-8f4d-bac183f75064" cx="368.58" cy="455.81" r="47.91"/><circle class="ec1d7395-b3ef-414b-8f4d-bac183f75064" cx="108.6" cy="353.67" r="47.91"/><circle class="ec1d7395-b3ef-414b-8f4d-bac183f75064" cx="64.91" cy="438.96" r="47.91"/><circle class="ec1d7395-b3ef-414b-8f4d-bac183f75064" cx="416.34" cy="353.91" r="43.74"/><circle class="ec1d7395-b3ef-414b-8f4d-bac183f75064" cx="454.25" cy="430.25" r="41.49"/><circle class="ec1d7395-b3ef-414b-8f4d-bac183f75064" cx="321.29" cy="202.62" r="39.12"/><circle class="ec1d7395-b3ef-414b-8f4d-bac183f75064" cx="219.03" cy="198.54" r="39.12"/><circle class="ec1d7395-b3ef-414b-8f4d-bac183f75064" cx="325.42" cy="525.29" r="33.88"/><circle class="ec1d7395-b3ef-414b-8f4d-bac183f75064" cx="214.27" cy="529.66" r="33.88"/><circle class="ec1d7395-b3ef-414b-8f4d-bac183f75064" cx="272.07" cy="152.79" r="30.93"/><circle class="ec1d7395-b3ef-414b-8f4d-bac183f75064" cx="445.22" cy="285.06" r="30.93"/><circle class="ec1d7395-b3ef-414b-8f4d-bac183f75064" cx="271.15" cy="560.71" r="30.93"/><circle class="ec1d7395-b3ef-414b-8f4d-bac183f75064" cx="85.15" cy="281.83" r="27.66"/><circle class="ec1d7395-b3ef-414b-8f4d-bac183f75064" cx="381.6" cy="524.81" r="22.3"/><circle class="ec1d7395-b3ef-414b-8f4d-bac183f75064" cx="379.43" cy="210.52" r="19.56"/><circle class="ec1d7395-b3ef-414b-8f4d-bac183f75064" cx="175.9" cy="518.14" r="6.19"/><circle class="584c7a6d-f226-4d56-b8dc-49c3d2427448" cx="624.83" cy="359.82" r="61.85"/><path class="584c7a6d-f226-4d56-b8dc-49c3d2427448" d="M774.16,359.82a43.74,43.74,0,1,1-43.74-43.74,43.74,43.74,0,0,1,43.74,43.74"/><circle class="584c7a6d-f226-4d56-b8dc-49c3d2427448" cx="693.4" cy="433.95" r="39.12"/><circle class="584c7a6d-f226-4d56-b8dc-49c3d2427448" cx="692.5" cy="292.1" r="33.88"/><circle class="584c7a6d-f226-4d56-b8dc-49c3d2427448" cx="632.6" cy="267.37" r="30.93"/><path class="584c7a6d-f226-4d56-b8dc-49c3d2427448" d="M625.88,483.52A30.93,30.93,0,1,1,656.8,452.6a30.93,30.93,0,0,1-30.93,30.93"/><circle class="584c7a6d-f226-4d56-b8dc-49c3d2427448" cx="757.27" cy="290.16" r="30.93"/><circle class="584c7a6d-f226-4d56-b8dc-49c3d2427448" cx="759.57" cy="425" r="27.66"/><circle class="584c7a6d-f226-4d56-b8dc-49c3d2427448" cx="576.55" cy="284.44" r="27.66"/><circle class="584c7a6d-f226-4d56-b8dc-49c3d2427448" cx="571.22" cy="431.51" r="27.66"/><circle class="584c7a6d-f226-4d56-b8dc-49c3d2427448" cx="678.71" cy="233.59" r="26.24"/><circle class="584c7a6d-f226-4d56-b8dc-49c3d2427448" cx="665.7" cy="491.49" r="24.74"/><circle class="584c7a6d-f226-4d56-b8dc-49c3d2427448" cx="792.31" cy="332.4" r="23.96"/><circle class="584c7a6d-f226-4d56-b8dc-49c3d2427448" cx="792.01" cy="385.9" r="23.14"/><circle class="584c7a6d-f226-4d56-b8dc-49c3d2427448" cx="726.61" cy="245.62" r="23.14"/><circle class="584c7a6d-f226-4d56-b8dc-49c3d2427448" cx="548.01" cy="325.45" r="22.3"/><circle class="584c7a6d-f226-4d56-b8dc-49c3d2427448" cx="740.91" cy="468.38" r="19.56"/><circle class="584c7a6d-f226-4d56-b8dc-49c3d2427448" cx="555.9" cy="392.36" r="14.37"/><circle class="584c7a6d-f226-4d56-b8dc-49c3d2427448" cx="554.34" cy="355.85" r="8.75"/><circle class="584c7a6d-f226-4d56-b8dc-49c3d2427448" cx="546.24" cy="371.36" r="8.75"/><circle class="584c7a6d-f226-4d56-b8dc-49c3d2427448" cx="810.25" cy="359.74" r="8.75"/><circle class="584c7a6d-f226-4d56-b8dc-49c3d2427448" cx="596.45" cy="256.17" r="6.92"/><circle class="584c7a6d-f226-4d56-b8dc-49c3d2427448" cx="590.51" cy="457.6" r="4.79"/></g><g id="f3e25986-7550-43b4-b757-b580b7ea17fe" data-name="Capa 3"><text class="eb2829c8-cfe0-4538-bb13-473617b114a1" transform="translate(51.99 67.58)">Cada círculo representa el valor de un futbolista en millones de euros</text><text class="f368475b-48eb-4312-8191-167c85b07494" transform="translate(19.27 37.6)">El valor de la selección española y portuguesa</text></g><g id="09ec54ef-761c-475a-8285-0a80dc21cfa1" data-name="Capa 2"><text class="9a452246-65ae-406e-b512-61538ae4602e" transform="translate(16.74 169.1)">ES<tspan class="540ee830-5d19-4e92-b30b-9bb3283e4ad0" x="42.69" y="0">P</tspan><tspan x="61.66" y="0">AÑ</tspan><tspan class="be56214a-818a-4976-b82c-7f118c9279da" x="107.88" y="0">A</tspan></text><text class="9a452246-65ae-406e-b512-61538ae4602e" transform="translate(587.16 169.1)">PORTUGA<tspan class="16c86dba-0fcf-4d2f-9951-4b0f71d115a1" x="160" y="0">L</tspan></text><text class="3daeafe8-f6c4-4920-86fd-c531d964a47b" transform="translate(6.3 789.1)">Fuente: Elaboración propia a partir de<tspan class="16c86dba-0fcf-4d2f-9951-4b0f71d115a1" x="335.76" y="0"> </tspan><tspan class="be56214a-818a-4976-b82c-7f118c9279da" x="340.96" y="0">T</tspan><tspan x="352.43" y="0">ransfermarkt</tspan></text><text class="3daeafe8-f6c4-4920-86fd-c531d964a47b" transform="translate(687.36 791.1)">L<tspan class="747bc79d-86af-42c8-b1ee-f96b8bebcefe" x="11.12" y="0">A</tspan><tspan x="23.36" y="0"> </tspan><tspan class="540ee830-5d19-4e92-b30b-9bb3283e4ad0" x="28.92" y="0">V</tspan><tspan x="40.77" y="0">ANGUARDI</tspan><tspan class="747bc79d-86af-42c8-b1ee-f96b8bebcefe" x="146.34" y="0">A</tspan></text></g></svg>