<svg id="de5a5501-d317-4dde-a9d2-5f1d6ed51cad" data-name="Capa 1" xmlns="http://www.w3.org/2000/svg" viewBox="0 0 560.5 594.46"><defs><style>.\34 0267709-dda9-45df-b118-77c3c80830d7,.\34 6901dc0-6391-4a23-956c-3a309aec3227,.ea6e49bf-8136-4bac-a549-0cca0617950e{fill:none;}.\34 0267709-dda9-45df-b118-77c3c80830d7{stroke:#d9d9d9;}.\31 a3898e8-767f-4135-8b7a-a8abda78dd90,.\38 503dde7-7167-41c3-8a41-8331416d0ef7{fill:#a01f51;}.\31 a3898e8-767f-4135-8b7a-a8abda78dd90,.eb0c6384-c294-4bed-98f0-51d50148b876,.f06e40ac-8196-4ad8-bc7a-b779033627ff{opacity:0.76;}.\38 ca16d5e-6b4c-43c5-9b99-77b46432ce16,.f06e40ac-8196-4ad8-bc7a-b779033627ff{fill:#15acb1;}.\37 ba2d1d0-2060-41ec-a4e8-46dde9ec049b,.eb0c6384-c294-4bed-98f0-51d50148b876{fill:#3f4d78;}.\34 6901dc0-6391-4a23-956c-3a309aec3227,.ea6e49bf-8136-4bac-a549-0cca0617950e{stroke:#323232;}.\34 a2b028a-140d-42a8-ba48-d91144318574,.d8401a55-486d-46bd-9633-c6861e5113e5,.f6bf7abc-94b4-4df7-a8a0-140c61dbbf60{font-size:15px;}.\34 a2b028a-140d-42a8-ba48-d91144318574,.\34 a2cd264-61fb-4c8b-a0e5-66167dede627,.ca5d03c3-2700-4b3c-a4bc-871bb8e516f6,.d8401a55-486d-46bd-9633-c6861e5113e5{fill:#757575;}.\37 ba2d1d0-2060-41ec-a4e8-46dde9ec049b,.\38 503dde7-7167-41c3-8a41-8331416d0ef7,.\38 ca16d5e-6b4c-43c5-9b99-77b46432ce16,.ca5d03c3-2700-4b3c-a4bc-871bb8e516f6,.d8401a55-486d-46bd-9633-c6861e5113e5,.f6bf7abc-94b4-4df7-a8a0-140c61dbbf60{font-family:ArialMT, Arial;}.ab364c1b-6389-4e3f-8115-08e34dd34520,.f6bf7abc-94b4-4df7-a8a0-140c61dbbf60{fill:#323232;}.\34 a2b028a-140d-42a8-ba48-d91144318574,.ab364c1b-6389-4e3f-8115-08e34dd34520{font-family:Arial-BoldMT, Arial;font-weight:700;}.\36 2cc525e-5d9f-4689-8dfc-0b5ba18a3d04{fill:#283659;}.\31 2dea36e-727e-4a08-a24f-bdae50b19dd1{fill:#fff;}.ca5d03c3-2700-4b3c-a4bc-871bb8e516f6{font-size:14px;}.ab364c1b-6389-4e3f-8115-08e34dd34520{font-size:28px;}.\37 ba2d1d0-2060-41ec-a4e8-46dde9ec049b,.\38 503dde7-7167-41c3-8a41-8331416d0ef7,.\38 ca16d5e-6b4c-43c5-9b99-77b46432ce16{font-size:16px;}.\34 6901dc0-6391-4a23-956c-3a309aec3227{stroke-width:2px;}</style></defs><title>ECONOMIASUMERGIDA</title><path class="40267709-dda9-45df-b118-77c3c80830d7" d="M504.41,93V567" transform="translate(36 -2.62)"/><path class="40267709-dda9-45df-b118-77c3c80830d7" d="M437.82,93V567" transform="translate(36 -2.62)"/><path class="40267709-dda9-45df-b118-77c3c80830d7" d="M371.24,93V567" transform="translate(36 -2.62)"/><path class="40267709-dda9-45df-b118-77c3c80830d7" d="M305.28,93V567" transform="translate(36 -2.62)"/><path class="40267709-dda9-45df-b118-77c3c80830d7" d="M238.69,93V567" transform="translate(36 -2.62)"/><path class="40267709-dda9-45df-b118-77c3c80830d7" d="M172.1,93V567" transform="translate(36 -2.62)"/><rect class="1a3898e8-767f-4135-8b7a-a8abda78dd90" x="141.52" y="110.12" width="406.98" height="11.63"/><rect class="1a3898e8-767f-4135-8b7a-a8abda78dd90" x="141.52" y="125.14" width="372.13" height="11.63"/><rect class="1a3898e8-767f-4135-8b7a-a8abda78dd90" x="141.52" y="140.65" width="368.4" height="11.63"/><rect class="1a3898e8-767f-4135-8b7a-a8abda78dd90" x="141.52" y="156.16" width="348.49" height="11.63"/><rect class="1a3898e8-767f-4135-8b7a-a8abda78dd90" x="141.52" y="171.67" width="342.88" height="11.63"/><rect class="1a3898e8-767f-4135-8b7a-a8abda78dd90" x="141.52" y="187.18" width="329.82" height="11.63"/><rect class="1a3898e8-767f-4135-8b7a-a8abda78dd90" x="141.52" y="202.69" width="322.97" height="11.63"/><rect class="1a3898e8-767f-4135-8b7a-a8abda78dd90" x="141.52" y="218.2" width="313.64" height="11.63"/><rect class="1a3898e8-767f-4135-8b7a-a8abda78dd90" x="141.52" y="233.71" width="309.9" height="11.63"/><rect class="1a3898e8-767f-4135-8b7a-a8abda78dd90" x="141.52" y="249.22" width="309.9" height="11.63"/><rect class="1a3898e8-767f-4135-8b7a-a8abda78dd90" x="141.52" y="264.73" width="291.23" height="11.63"/><rect class="f06e40ac-8196-4ad8-bc7a-b779033627ff" x="141.52" y="279.76" width="291.23" height="11.63"/><rect class="f06e40ac-8196-4ad8-bc7a-b779033627ff" x="141.52" y="295.26" width="273.81" height="11.63"/><rect class="f06e40ac-8196-4ad8-bc7a-b779033627ff" x="141.52" y="312.28" width="242.07" height="11.63"/><rect class="f06e40ac-8196-4ad8-bc7a-b779033627ff" x="141.52" y="327.79" width="233.98" height="11.63"/><rect class="eb0c6384-c294-4bed-98f0-51d50148b876" x="141.52" y="343.3" width="215.31" height="11.63"/><rect class="1a3898e8-767f-4135-8b7a-a8abda78dd90" x="141.52" y="358.81" width="201" height="11.63"/><rect class="1a3898e8-767f-4135-8b7a-a8abda78dd90" x="141.52" y="374.32" width="187.31" height="11.63"/><rect class="eb0c6384-c294-4bed-98f0-51d50148b876" x="141.52" y="389.83" width="175.49" height="11.63"/><rect class="eb0c6384-c294-4bed-98f0-51d50148b876" x="141.52" y="405.34" width="164.91" height="11.63"/><rect class="eb0c6384-c294-4bed-98f0-51d50148b876" x="141.52" y="420.37" width="163.66" height="11.63"/><rect class="eb0c6384-c294-4bed-98f0-51d50148b876" x="141.52" y="435.88" width="162.42" height="11.63"/><rect class="eb0c6384-c294-4bed-98f0-51d50148b876" x="141.52" y="451.39" width="159.31" height="11.63"/><rect class="eb0c6384-c294-4bed-98f0-51d50148b876" x="141.52" y="466.9" width="150.6" height="11.63"/><rect class="eb0c6384-c294-4bed-98f0-51d50148b876" x="141.52" y="482.41" width="125.08" height="11.63"/><rect class="eb0c6384-c294-4bed-98f0-51d50148b876" x="141.52" y="497.92" width="119.48" height="11.63"/><rect class="eb0c6384-c294-4bed-98f0-51d50148b876" x="141.52" y="513.42" width="110.15" height="11.63"/><rect class="eb0c6384-c294-4bed-98f0-51d50148b876" x="141.52" y="528.93" width="108.9" height="11.63"/><path class="ea6e49bf-8136-4bac-a549-0cca0617950e" d="M105.52,93V567" transform="translate(36 -2.62)"/><text class="d8401a55-486d-46bd-9633-c6861e5113e5" transform="translate(81.97 120.86)">Bulgaria</text><text class="f6bf7abc-94b4-4df7-a8a0-140c61dbbf60" transform="translate(430.76 79.86)">Porcentaje del PIB</text><text class="f6bf7abc-94b4-4df7-a8a0-140c61dbbf60" transform="translate(391.63 516.41)">Media Europea: 18,2%</text><text class="d8401a55-486d-46bd-9633-c6861e5113e5" transform="translate(196.66 102.32)">5</text><text class="d8401a55-486d-46bd-9633-c6861e5113e5" transform="translate(254.83 102.32)">10</text><text class="d8401a55-486d-46bd-9633-c6861e5113e5" transform="translate(322.07 102.32)">15</text><text class="d8401a55-486d-46bd-9633-c6861e5113e5" transform="translate(388.24 102.32)">20</text><text class="d8401a55-486d-46bd-9633-c6861e5113e5" transform="translate(455.07 102.32)">25</text><text class="d8401a55-486d-46bd-9633-c6861e5113e5" transform="translate(521.57 102.32)">30</text><text class="d8401a55-486d-46bd-9633-c6861e5113e5" transform="translate(76.14 137.4)">Rumanía</text><text class="d8401a55-486d-46bd-9633-c6861e5113e5" transform="translate(84.31 152.15)">Croacia</text><text class="d8401a55-486d-46bd-9633-c6861e5113e5" transform="translate(86.97 167.66)">Estonia</text><text class="d8401a55-486d-46bd-9633-c6861e5113e5" transform="translate(84.21 183.93)">Lituania</text><text class="d8401a55-486d-46bd-9633-c6861e5113e5" transform="translate(92.81 198.16)">Chipre</text><text class="d8401a55-486d-46bd-9633-c6861e5113e5" transform="translate(100.32 214.7)">Malta</text><text class="d8401a55-486d-46bd-9633-c6861e5113e5" transform="translate(86.79 229.46)">Letonia</text><text class="d8401a55-486d-46bd-9633-c6861e5113e5" transform="translate(86.96 244.97)">Polonia</text><text class="d8401a55-486d-46bd-9633-c6861e5113e5" transform="translate(73.21 259.72)">Eslovenia</text><text class="d8401a55-486d-46bd-9633-c6861e5113e5" transform="translate(85.01 274.77)">Hungría</text><text class="d8401a55-486d-46bd-9633-c6861e5113e5" transform="translate(94.2 291.31)">Grecia</text><text class="d8401a55-486d-46bd-9633-c6861e5113e5" transform="translate(105.69 306.06)">Italia</text><text class="4a2b028a-140d-42a8-ba48-d91144318574" transform="translate(84.77 321.84)">España</text><text class="d8401a55-486d-46bd-9633-c6861e5113e5" transform="translate(82.51 337.08)">Portugal</text><text class="d8401a55-486d-46bd-9633-c6861e5113e5" transform="translate(89.18 353.62)">Bélgica</text><text class="d8401a55-486d-46bd-9633-c6861e5113e5" transform="translate(74.85 368.37)">R. Checa</text><text class="d8401a55-486d-46bd-9633-c6861e5113e5" transform="translate(64.99 383.88)">Eslovaquia</text><text class="d8401a55-486d-46bd-9633-c6861e5113e5" transform="translate(92.26 400.15)">Suecia</text><text class="d8401a55-486d-46bd-9633-c6861e5113e5" transform="translate(76.13 415.38)">Finlandia</text><text class="d8401a55-486d-46bd-9633-c6861e5113e5" transform="translate(86.98 431.92)">Francia</text><text class="d8401a55-486d-46bd-9633-c6861e5113e5" transform="translate(73.47 446.68)">Alemania</text><line class="4a2cd264-61fb-4c8b-a0e5-66167dede627" x1="79.5" y1="451.45" x2="137" y2="451.45"/><line class="4a2cd264-61fb-4c8b-a0e5-66167dede627" x1="137" y1="466.59" x2="79.5" y2="466.59"/><text class="d8401a55-486d-46bd-9633-c6861e5113e5" transform="translate(90.89 477.45)">Irlanda</text><text class="d8401a55-486d-46bd-9633-c6861e5113e5" transform="translate(64.23 462.31)">Dinamarca</text><text class="d8401a55-486d-46bd-9633-c6861e5113e5" transform="translate(54.45 492.69)">Reino Unido</text><text class="d8401a55-486d-46bd-9633-c6861e5113e5" transform="translate(49.45 509.23)">Países Bajos</text><text class="d8401a55-486d-46bd-9633-c6861e5113e5" transform="translate(52.61 523.98)">Luxemburgo</text><text class="d8401a55-486d-46bd-9633-c6861e5113e5" transform="translate(90.32 539.49)">Austria</text><polygon class="62cc525e-5d9f-4689-8dfc-0b5ba18a3d04" points="453.76 576.78 560.47 576.78 560.47 593 453.76 593 453.76 576.78 453.76 576.78"/><path class="12dea36e-727e-4a08-a24f-bdae50b19dd1" d="M503.37,583h-4.09v.51l1.07.26v7.54a.89.89,0,0,1-.75.38,1.6,1.6,0,0,1-1.33-1l-1-1.83a2.12,2.12,0,0,0-1.87-1.26v-.13a2.5,2.5,0,0,0,2.58-2.32c0-1.57-1.43-2.18-3.08-2.18h-3.71v.51l1.21.26v7.65h0l-1.39.27-3.48-9.48a4.37,4.37,0,0,1-1.25,1.07l.13.38-3.17,7.77-1,.26v.51h2.9v-.51l-.95-.24,1.07-2.83h2.94l1,2.81-1.11.27v.51h7v-.51l-1.16-.25V587.9a1.74,1.74,0,0,1,1.57,1.16l1.39,2.49a2.26,2.26,0,0,0,2,1.22,2,2,0,0,0,1.32-.55h3.15a4.73,4.73,0,0,0,4.85-4.6,4.61,4.61,0,0,0-4.94-4.6Zm-17.85,4.89,1.24-3.27,1.19,3.27Zm9.11-.69H494V583.8h.78a1.55,1.55,0,0,1,1.61,1.64,1.79,1.79,0,0,1-1.74,1.79Zm8.65,4.24H502v-7.67h1.35c2.09,0,3.37,1.44,3.37,3.83s-1.33,3.83-3.4,3.83Z" transform="translate(36 -2.62)"/><path class="12dea36e-727e-4a08-a24f-bdae50b19dd1" d="M436.26,591.46l-3.4-9.23a4.36,4.36,0,0,1-1.25,1.07l.13.38-3.16,7.77-.68.26-.2.51h2.81v-.51l-.95-.24,1.07-2.83h2.94l1,2.81-1.11.27v.51h3.78v-.51l-1-.25Zm-5.39-3.54,1.25-3.27,1.19,3.27Z" transform="translate(36 -2.62)"/><polygon class="12dea36e-727e-4a08-a24f-bdae50b19dd1" points="464.15 587.27 463.81 587.08 461.83 588.89 460.13 588.89 460.13 581.18 461.15 580.92 461.15 580.4 457.49 580.4 457.49 580.92 458.51 581.18 458.51 588.82 457.49 589.09 457.49 589.6 463.24 589.6 464.15 587.27 464.15 587.27"/><polygon class="12dea36e-727e-4a08-a24f-bdae50b19dd1" points="480.13 580.4 480.13 580.92 481.24 581.18 478.83 587.33 476.3 581.17 477.5 580.92 477.5 580.4 473.41 580.4 473.41 580.92 474.58 581.17 478.21 589.92 478.6 589.92 482.22 581.18 482.25 581.18 483.38 580.92 483.38 580.4 480.13 580.4 480.13 580.4"/><path class="12dea36e-727e-4a08-a24f-bdae50b19dd1" d="M480.39,583v.51l1.1.26s.08,4.56,0,5.71a2.32,2.32,0,0,1-2.37,2.27H479a2.29,2.29,0,0,1-2.48-2.36v-5.61l1.07-.24V583h-3.69v.51l1,.25v5.65a3.39,3.39,0,0,0,3.65,3.22c2,0,3.58-1.16,3.65-3.22l.07-5.64,1.08-.26V583Z" transform="translate(36 -2.62)"/><path class="12dea36e-727e-4a08-a24f-bdae50b19dd1" d="M520.34,591.44,517,582.23a4.36,4.36,0,0,1-1.25,1.07l.13.38-3.16,7.8-.54.22-.73-.23v-7.69l1.13-.26V583h-3.85v.51l1.11.26v7.66l-1.07.25v.51h5.86v-.51l-.95-.25,1.07-2.83h2.94l1,2.81-1.11.27v.51h3.79v-.51l-1-.27ZM515,587.92l1.25-3.27,1.19,3.27Z" transform="translate(36 -2.62)"/><path class="12dea36e-727e-4a08-a24f-bdae50b19dd1" d="M460.64,583v.51l1.13.26.07,6L456.07,583h-2.46v.51l1.11.24.09,0-.08,7.61h0l-1.16.27-3.48-9.48a4.37,4.37,0,0,1-1.21,1.08l.13.38-3.17,7.77-1,.26v.51h2.9v-.51l-.95-.24,1.07-2.83h2.94l1,2.81-1.11.27v.51h6v-.51l-1.16-.26-.13-6.64,6.59,7.74h.44l.09-8.75,1.11-.26V583Zm-12.52,4.89,1.25-3.27,1.19,3.27Z" transform="translate(36 -2.62)"/><path class="12dea36e-727e-4a08-a24f-bdae50b19dd1" d="M470.34,587.52V588l1,.26v3a3.45,3.45,0,0,1-2.08.69c-2.09,0-3.43-1.74-3.43-4.2s1.31-4.38,3.48-4.38a3.28,3.28,0,0,1,3.08,2.51l.3-.17v-2.9l-.27-.15-.58.71a5.8,5.8,0,0,0-2.55-.65,5.15,5.15,0,0,0-5.16,5.07,4.67,4.67,0,0,0,4.44,4.9h.33a4.75,4.75,0,0,0,3-1l.81.54H473v-3.95l.87-.33v-.42Z" transform="translate(36 -2.62)"/><text class="ca5d03c3-2700-4b3c-a4bc-871bb8e516f6" transform="translate(43 589.92) scale(0.99 1)">Fuente: Informe económico de Friederich Schneider</text><text x="36" y="-2.62"></text><text class="ab364c1b-6389-4e3f-8115-08e34dd34520" transform="translate(87.63 24.02)">Peso de la economía sumergida</text><text class="8503dde7-7167-41c3-8a41-8331416d0ef7" transform="translate(89.1 49.61)">Europa del Este</text><text class="8ca16d5e-6b4c-43c5-9b99-77b46432ce16" transform="translate(216.1 49.61)">Europa del Sur</text><text class="7ba2d1d0-2060-41ec-a4e8-46dde9ec049b" transform="translate(340.6 49.21)">Europa del Norte</text><path class="46901dc0-6391-4a23-956c-3a309aec3227" d="M346,99.53v474" transform="translate(36 -2.62)"/></svg>