<svg id="Capa_1" data-name="Capa 1" xmlns="http://www.w3.org/2000/svg" viewBox="0 0 814 251.42"><defs><style>.cls-1{font-size:12px;}.cls-1,.cls-4{fill:#323232;}.cls-1,.cls-10,.cls-11{font-family:ArialMT, Arial;}.cls-2{fill:#002f64;}.cls-11,.cls-3{fill:#fff;}.cls-4,.cls-8{font-size:13px;font-family:Arial-BoldMT, Arial;font-weight:700;}.cls-16,.cls-17,.cls-5{opacity:0.63;}.cls-16,.cls-6{fill:#eac5d9;}.cls-7{fill:#5e1030;}.cls-10,.cls-18,.cls-8{fill:#757575;}.cls-9{letter-spacing:-0.06em;}.cls-10,.cls-11{font-size:14px;}.cls-12,.cls-17{fill:#d37da4;}.cls-13{fill:#9e3b63;}.cls-14{letter-spacing:-0.07em;}.cls-15{fill:none;stroke:#757575;stroke-width:0.5px;}.cls-15,.cls-16,.cls-17{stroke-miterlimit:10;}.cls-16,.cls-17{stroke:#fff;}.cls-18{font-size:9px;font-family:OpenSans, Open Sans;}</style></defs><title>evolucion_casos_sida</title><text class="cls-1" transform="translate(2 65.46)">1 a 9</text><text class="cls-1" transform="translate(1 92.46)">10 a 19</text><text class="cls-1" transform="translate(2 148.46)">30 a 39</text><text class="cls-1" transform="translate(2 177.46)">40 a 49</text><text class="cls-1" transform="translate(2 119.46)">20 a 29</text><polygon class="cls-2" points="719.74 237.87 809 237.87 809 251.43 719.74 251.43 719.74 237.87 719.74 237.87"/><path class="cls-3" d="M796.35,245h-3.42v.43l.9.21V252a.75.75,0,0,1-.63.32,1.34,1.34,0,0,1-1.11-.81l-.86-1.53a1.77,1.77,0,0,0-1.56-1.05v-.11a2.09,2.09,0,0,0,2.16-1.95c0-1.31-1.19-1.82-2.57-1.82h-3.11v.43l1,.21v6.4h0l-1.17.22-2.91-7.93a3.65,3.65,0,0,1-1,.9l.11.32-2.65,6.5-.8.22v.43h2.41v-.43l-.79-.21.9-2.37h2.46l.86,2.35-.93.22v.43h5.89v-.43l-1-.21v-3a1.45,1.45,0,0,1,1.31,1l1.17,2.08a1.89,1.89,0,0,0,1.69,1,1.67,1.67,0,0,0,1.11-.46h2.64a4,4,0,0,0,4.06-3.85,3.86,3.86,0,0,0-4.13-3.85Zm-14.93,4.09,1-2.73,1,2.73Zm7.62-.58h-.52v-2.87h.66a1.29,1.29,0,0,1,1.35,1.37,1.49,1.49,0,0,1-1.48,1.5Zm7.24,3.54h-1.1v-6.41h1.13c1.75,0,2.82,1.21,2.82,3.21s-1.12,3.21-2.85,3.21Z" transform="translate(-5 -4.13)"/><path class="cls-3" d="M740.21,252.08l-2.84-7.72a3.65,3.65,0,0,1-1,.9l.11.32-2.65,6.5-.57.22-.17.43h2.35v-.43l-.79-.21.9-2.37H738l.86,2.35-.93.22v.43h3.16v-.43l-.84-.21Zm-4.51-3,1-2.73,1,2.73Z" transform="translate(-5 -4.13)"/><polygon class="cls-3" points="728.44 246.63 728.15 246.47 726.49 247.99 725.07 247.99 725.07 241.54 725.92 241.32 725.92 240.89 722.86 240.89 722.86 241.32 723.72 241.54 723.72 247.94 722.86 248.16 722.86 248.58 727.68 248.58 728.44 246.63 728.44 246.63"/><polygon class="cls-3" points="741.8 240.89 741.8 241.32 742.73 241.54 740.72 246.69 738.6 241.53 739.6 241.32 739.6 240.89 736.18 240.89 736.18 241.32 737.16 241.53 740.2 248.85 740.52 248.85 743.55 241.55 743.58 241.55 744.52 241.32 744.52 240.89 741.8 240.89 741.8 240.89"/><path class="cls-3" d="M777.13,245v.43l.92.22s.07,3.81,0,4.78a1.94,1.94,0,0,1-2.07,1.88,1.91,1.91,0,0,1-2.07-2v-4.69l.89-.2V245h-3.09v.43l.88.21v4.73a2.84,2.84,0,0,0,3.06,2.69,2.79,2.79,0,0,0,3.06-2.69l.06-4.72.9-.22V245Z" transform="translate(-5 -4.13)"/><path class="cls-3" d="M810.55,252.07l-2.83-7.71a3.65,3.65,0,0,1-1,.9l.11.32-2.66,6.53-.45.18-.61-.19v-6.43l.94-.21V245h-3.22v.43l.93.22v6.4l-.89.21v.43h4.92v-.43l-.79-.21.9-2.37h2.46l.86,2.35-.93.22v.43h3.16v-.43l-.85-.22Zm-4.5-2.95,1-2.73,1,2.73Z" transform="translate(-5 -4.13)"/><path class="cls-3" d="M760.61,245v.43l.94.22.06,5L756.78,245h-2.06v.43l.93.21.08,0-.07,6.36h0l-.95.22-2.91-7.93a3.65,3.65,0,0,1-1,.9l.11.32-2.65,6.5-.8.22v.43h2.41v-.43l-.79-.21.9-2.37h2.46l.86,2.35-.93.22v.43h5.06v-.43l-1-.22-.06-5.56,5.51,6.48h.36l.07-7.32.93-.21V245Zm-10.47,4.09,1-2.73,1,2.73Z" transform="translate(-5 -4.13)"/><path class="cls-3" d="M768.7,248.79v.43l.87.22v2.48a2.88,2.88,0,0,1-1.74.58c-1.75,0-2.87-1.47-2.87-3.51s1.1-3.67,2.89-3.67a2.74,2.74,0,0,1,2.57,2.09l.25-.15v-2.43l-.22-.12-.47.59a4.86,4.86,0,0,0-2.13-.54,4.31,4.31,0,0,0-4.32,4.24,3.91,3.91,0,0,0,4,4.1,4,4,0,0,0,2.48-.83l.68.45h.22v-3.3l.73-.28v-.35Z" transform="translate(-5 -4.13)"/><text class="cls-4" transform="translate(0 11.15)">Evolución de los casos de sida en España por edad y año de diagnóstico</text><text class="cls-1" transform="translate(2 205.46)">50 y más </text><g class="cls-5"><rect class="cls-6" x="58.5" y="45.37" width="73" height="27.97"/><path class="cls-3" d="M136,50V77H64V50h72m1-1H63V78h74V49Z" transform="translate(-5 -4.13)"/></g><g class="cls-5"><rect class="cls-6" x="58.5" y="73.68" width="73" height="27.97"/><path class="cls-3" d="M136,78.32v27H64v-27h72m1-1H63v29h74v-29Z" transform="translate(-5 -4.13)"/></g><g class="cls-5"><rect class="cls-7" x="58.5" y="129.83" width="73" height="27.97"/><path class="cls-3" d="M136,134.46v27H64v-27h72m1-1H63v29h74v-29Z" transform="translate(-5 -4.13)"/></g><g class="cls-5"><rect class="cls-7" x="58.5" y="158.15" width="73" height="27.97"/><path class="cls-3" d="M136,162.78v27H64v-27h72m1-1H63v29h74v-29Z" transform="translate(-5 -4.13)"/></g><text class="cls-8" transform="translate(80.54 40.17)">2007</text><text class="cls-8" transform="translate(155.54 40.17)">2008</text><text class="cls-8" transform="translate(232.54 40.17)">2009</text><text class="cls-8" transform="translate(306.54 40.17)">2010</text><text class="cls-8" transform="translate(382.9 40.17)">20<tspan class="cls-9" x="14.46" y="0">1</tspan><tspan x="20.97" y="0">1</tspan></text><text class="cls-8" transform="translate(450.54 40.17)">2012</text><text class="cls-10" transform="translate(90 63.89)">6</text><text class="cls-10" transform="translate(89 91.89)">7</text><text class="cls-11" transform="translate(82 148.89)">617</text><text class="cls-11" transform="translate(82 177.89)">618</text><g class="cls-5"><rect class="cls-12" x="58.5" y="101.83" width="73" height="27.97"/><path class="cls-3" d="M136,106.46v27H64v-27h72m1-1H63v29h74v-29Z" transform="translate(-5 -4.13)"/></g><text class="cls-11" transform="translate(81 119.89)">160</text><g class="cls-5"><rect class="cls-6" x="210.5" y="45.37" width="73" height="27.97"/><path class="cls-3" d="M288,50V77H216V50h72m1-1H215V78h74V49Z" transform="translate(-5 -4.13)"/></g><g class="cls-5"><rect class="cls-6" x="210.5" y="73.68" width="73" height="27.97"/><path class="cls-3" d="M288,78.32v27H216v-27h72m1-1H215v29h74v-29Z" transform="translate(-5 -4.13)"/></g><g class="cls-5"><rect class="cls-7" x="210.5" y="129.83" width="73" height="27.97"/><path class="cls-3" d="M288,134.46v27H216v-27h72m1-1H215v29h74v-29Z" transform="translate(-5 -4.13)"/></g><g class="cls-5"><rect class="cls-7" x="210.5" y="158.15" width="73" height="27.97"/><path class="cls-3" d="M288,162.78v27H216v-27h72m1-1H215v29h74v-29Z" transform="translate(-5 -4.13)"/></g><text class="cls-10" transform="translate(242.53 63.89)">5</text><text class="cls-10" transform="translate(241 91.89)">1</text><text class="cls-11" transform="translate(236 148.89)">497</text><text class="cls-11" transform="translate(235 177.89)">542</text><g class="cls-5"><rect class="cls-6" x="132.5" y="45.37" width="76" height="27.97"/><path class="cls-3" d="M213,50V77H138V50h75m1-1H137V78h77V49Z" transform="translate(-5 -4.13)"/></g><g class="cls-5"><rect class="cls-6" x="132.5" y="73.68" width="76" height="27.97"/><path class="cls-3" d="M213,78.32v27H138v-27h75m1-1H137v29h77v-29Z" transform="translate(-5 -4.13)"/></g><g class="cls-5"><rect class="cls-7" x="132.5" y="129.83" width="76" height="27.97"/><path class="cls-3" d="M213,134.46v27H138v-27h75m1-1H137v29h77v-29Z" transform="translate(-5 -4.13)"/></g><g class="cls-5"><rect class="cls-7" x="132.5" y="158.15" width="76" height="27.97"/><path class="cls-3" d="M213,162.78v27H138v-27h75m1-1H137v29h77v-29Z" transform="translate(-5 -4.13)"/></g><text class="cls-10" transform="translate(166.93 62.89)">3</text><text class="cls-10" transform="translate(164.93 91.89)">12</text><text class="cls-11" transform="translate(158.93 148.89)">529</text><text class="cls-11" transform="translate(157.94 177.89)">604</text><g class="cls-5"><rect class="cls-12" x="210.5" y="101.83" width="73" height="27.97"/><path class="cls-3" d="M288,106.46v27H216v-27h72m1-1H215v29h74v-29Z" transform="translate(-5 -4.13)"/></g><text class="cls-10" transform="translate(236 119.89)">141</text><g class="cls-5"><rect class="cls-12" x="132.5" y="101.83" width="76" height="27.97"/><path class="cls-3" d="M213,106.46v27H138v-27h75m1-1H137v29h77v-29Z" transform="translate(-5 -4.13)"/></g><text class="cls-10" transform="translate(160 121.89)">137</text><g class="cls-5"><rect class="cls-6" x="284.5" y="45.37" width="73" height="27.97"/><path class="cls-3" d="M362,50V77H290V50h72m1-1H289V78h74V49Z" transform="translate(-5 -4.13)"/></g><g class="cls-5"><rect class="cls-6" x="284.5" y="73.68" width="73" height="27.97"/><path class="cls-3" d="M362,78.32v27H290v-27h72m1-1H289v29h74v-29Z" transform="translate(-5 -4.13)"/></g><g class="cls-5"><rect class="cls-13" x="284.5" y="129.83" width="73" height="27.97"/><path class="cls-3" d="M362,134.46v27H290v-27h72m1-1H289v29h74v-29Z" transform="translate(-5 -4.13)"/></g><g class="cls-5"><rect class="cls-7" x="284.5" y="158.15" width="73" height="27.97"/><path class="cls-3" d="M362,162.78v27H290v-27h72m1-1H289v29h74v-29Z" transform="translate(-5 -4.13)"/></g><text class="cls-10" transform="translate(316 63.89)">2</text><text class="cls-10" transform="translate(316 91.89)">1</text><text class="cls-11" transform="translate(311 147.89)">381</text><text class="cls-11" transform="translate(311 177.89)">495</text><g class="cls-5"><rect class="cls-12" x="284.5" y="101.83" width="73" height="27.97"/><path class="cls-3" d="M362,106.46v27H290v-27h72m1-1H289v29h74v-29Z" transform="translate(-5 -4.13)"/></g><text class="cls-10" transform="translate(311 120.89)">137</text><g class="cls-5"><rect class="cls-6" x="436.5" y="45.37" width="73" height="27.97"/><path class="cls-3" d="M514,50V77H442V50h72m1-1H441V78h74V49Z" transform="translate(-5 -4.13)"/></g><g class="cls-5"><rect class="cls-6" x="436.5" y="73.68" width="73" height="27.97"/><path class="cls-3" d="M514,78.32v27H442v-27h72m1-1H441v29h74v-29Z" transform="translate(-5 -4.13)"/></g><g class="cls-5"><rect class="cls-13" x="436.5" y="129.83" width="73" height="27.97"/><path class="cls-3" d="M514,134.46v27H442v-27h72m1-1H441v29h74v-29Z" transform="translate(-5 -4.13)"/></g><g class="cls-5"><rect class="cls-12" x="436.5" y="158.15" width="73" height="27.97"/><path class="cls-3" d="M514,162.78v27H442v-27h72m1-1H441v29h74v-29Z" transform="translate(-5 -4.13)"/></g><text class="cls-10" transform="translate(466 63.89)">2</text><text class="cls-10" transform="translate(466 91.89)">9</text><text class="cls-11" transform="translate(460 147.89)">321</text><text class="cls-11" transform="translate(461 177.89)">230</text><g class="cls-5"><rect class="cls-6" x="358.5" y="45.37" width="76" height="27.97"/><path class="cls-3" d="M439,50V77H364V50h75m1-1H363V78h77V49Z" transform="translate(-5 -4.13)"/></g><g class="cls-5"><rect class="cls-6" x="358.5" y="73.68" width="76" height="27.97"/><path class="cls-3" d="M439,78.32v27H364v-27h75m1-1H363v29h77v-29Z" transform="translate(-5 -4.13)"/></g><g class="cls-5"><rect class="cls-13" x="358.5" y="129.83" width="76" height="27.97"/><path class="cls-3" d="M439,134.46v27H364v-27h75m1-1H363v29h77v-29Z" transform="translate(-5 -4.13)"/></g><g class="cls-5"><rect class="cls-7" x="358.5" y="158.15" width="76" height="27.97"/><path class="cls-3" d="M439,162.78v27H364v-27h75m1-1H363v29h77v-29Z" transform="translate(-5 -4.13)"/></g><text class="cls-10" transform="translate(392 63.89)">0</text><text class="cls-10" transform="translate(392 91.89)">2</text><text class="cls-11" transform="translate(386 147.89)">348</text><text class="cls-11" transform="translate(385 176.89)">467</text><g class="cls-5"><rect class="cls-6" x="436.5" y="101.83" width="73" height="27.97"/><path class="cls-3" d="M514,106.46v27H442v-27h72m1-1H441v29h74v-29Z" transform="translate(-5 -4.13)"/></g><text class="cls-10" transform="translate(463 119.89)">88</text><g class="cls-5"><rect class="cls-6" x="358.5" y="101.83" width="76" height="27.97"/><path class="cls-3" d="M439,106.46v27H364v-27h75m1-1H363v29h77v-29Z" transform="translate(-5 -4.13)"/></g><text class="cls-10" transform="translate(385 120.89)"><tspan class="cls-14">1</tspan><tspan x="6.75" y="0">14</tspan></text><polyline class="cls-15" points="809 44.37 497.33 44.37 58.5 44.37"/><g class="cls-5"><rect class="cls-6" x="511.5" y="45.23" width="73" height="27.97"/><path class="cls-3" d="M589,49.87v27H517v-27h72m1-1H516v29h74v-29Z" transform="translate(-5 -4.13)"/></g><g class="cls-5"><rect class="cls-6" x="511.5" y="73.23" width="73" height="27.97"/><path class="cls-3" d="M589,77.87v27H517v-27h72m1-1H516v29h74v-29Z" transform="translate(-5 -4.13)"/></g><g class="cls-5"><rect class="cls-6" x="511.5" y="101.32" width="73" height="27.97"/><path class="cls-3" d="M589,106v27H517V106h72m1-1H516v29h74V105Z" transform="translate(-5 -4.13)"/></g><g class="cls-5"><rect class="cls-12" x="511.5" y="129.37" width="73" height="27.97"/><path class="cls-3" d="M589,134v27H517V134h72m1-1H516v29h74V133Z" transform="translate(-5 -4.13)"/></g><g class="cls-5"><rect class="cls-12" x="511.5" y="157.24" width="73" height="27.97"/><path class="cls-3" d="M589,161.87v27H517v-27h72m1-1H516v29h74v-29Z" transform="translate(-5 -4.13)"/></g><polyline class="cls-16" points="587 72.73 661 72.73 661 101.71 587 101.71"/><polyline class="cls-16" points="587 100.82 661 100.82 661 129.79 587 129.79"/><polyline class="cls-17" points="587 128.87 661 128.87 661 157.84 587 157.84"/><polyline class="cls-17" points="587 156.74 661 156.74 661 185.71 587 185.71"/><polyline class="cls-16" points="587 44.87 661 44.87 661 73.71 587 73.71"/><g class="cls-5"><rect class="cls-6" x="662.5" y="45.23" width="73" height="27.97"/><path class="cls-3" d="M740,49.87v27H668v-27h72m1-1H667v29h74v-29Z" transform="translate(-5 -4.13)"/></g><g class="cls-5"><rect class="cls-6" x="662.5" y="74.23" width="73" height="27.97"/><path class="cls-3" d="M740,78.87v27H668v-27h72m1-1H667v29h74v-29Z" transform="translate(-5 -4.13)"/></g><g class="cls-5"><rect class="cls-6" x="662.5" y="101.32" width="73" height="27.97"/><path class="cls-3" d="M740,106v27H668V106h72m1-1H667v29h74V105Z" transform="translate(-5 -4.13)"/></g><g class="cls-5"><rect class="cls-6" x="662.5" y="129.37" width="73" height="27.97"/><path class="cls-3" d="M740,134v27H668V134h72m1-1H667v29h74V133Z" transform="translate(-5 -4.13)"/></g><g class="cls-5"><rect class="cls-12" x="662.5" y="157.24" width="73" height="27.97"/><path class="cls-3" d="M740,161.87v27H668v-27h72m1-1H667v29h74v-29Z" transform="translate(-5 -4.13)"/></g><g class="cls-5"><rect class="cls-6" x="736.5" y="45.23" width="73" height="27.97"/><path class="cls-3" d="M814,49.87v27H742v-27h72m1-1H741v29h74v-29Z" transform="translate(-5 -4.13)"/></g><g class="cls-5"><rect class="cls-6" x="736.5" y="73.23" width="73" height="27.97"/><path class="cls-3" d="M814,77.87v27H742v-27h72m1-1H741v29h74v-29Z" transform="translate(-5 -4.13)"/></g><g class="cls-5"><rect class="cls-6" x="736.5" y="101.32" width="73" height="27.97"/><path class="cls-3" d="M814,106v27H742V106h72m1-1H741v29h74V105Z" transform="translate(-5 -4.13)"/></g><g class="cls-5"><rect class="cls-6" x="736.5" y="129.37" width="73" height="27.97"/><path class="cls-3" d="M814,134v27H742V134h72m1-1H741v29h74V133Z" transform="translate(-5 -4.13)"/></g><g class="cls-5"><rect class="cls-6" x="736.5" y="157.24" width="73" height="27.97"/><path class="cls-3" d="M814,161.87v27H742v-27h72m1-1H741v29h74v-29Z" transform="translate(-5 -4.13)"/></g><g class="cls-5"><rect class="cls-12" x="58.5" y="186.23" width="73" height="27.97"/><path class="cls-3" d="M136,190.87v27H64v-27h72m1-1H63v29h74v-29Z" transform="translate(-5 -4.13)"/></g><g class="cls-5"><rect class="cls-12" x="132.5" y="186.23" width="76" height="27.97"/><path class="cls-3" d="M213,190.87v27H138v-27h75m1-1H137v29h77v-29Z" transform="translate(-5 -4.13)"/></g><g class="cls-5"><rect class="cls-12" x="210.5" y="186.23" width="73" height="27.97"/><path class="cls-3" d="M288,190.87v27H216v-27h72m1-1H215v29h74v-29Z" transform="translate(-5 -4.13)"/></g><g class="cls-5"><rect class="cls-12" x="284.5" y="186.23" width="73" height="27.97"/><path class="cls-3" d="M362,190.87v27H290v-27h72m1-1H289v29h74v-29Z" transform="translate(-5 -4.13)"/></g><g class="cls-5"><rect class="cls-12" x="358.5" y="186.23" width="76" height="27.97"/><path class="cls-3" d="M439,190.87v27H364v-27h75m1-1H363v29h77v-29Z" transform="translate(-5 -4.13)"/></g><g class="cls-5"><rect class="cls-12" x="436.5" y="186.23" width="73" height="27.97"/><path class="cls-3" d="M514,190.87v27H442v-27h72m1-1H441v29h74v-29Z" transform="translate(-5 -4.13)"/></g><g class="cls-5"><rect class="cls-12" x="511.5" y="186.19" width="73" height="27.97"/><path class="cls-3" d="M589,190.82v27H517v-27h72m1-1H516v29h74v-29Z" transform="translate(-5 -4.13)"/></g><g class="cls-5"><rect class="cls-12" x="586.5" y="186.17" width="74" height="27.97"/><path class="cls-3" d="M665,190.81v27H592v-27h73m1-1H591v29h75v-29Z" transform="translate(-5 -4.13)"/></g><g class="cls-5"><rect class="cls-6" x="662.5" y="186.17" width="73" height="27.97"/><path class="cls-3" d="M740,190.81v27H668v-27h72m1-1H667v29h74v-29Z" transform="translate(-5 -4.13)"/></g><g class="cls-5"><rect class="cls-6" x="736.5" y="186.18" width="73" height="27.97"/><path class="cls-3" d="M814,190.81v27H742v-27h72m1-1H741v29h74v-29Z" transform="translate(-5 -4.13)"/></g><text class="cls-8" transform="translate(532.54 40.17)">2013</text><text class="cls-8" transform="translate(606.54 40.17)">2014</text><text class="cls-8" transform="translate(684.54 40.17)">2015</text><text class="cls-8" transform="translate(758.54 40.17)">2016</text><text class="cls-11" transform="translate(82 204.89)">237</text><text class="cls-11" transform="translate(158 204.89)">264</text><text class="cls-11" transform="translate(232 204.89)">238</text><text class="cls-11" transform="translate(310 204.89)">257</text><text class="cls-10" transform="translate(544 61.89)">2</text><text class="cls-10" transform="translate(544 89.89)">2</text><text class="cls-10" transform="translate(541 120.89)">73</text><text class="cls-11" transform="translate(387 204.89)">198</text><text class="cls-11" transform="translate(461 203.89)">224</text><text class="cls-11" transform="translate(535 147.89)">230</text><text class="cls-11" transform="translate(536 176.89)">288</text><text class="cls-11" transform="translate(536 203.89)">223</text><text class="cls-10" transform="translate(619 63.89)">0</text><text class="cls-10" transform="translate(618 88.89)">2</text><text class="cls-10" transform="translate(615 117.89)">59</text><text class="cls-11" transform="translate(612 145.89)">180</text><text class="cls-11" transform="translate(614 174.89)">225</text><text class="cls-11" transform="translate(613 203.89)">164</text><text class="cls-10" transform="translate(695 62.89)">0</text><text class="cls-10" transform="translate(695 89.89)">0</text><text class="cls-10" transform="translate(692 119.89)">40</text><text class="cls-10" transform="translate(687 146.89)">141</text><text class="cls-11" transform="translate(687 175.89)">175</text><text class="cls-10" transform="translate(688 203.89)">141</text><text class="cls-10" transform="translate(766 63.89)">0</text><text class="cls-10" transform="translate(766 90.89)">0</text><text class="cls-10" transform="translate(766 119.89)">0</text><text class="cls-10" transform="translate(763 147.89)">22</text><text class="cls-10" transform="translate(763 174.89)">26</text><text class="cls-10" transform="translate(763 202.89)">25</text><text class="cls-18" transform="translate(1 237.71)">Fuente: Ministerio de Sanidad, Servicios Sociales y Empleo</text><text class="cls-18" transform="translate(1 248.71)">Los datos de 2016 solo son de enero a junio. </text></svg>