<svg id="Capa_1" data-name="Capa 1" xmlns="http://www.w3.org/2000/svg" viewBox="0 0 637.45 569.73"><defs><style>.cls-1{fill:#69bfbf;}.cls-2{fill:#f49e20;}.cls-3{fill:#3f4d78;}.cls-4{fill:#a01f51;}.cls-5{fill:#91c43e;}.cls-6{fill:none;stroke:#ccc;}.cls-11,.cls-13,.cls-14,.cls-16,.cls-7,.cls-8,.cls-9{isolation:isolate;}.cls-16,.cls-7,.cls-8{font-size:15px;}.cls-11,.cls-14,.cls-7,.cls-8,.cls-9{fill:#757575;}.cls-15,.cls-16,.cls-7{font-family:Arial-BoldMT, Arial;font-weight:700;}.cls-11,.cls-13,.cls-14,.cls-8,.cls-9{font-family:ArialMT, Arial;}.cls-9{font-size:16px;}.cls-10{letter-spacing:-0.04em;}.cls-11{font-size:13px;}.cls-12{letter-spacing:-0.07em;}.cls-13{font-size:19px;}.cls-13,.cls-15,.cls-16{fill:#323232;}.cls-14{font-size:12px;}.cls-15{font-size:27px;}.cls-17{letter-spacing:-0.06em;}.cls-18{fill:#283659;}.cls-19{fill:#fff;}</style></defs><title>export2</title><path class="cls-1" d="M38.51,255.63l34-28.94,31.84,21.8,34,1.33L171.29,203l34,40.43,32.93-6,34,8.27,34,9.47,32.93-8.94,34.08,9.22,32.93-.16,34-1,34-17.16,30.74,6,34-3.39L572,237.45l34-6.61,32.93,16v12.31H38.51Z" transform="translate(-2 -11.04)"/><path class="cls-2" d="M38.51,315.14l34-.43L104.38,318l34-16.14,32.93-2.2,34,11.32,32.93-16.76,34,17.81,34-4.89,32.93,11.37,34.08-3.5,32.93-50.85,34,46,34,1.22,30.74-.7,34-8L572,307.78l34,3.51,32.93,1.29v10.75H38.51Z" transform="translate(-2 -11.04)"/><path class="cls-3" d="M38.51,376.3l34-26L104.38,380l34,.4,32.93-2,34,2.27,32.93-21.55,34,16.51,34,4.78,32.93-34.06,34.08,34.22L406.26,373l34,9.12,34-2.7,30.74-1.35,34,3.87L572,381l34-4,32.93,3.07v7.4H38.51Z" transform="translate(-2 -11.04)"/><path class="cls-4" d="M38.51,447.34l34,3.91,31.84-12.42,34,2.22,32.93,5.71,34,2.38,32.93,1.94,34-11.88,34,7,32.93.56,34.08,4.72,32.93-1.39,34-3.57,34-10.25,30.74,1.52,34,.87,32.93,11,34-1.8,32.93,2.54v1.26H38.51Z" transform="translate(-2 -11.04)"/><path class="cls-5" d="M38.51,513.21l34,.35,31.84-1.08,34-4.78L171.29,512l34-1.32,32.93-3.39,34,4.41,34,1.78,32.93,2,34.08-.84,32.93.79,34-5.53,34,.07,30.74-9.13,34,11.9L572,509.48l34,5,32.93-2.58v3.91H38.51Z" transform="translate(-2 -11.04)"/><line class="cls-6" x1="36.26" y1="505.83" x2="36.26" y2="166.83"/><line class="cls-6" x1="636.95" y1="506.85" x2="636.95" y2="165.85"/><line class="cls-6" x1="435.79" y1="504.85" x2="435.79" y2="126.39"/><line class="cls-6" x1="363.26" y1="504.85" x2="363.26" y2="165.85"/><text class="cls-7" transform="translate(20.14 532.93)">2016</text><text class="cls-7" transform="translate(417.14 532.93)">2017</text><text class="cls-8" transform="translate(308 532.83)">Octubre</text><text class="cls-8" transform="translate(217 532.83)">Julio</text><text class="cls-9" transform="translate(279.32 123.51)"><tspan class="cls-10">T</tspan><tspan x="9.18" y="0">rump anuncia el veto</tspan></text><text class="cls-9" transform="translate(459 162.25)">Entrada en vigor del veto</text><text class="cls-9" transform="translate(173 161.83)"><tspan class="cls-10">T</tspan><tspan x="9.18" y="0">rump gana las elecciones</tspan></text><text class="cls-8" transform="translate(605 532.93)">Julio</text><text class="cls-8" transform="translate(117 532.83)">Abril</text><text class="cls-8" transform="translate(2 564.86)">Fuente: United States Census Bureau</text><text class="cls-11" transform="translate(0 185.83)"><tspan class="cls-12">1</tspan><tspan x="6.27" y="0">10M</tspan></text><text class="cls-13" transform="translate(2.26 82.73)">Evolución desde enero de 2016 hasta julio de 2017 del valor en dólares</text><text class="cls-11" transform="translate(0 270.83)"><tspan class="cls-12">1</tspan><tspan x="6.27" y="0">10M</tspan></text><text class="cls-14" transform="translate(17 254.66)">0</text><text class="cls-11" transform="translate(17 335.5)">0</text><text class="cls-11" transform="translate(0 351.66)"><tspan class="cls-12">1</tspan><tspan x="6.27" y="0">10M</tspan></text><text class="cls-11" transform="translate(0 432.33)"><tspan class="cls-12">1</tspan><tspan x="6.27" y="0">10M</tspan></text><text class="cls-11" transform="translate(17 416.33)">0</text><text class="cls-11" transform="translate(16.99 497.33)">0</text><text class="cls-8" transform="translate(517 532.93)">Abril</text><line class="cls-6" x1="110.59" y1="504.46" x2="110.59" y2="513.46"/><line class="cls-6" x1="61.2" y1="504.96" x2="61.2" y2="513.96"/><line class="cls-6" x1="85.9" y1="504.96" x2="85.9" y2="513.96"/><line class="cls-6" x1="36.51" y1="504.96" x2="36.51" y2="513.96"/><line class="cls-6" x1="210.42" y1="504.46" x2="210.42" y2="513.46"/><line class="cls-6" x1="260.88" y1="504.96" x2="260.88" y2="513.96"/><line class="cls-6" x1="235.65" y1="504.96" x2="235.65" y2="513.96"/><line class="cls-6" x1="286.11" y1="504.96" x2="286.11" y2="513.96"/><line class="cls-6" x1="160.51" y1="504.21" x2="160.51" y2="513.21"/><line class="cls-6" x1="135.55" y1="504.21" x2="135.55" y2="513.21"/><line class="cls-6" x1="185.46" y1="504.96" x2="185.46" y2="513.96"/><line class="cls-6" x1="311.34" y1="503.96" x2="311.34" y2="513.46"/><line class="cls-6" x1="335.96" y1="504.46" x2="335.96" y2="513.46"/><line class="cls-6" x1="311.27" y1="505.96" x2="311.27" y2="514.96"/><line class="cls-6" x1="435.79" y1="504.46" x2="435.79" y2="513.46"/><line class="cls-6" x1="486.25" y1="504.96" x2="486.25" y2="513.96"/><line class="cls-6" x1="461.02" y1="504.96" x2="461.02" y2="513.96"/><line class="cls-6" x1="511.48" y1="504.96" x2="511.48" y2="513.96"/><line class="cls-6" x1="385.88" y1="504.21" x2="385.88" y2="513.21"/><line class="cls-6" x1="360.92" y1="505.21" x2="360.92" y2="514.21"/><line class="cls-6" x1="410.83" y1="504.96" x2="410.83" y2="513.96"/><line class="cls-6" x1="536.71" y1="504.96" x2="536.71" y2="514.46"/><line class="cls-6" x1="536.71" y1="505.21" x2="536.71" y2="514.21"/><line class="cls-6" x1="561.94" y1="505.21" x2="561.94" y2="514.21"/><line class="cls-6" x1="587.17" y1="505.21" x2="587.17" y2="514.71"/><line class="cls-6" x1="587.17" y1="505.59" x2="587.17" y2="515.09"/><line class="cls-6" x1="587.17" y1="505.84" x2="587.17" y2="514.84"/><line class="cls-6" x1="612.4" y1="504.84" x2="612.4" y2="513.84"/><line class="cls-6" x1="636.63" y1="504.84" x2="636.63" y2="514.34"/><text class="cls-15" transform="translate(3.97 23.16)">Exportaciones de Estados Unidos a los países <tspan x="0" y="32.4">con los que mantiene el veto migratorio</tspan></text><text class="cls-16" transform="translate(584.76 245.3)"><tspan class="cls-17">Y</tspan><tspan x="9.18" y="0">emen</tspan></text><text class="cls-16" transform="translate(597.17 295.3)">Libia</text><text class="cls-16" transform="translate(605.17 360.25)">Irán</text><text class="cls-16" transform="translate(587.17 429.75)">Sudán</text><text class="cls-16" transform="translate(576.17 494.75)">Somalia</text><line class="cls-6" x1="362.73" y1="165.85" x2="171" y2="165.85"/><line class="cls-6" x1="435.73" y1="126.39" x2="281.26" y2="126.39"/><line class="cls-6" x1="636.44" y1="165.85" x2="459" y2="165.85"/><polygon class="cls-18" points="508.44 547.51 636.43 547.51 636.43 566.96 508.44 566.96 508.44 547.51 508.44 547.51"/><path class="cls-19" d="M613.12,562.9h-4.9v.61l1.29.31v9a1.07,1.07,0,0,1-.9.46,1.92,1.92,0,0,1-1.59-1.17L605.78,570a2.54,2.54,0,0,0-2.24-1.51v-.15a3,3,0,0,0,3.1-2.78c0-1.89-1.71-2.62-3.69-2.62h-4.45v.61l1.45.31V573h0l-1.67.32-4.17-11.37a5.24,5.24,0,0,1-1.5,1.29l.16.46L589,573l-1.15.31v.61h3.48v-.61l-1.13-.29,1.29-3.39H595L596.2,573l-1.33.32v.61h8.45v-.61l-1.39-.3v-4.27a2.09,2.09,0,0,1,1.88,1.39l1.67,3a2.71,2.71,0,0,0,2.42,1.47,2.39,2.39,0,0,0,1.59-.65h3.78a5.68,5.68,0,0,0,5.82-5.52c0-3.21-2.49-5.52-5.93-5.52Zm-21.41,5.86,1.49-3.92,1.43,3.92Zm10.92-.83h-.75v-4.11h.94a1.86,1.86,0,0,1,1.93,2,2.14,2.14,0,0,1-2.09,2.15ZM613,573h-1.57v-9.2H613c2.5,0,4,1.73,4,4.6s-1.6,4.6-4.08,4.6Z" transform="translate(-2 -11.04)"/><path class="cls-19" d="M532.62,573l-4.08-11.08a5.23,5.23,0,0,1-1.5,1.29l.16.46L523.42,573l-.81.31-.24.61h3.37v-.61l-1.13-.29,1.29-3.39h3.53l1.24,3.37-1.33.32v.61h4.54v-.61l-1.21-.3Zm-6.47-4.25,1.5-3.92,1.43,3.92Z" transform="translate(-2 -11.04)"/><polygon class="cls-19" points="520.9 560.09 520.49 559.86 518.11 562.03 516.07 562.03 516.07 552.78 517.3 552.47 517.3 551.85 512.91 551.85 512.91 552.47 514.14 552.78 514.14 561.95 512.91 562.27 512.91 562.89 519.81 562.89 520.9 560.09 520.9 560.09"/><polygon class="cls-19" points="540.07 551.85 540.07 552.47 541.4 552.78 538.51 560.17 535.48 552.77 536.91 552.47 536.91 551.85 532 551.85 532 552.47 533.41 552.78 537.77 563.27 538.23 563.27 542.57 552.79 542.61 552.79 543.96 552.47 543.96 551.85 540.07 551.85 540.07 551.85"/><path class="cls-19" d="M585.56,562.9v.61l1.32.31s.1,5.47,0,6.85a2.78,2.78,0,0,1-2.84,2.72h-.14a2.74,2.74,0,0,1-3-2.83v-6.73l1.28-.29v-.61h-4.43v.61l1.26.3v6.78a4.07,4.07,0,0,0,4.38,3.86c2.42,0,4.3-1.39,4.38-3.86l.08-6.77,1.29-.31v-.61Z" transform="translate(-2 -11.04)"/><path class="cls-19" d="M633.48,573l-4.06-11a5.23,5.23,0,0,1-1.5,1.29l.16.46L624.29,573l-.65.26-.88-.28v-9.22l1.35-.31v-.61H619.5v.61l1.34.31V573l-1.28.3v.61h7v-.61l-1.13-.3,1.29-3.39h3.53l1.24,3.37-1.33.32v.61h4.55v-.61L633.5,573ZM627,568.76l1.5-3.92,1.43,3.92Z" transform="translate(-2 -11.04)"/><path class="cls-19" d="M561.87,562.9v.61l1.35.31.08,7.21-6.92-8.15h-2.95v.61l1.34.29.11.06-.1,9.13h0l-1.39.32-4.17-11.37a5.24,5.24,0,0,1-1.45,1.29l.16.46L544.12,573l-1.15.31v.61h3.48v-.61l-1.13-.29,1.29-3.39h3.53l1.24,3.37-1.33.32v.61h7.26v-.61l-1.39-.31-.16-8,7.9,9.29h.52l.1-10.49,1.34-.31v-.61Zm-15,5.86,1.5-3.92,1.43,3.92Z" transform="translate(-2 -11.04)"/><path class="cls-19" d="M573.51,568.29v.61l1.25.31v3.55a4.13,4.13,0,0,1-2.49.83c-2.5,0-4.11-2.09-4.11-5s1.57-5.26,4.17-5.26a3.93,3.93,0,0,1,3.69,3l.35-.21v-3.48l-.32-.17-.7.85a7,7,0,0,0-3.05-.78,6.18,6.18,0,0,0-6.19,6.08,5.61,5.61,0,0,0,5.32,5.88h.4a5.7,5.7,0,0,0,3.55-1.18l1,.65h.31v-4.74l1-.4v-.51Z" transform="translate(-2 -11.04)"/></svg>