<svg id="Capa_1" data-name="Capa 1" xmlns="http://www.w3.org/2000/svg" viewBox="0 0 476 768.13"><defs><style>.cls-1,.cls-10{fill:#fff;}.cls-2{fill:#a8a8a8;}.cls-10,.cls-16,.cls-3{font-size:14px;}.cls-17,.cls-3,.cls-4{fill:#323232;}.cls-10,.cls-11,.cls-12,.cls-16,.cls-3,.cls-4{font-family:OpenSans, Open Sans;}.cls-12,.cls-4{font-size:12px;}.cls-5{fill:#afdcdd;}.cls-6{fill:#eabbd1;}.cls-7{fill:#5e1030;}.cls-8{fill:#9e3b63;}.cls-9{fill:#c480a2;}.cls-11{font-size:11px;}.cls-11,.cls-12,.cls-18{fill:#757575;}.cls-13{fill:#dfefef;}.cls-14{fill:#309e9b;}.cls-15{fill:#107272;}.cls-16{fill:#fffefd;}.cls-17{font-size:22px;font-family:OpenSans-Semibold, Open Sans;font-weight:700;}.cls-19{fill:#002f64;}</style></defs><title>taula2</title><rect class="cls-1" x="60.58" y="226.63" width="103.72" height="34"/><path d="M175.8,231v33H73.08V231H175.8m1-1H72.08v35H176.8V230Z" transform="translate(-12 -3.87)"/><rect class="cls-1" x="60.58" y="259.63" width="103.72" height="34"/><path d="M175.8,264v33H73.08V264H175.8m1-1H72.08v35H176.8V263Z" transform="translate(-12 -3.87)"/><rect class="cls-1" x="2.49" y="270.39" width="174.01" height="27.97"/><path class="cls-2" d="M188,274.75v27H15v-27H188m1-1H14v29H189v-29Z" transform="translate(-12 -3.87)"/><rect class="cls-1" x="2.49" y="297.71" width="174.01" height="27.97"/><path class="cls-2" d="M188,302.07v27H15v-27H188m1-1H14v29H189v-29Z" transform="translate(-12 -3.87)"/><rect class="cls-1" x="2.49" y="325.85" width="174.01" height="27.97"/><path class="cls-2" d="M188,330.22v27H15v-27H188m1-1H14v29H189v-29Z" transform="translate(-12 -3.87)"/><rect class="cls-1" x="2.49" y="353.17" width="174.01" height="27.97"/><path class="cls-2" d="M188,357.54v27H15v-27H188m1-1H14v29H189v-29Z" transform="translate(-12 -3.87)"/><rect class="cls-1" x="2.49" y="381.31" width="174.01" height="27.97"/><path class="cls-2" d="M188,385.68v27H15v-27H188m1-1H14v29H189v-29Z" transform="translate(-12 -3.87)"/><rect class="cls-1" x="2.49" y="408.63" width="174.01" height="27.97"/><path class="cls-2" d="M188,413v27H15V413H188m1-1H14v29H189V412Z" transform="translate(-12 -3.87)"/><rect class="cls-1" x="2.49" y="436.78" width="174.01" height="27.97"/><path class="cls-2" d="M188,441.15v27H15v-27H188m1-1H14v29H189v-29Z" transform="translate(-12 -3.87)"/><rect class="cls-1" x="2.49" y="464.1" width="174.01" height="27.97"/><path class="cls-2" d="M188,468.46v27H15v-27H188m1-1H14v29H189v-29Z" transform="translate(-12 -3.87)"/><rect class="cls-1" x="2.49" y="492.24" width="174.01" height="27.97"/><path class="cls-2" d="M188,496.61v27H15v-27H188m1-1H14v29H189v-29Z" transform="translate(-12 -3.87)"/><rect class="cls-1" x="2.49" y="519.56" width="174.01" height="27.97"/><path class="cls-2" d="M188,523.93v27H15v-27H188m1-1H14v29H189v-29Z" transform="translate(-12 -3.87)"/><rect class="cls-1" x="2.49" y="547.71" width="174.01" height="27.97"/><path class="cls-2" d="M188,552.07v27H15v-27H188m1-1H14v29H189v-29Z" transform="translate(-12 -3.87)"/><rect class="cls-1" x="2.49" y="575.02" width="174.01" height="27.97"/><path class="cls-2" d="M188,579.39v27H15v-27H188m1-1H14v29H189v-29Z" transform="translate(-12 -3.87)"/><rect class="cls-1" x="2.49" y="602.34" width="174.01" height="27.97"/><path class="cls-2" d="M188,606.71v27H15v-27H188m1-1H14v29H189v-29Z" transform="translate(-12 -3.87)"/><rect class="cls-1" x="2.49" y="629.66" width="174.01" height="27.97"/><path class="cls-2" d="M188,634v27H15V634H188m1-1H14v29H189V633Z" transform="translate(-12 -3.87)"/><rect class="cls-1" x="2.45" y="656.13" width="174.01" height="27.97"/><path class="cls-2" d="M188,660.5v27H15v-27H188m1-1H14v29H189v-29Z" transform="translate(-12 -3.87)"/><rect class="cls-1" x="2.49" y="655.34" width="174.01" height="27.97"/><path class="cls-2" d="M188,659.71v27H15v-27H188m1-1H14v29H189v-29Z" transform="translate(-12 -3.87)"/><rect class="cls-1" x="2.49" y="682.66" width="174.01" height="27.97"/><path class="cls-2" d="M188,687v27H15V687H188m1-1H14v29H189V686Z" transform="translate(-12 -3.87)"/><rect class="cls-1" x="2.45" y="708.13" width="174.01" height="27.97"/><path class="cls-2" d="M188,712.5v27H15v-27H188m1-1H14v29H189v-29Z" transform="translate(-12 -3.87)"/><rect class="cls-1" x="2.49" y="132.63" width="174.01" height="27.97"/><path class="cls-2" d="M188,137v27H15V137H188m1-1H14v29H189V136Z" transform="translate(-12 -3.87)"/><rect class="cls-1" x="175.5" y="86.63" width="141" height="46.95"/><path class="cls-2" d="M328,91v45.95H188V91H328m1-1H187v47.95H329V90Z" transform="translate(-12 -3.87)"/><rect class="cls-1" x="2.49" y="159.95" width="174.01" height="27.97"/><path class="cls-2" d="M188,164.32v27H15v-27H188m1-1H14v29H189v-29Z" transform="translate(-12 -3.87)"/><rect class="cls-1" x="2.49" y="214.1" width="174.01" height="27.97"/><path class="cls-2" d="M188,218.46v27H15v-27H188m1-1H14v29H189v-29Z" transform="translate(-12 -3.87)"/><rect class="cls-1" x="2.49" y="241.41" width="174.01" height="27.97"/><path class="cls-2" d="M188,245.78v27H15v-27H188m1-1H14v29H189v-29Z" transform="translate(-12 -3.87)"/><rect class="cls-1" x="2.49" y="269.56" width="174.01" height="27.97"/><path class="cls-2" d="M188,273.93v27H15v-27H188m1-1H14v29H189v-29Z" transform="translate(-12 -3.87)"/><rect class="cls-1" x="2.49" y="296.88" width="174.01" height="27.97"/><path class="cls-2" d="M188,301.25v27H15v-27H188m1-1H14v29H189v-29Z" transform="translate(-12 -3.87)"/><rect class="cls-1" x="2.49" y="325.02" width="174.01" height="27.97"/><path class="cls-2" d="M188,329.39v27H15v-27H188m1-1H14v29H189v-29Z" transform="translate(-12 -3.87)"/><rect class="cls-1" x="2.49" y="352.34" width="174.01" height="27.97"/><path class="cls-2" d="M188,356.71v27H15v-27H188m1-1H14v29H189v-29Z" transform="translate(-12 -3.87)"/><rect class="cls-1" x="2.49" y="380.49" width="174.01" height="27.97"/><path class="cls-2" d="M188,384.85v27H15v-27H188m1-1H14v29H189v-29Z" transform="translate(-12 -3.87)"/><rect class="cls-1" x="2.49" y="407.81" width="174.01" height="27.97"/><path class="cls-2" d="M188,412.17v27H15v-27H188m1-1H14v29H189v-29Z" transform="translate(-12 -3.87)"/><rect class="cls-1" x="2.49" y="435.95" width="174.01" height="27.97"/><path class="cls-2" d="M188,440.32v27H15v-27H188m1-1H14v29H189v-29Z" transform="translate(-12 -3.87)"/><rect class="cls-1" x="2.49" y="463.27" width="174.01" height="27.97"/><path class="cls-2" d="M188,467.64v27H15v-27H188m1-1H14v29H189v-29Z" transform="translate(-12 -3.87)"/><rect class="cls-1" x="2.49" y="491.41" width="174.01" height="27.97"/><path class="cls-2" d="M188,495.78v27H15v-27H188m1-1H14v29H189v-29Z" transform="translate(-12 -3.87)"/><rect class="cls-1" x="2.49" y="518.73" width="174.01" height="27.97"/><path class="cls-2" d="M188,523.1v27H15v-27H188m1-1H14v29H189v-29Z" transform="translate(-12 -3.87)"/><rect class="cls-1" x="2.49" y="546.88" width="174.01" height="27.97"/><path class="cls-2" d="M188,551.25v27H15v-27H188m1-1H14v29H189v-29Z" transform="translate(-12 -3.87)"/><rect class="cls-1" x="2.49" y="574.2" width="174.01" height="27.97"/><path class="cls-2" d="M188,578.56v27H15v-27H188m1-1H14v29H189v-29Z" transform="translate(-12 -3.87)"/><text class="cls-3" transform="translate(17 152.77)">S. Sáez de Santamaría</text><text class="cls-4" transform="translate(201.04 106.25)">PORCENTAJE DE <tspan x="-14.29" y="14.4">SEGUIDORES FALSOS</tspan></text><rect class="cls-1" x="176.48" y="270.39" width="140.02" height="27.97"/><path class="cls-2" d="M328,274.75v27H189v-27H328m1-1H188v29H329v-29Z" transform="translate(-12 -3.87)"/><rect class="cls-1" x="176.48" y="297.71" width="140.02" height="27.97"/><path class="cls-2" d="M328,302.07v27H189v-27H328m1-1H188v29H329v-29Z" transform="translate(-12 -3.87)"/><rect class="cls-1" x="176.48" y="325.85" width="140.02" height="27.97"/><path class="cls-2" d="M328,330.22v27H189v-27H328m1-1H188v29H329v-29Z" transform="translate(-12 -3.87)"/><rect class="cls-5" x="176.48" y="353.17" width="140.02" height="27.97"/><path class="cls-2" d="M328,357.54v27H189v-27H328m1-1H188v29H329v-29Z" transform="translate(-12 -3.87)"/><rect class="cls-5" x="176.48" y="381.31" width="140.02" height="27.97"/><path class="cls-2" d="M328,385.68v27H189v-27H328m1-1H188v29H329v-29Z" transform="translate(-12 -3.87)"/><rect class="cls-5" x="176.48" y="408.63" width="140.02" height="27.97"/><path class="cls-2" d="M328,413v27H189V413H328m1-1H188v29H329V412Z" transform="translate(-12 -3.87)"/><rect class="cls-5" x="176.48" y="436.78" width="140.02" height="27.97"/><path class="cls-2" d="M328,441.15v27H189v-27H328m1-1H188v29H329v-29Z" transform="translate(-12 -3.87)"/><rect class="cls-5" x="176.48" y="464.1" width="140.02" height="27.97"/><path class="cls-2" d="M328,468.46v27H189v-27H328m1-1H188v29H329v-29Z" transform="translate(-12 -3.87)"/><rect class="cls-5" x="176.48" y="492.24" width="140.02" height="27.97"/><path class="cls-2" d="M328,496.61v27H189v-27H328m1-1H188v29H329v-29Z" transform="translate(-12 -3.87)"/><rect class="cls-5" x="176.48" y="519.56" width="140.02" height="27.97"/><path class="cls-2" d="M328,523.93v27H189v-27H328m1-1H188v29H329v-29Z" transform="translate(-12 -3.87)"/><rect class="cls-6" x="176.48" y="547.71" width="140.02" height="27.97"/><path class="cls-2" d="M328,552.07v27H189v-27H328m1-1H188v29H329v-29Z" transform="translate(-12 -3.87)"/><rect class="cls-6" x="176.48" y="575.02" width="140.02" height="27.97"/><path class="cls-2" d="M328,579.39v27H189v-27H328m1-1H188v29H329v-29Z" transform="translate(-12 -3.87)"/><rect class="cls-6" x="176.48" y="602.34" width="140.02" height="27.97"/><path class="cls-2" d="M328,606.71v27H189v-27H328m1-1H188v29H329v-29Z" transform="translate(-12 -3.87)"/><rect class="cls-6" x="176.48" y="629.66" width="140.02" height="27.97"/><path class="cls-2" d="M328,634v27H189V634H328m1-1H188v29H329V633Z" transform="translate(-12 -3.87)"/><rect class="cls-6" x="176.45" y="656.13" width="140.02" height="27.97"/><path class="cls-2" d="M328,660.5v27H189v-27H328m1-1H188v29H329v-29Z" transform="translate(-12 -3.87)"/><rect class="cls-6" x="176.48" y="655.34" width="140.02" height="27.97"/><path class="cls-2" d="M328,659.71v27H189v-27H328m1-1H188v29H329v-29Z" transform="translate(-12 -3.87)"/><rect class="cls-6" x="176.48" y="682.66" width="140.02" height="27.97"/><path class="cls-2" d="M328,687v27H189V687H328m1-1H188v29H329V686Z" transform="translate(-12 -3.87)"/><rect class="cls-6" x="176.45" y="708.13" width="140.02" height="27.97"/><path class="cls-2" d="M328,712.5v27H189v-27H328m1-1H188v29H329v-29Z" transform="translate(-12 -3.87)"/><rect class="cls-7" x="176.48" y="132.63" width="140.02" height="27.97"/><path class="cls-2" d="M328,137v27H189V137H328m1-1H188v29H329V136Z" transform="translate(-12 -3.87)"/><rect class="cls-7" x="176.48" y="159.95" width="140.02" height="27.97"/><path class="cls-2" d="M328,164.32v27H189v-27H328m1-1H188v29H329v-29Z" transform="translate(-12 -3.87)"/><rect class="cls-8" x="176.48" y="214.1" width="140.02" height="27.97"/><path class="cls-2" d="M328,218.46v27H189v-27H328m1-1H188v29H329v-29Z" transform="translate(-12 -3.87)"/><rect class="cls-8" x="176.48" y="241.41" width="140.02" height="27.97"/><path class="cls-2" d="M328,245.78v27H189v-27H328m1-1H188v29H329v-29Z" transform="translate(-12 -3.87)"/><rect class="cls-8" x="176.48" y="269.56" width="140.02" height="27.97"/><path class="cls-2" d="M328,273.93v27H189v-27H328m1-1H188v29H329v-29Z" transform="translate(-12 -3.87)"/><rect class="cls-8" x="176.48" y="296.88" width="140.02" height="27.97"/><path class="cls-2" d="M328,301.25v27H189v-27H328m1-1H188v29H329v-29Z" transform="translate(-12 -3.87)"/><rect class="cls-8" x="176.48" y="325.02" width="140.02" height="27.97"/><path class="cls-2" d="M328,329.39v27H189v-27H328m1-1H188v29H329v-29Z" transform="translate(-12 -3.87)"/><rect class="cls-9" x="176.48" y="352.34" width="140.02" height="27.97"/><path class="cls-2" d="M328,356.71v27H189v-27H328m1-1H188v29H329v-29Z" transform="translate(-12 -3.87)"/><rect class="cls-9" x="176.48" y="380.49" width="140.02" height="27.97"/><path class="cls-2" d="M328,384.85v27H189v-27H328m1-1H188v29H329v-29Z" transform="translate(-12 -3.87)"/><rect class="cls-9" x="176.48" y="407.81" width="140.02" height="27.97"/><path class="cls-2" d="M328,412.17v27H189v-27H328m1-1H188v29H329v-29Z" transform="translate(-12 -3.87)"/><rect class="cls-9" x="176.48" y="435.95" width="140.02" height="27.97"/><path class="cls-2" d="M328,440.32v27H189v-27H328m1-1H188v29H329v-29Z" transform="translate(-12 -3.87)"/><rect class="cls-9" x="176.48" y="463.27" width="140.02" height="27.97"/><path class="cls-2" d="M328,467.64v27H189v-27H328m1-1H188v29H329v-29Z" transform="translate(-12 -3.87)"/><rect class="cls-9" x="176.48" y="491.41" width="140.02" height="27.97"/><path class="cls-2" d="M328,495.78v27H189v-27H328m1-1H188v29H329v-29Z" transform="translate(-12 -3.87)"/><rect class="cls-9" x="176.48" y="518.73" width="140.02" height="27.97"/><path class="cls-2" d="M328,523.1v27H189v-27H328m1-1H188v29H329v-29Z" transform="translate(-12 -3.87)"/><rect class="cls-6" x="176.48" y="546.88" width="140.02" height="27.97"/><path class="cls-2" d="M328,551.25v27H189v-27H328m1-1H188v29H329v-29Z" transform="translate(-12 -3.87)"/><rect class="cls-6" x="176.48" y="574.2" width="140.02" height="27.97"/><path class="cls-2" d="M328,578.56v27H189v-27H328m1-1H188v29H329v-29Z" transform="translate(-12 -3.87)"/><text class="cls-10" transform="translate(232 152.77)">33%</text><text class="cls-11" transform="translate(1 65.49)">Más del 30% </text><text class="cls-11" transform="translate(272 63.49)">Más de 1M</text><text class="cls-11" transform="translate(363 63.49)">Menos de 100.000</text><text class="cls-11" transform="translate(107 63.49)">Menos del 15%</text><text class="cls-10" transform="translate(227 179.77)">31,5%</text><text class="cls-10" transform="translate(227 233.77)">28,5%</text><text class="cls-10" transform="translate(226 261.77)">26,5%</text><text class="cls-10" transform="translate(231.02 288.68)">25%</text><text class="cls-10" transform="translate(231 315.77)">25%</text><text class="cls-10" transform="translate(231 341.77)">25%</text><text class="cls-3" transform="translate(227 369.77)">24.5%</text><text class="cls-3" transform="translate(227 398.77)">23,5%</text><text class="cls-3" transform="translate(231 427.77)">23%</text><text class="cls-3" transform="translate(232 455.77)">21%</text><text class="cls-3" transform="translate(232 480.77)">20%</text><text class="cls-3" transform="translate(231 508.77)">19%</text><text class="cls-3" transform="translate(227 535.77)">18,5%</text><text class="cls-3" transform="translate(227 564.77)">14,5%</text><text class="cls-3" transform="translate(226 592.77)">13,5%</text><text class="cls-3" transform="translate(227 618.77)">11,5%</text><text class="cls-3" transform="translate(230 644.77)">9,5%</text><text class="cls-3" transform="translate(228 672.77)">9,5%</text><text class="cls-3" transform="translate(236 697.77)">9%</text><text class="cls-3" transform="translate(236 723.77)">2%</text><text class="cls-3" transform="translate(17 180.77)">Esperanza Aguirre</text><text class="cls-3" transform="translate(17 233.77)">Oriol Junqueras</text><text class="cls-3" transform="translate(17 260.77)">Carles Puigdemont</text><text class="cls-3" transform="translate(17.84 288.64)">Ada Colau</text><text class="cls-3" transform="translate(17 315.77)">Pedro Sánchez</text><text class="cls-3" transform="translate(17 342.77)">Albert Rivera</text><text class="cls-3" transform="translate(17 371.77)">Arnaldo Otegi</text><text class="cls-3" transform="translate(17 398.77)">Miguel Ángel Revilla</text><text class="cls-3" transform="translate(17 427.77)">Manuela Carmena</text><text class="cls-3" transform="translate(17 455.77)">Mariano Rajoy</text><text class="cls-3" transform="translate(17 482.77)">M.D. Cospedal</text><text class="cls-3" transform="translate(17 510.77)">Alberto Garzón</text><text class="cls-3" transform="translate(17 537.77)">Pablo Iglesias</text><text class="cls-3" transform="translate(17 565.77)">Susana Díaz</text><text class="cls-3" transform="translate(17 592.77)">Iñigo Urkullu</text><text class="cls-3" transform="translate(18 619.77)">Alberto Núñez Feijóo</text><text class="cls-3" transform="translate(17 645.77)">Irene Montero</text><text class="cls-3" transform="translate(17 672.77)">Andrea Levy</text><text class="cls-3" transform="translate(17 698.77)">Gabriel Rufián</text><text class="cls-3" transform="translate(15 726.77)">Patxi López</text><text class="cls-12" transform="translate(0 760.25)">Fuente: Twitter, Status People y Twitter Audit</text><rect class="cls-1" x="2.49" y="186.1" width="174.01" height="27.97"/><path class="cls-2" d="M188,190.46v27H15v-27H188m1-1H14v29H189v-29Z" transform="translate(-12 -3.87)"/><rect class="cls-1" x="316.5" y="86.63" width="141" height="46.95"/><path class="cls-2" d="M469,91v45.95H329V91H469m1-1H328v47.95H470V90Z" transform="translate(-12 -3.87)"/><rect class="cls-1" x="317.53" y="270.39" width="139.97" height="27.97"/><path class="cls-2" d="M469,274.75v27H330v-27H469m1-1H329v29H470v-29Z" transform="translate(-12 -3.87)"/><rect class="cls-1" x="317.53" y="297.71" width="139.97" height="27.97"/><path class="cls-2" d="M469,302.07v27H330v-27H469m1-1H329v29H470v-29Z" transform="translate(-12 -3.87)"/><rect class="cls-1" x="317.53" y="325.85" width="139.97" height="27.97"/><path class="cls-2" d="M469,330.22v27H330v-27H469m1-1H329v29H470v-29Z" transform="translate(-12 -3.87)"/><rect class="cls-1" x="317.53" y="353.17" width="139.97" height="27.97"/><path class="cls-2" d="M469,357.54v27H330v-27H469m1-1H329v29H470v-29Z" transform="translate(-12 -3.87)"/><rect class="cls-1" x="317.53" y="381.31" width="139.97" height="27.97"/><path class="cls-2" d="M469,385.68v27H330v-27H469m1-1H329v29H470v-29Z" transform="translate(-12 -3.87)"/><rect class="cls-1" x="317.53" y="408.63" width="139.97" height="27.97"/><path class="cls-2" d="M469,413v27H330V413H469m1-1H329v29H470V412Z" transform="translate(-12 -3.87)"/><rect class="cls-1" x="317.53" y="436.78" width="139.97" height="27.97"/><path class="cls-2" d="M469,441.15v27H330v-27H469m1-1H329v29H470v-29Z" transform="translate(-12 -3.87)"/><rect class="cls-1" x="317.53" y="464.1" width="139.97" height="27.97"/><path class="cls-2" d="M469,468.46v27H330v-27H469m1-1H329v29H470v-29Z" transform="translate(-12 -3.87)"/><rect class="cls-1" x="317.53" y="492.24" width="139.97" height="27.97"/><path class="cls-2" d="M469,496.61v27H330v-27H469m1-1H329v29H470v-29Z" transform="translate(-12 -3.87)"/><rect class="cls-1" x="317.53" y="519.56" width="139.97" height="27.97"/><path class="cls-2" d="M469,523.93v27H330v-27H469m1-1H329v29H470v-29Z" transform="translate(-12 -3.87)"/><rect class="cls-1" x="317.53" y="547.71" width="139.97" height="27.97"/><path class="cls-2" d="M469,552.07v27H330v-27H469m1-1H329v29H470v-29Z" transform="translate(-12 -3.87)"/><rect class="cls-1" x="317.53" y="575.02" width="139.97" height="27.97"/><path class="cls-2" d="M469,579.39v27H330v-27H469m1-1H329v29H470v-29Z" transform="translate(-12 -3.87)"/><rect class="cls-13" x="317.53" y="602.34" width="139.97" height="27.97"/><path class="cls-2" d="M469,606.71v27H330v-27H469m1-1H329v29H470v-29Z" transform="translate(-12 -3.87)"/><rect class="cls-13" x="317.53" y="629.66" width="139.97" height="27.97"/><path class="cls-2" d="M469,634v27H330V634H469m1-1H329v29H470V633Z" transform="translate(-12 -3.87)"/><rect class="cls-1" x="317.5" y="656.13" width="139.97" height="27.97"/><path class="cls-2" d="M469,660.5v27H330v-27H469m1-1H329v29H470v-29Z" transform="translate(-12 -3.87)"/><rect class="cls-13" x="317.53" y="655.34" width="139.97" height="27.97"/><path class="cls-2" d="M469,659.71v27H330v-27H469m1-1H329v29H470v-29Z" transform="translate(-12 -3.87)"/><rect class="cls-5" x="317.53" y="682.66" width="139.97" height="27.97"/><path class="cls-2" d="M469,687v27H330V687H469m1-1H329v29H470V686Z" transform="translate(-12 -3.87)"/><rect class="cls-13" x="317.5" y="708.13" width="139.97" height="27.97"/><path class="cls-2" d="M469,712.5v27H330v-27H469m1-1H329v29H470v-29Z" transform="translate(-12 -3.87)"/><rect class="cls-5" x="317.53" y="132.63" width="139.97" height="27.97"/><path class="cls-2" d="M469,137v27H330V137H469m1-1H329v29H470V136Z" transform="translate(-12 -3.87)"/><rect class="cls-5" x="317.53" y="159.95" width="139.97" height="27.97"/><path class="cls-2" d="M469,164.32v27H330v-27H469m1-1H329v29H470v-29Z" transform="translate(-12 -3.87)"/><rect class="cls-5" x="317.53" y="214.1" width="139.97" height="27.97"/><path class="cls-2" d="M469,218.46v27H330v-27H469m1-1H329v29H470v-29Z" transform="translate(-12 -3.87)"/><rect class="cls-5" x="317.53" y="241.41" width="139.97" height="27.97"/><path class="cls-2" d="M469,245.78v27H330v-27H469m1-1H329v29H470v-29Z" transform="translate(-12 -3.87)"/><rect class="cls-14" x="317.53" y="269.56" width="139.97" height="27.97"/><path class="cls-2" d="M469,273.93v27H330v-27H469m1-1H329v29H470v-29Z" transform="translate(-12 -3.87)"/><rect class="cls-14" x="317.53" y="296.88" width="139.97" height="27.97"/><path class="cls-2" d="M469,301.25v27H330v-27H469m1-1H329v29H470v-29Z" transform="translate(-12 -3.87)"/><rect class="cls-14" x="317.53" y="325.02" width="139.97" height="27.97"/><path class="cls-2" d="M469,329.39v27H330v-27H469m1-1H329v29H470v-29Z" transform="translate(-12 -3.87)"/><rect class="cls-13" x="317.53" y="352.34" width="139.97" height="27.97"/><path class="cls-2" d="M469,356.71v27H330v-27H469m1-1H329v29H470v-29Z" transform="translate(-12 -3.87)"/><rect class="cls-14" x="317.53" y="380.49" width="139.97" height="27.97"/><path class="cls-2" d="M469,384.85v27H330v-27H469m1-1H329v29H470v-29Z" transform="translate(-12 -3.87)"/><rect class="cls-14" x="317.53" y="407.81" width="139.97" height="27.97"/><path class="cls-2" d="M469,412.17v27H330v-27H469m1-1H329v29H470v-29Z" transform="translate(-12 -3.87)"/><rect class="cls-15" x="317.53" y="435.95" width="139.97" height="27.97"/><path class="cls-2" d="M469,440.32v27H330v-27H469m1-1H329v29H470v-29Z" transform="translate(-12 -3.87)"/><rect class="cls-5" x="317.53" y="463.27" width="139.97" height="27.97"/><path class="cls-2" d="M469,467.64v27H330v-27H469m1-1H329v29H470v-29Z" transform="translate(-12 -3.87)"/><rect class="cls-14" x="317.53" y="491.41" width="139.97" height="27.97"/><path class="cls-2" d="M469,495.78v27H330v-27H469m1-1H329v29H470v-29Z" transform="translate(-12 -3.87)"/><rect class="cls-15" x="317.53" y="518.73" width="139.97" height="27.97"/><path class="cls-2" d="M469,523.1v27H330v-27H469m1-1H329v29H470v-29Z" transform="translate(-12 -3.87)"/><rect class="cls-13" x="317.53" y="546.88" width="139.97" height="27.97"/><path class="cls-2" d="M469,551.25v27H330v-27H469m1-1H329v29H470v-29Z" transform="translate(-12 -3.87)"/><rect class="cls-13" x="317.53" y="574.2" width="139.97" height="27.97"/><path class="cls-2" d="M469,578.56v27H330v-27H469m1-1H329v29H470v-29Z" transform="translate(-12 -3.87)"/><text class="cls-4" transform="translate(360.97 106.25)">NÚMERO <tspan x="-19.67" y="14.4">DE SEGUIDORES </tspan></text><text class="cls-3" transform="translate(359 151.77)">303.000</text><text class="cls-3" transform="translate(358 179.77)">264.000</text><text class="cls-3" transform="translate(359 233.77)">257.000</text><text class="cls-3" transform="translate(358 260.77)">203.000</text><text class="cls-10" transform="translate(358.02 287.68)">505.000</text><text class="cls-10" transform="translate(358 314.77)">515.000</text><text class="cls-10" transform="translate(356 341.77)">737.000</text><text class="cls-3" transform="translate(360 369.77)">85.700</text><text class="cls-10" transform="translate(358 396.77)">647.000</text><text class="cls-10" transform="translate(357 427.77)">679.000</text><text class="cls-10" transform="translate(352 454.77)">1.370.000</text><text class="cls-3" transform="translate(358 480.77)">177.000</text><text class="cls-10" transform="translate(359 508.77)">751.000</text><text class="cls-16" transform="translate(350 535.77)">1.970.000</text><text class="cls-3" transform="translate(358 563.77)">112.000</text><text class="cls-3" transform="translate(358 592.77)">16.500</text><text class="cls-3" transform="translate(359 618.77)">14.000</text><text class="cls-3" transform="translate(360 644.77)">83.800</text><text class="cls-3" transform="translate(360 672.77)">42.900</text><text class="cls-3" transform="translate(358 699.77)">164.000</text><text class="cls-3" transform="translate(371 725.77)">560</text><rect class="cls-5" x="317.53" y="186.1" width="139.97" height="27.97"/><path class="cls-2" d="M469,190.46v27H330v-27H469m1-1H329v29H470v-29Z" transform="translate(-12 -3.87)"/><text class="cls-3" transform="translate(359 205.77)">147.000</text><rect class="cls-8" x="176.48" y="186.1" width="140.02" height="27.97"/><path class="cls-2" d="M328,190.46v27H189v-27H328m1-1H188v29H329v-29Z" transform="translate(-12 -3.87)"/><text class="cls-10" transform="translate(231 207.77)">29%</text><text class="cls-3" transform="translate(17 205.77)">Inés Arrimadas</text><text class="cls-17" transform="translate(2 18.85)">Seguidores falsos en las cuentas de Twitter</text><rect class="cls-7" x="1.5" y="38.63" width="46.38" height="13"/><path class="cls-18" d="M59.38,43V55H14V43H59.38m1-1H13V56H60.38V42Z" transform="translate(-12 -3.87)"/><rect class="cls-8" x="47.37" y="38.63" width="46.38" height="13"/><path class="cls-18" d="M105.25,43V55H59.87V43h45.38m1-1H58.87V56h47.38V42Z" transform="translate(-12 -3.87)"/><rect class="cls-9" x="93.25" y="38.63" width="46.38" height="13"/><path class="cls-18" d="M151.13,43V55H105.75V43h45.38m1-1H104.75V56h47.38V42Z" transform="translate(-12 -3.87)"/><rect class="cls-6" x="139.12" y="38.63" width="46.38" height="13"/><path class="cls-18" d="M197,43V55H151.62V43H197m1-1H150.62V56H198V42Z" transform="translate(-12 -3.87)"/><rect class="cls-15" x="272.5" y="37.63" width="46.38" height="13"/><path class="cls-18" d="M330.38,42V54H285V42h45.38m1-1H284V55h47.38V41Z" transform="translate(-12 -3.87)"/><rect class="cls-14" x="318.37" y="37.63" width="46.38" height="13"/><path class="cls-18" d="M376.25,42V54H330.87V42h45.38m1-1H329.87V55h47.38V41Z" transform="translate(-12 -3.87)"/><rect class="cls-5" x="364.25" y="37.63" width="46.38" height="13"/><path class="cls-18" d="M422.13,42V54H376.75V42h45.38m1-1H375.75V55h47.38V41Z" transform="translate(-12 -3.87)"/><rect class="cls-13" x="410.12" y="37.63" width="46.38" height="13"/><path class="cls-18" d="M468,42V54H422.62V42H468m1-1H421.62V55H469V41Z" transform="translate(-12 -3.87)"/><polygon class="cls-19" points="329.97 745.13 455.04 745.13 455.04 764.13 329.97 764.13 329.97 745.13 329.97 745.13"/><path class="cls-1" d="M442.3,753.24h-4.79v.6l1.26.3V763a1,1,0,0,1-.88.45,1.88,1.88,0,0,1-1.55-1.14l-1.2-2.14a2.48,2.48,0,0,0-2.19-1.47v-.15a2.93,2.93,0,0,0,3-2.73c0-1.84-1.67-2.56-3.61-2.56H428v.6l1.42.3v9h0l-1.63.31-4.07-11.11a5.12,5.12,0,0,1-1.47,1.25l.15.45-3.72,9.11-1.12.3v.6h3.38v-.6l-1.11-.29,1.26-3.32h3.45l1.21,3.29-1.3.31v.6h8.25v-.6l-1.39-.29V759a2,2,0,0,1,1.84,1.35l1.63,2.92a2.64,2.64,0,0,0,2.37,1.44,2.34,2.34,0,0,0,1.55-.64h3.69a5.55,5.55,0,0,0,5.69-5.39c0-3.14-2.43-5.39-5.79-5.39ZM421.38,759l1.46-3.83,1.4,3.83Zm10.68-.81h-.73v-4h.92a1.81,1.81,0,0,1,1.89,1.93,2.09,2.09,0,0,1-2.07,2.1Zm10.14,5h-1.54v-9h1.58c2.45,0,3.95,1.69,3.95,4.49s-1.56,4.49-4,4.49Z" transform="translate(-12 -3.87)"/><path class="cls-1" d="M363.64,763.13l-4-10.82a5.11,5.11,0,0,1-1.47,1.25l.15.45-3.72,9.11-.79.3-.24.6h3.29v-.6l-1.11-.29,1.26-3.32h3.45l1.21,3.29-1.3.31v.6h4.42v-.6l-1.18-.29ZM357.32,759l1.46-3.83,1.4,3.83Z" transform="translate(-12 -3.87)"/><polygon class="cls-1" points="342.15 757.42 341.75 757.19 339.42 759.32 337.43 759.32 337.43 750.28 338.63 749.98 338.63 749.38 334.34 749.38 334.34 749.98 335.54 750.28 335.54 759.25 334.34 759.55 334.34 760.15 341.08 760.15 342.15 757.42 342.15 757.42"/><polygon class="cls-1" points="360.88 749.38 360.88 749.98 362.17 750.28 359.36 757.49 356.39 750.27 357.79 749.98 357.79 749.38 353 749.38 353 749.98 354.37 750.27 358.63 760.53 359.08 760.53 363.32 750.29 363.36 750.29 364.69 749.98 364.69 749.38 360.88 749.38 360.88 749.38"/><path class="cls-1" d="M415.37,753.24v.6l1.29.3s.1,5.34,0,6.69a2.72,2.72,0,0,1-2.9,2.63,2.68,2.68,0,0,1-2.9-2.77v-6.58l1.25-.28v-.6h-4.33v.6l1.23.29v6.62a4,4,0,0,0,4.28,3.77c2.37,0,4.2-1.38,4.28-3.77l.08-6.61,1.26-.3v-.6Z" transform="translate(-12 -3.87)"/><path class="cls-1" d="M462.2,763.11l-4-10.8a5.11,5.11,0,0,1-1.47,1.25l.15.45-3.72,9.15-.63.26-.86-.27v-9l1.32-.3v-.6h-4.51v.6l1.3.31v9l-1.25.29v.6h6.9v-.6l-1.11-.29,1.26-3.32h3.45l1.21,3.29-1.3.31v.6h4.42v-.6l-1.2-.31ZM455.89,759l1.46-3.83,1.4,3.83Z" transform="translate(-12 -3.87)"/><path class="cls-1" d="M392.22,753.24v.6l1.32.31.08,7.05-6.75-8H384v.6l1.31.29.11.06-.1,8.91h0l-1.33.31-4.07-11.11a5.12,5.12,0,0,1-1.47,1.25l.15.45-3.72,9.11-1.12.3v.6h3.38v-.6l-1.11-.29,1.26-3.32h3.45l1.21,3.29-1.3.31v.6h7.09v-.6l-1.39-.3-.09-7.8,7.72,9.08h.51l.1-10.25,1.31-.3v-.6ZM377.55,759l1.46-3.83,1.4,3.83Z" transform="translate(-12 -3.87)"/><path class="cls-1" d="M403.56,758.51v.6l1.22.31v3.47a4,4,0,0,1-2.44.81c-2.45,0-4-2.06-4-4.92s1.54-5.14,4.05-5.14a3.84,3.84,0,0,1,3.61,2.93l.35-.2V753l-.31-.17-.66.83a6.81,6.81,0,0,0-3-.76,6,6,0,0,0-6,5.94,5.48,5.48,0,0,0,5.59,5.75,5.57,5.57,0,0,0,3.48-1.16l1,.63h.31v-4.63l1-.39v-.5Z" transform="translate(-12 -3.87)"/></svg>