<svg id="Capa_1" data-name="Capa 1" xmlns="http://www.w3.org/2000/svg" viewBox="0 0 641.32 564.36"><defs><style>.cls-1{fill:#69bfbf;}.cls-10,.cls-11,.cls-12,.cls-14,.cls-15,.cls-16,.cls-2,.cls-7{isolation:isolate;}.cls-10,.cls-11,.cls-2{font-size:15px;}.cls-15,.cls-17,.cls-2{fill:#323232;}.cls-10,.cls-17,.cls-2{font-family:Arial-BoldMT, Arial;font-weight:700;}.cls-3{letter-spacing:-0.06em;}.cls-4{fill:#a01f51;}.cls-5{fill:#3f4d78;}.cls-6,.cls-7{fill:#f49e20;}.cls-7{font-size:10px;font-family:ArialMT, Arial MT;}.cls-8{letter-spacing:-0.03em;}.cls-9{fill:none;stroke:#ccc;}.cls-10,.cls-11,.cls-12,.cls-14,.cls-16{fill:#757575;}.cls-11,.cls-12,.cls-14,.cls-15,.cls-16{font-family:ArialMT, Arial;}.cls-12{font-size:16px;}.cls-13{letter-spacing:-0.04em;}.cls-14{font-size:13px;}.cls-15{font-size:19px;}.cls-16{font-size:12px;}.cls-17{font-size:27px;}.cls-18{fill:#283659;}.cls-19{fill:#fff;}.cls-20{fill:#ccc;stroke:#757575;opacity:0.75;}</style></defs><title>Import</title><path class="cls-1" d="M38,507.12l34,.09,31.81-.2,34,.14,32.91.05,34,0H237.6l34-.16,34,.26,32.91-.23,34.05.23h32.91l34-.2,34,.22,30.72,0,34-.05,32.91-5.3,34,5.26,32.91-.06v.19H38Z" transform="translate(-3.74 -9.54)"/><text class="cls-2" transform="translate(580.35 491.8)"><tspan class="cls-3">Y</tspan><tspan x="9.18" y="0">emen</tspan></text><path class="cls-4" d="M38,425.88l34-3.75,31.81,3.6,34-.26,32.91.2,34-.33,32.91.87,34-.13,34,.42h32.91l34.05-.13,32.91-.8,34,.37,34,.55,30.72-.83,34-.45,32.91.85,34-1.09L638,426.37v.13H38Z" transform="translate(-3.74 -9.54)"/><text class="cls-2" transform="translate(581.35 410.96)">Sudán</text><text class="cls-2" transform="translate(598.34 323.13)">Irán</text><path class="cls-5" d="M38,345.67l34-1.37,31.81-4.82,34,2.25,32.91,0,34-1.2L237.6,343l34-6.64,34,7.25,32.91-6.39,34.05,6.68,32.91-2,34,.6,34-1.23,30.72-1.39,34,2.61,32.91.54,34,1.7,32.91-1v1.86H38Z" transform="translate(-3.74 -9.54)"/><path class="cls-6" d="M39,257.33l33.95,4.26,31.76,2.7,33.9-7.45,32.85-10.92,33.95-14.85,32.85,28.48,33.95-12.47,33.95,12.86L339,262.19l34-.18,32.85-13.79,33.95-38.49L473.77,249l30.66-7.25,33.9-5L571.2,188.5l33.95,28.34,32.85-5.7v53.19H39Z" transform="translate(-3.74 -9.54)"/><text class="cls-7" transform="translate(613.48 248.8) scale(0.71 1)">Li<tspan class="cls-8" x="7.78" y="0">by</tspan><tspan x="17.82" y="0">a</tspan></text><line class="cls-9" x1="35.26" y1="497.46" x2="35.26" y2="158.46"/><text class="cls-10" transform="translate(23.14 522.56)">2016</text><text class="cls-10" transform="translate(421.14 522.56)">2017</text><text class="cls-11" transform="translate(311 522.46)">Octubre</text><text class="cls-11" transform="translate(220 522.46)">Julio</text><text class="cls-12" transform="translate(282.32 122.15)"><tspan class="cls-13">T</tspan><tspan x="9.18" y="0">rump anuncia el veto</tspan></text><text class="cls-12" transform="translate(456 151.46)">Entrada en vigor del veto</text><text class="cls-12" transform="translate(176 151.46)"><tspan class="cls-13">T</tspan><tspan x="9.18" y="0">rump gana las elecciones</tspan></text><text class="cls-11" transform="translate(120 522.46)">Abril</text><text class="cls-11" transform="translate(11 559.49)">Fuente: United States Census Bureau</text><text class="cls-14" transform="translate(0 186.46)">150M</text><text class="cls-15" transform="translate(0.26 83.36)">Evolución desde enero de 2016 hasta julio de 2017 del valor en dólares</text><text class="cls-14" transform="translate(1 271.46)">150M</text><text class="cls-16" transform="translate(20 255.3)">0</text><text class="cls-14" transform="translate(20 336.13)">0</text><text class="cls-14" transform="translate(1 352.3)">150M</text><text class="cls-14" transform="translate(1 432.96)">150M</text><text class="cls-14" transform="translate(20 416.96)">0</text><text class="cls-14" transform="translate(19.99 497.96)">0</text><text class="cls-11" transform="translate(520 522.56)">Abril</text><line class="cls-9" x1="134.04" y1="497.46" x2="134.04" y2="506.46"/><line class="cls-9" x1="84.65" y1="497.96" x2="84.65" y2="506.96"/><line class="cls-9" x1="109.34" y1="497.96" x2="109.34" y2="506.96"/><line class="cls-9" x1="59.95" y1="497.96" x2="59.95" y2="506.96"/><path class="cls-9" d="M93.5,521" transform="translate(-3.74 -9.54)"/><path class="cls-9" d="M93.5,512" transform="translate(-3.74 -9.54)"/><path class="cls-9" d="M106,507" transform="translate(-3.74 -9.54)"/><line class="cls-9" x1="35.26" y1="497.21" x2="35.26" y2="506.21"/><line class="cls-9" x1="634.26" y1="497.21" x2="634.26" y2="506.21"/><line class="cls-9" x1="233.86" y1="497.46" x2="233.86" y2="506.46"/><line class="cls-9" x1="284.32" y1="497.96" x2="284.32" y2="506.96"/><line class="cls-9" x1="259.09" y1="497.96" x2="259.09" y2="506.96"/><line class="cls-9" x1="309.55" y1="497.96" x2="309.55" y2="506.96"/><line class="cls-9" x1="385.27" y1="497.21" x2="385.27" y2="506.21"/><line class="cls-9" x1="360.03" y1="497.96" x2="360.03" y2="506.96"/><line class="cls-9" x1="435.75" y1="497.21" x2="435.75" y2="506.21"/><line class="cls-9" x1="410.51" y1="497.96" x2="410.51" y2="506.96"/><line class="cls-9" x1="485.09" y1="497.96" x2="485.09" y2="506.96"/><line class="cls-9" x1="460.42" y1="497.96" x2="460.42" y2="506.96"/><path class="cls-9" d="M514.47,516" transform="translate(-3.74 -9.54)"/><path class="cls-9" d="M514.47,507" transform="translate(-3.74 -9.54)"/><line class="cls-9" x1="183.95" y1="497.21" x2="183.95" y2="506.21"/><line class="cls-9" x1="158.99" y1="497.21" x2="158.99" y2="506.21"/><line class="cls-9" x1="208.91" y1="497.96" x2="208.91" y2="506.96"/><line class="cls-9" x1="334.78" y1="496.96" x2="334.78" y2="506.46"/><line class="cls-9" x1="435.75" y1="497.46" x2="435.75" y2="128.46"/><line class="cls-9" x1="363.26" y1="498.46" x2="363.26" y2="159.46"/><line class="cls-9" x1="435.74" y1="128.46" x2="277.25" y2="128.46"/><line class="cls-9" x1="634.26" y1="157.46" x2="460.42" y2="157.46"/><line class="cls-9" x1="363.73" y1="158.98" x2="172" y2="158.98"/><line class="cls-9" x1="634.26" y1="496.6" x2="634.26" y2="157.6"/><line class="cls-9" x1="534.43" y1="497.46" x2="534.43" y2="506.46"/><line class="cls-9" x1="584.35" y1="497.96" x2="584.35" y2="506.96"/><line class="cls-9" x1="559.39" y1="497.96" x2="559.39" y2="506.96"/><line class="cls-9" x1="609.3" y1="497.96" x2="609.3" y2="506.96"/><line class="cls-9" x1="509.76" y1="497.46" x2="509.76" y2="506.46"/><path class="cls-9" d="M638,168" transform="translate(-3.74 -9.54)"/><path class="cls-9" d="M638,506" transform="translate(-3.74 -9.54)"/><text class="cls-17" transform="translate(1.26 23.16)">Importaciones de Estados Unidos desde los <tspan x="0" y="32.4">países con los que mantiene el veto migratorio</tspan></text><polygon class="cls-18" points="506.26 544.13 634.26 544.13 634.26 563.58 506.26 563.58 506.26 544.13 506.26 544.13"/><path class="cls-19" d="M612.68,558h-4.9v.61l1.29.31v9a1.07,1.07,0,0,1-.9.46,1.92,1.92,0,0,1-1.59-1.17l-1.22-2.19a2.54,2.54,0,0,0-2.24-1.51v-.15a3,3,0,0,0,3.1-2.78c0-1.89-1.71-2.62-3.69-2.62h-4.45v.61l1.45.31v9.18h0l-1.67.32-4.17-11.37a5.24,5.24,0,0,1-1.5,1.29l.16.46-3.81,9.32-1.15.31V569h3.48v-.61l-1.13-.29,1.29-3.39h3.53l1.24,3.37-1.33.32V569h8.45v-.61l-1.39-.3v-4.27a2.09,2.09,0,0,1,1.88,1.39l1.67,3a2.71,2.71,0,0,0,2.42,1.47,2.39,2.39,0,0,0,1.59-.65h3.78a5.68,5.68,0,0,0,5.82-5.52c0-3.21-2.49-5.52-5.93-5.52Zm-21.41,5.86,1.49-3.92,1.43,3.92Zm10.92-.83h-.75v-4.11h.94a1.86,1.86,0,0,1,1.93,2,2.14,2.14,0,0,1-2.09,2.15Zm10.38,5.09H611v-9.2h1.61c2.5,0,4,1.73,4,4.6s-1.6,4.6-4.08,4.6Z" transform="translate(-3.74 -9.54)"/><path class="cls-19" d="M532.18,568.13l-4.08-11.08a5.23,5.23,0,0,1-1.5,1.29l.16.46L523,568.11l-.81.31-.24.61h3.37v-.61l-1.13-.29,1.29-3.39H529l1.24,3.37-1.33.32V569h4.54v-.61l-1.21-.3Zm-6.47-4.25,1.5-3.92,1.43,3.92Z" transform="translate(-3.74 -9.54)"/><polygon class="cls-19" points="518.73 556.7 518.32 556.47 515.94 558.64 513.9 558.64 513.9 549.4 515.12 549.09 515.12 548.47 510.73 548.47 510.73 549.09 511.96 549.4 511.96 558.57 510.73 558.89 510.73 559.5 517.63 559.5 518.73 556.7 518.73 556.7"/><polygon class="cls-19" points="537.89 548.47 537.89 549.09 539.22 549.4 536.33 556.78 533.3 549.38 534.73 549.09 534.73 548.47 529.83 548.47 529.83 549.09 531.23 549.39 535.59 559.88 536.05 559.88 540.4 549.4 540.43 549.4 541.79 549.09 541.79 548.47 537.89 548.47 537.89 548.47"/><path class="cls-19" d="M585.12,558v.61l1.32.31s.1,5.47,0,6.85a2.78,2.78,0,0,1-2.84,2.72h-.14a2.74,2.74,0,0,1-3-2.83v-6.73l1.28-.29V558h-4.43v.61l1.26.3v6.78a4.07,4.07,0,0,0,4.38,3.86c2.42,0,4.3-1.39,4.38-3.86l.08-6.77,1.29-.31V558Z" transform="translate(-3.74 -9.54)"/><path class="cls-19" d="M633,568.1l-4.06-11a5.23,5.23,0,0,1-1.5,1.29l.16.46-3.79,9.36-.65.26-.88-.28v-9.22l1.35-.31V558h-4.62v.61l1.34.31v9.18l-1.28.3V569h7v-.61l-1.13-.3,1.29-3.39h3.53l1.24,3.37-1.33.32V569h4.55v-.61l-1.22-.32Zm-6.46-4.23,1.5-3.92,1.43,3.92Z" transform="translate(-3.74 -9.54)"/><path class="cls-19" d="M561.43,558v.61l1.35.31.08,7.21L555.95,558H553v.61l1.34.29.11.06-.1,9.13h0l-1.39.32L548.78,557a5.24,5.24,0,0,1-1.45,1.29l.16.46-3.81,9.32-1.15.31V569H546v-.61l-1.13-.29,1.29-3.39h3.53l1.24,3.37-1.33.32V569h7.26v-.61l-1.39-.31-.16-8,7.9,9.29h.52l.1-10.49,1.34-.31V558Zm-15,5.86,1.5-3.92,1.43,3.92Z" transform="translate(-3.74 -9.54)"/><path class="cls-19" d="M573.07,563.4V564l1.25.31v3.55a4.13,4.13,0,0,1-2.49.83c-2.5,0-4.11-2.09-4.11-5s1.57-5.26,4.17-5.26a3.93,3.93,0,0,1,3.69,3l.35-.21v-3.48l-.32-.17-.7.85a7,7,0,0,0-3.05-.78,6.18,6.18,0,0,0-6.19,6.08,5.61,5.61,0,0,0,5.32,5.88h.4a5.7,5.7,0,0,0,3.55-1.18l1,.65h.31v-4.74l1-.4v-.51Z" transform="translate(-3.74 -9.54)"/><circle class="cls-20" cx="435.75" cy="497.21" r="6.56"/><circle class="cls-20" cx="363.98" cy="497.46" r="6.56"/><circle class="cls-20" cx="634.26" cy="497.96" r="6.56"/><text class="cls-2" transform="translate(589.83 248.12)">Libia</text></svg>