<svg id="138f2d96-ee36-487a-bfe5-0a892455b7b2" data-name="Capa 1" xmlns="http://www.w3.org/2000/svg" viewBox="0 0 600 550"><defs><style>.\31 06db1ee-88da-4196-ac27-7cd555fcffdb,.\36 c4ec592-9e42-49c1-ad8d-214cf229a3a1,.\38 8384a2c-7ce0-4c27-91a0-086ae8b50cab,.b9a88e87-3558-47a4-8ce3-912927c49380,.d2419053-6a6c-4b59-a207-8df486c4ee3e,.d4c01687-9fc7-4e39-bdb0-a30f55d7f812,.db0fbf90-d4c7-4e1e-ac3a-04718c52e3d5,.f3b0da19-d32f-4f6b-84d8-b65085761fd2,.f6538aa4-dc1c-48e1-9a15-6e7766533e95{fill:none;}.b9a88e87-3558-47a4-8ce3-912927c49380{stroke:#e6e6e6;}.\31 06db1ee-88da-4196-ac27-7cd555fcffdb,.\32 c0ddb26-4eb2-45d7-8c49-189cc4580c73,.\36 30ed54c-b568-450c-b123-8d3a1fe6a425,.\36 cf7b569-320a-4e98-95cb-cf9f6bc3164b,.\38 8384a2c-7ce0-4c27-91a0-086ae8b50cab,.ab9b8090-657e-4657-a7ff-dc5b3fca5c6f,.b42e600d-9150-42ae-b018-c95038de2670,.bb3a77a1-5418-47fe-af77-9d4bb07dafde,.d123fabd-5036-40e0-b296-bf040c3180f0,.e4a4834d-7bc7-418f-8c49-1d26c438d70b{isolation:isolate;}.\32 c0ddb26-4eb2-45d7-8c49-189cc4580c73{font-size:14.64px;fill:gray;}.\32 c0ddb26-4eb2-45d7-8c49-189cc4580c73,.\33 4c0bf7c-a8ad-4a42-b925-b0ee028f73d3,.\38 4b446ec-8875-4d79-8b8b-2f5863fd740b,.fd1c949e-7ebb-472e-8651-f476fc9da283{font-family:ArialMT, Arial;}.d2419053-6a6c-4b59-a207-8df486c4ee3e{stroke:#757575;}.db0fbf90-d4c7-4e1e-ac3a-04718c52e3d5{stroke:#000;}.\33 f32b096-2e8d-47b0-a31c-2474d56725bb,.\36 30ed54c-b568-450c-b123-8d3a1fe6a425{fill:#f49e20;}.\30 a26ca72-e98d-43ea-a310-54561d504873,.\33 f32b096-2e8d-47b0-a31c-2474d56725bb,.\36 30ed54c-b568-450c-b123-8d3a1fe6a425,.\37 bb48b75-5449-4e11-a871-a979403fd539,.b42e600d-9150-42ae-b018-c95038de2670,.c6a6fb20-66b5-4c22-913c-0814fd9c0b8b,.d123fabd-5036-40e0-b296-bf040c3180f0,.e4a4834d-7bc7-418f-8c49-1d26c438d70b{opacity:0.62;}.c6a6fb20-66b5-4c22-913c-0814fd9c0b8b,.e4a4834d-7bc7-418f-8c49-1d26c438d70b{fill:#15acb1;}.d123fabd-5036-40e0-b296-bf040c3180f0{fill:#a01f51;}.\37 bb48b75-5449-4e11-a871-a979403fd539,.b42e600d-9150-42ae-b018-c95038de2670{fill:#3f4d78;}.\36 c4ec592-9e42-49c1-ad8d-214cf229a3a1{stroke:#f49e20;}.\31 06db1ee-88da-4196-ac27-7cd555fcffdb,.\36 c4ec592-9e42-49c1-ad8d-214cf229a3a1,.\38 8384a2c-7ce0-4c27-91a0-086ae8b50cab,.d4c01687-9fc7-4e39-bdb0-a30f55d7f812,.f3b0da19-d32f-4f6b-84d8-b65085761fd2,.f6538aa4-dc1c-48e1-9a15-6e7766533e95{stroke-linecap:round;stroke-linejoin:round;}.\36 c4ec592-9e42-49c1-ad8d-214cf229a3a1,.d4c01687-9fc7-4e39-bdb0-a30f55d7f812,.f3b0da19-d32f-4f6b-84d8-b65085761fd2,.f6538aa4-dc1c-48e1-9a15-6e7766533e95{stroke-width:2px;}.f3b0da19-d32f-4f6b-84d8-b65085761fd2{stroke:#15acb1;}.f6538aa4-dc1c-48e1-9a15-6e7766533e95{stroke:#a01f51;}.d4c01687-9fc7-4e39-bdb0-a30f55d7f812{stroke:#3f4d78;}.\31 06db1ee-88da-4196-ac27-7cd555fcffdb,.\36 cf7b569-320a-4e98-95cb-cf9f6bc3164b,.\38 8384a2c-7ce0-4c27-91a0-086ae8b50cab,.ab9b8090-657e-4657-a7ff-dc5b3fca5c6f{font-size:13.17px;}.\36 cf7b569-320a-4e98-95cb-cf9f6bc3164b,.ab9b8090-657e-4657-a7ff-dc5b3fca5c6f{fill:#fff;}.\36 cf7b569-320a-4e98-95cb-cf9f6bc3164b,.\38 8384a2c-7ce0-4c27-91a0-086ae8b50cab{font-family:ArialMT-Bold, Arial MT;}.\30 a26ca72-e98d-43ea-a310-54561d504873,.\33 f32b096-2e8d-47b0-a31c-2474d56725bb,.\35 3596aca-708a-460d-98e9-aad034fc5510,.\36 cf7b569-320a-4e98-95cb-cf9f6bc3164b,.\37 bb48b75-5449-4e11-a871-a979403fd539,.\38 8384a2c-7ce0-4c27-91a0-086ae8b50cab,.c6a6fb20-66b5-4c22-913c-0814fd9c0b8b{font-weight:700;}.\31 06db1ee-88da-4196-ac27-7cd555fcffdb,.\38 8384a2c-7ce0-4c27-91a0-086ae8b50cab{stroke:#fff;stroke-width:5px;}.\31 06db1ee-88da-4196-ac27-7cd555fcffdb,.ab9b8090-657e-4657-a7ff-dc5b3fca5c6f{font-family:ArialMT, Arial MT;}.\35 3596aca-708a-460d-98e9-aad034fc5510{font-size:18px;}.\35 3596aca-708a-460d-98e9-aad034fc5510,.fd1c949e-7ebb-472e-8651-f476fc9da283{fill:#323232;}.\30 a26ca72-e98d-43ea-a310-54561d504873,.\33 f32b096-2e8d-47b0-a31c-2474d56725bb,.\35 3596aca-708a-460d-98e9-aad034fc5510,.\37 bb48b75-5449-4e11-a871-a979403fd539,.c6a6fb20-66b5-4c22-913c-0814fd9c0b8b{font-family:Arial-BoldMT, Arial;}.fd1c949e-7ebb-472e-8651-f476fc9da283{font-size:17px;}.\33 4c0bf7c-a8ad-4a42-b925-b0ee028f73d3{font-size:15px;}.\33 4c0bf7c-a8ad-4a42-b925-b0ee028f73d3,.\38 4b446ec-8875-4d79-8b8b-2f5863fd740b{fill:#757575;}.\35 8deabd8-58d8-4c29-9215-5290359ecfbf{letter-spacing:-0.07em;}.\30 a26ca72-e98d-43ea-a310-54561d504873,.\33 f32b096-2e8d-47b0-a31c-2474d56725bb,.\37 bb48b75-5449-4e11-a871-a979403fd539,.\38 4b446ec-8875-4d79-8b8b-2f5863fd740b,.c6a6fb20-66b5-4c22-913c-0814fd9c0b8b{font-size:14px;}.\30 a26ca72-e98d-43ea-a310-54561d504873{fill:#84083a;}.\34 57bb669-aff9-404e-8bc4-072a81c40d4b{letter-spacing:-0.04em;}.\35 513fcc5-865e-4a24-b39d-e1a457c8e95f{letter-spacing:-0.02em;}.e5751a42-4072-4627-b57d-9c768ee4c896{letter-spacing:-0.06em;}</style></defs><title>jovenesue</title><line class="b9a88e87-3558-47a4-8ce3-912927c49380" x1="10" y1="501.69" x2="587.29" y2="501.69"/><text class="2c0ddb26-4eb2-45d7-8c49-189cc4580c73" transform="translate(11.24 495.59) scale(1.01 1)">0</text><line class="b9a88e87-3558-47a4-8ce3-912927c49380" x1="10" y1="453.81" x2="587.29" y2="453.81"/><text class="2c0ddb26-4eb2-45d7-8c49-189cc4580c73" transform="translate(11.24 447.71) scale(1.01 1)">5</text><line class="b9a88e87-3558-47a4-8ce3-912927c49380" x1="10" y1="405.93" x2="587.29" y2="405.93"/><text class="2c0ddb26-4eb2-45d7-8c49-189cc4580c73" transform="translate(11.24 399.83) scale(1.01 1)">10</text><line class="b9a88e87-3558-47a4-8ce3-912927c49380" x1="10" y1="358.05" x2="587.29" y2="358.05"/><text class="2c0ddb26-4eb2-45d7-8c49-189cc4580c73" transform="translate(11.24 351.95) scale(1.01 1)">15</text><line class="b9a88e87-3558-47a4-8ce3-912927c49380" x1="10" y1="310.17" x2="587.29" y2="310.17"/><text class="2c0ddb26-4eb2-45d7-8c49-189cc4580c73" transform="translate(11.24 304.07) scale(1.01 1)">20</text><line class="b9a88e87-3558-47a4-8ce3-912927c49380" x1="10" y1="262.29" x2="587.29" y2="262.29"/><text class="2c0ddb26-4eb2-45d7-8c49-189cc4580c73" transform="translate(11.24 256.2) scale(1.01 1)">25</text><line class="b9a88e87-3558-47a4-8ce3-912927c49380" x1="10" y1="214.42" x2="587.29" y2="214.42"/><text class="2c0ddb26-4eb2-45d7-8c49-189cc4580c73" transform="translate(11.24 208.32) scale(1.01 1)">30</text><line class="b9a88e87-3558-47a4-8ce3-912927c49380" x1="10" y1="166.54" x2="587.29" y2="166.54"/><text class="2c0ddb26-4eb2-45d7-8c49-189cc4580c73" transform="translate(11.24 160.44) scale(1.01 1)">35</text><line class="b9a88e87-3558-47a4-8ce3-912927c49380" x1="10" y1="118.66" x2="587.29" y2="118.66"/><line class="d2419053-6a6c-4b59-a207-8df486c4ee3e" x1="244" y1="74.66" x2="588.29" y2="74.66"/><line class="d2419053-6a6c-4b59-a207-8df486c4ee3e" x1="8.5" y1="74.66" x2="228" y2="74.66"/><text class="2c0ddb26-4eb2-45d7-8c49-189cc4580c73" transform="translate(11.24 112.56) scale(1.01 1)">40</text><g class="bb3a77a1-5418-47fe-af77-9d4bb07dafde"><text class="2c0ddb26-4eb2-45d7-8c49-189cc4580c73" transform="translate(156.38 519.99) scale(1.01 1)">2013</text></g><g class="bb3a77a1-5418-47fe-af77-9d4bb07dafde"><text class="2c0ddb26-4eb2-45d7-8c49-189cc4580c73" transform="translate(256.68 519.99) scale(1.01 1)">2014</text></g><g class="bb3a77a1-5418-47fe-af77-9d4bb07dafde"><text class="2c0ddb26-4eb2-45d7-8c49-189cc4580c73" transform="translate(56.38 519.99) scale(1.01 1)">2012</text></g><g class="bb3a77a1-5418-47fe-af77-9d4bb07dafde"><text class="2c0ddb26-4eb2-45d7-8c49-189cc4580c73" transform="translate(356.98 519.99) scale(1.01 1)">2015</text></g><g class="bb3a77a1-5418-47fe-af77-9d4bb07dafde"><text class="2c0ddb26-4eb2-45d7-8c49-189cc4580c73" transform="translate(457.27 519.99) scale(1.01 1)">2016</text></g><g class="bb3a77a1-5418-47fe-af77-9d4bb07dafde"><text class="2c0ddb26-4eb2-45d7-8c49-189cc4580c73" transform="translate(557.85 519.99) scale(1.01 1)">2017</text></g><line class="db0fbf90-d4c7-4e1e-ac3a-04718c52e3d5" x1="10" y1="501.69" x2="587.29" y2="501.69"/><path class="630ed54c-b568-450c-b123-8d3a1fe6a425" d="M67.7,281.45a6.8,6.8,0,1,0,6.8-6.71A6.75,6.75,0,0,0,67.7,281.45Z"/><path class="630ed54c-b568-450c-b123-8d3a1fe6a425" d="M168.28,300.6a6.8,6.8,0,1,0,6.8-6.71A6.75,6.75,0,0,0,168.28,300.6Z"/><path class="630ed54c-b568-450c-b123-8d3a1fe6a425" d="M268.57,262.29a6.8,6.8,0,1,0,6.8-6.71A6.75,6.75,0,0,0,268.57,262.29Z"/><path class="630ed54c-b568-450c-b123-8d3a1fe6a425" d="M368.87,243.14a6.8,6.8,0,1,0,6.8-6.71A6.75,6.75,0,0,0,368.87,243.14Z"/><path class="630ed54c-b568-450c-b123-8d3a1fe6a425" d="M469.17,224a6.8,6.8,0,1,0,6.8-6.71A6.75,6.75,0,0,0,469.17,224Z"/><path class="630ed54c-b568-450c-b123-8d3a1fe6a425" d="M569.74,204.84a6.8,6.8,0,1,0,6.8-6.71A6.75,6.75,0,0,0,569.74,204.84Z"/><path class="e4a4834d-7bc7-418f-8c49-1d26c438d70b" d="M67.7,300.6a6.8,6.8,0,1,0,6.8-6.71A6.75,6.75,0,0,0,67.7,300.6Z"/><path class="e4a4834d-7bc7-418f-8c49-1d26c438d70b" d="M168.28,329.33a6.8,6.8,0,1,0,6.8-6.71A6.75,6.75,0,0,0,168.28,329.33Z"/><path class="e4a4834d-7bc7-418f-8c49-1d26c438d70b" d="M268.57,300.6a6.8,6.8,0,1,0,6.8-6.71A6.75,6.75,0,0,0,268.57,300.6Z"/><path class="e4a4834d-7bc7-418f-8c49-1d26c438d70b" d="M368.87,291a6.8,6.8,0,1,0,6.8-6.71A6.75,6.75,0,0,0,368.87,291Z"/><path class="e4a4834d-7bc7-418f-8c49-1d26c438d70b" d="M469.17,300.6a6.8,6.8,0,1,0,6.8-6.71A6.75,6.75,0,0,0,469.17,300.6Z"/><path class="e4a4834d-7bc7-418f-8c49-1d26c438d70b" d="M569.74,262.29a6.8,6.8,0,1,0,6.8-6.71A6.75,6.75,0,0,0,569.74,262.29Z"/><path class="d123fabd-5036-40e0-b296-bf040c3180f0" d="M67.7,271.87a6.8,6.8,0,1,0,6.8-6.71A6.75,6.75,0,0,0,67.7,271.87Z"/><path class="d123fabd-5036-40e0-b296-bf040c3180f0" d="M168.28,281.45a6.8,6.8,0,1,0,6.8-6.71A6.75,6.75,0,0,0,168.28,281.45Z"/><path class="d123fabd-5036-40e0-b296-bf040c3180f0" d="M368.87,195.26a6.8,6.8,0,1,0,6.8-6.71A6.75,6.75,0,0,0,368.87,195.26Z"/><path class="d123fabd-5036-40e0-b296-bf040c3180f0" d="M469.17,204.84a6.8,6.8,0,1,0,6.8-6.71A6.75,6.75,0,0,0,469.17,204.84Z"/><path class="d123fabd-5036-40e0-b296-bf040c3180f0" d="M569.74,147.39a6.8,6.8,0,1,0,6.8-6.71A6.75,6.75,0,0,0,569.74,147.39Z"/><path class="b42e600d-9150-42ae-b018-c95038de2670" d="M67.7,281.45a6.8,6.8,0,1,0,6.8-6.71A6.75,6.75,0,0,0,67.7,281.45Z"/><path class="b42e600d-9150-42ae-b018-c95038de2670" d="M168.28,319.75a6.8,6.8,0,1,0,6.8-6.71A6.75,6.75,0,0,0,168.28,319.75Z"/><path class="b42e600d-9150-42ae-b018-c95038de2670" d="M268.57,271.87a6.8,6.8,0,1,0,6.8-6.71A6.75,6.75,0,0,0,268.57,271.87Z"/><path class="b42e600d-9150-42ae-b018-c95038de2670" d="M368.87,252.72a6.8,6.8,0,1,0,6.8-6.71A6.75,6.75,0,0,0,368.87,252.72Z"/><path class="b42e600d-9150-42ae-b018-c95038de2670" d="M469.17,252.72A6.8,6.8,0,1,0,476,246,6.75,6.75,0,0,0,469.17,252.72Z"/><path class="b42e600d-9150-42ae-b018-c95038de2670" d="M569.74,224a6.8,6.8,0,1,0,6.8-6.71A6.75,6.75,0,0,0,569.74,224Z"/><path class="6c4ec592-9e42-49c1-ad8d-214cf229a3a1" d="M74.5,281.45,175.07,300.6l100.3-38.3,100.3-19.15L476,224l100.57-19.15"/><path class="f3b0da19-d32f-4f6b-84d8-b65085761fd2" d="M74.5,300.6l100.57,28.73,100.3-28.73L375.67,291,476,300.6l100.57-38.3"/><path class="f6538aa4-dc1c-48e1-9a15-6e7766533e95" d="M74.5,271.87l100.57,9.58,100.3-38.3,100.3-47.88L476,204.84l100.57-57.45"/><path class="d4c01687-9fc7-4e39-bdb0-a30f55d7f812" d="M74.5,281.45l100.57,38.3,100.3-47.88,100.3-19.15H476L576.54,224"/><g class="bb3a77a1-5418-47fe-af77-9d4bb07dafde"><text class="6cf7b569-320a-4e98-95cb-cf9f6bc3164b" transform="translate(271.66 211.06) scale(1.01 1)">25-39</text><text class="88384a2c-7ce0-4c27-91a0-086ae8b50cab" transform="translate(271.66 211.06) scale(1.01 1)">25-39</text><text class="ab9b8090-657e-4657-a7ff-dc5b3fca5c6f" transform="translate(271.66 226.92) scale(1.01 1)">2014</text><text class="106db1ee-88da-4196-ac27-7cd555fcffdb" transform="translate(271.66 226.92) scale(1.01 1)">2014</text></g><text class="53596aca-708a-460d-98e9-aad034fc5510" transform="translate(4 23.26)">Porcentaje de la población que se siente ciudadano europeo en la UE</text><text class="fd1c949e-7ebb-472e-8651-f476fc9da283" transform="translate(4 43.55)">Evolución desde 2012 a 2017, por franjas de edad en los países miembros</text><text class="34c0bf7c-a8ad-4a42-b925-b0ee028f73d3" transform="translate(546.33 67.77)">EDAD</text><text class="34c0bf7c-a8ad-4a42-b925-b0ee028f73d3" transform="translate(10 68.11)">PORCEN<tspan class="58deabd8-58d8-4c29-9215-5290359ecfbf" x="64.17" y="0">T</tspan><tspan x="72.22" y="0">AJE DE POBLACIÓN</tspan></text><text class="0a26ca72-e98d-43ea-a310-54561d504873" transform="translate(244 89.4)">DE 15<tspan class="457bb669-aff9-404e-8bc4-072a81c40d4b" x="38.91" y="0" xml:space="preserve"> A</tspan><tspan x="51.87" y="0" xml:space="preserve"> 24</tspan></text><text class="3f32b096-2e8d-47b0-a31c-2474d56725bb" transform="translate(335 89.4)">DE 25<tspan class="457bb669-aff9-404e-8bc4-072a81c40d4b" x="38.91" y="0" xml:space="preserve"> A</tspan><tspan x="51.87" y="0" xml:space="preserve"> 39</tspan></text><text class="7bb48b75-5449-4e11-a871-a979403fd539" transform="translate(429 89.4)">DE 40<tspan class="457bb669-aff9-404e-8bc4-072a81c40d4b" x="38.91" y="0" xml:space="preserve"> A</tspan><tspan x="51.87" y="0" xml:space="preserve"> 54</tspan></text><text class="c6a6fb20-66b5-4c22-913c-0814fd9c0b8b" transform="translate(522 89.4)">55<tspan class="5513fcc5-865e-4a24-b39d-e1a457c8e95f" x="15.57" y="0" xml:space="preserve"> Y</tspan><tspan x="28.29" y="0" xml:space="preserve"> MÁS</tspan></text><text class="84b446ec-8875-4d79-8b8b-2f5863fd740b" transform="translate(4 547.4)">Fuente: Eurobarómetro</text><text class="84b446ec-8875-4d79-8b8b-2f5863fd740b" transform="translate(483 547.4)">L<tspan class="e5751a42-4072-4627-b57d-9c768ee4c896" x="7.79" y="0">A</tspan><tspan x="16.35" y="0"> </tspan><tspan class="58deabd8-58d8-4c29-9215-5290359ecfbf" x="20.24" y="0">V</tspan><tspan x="28.54" y="0">ANGUARDI</tspan><tspan class="e5751a42-4072-4627-b57d-9c768ee4c896" x="102.44" y="0">A</tspan></text></svg>