<svg id="62c4e31e-8d65-4661-abe0-cc099e6132b7" data-name="Capa 1" xmlns="http://www.w3.org/2000/svg" viewBox="0 0 600 550"><defs><style>.\32 f406bdf-9b25-45da-8cb2-b54a25992be3,.\33 9309e06-d727-4637-adce-58f0e7f03999,.\33 d9c23ae-80e9-4e54-b73b-473516e24a9c,.\34 b7bf820-c0c4-41e7-8fe5-83e4b93dc9ea,.\37 338e1d7-409f-4ae0-bce1-d85f4e8a27c7,.\37 781f765-bbae-44ac-a404-6d6937a695eb,.\38 8113954-d415-444a-b7bf-4cda2c2328fc,.a9c413f1-389b-4a3c-9cb8-4c49f37dc412,.f201e204-25e5-42f3-8b35-bbd55e36f913{fill:none;}.\37 781f765-bbae-44ac-a404-6d6937a695eb{stroke:#e6e6e6;}.\31 6457045-1840-4bc0-87a7-6cab2757e48c,.\33 06f6d31-d881-4e9c-85bb-40b0f34894da,.\33 9309e06-d727-4637-adce-58f0e7f03999,.\33 d9c23ae-80e9-4e54-b73b-473516e24a9c,.\34 0d26a1f-2f94-465e-a74b-7130aee797dc,.\35 a21272f-a53b-48b4-a3f1-22fdaee486c0,.\38 7582c5b-1a9a-46cf-b5ac-7bed65063f33,.\39 65c17a6-9bf8-4af4-8a09-bd2e79671647,.b48421ed-b8ee-47ff-adc7-d1158f3e910d,.c1878e3a-fc64-41e0-95fc-fa098fcd9822{isolation:isolate;}.c1878e3a-fc64-41e0-95fc-fa098fcd9822{font-size:14.64px;fill:gray;}.\30 6bed70d-3661-46c8-aad3-a1c03cd39dc9,.\32 0e03d47-b572-4076-addb-56c28c44d2cb,.\38 3cdb7f3-6e68-4edc-b10e-99fe1009f30b,.c1878e3a-fc64-41e0-95fc-fa098fcd9822{font-family:ArialMT, Arial;}.\37 338e1d7-409f-4ae0-bce1-d85f4e8a27c7{stroke:#757575;}.a9c413f1-389b-4a3c-9cb8-4c49f37dc412{stroke:#000;}.\33 2554d2a-62f1-4489-b838-97421bfbeb6f,.\34 0d26a1f-2f94-465e-a74b-7130aee797dc{fill:#f49e20;}.\31 63a1a3e-3705-484b-98df-9509e532a1f7,.\31 6457045-1840-4bc0-87a7-6cab2757e48c,.\33 2554d2a-62f1-4489-b838-97421bfbeb6f,.\34 0d26a1f-2f94-465e-a74b-7130aee797dc,.\34 c45fcba-8493-45f9-9a3d-95f2d15cecf2,.\34 d77b3b6-b613-4e31-86b6-bba6e7cc0a84,.\35 a21272f-a53b-48b4-a3f1-22fdaee486c0,.\38 7582c5b-1a9a-46cf-b5ac-7bed65063f33{opacity:0.62;}.\31 63a1a3e-3705-484b-98df-9509e532a1f7,.\35 a21272f-a53b-48b4-a3f1-22fdaee486c0{fill:#15acb1;}.\38 7582c5b-1a9a-46cf-b5ac-7bed65063f33{fill:#a01f51;}.\31 6457045-1840-4bc0-87a7-6cab2757e48c,.\34 d77b3b6-b613-4e31-86b6-bba6e7cc0a84{fill:#3f4d78;}.\34 b7bf820-c0c4-41e7-8fe5-83e4b93dc9ea{stroke:#f49e20;}.\32 f406bdf-9b25-45da-8cb2-b54a25992be3,.\33 9309e06-d727-4637-adce-58f0e7f03999,.\33 d9c23ae-80e9-4e54-b73b-473516e24a9c,.\34 b7bf820-c0c4-41e7-8fe5-83e4b93dc9ea,.\38 8113954-d415-444a-b7bf-4cda2c2328fc,.f201e204-25e5-42f3-8b35-bbd55e36f913{stroke-linecap:round;stroke-linejoin:round;}.\32 f406bdf-9b25-45da-8cb2-b54a25992be3,.\34 b7bf820-c0c4-41e7-8fe5-83e4b93dc9ea,.\38 8113954-d415-444a-b7bf-4cda2c2328fc,.f201e204-25e5-42f3-8b35-bbd55e36f913{stroke-width:2px;}.\38 8113954-d415-444a-b7bf-4cda2c2328fc{stroke:#15acb1;}.f201e204-25e5-42f3-8b35-bbd55e36f913{stroke:#a01f51;}.\32 f406bdf-9b25-45da-8cb2-b54a25992be3{stroke:#3f4d78;}.\33 06f6d31-d881-4e9c-85bb-40b0f34894da,.\33 9309e06-d727-4637-adce-58f0e7f03999,.\33 d9c23ae-80e9-4e54-b73b-473516e24a9c,.\39 65c17a6-9bf8-4af4-8a09-bd2e79671647{font-size:13.17px;}.\33 06f6d31-d881-4e9c-85bb-40b0f34894da,.\39 65c17a6-9bf8-4af4-8a09-bd2e79671647{fill:#fff;}.\33 d9c23ae-80e9-4e54-b73b-473516e24a9c,.\39 65c17a6-9bf8-4af4-8a09-bd2e79671647{font-family:ArialMT-Bold, Arial MT;}.\31 63a1a3e-3705-484b-98df-9509e532a1f7,.\33 2554d2a-62f1-4489-b838-97421bfbeb6f,.\33 d9c23ae-80e9-4e54-b73b-473516e24a9c,.\34 c45fcba-8493-45f9-9a3d-95f2d15cecf2,.\34 d77b3b6-b613-4e31-86b6-bba6e7cc0a84,.\39 65c17a6-9bf8-4af4-8a09-bd2e79671647,.b3f7615c-63a8-4a45-b1d4-fbb51d8f4389{font-weight:700;}.\33 9309e06-d727-4637-adce-58f0e7f03999,.\33 d9c23ae-80e9-4e54-b73b-473516e24a9c{stroke:#fff;stroke-width:5px;}.\33 06f6d31-d881-4e9c-85bb-40b0f34894da,.\33 9309e06-d727-4637-adce-58f0e7f03999{font-family:ArialMT, Arial MT;}.b3f7615c-63a8-4a45-b1d4-fbb51d8f4389{font-size:18px;}.\32 0e03d47-b572-4076-addb-56c28c44d2cb,.b3f7615c-63a8-4a45-b1d4-fbb51d8f4389{fill:#323232;}.\31 63a1a3e-3705-484b-98df-9509e532a1f7,.\33 2554d2a-62f1-4489-b838-97421bfbeb6f,.\34 c45fcba-8493-45f9-9a3d-95f2d15cecf2,.\34 d77b3b6-b613-4e31-86b6-bba6e7cc0a84,.b3f7615c-63a8-4a45-b1d4-fbb51d8f4389{font-family:Arial-BoldMT, Arial;}.\32 0e03d47-b572-4076-addb-56c28c44d2cb{font-size:17px;}.\30 6bed70d-3661-46c8-aad3-a1c03cd39dc9{font-size:15px;}.\30 6bed70d-3661-46c8-aad3-a1c03cd39dc9,.\38 3cdb7f3-6e68-4edc-b10e-99fe1009f30b{fill:#757575;}.\37 9844db7-dbaf-4704-b1b7-fc00975116e8{letter-spacing:-0.07em;}.\31 63a1a3e-3705-484b-98df-9509e532a1f7,.\33 2554d2a-62f1-4489-b838-97421bfbeb6f,.\34 c45fcba-8493-45f9-9a3d-95f2d15cecf2,.\34 d77b3b6-b613-4e31-86b6-bba6e7cc0a84,.\38 3cdb7f3-6e68-4edc-b10e-99fe1009f30b{font-size:14px;}.\34 c45fcba-8493-45f9-9a3d-95f2d15cecf2{fill:#84083a;}.c514ed28-3577-4df6-ac49-cfd1ff10f23f{letter-spacing:-0.04em;}.\36 061eb40-3512-4a7e-bfcf-1799e18bbea2{letter-spacing:-0.02em;}.a59dd609-c893-4a3a-a397-8e341129ad21{letter-spacing:-0.06em;}</style></defs><title>jovenesuebis</title><line class="7781f765-bbae-44ac-a404-6d6937a695eb" x1="10" y1="501.69" x2="587.29" y2="501.69"/><text class="c1878e3a-fc64-41e0-95fc-fa098fcd9822" transform="translate(11.24 495.59) scale(1.01 1)">0</text><line class="7781f765-bbae-44ac-a404-6d6937a695eb" x1="10" y1="453.81" x2="587.29" y2="453.81"/><text class="c1878e3a-fc64-41e0-95fc-fa098fcd9822" transform="translate(11.24 447.71) scale(1.01 1)">5</text><line class="7781f765-bbae-44ac-a404-6d6937a695eb" x1="10" y1="405.93" x2="587.29" y2="405.93"/><text class="c1878e3a-fc64-41e0-95fc-fa098fcd9822" transform="translate(11.24 399.83) scale(1.01 1)">10</text><line class="7781f765-bbae-44ac-a404-6d6937a695eb" x1="10" y1="358.05" x2="587.29" y2="358.05"/><text class="c1878e3a-fc64-41e0-95fc-fa098fcd9822" transform="translate(11.24 351.95) scale(1.01 1)">15</text><line class="7781f765-bbae-44ac-a404-6d6937a695eb" x1="10" y1="310.17" x2="587.29" y2="310.17"/><text class="c1878e3a-fc64-41e0-95fc-fa098fcd9822" transform="translate(11.24 304.07) scale(1.01 1)">20</text><line class="7781f765-bbae-44ac-a404-6d6937a695eb" x1="10" y1="262.29" x2="587.29" y2="262.29"/><text class="c1878e3a-fc64-41e0-95fc-fa098fcd9822" transform="translate(11.24 256.2) scale(1.01 1)">25</text><line class="7781f765-bbae-44ac-a404-6d6937a695eb" x1="10" y1="214.42" x2="587.29" y2="214.42"/><text class="c1878e3a-fc64-41e0-95fc-fa098fcd9822" transform="translate(11.24 208.32) scale(1.01 1)">30</text><line class="7781f765-bbae-44ac-a404-6d6937a695eb" x1="10" y1="166.54" x2="587.29" y2="166.54"/><text class="c1878e3a-fc64-41e0-95fc-fa098fcd9822" transform="translate(11.24 160.44) scale(1.01 1)">35</text><line class="7781f765-bbae-44ac-a404-6d6937a695eb" x1="10" y1="118.66" x2="587.29" y2="118.66"/><line class="7338e1d7-409f-4ae0-bce1-d85f4e8a27c7" x1="244" y1="74.66" x2="588.29" y2="74.66"/><line class="7338e1d7-409f-4ae0-bce1-d85f4e8a27c7" x1="8.5" y1="74.66" x2="228" y2="74.66"/><text class="c1878e3a-fc64-41e0-95fc-fa098fcd9822" transform="translate(11.24 112.56) scale(1.01 1)">40</text><g class="b48421ed-b8ee-47ff-adc7-d1158f3e910d"><text class="c1878e3a-fc64-41e0-95fc-fa098fcd9822" transform="translate(156.38 519.99) scale(1.01 1)">2013</text></g><g class="b48421ed-b8ee-47ff-adc7-d1158f3e910d"><text class="c1878e3a-fc64-41e0-95fc-fa098fcd9822" transform="translate(256.68 519.99) scale(1.01 1)">2014</text></g><g class="b48421ed-b8ee-47ff-adc7-d1158f3e910d"><text class="c1878e3a-fc64-41e0-95fc-fa098fcd9822" transform="translate(56.38 519.99) scale(1.01 1)">2012</text></g><g class="b48421ed-b8ee-47ff-adc7-d1158f3e910d"><text class="c1878e3a-fc64-41e0-95fc-fa098fcd9822" transform="translate(356.98 519.99) scale(1.01 1)">2015</text></g><g class="b48421ed-b8ee-47ff-adc7-d1158f3e910d"><text class="c1878e3a-fc64-41e0-95fc-fa098fcd9822" transform="translate(457.27 519.99) scale(1.01 1)">2016</text></g><g class="b48421ed-b8ee-47ff-adc7-d1158f3e910d"><text class="c1878e3a-fc64-41e0-95fc-fa098fcd9822" transform="translate(557.85 519.99) scale(1.01 1)">2017</text></g><line class="a9c413f1-389b-4a3c-9cb8-4c49f37dc412" x1="10" y1="501.69" x2="587.29" y2="501.69"/><path class="40d26a1f-2f94-465e-a74b-7130aee797dc" d="M67.7,281.45a6.8,6.8,0,1,0,6.8-6.71A6.75,6.75,0,0,0,67.7,281.45Z"/><path class="40d26a1f-2f94-465e-a74b-7130aee797dc" d="M168.28,300.6a6.8,6.8,0,1,0,6.8-6.71A6.75,6.75,0,0,0,168.28,300.6Z"/><path class="40d26a1f-2f94-465e-a74b-7130aee797dc" d="M268.57,262.29a6.8,6.8,0,1,0,6.8-6.71A6.75,6.75,0,0,0,268.57,262.29Z"/><path class="40d26a1f-2f94-465e-a74b-7130aee797dc" d="M368.87,243.14a6.8,6.8,0,1,0,6.8-6.71A6.75,6.75,0,0,0,368.87,243.14Z"/><path class="40d26a1f-2f94-465e-a74b-7130aee797dc" d="M469.17,224a6.8,6.8,0,1,0,6.8-6.71A6.75,6.75,0,0,0,469.17,224Z"/><path class="40d26a1f-2f94-465e-a74b-7130aee797dc" d="M569.74,204.84a6.8,6.8,0,1,0,6.8-6.71A6.75,6.75,0,0,0,569.74,204.84Z"/><path class="5a21272f-a53b-48b4-a3f1-22fdaee486c0" d="M67.7,300.6a6.8,6.8,0,1,0,6.8-6.71A6.75,6.75,0,0,0,67.7,300.6Z"/><path class="5a21272f-a53b-48b4-a3f1-22fdaee486c0" d="M168.28,329.33a6.8,6.8,0,1,0,6.8-6.71A6.75,6.75,0,0,0,168.28,329.33Z"/><path class="5a21272f-a53b-48b4-a3f1-22fdaee486c0" d="M268.57,300.6a6.8,6.8,0,1,0,6.8-6.71A6.75,6.75,0,0,0,268.57,300.6Z"/><path class="5a21272f-a53b-48b4-a3f1-22fdaee486c0" d="M368.87,291a6.8,6.8,0,1,0,6.8-6.71A6.75,6.75,0,0,0,368.87,291Z"/><path class="5a21272f-a53b-48b4-a3f1-22fdaee486c0" d="M469.17,300.6a6.8,6.8,0,1,0,6.8-6.71A6.75,6.75,0,0,0,469.17,300.6Z"/><path class="5a21272f-a53b-48b4-a3f1-22fdaee486c0" d="M569.74,262.29a6.8,6.8,0,1,0,6.8-6.71A6.75,6.75,0,0,0,569.74,262.29Z"/><path class="87582c5b-1a9a-46cf-b5ac-7bed65063f33" d="M67.7,271.87a6.8,6.8,0,1,0,6.8-6.71A6.75,6.75,0,0,0,67.7,271.87Z"/><path class="87582c5b-1a9a-46cf-b5ac-7bed65063f33" d="M168.28,281.45a6.8,6.8,0,1,0,6.8-6.71A6.75,6.75,0,0,0,168.28,281.45Z"/><path class="87582c5b-1a9a-46cf-b5ac-7bed65063f33" d="M267.28,243.45a6.8,6.8,0,1,0,6.8-6.71A6.75,6.75,0,0,0,267.28,243.45Z"/><path class="87582c5b-1a9a-46cf-b5ac-7bed65063f33" d="M368.87,195.26a6.8,6.8,0,1,0,6.8-6.71A6.75,6.75,0,0,0,368.87,195.26Z"/><path class="87582c5b-1a9a-46cf-b5ac-7bed65063f33" d="M469.17,204.84a6.8,6.8,0,1,0,6.8-6.71A6.75,6.75,0,0,0,469.17,204.84Z"/><path class="87582c5b-1a9a-46cf-b5ac-7bed65063f33" d="M569.74,147.39a6.8,6.8,0,1,0,6.8-6.71A6.75,6.75,0,0,0,569.74,147.39Z"/><path class="16457045-1840-4bc0-87a7-6cab2757e48c" d="M67.7,281.45a6.8,6.8,0,1,0,6.8-6.71A6.75,6.75,0,0,0,67.7,281.45Z"/><path class="16457045-1840-4bc0-87a7-6cab2757e48c" d="M168.28,319.75a6.8,6.8,0,1,0,6.8-6.71A6.75,6.75,0,0,0,168.28,319.75Z"/><path class="16457045-1840-4bc0-87a7-6cab2757e48c" d="M268.57,271.87a6.8,6.8,0,1,0,6.8-6.71A6.75,6.75,0,0,0,268.57,271.87Z"/><path class="16457045-1840-4bc0-87a7-6cab2757e48c" d="M368.87,252.72a6.8,6.8,0,1,0,6.8-6.71A6.75,6.75,0,0,0,368.87,252.72Z"/><path class="16457045-1840-4bc0-87a7-6cab2757e48c" d="M469.17,252.72A6.8,6.8,0,1,0,476,246,6.75,6.75,0,0,0,469.17,252.72Z"/><path class="16457045-1840-4bc0-87a7-6cab2757e48c" d="M569.74,224a6.8,6.8,0,1,0,6.8-6.71A6.75,6.75,0,0,0,569.74,224Z"/><path class="4b7bf820-c0c4-41e7-8fe5-83e4b93dc9ea" d="M74.5,281.45,175.07,300.6l100.3-38.3,100.3-19.15L476,224l100.57-19.15"/><path class="88113954-d415-444a-b7bf-4cda2c2328fc" d="M74.5,300.6l100.57,28.73,100.3-28.73L375.67,291,476,300.6l100.57-38.3"/><path class="f201e204-25e5-42f3-8b35-bbd55e36f913" d="M74.5,271.87l100.57,9.58,100.3-38.3,100.3-47.88L476,204.84l100.57-57.45"/><path class="2f406bdf-9b25-45da-8cb2-b54a25992be3" d="M74.5,281.45l100.57,38.3,100.3-47.88,100.3-19.15H476L576.54,224"/><g class="b48421ed-b8ee-47ff-adc7-d1158f3e910d"><text class="965c17a6-9bf8-4af4-8a09-bd2e79671647" transform="translate(271.66 211.06) scale(1.01 1)">25-39</text><text class="3d9c23ae-80e9-4e54-b73b-473516e24a9c" transform="translate(271.66 211.06) scale(1.01 1)">25-39</text><text class="306f6d31-d881-4e9c-85bb-40b0f34894da" transform="translate(271.66 226.92) scale(1.01 1)">2014</text><text class="39309e06-d727-4637-adce-58f0e7f03999" transform="translate(271.66 226.92) scale(1.01 1)">2014</text></g><text class="b3f7615c-63a8-4a45-b1d4-fbb51d8f4389" transform="translate(4 23.26)">Porcentaje de la población que se siente ciudadano europeo en la UE</text><text class="20e03d47-b572-4076-addb-56c28c44d2cb" transform="translate(4 43.55)">Evolución desde 2012 a 2017, por franjas de edad en los países miembros</text><text class="06bed70d-3661-46c8-aad3-a1c03cd39dc9" transform="translate(546.33 67.77)">EDAD</text><text class="06bed70d-3661-46c8-aad3-a1c03cd39dc9" transform="translate(10 68.11)">PORCEN<tspan class="79844db7-dbaf-4704-b1b7-fc00975116e8" x="64.17" y="0">T</tspan><tspan x="72.22" y="0">AJE DE POBLACIÓN</tspan></text><text class="4c45fcba-8493-45f9-9a3d-95f2d15cecf2" transform="translate(244 89.4)">DE 15<tspan class="c514ed28-3577-4df6-ac49-cfd1ff10f23f" x="38.91" y="0" xml:space="preserve"> A</tspan><tspan x="51.87" y="0" xml:space="preserve"> 24</tspan></text><text class="32554d2a-62f1-4489-b838-97421bfbeb6f" transform="translate(335 89.4)">DE 25<tspan class="c514ed28-3577-4df6-ac49-cfd1ff10f23f" x="38.91" y="0" xml:space="preserve"> A</tspan><tspan x="51.87" y="0" xml:space="preserve"> 39</tspan></text><text class="4d77b3b6-b613-4e31-86b6-bba6e7cc0a84" transform="translate(429 89.4)">DE 40<tspan class="c514ed28-3577-4df6-ac49-cfd1ff10f23f" x="38.91" y="0" xml:space="preserve"> A</tspan><tspan x="51.87" y="0" xml:space="preserve"> 54</tspan></text><text class="163a1a3e-3705-484b-98df-9509e532a1f7" transform="translate(522 89.4)">55<tspan class="6061eb40-3512-4a7e-bfcf-1799e18bbea2" x="15.57" y="0" xml:space="preserve"> Y</tspan><tspan x="28.29" y="0" xml:space="preserve"> MÁS</tspan></text><text class="83cdb7f3-6e68-4edc-b10e-99fe1009f30b" transform="translate(4 547.4)">Fuente: Eurobarómetro</text><text class="83cdb7f3-6e68-4edc-b10e-99fe1009f30b" transform="translate(483 547.4)">L<tspan class="a59dd609-c893-4a3a-a397-8e341129ad21" x="7.79" y="0">A</tspan><tspan x="16.35" y="0"> </tspan><tspan class="79844db7-dbaf-4704-b1b7-fc00975116e8" x="20.24" y="0">V</tspan><tspan x="28.54" y="0">ANGUARDI</tspan><tspan class="a59dd609-c893-4a3a-a397-8e341129ad21" x="102.44" y="0">A</tspan></text></svg>