<svg xmlns="http://www.w3.org/2000/svg" viewBox="0 0 500 487"><defs><style>.f75b2258-e35d-4687-bc08-14bcaed7e304{fill:#f4e4e4;fill-opacity:0;}.\31 1d2faa4-0c29-4bf2-9599-38e9576dced3,.\31 c4c741f-3da5-4b03-97f5-b43694cc2651,.\32 1099ba7-bdc1-4cd7-9b13-ecba8516bfd1,.\33 848396b-47bb-400b-bae3-a71b1dc3de60,.\34 9da4b1e-e76f-4813-8d64-5f904d52eb9b,.\34 fdead55-5970-485e-bd44-e790dd270d1b,.\36 dc136f5-f07c-474f-bbf3-32caf276dc58,.\37 5159be9-a1c7-4d54-9d00-198dbbc5d723,.\38 99f68f8-f6f8-4405-b54e-280f209499a0,.\39 f462033-e7d1-487b-a6dc-bd4611a761e7,.\39 ffc7761-9c78-4223-b078-6b67a7990129,.cee82a28-c4df-4bd5-a3f1-9f4df5f43497,.d18712e6-bfba-483c-aedb-39dca924a14e,.d9a298c0-f996-4b66-ad59-413a24aaca0c,.e5e29575-1d5f-4bf5-96b8-2a9bc6bd6eb3,.eb5c5d57-c355-4375-b354-70951629e68b,.f4dfca5e-8568-468f-b2bf-ebbe5591fc90,.f75b2258-e35d-4687-bc08-14bcaed7e304,.fbc36d43-09cf-431c-9ef8-b1a6b757d1c0{stroke:#fff;}.\33 848396b-47bb-400b-bae3-a71b1dc3de60,.\34 fdead55-5970-485e-bd44-e790dd270d1b,.\36 dc136f5-f07c-474f-bbf3-32caf276dc58,.\37 5159be9-a1c7-4d54-9d00-198dbbc5d723,.d9a298c0-f996-4b66-ad59-413a24aaca0c,.e5e29575-1d5f-4bf5-96b8-2a9bc6bd6eb3,.f75b2258-e35d-4687-bc08-14bcaed7e304{stroke-width:0.5px;}.\37 5159be9-a1c7-4d54-9d00-198dbbc5d723,.eb5c5d57-c355-4375-b354-70951629e68b{fill:#f49e20;}.\31 1d2faa4-0c29-4bf2-9599-38e9576dced3,.\31 c4c741f-3da5-4b03-97f5-b43694cc2651,.\32 1099ba7-bdc1-4cd7-9b13-ecba8516bfd1,.\33 848396b-47bb-400b-bae3-a71b1dc3de60,.\34 9da4b1e-e76f-4813-8d64-5f904d52eb9b,.\34 fdead55-5970-485e-bd44-e790dd270d1b,.\36 dc136f5-f07c-474f-bbf3-32caf276dc58,.\37 5159be9-a1c7-4d54-9d00-198dbbc5d723,.\37 b284b68-759c-4462-b77a-2d5a54f2a240,.\38 99f68f8-f6f8-4405-b54e-280f209499a0,.\39 f462033-e7d1-487b-a6dc-bd4611a761e7,.\39 ffc7761-9c78-4223-b078-6b67a7990129,.cee82a28-c4df-4bd5-a3f1-9f4df5f43497,.d18712e6-bfba-483c-aedb-39dca924a14e,.d9a298c0-f996-4b66-ad59-413a24aaca0c,.e5e29575-1d5f-4bf5-96b8-2a9bc6bd6eb3,.eb5c5d57-c355-4375-b354-70951629e68b,.f4dfca5e-8568-468f-b2bf-ebbe5591fc90,.fbc36d43-09cf-431c-9ef8-b1a6b757d1c0{stroke-miterlimit:10;}.\31 1d2faa4-0c29-4bf2-9599-38e9576dced3,.\36 dc136f5-f07c-474f-bbf3-32caf276dc58{fill:#f9f077;}.\34 fdead55-5970-485e-bd44-e790dd270d1b,.f4dfca5e-8568-468f-b2bf-ebbe5591fc90{fill:#d57928;}.d9a298c0-f996-4b66-ad59-413a24aaca0c,.fbc36d43-09cf-431c-9ef8-b1a6b757d1c0{fill:#fecb41;}.\32 1099ba7-bdc1-4cd7-9b13-ecba8516bfd1,.\33 848396b-47bb-400b-bae3-a71b1dc3de60{fill:#136361;}.\39 ffc7761-9c78-4223-b078-6b67a7990129,.e5e29575-1d5f-4bf5-96b8-2a9bc6bd6eb3{fill:#159094;}.\32 4b7872f-4c04-4bf6-9a1a-d3dab682777b{font-size:11px;}.\30 46ffdcf-6b33-4dd2-97eb-e1c74350100a,.\32 3b85df2-cd6c-408c-8a1d-399ccd978f34,.\32 4b7872f-4c04-4bf6-9a1a-d3dab682777b,.\36 6bdab8d-644d-4580-886a-0c44106b4bd7,.\36 7a77ea2-3f44-4038-82f0-49302f9696be,.\38 9c69d02-ed16-4dc1-af25-0146e94107fc,.a32737aa-c550-4f83-89cd-2ed85e445540,.d4a02704-e8cc-46a3-87ce-62d55211100e{fill:#757575;}.\32 3b85df2-cd6c-408c-8a1d-399ccd978f34,.\32 4b7872f-4c04-4bf6-9a1a-d3dab682777b,.\36 245f964-b161-480d-8ced-0ea3f0aa1dd0,.\37 f4d1130-452f-40c1-9831-bc1bf1cb513b,.a32737aa-c550-4f83-89cd-2ed85e445540{font-family:ArialMT, Arial;}.\30 46ffdcf-6b33-4dd2-97eb-e1c74350100a,.ae38f35e-a0aa-4ecf-aa4f-9f7e7bdecd7c{letter-spacing:-0.07em;}.\32 8542711-2e10-4230-bc26-c9ebbf65cd5d{letter-spacing:-0.04em;}.\37 b284b68-759c-4462-b77a-2d5a54f2a240{fill:none;stroke:#757575;}.b5064b41-cc1c-456a-8eab-66de4c2a9741{font-size:21px;font-family:Arial-BoldMT, Arial;font-weight:700;}.\36 245f964-b161-480d-8ced-0ea3f0aa1dd0,.b5064b41-cc1c-456a-8eab-66de4c2a9741{fill:#323232;}.\32 3b85df2-cd6c-408c-8a1d-399ccd978f34,.\36 245f964-b161-480d-8ced-0ea3f0aa1dd0,.\37 f4d1130-452f-40c1-9831-bc1bf1cb513b{font-size:12px;}.\37 46c1942-0601-4c67-a121-b47240ef24d8,.\38 9c69d02-ed16-4dc1-af25-0146e94107fc{letter-spacing:-0.02em;}.\36 6bdab8d-644d-4580-886a-0c44106b4bd7{letter-spacing:-0.11em;}.\38 7cd79bd-564a-4f7c-ac0a-e2db9429e088,.d4a02704-e8cc-46a3-87ce-62d55211100e{letter-spacing:-0.06em;}.\37 f4d1130-452f-40c1-9831-bc1bf1cb513b{fill:#fff;}.cee82a28-c4df-4bd5-a3f1-9f4df5f43497{fill:#af5b1c;}.\39 f462033-e7d1-487b-a6dc-bd4611a761e7{fill:#fff7c0;}.a32737aa-c550-4f83-89cd-2ed85e445540{font-size:10px;}.\37 6c78453-a00c-4f85-952b-d890602412ec{font-size:7px;}.\31 c4c741f-3da5-4b03-97f5-b43694cc2651{fill:#15acb1;}.\34 9da4b1e-e76f-4813-8d64-5f904d52eb9b{fill:#89d2d8;}.d18712e6-bfba-483c-aedb-39dca924a14e{fill:#c9f3f4;}.\38 99f68f8-f6f8-4405-b54e-280f209499a0{fill:#e3ffff;}</style></defs><title>madrid01</title><g id="6bdccdbb-f9b8-40d1-99f4-0a2c18310fb6" data-name="Capa 1"><g id="1e65b5e7-b142-4b86-b84d-e4d271927c2c" data-name="layer1"><path id="424f3571-c619-40a0-9233-f31efb2ea29e" data-name="path4315" class="f75b2258-e35d-4687-bc08-14bcaed7e304" d="M169.25,58.75l-2.42.45-2.27,2.21L162.9,65l-1.25,8.69-.89,1.71-1,1.14-2,.88-3.17,1.71-3.42,2.16-3,2.65s-1.27,2-1.46,2.48-1.08,2.73-1.08,2.73-.5,2.33-.69,2.71-1.33,2.79-1.33,2.79l-2.6,2.85-1.44,1.14-3.25,2.59-9.94-.13-4.63-2.09-4.11-.25-3.25-3.61-6.15-3.87-7.28-3.54-7.92-3.29-2.42.82-4,.31-6.15-.19L80,85l1.33-3.86-2.67-2-2.21-1.77-2.27.13.38,1.9,2.92,5L74.76,86.7l-4.5,1-8.11.06-4.63,2-.77-.82-3.86-.08-7.54,3-4.5-3.54-1.71-.75-.89.78c.19,1.16-2.41.29-3.42.89A9.84,9.84,0,0,0,33,91a26.82,26.82,0,0,1-2.68,2c-.71.53-.3,2-.19,2.51A4.7,4.7,0,0,1,29.81,98c-.17.68-1.18,1.16-1.43,2.15-.18.74-1.46,1.65-1.79,2S27,104.43,27,105a14.42,14.42,0,0,0,.35,2.87c.17.67,1.61,1.16,1.8,1.25s-.5,1.69-.36,2,2.25.45,2.68.53a20.29,20.29,0,0,1,2.7.72,23.22,23.22,0,0,1,.53,2.68,12.78,12.78,0,0,0,.72,3.23,11.94,11.94,0,0,0,1.25,2.51,16.66,16.66,0,0,1,.71,3,13.63,13.63,0,0,0,.91,2.87,9.86,9.86,0,0,1,.89,2.34,7.93,7.93,0,0,0,1.25,2.87c.67.89,1.15,2.2,1.79,3,.49.65.58,2.24.89,2.87.42.85.94,2,1.44,3a15.35,15.35,0,0,1,.71,3.4,6.35,6.35,0,0,1-.17,2.51c.24,1.18-1.44,1.78-1.44,2.87,0,.81,2.15.89,2.7.89,1.14,0,1.73,1.05,2.51,1.44,1,.5,1.49.41,2.15,1.07.46.46,1.19.83,1.62,1.25.79.79,0,1.58-.19,2.34a4.6,4.6,0,0,0,.72,2.87,15.85,15.85,0,0,1,1.25,2.32c.25,1,.32,1.83.53,2.7a15.48,15.48,0,0,1,0,3.4,7.65,7.65,0,0,1-1.07,2.51c-.44.88-.4,2-.72,2.68a4.27,4.27,0,0,0-.22,1c-.1.52-.24,1.07-.31,1.38-.21.85,0,1.88-.19,2.68s-.87,1.19-1.07,2a14.09,14.09,0,0,0,0,3c0,.51,1.81,1.27,2.15,1.44a7.4,7.4,0,0,0,2.87.17c1,0,1.42-.17,2.32-.17l5,1.43,7,2,4.12,3,2.68,5.55.91,7.18,3.94-1.62,3.59.17,3,1.08-.19,11.29-4.3,2-2.32,4,.35,5.19,2.49,10,0,0-1.25.19-2.32,3-2,1.62-3.23-.19-2.68-.17-3,.17-3.59.36h-3l-2.87-2-2.68-1.25-9.14-1.08,12,24.92,1.62-1.8,3.4,2.87,3.23.19,3.59,3.4,1.62.36,2.15-.36L78,264.67l.71-.36,5.69,2.27,5.07,2,2.7.53a25.24,25.24,0,0,0,3.21-.17c.9-.18,19.37-4.12,19.37-4.12l0,0-4.66,22.18,6.46,6.81.72.89v1.44s10.75,2.68,11.46,2.68,3.59-.71,4.49-.53,2.87-1.08,2.87-1.08l1.25-2.15,1.07-.36a12.16,12.16,0,0,1,2,1.08,5.22,5.22,0,0,0,2,.72l1.43-.19,1.43-1.43.72-.89,1.44-.19,1.8.17.16,0a13.79,13.79,0,0,1,2.51-.55,4.34,4.34,0,0,0,2.34-.71c.9-.54,2.15-1.25,2.15-1.25l8.25,9.13,4.12,2.34,2.32.36,2,.72,2.51,1.79,3.4,2.87a11.43,11.43,0,0,0,3.51,1.11l1.76,0,4.61-.11,5.79-1.1.16-1.08-1.93-1.47.13-2.52,3.18-5L206,287.2l7.59-8.17.08-.47.77-4.88,2.24-8,4.85-12.09,1-1.8,7,2.34,2.35.25,2.59-.67L236,251.6l1-2.42c.07-.16.74-3.5.74-3.5l.3-4.63-.61-2.24-1.54-2.59-2.38-2.82-2.24-1.65-2.32-1.51-1.35-.93-.94,2.4-1.16,1.66-1.71,1.93-1.38,1.35-1,.53-3.8-.41-1.33-.67s-1.26-.67-1.35-.69l-2.24-.64H210l-2.46.16a6.84,6.84,0,0,1-1.52.64c-.34,0-1.84,0-1.93,0s-1.16-.74-1.16-.74l-1.18-2.35-.61-3.4,0-.19-1.63-1.77-1.13-1.07a7.09,7.09,0,0,1-.56-1.46c0-.2.52-1.3.52-1.3l1.46-1.11s1.38-.94,1.47-1,2.13-1.91,2.13-1.91l1.4-1.69,1.11-.38,1.35,0s1.47.54,1.63.56,1.88.14,2.1.14l2.76-.09,5.8-3.4,4-.52,3.84-.69,2.78-.78.38-.14.41-.17,1.83-1.13-1.94-3.69.17-1.69,2.34.24,2.05.55-1.05-3.36-.11-2.24,1.36-2.67,1.27-2V195l-3.26-1.49-1.93-2-.25-2-.11-5.8-.83-2.16-1.62-1.82-.94-1.27-.08-4-2.92-1.38-2.45-1.36-1.05-.61L220,170l1.9-5.08-.06-2.29L215.73,161l-3.39.41-3,.36-4.81,1.49-3.73,2.1-3.17,1.77-3.23-.06-1-.13-.44-.06-7-6.92-10,1-6.73-.64-6.27-3-2.21-2.12-2.92-2.82L156.43,149l-2.15-2.27-4.19-1.21,4.12-4.88-.25-1.52-1.58-3.5-2.23-5.25-3.73-14.51-3.73-6.79-3.94-4.36,7.79-1.65,6.27-3.11,5.71-2.85,2.65-.38,2.35.82s1.83,2.41,1.9,2.67,3.54,8.17,3.54,8.17l8.25,2.92,5.07.25,4.56-1.46L197,102.85l1-4.69-.77-1.58L195,94.37l-2-2-3-1.27-.31-6.34-1.33-2.73-1.14-.94L185.65,80l-1.08-.71V73.71l-.5-2.85-1.27-3L180.71,65l-3.48-1.77-2-.38-2-2.1-2-1.44Z"/><path id="f6ef0d24-ad18-4c53-97cf-ce2b58bd62af" data-name="path2262" class="75159be9-a1c7-4d54-9d00-198dbbc5d723" d="M85,235.76l1.82,1.13,3.21.17,2.7-1.79,5-3.94,2.32-.19,2.51-.17,2.34-.55,1.43-1.07,3.76-1.62,6.63-1.79,1.62-2,3.76-1.08.36-4.11-1.43-3.06s-1.25-6.44-1.25-7.34a8.86,8.86,0,0,1,.53-2.13c.27-.78.53-1.46.53-1.46l5.74-1.62-.53-1.62-1.44-2.51,2.34-5.19.36-3.23-2.16-3.21,0,0-1.82-1.4-6.45-2-4.66-1.43-2.51-.36L106,182l-1.8-1.25-3.76-4-.36,2.87-.53,1.79-1.62,1.62H96.31L95.41,182,95.24,181l-12.37.19-9.49,2.15L52.9,174c-.1.52-.24,1.07-.31,1.38-.21.85,0,1.88-.19,2.68s-.87,1.19-1.07,2a14.09,14.09,0,0,0,0,3c0,.51,1.81,1.27,2.15,1.44a7.4,7.4,0,0,0,2.87.17c1,0,1.42-.17,2.32-.17l5,1.43,7,2,4.12,3,2.68,5.55.91,7.18,3.94-1.62,3.59.17,3,1.08-.19,11.29-4.3,2-2.32,4,.35,5.19Z"/><path id="8a78e958-b482-4a3c-a7b8-e1d2acf35eb9" data-name="path2272" class="6dc136f5-f07c-474f-bbf3-32caf276dc58" d="M84.43,266.58l0-.11,5.55-5L89.86,257l4.3-2.7.72-1.43-1.62-3.23.19-.71,2.85.71,4-1.25,2.87-4.3,1.07.36,5.91-7.17,3.76-3.23,3.42-.89-.31-7.45-.24.28-6.63,1.79-3.76,1.62-1.43,1.07-2.34.55-2.51.17-2.32.19-5,3.94L90,237.06l-3.21-.17L85,235.76l0,0-1.25.19-2.32,3-2,1.62-3.23-.19-2.68-.17-3,.17-3.59.36h-3l-2.87-2-2.68-1.25-9.14-1.08,12,24.92,1.62-1.8,3.4,2.87,3.23.19,3.59,3.4,1.62.36,2.15-.36L78,264.67l.71-.36Z"/><path id="a88b67c3-f576-42c2-908f-a52ef99ee96f" data-name="path2277" class="6dc136f5-f07c-474f-bbf3-32caf276dc58" d="M114.78,264.85l.53-7.72,2.68-6.45,4.12-4.85,4.3-2.32-1.6-.36-2.51-2-2.51-2L116.57,238l.36-2.15-1.44-2-.06-.24-1.55.41-3.76,3.23-5.91,7.17-1.07-.36-2.87,4.3-4,1.25-2.85-.71-.19.71,1.62,3.23-.72,1.43-4.3,2.7.17,4.49-5.55,5,0,.11,5.07,2,2.7.53a25.24,25.24,0,0,0,3.21-.17C96.31,268.8,114.78,264.85,114.78,264.85Z"/><path id="9d3384cc-eb89-49d7-9470-764e03f2558c" data-name="path2282" class="6dc136f5-f07c-474f-bbf3-32caf276dc58" d="M137.22,269.39l-4.34-2.57h-9.5l-8.61-1.91-4.66,22.18,6.46,6.81.72.89v1.44s10.75,2.68,11.46,2.68,3.59-.71,4.49-.53,2.87-1.08,2.87-1.08l1.25-2.15,1.07-.36a12.16,12.16,0,0,1,2,1.08,5.22,5.22,0,0,0,2,.72l1.43-.19,1.43-1.43.72-.89,1.44-.19,1.8.17-3.06-10-2.7-.91v-3.21l-3.76-4.85.19-2.15Z"/><path id="12cf7c04-6c86-40b6-acb0-d937a9fd7916" data-name="path2287" class="6dc136f5-f07c-474f-bbf3-32caf276dc58" d="M134.32,253.62l-.19-.06-7.53-10-.3.06-4.19,2.26L118,250.69l-2.68,6.45-.53,7.72,0,0,8.61,1.91h9.5l4.34,2.57,0-.06,1.08-4.66-2.87-4.12Z"/><path id="a3aaf108-5b94-42e6-9132-6f46bbed21ee" data-name="path2299" class="75159be9-a1c7-4d54-9d00-198dbbc5d723" d="M135.34,233.91l-2.46,1-6.81.36-6.1-2.51.36-4.12-3.23-.53h0l.2,5-1.87.49.06.24,1.44,2-.36,2.15,3.23,1.25,2.51,2,2.51,2,1.6.36-.11.06.3-.06,7.53,10,.19.06,0-.06,4.85-1.8,1.62-4.11,3.21-1.25,1.25-1.62-.17-.89-1.43-2.16-3.42-3.58Z"/><path id="e68de18c-c0b5-4dc6-aa13-ca8faeab14e2" data-name="path2304" class="4fdead55-5970-485e-bd44-e790dd270d1b" d="M136.55,220.77l-6.37-3.23-6.45-1.8-2.51.36,1.25,2.7-.36,4.11L118.36,224,117,225.68l.11,2.43h0l3.23.53-.36,4.12,6.1,2.51,6.81-.36,2.46-1-1.74-1.51v-4.3l1.6-4.66Z"/><path id="fe4d193a-a0bd-4f72-9f32-c3a30e0720c9" data-name="path2292" class="4fdead55-5970-485e-bd44-e790dd270d1b" d="M126.5,202.84l.11.35-5.74,1.62s-.26.67-.53,1.46a8.86,8.86,0,0,0-.53,2.13c0,.9,1.25,7.34,1.25,7.34l.17.36,2.51-.36,6.45,1.8,6.37,3.23.82-1.63.89-3.21-.89-2.34-.36-8.45Z"/><path id="0447e6c0-f7bd-4861-9025-52ff17e06822" data-name="path2267" class="75159be9-a1c7-4d54-9d00-198dbbc5d723" d="M126.5,202.84,137,205.13V205l4.12-19.37-.11-.31-.08.31L139.51,184l-2.34.36-3.4-.71-2.68,1.25-3.23.53-2.15,2.32-.52-.39,0,0,2.16,3.21-.36,3.23-2.34,5.19,1.44,2.51Z"/><path id="9128b132-754f-4eb2-8d61-b6fb93099d5a" data-name="path2309" class="75159be9-a1c7-4d54-9d00-198dbbc5d723" d="M145.17,244.43l.06,0L153.85,231l.89-4-3.23-1.43-15.06-.89-1.79.89-.24.08-.83,2.43v4.3l6.62,5.74,3.42,3.58,1.43,2.16Z"/><path id="3a1958e3-fd84-4c43-b30a-7f0fd25317bf" data-name="path2319" class="4fdead55-5970-485e-bd44-e790dd270d1b" d="M137.25,211l.11,2.62.89,2.34-.89,3.21-2.16,4.31-.77,2.23.24-.08,1.79-.89,15.06.89,3.23,1.43-.16.72h.16l.19-3.59L154,218.6l1.62-5-.67-5.5-10.43,4.78Z"/><path id="77898d66-c80e-47f0-b2de-9f25ae4c57c3" data-name="path2314" class="75159be9-a1c7-4d54-9d00-198dbbc5d723" d="M137.25,211l7.28,1.9L155,208.08l0-.24-1.08-5.36V195l-2.51-4.49-2-9.14.89-3.91-7.34,1-1.9,6.85.11.31L137,205Z"/><path id="1972cfdc-e6e5-4da1-bc3a-01565d57e92d" data-name="path2324" class="6dc136f5-f07c-474f-bbf3-32caf276dc58" d="M213.63,278.56l-7.09-2.6-8.78-6.27-3.23-.36-7.7-5.72.36-4.12.89-1.79-1.79-.55-.19-2.32-11.82-4.49-2.34,6.27-16.67,3.59-2.15,3.4-3.76,4.3-5.91,1.79-6.13-.17,2.56,3.4-.19,2.15,3.76,4.85v3.21l2.7.91,3.06,10,.16,0a13.79,13.79,0,0,1,2.51-.55,4.34,4.34,0,0,0,2.34-.71c.9-.54,2.15-1.25,2.15-1.25l8.25,9.13,4.12,2.34,2.32.36,2,.72,2.51,1.79,3.4,2.87a11.43,11.43,0,0,0,3.51,1.11l1.76,0,4.61-.11,5.79-1.1.16-1.08-1.93-1.47.13-2.52,3.18-5L206,287.2l7.59-8.17Z"/><path id="d6c7a36f-380c-4a94-8005-ff72eb37b5b1" data-name="path2329" class="6dc136f5-f07c-474f-bbf3-32caf276dc58" d="M174.42,250.38l-.14-.22-7.36-2.7-5.19-2.68-3-4.85-2.16-2.15-2-.89-4.11-.61-5.22,8.14-.06,0,.06.35L144,246.39l-3.21,1.25-1.62,4.11-4.85,1.8,1.08,7,2.87,4.12-1.08,4.66.14.19,6.13.17,5.91-1.79,3.76-4.3,2.15-3.4,16.67-3.59,2.34-6.27Z"/><path id="f2873ff7-4bde-4c9f-947a-1189a17bcf35" data-name="path2334" class="d9a298c0-f996-4b66-ad59-413a24aaca0c" d="M170.88,248.9l6.81-16.31-3-1.25h-9.86l-4.66-.55-1.25-.71-.36-1.62-3.73-1.36,0,.64h-.16l-.74,3.23-3.39,5.3,4.11.61,2,.89,2.16,2.15,3,4.85,5.19,2.68Z"/><path id="fac00df9-155a-4d42-aa38-742018cfdbba" data-name="path2339" class="d9a298c0-f996-4b66-ad59-413a24aaca0c" d="M177.35,232.47l-8.81-18,.36-.89.89-.72-.36-1.07-3.58-3.23-6.63-11.46-4.12-4-.89-9.14.72-2.68,2.51-2s-5.59-1.56-7-2l0,.08-.19,0-.89,3.91,2,9.14,2.51,4.49v7.53l1.08,5.36.71,5.74-1.62,5,.91,5.55-.16,2.95,3.73,1.36.36,1.62,1.25.71,4.66.55h9.86Z"/><path id="374805fd-5af3-4a8b-b1b0-819e83204e22" data-name="path2344" class="d9a298c0-f996-4b66-ad59-413a24aaca0c" d="M193.38,167l-.11,1.25.72,1.43,1.08,1.79v1.08l-1.8,2.15-6.45,2.7L185,179.71l-.91,3-5.19,2.87-1.25,1.62.72,2-.36,2-1.62-.55.72,1.62,4.3,7.36,5.55,3.21,2.15.91.19,2.85L209,208.4l14.33,2,7.15,2,.41-.17,1.83-1.13-1.94-3.69.17-1.69,2.34.24,2.05.55-1.05-3.36-.11-2.24,1.36-2.67,1.27-2V195l-3.26-1.49-1.93-2-.25-2-.11-5.8-.83-2.16-1.62-1.82-.94-1.27-.08-4-2.92-1.38-2.45-1.36-1.05-.61L220,170l1.9-5.08-.06-2.29L215.73,161l-3.39.41-3,.36-4.81,1.49-3.73,2.1-3.17,1.77-3.23-.06Z"/><path id="9c7c0f35-dbec-4e71-8b0d-894464ffb44a" data-name="path2354" class="6dc136f5-f07c-474f-bbf3-32caf276dc58" d="M201.13,229.1,195.08,239,183.6,233.3l-.17-3-5.83,2.31.09,0-6.81,16.31,3.4,1.25.14.22,11.68,4.44.19,2.32,1.79.55-.89,1.79-.36,4.12,7.7,5.72,3.23.36,8.78,6.27,7.09,2.6.77-4.88,2.24-8,4.85-12.09,1-1.8,7,2.34,2.35.25,2.59-.67L236,251.6l1-2.42c.07-.16.74-3.5.74-3.5l.3-4.63-.61-2.24-1.54-2.59-2.38-2.82-2.24-1.65-2.32-1.51-1.35-.93-.94,2.4-1.16,1.66-1.71,1.93-1.38,1.35-1,.53-3.8-.41-1.33-.67s-1.26-.67-1.35-.69l-2.24-.64H210l-2.46.16a6.84,6.84,0,0,1-1.52.64c-.34,0-1.84,0-1.93,0s-1.16-.74-1.16-.74l-1.18-2.35Z"/><path id="49cf63a1-5007-41f7-aec0-73a14a5cad2c" data-name="path2349" class="d9a298c0-f996-4b66-ad59-413a24aaca0c" d="M164,205.35l1.85,3.21,3.58,3.23.36,1.07-.89.72-.36.89,8.81,18,.24.09,5.83-2.31.17,3L195.08,239l6.05-9.94,0-.19-1.63-1.77-1.13-1.07a7.09,7.09,0,0,1-.56-1.46c0-.2.52-1.3.52-1.3l1.46-1.11s1.38-.94,1.47-1,2.13-1.91,2.13-1.91l1.4-1.69,1.11-.38,1.35,0s1.47.54,1.63.56,1.88.14,2.1.14l2.76-.09,5.8-3.4,4-.52,3.84-.69,2.78-.78.38-.14-7.15-2-14.33-2-19.71-1.8Z"/><path id="577a6695-99b5-4a68-84fc-4582ca1126ad" data-name="path2239" class="d9a298c0-f996-4b66-ad59-413a24aaca0c" d="M164,205.35l25.33,1.24-.19-2.85-2.15-.91-5.55-3.21-4.3-7.36-.72-1.62,1.62.55.36-2-.72-2,1.25-1.62,5.19-2.87.91-3,1.79-2.32,6.45-2.7,1.8-2.15v-1.08L194,169.67l-.72-1.43.11-1.25-.44-.06-7-6.92-10,1-6.73-.64-6.27-3-2.21-2.12.33,4.17-1.43,4.3-1.8,2.87-4.11,2.51-1.44,2.51-1.76,5.66c1.38.48,7,2,7,2l-2.51,2-.72,2.68.89,9.14,4.12,4Z"/><path id="382d0665-cf4c-40f7-8df6-e0b626dd1b56" data-name="path2234" class="75159be9-a1c7-4d54-9d00-198dbbc5d723" d="M52.9,174l20.48,9.27,9.49-2.15L95.24,181l.17,1.08.89,1.07h1.62l1.62-1.62.53-1.79.36-2.87,3.76,4L106,182l3.76.17,2.51.36,4.66,1.43,6.45,2,2.34,1.79,2.15-2.32,3.23-.53,2.68-1.25,3.4.71,2.34-.36,1.43,1.62,2-7.17,7.53-1.07,1.79-5.74,1.44-2.51,4.11-2.51,1.8-2.87,1.43-4.3-.33-4.17-2.92-2.82L156.43,149l-2.15-2.27-4.19-1.21,4.12-4.88-.25-1.52-1.58-3.5-2.23-5.25-3.73-14.51-3.73-6.79-3.94-4.36,7.79-1.65,6.27-3.11,5.71-2.85,2.65-.38,2.35.82s1.83,2.41,1.9,2.67,3.54,8.17,3.54,8.17l8.25,2.92,5.07.25,4.56-1.46L197,102.85l1-4.69-.77-1.58L195,94.37l-2-2-3-1.27-.31-6.34-1.33-2.73-1.14-.94L185.65,80l-1.08-.71V73.71l-.5-2.85-1.27-3L180.71,65l-3.48-1.77-2-.38-2-2.1-2-1.44-2-.52-2.42.45-2.27,2.21L162.9,65l-1.25,8.69-.89,1.71-1,1.14-2,.88-3.17,1.71-3.42,2.16-3,2.65s-1.27,2-1.46,2.48-1.08,2.73-1.08,2.73-.5,2.33-.69,2.71-1.33,2.79-1.33,2.79l-2.6,2.85-1.44,1.14-3.25,2.59-9.94-.13-4.63-2.09-4.11-.25-3.25-3.61-6.15-3.87-7.28-3.54-7.92-3.29-2.42.82-4,.31-6.15-.19L80,85l1.33-3.86-2.67-2-2.21-1.77-2.27.13.38,1.9,2.92,5L74.76,86.7l-4.5,1-8.11.06-4.63,2-.77-.82-3.86-.08-7.54,3-4.5-3.54-1.71-.75-.89.78c.19,1.16-2.41.29-3.42.89A9.84,9.84,0,0,0,33,91a26.82,26.82,0,0,1-2.68,2c-.71.53-.3,2-.19,2.51A4.7,4.7,0,0,1,29.81,98c-.17.68-1.18,1.16-1.43,2.15-.18.74-1.46,1.65-1.79,2S27,104.43,27,105a14.42,14.42,0,0,0,.35,2.87c.17.67,1.61,1.16,1.8,1.25s-.5,1.69-.36,2,2.25.45,2.68.53a20.29,20.29,0,0,1,2.7.72,23.22,23.22,0,0,1,.53,2.68,12.78,12.78,0,0,0,.72,3.23,11.94,11.94,0,0,0,1.25,2.51,16.66,16.66,0,0,1,.71,3,13.63,13.63,0,0,0,.91,2.87,9.86,9.86,0,0,1,.89,2.34,7.93,7.93,0,0,0,1.25,2.87c.67.89,1.15,2.2,1.79,3,.49.65.58,2.24.89,2.87.42.85.94,2,1.44,3a15.35,15.35,0,0,1,.71,3.4,6.35,6.35,0,0,1-.17,2.51c.24,1.18-1.44,1.78-1.44,2.87,0,.81,2.15.89,2.7.89,1.14,0,1.73,1.05,2.51,1.44,1,.5,1.49.41,2.15,1.07.46.46,1.19.83,1.62,1.25.79.79,0,1.58-.19,2.34a4.6,4.6,0,0,0,.72,2.87,15.85,15.85,0,0,1,1.25,2.32c.25,1,.32,1.83.53,2.7a15.48,15.48,0,0,1,0,3.4,7.65,7.65,0,0,1-1.07,2.51c-.44.88-.4,2-.72,2.68A4.27,4.27,0,0,0,52.9,174Z"/></g><g id="aab12f2e-0448-4389-9544-f0d73b39dad1" data-name="layer1"><path id="ea2bd9f2-40b2-4fd5-9e0b-136bdd220728" data-name="path4315" class="f75b2258-e35d-4687-bc08-14bcaed7e304" d="M426.25,60.75l-2.42.45-2.27,2.21L419.9,67l-1.25,8.69-.89,1.71-1,1.14-2,.88-3.17,1.71-3.42,2.16-3,2.65s-1.27,2-1.46,2.48-1.08,2.73-1.08,2.73-.5,2.33-.69,2.71-1.33,2.79-1.33,2.79l-2.6,2.85-1.44,1.14-3.25,2.59-9.94-.13-4.63-2.09-4.11-.25-3.25-3.61-6.15-3.87-7.28-3.54-7.92-3.29-2.42.82-4,.31-6.15-.19L337,87l1.33-3.86-2.67-2-2.21-1.77-2.27.13.38,1.9,2.92,5-2.73,2.27-4.5,1-8.11.06-4.63,2-.77-.82-3.86-.08-7.54,3-4.5-3.54-1.71-.75-.89.78c.19,1.16-2.41.29-3.42.89A9.84,9.84,0,0,0,290,93a26.82,26.82,0,0,1-2.68,2c-.71.53-.3,2-.19,2.51a4.7,4.7,0,0,1-.36,2.51c-.17.68-1.18,1.16-1.43,2.15-.18.74-1.46,1.65-1.79,2s.36,2.32.36,2.85a14.42,14.42,0,0,0,.35,2.87c.17.67,1.61,1.16,1.8,1.25s-.5,1.69-.36,2,2.25.45,2.68.53a20.29,20.29,0,0,1,2.7.72,23.22,23.22,0,0,1,.53,2.68,12.78,12.78,0,0,0,.72,3.23,11.94,11.94,0,0,0,1.25,2.51,16.66,16.66,0,0,1,.71,3,13.63,13.63,0,0,0,.91,2.87,9.86,9.86,0,0,1,.89,2.34,7.93,7.93,0,0,0,1.25,2.87c.67.89,1.15,2.2,1.79,3,.49.65.58,2.24.89,2.87.42.85.94,2,1.44,3a15.35,15.35,0,0,1,.71,3.4,6.35,6.35,0,0,1-.17,2.51c.24,1.18-1.44,1.78-1.44,2.87,0,.81,2.15.89,2.7.89,1.14,0,1.73,1.05,2.51,1.44,1,.5,1.49.41,2.15,1.07.46.46,1.19.83,1.62,1.25.79.79,0,1.58-.19,2.34a4.6,4.6,0,0,0,.72,2.87,15.85,15.85,0,0,1,1.25,2.32c.25,1,.32,1.83.53,2.7a15.48,15.48,0,0,1,0,3.4,7.65,7.65,0,0,1-1.07,2.51c-.44.88-.4,2-.72,2.68a4.27,4.27,0,0,0-.22,1c-.1.52-.24,1.07-.31,1.38-.21.85,0,1.88-.19,2.68s-.87,1.19-1.07,2a14.09,14.09,0,0,0,0,3c0,.51,1.81,1.27,2.15,1.44a7.4,7.4,0,0,0,2.87.17c1,0,1.42-.17,2.32-.17l5,1.43,7,2,4.12,3,2.68,5.55.91,7.18,3.94-1.62,3.59.17,3,1.08-.19,11.29-4.3,2-2.32,4,.35,5.19,2.49,10,0,0-1.25.19-2.32,3-2,1.62-3.23-.19-2.68-.17-3,.17-3.59.36h-3l-2.87-2-2.68-1.25-9.14-1.08,12,24.92,1.62-1.8,3.4,2.87,3.23.19,3.59,3.4,1.62.36,2.15-.36,1.25-1.44.71-.36,5.69,2.27,5.07,2,2.7.53a25.24,25.24,0,0,0,3.21-.17c.9-.18,19.37-4.12,19.37-4.12l0,0-4.66,22.18,6.46,6.81.72.89v1.44s10.75,2.68,11.46,2.68,3.59-.71,4.49-.53,2.87-1.08,2.87-1.08l1.25-2.15,1.07-.36a12.16,12.16,0,0,1,2,1.08,5.22,5.22,0,0,0,2,.72l1.43-.19,1.43-1.43.72-.89,1.44-.19,1.8.17.16,0a13.79,13.79,0,0,1,2.51-.55,4.34,4.34,0,0,0,2.34-.71c.9-.54,2.15-1.25,2.15-1.25l8.25,9.13,4.12,2.34,2.32.36,2,.72,2.51,1.79,3.4,2.87a11.43,11.43,0,0,0,3.51,1.11l1.76,0,4.61-.11,5.79-1.1.16-1.08-1.93-1.47.13-2.52,3.18-5L463,289.2l7.59-8.17.08-.47.77-4.88,2.24-8,4.85-12.09,1-1.8,7,2.34,2.35.25,2.59-.67L493,253.6l1-2.42c.07-.16.74-3.5.74-3.5l.3-4.63-.61-2.24-1.54-2.59-2.38-2.82-2.24-1.65-2.32-1.51-1.35-.93-.94,2.4-1.16,1.66-1.71,1.93-1.38,1.35-1,.53-3.8-.41-1.33-.67s-1.26-.67-1.35-.69l-2.24-.64H467l-2.46.16a6.84,6.84,0,0,1-1.52.64c-.34,0-1.84,0-1.93,0s-1.16-.74-1.16-.74l-1.18-2.35-.61-3.4,0-.19-1.63-1.77-1.13-1.07a7.09,7.09,0,0,1-.56-1.46c0-.2.52-1.3.52-1.3l1.46-1.11s1.38-.94,1.47-1,2.13-1.91,2.13-1.91l1.4-1.69,1.11-.38,1.35,0s1.47.54,1.63.56,1.88.14,2.1.14l2.76-.09,5.8-3.4,4-.52,3.84-.69,2.78-.78.38-.14.41-.17,1.83-1.13-1.94-3.69.17-1.69,2.34.24,2.05.55-1.05-3.36-.11-2.24,1.36-2.67,1.27-2V197l-3.26-1.49-1.93-2-.25-2-.11-5.8-.83-2.16-1.62-1.82-.94-1.27-.08-4-2.92-1.38-2.45-1.36-1.05-.61L477,172l1.9-5.08-.06-2.29L472.73,163l-3.39.41-3,.36-4.81,1.49-3.73,2.1-3.17,1.77-3.23-.06-1-.13-.44-.06-7-6.92-10,1-6.73-.64-6.27-3-2.21-2.12-2.92-2.82L413.43,151l-2.15-2.27-4.19-1.21,4.12-4.88-.25-1.52-1.58-3.5-2.23-5.25-3.73-14.51-3.73-6.79-3.94-4.36,7.79-1.65,6.27-3.11,5.71-2.85,2.65-.38,2.35.82s1.83,2.41,1.9,2.67,3.54,8.17,3.54,8.17l8.25,2.92,5.07.25,4.56-1.46L454,104.85l1-4.69-.77-1.58L452,96.37l-2-2-3-1.27-.31-6.34-1.33-2.73-1.14-.94L442.65,82l-1.08-.71V75.71l-.5-2.85-1.27-3L437.71,67l-3.48-1.77-2-.38-2-2.1-2-1.44Z"/><path id="2e5bffd6-dd73-4e84-b73b-f975c09122ee" data-name="path2262" class="3848396b-47bb-400b-bae3-a71b1dc3de60" d="M342,237.76l1.82,1.13,3.21.17,2.7-1.79,5-3.94,2.32-.19,2.51-.17,2.34-.55,1.43-1.07,3.76-1.62,6.63-1.79,1.62-2,3.76-1.08.36-4.11-1.43-3.06s-1.25-6.44-1.25-7.34a8.86,8.86,0,0,1,.53-2.13c.27-.78.53-1.46.53-1.46l5.74-1.62-.53-1.62-1.44-2.51,2.34-5.19.36-3.23-2.16-3.21,0,0-1.82-1.4-6.45-2-4.66-1.43-2.51-.36L363,184l-1.8-1.25-3.76-4-.36,2.87-.53,1.79-1.62,1.62h-1.62l-.89-1.07-.17-1.08-12.37.19-9.49,2.15L309.9,176c-.1.52-.24,1.07-.31,1.38-.21.85,0,1.88-.19,2.68s-.87,1.19-1.07,2a14.09,14.09,0,0,0,0,3c0,.51,1.81,1.27,2.15,1.44a7.4,7.4,0,0,0,2.87.17c1,0,1.42-.17,2.32-.17l5,1.43,7,2,4.12,3,2.68,5.55.91,7.18,3.94-1.62,3.59.17,3,1.08-.19,11.29-4.3,2-2.32,4,.35,5.19Z"/><path id="04a268ef-cc02-45ce-adc8-64289698b99b" data-name="path2272" class="3848396b-47bb-400b-bae3-a71b1dc3de60" d="M363.34,231.36l-1.43,1.07-2.34.55-2.51.17-2.32.19-5,3.94-2.7,1.79-3.21-.17L342,237.76l0,0-1.25.19-2.32,3-2,1.62-3.23-.19-2.68-.17-3,.17-3.59.36h-3l-2.87-2-2.68-1.25-9.14-1.08,12,24.92,1.62-1.8,3.4,2.87,3.23.19,3.59,3.4,1.62.36,2.15-.36,1.25-1.44.71-.36,5.69,2.27,0-.11,5.55-5-.17-4.49,4.3-2.7.72-1.43-1.62-3.23.19-.71,2.85.71,4-1.25,2.87-4.3,1.07.36,5.91-7.17,3.76-3.23,3.42-.89-.31-7.45-.24.28"/><path id="d1f94c77-5d99-4e2a-a574-0613bf826727" data-name="path2277" class="e5e29575-1d5f-4bf5-96b8-2a9bc6bd6eb3" d="M371.78,266.85l.53-7.72,2.68-6.45,4.12-4.85,4.3-2.32-1.6-.36-2.51-2-2.51-2L373.57,240l.36-2.15-1.44-2-.06-.24-1.55.41-3.76,3.23-5.91,7.17-1.07-.36-2.87,4.3-4,1.25-2.85-.71-.19.71,1.62,3.23-.72,1.43-4.3,2.7.17,4.49-5.55,5,0,.11,5.07,2,2.7.53a25.24,25.24,0,0,0,3.21-.17C353.31,270.8,371.78,266.85,371.78,266.85Z"/><path id="80606e4c-d63e-4955-9f94-65e5d4510361" data-name="path2282" class="3848396b-47bb-400b-bae3-a71b1dc3de60" d="M394.22,271.39l-4.34-2.57h-9.5l-8.61-1.91-4.66,22.18,6.46,6.81.72.89v1.44s10.75,2.68,11.46,2.68,3.59-.71,4.49-.53,2.87-1.08,2.87-1.08l1.25-2.15,1.07-.36a12.16,12.16,0,0,1,2,1.08,5.22,5.22,0,0,0,2,.72l1.43-.19,1.43-1.43.72-.89,1.44-.19,1.8.17-3.06-10-2.7-.91v-3.21l-3.76-4.85.19-2.15Z"/><path id="cc65d568-91e5-4518-b14f-80522f5af7aa" data-name="path2287" class="3848396b-47bb-400b-bae3-a71b1dc3de60" d="M391.32,255.62l-.19-.06-7.53-10-.3.06-4.19,2.26L375,252.69l-2.68,6.45-.53,7.72,0,0,8.61,1.91h9.5l4.34,2.57,0-.06,1.08-4.66-2.87-4.12Z"/><path id="26f54b48-d819-4dd4-b893-bf868552c322" data-name="path2299" class="3848396b-47bb-400b-bae3-a71b1dc3de60" d="M392.34,235.91l-2.46,1-6.81.36-6.1-2.51.36-4.12-3.23-.53h0l.2,5-1.87.49.06.24,1.44,2-.36,2.15,3.23,1.25,2.51,2,2.51,2,1.6.36-.11.06.3-.06,7.53,10,.19.06,0-.06,4.85-1.8,1.62-4.11,3.21-1.25,1.25-1.62-.17-.89-1.43-2.16-3.42-3.58Z"/><path id="25824654-2b43-412e-915f-65d296f82819" data-name="path2304" class="3848396b-47bb-400b-bae3-a71b1dc3de60" d="M393.55,222.77l-6.37-3.23-6.45-1.8-2.51.36,1.25,2.7-.36,4.11L375.36,226,374,227.68l.11,2.43h0l3.23.53-.36,4.12,6.1,2.51,6.81-.36,2.46-1-1.74-1.51v-4.3l1.6-4.66Z"/><path id="78d25990-08ad-4288-8994-fa7007db44d7" data-name="path2292" class="3848396b-47bb-400b-bae3-a71b1dc3de60" d="M383.5,204.84l.11.35-5.74,1.62s-.26.67-.53,1.46a8.86,8.86,0,0,0-.53,2.13c0,.9,1.25,7.34,1.25,7.34l.17.36,2.51-.36,6.45,1.8,6.37,3.23.82-1.63.89-3.21-.89-2.34-.36-8.45Z"/><path id="89696b81-189b-4717-8a3c-2c48e00759f4" data-name="path2267" class="3848396b-47bb-400b-bae3-a71b1dc3de60" d="M383.5,204.84,394,207.13V207l4.12-19.37-.11-.31-.08.31L396.51,186l-2.34.36-3.4-.71-2.68,1.25-3.23.53-2.15,2.32-.52-.39,0,0,2.16,3.21-.36,3.23-2.34,5.19,1.44,2.51Z"/><path id="589c1139-af75-4769-89e4-f6491d7d13de" data-name="path2309" class="3848396b-47bb-400b-bae3-a71b1dc3de60" d="M402.17,246.43l.06,0L410.85,233l.89-4-3.23-1.43-15.06-.89-1.79.89-.24.08-.83,2.43v4.3l6.62,5.74,3.42,3.58,1.43,2.16Z"/><path id="de138f58-d2cb-4a82-a671-4d6c2bab521e" data-name="path2319" class="3848396b-47bb-400b-bae3-a71b1dc3de60" d="M394.25,213l.11,2.62.89,2.34-.89,3.21-2.16,4.31-.77,2.23.24-.08,1.79-.89,15.06.89,3.23,1.43-.16.72h.16l.19-3.59L411,220.6l1.62-5-.67-5.5-10.43,4.78Z"/><path id="68357847-e188-41af-8829-7a3d8cbc871b" data-name="path2314" class="e5e29575-1d5f-4bf5-96b8-2a9bc6bd6eb3" d="M394.25,213l7.28,1.9L412,210.08l0-.24-1.08-5.36V197l-2.51-4.49-2-9.14.89-3.91-7.34,1-1.9,6.85.11.31L394,207Z"/><path id="77437ed6-c0d4-4040-a979-84168b46db83" data-name="path2324" class="e5e29575-1d5f-4bf5-96b8-2a9bc6bd6eb3" d="M470.63,280.56l-7.09-2.6-8.78-6.27-3.23-.36-7.7-5.72.36-4.12.89-1.79-1.79-.55-.19-2.32-11.82-4.49-2.34,6.27-16.67,3.59-2.15,3.4-3.76,4.3-5.91,1.79-6.13-.17,2.56,3.4-.19,2.15,3.76,4.85v3.21l2.7.91,3.06,10,.16,0a13.79,13.79,0,0,1,2.51-.55,4.34,4.34,0,0,0,2.34-.71c.9-.54,2.15-1.25,2.15-1.25l8.25,9.13,4.12,2.34,2.32.36,2,.72,2.51,1.79,3.4,2.87a11.43,11.43,0,0,0,3.51,1.11l1.76,0,4.61-.11,5.79-1.1.16-1.08-1.93-1.47.13-2.52,3.18-5L463,289.2l7.59-8.17Z"/><path id="49789dcc-fc6b-461e-b7e8-a01d851232cb" data-name="path2329" class="e5e29575-1d5f-4bf5-96b8-2a9bc6bd6eb3" d="M431.42,252.38l-.14-.22-7.36-2.7-5.19-2.68-3-4.85-2.16-2.15-2-.89-4.11-.61-5.22,8.14-.06,0,.06.35L401,248.39l-3.21,1.25-1.62,4.11-4.85,1.8,1.08,7,2.87,4.12-1.08,4.66.14.19,6.13.17,5.91-1.79,3.76-4.3,2.15-3.4,16.67-3.59,2.34-6.27Z"/><path id="bcbb56fe-e083-4a59-a74f-7a97ec3a3d59" data-name="path2334" class="3848396b-47bb-400b-bae3-a71b1dc3de60" d="M427.88,250.9l6.81-16.31-3-1.25h-9.86l-4.66-.55-1.25-.71-.36-1.62-3.73-1.36,0,.64h-.16l-.74,3.23-3.39,5.3,4.11.61,2,.89,2.16,2.15,3,4.85,5.19,2.68Z"/><path id="5bcb2a7e-b55b-441b-b518-cde6843b7d9f" data-name="path2339" class="e5e29575-1d5f-4bf5-96b8-2a9bc6bd6eb3" d="M434.35,234.47l-8.81-18,.36-.89.89-.72-.36-1.07-3.58-3.23-6.63-11.46-4.12-4-.89-9.14.72-2.68,2.51-2s-5.59-1.56-7-2l0,.08-.19,0-.89,3.91,2,9.14,2.51,4.49v7.53l1.08,5.36.71,5.74-1.62,5,.91,5.55-.16,2.95,3.73,1.36.36,1.62,1.25.71,4.66.55h9.86Z"/><path id="20777960-d840-4546-9778-00f72215feb2" data-name="path2344" class="3848396b-47bb-400b-bae3-a71b1dc3de60" d="M450.38,169l-.11,1.25.72,1.43,1.08,1.79v1.08l-1.8,2.15-6.45,2.7L442,181.71l-.91,3-5.19,2.87-1.25,1.62.72,2-.36,2-1.62-.55.72,1.62,4.3,7.36,5.55,3.21,2.15.91.19,2.85L466,210.4l14.33,2,7.15,2,.41-.17,1.83-1.13-1.94-3.69.17-1.69,2.34.24,2.05.55-1.05-3.36-.11-2.24,1.36-2.67,1.27-2V197l-3.26-1.49-1.93-2-.25-2-.11-5.8-.83-2.16-1.62-1.82-.94-1.27-.08-4-2.92-1.38-2.45-1.36-1.05-.61L477,172l1.9-5.08-.06-2.29L472.73,163l-3.39.41-3,.36-4.81,1.49-3.73,2.1-3.17,1.77-3.23-.06Z"/><path id="11900468-6284-4cd0-97b4-2ec39ae3c0d5" data-name="path2354" class="3848396b-47bb-400b-bae3-a71b1dc3de60" d="M458.13,231.1,452.08,241,440.6,235.3l-.17-3-5.83,2.31.09,0-6.81,16.31,3.4,1.25.14.22,11.68,4.44.19,2.32,1.79.55-.89,1.79-.36,4.12,7.7,5.72,3.23.36,8.78,6.27,7.09,2.6.77-4.88,2.24-8,4.85-12.09,1-1.8,7,2.34,2.35.25,2.59-.67L493,253.6l1-2.42c.07-.16.74-3.5.74-3.5l.3-4.63-.61-2.24-1.54-2.59-2.38-2.82-2.24-1.65-2.32-1.51-1.35-.93-.94,2.4-1.16,1.66-1.71,1.93-1.38,1.35-1,.53-3.8-.41-1.33-.67s-1.26-.67-1.35-.69l-2.24-.64H467l-2.46.16a6.84,6.84,0,0,1-1.52.64c-.34,0-1.84,0-1.93,0s-1.16-.74-1.16-.74l-1.18-2.35Z"/><path id="db249f42-8782-4072-a275-1c6942f99eae" data-name="path2349" class="e5e29575-1d5f-4bf5-96b8-2a9bc6bd6eb3" d="M421,207.35l1.85,3.21,3.58,3.23.36,1.07-.89.72-.36.89,8.81,18,.24.09,5.83-2.31.17,3L452.08,241l6.05-9.94,0-.19-1.63-1.77-1.13-1.07a7.09,7.09,0,0,1-.56-1.46c0-.2.52-1.3.52-1.3l1.46-1.11s1.38-.94,1.47-1,2.13-1.91,2.13-1.91l1.4-1.69,1.11-.38,1.35,0s1.47.54,1.63.56,1.88.14,2.1.14l2.76-.09,5.8-3.4,4-.52,3.84-.69,2.78-.78.38-.14-7.15-2-14.33-2-19.71-1.8Z"/><path id="9f734e6c-8de4-4b3b-8fcd-1cf32c25007a" data-name="path2239" class="3848396b-47bb-400b-bae3-a71b1dc3de60" d="M421,207.35l25.33,1.24-.19-2.85-2.15-.91-5.55-3.21-4.3-7.36-.72-1.62,1.62.55.36-2-.72-2,1.25-1.62,5.19-2.87.91-3,1.79-2.32,6.45-2.7,1.8-2.15v-1.08L451,171.67l-.72-1.43.11-1.25-.44-.06-7-6.92-10,1-6.73-.64-6.27-3-2.21-2.12.33,4.17-1.43,4.3-1.8,2.87-4.11,2.51-1.44,2.51-1.76,5.66c1.38.48,7,2,7,2l-2.51,2-.72,2.68.89,9.14,4.12,4Z"/><path id="ed87e93e-e185-439f-9ea3-fa3e68bdc662" data-name="path2234" class="3848396b-47bb-400b-bae3-a71b1dc3de60" d="M309.9,176l20.48,9.27,9.49-2.15,12.37-.19.17,1.08.89,1.07h1.62l1.62-1.62.53-1.79.36-2.87,3.76,4L363,184l3.76.17,2.51.36,4.66,1.43,6.45,2,2.34,1.79,2.15-2.32,3.23-.53,2.68-1.25,3.4.71,2.34-.36,1.43,1.62,2-7.17,7.53-1.07,1.79-5.74,1.44-2.51,4.11-2.51,1.8-2.87,1.43-4.3-.33-4.17-2.92-2.82L413.43,151l-2.15-2.27-4.19-1.21,4.12-4.88-.25-1.52-1.58-3.5-2.23-5.25-3.73-14.51-3.73-6.79-3.94-4.36,7.79-1.65,6.27-3.11,5.71-2.85,2.65-.38,2.35.82s1.83,2.41,1.9,2.67,3.54,8.17,3.54,8.17l8.25,2.92,5.07.25,4.56-1.46L454,104.85l1-4.69-.77-1.58L452,96.37l-2-2-3-1.27-.31-6.34-1.33-2.73-1.14-.94L442.65,82l-1.08-.71V75.71l-.5-2.85-1.27-3L437.71,67l-3.48-1.77-2-.38-2-2.1-2-1.44-2-.52-2.42.45-2.27,2.21L419.9,67l-1.25,8.69-.89,1.71-1,1.14-2,.88-3.17,1.71-3.42,2.16-3,2.65s-1.27,2-1.46,2.48-1.08,2.73-1.08,2.73-.5,2.33-.69,2.71-1.33,2.79-1.33,2.79l-2.6,2.85-1.44,1.14-3.25,2.59-9.94-.13-4.63-2.09-4.11-.25-3.25-3.61-6.15-3.87-7.28-3.54-7.92-3.29-2.42.82-4,.31-6.15-.19L337,87l1.33-3.86-2.67-2-2.21-1.77-2.27.13.38,1.9,2.92,5-2.73,2.27-4.5,1-8.11.06-4.63,2-.77-.82-3.86-.08-7.54,3-4.5-3.54-1.71-.75-.89.78c.19,1.16-2.41.29-3.42.89A9.84,9.84,0,0,0,290,93a26.82,26.82,0,0,1-2.68,2c-.71.53-.3,2-.19,2.51a4.7,4.7,0,0,1-.36,2.51c-.17.68-1.18,1.16-1.43,2.15-.18.74-1.46,1.65-1.79,2s.36,2.32.36,2.85a14.42,14.42,0,0,0,.35,2.87c.17.67,1.61,1.16,1.8,1.25s-.5,1.69-.36,2,2.25.45,2.68.53a20.29,20.29,0,0,1,2.7.72,23.22,23.22,0,0,1,.53,2.68,12.78,12.78,0,0,0,.72,3.23,11.94,11.94,0,0,0,1.25,2.51,16.66,16.66,0,0,1,.71,3,13.63,13.63,0,0,0,.91,2.87,9.86,9.86,0,0,1,.89,2.34,7.93,7.93,0,0,0,1.25,2.87c.67.89,1.15,2.2,1.79,3,.49.65.58,2.24.89,2.87.42.85.94,2,1.44,3a15.35,15.35,0,0,1,.71,3.4,6.35,6.35,0,0,1-.17,2.51c.24,1.18-1.44,1.78-1.44,2.87,0,.81,2.15.89,2.7.89,1.14,0,1.73,1.05,2.51,1.44,1,.5,1.49.41,2.15,1.07.46.46,1.19.83,1.62,1.25.79.79,0,1.58-.19,2.34a4.6,4.6,0,0,0,.72,2.87,15.85,15.85,0,0,1,1.25,2.32c.25,1,.32,1.83.53,2.7a15.48,15.48,0,0,1,0,3.4,7.65,7.65,0,0,1-1.07,2.51c-.44.88-.4,2-.72,2.68A4.27,4.27,0,0,0,309.9,176Z"/></g></g><g id="daeb7c8c-f101-40ac-9500-b0a9b1a39b65" data-name="titulos"><text class="24b7872f-4c04-4bf6-9a1a-d3dab682777b" transform="translate(262.41 51.85)"><tspan class="ae38f35e-a0aa-4ecf-aa4f-9f7e7bdecd7c">V</tspan><tspan x="6.52" y="0">ARIACIÓN INTERANUA</tspan><tspan class="28542711-2e10-4230-bc26-c9ebbf65cd5d" x="126.31" y="0">L</tspan><tspan x="132.02" y="0" xml:space="preserve"> DE PRECIO (%)</tspan></text><line class="7b284b68-759c-4462-b77a-2d5a54f2a240" x1="263.5" y1="55.5" x2="493.5" y2="55.5"/><line class="7b284b68-759c-4462-b77a-2d5a54f2a240" x1="9" y1="55.5" x2="240.5" y2="55.5"/><text class="b5064b41-cc1c-456a-8eab-66de4c2a9741" transform="translate(7 21.37)">Evolución del precio de la vivienda en Madrid</text></g><g id="e1c7a34e-73b1-4dd9-8201-3c038bb66acf" data-name="Barrios"><line class="7b284b68-759c-4462-b77a-2d5a54f2a240" x1="10" y1="374.5" x2="492.5" y2="374.5"/><text class="6245f964-b161-480d-8ced-0ea3f0aa1dd0" transform="translate(99.67 388.59)">6<tspan class="67a77ea2-3f44-4038-82f0-49302f9696be" x="6.67" y="0">.</tspan><tspan class="89c69d02-ed16-4dc1-af25-0146e94107fc" x="10.01" y="0"> </tspan><tspan class="66bdab8d-644d-4580-886a-0c44106b4bd7" x="13.13" y="0">T</tspan><tspan class="67a77ea2-3f44-4038-82f0-49302f9696be" x="19.13" y="0">etuán</tspan><tspan x="0" y="14.4">7</tspan><tspan class="67a77ea2-3f44-4038-82f0-49302f9696be" x="6.67" y="14.4">. Chamberí</tspan><tspan x="0" y="28.8">8</tspan><tspan class="67a77ea2-3f44-4038-82f0-49302f9696be" x="6.67" y="28.8">. Fuencarral - El Pardo</tspan><tspan x="0" y="43.2">9</tspan><tspan class="67a77ea2-3f44-4038-82f0-49302f9696be" x="6.67" y="43.2">. Moncloa -</tspan><tspan class="d4a02704-e8cc-46a3-87ce-62d55211100e" x="66.03" y="43.2"> </tspan><tspan class="67a77ea2-3f44-4038-82f0-49302f9696be" x="68.7" y="43.2">Aravaca</tspan><tspan x="0" y="57.6">10</tspan><tspan class="67a77ea2-3f44-4038-82f0-49302f9696be" x="13.35" y="57.6">. Latina</tspan></text><text class="6245f964-b161-480d-8ced-0ea3f0aa1dd0" transform="translate(374.67 388.59)">16<tspan class="67a77ea2-3f44-4038-82f0-49302f9696be" x="13.35" y="0">. Hortaleza</tspan><tspan x="0" y="14.4">17</tspan><tspan class="67a77ea2-3f44-4038-82f0-49302f9696be" x="13.35" y="14.4">. </tspan><tspan class="89c69d02-ed16-4dc1-af25-0146e94107fc" x="20.02" y="14.4">V</tspan><tspan class="67a77ea2-3f44-4038-82f0-49302f9696be" x="27.8" y="14.4">illaverde</tspan><tspan x="0" y="28.8">18</tspan><tspan class="67a77ea2-3f44-4038-82f0-49302f9696be" x="13.35" y="28.8">. </tspan><tspan class="89c69d02-ed16-4dc1-af25-0146e94107fc" x="20.02" y="28.8">V</tspan><tspan class="67a77ea2-3f44-4038-82f0-49302f9696be" x="27.8" y="28.8">illa de </tspan><tspan class="046ffdcf-6b33-4dd2-97eb-e1c74350100a" x="62.49" y="28.8">V</tspan><tspan class="67a77ea2-3f44-4038-82f0-49302f9696be" x="69.6" y="28.8">allecas</tspan><tspan x="0" y="43.2">19</tspan><tspan class="67a77ea2-3f44-4038-82f0-49302f9696be" x="13.35" y="43.2">. </tspan><tspan class="89c69d02-ed16-4dc1-af25-0146e94107fc" x="20.02" y="43.2">V</tspan><tspan class="67a77ea2-3f44-4038-82f0-49302f9696be" x="27.8" y="43.2">icálvaro</tspan><tspan x="0" y="57.6">20</tspan><tspan class="67a77ea2-3f44-4038-82f0-49302f9696be" x="13.35" y="57.6">. San Blas</tspan><tspan x="0" y="72">21</tspan><tspan class="67a77ea2-3f44-4038-82f0-49302f9696be" x="13.35" y="72">. Barajas</tspan></text><text class="6245f964-b161-480d-8ced-0ea3f0aa1dd0" transform="translate(243.67 388.59)"><tspan class="ae38f35e-a0aa-4ecf-aa4f-9f7e7bdecd7c">1</tspan><tspan x="5.78" y="0">1</tspan><tspan class="67a77ea2-3f44-4038-82f0-49302f9696be" x="12.46" y="0">. Carabanchel</tspan><tspan x="0" y="14.4">12</tspan><tspan class="67a77ea2-3f44-4038-82f0-49302f9696be" x="13.35" y="14.4">. Usera</tspan><tspan x="0" y="28.8">13</tspan><tspan class="67a77ea2-3f44-4038-82f0-49302f9696be" x="13.35" y="28.8">. Puente de </tspan><tspan class="046ffdcf-6b33-4dd2-97eb-e1c74350100a" x="78.06" y="28.8">V</tspan><tspan class="67a77ea2-3f44-4038-82f0-49302f9696be" x="85.18" y="28.8">allecas</tspan><tspan x="0" y="43.2">14</tspan><tspan class="67a77ea2-3f44-4038-82f0-49302f9696be" x="13.35" y="43.2">. Moratalaz</tspan><tspan x="0" y="57.6">15</tspan><tspan class="67a77ea2-3f44-4038-82f0-49302f9696be" x="13.35" y="57.6">. Ciudad Lineal</tspan></text><text class="6245f964-b161-480d-8ced-0ea3f0aa1dd0" transform="translate(8.67 389.59)">1<tspan class="67a77ea2-3f44-4038-82f0-49302f9696be" x="6.67" y="0">. Centro</tspan><tspan x="0" y="14.4">2</tspan><tspan class="67a77ea2-3f44-4038-82f0-49302f9696be" x="6.67" y="14.4">.</tspan><tspan class="d4a02704-e8cc-46a3-87ce-62d55211100e" x="10.01" y="14.4"> </tspan><tspan class="67a77ea2-3f44-4038-82f0-49302f9696be" x="12.68" y="14.4">Arganzuela</tspan><tspan x="0" y="28.8">3</tspan><tspan class="67a77ea2-3f44-4038-82f0-49302f9696be" x="6.67" y="28.8">. Retiro</tspan><tspan x="0" y="43.2">4</tspan><tspan class="67a77ea2-3f44-4038-82f0-49302f9696be" x="6.67" y="43.2">. Salamanca</tspan><tspan x="0" y="57.6">5</tspan><tspan class="67a77ea2-3f44-4038-82f0-49302f9696be" x="6.67" y="57.6">. Chamartín</tspan></text><text class="24b7872f-4c04-4bf6-9a1a-d3dab682777b" transform="translate(11.41 370.85)">DISTRI<tspan class="746c1942-0601-4c67-a121-b47240ef24d8" x="36.06" y="0">T</tspan><tspan x="42.58" y="0">OS DE MADRID</tspan></text></g><g id="ae32e129-3cb0-406b-b34a-754f1b2b93f2" data-name="fuente"><text class="23b85df2-cd6c-408c-8a1d-399ccd978f34" transform="translate(396.67 480.59)">L<tspan class="87cd79bd-564a-4f7c-ac0a-e2db9429e088" x="6.67" y="0">A</tspan><tspan x="14.02" y="0"> </tspan><tspan class="ae38f35e-a0aa-4ecf-aa4f-9f7e7bdecd7c" x="17.35" y="0">V</tspan><tspan x="24.46" y="0">ANGUARDI</tspan><tspan class="87cd79bd-564a-4f7c-ac0a-e2db9429e088" x="87.8" y="0">A</tspan></text><text class="23b85df2-cd6c-408c-8a1d-399ccd978f34" transform="translate(6.67 480.59)">Fuente:<tspan class="746c1942-0601-4c67-a121-b47240ef24d8" x="40.69" y="0"> </tspan><tspan x="43.81" y="0">TINS</tspan><tspan class="87cd79bd-564a-4f7c-ac0a-e2db9429e088" x="71.14" y="0">A</tspan></text></g><g id="1a1f4458-1826-4987-a926-138a7b39663c" data-name="numeros"><text class="6245f964-b161-480d-8ced-0ea3f0aa1dd0" transform="translate(94 208.58)">9</text><text class="6245f964-b161-480d-8ced-0ea3f0aa1dd0" transform="translate(142 202.58)">5</text><text class="6245f964-b161-480d-8ced-0ea3f0aa1dd0" transform="translate(139 235.58)">3</text><text class="6245f964-b161-480d-8ced-0ea3f0aa1dd0" transform="translate(126 214.58)">7</text><text class="6245f964-b161-480d-8ced-0ea3f0aa1dd0" transform="translate(98 259.58)"><tspan class="ae38f35e-a0aa-4ecf-aa4f-9f7e7bdecd7c">1</tspan><tspan x="5.78" y="0">1</tspan></text><text class="6245f964-b161-480d-8ced-0ea3f0aa1dd0" transform="translate(164 180.58)">16</text><text class="6245f964-b161-480d-8ced-0ea3f0aa1dd0" transform="translate(200 194.58)">21</text><text class="6245f964-b161-480d-8ced-0ea3f0aa1dd0" transform="translate(123 229.58)">1</text><text class="6245f964-b161-480d-8ced-0ea3f0aa1dd0" transform="translate(130 245.58)">2</text><text class="6245f964-b161-480d-8ced-0ea3f0aa1dd0" transform="translate(168 283.58)">18</text><text class="6245f964-b161-480d-8ced-0ea3f0aa1dd0" transform="translate(120 284.58)">17</text><text class="6245f964-b161-480d-8ced-0ea3f0aa1dd0" transform="translate(197 254.58)">19</text><text class="6245f964-b161-480d-8ced-0ea3f0aa1dd0" transform="translate(146 255.58)">13</text><text class="6245f964-b161-480d-8ced-0ea3f0aa1dd0" transform="translate(157 240.58)">14</text><text class="6245f964-b161-480d-8ced-0ea3f0aa1dd0" transform="translate(156 222.58)">15</text><text class="6245f964-b161-480d-8ced-0ea3f0aa1dd0" transform="translate(119 261.58)">12</text><text class="6245f964-b161-480d-8ced-0ea3f0aa1dd0" transform="translate(180 222.58)">20</text><text class="6245f964-b161-480d-8ced-0ea3f0aa1dd0" transform="translate(69 255.58)">10</text><text class="6245f964-b161-480d-8ced-0ea3f0aa1dd0" transform="translate(130 198.58)">6</text><text class="6245f964-b161-480d-8ced-0ea3f0aa1dd0" transform="translate(143 222.58)">4</text><text class="6245f964-b161-480d-8ced-0ea3f0aa1dd0" transform="translate(87 133.58)">8</text><text class="7f4d1130-452f-40c1-9831-bc1bf1cb513b" transform="translate(351 209.58)">9</text><text class="7f4d1130-452f-40c1-9831-bc1bf1cb513b" transform="translate(399 203.58)">5</text><text class="7f4d1130-452f-40c1-9831-bc1bf1cb513b" transform="translate(396 236.58)">3</text><text class="7f4d1130-452f-40c1-9831-bc1bf1cb513b" transform="translate(383 215.58)">7</text><text class="7f4d1130-452f-40c1-9831-bc1bf1cb513b" transform="translate(355 260.58)"><tspan class="ae38f35e-a0aa-4ecf-aa4f-9f7e7bdecd7c">1</tspan><tspan x="5.78" y="0">1</tspan></text><text class="7f4d1130-452f-40c1-9831-bc1bf1cb513b" transform="translate(421 181.58)">16</text><text class="7f4d1130-452f-40c1-9831-bc1bf1cb513b" transform="translate(457 195.58)">21</text><text class="7f4d1130-452f-40c1-9831-bc1bf1cb513b" transform="translate(380 230.58)">1</text><text class="7f4d1130-452f-40c1-9831-bc1bf1cb513b" transform="translate(387 247.58)">2</text><text class="7f4d1130-452f-40c1-9831-bc1bf1cb513b" transform="translate(425 284.58)">18</text><text class="7f4d1130-452f-40c1-9831-bc1bf1cb513b" transform="translate(377 285.58)">17</text><text class="7f4d1130-452f-40c1-9831-bc1bf1cb513b" transform="translate(454 254.58)">19</text><text class="7f4d1130-452f-40c1-9831-bc1bf1cb513b" transform="translate(403 256.58)">13</text><text class="7f4d1130-452f-40c1-9831-bc1bf1cb513b" transform="translate(414 242.58)">14</text><text class="7f4d1130-452f-40c1-9831-bc1bf1cb513b" transform="translate(412 223.58)">15</text><text class="7f4d1130-452f-40c1-9831-bc1bf1cb513b" transform="translate(376 262.58)">12</text><text class="7f4d1130-452f-40c1-9831-bc1bf1cb513b" transform="translate(437 223.58)">20</text><text class="7f4d1130-452f-40c1-9831-bc1bf1cb513b" transform="translate(326 256.58)">10</text><text class="7f4d1130-452f-40c1-9831-bc1bf1cb513b" transform="translate(387 199.58)">6</text><text class="7f4d1130-452f-40c1-9831-bc1bf1cb513b" transform="translate(400 223.58)">4</text><text class="7f4d1130-452f-40c1-9831-bc1bf1cb513b" transform="translate(344 134.58)">8</text></g><g id="13ba09c9-b935-434f-96fc-fa6705b004ca" data-name="Leyenda"><rect class="cee82a28-c4df-4bd5-a3f1-9f4df5f43497" x="8.75" y="338.5" width="21.25" height="14"/><rect class="f4dfca5e-8568-468f-b2bf-ebbe5591fc90" x="8.75" y="325.5" width="21.25" height="14"/><rect class="eb5c5d57-c355-4375-b354-70951629e68b" x="8.75" y="312.5" width="21.25" height="14"/><rect class="fbc36d43-09cf-431c-9ef8-b1a6b757d1c0" x="8.75" y="298.5" width="21.25" height="14"/><rect class="11d2faa4-0c29-4bf2-9599-38e9576dced3" x="8.75" y="284.5" width="21.25" height="14"/><rect class="9f462033-e7d1-487b-a6dc-bd4611a761e7" x="8.75" y="270.5" width="21.25" height="14"/><text class="a32737aa-c550-4f83-89cd-2ed85e445540" transform="translate(35.41 280.59)">0 - 1.000</text><text class="24b7872f-4c04-4bf6-9a1a-d3dab682777b" transform="translate(10.41 51.85)">PRECIO MEDIO (€/m<tspan class="76c78453-a00c-4f85-952b-d890602412ec" x="106.34" y="-4">2</tspan><tspan x="110.24" y="0" xml:space="preserve">)     </tspan></text><text class="a32737aa-c550-4f83-89cd-2ed85e445540" transform="translate(35.41 294.59)">1.000 - 2.000</text><text class="a32737aa-c550-4f83-89cd-2ed85e445540" transform="translate(35.41 308.59)">2.000 - 3.000</text><text class="a32737aa-c550-4f83-89cd-2ed85e445540" transform="translate(35.41 322.59)">3.000 - 4.000</text><text class="a32737aa-c550-4f83-89cd-2ed85e445540" transform="translate(35.41 335.59)">4.000 - 5.000</text><text class="a32737aa-c550-4f83-89cd-2ed85e445540" transform="translate(35.41 349.59)">5.000 - 6.000</text><rect class="21099ba7-bdc1-4cd7-9b13-ecba8516bfd1" x="262.75" y="342.5" width="21.25" height="14"/><rect class="9ffc7761-9c78-4223-b078-6b67a7990129" x="262.75" y="329.5" width="21.25" height="14"/><rect class="1c4c741f-3da5-4b03-97f5-b43694cc2651" x="262.75" y="316.5" width="21.25" height="14"/><rect class="49da4b1e-e76f-4813-8d64-5f904d52eb9b" x="262.75" y="302.5" width="21.25" height="14"/><rect class="d18712e6-bfba-483c-aedb-39dca924a14e" x="262.75" y="288.5" width="21.25" height="14"/><rect class="899f68f8-f6f8-4405-b54e-280f209499a0" x="262.75" y="274.5" width="21.25" height="14"/><text class="a32737aa-c550-4f83-89cd-2ed85e445540" transform="translate(289.41 284.59)">Menos de -10%</text><text class="a32737aa-c550-4f83-89cd-2ed85e445540" transform="translate(289.41 298.59)">-10% a -5%</text><text class="a32737aa-c550-4f83-89cd-2ed85e445540" transform="translate(289.41 312.59)">-5% a 0%</text><text class="a32737aa-c550-4f83-89cd-2ed85e445540" transform="translate(289.41 326.59)">0% a 5%</text><text class="a32737aa-c550-4f83-89cd-2ed85e445540" transform="translate(289.41 339.59)">5% a 10%</text><text class="a32737aa-c550-4f83-89cd-2ed85e445540" transform="translate(289.41 353.59)">Más de 10%</text></g></svg>