<svg xmlns="http://www.w3.org/2000/svg" viewBox="0 0 500 487"><defs><style>.aadd7629-e640-458c-ba61-ef181ab42e4d{fill:#f4e4e4;fill-opacity:0;}.\31 43ca9c2-cd87-411a-a7bf-c106e92c9aaa,.\32 6348114-b9aa-461a-a919-3f82310ff318,.\34 c006b80-2bea-4228-a0f2-8e1b30fd0f19,.\35 df92013-5310-4165-88b9-af12c96885e7,.\36 1c66f8f-1492-49f0-b603-3fa3324813a3,.\37 1769fd4-e3a2-485a-a935-4380090515e6,.\37 1f81014-ff8c-450f-b34b-a7188514227a,.\37 42968bf-2705-44aa-b30e-175db54e72f1,.\38 2f51ed3-f882-4563-a093-f8b541c961cb,.a510da1c-502b-4fd6-988d-f1d918e30187,.aadd7629-e640-458c-ba61-ef181ab42e4d,.b4b816f4-383d-4850-90c1-0c1e74df3707,.c486fda8-c446-4712-b59f-d52e077f8910,.ddbee4d4-9622-4366-8614-4af5c81d270a,.ddd3ccd8-8194-4d3e-b446-a2c125985971,.e0a31f23-2ae9-4228-a9f5-031ee9545441,.f234e0d4-c3d1-425a-80b6-d96b4aef6aef,.fb75a1d8-9b93-4713-8ceb-04034297850e,.fcdd565b-23ef-4708-ba35-be826d649f96{stroke:#fff;}.\31 43ca9c2-cd87-411a-a7bf-c106e92c9aaa,.\35 df92013-5310-4165-88b9-af12c96885e7,.a510da1c-502b-4fd6-988d-f1d918e30187,.aadd7629-e640-458c-ba61-ef181ab42e4d,.e0a31f23-2ae9-4228-a9f5-031ee9545441,.fb75a1d8-9b93-4713-8ceb-04034297850e,.fcdd565b-23ef-4708-ba35-be826d649f96{stroke-width:0.5px;}.a510da1c-502b-4fd6-988d-f1d918e30187,.c486fda8-c446-4712-b59f-d52e077f8910{fill:#f49e20;}.\31 43ca9c2-cd87-411a-a7bf-c106e92c9aaa,.\32 6348114-b9aa-461a-a919-3f82310ff318,.\34 c006b80-2bea-4228-a0f2-8e1b30fd0f19,.\35 df92013-5310-4165-88b9-af12c96885e7,.\36 1c66f8f-1492-49f0-b603-3fa3324813a3,.\37 1769fd4-e3a2-485a-a935-4380090515e6,.\37 1f81014-ff8c-450f-b34b-a7188514227a,.\37 42968bf-2705-44aa-b30e-175db54e72f1,.\38 2f51ed3-f882-4563-a093-f8b541c961cb,.a510da1c-502b-4fd6-988d-f1d918e30187,.b4b816f4-383d-4850-90c1-0c1e74df3707,.c486fda8-c446-4712-b59f-d52e077f8910,.d630d9b2-c4ed-48bd-a6f3-5d155c612e75,.ddbee4d4-9622-4366-8614-4af5c81d270a,.ddd3ccd8-8194-4d3e-b446-a2c125985971,.e0a31f23-2ae9-4228-a9f5-031ee9545441,.f234e0d4-c3d1-425a-80b6-d96b4aef6aef,.fb75a1d8-9b93-4713-8ceb-04034297850e,.fcdd565b-23ef-4708-ba35-be826d649f96{stroke-miterlimit:10;}.ddd3ccd8-8194-4d3e-b446-a2c125985971,.e0a31f23-2ae9-4228-a9f5-031ee9545441{fill:#f9f077;}.\38 2f51ed3-f882-4563-a093-f8b541c961cb,.fcdd565b-23ef-4708-ba35-be826d649f96{fill:#d57928;}.\37 42968bf-2705-44aa-b30e-175db54e72f1,.fb75a1d8-9b93-4713-8ceb-04034297850e{fill:#fecb41;}.\34 c006b80-2bea-4228-a0f2-8e1b30fd0f19,.\35 df92013-5310-4165-88b9-af12c96885e7{fill:#136361;}.\31 43ca9c2-cd87-411a-a7bf-c106e92c9aaa,.f234e0d4-c3d1-425a-80b6-d96b4aef6aef{fill:#159094;}.ee156dd7-fa7f-4a8d-bbf4-3a8fb94e9c5e{font-size:11px;}.\30 f0a7c73-61d4-4a03-a47d-fb3c63bee2b2,.\32 f508424-3a57-4954-a895-a52f34d6a08e,.\36 25e8188-81aa-45f0-8520-b03f7c65299b,.\39 bbb0152-de08-46a8-a65a-8c68887a8868,.a747a48e-e6b6-4360-bde1-7c0d7e21cc7c,.bbe2513d-f875-4855-812f-dd3b03a319fb,.e62c32dd-7b6d-468a-b1e5-5dcfc2b10907,.ee156dd7-fa7f-4a8d-bbf4-3a8fb94e9c5e{fill:#757575;}.\30 1c208e7-cb72-41dc-a0c9-0078e75d0f13,.\30 f0a7c73-61d4-4a03-a47d-fb3c63bee2b2,.\31 7dfac60-315a-4d26-b8a0-fd0c59bab037,.e62c32dd-7b6d-468a-b1e5-5dcfc2b10907,.ee156dd7-fa7f-4a8d-bbf4-3a8fb94e9c5e{font-family:ArialMT, Arial;}.a747a48e-e6b6-4360-bde1-7c0d7e21cc7c,.ef68b597-c253-4d25-bbb7-faabe395728a{letter-spacing:-0.07em;}.\30 8414dff-f198-4b32-9e7d-a59bc228f3bd{letter-spacing:-0.04em;}.d630d9b2-c4ed-48bd-a6f3-5d155c612e75{fill:none;stroke:#757575;}.\39 427f3c2-9bfc-402c-9944-09d955cfd460{font-size:21px;font-family:Arial-BoldMT, Arial;font-weight:700;}.\31 7dfac60-315a-4d26-b8a0-fd0c59bab037,.\39 427f3c2-9bfc-402c-9944-09d955cfd460{fill:#323232;}.\30 1c208e7-cb72-41dc-a0c9-0078e75d0f13,.\31 7dfac60-315a-4d26-b8a0-fd0c59bab037,.e62c32dd-7b6d-468a-b1e5-5dcfc2b10907{font-size:12px;}.\36 25e8188-81aa-45f0-8520-b03f7c65299b,.f34dd3b3-8fe4-4877-9b59-a717eaf55c1b{letter-spacing:-0.02em;}.\32 f508424-3a57-4954-a895-a52f34d6a08e{letter-spacing:-0.11em;}.\39 bbb0152-de08-46a8-a65a-8c68887a8868,.ba7bfd78-48d9-4fbb-99f4-9182080f8b3c{letter-spacing:-0.06em;}.\30 1c208e7-cb72-41dc-a0c9-0078e75d0f13{fill:#fff;}.\37 1f81014-ff8c-450f-b34b-a7188514227a{fill:#af5b1c;}.b4b816f4-383d-4850-90c1-0c1e74df3707{fill:#fff7c0;}.\30 f0a7c73-61d4-4a03-a47d-fb3c63bee2b2{font-size:10px;}.fc088ec1-8ebb-4eab-8097-7ae996f033b4{font-size:7px;}.ddbee4d4-9622-4366-8614-4af5c81d270a{fill:#15acb1;}.\37 1769fd4-e3a2-485a-a935-4380090515e6{fill:#89d2d8;}.\36 1c66f8f-1492-49f0-b603-3fa3324813a3{fill:#c9f3f4;}.\32 6348114-b9aa-461a-a919-3f82310ff318{fill:#e3ffff;}</style></defs><title>madrid</title><g id="bc4457db-d292-4853-8b90-701e724cda42" data-name="Capa 1"><g id="c77b8117-92d7-4841-ba42-51e76c8f4bae" data-name="layer1"><path id="f15d15df-3202-4ea0-a0d6-d7a19dba361a" data-name="path4315" class="aadd7629-e640-458c-ba61-ef181ab42e4d" d="M169.25,58.75l-2.42.45-2.27,2.21L162.9,65l-1.25,8.69-.89,1.71-1,1.14-2,.88-3.17,1.71-3.42,2.16-3,2.65s-1.27,2-1.46,2.48-1.08,2.73-1.08,2.73-.5,2.33-.69,2.71-1.33,2.79-1.33,2.79l-2.6,2.85-1.44,1.14-3.25,2.59-9.94-.13-4.63-2.09-4.11-.25-3.25-3.61-6.15-3.87-7.28-3.54-7.92-3.29-2.42.82-4,.31-6.15-.19L80,85l1.33-3.86-2.67-2-2.21-1.77-2.27.13.38,1.9,2.92,5L74.76,86.7l-4.5,1-8.11.06-4.63,2-.77-.82-3.86-.08-7.54,3-4.5-3.54-1.71-.75-.89.78c.19,1.16-2.41.29-3.42.89A9.84,9.84,0,0,0,33,91a26.82,26.82,0,0,1-2.68,2c-.71.53-.3,2-.19,2.51A4.7,4.7,0,0,1,29.81,98c-.17.68-1.18,1.16-1.43,2.15-.18.74-1.46,1.65-1.79,2S27,104.43,27,105a14.42,14.42,0,0,0,.35,2.87c.17.67,1.61,1.16,1.8,1.25s-.5,1.69-.36,2,2.25.45,2.68.53a20.29,20.29,0,0,1,2.7.72,23.22,23.22,0,0,1,.53,2.68,12.78,12.78,0,0,0,.72,3.23,11.94,11.94,0,0,0,1.25,2.51,16.66,16.66,0,0,1,.71,3,13.63,13.63,0,0,0,.91,2.87,9.86,9.86,0,0,1,.89,2.34,7.93,7.93,0,0,0,1.25,2.87c.67.89,1.15,2.2,1.79,3,.49.65.58,2.24.89,2.87.42.85.94,2,1.44,3a15.35,15.35,0,0,1,.71,3.4,6.35,6.35,0,0,1-.17,2.51c.24,1.18-1.44,1.78-1.44,2.87,0,.81,2.15.89,2.7.89,1.14,0,1.73,1.05,2.51,1.44,1,.5,1.49.41,2.15,1.07.46.46,1.19.83,1.62,1.25.79.79,0,1.58-.19,2.34a4.6,4.6,0,0,0,.72,2.87,15.85,15.85,0,0,1,1.25,2.32c.25,1,.32,1.83.53,2.7a15.48,15.48,0,0,1,0,3.4,7.65,7.65,0,0,1-1.07,2.51c-.44.88-.4,2-.72,2.68a4.27,4.27,0,0,0-.22,1c-.1.52-.24,1.07-.31,1.38-.21.85,0,1.88-.19,2.68s-.87,1.19-1.07,2a14.09,14.09,0,0,0,0,3c0,.51,1.81,1.27,2.15,1.44a7.4,7.4,0,0,0,2.87.17c1,0,1.42-.17,2.32-.17l5,1.43,7,2,4.12,3,2.68,5.55.91,7.18,3.94-1.62,3.59.17,3,1.08-.19,11.29-4.3,2-2.32,4,.35,5.19,2.49,10,0,0-1.25.19-2.32,3-2,1.62-3.23-.19-2.68-.17-3,.17-3.59.36h-3l-2.87-2-2.68-1.25-9.14-1.08,12,24.92,1.62-1.8,3.4,2.87,3.23.19,3.59,3.4,1.62.36,2.15-.36L78,264.67l.71-.36,5.69,2.27,5.07,2,2.7.53a25.24,25.24,0,0,0,3.21-.17c.9-.18,19.37-4.12,19.37-4.12l0,0-4.66,22.18,6.46,6.81.72.89v1.44s10.75,2.68,11.46,2.68,3.59-.71,4.49-.53,2.87-1.08,2.87-1.08l1.25-2.15,1.07-.36a12.16,12.16,0,0,1,2,1.08,5.22,5.22,0,0,0,2,.72l1.43-.19,1.43-1.43.72-.89,1.44-.19,1.8.17.16,0a13.79,13.79,0,0,1,2.51-.55,4.34,4.34,0,0,0,2.34-.71c.9-.54,2.15-1.25,2.15-1.25l8.25,9.13,4.12,2.34,2.32.36,2,.72,2.51,1.79,3.4,2.87a11.43,11.43,0,0,0,3.51,1.11l1.76,0,4.61-.11,5.79-1.1.16-1.08-1.93-1.47.13-2.52,3.18-5L206,287.2l7.59-8.17.08-.47.77-4.88,2.24-8,4.85-12.09,1-1.8,7,2.34,2.35.25,2.59-.67L236,251.6l1-2.42c.07-.16.74-3.5.74-3.5l.3-4.63-.61-2.24-1.54-2.59-2.38-2.82-2.24-1.65-2.32-1.51-1.35-.93-.94,2.4-1.16,1.66-1.71,1.93-1.38,1.35-1,.53-3.8-.41-1.33-.67s-1.26-.67-1.35-.69l-2.24-.64H210l-2.46.16a6.84,6.84,0,0,1-1.52.64c-.34,0-1.84,0-1.93,0s-1.16-.74-1.16-.74l-1.18-2.35-.61-3.4,0-.19-1.63-1.77-1.13-1.07a7.09,7.09,0,0,1-.56-1.46c0-.2.52-1.3.52-1.3l1.46-1.11s1.38-.94,1.47-1,2.13-1.91,2.13-1.91l1.4-1.69,1.11-.38,1.35,0s1.47.54,1.63.56,1.88.14,2.1.14l2.76-.09,5.8-3.4,4-.52,3.84-.69,2.78-.78.38-.14.41-.17,1.83-1.13-1.94-3.69.17-1.69,2.34.24,2.05.55-1.05-3.36-.11-2.24,1.36-2.67,1.27-2V195l-3.26-1.49-1.93-2-.25-2-.11-5.8-.83-2.16-1.62-1.82-.94-1.27-.08-4-2.92-1.38-2.45-1.36-1.05-.61L220,170l1.9-5.08-.06-2.29L215.73,161l-3.39.41-3,.36-4.81,1.49-3.73,2.1-3.17,1.77-3.23-.06-1-.13-.44-.06-7-6.92-10,1-6.73-.64-6.27-3-2.21-2.12-2.92-2.82L156.43,149l-2.15-2.27-4.19-1.21,4.12-4.88-.25-1.52-1.58-3.5-2.23-5.25-3.73-14.51-3.73-6.79-3.94-4.36,7.79-1.65,6.27-3.11,5.71-2.85,2.65-.38,2.35.82s1.83,2.41,1.9,2.67,3.54,8.17,3.54,8.17l8.25,2.92,5.07.25,4.56-1.46L197,102.85l1-4.69-.77-1.58L195,94.37l-2-2-3-1.27-.31-6.34-1.33-2.73-1.14-.94L185.65,80l-1.08-.71V73.71l-.5-2.85-1.27-3L180.71,65l-3.48-1.77-2-.38-2-2.1-2-1.44Z"/><path id="4460cf3f-fb7e-4a1a-a6d5-240ed7e743d6" data-name="path2262" class="a510da1c-502b-4fd6-988d-f1d918e30187" d="M85,235.76l1.82,1.13,3.21.17,2.7-1.79,5-3.94,2.32-.19,2.51-.17,2.34-.55,1.43-1.07,3.76-1.62,6.63-1.79,1.62-2,3.76-1.08.36-4.11-1.43-3.06s-1.25-6.44-1.25-7.34a8.86,8.86,0,0,1,.53-2.13c.27-.78.53-1.46.53-1.46l5.74-1.62-.53-1.62-1.44-2.51,2.34-5.19.36-3.23-2.16-3.21,0,0-1.82-1.4-6.45-2-4.66-1.43-2.51-.36L106,182l-1.8-1.25-3.76-4-.36,2.87-.53,1.79-1.62,1.62H96.31L95.41,182,95.24,181l-12.37.19-9.49,2.15L52.9,174c-.1.52-.24,1.07-.31,1.38-.21.85,0,1.88-.19,2.68s-.87,1.19-1.07,2a14.09,14.09,0,0,0,0,3c0,.51,1.81,1.27,2.15,1.44a7.4,7.4,0,0,0,2.87.17c1,0,1.42-.17,2.32-.17l5,1.43,7,2,4.12,3,2.68,5.55.91,7.18,3.94-1.62,3.59.17,3,1.08-.19,11.29-4.3,2-2.32,4,.35,5.19Z"/><path id="acd73d32-0b52-4f41-bef8-90d8c4e6f3ee" data-name="path2272" class="e0a31f23-2ae9-4228-a9f5-031ee9545441" d="M84.43,266.58l0-.11,5.55-5L89.86,257l4.3-2.7.72-1.43-1.62-3.23.19-.71,2.85.71,4-1.25,2.87-4.3,1.07.36,5.91-7.17,3.76-3.23,3.42-.89-.31-7.45-.24.28-6.63,1.79-3.76,1.62-1.43,1.07-2.34.55-2.51.17-2.32.19-5,3.94L90,237.06l-3.21-.17L85,235.76l0,0-1.25.19-2.32,3-2,1.62-3.23-.19-2.68-.17-3,.17-3.59.36h-3l-2.87-2-2.68-1.25-9.14-1.08,12,24.92,1.62-1.8,3.4,2.87,3.23.19,3.59,3.4,1.62.36,2.15-.36L78,264.67l.71-.36Z"/><path id="edbdc5ed-f42b-44b3-af7d-98b06e847d22" data-name="path2277" class="e0a31f23-2ae9-4228-a9f5-031ee9545441" d="M114.78,264.85l.53-7.72,2.68-6.45,4.12-4.85,4.3-2.32-1.6-.36-2.51-2-2.51-2L116.57,238l.36-2.15-1.44-2-.06-.24-1.55.41-3.76,3.23-5.91,7.17-1.07-.36-2.87,4.3-4,1.25-2.85-.71-.19.71,1.62,3.23-.72,1.43-4.3,2.7.17,4.49-5.55,5,0,.11,5.07,2,2.7.53a25.24,25.24,0,0,0,3.21-.17C96.31,268.8,114.78,264.85,114.78,264.85Z"/><path id="06aa4e9e-d8c1-45b7-82b4-8c81561462b5" data-name="path2282" class="e0a31f23-2ae9-4228-a9f5-031ee9545441" d="M137.22,269.39l-4.34-2.57h-9.5l-8.61-1.91-4.66,22.18,6.46,6.81.72.89v1.44s10.75,2.68,11.46,2.68,3.59-.71,4.49-.53,2.87-1.08,2.87-1.08l1.25-2.15,1.07-.36a12.16,12.16,0,0,1,2,1.08,5.22,5.22,0,0,0,2,.72l1.43-.19,1.43-1.43.72-.89,1.44-.19,1.8.17-3.06-10-2.7-.91v-3.21l-3.76-4.85.19-2.15Z"/><path id="2d9b7622-a6c9-491f-85f5-f62658904680" data-name="path2287" class="e0a31f23-2ae9-4228-a9f5-031ee9545441" d="M134.32,253.62l-.19-.06-7.53-10-.3.06-4.19,2.26L118,250.69l-2.68,6.45-.53,7.72,0,0,8.61,1.91h9.5l4.34,2.57,0-.06,1.08-4.66-2.87-4.12Z"/><path id="58f505c6-9525-4cee-9eb4-f91b5fa4abdf" data-name="path2299" class="a510da1c-502b-4fd6-988d-f1d918e30187" d="M135.34,233.91l-2.46,1-6.81.36-6.1-2.51.36-4.12-3.23-.53h0l.2,5-1.87.49.06.24,1.44,2-.36,2.15,3.23,1.25,2.51,2,2.51,2,1.6.36-.11.06.3-.06,7.53,10,.19.06,0-.06,4.85-1.8,1.62-4.11,3.21-1.25,1.25-1.62-.17-.89-1.43-2.16-3.42-3.58Z"/><path id="4e34b8c4-240a-417b-b762-f24a64e4fa36" data-name="path2304" class="fcdd565b-23ef-4708-ba35-be826d649f96" d="M136.55,220.77l-6.37-3.23-6.45-1.8-2.51.36,1.25,2.7-.36,4.11L118.36,224,117,225.68l.11,2.43h0l3.23.53-.36,4.12,6.1,2.51,6.81-.36,2.46-1-1.74-1.51v-4.3l1.6-4.66Z"/><path id="eb7c0429-4553-4bfd-b5af-9e74c8301478" data-name="path2292" class="fcdd565b-23ef-4708-ba35-be826d649f96" d="M126.5,202.84l.11.35-5.74,1.62s-.26.67-.53,1.46a8.86,8.86,0,0,0-.53,2.13c0,.9,1.25,7.34,1.25,7.34l.17.36,2.51-.36,6.45,1.8,6.37,3.23.82-1.63.89-3.21-.89-2.34-.36-8.45Z"/><path id="a413e6b2-7990-4696-936f-4a20d5cb1977" data-name="path2267" class="a510da1c-502b-4fd6-988d-f1d918e30187" d="M126.5,202.84,137,205.13V205l4.12-19.37-.11-.31-.08.31L139.51,184l-2.34.36-3.4-.71-2.68,1.25-3.23.53-2.15,2.32-.52-.39,0,0,2.16,3.21-.36,3.23-2.34,5.19,1.44,2.51Z"/><path id="d45c86d5-62d0-4d04-a2fe-0c1cd2dbb64e" data-name="path2309" class="a510da1c-502b-4fd6-988d-f1d918e30187" d="M145.17,244.43l.06,0L153.85,231l.89-4-3.23-1.43-15.06-.89-1.79.89-.24.08-.83,2.43v4.3l6.62,5.74,3.42,3.58,1.43,2.16Z"/><path id="057ee3d5-6d69-4813-bc75-ebdbfeaa7e65" data-name="path2319" class="fcdd565b-23ef-4708-ba35-be826d649f96" d="M137.25,211l.11,2.62.89,2.34-.89,3.21-2.16,4.31-.77,2.23.24-.08,1.79-.89,15.06.89,3.23,1.43-.16.72h.16l.19-3.59L154,218.6l1.62-5-.67-5.5-10.43,4.78Z"/><path id="6a0d487e-c64d-4bd8-aeff-8618ae0dc47d" data-name="path2314" class="a510da1c-502b-4fd6-988d-f1d918e30187" d="M137.25,211l7.28,1.9L155,208.08l0-.24-1.08-5.36V195l-2.51-4.49-2-9.14.89-3.91-7.34,1-1.9,6.85.11.31L137,205Z"/><path id="577eab85-d10e-4769-b4db-25d4a5d3a695" data-name="path2324" class="e0a31f23-2ae9-4228-a9f5-031ee9545441" d="M213.63,278.56l-7.09-2.6-8.78-6.27-3.23-.36-7.7-5.72.36-4.12.89-1.79-1.79-.55-.19-2.32-11.82-4.49-2.34,6.27-16.67,3.59-2.15,3.4-3.76,4.3-5.91,1.79-6.13-.17,2.56,3.4-.19,2.15,3.76,4.85v3.21l2.7.91,3.06,10,.16,0a13.79,13.79,0,0,1,2.51-.55,4.34,4.34,0,0,0,2.34-.71c.9-.54,2.15-1.25,2.15-1.25l8.25,9.13,4.12,2.34,2.32.36,2,.72,2.51,1.79,3.4,2.87a11.43,11.43,0,0,0,3.51,1.11l1.76,0,4.61-.11,5.79-1.1.16-1.08-1.93-1.47.13-2.52,3.18-5L206,287.2l7.59-8.17Z"/><path id="fafa2522-77de-4934-a0dc-02cb3c11f884" data-name="path2329" class="e0a31f23-2ae9-4228-a9f5-031ee9545441" d="M174.42,250.38l-.14-.22-7.36-2.7-5.19-2.68-3-4.85-2.16-2.15-2-.89-4.11-.61-5.22,8.14-.06,0,.06.35L144,246.39l-3.21,1.25-1.62,4.11-4.85,1.8,1.08,7,2.87,4.12-1.08,4.66.14.19,6.13.17,5.91-1.79,3.76-4.3,2.15-3.4,16.67-3.59,2.34-6.27Z"/><path id="9ffaee01-a6f8-44e2-a3f2-8eced0e50bb5" data-name="path2334" class="fb75a1d8-9b93-4713-8ceb-04034297850e" d="M170.88,248.9l6.81-16.31-3-1.25h-9.86l-4.66-.55-1.25-.71-.36-1.62-3.73-1.36,0,.64h-.16l-.74,3.23-3.39,5.3,4.11.61,2,.89,2.16,2.15,3,4.85,5.19,2.68Z"/><path id="5cc47751-a4b8-4cb8-a7f6-d465a8c4fb11" data-name="path2339" class="fb75a1d8-9b93-4713-8ceb-04034297850e" d="M177.35,232.47l-8.81-18,.36-.89.89-.72-.36-1.07-3.58-3.23-6.63-11.46-4.12-4-.89-9.14.72-2.68,2.51-2s-5.59-1.56-7-2l0,.08-.19,0-.89,3.91,2,9.14,2.51,4.49v7.53l1.08,5.36.71,5.74-1.62,5,.91,5.55-.16,2.95,3.73,1.36.36,1.62,1.25.71,4.66.55h9.86Z"/><path id="bbbda98f-401a-4284-9f6e-04e14ee0544e" data-name="path2344" class="fb75a1d8-9b93-4713-8ceb-04034297850e" d="M193.38,167l-.11,1.25.72,1.43,1.08,1.79v1.08l-1.8,2.15-6.45,2.7L185,179.71l-.91,3-5.19,2.87-1.25,1.62.72,2-.36,2-1.62-.55.72,1.62,4.3,7.36,5.55,3.21,2.15.91.19,2.85L209,208.4l14.33,2,7.15,2,.41-.17,1.83-1.13-1.94-3.69.17-1.69,2.34.24,2.05.55-1.05-3.36-.11-2.24,1.36-2.67,1.27-2V195l-3.26-1.49-1.93-2-.25-2-.11-5.8-.83-2.16-1.62-1.82-.94-1.27-.08-4-2.92-1.38-2.45-1.36-1.05-.61L220,170l1.9-5.08-.06-2.29L215.73,161l-3.39.41-3,.36-4.81,1.49-3.73,2.1-3.17,1.77-3.23-.06Z"/><path id="53a8a069-eb2d-4c00-857f-bd77fc63e0f9" data-name="path2354" class="e0a31f23-2ae9-4228-a9f5-031ee9545441" d="M201.13,229.1,195.08,239,183.6,233.3l-.17-3-5.83,2.31.09,0-6.81,16.31,3.4,1.25.14.22,11.68,4.44.19,2.32,1.79.55-.89,1.79-.36,4.12,7.7,5.72,3.23.36,8.78,6.27,7.09,2.6.77-4.88,2.24-8,4.85-12.09,1-1.8,7,2.34,2.35.25,2.59-.67L236,251.6l1-2.42c.07-.16.74-3.5.74-3.5l.3-4.63-.61-2.24-1.54-2.59-2.38-2.82-2.24-1.65-2.32-1.51-1.35-.93-.94,2.4-1.16,1.66-1.71,1.93-1.38,1.35-1,.53-3.8-.41-1.33-.67s-1.26-.67-1.35-.69l-2.24-.64H210l-2.46.16a6.84,6.84,0,0,1-1.52.64c-.34,0-1.84,0-1.93,0s-1.16-.74-1.16-.74l-1.18-2.35Z"/><path id="3c557e3c-c264-463e-a6dd-632f7a8327e3" data-name="path2349" class="fb75a1d8-9b93-4713-8ceb-04034297850e" d="M164,205.35l1.85,3.21,3.58,3.23.36,1.07-.89.72-.36.89,8.81,18,.24.09,5.83-2.31.17,3L195.08,239l6.05-9.94,0-.19-1.63-1.77-1.13-1.07a7.09,7.09,0,0,1-.56-1.46c0-.2.52-1.3.52-1.3l1.46-1.11s1.38-.94,1.47-1,2.13-1.91,2.13-1.91l1.4-1.69,1.11-.38,1.35,0s1.47.54,1.63.56,1.88.14,2.1.14l2.76-.09,5.8-3.4,4-.52,3.84-.69,2.78-.78.38-.14-7.15-2-14.33-2-19.71-1.8Z"/><path id="4575b5ab-1673-4a57-a403-c923846c4c27" data-name="path2239" class="fb75a1d8-9b93-4713-8ceb-04034297850e" d="M164,205.35l25.33,1.24-.19-2.85-2.15-.91-5.55-3.21-4.3-7.36-.72-1.62,1.62.55.36-2-.72-2,1.25-1.62,5.19-2.87.91-3,1.79-2.32,6.45-2.7,1.8-2.15v-1.08L194,169.67l-.72-1.43.11-1.25-.44-.06-7-6.92-10,1-6.73-.64-6.27-3-2.21-2.12.33,4.17-1.43,4.3-1.8,2.87-4.11,2.51-1.44,2.51-1.76,5.66c1.38.48,7,2,7,2l-2.51,2-.72,2.68.89,9.14,4.12,4Z"/><path id="ab29b86a-c0e8-4794-b156-c5e4e1c0f4e9" data-name="path2234" class="a510da1c-502b-4fd6-988d-f1d918e30187" d="M52.9,174l20.48,9.27,9.49-2.15L95.24,181l.17,1.08.89,1.07h1.62l1.62-1.62.53-1.79.36-2.87,3.76,4L106,182l3.76.17,2.51.36,4.66,1.43,6.45,2,2.34,1.79,2.15-2.32,3.23-.53,2.68-1.25,3.4.71,2.34-.36,1.43,1.62,2-7.17,7.53-1.07,1.79-5.74,1.44-2.51,4.11-2.51,1.8-2.87,1.43-4.3-.33-4.17-2.92-2.82L156.43,149l-2.15-2.27-4.19-1.21,4.12-4.88-.25-1.52-1.58-3.5-2.23-5.25-3.73-14.51-3.73-6.79-3.94-4.36,7.79-1.65,6.27-3.11,5.71-2.85,2.65-.38,2.35.82s1.83,2.41,1.9,2.67,3.54,8.17,3.54,8.17l8.25,2.92,5.07.25,4.56-1.46L197,102.85l1-4.69-.77-1.58L195,94.37l-2-2-3-1.27-.31-6.34-1.33-2.73-1.14-.94L185.65,80l-1.08-.71V73.71l-.5-2.85-1.27-3L180.71,65l-3.48-1.77-2-.38-2-2.1-2-1.44-2-.52-2.42.45-2.27,2.21L162.9,65l-1.25,8.69-.89,1.71-1,1.14-2,.88-3.17,1.71-3.42,2.16-3,2.65s-1.27,2-1.46,2.48-1.08,2.73-1.08,2.73-.5,2.33-.69,2.71-1.33,2.79-1.33,2.79l-2.6,2.85-1.44,1.14-3.25,2.59-9.94-.13-4.63-2.09-4.11-.25-3.25-3.61-6.15-3.87-7.28-3.54-7.92-3.29-2.42.82-4,.31-6.15-.19L80,85l1.33-3.86-2.67-2-2.21-1.77-2.27.13.38,1.9,2.92,5L74.76,86.7l-4.5,1-8.11.06-4.63,2-.77-.82-3.86-.08-7.54,3-4.5-3.54-1.71-.75-.89.78c.19,1.16-2.41.29-3.42.89A9.84,9.84,0,0,0,33,91a26.82,26.82,0,0,1-2.68,2c-.71.53-.3,2-.19,2.51A4.7,4.7,0,0,1,29.81,98c-.17.68-1.18,1.16-1.43,2.15-.18.74-1.46,1.65-1.79,2S27,104.43,27,105a14.42,14.42,0,0,0,.35,2.87c.17.67,1.61,1.16,1.8,1.25s-.5,1.69-.36,2,2.25.45,2.68.53a20.29,20.29,0,0,1,2.7.72,23.22,23.22,0,0,1,.53,2.68,12.78,12.78,0,0,0,.72,3.23,11.94,11.94,0,0,0,1.25,2.51,16.66,16.66,0,0,1,.71,3,13.63,13.63,0,0,0,.91,2.87,9.86,9.86,0,0,1,.89,2.34,7.93,7.93,0,0,0,1.25,2.87c.67.89,1.15,2.2,1.79,3,.49.65.58,2.24.89,2.87.42.85.94,2,1.44,3a15.35,15.35,0,0,1,.71,3.4,6.35,6.35,0,0,1-.17,2.51c.24,1.18-1.44,1.78-1.44,2.87,0,.81,2.15.89,2.7.89,1.14,0,1.73,1.05,2.51,1.44,1,.5,1.49.41,2.15,1.07.46.46,1.19.83,1.62,1.25.79.79,0,1.58-.19,2.34a4.6,4.6,0,0,0,.72,2.87,15.85,15.85,0,0,1,1.25,2.32c.25,1,.32,1.83.53,2.7a15.48,15.48,0,0,1,0,3.4,7.65,7.65,0,0,1-1.07,2.51c-.44.88-.4,2-.72,2.68A4.27,4.27,0,0,0,52.9,174Z"/></g><g id="1d272872-84eb-4f2a-92df-88b86161da4a" data-name="layer1"><path id="2cb26344-762f-4f84-aede-f7e5991c66e3" data-name="path4315" class="aadd7629-e640-458c-ba61-ef181ab42e4d" d="M426.25,60.75l-2.42.45-2.27,2.21L419.9,67l-1.25,8.69-.89,1.71-1,1.14-2,.88-3.17,1.71-3.42,2.16-3,2.65s-1.27,2-1.46,2.48-1.08,2.73-1.08,2.73-.5,2.33-.69,2.71-1.33,2.79-1.33,2.79l-2.6,2.85-1.44,1.14-3.25,2.59-9.94-.13-4.63-2.09-4.11-.25-3.25-3.61-6.15-3.87-7.28-3.54-7.92-3.29-2.42.82-4,.31-6.15-.19L337,87l1.33-3.86-2.67-2-2.21-1.77-2.27.13.38,1.9,2.92,5-2.73,2.27-4.5,1-8.11.06-4.63,2-.77-.82-3.86-.08-7.54,3-4.5-3.54-1.71-.75-.89.78c.19,1.16-2.41.29-3.42.89A9.84,9.84,0,0,0,290,93a26.82,26.82,0,0,1-2.68,2c-.71.53-.3,2-.19,2.51a4.7,4.7,0,0,1-.36,2.51c-.17.68-1.18,1.16-1.43,2.15-.18.74-1.46,1.65-1.79,2s.36,2.32.36,2.85a14.42,14.42,0,0,0,.35,2.87c.17.67,1.61,1.16,1.8,1.25s-.5,1.69-.36,2,2.25.45,2.68.53a20.29,20.29,0,0,1,2.7.72,23.22,23.22,0,0,1,.53,2.68,12.78,12.78,0,0,0,.72,3.23,11.94,11.94,0,0,0,1.25,2.51,16.66,16.66,0,0,1,.71,3,13.63,13.63,0,0,0,.91,2.87,9.86,9.86,0,0,1,.89,2.34,7.93,7.93,0,0,0,1.25,2.87c.67.89,1.15,2.2,1.79,3,.49.65.58,2.24.89,2.87.42.85.94,2,1.44,3a15.35,15.35,0,0,1,.71,3.4,6.35,6.35,0,0,1-.17,2.51c.24,1.18-1.44,1.78-1.44,2.87,0,.81,2.15.89,2.7.89,1.14,0,1.73,1.05,2.51,1.44,1,.5,1.49.41,2.15,1.07.46.46,1.19.83,1.62,1.25.79.79,0,1.58-.19,2.34a4.6,4.6,0,0,0,.72,2.87,15.85,15.85,0,0,1,1.25,2.32c.25,1,.32,1.83.53,2.7a15.48,15.48,0,0,1,0,3.4,7.65,7.65,0,0,1-1.07,2.51c-.44.88-.4,2-.72,2.68a4.27,4.27,0,0,0-.22,1c-.1.52-.24,1.07-.31,1.38-.21.85,0,1.88-.19,2.68s-.87,1.19-1.07,2a14.09,14.09,0,0,0,0,3c0,.51,1.81,1.27,2.15,1.44a7.4,7.4,0,0,0,2.87.17c1,0,1.42-.17,2.32-.17l5,1.43,7,2,4.12,3,2.68,5.55.91,7.18,3.94-1.62,3.59.17,3,1.08-.19,11.29-4.3,2-2.32,4,.35,5.19,2.49,10,0,0-1.25.19-2.32,3-2,1.62-3.23-.19-2.68-.17-3,.17-3.59.36h-3l-2.87-2-2.68-1.25-9.14-1.08,12,24.92,1.62-1.8,3.4,2.87,3.23.19,3.59,3.4,1.62.36,2.15-.36,1.25-1.44.71-.36,5.69,2.27,5.07,2,2.7.53a25.24,25.24,0,0,0,3.21-.17c.9-.18,19.37-4.12,19.37-4.12l0,0-4.66,22.18,6.46,6.81.72.89v1.44s10.75,2.68,11.46,2.68,3.59-.71,4.49-.53,2.87-1.08,2.87-1.08l1.25-2.15,1.07-.36a12.16,12.16,0,0,1,2,1.08,5.22,5.22,0,0,0,2,.72l1.43-.19,1.43-1.43.72-.89,1.44-.19,1.8.17.16,0a13.79,13.79,0,0,1,2.51-.55,4.34,4.34,0,0,0,2.34-.71c.9-.54,2.15-1.25,2.15-1.25l8.25,9.13,4.12,2.34,2.32.36,2,.72,2.51,1.79,3.4,2.87a11.43,11.43,0,0,0,3.51,1.11l1.76,0,4.61-.11,5.79-1.1.16-1.08-1.93-1.47.13-2.52,3.18-5L463,289.2l7.59-8.17.08-.47.77-4.88,2.24-8,4.85-12.09,1-1.8,7,2.34,2.35.25,2.59-.67L493,253.6l1-2.42c.07-.16.74-3.5.74-3.5l.3-4.63-.61-2.24-1.54-2.59-2.38-2.82-2.24-1.65-2.32-1.51-1.35-.93-.94,2.4-1.16,1.66-1.71,1.93-1.38,1.35-1,.53-3.8-.41-1.33-.67s-1.26-.67-1.35-.69l-2.24-.64H467l-2.46.16a6.84,6.84,0,0,1-1.52.64c-.34,0-1.84,0-1.93,0s-1.16-.74-1.16-.74l-1.18-2.35-.61-3.4,0-.19-1.63-1.77-1.13-1.07a7.09,7.09,0,0,1-.56-1.46c0-.2.52-1.3.52-1.3l1.46-1.11s1.38-.94,1.47-1,2.13-1.91,2.13-1.91l1.4-1.69,1.11-.38,1.35,0s1.47.54,1.63.56,1.88.14,2.1.14l2.76-.09,5.8-3.4,4-.52,3.84-.69,2.78-.78.38-.14.41-.17,1.83-1.13-1.94-3.69.17-1.69,2.34.24,2.05.55-1.05-3.36-.11-2.24,1.36-2.67,1.27-2V197l-3.26-1.49-1.93-2-.25-2-.11-5.8-.83-2.16-1.62-1.82-.94-1.27-.08-4-2.92-1.38-2.45-1.36-1.05-.61L477,172l1.9-5.08-.06-2.29L472.73,163l-3.39.41-3,.36-4.81,1.49-3.73,2.1-3.17,1.77-3.23-.06-1-.13-.44-.06-7-6.92-10,1-6.73-.64-6.27-3-2.21-2.12-2.92-2.82L413.43,151l-2.15-2.27-4.19-1.21,4.12-4.88-.25-1.52-1.58-3.5-2.23-5.25-3.73-14.51-3.73-6.79-3.94-4.36,7.79-1.65,6.27-3.11,5.71-2.85,2.65-.38,2.35.82s1.83,2.41,1.9,2.67,3.54,8.17,3.54,8.17l8.25,2.92,5.07.25,4.56-1.46L454,104.85l1-4.69-.77-1.58L452,96.37l-2-2-3-1.27-.31-6.34-1.33-2.73-1.14-.94L442.65,82l-1.08-.71V75.71l-.5-2.85-1.27-3L437.71,67l-3.48-1.77-2-.38-2-2.1-2-1.44Z"/><path id="606af390-005f-4b33-bf73-a7fa0ac57a6e" data-name="path2262" class="5df92013-5310-4165-88b9-af12c96885e7" d="M342,237.76l1.82,1.13,3.21.17,2.7-1.79,5-3.94,2.32-.19,2.51-.17,2.34-.55,1.43-1.07,3.76-1.62,6.63-1.79,1.62-2,3.76-1.08.36-4.11-1.43-3.06s-1.25-6.44-1.25-7.34a8.86,8.86,0,0,1,.53-2.13c.27-.78.53-1.46.53-1.46l5.74-1.62-.53-1.62-1.44-2.51,2.34-5.19.36-3.23-2.16-3.21,0,0-1.82-1.4-6.45-2-4.66-1.43-2.51-.36L363,184l-1.8-1.25-3.76-4-.36,2.87-.53,1.79-1.62,1.62h-1.62l-.89-1.07-.17-1.08-12.37.19-9.49,2.15L309.9,176c-.1.52-.24,1.07-.31,1.38-.21.85,0,1.88-.19,2.68s-.87,1.19-1.07,2a14.09,14.09,0,0,0,0,3c0,.51,1.81,1.27,2.15,1.44a7.4,7.4,0,0,0,2.87.17c1,0,1.42-.17,2.32-.17l5,1.43,7,2,4.12,3,2.68,5.55.91,7.18,3.94-1.62,3.59.17,3,1.08-.19,11.29-4.3,2-2.32,4,.35,5.19Z"/><path id="a20f06c0-723d-43d9-9728-14a1731ad20c" data-name="path2272" class="5df92013-5310-4165-88b9-af12c96885e7" d="M363.34,231.36l-1.43,1.07-2.34.55-2.51.17-2.32.19-5,3.94-2.7,1.79-3.21-.17L342,237.76l0,0-1.25.19-2.32,3-2,1.62-3.23-.19-2.68-.17-3,.17-3.59.36h-3l-2.87-2-2.68-1.25-9.14-1.08,12,24.92,1.62-1.8,3.4,2.87,3.23.19,3.59,3.4,1.62.36,2.15-.36,1.25-1.44.71-.36,5.69,2.27,0-.11,5.55-5-.17-4.49,4.3-2.7.72-1.43-1.62-3.23.19-.71,2.85.71,4-1.25,2.87-4.3,1.07.36,5.91-7.17,3.76-3.23,3.42-.89-.31-7.45-.24.28"/><path id="577f8390-3946-4a9f-9442-90cdc2bb5331" data-name="path2277" class="143ca9c2-cd87-411a-a7bf-c106e92c9aaa" d="M371.78,266.85l.53-7.72,2.68-6.45,4.12-4.85,4.3-2.32-1.6-.36-2.51-2-2.51-2L373.57,240l.36-2.15-1.44-2-.06-.24-1.55.41-3.76,3.23-5.91,7.17-1.07-.36-2.87,4.3-4,1.25-2.85-.71-.19.71,1.62,3.23-.72,1.43-4.3,2.7.17,4.49-5.55,5,0,.11,5.07,2,2.7.53a25.24,25.24,0,0,0,3.21-.17C353.31,270.8,371.78,266.85,371.78,266.85Z"/><path id="f493a31f-deaa-4257-a26a-638d77031cbf" data-name="path2282" class="5df92013-5310-4165-88b9-af12c96885e7" d="M394.22,271.39l-4.34-2.57h-9.5l-8.61-1.91-4.66,22.18,6.46,6.81.72.89v1.44s10.75,2.68,11.46,2.68,3.59-.71,4.49-.53,2.87-1.08,2.87-1.08l1.25-2.15,1.07-.36a12.16,12.16,0,0,1,2,1.08,5.22,5.22,0,0,0,2,.72l1.43-.19,1.43-1.43.72-.89,1.44-.19,1.8.17-3.06-10-2.7-.91v-3.21l-3.76-4.85.19-2.15Z"/><path id="41c323a9-f64a-4e38-9fc6-dd4072815fc8" data-name="path2287" class="5df92013-5310-4165-88b9-af12c96885e7" d="M391.32,255.62l-.19-.06-7.53-10-.3.06-4.19,2.26L375,252.69l-2.68,6.45-.53,7.72,0,0,8.61,1.91h9.5l4.34,2.57,0-.06,1.08-4.66-2.87-4.12Z"/><path id="edf9d100-371c-4faa-8b97-1f62ab7b3456" data-name="path2299" class="5df92013-5310-4165-88b9-af12c96885e7" d="M392.34,235.91l-2.46,1-6.81.36-6.1-2.51.36-4.12-3.23-.53h0l.2,5-1.87.49.06.24,1.44,2-.36,2.15,3.23,1.25,2.51,2,2.51,2,1.6.36-.11.06.3-.06,7.53,10,.19.06,0-.06,4.85-1.8,1.62-4.11,3.21-1.25,1.25-1.62-.17-.89-1.43-2.16-3.42-3.58Z"/><path id="0892dec5-e9be-461b-8b7c-8c6942f7a0a3" data-name="path2304" class="5df92013-5310-4165-88b9-af12c96885e7" d="M393.55,222.77l-6.37-3.23-6.45-1.8-2.51.36,1.25,2.7-.36,4.11L375.36,226,374,227.68l.11,2.43h0l3.23.53-.36,4.12,6.1,2.51,6.81-.36,2.46-1-1.74-1.51v-4.3l1.6-4.66Z"/><path id="2bb851cd-84df-4bc9-85b0-26eeaafc794e" data-name="path2292" class="5df92013-5310-4165-88b9-af12c96885e7" d="M383.5,204.84l.11.35-5.74,1.62s-.26.67-.53,1.46a8.86,8.86,0,0,0-.53,2.13c0,.9,1.25,7.34,1.25,7.34l.17.36,2.51-.36,6.45,1.8,6.37,3.23.82-1.63.89-3.21-.89-2.34-.36-8.45Z"/><path id="2b44eca1-d1eb-44e3-9d3c-a98cad04ff26" data-name="path2267" class="5df92013-5310-4165-88b9-af12c96885e7" d="M383.5,204.84,394,207.13V207l4.12-19.37-.11-.31-.08.31L396.51,186l-2.34.36-3.4-.71-2.68,1.25-3.23.53-2.15,2.32-.52-.39,0,0,2.16,3.21-.36,3.23-2.34,5.19,1.44,2.51Z"/><path id="6d30d9b8-dfdd-4e08-b434-b3bcfd474ae6" data-name="path2309" class="5df92013-5310-4165-88b9-af12c96885e7" d="M402.17,246.43l.06,0L410.85,233l.89-4-3.23-1.43-15.06-.89-1.79.89-.24.08-.83,2.43v4.3l6.62,5.74,3.42,3.58,1.43,2.16Z"/><path id="85a4a47b-8196-42aa-a5a0-190a25ad8add" data-name="path2319" class="5df92013-5310-4165-88b9-af12c96885e7" d="M394.25,213l.11,2.62.89,2.34-.89,3.21-2.16,4.31-.77,2.23.24-.08,1.79-.89,15.06.89,3.23,1.43-.16.72h.16l.19-3.59L411,220.6l1.62-5-.67-5.5-10.43,4.78Z"/><path id="1a696ff3-6193-4430-be3a-0e27d560803f" data-name="path2314" class="143ca9c2-cd87-411a-a7bf-c106e92c9aaa" d="M394.25,213l7.28,1.9L412,210.08l0-.24-1.08-5.36V197l-2.51-4.49-2-9.14.89-3.91-7.34,1-1.9,6.85.11.31L394,207Z"/><path id="4f4f4b20-a9af-4a64-859d-082839797e88" data-name="path2324" class="143ca9c2-cd87-411a-a7bf-c106e92c9aaa" d="M470.63,280.56l-7.09-2.6-8.78-6.27-3.23-.36-7.7-5.72.36-4.12.89-1.79-1.79-.55-.19-2.32-11.82-4.49-2.34,6.27-16.67,3.59-2.15,3.4-3.76,4.3-5.91,1.79-6.13-.17,2.56,3.4-.19,2.15,3.76,4.85v3.21l2.7.91,3.06,10,.16,0a13.79,13.79,0,0,1,2.51-.55,4.34,4.34,0,0,0,2.34-.71c.9-.54,2.15-1.25,2.15-1.25l8.25,9.13,4.12,2.34,2.32.36,2,.72,2.51,1.79,3.4,2.87a11.43,11.43,0,0,0,3.51,1.11l1.76,0,4.61-.11,5.79-1.1.16-1.08-1.93-1.47.13-2.52,3.18-5L463,289.2l7.59-8.17Z"/><path id="946834fe-a2e6-4a1b-9d61-1fa3237aefd2" data-name="path2329" class="143ca9c2-cd87-411a-a7bf-c106e92c9aaa" d="M431.42,252.38l-.14-.22-7.36-2.7-5.19-2.68-3-4.85-2.16-2.15-2-.89-4.11-.61-5.22,8.14-.06,0,.06.35L401,248.39l-3.21,1.25-1.62,4.11-4.85,1.8,1.08,7,2.87,4.12-1.08,4.66.14.19,6.13.17,5.91-1.79,3.76-4.3,2.15-3.4,16.67-3.59,2.34-6.27Z"/><path id="5275d918-76e6-45b0-8739-d38fda990d26" data-name="path2334" class="5df92013-5310-4165-88b9-af12c96885e7" d="M427.88,250.9l6.81-16.31-3-1.25h-9.86l-4.66-.55-1.25-.71-.36-1.62-3.73-1.36,0,.64h-.16l-.74,3.23-3.39,5.3,4.11.61,2,.89,2.16,2.15,3,4.85,5.19,2.68Z"/><path id="99edf7e5-6df6-40fb-9986-ddb4e42f07b7" data-name="path2339" class="143ca9c2-cd87-411a-a7bf-c106e92c9aaa" d="M434.35,234.47l-8.81-18,.36-.89.89-.72-.36-1.07-3.58-3.23-6.63-11.46-4.12-4-.89-9.14.72-2.68,2.51-2s-5.59-1.56-7-2l0,.08-.19,0-.89,3.91,2,9.14,2.51,4.49v7.53l1.08,5.36.71,5.74-1.62,5,.91,5.55-.16,2.95,3.73,1.36.36,1.62,1.25.71,4.66.55h9.86Z"/><path id="49f76355-faa0-4aac-be6b-402edb1149aa" data-name="path2344" class="5df92013-5310-4165-88b9-af12c96885e7" d="M450.38,169l-.11,1.25.72,1.43,1.08,1.79v1.08l-1.8,2.15-6.45,2.7L442,181.71l-.91,3-5.19,2.87-1.25,1.62.72,2-.36,2-1.62-.55.72,1.62,4.3,7.36,5.55,3.21,2.15.91.19,2.85L466,210.4l14.33,2,7.15,2,.41-.17,1.83-1.13-1.94-3.69.17-1.69,2.34.24,2.05.55-1.05-3.36-.11-2.24,1.36-2.67,1.27-2V197l-3.26-1.49-1.93-2-.25-2-.11-5.8-.83-2.16-1.62-1.82-.94-1.27-.08-4-2.92-1.38-2.45-1.36-1.05-.61L477,172l1.9-5.08-.06-2.29L472.73,163l-3.39.41-3,.36-4.81,1.49-3.73,2.1-3.17,1.77-3.23-.06Z"/><path id="dea690d7-a16e-4be0-9101-770ff7ff545e" data-name="path2354" class="5df92013-5310-4165-88b9-af12c96885e7" d="M458.13,231.1,452.08,241,440.6,235.3l-.17-3-5.83,2.31.09,0-6.81,16.31,3.4,1.25.14.22,11.68,4.44.19,2.32,1.79.55-.89,1.79-.36,4.12,7.7,5.72,3.23.36,8.78,6.27,7.09,2.6.77-4.88,2.24-8,4.85-12.09,1-1.8,7,2.34,2.35.25,2.59-.67L493,253.6l1-2.42c.07-.16.74-3.5.74-3.5l.3-4.63-.61-2.24-1.54-2.59-2.38-2.82-2.24-1.65-2.32-1.51-1.35-.93-.94,2.4-1.16,1.66-1.71,1.93-1.38,1.35-1,.53-3.8-.41-1.33-.67s-1.26-.67-1.35-.69l-2.24-.64H467l-2.46.16a6.84,6.84,0,0,1-1.52.64c-.34,0-1.84,0-1.93,0s-1.16-.74-1.16-.74l-1.18-2.35Z"/><path id="48e3cb92-de03-4afb-8038-eb6432789c90" data-name="path2349" class="143ca9c2-cd87-411a-a7bf-c106e92c9aaa" d="M421,207.35l1.85,3.21,3.58,3.23.36,1.07-.89.72-.36.89,8.81,18,.24.09,5.83-2.31.17,3L452.08,241l6.05-9.94,0-.19-1.63-1.77-1.13-1.07a7.09,7.09,0,0,1-.56-1.46c0-.2.52-1.3.52-1.3l1.46-1.11s1.38-.94,1.47-1,2.13-1.91,2.13-1.91l1.4-1.69,1.11-.38,1.35,0s1.47.54,1.63.56,1.88.14,2.1.14l2.76-.09,5.8-3.4,4-.52,3.84-.69,2.78-.78.38-.14-7.15-2-14.33-2-19.71-1.8Z"/><path id="6e5f489c-317b-4838-acfa-a5d96d9f6e7e" data-name="path2239" class="5df92013-5310-4165-88b9-af12c96885e7" d="M421,207.35l25.33,1.24-.19-2.85-2.15-.91-5.55-3.21-4.3-7.36-.72-1.62,1.62.55.36-2-.72-2,1.25-1.62,5.19-2.87.91-3,1.79-2.32,6.45-2.7,1.8-2.15v-1.08L451,171.67l-.72-1.43.11-1.25-.44-.06-7-6.92-10,1-6.73-.64-6.27-3-2.21-2.12.33,4.17-1.43,4.3-1.8,2.87-4.11,2.51-1.44,2.51-1.76,5.66c1.38.48,7,2,7,2l-2.51,2-.72,2.68.89,9.14,4.12,4Z"/><path id="e31f1104-ab0f-4d1f-a456-d68bd1d44899" data-name="path2234" class="5df92013-5310-4165-88b9-af12c96885e7" d="M309.9,176l20.48,9.27,9.49-2.15,12.37-.19.17,1.08.89,1.07h1.62l1.62-1.62.53-1.79.36-2.87,3.76,4L363,184l3.76.17,2.51.36,4.66,1.43,6.45,2,2.34,1.79,2.15-2.32,3.23-.53,2.68-1.25,3.4.71,2.34-.36,1.43,1.62,2-7.17,7.53-1.07,1.79-5.74,1.44-2.51,4.11-2.51,1.8-2.87,1.43-4.3-.33-4.17-2.92-2.82L413.43,151l-2.15-2.27-4.19-1.21,4.12-4.88-.25-1.52-1.58-3.5-2.23-5.25-3.73-14.51-3.73-6.79-3.94-4.36,7.79-1.65,6.27-3.11,5.71-2.85,2.65-.38,2.35.82s1.83,2.41,1.9,2.67,3.54,8.17,3.54,8.17l8.25,2.92,5.07.25,4.56-1.46L454,104.85l1-4.69-.77-1.58L452,96.37l-2-2-3-1.27-.31-6.34-1.33-2.73-1.14-.94L442.65,82l-1.08-.71V75.71l-.5-2.85-1.27-3L437.71,67l-3.48-1.77-2-.38-2-2.1-2-1.44-2-.52-2.42.45-2.27,2.21L419.9,67l-1.25,8.69-.89,1.71-1,1.14-2,.88-3.17,1.71-3.42,2.16-3,2.65s-1.27,2-1.46,2.48-1.08,2.73-1.08,2.73-.5,2.33-.69,2.71-1.33,2.79-1.33,2.79l-2.6,2.85-1.44,1.14-3.25,2.59-9.94-.13-4.63-2.09-4.11-.25-3.25-3.61-6.15-3.87-7.28-3.54-7.92-3.29-2.42.82-4,.31-6.15-.19L337,87l1.33-3.86-2.67-2-2.21-1.77-2.27.13.38,1.9,2.92,5-2.73,2.27-4.5,1-8.11.06-4.63,2-.77-.82-3.86-.08-7.54,3-4.5-3.54-1.71-.75-.89.78c.19,1.16-2.41.29-3.42.89A9.84,9.84,0,0,0,290,93a26.82,26.82,0,0,1-2.68,2c-.71.53-.3,2-.19,2.51a4.7,4.7,0,0,1-.36,2.51c-.17.68-1.18,1.16-1.43,2.15-.18.74-1.46,1.65-1.79,2s.36,2.32.36,2.85a14.42,14.42,0,0,0,.35,2.87c.17.67,1.61,1.16,1.8,1.25s-.5,1.69-.36,2,2.25.45,2.68.53a20.29,20.29,0,0,1,2.7.72,23.22,23.22,0,0,1,.53,2.68,12.78,12.78,0,0,0,.72,3.23,11.94,11.94,0,0,0,1.25,2.51,16.66,16.66,0,0,1,.71,3,13.63,13.63,0,0,0,.91,2.87,9.86,9.86,0,0,1,.89,2.34,7.93,7.93,0,0,0,1.25,2.87c.67.89,1.15,2.2,1.79,3,.49.65.58,2.24.89,2.87.42.85.94,2,1.44,3a15.35,15.35,0,0,1,.71,3.4,6.35,6.35,0,0,1-.17,2.51c.24,1.18-1.44,1.78-1.44,2.87,0,.81,2.15.89,2.7.89,1.14,0,1.73,1.05,2.51,1.44,1,.5,1.49.41,2.15,1.07.46.46,1.19.83,1.62,1.25.79.79,0,1.58-.19,2.34a4.6,4.6,0,0,0,.72,2.87,15.85,15.85,0,0,1,1.25,2.32c.25,1,.32,1.83.53,2.7a15.48,15.48,0,0,1,0,3.4,7.65,7.65,0,0,1-1.07,2.51c-.44.88-.4,2-.72,2.68A4.27,4.27,0,0,0,309.9,176Z"/></g></g><g id="659f736a-c48b-4a54-9cf9-35a7a276ed26" data-name="titulos"><text class="ee156dd7-fa7f-4a8d-bbf4-3a8fb94e9c5e" transform="translate(262.41 51.85)"><tspan class="ef68b597-c253-4d25-bbb7-faabe395728a">V</tspan><tspan x="6.52" y="0">ARIACIÓN INTERANUA</tspan><tspan class="08414dff-f198-4b32-9e7d-a59bc228f3bd" x="126.31" y="0">L</tspan><tspan x="132.02" y="0" xml:space="preserve"> DE PRECIO (%)</tspan></text><line class="d630d9b2-c4ed-48bd-a6f3-5d155c612e75" x1="263.5" y1="55.5" x2="493.5" y2="55.5"/><line class="d630d9b2-c4ed-48bd-a6f3-5d155c612e75" x1="9" y1="55.5" x2="240.5" y2="55.5"/><text class="9427f3c2-9bfc-402c-9944-09d955cfd460" transform="translate(7 21.37)">Evolución del precio de la vivienda en Madrid</text></g><g id="bfc3ba3e-d766-4be7-86fe-119af317ad01" data-name="Barrios"><line class="d630d9b2-c4ed-48bd-a6f3-5d155c612e75" x1="10" y1="374.5" x2="492.5" y2="374.5"/><text class="17dfac60-315a-4d26-b8a0-fd0c59bab037" transform="translate(99.67 388.59)">6<tspan class="bbe2513d-f875-4855-812f-dd3b03a319fb" x="6.67" y="0">.</tspan><tspan class="625e8188-81aa-45f0-8520-b03f7c65299b" x="10.01" y="0"> </tspan><tspan class="2f508424-3a57-4954-a895-a52f34d6a08e" x="13.13" y="0">T</tspan><tspan class="bbe2513d-f875-4855-812f-dd3b03a319fb" x="19.13" y="0">etuán</tspan><tspan x="0" y="14.4">7</tspan><tspan class="bbe2513d-f875-4855-812f-dd3b03a319fb" x="6.67" y="14.4">. Chamberí</tspan><tspan x="0" y="28.8">8</tspan><tspan class="bbe2513d-f875-4855-812f-dd3b03a319fb" x="6.67" y="28.8">. Fuencarral - El Pardo</tspan><tspan x="0" y="43.2">9</tspan><tspan class="bbe2513d-f875-4855-812f-dd3b03a319fb" x="6.67" y="43.2">. Moncloa -</tspan><tspan class="9bbb0152-de08-46a8-a65a-8c68887a8868" x="66.03" y="43.2"> </tspan><tspan class="bbe2513d-f875-4855-812f-dd3b03a319fb" x="68.7" y="43.2">Aravaca</tspan><tspan x="0" y="57.6">10</tspan><tspan class="bbe2513d-f875-4855-812f-dd3b03a319fb" x="13.35" y="57.6">. Latina</tspan></text><text class="17dfac60-315a-4d26-b8a0-fd0c59bab037" transform="translate(374.67 388.59)">16<tspan class="bbe2513d-f875-4855-812f-dd3b03a319fb" x="13.35" y="0">. Hortaleza</tspan><tspan x="0" y="14.4">17</tspan><tspan class="bbe2513d-f875-4855-812f-dd3b03a319fb" x="13.35" y="14.4">. </tspan><tspan class="625e8188-81aa-45f0-8520-b03f7c65299b" x="20.02" y="14.4">V</tspan><tspan class="bbe2513d-f875-4855-812f-dd3b03a319fb" x="27.8" y="14.4">illaverde</tspan><tspan x="0" y="28.8">18</tspan><tspan class="bbe2513d-f875-4855-812f-dd3b03a319fb" x="13.35" y="28.8">. </tspan><tspan class="625e8188-81aa-45f0-8520-b03f7c65299b" x="20.02" y="28.8">V</tspan><tspan class="bbe2513d-f875-4855-812f-dd3b03a319fb" x="27.8" y="28.8">illa de </tspan><tspan class="a747a48e-e6b6-4360-bde1-7c0d7e21cc7c" x="62.49" y="28.8">V</tspan><tspan class="bbe2513d-f875-4855-812f-dd3b03a319fb" x="69.6" y="28.8">allecas</tspan><tspan x="0" y="43.2">19</tspan><tspan class="bbe2513d-f875-4855-812f-dd3b03a319fb" x="13.35" y="43.2">. </tspan><tspan class="625e8188-81aa-45f0-8520-b03f7c65299b" x="20.02" y="43.2">V</tspan><tspan class="bbe2513d-f875-4855-812f-dd3b03a319fb" x="27.8" y="43.2">icálvaro</tspan><tspan x="0" y="57.6">20</tspan><tspan class="bbe2513d-f875-4855-812f-dd3b03a319fb" x="13.35" y="57.6">. San Blas</tspan><tspan x="0" y="72">21</tspan><tspan class="bbe2513d-f875-4855-812f-dd3b03a319fb" x="13.35" y="72">. Barajas</tspan></text><text class="17dfac60-315a-4d26-b8a0-fd0c59bab037" transform="translate(243.67 388.59)"><tspan class="ef68b597-c253-4d25-bbb7-faabe395728a">1</tspan><tspan x="5.78" y="0">1</tspan><tspan class="bbe2513d-f875-4855-812f-dd3b03a319fb" x="12.46" y="0">. Carabanchel</tspan><tspan x="0" y="14.4">12</tspan><tspan class="bbe2513d-f875-4855-812f-dd3b03a319fb" x="13.35" y="14.4">. Usera</tspan><tspan x="0" y="28.8">13</tspan><tspan class="bbe2513d-f875-4855-812f-dd3b03a319fb" x="13.35" y="28.8">. Puente de </tspan><tspan class="a747a48e-e6b6-4360-bde1-7c0d7e21cc7c" x="78.06" y="28.8">V</tspan><tspan class="bbe2513d-f875-4855-812f-dd3b03a319fb" x="85.18" y="28.8">allecas</tspan><tspan x="0" y="43.2">14</tspan><tspan class="bbe2513d-f875-4855-812f-dd3b03a319fb" x="13.35" y="43.2">. Moratalaz</tspan><tspan x="0" y="57.6">15</tspan><tspan class="bbe2513d-f875-4855-812f-dd3b03a319fb" x="13.35" y="57.6">. Ciudad Lineal</tspan></text><text class="17dfac60-315a-4d26-b8a0-fd0c59bab037" transform="translate(8.67 389.59)">1<tspan class="bbe2513d-f875-4855-812f-dd3b03a319fb" x="6.67" y="0">. Centro</tspan><tspan x="0" y="14.4">2</tspan><tspan class="bbe2513d-f875-4855-812f-dd3b03a319fb" x="6.67" y="14.4">.</tspan><tspan class="9bbb0152-de08-46a8-a65a-8c68887a8868" x="10.01" y="14.4"> </tspan><tspan class="bbe2513d-f875-4855-812f-dd3b03a319fb" x="12.68" y="14.4">Arganzuela</tspan><tspan x="0" y="28.8">3</tspan><tspan class="bbe2513d-f875-4855-812f-dd3b03a319fb" x="6.67" y="28.8">. Retiro</tspan><tspan x="0" y="43.2">4</tspan><tspan class="bbe2513d-f875-4855-812f-dd3b03a319fb" x="6.67" y="43.2">. Salamanca</tspan><tspan x="0" y="57.6">5</tspan><tspan class="bbe2513d-f875-4855-812f-dd3b03a319fb" x="6.67" y="57.6">. Chamartín</tspan></text><text class="ee156dd7-fa7f-4a8d-bbf4-3a8fb94e9c5e" transform="translate(11.41 370.85)">DISTRI<tspan class="f34dd3b3-8fe4-4877-9b59-a717eaf55c1b" x="36.06" y="0">T</tspan><tspan x="42.58" y="0">OS DE MADRID</tspan></text></g><g id="2d169171-bc1a-426c-9722-dc6d7b08d8b4" data-name="fuente"><text class="e62c32dd-7b6d-468a-b1e5-5dcfc2b10907" transform="translate(396.67 480.59)">L<tspan class="ba7bfd78-48d9-4fbb-99f4-9182080f8b3c" x="6.67" y="0">A</tspan><tspan x="14.02" y="0"> </tspan><tspan class="ef68b597-c253-4d25-bbb7-faabe395728a" x="17.35" y="0">V</tspan><tspan x="24.46" y="0">ANGUARDI</tspan><tspan class="ba7bfd78-48d9-4fbb-99f4-9182080f8b3c" x="87.8" y="0">A</tspan></text><text class="e62c32dd-7b6d-468a-b1e5-5dcfc2b10907" transform="translate(6.67 480.59)">Fuente:<tspan class="f34dd3b3-8fe4-4877-9b59-a717eaf55c1b" x="40.69" y="0"> </tspan><tspan x="43.81" y="0">TINS</tspan><tspan class="ba7bfd78-48d9-4fbb-99f4-9182080f8b3c" x="71.14" y="0">A</tspan></text></g><g id="21ab84d7-9f3d-4e05-9eab-623f26efa6b1" data-name="numeros"><text class="17dfac60-315a-4d26-b8a0-fd0c59bab037" transform="translate(94 208.58)">9</text><text class="17dfac60-315a-4d26-b8a0-fd0c59bab037" transform="translate(142 202.58)">5</text><text class="17dfac60-315a-4d26-b8a0-fd0c59bab037" transform="translate(139 235.58)">3</text><text class="17dfac60-315a-4d26-b8a0-fd0c59bab037" transform="translate(126 214.58)">7</text><text class="17dfac60-315a-4d26-b8a0-fd0c59bab037" transform="translate(98 259.58)"><tspan class="ef68b597-c253-4d25-bbb7-faabe395728a">1</tspan><tspan x="5.78" y="0">1</tspan></text><text class="17dfac60-315a-4d26-b8a0-fd0c59bab037" transform="translate(164 180.58)">16</text><text class="17dfac60-315a-4d26-b8a0-fd0c59bab037" transform="translate(200 194.58)">21</text><text class="17dfac60-315a-4d26-b8a0-fd0c59bab037" transform="translate(123 229.58)">1</text><text class="17dfac60-315a-4d26-b8a0-fd0c59bab037" transform="translate(200 257.58)">2</text><text class="17dfac60-315a-4d26-b8a0-fd0c59bab037" transform="translate(168 283.58)">18</text><text class="17dfac60-315a-4d26-b8a0-fd0c59bab037" transform="translate(120 284.58)">17</text><text class="17dfac60-315a-4d26-b8a0-fd0c59bab037" transform="translate(146 255.58)">13</text><text class="17dfac60-315a-4d26-b8a0-fd0c59bab037" transform="translate(157 240.58)">14</text><text class="17dfac60-315a-4d26-b8a0-fd0c59bab037" transform="translate(156 222.58)">15</text><text class="17dfac60-315a-4d26-b8a0-fd0c59bab037" transform="translate(119 261.58)">12</text><text class="17dfac60-315a-4d26-b8a0-fd0c59bab037" transform="translate(180 222.58)">20</text><text class="17dfac60-315a-4d26-b8a0-fd0c59bab037" transform="translate(69 255.58)">10</text><text class="17dfac60-315a-4d26-b8a0-fd0c59bab037" transform="translate(130 198.58)">6</text><text class="17dfac60-315a-4d26-b8a0-fd0c59bab037" transform="translate(143 222.58)">4</text><text class="17dfac60-315a-4d26-b8a0-fd0c59bab037" transform="translate(87 133.58)">8</text><text class="01c208e7-cb72-41dc-a0c9-0078e75d0f13" transform="translate(351 209.58)">9</text><text class="01c208e7-cb72-41dc-a0c9-0078e75d0f13" transform="translate(399 203.58)">5</text><text class="01c208e7-cb72-41dc-a0c9-0078e75d0f13" transform="translate(396 236.58)">3</text><text class="01c208e7-cb72-41dc-a0c9-0078e75d0f13" transform="translate(383 215.58)">7</text><text class="01c208e7-cb72-41dc-a0c9-0078e75d0f13" transform="translate(355 260.58)"><tspan class="ef68b597-c253-4d25-bbb7-faabe395728a">1</tspan><tspan x="5.78" y="0">1</tspan></text><text class="01c208e7-cb72-41dc-a0c9-0078e75d0f13" transform="translate(421 181.58)">16</text><text class="01c208e7-cb72-41dc-a0c9-0078e75d0f13" transform="translate(457 195.58)">21</text><text class="01c208e7-cb72-41dc-a0c9-0078e75d0f13" transform="translate(380 230.58)">1</text><text class="01c208e7-cb72-41dc-a0c9-0078e75d0f13" transform="translate(457 258.58)">2</text><text class="01c208e7-cb72-41dc-a0c9-0078e75d0f13" transform="translate(425 284.58)">18</text><text class="01c208e7-cb72-41dc-a0c9-0078e75d0f13" transform="translate(377 285.58)">17</text><text class="01c208e7-cb72-41dc-a0c9-0078e75d0f13" transform="translate(403 256.58)">13</text><text class="01c208e7-cb72-41dc-a0c9-0078e75d0f13" transform="translate(414 242.58)">14</text><text class="01c208e7-cb72-41dc-a0c9-0078e75d0f13" transform="translate(412 223.58)">15</text><text class="01c208e7-cb72-41dc-a0c9-0078e75d0f13" transform="translate(376 262.58)">12</text><text class="01c208e7-cb72-41dc-a0c9-0078e75d0f13" transform="translate(437 223.58)">20</text><text class="01c208e7-cb72-41dc-a0c9-0078e75d0f13" transform="translate(326 256.58)">10</text><text class="01c208e7-cb72-41dc-a0c9-0078e75d0f13" transform="translate(387 199.58)">6</text><text class="01c208e7-cb72-41dc-a0c9-0078e75d0f13" transform="translate(400 223.58)">4</text><text class="01c208e7-cb72-41dc-a0c9-0078e75d0f13" transform="translate(344 134.58)">8</text></g><g id="a859d5c3-db48-4e69-8fcb-cb963edef084" data-name="Leyenda"><rect class="71f81014-ff8c-450f-b34b-a7188514227a" x="8.75" y="338.5" width="21.25" height="14"/><rect class="82f51ed3-f882-4563-a093-f8b541c961cb" x="8.75" y="325.5" width="21.25" height="14"/><rect class="c486fda8-c446-4712-b59f-d52e077f8910" x="8.75" y="312.5" width="21.25" height="14"/><rect class="742968bf-2705-44aa-b30e-175db54e72f1" x="8.75" y="298.5" width="21.25" height="14"/><rect class="ddd3ccd8-8194-4d3e-b446-a2c125985971" x="8.75" y="284.5" width="21.25" height="14"/><rect class="b4b816f4-383d-4850-90c1-0c1e74df3707" x="8.75" y="270.5" width="21.25" height="14"/><text class="0f0a7c73-61d4-4a03-a47d-fb3c63bee2b2" transform="translate(35.41 280.59)">0 - 1.000</text><text class="ee156dd7-fa7f-4a8d-bbf4-3a8fb94e9c5e" transform="translate(10.41 51.85)">PRECIO MEDIO (€/m<tspan class="fc088ec1-8ebb-4eab-8097-7ae996f033b4" x="106.34" y="-4">2</tspan><tspan x="110.24" y="0" xml:space="preserve">)     </tspan></text><text class="0f0a7c73-61d4-4a03-a47d-fb3c63bee2b2" transform="translate(35.41 294.59)">1.000 - 2.000</text><text class="0f0a7c73-61d4-4a03-a47d-fb3c63bee2b2" transform="translate(35.41 308.59)">2.000 - 3.000</text><text class="0f0a7c73-61d4-4a03-a47d-fb3c63bee2b2" transform="translate(35.41 322.59)">3.000 - 4.000</text><text class="0f0a7c73-61d4-4a03-a47d-fb3c63bee2b2" transform="translate(35.41 335.59)">4.000 - 5.000</text><text class="0f0a7c73-61d4-4a03-a47d-fb3c63bee2b2" transform="translate(35.41 349.59)">5.000 - 6.000</text><rect class="4c006b80-2bea-4228-a0f2-8e1b30fd0f19" x="262.75" y="342.5" width="21.25" height="14"/><rect class="f234e0d4-c3d1-425a-80b6-d96b4aef6aef" x="262.75" y="329.5" width="21.25" height="14"/><rect class="ddbee4d4-9622-4366-8614-4af5c81d270a" x="262.75" y="316.5" width="21.25" height="14"/><rect class="71769fd4-e3a2-485a-a935-4380090515e6" x="262.75" y="302.5" width="21.25" height="14"/><rect class="61c66f8f-1492-49f0-b603-3fa3324813a3" x="262.75" y="288.5" width="21.25" height="14"/><rect class="26348114-b9aa-461a-a919-3f82310ff318" x="262.75" y="274.5" width="21.25" height="14"/><text class="0f0a7c73-61d4-4a03-a47d-fb3c63bee2b2" transform="translate(289.41 284.59)">Menos de -10%</text><text class="0f0a7c73-61d4-4a03-a47d-fb3c63bee2b2" transform="translate(289.41 298.59)">-10% a -5%</text><text class="0f0a7c73-61d4-4a03-a47d-fb3c63bee2b2" transform="translate(289.41 312.59)">-5% a 0%</text><text class="0f0a7c73-61d4-4a03-a47d-fb3c63bee2b2" transform="translate(289.41 326.59)">0% a 5%</text><text class="0f0a7c73-61d4-4a03-a47d-fb3c63bee2b2" transform="translate(289.41 339.59)">5% a 10%</text><text class="0f0a7c73-61d4-4a03-a47d-fb3c63bee2b2" transform="translate(289.41 353.59)">Más de 10%</text></g></svg>