<svg xmlns="http://www.w3.org/2000/svg" xmlns:xlink="http://www.w3.org/1999/xlink" viewBox="0 0 690.85 690.85"><defs>
	<style>
		@import url('https://fonts.googleapis.com/css?family=Open+Sans');
		.label {
        	font-family: OpenSans-Semibold, Open Sans;
        	font-size: 17px;
        	fill: #323232;


     	}
     	    .label2 {
        	font-family: OpenSans-Semibold, Open Sans;
        	font-size: 17px;
        	fill: #323232;


     	}
		.cls-1{fill:#ddd;}
		.cls-1,.cls-12,.cls-2,.cls-3,.cls-5,.cls-6{stroke:#fff;}.cls-2{fill:#3b738f;}
		.cls-3{fill:#a8dbd9;}
		.cls-4,.cls-7{
		fill:#ffffff;
		opacity:0.5;}
		.cls-4{
		stroke:#a8dbd9;
		fill:#ffffff;
		opacity:0.5;
		}.cls-5{fill:#85c4c9;}.cls-6{fill:#68abb8;}.cls-7{stroke:#3b738f;}.cls-8{font-size:18px;}.cls-10,.cls-8,.cls-9{fill:#757575;font-family:OpenSans, Open Sans;}.cls-9{font-size:16px;}.cls-10{font-size:15px;}.cls-11{font-size:29px;fill:#323232;font-family:OpenSans-Bold, Open Sans;font-weight:700;}.cls-12{fill:url(#Degradado_sin_nombre_27);}
		.cls-2:hover{
			opacity:0.5;
		}
		.cls-6:hover{
			opacity:0.5;
		}
		.cls-3:hover{
			opacity:0.5;
		}

	</style><linearGradient id="Degradado_sin_nombre_27" x1="558.71" y1="-420.25" x2="558.71" y2="-547.35" gradientTransform="translate(123.08 1077.55)" gradientUnits="userSpaceOnUse"><stop offset="0" stop-color="#a8dbd9"/>
<stop offset="1" stop-color="#3b738f"/>
</linearGradient></defs><title>mapas</title><g id="Capa_1_copia" data-name="Capa 1 copia">
<path class="cls-1" d="M424.26,614.75l1.27,3,1.44,2.34,1.13,1.21,1.88,1.94,3.13-.81,1.55-.83,2.64.18.68-1.17,1.11-2.66,2.92-.65.23-.78,2.41-.43-.36,1.6,5.71-1.05.18,2.65,1,1.46-.62,2.67.41,2.53,1.61,1.28-.16,5.05,1.16-.6,2.05-.27,2.91-1.18,2.15-.16.52,1.21-.5,2.14.85,1.81-.69,1.71.41,1.37L451.47,640l-.29,13.24,3.13,2.83,3,2-8.72,3.14-11.46,1.17L433.9,661l-19.35,2.58-.73.36L411,662.38l-3.11.2-2.88,1-2.32,1-.42-2.5.7-3.62,1.68-3.88.26-1.78,1.57-3.84,1.14-1.8,2.75-3,1.53-2,.48-3.12-.27-2.32-1.45-1.32L409.36,633l-1.21-2.37.24-.89,1.44-1.82L408.3,624l-1-2.7-2.46-2.4.43-.87,2-.78,1.38-.08,1.66-.7Zm-18.53,1.49-1.2.58-1.36-3,1.87-2,1.42-.87,1.83,1.25-1.71,1.08-.75,1.17Z"/>
<path class="cls-1" d="M412.26,401.61l0,1.6.94,1.78,1.62.74.23,1.18-.91.91.16,1.48-1,2.52-.64-.18-.3-1-2.19-1.06-.78-2-.44-3.08L409,403l-.71-.57-.55-1.36.86-2.5.41.78.76-.6,1,1,.88.26Z"/>
<path class="cls-1" d="M50.94,621.54l2.71,4.74,1.19-3.14,4.64,2.49.75,1.35,8.37,11.36,3.45,2.23,5.51,5.69,4.53,3.63.9,2.31-2.94,5.46,4.4,2.95,4.8,2.53,3.17.52,3.22-2.08.06-3.78,2-.08,2.52,3.42.49,3.6-3.13,1.21-2.49.82-3.86,2.71L87,673.7,86.85,677l.09,4.38,1.27,4.65-.59.72.54,2.89.44,2.33,6.32,5.72.47,3,3.16,2.82.28,1.11L71.55,677.94,47.19,648.55l-6.72-9.34.44-.36-1.51-2.58.55-1.21-1.35-8.49,4-.23.76-4.48-.61-1.5,2.88-2.74Z"/>
<path class="cls-1" d="M483.47,377l3.52-2.94,1.18.73,1.46.07,0,1.37,2.28.5-.05,1.8,1.82.39,1.64-.11,1.67,2.82-1,.76-2.49-1.68-.34-.64-1.25.77-1.45-.6-.53.46-1.78-.54-2.67.2-.81-2.17Z"/>
<path class="cls-1" d="M394.42,376.53l.19,1.85-1.66.35.79.84-.36,3-.41.86-2.62.62L389,385.37l-2.58.1-4.56-.44-.94-1.44-2.87,1.21-.22.9-1.94-.38-1.57.08-1.49-.64.32-1.15-.22-.78.88-.36,1.71,1,.26-1.23,2.68-.18,2-1.12,1.46-.09,1.09.76.14-.8-.94-2.82,1-.74.65-2.22,2.45,1,1.27-2.11.95-.52,2.54.91,1.31-.51,1.53.55-.1.61Z"/>
<path class="cls-1" d="M490.52,380.24l1.45.6,1.25-.77.34.64L496,382.4l-2.26.65-2.49-1-1.3-1.29Zm3.08-10.17,1.36-.5-.17-1.34.58-2.69,2.71,1.17,3.14,1.93,1.35-.68,1.5.51-2,1.86,1.46,3.47.39,1.74-.44,1.63,1.27,2-.58.67-3-1-.23-2.65-1.52-.66-.86,1L497,381.63l-1.67-2.82-1.64.11-1.82-.39.05-1.8-2.28-.5,0-1.37-1.46-.07-1.18-.73.3-1.08,2.72-.09,1.62-.68.09-.71-2.63-1.36.37-1,.84-.35Z"/>
<path class="cls-1" d="M484.73,596.91l-.69-5.15-1.31-1.68,2.8-.38,1.18-2.84,2.44-.37.41,1.64,1.06.72.16,1.4-1,1.21-1.6,2.74-1.54,2Z"/>
<path class="cls-1" d="M352.88,367.42l2.09.23,2.54-1.1,2,1.82,1.66.91,0,3-.74.23-.09,2.53-2.72-1.85-1.46.45-2.16-2L352.48,370h-1.33l-.49-1.55Z"/>
<path class="cls-1" d="M358.34,568.52l-3.83.62-1.18-3,.06-10-.94-.88-.2-2.14-1.6-1.5-1.41-1.26.55-2.32,1.55-.53.89-1.94,2.2-.47,1-1.34,1.49-1.34,1.61-.07,3.5,2.39-.14,1.47L363,548.8l-.85,1.8.51,1.16-2.14,2.8L359.1,556l-.81,2.78.17,2.77Z"/>
<path class="cls-1" d="M332.83,554.06l-3.11-1.18-2.14.12L326,554.06l-2-1-.77-1.47-2-1-.24-2.55,1.28-1.81-.07-1.49,3.65-3.53.71-3,1.24-1,2.15.64,1.89-.86.62-1.12,3.47-1.94.86-1.37,4.15-1.82,2.44-.64,1.11.84,2.84-.06-.33,2.14.62,2,2.55,2.83.17,2.13,5.19.86,0,3-1,1.34-2.2.47-.89,1.94-1.55.53-4,0-2.1-.33-1.46.72-2-.31-7.88.15-.13,2.48Z"/>
<path class="cls-1" d="M650.77,317.42l2.5,2.78-1,.79,2.89,2.81-2.21-.88-1.85-1.71-1.95-1.08-2.62-.57-1.44,3.37,1.57,1.21,1.46,3.31-1.34.84.4,1.25-.81.65-.91,1.11-3-2.56-3.12-1.55-1.83-2.88-1.87,1.26-.93-2.16-.39-3.66-2.93.7-1.91-3.74,2.67-1.33.84-1.58,2.63,2.18,1.78-3.05,1.14-3.55,1.34-1.58,2.51,4.81-.38,1.92,1.62,3.27,2.58-.17-2.06-3,.35-1.07Z"/>
<path class="cls-1" d="M415.92,389.45l1.41,1.55,1.1-.66H421l4.57-1.14,1.15-1.59,3.21-2.17,2.74.83,1.93-.16-.93,2.34,0,3.48,1.85,2.14-2.87.32-2.73,2.4.66,2.18-2.76,1.31-2.71-.86-2.2,1.95-2.41.54-1-2.84-2-1,.35-.76-.49-.43.14-1.54.8-1.7-2.05-1.48-.73-1.53Z"/>
<path class="cls-1" d="M67.48,373.11l-.72-.57,1.09-3.11V367.1l2.39-1.84.56,1.1-1.65,4.41ZM75.21,361l-2.88-2.77,1-1.66,1.26,1.16,1.35,2.16Zm1.87,2.48-2.52,2.28,0-1.07,1.61-2,.21-2.93.35-.45Z"/>
<path class="cls-1" d="M404,389.56l1.11-.27-.29,2.12,1.92,1.34.06,2.18-.69.37-.49.54-.78,1.26.1,2.54-3.21-1.06-1.61-1.6-1.42-.73-1.81-1.36-1-1.24-2-1.77.27-2,1.33.8.47-1.05,1.42-.39,2.82.17,2.11-.53Z"/>
<path class="cls-1" d="M404.89,346.82l2.44-.72,2.1-2.48-.35-2.59,1.45-2-1-1.81,1.15-1.22,1.83-2.54,2.9.12.79.91,1-1,2.72.07,1.15,1.85,0,1.33,2.76,2.11,1.33.35.21.81,2,0,1.23.81-.5,1.31-2,.69-.29.59,1.22,1.15,1.85,2.42-2,1.13-.37,1.24.77,2.18H426l-2.23,1.1-1.09-.73L422,353l-1.22-.26-2.07.65-3.29,0-2.76.54-2,.74-1,1.61-1.21.55-.7-1.9-1.48-1.75,1.26-1.35-.58-1.72-1.27-1.42Z"/>
<path class="cls-1" d="M59.47,625.62l-4.64-2.49-1.19,3.14-2.71-4.74-5.33-3.92-2.88,2.74-2.78-.84-2.18-7.77-2.5-6.83,1-4.15-2.14-3.33-.64-3.94-2-4.57L33.91,585l-1.63-5.24.92-1.12-.65-2.29,1.58-1.53.25-4.18.37-3.36.93-1.14L33,556l2.79,2.32,2,1.19,1-.92,3.55.21,2.21-.52,5.16,2.38L48.93,564l.33,2.15-.56,3.05,4,6.88,4.42,3.36,1.49,2.68,2.68,2.45,1.62,2.3,2.56,1.32,2.33,2.66.11,2.84.77,1.8,0,2.07-1.2-.53,1.57,6.33L77,607.45l-.57,2.42.49,2.07,2.31,2.38,1.08,3.36L79.77,621l-1,1.53.56,2.85L78,625.8l-.16-1.48-4-4.19L70,618.25l-7.08-2.09-1.69,3.26.09,2.54-1.1,5Z"/>
<path class="cls-1" d="M87,673.7l4.18-4.24,3.86-2.71,2.49-.82,3.13-1.21-.49-3.6-2.52-3.42-2,.08.45-2.33.21-2.49L96,650.46,94.42,649l-1.5.12-1.6-.83-.7-2L89.76,642l-.93-1.71-3-2.44-1.63.19-4.51-2.79L79.47,629,78,625.8l1.24-.38-.56-2.85,1-1.53.59-3.35-1.08-3.36L77,611.94l-.49-2.07.57-2.42-7.94-4.07-1.57-6.33,1.2.53,0-2.07-.77-1.8-.11-2.84-2.33-2.66-2.56-1.32-1.62-2.3-2.68-2.45-1.49-2.68-4.42-3.36-4-6.88.56-3.05L48.93,564l.75-3.36-5.16-2.38-2.21.52-3.55-.21-1,.92-2-1.19L33,556l-2.21-.6-1.66-1.75,1-7.35-3.39.74-3.25-2.5-1.08-3.69L20,538.72l1-1.56-1.6-4.59-.82-5.68,1.09-.16.34-2.1,2.4.29.11-3,1.22-1,.69-2.09,4.73-.09,3.14,1.35.63-.36,3.23,2.71,4.43-11.94.57-2,.1-3.16-1.14-3,.92-3.43,2.2.8.58,1,.6-1.72L42.59,497l.78-3,6.86,5.52,1.63-.71.59,2.24,0,3.29.83-.07,1.37,3.95L57.54,510l1.07-.92,3,.84,1.72.3.93-1.67,3,.5.05-1.11-3-2.57.28-3.28,1-3-1.28-2.36.8.07,2.52,2.51,2.6,3.19,1.37-.36,2.86,1.1,4.64,1.05,1.85-.85-.13-1.61,2,1.07.58,1.61-1,1.69,1.11,1.52.31,2.67-1.47.95-1.59,3.52.41,2.93-.22,2.3,1.88,3.61L84.63,525l.63-.64,1.28.53,1.95.23,1.55-.48,2.09,1.64,1,.38,2.07,1.58.56-.73-.46-1.28.69-1.1,1.5,1.3,2,.57,2.07,2.2,1.55,1.87,1.5-.57.86.66.28,1.56,2,.68,1.91-.92,1.95-2.69,3.29-2.91,1.42.48.46,3,.68,9,2.06,1.8-.46,3.16-3.78,2.24,1.05,2,7.26,4.1-.56,4.58,3.66-1.54,5.09,3.9,6.73,5.64,1.76,3.44-1,2.19,5.22.57,8.24,5.47,6.61,2.12,6.21,5.82,5.29,6.71,3.37,2.31,3.86,1.31,1.54,1.84,1.18,6,.6,2.83-2.18,6.65-2.44,2.18-6.64,4.2-3,4.06-3.43,2.77-1.14-.25-1.29,2.81.36,8.18-1.12,6.27-.39,2.7-1.37,1.29-.53,5.51-4.23,4.3-.43,4.21-3.47.83-.81,2.27-4.85-1.42-6.82-.44-2.9,1-4.78-.27-4.72,1.84L122,667.65l-.14,3.09,1.1,2.66-.06,4.18-.59,1.84-2.54,1.47-3.1,6.27-2.9,2.34-2.34,1.17-.81,3.63-2,1.68-1.83-2.91,1.27-1.53-3.18-3.85L101,684.1l-5-4.41-1.51-.41-5-5.07Z"/>
<path class="cls-1" d="M416,558.25l3.73-.9.74-1.25.76,0,1.22.81,5.54-2.62,1.75-2,2.19-2-.61-1.46,1.22-.63,4.35-.55,4-2.87,2.6-5.46,2-2.26,2.67-1.37.76,1.77,2.91,2.17.26,1.79-.47,2,.46,1.3,1.7.91,3.62,1.13,2.66,1.19.23,1.42,3.28,1.56,2.1,1.44,1.46,2.35,3.55.89.9,1.2-1.41.84-2.88.62-3.42.37-1.62.77-.55,1.22-1.44.47-1.88-.51-4.78,3.3h-2.11l-.59.47-1.09,2.92-3.48-.15-3.37.23-3.05-1-3.89-.78-2.32,1.84-1.59,2.52-.16,3.1-3,.26-3.17-.22-2.58,2.73L421,580.13l-.57-1.18-.34-1.94-2.21-1.08-1.86-2-.5-1.5-2.34-2,.28-1.34-.59-1.77.11-3.42,1-.94Z"/>
<path class="cls-1" d="M169.06,323.18l1,2,2,1.79-2.32.49-1-.53-1.17-4.17.62-1.72,1.76-.31Zm12-5.42-1-.88-1.4-3.66-.09-3.49.91.4,1.57,3.46.55,3.47ZM151,158.15l.08-1.43,4.67-4.78,2.15-.85,3.1-2.48,1.63-.46,2.59-2.79,3.18-.89.92.3-2.79,2.75-1.72,1.63-2,2.55-2.15.92-3,1.38-3.44,2.87ZM197.39,322.4l-4,2.08,2.38-.11.75,2-1.78.69,1.07,2.57,1.71-.13,1.27,2.86L196,334.61l2,.54-1.21,2.26-1,2.93L192.36,343l-1.16-.65-1-1.89,2.82-2.76-.27-1L187.65,338l-1.24-1.22,2.95-.51L188,333.61l-2.51-1.75-4-3.76.6-1.38,2.39-.12,0-1.82,3.6-.65,7.06-4,3-1,2.8.22.8.94-1.22.68ZM192,135.84h0l-1.43,2.31-4.49-1.59-5.24,1.59.76-1,3.19-1.17,2.75-.54,2.35-.95,2.29-.05,1.28.43Zm16.63,110-2.62.51.05-1,1.14-1.14.34-.07h1.61l.2.76Zm.66-5.83-3.23-.93-.31-1.32,1.11-.94,2.54.39.79,2.43Zm11.85-11.22-2,1.09,1,.56-.94,1.43-1,2.45-.78,2.51-2.11,1.12.81,1.07-1,1.9-2-.82.14-3.15,1.75-1.85-3-.66-3.12-1.51,2.56-1.69-1-2.21,2.69.65,3.75-1.17,4.45-1Zm12.06,11.18-1-1.5,2-1.41,2.78-.6,1.2,1-.72,1.68-1.89,1-.69.15Zm2.24-32-1.74-.61,1.51-2.24-.5-1.12,2.34-2.29,1.46,1.08,2.1.71-1.45,1.69-.9,1-.94.58Zm2.45,6.92-5,1.26,4.08.93-2.81,2.6-3.65.62-2.94,2.48,3.79.45,4.36-.29L241,221.3l.12,2-.12,2.24-1.74,2.7-2.28,1-2.83-.07-2.14,2-2.31.74-4.21-1.67-1.35-1.9,1-2.14-2.49.37-4.36-.16-2.18.24-3.63-.87-.79-2.4-2.25-.75-3.12.89-.92-2-4.17-1.1-5.62-.47-3.85.38-5.56,1.64-.43,3.38L181.49,228l-3.4,2.37,1.46,2.71-1.14,4.9-1.2,3-1.72,2.58-.43,3.37-1.13,3.3,1,3.77.49,2.61-3.9,1.8-4,3.25-4.05,4.58-2.39,6,2.21.87,4.85-1.64,6-5.46,1.51-2.92,3.6,2.16,4.12.46,3.49-.76,2.71-2,2.91-3.55,2.09-4.25,5.57-.39,3.53-3,6.55-4.32,1.56.65.24,3.57.49,2,1.87.71-.55,2.42-1.18,3.59-1.28,1.56,1.63,3.18-3.41,2.34L205,271.69l.52,2-1.36,3,4,.79,5.46-1.81,2.63-.37-2.3,4-2.82,6.19-2.6,5.76-2.85,1.42.19,4.14-.43,3.47,1.92,3.55.11,2.18-2,3.67,1,1.76-.42,2-3.34,4.23-2.6.15-2.51,0-4.35-1.61-5.08.67-3.77-2.6-3.24-4.87-2.64-3-2-1.85-4,.7-3.75-1.19-7.19,1.29-5.27.49,2,1.38,7.45-.88,6.59,1.62,3,2.72,0,3.5-4,.42-3,4.45-1.87,3.37,1,4.52L171.3,330l5.63-2.13-2.12,2.81.26,2.62-4.68,0-6.56-2.4-3.36-.64-4.64.18-1.31-2,2.71-3.13,6.2.8-3.29-3.34-2.56-2,.69-3.44,4.72-4.72.22-2-1.78-.89.35-1.62-4,.85-3.3,1.94-2.24.73-1.3-.46-.74-.58-1.06.6L146,306.8l-2.5-3.67-1.4-.51-4.35-.3-.49-.06-2,.45-1.41-2.36-1.48-2.54-1.27-.68-.52,1-1,1.21-.41.27-3.82-1.92-2.07-2.31-3.67-1.55-.34-.7.17-1.44.41-.76.44-.26,1.67-.46,2.78-.39,2.72-1,3.2-3.16,3.38-3.26.69-4.13.87-.18.34-.74-.31-.73.43-1,.92-.8-.64-.22-.16-.8.48-.11.16-.9,1-1,.56-2.92.64-3,.78-3.59.79-3.4-1.93-1.67-.29-.85.28-3.94-1.1-1.88.8-3.35.17-3.14-.06-2,.63-1.21,2.42-1.65-.16-.91-1.75.8-.71-5.68-.63-9.53.08-9.61.67-8.59,1.25-8.65,1.81-8.55,2.48-8.85.94-2.85,3.23-8.6,3.67-8.18.2-.39,7.47-5.57,3.13-1.95,4.85-4.82,5-1.2,2.59.59,4.11-3h4l5.37-2.42,2.35.33,1.22,1.64,2.88.42,5.71-3.19,6.77-1,4.19-.45,3.53-1.24,2.92-.75,3.11-.28.45-2.31-.48-2.63,4.36-.6,3.09-.51,3-1.2,2-1.6L255.86,139l13.74,8.16-3.41,1.5-3.93.8-1.72,1.06.55,1.86-.21,2L258.63,156l.16,2.58-.67,2.4-2.5.21.26,1.28,1.84,1-1.13.69-5.58.95,1.86,2.57-3.56-.72-.32,1.83,1,.82-1.25,1.55-3.15,1.7-3.43,3-1.73,1.88-.31,1.45-3.26,1.77-1.54-2.32-2.14,2.7-.86,4.21.46,1.33-3.41,1.67,2.06,1.66,2.49-1.6,1.43,1-.21,1.82.23,1.18L234,193.83l-3,1.7.13,1.7-2.56,3,.59,2.33-.23,2.29,3.08-.65.82,1.21L231.16,208l-4.66.88,3.94.22-.09,1.26,5-.33,3-2.12,2-2,5.47-.72,3.6,1-.75,1.8-2.11,1.7-5.38,3-2.52-.7Zm22-31.88-2-.89.4,2.8-3.06,1.43,2,1.54-1.95,1-5.13.82,1.87.69,5.29-.68.44,1.07-1.09,1.15-2.31,1.32-5,.83-3.58.5L243,197l-2.66,2.69-2.17.06L238,197.4l-2,1.09-1.76-.34,1.18-2.76,1.81-2.6.08-1.7-1-2.76.41-3.79.48-2.67,2.6-.63,2.12-1.84v-1.33l4.59-1.22.08,1-.12,2.2-1,1.9.17,1.85,2.14-2.5.86-2.89,1-1.86,2.1-.39.45,3.27.87-2,2.38-1.95,3,1.71,1.45,1.18,1.42,3.57Zm-2,11.33-3.06-1,3.9-1.79.59.41-.16,1.54Zm2,32.67-1.22.63-.36-1.23-.38-1.24-1.08-1,.17-.43L259,221.6l1.72-.54.48.41.38,2.64Zm-3.3-11.56-2.83,1.74,4.13,0,2.7,2.22-4.31,3.56-3.14.93,2.18,1.8,2.26.35-1.26,3.47L254.85,232,253,233.11l2.12,1.66L253,237.42v3.75l-1,2-3.14,3.54-3.46-1.06-.69,4.67.58,2.59L243,257.35l1.4,2.17-3,1.69-6.42,1.11.34-2.92,2.26-4.83-1.75-1.42-2.47,1.37L232,257.59l-.42,3.22-.6,1.35L227.87,266l-3.19,1.63-.41-2.69.49-6-2,4.56-1.2,3.34-1.17,1.28-1.5-5.39.14-5,.86-3.2,1.51-.19.83-3.64.87-3.45-1.24.72L219,243.71l.93-2.13,3.74-.58,1.42,2.86,2.15,2.82,1.28-1.35,2.44-.68,5.22-.5,1.71-1.43,1.21-1.33,1.08-3.16.25-3.45,1.52.32,2.2-2.67-.22-1.26,1.16-1.68-1.63-.13L242,227.2l-.37-5.25.77-3.28.33-2.38,1.54-1.55,2.43.8-.25-1.84,4.9-1.53,4.5,0,2.17.73,1.82,2.57Zm2.71-16.4-1.18,1.44.5,2-1.46.45-2.34-.85-2.21,2.07-4.47.36-1.85-1.89.49-1.31,2-1.08,4.22-3.38,1.59,0-.94,2.51,3.42-1.51Zm-5.56,9-3.75-.7.16-1.46,4.36-1.37,2.47-.29,2.11.34,1.36.94-.08,2.34-1,2.35-4.55-.88Zm1.71-34-.24-3.79,2.42-.13,4.28-2,1.53,1.08,2.72,1.79,2.31,1.83,3.45-.13-1.57,3.61-1.84,1.22-1.73,2.62-1.89.78-2.57.84-.53-1.62-1.86-3.46-2.44-2.17Zm9.21,31.84-1.94-.31.36-1.61,1.33-1.43,2.23.34,1.32,1.32-1.74,1.1Zm8.8-5.68L271,201l-2.57.21-3.68-.2-.36-1.71.93-1.17,2.91-.07-.14-1.65,3.86-.07-.32,1,1.51,1.4-.42,1.34Zm-.81-9.26-1.86.24.58.93-.48,1-2.47.07-2.19-.72.26-3.6-1.16-2.9.54-1.64,1.63.1,1.28,2.44,1.41-4.67,1.55-1.22,3.94,2.28.91,1.13-2.77,2.34-3.53,1.35-1,1.71,5.14-.91,1.49,1.05-.87.89Zm2.54,12.63-1.59,1.19.09,1.82-1.57,1.06-1.88.09-1,1.31-1.1.85,0,1.39-.16,1.55,1.37,1.31.89,1.86.11,1.66-1.47,1.61-1.88.88-1.47-.21-1.5-1.21.21-1.51-1.44-2.82-.47-2.18.37-1.86,1.34-3.12,2.71-.77,2.46-.47,2.14-1.26.62-2,1.59-1.22,2,.2Zm7.26-18.71-3.57-.91-1.29-1,.22-.89-1-2.18.19-1.66,1.78-.92h0l2.44,2.51,1.95,2.55-.77,1.25Zm-5.15,19.24-.15-.38.35-1.67,1.41-.33-.11,1.73-.92.7Zm3.25-14.17-.8-1.79,2.08-1,1.25.94,0,1.26-1.18,1Zm4.26,1-.6-1.1.52-1.31.68.13,1.13,1-.38.37Zm-4.82,11.22L279,201l1.21-.74,1.91-.42,2.08-.12-.29,1-.36.48-1.78,1.07Zm1.62-3.57-2.13.36.74-1.39,1.85-1.34.58-1.8,1.29.86,1.42-.87,1.91.09-1,1.43L284,198Zm6.74,9.44-1.45,1.18-1.63-.75-3.91-.81-.49-1.39.55-1.78,2-1.07,1.81-.15,1.34.48,0-1.36,1.69-.91,2.29-.55,2.2.38,1.51.38.33.63,1.15-.34.25,1.42-2.64,1.06-1,1.23-.82,1.23Zm20,5.85.35,1.31.06,1.19-.59,1.4-1.14.6-2.68-.16-1.67-.77h-1.28l.74,1.13H298.6l-1.81-.37-4.26.52-1.43-1.05-1.14-.07-1.38-1.93-.2,1.18-1-.2L285.28,218l-1.9-.15-1.8-.76-2,.23-1.82-.72-1,.46.7,1.41-1.14.42-3.66-1.46.64-2.8-1.35-2.54.35-1.53,0-1.83,2.36-.53,1.33,1.45,3.5-1.1.42.45-1.72,2.7,2.93-1.83.74-1.5,2,.29,1.4,1.13,1.75-.15,1.74-1.4,2.5-.75.12,1.89-.41.65,2,.62.22-1.59-.7-2.23,1.56-1.39,2-.77,1.42-.86,1.7-.28,1,.74.21.63.93,1,2,.48-.14.68-1.26.83,2.74-.16.94.47.78.72.68,1.35-.42.4,1.34,1,.17,1.06Z"/>
<path class="cls-1" d="M372.94,382.84l.22.78-.32,1.15,1.49.64,1.57-.08,0,1.86-1.25.93-2.36-.28-.44,1.88-1.46.31-.62-.65-1.57,1.7-1.48.36-1.44-.83L364,388.72l-1.42.83-.14-2,2-2.71-.21-1.13,1.42.28.75-.84,2.57-.24.5-1Z"/>
<path class="cls-1" d="M37.77,611.75l2.18,7.77,2.78.84.61,1.5-.76,4.48-4,.23L40,635.06l-.55,1.21,1.51,2.58-.44.36-10.1-15.32-.07-6.08.12-10.73-.81-8.49-1.07-7.64,2-.07,1-1.95,2,4.57.64,3.94,2.14,3.33-1,4.15Z"/>
<path class="cls-1" d="M332.55,574.27h-2.12l-3.25-.91-3,0-5.54.57L315.39,575l-4.66,1.36-.9-.16.46-3.54.46-.52-.09-1.71-1.91-1.93-1.46-.38L306,566.86,307,565l-.39-2.13.26-1.25.73,0,.34-1.88-.32-.86.46-.58,1.72-.42-1-3.56-1-1.87.42-1.46.92-.28.61-.36,1.23.73,3.51.22.87-1.24.78.12,1.33-.43.65,1.9,1.08-.51,1.89-.58,2,1,.77,1.47,2,1,1.61-1.06,2.14-.12,3.11,1.18,1.17,6.22-2,3.63-1.25,4.89,2,3.76Z"/>
<path class="cls-1" d="M407.36,582l-.59-.16-2.73.88-2.87-.26L399,583l-7.62.66.54-3.47-1.95-2.68-2.16-.54-1-1.85-1.22-.52v-1.2l1.06-3.17,2-4.38,1.33-.16,2.61-2.81,1.74-.25,2.68,1.52,3.06-1.82.31-1.86.91-1.88.56-2.29,2.3-2.1.69-3.18.88-1.1.46-2.36,1-3,3.47-3.92.1-1.5.41-.86-1.92-1.5v-1.42l1.23-.43,2,2.56.57,2.87.11,2.94,2.8,3.62-2.51.33-1.24.5L410,547.6l-.81,2.2,2.88,2.18,2,.46.79,1.72,1.68,2.8-.61,1.29L414.06,563l-1,.94-.11,3.42.59,1.77-.28,1.34,2.34,2,.5,1.5,1.86,2,2.21,1.08.34,1.94.57,1.18-.18,2.38-3.76-.49-3.83-.62Z"/>
<path class="cls-1" d="M487.9,560.13l.39,5.21,1.86.08-1.24,2L487.33,569l-1.45,2.76-.72,2.29.12,3.57-.88,1.95.28,3.29-1.19,1.56.06,2.63-.6.5-.22,2.48,1.31,1.68.69,5.15,1.1,3.77-.32,2.36,1.07,2.27,2.8,1.73,2.76,4.79-1.83,0-6.17,2.27-1.22.81-1.22,3,1.1,1.64-.68,5.25-.49,4.4,1.27.47,3.27.89,1.26-1.08.43,4.49-3.55.8L482.38,633l-1.73-1.42-3.58.21-1.08-2-2.84,2-3.76.2-1.6-1.59-3,.22-2.2.54-.29-1.26-1.62.21-2.15.16-2.91,1.18-2.05.27-1.16.6.16-5.05L451,625.92l-.41-2.53.62-2.67-1-1.46-.18-2.65-5.71,1.05.36-1.6-2.41.43-.23.78-2.92.65L438,620.58l-.68,1.17-2.64-.18-1.55.83-3.13.81-1.88-1.94L427,620.06l-1.44-2.34-1.27-3-14,1.74-1.66.7-1.38.08-2,.78-.7-1.23,1.2-.58.1-1.85.75-1.17,1.71-1.08,1.26.29,1.57-1.81,2.59-.27.35,1.16,1.8.53,2.7-3,2.68-2.45,1.14-1.53-.31-3.48,1.84-4.44,2-2.53,3-2.54.45-1.46,0-1.6.66-1.62-.4-2.4.31-3.92.71-2.85,1.21-2.55.07-2.67.16-3.1,1.59-2.52,2.32-1.84,3.89.78,3.05,1,3.37-.23,3.48.15,1.09-2.92.59-.47h2.11l4.78-3.3,1.88.51,1.44-.47.55-1.22,1.62-.77,3.42-.37,2.88-.62,1.41-.84,3.16,2.91h2.07l1.1-1.06,2.09-.27,2.35-1.62,1.31,1.58Z"/>
<path class="cls-1" d="M408.28,612.13l-1.83-1.25-1.42.87-1.87,2-4-4.08,3.55-2.71-1.88-2.62,1.59-1.24,3.18-.87.3-1.93,2.61,1.75,4.18-.33,1.36-2.2.47-2.92-.67-3.27-2.35-2.25,1.76-5.24-1.21-.7-3.46.79-1.42-2.06.24-1.92,5.89-.58,3.83.62,3.76.49.18-2.38,2.15-4.39,2.58-2.73,3.17.22,3-.26-.07,2.67-1.21,2.55-.71,2.85-.31,3.92.4,2.4-.66,1.62,0,1.6-.45,1.46-3,2.54-2,2.53L422,601.54l.31,3.48-1.14,1.53L418.55,609l-2.7,3-1.8-.53-.35-1.16-2.59.27-1.57,1.81Z"/>
<path class="cls-1" d="M21.87,486.57l-1.09-2.46L19.63,481l-1.16-.12-2.55-3.34-.14-2.85-.62-.52-2.28-6,.07-1.94,1.28.85.67-2.55,1.33-1,1.66,1.28,2.36-1.64,2.08-1.27-.74-2.3,1.6-2.13.95-5,1.14-.54,1.1-4.45-.19-3.78,1.33-1.83.82,1.37,1.15-.76L30,439l.65-.28,1.47,1.81,3.64-.8,1.45.82.7-1.47,2.28-3.24,2.67-.3,1.92,1.87.67-.69,2.19,2.77,3.43.12,1.65.17,2.47-.71,1,1.32.28,1.95-1.28.93-2.33-1.16L51,443.65l-1.77.13-1.63.8-1.77,2.86-2,1.82,1.49,1.87-.46,2.48.29,1.67-.48,2.08-1,1.34-.26,1.06.65,1.12.16,2.31,4.38,3.34,1.71,2.27,1,6,1.54.65,2.37,2.27,2.14,1.06,1,1.77-1.44,2-1.28.93-1.33,3.1L54,490.17l.59,2.16-.19,1.13-2.47.93,1,2,.49,2.35-.16,5.49-.83.07,0-3.29-.59-2.24-1.63.71L43.37,494l-.78,3,1.94,2.13-.6,1.72-.58-1-2.2-.8-.92,3.43,1.14,3-.1,3.16-.57,2-4.43,11.94-1.31-3.95-1.06-.94,3.36-3.12L35,510.09l-2.23-1.28L31.7,507l-2.24-.3L27,503.88l-.78-6.81L25,494.46l-.47-3.24-1.6-4.3Z"/>
<path class="cls-1" d="M13.89,421.95l-1-2.93-.06-1.68.69-.39.41-1.14-.17-2.07-.55-2.29-.57-1.81.53-1.56L13,406.31l-.54,1.55-1.07.37.09-2.09-.56-1.61.15-1.41.76-1.36,1.1-.94-.33-1.66,1,0,.69,0,1,3.56.89.24.58,1.51-.09,1.52.58,1.35,1.12-.11-.65,3.34.06,3.18.25,3.58-1.22-.94-.9,1.86.22,1.41-.66,0-.3,1-.67.64Z"/>
<path class="cls-1" d="M55.21,360.09l1.63,3.15,1.69,2.63,1.1,4.43-.15,2.77L62,375.6l.17,2.08.32,5.22.31,3.82.87,1,1,2.7-.94.95,1.8,2.44.93,4-.92.63-2.09-1.5-1.89-1.87-1.57-2.48L56,388.45l3.18-.2-.31-2.37-1.4-2.33,0-2.3,1-3.1L57,376.48l-1.39-4.13-.07-1.84-2.44-4.94-.17-2,1.56.25-1.94-3.49L49.51,360l-.9-1.36-1,.48-1.35-1.27L45.64,356l2,.6,1.56-.69,1.61.66,1.65,1,1.87,2.17Z"/>
<path class="cls-1" d="M461.29,418.31l.23-.12.1-1.24,2.41-.9,2.51-2.52L465,416.3l.54.71h-.41l-.51.59-.53.11-.11.23-.23-.41-.34-.17-.66.21-.77.73Z"/>
<path class="cls-1" d="M393.88,374.45l-1.53-.55-1.31.51-2.54-.91-.95.52-1.27,2.11-2.45-1-2-1.63-1.67-.83-.64-1.82-.73-1.24,1.89-1.29.84-1.28,1.84-1.21.53-1,.84.37,1.14-.69,1.63,1.16,2.17,0,.1,1.25,1.74.59.15-1.22,2,.08.61,1.31,2.16-.21,1.86,1.85-.84.2-.24.89-.6.34.06,1-.5.33,0,.43-.87.67-1.3.2Z"/>
<path class="cls-1" d="M369,349.63l.31,1.7,2.8.66.24,1.57,2.52-1.23,1.24-1.44,3.28,1.24,1.53,1.18,1.09,2.12-.49,1.31,1.3,1.39,1.17,2.23.11,1.56,1.73,2.6-1.14.69-.84-.37-.53,1L381.52,367l-.84,1.28-1.89,1.29.73,1.24.64,1.82,1.67.83,2,1.63-.65,2.22-1,.74.94,2.82-.14.8-1.09-.76-1.46.09-2,1.12-2.68.18-.26,1.23-1.71-1-.88.36-3.41-1-.5,1-2.57.24,0-3.22,1.14-3.21-4.33-.4-1.5-1,0-2-.68-1,0-3-.93-4.63,1.67-.15.52-1.74.23-4.13-.67-1.45.42-1,2.2-.47.62.92,1.52-2.39-.83-1.59-.46-2.49,2,.35Z"/>
<path class="cls-1" d="M531.35,500.36l1.31.94.37,1.9-2,2.1,2,.43-.86,3-1.09-.39-.89.75-2.27.92-.4-1.32-.62-1.09.82-2.68.88-2.59,1.8-.39Z"/>
<path class="cls-1" d="M375.6,345.82l-.85,3.81-3.13-2.08-.67-1.78,3.42-2Zm-5.14-3-.33,1.75-.83-.37L368,347.58l1,2.06-1.55.88-2-.35-1.37-2.33-.68-4.51.25-1.24.52-1.4,2.12-.54.67-1.32,1.74-1.51.3,2.27-.49,1.53.5,1.19Z"/>
<path class="cls-1" d="M1.45,487.06l2.68-2L4,482.17l-1.84,1.07L.87,479.1l1-.74.77-5.06,1.31.41,1.5-2.46,2.16-1.91.42-2.22,2,.76,2.77.31,2.28,6,.62.52.14,2.85,2.55,3.34,1.16.12,1.14,3.12,1.09,2.46-.55,4.1-1.89,2.21-5,1.79L10,492.89,6.91,495.3,5.5,498.09l-2.34.29-.8-3.87-1.19-1.83-1.44-.93.36-1.94,1.21-.28Z"/>
<path class="cls-1" d="M528.65,502.38l-1.74-.82-2.33-1.87-2.14-.64L521,498l-3.93-.28-2.74,1.1-1.21-.52-2.07,2-3-1-.42,3.8-4.94.91-.86-1.61.09-7.17-.38-3.09.88-1.85,2.7-1.9,1.27-3.34,3.72,4.16,2.21,3.6,2.76,1.23,6.54,1.83,2.89,1.54,2.84,1.59,1.65,1,2.31.44-.9,1.63Z"/>
<path class="cls-1" d="M313.91,409.12l.45-3.18-1.17-2.06,4.89-2.86,3.92,1.07,4.38.2,3.44.9,2.72-.16,5.29.23,1.3,1.75,6.1,2,1.18-1,3.79,1.93,3.83-.74.31,2.6-3.06,3.13L347,414l-.27,1.52-2.06,2.53-1.29,3.68,1.4,2.55-2,2-.74,2.93-2.69.9-2.56,3.45h-4.58l-3.44-.18L326.42,435,325,436.6l-1.76-.45-1.27-1.59-.88-2.64-3.3-.9-.2-1.51,1.43-1.6.56-1.19-1.13-1.41,1.16-2.89-1.21-2.78,1.52-.27.27-2.12.6-.62.26-3.5,1.63-1.13-.8-2.31-1.94-.28-.61.53-2-.13-.66-2.26-1.41.55Z"/>
<path class="cls-1" d="M400.85,329.67l-.69-2.58-.62.8-2-1.06-1.1-2.37,2.31-2.06,2.47-1.53,2.61-.13,2.14-.94.65.6-.47,3,2.35,3.65-.39,1.68-1.87.66-2.58-.89-1.19-.18Z"/>
<path class="cls-1" d="M508.08,499.26l3,1,2.07-2,1.21.52,2.74-1.1L521,498l1.44,1.08,2.14.64,2.33,1.87,1.74.82-.88,2.59-.82,2.68.62,1.09.4,1.32,2.27-.92.89-.75,1.09.39-.48,2,2.1,1.78,2,1.47,1.93.89,14.44-1,3.34-1.71-8.27,18.94L542,533.78l-3.09,4.76-2.67,1.22-.89,1.88-2.88,1.18-2-.82-3.54,3.39-.94,2.34-2.91.74-1-.15-1,.5-1.36.46-6.07-1.78-3,1.06-1.71-.94-.42-2.48-2.36,0-3.37-3.94-2.14-.36-1.06-1.51L497,537.91l-2.7.55,1-3,2.25-.86.39-1.56-.81-4,.34-5.06,1.74-1.93,0-2,1.06-4,2-3.11.66-5-.26-4,4.94-.91Z"/>
<path class="cls-1" d="M388.06,280.41l1.24,2.88,3.8,1.66.13,3.62,4.34,3.74.65,3.93,3.16,2.32.63,2.94,4.19,1.58.39,2.36-.58,3.1-1.76,6.94-3.61,1.71-3.08,2.8-3.15,2-2.09-1.93-2.56-.79-1-4.3-2.34-3.53.07-2.73.78-3.16,2.44-5.88.83-1.28-1-1.67-3.29-1.11L385,294.2l-2.71-6.32-3.67-2-2.9-1.39.52-1.37,2.61,1.65,2-.86,2.12.41.65-2.32-.68-3.22,1.58-2.22,2.68.82Z"/>
<path class="cls-1" d="M109.61,532.53l-1.91.92-2-.68-.28-1.56-.86-.66-1.5.57-1.55-1.87,1.43-1.39.8-1.88,1.13-1.57-.92-3.51.43-3.27,3-2.76,1.21,1.23,2.65,2.63,3.33,6,.25,2.19-3.29,2.91ZM376,406.85l-.68,3.59-1.63-.74-1.11-2.93L373,405l1.9-1.95Zm-22-35.16,2.16,2,1.46-.45,2.72,1.85.69.33.84-.16,1.5,1,4.33.4-1.14,3.21,0,3.22-.75.84-1.42-.28.21,1.13-2,2.71.14,2,1.42-.83,1.26,1.87v1.28l1.09,1.6-1,1.46,1.16,3.39,1.8.4-.17,2-2.7,2.8-6.54-.73-4.68,1.72-.24,2.72-3.83.74L346.43,406l-1.18,1-6.1-2-1.3-1.75,1.7-2.69.61-8.95L337,386.91l-2.22-2.3-4.59-1.85-.17-3.28,3.89-.86,5,1.22-.91-5.07,2.77,1.92,6.75-3.6.73-3.69,2.45-1,.49,1.55h1.33Z"/>
<path class="cls-1" d="M399.13,609.7l-5-3.81-3.25-3.22-3-4.15.11-1.43,1-1.45,1-3.21.83-3.26,1.58-.39,6.84-.63L399,583l2.21-.52,2.87.26,2.73-.88.59.16-.24,1.92,1.42,2.06,3.46-.79,1.21.7-1.76,5.24,2.35,2.25.67,3.27-.47,2.92-1.36,2.2-4.18.33-2.61-1.75-.3,1.93-3.18.87-1.59,1.24,1.88,2.62Z"/>
<path class="cls-1" d="M328.3,353.16l-1.62,3-2-1-1.65-.05.75-2.34-.34-2.42,2.19,0Zm7.44-17.85L333,340l2.51-.54,2.68.06-.68,3.61-2.35,3.94,2.64.32.2.47,2.3,5.25,1.81.7,1.73,5.05.82,1.75,3.35.76-.23,2.86-1.38,1.35,1.2,2.28-2.49,2.41h-3.83l-4.9,1.21-1.32-.9-2,2.05-2.66-.59-2.12,1.62-1.49-1,4.43-4.51,2.57-.89h0l-4.38-.89-.7-1.81,3-1.27-1.41-2.46.65-2.9,4,.52h0l.46-2.58-1.7-2.78,0-.06-3.16-.89-.56-1.23,1-1.95-.78-1.26-1.5,2,.11-4.28-1.12-2.33,1.2-4.53,2.08-3.5,1.89.42Z"/>
<path class="cls-1" d="M476.76,378.4l-.51-2-2.19-2.45-2.41-.65-1.79.35-1.68-.74.09-.67,2.71-.54,4.41-1.57,4.81-.18.91.48,1.28-1.63,3-.68,1.8,1.16,2.25-.12-.37,1,2.63,1.36-.09.71-1.62.68-2.72.09-.3,1.08L483.47,377l-3.8-.48Z"/>
<path class="cls-1" d="M350.78,570.16l-7.28,2.63-2.59,1.49-4.21,1.25-4.16-1.27.22-1.7-2-3.76,1.25-4.89,2-3.63-1.17-6.22-.59-3.3.13-2.48,7.88-.15,2,.31,1.46-.72,2.1.33-.32,1.37,1.92,2.23,0,3.18.47,3.43,1.17,1.57-1,3.94.39,2.16,1.26,2.73Z"/>
<path class="cls-1" d="M306.91,561.61l-1.3-.19-1,1.69-1.3-.11-.86-1,.37-1.73-1.8-2.81-1.22.4-1,0-1.27.15.13-1.6-.68-1.2.21-1.26-.89-1.92-1.18-1.67-3.62-.34-1.1.72-1.26,0-.83.87-.6,1.16-2.55,1.67-1.83-2.8-1.64-1.91-1.12-.7-1.06-1-.37-2-.58-1-1.25-.88,2.16-1.89,1.35.24,1.22-.6,1,.11.75-.5-.27-1.5.52-.4.19-1.48,2.15.28,3.14,1.41h1l.37-.46,2.42.58.66-.19.16,1.63.71.06,1.2-.48.73.21,1.18,1.22,1.9.51,1.28-.85,1.48-.48,1.11-.54.89.18,1,1,.48,1.25,1.77,2-1,1.07-.24,1.42,1-.37.55.55-.29,1.29,1.34,1.35-.92.28-.42,1.46,1,1.87,1,3.56-1.72.42-.46.58.32.86-.34,1.88Z"/>
<path class="cls-1" d="M270.49,533.79l.75-1.87,4.81.53,1.09-.91,1.4.11,1.65,1.3,1.37.19,1.52-.57.79,1.38-2,.76L280,534.4l-1.82-1.17-1.73.81-.8-.07-1.12.47Z"/>
<path class="cls-1" d="M277.31,544.1,275.07,542l-1.86-.54-.92-1.38.08-.67-1.27-1.12-.2-1,2.42-.39,1.46.34,1.23-.34,8.21,1.19-.19,1.48-.52.4.27,1.5-.75.5-1-.11-1.22.6-1.35-.24Z"/>
<path class="cls-1" d="M390.82,589.16l-.91-.57,1.42-5L399,583l.28,5.17-6.84.63Z"/>
<path class="cls-1" d="M429.69,426l2.29,1,2.64-1,2.66-.45.13.79,1.74-1.1-.06,1.43-4.91,1.86-.16-.74-4.49.33Zm2.09-28.58-.1,3-.6.73-2,.48-1.8.09-3.56,2.28,3,1.82-1.45,1.19-1.82.52-2.35-1.79-.35,1.13,1.45,2.43,2.22,1.61-1,1.31,2.41,1.52,2,.81.74,2.47-3.44-.3,1.6,2-2,1,2.31,3.55-2.28.66-3.31-1.2-2.15-3.22-1.32-2.8-1.81-1.71L413.78,413l-.53-1.21,1-2.52-.16-1.48.91-.91-.23-1.18,2-.93,1-1.29,1.77-.38.32-.91.57-.31,2.41-.54,2.2-1.95,2.71.86,2.76-1.31-.66-2.18Z"/>
<path class="cls-6" onmouseover="displayName('GROENLANDIA: 106 hombres por cada 100 mujeres');displaySecondLanguage('')" d="M314,223.74l3.48-.78,1.44,1.18,1.67-.9,1.86.55,3.53,2.16,1.95,4.16-1.74,1.2-2.39-.59-3.38-.92-.13.79,2.36.46,1.19,2,1.78-.8-.07,1.57-1.73,2.07,2.37-1,3.79-.8,1.82,1.15v1.81l-3.78,2.38-.72.84-2.75.11,1.77.64-1.95,2.73-1.62,2.45-1.56,4.52.31,3-1.67-.22-2.18.83,1.19,2.67-.93,3.55-1.37.07.34,3.92-2.83-.4.84,2-.93,1.34-2,.15-1.79-.51.55,3.24-.67,1.83-2-2.47-1.14.87,1.41,1.58.86,3-.66,3.48-2.93.05-.5-1.92-.77-2.89-.7,2.92L301,278.41l3.84,1.41,2,.82-5.5,2.37-5.65,1.8-5.27-.34-1.73-.68-2.44.84-4.55,3.19-5.11,1.11-1.22-.39-2.76-.15-2.91-.35-3,1.59-1.85,2.66-2.56,2-4.91,1.42L256,299.14l-3,2.69L249.48,305l-2.77-1.36-.38-4.79-3.45-2.39v-3.18l1.9-4.33L246,282.5l1.37-2.86,2.75-3.24,1.23-4.7,3-2.05.37-1.9,5.21-2.79,3.06.29,1.87-1,2.85-2.41-2.5.08-1.13,0-1.51-.43-.22-2.29,2.35-2.22,2.3-1.3,1,.83,1.28,2.76.35-3.64.3-1.91-1.49-.48.09-1.55,4.45-1.84.8-1.67,1.86-2.76,3-4.11.54-2.14,1.64-1.16.51-3.7-1-1.87-1.72-2.08L277,228.44l.82-1.68,2-2.76,2.58,1.44,1.2,1.44-.8-3.86,1-2.53,1.83-.62,3.59,1.78,3.61,1.41,1.73-.57.52-2.44,2.08-.31,4.3.39,1,.51,1.75-1.26,2,.5,1.81,1,1.28,1.29-.71,1.33,3.2-.51-.24,2,.41.78,0,1.82.6-2.6Z"/>
<path class="cls-1" d="M11,371.13l-.53-2.72-1.18-2.49-.3-2.63.21-3.86.92-1.14.92-.54.3-1.34,3.36-1.55,2.4,4.92,1.08-1.33-.12-.87.45-1.33,0-2.37.36-2.8.82,1.72,1.75-2.31L23.14,354l1.72,3.51-2.42,3.25-3.51,4.43.6,1.12.13,2,.61-.31.23,1.63-2-.08L16.69,369l-.7.55-.4,1.14-1.15.3-.65-.62-.23.71-.7-.24-1.42-.22Z"/>
<path class="cls-1" d="M88.72,489.79l1.9,3.24L92,497.45l-.58,2.4,1.39,1,1.4,3.46,1.07,2.49-1.7,3.71L91,510.28l-.07,1.2-1.31,1.92.89,4.33,1.24.74-.1,2.87,1.5,5.35-1-.38L90,524.67l-1.55.48-1.95-.23-1.28-.53-.63.64-1.86-1.37-1.88-3.61.22-2.3-.41-2.93,1.59-3.52,1.47-.95-.31-2.67-1.11-1.52,1-1.69-.58-1.61-2-1.07-1.51-5.13,1.37-.58.56-2.15,2.49.79,1.17-.24-.74-2.52.84-1.44Z"/>
<path class="cls-1" d="M14.81,384.85l.46-2-.43-1.51,1.25-1.48v-1l-.25-1.07-1.27-1.12.3-.72-.19-1.83.12-1.67L14.43,371l1.15-.3.4-1.14.7-.55,1.78.59,2,.08.1.55,1,.07.64,1,0,.69.47.36.73,2.09L24.45,376l1,.7.57-.05.56,1.37.34,1.15.65.84.69.34.65,2.21.3.66.2,1.88.07,2,.45,1.93-.1,2.11-.77-1.29-.69.1-1.17-.66-.6-.89-.86-.23-.35-.91,0-1.27-.32-.25-.94.57-.2-.38-.59.83-1.54-.06-.74-.15-.57.17-.13-1.95-1.21.37-.45-.79-.59-.75-1.28,2.22-.36-.5-.89.54Z"/>
<path class="cls-1" d="M402.27,385.06l1.16,1.53,1.28,1-.77,1.93-1.63-.66-2.11.53-2.82-.17-1.42.39-.47,1.05-1.33-.8-.27,2,2,1.77,1,1.24,1.81,1.36,1.42.73,1.61,1.6,3.21,1.06-.18.83-3.39-1-2.2-1.21-3.19-.74-3.32-2.76.57-.45-1.8-1.6-.35-1.49-2.13-.34-.6,2.08-1.19-1.33-.21-1.55.1-.09,2.19-.22.42-.85,1.19.53,1.23-.14-.26-1.24,1-.66-.08-1.85,2.16-1.66,1.08.35,2.7,1.41,2.71.29Z"/>
<path class="cls-1" d="M68.11,402.33l1.56,2,2,3.23-1.08,2.57-1.14,1.42h-1.1l0,2-.7,1.11L66.2,412l-1.5-1.11-1.53-2.15-1.75-.62-.7-3,1-1.1,2.18,3.39,1.91,2.61,1.55.12L67.18,407l1-1.6-1.34-2.55Z"/>
<path class="cls-1" d="M393.38,382.61l.36-3-.79-.84,1.66-.35-.19-1.85,1.76.81,1.2.24,2.32-1.1v-.94l1.12-.4,1.23-1,.39.2,1.21-.88.39-1.2.86-.51,3.45.51.48-.61,1.95.74.56,1.11-1.48,1.4-.51,3.33-.95,3.44-2.17,1.44-1.92.26-2,1.7-1,.92-2.71-.29-2.7-1.41-1.08-.35-.91-1.37Z"/>
<path class="cls-1" d="M326.69,356.14l.24,3.2-2.35,3.85-5.16,2.27-3.88-1,2.75-4.43-.91-4.65,4-3.15,2.16-1.92.34,2.42-.75,2.34,1.65.05Z"/>
<path class="cls-1" d="M500.09,395.17l2.62.08,1.5,2.31-.79,2.36.94,3.7,4.14,2.75,5,0,3.21,2.22,1,3.38,1-.62,1.14,2.24,2.85,1.14-2,1-2.32.95-.45,5.5-6.27,3.13-13.1-3.65-6.21-.53-4.49.77-3.49-4.61,5.25-8-1.15-5.76-1.74-2.95,1.19-1.93.29-3.47,1-1.36,3.75-1.41,1.59.47,1.06-1.53Z"/>
<path class="cls-1" d="M475.22,424.75l-.08,1.62-1.45-.08.34,3.19,1,.13-.67,1,.26,1.21,1.41-1.26.69,1.66.7,7.69-4.9-6.57.51-1.84-.32-.15.19-2.41-.5-3.57.08-1.3.08-.08,1.13-.47,0-.89.88-.44.72,1.75-.21.86Z"/>
<path class="cls-1" d="M398.83,421.32l-.62,3.74.77,1.29-.34,2.43-3-1.22-1.87-.19-5.26-1.51.15-2.37,4.14-.23,3.46-1.08Zm-23.52-10.11,2.41,2.94.24,6-1.6-.1-1.24,1.65-1.44-1-.72-5.4-1-2.48,1.88,0ZM381.88,385l4.56.44.07,2.24,1.09,1.76-2.58-.24-2.25,2,.54,2.18-.18,1.33,1.41,2.11,3.38,1.76,2.27,3.41,4.29,2.95,2.56-.51,1,.83-.74,1.06,3.27,1,2.7.85,3.34,1.71.53.75-.27,1.72-2.3-1.68-3-.14-.83,3.16,2.77,1.16.07,2.4-1.37.55L401,422l-1.38.61-.24-1.37.26-2.52.56-1.09-1.82-2.33L397,413.29l-1.5-.3-1.34-1.75-2.29-.44-1.75-1.55-2.51.1-2.91-1.62-3.45-2.48L378.63,403,377,398.69l-1.67-.32-2.79-1.17-1.4.77-1.63,2.27-1.31.46.17-2-1.8-.4-1.16-3.39,1-1.46-1.09-1.6v-1.28l1.44.83,1.48-.36,1.57-1.7.62.65,1.46-.31.44-1.88,2.36.28,1.25-.93,0-1.86,1.94.38.22-.9,2.87-1.21Z"/>
<path class="cls-1" d="M52.88,394.78l1.5,2.52.77,2.7-.26,1.69L53,399.55l-1.22-.26-1-2.48-.51-3.39.91-.58,1.25,1.06Z"/>
<path class="cls-1" d="M475.14,426.37l.08-1.62,4.42.08,4.7-7.58,3.49,4.61-.37,1-5.92,5.26,5.06,2.81-.86,1.25,0,1.71-2.43,1.76-.27,1.93-1,2-4.18.93-.33-.58-.7-7.69-.69-1.66,0-1.49Z"/>
<path class="cls-1" d="M543.88,315.51l-.37,2.07v5.72l1.61,3.62-.71.95-2.14-1-2.62,3-3.14-2.45-1,1.13-3.21-3.76-4.8.16-3.18,4.14-2,3.12L517.49,331l-2.92.35-5.53.57-.67.06-3.82,7.34,10.83,14.05-1.11,1.24-3.91-1.64-2.43.25-2.21,3-.2,2.16-.8-.85-.52-2.11-1.42-1-3.79.84-3.53-2.71h-2l-1-1.22,2.62-1.38L493.16,347l1.56-2.18,2.46-1-2.38-4.08-2.19-2-2.13,2-2.64.57L486.37,344l-1.64,2.42-1.65.23-1.14-2.19-3.3-1.56L477,344.18l-3.8-1.32L472.5,339l-1.22-.34-1.16-5.52,3.89.61-1.76-3,1.27-7.44,3.13-2.66,6.56-1.21,3.62-.62.72-3.43,2.94-3,4.1-.58-.46-1.59,2.68-2.55-1.19-2.11-5.22.71v-3.46l-1.27-.58.71-2.67-3.61-1-.46-2,4.53-8.12-.21-1.71,2.07-6-.44-3,3.12-2.92,4.54,2.38.31-2.85,2.91-1.71,2.12,1.73.89-2.21-1.22-8,.95,1.62,4.56-.74,13,1.59-1.7-2.65,3.75-1.82.14-4.16,1.24-.91,2.91.23,1.4-1.29,2.19,0,.35-3.64,3.07.07,2.38,3.62-.23,2.42,4.3,2.67,1.47,2.67-3.23,4.41,6.75,6.86.36,2-.68,6.48,8.07,2.74.17,2.68,2.35,1.52-1.39,1.26-2.08.27L552,295.81l-2.52,4.33-.13,1.31-3.78,2.34-.13,2.14,1.92,2.35-4,3-.63,2.13Z"/>
<path class="cls-1" d="M535.07,564.38l3.06,2.68L535.32,570l-.85,2.26-1.6.94-.26,3.36-1.21,2.3-.55,3.26-1.63,2.09L522.43,582l-.57-2.46-17.09-3.7-.81-.25-.59-4.64,1.05-2.18,1.8-3.61,1.17-3.74L504.76,557l-.84-2-2.53-2.39,2.27-3.52,2.45-3.9,2.36,0,.42,2.48,1.71.94,3-1.06,6.07,1.78,1.36-.46,1-.5,1,.15,2.91-.74.94-2.34,3.54-3.39,2,.82,2.88-1.18-2.8,6.56Z"/>
<path class="cls-1" d="M543.88,315.51l-1.17-2.06.63-2.13,4-3-1.92-2.35.13-2.14,3.78-2.34.13-1.31,2.52-4.33,2.46-3.69,2.08-.27,1.39-1.26.7,1.09-.06,6.07,1,2.25-1.47,3.91,1.8,3.13-2.19,2.44-.42,2.52.08,4.17,1.08.43.32,1.55-2.89,5.57-3.44,2.08-1.83,3.06-1.77-2.29,2.65-2.19-.39-2,1.74-1.63-.28-5.83-4,1.28-.39,2.68-2.66.57-.79-4.35Z"/>
<path class="cls-1" d="M687.38,338.85l-.07.29.89,1.64.28.67-.28,2.59-.88.66,1.38,6.9-3.32-3.3-3.75-5-.69,2.75-2.3-2-1.51.73-1.23-2.24L674,336.65l1,.45.45-2.19-4.55-3.34-.28-2.71,3.43.2,3.8,1.21.6-5.39,3.13,1.15.76,1.6.46,2.36,1.25,2.57.37-.41Z"/>
<path class="cls-1" d="M474.63,422.15l-.88.44,0,.89-1.13.47-.13-4,.48-3.76V416l1.57-.43,1.21,1.45-1.17,2.42Z"/>
<path class="cls-1" d="M309.83,576.22l-1.22,0-4.74-2.36-4.1-3.59-3.85-2.68-3-3.07,1.17-1.3.3-1.24,2.18-2.19,2.23-1.86,1,0,1.22-.4,1.8,2.81-.37,1.73.86,1,1.3.11,1-1.69,1.3.19-.26,1.25L307,565,306,566.86l1.31,1.28,1.46.38,1.91,1.93.09,1.71-.46.52Z"/>
<path class="cls-1" d="M675.37,427.36l1.86,5.39-.53,2.82-1.91,4.13-3-2.07-3.55-6.05-2.42-9,3.09.11,2.82,1.58Z"/>
<path class="cls-1" d="M402.38,345.6l-.57-1-.13-1.25-1.32-.36-2.83,0-1.68-3.47,2.32-2.09,4.09-.93,2.16-1.16.67.77,1.36-.14,3.09,1.27,1,1.81-1.45,2,.35,2.59-2.1,2.48-2.44.72-1.06-1.14Z"/>
<path class="cls-1" d="M361.1,372.32l.68,1,0,2-.84.16-.69-.33.09-2.53Z"/>
<path class="cls-1" d="M395.84,339.45l-1-3.25.27-3,1.68-2.09,3,2.63,1.84-.67-.79-3.39,1.64-1.38,1.19.18,2.58.89,1.87-.66,1.5.56,1.07,2,1.81,2.2L410.69,336l-1.15,1.22-3.09-1.27-1.36.14-.67-.77-2.16,1.16-4.09.93Z"/>
<path class="cls-1" d="M325.59,437.49l2.14,2,3.5-.21,3.79,1.07,1.6.07,1.37,2.89.21,2.74,1.29,4.75,1,1-.7,1.75-5,.72L333,455.85l-2.23.35-.24,3.32L326,461.16l-1.57,2.19-3.25,1.07-3.94.48-6.54,2.89-.32,5.31-.61,0h0l-.07,2.41-2.49,0-1.37.91-1.82-.16-1.4-.71-3.41.15L297.61,479l-1.29.19-2.43,5.43-6.16,4.15-2,6-1.91,1.78-.67,1.54-9.43-1-.07,0,.45-2,1.74-1,1.63-2.12-.09-1.55,1.79-2.94,2.6-2.51,1.45-.53,1.37-2.46.37-2.37,1.76-2.57,2.85-1.29,3-4.26.08-.05,2.17-1.49,3.72-.09,3.38-2.75,2.07-1,3.56-3.46-.53-5.66,1.76-3.74.69-2.32,2.65-2.84,3.89-1.79,2.87-1.69,2.72-4.52,1.29-2.7Z"/>
<path class="cls-1" d="M421.92,368.6l.43-.86,1.69-1.06,2.55.61,1.2-.25,1.7.69.37,1.52,1.29.32,1.11,1.64,1.42.72.05.71.7.23-.63.6-1.73.5-.51-.49-.47.56.5.69-.27,1.65,0,1.66-.56.73L429.59,377l-.38-1.94-.8-1.85-2.59-2-1.56-1.5-1.34-1Z"/>
<path class="cls-1" d="M576.61,601.45l1.2,1.45,1.13,2.56.76,5.2,1.11,1.67-.43,2.37-.77,1.66-1.44-2.06-.82,1.68.78,3-.42,2.09-1.21,1.53-.39,4-1.94,6-2.52,7-3.39,9.51-2.32,6.82-2.59,5.85L559.69,664l-4,3.11-2.36-.31-3.26-.46-.92-1.92.15-3.78-1.19-3-.11-3L549,651.2l2.09-1.43.12-1.47,2.34-4.05.57-3-.91-1.74-.7-2.5-.2-4,1.61-3,.65-3,2.2-1,2.46-1.81,1.63-1.41,1.92-.79,2.5-3.51,3.57-4.18,1.28-2.8-.61-1.69,1.84-.21,2.31-4.14v-2.76l1.35-2.64Z"/>
<path class="cls-1" d="M40.73,296.38,37,297.92l-2.89,1.84-5.06,4.5-1.9,1.39-1.8,2.7L24,311.4l-2.53,3.72-1.77,5.51L18,323.77l-1.14,3.5.65,5.29-.76,3.31L19,338.2l1.57,2.57,1.83,2.17,1.63,1.72,2.41.77L28.77,344l2.87-3,1.25-.51,2,1.48,2.63,3,1.51,3.34,1.41,1.84-.21,1.7-1.58,1.8-2.89.45-2.35,1.6L33.26,357l-1.62,1.21-2.87,2.28.28-2-.46-.7-.41-.65-2.54,1.15v-1.16l-.37-.26-.43.63L23.14,354l-1.71-3.53-1.75,2.31-.82-1.72-.36,2.8,0,2.37L18,357.58l.12.87-1.08,1.33-2.4-4.92-3.36,1.55-.3,1.34-.92.54-.92,1.14,1.25-9,.13-3.4L10,342.7l-1.12-1.95L6.43,339l-1.08-1.66-.17-4-.42-3.89.31-5.76L4.61,320l.31-6.65.82-5.45.71-2.12-.32-2.64.26-5.64L7.75,294l1.38-6.8,2.11-4.48L13,279.93l.56,1.11,1.05-1.46,1.14.09,1.36-1.19,1.59-3,1.54-1.75,1.87-3.14,3.71-7.06,3-6.8,2.53-4L33,247.82l1-1.51,2.64-1.16,1-2.84,2.16-3.88,3.07-3,.47-2.49,2.47-3.84,2.31-3.22,1.41-1,3.59-4.1,3.61-3.28,1.73-.83,2.19-3.85V211.6l1.62-2.93-1.75.22-2.3,1.74-3.48,2.1-2.07,2.39-3.5,4.78-1.13,1.28-.39.82-1.59,1.42v.72l-2.94,2.52-1.23,2-1.63,1.86-2.4,4.09-4.1,4.05-1.93,2.56-2,2.59-2.25,1.82-.16,2.22L25.51,251l-1.84,3-.75.46-1.56-.7v-.52l.5-.89,2-2.47,2.43-4.64,1.27-2.76,3.59-5.82,1.64-1,2.4-2.19,1.5-2.93L39,226.29l-.51-.23,1.26-1.79.58-1.41,4-5.61L43.83,219l1.47.66,2-1,3.66-5,1.64-3.13,3.11-3,3.29-3L63.06,201l4.52-3.45L67,202l-.45,4.9-.83,0-3.15,7.14L58.38,225l-.41,8-.08,3.16,1.82-1v6.8l-1.51,2.37-1.3,2.86-1.77,3.54L53,253.37l-2.26,2.56-1.1,2.93L48.69,263l3.57.11.49,3.11-1.24,3.93L49,274.24l-2.13,3.19-1.83,4.13-2.59,3.15-1.6,2.66-.5,4.09L40.22,295Z"/>
<path class="cls-1" d="M412.26,401.61l.42-.06-.09-.94,1.71-1.16.67-.35,1-.54,1.45-.47,2,1,1,2.84-.57.31-.32.91-1.77.38-1,1.29-2,.93-1.62-.74-.94-1.78Z"/>
<path class="cls-1" d="M291.64,529.85l1.54-.66.91-2.53,1.4,0,3,1.51,2.53-.67,1.69.43.71-.93,17.68,1,1.06-3.06-.75-.57-1.48-19.25-1.27-19.36,6.28.19,13.82,10,14.34,9.53,1.06,2.05,2.7,1.18,2,.64.14,2.83,4.75-.66.41,10.22-2.29,3.08-.29,2.74-3.9.86-6,.57-1.61,1.61-2.84.23-2.84.06-1.11-.84-2.44.64-4.15,1.82-.86,1.37-3.47,1.94-.62,1.12-1.89.86-2.15-.64-1.24,1-.71,3-3.65,3.53.07,1.49L320.89,548l.24,2.55-1.89.58-1.08.51-.65-1.9-1.33.43-.78-.12-.87,1.24-3.51-.22-1.23-.73-.61.36-1.34-1.35.29-1.29-.55-.55-1,.37.24-1.42,1-1.07-1.77-2-.48-1.25-1-1-.89-.18-1.11.54-1.48.48-1.28.85-1.9-.51-1.18-1.22-.73-.21-1.2.48-.71-.06-.16-1.63.29-1.35-.28-1.74-1.59-1.4-.71-2.61Z"/>
<path class="cls-1" d="M665,296.3l1.09,4.08-.51,3.15,3.44,6,.19,2.47,3.64,1.37,3.27.16,2.76.85,2.6,5.08.23,2.24,2,1,3.48.38,1.36,1.24,2,6.76-1.72-2.47-2.23-.41-4.41-3.56-4.52-4.36-3.37-1.47.91,4.78.88,7.65-1.08,2-1.67,1.6-3.62-6.43-3.46-2.87-5-1.35-1.08-1.89-1.24,1.84-3.8-.34L652.26,321l1-.79-2.5-2.78-.2-2.82-1.66-1.16-.94-2.14-3.72-3.91,1.75-2.22-2.57-4.68-1.78-1.91-2.63-5-2.23-1.83-1.54-7.32,1.29-2.19L634,280.53l-.47-2-1.57-.92.11-2.51,2.6.56,1.25-1,3.09,2.34,3.26,2.85,2.56,6.59,4.48,4.55.23-4.86,3.75,2.2,1.24-1.95,3,4.13,2-1.78,1-1.18-.62-4.14,1.62,1.32,1.88,5.95,1.23,2.24Z"/>
<path class="cls-1" d="M409,399.38l-.41-.78-.86,2.5.55,1.36-.76-.19L406.31,401l-1.59-.57.18-.83-.1-2.54.78-1.26.49-.54,1,.56.61.5,1.16.23,1.44.62-.16.44-.35,1.13Z"/>
<path class="cls-1" d="M536.1,251.3l-.11-3.18-2.86-6.93-1.5-5,1.72-1.68.39-2.75,2.34-.9.39-2.64,1.4-3.5-3.19-3.87-2.8.11L527,216.6l1.91-2.34.46-2.25,1-2.8,3.55.53,1.67-3.36-1.18-2.88-1.11-3.69.18-2.65,1.81-2.23,2.12-1.18-.62-2.68-.08-3.48-1.89-2.87-1.9-3.91-4.75-4.63-.08-1.63,1.07-1.3-1.7-3.42,4.16,1.76,5.56,2.66,1.68-.5L537.64,172l-.4-2.85-2.71-2.47.5-2.24,2.1-2.42,1.84.48.53,2.35,2.48,4.51,2.2,2.35,4,2.77,3.47,5.14,3.5,3.7-.06,3.07,0,1.69,3.49,2.44,1.59-.56,1.45-.12,2.14,2.73,3.05,3.1,2.41,4.41,1,5.06,2.29,6,2.85,4.86-1.34.9.22,4-2.68,3.67-.68,2.9.54,4.58L570,238.15l-.22,3.53-2.87.48-4.31-.68-.73,1.63-3.31,2.2L557.29,249,555.85,252h-2.13l-5-3.86-4,.06-2.53,3-2.9,1Z"/>
<path class="cls-1" d="M510.12,620.78l3.42-1.34L519,619l1.17-.91,3.14-1.08,1.57-1.81,2.7-.79,4.85-3.31,3.45-3.75.8,1.73,0,4.45.64,3.67.25,6.81.79,1.89L537,629.51l-1.78,3.6-2.92,3.6-4.16,2.91-5.16,3.6-5.3,6.06-1.78,1.26-3.33,3.88-1.93,1.47-.56,3.12,1.95,2.65.71,2.25,0,1.25.82-.42-.48,4.17-.92,2.14,1,.45-.85,1.92-2,2-3.88,2.32-5.7,3.52-2.16,2,.19,1.65,1.13,0-.65,2.25-3.43.72-.17-1.73-.46-1.7-.22-1.39,1.29-4.78-.91-2.67-1.71-5.34,5.17-5.84,1.4-3.31.72-.55.66-2.6-.67-1.07.34-3.2,1-3.15.15-5.36-2.36-.76-2.19.24-1-.8-2.12-.37-3.86,1L490.5,643l-.41-2.91,14-7,2.64,1.35,1.26-.73,1.8.59.25,1.65-1,2.25.29,2.92,2.92,1.83,1.46-3.36,2-1.46-.33-5.42-1.91-2.57-1.65-.92-1.59.51-1.34-5.24Z"/>
<path class="cls-1" d="M291.64,529.85,289,526.51,286.56,523l-2.79-1.51-2-1.56-2.42-.26-2.21.68-2.12-.68-1.63,1.21-.13-2.44,1.43-2,1-4.1v-4.45l-.27-2.28.67-2.15-.85-2.27-2-2.25,1.09-1.34,16.37,2.19-.2-6.53,1.23-2.17,3.9,0,.88-11.44L309.79,481l.44-6.78,14.72,11.67-6.28-.19,1.27,19.36,1.48,19.25.75.57L321.1,528l-17.68-1-.71.93-1.69-.43-2.53.67-3-1.51-1.4,0-.91,2.53Z"/>
<path class="cls-1" d="M510.12,620.78l-1.21,3.64,1.34,5.24,1.59-.51,1.65.92,1.91,2.57.33,5.42-2,1.46-1.46,3.36-2.92-1.83-.29-2.92,1-2.25-.25-1.65-1.8-.59-1.26.73L504.1,633l-2.42-.47L503,628.2l1.42-1.88-.95-3.32.83-3.74.74-1.39-1.29-3.34-2.24-1.33,4.51-.45,1,.94,1.62,1.58Z"/>
<path class="cls-1" d="M422.57,706.83l-3.24-2.55-1.63-2.64-.79-3.68-1-2.71-1.26-5.87.11-4.71-.52-2.1-1.79-1.44-2.35-3-2.38-4.54-1-2.41-3.82-3.55-.24-3.06,2.32-1,2.88-1,3.11-.2,2.83,1.53.73-.36L433.9,661l3.25,1.49,11.46-1.17,8.72-3.14,3.88-1.63,3-.33,1.83.58,0,.34-2.67,1.43-1.43.27L458.95,661l-1.75-1.38-7.31,2.66-3.52.7-.72,14.47-4.65.82-.7,11.65-1.21,14.52-4.32,2.52-2.51.59-2.85-.38-2.06,0-.64-1.56-1.75-.85Z"/>
<path class="cls-1" d="M355.4,543.8l0-3-5.19-.86-.17-2.13L347.53,535l-.62-2,.33-2.14,2.84-.23,1.61-1.61,6-.57,3.9-.86.29-2.74,2.29-3.08-.41-10.22,6-2.34,11.72-9.74,13.46-10.11,6.72,1,2.61,2.1,2.7-2.11,1.9,6.76,1.7.9.25,1.4,1.93,1.24-.67,2.06-.54,9.27.43,5.8-5.08,5-1.32,6.09,2,1.38.26,2.84,2.84-.31-.24,2.14-1.23.43v1.42l-.82.21-3.43-4.41-1.05,0-3.25,2.91-3.54-.87-2.41,0-1.23.76-2.61.15-2.5,2.14L386,538l-5.53-1.8-2.06,1.25-2.28.1L374.41,536l-4.54-1.35-4.77.79-1.13,1-.55,2.56-1.23,1.83-.2,3.94-3.5-2.39-1.61.07Z"/>
<path class="cls-1" d="M13.63,399.13l0-2.67L13.52,393l.36-2.3-.14-2.94.08-3.84.66-.27,0,1.27.36,0,.81,1,.89-.54.36.5,1.28-2.22.59.75.45.79,1.21-.37.13,1.95.57-.17.74.15,1.54.06.59-.83.2.38.94-.57.32.25,0,1.27.35.91.86.23.6.89,1.17.66.69-.1.77,1.29-.46.11-.71.79L28,393.92l-1.44.68L25.23,396,24,397.8l-.52,1.32-1.07,2.08-.62-.1-1.29,1.57L20,404.09l-1.14.42-.54,1.38v1.28l-1.12.11-.58-1.35.09-1.52-.58-1.51-.89-.24-1-3.56Z"/>
<path class="cls-1" d="M359.71,357.25l2.25-.08.67,1.45-.23,4.13-.52,1.74-1.67.15.93,4.63-1.66-.91-2-1.82-2.54,1.1-2.09-.23,1.37-1.31,1.93-6.71Z"/>
<path class="cls-1" d="M383,272.26l5.89,1-1.18,1.84,3,1.77-1.59,2.66-1,.87-.87-3-2.68-.82-1.58,2.22.68,3.22-.65,2.32-2.12-.41-2,.86-2.61-1.65-.52,1.37-.92.45.76,2.8-3.31.14.32,2.44-1.62.37-.24,3.26-.47,5.09-1.39,6.59L370,307l-.28,1.83-2,.28-.45,4.27,1.31,5.73,1.83,2,.33,5.23-1.3,3.29-.55,2.67-2-2.46L363,335.44,360,336.81l-3.55-1.94-1.31-4.67-1.69-10.08,1.67-3,5-4.23,3.19-5,2.27-6.56,2.28-9,1.91-3.79,2.66-6.33,2.64-2.75,2.53-.55.7-4.1,2.64-.75Zm-17.66-24.62L364,250l-2.11-.39.21-1.23-1.11-1.1,1.51-1.39,1.06,1.35Zm-8.92-5.51,4,2.15-1.55,2.23.63,3.1-.57,1,.71,3.49-1.21.46-3-2,.48-1.65L354.1,250l-2.73-3.15-1.44-3.12,1.9-1.87.86,1.34,1.18-.31-.14-1.46,1.13-.42Zm4.29-4.57,2.2.76,0,2.51-2.1,1.31-2.72.11-.61-1.05-1.18.26-1.56-1.61,1.89-1.77,1.51.6.19-1.42Z"/>
<path class="cls-1" d="M623.61,313.2l1.45,1.8,2.48,1.8,1.25,1.84-1.18,3-2.69,3.41-1.58,2.36-2.71.13-2.76,4.21-4.2,2.3-3.36,1.3-3.06,1.75-2.46-4.7-.44-3.7-.12-2.21,2.43-1.51,4-1,1.42-1.37,2.24.59,1.93-1.94,2.82-1.22,2.52-3.13Z"/>
<path class="cls-1" d="M26.2,443.72l-.42-2.42.45-3.19,1.26-.42-.6-1.14.14-2.13-.85-2.92-1.38-1.16-1.31.92-1.67-.2-.69-.57-.71.63.23,4.11-1-.32-.71.2-1.42-1.34.76-3.35-.72.34-.79-1.4.3-2.55-1-1.72-.45-1.44-1.16-1.49-.56.89,0-1.1.58-.73.67-.64.3-1,.66,0-.22-1.41.9-1.86,1.22.94.15,2.88-.53.9,1,1.58.44,0,.21,2.07L20.77,426l1.72.29,2.13,1.12,1.6-.22,1.43,2.1-.32.32,1.52,2,.92,2.24.33,2.44.54,2.48L30,439l-.49,3.45-1.15.76-.82-1.37Z"/>
<path class="cls-1" d="M31.5,588.93l-1,1.95-2,.07-3.9-5.33-.35-2.3-7.48-10.12-6.51-10.35-2.68-5.29-1.26-5.44.69-1-2.49-9.19L2.13,529.46.36,516.35l-1-3.6L-1,508l-1.93-5.79-1.9-4.35,1.54-1.24-.46-6.43,1.85-2.53,3.35-.59-.14,2.47-1.21.28-.36,1.94,1.44.93,1.19,1.83.8,3.87,2.34-.29,1.41-2.78L10,492.89l4.48,1.78,5-1.79,1.89-2.21.55-4.1,1,.36,1.6,4.3.47,3.24,1.26,2.62.78,6.81,2.46,2.76,2.24.3,1.08,1.86L35,510.09l2.25,4.39-3.36,3.12,1.06.94,1.31,3.95L33,519.78l-.63.36-3.14-1.35-4.73.09L23.84,521l-1.22,1-.11,3-2.4-.29-.34,2.1-1.09.16.82,5.68,1.6,4.59-1,1.56,2.39,2.12,1.08,3.69,3.25,2.5,3.39-.74-1,7.35,1.66,1.75L33,556l2.69,10.14-.93,1.14-.37,3.36-.25,4.18-1.58,1.53.65,2.29-.92,1.12L33.91,585Z"/>
<path class="cls-1" d="M385.87,364.51l-1.73-2.6-.11-1.56-1.17-2.23-1.3-1.39.49-1.31L381,353.31l1.51-1.62,3.56-2.83,2.83-2.18,2.72.14.49,1,2.46-.55,3.26-.32,4.6-1.37,1.44.08,1.06,1.14.77,1.86,1.27,1.42.58,1.72-1.26,1.35,1.48,1.75.7,1.9,2.62,3.36.12,1.3-1.18.91-1.35,4.33,1.33,1.75-.69-.08-3.17-.93-1.84,1.15-1.46-.1-1.41,1.36-1.85-1.2-1,.87-.23-.23-1.86-1.85-2.16.21-.61-1.31-2-.08-.15,1.22-1.74-.59-.1-1.25-2.17,0Z"/>
<path class="cls-1" d="M84.9,428l1.39,1.76.14,1.34-1.34.4-2.32-2.06L80.89,428l.76-2,.75-.24Z"/>
<path class="cls-1" d="M538.61,128.57l.46-.47.63,1.24,2.56,1.4,2.25,1,3.21-.08,2.21,1.78,1.22.64,2.22,1.36,2.24,2.35,2.19,1.61,1.33.17,12.35,9.72,0,.26-.23.88-2.6-1.3-1-.93-.68.21-3-1.23-.64.14.61,2-.38,1.51L559,147.62l-4.68-4-4.7-2.54.47-1.52-1.68-2.9-2.1.44L540.9,132l-3.47-1.25Z"/>
<path class="cls-1" d="M313.91,409.12l1.31-1,1.41-.55.66,2.26,2,.13.61-.53,1.94.28.8,2.31L321,413.11l-.26,3.5-.6.62-.27,2.12-1.52.27,1.21,2.78-1.16,2.89,1.13,1.41-.56,1.19-1.43,1.6.2,1.51-1.52,1.07-1.85-.77-1.89.35.82-3.47-.11-2.79-1.54-.54-.69-1.77.54-2.91,1.52-1.51.4-1.79.94-2.64.09-1.91-.53-1.67Z"/>
<path class="cls-1" d="M60.23,627l1.1-5-.09-2.54,1.69-3.26L70,618.25l3.85,1.88,4,4.19L78,625.8,79.47,629l.26,6.24L84.23,638l1.63-.19,3,2.44.93,1.71.86,4.39.7,2,1.6.83,1.5-.12L96,650.46l.32,2.51-.21,2.49-.45,2.33-.06,3.78-3.22,2.08-3.17-.52-4.8-2.53-4.4-2.95L83,652.19l-.9-2.31-4.53-3.63-5.51-5.69-3.45-2.23Z"/>
<path class="cls-1" d="M411.33,373.48l.95-1.28,1.92,0,1.83-.53,1.67.65.75-1,1.94-1.08.35-1.24,1.18-.39,1,.13,1.34,1,1.56,1.5,2.59,2,.8,1.85.38,1.94,1.25,1.78,1.6.33,1.11-1.19,1.6.25.49,1.08-1.07,1.45-1-.08,1.08,5.5-1.93.16-2.74-.83-3.21,2.17-1.15,1.59L421,390.35h-2.57l-1.1.66-1.41-1.55-.78-.61.49-.93-.91-.34-.68,1.24-2.14-.8-.74-1.74-2.13-.55-.72-1.31-2.09-1.31,2.17-1.44.95-3.44.51-3.33Z"/>
<path class="cls-1" d="M468.73,101l3.51-5.15,3.26,3.87,7.34-.72.75-3.24,6.35,2.79-1,.6-4.13,1-3.84,1.8-3.58.58-5.23,2L470,107.39l-5.42,2.05-4.14-1.07-.69,1.6-1.67-.62,1.76-1.7,2.62-2.4,3.71-1.65ZM402.38,345.6l-4.6,1.37-3.26.32v-2.05l3-2.31,2.83,0,1.32.36.13,1.25Zm-76.82-232-1.7-.71,1,2.49-6.09.26-5.41-2.47,1.77-1.89,3.73-1-.86-3.36.8-.85,2.36-.2,2.15,1,3.44.69.78,1.46,2.5.39,2.67-.61,1.39,1.17-.41,1.33,2.74-.93-1.15-1.63,1.3-1.52.55,14.15-5.24-2.54-6.15-3.07Zm11.87,14.57,2-.21.33,1.16-2.24,1.55Zm-2.37.29,2.37-.29.09,2.5-.22.16-1.48,0-2.64-.92.1-.51Zm56.07,22.7,1.87,1.18,2,2,0,.28-2.45.24-1.75-.73-.43-2.12Zm-14.18.74,2.45-.55,1.67,1.24,1,2.33-1.23.8-1.66-1.57Zm5.07,4.81,3.17-1.6,3.94,2.69,2.57.64-.34,3.14-3,1.3-1.9-.45-2.39-1.9Zm36.63,93.47-.21.87L414.79,254l-1.89-1.1-2.76.87-2.07-1.56.21-1.59-2-1.64-1.43-4.28-1.23.43-1.42-4.56-2-1.06-.5-3.26-.53-4.32,1.07-3.15-.75-2.23.33-1.86,2.08.23,1.08,1.22.36,4.14.21,3.78,1.78,5.18,2.71,4,2.38,4.21,3.33,2.25ZM402.84,190l2.33-.52-1.48-.7-1-2.66,1.38-2.49,1.4-1.12,2.58-.26,1.94.84,3.84,2.32,1.75.63.15-1.44.53-1.8-1.35-.84,2.8-1.08-1.47-.28L414.61,179l-1.21-3.64,2-.82L413,169.8l-3.43,1.07-.91-2.44-1.36-1.59.79-2.56,2.24-1.64,2.33-.12,2-2.78,0-2.51-5.3,1v-2.59l-3-1.17-1.17-2.61-1.94-.06-1.55-1.88-2.4,2.93-3.1-.07-9.8-8.86.4-2.38-2-4.17-7-2-3-1.66-.62-1.82,1.61-2.35-1.72-1.62h-2.83l-3.33-.74-3.28-1.46-3.75-.3-2.49-3.67-2.76.79,1,2.47-1.23,1.47-5.87-1.64-4,0L340,123l-2.82-1.55-.55-14.15,0,0,3.14-1.57L343,106l-2.22-1.89-1.53-2.86-1.24-.92-.35-1.42.68-.92,5.07.78,7.92-2.23,2.54-.21,4.78-2,4.7-1.54,1.5-1.35,3.46,2.92,8.51-1.13.79,1.47,3.41-.73,3.62,1.39,2.05-1.8,5.28-2,.65-1.25-3.08-1.66,3-4.27,3.07.74,3-2-.55-1.67,6.89.38L408.63,79l5.69,1.17,3.44-2.31,7.41-.37-.46,2.28-2.3,4.33-4,6.53-5,3.09-4,.63-1.28,1.24-5-1.07-7.83,1.92-6.83,1.64-6.33,1.15-4.39,4,3.28.51,3-2.19,8.87-1.37-.37,4.44,7.34,1.36,10.61-2.07-.62-2.64,6.68,2L421,105l-2.28,1.76,3.46,2.42,4.58.49,6.82,4.87,8.56,4.55,14.53,2.06,17.86,4.19-2.94-3.53L473,119.9l-1.38-2.39-3.51-.6-2.4-2.36.58-4.76,3.16-1.45,5.95.17,4.9-1.54,7.59-1.07L498,108l3.8.18,8.68,2.7,8.65,3.09,3.2,1.18,7.28,4.32,1.64,1.93-.59,2.12,6.57,4.09,1.88.46-.46.47-2.29.08L535,127l-5.67-.17-3.24,1.07-3.59-2.44-2.16-3.68-5.94-1.4-5.62-.22-2.54-.78-5.16-.65,5.27,4.17,3.76,2.09,3.43,4.22-3.31,1.62-.72,3.59,2,4.85-3.77,1.39-2.17,1.18-1.3,1.16-3.55,2-.24,2.36,1,3.84,2.08,3.3,2.58,3.1,3.46,2.08.39-1.43,2.59,0,2.27,1.48,6.23,2.58,2.08.07,4.8,4.16-.39,3.25,1.7,3.42-1.07,1.3.08,1.63,4.75,4.63,1.9,3.91,1.89,2.87.08,3.48.62,2.68-2.12,1.18-1.81,2.23-.18,2.65,1.11,3.69,1.18,2.88-1.67,3.36-3.55-.53-1,2.8-.46,2.25L527,216.6l4.89,4.41,2.8-.11,3.19,3.87-1.4,3.5-.39,2.64-2.34.9-.39,2.75-1.72,1.68,1.5,5,2.86,6.93.11,3.18.1,1.22-3.07-.07-.35,3.64-2.19,0-1.4,1.29-2.91-.23-1.24.91-.14,4.16-3.75,1.82,1.7,2.65-13-1.59-4.56.74-.95-1.62,1.22,8-.89,2.21-2.12-1.73-2.91,1.71-.31,2.85-4.54-2.38-3.12,2.92.44,3-2.07,6,.21,1.71-4.53,8.12.46,2,3.61,1-.71,2.67,1.27.58v3.46l5.22-.71,1.19,2.11-2.68,2.55.46,1.59-4.1.58-2.94,3-.72,3.43-3.62.62-6.56,1.21-3.13,2.66-1.27,7.44,1.76,3-3.89-.61,1.16,5.52,1.22.34.66,3.89,3.8,1.32,1.68-1.32,3.3,1.56,1.14,2.19,1.65-.23.48,3.11-1.95,2.29.14,5.78,4.72,2.27,1.44,2.88,5.81,2.82-.58,2.69.17,1.34-1.36.5-3.32-1.27-.84.35-2.25.12-1.8-1.16-3,.68-1.28,1.63-.91-.48-4.81.18L471,371.69l-2.71.54-.09.67-5.33-1.69H458.9l-3.59-1.3,1.68-1.64.5-4.6-2.34-.89,3-3.68-.55-.86-2,1.88-.88-1.88.73-1.84,2.33-1.62-.35-1.58-1.81-2-.19-2.68-.71-1.18-4.39.62-1.43.8-2.57-1.14-1.57,1.6-3.93.08-.36-.84-1.8-1.38-2.09.71-.84-1.19.2-1.12-2.73-1.63-2.35,1.53-.85.11-.18,1.22-1,.22L427,344.57l-1.22-1.15.29-.59,2-.69.5-1.31-1.23-.81-2,0-.21-.81-1.33-.35-2.76-2.11,0-1.33-1.15-1.85-2.72-.07-1,1-.79-.91-2.9-.12-1.81-2.2-1.07-2-1.5-.56.39-1.68-2.35-3.65.47-3-.65-.6,1.33-3.21-3.08-1.12,1.76-6.94.58-3.1-.39-2.36L402,301.5l-.63-2.94-3.16-2.32-.65-3.93-4.34-3.74-.13-3.62-3.8-1.66-1.24-2.88,1-.87,1.59-2.66.66-2,3.76,1.21,4.45-1.11,8.37,1.12,2.43,1.06,2,2.38-.17,3L410.37,285l-8.92.82-.86,1.06,4.37,1.56,1.23,1.75,2.58,3.92,2.94.05,2,.29-1-2-2.09-1.11.08-2,5.57.13.69-1.73-3.07-2.1.77-5.82,1.51-.68,2.39.34-1.25-3-3-1.31-1.15-2.59L410.32,271l4.62-1.5,2.53,1.37-1.28,1.68,1.75,1.94,2.15.4,1.39-2.36-1.76-2.43,1-3.77,1-6.46,1-.66,1.1,3,1.77-1-.47-1.86,1.89-2.2-.08-2.92,3.47.41-1.52-3.22-3.27-.42-.83-1.51,3.8-2.58,2.45-.84,7.74-1.71-1.74-2.14-3,0-.93-.48-1.33,1.25L430,241.37l-3.73-1.27-1.39-.74-2.69-4.2-3.6-2.74-.45-1.22,2.59-2.31,2.63.88,3.14,2.77,1.79-.07,3.33,1.07,6,3.23,3.44-.15,2.7,2,4.84,6,1.51-1.32L448.82,242l-.37-2.18-2-1.47-1.59-2.25-2.92-.38-2.71-2-1,1.29-2.65-.85-4.1-3.07L427,231l-2.17-3.42-3.38-1.08.12-.6,2.8.42,4.27,2.27,1.35-1-3.55-.79-1.11-2.67.53-2.52,3.33-1.34-4.26-.19-5.12-1.48-.49-2.19.75-2.6-.27-2.55-2.69.34-3.07-1.88,0-1.21-2.33-2.37-.62-2.73-1.37-.47-.6-2.6,1-.75-2.92-2.26-.22-1.75-2.2-.22-2.3-.79L400,192.67l1.15-1.63,1.57,1.09Zm-6,2.31,3,4.57L393,195.68l-.7-.58.19-.58,2.26-2.2ZM376.47,227l-.21,1-.21.66.52.55-.07,1.08-1.46-.2-.78-1.22-1.36.92.45-1.44.77-.74,1.08.7-.57-1-.13-.92,1.57-.09ZM395,196.62l.9,1.7-1.21,2.15-1.84,1.17-3.57.35-1,.87L384.8,201l-1.25-1.36,2.36-1.26,4.55-1.74Z"/>
<path class="cls-1" d="M488.4,581l2,2,0,2.64-1.26.91-2.44.37-1.18,2.84-2.8.38.22-2.48.6-.5-.06-2.63,1.19-1.56,1.14.15Z"/>
<path class="cls-1" d="M309.71,475.46l.07-2.41.61,0,0,.3-.13.86-.44,6.78-13.26-1.43-.88,11.44-3.9,0-1.23,2.17.2,6.53-16.37-2.19-1.09,1.34.41-1.85.07,0,9.43,1,.67-1.54,1.91-1.78,2-6,6.16-4.15,2.43-5.43,1.29-.19,1.62-3.35,3.41-.15,1.4.71,1.82.16,1.37-.91Z"/>
<path class="cls-2" d="M525.5,484.76l-1.08-1.65-1.57-.78-.84-1.62-2.47-.66-3.19-2.76-2.21-3.1-3.58-1.84-1.92,0-3.83-3.08-1.41-2.86-.69-2.67L499,459.84l-2.3-1-2.29-.05-2-2-.13-1.08-1.77-1.84-1.39-.53-2.51-2.66-3.39-2.62-2.84-2.26-1.79.74L478.3,444l-.36-1.59-.15-1.92,4.18-.93,1-2,.27-1.93,2.43-1.76,0-1.71.86-1.25-5.06-2.81,5.92-5.26.37-1,4.49-.77,6.21.53,13.1,3.65,6.27-3.13,3.09-1.3,1.76,1.55,2.24-1.5,3,2.9,2.06,0,1.27,1.15,3.07.39,1,1.64.34,1.63,1.08,1.18,1.5.6,1.09,1.13,1,.74,1.39.21.78-.9,1.39,1.23.58.91,3.26,3.53,10.93-4.58.22-1.37,2.94,2,1.76,10.2-8.42,11.15-9.56,7.85-2.64,3.9-1,6.07-1.48,1.67-1.43-1-1.35,1-3.76,1.44-.83-.09-4.31,2.29-.9.9-1.92-.39-.32,2.65,1,1.67Z"/>
<path class="cls-1" d="M497.24,529.61l-.6.11-.35-2.23-.8-1.35-2.52-1-1.14-3-.16-3.43-2,.35-.09,1.08-2.48,1.06,1.27,1,.88,2.54-1.87,3.18-1.54,3.85-2.13,1.14-4.06-1.49-1.47,1.39-.23,1.42-2.09,1.47v1l-4.32,1.21-.74-.74-3.16.69-1.46,1.17-1.26-.07-2.63-2-.93-1-3.06,1.39-.91,2.33-.59,4.2-1.4,1.19-1.3.79-.39-.12-1.7-.91-.46-1.3.47-2-.26-1.79-2.91-2.17-.76-1.77-.09-1.08-1.79-.94-.41-2.55-1.15-1.5-1.49.59.21-1.72.86-2.09-.76-1.72,1.22-1.67-1.05-.83.72-3,1.43-3.71,3.71-.56-3.3-17.53-.3-1.87,4.7-1.22-1.79-8.85,16-4.63L480,475.7l15.22-5.85,2.53,3.81-.6,1.14,1.89,4.31,2.94,4.68,1.79.48,2.6.74-1.27,3.34-2.7,1.9-.88,1.85.38,3.09-.09,7.17.86,1.61.26,4-.66,5-2,3.11-1.06,4,0,2L497.47,524l-.34,5.06Z"/>
<path class="cls-1" d="M497.24,529.61l.7,3.43-.39,1.56-2.25.86-1,3,2.7-.55,2.56,1.43,1.06,1.51,2.14.36,3.37,3.94-2.45,3.9-2.27,3.52L499,555.47l-3.09,1-3.4,2.11-2.94-.15-1.66,1.73-4.29-1.8-1.31-1.58L480,558.37l-2.09.27-1.1,1.06h-2.07l-3.16-2.91-.9-1.2-3.55-.89-1.46-2.35-2.1-1.44-3.28-1.56-.23-1.42-2.66-1.19-3.24-1,1.3-.79,1.4-1.19.59-4.2.91-2.33,3.06-1.39.93,1,2.63,2,1.26.07,1.46-1.17,3.16-.69.74.74,4.32-1.21v-1l2.09-1.47.23-1.42,1.47-1.39,4.06,1.49,2.13-1.14,1.54-3.85,1.87-3.18-.88-2.54-1.27-1,2.48-1.06.09-1.08,2-.35.16,3.43,1.14,3,2.52,1,.8,1.35.35,2.23Z"/>
<path class="cls-1" d="M271.24,531.92l-1.48-3.7-2-1.9,2-.55,2.43-2.79,1.26-2.12,1.63-1.21,2.12.68,2.21-.68,2.42.26,2,1.56,2.79,1.51,2.39,3.55,2.68,3.34,0,2.77.71,2.61,1.59,1.4.28,1.74-.29,1.35-.66.19-2.42-.58-.37.46h-1l-3.14-1.41-2.15-.28L276,536.88l-1.23.34-1.46-.34-2.42.39-.41-3.48,4,.65,1.12-.47.8.07,1.73-.81L280,534.4l1.92.31,2-.76-.79-1.38-1.52.57L280.2,533l-1.65-1.3-1.4-.11-1.09.91Z"/>
<path class="cls-1" d="M292.93,564.49l-1.22-.43L288.49,562l-2.26-2.57-.71-1.68-.36-3.29,2.55-1.67.6-1.16.83-.87,1.26,0,1.1-.72,3.62.34,1.18,1.67.89,1.92-.21,1.26.68,1.2-.13,1.6,1.27-.15-2.23,1.86-2.18,2.19-.3,1.24Z"/>
<path class="cls-1" d="M14.84,381.33l-.89.62-1.22-2.23-.51-1.77-.32-2.43-1-2.38,0-2,.48-.52,1.42.22.7.24.23-.71.65.62.37,1.47-.12,1.67.19,1.83-.3.72,1.27,1.12.25,1.07v1Z"/>
<path class="cls-1" d="M558.34,503.39l-1,3.68-1.77,5.15-3.34,1.71-14.44,1-1.93-.89-2-1.47-2.1-1.78.48-2,.86-3,1.51.22,1.26,1.48,2.29,1,2-.92,3.43-2.94,4.14-2.66,3-3.14,1.84-1.3,1.14-1.54,2.14-1.33v.09l.53,1.84,1.3,4.5Z"/>
<path class="cls-1" d="M558.61,492.24l1.87-1.57,1.31-2.54,1.42-.83.48,1.18.47,2.79.74,2.34-.32,2.07.34,5.44-.47,6-.92,7-1.81,8.35-2.31,6.76-3.54,8.44-3.45,5.55-5.49,7.22-3.4,5.07-3.88,7.31-.67,2.74-.84,1.44-3.06-2.68-2.56-16.19,2.8-6.56.89-1.88,2.67-1.22,3.09-4.76,5.34-2.61,8.27-18.94,1.77-5.15,1-3.68-.66-2.33-1.3-4.5-.53-1.84v-.09l1.2-.75Z"/>
<path class="cls-1" d="M409,385.72l2.13.55.74,1.74,2.14.8.68-1.24.91.34-.49.93.78.61-.47,1.2.73,1.53,2.05,1.48-.8,1.7-.14,1.54.49.43-.35.76-1.45.47-1,.54-.19-.3.24-.62.07-1.16-.44.14-.83-.66-.57-.07-.6-.59-.66-.12-.61-.51-.5.39-.06,1.57-.68.5.16-.44-1.44-.62-1.16-.23-.61-.5-1-.56.69-.37-.06-2.18-1.92-1.34.29-2.12-1.11.27.77-1.93-1.28-1-1.16-1.53,2-1.7,1.92-.26,2.09,1.31Z"/>
<path class="cls-1" d="M95.31,506.78l4.36,3.63.63-.57,3.22,1.47,3.89,3.56-3,2.76-.43,3.27.93,3.53L103.76,526l-.81,1.89-1.43,1.36L99.45,527l-2-.57-1.5-1.3-.69,1.1.46,1.28-.56.73-2.07-1.58-1.5-5.35.1-2.87-1.24-.74-.89-4.33,1.31-1.92.07-1.2,2.64.22Z"/>
<path class="cls-1" d="M398.32,369.29l.23.23,1-.87,1.85,1.2,1.41-1.36,1.46.1,1.84-1.15,3.17.93-.43,1.35,0,1.91-.48.61-3.45-.51-.86.51-.39,1.2-1.21.88-.39-.2-1.23,1-1.12.4v.94l-2.32,1.1-1.2-.24-1.76-.81-.65-1.47.1-.61.18-1.06,1.3-.2.87-.67,0-.43.5-.33-.06-1,.6-.34.24-.89Z"/>
<path class="cls-1" d="M386.44,385.47l2.58-.1,1.33-1.29,2.62-.62.41-.86.52-.05.91,1.37-2.16,1.66.08,1.85-1,.66.26,1.24-1.23.14-1.19-.53-.42.85L387,390l.61-.52-1.09-1.76Z"/>
<path class="cls-1" d="M383.71,297.75l-.66,3.44,1.23,2.48-1.87,4.24-2.68,4.63.24,6.38,2.4,2.67,2.79,1.87-.62,5.34-2.1,1.55,1,7.47-.36,4.37-3.1.18-.64,3.73-2.89.72-1.62-4-3-4.64-3-5.92.55-2.67,1.3-3.29-.33-5.23-1.83-2-1.31-5.73.45-4.27,2-.28L370,307l-1.06-1.33,1.39-6.59.47-5.09.24-3.26,1.62-.37-.32-2.44,3.31-.14-.76-2.8.92-.45,2.9,1.39,3.67,2L385,294.2l1.26,1.41Z"/>
<path class="cls-1" d="M495.7,687.85l-1.15,2-2.71,1-2.44-1.64.12-1.4,1.42-1.8.56-1.28,1.35-.57,2.21.25.46,1.7Z"/>
<path class="cls-1" d="M484.35,417.26l-4.7,7.58-4.42-.08h-.08l.21-.86-.72-1.75-.09-2.72,1.17-2.42-1.21-1.45-1.57.43-1.61-3.17.09-2.12.48-1.33.48-1.33-.82-2.47,1.39.36,3-2.81h2l2.57-1.27,2.83-3.39,1.69-.79,3.15-2.5-.29,3.47-1.19,1.93,1.74,2.95,1.15,5.76Z"/>
<path class="cls-1" d="M410.38,534.92l.24-2.14-2.84.31-.26-2.84-2-1.38,1.32-6.09,5.08-5-.43-5.8.54-9.27.67-2.06-1.93-1.24-.25-1.4-1.7-.9-1.9-6.76,3.81-3.12,17.6,5.41,17.88,4.73,3.3,17.53-3.71.56-1.43,3.71-.72,3,1.05.83-1.22,1.67.76,1.72-.86,2.09-.21,1.72,1.49-.59,1.15,1.5.41,2.55,1.79.94.09,1.08L445.44,537l-2,2.26-2.6,5.46-4,2.87-4.35.55-1.22.63.61,1.46-2.19,2-1.75,2-5.54,2.62-1.22-.81-.76,0-.74,1.25-3.73.9.61-1.29-1.68-2.8-.79-1.72-2-.46-2.88-2.18.81-2.2,2.09.15,1.24-.5,2.51-.33-2.8-3.62-.11-2.94-.57-2.87Z"/>
<path class="cls-1" d="M354.51,569.15l-3.73,1-1.05-1.5-1.26-2.73-.39-2.16,1-3.94-1.17-1.57-.47-3.43,0-3.18-1.92-2.23.32-1.37,4,0-.55,2.32,1.41,1.26,1.6,1.5.2,2.14.94.88-.06,10Z"/>
<path class="cls-1" d="M701.05,376.19l-1.36-1.24-3.48-.38-2-1-.23-2.24-2.6-5.08-2.76-.85-3.27-.16-3.64-1.37-.19-2.47-3.44-6,.51-3.15-1.09-4.08-.39-3.28,1.51-.73,2.3,2,.69-2.75,3.75,5,3.32,3.3-1.38-6.9.88-.66.28-2.59-.28-.67-.89-1.64.07-.29,13.2,35.81Z"/>
<path class="cls-1" d="M551.09,322.37l.39,2-2.65,2.19,1.77,2.29,1.83-3.06,3.44-2.08,2.89-5.57,3.73,2.51.23-1.25,1.88-.88,1.32,1.44,2.28,1.56-1.87,2.86-1.53,1.64.36,3.3-.52,1.57,0,1.7-1.88-.11-2.66-3.27-.75.64-.83-1.38-1.82.62.33,2.38,1.14,1.73.18.94-1.28,1.49.84,2.52-1.33.17-.48,3.06-1,.33L553,336.58l-2.89-2.16-2.29,1-.92-2.25,1.84-1.92-.92-3.18L546.25,325l1.7-4.2,1.23,2.15,1.23.61Z"/>
<path class="cls-1" d="M544.39,363.78l-2.64-3.08-1.94,1.6-5.35-.85-2.3,1.36-4.19.44-2.05,1.17-.61,1.68-1.8,1.31-.33,3.78-1.83,2.61L519,371.34l-2.38-4.48-2.93.22-1.15-3.24-1.87,1.08L509,361.15l3-.89,1.32-3-3.46-.89-2.29-1.67-1.29,2.57,1.73,3.09-2.53-2,.2-2.16,2.21-3,2.43-.25,3.91,1.64,1.11-1.24,2.66-2.39-1.85-1.6,1-3.1.18-4,4.63-.89,2.68,2.77,1.49-.07,2.27-2.58,1.31-.08,4.29,2.74,4.69-.08,2.91.21,3.84-.7,4.25-1.69,1.89,2.35-.76.64-1.88.18.77,1.72-1.29,2.81,2,3.53-.4,2.55-1.42,2.51.83,2.26L548,362.82Z"/>
<path class="cls-1" d="M85.44,474.27l2.24.86.69.68L87.06,479l-3.15-1.59-.5-.86,1.47-.5Z"/>
<path class="cls-1" d="M381.67,460l-2.44-7.87-2.51-1.57-.14-1.08-3.31-2.38-.63-3.35,2-2.72.5-3.79-1-4.22.5-2.38,3.68-2.23,2.55.24.17,2.28,2.81-2,.37.83-1.5,2.43.23,2.08,1.39,1v3.94l-2.15,2.55,1,2.36,1.92-.16,1.19,2,1.5.51.22,3.47-1.68,1.52-1,1.58L383,455l.61,1.81-.13,1.93Z"/>
<path class="cls-1" d="M463.7,386.05l5-.4,3.1-2.35,2.68-.92,2.28-4,2.91-1.87,3.8.48,1.27,1.18.81,2.17,2.67-.2,1.78.54L488.68,383l3.43,4.24.1,1.62,3.36,2.41-1.06,1.53-1.59-.47-3.75,1.41-1,1.36-3.15,2.5-1.69.79-2.83,3.39L478,403.11h-2l-3,2.81-1.39-.36.82,2.47-.48,1.33-.48,1.33-2-1.43.56-2.15-1.81,1.23-3.09.16-1.27,3.42L459,414.39l-3.51-1.3-3.61,1.18-.15,2.09-2.14,1.34-4-1.2L442,417.8l-3.33-3.72-3.17-1.66.55-3.91-2.72-1.44,2.25-5.33,4.84-1.83.16-3.76,6.13-1.62,2.6-4.24,3-2.65,4.89-2.22Zm-28.82,14.6L433,403.87l-1.65-1.72-.24-.92.6-.73.1-3-1.9-.67,2.73-2.4,2.87-.32.94,1.54,3.21.45-.2,1.26-3.66,1.52ZM-53.5,36"/>
<path class="cls-1" d="M504,575.6l.81.25,17.09,3.7.57,2.46,6.79,2.21-1.56,6.15.46,2.41,3,.63.22,1.1-1,3.09.34,1.25-.16,2.2,1.71,2.23,2.06,3.71,1.68.4-3.45,3.75-4.85,3.31-2.7.79-1.57,1.81-3.14,1.08L519,619l-5.49.4-3.42,1.34-1.45-5.52L507,613.69l-1-.94-4.51.45-2.65-.59-2.95.06-1.86-.24-2-.6L489.38,607l-2.8-1.73L485.51,603l.32-2.36-1.1-3.77,1.88-.69,1.54-2,1.6-2.74,1-1.21-.16-1.4-1.06-.72-.41-1.64,1.26-.91,0-2.64-2-2,1.53-1,4.95-1.35Z"/>
<path class="cls-1" d="M494.87,578.67,489.93,580l-1.53,1-2.58,2.08-1.14-.15-.28-3.29.88-1.95-.12-3.57.72-2.29,1.45-2.76,1.58-1.65,1.24-2-1.86-.08-.39-5.21,1.66-1.73,2.94.15,3.4-2.11,3.09-1,2.39-2.89,2.53,2.39.84,2,2.65,4.43-1.17,3.74-1.8,3.61L503.38,571l.59,4.64Z"/>
<path class="cls-1" d="M428.83,347l1-.22.18-1.22.85-.11,2.35-1.53,2.73,1.63-.2,1.12.84,1.19,2.09-.71,1.8,1.38.36.84,3.93-.08,1.57-1.6,2.57,1.14,1.43-.8,4.39-.62.71,1.18.19,2.68,1.81,2,.35,1.58-2.33,1.62-.73,1.84.88,1.88-1.94,1.39-1.1,2.21-2.42,1.42-1.61,2.65,1.38,2.54,1.83.4,2.71-1.57.18,1.75L451.9,373l-2.76,4.15-2-.18-.24-2.26-3.65.06.15-1,2.08-2.55-1.24-.62-4.82.74-.86-1.51-2.38,1.56-.1,2.76-1,4-1.6-.25-1.11,1.19-1.6-.33.56-.73,0-1.66.27-1.65-.5-.69.47-.56.51.49,1.73-.5.63-.6-.7-.23-.05-.71-1.42-.72-1.11-1.64-1.29-.32-.37-1.52-1.7-.69-1.2.25-2.55-.61-1.69,1.06-.43.86-1.18.39-.35,1.24-1.94,1.08-.75,1-1.67-.65-1.83.53-1.92,0-.95,1.28-.56-1.11-1.95-.74,0-1.91.43-1.35.69.08-1.33-1.75,1.35-4.33,1.18-.91-.12-1.3-2.62-3.36,1.21-.55,1-1.61,2-.74,2.76-.54,3.29,0,2.07-.65L422,353l.66-1.1,1.09.73,2.23-1.1h1.2l-.77-2.18.37-1.24Z"/>
<path class="cls-1" d="M87,673.7l2.56.5,5,5.07,1.51.41,5,4.41,3.87,3.6,3.18,3.85-1.27,1.53L108.6,696l-1,2.25-3.88,1-3.28-1.88-2-.24-4.33-3.23-2.69-.8-3.21-3.43-.54-2.89.59-.72-1.27-4.65L86.85,677Z"/>
<path class="cls-1" d="M141.53,239.18l-2.42,1.65-.63,1.21.06,2-.17,3.14-.8,3.35,1.1,1.88-.28,3.94.29.85,1.93,1.67-.79,3.4-.78,3.59-.64,3-.56,2.92-1,1-.16.9-.48.11.16.8.64.22-.92.8-.43,1,.31.73-.34.74-.87.18-.69,4.13-3.38,3.26-3.2,3.16-2.72,1-2.78.39-1.67.46-.44.26-.41.76-.17,1.44.34.7,3.67,1.55,2.07,2.31,3.82,1.92.41-.27,1-1.21.52-1,1.27.68,1.48,2.54,1.41,2.36,2-.45.49.06,4.35.3,1.4.51,2.5,3.67,3.14,4.39,1.06-.6.74.58,1.3.46,2.24-.73,3.3-1.94,4-.85-.35,1.62,1.78.89-.22,2-4.72,4.72-.69,3.44-.77,1.54-3.7-.69L150,320.45,147,319l-3,.81-1.09.38L141,322l-1.19,2.67.72,1.1,1-1.55-.17,1.51-1.12.82-1.86-1.07-.86-1.25-2-1.22-1-.91-1.25-1.29-2.54-1.11,3.37,3.07-.09,1.41-3.66-2.49-1.18-1.63.49-.35-1.53.17.37.92-2.91,1.95-4,.78.76-1.1-.22-.77.29-1.74-1.52,2.43-.17,1.29L119.46,325l-1.94.51-3.81,1.29,0-.39,2.93-1.56.4-2.73,2.72-3.2-1.87,1L116,322.71l-.63-2.36.1,3-3.23,3.47.3,1-1,1.52-3.13,4-3.74.9-3-1.88-3.25.21-1.16-1.23-2.2-.17-1.41.79-4.26-1H86.73l-2.89.69-2.71,2.11-2,3.11-2.21,4.23-1.45,4.07-1.39,1.66-2.73,5.94-2.18,2.51-1.3,1.38-2.42,1.59-1-.47-.66-2.07,1-2.22-.05-2.13,1.7-5L68,342l1-2,2.6-1.82L73,335.24l1.46-5.59-.15-1.82L71,326.16l-.13-.77.85-3.28-.12-3-2.2-3.34-.91-3.39-1.34-2.36L66,309.18l-.73,1.54-1.51,1.35-.42,1.43-.75-.2V311.5l-1.22-.65-.87-2.66,1-4.45-1.55-2.68,0-3.38-1-2-1.82-2.28-3.82-.89-2.67-2.28-2.38-.48-2,.62-2.68,2.28-1.79,1.83-1.1,1.9L40.22,295l.16-3.51.5-4.09,1.6-2.66,2.59-3.15,1.83-4.13L49,274.24l2.47-4.06,1.24-3.93-.49-3.11L48.69,263l.92-4.17,1.1-2.93L53,253.37l2.15-2.77,1.77-3.54,1.3-2.86,1.51-2.37V235l-1.82,1,.08-3.16.41-8,4.15-10.84L65.68,207l.83,0L67,202l.62-4.46,2.53-1.66,3.31-3.66,1-2.08,1.46-.93.85-2.32,1.68-1.87L80,181.22,81.09,180l2.74-1.3,6-5.16,7.77-4.86,1-.13,2.22-2,5.16-3.67,4.08-1.22,3.44-2.33,3.57.15,4.12-.71,4.14-1.54,3.84.78,4.11-.05h4.11l6.62-1,4.52-1.16,2.64-.94.74.32-3.74,4.3-5.24,1.9.91.64,4.12-.77,4.37-1.21-3.67,8.18-3.23,8.6-.94,2.85-2.48,8.85L140.27,197,139,205.66l-.67,8.59-.08,9.61.63,9.53.71,5.68,1.75-.8ZM251.45,102.06l1.63-2.38,2.18-.08,1.77,1-1.45,2.14-1,1.12-2,.77-2.07-.14Zm42-6.15L294.9,95l2.19.11,2.16.44-2.52,1.22-2.38.3ZM315.33,105l-1.77-.39-1.46.62-2.37-.5-2.7.06.06-.4,1.66-1.09,2.23.35,1.19.43,2.2-.58.7.2Zm-20.47,33.67-2.31-.86-.19.91-2.78,1.09-.55-.72-2.85.74-1.26,1.13-4.14,1-3.13,1.54-1.55.41-1.33,1.71-3.17.82-2,.82h0L255.86,139l-21.6-11.22-2,1.6-3,1.2-3.09.51-4.36.6.48,2.63-.45,2.31-3.11.28-2.92.75-3.53,1.24-4.19.45-6.77,1-5.71,3.19-2.88-.42-1.22-1.64,2.64-1,3-1.71,4.35.2,5.82-1.88h5l2-1.82,3.07-3.06,3.44-1.81,8.22-2.08,2.65-1.32,4.92-2.27,2.58-2.41,5.88-2.11,4.07-.82,1.75-2.08-2.79-1.29,1.06-1,2-2.16,1-2.05,2.07-2.07,2.16,1.25,1.92,3-1.51,2.17,1.41.25,1.25-3.05-.35-2.57,1.53-3.69-3.3-.27.39-3.09,1.74-2.51,2-2.1L261,96.81l3.21-3.37L264,91.78l2.54-2.62,2.33-.62,2.31-1.87,2.52-2.11,2-1.87,5.2-2.62.85.33L279,82.87l-2.57,1.92-2.24,2.72-3.63,1.73L270,90.94l-2.7,3.29-.15.82L265.9,96.9l1.46,2.26.13,2.21,2.38-2.18,1.32.11.62-1.62,3,.71-.08-1.31,2.2,1,1.93-2.18,1.76-.61L282.19,97l.27,1.26,2.53.47L288.23,97l3.24.74,2.33.21,1,1.77,2.81.79-.06,2.09-1.14,2.34,0,1.88-1.87.81h-2l-1,2.12-1.92.31-1.15,1.57,1.41,1.25,1.67.12-.87,1.77,1.36-.51,2-1.48.27-.92,2.26.14,3.11-1.31,3.86-.12,1.61,1.08,3.77,1.27-2.55,2.12-4.06,2.87-1.75.5-.62-1.71-4.48,1.54,3,1.42,3.28.46,2.35,1.23,2.66.9,3.25.38-.3,2-3.36,1-1.56,2.19.47,1.75-.9,2.13-1.45.92-2.24,2.56-1.66.35-1.21,2.67Z"/>
<path class="cls-1" d="M551.6,344.27l-1.89-2.35-4.25,1.69-3.84.7-2.91-.21-4.69.08-4.29-2.74-1.31.08-2.27,2.58-1.49.07L522,341.38l-4.63.89-.18,4-1,3.1,1.85,1.6-2.66,2.39-10.83-14.05,3.82-7.34.67-.06,5.53-.57,2.92-.35,4.88,1.23,2-3.12,3.18-4.14,4.8-.16,3.21,3.76,1-1.13,3.14,2.45,2.62-3,2.14,1,.71-.95-1.61-3.62v-5.72l.37-2.07.87-.41.79,4.35,2.66-.57.39-2.68,4-1.28.28,5.83-1.74,1.63-.68,1.15-1.23-.61L548,320.77l-1.7,4.2,1.57,3.08.92,3.18-1.84,1.92.92,2.25,2.29-1,2.89,2.16,2.11,5.16-2.29,1.14Z"/>
<path class="cls-1" d="M55.15,443.32l-.56,1-2.06-1.22.12,3-1.06,2.32-2.5,1.31-.29,4.73,1.5,1,2.06-2.62L52,450.3l1.3-3.56,4.72,1.82.48-2.51,1.73-.39L60,449.83l2.22,2.08,1.07,4.34-.48,1.6,3,2.54,3.76,2.47,1.16,3.57,2.4,2.6,2.45.08.46-1.1,4.39,3,4.22,3-3.46-.83.44,3,2.72,2.36,2,4.1-.62,4,1.93,1.18,1.09,2-3.74.72-.84,1.44.74,2.52-1.17.24-2.49-.79-.56,2.15-1.37.58,1.51,5.13.13,1.61-1.85.85-4.64-1.05-2.86-1.1-1.37.36-2.6-3.19-2.52-2.51-.8-.07,1.28,2.36-1,3-.28,3.28,3,2.57L67.26,509l-3-.5-.93,1.67-1.72-.3-3-.84-1.07.92-2.93-1.75-1.37-3.95.16-5.49-.49-2.35-1-2,2.47-.93.19-1.13L54,490.17l.24-3.64,1.33-3.1,1.28-.93,1.44-2-1-1.77-2.14-1.06-2.37-2.27-1.54-.65-1-6-1.71-2.27-4.38-3.34-.16-2.31-.65-1.12.26-1.06,1-1.34.48-2.08-.29-1.67.46-2.48-1.49-1.87,2-1.82,1.77-2.86,1.63-.8,1.77-.13,1.78-1.49Z"/>
<path class="cls-1" d="M677.7,326.37l-.37.41-1.25-2.57-.46-2.36-.76-1.6-3.13-1.15-.6,5.39-3.8-1.21-3.43-.2L663.2,320l.38-3.41-.11-4.59-1.94-5.44,1.64-.9.89-3.44,2.36,2.56.48-.22Z"/>
<path class="cls-1" d="M563.24,462.39l-2.12,2.8,0,2.39.47,1.56-2.94,4.05-5.17,5.49-2.31,5-1.58,1.15-1.22.35-1.64,3-2.17,2.13-3.16,1.88-.9.74-.5,1.59-.92.83-.28,1.43-2,.84-1.08,1.2L533,499.9l-1.74-2.11-.57-2.48-1-1L528,491.39l-1.65-1.3.71-.58-1-1.83.21-1.07-.76-1.85,1.25-2.21-1-1.67.32-2.65,1.92.39.9-.9,4.31-2.29.83.09,3.76-1.44,1.35-1,1.43,1,1.48-1.67,1-6.07,2.64-3.9,9.56-7.85,5.63,5.49Z"/>
<path class="cls-1" d="M491.81,698.66l-1,.77-2.22,2.43L487,704.18l-3,3.36-5.75,5-3.56,2.92L471,717.85l-4.93,2.28-2.31.56-.76,1.16-2.62-.15-2.34,1.07-4.73,0-2.79.85-1.83.06-4.87,2.12-3.93,1.09-3,1.77-2.06.33-1.71-1.12-1.51.11-1.72-1.46-.28.55-.47-.95.31-2.22-1.17-2.37,1.55-.86.22-2.91-2.62-3.23-2-3h0l-2.89-4.64,2.39-2.16,1.75.85.64,1.56,2.06,0,2.85.38,2.51-.59,4.32-2.52,1.21-14.52,1.22.42,2.48,3.37-.63,2.47.92,1.24,3.36-.88,2.48-2.11,2.3-1.53,1.3-2.08,2.35-1.28,1.92.17,2.12.76,3.75-.44,3-1.45.58-1.34,1-2.08,2.55-.78,1.52-1.78,1.76-3,4.39-3.86,6.76-4.37,1.87-.36,2.18.22,1.59-.84,2.41-.13,1.71,5.34.91,2.67L494.85,683l.22,1.39-2.21-.25-1.35.57-.56,1.28-1.42,1.8-.12,1.4,2.44,1.64,2.71-1,1.15-2,3.43-.72-1.52,3.24-1,3.51L495.19,696Zm-11.31,1-1.82-.86-2.23,1.21-2.67,2L471,705l3,2.45,1.68-.68,1-1.42,2.61-1.08,1-1.45,1.67-2.21Z"/>
<path class="cls-1" d="M501.57,613.19l2.24,1.33,1.29,3.34-.74,1.39-.83,3.74.95,3.32L503,628.2l-1.37,4.35,2.42.47-14,7,.41,2.91-3.52,1.4-2.67,2.28-.59,1.58-1.67.7-4.13,4.31-2.66,3.23-1.58.42-1.5-.17-5.22.57-.83-.15,0-.34-1.83-.58-3,.33-3.88,1.63-3-2-3.13-2.83.29-13.24,9.82-1.75-.41-1.37.69-1.71-.85-1.81.5-2.14-.52-1.21,1.62-.21.29,1.26,2.2-.54,3-.22,1.6,1.59,3.76-.2,2.84-2,1.08,2,3.58-.21,1.73,1.42,1.93,1.89,3.55-.8-.43-4.49-1.26,1.08-3.27-.89-1.27-.47.49-4.4.68-5.25L481.7,618l1.22-3,1.22-.81,6.17-2.27,1.83,0,2,.6,1.86.24,2.95-.06Z"/>
<path class="cls-2" d="M638.79,434.2l-2.88-2.77,1-1.66,1.26,1.16,1.35,2.16Zm1.87,2.48L638.13,439l0-1.07,1.61-2,.21-2.93.35-.45Z"/>
<path class="cls-1" d="M493.51,670.24l-2.41.13-1.59.84-2.18-.22-1.87.36-2.82-1.25-3.54.1-1.21-2.34.07-1.45-2,0-5.06-3.49-1.38-2.1-.92-.56-1.7-3,5.22-.57,1.5.17,1.58-.42,2.66-3.23,4.13-4.31,1.67-.7.59-1.58,2.67-2.28,3.52-1.4.28,1.51,3.86-1,2.12.37,1,.8,2.19-.24,2.36.76-.15,5.36-1,3.15-.34,3.2.67,1.07-.66,2.6-.72.55-1.4,3.31Z"/>
</g>
<g id="Poco"><path id="Zimbambue" onmouseover="displayName('ZIMBAMBUE: 101 hombres por cada 100 mujeres');displaySecondLanguage('')" class="cls-3" d="M468.63,660.22l.92.56,1.38,2.1,5.06,3.49,2,0-.07,1.45,1.21,2.34,3.54-.1,2.82,1.25-6.76,4.37-4.39,3.86-1.76,3L471,684.36l-2.55.78-1,2.08-.58,1.34-3,1.45-3.75.44-2.12-.76-1.92-.17-2.35,1.28-1.3,2.08-2.3,1.53-2.48,2.11-3.36.88-.92-1.24.63-2.47-2.48-3.37-1.22-.42.7-11.65,4.65-.82.72-14.47,3.52-.7,7.31-2.66,1.75,1.38,3.05-2.15,1.43-.27,2.67-1.43.83.15Z"/>
<path id="Chipre" class="cls-3" d="M465.56,417l.23.31L463,420.45l-1.85.08-1.4-1.45,1.53-.78.71,0,.77-.73.66-.21.34.17.23.41.11-.23.53-.11.51-.59Z"/>
<path id="West_Bank" data-name="West Bank" class="cls-3" d="M475.14,426.37l1,2.66,0,1.49-1.41,1.26-.26-1.21.67-1-1-.13-.34-3.19Z"/>
<rect class="cls-4" x="446.46" y="391.4" data-name="West Bank" onmouseover="displayName('CISJORDANIA: 104 hombres por cada 100 mujeres');displaySecondLanguage('CHIPRE: 104 hombres por cada 100 mujeres')" width="45.75" height="44.75"/>
<path id="Nigeria" class="cls-3" onmouseover="displayName('NIGERIA: 104 hombres por cada 100 mujeres')" d="M385.52,573.36l-4.77,1.94-1.78-.1-1.76,1.09-3.74.15-2.58-2.56-1.62-3-3.36-2.69-3.48.21-4.09.15.13-7-.17-2.77.81-2.78,1.38-1.39,2.14-2.8-.51-1.16.85-1.8-1.09-2.56.14-1.47.2-3.94,1.23-1.83.55-2.56,1.13-1,4.77-.79,4.54,1.35,1.75,1.54,2.28-.1,2.06-1.25L386,538l2.27-.33,2.5-2.14,2.61-.15,1.23-.76,2.41,0,3.54.87,3.25-2.91,1.05,0,3.43,4.41.82-.21,1.92,1.5-.41.86-.1,1.5-3.47,3.92-1,3-.46,2.36-.88,1.1-.69,3.18-2.3,2.1-.56,2.29-.91,1.88-.31,1.86-3.06,1.82-2.68-1.52-1.74.25-2.61,2.81-1.33.16-2,4.38Z"/>
<path id="Afganistn" class="cls-3" onmouseover="displayName('AFGANISTN: 103 hombres por cada 100 mujeres');displaySecondLanguage('')" d="M544.39,363.78l3.61-1,1.45-2.35-.83-2.26L550,355.7l.4-2.55-2-3.53,1.29-2.81-.77-1.72,1.88-.18.76-.64,1.23-1.38,2.29-1.14,1-.33.48-3.06,1.33-.17-.84-2.52,1.28-1.49-.18-.94-1.14-1.73-.33-2.38,1.82-.62.83,1.38.75-.64,2.66,3.27,1.88.11,0-1.7.52-1.57-.36-3.3,1.53-1.64,1.87-2.86,1.33.5-.65,2-.29,2.07-1.76,3.59-1.37,3.7.29,3.17,1.88.9L569.5,339l.35,2.92,1.33,1.31.58,2.1-2.14,2.49,2.95,1.42L572,352l.92,3.46,2,2.15,0,2.16-1.14.65L572.25,363l.57,1.39-1.8,2,.28,3.71,2.34,3.46-2.15,5.11-2.05,1.47.07,1.41-1.92,1-2.27,3.16-5.9,2.11.06-5.92-1.95-2.39-2.46,1.18-1.92-2.36-3-2.41-.39-3.21-1.53.45-1.31-3.54Z"/>
<rect class="cls-4" x="1.7" y="339.59" onmouseover="displayName('BELICE: 103 hombres por cada 100 mujeres');displaySecondLanguage('')" width="46.74" height="44.75"/>
<path id="Belice" class="cls-3" d="M24.86,357.54l.43-.63.37.26v1.16l2.54-1.15.41.65-.44.61.36.72-.86,1.06L26,361.4l-.29,1-1.28,1.1-.16.63-1.73,1.68-1.18.38-.46-.54-1.42.72-.6-1.12,3.51-4.43Z"/>
<path id="Butan" onmouseover="displayName('BUTN: 109 hombres por cada 100 mujeres');displaySecondLanguage('')"  class="cls-5" d="M628.58,300.59l1.67-.42,2.23,2.38-.87,3.14-1.31,2.88-.25,2.86-2.62,2-.76-.63-1.84-5-.25-2.83,1.75-1.8.72-1.85Z"/>
<rect class="cls-4" x="51.43" y="392.3" onmouseover="displayName('R. DOMINICANA: 103 hombres por cada 100 mujeres');displaySecondLanguage('')" width="46.74" height="44.75"/>
<path id="Repblica_Dominicana"  data-name="Repblica Dominicana" class="cls-3" d="M71.69,407.56l.77-.36,2.19,2.29,1.07,2.8.82.65-.31,2,1.64,1.47-.79,1.19L78.31,419l.63,3-2,.71L76,420.43l-1.45-1.12-.86-1.15-.95.27-1.26-.84.12-1.48-1.29-.34-2.76,1.78-.37-1.44.53-1.39.7-1.11,0-2h1.1l1.14-1.42Z"/>
<path id="Argelia" onmouseover="displayName('ARGELIA: 103 hombres por cada 100 mujeres');displaySecondLanguage('')"  class="cls-3" d="M394.9,489.33l-13.46,10.11-11.72,9.74-6,2.34-4.75.66-.14-2.83-2-.64-2.7-1.18-1.06-2.05-14.34-9.53-13.82-10-14.72-11.67.13-.86,0-.3.32-5.31,6.54-2.89,3.94-.48,3.25-1.07,1.57-2.19,4.58-1.64.24-3.32,2.23-.35,1.75-1.64,5-.72.7-1.75-1-1L338.19,446l-.21-2.74-1.37-2.89,3.54-2.44,3.94-.81,2.27-1.89,3.45-1.45,6.08-1,5.93-.7,1.86.55,3.24-2,3.81-.36,1.55.91,2.42-.52-.5,2.38,1,4.22-.5,3.79-2,2.72.63,3.35,3.31,2.38.14,1.08,2.51,1.57,2.44,7.87,1.65,3.82.42,2.06-.33,3.73.49,2-.27,2.51.62,2.77-1.42,2,2.69,3,.33,1.9,1.69,2.33,1.83-1,3.44,1.68Z"/>
<path id="Irn" onmouseover="displayName('IRN: 103 hombres por cada 100 mujeres');displaySecondLanguage('')"  class="cls-3" d="M521.34,373.8l1.83-2.61.33-3.78,1.8-1.31.61-1.68,2.05-1.17,4.19-.44,2.3-1.36,5.35.85,1.94-1.6,2.64,3.08,2.5,5.87,1.31,3.54,1.53-.45.39,3.21,3,2.41,1.92,2.36,2.46-1.18,1.95,2.39-.06,5.92,2.73.92,2.67,1.46,3.77-.63,2.36,3.54,1.74-.57,1.41,1.68-2.75,5.86,1.75,5.8-6.26,3.46L563,411l-3.72,2.16-4.11-4.15-1.85.37L551.42,412l-2,4.34-4.55,1.33-4.83-1-3.65.85-4.13-2.62-5.17-4.11-1.34,1.77-2.7-.13-.36,2.39-2.85-1.14-1.14-2.24-1,.62-1-3.38-3.21-2.22-5,0-4.14-2.75-.94-3.7.79-2.36-1.5-2.31-2.62-.08-4.52-3.85-3.36-2.41-.1-1.62L488.68,383l1.32-2.33,1.3,1.29,2.49,1,2.26-.65,1-.76,1.57-5.14.86-1,1.52.66.23,2.65,3,1,.58-.67,2.65,2.43,3.16-1,3.16.7,4.37-2.13,3.58-4.26Z"/>
</g><g id="Normal"><path id="Libia" onmouseover="displayName('LIBIA: 107 hombres por cada 100 mujeres');displaySecondLanguage('')"  class="cls-6" d="M406.94,490.35l-2.7,2.11-2.61-2.1-6.72-1-2.1-2.56-3.44-1.68-1.83,1-1.69-2.33-.33-1.9-2.69-3,1.42-2-.62-2.77.27-2.51-.49-2,.33-3.73-.42-2.06L381.67,460l1.77-1.25.13-1.93L383,455l2.42-2,1-1.58,1.68-1.52-.22-3.47,4.58.93,1.51-.62,3.22.26,5.26,1.17,2.4,3.66,3.52.25,5.64.83,4.43,1.38L420,452.7l1.39-2.45L419.84,447l.71-2.42,2.19-2.7,2.37-1.21,5.12-.33,1.71,1.66,1.36-.34,1.34.44,3.74-.48,1.26,1.21-.78,2.5,1,1.73-.28,3,2,3.26,3.7,15.76,3.53,16.33,1.79,8.85-4.7,1.22.3,1.87-17.88-4.73-17.6-5.41Z"/>
<path id="Pakistn" onmouseover="displayName('PAKISTN: 10 hombres por cada 100 mujeres');displaySecondLanguage('')"  class="cls-6" d="M569.53,322.06l3-.47,3.23,1.84L580,320l1.27,5.8-1.52,3.8-3.71,3.5.5,3,3.62,2.19,2.94,1.48,3.24-.55.18,4.67,2.34,2.63L590,353.2l1.76,5.76.77,7.17-3,3.07.33,7.34,2.9-.08,2.45,2.77,2.82.41,2.89,2.9-5.67,6.4v4.65l-2.64,1L590,392.5l-4.08-1-4.56,5.78-4.53,4.37-3.72,4.22-1.75-5.8,2.75-5.86-1.41-1.68-1.74.57-2.36-3.54-3.77.63-2.67-1.46-2.73-.92,5.9-2.11,2.27-3.16,1.92-1-.07-1.41,2.05-1.47,2.15-5.11-2.34-3.46-.28-3.71,1.8-2-.57-1.39,1.41-2.58,1.14-.65,0-2.16-2-2.15L572,352l.61-2.7-2.95-1.42,2.14-2.49-.58-2.1L569.85,342,569.5,339l-1.87-1.51-1.88-.9-.29-3.17,1.37-3.7,1.76-3.59.29-2.07Z"/>
<path id="Kosovo" class="cls-6" onmouseover="displayName('KOSOVO: 106 hombres por cada 100 mujeres');displaySecondLanguage('')"  d="M412.59,400.61l.09.94-.42.06-.62-1.55-.88-.26-1-1,.35-1.13.68-.5.06-1.57.5-.39.61.51.66.12.6.59.57.07.83.66.44-.14-.07,1.16-.24.62.19.3-.67.35Z"/>
<path id="Islandia" class="cls-1" d="M315.43,299l-1,2.71,1.53,3.28-3.2,2.88-6.4,1.88-1.92.42L302,308.95l-5-2.73,2.52-1.36-3.38-3.19,3.58.1.34-1.26-3.47-2.06,2.22-2.36,2.9.13,1.86,3.58,3.46-1.65,2,1.7,3.55-1.68Z"/>
<path id="India" class="cls-6" onmouseover="displayName('INDIA: 108 hombres por cada 100 mujeres');displaySecondLanguage('')"  d="M580,320l6,.87,2.71,3.18,2.49.59L593,326.6l-1.74,1.73,4.31,3.11,4-.78,4.87-1.91.44,3.7,2.46,4.7,3.06-1.75,3.36-1.3,4.2-2.3,2.76-4.21,2.71-.13,1.58-2.36,2.69-3.41,1.18-3-1.25-1.84-2.48-1.8-1.45-1.8.07-2.92,3,2.47.76.63,2.62-2,.25-2.86,1.31-2.88.87-3.14-2.23-2.38-1.67.42.43-3.42-1.91-5.88-1.4-6.38,1.7-2.36-1.11-4,2.85.18,1.42,2.64,1.42-3.68,1.57.92.47,2,2.51,1.68-1.29,2.19,1.54,7.32,2.23,1.83,2.63,5,1.78,1.91,2.57,4.68-1.75,2.22,3.72,3.91.94,2.14,1.66,1.16.2,2.82-6.35-3.84-.35,1.07,2.06,3-2.58.17-1.62-3.27.38-1.92-2.51-4.81-1.34,1.58-1.14,3.55L635.54,316l-2.63-2.18-.84,1.58-2.67,1.33,1.91,3.74,2.93-.7.39,3.66.93,2.16,1.87-1.26,1.83,2.88,3.12,1.55,3,2.56,1,1.94-1.15,2.5-1.4,5.38,2.55,2.75.94,4.32-.61,8,1.32,8.87.27,5.32-.3,6.29,1.29,1.95-.44,2.81-1.11,4.69-1,1.85,1.3,4.32,3.88,4.93,2.23,3.46,1.27,5.68,4,7.64-1.25,2,.51,5,1.56.46-1.87,4.41.52,4.26-.53,2.68-4.65-1.13-4.31-4.84-3.3-3.28-2-1L640.54,420,637,415.32,635,413.14l-5.78-3.08-5.9-7-4-4.51-3.14-5.11-3-3.31L610.94,397l-2.19,1.61-6.64-1.22.35-2.91-1.81-.77-5.36-.14v-4.65l5.67-6.4-2.89-2.9-2.82-.41-2.45-2.77-2.9.08-.33-7.34,3-3.07-.77-7.17L590,353.2l-1.13-6.68-2.34-2.63-.18-4.67-3.24.55-2.94-1.48-3.62-2.19-.5-3,3.71-3.5,1.52-3.8Z"/>
<path id="Egipto" class="cls-6" onmouseover="displayName('EGIPTO: 105 hombres por cada 100 mujeres');displaySecondLanguage('')"  d="M477.46,439.87l-.4,2.16.33,3.61-.24,2.67-.6,1.1-1.66-.95-2.26-1.33L468,441.8l-.24.53,3,4.07,3.62,3.57,4.91,5.78,2.11,1.86,2,2,4.86,3.54-.51,1.06,1,2.81,5.61,2.17.94.63L480,475.7l-15.19,5.1-16,4.63-3.53-16.33-3.7-15.76-2-3.26.28-3-1-1.73.78-2.5,4.81-1.49,3.8.1,4,.16,1.87.14,2.35-2.32,1.09-1.76,3-1.46,2.69-.36,1.66,1.82.36-1.74,3.17,0,2.82-.82,1.34-1.78Z"/>
<path id="China" class="cls-6" onmouseover="displayName('CHINA: 106 hombres por cada 100 mujeres');displaySecondLanguage('')" d="M511.46,139.3l-2-4.85.72-3.59,3.31-1.62L510.08,125l-3.76-2.09-5.27-4.17,5.16.65,2.54.78,5.62.22,5.94,1.4,2.16,3.68,3.59,2.44,3.24-1.07L535,127l1.34,1.62,2.29-.08-1.18,2.14L540.9,132l5.41,5.1,2.1-.44,1.68,2.9-.47,1.52,4.7,2.54,4.68,4,4.55,3.21,3.88,5.17,3.46,3,3,4.15-3-2.34-1.51.42-4.47-3.34-1.62,1.47,3,3.32,5,4.62,3.93,2.87,1.54,3.6,2.86,2.41,2.53-1.11-.31-2.84,2.08.41.27-2.63-5.06-5,.43-2.92-1-2.4,2.2-.1,3.66,5.67,3.28,2.42,3.82,4.4,4,3,.94-3.14,25.67,28.25L644.78,231l16.37,27.52-.48.22-2.36-2.56-.89,3.44-1.64.9,1.94,5.44.11,4.59-.38,3.41.69,3.12.28,2.71,4.55,3.34-.45,2.19-1-.45-1.62-1.32.62,4.14-1,1.18-2,1.78-3-4.13-1.24,1.95-3.75-2.2-.23,4.86-4.48-4.55-2.56-6.59L639,277.09l-3.09-2.34-1.25,1-2.6-.56-.11,2.51-1.42,3.68-1.42-2.64-2.85-.18,1.11,4-1.7,2.36,1.4,6.38,1.91,5.88-.43,3.42-1.53.69-.72,1.85-1.75,1.8.25,2.83,1.84,5-3-2.47-.07,2.92-2,3.78-2.52,3.13-2.82,1.22-1.93,1.94-2.24-.59L610.64,324l-4,1-2.43,1.51.12,2.21-4.87,1.91-4,.78-4.31-3.11L593,326.6l-1.73-1.92-2.49-.59L586,320.91l-6-.87-4.3,3.39-3.23-1.84-3,.47-1.33-.5L565.92,320l-1.32-1.44-1.88.88-.23,1.25-3.73-2.51-.32-1.55-1.08-.43-.08-4.17.42-2.52,2.19-2.44-1.8-3.13,1.47-3.91-1-2.25.06-6.07-.7-1.09-2.35-1.52-.17-2.68-8.07-2.74.68-6.48-.36-2-6.75-6.86,3.23-4.41-1.47-2.67-4.3-2.67.23-2.42-2.38-3.62-.1-1.22,3.26,1,2.9-1,2.53-3,4-.06,5,3.86h2.13l1.43-3.06,1.29-3.65,3.31-2.2.73-1.63,4.31.68,2.87-.48.22-3.53,1.41-6.11-.54-4.58.68-2.9,2.68-3.67-.22-4,1.34-.9-2.85-4.86-2.29-6-1-5.06-2.41-4.41-3.05-3.1-2.14-2.73-1.45.12-1.59.56-3.49-2.44,0-1.69.06-3.07-3.5-3.7-3.47-5.14-4-2.77-2.2-2.35-2.48-4.51-.53-2.35-1.84-.48L535,164.4l-.5,2.24,2.71,2.47.4,2.85,1.23,1.77-1.68.5-5.56-2.66-4.16-1.76.39-3.25-4.8-4.16-2.08-.07-6.23-2.58-2.27-1.48-2.59,0-.39,1.43L506,157.67l-2.58-3.1-2.08-3.3-1-3.84.24-2.36,3.55-2,1.3-1.16,2.17-1.18Z"/>
</g><g id="Muchos"><rect id="MALDIVES" onmouseover="displayName('MALDIVAS: 123 hombres por cada 100 mujeres');displaySecondLanguage('')" class="cls-7" x="605.08" y="417.26" width="46.74" height="44.75"/>
<path id="Kuwait" class="cls-2" onmouseover="displayName('KUWAIT: 141 hombres por cada 100 mujeres');displaySecondLanguage('')" d="M520.68,415.7l1.57,1.47.18,1.15,2.57,2.57-2.24,1.5L521,420.84l-3.09,1.3.45-5.5Z"/>
<path id="Emiratos_rabes_Unidos" onmouseover="displayName('EMIRATOS: 218 hombres por cada 100 mujeres');displaySecondLanguage('')" data-name="Emiratos rabes Unidos" class="cls-2" d="M544,432.75l.49-.59.67,1.1,2.26-2.38,2.75-1.72,2-1.23.78-4.44,1-4.43.6-4.07,1.35,1,2.17,3-1.59,1.21,1.15,3,.86.18-1,1.89.85,1.75-.07,2.45.75,1.79-.22,1.37-10.93,4.58-3.26-3.53Z"/>
<path id="Omn" onmouseover="displayName('OMN: 119 hombres por cada 100 mujeres');displaySecondLanguage('')" class="cls-2" d="M574,429.33l.25,3.87-1.57.89-.18,1.54.5,2.58,1.74,2.6-.07.76-1.53,1.11-1.36,3.13.6,2.36-.38,1.47-2.13,1.44-.88,2,.75,1.76-1.18,2.35-2.09.86-1.76,3-1.53,1.3-2.35-2.34-5.63-5.49,8.42-11.15-1.76-10.2-2.94-2-.75-1.79.07-2.45-.85-1.75,1-1.89-.86-.18-1.15-3L558,419l2.9,1.84,2.54.21,2.57-1.22,2.24-.67,2.67,1.32,1.57.74,1.39-.36.49,1,.18,3.46.11,1.6Zm-18.17-14.41V416l-1.35-1,.13-2.11.57.08Z"/>
<path id="Qatar" class="cls-2" onmouseover="displayName('QATAR: 340 hombres por cada 100 mujeres');displaySecondLanguage('BAHRIN: 154 hombres por cada 100 mujeres')" d="M540.43,432.21l-1.66-3-.17-2.81.67-1,1.62.69,1.25,2.47.47,3-.78.9Z"/>
</g><g id="Letras"><text class="cls-8" transform="translate(98.74 51.36)">HAZ CLIC EN CADA PAS PARA OBTENER MS INFORMACIN</text><text class="cls-9" transform="translate(617.46 635.17)">Ms de<tspan x="18.29" y="19.2" xml:space="preserve"> 54%</tspan></text><text class="cls-9" transform="translate(621.48 545.29)">Desde <tspan x="6.67" y="19.2">50,5%</tspan></text><text class="cls-10" transform="translate(8.74 684.36)"><tspan xml:space="preserve">Fuente: CIA World Factbook  </tspan></text><text class="cls-10" transform="translate(569 685.36)">LA VANGUARDIA</text><text class="cls-11" transform="translate(22.06 24.36)">En qu pases hay ms hombres que mujeres</text><rect class="cls-12" x="677.29" y="530.2" width="9" height="127.1" transform="translate(1363.58 1187.5) rotate(180)"/>
</g>
 	<text class="label" x="150" y="80" id="country-name"> </text>
 	 <text class="label2" id="SecondLanguage" x="150" y="105"> </text>


<script type="text/javascript"><![CDATA[  
    function colourCountry(country_name, colour) {
        var country = document.getElementById(country-name);
        country.setAttributeNS(null, 'fill', colour);
    }
  
    function displayName(name) {
        document.getElementById('country-name').firstChild.data = name;
    }

    function displaySecondLanguage(language2) {
        document.getElementById('SecondLanguage').firstChild.data = language2;
    }
]]></script></svg>