<svg xmlns="http://www.w3.org/2000/svg" xmlns:xlink="http://www.w3.org/1999/xlink" viewBox="0 0 690.85 690.85"><defs>
	<style>
		@import url('https://fonts.googleapis.com/css?family=Open+Sans');
		.label {
        	font-family: OpenSans-Semibold, Open Sans;
        	font-size: 17px;
        	fill: #323232;


     	}
     	    .label2 {
        	font-family: OpenSans-Semibold, Open Sans;
        	font-size: 17px;
        	fill: #323232;


     	}.cls-1{fill:#ddd;}.cls-1,.cls-2,.cls-3,.cls-4,.cls-9{stroke:#fff;}.cls-2{fill:#e38191;}.cls-3{fill:#ad466c;}.cls-4{fill:#ffc6c4;}.cls-5{font-size:16px;}.cls-5,.cls-6,.cls-7{fill:#757575;font-family:OpenSans, Open Sans;}.cls-6{font-size:15px;}.cls-7{font-size:18px;}.cls-8{font-size:29px;fill:#323232;font-family:OpenSans-Bold, Open Sans;font-weight:700;}.cls-9{fill:url(#Degradado_sin_nombre_37);}
		.cls-2:hover{
			opacity:0.5;
		}
		.cls-4:hover{
			opacity:0.5;
		}
		.cls-3:hover{
			opacity:0.5;
		}
     </style><linearGradient id="Degradado_sin_nombre_37" x1="2763.95" y1="-613.08" x2="2763.95" y2="-740.18" gradientTransform="translate(-2088.92 1259.55)" gradientUnits="userSpaceOnUse"><stop offset="0" stop-color="#ffc6c4"/>
<stop offset="1" stop-color="#ad466c"/>
</linearGradient></defs><title>mapas</title><g id="colores_copia" data-name="colores copia"><path class="cls-1" d="M549.31,352l3.76-.29,1.73-2-.59-2.28,1.73-2.13.69-2.34L555,339.3l1.64-2.43-.58-1.76,1.93.17.85-.47,1.42-1.08,2.47-.66,1.1-.13.86-2.78,1.38.09-.56-2.51,1.49-1.16-.07-.91-1-1.83,0-2.29,1.94-.24.68,1.45.84-.46,2.32,3.55,1.91.46.18-1.6.73-1.36,0-3.15,1.77-1.23,2.28-2.3,1.3.73-.93,1.76-.56,1.87-2.26,3-1.87,3.19-.1,3,1.81,1.21,1.73,1.77V336l1.2,1.48.34,2.08-2.49,1.92,2.84,1.89-.94,2.42.52,3.43,1.75,2.4-.3,2-1.24.39-1.73,2.16.42,1.41-2.06,1.54-.14,3.56,2,3.71-2.75,4.43-2.24,1-.09,1.35-2.06.63-2.64,2.59-6.19,1,.69-5.61-1.72-2.61-2.62.69-1.69-2.57-2.81-2.8,0-3.11-1.6.17L551.2,358Z"/>
<path class="cls-1" d="M414,584.19l1.17,3.11,1.34,2.47,1.07,1.3,1.78,2.1,3-.58,1.52-.72,2.55.39.68-1.13,1.13-2.59,2.85-.42.24-.77,2.34-.23-.38,1.58,5.56-.58.11,2.69.94,1.56-.66,2.65.34,2.59,1.53,1.43-.26,5.09,1.14-.5,2-.1,2.84-.93,2.08,0,.48,1.27-.54,2.12.78,1.91-.7,1.66.37,1.42-9.52.9-.49,13.41,3,3.15,2.88,2.33-8.43,2.45-11,.28-3.11-1.76-18.59,1.27-.7.32-2.71-1.74h-3l-2.77.81-2.23.87-.4-2.58.68-3.66,1.63-3.86.26-1.79,1.53-3.82,1.11-1.76,2.67-2.86,1.49-1.94.5-3.14-.24-2.38-1.38-1.44-1.23-2.5-1.14-2.48.25-.89,1.42-1.75-1.42-4-1-2.8-2.33-2.59.43-.85,1.9-.66h1.34l1.62-.6Zm-18,.22-1.17.51-1.26-3.16,1.85-1.93,1.39-.79,1.74,1.38-1.67,1-.75,1.14Z"/>
<path class="cls-1" d="M412.84,371.83l-.15,1.56.8,1.82,1.57.86.14,1.17-1,.8,0,1.46-1.21,2.37-.63-.23-.23-1-2.11-1.22-.63-2.06-.2-3,.23-1.43-.67-.62-.45-1.37,1-2.36.35.8.81-.51.9,1.08.86.33Z"/>
<path class="cls-1" d="M542.08,417.89l.55-.49.57,1.16,2.48-1.94,2.92-1.21,2.14-.85,1.19-4.14,1.39-4.1,1-3.8,1.26,1.18,1.89,3.27-1.71.89.88,3,.85.32-1.2,1.65.69,1.83-.3,2.34.58,1.84-.35,1.28-11.36,2.63-3-3.92Z"/>
<path class="cls-1" d="M62,602.91l2.81,4.62.79-3.64,4.33,1.83.78,1.33,8.4,10.82,3.26,1.82,5.39,5.24,4.35,3.19,1,2.36L91,636.89l4.17,2.48,4.49,2,2.87.07,2.68-2.74-.27-4.1,1.75-.38,2.54,3.34.75,3.82-2.68,1.77-2.14,1.26L102,647.94l-3.26,5.32.21,3.69.56,4.8,1.64,4.9-.43.9.82,3.1.67,2.5,6.18,5.23.78,3.22,3.09,2.59.76,2.31-.86,5.46-4.08,1.55-2.5-.13-25.42-28L57.78,635l-4.9-7.68.22-.9,1.71-2.44-1.58-2.51.35-1.46-2-9L55,609.84l.26-5-.67-1.51,2.31-3.57Z"/>
<path class="cls-1" d="M486.38,355.67l3.82-2.37,1.12.86,1.46.25-.11,1.32,2.25.78-.22,1.72,1.8.61,1.67.11,1.42,2.93-1,.6-2.35-1.94-.28-.66-1.33.58-1.4-.77-.58.38-1.74-.75-2.71-.15-.62-2.19Z"/>
<path class="cls-1" d="M493.18,359.68l1.4.77,1.33-.58.28.66,2.35,1.94-2.34.32-2.41-1.33-1.19-1.41Zm4.09-9.34,1.42-.3,0-1.3.85-2.5,2.62,1.49,3,2.28,1.44-.46,1.47.7-2.2,1.5,1.13,3.52.22,1.72-.61,1.5,1.09,2.07-.65.56-2.92-1.37,0-2.57-1.47-.84-1,.82-2.08,4.71L498.17,359l-1.67-.11-1.8-.61.22-1.72-2.25-.78.11-1.32-1.46-.25-1.12-.86.4-1,2.75.28,1.7-.44.16-.67-2.52-1.65.47-.91.88-.22Z"/>
<path class="cls-1" d="M473.28,571.69l-.48-5.23-1.21-1.82,2.74-.08,1.26-2.72,2.39-.1.34,1.69,1,.84.1,1.42-1.07,1.1-1.66,2.57-1.58,1.84Z"/>
<path class="cls-1" d="M351.19,533.58l-3.73.45-1.08-3,.32-10.07-.89-.92-.14-2.16-1.52-1.58-1.33-1.33.6-2.3,1.53-.46.93-1.91,2.16-.37,1-1.3,1.49-1.27h1.58l3.34,2.57-.18,1.46,1,2.62-.88,1.77.46,1.19-2.17,2.71L352.27,521l-.86,2.76.09,2.79Z"/>
<path class="cls-1" d="M326.78,517.94l-3-1.3-2.08,0-1.59,1-2-1.06-.71-1.51L315.5,514l-.17-2.58,1.29-1.79,0-1.5,3.65-3.43.78-3,1.24-1,2.08.72,1.86-.8.64-1.1,3.45-1.81.88-1.34,4.11-1.66,2.4-.54,1.06.89,2.78.07-.39,2.13.54,2,2.4,3,.1,2.14,5,1.11-.14,3-1,1.3-2.16.37-.93,1.91-1.53.46-3.87-.21-2-.42-1.44.66-1.94-.4-7.67-.15-.19,2.5Z"/>
<path class="cls-2" d="M72.65,343.19,72,342.7l1.15-3.24.06-2.33,2.4-2.1.52,1-1.73,4.58Zm7.93-12.93-2.76-2.45,1-1.76,1.21,1,1.27,2Zm1.77,2.28-2.55,2.53V334l1.65-2.17.29-2.94.36-.49Z"/>
<path class="cls-1" d="M31,333.61l.44-.71.36.2,0,1.16,2.52-1.57.39.58-.44.69.34.66-.86,1.2-1.62,1.46-.3,1-1.27,1.32-.16.66-1.72,2-1.16.59-.44-.46-1.4,1-.58-1,3.51-5.05Z"/>
<path class="cls-1" d="M69.91,605.71l-4.33-1.83-.79,3.64L62,602.91l-5.06-3.2-2.31,3.57L52.08,603l-2.6-8-2.78-6.88.54-4.7-2.16-3.14-.86-4.12-2.1-4.52L44,566.88l-1.81-5.29L43,560.2l-.73-2.32,1.34-2,0-4.52.15-3.66.78-1.39-3-10.26L44.14,538l1.87.89.86-1.16,3.26-.43,2-.95L57,538l-.53,3.68.4,2.22-.36,3.33,4,6.61,4.22,2.82,1.51,2.6,2.58,2.17,1.61,2.18,2.41,1,2.27,2.46.26,3,.81,1.79.14,2.2-1.12-.38,1.81,6.5,7.47,3.12L84.11,586l.57,2.13,2.25,2.2,1.2,3.43-.31,3.67L87,599.2l.7,3-1.09.6-.25-1.56-3.92-3.87-3.6-1.4-6.53-1.05L71,598.71l.27,2.73L70.69,607Z"/>
<path class="cls-1" d="M644,311.29l1.81.08,1.95,2.75-1.39,2.59L644.54,319l-.7,2.52-3,1.08-.69-.77-1.16-5,.17-2.63,2.09-1.17,1-1.48Z"/>
<path class="cls-1" d="M456.07,634l.87.65,1.3,2.27,4.83,4,1.89.24-.09,1.47,1.13,2.5,3.41.25,2.69,1.55-6.55,3.78-4.25,3.51-1.71,2.89-1.47,1.67-2.44.56-1,2-.56,1.32-2.92,1.21-3.59.12-2-1-1.83-.34-2.24,1.12-1.24,2-2.2,1.38-2.36,2-3.21.64-.88-1.34.59-2.48-2.38-3.65-1.17-.52.67-11.87,4.46-.47.79-14.7,3.39-.42,7.07-2.09,1.67,1.56,3-1.92,1.38-.15,2.59-1.2.8.23Z"/>
<path class="cls-1" d="M407.67,526.77l3.68-.61.77-1.2.74,0,1.16.9,5.52-2.18,1.79-1.9,2.22-1.77-.53-1.51,1.22-.53,4.28-.18,4-2.51,2.8-5.21,2.06-2.07,2.69-1.11.66,1.83,2.75,2.43.17,1.81-.56,1.94.39,1.34,1.62,1.07,3.5,1.47,2.55,1.45.16,1.43,3.15,1.87,2,1.64,1.33,2.49,3.44,1.24.82,1.29-1.42.7-2.84.33-3.37,0-1.62.61-.59,1.17-1.43.33L449,532.7l-4.81,2.85-2.06-.19-.59.41-1.18,2.82-3.39-.47-3.3-.06-2.94-1.31-3.77-1.11-2.33,1.65-1.64,2.39-.27,3.09-2.91,0-3.09-.47-2.61,2.53-2.24,4.24-.52-1.23-.27-2-2.12-1.25-1.75-2.14-.44-1.54-2.21-2.14.32-1.33-.51-1.81.22-3.42,1-.87Z"/>
<path class="cls-1" d="M175.41,286.88l.9,1.92,1.87,1.71-2.34.54-.94-.49L174,286.5l.72-1.71,1.78-.36Zm12.34-5.6-.94-.85-1.17-3.56.13-3.42.89.37,1.35,3.36.33,3.39Zm16,4.32-4.16,2.09,2.38-.13.63,1.92-1.83.7.91,2.51,1.71-.14,1.09,2.8-2.92,2.26,2,.51-1.34,2.23-1.2,2.89-3.56,2.69-1.12-.62-.88-1.85,3-2.76-.21-1-5.16,1.31-1.16-1.18,3-.55-1.25-2.59-2.41-1.67-3.8-3.63.68-1.37,2.39-.16.06-1.78,3.64-.7,7.3-4,3.08-1,2.79.19.74.92-1.26.67Zm12-179.68h0L214,108.1l-2-.66,4.88-2.14ZM220.89,211l-2.7.49.14-.95,1.26-1.1.35-.07h1.64l.13.74Zm1.19-5.63-3.2-.9-.2-1.28,1.22-.91,2.54.39L223,205Zm13.1-10.73-2.12,1,.92.55-1.09,1.37-1.27,2.35-1,2.41-2.25,1.07.72,1-1.22,1.82-2-.81.43-3,1.95-1.78-3-.65-3-1.47,2.76-1.62-.86-2.13,2.68.64,3.93-1.1,4.63-.94Zm11.19,10.93-.84-1.46,2.2-1.32,2.89-.53,1.13.95-.89,1.6-2,.91-.71.13Zm5.52-30.67-1.72-.62,1.79-2.11-.39-1.08,2.65-2.14,1.37,1.06,2.07.73L256,172.33l-1,.92-1,.54Zm1.77,6.67-5.21,1.11,4.07,1-3.13,2.43-3.78.53L242.35,189l3.82.5,4.47-.2,5.52-1.44-.09,2-.35,2.15-2,2.55-2.42.91-2.87-.13-2.38,1.9-2.42.67-4.13-1.67-1.19-1.84,1.22-2-2.57.33-4.42-.2-2.24.22-3.61-.86-.57-2.31-2.22-.73-3.26.84-.75-1.88-4.14-1.07-5.69-.44-4,.38-5.82,1.63-.75,3.26-4.59,2.51-3.67,2.33,1.25,2.6-1.58,4.75-1.47,2.89-2,2.52-.71,3.27-1.41,3.22.74,3.63.29,2.52-4.08,1.82L178,226.76l-4.43,4.56-2.84,5.93,2.17.78,5-1.73,6.47-5.44,1.74-2.86,3.47,2,4.13.38,3.59-.78,2.89-1.92,3.23-3.47,2.47-4.13,5.67-.41,3.83-2.94,7-4.17,1.53.63-.07,3.45.33,1.91,1.84.7-.77,2.34-1.5,3.47-1.43,1.51,1.38,3.09L220,231.95l-5,4.11.36,2L213.78,241l4,.76,5.64-1.75,2.68-.35-2.64,3.9-3.32,6-3,5.61-3,1.39-.11,4-.69,3.38,1.67,3.46,0,2.13-2.26,3.6.92,1.72-.56,2L209.44,281l-2.61.17-2.52.07-4.25-1.54-5.13.72-3.6-2.49-2.93-4.71-2.45-2.88L184,268.61l-4,.78-3.68-1.07L169,269.78l-5.31.65,2,1.28,7.52-1.09,6.5,1.41,2.85,2.6-.26,3.43-4.06.51-3.3,4.45-2.07,3.37.71,4.42,3.71,2.72L183,291.3l-2.28,2.81.11,2.57-4.66.08-6.41-2.17-3.31-.53-4.63.34-1.2-1.88,2.88-3.18,6.14.59-3.09-3.18-2.44-1.9.89-3.4,5-4.79.33-1.93-1.73-.82.45-1.6-4.07,1-3.42,2-2.28.8-1.27-.41-.7-.54-1.09.63-2.89-4.18-2.28-3.5-1.37-.44-4.34-.1-.48,0-2,.54-1.28-2.25-1.34-2.42-1.23-.6-.58,1.06-1.1,1.24-.43.29-3.72-1.67-1.94-2.15-3.59-1.3-.3-.67.25-1.42.46-.77.46-.28,1.7-.55L133,256l2.79-1.14,3.41-3.26,3.6-3.36,1-4.06.89-.22.38-.74-.26-.69.5-1,1-.82-.63-.19-.11-.77.49-.13.22-.88,1.07-1,.76-2.87.85-3,1-3.53,1-3.34-1.83-1.54-.23-.82.56-3.84-1-1.78,1.06-3.29.41-3,.09-2,.73-1.2,2.58-1.7-.09-.87-1.84.85-.28-5.47.11-9.18.87-9.27,1.42-8.29,2-8.36,2.65-8.27,3.41-8.56,1.25-2.76,4.21-8.32,4.67-7.91.25-.37,8.35-5.51,3.46-1.93.2-.17,10.69-5.71h.06l2.61.52,4.64-2.92,4.12,0,5.88-2.32,2.4.3,1.05,1.55,2.94.39,6.34-3,7.16-.88,4.41-.37,3.83-1.12,3.14-.66,3.27-.2.8-2.17-.13-2.48,4.62-.47,3.28-.41,3.26-1,2.37-1.45,20.78,11.26,13.05,8.25-3.75,1.26-4.19.58-1.93.92.31,1.77-.5,1.9L282,126.28l-.18,2.44-1,2.23-2.6.1.1,1.22,1.77,1-1.26.61-5.89.69,1.58,2.5-3.58-.8-.57,1.72,1,.81-1.48,1.43-3.45,1.51-3.9,2.76-2,1.73-.5,1.37-3.56,1.6L255.11,147l-2.52,2.52-1.37,4,.32,1.28-3.69,1.53,1.92,1.63,2.74-1.47,1.36,1-.43,1.73.1,1.13-1.6,1.17L248.71,163l-.05,1.62-3,2.8.35,2.24-.49,2.19,3.22-.56.71,1.17-2,2.48-4.85.76,4,.28-.22,1.2,5.11-.22,3.27-2,2.24-1.84,5.68-.55,3.57,1-1,1.7L263,176.88l-5.82,2.71-2.5-.72Zm26.14-29.74-2-.92.06,2.68-3.32,1.25,1.92,1.54-2.12.88-5.36.62,1.84.72,5.51-.47.32,1-1.25,1.05-2.52,1.18-5.22.64-3.73.37-3.18,2.21-3,2.5h-2.23l.14-2.23-2.2,1-1.76-.36,1.51-2.61,2.15-2.44.27-1.62L255,156.2l.86-3.6.81-2.53,2.74-.53,2.4-1.69.18-1.26,4.87-1,0,.93-.39,2.08-1.27,1.77,0,1.76,2.51-2.31,1.24-2.72,1.26-1.73,2.2-.3.06,3.12,1.14-1.84,2.7-1.77,2.85,1.73,1.35,1.17,1,3.44Zm-3.44,10.69-3-1.09,4.21-1.57.56.41-.35,1.46Zm-1.63,31.26-1.31.56-.24-1.19-.25-1.2-1-1,.22-.41,2.35-2,1.81-.46.45.41.1,2.54Zm-2.13-11.17-3.08,1.58,4.22.1,2.52,2.21-4.78,3.27-3.3.8,2,1.79,2.27.41-1.64,3.29-1.7,2.4-2,1,2,1.65-2.43,2.49-.37,3.61-1.26,1.92-3.53,3.32-3.41-1.1L257,215.82l.35,2.51-2.65,4.21,1.22,2.13-3.22,1.57-6.6,1,.61-2.82,2.72-4.63-1.64-1.4-2.63,1.28-1.61,3-.71,3.11-.73,1.3-3.49,3.67-3.36,1.54-.18-2.6,1-5.84-2.38,4.4-1.5,3.23-1.29,1.23-1.06-5.23.57-4.83,1.15-3.09,1.55-.17,1.16-3.51,1.19-3.33-1.33.69L231.55,209l1.14-2,3.85-.52,1.18,2.78,1.92,2.74,1.43-1.29,2.54-.62,5.34-.39,1.87-1.35,1.35-1.25,1.4-3,.59-3.31,1.52.34,2.5-2.52-.09-1.21,1.35-1.58-1.64-.17-1.25-2.11.16-5,1.12-3.12.59-2.27,1.73-1.44,2.4.83-.06-1.77,5.18-1.33,4.6.09,2.14.77,1.57,2.52Zm4.62-15.56-1.38,1.33.29,1.91-1.54.38-2.3-.89-2.5,1.91-4.61.21L263.5,170l.65-1.24,2.14-1,4.71-3.09h1.63l-1.25,2.36,3.67-1.32Zm-6.72,8.4-3.76-.78.32-1.39,4.62-1.17,2.56-.2,2.12.39,1.29.94-.35,2.23L276,177.68l-4.55-1Zm5.8-32.29.24-3.59,2.51,0,4.68-1.75,1.44,1.09,2.57,1.8,2.14,1.83,3.57,0-2.09,3.34L289.3,147l-2.11,2.41-2,.66-2.75.69-.34-1.56-1.47-3.35-2.24-2.15Zm5.63,30.59-2-.37.56-1.52,1.53-1.31,2.24.41,1.2,1.31-1.91,1Zm9.68-5.06-2.53.72-2.65.09-3.75-.33-.17-1.65,1.09-1.08,3,0,.06-1.58,4,.09-.45,1,1.38,1.39-.59,1.25Zm.28-8.83-1.94.15.48.91-.61.94-2.54,0-2.17-.77.7-3.41-.84-2.8.76-1.53,1.66.16,1,2.36,2-4.37,1.75-1.09,3.77,2.34.79,1.11-3.14,2.09-3.8,1.13-1.2,1.59L294,158l1.4,1.06-1,.81ZM293,172l-1.77,1.07-.12,1.74-1.73.94h-1.93L286.24,177l-1.22.77-.19,1.32-.34,1.47,1.26,1.3.7,1.81-.08,1.59-1.67,1.48-2,.77-1.47-.25-1.4-1.21.38-1.44L279,181.82l-.24-2.1.59-1.77,1.73-2.93,2.86-.64,2.57-.36,2.34-1.11.87-1.92,1.77-1.09,2.06.28Zm9.74-17.42-3.56-1-1.19-1,.33-.83-.79-2.11.41-1.56,2-.79h0l2.18,2.5,1.67,2.51-1,1.14Zm-7.65,18-.1-.37.55-1.57,1.48-.25-.32,1.64-1,.62Zm5.05-13.31-.6-1.73,2.26-.84,1.17.95-.14,1.2-1.35.93Zm4.26,1.16-.48-1.07.7-1.22.68.16,1,1-.44.34Zm-6.31,10.41-.85-1.18,1.33-.65,2-.31h2.14l-.42,1-.43.43-2,.93Zm2.09-3.32-2.22.24.93-1.28,2.06-1.18.81-1.68,1.22.88,1.56-.75,2,.18-1.22,1.31-2.5,1.83Zm5.78,9.3-1.62,1-1.59-.79-3.91-1-.34-1.35.77-1.67,2.2-.92,1.88-.05,1.31.52.13-1.3,1.85-.78,2.42-.4,2.21.48,1.5.45.26.62,1.23-.26.09,1.36-2.83.87-1.16,1.12-1,1.13Zm19.76,6.65.2,1.27-.08,1.14-.77,1.3-1.24.5-2.72-.31-1.62-.83-1.31-.08.62,1.11-3.55-.19-1.81-.45-4.42.27-1.34-1.08-1.16-.12-1.19-1.91-.34,1.11-1-.24-2.27,1.26-1.92-.23-1.75-.81-2.06.13-1.78-.76-1.11.4.56,1.38-1.21.35-3.58-1.55,1-2.64L288.7,180l.53-1.44.23-1.74,2.48-.41,1.19,1.44,3.71-.89.38.44-2.07,2.5,3.2-1.61.93-1.39,2,.37,1.31,1.14,1.81-.05,1.95-1.24,2.65-.59-.1,1.8-.5.6,2,.69.41-1.5-.46-2.16,1.76-1.24,2.12-.62,1.56-.74,1.78-.17.93.76.14.61.84,1,2,.57-.23.63-1.39.71h2.82l.91.5.71.73.53,1.32-.48.35,1.25,1.07,0,1Z"/>
<path class="cls-1" d="M49.49,595l2.6,8,2.52.33.67,1.51-.26,5-3.46,1.11,2,9-.35,1.46,1.58,2.51-1.71,2.44-.22.9L44.47,613l-1-9.76-.86-11.74-1.42-9-1.54-8,1.74-.5.74-2.31,2.1,4.52.86,4.12,2.16,3.14-.54,4.7Z"/>
<path class="cls-1" d="M550.37,140.86l-1-4.6,1.64-2.93,3.12-.52,30.72,22L602.67,170l-1,.37,2.51,3.61,4.31,5.24,3.59,3.49.84,3.47L615.5,189l3-.24.32-2.48,1,.45,24.72,28.58,21.6,31,18.24,33.09,2.29,4.81-1.56,0-2-3-1.63,2.63-1.93.21,1,5.33-.75,4-1,2.83.16,2.94-.2,2.45,4.2,4.43-.87,1.76-.94-.71-1.47-1.69-.09,3.82-1.29.69-2.43.91-2.4-4.57-1.64,1.32-3.56-3.11-1.07,4.22-3.93-5.39-1.56-6.59-2.93-3.49-2.85-3-1.48.48-2.64-1.25-.54,2.19-2.11,2.86-1-2.74-3-1,.49,3.9-2.17,1.64.43,6.1,1.05,5.8-1,3-1.7.22-1,1.48-2.09,1.17-.17,2.63,1.16,5-2.73-3-.51,2.63-2.66,2.92-3.06,2.22-3.09.42-2.27,1.31-2.22-1.08-1.66.92h-4.22l-2.71.83-.18,2.06-5.27.66-4.16-.15-4-3.82,2-1.22-1.52-2.15-2.48-1.08L597,319.7,591,317.63l-4.87,2.27L583,317.54l-3.09-.15-1.3-.73-2.14-1.9-1.17-1.6-2,.46-.39,1.12-3.5-3.05-.13-1.51-1-.6.46-3.9.76-2.27,2.58-1.85-1.43-3.25,2-3.34-.73-2.28.9-5.6-.57-1.14L570,284.09l.21-2.51-8-4.07,1.63-5.84-.08-1.92-6-7.59,4-3.44L560.69,256l-4.06-3.26.61-2.18-1.92-3.76.08-1.14,3.25,1.5,3.17-.36,3.11-2.26,4.16.74,4.56,4.51,2.22.44,2-2.48,1.94-3,3.82-1.28,1-1.31,4.4,1.56,3.09.21.84-3.12,2.55-5.13.25-4.2L597,229l3.51-2.62.52-3.6,1.59-.47-2.1-5-1.27-5.8,0-4.67-1.68-4.44L594.92,199l-1.73-2.9-1.57-.24-1.81.11-3.23-3,.31-1.48.7-2.66-3-4L582,179.54l-3.69-3.34-1.85-2.55-1.68-4.48-.05-2.16-1.87-.84-2.79,1.62-1,1.83,2.37,2.76-.18,2.58.95,1.82-1.9.06-5.39-3.55-4.08-2.44,1.1-2.76-4.24-4.67-2.21-.5-6.11-3.57-2.11-1.77-2.78-.49-.72,1.18-3.25-2.52-2.1-3.24-1.52-3.31-.2-3.55.78-2,4.26-1,1.66-.74,2.6-.57Z"/>
<path class="cls-1" d="M326.05,538.33l-2.06-.06-3.13-1-2.89-.12-5.37.41-3.18,1-4.53,1.26-.87-.19.5-3.58.45-.51-.06-1.74-1.82-2-1.41-.42-1.25-1.32,1.07-1.87-.34-2.17.27-1.26.71.06.36-1.9-.3-.88.46-.57,1.68-.39-.9-3.62-.91-1.91.44-1.47.9-.26.6-.35,1.18.77,3.4.32.88-1.22.76.15,1.3-.4.59,1.94,1.06-.48,1.85-.52,1.94,1.1.71,1.51,2,1.06,1.59-1,2.08,0,3,1.3,1,6.32-2,3.59-1.32,4.89,1.85,3.87Z"/>
<path class="cls-1" d="M398.47,550l-.57-.21-2.68.7-2.78-.45-2.16.38-7.42.18.61-3.46-1.82-2.82-2.08-.68-.95-1.93-1.17-.59,0-1.21,1.12-3.12,2.08-4.28,1.3-.08,2.63-2.66,1.7-.14,2.57,1.69,3-1.62.37-1.84,1-1.82.62-2.26,2.32-1.94.79-3.13.9-1,.54-2.33,1.05-2.89,3.55-3.66.16-1.48.44-.83-1.82-1.64.07-1.42,1.22-.34,1.88,2.7.44,2.91,0,2.94,2.6,3.83-2.47.14-1.23.4-2-.3-.87,2.14,2.73,2.39,2,.61.71,1.78,1.54,2.93-.65,1.24-2.07,4.61-1,.87-.22,3.42.51,1.81-.32,1.33,2.21,2.14.44,1.54,1.75,2.14,2.12,1.25.27,2,.52,1.23-.25,2.38-3.64-.77-3.71-.91Z"/>
<path class="cls-1" d="M477.91,535.3l.14,5.23,1.82.29-1.3,1.82-1.62,1.47-1.54,2.59-.8,2.21,0,3.58-.94,1.85.14,3.32-1.23,1.43,0,2.64-.6.43-.31,2.46,1.21,1.82.48,5.23.93,3.89-.39,2.34,1,2.39,2.66,2,2.52,5.11-1.78-.17-6.06,1.63-1.21.69-1.27,2.94,1,1.76-.81,5.22-.59,4.39,1.22.6,3.14,1.24,1.25-1,.3,4.58-3.46.43-1.82-2.11-1.64-1.61-3.47-.15-1-2.12-2.79,1.7-3.64-.16-1.51-1.76-2.89-.06-2.14.34-.25-1.3-1.58.06-2.08,0-2.84.93-2,.1-1.14.5.26-5.09-1.53-1.43-.34-2.59.66-2.65-.94-1.56-.11-2.69-5.56.58.38-1.58-2.34.23-.24.77-2.85.42-1.13,2.59-.68,1.13-2.55-.39-1.52.72-3,.58-1.78-2.1-1.07-1.3-1.34-2.47L414,584.19l-13.61.77-1.62.6h-1.34l-1.9.66-.66-1.29,1.17-.51.13-1.87.75-1.14,1.67-1,1.22.37,1.56-1.72,2.51-.1.31,1.2,1.73.66,2.68-2.86,2.65-2.28,1.14-1.46-.22-3.54,1.9-4.34,2-2.39,3-2.33.48-1.43.07-1.6.7-1.57L420,554.6l.43-3.91.78-2.8,1.26-2.46.16-2.67.27-3.09,1.64-2.39,2.33-1.65,3.77,1.11,2.94,1.31,3.3.06,3.39.47,1.18-2.82.59-.41,2.06.19L449,532.7l1.82.69,1.43-.33.59-1.17,1.62-.61,3.37,0,2.84-.33,1.42-.7,3,3.23,2,.22,1.12-.94,2.06,0,2.37-1.36,1.2,1.71Z"/>
<path class="cls-1" d="M398.63,580.42,396.89,579l-1.39.79-1.85,1.93-3.83-4.38,3.49-2.52-1.77-2.77,1.57-1.15,3.1-.67.34-1.93,2.49,1.94,4.06,0,1.37-2.12.52-2.91-.57-3.35-2.22-2.43,1.86-5.15-1.16-.79-3.39.55-1.33-2.18.29-1.92,5.75-.17,3.71.91,3.64.77.25-2.38,2.24-4.24,2.61-2.53,3.09.47,2.91,0-.16,2.67-1.26,2.46-.78,2.8L420,554.6l.32,2.45-.7,1.57-.07,1.6-.48,1.43-3,2.33-2,2.39-1.9,4.34.22,3.54-1.14,1.46L408.64,578,406,580.83l-1.73-.66-.31-1.2-2.51.1-1.56,1.72Z"/>
<path class="cls-1" d="M28.56,465.38,27.48,463l-1.15-3-1.09.11-2.48-3-.2-2.93-.6-.41-2.28-5.72,0-2,1.23.62.59-2.77,1.24-1.27,1.59,1,2.21-2.15,2-1.69-.74-2.23,1.49-2.49.84-5.33,1.08-.76,1-4.75L32,420.44l1.26-2.1L34,419.6l1.09-1,.45-3.61.62-.39,1.41,1.6,3.49-1.41,1.39.6.67-1.61,2.19-3.66,2.57-.71L49.77,411l.64-.8,2.11,2.5,3.3-.37,1.59-.06,2.38-1.06.93,1.22.27,1.94-1.23,1.12-2.24-.86-1.72,1.76-1.7.38-1.57,1-1.7,3.18-1.9,2.15,1.43,1.69-.43,2.61.29,1.66-.45,2.2-1,1.53L48.55,434l.63,1,.17,2.35,4.2,2.76,1.65,2.08,1,6,1.47.45,2.28,2,2,.79.93,1.68-1.35,2.24-1.2,1.14L59.12,460l-.18,3.78.59,2.14-.16,1.2-2.32,1.33,1,1.94.51,2.36,0,5.71-.78.2,0-3.41-.6-2.23-1.52,1L49,469.31l-.67,3.22,1.87,1.9-.53,1.88-.57-1L47,474.84l-.78,3.72,1.14,2.9,0,3.3-.48,2.18-3.78,13.23-1.35-3.9-1-.8,3-3.85-2.23-4.18-2.12-.94-1.07-1.75-2.1.09-2.38-2.42-.92-6.94L31.66,473l-.53-3.28-1.61-4.16Z"/>
<path class="cls-1" d="M20,400.49l-.93-2.79L19,396l.67-.53.39-1.24-.17-2.07-.54-2.22-.56-1.73.51-1.69-.22-1.73-.51,1.67-1,.58.08-2.13-.54-1.52.15-1.46.73-1.52L19,379.24l-.32-1.61,1-.23.66-.16.92,3.42.86.08.56,1.42-.08,1.55.56,1.26,1.08-.31-.63,3.51.06,3.21.25,3.59-1.18-.73-.86,2.06.22,1.39-.64.15-.28,1-.64.78Z"/>
<path class="cls-1" d="M60.88,331.67l1.53,2.94L64,337l1,4.29-.21,2.79,2.41,2.23.12,2.07.2,5.19.23,3.79.83.87.9,2.59-.93,1.06,1.71,2.24.83,3.93-.91.74-2-1.26-1.82-1.65-1.5-2.3-3.73-3.65,3.12-.6L64,357l-1.33-2.16v-2.3l1.07-3.24-1.38-1.48-1.28-4L61,342l-2.29-4.62-.13-1.93,1.53,0-1.83-3.23-3,.05-.86-1.23-1,.62-1.3-1.08-.52-1.78,2,.32,1.55-.9,1.57.45,1.61.74,1.8,1.92Z"/>
<path class="cls-1" d="M460.54,392.92l.24-.09.2-1.19,2.49-.6,2.72-2.16-1.76,2.51.49.75-.41-.05-.56.51-.54,0-.12.21-.19-.43-.32-.2-.68.13-.83.62Z"/>
<path class="cls-1" d="M464.91,392.14l.21.32-3,2.73-1.85-.13-1.29-1.56,1.6-.59.71.06.83-.62.68-.13.32.2.19.43.12-.21.54,0,.56-.51Z"/>
<path class="cls-1" d="M76.08,377.29l.75-.45,2.09,2.07,1,2.71.79.56-.34,2.08,1.58,1.3-.78,1.28,1.17,1.29.57,2.92-2,.94-.87-2.2-1.4-1-.82-1.06-.93.38-1.22-.71.14-1.51-1.25-.2-2.7,2.11-.34-1.41.53-1.46.7-1.2v-2.06l1.07-.13L75,380Z"/>
<path class="cls-1" d="M390,456.62l-13.74,9.12-11.95,9-5.94,2-4.69.4,0-2.83-1.94-.75-2.59-1.31-1-2.1-13.67-10.19-13.14-10.57-14-12.17.17-.85,0-.3.54-5.28,6.56-2.64,3.9-.32,3.25-.93,1.65-2.11,4.59-1.43.4-3.28,2.21-.24,1.82-1.54,5-.48.78-1.7-.94-1-1-4.76-.06-2.72-1.2-2.93,3.63-2.24,3.95-.59,2.35-1.75,3.51-1.24,6.09-.67,5.92-.33,1.81.65,3.34-1.79,3.81-.11,1.48,1,2.43-.35-.64,2.3.73,4.22-.73,3.69-2.19,2.55.42,3.34,3.14,2.56.07,1.08,2.39,1.71,2,7.93,1.42,3.88.3,2.06-.53,3.66.37,2-.4,2.46.46,2.79-1.51,1.93,2.5,3.15.23,1.9,1.54,2.42,1.86-.91,3.3,1.9Z"/>
<path class="cls-1" d="M9.47,470.19l2.43-2.71-.19-3L10,466l-1.35-4,.94-1,.58-5.43,1.24.13,1.35-2.88,2-2.44.35-2.39,1.94.35,2.62-.25L22,453.84l.6.41.2,2.93,2.48,3,1.09-.11,1.15,3,1.09,2.34-.41,4.37-1.71,2.67-4.59,2.87-4.24-.91-2.78,3.19-1.21,3.23-2.16.84-.89-3.87-1.17-1.64L8,475.49l.26-2.11,1.12-.57Z"/>
<path class="cls-1" d="M475,415.73l-.56,2.06.06,3.56-.44,2.57-.68,1-1.59-1.12-2.15-1.56-4.16-5.7-.28.49,2.65,4.3,3.34,3.89,4.47,6.2,2,2.06,1.81,2.2,4.58,4-.58,1,.78,2.87,5.42,2.8.89.73L475,451l-15.39,3.34-16.13,2.93L441,440.89l-2.63-15.82-1.75-3.38.48-2.91-.92-1.8,1-2.37,4.89-1,3.77.48,3.92.56,1.85.33,2.51-2,1.21-1.61,3.11-1.1,2.71-.06,1.52,2,.49-1.65,3.16.32,2.88-.48,1.48-1.58Z"/>
<path class="cls-1" d="M314.4,372.83l.64-3.11-1-2.08,5-2.61,3.83,1.23,4.34.4,3.37,1.06,2.72,0,5.24.5,1.18,1.79,5.94,2.29,1.24-.91,3.65,2.11,3.86-.5.13,2.57-3.24,2.89-4.36.81-.36,1.48-2.2,2.38-1.5,3.55,1.23,2.59L342,391.16l-.91,2.85-2.72.75L335.6,398l-4.54-.23-3.39-.34-2.38,1.38-1.53,1.56-1.72-.53-1.17-1.62-.73-2.65-3.22-1-.11-1.5,1.5-1.52.62-1.15-1-1.44,1.31-2.81-1-2.8,1.52-.21.39-2.07.63-.59.47-3.44,1.69-1-.66-2.31-1.91-.36-.64.49-2-.22-.52-2.25-1.43.48Z"/>
</g><g id="Nada"><path class="cls-1" d="M477.48,556.15l1.91,2.19-.13,2.63-1.26.77-2.39.1-1.26,2.72-2.74.08.31-2.46.6-.43,0-2.64,1.23-1.43,1.11.27Z"/>
<path class="cls-1" d="M306.85,438.39,307,436l.59.07,0,.3-.17.85-.72,6.74-12.95-1.82-1.29,11.41-3.82-.12-1.28,2.15,0,6.54-15.92-2.5-1.1,1.33.45-1.85.07,0,9.18,1.14.7-1.53,1.92-1.75,2.15-6,6.18-4,2.59-5.36,1.27-.16,1.72-3.3,3.35-.05,1.35.75,1.78.21,1.38-.87Z"/>
<path class="cls-1" d="M519.47,465.65l-.95-1.76-1.5-1-.72-1.7-2.4-1-3-3.12-2-3.32-3.42-2.27-1.91-.22-3.58-3.51-1.2-3-.49-2.7-3.42-4.3-2.22-1.22-2.28-.33-1.88-2.2,0-1.06-1.63-2-1.35-.69-2.3-2.9-3.18-3-2.66-2.54-1.84.51,0-2.59-.23-1.6v-1.89l4.24-.42,1.2-1.81.42-1.84,2.57-1.42.16-1.66,1-1.11L480,404.74l6.34-4.38.45-.88,4.55-.18,6.17,1.31,12.81,5.29,6.56-2.15,3.21-.82,1.63,1.75,2.38-1.12,2.76,3.23,2.07.29,1.17,1.3,3,.84L534,411l.2,1.63,1,1.3,1.45.81,1,1.25.92.86,1.38.42.86-.74,1.28,1.4.5,1,3,3.92,11.36-2.63.35-1.28,2.77,2.4.84,10.12-9.39,9.37-10.19,6.1-2.95,3.38L536.87,456l-1.6,1.4-1.35-1.16-1.42.75-3.85.85-.82-.21-4.46,1.61-1,.75-1.88-.65-.51,2.55.84,1.77Z"/>
<path class="cls-1" d="M488.66,506.1l-.6,0-.22-2.24-.72-1.43-2.42-1.3-.95-3.11,0-3.41-2,.11-.15,1.06-2.51.76,1.19,1.09.72,2.61-2,2.93-1.73,3.64-2.15.89-3.92-1.92L469.73,507l-.3,1.38-2.13,1.24,0,.94-4.31.74-.69-.82-3.14.36-1.49,1-1.23-.19-2.49-2.24-.86-1.1L450,509.44l-1,2.23-.77,4.12-1.43,1-1.31.67-.37-.16-1.62-1.07-.39-1.34.56-1.94-.17-1.81-2.75-2.43-.66-1.83,0-1.08-1.71-1.1-.28-2.57L437,500.59l-1.49.45.29-1.69.95-2-.66-1.78,1.28-1.55-1-.92.86-2.89,1.6-3.54,3.68-.21-2.29-17.64L440,467l4.72-.75-1.24-8.9,16.13-2.93L475,451l15.51-3.93,2.25,4-.68,1,1.58,4.45,2.59,5,1.75.69,2.53,1.06L499,466.46,496.23,468l-1,1.71.17,3.08-.55,7,.75,1.69v4l-1,4.83-2.17,2.82L491.19,497l-.16,1.93-1.82,1.7-.62,5Z"/>
<path class="cls-1" d="M488.66,506.1l.5,3.48-.47,1.5-2.26.59-1.16,2.85,2.68-.23,2.43,1.72,1,1.63,2.09.62,3.1,4.31-2.62,3.57-2.4,3.22L489,531.94l-3.08.59-3.44,1.71-2.88-.48-1.71,1.54L473.79,533l-1.2-1.71-2.37,1.36-2.06,0-1.12.94-2-.22-3-3.23-.82-1.29-3.44-1.24-1.33-2.49-2-1.64-3.15-1.87-.16-1.43-2.55-1.45-3.13-1.31,1.31-.67,1.43-1,.77-4.12,1-2.23,3.07-1.08.86,1.1,2.49,2.24,1.23.19,1.49-1,3.14-.36.69.82,4.31-.74,0-.94,2.13-1.24.3-1.38,1.52-1.22,3.92,1.92,2.15-.89,1.73-3.64,2-2.93-.72-2.61-1.19-1.09,2.51-.76.15-1.06,2-.11,0,3.41.95,3.11,2.42,1.3.72,1.43.22,2.24Z"/>
<path class="cls-1" d="M550.68,488.74l-1.27,3.44-2.11,4.77-3.42,1.16-14.33-1.2-1.85-1.15-1.9-1.73-2-2,.6-1.87,1.05-2.87,1.48.43,1.15,1.63,2.19,1.33,2-.61,3.6-2.38,4.28-2,3.24-2.61,1.92-1,1.24-1.33,2.22-1v.08l.39,1.88,1,4.61Z"/>
<path class="cls-1" d="M551.77,477.89l2-1.23,1.49-2.26,1.48-.58.38,1.23.25,2.8.55,2.4-.47,2-.08,5.37-.91,5.82L555,500.13l-2.37,7.9-2.74,6.27-4,7.76L542.14,527l-5.83,6.31-3.63,4.52-4.21,6.69-.8,2.63-.89,1.31-2.85-3.08L522.3,529l3.13-6.09,1-1.74,2.7-.82,3.33-4.25,5.42-1.79,9.43-17.35,2.11-4.77,1.27-3.44-.48-2.38-1-4.61-.39-1.88v-.08l1.24-.55Z"/>
<path class="cls-1" d="M98.39,475.76l4.18,3.29.6-.65,3.07,1.2,3.73,3.29L107.12,486l-.38,3.41.92,3.55-1.06,1.74-.74,2-1.34,1.55-2-2.07-1.88-.38-1.44-1.18-.64,1.21.46,1.27-.52.82-2-1.41L95,491.17l.06-3-1.19-.63-.9-4.37,1.22-2.12.06-1.24,2.51-.06Z"/>
<path class="cls-1" d="M393.32,269l-1,3.23,1,2.48L391,278.64l-3.17,4.22-.36,6.15,2.17,2.76,2.64,2-1.13,5.09-2.26,1.32.34,7.29-.75,4.19-3.13-.08-1,3.56-3,.47-1.29-4-2.63-4.72L375,301l.8-2.54,1.61-3.08.14-5.07-1.67-2-.78-5.62.86-4.08,2-.11.46-1.74-.94-1.36,2.05-6.22,1-4.84.57-3.11,1.68-.22-.07-2.37,3.37.14-.48-2.74,1-.35,2.8,1.58,3.52,2.23,2.09,6.28,1.13,1.46Z"/>
<path class="cls-1" d="M481.77,664.84l-1.12,1.94-2.6.74-2.33-1.94.13-1.42,1.37-1.69.55-1.25,1.3-.44,2.12.5.42,1.78Z"/>
<path class="cls-1" d="M483.69,394.59l-5.32,6.78-4.41-.6h-.08l.28-.81-.58-1.79.13-2.65,1.37-2.21L474,391.76l-1.6.23L471,388.73l.26-2,.6-1.23.59-1.23-.61-2.49,1.36.51,3.22-2.37,2,.25,2.69-.92,3.14-2.93,1.76-.55,3.38-2-.6,3.31-1.37,1.72,1.48,3.06.65,5.71Z"/>
<path class="cls-1" d="M347.46,534l-3.64.86-1-1.56-1.16-2.81-.32-2.19,1.05-3.93-1.09-1.63-.36-3.47.07-3.2-1.8-2.33.35-1.36,3.87.21-.6,2.3,1.33,1.33,1.52,1.58.14,2.16.89.92L346.38,531Z"/>
<path class="cls-1" d="M709.28,347.36l-1.07,2.13-2-4.4-1.65,3.11,2.92,5.71,2.82,9.2,1.59,5.61,2,3.49.66-.92,1.45,8.42-1.63-.63,1,3.62-1.73-2.27-1.24-3.6-1.7-5.92-1.59-6.87-1.34-6.57-3.27-3.19-1.25-2.34-1.79-2.34L697.91,348l-1.91-1.6.14-2.06L694.27,339l-2.74-1.71L688.14,336l-3.58-2.43.22-2.25-2.59-6.45,1.07-2.6-.44-3.94.16-3,1.71-.13,2.08,2.49,1.22-2.17,3.06,5.65,2.92,4-.22-6.5,1-.26.8-2.24-.85-2.32,1.33-2.44,2.2.53Z"/>
<path class="cls-1" d="M561,314.19l.14,2-3,1.58,1.53,2.47,2.25-2.54,3.79-1.31,3.67-4.65,3.5,3.05.39-1.12,2-.46,1.17,1.6,2.14,1.9-2.28,2.3-1.77,1.23,0,3.15-.73,1.36-.18,1.6-1.91-.46-2.32-3.55-.84.46-.68-1.45-1.94.24,0,2.29,1,1.83.07.91-1.49,1.16.56,2.51-1.38-.09-.86,2.78-1.1.13-1.53-5.23-2.69-2.55-2.46.51-.67-2.27,2.11-1.48-.55-3.15-1.23-3.16,2.26-3.62,1,2.23,1.18.79Z"/>
<path class="cls-1" d="M549.31,352,547,348.64l-2.14,1.19-5.34-1.68-2.48.92-4.3-.24-2.21.8-.79,1.5-2,1-.73,3.55-2.12,2.21-2.11-2.69-1.94-4.62-3-.22-.83-3.26-2,.76L513.74,344l3.18-.41,1.65-2.68-3.42-1.36L513,337.59l-1.58,2.26,1.43,3.19-2.36-2.23.43-2,2.56-2.56,2.49.12,3.79,2.14,1.25-1,3-1.87-1.71-1.8,1.34-2.79.63-3.74,4.81-.12,2.41,3,1.52.17,2.6-2.07,1.34.14,4.05,3.29,4.78.71,2.94.69h4l4.53-.85,1.65,2.54-.85.47-1.93-.17.58,1.76L555,339.3l1.62,3.68-.69,2.34-1.73,2.13.59,2.28-1.73,2Z"/>
<path class="cls-1" d="M88.83,443.47l2.15.64.66.62-1.26,3.46-3-1.29-.48-.82,1.4-.68Z"/>
<path class="cls-1" d="M378.54,426.68l-2-7.93L374.19,417l-.07-1.08L371,413.4l-.42-3.34,2.19-2.55.73-3.69-.73-4.22.64-2.3,3.79-1.94,2.51.42,0,2.25,2.92-1.8.31.84-1.65,2.27.1,2.06,1.32,1-.24,3.87-2.29,2.36L381,411l1.92,0,1.06,2.06,1.46.61v3.43l-1.76,1.38L382.63,420l-2.51,1.84.49,1.83-.24,1.9Z"/>
<path class="cls-1" d="M465.67,362l5.05.2,3.33-1.9,2.78-.56,2.66-3.56,3.1-1.43,3.78.95,1.17,1.29.62,2.19,2.71.15,1.74.75-1.55,2.07,3.06,4.53,0,1.58,3.15,2.76L496,372.32l-1.56-.66-3.9.87-1.1,1.19-3.38,2-1.76.55-3.14,2.93-2.69.92-2-.25-3.22,2.37-1.36-.51.61,2.49-.59,1.23-.6,1.23-1.86-1.62.74-2-1.92,1-3.11-.2L463.61,387l-5,1.88-3.4-1.65-3.71.76-.31,2-2.24,1.08-3.9-1.59-3.74.9-3-4-3-1.93.85-3.75-2.61-1.66,2.67-5,5-1.29.47-3.63,6.28-.93,3-3.82,3.26-2.24,5.11-1.6Zm-30.13,11-2.17,2.93-1.51-1.83-.17-.91.66-.65.35-2.95-1.85-.83,2.93-2.06,2.9,0,.82,1.59,3.18.77-.3,1.21-3.78,1.11Zm-456-316.15"/>
<path class="cls-1" d="M492.92,552.55l.78.34,16.53,5.8.44,2.52,6.53,3.09-1.8,5.93.35,2.47,2.87,1,.16,1.13-1.15,2.94.28,1.3-.25,2.18,1.57,2.46,1.85,4,1.62.63-3.51,3.3-4.84,2.68-2.66.44-1.59,1.62-3.09.69-1.17.77-5.34-.28-3.36.93-1.22-5.72L494.39,591l-.91-1.05-4.4-.08-2.56-.89-2.86-.28-1.8-.45-1.89-.82-2.52-5.11-2.67-2-1-2.39.39-2.34-.93-3.89,1.85-.5,1.58-1.84,1.66-2.57,1.07-1.1-.1-1.42-1-.84-.34-1.69,1.27-.77.13-2.63-1.91-2.19,1.54-.79,4.89-.79Z"/>
<path class="cls-1" d="M483.9,554.56l-4.89.79-1.54.79-2.6,1.8-1.11-.27-.14-3.32.94-1.85,0-3.58.8-2.21,1.54-2.59,1.62-1.47,1.3-1.82-1.82-.29-.14-5.23,1.71-1.54,2.88.48,3.44-1.71,3.08-.59,2.49-2.59,2.36,2.67.72,2.13,2.38,4.72-1.33,3.57-1.94,3.38-1.13,2,.36,4.69Z"/>
<path class="cls-1" d="M558.86,334.81l-1.65-2.54-4.53.85h-4l-2.94-.69-4.78-.71-4.05-3.29-1.34-.14-2.6,2.07-1.52-.17-2.41-3-4.81.12-.63,3.74-1.34,2.79,1.71,1.8-3,1.87-9.46-14.95,4.7-6.39.69,0,5.69.3,3,.12,4.83,1.93,2.35-2.63,3.73-3.39,4.92.64,2.83,4.07,1.15-.9,2.91,2.84,3-2.35,2.06,1.32.84-.77-1.2-3.67.72-5.35.64-1.87.95-.23.26,4.2,2.8-.06.74-2.44,4.22-.47L563,313l-2,1.21-.84,1-1.18-.79-1-2.23-2.26,3.62,1.23,3.16.55,3.15-2.11,1.48.67,2.27,2.46-.51,2.69,2.55,1.53,5.23-2.47.66Z"/>
<path class="cls-1" d="M59.75,415.56l-.54,1.07-2-1,.11,3-1,2.51-2.4,1.7-.26,4.87,1.44.78,2-3-.31-2.51L58,419.29l4.54,1.21.46-2.63,1.66-.63-.22,4.29,2.14,1.83,1,4.29-.46,1.69L70,431.57l3.6,2.06,1.12,3.5L77,439.5l2.35-.21.44-1.18L84,440.64l4,2.6-3.32-.47.42,3,2.61,2.12,1.88,4-.58,4.17,1.85,1L92,459l-3.57,1.15-.79,1.57.72,2.51-1.12.38-2.37-.53-.52,2.28-1.3.76,1.48,5.1.14,1.65L82.93,475l-4.41-.53-2.73-.77-1.29.54-2.5-3L69.57,469l-.76,0,1.25,2.27-.92,3.23-.21,3.42,2.9,2.25,0,1.16L69,481.23l-.85,1.86L66.5,483l-2.86-.45-1,1.11-2.79-1.38-1.37-3.89,0-5.71L58,470.35l-1-1.94,2.32-1.33.16-1.2-.59-2.14.18-3.78,1.22-3.38,1.2-1.14,1.35-2.24L62,451.5l-2-.79-2.28-2-1.47-.45-1-6-1.65-2.08-4.2-2.76-.17-2.35-.63-1,.24-1.13,1-1.53.45-2.2-.29-1.66.43-2.61-1.43-1.69,1.9-2.15,1.7-3.18,1.57-1,1.7-.38,1.72-1.76Z"/>
<path class="cls-1" d="M695.81,305.51l-3.3,1.54-.85-2.66-.07-3.51L688,298.46l-1.65,4.43-3.8-2.35L679,299.22l-.16-2.94,1-2.83.75-4-1-5.33,1.93-.21,1.63-2.63,2,3,1.56,0Z"/>
<path class="cls-1" d="M473.74,402.34l.76,2.7-.16,1.44-1.51,1.06-.17-1.2.74-.86-1-.25-.08-3.14Z"/>
<path class="cls-1" d="M558.77,449.63,556.42,452l-.16,2.32.34,1.59-3.25,3.45-5.58,4.51-2.68,4.5-1.66.88-1.24.15-1.85,2.7L538,473.84l-3.27,1.37-.95.59-.61,1.48-1,.67-.38,1.35-2,.54-1.16,1-2.84.64-1.58-2.32-.39-2.5-.93-1.13-1.49-3.09-1.54-1.5.75-.47-.86-1.93.29-1-.62-1.91,1.4-2-.84-1.77.51-2.55,1.88.65,1-.75,4.46-1.61.82.21,3.85-.85,1.42-.75,1.35,1.16,1.6-1.4,1.46-5.75,2.95-3.38,10.19-6.1,5.16,6.23Z"/>
<path class="cls-1" d="M478,675.49l-.93.68-2.13,2.26-1.51,2.21-2.87,3.14-5.47,4.61-3.38,2.67-3.49,2.08-4.67,1.9-2.19.38-.71,1.13-2.49-.39-2.21.9-4.5-.43-2.64.65-1.74-.09L432.45,699l-3.71.83-2.8,1.61-1.94.2-1.65-1.28h-1.43l-1.66-1.63-.26.55-.47-1,.25-2.27-1.16-2.53,1.46-.78.16-3-2.55-3.52L414.74,683h0l-2.81-5,2.25-2.06,1.68,1,.63,1.65,2,.18,2.71.6,2.39-.43,4.1-2.27,1.08-14.82,1.17.52,2.38,3.65-.59,2.48.88,1.34,3.21-.64,2.36-2,2.2-1.38,1.24-2,2.24-1.12,1.83.34,2,1,3.59-.12,2.92-1.21.56-1.32,1-2,2.44-.56,1.47-1.67,1.71-2.89,4.25-3.51,6.55-3.78,1.81-.17,2.09.45,1.54-.69,2.32.13,1.57,5.62.84,2.82L481,659.84l.2,1.44-2.12-.5-1.3.44-.55,1.25-1.37,1.69-.13,1.42,2.33,1.94,2.6-.74,1.12-1.94,3.3-.36-1.48,3.14-1,3.48-1.38,2Zm-10.82-.07-1.74-1.06-2.14,1-2.55,1.81-2.64,2.76,2.83,2.8,1.6-.54,1-1.36L466,680l.92-1.39,1.59-2.1Z"/>
<path class="cls-1" d="M489.08,589.89l2.13,1.59,1.14,3.51-.77,1.31-.93,3.67.81,3.46L490,605.16l-1.45,4.23,2.33.75-13.74,5.54.33,3-3.43,1-2.63,2-.61,1.54-1.63.54-4.07,4-2.62,3L461,631l-1.45-.32-5,.08-.8-.23,0-.34-1.75-.76-2.93.05-3.76,1.31-2.88-2.33-3-3.15.49-13.41,9.52-.9-.37-1.42.7-1.66-.78-1.91.54-2.12-.48-1.27,1.58-.06.25,1.3,2.14-.34,2.89.06,1.51,1.76,3.64.16,2.79-1.7,1,2.12,3.47.15,1.64,1.61,1.82,2.11,3.46-.43-.3-4.58-1.25,1-3.14-1.24-1.22-.6.59-4.39.81-5.22-1-1.76,1.27-2.94,1.21-.69,6.06-1.63,1.78.17,1.89.82,1.8.45,2.86.28Z"/>
<path class="cls-1" d="M479.87,646.66l-2.32-.13-1.54.69-2.09-.45-1.81.17-2.69-1.55-3.41-.25-1.13-2.5.09-1.47-1.89-.24-4.83-4-1.3-2.27-.87-.65-1.59-3.17,5-.08L461,631l1.53-.27,2.62-3,4.07-4,1.63-.54.61-1.54,2.63-2,3.43-1,.23,1.55,3.75-.6,2,.61.92.92h2.12l2.26,1-.27,5.41-1,3.08-.4,3.2.63,1.16L487,637.6l-.7.48-1.41,3.21Z"/>
<path class="cls-1" d="M70.69,607l.59-5.61L71,598.71l1.28-3.81,6.53,1.05,3.6,1.4,3.92,3.87.25,1.56,1.5,3.18.7,6.68L93,614.94l1.45-.45,2.85,2.18,1,1.7,1.11,4.6.79,2,1.5.66,1.34-.35,1.57,1.3.48,2.67,0,2.71-.21,2.58.27,4.1-2.68,2.74-2.87-.07-4.49-2L91,636.89l2.11-6.42-1-2.36-4.35-3.19-5.39-5.24-3.26-1.82Z"/>
<path class="cls-1" d="M538.57,416.81l-1.4-3.13.08-2.74.76-.9,1.56.92,1,2.57.2,3-.86.74Z"/>
<path class="cls-1" d="M413.25,370.88l0,.92-.42,0-.5-1.56-.86-.33-.9-1.08.43-1.07.72-.43.18-1.52.53-.33.57.55.65.18.55.63.57.12.78.71.45-.1-.16,1.13-.29.58.17.31-.7.28Z"/>
<path class="cls-1" d="M520.24,397.94l1.45,1.64.08,1.13,2.35,2.86-2.38,1.12-1.63-1.75-3.21.82.94-5.24Z"/>
<path class="cls-1" d="M698.27,312l-2.2-.53-1.33,2.44.85,2.32-.8,2.24-1,.26.22,6.5-2.92-4L688,315.54l-1.22,2.17-2.08-2.49-1.71.13-.9-2.37-.92-5.82.94.71.87-1.76-4.2-4.43.2-2.45,3.59,1.32,3.8,2.35,1.65-4.43,3.58,2.42.07,3.51.85,2.66,3.3-1.54Z"/>
<path class="cls-1" d="M473.57,398.17l-.92.33-.1.86-1.17.32.2-3.93.78-3.59,0-.17,1.6-.23,1.09,1.55-1.37,2.21Z"/>
<path class="cls-1" d="M304,539.65l-1.18-.06-4.55-2.49-3.91-3.72-3.68-2.79-2.83-3.16,1.15-1.29.32-1.26,2.15-2.18,2.19-1.84h1l1.19-.38,1.7,2.88-.39,1.74.81,1,1.26.14,1-1.69,1.25.23-.27,1.26.34,2.17-1.07,1.87,1.25,1.32,1.41.42,1.82,2,.06,1.74-.45.51Z"/>
<path class="cls-1" d="M401.82,458.51,399,460.4l-2.46-2.28-6.57-1.5-1.93-2.69-3.3-1.9-1.86.91-1.54-2.42-.23-1.9-2.5-3.15,1.51-1.93-.46-2.79.4-2.46-.37-2,.53-3.66-.3-2.06-1.42-3.88,1.83-1.11.24-1.9-.49-1.83,2.51-1.84,1.08-1.49,1.76-1.38V413.7l4.48,1.25,1.54-.49,3.18.5,5.14,1.56,2.15,3.79,3.48.53,5.54,1.28,4.31,1.73,1.7-1.39,1.53-2.28-1.34-3.29.87-2.32,2.36-2.45,2.44-1,5.11.14,1.59,1.78,1.37-.21,1.3.56,3.75-.11,1.17,1.3-1,2.37.92,1.8-.48,2.91,1.75,3.38L441,440.89l2.48,16.4,1.24,8.9L440,467l.19,1.88-17.38-6.3-17.07-6.81Z"/>
<path class="cls-1" d="M467.15,675.41l1.34,1.07-1.59,2.1L466,680l-2.49.86-1,1.36-1.6.54-2.83-2.8,2.64-2.76,2.55-1.81,2.14-1Z"/>
<path class="cls-1" d="M363.92,339.33l.6,1-.13,1.92-.85.1-.66-.37.28-2.46Z"/>
<path class="cls-1" d="M562.57,588.54l1.09,1.65,1,2.74.48,5.32,1,1.85-.54,2.3-.83,1.54-1.3-2.31-.87,1.55.61,3.17-.5,2-1.24,1.34-.56,3.91-2.13,5.67L556,626l-3.62,9.06L550,641.59l-2.68,5.52-3.59,1.71-4,2.55-2.26-.67-3.13-.94-.84-2.08.25-3.81-1.06-3.2,0-3.07,1.12-3.31,2.06-1.14.17-1.47,2.39-3.75.65-2.9-.82-1.89-.59-2.62,0-4,1.68-2.81.75-2.95,2.17-.64,2.46-1.45,1.64-1.17,1.9-.49,2.58-3.14,3.66-3.63,1.37-2.6-.52-1.79,1.8.09,2.45-3.76.14-2.76,1.45-2.41Z"/>
<path class="cls-1" d="M412.84,371.83l.42,0,0-.92,1.8-1,.7-.28,1.06-.43,1.49-.32L420.2,370l.82,2.86-.6.25L420,374l-1.8.21-1.08,1.16-2.1.73-1.57-.86-.8-1.82Z"/>
<path class="cls-1" d="M682.82,318.35l.44,3.94-1.07,2.6,2.59,6.45-.22,2.25,3.58,2.43,3.39,1.25,2.74,1.71,1.87,5.39-.14,2.06,1.91,1.6,3.57,1.58,1.79,2.34,1.25,2.34,3.27,3.19,1.34,6.57,1.59,6.87-2.08-3.46-1.33-4.91L705,360.75l-2.77-5.67L700,353.91l-4-4.7-4-5.42-3.28-2.45.17,4.55-.31,7.11-1.44,1.4-2,.88-2.76-6.93-3.14-3.67-5-2.78-.82-2-1.58,1.27L668,339.7l-2.56-3.39,1.17-.42-2.16-3.24.23-2.59-1.54-1.53-.65-2.19-3.26-4.59,2.18-1.48-1.93-4.93-1.55-2.22L656,307.87l-2-2.27-.39-7,1.72-1.57-2.34-2.21-.16-1.87-1.5-1.26.54-2.19,2.64,1.25,1.48-.48,2.85,3,2.93,3.49,1.56,6.59,3.93,5.39,1.07-4.22,3.56,3.11,1.64-1.32,2.4,4.57,2.43-.91,1.29-.69.09-3.82,1.47,1.69.92,5.82.9,2.37Z"/>
<path class="cls-1" d="M409.77,369.37l-.35-.8-1,2.36.45,1.37-.74-.25-1.15-1.31-1.55-.69.24-.79.09-2.48.88-1.16.53-.48,1,.63.57.54,1.14.32,1.39.73-.2.42-.43,1.07Z"/>
<path class="cls-1" d="M497.13,598.52,495.84,602l1.14,5.44,1.55-.32,1.57,1.13,1.77,2.83.16,5.51-2,1.23-1.5,3.21-2.78-2.2-.2-3,1-2.16-.2-1.69-1.73-.81-1.24.59-2.52-1.67-2.33-.75,1.45-4.23,1.44-1.73-.81-3.46.93-3.67.77-1.31-1.14-3.51-2.13-1.59,4.4.08.91,1.05,1.52,1.78Z"/>
<path class="cls-1" d="M349,508.58l.14-3-5-1.11-.1-2.14-2.4-3-.54-2,.39-2.13,2.78-.1,1.63-1.53,5.9-.27,3.84-.66.38-2.73,2.36-3V476.72l5.94-2,11.95-9L390,456.62l6.57,1.5L399,460.4l2.78-1.88,1.51,6.84,1.63,1,.17,1.41,1.84,1.38-.76,2-1,9.16.15,5.79-5.21,4.59-1.56,6,1.88,1.52.13,2.85,2.79-.1-.33,2.12-1.22.34-.07,1.42L401,505l-3.18-4.65-1-.11-3.3,2.67-3.43-1.11-2.36-.14-1.24.68-2.56,0-2.53,2-2.23.18-5.34-2.14-2.06,1.13-2.23,0-1.66-1.64-4.39-1.61-4.69.54-1.14,1-.62,2.54-1.26,1.77-.32,3.94-3.34-2.57h-1.58Z"/>
<path class="cls-1" d="M377.48,539.89l-4.69,1.68-1.72-.2-1.74,1-3.63-.05-2.44-2.71-1.5-3.15-3.2-2.88-3.39,0-4,0,.31-7.06-.09-2.79.86-2.76,1.38-1.33,2.17-2.71-.46-1.19.88-1.77-1-2.62.18-1.46.32-3.94,1.26-1.77.62-2.54,1.14-1,4.69-.54,4.39,1.61,1.66,1.64,2.23,0,2.06-1.13,5.34,2.14,2.23-.18,2.53-2,2.56,0,1.24-.68,2.36.14,3.43,1.11,3.3-2.67,1,.11L401,505l.81-.15,1.82,1.64-.44.83-.16,1.48-3.55,3.66-1.05,2.89-.54,2.33-.9,1-.79,3.13-2.32,1.94-.62,2.26-1,1.82-.37,1.84-3,1.62-2.57-1.69-1.7.14L382,532.4l-1.3.08-2.08,4.28Z"/>
<path class="cls-1" d="M363.72,324.58l2.26.08.56,1.46-.56,4-.66,1.66-1.69,0,.57,4.57-1.59-1-1.82-1.9-2.63.91-2.08-.36,1.48-1.18,2.46-6.4Z"/>
<path class="cls-1" d="M395.28,244.61l5.89,1.5-1.41,1.64,2.83,2-1.91,2.39-1.12.73-.55-3-2.64-1-1.85,2,.34,3.14L394,256.1l-2.11-.58-2.09.66-2.47-1.79-.67,1.26-1,.35.48,2.74-3.37-.14.07,2.37-1.68.22-.57,3.11-1,4.84-2.05,6.22.94,1.36-.46,1.74-2,.11-.86,4.08.78,5.62,1.67,2-.14,5.07-1.61,3.08L375,301l-1.82-2.53-4.35,5.2-3.19,1.11-3.41-2.13-.91-4.61-.81-9.86,2-2.76,5.44-3.73,3.7-4.58,2.93-6.14,3.2-8.5L380.1,259l3.36-5.84,3-2.41,2.63-.31,1.16-3.85,2.77-.48Zm-15.21-24.95-1.63,2.11-2.11-.54.36-1.15-1-1.13,1.71-1.2.93,1.37Zm-8.47-6,3.84,2.37-1.85,2,.28,3-.69.89.33,3.38-1.29.34-2.82-2.16.68-1.53-1.74-1-2.42-3.21-1.11-3.08,2.16-1.63.73,1.34,1.24-.2,0-1.39,1.2-.31Zm4.93-4,2.16.9-.27,2.38-2.3,1.07-2.79-.11-.5-1-1.24.15-1.41-1.65,2.15-1.53,1.47.7.36-1.33Z"/>
<path class="cls-1" d="M572.54,419.63l-.12,3.76-1.66.58-.33,1.44.27,2.57,1.5,2.81-.14.72-1.63.79-1.64,2.78.39,2.38-.51,1.35-2.26,1-1.05,1.8.6,1.83-1.38,2.07-2.16.48-2,2.62-1.64,1L556.62,447l-5.16-6.23,9.39-9.37L560,421.26l-2.77-2.4-.58-1.84.3-2.34-.69-1.83,1.2-1.65-.85-.32-.88-3,1.71-.89,2.74,2.26,2.53.64,2.7-.72,2.31-.25,2.56,1.74,1.51,1,1.43-.09.4,1-.16,3.34,0,1.55Zm-16.87-17-.1,1-1.26-1.18.33-2,.57.17Z"/>
<path class="cls-1" d="M579.94,317.39l3.09.15,3.08,2.36,4.87-2.27.54,5.65-2.06,3.22L585.21,329l.13,2.86,3.43,2.77,2.82,2,3.39.16-.4,4.39,2.06,2.94.33,6.47,1.1,5.75L598,363.2l-3.39,2.28-.52,7,3,.52,2.17,3.11,2.82,1,2.6,3.34-6.48,4.86-.52,4.4-2.78.44-2.48-2.55-4-1.74-5.23,4.6-5,3.31L573.89,397l-1.17-5.85,3.39-5.07-1.25-1.85-1.82.23-2-3.79-3.87-.08-2.55-1.86-2.66-1.35,6.19-1,2.64-2.59,2.06-.63.09-1.35,2.24-1,2.75-4.43-2-3.71.14-3.56,2.06-1.54-.42-1.41,1.73-2.16,1.24-.39.3-2-1.75-2.4-.52-3.43.94-2.42-2.84-1.89,2.49-1.92L579,337.5l-1.2-1.48v-2.8L576,331.44l-1.81-1.21.1-3,1.87-3.19,2.26-3,.56-1.87Z"/>
<path class="cls-1" d="M32,420.44l-.42-2.4L32,414.7l1.21-.65L32.6,413l.12-2.2L31.89,408,30.56,407l-1.25,1.17-1.6.1-.66-.46-.68.77.25,4.15-1-.14-.68.34-1.38-1.1.7-3.57-.69.48-.77-1.28.27-2.66-1-1.57-.44-1.38-1.12-1.29-.53,1,0-1.12.55-.85.64-.78.28-1,.64-.15-.22-1.39.86-2.06,1.18.73.15,2.9-.5,1,.95,1.43.42-.13.21,2.07,1.46,1.1,1.66,0,2.05.77,1.54-.5,1.38,1.89-.3.38,1.46,1.77.89,2.13.32,2.43.53,2.44-.62.39-.45,3.61-1.09,1-.79-1.26Z"/>
<path class="cls-1" d="M523.92,545.38l2.85,3.08-2.9,2.54-.94,2.13-1.61.71-.42,3.3-1.3,2.13-.7,3.17-1.69,1.87-6.53-3.09-.44-2.52-16.53-5.8-.78-.34-.36-4.69,1.13-2,1.94-3.38,1.33-3.57-2.38-4.72-.72-2.13-2.36-2.67,2.4-3.22,2.62-3.57,2.32.26.27,2.51,1.63,1.15,3-.67,5.87,2.54,1.37-.28,1-.36,1,.29,2.9-.34,1.06-2.19,3.68-2.88,1.9,1.08,2.9-.77L522.3,529Z"/>
<path class="cls-1" d="M57.93,366.72l1.43,2.34.72,2.62-.27,1.73L58,371.51l-1.19-.09-1-2.35-.45-3.34.89-.7,1.21.9Z"/>
<path class="cls-1" d="M473.74,402.34l.21-1.56,4.41.6,5.32-6.78,3.11,4.9-.45.88L480,404.74l4.83,3.35-1,1.11-.16,1.66-2.57,1.42-.42,1.84-1.2,1.81-4.24.42-.29-.61-.1-7.56-.56-1.69.16-1.44Z"/>
<path class="cls-1" d="M591,317.63,597,319.7l2.36,3.52,2.48,1.08,1.52,2.15-2,1.22,4,3.82,4.16.15,5.27-.66-.05,3.51,1.89,4.91,3.37-.91,3.63-.41,4.64-1.11,3.43-3.19,2.81.56,2-1.76,3.27-2.43,1.67-2.47-1-2-2.3-2.28-1.24-2,.51-2.63,2.73,3,.69.77,3-1.08.7-2.52,1.81-2.25,1.39-2.59-1.95-2.75-1.81-.08,1-3-1.05-5.8-.43-6.1,2.17-1.64-.49-3.9,3,1,1,2.74,2.11-2.86,1.5,1.26.16,1.87,2.34,2.21-1.72,1.57.39,7,2,2.27,1.93,5.26,1.55,2.22,1.93,4.93-2.18,1.48,3.26,4.59.65,2.19,1.54,1.53-.23,2.59-6-5.29-.53.86,1.68,3.28-2.71-.58-1.18-3.4.69-1.62-1.85-5-1.64,1-1.73,2.88-2.31,2.27-2.39-2.69-1.1,1.2-3,.5,1.42,3.9,3.14.15-.14,3.43.65,2.22,2.12-.64,1.47,3.12,3,2.27,2.78,3.17.75,2-1.55,2-2.22,4.52,2.24,3.21.36,4.21-1.73,7.15.15,8.52-.43,5L653.26,386l1.06,2.15-.81,2.49-1.72,4.07-1.21,1.47.79,4.37,3.33,5.62,1.84,3.82.6,5.65,3.16,8.24-1.5,1.55-.07,4.86,1.52.85-2.39,3.65,0,4.16-.83,2.39-4.55-2.28-3.8-5.68-3-3.93L643.82,428l-3.4-3.31-3.08-5.33-1.72-2.53-5.49-4.28-5.17-8-3.58-5.16-2.6-5.51-2.65-3.78-3,6-2.4,1-6.58-2.56.68-2.68-1.75-1.1-5.41-1.23.52-4.4,6.48-4.86L602,377l-2.82-1L597,373l-3-.52.52-7L598,363.2l.08-6.88-1.1-5.75-.33-6.47-2.06-2.94.4-4.39-3.39-.16-2.82-2-3.43-2.77-.13-2.86,4.25-2.51,2.06-3.22Z"/>
<path class="cls-1" d="M330.71,321.51v3.14l-2.63,3.64-5.32,2-3.8-1.2,3.07-4.19-.57-4.58,4.2-2.88,2.31-1.76.15,2.37-.92,2.24,1.65.14Z"/>
<path class="cls-1" d="M524.92,357.85l2.12-2.21.73-3.55,2-1,.79-1.5,2.21-.8,4.3.24,2.48-.92,5.34,1.68,2.14-1.19,2.34,3.36,1.89,6,.95,3.58,1.6-.17,0,3.11,2.81,2.8,1.69,2.57,2.62-.69,1.72,2.61-.69,5.61,2.66,1.35,2.55,1.86,3.87.08,2,3.79,1.82-.23,1.25,1.85-3.39,5.07,1.17,5.85-6.66,2.18-4,1-4,1.43-3.73-4.66-1.9,0-2.18,2.1L549,402.93l-4.69.54-4.76-1.77-3.74.25-3.91-3.15-4.82-4.73-1.5,1.51-2.7-.52-.58,2.25-2.76-1.51-.95-2.32-1.07.45-.71-3.4-3-2.59-5-.71L504.93,384l-.61-3.69,1-2.16L504,375.73l-2.62-.43L497.23,371l-3.15-2.76,0-1.58-3.06-4.53,1.55-2.07,1.19,1.41,2.41,1.33,2.34-.32,1-.6,2.08-4.71,1-.82,1.47.84,0,2.57,2.92,1.37.65-.56,2.44,2.7,3.28-.47,3.12,1.12,4.62-1.39,4-3.54Z"/>
<path class="cls-1" d="M501.42,375.3l2.62.43,1.29,2.42-1,2.16.61,3.69,3.91,3.21,5,.71,3,2.59.71,3.4,1.07-.45.95,2.32,2.76,1.51-2.08.63-2.41.58-.94,5.24-6.56,2.15-12.81-5.29-6.17-1.31-4.55.18-3.11-4.9,5.94-7.07-.65-5.71-1.48-3.06,1.37-1.72.6-3.31,1.1-1.19,3.9-.87,1.56.66,1.21-1.34Z"/>
<path class="cls-1" d="M324.13,265.47,322.85,268l1.25,3.25-3.48,2.62L314,275.4l-2,.31-2.35-1.29-4.82-2.86,2.65-1.21-3.13-3.24,3.59.26.45-1.2L305.13,264l2.45-2.19,2.92.26,1.56,3.55,3.63-1.43,1.82,1.74,3.73-1.45Z"/>
<path class="cls-1" d="M474,400.77l-.21,1.56-1.45-.25.08,3.14,1,.25-.74.86.17,1.2,1.51-1.06.56,1.69.1,7.56-4.38-7,.65-1.74-.31-.18.38-2.32-.22-3.52.18-1.25.08-.07,1.17-.32.1-.86.92-.33.58,1.79-.28.81Z"/>
<path class="cls-1" d="M72.68,372.43l1.49,1.84,1.92,3L75,380l-1.13,1.56-1.07.13v2.06l-.7,1.2-1.41-2.55-1.44-.94-1.46-2-1.7-.41-.64-2.91,1-1.24,2.07,3.15,1.82,2.4,1.51-.06-.17-3.21,1-1.73-1.27-2.41Z"/>
<path class="cls-2" d="M112.23,500.88,110.44,502l-1.9-.51-.29-1.59-.82-.6-1.41.74-1.49-1.78,1.34-1.58.74-2,1.05-1.73-.91-3.53.38-3.41,2.84-3.12,1.16,1.15,2.54,2.47,3.22,5.89.26,2.23-3.09,3.3Zm264-126.81-.92,3.46-1.57-.84-.91-2.95.59-1.67,2-1.77Zm-19.45-35.82,2,2.07,1.5-.34,2.58,2,.66.37.85-.1,1.42,1.12,4.3.69-1.39,3-.27,3.14-.81.77-1.4-.37.13,1.11-2.2,2.51v2l1.47-.71,1.12,1.91-.1,1.25,1,1.63-1.06,1.37.92,3.39,1.77.52-.31,1.93-2.89,2.56-6.47-1.14-4.78,1.4L354.4,373l-3.86.5-3.65-2.11-1.24.91L339.71,370l-1.18-1.79,1.86-2.55,1.2-8.74-2.85-4.8-2.06-2.37-4.45-2.05.06-3.22,3.95-.63,4.89,1.46-.54-5,2.63,2,7-3.12,1-3.55,2.53-.82.38,1.54,1.33.09Z"/>
<path class="cls-1" d="M389.82,577.37,385,573.21,382,569.76l-2.83-4.37.13-1.44,1-1.41,1.08-3.18.88-3.24,1.54-.3,6.65-.21-.13-5.22,2.16-.38,2.78.45,2.68-.7.57.21-.29,1.92,1.33,2.18,3.39-.55,1.16.79-1.86,5.15,2.22,2.43.57,3.35-.52,2.91-1.37,2.12-4.06,0-2.49-1.94-.34,1.93-3.1.67-1.57,1.15,1.77,2.77Z"/>
<path class="cls-1" d="M332.56,318.69l-1.85,2.82-1.87-1.12-1.65-.14.92-2.24-.15-2.37,2.2.08Zm8.89-16.94-3.14,4.42,2.57-.38,2.68.22-1,3.46-2.67,3.69,2.62.47.16.47,1.89,5.24,1.76.79,1.34,5,.68,1.75,3.3.94-.45,2.77-1.48,1.23,1,2.29-2.67,2.2-3.83-.22-5,.9-1.26-1L335.9,338l-2.61-.72-2.23,1.48-1.42-1,4.76-4.18,2.63-.73h0l-4.31-1.1-.57-1.8,3.06-1.08L334,326.35l.87-2.79,4,.73h0l.65-2.49L338,319l0-.06-3.1-1-.47-1.23,1.2-1.84-.69-1.27-1.67,1.9.44-4.16-.94-2.33,1.57-4.33,2.38-3.28,1.86.52Z"/>
<path class="cls-1" d="M301.46,524.79l-1.25-.23-1,1.69-1.26-.14-.81-1,.39-1.74-1.7-2.88-1.19.38h-1l-1.23.13.15-1.61-.63-1.23.23-1.27-.83-2-1.11-1.72-3.51-.41-1.08.71-1.22,0-.82.86-.6,1.17-2.5,1.65-1.72-2.86-1.56-2-1.07-.72-1-1-.32-2-.55-1.07-1.19-.9,2.13-1.89,1.31.26,1.2-.59,1,.12.74-.5-.23-1.52.52-.4.22-1.49,2.08.32,3,1.48,1,0,.37-.45,2.33.63.65-.18.12,1.65.69.07,1.18-.46.71.23,1.12,1.26,1.84.55,1.26-.83,1.45-.45,1.09-.51.86.2.9,1.07.44,1.27,1.67,2-1,1.05-.26,1.42,1-.35.52.57-.31,1.29,1.27,1.39-.9.26-.44,1.47.91,1.91.9,3.62-1.68.39-.46.57.3.88-.36,1.9Z"/>
<path class="cls-1" d="M266.72,496.08l.77-1.89,4.66.59,1.08-.91,1.36.13,1.57,1.34,1.33.21L279,495l.74,1.4-2,.74-1.86-.34-1.74-1.2-1.69.79-.77-.08-1.09.47Z"/>
<path class="cls-1" d="M382.22,556.12l-.87-.63,1.5-4.92,7.42-.18.13,5.22-6.65.21Z"/>
<path class="cls-1" d="M330.42,193.22l3.65-.53,1.34,1.21,1.81-.75,1.84.64,3.36,2.28,1.5,4.09-1.92,1-2.37-.72-3.34-1.09-.23.74,2.36.59,1,2,1.92-.65-.26,1.49-2,1.86,2.53-.77,4-.5,1.73,1.22-.2,1.73-4.13,2-.83.76-2.81-.08,1.73.72-2.29,2.48-1.92,2.24-2.08,4.22v2.84l-1.68-.31-2.31.66.93,2.63-1.31,3.34-1.4,0-.06,3.78-2.83-.55.65,2L325.67,235l-2.09,0-1.77-.58.24,3.14-.86,1.72-1.78-2.48-1.24.78,1.27,1.59.58,3-1,3.31-3-.1-.32-1.87-.5-2.83-1,2.77-2.8,1.4,3.75,1.55,1.93.89-5.78,2-5.87,1.47-5.3-.55-1.69-.73-2.54.72-4.88,2.91-5.25.89-1.2-.42-2.77-.24-2.9-.43-3.15,1.45-2.09,2.53-2.75,1.9L265.88,260l-1.66,3.26L261,265.86l-3.8,3-2.68-1.38v-4.66l-3.29-2.39.25-3.09,2.26-4.17,1.8-6.25,1.62-2.74,3.06-3.08,1.65-4.52,3.18-1.91.54-1.83,5.53-2.55,3.07.38,2-.92,3.12-2.23h-2.54l-1.14-.08-1.49-.46v-2.21l2.59-2.06,2.46-1.18,1,.84,1,2.7.71-3.49.49-1.83-1.47-.52.24-1.49,4.7-1.61,1-1.58,2.17-2.58,3.5-3.82.77-2,1.79-1,.91-3.52-.84-1.84-1.53-2.06-1.46-1.87,1-1.57,2.35-2.55,2.47,1.49,1.06,1.43-.39-3.72,1.28-2.37,1.94-.5,3.47,1.87,3.53,1.52,1.84-.46.81-2.3,2.16-.19,4.36.6,1,.54,1.93-1.1,2,.59,1.74,1,1.16,1.3-.88,1.22,3.34-.3-.48,1.92.33.77-.23,1.73.91-2.44Z"/>
<path class="cls-1" d="M92,459l1.83,3.12,1.37,4.38L94.66,469l1.33.87,1.36,3.41,1,2.45-1.59,4-2.51.06-.06,1.24L93,483.19l.9,4.37,1.19.63-.06,3,1.5,5.36-.95-.29-2-1.46-1.45.67-1.84,0-1.22-.4-.58.74-1.78-1.2-1.84-3.51.17-2.4-.44-3,1.46-3.82,1.38-1.15L87.12,478,86,476.54l1-1.86-.57-1.6-1.91-.87-1.48-5.1,1.3-.76.52-2.28,2.37.53,1.12-.38-.72-2.51.79-1.57Z"/>
<path class="cls-1" d="M20.91,362.76l.46-2.11L21,359.22l1.23-1.72v-1l-.23-1-1.23-.89.3-.78-.17-1.8.13-1.7-.35-1.41,1.13-.52.4-1.22.69-.68,1.74.26,2-.29.09.53.94-.1.62.89,0,.7.46.28.7,2,1,1.39,1,.52.56-.15.53,1.28.32,1.1.63.73.67.23.62,2.12.29.61.17,1.85,0,2,.42,1.87-.12,2.14-.74-1.17-.67.22L33,365l-.57-.79-.83-.09-.33-.85,0-1.28-.31-.19-.92.74-.19-.35-.58.94-1.5.21-.72,0-.55.27-.11-1.94-1.18.59-.44-.72-.57-.65-1.26,2.47-.34-.44-.87.71Z"/>
<path class="cls-1" d="M501.21,477.53l2.85,1.38,2.18-1.7,1.16.67,2.79-.72,3.88.8,1.35,1.25,2.08.92,2.18,2.15,1.67,1-1,2.42-1,2.52.55,1.15.31,1.35,2.3-.59.93-.61,1.05.54-.6,1.87,2,2,1.9,1.73,1.85,1.15,14.33,1.2,3.42-1.16-9.43,17.35-5.42,1.79-3.33,4.25-2.7.82-1,1.74-2.9.77-1.9-1.08-3.68,2.88-1.06,2.19L513,528l-1-.29-1,.36-1.37.28-5.87-2.54-3,.67-1.63-1.15-.27-2.51-2.32-.26-3.1-4.31-2.09-.62-1-1.63-2.43-1.72-2.68.23,1.16-2.85,2.26-.59.47-1.5-.57-4,.62-5,1.82-1.7.16-1.93,1.29-3.84,2.17-2.82,1-4.83v-4l4.94-.28Z"/>
</g><g id="Alto"><path id="UCRANNIA" onmouseover="displayName('UCRANIA: 86 hombres por cada 100 mujeres');displaySecondLanguage('')" class="cls-3" d="M434.12,320.53l1-.11.3-1.15.87,0,2.52-1.22,2.6,1.86-.31,1.05.74,1.24,2.17-.46,1.68,1.52.28.85,4,.35,1.74-1.36,2.48,1.38,1.52-.6,4.49-.1.6,1.21-.07,2.59,1.64,2.08.2,1.56-2.5,1.28-.91,1.68.71,1.9-2.09,1.11-1.32,2-2.57,1.1L452,342.64l1.15,2.6,1.81.58,2.87-1.21,0,1.71L455,348.09l-3.15,3.7-2-.39,0-2.21-3.67-.33.25-1,2.32-2.24-1.19-.73-4.91.2-.73-1.54-2.53,1.25-.34,2.65-1.34,3.77-1.58-.41-1.21,1-1.57-.48.62-.65.1-1.61.41-1.57-.44-.72.52-.49.47.53,1.78-.31.68-.52-.68-.3v-.69l-1.36-.84-1-1.69-1.27-.44-.24-1.51-1.65-.84-1.23.12-2.51-.84-1.79.86-.51.79-1.22.27-.46,1.17-2,.86-.83.87-1.63-.79-1.88.35-1.93-.14-1.06,1.16-.47-1.13-1.89-.89.18-1.85.55-1.27.69.14L412,337.61l1.73-4.06,1.27-.77v-1.27L412.68,328l1.26-.42,1.19-1.46,2.07-.53,2.82-.26,3.32.33,2.15-.42,1.21.37.77-1,1,.82,2.35-.83,1.2.12-.57-2.18.48-1.15Z"/>
<path id="rusia" class="cls-3" onmouseover="displayName('RUSIA: 86 hombres por cada 100 mujeres');displaySecondLanguage('')" d="M501.76,105.08l-.11.12-1.65-.84,0,0ZM407.59,316.66l-4.76.91-3.31,0,.19-2,3.23-2,2.85.27,1.3.47,0,1.22ZM358.53,90.94l-1.66-.79.64,2.37-6.44-.27-5.22-2.71,2.21-1.6,4.1-.57-.27-3.15,1-.71,2.52,0,2.07,1.08,3.49.93.54,1.41,2.56.58,2.92-.32,1.24,1.2-.68,1.18,3.06-.6-.9-1.59,1.67-1.27-2.1,13-5-2.8L358.36,93Zm9.79,14.44h2.13l.14,1.1L368,107.69Zm-2.53.06,2.53-.06-.34,2.31-.26.13-1.56-.1-2.6-1.08.19-.46Zm54.69,26.61,1.75,1.3,1.79,2,0,.26-2.61-.07-1.7-.87-.08-2Zm-15-.91,2.66-.24,1.53,1.33.64,2.26-1.42.6-1.46-1.63Zm4.48,5L413.6,135l3.66,2.92,2.57.89-.88,2.85-3.35.86-1.91-.63-2.18-2Zm24.34,91.16-.33.79-4.11,2.35-1.8-1.25-2.94.53L423.25,228l.41-1.48-1.86-1.76-.93-4.19-1.32.27-.88-4.44-1.88-1.2-.09-3.12V208l1.51-2.84-.48-2.17.59-1.71,2.11.44,1,1.26-.18,3.93-.28,3.57,1.16,5.06,2.27,4.08,1.91,4.22,3.13,2.48Zm-8-58,2.5-.21-1.43-.82-.62-2.58,1.82-2.15,1.63-.87,2.73.06,1.88,1,3.63,2.61,1.72.8.38-1.31.83-1.59-1.27-.94,3.09-.65-1.49-.44-1.45-1.69-.67-3.5,2.21-.51-1.73-4.67-3.76.56-.55-2.35-1.16-1.63,1.25-2.25,2.62-1.23,2.45.18,2.6-2.29.42-2.3-5.72.23.46-2.37-2.95-1.45-.76-2.54-2-.3-1.29-1.91-3,2.39-3.24-.44-8.69-9.27.85-2.13-1.37-4-7-2.61-2.82-1.85-.32-1.73,2.13-2-1.5-1.67-3-.31-3.36-1-3.17-1.68-3.88-.67-1.93-3.61-3.05.44.62,2.37-1.57,1.22-5.85-2.08L377.4,103l-5.46-2.23-2.68-1.68,2.1-13,0,0L375,85l3.34.58-2-1.94-1-2.76-1.12-1-.07-1.33.91-.77,5.2,1.21,8.85-1.2,2.74.08,1.74-.4L431,83l1.57.32-4.32.33-7,.21-5.53,3,3.36.86,3.64-1.6,9.74-.07L431.07,90l7.5,2.2,11.77-.36-.05-2.43L457,92.19l4.26,2.19-2.83,1.21,3.15,2.67,4.78,1.14,6.18,5.37,8.12,5.4,15.07,4.26,18.18,6.89-2.34-3.63,2-1.41-.92-2.34-3.63-1.18-2-2.5,1.08-2.43,33.58,17.32,12.55,7.67-3.12.52-1.64,2.93,1,4.6-4.38.4-2.6.57-1.66.74-4.26,1-.78,2,.2,3.55,1.52,3.31,2.1,3.24,3.25,2.52.72-1.18,2.78.49,2.11,1.77,6.11,3.57,2.21.5,4.24,4.67-1.1,2.76,1.11,3.37-1.41.91-.25,1.45,4.13,5.09,1.24,3.85,1.44,2.94-.59,3.09.14,2.51-2.47.6-2.33,1.61-.68,2.32.5,3.52.72,2.82L560,207.59l-3.64-1.18-1.58,2.31-.88,1.94-2.41,1.73,4.38,4.93,3,.45,2.69,4.13-2.05,2.88-.85,2.31-2.6.36-.85,2.42-2.07,1.2.78,4.81,1.89,6.86-.38,2.93-.08,1.14-3.18-.64-.92,3.27-2.27-.36-1.64.93-3-.74-1.42.62-.75,3.81-4.14,1,1.38,2.75-13.18-3.67-4.81-.06-.75-1.66.16,7.6-1.22,1.92-2-1.94-3.22,1.13-.7,2.61-4.35-2.92-3.59,2.25.07,2.87L503,270.88v1.64l-5.64,7,.23,1.93,3.58,1.42-1,2.41,1.23.73-.41,3.27,5.41.08,1,2.16-3,2,.29,1.57-4.25,0-3.34,2.4-1.13,3.15-3.76.09-6.81.26-3.47,2.12L479.68,310l1.47,3.09L477.27,312l.6,5.41,1.2.48.26,3.79L483,323.4l1.84-1,3.18,1.92.93,2.24h1.69l.17,3-2.2,1.93-.44,5.55,4.54,2.79,1.16,2.94,5.59,3.48-.85,2.5,0,1.3-1.42.3L494,348.68l-.88.22-2.28-.18-1.71-1.35-3.1.27-1.45,1.4-.87-.58-4.87-.44-4.59,1-2.78.19-.15.63-5.21-2.26-4-.46-3.5-1.66,1.84-1.38.93-4.37-2.27-1.13,3.39-3.19-.47-.89-2.2,1.57-.71-1.9.91-1.68,2.5-1.28-.2-1.56-1.64-2.08.07-2.59-.6-1.21-4.49.1-1.52.6-2.48-1.38L450,324.43l-4-.35-.28-.85-1.68-1.52-2.17.46-.74-1.24.31-1.05-2.6-1.86-2.52,1.22-.87,0-.3,1.15-1,.11L432.49,318l-1.12-1.23.35-.53,2.12-.45.63-1.21-1.16-.9-2-.24-.14-.8-1.31-.47-2.59-2.3.11-1.28-1-1.9-2.74-.34-1.1.84-.72-.95-2.92-.39-1.62-2.28-.89-2-1.46-.68.55-1.58-2-3.73.76-2.8-.59-.64,1.66-2.95-3-1.36,2.49-6.48.9-2.91-.15-2.3-4.09-1.91-.33-2.87-3-2.52-.25-3.81-4-4,.26-3.47-3.69-1.93-1-2.86,1.12-.73,1.91-2.39.89-1.87,3.7,1.5,4.66-.63,8.4,1.9,2.36,1.26,1.76,2.46-.51,2.8-2.09,2.17-9.17-.11-1,.93,4.28,1.91,1.06,1.79,2.2,4,3,.35,2,.48-.81-2-2-1.27.31-1.92,5.65.69.9-1.57-2.89-2.32,1.44-5.45,1.62-.49,2.4.58-.92-3-2.87-1.56-.87-2.58L423.31,246l4.9-.93,2.42,1.57-1.5,1.46,1.55,2,2.15.61,1.69-2.08-1.51-2.5,1.5-3.45,1.83-6,1.11-.51.76,2.93,1.95-.78-.25-1.81,2.21-1.86.28-2.76,3.51.79-1.15-3.21-3.3-.77-.66-1.52,4.24-2,2.62-.49,8.18-.66-1.51-2.22-3.13-.35-.9-.56-1.53,1-1.62-1.68-3.66-1.63-1.33-.86-2.21-4.25-3.34-3-.3-1.19,3-1.86,2.59,1.14,2.86,3,1.85.15,3.28,1.41,5.74,3.76,3.56.29,2.51,2.26,4.17,6.27,1.73-1-1.14-1.49-.08-2.09-1.89-1.64-1.33-2.31-3-.73-2.52-2.22-1.22,1.08-2.61-1.13L450,210.83l-4.53-.6-1.77-3.45-3.34-1.41.21-.54,2.83.73,4.09,2.64,1.53-.73-3.55-1.16-.78-2.62.9-2.29,3.63-.84-4.37-.7-5.08-2-.2-2.1,1.15-2.33.08-2.41H438l-2.91-2.11.16-1.13-2.06-2.48-.25-2.61-1.35-.59-.23-2.49,1.2-.57-2.69-2.44,0-1.65-2.25-.45-2.26-1L423,171.38l1.44-1.39,1.47,1.19Zm-6.59,1.47,2.44,4.59-6.88-1.9-.64-.62.28-.52,2.66-1.8ZM394,201.07l-.35,1-.3.61.46.57-.21,1-1.48-.32-.64-1.22-1.51.75.65-1.32.88-.62,1,.76-.46-1v-.88l1.62.06Zm23.2-26.58.68,1.68-1.56,1.87-2.07.9-3.74-.05-1.13.71-3.32-2.12-1.09-1.4,2.62-.94,5-1.15Z"/>
<path id="letonia" class="cls-3" onmouseover="displayName('LETONIA: 85 hombres por cada 100 mujeres');displaySecondLanguage('')" d="M401.56,310.15l-.67-3.22.55-2.88,1.89-1.86,2.76,2.79,1.92-.47-.47-3.34,1.79-1.18,1.19.29,2.52,1.09,1.95-.46,1.46.68.89,2,1.62,2.28-2.08,2.27-1.27,1.06-3-1.51h-1.39l-.6-.81-2.29.92-4.21.53Z"/>
<path id="lituania" onmouseover="displayName('LITUANIA: 86 hombres por cada 100 mujeres');displaySecondLanguage('')" class="cls-3" d="M407.59,316.66l-.48-1.05,0-1.22-1.3-.47-2.85-.27-1.38-3.5,2.53-1.81,4.21-.53,2.29-.92.6.81h1.39l3,1.51.82,1.84-1.65,1.82.12,2.53-2.35,2.2-2.52.47-1-1.19Z"/>
<path id="estonia" onmouseover="displayName('ESTONIA: 88 hombres por cada 100 mujeres');displaySecondLanguage('')" class="cls-3" d="M407.53,301.17l-.46-2.54-.7.71-1.91-1.19-.88-2.38,2.53-1.77,2.64-1.24,2.66.11,2.26-.7.59.64-.76,2.8,2,3.73-.55,1.58-1.95.46-2.52-1.09-1.19-.29Z"/>
<path id="djibouti" class="cls-3" onmouseover="displayName('YIBUTI: 84 hombres por cada 100 mujeres');displaySecondLanguage('')" d="M524.17,481.73l1.23,1.11.24,1.92-2.11,1.78,2,.71-1.05,2.87-1.05-.54-.93.61-2.3.59-.31-1.35-.55-1.15,1-2.52,1-2.42,1.81-.13Z"/>
<path id="bielorrusia" class="cls-3" onmouseover="displayName('BIELORRUSIA: 87 hombres por cada 100 mujeres');displaySecondLanguage('')" d="M410,318.05l2.52-.47,2.35-2.2-.12-2.53,1.65-1.82-.82-1.84,1.27-1.06,2.08-2.27,2.92.39.72.95,1.1-.84,2.74.34,1,1.9-.11,1.28,2.59,2.3,1.31.47.14.8,2,.24,1.16.9-.63,1.21-2.12.45-.35.53,1.12,1.23,1.64,2.52-2.16.88-.48,1.15.57,2.18-1.2-.12-2.35.83-1-.82-.77,1-1.21-.37-2.15.42-3.32-.33-2.82.26-2.07.53-1.19,1.46-1.26.42-.53-1.9-1.33-1.83,1.38-1.19-.43-1.71-1.16-1.48Z"/>
</g><g id="Poca"><path id="Per" onmouseover="displayName('PER: 97 hombres por cada 100 mujeres');displaySecondLanguage('')" class="cls-4" d="M42.12,571.6l-.74,2.31-1.74.5-3.88-4.89-.48-2.41-7.41-9.2-6.54-9.59-2.76-5-1.49-5.52.56-1.28-2.81-9.22-2.9-12.63L9.65,501.2l-1.08-3.56L8,492.72,6,487.1,4,483l1.37-1.68-.68-6.62,1.63-3.1,3.1-1.4,0,2.61-1.12.57L8,475.49l1.37.63,1.17,1.64.89,3.87,2.16-.84,1.21-3.23,2.78-3.19,4.24.91,4.59-2.87,1.71-2.67.41-4.37,1,.17,1.61,4.16.53,3.28,1.25,2.49.92,6.94,2.38,2.42,2.1-.09,1.07,1.75,2.12.94,2.23,4.18-3,3.85,1,.8,1.35,3.9L40,497.92l-.57.49-3-.84-4.39,1-.56,2.33-1.09,1.28,0,3.13-2.23.19L28,507.8l-1,.4L28,514l1.68,4.52-.88,1.87L31,522.15l1.17,3.69,3.1,2,3.07-1.46-.58,8,1.61,1.53,2.05.2,3,10.26-.78,1.39-.15,3.66,0,4.52-1.34,2L43,560.2l-.75,1.39L44,566.88Z"/>
<path id="Marruecos" class="cls-4" onmouseover="displayName('UCRANIA: 86 hombres por cada 100 mujeres');displaySecondLanguage('')" d="M324.34,401.32l2,2.07,3.47,0,3.69,1.23,1.58.14,1.2,2.93.06,2.72,1,4.76.94,1-.78,1.7-5,.48-1.82,1.54-2.21.24-.4,3.28-4.59,1.43-1.65,2.11-3.25.93-3.9.32-6.56,2.64-.54,5.28L307,436h0l-.17,2.4-2.44-.13-1.38.87-1.78-.21-1.35-.75-3.35.05-1.72,3.3-1.27.16L291,447l-6.18,4-2.15,6-1.92,1.75-.7,1.53-9.18-1.14-.07,0,.5-2,1.73-.95,1.66-2.1,0-1.55,1.85-2.91,2.64-2.47,1.44-.5,1.43-2.43.45-2.36,1.83-2.53,2.84-1.22,3.12-4.18.08-.05,2.19-1.43h3.66l3.44-2.64,2.08-.94,3.65-3.32-.26-5.65,1.91-3.65.79-2.28,2.75-2.72,3.93-1.62,2.92-1.56,2.92-4.36,1.42-2.62Z"/>
<path id="guatemala" class="cls-4" onmouseover="displayName('GUATEMALA: 97 hombres por cada 100 mujeres');displaySecondLanguage('')" d="M17.23,349.72l-.5-2.62-1.13-2.26-.28-2.57.24-3.9.91-1.32.91-.72.31-1.4L21,332.75l2.31,4.47,1.07-1.52-.11-.85.46-1.4.06-2.37.4-2.86.79,1.57,1.77-2.61,1.63,3.22L31,333.61l-2.42,3.66-3.51,5.05.58,1,.11,2,.6-.42.21,1.59-2,.29-1.74-.26-.69.68-.4,1.22-1.13.52-.64-.5-.23.75-.68-.1-1.39.05Z"/>
<path id="ghana" onmouseover="displayName('GHANA: 97 hombres por cada 100 mujeres');displaySecondLanguage('')" class="cls-4" d="M343.82,534.89l-7.12,2.36-2.54,1.41-4.1,1.1-4-1.43.25-1.72-1.85-3.87,1.32-4.89,2-3.59-1-6.32-.49-3.35.19-2.5,7.67.15,1.94.4,1.44-.66,2,.42-.35,1.36,1.8,2.33-.07,3.2.36,3.47,1.09,1.63-1.05,3.93.32,2.19,1.16,2.81Z"/>
<path id="finlandia" class="cls-4" d="M399.56,252.83l1,2.86,3.69,1.93-.26,3.47,4,4,.25,3.81,3,2.52.33,2.87,4.09,1.91.15,2.3-.9,2.91-2.49,6.48-3.83,1.31-3.39,2.4-3.38,1.63-1.92-2-2.51-1-.6-4.22-2-3.59.34-2.61,1.1-3,3.07-5.42,1-1.15-.79-1.69-3.22-1.35L395,265.73l-2.09-6.28-3.52-2.23-2.8-1.58.67-1.26,2.47,1.79,2.09-.66,2.11.58.91-2.16-.34-3.14,1.85-2,2.64,1Z"/>
<path id="eritrea" class="cls-4" onmouseover="displayName('ERITREA: 94 hombres por cada 100 mujeres');displaySecondLanguage('')" d="M521.35,483.33l-1.67-1-2.18-2.15-2.08-.92L514.07,478l-3.88-.8-2.79.72-1.16-.67-2.18,1.7-2.85-1.38-.66,3.68-4.94.28-.75-1.69.55-7-.17-3.08,1-1.71,2.81-1.52,1.49-3.11,3.4,4.55,1.95,3.81,2.65,1.57,6.36,2.67,2.76,1.91,2.71,2,1.57,1.17,2.26.75-1,1.47Z"/>
<path id="dinamarca" class="cls-4" onmouseover="displayName('DINAMARCA: 97 hombres por cada 100 mujeres');displaySecondLanguage('')" d="M380.62,314.64l-1.18,3.62-3-2.25-.52-1.77,3.61-1.7Zm-4.91-3.32-.48,1.67-.8-.42-1.61,3.21.86,2.07-1.63.74-2-.48-1.19-2.36-.3-4.41.36-1.18.65-1.32,2.18-.37.78-1.23,1.88-1.33.11,2.22-.62,1.45.4,1.19Z"/>
<path id="alemania" class="cls-4" onmouseover="displayName('ALEMANIA: 97 hombres por cada 100 mujeres');displaySecondLanguage('')" d="M373.68,317.84l.17,1.67,2.76.85.11,1.54,2.64-1,1.37-1.3,3.2,1.45,1.44,1.26.92,2.14-.61,1.23,1.19,1.45,1,2.25,0,1.52,1.53,2.66-1.2.58-.81-.43-.61.9-1.95,1-.94,1.18-2,1.11.64,1.26L383,341l1.61.93,1.87,1.74-.82,2.11-1,.64.72,2.82-.21.77-1-.82-1.46,0-2.1.94-2.7,0-.35,1.18-1.63-1.14-.9.29-3.33-1.2-.58,1-2.59.05.27-3.14,1.39-3-4.3-.69-1.42-1.12.13-1.92-.6-1,.27-3-.57-4.57,1.69,0,.66-1.66.56-4-.56-1.46.5-.93,2.25-.3.55.94,1.72-2.21-.7-1.6L370,318.1l2,.48Z"/>
<path id="r._checa" data-name="r. checa" onmouseover="displayName('R. CHECA: 97 hombres por cada 100 mujeres');displaySecondLanguage('')" class="cls-4" d="M396.58,343.85l-1.49-.66-1.35.38-2.47-1.08-1,.43-1.44,1.95-2.37-1.21-1.87-1.74L383,341l-.49-1.82-.64-1.26,2-1.11.94-1.18,1.95-1,.61-.9.81.43,1.2-.58,1.54,1.26,2.18.14v1.22l1.69.72.25-1.17,2,.24.5,1.33,2.18,0,1.71,2-.86.13-.31.84-.63.28,0,1-.53.28v.42l-.93.58-1.32.09Z"/>
<path id="suiza" onmouseover="displayName('SUIZA: 94 hombres por cada 100 mujeres');displaySecondLanguage('')" class="cls-4" d="M375,350.4l.17.77-.4,1.1,1.44.73,1.58,0-.12,1.81-1.32.81-2.33-.44-.58,1.8-1.48.2-.57-.68-1.69,1.55-1.51.25-1.38-.91-1.12-1.91-1.47.71v-2l2.2-2.51-.13-1.11,1.4.37.81-.77,2.59-.05.58-1Z"/>
<path id="brasil" class="cls-4" onmouseover="displayName('BRASIL: 97 hombres por cada 100 mujeres');displaySecondLanguage('')" d="M98.73,653.26l3.26-5.32,3.16-3.55,2.14-1.26,2.68-1.77-.75-3.82-2.54-3.34-1.75.38.21-2.58,0-2.71-.48-2.67-1.57-1.3-1.34.35-1.5-.66-.79-2-1.11-4.6-1-1.7-2.85-2.18-1.45.45-4.26-2.31-.7-6.68-1.5-3.18,1.09-.6-.7-3,.84-1.8.31-3.67-1.2-3.43-2.25-2.2L84.11,586l.38-2.67L77,580.17l-1.81-6.5,1.12.38-.14-2.2-.81-1.79-.26-3-2.27-2.46-2.41-1-1.61-2.18-2.58-2.17-1.51-2.6-4.22-2.82-4-6.61.36-3.33-.4-2.22L57,538l-4.86-1.62-2,.95-3.26.43L46,538.9,44.14,538l-2.67-1.92-2.05-.2-1.61-1.53.58-8-3.07,1.46-3.1-2L31,522.15l-2.29-1.74.88-1.87L28,514l-1-5.82,1-.4.23-2.29,2.23-.19,0-3.13,1.09-1.28.56-2.33,4.39-1,3,.84.57-.49,3.1,2.25,3.78-13.23.48-2.18,0-3.3-1.14-2.9.78-3.72,2.09.47.57,1,.53-1.88-1.87-1.9.67-3.22L55.55,474l1.52-1,.6,2.23,0,3.41.78-.2,1.37,3.89,2.79,1.38,1-1.11,2.86.45,1.63.07.85-1.86,2.83.12,0-1.16-2.9-2.25.21-3.42.92-3.23L68.81,469l.76,0L72,471.25l2.5,3,1.29-.54,2.73.77,4.41.53,1.75-1.09-.14-1.65,1.91.87.57,1.6-1,1.86L87.12,478l.33,2.72-1.38,1.15-1.46,3.82.44,3-.17,2.4,1.84,3.51,1.78,1.2.58-.74,1.22.4,1.84,0,1.45-.67,2,1.46.95.29,2,1.41.52-.82-.46-1.27.64-1.21,1.44,1.18,1.88.38,2,2.07,1.49,1.78,1.41-.74.82.6.29,1.59,1.9.51,1.79-1.13,1.81-3,3.09-3.3,1.35.37.46,3,.76,9.23,2,1.67-.4,3.31-3.54,2.66,1,1.95,6.93,3.6-.45,4.79,3.43-1.91,4.88,3.62,6.46,5.31,1.73,3.43-.92,2.35,4.94.2,7.89,5.09,6.29,1.76,6,5.64,5.12,6.64,3.23,2.2,3.67,1.15,1.49,1.83,1.23,6.12.63,2.91-1.89,7L177.18,581l-6.11,4.78-2.69,4.43-3.1,3.13-1.07-.18-1.1,3,.67,8.57-.76,6.68-.23,2.87-1.2,1.47-.21,5.86-3.66,4.9-.15,4.5-3.14,1.18-.6,2.49-4.53-1.06-6.25.21-2.58,1.34-4.37.22-4.15,2.5-2.55,3.77.12,3.34,1.21,2.73.3,4.52-.37,2.06-2.14,1.92-2.17,7.21L124,666.44,122,668l-.33,4.09-1.61,2.15-1.93-2.91.95-1.87-3.21-3.74-3.79-3.35-4.83-4.05-1.37-.21L101,653.39Z"/>
<path id="bangladesh" onmouseover="displayName('BANGLADESH: 97 hombres por cada 100 mujeres');displaySecondLanguage('')" class="cls-4" d="M664.43,332.66l2.16,3.24-1.17.42L668,339.7l-2.15-1.44-1.66-2.08-1.86-1.54-2.64-1.27-2,2.63,1.44,1.54,1,3.41-1.51.38.23,1.24-.93.36-1.1.76L654,340.52l-3-2.27-1.47-3.12-2.12.64-.65-2.22.14-3.43L643.8,330l-1.42-3.9,3-.5,1.1-1.2,2.39,2.69,2.31-2.27,1.73-2.88,1.64-1,1.85,5-.69,1.62,1.18,3.4,2.71.58-1.68-3.28.53-.86Z"/>
<path id="belgica" class="cls-4" onmouseover="displayName('BLGICA: 97 hombres por cada 100 mujeres');displaySecondLanguage('')" d="M356.07,334l2.08.36,2.63-.91,1.82,1.9,1.59,1-.27,3-.76.18-.28,2.46-2.58-2-1.5.34-2-2.07-1.31-1.77-1.33-.09-.38-1.54Z"/>
</g><g id="Normal"><path id="Estados_Unidos" data-name="Estados Unidos" onmouseover="displayName('ESTADOS UNIDOS: 97 hombres por cada 100 mujeres');displaySecondLanguage('')" class="cls-2" d="M153.36,205.85l-2.58,1.7-.73,1.2-.09,2-.41,3-1.06,3.29,1,1.78-.56,3.84.23.82L151,225l-1,3.34-1,3.53-.85,3-.76,2.87-1.07,1-.22.88-.49.13.11.77.63.19-1,.82-.5,1,.26.69-.38.74-.89.22-1,4.06-3.6,3.36-3.41,3.26L133,256l-2.82.54-1.7.55-.46.28-.46.77-.25,1.42.3.67,3.59,1.3,1.94,2.15,3.72,1.67.43-.29,1.1-1.24.58-1.06,1.23.6,1.34,2.42,1.28,2.25,2-.54.48,0,4.34.1,1.37.44,2.28,3.5,2.89,4.18,1.09-.63.7.54,1.27.41,2.28-.8,3.42-2,4.07-1-.45,1.6,1.73.82-.33,1.93-5,4.79-.89,3.4-.86,1.55-3.65-.55-3.06-1-2.92-1.29-3.08.93-1.11.42-1.94,1.89-1.32,2.68.66,1,1.11-1.57-.25,1.5-1.16.86-1.8-1-.79-1.19-1.93-1.1-.94-.85L139.84,286l-2.48-1,3.2,2.84-.17,1.39L136.88,287l-1.09-1.54.5-.37-1.53.26.33.89-3,2.08-4.05,1,.81-1.13-.18-.74.37-1.74-1.63,2.49-.23,1.28-1.35,1.43-2,.62L120,293.06v-.38l3-1.73.53-2.72,2.87-3.33L124.49,286l-2,2.87-.52-2.29,0,3-3.38,3.64.25,1-1.06,1.57-3.29,4.16-3.76,1.17-2.9-1.63-3.24.47-1.1-1.12h-2.18l-1.44.9-4.19-.58-2.65.24-2.9,1-2.77,2.35-2.12,3.28-2.34,4.42-1.57,4.18-1.43,1.79L77,322.54l-2.23,2.74-1.33,1.52L71,328.65l-1-.35-.6-2L70.49,324v-2.11l1.82-5.2L74,312.09,75.1,310,77.74,308l1.42-3.06,1.65-5.69-.08-1.79-3.22-1.29-.1-.75,1-3.33v-2.91l-2.06-3.06-.78-3.24-1.25-2.18-1.12-.74-.79,1.6L70.81,283l-.47,1.45-.74-.11.08-1.78-1.2-.5-.77-2.51,1.17-4.5-1.45-2.44.15-3.32-.9-1.85-1.73-2-3.8-.39-2.59-1.88L56.18,263l-2,.88-2.78,2.61-1.87,2-1.18,2-.46-1.3.28-3.46.65-4.08,1.72-2.83,2.73-3.45,2-4.29,2.28-3.41,2.68-4.29,1.43-4-.35-3-2.19.22,22.57-30.31,25.61-27.78,28.37-25,30.83-21.85,2.79-1.75,2.47-.68-4.67,7.91-4.21,8.32-1.25,2.76L158.24,157l-2.65,8.27-2,8.36-1.42,8.29-.87,9.27-.11,9.18.28,5.47,1.84-.85Zm196-123.69-1.78-.5-1.65.45-2.39-.65-2.84-.15.14-.37,2-.88,2.28.5,1.17.49,2.42-.35.7.24Zm-27.25,29.69-2.26-.95-.34.83-3.06.85-.46-.7-3.08.52-1.48,1-4.44.68-3.48,1.27-1.67.3-1.64,1.54-3.41.61-2.19.67h0l-13.05-8.25L260.79,98.95l-2.37,1.45-3.26,1-3.28.41-4.62.47.13,2.48-.8,2.17-3.27.2-3.14.66L236.35,109l-4.41.37-7.16.88-6.34,3-2.94-.39-1.05-1.55,2.86-.91,3.31-1.61,4.48.2,6.3-1.73,5.22.06,2.33-1.69,3.62-2.83,3.83-1.64,8.85-1.77,3-1.18,5.47-2L266.75,94l6.45-1.77,4.37-.62,2.16-1.87L277,88.44l1.26-.85,2.48-1.93,1-1.28,5.07-1.08,1.45,2.82-1.94,1.95,1.44.3,1.82-2.78.06-2.4.34-.52,37.41-5.33,4.18-.35-.39,1.64-1.63,2.08-.33,1.73-2.11.62-2.1-.12-1.44,1.9-2.06.16L320,86.38l1.26,1.25,1.73.22-1.22,1.58,1.51-.38,2.33-1.23.45-.83,2.34.28,3.49-1,4.06.17,1.49,1.12L341.2,89l-3.06,1.76-4.76,2.36-1.92.34-.35-1.62-5,1.12L329,94.48l3.35.65,2.25,1.3,2.63,1,3.33.59-.66,1.87-3.68.68-2,1.92.19,1.65-1.3,1.92-1.67.76-2.75,2.23-1.79.22-1.69,2.41Z"/>
<path id="URUGUAY" onmouseover="displayName('URUGUAY: 94 hombres por cada 100 mujeres');displaySecondLanguage('')" class="cls-2" d="M98.73,653.26l2.31.13,4.88,4.75,1.37.21,4.83,4.05,3.79,3.35,3.21,3.74-.95,1.87,1.93,2.91-.61,2.62-3.27,1.73-3.08-1.55-1.81.07-4.16-2.84-2.44-.42-3.2-3.23-.82-3.1.43-.9-1.64-4.9-.56-4.8Z"/>
<path id="chad" class="cls-2" onmouseover="displayName('CHAD: 93 hombres por cada 100 mujeres');displaySecondLanguage('')" d="M403.09,503l.33-2.12-2.79.1-.13-2.85-1.88-1.52,1.56-6,5.21-4.59-.15-5.79,1-9.16.76-2-1.84-1.38-.17-1.41-1.63-1-1.51-6.84,3.92-2.79,17.07,6.81,17.38,6.3,2.29,17.64-3.68.21-1.6,3.54-.86,2.89,1,.92-1.28,1.55.66,1.78-.95,2-.29,1.69,1.49-.45,1.06,1.59.28,2.57,1.71,1.1,0,1.08L437.37,508l-2.06,2.07-2.8,5.21-4,2.51-4.28.18-1.22.53.53,1.51-2.22,1.77-1.79,1.9L414,525.89l-1.16-.9-.74,0-.77,1.2-3.68.61.65-1.24-1.54-2.93-.71-1.78-2-.61-2.73-2.39.87-2.14,2,.3,1.23-.4,2.47-.14-2.6-3.83,0-2.94-.44-2.91Z"/>
<path id="eslovenia" class="cls-2" onmouseover="displayName('ESLOVENIA: 95 hombres por cada 100 mujeres');displaySecondLanguage('')" d="M388.26,354l2.59.1,1.43-1.15,2.67-.39.48-.8h.52l.81,1.41-2.29,1.44-.07,1.8-1,.56.17,1.23-1.24,0-1.15-.61-.49.8-2.2,0,.65-.46-1-1.8Z"/>
<path id="eslovaquia" class="cls-2" onmouseover="displayName('ESLOVAQUIA: 95 hombres por cada 100 mujeres');displaySecondLanguage('')" d="M401.45,339.21l.21.24,1.08-.76L404.5,340l1.53-1.19,1.45.23,1.94-1,3.11,1.19-.55,1.27-.18,1.85-.53.55-3.42-.8-.91.42-.49,1.13-1.28.75-.37-.23-1.32.88-1.16.29-.09.91-2.42.87-1.18-.34-1.69-.93-.53-1.48.15-.58.27-1,1.32-.09.93-.58v-.42l.53-.28,0-1,.63-.28.31-.84Z"/>
<path id="serbia" class="cls-2" onmouseover="displayName('SERBIA: 95 hombres por cada 100 mujeres');displaySecondLanguage('')" d="M410.85,356.09l2.09.73.6,1.76,2.08,1,.78-1.15.88.41-.57.86.73.66-.57,1.12.61,1.55,1.94,1.62-.94,1.58-.26,1.49.46.46-.41.71-1.49.32-1.06.43-.17-.31.29-.58.16-1.13-.45.1-.78-.71-.57-.12-.55-.63L413,366l-.57-.55-.53.33-.18,1.52-.72.43.2-.42-1.39-.73-1.14-.32-.57-.54-1-.63.72-.3.11-2.13-1.82-1.47.46-2-1.14.17.92-1.82-1.2-1.11-1-1.59,2.16-1.48,1.95-.09,2,1.46Z"/>
<path id="el_salvador" data-name="el salvador" onmouseover="displayName('EL SALVADOR: 93 hombres por cada 100 mujeres');displaySecondLanguage('')" class="cls-2" d="M21,359.22l-.87.79-1.18-2-.49-1.68-.3-2.37-.94-2.2,0-2,.47-.61,1.39-.05.68.1.23-.75.64.5.35,1.41-.13,1.7.17,1.8-.3.78,1.23.89.23,1v1Z"/>
<path id="sierra_leona" data-name="sierra leona" onmouseover="displayName('SIERRA LEONA: 95 hombres por cada 100 mujeres');displaySecondLanguage('')" class="cls-2" d="M287.89,527.42l-1.18-.46-3.08-2.14-2.14-2.64-.66-1.71-.3-3.33,2.5-1.65.6-1.17.82-.86,1.22,0,1.08-.71,3.51.41,1.11,1.72.83,2-.23,1.27.63,1.23-.15,1.61,1.23-.13-2.19,1.84-2.15,2.18-.32,1.26Z"/>
<path id="senegal" onmouseover="displayName('SENEGAL: 94 hombres por cada 100 mujeres');displaySecondLanguage('')" class="cls-2" d="M267.49,494.19l-1.35-3.75-1.92-1.93,2-.54,2.42-2.79,1.28-2.13,1.61-1.2,2,.71,2.16-.66,2.35.3,1.87,1.6,2.68,1.57,2.24,3.61,2.53,3.41-.05,2.79.62,2.65,1.51,1.44.23,1.76-.31,1.36-.65.18-2.33-.63-.37.45-1,0-3-1.48-2.08-.32L272,499.26l-1.2.33-1.41-.36-2.35.37-.33-3.52,3.88.7,1.09-.47.77.08,1.69-.79,1.74,1.2,1.86.34,2-.74L279,495l-1.49.55-1.33-.21L274.59,494l-1.36-.13-1.08.91Z"/>
<path id="rumania" onmouseover="displayName('RUMANA: 95 hombres por cada 100 mujeres');displaySecondLanguage('')" class="cls-2" d="M414.16,344.42l1.06-1.16,1.93.14,1.88-.35,1.63.79.83-.87,2-.86.46-1.17,1.22-.27,1,.22,1.26,1.08,1.44,1.61,2.43,2.17.64,1.87.21,1.92,1.1,1.85,1.57.48,1.21-1,1.58.41.4,1.1-1.2,1.29-1-.18.62,5.43-2,0-2.68-1.07-3.4,1.79L427.14,361l-4.67.67-2.57-.24-1.15.54-1.29-1.64-.73-.66.57-.86-.88-.41-.78,1.15-2.08-1-.6-1.76-2.09-.73-.61-1.34-2-1.46,2.29-1.2,1.23-3.25.79-3.19Z"/>
<path id="Portugal" class="cls-2" onmouseover="displayName('PORTUGAL: 96 hombres por cada 100 mujeres');displaySecondLanguage('')" d="M314.4,372.83l1.36-1,1.43-.48.52,2.25,2,.22.64-.49,1.91.36.66,2.31-1.69,1-.47,3.44-.63.59-.39,2.07-1.52.21,1,2.8L317.9,389l1,1.44-.62,1.15-1.5,1.52.11,1.5-1.56,1-1.78-.83-1.89.27,1-3.4,0-2.76-1.49-.6-.58-1.78.7-2.86L313,382.2l.5-1.75,1.09-2.57.2-1.88-.43-1.66Z"/>
<path id="Puerto_Rico" data-name="Puerto Rico" onmouseover="displayName('PUERTO RICO: 91 hombres por cada 100 mujeres');displaySecondLanguage('')" class="cls-2" d="M88.63,396.52,90,398.15l.11,1.34-1.3.54-2.23-1.85-1.8-1.27.76-2.11.74-.32Z"/>
<path id="Polonia" class="cls-2" onmouseover="displayName('POLONIA: 94 hombres por cada 100 mujeres');displaySecondLanguage('')" d="M389.36,333.56l-1.53-2.66,0-1.52-1-2.25-1.19-1.45.61-1.23-.92-2.14,1.65-1.45,3.82-2.46,3-1.87,2.73.37.4,1,2.53-.32,3.31,0,4.76-.91,1.44.2,1,1.19.61,1.87,1.16,1.48.43,1.71-1.38,1.19,1.33,1.83.53,1.9,2.34,3.48v1.27l-1.27.77L412,337.61l1.19,1.81-.69-.14-3.11-1.19-1.94,1-1.45-.23L404.5,340l-1.75-1.32-1.08.76-.21-.24-1.71-2-2.18,0-.5-1.33-2-.24-.25,1.17-1.69-.72V335l-2.18-.14Z"/>
<path id="Nepal" class="cls-2" onmouseover="displayName('NEPAL: 95 hombres por cada 100 mujeres');displaySecondLanguage('')" d="M636.9,321.39l1.24,2,2.3,2.28,1,2-1.67,2.47-3.27,2.43-2,1.76-2.81-.56L628.31,337l-4.64,1.11-3.63.41-3.37.91-1.89-4.91.05-3.51.18-2.06,2.71-.83h4.22l1.66-.92,2.22,1.08,2.27-1.31,3.09-.42,3.06-2.22Z"/>
<path id="Nicaragua" class="cls-2" onmouseover="displayName('NICARAGUA: 95 hombres por cada 100 mujeres');displaySecondLanguage('')" d="M19.72,377.4l0-2.69-.06-3.53.36-2.39-.12-2.94L20,362l.65-.39,0,1.29.35-.1.78.82.87-.71.34.44,1.26-2.47.57.65.44.72,1.18-.59.11,1.94.55-.27.72,0,1.5-.21.58-.94.19.35.92-.74.31.19,0,1.28.33.85.83.09L33,365l1.13.47.67-.22.74,1.17-.45.19-.7.91-.7,2.08-1.41.93L31,372.11l-1.18,2-.51,1.43-1,2.29h-.61l-1.26,1.82-.47,1.52-1.1.63-.52,1.49v1.3l-1.08.31-.56-1.26.08-1.55-.56-1.42-.86-.08-.92-3.42Z"/>
<path id="Namibia" class="cls-2" onmouseover="displayName('NAMIBIA: 96 hombres por cada 100 mujeres');displaySecondLanguage('')" d="M411.92,678l-3.11-2.84-1.58-2.82-.79-3.83-1-2.85-1.25-6.12.07-4.83-.51-2.18-1.72-1.59-2.26-3.26-2.28-4.8-.95-2.53-3.66-3.87-.23-3.15,2.23-.87,2.77-.81h3l2.71,1.74.7-.32,18.59-1.27,3.11,1.76,11-.28,8.43-2.45,3.76-1.31,2.93-.05,1.75.76,0,.34-2.59,1.2-1.38.15-3,1.92-1.67-1.56L438,634.38l-3.39.42-.79,14.7-4.46.47-.67,11.87-1.08,14.82-4.1,2.27-2.39.43-2.71-.6-2-.18-.63-1.65-1.68-1Z"/>
<path id="Mauritania" class="cls-2" onmouseover="displayName('MAURITANIA: 97 hombres por cada 100 mujeres');displaySecondLanguage('')" d="M287.35,492.4,284.82,489l-2.24-3.61-2.68-1.57-1.87-1.6-2.35-.3-2.16.66-2-.71-1.61,1.2-.07-2.46,1.44-2,1.05-4.11.12-4.48-.2-2.3.71-2.16-.76-2.29L270.32,461l1.1-1.33,15.92,2.5,0-6.54,1.28-2.15,3.82.12,1.29-11.41L306.69,444l.72-6.74,14,12.17-6.15-.43.49,19.38.8,19.34.71.6-1.13,3-17.2-1.48-.72.92-1.63-.47-2.48.61-2.87-1.58-1.36-.06-1,2.53Z"/>
<path id="Mozambique" class="cls-2" onmouseover="displayName('MOZAMBIQUE: 96 hombres por cada 100 mujeres');displaySecondLanguage('')" d="M497.13,598.52l3.36-.93,5.34.28,1.17-.77,3.09-.69,1.59-1.62,2.66-.44,4.84-2.68,3.51-3.3.71,1.84-.22,4.46.48,3.77,0,6.87.69,2-1.44,3.41L521,614.1l-2.94,3.24L514,619.74l-5.1,3-5.29,5.46-1.76,1.06-3.31,3.53-1.9,1.26-.61,3.1,1.82,2.91.64,2.37-.07,1.26.8-.33-.55,4.18-.92,2.07,1,.58-.85,1.85-2,1.76-3.77,1.91-5.52,2.95-2.1,1.78.16,1.7,1.08.14-.65,2.23-3.3.36-.15-1.78-.42-1.78-.2-1.44,1.29-4.73-.84-2.82-1.57-5.62,5.07-5.38,1.41-3.21.7-.48.68-2.57-.63-1.16.4-3.2,1-3.08.27-5.41-2.26-1h-2.12l-.92-.92-2-.61-3.75.6-.23-1.55-.33-3,13.74-5.54,2.52,1.67,1.24-.59,1.73.81.2,1.69-1,2.16.2,3,2.78,2.2,1.5-3.21,2-1.23-.16-5.51-1.77-2.83-1.57-1.13-1.55.32L495.84,602Z"/>
<path id="Mongolia" class="cls-2" onmouseover="displayName('MONGOLIA: 96 hombres por cada 100 mujeres');displaySecondLanguage('')" d="M555.4,245.66l.38-2.93-1.89-6.86-.78-4.81,2.07-1.2.85-2.42,2.6-.36.85-2.31,2.05-2.88-2.69-4.13-3-.45-4.38-4.93,2.41-1.73.88-1.94,1.58-2.31,3.64,1.18,2.36-2.67-.72-2.82-.5-3.52.68-2.32,2.33-1.61,2.47-.6-.14-2.51.59-3.09-1.44-2.94-1.24-3.85-4.13-5.09.25-1.45,1.41-.91-1.11-3.37,4.08,2.44,5.39,3.55,1.9-.06-.95-1.82.18-2.58-2.37-2.76,1-1.83,2.79-1.62,1.87.84.05,2.16,1.68,4.48,1.85,2.55,3.69,3.34,2.62,5.28,3,4-.7,2.66-.31,1.48,3.23,3,1.81-.11,1.57.24,1.73,2.9,2.63,3.45,1.68,4.44,0,4.67,1.27,5.8,2.1,5-1.59.47-.52,3.6L597,229l-1.24,2.42-.25,4.2L593,240.77l-.84,3.12-3.09-.21-4.4-1.56-1,1.31-3.82,1.28-1.94,3-2,2.48-2.22-.44-4.56-4.51-4.16-.74-3.11,2.26-3.17.36Z"/>
<path id="Mali" class="cls-2" onmouseover="displayName('MAL: 95 hombres por cada 100 mujeres');displaySecondLanguage('')" d="M287.35,492.4l1.51-.63,1-2.53,1.36.06,2.87,1.58,2.48-.61,1.63.47.72-.92,17.2,1.48,1.13-3-.71-.6-.8-19.34-.49-19.38,6.15.43,13.14,10.57,13.67,10.19,1,2.1,2.59,1.31,1.94.75,0,2.83,4.69-.4v10.22l-2.36,3-.38,2.73-3.84.66-5.9.27-1.63,1.53-2.78.1-2.78-.07-1.06-.89-2.4.54-4.11,1.66-.88,1.34-3.45,1.81-.64,1.1-1.86.8-2.08-.72-1.24,1-.78,3-3.65,3.43,0,1.5-1.29,1.79.17,2.58-1.85.52-1.06.48L312,513.1l-1.3.4-.76-.15-.88,1.22-3.4-.32-1.18-.77-.6.35-1.27-1.39.31-1.29-.52-.57-1,.35.26-1.42,1-1.05-1.67-2-.44-1.27-.9-1.07-.86-.2-1.09.51-1.45.45-1.26.83-1.84-.55L292,503.88l-.71-.23-1.18.46-.69-.07-.12-1.65.31-1.36-.23-1.76-1.51-1.44-.62-2.65Z"/>
<path id="Mexic" class="cls-2" onmouseover="displayName('MXICO: 96 hombres por cada 100 mujeres');displaySecondLanguage('')" d="M48.36,270.61l-3.79,2.07-3,2.25-5.21,5.23-1.95,1.68-1.87,3L31.09,288,29.83,290l-2.77,6.37-.49,1.53-.8,1.56L24,303.78,23.64,305l.55,5.11-.81,3.42,2.24,1.9,1.51,2.27,1.77,1.83,1.58,1.43,2.37.36,2.29-1.8L38,316l1.25-.7,2,1.15L43.8,319l1.42,3.1,1.35,1.62-.25,1.72-1.59,2-2.86.89-2.35,2-.2,1.4-1.62,1.47-2.86,2.74.31-2-.44-.62-.39-.58-2.52,1.57,0-1.16-.36-.2-.44.71L29.4,330.4l-1.63-3.22L26,329.78l-.79-1.57-.4,2.86-.06,2.37-.46,1.4.11.85-1.07,1.52L21,332.75l-3.33,2.18-.31,1.4-.91.72-.91,1.32,1.33-9.21.18-3.41-.24-2.14,13.72-35.21,17.32-33.58,11.28-18.07,2.19-.22.35,3-1.43,4-2.68,4.29-2.28,3.41-2,4.29-2.73,3.45-1.72,2.83-.65,4.08-.28,3.46Z"/>
<path id="moldavia" class="cls-2" onmouseover="displayName('MOLDAVIA: 95 hombres por cada 100 mujeres');displaySecondLanguage('')" d="M425.21,340.68l.51-.79,1.79-.86,2.51.84,1.23-.12,1.65.84.24,1.51,1.27.44,1,1.69,1.36.84v.69l.68.3-.68.52-1.78.31-.47-.53-.52.49.44.72-.41,1.57-.1,1.61-.62.65-1.1-1.85-.21-1.92-.64-1.87-2.43-2.17L427.47,342l-1.26-1.08Z"/>
<path id="sri_lanka" data-name="sri lanka" onmouseover="displayName('SRI LANKA: 96 hombres por cada 100 mujeres');displaySecondLanguage('')" class="cls-2" d="M671.19,432.91l1.24,5.59-.86,2.5-2.4,3.34-2.74-2.78-2.87-6.68-1.39-9.12,3.11,1,2.66,2.27Z"/>
<path id="kyrguistan" class="cls-2" onmouseover="displayName('KIRGUISTN: 96 hombres por cada 100 mujeres');displaySecondLanguage('')" d="M554.48,306.48l-.94-2.13.91-1.88,4.5-2.12-1.67-2.54.42-2,4.2-1.48.31-1.19,3.18-3.54,3-2.95,2.18.16,1.61-.89.57,1.14-.9,5.6.73,2.28-2,3.34,1.43,3.25-2.58,1.85-.76,2.27-.46,3.9,1,.6.13,1.51-3.67,4.65-3.79,1.31-2.25,2.54-1.53-2.47,3-1.58-.14-2,2-1.21.45-5.49-4.22.47-.74,2.44-2.8.06-.26-4.2Z"/>
<path id="kazakhastan" class="cls-2" onmouseover="displayName('KAZAJISTN: 92 hombres por cada 100 mujeres');displaySecondLanguage('')" d="M554.48,306.48l-.64,1.87-.72,5.35,1.2,3.67-.84.77-2.06-1.32-3,2.35-2.91-2.84-1.15.9-2.83-4.07-4.92-.64-3.73,3.39-2.35,2.63-4.83-1.93-3-.12-5.69-.3-.69,0-4.7,6.39L521,337.47l-1.25,1L516,336.34l-2.49-.12-2.56,2.56-.43,2-.72-.93-.31-2.09-1.34-1.16-3.93.26-3.3-3.07-2.06-.28-.84-1.3,2.8-1-1.64-3.05,1.81-1.86,2.61-.64-2-4.21-2-2.24-2.37,1.6-2.74.18-1.88,3.35-1.92,2.09H489l-.93-2.24-3.18-1.92-1.84,1-3.71-1.74-.26-3.79-1.2-.48-.6-5.41,3.88,1.08L479.68,310l2.09-6.91,3.47-2.12,6.81-.26,3.76-.09,1.13-3.15,3.34-2.4,4.25,0-.29-1.57,3-2-1-2.16-5.41-.08.41-3.27-1.23-.73,1-2.41-3.58-1.42-.23-1.93,5.64-7v-1.64l2.89-5.28-.07-2.87,3.59-2.25,4.35,2.92.7-2.61,3.22-1.13,2,1.94,1.22-1.92-.16-7.6.75,1.66,4.81.06,13.18,3.67L538,254.72l4.14-1,.75-3.81,1.42-.62,3,.74,1.64-.93,2.27.36.92-3.27,3.18.64,1.92,3.76-.61,2.18,4.06,3.26,1.12,2.72-4,3.44,6,7.59.08,1.92-1.63,5.84,8,4.07-.21,2.51,2.22,1.86-1.61.89-2.18-.16-3,2.95-3.18,3.54-.31,1.19-4.2,1.48-.42,2,1.67,2.54-4.5,2.12-.91,1.88Z"/>
<path id="italia" class="cls-2" onmouseover="displayName('ITALIA: 93 hombres por cada 100 mujeres');displaySecondLanguage('')" d="M398,389.94l-.88,3.61.68,1.32-.5,2.35-2.89-1.43-1.85-.33-5.13-1.88.31-2.31,4.13.09,3.52-.79Zm-22.72-11.65,2.2,3.05-.16,5.88-1.59-.21-1.35,1.54L373,387.42l-.36-5.34-.88-2.5,1.87.16Zm8.45-25.09,4.52.77-.1,2.19,1,1.8-2.56-.43-2.4,1.76.37,2.17-.28,1.28,1.25,2.16,3.24,2,2,3.5,4.06,3.21,2.59-.29.93.89-.82,1,3.19,1.27,2.64,1,3.21,1.95.47.78-.4,1.66-2.17-1.83-3-.38-1.06,3,2.68,1.36-.1,2.35-1.41.42-1.39,4-1.42.49L398.6,390l.43-2.45.64-1L398,384.06l-1.3-2.12-1.47-.41L394,379.71l-2.25-.61-1.63-1.65-2.51-.09-2.79-1.8-3.26-2.68-2.42-2.41-1.3-4.31-1.64-.43-2.7-1.34-1.45.65-1.78,2.11-1.34.36.31-1.93-1.77-.52-.92-3.39,1.06-1.37-1-1.63.1-1.25,1.38.91,1.51-.25,1.69-1.55.57.68,1.48-.2.58-1.8,2.33.44,1.32-.81.12-1.81,1.91.51.29-.86,3-1Z"/>
<path id="hungra" class="cls-2" onmouseover="displayName('HUNGRA: 91 hombres por cada 100 mujeres');displaySecondLanguage('')" d="M395.43,351.74l.6-2.93-.72-.88,1.69-.21,0-1.81,1.69.93,1.18.34,2.42-.87.09-.91,1.16-.29,1.32-.88.37.23,1.28-.75.49-1.13.91-.42,3.42.8.53-.55,1.89.89.47,1.13-1.61,1.23-.79,3.19-1.23,3.25-2.29,1.2-1.95.09-2.16,1.48-1,.81-2.69-.51-2.59-1.6-1.06-.43-.81-1.41Z"/>
<path id="croacia" class="cls-2" onmouseover="displayName('CROACIA: 93 hombres por cada 100 mujeres');displaySecondLanguage('')" d="M404.14,354.86l1,1.59,1.2,1.11-.92,1.82-1.58-.78-2.16.34-2.81-.4-1.45.27-.55,1-1.27-.88-.42,1.89,1.83,1.89.88,1.28,1.7,1.47,1.37.83L402.5,368l3.13,1.3-.24.79-3.31-1.24L400,367.46l-3.13-1-3.11-3,.6-.39-1.68-1.7-.24-1.48-2.11-.5-.76,2L388.45,360l-.09-1.53.1-.08,2.2,0,.49-.8,1.15.61,1.24,0-.17-1.23,1-.56.07-1.8,2.29-1.44,1.06.43,2.59,1.6,2.69.51Z"/>
<path id="grecia" class="cls-2" onmouseover="displayName('GRECIA: 95 hombres por cada 100 mujeres');displaySecondLanguage('')" d="M428.42,397.23l2.22,1.15,2.7-.75,2.69-.18.07.78,1.81-.9-.17,1.39-5,1.33-.11-.74-4.5-.1Zm4.28-27.63-.35,2.95-.66.65-2,.27-1.8-.08-3.74,1.88,2.82,2.05-1.54,1-1.86.33-2.21-2-.44,1.07,1.26,2.5,2.09,1.78-1.09,1.18,2.29,1.7,1.94,1,.55,2.48-3.41-.62,1.45,2.08-2.11.83,2,3.68-2.32.44-3.21-1.47L418.46,390l-1.11-2.85-1.68-1.83-2.17-2.26-.44-1.22,1.21-2.37,0-1.46,1-.8-.14-1.17,2.1-.73,1.08-1.16L420,374l.39-.86.6-.25,2.45-.3,2.35-1.69,2.64,1.09,2.86-1-.49-2.19Z"/>
<path id="guinea-bisau" class="cls-2" onmouseover="displayName('GUINEA-BISSAU: 96 hombres por cada 100 mujeres');displaySecondLanguage('')" d="M273.13,506.57,271,504.38l-1.79-.56-.86-1.4.09-.67-1.21-1.15-.17-1,2.35-.37,1.41.36,1.2-.33,7.93,1.31-.22,1.49-.52.4.23,1.52-.74.5-1-.12-1.2.59-1.31-.26Z"/>
<path id="georgia" onmouseover="displayName('GEORGIA: 92 hombres por cada 100 mujeres');displaySecondLanguage('')" class="cls-2" d="M479.49,356.16l-.32-2-2-2.62-2.37-.92-1.84.12-1.62-.91.15-.63,2.78-.19,4.59-1,4.87.44.87.58,1.45-1.4,3.1-.27,1.71,1.35,2.28.18-.47.91,2.52,1.65-.16.67-1.7.44-2.75-.28-.4,1-3.82,2.37-3.78-.95Z"/>
<path id="croacia-2" onmouseover="displayName('BOSNIA Y HERZEGOVINA: 95 hombres por cada 100 mujeres');displaySecondLanguage('')" data-name="croacia" class="cls-2" d="M405.47,359.38l1.14-.17-.46,2,1.82,1.47-.11,2.13-.72.3-.53.48-.88,1.16-.09,2.48L402.5,368,401,366.28l-1.37-.83-1.7-1.47-.88-1.28-1.83-1.89.42-1.89,1.27.88.55-1,1.45-.27,2.81.4,2.16-.34Z"/>
<path id="bulgaria" class="cls-2" onmouseover="displayName('BULGARIA: 94 hombres por cada 100 mujeres');displaySecondLanguage('')" d="M417.45,360.33l1.29,1.64,1.15-.54,2.57.24,4.67-.67,1.28-1.43,3.4-1.79,2.68,1.07,2,0-1.12,2.17-.32,3.37,1.68,2.26-2.9,0-2.93,2.06.49,2.19-2.86,1-2.64-1.09-2.35,1.69-2.45.3L420.2,370l-1.91-1.13.41-.71-.46-.46.26-1.49.94-1.58L417.5,363l-.61-1.55Z"/>
<path id="austria" class="cls-2" onmouseover="displayName('AUSTRIA: 96 hombres por cada 100 mujeres');displaySecondLanguage('')" d="M397,345.91l0,1.81-1.69.21.72.88-.6,2.93-.48.8-2.67.39-1.43,1.15-2.59-.1-4.52-.77-.83-1.48-3,1-.29.86-1.91-.51-1.58,0-1.44-.73.4-1.1-.17-.77.9-.29,1.63,1.14.35-1.18,2.7,0,2.1-.94,1.46,0,1,.82.21-.77-.72-2.82,1-.64.82-2.11,2.37,1.21,1.44-1.95,1-.43,2.47,1.08,1.35-.38,1.49.66-.15.58Z"/>
</g><g id="Letras_copia" data-name="Letras copia"><text class="cls-5" transform="translate(614.57 623.33)">Hasta <tspan x="15.57" y="19.2">52%</tspan></text><text class="cls-5" transform="translate(614.72 535.45)">Desde <tspan x="6.67" y="19.2">50,5%</tspan></text><text class="cls-6" transform="translate(-0.13 689.24)"><tspan xml:space="preserve">Fuente: CIA World Factbook  </tspan></text><text class="cls-6" transform="translate(572.24 689.53)">LA VANGUARDIA</text><text class="cls-7" transform="translate(98.74 48.36)">HAZ CLIC EN CADA PAS PARA OBTENER MS INFORMACIN</text><text class="cls-8" transform="translate(22.06 24.36)">En qu pases hay ms mujeres que hombres</text><rect class="cls-9" x="670.52" y="519.36" width="9" height="127.1" transform="translate(1350.05 1165.83) rotate(180)"/>
</g><g id="Letras"><text class="cls-7" transform="translate(98.74 48.36)">HAZ CLIC EN CADA PAS PARA OBTENER MS INFORMACIN</text></g>
 	<text class="label" x="150" y="73" id="country-name"> </text>
 	<text class="label2" id="SecondLanguage" x="150" y="105"> </text>


<script type="text/javascript"><![CDATA[  
    function colourCountry(country_name, colour) {
        var country = document.getElementById(country-name);
        country.setAttributeNS(null, 'fill', colour);
    }
  
    function displayName(name) {
        document.getElementById('country-name').firstChild.data = name;
    }

    function displaySecondLanguage(language2) {
        document.getElementById('SecondLanguage').firstChild.data = language2;
    }
]]></script></svg>