<svg id="de02318c-36e6-4134-bdb7-2a59f2ed020a" data-name="Capa 1" xmlns="http://www.w3.org/2000/svg" viewBox="0 0 473 463"><defs><style>.\33 f2a8159-d297-46ac-b10e-c780932a4610,.b40e32ad-5869-454d-b458-563cf8d1bbb8,.fd579e7a-1d0a-4b3b-ae59-21ffbbc19183{fill:none;}.b40e32ad-5869-454d-b458-563cf8d1bbb8{stroke:#323232;}.\33 f2a8159-d297-46ac-b10e-c780932a4610,.\37 3f1cbf5-20ce-4da2-b89f-68bcfc0c5e16,.b40e32ad-5869-454d-b458-563cf8d1bbb8,.fd579e7a-1d0a-4b3b-ae59-21ffbbc19183{stroke-miterlimit:10;}.\38 5219f80-d027-4198-9c32-8318cceca1f9,.aaa1315b-0471-452c-a7d2-be6086a0ad0c{fill:#323232;}.fd579e7a-1d0a-4b3b-ae59-21ffbbc19183{stroke:#757575;}.\36 122871d-0d94-4688-8930-9b8a5cc67621{font-size:16px;}.\36 122871d-0d94-4688-8930-9b8a5cc67621,.\37 bc7fa45-8601-43b5-9b52-763dde0ddd79,.a2b84146-ba4c-42ea-8322-1fd59cb15023,.b6c0c2db-8359-4cb7-b136-48575d521634,.dbd618ac-dbe1-4992-a838-baba802103aa{fill:#757575;}.\36 122871d-0d94-4688-8930-9b8a5cc67621,.\37 bc7fa45-8601-43b5-9b52-763dde0ddd79,.a2b84146-ba4c-42ea-8322-1fd59cb15023,.dbd618ac-dbe1-4992-a838-baba802103aa{font-family:ArialMT, Arial;}.dbd618ac-dbe1-4992-a838-baba802103aa{font-size:12px;}.\37 bc7fa45-8601-43b5-9b52-763dde0ddd79,.b6c0c2db-8359-4cb7-b136-48575d521634{font-size:14px;}.\32 f29515a-e56a-4722-9db8-510d9568574f,.aaa1315b-0471-452c-a7d2-be6086a0ad0c,.b6c0c2db-8359-4cb7-b136-48575d521634{font-family:Arial-BoldMT, Arial;font-weight:700;}.\33 f2a8159-d297-46ac-b10e-c780932a4610{stroke:#d6d6d6;}.aaa1315b-0471-452c-a7d2-be6086a0ad0c{font-size:22px;}.\31 f633069-b807-4bb9-8de7-22f4aeec18e7{fill:#283659;}.\30 86d47a2-e02e-4382-86c4-bbf215dc407a,.\32 f29515a-e56a-4722-9db8-510d9568574f{fill:#fff;}.\37 3f1cbf5-20ce-4da2-b89f-68bcfc0c5e16{fill:#8e244f;stroke:#fff;stroke-width:0.5px;opacity:0.76;}.\32 f29515a-e56a-4722-9db8-510d9568574f,.a2b84146-ba4c-42ea-8322-1fd59cb15023{font-size:13px;}</style></defs><title>paridadeuropa</title><path class="b40e32ad-5869-454d-b458-563cf8d1bbb8" d="M410.5,138.5c36.81-12.59,49.22,26.41,50,87"/><polygon class="85219f80-d027-4198-9c32-8318cceca1f9" points="456.69 222.77 460.41 224.29 464.1 222.68 460.5 231.5 456.69 222.77"/><line class="fd579e7a-1d0a-4b3b-ae59-21ffbbc19183" x1="8.98" y1="392.42" x2="466.68" y2="392.42"/><text class="6122871d-0d94-4688-8930-9b8a5cc67621" transform="translate(8.66 386.02) scale(0.99 1)">0</text><text class="6122871d-0d94-4688-8930-9b8a5cc67621" transform="translate(4.83 326.02) scale(0.99 1)">10</text><text class="6122871d-0d94-4688-8930-9b8a5cc67621" transform="translate(5.5 264.02) scale(0.99 1)">20</text><text class="6122871d-0d94-4688-8930-9b8a5cc67621" transform="translate(7.83 142.02) scale(0.99 1)">40</text><text class="6122871d-0d94-4688-8930-9b8a5cc67621" transform="translate(7.83 79.02) scale(0.99 1)">50</text><text class="6122871d-0d94-4688-8930-9b8a5cc67621" transform="translate(7.83 202.02) scale(0.99 1)">30</text><text class="dbd618ac-dbe1-4992-a838-baba802103aa" transform="translate(5.5 459.02) scale(0.99 1)">Fuente: Elaboración Propia</text><text class="7bc7fa45-8601-43b5-9b52-763dde0ddd79" transform="translate(110.5 411.02) scale(0.99 1)">Suiza</text><text class="7bc7fa45-8601-43b5-9b52-763dde0ddd79" transform="translate(276.5 142.02) scale(0.99 1)">Media Europea: 25%</text><text class="b6c0c2db-8359-4cb7-b136-48575d521634" transform="translate(25.5 411.02) scale(0.99 1)">Parlament</text><text class="7bc7fa45-8601-43b5-9b52-763dde0ddd79" transform="translate(415.5 410.02) scale(0.99 1)">Reino <tspan x="0" y="16.8">Unido</tspan></text><text class="7bc7fa45-8601-43b5-9b52-763dde0ddd79" transform="translate(230.5 411.02) scale(0.99 1)">Portugal</text><text class="b6c0c2db-8359-4cb7-b136-48575d521634" transform="translate(158.5 411.02) scale(0.99 1)">Congreso<tspan x="0" y="16.8">diputados</tspan></text><text class="7bc7fa45-8601-43b5-9b52-763dde0ddd79" transform="translate(302.5 411.02) scale(0.99 1)">Italia</text><line class="3f2a8159-d297-46ac-b10e-c780932a4610" x1="8.85" y1="329.5" x2="466.12" y2="329.5"/><line class="3f2a8159-d297-46ac-b10e-c780932a4610" x1="8.85" y1="267.5" x2="466.12" y2="267.5"/><line class="3f2a8159-d297-46ac-b10e-c780932a4610" x1="8.85" y1="205.5" x2="466.12" y2="205.5"/><line class="3f2a8159-d297-46ac-b10e-c780932a4610" x1="8.85" y1="145.5" x2="466.12" y2="145.5"/><line class="3f2a8159-d297-46ac-b10e-c780932a4610" x1="8.85" y1="83.5" x2="466.12" y2="83.5"/><text class="aaa1315b-0471-452c-a7d2-be6086a0ad0c" transform="translate(80.37 24.75)">Porcentaje de mujeres en las <tspan x="44.61" y="26.4">cámaras legislativas</tspan></text><polygon class="1f633069-b807-4bb9-8de7-22f4aeec18e7" points="366 443.21 469.44 443.21 469.44 458.93 366 458.93 366 443.21 366 443.21"/><path class="086d47a2-e02e-4382-86c4-bbf215dc407a" d="M449,446.72h-4v.49l1,.25v7.31a.87.87,0,0,1-.73.37,1.55,1.55,0,0,1-1.29-.94l-1-1.77a2.05,2.05,0,0,0-1.81-1.22v-.12a2.42,2.42,0,0,0,2.5-2.25c0-1.52-1.38-2.11-3-2.11h-3.6v.49l1.17.25v7.42h0l-1.35.26L433.61,446a4.23,4.23,0,0,1-1.21,1l.13.37-3.08,7.53-.93.25v.49h2.81v-.49l-.92-.24,1-2.74h2.85l1,2.72-1.07.26v.49h6.82v-.49l-1.12-.24v-3.45a1.69,1.69,0,0,1,1.52,1.12L442.8,455a2.19,2.19,0,0,0,2,1.19,1.93,1.93,0,0,0,1.28-.53h3.05a4.59,4.59,0,0,0,4.71-4.46,4.47,4.47,0,0,0-4.79-4.46Zm-17.3,4.74,1.2-3.17,1.16,3.17Zm8.83-.67h-.61v-3.32h.76a1.5,1.5,0,0,1,1.56,1.59,1.73,1.73,0,0,1-1.69,1.74Zm8.39,4.11h-1.27v-7.44h1.3c2,0,3.27,1.4,3.27,3.72s-1.29,3.72-3.3,3.72Z"/><path class="086d47a2-e02e-4382-86c4-bbf215dc407a" d="M383.93,454.9l-3.29-8.95a4.23,4.23,0,0,1-1.21,1l.13.37-3.06,7.53-.66.25-.2.49h2.72v-.49l-.92-.24,1-2.74h2.85l1,2.72-1.07.26v.49h3.67v-.49l-1-.24Zm-5.23-3.43,1.21-3.17,1.16,3.17Z"/><polygon class="086d47a2-e02e-4382-86c4-bbf215dc407a" points="376.07 453.37 375.74 453.19 373.82 454.94 372.17 454.94 372.17 447.47 373.16 447.22 373.16 446.72 369.62 446.72 369.62 447.22 370.61 447.47 370.61 454.88 369.62 455.14 369.62 455.63 375.19 455.63 376.07 453.37 376.07 453.37"/><polygon class="086d47a2-e02e-4382-86c4-bbf215dc407a" points="391.56 446.72 391.56 447.22 392.64 447.47 390.3 453.44 387.85 447.46 389.01 447.22 389.01 446.72 385.05 446.72 385.05 447.22 386.18 447.46 389.7 455.94 390.08 455.94 393.59 447.48 393.61 447.48 394.71 447.22 394.71 446.72 391.56 446.72 391.56 446.72"/><path class="086d47a2-e02e-4382-86c4-bbf215dc407a" d="M426.7,446.72v.49l1.07.25s.08,4.42,0,5.53a2.25,2.25,0,0,1-2.3,2.2h-.11a2.21,2.21,0,0,1-2.4-2.29v-5.44l1-.24v-.49h-3.58v.49l1,.24v5.48a3.29,3.29,0,0,0,3.54,3.12,3.22,3.22,0,0,0,3.54-3.12l.07-5.47,1-.25v-.49Z"/><path class="086d47a2-e02e-4382-86c4-bbf215dc407a" d="M465.43,454.88,462.16,446a4.23,4.23,0,0,1-1.21,1l.13.37L458,454.92l-.52.21-.71-.22v-7.45l1.09-.25v-.49h-3.73v.49l1.08.25v7.42l-1,.24v.49h5.68v-.49l-.92-.24,1-2.74h2.85l1,2.72-1.07.26v.49h3.68v-.49l-1-.26Zm-5.22-3.42,1.21-3.17,1.16,3.17Z"/><path class="086d47a2-e02e-4382-86c4-bbf215dc407a" d="M407.56,446.72v.49l1.09.25.07,5.83-5.59-6.58h-2.38v.49l1.08.24.09,0-.08,7.38h0l-1.12.26-3.37-9.19a4.23,4.23,0,0,1-1.17,1l.13.37-3.08,7.53-.93.25v.49h2.81v-.49l-.92-.24,1-2.74h2.85l1,2.72-1.07.26v.49h5.86v-.49l-1.12-.25-.13-6.44L409,456h.42l.08-8.48,1.08-.25v-.49Zm-12.13,4.74,1.21-3.17,1.16,3.17Z"/><path class="086d47a2-e02e-4382-86c4-bbf215dc407a" d="M417,451.08v.49l1,.25v2.87a3.34,3.34,0,0,1-2,.67c-2,0-3.32-1.69-3.32-4.07S413.91,447,416,447a3.18,3.18,0,0,1,3,2.43l.29-.17V446.5l-.26-.14-.56.69a5.62,5.62,0,0,0-2.47-.63,5,5,0,0,0-5,4.91,4.53,4.53,0,0,0,4.3,4.75h.32a4.6,4.6,0,0,0,2.87-1l.79.52h.25v-3.83l.84-.32v-.41Z"/><rect class="73f1cbf5-20ce-4da2-b89f-68bcfc0c5e16" x="237.34" y="195" width="37.63" height="196.25"/><text class="a2b84146-ba4c-42ea-8322-1fd59cb15023" transform="translate(348.5 411.02) scale(0.99 1)">Alemania</text><rect class="73f1cbf5-20ce-4da2-b89f-68bcfc0c5e16" x="357.21" y="202" width="37.63" height="189.25"/><rect class="73f1cbf5-20ce-4da2-b89f-68bcfc0c5e16" x="170.11" y="150" width="37.63" height="241.25"/><rect class="73f1cbf5-20ce-4da2-b89f-68bcfc0c5e16" x="109.13" y="128" width="37.63" height="263.25"/><rect class="73f1cbf5-20ce-4da2-b89f-68bcfc0c5e16" x="414.33" y="251" width="37.06" height="140.25"/><polygon class="73f1cbf5-20ce-4da2-b89f-68bcfc0c5e16" points="44.56 128 82.34 128 82.34 391.5 44.62 391.5 44.56 128"/><rect class="73f1cbf5-20ce-4da2-b89f-68bcfc0c5e16" x="297.67" y="198" width="37.63" height="193.25"/><text class="2f29515a-e56a-4722-9db8-510d9568574f" transform="translate(50.5 142.02) scale(0.99 1)">43,7</text><text class="2f29515a-e56a-4722-9db8-510d9568574f" transform="translate(115.5 142.02) scale(0.99 1)">43,6</text><text class="2f29515a-e56a-4722-9db8-510d9568574f" transform="translate(175.5 165.02) scale(0.99 1)">39,4</text><text class="2f29515a-e56a-4722-9db8-510d9568574f" transform="translate(363.5 219.02) scale(0.99 1)">30,7</text><text class="2f29515a-e56a-4722-9db8-510d9568574f" transform="translate(243.5 211.02) scale(0.99 1)">31,3</text><text class="2f29515a-e56a-4722-9db8-510d9568574f" transform="translate(308.5 215.02) scale(0.99 1)">31</text><text class="2f29515a-e56a-4722-9db8-510d9568574f" transform="translate(418.5 267.02) scale(0.99 1)">22,8</text><line class="b40e32ad-5869-454d-b458-563cf8d1bbb8" x1="10" y1="236" x2="466" y2="236"/></svg>