<svg id="Capa_1" data-name="Capa 1" xmlns="http://www.w3.org/2000/svg" viewBox="0 0 641.56 517.33"><defs><style>.cls-1{font-size:27px;font-family:Arial-BoldMT, Arial;font-weight:700;}.cls-1,.cls-2{fill:#353535;}.cls-2{font-size:16px;}.cls-16,.cls-2,.cls-4,.cls-9{font-family:ArialMT, Arial;}.cls-3,.cls-4{font-size:13px;}.cls-16,.cls-3{fill:#323232;}.cls-20,.cls-3{font-family:Arial-ItalicMT, Arial;font-style:italic;}.cls-15,.cls-19,.cls-20,.cls-4,.cls-9{fill:#757575;}.cls-5{letter-spacing:-0.06em;}.cls-6{letter-spacing:0em;}.cls-7{fill:#002f64;}.cls-8{fill:#fff;}.cls-16,.cls-9{font-size:14.04px;}.cls-10,.cls-11,.cls-12{fill:none;}.cls-10,.cls-11,.cls-19{stroke:#757575;}.cls-10,.cls-11,.cls-12,.cls-19{stroke-miterlimit:10;}.cls-10,.cls-19{stroke-width:0.1px;}.cls-12{stroke:#000;}.cls-13,.cls-19{opacity:0.9;}.cls-14{fill:#701538;}.cls-17{letter-spacing:-0.06em;}.cls-18{letter-spacing:-0.06em;}.cls-20{font-size:15px;}</style></defs><title>paro_barcelona</title><text class="cls-1" transform="translate(11 23.16)">Paro de larga duración por distritos</text><text class="cls-2" transform="translate(13 46.5)">La incidencia del paro de larga duración contabilizado en junio de 2017</text><text class="cls-3" transform="translate(311.33 452.16)">Porcentaje de parados</text><text class="cls-4" transform="translate(7 481.91)">Fuente: Departament d’Estudis de la Gerència de Política Econòmica i <tspan x="0" y="15.6">Desenvolupament Local de </tspan><tspan class="cls-5" x="161.16" y="15.6">L</tspan><tspan class="cls-6" x="167.67" y="15.6">’Ajuntament de Barcelona </tspan></text><polygon class="cls-7" points="535.47 474.14 641.56 474.14 641.56 490.25 535.47 490.25 535.47 474.14 535.47 474.14"/><path class="cls-8" d="M620.58,489.24h-4.07v.51l1.07.25v7.51a.89.89,0,0,1-.75.38,1.6,1.6,0,0,1-1.32-1l-1-1.82a2.11,2.11,0,0,0-1.86-1.25v-.12a2.49,2.49,0,0,0,2.57-2.31c0-1.56-1.42-2.17-3.06-2.17h-3.69v.51l1.2.25v7.6h0l-1.39.27-3.45-9.42a4.35,4.35,0,0,1-1.25,1.06l.13.38-3.15,7.72-1,.26v.51h2.87v-.51l-.94-.24,1.07-2.81h2.93l1,2.79-1.1.27v.51h7v-.51l-1.18-.25v-3.54a1.73,1.73,0,0,1,1.56,1.15l1.39,2.48a2.24,2.24,0,0,0,2,1.22,2,2,0,0,0,1.32-.54h3.13a4.7,4.7,0,0,0,4.83-4.57,4.58,4.58,0,0,0-4.91-4.57Zm-17.75,4.86,1.24-3.25,1.19,3.25Zm9.06-.69h-.62V490H612a1.54,1.54,0,0,1,1.6,1.63,1.77,1.77,0,0,1-1.76,1.78Zm8.6,4.21h-1.3V490h1.34c2.07,0,3.35,1.44,3.35,3.81s-1.33,3.81-3.38,3.81Z" transform="translate(0 -11.5)"/><path class="cls-8" d="M553.85,497.63l-3.38-9.18a4.35,4.35,0,0,1-1.25,1.06l.13.38-3.15,7.72-.67.26-.2.51h2.79v-.51l-.94-.24,1.07-2.81h2.93l1,2.79-1.1.27v.51h3.75v-.51l-1-.25Zm-5.37-3.53,1.24-3.25,1.19,3.25Z" transform="translate(0 -11.5)"/><polygon class="cls-8" points="545.8 484.56 545.46 484.37 543.49 486.17 541.8 486.17 541.8 478.5 542.81 478.25 542.81 477.74 539.17 477.74 539.17 478.25 540.2 478.51 540.2 486.11 539.17 486.37 539.17 486.88 544.89 486.88 545.8 484.56 545.8 484.56"/><polygon class="cls-8" points="561.69 477.74 561.69 478.25 562.79 478.5 560.4 484.62 557.88 478.49 559.07 478.25 559.07 477.74 555.01 477.74 555.01 478.25 556.17 478.5 559.78 487.2 560.17 487.2 563.76 478.51 563.79 478.51 564.92 478.25 564.92 477.74 561.69 477.74 561.69 477.74"/><path class="cls-8" d="M597.74,489.24v.51l1.09.26s.08,4.53,0,5.68a2.31,2.31,0,0,1-2.46,2.23,2.27,2.27,0,0,1-2.46-2.35V490l1.06-.24v-.51h-3.67v.51l1,.25v5.62a3.37,3.37,0,0,0,3.63,3.2,3.31,3.31,0,0,0,3.63-3.2l.07-5.61,1.07-.26v-.51Z" transform="translate(0 -11.5)"/><path class="cls-8" d="M637.45,497.61l-3.36-9.16a4.33,4.33,0,0,1-1.25,1.06l.13.38-3.16,7.76-.54.22-.73-.23V490l1.12-.25v-.51h-3.83v.51L627,490v7.61l-1.06.25v.51h5.85v-.51l-.94-.24,1.07-2.81h2.93l1,2.79-1.1.27v.51h3.75v-.51l-1-.27Zm-5.35-3.51,1.24-3.25,1.19,3.25Z" transform="translate(0 -11.5)"/><path class="cls-8" d="M578.09,489.24v.51l1.12.26.07,6-5.73-6.75H571.1v.51l1.11.25.09,0-.08,7.56h0l-1.13.27-3.46-9.42a4.33,4.33,0,0,1-1.25,1.06l.13.38-3.15,7.72-1,.26v.51h2.87v-.51l-.94-.24,1.07-2.81h2.93l1,2.79-1.1.27v.51h6v-.51l-1.18-.26L573,491l6.55,7.7H580l.09-8.7,1.11-.25v-.51Zm-12.45,4.86,1.24-3.25,1.19,3.25Z" transform="translate(0 -11.5)"/><path class="cls-8" d="M587.72,493.71v.51l1,.26v2.95a3.43,3.43,0,0,1-2.07.69c-2.08,0-3.41-1.75-3.41-4.18s1.31-4.36,3.44-4.36a3.26,3.26,0,0,1,3.06,2.49l.29-.17V489l-.26-.15-.56.7a5.75,5.75,0,0,0-2.53-.64,5.12,5.12,0,0,0-5.13,5,4.65,4.65,0,0,0,4.74,4.88,4.72,4.72,0,0,0,2.95-1l.81.54h.26v-3.92l.86-.33v-.42Z" transform="translate(0 -11.5)"/><text class="cls-9" transform="translate(128.41 426.54)">0</text><text class="cls-9" transform="translate(223.17 426.54)">10</text><text class="cls-9" transform="translate(321.83 426.54)">20</text><text class="cls-9" transform="translate(420.5 426.54)">30</text><text class="cls-9" transform="translate(519.16 426.54)">40</text><text class="cls-9" transform="translate(617.82 426.54)">50</text><line class="cls-10" x1="132.32" y1="409.5" x2="625.63" y2="409.5"/><line class="cls-10" x1="132.32" y1="409.5" x2="132.32" y2="397.54"/><line class="cls-11" x1="230.98" y1="409.5" x2="230.98" y2="397.54"/><line class="cls-11" x1="329.64" y1="409.5" x2="329.64" y2="397.54"/><line class="cls-11" x1="428.31" y1="409.5" x2="428.31" y2="397.54"/><line class="cls-11" x1="526.97" y1="409.5" x2="526.97" y2="397.54"/><line class="cls-11" x1="625.63" y1="409.5" x2="625.63" y2="397.54"/><line class="cls-10" x1="133.36" y1="406.5" x2="133.36" y2="80.5"/><path class="cls-12" d="M133.36,318.75" transform="translate(0 -11.5)"/><path class="cls-12" d="M133.36,298.91" transform="translate(0 -11.5)"/><path class="cls-12" d="M133.36,279.07" transform="translate(0 -11.5)"/><path class="cls-12" d="M133.36,259.23" transform="translate(0 -11.5)"/><path class="cls-12" d="M133.36,239.39" transform="translate(0 -11.5)"/><path class="cls-12" d="M133.36,219.56" transform="translate(0 -11.5)"/><path class="cls-12" d="M133.36,199.72" transform="translate(0 -11.5)"/><path class="cls-12" d="M133.36,179.88" transform="translate(0 -11.5)"/><path class="cls-12" d="M133.36,160" transform="translate(0 -11.5)"/><path class="cls-12" d="M133.36,140.2" transform="translate(0 -11.5)"/><g class="cls-13"><rect class="cls-14" x="133.36" y="89.56" width="360.12" height="22.28"/><rect class="cls-15" x="133.36" y="121.4" width="369" height="22.28"/><rect class="cls-15" x="133.36" y="153.23" width="398.6" height="22.28"/><rect class="cls-15" x="133.36" y="185.07" width="406.49" height="22.28"/><rect class="cls-15" x="133.36" y="216.91" width="365.05" height="22.28"/><rect class="cls-15" x="133.4" y="247.75" width="370.97" height="22.28"/><rect class="cls-15" x="133.36" y="278.58" width="413.4" height="22.28"/><rect class="cls-15" x="133.36" y="311.42" width="416.36" height="22.28"/><rect class="cls-14" x="133.36" y="343.26" width="433.13" height="22.28"/><rect class="cls-15" x="133.36" y="375.1" width="422.28" height="22.28"/></g><text class="cls-16" transform="translate(54.4 110.84)">Ciutat <tspan class="cls-17" x="40.59" y="0">V</tspan><tspan x="49.18" y="0">ella</tspan></text><text class="cls-16" transform="translate(57.07 143.68)"><tspan class="cls-17">L</tspan><tspan x="7.04" y="0">’Eixample</tspan></text><text class="cls-16" transform="translate(31.69 174.52)">Sants-Montjuïc</text><text class="cls-16" transform="translate(63 207.36)">Les Corts</text><text class="cls-16" transform="translate(0 239.19)">Sarrià-Sant Gervasi</text><text class="cls-16" transform="translate(81.74 270.03)">Gràcia</text><text class="cls-16" transform="translate(27.69 300.87)">Horta-Guinardó</text><text class="cls-16" transform="translate(58.07 333.71)">Nou Barris</text><text class="cls-16" transform="translate(46.33 365.55)">Sant<tspan class="cls-18" x="28.89" y="0"> </tspan><tspan x="32.02" y="0">Andreu</tspan></text><text class="cls-16" transform="translate(59.07 397.54)">Sant Martí</text><text class="cls-4" transform="translate(498.37 105.84)">2.345</text><text y="-11.5"></text><text class="cls-4" transform="translate(507.37 139.54)">3.603</text><text class="cls-4" transform="translate(535.88 171.38)">3.467</text><text class="cls-4" transform="translate(543.49 201.36)">1.179</text><text class="cls-4" transform="translate(503.41 233.03)">1.229</text><text class="cls-4" transform="translate(510.37 264.89)">1.748</text><text class="cls-4" transform="translate(552.35 293.87)">3.242</text><text class="cls-4" transform="translate(555.2 326.56)">4.150</text><text class="cls-4" transform="translate(572.86 358.4)">3.163</text><text class="cls-4" transform="translate(560.2 391.24)">4.950</text><line class="cls-19" x1="132.4" y1="80.5" x2="625.55" y2="80.5"/><text class="cls-20" transform="translate(494.27 75.83)">Número de parados</text></svg>