<svg id="Capa_1" data-name="Capa 1" xmlns="http://www.w3.org/2000/svg" viewBox="0 0 634.95 404.92"><defs><style>.cls-1{font-size:27px;font-family:Arial-BoldMT, Arial;font-weight:700;}.cls-1,.cls-2{fill:#353535;}.cls-2{font-size:16px;}.cls-10,.cls-14,.cls-2,.cls-3{font-family:ArialMT, Arial;}.cls-10,.cls-3{font-size:14.04px;}.cls-14,.cls-3,.cls-9{fill:#757575;}.cls-20,.cls-4,.cls-5,.cls-6{fill:none;stroke-miterlimit:10;}.cls-20,.cls-4,.cls-5{stroke:#757575;}.cls-20,.cls-4{stroke-width:0.1px;}.cls-6{stroke:#000;}.cls-7{opacity:0.9;}.cls-8{fill:#701538;}.cls-10,.cls-13,.cls-21{fill:#323232;}.cls-11{letter-spacing:-0.06em;}.cls-12{letter-spacing:-0.06em;}.cls-13,.cls-14{font-size:13px;}.cls-13,.cls-21{font-family:Arial-ItalicMT, Arial;font-style:italic;}.cls-15{letter-spacing:-0.06em;}.cls-16{letter-spacing:0em;}.cls-17{fill:#002f64;}.cls-18{fill:#fff;}.cls-19{opacity:0.6;}.cls-20{stroke-dasharray:3.01 3.01;}.cls-21{font-size:15px;}</style></defs><title>paro_larga_duracion_bcn</title><text class="cls-1" transform="translate(8.28 23.16)">Paro de larga duración por distritos</text><text class="cls-2" transform="translate(8.28 46.5)">La incidencia del paro de larga duración contabilizado en junio de 2017</text><text class="cls-3" transform="translate(128.45 315.21)">0</text><text class="cls-3" transform="translate(223.21 315.21)">10</text><text class="cls-3" transform="translate(321.87 315.21)">20</text><text class="cls-3" transform="translate(420.54 315.21)">30</text><text class="cls-3" transform="translate(519.2 315.21)">40</text><text class="cls-3" transform="translate(617.86 315.21)">50</text><line class="cls-4" x1="132.36" y1="298.16" x2="625.67" y2="298.16"/><line class="cls-4" x1="132.36" y1="298.16" x2="132.36" y2="293.2"/><line class="cls-5" x1="231.02" y1="298.16" x2="231.02" y2="293.2"/><line class="cls-5" x1="329.68" y1="298.16" x2="329.68" y2="293.2"/><line class="cls-5" x1="428.35" y1="298.16" x2="428.35" y2="293.2"/><line class="cls-5" x1="527.01" y1="298.16" x2="527.01" y2="293.2"/><line class="cls-5" x1="625.67" y1="298.16" x2="625.67" y2="293.2"/><line class="cls-4" x1="132.36" y1="296.16" x2="132.36" y2="83.5"/><line class="cls-6" x1="132.36" y1="286.24" x2="144.69" y2="286.24"/><line class="cls-6" x1="132.36" y1="266.4" x2="144.69" y2="266.4"/><line class="cls-6" x1="132.36" y1="246.57" x2="144.69" y2="246.57"/><line class="cls-6" x1="132.36" y1="226.73" x2="144.69" y2="226.73"/><line class="cls-6" x1="132.36" y1="206.89" x2="144.69" y2="206.89"/><line class="cls-6" x1="132.36" y1="187.05" x2="144.69" y2="187.05"/><line class="cls-6" x1="132.36" y1="167.21" x2="144.69" y2="167.21"/><line class="cls-6" x1="132.36" y1="147.38" x2="144.69" y2="147.38"/><line class="cls-6" x1="132.36" y1="127.54" x2="144.69" y2="127.54"/><line class="cls-6" x1="132.36" y1="107.7" x2="144.69" y2="107.7"/><g class="cls-7"><rect class="cls-8" x="132.36" y="100.56" width="360.12" height="14.28"/><rect class="cls-9" x="132.36" y="120.4" width="369" height="14.28"/><rect class="cls-9" x="132.36" y="140.23" width="398.6" height="14.28"/><rect class="cls-9" x="132.36" y="160.07" width="406.49" height="14.28"/><rect class="cls-9" x="132.36" y="179.91" width="365.05" height="14.28"/><rect class="cls-9" x="132.4" y="199.75" width="370.97" height="14.28"/><rect class="cls-9" x="132.36" y="219.58" width="413.4" height="14.28"/><rect class="cls-9" x="132.36" y="239.42" width="416.36" height="14.28"/><rect class="cls-8" x="132.36" y="259.26" width="433.13" height="14.28"/><rect class="cls-9" x="132.36" y="279.1" width="422.28" height="14.28"/></g><text class="cls-10" transform="translate(53.4 114.84)">Ciutat <tspan class="cls-11" x="40.59" y="0">V</tspan><tspan x="49.18" y="0">ella</tspan></text><text class="cls-10" transform="translate(56.07 133.68)"><tspan class="cls-11">L</tspan><tspan x="7.04" y="0">’Eixample</tspan></text><text class="cls-10" transform="translate(30.69 153.52)">Sants-Montjuïc</text><text class="cls-10" transform="translate(63 173.36)">Les Corts</text><text class="cls-10" transform="translate(0 192.19)">Sarrià-Sant Gervasi</text><text class="cls-10" transform="translate(82.74 213.03)">Gràcia</text><text class="cls-10" transform="translate(30.69 232.87)">Horta-Guinardó</text><text class="cls-10" transform="translate(58.07 253.71)">Nou Barris</text><text class="cls-10" transform="translate(45.33 272.55)">Sant<tspan class="cls-12" x="28.89" y="0"> </tspan><tspan x="32.02" y="0">Andreu</tspan></text><text class="cls-10" transform="translate(58.07 292.2)">Sant Martí</text><text class="cls-13" transform="translate(307.28 334.5)">Porcentaje de parados</text><text class="cls-14" transform="translate(8.28 369.5)">Fuente: Departament d’Estudis de la Gerència de Política Econòmica i <tspan x="0" y="15.6">Desenvolupament Local de </tspan><tspan class="cls-15" x="161.16" y="15.6">L</tspan><tspan class="cls-16" x="167.67" y="15.6">’Ajuntament de Barcelona </tspan></text><polygon class="cls-17" points="528.86 371.77 634.95 371.77 634.95 387.88 528.86 387.88 528.86 371.77 528.86 371.77"/><path class="cls-18" d="M614.7,382.87h-4.07v.51l1.07.25v7.51a.89.89,0,0,1-.75.38,1.6,1.6,0,0,1-1.32-1l-1-1.82a2.11,2.11,0,0,0-1.86-1.25v-.12a2.49,2.49,0,0,0,2.57-2.31c0-1.56-1.42-2.17-3.06-2.17h-3.69v.51l1.2.25v7.6h0l-1.39.27-3.45-9.42a4.35,4.35,0,0,1-1.25,1.06l.13.38-3.15,7.72-1,.26V392h2.87v-.51l-.94-.24,1.07-2.81h2.93l1,2.79-1.1.27V392h7v-.51l-1.18-.25v-3.54a1.73,1.73,0,0,1,1.56,1.15l1.39,2.48a2.24,2.24,0,0,0,2,1.22,2,2,0,0,0,1.32-.54h3.13a4.7,4.7,0,0,0,4.83-4.57,4.58,4.58,0,0,0-4.91-4.57Zm-17.75,4.86,1.24-3.25,1.19,3.25ZM606,387h-.62v-3.41h.78a1.54,1.54,0,0,1,1.6,1.63A1.77,1.77,0,0,1,606,387Zm8.6,4.21h-1.3v-7.62h1.34c2.07,0,3.35,1.44,3.35,3.81s-1.33,3.81-3.38,3.81Z" transform="translate(-0.72 -7.5)"/><path class="cls-18" d="M548,391.25l-3.38-9.18a4.35,4.35,0,0,1-1.25,1.06l.13.38-3.15,7.72-.67.26-.2.51h2.79v-.51l-.94-.24,1.07-2.81h2.93l1,2.79-1.1.27V392H549v-.51l-1-.25Zm-5.37-3.53,1.24-3.25,1.19,3.25Z" transform="translate(-0.72 -7.5)"/><polygon class="cls-18" points="539.2 382.19 538.85 382 536.88 383.8 535.19 383.8 535.19 376.13 536.2 375.87 536.2 375.36 532.56 375.36 532.56 375.87 533.59 376.13 533.59 383.74 532.56 384 532.56 384.51 538.29 384.51 539.2 382.19 539.2 382.19"/><polygon class="cls-18" points="555.08 375.36 555.08 375.87 556.18 376.13 553.79 382.25 551.27 376.12 552.46 375.87 552.46 375.36 548.4 375.36 548.4 375.87 549.56 376.13 553.17 384.82 553.56 384.82 557.15 376.14 557.19 376.14 558.31 375.87 558.31 375.36 555.08 375.36 555.08 375.36"/><path class="cls-18" d="M591.85,382.87v.51l1.09.26s.08,4.53,0,5.68a2.31,2.31,0,0,1-2.46,2.23,2.27,2.27,0,0,1-2.46-2.35v-5.58l1.06-.24v-.51h-3.67v.51l1,.25v5.62a3.37,3.37,0,0,0,3.63,3.2,3.31,3.31,0,0,0,3.63-3.2l.07-5.61,1.07-.26v-.51Z" transform="translate(-0.72 -7.5)"/><path class="cls-18" d="M631.57,391.23l-3.36-9.16a4.33,4.33,0,0,1-1.25,1.06l.13.38-3.16,7.76-.54.22-.73-.23v-7.64l1.12-.25v-.51H620v.51l1.11.26v7.61l-1.06.25V392h5.85v-.51l-.94-.24,1.07-2.81h2.93l1,2.79-1.1.27V392h3.75v-.51l-1-.27Zm-5.35-3.51,1.24-3.25,1.19,3.25Z" transform="translate(-0.72 -7.5)"/><path class="cls-18" d="M572.21,382.87v.51l1.12.26.07,6-5.73-6.75h-2.45v.51l1.11.25.09,0-.08,7.56h0l-1.13.27-3.46-9.42a4.33,4.33,0,0,1-1.25,1.06l.13.38-3.15,7.72-1,.26V392h2.87v-.51l-.94-.24,1.07-2.81h2.93l1,2.79-1.1.27V392h6v-.51l-1.18-.26-.07-6.61,6.55,7.7h.43l.09-8.7,1.11-.25v-.51Zm-12.45,4.86,1.24-3.25,1.19,3.25Z" transform="translate(-0.72 -7.5)"/><path class="cls-18" d="M581.83,387.34v.51l1,.26v2.95a3.43,3.43,0,0,1-2.07.69c-2.08,0-3.41-1.75-3.41-4.18s1.31-4.36,3.44-4.36a3.26,3.26,0,0,1,3.06,2.49l.29-.17v-2.89l-.26-.15-.56.7a5.75,5.75,0,0,0-2.53-.64,5.12,5.12,0,0,0-5.13,5,4.65,4.65,0,0,0,4.74,4.88,4.72,4.72,0,0,0,2.95-1l.81.54h.26v-3.92l.86-.33v-.42Z" transform="translate(-0.72 -7.5)"/><text class="cls-14" transform="translate(497.37 112.84)">2.345</text><text x="-0.72" y="-7.5"></text><text class="cls-14" transform="translate(506.37 132.54)">3.603</text><text class="cls-14" transform="translate(534.88 152.38)">3.467</text><text class="cls-14" transform="translate(542.49 172.36)">1.179</text><text class="cls-14" transform="translate(502.37 191.05)">1.229</text><text class="cls-14" transform="translate(504.37 212.03)">1.748</text><text class="cls-14" transform="translate(551.35 231.87)">3.242</text><text class="cls-14" transform="translate(553.31 252.71)">4.150</text><text class="cls-14" transform="translate(570.49 271.55)">3.163</text><text class="cls-14" transform="translate(559.2 291.2)">4.950</text><g class="cls-19"><line class="cls-9" x1="132.4" y1="83.5" x2="625.55" y2="83.5"/><line class="cls-4" x1="132.4" y1="83.5" x2="133.9" y2="83.5"/><line class="cls-20" x1="136.9" y1="83.5" x2="622.54" y2="83.5"/><line class="cls-4" x1="624.05" y1="83.5" x2="625.55" y2="83.5"/></g><text class="cls-21" transform="translate(493.27 78.83)">Número de parados</text></svg>