<svg id="Capa_1" data-name="Capa 1" xmlns="http://www.w3.org/2000/svg" viewBox="0 0 642.11 510.07"><defs><style>.cls-1{font-size:27px;font-family:Arial-BoldMT, Arial;font-weight:700;}.cls-1,.cls-2{fill:#353535;}.cls-16,.cls-2{font-size:16px;}.cls-16,.cls-2,.cls-4,.cls-9{font-family:ArialMT, Arial;}.cls-3{font-size:14px;font-family:Arial-ItalicMT, Arial;font-style:italic;}.cls-16,.cls-3{fill:#323232;}.cls-4{font-size:13px;}.cls-14,.cls-4,.cls-9{fill:#757575;}.cls-5{letter-spacing:-0.06em;}.cls-6{letter-spacing:-0.02em;}.cls-7{fill:#002f64;}.cls-8{fill:#fff;}.cls-9{font-size:14.04px;}.cls-10,.cls-11,.cls-12{fill:none;stroke-miterlimit:10;}.cls-10,.cls-11{stroke:#757575;}.cls-10{stroke-width:0.1px;}.cls-12{stroke:#000;}.cls-13{opacity:0.9;}.cls-15{fill:#701538;}.cls-17{letter-spacing:-0.06em;}</style></defs><title>paro_barcelona</title><text class="cls-1" transform="translate(7.67 23.16)">Paro de larga duración por distritos</text><text class="cls-2" transform="translate(9.67 46.5)">La incidencia del paro de larga duración contabilizado en junio de 2017</text><text class="cls-3" transform="translate(308 452.16)">Porcentaje de parados</text><text class="cls-4" transform="translate(3.67 490.25)">Fuente:<tspan class="cls-5" x="44.08" y="0"> </tspan><tspan class="cls-6" x="46.98" y="0">A</tspan><tspan x="55.42" y="0">yuntamiento de Barcelona</tspan></text><polygon class="cls-7" points="532.13 474.14 638.23 474.14 638.23 490.25 532.13 490.25 532.13 474.14 532.13 474.14"/><path class="cls-8" d="M620.58,489.24h-4.07v.51l1.07.25v7.51a.89.89,0,0,1-.75.38,1.6,1.6,0,0,1-1.32-1l-1-1.82a2.11,2.11,0,0,0-1.86-1.25v-.12a2.49,2.49,0,0,0,2.57-2.31c0-1.56-1.42-2.17-3.06-2.17h-3.69v.51l1.2.25v7.6h0l-1.39.27-3.45-9.42a4.35,4.35,0,0,1-1.25,1.06l.13.38-3.15,7.72-1,.26v.51h2.87v-.51l-.94-.24,1.07-2.81h2.93l1,2.79-1.1.27v.51h7v-.51l-1.18-.25v-3.54a1.73,1.73,0,0,1,1.56,1.15l1.39,2.48a2.24,2.24,0,0,0,2,1.22,2,2,0,0,0,1.32-.54h3.13a4.7,4.7,0,0,0,4.83-4.57,4.58,4.58,0,0,0-4.91-4.57Zm-17.75,4.86,1.24-3.25,1.19,3.25Zm9.06-.69h-.62V490H612a1.54,1.54,0,0,1,1.6,1.63,1.77,1.77,0,0,1-1.76,1.78Zm8.6,4.21h-1.3V490h1.34c2.07,0,3.35,1.44,3.35,3.81s-1.33,3.81-3.38,3.81Z" transform="translate(-3.33 -11.5)"/><path class="cls-8" d="M553.85,497.63l-3.38-9.18a4.35,4.35,0,0,1-1.25,1.06l.13.38-3.15,7.72-.67.26-.2.51h2.79v-.51l-.94-.24,1.07-2.81h2.93l1,2.79-1.1.27v.51h3.75v-.51l-1-.25Zm-5.37-3.53,1.24-3.25,1.19,3.25Z" transform="translate(-3.33 -11.5)"/><polygon class="cls-8" points="542.47 484.56 542.13 484.37 540.15 486.17 538.47 486.17 538.47 478.5 539.48 478.25 539.48 477.74 535.84 477.74 535.84 478.25 536.86 478.51 536.86 486.11 535.84 486.37 535.84 486.88 541.56 486.88 542.47 484.56 542.47 484.56"/><polygon class="cls-8" points="558.36 477.74 558.36 478.25 559.45 478.5 557.06 484.62 554.55 478.49 555.74 478.25 555.74 477.74 551.67 477.74 551.67 478.25 552.83 478.5 556.44 487.2 556.83 487.2 560.43 478.51 560.46 478.51 561.59 478.25 561.59 477.74 558.36 477.74 558.36 477.74"/><path class="cls-8" d="M597.74,489.24v.51l1.09.26s.08,4.53,0,5.68a2.31,2.31,0,0,1-2.46,2.23,2.27,2.27,0,0,1-2.46-2.35V490l1.06-.24v-.51h-3.67v.51l1,.25v5.62a3.37,3.37,0,0,0,3.63,3.2,3.31,3.31,0,0,0,3.63-3.2l.07-5.61,1.07-.26v-.51Z" transform="translate(-3.33 -11.5)"/><path class="cls-8" d="M637.45,497.61l-3.36-9.16a4.33,4.33,0,0,1-1.25,1.06l.13.38-3.16,7.76-.54.22-.73-.23V490l1.12-.25v-.51h-3.83v.51L627,490v7.61l-1.06.25v.51h5.85v-.51l-.94-.24,1.07-2.81h2.93l1,2.79-1.1.27v.51h3.75v-.51l-1-.27Zm-5.35-3.51,1.24-3.25,1.19,3.25Z" transform="translate(-3.33 -11.5)"/><path class="cls-8" d="M578.09,489.24v.51l1.12.26.07,6-5.73-6.75H571.1v.51l1.11.25.09,0-.08,7.56h0l-1.13.27-3.46-9.42a4.33,4.33,0,0,1-1.25,1.06l.13.38-3.15,7.72-1,.26v.51h2.87v-.51l-.94-.24,1.07-2.81h2.93l1,2.79-1.1.27v.51h6v-.51l-1.18-.26L573,491l6.55,7.7H580l.09-8.7,1.11-.25v-.51Zm-12.45,4.86,1.24-3.25,1.19,3.25Z" transform="translate(-3.33 -11.5)"/><path class="cls-8" d="M587.72,493.71v.51l1,.26v2.95a3.43,3.43,0,0,1-2.07.69c-2.08,0-3.41-1.75-3.41-4.18s1.31-4.36,3.44-4.36a3.26,3.26,0,0,1,3.06,2.49l.29-.17V489l-.26-.15-.56.7a5.75,5.75,0,0,0-2.53-.64,5.12,5.12,0,0,0-5.13,5,4.65,4.65,0,0,0,4.74,4.88,4.72,4.72,0,0,0,2.95-1l.81.54h.26v-3.92l.86-.33v-.42Z" transform="translate(-3.33 -11.5)"/><text class="cls-9" transform="translate(137.08 428.54)">0</text><text class="cls-9" transform="translate(231.84 428.54)">10</text><text class="cls-9" transform="translate(330.5 428.54)">20</text><text class="cls-9" transform="translate(429.16 428.54)">30</text><text class="cls-9" transform="translate(527.82 428.54)">40</text><text class="cls-9" transform="translate(626.49 428.54)">50</text><line class="cls-10" x1="140.98" y1="411.5" x2="634.3" y2="411.5"/><line class="cls-10" x1="140.98" y1="411.5" x2="140.98" y2="399.54"/><line class="cls-11" x1="239.65" y1="411.5" x2="239.65" y2="399.54"/><line class="cls-11" x1="338.31" y1="411.5" x2="338.31" y2="399.54"/><line class="cls-11" x1="436.97" y1="411.5" x2="436.97" y2="399.54"/><line class="cls-11" x1="535.63" y1="411.5" x2="535.63" y2="399.54"/><line class="cls-11" x1="634.3" y1="411.5" x2="634.3" y2="399.54"/><line class="cls-10" x1="142.02" y1="405.5" x2="142.02" y2="79.5"/><path class="cls-12" d="M145.36,317.75" transform="translate(-3.33 -11.5)"/><path class="cls-12" d="M145.36,297.91" transform="translate(-3.33 -11.5)"/><path class="cls-12" d="M145.36,278.07" transform="translate(-3.33 -11.5)"/><path class="cls-12" d="M145.36,258.23" transform="translate(-3.33 -11.5)"/><path class="cls-12" d="M145.36,238.39" transform="translate(-3.33 -11.5)"/><path class="cls-12" d="M145.36,218.56" transform="translate(-3.33 -11.5)"/><path class="cls-12" d="M145.36,198.72" transform="translate(-3.33 -11.5)"/><path class="cls-12" d="M145.36,178.88" transform="translate(-3.33 -11.5)"/><path class="cls-12" d="M145.36,159" transform="translate(-3.33 -11.5)"/><path class="cls-12" d="M145.36,139.2" transform="translate(-3.33 -11.5)"/><g class="cls-13"><rect class="cls-14" x="140.72" y="379.13" width="360.12" height="22.28"/><rect class="cls-14" x="142.28" y="316.13" width="369" height="22.28"/><rect class="cls-14" x="142.29" y="252.27" width="398.6" height="22.28"/><rect class="cls-14" x="141.98" y="221.43" width="406.49" height="22.28"/><rect class="cls-14" x="142.25" y="348.79" width="365.05" height="22.28"/><rect class="cls-14" x="142.29" y="283.79" width="370.97" height="22.28"/><rect class="cls-14" x="142.37" y="189.6" width="413.4" height="22.28"/><rect class="cls-14" x="141.79" y="157.76" width="416.36" height="22.28"/><rect class="cls-15" x="142.02" y="93.08" width="433.13" height="22.28"/><rect class="cls-14" x="141.88" y="125.92" width="422.28" height="22.28"/></g><text class="cls-16" transform="translate(43.07 109.84)">Sant<tspan class="cls-17" x="32.91" y="0"> </tspan><tspan x="36.48" y="0">Andreu</tspan></text><text class="cls-16" transform="translate(53.73 142.68)">Sant Martí</text><text class="cls-16" transform="translate(51.36 173.52)">Nou Barris</text><text class="cls-16" transform="translate(9.67 206.36)"><tspan xml:space="preserve">Horta  - Guinardó</tspan></text><text class="cls-16" transform="translate(56.67 238.19)">Les Corts</text><text class="cls-16" transform="translate(17.41 269.03)">Sants - Montjuïc</text><text class="cls-16" transform="translate(76.36 299.87)">Gràcia</text><text class="cls-16" transform="translate(60.73 332.71)">Eixample</text><text class="cls-16" transform="translate(0 364.55)">Sarrià - St. Gervasi</text><text class="cls-16" transform="translate(47.73 396.54)">Ciutat <tspan class="cls-17" x="46.24" y="0">V</tspan><tspan x="56.03" y="0">ella</tspan></text><text x="-3.33" y="-11.5"></text></svg>