<svg id="3a89ea15-3ee7-41a6-8479-494a48773860" data-name="Capa 1" xmlns="http://www.w3.org/2000/svg" viewBox="0 0 740 743.4"><defs><style>.\31 8406153-ea1e-4109-9404-d760abef3588{font-size:35px;font-family:Arial-BoldMT, Arial;font-weight:700;}.\31 8406153-ea1e-4109-9404-d760abef3588,.\36 f44fb68-5364-4142-8020-181de81ab288{fill:#323232;}.f1fd47f9-5eaa-4f18-ae56-d5f0f80abebf{font-size:19px;fill:#757575;font-family:ArialMT, Arial;}.\39 05a12bd-ea07-44e5-9bfe-9b0e2c77723d{letter-spacing:-0.07em;}.f82007c0-6a65-40df-a3de-b7bc0f4e0fab{letter-spacing:-0.02em;}.b72f7acd-59e9-4039-97a8-22692ce9a616{letter-spacing:-0.04em;}.\31 db9d1f4-829a-4579-9d3a-8ed84b63fac7{letter-spacing:0em;}.\31 a66cc28-9926-446e-9fde-366597328cf5,.\35 935d584-45c4-406b-84fd-502385e3ecd1,.\39 81d7ca9-7e74-43c3-8539-4a312fcc2910,.c2a7ea8e-fa4b-4485-bc0d-89a5ba009430{fill:none;}.\39 81d7ca9-7e74-43c3-8539-4a312fcc2910,.c2a7ea8e-fa4b-4485-bc0d-89a5ba009430{stroke:#323232;}.\39 81d7ca9-7e74-43c3-8539-4a312fcc2910{stroke-miterlimit:10;}.\31 a66cc28-9926-446e-9fde-366597328cf5,.\39 81d7ca9-7e74-43c3-8539-4a312fcc2910{stroke-width:2px;}.\35 935d584-45c4-406b-84fd-502385e3ecd1{stroke:#e6e6e6;}.a278b315-642b-41c2-9491-87da268da805{isolation:isolate;font-size:17.9px;fill:gray;font-family:ArialMT, Arial MT;}.\31 a66cc28-9926-446e-9fde-366597328cf5{stroke:#159094;}.\39 8738aa1-26fc-4f7b-a8c6-3693561ad3bc{letter-spacing:-0.06em;}.\30 05698ca-d264-4399-bf9e-f4a6aa830023{fill:#283659;}.\37 0741636-77f3-47cb-bb82-c19df0d2c5a4{fill:#fff;}</style></defs><title>parotrump</title><text class="18406153-ea1e-4109-9404-d760abef3588" transform="translate(53.56 37.06)">Evolución del paro en Estados Unidos</text><text class="f1fd47f9-5eaa-4f18-ae56-d5f0f80abebf" transform="translate(57.75 670.22)">2007</text><text class="f1fd47f9-5eaa-4f18-ae56-d5f0f80abebf" transform="translate(122.75 670.22)">2008</text><text class="f1fd47f9-5eaa-4f18-ae56-d5f0f80abebf" transform="translate(184.29 670.22)">2009</text><text class="f1fd47f9-5eaa-4f18-ae56-d5f0f80abebf" transform="translate(247.67 669.22)">2010</text><text class="f1fd47f9-5eaa-4f18-ae56-d5f0f80abebf" transform="translate(308.04 669.22)">20<tspan class="905a12bd-ea07-44e5-9bfe-9b0e2c77723d" x="21.13" y="0">1</tspan><tspan x="30.29" y="0">1</tspan></text><text class="f1fd47f9-5eaa-4f18-ae56-d5f0f80abebf" transform="translate(370.42 668.22)">2012</text><text class="f1fd47f9-5eaa-4f18-ae56-d5f0f80abebf" transform="translate(434.79 668.22)">2013</text><text class="f1fd47f9-5eaa-4f18-ae56-d5f0f80abebf" transform="translate(498.17 668.22)">2014</text><text class="f1fd47f9-5eaa-4f18-ae56-d5f0f80abebf" transform="translate(558.54 668.22)">2015</text><text class="f1fd47f9-5eaa-4f18-ae56-d5f0f80abebf" transform="translate(619.91 668.22)">2016</text><text class="f1fd47f9-5eaa-4f18-ae56-d5f0f80abebf" transform="translate(680.49 670.22)">2017</text><text class="f1fd47f9-5eaa-4f18-ae56-d5f0f80abebf" transform="translate(371.75 166.81)">Donald<tspan class="f82007c0-6a65-40df-a3de-b7bc0f4e0fab" x="60.21" y="0"> </tspan><tspan class="b72f7acd-59e9-4039-97a8-22692ce9a616" x="65.14" y="0">T</tspan><tspan class="1db9d1f4-829a-4579-9d3a-8ed84b63fac7" x="76.04" y="0">rump asume la presidencia </tspan><tspan x="115.1" y="22.8">de los Estados Unidos</tspan></text><path class="981d7ca9-7e74-43c3-8539-4a312fcc2910" d="M689.81,184.44c27.52,7.7,23.76,109.28-6.11,194.48"/><path class="6f44fb68-5364-4142-8020-181de81ab288" d="M684.88,375.51l8.28-1.62.07.29-8.44,9.41L678,394.18l1.71-12.46-.32-12.64.2-.19Z"/><line class="5935d584-45c4-406b-84fd-502385e3ecd1" x1="18" y1="648.3" x2="707.24" y2="648.3"/><text class="a278b315-642b-41c2-9491-87da268da805" transform="translate(19.37 640.84) scale(0.92 1)">0</text><line class="5935d584-45c4-406b-84fd-502385e3ecd1" x1="18" y1="592.49" x2="707.24" y2="592.49"/><text class="a278b315-642b-41c2-9491-87da268da805" transform="translate(19.37 585.03) scale(0.92 1)">1</text><line class="5935d584-45c4-406b-84fd-502385e3ecd1" x1="18" y1="536.69" x2="707.24" y2="536.69"/><text class="a278b315-642b-41c2-9491-87da268da805" transform="translate(19.37 529.23) scale(0.92 1)">2</text><line class="5935d584-45c4-406b-84fd-502385e3ecd1" x1="18" y1="480.89" x2="707.24" y2="480.89"/><text class="a278b315-642b-41c2-9491-87da268da805" transform="translate(19.37 473.43) scale(0.92 1)">3</text><line class="5935d584-45c4-406b-84fd-502385e3ecd1" x1="18" y1="425.08" x2="707.24" y2="425.08"/><text class="a278b315-642b-41c2-9491-87da268da805" transform="translate(19.37 417.62) scale(0.92 1)">4</text><line class="5935d584-45c4-406b-84fd-502385e3ecd1" x1="18" y1="369.28" x2="707.24" y2="369.28"/><text class="a278b315-642b-41c2-9491-87da268da805" transform="translate(19.37 361.82) scale(0.92 1)">5</text><line class="5935d584-45c4-406b-84fd-502385e3ecd1" x1="18" y1="313.48" x2="707.24" y2="313.48"/><text class="a278b315-642b-41c2-9491-87da268da805" transform="translate(19.37 306.02) scale(0.92 1)">6</text><line class="5935d584-45c4-406b-84fd-502385e3ecd1" x1="18" y1="257.67" x2="707.24" y2="257.67"/><text class="a278b315-642b-41c2-9491-87da268da805" transform="translate(19.37 250.21) scale(0.92 1)">7</text><line class="5935d584-45c4-406b-84fd-502385e3ecd1" x1="18" y1="201.87" x2="707.24" y2="201.87"/><text class="a278b315-642b-41c2-9491-87da268da805" transform="translate(19.37 194.41) scale(0.92 1)">8</text><line class="5935d584-45c4-406b-84fd-502385e3ecd1" x1="18" y1="146.07" x2="707.24" y2="146.07"/><text class="a278b315-642b-41c2-9491-87da268da805" transform="translate(19.37 138.61) scale(0.92 1)">9</text><line class="5935d584-45c4-406b-84fd-502385e3ecd1" x1="18" y1="90.26" x2="707.24" y2="90.26"/><text class="a278b315-642b-41c2-9491-87da268da805" transform="translate(19.37 82.8) scale(0.92 1)">10</text><line class="c2a7ea8e-fa4b-4485-bc0d-89a5ba009430" x1="18" y1="648.3" x2="707.24" y2="648.3"/><path class="1a66cc28-9926-446e-9fde-366597328cf5" d="M22.16,391.6l5.2,5.58,5.2,5.58,5.2-5.58,5.2,5.58,5.2-11.16,5.2-5.58,5.2,5.58,5.2-5.58h10.4l5.2-16.74h5.2l5.2,5.58,5.2-11.16,5.2,5.58,5.2-22.32,5.2-11.16,5.2-11.16,5.2-16.74h5.2l5.2-22.32,5.2-16.74,5.2-27.9,5.2-27.9,5.2-27.9,5.2-22.32,5.2-16.74,5.2-22.32,5.2-5.58h5.2l5.2-5.58,5.2-11.16,5.2-11.16,5.2,5.58h5.2l5.2,5.58h5.2l5.2-5.58h5.2l5.2,16.74,5.2,11.16h5.2l5.2-5.58h5.2l5.2,5.58,5.2-22.32,5.2,27.9,5.2,11.16,5.2,5.58h5.2l5.2-5.58,5.2,5.58,5.2-5.58,5.2,5.58h10.4l5.2,11.16,5.2,11.16,5.2,5.58,5.2,11.16h5.2l5.2,5.58h20.79l5.2,5.58,5.2,16.74h5.2l5.2,5.58,5.2-11.16,5.2-5.58,5.2,16.74,5.2,11.16,5.2-5.58,5.2,5.58h5.2l5.2,11.16,5.2,5.58h10.4l5.2,16.74,5.2,11.16,5.2,5.58,5.2-5.58h5.2l5.2,22.32h5.2l5.2,11.16,5.2-5.58h5.2l5.2,16.74,5.2,11.16,5.2-5.58L516,335.8l5.2-5.58,5.2,11.16h5.2l5.2,5.58,5.2-5.58,5.2,11.16,5.2,5.58,5.2,5.58,5.2,5.58h15.59l5.2,5.58h5.2l5.2-5.58h5.2l5.2,16.74,5.2-11.16h10.4l5.2-5.58,5.2,5.58,5.2,16.74,5.2-5.58,5.2-5.58,5.2,5.58,5.2,11.16,5.2,5.58,5.2,5.58h10.4l5.2-5.58,5.2,11.16,5.2,5.58h10.4"/><text class="f1fd47f9-5eaa-4f18-ae56-d5f0f80abebf" transform="translate(11.45 732.45) scale(0.99 1)">Fuente: U.S. Bureau of Economic<tspan class="98738aa1-26fc-4f7b-a8c6-3693561ad3bc" x="283.03" y="0"> </tspan><tspan x="287.26" y="0">Analysis</tspan></text><polygon class="005698ca-d264-4399-bf9e-f4a6aa830023" points="565.19 712.43 728.14 712.43 728.14 737.19 565.19 737.19 565.19 712.43 565.19 712.43"/><path class="70741636-77f3-47cb-bb82-c19df0d2c5a4" d="M695.91,718h-6.24v.78l1.64.39v11.51a1.36,1.36,0,0,1-1.15.58,2.44,2.44,0,0,1-2-1.49L686.57,727a3.23,3.23,0,0,0-2.85-1.92v-.19a3.82,3.82,0,0,0,3.94-3.54c0-2.4-2.18-3.33-4.7-3.33h-5.67v.78l1.85.39v11.68h0l-2.13.41-5.31-14.47a6.67,6.67,0,0,1-1.91,1.64l.2.58-4.84,11.87-1.46.39V732h4.43v-.78l-1.44-.37,1.64-4.32h4.49l1.58,4.29-1.69.41V732h10.75v-.78l-1.77-.38v-5.44a2.66,2.66,0,0,1,2.39,1.77l2.13,3.8a3.45,3.45,0,0,0,3.08,1.87,3,3,0,0,0,2-.83h4.81a7.23,7.23,0,0,0,7.41-7c0-4.09-3.17-7-7.55-7Zm-27.26,7.47,1.9-5,1.82,5Zm13.91-1.05h-1v-5.23h1.2a2.36,2.36,0,0,1,2.45,2.51,2.73,2.73,0,0,1-2.66,2.74Zm13.21,6.47h-2V719.13h2.05c3.19,0,5.15,2.21,5.15,5.85s-2,5.85-5.2,5.85Z"/><path class="70741636-77f3-47cb-bb82-c19df0d2c5a4" d="M593.43,730.84l-5.19-14.1a6.66,6.66,0,0,1-1.91,1.64l.2.58-4.82,11.86-1,.39-.31.78h4.29v-.78l-1.44-.37,1.64-4.32h4.49l1.58,4.29-1.69.41V732H595v-.78l-1.54-.38Zm-8.24-5.41,1.9-5,1.82,5Z"/><polygon class="70741636-77f3-47cb-bb82-c19df0d2c5a4" points="581.06 728.44 580.53 728.15 577.51 730.91 574.91 730.91 574.91 719.14 576.47 718.74 576.47 717.96 570.88 717.96 570.88 718.74 572.45 719.14 572.45 730.82 570.88 731.22 570.88 732 579.67 732 581.06 728.44 581.06 728.44"/><polygon class="70741636-77f3-47cb-bb82-c19df0d2c5a4" points="605.46 717.96 605.46 718.74 607.15 719.14 603.47 728.54 599.61 719.13 601.44 718.74 601.44 717.96 595.19 717.96 595.19 718.74 596.98 719.13 602.53 732.49 603.12 732.49 608.65 719.15 608.69 719.15 610.42 718.74 610.42 717.96 605.46 717.96 605.46 717.96"/><path class="70741636-77f3-47cb-bb82-c19df0d2c5a4" d="M660.82,718v.78l1.68.4s.12,7,.06,8.72a3.54,3.54,0,0,1-3.62,3.46h-.18a3.49,3.49,0,0,1-3.78-3.6v-8.57l1.63-.37V718H651v.78l1.6.38v8.63c.11,3,2.5,4.92,5.58,4.92s5.47-1.77,5.58-4.92l.11-8.62,1.65-.4V718Z"/><path class="70741636-77f3-47cb-bb82-c19df0d2c5a4" d="M721.84,730.82l-5.16-14.06a6.66,6.66,0,0,1-1.91,1.64l.2.58-4.83,11.91-.82.34-1.12-.35V719.13l1.72-.39V718H704v.78l1.7.4v11.69l-1.63.38V732h9v-.78l-1.44-.38,1.64-4.32h4.49l1.58,4.29-1.69.41V732h5.79v-.78l-1.56-.41Zm-8.22-5.38,1.9-5,1.82,5Z"/><path class="70741636-77f3-47cb-bb82-c19df0d2c5a4" d="M630.66,718v.78l1.72.4.11,9.18L623.69,718h-3.76v.78l1.7.37.14.07-.12,11.62h0l-1.77.41-5.31-14.47a6.67,6.67,0,0,1-1.85,1.65l.2.58-4.84,11.87-1.46.39V732H611v-.78l-1.44-.37,1.64-4.32h4.49l1.58,4.29-1.69.41V732h9.24v-.78l-1.77-.4-.2-10.14,10.06,11.82h.66l.13-13.36,1.7-.39V718Zm-19.11,7.47,1.9-5,1.82,5Z"/><path class="70741636-77f3-47cb-bb82-c19df0d2c5a4" d="M645.48,724.83v.78l1.59.4v4.53a5.26,5.26,0,0,1-3.17,1.05c-3.19,0-5.23-2.66-5.23-6.41s2-6.7,5.31-6.7a5,5,0,0,1,4.7,3.83l.45-.27v-4.43l-.41-.22-.89,1.08a8.86,8.86,0,0,0-3.89-1,7.86,7.86,0,0,0-7.88,7.74,7.14,7.14,0,0,0,6.77,7.49h.51a7.25,7.25,0,0,0,4.53-1.51l1.24.82h.4v-6l1.33-.5v-.65Z"/></svg>