<svg id="ec360775-0838-4e2c-ba99-62346f4a95cf" data-name="Capa 1" xmlns="http://www.w3.org/2000/svg" viewBox="0 0 647 1153"><defs><style>.d70e4c0d-31be-4671-a7c9-e01fb6475809{font-size:29px;font-family:Arial-BoldMT, Arial;font-weight:700;}.\32 b8ebbaa-3c51-4592-8f74-3dd5f64c5986,.\35 c54aa7b-af7b-41ed-a24a-6741b3d66e13,.\37 f3f4c89-46cd-4f13-860b-acebe4543b8b,.\39 412726e-fd66-438b-9ed5-f8442dce2f0e,.d70e4c0d-31be-4671-a7c9-e01fb6475809{fill:#323232;}.\37 f3f4c89-46cd-4f13-860b-acebe4543b8b,.d836973a-c427-43f8-9c18-7776ea751ab7{font-size:15px;}.\32 b8ebbaa-3c51-4592-8f74-3dd5f64c5986,.\33 5ea6bc6-db3b-46ab-afb7-ad37cb8194e1,.\35 c54aa7b-af7b-41ed-a24a-6741b3d66e13,.\37 f3f4c89-46cd-4f13-860b-acebe4543b8b,.\38 93239e6-d783-4d90-b6f9-deafa151ff27,.\39 412726e-fd66-438b-9ed5-f8442dce2f0e,.a8aa9a22-92f4-47a4-8b26-8f39f7840f84,.d836973a-c427-43f8-9c18-7776ea751ab7{font-family:ArialMT, Arial;}.c871f530-420b-4477-be39-a32ebe298c44{letter-spacing:-0.06em;}.eb679c95-a474-4985-b117-e4c2727cf565{letter-spacing:-0.04em;}.\35 c54aa7b-af7b-41ed-a24a-6741b3d66e13{font-size:14.83px;}.\32 b8ebbaa-3c51-4592-8f74-3dd5f64c5986{font-size:16.07px;}.a495b0ef-2a45-45bf-8b97-c4eb8bbeeca1{fill:#a55804;}.\33 5ea6bc6-db3b-46ab-afb7-ad37cb8194e1,.\38 93239e6-d783-4d90-b6f9-deafa151ff27{font-size:18.54px;}.\38 93239e6-d783-4d90-b6f9-deafa151ff27,.\39 2c2576f-125d-460b-8b2a-2fe86c02865e{fill:#fff;}.\37 d2e721f-4ac6-43ab-878f-a5eec3415168{fill:#cc7205;}.a8aa9a22-92f4-47a4-8b26-8f39f7840f84{font-size:16px;}.\33 5ea6bc6-db3b-46ab-afb7-ad37cb8194e1,.a8aa9a22-92f4-47a4-8b26-8f39f7840f84,.d836973a-c427-43f8-9c18-7776ea751ab7{fill:#757575;}.\33 ac6d450-10c7-4024-88ed-e08fd2f57c49,.cb040d72-5c09-4539-ba87-a67387ecab9a{fill:none;stroke-miterlimit:10;}.\33 ac6d450-10c7-4024-88ed-e08fd2f57c49{stroke:#323232;stroke-width:0.75px;}.cb040d72-5c09-4539-ba87-a67387ecab9a{stroke:#757575;stroke-width:0.5px;}.c8e76bb9-72ad-4aec-b798-01aecad9dbe0{fill:#ffe8cf;}.\34 8415d07-b3be-410c-9f4e-1bc8991fcd96{letter-spacing:-0.07em;}.b86a1d31-e29c-4cc3-b3b5-e9ae079ca190{fill:#edc99d;}.bb049da4-4028-415e-a10a-bc23c2905752{fill:#f49e20;}.\37 1a31816-6e44-4ff3-8ec6-4143ea261eca{fill:#edb469;}.\39 412726e-fd66-438b-9ed5-f8442dce2f0e{font-size:14px;}.\38 18f74e1-e0cf-423d-b70b-b458621f2c6a{letter-spacing:-0.02em;}.cd3f81ba-df5d-4fd8-8209-e9686e20231c{letter-spacing:-0.07em;}.\37 543b878-62af-4f20-b527-c7f451aea0cf{letter-spacing:-0.11em;}</style></defs><title>partits [Recuperado]</title><text class="d70e4c0d-31be-4671-a7c9-e01fb6475809" transform="translate(6.89 32.76)">Así influye la edad en la opinión de los <tspan x="0" y="34.8">votantes catalanes</tspan></text><text class="7f3f4c89-46cd-4f13-860b-acebe4543b8b" transform="translate(4.19 94.89)">LAS FUERZAS DE SEGURIDAD<tspan class="c871f530-420b-4477-be39-a32ebe298c44" x="220.88" y="0"> </tspan><tspan x="224.22" y="0">ACTUARON </tspan><tspan x="0" y="15">PROPORCIONALMENTE E</tspan><tspan class="eb679c95-a474-4985-b117-e4c2727cf565" x="187.53" y="15">L</tspan><tspan x="195.31" y="15" xml:space="preserve"> 1 DE OCTUBRE</tspan></text><text class="5c54aa7b-af7b-41ed-a24a-6741b3d66e13" transform="translate(496 109.65)">45-54</text><text class="5c54aa7b-af7b-41ed-a24a-6741b3d66e13" transform="translate(546 108.65)">55-64</text><text class="5c54aa7b-af7b-41ed-a24a-6741b3d66e13" transform="translate(602 108.65)">+64</text><text class="2b8ebbaa-3c51-4592-8f74-3dd5f64c5986" transform="translate(333 109.3)">18-24</text><text class="2b8ebbaa-3c51-4592-8f74-3dd5f64c5986" transform="translate(390.47 109.3)">25-34</text><text class="2b8ebbaa-3c51-4592-8f74-3dd5f64c5986" transform="translate(446 109.3)">35-44</text><rect class="a495b0ef-2a45-45bf-8b97-c4eb8bbeeca1" x="333.4" y="116" width="51.6" height="32.38"/><text class="893239e6-d783-4d90-b6f9-deafa151ff27" transform="translate(338.32 137.79)">77,1</text><rect class="a495b0ef-2a45-45bf-8b97-c4eb8bbeeca1" x="384.4" y="116" width="51.6" height="32.38"/><text class="893239e6-d783-4d90-b6f9-deafa151ff27" transform="translate(392.36 137.66)">77,5</text><rect class="a495b0ef-2a45-45bf-8b97-c4eb8bbeeca1" x="435.4" y="116.62" width="51.6" height="32.38"/><text class="893239e6-d783-4d90-b6f9-deafa151ff27" transform="translate(454.32 138.79)">76</text><rect class="a495b0ef-2a45-45bf-8b97-c4eb8bbeeca1" x="486.4" y="116.62" width="51.6" height="32.38"/><text class="893239e6-d783-4d90-b6f9-deafa151ff27" transform="translate(496.32 138.79)">74,5</text><rect class="a495b0ef-2a45-45bf-8b97-c4eb8bbeeca1" x="537.4" y="116.62" width="51.6" height="32.38"/><rect class="7d2e721f-4ac6-43ab-878f-a5eec3415168" x="588.4" y="116.62" width="51.6" height="32.38"/><text class="893239e6-d783-4d90-b6f9-deafa151ff27" transform="translate(546.32 138.79)">73,1</text><text class="893239e6-d783-4d90-b6f9-deafa151ff27" transform="translate(597.32 138.79)">67,2</text><text class="a8aa9a22-92f4-47a4-8b26-8f39f7840f84" transform="translate(11.19 139.27)">Muy en desacuerdo</text><text class="a8aa9a22-92f4-47a4-8b26-8f39f7840f84" transform="translate(11.19 170.27)">En desacuerdo</text><text class="a8aa9a22-92f4-47a4-8b26-8f39f7840f84" transform="translate(11.19 203.27)">Ni acuerdo ni en desacuerdo</text><line class="3ac6d450-10c7-4024-88ed-e08fd2f57c49" x1="2.3" y1="117.13" x2="323" y2="117.13"/><line class="3ac6d450-10c7-4024-88ed-e08fd2f57c49" x1="333.5" y1="116.13" x2="639.5" y2="116.13"/><line class="cb040d72-5c09-4539-ba87-a67387ecab9a" x1="333" y1="148.5" x2="639.5" y2="148.5"/><rect class="c8e76bb9-72ad-4aec-b798-01aecad9dbe0" x="333.4" y="149" width="51.6" height="32.38"/><text class="35ea6bc6-db3b-46ab-afb7-ad37cb8194e1" transform="translate(337.32 170.79)">10,9</text><rect class="c8e76bb9-72ad-4aec-b798-01aecad9dbe0" x="384.4" y="149" width="51.6" height="32.38"/><text class="35ea6bc6-db3b-46ab-afb7-ad37cb8194e1" transform="translate(393.32 170.79)"><tspan class="48415d07-b3be-410c-9f4e-1bc8991fcd96">1</tspan><tspan x="8.94" y="0">1,6</tspan></text><rect class="c8e76bb9-72ad-4aec-b798-01aecad9dbe0" x="435.4" y="149" width="51.6" height="33"/><text class="35ea6bc6-db3b-46ab-afb7-ad37cb8194e1" transform="translate(443.32 171.79)">13,2</text><rect class="c8e76bb9-72ad-4aec-b798-01aecad9dbe0" x="486.4" y="149" width="51.6" height="33"/><text class="35ea6bc6-db3b-46ab-afb7-ad37cb8194e1" transform="translate(496.32 171.79)">13,2</text><rect class="c8e76bb9-72ad-4aec-b798-01aecad9dbe0" x="537.4" y="149" width="51.6" height="33"/><text class="35ea6bc6-db3b-46ab-afb7-ad37cb8194e1" transform="translate(547.32 171.79)">14,4</text><rect class="c8e76bb9-72ad-4aec-b798-01aecad9dbe0" x="588.4" y="149" width="51.6" height="33"/><text class="35ea6bc6-db3b-46ab-afb7-ad37cb8194e1" transform="translate(603.32 171.79)">16</text><line class="cb040d72-5c09-4539-ba87-a67387ecab9a" x1="334.13" y1="181.5" x2="640" y2="181.5"/><line class="cb040d72-5c09-4539-ba87-a67387ecab9a" x1="3" y1="149.5" x2="322.5" y2="149.5"/><line class="cb040d72-5c09-4539-ba87-a67387ecab9a" x1="3" y1="181.5" x2="322.5" y2="181.5"/><line class="cb040d72-5c09-4539-ba87-a67387ecab9a" x1="2" y1="214.5" x2="321.5" y2="214.5"/><text class="a8aa9a22-92f4-47a4-8b26-8f39f7840f84" transform="translate(11.19 236.27)">De acuerdo</text><text class="a8aa9a22-92f4-47a4-8b26-8f39f7840f84" transform="translate(11.19 269.27)">Muy de acuerdo</text><line class="cb040d72-5c09-4539-ba87-a67387ecab9a" x1="2" y1="247.5" x2="321.5" y2="247.5"/><line class="cb040d72-5c09-4539-ba87-a67387ecab9a" x1="2" y1="280.5" x2="321.5" y2="280.5"/><rect class="92c2576f-125d-460b-8b2a-2fe86c02865e" x="333.4" y="182" width="51.6" height="32.38"/><text class="35ea6bc6-db3b-46ab-afb7-ad37cb8194e1" transform="translate(343 203.79)">3,9</text><rect class="92c2576f-125d-460b-8b2a-2fe86c02865e" x="384.4" y="182" width="51.6" height="32.38"/><text class="35ea6bc6-db3b-46ab-afb7-ad37cb8194e1" transform="translate(397 203.79)">3,2</text><rect class="92c2576f-125d-460b-8b2a-2fe86c02865e" x="435.4" y="182" width="51.6" height="33"/><text class="35ea6bc6-db3b-46ab-afb7-ad37cb8194e1" transform="translate(460.32 204.79)">3</text><rect class="92c2576f-125d-460b-8b2a-2fe86c02865e" x="486.4" y="182" width="51.6" height="33"/><text class="35ea6bc6-db3b-46ab-afb7-ad37cb8194e1" transform="translate(502.32 204.79)">2,8</text><rect class="92c2576f-125d-460b-8b2a-2fe86c02865e" x="537.4" y="182" width="51.6" height="33"/><text class="35ea6bc6-db3b-46ab-afb7-ad37cb8194e1" transform="translate(552.32 204.79)">2,7</text><rect class="92c2576f-125d-460b-8b2a-2fe86c02865e" x="588.4" y="182" width="51.6" height="33"/><text class="35ea6bc6-db3b-46ab-afb7-ad37cb8194e1" transform="translate(601.32 204.79)">2,4</text><line class="cb040d72-5c09-4539-ba87-a67387ecab9a" x1="334.13" y1="214.5" x2="640" y2="214.5"/><rect class="92c2576f-125d-460b-8b2a-2fe86c02865e" x="333.4" y="215" width="51.6" height="32.38"/><text class="35ea6bc6-db3b-46ab-afb7-ad37cb8194e1" transform="translate(342.32 236.79)">3,3</text><rect class="92c2576f-125d-460b-8b2a-2fe86c02865e" x="384.4" y="215" width="51.6" height="32.38"/><text class="35ea6bc6-db3b-46ab-afb7-ad37cb8194e1" transform="translate(409 236.79)">3</text><rect class="92c2576f-125d-460b-8b2a-2fe86c02865e" x="435.4" y="215" width="51.6" height="33"/><text class="35ea6bc6-db3b-46ab-afb7-ad37cb8194e1" transform="translate(455.32 237.79)">3,1</text><rect class="92c2576f-125d-460b-8b2a-2fe86c02865e" x="486.4" y="215" width="51.6" height="33"/><text class="35ea6bc6-db3b-46ab-afb7-ad37cb8194e1" transform="translate(503.32 237.79)">3,9</text><rect class="92c2576f-125d-460b-8b2a-2fe86c02865e" x="537.4" y="215" width="51.6" height="33"/><text class="35ea6bc6-db3b-46ab-afb7-ad37cb8194e1" transform="translate(555.32 237.79)">4,4</text><rect class="92c2576f-125d-460b-8b2a-2fe86c02865e" x="588.4" y="215" width="51.6" height="33"/><text class="35ea6bc6-db3b-46ab-afb7-ad37cb8194e1" transform="translate(603.32 237.79)">4,7</text><line class="cb040d72-5c09-4539-ba87-a67387ecab9a" x1="334.13" y1="247.5" x2="640" y2="247.5"/><rect class="92c2576f-125d-460b-8b2a-2fe86c02865e" x="333.4" y="248" width="51.6" height="32.38"/><text class="35ea6bc6-db3b-46ab-afb7-ad37cb8194e1" transform="translate(342.32 269.79)">4,6</text><rect class="92c2576f-125d-460b-8b2a-2fe86c02865e" x="384.4" y="248" width="51.6" height="32.38"/><text class="35ea6bc6-db3b-46ab-afb7-ad37cb8194e1" transform="translate(399.32 269.79)">4,4</text><rect class="92c2576f-125d-460b-8b2a-2fe86c02865e" x="435.4" y="248" width="51.6" height="33"/><text class="35ea6bc6-db3b-46ab-afb7-ad37cb8194e1" transform="translate(454.32 270.79)">4,5</text><rect class="92c2576f-125d-460b-8b2a-2fe86c02865e" x="486.4" y="248" width="51.6" height="33"/><text class="35ea6bc6-db3b-46ab-afb7-ad37cb8194e1" transform="translate(503.32 270.79)">5,3</text><rect class="92c2576f-125d-460b-8b2a-2fe86c02865e" x="537.4" y="248" width="51.6" height="33"/><text class="35ea6bc6-db3b-46ab-afb7-ad37cb8194e1" transform="translate(553 270.79)">5,1</text><rect class="92c2576f-125d-460b-8b2a-2fe86c02865e" x="588.4" y="248" width="51.6" height="33"/><text class="35ea6bc6-db3b-46ab-afb7-ad37cb8194e1" transform="translate(600 270.79)">9,3</text><text class="5c54aa7b-af7b-41ed-a24a-6741b3d66e13" transform="translate(496 318.65)">45-54</text><text class="5c54aa7b-af7b-41ed-a24a-6741b3d66e13" transform="translate(546 317.65)">55-64</text><text class="5c54aa7b-af7b-41ed-a24a-6741b3d66e13" transform="translate(602 317.65)">+64</text><text class="2b8ebbaa-3c51-4592-8f74-3dd5f64c5986" transform="translate(333 318.3)">18-24</text><text class="2b8ebbaa-3c51-4592-8f74-3dd5f64c5986" transform="translate(390.47 318.3)">25-34</text><text class="2b8ebbaa-3c51-4592-8f74-3dd5f64c5986" transform="translate(446 318.3)">35-44</text><rect class="7d2e721f-4ac6-43ab-878f-a5eec3415168" x="333.4" y="325" width="51.6" height="32.38"/><text class="893239e6-d783-4d90-b6f9-deafa151ff27" transform="translate(344.32 346.79)">69</text><rect class="a495b0ef-2a45-45bf-8b97-c4eb8bbeeca1" x="384.4" y="325" width="51.6" height="32.38"/><text class="893239e6-d783-4d90-b6f9-deafa151ff27" transform="translate(392.36 346.66)">72,7</text><rect class="a495b0ef-2a45-45bf-8b97-c4eb8bbeeca1" x="435.4" y="325.62" width="51.6" height="32.38"/><text class="893239e6-d783-4d90-b6f9-deafa151ff27" transform="translate(446.32 347.79)">72,6</text><rect class="a495b0ef-2a45-45bf-8b97-c4eb8bbeeca1" x="486.4" y="325.62" width="51.6" height="32.38"/><text class="893239e6-d783-4d90-b6f9-deafa151ff27" transform="translate(495.32 347.79)">72,7</text><rect class="a495b0ef-2a45-45bf-8b97-c4eb8bbeeca1" x="537.4" y="325.62" width="51.6" height="32.38"/><rect class="a495b0ef-2a45-45bf-8b97-c4eb8bbeeca1" x="588.4" y="325.62" width="51.6" height="32.38"/><text class="893239e6-d783-4d90-b6f9-deafa151ff27" transform="translate(546.32 347.79)">70,5</text><text class="893239e6-d783-4d90-b6f9-deafa151ff27" transform="translate(594.32 347.79)">64,5</text><line class="3ac6d450-10c7-4024-88ed-e08fd2f57c49" x1="333.5" y1="325.13" x2="639.5" y2="325.13"/><line class="cb040d72-5c09-4539-ba87-a67387ecab9a" x1="333" y1="357.5" x2="639.5" y2="357.5"/><rect class="c8e76bb9-72ad-4aec-b798-01aecad9dbe0" x="333.4" y="358" width="51.6" height="32.38"/><text class="35ea6bc6-db3b-46ab-afb7-ad37cb8194e1" transform="translate(340.32 379.79)">14,9</text><rect class="c8e76bb9-72ad-4aec-b798-01aecad9dbe0" x="384.4" y="358" width="51.6" height="32.38"/><text class="35ea6bc6-db3b-46ab-afb7-ad37cb8194e1" transform="translate(391.32 379.79)">14,6</text><rect class="c8e76bb9-72ad-4aec-b798-01aecad9dbe0" x="435.4" y="358" width="51.6" height="33"/><text class="35ea6bc6-db3b-46ab-afb7-ad37cb8194e1" transform="translate(455.32 380.79)">16</text><rect class="c8e76bb9-72ad-4aec-b798-01aecad9dbe0" x="486.4" y="358" width="51.6" height="33"/><text class="35ea6bc6-db3b-46ab-afb7-ad37cb8194e1" transform="translate(494.32 380.79)">15,8</text><rect class="c8e76bb9-72ad-4aec-b798-01aecad9dbe0" x="537.4" y="358" width="51.6" height="33"/><text class="35ea6bc6-db3b-46ab-afb7-ad37cb8194e1" transform="translate(547.32 380.79)">17,2</text><rect class="c8e76bb9-72ad-4aec-b798-01aecad9dbe0" x="588.4" y="358" width="51.6" height="33"/><text class="35ea6bc6-db3b-46ab-afb7-ad37cb8194e1" transform="translate(594.32 380.79)">18,1</text><line class="cb040d72-5c09-4539-ba87-a67387ecab9a" x1="334.13" y1="390.5" x2="640" y2="390.5"/><rect class="92c2576f-125d-460b-8b2a-2fe86c02865e" x="333.4" y="391" width="51.6" height="32.38"/><text class="35ea6bc6-db3b-46ab-afb7-ad37cb8194e1" transform="translate(350.32 412.79)">5</text><rect class="92c2576f-125d-460b-8b2a-2fe86c02865e" x="384.4" y="391" width="51.6" height="32.38"/><text class="35ea6bc6-db3b-46ab-afb7-ad37cb8194e1" transform="translate(397.22 412.79)">4,3</text><rect class="92c2576f-125d-460b-8b2a-2fe86c02865e" x="435.4" y="391" width="51.6" height="33"/><text class="35ea6bc6-db3b-46ab-afb7-ad37cb8194e1" transform="translate(454.32 413.79)">3,6</text><rect class="92c2576f-125d-460b-8b2a-2fe86c02865e" x="486.4" y="391" width="51.6" height="33"/><text class="35ea6bc6-db3b-46ab-afb7-ad37cb8194e1" transform="translate(502.32 413.79)">2,8</text><rect class="92c2576f-125d-460b-8b2a-2fe86c02865e" x="537.4" y="391" width="51.6" height="33"/><text class="35ea6bc6-db3b-46ab-afb7-ad37cb8194e1" transform="translate(551.32 413.79)">2,6</text><rect class="92c2576f-125d-460b-8b2a-2fe86c02865e" x="588.4" y="391" width="51.6" height="33"/><text class="35ea6bc6-db3b-46ab-afb7-ad37cb8194e1" transform="translate(602.32 413.79)">2,9</text><line class="cb040d72-5c09-4539-ba87-a67387ecab9a" x1="334.13" y1="423.5" x2="640" y2="423.5"/><rect class="92c2576f-125d-460b-8b2a-2fe86c02865e" x="333.4" y="424" width="51.6" height="32.38"/><text class="35ea6bc6-db3b-46ab-afb7-ad37cb8194e1" transform="translate(350.32 445.79)">6</text><rect class="92c2576f-125d-460b-8b2a-2fe86c02865e" x="384.4" y="424" width="51.6" height="32.38"/><text class="35ea6bc6-db3b-46ab-afb7-ad37cb8194e1" transform="translate(398 445.79)">4,4</text><rect class="92c2576f-125d-460b-8b2a-2fe86c02865e" x="435.4" y="424" width="51.6" height="33"/><text class="35ea6bc6-db3b-46ab-afb7-ad37cb8194e1" transform="translate(461.32 446.79)">4</text><rect class="92c2576f-125d-460b-8b2a-2fe86c02865e" x="486.4" y="424" width="51.6" height="33"/><text class="35ea6bc6-db3b-46ab-afb7-ad37cb8194e1" transform="translate(501.32 446.79)">4,2</text><rect class="92c2576f-125d-460b-8b2a-2fe86c02865e" x="537.4" y="424" width="51.6" height="33"/><text class="35ea6bc6-db3b-46ab-afb7-ad37cb8194e1" transform="translate(552.32 446.79)">4,9</text><rect class="92c2576f-125d-460b-8b2a-2fe86c02865e" x="588.4" y="424" width="51.6" height="33"/><text class="35ea6bc6-db3b-46ab-afb7-ad37cb8194e1" transform="translate(603.32 446.79)">5,3</text><line class="cb040d72-5c09-4539-ba87-a67387ecab9a" x1="334.13" y1="456.5" x2="640" y2="456.5"/><rect class="92c2576f-125d-460b-8b2a-2fe86c02865e" x="333.4" y="457" width="51.6" height="32.38"/><text class="35ea6bc6-db3b-46ab-afb7-ad37cb8194e1" transform="translate(343.32 478.79)">4,7</text><rect class="92c2576f-125d-460b-8b2a-2fe86c02865e" x="384.4" y="457" width="51.6" height="32.38"/><text class="35ea6bc6-db3b-46ab-afb7-ad37cb8194e1" transform="translate(398.32 478.79)">3,8</text><rect class="92c2576f-125d-460b-8b2a-2fe86c02865e" x="435.4" y="457" width="51.6" height="33"/><text class="35ea6bc6-db3b-46ab-afb7-ad37cb8194e1" transform="translate(453.32 479.79)">3,5</text><rect class="92c2576f-125d-460b-8b2a-2fe86c02865e" x="486.4" y="457" width="51.6" height="33"/><text class="35ea6bc6-db3b-46ab-afb7-ad37cb8194e1" transform="translate(503.32 479.79)">4,3</text><rect class="92c2576f-125d-460b-8b2a-2fe86c02865e" x="537.4" y="457" width="51.6" height="33"/><text class="35ea6bc6-db3b-46ab-afb7-ad37cb8194e1" transform="translate(549.32 480.79)">4,5</text><rect class="92c2576f-125d-460b-8b2a-2fe86c02865e" x="588.4" y="457" width="51.6" height="33"/><text class="35ea6bc6-db3b-46ab-afb7-ad37cb8194e1" transform="translate(602.32 478.24)">8,9</text><text class="5c54aa7b-af7b-41ed-a24a-6741b3d66e13" transform="translate(496 528.65)">45-54</text><text class="5c54aa7b-af7b-41ed-a24a-6741b3d66e13" transform="translate(546 527.65)">55-64</text><text class="5c54aa7b-af7b-41ed-a24a-6741b3d66e13" transform="translate(602 527.65)">+64</text><text class="2b8ebbaa-3c51-4592-8f74-3dd5f64c5986" transform="translate(333 528.3)">18-24</text><text class="2b8ebbaa-3c51-4592-8f74-3dd5f64c5986" transform="translate(390.47 528.3)">25-34</text><text class="2b8ebbaa-3c51-4592-8f74-3dd5f64c5986" transform="translate(446 528.3)">35-44</text><rect class="92c2576f-125d-460b-8b2a-2fe86c02865e" x="333.4" y="535" width="51.6" height="32.38"/><text class="35ea6bc6-db3b-46ab-afb7-ad37cb8194e1" transform="translate(344.32 556.79)">7,2</text><rect class="92c2576f-125d-460b-8b2a-2fe86c02865e" x="384.4" y="535" width="51.6" height="32.38"/><text class="35ea6bc6-db3b-46ab-afb7-ad37cb8194e1" transform="translate(401.36 556.66)">6,1</text><rect class="92c2576f-125d-460b-8b2a-2fe86c02865e" x="435.4" y="535.62" width="51.6" height="32.38"/><text class="35ea6bc6-db3b-46ab-afb7-ad37cb8194e1" transform="translate(455.32 557.79)">6,1</text><rect class="92c2576f-125d-460b-8b2a-2fe86c02865e" x="486.4" y="535.62" width="51.6" height="32.38"/><text class="35ea6bc6-db3b-46ab-afb7-ad37cb8194e1" transform="translate(512.32 557.79)">8</text><rect class="92c2576f-125d-460b-8b2a-2fe86c02865e" x="537.4" y="535.62" width="51.6" height="32.38"/><rect class="c8e76bb9-72ad-4aec-b798-01aecad9dbe0" x="588.4" y="535.62" width="51.6" height="32.38"/><text class="35ea6bc6-db3b-46ab-afb7-ad37cb8194e1" transform="translate(553.32 557.79)">8,4</text><text class="35ea6bc6-db3b-46ab-afb7-ad37cb8194e1" transform="translate(597.32 557.79)">14,9</text><line class="cb040d72-5c09-4539-ba87-a67387ecab9a" x1="333" y1="567.5" x2="639.5" y2="567.5"/><rect class="92c2576f-125d-460b-8b2a-2fe86c02865e" x="333.4" y="568" width="51.6" height="32.38"/><text class="35ea6bc6-db3b-46ab-afb7-ad37cb8194e1" transform="translate(343.32 589.79)">7,6</text><rect class="92c2576f-125d-460b-8b2a-2fe86c02865e" x="384.4" y="568" width="51.6" height="32.38"/><text class="35ea6bc6-db3b-46ab-afb7-ad37cb8194e1" transform="translate(398.32 589.79)">6,5</text><rect class="92c2576f-125d-460b-8b2a-2fe86c02865e" x="435.4" y="568" width="51.6" height="33"/><text class="35ea6bc6-db3b-46ab-afb7-ad37cb8194e1" transform="translate(454.32 590.79)">5,8</text><rect class="92c2576f-125d-460b-8b2a-2fe86c02865e" x="486.4" y="568" width="51.6" height="33"/><text class="35ea6bc6-db3b-46ab-afb7-ad37cb8194e1" transform="translate(504.32 590.79)">6,1</text><rect class="92c2576f-125d-460b-8b2a-2fe86c02865e" x="537.4" y="568" width="51.6" height="33"/><text class="35ea6bc6-db3b-46ab-afb7-ad37cb8194e1" transform="translate(555.32 590.79)">6,3</text><rect class="92c2576f-125d-460b-8b2a-2fe86c02865e" x="588.4" y="568" width="51.6" height="33"/><text class="35ea6bc6-db3b-46ab-afb7-ad37cb8194e1" transform="translate(603.32 590.79)">6,6</text><line class="cb040d72-5c09-4539-ba87-a67387ecab9a" x1="334.13" y1="600.5" x2="640" y2="600.5"/><rect class="92c2576f-125d-460b-8b2a-2fe86c02865e" x="333.4" y="601" width="51.6" height="32.38"/><text class="35ea6bc6-db3b-46ab-afb7-ad37cb8194e1" transform="translate(344 622.79)">4,7</text><rect class="92c2576f-125d-460b-8b2a-2fe86c02865e" x="384.4" y="601" width="51.6" height="32.38"/><text class="35ea6bc6-db3b-46ab-afb7-ad37cb8194e1" transform="translate(399.87 622.79)">3,7</text><rect class="92c2576f-125d-460b-8b2a-2fe86c02865e" x="435.4" y="601" width="51.6" height="33"/><text class="35ea6bc6-db3b-46ab-afb7-ad37cb8194e1" transform="translate(453.32 623.79)">3,4</text><rect class="92c2576f-125d-460b-8b2a-2fe86c02865e" x="486.4" y="601" width="51.6" height="33"/><text class="35ea6bc6-db3b-46ab-afb7-ad37cb8194e1" transform="translate(503.32 623.79)">2,3</text><rect class="92c2576f-125d-460b-8b2a-2fe86c02865e" x="537.4" y="601" width="51.6" height="33"/><text class="35ea6bc6-db3b-46ab-afb7-ad37cb8194e1" transform="translate(554.32 623.79)">2,7</text><rect class="92c2576f-125d-460b-8b2a-2fe86c02865e" x="588.4" y="601" width="51.6" height="33"/><text class="35ea6bc6-db3b-46ab-afb7-ad37cb8194e1" transform="translate(604.32 623.79)">2,1</text><line class="cb040d72-5c09-4539-ba87-a67387ecab9a" x1="334.13" y1="633.5" x2="640" y2="633.5"/><rect class="c8e76bb9-72ad-4aec-b798-01aecad9dbe0" x="334.4" y="634" width="51.6" height="32.38"/><text class="35ea6bc6-db3b-46ab-afb7-ad37cb8194e1" transform="translate(336 655.98)">14,9</text><rect class="c8e76bb9-72ad-4aec-b798-01aecad9dbe0" x="384.4" y="634" width="51.6" height="32.38"/><text class="35ea6bc6-db3b-46ab-afb7-ad37cb8194e1" transform="translate(393 655.79)">13,8</text><rect class="c8e76bb9-72ad-4aec-b798-01aecad9dbe0" x="435.4" y="634" width="51.6" height="33"/><text class="35ea6bc6-db3b-46ab-afb7-ad37cb8194e1" transform="translate(449.32 656.79)">13,1</text><rect class="c8e76bb9-72ad-4aec-b798-01aecad9dbe0" x="486.4" y="634" width="51.6" height="33"/><text class="35ea6bc6-db3b-46ab-afb7-ad37cb8194e1" transform="translate(499.32 656.79)"><tspan class="48415d07-b3be-410c-9f4e-1bc8991fcd96">1</tspan><tspan x="8.94" y="0">1,7</tspan></text><rect class="c8e76bb9-72ad-4aec-b798-01aecad9dbe0" x="537.4" y="634" width="51.6" height="33"/><text class="35ea6bc6-db3b-46ab-afb7-ad37cb8194e1" transform="translate(549.32 656.79)">13,4</text><rect class="c8e76bb9-72ad-4aec-b798-01aecad9dbe0" x="588.4" y="634" width="51.6" height="33"/><text class="35ea6bc6-db3b-46ab-afb7-ad37cb8194e1" transform="translate(599.32 656.79)">15,2</text><line class="cb040d72-5c09-4539-ba87-a67387ecab9a" x1="334.13" y1="666.5" x2="640" y2="666.5"/><rect class="7d2e721f-4ac6-43ab-878f-a5eec3415168" x="333.4" y="667" width="51.6" height="32.38"/><text class="893239e6-d783-4d90-b6f9-deafa151ff27" transform="translate(339.32 688.79)">65,4</text><rect class="7d2e721f-4ac6-43ab-878f-a5eec3415168" x="384.4" y="667" width="51.6" height="32.38"/><text class="893239e6-d783-4d90-b6f9-deafa151ff27" transform="translate(395.32 688.79)">69,7</text><rect class="a495b0ef-2a45-45bf-8b97-c4eb8bbeeca1" x="435.4" y="667" width="51.6" height="33"/><text class="893239e6-d783-4d90-b6f9-deafa151ff27" transform="translate(447.32 689.79)">71,4</text><rect class="a495b0ef-2a45-45bf-8b97-c4eb8bbeeca1" x="486.4" y="667" width="51.6" height="33"/><text class="893239e6-d783-4d90-b6f9-deafa151ff27" transform="translate(491.32 689.79)">71,5</text><rect class="7d2e721f-4ac6-43ab-878f-a5eec3415168" x="537.4" y="667" width="51.6" height="33"/><text class="893239e6-d783-4d90-b6f9-deafa151ff27" transform="translate(544.32 689.79)">68,8</text><rect class="7d2e721f-4ac6-43ab-878f-a5eec3415168" x="588.4" y="667" width="51.6" height="33"/><text class="893239e6-d783-4d90-b6f9-deafa151ff27" transform="translate(599.32 689.79)">60,9</text><line class="cb040d72-5c09-4539-ba87-a67387ecab9a" x1="334.13" y1="280.5" x2="640" y2="280.5"/><line class="cb040d72-5c09-4539-ba87-a67387ecab9a" x1="333.5" y1="489.5" x2="635" y2="489.5"/><line class="cb040d72-5c09-4539-ba87-a67387ecab9a" x1="333.13" y1="700.5" x2="639" y2="700.5"/><text class="5c54aa7b-af7b-41ed-a24a-6741b3d66e13" transform="translate(496 741.65)">45-54</text><text class="5c54aa7b-af7b-41ed-a24a-6741b3d66e13" transform="translate(546 740.65)">55-64</text><text class="5c54aa7b-af7b-41ed-a24a-6741b3d66e13" transform="translate(602 740.65)">+64</text><text class="2b8ebbaa-3c51-4592-8f74-3dd5f64c5986" transform="translate(333 741.3)">18-24</text><text class="2b8ebbaa-3c51-4592-8f74-3dd5f64c5986" transform="translate(390.47 741.3)">25-34</text><text class="2b8ebbaa-3c51-4592-8f74-3dd5f64c5986" transform="translate(446 741.3)">35-44</text><rect class="92c2576f-125d-460b-8b2a-2fe86c02865e" x="333.4" y="748" width="51.6" height="32.38"/><text class="35ea6bc6-db3b-46ab-afb7-ad37cb8194e1" transform="translate(345.32 769.79)">7,8</text><rect class="92c2576f-125d-460b-8b2a-2fe86c02865e" x="384.4" y="748" width="51.6" height="32.38"/><text class="35ea6bc6-db3b-46ab-afb7-ad37cb8194e1" transform="translate(400.36 769.66)">8,4</text><rect class="92c2576f-125d-460b-8b2a-2fe86c02865e" x="435.4" y="748.62" width="51.6" height="32.38"/><text class="35ea6bc6-db3b-46ab-afb7-ad37cb8194e1" transform="translate(456.32 770.79)">8,8</text><rect class="92c2576f-125d-460b-8b2a-2fe86c02865e" x="486.4" y="748.62" width="51.6" height="32.38"/><text class="35ea6bc6-db3b-46ab-afb7-ad37cb8194e1" transform="translate(503.32 770.79)">9,4</text><rect class="92c2576f-125d-460b-8b2a-2fe86c02865e" x="537.4" y="748.62" width="51.6" height="32.38"/><rect class="c8e76bb9-72ad-4aec-b798-01aecad9dbe0" x="588.4" y="748.62" width="51.6" height="32.38"/><text class="35ea6bc6-db3b-46ab-afb7-ad37cb8194e1" transform="translate(554.32 770.79)">9,7</text><text class="35ea6bc6-db3b-46ab-afb7-ad37cb8194e1" transform="translate(597.32 770.79)">13,2</text><line class="3ac6d450-10c7-4024-88ed-e08fd2f57c49" x1="333.5" y1="748.13" x2="639.5" y2="748.13"/><line class="cb040d72-5c09-4539-ba87-a67387ecab9a" x1="333" y1="780.5" x2="639.5" y2="780.5"/><rect class="92c2576f-125d-460b-8b2a-2fe86c02865e" x="333.4" y="781" width="51.6" height="32.38"/><text class="35ea6bc6-db3b-46ab-afb7-ad37cb8194e1" transform="translate(345.32 802.79)">9,2</text><rect class="92c2576f-125d-460b-8b2a-2fe86c02865e" x="384.4" y="781" width="51.6" height="32.38"/><text class="35ea6bc6-db3b-46ab-afb7-ad37cb8194e1" transform="translate(401.32 802.79)">9,2</text><rect class="92c2576f-125d-460b-8b2a-2fe86c02865e" x="435.4" y="781" width="51.6" height="33"/><text class="35ea6bc6-db3b-46ab-afb7-ad37cb8194e1" transform="translate(464.32 803.79)">9</text><rect class="92c2576f-125d-460b-8b2a-2fe86c02865e" x="486.4" y="781" width="51.6" height="33"/><text class="35ea6bc6-db3b-46ab-afb7-ad37cb8194e1" transform="translate(504.32 803.79)">9,4</text><rect class="92c2576f-125d-460b-8b2a-2fe86c02865e" x="537.4" y="781" width="51.6" height="33"/><text class="35ea6bc6-db3b-46ab-afb7-ad37cb8194e1" transform="translate(554.32 803.79)">9,4</text><rect class="92c2576f-125d-460b-8b2a-2fe86c02865e" x="588.4" y="781" width="51.6" height="33"/><text class="35ea6bc6-db3b-46ab-afb7-ad37cb8194e1" transform="translate(604.32 803.79)">9,8</text><line class="cb040d72-5c09-4539-ba87-a67387ecab9a" x1="334.13" y1="813.5" x2="640" y2="813.5"/><rect class="c8e76bb9-72ad-4aec-b798-01aecad9dbe0" x="333.4" y="814" width="51.6" height="32.38"/><text class="35ea6bc6-db3b-46ab-afb7-ad37cb8194e1" transform="translate(338.48 835.79)">12,7</text><rect class="c8e76bb9-72ad-4aec-b798-01aecad9dbe0" x="384.4" y="814" width="51.6" height="32.38"/><text class="35ea6bc6-db3b-46ab-afb7-ad37cb8194e1" transform="translate(404.36 835.79)">15</text><rect class="c8e76bb9-72ad-4aec-b798-01aecad9dbe0" x="435.4" y="814" width="51.6" height="33"/><text class="35ea6bc6-db3b-46ab-afb7-ad37cb8194e1" transform="translate(451.32 836.79)">15,6</text><rect class="c8e76bb9-72ad-4aec-b798-01aecad9dbe0" x="486.4" y="814" width="51.6" height="33"/><text class="35ea6bc6-db3b-46ab-afb7-ad37cb8194e1" transform="translate(499.32 836.79)">13,8</text><rect class="c8e76bb9-72ad-4aec-b798-01aecad9dbe0" x="537.4" y="814" width="51.6" height="33"/><text class="35ea6bc6-db3b-46ab-afb7-ad37cb8194e1" transform="translate(546.32 836.79)">13,1</text><rect class="c8e76bb9-72ad-4aec-b798-01aecad9dbe0" x="588.4" y="814" width="51.6" height="33"/><text class="35ea6bc6-db3b-46ab-afb7-ad37cb8194e1" transform="translate(598.32 836.79)">10,1</text><line class="cb040d72-5c09-4539-ba87-a67387ecab9a" x1="334.13" y1="846.5" x2="640" y2="846.5"/><rect class="b86a1d31-e29c-4cc3-b3b5-e9ae079ca190" x="334.4" y="847" width="51.6" height="32.38"/><text class="35ea6bc6-db3b-46ab-afb7-ad37cb8194e1" transform="translate(338.32 868.79)">28,3</text><rect class="b86a1d31-e29c-4cc3-b3b5-e9ae079ca190" x="385.4" y="847" width="51.6" height="32.38"/><text class="35ea6bc6-db3b-46ab-afb7-ad37cb8194e1" transform="translate(402.86 868.79)">28</text><rect class="b86a1d31-e29c-4cc3-b3b5-e9ae079ca190" x="436.4" y="847" width="51.6" height="33"/><text class="35ea6bc6-db3b-46ab-afb7-ad37cb8194e1" transform="translate(451.32 869.79)">26,5</text><rect class="b86a1d31-e29c-4cc3-b3b5-e9ae079ca190" x="487.4" y="847" width="51.6" height="33"/><text class="35ea6bc6-db3b-46ab-afb7-ad37cb8194e1" transform="translate(499.32 869.79)">25,8</text><rect class="b86a1d31-e29c-4cc3-b3b5-e9ae079ca190" x="538.4" y="847" width="51.6" height="33"/><text class="35ea6bc6-db3b-46ab-afb7-ad37cb8194e1" transform="translate(544.32 869.79)">26,4</text><rect class="b86a1d31-e29c-4cc3-b3b5-e9ae079ca190" x="589.4" y="847" width="51.6" height="33"/><text class="35ea6bc6-db3b-46ab-afb7-ad37cb8194e1" transform="translate(600.32 869.79)">27,3</text><line class="cb040d72-5c09-4539-ba87-a67387ecab9a" x1="334.13" y1="879.5" x2="640" y2="879.5"/><rect class="bb049da4-4028-415e-a10a-bc23c2905752" x="334" y="880" width="53" height="32.38"/><text class="893239e6-d783-4d90-b6f9-deafa151ff27" transform="translate(339.32 901.79)">41,8</text><rect class="71a31816-6e44-4ff3-8ec6-4143ea261eca" x="386" y="880" width="53" height="32.38"/><text class="35ea6bc6-db3b-46ab-afb7-ad37cb8194e1" transform="translate(394.32 901.79)">39,1</text><rect class="71a31816-6e44-4ff3-8ec6-4143ea261eca" x="439" y="880" width="53" height="33"/><text class="35ea6bc6-db3b-46ab-afb7-ad37cb8194e1" transform="translate(450.32 902.79)">39,8</text><rect class="bb049da4-4028-415e-a10a-bc23c2905752" x="491" y="880" width="52" height="33"/><text class="893239e6-d783-4d90-b6f9-deafa151ff27" transform="translate(501.32 902.79)">41,3</text><rect class="bb049da4-4028-415e-a10a-bc23c2905752" x="537.4" y="880" width="54.6" height="33"/><text class="893239e6-d783-4d90-b6f9-deafa151ff27" transform="translate(550 902.79)">41,1</text><rect class="71a31816-6e44-4ff3-8ec6-4143ea261eca" x="589.4" y="880" width="51.6" height="33"/><text class="35ea6bc6-db3b-46ab-afb7-ad37cb8194e1" transform="translate(597 902.79)">39,4</text><text></text><text class="5c54aa7b-af7b-41ed-a24a-6741b3d66e13" transform="translate(496 947.65)">45-54</text><text class="5c54aa7b-af7b-41ed-a24a-6741b3d66e13" transform="translate(546 946.65)">55-64</text><text class="5c54aa7b-af7b-41ed-a24a-6741b3d66e13" transform="translate(602 946.65)">+64</text><text class="2b8ebbaa-3c51-4592-8f74-3dd5f64c5986" transform="translate(333 947.3)">18-24</text><text class="2b8ebbaa-3c51-4592-8f74-3dd5f64c5986" transform="translate(390.47 947.3)">25-34</text><text class="2b8ebbaa-3c51-4592-8f74-3dd5f64c5986" transform="translate(446 947.3)">35-44</text><rect class="7d2e721f-4ac6-43ab-878f-a5eec3415168" x="333.4" y="954" width="51.6" height="32.38"/><text class="893239e6-d783-4d90-b6f9-deafa151ff27" transform="translate(338.32 975.79)">66,9</text><rect class="a495b0ef-2a45-45bf-8b97-c4eb8bbeeca1" x="384.4" y="954" width="51.6" height="32.38"/><text class="893239e6-d783-4d90-b6f9-deafa151ff27" transform="translate(392.36 975.66)">71,4</text><rect class="a495b0ef-2a45-45bf-8b97-c4eb8bbeeca1" x="435.4" y="954.62" width="51.6" height="32.38"/><text class="893239e6-d783-4d90-b6f9-deafa151ff27" transform="translate(448.32 976.79)">71,3</text><rect class="a495b0ef-2a45-45bf-8b97-c4eb8bbeeca1" x="486.4" y="954.62" width="51.6" height="32.38"/><text class="893239e6-d783-4d90-b6f9-deafa151ff27" transform="translate(498.32 976.79)">71,1</text><rect class="7d2e721f-4ac6-43ab-878f-a5eec3415168" x="537.4" y="954.62" width="51.6" height="32.38"/><rect class="7d2e721f-4ac6-43ab-878f-a5eec3415168" x="588.4" y="954.62" width="51.6" height="32.38"/><text class="893239e6-d783-4d90-b6f9-deafa151ff27" transform="translate(545.32 976.79)">69,5</text><text class="893239e6-d783-4d90-b6f9-deafa151ff27" transform="translate(607.32 976.79)">62</text><line class="3ac6d450-10c7-4024-88ed-e08fd2f57c49" x1="333.5" y1="954.13" x2="639.5" y2="954.13"/><line class="cb040d72-5c09-4539-ba87-a67387ecab9a" x1="333" y1="986.5" x2="639.5" y2="986.5"/><rect class="c8e76bb9-72ad-4aec-b798-01aecad9dbe0" x="333.4" y="987" width="51.6" height="32.38"/><text class="35ea6bc6-db3b-46ab-afb7-ad37cb8194e1" transform="translate(342.32 1008.79)">18,7</text><rect class="c8e76bb9-72ad-4aec-b798-01aecad9dbe0" x="384.4" y="987" width="51.6" height="32.38"/><text class="35ea6bc6-db3b-46ab-afb7-ad37cb8194e1" transform="translate(393.32 1008.79)">16,7</text><rect class="c8e76bb9-72ad-4aec-b798-01aecad9dbe0" x="435.4" y="987" width="51.6" height="33"/><text class="35ea6bc6-db3b-46ab-afb7-ad37cb8194e1" transform="translate(447.32 1009.79)">17,1</text><rect class="c8e76bb9-72ad-4aec-b798-01aecad9dbe0" x="486.4" y="987" width="51.6" height="33"/><text class="35ea6bc6-db3b-46ab-afb7-ad37cb8194e1" transform="translate(499.32 1009.79)">16,9</text><rect class="c8e76bb9-72ad-4aec-b798-01aecad9dbe0" x="537.4" y="987" width="51.6" height="33"/><text class="35ea6bc6-db3b-46ab-afb7-ad37cb8194e1" transform="translate(550.32 1009.79)">18,4</text><rect class="c8e76bb9-72ad-4aec-b798-01aecad9dbe0" x="588.4" y="987" width="51.6" height="33"/><text class="35ea6bc6-db3b-46ab-afb7-ad37cb8194e1" transform="translate(600.32 1009.79)">20,5</text><line class="cb040d72-5c09-4539-ba87-a67387ecab9a" x1="334.13" y1="1019.5" x2="640" y2="1019.5"/><rect class="92c2576f-125d-460b-8b2a-2fe86c02865e" x="333.4" y="1020" width="51.6" height="32.38"/><text class="35ea6bc6-db3b-46ab-afb7-ad37cb8194e1" transform="translate(345.38 1041.79)">5,1</text><rect class="92c2576f-125d-460b-8b2a-2fe86c02865e" x="384.4" y="1020" width="51.6" height="32.38"/><text class="35ea6bc6-db3b-46ab-afb7-ad37cb8194e1" transform="translate(399.3 1041.79)">4,3</text><rect class="92c2576f-125d-460b-8b2a-2fe86c02865e" x="435.4" y="1020" width="51.6" height="33"/><text class="35ea6bc6-db3b-46ab-afb7-ad37cb8194e1" transform="translate(457.32 1042.79)">3,7</text><rect class="92c2576f-125d-460b-8b2a-2fe86c02865e" x="486.4" y="1020" width="51.6" height="33"/><text class="35ea6bc6-db3b-46ab-afb7-ad37cb8194e1" transform="translate(506.32 1042.79)">3,1</text><rect class="92c2576f-125d-460b-8b2a-2fe86c02865e" x="537.4" y="1020" width="51.6" height="33"/><text class="35ea6bc6-db3b-46ab-afb7-ad37cb8194e1" transform="translate(558.32 1042.79)">2,9</text><rect class="92c2576f-125d-460b-8b2a-2fe86c02865e" x="588.4" y="1020" width="51.6" height="33"/><text class="35ea6bc6-db3b-46ab-afb7-ad37cb8194e1" transform="translate(606.32 1042.79)">2,9</text><line class="cb040d72-5c09-4539-ba87-a67387ecab9a" x1="334.13" y1="1052.5" x2="640" y2="1052.5"/><rect class="92c2576f-125d-460b-8b2a-2fe86c02865e" x="333.4" y="1053" width="51.6" height="32.38"/><text class="35ea6bc6-db3b-46ab-afb7-ad37cb8194e1" transform="translate(345.32 1074.79)">5,2</text><rect class="92c2576f-125d-460b-8b2a-2fe86c02865e" x="384.4" y="1053" width="51.6" height="32.38"/><text class="35ea6bc6-db3b-46ab-afb7-ad37cb8194e1" transform="translate(399.07 1074.79)">4,2</text><rect class="92c2576f-125d-460b-8b2a-2fe86c02865e" x="435.4" y="1053" width="51.6" height="33"/><text class="35ea6bc6-db3b-46ab-afb7-ad37cb8194e1" transform="translate(458.32 1075.79)">4,1</text><rect class="92c2576f-125d-460b-8b2a-2fe86c02865e" x="486.4" y="1053" width="51.6" height="33"/><text class="35ea6bc6-db3b-46ab-afb7-ad37cb8194e1" transform="translate(506.32 1075.79)">4,9</text><rect class="92c2576f-125d-460b-8b2a-2fe86c02865e" x="537.4" y="1053" width="51.6" height="33"/><text class="35ea6bc6-db3b-46ab-afb7-ad37cb8194e1" transform="translate(558.32 1075.79)">4,7</text><rect class="92c2576f-125d-460b-8b2a-2fe86c02865e" x="588.4" y="1053" width="51.6" height="33"/><text class="35ea6bc6-db3b-46ab-afb7-ad37cb8194e1" transform="translate(606.32 1075.79)">5,8</text><line class="cb040d72-5c09-4539-ba87-a67387ecab9a" x1="334.13" y1="1085.5" x2="640" y2="1085.5"/><rect class="92c2576f-125d-460b-8b2a-2fe86c02865e" x="333.4" y="1086" width="51.6" height="32.38"/><text class="35ea6bc6-db3b-46ab-afb7-ad37cb8194e1" transform="translate(346.32 1107.79)">3,9</text><rect class="92c2576f-125d-460b-8b2a-2fe86c02865e" x="384.4" y="1086" width="51.6" height="32.38"/><text class="35ea6bc6-db3b-46ab-afb7-ad37cb8194e1" transform="translate(403.32 1107.79)">3,3</text><rect class="92c2576f-125d-460b-8b2a-2fe86c02865e" x="435.4" y="1086" width="51.6" height="33"/><text class="35ea6bc6-db3b-46ab-afb7-ad37cb8194e1" transform="translate(459.32 1108.79)">3,6</text><rect class="92c2576f-125d-460b-8b2a-2fe86c02865e" x="486.4" y="1086" width="51.6" height="33"/><text class="35ea6bc6-db3b-46ab-afb7-ad37cb8194e1" transform="translate(508.32 1108.79)">4,1</text><rect class="92c2576f-125d-460b-8b2a-2fe86c02865e" x="537.4" y="1086" width="51.6" height="33"/><text class="35ea6bc6-db3b-46ab-afb7-ad37cb8194e1" transform="translate(556.32 1108.79)">4,3</text><rect class="92c2576f-125d-460b-8b2a-2fe86c02865e" x="588.4" y="1086" width="51.6" height="33"/><text class="35ea6bc6-db3b-46ab-afb7-ad37cb8194e1" transform="translate(604 1108)">8,7</text><line class="cb040d72-5c09-4539-ba87-a67387ecab9a" x1="332.13" y1="912.5" x2="638" y2="912.5"/><text class="9412726e-fd66-438b-9ed5-f8442dce2f0e" transform="translate(5.19 303.17)">EN L<tspan class="c871f530-420b-4477-be39-a32ebe298c44" x="31.12" y="0">A </tspan><tspan x="42.81" y="0">APLICACIÓN DE</tspan><tspan class="eb679c95-a474-4985-b117-e4c2727cf565" x="150.94" y="0">L</tspan><tspan x="158.21" y="0" xml:space="preserve"> 155 E</tspan><tspan class="eb679c95-a474-4985-b117-e4c2727cf565" x="198.69" y="0">L</tspan><tspan x="205.95" y="0" xml:space="preserve"> GOBIERNO DE</tspan><tspan x="308.64" y="0">-</tspan><tspan x="0" y="15">BERÍ</tspan><tspan class="c871f530-420b-4477-be39-a32ebe298c44" x="32.68" y="15">A</tspan><tspan x="41.24" y="15" xml:space="preserve"> HABER INTE</tspan><tspan class="818f74e1-e0cf-423d-b70b-b458621f2c6a" x="129.14" y="15">R</tspan><tspan x="139" y="15">VENIDO MOSSOS</tspan><tspan class="818f74e1-e0cf-423d-b70b-b458621f2c6a" x="258.02" y="15" xml:space="preserve"> Y </tspan><tspan x="274.38" y="15">TV3</tspan></text><text class="a8aa9a22-92f4-47a4-8b26-8f39f7840f84" transform="translate(12.19 348.27)">Muy en desacuerdo</text><text class="a8aa9a22-92f4-47a4-8b26-8f39f7840f84" transform="translate(12.19 379.27)">En desacuerdo</text><text class="a8aa9a22-92f4-47a4-8b26-8f39f7840f84" transform="translate(12.19 412.27)">Ni acuerdo ni en desacuerdo</text><line class="3ac6d450-10c7-4024-88ed-e08fd2f57c49" x1="3.3" y1="326.13" x2="324" y2="326.13"/><line class="cb040d72-5c09-4539-ba87-a67387ecab9a" x1="4" y1="358.5" x2="323.5" y2="358.5"/><line class="cb040d72-5c09-4539-ba87-a67387ecab9a" x1="4" y1="390.5" x2="323.5" y2="390.5"/><line class="cb040d72-5c09-4539-ba87-a67387ecab9a" x1="3" y1="423.5" x2="322.5" y2="423.5"/><text class="a8aa9a22-92f4-47a4-8b26-8f39f7840f84" transform="translate(12.19 445.27)">De acuerdo</text><text class="a8aa9a22-92f4-47a4-8b26-8f39f7840f84" transform="translate(12.19 478.27)">Muy de acuerdo</text><line class="cb040d72-5c09-4539-ba87-a67387ecab9a" x1="3" y1="456.5" x2="322.5" y2="456.5"/><line class="cb040d72-5c09-4539-ba87-a67387ecab9a" x1="3" y1="489.5" x2="322.5" y2="489.5"/><text class="9412726e-fd66-438b-9ed5-f8442dce2f0e" transform="translate(5.19 931.17)">L<tspan class="c871f530-420b-4477-be39-a32ebe298c44" x="7.79" y="0">A</tspan><tspan x="16.35" y="0" xml:space="preserve"> INMERSIÓN LINGÜÍSTIC</tspan><tspan class="c871f530-420b-4477-be39-a32ebe298c44" x="182.03" y="0">A</tspan><tspan x="190.6" y="0" xml:space="preserve"> ES UN SISTEM</tspan><tspan class="c871f530-420b-4477-be39-a32ebe298c44" x="293.28" y="0">A</tspan><tspan x="301.85" y="0"> </tspan><tspan x="0" y="15">QUE FOMEN</tspan><tspan class="cd3f81ba-df5d-4fd8-8209-e9686e20231c" x="84.78" y="15">T</tspan><tspan class="c871f530-420b-4477-be39-a32ebe298c44" x="92.29" y="15">A</tspan><tspan x="100.86" y="15" xml:space="preserve"> E</tspan><tspan class="eb679c95-a474-4985-b117-e4c2727cf565" x="114.08" y="15">L</tspan><tspan class="c871f530-420b-4477-be39-a32ebe298c44" x="121.35" y="15"> </tspan><tspan x="124.47" y="15">ADOCTRINAMIEN</tspan><tspan class="818f74e1-e0cf-423d-b70b-b458621f2c6a" x="241.92" y="15">T</tspan></text><text class="a8aa9a22-92f4-47a4-8b26-8f39f7840f84" transform="translate(12.19 976.27)">Muy en desacuerdo</text><text class="a8aa9a22-92f4-47a4-8b26-8f39f7840f84" transform="translate(12.19 1007.27)">En desacuerdo</text><text class="a8aa9a22-92f4-47a4-8b26-8f39f7840f84" transform="translate(12.19 1040.27)">Ni acuerdo ni en desacuerdo</text><line class="3ac6d450-10c7-4024-88ed-e08fd2f57c49" x1="3.3" y1="954.13" x2="324" y2="954.13"/><line class="cb040d72-5c09-4539-ba87-a67387ecab9a" x1="4" y1="986.5" x2="323.5" y2="986.5"/><line class="cb040d72-5c09-4539-ba87-a67387ecab9a" x1="4" y1="1018.5" x2="323.5" y2="1018.5"/><line class="cb040d72-5c09-4539-ba87-a67387ecab9a" x1="3" y1="1051.5" x2="322.5" y2="1051.5"/><text class="a8aa9a22-92f4-47a4-8b26-8f39f7840f84" transform="translate(12.19 1073.27)">De acuerdo</text><text class="a8aa9a22-92f4-47a4-8b26-8f39f7840f84" transform="translate(12.19 1106.27)">Muy de acuerdo</text><line class="cb040d72-5c09-4539-ba87-a67387ecab9a" x1="3" y1="1084.5" x2="322.5" y2="1084.5"/><text class="9412726e-fd66-438b-9ed5-f8442dce2f0e" transform="translate(5.19 513.17)">ENCARCELAR CONSELLERS<tspan class="818f74e1-e0cf-423d-b70b-b458621f2c6a" x="193.72" y="0" xml:space="preserve"> Y</tspan><tspan x="206.45" y="0" xml:space="preserve"> DIRIGENTES</tspan><tspan x="0" y="15">SOBERANIS</tspan><tspan class="cd3f81ba-df5d-4fd8-8209-e9686e20231c" x="81.69" y="15">T</tspan><tspan x="89.2" y="15">AS ES DESPROPORCIONADO</tspan></text><text class="a8aa9a22-92f4-47a4-8b26-8f39f7840f84" transform="translate(12.19 558.27)">Muy en desacuerdo</text><text class="a8aa9a22-92f4-47a4-8b26-8f39f7840f84" transform="translate(12.19 589.27)">En desacuerdo</text><text class="a8aa9a22-92f4-47a4-8b26-8f39f7840f84" transform="translate(12.19 622.27)">Ni acuerdo ni en desacuerdo</text><line class="3ac6d450-10c7-4024-88ed-e08fd2f57c49" x1="3.3" y1="536.13" x2="324" y2="536.13"/><line class="cb040d72-5c09-4539-ba87-a67387ecab9a" x1="4" y1="568.5" x2="323.5" y2="568.5"/><line class="cb040d72-5c09-4539-ba87-a67387ecab9a" x1="4" y1="600.5" x2="323.5" y2="600.5"/><line class="cb040d72-5c09-4539-ba87-a67387ecab9a" x1="3" y1="633.5" x2="322.5" y2="633.5"/><text class="a8aa9a22-92f4-47a4-8b26-8f39f7840f84" transform="translate(12.19 655.27)">De acuerdo</text><text class="a8aa9a22-92f4-47a4-8b26-8f39f7840f84" transform="translate(12.19 688.27)">Muy de acuerdo</text><line class="cb040d72-5c09-4539-ba87-a67387ecab9a" x1="3" y1="666.5" x2="322.5" y2="666.5"/><line class="cb040d72-5c09-4539-ba87-a67387ecab9a" x1="3" y1="699.5" x2="322.5" y2="699.5"/><text class="9412726e-fd66-438b-9ed5-f8442dce2f0e" transform="translate(2.19 727.17)">H<tspan class="cd3f81ba-df5d-4fd8-8209-e9686e20231c" x="10.11" y="0">A</tspan><tspan class="818f74e1-e0cf-423d-b70b-b458621f2c6a" x="18.41" y="0">Y</tspan><tspan x="27.49" y="0" xml:space="preserve"> QUE REFORMAR L</tspan><tspan class="c871f530-420b-4477-be39-a32ebe298c44" x="157.4" y="0">A</tspan><tspan x="165.96" y="0" xml:space="preserve"> CONS</tspan><tspan class="7543b878-62af-4f20-b527-c7f451aea0cf" x="210.3" y="0">T</tspan><tspan x="217.3" y="0">. </tspan><tspan class="cd3f81ba-df5d-4fd8-8209-e9686e20231c" x="225.08" y="0">P</tspan><tspan x="233.38" y="0">AR</tspan><tspan class="c871f530-420b-4477-be39-a32ebe298c44" x="252.83" y="0">A</tspan><tspan x="261.39" y="0" xml:space="preserve"> HACER </tspan><tspan x="0" y="15">UN REFERÉNDUM </tspan><tspan class="cd3f81ba-df5d-4fd8-8209-e9686e20231c" x="126.78" y="15">P</tspan><tspan x="135.08" y="15">AC</tspan><tspan class="cd3f81ba-df5d-4fd8-8209-e9686e20231c" x="154.53" y="15">T</tspan><tspan x="162.04" y="15">ADO CON E</tspan><tspan class="eb679c95-a474-4985-b117-e4c2727cf565" x="240.6" y="15">L</tspan><tspan x="247.87" y="15" xml:space="preserve"> ES</tspan><tspan class="cd3f81ba-df5d-4fd8-8209-e9686e20231c" x="270.44" y="15">T</tspan><tspan x="277.95" y="15">ADO</tspan></text><text class="a8aa9a22-92f4-47a4-8b26-8f39f7840f84" transform="translate(13.19 771.27)">Muy en desacuerdo</text><text class="a8aa9a22-92f4-47a4-8b26-8f39f7840f84" transform="translate(13.19 802.27)">En desacuerdo</text><text class="a8aa9a22-92f4-47a4-8b26-8f39f7840f84" transform="translate(13.19 835.27)">Ni acuerdo ni en desacuerdo</text><line class="3ac6d450-10c7-4024-88ed-e08fd2f57c49" x1="4.3" y1="749.13" x2="325" y2="749.13"/><line class="cb040d72-5c09-4539-ba87-a67387ecab9a" x1="5" y1="781.5" x2="324.5" y2="781.5"/><line class="cb040d72-5c09-4539-ba87-a67387ecab9a" x1="5" y1="813.5" x2="324.5" y2="813.5"/><line class="cb040d72-5c09-4539-ba87-a67387ecab9a" x1="4" y1="846.5" x2="323.5" y2="846.5"/><text class="a8aa9a22-92f4-47a4-8b26-8f39f7840f84" transform="translate(13.19 868.27)">De acuerdo</text><text class="a8aa9a22-92f4-47a4-8b26-8f39f7840f84" transform="translate(13.19 901.27)">Muy de acuerdo</text><line class="cb040d72-5c09-4539-ba87-a67387ecab9a" x1="4" y1="879.5" x2="323.5" y2="879.5"/><line class="cb040d72-5c09-4539-ba87-a67387ecab9a" x1="4" y1="912.5" x2="323.5" y2="912.5"/><line class="3ac6d450-10c7-4024-88ed-e08fd2f57c49" x1="3.5" y1="1115.5" x2="634" y2="1115.5"/><text class="d836973a-c427-43f8-9c18-7776ea751ab7" transform="translate(3.89 1149.74)">Fuente: El<tspan class="818f74e1-e0cf-423d-b70b-b458621f2c6a" x="68.37" y="0"> </tspan><tspan class="7543b878-62af-4f20-b527-c7f451aea0cf" x="72.27" y="0">T</tspan><tspan x="79.77" y="0">eu </tspan><tspan class="c871f530-420b-4477-be39-a32ebe298c44" x="100.62" y="0">V</tspan><tspan x="109.8" y="0">ot</tspan></text><text class="d836973a-c427-43f8-9c18-7776ea751ab7" transform="translate(521.07 1149.74)">L<tspan class="c871f530-420b-4477-be39-a32ebe298c44" x="8.34" y="0">A</tspan><tspan x="17.52" y="0"> </tspan><tspan class="cd3f81ba-df5d-4fd8-8209-e9686e20231c" x="21.69" y="0">V</tspan><tspan x="30.58" y="0">ANGUARDI</tspan><tspan class="c871f530-420b-4477-be39-a32ebe298c44" x="109.75" y="0">A</tspan></text><line class="cb040d72-5c09-4539-ba87-a67387ecab9a" x1="333.13" y1="535.5" x2="639" y2="535.5"/></svg>