<svg id="6a7a2ad2-a271-44fc-b434-d395070ed5ec" data-name="Capa 1" xmlns="http://www.w3.org/2000/svg" viewBox="0 0 500 569"><defs><style>.\33 a29d972-339b-401d-a311-a899a585cb6f,.ed883669-2c5d-4b0b-aeec-a818afd3725b{opacity:0.75;}.\33 6edd593-4cb9-4d33-aab9-530845ce0e11,.\33 a29d972-339b-401d-a311-a899a585cb6f,.a7477a9d-7883-4e2d-a7bb-e015419be901,.c8ea2de0-3316-478d-91c2-3a99d98f6182{fill:#ffe600;}.\33 6edd593-4cb9-4d33-aab9-530845ce0e11,.a7477a9d-7883-4e2d-a7bb-e015419be901{stroke:#ccc;}.ff3e2b4e-59f2-48be-8b92-c5f23f95f181{font-size:12px;}.\36 1d016cf-80e0-4841-ad8d-f32eea50d3d3,.f23403bd-d82f-46c3-9dcb-221094a2ad0f,.ff3e2b4e-59f2-48be-8b92-c5f23f95f181{fill:#757575;}.\38 9363239-13ca-4b24-8143-7adbedf32c02,.bc41b0a2-d028-4813-b16b-fcb185587b0a,.c15d2530-4f4c-42fa-9b44-43d16b2a3dd2,.f23403bd-d82f-46c3-9dcb-221094a2ad0f,.ff3e2b4e-59f2-48be-8b92-c5f23f95f181{font-family:ArialMT, Arial;}.\33 6edd593-4cb9-4d33-aab9-530845ce0e11{stroke-width:0.5px;}.cfce2a9a-6d60-4ff6-9a17-4e4bbbfd14b6{fill:#3f4d78;}.\37 20645ba-5c49-418b-b070-60f235f3cff3{fill:#d57928;}.\34 72bc6c6-064d-42d1-9640-784abb97ea92{fill:#59a5a5;}.fe99037e-7ba0-429f-b52f-20aadc7d01f5{fill:#efb21b;}.\38 9363239-13ca-4b24-8143-7adbedf32c02{font-size:28px;}.\33 ec9dec4-aaf3-4be9-ad87-b056697e63ae,.\38 9363239-13ca-4b24-8143-7adbedf32c02,.bc41b0a2-d028-4813-b16b-fcb185587b0a,.c15d2530-4f4c-42fa-9b44-43d16b2a3dd2{fill:#323232;}.a1227544-e017-4445-a95d-ded3a00b0b4f{font-size:25px;}.c15d2530-4f4c-42fa-9b44-43d16b2a3dd2,.f23403bd-d82f-46c3-9dcb-221094a2ad0f{font-size:14px;}.\31 15ae38e-a864-4981-b87b-27f998e6c1d1{letter-spacing:-0.06em;}.\36 1d016cf-80e0-4841-ad8d-f32eea50d3d3{font-size:15px;}.\33 ec9dec4-aaf3-4be9-ad87-b056697e63ae,.\36 1d016cf-80e0-4841-ad8d-f32eea50d3d3{font-family:Arial-BoldMT, Arial;font-weight:700;}.bb17a572-7728-4acc-bd38-59723f3806cf{letter-spacing:-0.04em;}.\31 c83127f-1325-4c74-9663-104de96378a2{letter-spacing:-0.07em;}.\38 2b9ed76-f132-4783-8a9c-b7e179016d16{letter-spacing:-0.02em;}.\37 03d039a-525f-49b6-a52d-9ded6d6288cf{letter-spacing:-0.02em;}.\36 e876721-34b3-4806-85b1-2ec68483d059{letter-spacing:-0.11em;}.cc027516-e867-4913-bc4a-bd9346385a4c{letter-spacing:-0.07em;}.\33 ec9dec4-aaf3-4be9-ad87-b056697e63ae,.bc41b0a2-d028-4813-b16b-fcb185587b0a{font-size:16px;}.\33 9ef2868-e11d-4aca-be07-e9ffc5d73531{fill:#8e244f;}.e7224131-3efd-4e0d-a855-364ee170211c{fill:#991d26;}</style></defs><title>partits [Recuperado]</title><g class="ed883669-2c5d-4b0b-aeec-a818afd3725b"><line class="a7477a9d-7883-4e2d-a7bb-e015419be901" x1="487" y1="166.77" x2="23" y2="166.77"/><g class="ed883669-2c5d-4b0b-aeec-a818afd3725b"><text class="ff3e2b4e-59f2-48be-8b92-c5f23f95f181" transform="translate(13.59 170.38) scale(0.92 1)">0</text></g><line class="36edd593-4cb9-4d33-aab9-530845ce0e11" x1="487" y1="154.49" x2="23" y2="154.49"/><g class="ed883669-2c5d-4b0b-aeec-a818afd3725b"><text class="ff3e2b4e-59f2-48be-8b92-c5f23f95f181" transform="translate(7.85 158.1) scale(0.92 1)">20</text></g><line class="36edd593-4cb9-4d33-aab9-530845ce0e11" x1="487" y1="142.2" x2="23" y2="142.2"/><g class="ed883669-2c5d-4b0b-aeec-a818afd3725b"><text class="ff3e2b4e-59f2-48be-8b92-c5f23f95f181" transform="translate(7.85 145.82) scale(0.92 1)">40</text></g><line class="36edd593-4cb9-4d33-aab9-530845ce0e11" x1="487" y1="129.92" x2="23" y2="129.92"/><g class="ed883669-2c5d-4b0b-aeec-a818afd3725b"><text class="ff3e2b4e-59f2-48be-8b92-c5f23f95f181" transform="translate(7.85 133.54) scale(0.92 1)">60</text></g><g class="ed883669-2c5d-4b0b-aeec-a818afd3725b"><text class="ff3e2b4e-59f2-48be-8b92-c5f23f95f181" transform="translate(13.59 105.38) scale(0.92 1)">0</text></g><g class="ed883669-2c5d-4b0b-aeec-a818afd3725b"><text class="ff3e2b4e-59f2-48be-8b92-c5f23f95f181" transform="translate(7.85 93.1) scale(0.92 1)">20</text></g><g class="ed883669-2c5d-4b0b-aeec-a818afd3725b"><text class="ff3e2b4e-59f2-48be-8b92-c5f23f95f181" transform="translate(7.85 80.82) scale(0.92 1)">40</text></g><g class="ed883669-2c5d-4b0b-aeec-a818afd3725b"><text class="ff3e2b4e-59f2-48be-8b92-c5f23f95f181" transform="translate(7.85 68.54) scale(0.92 1)">60</text></g><rect class="cfce2a9a-6d60-4ff6-9a17-4e4bbbfd14b6" x="75.08" y="166.71" width="40.26" height="0.06"/><rect class="cfce2a9a-6d60-4ff6-9a17-4e4bbbfd14b6" x="116.37" y="166.69" width="40.26" height="0.07"/><rect class="cfce2a9a-6d60-4ff6-9a17-4e4bbbfd14b6" x="157.67" y="166.71" width="40.26" height="0.06"/><rect class="cfce2a9a-6d60-4ff6-9a17-4e4bbbfd14b6" x="198.96" y="166.69" width="40.26" height="0.07"/></g><g class="ed883669-2c5d-4b0b-aeec-a818afd3725b"><line class="a7477a9d-7883-4e2d-a7bb-e015419be901" x1="487" y1="228.77" x2="23" y2="228.77"/><g class="ed883669-2c5d-4b0b-aeec-a818afd3725b"><text class="ff3e2b4e-59f2-48be-8b92-c5f23f95f181" transform="translate(13.59 232.38) scale(0.92 1)">0</text></g><line class="36edd593-4cb9-4d33-aab9-530845ce0e11" x1="487" y1="216.49" x2="23" y2="216.49"/><g class="ed883669-2c5d-4b0b-aeec-a818afd3725b"><text class="ff3e2b4e-59f2-48be-8b92-c5f23f95f181" transform="translate(7.85 220.1) scale(0.92 1)">20</text></g><line class="36edd593-4cb9-4d33-aab9-530845ce0e11" x1="487" y1="204.2" x2="23" y2="204.2"/><g class="ed883669-2c5d-4b0b-aeec-a818afd3725b"><text class="ff3e2b4e-59f2-48be-8b92-c5f23f95f181" transform="translate(7.85 207.82) scale(0.92 1)">40</text></g><line class="36edd593-4cb9-4d33-aab9-530845ce0e11" x1="487" y1="191.92" x2="23" y2="191.92"/><g class="ed883669-2c5d-4b0b-aeec-a818afd3725b"><text class="ff3e2b4e-59f2-48be-8b92-c5f23f95f181" transform="translate(7.85 195.54) scale(0.92 1)">60</text></g><rect class="cfce2a9a-6d60-4ff6-9a17-4e4bbbfd14b6" x="75.08" y="228.71" width="40.26" height="0.06"/><rect class="cfce2a9a-6d60-4ff6-9a17-4e4bbbfd14b6" x="116.37" y="228.69" width="40.26" height="0.07"/><rect class="cfce2a9a-6d60-4ff6-9a17-4e4bbbfd14b6" x="157.67" y="228.71" width="40.26" height="0.06"/><rect class="cfce2a9a-6d60-4ff6-9a17-4e4bbbfd14b6" x="198.96" y="228.69" width="40.26" height="0.07"/></g><g class="ed883669-2c5d-4b0b-aeec-a818afd3725b"><line class="a7477a9d-7883-4e2d-a7bb-e015419be901" x1="487" y1="291.77" x2="23" y2="291.77"/><g class="ed883669-2c5d-4b0b-aeec-a818afd3725b"><text class="ff3e2b4e-59f2-48be-8b92-c5f23f95f181" transform="translate(13.59 295.38) scale(0.92 1)">0</text></g><line class="36edd593-4cb9-4d33-aab9-530845ce0e11" x1="487" y1="279.49" x2="23" y2="279.49"/><g class="ed883669-2c5d-4b0b-aeec-a818afd3725b"><text class="ff3e2b4e-59f2-48be-8b92-c5f23f95f181" transform="translate(7.85 283.1) scale(0.92 1)">20</text></g><line class="36edd593-4cb9-4d33-aab9-530845ce0e11" x1="487" y1="267.2" x2="23" y2="267.2"/><g class="ed883669-2c5d-4b0b-aeec-a818afd3725b"><text class="ff3e2b4e-59f2-48be-8b92-c5f23f95f181" transform="translate(7.85 270.82) scale(0.92 1)">40</text></g><line class="36edd593-4cb9-4d33-aab9-530845ce0e11" x1="487" y1="254.92" x2="23" y2="254.92"/><g class="ed883669-2c5d-4b0b-aeec-a818afd3725b"><text class="ff3e2b4e-59f2-48be-8b92-c5f23f95f181" transform="translate(7.85 258.54) scale(0.92 1)">60</text></g><rect class="cfce2a9a-6d60-4ff6-9a17-4e4bbbfd14b6" x="75.08" y="291.71" width="40.26" height="0.06"/><rect class="cfce2a9a-6d60-4ff6-9a17-4e4bbbfd14b6" x="116.37" y="291.69" width="40.26" height="0.07"/><rect class="cfce2a9a-6d60-4ff6-9a17-4e4bbbfd14b6" x="157.67" y="291.71" width="40.26" height="0.06"/><rect class="cfce2a9a-6d60-4ff6-9a17-4e4bbbfd14b6" x="198.96" y="291.69" width="40.26" height="0.07"/></g><g class="ed883669-2c5d-4b0b-aeec-a818afd3725b"><line class="a7477a9d-7883-4e2d-a7bb-e015419be901" x1="486" y1="358.77" x2="21" y2="358.77"/><g class="ed883669-2c5d-4b0b-aeec-a818afd3725b"><text class="ff3e2b4e-59f2-48be-8b92-c5f23f95f181" transform="translate(11.59 362.38) scale(0.92 1)">0</text></g><line class="36edd593-4cb9-4d33-aab9-530845ce0e11" x1="486" y1="346.49" x2="21" y2="346.49"/><g class="ed883669-2c5d-4b0b-aeec-a818afd3725b"><text class="ff3e2b4e-59f2-48be-8b92-c5f23f95f181" transform="translate(5.85 350.1) scale(0.92 1)">20</text></g><line class="36edd593-4cb9-4d33-aab9-530845ce0e11" x1="486" y1="334.2" x2="21" y2="334.2"/><g class="ed883669-2c5d-4b0b-aeec-a818afd3725b"><text class="ff3e2b4e-59f2-48be-8b92-c5f23f95f181" transform="translate(5.85 337.82) scale(0.92 1)">40</text></g><line class="36edd593-4cb9-4d33-aab9-530845ce0e11" x1="486" y1="321.92" x2="21" y2="321.92"/><g class="ed883669-2c5d-4b0b-aeec-a818afd3725b"><text class="ff3e2b4e-59f2-48be-8b92-c5f23f95f181" transform="translate(5.85 325.54) scale(0.92 1)">60</text></g></g><g class="ed883669-2c5d-4b0b-aeec-a818afd3725b"><line class="a7477a9d-7883-4e2d-a7bb-e015419be901" x1="488" y1="427.77" x2="23" y2="427.77"/><line class="a7477a9d-7883-4e2d-a7bb-e015419be901" x1="488" y1="494.5" x2="23" y2="494.5"/><g class="ed883669-2c5d-4b0b-aeec-a818afd3725b"><text class="ff3e2b4e-59f2-48be-8b92-c5f23f95f181" transform="translate(13.59 431.38) scale(0.92 1)">0</text></g><line class="36edd593-4cb9-4d33-aab9-530845ce0e11" x1="488" y1="415.49" x2="23" y2="415.49"/><g class="ed883669-2c5d-4b0b-aeec-a818afd3725b"><text class="ff3e2b4e-59f2-48be-8b92-c5f23f95f181" transform="translate(7.85 419.1) scale(0.92 1)">20</text></g><line class="36edd593-4cb9-4d33-aab9-530845ce0e11" x1="488" y1="403.2" x2="23" y2="403.2"/><g class="ed883669-2c5d-4b0b-aeec-a818afd3725b"><text class="ff3e2b4e-59f2-48be-8b92-c5f23f95f181" transform="translate(7.85 406.82) scale(0.92 1)">40</text></g><line class="36edd593-4cb9-4d33-aab9-530845ce0e11" x1="488" y1="390.92" x2="23" y2="390.92"/><g class="ed883669-2c5d-4b0b-aeec-a818afd3725b"><text class="ff3e2b4e-59f2-48be-8b92-c5f23f95f181" transform="translate(7.85 394.54) scale(0.92 1)">60</text></g><rect class="cfce2a9a-6d60-4ff6-9a17-4e4bbbfd14b6" x="75.08" y="427.71" width="40.26" height="0.06"/><rect class="cfce2a9a-6d60-4ff6-9a17-4e4bbbfd14b6" x="116.37" y="427.69" width="40.26" height="0.07"/><rect class="cfce2a9a-6d60-4ff6-9a17-4e4bbbfd14b6" x="157.67" y="427.71" width="40.26" height="0.06"/><rect class="cfce2a9a-6d60-4ff6-9a17-4e4bbbfd14b6" x="198.96" y="427.69" width="40.26" height="0.07"/></g><g class="ed883669-2c5d-4b0b-aeec-a818afd3725b"><g class="ed883669-2c5d-4b0b-aeec-a818afd3725b"><text class="ff3e2b4e-59f2-48be-8b92-c5f23f95f181" transform="translate(13.59 498.38) scale(0.92 1)">0</text></g><line class="36edd593-4cb9-4d33-aab9-530845ce0e11" x1="488" y1="482.49" x2="23" y2="482.49"/><g class="ed883669-2c5d-4b0b-aeec-a818afd3725b"><text class="ff3e2b4e-59f2-48be-8b92-c5f23f95f181" transform="translate(7.85 486.1) scale(0.92 1)">20</text></g><line class="36edd593-4cb9-4d33-aab9-530845ce0e11" x1="488" y1="470.2" x2="23" y2="470.2"/><g class="ed883669-2c5d-4b0b-aeec-a818afd3725b"><text class="ff3e2b4e-59f2-48be-8b92-c5f23f95f181" transform="translate(7.85 473.82) scale(0.92 1)">40</text></g><line class="36edd593-4cb9-4d33-aab9-530845ce0e11" x1="488" y1="457.92" x2="23" y2="457.92"/><g class="ed883669-2c5d-4b0b-aeec-a818afd3725b"><text class="ff3e2b4e-59f2-48be-8b92-c5f23f95f181" transform="translate(7.85 461.54) scale(0.92 1)">60</text></g><rect class="cfce2a9a-6d60-4ff6-9a17-4e4bbbfd14b6" x="75.08" y="494.71" width="40.26" height="0.06"/><rect class="cfce2a9a-6d60-4ff6-9a17-4e4bbbfd14b6" x="116.37" y="494.69" width="40.26" height="0.07"/><rect class="cfce2a9a-6d60-4ff6-9a17-4e4bbbfd14b6" x="157.67" y="494.71" width="40.26" height="0.06"/><rect class="cfce2a9a-6d60-4ff6-9a17-4e4bbbfd14b6" x="198.96" y="494.69" width="40.26" height="0.07"/></g><g class="ed883669-2c5d-4b0b-aeec-a818afd3725b"><rect class="720645ba-5c49-418b-b070-60f235f3cff3" x="33.89" y="424.91" width="40.34" height="2.22"/><rect class="720645ba-5c49-418b-b070-60f235f3cff3" x="75.27" y="426.44" width="40.34" height="0.68"/><rect class="720645ba-5c49-418b-b070-60f235f3cff3" x="116.65" y="425.66" width="40.34" height="1.47"/><rect class="720645ba-5c49-418b-b070-60f235f3cff3" x="158.02" y="424.73" width="40.34" height="2.4"/><rect class="720645ba-5c49-418b-b070-60f235f3cff3" x="199.4" y="422.4" width="40.34" height="4.73"/><rect class="720645ba-5c49-418b-b070-60f235f3cff3" x="240.78" y="405.51" width="40.34" height="21.61"/><rect class="720645ba-5c49-418b-b070-60f235f3cff3" x="282.15" y="413.69" width="40.34" height="13.44"/><rect class="720645ba-5c49-418b-b070-60f235f3cff3" x="323.53" y="416.6" width="40.34" height="10.53"/><rect class="720645ba-5c49-418b-b070-60f235f3cff3" x="364.9" y="423.46" width="40.34" height="3.67"/><rect class="720645ba-5c49-418b-b070-60f235f3cff3" x="406.28" y="426.76" width="40.34" height="0.37"/><rect class="720645ba-5c49-418b-b070-60f235f3cff3" x="447.66" y="426.81" width="40.34" height="0.31"/></g><g class="ed883669-2c5d-4b0b-aeec-a818afd3725b"><rect class="472bc6c6-064d-42d1-9640-784abb97ea92" x="404.6" y="494.78" width="40.18" height="0.23"/></g><line class="a7477a9d-7883-4e2d-a7bb-e015419be901" x1="488.29" y1="102.76" x2="23" y2="102.76"/><line class="36edd593-4cb9-4d33-aab9-530845ce0e11" x1="488.29" y1="90.47" x2="23" y2="90.47"/><line class="36edd593-4cb9-4d33-aab9-530845ce0e11" x1="488.29" y1="78.19" x2="23" y2="78.19"/><line class="36edd593-4cb9-4d33-aab9-530845ce0e11" x1="488.29" y1="65.91" x2="23" y2="65.91"/><rect class="3a29d972-339b-401d-a311-a899a585cb6f" x="75.27" y="102.66" width="40.34" height="0.09"/><rect class="fe99037e-7ba0-429f-b52f-20aadc7d01f5" x="75.08" y="228.73" width="40.26" height="0.1"/><rect class="fe99037e-7ba0-429f-b52f-20aadc7d01f5" x="116.37" y="228.71" width="40.26" height="0.12"/><rect class="fe99037e-7ba0-429f-b52f-20aadc7d01f5" x="157.67" y="228.71" width="40.26" height="0.12"/><rect class="fe99037e-7ba0-429f-b52f-20aadc7d01f5" x="198.96" y="228.72" width="40.26" height="0.11"/><text class="89363239-13ca-4b24-8143-7adbedf32c02" transform="translate(7.16 28.05)">Identidad izquierda - derecha<tspan class="a1227544-e017-4445-a95d-ded3a00b0b4f" x="362.69" y="0"> </tspan></text><text class="c15d2530-4f4c-42fa-9b44-43d16b2a3dd2" transform="translate(356.24 532.59) scale(0.92 1)">EXTREM<tspan class="115ae38e-a864-4981-b87b-27f998e6c1d1" x="58.34" y="0">A</tspan><tspan x="66.9" y="0" xml:space="preserve"> DERECH</tspan><tspan class="115ae38e-a864-4981-b87b-27f998e6c1d1" x="129.91" y="0">A</tspan></text><text class="61d016cf-80e0-4841-ad8d-f32eea50d3d3" transform="translate(457.77 453.47) scale(0.92 1)">PPC</text><text class="61d016cf-80e0-4841-ad8d-f32eea50d3d3" transform="translate(465.14 384.47) scale(0.92 1)">C<tspan class="bb17a572-7728-4acc-bd38-59723f3806cf" x="10.83" y="0">’</tspan><tspan x="14.44" y="0">s</tspan></text><text class="61d016cf-80e0-4841-ad8d-f32eea50d3d3" transform="translate(454.77 316.47) scale(0.92 1)">PSC</text><text class="61d016cf-80e0-4841-ad8d-f32eea50d3d3" transform="translate(442.53 251.47) scale(0.92 1)">JxC<tspan class="1c83127f-1325-4c74-9663-104de96378a2" x="27.52" y="0">A</tspan><tspan x="37.24" y="0">T</tspan></text><text class="61d016cf-80e0-4841-ad8d-f32eea50d3d3" transform="translate(446.33 185.47) scale(0.92 1)">Cec-<tspan class="82b9ed76-f132-4783-8a9c-b7e179016d16" x="32.51" y="0">P</tspan></text><text class="61d016cf-80e0-4841-ad8d-f32eea50d3d3" transform="translate(457.01 120.47) scale(0.92 1)">ERC</text><text class="61d016cf-80e0-4841-ad8d-f32eea50d3d3" transform="translate(457.26 52.47) scale(0.92 1)">CU<tspan class="82b9ed76-f132-4783-8a9c-b7e179016d16" x="21.66" y="0">P</tspan></text><text class="c15d2530-4f4c-42fa-9b44-43d16b2a3dd2" transform="translate(34 531.96) scale(0.92 1)">EXTREM<tspan class="115ae38e-a864-4981-b87b-27f998e6c1d1" x="58.34" y="0">A</tspan><tspan x="66.9" y="0" xml:space="preserve"> IZQUIERD</tspan><tspan class="115ae38e-a864-4981-b87b-27f998e6c1d1" x="137.68" y="0">A</tspan></text><text class="f23403bd-d82f-46c3-9dcb-221094a2ad0f" transform="translate(3 559.96) scale(0.92 1)">Fuente: El<tspan class="703d039a-525f-49b6-a52d-9ded6d6288cf" x="63.81" y="0"> </tspan><tspan class="6e876721-34b3-4806-85b1-2ec68483d059" x="67.45" y="0">T</tspan><tspan x="74.45" y="0">eu </tspan><tspan class="115ae38e-a864-4981-b87b-27f998e6c1d1" x="93.91" y="0">V</tspan><tspan x="102.48" y="0">ot</tspan></text><text class="f23403bd-d82f-46c3-9dcb-221094a2ad0f" transform="translate(386.39 559.96) scale(0.92 1)">L<tspan class="115ae38e-a864-4981-b87b-27f998e6c1d1" x="7.79" y="0">A</tspan><tspan x="16.35" y="0"> </tspan><tspan class="cc027516-e867-4913-bc4a-bd9346385a4c" x="20.24" y="0">V</tspan><tspan x="28.54" y="0">ANGUARDI</tspan><tspan class="115ae38e-a864-4981-b87b-27f998e6c1d1" x="102.43" y="0">A</tspan></text><text class="3ec9dec4-aaf3-4be9-ad87-b056697e63ae" transform="translate(49.19 513.79) scale(0.92 1)">0</text><text class="bc41b0a2-d028-4813-b16b-fcb185587b0a" transform="translate(90.19 513.79) scale(0.92 1)">1</text><text class="bc41b0a2-d028-4813-b16b-fcb185587b0a" transform="translate(132.19 513.79) scale(0.92 1)">2</text><text class="bc41b0a2-d028-4813-b16b-fcb185587b0a" transform="translate(173.19 513.79) scale(0.92 1)">3</text><text class="bc41b0a2-d028-4813-b16b-fcb185587b0a" transform="translate(214.19 513.79) scale(0.92 1)">4</text><text class="bc41b0a2-d028-4813-b16b-fcb185587b0a" transform="translate(255.19 513.79) scale(0.92 1)">5</text><text class="bc41b0a2-d028-4813-b16b-fcb185587b0a" transform="translate(298.19 513.79) scale(0.92 1)">6</text><text class="bc41b0a2-d028-4813-b16b-fcb185587b0a" transform="translate(340.19 513.79) scale(0.92 1)">7</text><text class="bc41b0a2-d028-4813-b16b-fcb185587b0a" transform="translate(381.19 513.79) scale(0.92 1)">8</text><text class="bc41b0a2-d028-4813-b16b-fcb185587b0a" transform="translate(424.19 513.79) scale(0.92 1)">9</text><text class="3ec9dec4-aaf3-4be9-ad87-b056697e63ae" transform="translate(463.71 513.79) scale(0.92 1)">10</text><g class="ed883669-2c5d-4b0b-aeec-a818afd3725b"><rect class="c8ea2de0-3316-478d-91c2-3a99d98f6182" x="33.67" y="87.02" width="40.18" height="15.25"/><rect class="c8ea2de0-3316-478d-91c2-3a99d98f6182" x="74.88" y="89.18" width="40.18" height="13.08"/><rect class="c8ea2de0-3316-478d-91c2-3a99d98f6182" x="116.1" y="82.07" width="40.18" height="20.19"/><rect class="c8ea2de0-3316-478d-91c2-3a99d98f6182" x="157.31" y="94.07" width="40.18" height="8.2"/><rect class="c8ea2de0-3316-478d-91c2-3a99d98f6182" x="198.53" y="100.32" width="40.18" height="1.94"/><rect class="c8ea2de0-3316-478d-91c2-3a99d98f6182" x="239.74" y="101.23" width="40.18" height="1.04"/><rect class="c8ea2de0-3316-478d-91c2-3a99d98f6182" x="280.96" y="101.91" width="40.18" height="0.35"/><rect class="c8ea2de0-3316-478d-91c2-3a99d98f6182" x="322.17" y="101.9" width="40.18" height="0.37"/><rect class="c8ea2de0-3316-478d-91c2-3a99d98f6182" x="363.39" y="101.63" width="40.18" height="0.64"/><rect class="c8ea2de0-3316-478d-91c2-3a99d98f6182" x="404.6" y="101.82" width="40.18" height="0.45"/><rect class="c8ea2de0-3316-478d-91c2-3a99d98f6182" x="445.82" y="101.93" width="40.18" height="0.34"/></g><g class="ed883669-2c5d-4b0b-aeec-a818afd3725b"><rect class="fe99037e-7ba0-429f-b52f-20aadc7d01f5" x="34.67" y="162.55" width="40.18" height="3.72"/><rect class="fe99037e-7ba0-429f-b52f-20aadc7d01f5" x="75.88" y="160.9" width="40.18" height="5.36"/><rect class="fe99037e-7ba0-429f-b52f-20aadc7d01f5" x="117.1" y="145.32" width="40.18" height="20.95"/><rect class="fe99037e-7ba0-429f-b52f-20aadc7d01f5" x="158.31" y="147.31" width="40.18" height="18.96"/><rect class="fe99037e-7ba0-429f-b52f-20aadc7d01f5" x="199.53" y="159.08" width="40.18" height="7.19"/><rect class="fe99037e-7ba0-429f-b52f-20aadc7d01f5" x="240.74" y="163.37" width="40.18" height="2.9"/><rect class="fe99037e-7ba0-429f-b52f-20aadc7d01f5" x="281.96" y="165.38" width="40.18" height="0.88"/><rect class="fe99037e-7ba0-429f-b52f-20aadc7d01f5" x="323.17" y="165.56" width="40.18" height="0.71"/><rect class="fe99037e-7ba0-429f-b52f-20aadc7d01f5" x="364.39" y="165.49" width="40.18" height="0.77"/><rect class="fe99037e-7ba0-429f-b52f-20aadc7d01f5" x="405.6" y="166.01" width="40.18" height="0.26"/><rect class="fe99037e-7ba0-429f-b52f-20aadc7d01f5" x="446.82" y="166.11" width="40.18" height="0.15"/></g><g class="ed883669-2c5d-4b0b-aeec-a818afd3725b"><rect class="39ef2868-e11d-4aca-be07-e9ffc5d73531" x="34.67" y="225.33" width="40.18" height="3.58"/><rect class="39ef2868-e11d-4aca-be07-e9ffc5d73531" x="75.88" y="222.97" width="40.18" height="5.94"/><rect class="39ef2868-e11d-4aca-be07-e9ffc5d73531" x="117.1" y="209.07" width="40.18" height="19.83"/><rect class="39ef2868-e11d-4aca-be07-e9ffc5d73531" x="158.31" y="209.49" width="40.18" height="19.42"/><rect class="39ef2868-e11d-4aca-be07-e9ffc5d73531" x="199.53" y="221.01" width="40.18" height="7.89"/><rect class="39ef2868-e11d-4aca-be07-e9ffc5d73531" x="240.74" y="225.59" width="40.18" height="3.32"/><rect class="39ef2868-e11d-4aca-be07-e9ffc5d73531" x="281.96" y="227.99" width="40.18" height="0.92"/><rect class="39ef2868-e11d-4aca-be07-e9ffc5d73531" x="323.17" y="228.3" width="40.18" height="0.61"/><rect class="39ef2868-e11d-4aca-be07-e9ffc5d73531" x="364.39" y="228.19" width="40.18" height="0.72"/><rect class="39ef2868-e11d-4aca-be07-e9ffc5d73531" x="405.6" y="228.71" width="40.18" height="0.19"/><rect class="39ef2868-e11d-4aca-be07-e9ffc5d73531" x="446.82" y="228.82" width="40.18" height="0.08"/></g><g class="ed883669-2c5d-4b0b-aeec-a818afd3725b"><rect class="cfce2a9a-6d60-4ff6-9a17-4e4bbbfd14b6" x="34.71" y="288.64" width="40.18" height="2.87" transform="translate(-0.4 0.08) rotate(-0.08)"/><rect class="cfce2a9a-6d60-4ff6-9a17-4e4bbbfd14b6" x="75.92" y="289.15" width="40.18" height="2.3" transform="translate(-0.4 0.13) rotate(-0.08)"/><polyline class="cfce2a9a-6d60-4ff6-9a17-4e4bbbfd14b6" points="157.31 282.83 157.32 291.37 117.14 291.42 117.13 282.89"/><rect class="cfce2a9a-6d60-4ff6-9a17-4e4bbbfd14b6" x="158.35" y="279.4" width="40.18" height="11.93" transform="translate(-0.39 0.24) rotate(-0.08)"/><rect class="cfce2a9a-6d60-4ff6-9a17-4e4bbbfd14b6" x="199.56" y="280.08" width="40.18" height="11.2" transform="translate(-0.39 0.3) rotate(-0.08)"/><rect class="cfce2a9a-6d60-4ff6-9a17-4e4bbbfd14b6" x="240.78" y="279.1" width="40.18" height="12.12" transform="translate(-0.39 0.36) rotate(-0.08)"/><rect class="cfce2a9a-6d60-4ff6-9a17-4e4bbbfd14b6" x="281.99" y="284.13" width="40.18" height="7.04" transform="translate(-0.39 0.41) rotate(-0.08)"/><rect class="cfce2a9a-6d60-4ff6-9a17-4e4bbbfd14b6" x="323.21" y="287.12" width="40.18" height="4" transform="translate(-0.39 0.47) rotate(-0.08)"/><rect class="cfce2a9a-6d60-4ff6-9a17-4e4bbbfd14b6" x="364.43" y="289.76" width="40.18" height="1.29" transform="translate(-0.4 0.53) rotate(-0.08)"/><rect class="cfce2a9a-6d60-4ff6-9a17-4e4bbbfd14b6" x="405.64" y="290.68" width="40.18" height="0.32" transform="translate(-0.4 0.58) rotate(-0.08)"/><rect class="cfce2a9a-6d60-4ff6-9a17-4e4bbbfd14b6" x="446.86" y="290.69" width="40.18" height="0.25" transform="translate(-0.4 0.64) rotate(-0.08)"/></g><g class="ed883669-2c5d-4b0b-aeec-a818afd3725b"><rect class="e7224131-3efd-4e0d-a855-364ee170211c" x="34.37" y="357.47" width="40.21" height="1.3"/><rect class="e7224131-3efd-4e0d-a855-364ee170211c" x="75.62" y="358.04" width="40.21" height="0.74"/><rect class="e7224131-3efd-4e0d-a855-364ee170211c" x="116.86" y="353.39" width="40.21" height="5.38"/><rect class="e7224131-3efd-4e0d-a855-364ee170211c" x="158.1" y="342.08" width="40.21" height="16.7"/><rect class="e7224131-3efd-4e0d-a855-364ee170211c" x="199.34" y="342.22" width="40.21" height="16.55"/><rect class="e7224131-3efd-4e0d-a855-364ee170211c" x="240.58" y="346.39" width="40.21" height="12.39"/><rect class="e7224131-3efd-4e0d-a855-364ee170211c" x="281.82" y="354.29" width="40.21" height="4.48"/><rect class="e7224131-3efd-4e0d-a855-364ee170211c" x="323.06" y="356.14" width="40.21" height="2.63"/><rect class="e7224131-3efd-4e0d-a855-364ee170211c" x="364.31" y="357.94" width="40.21" height="0.83"/><rect class="e7224131-3efd-4e0d-a855-364ee170211c" x="405.55" y="358.61" width="40.21" height="0.17"/><rect class="e7224131-3efd-4e0d-a855-364ee170211c" x="446.79" y="358.55" width="40.21" height="0.22"/></g><g class="ed883669-2c5d-4b0b-aeec-a818afd3725b"><rect class="472bc6c6-064d-42d1-9640-784abb97ea92" x="35.67" y="491.04" width="40.18" height="3.31"/><rect class="472bc6c6-064d-42d1-9640-784abb97ea92" x="76.88" y="493.3" width="40.18" height="1.05"/><rect class="472bc6c6-064d-42d1-9640-784abb97ea92" x="118.1" y="493.07" width="40.18" height="1.28"/><rect class="472bc6c6-064d-42d1-9640-784abb97ea92" x="159.31" y="493" width="40.18" height="1.35"/><rect class="472bc6c6-064d-42d1-9640-784abb97ea92" x="200.53" y="492.02" width="40.18" height="2.33"/><rect class="472bc6c6-064d-42d1-9640-784abb97ea92" x="241.74" y="489.24" width="40.18" height="5.11"/><rect class="472bc6c6-064d-42d1-9640-784abb97ea92" x="282.96" y="488.19" width="40.18" height="6.16"/><rect class="472bc6c6-064d-42d1-9640-784abb97ea92" x="324.17" y="482.03" width="40.18" height="12.33"/><rect class="472bc6c6-064d-42d1-9640-784abb97ea92" x="365.39" y="485.64" width="40.18" height="8.72"/><rect class="472bc6c6-064d-42d1-9640-784abb97ea92" x="406.6" y="490.59" width="40.18" height="3.76"/><rect class="472bc6c6-064d-42d1-9640-784abb97ea92" x="447.82" y="478.79" width="40.18" height="15.56"/></g><text class="f23403bd-d82f-46c3-9dcb-221094a2ad0f" transform="translate(8.01 49.96) scale(0.92 1)">PORCEN<tspan class="cc027516-e867-4913-bc4a-bd9346385a4c" x="59.9" y="0">T</tspan><tspan x="67.41" y="0">AJE DE VO</tspan><tspan class="cc027516-e867-4913-bc4a-bd9346385a4c" x="140.54" y="0">T</tspan><tspan x="148.05" y="0" xml:space="preserve">ANTES  DE CAD</tspan><tspan class="115ae38e-a864-4981-b87b-27f998e6c1d1" x="255.4" y="0">A</tspan><tspan x="263.96" y="0"> </tspan><tspan class="cc027516-e867-4913-bc4a-bd9346385a4c" x="267.85" y="0">P</tspan><tspan x="276.15" y="0">A</tspan><tspan class="703d039a-525f-49b6-a52d-9ded6d6288cf" x="285.49" y="0">R</tspan><tspan x="295.35" y="0">TIDO</tspan></text></svg>