<svg id="c0017fed-e98b-4b37-aa21-a9f89f6af850" data-name="Capa 1" xmlns="http://www.w3.org/2000/svg" viewBox="0 0 600 1160"><defs><style>.\36 eacb3f8-664e-4de3-a926-50625d22d479{font-size:27px;font-family:Arial-BoldMT, Arial;font-weight:700;}.\30 5bac2b0-92f0-4079-9dae-5bf77502d9c5,.\36 eacb3f8-664e-4de3-a926-50625d22d479,.\38 983e97f-e026-4e1c-8c18-f11acf91dcbf,.a98ba8a2-c983-498a-a9a9-06c002a6491a,.c38501bf-99ef-4be6-b1ed-a13d19eb8bcb{fill:#323232;}.c38501bf-99ef-4be6-b1ed-a13d19eb8bcb,.cfedc88d-6aef-4767-bfde-8d4954871d63{font-size:15px;}.\30 5bac2b0-92f0-4079-9dae-5bf77502d9c5,.\31 43ac2b1-58c1-44ed-9cb5-deb81e20e7f0,.\38 983e97f-e026-4e1c-8c18-f11acf91dcbf,.\39 bcdbdc9-eeaf-427a-8d19-1075192dce72,.a98ba8a2-c983-498a-a9a9-06c002a6491a,.c38501bf-99ef-4be6-b1ed-a13d19eb8bcb,.cfedc88d-6aef-4767-bfde-8d4954871d63,.dc9aa6fd-0e96-4342-b4de-9e96d8343e05{font-family:ArialMT, Arial;}.\33 632be24-509b-4736-a02e-4e1896f8d7be{letter-spacing:-0.06em;}.\39 83ade8b-110c-4cc7-9f58-f4253e6f7d79{letter-spacing:-0.04em;}.\38 983e97f-e026-4e1c-8c18-f11acf91dcbf{font-size:14.83px;}.eb0b24e9-0f15-41b3-ba7b-5161cb73e9ed{letter-spacing:-0.02em;}.a98ba8a2-c983-498a-a9a9-06c002a6491a{font-size:16.07px;}.\32 4ab270d-d6b0-48fe-8924-1345aaeffc55{fill:#edb469;}.\31 43ac2b1-58c1-44ed-9cb5-deb81e20e7f0,.dc9aa6fd-0e96-4342-b4de-9e96d8343e05{font-size:18.54px;}.\31 43ac2b1-58c1-44ed-9cb5-deb81e20e7f0,.\39 bcdbdc9-eeaf-427a-8d19-1075192dce72,.cfedc88d-6aef-4767-bfde-8d4954871d63{fill:#757575;}.\31 7680060-e966-4816-a9a3-60f2af249b04{fill:#cc7205;}.\33 6ef39c6-f336-41a8-b9bb-4fc3ab67df93,.dc9aa6fd-0e96-4342-b4de-9e96d8343e05{fill:#fff;}.\38 fb83b0d-11dd-4954-baf0-26449ab3f3df{fill:#a55804;}.\39 bcdbdc9-eeaf-427a-8d19-1075192dce72{font-size:16px;}.\33 e595980-280e-48db-bc25-670e9dc16e2c,.b3262156-bd44-4049-b339-883c590d6de9{fill:none;stroke-miterlimit:10;}.b3262156-bd44-4049-b339-883c590d6de9{stroke:#323232;stroke-width:0.75px;}.\33 e595980-280e-48db-bc25-670e9dc16e2c{stroke:#757575;stroke-width:0.5px;}.\31 9c12f80-445e-4cff-b22a-76db0f8dd1c5{fill:#ffe8cf;}.c401e083-ff1f-4435-b112-3d5b038e9a77{letter-spacing:-0.07em;}.\34 92db55c-5d13-4920-b838-f9dff6268b68{fill:#ef8800;}.\30 5bac2b0-92f0-4079-9dae-5bf77502d9c5{font-size:14px;}.\39 1e4fd12-8f82-4439-aac9-8e2119ce734b{letter-spacing:-0.02em;}.\32 514dbe0-1ee5-43c0-a9e2-9c3f5d260709{fill:#edc99d;}.ceae0dde-32e1-4331-9aa8-6453ace4b57e{letter-spacing:-0.07em;}.\32 9234596-2b60-4a31-a804-9c71b9e43814{fill:#f49e20;}.\37 b56c4b8-e31e-423b-a7d7-f985ec768d45{letter-spacing:-0.11em;}</style></defs><title>partits [Recuperado]</title><text class="6eacb3f8-664e-4de3-a926-50625d22d479" transform="translate(4.89 26.33)">Así influye el nivel de estudios en la opinión <tspan x="0" y="32.4">de los votantes catalanes</tspan></text><text class="c38501bf-99ef-4be6-b1ed-a13d19eb8bcb" transform="translate(2.89 78.74)">Sin estudios, educación primaria, secundaria, formación profesional y universitarios</text><text></text><text class="c38501bf-99ef-4be6-b1ed-a13d19eb8bcb" transform="translate(4.19 101.89)">LAS FUERZAS DE SEGURIDAD<tspan class="3632be24-509b-4736-a02e-4e1896f8d7be" x="220.88" y="0"> </tspan><tspan x="224.22" y="0">ACTUARON </tspan><tspan x="0" y="15">PROPORCIONALMENTE E</tspan><tspan class="983ade8b-110c-4cc7-9f58-f4253e6f7d79" x="187.53" y="15">L</tspan><tspan x="195.31" y="15" xml:space="preserve"> 1 DE OCTUBRE</tspan></text><text class="8983e97f-e026-4e1c-8c18-f11acf91dcbf" transform="translate(512.3 114.65)">F<tspan class="eb0b24e9-0f15-41b3-ba7b-5161cb73e9ed" x="9.06" y="0">P</tspan></text><text class="8983e97f-e026-4e1c-8c18-f11acf91dcbf" transform="translate(558 114.65)">UNI</text><text class="a98ba8a2-c983-498a-a9a9-06c002a6491a" transform="translate(349.47 116.3)">SIN</text><text class="a98ba8a2-c983-498a-a9a9-06c002a6491a" transform="translate(397.47 116.3)">PRIM</text><text class="a98ba8a2-c983-498a-a9a9-06c002a6491a" transform="translate(457.47 116.3)">SEC</text><rect class="24ab270d-d6b0-48fe-8924-1345aaeffc55" x="340.4" y="123" width="51.6" height="32.38"/><text class="143ac2b1-58c1-44ed-9cb5-deb81e20e7f0" transform="translate(345.32 144.79)">31,5</text><rect class="17680060-e966-4816-a9a3-60f2af249b04" x="391.4" y="123" width="51.6" height="32.38"/><text class="dc9aa6fd-0e96-4342-b4de-9e96d8343e05" transform="translate(399.36 144.66)">65,8</text><rect class="8fb83b0d-11dd-4954-baf0-26449ab3f3df" x="442.4" y="123.62" width="51.6" height="32.38"/><text class="dc9aa6fd-0e96-4342-b4de-9e96d8343e05" transform="translate(453.32 145.79)">76,5</text><rect class="8fb83b0d-11dd-4954-baf0-26449ab3f3df" x="493.4" y="123.62" width="51.6" height="32.38"/><text class="dc9aa6fd-0e96-4342-b4de-9e96d8343e05" transform="translate(502.32 145.79)">74,8</text><rect class="8fb83b0d-11dd-4954-baf0-26449ab3f3df" x="544.4" y="123.62" width="51.6" height="32.38"/><text class="dc9aa6fd-0e96-4342-b4de-9e96d8343e05" transform="translate(553.32 145.79)">77,8</text><text class="9bcdbdc9-eeaf-427a-8d19-1075192dce72" transform="translate(11.19 146.27)">Muy en desacuerdo</text><text class="9bcdbdc9-eeaf-427a-8d19-1075192dce72" transform="translate(11.19 177.27)">En desacuerdo</text><text class="9bcdbdc9-eeaf-427a-8d19-1075192dce72" transform="translate(11.19 210.27)">Ni acuerdo ni en desacuerdo</text><line class="b3262156-bd44-4049-b339-883c590d6de9" x1="2.3" y1="124.13" x2="323" y2="124.13"/><line class="b3262156-bd44-4049-b339-883c590d6de9" x1="340.5" y1="123.13" x2="598.5" y2="123.13"/><line class="3e595980-280e-48db-bc25-670e9dc16e2c" x1="340" y1="155.5" x2="597" y2="155.5"/><rect class="36ef39c6-f336-41a8-b9bb-4fc3ab67df93" x="340.4" y="156" width="51.6" height="32.38"/><text class="143ac2b1-58c1-44ed-9cb5-deb81e20e7f0" transform="translate(352.32 177.79)">7,6</text><rect class="19c12f80-445e-4cff-b22a-76db0f8dd1c5" x="391.4" y="156" width="51.6" height="32.38"/><text class="143ac2b1-58c1-44ed-9cb5-deb81e20e7f0" transform="translate(398.32 177.79)">15,1</text><rect class="19c12f80-445e-4cff-b22a-76db0f8dd1c5" x="442.4" y="156" width="51.6" height="33"/><text class="143ac2b1-58c1-44ed-9cb5-deb81e20e7f0" transform="translate(454.32 178.79)"><tspan class="c401e083-ff1f-4435-b112-3d5b038e9a77">1</tspan><tspan x="8.94" y="0">1,8</tspan></text><rect class="19c12f80-445e-4cff-b22a-76db0f8dd1c5" x="493.4" y="156" width="51.6" height="33"/><text class="143ac2b1-58c1-44ed-9cb5-deb81e20e7f0" transform="translate(501.32 178.79)">12,9</text><rect class="19c12f80-445e-4cff-b22a-76db0f8dd1c5" x="544.4" y="156" width="51.6" height="33"/><text class="143ac2b1-58c1-44ed-9cb5-deb81e20e7f0" transform="translate(554.32 178.79)"><tspan class="c401e083-ff1f-4435-b112-3d5b038e9a77">1</tspan><tspan x="8.94" y="0">1,7</tspan></text><line class="3e595980-280e-48db-bc25-670e9dc16e2c" x1="341" y1="188.5" x2="598" y2="188.5"/><line class="3e595980-280e-48db-bc25-670e9dc16e2c" x1="3" y1="156.5" x2="322.5" y2="156.5"/><line class="3e595980-280e-48db-bc25-670e9dc16e2c" x1="3" y1="188.5" x2="322.5" y2="188.5"/><line class="3e595980-280e-48db-bc25-670e9dc16e2c" x1="2" y1="221.5" x2="321.5" y2="221.5"/><text class="9bcdbdc9-eeaf-427a-8d19-1075192dce72" transform="translate(11.19 243.27)">De acuerdo</text><text class="9bcdbdc9-eeaf-427a-8d19-1075192dce72" transform="translate(11.19 276.27)">Muy de acuerdo</text><line class="3e595980-280e-48db-bc25-670e9dc16e2c" x1="2" y1="254.5" x2="321.5" y2="254.5"/><line class="3e595980-280e-48db-bc25-670e9dc16e2c" x1="2" y1="287.5" x2="321.5" y2="287.5"/><rect class="36ef39c6-f336-41a8-b9bb-4fc3ab67df93" x="340.4" y="189" width="51.6" height="32.38"/><text class="143ac2b1-58c1-44ed-9cb5-deb81e20e7f0" transform="translate(357.32 210.79)">5</text><rect class="36ef39c6-f336-41a8-b9bb-4fc3ab67df93" x="391.4" y="189" width="51.6" height="32.38"/><text class="143ac2b1-58c1-44ed-9cb5-deb81e20e7f0" transform="translate(410.32 210.79)">4</text><rect class="36ef39c6-f336-41a8-b9bb-4fc3ab67df93" x="442.4" y="189" width="51.6" height="33"/><text class="143ac2b1-58c1-44ed-9cb5-deb81e20e7f0" transform="translate(458.32 211.79)">3,2</text><rect class="36ef39c6-f336-41a8-b9bb-4fc3ab67df93" x="493.4" y="189" width="51.6" height="33"/><text class="143ac2b1-58c1-44ed-9cb5-deb81e20e7f0" transform="translate(506.32 211.79)">3,5</text><rect class="36ef39c6-f336-41a8-b9bb-4fc3ab67df93" x="544.4" y="189" width="51.6" height="33"/><text class="143ac2b1-58c1-44ed-9cb5-deb81e20e7f0" transform="translate(558.32 211.79)">3,1</text><line class="3e595980-280e-48db-bc25-670e9dc16e2c" x1="341" y1="221.5" x2="598" y2="221.5"/><rect class="36ef39c6-f336-41a8-b9bb-4fc3ab67df93" x="340.4" y="222" width="51.6" height="32.38"/><text class="143ac2b1-58c1-44ed-9cb5-deb81e20e7f0" transform="translate(349.32 243.79)">5,5</text><rect class="36ef39c6-f336-41a8-b9bb-4fc3ab67df93" x="391.4" y="222" width="51.6" height="32.38"/><text class="143ac2b1-58c1-44ed-9cb5-deb81e20e7f0" transform="translate(412.32 243.79)">6</text><rect class="36ef39c6-f336-41a8-b9bb-4fc3ab67df93" x="442.4" y="222" width="51.6" height="33"/><text class="143ac2b1-58c1-44ed-9cb5-deb81e20e7f0" transform="translate(458.32 244.79)">3,4</text><rect class="36ef39c6-f336-41a8-b9bb-4fc3ab67df93" x="493.4" y="222" width="51.6" height="33"/><text class="143ac2b1-58c1-44ed-9cb5-deb81e20e7f0" transform="translate(506.32 244.79)">3,3</text><rect class="36ef39c6-f336-41a8-b9bb-4fc3ab67df93" x="544.4" y="222" width="51.6" height="33"/><text class="143ac2b1-58c1-44ed-9cb5-deb81e20e7f0" transform="translate(559.32 244.79)">3,2</text><line class="3e595980-280e-48db-bc25-670e9dc16e2c" x1="341" y1="254.5" x2="598" y2="254.5"/><rect class="492db55c-5d13-4920-b838-f9dff6268b68" x="340.4" y="255" width="51.6" height="32.38"/><text class="dc9aa6fd-0e96-4342-b4de-9e96d8343e05" transform="translate(346.32 276.79)">50,1</text><rect class="36ef39c6-f336-41a8-b9bb-4fc3ab67df93" x="391.4" y="255" width="51.6" height="32.38"/><text class="143ac2b1-58c1-44ed-9cb5-deb81e20e7f0" transform="translate(404.32 276.79)">8,9</text><rect class="36ef39c6-f336-41a8-b9bb-4fc3ab67df93" x="442.4" y="255" width="51.6" height="33"/><text class="143ac2b1-58c1-44ed-9cb5-deb81e20e7f0" transform="translate(458.32 277.79)">4,9</text><rect class="36ef39c6-f336-41a8-b9bb-4fc3ab67df93" x="493.4" y="255" width="51.6" height="33"/><text class="143ac2b1-58c1-44ed-9cb5-deb81e20e7f0" transform="translate(513.32 277.79)">5</text><rect class="36ef39c6-f336-41a8-b9bb-4fc3ab67df93" x="544.4" y="255" width="51.6" height="33"/><text class="143ac2b1-58c1-44ed-9cb5-deb81e20e7f0" transform="translate(567.32 277.79)">4</text><line class="3e595980-280e-48db-bc25-670e9dc16e2c" x1="341" y1="287.5" x2="598" y2="287.5"/><text class="05bac2b0-92f0-4079-9dae-5bf77502d9c5" transform="translate(5.19 310.17)">EN L<tspan class="3632be24-509b-4736-a02e-4e1896f8d7be" x="31.12" y="0">A </tspan><tspan x="42.81" y="0">APLICACIÓN DE</tspan><tspan class="983ade8b-110c-4cc7-9f58-f4253e6f7d79" x="150.94" y="0">L</tspan><tspan x="158.21" y="0" xml:space="preserve"> 155 E</tspan><tspan class="983ade8b-110c-4cc7-9f58-f4253e6f7d79" x="198.69" y="0">L</tspan><tspan x="205.95" y="0" xml:space="preserve"> GOBIERNO DE</tspan><tspan x="308.64" y="0">-</tspan><tspan x="0" y="15">BERÍ</tspan><tspan class="3632be24-509b-4736-a02e-4e1896f8d7be" x="32.68" y="15">A</tspan><tspan x="41.24" y="15" xml:space="preserve"> HABER INTE</tspan><tspan class="91e4fd12-8f82-4439-aac9-8e2119ce734b" x="129.14" y="15">R</tspan><tspan x="139" y="15">VENIDO MOSSOS</tspan><tspan class="91e4fd12-8f82-4439-aac9-8e2119ce734b" x="258.02" y="15" xml:space="preserve"> Y </tspan><tspan x="274.38" y="15">TV3</tspan></text><text class="8983e97f-e026-4e1c-8c18-f11acf91dcbf" transform="translate(513.3 323.65)">F<tspan class="eb0b24e9-0f15-41b3-ba7b-5161cb73e9ed" x="9.06" y="0">P</tspan></text><text class="8983e97f-e026-4e1c-8c18-f11acf91dcbf" transform="translate(559 323.65)">UNI</text><text class="a98ba8a2-c983-498a-a9a9-06c002a6491a" transform="translate(350.47 325.3)">SIN</text><text class="a98ba8a2-c983-498a-a9a9-06c002a6491a" transform="translate(398.47 325.3)">PRIM</text><text class="a98ba8a2-c983-498a-a9a9-06c002a6491a" transform="translate(458.47 325.3)">SEC</text><rect class="2514dbe0-1ee5-43c0-a9e2-9c3f5d260709" x="341.4" y="332" width="51.6" height="32.38"/><text class="143ac2b1-58c1-44ed-9cb5-deb81e20e7f0" transform="translate(345.32 353.79)">27,8</text><rect class="17680060-e966-4816-a9a3-60f2af249b04" x="392.4" y="332" width="51.6" height="32.38"/><text class="dc9aa6fd-0e96-4342-b4de-9e96d8343e05" transform="translate(400.36 353.66)">60,2</text><rect class="8fb83b0d-11dd-4954-baf0-26449ab3f3df" x="443.4" y="332.62" width="51.6" height="32.38"/><text class="dc9aa6fd-0e96-4342-b4de-9e96d8343e05" transform="translate(454.32 354.79)">71,4</text><rect class="17680060-e966-4816-a9a3-60f2af249b04" x="494.4" y="332.62" width="51.6" height="32.38"/><text class="dc9aa6fd-0e96-4342-b4de-9e96d8343e05" transform="translate(503.32 354.79)">68,5</text><rect class="8fb83b0d-11dd-4954-baf0-26449ab3f3df" x="545.4" y="332.62" width="51.6" height="32.38"/><text class="dc9aa6fd-0e96-4342-b4de-9e96d8343e05" transform="translate(554.32 354.79)">73,2</text><text class="9bcdbdc9-eeaf-427a-8d19-1075192dce72" transform="translate(12.19 355.27)">Muy en desacuerdo</text><text class="9bcdbdc9-eeaf-427a-8d19-1075192dce72" transform="translate(12.19 386.27)">En desacuerdo</text><text class="9bcdbdc9-eeaf-427a-8d19-1075192dce72" transform="translate(12.19 419.27)">Ni acuerdo ni en desacuerdo</text><line class="b3262156-bd44-4049-b339-883c590d6de9" x1="3.3" y1="333.13" x2="324" y2="333.13"/><line class="b3262156-bd44-4049-b339-883c590d6de9" x1="341.5" y1="332.13" x2="599.5" y2="332.13"/><line class="3e595980-280e-48db-bc25-670e9dc16e2c" x1="341" y1="364.5" x2="598" y2="364.5"/><rect class="36ef39c6-f336-41a8-b9bb-4fc3ab67df93" x="341.4" y="365" width="51.6" height="32.38"/><text class="143ac2b1-58c1-44ed-9cb5-deb81e20e7f0" transform="translate(353.32 386.79)">8,3</text><rect class="19c12f80-445e-4cff-b22a-76db0f8dd1c5" x="392.4" y="365" width="51.6" height="32.38"/><text class="143ac2b1-58c1-44ed-9cb5-deb81e20e7f0" transform="translate(400.32 386.79)">19,6</text><rect class="19c12f80-445e-4cff-b22a-76db0f8dd1c5" x="443.4" y="365" width="51.6" height="33"/><text class="143ac2b1-58c1-44ed-9cb5-deb81e20e7f0" transform="translate(454.32 387.79)">15,1</text><rect class="19c12f80-445e-4cff-b22a-76db0f8dd1c5" x="494.4" y="365" width="51.6" height="33"/><text class="143ac2b1-58c1-44ed-9cb5-deb81e20e7f0" transform="translate(502.32 387.79)">16,8</text><rect class="19c12f80-445e-4cff-b22a-76db0f8dd1c5" x="545.4" y="365" width="51.6" height="33"/><text class="143ac2b1-58c1-44ed-9cb5-deb81e20e7f0" transform="translate(555.32 387.79)">14,7</text><line class="3e595980-280e-48db-bc25-670e9dc16e2c" x1="342" y1="397.5" x2="599" y2="397.5"/><line class="3e595980-280e-48db-bc25-670e9dc16e2c" x1="4" y1="365.5" x2="323.5" y2="365.5"/><line class="3e595980-280e-48db-bc25-670e9dc16e2c" x1="4" y1="397.5" x2="323.5" y2="397.5"/><line class="3e595980-280e-48db-bc25-670e9dc16e2c" x1="3" y1="430.5" x2="322.5" y2="430.5"/><text class="9bcdbdc9-eeaf-427a-8d19-1075192dce72" transform="translate(12.19 452.27)">De acuerdo</text><text class="9bcdbdc9-eeaf-427a-8d19-1075192dce72" transform="translate(12.19 485.27)">Muy de acuerdo</text><line class="3e595980-280e-48db-bc25-670e9dc16e2c" x1="3" y1="463.5" x2="322.5" y2="463.5"/><line class="3e595980-280e-48db-bc25-670e9dc16e2c" x1="3" y1="496.5" x2="322.5" y2="496.5"/><rect class="36ef39c6-f336-41a8-b9bb-4fc3ab67df93" x="341.4" y="398" width="51.6" height="32.38"/><text class="143ac2b1-58c1-44ed-9cb5-deb81e20e7f0" transform="translate(353.49 419.79)">5,4</text><rect class="36ef39c6-f336-41a8-b9bb-4fc3ab67df93" x="392.4" y="398" width="51.6" height="32.38"/><text class="143ac2b1-58c1-44ed-9cb5-deb81e20e7f0" transform="translate(406.95 419.79)">3,8</text><rect class="36ef39c6-f336-41a8-b9bb-4fc3ab67df93" x="443.4" y="398" width="51.6" height="33"/><text class="143ac2b1-58c1-44ed-9cb5-deb81e20e7f0" transform="translate(459.32 420.79)">4,1</text><rect class="36ef39c6-f336-41a8-b9bb-4fc3ab67df93" x="494.4" y="398" width="51.6" height="33"/><text class="143ac2b1-58c1-44ed-9cb5-deb81e20e7f0" transform="translate(508.32 420.79)">4,4</text><rect class="36ef39c6-f336-41a8-b9bb-4fc3ab67df93" x="545.4" y="398" width="51.6" height="33"/><text class="143ac2b1-58c1-44ed-9cb5-deb81e20e7f0" transform="translate(559.32 420.79)">3,8</text><line class="3e595980-280e-48db-bc25-670e9dc16e2c" x1="342" y1="430.5" x2="599" y2="430.5"/><rect class="36ef39c6-f336-41a8-b9bb-4fc3ab67df93" x="341.4" y="431" width="51.6" height="32.38"/><text class="143ac2b1-58c1-44ed-9cb5-deb81e20e7f0" transform="translate(350.32 452.79)">7,1</text><rect class="36ef39c6-f336-41a8-b9bb-4fc3ab67df93" x="392.4" y="431" width="51.6" height="32.38"/><text class="143ac2b1-58c1-44ed-9cb5-deb81e20e7f0" transform="translate(408.32 452.79)">6,7</text><rect class="36ef39c6-f336-41a8-b9bb-4fc3ab67df93" x="443.4" y="431" width="51.6" height="33"/><text class="143ac2b1-58c1-44ed-9cb5-deb81e20e7f0" transform="translate(466.32 453.79)">5</text><rect class="36ef39c6-f336-41a8-b9bb-4fc3ab67df93" x="494.4" y="431" width="51.6" height="33"/><text class="143ac2b1-58c1-44ed-9cb5-deb81e20e7f0" transform="translate(508.32 453.79)">5,5</text><rect class="36ef39c6-f336-41a8-b9bb-4fc3ab67df93" x="545.4" y="431" width="51.6" height="33"/><text class="143ac2b1-58c1-44ed-9cb5-deb81e20e7f0" transform="translate(560.32 453.79)">4,5</text><line class="3e595980-280e-48db-bc25-670e9dc16e2c" x1="342" y1="463.5" x2="599" y2="463.5"/><rect class="492db55c-5d13-4920-b838-f9dff6268b68" x="341.4" y="464" width="51.6" height="32.38"/><text class="dc9aa6fd-0e96-4342-b4de-9e96d8343e05" transform="translate(347.32 485.79)">51,1</text><rect class="36ef39c6-f336-41a8-b9bb-4fc3ab67df93" x="392.4" y="464" width="51.6" height="32.38"/><text class="143ac2b1-58c1-44ed-9cb5-deb81e20e7f0" transform="translate(414.32 485.79)">9</text><rect class="36ef39c6-f336-41a8-b9bb-4fc3ab67df93" x="443.4" y="464" width="51.6" height="33"/><text class="143ac2b1-58c1-44ed-9cb5-deb81e20e7f0" transform="translate(459.32 486.79)">4,2</text><rect class="36ef39c6-f336-41a8-b9bb-4fc3ab67df93" x="494.4" y="464" width="51.6" height="33"/><text class="143ac2b1-58c1-44ed-9cb5-deb81e20e7f0" transform="translate(509.32 486.79)">4,6</text><rect class="36ef39c6-f336-41a8-b9bb-4fc3ab67df93" x="545.4" y="464" width="51.6" height="33"/><text class="143ac2b1-58c1-44ed-9cb5-deb81e20e7f0" transform="translate(560 486.79)">3,6</text><text class="05bac2b0-92f0-4079-9dae-5bf77502d9c5" transform="translate(5.19 938.17)">L<tspan class="3632be24-509b-4736-a02e-4e1896f8d7be" x="7.79" y="0">A</tspan><tspan x="16.35" y="0" xml:space="preserve"> INMERSIÓN LINGÜÍSTIC</tspan><tspan class="3632be24-509b-4736-a02e-4e1896f8d7be" x="182.03" y="0">A</tspan><tspan x="190.6" y="0" xml:space="preserve"> ES UN SISTEM</tspan><tspan class="3632be24-509b-4736-a02e-4e1896f8d7be" x="293.28" y="0">A</tspan><tspan x="301.85" y="0"> </tspan><tspan x="0" y="15">QUE FOMEN</tspan><tspan class="ceae0dde-32e1-4331-9aa8-6453ace4b57e" x="84.78" y="15">T</tspan><tspan class="3632be24-509b-4736-a02e-4e1896f8d7be" x="92.29" y="15">A</tspan><tspan x="100.86" y="15" xml:space="preserve"> E</tspan><tspan class="983ade8b-110c-4cc7-9f58-f4253e6f7d79" x="114.08" y="15">L</tspan><tspan class="3632be24-509b-4736-a02e-4e1896f8d7be" x="121.35" y="15"> </tspan><tspan x="124.47" y="15">ADOCTRINAMIEN</tspan><tspan class="91e4fd12-8f82-4439-aac9-8e2119ce734b" x="241.92" y="15">T</tspan></text><text class="8983e97f-e026-4e1c-8c18-f11acf91dcbf" transform="translate(513.3 951.65)">F<tspan class="eb0b24e9-0f15-41b3-ba7b-5161cb73e9ed" x="9.06" y="0">P</tspan></text><text class="8983e97f-e026-4e1c-8c18-f11acf91dcbf" transform="translate(559 951.65)">UNI</text><text class="a98ba8a2-c983-498a-a9a9-06c002a6491a" transform="translate(350.47 953.3)">SIN</text><text class="a98ba8a2-c983-498a-a9a9-06c002a6491a" transform="translate(398.47 953.3)">PRIM</text><text class="a98ba8a2-c983-498a-a9a9-06c002a6491a" transform="translate(458.47 953.3)">SEC</text><rect class="2514dbe0-1ee5-43c0-a9e2-9c3f5d260709" x="341.4" y="960" width="51.6" height="32.38"/><text class="143ac2b1-58c1-44ed-9cb5-deb81e20e7f0" transform="translate(345.32 981.79)">26,4</text><rect class="492db55c-5d13-4920-b838-f9dff6268b68" x="392.4" y="960" width="51.6" height="32.38"/><text class="dc9aa6fd-0e96-4342-b4de-9e96d8343e05" transform="translate(400.36 981.66)">57,6</text><rect class="17680060-e966-4816-a9a3-60f2af249b04" x="443.4" y="960.62" width="51.6" height="32.38"/><text class="dc9aa6fd-0e96-4342-b4de-9e96d8343e05" transform="translate(454.32 982.79)">68,6</text><rect class="17680060-e966-4816-a9a3-60f2af249b04" x="494.4" y="960.62" width="51.6" height="32.38"/><text class="dc9aa6fd-0e96-4342-b4de-9e96d8343e05" transform="translate(501.32 982.79)">65,9</text><rect class="8fb83b0d-11dd-4954-baf0-26449ab3f3df" x="545.4" y="960.62" width="51.6" height="32.38"/><text class="dc9aa6fd-0e96-4342-b4de-9e96d8343e05" transform="translate(561.32 982.79)">72</text><text class="9bcdbdc9-eeaf-427a-8d19-1075192dce72" transform="translate(12.19 983.27)">Muy en desacuerdo</text><text class="9bcdbdc9-eeaf-427a-8d19-1075192dce72" transform="translate(12.19 1014.27)">En desacuerdo</text><text class="9bcdbdc9-eeaf-427a-8d19-1075192dce72" transform="translate(12.19 1047.27)">Ni acuerdo ni en desacuerdo</text><line class="b3262156-bd44-4049-b339-883c590d6de9" x1="3.3" y1="961.13" x2="324" y2="961.13"/><line class="b3262156-bd44-4049-b339-883c590d6de9" x1="341.5" y1="960.13" x2="599.5" y2="960.13"/><line class="3e595980-280e-48db-bc25-670e9dc16e2c" x1="341" y1="992.5" x2="598" y2="992.5"/><rect class="19c12f80-445e-4cff-b22a-76db0f8dd1c5" x="341.4" y="993" width="51.6" height="32.38"/><text class="143ac2b1-58c1-44ed-9cb5-deb81e20e7f0" transform="translate(349.32 1014.79)"><tspan class="c401e083-ff1f-4435-b112-3d5b038e9a77">1</tspan><tspan x="8.94" y="0">1,4</tspan></text><rect class="2514dbe0-1ee5-43c0-a9e2-9c3f5d260709" x="392.4" y="993" width="51.6" height="32.38"/><text class="143ac2b1-58c1-44ed-9cb5-deb81e20e7f0" transform="translate(407.32 1014.79)">22</text><rect class="19c12f80-445e-4cff-b22a-76db0f8dd1c5" x="443.4" y="993" width="51.6" height="33"/><text class="143ac2b1-58c1-44ed-9cb5-deb81e20e7f0" transform="translate(454.32 1015.79)">18,5</text><rect class="19c12f80-445e-4cff-b22a-76db0f8dd1c5" x="494.4" y="993" width="51.6" height="33"/><text class="143ac2b1-58c1-44ed-9cb5-deb81e20e7f0" transform="translate(499.32 1015.79)">19,5</text><rect class="19c12f80-445e-4cff-b22a-76db0f8dd1c5" x="545.4" y="993" width="51.6" height="33"/><text class="143ac2b1-58c1-44ed-9cb5-deb81e20e7f0" transform="translate(553.32 1015.79)">16,5</text><line class="3e595980-280e-48db-bc25-670e9dc16e2c" x1="342" y1="1025.5" x2="599" y2="1025.5"/><line class="3e595980-280e-48db-bc25-670e9dc16e2c" x1="4" y1="993.5" x2="323.5" y2="993.5"/><line class="3e595980-280e-48db-bc25-670e9dc16e2c" x1="4" y1="1025.5" x2="323.5" y2="1025.5"/><line class="3e595980-280e-48db-bc25-670e9dc16e2c" x1="3" y1="1058.5" x2="322.5" y2="1058.5"/><text class="9bcdbdc9-eeaf-427a-8d19-1075192dce72" transform="translate(12.19 1080.27)">De acuerdo</text><text class="9bcdbdc9-eeaf-427a-8d19-1075192dce72" transform="translate(12.19 1113.27)">Muy de acuerdo</text><line class="3e595980-280e-48db-bc25-670e9dc16e2c" x1="3" y1="1091.5" x2="322.5" y2="1091.5"/><rect class="36ef39c6-f336-41a8-b9bb-4fc3ab67df93" x="341.4" y="1026" width="51.6" height="32.38"/><text class="143ac2b1-58c1-44ed-9cb5-deb81e20e7f0" transform="translate(350.49 1047.79)">7,3</text><rect class="36ef39c6-f336-41a8-b9bb-4fc3ab67df93" x="392.4" y="1026" width="51.6" height="32.38"/><text class="143ac2b1-58c1-44ed-9cb5-deb81e20e7f0" transform="translate(410.95 1047.79)">4</text><rect class="36ef39c6-f336-41a8-b9bb-4fc3ab67df93" x="443.4" y="1026" width="51.6" height="33"/><text class="143ac2b1-58c1-44ed-9cb5-deb81e20e7f0" transform="translate(461.32 1048.79)">4,1</text><rect class="36ef39c6-f336-41a8-b9bb-4fc3ab67df93" x="494.4" y="1026" width="51.6" height="33"/><text class="143ac2b1-58c1-44ed-9cb5-deb81e20e7f0" transform="translate(508.32 1048.79)">4,7</text><rect class="36ef39c6-f336-41a8-b9bb-4fc3ab67df93" x="545.4" y="1026" width="51.6" height="33"/><text class="143ac2b1-58c1-44ed-9cb5-deb81e20e7f0" transform="translate(559.32 1048.79)">3,9</text><line class="3e595980-280e-48db-bc25-670e9dc16e2c" x1="342" y1="1058.5" x2="599" y2="1058.5"/><rect class="36ef39c6-f336-41a8-b9bb-4fc3ab67df93" x="341.4" y="1059" width="51.6" height="32.38"/><text class="143ac2b1-58c1-44ed-9cb5-deb81e20e7f0" transform="translate(350.32 1080.79)">5,8</text><rect class="36ef39c6-f336-41a8-b9bb-4fc3ab67df93" x="392.4" y="1059" width="51.6" height="32.38"/><text class="143ac2b1-58c1-44ed-9cb5-deb81e20e7f0" transform="translate(406.32 1080.79)">8,1</text><rect class="36ef39c6-f336-41a8-b9bb-4fc3ab67df93" x="443.4" y="1059" width="51.6" height="33"/><text class="143ac2b1-58c1-44ed-9cb5-deb81e20e7f0" transform="translate(460.32 1081.79)">4,8</text><rect class="36ef39c6-f336-41a8-b9bb-4fc3ab67df93" x="494.4" y="1059" width="51.6" height="33"/><text class="143ac2b1-58c1-44ed-9cb5-deb81e20e7f0" transform="translate(508.32 1081.79)">5,3</text><rect class="36ef39c6-f336-41a8-b9bb-4fc3ab67df93" x="545.4" y="1059" width="51.6" height="33"/><text class="143ac2b1-58c1-44ed-9cb5-deb81e20e7f0" transform="translate(560.32 1081.79)">4,2</text><line class="3e595980-280e-48db-bc25-670e9dc16e2c" x1="342" y1="1091.5" x2="599" y2="1091.5"/><rect class="24ab270d-d6b0-48fe-8924-1345aaeffc55" x="341.4" y="1092" width="51.6" height="32.38"/><text class="143ac2b1-58c1-44ed-9cb5-deb81e20e7f0" transform="translate(347.32 1113.79)">48,8</text><rect class="36ef39c6-f336-41a8-b9bb-4fc3ab67df93" x="392.4" y="1092" width="51.6" height="32.38"/><text class="143ac2b1-58c1-44ed-9cb5-deb81e20e7f0" transform="translate(414.32 1113.79)">8</text><rect class="36ef39c6-f336-41a8-b9bb-4fc3ab67df93" x="443.4" y="1092" width="51.6" height="33"/><text class="143ac2b1-58c1-44ed-9cb5-deb81e20e7f0" transform="translate(460.32 1114.79)">3,8</text><rect class="36ef39c6-f336-41a8-b9bb-4fc3ab67df93" x="494.4" y="1092" width="51.6" height="33"/><text class="143ac2b1-58c1-44ed-9cb5-deb81e20e7f0" transform="translate(509.32 1114.79)">4,3</text><rect class="36ef39c6-f336-41a8-b9bb-4fc3ab67df93" x="545.4" y="1092" width="51.6" height="33"/><text class="143ac2b1-58c1-44ed-9cb5-deb81e20e7f0" transform="translate(560 1114.79)">3,1</text><line class="3e595980-280e-48db-bc25-670e9dc16e2c" x1="342" y1="496.5" x2="599" y2="496.5"/><text class="05bac2b0-92f0-4079-9dae-5bf77502d9c5" transform="translate(5.19 520.17)">ENCARCELAR CONSELLERS<tspan class="91e4fd12-8f82-4439-aac9-8e2119ce734b" x="193.72" y="0" xml:space="preserve"> Y</tspan><tspan x="206.45" y="0" xml:space="preserve"> DIRIGENTES</tspan><tspan x="0" y="15">SOBERANIS</tspan><tspan class="ceae0dde-32e1-4331-9aa8-6453ace4b57e" x="81.69" y="15">T</tspan><tspan x="89.2" y="15">AS ES DESPROPORCIONADO</tspan></text><text class="8983e97f-e026-4e1c-8c18-f11acf91dcbf" transform="translate(513.3 533.65)">F<tspan class="eb0b24e9-0f15-41b3-ba7b-5161cb73e9ed" x="9.06" y="0">P</tspan></text><text class="8983e97f-e026-4e1c-8c18-f11acf91dcbf" transform="translate(559 533.65)">UNI</text><text class="a98ba8a2-c983-498a-a9a9-06c002a6491a" transform="translate(350.47 535.3)">SIN</text><text class="a98ba8a2-c983-498a-a9a9-06c002a6491a" transform="translate(398.47 535.3)">PRIM</text><text class="a98ba8a2-c983-498a-a9a9-06c002a6491a" transform="translate(458.47 535.3)">SEC</text><rect class="29234596-2b60-4a31-a804-9c71b9e43814" x="341.4" y="542" width="51.6" height="32.38"/><text class="dc9aa6fd-0e96-4342-b4de-9e96d8343e05" transform="translate(345.32 563.79)">47,1</text><rect class="19c12f80-445e-4cff-b22a-76db0f8dd1c5" x="392.4" y="542" width="51.6" height="32.38"/><text class="143ac2b1-58c1-44ed-9cb5-deb81e20e7f0" transform="translate(399.36 563.66)">10,8</text><rect class="36ef39c6-f336-41a8-b9bb-4fc3ab67df93" x="443.4" y="542.62" width="51.6" height="32.38"/><text class="143ac2b1-58c1-44ed-9cb5-deb81e20e7f0" transform="translate(460.32 564.79)">7,4</text><rect class="36ef39c6-f336-41a8-b9bb-4fc3ab67df93" x="494.4" y="542.62" width="51.6" height="32.38"/><text class="143ac2b1-58c1-44ed-9cb5-deb81e20e7f0" transform="translate(507.32 564.79)">7,6</text><rect class="36ef39c6-f336-41a8-b9bb-4fc3ab67df93" x="545.4" y="542.62" width="51.6" height="32.38"/><text class="143ac2b1-58c1-44ed-9cb5-deb81e20e7f0" transform="translate(558.32 564.79)">6,2</text><text class="9bcdbdc9-eeaf-427a-8d19-1075192dce72" transform="translate(12.19 565.27)">Muy en desacuerdo</text><text class="9bcdbdc9-eeaf-427a-8d19-1075192dce72" transform="translate(12.19 596.27)">En desacuerdo</text><text class="9bcdbdc9-eeaf-427a-8d19-1075192dce72" transform="translate(12.19 629.27)">Ni acuerdo ni en desacuerdo</text><line class="b3262156-bd44-4049-b339-883c590d6de9" x1="3.3" y1="543.13" x2="324" y2="543.13"/><line class="b3262156-bd44-4049-b339-883c590d6de9" x1="341.5" y1="542.13" x2="599.5" y2="542.13"/><line class="3e595980-280e-48db-bc25-670e9dc16e2c" x1="341" y1="574.5" x2="598" y2="574.5"/><rect class="36ef39c6-f336-41a8-b9bb-4fc3ab67df93" x="341.4" y="575" width="51.6" height="32.38"/><text class="143ac2b1-58c1-44ed-9cb5-deb81e20e7f0" transform="translate(351.32 596.79)">7,4</text><rect class="36ef39c6-f336-41a8-b9bb-4fc3ab67df93" x="392.4" y="575" width="51.6" height="32.38"/><text class="143ac2b1-58c1-44ed-9cb5-deb81e20e7f0" transform="translate(405.32 596.79)">9,4</text><rect class="36ef39c6-f336-41a8-b9bb-4fc3ab67df93" x="443.4" y="575" width="51.6" height="33"/><text class="143ac2b1-58c1-44ed-9cb5-deb81e20e7f0" transform="translate(461.32 597.79)">6,4</text><rect class="36ef39c6-f336-41a8-b9bb-4fc3ab67df93" x="494.4" y="575" width="51.6" height="33"/><text class="143ac2b1-58c1-44ed-9cb5-deb81e20e7f0" transform="translate(506.32 597.79)">6,8</text><rect class="36ef39c6-f336-41a8-b9bb-4fc3ab67df93" x="545.4" y="575" width="51.6" height="33"/><text class="143ac2b1-58c1-44ed-9cb5-deb81e20e7f0" transform="translate(559.32 597.79)">6,4</text><line class="3e595980-280e-48db-bc25-670e9dc16e2c" x1="342" y1="607.5" x2="599" y2="607.5"/><line class="3e595980-280e-48db-bc25-670e9dc16e2c" x1="4" y1="575.5" x2="323.5" y2="575.5"/><line class="3e595980-280e-48db-bc25-670e9dc16e2c" x1="4" y1="607.5" x2="323.5" y2="607.5"/><line class="3e595980-280e-48db-bc25-670e9dc16e2c" x1="3" y1="640.5" x2="322.5" y2="640.5"/><text class="9bcdbdc9-eeaf-427a-8d19-1075192dce72" transform="translate(12.19 662.27)">De acuerdo</text><text class="9bcdbdc9-eeaf-427a-8d19-1075192dce72" transform="translate(12.19 695.27)">Muy de acuerdo</text><line class="3e595980-280e-48db-bc25-670e9dc16e2c" x1="3" y1="673.5" x2="322.5" y2="673.5"/><line class="3e595980-280e-48db-bc25-670e9dc16e2c" x1="3" y1="706.5" x2="322.5" y2="706.5"/><rect class="36ef39c6-f336-41a8-b9bb-4fc3ab67df93" x="341.4" y="608" width="51.6" height="32.38"/><text class="143ac2b1-58c1-44ed-9cb5-deb81e20e7f0" transform="translate(349.49 629.79)">5,7</text><rect class="36ef39c6-f336-41a8-b9bb-4fc3ab67df93" x="392.4" y="608" width="51.6" height="32.38"/><text class="143ac2b1-58c1-44ed-9cb5-deb81e20e7f0" transform="translate(406.95 629.79)">3,6</text><rect class="36ef39c6-f336-41a8-b9bb-4fc3ab67df93" x="443.4" y="608" width="51.6" height="33"/><text class="143ac2b1-58c1-44ed-9cb5-deb81e20e7f0" transform="translate(460.32 630.79)">3,7</text><rect class="36ef39c6-f336-41a8-b9bb-4fc3ab67df93" x="494.4" y="608" width="51.6" height="33"/><text class="143ac2b1-58c1-44ed-9cb5-deb81e20e7f0" transform="translate(508.32 630.79)">4,1</text><rect class="36ef39c6-f336-41a8-b9bb-4fc3ab67df93" x="545.4" y="608" width="51.6" height="33"/><text class="143ac2b1-58c1-44ed-9cb5-deb81e20e7f0" transform="translate(559.32 630.79)">3,5</text><line class="3e595980-280e-48db-bc25-670e9dc16e2c" x1="342" y1="640.5" x2="599" y2="640.5"/><rect class="36ef39c6-f336-41a8-b9bb-4fc3ab67df93" x="341.4" y="641" width="51.6" height="32.38"/><text class="143ac2b1-58c1-44ed-9cb5-deb81e20e7f0" transform="translate(350.32 662.79)">6,8</text><rect class="19c12f80-445e-4cff-b22a-76db0f8dd1c5" x="392.4" y="641" width="51.6" height="32.38"/><text class="143ac2b1-58c1-44ed-9cb5-deb81e20e7f0" transform="translate(398 662.79)">15,1</text><rect class="19c12f80-445e-4cff-b22a-76db0f8dd1c5" x="443.4" y="641" width="51.6" height="33"/><text class="143ac2b1-58c1-44ed-9cb5-deb81e20e7f0" transform="translate(454 663.79)">13,5</text><rect class="19c12f80-445e-4cff-b22a-76db0f8dd1c5" x="494.4" y="641" width="51.6" height="33"/><text class="143ac2b1-58c1-44ed-9cb5-deb81e20e7f0" transform="translate(504.32 663.79)">14,3</text><rect class="19c12f80-445e-4cff-b22a-76db0f8dd1c5" x="545.4" y="641" width="51.6" height="33"/><text class="143ac2b1-58c1-44ed-9cb5-deb81e20e7f0" transform="translate(554.32 663.79)">13,5</text><line class="3e595980-280e-48db-bc25-670e9dc16e2c" x1="342" y1="673.5" x2="599" y2="673.5"/><rect class="24ab270d-d6b0-48fe-8924-1345aaeffc55" x="341.4" y="674" width="51.6" height="32.38"/><text class="143ac2b1-58c1-44ed-9cb5-deb81e20e7f0" transform="translate(347.32 695.79)">32,7</text><rect class="17680060-e966-4816-a9a3-60f2af249b04" x="392.4" y="674" width="51.6" height="32.38"/><text class="dc9aa6fd-0e96-4342-b4de-9e96d8343e05" transform="translate(401 695.79)">60,8</text><rect class="17680060-e966-4816-a9a3-60f2af249b04" x="443.4" y="674" width="51.6" height="33"/><text class="dc9aa6fd-0e96-4342-b4de-9e96d8343e05" transform="translate(456.32 696.79)">68,8</text><rect class="17680060-e966-4816-a9a3-60f2af249b04" x="494.4" y="674" width="51.6" height="33"/><text class="dc9aa6fd-0e96-4342-b4de-9e96d8343e05" transform="translate(504.32 696.79)">67,1</text><rect class="8fb83b0d-11dd-4954-baf0-26449ab3f3df" x="545.4" y="674" width="51.6" height="33"/><text class="dc9aa6fd-0e96-4342-b4de-9e96d8343e05" transform="translate(553 696.79)">70,1</text><line class="3e595980-280e-48db-bc25-670e9dc16e2c" x1="342" y1="706.5" x2="599" y2="706.5"/><text class="05bac2b0-92f0-4079-9dae-5bf77502d9c5" transform="translate(2.19 734.17)">H<tspan class="ceae0dde-32e1-4331-9aa8-6453ace4b57e" x="10.11" y="0">A</tspan><tspan class="91e4fd12-8f82-4439-aac9-8e2119ce734b" x="18.41" y="0">Y</tspan><tspan x="27.49" y="0" xml:space="preserve"> QUE REFORMAR L</tspan><tspan class="3632be24-509b-4736-a02e-4e1896f8d7be" x="157.4" y="0">A</tspan><tspan x="165.96" y="0" xml:space="preserve"> CONS</tspan><tspan class="7b56c4b8-e31e-423b-a7d7-f985ec768d45" x="210.3" y="0">T</tspan><tspan x="217.3" y="0">. </tspan><tspan class="ceae0dde-32e1-4331-9aa8-6453ace4b57e" x="225.08" y="0">P</tspan><tspan x="233.38" y="0">AR</tspan><tspan class="3632be24-509b-4736-a02e-4e1896f8d7be" x="252.83" y="0">A</tspan><tspan x="261.39" y="0" xml:space="preserve"> HACER </tspan><tspan x="0" y="15">UN REFERÉNDUM </tspan><tspan class="ceae0dde-32e1-4331-9aa8-6453ace4b57e" x="126.78" y="15">P</tspan><tspan x="135.08" y="15">AC</tspan><tspan class="ceae0dde-32e1-4331-9aa8-6453ace4b57e" x="154.53" y="15">T</tspan><tspan x="162.04" y="15">ADO CON E</tspan><tspan class="983ade8b-110c-4cc7-9f58-f4253e6f7d79" x="240.6" y="15">L</tspan><tspan x="247.87" y="15" xml:space="preserve"> ES</tspan><tspan class="ceae0dde-32e1-4331-9aa8-6453ace4b57e" x="270.44" y="15">T</tspan><tspan x="277.95" y="15">ADO</tspan></text><text class="8983e97f-e026-4e1c-8c18-f11acf91dcbf" transform="translate(514.3 746.65)">F<tspan class="eb0b24e9-0f15-41b3-ba7b-5161cb73e9ed" x="9.06" y="0">P</tspan></text><text class="8983e97f-e026-4e1c-8c18-f11acf91dcbf" transform="translate(560 746.65)">UNI</text><text class="a98ba8a2-c983-498a-a9a9-06c002a6491a" transform="translate(351.47 748.3)">SIN</text><text class="a98ba8a2-c983-498a-a9a9-06c002a6491a" transform="translate(399.47 748.3)">PRIM</text><text class="a98ba8a2-c983-498a-a9a9-06c002a6491a" transform="translate(459.47 748.3)">SEC</text><rect class="29234596-2b60-4a31-a804-9c71b9e43814" x="342.4" y="755" width="51.6" height="32.38"/><text class="dc9aa6fd-0e96-4342-b4de-9e96d8343e05" transform="translate(346.32 776.79)">47,5</text><rect class="19c12f80-445e-4cff-b22a-76db0f8dd1c5" x="393.4" y="755" width="51.6" height="32.38"/><text class="143ac2b1-58c1-44ed-9cb5-deb81e20e7f0" transform="translate(401.36 776.66)"><tspan class="c401e083-ff1f-4435-b112-3d5b038e9a77">1</tspan><tspan x="8.94" y="0">1,4</tspan></text><rect class="36ef39c6-f336-41a8-b9bb-4fc3ab67df93" x="444.4" y="755.62" width="51.6" height="32.38"/><text class="143ac2b1-58c1-44ed-9cb5-deb81e20e7f0" transform="translate(455.32 777.79)">8,7</text><rect class="36ef39c6-f336-41a8-b9bb-4fc3ab67df93" x="495.4" y="755.62" width="51.6" height="32.38"/><text class="143ac2b1-58c1-44ed-9cb5-deb81e20e7f0" transform="translate(504.32 777.79)">7,8</text><rect class="36ef39c6-f336-41a8-b9bb-4fc3ab67df93" x="546.4" y="755.62" width="51.6" height="32.38"/><text class="143ac2b1-58c1-44ed-9cb5-deb81e20e7f0" transform="translate(557.32 777.79)">8,4</text><text class="9bcdbdc9-eeaf-427a-8d19-1075192dce72" transform="translate(13.19 778.27)">Muy en desacuerdo</text><text class="9bcdbdc9-eeaf-427a-8d19-1075192dce72" transform="translate(13.19 809.27)">En desacuerdo</text><text class="9bcdbdc9-eeaf-427a-8d19-1075192dce72" transform="translate(13.19 842.27)">Ni acuerdo ni en desacuerdo</text><line class="b3262156-bd44-4049-b339-883c590d6de9" x1="4.3" y1="756.13" x2="325" y2="756.13"/><line class="b3262156-bd44-4049-b339-883c590d6de9" x1="342.5" y1="755.13" x2="600.5" y2="755.13"/><line class="3e595980-280e-48db-bc25-670e9dc16e2c" x1="342" y1="787.5" x2="599" y2="787.5"/><rect class="36ef39c6-f336-41a8-b9bb-4fc3ab67df93" x="342.4" y="788" width="51.6" height="32.38"/><text class="143ac2b1-58c1-44ed-9cb5-deb81e20e7f0" transform="translate(354.32 809.79)">8</text><rect class="36ef39c6-f336-41a8-b9bb-4fc3ab67df93" x="393.4" y="788" width="51.6" height="32.38"/><text class="143ac2b1-58c1-44ed-9cb5-deb81e20e7f0" transform="translate(405.32 809.79)">8,4</text><rect class="36ef39c6-f336-41a8-b9bb-4fc3ab67df93" x="444.4" y="788" width="51.6" height="33"/><text class="143ac2b1-58c1-44ed-9cb5-deb81e20e7f0" transform="translate(455.32 810.79)">8,3</text><rect class="36ef39c6-f336-41a8-b9bb-4fc3ab67df93" x="495.4" y="788" width="51.6" height="33"/><text class="143ac2b1-58c1-44ed-9cb5-deb81e20e7f0" transform="translate(503.32 810.79)">7,8</text><rect class="36ef39c6-f336-41a8-b9bb-4fc3ab67df93" x="546.4" y="788" width="51.6" height="33"/><text class="143ac2b1-58c1-44ed-9cb5-deb81e20e7f0" transform="translate(558.32 810.79)">9,7</text><line class="3e595980-280e-48db-bc25-670e9dc16e2c" x1="343" y1="820.5" x2="600" y2="820.5"/><line class="3e595980-280e-48db-bc25-670e9dc16e2c" x1="5" y1="788.5" x2="324.5" y2="788.5"/><line class="3e595980-280e-48db-bc25-670e9dc16e2c" x1="5" y1="820.5" x2="324.5" y2="820.5"/><line class="3e595980-280e-48db-bc25-670e9dc16e2c" x1="4" y1="853.5" x2="323.5" y2="853.5"/><text class="9bcdbdc9-eeaf-427a-8d19-1075192dce72" transform="translate(13.19 875.27)">De acuerdo</text><text class="9bcdbdc9-eeaf-427a-8d19-1075192dce72" transform="translate(13.19 908.27)">Muy de acuerdo</text><line class="3e595980-280e-48db-bc25-670e9dc16e2c" x1="4" y1="886.5" x2="323.5" y2="886.5"/><line class="3e595980-280e-48db-bc25-670e9dc16e2c" x1="4" y1="919.5" x2="323.5" y2="919.5"/><rect class="36ef39c6-f336-41a8-b9bb-4fc3ab67df93" x="342.4" y="821" width="51.6" height="32.38"/><text class="143ac2b1-58c1-44ed-9cb5-deb81e20e7f0" transform="translate(354.49 842.79)">7,2</text><rect class="36ef39c6-f336-41a8-b9bb-4fc3ab67df93" x="393.4" y="821" width="51.6" height="32.38"/><text class="143ac2b1-58c1-44ed-9cb5-deb81e20e7f0" transform="translate(405.95 842.79)">8,8</text><rect class="19c12f80-445e-4cff-b22a-76db0f8dd1c5" x="444.4" y="821" width="51.6" height="33"/><text class="143ac2b1-58c1-44ed-9cb5-deb81e20e7f0" transform="translate(463.32 843.79)">13</text><rect class="19c12f80-445e-4cff-b22a-76db0f8dd1c5" x="495.4" y="821" width="51.6" height="33"/><text class="143ac2b1-58c1-44ed-9cb5-deb81e20e7f0" transform="translate(505.32 843.79)"><tspan class="c401e083-ff1f-4435-b112-3d5b038e9a77">1</tspan><tspan x="8.94" y="0">1,8</tspan></text><rect class="19c12f80-445e-4cff-b22a-76db0f8dd1c5" x="546.4" y="821" width="51.6" height="33"/><text class="143ac2b1-58c1-44ed-9cb5-deb81e20e7f0" transform="translate(557.32 843.79)">14,9</text><line class="3e595980-280e-48db-bc25-670e9dc16e2c" x1="343" y1="853.5" x2="600" y2="853.5"/><rect class="19c12f80-445e-4cff-b22a-76db0f8dd1c5" x="342.4" y="854" width="51.6" height="32.38"/><text class="143ac2b1-58c1-44ed-9cb5-deb81e20e7f0" transform="translate(346.32 875.79)">12,7</text><rect class="2514dbe0-1ee5-43c0-a9e2-9c3f5d260709" x="393.4" y="854" width="51.6" height="32.38"/><text class="143ac2b1-58c1-44ed-9cb5-deb81e20e7f0" transform="translate(409 875.79)">27</text><rect class="2514dbe0-1ee5-43c0-a9e2-9c3f5d260709" x="444.4" y="854" width="51.6" height="33"/><text class="143ac2b1-58c1-44ed-9cb5-deb81e20e7f0" transform="translate(462 876.79)">27</text><rect class="2514dbe0-1ee5-43c0-a9e2-9c3f5d260709" x="495.4" y="854" width="51.6" height="33"/><text class="143ac2b1-58c1-44ed-9cb5-deb81e20e7f0" transform="translate(502.32 876.79)">27,1</text><rect class="2514dbe0-1ee5-43c0-a9e2-9c3f5d260709" x="546.4" y="854" width="51.6" height="33"/><text class="143ac2b1-58c1-44ed-9cb5-deb81e20e7f0" transform="translate(554.32 876.79)">27,4</text><line class="3e595980-280e-48db-bc25-670e9dc16e2c" x1="343" y1="886.5" x2="600" y2="886.5"/><rect class="2514dbe0-1ee5-43c0-a9e2-9c3f5d260709" x="342.4" y="887" width="51.6" height="32.38"/><text class="143ac2b1-58c1-44ed-9cb5-deb81e20e7f0" transform="translate(347.32 908.79)">24,3</text><rect class="29234596-2b60-4a31-a804-9c71b9e43814" x="393.4" y="887" width="51.6" height="32.38"/><text class="dc9aa6fd-0e96-4342-b4de-9e96d8343e05" transform="translate(400 908.79)">44,2</text><rect class="29234596-2b60-4a31-a804-9c71b9e43814" x="444.4" y="887" width="51.6" height="33"/><text class="dc9aa6fd-0e96-4342-b4de-9e96d8343e05" transform="translate(456.32 909.79)">42,8</text><rect class="29234596-2b60-4a31-a804-9c71b9e43814" x="495.4" y="887" width="51.6" height="33"/><text class="dc9aa6fd-0e96-4342-b4de-9e96d8343e05" transform="translate(504.32 909.79)">45,3</text><rect class="24ab270d-d6b0-48fe-8924-1345aaeffc55" x="546.4" y="887" width="51.6" height="33"/><text class="143ac2b1-58c1-44ed-9cb5-deb81e20e7f0" transform="translate(553 909.79)">39,4</text><line class="3e595980-280e-48db-bc25-670e9dc16e2c" x1="343" y1="919.5" x2="600" y2="919.5"/><line class="b3262156-bd44-4049-b339-883c590d6de9" x1="0.5" y1="1124.5" x2="600.5" y2="1124.5"/><text class="cfedc88d-6aef-4767-bfde-8d4954871d63" transform="translate(3.89 1156.74)">Fuente: El<tspan class="91e4fd12-8f82-4439-aac9-8e2119ce734b" x="68.37" y="0"> </tspan><tspan class="7b56c4b8-e31e-423b-a7d7-f985ec768d45" x="72.27" y="0">T</tspan><tspan x="79.77" y="0">eu </tspan><tspan class="3632be24-509b-4736-a02e-4e1896f8d7be" x="100.62" y="0">V</tspan><tspan x="109.8" y="0">ot</tspan></text><text class="cfedc88d-6aef-4767-bfde-8d4954871d63" transform="translate(476.07 1157.74)">L<tspan class="3632be24-509b-4736-a02e-4e1896f8d7be" x="8.34" y="0">A</tspan><tspan x="17.52" y="0"> </tspan><tspan class="ceae0dde-32e1-4331-9aa8-6453ace4b57e" x="21.69" y="0">V</tspan><tspan x="30.58" y="0">ANGUARDI</tspan><tspan class="3632be24-509b-4736-a02e-4e1896f8d7be" x="109.75" y="0">A</tspan></text></svg>