<svg id="2d36176d-62b2-4519-8f4f-4bba1df1d5bf" data-name="Capa 1" xmlns="http://www.w3.org/2000/svg" viewBox="0 0 500 577"><defs><style>.\30 4ec2bb2-765d-4acb-8343-ecc7add95ce6,.\33 35b9519-7ada-4945-9c04-462b6e5002ea,.befa7ebb-02c5-4b2f-ae54-382032c0c793{opacity:0.75;}.\33 35b9519-7ada-4945-9c04-462b6e5002ea,.\34 df522a4-44ad-4530-9570-ef3f0d75c993,.\36 85b2e77-d244-44e1-a106-d32dba1ba247{fill:#ffe600;}.\34 df522a4-44ad-4530-9570-ef3f0d75c993,.\36 85b2e77-d244-44e1-a106-d32dba1ba247{stroke:#ccc;}.\37 40460e3-098d-461f-92df-b277b08a3660{font-size:12px;}.\35 89bf09f-7cdc-45a4-97b1-6cb8dc81ce16,.\37 40460e3-098d-461f-92df-b277b08a3660,.c06fb7b0-b7b9-4886-b8d2-80e9f193c32a{fill:#757575;}.\35 d7ac3ef-bd8f-4090-80d5-b9f772d34508,.\37 37a284d-b695-42ae-80b8-1e69222c0ed2,.\37 40460e3-098d-461f-92df-b277b08a3660,.\39 9c5d0f6-e543-40eb-998f-0ad9d1e58b5b,.c06fb7b0-b7b9-4886-b8d2-80e9f193c32a{font-family:ArialMT, Arial;}.\34 df522a4-44ad-4530-9570-ef3f0d75c993{stroke-width:0.5px;}.\38 c572465-1956-4650-b1ad-06031570290c,.f2b978ba-297a-4eee-906f-f4fb63dd7350{fill:#3f4d78;}.\38 c572465-1956-4650-b1ad-06031570290c{opacity:0.86;}.\32 7e91fa6-da83-4a3f-bf9e-860944f0e512{fill:#d57928;}.\38 d6215cc-23cd-4c14-99de-fedfdf5fe795{fill:#991d26;}.f0854ac7-8dd2-4020-9e0c-3028e2584a8f{fill:#59a5a5;}.\39 b727634-1ecf-42c0-93b9-74412ad8cd34{fill:#8e244f;}.\30 8687230-bc15-45f9-ab32-53e8a1428789,.befa7ebb-02c5-4b2f-ae54-382032c0c793{fill:#efb21b;}.\39 9c5d0f6-e543-40eb-998f-0ad9d1e58b5b{font-size:29px;}.\35 d7ac3ef-bd8f-4090-80d5-b9f772d34508,.\37 37a284d-b695-42ae-80b8-1e69222c0ed2,.\39 9c5d0f6-e543-40eb-998f-0ad9d1e58b5b,.d4a58987-6dde-40f2-9d58-3993e1db9897{fill:#323232;}.\35 d7ac3ef-bd8f-4090-80d5-b9f772d34508,.c06fb7b0-b7b9-4886-b8d2-80e9f193c32a{font-size:14px;}.\38 a8a2e5c-9c76-4cec-b6f5-35913241e9f1{letter-spacing:-0.07em;}.\35 89bf09f-7cdc-45a4-97b1-6cb8dc81ce16{font-size:15px;}.\35 89bf09f-7cdc-45a4-97b1-6cb8dc81ce16,.d4a58987-6dde-40f2-9d58-3993e1db9897{font-family:Arial-BoldMT, Arial;font-weight:700;}.d0f7c031-627b-4b99-afd7-810d075a25e4{letter-spacing:-0.04em;}.c4af0852-9497-464c-b922-7240351165f3{letter-spacing:-0.02em;}.\37 c2696b5-b61e-4ef4-93cc-da911ac7e280{letter-spacing:-0.07em;}.\37 37a284d-b695-42ae-80b8-1e69222c0ed2,.d4a58987-6dde-40f2-9d58-3993e1db9897{font-size:16px;}.\30 c6d6c06-b324-446b-974f-df9d9dc14088{letter-spacing:-0.02em;}.ea7424bc-e9e0-46b5-93b2-c389d57511d5{letter-spacing:-0.11em;}.\32 4f18c56-1fe4-4752-a904-fe27562286af{letter-spacing:-0.06em;}</style></defs><title>partits [Recuperado]</title><g class="04ec2bb2-765d-4acb-8343-ecc7add95ce6"><line class="685b2e77-d244-44e1-a106-d32dba1ba247" x1="487" y1="161.77" x2="23" y2="161.77"/><text class="740460e3-098d-461f-92df-b277b08a3660" transform="translate(13.59 165.38) scale(0.92 1)">0</text><line class="4df522a4-44ad-4530-9570-ef3f0d75c993" x1="487" y1="149.49" x2="23" y2="149.49"/><text class="740460e3-098d-461f-92df-b277b08a3660" transform="translate(7.85 153.1) scale(0.92 1)">20</text><line class="4df522a4-44ad-4530-9570-ef3f0d75c993" x1="487" y1="137.2" x2="23" y2="137.2"/><text class="740460e3-098d-461f-92df-b277b08a3660" transform="translate(7.85 140.82) scale(0.92 1)">40</text><line class="4df522a4-44ad-4530-9570-ef3f0d75c993" x1="487" y1="124.92" x2="23" y2="124.92"/><text class="740460e3-098d-461f-92df-b277b08a3660" transform="translate(7.85 128.54) scale(0.92 1)">60</text><rect class="8c572465-1956-4650-b1ad-06031570290c" x="33.78" y="160.57" width="40.26" height="1.2"/><rect class="f2b978ba-297a-4eee-906f-f4fb63dd7350" x="75.08" y="161.71" width="40.26" height="0.06"/><rect class="f2b978ba-297a-4eee-906f-f4fb63dd7350" x="116.37" y="161.69" width="40.26" height="0.07"/><rect class="f2b978ba-297a-4eee-906f-f4fb63dd7350" x="157.67" y="161.71" width="40.26" height="0.06"/><rect class="f2b978ba-297a-4eee-906f-f4fb63dd7350" x="198.96" y="161.69" width="40.26" height="0.07"/><rect class="8c572465-1956-4650-b1ad-06031570290c" x="240.26" y="161.21" width="40.26" height="0.56"/><rect class="8c572465-1956-4650-b1ad-06031570290c" x="281.55" y="161.02" width="40.26" height="0.75"/><rect class="8c572465-1956-4650-b1ad-06031570290c" x="322.85" y="159.26" width="40.26" height="2.51"/><rect class="8c572465-1956-4650-b1ad-06031570290c" x="364.15" y="155.3" width="40.26" height="6.47"/><rect class="8c572465-1956-4650-b1ad-06031570290c" x="405.44" y="154.77" width="40.26" height="7"/><rect class="8c572465-1956-4650-b1ad-06031570290c" x="446.74" y="119.1" width="40.26" height="42.67"/></g><g class="04ec2bb2-765d-4acb-8343-ecc7add95ce6"><line class="685b2e77-d244-44e1-a106-d32dba1ba247" x1="487" y1="223.77" x2="23" y2="223.77"/><text class="740460e3-098d-461f-92df-b277b08a3660" transform="translate(13.59 227.38) scale(0.92 1)">0</text><line class="4df522a4-44ad-4530-9570-ef3f0d75c993" x1="487" y1="211.49" x2="23" y2="211.49"/><text class="740460e3-098d-461f-92df-b277b08a3660" transform="translate(7.85 215.1) scale(0.92 1)">20</text><line class="4df522a4-44ad-4530-9570-ef3f0d75c993" x1="487" y1="199.2" x2="23" y2="199.2"/><text class="740460e3-098d-461f-92df-b277b08a3660" transform="translate(7.85 202.82) scale(0.92 1)">40</text><line class="4df522a4-44ad-4530-9570-ef3f0d75c993" x1="487" y1="186.92" x2="23" y2="186.92"/><text class="740460e3-098d-461f-92df-b277b08a3660" transform="translate(7.85 190.54) scale(0.92 1)">60</text><rect class="f2b978ba-297a-4eee-906f-f4fb63dd7350" x="75.08" y="223.71" width="40.26" height="0.06"/><rect class="f2b978ba-297a-4eee-906f-f4fb63dd7350" x="116.37" y="223.69" width="40.26" height="0.07"/><rect class="f2b978ba-297a-4eee-906f-f4fb63dd7350" x="157.67" y="223.71" width="40.26" height="0.06"/><rect class="f2b978ba-297a-4eee-906f-f4fb63dd7350" x="198.96" y="223.69" width="40.26" height="0.07"/></g><g class="04ec2bb2-765d-4acb-8343-ecc7add95ce6"><line class="685b2e77-d244-44e1-a106-d32dba1ba247" x1="487" y1="286.77" x2="23" y2="286.77"/><text class="740460e3-098d-461f-92df-b277b08a3660" transform="translate(13.59 290.38) scale(0.92 1)">0</text><line class="4df522a4-44ad-4530-9570-ef3f0d75c993" x1="487" y1="274.49" x2="23" y2="274.49"/><text class="740460e3-098d-461f-92df-b277b08a3660" transform="translate(7.85 278.1) scale(0.92 1)">20</text><line class="4df522a4-44ad-4530-9570-ef3f0d75c993" x1="487" y1="262.2" x2="23" y2="262.2"/><text class="740460e3-098d-461f-92df-b277b08a3660" transform="translate(7.85 265.82) scale(0.92 1)">40</text><line class="4df522a4-44ad-4530-9570-ef3f0d75c993" x1="487" y1="249.92" x2="23" y2="249.92"/><text class="740460e3-098d-461f-92df-b277b08a3660" transform="translate(7.85 253.54) scale(0.92 1)">60</text><rect class="f2b978ba-297a-4eee-906f-f4fb63dd7350" x="75.08" y="286.71" width="40.26" height="0.06"/><rect class="f2b978ba-297a-4eee-906f-f4fb63dd7350" x="116.37" y="286.69" width="40.26" height="0.07"/><rect class="f2b978ba-297a-4eee-906f-f4fb63dd7350" x="157.67" y="286.71" width="40.26" height="0.06"/><rect class="f2b978ba-297a-4eee-906f-f4fb63dd7350" x="198.96" y="286.69" width="40.26" height="0.07"/></g><g class="04ec2bb2-765d-4acb-8343-ecc7add95ce6"><line class="685b2e77-d244-44e1-a106-d32dba1ba247" x1="486" y1="353.77" x2="21" y2="353.77"/><text class="740460e3-098d-461f-92df-b277b08a3660" transform="translate(11.59 357.38) scale(0.92 1)">0</text><line class="4df522a4-44ad-4530-9570-ef3f0d75c993" x1="486" y1="341.49" x2="21" y2="341.49"/><text class="740460e3-098d-461f-92df-b277b08a3660" transform="translate(5.85 345.1) scale(0.92 1)">20</text><line class="4df522a4-44ad-4530-9570-ef3f0d75c993" x1="486" y1="329.2" x2="21" y2="329.2"/><text class="740460e3-098d-461f-92df-b277b08a3660" transform="translate(5.85 332.82) scale(0.92 1)">40</text><line class="4df522a4-44ad-4530-9570-ef3f0d75c993" x1="486" y1="316.92" x2="21" y2="316.92"/><text class="740460e3-098d-461f-92df-b277b08a3660" transform="translate(5.85 320.54) scale(0.92 1)">60</text><rect class="f2b978ba-297a-4eee-906f-f4fb63dd7350" x="73.08" y="353.71" width="40.26" height="0.06"/><rect class="f2b978ba-297a-4eee-906f-f4fb63dd7350" x="114.37" y="353.69" width="40.26" height="0.07"/><rect class="f2b978ba-297a-4eee-906f-f4fb63dd7350" x="155.67" y="353.71" width="40.26" height="0.06"/><rect class="f2b978ba-297a-4eee-906f-f4fb63dd7350" x="196.96" y="353.69" width="40.26" height="0.07"/></g><g class="04ec2bb2-765d-4acb-8343-ecc7add95ce6"><line class="685b2e77-d244-44e1-a106-d32dba1ba247" x1="488" y1="422.77" x2="23" y2="422.77"/><text class="740460e3-098d-461f-92df-b277b08a3660" transform="translate(13.59 426.38) scale(0.92 1)">0</text><line class="4df522a4-44ad-4530-9570-ef3f0d75c993" x1="488" y1="410.49" x2="23" y2="410.49"/><text class="740460e3-098d-461f-92df-b277b08a3660" transform="translate(7.85 414.1) scale(0.92 1)">20</text><line class="4df522a4-44ad-4530-9570-ef3f0d75c993" x1="488" y1="398.2" x2="23" y2="398.2"/><text class="740460e3-098d-461f-92df-b277b08a3660" transform="translate(7.85 401.82) scale(0.92 1)">40</text><line class="4df522a4-44ad-4530-9570-ef3f0d75c993" x1="488" y1="385.92" x2="23" y2="385.92"/><text class="740460e3-098d-461f-92df-b277b08a3660" transform="translate(7.85 389.54) scale(0.92 1)">60</text><rect class="f2b978ba-297a-4eee-906f-f4fb63dd7350" x="75.08" y="422.71" width="40.26" height="0.06"/><rect class="f2b978ba-297a-4eee-906f-f4fb63dd7350" x="116.37" y="422.69" width="40.26" height="0.07"/><rect class="f2b978ba-297a-4eee-906f-f4fb63dd7350" x="157.67" y="422.71" width="40.26" height="0.06"/><rect class="f2b978ba-297a-4eee-906f-f4fb63dd7350" x="198.96" y="422.69" width="40.26" height="0.07"/></g><g class="04ec2bb2-765d-4acb-8343-ecc7add95ce6"><line class="685b2e77-d244-44e1-a106-d32dba1ba247" x1="488" y1="489.77" x2="23" y2="489.77"/><text class="740460e3-098d-461f-92df-b277b08a3660" transform="translate(13.59 493.38) scale(0.92 1)">0</text><line class="4df522a4-44ad-4530-9570-ef3f0d75c993" x1="488" y1="477.49" x2="23" y2="477.49"/><text class="740460e3-098d-461f-92df-b277b08a3660" transform="translate(7.85 481.1) scale(0.92 1)">20</text><line class="4df522a4-44ad-4530-9570-ef3f0d75c993" x1="488" y1="465.2" x2="23" y2="465.2"/><text class="740460e3-098d-461f-92df-b277b08a3660" transform="translate(7.85 468.82) scale(0.92 1)">40</text><line class="4df522a4-44ad-4530-9570-ef3f0d75c993" x1="488" y1="452.92" x2="23" y2="452.92"/><text class="740460e3-098d-461f-92df-b277b08a3660" transform="translate(7.85 456.54) scale(0.92 1)">60</text><rect class="f2b978ba-297a-4eee-906f-f4fb63dd7350" x="75.08" y="489.71" width="40.26" height="0.06"/><rect class="f2b978ba-297a-4eee-906f-f4fb63dd7350" x="116.37" y="489.69" width="40.26" height="0.07"/><rect class="f2b978ba-297a-4eee-906f-f4fb63dd7350" x="157.67" y="489.71" width="40.26" height="0.06"/><rect class="f2b978ba-297a-4eee-906f-f4fb63dd7350" x="198.96" y="489.69" width="40.26" height="0.07"/></g><g class="04ec2bb2-765d-4acb-8343-ecc7add95ce6"><rect class="27e91fa6-da83-4a3f-bf9e-860944f0e512" x="33.89" y="412.06" width="40.34" height="11.28"/><rect class="27e91fa6-da83-4a3f-bf9e-860944f0e512" x="75.27" y="420.93" width="40.34" height="2.41"/><rect class="27e91fa6-da83-4a3f-bf9e-860944f0e512" x="116.65" y="418.33" width="40.34" height="5.01"/><rect class="27e91fa6-da83-4a3f-bf9e-860944f0e512" x="158.02" y="416.52" width="40.34" height="6.82"/><rect class="27e91fa6-da83-4a3f-bf9e-860944f0e512" x="199.4" y="415.04" width="40.34" height="8.3"/><rect class="27e91fa6-da83-4a3f-bf9e-860944f0e512" x="240.78" y="403.8" width="40.34" height="19.54"/><rect class="27e91fa6-da83-4a3f-bf9e-860944f0e512" x="282.15" y="418.86" width="40.34" height="4.48"/><rect class="27e91fa6-da83-4a3f-bf9e-860944f0e512" x="323.53" y="421.27" width="40.34" height="2.06"/><rect class="27e91fa6-da83-4a3f-bf9e-860944f0e512" x="364.9" y="422.7" width="40.34" height="0.63"/><rect class="27e91fa6-da83-4a3f-bf9e-860944f0e512" x="406.28" y="423.1" width="40.34" height="0.24"/><rect class="27e91fa6-da83-4a3f-bf9e-860944f0e512" x="447.66" y="422.7" width="40.34" height="0.63"/></g><g class="04ec2bb2-765d-4acb-8343-ecc7add95ce6"><rect class="8d6215cc-23cd-4c14-99de-fedfdf5fe795" x="33.89" y="351.91" width="40.34" height="2.22"/><rect class="8d6215cc-23cd-4c14-99de-fedfdf5fe795" x="75.27" y="353.44" width="40.34" height="0.68"/><rect class="8d6215cc-23cd-4c14-99de-fedfdf5fe795" x="116.65" y="352.66" width="40.34" height="1.47"/><rect class="8d6215cc-23cd-4c14-99de-fedfdf5fe795" x="158.02" y="351.73" width="40.34" height="2.4"/><rect class="8d6215cc-23cd-4c14-99de-fedfdf5fe795" x="199.4" y="349.4" width="40.34" height="4.73"/><rect class="8d6215cc-23cd-4c14-99de-fedfdf5fe795" x="240.78" y="332.51" width="40.34" height="21.61"/><rect class="8d6215cc-23cd-4c14-99de-fedfdf5fe795" x="282.15" y="340.69" width="40.34" height="13.44"/><rect class="8d6215cc-23cd-4c14-99de-fedfdf5fe795" x="323.53" y="343.6" width="40.34" height="10.53"/><rect class="8d6215cc-23cd-4c14-99de-fedfdf5fe795" x="364.9" y="350.46" width="40.34" height="3.67"/><rect class="8d6215cc-23cd-4c14-99de-fedfdf5fe795" x="406.28" y="353.76" width="40.34" height="0.37"/><rect class="8d6215cc-23cd-4c14-99de-fedfdf5fe795" x="447.66" y="353.81" width="40.34" height="0.31"/></g><g class="04ec2bb2-765d-4acb-8343-ecc7add95ce6"><rect class="f0854ac7-8dd2-4020-9e0c-3028e2584a8f" x="33.67" y="462.82" width="40.18" height="27.19"/><rect class="f0854ac7-8dd2-4020-9e0c-3028e2584a8f" x="74.89" y="486.83" width="40.18" height="3.18"/><rect class="f0854ac7-8dd2-4020-9e0c-3028e2584a8f" x="116.1" y="487.06" width="40.18" height="2.95"/><rect class="f0854ac7-8dd2-4020-9e0c-3028e2584a8f" x="157.31" y="485.39" width="40.18" height="4.62"/><rect class="f0854ac7-8dd2-4020-9e0c-3028e2584a8f" x="198.53" y="485.09" width="40.18" height="4.92"/><rect class="f0854ac7-8dd2-4020-9e0c-3028e2584a8f" x="239.74" y="480.32" width="40.18" height="9.69"/><rect class="f0854ac7-8dd2-4020-9e0c-3028e2584a8f" x="280.96" y="487.13" width="40.18" height="2.88"/><rect class="f0854ac7-8dd2-4020-9e0c-3028e2584a8f" x="322.17" y="488.19" width="40.18" height="1.82"/><rect class="f0854ac7-8dd2-4020-9e0c-3028e2584a8f" x="363.39" y="488.95" width="40.18" height="1.06"/><rect class="f0854ac7-8dd2-4020-9e0c-3028e2584a8f" x="404.6" y="489.78" width="40.18" height="0.23"/><rect class="f0854ac7-8dd2-4020-9e0c-3028e2584a8f" x="445.82" y="487.13" width="40.18" height="2.88"/></g><g class="04ec2bb2-765d-4acb-8343-ecc7add95ce6"><rect class="9b727634-1ecf-42c0-93b9-74412ad8cd34" x="33.69" y="285.94" width="40.2" height="0.92"/><rect class="9b727634-1ecf-42c0-93b9-74412ad8cd34" x="74.93" y="286.72" width="40.2" height="0.13"/><rect class="9b727634-1ecf-42c0-93b9-74412ad8cd34" x="116.16" y="286.34" width="40.2" height="0.52"/><rect class="9b727634-1ecf-42c0-93b9-74412ad8cd34" x="157.39" y="285.91" width="40.2" height="0.94"/><rect class="9b727634-1ecf-42c0-93b9-74412ad8cd34" x="198.62" y="285.61" width="40.2" height="1.25"/><rect class="9b727634-1ecf-42c0-93b9-74412ad8cd34" x="239.85" y="276.62" width="40.2" height="10.23"/><rect class="9b727634-1ecf-42c0-93b9-74412ad8cd34" x="281.08" y="275.61" width="40.2" height="11.24"/><rect class="9b727634-1ecf-42c0-93b9-74412ad8cd34" x="322.31" y="268.16" width="40.2" height="18.69"/><rect class="9b727634-1ecf-42c0-93b9-74412ad8cd34" x="363.55" y="273.19" width="40.2" height="13.66"/><rect class="9b727634-1ecf-42c0-93b9-74412ad8cd34" x="404.78" y="284.45" width="40.2" height="2.4"/><rect class="9b727634-1ecf-42c0-93b9-74412ad8cd34" x="446.01" y="285.41" width="40.2" height="1.44"/></g><line class="685b2e77-d244-44e1-a106-d32dba1ba247" x1="488.29" y1="97.76" x2="23" y2="97.76"/><g class="04ec2bb2-765d-4acb-8343-ecc7add95ce6"><text class="740460e3-098d-461f-92df-b277b08a3660" transform="translate(13.66 101.37) scale(0.92 1)">0</text></g><line class="4df522a4-44ad-4530-9570-ef3f0d75c993" x1="488.29" y1="85.47" x2="23" y2="85.47"/><g class="04ec2bb2-765d-4acb-8343-ecc7add95ce6"><text class="740460e3-098d-461f-92df-b277b08a3660" transform="translate(7.91 89.09) scale(0.92 1)">20</text></g><line class="4df522a4-44ad-4530-9570-ef3f0d75c993" x1="488.29" y1="73.19" x2="23" y2="73.19"/><g class="04ec2bb2-765d-4acb-8343-ecc7add95ce6"><text class="740460e3-098d-461f-92df-b277b08a3660" transform="translate(7.91 76.81) scale(0.92 1)">40</text></g><line class="4df522a4-44ad-4530-9570-ef3f0d75c993" x1="488.29" y1="60.91" x2="23" y2="60.91"/><g class="04ec2bb2-765d-4acb-8343-ecc7add95ce6"><text class="740460e3-098d-461f-92df-b277b08a3660" transform="translate(7.91 64.53) scale(0.92 1)">60</text></g><rect class="335b9519-7ada-4945-9c04-462b6e5002ea" x="33.89" y="96.99" width="40.34" height="0.76"/><rect class="335b9519-7ada-4945-9c04-462b6e5002ea" x="75.27" y="97.66" width="40.34" height="0.09"/><rect class="335b9519-7ada-4945-9c04-462b6e5002ea" x="116.65" y="97.62" width="40.34" height="0.14"/><rect class="335b9519-7ada-4945-9c04-462b6e5002ea" x="158.02" y="97.67" width="40.34" height="0.09"/><rect class="335b9519-7ada-4945-9c04-462b6e5002ea" x="199.4" y="97.7" width="40.34" height="0.06"/><rect class="335b9519-7ada-4945-9c04-462b6e5002ea" x="240.78" y="97.44" width="40.34" height="0.32"/><rect class="335b9519-7ada-4945-9c04-462b6e5002ea" x="282.15" y="97.27" width="40.34" height="0.49"/><rect class="335b9519-7ada-4945-9c04-462b6e5002ea" x="323.53" y="95.82" width="40.34" height="1.94"/><rect class="335b9519-7ada-4945-9c04-462b6e5002ea" x="364.91" y="92.05" width="40.34" height="5.71"/><rect class="335b9519-7ada-4945-9c04-462b6e5002ea" x="406.28" y="91.13" width="40.34" height="6.63"/><rect class="335b9519-7ada-4945-9c04-462b6e5002ea" x="447.66" y="52.56" width="40.34" height="45.2"/><rect class="befa7ebb-02c5-4b2f-ae54-382032c0c793" x="33.78" y="223.06" width="40.26" height="0.77"/><rect class="08687230-bc15-45f9-ab32-53e8a1428789" x="75.08" y="223.73" width="40.26" height="0.1"/><rect class="08687230-bc15-45f9-ab32-53e8a1428789" x="116.37" y="223.71" width="40.26" height="0.12"/><rect class="08687230-bc15-45f9-ab32-53e8a1428789" x="157.67" y="223.71" width="40.26" height="0.12"/><rect class="08687230-bc15-45f9-ab32-53e8a1428789" x="198.96" y="223.72" width="40.26" height="0.11"/><rect class="befa7ebb-02c5-4b2f-ae54-382032c0c793" x="240.26" y="223.3" width="40.26" height="0.53"/><rect class="befa7ebb-02c5-4b2f-ae54-382032c0c793" x="281.56" y="222.94" width="40.26" height="0.89"/><rect class="befa7ebb-02c5-4b2f-ae54-382032c0c793" x="322.85" y="220.77" width="40.26" height="3.06"/><rect class="befa7ebb-02c5-4b2f-ae54-382032c0c793" x="364.15" y="215.78" width="40.26" height="8.05"/><rect class="befa7ebb-02c5-4b2f-ae54-382032c0c793" x="405.44" y="215.68" width="40.26" height="8.15"/><rect class="befa7ebb-02c5-4b2f-ae54-382032c0c793" x="446.74" y="184.31" width="40.26" height="39.52"/><text class="99c5d0f6-e543-40eb-998f-0ad9d1e58b5b" transform="translate(6 27.76)">Identidad nacional</text><text class="5d7ac3ef-bd8f-4090-80d5-b9f772d34508" transform="translate(431.25 527.59) scale(0.92 1)">ES<tspan class="8a8a2e5c-9c76-4cec-b6f5-35913241e9f1" x="18.68" y="0">T</tspan><tspan x="26.19" y="0">ADO</tspan><tspan x="2.07" y="12">PROPIO</tspan></text><text class="589bf09f-7cdc-45a4-97b1-6cb8dc81ce16" transform="translate(457.77 448.47) scale(0.92 1)">PPC</text><text class="589bf09f-7cdc-45a4-97b1-6cb8dc81ce16" transform="translate(465.14 379.47) scale(0.92 1)">C<tspan class="d0f7c031-627b-4b99-afd7-810d075a25e4" x="10.83" y="0">’</tspan><tspan x="14.44" y="0">s</tspan></text><text class="589bf09f-7cdc-45a4-97b1-6cb8dc81ce16" transform="translate(454.77 311.47) scale(0.92 1)">PSC</text><text class="589bf09f-7cdc-45a4-97b1-6cb8dc81ce16" transform="translate(444.05 246.47) scale(0.92 1)">CeC-<tspan class="c4af0852-9497-464c-b922-7240351165f3" x="35" y="0">P</tspan></text><text class="589bf09f-7cdc-45a4-97b1-6cb8dc81ce16" transform="translate(456.01 180.47) scale(0.92 1)">ERC</text><text class="589bf09f-7cdc-45a4-97b1-6cb8dc81ce16" transform="translate(443.53 115.47) scale(0.92 1)">JxC<tspan class="7c2696b5-b61e-4ef4-93cc-da911ac7e280" x="27.52" y="0">A</tspan><tspan x="37.24" y="0">T</tspan></text><text class="589bf09f-7cdc-45a4-97b1-6cb8dc81ce16" transform="translate(457.26 47.47) scale(0.92 1)">CU<tspan class="c4af0852-9497-464c-b922-7240351165f3" x="21.66" y="0">P</tspan></text><text class="5d7ac3ef-bd8f-4090-80d5-b9f772d34508" transform="translate(34 526.96) scale(0.92 1)">ES<tspan class="8a8a2e5c-9c76-4cec-b6f5-35913241e9f1" x="18.68" y="0">T</tspan><tspan x="26.19" y="0">ADO </tspan><tspan x="0" y="12">CENTRALIZADO</tspan></text><text class="5d7ac3ef-bd8f-4090-80d5-b9f772d34508" transform="translate(226.54 529.21) scale(0.92 1)">MANTENER <tspan x="-5.18" y="12">S</tspan><tspan class="8a8a2e5c-9c76-4cec-b6f5-35913241e9f1" x="4.15" y="12">TA</tspan><tspan x="19.96" y="12">TUS QUO</tspan></text><text class="d4a58987-6dde-40f2-9d58-3993e1db9897" transform="translate(49.19 508.79) scale(0.92 1)">0</text><text class="737a284d-b695-42ae-80b8-1e69222c0ed2" transform="translate(90.19 508.79) scale(0.92 1)">1</text><text class="737a284d-b695-42ae-80b8-1e69222c0ed2" transform="translate(132.19 508.79) scale(0.92 1)">2</text><text class="737a284d-b695-42ae-80b8-1e69222c0ed2" transform="translate(173.19 508.79) scale(0.92 1)">3</text><text class="737a284d-b695-42ae-80b8-1e69222c0ed2" transform="translate(214.19 508.79) scale(0.92 1)">4</text><text class="d4a58987-6dde-40f2-9d58-3993e1db9897" transform="translate(255.19 508.79) scale(0.92 1)">5</text><text class="737a284d-b695-42ae-80b8-1e69222c0ed2" transform="translate(298.19 508.79) scale(0.92 1)">6</text><text class="737a284d-b695-42ae-80b8-1e69222c0ed2" transform="translate(340.19 508.79) scale(0.92 1)">7</text><text class="737a284d-b695-42ae-80b8-1e69222c0ed2" transform="translate(381.19 508.79) scale(0.92 1)">8</text><text class="737a284d-b695-42ae-80b8-1e69222c0ed2" transform="translate(424.19 508.79) scale(0.92 1)">9</text><text class="d4a58987-6dde-40f2-9d58-3993e1db9897" transform="translate(463.71 508.79) scale(0.92 1)">10</text><text class="c06fb7b0-b7b9-4886-b8d2-80e9f193c32a" transform="translate(5 568.96) scale(0.92 1)">Fuente: El<tspan class="0c6d6c06-b324-446b-974f-df9d9dc14088" x="63.81" y="0"> </tspan><tspan class="ea7424bc-e9e0-46b5-93b2-c389d57511d5" x="67.45" y="0">T</tspan><tspan x="74.45" y="0">eu </tspan><tspan class="24f18c56-1fe4-4752-a904-fe27562286af" x="93.91" y="0">V</tspan><tspan x="102.48" y="0">ot</tspan></text><text class="c06fb7b0-b7b9-4886-b8d2-80e9f193c32a" transform="translate(388.39 568.96) scale(0.92 1)">L<tspan class="24f18c56-1fe4-4752-a904-fe27562286af" x="7.79" y="0">A</tspan><tspan x="16.35" y="0"> </tspan><tspan class="8a8a2e5c-9c76-4cec-b6f5-35913241e9f1" x="20.24" y="0">V</tspan><tspan x="28.54" y="0">ANGUARDI</tspan><tspan class="24f18c56-1fe4-4752-a904-fe27562286af" x="102.43" y="0">A</tspan></text><text class="c06fb7b0-b7b9-4886-b8d2-80e9f193c32a" transform="translate(8.01 48.96) scale(0.92 1)">PORCEN<tspan class="8a8a2e5c-9c76-4cec-b6f5-35913241e9f1" x="59.9" y="0">T</tspan><tspan x="67.41" y="0">AJE DE VO</tspan><tspan class="8a8a2e5c-9c76-4cec-b6f5-35913241e9f1" x="140.54" y="0">T</tspan><tspan x="148.05" y="0" xml:space="preserve">ANTES  DE CAD</tspan><tspan class="24f18c56-1fe4-4752-a904-fe27562286af" x="255.4" y="0">A</tspan><tspan x="263.96" y="0"> </tspan><tspan class="8a8a2e5c-9c76-4cec-b6f5-35913241e9f1" x="267.85" y="0">P</tspan><tspan x="276.15" y="0">A</tspan><tspan class="0c6d6c06-b324-446b-974f-df9d9dc14088" x="285.49" y="0">R</tspan><tspan x="295.35" y="0">TIDO</tspan></text></svg>