<svg id="d0ec69d9-ddc2-49d4-b8b0-cebaa7fda586" data-name="Capa 1" xmlns="http://www.w3.org/2000/svg" viewBox="0 0 801 756"><defs><style>.\31 e305b1b-9adb-42cd-9a61-0869a16a8b08,.dad3d5e5-f9bd-48bf-ac70-7ef14785bf41,.ec136af1-4775-4107-a0d4-8eec6ea8b560{fill:none;}.\31 e305b1b-9adb-42cd-9a61-0869a16a8b08{stroke:#d9d9d9;}.\34 d24f4a8-8ece-410e-bc61-9c95dc578f5c{fill:#159094;}.bc62385d-485a-4a99-a723-dbac2f03e584{fill:#3f4d78;}.dad3d5e5-f9bd-48bf-ac70-7ef14785bf41{stroke:#333;}.\36 0b881b5-7baf-4ede-af52-2b859c19985d{font-size:34px;font-family:Arial-BoldMT, Arial;font-weight:700;}.\36 0b881b5-7baf-4ede-af52-2b859c19985d,.bf35e1d5-76fc-4d83-a3ea-333a69d1b938{fill:#323232;}.b2c42209-cbd0-4c69-9b3f-4eab03d59abe{letter-spacing:-0.06em;}.f5648531-d1ac-4252-90ed-72b1c4851c91{font-size:16px;}.\38 5a63dbc-92fb-446c-bf0d-bf4fd25fe522,.f5648531-d1ac-4252-90ed-72b1c4851c91{fill:#757575;font-family:ArialMT, Arial;}.e6017055-25ce-4c4c-ab77-e3268ae7dd6e{letter-spacing:-0.07em;}.\38 5a63dbc-92fb-446c-bf0d-bf4fd25fe522{font-size:19px;}.\38 579b0a8-d4a1-4a50-b155-3335d847637e{letter-spacing:-0.06em;}.abeec3f8-a9ae-476c-8ff9-f36e01eab46d{fill:#283659;}.\38 9c75301-2531-4ccc-8753-e9b398813e21{fill:#fff;}.\38 21264da-4b55-4c3a-bb6c-7eb21b948d0f{letter-spacing:-0.02em;}.\35 42ecb28-480c-4217-821d-2992445b4e27{letter-spacing:-0.04em;}.\39 dc20327-04b9-4a4d-803b-2db083555367{letter-spacing:0em;}.ec136af1-4775-4107-a0d4-8eec6ea8b560{stroke:#323232;stroke-miterlimit:10;stroke-width:2px;}</style></defs><title>pibtrump</title><path class="1e305b1b-9adb-42cd-9a61-0869a16a8b08" d="M9.91,121.44H792"/><path class="1e305b1b-9adb-42cd-9a61-0869a16a8b08" d="M9.91,202.16H792"/><path class="1e305b1b-9adb-42cd-9a61-0869a16a8b08" d="M9.91,282.89H792"/><path class="1e305b1b-9adb-42cd-9a61-0869a16a8b08" d="M9.91,445.26H792"/><path class="1e305b1b-9adb-42cd-9a61-0869a16a8b08" d="M9.91,526H792"/><path class="1e305b1b-9adb-42cd-9a61-0869a16a8b08" d="M9.91,607.64H792"/><path class="1e305b1b-9adb-42cd-9a61-0869a16a8b08" d="M9.91,688.36H792"/><rect class="4d24f4a8-8ece-410e-bc61-9c95dc578f5c" x="50.3" y="275.55" width="14.17" height="88.98"/><rect class="4d24f4a8-8ece-410e-bc61-9c95dc578f5c" x="69.43" y="299.4" width="14.17" height="65.13"/><rect class="4d24f4a8-8ece-410e-bc61-9c95dc578f5c" x="88.56" y="364.54" width="14.17" height="23.85"/><rect class="4d24f4a8-8ece-410e-bc61-9c95dc578f5c" x="106.99" y="364.54" width="14.17" height="226.59"/><rect class="4d24f4a8-8ece-410e-bc61-9c95dc578f5c" x="126.12" y="364.54" width="14.17" height="283.46"/><rect class="4d24f4a8-8ece-410e-bc61-9c95dc578f5c" x="144.54" y="364.54" width="14.17" height="332.08"/><rect class="4d24f4a8-8ece-410e-bc61-9c95dc578f5c" x="163.67" y="364.54" width="14.17" height="266.95"/><rect class="4d24f4a8-8ece-410e-bc61-9c95dc578f5c" x="182.8" y="364.54" width="14.17" height="15.6"/><rect class="4d24f4a8-8ece-410e-bc61-9c95dc578f5c" x="201.22" y="234.27" width="14.17" height="130.26"/><rect class="4d24f4a8-8ece-410e-bc61-9c95dc578f5c" x="220.35" y="145.29" width="14.17" height="219.25"/><rect class="4d24f4a8-8ece-410e-bc61-9c95dc578f5c" x="239.49" y="113.18" width="14.17" height="251.36"/><rect class="4d24f4a8-8ece-410e-bc61-9c95dc578f5c" x="257.91" y="145.29" width="14.17" height="219.25"/><rect class="4d24f4a8-8ece-410e-bc61-9c95dc578f5c" x="277.04" y="210.42" width="14.17" height="154.12"/><rect class="4d24f4a8-8ece-410e-bc61-9c95dc578f5c" x="295.46" y="226.93" width="14.17" height="137.6"/><rect class="4d24f4a8-8ece-410e-bc61-9c95dc578f5c" x="314.59" y="267.3" width="14.17" height="97.24"/><rect class="4d24f4a8-8ece-410e-bc61-9c95dc578f5c" x="333.72" y="226.93" width="14.17" height="137.6"/><rect class="4d24f4a8-8ece-410e-bc61-9c95dc578f5c" x="352.14" y="307.66" width="14.17" height="56.88"/><rect class="4d24f4a8-8ece-410e-bc61-9c95dc578f5c" x="371.28" y="324.17" width="14.17" height="40.36"/><rect class="4d24f4a8-8ece-410e-bc61-9c95dc578f5c" x="390.41" y="356.28" width="14.17" height="8.26"/><rect class="4d24f4a8-8ece-410e-bc61-9c95dc578f5c" x="427.96" y="259.04" width="14.17" height="105.5"/><rect class="4d24f4a8-8ece-410e-bc61-9c95dc578f5c" x="446.38" y="282.89" width="14.17" height="81.64"/><rect class="4d24f4a8-8ece-410e-bc61-9c95dc578f5c" x="465.51" y="226.93" width="14.17" height="137.6"/><rect class="4d24f4a8-8ece-410e-bc61-9c95dc578f5c" x="484.64" y="145.29" width="14.17" height="219.25"/><rect class="4d24f4a8-8ece-410e-bc61-9c95dc578f5c" x="503.07" y="226.93" width="14.17" height="137.6"/><rect class="4d24f4a8-8ece-410e-bc61-9c95dc578f5c" x="522.2" y="145.29" width="14.17" height="219.25"/><rect class="4d24f4a8-8ece-410e-bc61-9c95dc578f5c" x="541.33" y="104.92" width="14.17" height="259.61"/><rect class="4d24f4a8-8ece-410e-bc61-9c95dc578f5c" x="559.75" y="145.29" width="14.17" height="219.25"/><rect class="4d24f4a8-8ece-410e-bc61-9c95dc578f5c" x="578.88" y="56.3" width="14.17" height="308.23"/><rect class="4d24f4a8-8ece-410e-bc61-9c95dc578f5c" x="597.3" y="96.67" width="14.17" height="267.87"/><rect class="4d24f4a8-8ece-410e-bc61-9c95dc578f5c" x="616.43" y="170.06" width="14.17" height="194.48"/><rect class="4d24f4a8-8ece-410e-bc61-9c95dc578f5c" x="635.57" y="202.16" width="14.17" height="162.37"/><rect class="4d24f4a8-8ece-410e-bc61-9c95dc578f5c" x="653.99" y="250.78" width="14.17" height="113.75"/><rect class="4d24f4a8-8ece-410e-bc61-9c95dc578f5c" x="673.12" y="267.3" width="14.17" height="97.24"/><rect class="4d24f4a8-8ece-410e-bc61-9c95dc578f5c" x="691.54" y="242.53" width="14.17" height="122.01"/><rect class="4d24f4a8-8ece-410e-bc61-9c95dc578f5c" x="710.67" y="218.68" width="14.17" height="145.86"/><rect class="bc62385d-485a-4a99-a723-dbac2f03e584" x="729.8" y="202.16" width="14.17" height="162.37"/><rect class="bc62385d-485a-4a99-a723-dbac2f03e584" x="748.23" y="185.65" width="14.17" height="178.88"/><rect class="bc62385d-485a-4a99-a723-dbac2f03e584" x="767.36" y="178.31" width="14.17" height="186.22"/><path class="dad3d5e5-f9bd-48bf-ac70-7ef14785bf41" d="M9.91,364.54H792"/><text class="60b881b5-7baf-4ede-af52-2b859c19985d" transform="translate(61.55 33.9)"><tspan class="b2c42209-cbd0-4c69-9b3f-4eab03d59abe">V</tspan><tspan x="20.8" y="0">ariación interanual del PIB por trimestres</tspan></text><text class="f5648531-d1ac-4252-90ed-72b1c4851c91" transform="translate(61.46 430.38) rotate(-90)">T1/2008</text><text class="f5648531-d1ac-4252-90ed-72b1c4851c91" transform="translate(80.96 430.38) rotate(-90)">T2/2008</text><text class="f5648531-d1ac-4252-90ed-72b1c4851c91" transform="translate(100.46 353) rotate(-90)">T3/2008</text><text class="f5648531-d1ac-4252-90ed-72b1c4851c91" transform="translate(118.46 353.5) rotate(-90)">T4/2008</text><text class="f5648531-d1ac-4252-90ed-72b1c4851c91" transform="translate(136.96 353.5) rotate(-90)">T1/2009</text><text class="f5648531-d1ac-4252-90ed-72b1c4851c91" transform="translate(155.46 352.5) rotate(-90)">T2/2009</text><text class="f5648531-d1ac-4252-90ed-72b1c4851c91" transform="translate(174.46 354.07) rotate(-90)">T3/2009</text><text class="f5648531-d1ac-4252-90ed-72b1c4851c91" transform="translate(193.96 354.07) rotate(-90)">T4/2009</text><text class="f5648531-d1ac-4252-90ed-72b1c4851c91" transform="translate(215.39 432.38) rotate(-90)">T1/2010</text><text class="f5648531-d1ac-4252-90ed-72b1c4851c91" transform="translate(234.53 432.38) rotate(-90)">T2/2010</text><text class="f5648531-d1ac-4252-90ed-72b1c4851c91" transform="translate(253.66 432.38) rotate(-90)">T3/2010</text><text class="f5648531-d1ac-4252-90ed-72b1c4851c91" transform="translate(272.08 432.38) rotate(-90)">T4/2010</text><text class="f5648531-d1ac-4252-90ed-72b1c4851c91" transform="translate(291.21 431.38) rotate(-90)">T1/20<tspan class="e6017055-25ce-4c4c-ab77-e3268ae7dd6e" x="40.91" y="0">1</tspan><tspan x="48.63" y="0">1</tspan></text><text class="f5648531-d1ac-4252-90ed-72b1c4851c91" transform="translate(439.71 432.38) rotate(-90)">T1/2013</text><text class="f5648531-d1ac-4252-90ed-72b1c4851c91" transform="translate(592.05 432.38) rotate(-90)">T1/2015</text><text class="f5648531-d1ac-4252-90ed-72b1c4851c91" transform="translate(610.55 432.38) rotate(-90)">T2/2015</text><text class="f5648531-d1ac-4252-90ed-72b1c4851c91" transform="translate(629.55 432.38) rotate(-90)">T3/2015</text><text class="f5648531-d1ac-4252-90ed-72b1c4851c91" transform="translate(648.55 432.38) rotate(-90)">T4/2015</text><text class="f5648531-d1ac-4252-90ed-72b1c4851c91" transform="translate(667.16 432.38) rotate(-90)">T1/2016</text><text class="f5648531-d1ac-4252-90ed-72b1c4851c91" transform="translate(685.16 432.38) rotate(-90)">T2/2016</text><text class="f5648531-d1ac-4252-90ed-72b1c4851c91" transform="translate(703.71 432.38) rotate(-90)">T3/2016</text><text class="f5648531-d1ac-4252-90ed-72b1c4851c91" transform="translate(722.71 432.38) rotate(-90)">T4/2016</text><text class="f5648531-d1ac-4252-90ed-72b1c4851c91" transform="translate(741.21 432.38) rotate(-90)">T1/2017</text><text class="f5648531-d1ac-4252-90ed-72b1c4851c91" transform="translate(759.4 432.38) rotate(-90)">T2/2017</text><text class="f5648531-d1ac-4252-90ed-72b1c4851c91" transform="translate(779.4 432.38) rotate(-90)">T3/2017</text><text class="f5648531-d1ac-4252-90ed-72b1c4851c91" transform="translate(514.71 432.38) rotate(-90)">T1/2014</text><text class="f5648531-d1ac-4252-90ed-72b1c4851c91" transform="translate(533.71 432.38) rotate(-90)">T2/2014</text><text class="f5648531-d1ac-4252-90ed-72b1c4851c91" transform="translate(552.21 432.38) rotate(-90)">T3/2014</text><text class="f5648531-d1ac-4252-90ed-72b1c4851c91" transform="translate(571.21 432.38) rotate(-90)">T4/2014</text><text class="f5648531-d1ac-4252-90ed-72b1c4851c91" transform="translate(457.71 432.38) rotate(-90)">T2/2013</text><text class="f5648531-d1ac-4252-90ed-72b1c4851c91" transform="translate(477.68 432.38) rotate(-90)">T3/2013</text><text class="f5648531-d1ac-4252-90ed-72b1c4851c91" transform="translate(496.18 432.38) rotate(-90)">T4/2013</text><text class="f5648531-d1ac-4252-90ed-72b1c4851c91" transform="translate(309.63 431.38) rotate(-90)">T2/20<tspan class="e6017055-25ce-4c4c-ab77-e3268ae7dd6e" x="40.91" y="0">1</tspan><tspan x="48.63" y="0">1</tspan></text><text class="f5648531-d1ac-4252-90ed-72b1c4851c91" transform="translate(328.76 431.38) rotate(-90)">T3/20<tspan class="e6017055-25ce-4c4c-ab77-e3268ae7dd6e" x="40.91" y="0">1</tspan><tspan x="48.63" y="0">1</tspan></text><text class="f5648531-d1ac-4252-90ed-72b1c4851c91" transform="translate(348.26 431.38) rotate(-90)">T4/20<tspan class="e6017055-25ce-4c4c-ab77-e3268ae7dd6e" x="40.91" y="0">1</tspan><tspan x="48.63" y="0">1</tspan></text><text class="f5648531-d1ac-4252-90ed-72b1c4851c91" transform="translate(366.32 432.38) rotate(-90)">T1/2012</text><text class="f5648531-d1ac-4252-90ed-72b1c4851c91" transform="translate(384.32 432.38) rotate(-90)">T2/2012</text><text class="f5648531-d1ac-4252-90ed-72b1c4851c91" transform="translate(402.32 432.38) rotate(-90)">T3/2012</text><text class="f5648531-d1ac-4252-90ed-72b1c4851c91" transform="translate(422 352.5) rotate(-90)">T4/2012</text><text class="85a63dbc-92fb-446c-bf0d-bf4fd25fe522" transform="translate(8 279.62)">1</text><text class="85a63dbc-92fb-446c-bf0d-bf4fd25fe522" transform="translate(8 198.25)">2</text><text class="85a63dbc-92fb-446c-bf0d-bf4fd25fe522" transform="translate(10 116.25)">3</text><text class="85a63dbc-92fb-446c-bf0d-bf4fd25fe522" transform="translate(10 603.17)">-3</text><text class="85a63dbc-92fb-446c-bf0d-bf4fd25fe522" transform="translate(10 684.81)">-4</text><text class="85a63dbc-92fb-446c-bf0d-bf4fd25fe522" transform="translate(10 519.87)">-2</text><text class="85a63dbc-92fb-446c-bf0d-bf4fd25fe522" transform="translate(10 439.47)">-1</text><text class="85a63dbc-92fb-446c-bf0d-bf4fd25fe522" transform="translate(9.91 748.02) scale(0.99 1)">Fuente: U.S. Bureau of Economic<tspan class="8579b0a8-d4a1-4a50-b155-3335d847637e" x="283.03" y="0"> </tspan><tspan x="287.26" y="0">Analysis</tspan></text><polygon class="abeec3f8-a9ae-476c-8ff9-f36e01eab46d" points="618.38 728.2 781.34 728.2 781.34 752.96 618.38 752.96 618.38 728.2 618.38 728.2"/><path class="89c75301-2531-4ccc-8753-e9b398813e21" d="M749.11,733.73h-6.24v.78l1.64.39v11.51a1.36,1.36,0,0,1-1.15.58,2.44,2.44,0,0,1-2-1.49l-1.56-2.79a3.23,3.23,0,0,0-2.85-1.92v-.19a3.82,3.82,0,0,0,3.94-3.54c0-2.4-2.18-3.33-4.7-3.33h-5.67v.78l1.85.39v11.68h0l-2.13.41-5.31-14.47a6.67,6.67,0,0,1-1.91,1.64l.2.58-4.84,11.87-1.46.39v.78h4.43V747l-1.44-.37,1.64-4.32H726l1.58,4.29-1.69.41v.78h10.75V747l-1.77-.38v-5.44a2.66,2.66,0,0,1,2.39,1.77l2.13,3.8a3.45,3.45,0,0,0,3.08,1.87,3,3,0,0,0,2-.83h4.81a7.23,7.23,0,0,0,7.41-7c0-4.09-3.17-7-7.55-7Zm-27.26,7.47,1.9-5,1.82,5Zm13.91-1.05h-1v-5.23H736a2.36,2.36,0,0,1,2.45,2.51,2.73,2.73,0,0,1-2.66,2.74ZM749,746.62h-2V734.9H749c3.19,0,5.15,2.21,5.15,5.85s-2,5.85-5.2,5.85Z"/><path class="89c75301-2531-4ccc-8753-e9b398813e21" d="M646.63,746.61l-5.19-14.1a6.66,6.66,0,0,1-1.91,1.64l.2.58-4.82,11.86-1,.39-.31.78h4.29V747l-1.44-.37,1.64-4.32h4.49l1.58,4.29-1.69.41v.78h5.77V747l-1.54-.38Zm-8.24-5.41,1.9-5,1.82,5Z"/><polygon class="89c75301-2531-4ccc-8753-e9b398813e21" points="634.25 744.21 633.73 743.92 630.7 746.68 628.11 746.68 628.11 734.91 629.67 734.51 629.67 733.72 624.08 733.72 624.08 734.51 625.65 734.91 625.65 746.58 624.08 746.99 624.08 747.77 632.86 747.77 634.25 744.21 634.25 744.21"/><polygon class="89c75301-2531-4ccc-8753-e9b398813e21" points="658.65 733.72 658.65 734.51 660.35 734.91 656.67 744.31 652.81 734.89 654.63 734.51 654.63 733.72 648.39 733.72 648.39 734.51 650.18 734.9 655.72 748.26 656.32 748.26 661.84 734.92 661.89 734.92 663.62 734.51 663.62 733.72 658.65 733.72 658.65 733.72"/><path class="89c75301-2531-4ccc-8753-e9b398813e21" d="M714,733.73v.78l1.68.4s.12,7,.06,8.72a3.54,3.54,0,0,1-3.62,3.46H712a3.49,3.49,0,0,1-3.78-3.6V734.9l1.63-.37v-.78h-5.64v.78l1.6.38v8.63c.11,3,2.5,4.92,5.58,4.92s5.47-1.77,5.58-4.92l.11-8.62,1.65-.4v-.78Z"/><path class="89c75301-2531-4ccc-8753-e9b398813e21" d="M775,746.58l-5.16-14.06a6.66,6.66,0,0,1-1.91,1.64l.2.58-4.83,11.91-.82.34-1.12-.35V734.9l1.72-.39v-.78h-5.88v.78l1.7.4V746.6l-1.63.38v.78h9V747l-1.44-.38,1.64-4.32h4.49l1.58,4.29-1.69.41v.78h5.79V747l-1.56-.41Zm-8.22-5.38,1.9-5,1.82,5Z"/><path class="89c75301-2531-4ccc-8753-e9b398813e21" d="M683.86,733.73v.78l1.72.4.11,9.18-8.8-10.37h-3.76v.78l1.7.37.14.07-.12,11.62h0l-1.77.41-5.31-14.47a6.67,6.67,0,0,1-1.85,1.65l.2.58-4.84,11.87-1.46.39v.78h4.43V747l-1.44-.37,1.64-4.32h4.49l1.58,4.29-1.69.41v.78H678V747l-1.77-.4-.2-10.14,10.06,11.82h.66l.13-13.36,1.7-.39v-.78Zm-19.11,7.47,1.9-5,1.82,5Z"/><path class="89c75301-2531-4ccc-8753-e9b398813e21" d="M698.68,740.6v.78l1.59.4v4.53a5.26,5.26,0,0,1-3.17,1.05c-3.19,0-5.23-2.66-5.23-6.41s2-6.7,5.31-6.7a5,5,0,0,1,4.7,3.83l.45-.27v-4.43l-.41-.22-.89,1.08a8.86,8.86,0,0,0-3.89-1,7.86,7.86,0,0,0-7.88,7.74,7.14,7.14,0,0,0,6.77,7.49h.51a7.25,7.25,0,0,0,4.53-1.51l1.24.82h.4v-6l1.33-.5v-.65Z"/><text class="85a63dbc-92fb-446c-bf0d-bf4fd25fe522" transform="translate(314.31 481.04)">Donald<tspan class="821264da-4b55-4c3a-bb6c-7eb21b948d0f" x="60.21" y="0"> </tspan><tspan class="542ecb28-480c-4217-821d-2992445b4e27" x="65.14" y="0">T</tspan><tspan class="9dc20327-04b9-4a4d-803b-2db083555367" x="76.04" y="0">rump asume la presidencia </tspan><tspan x="115.1" y="22.8">de los Estados Unidos</tspan></text><path class="ec136af1-4775-4107-a0d4-8eec6ea8b560" d="M629.17,498c17.39,7.54,86.87,5,104.2-46.67"/><path class="bf35e1d5-76fc-4d83-a3ea-333a69d1b938" d="M732.18,454.76l-8,2.6-.1-.28,7.26-10.35,5.47-11.32q-.11,6.29-.22,12.57l1.82,12.51-.18.21Z"/></svg>