<svg id="Capa_1" data-name="Capa 1" xmlns="http://www.w3.org/2000/svg" viewBox="0 0 1113.05 772.17"><defs><style>.cls-1,.cls-2,.cls-22{fill:none;stroke-miterlimit:10;}.cls-1,.cls-22{stroke:#757575;}.cls-2{stroke:#000;}.cls-3{fill:#386f36;}.cls-10,.cls-3,.cls-4,.cls-5,.cls-6,.cls-7,.cls-8,.cls-9{opacity:0.85;}.cls-4{fill:#d57928;}.cls-5{fill:#f9f077;}.cls-6{fill:#991d26;}.cls-7{fill:#701538;}.cls-8{fill:#159094;}.cls-9{fill:#f27475;}.cls-10{fill:#1a1e4b;}.cls-11{font-size:17px;}.cls-11,.cls-15{fill:#353535;}.cls-11,.cls-13,.cls-15,.cls-18,.cls-20,.cls-21{font-family:ArialMT, Arial;}.cls-12{font-size:38px;font-family:Arial-BoldMT, Arial;font-weight:700;}.cls-12,.cls-13,.cls-20{fill:#323232;}.cls-13{font-size:31px;}.cls-14{letter-spacing:-0.06em;}.cls-15,.cls-18,.cls-20{font-size:18px;}.cls-16{fill:#002f64;}.cls-17{fill:#fff;}.cls-18,.cls-21{fill:#757575;}.cls-19{letter-spacing:-0.06em;}.cls-21{font-size:20px;}.cls-22{opacity:0.8;}</style></defs><title>quejas más demandadas</title><line class="cls-1" x1="303.26" y1="718.24" x2="303.26" y2="251.17"/><path class="cls-2" d="M310.22,595.94" transform="translate(-6.96 -10.4)"/><path class="cls-2" d="M310.22,561.16" transform="translate(-6.96 -10.4)"/><path class="cls-2" d="M310.22,526.38" transform="translate(-6.96 -10.4)"/><path class="cls-2" d="M310.22,387.26" transform="translate(-6.96 -10.4)"/><path class="cls-2" d="M310.22,352.48" transform="translate(-6.96 -10.4)"/><path class="cls-2" d="M310.22,317.7" transform="translate(-6.96 -10.4)"/><path class="cls-2" d="M310.22,282.92" transform="translate(-6.96 -10.4)"/><polygon class="cls-3" points="303.26 251.17 1053.79 251.17 1053.79 282.21 303.26 283.21 303.26 251.17"/><rect class="cls-4" x="303.26" y="301.71" width="293.1" height="32.04"/><rect class="cls-5" x="303.26" y="348.25" width="261.36" height="31.04"/><rect class="cls-6" x="303.26" y="393.03" width="253.94" height="31.04"/><rect class="cls-7" x="303.26" y="441.29" width="210.41" height="32.04"/><rect class="cls-8" x="303.26" y="491.08" width="196.47" height="32.04"/><rect class="cls-9" x="303.26" y="539.99" width="186.74" height="32.04"/><rect class="cls-10" x="303.26" y="589.64" width="160.77" height="31.04"/><rect class="cls-7" x="303.26" y="639.42" width="149.48" height="31.04"/><rect class="cls-8" x="303.26" y="688.19" width="149.4" height="30.04"/><text class="cls-11" transform="translate(46.01 265.17)">Disconforme servicio de limpieza<tspan x="114.29" y="20.4">en calles y plazas</tspan></text><text class="cls-11" transform="translate(141.42 314.23)">Disciplina vial de los<tspan x="9.44" y="20.4">vehículos de motor</tspan></text><text class="cls-11" transform="translate(36.6 369.64)">Mantenimiento del espacio urbano</text><text class="cls-11" transform="translate(29.22 412.42)">Molestias de obras en la vía pública</text><text class="cls-11" transform="translate(104.56 452.82)">Molestias de perros en la<tspan x="28.32" y="20.4">vía público o parques</tspan></text><text class="cls-11" transform="translate(109.25 500.6)">Atención en la oficina de<tspan x="15.11" y="20.4" xml:space="preserve"> atención al ciudadano</tspan></text><text class="cls-11" transform="translate(76.35 561.03)">Centros de servicios sociales</text><text class="cls-11" transform="translate(18.55 608.8)">Devolución solicitada y no efectuada</text><text class="cls-11" transform="translate(87.58 651.94)">Concentración de personas<tspan x="96.38" y="20.4">haciendo ruido</tspan></text><text class="cls-11" transform="translate(70.54 708.58)">Incidencias en el teléfono 010</text><rect class="cls-3" x="4.5" y="139.1" width="19" height="19"/><rect class="cls-4" x="175.43" y="139.1" width="19" height="19"/><rect class="cls-9" x="833" y="139.1" width="19" height="19"/><rect class="cls-8" x="445.03" y="139.1" width="19" height="19"/><rect class="cls-10" x="581" y="139.1" width="19" height="19"/><rect class="cls-6" x="695.5" y="139.1" width="19" height="19"/><text class="cls-12" transform="translate(0 32.6)">Las quejas más demandadas, por áreas</text><text class="cls-13" transform="translate(2 68.6)">Los reclamos más frecuentes presentados en el<tspan class="cls-14" x="659.96" y="0"> </tspan><tspan x="666.86" y="0">Ajuntament de Barcelona </tspan></text><text class="cls-15" transform="translate(28 153.6)">Recogida y <tspan x="0" y="21.6">limpieza de </tspan><tspan x="0" y="43.2">espacios públicos</tspan></text><text class="cls-15" transform="translate(198.5 154.6)">Movilidad</text><rect class="cls-7" x="948.89" y="139.1" width="19" height="19"/><text class="cls-15" transform="translate(971.56 152.6)">Prevención<tspan x="0" y="21.6">y seguridad</tspan></text><text class="cls-15" transform="translate(469.5 153.1)">Información,<tspan x="0" y="21.6">trámites y </tspan><tspan x="0" y="43.2">atención al </tspan><tspan x="0" y="64.8">ciudadano</tspan></text><text class="cls-15" transform="translate(605.5 153.6)">Hacienda</text><text class="cls-15" transform="translate(719.5 152.6)">Urbanismo,<tspan x="0" y="21.6">obras y </tspan><tspan x="0" y="43.2">vivienda</tspan></text><text class="cls-15" transform="translate(857.06 153.6)">Servicios <tspan x="0" y="21.6">sociales</tspan></text><rect class="cls-5" x="292.75" y="139.1" width="19" height="19"/><text class="cls-15" transform="translate(317.37 152.6)">Mantenimiento <tspan x="0" y="21.6">del espacio</tspan><tspan x="0" y="43.2">público</tspan></text><polygon class="cls-16" points="905.85 740.69 1113.05 740.69 1113.05 772.16 905.85 772.16 905.85 740.69 905.85 740.69"/><path class="cls-17" d="M1079,758.12h-7.94v1l2.09.49v14.66a1.74,1.74,0,0,1-1.46.74,3.12,3.12,0,0,1-2.58-1.89l-2-3.55a4.11,4.11,0,0,0-3.63-2.44v-.24c2.66-.07,5-2,5-4.52,0-3-2.77-4.24-6-4.24h-7.21v1l2.35.49v14.85h0L1055,775l-6.75-18.41a8.48,8.48,0,0,1-2.43,2.08l.26.74-6.16,15.08-1.86.5v1h5.6v-1l-1.83-.48,2.08-5.49h5.71l2,5.46-2.15.52v1h13.67v-1l-2.3-.49v-6.91c1.55.1,2.29.81,3,2.24l2.71,4.83a4.38,4.38,0,0,0,3.92,2.38,3.87,3.87,0,0,0,2.57-1.06h6.12a9.19,9.19,0,0,0,9.43-8.93c0-5.21-4-8.93-9.59-8.93Zm-34.67,9.49,2.42-6.34,2.32,6.34Zm17.69-1.34h-1.22V759.6h1.53a3,3,0,0,1,3.12,3.19,3.46,3.46,0,0,1-3.43,3.47Zm16.8,8.23h-2.55V759.61h2.62c4.05,0,6.54,2.8,6.54,7.44s-2.59,7.44-6.61,7.44Z" transform="translate(-6.96 -10.4)"/><path class="cls-17" d="M948.72,774.49l-6.6-17.93a8.45,8.45,0,0,1-2.43,2.08l.26.74-6.16,15.08-1.31.5-.39,1h5.45v-1l-1.84-.48,2.08-5.49h5.71l2,5.46-2.15.52v1h7.33v-1l-2-.48Zm-10.48-6.88,2.42-6.34,2.32,6.34Z" transform="translate(-6.96 -10.4)"/><polygon class="cls-17" points="926.04 761.04 925.37 760.67 921.51 764.19 918.22 764.19 918.22 749.22 920.2 748.71 920.2 747.72 913.09 747.72 913.09 748.71 915.09 749.22 915.09 764.07 913.09 764.58 913.09 765.57 924.26 765.57 926.04 761.04 926.04 761.04"/><polygon class="cls-17" points="957.06 747.72 957.06 748.71 959.21 749.21 954.54 761.16 949.63 749.19 951.94 748.71 951.94 747.72 944.01 747.72 944.01 748.71 946.28 749.21 953.33 766.19 954.09 766.19 961.11 749.23 961.17 749.23 963.37 748.71 963.37 747.72 957.06 747.72 957.06 747.72"/><path class="cls-17" d="M1034.42,758.12v1l2.13.5s.16,8.85.08,11.09a4.51,4.51,0,0,1-4.81,4.36,4.44,4.44,0,0,1-4.81-4.59v-10.9l2.07-.47v-1h-7.17v1l2,.48v11c.14,3.77,3.18,6.25,7.1,6.25s7-2.29,7.1-6.25l.14-11,2.09-.5v-1Z" transform="translate(-6.96 -10.4)"/><path class="cls-17" d="M1112,774.46l-6.57-17.89a8.46,8.46,0,0,1-2.43,2.08l.26.74-6.17,15.16L1096,775l-1.42-.45V759.61l2.19-.5v-1h-7.47v1l2.16.51v14.87l-2.07.49v1h11.43v-1l-1.84-.48,2.09-5.49h5.72l2,5.46-2.15.52v1H1114v-1l-2-.52Zm-10.45-6.85,2.42-6.34,2.33,6.34Z" transform="translate(-6.96 -10.4)"/><path class="cls-17" d="M996.06,758.12v1l2.18.51.13,11.68-11.19-13.18h-4.78v1l2.16.48.18.09-.16,14.77h0l-2.2.52-6.75-18.41a8.48,8.48,0,0,1-2.43,2.08l.25.74-6.16,15.08-1.86.5v1H971v-1l-1.83-.48,2.08-5.49H977l2,5.46-2.15.52v1H988.6v-1l-2.3-.5-.14-12.92,12.79,15h.85l.17-17,2.17-.5v-1Zm-24.31,9.49,2.42-6.34,2.32,6.34Z" transform="translate(-6.96 -10.4)"/><path class="cls-17" d="M1014.85,766.84v1l2,.51v5.75a6.69,6.69,0,0,1-4,1.34c-4.06,0-6.65-3.42-6.65-8.15s2.55-8.52,6.71-8.52a6.36,6.36,0,0,1,6,4.86l.58-.34v-5.64l-.51-.29-1.08,1.37a11.28,11.28,0,0,0-4.94-1.26,10,10,0,0,0-10,9.84c0,5.56,3.93,9.52,9.25,9.52a9.21,9.21,0,0,0,5.76-1.92l1.58,1h.51V768.3l1.69-.64v-.82Z" transform="translate(-6.96 -10.4)"/><text class="cls-18" transform="translate(9.01 765.19)">Fuente:<tspan class="cls-19" x="61.04" y="0"> </tspan><tspan x="65.05" y="0">Ajuntament de Barcelona</tspan></text><text class="cls-20" transform="translate(1060.96 271.19)">9.103</text><text class="cls-20" transform="translate(604.5 322.1)">3.555</text><text class="cls-20" transform="translate(574.02 368.64)">3.170</text><text class="cls-20" transform="translate(564.62 411.43)">3.080</text><text class="cls-20" transform="translate(522.45 460.68)">2.552</text><text class="cls-20" transform="translate(510.67 513.25)">2.383</text><text class="cls-20" transform="translate(464.03 661.94)">1.813</text><text class="cls-20" transform="translate(497.73 559.03)">2.265</text><text class="cls-20" transform="translate(473.15 611.16)">1.950</text><text class="cls-20" transform="translate(464.03 709.59)">1.812</text><text class="cls-21" transform="translate(4.5 120.05)">ÁREAS</text><line class="cls-22" x1="3.5" y1="128.6" x2="1057.29" y2="128.6"/></svg>