<svg id="Capa_1" data-name="Capa 1" xmlns="http://www.w3.org/2000/svg" viewBox="0 0 681.46 646.25"><defs><style>.cls-1{font-size:32px;}.cls-1,.cls-15,.cls-2,.cls-22,.cls-4,.cls-5{fill:#323232;}.cls-1,.cls-14,.cls-15,.cls-4{font-family:Arial-BoldMT, Arial;font-weight:700;}.cls-14,.cls-15,.cls-2{font-size:22px;}.cls-12,.cls-17,.cls-2,.cls-5{font-family:ArialMT, Arial;}.cls-3{letter-spacing:-0.05em;}.cls-22,.cls-4,.cls-5{font-size:19px;}.cls-6{letter-spacing:-0.04em;}.cls-7,.cls-8,.cls-9{fill:none;}.cls-7{stroke:#757575;}.cls-7,.cls-8{stroke-miterlimit:10;}.cls-8{stroke:#000;}.cls-10,.cls-11{fill:#991d26;}.cls-11{opacity:0.8;}.cls-12{font-size:14px;}.cls-12,.cls-13,.cls-17{fill:#757575;}.cls-13{opacity:0.6;}.cls-14,.cls-21{fill:#fff;}.cls-16{letter-spacing:-0.06em;}.cls-17{font-size:15px;}.cls-18{letter-spacing:-0.06em;}.cls-19{letter-spacing:0em;}.cls-20{fill:#002f64;}.cls-22{font-family:Arial-ItalicMT, Arial;font-style:italic;}</style></defs><title>quejas_demandadas</title><text class="cls-1" transform="translate(0 27.45)">Las quejas más demandadas, por áreas</text><text class="cls-2" transform="translate(3 56.77)">El porcentaje de los reclamos más frecuentes presentados <tspan x="0" y="26.4">en el</tspan><tspan class="cls-3" x="47.71" y="26.4"> </tspan><tspan x="52.61" y="26.4">Ajuntament de Barcelona, entre 2014 y 2017 </tspan></text><text class="cls-4" transform="translate(32.18 125.44)">Prevención y<tspan x="27.48" y="22.8">seguridad</tspan></text><text class="cls-5" transform="translate(55.4 175.58)">Recogida y<tspan x="25.36" y="22.8">limpieza</tspan></text><text class="cls-5" transform="translate(69.45 232.92)">Movilidad</text><text class="cls-5" transform="translate(74.77 262.37)">Atención<tspan x="-13.75" y="22.8">ciudadana</tspan></text><text class="cls-5" transform="translate(70.64 312.73)">Servicios<tspan x="8.43" y="22.8">sociales</tspan></text><text class="cls-5" transform="translate(57.54 359.91)"><tspan class="cls-6">T</tspan><tspan x="10.9" y="0">ransporte</tspan><tspan x="30.96" y="22.8">público</tspan></text><text class="cls-5" transform="translate(58.59 409.54)">Urbanismo<tspan x="7.38" y="22.8">y vivienda</tspan></text><text class="cls-5" transform="translate(70.44 464.96)">Hacienda</text><text class="cls-5" transform="translate(27.83 505.24)">Mantenimiento</text><text class="cls-5" transform="translate(91.21 550.91)">Cultura</text><text x="-4.98" y="-14.34"></text><text x="-4.98" y="-14.34"></text><text x="-4.98" y="-14.34"></text><text x="-4.98" y="-14.34"></text><text x="-4.98" y="-14.34"></text><text x="-4.98" y="-14.34"></text><text x="-4.98" y="-14.34"></text><text x="-4.98" y="-14.34"></text><line class="cls-7" x1="164.08" y1="567.55" x2="588.46" y2="567.55"/><line class="cls-8" x1="164.08" y1="504.29" x2="164.08" y2="494.73"/><line class="cls-7" x1="234.81" y1="567.55" x2="234.81" y2="559.73"/><line class="cls-7" x1="305.54" y1="567.55" x2="305.54" y2="559.73"/><line class="cls-7" x1="376.27" y1="567.55" x2="376.27" y2="559.73"/><line class="cls-7" x1="447" y1="567.55" x2="447" y2="559.73"/><line class="cls-7" x1="517.73" y1="567.55" x2="517.73" y2="559.73"/><line class="cls-7" x1="588.46" y1="567.55" x2="588.46" y2="559.73"/><line class="cls-7" x1="164.08" y1="567.55" x2="164.08" y2="113.7"/><line class="cls-9" x1="164.08" y1="485.16" x2="174.69" y2="485.16"/><line class="cls-9" x1="164.08" y1="446.9" x2="174.69" y2="446.9"/><line class="cls-9" x1="164.08" y1="408.64" x2="174.69" y2="408.64"/><line class="cls-9" x1="164.08" y1="370.38" x2="174.69" y2="370.38"/><line class="cls-9" x1="164.08" y1="332.12" x2="174.69" y2="332.12"/><line class="cls-9" x1="164.08" y1="293.86" x2="174.69" y2="293.86"/><line class="cls-9" x1="164.08" y1="255.6" x2="174.69" y2="255.6"/><line class="cls-9" x1="164.08" y1="217.35" x2="174.69" y2="217.35"/><line class="cls-9" x1="164.08" y1="179.09" x2="174.69" y2="179.09"/><line class="cls-9" x1="164.08" y1="140.83" x2="174.69" y2="140.83"/><rect class="cls-10" x="164.75" y="114.05" width="354.75" height="32.55"/><rect class="cls-11" x="164.89" y="161.31" width="226.47" height="32.55"/><rect class="cls-11" x="163.88" y="208.57" width="187.15" height="32.55"/><rect class="cls-11" x="164.08" y="254.83" width="167.77" height="32.55"/><rect class="cls-11" x="164.08" y="300.09" width="103.26" height="32.55"/><rect class="cls-11" x="164.08" y="346.35" width="87.7" height="32.55"/><rect class="cls-11" x="164.5" y="391.28" width="86.29" height="32.55"/><rect class="cls-11" x="164.08" y="437.87" width="62.24" height="32.55"/><rect class="cls-11" x="164.08" y="482.13" width="50.92" height="32.55"/><rect class="cls-11" x="164.08" y="527.39" width="28.29" height="32.55"/><text class="cls-12" transform="translate(160.46 587.69)">0</text><text class="cls-12" transform="translate(297.46 587.69)">10</text><text class="cls-12" transform="translate(439.46 587.69)">20</text><text class="cls-12" transform="translate(581.46 586.69)">30</text><rect class="cls-13" x="530.96" y="114.69" width="59" height="29" rx="12" ry="12"/><text class="cls-14" transform="translate(540.46 136.58)">25%</text><text class="cls-15" transform="translate(397.22 184.69)">16%</text><text class="cls-15" transform="translate(356.46 232.92)">13,2%</text><text class="cls-15" transform="translate(335.46 278.69)"><tspan class="cls-16">1</tspan><tspan x="11.02" y="0">1,8%</tspan></text><text class="cls-15" transform="translate(272.96 322.69)">7,2%</text><text class="cls-15" transform="translate(257.46 369.69)">6,3%</text><text class="cls-15" transform="translate(257.46 413.69)">6,2%</text><text class="cls-15" transform="translate(232.46 461.96)">4,4%</text><text class="cls-15" transform="translate(219.96 506.24)">3,6%</text><text class="cls-15" transform="translate(199.96 550.91)">2%</text><text class="cls-17" transform="translate(1.13 637.42)">Fuente:<tspan class="cls-18" x="50.87" y="0"> </tspan><tspan class="cls-19" x="54.21" y="0">Ajuntament de Barcelona</tspan></text><polygon class="cls-20" points="485.74 624.44 635.89 624.44 635.89 646.25 485.74 646.25 485.74 624.44 485.74 624.44"/><path class="cls-21" d="M611.19,642.87h-5.75v.72l1.51.36v10.63a1.26,1.26,0,0,1-1.06.53,2.26,2.26,0,0,1-1.87-1.37l-1.44-2.57A3,3,0,0,0,600,649.4v-.18a3.52,3.52,0,0,0,3.63-3.27c0-2.21-2-3.07-4.33-3.07H594v.72l1.7.36v10.76h0l-2,.38-4.89-13.34a6.1,6.1,0,0,1-1.76,1.51l.19.54-4.46,10.93-1.35.36v.72h4.06v-.72l-1.33-.35,1.51-4h4.14l1.46,4-1.56.38v.72h9.9v-.72l-1.67-.35v-5a2.44,2.44,0,0,1,2.21,1.62l2,3.5a3.18,3.18,0,0,0,2.84,1.73,2.81,2.81,0,0,0,1.86-.77h4.43a6.66,6.66,0,0,0,6.83-6.47c0-3.77-2.92-6.47-6.95-6.47Zm-25.12,6.88,1.75-4.59,1.68,4.59Zm12.82-1H598V644h1.11a2.18,2.18,0,0,1,2.26,2.31,2.51,2.51,0,0,1-2.49,2.52Zm12.17,6h-1.85V644h1.9c2.94,0,4.74,2,4.74,5.39s-1.88,5.39-4.79,5.39Z" transform="translate(-4.98 -14.34)"/><path class="cls-21" d="M516.75,654.74l-4.78-13a6.11,6.11,0,0,1-1.76,1.51l.19.54-4.46,10.93-1,.36-.29.72h4v-.72l-1.33-.35,1.51-4H513l1.45,4-1.56.38v.72h5.31v-.72l-1.42-.35Zm-7.59-5,1.75-4.59,1.68,4.59Z" transform="translate(-4.98 -14.34)"/><polygon class="cls-21" points="500.37 638.19 499.89 637.92 497.1 640.47 494.7 640.47 494.7 629.62 496.14 629.26 496.14 628.53 490.99 628.53 490.99 629.26 492.44 629.62 492.44 640.38 490.99 640.75 490.99 641.47 499.09 641.47 500.37 638.19 500.37 638.19"/><polygon class="cls-21" points="522.85 628.53 522.85 629.26 524.41 629.62 521.03 638.28 517.47 629.61 519.15 629.26 519.15 628.53 513.4 628.53 513.4 629.26 515.04 629.62 520.15 641.92 520.7 641.92 525.79 629.63 525.84 629.63 527.43 629.26 527.43 628.53 522.85 628.53 522.85 628.53"/><path class="cls-21" d="M578.86,642.87v.72l1.55.36s.12,6.41.06,8a3.27,3.27,0,0,1-3.48,3.16,3.22,3.22,0,0,1-3.48-3.32v-7.9l1.5-.34v-.72h-5.2v.72l1.48.35v8c.1,2.73,2.3,4.53,5.14,4.53s5-1.66,5.14-4.53l.1-7.94,1.52-.36v-.72Z" transform="translate(-4.98 -14.34)"/><path class="cls-21" d="M635.07,654.72l-4.76-13a6.12,6.12,0,0,1-1.76,1.51l.19.54-4.47,11-.76.31-1-.33V644l1.59-.36v-.72h-5.42v.72l1.56.37v10.77l-1.5.35v.72H627v-.72l-1.33-.35,1.51-4h4.14l1.45,4-1.56.38v.72h5.31v-.72l-1.44-.38Zm-7.57-5,1.75-4.59,1.69,4.59Z" transform="translate(-4.98 -14.34)"/><path class="cls-21" d="M551.06,642.87v.72l1.58.37.1,8.46-8.11-9.55h-3.46v.72l1.57.34.13.07-.12,10.7h0l-1.6.38-4.89-13.34a6.11,6.11,0,0,1-1.76,1.51l.19.54-4.46,10.93-1.35.36v.72h4.06v-.72l-1.33-.35,1.51-4h4.14l1.46,4-1.56.38v.72h8.51v-.72l-1.67-.37-.1-9.36,9.27,10.9h.61l.13-12.31,1.57-.36v-.72Zm-17.61,6.88,1.75-4.59,1.68,4.59Z" transform="translate(-4.98 -14.34)"/><path class="cls-21" d="M564.68,649.2v.72l1.46.37v4.17a4.84,4.84,0,0,1-2.92,1c-2.94,0-4.82-2.48-4.82-5.91s1.85-6.17,4.86-6.17a4.61,4.61,0,0,1,4.33,3.52l.42-.25v-4.09l-.37-.21-.79,1a8.18,8.18,0,0,0-3.58-.91,7.24,7.24,0,0,0-7.26,7.13,6.58,6.58,0,0,0,6.7,6.9,6.68,6.68,0,0,0,4.17-1.39l1.14.76h.37v-5.55l1.22-.46v-.6Z" transform="translate(-4.98 -14.34)"/><text class="cls-22" transform="translate(250.03 609.56)">Porcentaje del total de quejas</text></svg>