<svg id="Capa_1" data-name="Capa 1" xmlns="http://www.w3.org/2000/svg" viewBox="0 0 1379.02 764.17"><defs><style>.cls-1,.cls-2{fill:none;stroke-miterlimit:10;}.cls-1{stroke:#757575;}.cls-2{stroke:#000;}.cls-3{fill:#386f36;}.cls-10,.cls-3,.cls-4,.cls-5,.cls-6,.cls-7,.cls-8,.cls-9{opacity:0.85;}.cls-4{fill:#d57928;}.cls-5{fill:#f9f077;}.cls-6{fill:#991d26;}.cls-7{fill:#701538;}.cls-8{fill:#159094;}.cls-9{fill:#f27475;}.cls-10{fill:#1a1e4b;}.cls-11{font-size:17px;}.cls-11,.cls-15,.cls-21{fill:#353535;}.cls-11,.cls-13,.cls-18,.cls-20{font-family:ArialMT, Arial;}.cls-12{font-size:38px;font-family:Arial-BoldMT, Arial;font-weight:700;}.cls-12,.cls-13,.cls-20{fill:#323232;}.cls-13{font-size:31px;}.cls-14{letter-spacing:-0.06em;}.cls-15{font-size:20px;}.cls-15,.cls-21{font-family:ArialNarrow, Arial;}.cls-16{fill:#002f64;}.cls-17{fill:#fff;}.cls-18,.cls-20{font-size:18px;}.cls-18{fill:#757575;}.cls-19{letter-spacing:-0.06em;}.cls-21{font-size:22px;}</style></defs><title>quejas más demandadas</title><line class="cls-1" x1="541.23" y1="710.24" x2="541.23" y2="243.17"/><path class="cls-2" d="M309.26,588.94" transform="translate(231.97 -11.4)"/><path class="cls-2" d="M309.26,554.16" transform="translate(231.97 -11.4)"/><path class="cls-2" d="M309.26,519.38" transform="translate(231.97 -11.4)"/><path class="cls-2" d="M309.26,380.26" transform="translate(231.97 -11.4)"/><path class="cls-2" d="M309.26,345.48" transform="translate(231.97 -11.4)"/><path class="cls-2" d="M309.26,310.7" transform="translate(231.97 -11.4)"/><path class="cls-2" d="M309.26,275.92" transform="translate(231.97 -11.4)"/><polygon class="cls-3" points="541.23 243.17 1291.76 243.17 1291.76 274.21 541.23 275.21 541.23 243.17"/><rect class="cls-4" x="541.23" y="293.71" width="293.1" height="32.04"/><rect class="cls-5" x="541.23" y="340.25" width="261.36" height="31.04"/><rect class="cls-6" x="541.23" y="385.03" width="253.94" height="31.04"/><rect class="cls-7" x="541.23" y="433.29" width="210.41" height="32.04"/><rect class="cls-8" x="541.23" y="483.08" width="196.47" height="32.04"/><rect class="cls-9" x="541.23" y="531.99" width="186.74" height="32.04"/><rect class="cls-10" x="541.23" y="581.64" width="160.77" height="31.04"/><rect class="cls-7" x="541.23" y="631.42" width="149.48" height="31.04"/><rect class="cls-8" x="541.23" y="680.19" width="149.4" height="30.04"/><text class="cls-11" transform="translate(283.99 257.17)">Disconforme servicio de limpieza<tspan x="114.29" y="20.4">en calles y plazas</tspan></text><text class="cls-11" transform="translate(379.4 301.23)">Disciplina vial de los<tspan x="9.44" y="20.4">vehículos de motor</tspan></text><text class="cls-11" transform="translate(274.57 362.64)">Mantenimiento del espacio urbano</text><text class="cls-11" transform="translate(267.2 399.42)">Molestias de obras en la vía pública</text><text class="cls-11" transform="translate(342.53 443.82)">Molestias de perros en la<tspan x="28.32" y="20.4">vía público o parques</tspan></text><text class="cls-11" transform="translate(347.22 495.6)">Atención en la oficina de<tspan x="15.11" y="20.4" xml:space="preserve"> atención al ciudadano</tspan></text><text class="cls-11" transform="translate(314.33 553.03)">Centros de servicios sociales</text><text class="cls-11" transform="translate(256.52 599.8)">Devolución solicitada y no efectuada</text><text class="cls-11" transform="translate(325.55 642.94)">Concentración de personas<tspan x="96.38" y="20.4">haciendo ruido</tspan></text><text class="cls-11" transform="translate(308.52 709.58)">Incidencias en el teléfono 010</text><rect class="cls-3" x="248.47" y="131.1" width="19" height="19"/><rect class="cls-4" x="411.07" y="136.1" width="19" height="19"/><rect class="cls-9" x="1090.54" y="137.1" width="19" height="19"/><rect class="cls-8" x="680.06" y="137.1" width="19" height="19"/><rect class="cls-10" x="818.98" y="137.1" width="19" height="19"/><rect class="cls-6" x="939.47" y="137.1" width="19" height="19"/><text class="cls-12" transform="translate(237.97 32.6)">Las quejas más demandadas, por áreas</text><text x="231.97" y="-11.4"></text><text class="cls-13" transform="translate(239.97 67.6)">Los reclamos más frecuentes presentados en el<tspan class="cls-14" x="659.96" y="0"> </tspan><tspan x="666.86" y="0">Ajuntament de Barcelona </tspan></text><text class="cls-15" transform="translate(274.97 149.6)">Recogida y <tspan x="0" y="24">limpieza de </tspan><tspan x="0" y="48">espacios públicos</tspan></text><text class="cls-15" transform="translate(436.48 149.6)">Movilidad</text><rect class="cls-7" x="1197.54" y="137.1" width="19" height="19"/><text class="cls-15" transform="translate(1224.54 150.6)">Prevención<tspan x="0" y="24">y seguridad</tspan></text><text class="cls-15" transform="translate(706.48 151.1)">Información,<tspan x="0" y="24">trámites y </tspan><tspan x="0" y="48">atención al </tspan><tspan x="0" y="72">ciudadano</tspan></text><text class="cls-15" transform="translate(845.47 150.6)">Hacienda</text><text class="cls-15" transform="translate(965.47 150.6)">Urbanismo,<tspan x="0" y="24">obras y vivienda</tspan></text><text class="cls-15" transform="translate(1116.03 150.6)">Servicios <tspan x="0" y="24">sociales</tspan></text><rect class="cls-5" x="525.79" y="136.1" width="19" height="19"/><text class="cls-15" transform="translate(552.35 149.6)">Mantenimiento <tspan x="0" y="24">del espacio</tspan><tspan x="0" y="48">público</tspan></text><polygon class="cls-16" points="1171.82 732.69 1379.02 732.69 1379.02 764.16 1171.82 764.16 1171.82 732.69 1171.82 732.69"/><path class="cls-17" d="M1106.08,751.12h-7.94v1l2.09.49v14.66a1.74,1.74,0,0,1-1.46.74,3.12,3.12,0,0,1-2.58-1.89l-2-3.55a4.11,4.11,0,0,0-3.63-2.44v-.24c2.66-.07,5-2,5-4.52,0-3-2.77-4.24-6-4.24h-7.21v1l2.35.49v14.85h0L1082,768l-6.75-18.41a8.48,8.48,0,0,1-2.43,2.08l.26.74L1067,767.47l-1.86.5v1h5.6v-1l-1.83-.48,2.08-5.49h5.71l2,5.46-2.15.52v1h13.67v-1l-2.3-.49v-6.91c1.55.1,2.29.81,3,2.24l2.71,4.83a4.38,4.38,0,0,0,3.92,2.38,3.87,3.87,0,0,0,2.57-1.06h6.12a9.19,9.19,0,0,0,9.43-8.93c0-5.21-4-8.93-9.59-8.93Zm-34.67,9.49,2.42-6.34,2.32,6.34Zm17.69-1.34h-1.22V752.6h1.53a3,3,0,0,1,3.12,3.19,3.46,3.46,0,0,1-3.43,3.47Zm16.8,8.23h-2.55V752.61H1106c4.05,0,6.54,2.8,6.54,7.44s-2.59,7.44-6.61,7.44Z" transform="translate(231.97 -11.4)"/><path class="cls-17" d="M975.76,767.49l-6.6-17.93a8.45,8.45,0,0,1-2.43,2.08l.26.74-6.16,15.08-1.31.5-.39,1h5.45v-1l-1.84-.48,2.08-5.49h5.71l2,5.46-2.15.52v1h7.33v-1l-2-.48Zm-10.48-6.88,2.42-6.34,2.32,6.34Z" transform="translate(231.97 -11.4)"/><polygon class="cls-17" points="1192.01 753.04 1191.35 752.67 1187.49 756.19 1184.19 756.19 1184.19 741.22 1186.17 740.71 1186.17 739.72 1179.06 739.72 1179.06 740.71 1181.06 741.22 1181.06 756.07 1179.06 756.58 1179.06 757.57 1190.24 757.57 1192.01 753.04 1192.01 753.04"/><polygon class="cls-17" points="1223.03 739.72 1223.03 740.71 1225.18 741.21 1220.51 753.16 1215.6 741.19 1217.92 740.71 1217.92 739.72 1209.99 739.72 1209.99 740.71 1212.25 741.21 1219.3 758.19 1220.06 758.19 1227.09 741.23 1227.15 741.23 1229.34 740.71 1229.34 739.72 1223.03 739.72 1223.03 739.72"/><path class="cls-17" d="M1061.46,751.12v1l2.13.5s.16,8.85.08,11.09a4.51,4.51,0,0,1-4.81,4.36,4.44,4.44,0,0,1-4.81-4.59v-10.9l2.07-.47v-1H1049v1l2,.48v11c.14,3.77,3.18,6.25,7.1,6.25s7-2.29,7.1-6.25l.14-11,2.09-.5v-1Z" transform="translate(231.97 -11.4)"/><path class="cls-17" d="M1139,767.46l-6.57-17.89a8.46,8.46,0,0,1-2.43,2.08l.26.74-6.17,15.16-1.05.43-1.42-.45V752.61l2.19-.5v-1h-7.47v1l2.16.51v14.87l-2.07.49v1h11.43v-1l-1.84-.48,2.09-5.49h5.72l2,5.46-2.15.52v1H1141v-1l-2-.52Zm-10.45-6.85,2.42-6.34,2.33,6.34Z" transform="translate(231.97 -11.4)"/><path class="cls-17" d="M1023.1,751.12v1l2.18.51.13,11.68-11.19-13.18h-4.78v1l2.16.48.18.09-.16,14.77h0l-2.2.52-6.75-18.41a8.48,8.48,0,0,1-2.43,2.08l.25.74-6.16,15.08-1.86.5v1h5.6v-1l-1.83-.48,2.08-5.49H1004l2,5.46-2.15.52v1h11.74v-1l-2.3-.5-.14-12.92,12.79,15h.85l.17-17,2.17-.5v-1Zm-24.31,9.49,2.42-6.34,2.32,6.34Z" transform="translate(231.97 -11.4)"/><path class="cls-17" d="M1041.89,759.84v1l2,.51v5.75a6.69,6.69,0,0,1-4,1.34c-4.06,0-6.65-3.42-6.65-8.15s2.55-8.52,6.71-8.52a6.36,6.36,0,0,1,6,4.86l.58-.34v-5.64l-.51-.29-1.08,1.37a11.28,11.28,0,0,0-4.94-1.26,10,10,0,0,0-10,9.84c0,5.56,3.93,9.52,9.25,9.52a9.21,9.21,0,0,0,5.76-1.92l1.58,1h.51V761.3l1.69-.64v-.82Z" transform="translate(231.97 -11.4)"/><text class="cls-18" transform="translate(246.98 757.19)">Fuente:<tspan class="cls-19" x="61.04" y="0"> </tspan><tspan x="65.05" y="0">Ajuntament de Barcelona</tspan></text><text class="cls-20" transform="translate(1298.93 263.19)">9.103</text><text class="cls-20" transform="translate(842.48 314.1)">3.555</text><text class="cls-20" transform="translate(812 360.64)">3.170</text><text class="cls-20" transform="translate(802.59 403.43)">3.080</text><text class="cls-20" transform="translate(760.43 452.68)">2.552</text><text class="cls-20" transform="translate(748.64 505.25)">2.383</text><text class="cls-20" transform="translate(702.01 653.94)">1.813</text><text class="cls-20" transform="translate(735.71 551.03)">2.265</text><text class="cls-20" transform="translate(711.13 603.16)">1.950</text><text class="cls-20" transform="translate(702.01 701.59)">1.812</text><text class="cls-21" transform="translate(246.47 118.7)">ÁREAS</text></svg>