<svg id="Capa_1" data-name="Capa 1" xmlns="http://www.w3.org/2000/svg" viewBox="0 0 616 356.98"><defs><style>.cls-1{fill:#005b81;}.cls-1,.cls-2,.cls-3,.cls-4{stroke:#fff;}.cls-1,.cls-18,.cls-2,.cls-3,.cls-4{stroke-miterlimit:10;}.cls-2{fill:#ad0733;}.cls-3{fill:#e39000;}.cls-4{fill:#e1e1e1;}.cls-5{font-size:15px;}.cls-13,.cls-17,.cls-5{fill:#757575;}.cls-13,.cls-17,.cls-5,.cls-7,.cls-8{font-family:ArialMT, Arial;}.cls-6{letter-spacing:-0.07em;}.cls-13,.cls-7,.cls-8{font-size:18px;}.cls-16,.cls-7{fill:#fff;}.cls-14,.cls-8{fill:#323232;}.cls-9{font-size:13px;}.cls-10{letter-spacing:-0.06em;}.cls-11{letter-spacing:-0.04em;}.cls-12{letter-spacing:-0.02em;}.cls-14{font-size:24px;font-family:Arial-BoldMT, Arial;font-weight:700;}.cls-15{fill:#283659;}.cls-17{isolation:isolate;font-size:14px;}.cls-18{fill:none;stroke:#757575;}</style></defs><title>REFERNDUMPOBLACION5</title><rect class="cls-1" x="6.21" y="40.41" width="21.79" height="22.56"/><rect class="cls-2" x="70.21" y="40.41" width="21.79" height="22.56"/><rect class="cls-3" x="151.21" y="39.41" width="21.79" height="22.56"/><rect class="cls-4" x="285.21" y="40.41" width="21.79" height="22.56"/><rect class="cls-1" x="330" y="237.05" width="260" height="66.36"/><rect class="cls-1" x="148.21" y="129.64" width="442.29" height="60.77"/><rect class="cls-3" x="207.04" y="237.05" width="123.44" height="66.36"/><rect class="cls-4" x="77.85" y="237.05" width="128.15" height="66.36"/><rect class="cls-4" x="12.99" y="129.64" width="135.21" height="60.77"/><rect class="cls-2" x="4.4" y="237.05" width="73.6" height="66.36"/><rect class="cls-2" x="6.21" y="129.64" width="6.79" height="60.77"/><text class="cls-5" transform="translate(364 121.15)">PORCEN<tspan class="cls-6" x="64.17" y="0">T</tspan><tspan x="72.22" y="0">AJE DE MUNICIPIOS</tspan></text><text class="cls-7" transform="translate(155 151.29)">74%</text><text class="cls-7" transform="translate(9 258.29)">12%</text><text class="cls-8" transform="translate(21 151.29)">25%</text><text class="cls-8" transform="translate(9 106.29)">1%</text><text class="cls-8" transform="translate(81 258.29)">22%</text><text class="cls-7" transform="translate(338 258.29)">44%</text><text class="cls-7" transform="translate(214 258.29)">21%<tspan class="cls-9"><tspan x="0" y="15.6">BARCELON</tspan><tspan class="cls-10" x="71.52" y="15.6">A</tspan></tspan></text><text class="cls-5" transform="translate(264 228.15)">PORCEN<tspan class="cls-6" x="64.17" y="0">T</tspan><tspan x="72.22" y="0">AJE DE</tspan><tspan class="cls-11" x="124.74" y="0">L</tspan><tspan x="132.52" y="0" xml:space="preserve"> CENSO ELEC</tspan><tspan class="cls-12" x="233.39" y="0">T</tspan><tspan x="242.28" y="0">ORA</tspan><tspan class="cls-11" x="274.78" y="0">L</tspan></text><text class="cls-13" transform="translate(31 57.29)">Sí</text><text class="cls-13" transform="translate(97 57.29)">No</text><text class="cls-13" transform="translate(177 56.29)">Por definir</text><text class="cls-13" transform="translate(317 57.29)">No se ha pronunciado</text><text class="cls-14" transform="translate(0 20.59)">Posición de los municipios sobre el referéndum 1-O</text><polygon class="cls-15" points="463.26 336.07 591.26 336.07 591.26 355.52 463.26 355.52 463.26 336.07 463.26 336.07"/><path class="cls-16" d="M571.94,352H567v.61l1.29.31v9a1.07,1.07,0,0,1-.9.46,1.92,1.92,0,0,1-1.59-1.17l-1.22-2.19a2.54,2.54,0,0,0-2.24-1.51v-.15a3,3,0,0,0,3.1-2.78c0-1.89-1.71-2.62-3.69-2.62h-4.45v.61l1.45.31v9.18h0l-1.67.32-4.17-11.37a5.24,5.24,0,0,1-1.5,1.29l.16.46-3.81,9.32-1.15.31V363h3.48v-.61l-1.13-.29,1.29-3.39h3.53l1.24,3.37-1.33.32V363h8.45v-.61l-1.39-.3v-4.27a2.09,2.09,0,0,1,1.88,1.39l1.67,3a2.71,2.71,0,0,0,2.42,1.47,2.39,2.39,0,0,0,1.59-.65h3.78a5.68,5.68,0,0,0,5.82-5.52c0-3.21-2.49-5.52-5.93-5.52Zm-21.41,5.86L552,354l1.43,3.92Zm10.92-.83h-.75v-4.11h.94a1.86,1.86,0,0,1,1.93,2,2.14,2.14,0,0,1-2.09,2.15Zm10.38,5.09h-1.57v-9.2h1.61c2.5,0,4,1.73,4,4.6s-1.6,4.6-4.08,4.6Z" transform="translate(-6 -11.59)"/><path class="cls-16" d="M491.44,362.13l-4.08-11.08a5.23,5.23,0,0,1-1.5,1.29l.16.46-3.78,9.32-.81.31-.24.61h3.37v-.61l-1.13-.29,1.29-3.39h3.53l1.24,3.37-1.33.32V363h4.54v-.61l-1.21-.3ZM485,357.87l1.5-3.92,1.43,3.92Z" transform="translate(-6 -11.59)"/><polygon class="cls-16" points="475.73 348.65 475.31 348.42 472.94 350.59 470.9 350.59 470.9 341.34 472.12 341.03 472.12 340.41 467.73 340.41 467.73 341.03 468.96 341.34 468.96 350.51 467.73 350.83 467.73 351.44 474.63 351.44 475.73 348.65 475.73 348.65"/><polygon class="cls-16" points="494.89 340.41 494.89 341.03 496.22 341.34 493.33 348.72 490.3 341.33 491.73 341.03 491.73 340.41 486.83 340.41 486.83 341.03 488.23 341.33 492.59 351.83 493.06 351.83 497.4 341.35 497.43 341.35 498.79 341.03 498.79 340.41 494.89 340.41 494.89 340.41"/><path class="cls-16" d="M544.38,352v.61l1.32.31s.1,5.47,0,6.85a2.78,2.78,0,0,1-2.84,2.72h-.14a2.74,2.74,0,0,1-3-2.83v-6.73l1.28-.29V352h-4.43v.61l1.26.3v6.78a4.07,4.07,0,0,0,4.38,3.86c2.42,0,4.3-1.39,4.38-3.86l.08-6.77,1.29-.31V352Z" transform="translate(-6 -11.59)"/><path class="cls-16" d="M592.31,362.1l-4.06-11a5.23,5.23,0,0,1-1.5,1.29l.16.46-3.79,9.36-.65.26-.88-.28v-9.22l1.35-.31V352h-4.62v.61l1.34.31v9.18l-1.28.3V363h7v-.61l-1.13-.3,1.29-3.39h3.53l1.24,3.37-1.33.32V363h4.55v-.61l-1.22-.32Zm-6.46-4.23,1.5-3.92,1.43,3.92Z" transform="translate(-6 -11.59)"/><path class="cls-16" d="M520.69,352v.61l1.35.31.08,7.21L515.21,352h-2.95v.61l1.34.29.11.06-.1,9.13h0l-1.39.32L508,351a5.24,5.24,0,0,1-1.45,1.29l.16.46-3.81,9.32-1.15.31V363h3.48v-.61l-1.13-.29,1.29-3.39H509l1.24,3.37-1.33.32V363h7.26v-.61l-1.39-.31-.16-8,7.9,9.29H523l.1-10.49,1.34-.31V352Zm-15,5.86,1.5-3.92,1.43,3.92Z" transform="translate(-6 -11.59)"/><path class="cls-16" d="M532.33,357.4V358l1.25.31v3.55a4.13,4.13,0,0,1-2.49.83c-2.5,0-4.11-2.09-4.11-5s1.57-5.26,4.17-5.26a3.93,3.93,0,0,1,3.69,3l.35-.21v-3.48l-.32-.17-.7.85a7,7,0,0,0-3.05-.78,6.18,6.18,0,0,0-6.19,6.08,5.61,5.61,0,0,0,5.32,5.88h.4a5.7,5.7,0,0,0,3.55-1.18l1,.65h.31v-4.74l1-.4v-.51Z" transform="translate(-6 -11.59)"/><text class="cls-17" transform="translate(4 352.44)">Fuente:<tspan class="cls-10" x="47.48" y="0"> </tspan><tspan x="50.59" y="0">Associació de Municipis per la Independència y Censo del INE</tspan></text><line class="cls-18" x1="8.5" y1="109.91" x2="8.5" y2="129.91"/><line class="cls-18" x1="43" y1="109.91" x2="8" y2="109.91"/></svg>