<svg id="Capa_1" data-name="Capa 1" xmlns="http://www.w3.org/2000/svg" viewBox="0 0 569.3 561.72"><defs><style>.cls-1{font-size:16px;}.cls-1,.cls-10,.cls-11,.cls-2{fill:#757575;}.cls-1,.cls-10,.cls-11,.cls-17,.cls-6{font-family:ArialMT, Arial;}.cls-2,.cls-3{stroke:#757575;}.cls-2,.cls-3,.cls-4,.cls-5{stroke-miterlimit:10;}.cls-3,.cls-5{fill:none;}.cls-4{fill:#701538;stroke:#fff;stroke-width:0.5px;}.cls-5{stroke:#c993ac;stroke-width:2px;}.cls-10,.cls-6{font-size:17px;}.cls-15,.cls-6{fill:#fff;}.cls-7{letter-spacing:-0.11em;}.cls-8{letter-spacing:-0.07em;}.cls-9{letter-spacing:-0.06em;}.cls-11{isolation:isolate;font-size:14px;}.cls-12{letter-spacing:-0.02em;}.cls-13{letter-spacing:-0.04em;}.cls-14{fill:#283659;}.cls-16{font-size:25px;font-family:Arial-BoldMT, Arial;font-weight:700;}.cls-16,.cls-17{fill:#323232;}.cls-17{font-size:18px;}</style></defs><title>rentamedia</title><text class="cls-1" transform="translate(7.3 527.9)">0</text><text class="cls-1" transform="translate(53.84 527.9)">10.000</text><text class="cls-1" transform="translate(120.41 527.9)">20.000</text><text class="cls-1" transform="translate(186.97 527.9)">30.000</text><text class="cls-1" transform="translate(253.53 527.9)">40.000</text><text class="cls-1" transform="translate(320.09 527.9)">50.000</text><text class="cls-1" transform="translate(386.66 527.9)">60.000</text><text class="cls-1" transform="translate(453.22 527.9)">70.000</text><text class="cls-1" transform="translate(519.78 527.9)">80.000</text><line class="cls-2" x1="10.75" y1="502.3" x2="543.25" y2="502.3"/><line class="cls-2" x1="10.75" y1="513.3" x2="10.75" y2="502.29"/><line class="cls-2" x1="77.31" y1="513.3" x2="77.31" y2="502.29"/><line class="cls-2" x1="143.88" y1="513.3" x2="143.88" y2="502.29"/><line class="cls-2" x1="210.44" y1="513.3" x2="210.44" y2="502.29"/><line class="cls-2" x1="277" y1="513.3" x2="277" y2="502.29"/><line class="cls-2" x1="343.56" y1="513.3" x2="343.56" y2="502.29"/><line class="cls-2" x1="410.13" y1="513.3" x2="410.13" y2="502.29"/><line class="cls-2" x1="476.69" y1="513.3" x2="476.69" y2="502.29"/><line class="cls-2" x1="543.25" y1="513.3" x2="543.25" y2="502.29"/><line class="cls-3" x1="10.75" y1="502.3" x2="10.75" y2="61.8"/><path class="cls-3" d="M29.06,483.23" transform="translate(-5 -2.95)"/><path class="cls-3" d="M15.75,483.23" transform="translate(-5 -2.95)"/><path class="cls-3" d="M29.06,439.18" transform="translate(-5 -2.95)"/><path class="cls-3" d="M15.75,439.18" transform="translate(-5 -2.95)"/><path class="cls-3" d="M29.06,395.13" transform="translate(-5 -2.95)"/><path class="cls-3" d="M15.75,395.13" transform="translate(-5 -2.95)"/><path class="cls-3" d="M29.06,351.08" transform="translate(-5 -2.95)"/><path class="cls-3" d="M15.75,351.08" transform="translate(-5 -2.95)"/><path class="cls-3" d="M29.06,307" transform="translate(-5 -2.95)"/><path class="cls-3" d="M15.75,307" transform="translate(-5 -2.95)"/><path class="cls-3" d="M29.06,263" transform="translate(-5 -2.95)"/><path class="cls-3" d="M15.75,263" transform="translate(-5 -2.95)"/><path class="cls-3" d="M29.06,218.93" transform="translate(-5 -2.95)"/><path class="cls-3" d="M15.75,218.93" transform="translate(-5 -2.95)"/><path class="cls-3" d="M29.06,174.88" transform="translate(-5 -2.95)"/><path class="cls-3" d="M15.75,174.88" transform="translate(-5 -2.95)"/><path class="cls-3" d="M29.06,130.82" transform="translate(-5 -2.95)"/><path class="cls-3" d="M15.75,130.82" transform="translate(-5 -2.95)"/><path class="cls-3" d="M29.06,86.78" transform="translate(-5 -2.95)"/><path class="cls-3" d="M15.75,86.78" transform="translate(-5 -2.95)"/><rect class="cls-4" x="11.75" y="67.97" width="460.19" height="31.72"/><rect class="cls-4" x="11.75" y="112.02" width="451.33" height="31.72"/><rect class="cls-4" x="11.75" y="156.07" width="351.25" height="31.72"/><rect class="cls-4" x="11.75" y="200.12" width="344.61" height="31.72"/><rect class="cls-4" x="11.75" y="244.17" width="339.85" height="31.72"/><rect class="cls-4" x="11.75" y="288.22" width="339.26" height="31.72"/><rect class="cls-4" x="11.75" y="332.27" width="334.4" height="31.72"/><rect class="cls-4" x="11.75" y="376.32" width="325.77" height="31.72"/><rect class="cls-4" x="11.75" y="420.37" width="323.47" height="31.72"/><rect class="cls-4" x="11.75" y="464.42" width="319.27" height="31.72"/><line class="cls-5" x1="180.75" y1="502.3" x2="180.75" y2="46.05"/><path class="cls-5" d="M199.06,482.44" transform="translate(-5 -2.95)"/><path class="cls-5" d="M185.75,482.44" transform="translate(-5 -2.95)"/><path class="cls-5" d="M199.06,436.81" transform="translate(-5 -2.95)"/><path class="cls-5" d="M185.75,436.81" transform="translate(-5 -2.95)"/><path class="cls-5" d="M199.06,391.19" transform="translate(-5 -2.95)"/><path class="cls-5" d="M185.75,391.19" transform="translate(-5 -2.95)"/><path class="cls-5" d="M199.06,345.56" transform="translate(-5 -2.95)"/><path class="cls-5" d="M185.75,345.56" transform="translate(-5 -2.95)"/><path class="cls-5" d="M199.06,299.94" transform="translate(-5 -2.95)"/><path class="cls-5" d="M185.75,299.94" transform="translate(-5 -2.95)"/><path class="cls-5" d="M199.06,254.31" transform="translate(-5 -2.95)"/><path class="cls-5" d="M185.75,254.31" transform="translate(-5 -2.95)"/><path class="cls-5" d="M199.06,208.69" transform="translate(-5 -2.95)"/><path class="cls-5" d="M185.75,208.69" transform="translate(-5 -2.95)"/><path class="cls-5" d="M199.06,163.06" transform="translate(-5 -2.95)"/><path class="cls-5" d="M185.75,163.06" transform="translate(-5 -2.95)"/><path class="cls-5" d="M199.06,117.44" transform="translate(-5 -2.95)"/><path class="cls-5" d="M185.75,117.44" transform="translate(-5 -2.95)"/><path class="cls-5" d="M199.06,71.81" transform="translate(-5 -2.95)"/><path class="cls-5" d="M185.75,71.81" transform="translate(-5 -2.95)"/><text class="cls-6" transform="translate(14.43 486.63)"><tspan class="cls-7">T</tspan><tspan x="8.5" y="0">orrelodones</tspan></text><text class="cls-6" transform="translate(14.43 442.58)">Alcobendas</text><text class="cls-6" transform="translate(14.43 398.53)">Sant Cugat del <tspan class="cls-8" x="117.19" y="0">V</tspan><tspan x="127.27" y="0">allès</tspan></text><text class="cls-6" transform="translate(14.43 354.48)">Sant Just Desvern</text><text class="cls-6" transform="translate(14.43 310.43)">Las Rozas de Madrid</text><text class="cls-6" transform="translate(14.43 266.38)">Matadepera</text><text class="cls-6" transform="translate(14.43 222.33)">Majadahonda</text><text class="cls-6" transform="translate(14.43 178.28)">Boadilla del Monte</text><text class="cls-6" transform="translate(14.43 134.23)">Sant Fruitós de Bages</text><text class="cls-6" transform="translate(14.43 90.18)">Pozuelo de<tspan class="cls-9" x="85.07" y="0"> </tspan><tspan x="88.85" y="0">Alarcón</tspan></text><text class="cls-10" transform="translate(184.43 62.18)">Media Española: 25.582</text><text class="cls-11" transform="translate(11 557.18)">Fuente:<tspan class="cls-9" x="47.48" y="0"> </tspan><tspan x="50.59" y="0">Agencia</tspan><tspan class="cls-12" x="101.19" y="0"> </tspan><tspan class="cls-13" x="104.82" y="0">T</tspan><tspan x="112.85" y="0">ributaria</tspan></text><polygon class="cls-14" points="441.3 542.12 569.3 542.12 569.3 561.57 441.3 561.57 441.3 542.12 441.3 542.12"/><path class="cls-15" d="M549,549.42h-4.9V550l1.29.31v9a1.07,1.07,0,0,1-.9.46,1.92,1.92,0,0,1-1.59-1.17l-1.22-2.19a2.54,2.54,0,0,0-2.24-1.51v-.15a3,3,0,0,0,3.1-2.78c0-1.89-1.71-2.62-3.69-2.62h-4.45V550l1.45.31v9.18h0l-1.67.32L530,548.43a5.24,5.24,0,0,1-1.5,1.29l.16.46-3.81,9.32-1.15.31v.61h3.47v-.61l-1.13-.29,1.29-3.39h3.53l1.24,3.37-1.33.32v.61h8.4v-.61l-1.39-.3v-4.25a2.09,2.09,0,0,1,1.88,1.39l1.67,3a2.71,2.71,0,0,0,2.42,1.47,2.39,2.39,0,0,0,1.59-.65h3.83A5.68,5.68,0,0,0,555,555c0-3.21-2.49-5.52-5.93-5.52Zm-21.41,5.86,1.49-3.92,1.43,3.92Zm10.92-.83h-.75v-4.08h.94a1.86,1.86,0,0,1,1.93,2,2.14,2.14,0,0,1-2.09,2.15Zm10.38,5.09H547.3v-9.17h1.61c2.5,0,4,1.73,4,4.6s-1.6,4.6-4.08,4.6Z" transform="translate(-5 -2.95)"/><path class="cls-15" d="M468.48,559.54l-4.08-11.08a5.23,5.23,0,0,1-1.5,1.29l.16.46-3.78,9.32-.81.31-.24.61h3.37v-.61l-1.13-.29,1.29-3.39h3.53l1.24,3.37-1.33.32v.61h4.54v-.61l-1.21-.3ZM462,555.29l1.5-3.92,1.43,3.92Z" transform="translate(-5 -2.95)"/><polygon class="cls-15" points="453.76 554.7 453.35 554.47 450.97 556.63 448.93 556.63 448.93 547.38 450.16 547.08 450.16 546.46 445.77 546.46 445.77 547.08 447 547.38 447 556.55 445.77 556.88 445.77 557.49 452.67 557.49 453.76 554.7 453.76 554.7"/><polygon class="cls-15" points="472.93 546.46 472.93 547.08 474.26 547.38 471.37 554.76 468.34 547.38 469.77 547.08 469.77 546.46 464.87 546.46 464.87 547.08 466.27 547.38 470.63 557.88 471.09 557.88 475.43 547.39 475.47 547.39 476.82 547.08 476.82 546.46 472.93 546.46 472.93 546.46"/><path class="cls-15" d="M521.41,549.42V550l1.32.31s.1,5.47,0,6.85a2.78,2.78,0,0,1-2.84,2.72h-.14a2.74,2.74,0,0,1-3-2.83v-6.71l1.28-.29v-.61H513.6v.61l1.26.3v6.78a4.07,4.07,0,0,0,4.26,3.87h.12c2.42,0,4.3-1.39,4.38-3.86l.08-6.77,1.29-.31v-.61Z" transform="translate(-5 -2.95)"/><path class="cls-15" d="M569.34,559.52l-4.06-11a5.23,5.23,0,0,1-1.5,1.29l.16.46-3.78,9.3-.65.26-.88-.28v-9.18l1.35-.31v-.61h-4.62v.61l1.34.31v9.18l-1.28.3v.61h7v-.61l-1.13-.3,1.29-3.39h3.58l1.24,3.37-1.33.32v.61h4.55v-.61l-1.22-.32Zm-6.46-4.23,1.5-3.92,1.43,3.92Z" transform="translate(-5 -2.95)"/><path class="cls-15" d="M497.72,549.42V550l1.35.31.08,7.21-6.91-8.18h-3V550l1.34.29.11.06-.1,9.13h0l-1.39.32-4.17-11.37a5.24,5.24,0,0,1-1.45,1.29l.16.46L480,559.48l-1.15.31v.61h3.48v-.61l-1.13-.29,1.29-3.39H486l1.24,3.37-1.33.32v.61h7.25v-.61l-1.39-.31-.16-8,7.9,9.29H500l.13-10.41,1.34-.31v-.61Zm-15,5.86,1.44-3.91,1.43,3.92Z" transform="translate(-5 -2.95)"/><path class="cls-15" d="M509.36,554.81v.61l1.25.31v3.55a4.13,4.13,0,0,1-2.49.83c-2.5,0-4.11-2.09-4.11-5s1.57-5.26,4.17-5.26a3.93,3.93,0,0,1,3.69,3l.35-.21v-3.48l-.32-.17-.7.85a7,7,0,0,0-3-.78,6.18,6.18,0,0,0-6.19,6.08,5.61,5.61,0,0,0,5.32,5.88h.4a5.7,5.7,0,0,0,3.55-1.18l1,.65h.31v-4.74l1-.4v-.51Z" transform="translate(-5 -2.95)"/><text class="cls-16" transform="translate(52.5 21.45)">Municipios con mayor renta de España</text><text class="cls-17" transform="translate(93.38 37.44)">De las localidades con más de 1.000 habitantes</text></svg>