<svg xmlns="http://www.w3.org/2000/svg" viewBox="0 0 855 798"><defs><style>.\32 8d04008-6fe5-49b2-82fa-d6274c9a91ce{font-size:24px;}.\30 9364194-76c1-48fa-9c94-65bab1aae25d,.\32 8d04008-6fe5-49b2-82fa-d6274c9a91ce,.\33 545a7e9-5488-421f-8c60-b1e1f4e67ec1,.\39 c12bbaf-15d8-4362-a15a-4365e491b824,.ae64b1a9-9896-49d9-855f-d52b2cd0a699{fill:#757575;}.\32 8d04008-6fe5-49b2-82fa-d6274c9a91ce,.\34 09b464d-5bb2-43bf-9bf7-48a32d2178fc,.ae64b1a9-9896-49d9-855f-d52b2cd0a699{font-family:ArialMT, Arial;}.\30 9ad1524-db01-4a98-b711-8d27d72ca350,.\35 f3083c0-6a9a-4886-b47b-ad7425629848,.\37 829b9b7-0e22-4559-ab4c-a0475bdedbb6,.\39 6f3e4af-b048-45b0-9050-467476876a19{fill:none;stroke:#757575;}.\30 9ad1524-db01-4a98-b711-8d27d72ca350,.\35 f3083c0-6a9a-4886-b47b-ad7425629848,.\37 829b9b7-0e22-4559-ab4c-a0475bdedbb6,.\39 6f3e4af-b048-45b0-9050-467476876a19,.d626c064-30de-4d5e-8f2f-4da9f16a36db,.fd9e5911-2db1-4c9a-b923-ea65b2d8c275{stroke-miterlimit:10;}.\39 6f3e4af-b048-45b0-9050-467476876a19{stroke-dasharray:4.89 4.89;}.\30 9ad1524-db01-4a98-b711-8d27d72ca350{stroke-dasharray:4.91 4.91;}.\35 f3083c0-6a9a-4886-b47b-ad7425629848{stroke-dasharray:4.99 4.99;}.\39 c12bbaf-15d8-4362-a15a-4365e491b824{fill-opacity:0.3;}.fd9e5911-2db1-4c9a-b923-ea65b2d8c275{fill:#5cbc7c;}.d626c064-30de-4d5e-8f2f-4da9f16a36db,.fd9e5911-2db1-4c9a-b923-ea65b2d8c275{stroke:#fff;stroke-width:0.75px;}.\34 09b464d-5bb2-43bf-9bf7-48a32d2178fc{font-size:23px;}.fb00c869-db58-4cec-ac07-8f66fd9cf577{font-size:42px;fill:#323232;}.\30 9364194-76c1-48fa-9c94-65bab1aae25d,.\33 545a7e9-5488-421f-8c60-b1e1f4e67ec1,.fb00c869-db58-4cec-ac07-8f66fd9cf577{font-family:Arial-BoldMT, Arial;font-weight:700;}.d9e147e9-806f-4cb1-a13e-b2c83378b644{letter-spacing:-0.04em;}.\33 545a7e9-5488-421f-8c60-b1e1f4e67ec1{font-size:32px;}.\30 9364194-76c1-48fa-9c94-65bab1aae25d{font-size:28px;}.ae64b1a9-9896-49d9-855f-d52b2cd0a699{font-size:20px;}.d0f783cf-9ba7-43ca-b127-a54484d0beb4{letter-spacing:-0.02em;}.\37 0e9b9a1-7e2c-4a48-9a61-dbad28c8ab5b{letter-spacing:-0.06em;}.\39 ad87570-000f-4e4d-9247-8d634a91c5b0{letter-spacing:-0.07em;}.d626c064-30de-4d5e-8f2f-4da9f16a36db{fill:#e21005;}</style></defs><title>rusiarabiasaudi</title><g id="74480c12-8716-45a0-bd02-2341251baa94" data-name="Capa 1"><text class="28d04008-6fe5-49b2-82fa-d6274c9a91ce" transform="translate(525.07 584.56)">16 millones</text><text class="28d04008-6fe5-49b2-82fa-d6274c9a91ce" transform="translate(525.07 636.56)">10 millones</text><text class="28d04008-6fe5-49b2-82fa-d6274c9a91ce" transform="translate(528.07 703.56)">1 millón</text><line class="7829b9b7-0e22-4559-ab4c-a0475bdedbb6" x1="744" y1="713.5" x2="741.5" y2="713.5"/><line class="96f3e4af-b048-45b0-9050-467476876a19" x1="736.61" y1="713.5" x2="543.45" y2="713.5"/><line class="7829b9b7-0e22-4559-ab4c-a0475bdedbb6" x1="541" y1="713.5" x2="538.5" y2="713.5"/><line class="7829b9b7-0e22-4559-ab4c-a0475bdedbb6" x1="737" y1="643.5" x2="734.5" y2="643.5"/><line class="09ad1524-db01-4a98-b711-8d27d72ca350" x1="729.59" y1="643.5" x2="535.46" y2="643.5"/><line class="7829b9b7-0e22-4559-ab4c-a0475bdedbb6" x1="533" y1="643.5" x2="530.5" y2="643.5"/><line class="7829b9b7-0e22-4559-ab4c-a0475bdedbb6" x1="750" y1="589.5" x2="747.5" y2="589.5"/><line class="5f3083c0-6a9a-4886-b47b-ad7425629848" x1="742.51" y1="589.5" x2="535.49" y2="589.5"/><line class="7829b9b7-0e22-4559-ab4c-a0475bdedbb6" x1="533" y1="589.5" x2="530.5" y2="589.5"/><path class="9c12bbaf-15d8-4362-a15a-4365e491b824" d="M832.58,673.09a84.09,84.09,0,0,1-86.12,84.06c-44.61-1-81-37.43-82-82a84.09,84.09,0,1,1,168.15-2"/><circle class="fd9e5911-2db1-4c9a-b923-ea65b2d8c275" cx="693.08" cy="376.79" r="23.85"/><circle class="9c12bbaf-15d8-4362-a15a-4365e491b824" cx="746.08" cy="734.79" r="23.85"/><circle class="9c12bbaf-15d8-4362-a15a-4365e491b824" cx="746.04" cy="699.82" r="56.82"/><circle class="fd9e5911-2db1-4c9a-b923-ea65b2d8c275" cx="739.84" cy="376.79" r="22.92"/><circle class="fd9e5911-2db1-4c9a-b923-ea65b2d8c275" cx="717.37" cy="415.6" r="21.94"/><circle class="fd9e5911-2db1-4c9a-b923-ea65b2d8c275" cx="717.35" cy="339.16" r="20.92"/><circle class="fd9e5911-2db1-4c9a-b923-ea65b2d8c275" cx="675.91" cy="335.72" r="20.66"/><circle class="fd9e5911-2db1-4c9a-b923-ea65b2d8c275" cx="675.07" cy="417.2" r="20.39"/><circle class="fd9e5911-2db1-4c9a-b923-ea65b2d8c275" cx="758.1" cy="338.11" r="19.85"/><circle class="fd9e5911-2db1-4c9a-b923-ea65b2d8c275" cx="759.15" cy="414.94" r="19.85"/><circle class="fd9e5911-2db1-4c9a-b923-ea65b2d8c275" cx="651.71" cy="366.77" r="18.71"/><circle class="fd9e5911-2db1-4c9a-b923-ea65b2d8c275" cx="639.05" cy="401.98" r="18.71"/><circle class="fd9e5911-2db1-4c9a-b923-ea65b2d8c275" cx="780.14" cy="369.03" r="18.12"/><circle class="fd9e5911-2db1-4c9a-b923-ea65b2d8c275" cx="794.88" cy="402.12" r="18.12"/><circle class="fd9e5911-2db1-4c9a-b923-ea65b2d8c275" cx="699.02" cy="305.75" r="17.19"/><circle class="fd9e5911-2db1-4c9a-b923-ea65b2d8c275" cx="737.9" cy="307.46" r="16.87"/><circle class="fd9e5911-2db1-4c9a-b923-ea65b2d8c275" cx="696.01" cy="448.01" r="16.87"/><circle class="fd9e5911-2db1-4c9a-b923-ea65b2d8c275" cx="740.6" cy="445.86" r="16.2"/><circle class="fd9e5911-2db1-4c9a-b923-ea65b2d8c275" cx="719.92" cy="279.7" r="16.2"/><circle class="fd9e5911-2db1-4c9a-b923-ea65b2d8c275" cx="719.62" cy="465.26" r="12.38"/><circle class="fd9e5911-2db1-4c9a-b923-ea65b2d8c275" cx="788.2" cy="341.61" r="10.46"/><circle class="fd9e5911-2db1-4c9a-b923-ea65b2d8c275" cx="644.91" cy="338.4" r="10.46"/><circle class="fd9e5911-2db1-4c9a-b923-ea65b2d8c275" cx="759.9" cy="312.6" r="5.73"/><circle class="fd9e5911-2db1-4c9a-b923-ea65b2d8c275" cx="677.67" cy="310.44" r="4.68"/><circle class="fd9e5911-2db1-4c9a-b923-ea65b2d8c275" cx="760.47" cy="439.43" r="4.68"/></g><g id="c2ae9603-9f4c-400f-b714-96f03b3409c8" data-name="Capa 3"><text class="409b464d-5bb2-43bf-9bf7-48a32d2178fc" transform="translate(57.99 65.58)">Cada círculo representa el valor de un futbolista en millones de euros</text><text class="fb00c869-db58-4cec-ac07-8f66fd9cf577" transform="translate(106.33 41.18)">El valor de Rúsia y<tspan class="d9e147e9-806f-4cb1-a13e-b2c83378b644" x="373.49" y="0"> </tspan><tspan x="383.6" y="0">Arabia Saudí</tspan></text></g><g id="1781d3ec-da8d-4929-a59f-e1506c738187" data-name="Capa 2"><text class="3545a7e9-5488-421f-8c60-b1e1f4e67ec1" transform="translate(11.46 142.1)">RUSI<tspan class="d9e147e9-806f-4cb1-a13e-b2c83378b644" x="76.45" y="0">A</tspan></text><text class="09364194-76c1-48fa-9c94-65bab1aae25d" transform="translate(628.27 249.1)">ARABI<tspan class="d9e147e9-806f-4cb1-a13e-b2c83378b644" x="88.66" y="0">A</tspan><tspan x="107.84" y="0" xml:space="preserve"> SAUDÍ</tspan></text><text class="ae64b1a9-9896-49d9-855f-d52b2cd0a699" transform="translate(6.3 789.1)">Fuente: Elaboración propia a partir de<tspan class="d0f783cf-9ba7-43ca-b127-a54484d0beb4" x="335.76" y="0"> </tspan><tspan class="d9e147e9-806f-4cb1-a13e-b2c83378b644" x="340.96" y="0">T</tspan><tspan x="352.43" y="0">ransfermarkt</tspan></text><text class="ae64b1a9-9896-49d9-855f-d52b2cd0a699" transform="translate(687.36 791.1)">L<tspan class="70e9b9a1-7e2c-4a48-9a61-dbad28c8ab5b" x="11.12" y="0">A</tspan><tspan x="23.36" y="0"> </tspan><tspan class="9ad87570-000f-4e4d-9247-8d634a91c5b0" x="28.92" y="0">V</tspan><tspan x="40.77" y="0">ANGUARDI</tspan><tspan class="70e9b9a1-7e2c-4a48-9a61-dbad28c8ab5b" x="146.34" y="0">A</tspan></text><circle class="d626c064-30de-4d5e-8f2f-4da9f16a36db" cx="220.18" cy="372.38" r="83.68"/><circle class="d626c064-30de-4d5e-8f2f-4da9f16a36db" cx="387.54" cy="372.38" r="83.68"/><circle class="d626c064-30de-4d5e-8f2f-4da9f16a36db" cx="306.86" cy="514.24" r="81.02"/><circle class="d626c064-30de-4d5e-8f2f-4da9f16a36db" cx="303.86" cy="233.72" r="78.27"/><circle class="d626c064-30de-4d5e-8f2f-4da9f16a36db" cx="159.44" cy="235.41" r="66.15"/><circle class="d626c064-30de-4d5e-8f2f-4da9f16a36db" cx="448.28" cy="235.41" r="66.15"/><circle class="d626c064-30de-4d5e-8f2f-4da9f16a36db" cx="444.66" cy="505.75" r="59.17"/><circle class="d626c064-30de-4d5e-8f2f-4da9f16a36db" cx="164.06" cy="503.75" r="59.17"/><circle class="d626c064-30de-4d5e-8f2f-4da9f16a36db" cx="523.45" cy="416.36" r="59.17"/><circle class="d626c064-30de-4d5e-8f2f-4da9f16a36db" cx="88.69" cy="417.53" r="55.35"/><circle class="d626c064-30de-4d5e-8f2f-4da9f16a36db" cx="63.35" cy="309.77" r="55.35"/><circle class="d626c064-30de-4d5e-8f2f-4da9f16a36db" cx="541.05" cy="307.36" r="51.24"/><circle class="d626c064-30de-4d5e-8f2f-4da9f16a36db" cx="208.65" cy="600.88" r="47.7"/><circle class="d626c064-30de-4d5e-8f2f-4da9f16a36db" cx="401.84" cy="605.75" r="46.78"/><circle class="d626c064-30de-4d5e-8f2f-4da9f16a36db" cx="221.32" cy="150.22" r="39.14"/><circle class="d626c064-30de-4d5e-8f2f-4da9f16a36db" cx="386.35" cy="150.96" r="38.57"/><circle class="d626c064-30de-4d5e-8f2f-4da9f16a36db" cx="68.71" cy="506.91" r="36.23"/><circle class="d626c064-30de-4d5e-8f2f-4da9f16a36db" cx="538.82" cy="510.51" r="36.23"/><circle class="d626c064-30de-4d5e-8f2f-4da9f16a36db" cx="322.37" cy="127.46" r="29.59"/><circle class="d626c064-30de-4d5e-8f2f-4da9f16a36db" cx="271.64" cy="113.92" r="22.92"/><circle class="d626c064-30de-4d5e-8f2f-4da9f16a36db" cx="334.05" cy="609.3" r="18.71"/><circle class="d626c064-30de-4d5e-8f2f-4da9f16a36db" cx="273.47" cy="607.97" r="17.5"/><circle class="d626c064-30de-4d5e-8f2f-4da9f16a36db" cx="434.53" cy="160.04" r="10.46"/></g></svg>