<svg
	xmlns="http://www.w3.org/2000/svg" 
	xmlns:xlink="http://www.w3.org/1999/xlink" 
	viewBox="0 0 380 392">
	<link href="https://fonts.googleapis.com/css?family=Open+Sans" rel="stylesheet"></link>
	<defs>
	<style>
		.cls-1,.cls-2{fill:none;stroke:#757575;}
		.cls-1{stroke-opacity:0.5;opacity:0.25;}
		.cls-1,.cls-2,.cls-3,.cls-4,.cls-5,.cls-6,.cls-7{stroke-width:0.5px;}
		.cls-2{opacity:0.5;}
		.cls-3{fill:#ddd;}
		.cls-3,.cls-4,.cls-5,.cls-6,.cls-7{stroke:#fff;stroke-miterlimit:10;}
		.cls-4{fill:#a9a9a9;}
		.cls-14,.cls-5{fill:#a3d8d5;}
		.cls-15,.cls-6{fill:#ef4a29;}
		.cls-16,.cls-7{fill:#0e968c;}
		.cls-8{fill:url(#Degradado_sin_nombre_24);}
		.cls-9{fill:url(#Degradado_sin_nombre_24-2);}.cls-10{font-size:17px;fill:#323232;}.cls-10,.cls-14,.cls-15,.cls-16{font-family:OpenSans-Semibold, Open Sans;font-weight:700;}.cls-11,.cls-12,.cls-13{fill:#757575;}.cls-11{opacity:0.55;}.cls-12,.cls-14,.cls-15,.cls-16{font-size:9px;}.cls-12,.cls-13{font-family:OpenSans, Open Sans;}.cls-13{font-size:10px;}
	</style><linearGradient id="Degradado_sin_nombre_24" x1="112" y1="87" x2="184" y2="87" gradientTransform="translate(42 -50)" gradientUnits="userSpaceOnUse"><stop offset="0.16" stop-color="#fff"/><stop offset="0.23" stop-color="#fff" stop-opacity="0.96"/><stop offset="0.36" stop-color="#fff" stop-opacity="0.84"/><stop offset="0.53" stop-color="#fff" stop-opacity="0.64"/><stop offset="0.74" stop-color="#fff" stop-opacity="0.37"/><stop offset="0.98" stop-color="#fff" stop-opacity="0.03"/><stop offset="1" stop-color="#fff" stop-opacity="0"/></linearGradient><linearGradient id="Degradado_sin_nombre_24-2" x1="219" y1="153" x2="291" y2="153" gradientTransform="translate(-65 219)" xlink:href="#Degradado_sin_nombre_24"/></defs><title>VENGAvamos-01</title><path class="cls-1" d="M-68.54,192.84l47.43-60.33L40.7,86.67l72-28.23,77.22-8.7m-5.3,595.43-9.94-18.26-8.1-52.22-5.29-79.89-1.84-97.92,2.32-117,6.6-107.06L178.23,92l11.65-42.26M448.31,497.58l29.85-70.77,10.18-76.33L465.62,237l-64.7-97L304.1,74.25,189.89,49.74m5.3-4.48-5.3,4.48m-300,295.47.13,1.52.67,2.26,1.24,2.26,1.8,2.24,2.37,2.23,2.93,2.21,3.48,2.18,4,2.16,4.57,2.12,5.1,2.09,5.62,2,6.13,2,6.63,2,7.11,1.9,7.59,1.85,8,1.79,8.49,1.72,8.91,1.66L-16,383l9.72,1.52,10.09,1.44,10.44,1.37,10.78,1.29,11.09,1.2,11.38,1.12,11.65,1,11.9.94,12.13.85,12.33.76,12.51.67,12.67.57,12.8.47,12.91.38,13,.28,13,.18,13.08.08,13.09,0,13.07-.12,13-.21,13-.31,12.87-.41,12.76-.51,12.62-.6,12.45-.7,12.27-.79,12.06-.88,11.82-1,11.57-1.06,11.29-1.15,11-1.23,10.67-1.31,10.32-1.39,10-1.47,9.58-1.54,9.19-1.61,8.77-1.68,8.34-1.75,7.89-1.81,7.43-1.87,7-1.92,6.46-2,6-2,5.44-2.06,4.92-2.1,4.39-2.13,3.84-2.17,3.29-2.19,2.74-2.22,2.18-2.23,1.61-2.25,1-2.26.47-2.26,0-.75M-86.55,461.77l-21-80.64,2.77-83.51,29.26-85.5L-21.68,139,51.73,84.87l86.2-30M20.3,592.68l-58.83-54.55-41-69.65-19.86-79.3,2.78-82.75,28.45-86.37,52.33-74.78L55.58,89l83.8-32.56M82,625.12,5.27,577.68l-56.17-73.29-29.4-91,.64-98.57,26.77-87.21,49.24-76.32L63.51,92.94l78.85-35m-26.58,578-78.8-40-59.14-72.23L-54,428.51l-.51-105.89,24.27-88L14.38,156.9l60.9-60.31,71.51-37.3m-9.51,581.27L64.59,606.48,9.27,536.17-21,439.38l-1-109.85,21-88.66,38.71-79,52.79-62,62-39.32m.17,582.39L91.26,613.32,44.11,544.89l-26-97.36L17,335.36l17.17-89.24L65.72,166l43.08-63.49,50.59-41m5.45,582.63-46.68-26.3L82.15,551l-20-97.48-1-113.59L74,250.23l23.51-80.9,32.07-64.62,37.65-42.36m8,582.51-29.58-24.14L122.72,555,110,457.5l-.67-114.41,8-90L132,171.6l20.07-65.41L175.68,62.9m18,582.29,7.94-23,6.15-65.13,3.43-97.39.19-114.82-2.14-90.19-3.93-81.81L200,107l-6.29-43.81M203,644.92,229.58,621l20.58-65.63L261.62,458l.61-114.5-7.18-90-13.22-81.55-18-65.51L202.64,63m10.48,581.34,44-25.87,34-66.65,18.86-97.48.94-113.76-12-89.76-22.1-81L246.61,105,211.22,62.45M224.9,643.16l59.2-29,45.48-68.14,25.13-97.4,1.12-112.47-16.48-89.33L309,166.65,267.7,103,219.15,61.68m20.48,579.37,71.13-33.24,54.22-70L394.7,440.9l1.06-110.32-20.44-88.77-37.61-79.2-51.29-62.29L226.19,60.69m33.64,576.25L338.07,598,397,526.1l31.84-95.56.63-106.71-23.79-88.1-43.76-78L302.2,97.15,232.12,59.5M290.9,627.69l77.83-46.12L426,508.31l30.19-92-.39-100.15-26.41-87.34-48.58-76.57L314.58,93.57l-77.8-35.41M346.21,601.26l63.46-53.75,44.7-71,22.11-82.23-2.35-86.42L445.9,221.34l-51.93-75L323.16,89.66,240,56.68m226.31,172L377.17,112.41,241.84,53.57M359.47,97.74,240.4,52M297.81,65.3l-60.4-14.76m26.58,4-31-5.34m9.51.7-15.25-1.92m-.17-.42-6.7-.61m-5.45-.66-2.35-.15m-8-.54-.49,0m-27.31-.06h.34m-10.48.63,1.9-.11m-13.68,1.26,5.75-.49m-20.48,2.6,13.44-1.6m-33.64,5.72,27.7-4.53M88.88,62.73,143,50.3M33.56,89.16,139.77,51.77m45.94,593.41h5.7l2.27,0h.44M100,631.44l.26.08,2.27.67,2.43.65,2.59.63,2.75.61,2.9.59,3,.57,3.19.54,3.32.52,3.45.49,3.57.47,3.69.44,3.79.41,3.89.38,4,.35,4.07.32,4.15.29,4.22.26,4.28.23,4.33.2,4.38.16,4.41.13,4.44.1,4.46.06,4.47,0h4.48l4.47,0,4.46-.07,4.43-.11,4.4-.14,4.36-.17,4.32-.21,4.26-.24,4.2-.27,4.12-.3,4-.33,4-.36,3.86-.39,3.76-.42,3.65-.45,3.53-.48,3.41-.5,3.28-.53,3.14-.55,3-.58,2.85-.6,2.7-.62,2.54-.64L278,632l1.73-.52M47,609l1.18.61,2.28,1.06,2.55,1,2.81,1,3.06,1,3.31,1,3.56,1,3.79.92,4,.89,4.24.86,4.46.83L87,620l4.86.76,5,.72,5.22.68,5.39.64,5.55.6,5.69.56,5.83.52,6,.47,6.06.43,6.17.38,6.26.33,6.33.29,6.4.24,6.45.19,6.49.14,6.52.09,6.54,0h6.54l6.54-.06,6.52-.11,6.48-.16,6.44-.2,6.38-.25,6.31-.3,6.23-.35,6.13-.4,6-.44,5.91-.49,5.78-.53,5.64-.57,5.49-.62,5.33-.66,5.16-.7,5-.73,4.79-.77,4.59-.81,4.39-.84,4.17-.87,3.95-.9,3.71-.93,3.48-1,3.23-1,3-1,2.72-1,2.46-1,2.19-1.07.47-.25M1.34,578.56l1.58,1.17,2.24,1.4,2.59,1.39,2.94,1.36L14,585.22l3.61,1.32,3.94,1.29,4.26,1.26,4.57,1.22,4.88,1.19,5.17,1.15,5.46,1.11,5.73,1.07,6,1,6.24,1,6.48.93,6.71.88,6.93.83,7.13.77,7.32.72,7.49.66,7.65.61,7.8.55,7.93.49,8,.43,8.14.37,8.23.3,8.3.24,8.35.18,8.39.12,8.41.05h8.41l8.4-.07,8.38-.14,8.33-.2,8.27-.26,8.2-.33,8.11-.39,8-.45,7.88-.51,7.75-.57,7.6-.63,7.43-.68,7.25-.74,7.06-.79,6.86-.84,6.64-.89,6.4-.94,6.16-1,5.91-1,5.64-1.08,5.36-1.12,5.07-1.16,4.77-1.2,4.47-1.23,4.15-1.27,3.83-1.3,3.5-1.32,3.16-1.35,2.82-1.37,2.47-1.39,2.12-1.41.89-.68M-37.4,541l.41.45,1.81,1.71,2.24,1.69,2.67,1.67,3.09,1.65,3.5,1.63,3.91,1.6,4.3,1.57,4.7,1.53L-5.7,556l5.45,1.46,5.81,1.41,6.16,1.37,6.5,1.32,6.83,1.27,7.14,1.22,7.44,1.16,7.73,1.11,8,1,8.26,1,8.5.92,8.72.86,8.93.79,9.12.72,9.29.65,9.45.58,9.58.51,9.7.44,9.8.36,9.89.29,10,.21,10,.14,10,.06h10l10-.09,10-.16,9.93-.24,9.86-.31,9.77-.39,9.67-.46,9.54-.53,9.4-.61,9.23-.68,9.06-.74,8.86-.81,8.65-.88L319,568l8.17-1,7.91-1.07,7.63-1.13,7.34-1.18,7-1.24,6.72-1.29,6.39-1.34,6-1.38,5.69-1.43,5.32-1.47,4.95-1.51,4.56-1.55,4.17-1.58,3.77-1.61,3.36-1.63L411,546l2.52-1.68,2.1-1.7,1.57-1.6M-68.57,497.53l.41.64,1.56,1.94,2.05,1.93L-62,504l3,1.89,3.49,1.87,4,1.84,4.42,1.81,4.87,1.77,5.31,1.73,5.74,1.69,6.16,1.65,6.57,1.6,7,1.55,7.35,1.49,7.72,1.44,8.07,1.38L20,527l8.74,1.25,9,1.18,9.33,1.11,9.6,1,9.86,1,10.09.89,10.31.82,10.5.74,10.68.66,10.84.58,11,.49,11.08.41,11.18.33,11.25.24,11.3.16,11.33.07h11.34l11.32-.1,11.28-.19,11.23-.27,11.15-.35,11-.44,10.93-.52,10.79-.6,10.62-.68,10.44-.76,10.24-.84,10-.92,9.77-1,9.51-1.07,9.24-1.14L354,527.8l8.63-1.27,8.3-1.34,8-1.4,7.6-1.46,7.22-1.51,6.83-1.57,6.43-1.62,6-1.66,5.59-1.71,5.16-1.75,4.71-1.78,4.26-1.82,3.8-1.85,3.33-1.88,2.85-1.9,2.37-1.92,1.89-1.93,1.4-1.95h0M-91.44,449.4l.17.42,1.16,2.12,1.7,2.11,2.23,2.09,2.75,2.07,3.27,2.05,3.79,2,4.29,2,4.79,2,5.28,1.92,5.76,1.88,6.23,1.84,6.69,1.79,7.13,1.73,7.56,1.68,8,1.62,8.38,1.56,8.76,1.49,9.13,1.43,9.48,1.36,9.81,1.28L35,487l10.42,1.13,10.7,1.05,11,1,11.19.89,11.4.8,11.59.71,11.76.63,11.9.54,12,.45,12.13.35,12.21.26,12.26.17,12.29.08,12.3,0,12.28-.11,12.24-.2,12.18-.29,12.1-.39,12-.48,11.86-.57,11.7-.66,11.53-.74,11.33-.83,11.11-.91,10.87-1,10.61-1.08,10.32-1.16,10-1.23,9.7-1.31,9.36-1.38,9-1.45,8.63-1.52,8.24-1.58,7.84-1.64,7.42-1.7,7-1.75,6.53-1.8,6.07-1.85,5.6-1.9,5.12-1.94,4.62-2,4.12-2,3.61-2,3.1-2.06,2.57-2.08,2-2.1,1.52-2.11.88-1.82M-105.41,398.1l.64,2.14,1.22,2.22,1.78,2.21,2.33,2.19,2.88,2.17,3.43,2.15,4,2.12,4.5,2.09,5,2.05,5.53,2,6,2,6.53,1.92,7,1.87,7.47,1.82,7.92,1.76,8.36,1.7,8.78,1.63,9.18,1.57,9.57,1.49,9.94,1.42L17,438l10.61,1.27,10.92,1.18,11.21,1.1,11.48,1,11.72.93,11.95.84,12.14.75,12.32.66,12.48.56,12.6.47,12.71.37,12.79.27,12.85.18,12.88.08,12.89,0,12.87-.11,12.83-.21L237,447l12.68-.4,12.56-.5,12.43-.59,12.26-.69L299,444l11.87-.87,11.64-1,11.39-1L345,440l10.82-1.21,10.5-1.29,10.17-1.37,9.81-1.45,9.44-1.52,9-1.59,8.64-1.66,8.21-1.72,7.77-1.78,7.32-1.84,6.85-1.89,6.36-1.94,5.87-2,5.36-2L466,414.7l4.32-2.1,3.79-2.13,3.24-2.16,2.7-2.18,2.14-2.2,1.59-2.21,1-2.22.35-1.37m-590.6-105.81-.11.86.1,2.23.66,2.23,1.22,2.22,1.78,2.21,2.33,2.19,2.88,2.17,3.43,2.15,4,2.12,4.5,2.09,5,2.05,5.53,2,6,2,6.53,1.92,7,1.87,7.47,1.82,7.92,1.76,8.36,1.7,8.78,1.63,9.18,1.57,9.57,1.49L6.67,334,17,335.36l10.61,1.27,10.92,1.18,11.21,1.1,11.48,1,11.72.93,11.95.84,12.14.75,12.32.66,12.48.56,12.6.47,12.71.37,12.79.27,12.85.18,12.88.08,12.89,0,12.87-.11,12.83-.21,12.77-.31,12.68-.4,12.56-.5,12.43-.59,12.26-.69,12.08-.78,11.87-.87,11.64-1,11.39-1L345,337.42l10.82-1.21,10.5-1.29,10.17-1.37,9.81-1.45,9.44-1.52,9-1.59,8.64-1.66,8.21-1.72,7.77-1.78,7.32-1.84,6.85-1.89,6.36-1.94,5.87-2,5.36-2,4.84-2.07,4.32-2.1,3.79-2.13,3.24-2.16,2.7-2.18,2.14-2.2,1.59-2.21,1-2.22.47-2.23-.1-2.23,0-.09M-91.44,241l-.11.3-.45,2.13.09,2.13.63,2.13,1.16,2.12,1.7,2.11,2.23,2.09,2.75,2.07,3.27,2.05,3.79,2,4.29,2,4.79,2,5.28,1.92,5.76,1.88,6.23,1.84,6.69,1.79,7.13,1.73,7.56,1.68,8,1.62,8.38,1.56,8.76,1.49,9.13,1.43,9.48,1.36,9.81,1.28L35,284.92,45.43,286l10.7,1.05,11,1,11.19.89,11.4.8,11.59.71,11.76.63,11.9.54,12,.45,12.13.35,12.21.26,12.26.17,12.29.08,12.3,0,12.28-.11,12.24-.2,12.18-.29,12.1-.39,12-.48,11.86-.57,11.7-.66,11.53-.74,11.33-.83,11.11-.91,10.87-1,10.61-1.08,10.32-1.16,10-1.23L368,282l9.36-1.38,9-1.45,8.63-1.52L403.2,276l7.84-1.64,7.42-1.7,7-1.75,6.53-1.8L438,267.3l5.6-1.9,5.12-1.94,4.62-2,4.12-2,3.61-2,3.1-2.06,2.57-2.08,2-2.1,1.52-2.11,1-2.12.45-2.13-.09-2.13-.46-1.71M-68.58,192.91l-.9,2-.41,2,.08,2,.58,2,1.07,2,1.56,1.94,2.05,1.93,2.54,1.91,3,1.89,3.49,1.87,4,1.84,4.42,1.81,4.87,1.77,5.31,1.73,5.74,1.69,6.16,1.65,6.57,1.6,7,1.55,7.35,1.49,7.72,1.44,8.07,1.38L20,231.5l8.74,1.25,9,1.18L47.15,235l9.6,1,9.86,1,10.09.89,10.31.82,10.5.74,10.68.66,10.84.58,11,.49,11.08.41,11.18.33,11.25.24,11.3.16,11.33.07h11.34l11.32-.1,11.28-.19,11.23-.27,11.15-.35,11-.44,10.93-.52,10.79-.6,10.62-.68,10.44-.76,10.24-.84,10-.92,9.77-1,9.51-1.07,9.24-1.14,8.94-1.21,8.63-1.27,8.3-1.34,8-1.4,7.6-1.46,7.22-1.51,6.83-1.57,6.43-1.62,6-1.66,5.59-1.71,5.16-1.75,4.71-1.78,4.26-1.82,3.8-1.85,3.33-1.88,2.85-1.9,2.37-1.92L447,204l1.4-1.95.9-2,.41-2-.08-2-.58-2-.67-1.31M-38.74,151.25l-.8,1.73-.36,1.73.07,1.74.51,1.73.95,1.73,1.38,1.72,1.81,1.71,2.24,1.69,2.67,1.67,3.09,1.65,3.5,1.63,3.91,1.6,4.3,1.57,4.7,1.53,5.08,1.5,5.45,1.46L5.56,179l6.16,1.37,6.5,1.32L25.06,183l7.14,1.22,7.44,1.16,7.73,1.11,8,1,8.26,1,8.5.92,8.72.86,8.93.79,9.12.72,9.29.65,9.45.58,9.58.51,9.7.44,9.8.36,9.89.29,10,.21,10,.14,10,.06h10l10-.09,10-.16,9.93-.24,9.86-.31,9.77-.39,9.67-.46,9.54-.53,9.4-.61,9.23-.68,9.06-.74,8.86-.81,8.65-.88,8.42-.94,8.17-1,7.91-1.07,7.63-1.13,7.34-1.18,7-1.24,6.72-1.29,6.39-1.34,6-1.38,5.69-1.43,5.32-1.47,4.95-1.51,4.56-1.55,4.17-1.58,3.77-1.61,3.36-1.63,2.94-1.66,2.52-1.68,2.1-1.7,1.67-1.71,1.24-1.72.8-1.73.36-1.73-.07-1.74-.51-1.73-.95-1.73-1-1.26m-454.58,0-.09.11-1.24,1.72M-2,115.48l-.67,1.45-.3,1.46.06,1.46.43,1.45.8,1.45,1.16,1.44L1,125.62,2.92,127l2.24,1.4,2.59,1.39,2.94,1.36L14,132.53l3.61,1.32,3.94,1.29,4.26,1.26,4.57,1.22,4.88,1.19,5.17,1.15,5.46,1.11,5.73,1.07,6,1,6.24,1,6.48.93,6.71.88,6.93.83,7.13.77,7.32.72,7.49.66,7.65.61,7.8.55,7.93.49,8,.43,8.14.37,8.23.3,8.3.24,8.35.18,8.39.12,8.41.05h8.41l8.4-.07,8.38-.14,8.33-.2,8.27-.26,8.2-.33,8.11-.39,8-.45,7.88-.51,7.75-.57,7.6-.63,7.43-.68,7.25-.74,7.06-.79,6.86-.84,6.64-.89,6.4-.94,6.16-1,5.91-1,5.64-1.08,5.36-1.12,5.07-1.16,4.77-1.2,4.47-1.23,4.15-1.27,3.83-1.3,3.5-1.32,3.16-1.35,2.82-1.37,2.47-1.39,2.12-1.41,1.76-1.42,1.4-1.44,1-1.44.67-1.45.3-1.46-.06-1.46-.43-1.45-.8-1.45-1.16-1.44-1.52-1.43-.3-.25m-377.08,0-.87.74L-.92,114l-1,1.44M40.66,86.69l-.52,1.13-.24,1.13,0,1.13.33,1.13.62,1.13.9,1.12L43,94.58l1.46,1.1,1.74,1.09,2,1.08,2.28,1.06L53,100l2.81,1,3.06,1,3.31,1,3.56,1,3.79.92,4,.89,4.24.86,4.46.83,4.66.79,4.86.76,5,.72,5.22.68,5.39.64,5.55.6,5.69.56,5.83.52,6,.47,6.06.43,6.17.38,6.26.33,6.33.29,6.4.24,6.45.19,6.49.14,6.52.09,6.54,0h6.54l6.54-.06,6.52-.11,6.48-.16,6.44-.2,6.38-.25,6.31-.3,6.23-.35,6.13-.4,6-.44,5.91-.49L263,112l5.64-.57,5.49-.62,5.33-.66,5.16-.7,5-.73,4.79-.77,4.59-.81,4.39-.84,4.17-.87,3.95-.9,3.71-.93,3.48-1,3.23-1,3-1,2.72-1,2.46-1,2.19-1.07,1.92-1.08,1.65-1.1,1.37-1.11,1.09-1.12.81-1.12.52-1.13.24-1.13,0-1.13-.33-1.13-.62-1.13-.9-1.12-1.18-1.11L335.32,83l-1.74-1.09-.84-.47M47,81.41l-1.45.83-1.65,1.1-1.37,1.11-1.09,1.12-.81,1.12M87.81,65.75l-.36.77-.16.77,0,.77.23.77.42.77.62.77.81.76,1,.76,1.19.75,1.38.74,1.56.73,1.74.71,1.92.7,2.1.68,2.27.67,2.43.65,2.59.63,2.75.61,2.9.59,3,.57,3.19.54,3.32.52,3.45.49,3.57.47,3.69.44,3.79.41,3.89.38,4,.35,4.07.32,4.15.29,4.22.26,4.28.23,4.33.19,4.38.16,4.41.13,4.44.1,4.46.06,4.47,0h4.48l4.47,0,4.46-.07,4.43-.11,4.4-.14,4.36-.17,4.32-.21,4.26-.24,4.2-.27,4.12-.3,4-.33,4-.36,3.86-.39,3.76-.42,3.65-.45,3.53-.48,3.41-.5,3.28-.53,3.14-.55,3-.58,2.85-.6,2.7-.62,2.54-.64,2.38-.66,2.21-.67,2-.69,1.86-.7,1.68-.72,1.5-.73,1.31-.74,1.13-.75.94-.76.74-.76.55-.77.36-.77.16-.77,0-.77-.23-.77-.42-.77-.62-.77-.81-.76-1-.76-1.19-.75-1.38-.74L285.24,61l-1.74-.71-1.92-.7-1.84-.6M100,59l-.48.15-2,.69-1.86.7L94,61.24l-1.5.73-1.31.74L90,63.46l-.94.76-.74.76-.55.77m50.25-12.44-.18.39-.08.39,0,.39.12.39.21.39.31.39.41.39.51.38.6.38.7.37.79.37.89.36,1,.36,1.06.35,1.15.34,1.24.33,1.32.32,1.4.31,1.47.3,1.55.29,1.62.28,1.69.26,1.75.25,1.81.24,1.87.22,1.93.21,2,.19,2,.18,2.07.16,2.11.15,2.14.13,2.17.12,2.2.1,2.22.08,2.24.07,2.26,0,2.27,0h4.54l2.27,0,2.26,0,2.25-.05,2.24-.07,2.22-.09,2.19-.1,2.16-.12,2.13-.14,2.09-.15,2.05-.17,2-.18,2-.2,1.91-.21,1.85-.23,1.79-.24,1.73-.26,1.66-.27,1.6-.28,1.52-.29,1.45-.3,1.37-.31,1.29-.32,1.21-.33,1.12-.34,1-.35.95-.36.85-.36.76-.37.67-.38.57-.38.48-.38.38-.39.28-.39.18-.39.08-.39,0-.39-.12-.39-.21-.39-.31-.39-.41-.39L240.4,52l-.6-.38-.7-.37-.79-.37-.89-.36-1-.36-1.06-.35-1.15-.34L233,49.16l-1.32-.32-1.4-.31-1.47-.3-1.55-.29-1.62-.28-1.69-.26-1.75-.25-1.81-.24-1.87-.22-1.93-.21-2-.19-2-.18-2.07-.16-2.11-.15-2.14-.13-2.17-.12-2.2-.1-2.22-.08-2.24-.07-2.26,0-1.11,0m-8.41,0-1.82,0-2.25.05-2.24.07-2.22.09-2.19.1-2.16.12-2.13.14-2.09.15-2.05.17-2,.18-2,.2-1.91.21-1.85.23-1.79.24-1.73.26-1.66.27L152,48l-1.52.29-1.45.3-1.37.31-1.29.32-1.21.33-1.12.34-1,.35-.95.36-.85.36-.76.37-.67.38-.57.38-.48.38-.38.39-.28.39"/><path id="mon" class="cls-2" d="M190.89,644.21l-31.36-1.64-31-4.91-30.33-8.13L68.87,618.27,40.89,604l-26.34-17.1-24.4-19.76-22.2-22.2-19.76-24.4-17.1-26.34-14.26-28-11.25-29.32-8.13-30.33-4.91-31-1.64-31.36,1.64-31.36,4.91-31,8.13-30.33,11.25-29.32,14.26-28,17.1-26.34,19.76-24.4,22.2-22.2,24.4-19.76L40.89,84.4l28-14.26L98.18,58.89l30.33-8.13,31-4.91,31.36-1.64,31.36,1.64,31,4.91,30.33,8.13,29.32,11.25,28,14.26,26.34,17.1,24.4,19.76,22.2,22.2,19.76,24.4,17.1,26.34,14.26,28,11.25,29.32,8.13,30.33,4.91,31,1.64,31.36-1.64,31.36-4.91,31-8.13,30.33L465,466.23l-14.26,28-17.1,26.34-19.76,24.4-22.2,22.2-24.4,19.76L340.89,604l-28,14.26-29.32,11.25-30.33,8.13-31,4.91Z"/><g id="Traçats"><g id="EXTRA"><path id="VENEZUELA" class="cls-3" d="M255.16,334.46l-.09,1.24-2.91.72,1.74,2.32.06,2.74-2.12,3.12,2.05,4.08,2.17-.42,1-3.83-1.63-1.77-.41-4,6.13-2.38-.8-2.44,1.65-1.72,2,3.59,3.49-.07,3.36,2.76.28,1.72,4.43-.17,5.22-.83,2.93,2.18,3.78.42L290,340v-1.32l5.95-.69,5.73-.47-4,1.82,1.8,2.36,3.84.12,3.76,2.3,1,4.13,2.45-.31,1.93,1.08L309,352.35l-.31,1.94,1.72,1.81-1.13,1.07-2.9,1.06.19,2.39-1.24,1.53,3.4,3.72.69,1.42-1.69,2.12-5.32,2.34-3.47,1-1.37,1.32-3.92-1-3.66-.43-.91.54,2.25,1.21-.14,3.5.75,3.23,4.16.18.28,1.07-3.48,1.7-.54,2.23-2,1-3.66,1.43-1,1.64-3.87.55-2.76-2.58-1.58-5.08-1.36-1.75-1.82-1.05,2.49-2.71-.18-1.16-1.45-1.47-1.08-3.41.31-3.76,1.07-1.81.82-2.86-1.81-.81-2.83.74-3.62-.11-2,.66-3.68-4.34-2.94-.54-6.5.76-1.25-1.78-1.27-.39-.21-1.08.55-2-.44-2.09-1.17-1.1-.71-2.39-2.64-.26,1.31-3.11.49-3.75,1.4-2,1.88-1.57,1.18-2.66Z"/><path id="TRINIDAD_Y_TOBAGO" data-name="TRINIDAD Y TOBAGO" class="cls-3" d="M302.64,337.17l2.68-.88,1,.11.09,3.91-3.93.86-.89-.41,1.29-1.53Z"/><path id="GUYANA" class="cls-3" d="M325.46,360.46,331,361l.45-1,3.68-.72,4.93.92L338,364.93l.5,3.52,1.88,2.9-.73,2.32-.33,2.41-1.11,2.29-2.63-.84-2.15.74-1.86-.29-.44,1.55.78,1-.4,1.1-2.52-.19L326,377.13l-.69-2.88-1.5.12-2.18-3.6.77-2.76-.3-1.21,2.79-1.6Z"/><polygon id="EXTRA-2" data-name="EXTRA" class="cls-4" points="224.54 47.69 225.84 47.86 226.67 47.98 227.37 48.04 228.7 48.22 228.43 48.27 226.88 48.12 228 48.37 226.21 48.1 225.32 47.93 226.22 47.98 224.99 47.86 223.82 47.73 223.75 47.62 224.54 47.69"/><polygon id="EXTRA-3" data-name="EXTRA" class="cls-3" points="105.65 57.28 104.45 57.65 102.14 58.38 99.67 59.15 96.53 60.13 94.3 60.89 94.21 60.98 93.09 61.45 90.96 62.31 90.35 62.7 85.24 64.65 86.11 64.52 89.52 63.25 91.41 62.7 88.72 64.1 88.27 64.64 85.17 66.33 82.75 67.54 78.67 69.73 73.67 72.55 70.68 73.77 69.47 74.52 72.97 72.96 72.34 74.22 68.09 76.91 65.88 77.48 65.24 77.09 60.6 79.24 59.59 79.55 59.7 79.12 61.36 78.04 62.8 76.89 64.88 75.88 65.75 75.15 65.29 75 67.05 74.07 68.78 73.39 67.87 73.44 65.55 74.57 63.66 75.23 63.64 75.25 61.89 75.68 62.63 75.02 59.85 76.5 55.85 78.54 54.47 79.33 52.53 80.31 51.38 80.82 52.97 79.54 50.71 80.09 50.63 79.98 48.34 80.95 46.56 81.75 44.82 82.67 48.88 80.43 48.39 80.68 48.39 80.68 76.82 67.33 105.65 57.28"/><polygon id="EXTRA-4" data-name="EXTRA" class="cls-4" points="359.21 97.56 359.35 97.66 357.36 96.31 356.56 95.77 356.56 95.77 359.21 97.56"/><path id="EXTRA-5" data-name="EXTRA" class="cls-3" d="M368.37,107.16l1.41.94,3.83,3,1.57,1.33,0,.34,4.29,3.28-1-.45-1.81-1.06.78,1.2-.41.16L376,114.71l-6-5.15-1.72-2Z"/><path id="EXTRA-6" data-name="EXTRA" class="cls-4" d="M378.33,111.78l.11.09-1.17-.93v0l1.11.9-.48-.34-1.13-.9.08.15-1-.74h0l-2.37-1.75L372,107.18l-2.07-1.49-1.3-.88-1.24-.95-2-1.38-1.54-1.22-2.74-2.15-2.16-1.61.06,0,1,.65-.62-.46-.14-.1h0Z"/><path class="cls-3" d="M362.9,112.95l3.05,2.21,3.12,3.33,1,2.94-1.79.26-3.48-3.92-4.55-3.05-2.15-3.2-1.4-1.85,2.38,1.58,2.08,1.81.37-.37Z"/><path id="GUYANA-2" data-name="GUYANA" class="cls-3" d="M312.57,349l3.22,1.67,3.08,3.16.28,2.68,1.77,0,2.63,2.33,1.91,1.66-.53,4.75-2.79,1.6.3,1.21-.77,2.76,2.18,3.6,1.5-.12.69,2.88,2.91,4.26-1.12.28-2.59-.2-1.5,1.51-2.12,1.09-1.49.35-.5,1-2.33-.06-3-2.19-.38-2.38-1.27-2.53.65-4.48,1.27-1.94-1.15-2.34-1.67-.66.54-2.34-1.14-1.12-2.48.42-3.4-3.72,1.24-1.53-.19-2.39,2.9-1.06,1.13-1.07-1.72-1.81.31-1.94Z"/><path class="cls-3" d="M361.59,101.09l1.64,1.12.75.16,1.5,1.05-1.1-1.09-1.35-1.1,1.23.56,1.13.68,2,1.38,1.24.95,1.3.88,2.07,1.49,1.45,1.11,2.37,1.75.65.58-.33-.21.89.74,1.1,1,1.16,1,1.16,1.11,1.12.86,1.63,1.31.74.49,1.43,1.08,2,1.74.65.64,2.45,2.11.69.63-.65-.51.07.18,1,1.05.11.39,1.05,1-.93-.64.29.37-1-.4.87.87.08.49-2.78-2.52-2.76-2.62-.59.24-1-.6-1.75-1.49-.9-.63L379.48,116l-4.29-3.28,0-.34-1.57-1.33-3.83-3-1.41-.94-.9-.75-.3-.61.91.57-2.18-1.85-1.56-1-2.41-1.64h.44Z"/><polyline class="cls-3" points="392.22 133.84 389.92 132.47 387.55 132.01 384.68 129.48 384.6 127.96 386.43 127.86 381.84 124.13 383.94 125.05 381.62 121.05 378.39 118.14 377.76 116.98 379.22 118.06 379.36 117.85 381.05 118.91 383.02 120.07 382.75 119.51 384.61 120.52 384.95 120.68 384.86 120.44 385.88 121.04 386.48 120.8 389.23 123.42 392.02 125.94 392.7 126.7 392.38 126.66 393.36 127.53"/><polygon class="cls-3" points="338.17 378.37 339.27 376.04 339.6 373.64 340.31 371.35 338.46 368.45 337.96 364.93 340.1 360.22 341.66 360.63 345.01 361.52 349.9 365.41 350.72 367.46 348.27 372.5 347.01 376.47 345.34 378.62 343.2 379.21 342.55 377.82 341.54 377.7 340.17 379.25 338.17 378.37"/><path class="cls-4" d="M333.11,81.61l.85.47L332,81l-.75-.35-4.5-2.33-3.71-1.78-2.92-1.43-3.42-1.66-6.45-3-1.43-.64L307,69.1l-1.17-.38-1.56-.6-7.05-2.68L295,64.81l-1.63-.38-1.54-.61,1.91.5-1-.49.48.06-2.64-1-3.69-1.26-2.56-.94.92.21,3.48,1.17h0L292,63.19l1.77.59,4.09,1.54,1.8.69h0l28.58,13Z"/><path class="cls-3" d="M358.12,97.88l3.66,2.62-2.1-1.08-1.75-1.11-1.87-1.67Zm3.47,3.22.78.78h-.44l-2.34-1.41-4.43-2.9-1.2-.84-1.35-1-.41-.6-1.28-.93-1.41-1.15,2.27,1.41,1.5,1,1.19.72.53.15,1.7,1.18-.4-.15,3.27,2.41Z"/><path class="cls-4" d="M383.45,116l.16.14.95.8h0l-.43-.35.5.45-.73-.55.49.45,1.89,1.68-.9-.63-1.43-1.08-.74-.49-1.63-1.31-1.12-.86-1.16-1.11-1.16-1-1.1-1-.89-.74.33.21-.65-.58,1,.74-.08-.15,1.13.9.48.34-1.11-.9v0l1.17.93-.11-.09h0Z"/><path id="COLOMBIA" class="cls-3" d="M237.17,396.78l-1.38.52-2.22-1.16L231,394.49l-1.47.86-4.4-.62-1.28-2.2-1,.1-5.22-2.86-.7-1.59,1.93-.43-.23-2.59,1.21-1.9,2.58-.39,2.17-3.31,2-2.77-1.91-1.2.94-3.05-1.21-4.74,1.08-1.4-.88-4.4-2.12-2.74.63-2.56,1.66.34.94-1.57-1.24-3.06.62-.79,2.65.12,3.78-3.74,2.08-.62v-1.73l.82-4.45,2.84-2.51,3.19-.19.36-1.1,4,.31,3.85-2.78,1.92-1.23,2.3-2.61,1.78.26,1.38,1.32-.89,1.8-3.17,1-1.18,2.66-1.88,1.57-1.4,2-.49,3.75-1.31,3.11,2.64.26.71,2.39,1.17,1.1.44,2.09-.55,2,.21,1.08,1.27.39,1.25,1.78,6.5-.76,2.94.54,3.68,4.34,2-.66,3.62.11,2.83-.74,1.81.81-.82,2.86-1.07,1.81-.31,3.76,1.08,3.41,1.45,1.47.18,1.16-2.49,2.71,1.82,1.05,1.36,1.75,1.58,5.08-.93.69-1-3-1.4-1.57-1.65,1.87-9.83.35.09,3.23,3,.41-.16,2-1-.49-2.85,1,0,3.75,2.24,1.78"/><path class="cls-3" d="M377.76,117l-.67-1.09.41-.16-.78-1.2,1.81,1.06,1,.45,2.73,2.28.15.28,2.24,1.93-1.86-1,.27.56-2-1.17"/><path class="cls-3" d="M265.49,398.28l-2.24-1.78,0-3.75,2.85-1,1,.49.16-2-3-.41-.09-3.23,9.83-.35,1.65-1.87,1.4,1.57,1,3,.93-.69,2.76,2.58,3.87-.55,1-1.64,3.66-1.43,2-1,.54-2.23,3.48-1.7-.28-1.07-4.16-.18-.75-3.23.14-3.5-2.25-1.21.91-.54,3.66.43,3.92,1,1.37-1.32,3.47-1,5.32-2.34,1.69-2.12-.69-1.42,2.48-.42,1.14,1.12-.54,2.34,1.67.66,1.15,2.34-1.27,1.94-.65,4.48,1.27,2.53.38,2.38,3,2.19,2.33.06.5-1,1.49-.35,2.12-1.09,1.5-1.51,2.59.2,1.12-.28,2.52.19.4-1.1-.78-1,.44-1.55,1.86.29,2.15-.74,2.63.84,2,.87,1.37-1.55,1,.11.64,1.39,2.14-.59,1.68-2.15,1.26-4,2.45-5,1.49-.41,1.2,2.75,2.68,8.8,2.34.58.16,3.55-3.23,4.63,1.35,1.4,7.61-.11.11,5.15,3.25-3.78,5.24,1.17,6.78,2.2,1.9,2.73"/><polygon class="cls-4" points="57.47 81.11 56.65 81.8 57.22 81.81 56.12 82.76 55.7 83.48 55.17 83.71 54.03 83.9 54.91 83.07 55.69 82.49 55.32 82.27 55.71 81.96 57.47 81.11"/><polygon class="cls-4" points="41.16 93.45 40.24 93.59 40.84 92.79 41.88 91.79 42.97 91.78 42.85 92.37 41.16 93.45"/><polygon class="cls-4" points="37.99 107.26 35.42 107.97 35.98 106.94 37.78 105.44 40.13 104.78 41.29 104.56 41.68 105.06 40.84 106.2 37.99 107.26"/><polygon class="cls-3" points="302.64 337.17 305.32 336.29 306.32 336.4 306.41 340.31 302.48 341.18 301.59 340.76 302.88 339.23 302.64 337.17"/></g><g id="Indoeuropeas"><path id="EE.UU." class="cls-5" d="M251.88,170.8l1,1.37-3.3,2.27-3.39,1.66-3.58,1.46-1.45,2.67-.44,1,.39,2.34,1.69,2.29,1.59,0-.7-1.6,1.32.93-.05,1.28-2.44.83h-1.84l-2.7.88-1.64.29-2.22.3-3,1.4,5.57-1,1.28.8-5.23,1.54-2.49.09,0-.56-1,1.29,1.18.17-.43,3.28-2.49,3.59L227,198.2l-.91-.21-1.44-1.1,1.09,2.43,1.09.79.27,1.73L226,203.66l-1.94,3.76-.39-.18,1-3.19-2.26-1.71-.85-3.79-.58,2,1.14,2.89-2.76-.66,2.95,1.42.59,4.41,1.21.29.59,1.6,1,4.69-2.37,3.57L219,220.29l-2.62,2.86-2.14.35-2.1,1.79-.53,1.62-4.67,3.2-2.41,2.33-2,2.91-.6,3.47.9,3.4,1.62,4.2,2.15,3.49.08,2.15,2.39,5.77,0,3.38-.14,2-1.08,3.1-1.4.66-2.35-.59-.8-2.21L201.5,263l-2.58-4.31-2.22-3.81-.72-1.95.91-3.31-1.3-2.71L192,242.75l-1.76-.76-4.6,2.23-.8-.25-2.18-2.31-2.81-1.23-5.12.57-4-.58-3.45.28-1.89.74.75,1.32-.18,2,.92,1-.9.64-1.65-.76-1.75.91-3.3-.21-3.21-2.69-4,.52-3.18-1.22-2.82.26-3.88,1-4.45,3.52-4.69,2L130.35,252l-1.27,2.2-.42,3.44,0,2.42.68,1.74-1.8.08-3.12-1.24L121,258.94l-1-2.41-.55-3.54-2.26-3-1.12-3-1.7-3.49-2.77-2.13-3.55-.1-3.37,3.72-3.32-1.69-2-1.62L98.88,239,98,236.34,95.9,234l-1.81-1.68-1.15-1.82L85.86,230l-.46,2-3.24-.26-8-.63-8.07-4.22L61,224l.64-.9-5,0L52.3,223l.18-2.49-1.45-3-1.5-.76.08-1.39-1.92-.48-.82-1.42-3.09-.87-.6-.87.57-2.6L42.3,204.1l-.06-6.71.58-1L42,194.68l-.73-4.1,1.3-3.67-.45-2.64,2.49-3.51L46.46,177l.8-3.41,3.33-3.82,2.48-3.75,2.49-3.7,2.75-5.54,1.25-3.55.4-2,.81-.72,3,1.9-.81,4,1.32-1,1.52-3.33,1.09-3.36,7.76,1,8.42,1,2.85.31,9,.92,9,.81,9.39.74,9.59.66,11.09.62,11.37.52,7,.26.3-1.55,1.14,0,.2,2.25.93.72,2.34.33,3.41.74,3.17,1.36,2.87-.47,4.17,1.15,1.15,0,3.2-1.12,3.19,1.53,3.37,1.63,2.82,1.4,2.75,1.35.34,1.1.84.42-.22.42,1,.13.7-.44.18,1,.73.67h1l.54.51-.45.76,3.86,2,.89,3.89.87,3.76-1,2.59-1.76,2.43-.83,1.56-.08.46.44.63,1.33.7h1l4.45-2.41,3.95-.73,4.88-2.27,0-.44-.44-1.33-.66-.85,1.65-.72,3.7-.08,3.45-.07,1-1.72.42-.35,3.53-3.2,1.54-.83,5.53-.2,6.68-.25.16-1.07,1.11-.26,1.39-.72.86-2,.35-3.31,1.91-3.26,1.4,1,2.13-.82,1.82,1.12,1.46,5.71ZM38,107.26l-2.57.71.56-1,1.8-1.5,2.35-.66,1.16-.22.39.5-.84,1.13Zm3.17-13.81-.93.14.6-.8,1-1H43l-.12.59Zm16.3-12.33-.82.69h.56l-1.1.95-.42.72-.53.23L54,83.9l.88-.83.79-.58-.38-.22.39-.3Zm45.36-3.19L87.76,86.84,65.51,102.61l1.3.46.41,1.2-.54,1.59-1,2.37,3.57-1.38,2.8-.64-.93,1.8-.26,1.53L71,111.3l-1.26,2.54L67.91,118l1.38,2.78-1.9,2.17-2.65,1.47,0-1.52L64,121.47l2.26-3.07.22-3.17,2.2-3.27-1.47-.57-2.63-.67-.92-1.35.58-4-.7-.94-1.1-1.75-2.19-.28-.68-2.12.31-1.7-2.14.17-2.6,2.1-.9,0-2.14.13-2.35.62-2,.15L50,99.92l4.57-2.62L57,96.86l.78-.82-3.61,1L50.68,98.7l-4.36,1.44L45,101.87l-3.9,1.71-2.75.76-2.17.46L34.07,106l-3.46.83-2.22,1.29-2.69.75-.18-.58-1.81.39-2.08.54-1.91.62H17.61l.62-.6,2.54-.89,1.84-.45,3-1.14,1.3.27,2.08-1,3.55-1.14,1-.49,2.08-.71L39,101.54,41.89,100l-2.2.36.5-.64-2,.8L40,98.81l-1.74.91,1.92-1.59-2.37.68-.36-.28L40,96.8l1.72-.94,1.22-1.27-1.5-.06,1.71-1.65.79-.94,2.56-1.5L48.15,89l2.76-1.3,2.87-1.07,2.49-1.13.67.15-.43.67,2.59-.87,0,.5,1.82-.47,2-1.19.55-.65L65.58,83l-.37-.2-1.51.11-1.16.41.68-.83-1.07-.28.63-1.12L64.56,80,67,78.24l2.34-.41,3-.27.3.29-2.41,1.06,1.07.67,2.55-1.67,1.31-1.26,2.13-1.31L79,74.13,80.17,73l2.68-.86.67.51,2.61-.5,2.43-.88,2.66-.61.93.07,2.93-.3.1.39,3.28-.59-.19.82L96.6,72.17l1.16-.26.76.59-1.09.45.25.78,1.17.08L99,75l1.17.73.1.49h1.88l.15,1.06Z"/><path id="PANAMÁ" class="cls-5" d="M222.51,359.26l-1.75-1.48L219.62,355l1.24-1.42-1.3-.34-1-1.71L216,350.09l-2.26.37-1,1.83-2.07,1.34-1.13.2-.49,1.1,2.49,2.81-1.39.69-.74.78-2.42.29-.92-3.12-.67.9-1.72-.29-1.06-2.1-2.13-.33-1.35-.61-2.22,0-.15,1.14-.6-.79.26-1,.43-1.07-.19-.94.76-.62-1.08-.78,0-2.11,2-.47,1.87,1.86-.11,1.11,2.07.22.48-.43,1.44,1.28,2.53-.4,2.2-1.34,3.11-1.09,1.74-1.59,2.84.26-.18.52,2.87.13,2.31.86,1.69,1.54,2,1.41-.62.79,1.24,3.06-.94,1.57-1.66-.34Z"/><path id="PUERTO_RICO" data-name="PUERTO RICO" class="cls-5" d="M277.28,298.23l2.46.32,1,1-1.08,1.38-3.57.16-2.77.34-.48-2.2.61-.79Z"/><path id="GROENLANDIA" class="cls-5" d="M213.27,57.47l-.28-1,1.76-.2-.81-.55,1-.38,3.32-.51,5.52.26,1.19.61-1.16.45-1.77.66,1,.17,1-.5,2.68.09-.67-.57,1.92.32,2.24.82-.77-.75-.34-1,1.71-.16,2.24.37,2.3,1.34.92.35-.36.66,1.09-.26,3,1.11,2.67,1,5.16,1.59,3.61.77-.59.35.55.8,3.43.5,4,1.36-.21.38,4.69,1.22-1.07.62,2.58.48,1.37.72-.28.61-1,.33,3.9,1,2,.87L267.51,71l.74.65,2.16.18,3.7.91,3.83,1.57-.64.88L275,74.62l-3.52-.9,3.18,1.35,1.15,1.44,2.57-.6,1.42-.26,1.32,2.66.52,2.57-1.88,1.63-1.28.31.21,1.22,2.16,3-.44,2.42-.86.29-1.11,1-1.41,1,.69,1.94,2.25,2,1.26,2-.36,2.8,3.14,2.23,1.68,2.66,1.94,3.21-2.64.6-5.3-2.17-4.1.51-3.45-1.47-3.92-2.86-6.63-3.36-2.62-1.81-2.51-2.57-4.84-2.35-1.16-2.11-2-.84-1.21-3.3,1.49-1.23-.48-1.14-1.78-2-.8,1.08-.46.46-1.05.51L241.34,84l-1.75-1.7-.7-1.37,1.34-.17,3.69.32-4.17-1.26-2.15-.68-1.09.48-1.81-.48L234,76.81,232.3,76l-2.7-1.45-4-2.18-2.42-.69-.9-.88-4.36-1-2.61,0-3.09.28-2.83.31-1.82-.59-2.79-1.2,2.57-.76,2.14-.22-5-.29-2.87-.71-.23-.75,3.24-1.05,2.75-1.06-.25-.67-2.91-.5.15-.73,1.56-1.32.88-.25-1.16-.69,1.08-.53,1.65-.4,1.89-.2,1.51.39.07-1,2.49.37h1.06l2.26.3-3.11-.58Z"/><path id="REPÚBLICA_DOMINICANA" data-name="REPÚBLICA DOMINICANA" class="cls-5" d="M250.83,293.26l.52-.9,3.75-.12,3,1.2,1.25-.18,1,1.79,2.61-.22,0,1.54,2.15.09,2.5,1.78-1.59,2.2-2.37-1-2.18.32-1.61-.18-.79,1-1.82.4-.84-1.23-1.55.81-1.69,3.62-1.3-.78-.34-1.47v-1.41l-1.35-1.5,1.13-.92.22-2Z"/><path id="COSTA_RICA" data-name="COSTA RICA" class="cls-5" d="M196.15,354.31l-2.82-1.16-1-1.1.59-.91-.21-1.15-1.43-1.25-2-1-1.77-.67-.35-1.53-1.35-.94.33,1.52-1,1.25-1.18-1.46-1.65-.52-.7-1.06,0-1.59.67-1.65-1.44-.74,1.19-1,.78-.67,3.38,1.39,1.17-.68,1.65.44.85,1.08,1.52.34,1.22-1.11,1.3,2.84,2,2.1,2.42,2.23-2,.47,0,2.11,1.08.78-.76.62.19.94-.43,1.07Z"/><g id="CANADÁ"><path class="cls-5" d="M165.15,304.09l0-.77.6-.23.9.63,1.84-3.11.95-.05v.76l.95,0-.12,1.41-.85,2.23.41.81-.56,1.85.31.5-.63,2.62-1,1.37-.91.15-1,1.78h-1.5l.54-5.86Z"/><polygon class="cls-5" points="262.17 164.14 264.8 164.55 267.87 164.22 266.79 166.04 265.63 166.4 260.76 164.91 259.48 163.56 260.35 162.21 262.17 164.14"/><polygon class="cls-5" points="264.62 153.29 263.11 153.47 258.53 152.5 254.92 150.8 255.9 150.39 260.41 151.12 264.25 152.56 264.62 153.29"/><polygon class="cls-5" points="63.91 150.49 62.21 150.84 59.07 148.41 59.22 146.91 57.9 145.2 58.23 144.04 56.19 142.94 56.79 140.72 57.65 139.88 59.56 141.11 60.65 141.93 62.69 142.7 62.63 144.15 62.65 146.17 64.19 148.16 63.91 150.49"/><polygon class="cls-5" points="279.24 145.64 278.91 149.24 280.22 147.73 282.62 148.39 282.24 149.86 285.42 150.69 286.31 149.6 289.86 150.52 290.41 153.53 292.14 152.63 293.6 154.71 295.79 157.12 296.26 160.85 294.94 161.14 292.54 160.57 291.63 157.17 290.54 156.74 288.58 160.62 286.64 160.65 287.99 158.53 284.55 157.82 281.29 158.36 275.08 158.76 274.1 157.59 275.5 156 273.67 155.01 275.28 152.38 275.57 145.84 276.33 143.47 278.18 141.92 279.59 141.97 279.56 143.06 279.24 145.64"/><polygon class="cls-5" points="57.33 125.59 57.87 126.23 60.1 126.33 55.93 130.25 55.34 133.51 54.47 133.34 54.59 131.43 55.24 129.63 55.17 128.31 56.2 126.69 57.33 125.59"/><polygon class="cls-5" points="201.87 108.1 201.11 109.81 199.99 109.54 199.25 108.59 199.34 108.37 200.18 107.39 201.18 107.45 201.87 108.1"/><polygon class="cls-5" points="195.35 106.41 192.59 108.18 190.86 108.11 190.32 107.25 192.09 105.78 195.36 105.79 195.35 106.41"/><polygon class="cls-5" points="187.76 97.4 188.12 98.71 189.26 98.25 190.53 99.03 192.98 100.06 195.6 100.99 195.9 102.44 197.57 102.18 199.31 103.19 197.34 104.19 193.67 103.47 192.32 102.09 190.06 103.73 186.68 105.34 185.95 103.51 182.78 103.78 184.89 102.28 185.31 99.88 186.21 97.16 187.76 97.4"/><polygon class="cls-5" points="206.72 92.88 204.49 93.07 203.7 91.7 204.19 90.13 205.87 89.71 207.58 90.43 207.92 91.62 207.8 92.01 206.72 92.88"/><polygon class="cls-5" points="168.6 87.31 167.11 88.21 164.96 87.3 163.35 87.53 161.46 86.22 163.41 85.48 165.16 84.41 166.68 85.23 167.54 85.73 167.88 86.26 168.6 87.31"/><polygon class="cls-5" points="251.88 170.8 248.98 168.52 247.52 162.81 245.7 161.69 243.57 162.51 242.18 161.47 240.27 164.72 239.92 168.04 239.06 170.02 237.67 170.74 236.56 171 236.4 172.06 229.72 172.31 224.19 172.51 222.65 173.34 219.12 176.54 218.7 176.89 217.68 178.61 214.23 178.69 210.53 178.77 208.88 179.48 209.54 180.33 209.98 181.66 209.94 182.11 205.07 184.37 201.12 185.11 196.67 187.51 195.68 187.52 194.35 186.82 193.91 186.19 193.98 185.73 194.81 184.17 196.57 181.74 197.61 179.15 196.75 175.39 195.86 171.49 192 169.51 192.45 168.75 191.91 168.24 190.92 168.24 190.18 167.57 190 166.57 189.3 167.01 188.32 166.87 188.55 166.46 187.71 166.04 187.37 164.94 184.62 163.59 181.81 162.19 178.44 160.56 175.25 159.03 172.06 160.15 170.91 160.18 166.74 159.03 163.87 159.5 160.7 158.15 157.29 157.41 154.95 157.08 154.02 156.36 153.82 154.11 152.69 154.1 152.38 155.65 145.43 155.39 134.06 154.87 122.97 154.25 113.38 153.59 103.99 152.86 94.99 152.05 85.95 151.14 83.1 150.82 74.68 149.83 66.92 148.81 66.56 148.75 64.01 144.21 63.34 142.29 60.03 140.01 61.19 136.49 63.28 134.28 61.59 132.23 63.6 129.26 63.2 126.22 64.74 124.41 67.39 122.94 69.29 120.77 67.91 117.99 69.7 113.84 70.96 111.3 70.87 109.53 71.14 108 72.07 106.21 69.27 106.85 65.7 108.22 66.67 105.86 67.22 104.26 66.81 103.06 65.5 102.61 87.76 86.84 102.83 77.92 103.76 78.96 103.57 80.49 104.39 80.98 107.01 80.21 109.6 79.78 110.91 80.42 114.33 79.74 117.24 79.52 116.65 80.65 118.41 80.26 120.31 79.2 120.83 79.59 120.1 82.1 124.09 80.73 121.87 82.6 124.13 82.44 125.56 81.8 127.11 82.18 128.13 83.51 130.69 84.86 132.42 85.54 134.16 85.54 135.12 87.09 131.54 88.16 134.11 89.04 139.11 89.16 140.98 88.82 141.66 90.6 144.64 89.38 143.67 88.09 145.48 87.27 147.69 87.31 149.29 87.14 150.29 87.88 151.18 89.46 153.37 89.37 156 90.79 159.16 90.51 161.92 90.7 162.45 88.99 164.31 88.59 166.87 89.62 165.9 92.25 167.92 90.08 169.44 90.2 171.17 87.5 169.78 85.8 168.13 84.67 169.42 81.87 172.07 80.14 174.04 80.6 175.34 81.74 176.89 84.67 174.98 85.92 178.22 86.52 177.66 89.28 180.55 87.2 182.55 88.97 181.72 91 183.45 92.92 185.69 90.91 187.22 88.55 187.46 85.62 190.02 85.82 192.71 86.21 195.27 87.51 195.51 88.85 194.19 90.32 195.7 91.8 195.56 93.17 191.62 95.2 188.7 95.65 186.56 94.77 185.86 96.22 183.61 98.7 182.86 100.01 180.04 102.03 176.75 102.18 174.72 103.46 174.22 105.48 171.4 105.81 167.91 108.32 164.38 111.9 162.76 114.48 161.65 118.41 165.46 119.09 166.04 122.38 166.86 125.09 170.9 124.47 175.98 126.11 178.71 127.51 180.67 129.25 184.29 130.27 187.38 131.83 192.31 132.04 195.57 132.39 195.2 135.61 196.3 139.4 198.78 143.69 203.85 147.35 206.26 146.03 207.59 142.01 205.36 136.04 203.03 134.1 207.65 132.29 210.64 129.66 211.86 127.1 211.23 124.72 208.88 121.77 205.2 119.22 207.82 115.6 206.22 112.59 204.61 107.54 206.17 106.77 210.46 107.54 213.01 107.78 214.78 106.88 217.3 107.89 220.83 109.65 221.97 110.88 226.44 110.95 227.33 113.71 229.63 117.93 232.2 118.35 234.83 120.28 237.88 118.17 238.73 114.31 239.67 112.67 242.97 115.52 248.32 119.63 253.2 123.59 253.18 125.89 257.72 127.64 261.17 129.51 265.95 130.09 268.3 131.1 271.02 134.11 273.41 134.41 275.27 135.71 277.7 139.91 276.36 141.53 274.96 143.06 270.75 144.85 268.36 148.36 263.4 149.39 256.42 149.01 251.68 149.28 248.48 149.74 246.63 152.74 242.95 154.73 239.44 160.35 236.3 164.35 239.11 163.54 243.3 157.88 249.31 154.14 254.04 153.46 257.55 155.26 255.34 158.18 257.77 162.55 259.84 165.62 264.93 167.43 270.32 166.43 271.97 161.52 273.3 164.5 276.01 165.85 272.84 168.92 266.06 171.97 263.1 173.93 260 177.28 257.18 177.11 256.08 173.48 261.2 169.59 255.66 170.07 251.88 170.8"/><polygon class="cls-5" points="146.35 75.52 144.5 76.52 148.24 76.12 148.99 77.45 151.7 76.41 152.28 77.27 151.45 79.69 153.03 78.76 154.09 76.29 155.6 76.04 156.68 76.51 157.53 77.56 156.74 79.94 156 81.71 157.92 83.11 160.25 84.49 159.44 85.62 156.45 85.68 156.99 86.75 155.83 87.69 152.84 87.08 150.31 86.17 148.2 86.18 144.29 86.83 139.65 86.86 136.43 86.82 136.66 85.51 135.14 84.59 133.46 84.72 133.64 82.52 134.93 82.37 137.71 82.19 139.76 82.52 142.19 82.28 139.8 81.42 136.41 81.28 134.38 81 134.65 80.02 139.03 79.44 136.81 79.23 135.15 78.33 138.39 76.73 140.41 75.94 145.5 74.95 146.35 75.52"/><polygon class="cls-5" points="160.15 75.91 157.72 77.36 156.84 75.59 157.57 75.31 159.49 75.35 160.15 75.91"/><polygon class="cls-5" points="201.77 77.44 202.1 78.09 200.45 78.06 198.78 78.04 197.16 78.39 196.69 78.25 194.84 77.02 194.79 76.18 195.47 76.02 198.87 76.21 201.77 77.44"/><polygon class="cls-5" points="186.27 77.44 187.37 78.94 188.87 77.02 192.61 76.06 195.44 78.48 195.4 80.06 198.45 79.31 199.73 78.33 203.52 79.47 206.1 80.57 206.69 81.65 209.5 80.98 211.9 82.51 216.42 83.33 218.44 84.29 221.42 86.64 218.74 88.05 224 89.59 227.29 90.03 231.54 92.4 234.66 92.38 235.33 94.4 233.78 98.01 230.56 96.91 225.93 94.31 223.5 94.81 224 96.48 226.98 98.07 230.52 99.28 231.8 100.03 234.75 102.95 235.08 105.22 231.82 104.54 225.1 102.36 229.42 104.87 232.65 106.64 233.52 107.72 226.64 106.78 220.97 105.18 217.67 103.76 218.19 102.86 214.35 101.41 210.71 100.03 210.97 100.91 204.57 101.55 202.5 100.54 203.59 98.31 207.66 98.17 211.98 97.66 210.98 96.64 211.29 95.17 213.03 92.3 212.06 91.08 211 90.16 207.67 88.92 203.62 88.1 204.65 87.39 202.32 85.79 200.71 85.67 199.14 84.81 198.31 85.59 195.09 85.97 188.5 85.4 184.78 84.61 181.98 84.19 180.69 83.27 182.65 82.14 180.27 82.09 180.27 79.58 181.9 77.46 183.61 76.52 187.47 75.94 186.27 77.44"/><polygon class="cls-5" points="166.62 75.28 168.02 75.84 170.72 75.66 170.76 76.35 168.84 77.41 170.63 78.52 169.38 80.69 166.28 81.54 164.82 81.26 164.23 80.27 161.54 78.21 162.07 77.46 164.91 77.91 164.24 76.3 166.62 75.28"/><polygon class="cls-5" points="175.95 78.18 173.66 79.93 171.88 79.79 171.8 77.65 172.33 76.48 173.51 75.53 175.18 74.96 178.1 75.12 180.68 75.73 177.91 77.77 175.95 78.18"/><polygon class="cls-5" points="133.21 78.56 128.22 79.22 128.9 78.1 127.72 76.46 129.63 75.6 132.84 74.12 135.96 72.86 136.88 71.42 141.07 71.62 142.07 72.26 144.9 72.73 145.28 73.49 145.5 74.56 143.24 74.94 138.14 76.15 134.49 77.55 133.21 78.56"/><polygon class="cls-5" points="177.13 73.1 176.07 73.94 174.16 73.71 172.81 73.07 173.99 72.12 176.11 71.61 176.92 72.4 177.13 73.1"/><polygon class="cls-5" points="172.84 69.19 173.17 70.19 172.6 71.27 171.12 72.85 168.82 72.97 167.65 72.55 168.52 71.3 166.37 71.35 167.53 69.74 168.75 69.87 171.01 69.26 172.58 69.46 172.84 69.19"/><polygon class="cls-5" points="160.74 69.58 160.46 70.34 161.84 70.07 162.99 70.25 162.28 71.28 160.63 72.24 156.1 72.25 151.99 72.91 150.06 72.78 150.72 72.07 154.27 71.37 148.7 71.09 147.61 70.55 151.78 68.75 153.52 68.31 155.69 69.28 156.32 70.67 158.21 71 158.67 68.9 160.48 68.26 161.36 68.58 160.74 69.58"/><polygon class="cls-5" points="177.67 68.59 178.68 69.29 181.01 69.34 181.85 70.05 181.34 70.83 182.67 71.34 183.37 71.86 185.11 71.98 187 72.18 189.09 71.72 191.71 71.53 193.82 71.67 195.34 72.47 195.79 73.38 195.03 73.98 193.01 74.48 191.21 74.21 187.18 74.55 184.29 74.57 182.08 74.26 178.63 73.46 178.58 72.25 178.8 71.18 177.91 70.22 175.52 69.89 174.48 69.2 175.38 68.39 177.67 68.59"/><polygon class="cls-5" points="155.85 66 153.63 67.43 151.9 68.01 150.81 68 147.66 68.61 145.57 68.7 144.89 68.09 148.87 66.89 152.74 65.93 154.14 66.13 155.85 66"/><polygon class="cls-5" points="179 67.78 178.47 67.82 176.45 67.62 176.46 67.06 178.62 67.17 179.23 67.56 179 67.78"/><polygon class="cls-5" points="161.85 66.46 159.31 66.85 158.63 66.1 160.2 65.58 161.84 65.52 162.85 65.93 161.85 66.46"/><polygon class="cls-5" points="164.37 64.83 162.79 65.09 161.24 64.94 161.61 64.69 163.26 64.23 163.63 64.36 164.37 64.83"/><polygon class="cls-5" points="177.34 66.66 175.54 67 174.95 66.51 174.98 65.77 175.43 65 176.66 65.13 177.16 65.27 178 65.97 177.34 66.66"/><polygon class="cls-5" points="173.27 65.96 173.09 66.77 171.54 66.47 170.38 65.76 168.23 65.56 169.7 65.06 168.99 64.55 169.64 63.85 171.2 64.21 173.19 65.03 173.27 65.96"/><polygon class="cls-5" points="187.21 63.84 188.3 64.44 186.89 64.98 184.73 66.39 182.81 66.5 180.72 66.2 179.95 65.39 180.28 64.72 181.26 64.25 179.52 64.21 178.83 63.57 178.76 62.75 179.84 62 180.72 61.5 181.62 61.41 181.48 61.01 183.35 60.98 184.03 61.91 185.34 62.31 186.69 62.66 187.21 63.84"/><polygon class="cls-5" points="199.61 57.87 201.35 57.9 202.87 58.01 204.5 58.34 205 58.74 204.18 59.52 202.81 59.94 202.49 60.34 204.09 60.24 203.23 61.34 202.3 61.88 201.83 63.37 200.12 63.73 199.72 64.12 196.91 64.39 198.34 64.59 197.79 64.94 199 65.85 198.26 66.53 196.77 67.12 196.46 67.9 195 68.53 195.25 68.98 197.24 68.87 197.4 69.38 194.4 70.67 191.11 70.11 187.48 70.43 185.68 70.17 183.38 70.03 183.46 69.03 185.71 68.6 185.41 67.16 186.1 67.03 188.98 67.9 187.56 66.63 185.89 66.24 186.85 65.51 188.68 65.08 188.99 64.43 187.71 63.71 187.44 62.78 189.86 62.87 190.58 63.06 191.9 62.41 189.95 62.22 186.93 62.31 185.57 61.71 185.1 61.02 184.37 60.51 184.43 59.95 185.62 59.66 186.47 59.63 187.92 59.38 189 58.8 189.83 58.88 190.58 59.33 191.03 58.48 191.84 58.23 192.93 58.05 194.8 57.95 195.21 58.1 196.84 57.79 198.22 57.84 199.61 57.87"/></g><g id="BAHAMAS"><polygon class="cls-5" points="223.39 259.02 222.79 262.61 221.89 261.99 221.82 259.36 219.64 257.42 219.59 256.84 223.39 259.02"/><polygon class="cls-5" points="219.58 259.15 214.53 260.04 214.13 258.19 216.29 257.76 219.38 257.85 219.58 259.15"/><polygon id="_Trazado_" data-name="&lt;Trazado&gt;" class="cls-5" points="221.63 273.37 220.47 273.64 219.14 270.74 217.3 269.3 218.18 266.08 219.61 266.25 221.47 270.42 221.63 273.37"/></g></g><g id="Amerindias"><path id="NICARAGUA" class="cls-6" d="M182,339.32l-1.76-1.65-2.38-2.13-1.11-1.77-2.14-1.66-2.54-2.39.58-.8.83.8.39-.37,1.58-.2.65-1.18.75,0-.08-2.57,1.19-.12,1.06,0,1.11-1.39,1.49,1.07.53-.65.94-.61,1.78-1.44.08-1.07.49,0,.66-1.25.53-.15.85.8,1,.24,1.11-.66h1.28l1.77-.68.69-.72,1.73.1-.43.5-.25,1.17.54,1.9-1.16,1.79-.54,2.1-.16,2.31.28,1.34.13,2.36-.79.51-.48,2.24.35,1.38-1,1.34.22,1.42.8.85-1.22,1.11-1.52-.34L189,339.8l-1.65-.44-1.17.68-3.38-1.39Z"/><path id="MÉXICO" class="cls-6" d="M129.31,261.81l-2.22,4.34-1.18,3.61-1,6.78-.69,2.47.56,2.83L126,284.4l.63,4,2.88,4,.92,3,1.73,2.62,5.08,1.55,1.88,2.23,4.38-1.32,3.77-.42,3.72-.84,3.13-.82,3.2-2,1.3-3,.55-4.31.9-1.49,3.34-1.29,5.18-1.11,4.3.23,3-.41L177,286l-.2,2.48-2.68,3-1.23,3.13.89.91-.79,2.23-1.31,4-1.24-1.35-1,.08-.95.05-1.84,3.11-.9-.63-.6.23,0,.77-4.59-.13-4.62-.08-.12,2.92-2.23,0,1.78,1.78,1.8,1.24.52,1.13.8.33L158.3,313l-6.42-.13-2.55,4.19.67,1-.62,1.21-.18,1.52L143.77,315l-2.5-1.76-4-1.48-2.79.29-4.07,1.81-2.51.42-3.38-1.51-3.6-1.14-4.39-2.58-3.57-.9-5.24-2.69L104,302.82l-1.07-1.45-2.61-.45L95.62,299l-1.7-2.47-4.66-3.25-1.9-3.39-.76-2.58,1.59-.39-.29-1.49,1.23-1.26.25-1.77-1.2-2.4-.12-2.05-1.15-2.67-3.13-5.32L80,265.68l-1.55-3.3L75.16,260l-.55-1.28,1.25-3-1.93-1.34-2-2.62-.28-3.54-2.13-.6-1.79-2.8-1.33-2.57.2-1.55-1.22-3.88L65,233l.57-1.85L63.26,229,61.9,229l-1.82-1.55-1.18,1.89,0,2.37-.64,3.68.8,2.14,2.06,3.65.37,1.21.52.41.12,1.74h.73l.05,3.26,1,1.37L64.3,251l2,2.76.4,4.76.81,2.3.71,2.45L68,266l2,.34,1.32,2.43,1.16,2.38-.25.91-2.16,1.71-.76-.09-.61-3.17-2.26-3.12-2.6-2.7-1.89-1.48.9-3.65,0-2.76L61.16,255l-2.31-2.49-.69.59-.72-1.4-2.2-1.44-1.65-3.1.38-.35,1.58.45,1.94-1.69.7-2.2-2.13-3.8L54.13,238l-.57-3.19-.5-3.32-.6-4L52.3,223l4.35.1,5,0L61,224l5.11,2.9,8.07,4.22,8,.63,3.24.26.46-2,7.09.53,1.15,1.82L95.9,234l2.06,2.3.91,2.64.56,2.76,2,1.62,3.32,1.69,3.37-3.72,3.55.1,2.77,2.13,1.7,3.49,1.12,3,2.26,3,.55,3.54,1,2.41,3.37,1.71,3.12,1.24Z"/><path id="HONDURAS" class="cls-6" d="M173.86,329.34l-.86-1.64-1.53-.47.38-2.09-.69-.57-1-.38-2.24.59-.17-.7-1.51-.86-1.07-1-1.48-.47,1.08-1.31-.38-1,.39-1,2.41-1.42,2.34-2,.52.21,1.12-.9,1.43-.07.46.43.78-.25,2.33.49,2.32-.12,1.64-.57.59-.58,1.61.28,1.19.36,1.32-.11,1-.45,2.3.73.8.12,1.54,1,1.45,1.17,1.84.79,1.33,1.44-1.73-.1-.69.72-1.77.68h-1.28l-1.11.66-1-.24-.85-.8-.53.15-.66,1.25-.49,0-.08,1.07-1.78,1.44-.94.61-.53.65-1.49-1.07L179,325.27l-1.06,0-1.19.12.08,2.57-.75,0-.65,1.18Z"/><path id="EL_SALVADOR" data-name="EL SALVADOR" class="cls-6" d="M171.47,327.22l-.59,1.22-2.95-.11-1.82-.52L164,326.74l-2.8-.37-1.41-1.14.18-.77,1.76-1.28,1-.56-.26-.61,1.19-.31,1.48.47,1.07,1,1.51.86.17.7,2.24-.59,1,.38.69.57Z"/><path id="GUATEMALA" class="cls-6" d="M159.82,325.22l-2.56-1-3.16-.16L151.82,323l-2.62-2.22.18-1.52.62-1.21-.67-1,2.55-4.19,6.42.13.18-1.78-.8-.33-.52-1.13-1.8-1.24-1.78-1.78,2.23,0,.12-2.92,4.62.08,4.59.13-.14,4.12-.54,5.86H166l1.61,1,.45-.77,1.47.68-2.34,2-2.41,1.42-.39,1,.38,1-1.08,1.31-1.19.31.26.61-1,.56L160,324.45Z"/></g><g id="Criolla"><path id="JAMAICA" class="cls-7" d="M223.28,296.41l3.34.4,2.66,1.18.88,1.4-3.46.18-1.46.9-2.81-.77-2.9-1.84.57-1.2,2-.4Z"/><path id="HAITÍ" class="cls-7" d="M250.83,293.26l.62,2.8-.22,2-1.13.92,1.35,1.5v1.41l-3.3-.76-2.28.44-3-.28-2.23,1-2.72-1.53.33-1.68,4.54.58,3.71.29,1.68-1.21-2.37-2.16-.1-2-3.1-.69,1-1.46,3,.12Z"/><path id="CUBA" class="cls-7" d="M199,276.57l4.16.33,3.79,0,4.57,1.69,2,1.84,4.49-.65,1.75,1.18,4.22,3.08,3.12,2.25,1.6-.11,2.93,1-.27,1.45,3.58.11,3.78,2-.5,1.22-3.19.75-3.26.35-3.37-.33-7,.65,3.15-2.94-2-1.3-3.15-.28-1.74-1.45-1.26-2.9-2.73.24-4.56-1.31-1.48-1.06-6.33-.73-1.71-1,1.79-1.29-4.75-.23-3.45,2.67-2,.07-.7,1.25-2.41.56-2.06-.49,2.56-1.58,1-1.85,2.19-1.14,2.46-1,3.64-.5Z"/></g></g><g id="TITOL"><rect id="Degradado" class="cls-8" x="154" y="-153" width="72" height="380" transform="translate(227 -153) rotate(90)"/><rect id="Degradado-2" data-name="Degradado" class="cls-9" x="154" y="182" width="72" height="380" transform="translate(-182 562) rotate(-90)"/><g id="Capa_12" data-name="Capa 12"><text class="cls-10" transform="translate(49.78 16)">El segundo idoma más hablado en <tspan x="28.71" y="20.4">América del Norte y Central</tspan></text><rect class="cls-11" x="242" y="223" width="137" height="32"/></g></g><text class="cls-12" transform="translate(1.88 388.84)">Fuente: Ethnologue y CIA Factbook</text><text class="cls-13" transform="translate(13.41 48.6)">Haz clic en cada país para saber cuál es la segunda lengua más hablada</text><text class="cls-12" transform="translate(5 317.84)">Familias lingüísticas:</text><text class="cls-14" transform="translate(4.76 328.84)">INDOEUROPEAS</text><text class="cls-15" transform="translate(4.52 339.84)">AMERINDIAS</text><text class="cls-16" transform="translate(4.26 350.49)">CRIOLLAS</text><text class="cls-12" transform="translate(307.66 388.84)">LA VANGUARDIA</text></svg>