<svg xmlns="http://www.w3.org/2000/svg" xmlns:xlink="http://www.w3.org/1999/xlink" viewBox="0 0 500 424"><defs><style>.\30 87c2b9b-0001-49ce-a4fd-937827fc500f,.\34 755854c-7feb-47f4-86fa-1dd6c98a7451,.\36 869d186-145e-4a33-81ab-722de4135de1,.\37 4904b5e-e76d-41a9-9f87-1868ec9a792d{fill:none;}.\30 2f4ca54-e8a5-408a-8d7b-441061238e5b,.\30 6101719-deeb-4452-985d-e2668d1446c4,.\30 87c2b9b-0001-49ce-a4fd-937827fc500f,.\32 f37bc4b-824c-49fd-9e87-dd6d80349d30,.\33 1e6fb9b-2381-4792-94e4-9cde8f017bd4,.\33 1ff7531-4cb6-49d2-b973-1a549e6a8da9,.\33 5027d35-e9f9-4382-a8a7-942cfc990284,.\34 755854c-7feb-47f4-86fa-1dd6c98a7451,.\34 8c0f7f1-a804-42eb-a228-bb4378c43368,.\34 9e05a58-aa5c-4dc5-a68e-34e3f243ecb7,.\37 4904b5e-e76d-41a9-9f87-1868ec9a792d,.\37 7d89b2e-38f0-4dc4-9629-5918ddd2e441,.\38 5198c87-47e2-41ae-a324-67894b5944be,.\38 8f06cbd-fbf3-427a-a7d6-7e6d79bc7b67,.bdcef450-b87b-44d1-bc1a-96affdba44fb,.c1f9a6fb-285d-4d7e-b92e-fe1e3937c606,.cd83baed-2b57-44f9-9ae4-bb597ec7e388,.d55c52cf-b2bd-4a53-8dac-0ea3473696af,.d67fff49-3e45-4770-b7c3-91834e609630,.e12c2b91-c490-4a85-80eb-56aa97ead358,.f08dfcab-3d3a-4867-afdc-70704b670db9,.f42d17f9-f9d4-4d30-9b35-ccf0b5469235{stroke:#fff;}.\30 2f4ca54-e8a5-408a-8d7b-441061238e5b,.\30 6101719-deeb-4452-985d-e2668d1446c4,.\32 f37bc4b-824c-49fd-9e87-dd6d80349d30,.\33 1e6fb9b-2381-4792-94e4-9cde8f017bd4,.\33 1ff7531-4cb6-49d2-b973-1a549e6a8da9,.\33 5027d35-e9f9-4382-a8a7-942cfc990284,.\34 8c0f7f1-a804-42eb-a228-bb4378c43368,.\34 9e05a58-aa5c-4dc5-a68e-34e3f243ecb7,.\36 869d186-145e-4a33-81ab-722de4135de1,.\37 4904b5e-e76d-41a9-9f87-1868ec9a792d,.\37 7d89b2e-38f0-4dc4-9629-5918ddd2e441,.\38 5198c87-47e2-41ae-a324-67894b5944be,.\38 8f06cbd-fbf3-427a-a7d6-7e6d79bc7b67,.bdcef450-b87b-44d1-bc1a-96affdba44fb,.c1f9a6fb-285d-4d7e-b92e-fe1e3937c606,.cd83baed-2b57-44f9-9ae4-bb597ec7e388,.d55c52cf-b2bd-4a53-8dac-0ea3473696af,.d67fff49-3e45-4770-b7c3-91834e609630,.e12c2b91-c490-4a85-80eb-56aa97ead358,.f08dfcab-3d3a-4867-afdc-70704b670db9,.f42d17f9-f9d4-4d30-9b35-ccf0b5469235{stroke-miterlimit:10;}.\30 87c2b9b-0001-49ce-a4fd-937827fc500f,.\32 f37bc4b-824c-49fd-9e87-dd6d80349d30,.\33 5027d35-e9f9-4382-a8a7-942cfc990284,.\34 755854c-7feb-47f4-86fa-1dd6c98a7451,.\37 4904b5e-e76d-41a9-9f87-1868ec9a792d,.\38 5198c87-47e2-41ae-a324-67894b5944be,.\38 8f06cbd-fbf3-427a-a7d6-7e6d79bc7b67,.cd83baed-2b57-44f9-9ae4-bb597ec7e388,.d67fff49-3e45-4770-b7c3-91834e609630,.e12c2b91-c490-4a85-80eb-56aa97ead358{stroke-width:0.5px;}.\34 3473592-40c1-4b13-8e49-2962a095ccfb{font-size:11px;}.\31 cdc2434-75b6-4a93-95c0-226585b6609d,.\31 ff7671d-bfe7-43f3-8331-f2c7b592432b,.\33 1abfd83-8403-4d40-acf4-6a63010163fa,.\33 deaa588-5a31-4b25-bc62-712bc6928422,.\34 3473592-40c1-4b13-8e49-2962a095ccfb,.a00cad7d-0809-44af-b48e-a063d670b398,.a2a51bd5-fbc2-49b9-870c-68726655591d,.ca986555-877d-4ff2-9a07-9865d11e8392{fill:#757575;}.\31 ff7671d-bfe7-43f3-8331-f2c7b592432b,.\34 3473592-40c1-4b13-8e49-2962a095ccfb,.\35 0abfd08-1e46-4bfe-926b-6dc0d657e86f,.\37 abffa64-9d72-4c01-8244-f16ff052d4c1,.ca986555-877d-4ff2-9a07-9865d11e8392{font-family:ArialMT, Arial;}.e3792eea-bdc9-4d84-ba19-9e87f6563e6a{letter-spacing:-0.07em;}.a2a51bd5-fbc2-49b9-870c-68726655591d,.ab8eca4f-390e-479e-9c4f-9945c054dc7e{letter-spacing:-0.04em;}.\36 869d186-145e-4a33-81ab-722de4135de1{stroke:#757575;}.\31 a7301a7-4917-45a3-ade9-5c521530bd4c{font-size:22px;font-family:Arial-BoldMT, Arial;font-weight:700;}.\31 a7301a7-4917-45a3-ade9-5c521530bd4c,.\35 0abfd08-1e46-4bfe-926b-6dc0d657e86f{fill:#323232;}.\35 0abfd08-1e46-4bfe-926b-6dc0d657e86f,.\37 abffa64-9d72-4c01-8244-f16ff052d4c1,.ca986555-877d-4ff2-9a07-9865d11e8392{font-size:12px;}.a00cad7d-0809-44af-b48e-a063d670b398,.f1ad5f00-3e00-4b76-a7bb-404d31becb89{letter-spacing:-0.06em;}.\31 cdc2434-75b6-4a93-95c0-226585b6609d,.fc4acecd-5287-44df-84ea-579f7a4073c4{letter-spacing:-0.02em;}.\33 1abfd83-8403-4d40-acf4-6a63010163fa{letter-spacing:-0.11em;}.\34 9e05a58-aa5c-4dc5-a68e-34e3f243ecb7{fill:#af5b1c;}.f08dfcab-3d3a-4867-afdc-70704b670db9{fill:#d57928;}.c1f9a6fb-285d-4d7e-b92e-fe1e3937c606{fill:#f49e20;}.\38 5198c87-47e2-41ae-a324-67894b5944be,.bdcef450-b87b-44d1-bc1a-96affdba44fb{fill:#fecb41;}.\33 1e6fb9b-2381-4792-94e4-9cde8f017bd4,.\33 5027d35-e9f9-4382-a8a7-942cfc990284{fill:#f9f077;}.\34 8c0f7f1-a804-42eb-a228-bb4378c43368{fill:#fff7c0;}.\31 ff7671d-bfe7-43f3-8331-f2c7b592432b{font-size:10px;}.c22a29bb-fc82-4aa9-8bc9-21dc97e01d00{font-size:7px;}.cd83baed-2b57-44f9-9ae4-bb597ec7e388,.d55c52cf-b2bd-4a53-8dac-0ea3473696af{fill:#136361;}.\37 7d89b2e-38f0-4dc4-9629-5918ddd2e441,.e12c2b91-c490-4a85-80eb-56aa97ead358{fill:#159094;}.\33 1ff7531-4cb6-49d2-b973-1a549e6a8da9,.\38 8f06cbd-fbf3-427a-a7d6-7e6d79bc7b67{fill:#15acb1;}.d67fff49-3e45-4770-b7c3-91834e609630,.f42d17f9-f9d4-4d30-9b35-ccf0b5469235{fill:#89d2d8;}.\30 6101719-deeb-4452-985d-e2668d1446c4{fill:#c9f3f4;}.\30 2f4ca54-e8a5-408a-8d7b-441061238e5b{fill:#e3ffff;}.\32 f37bc4b-824c-49fd-9e87-dd6d80349d30{fill:#fdf9d2;}.f6fbd95d-62e2-441c-966a-e7bfb310b482{clip-path:url(#eb8aa4a0-47f3-4c39-b59e-9580b5b5a2b8);}.\30 87c2b9b-0001-49ce-a4fd-937827fc500f{stroke-linecap:square;}.b0d0ce2d-55d9-4a96-b47b-c069f43faf0b{clip-path:url(#9b94b31c-83e3-4b18-9e20-8e9f20468d5a);}.\37 abffa64-9d72-4c01-8244-f16ff052d4c1{fill:#fff;}</style><clipPath id="eb8aa4a0-47f3-4c39-b59e-9580b5b5a2b8"><rect class="74904b5e-e76d-41a9-9f87-1868ec9a792d" x="-3352.27" y="-1743.83" width="7314.13" height="3886.5"/></clipPath><clipPath id="9b94b31c-83e3-4b18-9e20-8e9f20468d5a"><rect class="74904b5e-e76d-41a9-9f87-1868ec9a792d" x="-3104.92" y="-1746.89" width="7314.13" height="3886.5"/></clipPath></defs><title>SEVILLA01</title><g id="55d86002-8962-4b55-8d6c-7213424f4601" data-name="titulos"><text class="43473592-40c1-4b13-8e49-2962a095ccfb" transform="translate(262.41 51.85)"><tspan class="e3792eea-bdc9-4d84-ba19-9e87f6563e6a">V</tspan><tspan x="6.52" y="0">ARIACIÓN INTERANUA</tspan><tspan class="ab8eca4f-390e-479e-9c4f-9945c054dc7e" x="126.31" y="0">L</tspan><tspan x="132.02" y="0" xml:space="preserve"> DE PRECIO (%)</tspan></text><line class="6869d186-145e-4a33-81ab-722de4135de1" x1="263.5" y1="55.5" x2="493.5" y2="55.5"/><line class="6869d186-145e-4a33-81ab-722de4135de1" x1="9" y1="55.5" x2="240.5" y2="55.5"/><text class="1a7301a7-4917-45a3-ade9-5c521530bd4c" transform="translate(7 22.09)">Evolución del precio de la vivienda en Sevilla</text></g><g id="a6bb1bd6-e9bc-4931-96bc-7fb26965afea" data-name="Barrios"><line class="6869d186-145e-4a33-81ab-722de4135de1" x1="10" y1="323.5" x2="492.5" y2="323.5"/><text class="50abfd08-1e46-4bfe-926b-6dc0d657e86f" transform="translate(174.67 337.59)">4<tspan class="3deaa588-5a31-4b25-bc62-712bc6928422" x="6.67" y="0">. Cerro -</tspan><tspan class="a00cad7d-0809-44af-b48e-a063d670b398" x="50.68" y="0"> </tspan><tspan class="3deaa588-5a31-4b25-bc62-712bc6928422" x="53.35" y="0">Amate</tspan><tspan x="0" y="14.4">5</tspan><tspan class="3deaa588-5a31-4b25-bc62-712bc6928422" x="6.67" y="14.4">. Sur</tspan><tspan x="0" y="28.8">6</tspan><tspan class="3deaa588-5a31-4b25-bc62-712bc6928422" x="6.67" y="28.8">.</tspan><tspan class="1cdc2434-75b6-4a93-95c0-226585b6609d" x="10.01" y="28.8"> </tspan><tspan class="a2a51bd5-fbc2-49b9-870c-68726655591d" x="13.13" y="28.8">T</tspan><tspan class="3deaa588-5a31-4b25-bc62-712bc6928422" x="20.01" y="28.8">riana</tspan><tspan x="0" y="43.2">7</tspan><tspan class="3deaa588-5a31-4b25-bc62-712bc6928422" x="6.67" y="43.2">. Norte</tspan></text><text class="50abfd08-1e46-4bfe-926b-6dc0d657e86f" transform="translate(314.67 338.59)">8<tspan class="3deaa588-5a31-4b25-bc62-712bc6928422" x="6.67" y="0">. San Pablo - Santa Justa</tspan><tspan x="0" y="14.4">9. </tspan><tspan class="3deaa588-5a31-4b25-bc62-712bc6928422" x="13.34" y="14.4">Este -</tspan><tspan class="a00cad7d-0809-44af-b48e-a063d670b398" x="44.68" y="14.4"> </tspan><tspan class="3deaa588-5a31-4b25-bc62-712bc6928422" x="47.36" y="14.4">Alcosa -</tspan><tspan class="1cdc2434-75b6-4a93-95c0-226585b6609d" x="90.7" y="14.4"> </tspan><tspan class="31abfd83-8403-4d40-acf4-6a63010163fa" x="93.82" y="14.4">T</tspan><tspan class="3deaa588-5a31-4b25-bc62-712bc6928422" x="99.82" y="14.4">orreblanca</tspan><tspan x="0" y="28.8">10. </tspan><tspan class="3deaa588-5a31-4b25-bc62-712bc6928422" x="20.02" y="28.8">Bellavista - La Palmera</tspan><tspan class="e3792eea-bdc9-4d84-ba19-9e87f6563e6a" x="0" y="43.2">1</tspan><tspan x="5.78" y="43.2">1. </tspan><tspan class="3deaa588-5a31-4b25-bc62-712bc6928422" x="19.13" y="43.2">Los Remedios</tspan></text><text class="50abfd08-1e46-4bfe-926b-6dc0d657e86f" transform="translate(8.67 338.59)">1<tspan class="3deaa588-5a31-4b25-bc62-712bc6928422" x="6.67" y="0">. Casco</tspan><tspan class="a00cad7d-0809-44af-b48e-a063d670b398" x="47.36" y="0"> </tspan><tspan class="3deaa588-5a31-4b25-bc62-712bc6928422" x="50.03" y="0">Antiguo</tspan><tspan x="0" y="14.4">2</tspan><tspan class="3deaa588-5a31-4b25-bc62-712bc6928422" x="6.67" y="14.4">. Macarena</tspan><tspan x="0" y="28.8">3</tspan><tspan class="3deaa588-5a31-4b25-bc62-712bc6928422" x="6.67" y="28.8">. Nervión</tspan></text><text class="43473592-40c1-4b13-8e49-2962a095ccfb" transform="translate(11.41 319.85)">DISTRI<tspan class="fc4acecd-5287-44df-84ea-579f7a4073c4" x="36.06" y="0">T</tspan><tspan x="42.58" y="0">OS DE SEVILL</tspan><tspan class="f1ad5f00-3e00-4b76-a7bb-404d31becb89" x="117.17" y="0">A</tspan></text></g><g id="3ec37d28-d7ed-43d9-a567-8ae421f9da74" data-name="fuente"><text class="ca986555-877d-4ff2-9a07-9865d11e8392" transform="translate(399.67 402.59)">L<tspan class="f1ad5f00-3e00-4b76-a7bb-404d31becb89" x="6.67" y="0">A</tspan><tspan x="14.02" y="0"> </tspan><tspan class="e3792eea-bdc9-4d84-ba19-9e87f6563e6a" x="17.35" y="0">V</tspan><tspan x="24.46" y="0">ANGUARDI</tspan><tspan class="f1ad5f00-3e00-4b76-a7bb-404d31becb89" x="87.8" y="0">A</tspan></text><text class="ca986555-877d-4ff2-9a07-9865d11e8392" transform="translate(9.67 402.59)">Fuente:<tspan class="fc4acecd-5287-44df-84ea-579f7a4073c4" x="40.69" y="0"> </tspan><tspan x="43.81" y="0">TINS</tspan><tspan class="f1ad5f00-3e00-4b76-a7bb-404d31becb89" x="71.14" y="0">A</tspan></text></g><g id="74a938bc-638e-41fc-8230-ed6cb7ee08f1" data-name="Leyenda"><rect class="49e05a58-aa5c-4dc5-a68e-34e3f243ecb7" x="163.75" y="277.5" width="21.25" height="14"/><rect class="f08dfcab-3d3a-4867-afdc-70704b670db9" x="163.75" y="264.5" width="21.25" height="14"/><rect class="c1f9a6fb-285d-4d7e-b92e-fe1e3937c606" x="163.75" y="251.5" width="21.25" height="14"/><rect class="bdcef450-b87b-44d1-bc1a-96affdba44fb" x="163.75" y="237.5" width="21.25" height="14"/><rect class="31e6fb9b-2381-4792-94e4-9cde8f017bd4" x="163.75" y="223.5" width="21.25" height="14"/><rect class="48c0f7f1-a804-42eb-a228-bb4378c43368" x="163.75" y="209.5" width="21.25" height="14"/><text class="1ff7671d-bfe7-43f3-8331-f2c7b592432b" transform="translate(190.41 219.59)">0 - 1.000</text><text class="43473592-40c1-4b13-8e49-2962a095ccfb" transform="translate(10.41 51.85)">PRECIO MEDIO (€/m<tspan class="c22a29bb-fc82-4aa9-8bc9-21dc97e01d00" x="106.34" y="-4">2</tspan><tspan x="110.24" y="0" xml:space="preserve">)     </tspan></text><text class="1ff7671d-bfe7-43f3-8331-f2c7b592432b" transform="translate(190.41 233.59)">1.000 - 2.000</text><text class="1ff7671d-bfe7-43f3-8331-f2c7b592432b" transform="translate(190.41 247.59)">2.000 - 3.000</text><text class="1ff7671d-bfe7-43f3-8331-f2c7b592432b" transform="translate(190.41 261.59)">3.000 - 4.000</text><text class="1ff7671d-bfe7-43f3-8331-f2c7b592432b" transform="translate(190.41 274.59)">4.000 - 5.000</text><text class="1ff7671d-bfe7-43f3-8331-f2c7b592432b" transform="translate(190.41 288.59)">5.000 - 6.000</text><rect class="d55c52cf-b2bd-4a53-8dac-0ea3473696af" x="399.75" y="277.5" width="21.25" height="14"/><rect class="77d89b2e-38f0-4dc4-9629-5918ddd2e441" x="399.75" y="264.5" width="21.25" height="14"/><rect class="31ff7531-4cb6-49d2-b973-1a549e6a8da9" x="399.75" y="251.5" width="21.25" height="14"/><rect class="f42d17f9-f9d4-4d30-9b35-ccf0b5469235" x="399.75" y="237.5" width="21.25" height="14"/><rect class="06101719-deeb-4452-985d-e2668d1446c4" x="399.75" y="223.5" width="21.25" height="14"/><rect class="02f4ca54-e8a5-408a-8d7b-441061238e5b" x="399.75" y="209.5" width="21.25" height="14"/><text class="1ff7671d-bfe7-43f3-8331-f2c7b592432b" transform="translate(426.41 219.59)">Menos de -10%</text><text class="1ff7671d-bfe7-43f3-8331-f2c7b592432b" transform="translate(426.41 233.59)">-10% a -5%</text><text class="1ff7671d-bfe7-43f3-8331-f2c7b592432b" transform="translate(426.41 247.59)">-5% a 0%</text><text class="1ff7671d-bfe7-43f3-8331-f2c7b592432b" transform="translate(426.41 261.59)">0% a 5%</text><text class="1ff7671d-bfe7-43f3-8331-f2c7b592432b" transform="translate(426.41 274.59)">5% a 10%</text><text class="1ff7671d-bfe7-43f3-8331-f2c7b592432b" transform="translate(426.41 288.59)">Más de 10%</text></g><g id="5e2aa45d-69f8-4395-8ebd-6fb96fc8c809" data-name="dibuixos"><g id="a90fbc45-d3b6-4e7f-af0e-ddedaa9ee8f0" data-name="layer1"><path id="cbb157e7-eb38-4c8d-ba6e-9eb02b4f18b2" data-name="path3776" class="85198c87-47e2-41ae-a324-67894b5944be" d="M56.17,267.92a2.29,2.29,0,0,1,.35-.25,7.32,7.32,0,0,0,1.22-1.25c.26-.53.63-1.14.94-1.82a6.76,6.76,0,0,0,.4-1.06,4.46,4.46,0,0,0,.15-1.17v-5.6c0-1,.05-2.2,0-3.39a13.82,13.82,0,0,0-.17-1.72,5.45,5.45,0,0,0-.43-1.43c-.44-.91-.89-1.58-1.23-2.38a6.75,6.75,0,0,1-.42-1.37,9.69,9.69,0,0,1-.15-1.85V232.5a32.93,32.93,0,0,1,.29-3.86,33.37,33.37,0,0,0,.31-3.92,22.6,22.6,0,0,1,.28-3.49c.17-1.1.4-2.17.63-3.35a31.45,31.45,0,0,0,.49-3.86c.09-1.28.11-2.56.11-3.92V199.8c0-2.53-.31-5-.31-7.15a18.54,18.54,0,0,0-.31-3.32c-.18-1-.4-1.94-.58-2.91A8.52,8.52,0,0,0,57,183.8a7.08,7.08,0,0,0-1.38-1.52l-.15,0-4.91,2.92-5.42,2.18a7.58,7.58,0,0,0-1.75,1.22,8,8,0,0,1-1.85,1.28L37,191.71l-.29,4.68a.46.46,0,0,1-.15.32.86.86,0,0,1-.37.2A3.94,3.94,0,0,1,35,197c-.93-.06-2-.26-2.82-.26a3.15,3.15,0,0,0-1.28.43c-.48.25-1,.56-1.43.83s-.51.3-.72.42l-1.06,1.77-1.18,22.45,1.18,18.91L44.2,258l2.35,7.09Z"/><path id="5e9c5d7b-23a6-407f-9bed-daff5a576e51" data-name="path3786" class="35027d35-e9f9-4382-a8a7-942cfc990284" d="M55.41,182.24s.41.34-.69-.8a2.9,2.9,0,0,1-.58-.89,5,5,0,0,1-.29-1,8.63,8.63,0,0,0-.63-2.2c-.23-.48-.47-1.43-.8-2.32a7.59,7.59,0,0,0-.55-1.25,2.07,2.07,0,0,0-.75-.8,9.5,9.5,0,0,1-1.65-1.09,4.19,4.19,0,0,0-1.66-.77,2,2,0,0,1-.71-.43,5.49,5.49,0,0,1-.8-.85,5.31,5.31,0,0,1-.63-1.06,2.8,2.8,0,0,1-.26-1.09c0-.74-.08-1.59-.08-2.42a8.22,8.22,0,0,1,.08-1.2,3.62,3.62,0,0,1,.29-1l2.42-5c.34-.7.67-1.65,1.09-2.57a10.61,10.61,0,0,1,.71-1.32,5,5,0,0,1,.91-1.09l3.6-3.11,3-4.35a11.57,11.57,0,0,1,1.65-1.72A12.24,12.24,0,0,0,60,143a5.85,5.85,0,0,0,.75-1.09l1.8-3.42c.76-1.44,1.09-1.93,1.82-3.43a12.62,12.62,0,0,0,.89-2.17,10.28,10.28,0,0,0,.31-2.82v-5a2.21,2.21,0,0,0-.22-1,3,3,0,0,0-.49-.71,9.38,9.38,0,0,1-1-1.11l-4.34,2.17L58.37,128,40.64,134l-1.17,3.54L35.92,154l-9.45,11.82-1.18,8.28,2.37,7.09,1.18,2.35-1.18,5.91,3.54,4.74-2.48,4.14c.22-.12.42-.23.72-.42s1-.58,1.43-.83a3.15,3.15,0,0,1,1.28-.43c.77,0,1.89.2,2.82.26a3.94,3.94,0,0,0,1.18,0,.86.86,0,0,0,.37-.2.46.46,0,0,0,.15-.32l.29-4.68,4.52-1.86a8,8,0,0,0,1.85-1.28,7.58,7.58,0,0,1,1.75-1.22l5.42-2.18Z"/><path id="63d4616c-69c3-4c66-8067-93de46bb2df5" data-name="path3791" class="85198c87-47e2-41ae-a324-67894b5944be" d="M58.2,188.67c0-.07.07-.12.09-.2a57.57,57.57,0,0,0,5.46-4.55,2.63,2.63,0,0,0,.51-.83A8.7,8.7,0,0,0,64.6,182a13.31,13.31,0,0,1,.65-2.14,9.24,9.24,0,0,1,.94-1.48c.36-.48.75-1,1.14-1.4a13.43,13.43,0,0,0,1.85-2.42,3.84,3.84,0,0,0,.31-1.12,12.36,12.36,0,0,0,.09-1.31,13.9,13.9,0,0,1,.2-2.54,8.53,8.53,0,0,0,.12-2.32c0-.82-.12-1.65-.12-2.35a13.05,13.05,0,0,1,.11-2.49,3.08,3.08,0,0,1,.35-.92,4.88,4.88,0,0,1,.74-.94c.76-.78,1.57-1.38,2-2a1.25,1.25,0,0,0,.32-.85,1.44,1.44,0,0,0-.54-.94l-3-2.8a2.48,2.48,0,0,1-.54-.72,4.26,4.26,0,0,1-.31-.86c-.15-.6-.23-1.24-.37-1.83a.59.59,0,0,0-.46-.49,2,2,0,0,0-.85,0,10.87,10.87,0,0,1-2,.45,1.35,1.35,0,0,1-.92-.54,7.44,7.44,0,0,1-.8-1.12c-.25-.41-.48-.81-.69-1.09s-.41-.44-.58-.37l-3.91,1.55a22.21,22.21,0,0,1-1.82-1.55l-.28-.15L54.41,150l-3.6,3.11a5,5,0,0,0-.91,1.09,10.61,10.61,0,0,0-.71,1.32c-.42.92-.75,1.87-1.09,2.57l-2.42,5a3.62,3.62,0,0,0-.29,1,8.22,8.22,0,0,0-.08,1.2c0,.83.08,1.67.08,2.42a2.8,2.8,0,0,0,.26,1.09,5.31,5.31,0,0,0,.63,1.06,5.49,5.49,0,0,0,.8.85,2,2,0,0,0,.71.43,4.19,4.19,0,0,1,1.66.77A9.5,9.5,0,0,0,51.11,173a2.07,2.07,0,0,1,.75.8,7.59,7.59,0,0,1,.55,1.25c.33.9.57,1.84.8,2.32a8.63,8.63,0,0,1,.63,2.2,5,5,0,0,0,.29,1,2.9,2.9,0,0,0,.58.89c1.1,1.14.69.8.69.8l.15,0A7.08,7.08,0,0,1,57,183.8a8.52,8.52,0,0,1,.78,2.62C57.88,187.17,58,187.91,58.2,188.67Z"/><path id="2ad2a27f-8f4e-4033-a1c6-b1c6c777cbfa" data-name="path3799" class="35027d35-e9f9-4382-a8a7-942cfc990284" d="M73.28,157.85l.4.23a.66.66,0,0,0,.26.45.46.46,0,0,0,.42,0,4.33,4.33,0,0,0,1.18-1,34,34,0,0,1,2.65-2.85c.71-.55,1.23-1.14,1.88-1.65a5.67,5.67,0,0,1,1.11-.68,6.42,6.42,0,0,1,1.52-.49l3.31-.63,0-.23-.62-4.74-1.49-3.72c-.19-.48-.5-1.31-.75-2.18a9.94,9.94,0,0,1-.46-2.49,6.31,6.31,0,0,0-.34-2,10.9,10.9,0,0,0-.78-1.74c-.3-.56-.63-1.09-.91-1.65A8,8,0,0,1,80,130.7l-1.2-5c-.07-.31-.23-.45-.45-.46a1.23,1.23,0,0,0-.75.34,4.4,4.4,0,0,0-.83,1,6,6,0,0,0-.68,1.35l-1.49,4.35a.81.81,0,0,1-.63.46,5.6,5.6,0,0,1-1,.12,3.83,3.83,0,0,0-1,.14.7.7,0,0,0-.31.18.5.5,0,0,0-.11.34,8.57,8.57,0,0,1-.06,2.25.78.78,0,0,1-.52.48,3.52,3.52,0,0,1-1.22.08L64.15,136l-.25-.09c-.44.85-.8,1.5-1.37,2.58l-1.8,3.42A5.85,5.85,0,0,1,60,143a12.24,12.24,0,0,1-.91.92,11.57,11.57,0,0,0-1.65,1.72l-1.18,1.71.28.15a22.21,22.21,0,0,0,1.82,1.55l3.91-1.55c.18-.07.37.09.58.37s.44.69.69,1.09a7.44,7.44,0,0,0,.8,1.12,1.35,1.35,0,0,0,.92.54,10.87,10.87,0,0,0,2-.45,2,2,0,0,1,.85,0,.59.59,0,0,1,.46.49c.14.59.22,1.23.37,1.83a4.26,4.26,0,0,0,.31.86,2.48,2.48,0,0,0,.54.72l3,2.8a1.44,1.44,0,0,1,.54.94S73.28,157.83,73.28,157.85Z"/><path id="b9c41d4c-dfd8-41fa-b1ff-e8c62cc3e907" data-name="path3806" class="35027d35-e9f9-4382-a8a7-942cfc990284" d="M86,151.22l1.51-.29h5.12l4.2.31,3.62-1.25,3.31-4.66,4.82-1.25a12.27,12.27,0,0,1,2.55-.31c.9,0,1.8,0,2.55,0a5.37,5.37,0,0,0,1.46-.23,13.25,13.25,0,0,0,1.48-.54,22.74,22.74,0,0,1,2.79-1.09,4.59,4.59,0,0,0,1.2-.54c.4-.24.81-.54,1.23-.85a14.91,14.91,0,0,1,2.68-1.72l6.32-2.8,4.51-2.49,6.32-1.55,4.82-1.57a7.22,7.22,0,0,0,1.69-.85c.58-.38,1.16-.83,1.75-1.29s1.19-.95,1.77-1.38a13.93,13.93,0,0,1,1.71-1.14l6.91-3.74a56.07,56.07,0,0,0,4.52-3.42l3.31-2.8a15.38,15.38,0,0,1,2.6-1.35l-11.94-13.54-15.36-8.28-10.63-1.17-21.28-5.92L70.18,87.86l-5.91,3.55L54.83,89,44.2,96.14,30,91.41l-3.54,2.35L24.1,96.14v8.26l3.55,5.91,1.18,5.91,2.35,10.65L34.75,128l4.72-1.17,1.17-3.55-1.17-22.45L43,96.14l4.72,14.17,16.54,11.82-.38.2a9.38,9.38,0,0,0,1,1.11,3,3,0,0,1,.49.71,2.21,2.21,0,0,1,.22,1v5a10.28,10.28,0,0,1-.31,2.82,12.62,12.62,0,0,1-.89,2.17c-.18.37-.3.57-.45.85l.25.09,5.62.31a3.52,3.52,0,0,0,1.22-.08.78.78,0,0,0,.52-.48,8.57,8.57,0,0,0,.06-2.25.5.5,0,0,1,.11-.34A.7.7,0,0,1,72,133a3.83,3.83,0,0,1,1-.14,5.6,5.6,0,0,0,1-.12.81.81,0,0,0,.63-.46l1.49-4.35a6,6,0,0,1,.68-1.35,4.4,4.4,0,0,1,.83-1,1.23,1.23,0,0,1,.75-.34c.21,0,.37.15.45.46l1.2,5a8,8,0,0,0,.68,1.74c.28.55.61,1.09.91,1.65a10.9,10.9,0,0,1,.78,1.74,6.31,6.31,0,0,1,.34,2,9.94,9.94,0,0,0,.46,2.49c.25.87.56,1.7.75,2.18l1.49,3.72L86,151Z"/><path id="b8ae457a-0e35-416c-aeaf-4793be42f9c4" data-name="path3811" class="35027d35-e9f9-4382-a8a7-942cfc990284" d="M113.65,221.36a17.2,17.2,0,0,0-2.15-1.12c-.45-.22-.9-.45-1.31-.69a5,5,0,0,1-1-.75,16,16,0,0,0-2.82-1.94c-1.14-.67-2.24-1.26-2.6-1.48l-3.6-2.18a.73.73,0,0,0-.4-.12.41.41,0,0,0-.28.14,2.3,2.3,0,0,0-.42.85c-.12.36-.23.78-.38,1.18a3.2,3.2,0,0,1-.63,1.08,1.44,1.44,0,0,1-.85.43,3.33,3.33,0,0,1-.92,0,6.79,6.79,0,0,0-1-.08,2.51,2.51,0,0,0-1.11.28l-3,1.55a2.74,2.74,0,0,1-1.25.26,9.22,9.22,0,0,1-1.42-.12c-.49-.07-1-.16-1.45-.2a4,4,0,0,0-1.31.06,6.63,6.63,0,0,0-1.6.77c-.58.35-1.18.75-1.72,1.08A4.3,4.3,0,0,1,81,221a.6.6,0,0,1-.46-.11.7.7,0,0,1-.22-.49l-.6-5.29a23.74,23.74,0,0,1,0-2.57.38.38,0,0,0-.34-.38,3.78,3.78,0,0,0-1.15.15l-4.22.92a2.21,2.21,0,0,0-.88.55c-.3.27-.61.6-.88.89a4.49,4.49,0,0,1-.68.65c-.08.05-.15.06-.2,0s-.08-.11-.08-.25a1.79,1.79,0,0,1,.28-.89,8.56,8.56,0,0,1,.58-.85,4.58,4.58,0,0,0,.54-.82,1.33,1.33,0,0,0,.11-.88c-.15-.63-.37-1.48-.66-2.32A9.23,9.23,0,0,0,71,207c-.44-.61-.84-1.16-1.18-1.75a10.5,10.5,0,0,1-.92-2l-1.51-4.35a23.69,23.69,0,0,0-.69-2.31c-.1-.09-.25-.09-.55,0a14.65,14.65,0,0,1-1.46.17l-5.83.35c.06.95.12,1.78.12,2.75v10.28c0,1.37,0,2.65-.11,3.92a31.45,31.45,0,0,1-.49,3.86c-.23,1.19-.46,2.26-.63,3.35a22.6,22.6,0,0,0-.28,3.49,33.37,33.37,0,0,1-.31,3.92,32.93,32.93,0,0,0-.29,3.86v12.14a9.69,9.69,0,0,0,.15,1.85,6.75,6.75,0,0,0,.42,1.37c.34.81.79,1.47,1.23,2.38a5.45,5.45,0,0,1,.43,1.43,13.82,13.82,0,0,1,.17,1.72c.05,1.19,0,2.42,0,3.39v5.6a4.46,4.46,0,0,1-.15,1.17,6.76,6.76,0,0,1-.4,1.06c-.31.68-.68,1.28-.94,1.82a7.32,7.32,0,0,1-1.22,1.25,2.29,2.29,0,0,0-.35.25l27,7.85,5.91-14.17,7.09-8.28,1.18-5.91Z"/><path id="acfbfe6f-9423-457d-a4aa-6aa74eee69ac" data-name="path3821" class="31e6fb9b-2381-4792-94e4-9cde8f017bd4" d="M108.05,203.66l-.17-.06-5-2.86c-2.33-1.33-2.09-1.39-4.22-2.49l-4.22-2.18a2.74,2.74,0,0,0-.77-.28.79.79,0,0,0-.48,0,.9.9,0,0,0-.42.65,2.54,2.54,0,0,1-.26.77.43.43,0,0,1-.29.17.94.94,0,0,1-.49-.09c-.45-.19-.85-.34-1.15-.49a1.75,1.75,0,0,1-.65-.49.61.61,0,0,1-.06-.62,3,3,0,0,1,.66-.88,2,2,0,0,0,.55-1,1.59,1.59,0,0,0-.11-1,3,3,0,0,0-.72-.94,6.3,6.3,0,0,0-1.23-.85l-5.11-2.8a18.79,18.79,0,0,0-2.42-1.17,23,23,0,0,0-2.4-.71l-4.82-1.25a3.46,3.46,0,0,1-1.29-.63,8.14,8.14,0,0,1-1-.92,7.55,7.55,0,0,0-1-.91,3.49,3.49,0,0,0-1.31-.65l-4.71-1.18-.11,0c-.11.4-.24.75-.35,1.17a8.7,8.7,0,0,1-.34,1.08,2.63,2.63,0,0,1-.51.83,57.57,57.57,0,0,1-5.46,4.55c0,.08-.07.13-.09.2s.08.42.12.65a18.54,18.54,0,0,1,.31,3.32c0,1.31.1,2.89.18,4.4l5.83-.35a14.65,14.65,0,0,0,1.46-.17c.3,0,.46,0,.55,0a23.69,23.69,0,0,1,.69,2.31l1.51,4.35a10.5,10.5,0,0,0,.92,2c.35.59.74,1.14,1.18,1.75a9.23,9.23,0,0,1,1.14,2.34c.29.85.51,1.69.66,2.32a1.33,1.33,0,0,1-.11.88,4.58,4.58,0,0,1-.54.82,8.56,8.56,0,0,0-.58.85,1.79,1.79,0,0,0-.28.89c0,.14,0,.21.08.25s.12,0,.2,0a4.49,4.49,0,0,0,.68-.65c.27-.29.57-.62.88-.89a2.21,2.21,0,0,1,.88-.55l4.22-.92a3.78,3.78,0,0,1,1.15-.15.38.38,0,0,1,.34.38,23.74,23.74,0,0,0,0,2.57l.6,5.29a.7.7,0,0,0,.22.49h0A.59.59,0,0,0,81,221a4.3,4.3,0,0,0,1.42-.63c.55-.33,1.15-.73,1.72-1.08a6.63,6.63,0,0,1,1.6-.77,4,4,0,0,1,1.31-.06c.47,0,1,.13,1.45.2a9.22,9.22,0,0,0,1.42.12,2.74,2.74,0,0,0,1.25-.26l3-1.55a2.51,2.51,0,0,1,1.11-.28,6.79,6.79,0,0,1,1,.08,3.33,3.33,0,0,0,.92,0,1.44,1.44,0,0,0,.85-.43,3.2,3.2,0,0,0,.63-1.08c.16-.4.27-.82.38-1.18a2.3,2.3,0,0,1,.42-.85.41.41,0,0,1,.28-.14.73.73,0,0,1,.4.12l3.6,2.18c.36.22,1.46.81,2.6,1.48a16,16,0,0,1,2.82,1.94,5,5,0,0,0,1,.75c.41.24.86.47,1.31.69a17.2,17.2,0,0,1,2.15,1.12L115.1,219l3.54-9.46-2.35-2.37L108,203.68Z"/><path id="a6cfa675-daa5-45ba-83b8-285344147822" data-name="path3804" class="2f37bc4b-824c-49fd-9e87-dd6d80349d30" d="M170.75,114.4a15.38,15.38,0,0,0-2.6,1.35l-3.31,2.8a56.07,56.07,0,0,1-4.52,3.42l-6.91,3.74a13.93,13.93,0,0,0-1.71,1.14c-.58.44-1.18.92-1.77,1.38s-1.18.92-1.75,1.29a7.22,7.22,0,0,1-1.69.85l-4.82,1.57-6.32,1.55L130.84,136l-6.32,2.8a14.91,14.91,0,0,0-2.68,1.72c-.42.31-.83.6-1.23.85a4.59,4.59,0,0,1-1.2.54,22.74,22.74,0,0,0-2.79,1.09,13.25,13.25,0,0,1-1.48.54,5.37,5.37,0,0,1-1.46.23c-.76,0-1.65,0-2.55,0a12.27,12.27,0,0,0-2.55.31l-4.82,1.25L100.45,150l-3.62,1.25-4.2-.31H87.51l-1.51.29-3.31.63a6.42,6.42,0,0,0-1.52.49,5.67,5.67,0,0,0-1.11.68c-.65.5-1.17,1.1-1.88,1.65a34,34,0,0,0-2.65,2.85,4.33,4.33,0,0,1-1.18,1,.46.46,0,0,1-.42,0,.66.66,0,0,1-.26-.45c-.17,0-.32,0-.49,0a1.19,1.19,0,0,1-.2.54c-.44.57-1.26,1.17-2,2a4.88,4.88,0,0,0-.74.94,3.08,3.08,0,0,0-.35.92,13.05,13.05,0,0,0-.11,2.49c0,.7.08,1.53.12,2.35a8.53,8.53,0,0,1-.12,2.32,13.9,13.9,0,0,0-.2,2.54,12.36,12.36,0,0,1-.09,1.31,3.84,3.84,0,0,1-.31,1.12A13.43,13.43,0,0,1,67.32,177c-.38.45-.78.92-1.14,1.4a9.24,9.24,0,0,0-.94,1.48,6.8,6.8,0,0,0-.29,1l.11,0,4.71,1.18a3.49,3.49,0,0,1,1.31.65,7.55,7.55,0,0,1,1,.91,8.14,8.14,0,0,0,1,.92,3.46,3.46,0,0,0,1.29.63l4.82,1.25a23,23,0,0,1,2.4.71,18.79,18.79,0,0,1,2.42,1.17l5.11,2.8a6.3,6.3,0,0,1,1.23.85,3,3,0,0,1,.72.94,1.59,1.59,0,0,1,.11,1,2,2,0,0,1-.55,1,3,3,0,0,0-.66.88.61.61,0,0,0,.06.62,1.75,1.75,0,0,0,.65.49c.31.16.7.3,1.15.49a.94.94,0,0,0,.49.09.43.43,0,0,0,.29-.17,2.54,2.54,0,0,0,.26-.77.9.9,0,0,1,.42-.65.79.79,0,0,1,.48,0,2.74,2.74,0,0,1,.77.28l4.22,2.18c2.13,1.1,1.88,1.16,4.22,2.49l5,2.86.17.06,41.31-11.8,2.37-2.37,4.72,1.18,18.89-13h43.73l5.91,1.18,24.82-3.54V164.67L227.36,167,199,156.41l-5.91-5.91-3.54-10.63-13-18.91Z"/><path id="b358d051-fb92-4046-8492-523bf5be2e55" data-name="path2362" class="2f37bc4b-824c-49fd-9e87-dd6d80349d30" d="M73.19,158.09c.17,0,.32,0,.49,0l-.4-.23C73.28,157.93,73.2,158,73.19,158.09Z"/><g class="f6fbd95d-62e2-441c-966a-e7bfb310b482"><path id="5705dc57-a06c-4d06-bbaf-a734d7d2bc44" data-name="path2514" class="bdcef450-b87b-44d1-bc1a-96affdba44fb" d="M28.83,276.95l-4.73,5.91-5.91,5.91-4.73,2.36,1.18-13,4.73-3.55,5.91-5.91L30,267.49l4.73,4.73-5.91,4.73"/></g><rect class="74904b5e-e76d-41a9-9f87-1868ec9a792d" x="-3352.27" y="-1743.83" width="7314.13" height="3886.5"/><g id="5e291b0f-7054-4e17-9ba6-d0664bf2587f" data-name="g9349"><rect class="74904b5e-e76d-41a9-9f87-1868ec9a792d" x="-3352.27" y="-1743.83" width="7314.13" height="3886.5"/><rect class="74904b5e-e76d-41a9-9f87-1868ec9a792d" x="-3352.27" y="-1743.83" width="7314.13" height="3886.5"/><rect class="74904b5e-e76d-41a9-9f87-1868ec9a792d" x="-3352.27" y="-1743.83" width="7314.13" height="3886.5"/><rect class="74904b5e-e76d-41a9-9f87-1868ec9a792d" x="-3352.27" y="-1743.83" width="7314.13" height="3886.5"/><rect class="74904b5e-e76d-41a9-9f87-1868ec9a792d" x="-3352.27" y="-1743.83" width="7314.13" height="3886.5"/><rect class="74904b5e-e76d-41a9-9f87-1868ec9a792d" x="-3352.27" y="-1743.83" width="7314.13" height="3886.5"/><rect class="74904b5e-e76d-41a9-9f87-1868ec9a792d" x="-3352.27" y="-1743.83" width="7314.13" height="3886.5"/><rect class="74904b5e-e76d-41a9-9f87-1868ec9a792d" x="-3352.27" y="-1743.83" width="7314.13" height="3886.5"/><rect class="74904b5e-e76d-41a9-9f87-1868ec9a792d" x="-3352.27" y="-1743.83" width="7314.13" height="3886.5"/><rect class="74904b5e-e76d-41a9-9f87-1868ec9a792d" x="-3352.27" y="-1743.83" width="7314.13" height="3886.5"/></g><g id="50c6bbf5-552d-400d-8d6a-6525ec5f6af4" data-name="g4425"><path id="4b9a68a7-c21e-4278-9871-235865fb8c39" data-name="path4405" class="4755854c-7feb-47f4-86fa-1dd6c98a7451" d="M63.8,122.22c.47.88,1.75,1.4,1.75,2.87v5a9.07,9.07,0,0,1-1.2,5c-.73,1.5-1,2-1.81,3.42l-1.81,3.42c-.86,1.63-2.46,2.5-3.31,3.74l-3,4.36-3.61,3.11c-1.37,1.18-2,3.58-2.71,5l-2.41,5c-.61,1.25-.3,3.18-.3,4.67a4.6,4.6,0,0,0,2.41,3.42c1.71.44,1.61,1,3.31,1.87,1.13.59,1.64,3.4,2.11,4.36.79,1.63.41,2.91,1.5,4,2.11,2.18,2.38,1.73,3,5a29.31,29.31,0,0,1,.9,6.23c0,2.13.3,4.63.3,7.16v10.27a39.6,39.6,0,0,1-.6,7.78,33.52,33.52,0,0,0-.9,6.85c0,2.69-.6,5.17-.6,7.78v12.14c0,2.93.92,3.77,1.81,5.6.79,1.63.6,4.61.6,6.54v5.6c0,1.62-1,3-1.5,4a7.26,7.26,0,0,1-1.2,1.25"/><path id="f19c5f5f-77d3-4294-b59d-c14d3299acaf" data-name="path4407" class="4755854c-7feb-47f4-86fa-1dd6c98a7451" d="M28.24,198.25c-.62,1.29,2.51-1.56,3.91-1.56s4.44.81,4.51-.31l.3-4.67,4.51-1.87c1.25-.52,2.49-2,3.61-2.49l5.42-2.18,4.91-2.93"/><path id="1453495c-9045-4d7c-bf4b-479b0b55a615" data-name="path4409" class="4755854c-7feb-47f4-86fa-1dd6c98a7451" d="M58.29,188.47a57.32,57.32,0,0,0,5.46-4.54c.83-.86,1-2.9,1.5-4,1-2,3.23-3.88,3.91-5.29s.26-3.57.6-5,0-3.26,0-4.67c0-2.18-.1-3,1.2-4.36,1.52-1.57,3.25-2.39,1.81-3.74l-3-2.8c-.92-.85-.92-2.25-1.2-3.42s-2.14,0-3.31,0-2.3-3.39-3-3.11l-3.91,1.56a22.09,22.09,0,0,1-1.81-1.56"/><path id="6899310b-7bed-4bad-823d-63ad493e1172" data-name="path4411" class="4755854c-7feb-47f4-86fa-1dd6c98a7451" d="M64.15,136l5.61.31c2.24.12,1.81-.65,1.81-2.8,0-1.12,2.65-.22,3-1.25l1.5-4.36c.69-2,2.41-3.41,2.71-2.18l1.2,5c.59,2.45,2.71,4.19,2.71,7.16a16.14,16.14,0,0,0,1.2,4.67l1.5,3.74L86,151"/><path id="7541c8f6-71a0-4e29-a655-e781fc57968e" data-name="path4413" class="4755854c-7feb-47f4-86fa-1dd6c98a7451" d="M73.68,158.09c.45,1.87,3-2.27,4.51-3.42s2.07-2.33,4.51-2.8l4.81-.93h5.11l4.21.31,3.61-1.25,3.31-4.67,4.81-1.25a22.87,22.87,0,0,1,5.11-.31c1.9,0,4-1.43,5.72-1.87s3.2-2.27,5.11-3.11l6.32-2.8,4.51-2.49,6.32-1.56,4.81-1.56c2.19-.71,4.7-3.47,6.92-4.67l6.92-3.74c.68-.37,7.82-6.23,7.82-6.23a17.45,17.45,0,0,1,3-1.56"/><path id="ac014a17-d7d6-41f1-b571-3cf681da1c0d" data-name="path4415" class="4755854c-7feb-47f4-86fa-1dd6c98a7451" d="M58.54,197.06l6.11-.37c2.81-.17,1.65-.9,2.71,2.18l1.5,4.36A13.29,13.29,0,0,0,71,207a14.38,14.38,0,0,1,1.81,4.67c.29,1.22-1.5,2.17-1.5,3.42s1.62-1.63,2.71-1.87l4.21-.93c2.26-.5,1.21.19,1.5,2.8l.6,5.29c.22,2,3.57-1.39,5.42-1.87,1.59-.41,4,.76,5.42,0l3-1.56c1.53-.79,2.87.46,3.91-.62s.91-3.84,2.11-3.11l3.61,2.18c.71.43,4.39,2.36,5.42,3.42s3.68,1.93,4.55,2.61"/><path id="2a618693-ef60-49c7-86c1-9b95c2a445d4" data-name="path4417" class="4755854c-7feb-47f4-86fa-1dd6c98a7451" d="M65.05,180.88l4.71,1.18c2.16.54,2.4,2.57,4.51,3.11l4.81,1.25a15.9,15.9,0,0,1,4.81,1.87l5.11,2.8c2,1.07,2.74,2.46,1.5,3.74-1.39,1.44-.61,1.74,1.2,2.49s.2-2.54,2.71-1.25l4.21,2.18c2.13,1.1,1.88,1.16,4.21,2.49l5,2.86"/><path id="d81d723c-8792-4cf9-89bd-a9873469875e" data-name="path4419" class="4755854c-7feb-47f4-86fa-1dd6c98a7451" d="M89.62,191.71c.22-.46,2.78-2.9,3.61-4a6.15,6.15,0,0,0,1.5-3.74l.9-5.6c.23-1.43,1.44-4.44,0-4.67L91.73,173l-5.11-.31c-1.6-.1-4.19.7-4.81-.31L79.69,169a16,16,0,0,0-2.41-2.8c-1.32-1.37-1.13,2.13-2.41.93l-3-2.8a19.59,19.59,0,0,0-2.2-.25"/><path id="ba93b529-a392-406e-82d6-264573262682" data-name="path4421" class="4755854c-7feb-47f4-86fa-1dd6c98a7451" d="M96.24,174l6.32.56h5.72l6,.62h12l4.81.93,6.32.62c1.8.18,2.11-1.42,2.11,1.56,0,1.71-1.61,1.15.9,2.8l3.31,2.18v5.6c0,1.14-.25,2.78-.25,3.92"/><path id="a1839e97-5bd0-4cfa-935d-2f69d62e31e6" data-name="path4423" class="4755854c-7feb-47f4-86fa-1dd6c98a7451" d="M116.7,175.52l-2.11-7.16-1.2-3.74a37.75,37.75,0,0,1-1.2-5.91l-.6-5-1.5-5-1.5-3.74c-.09-.21-.2-.42-.3-.62"/></g><g class="f6fbd95d-62e2-441c-966a-e7bfb310b482"><path id="d2c3263b-3117-45ce-98f5-40424fcc819a" data-name="path3773" class="087c2b9b-0001-49ce-a4fd-937827fc500f" d="M26.47,93.77,30,91.41l14.18,4.73L54.83,89l9.45,2.36,5.91-3.55,41.36-2.36,21.27,5.91,10.64,1.18,15.36,8.27L176.54,121l13,18.91,3.54,10.64,5.91,5.91L227.35,167l22.45-2.36v10.64L225,178.86l-5.91-1.18H175.36l-18.91,13-4.73-1.18-2.36,2.36L108,203.68l8.27,3.55,2.36,2.36L115.1,219,97.37,247.4l-1.18,5.91-7.09,8.27-5.91,14.18L46.56,265.13,44.19,258,27.65,241.49l-1.18-18.91,1.18-22.45,3.54-5.91-3.54-4.73,1.18-5.91-1.18-2.36-2.36-7.09,1.18-8.27L35.92,154l3.54-16.55L40.65,134,58.37,128l1.18-3.55,4.73-2.36L47.74,110.32,43,96.13l-3.55,4.73,1.18,22.45-1.18,3.55L34.74,128l-3.55-1.18-2.36-10.64-1.18-5.91-3.54-5.91V96.13l2.36-2.36"/></g><rect class="74904b5e-e76d-41a9-9f87-1868ec9a792d" x="-3352.27" y="-1743.83" width="7314.13" height="3886.5"/><g class="f6fbd95d-62e2-441c-966a-e7bfb310b482"><path id="0dd9fdd1-cbb1-4c0c-99b7-84813346acfa" data-name="path3778" class="087c2b9b-0001-49ce-a4fd-937827fc500f" d="M28.83,276.95l-4.73,5.91-5.91,5.91-4.73,2.36,1.18-13,4.73-3.55,5.91-5.91L30,267.49l4.73,4.73-5.91,4.73"/></g><rect class="74904b5e-e76d-41a9-9f87-1868ec9a792d" x="-3352.27" y="-1743.83" width="7314.13" height="3886.5"/></g><path class="85198c87-47e2-41ae-a324-67894b5944be" d="M65.48,180.49s4.61-5.41,4.19-9.76c.09-3.06.51-6.23.51-6.23h.94s5.06,4.88,4.88,2.44c.58-1.12,1.1-1.14,1.87.09s3,5,4.24,5.92c1.52,1,3.34-.74,6,.1,3.53-.19,7,0,7.67.9s.26,3.7,0,4.17-1.37,7.42-1.37,7.42-3,6.08-4.26,5.68S84.29,189,84.29,189s-5-2.55-6.73-2.69C75,186,72.38,185,71.75,183.67c-1.25-1.66-6.7-2.87-6.7-2.87Z"/><g id="7481fbb5-1b09-414f-ba54-15f2dafb303e" data-name="layer1"><path id="92fd61bd-0bc7-4d02-b275-36ef582781c8" data-name="path3776" class="e12c2b91-c490-4a85-80eb-56aa97ead358" d="M303.51,264.86a2.29,2.29,0,0,1,.35-.25,7.32,7.32,0,0,0,1.22-1.25c.26-.53.63-1.14.94-1.82a6.76,6.76,0,0,0,.4-1.06,4.46,4.46,0,0,0,.15-1.17v-5.6c0-1,.05-2.2,0-3.39a13.82,13.82,0,0,0-.17-1.72,5.45,5.45,0,0,0-.43-1.43c-.44-.91-.89-1.58-1.23-2.38a6.75,6.75,0,0,1-.42-1.37,9.69,9.69,0,0,1-.15-1.85V229.44a32.93,32.93,0,0,1,.29-3.86,33.37,33.37,0,0,0,.31-3.92,22.6,22.6,0,0,1,.28-3.49c.17-1.1.4-2.17.63-3.35a31.45,31.45,0,0,0,.49-3.86c.09-1.28.11-2.56.11-3.92V196.74c0-2.53-.31-5-.31-7.15a18.54,18.54,0,0,0-.31-3.32c-.18-1-.4-1.94-.58-2.91a8.52,8.52,0,0,0-.78-2.62,7.08,7.08,0,0,0-1.38-1.52l-.15,0-4.91,2.92-5.42,2.18a7.58,7.58,0,0,0-1.75,1.22,8,8,0,0,1-1.85,1.28l-4.52,1.86-.29,4.68a.46.46,0,0,1-.15.32.86.86,0,0,1-.37.2,3.94,3.94,0,0,1-1.18,0c-.93-.06-2-.26-2.82-.26a3.15,3.15,0,0,0-1.28.43c-.48.25-1,.56-1.43.83s-.51.3-.72.42L275,197.08l-1.18,22.45L275,238.44,291.54,255l2.35,7.09Z"/><path id="72bf008f-8d13-4abb-94c8-e81209b69286" data-name="path3786" class="88f06cbd-fbf3-427a-a7d6-7e6d79bc7b67" d="M302.76,179.18s.41.34-.69-.8a2.9,2.9,0,0,1-.58-.89,5,5,0,0,1-.29-1,8.63,8.63,0,0,0-.63-2.2c-.23-.48-.47-1.43-.8-2.32a7.59,7.59,0,0,0-.55-1.25,2.07,2.07,0,0,0-.75-.8,9.5,9.5,0,0,1-1.65-1.09,4.19,4.19,0,0,0-1.66-.77,2,2,0,0,1-.71-.43,5.49,5.49,0,0,1-.8-.85,5.31,5.31,0,0,1-.63-1.06,2.8,2.8,0,0,1-.26-1.09c0-.74-.08-1.59-.08-2.42a8.22,8.22,0,0,1,.08-1.2,3.62,3.62,0,0,1,.29-1l2.42-5c.34-.7.67-1.65,1.09-2.57a10.61,10.61,0,0,1,.71-1.32,5,5,0,0,1,.91-1.09l3.6-3.11,3-4.35a11.57,11.57,0,0,1,1.65-1.72,12.24,12.24,0,0,0,.91-.92,5.85,5.85,0,0,0,.75-1.09l1.8-3.42c.76-1.44,1.09-1.93,1.82-3.43a12.62,12.62,0,0,0,.89-2.17,10.28,10.28,0,0,0,.31-2.82v-5a2.21,2.21,0,0,0-.22-1,3,3,0,0,0-.49-.71,9.38,9.38,0,0,1-1-1.11l-4.34,2.17L305.71,125,288,130.9l-1.17,3.54L283.26,151l-9.45,11.82-1.18,8.28,2.37,7.09,1.18,2.35L275,186.43l3.54,4.74-2.48,4.14c.22-.12.42-.23.72-.42s1-.58,1.43-.83a3.15,3.15,0,0,1,1.28-.43c.77,0,1.89.2,2.82.26a3.94,3.94,0,0,0,1.18,0,.86.86,0,0,0,.37-.2.46.46,0,0,0,.15-.32l.29-4.68,4.52-1.86a8,8,0,0,0,1.85-1.28,7.58,7.58,0,0,1,1.75-1.22l5.42-2.18Z"/><path id="a5aa55bb-ab18-48c8-adbb-5eb0e158b8af" data-name="path3791" class="88f06cbd-fbf3-427a-a7d6-7e6d79bc7b67" d="M305.54,185.61c0-.07.07-.12.09-.2a57.57,57.57,0,0,0,5.46-4.55,2.63,2.63,0,0,0,.51-.83,8.7,8.7,0,0,0,.34-1.08,13.31,13.31,0,0,1,.65-2.14,9.24,9.24,0,0,1,.94-1.48c.36-.48.75-1,1.14-1.4a13.43,13.43,0,0,0,1.85-2.42,3.84,3.84,0,0,0,.31-1.12,12.36,12.36,0,0,0,.09-1.31,13.9,13.9,0,0,1,.2-2.54,8.53,8.53,0,0,0,.12-2.32c0-.82-.12-1.65-.12-2.35a13.05,13.05,0,0,1,.11-2.49,3.08,3.08,0,0,1,.35-.92,4.88,4.88,0,0,1,.74-.94c.76-.78,1.57-1.38,2-2a1.25,1.25,0,0,0,.32-.85,1.44,1.44,0,0,0-.54-.94l-3-2.8a2.48,2.48,0,0,1-.54-.72,4.26,4.26,0,0,1-.31-.86c-.15-.6-.23-1.24-.37-1.83a.59.59,0,0,0-.46-.49,2,2,0,0,0-.85,0,10.87,10.87,0,0,1-2,.45,1.35,1.35,0,0,1-.92-.54,7.44,7.44,0,0,1-.8-1.12c-.25-.41-.48-.81-.69-1.09s-.41-.44-.58-.37L305.68,146a22.21,22.21,0,0,1-1.82-1.55l-.28-.15-1.83,2.65-3.6,3.11a5,5,0,0,0-.91,1.09,10.61,10.61,0,0,0-.71,1.32c-.42.92-.75,1.87-1.09,2.57L293,160a3.62,3.62,0,0,0-.29,1,8.22,8.22,0,0,0-.08,1.2c0,.83.08,1.67.08,2.42a2.8,2.8,0,0,0,.26,1.09,5.31,5.31,0,0,0,.63,1.06,5.49,5.49,0,0,0,.8.85,2,2,0,0,0,.71.43,4.19,4.19,0,0,1,1.66.77,9.5,9.5,0,0,0,1.65,1.09,2.07,2.07,0,0,1,.75.8,7.59,7.59,0,0,1,.55,1.25c.33.9.57,1.84.8,2.32a8.63,8.63,0,0,1,.63,2.2,5,5,0,0,0,.29,1,2.9,2.9,0,0,0,.58.89c1.1,1.14.69.8.69.8l.15,0a7.08,7.08,0,0,1,1.38,1.52,8.52,8.52,0,0,1,.78,2.62C305.23,184.11,305.39,184.85,305.54,185.61Z"/><path id="b00b4da5-0b0d-4994-86ba-742a84a8e03e" data-name="path3799" class="e12c2b91-c490-4a85-80eb-56aa97ead358" d="M320.62,154.79l.4.23a.66.66,0,0,0,.26.45.46.46,0,0,0,.42,0,4.33,4.33,0,0,0,1.18-1,34,34,0,0,1,2.65-2.85c.71-.55,1.23-1.14,1.88-1.65a5.67,5.67,0,0,1,1.11-.68,6.42,6.42,0,0,1,1.52-.49l3.31-.63,0-.23-.62-4.74-1.49-3.72c-.19-.48-.5-1.31-.75-2.18a9.94,9.94,0,0,1-.46-2.49,6.31,6.31,0,0,0-.34-2,10.9,10.9,0,0,0-.78-1.74c-.3-.56-.63-1.09-.91-1.65a8,8,0,0,1-.68-1.74l-1.2-5c-.07-.31-.23-.45-.45-.46a1.23,1.23,0,0,0-.75.34,4.4,4.4,0,0,0-.83,1,6,6,0,0,0-.68,1.35l-1.49,4.35a.81.81,0,0,1-.63.46,5.6,5.6,0,0,1-1,.12,3.83,3.83,0,0,0-1,.14.7.7,0,0,0-.31.18.5.5,0,0,0-.11.34,8.57,8.57,0,0,1-.06,2.25.78.78,0,0,1-.52.48,3.52,3.52,0,0,1-1.22.08l-5.62-.31-.25-.09c-.44.85-.8,1.5-1.37,2.58l-1.8,3.42a5.85,5.85,0,0,1-.75,1.09,12.24,12.24,0,0,1-.91.92,11.57,11.57,0,0,0-1.65,1.72l-1.18,1.71.28.15a22.21,22.21,0,0,0,1.82,1.55l3.91-1.55c.18-.07.37.09.58.37s.44.69.69,1.09a7.44,7.44,0,0,0,.8,1.12,1.35,1.35,0,0,0,.92.54,10.87,10.87,0,0,0,2-.45,2,2,0,0,1,.85,0,.59.59,0,0,1,.46.49c.14.59.22,1.23.37,1.83a4.26,4.26,0,0,0,.31.86,2.48,2.48,0,0,0,.54.72l3,2.8a1.44,1.44,0,0,1,.54.94S320.62,154.77,320.62,154.79Z"/><path id="de30c651-6cd7-4611-b372-8cb6bc33a95d" data-name="path3806" class="d67fff49-3e45-4770-b7c3-91834e609630" d="M333.35,148.16l1.51-.29H340l4.2.31,3.62-1.25,3.31-4.66,4.82-1.25a12.27,12.27,0,0,1,2.55-.31c.9,0,1.8,0,2.55,0a5.37,5.37,0,0,0,1.46-.23,13.25,13.25,0,0,0,1.48-.54,22.74,22.74,0,0,1,2.79-1.09,4.59,4.59,0,0,0,1.2-.54c.4-.24.81-.54,1.23-.85a14.91,14.91,0,0,1,2.68-1.72l6.32-2.8,4.51-2.49,6.32-1.55,4.82-1.57a7.22,7.22,0,0,0,1.69-.85c.58-.38,1.16-.83,1.75-1.29s1.19-.95,1.77-1.38a13.93,13.93,0,0,1,1.71-1.14l6.91-3.74a56.07,56.07,0,0,0,4.52-3.42l3.31-2.8a15.38,15.38,0,0,1,2.6-1.35L406.16,97.8,390.8,89.52l-10.63-1.17-21.28-5.92L317.53,84.8l-5.91,3.55L302.18,86l-10.63,7.09-14.19-4.72-3.54,2.35-2.37,2.37v8.26l3.55,5.91,1.18,5.91,2.35,10.65L282.1,125l4.72-1.17,1.17-3.55L286.82,97.8l3.54-4.72,4.72,14.17,16.54,11.82-.38.2a9.38,9.38,0,0,0,1,1.11,3,3,0,0,1,.49.71,2.21,2.21,0,0,1,.22,1v5a10.28,10.28,0,0,1-.31,2.82,12.62,12.62,0,0,1-.89,2.17c-.18.37-.3.57-.45.85l.25.09,5.62.31a3.52,3.52,0,0,0,1.22-.08.78.78,0,0,0,.52-.48,8.57,8.57,0,0,0,.06-2.25.5.5,0,0,1,.11-.34.7.7,0,0,1,.31-.18,3.83,3.83,0,0,1,1-.14,5.6,5.6,0,0,0,1-.12.81.81,0,0,0,.63-.46l1.49-4.35a6,6,0,0,1,.68-1.35,4.4,4.4,0,0,1,.83-1,1.23,1.23,0,0,1,.75-.34c.21,0,.37.15.45.46l1.2,5a8,8,0,0,0,.68,1.74c.28.55.61,1.09.91,1.65a10.9,10.9,0,0,1,.78,1.74,6.31,6.31,0,0,1,.34,2,9.94,9.94,0,0,0,.46,2.49c.25.87.56,1.7.75,2.18l1.49,3.72.62,4.74Z"/><path id="bdb4abd2-9b19-4a4e-a01e-1ecc481f1911" data-name="path3811" class="e12c2b91-c490-4a85-80eb-56aa97ead358" d="M361,218.3a17.2,17.2,0,0,0-2.15-1.12c-.45-.22-.9-.45-1.31-.69a5,5,0,0,1-1-.75,16,16,0,0,0-2.82-1.94c-1.14-.67-2.24-1.26-2.6-1.48l-3.6-2.18a.73.73,0,0,0-.4-.12.41.41,0,0,0-.28.14,2.3,2.3,0,0,0-.42.85c-.12.36-.23.78-.38,1.18a3.2,3.2,0,0,1-.63,1.08,1.44,1.44,0,0,1-.85.43,3.33,3.33,0,0,1-.92,0,6.79,6.79,0,0,0-1-.08,2.51,2.51,0,0,0-1.11.28l-3,1.55a2.74,2.74,0,0,1-1.25.26,9.22,9.22,0,0,1-1.42-.12c-.49-.07-1-.16-1.45-.2a4,4,0,0,0-1.31.06,6.63,6.63,0,0,0-1.6.77c-.58.35-1.18.75-1.72,1.08a4.3,4.3,0,0,1-1.42.63.6.6,0,0,1-.46-.11.7.7,0,0,1-.22-.49L327,212a23.74,23.74,0,0,1,0-2.57.38.38,0,0,0-.34-.38,3.78,3.78,0,0,0-1.15.15l-4.22.92a2.21,2.21,0,0,0-.88.55c-.3.27-.61.6-.88.89a4.49,4.49,0,0,1-.68.65c-.08.05-.15.06-.2,0s-.08-.11-.08-.25a1.79,1.79,0,0,1,.28-.89,8.56,8.56,0,0,1,.58-.85,4.58,4.58,0,0,0,.54-.82,1.33,1.33,0,0,0,.11-.88c-.15-.63-.37-1.48-.66-2.32a9.23,9.23,0,0,0-1.14-2.34c-.44-.61-.84-1.16-1.18-1.75a10.5,10.5,0,0,1-.92-2l-1.51-4.35a23.69,23.69,0,0,0-.69-2.31c-.1-.09-.25-.09-.55,0a14.65,14.65,0,0,1-1.46.17l-5.83.35c.06.95.12,1.78.12,2.75V207c0,1.37,0,2.65-.11,3.92a31.45,31.45,0,0,1-.49,3.86c-.23,1.19-.46,2.26-.63,3.35a22.6,22.6,0,0,0-.28,3.49,33.37,33.37,0,0,1-.31,3.92,32.93,32.93,0,0,0-.29,3.86v12.14a9.69,9.69,0,0,0,.15,1.85,6.75,6.75,0,0,0,.42,1.37c.34.81.79,1.47,1.23,2.38a5.45,5.45,0,0,1,.43,1.43,13.82,13.82,0,0,1,.17,1.72c.05,1.19,0,2.42,0,3.39v5.6a4.46,4.46,0,0,1-.15,1.17,6.76,6.76,0,0,1-.4,1.06c-.31.68-.68,1.28-.94,1.82a7.32,7.32,0,0,1-1.22,1.25,2.29,2.29,0,0,0-.35.25l27,7.85,5.91-14.17,7.09-8.28,1.18-5.91Z"/><path id="2e8d1f4a-0b5f-472d-9230-b1820de3832e" data-name="path3821" class="cd83baed-2b57-44f9-9ae4-bb597ec7e388" d="M355.4,200.6l-.17-.06-5-2.86c-2.33-1.33-2.09-1.39-4.22-2.49L341.78,193a2.74,2.74,0,0,0-.77-.28.79.79,0,0,0-.48,0,.9.9,0,0,0-.42.65,2.54,2.54,0,0,1-.26.77.43.43,0,0,1-.29.17.94.94,0,0,1-.49-.09c-.45-.19-.85-.34-1.15-.49a1.75,1.75,0,0,1-.65-.49.61.61,0,0,1-.06-.62,3,3,0,0,1,.66-.88,2,2,0,0,0,.55-1,1.59,1.59,0,0,0-.11-1,3,3,0,0,0-.72-.94,6.3,6.3,0,0,0-1.23-.85l-5.11-2.8a18.79,18.79,0,0,0-2.42-1.17,23,23,0,0,0-2.4-.71l-4.82-1.25a3.46,3.46,0,0,1-1.29-.63,8.14,8.14,0,0,1-1-.92,7.55,7.55,0,0,0-1-.91,3.49,3.49,0,0,0-1.31-.65l-4.71-1.18-.11,0c-.11.4-.24.75-.35,1.17a8.7,8.7,0,0,1-.34,1.08,2.63,2.63,0,0,1-.51.83,57.57,57.57,0,0,1-5.46,4.55c0,.08-.07.13-.09.2s.08.42.12.65a18.54,18.54,0,0,1,.31,3.32c0,1.31.1,2.89.18,4.4l5.83-.35a14.65,14.65,0,0,0,1.46-.17c.3,0,.46,0,.55,0a23.69,23.69,0,0,1,.69,2.31l1.51,4.35a10.5,10.5,0,0,0,.92,2c.35.59.74,1.14,1.18,1.75a9.23,9.23,0,0,1,1.14,2.34c.29.85.51,1.69.66,2.32a1.33,1.33,0,0,1-.11.88,4.58,4.58,0,0,1-.54.82,8.56,8.56,0,0,0-.58.85,1.79,1.79,0,0,0-.28.89c0,.14,0,.21.08.25s.12,0,.2,0a4.49,4.49,0,0,0,.68-.65c.27-.29.57-.62.88-.89a2.21,2.21,0,0,1,.88-.55l4.22-.92a3.78,3.78,0,0,1,1.15-.15.38.38,0,0,1,.34.38,23.74,23.74,0,0,0,0,2.57l.6,5.29a.7.7,0,0,0,.22.49h0a.59.59,0,0,0,.45.11,4.3,4.3,0,0,0,1.42-.63c.55-.33,1.15-.73,1.72-1.08a6.63,6.63,0,0,1,1.6-.77,4,4,0,0,1,1.31-.06c.47,0,1,.13,1.45.2a9.22,9.22,0,0,0,1.42.12,2.74,2.74,0,0,0,1.25-.26l3-1.55a2.51,2.51,0,0,1,1.11-.28,6.79,6.79,0,0,1,1,.08,3.33,3.33,0,0,0,.92,0,1.44,1.44,0,0,0,.85-.43,3.2,3.2,0,0,0,.63-1.08c.16-.4.27-.82.38-1.18a2.3,2.3,0,0,1,.42-.85.41.41,0,0,1,.28-.14.73.73,0,0,1,.4.12l3.6,2.18c.36.22,1.46.81,2.6,1.48a16,16,0,0,1,2.82,1.94,5,5,0,0,0,1,.75c.41.24.86.47,1.31.69A17.2,17.2,0,0,1,361,218.3l1.45-2.31,3.54-9.46-2.35-2.37-8.28-3.54Z"/><path id="20701bfe-07c2-48f5-853c-cf5623ec9d46" data-name="path3804" class="e12c2b91-c490-4a85-80eb-56aa97ead358" d="M418.1,111.34a15.38,15.38,0,0,0-2.6,1.35l-3.31,2.8a56.07,56.07,0,0,1-4.52,3.42l-6.91,3.74a13.93,13.93,0,0,0-1.71,1.14c-.58.44-1.18.92-1.77,1.38s-1.18.92-1.75,1.29a7.22,7.22,0,0,1-1.69.85L389,128.88l-6.32,1.55-4.51,2.49-6.32,2.8a14.91,14.91,0,0,0-2.68,1.72c-.42.31-.83.6-1.23.85a4.59,4.59,0,0,1-1.2.54,22.74,22.74,0,0,0-2.79,1.09,13.25,13.25,0,0,1-1.48.54,5.37,5.37,0,0,1-1.46.23c-.76,0-1.65,0-2.55,0a12.27,12.27,0,0,0-2.55.31l-4.82,1.25-3.31,4.66-3.62,1.25-4.2-.31h-5.12l-1.51.29-3.31.63a6.42,6.42,0,0,0-1.52.49,5.67,5.67,0,0,0-1.11.68c-.65.5-1.17,1.1-1.88,1.65a34,34,0,0,0-2.65,2.85,4.33,4.33,0,0,1-1.18,1,.46.46,0,0,1-.42,0A.66.66,0,0,1,321,155c-.17,0-.32,0-.49,0a1.19,1.19,0,0,1-.2.54c-.44.57-1.26,1.17-2,2a4.88,4.88,0,0,0-.74.94,3.08,3.08,0,0,0-.35.92,13.05,13.05,0,0,0-.11,2.49c0,.7.08,1.53.12,2.35a8.53,8.53,0,0,1-.12,2.32,13.9,13.9,0,0,0-.2,2.54,12.36,12.36,0,0,1-.09,1.31,3.84,3.84,0,0,1-.31,1.12,13.43,13.43,0,0,1-1.85,2.42c-.38.45-.78.92-1.14,1.4a9.24,9.24,0,0,0-.94,1.48,6.8,6.8,0,0,0-.29,1l.11,0,4.71,1.18a3.49,3.49,0,0,1,1.31.65,7.55,7.55,0,0,1,1,.91,8.14,8.14,0,0,0,1,.92,3.46,3.46,0,0,0,1.29.63l4.82,1.25a23,23,0,0,1,2.4.71,18.79,18.79,0,0,1,2.42,1.17l5.11,2.8a6.3,6.3,0,0,1,1.23.85,3,3,0,0,1,.72.94,1.59,1.59,0,0,1,.11,1,2,2,0,0,1-.55,1,3,3,0,0,0-.66.88.61.61,0,0,0,.06.62,1.75,1.75,0,0,0,.65.49c.31.16.7.3,1.15.49a.94.94,0,0,0,.49.09.43.43,0,0,0,.29-.17,2.54,2.54,0,0,0,.26-.77.9.9,0,0,1,.42-.65.79.79,0,0,1,.48,0,2.74,2.74,0,0,1,.77.28l4.22,2.18c2.13,1.1,1.88,1.16,4.22,2.49l5,2.86.17.06,41.31-11.8,2.37-2.37,4.72,1.18,18.89-13h43.73l5.91,1.18,24.82-3.54V161.61L474.71,164l-28.37-10.63-5.91-5.91-3.54-10.63-13-18.91Z"/><path id="a8cbb738-5f79-4908-93f5-8ae2d1569808" data-name="path2362" class="2f37bc4b-824c-49fd-9e87-dd6d80349d30" d="M320.53,155c.17,0,.32,0,.49,0l-.4-.23C320.62,154.87,320.55,154.95,320.53,155Z"/><g class="b0d0ce2d-55d9-4a96-b47b-c069f43faf0b"><path id="4211e113-24e8-4c30-9301-033e284327c9" data-name="path2514" class="e12c2b91-c490-4a85-80eb-56aa97ead358" d="M276.18,273.89l-4.73,5.91-5.91,5.91-4.73,2.36,1.18-13,4.73-3.55,5.91-5.91,4.73-1.18,4.73,4.73-5.91,4.73"/></g><rect class="74904b5e-e76d-41a9-9f87-1868ec9a792d" x="-3104.92" y="-1746.89" width="7314.13" height="3886.5"/><g id="e07df7c9-6af0-436f-b061-82796bc7f85f" data-name="g9349"><rect class="74904b5e-e76d-41a9-9f87-1868ec9a792d" x="-3104.92" y="-1746.89" width="7314.13" height="3886.5"/><rect class="74904b5e-e76d-41a9-9f87-1868ec9a792d" x="-3104.92" y="-1746.89" width="7314.13" height="3886.5"/><rect class="74904b5e-e76d-41a9-9f87-1868ec9a792d" x="-3104.92" y="-1746.89" width="7314.13" height="3886.5"/><rect class="74904b5e-e76d-41a9-9f87-1868ec9a792d" x="-3104.92" y="-1746.89" width="7314.13" height="3886.5"/><rect class="74904b5e-e76d-41a9-9f87-1868ec9a792d" x="-3104.92" y="-1746.89" width="7314.13" height="3886.5"/><rect class="74904b5e-e76d-41a9-9f87-1868ec9a792d" x="-3104.92" y="-1746.89" width="7314.13" height="3886.5"/><rect class="74904b5e-e76d-41a9-9f87-1868ec9a792d" x="-3104.92" y="-1746.89" width="7314.13" height="3886.5"/><rect class="74904b5e-e76d-41a9-9f87-1868ec9a792d" x="-3104.92" y="-1746.89" width="7314.13" height="3886.5"/><rect class="74904b5e-e76d-41a9-9f87-1868ec9a792d" x="-3104.92" y="-1746.89" width="7314.13" height="3886.5"/><rect class="74904b5e-e76d-41a9-9f87-1868ec9a792d" x="-3104.92" y="-1746.89" width="7314.13" height="3886.5"/></g><g id="b7b55c05-29e9-4e76-972c-db287e964635" data-name="g4425"><path id="f5c3d50c-3bd0-40f2-b5c9-65318e6ad481" data-name="path4405" class="4755854c-7feb-47f4-86fa-1dd6c98a7451" d="M311.15,119.16c.47.88,1.75,1.4,1.75,2.87v5a9.07,9.07,0,0,1-1.2,5c-.73,1.5-1,2-1.81,3.42l-1.81,3.42c-.86,1.63-2.46,2.5-3.31,3.74l-3,4.36L298.16,150c-1.37,1.18-2,3.58-2.71,5L293,160c-.61,1.25-.3,3.18-.3,4.67a4.6,4.6,0,0,0,2.41,3.42c1.71.44,1.61,1,3.31,1.87,1.13.59,1.64,3.4,2.11,4.36.79,1.63.41,2.91,1.5,4,2.11,2.18,2.38,1.73,3,5a29.31,29.31,0,0,1,.9,6.23c0,2.13.3,4.63.3,7.16V207a39.6,39.6,0,0,1-.6,7.78,33.52,33.52,0,0,0-.9,6.85c0,2.69-.6,5.17-.6,7.78v12.14c0,2.93.92,3.77,1.81,5.6.79,1.63.6,4.61.6,6.54v5.6c0,1.62-1,3-1.5,4a7.26,7.26,0,0,1-1.2,1.25"/><path id="228900d2-b029-4825-aa2b-bf5639e1ec9d" data-name="path4407" class="4755854c-7feb-47f4-86fa-1dd6c98a7451" d="M275.59,195.19c-.62,1.29,2.51-1.56,3.91-1.56s4.44.81,4.51-.31l.3-4.67,4.51-1.87c1.25-.52,2.49-2,3.61-2.49l5.42-2.18,4.91-2.93"/><path id="325f7cca-f7cd-48ad-9266-1f548afabc19" data-name="path4409" class="4755854c-7feb-47f4-86fa-1dd6c98a7451" d="M305.64,185.41a57.32,57.32,0,0,0,5.46-4.54c.83-.86,1-2.9,1.5-4,1-2,3.23-3.88,3.91-5.29s.26-3.57.6-5,0-3.26,0-4.67c0-2.18-.1-3,1.2-4.36,1.52-1.57,3.25-2.39,1.81-3.74l-3-2.8c-.92-.85-.92-2.25-1.2-3.42s-2.14,0-3.31,0-2.3-3.39-3-3.11L305.68,146a22.09,22.09,0,0,1-1.81-1.56"/><path id="544d6cb1-2f82-460f-9d1e-10325cf23c2d" data-name="path4411" class="4755854c-7feb-47f4-86fa-1dd6c98a7451" d="M311.5,132.92l5.61.31c2.24.12,1.81-.65,1.81-2.8,0-1.12,2.65-.22,3-1.25l1.5-4.36c.69-2,2.41-3.41,2.71-2.18l1.2,5c.59,2.45,2.71,4.19,2.71,7.16a16.14,16.14,0,0,0,1.2,4.67l1.5,3.74.6,4.73"/><path id="8925451e-81c5-40e2-a2cd-2beee801e7ec" data-name="path4413" class="4755854c-7feb-47f4-86fa-1dd6c98a7451" d="M321,155c.45,1.87,3-2.27,4.51-3.42s2.07-2.33,4.51-2.8l4.81-.93H340l4.21.31,3.61-1.25,3.31-4.67,4.81-1.25a22.87,22.87,0,0,1,5.11-.31c1.9,0,4-1.43,5.72-1.87s3.2-2.27,5.11-3.11l6.32-2.8,4.51-2.49,6.32-1.56,4.81-1.56c2.19-.71,4.7-3.47,6.92-4.67l6.92-3.74c.68-.37,7.82-6.23,7.82-6.23a17.45,17.45,0,0,1,3-1.56"/><path id="dfc6e49f-0b89-4c56-b067-c8c512f01a98" data-name="path4415" class="4755854c-7feb-47f4-86fa-1dd6c98a7451" d="M305.89,194l6.11-.37c2.81-.17,1.65-.9,2.71,2.18l1.5,4.36a13.29,13.29,0,0,0,2.11,3.74,14.38,14.38,0,0,1,1.81,4.67c.29,1.22-1.5,2.17-1.5,3.42s1.62-1.63,2.71-1.87l4.21-.93c2.26-.5,1.21.19,1.5,2.8l.6,5.29c.22,2,3.57-1.39,5.42-1.87,1.59-.41,4,.76,5.42,0l3-1.56c1.53-.79,2.87.46,3.91-.62s.91-3.84,2.11-3.11l3.61,2.18c.71.43,4.39,2.36,5.42,3.42s3.68,1.93,4.55,2.61"/><path id="c1c8b2da-7a24-4a52-93a5-0190ad933b59" data-name="path4417" class="4755854c-7feb-47f4-86fa-1dd6c98a7451" d="M312.4,177.82l4.71,1.18c2.16.54,2.4,2.57,4.51,3.11l4.81,1.25a15.9,15.9,0,0,1,4.81,1.87l5.11,2.8c2,1.07,2.74,2.46,1.5,3.74-1.39,1.44-.61,1.74,1.2,2.49s.2-2.54,2.71-1.25l4.21,2.18c2.13,1.1,1.88,1.16,4.21,2.49l5,2.86"/><path id="08f175fd-c9c6-471a-be1f-7b0df26ca72d" data-name="path4419" class="4755854c-7feb-47f4-86fa-1dd6c98a7451" d="M337,188.65c.22-.46,2.78-2.9,3.61-4a6.15,6.15,0,0,0,1.5-3.74l.9-5.6c.23-1.43,1.44-4.44,0-4.67l-3.91-.62-5.11-.31c-1.6-.1-4.19.7-4.81-.31L327,165.92a16,16,0,0,0-2.41-2.8c-1.32-1.37-1.13,2.13-2.41.93l-3-2.8A19.59,19.59,0,0,0,317,161"/><path id="97c68df0-8d28-4dba-bf11-a5ea29d9e384" data-name="path4421" class="4755854c-7feb-47f4-86fa-1dd6c98a7451" d="M343.59,171l6.32.56h5.72l6,.62h12l4.81.93,6.32.62c1.8.18,2.11-1.42,2.11,1.56,0,1.71-1.61,1.15.9,2.8l3.31,2.18v5.6c0,1.14-.25,2.78-.25,3.92"/><path id="cf6b27ce-00f4-4fd7-926e-a12f14744dc1" data-name="path4423" class="4755854c-7feb-47f4-86fa-1dd6c98a7451" d="M364,172.46l-2.11-7.16-1.2-3.74a37.75,37.75,0,0,1-1.2-5.91l-.6-5-1.5-5-1.5-3.74c-.09-.21-.2-.42-.3-.62"/></g><g class="b0d0ce2d-55d9-4a96-b47b-c069f43faf0b"><path id="67c8f8c5-ed56-4547-9ba1-8ab6737f69b3" data-name="path3773" class="087c2b9b-0001-49ce-a4fd-937827fc500f" d="M273.82,90.71l3.55-2.36,14.18,4.73L302.18,86l9.45,2.36,5.91-3.55,41.36-2.36,21.27,5.91,10.64,1.18,15.36,8.27,17.73,20.09,13,18.91,3.54,10.64,5.91,5.91L474.7,164l22.45-2.36v10.64l-24.82,3.55-5.91-1.18H422.71l-18.91,13-4.73-1.18-2.36,2.36-41.36,11.82,8.27,3.55,2.36,2.36L362.44,216l-17.73,28.36-1.18,5.91-7.09,8.27-5.91,14.18L293.9,262.07,291.54,255,275,238.44l-1.18-18.91L275,197.07l3.54-5.91L275,186.44l1.18-5.91L275,178.16l-2.36-7.09,1.18-8.27L283.27,151l3.54-16.55,1.18-3.55L305.72,125l1.18-3.55,4.73-2.36-16.54-11.82-4.73-14.18-3.55,4.73L288,120.26l-1.18,3.55L282.09,125l-3.55-1.18-2.36-10.64L275,107.26l-3.54-5.91V93.07l2.36-2.36"/></g><rect class="74904b5e-e76d-41a9-9f87-1868ec9a792d" x="-3104.92" y="-1746.89" width="7314.13" height="3886.5"/><g class="b0d0ce2d-55d9-4a96-b47b-c069f43faf0b"><path id="e0842bd4-599b-45a0-bc74-ed815b895697" data-name="path3778" class="087c2b9b-0001-49ce-a4fd-937827fc500f" d="M276.18,273.89l-4.73,5.91-5.91,5.91-4.73,2.36,1.18-13,4.73-3.55,5.91-5.91,4.73-1.18,4.73,4.73-5.91,4.73"/></g><rect class="74904b5e-e76d-41a9-9f87-1868ec9a792d" x="-3104.92" y="-1746.89" width="7314.13" height="3886.5"/></g><path class="cd83baed-2b57-44f9-9ae4-bb597ec7e388" d="M364.5,172.5l-9.62-1.2-6.48-.13-4.38-.43-4.12-.86-4.82-.38h-2.64s-2.65.83-3.85-1.26a37.1,37.1,0,0,0-2.26-3.52l-1.52-1.64s-1.06-.8-1.12-.28a1.94,1.94,0,0,1-.57,1s-.22.88-1.74-.74a10.16,10.16,0,0,0-2-1.85l-2-.4a6.17,6.17,0,0,1,2.91-5.47,5.15,5.15,0,0,0,3.31-1.42c.94-.94,3.1-4.44,5.31-5a52.32,52.32,0,0,1,8.32-1.23,27.57,27.57,0,0,1,6.62.31s3.33.64,7.05-5.63c3.68-1.25,4.66-1.57,4.66-1.57l1.88,4.7.94,4.7,1.88,6.58,4.18,15.76"/><path class="88f06cbd-fbf3-427a-a7d6-7e6d79bc7b67" d="M317.06,161.67v4.7l-.13,2.12.13,2.58-.94,1.88-2.84,2.73-.38,2.13s4.32.78,6.59,3.13A7.85,7.85,0,0,0,325.2,183l5,1.2,1.88.94,2.82,1.88,2.32,1.22,3.92-4.5.64-1.52.86-5,.92-6.25-4.89-.83h-6.58l-1.76-.27-1.45-1L327.75,167l-1.94-2.66-2.16-1.77-.94,1.88-.48-.43-1.43-1.33-1.85-1.05-1.88-.94Z"/></g><g id="43f4cae3-84ff-40e6-9069-10884a5fba1c" data-name="numeros"><text class="ca986555-877d-4ff2-9a07-9865d11e8392" transform="translate(153 154.58)">9</text><text class="ca986555-877d-4ff2-9a07-9865d11e8392" transform="translate(81 208.58)">5</text><text class="ca986555-877d-4ff2-9a07-9865d11e8392" transform="translate(76 183.58)">3</text><text class="ca986555-877d-4ff2-9a07-9865d11e8392" transform="translate(98 118.58)">7</text><text class="ca986555-877d-4ff2-9a07-9865d11e8392" transform="translate(35 222.58)"><tspan class="e3792eea-bdc9-4d84-ba19-9e87f6563e6a">1</tspan><tspan x="5.78" y="0">1</tspan></text><text class="ca986555-877d-4ff2-9a07-9865d11e8392" transform="translate(55 170.58)">1</text><text class="ca986555-877d-4ff2-9a07-9865d11e8392" transform="translate(68 147.58)">2</text><text class="ca986555-877d-4ff2-9a07-9865d11e8392" transform="translate(69 255.58)">10</text><text class="ca986555-877d-4ff2-9a07-9865d11e8392" transform="translate(31 177.58)">6</text><text class="ca986555-877d-4ff2-9a07-9865d11e8392" transform="translate(117 192.58)">4</text><text class="ca986555-877d-4ff2-9a07-9865d11e8392" transform="translate(88 164.58)">8</text><text class="7abffa64-9d72-4c01-8244-f16ff052d4c1" transform="translate(402 151.58)">9</text><text class="7abffa64-9d72-4c01-8244-f16ff052d4c1" transform="translate(330 205.58)">5</text><text class="7abffa64-9d72-4c01-8244-f16ff052d4c1" transform="translate(325 180.58)">3</text><text class="7abffa64-9d72-4c01-8244-f16ff052d4c1" transform="translate(347 115.58)">7</text><text class="7abffa64-9d72-4c01-8244-f16ff052d4c1" transform="translate(284 219.58)"><tspan class="e3792eea-bdc9-4d84-ba19-9e87f6563e6a">1</tspan><tspan x="5.78" y="0">1</tspan></text><text class="7abffa64-9d72-4c01-8244-f16ff052d4c1" transform="translate(304 167.58)">1</text><text class="7abffa64-9d72-4c01-8244-f16ff052d4c1" transform="translate(317 144.58)">2</text><text class="7abffa64-9d72-4c01-8244-f16ff052d4c1" transform="translate(318 252.58)">10</text><text class="7abffa64-9d72-4c01-8244-f16ff052d4c1" transform="translate(280 174.58)">6</text><text class="7abffa64-9d72-4c01-8244-f16ff052d4c1" transform="translate(366 189.58)">4</text><text class="7abffa64-9d72-4c01-8244-f16ff052d4c1" transform="translate(337 161.58)">8</text></g></svg>