<svg id="Capa_1" data-name="Capa 1" xmlns="http://www.w3.org/2000/svg" viewBox="0 0 618 216.56"><defs><style>.cls-1,.cls-11{fill:#fff;}.cls-2{opacity:0.63;}.cls-3{fill:#890e46;}.cls-4{fill:#9e3b63;}.cls-5{fill:#d37da4;}.cls-6{fill:#eac5d9;}.cls-7{font-size:12px;}.cls-18,.cls-7{fill:#323232;}.cls-11,.cls-12,.cls-7{font-family:ArialMT, Arial;}.cls-11,.cls-12,.cls-8{font-size:14px;}.cls-10,.cls-12,.cls-14,.cls-8{fill:#757575;}.cls-10,.cls-18,.cls-8{font-family:Arial-BoldMT, Arial;font-weight:700;}.cls-9{letter-spacing:-0.06em;}.cls-10,.cls-18{font-size:13px;}.cls-13{fill:#edb4d2;}.cls-14{font-size:9px;font-family:OpenSans, Open Sans;}.cls-15{fill:#5e1030;}.cls-16{fill:none;stroke:#757575;stroke-miterlimit:10;stroke-width:0.5px;}.cls-17{fill:#002f64;}</style></defs><title>TABLANOTAS</title><rect class="cls-1" x="47.5" y="0.5" width="141" height="46.95"/><path class="cls-1" d="M191,5V50.95H51V5H191m1-1H50V51.95H192V4Z" transform="translate(-3 -4)"/><g class="cls-2"><rect class="cls-3" x="157.5" y="46.5" width="73" height="27.97"/><path class="cls-1" d="M233,51V78H161V51h72m1-1H160V79h74V50Z" transform="translate(-3 -4)"/></g><g class="cls-2"><rect class="cls-4" x="157.5" y="74.82" width="73" height="27.97"/><path class="cls-1" d="M233,79.32v27H161v-27h72m1-1H160v29h74v-29Z" transform="translate(-3 -4)"/></g><g class="cls-2"><rect class="cls-5" x="157.5" y="130.96" width="73" height="27.97"/><path class="cls-1" d="M233,135.46v27H161v-27h72m1-1H160v29h74v-29Z" transform="translate(-3 -4)"/></g><g class="cls-2"><rect class="cls-6" x="157.5" y="159.28" width="73" height="27.97"/><path class="cls-1" d="M233,163.78v27H161v-27h72m1-1H160v29h74v-29Z" transform="translate(-3 -4)"/></g><text class="cls-7" transform="translate(0 64.59)">Ciencias</text><text class="cls-8" transform="translate(102.81 42.02)">20<tspan class="cls-9" x="15.57" y="0">1</tspan><tspan x="22.59" y="0">1</tspan></text><text class="cls-10" transform="translate(179.54 41.31)">2012</text><text class="cls-10" transform="translate(254.54 41.31)">2013</text><text class="cls-10" transform="translate(331.54 41.31)">2014</text><text class="cls-10" transform="translate(405.54 41.31)">2015</text><text class="cls-10" transform="translate(481.54 41.31)">2016</text><text class="cls-10" transform="translate(549.54 41.31)">2017</text><text class="cls-11" transform="translate(181 65.02)">8,2</text><text class="cls-11" transform="translate(182 93.02)">7,5</text><text class="cls-11" transform="translate(181 149.02)">6,5</text><text class="cls-12" transform="translate(181 178.02)">5,5</text><g class="cls-2"><rect class="cls-3" x="79.5" y="46.5" width="76" height="27.97"/><path class="cls-1" d="M158,51V78H83V51h75m1-1H82V79h77V50Z" transform="translate(-3 -4)"/></g><g class="cls-2"><rect class="cls-3" x="79.5" y="74.82" width="76" height="27.97"/><path class="cls-1" d="M158,79.32v27H83v-27h75m1-1H82v29h77v-29Z" transform="translate(-3 -4)"/></g><g class="cls-2"><rect class="cls-5" x="79.5" y="130.96" width="76" height="27.97"/><path class="cls-1" d="M158,135.46v27H83v-27h75m1-1H82v29h77v-29Z" transform="translate(-3 -4)"/></g><g class="cls-2"><rect class="cls-13" x="79.5" y="159.28" width="76" height="27.97"/><path class="cls-1" d="M158,163.78v27H83v-27h75m1-1H82v29h77v-29Z" transform="translate(-3 -4)"/></g><text class="cls-11" transform="translate(106.45 66.02)">8,2</text><text class="cls-11" transform="translate(106.45 93.02)">8,2</text><text class="cls-11" transform="translate(106.45 149.02)">6,4</text><text class="cls-11" transform="translate(106 179.02)">5,9</text><text class="cls-7" transform="translate(1 85.59)">Ciencias de <tspan x="0" y="11">la Salud</tspan></text><text class="cls-7" transform="translate(1 142.59)">Ingeniería y <tspan x="0" y="11">Arquitectura</tspan></text><text class="cls-7" transform="translate(1 169.59)">Artes y <tspan x="0" y="11">Humanidades</tspan></text><text class="cls-14" transform="translate(1 213.84)">Fuente: Consell Interuniversitari de Catalunya</text><g class="cls-2"><rect class="cls-5" x="157.5" y="102.96" width="73" height="27.97"/><path class="cls-1" d="M233,107.46v27H161v-27h72m1-1H160v29h74v-29Z" transform="translate(-3 -4)"/></g><text class="cls-11" transform="translate(180 121.02)">6,6</text><g class="cls-2"><rect class="cls-4" x="79.5" y="102.96" width="76" height="27.97"/><path class="cls-1" d="M158,107.46v27H83v-27h75m1-1H82v29h77v-29Z" transform="translate(-3 -4)"/></g><text class="cls-11" transform="translate(106 121.02)">7,2</text><g class="cls-2"><rect class="cls-3" x="309.5" y="46.5" width="73" height="27.97"/><path class="cls-1" d="M385,51V78H313V51h72m1-1H312V79h74V50Z" transform="translate(-3 -4)"/></g><g class="cls-2"><rect class="cls-3" x="309.5" y="74.82" width="73" height="27.97"/><path class="cls-1" d="M385,79.32v27H313v-27h72m1-1H312v29h74v-29Z" transform="translate(-3 -4)"/></g><g class="cls-2"><rect class="cls-5" x="309.5" y="130.96" width="73" height="27.97"/><path class="cls-1" d="M385,135.46v27H313v-27h72m1-1H312v29h74v-29Z" transform="translate(-3 -4)"/></g><g class="cls-2"><rect class="cls-6" x="309.5" y="159.28" width="73" height="27.97"/><path class="cls-1" d="M385,163.78v27H313v-27h72m1-1H312v29h74v-29Z" transform="translate(-3 -4)"/></g><text class="cls-11" transform="translate(334 65.02)">8,8</text><text class="cls-11" transform="translate(340 93.02)">8</text><text class="cls-11" transform="translate(335 150.02)">6,2</text><text class="cls-12" transform="translate(334 179.02)">5,5</text><g class="cls-2"><rect class="cls-3" x="231.5" y="46.5" width="76" height="27.97"/><path class="cls-1" d="M310,51V78H235V51h75m1-1H234V79h77V50Z" transform="translate(-3 -4)"/></g><g class="cls-2"><rect class="cls-3" x="231.5" y="74.82" width="76" height="27.97"/><path class="cls-1" d="M310,79.32v27H235v-27h75m1-1H234v29h77v-29Z" transform="translate(-3 -4)"/></g><g class="cls-2"><rect class="cls-5" x="231.5" y="130.96" width="76" height="27.97"/><path class="cls-1" d="M310,135.46v27H235v-27h75m1-1H234v29h77v-29Z" transform="translate(-3 -4)"/></g><g class="cls-2"><rect class="cls-6" x="231.5" y="159.28" width="76" height="27.97"/><path class="cls-1" d="M310,163.78v27H235v-27h75m1-1H234v29h77v-29Z" transform="translate(-3 -4)"/></g><text class="cls-11" transform="translate(256.93 66.02)">8,8</text><text class="cls-11" transform="translate(261.93 93.02)">8</text><text class="cls-11" transform="translate(256.93 150.02)">6,3</text><text class="cls-12" transform="translate(256 179.02)">5,4</text><g class="cls-2"><rect class="cls-5" x="309.5" y="102.96" width="73" height="27.97"/><path class="cls-1" d="M385,107.46v27H313v-27h72m1-1H312v29h74v-29Z" transform="translate(-3 -4)"/></g><text class="cls-11" transform="translate(335 121.02)">6,7</text><g class="cls-2"><rect class="cls-4" x="231.5" y="102.96" width="76" height="27.97"/><path class="cls-1" d="M310,107.46v27H235v-27h75m1-1H234v29h77v-29Z" transform="translate(-3 -4)"/></g><text class="cls-11" transform="translate(263 123.02)">7</text><g class="cls-2"><rect class="cls-15" x="383.5" y="46.5" width="73" height="27.97"/><path class="cls-1" d="M459,51V78H387V51h72m1-1H386V79h74V50Z" transform="translate(-3 -4)"/></g><g class="cls-2"><rect class="cls-3" x="383.5" y="74.82" width="73" height="27.97"/><path class="cls-1" d="M459,79.32v27H387v-27h72m1-1H386v29h74v-29Z" transform="translate(-3 -4)"/></g><g class="cls-2"><rect class="cls-5" x="383.5" y="130.96" width="73" height="27.97"/><path class="cls-1" d="M459,135.46v27H387v-27h72m1-1H386v29h74v-29Z" transform="translate(-3 -4)"/></g><g class="cls-2"><rect class="cls-6" x="383.5" y="159.28" width="73" height="27.97"/><path class="cls-1" d="M459,163.78v27H387v-27h72m1-1H386v29h74v-29Z" transform="translate(-3 -4)"/></g><text class="cls-11" transform="translate(409 65.02)">9,4</text><text class="cls-11" transform="translate(409 93.02)">8,3</text><text class="cls-11" transform="translate(415 149.02)">6</text><text class="cls-12" transform="translate(411 178.02)">5,5</text><g class="cls-2"><rect class="cls-4" x="383.5" y="102.96" width="73" height="27.97"/><path class="cls-1" d="M459,107.46v27H387v-27h72m1-1H386v29h74v-29Z" transform="translate(-3 -4)"/></g><text class="cls-11" transform="translate(414 121.02)">7</text><g class="cls-2"><rect class="cls-15" x="535.5" y="46.5" width="73" height="27.97"/><path class="cls-1" d="M611,51V78H539V51h72m1-1H538V79h74V50Z" transform="translate(-3 -4)"/></g><g class="cls-2"><rect class="cls-3" x="535.5" y="74.82" width="73" height="27.97"/><path class="cls-1" d="M611,79.32v27H539v-27h72m1-1H538v29h74v-29Z" transform="translate(-3 -4)"/></g><g class="cls-2"><rect class="cls-5" x="535.5" y="130.96" width="73" height="27.97"/><path class="cls-1" d="M611,135.46v27H539v-27h72m1-1H538v29h74v-29Z" transform="translate(-3 -4)"/></g><g class="cls-2"><rect class="cls-6" x="535.5" y="159.28" width="73" height="27.97"/><path class="cls-1" d="M611,163.78v27H539v-27h72m1-1H538v29h74v-29Z" transform="translate(-3 -4)"/></g><text class="cls-11" transform="translate(560 65.02)">9,3</text><text class="cls-11" transform="translate(559 93.02)">8,3</text><text class="cls-11" transform="translate(559 149.02)">6,3</text><text class="cls-12" transform="translate(560 179.02)">5,6</text><g class="cls-2"><rect class="cls-15" x="457.5" y="46.5" width="76" height="27.97"/><path class="cls-1" d="M536,51V78H461V51h75m1-1H460V79h77V50Z" transform="translate(-3 -4)"/></g><g class="cls-2"><rect class="cls-3" x="457.5" y="74.82" width="76" height="27.97"/><path class="cls-1" d="M536,79.32v27H461v-27h75m1-1H460v29h77v-29Z" transform="translate(-3 -4)"/></g><g class="cls-2"><rect class="cls-5" x="457.5" y="130.96" width="76" height="27.97"/><path class="cls-1" d="M536,135.46v27H461v-27h75m1-1H460v29h77v-29Z" transform="translate(-3 -4)"/></g><g class="cls-2"><rect class="cls-6" x="457.5" y="159.28" width="76" height="27.97"/><path class="cls-1" d="M536,163.78v27H461v-27h75m1-1H460v29h77v-29Z" transform="translate(-3 -4)"/></g><text class="cls-11" transform="translate(484 66.02)">9,4</text><text class="cls-11" transform="translate(483 93.02)">8,4</text><text class="cls-11" transform="translate(490 148.02)">6</text><text class="cls-12" transform="translate(486 179.02)">5,6</text><g class="cls-2"><rect class="cls-4" x="535.5" y="102.96" width="73" height="27.97"/><path class="cls-1" d="M611,107.46v27H539v-27h72m1-1H538v29h74v-29Z" transform="translate(-3 -4)"/></g><text class="cls-11" transform="translate(560 121.02)">7,1</text><g class="cls-2"><rect class="cls-4" x="457.5" y="102.96" width="76" height="27.97"/><path class="cls-1" d="M536,107.46v27H461v-27h75m1-1H460v29h77v-29Z" transform="translate(-3 -4)"/></g><text class="cls-11" transform="translate(489 122.02)">7</text><text class="cls-7" transform="translate(1 112.59)">C. Sociales <tspan x="0" y="11">y Jurídicas</tspan></text><line class="cls-16" x1="606.5" y1="45.5" x2="0.5" y2="45.5"/><polygon class="cls-17" points="519.74 203 609 203 609 216.56 519.74 216.56 519.74 203 519.74 203"/><path class="cls-1" d="M594.35,210h-3.42v.43l.9.21V217a.75.75,0,0,1-.63.32,1.34,1.34,0,0,1-1.11-.81l-.86-1.53a1.77,1.77,0,0,0-1.56-1.05v-.11a2.09,2.09,0,0,0,2.16-1.95c0-1.31-1.19-1.82-2.57-1.82h-3.11v.43l1,.21v6.4h0l-1.17.22-2.91-7.93a3.65,3.65,0,0,1-1,.9l.11.32-2.65,6.5-.8.22v.43h2.41v-.43l-.79-.21.9-2.37h2.46l.86,2.35-.93.22v.43h5.89v-.43l-1-.21v-3a1.45,1.45,0,0,1,1.31,1l1.17,2.08a1.89,1.89,0,0,0,1.69,1,1.67,1.67,0,0,0,1.11-.46h2.64a4,4,0,0,0,4.06-3.85,3.86,3.86,0,0,0-4.13-3.85Zm-14.93,4.09,1-2.73,1,2.73Zm7.62-.58h-.52v-2.87h.66a1.29,1.29,0,0,1,1.35,1.37,1.49,1.49,0,0,1-1.48,1.5Zm7.24,3.54h-1.1v-6.41h1.13c1.75,0,2.82,1.21,2.82,3.21s-1.12,3.21-2.85,3.21Z" transform="translate(-3 -4)"/><path class="cls-1" d="M538.21,217.08l-2.84-7.72a3.65,3.65,0,0,1-1,.9l.11.32-2.65,6.5-.57.22-.17.43h2.35v-.43l-.79-.21.9-2.37H536l.86,2.35-.93.22v.43h3.16v-.43l-.84-.21Zm-4.51-3,1-2.73,1,2.73Z" transform="translate(-3 -4)"/><polygon class="cls-1" points="528.44 211.77 528.15 211.61 526.49 213.12 525.07 213.12 525.07 206.67 525.92 206.46 525.92 206.03 522.86 206.03 522.86 206.46 523.72 206.68 523.72 213.07 522.86 213.29 522.86 213.72 527.68 213.72 528.44 211.77 528.44 211.77"/><polygon class="cls-1" points="541.8 206.03 541.8 206.46 542.73 206.67 540.72 211.82 538.6 206.66 539.6 206.46 539.6 206.03 536.18 206.03 536.18 206.46 537.16 206.67 540.2 213.99 540.52 213.99 543.55 206.68 543.58 206.68 544.52 206.46 544.52 206.03 541.8 206.03 541.8 206.03"/><path class="cls-1" d="M575.13,210v.43l.92.22s.07,3.81,0,4.78a1.94,1.94,0,0,1-2.07,1.88,1.91,1.91,0,0,1-2.07-2v-4.69l.89-.2V210h-3.09v.43l.88.21v4.73a2.84,2.84,0,0,0,3.06,2.69,2.79,2.79,0,0,0,3.06-2.69l.06-4.72.9-.22V210Z" transform="translate(-3 -4)"/><path class="cls-1" d="M608.55,217.07l-2.83-7.71a3.65,3.65,0,0,1-1,.9l.11.32-2.66,6.53-.45.18-.61-.19v-6.43l.94-.21V210h-3.22v.43l.93.22v6.4l-.89.21v.43h4.92v-.43l-.79-.21.9-2.37h2.46l.86,2.35-.93.22v.43h3.16v-.43l-.85-.22Zm-4.5-2.95,1-2.73,1,2.73Z" transform="translate(-3 -4)"/><path class="cls-1" d="M558.61,210v.43l.94.22.06,5L554.78,210h-2.06v.43l.93.21.08,0-.07,6.36h0l-.95.22-2.91-7.93a3.65,3.65,0,0,1-1,.9l.11.32-2.65,6.5-.8.22v.43h2.41v-.43l-.79-.21.9-2.37h2.46l.86,2.35-.93.22v.43h5.06v-.43l-1-.22-.06-5.56,5.51,6.48h.36l.07-7.32.93-.21V210Zm-10.47,4.09,1-2.73,1,2.73Z" transform="translate(-3 -4)"/><path class="cls-1" d="M566.7,213.79v.43l.87.22v2.48a2.88,2.88,0,0,1-1.74.58c-1.75,0-2.87-1.47-2.87-3.51s1.1-3.67,2.89-3.67a2.74,2.74,0,0,1,2.57,2.09l.25-.15v-2.43l-.22-.12-.47.59a4.86,4.86,0,0,0-2.13-.54,4.31,4.31,0,0,0-4.32,4.24,3.91,3.91,0,0,0,4,4.1,4,4,0,0,0,2.48-.83l.68.45h.22v-3.3l.73-.28v-.35Z" transform="translate(-3 -4)"/><text class="cls-18" transform="translate(0 16.29)">Evolución de la nota de acceso media de acceso a la universidad según el ámbito de estudio</text></svg>