<svg id="Capa_1" data-name="Capa 1" xmlns="http://www.w3.org/2000/svg" viewBox="0 0 301 392.13"><defs><style>.cls-1,.cls-10,.cls-11{fill:#fff;}.cls-2{fill:#b6d5d8;}.cls-3{fill:#80a6bf;}.cls-4{fill:#4a5f6d;}.cls-10,.cls-11,.cls-19,.cls-5,.cls-6{font-size:14px;}.cls-19,.cls-22,.cls-23,.cls-5{fill:#323232;}.cls-10,.cls-23,.cls-5{font-family:ArialMT, Arial;}.cls-20,.cls-6,.cls-7{fill:#757575;}.cls-11,.cls-19,.cls-22,.cls-6,.cls-7{font-family:Arial-BoldMT, Arial;font-weight:700;}.cls-7{font-size:13px;letter-spacing:-0.06em;}.cls-8{letter-spacing:0em;}.cls-9{letter-spacing:-0.07em;}.cls-12{opacity:0.63;}.cls-13{fill:#5e1030;}.cls-14{fill:#890e46;}.cls-15{fill:#9e3b63;}.cls-16{fill:#c480a2;}.cls-17{fill:#e8a6ca;}.cls-18{letter-spacing:-0.06em;}.cls-20{font-size:9px;font-family:OpenSans, Open Sans;}.cls-21{fill:none;stroke:#757575;stroke-miterlimit:10;stroke-width:0.5px;}.cls-22{font-size:18px;}.cls-23{font-size:11px;}.cls-24{fill:#002f64;}</style></defs><title>TABLAVIVIENDA</title><rect class="cls-1" x="113.5" y="11.07" width="141" height="46.95"/><path class="cls-1" d="M254,17V62.95H114V17H254m1-1H113V63.95H255V16Z" transform="translate(0 -5.43)"/><rect class="cls-1" x="223.5" y="194.83" width="73" height="27.97"/><path class="cls-1" d="M296,200.75v27H224v-27h72m1-1H223v29h74v-29Z" transform="translate(0 -5.43)"/><rect class="cls-1" x="223.5" y="222.15" width="73" height="27.97"/><path class="cls-1" d="M296,228.07v27H224v-27h72m1-1H223v29h74v-29Z" transform="translate(0 -5.43)"/><rect class="cls-1" x="223.5" y="250.29" width="73" height="27.97"/><path class="cls-1" d="M296,256.22v27H224v-27h72m1-1H223v29h74v-29Z" transform="translate(0 -5.43)"/><rect class="cls-1" x="223.5" y="277.61" width="73" height="27.97"/><path class="cls-1" d="M296,283.54v27H224v-27h72m1-1H223v29h74v-29Z" transform="translate(0 -5.43)"/><rect class="cls-1" x="223.5" y="305.76" width="73" height="27.97"/><path class="cls-1" d="M296,311.68v27H224v-27h72m1-1H223v29h74v-29Z" transform="translate(0 -5.43)"/><rect class="cls-1" x="223.5" y="333.07" width="73" height="27.97"/><path class="cls-1" d="M296,339v27H224V339h72m1-1H223v29h74V338Z" transform="translate(0 -5.43)"/><rect class="cls-2" x="223.5" y="57.07" width="73" height="27.97"/><path class="cls-1" d="M296,63V90H224V63h72m1-1H223V91h74V62Z" transform="translate(0 -5.43)"/><rect class="cls-3" x="223.5" y="84.39" width="73" height="27.97"/><path class="cls-1" d="M296,90.32v27H224v-27h72m1-1H223v29h74v-29Z" transform="translate(0 -5.43)"/><rect class="cls-4" x="223.5" y="138.54" width="73" height="27.97"/><path class="cls-1" d="M296,144.46v27H224v-27h72m1-1H223v29h74v-29Z" transform="translate(0 -5.43)"/><rect class="cls-2" x="223.5" y="165.86" width="73" height="27.97"/><path class="cls-1" d="M296,171.78v27H224v-27h72m1-1H223v29h74v-29Z" transform="translate(0 -5.43)"/><rect class="cls-3" x="223.5" y="194" width="73" height="27.97"/><path class="cls-1" d="M296,199.93v27H224v-27h72m1-1H223v29h74v-29Z" transform="translate(0 -5.43)"/><rect class="cls-3" x="223.5" y="221.32" width="73" height="27.97"/><path class="cls-1" d="M296,227.25v27H224v-27h72m1-1H223v29h74v-29Z" transform="translate(0 -5.43)"/><rect class="cls-3" x="223.5" y="249.47" width="73" height="27.97"/><path class="cls-1" d="M296,255.39v27H224v-27h72m1-1H223v29h74v-29Z" transform="translate(0 -5.43)"/><rect class="cls-3" x="223.5" y="276.78" width="73" height="27.97"/><path class="cls-1" d="M296,282.71v27H224v-27h72m1-1H223v29h74v-29Z" transform="translate(0 -5.43)"/><rect class="cls-2" x="223.5" y="304.93" width="73" height="27.97"/><path class="cls-1" d="M296,310.85v27H224v-27h72m1-1H223v29h74v-29Z" transform="translate(0 -5.43)"/><rect class="cls-2" x="223.5" y="332.25" width="73" height="27.97"/><path class="cls-1" d="M296,338.17v27H224v-27h72m1-1H223v29h74v-29Z" transform="translate(0 -5.43)"/><text class="cls-5" transform="translate(5 76.6)">Sarrià - Sant Gervasi</text><text class="cls-6" transform="translate(151.72 52.6)">Euros /m²</text><text class="cls-7" transform="translate(231.1 51.88)">V<tspan class="cls-8" x="7.95" y="0">ariación</tspan></text><text class="cls-5" transform="translate(241 75.6)"><tspan class="cls-9">1</tspan><tspan x="6.75" y="0">1,6%</tspan></text><text class="cls-10" transform="translate(246 103.6)">22%</text><text class="cls-10" transform="translate(240 157.6)">35,7%</text><text class="cls-10" transform="translate(239 184.6)">12,8%</text><text class="cls-11" transform="translate(240.02 211.51)">21,7%</text><text class="cls-10" transform="translate(242 238.6)">19,4%</text><text class="cls-10" transform="translate(240 265.6)">22,6%</text><text class="cls-10" transform="translate(241 293.6)">20,8%</text><text class="cls-10" transform="translate(240 322.6)">14,6%</text><text class="cls-10" transform="translate(241 351.6)">14,9%</text><g class="cls-12"><rect class="cls-1" x="145.5" y="194.83" width="76" height="27.97"/><path class="cls-1" d="M221,200.75v27H146v-27h75m1-1H145v29h77v-29Z" transform="translate(0 -5.43)"/></g><g class="cls-12"><rect class="cls-1" x="145.5" y="222.15" width="76" height="27.97"/><path class="cls-1" d="M221,228.07v27H146v-27h75m1-1H145v29h77v-29Z" transform="translate(0 -5.43)"/></g><g class="cls-12"><rect class="cls-1" x="145.5" y="250.29" width="76" height="27.97"/><path class="cls-1" d="M221,256.22v27H146v-27h75m1-1H145v29h77v-29Z" transform="translate(0 -5.43)"/></g><g class="cls-12"><rect class="cls-13" x="145.5" y="57.07" width="76" height="27.97"/><path class="cls-1" d="M221,63V90H146V63h75m1-1H145V91h77V62Z" transform="translate(0 -5.43)"/></g><g class="cls-12"><rect class="cls-14" x="145.5" y="84.39" width="76" height="27.97"/><path class="cls-1" d="M221,90.32v27H146v-27h75m1-1H145v29h77v-29Z" transform="translate(0 -5.43)"/></g><g class="cls-12"><rect class="cls-14" x="145.5" y="138.54" width="76" height="27.97"/><path class="cls-1" d="M221,144.46v27H146v-27h75m1-1H145v29h77v-29Z" transform="translate(0 -5.43)"/></g><g class="cls-12"><rect class="cls-15" x="145.5" y="165.86" width="76" height="27.97"/><path class="cls-1" d="M221,171.78v27H146v-27h75m1-1H145v29h77v-29Z" transform="translate(0 -5.43)"/></g><g class="cls-12"><rect class="cls-15" x="145.5" y="194" width="76" height="27.97"/><path class="cls-1" d="M221,199.93v27H146v-27h75m1-1H145v29h77v-29Z" transform="translate(0 -5.43)"/></g><g class="cls-12"><rect class="cls-16" x="145.5" y="221.32" width="76" height="27.97"/><path class="cls-1" d="M221,227.25v27H146v-27h75m1-1H145v29h77v-29Z" transform="translate(0 -5.43)"/></g><g class="cls-12"><rect class="cls-16" x="145.5" y="248.47" width="76" height="27.97"/><path class="cls-1" d="M221,254.39v27H146v-27h75m1-1H145v29h77v-29Z" transform="translate(0 -5.43)"/></g><g class="cls-12"><rect class="cls-16" x="145.5" y="276.83" width="76" height="27.97"/><path class="cls-1" d="M221,282.76v27H146v-27h75m1-1H145v29h77v-29Z" transform="translate(0 -5.43)"/></g><g class="cls-12"><rect class="cls-17" x="145.5" y="304.81" width="76" height="27.97"/><path class="cls-1" d="M221,310.73v27H146v-27h75m1-1H145v29h77v-29Z" transform="translate(0 -5.43)"/></g><g class="cls-12"><rect class="cls-17" x="145.5" y="332.25" width="76" height="27.97"/><path class="cls-1" d="M221,338.17v27H146v-27h75m1-1H145v29h77v-29Z" transform="translate(0 -5.43)"/></g><text class="cls-10" transform="translate(165 76.6)">4.247</text><text class="cls-10" transform="translate(165 103.6)">3.816</text><text class="cls-10" transform="translate(165 157.6)">3.523</text><text class="cls-10" transform="translate(164 185.6)">3.422</text><text class="cls-11" transform="translate(165.02 212.51)">3.094</text><text class="cls-10" transform="translate(166 239.6)">2.977</text><text class="cls-10" transform="translate(165 265.6)">2.823</text><text class="cls-10" transform="translate(164 293.6)">2.579</text><text class="cls-5" transform="translate(164 322.6)">2.444</text><text class="cls-5" transform="translate(165 351.6)">2.036</text><text class="cls-5" transform="translate(5 104.6)">Eixample</text><text class="cls-5" transform="translate(5 157.6)">Ciutat <tspan class="cls-18" x="40.46" y="0">V</tspan><tspan x="49.03" y="0">ella</tspan></text><text class="cls-5" transform="translate(5 184.6)">Gràcia</text><text class="cls-19" transform="translate(5.84 212.47)">Barcelona</text><text class="cls-5" transform="translate(5 266.6)">Sants - Monjuïc</text><text class="cls-5" transform="translate(5 239.6)">Sant Martí</text><text class="cls-5" transform="translate(5 295.6)">Horta - Guinardó</text><text class="cls-5" transform="translate(5 322.6)">Sant<tspan class="cls-18" x="28.8" y="0"> </tspan><tspan x="31.92" y="0">Andreu</tspan></text><text class="cls-5" transform="translate(5 351.6)">Nou Barris</text><text class="cls-20" transform="translate(5 389.41)">Fuente: TINSA</text><rect class="cls-2" x="223.5" y="110.54" width="73" height="27.97"/><path class="cls-1" d="M296,116.46v27H224v-27h72m1-1H223v29h74v-29Z" transform="translate(0 -5.43)"/><text class="cls-10" transform="translate(246 129.6)"><tspan class="cls-9">1</tspan><tspan x="6.75" y="0">1%</tspan></text><g class="cls-12"><rect class="cls-14" x="145.5" y="111.54" width="76" height="27.97"/><path class="cls-1" d="M221,117.46v27H146v-27h75m1-1H145v29h77v-29Z" transform="translate(0 -5.43)"/></g><text class="cls-10" transform="translate(164 131.6)">3.742</text><text class="cls-5" transform="translate(5 129.6)">Les Corts</text><line class="cls-21" x1="296.5" y1="56.07" x2="4.5" y2="56.07"/><text class="cls-22" transform="translate(2.44 15.44)">Precio de la vivienda en Barcelona</text><text class="cls-23" transform="translate(5 30.01)"><tspan class="cls-9">V</tspan><tspan x="6.52" y="0">ariación entre el segundo trimestre de 2016 y 2017</tspan></text><polygon class="cls-24" points="205.74 378.57 295 378.57 295 392.13 205.74 392.13 205.74 378.57 205.74 378.57"/><path class="cls-1" d="M277.35,387h-3.42v.43l.9.21V394a.75.75,0,0,1-.63.32,1.34,1.34,0,0,1-1.11-.81l-.86-1.53a1.77,1.77,0,0,0-1.56-1.05v-.11a2.09,2.09,0,0,0,2.16-1.95c0-1.31-1.19-1.82-2.57-1.82h-3.11v.43l1,.21v6.4h0l-1.17.22-2.91-7.93a3.65,3.65,0,0,1-1,.9l.11.32-2.65,6.5-.8.22v.43h2.41v-.43l-.79-.21.9-2.37h2.46l.86,2.35-.93.22v.43h5.89v-.43l-1-.21v-3a1.45,1.45,0,0,1,1.31,1l1.17,2.08a1.89,1.89,0,0,0,1.69,1,1.67,1.67,0,0,0,1.11-.46h2.64a4,4,0,0,0,4.06-3.85,3.86,3.86,0,0,0-4.13-3.85Zm-14.93,4.09,1-2.73,1,2.73Zm7.62-.58h-.52v-2.87h.66a1.29,1.29,0,0,1,1.35,1.37,1.49,1.49,0,0,1-1.48,1.5Zm7.24,3.54h-1.1v-6.41h1.13c1.75,0,2.82,1.21,2.82,3.21s-1.12,3.21-2.85,3.21Z" transform="translate(0 -5.43)"/><path class="cls-1" d="M221.21,394.08l-2.84-7.72a3.65,3.65,0,0,1-1,.9l.11.32-2.65,6.5-.57.22-.17.43h2.35v-.43l-.79-.21.9-2.37H219l.86,2.35-.93.22v.43h3.16v-.43l-.84-.21Zm-4.51-3,1-2.73,1,2.73Z" transform="translate(0 -5.43)"/><polygon class="cls-1" points="214.44 387.34 214.15 387.18 212.49 388.7 211.07 388.7 211.07 382.25 211.92 382.03 211.92 381.6 208.86 381.6 208.86 382.03 209.72 382.25 209.72 388.65 208.86 388.87 208.86 389.29 213.68 389.29 214.44 387.34 214.44 387.34"/><polygon class="cls-1" points="227.8 381.6 227.8 382.03 228.73 382.25 226.72 387.39 224.6 382.24 225.6 382.03 225.6 381.6 222.18 381.6 222.18 382.03 223.16 382.24 226.2 389.56 226.52 389.56 229.55 382.25 229.58 382.25 230.52 382.03 230.52 381.6 227.8 381.6 227.8 381.6"/><path class="cls-1" d="M258.13,387v.43l.92.22s.07,3.81,0,4.78a1.94,1.94,0,0,1-2.07,1.88,1.91,1.91,0,0,1-2.07-2v-4.69l.89-.2V387h-3.09v.43l.88.21v4.73a2.84,2.84,0,0,0,3.06,2.69,2.79,2.79,0,0,0,3.06-2.69l.06-4.72.9-.22V387Z" transform="translate(0 -5.43)"/><path class="cls-1" d="M291.55,394.07l-2.83-7.71a3.65,3.65,0,0,1-1,.9l.11.32-2.66,6.53-.45.18-.61-.19v-6.43l.94-.21V387h-3.22v.43l.93.22v6.4l-.89.21v.43h4.92v-.43l-.79-.21.9-2.37h2.46l.86,2.35-.93.22v.43h3.16v-.43l-.85-.22Zm-4.5-2.95,1-2.73,1,2.73Z" transform="translate(0 -5.43)"/><path class="cls-1" d="M241.61,387v.43l.94.22.06,5L237.78,387h-2.06v.43l.93.21.08,0-.07,6.36h0l-.95.22-2.91-7.93a3.65,3.65,0,0,1-1,.9l.11.32-2.65,6.5-.8.22v.43h2.41v-.43l-.79-.21.9-2.37h2.46l.86,2.35-.93.22v.43h5.06v-.43l-1-.22-.06-5.56,5.51,6.48h.36l.07-7.32.93-.21V387Zm-10.47,4.09,1-2.73,1,2.73Z" transform="translate(0 -5.43)"/><path class="cls-1" d="M249.7,390.79v.43l.87.22v2.48a2.88,2.88,0,0,1-1.74.58c-1.75,0-2.87-1.47-2.87-3.51s1.1-3.67,2.89-3.67a2.74,2.74,0,0,1,2.57,2.09l.25-.15v-2.43l-.22-.12-.47.59a4.86,4.86,0,0,0-2.13-.54,4.31,4.31,0,0,0-4.32,4.24,3.91,3.91,0,0,0,4,4.1,4,4,0,0,0,2.48-.83l.68.45h.22v-3.3l.73-.28v-.35Z" transform="translate(0 -5.43)"/></svg>