<svg id="Capa_1" data-name="Capa 1" xmlns="http://www.w3.org/2000/svg" viewBox="0 0 1070.95 951.61"><defs><style>.cls-1{font-size:38px;font-family:Arial-BoldMT, Arial;font-weight:700;}.cls-1,.cls-3{fill:#323232;}.cls-2{letter-spacing:-0.07em;}.cls-3{font-size:31px;}.cls-10,.cls-11,.cls-15,.cls-29,.cls-3,.cls-32{font-family:ArialMT, Arial;}.cls-4{letter-spacing:-0.06em;}.cls-25,.cls-26,.cls-5{fill:#bf172b;}.cls-20,.cls-23,.cls-26,.cls-28,.cls-5,.cls-6,.cls-7,.cls-8,.cls-9{stroke:#fff;}.cls-5,.cls-6,.cls-7,.cls-8,.cls-9{stroke-linecap:round;stroke-linejoin:round;}.cls-21,.cls-5,.cls-6,.cls-9{opacity:0.9;}.cls-22,.cls-23,.cls-6{fill:#ee3d3d;}.cls-13,.cls-7{fill:none;}.cls-7{stroke-width:0.8px;}.cls-27,.cls-28,.cls-8{fill:#891926;}.cls-19,.cls-20,.cls-9{fill:#f27475;}.cls-10,.cls-11{font-size:20.67px;}.cls-10,.cls-29,.cls-31{fill:#fff;}.cls-12{letter-spacing:-0.06em;}.cls-13,.cls-19,.cls-22,.cls-25,.cls-27{stroke:#757575;}.cls-13,.cls-19,.cls-20,.cls-22,.cls-23,.cls-25,.cls-26,.cls-27,.cls-28{stroke-miterlimit:10;}.cls-14,.cls-32{fill:#757575;}.cls-15{font-size:23px;}.cls-16{letter-spacing:-0.06em;}.cls-17{letter-spacing:0em;}.cls-18{opacity:0.7;}.cls-24{opacity:0.95;}.cls-29{font-size:21px;}.cls-30{fill:#002f64;}.cls-32{font-size:22px;}</style></defs><title>Tasa de quejas</title><text class="cls-1" transform="translate(0 32.6)"><tspan class="cls-2">T</tspan><tspan x="20.39" y="0">asa de quejas por cada 1.000 habitantes</tspan></text><text class="cls-3" transform="translate(1 76.2)">Quejas presentadas en el<tspan class="cls-4" x="353.29" y="0"> </tspan><tspan x="360.19" y="0">Ajuntament de Barcelona desde 2014 al 2017</tspan></text><path id="path4284" class="cls-5" d="M320.15,314.38c.15-1.2,1.55-1.59,2.3-2.4,1.58-1.54,2.35.21,3.44,1.43,1.74,2.27,5.26,1.23,6.08-1.3.41-2.29.43-4.56,1.29-6.7a9.58,9.58,0,0,0,1.64-2.47c.58-.77.29-1.73.19-2.6.88-.83,2.47-.93,2.63-2.35-.36-.75-1.4-1.33-2-2-2.14-1.21,1.4-3.2.62-5.14-.28-2.72,2.95-4,4.59-5.62,1-.43,1.89-1.12,1.45-2.3-.42-2.3-1.13-4.6-1-7-.13-1.4.61-2.66.94-4a3,3,0,0,1,2.18,1,14.1,14.1,0,0,0,5,6.33c1,.3,1.24,1.7,2.35,1.58a22.33,22.33,0,0,0,5.52,2.79c2.09,1.84,3.39-.69,5-1.62a7.28,7.28,0,0,0,1.93-1.68c.63.21,1.62,1.39,2.12.56-1-1.62-2.75-2.83-3.65-4.59-1.59-2.78-2.28-6.21-4.61-8.5a15.82,15.82,0,0,0-3.94-3.15c-.76-.93-1.24-2.18-2.56-2.4-2.43-.62-3.34-3.31-4.58-5.21-1.46-1.47-1.26-2.58.45-3.45,1.15-.78,2-2.24,3.46-2.26a18.66,18.66,0,0,1,2.16-1.68c1-.8,2.32-1.2,3.26-2.12,2.87.8,5.85,1.26,8.64,2.3,2.09.9,4.15,1.87,6.23,2.81a32.21,32.21,0,0,1,.2-5.72c.07-2.25-1.41-4.26-1.3-6.53a9.32,9.32,0,0,0-1-4.25c-.79-3.54,2.2-6.38,2.39-9.81.72-2.61,1-5.42,2.63-7.68a48.39,48.39,0,0,1,3.12-5c1.19-1,2.26-2.25,3.85-2.64,1.93-.73,3.84-1.65,5.79-2.27a29.76,29.76,0,0,1,6.86.9c1.53.11-.72.84-1.17,1.27l-7.1,4.24c-.29,1-.39,1.89.77,2.26a29.42,29.42,0,0,0,5.76,2.84c.46,1.36-.7,2.41-1.17,3.59-.59.88-.84,2.1-1.65,2.78-1.53,1-3.47,1.5-4.58,3-.42,1.34-.81,3.09.53,4,1.06,1,2.4,1.88,2.77,3.41.39,1.37,0,2.85.24,4.26a6.83,6.83,0,0,0,2.13,4.42,41.25,41.25,0,0,1,3.31,4.42c.37,1.78-1.43,3-2.82,3.77-1,1.05,0,2.6.62,3.57.68.8,1.73.92,2-.26.53-.93,1.44-2,2.62-1.51a3.38,3.38,0,0,1,4.83,1c.43,1,0,2.58-1.32,2.65s-2,1.58-2.47,2.69c.62,2,5.17,1.85,4,4.69-1,.55-2.67-.11-3.3,1.13-.34,1.61.53,3.2.74,4.8s.9,3,.88,4.62a1.27,1.27,0,0,0,.39,2.1c1.15,1,2.43,2.09,2.87,3.63.51.68,1.09,1.48.58,2.33-.17,1.17-.57,2.5.27,3.52a11.5,11.5,0,0,0,3.82-.23,29.69,29.69,0,0,0,2.9-.83c1.36,1.61.1,5.5,2.21,5.89,1.48.4,2.41-.89,3.64-.23.43.83,1.57-.24,2.36.4.81.22,1.64,1.23,2.45.93,1.11-.52,2.13-1.77,3.47-1.33a19.31,19.31,0,0,0,2.58-.79,26,26,0,0,0,3.91-.2,59.19,59.19,0,0,0,6.4-2.18c1.4-.14,2.72-.65,3.89.34.8.66,1.7.33,2.4,1.1a11.26,11.26,0,0,1,2.29,2.54c-.19,1.3-.67,2.72.06,4,.46,1,.13,2.26.87,3.19.39,1.46,1.16,2.88,1.27,4.38.12,1-.88,1.32-1.6,1.78-.89.63-2.13,1-2.36,2.17-.52,1-.82,2.11-1.39,3,1.67.78,2.39,3.11,3.14,4.88.38,1,1.3,2,1.12,3.06-.68,1.65-.37,3.48-1,5.17-.3.87-.72,1.62-.21,2.5-.13.91.77,1.3.92,2.15s-.45,2.13.39,2.61a11.24,11.24,0,0,0,3.42.88c1.81.89,3.76,1.62,5.49,2.61.72.65.82,1.4,1.43,2.14a22.1,22.1,0,0,0,6.15,6.25c1.52,1.14,2.31,3,3.6,4.37,1.2,1.95,2.28,4,3.54,5.89.93.63,1.64,1.71,2.74,2,.91-.44,2.29-.09,2.32,1.08.22.82,0,2.09,1.12,2.2,2.27.93,1.56,4.37,2.91,6.18,1.58,1.42.82,3.4-.05,5a5.59,5.59,0,0,0-.58,5c.22,1,.62,1.83.76,2.78a4.83,4.83,0,0,0,2,2.78c1.32,1.6,1.65,3.76,2.47,5.65.51,1.46.81,3.15,2.29,4a13.16,13.16,0,0,0,3,2.17c1,.06.61,1.45,0,1.85-2.34,1.18-4.93,1.87-7.38,2.84-2.37.75-3.26,3.33-5,4.8-1.61.47-1.57,2.44-2.39,3.64-1.15,1.71-.5,3.87-1.34,5.68-.29.94-1.19,2-2.24,1.38-1.34-.77-.41.86-.36,1.57.46.49.55,1.82.87,2.63,1.19,4.09,2.19,8.25,3.49,12.29,1.36,3.67,2,7.55,3.09,11.32l1.75,6.93c.66,1,.67-.79.75-1.49.44-1.51-.59-3.08,0-4.55.63-.69,1.9.06,2.45-.88a4.1,4.1,0,0,0-.22-3.54c0-1,1.44-1.23,2.17-.74.77.34,1.94,0,2.16,1.1.59.76,2.17-.24,2.4.91-.27.88-.8,1.84-.19,2.72-.12,1.94,2,.94,2.79,1.75-.35,1.16-2,1.42-2.47,2.57a8.86,8.86,0,0,0-1.43,3.88,22.46,22.46,0,0,0,2,2.66,33.13,33.13,0,0,1,3.86,1.27,45.55,45.55,0,0,1,1.84,5.47c.42,1.65,1.33,3.23,1,5-.1,3.88-.58,7.72-.92,11.58a20.86,20.86,0,0,0-3.07,2c-.18,2.31-.55,4.66-.61,7,.43,1.11,1,2.18.75,3.4,0,4.9-.09,9.79-.22,14.69.09,1.43-.25,3.09,1,4.15,2.83,4.1,6.2,7.8,9.13,11.82,1.25,1.57.27,3.63-.13,5.33a17.44,17.44,0,0,0-2,5c-1.52,5.58-3.28,11.27-2.88,17.12-1.26-.34-1.55.37-2.14.75-.07.15,0,1.59.4,1.79.09,1.59.24.31.75,0,1.32-.26.75,1.18.78,1.95-.21,1.76.32,4-1.29,5.18-2.09.8-2.61,3.2-3.72,4.91a3.58,3.58,0,0,1-2.8,2.52c-1.48.18-2.57,1.23-3.81,2-1.07,2.6-1.58,5.4-2.42,8.09a6.09,6.09,0,0,1-1.87,3.87c-.9,1.12-2.74,1.72-2.56,3.45-1.48,8.34-2.1,16.8-3.65,25.12a25.23,25.23,0,0,1-2.25,6c-14-7-28-13.94-42-20.91a1.83,1.83,0,0,1-2.18,1.31c-.85-.53-1.61-1.12-1.43-2.23s-1.32-1.13-2-1.68q-10-5.18-20-10.4c-2.44-4.53-5.5-8.69-8.25-13-3.52-5.18-6.87-10.5-10.51-15.6a6,6,0,0,0-3.59-2.69c-7.85-3.72-15.57-7.7-23.4-11.49-2.83-2.08-6.53-2.3-9.71-3.67,1.39-2.76,2.75-5.86,1.65-9-.69-3.18-3.52-5.69-3.33-9.07,5.94.15,12.28-4.49,12.16-10.79-.19-3.66-3.38-6.36-3.56-10-.69-3.89-1.24-7.81-1.75-11.73a9.85,9.85,0,0,0-4.31-.13,16.43,16.43,0,0,1-6.85-.63c-1.15-.73-3-1.41-2.73-3.09a4,4,0,0,1,.63-2.87,8.12,8.12,0,0,0,1.23-3.49c.89-.54.76-1.55.69-2.42.25-1.22,1.28-1.54,1.52-3,.2-1.09,1.23-1.26,1.34-2.25-.12-1-.6-2,.12-2.8,0-1.3.68-2.7-.12-3.86a2.33,2.33,0,0,1,.44-2.18,6.47,6.47,0,0,0,.06-2.49,4.71,4.71,0,0,0-1-3,3,3,0,0,0-.62-2.3c0-.77.3-1.63-.54-2.23-1.78-2.13-1.89-5.26-3.8-7.28-2-1,.1-1.29,1-2,1.65-1,2.93-2.68,4.94-3,2.72-.83,5.57-2.28,6.74-5a7.1,7.1,0,0,0,1.1-3c-.69-1.48-.79-3.18-1.77-4.55a2,2,0,0,1-.33-2.48c.9-1.81,2.74-2.91,3.82-4.62.84-.94.34-2.46,1.45-3.24.77-.85,1.69-1.67,1.72-2.91a20.9,20.9,0,0,1,1.7-5.15c-2.85-3.54-2.35-9-6.18-11.88-1.84-.93-3.52.89-5.37.87a9.32,9.32,0,0,1-3.09-.35c-1.25-.76-2.75-1.23-3.42-2.65-2.93-4.07-4.77-9.26-9.38-11.83-3-5-7.33-9.56-8.47-15.49.11-2.42.25-5.23-2-6.84a4.59,4.59,0,0,0-2.87-1.52c-2.19-.37-4.42.07-6.63,0-3.18.12-6.42,0-9.5.89-.11,1.26-1.45.49-2.26.51-2-.34-4-.94-6-1.38-1.09.78-2.39-.28-3.49.19-1.24,1.34-2.21,3-3.87,3.84-2.19,1.4-4.9.84-7.36,1.21-1.7.18-3.51.54-5.08-.39a2.53,2.53,0,0,1-3-1c-1.72-3.39-3.69-7.62-7.89-8.3-1.65.2-.3-1.74-.64-2.71a20.24,20.24,0,0,0-.31-4,18.32,18.32,0,0,1-2.84-1.64l-.89-3.46c1.32-5.51,2.48-11.17,2-16.87l1.68-2.74a2.82,2.82,0,0,1,2.55.94c1.69.94,3,2.41,4.63,3.45a4.65,4.65,0,0,0,3.46-.53c1.37-3,2.54-6.61,5.92-8,2.06-1.14,4.18-1.91,5.28.73,1.71,2.83,5.08,1.67,7.75,2.15s6.33,1.47,6.91,4.73c.23,1.28-.44,2.89,1.17,1.55,1.24-1.86,5.41,1.25,5.08-1.12q-.28-2-.55-3.93Zm-2.24-16.65a52.54,52.54,0,0,1-7.5.47l-14.35,3.33-6.79-2.68c1.11-.63,2.5-.93,3.13-2.16a28.56,28.56,0,0,0,3.35-5.12c1.23-1.25,3.1-1.14,4.68-1.65a4.2,4.2,0,0,1,3.08-.06c2.38.56,4.75,1.29,7.14,1.75,2.39-.43,4.86-.59,7.09-1.66,1.17-.72.32,1.31.49,1.94Q318.07,294.81,317.91,297.73ZM316,272.21c-3.66-1.83-7.24-3.87-11-5.56-1.1-.45-2.4-.37-3.19-1.39-1.91-1.85-3.65-4-5.6-5.73L293,258.46l-2.8,6.91a83.09,83.09,0,0,1-8.8,5.78L278.27,273c-7.27-3.09-14.46-6.34-21.66-9.58.48,2.65,1.29,5.62-.25,8.09.36,1.45-.78,1.05-1.75.87l-10.26-1.5,5.6-25.45a24.42,24.42,0,0,0,8.54-1.14c2.5-.61,5.05-1,7.52-1.79,2.86-2.3,5.77-4.58,8.74-6.73.71-1.1.73-2.54,1.68-3.52.61-1.31,1-2.75,2.1-3.78a9.24,9.24,0,0,0,2.06-3.34c.61-1.51,2.55-1.61,3.25-3a8.92,8.92,0,0,0,.5-6.75c-.51-1.26-2-3-.76-4.31.8-.79-1.75-1-1.4-1.8a11.78,11.78,0,0,0,1.08-5.83,2.22,2.22,0,0,1-.64-2.27c-.06-1.19.49-1.65,1.65-1.38,1.89-.05,3.94,0,5.43,1.36a76.74,76.74,0,0,0,11.6,4.74c2,.31,4.16,1.17,6.16.68,1.69-.79,2.53-2.66,4.1-3.67,2.08-2,5.1-2.62,7.22-4.54,3.77-3.88,6.92-8.32,10.38-12.47s6.57-8.29,10-12.3l5.76-5.47c2.54,2.31,4.92,4.81,7.59,7,0,.94-1.39.94-1.83,1.69-1.73,1.56-3.81,2.85-5.17,4.76-.41,1.09-1.39,2-1.52,3.14.48,1.18,1.94,1.58,2.94,2.24l6,2.55c-2.07,3.06-4,6.25-6.17,9.23-1.43.42.37,1.21.75,1.84,1.65,1.82,3.82,3.1,5.19,5.18L361,216.08c-4.21,2.59-8.37,5.29-12.63,7.78a3.37,3.37,0,0,1-2.38,1.81c-1.84.66-3.45,1.86-5.44,2.07-3.39.31-4.08,3.83-5.72,6.14-.69.92.71,2,1,2.94l3.89,7.13-6.22,15.37Z" transform="translate(-24 -14.4)"/><path id="path707" class="cls-5" d="M300.18,593.9l-2.74-3.11c-.57.92-.24,2.1-.28,3.13.34,2,1,3.9,1.12,5.87-.13.84,0,1.84-.61,2.23-.4.82-.22,1.66-.57,2.44s-1,1.78-.57,2.77a41.46,41.46,0,0,1,.84,9.65,15.13,15.13,0,0,1,.27,3.14c.26,1-.16,1.54-.07,2.2.65,2.08.53,4.32,1.45,6.32a3.93,3.93,0,0,1,.45,2.38c.56.44.18,1.59.35,2.33-.57,1.26-.33,3.59-.66,5.4a29.52,29.52,0,0,1-2.11,7.91c.51.64-.83,1.41-.93,2.19-.95,2.52-2.53,4.73-3.8,7.09a19,19,0,0,1-3.93,8.44,24.92,24.92,0,0,0-3.55,8.24c-.11,4.31-.06,8.63-.11,13-4.76.54-9.6-.51-14.34.31-2.41.95-4.08,3.1-6.05,4.7-2.61,2.33-4.77,5.19-7.8,7a17.67,17.67,0,0,1-4.29,2.28c-1.19.15-2.23-.54-3.3-.93-.94,3.43-1.68,6.93-2.75,10.32a56.21,56.21,0,0,0-2.23,5.38,40.08,40.08,0,0,0-1.25,4.53c1.25.06.26,1.33.27,2.07l-1.38,6c-.79.42-.44,1.68-.73,2.46a80.09,80.09,0,0,0-.83,8.37c-2.17-.18-4.15-1.23-6.23-1.8l-2.48-.82.81-3-6.6-1.87c-.13.93-.25,1.87-.37,2.8l-3.55-.75a2,2,0,0,0-1.31-2.05,21.42,21.42,0,0,1-5.84-.23,34,34,0,0,0-5.79-.58c.6-1-1.66-.64-1.41-1.45.61-.73-1.43-1.23-1.58-.72l-2.49-1c.35-.81-1.23-.76-.32-1.92,0-.66,1.06-2.11.14-2.17l-6.85-.76-1,3a28.32,28.32,0,0,1-6.51-1.75c-21-8.14-42-16.35-63-24.44-4.37-1.64-8.81-3.16-13.15-4.88-2-1.26-4.45-1.76-6.66-2.68-4.22-1.59-8.55-2.89-12.73-4.57a17.82,17.82,0,0,0-5.06-1.85l-3.18-.77c5.68,27.7,3.69,53.17-5.48,80,.72,3.85,1.34,7.74,2.11,11.58,2.64,5.63,5.17,11.33,7.88,16.92,4.14,7.36,8.33,14.68,12.69,21.9a122.9,122.9,0,0,0,7.27,10.41c2.3,3,4.49,6,6.85,9,8.76,8,17.58,15.85,26.3,23.86l27.26,31.83c3.75-.61,7.54-1.07,11.27-1.75,7.81-4.36,15.57-8.82,23.42-13.11,1,.16,1-2,1.69-1l13.49,13.74,71.9-35.43,2.21,3.17-11.2-17,1.31-5c-1.61-.9-3.46-1.47-4.67-2.93-1.71-1.57-3.34-3.3-5.11-4.76l-7.77-2.14-11.76,4.48c-.43-.78-.74-1.89-1.76-1.09l-56,19.95-4.42-10.89c4.6-1.54,8.92-3.76,13.39-5.64l2.61-1.15-4.11-12.63,9.64-3.48,12.7,11.82,42.07-34,2.05,2.3-2.92,2.3q.66,1.62,1.76.25c.66-.4,1.45-1.4,2-1.44.23.75,1.53,1.68.45,2.22l-2,1.82c.83.77.89,1.43-.21,1.92l-4,3.12c.57.69,1.63,1.41.36,2L260.41,810c2.08.77,4,2,6.27,2.14l36.24,5.45c.79-.81.66-2.14,1.05-3.17l1.37-5.67c.95.64,1.56.47,1.77-.69.54-1.21.74-2.6,1.33-3.76l4.25-3.7,2.8.68L308,835.42c.75,0,2,.79,2.43.22l8.15-33.83,5,1c-.27,2-1.13,4-.71,6.06l2.33,22.07-2.74,1c.06,1.22,1.39,0,2.1,0,12.87-4.25,25.79-8.36,38.58-12.87l9.73-3.36-.93-17.3,9-3.36,6.66,19.79,11.64-4.11L395,796.14l21.1-5.66,4.69,15.27c1.89-.28,3.64-1.22,5.46-1.77s3.41-1.18,5.12-1.78c.54-.76-.34-1.66-.44-2.48-.42-.58-.25-2.37-1.22-1.81-1.1.83-1.13-.55-1.46-1.32l-4.1-11.69c.69-.27,2.35-.2,1.16-1.12-.67-.71,1-1.15,1.38-1.74l18.56-15.19c.29,1.13,1,1.23,2,.83.83-.22-.22-1.6-.2-2.31a2.61,2.61,0,0,1,0-2.29c-.43-1.86-.89-3.71-1.3-5.57l6-1.43a55.71,55.71,0,0,0-2.58-5c-6.12-6.79-10.92-14.84-18.17-20.55-5.29-6.22-11.45-11.62-17.07-17.53q-17.63-17.67-35.3-35.29c-3.29-8.42-1.26-17.57-1.72-26.33.39-6.77-.29-13.58.48-20.34,6.26-5.74,12.62-11.36,18.86-17.12-2.34-.76-4.83-.27-7.24-.55a67.71,67.71,0,0,1-9.39-.77,52.84,52.84,0,0,1-11.5-2.91c-5.25-1.67-10.39-3.64-15.52-5.66-3.83-1.81-7.62-3.79-11.81-4.64-7.18-1.79-14.57-2.38-21.86-3.57C312.68,595,306.42,594.5,300.18,593.9Z" transform="translate(-24 -14.4)"/><path id="path709" class="cls-6" d="M305.59,447.77a5.66,5.66,0,0,0-1.93.21,7.65,7.65,0,0,1-4.14,1.59c-.41.13-.88.15-1.26.31a24.11,24.11,0,0,0-2,2.45c-.49.87.37,1.68.67,2.47a6,6,0,0,1,.49,3.78,17.64,17.64,0,0,0-.75,3.79,2.72,2.72,0,0,1-.47,1.43,20.48,20.48,0,0,0-2.56,2.5c-.62.49-.88,1.33-1.37,1.92a3.77,3.77,0,0,0-1.51,1.23c-.74.81-1.17,1.84-1.83,2.69-2.29,2.17-3.53,5.18-5.24,7.75a4.89,4.89,0,0,0,.18,2.27c.12.77,1,1.25.87,2.08a7.87,7.87,0,0,0,.45,3.55c-1.68-.42-3.06-2-4.91-1.68.32,2.39-.36,4.8-.14,7.17a1,1,0,0,1-.22,1.12c-.32.31-.2.93,0,1.29s-.21.79-.15,1.15c-.33.21,0,.8-.49,1,.07.44.16.79-.13,1.13-.11.43.4.79.33,1.17-.55.45,0,1.2-.25,1.79,0,.7-.83.69-1.3.93a1.71,1.71,0,0,1-1.34.15,22.67,22.67,0,0,1-4.37.4c-.52-.12-1.08-.15-1.42-.61l-1.73-1.54c-2.2,1.81-4.45,3.54-6.6,5.4-1,.79-1.25,2.09-1.77,3.17a5.36,5.36,0,0,0-.7,2.33c-.2,1.28.28,2.53.34,3.8.32,2.74.56,5.49.93,8.22.2.81.09,1.82.83,2.36.92.73,1.7,1.62,2.56,2.41.34,1.1-.84,2.1-.37,3.2.16.73.09,1.56.65,2.14a7.64,7.64,0,0,1,1.42,2.65,11.6,11.6,0,0,1,.91,4.21c-.18.49-.69,1-.4,1.51.23.28.71.54.7,1a36.43,36.43,0,0,1-1.21,4.06,2.4,2.4,0,0,1-.78,1.39c-1.21,1.38-2.52,2.67-3.85,3.93,8.37,8.37,16.15,17.29,24.46,25.71,6.48.76,13,1.3,19.42,2.36-1,3-3.74,4.92-5.91,7.06a10.14,10.14,0,0,0-2.19,2.64l2.69,3.06c8.18.74,16.36,1.5,24.48,2.76a112.79,112.79,0,0,1,21.14,4.21c8.77,4.45,18.14,7.56,27.49,10.52a59.25,59.25,0,0,0,6.16,1.2,38.91,38.91,0,0,0,5,.58c3.23.13,6.46.39,9.7.33a15.32,15.32,0,0,1,2.05.43,155.36,155.36,0,0,1,16.73-12.67c4.84-3.43,9.81-6.77,15.32-9-.06-.64-.12-1.29-.19-1.93-3-1.49-6-3.05-8.92-4.61-4.35-2.25-8.71-4.49-13-6.78a50.93,50.93,0,0,0-2.86-4.79c-4.9-7.56-9.93-15-14.92-22.53l-2.14-2.87c-8.69-4-17.2-8.45-25.83-12.63-1.56-1.29-3.62-1.7-5.5-2.32a40.31,40.31,0,0,1-4.21-1.35c1-2.34,2.49-4.73,2-7.39-.27-2.85-2-5.22-3.11-7.75-.33-.94-1.32-3.23.39-2.94,4.75-.29,9.56-3.36,10.89-8.09a8,8,0,0,0-.77-6.41c-.91-1.83-2.14-3.6-2.33-5.69-.58-3.43-1.15-6.87-1.58-10.32-.09-.67-.18-1.33-.27-2a9.48,9.48,0,0,0-3.19-.26,16.2,16.2,0,0,1-4,.24c-1.3-.1-2.56-.46-3.84-.66-.91-.63-2.08-1-2.67-2-.38-.43-.11-1.07-.19-1.6s-.13-1.24.27-1.74c.42-.9,1-1.75,1.31-2.67a13.4,13.4,0,0,1,.34-1.59,1.62,1.62,0,0,0,.63-1.81,2.38,2.38,0,0,1,.37-1.55c.79-.19.74-1.69,1.31-2.32.26-.37.34-1.13.93-1a2.23,2.23,0,0,0,.13-1.53c0-.57-.38-1.15,0-1.66a7.41,7.41,0,0,0,.46-2.48c0-.45.21-.94-.12-1.31a2.5,2.5,0,0,1-.14-2.13,2.33,2.33,0,0,0,.41-1.1,1.06,1.06,0,0,0,.06-1.06,4.94,4.94,0,0,1-.06-1.55c-.15-.37-.16-.78-.31-1.12a1.89,1.89,0,0,0-.62-1.12,4.21,4.21,0,0,0-.44-2.12c-.42-.4-.23-1-.12-1.56-.44-.91-1.31-1.56-1.63-2.55-.89-1.81-1.37-3.82-2.54-5.48-1-.5-1.74-2-2.48-2.23-.63.56-1.05,1.34-1.7,1.85-1.29.61-2.67,1-4,1.61-.5.42-.87,1-1.46,1.33s-1.5.08-2.24.08a3.52,3.52,0,0,1-2.42-.15,15.17,15.17,0,0,0-4-.81c-.93.61-1.67,1.49-2.56,2.14-1.16.46-2.29,1-3.48,1.39a9.92,9.92,0,0,1-2.66,1.48,5.6,5.6,0,0,1-2.16.57,6.48,6.48,0,0,0-2.32.26,21.77,21.77,0,0,0-2.24.75,10.22,10.22,0,0,1-1.39,1.38Z" transform="translate(-24 -14.4)"/><g id="g687"><g id="g689"><path id="path695" class="cls-7" d="M500,690.54l6.91,7.22,8.9-.06,5,1.62,6,2,2.24-.12h6.78l-.06,6.1v13l6.59.06,6.47.13c-.27,13.16-.42,26.36-.37,39.52,4.26,0,8.51.2,12.76.25l-1,1.74,1,1.93.06,4.73v14.44l-3-.62-.12-4.17-5.54-1.06-5.85.94-14.94,5.1L521.11,787l-.5-1.24-3.73,1.43-6.47,2.74-3,1-4.73,2-7.47,3.92-8.59,4.35-12.75,8.28-1.56,1.43,2.05,5.66-1.37.56L469,810.9l-8.09,3.86-3.24,2.55-9,4.23-7.28-.31-5-2.05-4.79-1.12-48.29,16.49-.75.56L365.4,840.9l-1.81,1-1.43.93-1.18.31-2.31,1-2.3.93-1.74,1.37-36.22,25.7-7,5-6.1,4.48-11.7,8.34-7,4.92-1.25.87-.87-1.43,12.14-8.71-4-5.72-.37-.69.13-.56.49-.06,5.67-3.74.56.69-2.68,1.81,1.25,1.68-.93.68.62.88.93-.69,2.3,3.11,2.74-2.18L313.74,873l.13-2.18-.13-.18.06-.56,6.66-4.73,5.1-3.23,1.12,1.93,19.85-14.93-.75-2.37,4.42-3.36,2.18-1.12.13-.07.81-.18.93-.25,2.3.38,1.43-1.06,7.34-2.49.19-2.24-.75-2.18.5-.93,1.18-.81.31-.18v.06l.37,1,45.24-15.62L432,811l11,6.28,9.77-2.12,6.29-4.54-.87-1.18-.44.37-.18-.24.75-.56.12.12.12.19.13-.06.06.06.13-.19.81,1.06,7.72-5.85-2.24-3-5.6,4.17-.44-.62-2.24,1.74-.06.13.87,1.49-.69.5-.62-.93-1.31,1-.87-1,8.84-6.66-1-1.31-8.77,6.72-.44-.56,1.68-1.25-1.43-2,8.34-6.23-1.06-1.43,2.12-1.62,6.35,8.4,1.93-1.43-2.3-2.92,1.06-.81-1.74-2.05,4.23-3.29,3.79,4.85,9-6.84,1.25-.5-.56-1-4,1.74-.13-.31,3.55-1.49-1.37-3.36-3.18-1-8.53,6.66L470.13,788v-.43l-.75-3.17.44-.13.69,2.87,1.56-1.12-.94-2.68.56-.19.75,2.49,1.56-1.12-1-2.68.37-.19,1.06,2.49,1.43-1.18-1.25-2.49.37-.25,1.31,2.37,1.5-1.12-1.43-2.36.44-.31,1.43,2.37,1.55-1.31-1.55-1.74.37-.37,1.68,1.8,6.78,2.24.25-.5.93-.68-.12-1.37.93,1,4.92-3.3-4.42-2.37.19-.31,4.61,2.43,1.43-.93,1.12-2.24-6.28-3.3.18-.43,6.41,3.3,1.49-2.8L492,766.78l.19-.44,6.66,3.48,1.37-2.36-6.78-3.61.19-.5L500.5,767l.93-1.62-7-3.8.12-.37,7,3.73.31-.5-.19-.62.44-.75-6-3.3.19-.37,6,3.23-.56-2.05-5-2.8.25-.5,4.54,2.55-.43-2.05L498,756.14l.19-.56,2.8,1.49-.5-1.55-3.23-2.05-.69-.32L486.25,772l-15,3.8-.68-.5-1.37-5.91,1.43-2.24,13.57-3.48,3.3-6.1.68-1.12,1.25-2.3-.19-.87-21.91,5.67-3.73.87-3.55.81-4.48,1,.37,1.31-1,.31,5,20.41,1.06-.25.43,1.24-1.12,1.87-.37.06-7,1.68-1.8-1.05-.31-1.25,1.18-.31-4.36-18-.93-3.49v-.37l.37-.37-1.31-5.54-.06-.31,6-1.43-2.3-4.67L444.12,745l-1.25-1.56L436,735.23l-.37-.43-1.18-1.12-3.3-2.86-1.93-2.18.13-1.43.19-1.3V720.6l.06-2.74c.29-6,.14-11.71.37-17.74,9.51-7.75,19.1-15.42,28.63-23.15l4.36.38,13.44,16.93C483.5,693.64,492.7,690.45,500,690.54Z" transform="translate(-24 -14.4)"/></g></g><path id="path697" class="cls-6" d="M377.34,631c-.77,6.82-.07,13.87-.5,20.66.48,8.68-1.53,17.72,1.74,26,9.84,10.13,20.17,19.8,29.87,30,7,6.91,14.11,13.71,20.79,20.91l.12-1.43.19-1.3V720.6l.06-2.74c.29-6,.14-11.71.37-17.74,9.51-7.76,19.1-15.42,28.63-23.15l4.36.38,13.44,16.93c7.08-.64,16.28-3.83,23.58-3.74l6.91,7.22,8.9-.06,5,1.62,6,2,2.24-.12h6.78l-.06,6.1,6.66.13,18.3.25,3.67-3.3,4.36-4.54,1.25-.75,19.17-19.23,1.8-1.8-.81-.75L589,674.92l.12-.06-.43-1.18-.06-.19H586.2l-4.36-5.16,1.87-1.31,6.72,3.42.75-.19,1.56-1.06,1-.31,1.62-.25c.16-13.8,0-27.67.25-41.45-.48-6.61.32-13.78-.06-20.41-13.19-.1-26.39-.1-39.58-.06l-.06,6.72-.12,6.53-.06,6.78H549l-6.47-.06H536.1l-7.09-.06.06-6.66c-13.56-.08-27.61.3-41.13-.06q-28.08-14.07-56.2-28l-.81,1.25-1.37.06-1.31-1c-7.57,3.09-13.34,7.87-20.1,12.26C397.08,612.39,387.52,622,377.34,631Z" transform="translate(-24 -14.4)"/><path id="path25" class="cls-8" d="M500,690.54l6.91,7.22c3,0,6-.09,9,0,3.63,1.16,7.24,2.37,10.85,3.57,3-.22,6-.08,9-.12-.09,6.37-.05,12.74-.06,19.11q6.53,0,13.07.18c-.27,13.17-.42,26.35-.37,39.52,4.26,0,8.5.2,12.76.25a9.25,9.25,0,0,0-.95,1.84c.38.88,1.13,1.67,1,2.68.1,6.11,0,12.21.05,18.32l-3-.62q-.06-2.09-.12-4.17c-1.88-.34-3.76-.77-5.64-1-2,.37-4.13.56-6.15,1.06-8.4,2.87-16.81,5.73-25.17,8.7-.29-.52-.31-1.64-1.09-1-3.43,1.22-6.72,2.79-10.12,4.1a62.54,62.54,0,0,0-7.56,3c-5.25,2.8-10.57,5.49-15.87,8.19-4.27,2.8-8.59,5.52-12.82,8.36-.4.46-1.16.88-1.34,1.38l4,6.41,2.86-.93,1.63,1.33-67.36,28.09L459.25,823l-1.56-5.65-9,4.23c-2.46-.13-4.94-.16-7.38-.35-1.83-.69-3.59-1.58-5.46-2.14-1.46-.3-2.92-.76-4.37-1l-48.2,16.46c-1,.93-2.52,1.06-3.77,1.58-4.75,1.61-9.51,3.18-14.24,4.82-1.12.57-2.18,1.27-3.25,1.91A57.76,57.76,0,0,0,356.6,845c-1.2.75-2.25,1.75-3.45,2.51-14.19,10.1-28.43,20.12-42.57,30.26-7.05,5.21-14.21,10.27-21.4,15.3l-3.82,2.67c-.13-.52-1.16-1.23-.61-1.61l7.37-5.1q.25-4.58.51-9.16c-.39-.41-.59-1.43.25-1.31l5.67-3.74c.78.56.39.95-.32,1.28l-1.79,1.21,1.25,1.68c-.64.38-1.21.77-.44,1.38.37.49,1.08-1.14,1.38-.08l2,2.68c2.28-1.89,4.7-3.6,7.1-5.34l-2.36-6.2L323.2,859l-1.37-2.8L341,843c-.14-.6-.61-1.31-.54-1.83l2-1.29c.55.27,1,1.23,1.63.87,7.11-2.52,14.24-5,21.33-7.53.44-.17,1.16-1.05,1.44-.77.1.92.62,1,1.35.55,21.29-7.34,42.57-14.74,63.9-22l11,6.28c3.28-.74,6.61-1.37,9.86-2.18l6.2-4.48c-.42-.35-.73-1.63-1.28-.83-.5-.31.68-1,.87-.52.4-.42.69.89,1.11.85l7.63-5.78-2.24-3-5.6,4.17c-.3-1-.85-.33-1.36.1s-1.25.71-1.32,1.24c.11.51,1.13,1.22.56,1.59-.63,1-.74-1-1.3-.43-.51.3-1.08,1.23-1.47.32-.89-.54.11-.89.57-1.28l7.82-5.89c-.43-.29-.73-1.54-1.25-1.11l-8.52,6.52c-.85-.58.1-.92.59-1.32.94-.33.42-.89,0-1.44-.28-.5-1.18-1.11-.24-1.42l7.83-5.84c-.21-.51-1.16-1.12-.89-1.56l1.95-1.49,6.35,8.4,1.93-1.43-2.3-2.92c.41-.41,1.51-.75.64-1.3l-1.33-1.57,4.23-3.29,3.79,4.85c3-2.28,6-4.63,9.06-6.88.61-.25,1.54-.38.78-1.11-.28-.73-1.12.23-1.66.29l-2.52,1.1c-.32-.63,1-.59,1.35-.93l2.07-.87-1.37-3.36-3.18-1-8.53,6.66a23.46,23.46,0,0,1-1.74-2.22,32.68,32.68,0,0,0-.75-3.5c.77-.43.52.89.78,1.33s.09,1.88.77,1.1c.46-.42,1.47-.67.91-1.41l-.72-2.07c.82-.57.7.64,1,1.14s.26,1.58,1,.73c.63-.37,1.21-.76.66-1.48l-.7-1.88c.67-.48.65.88,1,1.28.22.74.48,1.32,1.09.48.72-.37.89-.86.34-1.5-.19-.55-.77-1.2-.73-1.69.56-.45.69.89,1.06,1.21.29.71.61,1.25,1.22.46.75-.35.93-.82.32-1.43-.18-.54-1-1.22-.76-1.67.54-.44.71.87,1.09,1.18.33.69.67,1.3,1.25.45.51-.41,1.28-.8.41-1.31-.23-.49-1.43-1-.76-1.49.47.16.92.94,1.38,1.33.56.73,1.61.7,2.4,1.07l4.76,1.57c.08-.71,1.11-.79,1.16-1.39-.12-.8-.2-1.51.48-.54.42.78,1.06-.26,1.59-.46l3.68-2.47-4.42-2.37c.3-.67,1.08.35,1.6.43l3.19,1.68c.64-.49,1.54-.74,1.77-1.6.12-.53.95-1.29.6-1.67l-6.1-3.2c.15-.89,1,.15,1.51.25l5.08,2.62,1.49-2.8L492,766.78c.15-.89,1,.16,1.51.26l5.34,2.79,1.37-2.36-6.78-3.61c.11-1,1,.07,1.51.2L500.5,767c.23-.54.86-1.2.84-1.66l-6.88-3.75c.15-.79,1,.29,1.54.38l5.62,3c.61-.49-.18-1.17.45-1.67.15-.51-1-.65-1.38-1l-4.54-2.48c.24-.78,1.07.29,1.59.39l4.57,2.47a12.21,12.21,0,0,0-.65-2.1l-4.95-2.75c.17-1,.94,0,1.46.18l3.33,1.87a11.44,11.44,0,0,0-.53-2.1l-3-1.57c0-1,.89-.08,1.41.09s1.49,1,1.51.64c-.26-.61-.23-1.46-1-1.7a33.6,33.6,0,0,0-3.38-2L486.25,772l-15,3.8c-.71-.29-.83-1-.95-1.64l-1.11-4.77a20.45,20.45,0,0,1,1.54-2.27l13.46-3.46c1.52-2.83,3-5.65,4.64-8.44.31-.58.78-1.14.43-1.81-.37-.26-1.23.27-1.78.31-7.31,1.86-14.59,3.83-21.92,5.62q-5,1.17-10,2.26c.09.59.77,1.5-.24,1.5-.78.12,0,1.13,0,1.67L460,783.65c.69-.26,1.3-.37,1.33.55.39.64-.4,1.15-.61,1.72-.19.75-1,.66-1.55.85l-6.2,1.48a11.74,11.74,0,0,1-1.83-1.16c-.17-.63-.56-1.39.44-1.33s.09-1,.11-1.57c-1.66-6.69-3.15-13.43-4.94-20.09.15-.62.52-1.06.13-1.78-.37-1.61-.77-3.21-1.12-4.81l6-1.43c-.86-1.62-1.55-3.36-2.51-4.91-4.54-5.48-9-11-13.63-16.44-1.88-1.9-4.15-3.39-5.82-5.5-.66-.41-.5-1.1-.42-1.75.4-2.48.12-5,.22-7.5.24-6,.25-12.1.37-18.15-.52-2.1,1.72-2.82,3-4,8.56-7,17.17-13.84,25.73-20.79l4.36.38,13.44,16.93C484.35,693.49,492,690.55,500,690.54Z" transform="translate(-24 -14.4)"/><path id="path4299" class="cls-5" d="M480.9,448.27c.07.44-.27,1.84-.55.84-.36-.14-.33-1.11-.54-1.58-1.31-5-2.5-10.13-3.91-15.17a36.93,36.93,0,0,1-1.2-3.59l-3.57-12.87c-.36-.15-.32-1.17-.53-1.65.33-.16,1.15.43,1.69.3,1-.33,1.3-1.47,1.6-2.37a23.38,23.38,0,0,0,.39-3.2,47.76,47.76,0,0,1,2.08-4.66c.45-.55,1.31-.59,1.69-1.26,1.21-1.45,2.17-3.23,4-4,2.51-1,5.06-1.79,7.54-2.81a1.7,1.7,0,0,0,.81-1.87,32.67,32.67,0,0,0,4.08-.34c1,.06,1.74-.72,2.65-1a3.6,3.6,0,0,1,2.66-.51c.68-.65,1.77-.44,2.42-1.17.57-.4,1.55-.22,1.88-.95,1.14-.3,2.1-1.08,3.24-1.43a13.67,13.67,0,0,0,2.57.57,10.65,10.65,0,0,0,2.45-.76l16.57-.87c-.16-.7-.07-1.22.75-1.24,2.12-.48,4.3-.66,6.41-1.18,1.79-.14,3.62-.14,5.38-.37.88-.45,1.3-1.41,2.18-1.87a36.46,36.46,0,0,1,4.1-1.84c1-.29,1.62-1.23,2.69-1.22.65-.13,1.17-.63,1.85-.71.84.08.95-.47,1-1.21a13.9,13.9,0,0,1,1.82-3.56c.83-1,2.27-1,3.3-1.73a50.7,50.7,0,0,0,4.87-2.87,13.14,13.14,0,0,0,3.79-4.1,14.56,14.56,0,0,1,3.58-3.48c1.93.13,4.28-.45,5-2.48.39-1.14.47-2.69,1.75-3.25a5.15,5.15,0,0,1,2.3-1c.69-.18,1.43-.28,1.84-.95.64-1.09,1.82-1,2.94-1.14,1.45.06,2.8-1.59,4.13-1.08a6,6,0,0,0,2.1,1.24,7.72,7.72,0,0,1,2.46,1.39,5.33,5.33,0,0,0,3,.16c1-.19,2.11,0,2.78-.82a14.55,14.55,0,0,0,2-2.07c1.61.53,3.36,1.24,5,.31a4.53,4.53,0,0,0,1.82-.63c.8-.3,1.61-.4,2.41-.69a18.07,18.07,0,0,1,2.4-.7c1,0,1.22-1.25,2.15-1.35A27.77,27.77,0,0,1,617.5,354a2.1,2.1,0,0,0,1.7.66,6.09,6.09,0,0,0,2,0,17.83,17.83,0,0,0,1.25,2.11c.64,0,1.29,0,1.93-.06a62.78,62.78,0,0,0,7.72,10.1c1,1.12.62,2.64.5,4-.07.72.57,1,1.07,1.35,1.08.82,2.52.9,3.74,1.38a10.46,10.46,0,0,0,3.45,1.91c.67,1.12.73,3,2.05,3.87,1.71.6,1.59,2.67,3.48,2.69a7.76,7.76,0,0,1,3.87,3.83c.07,1.2-.32,2.5.27,3.61a3.24,3.24,0,0,0,.79,1.87c.56.36.57,1.21.9,1.79.18.9,1.29.52,1.95.6,1.41,0,3,.21,3.92,1.44a34.84,34.84,0,0,0,4.27,4c.75.44.79,1.39,1.42,2a5.42,5.42,0,0,0,3.56,1.13c1.08,0,2-.66,3.06-.94,1-.46,2.27-.61,3.08-1.49,2-1.19,4.68-.48,6.44.88a5.8,5.8,0,0,0,2.65.88,10.15,10.15,0,0,1,3.09,1c.9.77,2,1.54,2.2,2.78.3.84.51,1.78.83,2.58,1.23,1.09,3,1,4.5,1.35l3.89.7c.2.63-.27,3.33-1.71,3.82-.72.19-1,1.06-1.79,1a75,75,0,0,1-8.11,2,12.82,12.82,0,0,1-4.17,0,3.81,3.81,0,0,1-1.52-1.14c-.72-.32-.93.69-.71,1.2a2.37,2.37,0,0,1-.08,1.94c-.86,1.4-2.6,1.72-4,2.46-.89.64-1.74-.36-2.53-.72a10,10,0,0,1-3.05-2.2.72.72,0,0,0-1.11.76,6.35,6.35,0,0,1,1.82,4.49,2.6,2.6,0,0,0,.56,1.85,3.24,3.24,0,0,1,.54,2.65c-.16,1.26-1.48,2-1.73,3.24a2.81,2.81,0,0,1-.23,2.25c-.32.89-1.23,1.44-1.44,2.38a9.45,9.45,0,0,0-1.25,3c-.57,1.38-1.07,4.11.34,4.8.38-.07,1.59-.35,1.29.3a1.85,1.85,0,0,0,.21,1.7c.51,1.86.89,3.75,1.43,5.6.82.31.68,1.33,1,2a3.82,3.82,0,0,0,1.32,2,1.94,1.94,0,0,1-1.38,2.11c-.83.42-1.26-.7-1.88-1a2.69,2.69,0,0,0-2.55-.62,5.51,5.51,0,0,0-3.32,2.33,12.76,12.76,0,0,0-2.08,9.52c.24,1.93.62,3.83.9,5.76-.74.16-.22-1.33-.83-1.28-.95.09-1.9.2-2.84.35.6,1,1.71,3.24,1,4q-1.13.27-1.21-.89c-.22-.78-1,0-1.56,0s-1.52.28-.85,1l2.12,4.57c-.55.36-1.19.57-1.74.93-1.26-.69-3,1.88-4.5,2.23-1,1-.87-1.62-1.82-.26-3.58,2.27-7.55,4.1-10.58,7.12-2.27,2.5-2.49,6-3.94,9,.82,3.75,1.1,7.6,1.68,11.39a5.51,5.51,0,0,1-2.24-.69c-.4.37-1,.21-1.53.37-.72,0-1.08-.81-1.82-.7-2.52-.34-5.07-.44-7.6-.67-.41.63.2,1.27.47,1.84a79,79,0,0,0,6.34,8.73c2.17,2.83,4.09,5.84,6.2,8.71a34,34,0,0,1,4.26,7.92c3,6.54,5.8,13.13,8.83,19.63.07,1.35-.56,2.78-.73,4.16-1.9,9.39-3.42,18.84-5,28.29.69.54.76,1.48,1.12,2.24-.1.81-.21,1.62-.31,2.43-1.82.25-3.75-.71-5.46.11a63.83,63.83,0,0,0-11.73,9.91c-1,.89-1.67,2.27-2.77,2.94a8.83,8.83,0,0,1-3.31.36c-6.08,0-12.15-.33-18.23-.25q-23.65-.22-47.3-.12c-.08-8.34-.16-16.7,0-25,.52-1.09-.37-2.18-.09-3.28a85.16,85.16,0,0,1,1.81-8.76,27.36,27.36,0,0,0,.89-4.39l1.26-5.46c.38-.57,1.14-.4,1.5-1a2.44,2.44,0,0,0,.29-1.75,8,8,0,0,0-2.78-1,9.66,9.66,0,0,1-1.4-3.23,31.25,31.25,0,0,1,0-4.61,25,25,0,0,1,1.41-6.84c.5-1.42,1.23-2.74,1.83-4.12a1.16,1.16,0,0,0-1.69-.92c-1.7.54-3.35,1.26-5.09,1.67-1.33-.33-2.47-1.31-3.9-1.17-.9-.11-2.29.16-2.66-.92-.15-.8.2-1.69-.16-2.43.1-1.63-.08-3.26.12-4.89,0-1.88.53-3.75.25-5.62,0-.68.24-1.42-.38-1.91l-1.49-2c.84-1.05.34-2.49.35-3.73a7.21,7.21,0,0,1,.37-2.68c.52-1.06,1.83-1.24,2.76-1.81,1.85-.53,3.84-1,5.35-2.23,1.13-.83,2.18-1.77,3.23-2.69-.27-.92-1.33-1.24-1.72-2.11-.9-1.24-1.85-2.45-2.71-3.7a19.48,19.48,0,0,1-1.6-2c.18-.71,1.33-.16,1.66-.81,1.05-1.14,2.24-2.16,3.19-3.38.22-1-.86-1.44-1.4-2.09-1.09-1-2.06-2.11-3.23-3-1.37-.65-3-.8-4.32-1.49-2.16-1.22-4.3-2.47-6.43-3.73a3.58,3.58,0,0,0-2.74-.4c-1,.1-2.07-.11-3.1,0-.69-.28-.66-1-.6-1.62.16-3.07.12-6.14.16-9.21-.29-1.36-1.82-1.54-2.88-2a12.64,12.64,0,0,0-2.77-1c-.59-.12-1.21-.54-1.74,0l-3.68,1.89c-1.19-2.72-2.47-5.41-3.65-8.13-.28-.67-.55-1.52.13-2a1.37,1.37,0,0,1,1.73-.58c1,.22,2.17,1,3.07.14.88-.48,1-1.6,1.55-2.39.83-1.73,2-3.38,2-5.39.22-1.76-1-3.14-2.07-4.35a2.18,2.18,0,0,1-.16-2.69c.7-.82,1.51-1.55,2.12-2.43a4.52,4.52,0,0,0-.48-2.81c-.35-.53-.29-1.9-1.22-1.42-.54,1.34-.26,3.35-2.39,3.36a11.17,11.17,0,0,1-3.59.05,10.49,10.49,0,0,0-4.4,2.18c-.62.9-.1,2.1-.32,3.11a9.92,9.92,0,0,1-1.68,4.79c-.24-.44.06-1.21,0-1.77.07-.72.24-1.47-.28-2.07a4.55,4.55,0,0,0-2.59-1.76,8.94,8.94,0,0,1-1.27-1.67c-1.12-.79-2.87.16-3.82-1.23-1-1.11-2.44-1.57-3.5-2.58-.71-.41-1.27.5-1.4,1.09-.52,2.16-.94,4.38-1.47,6.51a1.32,1.32,0,0,1-1.9.32,20.1,20.1,0,0,0-3.7-1c-.78-.48-.55-1.43-.15-2.09a2.58,2.58,0,0,0,.25-2.62c-.15-.66-.37-1.25-1.15-1.25-1.19.68-3.56,1.91-4-.48-.32-.8.44-1.5.42-2.27-.52-1-2.07.13-2.5-1-.22-.78-1.08-.66-1.7-.75a2.27,2.27,0,0,0-2-.2c-.67.36-.57,1-.21,1.58a3.77,3.77,0,0,1,0,2.6c-.43.82-1.43.71-2.2.76-.85.44-.5,1.62-.42,2.4A7.89,7.89,0,0,1,480.9,448.27Z" transform="translate(-24 -14.4)"/><path id="path4301" class="cls-8" d="M526.14,441.8a5.59,5.59,0,0,1-3.84.74c-.54.3-.83.42-1.07-.11a13.77,13.77,0,0,0-3.67,1.47c-.6.37-1.35.76-1.36,1.56a12.06,12.06,0,0,1-.88,5.67c-.27.35-.43,1.72-.94,1.36.06-1,.22-2,.22-3a4.88,4.88,0,0,0-1.27-1.66,10.34,10.34,0,0,0-1.73-.82,5.69,5.69,0,0,1-1.14-1.57c-.37-.24-.71-.54-1.18-.44-.55-.07-1.17.25-1.62-.17-1.07-.57-1.91-1.46-3-2a9.37,9.37,0,0,1-1.64-1.2c-.35-.15-.75-.18-.92.23a2.68,2.68,0,0,0-.7,2c-.23,1.33-.58,2.62-.93,3.92a13.06,13.06,0,0,1-.28,1.48,1.15,1.15,0,0,1-1.5.5,12.65,12.65,0,0,0-2.87-.84,4.93,4.93,0,0,1-1.34-.36,1,1,0,0,1-.36-1.27c.21-.8.87-1.46.81-2.32a6.85,6.85,0,0,0-.5-1.73c0-.47-.56-.4-.9-.55s-.71.3-1.06.44a5.2,5.2,0,0,1-1.52.6,2.53,2.53,0,0,1-1.2-.93c-.21.2.54,1.86,1.54,1.43.8-.34,1.7.5.79,1-.58.52-1.27.93-1.8,1.48-.39.73-.87,1.43-1.21,2.19l-.47,2.12,1.8,2.62,3.92,1.18a8.24,8.24,0,0,1,1,2.48c.67,2.21,1.39,4.4,2,6.6-.17,2.91-.24,5.83-.57,8.73l-.42,4.34-3,1.74q-.37,3.52-.74,7c.28.77.63,1.53.87,2.3-.13,2.44-.07,4.89-.13,7.34s0,4.66-.15,7c0,1.28,0,2.57.08,3.86,0,.42,0,.93.43,1.17,1.72,2.44,3.49,4.85,5.38,7.16,1.46,1.93,3.28,3.61,4.46,5.74,1,1.89.1,4-.74,5.79a12.51,12.51,0,0,0-1.29,3c-.77,3.1-1.64,6.18-2.39,9.28a16.32,16.32,0,0,0-.59,3.51c-.08,1.82-.14,3.65-.2,5.46h-1.62c0,.39.06.93-.5.75-.49.12.07.42.13.69s-.21.92.06,1.08c.49,0,.12.62.19.92.56.17.35-.47.43-.81s.74,0,1.07,0c.23.27.05.77.07,1.13-.11,1.41-.11,2.83-.22,4.22a4,4,0,0,1-1,1.65A3.79,3.79,0,0,0,495,558.4c-1,1.6-1.78,3.31-2.74,4.91-.45.34-.83.81-1.43.85a6.81,6.81,0,0,0-2.4.86c-.63.44-1.35.82-1.93,1.3a27.9,27.9,0,0,0-1.29,4.06c-.46,1.76-1.07,3.48-1.37,5.27a4.07,4.07,0,0,1-.87,1.65,8.81,8.81,0,0,1-1.77,1.85,6.36,6.36,0,0,0-1.34,1.35c-.47,3.18-1,6.34-1.45,9.53-.23,1.67-.5,3.34-.66,5-.84,5.41-.89,11.06-3.13,16.14,0,.59-1.25,1.49-.51,1.79l13.85,6.93c13.71.36,27.42,0,41.13.06q0,3.33-.06,6.66c4.86.06,9.71.06,14.57.07,4,.05,8.08.06,12.12,0,.17-11.35.29-22.7.19-34.05,0-3.62,0-7.25.08-10.87a2.54,2.54,0,0,0,.12-1.55,4,4,0,0,1-.15-2c.9-6.24,2.83-12.27,3.94-18.47a1.54,1.54,0,0,1,1.06-.56,1.76,1.76,0,0,0,.74-1.43c.07-.4.14-.8-.3-1a16.89,16.89,0,0,0-2.49-.75,19.64,19.64,0,0,1-1.12-2.17,6.44,6.44,0,0,1-.37-2.25,33,33,0,0,1,.28-5.17,34,34,0,0,1,.6-3.41,32.06,32.06,0,0,1,1.58-4,20,20,0,0,0,.83-1.88c-.1-.44-.33-.91-.84-.94s-1.26.29-1.88.43c-1.35.43-2.66,1-4,1.31-1-.25-1.91-.86-2.93-1.12a17.15,17.15,0,0,1-3-.27,1.2,1.2,0,0,1-.67-1.41c0-.54.2-1.14-.14-1.62.14-1.39-.1-2.79.07-4.18.06-1.76.3-3.52.41-5.28a11.09,11.09,0,0,1,0-2.49l-1.93-2.55a1.76,1.76,0,0,0,.45-1.18,27.83,27.83,0,0,0-.13-3.07,19.34,19.34,0,0,1,.34-2,2.65,2.65,0,0,1,1.62-1.35,8.86,8.86,0,0,1,2.3-.89,18.87,18.87,0,0,0,3.27-1.19,49.37,49.37,0,0,0,4.23-3.42,2.12,2.12,0,0,0-.86-1.1,14.69,14.69,0,0,1-1.62-2c-.59-.8-1.24-1.57-1.75-2.41l-1.81-2.16c-.08-.54.63-.47,1-.56.53,0,.77-.54,1.14-.83.85-.91,1.8-1.75,2.59-2.72a1,1,0,0,0-.18-1.22c-1.37-1.29-2.71-2.63-4.1-3.9a15.12,15.12,0,0,0-2.79-1,7.21,7.21,0,0,1-2.15-.86c-2-1.13-4-2.25-5.89-3.45a3.94,3.94,0,0,0-2.37-.54c-1.16.29-2.37,0-3.55.13-.3-.16-.73-.38-.66-.81,0-1.7.15-3.41.12-5.12s.06-3.31,0-5a2,2,0,0,0-1.37-1.38,28.94,28.94,0,0,0-5.46-2l-4.23,2.18c-1.18-2.66-2.39-5.31-3.59-8-.15-.61-.63-1.3-.2-1.89a2.45,2.45,0,0,1,1.17-1c1,0,2,.6,3,.66a3.14,3.14,0,0,0,1.46-.85c.91-1.87,2.24-3.55,2.75-5.6a6.11,6.11,0,0,0-1.4-5.86,2.32,2.32,0,0,1-1-1.73c-.07-.42.29-.79.4-1.18.7-.82,1.51-1.55,2.12-2.43a3.9,3.9,0,0,0-.22-2.16l-.84-2.14c-1.59-.28-.61,2.1-1.37,2.74Z" transform="translate(-24 -14.4)"/><path id="path4295" class="cls-9" d="M668.34,443.6c-.12.58-.4,1.2,0,1.74.65,1.93,1,4,1.56,5.91.69.22.64,1,.86,1.56a3.58,3.58,0,0,0,1.11,2.12c.67.47.38,1.5-.21,1.91-.42.5-1.33,1-1.82.33a5.06,5.06,0,0,0-2.37-1.53,5.68,5.68,0,0,0-3.11,1,10.32,10.32,0,0,0-2.84,4.37c-1.53,4-.17,8.27.36,12.32-.61.08-.39-.87-.62-1.27a25.82,25.82,0,0,0-3.06.33c.62,1.06,1.63,3.13,1,4-.54,0-1.19.16-1.16-.58s-.52-.87-1-.51l-1.77.59,2.42,5.23c-.55.36-1.19.57-1.74.93-.59-.87-1.75.82-2.51,1s-2.14,1.92-2.81,1.08c-.38-1.21-1.43.38-2.16.55-3.13,1.92-6.48,3.62-9.17,6.15-2.47,2.5-2.7,6.19-4.19,9.23.79,3.6,1.06,7.27,1.61,10.91.34.81-.61.28-1,.28s-1-.74-1.31-.3a13.41,13.41,0,0,0-1.37.19c-.69,0-1-.77-1.7-.68-2.55-.35-5.13-.46-7.7-.68-.38.51.08,1,.25,1.49,1.23,2,2.56,3.9,3.91,5.79a103,103,0,0,1,6.47,8.64c1.49,2.19,2.89,4.45,4.42,6.61a15.76,15.76,0,0,1,1.44,2.9c3.21,7.22,6.37,14.46,9.71,21.62l3.67,3.36,5-5.29c-.11-.73.67-1,1.06-1.49a20.07,20.07,0,0,1,3.43-3.17c.84-1,1.2.05,1.64.87,4.76,7.92,11.63,14.22,17.64,21.15l1.8.25c1.77-5.55,3.16-11.23,5.13-16.7a7.25,7.25,0,0,1,1.82-2.46,16.93,16.93,0,0,1,4.3-2.91c.89-.59,2.1-.27,2.94-1,15.61-9,30.49-19.15,46.24-27.89a6.38,6.38,0,0,1,2-1.79c5.19-3.2,10.43-6.34,15.6-9.58,1.55-1,3.06-2.11,4.63-3.09,1.19-.25,2.09-1.14,3.13-1.71,2.77-1.77,5.55-3.53,8.4-5.18a83.85,83.85,0,0,0,13.91-11c2.24-2.22,4-4.84,6.06-7.25a32.46,32.46,0,0,0,6.52-12.76c-.07-1,.67-1,1.45-.93a10.06,10.06,0,0,1,2,.87,1.59,1.59,0,0,0,1.33.7c.44-.05,1.28.51,1.41,0a14,14,0,0,0,.52-2.75,24.15,24.15,0,0,1,2.29-5.11,30.59,30.59,0,0,1,2.72-4.13c3-3.79,6.28-7.37,9.45-11,6.8-7.7,13.73-15.27,20.54-23a27.75,27.75,0,0,1-2.19-1.9c-.24-.47-.67.88-1-.09-.64-.7-1.37-1.34-2-2.08a15.17,15.17,0,0,1-.85-4.33,6.24,6.24,0,0,0-2.5-3c-.76-.57-1.68-.92-2.38-1.55-.45-.42-.94-.27-1.39-.47-.67-.32-1.08-.94-1.73-1.3-.94-.7-2.16-.93-3.09-1.67a12.91,12.91,0,0,1-2.36-1.75l-3.22-2.19-.94-3.61c-1.32.78-2.16,2.13-3.24,3.2a8.94,8.94,0,0,0-1.84,2.4,16.82,16.82,0,0,0-.75,3.25c.11.56.7.64,1.19.68a4.32,4.32,0,0,0,2.43,0c.51,0,1.07-.43,1.55-.26.75.25-.33.7-.69.77-.53.07-.92.67-1.4.72-.44.27-.78.24-1.19.47a3.08,3.08,0,0,0-1.93.33c-.49,1.5-.92,3-1.46,4.53-.33.61-.93-.13-1.35-.28-1.64-1-3.34-1.87-5-2.86-.53-.17-.89-.65-1.44-.81-1.45-.78-2.83-1.73-4.33-2.41-4-1.46-7.55-4.31-11.91-4.52-2,.25-4.05.5-6.08.74-2.21-1-4.72-.82-7.07-1.23-.64-.45-1.13.35-1.67.46-.66-.1-1.34.34-2,.29-.59-.22-.19-1.37-1-1.35-.49-.12-.63-.84-1.17-1s-.87-.56-1.35-.64-1.24.08-1.67-.41c-1.36-.17-2.16-1.48-3.42-1.91-1.43-.62-3.15-.62-4.26-1.88-.44-.41.46-1,.63-1.5l2.25-3.43-1.8-1.18-4.23,6.41c.71.4.74.5-.07.23a7.65,7.65,0,0,1-2.36-.85c-1,.32-2,.74-3,1-3.1-.42-6.18-.93-9.25-1.48-1.73.87-3.42,1.87-5.19,2.67-2.25.78-4.51,1.54-6.76,2.31a40.54,40.54,0,0,0-1.32,7,3.14,3.14,0,0,1-1,2.16c-2.25,2.41-4.57,4.79-6.78,7.23l-2.77,6.14c-3.43.65-6.86,1.38-10.29,2-.79,0-1.36-.62-2-1-1.06-2.16-2-4.36-3.15-6.49-1.56-2.11-3.19-4.16-4.7-6.3A8.38,8.38,0,0,0,698,410c-.34-.67-.91-.21-.89.38a3.91,3.91,0,0,1-.52,2c-.44,1.12-1.75,1.52-2.57,2.19-1.43.28-2.8.89-4.25,1.15-2.35.5-4.7,1.34-7.13,1.11a2.93,2.93,0,0,1-2.44-.88c-.22-.39-.91-.68-1.08-.11-.33.88.53,1.82,0,2.66-.44,1.1-1.62,1.57-2.63,2a18.75,18.75,0,0,1-2,.88,12.13,12.13,0,0,1-2.64-1.39,6.75,6.75,0,0,1-2.22-1.66.71.71,0,0,0-1.23.39c.51,1,1.74,2.1,1.71,3.5.24,1-.09,2.23.66,3.06a2.69,2.69,0,0,1,.59,2.21c.12,1.42-1.24,2.27-1.71,3.49-.14.6.32,1.28,0,1.88a7.06,7.06,0,0,1-1.46,2.35c-.32,1.13-1.2,2-1.37,3.23-.37,1.43-1,3-.37,4.42.14.59.34,1,1,.65A8.07,8.07,0,0,1,668.34,443.6Z" transform="translate(-24 -14.4)"/><path id="path4293" class="cls-9" d="M659.51,553.44c-.39.49-1.16.76-1.06,1.49l-5,5.29-3.67-3.36c-2.31,10.68-4,21.47-5.85,32.24.7.54.75,1.49,1.12,2.24-.1.81-.21,1.62-.31,2.43-1.5.09-3-.21-4.46-.25-1.65.41-2.9,1.73-4.31,2.61a68.38,68.38,0,0,0-10.89,10.52c5.54.09,11.08.2,16.62.37,0,11,0,22.07-.25,33.11,4,0,8.07-.09,12.11-.19.47.06,1.31-.26,1.1.51q.11,3,.23,6.09c3.95-2.26,7.86-4.59,11.82-6.8,3.35-1.67,6.62-3.51,9.93-5.24,3.94-2.33,7.8-4.79,11.81-7,1.7-.94,3.36-2,5-3,.33.37.52,1.13,1.12.75,1.22-.39,2.08-1.41,3.12-2.12,2.12-1.62,4.17-3.33,6.33-4.89l9.84-6.18c0-.5-.36-1.14.29-1.36,1.78-1.46,4-2.16,6.08-3.1,1.67-.67,3.27-1.51,5-2.12a12.9,12.9,0,0,1,6.52-.27,13.36,13.36,0,0,1,8.79,6.29c3.21,5.56,4.53,11.93,5.94,18.12.74,3.28,1.31,6.62,2.34,9.83a5.33,5.33,0,0,1,1.34-.72c1.25-.63,1.83-2,2.8-3,.69-.71,1.31-1.55,2-2.19,1-.24,2-.35,2.9-.67.51-.4,0-1,0-1.56l-.66-3,2.05-2c-.41-.41.33-.9.46-1.36a56.88,56.88,0,0,1,3.72-5.49,13.89,13.89,0,0,1,2.05-2.48,34.94,34.94,0,0,0,3.48,1.31c0,.64.74.59,1.17.84,1.25.55,2.65.8,3.72,1.68s1.9,1.6,2.9,2.34c1.6,1.2,3.37,2.14,5,3.23,1.39-3.09,2.78-6.18,4-9.34.74-.43.92-1.36,1.39-2,.87-1.51,1.67-3.09,2.59-4.55a2.82,2.82,0,0,0,1.28-1.23q5.12-7.92,10.3-15.8c1.2-2.14,2.37-4.29,3.36-6.52a56.27,56.27,0,0,0,2.9-7.34,61.84,61.84,0,0,0,1.87-6.74A224.13,224.13,0,0,0,816.79,517a58.3,58.3,0,0,0-.21-6.92c-.24-1.94-.12-3.91-.18-5.86s-.11-3.77-.19-5.65c.42-.22.05-1,.15-1.43-.12-6-.32-11.9-.32-17.86,0-.85,0-1.7,0-2.56-.31-.11-.31-1.07,0-1.18a26.35,26.35,0,0,1,.37-4.55c1,.17.33-1.75.72-2.4,1.07-7.39,3.76-14.73,8.69-20.44-.19-.53-.44-1.13-.83-.36-2.26,2.59-4.6,5.11-6.79,7.75a42.15,42.15,0,0,0-4.07,5.7,19.19,19.19,0,0,0-2,3.8,9.3,9.3,0,0,0-.9,3.19c-.11.62-.3,1.21-.45,1.82a20.11,20.11,0,0,1-2.18-.44c-.57-.73-1.53-.92-2.3-1.37-.46.1-1.22-.2-1.49.16-.62,1.85-1.14,3.74-1.84,5.56a32.07,32.07,0,0,1-2.77,5.08c-1.72,2.46-3.63,4.79-5.49,7.16-2.73,3.46-6.19,6.23-9.54,9.06a77.84,77.84,0,0,1-10.52,7c-2.45,1.53-4.87,3.12-7.33,4.61-1.13.21-1.95,1.1-2.92,1.66-3.56,2.48-7.34,4.63-11,6.93-2.65,1.64-5.33,3.22-7.95,4.89a5.19,5.19,0,0,1-2,1.7c-15.67,8.73-30.44,19-46,27.8a6.26,6.26,0,0,0-2.59.79,18,18,0,0,0-4.34,3.06,12.19,12.19,0,0,0-1.48,2.25c-1.87,5.46-3.31,11.05-5,16.55l-1.8-.25c-6.38-7.34-13.71-14-18.49-22.59a14.41,14.41,0,0,0-2.94,2.41Z" transform="translate(-24 -14.4)"/><path id="path4287" class="cls-5" d="M737.49,725.15c1.33-3.57.05-7.39.47-11.07s1.71-7.25,2.14-10.95c-.11-6.31.47-12.72-.86-19-.13-1.45-1.2-2.65-1.5-4v-3.8c1.71-3.44,4.41-6.37,5.6-10.06.54-2-.3-3.88-.68-5.79a4.15,4.15,0,0,1-.14-1.83c.73-1,1.17-2.24,1.88-3.29-.35-.16,0-.83-.38-1.19a9,9,0,0,1-.8-1.92c-1.18-.39-2.52-.72-3.22-1.84-.6-.51-.32-1.37-.58-2a16.81,16.81,0,0,0-1.37-3.77.59.59,0,0,1,.21-1.1A3,3,0,0,1,740,643c1-.42,1.82-1.29,3-1.32a10.45,10.45,0,0,0,2.32-.51,3.39,3.39,0,0,0,1.88-.68,13.52,13.52,0,0,1,1.68-1c-1.59-5.22-2.34-10.65-3.76-15.92-1.31-4.83-2.7-9.86-5.81-13.88a13.87,13.87,0,0,0-10.07-4.75,15.7,15.7,0,0,0-4.43.75c-2.74,1.27-5.56,2.38-8.29,3.66a13.3,13.3,0,0,0-2.68,1.71c0,.49.38,1.16-.3,1.33-3.32,2.11-6.68,4.16-10,6.3-2.62,2-5.24,4.1-7.86,6.13a3.87,3.87,0,0,1-1.52.62c-.32-.35-.54-1.2-1.06-.61-3.92,2.45-8,4.57-11.95,7-2.31,1.41-4.61,2.84-7,4.05-2.7,1.43-5.38,2.9-8.1,4.27l-11.07,6.4q-.13-3.3-.25-6.6c-3.7,0-7.4.19-11.1.17l-2.09,0c.24-11,.26-22.07.25-33.11-5.57-.17-11.14-.31-16.7-.35a7.68,7.68,0,0,1-2.77.41c-6.35,0-12.7-.25-19.06-.27l-7.65,0c.37,6.91-.4,13.83.06,20.74-.24,13.71-.08,27.42-.24,41.13a6.3,6.3,0,0,0-3.46,1.13,2.34,2.34,0,0,1-1.53.63L583.71,667l-1.87,1.31,4.36,5.16h2.43c.09.46.49,1,.42,1.41a10.51,10.51,0,0,0,.68,1.56,3.36,3.36,0,0,0,1.2,1.57q-10.49,10.5-21,21a6.21,6.21,0,0,0-2,1.55,76.14,76.14,0,0,1-5.55,5.51,19.41,19.41,0,0,1-1.79,1.53c-8.29-.12-16.58-.2-24.87-.37v13q6.53,0,13.07.18c-.27,13.17-.42,26.35-.37,39.52,4.23,0,8.46.19,12.69.25l-.93,1.74a13.78,13.78,0,0,1,1,2.1c.11,6.33,0,12.66.06,19l2.84,0q0-6.43,0-12.85l13-.09q0,5.07-.1,10.14l-9.56-.13c-.06,1-.11,2-.17,3l9.87.13c0,.84,0,1.67,0,2.5-5.57,0-11.13.07-16.7,0l-5.39-.16c0,1.06,0,2.12.06,3.17,2.91.19,5.81.48,8.72.6,2.64-.21,5.3-.33,7.94-.58L583,785.76c-.11-1.64-.21-3.28-.31-4.92-.44,0-1.27.38-1.43,0q-.06-4-.12-7.92c.32-.68.59-1.43,1.42-1.62a11,11,0,0,1,7.79-.37c3.06,1.85,7.11,2,9.52,4.85V780c.4-.13,1.25.17,1.37-.23,0-2.19,0-4.39,0-6.57-.07-.45-.61-1.28.22-1,.59-.05,1.07,0,.85.72q0,3.52-.06,7c1.15.21,1.34-.44,1.07-1.53,0-2.15-.36-4.68,1.24-6.39,1.69-1.54,4.14-1.4,6.25-1.69,5.87-1.37,11.93-3.15,18-2.06a16.7,16.7,0,0,1,4.3,1.4,39.59,39.59,0,0,1,.12,4.82v4.7c.41-.08,1.34.38,1.11-.36l-.12-8.16h1.68a7.83,7.83,0,0,1,0,3,24.76,24.76,0,0,0-.26,5.16c-.21.5,1.13.7.81,0q0-1.87.06-3.74a3.36,3.36,0,0,0,.94-1.72,2.2,2.2,0,0,0,0-1.7,3.2,3.2,0,0,1,2-1.2c6.38-1.85,13.25-3.31,19.83-1.75.48.24.9.52.95,1.1.23.55.76,1,.59,1.63,0,1.21,0,2.42-.05,3.63.33.51.83.45,1.19,0,0-2,0-4,.1-6.05a2.69,2.69,0,0,0,.21-1.79c7.13-2.21,14.73-5.89,22.38-4.48a2.52,2.52,0,0,1,1.4,1.13c.5.38.15.93.06,1.42q-.5,2.06-1,4.11c.49.38.92.59.93-.22l1.43-5c.41-.32.72-.91,1.32-.75h11.4c1.83,0-.5,9.79,1.32,9.56.26-1.63-.56-6.26,1.91-6.31,1.38.13,13,5.3,14.41,5.35,1.31-.27,1.07,4.57,2.35,4.26.46-.19-.1-6.63.39-6.21l2.71-.07c1.14-.2-.18,5.21,1,4.91,1.63-.27,10.48-1.54,12.15-1.47l3.73-3.28-2.52-4.07c-.12-2.17-1.73-5.62-1.89-6.24-.18-5.18-.3-10.37-.51-15.55-.72-2.58-1.48-5.14-2.16-7.72-.13-.68.79-.55,1.21-.69.58-.19,1.32-.06,1.77-.47.76-1.11.09-2.47.08-3.68a14.58,14.58,0,0,1,1.1-5.71Z" transform="translate(-24 -14.4)"/><text class="cls-10" transform="translate(370.83 442.75)">Sarrià - <tspan x="-25.86" y="24.81">Sant Gervasi </tspan></text><text class="cls-10" transform="translate(271.4 557.04)">Les Corts</text><text class="cls-10" transform="translate(659.61 461.26)">Nou Barris</text><text class="cls-10" transform="translate(537.18 421.44)">Horta - <tspan x="-8.06" y="24.81">Guinardó</tspan></text><text class="cls-10" transform="translate(714.36 541.85)">Sant <tspan x="-9.2" y="24.81">Andreu</tspan></text><text class="cls-10" transform="translate(464.45 570.97)">Gràcia</text><text class="cls-10" transform="translate(229.5 734.44)">Sants - Montjuïc</text><text class="cls-11" transform="translate(419.64 640.83)">Eixample</text><text class="cls-10" transform="translate(435.15 706.43)">Ciutat<tspan class="cls-12" x="4.59" y="24.81">V</tspan><tspan x="17.24" y="24.81">ella</tspan></text><text class="cls-10" transform="translate(587.46 697.51)">Sant Martí</text><path class="cls-13" d="M491.49,810.2c0,29.31,19.84,53,44.36,53" transform="translate(-24 -14.4)"/><polygon class="cls-14" points="503.16 854.83 522.31 848.52 504.91 840.33 508.51 848.52 503.16 854.83"/><text class="cls-15" transform="translate(526.31 853.83)">La tasa de Ciutat <tspan class="cls-16" x="180.28" y="0">V</tspan><tspan class="cls-17" x="194.35" y="0">ella</tspan><tspan x="0" y="27.6">es de 54 quejas</tspan></text><g class="cls-18"><line class="cls-19" x1="209.35" y1="122.82" x2="209.35" y2="103.37"/><rect class="cls-20" x="1" y="103.37" width="208.35" height="28.83"/></g><g class="cls-21"><line class="cls-22" x1="417.7" y1="122.82" x2="417.7" y2="103.37"/><rect class="cls-23" x="209.35" y="103.37" width="208.35" height="28.83"/></g><g class="cls-24"><line class="cls-25" x1="626.05" y1="122.82" x2="626.05" y2="103.37"/><rect class="cls-26" x="417.7" y="103.37" width="208.35" height="28.83"/></g><line class="cls-27" x1="834.4" y1="122.82" x2="834.4" y2="103.37"/><rect class="cls-28" x="626.05" y="103.37" width="208.35" height="28.83"/><text class="cls-29" transform="translate(40.3 126.36)">Menos de 25</text><text class="cls-29" transform="translate(262.15 127.36)">De 25 a 30</text><text class="cls-29" transform="translate(470.94 126.36)">De 30 a 35</text><text class="cls-29" transform="translate(677.92 127.36)">Más de 35</text><polygon class="cls-30" points="863.75 915.99 1070.95 915.99 1070.95 947.47 863.75 947.47 863.75 915.99 863.75 915.99"/><path class="cls-31" d="M1054,937.42H1046v1l2.09.49v14.66a1.74,1.74,0,0,1-1.46.74,3.12,3.12,0,0,1-2.58-1.89l-2-3.55a4.11,4.11,0,0,0-3.63-2.44v-.24c2.66-.07,5-2,5-4.52,0-3-2.77-4.24-6-4.24h-7.21v1l2.35.49v14.85h0l-2.71.52-6.75-18.41a8.48,8.48,0,0,1-2.43,2.08l.26.74-6.16,15.08-1.86.5v1h5.6v-1l-1.83-.48,2.08-5.49h5.71l2,5.46-2.15.52v1h13.67v-1l-2.3-.49v-6.91c1.55.1,2.29.81,3,2.24l2.71,4.84a4.38,4.38,0,0,0,3.92,2.38,3.87,3.87,0,0,0,2.57-1.06h6.12a9.19,9.19,0,0,0,9.43-8.93c0-5.21-4-8.93-9.59-8.93Zm-34.67,9.49,2.42-6.34,2.32,6.34Zm17.69-1.34h-1.22v-6.65h1.53a3,3,0,0,1,3.12,3.19,3.46,3.46,0,0,1-3.43,3.47Zm16.8,8.23h-2.55V938.91h2.62c4.05,0,6.54,2.8,6.54,7.44s-2.59,7.44-6.61,7.44Z" transform="translate(-24 -14.4)"/><path class="cls-31" d="M923.66,953.79l-6.6-17.93a8.45,8.45,0,0,1-2.43,2.08l.26.74-6.16,15.08-1.31.5-.39,1h5.45v-1l-1.84-.48,2.08-5.49h5.71l2,5.46-2.15.52v1h7.33v-1l-2-.48Zm-10.48-6.88,2.42-6.34,2.32,6.34Z" transform="translate(-24 -14.4)"/><polygon class="cls-31" points="883.94 936.34 883.27 935.97 879.41 939.49 876.11 939.49 876.11 924.52 878.1 924.01 878.1 923.02 870.99 923.02 870.99 924.01 872.99 924.52 872.99 939.37 870.99 939.88 870.99 940.87 882.16 940.87 883.94 936.34 883.94 936.34"/><polygon class="cls-31" points="914.96 923.02 914.96 924.01 917.11 924.51 912.44 936.46 907.53 924.49 909.84 924.01 909.84 923.02 901.91 923.02 901.91 924.01 904.18 924.51 911.23 941.49 911.99 941.49 919.01 924.53 919.07 924.53 921.27 924.01 921.27 923.02 914.96 923.02 914.96 923.02"/><path class="cls-31" d="M1009.36,937.42v1l2.13.5s.16,8.85.08,11.09a4.51,4.51,0,0,1-4.81,4.36,4.44,4.44,0,0,1-4.81-4.59v-10.9l2.07-.47v-1h-7.17v1l2,.48v11c.14,3.77,3.18,6.25,7.1,6.25s7-2.29,7.1-6.25l.14-11,2.09-.5v-1Z" transform="translate(-24 -14.4)"/><path class="cls-31" d="M1086.93,953.76l-6.57-17.89a8.47,8.47,0,0,1-2.43,2.08l.26.74L1072,953.85l-1.05.43-1.42-.45V938.91l2.19-.5v-1h-7.47v1l2.16.51v14.87l-2.07.49v1h11.43v-1l-1.84-.48,2.09-5.49h5.72l2,5.46-2.15.52v1h7.33v-1l-2-.52Zm-10.45-6.85,2.42-6.34,2.33,6.34Z" transform="translate(-24 -14.4)"/><path class="cls-31" d="M971,937.42v1l2.18.51.13,11.68-11.19-13.18h-4.78v1l2.16.48.18.09-.16,14.77h0l-2.2.52-6.75-18.41a8.48,8.48,0,0,1-2.43,2.08l.25.74-6.16,15.08-1.86.5v1H946v-1l-1.83-.48,2.08-5.49h5.71l2,5.46-2.15.52v1h11.74v-1l-2.3-.5-.14-12.92,12.79,15h.85l.17-17,2.17-.5v-1Zm-24.31,9.49,2.42-6.34,2.32,6.34Z" transform="translate(-24 -14.4)"/><path class="cls-31" d="M989.79,946.14v1l2,.51v5.75a6.69,6.69,0,0,1-4,1.34c-4.06,0-6.65-3.42-6.65-8.15s2.55-8.52,6.71-8.52a6.36,6.36,0,0,1,6,4.86l.58-.34V937l-.51-.29L992.79,938a11.28,11.28,0,0,0-4.94-1.26,10,10,0,0,0-10,9.84c0,5.56,3.93,9.52,9.25,9.52a9.21,9.21,0,0,0,5.76-1.92l1.58,1h.51v-7.66l1.69-.64v-.82Z" transform="translate(-24 -14.4)"/><text class="cls-32" transform="translate(5.72 944.47)">Fuente:<tspan class="cls-4" x="74.6" y="0"> </tspan><tspan x="79.5" y="0">Ajuntament de Barcelona</tspan></text><text x="-24" y="-14.4"></text></svg>