<?xml version="1.0" encoding="utf-8"?>
<!-- Generator: Adobe Illustrator 16.0.0, SVG Export Plug-In . SVG Version: 6.00 Build 0)  -->
<!DOCTYPE svg PUBLIC "-//W3C//DTD SVG 1.1//EN" "http://www.w3.org/Graphics/SVG/1.1/DTD/svg11.dtd">
<svg version="1.1" id="Capa_1" xmlns="http://www.w3.org/2000/svg" xmlns:xlink="http://www.w3.org/1999/xlink" x="0px" y="0px"
	 width="1096px" height="970px" viewBox="0 0 1096 970" enable-background="new 0 0 1096 970" xml:space="preserve">
<text transform="matrix(1 0 0 1 17.001 48)" fill="#323232" font-family="'ArialMT'" font-size="38">Tasa de incidencias por cada 1.000 habitantes</text>
<text transform="matrix(1 0 0 1 22.001 84.604)" fill="#323232" font-family="'ArialMT'" font-size="31">Incidencias presentadas en el Ajuntament de Barcelona desde 2014 al 2017</text>
<g>
	<g>
		
			<path id="path4284" opacity="0.9" fill="#EE3D3D" stroke="#757575" stroke-linecap="round" stroke-linejoin="round" stroke-miterlimit="10" d="
			M312.153,313.377c0.152-1.199,1.548-1.59,2.303-2.396c1.583-1.543,2.352,0.206,3.439,1.432c1.739,2.274,5.257,1.226,6.075-1.305
			c0.412-2.294,0.429-4.562,1.287-6.696c0.636-0.759,1.249-1.529,1.637-2.47c0.583-0.77,0.292-1.73,0.193-2.598
			c0.882-0.826,2.473-0.932,2.628-2.349c-0.357-0.749-1.404-1.325-2.029-2.005c-2.138-1.21,1.402-3.204,0.623-5.144
			c-0.276-2.722,2.947-3.976,4.595-5.622c0.951-0.427,1.894-1.115,1.447-2.302c-0.418-2.298-1.134-4.6-0.977-6.973
			c-0.129-1.396,0.613-2.66,0.936-3.986c0.818-0.039,1.661,0.442,2.177,0.994c1.061,2.497,2.731,4.83,5.009,6.329
			c0.978,0.301,1.238,1.695,2.349,1.585c1.774,1.058,3.5,2.251,5.524,2.791c2.09,1.84,3.394-0.692,5.041-1.616
			c0.68-0.532,1.457-0.929,1.929-1.681c0.634,0.212,1.615,1.395,2.116,0.562c-0.999-1.623-2.754-2.83-3.648-4.592
			c-1.594-2.78-2.283-6.21-4.608-8.503c-1.021-1.363-2.555-2.187-3.939-3.15c-0.756-0.927-1.236-2.185-2.564-2.399
			c-2.432-0.616-3.337-3.313-4.584-5.207c-1.456-1.473-1.263-2.575,0.448-3.451c1.147-0.776,1.957-2.242,3.463-2.261
			c0.74-0.481,1.3-1.275,2.157-1.679c1.025-0.804,2.316-1.198,3.257-2.115c2.869,0.799,5.849,1.26,8.644,2.297
			c2.09,0.902,4.151,1.873,6.229,2.807c0.031-1.859-0.169-3.837,0.203-5.721c0.067-2.247-1.413-4.263-1.304-6.534
			c0.071-1.532-0.421-2.874-1.027-4.254c-0.786-3.538,2.196-6.379,2.39-9.808c0.719-2.613,1.006-5.422,2.632-7.683
			c1.07-1.626,1.865-3.482,3.119-4.956c1.192-1.025,2.257-2.253,3.847-2.637c1.935-0.733,3.839-1.653,5.792-2.274
			c2.315,0.087,4.619,0.275,6.861,0.896c1.53,0.107-0.723,0.836-1.165,1.266c-2.364,1.413-4.732,2.827-7.096,4.239
			c-0.29,0.988-0.386,1.892,0.771,2.265c1.821,1.117,3.735,2.142,5.764,2.838c0.459,1.359-0.696,2.412-1.173,3.594
			c-0.593,0.884-0.841,2.104-1.65,2.781c-1.525,0.993-3.474,1.504-4.582,3.023c-0.418,1.341-0.808,3.086,0.529,4.05
			c1.064,1.035,2.398,1.878,2.767,3.409c0.394,1.367-0.028,2.851,0.243,4.262c-0.011,1.749,1.032,3.166,2.134,4.421
			c1.093,1.476,2.436,2.827,3.311,4.424c0.365,1.784-1.43,3.035-2.821,3.769c-1.001,1.054,0.007,2.6,0.623,3.572
			c0.679,0.798,1.734,0.918,2.044-0.259c0.526-0.931,1.438-1.989,2.623-1.51c1.499-1.214,3.856-0.617,4.832,0.958
			c0.431,1.049-0.032,2.575-1.319,2.651c-1.341,0.193-1.985,1.581-2.466,2.687c0.618,1.989,5.172,1.846,3.992,4.688
			c-1.006,0.546-2.669-0.105-3.296,1.126c-0.344,1.61,0.527,3.203,0.74,4.802c0.266,1.544,0.901,3.044,0.877,4.62
			c-0.65,0.703-0.494,1.696,0.392,2.102c1.146,1.044,2.426,2.088,2.865,3.628c0.507,0.685,1.09,1.479,0.579,2.328
			c-0.166,1.172-0.573,2.503,0.271,3.518c1.289,0.018,2.597,0.182,3.822-0.226c0.988-0.162,1.929-0.57,2.897-0.833
			c1.358,1.609,0.101,5.497,2.207,5.895c1.477,0.402,2.41-0.894,3.642-0.229c0.427,0.829,1.57-0.241,2.357,0.4
			c0.813,0.216,1.64,1.232,2.453,0.931c1.112-0.518,2.134-1.769,3.468-1.331c0.899-0.161,1.75-0.521,2.58-0.792
			c1.302,0.105,2.625-0.108,3.911-0.199c2.168-0.608,4.297-1.325,6.399-2.184c1.396-0.145,2.717-0.649,3.888,0.342
			c0.799,0.661,1.7,0.325,2.401,1.101c1.003,0.598,1.53,1.69,2.292,2.541c-0.191,1.296-0.673,2.719,0.063,3.961
			c0.461,1.039,0.135,2.258,0.868,3.194c0.39,1.462,1.162,2.884,1.271,4.383c0.115,1.015-0.884,1.323-1.598,1.782
			c-0.891,0.628-2.129,0.958-2.36,2.169c-0.522,0.976-0.824,2.113-1.391,3.024c1.665,0.776,2.386,3.112,3.137,4.885
			c0.377,0.988,1.302,1.984,1.121,3.063c-0.684,1.646-0.374,3.48-0.956,5.166c-0.296,0.868-0.723,1.624-0.206,2.505
			c-0.129,0.906,0.766,1.303,0.92,2.149c0.203,0.828-0.445,2.134,0.395,2.609c1.095,0.443,2.248,0.8,3.417,0.879
			c1.813,0.892,3.764,1.617,5.49,2.61c0.718,0.649,0.818,1.396,1.426,2.14c1.53,2.543,3.774,4.518,6.149,6.249
			c1.523,1.141,2.31,2.986,3.598,4.371c1.195,1.948,2.281,3.991,3.542,5.887c0.934,0.635,1.641,1.708,2.742,2.014
			c0.912-0.436,2.295-0.088,2.318,1.082c0.22,0.822-0.023,2.087,1.123,2.196c2.267,0.929,1.559,4.373,2.913,6.183
			c1.578,1.416,0.82,3.397-0.055,4.954c-0.896,1.522-1.3,3.367-0.579,5.043c0.216,0.959,0.62,1.826,0.756,2.778
			c0.441,1.082,0.884,2.209,1.989,2.783c1.316,1.598,1.649,3.764,2.466,5.646c0.508,1.459,0.814,3.153,2.288,3.978
			c0.967,0.796,1.904,1.696,3.023,2.168c1.019,0.059,0.611,1.447-0.048,1.851c-2.338,1.181-4.935,1.868-7.379,2.841
			c-2.373,0.745-3.264,3.329-5.035,4.798c-1.606,0.468-1.569,2.442-2.393,3.636c-1.148,1.713-0.496,3.865-1.336,5.683
			c-0.29,0.938-1.188,1.981-2.24,1.378c-1.345-0.771-0.411,0.855-0.361,1.565c0.462,0.485,0.553,1.815,0.871,2.627
			c1.187,4.091,2.188,8.25,3.491,12.295c1.36,3.67,2.046,7.553,3.093,11.318c0.584,2.31,1.169,4.621,1.755,6.931
			c0.659,0.967,0.675-0.787,0.749-1.49c0.436-1.511-0.595-3.085-0.002-4.546c0.631-0.688,1.897,0.063,2.45-0.877
			c0.573-1.123,0.281-2.438-0.218-3.535c-0.011-0.964,1.439-1.231,2.169-0.737c0.766,0.339,1.941-0.02,2.161,1.099
			c0.594,0.765,2.166-0.243,2.398,0.906c-0.27,0.877-0.803,1.835-0.191,2.725c-0.119,1.936,2.018,0.942,2.793,1.746
			c-0.353,1.155-2.014,1.421-2.475,2.57c-0.843,1.156-1.2,2.493-1.433,3.879c0.673,0.855,1.178,1.942,1.95,2.66
			c1.265,0.453,2.701,0.673,3.861,1.267c0.875,1.698,1.188,3.666,1.842,5.471c0.418,1.647,1.328,3.234,0.979,4.972
			c-0.103,3.883-0.581,7.723-0.916,11.584c-0.982,0.678-2.279,1.156-3.065,1.96c-0.181,2.313-0.555,4.66-0.613,6.959
			c0.433,1.107,1.019,2.183,0.748,3.402c-0.043,4.899-0.089,9.795-0.224,14.686c0.094,1.435-0.246,3.089,0.992,4.151
			c2.834,4.099,6.202,7.802,9.134,11.819c1.247,1.572,0.272,3.629-0.131,5.329c-0.779,1.61-1.702,3.156-1.968,4.952
			c-1.521,5.581-3.28,11.267-2.884,17.124c-1.261-0.344-1.548,0.37-2.145,0.749c-0.071,0.152-0.045,1.587,0.396,1.794
			c0.087,1.591,0.244,0.309,0.749-0.018c1.316-0.262,0.751,1.178,0.783,1.948c-0.215,1.763,0.324,3.964-1.291,5.185
			c-2.087,0.797-2.605,3.2-3.718,4.909c-0.516,1.21-1.371,2.402-2.795,2.516c-1.478,0.184-2.57,1.228-3.807,1.964
			c-1.069,2.602-1.583,5.402-2.425,8.089c-0.12,1.495-0.806,2.818-1.865,3.865c-0.903,1.121-2.743,1.716-2.564,3.453
			c-1.484,8.337-2.103,16.8-3.648,25.121c-0.354,2.143-1.38,4.058-2.253,6.021c-13.971-7.031-28.004-13.938-42.005-20.912
			c-0.413,0.988-1.088,1.515-2.181,1.308c-0.849-0.533-1.613-1.118-1.426-2.229c0.154-1.123-1.323-1.128-2.005-1.679
			c-6.683-3.456-13.36-6.92-20.03-10.404c-2.44-4.53-5.496-8.688-8.248-13.028c-3.523-5.183-6.865-10.498-10.507-15.603
			c-0.755-1.437-2.104-2.148-3.592-2.694c-7.852-3.723-15.574-7.704-23.396-11.491c-2.832-2.083-6.534-2.303-9.708-3.672
			c1.391-2.763,2.751-5.855,1.646-8.978c-0.692-3.183-3.516-5.686-3.326-9.072c5.937,0.147,12.279-4.486,12.159-10.786
			c-0.187-3.661-3.38-6.36-3.561-10.032c-0.686-3.895-1.243-7.806-1.75-11.73c-1.431-0.313-2.865-0.455-4.306-0.133
			c-2.292,0.446-4.628-0.108-6.846-0.629c-1.149-0.729-3.041-1.408-2.73-3.091c-0.096-1.03,0.012-2.012,0.634-2.867
			c0.634-1.086,1.139-2.216,1.234-3.485c0.891-0.539,0.758-1.55,0.686-2.425c0.246-1.217,1.277-1.545,1.523-2.981
			c0.196-1.095,1.234-1.256,1.339-2.247c-0.124-0.957-0.597-1.963,0.124-2.799c0.021-1.302,0.68-2.701-0.124-3.861
			c-0.211-0.773-0.089-1.561,0.438-2.179c0.25-0.843,0.131-1.65,0.059-2.488c-0.05-1.017-0.261-2.203-0.994-2.986
			c0.071-0.653-0.051-1.792-0.623-2.301c0.016-0.769,0.303-1.629-0.537-2.233c-1.783-2.129-1.886-5.257-3.797-7.279
			c-2.026-1.032,0.099-1.293,1.019-1.964c1.654-0.985,2.928-2.682,4.939-3.019c2.723-0.825,5.574-2.283,6.737-5.046
			c0.468-0.934,1.109-1.97,1.097-3.006c-0.692-1.479-0.794-3.181-1.771-4.545c-0.599-0.751-0.93-1.62-0.329-2.484
			c0.901-1.811,2.74-2.912,3.82-4.621c0.836-0.938,0.342-2.455,1.454-3.243c0.774-0.851,1.691-1.667,1.722-2.908
			c0.283-1.807,0.973-3.482,1.704-5.146c-2.847-3.535-2.351-9.047-6.184-11.879c-1.842-0.928-3.518,0.886-5.375,0.874
			c-1.01,0.015-2.133-0.018-3.088-0.347c-1.245-0.76-2.747-1.227-3.422-2.648c-2.931-4.065-4.771-9.265-9.378-11.829
			c-2.993-5.04-7.329-9.563-8.468-15.487c0.107-2.42,0.255-5.232-1.968-6.843c-0.79-0.803-1.724-1.429-2.871-1.523
			c-2.189-0.366-4.423,0.068-6.632-0.002c-3.176,0.119-6.422-0.007-9.495,0.894c-0.109,1.263-1.447,0.493-2.264,0.508
			c-2.012-0.34-3.975-0.943-5.951-1.379c-1.095,0.776-2.391-0.276-3.487,0.188c-1.238,1.341-2.207,2.978-3.866,3.844
			c-2.186,1.4-4.901,0.845-7.361,1.209c-1.7,0.178-3.514,0.54-5.076-0.388c-1.128,0.352-2.436,0.099-3.05-0.994
			c-1.724-3.391-3.688-7.62-7.889-8.298c-1.646,0.195-0.298-1.744-0.638-2.715c0.076-1.34-0.124-2.662-0.312-3.987
			c-0.909-0.574-2.094-0.937-2.838-1.642c-0.299-1.155-0.597-2.307-0.895-3.459c1.323-5.512,2.479-11.172,1.991-16.866
			c0.56-0.914,1.119-1.824,1.679-2.739c0.983-0.003,1.931,0.083,2.553,0.94c1.691,0.938,3.041,2.411,4.633,3.448
			c1.143,0.285,2.455,0.085,3.456-0.529c1.367-3.036,2.536-6.61,5.917-7.962c2.061-1.141,4.179-1.906,5.278,0.726
			c1.711,2.834,5.078,1.673,7.751,2.146c2.817,0.46,6.332,1.466,6.907,4.726c0.23,1.275-0.442,2.895,1.173,1.555
			c1.241-1.86,5.411,1.247,5.083-1.117c-0.188-1.312-0.372-2.622-0.555-3.933C303.814,314.685,307.985,314.031,312.153,313.377z
			 M309.914,296.729c-2.495,0.24-4.991,0.588-7.495,0.47c-4.782,1.11-9.566,2.219-14.349,3.326
			c-2.262-0.894-4.523-1.783-6.785-2.677c1.114-0.635,2.503-0.932,3.126-2.163c1.35-1.55,2.361-3.323,3.348-5.117
			c1.228-1.255,3.104-1.143,4.685-1.651c1.029-0.315,2.055-0.521,3.078-0.058c2.383,0.56,4.754,1.292,7.14,1.747
			c2.395-0.431,4.862-0.588,7.087-1.657c1.165-0.72,0.315,1.308,0.49,1.94C310.129,292.835,310.021,294.783,309.914,296.729z
			 M307.985,271.214c-3.664-1.828-7.238-3.869-10.96-5.561c-1.098-0.448-2.403-0.371-3.189-1.395
			c-1.913-1.851-3.647-3.952-5.603-5.726c-1.071-0.358-2.142-0.716-3.213-1.072c-0.934,2.302-1.867,4.606-2.802,6.907
			c-2.827,2.093-5.735,4.063-8.805,5.781c-1.049,0.626-2.094,1.248-3.144,1.872c-7.266-3.089-14.46-6.34-21.656-9.581
			c0.479,2.653,1.289,5.616-0.25,8.091c0.363,1.446-0.783,1.051-1.75,0.873c-3.42-0.5-6.84-0.999-10.259-1.496
			c1.865-8.485,3.732-16.972,5.601-25.453c2.884,0.022,5.797-0.153,8.535-1.141c2.503-0.608,5.054-1.011,7.521-1.785
			c2.86-2.304,5.771-4.584,8.735-6.728c0.705-1.104,0.727-2.538,1.685-3.521c0.611-1.314,0.997-2.755,2.096-3.779
			c0.884-1.002,1.668-2.057,2.064-3.342c0.613-1.507,2.555-1.606,3.247-3.04c1.078-2.02,1.197-4.588,0.501-6.752
			c-0.508-1.263-2.001-3.004-0.758-4.311c0.797-0.785-1.754-0.962-1.399-1.8c0.714-1.833,1.367-3.854,1.079-5.832
			c-0.59-0.611-0.914-1.385-0.642-2.273c-0.059-1.194,0.489-1.654,1.652-1.376c1.892-0.054,3.944,0.045,5.433,1.358
			c3.67,2.024,7.669,3.345,11.604,4.739c2.028,0.313,4.16,1.175,6.162,0.681c1.693-0.795,2.534-2.655,4.097-3.671
			c2.079-2.009,5.103-2.62,7.221-4.542c3.774-3.884,6.917-8.32,10.385-12.472c3.344-4.087,6.567-8.287,9.987-12.304
			c1.92-1.821,3.842-3.646,5.762-5.469c2.54,2.313,4.922,4.813,7.592,6.972c0.014,0.943-1.386,0.938-1.828,1.693
			c-1.734,1.563-3.81,2.852-5.174,4.756c-0.414,1.089-1.389,1.973-1.523,3.136c0.477,1.177,1.939,1.577,2.942,2.238
			c2.007,0.851,4.014,1.7,6.019,2.553c-2.072,3.062-4.018,6.251-6.169,9.229c-1.426,0.418,0.366,1.211,0.749,1.843
			c1.654,1.818,3.824,3.104,5.193,5.183c2.77,3.463,5.545,6.92,8.317,10.382c-4.209,2.592-8.369,5.288-12.634,7.778
			c-0.448,1.01-1.35,1.538-2.377,1.814c-1.841,0.657-3.445,1.861-5.443,2.074c-3.392,0.308-4.079,3.83-5.717,6.144
			c-0.688,0.924,0.712,1.961,0.997,2.937c1.298,2.378,2.595,4.756,3.89,7.134c-2.074,5.122-4.148,10.245-6.223,15.369
			C319.686,262.624,313.834,266.919,307.985,271.214z"/>
		
			<path id="path707" sodipodi:nodetypes="ccccccccccccccccccccccccccccccccccccccccccccccccccccccccccccccccccccccccccccccccccccccccccccccccccccccccccccccccccccccccccccccccccccccccccccccccccc" opacity="0.9" fill="#EE3D3D" stroke="#757575" stroke-linecap="round" stroke-linejoin="round" stroke-miterlimit="10" d="
			M292.178,592.897c-0.914-1.036-1.824-2.075-2.74-3.111c-0.573,0.919-0.235,2.099-0.279,3.126c0.342,1.959,0.958,3.898,1.119,5.871
			c-0.131,0.838-0.016,1.837-0.607,2.233c-0.4,0.824-0.218,1.66-0.565,2.438c-0.338,0.905-0.96,1.776-0.57,2.767
			c0.565,3.189,1.029,6.399,0.84,9.654c0.159,1.01,0.317,1.98,0.27,3.137c0.26,1.047-0.161,1.541-0.069,2.198
			c0.648,2.083,0.533,4.323,1.452,6.323c0.57,0.923,0.402,1.452,0.455,2.375c0.557,0.438,0.183,1.585,0.354,2.333
			c-0.57,1.261-0.333,3.588-0.659,5.396c-0.351,2.715-1.025,5.394-2.109,7.908c0.514,0.642-0.825,1.41-0.928,2.186
			c-0.946,2.522-2.527,4.726-3.803,7.085c-0.668,3.067-1.872,6.036-3.934,8.438c-1.66,2.485-2.895,5.337-3.552,8.238
			c-0.111,4.314-0.063,8.633-0.109,12.952c-4.761,0.542-9.597-0.514-14.338,0.309c-2.41,0.945-4.077,3.103-6.054,4.7
			c-2.614,2.329-4.77,5.187-7.797,7.024c-1.374,0.844-2.731,1.839-4.295,2.276c-1.187,0.15-2.227-0.542-3.3-0.934
			c-0.94,3.431-1.679,6.926-2.747,10.315c-0.707,1.815-1.711,3.5-2.227,5.379c-0.618,1.44-0.806,3.03-1.25,4.532
			c1.245,0.059,0.264,1.332,0.266,2.069c-0.461,2.007-0.925,4.017-1.384,6.019c-0.79,0.423-0.438,1.679-0.731,2.462
			c-0.536,2.763-0.584,5.575-0.827,8.37c-2.168-0.179-4.149-1.226-6.234-1.796c-0.823-0.272-1.65-0.547-2.478-0.82
			c0.271-0.997,0.54-1.99,0.811-2.984c-2.199-0.625-4.399-1.248-6.596-1.868c-0.127,0.934-0.251,1.868-0.375,2.797
			c-1.182-0.245-2.366-0.496-3.546-0.746c0.063-0.986-0.457-1.617-1.311-2.051c-1.956,0.103-3.911,0.202-5.84-0.229
			c-1.927-0.285-3.844-0.631-5.794-0.583c0.599-1.015-1.659-0.636-1.411-1.452c0.607-0.731-1.43-1.232-1.578-0.725
			c-0.829-0.333-1.661-0.662-2.49-0.997c0.353-0.808-1.234-0.76-0.322-1.918c-0.05-0.657,1.064-2.106,0.144-2.175
			c-2.285-0.252-4.568-0.507-6.852-0.762c-0.333,1.019-0.664,2.035-0.997,3.05c-2.203-0.468-4.458-0.771-6.511-1.754
			c-20.997-8.14-41.97-16.346-62.984-24.443c-4.375-1.639-8.812-3.156-13.149-4.88c-2.046-1.261-4.451-1.759-6.661-2.678
			c-4.218-1.591-8.55-2.889-12.729-4.571c-1.623-0.796-3.258-1.571-5.063-1.852c-1.063-0.257-2.118-0.512-3.179-0.767
			c5.682,27.701,3.686,53.167-5.477,80.03c0.719,3.853,1.339,7.742,2.114,11.578c2.638,5.635,5.167,11.325,7.877,16.924
			c4.136,7.355,8.326,14.678,12.687,21.904c2.283,3.567,4.632,7.094,7.274,10.411c2.297,2.97,4.49,6.039,6.854,8.951
			c8.757,7.958,17.584,15.854,26.297,23.859c9.088,10.609,18.174,21.223,27.258,31.835c3.75-0.605,7.544-1.071,11.267-1.753
			c7.813-4.357,15.574-8.815,23.419-13.112c1.002,0.165,0.982-2.021,1.688-0.971c4.499,4.582,8.996,9.159,13.491,13.741
			c23.966-11.811,47.932-23.619,71.9-35.426c0.733,1.053,1.471,2.111,2.205,3.167c-3.733-5.666-7.467-11.328-11.202-16.992
			c0.436-1.658,0.871-3.319,1.307-4.978c-1.613-0.901-3.461-1.468-4.674-2.93c-1.715-1.57-3.339-3.301-5.111-4.763
			c-2.588-0.715-5.178-1.429-7.767-2.143c-3.92,1.493-7.838,2.991-11.761,4.482c-0.433-0.775-0.737-1.895-1.757-1.093
			c-18.665,6.649-37.328,13.3-55.996,19.949c-1.472-3.628-2.945-7.262-4.419-10.89c4.598-1.539,8.925-3.764,13.39-5.638
			c0.868-0.379,1.738-0.765,2.607-1.146c-1.371-4.212-2.738-8.422-4.107-12.634c3.215-1.162,6.43-2.322,9.643-3.482
			c4.233,3.938,8.468,7.878,12.699,11.819c14.021-11.323,28.047-22.653,42.067-33.979c0.684,0.771,1.369,1.537,2.055,2.303
			c-0.977,0.769-1.95,1.535-2.925,2.303c0.441,1.08,1.029,1.167,1.763,0.255c0.664-0.398,1.445-1.397,2.042-1.437
			c0.229,0.755,1.532,1.681,0.453,2.225c-0.671,0.605-1.346,1.213-2.019,1.819c0.834,0.767,0.889,1.426-0.206,1.923
			c-1.321,1.038-2.643,2.076-3.962,3.117c0.572,0.691,1.628,1.414,0.359,1.97c-1.946,1.687-3.893,3.376-5.839,5.063
			c2.077,0.773,4.015,2.027,6.27,2.145c12.081,1.819,24.159,3.633,36.238,5.45c0.792-0.81,0.657-2.138,1.052-3.169
			c0.457-1.892,0.918-3.781,1.375-5.668c0.945,0.638,1.557,0.47,1.766-0.688c0.542-1.21,0.744-2.599,1.33-3.761
			c1.417-1.234,2.832-2.469,4.247-3.703c0.934,0.227,1.867,0.457,2.801,0.682c-2.49,11.369-4.978,22.738-7.466,34.107
			c0.751-0.018,2.028,0.79,2.429,0.218c2.717-11.276,5.432-22.549,8.148-33.827c1.66,0.333,3.321,0.664,4.979,0.997
			c-0.27,2.018-1.129,4.012-0.707,6.056c0.775,7.355,1.55,14.713,2.325,22.074c-0.912,0.331-1.827,0.664-2.739,0.995
			c0.063,1.219,1.39,0.018,2.099-0.005c12.873-4.251,25.792-8.358,38.576-12.875c3.246-1.119,6.491-2.242,9.734-3.361
			c-0.312-5.766-0.622-11.532-0.934-17.301c2.986-1.123,5.976-2.239,8.962-3.362c2.22,6.598,4.44,13.193,6.658,19.791
			c3.879-1.372,7.758-2.738,11.637-4.105c-1.396-4.865-2.795-9.722-4.19-14.582c7.031-1.892,14.064-3.779,21.098-5.664
			c1.563,5.087,3.126,10.179,4.688,15.266c1.89-0.276,3.638-1.219,5.464-1.772c1.697-0.615,3.413-1.184,5.117-1.775
			c0.54-0.763-0.342-1.659-0.444-2.479c-0.42-0.575-0.246-2.366-1.221-1.812c-1.098,0.825-1.132-0.548-1.459-1.323
			c-1.364-3.895-2.729-7.793-4.096-11.687c0.694-0.268,2.349-0.203,1.155-1.121c-0.666-0.708,1.021-1.147,1.385-1.737
			c6.186-5.063,12.37-10.126,18.557-15.189c0.287,1.126,1.045,1.228,2.03,0.832c0.83-0.22-0.222-1.596-0.2-2.31
			c-0.37-0.814-0.361-1.631-0.028-2.288c-0.433-1.856-0.893-3.707-1.304-5.568c1.992-0.475,3.981-0.955,5.974-1.432
			c-0.893-1.64-1.533-3.444-2.582-4.977c-6.121-6.789-10.923-14.841-18.174-20.553c-5.287-6.219-11.447-11.619-17.065-17.529
			c-11.752-11.782-23.553-23.511-35.303-35.293c-3.289-8.422-1.265-17.571-1.722-26.332c0.388-6.774-0.285-13.583,0.477-20.342
			c6.257-5.736,12.617-11.362,18.857-17.116c-2.342-0.76-4.826-0.268-7.235-0.553c-3.141-0.163-6.293-0.174-9.391-0.772
			c-3.942-0.479-7.769-1.567-11.495-2.91c-5.246-1.665-10.392-3.64-15.516-5.657c-3.827-1.81-7.616-3.786-11.807-4.639
			c-7.179-1.792-14.573-2.384-21.856-3.574C304.679,594.007,298.421,593.504,292.178,592.897z"/>
		
			<path id="path709" opacity="0.9" fill="#EE3D3D" stroke="#757575" stroke-linecap="round" stroke-linejoin="round" stroke-miterlimit="10" d="
			M297.591,446.772c-0.64,0.009-1.334-0.021-1.929,0.207c-1.208,0.884-2.631,1.53-4.144,1.591c-0.405,0.131-0.88,0.146-1.257,0.31
			c-0.7,0.785-1.414,1.587-1.998,2.448c-0.487,0.869,0.368,1.677,0.675,2.469c0.655,1.128,0.657,2.529,0.49,3.781
			c-0.316,1.254-0.714,2.49-0.751,3.792c-0.037,0.498-0.172,1.042-0.473,1.432c-0.96,0.719-1.741,1.631-2.558,2.501
			c-0.625,0.494-0.877,1.328-1.374,1.923c-0.562,0.344-1.18,0.629-1.515,1.229c-0.744,0.806-1.169,1.84-1.833,2.69
			c-2.294,2.17-3.526,5.179-5.243,7.749c-0.02,0.767-0.159,1.546,0.176,2.267c0.12,0.768,0.974,1.249,0.866,2.08
			c-0.104,1.202,0.024,2.506,0.453,3.549c-1.676-0.423-3.064-1.975-4.915-1.683c0.322,2.392-0.357,4.797-0.14,7.174
			c0.138,0.354,0.081,0.884-0.222,1.121c-0.324,0.308-0.196,0.926,0.009,1.289c0.34,0.333-0.211,0.788-0.148,1.153
			c-0.331,0.205,0.018,0.804-0.494,1.025c0.065,0.442,0.161,0.786-0.126,1.134c-0.108,0.427,0.396,0.788,0.326,1.165
			c-0.553,0.446-0.045,1.201-0.254,1.789c0.032,0.703-0.83,0.692-1.298,0.93c-0.439,0.202-0.877,0.32-1.336,0.154
			c-1.452,0.166-2.899,0.514-4.367,0.396c-0.516-0.115-1.077-0.146-1.419-0.609c-0.577-0.512-1.156-1.023-1.732-1.537
			c-2.196,1.807-4.449,3.544-6.604,5.396c-0.976,0.785-1.245,2.09-1.774,3.171c-0.296,0.76-0.771,1.482-0.703,2.329
			c-0.204,1.282,0.279,2.529,0.342,3.803c0.32,2.741,0.564,5.488,0.926,8.218c0.195,0.812,0.087,1.817,0.833,2.363
			c0.917,0.731,1.7,1.615,2.563,2.414c0.344,1.102-0.838,2.101-0.375,3.202c0.155,0.728,0.088,1.563,0.653,2.138
			c0.618,0.804,1.158,1.661,1.424,2.651c0.521,1.345,0.916,2.756,0.91,4.208c-0.184,0.491-0.688,0.964-0.398,1.51
			c0.226,0.279,0.714,0.536,0.696,0.993c-0.229,1.393-0.818,2.701-1.208,4.06c-0.129,0.538-0.333,1.031-0.775,1.389
			c-1.214,1.378-2.522,2.667-3.853,3.934c8.365,8.367,16.147,17.285,24.458,25.705c6.476,0.762,12.979,1.304,19.416,2.361
			c-0.992,3.023-3.737,4.922-5.912,7.063c-0.774,0.806-1.782,1.665-2.191,2.641c0.896,1.017,1.794,2.037,2.69,3.057
			c8.176,0.744,16.36,1.495,24.476,2.762c7.135,0.864,14.283,1.994,21.14,4.206c8.772,4.446,18.137,7.56,27.486,10.521
			c2.041,0.451,4.074,0.969,6.155,1.202c1.67,0.211,3.326,0.583,5.014,0.576c3.234,0.127,6.462,0.395,9.701,0.334
			c0.699,0.076,1.374,0.265,2.053,0.435c5.361-4.497,10.799-8.936,16.727-12.675c4.843-3.426,9.814-6.774,15.324-9.042
			c-0.063-0.645-0.124-1.287-0.188-1.929c-2.997-1.493-5.956-3.054-8.918-4.61c-4.352-2.255-8.714-4.493-13.05-6.778
			c-0.891-1.635-1.791-3.263-2.855-4.791c-4.902-7.558-9.927-15.035-14.924-22.527c-0.714-0.958-1.424-1.909-2.136-2.866
			c-8.691-4.038-17.203-8.455-25.827-12.632c-1.556-1.293-3.622-1.696-5.498-2.318c-1.408-0.438-2.856-0.764-4.21-1.354
			c1.006-2.336,2.486-4.734,1.95-7.389c-0.268-2.847-1.961-5.22-3.108-7.753c-0.335-0.94-1.323-3.23,0.386-2.938
			c4.749-0.292,9.558-3.363,10.895-8.094c0.705-2.135,0.326-4.479-0.773-6.41c-0.905-1.835-2.14-3.604-2.335-5.69
			c-0.577-3.435-1.149-6.869-1.578-10.324c-0.087-0.67-0.181-1.332-0.268-2c-1.063-0.115-2.118-0.512-3.189-0.264
			c-1.328,0.129-2.649,0.442-3.983,0.242c-1.297-0.104-2.562-0.455-3.844-0.66c-0.912-0.629-2.083-0.975-2.671-1.979
			c-0.384-0.429-0.111-1.068-0.194-1.6c0.031-0.595-0.13-1.236,0.272-1.741c0.422-0.897,0.958-1.75,1.311-2.669
			c0.131-0.521,0.146-1.1,0.337-1.589c0.57-0.414,0.855-1.128,0.634-1.812c-0.032-0.544,0.055-1.13,0.372-1.554
			c0.786-0.186,0.74-1.688,1.314-2.32c0.257-0.37,0.34-1.13,0.928-1.045c0.17-0.501,0.324-1.004,0.133-1.526
			c-0.032-0.565-0.381-1.153,0-1.66c0.441-0.743,0.298-1.652,0.462-2.476c0.032-0.45,0.213-0.94-0.12-1.314
			c-0.264-0.673-0.512-1.447-0.138-2.129c0.161-0.361,0.432-0.664,0.407-1.097c0.189-0.299,0.255-0.743,0.063-1.061
			c-0.018-0.549-0.211-1.021-0.063-1.554c-0.147-0.37-0.158-0.775-0.309-1.124c-0.099-0.433-0.266-0.829-0.623-1.116
			c-0.08-0.64,0.037-1.428-0.438-2.118c-0.424-0.398-0.23-0.967-0.122-1.557c-0.441-0.909-1.306-1.559-1.628-2.547
			c-0.893-1.807-1.371-3.819-2.542-5.48c-0.974-0.503-1.735-1.959-2.476-2.227c-0.629,0.557-1.053,1.345-1.704,1.85
			c-1.291,0.607-2.675,1.021-3.964,1.613c-0.501,0.42-0.875,1.045-1.465,1.325c-0.71,0.361-1.5,0.079-2.24,0.079
			c-0.803,0.193-1.66,0.226-2.418-0.152c-1.254-0.538-2.632-0.625-3.968-0.811c-0.932,0.605-1.666,1.494-2.561,2.141
			c-1.155,0.461-2.29,1.014-3.476,1.389c-0.852,0.559-1.659,1.203-2.656,1.484c-0.694,0.294-1.396,0.57-2.163,0.572
			c-0.784,0.044-1.583-0.063-2.323,0.261c-0.748,0.235-1.536,0.434-2.242,0.745c-0.454,0.457-0.87,1.034-1.393,1.382
			C298.621,446.733,298.104,446.753,297.591,446.772z"/>
		<g id="g687" transform="matrix(0,1.25,1.25,0,64,140)">
			<g>
				<g id="g689">
					
						<path id="path695" fill="none" stroke="#000000" stroke-width="0.8" stroke-linecap="round" stroke-linejoin="round" stroke-miterlimit="10" d="
						M439.634,342.403l5.777,5.529l-0.051,7.121l1.295,3.982l1.592,4.779l-0.098,1.794v5.424l4.877-0.047h10.409l0.047,5.274
						l0.101,5.179c10.527-0.216,21.09-0.339,31.615-0.299c0.031,3.405,0.164,6.805,0.198,10.208l1.394-0.798l1.542,0.798
						l3.784,0.049h11.551l-0.498-2.44l-3.333-0.099l-0.848-4.43l0.748-4.68l4.082-11.95l2.986-8.512l-0.995-0.398l1.145-2.987
						l2.189-5.179l0.798-2.44l1.593-3.784l3.137-5.973l3.483-6.873l6.623-10.204l1.144-1.245l4.531,1.644l0.448-1.095l-4.979-3.136
						l3.088-6.473l2.041-2.59l3.385-7.167l-0.247-5.827l-1.642-4.033l-0.898-3.834l13.195-38.634l0.448-0.596l4.628-13.739
						l0.799-1.445l0.745-1.145l0.251-0.945l0.798-1.845l0.744-1.841l1.097-1.395l20.561-28.975l3.984-5.577l3.584-4.878l6.673-9.36
						l3.933-5.626l0.695-0.996l-1.145-0.697l-6.97,9.709l-4.58-3.187l-0.549-0.298l-0.445,0.102l-0.051,0.395l-2.988,4.533
						l0.548,0.448l1.445-2.142l1.345,0.996l0.545-0.747l0.7,0.499l-0.55,0.745l2.49,1.843l-1.741,2.191l-6.226,8.313l-1.741,0.101
						l-0.148-0.101l-0.449,0.051l-3.784,5.327l-2.588,4.084l1.543,0.895l-11.948,15.881l-1.893-0.598l-2.688,3.535l-0.895,1.741
						l-0.054,0.101l-0.147,0.648l-0.2,0.747l0.302,1.841l-0.848,1.146l-1.994,5.873l-1.79,0.15l-1.741-0.598l-0.745,0.399
						l-0.652,0.945L553,235.813h0.048l0.798,0.299l-12.498,36.193l-5.376,15.732l5.027,8.813l-1.693,7.816l-3.634,5.028
						l-0.947-0.697l0.298-0.348l-0.195-0.148l-0.447,0.597l0.095,0.099l0.152,0.098l-0.051,0.101l0.051,0.049l-0.152,0.101
						l0.848,0.648l-4.68,6.173l-2.392-1.792l3.337-4.48l-0.498-0.35l1.395-1.791l0.102-0.051l1.193,0.698l0.398-0.548l-0.745-0.498
						l0.796-1.045l-0.796-0.697l-5.327,7.069l-1.045-0.796l5.374-7.02l-0.446-0.348l-0.998,1.343l-1.59-1.145l-4.98,6.671
						l-1.146-0.846l-1.294,1.693l6.72,5.08l-1.146,1.543l-2.338-1.843l-0.648,0.847l-1.644-1.395l-2.636,3.387l3.88,3.036
						l-5.473,7.169l-0.398,0.998l-0.798-0.45l1.395-3.184l-0.248-0.102l-1.195,2.837l-2.687-1.093l-0.798-2.541l5.325-6.82
						l-1.692-1.394h-0.347l-2.539-0.598l-0.101,0.35l2.292,0.548l-0.897,1.245l-2.141-0.748l-0.152,0.449l1.992,0.598l-0.895,1.245
						l-2.141-0.795l-0.15,0.296l1.991,0.848l-0.945,1.145l-1.991-0.996l-0.2,0.299l1.893,1.045l-0.899,1.197l-1.889-1.146
						l-0.251,0.348l1.893,1.146l-1.044,1.243l-1.395-1.243l-0.299,0.298l1.444,1.344l1.793,5.427l-0.398,0.2l-0.547,0.747
						l-1.097-0.099l0.798,0.745l-2.638,3.934l-1.893-3.535l-0.249,0.15l1.942,3.684l-0.748,1.145L506,339.916l-2.64-5.027
						l-0.347,0.147l2.638,5.13l-2.241,1.195l-2.787-5.328l-0.348,0.149l2.787,5.329l-1.889,1.094l-2.889-5.427l-0.398,0.15
						l2.887,5.475l-1.292,0.747l-3.038-5.574l-0.298,0.099l2.984,5.627l-0.397,0.249l-0.496-0.15l-0.599,0.348l-2.638-4.83
						l-0.298,0.152l2.588,4.777l-1.644-0.446l-2.241-4.033l-0.397,0.2l2.041,3.633l-1.644-0.347l-1.292-2.441l-0.448,0.152
						l1.193,2.24l-1.243-0.401l-1.642-2.586l-0.252-0.548l15.085-8.265l3.039-12l-0.397-0.547l-4.731-1.095l-1.794,1.146
						l-2.787,10.854l-4.877,2.638l-0.897,0.547l-1.842,0.996l-0.698-0.15l4.533-17.525l0.695-2.987l0.648-2.838l0.795-3.584
						l1.048,0.298l0.248-0.796l16.33,4.035l-0.2,0.845l0.994,0.348l1.498-0.897l0.047-0.295l1.343-5.628l-0.843-1.444l-0.998-0.249
						l-0.249,0.945l-14.438-3.484l-2.788-0.747h-0.298l-0.299,0.298l-4.43-1.045l-0.249-0.049l-1.145,4.779l-3.734-1.843
						l-5.127-4.23l-1.245-0.998l-6.573-5.475l-0.347-0.298l-0.898-0.948l-2.29-2.638l-1.741-1.546l-1.146,0.101l-1.043,0.15h-4.234
						l-2.189,0.051c-4.813,0.235-9.372,0.111-14.192,0.298c-6.202,7.605-12.334,15.279-18.518,22.901l0.3,3.487l13.541,10.755
						C442.11,329.2,439.557,336.558,439.634,342.403z"/>
				</g>
			</g>
		</g>
		
			<path id="path697" opacity="0.7" fill="#F27475" stroke="#757575" stroke-linecap="round" stroke-linejoin="round" stroke-miterlimit="10" d="
			M369.345,630.05c-0.774,6.821-0.067,13.87-0.496,20.659c0.477,8.679-1.534,17.719,1.741,26.015
			c9.844,10.135,20.17,19.804,29.872,29.997c6.977,6.911,14.111,13.714,20.787,20.91l0.122-1.433l0.188-1.304v-5.292l0.063-2.736
			c0.294-6.016,0.139-11.715,0.372-17.74c9.506-7.756,19.101-15.418,28.626-23.147l4.358,0.375l13.443,16.926
			c7.078-0.642,16.275-3.833,23.582-3.737l6.911,7.221l8.901-0.063l4.978,1.619l5.974,1.99l2.242-0.122h6.78l-0.059,6.097
			l6.656,0.126l18.298,0.248l3.67-3.297l4.357-4.543l1.245-0.749l19.166-19.228l1.805-1.804l-0.806-0.749L581,673.924l0.124-0.063
			l-0.435-1.182l-0.062-0.188h-2.429l-4.356-5.163l1.866-1.308l6.722,3.424l0.746-0.189l1.557-1.056l0.997-0.313l1.617-0.246
			c0.163-13.796-0.002-27.666,0.25-41.449c-0.477-6.606,0.322-13.781-0.063-20.414c-13.193-0.104-26.387-0.098-39.58-0.059
			l-0.063,6.722l-0.124,6.533l-0.063,6.778h-6.656l-6.474-0.057h-6.472l-7.094-0.062l0.061-6.66
			c-13.562-0.079-27.609,0.298-41.134-0.063c-18.718-9.378-37.442-18.711-56.197-28.006l-0.812,1.247l-1.369,0.061l-1.306-0.994
			c-7.573,3.086-13.34,7.871-20.103,12.259C389.075,611.389,379.517,621.014,369.345,630.05z"/>
		<path id="path25" fill="#891926" stroke="#757575" stroke-linecap="round" stroke-linejoin="round" stroke-miterlimit="10" d="
			M492.004,689.542c2.304,2.407,4.608,4.815,6.911,7.221c3,0.002,6.013-0.088,8.999-0.028c3.629,1.164,7.242,2.368,10.854,3.574
			c3.004-0.221,6.014-0.083,9.022-0.122c-0.092,6.366-0.055,12.738-0.059,19.107c4.354,0.025,8.709,0.089,13.066,0.185
			c-0.27,13.172-0.424,26.346-0.374,39.519c4.256,0.039,8.504,0.205,12.76,0.248c-0.283,0.612-0.838,1.222-0.949,1.838
			c0.375,0.881,1.13,1.667,0.958,2.684c0.096,6.105,0.03,12.214,0.053,18.317c-1.015-0.207-2.033-0.414-3.05-0.623
			c-0.042-1.391-0.083-2.781-0.124-4.166c-1.883-0.337-3.76-0.769-5.645-1.045c-2.042,0.372-4.132,0.563-6.147,1.056
			c-8.404,2.865-16.807,5.729-25.174,8.7c-0.287-0.516-0.312-1.641-1.095-1.014c-3.431,1.223-6.724,2.793-10.115,4.103
			c-2.604,0.76-5.081,1.883-7.556,2.97c-5.252,2.804-10.565,5.485-15.866,8.188c-4.267,2.795-8.592,5.519-12.823,8.363
			c-0.402,0.461-1.164,0.884-1.341,1.376c1.335,2.137,2.671,4.274,4.005,6.41c0.954-0.312,1.909-0.623,2.863-0.934
			c0.544,0.443,1.081,0.884,1.626,1.325c-22.453,9.364-44.908,18.729-67.361,28.093c15.27-7.643,30.539-15.282,45.809-22.923
			c-0.521-1.888-1.042-3.768-1.563-5.653c-2.986,1.411-5.975,2.821-8.959,4.231c-2.46-0.128-4.938-0.163-7.382-0.348
			c-1.828-0.69-3.589-1.58-5.461-2.138c-1.459-0.298-2.922-0.762-4.373-0.962c-16.064,5.485-32.129,10.973-48.195,16.456
			c-1.047,0.927-2.517,1.056-3.772,1.58c-4.745,1.613-9.51,3.178-14.242,4.817c-1.123,0.565-2.177,1.267-3.248,1.906
			c-1.9,0.462-3.611,1.472-5.453,2.123c-1.196,0.746-2.246,1.748-3.447,2.507c-14.188,10.096-28.429,20.115-42.57,30.264
			c-7.055,5.209-14.215,10.27-21.396,15.303c-1.275,0.895-2.549,1.78-3.824,2.673c-0.133-0.521-1.16-1.234-0.607-1.611
			c2.457-1.697,4.917-3.397,7.375-5.1c0.169-3.054,0.342-6.102,0.514-9.157c-0.39-0.405-0.593-1.435,0.248-1.307
			c1.889-1.243,3.776-2.488,5.666-3.735c0.783,0.56,0.39,0.945-0.324,1.282c-0.599,0.403-1.195,0.806-1.794,1.21
			c0.416,0.56,0.831,1.117,1.245,1.681c-0.645,0.379-1.215,0.769-0.438,1.378c0.374,0.487,1.084-1.136,1.376-0.08
			c0.663,0.895,1.323,1.789,1.987,2.684c2.283-1.887,4.695-3.604,7.096-5.34c-0.788-2.069-1.576-4.136-2.361-6.203
			c5.951-4.13,11.902-8.255,17.854-12.382c-0.455-0.936-0.91-1.872-1.365-2.804c6.38-4.427,12.761-8.853,19.141-13.28
			c-0.136-0.599-0.612-1.306-0.54-1.83c0.655-0.434,1.311-0.862,1.963-1.291c0.549,0.272,0.976,1.228,1.635,0.871
			c7.105-2.517,14.243-4.97,21.326-7.525c0.443-0.174,1.155-1.054,1.442-0.772c0.103,0.916,0.616,0.962,1.346,0.548
			c21.295-7.344,42.572-14.738,63.9-21.993c3.672,2.094,7.345,4.188,11.015,6.284c3.28-0.742,6.606-1.371,9.855-2.177
			c2.068-1.495,4.134-2.988,6.2-4.482c-0.416-0.346-0.728-1.63-1.276-0.835c-0.505-0.31,0.682-1.013,0.873-0.519
			c0.396-0.425,0.694,0.888,1.11,0.854c2.545-1.929,5.089-3.855,7.634-5.784c-0.747-0.996-1.493-1.991-2.24-2.99
			c-1.867,1.393-3.735,2.779-5.601,4.171c-0.305-0.967-0.849-0.325-1.362,0.096c-0.377,0.429-1.254,0.707-1.323,1.242
			c0.108,0.514,1.125,1.217,0.559,1.589c-0.629,0.954-0.744-1.027-1.304-0.431c-0.509,0.299-1.084,1.226-1.471,0.322
			c-0.887-0.538,0.11-0.886,0.567-1.284c2.605-1.964,5.211-3.927,7.817-5.888c-0.427-0.292-0.726-1.542-1.248-1.112
			c-2.84,2.172-5.681,4.349-8.521,6.523c-0.847-0.581,0.1-0.919,0.59-1.319c0.938-0.329,0.422-0.888-0.03-1.437
			c-0.279-0.503-1.183-1.105-0.235-1.422c2.61-1.948,5.22-3.894,7.827-5.84c-0.215-0.512-1.16-1.123-0.89-1.559
			c0.65-0.501,1.299-0.995,1.948-1.491c2.115,2.797,4.233,5.604,6.35,8.4c0.64-0.477,1.284-0.956,1.929-1.433
			c-0.767-0.973-1.539-1.948-2.304-2.923c0.414-0.409,1.507-0.749,0.645-1.296c-0.444-0.524-0.886-1.044-1.33-1.569
			c1.411-1.097,2.823-2.198,4.233-3.295c1.263,1.615,2.527,3.234,3.795,4.85c3.027-2.283,6.014-4.635,9.062-6.881
			c0.611-0.248,1.539-0.379,0.781-1.108c-0.278-0.727-1.119,0.231-1.661,0.292c-0.838,0.37-1.678,0.736-2.519,1.104
			c-0.319-0.631,0.972-0.59,1.348-0.93c0.692-0.293,1.385-0.585,2.074-0.875c-0.454-1.12-0.912-2.241-1.366-3.358
			c-1.061-0.333-2.116-0.664-3.177-0.997c-2.84,2.219-5.683,4.437-8.525,6.656c-0.556-0.746-1.296-1.43-1.742-2.22
			c-0.098-1.187-0.52-2.331-0.748-3.503c0.771-0.429,0.52,0.889,0.783,1.328c0.23,0.438,0.087,1.877,0.771,1.098
			c0.455-0.425,1.474-0.669,0.912-1.411c-0.239-0.692-0.481-1.38-0.723-2.072c0.816-0.572,0.701,0.641,0.96,1.141
			c0.188,0.629,0.261,1.58,0.953,0.728c0.629-0.37,1.215-0.756,0.655-1.482c-0.232-0.629-0.468-1.256-0.698-1.879
			c0.666-0.483,0.652,0.882,0.999,1.282c0.218,0.744,0.48,1.317,1.088,0.477c0.719-0.372,0.891-0.857,0.344-1.497
			c-0.187-0.551-0.768-1.202-0.727-1.694c0.562-0.452,0.688,0.887,1.058,1.213c0.288,0.705,0.609,1.247,1.217,0.457
			c0.754-0.354,0.935-0.816,0.315-1.435c-0.183-0.537-1.044-1.221-0.762-1.665c0.536-0.444,0.708,0.873,1.091,1.178
			c0.331,0.686,0.671,1.304,1.254,0.45c0.51-0.411,1.28-0.803,0.409-1.313c-0.23-0.494-1.428-1.022-0.76-1.491
			c0.466,0.155,0.919,0.938,1.378,1.332c0.56,0.734,1.61,0.697,2.398,1.069c1.587,0.524,3.174,1.047,4.759,1.573
			c0.08-0.707,1.107-0.792,1.164-1.393c-0.119-0.799-0.197-1.511,0.478-0.535c0.424,0.783,1.056-0.264,1.589-0.46
			c1.226-0.82,2.453-1.644,3.679-2.466c-1.474-0.79-2.945-1.578-4.419-2.366c0.305-0.673,1.084,0.351,1.6,0.434
			c1.066,0.563,2.129,1.12,3.193,1.683c0.636-0.492,1.543-0.736,1.766-1.601c0.115-0.528,0.949-1.291,0.597-1.669
			c-2.033-1.069-4.064-2.136-6.096-3.204c0.152-0.889,1.002,0.154,1.511,0.248c1.696,0.872,3.392,1.745,5.085,2.616
			c0.496-0.937,0.997-1.868,1.493-2.802c-2.22-1.16-4.438-2.32-6.66-3.484c0.154-0.893,1.003,0.161,1.508,0.259
			c1.781,0.927,3.557,1.858,5.34,2.79c0.457-0.788,0.912-1.575,1.367-2.361c-2.258-1.204-4.521-2.412-6.783-3.611
			c0.109-0.964,0.982,0.069,1.507,0.198c1.841,0.969,3.685,1.941,5.524,2.912c0.229-0.54,0.862-1.197,0.842-1.665
			c-2.294-1.249-4.584-2.499-6.876-3.748c0.146-0.788,1.038,0.294,1.535,0.376c1.874,0.995,3.75,1.987,5.622,2.982
			c0.609-0.494-0.185-1.169,0.446-1.667c0.152-0.51-1.017-0.651-1.382-1.015c-1.511-0.827-3.028-1.656-4.543-2.481
			c0.243-0.781,1.07,0.285,1.593,0.39c1.524,0.823,3.046,1.647,4.567,2.473c-0.235-0.684-0.303-1.504-0.651-2.104
			c-1.652-0.917-3.298-1.833-4.947-2.752c0.172-0.962,0.942,0.028,1.456,0.183c1.112,0.623,2.225,1.245,3.335,1.872
			c-0.203-0.681-0.207-1.508-0.529-2.101c-0.983-0.526-1.972-1.047-2.956-1.569c0.048-1.031,0.889-0.076,1.411,0.092
			c0.435,0.131,1.488,1.003,1.513,0.64c-0.26-0.613-0.227-1.458-0.971-1.7c-1.133-0.663-2.175-1.493-3.383-2.021
			c-3.446,6.286-6.888,12.572-10.331,18.856c-4.998,1.265-10,2.532-15,3.799c-0.707-0.287-0.834-0.956-0.947-1.64
			c-0.367-1.591-0.735-3.18-1.105-4.771c0.527-0.734,0.932-1.638,1.535-2.267c4.488-1.149,8.977-2.305,13.465-3.459
			c1.52-2.829,3.045-5.65,4.641-8.437c0.313-0.581,0.777-1.139,0.429-1.813c-0.372-0.257-1.228,0.268-1.782,0.312
			c-7.308,1.863-14.591,3.826-21.916,5.622c-3.328,0.777-6.662,1.524-9.999,2.262c0.087,0.59,0.766,1.5-0.237,1.5
			c-0.779,0.117,0.028,1.132-0.003,1.672c1.553,6.284,3.106,12.57,4.661,18.861c0.689-0.262,1.297-0.372,1.334,0.553
			c0.394,0.636-0.402,1.149-0.611,1.72c-0.186,0.755-0.951,0.664-1.555,0.849c-2.067,0.494-4.136,0.988-6.203,1.48
			c-0.586-0.4-1.354-0.671-1.831-1.16c-0.17-0.629-0.56-1.391,0.436-1.33c0.89-0.016,0.087-1.043,0.113-1.569
			c-1.659-6.693-3.147-13.426-4.941-20.085c0.146-0.622,0.521-1.063,0.128-1.782c-0.37-1.606-0.768-3.207-1.123-4.813
			c1.992-0.475,3.981-0.955,5.974-1.432c-0.855-1.624-1.548-3.356-2.506-4.913c-4.543-5.481-9.012-11.027-13.626-16.443
			c-1.884-1.898-4.153-3.392-5.816-5.503c-0.657-0.415-0.496-1.099-0.416-1.754c0.402-2.478,0.117-5,0.225-7.499
			c0.239-6.045,0.248-12.099,0.365-18.147c-0.522-2.099,1.724-2.821,2.954-4.049c8.557-6.95,17.166-13.842,25.727-20.788
			c1.454,0.124,2.908,0.251,4.358,0.375c4.481,5.642,8.961,11.281,13.443,16.926C476.354,692.494,483.985,689.555,492.004,689.542z"
			/>
		
			<path id="path4299" opacity="0.95" fill="#BF172B" stroke="#757575" stroke-linecap="round" stroke-linejoin="round" stroke-miterlimit="10" d="
			M472.901,447.271c0.065,0.441-0.272,1.837-0.551,0.844c-0.357-0.139-0.331-1.112-0.54-1.582
			c-1.311-5.05-2.505-10.135-3.905-15.165c-0.37-1.213-0.955-2.343-1.201-3.594c-1.19-4.288-2.381-8.574-3.574-12.865
			c-0.363-0.149-0.315-1.166-0.533-1.646c0.326-0.156,1.149,0.427,1.691,0.305c0.999-0.333,1.3-1.469,1.6-2.372
			c0.262-1.059,0.278-2.134,0.392-3.204c0.501-1.629,1.411-3.115,2.075-4.663c0.452-0.551,1.313-0.588,1.687-1.258
			c1.206-1.445,2.166-3.23,3.966-4.017c2.508-0.951,5.062-1.793,7.545-2.809c0.616-0.406,1.029-1.125,0.81-1.87
			c1.358,0.086,2.724-0.257,4.081-0.343c1.008,0.058,1.735-0.725,2.651-1.013c0.823-0.365,1.75-0.848,2.665-0.51
			c0.683-0.653,1.771-0.441,2.416-1.168c0.57-0.398,1.548-0.223,1.876-0.949c1.139-0.305,2.103-1.085,3.237-1.433
			c0.857,0.159,1.708,0.588,2.568,0.574c0.842-0.176,1.685-0.393,2.453-0.763c5.524-0.288,11.049-0.575,16.573-0.868
			c-0.163-0.699-0.073-1.222,0.747-1.242c2.12-0.481,4.297-0.661,6.41-1.184c1.785-0.141,3.618-0.144,5.375-0.368
			c0.879-0.452,1.299-1.408,2.181-1.865c1.267-0.79,2.74-1.214,4.097-1.842c0.962-0.291,1.617-1.234,2.692-1.217
			c0.651-0.126,1.169-0.629,1.853-0.714c0.84,0.078,0.949-0.475,1.036-1.209c0.379-1.274,1.095-2.453,1.822-3.562
			c0.829-1.009,2.271-1.007,3.302-1.733c1.661-0.892,3.326-1.8,4.874-2.869c1.527-1.099,2.852-2.467,3.787-4.104
			c0.877-1.458,2.292-2.423,3.583-3.48c1.929,0.126,4.284-0.454,5.007-2.48c0.392-1.141,0.475-2.694,1.75-3.25
			c0.742-0.42,1.421-0.99,2.305-1.017c0.694-0.184,1.435-0.282,1.842-0.946c0.638-1.088,1.817-0.988,2.94-1.139
			c1.452,0.057,2.804-1.587,4.132-1.081c0.645,0.511,1.284,1.019,2.096,1.243c0.869,0.38,1.768,0.714,2.456,1.39
			c0.969,0.418,2.005,0.321,3.019,0.157c0.951-0.186,2.114,0.047,2.775-0.824c0.666-0.698,1.544-1.261,2.048-2.072
			c1.606,0.526,3.36,1.244,4.974,0.314c0.673-0.038,1.243-0.328,1.822-0.626c0.799-0.299,1.612-0.399,2.407-0.693
			c0.813-0.196,1.552-0.609,2.403-0.696c0.977-0.003,1.221-1.253,2.146-1.35c0.954,1.49,2.081,2.887,2.74,4.544
			c0.466,0.466,1.036,0.712,1.698,0.658c0.684,0.042,1.366,0.15,2.033-0.035c0.335,0.749,0.813,1.42,1.247,2.114
			c0.642-0.003,1.286-0.042,1.931-0.062c2.361,3.518,4.682,7.113,7.719,10.099c1.031,1.117,0.616,2.637,0.496,3.967
			c-0.074,0.722,0.566,0.995,1.066,1.354c1.075,0.82,2.523,0.903,3.744,1.385c1.032,0.836,2.173,1.515,3.45,1.914
			c0.666,1.117,0.729,2.998,2.053,3.865c1.713,0.597,1.587,2.671,3.48,2.69c1.672,0.735,3.144,2.174,3.875,3.831
			c0.067,1.202-0.324,2.504,0.27,3.608c0.094,0.658,0.312,1.418,0.788,1.867c0.563,0.363,0.568,1.214,0.899,1.787
			c0.178,0.896,1.293,0.522,1.945,0.598c1.413,0,3.026,0.21,3.923,1.436c1.291,1.479,2.758,2.77,4.272,4.008
			c0.754,0.442,0.79,1.394,1.42,1.957c0.92,0.895,2.324,1.061,3.559,1.128c1.08,0.017,2.037-0.66,3.063-0.942
			c1.047-0.464,2.271-0.61,3.078-1.485c2.035-1.194,4.682-0.482,6.441,0.88c0.849,0.42,1.674,0.901,2.653,0.884
			c1.079,0.104,2.113,0.537,3.086,0.971c0.897,0.769,1.955,1.537,2.196,2.775c0.299,0.845,0.51,1.776,0.827,2.581
			c1.226,1.087,2.984,0.96,4.495,1.348c1.293,0.235,2.588,0.468,3.886,0.703c0.2,0.629-0.272,3.333-1.709,3.824
			c-0.716,0.189-0.983,1.059-1.789,0.969c-2.655,0.867-5.386,1.485-8.11,2.049c-1.374,0.259-2.802,0.22-4.169,0.023
			c-0.62-0.224-1.09-0.652-1.523-1.138c-0.725-0.316-0.93,0.694-0.714,1.197c0.15,0.661,0.322,1.325-0.081,1.941
			c-0.855,1.403-2.599,1.717-3.955,2.464c-0.89,0.636-1.739-0.359-2.526-0.725c-1.059-0.682-2.293-1.147-3.055-2.201
			c-0.555-0.385-1.318,0.168-1.112,0.762c1.245,1.149,1.748,2.835,1.817,4.486c0.033,0.671,0.06,1.348,0.564,1.853
			c0.673,0.736,0.636,1.722,0.544,2.647c-0.159,1.265-1.478,2.024-1.732,3.236c0.215,0.769,0.179,1.548-0.233,2.246
			c-0.319,0.889-1.228,1.441-1.437,2.377c-0.524,0.947-1.063,1.886-1.245,2.972c-0.565,1.378-1.07,4.114,0.338,4.798
			c0.381-0.074,1.591-0.351,1.295,0.303c-0.244,0.601-0.109,1.16,0.207,1.704c0.509,1.858,0.89,3.746,1.428,5.597
			c0.816,0.307,0.677,1.327,0.99,2.007c0.113,0.857,0.747,1.451,1.317,2.041c0.263,0.947-0.566,1.796-1.383,2.112
			c-0.829,0.42-1.265-0.701-1.883-1.048c-0.738-0.544-1.633-0.973-2.553-0.62c-1.291,0.427-2.649,1.073-3.324,2.329
			c-1.979,2.732-2.619,6.224-2.083,9.517c0.241,1.927,0.624,3.833,0.896,5.758c-0.744,0.165-0.22-1.33-0.834-1.284
			c-0.948,0.094-1.896,0.204-2.843,0.348c0.597,1.045,1.707,3.235,0.995,3.986c-0.751,0.178-1.156-0.118-1.213-0.891
			c-0.22-0.783-1.031-0.05-1.556,0.009c-0.609,0.207-1.524,0.28-0.847,1.043c0.709,1.521,1.417,3.043,2.124,4.568
			c-0.551,0.361-1.19,0.57-1.743,0.932c-1.259-0.686-2.998,1.881-4.497,2.229c-0.971,1.025-0.871-1.615-1.824-0.264
			c-3.581,2.274-7.549,4.101-10.584,7.12c-2.266,2.499-2.494,6.034-3.943,8.962c0.818,3.755,1.104,7.597,1.678,11.393
			c-0.779-0.126-1.563-0.243-2.24-0.689c-0.404,0.374-1.012,0.209-1.532,0.374c-0.721,0.035-1.079-0.81-1.819-0.698
			c-2.523-0.338-5.065-0.444-7.6-0.667c-0.411,0.627,0.203,1.273,0.466,1.844c1.934,3.035,4.006,5.986,6.337,8.731
			c2.166,2.825,4.086,5.836,6.201,8.707c1.762,2.439,3.204,5.104,4.263,7.919c2.956,6.541,5.801,13.13,8.835,19.634
			c0.067,1.35-0.56,2.782-0.729,4.162c-1.904,9.386-3.424,18.844-5.02,28.287c0.688,0.539,0.756,1.484,1.121,2.237
			c-0.104,0.808-0.211,1.619-0.313,2.427c-1.821,0.248-3.75-0.714-5.463,0.106c-4.345,2.734-8.179,6.229-11.73,9.911
			c-1.006,0.888-1.674,2.266-2.773,2.943c-1.068,0.376-2.186,0.398-3.307,0.356c-6.079,0.024-12.152-0.333-18.231-0.246
			c-15.766-0.146-31.533-0.185-47.3-0.124c-0.078-8.343-0.161-16.699,0.048-25.032c0.516-1.089-0.374-2.177-0.091-3.278
			c0.309-2.974,1.194-5.842,1.811-8.757c0.42-1.441,0.712-2.908,0.891-4.395c0.422-1.822,0.842-3.642,1.263-5.464
			c0.381-0.566,1.141-0.4,1.495-0.995c0.331-0.48,0.404-1.234,0.292-1.745c-0.793-0.586-1.84-0.742-2.782-0.993
			c-0.572-1.034-1.228-2.042-1.397-3.234c-0.233-1.513-0.028-3.073-0.035-4.606c0.29-2.312,0.481-4.671,1.408-6.835
			c0.497-1.421,1.226-2.742,1.829-4.118c-0.055-0.84-0.965-1.277-1.689-0.925c-1.702,0.542-3.354,1.263-5.094,1.672
			c-1.33-0.327-2.473-1.313-3.898-1.174c-0.901-0.113-2.285,0.159-2.655-0.921c-0.15-0.805,0.2-1.687-0.161-2.431
			c0.098-1.626-0.081-3.261,0.117-4.892c0.033-1.876,0.527-3.748,0.255-5.625c0.007-0.677,0.235-1.421-0.381-1.906
			c-0.496-0.655-0.997-1.313-1.491-1.973c0.845-1.051,0.34-2.492,0.353-3.727c-0.08-0.896,0.113-1.83,0.37-2.677
			c0.521-1.056,1.831-1.239,2.763-1.809c1.854-0.534,3.844-0.958,5.354-2.233c1.125-0.834,2.177-1.766,3.232-2.687
			c-0.272-0.916-1.332-1.238-1.724-2.109c-0.901-1.236-1.853-2.446-2.715-3.698c-0.512-0.679-1.199-1.293-1.598-2.011
			c0.185-0.706,1.332-0.164,1.661-0.811c1.054-1.136,2.244-2.159,3.193-3.38c0.218-0.997-0.864-1.443-1.4-2.088
			c-1.09-0.973-2.059-2.113-3.229-2.979c-1.374-0.646-2.959-0.804-4.319-1.489c-2.157-1.217-4.297-2.473-6.428-3.729
			c-0.851-0.429-1.8-0.71-2.742-0.4c-1.027,0.104-2.07-0.107-3.104,0.045c-0.686-0.28-0.659-0.99-0.597-1.617
			c0.159-3.069,0.115-6.143,0.161-9.212c-0.289-1.358-1.824-1.541-2.884-2.039c-0.923-0.377-1.772-0.893-2.771-1.05
			c-0.594-0.121-1.21-0.542-1.741-0.05c-1.226,0.634-2.453,1.261-3.679,1.892c-1.192-2.721-2.468-5.411-3.648-8.135
			c-0.276-0.67-0.553-1.521,0.125-2.05c0.374-0.605,1.063-0.858,1.728-0.584c0.995,0.22,2.166,0.969,3.067,0.138
			c0.884-0.483,1.019-1.604,1.55-2.391c0.834-1.734,2.048-3.376,2.014-5.39c0.218-1.761-0.969-3.145-2.066-4.351
			c-0.688-0.779-0.709-1.847-0.158-2.688c0.696-0.818,1.508-1.546,2.118-2.427c0.172-0.979-0.044-1.927-0.478-2.807
			c-0.35-0.526-0.293-1.897-1.217-1.421c-0.537,1.345-0.261,3.354-2.394,3.356c-1.415,0.12-2.662,0.322-3.592,0.052
			c-1.574,0.449-3.202,1.045-4.403,2.177c-0.625,0.899-0.097,2.099-0.318,3.113c-0.198,1.639-0.686,3.55-1.678,4.791
			c-0.242-0.436,0.061-1.208,0.028-1.766c0.067-0.725,0.241-1.469-0.281-2.067c-0.605-0.906-1.563-1.461-2.595-1.759
			c-0.544-0.466-0.866-1.117-1.271-1.674c-1.116-0.795-2.868,0.163-3.82-1.226c-0.988-1.11-2.438-1.572-3.498-2.575
			c-0.711-0.405-1.272,0.5-1.399,1.093c-0.52,2.161-0.94,4.377-1.467,6.515c-0.398,0.714-1.265,0.688-1.896,0.322
			c-1.173-0.54-2.459-0.655-3.7-0.962c-0.777-0.477-0.555-1.433-0.15-2.086c0.499-0.785,0.717-1.765,0.255-2.62
			c-0.152-0.655-0.37-1.252-1.149-1.252c-1.187,0.677-3.559,1.911-4.042-0.483c-0.322-0.803,0.436-1.495,0.42-2.271
			c-0.518-0.981-2.067,0.127-2.505-0.964c-0.218-0.784-1.075-0.657-1.7-0.751c-0.643-0.278-1.38-0.572-2.029-0.202
			c-0.675,0.358-0.565,1.014-0.211,1.58c0.412,0.813,0.244,1.766,0.039,2.601c-0.426,0.821-1.43,0.708-2.2,0.765
			c-0.854,0.438-0.505,1.619-0.42,2.398C473.153,445.256,473.041,446.239,472.901,447.271z"/>
		
			<path id="path4301" opacity="0.9" fill="#EE3D3D" stroke="#757575" stroke-linecap="round" stroke-linejoin="round" stroke-miterlimit="10" d="
			M518.145,440.802c-1.134,0.731-2.529,0.937-3.844,0.742c-0.542,0.299-0.829,0.416-1.069-0.106
			c-1.275,0.337-2.542,0.781-3.67,1.469c-0.596,0.366-1.347,0.763-1.362,1.563c0.089,1.922-0.055,3.896-0.877,5.67
			c-0.271,0.349-0.429,1.725-0.938,1.363c0.059-1.013,0.216-2.042,0.218-3.041c-0.276-0.655-0.753-1.187-1.27-1.659
			c-0.524-0.383-1.164-0.551-1.73-0.822c-0.477-0.453-0.844-0.984-1.143-1.572c-0.365-0.239-0.714-0.542-1.182-0.438
			c-0.547-0.071-1.169,0.253-1.615-0.167c-1.071-0.566-1.911-1.463-2.965-2.049c-0.597-0.337-1.134-0.748-1.642-1.203
			c-0.346-0.152-0.748-0.177-0.925,0.227c-0.546,0.496-0.673,1.245-0.703,1.952c-0.229,1.325-0.576,2.623-0.934,3.916
			c-0.103,0.492-0.122,1.019-0.278,1.482c-0.303,0.496-0.951,0.812-1.498,0.505c-0.936-0.346-1.867-0.721-2.871-0.84
			c-0.441-0.125-0.964-0.118-1.341-0.361c-0.396-0.281-0.574-0.823-0.363-1.27c0.207-0.799,0.87-1.456,0.808-2.32
			c0.011-0.601-0.349-1.149-0.496-1.729c-0.021-0.475-0.564-0.398-0.896-0.553c-0.406-0.213-0.705,0.298-1.056,0.444
			c-0.435,0.351-1.012,0.404-1.519,0.599c-0.464-0.233-0.937-0.455-1.202-0.928c-0.213,0.198,0.538,1.856,1.535,1.428
			c0.803-0.339,1.695,0.501,0.785,0.991c-0.581,0.516-1.273,0.927-1.805,1.479c-0.392,0.733-0.875,1.433-1.21,2.192
			c-0.154,0.705-0.312,1.41-0.468,2.115c0.601,0.873,1.201,1.744,1.805,2.617c1.306,0.394,2.609,0.787,3.92,1.182
			c0.572,0.707,0.653,1.647,0.965,2.479c0.666,2.207,1.391,4.399,2.018,6.604c-0.166,2.913-0.235,5.83-0.572,8.729
			c-0.14,1.447-0.279,2.895-0.418,4.342c-0.997,0.582-1.992,1.161-2.991,1.742c-0.246,2.344-0.494,4.688-0.744,7.033
			c0.278,0.771,0.633,1.527,0.868,2.305c-0.133,2.44-0.074,4.894-0.126,7.342c-0.044,2.327,0,4.656-0.154,6.977
			c-0.037,1.282-0.009,2.573,0.076,3.855c0.05,0.415,0.02,0.934,0.429,1.169c1.722,2.442,3.489,4.852,5.378,7.163
			c1.459,1.934,3.278,3.607,4.458,5.738c0.997,1.89,0.099,4.024-0.739,5.79c-0.444,1.004-1.117,1.911-1.291,3.015
			c-0.771,3.102-1.64,6.18-2.386,9.284c-0.223,1.166-0.62,2.307-0.586,3.507c-0.085,1.819-0.139,3.646-0.202,5.463
			c-0.538,0-1.077,0-1.617,0c-0.037,0.39,0.059,0.928-0.501,0.749c-0.492,0.12,0.065,0.42,0.126,0.686
			c0.053,0.331-0.206,0.917,0.063,1.075c0.487-0.03,0.115,0.618,0.188,0.915c0.557,0.174,0.354-0.467,0.427-0.814
			c0.147-0.25,0.742,0.037,1.07,0c0.233,0.271,0.051,0.769,0.07,1.132c-0.111,1.406-0.107,2.825-0.223,4.221
			c-0.237,0.611-0.524,1.221-1.029,1.652c-0.751,0.363-1.539,0.788-1.922,1.569c-0.979,1.598-1.778,3.311-2.738,4.91
			c-0.451,0.338-0.834,0.811-1.431,0.854c-0.808,0.266-1.72,0.296-2.398,0.855c-0.634,0.439-1.346,0.82-1.933,1.304
			c-0.63,1.278-0.862,2.706-1.289,4.063c-0.457,1.759-1.068,3.478-1.365,5.273c-0.23,0.584-0.39,1.215-0.872,1.654
			c-0.54,0.666-1.054,1.356-1.772,1.849c-0.5,0.385-0.99,0.84-1.345,1.35c-0.473,3.178-1.041,6.336-1.454,9.525
			c-0.233,1.667-0.496,3.335-0.655,5.015c-0.836,5.407-0.893,11.059-3.133,16.141c-0.023,0.59-1.254,1.493-0.509,1.787
			c4.616,2.31,9.233,4.617,13.853,6.927c13.707,0.361,27.42-0.011,41.134,0.063c-0.02,2.218-0.041,4.438-0.061,6.66
			c4.855,0.062,9.715,0.059,14.57,0.07c4.04,0.054,8.083,0.059,12.125,0.048c0.172-11.346,0.294-22.697,0.187-34.051
			c0.005-3.625-0.025-7.251,0.079-10.875c0.108-0.517,0.335-1.034,0.117-1.553c-0.122-0.67-0.374-1.334-0.152-2.009
			c0.903-6.238,2.834-12.271,3.94-18.472c0.289-0.312,0.622-0.535,1.06-0.56c0.431-0.361,0.779-0.847,0.74-1.435
			c0.069-0.398,0.137-0.803-0.305-0.994c-0.818-0.29-1.637-0.584-2.49-0.745c-0.357-0.731-0.862-1.406-1.123-2.172
			c-0.181-0.745-0.462-1.477-0.372-2.253c0-1.727,0.006-3.457,0.276-5.166c0.144-1.143,0.337-2.287,0.596-3.406
			c0.478-1.348,0.93-2.703,1.583-3.977c0.259-0.627,0.642-1.248,0.825-1.879c-0.099-0.441-0.331-0.91-0.839-0.938
			c-0.648-0.163-1.265,0.285-1.883,0.432c-1.35,0.433-2.655,1.014-4.042,1.313c-1.022-0.253-1.911-0.864-2.926-1.123
			c-0.992-0.099-2.018-0.003-2.981-0.274c-0.577-0.189-0.771-0.852-0.675-1.406c-0.037-0.544,0.198-1.141-0.14-1.615
			c0.144-1.391-0.096-2.788,0.074-4.18c0.061-1.765,0.305-3.521,0.409-5.282c-0.137-0.825-0.098-1.657-0.048-2.488
			c-0.643-0.849-1.286-1.698-1.929-2.552c0.287-0.344,0.457-0.73,0.45-1.184c0.085-1.017-0.106-2.044-0.135-3.067
			c0.072-0.675,0.194-1.367,0.338-2.026c0.268-0.716,0.966-1.068,1.624-1.35c0.733-0.388,1.484-0.721,2.296-0.893
			c1.137-0.257,2.198-0.729,3.268-1.188c1.482-1.049,2.873-2.218,4.231-3.424c-0.124-0.485-0.485-0.797-0.864-1.097
			c-0.684-0.549-1.047-1.387-1.619-2.044c-0.59-0.797-1.241-1.565-1.746-2.414c-0.603-0.721-1.204-1.441-1.807-2.162
			c-0.078-0.537,0.634-0.466,0.99-0.557c0.533,0.017,0.771-0.538,1.141-0.834c0.854-0.912,1.801-1.752,2.595-2.723
			c0.248-0.345,0.174-0.956-0.181-1.224c-1.369-1.295-2.714-2.628-4.101-3.901c-0.854-0.514-1.863-0.642-2.791-0.977
			c-0.742-0.227-1.509-0.405-2.15-0.86c-1.977-1.132-3.955-2.253-5.893-3.445c-0.755-0.301-1.525-0.749-2.368-0.544
			c-1.165,0.287-2.37-0.046-3.555,0.126c-0.298-0.161-0.731-0.384-0.657-0.806c0-1.704,0.147-3.413,0.122-5.122
			c0-1.649,0.059-3.311,0.021-4.954c-0.168-0.682-0.721-1.155-1.365-1.378c-1.743-0.84-3.578-1.513-5.457-1.987
			c-1.414,0.728-2.82,1.452-4.231,2.177c-1.178-2.66-2.39-5.309-3.587-7.96c-0.152-0.609-0.632-1.3-0.202-1.892
			c0.313-0.405,0.657-0.899,1.175-1.03c1.03,0.014,1.968,0.599,2.984,0.658c0.572-0.101,1.043-0.479,1.461-0.847
			c0.91-1.87,2.242-3.549,2.747-5.602c0.631-2.037,0.037-4.308-1.396-5.864c-0.531-0.482-0.973-0.981-0.973-1.73
			c-0.07-0.418,0.294-0.785,0.4-1.184c0.696-0.818,1.508-1.546,2.118-2.427c0.052-0.729,0.133-1.482-0.221-2.155
			c-0.28-0.714-0.559-1.428-0.835-2.14C517.923,437.778,518.909,440.157,518.145,440.802L518.145,440.802z"/>
		
			<path id="path4295" opacity="0.95" fill="#BF172B" stroke="#757575" stroke-linecap="round" stroke-linejoin="round" stroke-miterlimit="10" d="
			M660.345,442.604c-0.115,0.583-0.402,1.203-0.009,1.741c0.651,1.931,0.972,3.962,1.563,5.91c0.692,0.217,0.64,0.994,0.862,1.564
			c0.183,0.793,0.441,1.594,1.105,2.122c0.67,0.475,0.385,1.5-0.214,1.911c-0.418,0.503-1.332,0.997-1.817,0.329
			c-0.668-0.657-1.437-1.341-2.37-1.532c-1.13-0.131-2.142,0.526-3.108,1.017c-1.408,1.068-2.153,2.781-2.836,4.366
			c-1.526,4.001-0.168,8.266,0.356,12.318c-0.607,0.08-0.39-0.873-0.618-1.267c-0.958,0-2.055,0.202-3.059,0.33
			c0.623,1.063,1.626,3.135,1.047,3.986c-0.535,0.004-1.186,0.165-1.164-0.581c-0.053-0.616-0.521-0.871-1.038-0.508
			c-0.59,0.196-1.18,0.395-1.766,0.59c0.808,1.741,1.617,3.485,2.425,5.229c-0.551,0.361-1.19,0.57-1.743,0.932
			c-0.59-0.875-1.746,0.821-2.515,1.036c-0.827,0.31-2.144,1.916-2.813,1.084c-0.378-1.206-1.43,0.384-2.159,0.551
			c-3.134,1.918-6.476,3.616-9.173,6.146c-2.471,2.505-2.699,6.188-4.189,9.231c0.792,3.596,1.064,7.274,1.614,10.909
			c0.336,0.806-0.609,0.279-1.044,0.279c-0.473,0.063-0.958-0.736-1.313-0.299c-0.468-0.025-0.888,0.163-1.369,0.188
			c-0.686,0.048-1.021-0.769-1.702-0.684c-2.555-0.349-5.133-0.457-7.699-0.682c-0.381,0.508,0.081,0.993,0.251,1.489
			c1.226,1.98,2.558,3.896,3.911,5.788c2.24,2.816,4.534,5.601,6.47,8.64c1.493,2.188,2.895,4.447,4.425,6.606
			c0.708,0.813,0.914,1.963,1.437,2.903c3.209,7.218,6.374,14.458,9.709,21.617c1.223,1.121,2.446,2.24,3.67,3.363
			c1.66-1.766,3.319-3.526,4.98-5.292c-0.107-0.729,0.675-0.999,1.058-1.493c1.119-1.088,2.079-2.357,3.433-3.167
			c0.838-1.043,1.197,0.055,1.644,0.873c4.765,7.919,11.63,14.216,17.643,21.149c0.599,0.085,1.199,0.169,1.8,0.25
			c1.772-5.551,3.156-11.228,5.131-16.702c0.562-0.857,0.923-1.885,1.819-2.462c1.27-1.195,2.734-2.155,4.304-2.908
			c0.893-0.594,2.104-0.27,2.938-1.01c15.614-8.955,30.492-19.151,46.238-27.889c0.601-0.67,1.158-1.408,2.005-1.787
			c5.193-3.199,10.427-6.345,15.603-9.58c1.548-1.021,3.063-2.111,4.628-3.093c1.19-0.246,2.09-1.141,3.135-1.709
			c2.771-1.771,5.553-3.53,8.399-5.183c5.085-3.069,9.596-6.975,13.907-11.034c2.242-2.222,4.034-4.839,6.056-7.255
			c3.046-3.73,5.375-8.064,6.518-12.762c-0.074-1.034,0.675-0.995,1.452-0.928c0.716,0.104,1.343,0.607,2.021,0.871
			c0.327,0.45,0.767,0.688,1.33,0.696c0.442-0.055,1.276,0.51,1.415-0.016c0.281-0.896,0.425-1.821,0.522-2.753
			c0.664-1.748,1.238-3.548,2.295-5.109c0.833-1.428,1.667-2.854,2.721-4.131c3.004-3.792,6.275-7.373,9.447-11.032
			c6.798-7.696,13.73-15.271,20.541-22.962c-0.696-0.662-1.575-1.174-2.189-1.898c-0.235-0.473-0.673,0.875-0.981-0.092
			c-0.638-0.7-1.374-1.345-1.95-2.076c-0.407-1.415-0.869-2.845-0.852-4.334c-0.54-1.201-1.343-2.29-2.499-2.951
			c-0.762-0.568-1.681-0.915-2.381-1.55c-0.448-0.416-0.942-0.274-1.392-0.471c-0.672-0.32-1.079-0.94-1.732-1.3
			c-0.944-0.7-2.159-0.932-3.095-1.671c-0.869-0.473-1.618-1.102-2.355-1.755c-1.073-0.727-2.148-1.458-3.222-2.188
			c-0.313-1.208-0.625-2.41-0.938-3.609c-1.323,0.784-2.155,2.134-3.241,3.198c-0.694,0.737-1.419,1.454-1.839,2.396
			c-0.479,1.003-0.483,2.172-0.753,3.245c0.11,0.556,0.7,0.64,1.194,0.677c0.814,0.111,1.637,0.395,2.434,0.039
			c0.508-0.048,1.073-0.429,1.546-0.259c0.755,0.246-0.329,0.699-0.69,0.773c-0.533,0.073-0.918,0.666-1.403,0.718
			c-0.444,0.272-0.782,0.235-1.189,0.473c-0.642-0.002-1.428-0.074-1.933,0.333c-0.494,1.504-0.916,3.047-1.456,4.527
			c-0.335,0.605-0.928-0.126-1.348-0.28c-1.644-0.978-3.341-1.875-4.967-2.863c-0.529-0.169-0.895-0.648-1.441-0.81
			c-1.447-0.783-2.825-1.73-4.327-2.409c-3.977-1.463-7.549-4.306-11.907-4.523c-2.026,0.248-4.051,0.503-6.077,0.735
			c-2.212-1.022-4.724-0.824-7.067-1.231c-0.639-0.453-1.13,0.353-1.668,0.464c-0.657-0.103-1.345,0.339-1.979,0.287
			c-0.594-0.218-0.191-1.367-0.971-1.35c-0.492-0.118-0.631-0.845-1.169-0.978c-0.514-0.101-0.866-0.562-1.348-0.645
			c-0.568-0.119-1.236,0.081-1.667-0.407c-1.356-0.172-2.162-1.482-3.42-1.911c-1.435-0.618-3.147-0.62-4.258-1.876
			c-0.444-0.407,0.462-1.004,0.632-1.497c0.748-1.144,1.506-2.284,2.25-3.428c-0.599-0.394-1.199-0.787-1.802-1.181
			c-1.411,2.135-2.821,4.272-4.231,6.41c0.712,0.4,0.744,0.503-0.072,0.229c-0.794-0.259-1.667-0.335-2.359-0.851
			c-1.001,0.315-1.996,0.735-3.006,0.983c-3.096-0.418-6.176-0.934-9.249-1.482c-1.733,0.873-3.418,1.872-5.188,2.667
			c-2.248,0.779-4.506,1.541-6.763,2.312c-0.577,2.305-1.149,4.619-1.315,6.998c-0.098,0.79-0.313,1.639-0.962,2.157
			c-2.253,2.414-4.569,4.786-6.782,7.231c-0.921,2.046-1.84,4.092-2.767,6.143c-3.427,0.648-6.857,1.38-10.29,1.979
			c-0.792-0.011-1.362-0.616-1.97-1.045c-1.058-2.159-2.042-4.36-3.152-6.486c-1.556-2.107-3.193-4.164-4.697-6.305
			c-0.494-1.18-1.256-2.222-2.218-3.064c-0.342-0.673-0.905-0.209-0.895,0.383c-0.026,0.717-0.131,1.406-0.522,2.022
			c-0.436,1.117-1.75,1.521-2.566,2.186c-1.428,0.276-2.802,0.886-4.247,1.147c-2.351,0.496-4.695,1.341-7.133,1.109
			c-0.893,0.037-1.846-0.169-2.44-0.884c-0.222-0.39-0.912-0.677-1.084-0.108c-0.329,0.877,0.526,1.822-0.013,2.662
			c-0.442,1.1-1.617,1.574-2.63,2.021c-0.679,0.273-1.339,0.696-2.026,0.879c-0.979-0.213-1.752-0.944-2.641-1.387
			c-0.799-0.48-1.658-0.879-2.218-1.658c-0.395-0.398-1.188-0.246-1.23,0.39c0.514,1.033,1.742,2.103,1.709,3.504
			c0.235,1.021-0.094,2.228,0.664,3.057c0.516,0.62,0.731,1.415,0.59,2.207c0.124,1.424-1.24,2.269-1.706,3.489
			c-0.14,0.603,0.315,1.282-0.035,1.885c-0.253,0.919-0.893,1.613-1.459,2.347c-0.315,1.135-1.203,2.035-1.373,3.227
			c-0.374,1.428-1.04,2.973-0.372,4.418c0.14,0.586,0.344,1.036,0.988,0.651C659.666,442.525,660.015,442.596,660.345,442.604z"/>
		
			<path id="path4293" sodipodi:nodetypes="cccccccccccccccccccccccccccccccccccccccccccccccccccccccccccccccccccccccccccccccccccccscccccc" opacity="0.9" fill="#EE3D3D" stroke="#757575" stroke-linecap="round" stroke-linejoin="round" stroke-miterlimit="10" d="
			M651.51,552.444c-0.386,0.494-1.158,0.765-1.058,1.493c-1.661,1.766-3.32,3.526-4.98,5.292c-1.224-1.123-2.447-2.242-3.67-3.363
			c-2.312,10.68-4.031,21.467-5.85,32.24c0.697,0.535,0.751,1.49,1.121,2.237c-0.104,0.808-0.211,1.619-0.313,2.427
			c-1.497,0.09-2.978-0.215-4.464-0.246c-1.654,0.405-2.896,1.729-4.311,2.614c-3.938,3.163-7.733,6.548-10.892,10.517
			c5.542,0.091,11.081,0.197,16.619,0.372c0.013,11.038-0.016,22.074-0.251,33.108c4.038-0.018,8.074-0.09,12.114-0.189
			c0.472,0.063,1.308-0.257,1.099,0.514c0.074,2.03,0.152,4.057,0.229,6.086c3.949-2.258,7.858-4.589,11.822-6.805
			c3.353-1.672,6.615-3.511,9.931-5.244c3.938-2.329,7.799-4.791,11.809-7.002c1.704-0.94,3.356-1.968,5.023-2.98
			c0.329,0.368,0.517,1.132,1.119,0.747c1.221-0.392,2.083-1.41,3.117-2.125c2.12-1.617,4.173-3.328,6.332-4.889
			c3.28-2.059,6.563-4.12,9.843-6.18c-0.006-0.496-0.358-1.145,0.292-1.36c1.783-1.456,4.014-2.157,6.084-3.104
			c1.67-0.67,3.271-1.51,4.954-2.124c2.131-0.538,4.364-0.852,6.524-0.27c3.604,0.824,6.976,3.012,8.785,6.293
			c3.208,5.559,4.527,11.935,5.938,18.121c0.742,3.282,1.309,6.617,2.338,9.828c0.448-0.229,0.81-0.616,1.337-0.723
			c1.245-0.63,1.826-2.016,2.797-2.961c0.694-0.709,1.313-1.55,2.046-2.186c0.954-0.237,1.99-0.353,2.897-0.67
			c0.507-0.396-0.007-1.038-0.02-1.563c-0.218-0.992-0.438-1.982-0.657-2.976c0.686-0.663,1.369-1.327,2.053-1.996
			c-0.411-0.415,0.333-0.903,0.455-1.357c1.064-1.94,2.438-3.69,3.72-5.492c0.673-0.836,1.193-1.812,2.051-2.479
			c1.125,0.524,2.307,0.903,3.482,1.306c-0.004,0.638,0.735,0.59,1.165,0.836c1.247,0.551,2.65,0.799,3.722,1.681
			c0.978,0.764,1.898,1.604,2.899,2.338c1.6,1.195,3.37,2.142,5.035,3.234c1.393-3.091,2.784-6.184,4.049-9.336
			c0.735-0.429,0.923-1.36,1.395-2.026c0.873-1.509,1.67-3.089,2.593-4.552c0.524-0.315,1.032-0.645,1.282-1.226
			c3.411-5.282,6.842-10.555,10.305-15.805c1.197-2.136,2.366-4.286,3.363-6.521c1.141-2.377,2.101-4.83,2.897-7.343
			c0.803-2.194,1.323-4.471,1.872-6.736c4.692-17.653,7.119-36.617,7.239-55.914c0.085-2.312-0.021-4.626-0.211-6.925
			c-0.242-1.941-0.124-3.907-0.183-5.855c0.037-1.887-0.111-3.768-0.186-5.648c0.416-0.222,0.053-0.99,0.152-1.428
			c-0.124-5.953-0.322-11.904-0.324-17.858c0.016-0.851,0.033-1.704,0.048-2.56c-0.313-0.11-0.309-1.066,0-1.18
			c0.081-1.517,0.024-3.054,0.368-4.547c0.99,0.174,0.331-1.748,0.716-2.396c1.069-7.391,3.762-14.732,8.686-20.439
			c-0.189-0.534-0.438-1.135-0.832-0.361c-2.257,2.592-4.597,5.11-6.793,7.753c-1.441,1.837-2.945,3.64-4.068,5.699
			c-0.742,1.223-1.502,2.438-1.959,3.803c-0.375,1.047-0.91,2.057-0.897,3.193c-0.108,0.615-0.305,1.21-0.448,1.819
			c-0.716-0.163-1.5-0.196-2.179-0.436c-0.572-0.729-1.526-0.925-2.303-1.369c-0.462,0.096-1.217-0.204-1.485,0.161
			c-0.624,1.851-1.136,3.744-1.839,5.558c-0.896,1.708-1.569,3.546-2.767,5.078c-1.724,2.46-3.631,4.789-5.485,7.157
			c-2.729,3.465-6.188,6.229-9.543,9.06c-3.259,2.703-6.878,4.908-10.522,7.042c-2.453,1.527-4.873,3.119-7.335,4.612
			c-1.135,0.213-1.946,1.102-2.917,1.663c-3.56,2.483-7.34,4.63-11.019,6.929c-2.647,1.637-5.331,3.224-7.947,4.893
			c-0.595,0.655-1.124,1.394-2.001,1.698c-15.672,8.73-30.441,18.959-46.047,27.797c-0.896,0.17-1.821,0.248-2.59,0.792
			c-1.622,0.751-3.013,1.879-4.336,3.063c-0.666,0.605-0.965,1.514-1.477,2.245c-1.871,5.459-3.309,11.051-5.041,16.554
			c-0.601-0.081-1.201-0.165-1.8-0.25c-6.378-7.341-13.707-14.015-18.489-22.591c-1.036,0.733-2.12,1.42-2.943,2.414
			C652.367,551.563,651.938,552.003,651.51,552.444z"/>
		
			<path id="path4287" sodipodi:nodetypes="cccccccccccccccccccccccccccccccccccccccccccccccccccccccccccccccccccccccccccccccccccccccccccccccccccccccccccccccccccccccccccccccccsccccccccscccc" opacity="0.95" fill="#BF172B" stroke="#757575" stroke-linecap="round" stroke-linejoin="round" stroke-miterlimit="10" d="
			M729.487,724.147c1.332-3.571,0.052-7.388,0.468-11.07c0.331-3.721,1.713-7.255,2.138-10.945
			c-0.113-6.314,0.468-12.723-0.855-18.95c-0.129-1.452-1.195-2.646-1.502-3.96c0-1.269,0-2.535,0-3.805
			c1.713-3.439,4.414-6.373,5.604-10.061c0.538-1.975-0.305-3.884-0.683-5.79c-0.103-0.601-0.313-1.187-0.145-1.831
			c0.728-1.043,1.169-2.244,1.883-3.289c-0.346-0.156-0.032-0.829-0.378-1.19c-0.297-0.627-0.66-1.245-0.804-1.924
			c-1.176-0.388-2.521-0.719-3.217-1.84c-0.597-0.507-0.316-1.373-0.581-2.042c-0.17-1.35-0.893-2.522-1.367-3.772
			c-0.471-0.315-0.388-1.008,0.207-1.104c0.511-0.379,1.09-0.553,1.724-0.576c1.001-0.416,1.824-1.287,2.951-1.324
			c0.779-0.146,1.592-0.188,2.318-0.507c0.684-0.061,1.339-0.241,1.881-0.679c0.59-0.305,1.052-0.818,1.685-1.036
			c-1.589-5.223-2.344-10.653-3.761-15.923c-1.309-4.833-2.699-9.856-5.811-13.884c-2.453-2.928-6.272-4.628-10.067-4.752
			c-1.497-0.002-2.999,0.32-4.434,0.745c-2.743,1.267-5.558,2.377-8.293,3.661c-0.991,0.404-1.813,1.088-2.676,1.711
			c0.007,0.492,0.375,1.164-0.305,1.327c-3.321,2.107-6.681,4.158-9.979,6.3c-2.62,2.037-5.236,4.099-7.859,6.125
			c-0.471,0.303-0.967,0.54-1.524,0.623c-0.319-0.351-0.539-1.204-1.058-0.605c-3.918,2.449-8.039,4.573-11.948,7.04
			c-2.308,1.408-4.608,2.836-7.024,4.053c-2.696,1.428-5.376,2.899-8.102,4.269c-3.691,2.136-7.379,4.275-11.071,6.404
			c-0.085-2.198-0.165-4.397-0.245-6.6c-3.703,0.015-7.399,0.187-11.102,0.172c-0.699,0.004-1.397,0.013-2.095,0.018
			c0.235-11.034,0.264-22.07,0.251-33.108c-5.566-0.166-11.139-0.31-16.7-0.353c-0.912,0.234-1.815,0.52-2.769,0.413
			c-6.352-0.009-12.705-0.25-19.06-0.27c-2.55-0.02-5.099-0.035-7.649-0.042c0.372,6.911-0.403,13.829,0.057,20.738
			c-0.244,13.705-0.081,27.416-0.244,41.125c-1.206,0.174-2.508,0.289-3.459,1.134c-0.444,0.331-0.971,0.692-1.534,0.634
			c-2.214-1.134-4.43-2.26-6.646-3.387c-0.621,0.433-1.243,0.87-1.866,1.308c1.452,1.718,2.904,3.441,4.356,5.163
			c0.81,0,1.621,0,2.429,0c0.094,0.462,0.49,1.023,0.42,1.409c0.085,0.472,0.479,1.051,0.684,1.564
			c0.207,0.662,0.669,1.143,1.197,1.572c-6.996,7.002-13.979,14.022-20.971,21.031c-0.749,0.416-1.482,0.859-2.014,1.55
			c-1.815,1.874-3.552,3.824-5.555,5.507c-0.605,0.49-1.149,1.137-1.791,1.532c-8.289-0.121-16.581-0.202-24.867-0.374
			c0,4.336,0,8.672,0,13.011c4.354,0.025,8.709,0.089,13.066,0.185c-0.27,13.172-0.424,26.346-0.374,39.519
			c4.231,0.033,8.463,0.194,12.694,0.248c-0.309,0.579-0.62,1.163-0.932,1.742c0.308,0.705,0.816,1.357,0.997,2.101
			c0.109,6.332,0.044,12.662,0.062,18.996c0.948-0.014,1.896-0.024,2.843-0.037c-0.016-4.286-0.031-8.567-0.046-12.854
			c4.329-0.03,8.659-0.063,12.988-0.09c-0.032,3.381-0.065,6.762-0.098,10.142c-3.187-0.046-6.371-0.089-9.559-0.13
			c-0.057,1.016-0.11,2.028-0.167,3.045c3.291,0.043,6.58,0.085,9.869,0.126c-0.013,0.836-0.024,1.668-0.035,2.501
			c-5.565-0.009-11.132,0.065-16.695,0.007c-1.794-0.053-3.59-0.104-5.386-0.159c0.018,1.059,0.042,2.116,0.06,3.174
			c2.908,0.189,5.813,0.477,8.72,0.604c2.645-0.205,5.305-0.325,7.938-0.584c3.762-1.025,7.522-2.046,11.286-3.066
			c-0.106-1.64-0.209-3.281-0.311-4.916c-0.438-0.045-1.271,0.377-1.435,0.018c-0.042-2.643-0.081-5.282-0.122-7.921
			c0.324-0.677,0.59-1.433,1.424-1.624c2.427-1.017,5.282-1.251,7.786-0.37c3.056,1.846,7.106,1.987,9.522,4.854
			c0,1.389,0,2.779,0,4.171c0.401-0.133,1.251,0.167,1.368-0.233c-0.015-2.188,0.031-4.388-0.021-6.569
			c-0.065-0.45-0.612-1.284,0.222-1.017c0.593-0.055,1.073,0.002,0.852,0.721c-0.018,2.349-0.037,4.69-0.057,7.035
			c1.147,0.211,1.341-0.441,1.066-1.528c0-2.15-0.361-4.68,1.241-6.389c1.687-1.543,4.14-1.403,6.251-1.687
			c5.871-1.374,11.935-3.152,18.01-2.063c1.485,0.271,2.941,0.735,4.302,1.397c0.252,1.589,0.065,3.213,0.122,4.816
			c0,1.572,0,3.142,0,4.704c0.411-0.076,1.338,0.384,1.114-0.361c-0.039-2.719-0.078-5.441-0.117-8.162c0.559,0,1.118,0,1.68,0
			c0.096,0.988,0.29,1.982,0.009,2.962c-0.398,1.693-0.222,3.436-0.261,5.161c-0.214,0.505,1.127,0.696,0.813,0.039
			c0.022-1.247,0.044-2.496,0.062-3.744c0.492-0.472,0.792-1.056,0.944-1.717c0.179-0.545,0.268-1.18-0.011-1.702
			c0.402-0.688,1.232-0.974,1.959-1.195c6.38-1.853,13.248-3.313,19.832-1.75c0.483,0.235,0.903,0.521,0.949,1.097
			c0.233,0.547,0.756,0.99,0.586,1.635c-0.016,1.211-0.033,2.419-0.053,3.633c0.329,0.508,0.832,0.446,1.187,0
			c0.039-2.016-0.009-4.049,0.096-6.053c0.388-0.536,0.23-1.172,0.211-1.787c7.134-2.214,14.734-5.891,22.384-4.484
			c0.56,0.264,1.125,0.531,1.396,1.128c0.503,0.385,0.15,0.927,0.061,1.425c-0.331,1.37-0.666,2.739-1.001,4.108
			c0.494,0.376,0.921,0.594,0.934-0.218c0.479-1.672,0.956-3.34,1.433-5.009c0.411-0.322,0.721-0.91,1.323-0.745l11.404,0.003
			c1.83,0.039-0.501,9.793,1.321,9.558c0.265-1.63-0.56-6.256,1.908-6.308c1.378,0.133,13.039,5.305,14.415,5.354
			c1.313-0.268,1.066,4.573,2.354,4.256c0.46-0.189-0.1-6.629,0.395-6.213l2.712-0.069c1.141-0.2-0.176,5.211,0.979,4.91
			c1.635-0.27,10.481-1.536,12.153-1.474l3.729-3.282l-2.517-4.072c-0.117-2.175-1.732-5.616-1.894-6.243
			c-0.177-5.181-0.301-10.37-0.51-15.549c-0.716-2.575-1.484-5.142-2.159-7.719c-0.128-0.677,0.788-0.548,1.213-0.688
			c0.576-0.186,1.316-0.062,1.773-0.473c0.76-1.114,0.094-2.466,0.076-3.677c-0.015-1.961,0.351-3.904,1.104-5.714
			C729.275,724.729,729.383,724.438,729.487,724.147z"/>
	</g>
	<text transform="matrix(1 0 0 1 386.835 456.1514)"><tspan x="0" y="0" fill="#FFFFFF" font-family="'ArialMT'" font-size="20.6744">Sarri - </tspan><tspan x="-25.863" y="24.81" fill="#FFFFFF" font-family="'ArialMT'" font-size="20.6744">Sant Gervasi </tspan></text>
	<text transform="matrix(1 0 0 1 287.3979 570.4346)" fill="#FFFFFF" font-family="'ArialMT'" font-size="20.6744">Les Corts</text>
	<text transform="matrix(1 0 0 1 675.6064 474.6563)" fill="#FFFFFF" font-family="'ArialMT'" font-size="20.6744">Nou Barris</text>
	<text transform="matrix(1 0 0 1 553.1807 434.8379)"><tspan x="0" y="0" fill="#FFFFFF" font-family="'ArialMT'" font-size="20.6744">Horta - </tspan><tspan x="-8.062" y="24.81" fill="#FFFFFF" font-family="'ArialMT'" font-size="20.6744">Guinard</tspan></text>
	<text transform="matrix(1 0 0 1 730.3633 555.248)"><tspan x="0" y="0" fill="#FFFFFF" font-family="'ArialMT'" font-size="20.6744">Sant </tspan><tspan x="-9.196" y="24.81" fill="#FFFFFF" font-family="'ArialMT'" font-size="20.6744">Andreu</tspan></text>
	<text transform="matrix(1 0 0 1 480.4526 584.3711)" fill="#FFFFFF" font-family="'ArialMT'" font-size="20.6744">Grcia</text>
	<text transform="matrix(1 0 0 1 245.4995 747.8438)" fill="#FFFFFF" font-family="'ArialMT'" font-size="20.6744">Sants - Montjuc</text>
	<text transform="matrix(1 0 0 1 435.6416 654.2266)" font-family="'ArialMT'" font-size="20.6744">Eixample</text>
	<text transform="matrix(1 0 0 1 451.1509 719.8291)"><tspan x="0" y="0" fill="#FFFFFF" font-family="'ArialMT'" font-size="20.6744">Ciutat</tspan><tspan x="4.018" y="24.81" fill="#FFFFFF" font-family="'ArialMT'" font-size="20.6744">Vella</tspan></text>
	<text transform="matrix(1 0 0 1 603.4639 710.9131)" fill="#FFFFFF" font-family="'ArialMT'" font-size="20.6744">Sant Mart</text>
</g>
<g>
	<path fill="none" stroke="#757575" stroke-miterlimit="10" d="M483.489,809.199c0,29.311,19.842,53.027,44.362,53.027"/>
	<polygon fill="#757575" points="519.159,868.232 538.309,861.922 520.909,853.732 524.507,861.921 	"/>
</g>
<text transform="matrix(1 0 0 1 535.4346 853.7324)"><tspan x="0" y="0" font-family="'ArialMT'" font-size="23">La tasa de Ciutat Vella</tspan><tspan x="5.109" y="27.6" font-family="'ArialMT'" font-size="23">es de 186 incidencias</tspan></text>
<g>
	<g opacity="0.7">
		<line fill="#F27475" stroke="#757575" stroke-miterlimit="10" x1="225.352" y1="136.222" x2="225.352" y2="116.772"/>
		<rect x="17.001" y="116.772" fill="#F27475" stroke="#FFFFFF" stroke-miterlimit="10" width="208.351" height="28.83"/>
	</g>
	<g opacity="0.9">
		<line fill="#EE3D3D" stroke="#757575" stroke-miterlimit="10" x1="433.703" y1="136.222" x2="433.703" y2="116.772"/>
		<rect x="225.352" y="116.772" fill="#EE3D3D" stroke="#FFFFFF" stroke-miterlimit="10" width="208.351" height="28.83"/>
	</g>
	<g opacity="0.95">
		<line fill="#BF172B" stroke="#757575" stroke-miterlimit="10" x1="642.055" y1="136.222" x2="642.055" y2="116.772"/>
		<rect x="433.703" y="116.772" fill="#BF172B" stroke="#FFFFFF" stroke-miterlimit="10" width="208.352" height="28.83"/>
	</g>
	<g>
		<line fill="#891926" stroke="#757575" stroke-miterlimit="10" x1="850.402" y1="136.222" x2="850.402" y2="116.772"/>
		<rect x="642.055" y="116.772" fill="#891926" stroke="#FFFFFF" stroke-miterlimit="10" width="208.348" height="28.83"/>
	</g>
</g>
<text transform="matrix(1 0 0 1 50.4609 139.7588)" fill="#FFFFFF" font-family="'ArialMT'" font-size="21">Menos de 100</text>
<text transform="matrix(1 0 0 1 266.4761 140.7588)" fill="#FFFFFF" font-family="'ArialMT'" font-size="21">De 100 a 120</text>
<text transform="matrix(1 0 0 1 475.2583 139.7588)" fill="#FFFFFF" font-family="'ArialMT'" font-size="21">De 120 a 140</text>
<text transform="matrix(1 0 0 1 688.084 140.7588)" fill="#FFFFFF" font-family="'ArialMT'" font-size="21">Ms de 140</text>
<polygon fill="#002F64" points="879.747,929.388 1086.949,929.388 1086.949,960.865 879.747,960.865 879.747,929.388 "/>
<path fill="#FFFFFF" d="M1045.978,936.416h-7.942v0.995l2.086,0.491v14.661c-0.271,0.362-0.714,0.737-1.459,0.737
	c-1.39,0-2.185-1.178-2.575-1.892l-1.987-3.552c-0.812-1.51-1.732-2.223-3.626-2.441v-0.244c2.655-0.065,5.016-1.955,5.016-4.52
	c0-3.048-2.771-4.236-5.976-4.236h-7.21v0.995l2.348,0.494v14.85h-0.006l-2.708,0.521l-6.746-18.407
	c-0.812,0.964-1.674,1.688-2.433,2.078l0.256,0.743l-6.159,15.085l-1.86,0.501v0.994h5.604v-0.994l-1.834-0.479l2.081-5.493h5.714
	l2.007,5.455l-2.152,0.518v0.994h13.667v-0.994l-2.302-0.487v-6.914c1.554,0.101,2.295,0.809,3.044,2.238l2.707,4.835
	c0.905,1.569,2.27,2.383,3.922,2.383c1.276,0,2.301-0.767,2.57-1.061h6.119c5.205,0,9.426-3.996,9.426-8.928
	C1055.567,940.135,1051.538,936.416,1045.978,936.416L1045.978,936.416z M1011.311,945.91l2.416-6.34l2.323,6.34H1011.311
	L1011.311,945.91z M1028.996,944.568c-0.279,0-0.858-0.002-1.217-0.01v-6.653h1.525c1.913,0,3.191,1.429,3.124,3.189
	C1032.362,942.856,1031.098,944.568,1028.996,944.568L1028.996,944.568z M1045.795,952.796h-2.548v-14.887h2.615
	c4.052,0,6.542,2.803,6.542,7.443C1052.404,949.927,1049.813,952.796,1045.795,952.796L1045.795,952.796z"/>
<path fill="#FFFFFF" d="M915.663,952.794l-6.598-17.926c-0.811,0.964-1.673,1.688-2.433,2.078l0.256,0.743l-6.158,15.085
	l-1.314,0.501l-0.394,0.994h5.452v-0.994l-1.836-0.479l2.082-5.493h5.715l2.004,5.455l-2.151,0.518v0.994h7.33v-0.994
	L915.663,952.794L915.663,952.794z M905.185,945.91l2.416-6.34l2.324,6.34H905.185L905.185,945.91z"/>
<polygon fill="#FFFFFF" points="899.938,949.74 899.271,949.37 895.412,952.886 892.115,952.886 892.115,937.915 894.097,937.411 
	894.097,936.416 886.989,936.416 886.989,937.411 888.989,937.919 888.989,952.768 886.989,953.275 886.989,954.27 898.163,954.27 
	899.938,949.74 "/>
<polygon fill="#FFFFFF" points="930.96,936.416 930.96,937.411 933.105,937.914 928.438,949.863 923.528,937.894 925.844,937.411 
	925.844,936.416 917.913,936.416 917.913,937.411 920.179,937.906 927.229,954.893 927.989,954.893 935.011,937.933 
	935.074,937.933 937.269,937.411 937.269,936.416 930.96,936.416 "/>
<path fill="#FFFFFF" d="M1001.359,936.416v0.995l2.135,0.502c0,0,0.162,8.846,0.08,11.087c-0.092,2.613-2.124,4.363-4.808,4.363
	c-2.753,0-4.728-1.633-4.808-4.586v-10.899l2.073-0.467v-0.995h-7.174v0.995l2.036,0.482v10.975
	c0.136,3.771,3.177,6.248,7.096,6.248c3.918,0,6.961-2.289,7.096-6.248l0.139-10.955l2.095-0.502v-0.995H1001.359L1001.359,936.416z
	"/>
<path fill="#FFFFFF" d="M1078.931,952.756l-6.568-17.888c-0.811,0.964-1.674,1.688-2.433,2.078l0.256,0.743l-6.172,15.157
	l-1.051,0.429l-1.42-0.451v-14.917l2.188-0.496v-0.995h-7.472v0.995l2.158,0.511v14.866l-2.073,0.487v0.994h11.426v-0.994
	l-1.838-0.479l2.085-5.493h5.716l2.005,5.455l-2.152,0.518v0.994h7.331v-0.994L1078.931,952.756L1078.931,952.756z M1068.482,945.91
	l2.415-6.34l2.325,6.34H1068.482L1068.482,945.91z"/>
<path fill="#FFFFFF" d="M963.003,936.416v0.995l2.18,0.51l0.134,11.68l-11.189-13.185h-4.777v0.996l2.162,0.478l0.184,0.095
	l-0.16,14.771h-0.005l-2.202,0.521l-6.75-18.407c-0.812,0.964-1.674,1.688-2.433,2.078l0.255,0.743l-6.159,15.085l-1.86,0.501v0.994
	h5.604v-0.994l-1.834-0.479l2.082-5.493h5.713l2.007,5.455l-2.152,0.518v0.994h11.74v-0.994l-2.301-0.503l-0.14-12.918
	l12.787,15.038h0.848l0.171-16.986l2.166-0.495v-0.995H963.003L963.003,936.416z M938.697,945.91l2.416-6.34l2.323,6.34H938.697
	L938.697,945.91z"/>
<path fill="#FFFFFF" d="M981.794,945.145v0.995l2.016,0.506v5.752c-0.956,0.792-2.536,1.344-4.036,1.344
	c-4.059,0-6.654-3.419-6.654-8.153c0-4.596,2.551-8.518,6.712-8.518c2.705,0,5.101,1.892,5.977,4.861l0.576-0.339v-5.643
	l-0.514-0.285l-1.085,1.37c-1.143-0.619-3.095-1.256-4.944-1.256c-5.514,0-10.017,4.487-10.017,9.836
	c0,5.563,3.932,9.522,9.255,9.522c2.176,0,4.181-0.671,5.759-1.916l1.575,1.048h0.511v-7.664l1.686-0.641v-0.82H981.794
	L981.794,945.145z"/>
<text transform="matrix(1 0 0 1 21.1172 957.8652)" fill="#757575" font-family="'ArialMT'" font-size="22">Fuente: Ajuntament de Barcelona</text>
</svg>
