<svg id="Capa_1" data-name="Capa 1" xmlns="http://www.w3.org/2000/svg" xmlns:xlink="http://www.w3.org/1999/xlink" viewBox="0 0 632.15 571.74"><defs><style>.cls-1,.cls-11,.cls-27{fill:none;}.cls-2{clip-path:url(#clip-path);}.cls-3{font-size:28px;}.cls-25,.cls-29,.cls-3,.cls-41,.cls-5{fill:#323232;}.cls-29,.cls-3{font-family:Arial-BoldMT, Arial;font-weight:700;}.cls-4{letter-spacing:-0.07em;}.cls-5{font-size:21px;}.cls-25,.cls-26,.cls-39,.cls-41,.cls-42,.cls-5{font-family:ArialMT, Arial;}.cls-6{letter-spacing:-0.05em;}.cls-7{clip-path:url(#clip-path-2);}.cls-8{opacity:0.65;}.cls-9{clip-path:url(#clip-path-3);}.cls-10{fill:#ee3d3d;}.cls-11{stroke:#fff;}.cls-11,.cls-27{stroke-miterlimit:10;}.cls-12{clip-path:url(#clip-path-4);}.cls-13{clip-path:url(#clip-path-5);}.cls-14{opacity:0.4;}.cls-15{clip-path:url(#clip-path-6);}.cls-16{fill:#f27475;}.cls-17{fill:#891926;}.cls-18{opacity:0.85;}.cls-19{clip-path:url(#clip-path-7);}.cls-20{fill:#bf172b;}.cls-21{clip-path:url(#clip-path-8);}.cls-22{clip-path:url(#clip-path-9);}.cls-23{clip-path:url(#clip-path-10);}.cls-24{clip-path:url(#clip-path-11);}.cls-25,.cls-26{font-size:20px;}.cls-26,.cls-38,.cls-42{fill:#fff;}.cls-27{stroke:#757575;}.cls-28,.cls-39{fill:#757575;}.cls-29{font-size:23px;}.cls-30{letter-spacing:-0.05em;}.cls-31{letter-spacing:0em;}.cls-32{clip-path:url(#clip-path-13);}.cls-33{clip-path:url(#clip-path-14);}.cls-34{clip-path:url(#clip-path-16);}.cls-35{clip-path:url(#clip-path-18);}.cls-36{clip-path:url(#clip-path-20);}.cls-37{fill:#002f64;}.cls-39{font-size:17px;}.cls-40{letter-spacing:-0.06em;}.cls-41,.cls-42{font-size:18px;}</style><clipPath id="clip-path" transform="translate(-7.6 -5.26)"><rect class="cls-1" x="3.73" y="3.42" width="636.27" height="574.46"/></clipPath><clipPath id="clip-path-2" transform="translate(-7.6 -5.26)"><polygon class="cls-1" points="3.73 3.42 640 3.42 645 567.3 8.73 567.3 3.73 3.42"/></clipPath><clipPath id="clip-path-3" transform="translate(-7.6 -5.26)"><rect class="cls-1" x="140.59" y="100.03" width="151.33" height="258.97"/></clipPath><clipPath id="clip-path-4" transform="translate(-7.6 -5.26)"><rect class="cls-1" x="44.9" y="345.33" width="216.86" height="174.07"/></clipPath><clipPath id="clip-path-5" transform="translate(-7.6 -5.26)"><rect class="cls-1" x="149.69" y="255.53" width="98.32" height="104.04"/></clipPath><clipPath id="clip-path-6" transform="translate(-7.6 -5.26)"><rect class="cls-1" x="217.46" y="346.09" width="127.71" height="80.43"/></clipPath><clipPath id="clip-path-7" transform="translate(-7.6 -5.26)"><rect class="cls-1" x="271.9" y="205.4" width="132.19" height="150.18"/></clipPath><clipPath id="clip-path-8" transform="translate(-7.6 -5.26)"><rect class="cls-1" x="273.88" y="257.43" width="51.6" height="109.56"/></clipPath><clipPath id="clip-path-9" transform="translate(-7.6 -5.26)"><rect class="cls-1" x="360.73" y="230.09" width="130.15" height="105.46"/></clipPath><clipPath id="clip-path-10" transform="translate(-7.6 -5.26)"><rect class="cls-1" x="361.38" y="262.29" width="117.48" height="116.38"/></clipPath><clipPath id="clip-path-11" transform="translate(-7.6 -5.26)"><rect class="cls-1" x="309.81" y="353.71" width="124.35" height="107.7"/></clipPath><clipPath id="clip-path-13" transform="translate(-7.6 -5.26)"><polygon class="cls-1" points="0 0 640 0 640 581 0 580 0 0"/></clipPath><clipPath id="clip-path-14" transform="translate(-7.6 -5.26)"><polyline class="cls-1" points="162.9 67.8 12.09 67.8 12.09 93.93 162.9 93.93"/></clipPath><clipPath id="clip-path-16" transform="translate(-7.6 -5.26)"><polyline class="cls-1" points="162.18 93.93 312.99 93.93 312.99 67.8 162.18 67.8"/></clipPath><clipPath id="clip-path-18" transform="translate(-7.6 -5.26)"><rect class="cls-1" x="312.27" y="67.8" width="150.81" height="26.13"/></clipPath><clipPath id="clip-path-20" transform="translate(-7.6 -5.26)"><polygon class="cls-1" points="3.73 3.42 640 3.42 643.07 589.08 4.11 584.58 3.73 3.42"/></clipPath></defs><title>Tasa de incidencias</title><g class="cls-2"><text class="cls-3" transform="translate(0 24.02)"><tspan class="cls-4">T</tspan><tspan x="15.03" y="0">asa de incidencias por cada 1.000 habitantes</tspan></text><text class="cls-5" transform="translate(4.9 47.27)">Incidencias presentadas en el<tspan class="cls-6" x="277.85" y="0"> </tspan><tspan x="282.57" y="0">Ajuntament de Barcelona </tspan></text><g class="cls-7"><g class="cls-8"><g class="cls-9"><path class="cls-10" d="M184.94,185.35c.09-.7.9-.92,1.34-1.39.92-.9,1.37.12,2,.83a2.06,2.06,0,0,0,3.53-.76,19.22,19.22,0,0,1,.75-3.89,5.59,5.59,0,0,0,1-1.43c.34-.45.17-1,.11-1.51.51-.48,1.44-.54,1.53-1.36-.21-.43-.82-.77-1.18-1.16-1.24-.7.81-1.86.36-3-.16-1.58,1.71-2.31,2.67-3.26.55-.25,1.1-.65.84-1.34a16.57,16.57,0,0,1-.57-4,7.17,7.17,0,0,1,.54-2.31,1.74,1.74,0,0,1,1.26.58A8.19,8.19,0,0,0,202,165c.57.17.72,1,1.36.92a13,13,0,0,0,3.21,1.62c1.21,1.07,2-.4,2.93-.94a4.23,4.23,0,0,0,1.12-1c.37.12.94.81,1.23.33-.58-.94-1.6-1.64-2.12-2.67-.93-1.61-1.33-3.61-2.68-4.94a9.19,9.19,0,0,0-2.29-1.83c-.44-.54-.72-1.27-1.49-1.39-1.41-.36-1.94-1.92-2.66-3-.84-.86-.73-1.5.26-2,.67-.45,1.14-1.3,2-1.31a10.83,10.83,0,0,1,1.25-1,20.63,20.63,0,0,0,1.89-1.23c1.66.46,3.39.73,5,1.33,1.21.52,2.41,1.09,3.62,1.63a18.62,18.62,0,0,1,.12-3.32c0-1.3-.82-2.47-.76-3.79a5.41,5.41,0,0,0-.6-2.47c-.46-2.05,1.28-3.7,1.39-5.69.42-1.52.58-3.15,1.53-4.46a28.08,28.08,0,0,1,1.81-2.88,5.65,5.65,0,0,1,2.23-1.53c1.12-.43,2.23-1,3.36-1.32a17.21,17.21,0,0,1,4,.52c.89.06-.42.49-.68.73l-4.12,2.46c-.17.57-.23,1.1.45,1.32a17.17,17.17,0,0,0,3.35,1.65c.27.79-.4,1.4-.68,2.09-.34.51-.49,1.22-1,1.62-.89.58-2,.87-2.66,1.76-.24.78-.47,1.79.31,2.35.62.6,1.39,1.09,1.61,2s0,1.65.14,2.47a4,4,0,0,0,1.24,2.57,23.87,23.87,0,0,1,1.92,2.57c.21,1-.83,1.76-1.64,2.19-.58.61,0,1.51.36,2.07s1,.53,1.19-.15.84-1.15,1.52-.88a2,2,0,0,1,2.81.56c.25.61,0,1.49-.77,1.54s-1.15.92-1.43,1.56c.36,1.15,3,1.07,2.32,2.72-.58.32-1.55-.06-1.91.65-.2.93.31,1.86.43,2.79a14.88,14.88,0,0,1,.51,2.68.74.74,0,0,0,.23,1.22,4.89,4.89,0,0,1,1.66,2.11c.29.4.63.86.34,1.35-.1.68-.33,1.45.16,2a6.69,6.69,0,0,0,2.22-.13,17.35,17.35,0,0,0,1.68-.48c.79.93.06,3.19,1.28,3.42.86.23,1.4-.52,2.11-.13.25.48.91-.14,1.37.23.47.13,1,.72,1.42.54.65-.3,1.24-1,2-.77a11.24,11.24,0,0,0,1.5-.46,15.12,15.12,0,0,0,2.27-.12,33.87,33.87,0,0,0,3.71-1.27c.81-.08,1.58-.38,2.26.2.46.38,1,.19,1.39.64a6.55,6.55,0,0,1,1.33,1.48,3.38,3.38,0,0,0,0,2.3c.27.6.08,1.31.5,1.85a14.49,14.49,0,0,1,.74,2.54c.07.59-.51.77-.93,1s-1.24.56-1.37,1.26c-.3.57-.48,1.23-.81,1.76,1,.45,1.39,1.81,1.82,2.84.22.57.76,1.15.65,1.78-.4,1-.22,2-.55,3-.17.5-.42.94-.12,1.45-.07.53.44.76.53,1.25s-.26,1.24.23,1.52a6.54,6.54,0,0,0,2,.51c1.05.52,2.18.94,3.19,1.51.42.38.48.81.83,1.24a12.81,12.81,0,0,0,3.57,3.63,18.41,18.41,0,0,1,2.09,2.54c.69,1.13,1.32,2.32,2.06,3.42.54.37,1,1,1.59,1.17.53-.25,1.33-.05,1.35.63.13.48,0,1.21.65,1.28,1.32.54.91,2.54,1.69,3.59.92.82.48,2,0,2.88a3.25,3.25,0,0,0-.34,2.93c.12.56.36,1.06.44,1.61a2.8,2.8,0,0,0,1.15,1.62,12.89,12.89,0,0,1,1.43,3.28c.29.85.47,1.83,1.33,2.31a7.63,7.63,0,0,0,1.75,1.26c.59,0,.36.84,0,1.07-1.36.69-2.87,1.08-4.28,1.65s-1.9,1.93-2.92,2.78c-.93.27-.91,1.42-1.39,2.11-.67,1-.29,2.24-.78,3.3-.17.54-.69,1.15-1.3.8-.78-.45-.24.5-.21.91.27.28.32,1.05.51,1.53.69,2.38,1.27,4.79,2,7.14.79,2.13,1.19,4.38,1.8,6.57l1,4c.38.56.39-.46.44-.87.25-.88-.34-1.79,0-2.64.37-.4,1.1,0,1.42-.51a2.38,2.38,0,0,0-.13-2.05c0-.56.83-.71,1.26-.43s1.13,0,1.26.64c.34.44,1.26-.14,1.39.53-.16.51-.47,1.07-.11,1.58-.07,1.12,1.17.55,1.62,1-.2.67-1.17.83-1.44,1.49a5.14,5.14,0,0,0-.83,2.25,12.94,12.94,0,0,0,1.13,1.54,19.16,19.16,0,0,1,2.24.74,26.43,26.43,0,0,1,1.07,3.17,6.55,6.55,0,0,1,.57,2.89c-.06,2.25-.34,4.48-.53,6.72a11.91,11.91,0,0,0-1.78,1.14c-.11,1.34-.32,2.71-.36,4a3.39,3.39,0,0,1,.43,2c0,2.84-.05,5.69-.13,8.53.05.83-.14,1.79.58,2.41,1.65,2.38,3.6,4.53,5.3,6.86.72.91.16,2.11-.08,3.09a10.13,10.13,0,0,0-1.14,2.88c-.88,3.24-1.9,6.54-1.67,9.94-.73-.2-.9.21-1.24.44,0,.09,0,.92.23,1,.05.92.14.18.43,0,.76-.15.44.68.45,1.13-.12,1,.19,2.3-.75,3-1.21.46-1.51,1.86-2.16,2.85a2.08,2.08,0,0,1-1.62,1.46,6,6,0,0,0-2.21,1.14c-.62,1.51-.92,3.14-1.41,4.7a3.54,3.54,0,0,1-1.08,2.24c-.52.65-1.59,1-1.49,2-.86,4.84-1.22,9.75-2.12,14.58a14.68,14.68,0,0,1-1.31,3.5c-8.11-4.08-16.26-8.09-24.39-12.14a1.06,1.06,0,0,1-1.27.76c-.49-.31-.94-.65-.83-1.29s-.77-.66-1.16-1q-5.82-3-11.63-6c-1.42-2.63-3.19-5-4.79-7.56-2-3-4-6.09-6.1-9.06a3.51,3.51,0,0,0-2.08-1.56c-4.56-2.16-9-4.47-13.58-6.67-1.64-1.21-3.79-1.34-5.64-2.13.81-1.6,1.6-3.4,1-5.21-.4-1.85-2-3.3-1.93-5.27,3.45.09,7.13-2.6,7.06-6.26-.11-2.13-2-3.69-2.07-5.82-.4-2.26-.72-4.53-1-6.81a5.72,5.72,0,0,0-2.5-.08,9.52,9.52,0,0,1-4-.37c-.67-.42-1.77-.82-1.59-1.79a2.34,2.34,0,0,1,.37-1.66,4.7,4.7,0,0,0,.72-2c.52-.31.44-.9.4-1.41.14-.71.74-.9.88-1.73.12-.63.72-.73.78-1.3s-.35-1.14.07-1.63c0-.75.39-1.57-.07-2.24a1.35,1.35,0,0,1,.25-1.27,3.75,3.75,0,0,0,0-1.44,2.72,2.72,0,0,0-.58-1.73,1.75,1.75,0,0,0-.36-1.34c0-.45.18-.95-.31-1.3-1-1.24-1.1-3.05-2.2-4.23-1.18-.6.06-.75.59-1.14,1-.57,1.7-1.56,2.87-1.75a5.79,5.79,0,0,0,3.91-2.93,4.12,4.12,0,0,0,.64-1.75,15,15,0,0,0-1-2.64,1.14,1.14,0,0,1-.19-1.44c.52-1.05,1.59-1.69,2.22-2.68.49-.54.2-1.43.84-1.88a2.73,2.73,0,0,0,1-1.69,12.13,12.13,0,0,1,1-3c-1.65-2.05-1.36-5.25-3.59-6.9-1.07-.54-2,.52-3.12.51a5.42,5.42,0,0,1-1.79-.2c-.72-.44-1.59-.71-2-1.54-1.7-2.36-2.77-5.38-5.44-6.87-1.74-2.93-4.25-5.55-4.92-9,.06-1.4.15-3-1.14-4a2.67,2.67,0,0,0-1.67-.88,28.7,28.7,0,0,0-3.85,0,22.4,22.4,0,0,0-5.51.52c-.06.73-.84.29-1.31.3-1.17-.2-2.31-.55-3.45-.8-.64.45-1.39-.16-2,.11a9.16,9.16,0,0,1-2.24,2.23c-1.27.81-2.85.49-4.27.7a4.63,4.63,0,0,1-2.95-.23,1.47,1.47,0,0,1-1.77-.58c-1-2-2.14-4.42-4.58-4.82-1,.11-.17-1-.37-1.58a11.78,11.78,0,0,0-.18-2.31,10.67,10.67,0,0,1-1.65-1l-.52-2a30.89,30.89,0,0,0,1.16-9.79l1-1.59a1.64,1.64,0,0,1,1.48.55c1,.55,1.77,1.4,2.69,2a2.7,2.7,0,0,0,2-.31c.79-1.76,1.47-3.84,3.43-4.62,1.2-.66,2.43-1.11,3.07.42,1,1.65,2.95,1,4.5,1.25s3.68.85,4,2.74c.13.74-.26,1.68.68.9.72-1.08,3.14.72,3-.65q-.16-1.14-.32-2.28l7.26-1.14m-1.3-9.66a30.44,30.44,0,0,1-4.35.27L171,177.89,167,176.33c.65-.37,1.45-.54,1.81-1.26a16.61,16.61,0,0,0,1.94-3c.71-.73,1.8-.66,2.72-1a2.44,2.44,0,0,1,1.79,0c1.38.33,2.76.75,4.14,1a15.59,15.59,0,0,0,4.11-1c.68-.42.18.76.28,1.13q-.1,1.69-.19,3.39m-1.12-14.81c-2.13-1.06-4.2-2.25-6.36-3.23-.64-.26-1.4-.21-1.85-.81-1.11-1.08-2.12-2.29-3.25-3.32l-1.87-.62-1.63,4a48.42,48.42,0,0,1-5.11,3.36l-1.83,1.09c-4.22-1.79-8.39-3.68-12.57-5.56.28,1.54.75,3.26-.15,4.7.21.84-.45.61-1,.51l-6-.87,3.25-14.78a14.16,14.16,0,0,0,5-.66c1.45-.35,2.93-.59,4.37-1,1.66-1.34,3.35-2.66,5.07-3.91.41-.64.42-1.47,1-2a6.42,6.42,0,0,1,1.22-2.19,5.36,5.36,0,0,0,1.2-1.94c.36-.88,1.48-.93,1.89-1.77a5.17,5.17,0,0,0,.29-3.92c-.29-.73-1.16-1.74-.44-2.5.46-.46-1-.56-.81-1a6.83,6.83,0,0,0,.63-3.39,1.29,1.29,0,0,1-.37-1.32q-.05-1,1-.8a4.41,4.41,0,0,1,3.15.79,44.57,44.57,0,0,0,6.74,2.75c1.18.18,2.41.68,3.58.4,1-.46,1.47-1.54,2.38-2.13,1.21-1.17,3-1.52,4.19-2.64,2.19-2.25,4-4.83,6-7.24s3.81-4.81,5.8-7.14l3.34-3.17c1.48,1.34,2.86,2.79,4.41,4,0,.55-.8.54-1.06,1a19.1,19.1,0,0,0-3,2.76c-.24.63-.81,1.14-.88,1.82.28.68,1.13.92,1.71,1.3l3.49,1.48c-1.2,1.78-2.33,3.63-3.58,5.36-.83.24.21.7.43,1.07,1,1.06,2.22,1.8,3,3l4.83,6c-2.44,1.5-4.86,3.07-7.33,4.52a2,2,0,0,1-1.38,1.05,13.93,13.93,0,0,1-3.16,1.2c-2,.18-2.37,2.22-3.32,3.57-.4.54.41,1.14.58,1.7l2.26,4.14-3.61,8.92-10.19,7.48" transform="translate(-7.6 -5.26)"/><path class="cls-11" d="M184.94,185.35c.09-.7.9-.92,1.34-1.39.92-.9,1.37.12,2,.83a2.06,2.06,0,0,0,3.53-.76,19.22,19.22,0,0,1,.75-3.89,5.59,5.59,0,0,0,1-1.43c.34-.45.17-1,.11-1.51.51-.48,1.44-.54,1.53-1.36-.21-.43-.82-.77-1.18-1.16-1.24-.7.81-1.86.36-3-.16-1.58,1.71-2.31,2.67-3.26.55-.25,1.1-.65.84-1.34a16.57,16.57,0,0,1-.57-4,7.17,7.17,0,0,1,.54-2.31,1.74,1.74,0,0,1,1.26.58A8.19,8.19,0,0,0,202,165c.57.17.72,1,1.36.92a13,13,0,0,0,3.21,1.62c1.21,1.07,2-.4,2.93-.94a4.23,4.23,0,0,0,1.12-1c.37.12.94.81,1.23.33-.58-.94-1.6-1.64-2.12-2.67-.93-1.61-1.33-3.61-2.68-4.94a9.19,9.19,0,0,0-2.29-1.83c-.44-.54-.72-1.27-1.49-1.39-1.41-.36-1.94-1.92-2.66-3-.84-.86-.73-1.5.26-2,.67-.45,1.14-1.3,2-1.31a10.83,10.83,0,0,1,1.25-1,20.63,20.63,0,0,0,1.89-1.23c1.66.46,3.39.73,5,1.33,1.21.52,2.41,1.09,3.62,1.63a18.62,18.62,0,0,1,.12-3.32c0-1.3-.82-2.47-.76-3.79a5.41,5.41,0,0,0-.6-2.47c-.46-2.05,1.28-3.7,1.39-5.69.42-1.52.58-3.15,1.53-4.46a28.08,28.08,0,0,1,1.81-2.88,5.65,5.65,0,0,1,2.23-1.53c1.12-.43,2.23-1,3.36-1.32a17.21,17.21,0,0,1,4,.52c.89.06-.42.49-.68.73l-4.12,2.46c-.17.57-.23,1.1.45,1.32a17.17,17.17,0,0,0,3.35,1.65c.27.79-.4,1.4-.68,2.09-.34.51-.49,1.22-1,1.62-.89.58-2,.87-2.66,1.76-.24.78-.47,1.79.31,2.35.62.6,1.39,1.09,1.61,2s0,1.65.14,2.47a4,4,0,0,0,1.24,2.57,23.87,23.87,0,0,1,1.92,2.57c.21,1-.83,1.76-1.64,2.19-.58.61,0,1.51.36,2.07s1,.53,1.19-.15.84-1.15,1.52-.88a2,2,0,0,1,2.81.56c.25.61,0,1.49-.77,1.54s-1.15.92-1.43,1.56c.36,1.15,3,1.07,2.32,2.72-.58.32-1.55-.06-1.91.65-.2.93.31,1.86.43,2.79a14.88,14.88,0,0,1,.51,2.68.74.74,0,0,0,.23,1.22,4.89,4.89,0,0,1,1.66,2.11c.29.4.63.86.34,1.35-.1.68-.33,1.45.16,2a6.69,6.69,0,0,0,2.22-.13,17.35,17.35,0,0,0,1.68-.48c.79.93.06,3.19,1.28,3.42.86.23,1.4-.52,2.11-.13.25.48.91-.14,1.37.23.47.13,1,.72,1.42.54.65-.3,1.24-1,2-.77a11.24,11.24,0,0,0,1.5-.46,15.12,15.12,0,0,0,2.27-.12,33.87,33.87,0,0,0,3.71-1.27c.81-.08,1.58-.38,2.26.2.46.38,1,.19,1.39.64a6.55,6.55,0,0,1,1.33,1.48,3.38,3.38,0,0,0,0,2.3c.27.6.08,1.31.5,1.85a14.49,14.49,0,0,1,.74,2.54c.07.59-.51.77-.93,1s-1.24.56-1.37,1.26c-.3.57-.48,1.23-.81,1.76,1,.45,1.39,1.81,1.82,2.84.22.57.76,1.15.65,1.78-.4,1-.22,2-.55,3-.17.5-.42.94-.12,1.45-.07.53.44.76.53,1.25s-.26,1.24.23,1.52a6.54,6.54,0,0,0,2,.51c1.05.52,2.18.94,3.19,1.51.42.38.48.81.83,1.24a12.81,12.81,0,0,0,3.57,3.63,18.41,18.41,0,0,1,2.09,2.54c.69,1.13,1.32,2.32,2.06,3.42.54.37,1,1,1.59,1.17.53-.25,1.33-.05,1.35.63.13.48,0,1.21.65,1.28,1.32.54.91,2.54,1.69,3.59.92.82.48,2,0,2.88a3.25,3.25,0,0,0-.34,2.93c.12.56.36,1.06.44,1.61a2.8,2.8,0,0,0,1.15,1.62,12.89,12.89,0,0,1,1.43,3.28c.29.85.47,1.83,1.33,2.31a7.63,7.63,0,0,0,1.75,1.26c.59,0,.36.84,0,1.07-1.36.69-2.87,1.08-4.28,1.65s-1.9,1.93-2.92,2.78c-.93.27-.91,1.42-1.39,2.11-.67,1-.29,2.24-.78,3.3-.17.54-.69,1.15-1.3.8-.78-.45-.24.5-.21.91.27.28.32,1.05.51,1.53.69,2.38,1.27,4.79,2,7.14.79,2.13,1.19,4.38,1.8,6.57l1,4c.38.56.39-.46.44-.87.25-.88-.34-1.79,0-2.64.37-.4,1.1,0,1.42-.51a2.38,2.38,0,0,0-.13-2.05c0-.56.83-.71,1.26-.43s1.13,0,1.26.64c.34.44,1.26-.14,1.39.53-.16.51-.47,1.07-.11,1.58-.07,1.12,1.17.55,1.62,1-.2.67-1.17.83-1.44,1.49a5.14,5.14,0,0,0-.83,2.25,12.94,12.94,0,0,0,1.13,1.54,19.16,19.16,0,0,1,2.24.74,26.43,26.43,0,0,1,1.07,3.17,6.55,6.55,0,0,1,.57,2.89c-.06,2.25-.34,4.48-.53,6.72a11.91,11.91,0,0,0-1.78,1.14c-.11,1.34-.32,2.71-.36,4a3.39,3.39,0,0,1,.43,2c0,2.84-.05,5.69-.13,8.53.05.83-.14,1.79.58,2.41,1.65,2.38,3.6,4.53,5.3,6.86.72.91.16,2.11-.08,3.09a10.13,10.13,0,0,0-1.14,2.88c-.88,3.24-1.9,6.54-1.67,9.94-.73-.2-.9.21-1.24.44,0,.09,0,.92.23,1,.05.92.14.18.43,0,.76-.15.44.68.45,1.13-.12,1,.19,2.3-.75,3-1.21.46-1.51,1.86-2.16,2.85a2.08,2.08,0,0,1-1.62,1.46,6,6,0,0,0-2.21,1.14c-.62,1.51-.92,3.14-1.41,4.7a3.54,3.54,0,0,1-1.08,2.24c-.52.65-1.59,1-1.49,2-.86,4.84-1.22,9.75-2.12,14.58a14.68,14.68,0,0,1-1.31,3.5c-8.11-4.08-16.26-8.09-24.39-12.14a1.06,1.06,0,0,1-1.27.76c-.49-.31-.94-.65-.83-1.29s-.77-.66-1.16-1q-5.82-3-11.63-6c-1.42-2.63-3.19-5-4.79-7.56-2-3-4-6.09-6.1-9.06a3.51,3.51,0,0,0-2.08-1.56c-4.56-2.16-9-4.47-13.58-6.67-1.64-1.21-3.79-1.34-5.64-2.13.81-1.6,1.6-3.4,1-5.21-.4-1.85-2-3.3-1.93-5.27,3.45.09,7.13-2.6,7.06-6.26-.11-2.13-2-3.69-2.07-5.82-.4-2.26-.72-4.53-1-6.81a5.72,5.72,0,0,0-2.5-.08,9.52,9.52,0,0,1-4-.37c-.67-.42-1.77-.82-1.59-1.79a2.34,2.34,0,0,1,.37-1.66,4.7,4.7,0,0,0,.72-2c.52-.31.44-.9.4-1.41.14-.71.74-.9.88-1.73.12-.63.72-.73.78-1.3s-.35-1.14.07-1.63c0-.75.39-1.57-.07-2.24a1.35,1.35,0,0,1,.25-1.27,3.75,3.75,0,0,0,0-1.44,2.72,2.72,0,0,0-.58-1.73,1.75,1.75,0,0,0-.36-1.34c0-.45.18-.95-.31-1.3-1-1.24-1.1-3.05-2.2-4.23-1.18-.6.06-.75.59-1.14,1-.57,1.7-1.56,2.87-1.75a5.79,5.79,0,0,0,3.91-2.93,4.12,4.12,0,0,0,.64-1.75,15,15,0,0,0-1-2.64,1.14,1.14,0,0,1-.19-1.44c.52-1.05,1.59-1.69,2.22-2.68.49-.54.2-1.43.84-1.88a2.73,2.73,0,0,0,1-1.69,12.13,12.13,0,0,1,1-3c-1.65-2.05-1.36-5.25-3.59-6.9-1.07-.54-2,.52-3.12.51a5.42,5.42,0,0,1-1.79-.2c-.72-.44-1.59-.71-2-1.54-1.7-2.36-2.77-5.38-5.44-6.87-1.74-2.93-4.25-5.55-4.92-9,.06-1.4.15-3-1.14-4a2.67,2.67,0,0,0-1.67-.88,28.7,28.7,0,0,0-3.85,0,22.4,22.4,0,0,0-5.51.52c-.06.73-.84.29-1.31.3-1.17-.2-2.31-.55-3.45-.8-.64.45-1.39-.16-2,.11a9.16,9.16,0,0,1-2.24,2.23c-1.27.81-2.85.49-4.27.7a4.63,4.63,0,0,1-2.95-.23,1.47,1.47,0,0,1-1.77-.58c-1-2-2.14-4.42-4.58-4.82-1,.11-.17-1-.37-1.58a11.78,11.78,0,0,0-.18-2.31,10.67,10.67,0,0,1-1.65-1l-.52-2a30.89,30.89,0,0,0,1.16-9.79l1-1.59a1.64,1.64,0,0,1,1.48.55c1,.55,1.77,1.4,2.69,2a2.7,2.7,0,0,0,2-.31c.79-1.76,1.47-3.84,3.43-4.62,1.2-.66,2.43-1.11,3.07.42,1,1.65,2.95,1,4.5,1.25s3.68.85,4,2.74c.13.74-.26,1.68.68.9.72-1.08,3.14.72,3-.65q-.16-1.14-.32-2.28Zm-1.3-9.66a30.44,30.44,0,0,1-4.35.27L171,177.89,167,176.33c.65-.37,1.45-.54,1.81-1.26a16.61,16.61,0,0,0,1.94-3c.71-.73,1.8-.66,2.72-1a2.44,2.44,0,0,1,1.79,0c1.38.33,2.76.75,4.14,1a15.59,15.59,0,0,0,4.11-1c.68-.42.18.76.28,1.13Q183.74,174,183.64,175.68Zm-1.12-14.81c-2.13-1.06-4.2-2.25-6.36-3.23-.64-.26-1.4-.21-1.85-.81-1.11-1.08-2.12-2.29-3.25-3.32l-1.87-.62-1.63,4a48.42,48.42,0,0,1-5.11,3.36l-1.83,1.09c-4.22-1.79-8.39-3.68-12.57-5.56.28,1.54.75,3.26-.15,4.7.21.84-.45.61-1,.51l-6-.87,3.25-14.78a14.16,14.16,0,0,0,5-.66c1.45-.35,2.93-.59,4.37-1,1.66-1.34,3.35-2.66,5.07-3.91.41-.64.42-1.47,1-2a6.42,6.42,0,0,1,1.22-2.19,5.36,5.36,0,0,0,1.2-1.94c.36-.88,1.48-.93,1.89-1.77a5.17,5.17,0,0,0,.29-3.92c-.29-.73-1.16-1.74-.44-2.5.46-.46-1-.56-.81-1a6.83,6.83,0,0,0,.63-3.39,1.29,1.29,0,0,1-.37-1.32q-.05-1,1-.8a4.41,4.41,0,0,1,3.15.79,44.57,44.57,0,0,0,6.74,2.75c1.18.18,2.41.68,3.58.4,1-.46,1.47-1.54,2.38-2.13,1.21-1.17,3-1.52,4.19-2.64,2.19-2.25,4-4.83,6-7.24s3.81-4.81,5.8-7.14l3.34-3.17c1.48,1.34,2.86,2.79,4.41,4,0,.55-.8.54-1.06,1a19.1,19.1,0,0,0-3,2.76c-.24.63-.81,1.14-.88,1.82.28.68,1.13.92,1.71,1.3l3.49,1.48c-1.2,1.78-2.33,3.63-3.58,5.36-.83.24.21.7.43,1.07,1,1.06,2.22,1.8,3,3l4.83,6c-2.44,1.5-4.86,3.07-7.33,4.52a2,2,0,0,1-1.38,1.05,13.93,13.93,0,0,1-3.16,1.2c-2,.18-2.37,2.22-3.32,3.57-.4.54.41,1.14.58,1.7l2.26,4.14-3.61,8.92Z" transform="translate(-7.6 -5.26)"/></g></g><g class="cls-8"><g class="cls-12"><path class="cls-10" d="M173.35,347.62l-1.59-1.81c-.33.53-.14,1.22-.16,1.81.2,1.14.56,2.26.65,3.41-.08.49,0,1.07-.35,1.3-.23.48-.13,1-.33,1.42s-.56,1-.33,1.61a24.06,24.06,0,0,1,.49,5.61,8.7,8.7,0,0,1,.16,1.82c.15.61-.09.89,0,1.28.38,1.21.31,2.51.84,3.67a2.29,2.29,0,0,1,.26,1.38c.32.25.11.92.21,1.35a18.46,18.46,0,0,0-.38,3.13,17.15,17.15,0,0,1-1.22,4.59c.3.37-.48.82-.54,1.27a33.87,33.87,0,0,1-2.21,4.11,11,11,0,0,1-2.28,4.9,14.46,14.46,0,0,0-2.06,4.78c-.07,2.5,0,5-.06,7.52-2.76.31-5.57-.3-8.32.18-1.4.55-2.37,1.8-3.51,2.73-1.52,1.35-2.77,3-4.53,4.08a10.22,10.22,0,0,1-2.49,1.32,4.17,4.17,0,0,1-1.92-.54c-.55,2-1,4-1.59,6a32.3,32.3,0,0,0-1.29,3.12,23.09,23.09,0,0,0-.73,2.63c.72,0,.15.77.15,1.2l-.8,3.49c-.46.25-.25,1-.42,1.43a46.32,46.32,0,0,0-.48,4.86,20.58,20.58,0,0,1-3.62-1l-1.44-.48.47-1.73L130,426.92l-.22,1.62-2.06-.43a1.18,1.18,0,0,0-.76-1.19,12.43,12.43,0,0,1-3.39-.13,19.51,19.51,0,0,0-3.36-.34c.35-.59-1-.37-.82-.84.35-.42-.83-.72-.92-.42l-1.44-.58c.2-.47-.72-.44-.19-1.11,0-.38.62-1.22.08-1.26l-4-.44-.58,1.77a16.59,16.59,0,0,1-3.78-1c-12.19-4.72-24.36-9.49-36.56-14.19-2.54-1-5.12-1.83-7.63-2.83A26.75,26.75,0,0,0,60.55,404c-2.45-.92-5-1.68-7.39-2.65a10.27,10.27,0,0,0-2.94-1.08l-1.85-.45c3.3,16.08,2.14,30.87-3.18,46.46.42,2.24.78,4.5,1.23,6.72,1.53,3.27,3,6.57,4.57,9.83,2.4,4.27,4.83,8.52,7.36,12.72a70.78,70.78,0,0,0,4.22,6c1.33,1.73,2.61,3.51,4,5.2,5.08,4.62,10.21,9.2,15.27,13.85l15.82,18.48c2.18-.35,4.38-.62,6.54-1,4.54-2.53,9-5.12,13.6-7.61.58.1.57-1.17,1-.56l7.83,8,41.74-20.57,1.28,1.84-6.5-9.87.76-2.89a8.59,8.59,0,0,1-2.71-1.7c-1-.91-1.94-1.92-3-2.76l-4.51-1.24-6.83,2.6c-.25-.45-.43-1.1-1-.64l-32.51,11.58-2.57-6.32c2.67-.89,5.18-2.18,7.77-3.27l1.51-.66-2.38-7.33,5.6-2,7.37,6.86,24.42-19.73,1.19,1.34-1.7,1.34c.26.63.6.68,1,.15.39-.23.84-.81,1.19-.83.13.44.89,1,.26,1.29l-1.17,1.06c.48.45.52.83-.12,1.12l-2.3,1.81c.33.4.95.82.21,1.14l-3.39,2.94a12.64,12.64,0,0,0,3.64,1.25l21,3.16c.46-.47.38-1.24.61-1.84l.8-3.29c.55.37.9.27,1-.4.31-.7.43-1.51.77-2.18l2.47-2.15,1.63.39-4.33,19.8c.44,0,1.18.46,1.41.13L184,468.33l2.89.58c-.16,1.17-.65,2.33-.41,3.51l1.35,12.82-1.59.58c0,.71.81,0,1.22,0,7.47-2.47,15-4.85,22.4-7.47l5.65-2q-.27-5-.54-10l5.2-2,3.87,11.49,6.76-2.38L228.39,465l12.25-3.29,2.72,8.86a22.35,22.35,0,0,0,3.17-1c1-.36,2-.69,3-1,.31-.44-.2-1-.26-1.44-.24-.33-.14-1.37-.71-1.05-.64.48-.66-.32-.85-.77l-2.38-6.78c.4-.16,1.36-.12.67-.65-.39-.41.59-.66.8-1L257.56,448c.17.65.61.71,1.18.48s-.13-.93-.12-1.34a1.52,1.52,0,0,1,0-1.33c-.25-1.08-.52-2.15-.76-3.23l3.47-.83a32.05,32.05,0,0,0-1.5-2.89c-3.55-3.94-6.34-8.62-10.55-11.93-3.07-3.61-6.65-6.75-9.91-10.18q-10.23-10.26-20.49-20.49c-1.91-4.89-.73-10.2-1-15.29.23-3.93-.17-7.88.28-11.81,3.63-3.33,7.32-6.6,10.95-9.94-1.36-.44-2.8-.15-4.2-.32a39,39,0,0,1-5.45-.45,30.62,30.62,0,0,1-6.67-1.69c-3-1-6-2.11-9-3.28a30.48,30.48,0,0,0-6.85-2.69c-4.17-1-8.46-1.38-12.69-2.08-3.61-.48-7.25-.77-10.87-1.12" transform="translate(-7.6 -5.26)"/><path class="cls-11" d="M173.35,347.62l-1.59-1.81c-.33.53-.14,1.22-.16,1.81.2,1.14.56,2.26.65,3.41-.08.49,0,1.07-.35,1.3-.23.48-.13,1-.33,1.42s-.56,1-.33,1.61a24.06,24.06,0,0,1,.49,5.61,8.7,8.7,0,0,1,.16,1.82c.15.61-.09.89,0,1.28.38,1.21.31,2.51.84,3.67a2.29,2.29,0,0,1,.26,1.38c.32.25.11.92.21,1.35a18.46,18.46,0,0,0-.38,3.13,17.15,17.15,0,0,1-1.22,4.59c.3.37-.48.82-.54,1.27a33.87,33.87,0,0,1-2.21,4.11,11,11,0,0,1-2.28,4.9,14.46,14.46,0,0,0-2.06,4.78c-.07,2.5,0,5-.06,7.52-2.76.31-5.57-.3-8.32.18-1.4.55-2.37,1.8-3.51,2.73-1.52,1.35-2.77,3-4.53,4.08a10.22,10.22,0,0,1-2.49,1.32,4.17,4.17,0,0,1-1.92-.54c-.55,2-1,4-1.59,6a32.3,32.3,0,0,0-1.29,3.12,23.09,23.09,0,0,0-.73,2.63c.72,0,.15.77.15,1.2l-.8,3.49c-.46.25-.25,1-.42,1.43a46.32,46.32,0,0,0-.48,4.86,20.58,20.58,0,0,1-3.62-1l-1.44-.48.47-1.73L130,426.92l-.22,1.62-2.06-.43a1.18,1.18,0,0,0-.76-1.19,12.43,12.43,0,0,1-3.39-.13,19.51,19.51,0,0,0-3.36-.34c.35-.59-1-.37-.82-.84.35-.42-.83-.72-.92-.42l-1.44-.58c.2-.47-.72-.44-.19-1.11,0-.38.62-1.22.08-1.26l-4-.44-.58,1.77a16.59,16.59,0,0,1-3.78-1c-12.19-4.72-24.36-9.49-36.56-14.19-2.54-1-5.12-1.83-7.63-2.83A26.75,26.75,0,0,0,60.55,404c-2.45-.92-5-1.68-7.39-2.65a10.27,10.27,0,0,0-2.94-1.08l-1.85-.45c3.3,16.08,2.14,30.87-3.18,46.46.42,2.24.78,4.5,1.23,6.72,1.53,3.27,3,6.57,4.57,9.83,2.4,4.27,4.83,8.52,7.36,12.72a70.78,70.78,0,0,0,4.22,6c1.33,1.73,2.61,3.51,4,5.2,5.08,4.62,10.21,9.2,15.27,13.85l15.82,18.48c2.18-.35,4.38-.62,6.54-1,4.54-2.53,9-5.12,13.6-7.61.58.1.57-1.17,1-.56l7.83,8,41.74-20.57,1.28,1.84-6.5-9.87.76-2.89a8.59,8.59,0,0,1-2.71-1.7c-1-.91-1.94-1.92-3-2.76l-4.51-1.24-6.83,2.6c-.25-.45-.43-1.1-1-.64l-32.51,11.58-2.57-6.32c2.67-.89,5.18-2.18,7.77-3.27l1.51-.66-2.38-7.33,5.6-2,7.37,6.86,24.42-19.73,1.19,1.34-1.7,1.34c.26.63.6.68,1,.15.39-.23.84-.81,1.19-.83.13.44.89,1,.26,1.29l-1.17,1.06c.48.45.52.83-.12,1.12l-2.3,1.81c.33.4.95.82.21,1.14l-3.39,2.94a12.64,12.64,0,0,0,3.64,1.25l21,3.16c.46-.47.38-1.24.61-1.84l.8-3.29c.55.37.9.27,1-.4.31-.7.43-1.51.77-2.18l2.47-2.15,1.63.39-4.33,19.8c.44,0,1.18.46,1.41.13L184,468.33l2.89.58c-.16,1.17-.65,2.33-.41,3.51l1.35,12.82-1.59.58c0,.71.81,0,1.22,0,7.47-2.47,15-4.85,22.4-7.47l5.65-2q-.27-5-.54-10l5.2-2,3.87,11.49,6.76-2.38L228.39,465l12.25-3.29,2.72,8.86a22.35,22.35,0,0,0,3.17-1c1-.36,2-.69,3-1,.31-.44-.2-1-.26-1.44-.24-.33-.14-1.37-.71-1.05-.64.48-.66-.32-.85-.77l-2.38-6.78c.4-.16,1.36-.12.67-.65-.39-.41.59-.66.8-1L257.56,448c.17.65.61.71,1.18.48s-.13-.93-.12-1.34a1.52,1.52,0,0,1,0-1.33c-.25-1.08-.52-2.15-.76-3.23l3.47-.83a32.05,32.05,0,0,0-1.5-2.89c-3.55-3.94-6.34-8.62-10.55-11.93-3.07-3.61-6.65-6.75-9.91-10.18q-10.23-10.26-20.49-20.49c-1.91-4.89-.73-10.2-1-15.29.23-3.93-.17-7.88.28-11.81,3.63-3.33,7.32-6.6,10.95-9.94-1.36-.44-2.8-.15-4.2-.32a39,39,0,0,1-5.45-.45,30.62,30.62,0,0,1-6.67-1.69c-3-1-6-2.11-9-3.28a30.48,30.48,0,0,0-6.85-2.69c-4.17-1-8.46-1.38-12.69-2.08C180.6,348.27,177,348,173.35,347.62Z" transform="translate(-7.6 -5.26)"/></g></g><g class="cls-8"><g class="cls-13"><path class="cls-10" d="M176.49,262.79a3.27,3.27,0,0,0-1.12.12,4.45,4.45,0,0,1-2.41.92c-.24.08-.51.09-.73.18a14.08,14.08,0,0,0-1.16,1.42c-.28.5.21,1,.39,1.43a3.47,3.47,0,0,1,.28,2.2,10.18,10.18,0,0,0-.44,2.2,1.57,1.57,0,0,1-.28.83,11.78,11.78,0,0,0-1.48,1.45c-.36.29-.51.77-.8,1.12a2.19,2.19,0,0,0-.88.71c-.43.47-.68,1.07-1.06,1.56-1.33,1.26-2,3-3,4.5a2.85,2.85,0,0,0,.1,1.32c.07.45.56.72.5,1.21a4.55,4.55,0,0,0,.26,2.06c-1-.25-1.78-1.15-2.85-1,.19,1.39-.21,2.78-.08,4.16a.61.61,0,0,1-.13.65c-.19.18-.11.54,0,.75s-.12.46-.09.67c-.19.12,0,.47-.29.6,0,.26.09.46-.07.66s.23.46.19.68c-.32.26,0,.7-.15,1s-.48.4-.75.54a1,1,0,0,1-.78.09,13,13,0,0,1-2.54.23c-.3-.07-.63-.08-.82-.35l-1-.89c-1.27,1-2.58,2.06-3.83,3.13a4.85,4.85,0,0,0-1,1.84,3.1,3.1,0,0,0-.41,1.35,10.62,10.62,0,0,0,.2,2.21c.19,1.59.33,3.19.54,4.77.11.47.05,1.05.48,1.37s1,.94,1.49,1.4c.2.64-.49,1.22-.22,1.86.09.42.05.91.38,1.24a4.45,4.45,0,0,1,.83,1.54,6.74,6.74,0,0,1,.53,2.44c-.11.29-.4.56-.23.88.13.16.41.31.4.58a21.09,21.09,0,0,1-.7,2.36,1.39,1.39,0,0,1-.45.81c-.71.8-1.46,1.55-2.24,2.28,4.86,4.86,9.37,10,14.2,14.92,3.76.44,7.54.76,11.27,1.37-.58,1.75-2.17,2.86-3.43,4.1a5.91,5.91,0,0,0-1.27,1.53l1.56,1.78c4.75.43,9.5.87,14.21,1.6a65.43,65.43,0,0,1,12.27,2.44,105.28,105.28,0,0,0,16,6.11,34.54,34.54,0,0,0,3.57.7,22.87,22.87,0,0,0,2.91.33c1.88.07,3.75.23,5.63.19a9,9,0,0,1,1.19.25,90.33,90.33,0,0,1,9.71-7.36,46,46,0,0,1,8.9-5.25l-.11-1.12c-1.74-.87-3.46-1.77-5.18-2.68-2.53-1.31-5.06-2.61-7.58-3.93a29.23,29.23,0,0,0-1.66-2.78c-2.85-4.39-5.76-8.73-8.66-13.08l-1.24-1.67c-5-2.34-10-4.91-15-7.33a9.35,9.35,0,0,0-3.19-1.34,23.44,23.44,0,0,1-2.44-.79c.58-1.36,1.44-2.75,1.13-4.29-.16-1.65-1.14-3-1.81-4.5-.19-.55-.77-1.88.22-1.71a7,7,0,0,0,6.33-4.7,4.64,4.64,0,0,0-.45-3.72,9.84,9.84,0,0,1-1.36-3.3c-.33-2-.67-4-.92-6-.05-.39-.1-.77-.15-1.16a5.5,5.5,0,0,0-1.85-.15,9.36,9.36,0,0,1-2.31.14c-.75-.06-1.49-.26-2.23-.38-.53-.37-1.21-.57-1.55-1.15-.22-.25-.06-.62-.11-.93s-.08-.72.16-1c.24-.52.56-1,.76-1.55a7.91,7.91,0,0,1,.2-.92.94.94,0,0,0,.37-1.05,1.38,1.38,0,0,1,.22-.9c.46-.11.43-1,.76-1.35.15-.22.2-.66.54-.61a1.3,1.3,0,0,0,.08-.89c0-.33-.22-.67,0-1a4.29,4.29,0,0,0,.27-1.44c0-.26.12-.55-.07-.76a1.45,1.45,0,0,1-.08-1.24,1.36,1.36,0,0,0,.24-.64.61.61,0,0,0,0-.62,2.86,2.86,0,0,1,0-.9c-.09-.21-.09-.45-.18-.65a1.09,1.09,0,0,0-.36-.65,2.44,2.44,0,0,0-.25-1.23c-.25-.23-.13-.56-.07-.9-.26-.53-.76-.9-.94-1.48a22.52,22.52,0,0,0-1.48-3.18c-.56-.29-1-1.14-1.44-1.29-.37.32-.61.78-1,1.07-.75.35-1.55.59-2.3.94-.29.24-.51.61-.85.77s-.87,0-1.3,0a2,2,0,0,1-1.4-.09,8.86,8.86,0,0,0-2.3-.47c-.54.35-1,.87-1.49,1.24-.67.27-1.33.59-2,.81a5.78,5.78,0,0,1-1.54.86,3.24,3.24,0,0,1-1.26.33,3.79,3.79,0,0,0-1.35.15,13,13,0,0,0-1.3.43,6,6,0,0,1-.81.8l-.9,0" transform="translate(-7.6 -5.26)"/><path class="cls-11" d="M176.49,262.79a3.27,3.27,0,0,0-1.12.12,4.45,4.45,0,0,1-2.41.92c-.24.08-.51.09-.73.18a14.08,14.08,0,0,0-1.16,1.42c-.28.5.21,1,.39,1.43a3.47,3.47,0,0,1,.28,2.2,10.18,10.18,0,0,0-.44,2.2,1.57,1.57,0,0,1-.28.83,11.78,11.78,0,0,0-1.48,1.45c-.36.29-.51.77-.8,1.12a2.19,2.19,0,0,0-.88.71c-.43.47-.68,1.07-1.06,1.56-1.33,1.26-2,3-3,4.5a2.85,2.85,0,0,0,.1,1.32c.07.45.56.72.5,1.21a4.55,4.55,0,0,0,.26,2.06c-1-.25-1.78-1.15-2.85-1,.19,1.39-.21,2.78-.08,4.16a.61.61,0,0,1-.13.65c-.19.18-.11.54,0,.75s-.12.46-.09.67c-.19.12,0,.47-.29.6,0,.26.09.46-.07.66s.23.46.19.68c-.32.26,0,.7-.15,1s-.48.4-.75.54a1,1,0,0,1-.78.09,13,13,0,0,1-2.54.23c-.3-.07-.63-.08-.82-.35l-1-.89c-1.27,1-2.58,2.06-3.83,3.13a4.85,4.85,0,0,0-1,1.84,3.1,3.1,0,0,0-.41,1.35,10.62,10.62,0,0,0,.2,2.21c.19,1.59.33,3.19.54,4.77.11.47.05,1.05.48,1.37s1,.94,1.49,1.4c.2.64-.49,1.22-.22,1.86.09.42.05.91.38,1.24a4.45,4.45,0,0,1,.83,1.54,6.74,6.74,0,0,1,.53,2.44c-.11.29-.4.56-.23.88.13.16.41.31.4.58a21.09,21.09,0,0,1-.7,2.36,1.39,1.39,0,0,1-.45.81c-.71.8-1.46,1.55-2.24,2.28,4.86,4.86,9.37,10,14.2,14.92,3.76.44,7.54.76,11.27,1.37-.58,1.75-2.17,2.86-3.43,4.1a5.91,5.91,0,0,0-1.27,1.53l1.56,1.78c4.75.43,9.5.87,14.21,1.6a65.43,65.43,0,0,1,12.27,2.44,105.28,105.28,0,0,0,16,6.11,34.54,34.54,0,0,0,3.57.7,22.87,22.87,0,0,0,2.91.33c1.88.07,3.75.23,5.63.19a9,9,0,0,1,1.19.25,90.33,90.33,0,0,1,9.71-7.36,46,46,0,0,1,8.9-5.25l-.11-1.12c-1.74-.87-3.46-1.77-5.18-2.68-2.53-1.31-5.06-2.61-7.58-3.93a29.23,29.23,0,0,0-1.66-2.78c-2.85-4.39-5.76-8.73-8.66-13.08l-1.24-1.67c-5-2.34-10-4.91-15-7.33a9.35,9.35,0,0,0-3.19-1.34,23.44,23.44,0,0,1-2.44-.79c.58-1.36,1.44-2.75,1.13-4.29-.16-1.65-1.14-3-1.81-4.5-.19-.55-.77-1.88.22-1.71a7,7,0,0,0,6.33-4.7,4.64,4.64,0,0,0-.45-3.72,9.84,9.84,0,0,1-1.36-3.3c-.33-2-.67-4-.92-6-.05-.39-.1-.77-.15-1.16a5.5,5.5,0,0,0-1.85-.15,9.36,9.36,0,0,1-2.31.14c-.75-.06-1.49-.26-2.23-.38-.53-.37-1.21-.57-1.55-1.15-.22-.25-.06-.62-.11-.93s-.08-.72.16-1c.24-.52.56-1,.76-1.55a7.91,7.91,0,0,1,.2-.92.94.94,0,0,0,.37-1.05,1.38,1.38,0,0,1,.22-.9c.46-.11.43-1,.76-1.35.15-.22.2-.66.54-.61a1.3,1.3,0,0,0,.08-.89c0-.33-.22-.67,0-1a4.29,4.29,0,0,0,.27-1.44c0-.26.12-.55-.07-.76a1.45,1.45,0,0,1-.08-1.24,1.36,1.36,0,0,0,.24-.64.61.61,0,0,0,0-.62,2.86,2.86,0,0,1,0-.9c-.09-.21-.09-.45-.18-.65a1.09,1.09,0,0,0-.36-.65,2.44,2.44,0,0,0-.25-1.23c-.25-.23-.13-.56-.07-.9-.26-.53-.76-.9-.94-1.48a22.52,22.52,0,0,0-1.48-3.18c-.56-.29-1-1.14-1.44-1.29-.37.32-.61.78-1,1.07-.75.35-1.55.59-2.3.94-.29.24-.51.61-.85.77s-.87,0-1.3,0a2,2,0,0,1-1.4-.09,8.86,8.86,0,0,0-2.3-.47c-.54.35-1,.87-1.49,1.24-.67.27-1.33.59-2,.81a5.78,5.78,0,0,1-1.54.86,3.24,3.24,0,0,1-1.26.33,3.79,3.79,0,0,0-1.35.15,13,13,0,0,0-1.3.43,6,6,0,0,1-.81.8Z" transform="translate(-7.6 -5.26)"/></g></g><path class="cls-11" d="M289.36,403.73l4,4.19,5.17,0,2.89.94,3.47,1.15,1.3-.07h3.94l0,3.54V421l3.83,0,3.76.07c-.16,7.64-.25,15.31-.22,22.94,2.47,0,4.94.12,7.41.14l-.58,1,.58,1.12,0,2.75v8.38l-1.77-.36-.07-2.42-3.21-.61-3.4.54-8.67,3-6.18,2.17-.29-.72-2.17.83-3.76,1.59-1.77.58-2.75,1.16-4.34,2.28-5,2.53-7.4,4.8-.9.83,1.19,3.29-.79.33-2.28-3.61-4.7,2.24-1.88,1.48-5.2,2.46-4.23-.18-2.93-1.19-2.78-.65-28,9.58-.43.32-10,3.36-1,.58-.83.54-.69.18-1.34.58-1.34.54-1,.8-21,14.92-4,2.89-3.54,2.6-6.79,4.84-4.08,2.85-.72.5-.51-.83,7-5.06L169,513.63l-.22-.4.07-.32.29,0,3.29-2.17.32.4-1.55,1,.72,1-.54.39.36.51.54-.4,1.34,1.81,1.59-1.27,6-4.52.07-1.26-.07-.11,0-.33,3.87-2.75,3-1.88.65,1.12,11.52-8.67-.43-1.37,2.56-2,1.26-.65.07,0,.47-.11.54-.14,1.34.22.83-.62,4.26-1.45.11-1.3-.43-1.26.29-.54.69-.47L212,486v0l.22.58,26.26-9.07,11.42-3.9,6.4,3.65,5.67-1.23,3.65-2.64-.51-.69-.25.22-.11-.14.43-.33.07.07.07.11.07,0,0,0,.07-.11.47.62,4.48-3.4-1.3-1.74-3.25,2.42-.25-.36-1.3,1,0,.07.51.87-.4.29-.36-.54-.76.58-.51-.58,5.13-3.86-.58-.76-5.09,3.9-.25-.32,1-.72-.83-1.15,4.84-3.62-.61-.83,1.23-.94,3.69,4.88,1.12-.83-1.34-1.7.61-.47-1-1.19,2.46-1.91,2.2,2.82,5.2-4,.72-.29-.33-.58-2.31,1-.07-.18,2.06-.87-.79-2-1.84-.58L273,461.53l-1-1.23v-.25l-.43-1.84.25-.07.4,1.66.9-.65-.54-1.55.33-.11.43,1.45.9-.65-.58-1.55.21-.11.62,1.44.83-.69-.72-1.44.22-.15.76,1.37.87-.65-.83-1.37.25-.18.83,1.38.9-.76-.9-1,.22-.22,1,1,3.94,1.3.14-.29.54-.4-.07-.8.54.58,2.85-1.92-2.57-1.37.11-.18,2.67,1.41.83-.54.65-1.3L283.9,450l.11-.25,3.72,1.91.87-1.63-3.87-2,.11-.25,3.87,2,.79-1.37-3.94-2.1.11-.29,4,2.1.54-.94-4-2.2.07-.22,4.08,2.16.18-.29-.11-.36.25-.44-3.51-1.91.11-.22,3.47,1.88-.32-1.19-2.93-1.62.14-.29,2.64,1.48-.25-1.19-1.77-.94.11-.33,1.63.87-.29-.9-1.88-1.19-.4-.18-6,10.95-8.71,2.21-.4-.29-.79-3.43.83-1.3,7.88-2,1.91-3.54.4-.65.72-1.34-.11-.51-12.72,3.29-2.17.5-2.06.47-2.6.58.22.76-.58.18,2.93,11.85.61-.14.25.72-.65,1.09-.21,0-4.08,1-1-.61-.18-.72.69-.18L259,448.46l-.54-2v-.22l.22-.22-.76-3.21,0-.18,3.47-.83L260,439.06l-3.07-3.72-.73-.9-4-4.77-.22-.25-.69-.65-1.91-1.66-1.12-1.27.07-.83.11-.76v-3.07l0-1.59c.17-3.49.08-6.8.22-10.3,5.52-4.5,11.09-9,16.62-13.44l2.53.22,7.8,9.83C279.77,405.52,285.11,403.67,289.36,403.73Z" transform="translate(-7.6 -5.26)"/><g class="cls-14"><g class="cls-15"><path class="cls-16" d="M218.15,369.19c-.45,4,0,8.05-.29,12,.28,5-.89,10.29,1,15.1,5.71,5.88,11.71,11.5,17.34,17.41,4.05,4,8.19,8,12.07,12.14l.07-.83.11-.76v-3.07l0-1.59c.17-3.49.08-6.8.22-10.3,5.52-4.5,11.09-9,16.62-13.44l2.53.22,7.8,9.83c4.11-.37,9.45-2.22,13.69-2.17l4,4.19,5.17,0,2.89.94,3.47,1.15,1.3-.07h3.94l0,3.54,3.86.07,10.62.14,2.13-1.91,2.53-2.64.72-.43,11.13-11.16,1-1-.47-.43-.65-1.37.07,0-.25-.69,0-.11h-1.41l-2.53-3,1.08-.76,3.9,2,.43-.11.9-.61.58-.18.94-.14c.09-8,0-16.06.15-24.06-.28-3.84.19-8,0-11.85-7.66-.06-15.32-.06-23,0l0,3.9-.07,3.79,0,3.93h-3.86l-3.76,0h-3.76l-4.12,0,0-3.87c-7.87,0-16,.17-23.88,0q-16.3-8.17-32.62-16.26l-.47.72-.79,0-.76-.58c-4.4,1.79-7.74,4.57-11.67,7.12-6.43,4.59-12,10.18-17.88,15.43" transform="translate(-7.6 -5.26)"/><path class="cls-11" d="M218.15,369.19c-.45,4,0,8.05-.29,12,.28,5-.89,10.29,1,15.1,5.71,5.88,11.71,11.5,17.34,17.41,4.05,4,8.19,8,12.07,12.14l.07-.83.11-.76v-3.07l0-1.59c.17-3.49.08-6.8.22-10.3,5.52-4.5,11.09-9,16.62-13.44l2.53.22,7.8,9.83c4.11-.37,9.45-2.22,13.69-2.17l4,4.19,5.17,0,2.89.94,3.47,1.15,1.3-.07h3.94l0,3.54,3.86.07,10.62.14,2.13-1.91,2.53-2.64.72-.43,11.13-11.16,1-1-.47-.43-.65-1.37.07,0-.25-.69,0-.11h-1.41l-2.53-3,1.08-.76,3.9,2,.43-.11.9-.61.58-.18.94-.14c.09-8,0-16.06.15-24.06-.28-3.84.19-8,0-11.85-7.66-.06-15.32-.06-23,0l0,3.9-.07,3.79,0,3.93h-3.86l-3.76,0h-3.76l-4.12,0,0-3.87c-7.87,0-16,.17-23.88,0q-16.3-8.17-32.62-16.26l-.47.72-.79,0-.76-.58c-4.4,1.79-7.74,4.57-11.67,7.12C229.6,358.36,224.05,363.94,218.15,369.19Z" transform="translate(-7.6 -5.26)"/></g></g><path class="cls-17" d="M289.36,403.73l4,4.19c1.74,0,3.49-.05,5.22,0,2.11.68,4.2,1.37,6.3,2.07,1.74-.13,3.49,0,5.24-.07-.05,3.7,0,7.4,0,11.09q3.79,0,7.59.11c-.16,7.65-.25,15.29-.22,22.94,2.47,0,4.94.12,7.41.14a5.27,5.27,0,0,0-.55,1.07c.22.51.65,1,.55,1.56.05,3.54,0,7.09,0,10.63l-1.77-.36c0-.81,0-1.62-.07-2.42-1.09-.19-2.18-.45-3.28-.61-1.19.22-2.4.33-3.57.61-4.88,1.66-9.76,3.33-14.61,5-.17-.3-.18-1-.64-.59-2,.71-3.9,1.62-5.87,2.38a36.53,36.53,0,0,0-4.39,1.72c-3,1.63-6.13,3.19-9.21,4.75-2.48,1.62-5,3.2-7.44,4.86-.23.27-.68.51-.78.8l2.33,3.72,1.66-.54.94.77L239.1,493.91,265.7,480.6l-.91-3.28-5.2,2.46c-1.43-.07-2.87-.09-4.29-.2-1.06-.4-2.08-.92-3.17-1.24-.85-.17-1.7-.44-2.54-.56l-28,9.55a7.15,7.15,0,0,1-2.19.92c-2.75.94-5.52,1.85-8.27,2.8-.65.33-1.26.73-1.89,1.11a33.32,33.32,0,0,0-3.17,1.23c-.69.43-1.3,1-2,1.46-8.24,5.86-16.5,11.68-24.71,17.57-4.1,3-8.25,6-12.42,8.88l-2.22,1.55c-.08-.3-.67-.72-.35-.94l4.28-3c.1-1.77.2-3.54.3-5.32-.23-.24-.34-.83.14-.76l3.29-2.17c.45.33.23.55-.19.75l-1,.7.72,1c-.37.22-.71.45-.25.8.22.28.63-.66.8,0l1.15,1.56c1.33-1.1,2.73-2.09,4.12-3.1l-1.37-3.6,10.36-7.19-.79-1.63L197,492.21c-.08-.35-.36-.76-.31-1.06l1.14-.75c.32.16.57.71.95.51,4.12-1.46,8.27-2.88,12.38-4.37.26-.1.67-.61.84-.45.06.53.36.56.78.32,12.36-4.26,24.71-8.56,37.1-12.77l6.39,3.65c1.9-.43,3.84-.8,5.72-1.26l3.6-2.6c-.24-.2-.42-.95-.74-.49-.29-.18.4-.59.51-.3.23-.25.4.51.64.5l4.43-3.36-1.3-1.74-3.25,2.42c-.18-.56-.49-.19-.79.06s-.73.41-.77.72.65.71.32.92c-.37.55-.43-.6-.76-.25-.3.17-.63.71-.85.19-.52-.31.06-.51.33-.75l4.54-3.42c-.25-.17-.42-.9-.72-.65l-4.95,3.79c-.49-.33.06-.53.34-.76.54-.19.25-.52,0-.83s-.69-.64-.14-.83l4.54-3.39c-.12-.3-.67-.65-.52-.9l1.13-.87,3.69,4.88,1.12-.83-1.34-1.7c.24-.24.87-.44.37-.75l-.77-.91,2.46-1.91,2.2,2.82c1.76-1.33,3.49-2.69,5.26-4,.35-.15.89-.22.45-.65-.16-.42-.65.14-1,.17l-1.46.64c-.19-.37.56-.34.78-.54l1.2-.51-.79-2-1.84-.58L273,461.53a13.23,13.23,0,0,1-1-1.29,19.26,19.26,0,0,0-.43-2c.45-.25.3.52.45.77s0,1.09.45.64c.26-.25.86-.39.53-.82l-.42-1.2c.47-.33.41.37.56.66s.15.92.55.42c.37-.22.71-.44.38-.86l-.4-1.09c.39-.28.38.51.58.74.13.43.28.77.63.28.42-.21.52-.5.2-.87-.11-.32-.45-.7-.42-1,.33-.26.4.51.61.7.17.41.35.72.71.27.44-.21.54-.47.18-.83-.11-.31-.61-.71-.44-1s.41.51.63.68c.19.4.39.76.73.26.3-.24.74-.47.24-.76-.13-.29-.83-.59-.44-.87.27.09.53.54.8.77.32.43.93.4,1.39.62l2.76.91c0-.41.64-.46.68-.81s-.11-.88.28-.31.61-.15.92-.27l2.14-1.43-2.57-1.37c.18-.39.63.2.93.25l1.85,1c.37-.29.9-.43,1-.93.07-.31.55-.75.35-1L283.9,450c.09-.52.58.09.88.14l3,1.52.87-1.63-3.87-2c.09-.52.58.09.88.15l3.1,1.62.79-1.37-3.94-2.1c.06-.56.57,0,.88.11l3.21,1.69c.13-.31.5-.7.49-1l-4-2.18c.08-.46.6.17.89.22l3.26,1.73c.35-.29-.11-.68.26-1,.09-.3-.59-.38-.8-.59l-2.64-1.44c.14-.45.62.17.92.23l2.65,1.44a7.14,7.14,0,0,0-.38-1.22l-2.87-1.6c.1-.56.55,0,.84.11l1.94,1.09a6.65,6.65,0,0,0-.31-1.22l-1.72-.91c0-.6.52,0,.82.05s.86.58.88.37c-.15-.36-.13-.85-.56-1a19.25,19.25,0,0,0-2-1.17l-6,10.95-8.71,2.21c-.41-.17-.48-.55-.55-1l-.64-2.77a12,12,0,0,1,.89-1.31l7.82-2c.88-1.64,1.77-3.28,2.69-4.9.18-.34.45-.66.25-1.05-.22-.15-.71.16-1,.18-4.24,1.08-8.47,2.22-12.72,3.26-1.93.45-3.87.88-5.81,1.31.05.34.44.87-.14.87s0,.66,0,1l2.71,11c.4-.15.75-.22.77.32.23.37-.23.67-.36,1s-.55.39-.9.49l-3.6.86a6.8,6.8,0,0,1-1.06-.67c-.1-.36-.33-.81.25-.77s0-.6.06-.91c-1-3.89-1.83-7.8-2.87-11.66.08-.36.3-.62.07-1-.22-.93-.45-1.86-.65-2.79l3.47-.83c-.5-.94-.9-1.95-1.46-2.85-2.64-3.18-5.23-6.4-7.91-9.55a40.39,40.39,0,0,1-3.38-3.19c-.38-.24-.29-.64-.24-1a36.67,36.67,0,0,0,.13-4.35c.14-3.51.14-7,.21-10.53-.3-1.22,1-1.64,1.71-2.35,5-4,10-8,14.94-12.07l2.53.22,7.8,9.83c4.6-.46,9-2.16,13.69-2.17" transform="translate(-7.6 -5.26)"/><path class="cls-11" d="M289.36,403.73l4,4.19c1.74,0,3.49-.05,5.22,0,2.11.68,4.2,1.37,6.3,2.07,1.74-.13,3.49,0,5.24-.07-.05,3.7,0,7.4,0,11.09q3.79,0,7.59.11c-.16,7.65-.25,15.29-.22,22.94,2.47,0,4.94.12,7.41.14a5.27,5.27,0,0,0-.55,1.07c.22.51.65,1,.55,1.56.05,3.54,0,7.09,0,10.63l-1.77-.36c0-.81,0-1.62-.07-2.42-1.09-.19-2.18-.45-3.28-.61-1.19.22-2.4.33-3.57.61-4.88,1.66-9.76,3.33-14.61,5-.17-.3-.18-1-.64-.59-2,.71-3.9,1.62-5.87,2.38a36.53,36.53,0,0,0-4.39,1.72c-3,1.63-6.13,3.19-9.21,4.75-2.48,1.62-5,3.2-7.44,4.86-.23.27-.68.51-.78.8l2.33,3.72,1.66-.54.94.77L239.1,493.91,265.7,480.6l-.91-3.28-5.2,2.46c-1.43-.07-2.87-.09-4.29-.2-1.06-.4-2.08-.92-3.17-1.24-.85-.17-1.7-.44-2.54-.56l-28,9.55a7.15,7.15,0,0,1-2.19.92c-2.75.94-5.52,1.85-8.27,2.8-.65.33-1.26.73-1.89,1.11a33.32,33.32,0,0,0-3.17,1.23c-.69.43-1.3,1-2,1.46-8.24,5.86-16.5,11.68-24.71,17.57-4.1,3-8.25,6-12.42,8.88l-2.22,1.55c-.08-.3-.67-.72-.35-.94l4.28-3c.1-1.77.2-3.54.3-5.32-.23-.24-.34-.83.14-.76l3.29-2.17c.45.33.23.55-.19.75l-1,.7.72,1c-.37.22-.71.45-.25.8.22.28.63-.66.8,0l1.15,1.56c1.33-1.1,2.73-2.09,4.12-3.1l-1.37-3.6,10.36-7.19-.79-1.63L197,492.21c-.08-.35-.36-.76-.31-1.06l1.14-.75c.32.16.57.71.95.51,4.12-1.46,8.27-2.88,12.38-4.37.26-.1.67-.61.84-.45.06.53.36.56.78.32,12.36-4.26,24.71-8.56,37.1-12.77l6.39,3.65c1.9-.43,3.84-.8,5.72-1.26l3.6-2.6c-.24-.2-.42-.95-.74-.49-.29-.18.4-.59.51-.3.23-.25.4.51.64.5l4.43-3.36-1.3-1.74-3.25,2.42c-.18-.56-.49-.19-.79.06s-.73.41-.77.72.65.71.32.92c-.37.55-.43-.6-.76-.25-.3.17-.63.71-.85.19-.52-.31.06-.51.33-.75l4.54-3.42c-.25-.17-.42-.9-.72-.65l-4.95,3.79c-.49-.33.06-.53.34-.76.54-.19.25-.52,0-.83s-.69-.64-.14-.83l4.54-3.39c-.12-.3-.67-.65-.52-.9l1.13-.87,3.69,4.88,1.12-.83-1.34-1.7c.24-.24.87-.44.37-.75l-.77-.91,2.46-1.91,2.2,2.82c1.76-1.33,3.49-2.69,5.26-4,.35-.15.89-.22.45-.65-.16-.42-.65.14-1,.17l-1.46.64c-.19-.37.56-.34.78-.54l1.2-.51-.79-2-1.84-.58L273,461.53a13.23,13.23,0,0,1-1-1.29,19.26,19.26,0,0,0-.43-2c.45-.25.3.52.45.77s0,1.09.45.64c.26-.25.86-.39.53-.82l-.42-1.2c.47-.33.41.37.56.66s.15.92.55.42c.37-.22.71-.44.38-.86l-.4-1.09c.39-.28.38.51.58.74.13.43.28.77.63.28.42-.21.52-.5.2-.87-.11-.32-.45-.7-.42-1,.33-.26.4.51.61.7.17.41.35.72.71.27.44-.21.54-.47.18-.83-.11-.31-.61-.71-.44-1s.41.51.63.68c.19.4.39.76.73.26.3-.24.74-.47.24-.76-.13-.29-.83-.59-.44-.87.27.09.53.54.8.77.32.43.93.4,1.39.62l2.76.91c0-.41.64-.46.68-.81s-.11-.88.28-.31.61-.15.92-.27l2.14-1.43-2.57-1.37c.18-.39.63.2.93.25l1.85,1c.37-.29.9-.43,1-.93.07-.31.55-.75.35-1L283.9,450c.09-.52.58.09.88.14l3,1.52.87-1.63-3.87-2c.09-.52.58.09.88.15l3.1,1.62.79-1.37-3.94-2.1c.06-.56.57,0,.88.11l3.21,1.69c.13-.31.5-.7.49-1l-4-2.18c.08-.46.6.17.89.22l3.26,1.73c.35-.29-.11-.68.26-1,.09-.3-.59-.38-.8-.59l-2.64-1.44c.14-.45.62.17.92.23l2.65,1.44a7.14,7.14,0,0,0-.38-1.22l-2.87-1.6c.1-.56.55,0,.84.11l1.94,1.09a6.65,6.65,0,0,0-.31-1.22l-1.72-.91c0-.6.52,0,.82.05s.86.58.88.37c-.15-.36-.13-.85-.56-1a19.25,19.25,0,0,0-2-1.17l-6,10.95-8.71,2.21c-.41-.17-.48-.55-.55-1l-.64-2.77a12,12,0,0,1,.89-1.31l7.82-2c.88-1.64,1.77-3.28,2.69-4.9.18-.34.45-.66.25-1.05-.22-.15-.71.16-1,.18-4.24,1.08-8.47,2.22-12.72,3.26-1.93.45-3.87.88-5.81,1.31.05.34.44.87-.14.87s0,.66,0,1l2.71,11c.4-.15.75-.22.77.32.23.37-.23.67-.36,1s-.55.39-.9.49l-3.6.86a6.8,6.8,0,0,1-1.06-.67c-.1-.36-.33-.81.25-.77s0-.6.06-.91c-1-3.89-1.83-7.8-2.87-11.66.08-.36.3-.62.07-1-.22-.93-.45-1.86-.65-2.79l3.47-.83c-.5-.94-.9-1.95-1.46-2.85-2.64-3.18-5.23-6.4-7.91-9.55a40.39,40.39,0,0,1-3.38-3.19c-.38-.24-.29-.64-.24-1a36.67,36.67,0,0,0,.13-4.35c.14-3.51.14-7,.21-10.53-.3-1.22,1-1.64,1.71-2.35,5-4,10-8,14.94-12.07l2.53.22,7.8,9.83C280.27,405.44,284.7,403.73,289.36,403.73Z" transform="translate(-7.6 -5.26)"/><g class="cls-18"><g class="cls-19"><path class="cls-20" d="M278.26,263.08c0,.26-.16,1.07-.32.49-.21-.08-.19-.65-.31-.92-.76-2.93-1.45-5.88-2.27-8.8a21.52,21.52,0,0,1-.7-2.09l-2.08-7.47c-.21-.09-.18-.68-.31-1,.19-.09.67.25,1,.18.58-.19.75-.85.93-1.38a13.61,13.61,0,0,0,.23-1.86,27.48,27.48,0,0,1,1.2-2.71c.26-.32.76-.34,1-.73.7-.84,1.26-1.88,2.3-2.33,1.46-.55,2.94-1,4.38-1.63a1,1,0,0,0,.47-1.09,18.9,18.9,0,0,0,2.37-.2c.58,0,1-.42,1.54-.59a2.09,2.09,0,0,1,1.55-.3c.4-.38,1-.26,1.4-.68.33-.23.9-.13,1.09-.55.66-.18,1.22-.63,1.88-.83a7.85,7.85,0,0,0,1.49.33,6.21,6.21,0,0,0,1.42-.44l9.62-.5c-.1-.41,0-.71.43-.72,1.23-.28,2.49-.38,3.72-.69,1-.08,2.1-.08,3.12-.21.51-.26.75-.82,1.27-1.08a20.89,20.89,0,0,1,2.38-1.07c.56-.17.94-.72,1.56-.71.38-.07.68-.37,1.08-.41s.55-.28.6-.7a8.07,8.07,0,0,1,1.06-2.07c.48-.59,1.32-.59,1.92-1a29,29,0,0,0,2.83-1.66,7.65,7.65,0,0,0,2.2-2.38,8.43,8.43,0,0,1,2.08-2c1.12.07,2.49-.26,2.91-1.44.23-.66.28-1.56,1-1.89a3,3,0,0,1,1.34-.59c.4-.11.83-.16,1.07-.55.37-.63,1.05-.57,1.71-.66.84,0,1.63-.92,2.4-.63a3.51,3.51,0,0,0,1.22.72,4.44,4.44,0,0,1,1.42.81,3.1,3.1,0,0,0,1.75.09c.55-.11,1.23,0,1.61-.48a8.56,8.56,0,0,0,1.19-1.2c.93.3,2,.72,2.89.18a2.64,2.64,0,0,0,1.06-.36c.46-.17.94-.23,1.4-.4a10.39,10.39,0,0,1,1.4-.4c.57,0,.71-.73,1.24-.78a16.09,16.09,0,0,1,1.59,2.64,1.21,1.21,0,0,0,1,.38,3.53,3.53,0,0,0,1.18,0,10.36,10.36,0,0,0,.72,1.23l1.12,0a36.47,36.47,0,0,0,4.48,5.86c.6.65.36,1.53.29,2.3,0,.42.33.58.62.79a8.41,8.41,0,0,0,2.17.8,6.06,6.06,0,0,0,2,1.11c.39.65.42,1.74,1.19,2.24,1,.35.92,1.55,2,1.56a4.51,4.51,0,0,1,2.25,2.22,4.82,4.82,0,0,0,.16,2.09,1.88,1.88,0,0,0,.46,1.08c.33.21.33.71.52,1,.1.52.75.3,1.13.35a2.68,2.68,0,0,1,2.28.83,20.26,20.26,0,0,0,2.48,2.33c.44.26.46.81.82,1.14a3.15,3.15,0,0,0,2.07.66,6.59,6.59,0,0,0,1.78-.55,4.81,4.81,0,0,0,1.79-.86,3.46,3.46,0,0,1,3.74.51,3.36,3.36,0,0,0,1.54.51,5.9,5.9,0,0,1,1.79.56,3.1,3.1,0,0,1,1.28,1.61c.17.49.3,1,.48,1.5.71.63,1.73.56,2.61.78l2.25.41c.12.37-.16,1.94-1,2.22-.42.11-.57.61-1,.56a43.42,43.42,0,0,1-4.71,1.19,7.42,7.42,0,0,1-2.42,0,2.23,2.23,0,0,1-.88-.66c-.42-.18-.54.4-.41.69a1.38,1.38,0,0,1,0,1.13c-.5.81-1.51,1-2.3,1.43-.52.37-1-.21-1.47-.42a5.81,5.81,0,0,1-1.77-1.28.42.42,0,0,0-.65.44,3.69,3.69,0,0,1,1.05,2.6,1.5,1.5,0,0,0,.33,1.07,1.89,1.89,0,0,1,.31,1.54c-.09.73-.86,1.17-1,1.88a1.63,1.63,0,0,1-.14,1.3c-.19.52-.71.84-.83,1.38a5.46,5.46,0,0,0-.72,1.73c-.33.8-.62,2.39.2,2.79.22,0,.92-.2.75.18a1.08,1.08,0,0,0,.12,1c.29,1.08.52,2.17.83,3.25.47.18.39.77.58,1.17a2.22,2.22,0,0,0,.76,1.18c.15.55-.33,1-.8,1.23s-.73-.41-1.09-.61a1.56,1.56,0,0,0-1.48-.36,3.2,3.2,0,0,0-1.93,1.35,7.4,7.4,0,0,0-1.21,5.53c.14,1.12.36,2.23.52,3.34-.43.1-.13-.77-.48-.75-.55.05-1.1.12-1.65.2.35.61,1,1.88.58,2.31q-.66.15-.7-.52c-.13-.46-.6,0-.9,0s-.88.16-.49.61l1.23,2.65c-.32.21-.69.33-1,.54-.73-.4-1.74,1.09-2.61,1.3-.56.59-.51-.94-1.06-.15-2.08,1.32-4.38,2.38-6.14,4.13-1.32,1.45-1.45,3.5-2.29,5.2.48,2.18.64,4.41,1,6.61a3.22,3.22,0,0,1-1.3-.4c-.23.22-.59.12-.89.22s-.63-.47-1.06-.4c-1.46-.2-2.94-.26-4.41-.39-.24.36.12.74.27,1.07a46,46,0,0,0,3.68,5.07c1.26,1.64,2.37,3.39,3.6,5.05a19.78,19.78,0,0,1,2.48,4.6c1.71,3.8,3.37,7.62,5.13,11.4a14.86,14.86,0,0,1-.42,2.42c-1.11,5.45-2,10.94-2.91,16.42.4.31.44.86.65,1.3l-.18,1.41c-1.06.14-2.18-.42-3.17.06a37.05,37.05,0,0,0-6.81,5.75c-.58.51-1,1.32-1.61,1.71a5.11,5.11,0,0,1-1.92.21c-3.53,0-7.05-.19-10.58-.14q-13.73-.12-27.46-.07c0-4.85-.09-9.7,0-14.53.3-.63-.22-1.26-.05-1.9a49.19,49.19,0,0,1,1.05-5.09,15.86,15.86,0,0,0,.52-2.55l.73-3.17c.22-.33.66-.23.87-.58a1.42,1.42,0,0,0,.17-1,4.67,4.67,0,0,0-1.61-.58,5.6,5.6,0,0,1-.81-1.88,18.22,18.22,0,0,1,0-2.67,14.52,14.52,0,0,1,.82-4c.29-.82.71-1.59,1.06-2.39a.68.68,0,0,0-1-.54c-1,.32-1.95.73-3,1-.77-.19-1.44-.76-2.26-.68-.52-.06-1.33.09-1.54-.53-.09-.47.12-1-.09-1.41.06-.94,0-1.89.07-2.84a20,20,0,0,0,.15-3.26c0-.39.14-.83-.22-1.11l-.86-1.14c.49-.61.2-1.45.2-2.16a4.18,4.18,0,0,1,.21-1.55c.3-.61,1.06-.72,1.6-1a8.06,8.06,0,0,0,3.11-1.3c.65-.48,1.26-1,1.88-1.56-.16-.53-.77-.72-1-1.23-.52-.72-1.08-1.42-1.58-2.15a11,11,0,0,1-.93-1.17c.11-.41.77-.09,1-.47.61-.66,1.3-1.25,1.86-2,.13-.58-.5-.84-.81-1.21-.63-.56-1.19-1.23-1.87-1.73s-1.72-.47-2.51-.86c-1.25-.71-2.49-1.44-3.73-2.16a2.07,2.07,0,0,0-1.59-.23c-.6.06-1.2-.06-1.8,0-.4-.16-.38-.58-.35-.94.09-1.78.07-3.57.09-5.35-.17-.79-1.06-.9-1.67-1.18a7.3,7.3,0,0,0-1.61-.61c-.34-.07-.7-.32-1,0l-2.14,1.1c-.69-1.58-1.43-3.14-2.12-4.72-.16-.39-.32-.88.07-1.19a.8.8,0,0,1,1-.34c.58.13,1.26.56,1.78.08.51-.28.59-.93.9-1.39a7.12,7.12,0,0,0,1.17-3.13,3.3,3.3,0,0,0-1.2-2.53,1.27,1.27,0,0,1-.09-1.56,18.62,18.62,0,0,0,1.23-1.41,2.62,2.62,0,0,0-.28-1.63c-.2-.31-.17-1.1-.71-.82-.31.78-.15,1.95-1.39,1.95a6.47,6.47,0,0,1-2.08,0,6.09,6.09,0,0,0-2.56,1.26c-.36.52-.06,1.22-.18,1.81a5.77,5.77,0,0,1-1,2.78c-.14-.25,0-.7,0-1s.14-.85-.16-1.2a2.64,2.64,0,0,0-1.51-1,5.25,5.25,0,0,1-.74-1c-.65-.46-1.67.09-2.22-.71-.57-.64-1.41-.91-2-1.49-.41-.24-.74.29-.81.63-.3,1.26-.55,2.54-.85,3.78a.77.77,0,0,1-1.1.19,11.65,11.65,0,0,0-2.15-.56c-.45-.28-.32-.83-.09-1.21a1.5,1.5,0,0,0,.15-1.52c-.09-.38-.22-.73-.67-.73-.69.39-2.07,1.11-2.35-.28-.19-.47.25-.87.24-1.32-.3-.57-1.2.07-1.45-.56-.13-.45-.62-.38-1-.44a1.31,1.31,0,0,0-1.18-.12c-.39.21-.33.59-.12.92a2.19,2.19,0,0,1,0,1.51c-.25.48-.83.41-1.28.44-.5.25-.29.94-.24,1.39a4.58,4.58,0,0,1,0,1.76" transform="translate(-7.6 -5.26)"/><path class="cls-11" d="M278.26,263.08c0,.26-.16,1.07-.32.49-.21-.08-.19-.65-.31-.92-.76-2.93-1.45-5.88-2.27-8.8a21.52,21.52,0,0,1-.7-2.09l-2.08-7.47c-.21-.09-.18-.68-.31-1,.19-.09.67.25,1,.18.58-.19.75-.85.93-1.38a13.61,13.61,0,0,0,.23-1.86,27.48,27.48,0,0,1,1.2-2.71c.26-.32.76-.34,1-.73.7-.84,1.26-1.88,2.3-2.33,1.46-.55,2.94-1,4.38-1.63a1,1,0,0,0,.47-1.09,18.9,18.9,0,0,0,2.37-.2c.58,0,1-.42,1.54-.59a2.09,2.09,0,0,1,1.55-.3c.4-.38,1-.26,1.4-.68.33-.23.9-.13,1.09-.55.66-.18,1.22-.63,1.88-.83a7.85,7.85,0,0,0,1.49.33,6.21,6.21,0,0,0,1.42-.44l9.62-.5c-.1-.41,0-.71.43-.72,1.23-.28,2.49-.38,3.72-.69,1-.08,2.1-.08,3.12-.21.51-.26.75-.82,1.27-1.08a20.89,20.89,0,0,1,2.38-1.07c.56-.17.94-.72,1.56-.71.38-.07.68-.37,1.08-.41s.55-.28.6-.7a8.07,8.07,0,0,1,1.06-2.07c.48-.59,1.32-.59,1.92-1a29,29,0,0,0,2.83-1.66,7.65,7.65,0,0,0,2.2-2.38,8.43,8.43,0,0,1,2.08-2c1.12.07,2.49-.26,2.91-1.44.23-.66.28-1.56,1-1.89a3,3,0,0,1,1.34-.59c.4-.11.83-.16,1.07-.55.37-.63,1.05-.57,1.71-.66.84,0,1.63-.92,2.4-.63a3.51,3.51,0,0,0,1.22.72,4.44,4.44,0,0,1,1.42.81,3.1,3.1,0,0,0,1.75.09c.55-.11,1.23,0,1.61-.48a8.56,8.56,0,0,0,1.19-1.2c.93.3,2,.72,2.89.18a2.64,2.64,0,0,0,1.06-.36c.46-.17.94-.23,1.4-.4a10.39,10.39,0,0,1,1.4-.4c.57,0,.71-.73,1.24-.78a16.09,16.09,0,0,1,1.59,2.64,1.21,1.21,0,0,0,1,.38,3.53,3.53,0,0,0,1.18,0,10.36,10.36,0,0,0,.72,1.23l1.12,0a36.47,36.47,0,0,0,4.48,5.86c.6.65.36,1.53.29,2.3,0,.42.33.58.62.79a8.41,8.41,0,0,0,2.17.8,6.06,6.06,0,0,0,2,1.11c.39.65.42,1.74,1.19,2.24,1,.35.92,1.55,2,1.56a4.51,4.51,0,0,1,2.25,2.22,4.82,4.82,0,0,0,.16,2.09,1.88,1.88,0,0,0,.46,1.08c.33.21.33.71.52,1,.1.52.75.3,1.13.35a2.68,2.68,0,0,1,2.28.83,20.26,20.26,0,0,0,2.48,2.33c.44.26.46.81.82,1.14a3.15,3.15,0,0,0,2.07.66,6.59,6.59,0,0,0,1.78-.55,4.81,4.81,0,0,0,1.79-.86,3.46,3.46,0,0,1,3.74.51,3.36,3.36,0,0,0,1.54.51,5.9,5.9,0,0,1,1.79.56,3.1,3.1,0,0,1,1.28,1.61c.17.49.3,1,.48,1.5.71.63,1.73.56,2.61.78l2.25.41c.12.37-.16,1.94-1,2.22-.42.11-.57.61-1,.56a43.42,43.42,0,0,1-4.71,1.19,7.42,7.42,0,0,1-2.42,0,2.23,2.23,0,0,1-.88-.66c-.42-.18-.54.4-.41.69a1.38,1.38,0,0,1,0,1.13c-.5.81-1.51,1-2.3,1.43-.52.37-1-.21-1.47-.42a5.81,5.81,0,0,1-1.77-1.28.42.42,0,0,0-.65.44,3.69,3.69,0,0,1,1.05,2.6,1.5,1.5,0,0,0,.33,1.07,1.89,1.89,0,0,1,.31,1.54c-.09.73-.86,1.17-1,1.88a1.63,1.63,0,0,1-.14,1.3c-.19.52-.71.84-.83,1.38a5.46,5.46,0,0,0-.72,1.73c-.33.8-.62,2.39.2,2.79.22,0,.92-.2.75.18a1.08,1.08,0,0,0,.12,1c.29,1.08.52,2.17.83,3.25.47.18.39.77.58,1.17a2.22,2.22,0,0,0,.76,1.18c.15.55-.33,1-.8,1.23s-.73-.41-1.09-.61a1.56,1.56,0,0,0-1.48-.36,3.2,3.2,0,0,0-1.93,1.35,7.4,7.4,0,0,0-1.21,5.53c.14,1.12.36,2.23.52,3.34-.43.1-.13-.77-.48-.75-.55.05-1.1.12-1.65.2.35.61,1,1.88.58,2.31q-.66.15-.7-.52c-.13-.46-.6,0-.9,0s-.88.16-.49.61l1.23,2.65c-.32.21-.69.33-1,.54-.73-.4-1.74,1.09-2.61,1.3-.56.59-.51-.94-1.06-.15-2.08,1.32-4.38,2.38-6.14,4.13-1.32,1.45-1.45,3.5-2.29,5.2.48,2.18.64,4.41,1,6.61a3.22,3.22,0,0,1-1.3-.4c-.23.22-.59.12-.89.22s-.63-.47-1.06-.4c-1.46-.2-2.94-.26-4.41-.39-.24.36.12.74.27,1.07a46,46,0,0,0,3.68,5.07c1.26,1.64,2.37,3.39,3.6,5.05a19.78,19.78,0,0,1,2.48,4.6c1.71,3.8,3.37,7.62,5.13,11.4a14.86,14.86,0,0,1-.42,2.42c-1.11,5.45-2,10.94-2.91,16.42.4.31.44.86.65,1.3l-.18,1.41c-1.06.14-2.18-.42-3.17.06a37.05,37.05,0,0,0-6.81,5.75c-.58.51-1,1.32-1.61,1.71a5.11,5.11,0,0,1-1.92.21c-3.53,0-7.05-.19-10.58-.14q-13.73-.12-27.46-.07c0-4.85-.09-9.7,0-14.53.3-.63-.22-1.26-.05-1.9a49.19,49.19,0,0,1,1.05-5.09,15.86,15.86,0,0,0,.52-2.55l.73-3.17c.22-.33.66-.23.87-.58a1.42,1.42,0,0,0,.17-1,4.67,4.67,0,0,0-1.61-.58,5.6,5.6,0,0,1-.81-1.88,18.22,18.22,0,0,1,0-2.67,14.52,14.52,0,0,1,.82-4c.29-.82.71-1.59,1.06-2.39a.68.68,0,0,0-1-.54c-1,.32-1.95.73-3,1-.77-.19-1.44-.76-2.26-.68-.52-.06-1.33.09-1.54-.53-.09-.47.12-1-.09-1.41.06-.94,0-1.89.07-2.84a20,20,0,0,0,.15-3.26c0-.39.14-.83-.22-1.11l-.86-1.14c.49-.61.2-1.45.2-2.16a4.18,4.18,0,0,1,.21-1.55c.3-.61,1.06-.72,1.6-1a8.06,8.06,0,0,0,3.11-1.3c.65-.48,1.26-1,1.88-1.56-.16-.53-.77-.72-1-1.23-.52-.72-1.08-1.42-1.58-2.15a11,11,0,0,1-.93-1.17c.11-.41.77-.09,1-.47.61-.66,1.3-1.25,1.86-2,.13-.58-.5-.84-.81-1.21-.63-.56-1.19-1.23-1.87-1.73s-1.72-.47-2.51-.86c-1.25-.71-2.49-1.44-3.73-2.16a2.07,2.07,0,0,0-1.59-.23c-.6.06-1.2-.06-1.8,0-.4-.16-.38-.58-.35-.94.09-1.78.07-3.57.09-5.35-.17-.79-1.06-.9-1.67-1.18a7.3,7.3,0,0,0-1.61-.61c-.34-.07-.7-.32-1,0l-2.14,1.1c-.69-1.58-1.43-3.14-2.12-4.72-.16-.39-.32-.88.07-1.19a.8.8,0,0,1,1-.34c.58.13,1.26.56,1.78.08.51-.28.59-.93.9-1.39a7.12,7.12,0,0,0,1.17-3.13,3.3,3.3,0,0,0-1.2-2.53,1.27,1.27,0,0,1-.09-1.56,18.62,18.62,0,0,0,1.23-1.41,2.62,2.62,0,0,0-.28-1.63c-.2-.31-.17-1.1-.71-.82-.31.78-.15,1.95-1.39,1.95a6.47,6.47,0,0,1-2.08,0,6.09,6.09,0,0,0-2.56,1.26c-.36.52-.06,1.22-.18,1.81a5.77,5.77,0,0,1-1,2.78c-.14-.25,0-.7,0-1s.14-.85-.16-1.2a2.64,2.64,0,0,0-1.51-1,5.25,5.25,0,0,1-.74-1c-.65-.46-1.67.09-2.22-.71-.57-.64-1.41-.91-2-1.49-.41-.24-.74.29-.81.63-.3,1.26-.55,2.54-.85,3.78a.77.77,0,0,1-1.1.19,11.65,11.65,0,0,0-2.15-.56c-.45-.28-.32-.83-.09-1.21a1.5,1.5,0,0,0,.15-1.52c-.09-.38-.22-.73-.67-.73-.69.39-2.07,1.11-2.35-.28-.19-.47.25-.87.24-1.32-.3-.57-1.2.07-1.45-.56-.13-.45-.62-.38-1-.44a1.31,1.31,0,0,0-1.18-.12c-.39.21-.33.59-.12.92a2.19,2.19,0,0,1,0,1.51c-.25.48-.83.41-1.28.44-.5.25-.29.94-.24,1.39A4.58,4.58,0,0,1,278.26,263.08Z" transform="translate(-7.6 -5.26)"/></g></g><g class="cls-8"><g class="cls-21"><path class="cls-10" d="M304.53,259.32a3.26,3.26,0,0,1-2.23.43c-.31.17-.48.24-.62-.06a8,8,0,0,0-2.13.85c-.35.21-.78.44-.79.91a7,7,0,0,1-.51,3.29c-.16.2-.25,1-.55.79,0-.59.13-1.19.13-1.77a2.84,2.84,0,0,0-.74-1,6,6,0,0,0-1-.48,3.3,3.3,0,0,1-.66-.91c-.21-.14-.41-.31-.69-.25s-.68.15-.94-.1c-.62-.33-1.11-.85-1.72-1.19a5.46,5.46,0,0,1-1-.7c-.2-.09-.43-.1-.54.13a1.56,1.56,0,0,0-.41,1.13c-.13.77-.33,1.52-.54,2.27a7.53,7.53,0,0,1-.16.86.67.67,0,0,1-.87.29,7.38,7.38,0,0,0-1.67-.49,2.91,2.91,0,0,1-.78-.21.61.61,0,0,1-.21-.74c.12-.46.5-.85.47-1.35a4,4,0,0,0-.29-1c0-.27-.33-.23-.52-.32s-.41.17-.61.26a3,3,0,0,1-.88.35,1.47,1.47,0,0,1-.7-.54c-.12.11.31,1.08.89.83s1,.29.46.58c-.34.3-.74.54-1,.86s-.51.83-.7,1.27l-.27,1.23,1,1.52,2.28.69a4.77,4.77,0,0,1,.56,1.44c.39,1.28.81,2.55,1.17,3.83-.1,1.69-.14,3.38-.33,5.07l-.24,2.52-1.74,1-.43,4.08c.16.45.37.89.5,1.34-.08,1.42,0,2.84-.07,4.26s0,2.7-.09,4.05c0,.74,0,1.49,0,2.24,0,.24,0,.54.25.68,1,1.42,2,2.82,3.12,4.16a30.13,30.13,0,0,1,2.59,3.33c.58,1.1.06,2.34-.43,3.36a7.31,7.31,0,0,0-.75,1.75c-.45,1.8-1,3.59-1.38,5.39a9.49,9.49,0,0,0-.34,2c0,1.06-.08,2.12-.12,3.17h-.94c0,.23,0,.54-.29.44-.29.07,0,.24.07.4s-.12.53,0,.62.07.36.11.53c.32.1.21-.27.25-.47s.43,0,.62,0c.13.16,0,.45,0,.66-.07.82-.06,1.64-.13,2.45a2.33,2.33,0,0,1-.6,1,2.2,2.2,0,0,0-1.12.91c-.57.93-1,1.92-1.59,2.85-.26.2-.48.47-.83.5a4,4,0,0,0-1.39.5c-.37.26-.78.48-1.12.76a16.22,16.22,0,0,0-.75,2.36c-.27,1-.62,2-.79,3.06a2.37,2.37,0,0,1-.51,1,5.14,5.14,0,0,1-1,1.07,3.72,3.72,0,0,0-.78.78c-.27,1.85-.6,3.68-.84,5.53-.14,1-.29,1.94-.38,2.91-.48,3.14-.52,6.42-1.82,9.37,0,.34-.73.87-.3,1l8,4c8,.21,15.92,0,23.88,0q0,1.93,0,3.87c2.82,0,5.64,0,8.46,0,2.35,0,4.69,0,7,0,.1-6.59.17-13.18.11-19.77,0-2.1,0-4.21,0-6.31a1.5,1.5,0,0,0,.07-.9,2.32,2.32,0,0,1-.09-1.17c.52-3.62,1.64-7.12,2.29-10.72a.91.91,0,0,1,.62-.33,1,1,0,0,0,.43-.83c0-.23.08-.47-.18-.58a9.9,9.9,0,0,0-1.45-.43,10.93,10.93,0,0,1-.65-1.26,3.71,3.71,0,0,1-.22-1.31,21,21,0,0,1,.51-5,18.63,18.63,0,0,1,.92-2.31,11,11,0,0,0,.48-1.09c-.06-.26-.19-.53-.49-.54s-.73.17-1.09.25c-.79.25-1.54.59-2.35.76-.59-.15-1.11-.5-1.7-.65a9.73,9.73,0,0,1-1.73-.16.7.7,0,0,1-.39-.82c0-.32.11-.66-.08-.94.08-.81-.06-1.62,0-2.43,0-1,.18-2,.24-3.07a6.46,6.46,0,0,1,0-1.44l-1.12-1.48a1,1,0,0,0,.26-.69,15.68,15.68,0,0,0-.08-1.78,11.39,11.39,0,0,1,.2-1.17,1.53,1.53,0,0,1,.94-.78,5.17,5.17,0,0,1,1.33-.52,10.81,10.81,0,0,0,1.9-.69,28.34,28.34,0,0,0,2.46-2,1.23,1.23,0,0,0-.5-.64,8.52,8.52,0,0,1-.94-1.19c-.34-.46-.72-.91-1-1.4l-1-1.26c0-.31.37-.27.57-.32s.45-.31.66-.48c.49-.53,1-1,1.51-1.58A.55.55,0,0,0,322,289c-.8-.75-1.57-1.53-2.38-2.27a8.82,8.82,0,0,0-1.62-.57,4.2,4.2,0,0,1-1.25-.5c-1.15-.66-2.3-1.31-3.42-2a2.29,2.29,0,0,0-1.37-.32c-.68.17-1.38,0-2.06.07-.17-.09-.42-.22-.38-.47,0-1,.09-2,.07-3s0-1.92,0-2.88a1.17,1.17,0,0,0-.79-.8,16.67,16.67,0,0,0-3.17-1.15l-2.46,1.26c-.68-1.55-1.39-3.08-2.08-4.62-.09-.35-.37-.75-.12-1.1a1.42,1.42,0,0,1,.68-.6c.6,0,1.14.35,1.73.38a1.85,1.85,0,0,0,.85-.49,17,17,0,0,0,1.59-3.25,3.55,3.55,0,0,0-.81-3.4,1.35,1.35,0,0,1-.56-1c0-.24.17-.46.23-.69.4-.48.87-.9,1.23-1.41a2.27,2.27,0,0,0-.13-1.25l-.49-1.24c-.92-.16-.35,1.22-.8,1.59" transform="translate(-7.6 -5.26)"/><path class="cls-11" d="M304.53,259.32a3.26,3.26,0,0,1-2.23.43c-.31.17-.48.24-.62-.06a8,8,0,0,0-2.13.85c-.35.21-.78.44-.79.91a7,7,0,0,1-.51,3.29c-.16.2-.25,1-.55.79,0-.59.13-1.19.13-1.77a2.84,2.84,0,0,0-.74-1,6,6,0,0,0-1-.48,3.3,3.3,0,0,1-.66-.91c-.21-.14-.41-.31-.69-.25s-.68.15-.94-.1c-.62-.33-1.11-.85-1.72-1.19a5.46,5.46,0,0,1-1-.7c-.2-.09-.43-.1-.54.13a1.56,1.56,0,0,0-.41,1.13c-.13.77-.33,1.52-.54,2.27a7.53,7.53,0,0,1-.16.86.67.67,0,0,1-.87.29,7.38,7.38,0,0,0-1.67-.49,2.91,2.91,0,0,1-.78-.21.61.61,0,0,1-.21-.74c.12-.46.5-.85.47-1.35a4,4,0,0,0-.29-1c0-.27-.33-.23-.52-.32s-.41.17-.61.26a3,3,0,0,1-.88.35,1.47,1.47,0,0,1-.7-.54c-.12.11.31,1.08.89.83s1,.29.46.58c-.34.3-.74.54-1,.86s-.51.83-.7,1.27l-.27,1.23,1,1.52,2.28.69a4.77,4.77,0,0,1,.56,1.44c.39,1.28.81,2.55,1.17,3.83-.1,1.69-.14,3.38-.33,5.07l-.24,2.52-1.74,1-.43,4.08c.16.45.37.89.5,1.34-.08,1.42,0,2.84-.07,4.26s0,2.7-.09,4.05c0,.74,0,1.49,0,2.24,0,.24,0,.54.25.68,1,1.42,2,2.82,3.12,4.16a30.13,30.13,0,0,1,2.59,3.33c.58,1.1.06,2.34-.43,3.36a7.31,7.31,0,0,0-.75,1.75c-.45,1.8-1,3.59-1.38,5.39a9.49,9.49,0,0,0-.34,2c0,1.06-.08,2.12-.12,3.17h-.94c0,.23,0,.54-.29.44-.29.07,0,.24.07.4s-.12.53,0,.62.07.36.11.53c.32.1.21-.27.25-.47s.43,0,.62,0c.13.16,0,.45,0,.66-.07.82-.06,1.64-.13,2.45a2.33,2.33,0,0,1-.6,1,2.2,2.2,0,0,0-1.12.91c-.57.93-1,1.92-1.59,2.85-.26.2-.48.47-.83.5a4,4,0,0,0-1.39.5c-.37.26-.78.48-1.12.76a16.22,16.22,0,0,0-.75,2.36c-.27,1-.62,2-.79,3.06a2.37,2.37,0,0,1-.51,1,5.14,5.14,0,0,1-1,1.07,3.72,3.72,0,0,0-.78.78c-.27,1.85-.6,3.68-.84,5.53-.14,1-.29,1.94-.38,2.91-.48,3.14-.52,6.42-1.82,9.37,0,.34-.73.87-.3,1l8,4c8,.21,15.92,0,23.88,0q0,1.93,0,3.87c2.82,0,5.64,0,8.46,0,2.35,0,4.69,0,7,0,.1-6.59.17-13.18.11-19.77,0-2.1,0-4.21,0-6.31a1.5,1.5,0,0,0,.07-.9,2.32,2.32,0,0,1-.09-1.17c.52-3.62,1.64-7.12,2.29-10.72a.91.91,0,0,1,.62-.33,1,1,0,0,0,.43-.83c0-.23.08-.47-.18-.58a9.9,9.9,0,0,0-1.45-.43,10.93,10.93,0,0,1-.65-1.26,3.71,3.71,0,0,1-.22-1.31,21,21,0,0,1,.51-5,18.63,18.63,0,0,1,.92-2.31,11,11,0,0,0,.48-1.09c-.06-.26-.19-.53-.49-.54s-.73.17-1.09.25c-.79.25-1.54.59-2.35.76-.59-.15-1.11-.5-1.7-.65a9.73,9.73,0,0,1-1.73-.16.7.7,0,0,1-.39-.82c0-.32.11-.66-.08-.94.08-.81-.06-1.62,0-2.43,0-1,.18-2,.24-3.07a6.46,6.46,0,0,1,0-1.44l-1.12-1.48a1,1,0,0,0,.26-.69,15.68,15.68,0,0,0-.08-1.78,11.39,11.39,0,0,1,.2-1.17,1.53,1.53,0,0,1,.94-.78,5.17,5.17,0,0,1,1.33-.52,10.81,10.81,0,0,0,1.9-.69,28.34,28.34,0,0,0,2.46-2,1.23,1.23,0,0,0-.5-.64,8.52,8.52,0,0,1-.94-1.19c-.34-.46-.72-.91-1-1.4l-1-1.26c0-.31.37-.27.57-.32s.45-.31.66-.48c.49-.53,1-1,1.51-1.58A.55.55,0,0,0,322,289c-.8-.75-1.57-1.53-2.38-2.27a8.82,8.82,0,0,0-1.62-.57,4.2,4.2,0,0,1-1.25-.5c-1.15-.66-2.3-1.31-3.42-2a2.29,2.29,0,0,0-1.37-.32c-.68.17-1.38,0-2.06.07-.17-.09-.42-.22-.38-.47,0-1,.09-2,.07-3s0-1.92,0-2.88a1.17,1.17,0,0,0-.79-.8,16.67,16.67,0,0,0-3.17-1.15l-2.46,1.26c-.68-1.55-1.39-3.08-2.08-4.62-.09-.35-.37-.75-.12-1.1a1.42,1.42,0,0,1,.68-.6c.6,0,1.14.35,1.73.38a1.85,1.85,0,0,0,.85-.49,17,17,0,0,0,1.59-3.25,3.55,3.55,0,0,0-.81-3.4,1.35,1.35,0,0,1-.56-1c0-.24.17-.46.23-.69.4-.48.87-.9,1.23-1.41a2.27,2.27,0,0,0-.13-1.25l-.49-1.24C304.4,257.57,305,258.95,304.53,259.32Z" transform="translate(-7.6 -5.26)"/></g></g><g class="cls-18"><g class="cls-22"><path class="cls-20" d="M387.08,260.37c-.07.34-.23.7,0,1,.38,1.12.57,2.3.91,3.43.4.13.37.58.5.91a2.09,2.09,0,0,0,.64,1.23.7.7,0,0,1-.12,1.11c-.24.29-.77.58-1.06.19a2.93,2.93,0,0,0-1.37-.89,3.3,3.3,0,0,0-1.8.59,6,6,0,0,0-1.65,2.53c-.89,2.32-.1,4.8.21,7.15-.35,0-.23-.51-.36-.74a15,15,0,0,0-1.78.19c.36.62.95,1.82.61,2.31-.31,0-.69.1-.68-.34s-.3-.51-.6-.3l-1,.34,1.41,3c-.32.21-.69.33-1,.54-.34-.51-1,.48-1.46.6s-1.24,1.11-1.63.63c-.22-.7-.83.22-1.25.32a31.44,31.44,0,0,0-5.33,3.57c-1.44,1.45-1.57,3.59-2.43,5.36.46,2.09.62,4.22.94,6.33.19.47-.35.16-.61.16s-.56-.43-.76-.17a7.29,7.29,0,0,0-.79.11c-.4,0-.59-.45-1-.4-1.48-.2-3-.27-4.47-.4-.22.29,0,.58.15.87.71,1.15,1.48,2.26,2.27,3.36a59.82,59.82,0,0,1,3.76,5c.87,1.27,1.68,2.58,2.57,3.83a9.14,9.14,0,0,1,.84,1.69c1.86,4.19,3.7,8.39,5.64,12.55l2.13,2,2.89-3.07c-.06-.42.39-.58.61-.87a11.72,11.72,0,0,1,2-1.84c.49-.61.7,0,1,.51,2.77,4.6,6.75,8.25,10.24,12.28l1,.14c1-3.22,1.83-6.52,3-9.7a4.19,4.19,0,0,1,1.06-1.43,9.73,9.73,0,0,1,2.5-1.69c.52-.34,1.22-.16,1.71-.59,9.07-5.2,17.7-11.12,26.84-16.19a3.69,3.69,0,0,1,1.17-1c3-1.86,6.05-3.68,9.06-5.56.9-.59,1.78-1.23,2.69-1.8a7.06,7.06,0,0,0,1.82-1c1.61-1,3.22-2,4.88-3a48.73,48.73,0,0,0,8.07-6.41c1.3-1.29,2.34-2.81,3.52-4.21a18.84,18.84,0,0,0,3.78-7.41c0-.6.39-.58.84-.54a5.76,5.76,0,0,1,1.17.51.93.93,0,0,0,.77.4c.26,0,.74.3.82,0a8.07,8.07,0,0,0,.3-1.6,14.1,14.1,0,0,1,1.33-3,17.61,17.61,0,0,1,1.58-2.4c1.74-2.2,3.64-4.28,5.49-6.41,3.95-4.47,8-8.87,11.92-13.33a16,16,0,0,1-1.27-1.1c-.14-.27-.39.51-.57-.05-.37-.41-.8-.78-1.13-1.21A8.76,8.76,0,0,1,487,244a3.63,3.63,0,0,0-1.45-1.71c-.44-.33-1-.53-1.38-.9s-.55-.16-.81-.27-.63-.55-1-.75c-.55-.41-1.25-.54-1.8-1a7.46,7.46,0,0,1-1.37-1l-1.87-1.27-.54-2.1a11,11,0,0,0-1.88,1.86,5.18,5.18,0,0,0-1.07,1.39,9.83,9.83,0,0,0-.44,1.88c.06.32.41.37.69.39a2.51,2.51,0,0,0,1.41,0c.29,0,.62-.25.9-.15.44.14-.19.41-.4.45s-.53.39-.81.42-.46.14-.69.27a1.79,1.79,0,0,0-1.12.19c-.29.87-.53,1.77-.84,2.63-.19.35-.54-.07-.78-.16-1-.57-1.94-1.09-2.88-1.66-.31-.1-.52-.38-.84-.47-.84-.45-1.64-1-2.51-1.4-2.31-.85-4.38-2.5-6.91-2.63l-3.53.43c-1.29-.59-2.74-.48-4.1-.72-.37-.26-.66.21-1,.27s-.78.2-1.15.17-.11-.79-.56-.78c-.29-.07-.37-.49-.68-.57s-.5-.33-.78-.37-.72,0-1-.24c-.79-.1-1.26-.86-2-1.11s-1.83-.36-2.47-1.09c-.26-.24.27-.58.37-.87l1.31-2-1-.68-2.46,3.72c.41.23.43.29,0,.13a4.49,4.49,0,0,1-1.37-.49c-.58.18-1.16.43-1.74.57-1.8-.24-3.59-.54-5.37-.86-1,.51-2,1.09-3,1.55l-3.93,1.34a23.64,23.64,0,0,0-.76,4.06,1.83,1.83,0,0,1-.56,1.25c-1.31,1.4-2.65,2.78-3.94,4.2l-1.6,3.57c-2,.38-4,.8-6,1.15-.46,0-.79-.36-1.14-.61-.61-1.25-1.18-2.53-1.83-3.77-.9-1.22-1.85-2.42-2.73-3.66a4.86,4.86,0,0,0-1.29-1.78c-.2-.39-.53-.12-.52.22a2.27,2.27,0,0,1-.3,1.17c-.25.65-1,.88-1.49,1.27-.83.16-1.63.51-2.46.67a13.84,13.84,0,0,1-4.14.64,1.7,1.7,0,0,1-1.42-.51c-.13-.23-.53-.39-.63-.06-.19.51.31,1.06,0,1.55a2.56,2.56,0,0,1-1.53,1.17,10.74,10.74,0,0,1-1.18.51,7.06,7.06,0,0,1-1.53-.8,3.94,3.94,0,0,1-1.29-1,.41.41,0,0,0-.71.23c.3.6,1,1.22,1,2,.14.59-.05,1.29.39,1.77a1.56,1.56,0,0,1,.34,1.28c.07.83-.72,1.32-1,2-.08.35.18.75,0,1.09a4.12,4.12,0,0,1-.85,1.36c-.18.66-.7,1.18-.8,1.87a3.76,3.76,0,0,0-.22,2.56c.08.34.2.6.57.38a4.5,4.5,0,0,1,.58,0" transform="translate(-7.6 -5.26)"/><path class="cls-11" d="M387.08,260.37c-.07.34-.23.7,0,1,.38,1.12.57,2.3.91,3.43.4.13.37.58.5.91a2.09,2.09,0,0,0,.64,1.23.7.7,0,0,1-.12,1.11c-.24.29-.77.58-1.06.19a2.93,2.93,0,0,0-1.37-.89,3.3,3.3,0,0,0-1.8.59,6,6,0,0,0-1.65,2.53c-.89,2.32-.1,4.8.21,7.15-.35,0-.23-.51-.36-.74a15,15,0,0,0-1.78.19c.36.62.95,1.82.61,2.31-.31,0-.69.1-.68-.34s-.3-.51-.6-.3l-1,.34,1.41,3c-.32.21-.69.33-1,.54-.34-.51-1,.48-1.46.6s-1.24,1.11-1.63.63c-.22-.7-.83.22-1.25.32a31.44,31.44,0,0,0-5.33,3.57c-1.44,1.45-1.57,3.59-2.43,5.36.46,2.09.62,4.22.94,6.33.19.47-.35.16-.61.16s-.56-.43-.76-.17a7.29,7.29,0,0,0-.79.11c-.4,0-.59-.45-1-.4-1.48-.2-3-.27-4.47-.4-.22.29,0,.58.15.87.71,1.15,1.48,2.26,2.27,3.36a59.82,59.82,0,0,1,3.76,5c.87,1.27,1.68,2.58,2.57,3.83a9.14,9.14,0,0,1,.84,1.69c1.86,4.19,3.7,8.39,5.64,12.55l2.13,2,2.89-3.07c-.06-.42.39-.58.61-.87a11.72,11.72,0,0,1,2-1.84c.49-.61.7,0,1,.51,2.77,4.6,6.75,8.25,10.24,12.28l1,.14c1-3.22,1.83-6.52,3-9.7a4.19,4.19,0,0,1,1.06-1.43,9.73,9.73,0,0,1,2.5-1.69c.52-.34,1.22-.16,1.71-.59,9.07-5.2,17.7-11.12,26.84-16.19a3.69,3.69,0,0,1,1.17-1c3-1.86,6.05-3.68,9.06-5.56.9-.59,1.78-1.23,2.69-1.8a7.06,7.06,0,0,0,1.82-1c1.61-1,3.22-2,4.88-3a48.73,48.73,0,0,0,8.07-6.41c1.3-1.29,2.34-2.81,3.52-4.21a18.84,18.84,0,0,0,3.78-7.41c0-.6.39-.58.84-.54a5.76,5.76,0,0,1,1.17.51.93.93,0,0,0,.77.4c.26,0,.74.3.82,0a8.07,8.07,0,0,0,.3-1.6,14.1,14.1,0,0,1,1.33-3,17.61,17.61,0,0,1,1.58-2.4c1.74-2.2,3.64-4.28,5.49-6.41,3.95-4.47,8-8.87,11.92-13.33a16,16,0,0,1-1.27-1.1c-.14-.27-.39.51-.57-.05-.37-.41-.8-.78-1.13-1.21A8.76,8.76,0,0,1,487,244a3.63,3.63,0,0,0-1.45-1.71c-.44-.33-1-.53-1.38-.9s-.55-.16-.81-.27-.63-.55-1-.75c-.55-.41-1.25-.54-1.8-1a7.46,7.46,0,0,1-1.37-1l-1.87-1.27-.54-2.1a11,11,0,0,0-1.88,1.86,5.18,5.18,0,0,0-1.07,1.39,9.83,9.83,0,0,0-.44,1.88c.06.32.41.37.69.39a2.51,2.51,0,0,0,1.41,0c.29,0,.62-.25.9-.15.44.14-.19.41-.4.45s-.53.39-.81.42-.46.14-.69.27a1.79,1.79,0,0,0-1.12.19c-.29.87-.53,1.77-.84,2.63-.19.35-.54-.07-.78-.16-1-.57-1.94-1.09-2.88-1.66-.31-.1-.52-.38-.84-.47-.84-.45-1.64-1-2.51-1.4-2.31-.85-4.38-2.5-6.91-2.63l-3.53.43c-1.29-.59-2.74-.48-4.1-.72-.37-.26-.66.21-1,.27s-.78.2-1.15.17-.11-.79-.56-.78c-.29-.07-.37-.49-.68-.57s-.5-.33-.78-.37-.72,0-1-.24c-.79-.1-1.26-.86-2-1.11s-1.83-.36-2.47-1.09c-.26-.24.27-.58.37-.87l1.31-2-1-.68-2.46,3.72c.41.23.43.29,0,.13a4.49,4.49,0,0,1-1.37-.49c-.58.18-1.16.43-1.74.57-1.8-.24-3.59-.54-5.37-.86-1,.51-2,1.09-3,1.55l-3.93,1.34a23.64,23.64,0,0,0-.76,4.06,1.83,1.83,0,0,1-.56,1.25c-1.31,1.4-2.65,2.78-3.94,4.2l-1.6,3.57c-2,.38-4,.8-6,1.15-.46,0-.79-.36-1.14-.61-.61-1.25-1.18-2.53-1.83-3.77-.9-1.22-1.85-2.42-2.73-3.66a4.86,4.86,0,0,0-1.29-1.78c-.2-.39-.53-.12-.52.22a2.27,2.27,0,0,1-.3,1.17c-.25.65-1,.88-1.49,1.27-.83.16-1.63.51-2.46.67a13.84,13.84,0,0,1-4.14.64,1.7,1.7,0,0,1-1.42-.51c-.13-.23-.53-.39-.63-.06-.19.51.31,1.06,0,1.55a2.56,2.56,0,0,1-1.53,1.17,10.74,10.74,0,0,1-1.18.51,7.06,7.06,0,0,1-1.53-.8,3.94,3.94,0,0,1-1.29-1,.41.41,0,0,0-.71.23c.3.6,1,1.22,1,2,.14.59-.05,1.29.39,1.77a1.56,1.56,0,0,1,.34,1.28c.07.83-.72,1.32-1,2-.08.35.18.75,0,1.09a4.12,4.12,0,0,1-.85,1.36c-.18.66-.7,1.18-.8,1.87a3.76,3.76,0,0,0-.22,2.56c.08.34.2.6.57.38A4.5,4.5,0,0,1,387.08,260.37Z" transform="translate(-7.6 -5.26)"/></g></g><g class="cls-8"><g class="cls-23"><path class="cls-10" d="M382,324.14c-.22.29-.67.44-.61.87l-2.89,3.07-2.13-2c-1.34,6.2-2.34,12.46-3.4,18.72.4.31.44.87.65,1.3l-.18,1.41c-.87.05-1.73-.13-2.59-.14a9.27,9.27,0,0,0-2.5,1.52A39.63,39.63,0,0,0,362,355c3.22.05,6.43.11,9.65.21,0,6.41,0,12.82-.14,19.22,2.34,0,4.69-.05,7-.11.28,0,.76-.15.64.3q.06,1.77.13,3.53c2.29-1.31,4.56-2.66,6.86-4,1.95-1,3.84-2,5.77-3,2.29-1.35,4.53-2.78,6.86-4.06,1-.55,1.95-1.14,2.91-1.73.19.21.3.66.65.43a7.37,7.37,0,0,0,1.81-1.23c1.23-.94,2.42-1.93,3.68-2.84l5.71-3.59c0-.29-.21-.67.17-.79a15.46,15.46,0,0,1,3.53-1.8c1-.39,1.9-.88,2.88-1.23a7.46,7.46,0,0,1,3.79-.16,7.76,7.76,0,0,1,5.1,3.65c1.86,3.23,2.63,6.93,3.45,10.52.43,1.91.76,3.84,1.36,5.71a3.08,3.08,0,0,1,.78-.42c.72-.37,1.06-1.17,1.62-1.72.4-.41.76-.9,1.19-1.27.56-.14,1.16-.21,1.68-.39.29-.23,0-.6,0-.91l-.38-1.73,1.19-1.16c-.24-.24.19-.52.26-.79a33,33,0,0,1,2.16-3.19,8.17,8.17,0,0,1,1.19-1.44,20.14,20.14,0,0,0,2,.76c0,.37.43.34.68.49a8.67,8.67,0,0,1,2.16,1c.57.44,1.1.93,1.68,1.36.93.7,2,1.24,2.92,1.88.81-1.79,1.62-3.59,2.35-5.42.43-.25.54-.79.81-1.17.51-.88,1-1.79,1.5-2.64a1.63,1.63,0,0,0,.74-.71q3-4.6,6-9.17c.7-1.24,1.37-2.49,2-3.79a32.6,32.6,0,0,0,1.68-4.26,35.83,35.83,0,0,0,1.09-3.91,130.12,130.12,0,0,0,4.2-32.46,34,34,0,0,0-.12-4c-.14-1.13-.07-2.27-.11-3.4s-.06-2.19-.11-3.28c.24-.13,0-.57.09-.83-.07-3.46-.19-6.91-.19-10.37l0-1.48c-.18-.06-.18-.62,0-.68a15.1,15.1,0,0,1,.21-2.64c.57.1.19-1,.42-1.39a23.14,23.14,0,0,1,5-11.87c-.11-.31-.25-.66-.48-.21-1.31,1.5-2.67,3-3.94,4.5a24.5,24.5,0,0,0-2.36,3.31,11.12,11.12,0,0,0-1.14,2.21,5.43,5.43,0,0,0-.52,1.85c-.06.36-.18.7-.26,1.06a11.51,11.51,0,0,1-1.26-.25c-.33-.42-.89-.54-1.34-.79-.27.05-.71-.12-.86.09-.36,1.07-.66,2.17-1.07,3.23a18.76,18.76,0,0,1-1.61,2.95c-1,1.43-2.11,2.78-3.19,4.15a37.59,37.59,0,0,1-5.54,5.26,45.19,45.19,0,0,1-6.11,4.09c-1.42.89-2.83,1.81-4.26,2.68a5.73,5.73,0,0,0-1.69,1c-2.07,1.44-4.26,2.69-6.4,4-1.54.95-3.09,1.87-4.61,2.84a3,3,0,0,1-1.16,1c-9.1,5.07-17.67,11-26.73,16.14a3.61,3.61,0,0,0-1.5.46,10.36,10.36,0,0,0-2.52,1.78,7,7,0,0,0-.86,1.3c-1.09,3.17-1.92,6.42-2.93,9.61l-1-.14c-3.7-4.26-8-8.14-10.73-13.12a8.39,8.39,0,0,0-1.71,1.4l-.75.77" transform="translate(-7.6 -5.26)"/><path class="cls-11" d="M382,324.14c-.22.29-.67.44-.61.87l-2.89,3.07-2.13-2c-1.34,6.2-2.34,12.46-3.4,18.72.4.31.44.87.65,1.3l-.18,1.41c-.87.05-1.73-.13-2.59-.14a9.27,9.27,0,0,0-2.5,1.52A39.63,39.63,0,0,0,362,355c3.22.05,6.43.11,9.65.21,0,6.41,0,12.82-.14,19.22,2.34,0,4.69-.05,7-.11.28,0,.76-.15.64.3q.06,1.77.13,3.53c2.29-1.31,4.56-2.66,6.86-4,1.95-1,3.84-2,5.77-3,2.29-1.35,4.53-2.78,6.86-4.06,1-.55,1.95-1.14,2.91-1.73.19.21.3.66.65.43a7.37,7.37,0,0,0,1.81-1.23c1.23-.94,2.42-1.93,3.68-2.84l5.71-3.59c0-.29-.21-.67.17-.79a15.46,15.46,0,0,1,3.53-1.8c1-.39,1.9-.88,2.88-1.23a7.46,7.46,0,0,1,3.79-.16,7.76,7.76,0,0,1,5.1,3.65c1.86,3.23,2.63,6.93,3.45,10.52.43,1.91.76,3.84,1.36,5.71a3.08,3.08,0,0,1,.78-.42c.72-.37,1.06-1.17,1.62-1.72.4-.41.76-.9,1.19-1.27.56-.14,1.16-.21,1.68-.39.29-.23,0-.6,0-.91l-.38-1.73,1.19-1.16c-.24-.24.19-.52.26-.79a33,33,0,0,1,2.16-3.19,8.17,8.17,0,0,1,1.19-1.44,20.14,20.14,0,0,0,2,.76c0,.37.43.34.68.49a8.67,8.67,0,0,1,2.16,1c.57.44,1.1.93,1.68,1.36.93.7,2,1.24,2.92,1.88.81-1.79,1.62-3.59,2.35-5.42.43-.25.54-.79.81-1.17.51-.88,1-1.79,1.5-2.64a1.63,1.63,0,0,0,.74-.71q3-4.6,6-9.17c.7-1.24,1.37-2.49,2-3.79a32.6,32.6,0,0,0,1.68-4.26,35.83,35.83,0,0,0,1.09-3.91,130.12,130.12,0,0,0,4.2-32.46,34,34,0,0,0-.12-4c-.14-1.13-.07-2.27-.11-3.4s-.06-2.19-.11-3.28c.24-.13,0-.57.09-.83-.07-3.46-.19-6.91-.19-10.37l0-1.48c-.18-.06-.18-.62,0-.68a15.1,15.1,0,0,1,.21-2.64c.57.1.19-1,.42-1.39a23.14,23.14,0,0,1,5-11.87c-.11-.31-.25-.66-.48-.21-1.31,1.5-2.67,3-3.94,4.5a24.5,24.5,0,0,0-2.36,3.31,11.12,11.12,0,0,0-1.14,2.21,5.43,5.43,0,0,0-.52,1.85c-.06.36-.18.7-.26,1.06a11.51,11.51,0,0,1-1.26-.25c-.33-.42-.89-.54-1.34-.79-.27.05-.71-.12-.86.09-.36,1.07-.66,2.17-1.07,3.23a18.76,18.76,0,0,1-1.61,2.95c-1,1.43-2.11,2.78-3.19,4.15a37.59,37.59,0,0,1-5.54,5.26,45.19,45.19,0,0,1-6.11,4.09c-1.42.89-2.83,1.81-4.26,2.68a5.73,5.73,0,0,0-1.69,1c-2.07,1.44-4.26,2.69-6.4,4-1.54.95-3.09,1.87-4.61,2.84a3,3,0,0,1-1.16,1c-9.1,5.07-17.67,11-26.73,16.14a3.61,3.61,0,0,0-1.5.46,10.36,10.36,0,0,0-2.52,1.78,7,7,0,0,0-.86,1.3c-1.09,3.17-1.92,6.42-2.93,9.61l-1-.14c-3.7-4.26-8-8.14-10.73-13.12a8.39,8.39,0,0,0-1.71,1.4Z" transform="translate(-7.6 -5.26)"/></g></g><g class="cls-18"><g class="cls-24"><path class="cls-20" d="M427.22,423.82c.77-2.08,0-4.29.27-6.43s1-4.21,1.24-6.35c-.06-3.67.27-7.39-.5-11-.07-.84-.69-1.54-.87-2.3v-2.21c1-2,2.56-3.7,3.25-5.84.31-1.14-.18-2.25-.4-3.36a2.38,2.38,0,0,1-.08-1.06c.42-.61.68-1.3,1.09-1.91-.2-.09,0-.48-.22-.69a5.25,5.25,0,0,1-.47-1.12,3.13,3.13,0,0,1-1.87-1.07c-.35-.29-.18-.8-.34-1.18a9.72,9.72,0,0,0-.79-2.19.34.34,0,0,1,.12-.64,1.76,1.76,0,0,1,1-.33c.58-.24,1.06-.75,1.71-.77a6.1,6.1,0,0,0,1.35-.29,2,2,0,0,0,1.09-.4,7.9,7.9,0,0,1,1-.6c-.92-3-1.36-6.18-2.18-9.24-.76-2.8-1.57-5.72-3.37-8.06A8.06,8.06,0,0,0,422.4,354a9.16,9.16,0,0,0-2.57.43c-1.59.74-3.22,1.38-4.81,2.13a7.8,7.8,0,0,0-1.55,1c0,.29.22.68-.18.77-1.93,1.22-3.88,2.41-5.79,3.66-1.52,1.18-3,2.38-4.56,3.56a2.25,2.25,0,0,1-.88.36c-.19-.2-.31-.7-.62-.35-2.27,1.42-4.67,2.66-6.94,4.09-1.34.82-2.68,1.65-4.08,2.35-1.56.83-3.12,1.68-4.7,2.48l-6.43,3.72q-.07-1.91-.14-3.83c-2.15,0-4.3.11-6.45.1h-1.21c.14-6.41.15-12.81.14-19.22-3.23-.1-6.47-.18-9.69-.2a4.41,4.41,0,0,1-1.61.24c-3.69,0-7.38-.14-11.07-.16l-4.44,0c.22,4-.23,8,0,12-.14,8,0,15.92-.14,23.87a3.66,3.66,0,0,0-2,.66,1.35,1.35,0,0,1-.89.37l-3.86-2-1.08.76,2.53,3h1.41c.05.27.28.6.24.82a6.24,6.24,0,0,0,.4.91,2,2,0,0,0,.69.91L330,408.68a3.59,3.59,0,0,0-1.17.9,44,44,0,0,1-3.22,3.2,11.24,11.24,0,0,1-1,.89c-4.81-.07-9.63-.12-14.44-.22V421q3.79,0,7.59.11c-.16,7.65-.25,15.29-.22,22.94,2.46,0,4.91.11,7.37.14l-.54,1a7.92,7.92,0,0,1,.58,1.22c.06,3.68,0,7.35,0,11l1.65,0q0-3.73,0-7.46l7.54-.05q0,2.94-.06,5.89l-5.55-.08c0,.59-.06,1.18-.1,1.77l5.73.07c0,.49,0,1,0,1.45-3.23,0-6.46,0-9.69,0l-3.13-.09c0,.62,0,1.23,0,1.84,1.69.11,3.37.28,5.06.35,1.54-.12,3.08-.19,4.61-.34l6.55-1.78q-.09-1.43-.18-2.85c-.25,0-.74.22-.83,0q0-2.3-.07-4.6c.19-.39.34-.83.83-.94a6.39,6.39,0,0,1,4.52-.21c1.77,1.07,4.12,1.15,5.53,2.82v2.42c.23-.08.73.1.79-.14,0-1.27,0-2.55,0-3.81,0-.26-.36-.75.13-.59.34,0,.62,0,.5.42q0,2,0,4.08c.67.12.78-.26.62-.89,0-1.25-.21-2.72.72-3.71s2.4-.82,3.63-1c3.41-.8,6.93-1.83,10.46-1.2a9.63,9.63,0,0,1,2.5.81,23,23,0,0,1,.07,2.79v2.73c.24,0,.78.22.65-.21q0-2.37-.07-4.74h1a4.56,4.56,0,0,1,0,1.72,14.35,14.35,0,0,0-.15,3c-.12.29.65.4.47,0q0-1.09,0-2.17a2,2,0,0,0,.55-1,1.28,1.28,0,0,0,0-1,1.87,1.87,0,0,1,1.14-.69c3.71-1.07,7.69-1.92,11.51-1,.28.14.53.3.55.64s.44.58.34.95c0,.7,0,1.4,0,2.11.19.29.48.26.69,0,0-1.17,0-2.35.06-3.51a1.56,1.56,0,0,0,.12-1c4.14-1.29,8.55-3.42,13-2.6a1.47,1.47,0,0,1,.81.65c.29.22.09.54,0,.83l-.58,2.38c.29.22.54.35.54-.12l.83-2.91c.24-.19.42-.53.77-.43h6.62c1.06,0-.29,5.69.77,5.55.15-.95-.32-3.63,1.11-3.66.8.08,7.57,3.08,8.37,3.11.76-.15.62,2.65,1.37,2.47.27-.11-.06-3.85.23-3.61l1.57,0c.66-.12-.1,3,.57,2.85.95-.16,6.08-.89,7.05-.85l2.16-1.91-1.46-2.36a16.29,16.29,0,0,0-1.1-3.63c-.1-3-.17-6-.29-9-.42-1.5-.86-3-1.25-4.48-.08-.39.46-.32.7-.4s.76,0,1-.27c.44-.65.05-1.43,0-2.14a8.46,8.46,0,0,1,.64-3.32l.18-.51" transform="translate(-7.6 -5.26)"/><path class="cls-11" d="M427.22,423.82c.77-2.08,0-4.29.27-6.43s1-4.21,1.24-6.35c-.06-3.67.27-7.39-.5-11-.07-.84-.69-1.54-.87-2.3v-2.21c1-2,2.56-3.7,3.25-5.84.31-1.14-.18-2.25-.4-3.36a2.38,2.38,0,0,1-.08-1.06c.42-.61.68-1.3,1.09-1.91-.2-.09,0-.48-.22-.69a5.25,5.25,0,0,1-.47-1.12,3.13,3.13,0,0,1-1.87-1.07c-.35-.29-.18-.8-.34-1.18a9.72,9.72,0,0,0-.79-2.19.34.34,0,0,1,.12-.64,1.76,1.76,0,0,1,1-.33c.58-.24,1.06-.75,1.71-.77a6.1,6.1,0,0,0,1.35-.29,2,2,0,0,0,1.09-.4,7.9,7.9,0,0,1,1-.6c-.92-3-1.36-6.18-2.18-9.24-.76-2.8-1.57-5.72-3.37-8.06A8.06,8.06,0,0,0,422.4,354a9.16,9.16,0,0,0-2.57.43c-1.59.74-3.22,1.38-4.81,2.13a7.8,7.8,0,0,0-1.55,1c0,.29.22.68-.18.77-1.93,1.22-3.88,2.41-5.79,3.66-1.52,1.18-3,2.38-4.56,3.56a2.25,2.25,0,0,1-.88.36c-.19-.2-.31-.7-.62-.35-2.27,1.42-4.67,2.66-6.94,4.09-1.34.82-2.68,1.65-4.08,2.35-1.56.83-3.12,1.68-4.7,2.48l-6.43,3.72q-.07-1.91-.14-3.83c-2.15,0-4.3.11-6.45.1h-1.21c.14-6.41.15-12.81.14-19.22-3.23-.1-6.47-.18-9.69-.2a4.41,4.41,0,0,1-1.61.24c-3.69,0-7.38-.14-11.07-.16l-4.44,0c.22,4-.23,8,0,12-.14,8,0,15.92-.14,23.87a3.66,3.66,0,0,0-2,.66,1.35,1.35,0,0,1-.89.37l-3.86-2-1.08.76,2.53,3h1.41c.05.27.28.6.24.82a6.24,6.24,0,0,0,.4.91,2,2,0,0,0,.69.91L330,408.68a3.59,3.59,0,0,0-1.17.9,44,44,0,0,1-3.22,3.2,11.24,11.24,0,0,1-1,.89c-4.81-.07-9.63-.12-14.44-.22V421q3.79,0,7.59.11c-.16,7.65-.25,15.29-.22,22.94,2.46,0,4.91.11,7.37.14l-.54,1a7.92,7.92,0,0,1,.58,1.22c.06,3.68,0,7.35,0,11l1.65,0q0-3.73,0-7.46l7.54-.05q0,2.94-.06,5.89l-5.55-.08c0,.59-.06,1.18-.1,1.77l5.73.07c0,.49,0,1,0,1.45-3.23,0-6.46,0-9.69,0l-3.13-.09c0,.62,0,1.23,0,1.84,1.69.11,3.37.28,5.06.35,1.54-.12,3.08-.19,4.61-.34l6.55-1.78q-.09-1.43-.18-2.85c-.25,0-.74.22-.83,0q0-2.3-.07-4.6c.19-.39.34-.83.83-.94a6.39,6.39,0,0,1,4.52-.21c1.77,1.07,4.12,1.15,5.53,2.82v2.42c.23-.08.73.1.79-.14,0-1.27,0-2.55,0-3.81,0-.26-.36-.75.13-.59.34,0,.62,0,.5.42q0,2,0,4.08c.67.12.78-.26.62-.89,0-1.25-.21-2.72.72-3.71s2.4-.82,3.63-1c3.41-.8,6.93-1.83,10.46-1.2a9.63,9.63,0,0,1,2.5.81,23,23,0,0,1,.07,2.79v2.73c.24,0,.78.22.65-.21q0-2.37-.07-4.74h1a4.56,4.56,0,0,1,0,1.72,14.35,14.35,0,0,0-.15,3c-.12.29.65.4.47,0q0-1.09,0-2.17a2,2,0,0,0,.55-1,1.28,1.28,0,0,0,0-1,1.87,1.87,0,0,1,1.14-.69c3.71-1.07,7.69-1.92,11.51-1,.28.14.53.3.55.64s.44.58.34.95c0,.7,0,1.4,0,2.11.19.29.48.26.69,0,0-1.17,0-2.35.06-3.51a1.56,1.56,0,0,0,.12-1c4.14-1.29,8.55-3.42,13-2.6a1.47,1.47,0,0,1,.81.65c.29.22.09.54,0,.83l-.58,2.38c.29.22.54.35.54-.12l.83-2.91c.24-.19.42-.53.77-.43h6.62c1.06,0-.29,5.69.77,5.55.15-.95-.32-3.63,1.11-3.66.8.08,7.57,3.08,8.37,3.11.76-.15.62,2.65,1.37,2.47.27-.11-.06-3.85.23-3.61l1.57,0c.66-.12-.1,3,.57,2.85.95-.16,6.08-.89,7.05-.85l2.16-1.91-1.46-2.36a16.29,16.29,0,0,0-1.1-3.63c-.1-3-.17-6-.29-9-.42-1.5-.86-3-1.25-4.48-.08-.39.46-.32.7-.4s.76,0,1-.27c.44-.65.05-1.43,0-2.14a8.46,8.46,0,0,1,.64-3.32Z" transform="translate(-7.6 -5.26)"/></g></g></g><text class="cls-25" transform="translate(79.37 194.97)">Sarri- </text><text class="cls-25" transform="translate(24.37 212.87)">Sant Gervasi </text><text class="cls-25" transform="translate(56.97 314.32)">Les Corts</text><text class="cls-26" transform="translate(386.28 266.74)">Nou <tspan x="-4.99" y="24">Barris</tspan></text><text class="cls-25" transform="translate(361.6 211.93)">Horta - </text><text class="cls-25" transform="translate(427.11 212.9)">Guinard</text><text class="cls-25" transform="translate(469.12 329.5)">Sant </text><text class="cls-25" transform="translate(515.78 329.9)">Andreu</text><text class="cls-5" transform="translate(291.21 176.74)">Grcia</text><text class="cls-25" transform="translate(85.15 446.31)">Sants - Montjuc</text><text class="cls-25" transform="translate(237.53 380.47)">Eixample</text><text class="cls-25" transform="translate(426.95 421.88)">Sant Mart</text><g class="cls-7"><path class="cls-27" d="M284.41,473.19c0,17,11.52,30.78,25.75,30.78" transform="translate(-7.6 -5.26)"/><polygon class="cls-28" points="297.52 502.2 308.64 498.54 298.54 493.78 300.63 498.54 297.52 502.2"/></g><text class="cls-29" transform="translate(310.96 501.62)">Tasa mxima: en Ciutat <tspan class="cls-30" x="263.31" y="0">V</tspan><tspan class="cls-31" x="277.39" y="0">ella</tspan></text><text class="cls-29" transform="translate(311.96 521.64)">es de 186 incidencias</text><g class="cls-32"><g class="cls-33"><path class="cls-16" d="M162.54,68.36" transform="translate(-7.6 -5.26)"/><path class="cls-16" d="M162.54,90.29" transform="translate(-7.6 -5.26)"/><path class="cls-27" d="M162.54,68.36" transform="translate(-7.6 -5.26)"/><path class="cls-27" d="M162.54,90.29" transform="translate(-7.6 -5.26)"/><g class="cls-14"><g class="cls-33"><polyline class="cls-16" points="153.95 88.32 3.85 88.32 3.85 63.1 153.95 63.1"/><polyline class="cls-11" points="154.95 88.32 4.86 88.32 4.86 63.1 154.95 63.1"/></g></g></g><g class="cls-34"><line class="cls-10" x1="305.04" y1="85.03" x2="305.04" y2="63.1"/><line class="cls-27" x1="305.04" y1="85.03" x2="305.04" y2="63.1"/><g class="cls-8"><g class="cls-34"><rect class="cls-10" x="155.28" y="63.6" width="150.09" height="25.22"/><polyline class="cls-11" points="154.95 63.1 305.04 63.1 305.04 88.32 154.95 88.32"/></g></g></g><g class="cls-35"><line class="cls-20" x1="455.13" y1="85.03" x2="455.13" y2="63.1"/><line class="cls-27" x1="455.13" y1="85.03" x2="455.13" y2="63.1"/><g class="cls-18"><g class="cls-35"><rect class="cls-20" x="305.04" y="63.1" width="150.09" height="25.22"/><rect class="cls-11" x="305.04" y="63.1" width="150.09" height="25.22"/></g></g></g><line class="cls-17" x1="605.21" y1="85.03" x2="605.21" y2="63.1"/><line class="cls-27" x1="605.21" y1="85.03" x2="605.21" y2="63.1"/><rect class="cls-17" x="455.13" y="63.1" width="150.09" height="25.22"/><rect class="cls-11" x="455.13" y="63.1" width="150.09" height="25.22"/></g><g class="cls-36"><rect class="cls-37" x="511.86" y="553.46" width="120.29" height="18.28"/><path class="cls-38" d="M616,562.8h-4.61v.58l1.21.29v8.51a1,1,0,0,1-.85.43,1.81,1.81,0,0,1-1.5-1.1l-1.15-2.06A2.39,2.39,0,0,0,607,568v-.14a2.82,2.82,0,0,0,2.91-2.62c0-1.77-1.61-2.46-3.47-2.46h-4.19v.58l1.36.29v8.62h0l-1.57.3-3.92-10.69a4.92,4.92,0,0,1-1.41,1.21l.15.43-3.57,8.76-1.08.29v.58h3.25v-.58l-1.06-.28,1.21-3.19h3.32l1.17,3.17-1.25.3v.58h7.93v-.58l-1.33-.28v-4a2,2,0,0,1,1.77,1.3l1.57,2.81a2.54,2.54,0,0,0,2.28,1.38,2.24,2.24,0,0,0,1.49-.62h3.55a5.33,5.33,0,0,0,5.47-5.18c0-3-2.34-5.18-5.57-5.18m-20.13,5.51,1.4-3.68,1.35,3.68Zm10.27-.78h-.71v-3.86h.88a1.74,1.74,0,0,1,1.81,1.85,2,2,0,0,1-2,2m9.75,4.78h-1.48v-8.64h1.52c2.35,0,3.8,1.63,3.8,4.32s-1.5,4.32-3.84,4.32" transform="translate(-7.6 -5.26)"/><path class="cls-38" d="M540.31,572.31l-3.83-10.41a4.91,4.91,0,0,1-1.41,1.21l.15.43-3.57,8.76-.76.29-.23.58h3.17v-.58l-1.07-.28,1.21-3.19h3.32l1.16,3.17-1.25.3v.58h4.25v-.58Zm-6.08-4,1.4-3.68,1.35,3.68Z" transform="translate(-7.6 -5.26)"/><polygon class="cls-38" points="523.58 565.28 523.2 565.06 520.96 567.11 519.04 567.11 519.04 558.41 520.19 558.12 520.19 557.54 516.07 557.54 516.07 558.12 517.23 558.42 517.23 567.04 516.07 567.33 516.07 567.91 522.55 567.91 523.58 565.28"/><polygon class="cls-38" points="541.59 557.54 541.59 558.12 542.84 558.41 540.13 565.35 537.28 558.4 538.62 558.12 538.62 557.54 534.02 557.54 534.02 558.12 535.33 558.41 539.43 568.27 539.87 568.27 543.94 558.42 543.98 558.42 545.25 558.12 545.25 557.54 541.59 557.54"/><path class="cls-38" d="M590.06,562.8v.58l1.24.29s.09,5.14,0,6.44a2.62,2.62,0,0,1-2.79,2.53,2.58,2.58,0,0,1-2.79-2.66v-6.33l1.2-.27v-.58H582.8v.58l1.18.28V570a3.82,3.82,0,0,0,4.12,3.63c2.27,0,4-1.33,4.12-3.63l.08-6.36,1.22-.29v-.58Z" transform="translate(-7.6 -5.26)"/><path class="cls-38" d="M635.09,572.29l-3.81-10.38a4.92,4.92,0,0,1-1.41,1.21l.15.43-3.58,8.8-.61.25-.83-.26v-8.66l1.27-.29v-.58h-4.34v.58l1.25.3v8.63l-1.2.28v.58h6.63v-.58l-1.07-.28,1.21-3.19h3.32l1.16,3.17-1.25.3v.58h4.26v-.58Zm-6.06-4,1.4-3.68,1.35,3.68Z" transform="translate(-7.6 -5.26)"/><path class="cls-38" d="M567.79,562.8v.58l1.27.3.08,6.78-6.5-7.66h-2.77v.58l1.26.28.11.05-.09,8.58h0l-1.28.3-3.92-10.69a4.93,4.93,0,0,1-1.41,1.21l.15.43-3.58,8.76-1.08.29v.58h3.25v-.58l-1.07-.28,1.21-3.19h3.32l1.16,3.17-1.25.3v.58h6.82v-.58l-1.34-.29-.08-7.5,7.42,8.73H570l.1-9.86,1.26-.29v-.58Zm-14.11,5.51,1.4-3.68,1.35,3.68Z" transform="translate(-7.6 -5.26)"/><path class="cls-38" d="M578.7,567.87v.58l1.17.29v3.34a3.89,3.89,0,0,1-2.34.78c-2.36,0-3.86-2-3.86-4.73s1.48-4.95,3.9-4.95A3.7,3.7,0,0,1,581,566l.33-.2v-3.28l-.3-.17-.63.79a6.54,6.54,0,0,0-2.87-.73,5.8,5.8,0,0,0-5.81,5.71,5.27,5.27,0,0,0,5.37,5.53,5.36,5.36,0,0,0,3.34-1.11l.92.61h.3v-4.45l1-.37v-.48Z" transform="translate(-7.6 -5.26)"/></g><text class="cls-39" transform="translate(0.08 565.57)">Fuente:<tspan class="cls-40" x="57.65" y="0"> </tspan><tspan x="61.44" y="0">Ajuntament de Barcelona</tspan></text></g><text class="cls-41" transform="translate(24.37 81.97)">Menos de 100</text><text class="cls-41" transform="translate(180.04 83.3)">De 100 a 120 </text><text class="cls-42" transform="translate(328.7 82.64)">De 120 a 140</text><text class="cls-42" transform="translate(486.7 82.3)">Ms de 140</text><line class="cls-27" x1="285.4" y1="163.74" x2="285.4" y2="285.39"/></svg>