<svg id="Capa_1" data-name="Capa 1" xmlns="http://www.w3.org/2000/svg" xmlns:xlink="http://www.w3.org/1999/xlink" viewBox="0 0 633.24 580.62"><defs><style>.cls-1,.cls-10,.cls-15,.cls-26,.cls-34,.cls-46{fill:none;}.cls-2{clip-path:url(#clip-path);}.cls-3{font-size:31px;}.cls-24,.cls-28,.cls-3,.cls-44,.cls-5{fill:#323232;}.cls-28,.cls-3{font-family:Arial-BoldMT, Arial;font-weight:700;}.cls-4{letter-spacing:-0.07em;}.cls-5{font-size:24px;}.cls-24,.cls-25,.cls-42,.cls-44,.cls-45,.cls-5{font-family:ArialMT, Arial;}.cls-6{letter-spacing:-0.05em;}.cls-7{opacity:0.8;}.cls-8{clip-path:url(#clip-path-3);}.cls-9{fill:#bf172b;}.cls-10,.cls-15,.cls-33,.cls-34{stroke:#fff;}.cls-10,.cls-15{stroke-linecap:round;stroke-linejoin:round;}.cls-11{clip-path:url(#clip-path-4);}.cls-12{opacity:0.65;}.cls-13{clip-path:url(#clip-path-5);}.cls-14{fill:#ee3d3d;}.cls-15{stroke-width:0.8px;}.cls-16{clip-path:url(#clip-path-6);}.cls-17{fill:#891926;}.cls-18{clip-path:url(#clip-path-7);}.cls-19{opacity:0.4;}.cls-20{clip-path:url(#clip-path-8);}.cls-21,.cls-33{fill:#f27475;}.cls-22{clip-path:url(#clip-path-9);}.cls-23{clip-path:url(#clip-path-10);}.cls-24,.cls-25{font-size:21px;}.cls-25,.cls-41,.cls-45{fill:#fff;}.cls-26,.cls-46{stroke:#757575;}.cls-26,.cls-33,.cls-34,.cls-46{stroke-miterlimit:10;}.cls-27,.cls-42{fill:#757575;}.cls-28{font-size:23px;}.cls-29{letter-spacing:-0.06em;}.cls-30{letter-spacing:0em;}.cls-31{opacity:0.7;}.cls-32{clip-path:url(#clip-path-13);}.cls-35{opacity:0.9;}.cls-36{clip-path:url(#clip-path-15);}.cls-37{opacity:0.95;}.cls-38{clip-path:url(#clip-path-17);}.cls-39{clip-path:url(#clip-path-19);}.cls-40{fill:#002f64;}.cls-42{font-size:17px;}.cls-43{letter-spacing:-0.06em;}.cls-44,.cls-45{font-size:18px;}.cls-46{stroke-width:2px;}</style><clipPath id="clip-path" transform="translate(-6.76 -5.01)"><rect class="cls-1" x="1.24" y="9.9" width="651.94" height="576.49"/></clipPath><clipPath id="clip-path-3" transform="translate(-6.76 -5.01)"><rect class="cls-1" x="144.98" y="108.7" width="153.59" height="262.73"/></clipPath><clipPath id="clip-path-4" transform="translate(-6.76 -5.01)"><rect class="cls-1" x="47.77" y="357.85" width="220.03" height="176.53"/></clipPath><clipPath id="clip-path-5" transform="translate(-6.76 -5.01)"><rect class="cls-1" x="154.16" y="266.52" width="99.81" height="105.57"/></clipPath><clipPath id="clip-path-6" transform="translate(-6.76 -5.01)"><rect class="cls-1" x="222.97" y="358.51" width="129.67" height="81.18"/></clipPath><clipPath id="clip-path-7" transform="translate(-6.76 -5.01)"><rect class="cls-1" x="278.34" y="215.59" width="134.13" height="152.47"/></clipPath><clipPath id="clip-path-8" transform="translate(-6.76 -5.01)"><rect class="cls-1" x="368.44" y="240.76" width="132.04" height="106.94"/></clipPath><clipPath id="clip-path-9" transform="translate(-6.76 -5.01)"><rect class="cls-1" x="369.41" y="273.34" width="118.93" height="117.97"/></clipPath><clipPath id="clip-path-10" transform="translate(-6.76 -5.01)"><rect class="cls-1" x="316.73" y="366.17" width="126.19" height="109.36"/></clipPath><clipPath id="clip-path-13" transform="translate(-6.76 -5.01)"><polyline class="cls-1" points="163.16 74.71 12.83 74.71 12.83 100.94 163.16 100.94"/></clipPath><clipPath id="clip-path-15" transform="translate(-6.76 -5.01)"><polyline class="cls-1" points="162.44 100.94 312.77 100.94 312.77 74.71 162.44 74.71"/></clipPath><clipPath id="clip-path-17" transform="translate(-6.76 -5.01)"><rect class="cls-1" x="312.06" y="74.71" width="150.33" height="26.23"/></clipPath><clipPath id="clip-path-19" transform="translate(-6.76 -5.01)"><rect class="cls-1" x="-0.53" y="9.9" width="651.94" height="576.49"/></clipPath></defs><title>Tasa de quejas</title><g class="cls-2"><text class="cls-3" transform="translate(0.63 26.6)"><tspan class="cls-4">T</tspan><tspan x="16.64" y="0">asa de quejas por cada 1.000 habitantes</tspan></text><text class="cls-5" transform="translate(4.21 53.3)">Quejas presentadas en el<tspan class="cls-6" x="273.52" y="0"> </tspan><tspan x="278.91" y="0">Ajuntament de Barcelona </tspan></text><g class="cls-2"><g class="cls-7"><g class="cls-8"><path class="cls-9" d="M190,195.22c.09-.71.91-.94,1.36-1.41.93-.91,1.39.12,2,.84a2.09,2.09,0,0,0,3.58-.77,19.58,19.58,0,0,1,.76-3.95,5.66,5.66,0,0,0,1-1.46c.34-.45.17-1,.11-1.53.52-.49,1.46-.55,1.55-1.38-.21-.44-.83-.78-1.2-1.18-1.26-.71.83-1.89.37-3-.16-1.6,1.74-2.34,2.71-3.31.56-.25,1.12-.66.85-1.36a16.82,16.82,0,0,1-.58-4.11,7.29,7.29,0,0,1,.55-2.35,1.77,1.77,0,0,1,1.28.59,8.3,8.3,0,0,0,3,3.73c.58.18.73,1,1.38.93a13.16,13.16,0,0,0,3.26,1.65c1.23,1.08,2-.41,3-1a4.29,4.29,0,0,0,1.14-1c.37.12,1,.82,1.25.33-.59-1-1.62-1.67-2.15-2.71-.94-1.64-1.35-3.66-2.72-5a9.34,9.34,0,0,0-2.32-1.86c-.44-.55-.73-1.29-1.51-1.42-1.43-.36-2-2-2.7-3.07-.86-.87-.74-1.52.26-2,.68-.46,1.15-1.32,2-1.33a10.93,10.93,0,0,1,1.27-1,20.81,20.81,0,0,0,1.92-1.25c1.69.47,3.45.74,5.1,1.35,1.23.53,2.45,1.1,3.67,1.65a19,19,0,0,1,.12-3.37c0-1.32-.83-2.51-.77-3.85a5.49,5.49,0,0,0-.61-2.51c-.46-2.09,1.3-3.76,1.41-5.78.42-1.54.59-3.2,1.55-4.53a28.48,28.48,0,0,1,1.84-2.92,5.75,5.75,0,0,1,2.27-1.55c1.14-.43,2.26-1,3.41-1.34a17.51,17.51,0,0,1,4,.53c.9.06-.43.49-.69.75l-4.18,2.5c-.17.58-.23,1.12.45,1.34a17.37,17.37,0,0,0,3.4,1.67c.27.8-.41,1.42-.69,2.12-.35.52-.5,1.24-1,1.64-.9.59-2,.89-2.7,1.78-.25.79-.48,1.82.31,2.39.63.61,1.41,1.11,1.63,2s0,1.68.14,2.51a4,4,0,0,0,1.26,2.61,24.2,24.2,0,0,1,2,2.61c.22,1.05-.84,1.79-1.66,2.22-.59.62,0,1.53.37,2.11s1,.54,1.2-.15.85-1.17,1.55-.89a2,2,0,0,1,2.85.56c.25.62,0,1.52-.78,1.56s-1.17.93-1.45,1.58c.36,1.17,3,1.09,2.35,2.76-.59.32-1.57-.06-1.94.66-.2.95.31,1.89.44,2.83a15,15,0,0,1,.52,2.72.75.75,0,0,0,.23,1.24,5,5,0,0,1,1.69,2.14c.3.4.64.87.34,1.37-.1.69-.34,1.48.16,2.07a6.78,6.78,0,0,0,2.25-.13,17.74,17.74,0,0,0,1.71-.49c.8.95.06,3.24,1.3,3.47.87.24,1.42-.53,2.15-.14.25.49.93-.14,1.39.24.48.13,1,.73,1.45.55.66-.31,1.26-1,2-.78a11.31,11.31,0,0,0,1.52-.47,15.32,15.32,0,0,0,2.31-.12,34.8,34.8,0,0,0,3.77-1.29c.82-.09,1.6-.38,2.29.2.47.39,1,.19,1.42.65a6.64,6.64,0,0,1,1.35,1.5,3.42,3.42,0,0,0,0,2.33c.27.61.08,1.33.51,1.88a14.68,14.68,0,0,1,.75,2.58c.07.6-.52.78-.94,1.05s-1.26.56-1.39,1.28c-.31.57-.49,1.25-.82,1.78,1,.46,1.41,1.83,1.85,2.88.22.58.77,1.17.66,1.81-.4,1-.22,2.05-.56,3-.17.51-.43,1-.12,1.48-.08.53.45.77.54,1.27s-.26,1.26.23,1.54a6.62,6.62,0,0,0,2,.52c1.07.52,2.22,1,3.24,1.54.42.38.48.82.84,1.26a13,13,0,0,0,3.62,3.68,18.66,18.66,0,0,1,2.12,2.58c.7,1.15,1.34,2.35,2.09,3.47.55.37,1,1,1.62,1.19.54-.26,1.35-.05,1.37.64.13.48,0,1.23.66,1.29,1.34.55.92,2.58,1.72,3.64.93.83.48,2,0,2.92a3.3,3.3,0,0,0-.34,3c.13.57.37,1.08.45,1.64a2.84,2.84,0,0,0,1.17,1.64,13,13,0,0,1,1.45,3.33c.3.86.48,1.86,1.35,2.34a7.79,7.79,0,0,0,1.78,1.28c.6,0,.36.85,0,1.09-1.38.7-2.91,1.1-4.35,1.67s-1.92,2-3,2.83c-.95.28-.93,1.44-1.41,2.14-.68,1-.29,2.28-.79,3.35-.17.55-.7,1.17-1.32.81-.79-.45-.24.5-.21.92.27.29.33,1.07.51,1.55.7,2.41,1.29,4.86,2.06,7.25.8,2.16,1.21,4.45,1.82,6.67l1,4.09c.39.57.4-.46.44-.88.26-.89-.35-1.82,0-2.68.37-.41,1.12,0,1.45-.52a2.42,2.42,0,0,0-.13-2.08c0-.57.85-.73,1.28-.43s1.14,0,1.27.65c.35.45,1.28-.14,1.41.53-.16.52-.47,1.08-.11,1.61-.07,1.14,1.19.56,1.65,1-.21.68-1.19.84-1.46,1.52a5.24,5.24,0,0,0-.84,2.29,13.34,13.34,0,0,0,1.15,1.57,19.56,19.56,0,0,1,2.28.75,26.87,26.87,0,0,1,1.09,3.22c.25,1,.78,1.91.58,2.93-.06,2.29-.34,4.55-.54,6.83a12.37,12.37,0,0,0-1.81,1.16c-.11,1.36-.33,2.75-.36,4.1a3.43,3.43,0,0,1,.44,2c0,2.89-.05,5.78-.13,8.66.05.85-.14,1.82.58,2.45,1.67,2.42,3.66,4.6,5.38,7,.73.93.16,2.14-.08,3.14a10.25,10.25,0,0,0-1.16,2.92c-.9,3.29-1.93,6.64-1.7,10.09-.74-.2-.91.22-1.26.44,0,.09,0,.94.23,1.06.05.94.14.18.44,0,.78-.15.44.7.46,1.15-.13,1,.19,2.34-.76,3.05-1.23.47-1.54,1.89-2.19,2.89a2.11,2.11,0,0,1-1.65,1.48A6,6,0,0,0,288,343.7c-.63,1.53-.93,3.18-1.43,4.77a3.6,3.6,0,0,1-1.1,2.28c-.53.66-1.62,1-1.51,2-.87,4.91-1.24,9.9-2.15,14.81a14.92,14.92,0,0,1-1.33,3.55c-8.24-4.14-16.51-8.22-24.76-12.33a1.07,1.07,0,0,1-1.29.77c-.5-.31-1-.66-.84-1.31s-.78-.67-1.18-1q-5.91-3.06-11.81-6.13c-1.44-2.67-3.24-5.12-4.86-7.68-2.08-3.05-4-6.19-6.19-9.2a3.56,3.56,0,0,0-2.12-1.59c-4.63-2.2-9.18-4.54-13.79-6.77-1.67-1.23-3.85-1.36-5.72-2.16.82-1.63,1.62-3.45,1-5.29-.41-1.88-2.07-3.35-2-5.35,3.5.09,7.24-2.64,7.17-6.36-.11-2.16-2-3.75-2.1-5.91-.4-2.3-.73-4.6-1-6.91a5.81,5.81,0,0,0-2.54-.08,9.69,9.69,0,0,1-4-.37c-.68-.43-1.79-.83-1.61-1.82a2.37,2.37,0,0,1,.37-1.69,4.79,4.79,0,0,0,.73-2.05c.53-.32.45-.91.4-1.43.14-.72.75-.91.9-1.76.12-.64.73-.74.79-1.32s-.35-1.16.07-1.65c0-.77.4-1.59-.07-2.28a1.37,1.37,0,0,1,.26-1.28,3.8,3.8,0,0,0,0-1.47,2.76,2.76,0,0,0-.59-1.76,1.77,1.77,0,0,0-.37-1.36c0-.45.18-1-.32-1.32-1.05-1.25-1.11-3.1-2.24-4.29-1.19-.61.06-.76.6-1.16,1-.58,1.73-1.58,2.91-1.78a5.87,5.87,0,0,0,4-3,4.19,4.19,0,0,0,.65-1.77,15.27,15.27,0,0,0-1-2.68,1.16,1.16,0,0,1-.19-1.46c.53-1.07,1.61-1.72,2.25-2.72.49-.55.2-1.45.86-1.91a2.77,2.77,0,0,0,1-1.72,12.28,12.28,0,0,1,1-3c-1.68-2.08-1.39-5.33-3.65-7-1.09-.55-2.07.52-3.17.52a5.51,5.51,0,0,1-1.82-.2c-.73-.45-1.62-.72-2-1.56-1.73-2.4-2.81-5.46-5.53-7-1.76-3-4.32-5.64-5-9.13.06-1.43.15-3.08-1.16-4a2.71,2.71,0,0,0-1.69-.9,29.34,29.34,0,0,0-3.91,0,22.74,22.74,0,0,0-5.6.53c-.06.74-.85.29-1.33.3-1.19-.2-2.34-.56-3.51-.81-.65.46-1.41-.16-2.06.11a9.3,9.3,0,0,1-2.28,2.27c-1.29.83-2.89.5-4.34.71a4.7,4.7,0,0,1-3-.23,1.49,1.49,0,0,1-1.8-.59c-1-2-2.17-4.49-4.65-4.89-1,.12-.18-1-.38-1.6a11.91,11.91,0,0,0-.18-2.35,10.84,10.84,0,0,1-1.67-1l-.53-2a31.38,31.38,0,0,0,1.17-9.94l1-1.61a1.66,1.66,0,0,1,1.51.55c1,.55,1.79,1.42,2.73,2a2.74,2.74,0,0,0,2-.31c.81-1.79,1.5-3.9,3.49-4.69,1.21-.67,2.46-1.12,3.11.43,1,1.67,3,1,4.57,1.27s3.73.86,4.07,2.79c.14.75-.26,1.71.69.92.73-1.1,3.19.73,3-.66q-.17-1.16-.33-2.32l7.37-1.16m-1.32-9.81a31,31,0,0,1-4.42.28l-8.46,2-4-1.58c.66-.37,1.48-.55,1.84-1.28a16.83,16.83,0,0,0,2-3c.72-.74,1.83-.67,2.76-1a2.48,2.48,0,0,1,1.81,0c1.4.33,2.8.76,4.21,1a15.82,15.82,0,0,0,4.18-1c.69-.42.19.77.29,1.14q-.1,1.72-.19,3.44m-1.14-15c-2.16-1.08-4.27-2.28-6.46-3.28-.65-.26-1.42-.22-1.88-.82-1.13-1.09-2.15-2.33-3.3-3.37l-1.89-.63-1.65,4.07a48.9,48.9,0,0,1-5.19,3.41l-1.85,1.1c-4.28-1.82-8.52-3.74-12.77-5.65.28,1.56.76,3.31-.15,4.77.21.85-.46.62-1,.51l-6-.88,3.3-15a14.39,14.39,0,0,0,5-.67c1.48-.36,3-.6,4.43-1.05,1.69-1.36,3.4-2.7,5.15-4,.42-.65.43-1.5,1-2.08a6.53,6.53,0,0,1,1.24-2.23,5.44,5.44,0,0,0,1.22-2c.36-.89,1.51-.95,1.91-1.79a5.25,5.25,0,0,0,.29-4c-.3-.74-1.18-1.77-.45-2.54.47-.46-1-.57-.83-1.06a6.94,6.94,0,0,0,.64-3.44,1.31,1.31,0,0,1-.38-1.34c0-.7.29-1,1-.81a4.48,4.48,0,0,1,3.2.8,45.15,45.15,0,0,0,6.84,2.79c1.2.18,2.45.69,3.63.4,1-.47,1.49-1.56,2.41-2.16,1.23-1.18,3-1.54,4.26-2.68,2.22-2.29,4.08-4.9,6.12-7.35s3.87-4.88,5.89-7.25l3.4-3.22c1.5,1.36,2.9,2.84,4.48,4.11,0,.56-.82.55-1.08,1a19.4,19.4,0,0,0-3.05,2.8c-.24.64-.82,1.16-.9,1.85.28.69,1.14.93,1.73,1.32l3.55,1.5c-1.22,1.8-2.37,3.68-3.64,5.44-.84.25.22.71.44,1.09,1,1.07,2.25,1.83,3.06,3.06l4.9,6.12c-2.48,1.53-4.93,3.12-7.45,4.59a2,2,0,0,1-1.4,1.07,14.19,14.19,0,0,1-3.21,1.22c-2,.18-2.4,2.26-3.37,3.62-.41.54.42,1.16.59,1.73l2.29,4.2-3.67,9.06-10.34,7.59" transform="translate(-6.76 -5.01)"/><path class="cls-10" d="M190,195.22c.09-.71.91-.94,1.36-1.41.93-.91,1.39.12,2,.84a2.09,2.09,0,0,0,3.58-.77,19.58,19.58,0,0,1,.76-3.95,5.66,5.66,0,0,0,1-1.46c.34-.45.17-1,.11-1.53.52-.49,1.46-.55,1.55-1.38-.21-.44-.83-.78-1.2-1.18-1.26-.71.83-1.89.37-3-.16-1.6,1.74-2.34,2.71-3.31.56-.25,1.12-.66.85-1.36a16.82,16.82,0,0,1-.58-4.11,7.29,7.29,0,0,1,.55-2.35,1.77,1.77,0,0,1,1.28.59,8.3,8.3,0,0,0,3,3.73c.58.18.73,1,1.38.93a13.16,13.16,0,0,0,3.26,1.65c1.23,1.08,2-.41,3-1a4.29,4.29,0,0,0,1.14-1c.37.12,1,.82,1.25.33-.59-1-1.62-1.67-2.15-2.71-.94-1.64-1.35-3.66-2.72-5a9.34,9.34,0,0,0-2.32-1.86c-.44-.55-.73-1.29-1.51-1.42-1.43-.36-2-2-2.7-3.07-.86-.87-.74-1.52.26-2,.68-.46,1.15-1.32,2-1.33a10.93,10.93,0,0,1,1.27-1,20.81,20.81,0,0,0,1.92-1.25c1.69.47,3.45.74,5.1,1.35,1.23.53,2.45,1.1,3.67,1.65a19,19,0,0,1,.12-3.37c0-1.32-.83-2.51-.77-3.85a5.49,5.49,0,0,0-.61-2.51c-.46-2.09,1.3-3.76,1.41-5.78.42-1.54.59-3.2,1.55-4.53a28.48,28.48,0,0,1,1.84-2.92,5.75,5.75,0,0,1,2.27-1.55c1.14-.43,2.26-1,3.41-1.34a17.51,17.51,0,0,1,4,.53c.9.06-.43.49-.69.75l-4.18,2.5c-.17.58-.23,1.12.45,1.34a17.37,17.37,0,0,0,3.4,1.67c.27.8-.41,1.42-.69,2.12-.35.52-.5,1.24-1,1.64-.9.59-2,.89-2.7,1.78-.25.79-.48,1.82.31,2.39.63.61,1.41,1.11,1.63,2s0,1.68.14,2.51a4,4,0,0,0,1.26,2.61,24.2,24.2,0,0,1,2,2.61c.22,1.05-.84,1.79-1.66,2.22-.59.62,0,1.53.37,2.11s1,.54,1.2-.15.85-1.17,1.55-.89a2,2,0,0,1,2.85.56c.25.62,0,1.52-.78,1.56s-1.17.93-1.45,1.58c.36,1.17,3,1.09,2.35,2.76-.59.32-1.57-.06-1.94.66-.2.95.31,1.89.44,2.83a15,15,0,0,1,.52,2.72.75.75,0,0,0,.23,1.24,5,5,0,0,1,1.69,2.14c.3.4.64.87.34,1.37-.1.69-.34,1.48.16,2.07a6.78,6.78,0,0,0,2.25-.13,17.74,17.74,0,0,0,1.71-.49c.8.95.06,3.24,1.3,3.47.87.24,1.42-.53,2.15-.14.25.49.93-.14,1.39.24.48.13,1,.73,1.45.55.66-.31,1.26-1,2-.78a11.31,11.31,0,0,0,1.52-.47,15.32,15.32,0,0,0,2.31-.12,34.8,34.8,0,0,0,3.77-1.29c.82-.09,1.6-.38,2.29.2.47.39,1,.19,1.42.65a6.64,6.64,0,0,1,1.35,1.5,3.42,3.42,0,0,0,0,2.33c.27.61.08,1.33.51,1.88a14.68,14.68,0,0,1,.75,2.58c.07.6-.52.78-.94,1.05s-1.26.56-1.39,1.28c-.31.57-.49,1.25-.82,1.78,1,.46,1.41,1.83,1.85,2.88.22.58.77,1.17.66,1.81-.4,1-.22,2.05-.56,3-.17.51-.43,1-.12,1.48-.08.53.45.77.54,1.27s-.26,1.26.23,1.54a6.62,6.62,0,0,0,2,.52c1.07.52,2.22,1,3.24,1.54.42.38.48.82.84,1.26a13,13,0,0,0,3.62,3.68,18.66,18.66,0,0,1,2.12,2.58c.7,1.15,1.34,2.35,2.09,3.47.55.37,1,1,1.62,1.19.54-.26,1.35-.05,1.37.64.13.48,0,1.23.66,1.29,1.34.55.92,2.58,1.72,3.64.93.83.48,2,0,2.92a3.3,3.3,0,0,0-.34,3c.13.57.37,1.08.45,1.64a2.84,2.84,0,0,0,1.17,1.64,13,13,0,0,1,1.45,3.33c.3.86.48,1.86,1.35,2.34a7.79,7.79,0,0,0,1.78,1.28c.6,0,.36.85,0,1.09-1.38.7-2.91,1.1-4.35,1.67s-1.92,2-3,2.83c-.95.28-.93,1.44-1.41,2.14-.68,1-.29,2.28-.79,3.35-.17.55-.7,1.17-1.32.81-.79-.45-.24.5-.21.92.27.29.33,1.07.51,1.55.7,2.41,1.29,4.86,2.06,7.25.8,2.16,1.21,4.45,1.82,6.67l1,4.09c.39.57.4-.46.44-.88.26-.89-.35-1.82,0-2.68.37-.41,1.12,0,1.45-.52a2.42,2.42,0,0,0-.13-2.08c0-.57.85-.73,1.28-.43s1.14,0,1.27.65c.35.45,1.28-.14,1.41.53-.16.52-.47,1.08-.11,1.61-.07,1.14,1.19.56,1.65,1-.21.68-1.19.84-1.46,1.52a5.24,5.24,0,0,0-.84,2.29,13.34,13.34,0,0,0,1.15,1.57,19.56,19.56,0,0,1,2.28.75,26.87,26.87,0,0,1,1.09,3.22c.25,1,.78,1.91.58,2.93-.06,2.29-.34,4.55-.54,6.83a12.37,12.37,0,0,0-1.81,1.16c-.11,1.36-.33,2.75-.36,4.1a3.43,3.43,0,0,1,.44,2c0,2.89-.05,5.78-.13,8.66.05.85-.14,1.82.58,2.45,1.67,2.42,3.66,4.6,5.38,7,.73.93.16,2.14-.08,3.14a10.25,10.25,0,0,0-1.16,2.92c-.9,3.29-1.93,6.64-1.7,10.09-.74-.2-.91.22-1.26.44,0,.09,0,.94.23,1.06.05.94.14.18.44,0,.78-.15.44.7.46,1.15-.13,1,.19,2.34-.76,3.05-1.23.47-1.54,1.89-2.19,2.89a2.11,2.11,0,0,1-1.65,1.48A6,6,0,0,0,288,343.7c-.63,1.53-.93,3.18-1.43,4.77a3.6,3.6,0,0,1-1.1,2.28c-.53.66-1.62,1-1.51,2-.87,4.91-1.24,9.9-2.15,14.81a14.92,14.92,0,0,1-1.33,3.55c-8.24-4.14-16.51-8.22-24.76-12.33a1.07,1.07,0,0,1-1.29.77c-.5-.31-1-.66-.84-1.31s-.78-.67-1.18-1q-5.91-3.06-11.81-6.13c-1.44-2.67-3.24-5.12-4.86-7.68-2.08-3.05-4-6.19-6.19-9.2a3.56,3.56,0,0,0-2.12-1.59c-4.63-2.2-9.18-4.54-13.79-6.77-1.67-1.23-3.85-1.36-5.72-2.16.82-1.63,1.62-3.45,1-5.29-.41-1.88-2.07-3.35-2-5.35,3.5.09,7.24-2.64,7.17-6.36-.11-2.16-2-3.75-2.1-5.91-.4-2.3-.73-4.6-1-6.91a5.81,5.81,0,0,0-2.54-.08,9.69,9.69,0,0,1-4-.37c-.68-.43-1.79-.83-1.61-1.82a2.37,2.37,0,0,1,.37-1.69,4.79,4.79,0,0,0,.73-2.05c.53-.32.45-.91.4-1.43.14-.72.75-.91.9-1.76.12-.64.73-.74.79-1.32s-.35-1.16.07-1.65c0-.77.4-1.59-.07-2.28a1.37,1.37,0,0,1,.26-1.28,3.8,3.8,0,0,0,0-1.47,2.76,2.76,0,0,0-.59-1.76,1.77,1.77,0,0,0-.37-1.36c0-.45.18-1-.32-1.32-1.05-1.25-1.11-3.1-2.24-4.29-1.19-.61.06-.76.6-1.16,1-.58,1.73-1.58,2.91-1.78a5.87,5.87,0,0,0,4-3,4.19,4.19,0,0,0,.65-1.77,15.27,15.27,0,0,0-1-2.68,1.16,1.16,0,0,1-.19-1.46c.53-1.07,1.61-1.72,2.25-2.72.49-.55.2-1.45.86-1.91a2.77,2.77,0,0,0,1-1.72,12.28,12.28,0,0,1,1-3c-1.68-2.08-1.39-5.33-3.65-7-1.09-.55-2.07.52-3.17.52a5.51,5.51,0,0,1-1.82-.2c-.73-.45-1.62-.72-2-1.56-1.73-2.4-2.81-5.46-5.53-7-1.76-3-4.32-5.64-5-9.13.06-1.43.15-3.08-1.16-4a2.71,2.71,0,0,0-1.69-.9,29.34,29.34,0,0,0-3.91,0,22.74,22.74,0,0,0-5.6.53c-.06.74-.85.29-1.33.3-1.19-.2-2.34-.56-3.51-.81-.65.46-1.41-.16-2.06.11a9.3,9.3,0,0,1-2.28,2.27c-1.29.83-2.89.5-4.34.71a4.7,4.7,0,0,1-3-.23,1.49,1.49,0,0,1-1.8-.59c-1-2-2.17-4.49-4.65-4.89-1,.12-.18-1-.38-1.6a11.91,11.91,0,0,0-.18-2.35,10.84,10.84,0,0,1-1.67-1l-.53-2a31.38,31.38,0,0,0,1.17-9.94l1-1.61a1.66,1.66,0,0,1,1.51.55c1,.55,1.79,1.42,2.73,2a2.74,2.74,0,0,0,2-.31c.81-1.79,1.5-3.9,3.49-4.69,1.21-.67,2.46-1.12,3.11.43,1,1.67,3,1,4.57,1.27s3.73.86,4.07,2.79c.14.75-.26,1.71.69.92.73-1.1,3.19.73,3-.66q-.17-1.16-.33-2.32Zm-1.32-9.81a31,31,0,0,1-4.42.28l-8.46,2-4-1.58c.66-.37,1.48-.55,1.84-1.28a16.83,16.83,0,0,0,2-3c.72-.74,1.83-.67,2.76-1a2.48,2.48,0,0,1,1.81,0c1.4.33,2.8.76,4.21,1a15.82,15.82,0,0,0,4.18-1c.69-.42.19.77.29,1.14Q188.73,183.68,188.64,185.4Zm-1.14-15c-2.16-1.08-4.27-2.28-6.46-3.28-.65-.26-1.42-.22-1.88-.82-1.13-1.09-2.15-2.33-3.3-3.37l-1.89-.63-1.65,4.07a48.9,48.9,0,0,1-5.19,3.41l-1.85,1.1c-4.28-1.82-8.52-3.74-12.77-5.65.28,1.56.76,3.31-.15,4.77.21.85-.46.62-1,.51l-6-.88,3.3-15a14.39,14.39,0,0,0,5-.67c1.48-.36,3-.6,4.43-1.05,1.69-1.36,3.4-2.7,5.15-4,.42-.65.43-1.5,1-2.08a6.53,6.53,0,0,1,1.24-2.23,5.44,5.44,0,0,0,1.22-2c.36-.89,1.51-.95,1.91-1.79a5.25,5.25,0,0,0,.29-4c-.3-.74-1.18-1.77-.45-2.54.47-.46-1-.57-.83-1.06a6.94,6.94,0,0,0,.64-3.44,1.31,1.31,0,0,1-.38-1.34c0-.7.29-1,1-.81a4.48,4.48,0,0,1,3.2.8,45.15,45.15,0,0,0,6.84,2.79c1.2.18,2.45.69,3.63.4,1-.47,1.49-1.56,2.41-2.16,1.23-1.18,3-1.54,4.26-2.68,2.22-2.29,4.08-4.9,6.12-7.35s3.87-4.88,5.89-7.25l3.4-3.22c1.5,1.36,2.9,2.84,4.48,4.11,0,.56-.82.55-1.08,1a19.4,19.4,0,0,0-3.05,2.8c-.24.64-.82,1.16-.9,1.85.28.69,1.14.93,1.73,1.32l3.55,1.5c-1.22,1.8-2.37,3.68-3.64,5.44-.84.25.22.71.44,1.09,1,1.07,2.25,1.83,3.06,3.06l4.9,6.12c-2.48,1.53-4.93,3.12-7.45,4.59a2,2,0,0,1-1.4,1.07,14.19,14.19,0,0,1-3.21,1.22c-2,.18-2.4,2.26-3.37,3.62-.41.54.42,1.16.59,1.73l2.29,4.2-3.67,9.06Z" transform="translate(-6.76 -5.01)"/></g></g><g class="cls-7"><g class="cls-11"><path class="cls-9" d="M178.18,360l-1.62-1.83c-.34.54-.14,1.24-.17,1.84.2,1.15.56,2.3.66,3.46-.08.49,0,1.08-.36,1.32-.24.48-.13,1-.33,1.44s-.57,1-.34,1.63a24.41,24.41,0,0,1,.5,5.69,8.91,8.91,0,0,1,.16,1.85c.15.62-.1.91,0,1.29.38,1.23.31,2.55.86,3.73a2.32,2.32,0,0,1,.27,1.4c.33.26.11.93.21,1.37a18.73,18.73,0,0,0-.39,3.18,17.4,17.4,0,0,1-1.24,4.66c.3.38-.49.83-.55,1.29a34.48,34.48,0,0,1-2.24,4.18,11.21,11.21,0,0,1-2.32,5,14.69,14.69,0,0,0-2.09,4.86c-.07,2.54,0,5.09-.06,7.63-2.81.32-5.66-.3-8.45.18-1.42.55-2.4,1.83-3.57,2.77-1.54,1.37-2.81,3.06-4.6,4.14a10.47,10.47,0,0,1-2.53,1.34,4.21,4.21,0,0,1-1.95-.55c-.55,2-1,4.08-1.62,6.08a33.06,33.06,0,0,0-1.31,3.17,23.17,23.17,0,0,0-.74,2.67c.73,0,.15.78.16,1.22l-.82,3.55c-.47.25-.26,1-.43,1.45a47.07,47.07,0,0,0-.49,4.93,20.79,20.79,0,0,1-3.68-1.06l-1.46-.48.48-1.76-3.89-1.1-.22,1.65-2.09-.44a1.21,1.21,0,0,0-.77-1.21,12.62,12.62,0,0,1-3.44-.13,19.71,19.71,0,0,0-3.41-.34c.35-.6-1-.37-.83-.86.36-.43-.84-.73-.93-.43l-1.47-.59c.21-.48-.73-.45-.19-1.13,0-.39.63-1.24.08-1.28l-4-.45-.59,1.8a16.77,16.77,0,0,1-3.84-1c-12.38-4.8-24.74-9.63-37.13-14.41-2.58-1-5.19-1.86-7.75-2.88a26.84,26.84,0,0,0-3.93-1.58c-2.49-.94-5-1.7-7.5-2.7a10.55,10.55,0,0,0-3-1.09L51.29,413c3.35,16.33,2.17,31.34-3.23,47.17.42,2.27.79,4.56,1.25,6.83,1.55,3.32,3,6.68,4.64,10,2.44,4.34,4.91,8.65,7.48,12.91A72.14,72.14,0,0,0,65.72,496c1.35,1.75,2.65,3.56,4,5.28,5.16,4.69,10.37,9.35,15.5,14.07l16.07,18.77c2.21-.36,4.45-.63,6.64-1,4.6-2.57,9.18-5.2,13.8-7.73.59.1.58-1.19,1-.57l8,8.1L173.1,512l1.3,1.87-6.6-10,.77-2.93a8.77,8.77,0,0,1-2.75-1.73c-1-.93-2-1.95-3-2.81l-4.58-1.26-6.93,2.64c-.25-.46-.43-1.12-1-.65l-33,11.76-2.6-6.42c2.71-.91,5.26-2.22,7.89-3.32l1.54-.68L121.65,491l5.68-2.05,7.49,7,24.8-20,1.21,1.36-1.72,1.36c.26.64.61.69,1,.15.39-.23.85-.82,1.2-.85.13.45.9,1,.27,1.31l-1.19,1.07c.49.45.52.84-.12,1.13L158,483.24c.34.41,1,.83.21,1.16l-3.44,3a12.81,12.81,0,0,0,3.7,1.27l21.36,3.21c.47-.48.39-1.26.62-1.87l.81-3.34c.56.38.92.28,1-.4.32-.71.44-1.53.78-2.22l2.5-2.18,1.65.4-4.4,20.11c.44,0,1.2.46,1.43.13l4.8-19.94,2.94.59c-.16,1.19-.66,2.37-.42,3.57l1.37,13-1.62.59c0,.72.82,0,1.24,0,7.59-2.51,15.2-4.93,22.74-7.59l5.74-2q-.28-5.1-.55-10.2l5.28-2,3.92,11.67,6.86-2.42-2.47-8.6,12.44-3.34,2.76,9a22.81,22.81,0,0,0,3.22-1c1-.36,2-.7,3-1,.32-.45-.2-1-.26-1.46-.25-.34-.14-1.39-.72-1.07-.65.49-.67-.32-.86-.78l-2.41-6.89c.41-.16,1.38-.12.68-.66-.39-.42.6-.68.82-1l10.94-9c.17.66.62.72,1.2.49s-.13-.94-.12-1.36a1.54,1.54,0,0,1,0-1.35c-.26-1.09-.53-2.18-.77-3.28l3.52-.84a32.89,32.89,0,0,0-1.52-2.93c-3.61-4-6.44-8.75-10.71-12.12-3.12-3.67-6.75-6.85-10.06-10.33q-10.39-10.42-20.81-20.8c-1.94-5-.75-10.36-1-15.52.23-4-.17-8,.28-12,3.69-3.38,7.44-6.7,11.12-10.09-1.38-.45-2.84-.16-4.26-.33A39.75,39.75,0,0,1,225,371a31.11,31.11,0,0,1-6.78-1.71c-3.09-1-6.12-2.15-9.15-3.34a31,31,0,0,0-7-2.73c-4.23-1.06-8.59-1.41-12.88-2.11-3.67-.48-7.36-.78-11-1.14" transform="translate(-6.76 -5.01)"/><path class="cls-10" d="M178.18,360l-1.62-1.83c-.34.54-.14,1.24-.17,1.84.2,1.15.56,2.3.66,3.46-.08.49,0,1.08-.36,1.32-.24.48-.13,1-.33,1.44s-.57,1-.34,1.63a24.41,24.41,0,0,1,.5,5.69,8.91,8.91,0,0,1,.16,1.85c.15.62-.1.91,0,1.29.38,1.23.31,2.55.86,3.73a2.32,2.32,0,0,1,.27,1.4c.33.26.11.93.21,1.37a18.73,18.73,0,0,0-.39,3.18,17.4,17.4,0,0,1-1.24,4.66c.3.38-.49.83-.55,1.29a34.48,34.48,0,0,1-2.24,4.18,11.21,11.21,0,0,1-2.32,5,14.69,14.69,0,0,0-2.09,4.86c-.07,2.54,0,5.09-.06,7.63-2.81.32-5.66-.3-8.45.18-1.42.55-2.4,1.83-3.57,2.77-1.54,1.37-2.81,3.06-4.6,4.14a10.47,10.47,0,0,1-2.53,1.34,4.21,4.21,0,0,1-1.95-.55c-.55,2-1,4.08-1.62,6.08a33.06,33.06,0,0,0-1.31,3.17,23.17,23.17,0,0,0-.74,2.67c.73,0,.15.78.16,1.22l-.82,3.55c-.47.25-.26,1-.43,1.45a47.07,47.07,0,0,0-.49,4.93,20.79,20.79,0,0,1-3.68-1.06l-1.46-.48.48-1.76-3.89-1.1-.22,1.65-2.09-.44a1.21,1.21,0,0,0-.77-1.21,12.62,12.62,0,0,1-3.44-.13,19.71,19.71,0,0,0-3.41-.34c.35-.6-1-.37-.83-.86.36-.43-.84-.73-.93-.43l-1.47-.59c.21-.48-.73-.45-.19-1.13,0-.39.63-1.24.08-1.28l-4-.45-.59,1.8a16.77,16.77,0,0,1-3.84-1c-12.38-4.8-24.74-9.63-37.13-14.41-2.58-1-5.19-1.86-7.75-2.88a26.84,26.84,0,0,0-3.93-1.58c-2.49-.94-5-1.7-7.5-2.7a10.55,10.55,0,0,0-3-1.09L51.29,413c3.35,16.33,2.17,31.34-3.23,47.17.42,2.27.79,4.56,1.25,6.83,1.55,3.32,3,6.68,4.64,10,2.44,4.34,4.91,8.65,7.48,12.91A72.14,72.14,0,0,0,65.72,496c1.35,1.75,2.65,3.56,4,5.28,5.16,4.69,10.37,9.35,15.5,14.07l16.07,18.77c2.21-.36,4.45-.63,6.64-1,4.6-2.57,9.18-5.2,13.8-7.73.59.1.58-1.19,1-.57l8,8.1L173.1,512l1.3,1.87-6.6-10,.77-2.93a8.77,8.77,0,0,1-2.75-1.73c-1-.93-2-1.95-3-2.81l-4.58-1.26-6.93,2.64c-.25-.46-.43-1.12-1-.65l-33,11.76-2.6-6.42c2.71-.91,5.26-2.22,7.89-3.32l1.54-.68L121.65,491l5.68-2.05,7.49,7,24.8-20,1.21,1.36-1.72,1.36c.26.64.61.69,1,.15.39-.23.85-.82,1.2-.85.13.45.9,1,.27,1.31l-1.19,1.07c.49.45.52.84-.12,1.13L158,483.24c.34.41,1,.83.21,1.16l-3.44,3a12.81,12.81,0,0,0,3.7,1.27l21.36,3.21c.47-.48.39-1.26.62-1.87l.81-3.34c.56.38.92.28,1-.4.32-.71.44-1.53.78-2.22l2.5-2.18,1.65.4-4.4,20.11c.44,0,1.2.46,1.43.13l4.8-19.94,2.94.59c-.16,1.19-.66,2.37-.42,3.57l1.37,13-1.62.59c0,.72.82,0,1.24,0,7.59-2.51,15.2-4.93,22.74-7.59l5.74-2q-.28-5.1-.55-10.2l5.28-2,3.92,11.67,6.86-2.42-2.47-8.6,12.44-3.34,2.76,9a22.81,22.81,0,0,0,3.22-1c1-.36,2-.7,3-1,.32-.45-.2-1-.26-1.46-.25-.34-.14-1.39-.72-1.07-.65.49-.67-.32-.86-.78l-2.41-6.89c.41-.16,1.38-.12.68-.66-.39-.42.6-.68.82-1l10.94-9c.17.66.62.72,1.2.49s-.13-.94-.12-1.36a1.54,1.54,0,0,1,0-1.35c-.26-1.09-.53-2.18-.77-3.28l3.52-.84a32.89,32.89,0,0,0-1.52-2.93c-3.61-4-6.44-8.75-10.71-12.12-3.12-3.67-6.75-6.85-10.06-10.33q-10.39-10.42-20.81-20.8c-1.94-5-.75-10.36-1-15.52.23-4-.17-8,.28-12,3.69-3.38,7.44-6.7,11.12-10.09-1.38-.45-2.84-.16-4.26-.33A39.75,39.75,0,0,1,225,371a31.11,31.11,0,0,1-6.78-1.71c-3.09-1-6.12-2.15-9.15-3.34a31,31,0,0,0-7-2.73c-4.23-1.06-8.59-1.41-12.88-2.11C185.55,360.64,181.86,360.34,178.18,360Z" transform="translate(-6.76 -5.01)"/></g></g><g class="cls-12"><g class="cls-13"><path class="cls-14" d="M181.37,273.85a3.35,3.35,0,0,0-1.14.12,4.51,4.51,0,0,1-2.44.94c-.24.08-.52.09-.74.18a14.24,14.24,0,0,0-1.18,1.44c-.29.51.22,1,.4,1.45a3.53,3.53,0,0,1,.29,2.23,10.39,10.39,0,0,0-.44,2.23,1.6,1.6,0,0,1-.28.84,12.08,12.08,0,0,0-1.51,1.47c-.37.29-.52.78-.81,1.13a2.22,2.22,0,0,0-.89.73c-.44.48-.69,1.08-1.08,1.59-1.35,1.28-2.08,3.05-3.09,4.57a2.89,2.89,0,0,0,.1,1.34c.07.45.57.74.51,1.23a4.63,4.63,0,0,0,.27,2.09c-1-.25-1.81-1.16-2.9-1,.19,1.41-.21,2.83-.08,4.23a.61.61,0,0,1-.13.66c-.19.18-.12.55,0,.76s-.12.46-.09.68c-.2.12,0,.47-.29.61,0,.26.09.46-.07.67s.23.46.19.69c-.33.26,0,.71-.15,1.05s-.49.41-.76.55a1,1,0,0,1-.79.09,13.43,13.43,0,0,1-2.57.23c-.3-.07-.64-.09-.84-.36l-1-.9c-1.29,1.06-2.62,2.09-3.89,3.18a4.93,4.93,0,0,0-1,1.87,3.14,3.14,0,0,0-.41,1.37,10.77,10.77,0,0,0,.2,2.24c.19,1.62.33,3.23.55,4.84.12.48.05,1.07.49,1.39s1,1,1.51,1.42c.2.65-.49,1.24-.22,1.89.09.43.05.92.38,1.26a4.54,4.54,0,0,1,.84,1.56,6.85,6.85,0,0,1,.54,2.48c-.11.29-.41.57-.23.89.13.16.42.32.41.59a21.35,21.35,0,0,1-.71,2.39,1.42,1.42,0,0,1-.46.82c-.72.81-1.49,1.57-2.27,2.32,4.93,4.93,9.52,10.19,14.42,15.15,3.82.45,7.65.77,11.44,1.39-.59,1.78-2.2,2.9-3.49,4.16a6,6,0,0,0-1.29,1.56l1.59,1.8c4.82.44,9.64.88,14.43,1.63a66.78,66.78,0,0,1,12.46,2.48,107,107,0,0,0,16.2,6.2,34.84,34.84,0,0,0,3.63.71,23.22,23.22,0,0,0,3,.34c1.91.07,3.81.23,5.72.2a9.08,9.08,0,0,1,1.21.26,91.59,91.59,0,0,1,9.86-7.47,46.65,46.65,0,0,1,9-5.33l-.11-1.14c-1.77-.88-3.51-1.8-5.26-2.72-2.57-1.33-5.14-2.65-7.69-4a29.67,29.67,0,0,0-1.68-2.82c-2.89-4.46-5.85-8.86-8.8-13.28l-1.26-1.69c-5.12-2.38-10.14-5-15.22-7.45a9.48,9.48,0,0,0-3.24-1.37,23.67,23.67,0,0,1-2.48-.8c.59-1.38,1.47-2.79,1.15-4.36-.16-1.68-1.16-3.08-1.83-4.57-.2-.55-.78-1.9.23-1.73a7.08,7.08,0,0,0,6.42-4.77,4.71,4.71,0,0,0-.46-3.78,10,10,0,0,1-1.38-3.35c-.34-2-.68-4-.93-6.09l-.16-1.18a5.6,5.6,0,0,0-1.88-.16,9.53,9.53,0,0,1-2.35.14c-.77-.06-1.51-.27-2.27-.39-.54-.37-1.23-.57-1.57-1.16-.23-.25-.06-.63-.11-.94s-.08-.73.16-1c.25-.53.56-1,.77-1.57a7.81,7.81,0,0,1,.2-.94,1,1,0,0,0,.37-1.07,1.4,1.4,0,0,1,.22-.92c.46-.11.44-1,.77-1.37.15-.22.2-.67.55-.62a1.32,1.32,0,0,0,.08-.9c0-.33-.22-.68,0-1a4.35,4.35,0,0,0,.27-1.46c0-.27.13-.55-.07-.78a1.47,1.47,0,0,1-.08-1.25,1.38,1.38,0,0,0,.24-.65.62.62,0,0,0,0-.63,2.93,2.93,0,0,1,0-.92c-.09-.22-.09-.46-.18-.66a1.11,1.11,0,0,0-.37-.66,2.48,2.48,0,0,0-.26-1.25c-.25-.23-.14-.57-.07-.92-.26-.54-.77-.92-1-1.5a22.92,22.92,0,0,0-1.5-3.23c-.57-.3-1-1.15-1.46-1.31-.37.33-.62.79-1,1.09-.76.36-1.58.6-2.34,1-.3.25-.52.62-.86.78s-.88,0-1.32,0a2.07,2.07,0,0,1-1.43-.09,8.94,8.94,0,0,0-2.34-.48c-.55.36-1,.88-1.51,1.26-.68.27-1.35.6-2,.82a5.82,5.82,0,0,1-1.57.88,3.32,3.32,0,0,1-1.28.34,3.82,3.82,0,0,0-1.37.15,13.34,13.34,0,0,0-1.32.44,6,6,0,0,1-.82.81l-.91,0" transform="translate(-6.76 -5.01)"/><path class="cls-10" d="M181.37,273.85a3.35,3.35,0,0,0-1.14.12,4.51,4.51,0,0,1-2.44.94c-.24.08-.52.09-.74.18a14.24,14.24,0,0,0-1.18,1.44c-.29.51.22,1,.4,1.45a3.53,3.53,0,0,1,.29,2.23,10.39,10.39,0,0,0-.44,2.23,1.6,1.6,0,0,1-.28.84,12.08,12.08,0,0,0-1.51,1.47c-.37.29-.52.78-.81,1.13a2.22,2.22,0,0,0-.89.73c-.44.48-.69,1.08-1.08,1.59-1.35,1.28-2.08,3.05-3.09,4.57a2.89,2.89,0,0,0,.1,1.34c.07.45.57.74.51,1.23a4.63,4.63,0,0,0,.27,2.09c-1-.25-1.81-1.16-2.9-1,.19,1.41-.21,2.83-.08,4.23a.61.61,0,0,1-.13.66c-.19.18-.12.55,0,.76s-.12.46-.09.68c-.2.12,0,.47-.29.61,0,.26.09.46-.07.67s.23.46.19.69c-.33.26,0,.71-.15,1.05s-.49.41-.76.55a1,1,0,0,1-.79.09,13.43,13.43,0,0,1-2.57.23c-.3-.07-.64-.09-.84-.36l-1-.9c-1.29,1.06-2.62,2.09-3.89,3.18a4.93,4.93,0,0,0-1,1.87,3.14,3.14,0,0,0-.41,1.37,10.77,10.77,0,0,0,.2,2.24c.19,1.62.33,3.23.55,4.84.12.48.05,1.07.49,1.39s1,1,1.51,1.42c.2.65-.49,1.24-.22,1.89.09.43.05.92.38,1.26a4.54,4.54,0,0,1,.84,1.56,6.85,6.85,0,0,1,.54,2.48c-.11.29-.41.57-.23.89.13.16.42.32.41.59a21.35,21.35,0,0,1-.71,2.39,1.42,1.42,0,0,1-.46.82c-.72.81-1.49,1.57-2.27,2.32,4.93,4.93,9.52,10.19,14.42,15.15,3.82.45,7.65.77,11.44,1.39-.59,1.78-2.2,2.9-3.49,4.16a6,6,0,0,0-1.29,1.56l1.59,1.8c4.82.44,9.64.88,14.43,1.63a66.78,66.78,0,0,1,12.46,2.48,107,107,0,0,0,16.2,6.2,34.84,34.84,0,0,0,3.63.71,23.22,23.22,0,0,0,3,.34c1.91.07,3.81.23,5.72.2a9.08,9.08,0,0,1,1.21.26,91.59,91.59,0,0,1,9.86-7.47,46.65,46.65,0,0,1,9-5.33l-.11-1.14c-1.77-.88-3.51-1.8-5.26-2.72-2.57-1.33-5.14-2.65-7.69-4a29.67,29.67,0,0,0-1.68-2.82c-2.89-4.46-5.85-8.86-8.8-13.28l-1.26-1.69c-5.12-2.38-10.14-5-15.22-7.45a9.48,9.48,0,0,0-3.24-1.37,23.67,23.67,0,0,1-2.48-.8c.59-1.38,1.47-2.79,1.15-4.36-.16-1.68-1.16-3.08-1.83-4.57-.2-.55-.78-1.9.23-1.73a7.08,7.08,0,0,0,6.42-4.77,4.71,4.71,0,0,0-.46-3.78,10,10,0,0,1-1.38-3.35c-.34-2-.68-4-.93-6.09l-.16-1.18a5.6,5.6,0,0,0-1.88-.16,9.53,9.53,0,0,1-2.35.14c-.77-.06-1.51-.27-2.27-.39-.54-.37-1.23-.57-1.57-1.16-.23-.25-.06-.63-.11-.94s-.08-.73.16-1c.25-.53.56-1,.77-1.57a7.81,7.81,0,0,1,.2-.94,1,1,0,0,0,.37-1.07,1.4,1.4,0,0,1,.22-.92c.46-.11.44-1,.77-1.37.15-.22.2-.67.55-.62a1.32,1.32,0,0,0,.08-.9c0-.33-.22-.68,0-1a4.35,4.35,0,0,0,.27-1.46c0-.27.13-.55-.07-.78a1.47,1.47,0,0,1-.08-1.25,1.38,1.38,0,0,0,.24-.65.62.62,0,0,0,0-.63,2.93,2.93,0,0,1,0-.92c-.09-.22-.09-.46-.18-.66a1.11,1.11,0,0,0-.37-.66,2.48,2.48,0,0,0-.26-1.25c-.25-.23-.14-.57-.07-.92-.26-.54-.77-.92-1-1.5a22.92,22.92,0,0,0-1.5-3.23c-.57-.3-1-1.15-1.46-1.31-.37.33-.62.79-1,1.09-.76.36-1.58.6-2.34,1-.3.25-.52.62-.86.78s-.88,0-1.32,0a2.07,2.07,0,0,1-1.43-.09,8.94,8.94,0,0,0-2.34-.48c-.55.36-1,.88-1.51,1.26-.68.27-1.35.6-2,.82a5.82,5.82,0,0,1-1.57.88,3.32,3.32,0,0,1-1.28.34,3.82,3.82,0,0,0-1.37.15,13.34,13.34,0,0,0-1.32.44,6,6,0,0,1-.82.81Z" transform="translate(-6.76 -5.01)"/></g></g><path class="cls-15" d="M296,417l4.07,4.26,5.25,0,2.93,1,3.52,1.17,1.32-.07h4l0,3.59v7.67l3.89,0,3.82.07c-.16,7.76-.25,15.54-.22,23.29,2.51,0,5,.12,7.52.15l-.59,1,.59,1.14,0,2.79v8.51l-1.8-.37-.07-2.46-3.26-.62-3.45.55-8.8,3-6.27,2.2-.29-.73-2.2.84-3.82,1.61-1.8.59-2.79,1.17-4.4,2.31L288,482.17l-7.52,4.88-.92.84,1.21,3.34-.81.33-2.31-3.67-4.77,2.28-1.91,1.5-5.28,2.49-4.29-.18-3-1.21-2.83-.66-28.47,9.72-.44.33-10.12,3.41-1.06.59-.84.55-.7.18-1.36.59-1.36.55-1,.81L188.93,524l-4.11,2.94-3.59,2.64-6.9,4.92-4.15,2.9-.73.51-.51-.84,7.15-5.13-2.35-3.37-.22-.4.07-.33.29,0,3.34-2.2.33.4L176,527l.73,1-.55.4.37.52.55-.41,1.36,1.83,1.61-1.28,6.12-4.59.07-1.28-.07-.11,0-.33,3.92-2.79,3-1.91.66,1.14,11.7-8.8-.44-1.39,2.6-2,1.28-.66.07,0,.48-.11.55-.15,1.36.22.84-.63,4.33-1.47.11-1.32-.44-1.28.29-.55.7-.48.18-.11v0l.22.59,26.67-9.21,11.59-4,6.49,3.71,5.76-1.25,3.7-2.68-.51-.7-.26.22-.11-.14.44-.33.07.07.07.11.07,0,0,0,.08-.11.48.63,4.55-3.45-1.32-1.76-3.3,2.46-.26-.37-1.32,1,0,.07.51.88-.4.29-.37-.55-.77.59-.51-.59,5.21-3.93-.59-.77-5.17,4-.26-.33,1-.73-.84-1.17,4.92-3.67-.62-.84,1.25-1,3.74,5,1.14-.84L277.41,480l.62-.48-1-1.21,2.5-1.94,2.24,2.86,5.28-4,.74-.29-.33-.59-2.35,1-.08-.18,2.09-.88-.8-2-1.87-.59-5,3.92-1-1.25v-.25l-.44-1.87.26-.07.4,1.69.92-.66-.55-1.58.33-.11.44,1.47.92-.66-.59-1.58.22-.11.63,1.47.84-.7L281,470l.22-.15.77,1.39.88-.66-.85-1.39.26-.18.84,1.39.92-.77-.92-1,.22-.22,1,1.06,4,1.32.15-.29.55-.4-.07-.81.55.59,2.9-1.94-2.6-1.39.11-.18,2.71,1.43.84-.55.66-1.32-3.71-1.95.11-.26,3.78,1.94.88-1.65-3.93-2.05.11-.26,3.93,2.05.81-1.39-4-2.13.11-.29,4,2.13.55-1-4.11-2.24.07-.22,4.15,2.2.18-.29-.11-.37.26-.44-3.56-1.94.11-.22,3.52,1.91-.33-1.21-3-1.65.15-.29,2.68,1.5-.26-1.21-1.8-1,.11-.33,1.65.88-.3-.92-1.9-1.21-.4-.19L287.86,465,279,467.21l-.4-.29-.81-3.49.84-1.32,8-2.05,1.94-3.59.4-.66.73-1.36-.11-.52-12.91,3.34-2.2.51-2.09.48-2.64.59.22.77-.59.18,3,12,.62-.15.26.73-.66,1.1-.22,0-4.15,1-1.06-.62-.18-.73.7-.18-2.57-10.64-.55-2.05v-.22l.22-.22-.77-3.26,0-.18,3.52-.84-1.36-2.75L263,449.05l-.73-.92-4-4.84L258,443l-.7-.66-1.94-1.69-1.14-1.28.07-.84.11-.77v-3.12l0-1.61c.17-3.54.08-6.9.22-10.46,5.6-4.57,11.26-9.09,16.87-13.64l2.57.22,7.92,10C286.24,418.78,291.66,416.89,296,417Z" transform="translate(-6.76 -5.01)"/><g class="cls-12"><g class="cls-16"><path class="cls-14" d="M223.67,381.88c-.46,4,0,8.18-.29,12.18.28,5.12-.9,10.45,1,15.33,5.8,6,11.89,11.67,17.61,17.68,4.11,4.07,8.32,8.08,12.25,12.33l.07-.84.11-.77v-3.12l0-1.61c.17-3.54.08-6.9.22-10.46C260.3,418,266,413.51,271.57,409l2.57.22,7.92,10c4.17-.38,9.59-2.26,13.9-2.2l4.07,4.26,5.25,0,2.93,1,3.52,1.17,1.32-.07h4l0,3.59,3.92.07,10.79.15,2.16-1.94,2.57-2.68.73-.44,11.3-11.33,1.06-1.06-.48-.44-.66-1.39.07,0-.26-.7,0-.11h-1.43l-2.57-3,1.1-.77,4,2,.44-.11.92-.62.59-.18,1-.15c.1-8.13,0-16.31.15-24.43-.28-3.89.19-8.12,0-12-7.78-.06-15.55-.06-23.33,0l0,4-.07,3.85,0,4h-3.92l-3.82,0h-3.81l-4.18,0,0-3.92c-8,0-16.27.17-24.25,0q-16.55-8.29-33.13-16.51l-.48.73-.81,0-.77-.59c-4.46,1.82-7.86,4.64-11.85,7.23-6.53,4.66-12.16,10.34-18.16,15.66" transform="translate(-6.76 -5.01)"/><path class="cls-10" d="M223.67,381.88c-.46,4,0,8.18-.29,12.18.28,5.12-.9,10.45,1,15.33,5.8,6,11.89,11.67,17.61,17.68,4.11,4.07,8.32,8.08,12.25,12.33l.07-.84.11-.77v-3.12l0-1.61c.17-3.54.08-6.9.22-10.46C260.3,418,266,413.51,271.57,409l2.57.22,7.92,10c4.17-.38,9.59-2.26,13.9-2.2l4.07,4.26,5.25,0,2.93,1,3.52,1.17,1.32-.07h4l0,3.59,3.92.07,10.79.15,2.16-1.94,2.57-2.68.73-.44,11.3-11.33,1.06-1.06-.48-.44-.66-1.39.07,0-.26-.7,0-.11h-1.43l-2.57-3,1.1-.77,4,2,.44-.11.92-.62.59-.18,1-.15c.1-8.13,0-16.31.15-24.43-.28-3.89.19-8.12,0-12-7.78-.06-15.55-.06-23.33,0l0,4-.07,3.85,0,4h-3.92l-3.82,0h-3.81l-4.18,0,0-3.92c-8,0-16.27.17-24.25,0q-16.55-8.29-33.13-16.51l-.48.73-.81,0-.77-.59c-4.46,1.82-7.86,4.64-11.85,7.23C235.3,370.88,229.66,376.55,223.67,381.88Z" transform="translate(-6.76 -5.01)"/></g></g><path class="cls-17" d="M296,417l4.07,4.26c1.77,0,3.54-.05,5.3,0,2.14.69,4.27,1.4,6.4,2.11,1.77-.13,3.55,0,5.32-.07-.05,3.75,0,7.51,0,11.26q3.85,0,7.7.11c-.16,7.76-.25,15.53-.22,23.29,2.51,0,5,.12,7.52.15a5.46,5.46,0,0,0-.56,1.08c.22.52.67,1,.56,1.58.06,3.6,0,7.2,0,10.8l-1.8-.37q0-1.23-.07-2.46c-1.11-.2-2.21-.45-3.33-.62-1.2.22-2.44.33-3.62.62-5,1.69-9.91,3.38-14.84,5.13-.17-.3-.18-1-.65-.6-2,.72-4,1.65-6,2.42a37.05,37.05,0,0,0-4.45,1.75c-3.1,1.65-6.23,3.23-9.35,4.83-2.51,1.65-5.06,3.25-7.56,4.93-.24.27-.69.52-.79.81l2.36,3.78,1.69-.55,1,.78-39.71,16.56,27-13.51-.92-3.33-5.28,2.49c-1.45-.08-2.91-.1-4.35-.21-1.08-.41-2.12-.93-3.22-1.26-.86-.18-1.72-.45-2.58-.57l-28.41,9.7a7.34,7.34,0,0,1-2.22.93c-2.8,1-5.61,1.87-8.4,2.84-.66.33-1.28.75-1.91,1.12a34,34,0,0,0-3.21,1.25c-.71.44-1.32,1-2,1.48-8.36,6-16.76,11.86-25.09,17.84-4.16,3.07-8.38,6.05-12.61,9l-2.25,1.57c-.08-.31-.68-.73-.36-.95l4.35-3q.15-2.7.3-5.4c-.23-.24-.35-.85.15-.77l3.34-2.2c.46.33.23.56-.19.76L176,527l.73,1c-.38.22-.72.45-.26.81.22.29.64-.67.81,0l1.17,1.58c1.35-1.11,2.77-2.12,4.18-3.15l-1.39-3.66,10.52-7.3-.8-1.65,11.28-7.83c-.08-.35-.36-.77-.32-1.08l1.16-.76c.32.16.57.72,1,.51,4.19-1.48,8.4-2.93,12.57-4.44.26-.1.68-.62.85-.46.06.54.36.57.79.32,12.55-4.33,25.09-8.69,37.67-13l6.49,3.71c1.93-.44,3.89-.81,5.81-1.28l3.66-2.64c-.25-.2-.43-1-.75-.49-.3-.18.4-.6.51-.31.23-.25.41.52.65.5l4.5-3.41-1.32-1.76-3.3,2.46c-.18-.57-.5-.19-.8.06s-.74.42-.78.73.66.72.33.94c-.37.56-.44-.61-.77-.25-.3.18-.64.72-.87.19-.52-.32.06-.52.33-.76l4.61-3.47c-.25-.17-.43-.91-.73-.65l-5,3.84c-.5-.34.06-.54.35-.78.55-.2.25-.53,0-.85s-.7-.65-.14-.84l4.61-3.44c-.13-.3-.68-.66-.52-.92l1.15-.88,3.74,5,1.14-.84L277.41,480c.24-.24.89-.44.38-.76l-.78-.93,2.5-1.94,2.24,2.86c1.78-1.35,3.54-2.73,5.34-4.05.36-.15.91-.22.46-.65-.16-.43-.66.14-1,.17l-1.48.65c-.19-.37.57-.35.79-.55l1.22-.52-.8-2-1.87-.59-5,3.92a13.52,13.52,0,0,1-1-1.31,19.29,19.29,0,0,0-.44-2.06c.45-.25.31.52.46.78s.05,1.11.46.65c.27-.25.87-.39.54-.83l-.43-1.22c.48-.34.41.38.57.67s.15.93.56.43c.37-.22.72-.45.39-.87l-.41-1.11c.39-.29.38.52.59.76.13.44.28.78.64.28.42-.22.53-.51.2-.88-.11-.32-.45-.71-.43-1,.33-.27.41.52.62.72.17.42.36.73.72.27.44-.21.55-.48.19-.85-.11-.32-.62-.72-.45-1,.32-.26.42.51.64.7.19.4.4.77.74.26.3-.24.75-.47.24-.77-.14-.29-.84-.6-.45-.88.27.09.54.55.81.78.33.43,1,.41,1.41.63l2.81.93c0-.42.65-.47.69-.82s-.12-.89.28-.32.62-.16.94-.27l2.17-1.45-2.6-1.39c.18-.4.64.21.94.26l1.88,1c.38-.29.91-.43,1-.94.07-.31.56-.76.35-1l-3.59-1.89c.09-.52.59.09.89.15l3,1.54.88-1.65-3.93-2.05c.09-.53.59.1.89.15l3.15,1.64.81-1.39-4-2.13c.06-.57.58,0,.89.12l3.26,1.71c.13-.32.51-.71.5-1l-4.05-2.21c.09-.46.61.17.91.22l3.31,1.76c.36-.29-.11-.69.26-1,.09-.3-.6-.38-.81-.6l-2.68-1.46c.14-.46.63.17.94.23l2.69,1.46a7.18,7.18,0,0,0-.38-1.24L294,456.57c.1-.57.56,0,.86.11l2,1.1a6.72,6.72,0,0,0-.31-1.24l-1.74-.92c0-.61.52,0,.83.05s.88.59.89.38c-.15-.36-.13-.86-.57-1a20.09,20.09,0,0,0-2-1.19L287.86,465,279,467.21c-.42-.17-.49-.56-.56-1l-.65-2.81a12.15,12.15,0,0,1,.91-1.34l7.94-2c.9-1.67,1.79-3.33,2.74-5,.19-.34.46-.67.25-1.07-.22-.15-.72.16-1.05.18-4.31,1.1-8.6,2.26-12.92,3.31q-2.94.69-5.89,1.33c.05.35.45.88-.14.88s0,.67,0,1l2.75,11.12c.41-.15.76-.22.79.33.23.38-.24.68-.36,1s-.56.39-.92.5l-3.66.87a6.74,6.74,0,0,1-1.08-.68c-.1-.37-.33-.82.26-.78s.05-.62.07-.93c-1-3.95-1.86-7.91-2.91-11.84.09-.37.31-.63.08-1.05-.22-.95-.45-1.89-.66-2.84l3.52-.84c-.5-1-.91-2-1.48-2.9-2.68-3.23-5.31-6.5-8-9.69a40.78,40.78,0,0,1-3.43-3.24c-.39-.25-.29-.65-.25-1a37.48,37.48,0,0,0,.13-4.42c.14-3.56.15-7.13.22-10.7-.31-1.24,1-1.66,1.74-2.39,5-4.1,10.12-8.16,15.16-12.25l2.57.22,7.92,10c4.68-.46,9.17-2.2,13.9-2.2" transform="translate(-6.76 -5.01)"/><path class="cls-10" d="M296,417l4.07,4.26c1.77,0,3.54-.05,5.3,0,2.14.69,4.27,1.4,6.4,2.11,1.77-.13,3.55,0,5.32-.07-.05,3.75,0,7.51,0,11.26q3.85,0,7.7.11c-.16,7.76-.25,15.53-.22,23.29,2.51,0,5,.12,7.52.15a5.46,5.46,0,0,0-.56,1.08c.22.52.67,1,.56,1.58.06,3.6,0,7.2,0,10.8l-1.8-.37q0-1.23-.07-2.46c-1.11-.2-2.21-.45-3.33-.62-1.2.22-2.44.33-3.62.62-5,1.69-9.91,3.38-14.84,5.13-.17-.3-.18-1-.65-.6-2,.72-4,1.65-6,2.42a37.05,37.05,0,0,0-4.45,1.75c-3.1,1.65-6.23,3.23-9.35,4.83-2.51,1.65-5.06,3.25-7.56,4.93-.24.27-.69.52-.79.81l2.36,3.78,1.69-.55,1,.78-39.71,16.56,27-13.51-.92-3.33-5.28,2.49c-1.45-.08-2.91-.1-4.35-.21-1.08-.41-2.12-.93-3.22-1.26-.86-.18-1.72-.45-2.58-.57l-28.41,9.7a7.34,7.34,0,0,1-2.22.93c-2.8,1-5.61,1.87-8.4,2.84-.66.33-1.28.75-1.91,1.12a34,34,0,0,0-3.21,1.25c-.71.44-1.32,1-2,1.48-8.36,6-16.76,11.86-25.09,17.84-4.16,3.07-8.38,6.05-12.61,9l-2.25,1.57c-.08-.31-.68-.73-.36-.95l4.35-3q.15-2.7.3-5.4c-.23-.24-.35-.85.15-.77l3.34-2.2c.46.33.23.56-.19.76L176,527l.73,1c-.38.22-.72.45-.26.81.22.29.64-.67.81,0l1.17,1.58c1.35-1.11,2.77-2.12,4.18-3.15l-1.39-3.66,10.52-7.3-.8-1.65,11.28-7.83c-.08-.35-.36-.77-.32-1.08l1.16-.76c.32.16.57.72,1,.51,4.19-1.48,8.4-2.93,12.57-4.44.26-.1.68-.62.85-.46.06.54.36.57.79.32,12.55-4.33,25.09-8.69,37.67-13l6.49,3.71c1.93-.44,3.89-.81,5.81-1.28l3.66-2.64c-.25-.2-.43-1-.75-.49-.3-.18.4-.6.51-.31.23-.25.41.52.65.5l4.5-3.41-1.32-1.76-3.3,2.46c-.18-.57-.5-.19-.8.06s-.74.42-.78.73.66.72.33.94c-.37.56-.44-.61-.77-.25-.3.18-.64.72-.87.19-.52-.32.06-.52.33-.76l4.61-3.47c-.25-.17-.43-.91-.73-.65l-5,3.84c-.5-.34.06-.54.35-.78.55-.2.25-.53,0-.85s-.7-.65-.14-.84l4.61-3.44c-.13-.3-.68-.66-.52-.92l1.15-.88,3.74,5,1.14-.84L277.41,480c.24-.24.89-.44.38-.76l-.78-.93,2.5-1.94,2.24,2.86c1.78-1.35,3.54-2.73,5.34-4.05.36-.15.91-.22.46-.65-.16-.43-.66.14-1,.17l-1.48.65c-.19-.37.57-.35.79-.55l1.22-.52-.8-2-1.87-.59-5,3.92a13.52,13.52,0,0,1-1-1.31,19.29,19.29,0,0,0-.44-2.06c.45-.25.31.52.46.78s.05,1.11.46.65c.27-.25.87-.39.54-.83l-.43-1.22c.48-.34.41.38.57.67s.15.93.56.43c.37-.22.72-.45.39-.87l-.41-1.11c.39-.29.38.52.59.76.13.44.28.78.64.28.42-.22.53-.51.2-.88-.11-.32-.45-.71-.43-1,.33-.27.41.52.62.72.17.42.36.73.72.27.44-.21.55-.48.19-.85-.11-.32-.62-.72-.45-1,.32-.26.42.51.64.7.19.4.4.77.74.26.3-.24.75-.47.24-.77-.14-.29-.84-.6-.45-.88.27.09.54.55.81.78.33.43,1,.41,1.41.63l2.81.93c0-.42.65-.47.69-.82s-.12-.89.28-.32.62-.16.94-.27l2.17-1.45-2.6-1.39c.18-.4.64.21.94.26l1.88,1c.38-.29.91-.43,1-.94.07-.31.56-.76.35-1l-3.59-1.89c.09-.52.59.09.89.15l3,1.54.88-1.65-3.93-2.05c.09-.53.59.1.89.15l3.15,1.64.81-1.39-4-2.13c.06-.57.58,0,.89.12l3.26,1.71c.13-.32.51-.71.5-1l-4.05-2.21c.09-.46.61.17.91.22l3.31,1.76c.36-.29-.11-.69.26-1,.09-.3-.6-.38-.81-.6l-2.68-1.46c.14-.46.63.17.94.23l2.69,1.46a7.18,7.18,0,0,0-.38-1.24L294,456.57c.1-.57.56,0,.86.11l2,1.1a6.72,6.72,0,0,0-.31-1.24l-1.74-.92c0-.61.52,0,.83.05s.88.59.89.38c-.15-.36-.13-.86-.57-1a20.09,20.09,0,0,0-2-1.19L287.86,465,279,467.21c-.42-.17-.49-.56-.56-1l-.65-2.81a12.15,12.15,0,0,1,.91-1.34l7.94-2c.9-1.67,1.79-3.33,2.74-5,.19-.34.46-.67.25-1.07-.22-.15-.72.16-1.05.18-4.31,1.1-8.6,2.26-12.92,3.31q-2.94.69-5.89,1.33c.05.35.45.88-.14.88s0,.67,0,1l2.75,11.12c.41-.15.76-.22.79.33.23.38-.24.68-.36,1s-.56.39-.92.5l-3.66.87a6.74,6.74,0,0,1-1.08-.68c-.1-.37-.33-.82.26-.78s.05-.62.07-.93c-1-3.95-1.86-7.91-2.91-11.84.09-.37.31-.63.08-1.05-.22-.95-.45-1.89-.66-2.84l3.52-.84c-.5-1-.91-2-1.48-2.9-2.68-3.23-5.31-6.5-8-9.69a40.78,40.78,0,0,1-3.43-3.24c-.39-.25-.29-.65-.25-1a37.48,37.48,0,0,0,.13-4.42c.14-3.56.15-7.13.22-10.7-.31-1.24,1-1.66,1.74-2.39,5-4.1,10.12-8.16,15.16-12.25l2.57.22,7.92,10C286.75,418.69,291.24,417,296,417Z" transform="translate(-6.76 -5.01)"/><g class="cls-7"><g class="cls-18"><path class="cls-9" d="M284.71,274.14c0,.26-.16,1.08-.33.5-.21-.08-.19-.66-.32-.93-.77-3-1.48-6-2.3-8.94a21.46,21.46,0,0,1-.71-2.12L279,255.07c-.22-.09-.19-.69-.32-1,.19-.09.68.25,1,.18.59-.2.77-.87.94-1.4a13.63,13.63,0,0,0,.23-1.89,28.24,28.24,0,0,1,1.22-2.75c.27-.33.77-.35,1-.74.71-.85,1.28-1.9,2.34-2.37,1.48-.56,3-1.06,4.45-1.66a1,1,0,0,0,.48-1.1,19.12,19.12,0,0,0,2.41-.2c.59,0,1-.43,1.56-.6a2.12,2.12,0,0,1,1.57-.3c.4-.38,1-.26,1.43-.69.34-.24.91-.13,1.1-.56.67-.18,1.24-.64,1.91-.84a8.08,8.08,0,0,0,1.51.34,6.3,6.3,0,0,0,1.45-.45l9.77-.51c-.1-.41,0-.72.44-.73,1.25-.28,2.53-.39,3.78-.7,1.05-.08,2.13-.09,3.17-.22.52-.27.76-.83,1.28-1.1a21.66,21.66,0,0,1,2.42-1.09c.57-.17,1-.73,1.59-.72.38-.07.69-.37,1.09-.42s.56-.28.61-.71a8.21,8.21,0,0,1,1.07-2.1c.49-.59,1.34-.59,1.95-1a29.88,29.88,0,0,0,2.87-1.69,7.77,7.77,0,0,0,2.23-2.42,8.58,8.58,0,0,1,2.11-2.05c1.14.07,2.53-.27,3-1.46.23-.67.28-1.59,1-1.92a3,3,0,0,1,1.36-.6c.41-.11.85-.17,1.09-.56.38-.64,1.07-.58,1.73-.67.86,0,1.65-.94,2.44-.64a3.54,3.54,0,0,0,1.24.73,4.56,4.56,0,0,1,1.45.82,3.14,3.14,0,0,0,1.78.09c.56-.11,1.25,0,1.63-.49a8.61,8.61,0,0,0,1.21-1.22c.95.31,2,.73,2.93.19a2.67,2.67,0,0,0,1.08-.37c.47-.18.95-.24,1.42-.41a10.55,10.55,0,0,1,1.42-.41c.58,0,.72-.74,1.27-.8a16.4,16.4,0,0,1,1.62,2.68,1.24,1.24,0,0,0,1,.39,3.61,3.61,0,0,0,1.2,0,10.5,10.5,0,0,0,.73,1.25l1.14,0a37,37,0,0,0,4.55,6c.61.66.36,1.55.29,2.34,0,.43.33.59.63.8A8.56,8.56,0,0,0,377,230a6.17,6.17,0,0,0,2,1.13c.39.66.43,1.77,1.21,2.28,1,.35.94,1.57,2.05,1.59a4.58,4.58,0,0,1,2.28,2.26,4.89,4.89,0,0,0,.16,2.13,1.9,1.9,0,0,0,.46,1.1c.33.21.34.72.53,1.05.1.53.76.31,1.14.35a2.73,2.73,0,0,1,2.31.85,20.5,20.5,0,0,0,2.52,2.36c.44.26.46.82.84,1.15a3.2,3.2,0,0,0,2.1.67,6.73,6.73,0,0,0,1.8-.56,4.89,4.89,0,0,0,1.82-.87,3.52,3.52,0,0,1,3.8.52,3.42,3.42,0,0,0,1.56.52,6,6,0,0,1,1.82.57,3.14,3.14,0,0,1,1.29,1.64c.18.5.3,1,.49,1.52.72.64,1.76.57,2.65.79l2.29.41c.12.37-.16,2-1,2.25-.42.11-.58.62-1.05.57a44.13,44.13,0,0,1-4.78,1.21,7.54,7.54,0,0,1-2.46,0,2.26,2.26,0,0,1-.9-.67c-.43-.19-.55.41-.42.71a1.4,1.4,0,0,1,0,1.14c-.5.83-1.53,1-2.33,1.45-.53.38-1-.21-1.49-.43a5.9,5.9,0,0,1-1.8-1.3.42.42,0,0,0-.65.45,3.75,3.75,0,0,1,1.07,2.64,1.53,1.53,0,0,0,.33,1.09,1.9,1.9,0,0,1,.32,1.56c-.09.75-.87,1.19-1,1.91a1.66,1.66,0,0,1-.14,1.32c-.19.52-.72.85-.85,1.4a5.58,5.58,0,0,0-.73,1.75c-.33.81-.63,2.43.2,2.83.22,0,.94-.21.76.18a1.09,1.09,0,0,0,.12,1c.3,1.09.53,2.21.84,3.3.48.18.4.78.58,1.18a2.26,2.26,0,0,0,.78,1.2c.15.56-.34,1.06-.82,1.24s-.74-.41-1.11-.62a1.59,1.59,0,0,0-1.5-.37,3.24,3.24,0,0,0-2,1.37,7.51,7.51,0,0,0-1.23,5.61c.14,1.14.37,2.26.53,3.39-.44.1-.13-.78-.49-.76-.56.06-1.12.12-1.68.21.35.62,1,1.91.59,2.35-.44.11-.68-.07-.71-.53s-.61,0-.92,0-.9.17-.5.61l1.25,2.69c-.32.21-.7.34-1,.55-.74-.4-1.77,1.11-2.65,1.31-.57.6-.52-1-1.08-.16-2.11,1.34-4.45,2.42-6.24,4.2-1.34,1.47-1.47,3.56-2.32,5.28.48,2.21.65,4.48,1,6.71a3.23,3.23,0,0,1-1.32-.41c-.24.22-.6.12-.9.22s-.63-.48-1.07-.41c-1.49-.2-3-.26-4.48-.39-.24.37.12.75.27,1.09a46.71,46.71,0,0,0,3.74,5.15c1.28,1.66,2.41,3.44,3.66,5.13a20.09,20.09,0,0,1,2.51,4.67c1.74,3.86,3.42,7.74,5.21,11.57a15.32,15.32,0,0,1-.43,2.45c-1.12,5.53-2,11.11-3,16.67.41.32.45.88.66,1.32-.06.47-.12,1-.19,1.43-1.07.15-2.21-.42-3.22.06a37.65,37.65,0,0,0-6.91,5.84c-.59.52-1,1.34-1.63,1.74a5.26,5.26,0,0,1-1.95.21c-3.58,0-7.16-.2-10.75-.14q-13.94-.13-27.88-.07c0-4.92-.1-9.84,0-14.76.3-.64-.22-1.28-.05-1.93a50.47,50.47,0,0,1,1.07-5.16,16.07,16.07,0,0,0,.53-2.59l.74-3.22c.22-.33.67-.24.88-.59a1.44,1.44,0,0,0,.17-1,4.73,4.73,0,0,0-1.64-.59,5.67,5.67,0,0,1-.82-1.91,18.24,18.24,0,0,1,0-2.71,14.8,14.8,0,0,1,.83-4c.29-.84.72-1.62,1.08-2.43a.68.68,0,0,0-1-.54c-1,.32-2,.74-3,1-.78-.19-1.46-.77-2.3-.69-.53-.07-1.35.09-1.57-.54-.09-.47.12-1-.1-1.43.06-1,0-1.92.07-2.88a20.4,20.4,0,0,0,.15-3.32c0-.4.14-.84-.22-1.12l-.88-1.16c.5-.62.2-1.47.21-2.2a4.26,4.26,0,0,1,.22-1.58c.31-.62,1.08-.73,1.63-1.07a8.19,8.19,0,0,0,3.16-1.32c.66-.49,1.28-1,1.91-1.58-.16-.54-.79-.73-1-1.24-.53-.73-1.09-1.44-1.6-2.18a11.42,11.42,0,0,1-.94-1.18c.11-.42.78-.1,1-.48.62-.67,1.32-1.27,1.88-2,.13-.59-.51-.85-.83-1.23-.64-.57-1.21-1.25-1.9-1.76s-1.75-.47-2.55-.88c-1.27-.72-2.53-1.46-3.79-2.2a2.1,2.1,0,0,0-1.62-.24c-.61.06-1.22-.06-1.83,0-.4-.17-.39-.58-.35-1,.09-1.81.07-3.62.1-5.43-.17-.8-1.08-.91-1.7-1.2a7.41,7.41,0,0,0-1.63-.62c-.35-.07-.71-.32-1,0L310,287.68c-.7-1.6-1.45-3.19-2.15-4.8-.16-.39-.33-.9.07-1.21a.81.81,0,0,1,1-.34c.59.13,1.28.57,1.81.08.52-.28.6-.95.91-1.41a7.23,7.23,0,0,0,1.19-3.18,3.36,3.36,0,0,0-1.22-2.56,1.28,1.28,0,0,1-.09-1.58c.41-.48.89-.91,1.25-1.43a2.67,2.67,0,0,0-.28-1.65c-.21-.31-.17-1.12-.72-.84-.32.79-.15,2-1.41,2a6.62,6.62,0,0,1-2.12,0,6.19,6.19,0,0,0-2.6,1.28c-.37.53-.06,1.24-.19,1.84a5.86,5.86,0,0,1-1,2.82c-.14-.26,0-.71,0-1s.14-.87-.17-1.22a2.68,2.68,0,0,0-1.53-1,5.29,5.29,0,0,1-.75-1c-.66-.47-1.69.1-2.25-.72-.58-.65-1.44-.93-2.06-1.52-.42-.24-.75.29-.82.64-.31,1.27-.55,2.58-.86,3.84a.78.78,0,0,1-1.12.19,11.79,11.79,0,0,0-2.18-.57c-.46-.28-.33-.84-.09-1.23a1.52,1.52,0,0,0,.15-1.54c-.09-.39-.22-.74-.68-.74-.7.4-2.1,1.13-2.38-.29-.19-.47.26-.88.25-1.34-.3-.58-1.22.07-1.48-.57-.13-.46-.63-.39-1-.44a1.34,1.34,0,0,0-1.2-.12c-.4.21-.33.6-.12.93a2.22,2.22,0,0,1,0,1.53c-.25.48-.84.42-1.3.45-.5.26-.3,1-.25,1.41a4.64,4.64,0,0,1,0,1.79" transform="translate(-6.76 -5.01)"/><path class="cls-10" d="M284.71,274.14c0,.26-.16,1.08-.33.5-.21-.08-.19-.66-.32-.93-.77-3-1.48-6-2.3-8.94a21.46,21.46,0,0,1-.71-2.12L279,255.07c-.22-.09-.19-.69-.32-1,.19-.09.68.25,1,.18.59-.2.77-.87.94-1.4a13.63,13.63,0,0,0,.23-1.89,28.24,28.24,0,0,1,1.22-2.75c.27-.33.77-.35,1-.74.71-.85,1.28-1.9,2.34-2.37,1.48-.56,3-1.06,4.45-1.66a1,1,0,0,0,.48-1.1,19.12,19.12,0,0,0,2.41-.2c.59,0,1-.43,1.56-.6a2.12,2.12,0,0,1,1.57-.3c.4-.38,1-.26,1.43-.69.34-.24.91-.13,1.1-.56.67-.18,1.24-.64,1.91-.84a8.08,8.08,0,0,0,1.51.34,6.3,6.3,0,0,0,1.45-.45l9.77-.51c-.1-.41,0-.72.44-.73,1.25-.28,2.53-.39,3.78-.7,1.05-.08,2.13-.09,3.17-.22.52-.27.76-.83,1.28-1.1a21.66,21.66,0,0,1,2.42-1.09c.57-.17,1-.73,1.59-.72.38-.07.69-.37,1.09-.42s.56-.28.61-.71a8.21,8.21,0,0,1,1.07-2.1c.49-.59,1.34-.59,1.95-1a29.88,29.88,0,0,0,2.87-1.69,7.77,7.77,0,0,0,2.23-2.42,8.58,8.58,0,0,1,2.11-2.05c1.14.07,2.53-.27,3-1.46.23-.67.28-1.59,1-1.92a3,3,0,0,1,1.36-.6c.41-.11.85-.17,1.09-.56.38-.64,1.07-.58,1.73-.67.86,0,1.65-.94,2.44-.64a3.54,3.54,0,0,0,1.24.73,4.56,4.56,0,0,1,1.45.82,3.14,3.14,0,0,0,1.78.09c.56-.11,1.25,0,1.63-.49a8.61,8.61,0,0,0,1.21-1.22c.95.31,2,.73,2.93.19a2.67,2.67,0,0,0,1.08-.37c.47-.18.95-.24,1.42-.41a10.55,10.55,0,0,1,1.42-.41c.58,0,.72-.74,1.27-.8a16.4,16.4,0,0,1,1.62,2.68,1.24,1.24,0,0,0,1,.39,3.61,3.61,0,0,0,1.2,0,10.5,10.5,0,0,0,.73,1.25l1.14,0a37,37,0,0,0,4.55,6c.61.66.36,1.55.29,2.34,0,.43.33.59.63.8A8.56,8.56,0,0,0,377,230a6.17,6.17,0,0,0,2,1.13c.39.66.43,1.77,1.21,2.28,1,.35.94,1.57,2.05,1.59a4.58,4.58,0,0,1,2.28,2.26,4.89,4.89,0,0,0,.16,2.13,1.9,1.9,0,0,0,.46,1.1c.33.21.34.72.53,1.05.1.53.76.31,1.14.35a2.73,2.73,0,0,1,2.31.85,20.5,20.5,0,0,0,2.52,2.36c.44.26.46.82.84,1.15a3.2,3.2,0,0,0,2.1.67,6.73,6.73,0,0,0,1.8-.56,4.89,4.89,0,0,0,1.82-.87,3.52,3.52,0,0,1,3.8.52,3.42,3.42,0,0,0,1.56.52,6,6,0,0,1,1.82.57,3.14,3.14,0,0,1,1.29,1.64c.18.5.3,1,.49,1.52.72.64,1.76.57,2.65.79l2.29.41c.12.37-.16,2-1,2.25-.42.11-.58.62-1.05.57a44.13,44.13,0,0,1-4.78,1.21,7.54,7.54,0,0,1-2.46,0,2.26,2.26,0,0,1-.9-.67c-.43-.19-.55.41-.42.71a1.4,1.4,0,0,1,0,1.14c-.5.83-1.53,1-2.33,1.45-.53.38-1-.21-1.49-.43a5.9,5.9,0,0,1-1.8-1.3.42.42,0,0,0-.65.45,3.75,3.75,0,0,1,1.07,2.64,1.53,1.53,0,0,0,.33,1.09,1.9,1.9,0,0,1,.32,1.56c-.09.75-.87,1.19-1,1.91a1.66,1.66,0,0,1-.14,1.32c-.19.52-.72.85-.85,1.4a5.58,5.58,0,0,0-.73,1.75c-.33.81-.63,2.43.2,2.83.22,0,.94-.21.76.18a1.09,1.09,0,0,0,.12,1c.3,1.09.53,2.21.84,3.3.48.18.4.78.58,1.18a2.26,2.26,0,0,0,.78,1.2c.15.56-.34,1.06-.82,1.24s-.74-.41-1.11-.62a1.59,1.59,0,0,0-1.5-.37,3.24,3.24,0,0,0-2,1.37,7.51,7.51,0,0,0-1.23,5.61c.14,1.14.37,2.26.53,3.39-.44.1-.13-.78-.49-.76-.56.06-1.12.12-1.68.21.35.62,1,1.91.59,2.35-.44.11-.68-.07-.71-.53s-.61,0-.92,0-.9.17-.5.61l1.25,2.69c-.32.21-.7.34-1,.55-.74-.4-1.77,1.11-2.65,1.31-.57.6-.52-1-1.08-.16-2.11,1.34-4.45,2.42-6.24,4.2-1.34,1.47-1.47,3.56-2.32,5.28.48,2.21.65,4.48,1,6.71a3.23,3.23,0,0,1-1.32-.41c-.24.22-.6.12-.9.22s-.63-.48-1.07-.41c-1.49-.2-3-.26-4.48-.39-.24.37.12.75.27,1.09a46.71,46.71,0,0,0,3.74,5.15c1.28,1.66,2.41,3.44,3.66,5.13a20.09,20.09,0,0,1,2.51,4.67c1.74,3.86,3.42,7.74,5.21,11.57a15.32,15.32,0,0,1-.43,2.45c-1.12,5.53-2,11.11-3,16.67.41.32.45.88.66,1.32-.06.47-.12,1-.19,1.43-1.07.15-2.21-.42-3.22.06a37.65,37.65,0,0,0-6.91,5.84c-.59.52-1,1.34-1.63,1.74a5.26,5.26,0,0,1-1.95.21c-3.58,0-7.16-.2-10.75-.14q-13.94-.13-27.88-.07c0-4.92-.1-9.84,0-14.76.3-.64-.22-1.28-.05-1.93a50.47,50.47,0,0,1,1.07-5.16,16.07,16.07,0,0,0,.53-2.59l.74-3.22c.22-.33.67-.24.88-.59a1.44,1.44,0,0,0,.17-1,4.73,4.73,0,0,0-1.64-.59,5.67,5.67,0,0,1-.82-1.91,18.24,18.24,0,0,1,0-2.71,14.8,14.8,0,0,1,.83-4c.29-.84.72-1.62,1.08-2.43a.68.68,0,0,0-1-.54c-1,.32-2,.74-3,1-.78-.19-1.46-.77-2.3-.69-.53-.07-1.35.09-1.57-.54-.09-.47.12-1-.1-1.43.06-1,0-1.92.07-2.88a20.4,20.4,0,0,0,.15-3.32c0-.4.14-.84-.22-1.12l-.88-1.16c.5-.62.2-1.47.21-2.2a4.26,4.26,0,0,1,.22-1.58c.31-.62,1.08-.73,1.63-1.07a8.19,8.19,0,0,0,3.16-1.32c.66-.49,1.28-1,1.91-1.58-.16-.54-.79-.73-1-1.24-.53-.73-1.09-1.44-1.6-2.18a11.42,11.42,0,0,1-.94-1.18c.11-.42.78-.1,1-.48.62-.67,1.32-1.27,1.88-2,.13-.59-.51-.85-.83-1.23-.64-.57-1.21-1.25-1.9-1.76s-1.75-.47-2.55-.88c-1.27-.72-2.53-1.46-3.79-2.2a2.1,2.1,0,0,0-1.62-.24c-.61.06-1.22-.06-1.83,0-.4-.17-.39-.58-.35-1,.09-1.81.07-3.62.1-5.43-.17-.8-1.08-.91-1.7-1.2a7.41,7.41,0,0,0-1.63-.62c-.35-.07-.71-.32-1,0L310,287.68c-.7-1.6-1.45-3.19-2.15-4.8-.16-.39-.33-.9.07-1.21a.81.81,0,0,1,1-.34c.59.13,1.28.57,1.81.08.52-.28.6-.95.91-1.41a7.23,7.23,0,0,0,1.19-3.18,3.36,3.36,0,0,0-1.22-2.56,1.28,1.28,0,0,1-.09-1.58c.41-.48.89-.91,1.25-1.43a2.67,2.67,0,0,0-.28-1.65c-.21-.31-.17-1.12-.72-.84-.32.79-.15,2-1.41,2a6.62,6.62,0,0,1-2.12,0,6.19,6.19,0,0,0-2.6,1.28c-.37.53-.06,1.24-.19,1.84a5.86,5.86,0,0,1-1,2.82c-.14-.26,0-.71,0-1s.14-.87-.17-1.22a2.68,2.68,0,0,0-1.53-1,5.29,5.29,0,0,1-.75-1c-.66-.47-1.69.1-2.25-.72-.58-.65-1.44-.93-2.06-1.52-.42-.24-.75.29-.82.64-.31,1.27-.55,2.58-.86,3.84a.78.78,0,0,1-1.12.19,11.79,11.79,0,0,0-2.18-.57c-.46-.28-.33-.84-.09-1.23a1.52,1.52,0,0,0,.15-1.54c-.09-.39-.22-.74-.68-.74-.7.4-2.1,1.13-2.38-.29-.19-.47.26-.88.25-1.34-.3-.58-1.22.07-1.48-.57-.13-.46-.63-.39-1-.44a1.34,1.34,0,0,0-1.2-.12c-.4.21-.33.6-.12.93a2.22,2.22,0,0,1,0,1.53c-.25.48-.84.42-1.3.45-.5.26-.3,1-.25,1.41A4.64,4.64,0,0,1,284.71,274.14Z" transform="translate(-6.76 -5.01)"/></g></g><path class="cls-17" d="M311.38,270.33a3.3,3.3,0,0,1-2.27.44c-.32.18-.49.25-.63-.06a8.14,8.14,0,0,0-2.16.87c-.35.22-.79.45-.8.92a7.1,7.1,0,0,1-.52,3.34c-.16.21-.25,1-.55.8,0-.6.13-1.2.13-1.79a2.86,2.86,0,0,0-.75-1,6.08,6.08,0,0,0-1-.48,3.31,3.31,0,0,1-.67-.93c-.21-.14-.42-.32-.7-.26s-.69.15-1-.1c-.63-.33-1.13-.86-1.75-1.21a5.44,5.44,0,0,1-1-.71c-.2-.09-.44-.1-.55.13a1.59,1.59,0,0,0-.41,1.15c-.13.78-.34,1.55-.55,2.31a7.74,7.74,0,0,1-.17.87.68.68,0,0,1-.88.3,7.43,7.43,0,0,0-1.69-.5,2.91,2.91,0,0,1-.79-.21.61.61,0,0,1-.21-.75c.12-.47.51-.86.48-1.37a4.07,4.07,0,0,0-.29-1c0-.28-.33-.23-.53-.33s-.42.18-.62.26a3.08,3.08,0,0,1-.89.35,1.5,1.5,0,0,1-.71-.55c-.13.12.32,1.09.91.84s1,.3.46.58c-.34.3-.75.55-1.06.87s-.52.84-.71,1.29l-.28,1.25,1.06,1.54,2.31.7a4.82,4.82,0,0,1,.57,1.46c.39,1.3.82,2.59,1.19,3.89-.1,1.72-.14,3.44-.34,5.15l-.25,2.56L292,292q-.22,2.07-.44,4.15c.16.45.37.9.51,1.36-.08,1.44,0,2.88-.07,4.33s0,2.75-.09,4.11c0,.76,0,1.52,0,2.27,0,.25,0,.55.25.69,1,1.44,2.06,2.86,3.17,4.22a30.48,30.48,0,0,1,2.63,3.38c.59,1.11.06,2.37-.44,3.41a7.38,7.38,0,0,0-.76,1.78c-.45,1.83-1,3.64-1.41,5.47a9.75,9.75,0,0,0-.35,2.07c0,1.07-.08,2.15-.12,3.22h-1c0,.23,0,.55-.3.44-.29.07,0,.25.08.4s-.12.54,0,.63.07.36.11.54c.33.1.21-.28.25-.48s.44,0,.63,0c.14.16,0,.45,0,.67-.07.83-.06,1.67-.13,2.49a2.35,2.35,0,0,1-.61,1,2.24,2.24,0,0,0-1.13.93c-.58.94-1,2-1.61,2.89-.27.2-.49.48-.84.5a4,4,0,0,0-1.41.5c-.37.26-.79.48-1.14.77a16.39,16.39,0,0,0-.76,2.39c-.27,1-.63,2.05-.8,3.11a2.41,2.41,0,0,1-.51,1,5.21,5.21,0,0,1-1,1.09,3.74,3.74,0,0,0-.79.79c-.28,1.87-.61,3.73-.86,5.62-.14,1-.29,2-.39,3-.49,3.19-.53,6.52-1.85,9.52,0,.35-.74.88-.3,1.05l8.17,4.08c8.08.21,16.16,0,24.25,0q0,2,0,3.92c2.86,0,5.73,0,8.59,0,2.38,0,4.76,0,7.15,0,.1-6.69.17-13.38.11-20.07,0-2.14,0-4.27,0-6.41A1.51,1.51,0,0,0,329,352a2.35,2.35,0,0,1-.09-1.18c.53-3.68,1.67-7.23,2.32-10.89a.91.91,0,0,1,.62-.33,1,1,0,0,0,.44-.85c0-.23.08-.47-.18-.59a10.16,10.16,0,0,0-1.47-.44,11.19,11.19,0,0,1-.66-1.28,3.78,3.78,0,0,1-.22-1.33,21.33,21.33,0,0,1,.51-5.05,18.83,18.83,0,0,1,.93-2.34,11.86,11.86,0,0,0,.49-1.11c-.06-.26-.19-.54-.49-.55s-.74.17-1.11.26c-.79.25-1.57.6-2.38.77-.6-.15-1.13-.51-1.72-.66a10.15,10.15,0,0,1-1.76-.16.71.71,0,0,1-.4-.83c0-.32.12-.67-.08-1,.08-.82-.06-1.64,0-2.46,0-1,.18-2.08.24-3.11a6.48,6.48,0,0,1,0-1.47l-1.14-1.5a1,1,0,0,0,.27-.7,16.3,16.3,0,0,0-.08-1.81,11.61,11.61,0,0,1,.2-1.19,1.57,1.57,0,0,1,1-.8,5.25,5.25,0,0,1,1.35-.53,11,11,0,0,0,1.93-.7,29,29,0,0,0,2.5-2,1.23,1.23,0,0,0-.51-.64,8.77,8.77,0,0,1-1-1.21,17.06,17.06,0,0,1-1-1.42l-1.06-1.28c0-.32.37-.27.58-.33s.45-.32.67-.49c.5-.54,1.06-1,1.53-1.6a.56.56,0,0,0-.11-.72c-.81-.76-1.6-1.55-2.42-2.3a9,9,0,0,0-1.65-.58,4.23,4.23,0,0,1-1.27-.51c-1.17-.67-2.33-1.33-3.47-2a2.32,2.32,0,0,0-1.4-.32c-.69.17-1.4,0-2.09.07-.18-.09-.43-.23-.39-.48,0-1,.09-2,.07-3s0-2,0-2.92a1.19,1.19,0,0,0-.81-.81,17.05,17.05,0,0,0-3.22-1.17L310,287.68c-.7-1.57-1.41-3.13-2.12-4.69-.09-.36-.37-.77-.12-1.11a1.44,1.44,0,0,1,.69-.61c.61,0,1.16.35,1.76.39a1.86,1.86,0,0,0,.86-.5,17.38,17.38,0,0,0,1.62-3.3,3.61,3.61,0,0,0-.82-3.46,1.37,1.37,0,0,1-.57-1c0-.25.17-.46.24-.7.41-.48.89-.91,1.25-1.43a2.31,2.31,0,0,0-.13-1.27l-.49-1.26c-.94-.17-.36,1.23-.81,1.61" transform="translate(-6.76 -5.01)"/><path class="cls-10" d="M311.38,270.33a3.3,3.3,0,0,1-2.27.44c-.32.18-.49.25-.63-.06a8.14,8.14,0,0,0-2.16.87c-.35.22-.79.45-.8.92a7.1,7.1,0,0,1-.52,3.34c-.16.21-.25,1-.55.8,0-.6.13-1.2.13-1.79a2.86,2.86,0,0,0-.75-1,6.08,6.08,0,0,0-1-.48,3.31,3.31,0,0,1-.67-.93c-.21-.14-.42-.32-.7-.26s-.69.15-1-.1c-.63-.33-1.13-.86-1.75-1.21a5.44,5.44,0,0,1-1-.71c-.2-.09-.44-.1-.55.13a1.59,1.59,0,0,0-.41,1.15c-.13.78-.34,1.55-.55,2.31a7.74,7.74,0,0,1-.17.87.68.68,0,0,1-.88.3,7.43,7.43,0,0,0-1.69-.5,2.91,2.91,0,0,1-.79-.21.61.61,0,0,1-.21-.75c.12-.47.51-.86.48-1.37a4.07,4.07,0,0,0-.29-1c0-.28-.33-.23-.53-.33s-.42.18-.62.26a3.08,3.08,0,0,1-.89.35,1.5,1.5,0,0,1-.71-.55c-.13.12.32,1.09.91.84s1,.3.46.58c-.34.3-.75.55-1.06.87s-.52.84-.71,1.29l-.28,1.25,1.06,1.54,2.31.7a4.82,4.82,0,0,1,.57,1.46c.39,1.3.82,2.59,1.19,3.89-.1,1.72-.14,3.44-.34,5.15l-.25,2.56L292,292q-.22,2.07-.44,4.15c.16.45.37.9.51,1.36-.08,1.44,0,2.88-.07,4.33s0,2.75-.09,4.11c0,.76,0,1.52,0,2.27,0,.25,0,.55.25.69,1,1.44,2.06,2.86,3.17,4.22a30.48,30.48,0,0,1,2.63,3.38c.59,1.11.06,2.37-.44,3.41a7.38,7.38,0,0,0-.76,1.78c-.45,1.83-1,3.64-1.41,5.47a9.75,9.75,0,0,0-.35,2.07c0,1.07-.08,2.15-.12,3.22h-1c0,.23,0,.55-.3.44-.29.07,0,.25.08.4s-.12.54,0,.63.07.36.11.54c.33.1.21-.28.25-.48s.44,0,.63,0c.14.16,0,.45,0,.67-.07.83-.06,1.67-.13,2.49a2.35,2.35,0,0,1-.61,1,2.24,2.24,0,0,0-1.13.93c-.58.94-1,2-1.61,2.89-.27.2-.49.48-.84.5a4,4,0,0,0-1.41.5c-.37.26-.79.48-1.14.77a16.39,16.39,0,0,0-.76,2.39c-.27,1-.63,2.05-.8,3.11a2.41,2.41,0,0,1-.51,1,5.21,5.21,0,0,1-1,1.09,3.74,3.74,0,0,0-.79.79c-.28,1.87-.61,3.73-.86,5.62-.14,1-.29,2-.39,3-.49,3.19-.53,6.52-1.85,9.52,0,.35-.74.88-.3,1.05l8.17,4.08c8.08.21,16.16,0,24.25,0q0,2,0,3.92c2.86,0,5.73,0,8.59,0,2.38,0,4.76,0,7.15,0,.1-6.69.17-13.38.11-20.07,0-2.14,0-4.27,0-6.41A1.51,1.51,0,0,0,329,352a2.35,2.35,0,0,1-.09-1.18c.53-3.68,1.67-7.23,2.32-10.89a.91.91,0,0,1,.62-.33,1,1,0,0,0,.44-.85c0-.23.08-.47-.18-.59a10.16,10.16,0,0,0-1.47-.44,11.19,11.19,0,0,1-.66-1.28,3.78,3.78,0,0,1-.22-1.33,21.33,21.33,0,0,1,.51-5.05,18.83,18.83,0,0,1,.93-2.34,11.86,11.86,0,0,0,.49-1.11c-.06-.26-.19-.54-.49-.55s-.74.17-1.11.26c-.79.25-1.57.6-2.38.77-.6-.15-1.13-.51-1.72-.66a10.15,10.15,0,0,1-1.76-.16.71.71,0,0,1-.4-.83c0-.32.12-.67-.08-1,.08-.82-.06-1.64,0-2.46,0-1,.18-2.08.24-3.11a6.48,6.48,0,0,1,0-1.47l-1.14-1.5a1,1,0,0,0,.27-.7,16.3,16.3,0,0,0-.08-1.81,11.61,11.61,0,0,1,.2-1.19,1.57,1.57,0,0,1,1-.8,5.25,5.25,0,0,1,1.35-.53,11,11,0,0,0,1.93-.7,29,29,0,0,0,2.5-2,1.23,1.23,0,0,0-.51-.64,8.77,8.77,0,0,1-1-1.21,17.06,17.06,0,0,1-1-1.42l-1.06-1.28c0-.32.37-.27.58-.33s.45-.32.67-.49c.5-.54,1.06-1,1.53-1.6a.56.56,0,0,0-.11-.72c-.81-.76-1.6-1.55-2.42-2.3a9,9,0,0,0-1.65-.58,4.23,4.23,0,0,1-1.27-.51c-1.17-.67-2.33-1.33-3.47-2a2.32,2.32,0,0,0-1.4-.32c-.69.17-1.4,0-2.09.07-.18-.09-.43-.23-.39-.48,0-1,.09-2,.07-3s0-2,0-2.92a1.19,1.19,0,0,0-.81-.81,17.05,17.05,0,0,0-3.22-1.17L310,287.68c-.7-1.57-1.41-3.13-2.12-4.69-.09-.36-.37-.77-.12-1.11a1.44,1.44,0,0,1,.69-.61c.61,0,1.16.35,1.76.39a1.86,1.86,0,0,0,.86-.5,17.38,17.38,0,0,0,1.62-3.3,3.61,3.61,0,0,0-.82-3.46,1.37,1.37,0,0,1-.57-1c0-.25.17-.46.24-.7.41-.48.89-.91,1.25-1.43a2.31,2.31,0,0,0-.13-1.27l-.49-1.26C311.25,268.55,311.83,269.95,311.38,270.33Z" transform="translate(-6.76 -5.01)"/><g class="cls-19"><g class="cls-20"><path class="cls-21" d="M395.2,271.39c-.07.34-.24.71,0,1,.38,1.14.57,2.33.92,3.48.41.13.38.59.51.92a2.12,2.12,0,0,0,.65,1.25.71.71,0,0,1-.12,1.13c-.25.3-.79.59-1.07.19a3,3,0,0,0-1.4-.9,3.35,3.35,0,0,0-1.83.6,6.09,6.09,0,0,0-1.67,2.57c-.9,2.36-.1,4.87.21,7.26-.36,0-.23-.51-.36-.75a14.93,14.93,0,0,0-1.8.2c.37.63,1,1.85.62,2.35-.32,0-.7.1-.69-.34s-.31-.51-.61-.3l-1,.35,1.43,3.08c-.32.21-.7.34-1,.55-.35-.52-1,.48-1.48.61s-1.26,1.13-1.66.64c-.22-.71-.84.23-1.27.32a32,32,0,0,0-5.41,3.62c-1.46,1.48-1.59,3.65-2.47,5.44.47,2.12.63,4.29,1,6.43.2.47-.36.17-.62.17s-.57-.44-.78-.18a8,8,0,0,0-.81.11c-.4,0-.6-.45-1-.4-1.51-.21-3-.27-4.54-.4-.22.3,0,.59.15.88.72,1.17,1.51,2.3,2.3,3.41a61.18,61.18,0,0,1,3.81,5.09c.88,1.29,1.71,2.62,2.61,3.89a9.11,9.11,0,0,1,.85,1.71c1.89,4.25,3.76,8.52,5.72,12.74l2.16,2,2.94-3.12c-.06-.43.4-.59.63-.88a11.76,11.76,0,0,1,2-1.87c.49-.61.71,0,1,.52,2.81,4.67,6.85,8.38,10.4,12.47l1.06.15c1-3.27,1.86-6.62,3-9.85a4.3,4.3,0,0,1,1.07-1.45,9.94,9.94,0,0,1,2.54-1.71c.53-.35,1.24-.16,1.73-.6,9.2-5.28,18-11.29,27.25-16.44a3.77,3.77,0,0,1,1.18-1.05c3.06-1.89,6.14-3.74,9.2-5.65.91-.6,1.81-1.24,2.73-1.82a7.08,7.08,0,0,0,1.85-1c1.63-1,3.27-2.08,5-3.05a49.44,49.44,0,0,0,8.2-6.5c1.32-1.31,2.38-2.85,3.57-4.28a19.12,19.12,0,0,0,3.84-7.52c0-.61.4-.59.86-.55a6,6,0,0,1,1.19.51.94.94,0,0,0,.78.41c.26,0,.75.3.83,0a8.33,8.33,0,0,0,.31-1.62,14.18,14.18,0,0,1,1.35-3,17.89,17.89,0,0,1,1.61-2.43c1.77-2.24,3.7-4.35,5.57-6.5,4-4.54,8.09-9,12.11-13.53a16.68,16.68,0,0,1-1.29-1.12c-.14-.28-.4.52-.58-.05-.37-.41-.81-.79-1.15-1.22a8.82,8.82,0,0,1-.5-2.55A3.7,3.7,0,0,0,495.2,253c-.45-.33-1-.54-1.41-.91-.26-.25-.55-.16-.82-.28s-.64-.55-1-.77c-.56-.41-1.27-.55-1.82-1a7.49,7.49,0,0,1-1.39-1l-1.9-1.29-.55-2.13a11.2,11.2,0,0,0-1.91,1.89,5.27,5.27,0,0,0-1.08,1.41,10,10,0,0,0-.44,1.91c.06.33.41.38.71.4a2.55,2.55,0,0,0,1.43,0c.3,0,.63-.25.91-.15.45.15-.19.41-.41.46s-.54.39-.83.42-.46.14-.7.28a1.81,1.81,0,0,0-1.14.2c-.29.89-.54,1.8-.86,2.67-.2.36-.55-.07-.79-.17-1-.58-2-1.11-2.93-1.69-.31-.1-.53-.38-.85-.48-.85-.46-1.67-1-2.55-1.42-2.34-.86-4.45-2.54-7-2.67l-3.58.43c-1.3-.6-2.78-.49-4.16-.73-.38-.27-.67.21-1,.27s-.79.2-1.17.17-.11-.81-.57-.8c-.29-.07-.37-.5-.69-.58s-.51-.33-.79-.38-.73,0-1-.24c-.8-.1-1.27-.87-2-1.13s-1.86-.37-2.51-1.11c-.26-.24.27-.59.37-.88l1.33-2-1.06-.7-2.49,3.78c.42.24.44.3,0,.13a4.49,4.49,0,0,1-1.39-.5c-.59.19-1.18.43-1.77.58-1.83-.25-3.64-.55-5.45-.87-1,.51-2,1.1-3.06,1.57l-4,1.36a23.9,23.9,0,0,0-.78,4.12,1.86,1.86,0,0,1-.57,1.27c-1.33,1.42-2.69,2.82-4,4.26l-1.63,3.62c-2,.38-4,.81-6.07,1.17-.47,0-.8-.36-1.16-.62-.62-1.27-1.2-2.57-1.86-3.82-.92-1.24-1.88-2.45-2.77-3.72a4.93,4.93,0,0,0-1.31-1.81c-.2-.4-.53-.12-.53.23a2.29,2.29,0,0,1-.31,1.19c-.26.66-1,.9-1.51,1.29-.84.16-1.65.52-2.5.68a14.08,14.08,0,0,1-4.21.66,1.73,1.73,0,0,1-1.44-.52c-.13-.23-.54-.4-.64-.06-.19.52.31,1.07,0,1.57A2.59,2.59,0,0,1,400,257.8a10.57,10.57,0,0,1-1.19.52,7.19,7.19,0,0,1-1.56-.82,4,4,0,0,1-1.31-1,.42.42,0,0,0-.72.23c.3.61,1,1.24,1,2.07.14.6-.05,1.31.39,1.8a1.6,1.6,0,0,1,.35,1.3c.07.84-.73,1.34-1,2.06-.08.36.19.76,0,1.11a4.15,4.15,0,0,1-.86,1.38c-.19.67-.71,1.2-.81,1.9A3.82,3.82,0,0,0,394,271c.08.35.2.61.58.38a4.54,4.54,0,0,1,.59,0" transform="translate(-6.76 -5.01)"/><path class="cls-10" d="M395.2,271.39c-.07.34-.24.71,0,1,.38,1.14.57,2.33.92,3.48.41.13.38.59.51.92a2.12,2.12,0,0,0,.65,1.25.71.71,0,0,1-.12,1.13c-.25.3-.79.59-1.07.19a3,3,0,0,0-1.4-.9,3.35,3.35,0,0,0-1.83.6,6.09,6.09,0,0,0-1.67,2.57c-.9,2.36-.1,4.87.21,7.26-.36,0-.23-.51-.36-.75a14.93,14.93,0,0,0-1.8.2c.37.63,1,1.85.62,2.35-.32,0-.7.1-.69-.34s-.31-.51-.61-.3l-1,.35,1.43,3.08c-.32.21-.7.34-1,.55-.35-.52-1,.48-1.48.61s-1.26,1.13-1.66.64c-.22-.71-.84.23-1.27.32a32,32,0,0,0-5.41,3.62c-1.46,1.48-1.59,3.65-2.47,5.44.47,2.12.63,4.29,1,6.43.2.47-.36.17-.62.17s-.57-.44-.78-.18a8,8,0,0,0-.81.11c-.4,0-.6-.45-1-.4-1.51-.21-3-.27-4.54-.4-.22.3,0,.59.15.88.72,1.17,1.51,2.3,2.3,3.41a61.18,61.18,0,0,1,3.81,5.09c.88,1.29,1.71,2.62,2.61,3.89a9.11,9.11,0,0,1,.85,1.71c1.89,4.25,3.76,8.52,5.72,12.74l2.16,2,2.94-3.12c-.06-.43.4-.59.63-.88a11.76,11.76,0,0,1,2-1.87c.49-.61.71,0,1,.52,2.81,4.67,6.85,8.38,10.4,12.47l1.06.15c1-3.27,1.86-6.62,3-9.85a4.3,4.3,0,0,1,1.07-1.45,9.94,9.94,0,0,1,2.54-1.71c.53-.35,1.24-.16,1.73-.6,9.2-5.28,18-11.29,27.25-16.44a3.77,3.77,0,0,1,1.18-1.05c3.06-1.89,6.14-3.74,9.2-5.65.91-.6,1.81-1.24,2.73-1.82a7.08,7.08,0,0,0,1.85-1c1.63-1,3.27-2.08,5-3.05a49.44,49.44,0,0,0,8.2-6.5c1.32-1.31,2.38-2.85,3.57-4.28a19.12,19.12,0,0,0,3.84-7.52c0-.61.4-.59.86-.55a6,6,0,0,1,1.19.51.94.94,0,0,0,.78.41c.26,0,.75.3.83,0a8.33,8.33,0,0,0,.31-1.62,14.18,14.18,0,0,1,1.35-3,17.89,17.89,0,0,1,1.61-2.43c1.77-2.24,3.7-4.35,5.57-6.5,4-4.54,8.09-9,12.11-13.53a16.68,16.68,0,0,1-1.29-1.12c-.14-.28-.4.52-.58-.05-.37-.41-.81-.79-1.15-1.22a8.82,8.82,0,0,1-.5-2.55A3.7,3.7,0,0,0,495.2,253c-.45-.33-1-.54-1.41-.91-.26-.25-.55-.16-.82-.28s-.64-.55-1-.77c-.56-.41-1.27-.55-1.82-1a7.49,7.49,0,0,1-1.39-1l-1.9-1.29-.55-2.13a11.2,11.2,0,0,0-1.91,1.89,5.27,5.27,0,0,0-1.08,1.41,10,10,0,0,0-.44,1.91c.06.33.41.38.71.4a2.55,2.55,0,0,0,1.43,0c.3,0,.63-.25.91-.15.45.15-.19.41-.41.46s-.54.39-.83.42-.46.14-.7.28a1.81,1.81,0,0,0-1.14.2c-.29.89-.54,1.8-.86,2.67-.2.36-.55-.07-.79-.17-1-.58-2-1.11-2.93-1.69-.31-.1-.53-.38-.85-.48-.85-.46-1.67-1-2.55-1.42-2.34-.86-4.45-2.54-7-2.67l-3.58.43c-1.3-.6-2.78-.49-4.16-.73-.38-.27-.67.21-1,.27s-.79.2-1.17.17-.11-.81-.57-.8c-.29-.07-.37-.5-.69-.58s-.51-.33-.79-.38-.73,0-1-.24c-.8-.1-1.27-.87-2-1.13s-1.86-.37-2.51-1.11c-.26-.24.27-.59.37-.88l1.33-2-1.06-.7-2.49,3.78c.42.24.44.3,0,.13a4.49,4.49,0,0,1-1.39-.5c-.59.19-1.18.43-1.77.58-1.83-.25-3.64-.55-5.45-.87-1,.51-2,1.1-3.06,1.57l-4,1.36a23.9,23.9,0,0,0-.78,4.12,1.86,1.86,0,0,1-.57,1.27c-1.33,1.42-2.69,2.82-4,4.26l-1.63,3.62c-2,.38-4,.81-6.07,1.17-.47,0-.8-.36-1.16-.62-.62-1.27-1.2-2.57-1.86-3.82-.92-1.24-1.88-2.45-2.77-3.72a4.93,4.93,0,0,0-1.31-1.81c-.2-.4-.53-.12-.53.23a2.29,2.29,0,0,1-.31,1.19c-.26.66-1,.9-1.51,1.29-.84.16-1.65.52-2.5.68a14.08,14.08,0,0,1-4.21.66,1.73,1.73,0,0,1-1.44-.52c-.13-.23-.54-.4-.64-.06-.19.52.31,1.07,0,1.57A2.59,2.59,0,0,1,400,257.8a10.57,10.57,0,0,1-1.19.52,7.19,7.19,0,0,1-1.56-.82,4,4,0,0,1-1.31-1,.42.42,0,0,0-.72.23c.3.61,1,1.24,1,2.07.14.6-.05,1.31.39,1.8a1.6,1.6,0,0,1,.35,1.3c.07.84-.73,1.34-1,2.06-.08.36.19.76,0,1.11a4.15,4.15,0,0,1-.86,1.38c-.19.67-.71,1.2-.81,1.9A3.82,3.82,0,0,0,394,271c.08.35.2.61.58.38A4.54,4.54,0,0,1,395.2,271.39Z" transform="translate(-6.76 -5.01)"/></g></g><g class="cls-19"><g class="cls-22"><path class="cls-21" d="M390,336.14c-.23.29-.68.45-.62.88l-2.94,3.12-2.16-2c-1.36,6.29-2.38,12.65-3.45,19,.41.32.44.88.66,1.32-.06.47-.12,1-.19,1.43-.88.05-1.75-.13-2.63-.15a9.41,9.41,0,0,0-2.54,1.54,40.16,40.16,0,0,0-6.42,6.2c3.27.05,6.53.12,9.79.22,0,6.51,0,13-.15,19.52,2.38,0,4.76-.05,7.14-.11.28,0,.77-.15.65.3q.07,1.79.13,3.59c2.33-1.33,4.63-2.7,7-4,2-1,3.9-2.07,5.85-3.09,2.32-1.37,4.6-2.82,7-4.13,1-.55,2-1.16,3-1.76.2.22.3.67.66.44a7.56,7.56,0,0,0,1.84-1.25c1.25-1,2.46-2,3.73-2.88l5.8-3.64c0-.29-.21-.67.17-.8a15.72,15.72,0,0,1,3.59-1.83c1-.39,1.93-.89,2.92-1.25a7.6,7.6,0,0,1,3.85-.16,7.87,7.87,0,0,1,5.18,3.71c1.89,3.28,2.67,7,3.5,10.68.44,1.93.77,3.9,1.38,5.79a3.13,3.13,0,0,1,.79-.43c.73-.37,1.08-1.19,1.65-1.75.41-.42.77-.91,1.21-1.29.56-.14,1.17-.21,1.71-.39.3-.23,0-.61,0-.92l-.39-1.75,1.21-1.18c-.24-.24.2-.53.27-.8a33.42,33.42,0,0,1,2.19-3.24,8.21,8.21,0,0,1,1.21-1.46,20.39,20.39,0,0,0,2.05.77c0,.38.43.35.69.49a8.88,8.88,0,0,1,2.2,1c.58.45,1.12.95,1.71,1.38.94.71,2,1.26,3,1.91.82-1.82,1.64-3.64,2.39-5.5.43-.25.55-.8.82-1.2.52-.89,1-1.82,1.53-2.68a1.65,1.65,0,0,0,.76-.72q3-4.67,6.07-9.32c.71-1.26,1.39-2.53,2-3.84a33.19,33.19,0,0,0,1.71-4.33,36.9,36.9,0,0,0,1.1-4,132.11,132.11,0,0,0,4.27-33,34.3,34.3,0,0,0-.12-4.08c-.14-1.14-.07-2.3-.11-3.45s-.06-2.22-.11-3.33c.24-.13,0-.58.09-.84-.07-3.51-.19-7-.19-10.53l0-1.51c-.19-.07-.18-.63,0-.7a15.38,15.38,0,0,1,.22-2.68c.58.1.2-1,.42-1.41a23.51,23.51,0,0,1,5.12-12c-.11-.31-.26-.67-.49-.21-1.33,1.53-2.71,3-4,4.57a24.82,24.82,0,0,0-2.4,3.36A11.34,11.34,0,0,0,480,284a5.48,5.48,0,0,0-.53,1.88c-.06.36-.18.71-.26,1.07a11.44,11.44,0,0,1-1.29-.26c-.34-.43-.9-.55-1.36-.81-.27.06-.72-.12-.87.09-.37,1.09-.67,2.21-1.08,3.28a19.08,19.08,0,0,1-1.63,3c-1,1.45-2.14,2.82-3.23,4.22a38.13,38.13,0,0,1-5.62,5.34,45.77,45.77,0,0,1-6.2,4.15c-1.45.9-2.87,1.84-4.32,2.72a5.87,5.87,0,0,0-1.72,1c-2.1,1.46-4.33,2.73-6.5,4.08-1.56,1-3.14,1.9-4.69,2.88a3,3,0,0,1-1.18,1c-9.24,5.15-17.95,11.18-27.14,16.39a3.69,3.69,0,0,0-1.53.46,10.58,10.58,0,0,0-2.56,1.81,7.19,7.19,0,0,0-.87,1.32c-1.1,3.22-2,6.52-3,9.76l-1.06-.15c-3.76-4.33-8.08-8.26-10.9-13.32a8.49,8.49,0,0,0-1.73,1.42l-.76.78" transform="translate(-6.76 -5.01)"/><path class="cls-10" d="M390,336.14c-.23.29-.68.45-.62.88l-2.94,3.12-2.16-2c-1.36,6.29-2.38,12.65-3.45,19,.41.32.44.88.66,1.32-.06.47-.12,1-.19,1.43-.88.05-1.75-.13-2.63-.15a9.41,9.41,0,0,0-2.54,1.54,40.16,40.16,0,0,0-6.42,6.2c3.27.05,6.53.12,9.79.22,0,6.51,0,13-.15,19.52,2.38,0,4.76-.05,7.14-.11.28,0,.77-.15.65.3q.07,1.79.13,3.59c2.33-1.33,4.63-2.7,7-4,2-1,3.9-2.07,5.85-3.09,2.32-1.37,4.6-2.82,7-4.13,1-.55,2-1.16,3-1.76.2.22.3.67.66.44a7.56,7.56,0,0,0,1.84-1.25c1.25-1,2.46-2,3.73-2.88l5.8-3.64c0-.29-.21-.67.17-.8a15.72,15.72,0,0,1,3.59-1.83c1-.39,1.93-.89,2.92-1.25a7.6,7.6,0,0,1,3.85-.16,7.87,7.87,0,0,1,5.18,3.71c1.89,3.28,2.67,7,3.5,10.68.44,1.93.77,3.9,1.38,5.79a3.13,3.13,0,0,1,.79-.43c.73-.37,1.08-1.19,1.65-1.75.41-.42.77-.91,1.21-1.29.56-.14,1.17-.21,1.71-.39.3-.23,0-.61,0-.92l-.39-1.75,1.21-1.18c-.24-.24.2-.53.27-.8a33.42,33.42,0,0,1,2.19-3.24,8.21,8.21,0,0,1,1.21-1.46,20.39,20.39,0,0,0,2.05.77c0,.38.43.35.69.49a8.88,8.88,0,0,1,2.2,1c.58.45,1.12.95,1.71,1.38.94.71,2,1.26,3,1.91.82-1.82,1.64-3.64,2.39-5.5.43-.25.55-.8.82-1.2.52-.89,1-1.82,1.53-2.68a1.65,1.65,0,0,0,.76-.72q3-4.67,6.07-9.32c.71-1.26,1.39-2.53,2-3.84a33.19,33.19,0,0,0,1.71-4.33,36.9,36.9,0,0,0,1.1-4,132.11,132.11,0,0,0,4.27-33,34.3,34.3,0,0,0-.12-4.08c-.14-1.14-.07-2.3-.11-3.45s-.06-2.22-.11-3.33c.24-.13,0-.58.09-.84-.07-3.51-.19-7-.19-10.53l0-1.51c-.19-.07-.18-.63,0-.7a15.38,15.38,0,0,1,.22-2.68c.58.1.2-1,.42-1.41a23.51,23.51,0,0,1,5.12-12c-.11-.31-.26-.67-.49-.21-1.33,1.53-2.71,3-4,4.57a24.82,24.82,0,0,0-2.4,3.36A11.34,11.34,0,0,0,480,284a5.48,5.48,0,0,0-.53,1.88c-.06.36-.18.71-.26,1.07a11.44,11.44,0,0,1-1.29-.26c-.34-.43-.9-.55-1.36-.81-.27.06-.72-.12-.87.09-.37,1.09-.67,2.21-1.08,3.28a19.08,19.08,0,0,1-1.63,3c-1,1.45-2.14,2.82-3.23,4.22a38.13,38.13,0,0,1-5.62,5.34,45.77,45.77,0,0,1-6.2,4.15c-1.45.9-2.87,1.84-4.32,2.72a5.87,5.87,0,0,0-1.72,1c-2.1,1.46-4.33,2.73-6.5,4.08-1.56,1-3.14,1.9-4.69,2.88a3,3,0,0,1-1.18,1c-9.24,5.15-17.95,11.18-27.14,16.39a3.69,3.69,0,0,0-1.53.46,10.58,10.58,0,0,0-2.56,1.81,7.19,7.19,0,0,0-.87,1.32c-1.1,3.22-2,6.52-3,9.76l-1.06-.15c-3.76-4.33-8.08-8.26-10.9-13.32a8.49,8.49,0,0,0-1.73,1.42Z" transform="translate(-6.76 -5.01)"/></g></g><g class="cls-7"><g class="cls-23"><path class="cls-9" d="M436,437.35c.79-2.11,0-4.36.28-6.53s1-4.28,1.26-6.45c-.06-3.72.28-7.5-.5-11.17-.07-.86-.7-1.56-.88-2.33v-2.24c1-2,2.6-3.76,3.3-5.93.32-1.16-.18-2.29-.4-3.41a2.44,2.44,0,0,1-.09-1.08c.43-.62.69-1.32,1.11-1.94-.21-.09,0-.49-.22-.7a5.31,5.31,0,0,1-.47-1.13,3.18,3.18,0,0,1-1.9-1.08c-.35-.3-.19-.81-.34-1.21a9.89,9.89,0,0,0-.8-2.22.35.35,0,0,1,.12-.65,1.76,1.76,0,0,1,1-.34c.59-.25,1.07-.76,1.74-.78a6.18,6.18,0,0,0,1.37-.3,2,2,0,0,0,1.11-.4,7.78,7.78,0,0,1,1-.61c-.94-3.08-1.38-6.28-2.22-9.39-.77-2.85-1.59-5.81-3.43-8.18a8.17,8.17,0,0,0-5.93-2.8,9.24,9.24,0,0,0-2.61.44c-1.62.75-3.28,1.4-4.89,2.16a7.69,7.69,0,0,0-1.58,1c0,.29.22.69-.18.78-2,1.24-3.94,2.45-5.88,3.71-1.54,1.2-3.09,2.42-4.63,3.61a2.29,2.29,0,0,1-.9.37c-.19-.2-.32-.71-.62-.36-2.31,1.45-4.74,2.7-7,4.15-1.36.83-2.72,1.67-4.14,2.39-1.59.84-3.17,1.71-4.78,2.52L387.28,391q-.07-1.94-.14-3.89c-2.18,0-4.36.11-6.54.1h-1.23c.14-6.5.15-13,.15-19.52-3.28-.1-6.56-.18-9.84-.21a4.52,4.52,0,0,1-1.63.24c-3.74,0-7.49-.15-11.23-.16l-4.51,0c.22,4.07-.24,8.15,0,12.22-.14,8.08,0,16.16-.14,24.24a3.72,3.72,0,0,0-2,.67,1.37,1.37,0,0,1-.9.37l-3.92-2-1.1.77,2.57,3h1.43c.05.27.29.61.25.83a6.12,6.12,0,0,0,.4.92,2,2,0,0,0,.71.93L337.21,422a3.66,3.66,0,0,0-1.19.91,44.84,44.84,0,0,1-3.27,3.25,11.3,11.3,0,0,1-1.06.9c-4.89-.07-9.77-.12-14.66-.22v7.67q3.85,0,7.7.11c-.16,7.76-.25,15.53-.22,23.29,2.49,0,5,.12,7.48.15l-.55,1a8.22,8.22,0,0,1,.59,1.24c.06,3.73,0,7.46,0,11.2l1.67,0q0-3.79,0-7.58l7.66-.05q0,3-.06,6l-5.63-.08-.1,1.79,5.82.07c0,.49,0,1,0,1.47-3.28,0-6.56,0-9.84,0l-3.18-.09c0,.62,0,1.25,0,1.87,1.71.11,3.43.28,5.14.36,1.56-.12,3.13-.19,4.68-.34l6.65-1.81q-.09-1.45-.18-2.9c-.26,0-.75.22-.84,0q0-2.34-.07-4.67c.19-.4.35-.84.84-1a6.5,6.5,0,0,1,4.59-.22c1.8,1.09,4.19,1.17,5.61,2.86v2.46c.24-.08.74.1.81-.14,0-1.29,0-2.59,0-3.87,0-.27-.36-.76.13-.6.35,0,.63,0,.5.43q0,2.07,0,4.14c.68.13.79-.26.63-.9,0-1.27-.21-2.76.73-3.77s2.44-.83,3.69-1c3.46-.81,7-1.86,10.62-1.22a9.81,9.81,0,0,1,2.54.82,23.32,23.32,0,0,1,.07,2.84v2.77c.24,0,.79.23.66-.21q0-2.4-.07-4.81h1a4.57,4.57,0,0,1,0,1.75,14.79,14.79,0,0,0-.15,3c-.12.3.67.41.48,0,0-.73,0-1.47,0-2.21a2,2,0,0,0,.56-1,1.31,1.31,0,0,0,0-1,1.89,1.89,0,0,1,1.16-.7c3.76-1.09,7.81-2,11.69-1,.29.14.53.31.56.65s.45.58.35,1q0,1.07,0,2.14c.2.3.49.26.7,0,0-1.19,0-2.39.06-3.57a1.58,1.58,0,0,0,.13-1.05c4.2-1.3,8.69-3.47,13.19-2.64a1.48,1.48,0,0,1,.82.66c.3.23.09.55,0,.84l-.59,2.42c.29.22.54.35.55-.13l.84-3c.24-.19.43-.54.78-.44h6.72c1.08,0-.29,5.77.78,5.63.15-1-.33-3.69,1.13-3.72.81.08,7.69,3.13,8.5,3.16.77-.16.63,2.7,1.39,2.51.27-.11-.06-3.91.23-3.66l1.6,0c.67-.12-.1,3.07.58,2.89,1-.16,6.18-.9,7.16-.87l2.2-1.93-1.48-2.4a16.6,16.6,0,0,0-1.12-3.68c-.1-3.05-.18-6.11-.3-9.16-.42-1.52-.87-3-1.27-4.55-.08-.4.46-.32.71-.4s.78,0,1-.28c.45-.66.05-1.45,0-2.17a8.58,8.58,0,0,1,.65-3.37l.19-.52" transform="translate(-6.76 -5.01)"/><path class="cls-10" d="M436,437.35c.79-2.11,0-4.36.28-6.53s1-4.28,1.26-6.45c-.06-3.72.28-7.5-.5-11.17-.07-.86-.7-1.56-.88-2.33v-2.24c1-2,2.6-3.76,3.3-5.93.32-1.16-.18-2.29-.4-3.41a2.44,2.44,0,0,1-.09-1.08c.43-.62.69-1.32,1.11-1.94-.21-.09,0-.49-.22-.7a5.31,5.31,0,0,1-.47-1.13,3.18,3.18,0,0,1-1.9-1.08c-.35-.3-.19-.81-.34-1.21a9.89,9.89,0,0,0-.8-2.22.35.35,0,0,1,.12-.65,1.76,1.76,0,0,1,1-.34c.59-.25,1.07-.76,1.74-.78a6.18,6.18,0,0,0,1.37-.3,2,2,0,0,0,1.11-.4,7.78,7.78,0,0,1,1-.61c-.94-3.08-1.38-6.28-2.22-9.39-.77-2.85-1.59-5.81-3.43-8.18a8.17,8.17,0,0,0-5.93-2.8,9.24,9.24,0,0,0-2.61.44c-1.62.75-3.28,1.4-4.89,2.16a7.69,7.69,0,0,0-1.58,1c0,.29.22.69-.18.78-2,1.24-3.94,2.45-5.88,3.71-1.54,1.2-3.09,2.42-4.63,3.61a2.29,2.29,0,0,1-.9.37c-.19-.2-.32-.71-.62-.36-2.31,1.45-4.74,2.7-7,4.15-1.36.83-2.72,1.67-4.14,2.39-1.59.84-3.17,1.71-4.78,2.52L387.28,391q-.07-1.94-.14-3.89c-2.18,0-4.36.11-6.54.1h-1.23c.14-6.5.15-13,.15-19.52-3.28-.1-6.56-.18-9.84-.21a4.52,4.52,0,0,1-1.63.24c-3.74,0-7.49-.15-11.23-.16l-4.51,0c.22,4.07-.24,8.15,0,12.22-.14,8.08,0,16.16-.14,24.24a3.72,3.72,0,0,0-2,.67,1.37,1.37,0,0,1-.9.37l-3.92-2-1.1.77,2.57,3h1.43c.05.27.29.61.25.83a6.12,6.12,0,0,0,.4.92,2,2,0,0,0,.71.93L337.21,422a3.66,3.66,0,0,0-1.19.91,44.84,44.84,0,0,1-3.27,3.25,11.3,11.3,0,0,1-1.06.9c-4.89-.07-9.77-.12-14.66-.22v7.67q3.85,0,7.7.11c-.16,7.76-.25,15.53-.22,23.29,2.49,0,5,.12,7.48.15l-.55,1a8.22,8.22,0,0,1,.59,1.24c.06,3.73,0,7.46,0,11.2l1.67,0q0-3.79,0-7.58l7.66-.05q0,3-.06,6l-5.63-.08-.1,1.79,5.82.07c0,.49,0,1,0,1.47-3.28,0-6.56,0-9.84,0l-3.18-.09c0,.62,0,1.25,0,1.87,1.71.11,3.43.28,5.14.36,1.56-.12,3.13-.19,4.68-.34l6.65-1.81q-.09-1.45-.18-2.9c-.26,0-.75.22-.84,0q0-2.34-.07-4.67c.19-.4.35-.84.84-1a6.5,6.5,0,0,1,4.59-.22c1.8,1.09,4.19,1.17,5.61,2.86v2.46c.24-.08.74.1.81-.14,0-1.29,0-2.59,0-3.87,0-.27-.36-.76.13-.6.35,0,.63,0,.5.43q0,2.07,0,4.14c.68.13.79-.26.63-.9,0-1.27-.21-2.76.73-3.77s2.44-.83,3.69-1c3.46-.81,7-1.86,10.62-1.22a9.81,9.81,0,0,1,2.54.82,23.32,23.32,0,0,1,.07,2.84v2.77c.24,0,.79.23.66-.21q0-2.4-.07-4.81h1a4.57,4.57,0,0,1,0,1.75,14.79,14.79,0,0,0-.15,3c-.12.3.67.41.48,0,0-.73,0-1.47,0-2.21a2,2,0,0,0,.56-1,1.31,1.31,0,0,0,0-1,1.89,1.89,0,0,1,1.16-.7c3.76-1.09,7.81-2,11.69-1,.29.14.53.31.56.65s.45.58.35,1q0,1.07,0,2.14c.2.3.49.26.7,0,0-1.19,0-2.39.06-3.57a1.58,1.58,0,0,0,.13-1.05c4.2-1.3,8.69-3.47,13.19-2.64a1.48,1.48,0,0,1,.82.66c.3.23.09.55,0,.84l-.59,2.42c.29.22.54.35.55-.13l.84-3c.24-.19.43-.54.78-.44h6.72c1.08,0-.29,5.77.78,5.63.15-1-.33-3.69,1.13-3.72.81.08,7.69,3.13,8.5,3.16.77-.16.63,2.7,1.39,2.51.27-.11-.06-3.91.23-3.66l1.6,0c.67-.12-.1,3.07.58,2.89,1-.16,6.18-.9,7.16-.87l2.2-1.93-1.48-2.4a16.6,16.6,0,0,0-1.12-3.68c-.1-3.05-.18-6.11-.3-9.16-.42-1.52-.87-3-1.27-4.55-.08-.4.46-.32.71-.4s.78,0,1-.28c.45-.66.05-1.45,0-2.17a8.58,8.58,0,0,1,.65-3.37Z" transform="translate(-6.76 -5.01)"/></g></g></g><text class="cls-24" transform="translate(75.69 181.99)">Sarri- </text><text class="cls-24" transform="translate(10.47 204.49)">Sant Gervasi </text><text class="cls-24" transform="translate(44.6 325.23)">Les Corts</text><text class="cls-24" transform="translate(393.75 276.77)">Nou <tspan x="-5.24" y="25.2">Barris</tspan></text><text class="cls-24" transform="translate(375.26 221.8)"><tspan xml:space="preserve">Horta -  </tspan></text><text class="cls-24" transform="translate(450 221.93)">Guinard</text><text class="cls-24" transform="translate(477.7 329.77)">Sant </text><text class="cls-24" transform="translate(529.27 329.9)">Andreu</text><text class="cls-24" transform="translate(297.89 194.95)">Grcia</text><text class="cls-25" transform="translate(74.9 459.31)">Sants - Montjuc</text><text class="cls-24" transform="translate(237.98 395.12)">Eixample</text><text class="cls-24" transform="translate(435.89 429.04)">Sant Mart</text><g class="cls-2"><path class="cls-26" d="M290.95,487.48c0,17.28,11.7,31.26,26.15,31.26" transform="translate(-6.76 -5.01)"/><polygon class="cls-27" points="305.21 517.27 316.5 513.55 306.25 508.72 308.37 513.55 305.21 517.27"/></g><text class="cls-28" transform="translate(314.86 507.68)">Tasa mxima: en Ciutat <tspan class="cls-29"><tspan x="0" y="27.6">V</tspan><tspan class="cls-30" x="14.08" y="27.6">ella es de 54 quejas </tspan></tspan></text><text x="-6.76" y="-5.01"></text><g class="cls-2"><g class="cls-31"><g class="cls-32"><path class="cls-21" d="M162.8,75.15" transform="translate(-6.76 -5.01)"/><path class="cls-21" d="M162.8,92.25" transform="translate(-6.76 -5.01)"/><g class="cls-19"><g class="cls-32"><rect class="cls-33" x="6.76" y="70.14" width="149.61" height="25.35"/><line class="cls-34" x1="6.43" y1="95.48" x2="6.43" y2="70.14"/></g></g></g></g><g class="cls-35"><g class="cls-36"><line class="cls-14" x1="305.66" y1="87.24" x2="305.66" y2="70.14"/><line class="cls-26" x1="305.66" y1="87.24" x2="305.66" y2="70.14"/><g class="cls-12"><g class="cls-36"><rect class="cls-14" x="156.04" y="70.8" width="149.61" height="25.35"/><polyline class="cls-34" points="305.66 70.14 305.66 95.48 156.04 95.48"/></g></g></g></g><g class="cls-37"><g class="cls-38"><line class="cls-9" x1="455.27" y1="87.24" x2="455.27" y2="70.14"/><line class="cls-26" x1="455.27" y1="87.24" x2="455.27" y2="70.14"/><g class="cls-7"><g class="cls-38"><rect class="cls-9" x="305.66" y="70.14" width="149.61" height="25.35"/><rect class="cls-34" x="305.66" y="70.14" width="149.61" height="25.35"/></g></g></g></g><line class="cls-17" x1="604.88" y1="87.24" x2="604.88" y2="70.14"/><line class="cls-26" x1="604.88" y1="87.24" x2="604.88" y2="70.14"/><rect class="cls-17" x="455.27" y="70.14" width="149.61" height="25.35"/><rect class="cls-34" x="455.27" y="70.14" width="149.61" height="25.35"/></g><g class="cls-39"><rect class="cls-40" x="511.1" y="556.32" width="122.14" height="18.55"/><path class="cls-41" d="M615.85,565.47h-4.68v.59l1.23.29V575a1,1,0,0,1-.86.44,1.84,1.84,0,0,1-1.52-1.12l-1.17-2.09a2.42,2.42,0,0,0-2.14-1.44v-.14a2.86,2.86,0,0,0,3-2.67c0-1.79-1.63-2.5-3.52-2.5h-4.25v.59l1.38.29v8.75h0l-1.6.31-4-10.85a5,5,0,0,1-1.43,1.22l.15.44-3.63,8.89-1.1.29V576H595v-.59l-1.08-.28,1.23-3.24h3.37l1.18,3.21-1.27.3V576h8.06v-.59l-1.36-.29V571a2,2,0,0,1,1.79,1.32l1.6,2.85a2.58,2.58,0,0,0,2.31,1.4,2.29,2.29,0,0,0,1.52-.62h3.61a5.42,5.42,0,0,0,5.56-5.26c0-3.07-2.37-5.26-5.65-5.26m-20.44,5.6,1.42-3.74,1.37,3.74Zm10.43-.79h-.72v-3.92h.9a1.77,1.77,0,0,1,1.84,1.88,2,2,0,0,1-2,2m9.9,4.85h-1.5v-8.78h1.54c2.39,0,3.86,1.65,3.86,4.39s-1.53,4.39-3.89,4.39" transform="translate(-6.76 -5.01)"/><path class="cls-41" d="M539,575.13l-3.89-10.57a5,5,0,0,1-1.43,1.22l.15.44-3.63,8.89-.78.29-.23.59h3.21v-.59l-1.08-.28,1.23-3.24H536l1.18,3.21-1.27.3V576h4.32v-.59Zm-6.18-4.06,1.42-3.74,1.37,3.74Z" transform="translate(-6.76 -5.01)"/><polygon class="cls-41" points="523 568.31 522.61 568.1 520.34 570.17 518.39 570.17 518.39 561.34 519.56 561.05 519.56 560.46 515.37 560.46 515.37 561.05 516.55 561.35 516.55 570.1 515.37 570.4 515.37 570.98 521.96 570.98 523 568.31"/><polygon class="cls-41" points="541.29 560.46 541.29 561.05 542.56 561.34 539.8 568.38 536.91 561.33 538.27 561.05 538.27 560.46 533.6 560.46 533.6 561.05 534.93 561.34 539.09 571.35 539.54 571.35 543.68 561.35 543.72 561.35 545.01 561.05 545.01 560.46 541.29 560.46"/><path class="cls-41" d="M589.55,565.47v.59l1.26.29s.1,5.21,0,6.54a2.66,2.66,0,0,1-2.83,2.57,2.62,2.62,0,0,1-2.83-2.7v-6.43l1.22-.27v-.59h-4.23v.59l1.2.28v6.47a3.88,3.88,0,0,0,4.18,3.68c2.31,0,4.1-1.35,4.18-3.68l.08-6.46,1.24-.29v-.59Z" transform="translate(-6.76 -5.01)"/><path class="cls-41" d="M635.27,575.1l-3.87-10.54a5,5,0,0,1-1.43,1.22l.15.44-3.64,8.93-.62.25-.84-.27v-8.79l1.29-.29v-.59h-4.41v.59l1.27.3v8.76l-1.22.29V576h6.74v-.59l-1.08-.28,1.23-3.24h3.37l1.18,3.21-1.27.3V576h4.32v-.59Zm-6.16-4,1.42-3.74,1.37,3.74Z" transform="translate(-6.76 -5.01)"/><path class="cls-41" d="M566.94,565.47v.59l1.29.3.08,6.88-6.6-7.77h-2.82v.59l1.28.28.11.06-.09,8.71h0l-1.3.31-4-10.85a5,5,0,0,1-1.44,1.22l.15.44L550,575.12l-1.1.29V576h3.3v-.59l-1.08-.28,1.23-3.24h3.37l1.18,3.21-1.27.3V576h6.92v-.59l-1.36-.3-.08-7.61,7.54,8.86h.5l.1-10,1.28-.29v-.59Zm-14.33,5.6,1.42-3.74,1.37,3.74Z" transform="translate(-6.76 -5.01)"/><path class="cls-41" d="M578,570.62v.59l1.19.3v3.39a4,4,0,0,1-2.38.79c-2.39,0-3.92-2-3.92-4.81s1.5-5,4-5a3.75,3.75,0,0,1,3.52,2.87l.34-.2V565.2l-.3-.17-.64.81a6.66,6.66,0,0,0-2.92-.74,5.89,5.89,0,0,0-5.9,5.8,5.35,5.35,0,0,0,5.46,5.61,5.43,5.43,0,0,0,3.39-1.13l.93.62h.3v-4.52l1-.38v-.48Z" transform="translate(-6.76 -5.01)"/></g><text class="cls-42" transform="translate(0 575.1)">Fuente:<tspan class="cls-43" x="57.65" y="0"> </tspan><tspan x="61.44" y="0">Ajuntament de Barcelona</tspan></text></g><text class="cls-44" transform="translate(32.97 89.99)">Menos de 25</text><text class="cls-44" transform="translate(186.97 90.99)">De 25 a 30</text><text class="cls-45" transform="translate(336.97 90.99)">De 30 a 35</text><text class="cls-45" transform="translate(486.97 89.99)">Ms de 35</text><line class="cls-46" x1="291.81" y1="177.98" x2="291.81" y2="293.14"/></svg>