<svg id="Capa_1" data-name="Capa 1" xmlns="http://www.w3.org/2000/svg" viewBox="0 0 1070.45 949.62"><defs><style>.cls-1{font-size:38px;}.cls-1,.cls-3{fill:#323232;}.cls-1,.cls-10,.cls-11,.cls-14,.cls-26,.cls-29,.cls-3{font-family:Arial;}.cls-2{letter-spacing:-4px;}.cls-3{font-size:31px;}.cls-4{letter-spacing:-1px;}.cls-19,.cls-20,.cls-5{fill:#ee3d3d;}.cls-12,.cls-16,.cls-19,.cls-22,.cls-24,.cls-5,.cls-7,.cls-8,.cls-9{stroke:#757575;}.cls-5,.cls-6,.cls-7,.cls-8,.cls-9{stroke-linecap:round;stroke-linejoin:round;}.cls-18,.cls-5{opacity:0.9;}.cls-12,.cls-6{fill:none;}.cls-6{stroke:#000;stroke-width:0.8px;}.cls-16,.cls-17,.cls-7{fill:#f27475;}.cls-15,.cls-7{opacity:0.7;}.cls-24,.cls-25,.cls-8{fill:#891926;}.cls-22,.cls-23,.cls-9{fill:#bf172b;}.cls-21,.cls-9{opacity:0.95;}.cls-10,.cls-11{font-size:20.67px;}.cls-10,.cls-26,.cls-28{fill:#fff;}.cls-12,.cls-16,.cls-17,.cls-19,.cls-20,.cls-22,.cls-23,.cls-24,.cls-25{stroke-miterlimit:10;}.cls-13,.cls-29{fill:#757575;}.cls-14{font-size:23px;}.cls-17,.cls-20,.cls-23,.cls-25{stroke:#fff;}.cls-26{font-size:21px;}.cls-27{fill:#002f64;}.cls-29{font-size:22px;}</style></defs><title>Tasa de incidencias</title><text class="cls-1" transform="translate(0.5 32.61)"><tspan class="cls-2">T</tspan><tspan x="19" y="0">asa de incidencias por cada 1.000 habitantes</tspan></text><text class="cls-3" transform="translate(5.5 69.21)">Incidencias presentadas en el<tspan class="cls-4" x="410.16" y="0"> </tspan><tspan x="417.06" y="0">Ajuntament de Barcelona desde 2014 al 2017</tspan></text><path id="path4284" class="cls-5" d="M312.15,313.38c0.15-1.2,1.55-1.59,2.3-2.4,1.58-1.54,2.35.21,3.44,1.43,1.74,2.27,5.26,1.23,6.08-1.3,0.41-2.29.43-4.56,1.29-6.7a9.58,9.58,0,0,0,1.64-2.47c0.58-.77.29-1.73,0.19-2.6,0.88-.83,2.47-0.93,2.63-2.35-0.36-.75-1.4-1.33-2-2-2.14-1.21,1.4-3.2.62-5.14-0.28-2.72,2.95-4,4.59-5.62,1-.43,1.89-1.12,1.45-2.3-0.42-2.3-1.13-4.6-1-7-0.13-1.4.61-2.66,0.94-4a3,3,0,0,1,2.18,1,14.1,14.1,0,0,0,5,6.33c1,0.3,1.24,1.7,2.35,1.58a22.33,22.33,0,0,0,5.52,2.79c2.09,1.84,3.39-.69,5-1.62a7.28,7.28,0,0,0,1.93-1.68c0.63,0.21,1.62,1.39,2.12.56-1-1.62-2.75-2.83-3.65-4.59-1.59-2.78-2.28-6.21-4.61-8.5a15.82,15.82,0,0,0-3.94-3.15c-0.76-.93-1.24-2.18-2.56-2.4-2.43-.62-3.34-3.31-4.58-5.21-1.46-1.47-1.26-2.58.45-3.45,1.15-.78,2-2.24,3.46-2.26a18.66,18.66,0,0,1,2.16-1.68c1-.8,2.32-1.2,3.26-2.12,2.87,0.8,5.85,1.26,8.64,2.3,2.09,0.9,4.15,1.87,6.23,2.81a32.21,32.21,0,0,1,.2-5.72c0.07-2.25-1.41-4.26-1.3-6.53a9.32,9.32,0,0,0-1-4.25c-0.79-3.54,2.2-6.38,2.39-9.81,0.72-2.61,1-5.42,2.63-7.68a48.39,48.39,0,0,1,3.12-5c1.19-1,2.26-2.25,3.85-2.64,1.93-.73,3.84-1.65,5.79-2.27a29.76,29.76,0,0,1,6.86.9c1.53,0.11-.72.84-1.16,1.27l-7.1,4.24c-0.29,1-.39,1.89.77,2.26a29.42,29.42,0,0,0,5.76,2.84c0.46,1.36-.7,2.41-1.17,3.59-0.59.88-.84,2.1-1.65,2.78-1.53,1-3.47,1.5-4.58,3-0.42,1.34-.81,3.09.53,4,1.06,1,2.4,1.88,2.77,3.41,0.39,1.37,0,2.85.24,4.26a6.83,6.83,0,0,0,2.13,4.42,41.25,41.25,0,0,1,3.31,4.42c0.37,1.78-1.43,3-2.82,3.77-1,1.05,0,2.6.62,3.57,0.68,0.8,1.73.92,2-.26,0.53-.93,1.44-2,2.62-1.51a3.38,3.38,0,0,1,4.83,1c0.43,1,0,2.58-1.32,2.65s-2,1.58-2.47,2.69c0.62,2,5.17,1.85,4,4.69-1,.55-2.67-0.11-3.3,1.13-0.34,1.61.53,3.2,0.74,4.8s0.9,3,.88,4.62a1.27,1.27,0,0,0,.39,2.1c1.15,1,2.43,2.09,2.87,3.63,0.51,0.68,1.09,1.48.58,2.33-0.17,1.17-.57,2.5.27,3.52a11.5,11.5,0,0,0,3.82-.23,29.69,29.69,0,0,0,2.9-.83c1.36,1.61.1,5.5,2.21,5.89,1.48,0.4,2.41-.89,3.64-0.23,0.43,0.83,1.57-.24,2.36.4,0.81,0.22,1.64,1.23,2.45.93,1.11-.52,2.13-1.77,3.47-1.33a19.31,19.31,0,0,0,2.58-.79,26,26,0,0,0,3.91-.2,59.19,59.19,0,0,0,6.4-2.18c1.4-.14,2.72-0.65,3.89.34,0.8,0.66,1.7.33,2.4,1.1a11.26,11.26,0,0,1,2.29,2.54c-0.19,1.3-.67,2.72.06,4,0.46,1,.13,2.26.87,3.19,0.39,1.46,1.16,2.88,1.27,4.38,0.12,1-.88,1.32-1.6,1.78-0.89.63-2.13,1-2.36,2.17-0.52,1-.82,2.11-1.39,3,1.67,0.78,2.39,3.11,3.14,4.88,0.38,1,1.3,2,1.12,3.06-0.68,1.65-.37,3.48-1,5.17-0.3.87-.72,1.62-0.21,2.5-0.13.91,0.77,1.3,0.92,2.15s-0.45,2.13.39,2.61a11.24,11.24,0,0,0,3.42.88c1.81,0.89,3.76,1.62,5.49,2.61a15.35,15.35,0,0,1,1.43,2.14,22.1,22.1,0,0,0,6.15,6.25c1.52,1.14,2.31,3,3.6,4.37,1.2,1.95,2.28,4,3.54,5.89,0.93,0.63,1.64,1.71,2.74,2,0.91-.44,2.29-0.09,2.32,1.08,0.22,0.82,0,2.09,1.12,2.2,2.27,0.93,1.56,4.37,2.91,6.18,1.58,1.42.82,3.4-.05,5a5.59,5.59,0,0,0-.58,5c0.22,1,.62,1.83.76,2.78a4.83,4.83,0,0,0,2,2.78c1.32,1.6,1.65,3.76,2.47,5.65,0.51,1.46.81,3.15,2.29,4a13.16,13.16,0,0,0,3,2.17c1,0.06.61,1.45,0,1.85-2.34,1.18-4.93,1.87-7.38,2.84-2.37.75-3.26,3.33-5,4.8-1.61.47-1.57,2.44-2.39,3.64-1.15,1.71-.5,3.87-1.34,5.68-0.29.94-1.19,2-2.24,1.38-1.34-.77-0.41.86-0.36,1.57,0.46,0.49.55,1.82,0.87,2.63,1.19,4.09,2.19,8.25,3.49,12.29,1.36,3.67,2,7.55,3.09,11.32l1.75,6.93c0.66,1,.67-0.79.75-1.49,0.44-1.51-.59-3.08,0-4.55,0.63-.69,1.9.06,2.45-0.88a4.1,4.1,0,0,0-.22-3.54c0-1,1.44-1.23,2.17-.74,0.77,0.34,1.94,0,2.16,1.1,0.59,0.76,2.17-.24,2.4.91-0.27.88-.8,1.84-0.19,2.72-0.12,1.94,2,.94,2.79,1.75-0.35,1.16-2,1.42-2.47,2.57a8.86,8.86,0,0,0-1.43,3.88,22.46,22.46,0,0,0,2,2.66,33.13,33.13,0,0,1,3.86,1.27,45.55,45.55,0,0,1,1.84,5.47c0.42,1.65,1.33,3.23,1,5-0.1,3.88-.58,7.72-0.92,11.58a20.86,20.86,0,0,0-3.07,2c-0.18,2.31-.55,4.66-0.61,7,0.43,1.11,1,2.18.75,3.4,0,4.9-.09,9.79-0.22,14.69,0.09,1.43-.25,3.09,1,4.15,2.83,4.1,6.2,7.8,9.13,11.82,1.25,1.57.27,3.63-.13,5.33a17.44,17.44,0,0,0-2,5c-1.52,5.58-3.28,11.27-2.88,17.12-1.26-.34-1.55.37-2.14,0.75-0.07.15,0,1.59,0.4,1.79,0.09,1.59.24,0.31,0.75,0,1.32-.26.75,1.18,0.78,1.95-0.21,1.76.32,4-1.29,5.18-2.09.8-2.61,3.2-3.72,4.91a3.58,3.58,0,0,1-2.79,2.52c-1.48.18-2.57,1.23-3.81,2-1.07,2.6-1.58,5.4-2.42,8.09a6.09,6.09,0,0,1-1.87,3.87c-0.9,1.12-2.74,1.72-2.56,3.45-1.48,8.34-2.1,16.8-3.65,25.12a25.23,25.23,0,0,1-2.25,6c-14-7-28-13.94-42-20.91a1.83,1.83,0,0,1-2.18,1.31c-0.85-.53-1.61-1.12-1.43-2.23s-1.32-1.13-2-1.68q-10-5.18-20-10.4c-2.44-4.53-5.5-8.69-8.25-13-3.52-5.18-6.87-10.5-10.51-15.6a6,6,0,0,0-3.59-2.69c-7.85-3.72-15.57-7.7-23.4-11.49-2.83-2.08-6.53-2.3-9.71-3.67,1.39-2.76,2.75-5.86,1.65-9-0.69-3.18-3.52-5.69-3.33-9.07,5.94,0.15,12.28-4.49,12.16-10.79-0.19-3.66-3.38-6.36-3.56-10-0.69-3.89-1.24-7.81-1.75-11.73a9.85,9.85,0,0,0-4.31-.13,16.43,16.43,0,0,1-6.85-.63c-1.15-.73-3-1.41-2.73-3.09a4,4,0,0,1,.63-2.87,8.12,8.12,0,0,0,1.23-3.49c0.89-.54.76-1.55,0.69-2.42,0.25-1.22,1.28-1.54,1.52-3,0.2-1.09,1.23-1.26,1.34-2.25-0.12-1-.6-2,0.12-2.8,0-1.3.68-2.7-.12-3.86a2.33,2.33,0,0,1,.44-2.18,6.47,6.47,0,0,0,.06-2.49,4.71,4.71,0,0,0-1-3,3,3,0,0,0-.62-2.3c0-.77.3-1.63-0.54-2.23-1.78-2.13-1.89-5.26-3.8-7.28-2-1,.1-1.29,1-2,1.65-1,2.93-2.68,4.94-3,2.72-.83,5.57-2.28,6.74-5a7.1,7.1,0,0,0,1.1-3c-0.69-1.48-.79-3.18-1.77-4.55a2,2,0,0,1-.33-2.48c0.9-1.81,2.74-2.91,3.82-4.62,0.84-.94.34-2.46,1.45-3.24,0.77-.85,1.69-1.67,1.72-2.91a20.9,20.9,0,0,1,1.7-5.15c-2.85-3.54-2.35-9-6.18-11.88-1.84-.93-3.52.89-5.37,0.87a9.32,9.32,0,0,1-3.09-.35c-1.25-.76-2.75-1.23-3.42-2.65-2.93-4.07-4.77-9.26-9.38-11.83-3-5-7.33-9.56-8.47-15.49,0.11-2.42.25-5.23-2-6.84a4.59,4.59,0,0,0-2.87-1.52c-2.19-.37-4.42.07-6.63,0-3.18.12-6.42,0-9.5,0.89-0.11,1.26-1.45.49-2.26,0.51-2-.34-4-0.94-6-1.38-1.09.78-2.39-.28-3.49,0.19-1.24,1.34-2.21,3-3.87,3.84-2.19,1.4-4.9.84-7.36,1.21-1.7.18-3.51,0.54-5.08-.39a2.53,2.53,0,0,1-3-1c-1.72-3.39-3.69-7.62-7.89-8.3-1.65.2-.3-1.74-0.64-2.71a20.24,20.24,0,0,0-.31-4,18.32,18.32,0,0,1-2.84-1.64l-0.89-3.46c1.32-5.51,2.48-11.17,2-16.87l1.68-2.74a2.82,2.82,0,0,1,2.55.94c1.69,0.94,3,2.41,4.63,3.45a4.65,4.65,0,0,0,3.46-.53c1.37-3,2.54-6.61,5.92-8,2.06-1.14,4.18-1.91,5.28.73,1.71,2.83,5.08,1.67,7.75,2.15s6.33,1.47,6.91,4.73c0.23,1.28-.44,2.89,1.17,1.55,1.24-1.86,5.41,1.25,5.08-1.12q-0.28-2-.55-3.93Zm-2.24-16.65a52.54,52.54,0,0,1-7.5.47l-14.35,3.33-6.79-2.68c1.11-.63,2.5-0.93,3.13-2.16a28.56,28.56,0,0,0,3.35-5.12c1.23-1.25,3.1-1.14,4.68-1.65a4.2,4.2,0,0,1,3.08-.06c2.38,0.56,4.75,1.29,7.14,1.75,2.39-.43,4.86-0.59,7.09-1.66,1.17-.72.32,1.31,0.49,1.94Q310.07,293.81,309.91,296.73ZM308,271.21c-3.66-1.83-7.24-3.87-11-5.56-1.1-.45-2.4-0.37-3.19-1.39-1.91-1.85-3.65-4-5.6-5.73L285,257.46l-2.8,6.91a83.09,83.09,0,0,1-8.8,5.78L270.27,272c-7.27-3.09-14.46-6.34-21.66-9.58,0.48,2.65,1.29,5.62-.25,8.09,0.36,1.45-.78,1.05-1.75.87l-10.26-1.5,5.6-25.45a24.42,24.42,0,0,0,8.54-1.14c2.5-.61,5.05-1,7.52-1.79,2.86-2.3,5.77-4.58,8.74-6.73,0.7-1.1.73-2.54,1.68-3.52,0.61-1.31,1-2.75,2.1-3.78a9.24,9.24,0,0,0,2.06-3.34c0.61-1.51,2.55-1.61,3.25-3a8.92,8.92,0,0,0,.5-6.75c-0.51-1.26-2-3-.76-4.31,0.8-.79-1.75-1-1.4-1.8a11.78,11.78,0,0,0,1.08-5.83,2.22,2.22,0,0,1-.64-2.27c-0.06-1.19.49-1.65,1.65-1.38,1.89-.05,3.94,0,5.43,1.36a76.74,76.74,0,0,0,11.6,4.74c2,0.31,4.16,1.17,6.16.68,1.69-.79,2.53-2.66,4.1-3.67,2.08-2,5.1-2.62,7.22-4.54,3.77-3.88,6.92-8.32,10.38-12.47s6.57-8.29,10-12.3l5.76-5.47c2.54,2.31,4.92,4.81,7.59,7,0,0.94-1.39.94-1.83,1.69-1.73,1.56-3.81,2.85-5.17,4.76-0.41,1.09-1.39,2-1.52,3.14,0.48,1.18,1.94,1.58,2.94,2.24l6,2.55c-2.07,3.06-4,6.25-6.17,9.23-1.43.42,0.37,1.21,0.75,1.84,1.65,1.82,3.82,3.1,5.19,5.18L353,215.08c-4.21,2.59-8.37,5.29-12.63,7.78a3.37,3.37,0,0,1-2.38,1.81c-1.84.66-3.45,1.86-5.44,2.07-3.39.31-4.08,3.83-5.72,6.14-0.69.92,0.71,2,1,2.94l3.89,7.13-6.22,15.37Z" transform="translate(-16.5 -15.39)"/><path id="path707" class="cls-5" d="M292.18,592.9l-2.74-3.11c-0.57.92-.24,2.1-0.28,3.13,0.34,2,1,3.9,1.12,5.87-0.13.84,0,1.84-.61,2.23-0.4.82-.22,1.66-0.57,2.44s-1,1.78-.57,2.77a41.45,41.45,0,0,1,.84,9.65,15.13,15.13,0,0,1,.27,3.14c0.26,1-.16,1.54-0.07,2.2,0.65,2.08.53,4.32,1.45,6.32a3.93,3.93,0,0,1,.45,2.38c0.56,0.44.18,1.59,0.35,2.33-0.57,1.26-.33,3.59-0.66,5.4a29.52,29.52,0,0,1-2.11,7.91c0.51,0.64-.83,1.41-0.93,2.19-0.95,2.52-2.53,4.73-3.8,7.09a19,19,0,0,1-3.93,8.44,24.92,24.92,0,0,0-3.55,8.24c-0.11,4.31-.06,8.63-0.11,13-4.76.54-9.6-.51-14.34,0.31-2.41.95-4.08,3.1-6.05,4.7-2.61,2.33-4.77,5.19-7.8,7a17.67,17.67,0,0,1-4.29,2.28c-1.19.15-2.23-.54-3.3-0.93-0.94,3.43-1.68,6.93-2.75,10.32a56.21,56.21,0,0,0-2.23,5.38,40.08,40.08,0,0,0-1.25,4.53c1.25,0.06.26,1.33,0.27,2.07l-1.38,6c-0.79.42-.44,1.68-0.73,2.46a80.09,80.09,0,0,0-.83,8.37c-2.17-.18-4.15-1.23-6.23-1.8l-2.48-.82,0.81-3-6.6-1.87c-0.13.93-.25,1.87-0.37,2.8l-3.55-.75a2,2,0,0,0-1.31-2.05,21.42,21.42,0,0,1-5.84-.23,34,34,0,0,0-5.79-.58c0.6-1-1.66-.64-1.41-1.45,0.61-.73-1.43-1.23-1.58-0.72l-2.49-1c0.35-.81-1.23-0.76-0.32-1.92,0-.66,1.06-2.11.14-2.17l-6.85-.76-1,3a28.32,28.32,0,0,1-6.51-1.75c-21-8.14-42-16.35-63-24.44-4.37-1.64-8.81-3.16-13.15-4.88-2-1.26-4.45-1.76-6.66-2.68-4.22-1.59-8.55-2.89-12.73-4.57a17.82,17.82,0,0,0-5.06-1.85l-3.18-.77c5.68,27.7,3.69,53.17-5.48,80,0.72,3.85,1.34,7.74,2.11,11.58,2.64,5.63,5.17,11.33,7.88,16.92,4.14,7.36,8.33,14.68,12.69,21.9a122.9,122.9,0,0,0,7.27,10.41c2.3,3,4.49,6,6.85,9,8.76,8,17.58,15.85,26.3,23.86l27.26,31.83c3.75-.61,7.54-1.07,11.27-1.75,7.81-4.36,15.57-8.82,23.42-13.11,1,0.16,1-2,1.69-1l13.49,13.74,71.9-35.43,2.21,3.17-11.2-17,1.31-5c-1.61-.9-3.46-1.47-4.67-2.93-1.71-1.57-3.34-3.3-5.11-4.76l-7.77-2.14-11.76,4.48c-0.43-.78-0.74-1.89-1.76-1.09l-56,19.95-4.42-10.89c4.6-1.54,8.92-3.76,13.39-5.64l2.61-1.15-4.11-12.63,9.64-3.48,12.7,11.82,42.07-34,2.05,2.3-2.92,2.3q0.66,1.62,1.76.25c0.66-.4,1.45-1.4,2-1.44,0.23,0.75,1.53,1.68.45,2.22l-2,1.82c0.83,0.77.89,1.43-.21,1.92l-4,3.12c0.57,0.69,1.63,1.41.36,2L252.41,809c2.08,0.77,4,2,6.27,2.14l36.24,5.45c0.79-.81.66-2.14,1.05-3.17l1.38-5.67c0.95,0.64,1.56.47,1.77-.69,0.54-1.21.74-2.6,1.33-3.76l4.25-3.7,2.8,0.68L300,834.42c0.75,0,2,.79,2.43.22l8.15-33.83,5,1c-0.27,2-1.13,4-.71,6.06l2.33,22.07-2.74,1c0.06,1.22,1.39,0,2.1,0,12.87-4.25,25.79-8.36,38.58-12.87l9.73-3.36-0.93-17.3,9-3.36,6.66,19.79,11.64-4.11L387,795.14l21.1-5.66,4.69,15.27c1.89-.28,3.64-1.22,5.46-1.77s3.41-1.18,5.12-1.78c0.54-.76-0.34-1.66-0.44-2.48-0.42-.58-0.25-2.37-1.22-1.81-1.1.83-1.13-.55-1.46-1.32l-4.1-11.69c0.69-.27,2.35-0.2,1.16-1.12-0.67-.71,1-1.15,1.38-1.74l18.56-15.19c0.29,1.13,1,1.23,2,.83,0.83-.22-0.22-1.6-0.2-2.31a2.61,2.61,0,0,1,0-2.29c-0.43-1.86-.89-3.71-1.3-5.57l6-1.43a55.71,55.71,0,0,0-2.58-5c-6.12-6.79-10.92-14.84-18.17-20.55-5.29-6.22-11.45-11.62-17.07-17.53q-17.63-17.67-35.3-35.29c-3.29-8.42-1.26-17.57-1.72-26.33,0.39-6.77-.29-13.58.48-20.34,6.26-5.74,12.62-11.36,18.86-17.12-2.34-.76-4.83-0.27-7.24-0.55a67.71,67.71,0,0,1-9.39-.77,52.84,52.84,0,0,1-11.5-2.91c-5.25-1.67-10.39-3.64-15.52-5.66-3.83-1.81-7.62-3.79-11.81-4.64-7.18-1.79-14.57-2.38-21.86-3.57C304.68,594,298.42,593.5,292.18,592.9Z" transform="translate(-16.5 -15.39)"/><path id="path709" class="cls-5" d="M297.59,446.77a5.66,5.66,0,0,0-1.93.21,7.65,7.65,0,0,1-4.14,1.59c-0.41.13-.88,0.15-1.26,0.31a24.11,24.11,0,0,0-2,2.45c-0.49.87,0.37,1.68,0.67,2.47a6,6,0,0,1,.49,3.78,17.64,17.64,0,0,0-.75,3.79,2.72,2.72,0,0,1-.47,1.43,20.48,20.48,0,0,0-2.56,2.5,11.49,11.49,0,0,0-1.37,1.92,3.77,3.77,0,0,0-1.51,1.23c-0.74.81-1.17,1.84-1.83,2.69-2.29,2.17-3.53,5.18-5.24,7.75a4.89,4.89,0,0,0,.18,2.27c0.12,0.77,1,1.25.87,2.08a7.87,7.87,0,0,0,.45,3.55c-1.68-.42-3.06-2-4.92-1.68,0.32,2.39-.36,4.8-0.14,7.17a1,1,0,0,1-.22,1.12,1.15,1.15,0,0,0,0,1.29c0.34,0.33-.21.79-0.15,1.15-0.33.21,0,.8-0.49,1a1.27,1.27,0,0,1-.13,1.13c-0.11.43,0.4,0.79,0.33,1.17-0.55.45,0,1.2-.25,1.79,0,0.7-.83.69-1.3,0.93a1.71,1.71,0,0,1-1.34.15,22.67,22.67,0,0,1-4.37.4,2.12,2.12,0,0,1-1.42-.61l-1.73-1.54c-2.2,1.81-4.45,3.54-6.6,5.4-1,.79-1.25,2.09-1.77,3.17a5.36,5.36,0,0,0-.7,2.33c-0.2,1.28.28,2.53,0.34,3.8,0.32,2.74.56,5.49,0.93,8.22,0.2,0.81.09,1.82,0.83,2.36,0.92,0.73,1.7,1.62,2.56,2.41,0.34,1.1-.84,2.1-0.37,3.2a3.89,3.89,0,0,0,.65,2.14,7.64,7.64,0,0,1,1.42,2.65,11.6,11.6,0,0,1,.91,4.21c-0.18.49-.69,1-0.4,1.51a1.68,1.68,0,0,1,.7,1,36.43,36.43,0,0,1-1.21,4.06,2.4,2.4,0,0,1-.78,1.39c-1.21,1.38-2.52,2.67-3.85,3.93,8.37,8.37,16.15,17.29,24.46,25.71,6.48,0.76,13,1.3,19.42,2.36-1,3-3.74,4.92-5.91,7.06a10.14,10.14,0,0,0-2.19,2.64l2.69,3.06c8.18,0.74,16.36,1.5,24.48,2.76a112.79,112.79,0,0,1,21.14,4.21c8.77,4.45,18.14,7.56,27.49,10.52a59.25,59.25,0,0,0,6.16,1.2,38.91,38.91,0,0,0,5,.58c3.23,0.13,6.46.39,9.7,0.33a15.32,15.32,0,0,1,2.05.43,155.35,155.35,0,0,1,16.73-12.67c4.84-3.43,9.81-6.77,15.32-9-0.06-.64-0.12-1.29-0.19-1.93-3-1.49-6-3.05-8.92-4.61-4.35-2.25-8.71-4.49-13-6.78a50.93,50.93,0,0,0-2.86-4.79c-4.9-7.56-9.93-15-14.92-22.53l-2.14-2.87c-8.69-4-17.2-8.45-25.83-12.63-1.56-1.29-3.62-1.7-5.5-2.32a40.31,40.31,0,0,1-4.21-1.35c1-2.34,2.49-4.73,2-7.39-0.27-2.85-2-5.22-3.11-7.75-0.34-.94-1.32-3.23.39-2.94,4.75-.29,9.56-3.36,10.89-8.09a8,8,0,0,0-.77-6.41c-0.91-1.83-2.14-3.6-2.33-5.69-0.58-3.43-1.15-6.87-1.58-10.32-0.09-.67-0.18-1.33-0.27-2a9.48,9.48,0,0,0-3.19-.26,16.2,16.2,0,0,1-4,.24c-1.3-.1-2.56-0.46-3.84-0.66-0.91-.63-2.08-1-2.67-2-0.38-.43-0.11-1.07-0.19-1.6a2.79,2.79,0,0,1,.27-1.74c0.42-.9,1-1.75,1.31-2.67a13.41,13.41,0,0,1,.34-1.59,1.62,1.62,0,0,0,.63-1.81,2.38,2.38,0,0,1,.37-1.55c0.79-.19.74-1.69,1.31-2.32,0.26-.37.34-1.13,0.93-1a2.23,2.23,0,0,0,.13-1.53c0-.57-0.38-1.15,0-1.66a7.41,7.41,0,0,0,.46-2.48,1.64,1.64,0,0,0-.12-1.31,2.5,2.5,0,0,1-.14-2.13,2.33,2.33,0,0,0,.41-1.1,1.06,1.06,0,0,0,.06-1.06,4.94,4.94,0,0,1-.06-1.55c-0.15-.37-0.16-0.78-0.31-1.12a1.89,1.89,0,0,0-.62-1.12,4.21,4.21,0,0,0-.44-2.12,1.58,1.58,0,0,1-.12-1.56c-0.44-.91-1.31-1.56-1.63-2.55-0.89-1.81-1.37-3.82-2.54-5.48-1-.5-1.74-2-2.48-2.23-0.63.56-1.05,1.34-1.7,1.85-1.29.61-2.67,1-4,1.61a8,8,0,0,1-1.46,1.33,4.69,4.69,0,0,1-2.24.08,3.52,3.52,0,0,1-2.42-.15,15.17,15.17,0,0,0-4-.81c-0.93.61-1.67,1.49-2.56,2.14-1.16.46-2.29,1-3.48,1.39a9.92,9.92,0,0,1-2.66,1.48,5.6,5.6,0,0,1-2.16.57,6.48,6.48,0,0,0-2.32.26,21.77,21.77,0,0,0-2.24.75,10.22,10.22,0,0,1-1.39,1.38Z" transform="translate(-16.5 -15.39)"/><g id="g687"><g id="g689"><path id="path695" class="cls-6" d="M492,689.54l6.91,7.22,8.9-.06,5,1.62,6,2,2.24-.12h6.78l-0.06,6.1v13l6.59,0.06,6.47,0.13c-0.27,13.16-.42,26.36-0.37,39.52,4.26,0,8.51.2,12.76,0.25l-1,1.74,1,1.93,0.06,4.73v14.44l-3-.62-0.12-4.17-5.54-1.06-5.85.94-14.94,5.1L513.11,786l-0.5-1.24-3.73,1.43-6.47,2.74-3,1-4.73,2-7.47,3.92-8.59,4.35-12.75,8.28-1.56,1.43,2.05,5.66-1.37.56L461,809.9l-8.09,3.86-3.24,2.55-9,4.23-7.28-.31-5-2.05-4.79-1.12-48.29,16.49-0.75.56L357.4,839.9l-1.81,1-1.43.93-1.18.31-2.31,1-2.3.93-1.74,1.37-36.22,25.7-7,5-6.1,4.48-11.7,8.34-7,4.92-1.25.87-0.87-1.43,12.14-8.71-4-5.72-0.37-.69,0.13-.56,0.49-.06,5.67-3.74,0.56,0.69-2.68,1.81,1.25,1.68-0.93.68,0.62,0.88,0.93-.69,2.3,3.11,2.74-2.18L305.74,872l0.13-2.18-0.13-.18,0.06-.56,6.66-4.73,5.1-3.23,1.12,1.93,19.85-14.93-0.75-2.37,4.42-3.36,2.18-1.12,0.13-.07,0.81-.18,0.93-.25,2.3,0.38,1.43-1.06,7.34-2.49,0.19-2.24-0.75-2.18,0.5-.93,1.18-.81,0.31-.18v0.06l0.37,1,45.24-15.62L424,810l11,6.28,9.77-2.12,6.29-4.54-0.87-1.18-0.44.37-0.18-.24,0.75-.56,0.12,0.12,0.12,0.19,0.13-.06,0.06,0.06,0.13-.19,0.81,1.06,7.72-5.85-2.24-3-5.6,4.17-0.44-.62-2.24,1.74-0.06.13,0.87,1.49-0.69.5-0.62-.93-1.31,1-0.87-1,8.84-6.66-1-1.31-8.77,6.72L444.9,805l1.68-1.25-1.43-2,8.34-6.23-1.06-1.43,2.12-1.62,6.35,8.4,1.93-1.43-2.3-2.92,1.06-.81-1.74-2.05,4.23-3.29,3.79,4.85,9-6.84,1.25-.5-0.56-1-4,1.74-0.13-.31,3.55-1.49-1.37-3.36-3.18-1-8.53,6.66L462.13,787v-0.43l-0.75-3.17,0.44-.13,0.69,2.87,1.56-1.12-0.94-2.68,0.56-.19,0.75,2.49,1.56-1.12-1-2.68,0.37-.19,1.06,2.49,1.43-1.18-1.25-2.49,0.37-.25,1.31,2.37,1.5-1.12-1.43-2.36,0.44-.31,1.43,2.37,1.55-1.31-1.55-1.74,0.37-.37,1.68,1.8,6.78,2.24,0.25-.5,0.93-.68-0.12-1.37,0.93,1,4.92-3.3-4.42-2.37,0.19-.31,4.61,2.43,1.43-.93,1.12-2.24-6.28-3.3,0.18-.43,6.41,3.3,1.49-2.8L484,765.78l0.19-.44,6.66,3.48,1.37-2.36-6.78-3.61,0.19-.5L492.5,766l0.93-1.62-7-3.8,0.12-.37,7,3.73,0.31-.5-0.19-.62,0.44-.75-6-3.3,0.19-.37,6,3.23-0.56-2.05-5-2.8,0.25-.5,4.54,2.55-0.43-2.05L490,755.14l0.19-.56,2.8,1.49-0.5-1.55-3.23-2.05-0.69-.32L478.25,771l-15,3.8-0.68-.5-1.37-5.91,1.43-2.24,13.57-3.48,3.3-6.1,0.68-1.12,1.25-2.3-0.19-.87-21.91,5.67-3.73.87-3.55.81-4.48,1,0.37,1.31-1,.31,5,20.41,1.06-.25,0.43,1.24-1.12,1.87-0.37.06-7,1.68-1.8-1.05-0.31-1.25,1.18-.31-4.36-18-0.93-3.49v-0.37l0.37-.37-1.31-5.54-0.06-.31,6-1.43-2.3-4.67L436.12,744l-1.25-1.56L428,734.23l-0.37-.43-1.18-1.12-3.3-2.86-1.93-2.18,0.13-1.43,0.19-1.3V719.6l0.06-2.74c0.29-6,.14-11.71.37-17.74,9.51-7.75,19.1-15.42,28.63-23.15l4.36,0.38,13.44,16.93C475.5,692.64,484.7,689.45,492,689.54Z" transform="translate(-16.5 -15.39)"/></g></g><path id="path697" class="cls-7" d="M369.34,630c-0.77,6.82-.07,13.87-0.5,20.66,0.48,8.68-1.53,17.72,1.74,26,9.84,10.13,20.17,19.8,29.87,30,7,6.91,14.11,13.71,20.79,20.91l0.12-1.43,0.19-1.3V719.6l0.06-2.74c0.29-6,.14-11.71.37-17.74,9.51-7.76,19.1-15.42,28.63-23.15l4.36,0.38,13.44,16.93c7.08-.64,16.28-3.83,23.58-3.74l6.91,7.22,8.9-.06,5,1.62,6,2,2.24-.12h6.78l-0.06,6.1,6.66,0.13,18.3,0.25,3.67-3.3,4.36-4.54,1.25-.75,19.17-19.23,1.8-1.8-0.81-.75L581,673.92l0.12-.06-0.43-1.18-0.06-.19H578.2l-4.36-5.16,1.87-1.31,6.72,3.42,0.75-.19,1.56-1.06,1-.31,1.62-.25c0.16-13.8,0-27.67.25-41.45-0.48-6.61.32-13.78-.06-20.41-13.19-.1-26.39-0.1-39.58-0.06l-0.06,6.72L547.77,619l-0.06,6.78H541l-6.47-.06H528.1l-7.09-.06,0.06-6.66c-13.56-.08-27.61.3-41.13-0.06q-28.08-14.07-56.2-28l-0.81,1.25-1.37.06-1.31-1c-7.57,3.09-13.34,7.87-20.1,12.26C389.08,611.39,379.52,621,369.34,630Z" transform="translate(-16.5 -15.39)"/><path id="path25" class="cls-8" d="M492,689.54l6.91,7.22c3,0,6-.09,9,0,3.63,1.16,7.24,2.37,10.85,3.57,3-.22,6-0.08,9-0.12-0.09,6.37-.05,12.74-0.06,19.11q6.53,0,13.07.18c-0.27,13.17-.42,26.35-0.37,39.52,4.26,0,8.5.2,12.76,0.25a9.25,9.25,0,0,0-.95,1.84c0.38,0.88,1.13,1.67,1,2.68,0.1,6.11,0,12.21.05,18.32l-3-.62q-0.06-2.09-.12-4.17c-1.88-.34-3.76-0.77-5.64-1-2,.37-4.13.56-6.15,1.06-8.4,2.87-16.81,5.73-25.17,8.7-0.29-.52-0.31-1.64-1.09-1-3.43,1.22-6.72,2.79-10.12,4.1a62.54,62.54,0,0,0-7.56,3c-5.25,2.8-10.57,5.49-15.87,8.19-4.27,2.8-8.59,5.52-12.82,8.36a6.72,6.72,0,0,0-1.34,1.38l4,6.41,2.86-.93,1.63,1.33-67.36,28.09L451.25,822l-1.56-5.65-9,4.23c-2.46-.13-4.94-0.16-7.38-0.35-1.83-.69-3.59-1.58-5.46-2.14-1.46-.3-2.92-0.76-4.37-1l-48.2,16.46c-1,.93-2.52,1.06-3.77,1.58-4.75,1.61-9.51,3.18-14.24,4.82-1.12.57-2.18,1.27-3.25,1.91A57.76,57.76,0,0,0,348.6,844c-1.2.75-2.25,1.75-3.45,2.51-14.19,10.1-28.43,20.12-42.57,30.26-7.05,5.21-14.21,10.27-21.4,15.3l-3.82,2.67c-0.13-.52-1.16-1.23-0.61-1.61l7.38-5.1q0.25-4.58.51-9.16c-0.39-.41-0.59-1.43.25-1.31l5.67-3.74c0.78,0.56.39,0.95-.32,1.28l-1.79,1.21,1.25,1.68c-0.64.38-1.21,0.77-.44,1.38,0.37,0.49,1.08-1.14,1.38-.08l2,2.68c2.28-1.89,4.7-3.6,7.1-5.34l-2.36-6.2L315.2,858l-1.37-2.8L333,842a6.82,6.82,0,0,1-.54-1.83l2-1.29c0.55,0.27,1,1.23,1.63.87,7.11-2.52,14.24-5,21.33-7.53,0.44-.17,1.16-1.05,1.44-0.77,0.1,0.92.62,1,1.35,0.55,21.29-7.34,42.57-14.74,63.9-22l11,6.28c3.28-.74,6.61-1.37,9.86-2.18l6.2-4.48c-0.42-.35-0.73-1.63-1.28-0.83-0.5-.31.68-1,0.87-0.52,0.4-.42.69,0.89,1.11,0.85l7.63-5.78-2.24-3-5.6,4.17c-0.3-1-.85-0.33-1.36.1s-1.25.71-1.32,1.24c0.11,0.51,1.13,1.22.56,1.59-0.63,1-.74-1-1.3-0.43-0.51.3-1.08,1.23-1.47,0.32-0.89-.54.11-0.89,0.57-1.28l7.82-5.89c-0.43-.29-0.73-1.54-1.25-1.11l-8.52,6.52c-0.85-.58.1-0.92,0.59-1.32,0.94-.33.42-0.89,0-1.44-0.28-.5-1.18-1.11-0.24-1.42l7.83-5.84c-0.21-.51-1.16-1.12-0.89-1.56l1.95-1.49,6.35,8.4,1.93-1.43-2.3-2.92c0.41-.41,1.51-0.75.64-1.3l-1.33-1.57,4.23-3.29,3.79,4.85c3-2.28,6-4.63,9.06-6.88,0.61-.25,1.54-0.38.78-1.11-0.28-.73-1.12.23-1.66,0.29l-2.52,1.1c-0.32-.63,1-0.59,1.35-0.93l2.07-.87-1.37-3.36-3.18-1-8.53,6.66a23.46,23.46,0,0,1-1.74-2.22,32.68,32.68,0,0,0-.75-3.5c0.77-.43.52,0.89,0.78,1.33s0.09,1.88.77,1.1c0.46-.42,1.47-0.67.91-1.41l-0.72-2.07c0.82-.57.7,0.64,1,1.14s0.26,1.58,1,.73c0.63-.37,1.21-0.76.66-1.48l-0.7-1.88c0.67-.48.65,0.88,1,1.28,0.22,0.74.48,1.32,1.09,0.48,0.72-.37.89-0.86,0.34-1.5a6.1,6.1,0,0,1-.73-1.69c0.56-.45.69,0.89,1.06,1.21,0.29,0.71.61,1.25,1.22,0.46,0.75-.35.93-0.82,0.32-1.43-0.18-.54-1-1.22-0.76-1.67,0.54-.44.71,0.87,1.09,1.18,0.33,0.69.67,1.3,1.25,0.45,0.51-.41,1.28-0.8.41-1.31-0.23-.49-1.43-1-0.76-1.49a7,7,0,0,1,1.38,1.33c0.56,0.73,1.61.7,2.4,1.07l4.76,1.57c0.08-.71,1.11-0.79,1.16-1.39-0.12-.8-0.2-1.51.48-0.54,0.42,0.78,1.06-.26,1.59-0.46l3.68-2.47-4.42-2.37c0.3-.67,1.08.35,1.6,0.43l3.19,1.68c0.64-.49,1.54-0.74,1.77-1.6,0.12-.53.95-1.29,0.6-1.67l-6.1-3.2c0.15-.89,1,0.15,1.51.25l5.08,2.62,1.49-2.8L484,765.78c0.15-.89,1,0.16,1.51.26l5.34,2.79,1.37-2.36-6.78-3.61c0.11-1,1,.07,1.51.2L492.5,766a6.12,6.12,0,0,0,.84-1.66l-6.88-3.75c0.15-.79,1,0.29,1.54.38l5.62,3c0.61-.49-0.18-1.17.45-1.67,0.15-.51-1-0.65-1.38-1l-4.54-2.48c0.24-.78,1.07.29,1.59,0.39l4.57,2.47a12.21,12.21,0,0,0-.65-2.1l-4.95-2.75c0.17-1,.94,0,1.46.18l3.33,1.87a11.44,11.44,0,0,0-.53-2.1l-3-1.57c0-1,.89-0.08,1.41.09s1.49,1,1.51.64c-0.26-.61-0.23-1.46-1-1.7a33.6,33.6,0,0,0-3.38-2L478.25,771l-15,3.8a1.81,1.81,0,0,1-.95-1.64l-1.11-4.77a20.45,20.45,0,0,1,1.54-2.27l13.46-3.46c1.52-2.83,3-5.65,4.64-8.44,0.31-.58.78-1.14,0.43-1.81-0.37-.26-1.23.27-1.78,0.31-7.31,1.86-14.59,3.83-21.92,5.62q-5,1.17-10,2.26c0.09,0.59.77,1.5-.24,1.5-0.78.12,0,1.13,0,1.67L452,782.65c0.69-.26,1.3-0.37,1.33.55,0.39,0.64-.4,1.15-0.61,1.72-0.19.75-1,.66-1.55,0.85l-6.2,1.48a11.74,11.74,0,0,1-1.83-1.16c-0.17-.63-0.56-1.39.44-1.33s0.09-1,.11-1.57c-1.66-6.69-3.15-13.43-4.94-20.09,0.15-.62.52-1.06,0.13-1.78-0.37-1.61-.77-3.21-1.12-4.81l6-1.43c-0.86-1.62-1.55-3.36-2.51-4.91-4.54-5.48-9-11-13.63-16.44-1.88-1.9-4.15-3.39-5.82-5.5-0.66-.41-0.5-1.1-0.42-1.75,0.4-2.48.12-5,.22-7.5,0.24-6,.25-12.1.37-18.15-0.52-2.1,1.72-2.82,3-4,8.56-7,17.17-13.84,25.73-20.79l4.36,0.38,13.44,16.93C476.35,692.49,484,689.55,492,689.54Z" transform="translate(-16.5 -15.39)"/><path id="path4299" class="cls-9" d="M472.9,447.27c0.07,0.44-.27,1.84-0.55.84C472,448,472,447,471.81,446.53c-1.31-5-2.5-10.13-3.91-15.17a36.93,36.93,0,0,1-1.2-3.59l-3.57-12.87c-0.36-.15-0.32-1.17-0.53-1.65,0.33-.16,1.15.43,1.69,0.3,1-.33,1.3-1.47,1.6-2.37a23.38,23.38,0,0,0,.39-3.2,47.76,47.76,0,0,1,2.08-4.66c0.45-.55,1.31-0.59,1.69-1.26,1.21-1.45,2.17-3.23,4-4,2.51-1,5.06-1.79,7.54-2.81a1.7,1.7,0,0,0,.81-1.87,32.67,32.67,0,0,0,4.08-.34c1,0.06,1.74-.72,2.65-1a3.6,3.6,0,0,1,2.67-.51c0.68-.65,1.77-0.44,2.42-1.17,0.57-.4,1.55-0.22,1.88-0.95,1.14-.3,2.1-1.08,3.24-1.43a13.67,13.67,0,0,0,2.57.57,10.65,10.65,0,0,0,2.45-.76l16.57-.87c-0.16-.7-0.07-1.22.75-1.24,2.12-.48,4.3-0.66,6.41-1.18,1.79-.14,3.62-0.14,5.38-0.37,0.88-.45,1.3-1.41,2.18-1.87a36.46,36.46,0,0,1,4.1-1.84c1-.29,1.62-1.23,2.69-1.22,0.65-.13,1.17-0.63,1.85-0.71,0.84,0.08.95-.47,1-1.21a13.9,13.9,0,0,1,1.82-3.56c0.83-1,2.27-1,3.3-1.73a50.7,50.7,0,0,0,4.87-2.87,13.14,13.14,0,0,0,3.79-4.1,14.56,14.56,0,0,1,3.58-3.48c1.93,0.13,4.28-.45,5-2.48,0.39-1.14.47-2.69,1.75-3.25a5.15,5.15,0,0,1,2.3-1,2.66,2.66,0,0,0,1.84-.95c0.64-1.09,1.82-1,2.94-1.14,1.45,0.06,2.8-1.59,4.13-1.08a6,6,0,0,0,2.1,1.24,7.72,7.72,0,0,1,2.46,1.39,5.33,5.33,0,0,0,3,.16c1-.19,2.11,0,2.78-0.82a14.55,14.55,0,0,0,2-2.07c1.61,0.53,3.36,1.24,5,.31a4.53,4.53,0,0,0,1.82-.63c0.8-.3,1.61-0.4,2.41-0.69a18.07,18.07,0,0,1,2.4-.7c1,0,1.22-1.25,2.15-1.35A27.77,27.77,0,0,1,609.5,353a2.1,2.1,0,0,0,1.7.66,6.09,6.09,0,0,0,2,0,17.83,17.83,0,0,0,1.25,2.11c0.64,0,1.29,0,1.93-.06a62.78,62.78,0,0,0,7.72,10.1c1,1.12.62,2.64,0.5,4-0.07.72,0.57,1,1.07,1.35,1.08,0.82,2.52.9,3.74,1.38a10.46,10.46,0,0,0,3.45,1.91c0.67,1.12.73,3,2.05,3.87,1.71,0.6,1.59,2.67,3.48,2.69a7.76,7.76,0,0,1,3.87,3.83c0.07,1.2-.32,2.5.27,3.61a3.24,3.24,0,0,0,.79,1.87c0.56,0.36.57,1.21,0.9,1.79,0.18,0.9,1.29.52,1.95,0.6,1.41,0,3,.21,3.92,1.44a34.84,34.84,0,0,0,4.27,4c0.75,0.44.79,1.39,1.42,2a5.42,5.42,0,0,0,3.56,1.13c1.08,0,2-.66,3.06-0.94,1-.46,2.27-0.61,3.08-1.49,2-1.19,4.68-.48,6.44.88a5.8,5.8,0,0,0,2.65.88,10.15,10.15,0,0,1,3.09,1c0.9,0.77,2,1.54,2.2,2.78,0.3,0.84.51,1.78,0.83,2.58,1.23,1.09,3,1,4.5,1.35l3.89,0.7c0.2,0.63-.27,3.33-1.71,3.82-0.72.19-1,1.06-1.79,1a75,75,0,0,1-8.11,2,12.82,12.82,0,0,1-4.17,0,3.81,3.81,0,0,1-1.52-1.14c-0.72-.32-0.93.69-0.71,1.2a2.37,2.37,0,0,1-.08,1.94c-0.86,1.4-2.6,1.72-4,2.46-0.89.64-1.74-.36-2.53-0.72a10,10,0,0,1-3.05-2.2,0.72,0.72,0,0,0-1.11.76,6.35,6.35,0,0,1,1.82,4.49,2.6,2.6,0,0,0,.56,1.85,3.24,3.24,0,0,1,.54,2.65c-0.16,1.26-1.48,2-1.73,3.24a2.81,2.81,0,0,1-.23,2.25c-0.32.89-1.23,1.44-1.44,2.38a9.45,9.45,0,0,0-1.25,3c-0.57,1.38-1.07,4.11.34,4.8,0.38-.07,1.59-0.35,1.29.3a1.85,1.85,0,0,0,.21,1.7c0.51,1.86.89,3.75,1.43,5.6,0.82,0.31.68,1.33,1,2a3.82,3.82,0,0,0,1.32,2,1.94,1.94,0,0,1-1.38,2.11c-0.83.42-1.26-.7-1.88-1a2.69,2.69,0,0,0-2.55-.62,5.51,5.51,0,0,0-3.32,2.33,12.76,12.76,0,0,0-2.08,9.52c0.24,1.93.62,3.83,0.9,5.76-0.74.16-.22-1.33-0.83-1.28-0.95.09-1.9,0.2-2.84,0.35,0.6,1,1.71,3.24,1,4a0.86,0.86,0,0,1-1.21-.89c-0.22-.78-1,0-1.56,0s-1.52.28-.85,1l2.12,4.57c-0.55.36-1.19,0.57-1.74,0.93-1.26-.69-3,1.88-4.5,2.23-1,1-.87-1.62-1.82-0.26-3.58,2.27-7.55,4.1-10.58,7.12-2.27,2.5-2.49,6-3.94,9,0.82,3.75,1.1,7.6,1.68,11.39a5.51,5.51,0,0,1-2.24-.69,3.64,3.64,0,0,1-1.53.37c-0.72,0-1.08-.81-1.82-0.7-2.52-.34-5.07-0.44-7.6-0.67-0.41.63,0.2,1.27,0.47,1.84a79,79,0,0,0,6.34,8.73c2.17,2.83,4.09,5.84,6.2,8.71a34,34,0,0,1,4.26,7.92c3,6.54,5.8,13.13,8.83,19.63,0.07,1.35-.56,2.78-0.73,4.16-1.9,9.39-3.42,18.84-5,28.29,0.69,0.54.76,1.48,1.12,2.24-0.1.81-.21,1.62-0.31,2.43-1.82.25-3.75-.71-5.46,0.11a63.83,63.83,0,0,0-11.73,9.91c-1,.89-1.67,2.27-2.77,2.94a8.83,8.83,0,0,1-3.31.36c-6.08,0-12.15-.33-18.23-0.25q-23.65-.22-47.3-0.12c-0.08-8.34-.16-16.7,0-25,0.52-1.09-.37-2.18-0.09-3.28a85.16,85.16,0,0,1,1.81-8.76,27.36,27.36,0,0,0,.89-4.39l1.26-5.46c0.38-.57,1.14-0.4,1.5-1a2.44,2.44,0,0,0,.29-1.75,8,8,0,0,0-2.78-1,9.66,9.66,0,0,1-1.4-3.23,31.25,31.25,0,0,1,0-4.61,25,25,0,0,1,1.41-6.84c0.5-1.42,1.23-2.74,1.83-4.12a1.16,1.16,0,0,0-1.69-.92c-1.7.54-3.35,1.26-5.09,1.67-1.33-.33-2.47-1.31-3.9-1.17-0.9-.11-2.29.16-2.66-0.92-0.15-.8.2-1.69-0.16-2.43,0.1-1.63-.08-3.26.12-4.89,0-1.88.53-3.75,0.25-5.62,0-.68.24-1.42-0.38-1.91l-1.49-2c0.84-1.05.34-2.49,0.35-3.73a7.21,7.21,0,0,1,.37-2.68c0.52-1.06,1.83-1.24,2.76-1.81,1.85-.53,3.84-1,5.35-2.23,1.12-.83,2.18-1.77,3.23-2.69-0.27-.92-1.33-1.24-1.72-2.11-0.9-1.24-1.85-2.45-2.71-3.7a19.48,19.48,0,0,1-1.6-2c0.18-.71,1.33-0.16,1.66-0.81,1.05-1.14,2.24-2.16,3.19-3.38,0.22-1-.86-1.44-1.4-2.09-1.09-1-2.06-2.11-3.23-3-1.37-.65-3-0.8-4.32-1.49-2.16-1.22-4.3-2.47-6.43-3.73a3.58,3.58,0,0,0-2.74-.4c-1,.1-2.07-0.11-3.1,0a1.36,1.36,0,0,1-.6-1.62c0.16-3.07.12-6.14,0.16-9.21-0.29-1.36-1.82-1.54-2.88-2a12.64,12.64,0,0,0-2.77-1c-0.59-.12-1.21-0.54-1.74,0l-3.68,1.89c-1.19-2.72-2.47-5.41-3.65-8.13-0.28-.67-0.55-1.52.13-2a1.37,1.37,0,0,1,1.73-.58c1,0.22,2.17,1,3.07.14,0.88-.48,1-1.6,1.55-2.39,0.83-1.73,2-3.38,2-5.39,0.22-1.76-1-3.14-2.07-4.35a2.18,2.18,0,0,1-.16-2.69c0.7-.82,1.51-1.55,2.12-2.43a4.52,4.52,0,0,0-.48-2.81c-0.35-.53-0.29-1.9-1.22-1.42-0.54,1.34-.26,3.35-2.39,3.36a11.17,11.17,0,0,1-3.59.05,10.49,10.49,0,0,0-4.4,2.18c-0.62.9-.1,2.1-0.32,3.11a9.92,9.92,0,0,1-1.68,4.79,5,5,0,0,1,0-1.77,2.52,2.52,0,0,0-.28-2.07,4.55,4.55,0,0,0-2.59-1.76,8.94,8.94,0,0,1-1.27-1.67c-1.12-.79-2.87.16-3.82-1.23-1-1.11-2.44-1.57-3.5-2.58-0.71-.41-1.27.5-1.4,1.09-0.52,2.16-.94,4.38-1.47,6.51a1.32,1.32,0,0,1-1.9.32,20.1,20.1,0,0,0-3.7-1,1.45,1.45,0,0,1-.15-2.09,2.58,2.58,0,0,0,.25-2.62,1.23,1.23,0,0,0-1.15-1.25c-1.19.68-3.56,1.91-4-.48-0.32-.8.44-1.5,0.42-2.27-0.52-1-2.07.13-2.5-1-0.22-.78-1.08-0.66-1.7-0.75a2.27,2.27,0,0,0-2-.2,1,1,0,0,0-.21,1.58,3.77,3.77,0,0,1,0,2.6c-0.43.82-1.43,0.71-2.2,0.76-0.85.44-.5,1.62-0.42,2.4A7.89,7.89,0,0,1,472.9,447.27Z" transform="translate(-16.5 -15.39)"/><path id="path4301" class="cls-5" d="M518.14,440.8a5.59,5.59,0,0,1-3.84.74c-0.54.3-.83,0.42-1.07-0.11a13.77,13.77,0,0,0-3.67,1.47,2.12,2.12,0,0,0-1.36,1.56,12.06,12.06,0,0,1-.88,5.67c-0.27.35-.43,1.72-0.94,1.36,0.06-1,.22-2,0.22-3a4.88,4.88,0,0,0-1.27-1.66,10.34,10.34,0,0,0-1.73-.82,5.69,5.69,0,0,1-1.14-1.57,1.55,1.55,0,0,0-1.18-.44c-0.55-.07-1.17.25-1.62-0.17-1.07-.57-1.91-1.46-3-2a9.37,9.37,0,0,1-1.64-1.2,0.63,0.63,0,0,0-.92.23,2.68,2.68,0,0,0-.7,2c-0.23,1.33-.58,2.62-0.93,3.92a13.06,13.06,0,0,1-.28,1.48,1.15,1.15,0,0,1-1.5.5,12.65,12.65,0,0,0-2.87-.84,4.93,4.93,0,0,1-1.34-.36,1,1,0,0,1-.36-1.27c0.21-.8.87-1.46,0.81-2.32a6.85,6.85,0,0,0-.5-1.73c0-.47-0.56-0.4-0.9-0.55s-0.71.3-1.06,0.44a5.2,5.2,0,0,1-1.52.6,2.53,2.53,0,0,1-1.2-.93c-0.21.2,0.54,1.86,1.54,1.43,0.8-.34,1.7.5,0.79,1-0.58.52-1.27,0.93-1.8,1.48-0.39.73-.87,1.43-1.21,2.19l-0.47,2.12,1.8,2.62,3.92,1.18a8.24,8.24,0,0,1,1,2.48c0.67,2.21,1.39,4.4,2,6.6-0.17,2.91-.24,5.83-0.57,8.73l-0.42,4.34-3,1.74q-0.37,3.52-.74,7c0.28,0.77.63,1.53,0.87,2.3-0.13,2.44-.07,4.89-0.13,7.34s0,4.66-.15,7c0,1.28,0,2.57.08,3.86a1.37,1.37,0,0,0,.43,1.17c1.72,2.44,3.49,4.85,5.38,7.16,1.46,1.93,3.28,3.61,4.46,5.74,1,1.89.1,4-.74,5.79a12.51,12.51,0,0,0-1.29,3c-0.77,3.1-1.64,6.18-2.39,9.28a16.32,16.32,0,0,0-.59,3.51c-0.08,1.82-.14,3.65-0.2,5.46h-1.62c0,0.39.06,0.93-.5,0.75-0.49.12,0.07,0.42,0.13,0.69s-0.21.92,0.06,1.08c0.49,0,.12.62,0.19,0.92,0.56,0.17.35-.47,0.43-0.81s0.74,0,1.07,0a2,2,0,0,1,.07,1.13c-0.11,1.41-.11,2.83-0.22,4.22a4,4,0,0,1-1,1.65A3.79,3.79,0,0,0,487,557.4c-1,1.6-1.78,3.31-2.74,4.91a2.88,2.88,0,0,1-1.43.85,6.81,6.81,0,0,0-2.4.86c-0.63.44-1.35,0.82-1.93,1.3a27.9,27.9,0,0,0-1.29,4.06c-0.46,1.76-1.07,3.48-1.37,5.27a4.07,4.07,0,0,1-.87,1.65,8.81,8.81,0,0,1-1.77,1.85,6.36,6.36,0,0,0-1.34,1.35c-0.47,3.18-1,6.34-1.45,9.53-0.23,1.67-.5,3.34-0.66,5-0.84,5.41-.89,11.06-3.13,16.14,0,0.59-1.25,1.49-.51,1.79l13.85,6.93c13.71,0.36,27.42,0,41.13.06q0,3.33-.06,6.66c4.86,0.06,9.71.06,14.57,0.07,4,0.05,8.08.06,12.12,0,0.17-11.35.29-22.7,0.19-34.05,0-3.62,0-7.25.08-10.87a2.54,2.54,0,0,0,.12-1.55,4,4,0,0,1-.15-2c0.9-6.24,2.83-12.27,3.94-18.47a1.54,1.54,0,0,1,1.06-.56,1.76,1.76,0,0,0,.74-1.43,0.76,0.76,0,0,0-.3-1,16.89,16.89,0,0,0-2.49-.75,19.64,19.64,0,0,1-1.12-2.17,6.44,6.44,0,0,1-.37-2.25,33,33,0,0,1,.28-5.17,33.94,33.94,0,0,1,.6-3.41,32.06,32.06,0,0,1,1.58-4,20,20,0,0,0,.83-1.88,1,1,0,0,0-.84-0.94,4.09,4.09,0,0,0-1.88.43c-1.35.43-2.66,1-4,1.31-1-.25-1.91-0.86-2.93-1.12a17.15,17.15,0,0,1-3-.27,1.2,1.2,0,0,1-.67-1.41,2.92,2.92,0,0,0-.14-1.62c0.14-1.39-.1-2.79.07-4.18,0.06-1.76.3-3.52,0.41-5.28a11.09,11.09,0,0,1,0-2.49l-1.93-2.55a1.76,1.76,0,0,0,.45-1.18,27.83,27.83,0,0,0-.13-3.07,19.34,19.34,0,0,1,.34-2,2.65,2.65,0,0,1,1.62-1.35,8.86,8.86,0,0,1,2.3-.89,18.87,18.87,0,0,0,3.27-1.19,49.37,49.37,0,0,0,4.23-3.42,2.12,2.12,0,0,0-.86-1.1,14.69,14.69,0,0,1-1.62-2c-0.59-.8-1.24-1.57-1.75-2.41l-1.81-2.16c-0.08-.54.63-0.47,1-0.56a2,2,0,0,0,1.14-.83c0.85-.91,1.8-1.75,2.59-2.72a1,1,0,0,0-.18-1.22c-1.37-1.29-2.71-2.63-4.1-3.9a15.12,15.12,0,0,0-2.79-1,7.21,7.21,0,0,1-2.15-.86c-2-1.13-4-2.25-5.89-3.45a3.94,3.94,0,0,0-2.37-.54c-1.16.29-2.37,0-3.55,0.13a0.88,0.88,0,0,1-.66-0.81c0-1.7.15-3.41,0.12-5.12s0.06-3.31,0-5a2,2,0,0,0-1.37-1.38,28.94,28.94,0,0,0-5.46-2l-4.23,2.18c-1.18-2.66-2.39-5.31-3.59-8-0.15-.61-0.63-1.3-0.2-1.89a2.45,2.45,0,0,1,1.17-1c1,0,2,.6,3,0.66a3.14,3.14,0,0,0,1.46-.85c0.91-1.87,2.24-3.55,2.75-5.6a6.11,6.11,0,0,0-1.4-5.86,2.32,2.32,0,0,1-1-1.73,3,3,0,0,1,.4-1.18c0.7-.82,1.51-1.55,2.12-2.43a3.9,3.9,0,0,0-.22-2.16l-0.83-2.14c-1.59-.28-0.61,2.1-1.37,2.74h0Z" transform="translate(-16.5 -15.39)"/><path id="path4295" class="cls-9" d="M660.34,442.6a2.08,2.08,0,0,0,0,1.74c0.65,1.93,1,4,1.56,5.91,0.69,0.22.64,1,.86,1.56a3.58,3.58,0,0,0,1.11,2.12,1.21,1.21,0,0,1-.21,1.91c-0.42.5-1.33,1-1.82,0.33a5.06,5.06,0,0,0-2.37-1.53,5.68,5.68,0,0,0-3.11,1,10.32,10.32,0,0,0-2.84,4.37c-1.53,4-.17,8.27.36,12.32-0.61.08-.39-0.87-0.62-1.27a25.82,25.82,0,0,0-3.06.33c0.62,1.06,1.63,3.13,1,4-0.54,0-1.19.16-1.16-.58a0.61,0.61,0,0,0-1-.51l-1.77.59,2.42,5.23c-0.55.36-1.19,0.57-1.74,0.93-0.59-.87-1.75.82-2.51,1s-2.14,1.92-2.81,1.08c-0.38-1.21-1.43.38-2.16,0.55-3.13,1.92-6.48,3.62-9.17,6.15-2.47,2.5-2.7,6.19-4.19,9.23,0.79,3.6,1.06,7.27,1.61,10.91,0.34,0.81-.61.28-1,0.28s-1-.74-1.31-0.3a13.41,13.41,0,0,0-1.37.19c-0.69,0-1-.77-1.7-0.68-2.55-.35-5.13-0.46-7.7-0.68-0.38.51,0.08,1,.25,1.49,1.23,2,2.56,3.9,3.91,5.79a103,103,0,0,1,6.47,8.64c1.49,2.19,2.89,4.45,4.42,6.61a15.76,15.76,0,0,1,1.44,2.9c3.21,7.22,6.37,14.46,9.71,21.62l3.67,3.36,5-5.29c-0.11-.73.67-1,1.06-1.49a20.07,20.07,0,0,1,3.43-3.17c0.84-1,1.2.05,1.64,0.87,4.76,7.92,11.63,14.22,17.64,21.15l1.8,0.25c1.77-5.55,3.16-11.23,5.13-16.7a7.25,7.25,0,0,1,1.82-2.46,16.93,16.93,0,0,1,4.3-2.91c0.89-.59,2.1-0.27,2.94-1,15.61-9,30.49-19.15,46.24-27.89a6.38,6.38,0,0,1,2-1.79c5.19-3.2,10.43-6.34,15.6-9.58,1.55-1,3.06-2.11,4.63-3.09,1.19-.25,2.09-1.14,3.13-1.71,2.77-1.77,5.55-3.53,8.4-5.18a83.85,83.85,0,0,0,13.91-11c2.24-2.22,4-4.84,6.06-7.25a32.46,32.46,0,0,0,6.52-12.76c-0.07-1,.67-1,1.45-0.93a10.07,10.07,0,0,1,2,.87,1.59,1.59,0,0,0,1.33.7c0.44-.05,1.28.51,1.41,0a14,14,0,0,0,.52-2.75,24.15,24.15,0,0,1,2.29-5.11,30.59,30.59,0,0,1,2.72-4.13c3-3.79,6.28-7.37,9.45-11,6.8-7.7,13.73-15.27,20.54-23a27.75,27.75,0,0,1-2.19-1.9c-0.24-.47-0.67.88-1-0.09-0.64-.7-1.37-1.34-2-2.08a15.17,15.17,0,0,1-.85-4.33,6.24,6.24,0,0,0-2.5-3c-0.76-.57-1.68-0.92-2.38-1.55a3.49,3.49,0,0,0-1.39-.47c-0.67-.32-1.08-0.94-1.73-1.3-0.94-.7-2.16-0.93-3.09-1.67a12.91,12.91,0,0,1-2.36-1.75l-3.22-2.19-0.94-3.61c-1.32.78-2.16,2.13-3.24,3.2a8.94,8.94,0,0,0-1.84,2.4,16.82,16.82,0,0,0-.75,3.25,1.1,1.1,0,0,0,1.19.68,4.32,4.32,0,0,0,2.43,0,4,4,0,0,1,1.55-.26c0.75,0.25-.33.7-0.69,0.77-0.53.07-.92,0.67-1.4,0.72-0.44.27-.78,0.24-1.19,0.47a3.08,3.08,0,0,0-1.93.33c-0.49,1.5-.92,3-1.46,4.53-0.33.61-.93-0.13-1.35-0.28-1.64-1-3.34-1.87-5-2.86-0.53-.17-0.89-0.65-1.44-0.81-1.45-.78-2.83-1.73-4.33-2.41-4-1.46-7.55-4.31-11.91-4.52-2,.25-4.05.5-6.08,0.74-2.21-1-4.72-.82-7.07-1.23-0.64-.45-1.13.35-1.67,0.46-0.66-.1-1.34.34-2,0.29-0.59-.22-0.19-1.37-1-1.35-0.49-.12-0.63-0.84-1.17-1s-0.87-.56-1.35-0.64-1.24.08-1.67-.41c-1.36-.17-2.16-1.48-3.42-1.91-1.43-.62-3.15-0.62-4.26-1.88-0.44-.41.46-1,0.63-1.5l2.25-3.43-1.8-1.18-4.23,6.41c0.71,0.4.74,0.5-.07,0.23a7.65,7.65,0,0,1-2.36-.85c-1,.32-2,0.74-3,1-3.1-.42-6.18-0.93-9.25-1.48-1.73.87-3.42,1.87-5.19,2.67-2.25.78-4.51,1.54-6.76,2.31a40.54,40.54,0,0,0-1.32,7,3.14,3.14,0,0,1-1,2.16c-2.25,2.41-4.57,4.79-6.78,7.23l-2.77,6.14c-3.43.65-6.86,1.38-10.29,2a3.72,3.72,0,0,1-2-1c-1.06-2.16-2-4.36-3.15-6.49-1.56-2.11-3.19-4.16-4.7-6.3A8.38,8.38,0,0,0,690,409c-0.34-.67-0.91-0.21-0.89.38a3.91,3.91,0,0,1-.52,2c-0.44,1.12-1.75,1.52-2.57,2.19-1.43.28-2.8,0.89-4.25,1.15-2.35.5-4.7,1.34-7.13,1.11a2.93,2.93,0,0,1-2.44-.88c-0.22-.39-0.91-0.68-1.08-0.11-0.33.88,0.53,1.82,0,2.66-0.44,1.1-1.62,1.57-2.63,2a18.75,18.75,0,0,1-2,.88,12.13,12.13,0,0,1-2.64-1.39,6.75,6.75,0,0,1-2.22-1.66,0.71,0.71,0,0,0-1.23.39c0.51,1,1.74,2.1,1.71,3.5,0.24,1-.09,2.23.66,3.06a2.69,2.69,0,0,1,.59,2.21c0.12,1.42-1.24,2.27-1.71,3.49-0.14.6,0.32,1.28,0,1.88a7.06,7.06,0,0,1-1.46,2.35c-0.32,1.13-1.2,2-1.37,3.23-0.37,1.43-1,3-.37,4.42,0.14,0.59.34,1,1,.65A8.07,8.07,0,0,1,660.34,442.6Z" transform="translate(-16.5 -15.39)"/><path id="path4293" class="cls-5" d="M651.51,552.44c-0.39.49-1.16,0.76-1.06,1.49l-5,5.29-3.67-3.36c-2.31,10.68-4,21.47-5.85,32.24,0.7,0.54.75,1.49,1.12,2.24-0.1.81-.21,1.62-0.31,2.43-1.5.09-3-.21-4.46-0.25-1.65.41-2.9,1.73-4.31,2.61a68.38,68.38,0,0,0-10.89,10.52c5.54,0.09,11.08.2,16.62,0.37,0,11,0,22.07-.25,33.11,4,0,8.07-.09,12.11-0.19,0.47,0.06,1.31-.26,1.1.51q0.11,3,.23,6.09c3.95-2.26,7.86-4.59,11.82-6.8,3.35-1.67,6.62-3.51,9.93-5.24,3.94-2.33,7.8-4.79,11.81-7,1.7-.94,3.36-2,5-3,0.33,0.37.52,1.13,1.12,0.75,1.22-.39,2.08-1.41,3.12-2.12,2.12-1.62,4.17-3.33,6.33-4.89l9.84-6.18c0-.5-0.36-1.14.29-1.36,1.78-1.46,4-2.16,6.08-3.1,1.67-.67,3.27-1.51,5-2.12a12.9,12.9,0,0,1,6.52-.27,13.36,13.36,0,0,1,8.79,6.29c3.21,5.56,4.53,11.93,5.94,18.12,0.74,3.28,1.31,6.62,2.34,9.83a5.33,5.33,0,0,1,1.34-.72c1.25-.63,1.83-2,2.8-3,0.69-.71,1.31-1.55,2-2.19,1-.24,2-0.35,2.9-0.67,0.51-.4,0-1,0-1.56l-0.66-3,2.05-2c-0.41-.41.33-0.9,0.46-1.36a56.88,56.88,0,0,1,3.72-5.49,13.89,13.89,0,0,1,2.05-2.48,34.94,34.94,0,0,0,3.48,1.31c0,0.64.74,0.59,1.16,0.84,1.25,0.55,2.65.8,3.72,1.68s1.9,1.6,2.9,2.34c1.6,1.2,3.37,2.14,5,3.23,1.39-3.09,2.78-6.18,4-9.34,0.74-.43.92-1.36,1.39-2,0.87-1.51,1.67-3.09,2.59-4.55a2.82,2.82,0,0,0,1.28-1.23q5.12-7.92,10.3-15.8c1.2-2.14,2.37-4.29,3.36-6.52a56.27,56.27,0,0,0,2.9-7.34,61.84,61.84,0,0,0,1.87-6.74A224.13,224.13,0,0,0,808.79,516a58.3,58.3,0,0,0-.21-6.92c-0.24-1.94-.12-3.91-0.18-5.86s-0.11-3.77-.19-5.65c0.42-.22.05-1,0.15-1.43-0.12-6-.32-11.9-0.32-17.86,0-.85,0-1.7,0-2.56a0.86,0.86,0,0,1,0-1.18,26.35,26.35,0,0,1,.37-4.55c1,0.17.33-1.75,0.72-2.4,1.07-7.39,3.76-14.73,8.69-20.44-0.19-.53-0.44-1.13-0.83-0.36-2.26,2.59-4.6,5.11-6.79,7.75a42.15,42.15,0,0,0-4.07,5.7,19.19,19.19,0,0,0-2,3.8,9.3,9.3,0,0,0-.9,3.19c-0.11.62-.3,1.21-0.45,1.82a20.11,20.11,0,0,1-2.18-.44,6.91,6.91,0,0,0-2.3-1.37c-0.46.1-1.22-.2-1.49,0.16-0.62,1.85-1.14,3.74-1.84,5.56a32.07,32.07,0,0,1-2.77,5.08c-1.72,2.46-3.63,4.79-5.49,7.16-2.73,3.46-6.19,6.23-9.54,9.06a77.84,77.84,0,0,1-10.52,7c-2.45,1.53-4.87,3.12-7.33,4.61-1.13.21-1.95,1.1-2.92,1.66-3.56,2.48-7.34,4.63-11,6.93-2.65,1.64-5.33,3.22-7.95,4.89a5.19,5.19,0,0,1-2,1.7c-15.67,8.73-30.44,19-46,27.8a6.26,6.26,0,0,0-2.59.79,18,18,0,0,0-4.34,3.06,12.19,12.19,0,0,0-1.48,2.25c-1.87,5.46-3.31,11.05-5,16.55l-1.8-.25c-6.38-7.34-13.71-14-18.49-22.59a14.41,14.41,0,0,0-2.94,2.41Z" transform="translate(-16.5 -15.39)"/><path id="path4287" class="cls-9" d="M729.49,724.15c1.33-3.57.05-7.39,0.47-11.07s1.71-7.25,2.14-10.95c-0.11-6.31.47-12.72-.86-19-0.13-1.45-1.2-2.65-1.5-4v-3.8c1.71-3.44,4.41-6.37,5.6-10.06,0.54-2-.3-3.88-0.68-5.79a4.15,4.15,0,0,1-.14-1.83c0.73-1,1.17-2.24,1.88-3.29-0.35-.16,0-0.83-0.38-1.19a9,9,0,0,1-.8-1.92c-1.18-.39-2.52-0.72-3.22-1.84-0.6-.51-0.32-1.37-0.58-2a16.81,16.81,0,0,0-1.37-3.77,0.59,0.59,0,0,1,.21-1.1A3,3,0,0,1,732,642c1-.42,1.82-1.29,3-1.32a10.45,10.45,0,0,0,2.32-.51,3.39,3.39,0,0,0,1.88-.68,13.52,13.52,0,0,1,1.68-1c-1.59-5.22-2.34-10.65-3.76-15.92-1.31-4.83-2.7-9.86-5.81-13.88a13.87,13.87,0,0,0-10.07-4.75,15.7,15.7,0,0,0-4.43.75c-2.74,1.27-5.56,2.38-8.29,3.66a13.3,13.3,0,0,0-2.68,1.71c0,0.49.37,1.16-.3,1.33-3.32,2.11-6.68,4.16-10,6.3-2.62,2-5.24,4.1-7.86,6.13a3.87,3.87,0,0,1-1.52.62c-0.32-.35-0.54-1.2-1.06-0.61-3.92,2.45-8,4.57-11.95,7-2.31,1.41-4.61,2.84-7,4.05-2.7,1.43-5.38,2.9-8.1,4.27l-11.07,6.4q-0.13-3.3-.25-6.6c-3.7,0-7.4.19-11.1,0.17l-2.09,0c0.24-11,.26-22.07.25-33.11-5.57-.17-11.14-0.31-16.7-0.35a7.68,7.68,0,0,1-2.77.41c-6.35,0-12.7-.25-19.06-0.27l-7.65,0c0.37,6.91-.4,13.83.06,20.74-0.24,13.71-.08,27.42-0.24,41.13a6.3,6.3,0,0,0-3.46,1.13,2.34,2.34,0,0,1-1.53.63L575.71,666l-1.87,1.31,4.36,5.16h2.43a5.32,5.32,0,0,1,.42,1.41,10.51,10.51,0,0,0,.68,1.56,3.36,3.36,0,0,0,1.2,1.57q-10.49,10.5-21,21a6.21,6.21,0,0,0-2,1.55,76.14,76.14,0,0,1-5.55,5.51,19.41,19.41,0,0,1-1.79,1.53c-8.29-.12-16.58-0.2-24.87-0.37v13q6.53,0,13.07.18c-0.27,13.17-.42,26.35-0.37,39.52,4.23,0,8.46.19,12.69,0.25L552.19,761a13.78,13.78,0,0,1,1,2.1c0.11,6.33,0,12.66.06,19l2.84,0q0-6.43,0-12.85l13-.09q0,5.07-.1,10.14l-9.56-.13c-0.06,1-.11,2-0.17,3l9.87,0.13c0,0.84,0,1.67,0,2.5-5.57,0-11.13.07-16.7,0l-5.39-.16c0,1.06,0,2.12.06,3.17,2.91,0.19,5.81.48,8.72,0.6,2.64-.21,5.3-0.33,7.94-0.58L575,784.76c-0.11-1.64-.21-3.28-0.31-4.92-0.44,0-1.27.38-1.43,0q-0.06-4-.12-7.92a2.34,2.34,0,0,1,1.42-1.62,11,11,0,0,1,7.79-.37c3.06,1.85,7.11,2,9.52,4.85V779c0.4-.13,1.25.17,1.37-0.23,0-2.19,0-4.39,0-6.57-0.07-.45-0.61-1.28.22-1,0.59-.05,1.07,0,0.85.72q0,3.52-.06,7c1.15,0.21,1.34-.44,1.07-1.53,0-2.15-.36-4.68,1.24-6.39,1.69-1.54,4.14-1.4,6.25-1.69,5.87-1.37,11.93-3.15,18-2.06a16.7,16.7,0,0,1,4.3,1.4,39.59,39.59,0,0,1,.12,4.82v4.7c0.41-.08,1.34.38,1.11-0.36l-0.12-8.16h1.68a7.83,7.83,0,0,1,0,3,24.76,24.76,0,0,0-.26,5.16c-0.21.5,1.13,0.7,0.81,0q0-1.87.06-3.74a3.36,3.36,0,0,0,.94-1.72,2.2,2.2,0,0,0,0-1.7,3.2,3.2,0,0,1,2-1.2c6.38-1.85,13.25-3.31,19.83-1.75a1.37,1.37,0,0,1,.95,1.1c0.23,0.55.76,1,.59,1.63,0,1.21,0,2.42-.05,3.63a0.67,0.67,0,0,0,1.19,0c0-2,0-4,.1-6.05a2.69,2.69,0,0,0,.21-1.79c7.13-2.21,14.73-5.89,22.38-4.48a2.52,2.52,0,0,1,1.4,1.13c0.5,0.38.15,0.93,0.06,1.42q-0.5,2.06-1,4.11c0.49,0.38.92,0.59,0.93-.22l1.43-5c0.41-.32.72-0.91,1.32-0.75h11.4c1.83,0-.5,9.79,1.32,9.56,0.26-1.63-.56-6.26,1.91-6.31,1.38,0.13,13,5.3,14.41,5.35,1.31-.27,1.07,4.57,2.35,4.26,0.46-.19-0.1-6.63.39-6.21l2.71-.07c1.14-.2-0.18,5.21,1,4.91,1.63-.27,10.48-1.54,12.15-1.47l3.73-3.28-2.52-4.07c-0.12-2.17-1.73-5.62-1.89-6.24-0.18-5.18-.3-10.37-0.51-15.55-0.72-2.58-1.48-5.14-2.16-7.72-0.13-.68.79-0.55,1.21-0.69a4.56,4.56,0,0,0,1.77-.47c0.76-1.11.09-2.47,0.08-3.68a14.58,14.58,0,0,1,1.1-5.71Z" transform="translate(-16.5 -15.39)"/><text class="cls-10" transform="translate(370.33 440.76)">Sarrià - <tspan x="-25.86" y="24.81">Sant Gervasi </tspan></text><text class="cls-10" transform="translate(270.9 555.04)">Les Corts</text><text class="cls-10" transform="translate(659.11 459.27)">Nou Barris</text><text class="cls-10" transform="translate(536.68 419.45)">Horta - <tspan x="-8.06" y="24.81">Guinardó</tspan></text><text class="cls-10" transform="translate(713.86 539.86)">Sant <tspan x="-9.2" y="24.81">Andreu</tspan></text><text class="cls-10" transform="translate(463.95 568.98)">Gràcia</text><text class="cls-10" transform="translate(229 732.45)">Sants - Montjuïc</text><text class="cls-11" transform="translate(419.14 638.84)">Eixample</text><text class="cls-10" transform="translate(434.65 704.44)">Ciutat<tspan class="cls-4" x="4.59" y="24.81">V</tspan><tspan x="17.24" y="24.81">ella</tspan></text><text class="cls-10" transform="translate(586.96 695.52)">Sant Martí</text><path class="cls-12" d="M483.49,809.2c0,29.31,19.84,53,44.36,53" transform="translate(-16.5 -15.39)"/><polygon class="cls-13" points="502.66 852.84 521.81 846.53 504.41 838.34 508.01 846.53 502.66 852.84"/><text class="cls-14" transform="translate(525.81 851.84)">La tasa de Ciutat <tspan class="cls-4" x="180.28" y="0">V</tspan><tspan x="194.35" y="0">ella</tspan><tspan x="0" y="27.6">es de 186 incidencias</tspan></text><g class="cls-15"><line class="cls-16" x1="208.85" y1="120.83" x2="208.85" y2="101.38"/><rect class="cls-17" x="0.5" y="101.38" width="208.35" height="28.83"/></g><g class="cls-18"><line class="cls-19" x1="417.2" y1="120.83" x2="417.2" y2="101.38"/><rect class="cls-20" x="208.85" y="101.38" width="208.35" height="28.83"/></g><g class="cls-21"><line class="cls-22" x1="625.55" y1="120.83" x2="625.55" y2="101.38"/><rect class="cls-23" x="417.2" y="101.38" width="208.35" height="28.83"/></g><line class="cls-24" x1="833.9" y1="120.83" x2="833.9" y2="101.38"/><rect class="cls-25" x="625.55" y="101.38" width="208.35" height="28.83"/><text class="cls-26" transform="translate(33.96 124.37)">Menos de 100</text><text class="cls-26" transform="translate(249.98 125.37)">De 100 a 120</text><text class="cls-26" transform="translate(458.76 124.37)">De 120 a 140</text><text class="cls-26" transform="translate(671.58 125.37)">Más de 140</text><polygon class="cls-27" points="863.25 914 1070.45 914 1070.45 945.48 863.25 945.48 863.25 914 863.25 914"/><path class="cls-28" d="M1046,936.42H1038v1l2.09,0.49v14.66a1.74,1.74,0,0,1-1.46.74,3.12,3.12,0,0,1-2.58-1.89l-2-3.55a4.11,4.11,0,0,0-3.63-2.44v-0.24c2.66-.07,5-2,5-4.52,0-3-2.77-4.24-6-4.24h-7.21v1l2.35,0.49v14.85h0l-2.71.52-6.75-18.41a8.48,8.48,0,0,1-2.43,2.08l0.26,0.74-6.16,15.08-1.86.5v1h5.6v-1l-1.83-.48,2.08-5.49h5.71l2,5.46-2.15.52v1h13.67v-1l-2.3-.49v-6.91c1.55,0.1,2.29.81,3,2.24l2.71,4.84a4.38,4.38,0,0,0,3.92,2.38,3.87,3.87,0,0,0,2.57-1.06h6.12a9.19,9.19,0,0,0,9.43-8.93c0-5.21-4-8.93-9.59-8.93h0Zm-34.67,9.49,2.42-6.34,2.32,6.34h-4.74Zm17.69-1.34h-1.22v-6.65h1.53a3,3,0,0,1,3.12,3.19,3.46,3.46,0,0,1-3.43,3.47h0Zm16.8,8.23h-2.55V937.91h2.62c4.05,0,6.54,2.8,6.54,7.44s-2.59,7.44-6.61,7.44h0Z" transform="translate(-16.5 -15.39)"/><path class="cls-28" d="M915.66,952.79l-6.6-17.93a8.45,8.45,0,0,1-2.43,2.08l0.26,0.74-6.16,15.08-1.31.5-0.39,1h5.45v-1l-1.84-.48,2.08-5.49h5.71l2,5.46-2.15.52v1h7.33v-1l-2-.48h0Zm-10.48-6.88,2.42-6.34,2.32,6.34h-4.74Z" transform="translate(-16.5 -15.39)"/><polygon class="cls-28" points="883.44 934.35 882.77 933.98 878.91 937.5 875.61 937.5 875.61 922.52 877.6 922.02 877.6 921.03 870.49 921.03 870.49 922.02 872.49 922.53 872.49 937.38 870.49 937.88 870.49 938.88 881.66 938.88 883.44 934.35 883.44 934.35"/><polygon class="cls-28" points="914.46 921.03 914.46 922.02 916.6 922.52 911.94 934.47 907.03 922.5 909.34 922.02 909.34 921.03 901.41 921.03 901.41 922.02 903.68 922.52 910.73 939.5 911.49 939.5 918.51 922.54 918.57 922.54 920.77 922.02 920.77 921.03 914.46 921.03 914.46 921.03"/><path class="cls-28" d="M1001.36,936.42v1l2.13,0.5s0.16,8.85.08,11.09a4.51,4.51,0,0,1-4.81,4.36,4.44,4.44,0,0,1-4.81-4.59v-10.9l2.07-.47v-1h-7.17v1l2,0.48v11c0.14,3.77,3.18,6.25,7.1,6.25s7-2.29,7.1-6.25l0.14-11,2.09-.5v-1h-6Z" transform="translate(-16.5 -15.39)"/><path class="cls-28" d="M1078.93,952.76l-6.57-17.89a8.47,8.47,0,0,1-2.43,2.08l0.26,0.74L1064,952.85l-1.05.43-1.42-.45V937.91l2.19-.5v-1h-7.47v1l2.16,0.51v14.87l-2.07.49v1h11.43v-1l-1.84-.48,2.09-5.49h5.72l2,5.46-2.15.52v1h7.33v-1l-2-.52h0Zm-10.45-6.85,2.42-6.34,2.33,6.34h-4.74Z" transform="translate(-16.5 -15.39)"/><path class="cls-28" d="M963,936.42v1l2.18,0.51,0.13,11.68-11.19-13.18h-4.78v1l2.16,0.48L951.7,938l-0.16,14.77h0l-2.2.52-6.75-18.41a8.48,8.48,0,0,1-2.43,2.08l0.25,0.74-6.16,15.08-1.86.5v1H938v-1l-1.83-.48,2.08-5.49h5.71l2,5.46-2.15.52v1h11.74v-1l-2.3-.5-0.14-12.92,12.79,15h0.85l0.17-17,2.17-.5v-1H963Zm-24.31,9.49,2.42-6.34,2.32,6.34H938.7Z" transform="translate(-16.5 -15.39)"/><path class="cls-28" d="M981.79,945.14v1l2,0.51v5.75a6.69,6.69,0,0,1-4,1.34c-4.06,0-6.65-3.42-6.65-8.15s2.55-8.52,6.71-8.52a6.36,6.36,0,0,1,6,4.86l0.58-.34V936l-0.51-.29L984.79,937a11.28,11.28,0,0,0-4.94-1.26,10,10,0,0,0-10,9.84c0,5.56,3.93,9.52,9.25,9.52a9.21,9.21,0,0,0,5.76-1.92l1.58,1h0.51v-7.66l1.69-.64v-0.82h-6.82Z" transform="translate(-16.5 -15.39)"/><text class="cls-29" transform="translate(5.22 942.48)">Fuente:<tspan class="cls-4" x="74.6" y="0"> </tspan><tspan x="79.5" y="0">Ajuntament de Barcelona</tspan></text></svg>