<svg xmlns="http://www.w3.org/2000/svg" viewBox="0 0 500 487"><defs><style>.\34 b75f715-970d-4bb0-8b63-f0d0b844a89c,.\36 8f00ef4-fb9f-45fb-81d7-c4c29fab246c{fill:#15acb1;}.\30 1172682-b8ff-450b-94a4-af32635b6cf5,.\31 e0595ec-e064-4b34-b84c-7c4e26110f27,.\31 e6b2f0d-ccb8-4cb2-af89-5e451860da7f,.\34 69faa83-39ae-45f7-b9cb-1bd00abefb29,.\34 b75f715-970d-4bb0-8b63-f0d0b844a89c,.\35 e4e9962-ce40-4495-91f9-76c5ae518649,.\36 8f00ef4-fb9f-45fb-81d7-c4c29fab246c,.\36 d969b1c-fcab-42c7-a5ae-3a9d9a3394bf,.\38 73c5d73-9e3d-432c-b170-f56a04131397,.\38 aa8893a-3190-4c09-a7cd-42b0e6be62cd,.\39 e8d77a1-d24a-4c17-83e2-e47f325c99aa,.a128c771-bb06-4d8e-9734-97f7f3a2022f,.a256bd34-50ba-4f3a-8d0d-00b4223a21e8,.a6662ed0-f970-431e-914c-072e9af2e689,.b07d1d2f-d55c-4630-a0e8-10431caf5dae,.ce2f9720-c81d-45f3-9086-105b6892400b,.cfc7f736-1f58-40b7-bf1a-2fbb1958cc6d,.d3bb7831-e37d-40da-b41d-f9bf897ca293,.f6519068-dd47-446d-bb84-be639f7e3777{stroke:#fff;}.\30 1172682-b8ff-450b-94a4-af32635b6cf5,.\30 8bd0884-457c-400e-9548-49f0ab7fb666,.\31 e0595ec-e064-4b34-b84c-7c4e26110f27,.\31 e6b2f0d-ccb8-4cb2-af89-5e451860da7f,.\34 69faa83-39ae-45f7-b9cb-1bd00abefb29,.\34 b75f715-970d-4bb0-8b63-f0d0b844a89c,.\35 e4e9962-ce40-4495-91f9-76c5ae518649,.\36 8f00ef4-fb9f-45fb-81d7-c4c29fab246c,.\36 d969b1c-fcab-42c7-a5ae-3a9d9a3394bf,.\38 73c5d73-9e3d-432c-b170-f56a04131397,.\38 aa8893a-3190-4c09-a7cd-42b0e6be62cd,.\39 e8d77a1-d24a-4c17-83e2-e47f325c99aa,.a128c771-bb06-4d8e-9734-97f7f3a2022f,.a256bd34-50ba-4f3a-8d0d-00b4223a21e8,.a6662ed0-f970-431e-914c-072e9af2e689,.b07d1d2f-d55c-4630-a0e8-10431caf5dae,.c0aa9a12-56ef-4297-b389-975eb572525b,.ce2f9720-c81d-45f3-9086-105b6892400b,.cfc7f736-1f58-40b7-bf1a-2fbb1958cc6d,.d3bb7831-e37d-40da-b41d-f9bf897ca293,.f6519068-dd47-446d-bb84-be639f7e3777{stroke-miterlimit:10;}.\30 1172682-b8ff-450b-94a4-af32635b6cf5,.\34 b75f715-970d-4bb0-8b63-f0d0b844a89c,.\36 d969b1c-fcab-42c7-a5ae-3a9d9a3394bf,.\38 73c5d73-9e3d-432c-b170-f56a04131397,.a256bd34-50ba-4f3a-8d0d-00b4223a21e8,.c0aa9a12-56ef-4297-b389-975eb572525b,.ce2f9720-c81d-45f3-9086-105b6892400b,.cfc7f736-1f58-40b7-bf1a-2fbb1958cc6d{stroke-width:0.5px;}.\31 e6b2f0d-ccb8-4cb2-af89-5e451860da7f,.cfc7f736-1f58-40b7-bf1a-2fbb1958cc6d{fill:#159094;}.\30 1172682-b8ff-450b-94a4-af32635b6cf5,.\39 e8d77a1-d24a-4c17-83e2-e47f325c99aa{fill:#136361;}.\36 d969b1c-fcab-42c7-a5ae-3a9d9a3394bf,.d3bb7831-e37d-40da-b41d-f9bf897ca293{fill:#c9f3f4;}.\34 69faa83-39ae-45f7-b9cb-1bd00abefb29,.ce2f9720-c81d-45f3-9086-105b6892400b{fill:#fecb41;}.\31 e0595ec-e064-4b34-b84c-7c4e26110f27,.\38 73c5d73-9e3d-432c-b170-f56a04131397{fill:#f9f077;}.a128c771-bb06-4d8e-9734-97f7f3a2022f,.a256bd34-50ba-4f3a-8d0d-00b4223a21e8{fill:#fff7c0;}.b8fc1947-a122-4396-a7ef-e936f3c19b4e{font-size:11px;}.\30 b1d619b-b63a-438b-8d1b-0cef3692dc66,.\39 57841cf-11f1-4f88-8611-9eecc1b52743,.b8fc1947-a122-4396-a7ef-e936f3c19b4e,.c85d46ca-cf62-4605-bf0b-6c74a6243917,.db1243f7-fe40-4ac5-9cd2-1566372494c0{fill:#757575;}.\38 9e3199f-cc21-46bb-8b6c-3048dd889cf8,.b8fc1947-a122-4396-a7ef-e936f3c19b4e,.c85d46ca-cf62-4605-bf0b-6c74a6243917,.da9db9bf-7e1f-4465-8ceb-888a71871eb8,.db1243f7-fe40-4ac5-9cd2-1566372494c0{font-family:ArialMT, Arial;}.\34 8dda030-c2c0-4b2a-9f04-0ed37be543b2{letter-spacing:-0.07em;}.\34 f274efe-7777-4741-af64-f480ac90505f{letter-spacing:-0.04em;}.\30 8bd0884-457c-400e-9548-49f0ab7fb666,.c0aa9a12-56ef-4297-b389-975eb572525b{fill:none;}.\30 8bd0884-457c-400e-9548-49f0ab7fb666{stroke:#757575;}.\36 3df765a-01da-4cc8-9e94-ee78931ae877{font-size:21px;font-family:Arial-BoldMT, Arial;font-weight:700;}.\36 3df765a-01da-4cc8-9e94-ee78931ae877,.da9db9bf-7e1f-4465-8ceb-888a71871eb8{fill:#323232;}.d468a53a-b4fe-4a54-b52f-6494188058dc{letter-spacing:-0.06em;}.\35 195a716-523b-49a0-8528-d248de1e7a01{letter-spacing:0em;}.c0aa9a12-56ef-4297-b389-975eb572525b{stroke:#323232;}.\38 9e3199f-cc21-46bb-8b6c-3048dd889cf8,.da9db9bf-7e1f-4465-8ceb-888a71871eb8,.db1243f7-fe40-4ac5-9cd2-1566372494c0{font-size:12px;}.\30 b1d619b-b63a-438b-8d1b-0cef3692dc66,.f99c8b57-8354-49ec-bc01-f6d3a73ecc87{letter-spacing:-0.06em;}.\36 dee1cab-97b7-4b56-882b-886f8a13d7e6{letter-spacing:-0.02em;}.\38 9e3199f-cc21-46bb-8b6c-3048dd889cf8{fill:#fff;}.a6662ed0-f970-431e-914c-072e9af2e689{fill:#af5b1c;}.\35 e4e9962-ce40-4495-91f9-76c5ae518649{fill:#d57928;}.b07d1d2f-d55c-4630-a0e8-10431caf5dae{fill:#f49e20;}.c85d46ca-cf62-4605-bf0b-6c74a6243917{font-size:10px;}.c5829b98-b340-4501-8dc2-fb7eab99cbc9{font-size:7px;}.\38 aa8893a-3190-4c09-a7cd-42b0e6be62cd{fill:#89d2d8;}.f6519068-dd47-446d-bb84-be639f7e3777{fill:#e3ffff;}</style></defs><title>VALENCIA01</title><g id="e01b67ce-8c55-47c0-94ff-c2cbd072d570" data-name="Capa 1"><polygon id="22f6da28-2a40-44fa-a02c-de9f63227bb3" data-name="polygon7" class="4b75f715-970d-4bb0-8b63-f0d0b844a89c" points="388.9 162.07 383.32 158.51 383.28 149.98 383.89 148.53 383.89 146.69 385.04 146 385 145.16 387.11 145.24 396.74 151.51 398.58 155.11 391.54 161.91 388.9 162.07"/><polygon id="3c3a928e-5a1d-419f-b62c-2b94a9f296f8" data-name="polygon9" class="cfc7f736-1f58-40b7-bf1a-2fbb1958cc6d" points="400.07 140.53 398.85 141.07 396.74 140.19 395.94 140.53 395.4 140.19 396.67 138.81 391.43 134.11 378.54 138.51 385 145.16 387.11 145.24 396.74 151.51 398.12 150.86 400.99 141.38 400.07 140.53"/><polyline id="b6d53bec-4375-4947-9499-717361419171" data-name="polyline11" class="4b75f715-970d-4bb0-8b63-f0d0b844a89c" points="383.89 146.69 383.89 148.53 383.28 149.98 383.32 158.51 388.9 162.07 391.54 161.91 389.02 165.39 386.8 176.37 384.62 174.23 384.05 172.89 384.39 171.17 384.2 170.52 383.24 171.32 378.96 164.82 376.63 165.01 375.59 164.59 374.71 164.71 374.02 162.03 378.12 162.3 372.8 153.27"/><polyline id="d9cd4292-2067-4af0-99bd-67507df22bb5" data-name="polyline13" class="cfc7f736-1f58-40b7-bf1a-2fbb1958cc6d" points="386.8 176.37 389.02 165.39 391.54 161.91 398.58 155.11 402.25 159.93 404.55 166.31"/><polygon id="832743b4-f7f1-4bc0-a475-be5c6acda9e2" data-name="polygon15" class="cfc7f736-1f58-40b7-bf1a-2fbb1958cc6d" points="401.56 141.87 401.83 142.87 408.45 149.45 409.17 148.79 410.44 149.52 410.01 151.63 411.12 152.31 406.19 165.28 404.55 166.31 402.25 159.93 398.58 155.11 396.74 151.51 398.12 150.86 400.99 141.38 401.56 141.87"/><polygon id="d58f4788-41fb-4863-bbaa-7d813e5925a7" data-name="polygon17" class="01172682-b8ff-450b-94a4-af32635b6cf5" points="374.37 140.27 374.98 142.06 373.26 142.79 366.76 131.78 363.85 133.19 362.94 130.82 352.11 130.67 345.84 132.35 345.65 133.61 347.41 135.91 346.8 136.63 347.29 138.62 346.64 139.92 347.33 140.19 351.73 143.98 356.51 145.77 359.99 146.19 360.18 147.27 358.08 149.83 360.68 153.54 361.14 154.49 364.04 155.56 372.8 153.27 385.04 146 385 145.16 378.54 138.51 374.37 140.27"/><polygon id="b758e600-1d73-44e7-aaf3-ecaa0f09bb90" data-name="polygon19" class="4b75f715-970d-4bb0-8b63-f0d0b844a89c" points="383.36 133.15 386.11 131.89 384.93 127.07 381.1 128.45 374.22 121.53 371.31 123.48 370.47 123.75 368.94 125.24 368.79 126.35 367.56 127.03 370.24 130.28 368.9 131.13 368.71 130.67 368.21 130.71 366.76 131.78 373.26 142.79 374.98 142.06 374.37 140.27 384.62 136.4 383.36 133.15"/><polygon id="4a6674c2-7bea-476f-8de6-1de584d38ede" data-name="polygon21" class="6d969b1c-fcab-42c7-a5ae-3a9d9a3394bf" points="356.24 124.78 356.24 125.43 357.35 126.08 358.19 128.6 359.11 128.98 360.49 127.34 362.36 127.95 362.7 127.49 363.93 128.26 364.96 126.88 367.56 127.03 370.24 130.28 368.9 131.13 368.71 130.67 368.21 130.71 366.76 131.78 363.85 133.19 362.94 130.82 352.11 130.67 345.84 132.35 341.71 125.39 340.41 119.81 347.14 117.82 355.17 123.4 356.24 124.78"/><polygon id="40ff0607-ab2e-4766-a890-f85ddf4c4af3" data-name="polygon23" class="6d969b1c-fcab-42c7-a5ae-3a9d9a3394bf" points="394.07 125.39 395.37 123.67 396.44 120.61 399.23 120.38 401.83 122.25 403.05 120.61 406.04 122.79 405.88 124.01 407.49 125.01 405.92 127.03 406.8 128.22 406.07 129.44 403.59 137.47 401.52 137.67 400.61 139.58 399.23 138.35 399 136.75 398.62 136.79 396.67 138.81 391.43 134.11 384.62 136.4 383.36 133.15 386.11 131.89 384.93 127.07 388.9 125.54 393.99 127.07 394.07 125.39"/><polygon id="fa5ac827-8308-4b91-a609-d61d762247f2" data-name="polygon25" class="01172682-b8ff-450b-94a4-af32635b6cf5" points="395.94 140.53 395.4 140.19 398.62 136.79 399 136.75 399.23 138.35 400.61 139.58 401.52 137.67 403.59 137.47 405.81 130.48 406.8 130.94 406.61 132.16 408.22 133.46 408.25 134.45 412.04 137.09 416.25 137.7 418.08 138.78 410.44 146.23 409.17 148.79 408.45 149.45 401.83 142.87 401.56 141.87 400.07 140.53 398.85 141.07 396.74 140.19 395.94 140.53"/><polygon id="cfad6769-0232-4305-af67-9ac6714225eb" data-name="polygon27" class="01172682-b8ff-450b-94a4-af32635b6cf5" points="425.01 138.43 426.27 138.32 429.06 140.38 428.03 149.75 427.53 151.47 426.23 150.71 423.86 156.52 423.17 156.52 421.99 158.47 422.44 159.39 426.23 159.85 425.85 162.53 418.7 159.66 417.59 159.81 409.29 157.17 411.12 152.31 410.01 151.63 410.44 149.52 409.17 148.79 410.44 146.23 418.08 138.78 421.49 139.85 423.97 140.07 425.01 138.43"/><polygon id="9c05fd64-199b-4449-9032-967078e82a3d" data-name="polygon29" class="01172682-b8ff-450b-94a4-af32635b6cf5" points="425.85 162.53 425.58 165.09 422.29 168.61 421.33 172.89 421.56 176.03 418.54 176.56 415.83 175.84 408.94 170.21 407.03 170.25 404.55 166.31 406.19 165.28 409.29 157.17 417.59 159.81 418.7 159.66 425.85 162.53"/><polygon id="4a6950cc-9cc8-4f9c-9f36-a83d937a34c8" data-name="polygon31" class="4b75f715-970d-4bb0-8b63-f0d0b844a89c" points="415.83 175.84 418.54 176.56 421.56 176.03 427.03 175.3 426.04 193.96 426.63 206.87 425.35 207.2 403.78 198.55 381.52 196.41 386.8 176.37 404.55 166.31 407.03 170.25 408.94 170.21 415.83 175.84"/><polygon id="d4e6cf31-71f1-44b8-8ad3-60a6f8814a76" data-name="polygon33" class="4b75f715-970d-4bb0-8b63-f0d0b844a89c" points="372.95 193.73 369.21 189.68 365.08 185.32 368.06 179.89 371.2 177.06 372.04 177.67 371.9 179.28 374.43 182.43 380.22 171.17 379.84 170.18 380.3 169.79 380.38 168.11 380.8 167.57 383.24 171.32 384.2 170.52 384.39 171.17 384.05 172.89 384.75 174.34 386.8 176.37 381.52 196.41 376.01 195.26 372.95 193.73"/><polygon id="aed35738-d076-4460-b68e-883923c7a7d8" data-name="polygon35" class="01172682-b8ff-450b-94a4-af32635b6cf5" points="375.59 164.59 374.71 164.71 373.45 166.48 358.82 167.29 357.68 172.74 365.08 185.32 368.06 179.89 371.2 177.06 372.04 177.67 371.9 179.28 374.43 182.43 380.22 171.17 379.84 170.18 380.3 169.79 380.38 168.11 380.8 167.57 378.96 164.82 376.63 165.01 375.59 164.59"/><polygon id="97264c71-bb27-466f-a0c1-18de317d15f4" data-name="polygon37" class="4b75f715-970d-4bb0-8b63-f0d0b844a89c" points="374.71 164.71 373.45 166.48 358.82 167.29 359.15 164.59 354.14 161.15 358.38 159.2 359.76 156.79 363.51 156.98 364.04 155.56 372.8 153.27 378.12 162.3 374.02 162.03 374.71 164.71"/><polygon id="d46a103e-a1a7-4ec2-8ade-0fc786672291" data-name="polygon39" class="6d969b1c-fcab-42c7-a5ae-3a9d9a3394bf" points="355.95 178.88 353.32 179.85 352.74 181.11 348.1 181.8 346.83 180.94 342.47 181.57 342.53 182.15 344.37 183.75 345.63 187.02 345.06 187.42 348.5 192.13 349.53 196.09 352.45 199.7 354.98 198.55 368.69 197.18 369.26 206.18 370.76 206.76 373.39 205.78 374.77 207.22 378.67 207.56 380.05 200.68 385.15 202.85 390.72 206.99 395.77 208.65 395.88 210.6 401.16 213.47 403.28 215.53 405.23 216.11 406.55 215.19 409.08 215.65 411.2 212.61 414.36 212.09 415.04 217.2 415.16 228.67 413.5 239.23 416.02 243.13 421.07 247.77 427.32 255.98 428.93 260.57 430.53 262.29 431.05 265.04 432.31 266.88 433 269.63 434.26 272.38 433.86 273.42 432.43 273.3 431.51 272.67 430.25 272.21 429.33 271.18 428.18 271.01 424.05 268.14 422.96 268.08 422.21 269.35 422.27 271.93 421.13 274.05 419.75 273.13 418.14 271.07 416.42 271.01 414.01 274.51 413.32 274.91 412.98 275.71 409.48 277.38 408.96 277.49 407.24 279.21 406.27 281.11 405.23 281.22 403.4 280.3 401.91 279.84 400.93 279.38 400.24 279.61 399.38 280.59 397.72 281.74 396.06 281.79 393.47 283.29 391.98 283.69 390.89 284.55 386.76 288.91 385.9 291.26 385.9 298.77 385.38 299.35 384.35 299.58 383.32 301.81 383.2 302.9 382.29 304.57 379.88 307.32 379.02 308.81 377.64 310.65 377.7 313 377.81 313.52 377.75 317.48 377.41 318.34 377.7 320.8 378.16 322.01 379.99 324.25 380.16 324.7 381.54 325.8 381.88 326.83 382.8 328.78 384.35 330.44 385.44 330.61 387.39 329.29 389.23 329.18 391.41 331.42 393.3 333.71 393.99 334.4 393.93 335.26 393.19 337.56 392.56 339.85 395.25 339.62 397.95 338.88 401.1 338.53 405.69 342.78 406.44 342.66 407.64 340.94 408.9 339.79 409.71 338.47 411.83 336.46 413.9 336.46 414.87 335.49 416.88 334.86 418.83 333.19 419.29 332.33 420.84 331.36 422.62 331.19 424.91 329.41 430.07 329.06 433 330.56 435.64 332.51 437.42 331.36 438.39 330.1 440.69 329.75 442.98 332.28 443.84 333.65 444.7 334.69 444.65 338.59 444.3 340.6 445.28 342.43 447.28 342.26 448.95 343.35 452.05 346.39 454.63 349.77 456.12 352.47 457.44 354.71 457.55 355.23 458.76 356.14 458.99 357.06 460.36 358.44 462.66 360.9 465.36 363.37 465.99 363.54 471.55 367.79 482.39 368.59 483.66 367.73 484 367.04 480.96 361.99 475.68 357.86 477.35 355.74 476.2 353.9 476.03 353.22 473.5 350.29 472.13 348.28 470.46 343.92 469.71 341.46 465.64 337.33 463.4 336.29 463.29 334.46 464.72 332.79 464.32 330.56 463.23 328.72 460.65 322.18 460.54 321.72 459.62 320.29 457.67 314.89 456.35 311.17 456.35 309.62 453.77 301.7 452.33 298.72 451.47 294.47 449.35 290.23 449.35 289.25 446.88 282.94 444.24 277.32 440.86 268.89 440.17 264.18 439.37 261.89 439.48 256.55 438.79 255.18 438.68 254.14 437.99 252.13 437.93 247.26 428.7 213.58 428.07 208.76 426.63 207.67 426.63 206.87 425.35 207.2 403.78 198.55 381.52 196.41 376.01 195.26 372.95 193.73 365.08 185.32 357.68 172.74 356.81 177.21 355.9 177.33 355.95 178.88"/><polygon id="7cecda36-5dcc-49b1-9246-0ac7cdca1869" data-name="polygon41" class="cfc7f736-1f58-40b7-bf1a-2fbb1958cc6d" points="431.74 207.73 435.47 207.79 435.52 207.56 432.08 207.16 429.96 206.24 429.62 205.44 431.34 205.03 431.51 204.69 429.73 204.35 429.73 203.83 431.05 203.6 431.39 202.97 429.67 202.57 429.56 201.59 431.68 201.94 432.31 205.55 433.52 205.44 436.96 207.04 436.33 208.88 438.05 207.56 446.42 211 447.63 209.74 450.5 202.22 450.44 201.48 448.55 198.5 445.62 196.09 444.82 196.77 447.74 200.04 447.63 203.2 444.36 202.17 431.91 196.72 433.57 191.73 438.85 193.56 440 190.87 434.72 188.28 434.15 187.31 440.8 189.66 441.38 187.65 443.79 187.94 444.13 187.65 442.64 186.79 441.66 187.02 441.43 186.56 436.04 184.44 435.35 181 438.97 181.8 439.65 180.25 434.2 178.42 434.89 176.87 436.67 176.93 437.25 175.6 434.55 173.94 435.41 171.88 434.32 171.7 433 173.2 431.85 172.68 429.79 169.01 433.46 166.66 436.21 168.84 435.64 170.21 435.87 170.9 437.36 170.61 444.59 183.24 445.1 181.74 446.31 180.31 449.92 179.91 450.44 181.11 449.18 182.55 447.28 187.42 445.85 189.2 449.24 188.8 451.42 183.06 454.17 183.18 454.51 185.65 455.32 185.76 455.72 197.29 455.09 197.52 455.09 197.98 456.12 198.09 456.63 197.35 455.77 180.54 452.85 179.68 450.55 178.53 447.28 178.19 442.12 169.64 437.25 164.94 436.1 153.69 435.47 152.83 434.84 142.04 431.34 141.7 430.02 140.32 429.06 140.38 428.03 149.75 427.53 151.47 426.23 150.71 423.86 156.52 423.17 156.52 421.99 158.47 422.44 159.39 426.23 159.85 425.85 162.53 425.58 165.09 422.29 168.61 421.33 172.89 421.56 176.03 427.03 175.3 426.04 193.96 426.63 206.87 427.21 206.64 429.33 206.58 431.74 207.73"/><g id="77252044-61c5-43c4-a20f-5d8c55e94a47" data-name="g43"><polygon id="51e6dc20-ace0-436a-9f8d-7edaf468810d" data-name="polygon45" class="cfc7f736-1f58-40b7-bf1a-2fbb1958cc6d" points="370.7 120.65 369.78 120.38 369.09 119.23 369.55 118.35 369.63 117.2 370.7 116.48 370.62 115.67 367.94 115.41 367.33 114.76 367.33 113.5 368.17 113.11 368.1 111.28 367.6 109.67 366.42 107.68 366.68 105.16 367.33 104.16 367.45 103.02 367.87 102.56 368.06 101.52 369.32 99.84 370.24 99.65 370.93 99.73 371.31 99.27 371.31 98.66 370.2 97.24 370.09 96.63 367.33 94.87 366.99 93.65 364.73 92.58 364.2 92.34 363.93 91.81 362.94 91.54 361.21 90.28 361.14 88.71 358.08 85.58 357.96 84.24 357.69 83.74 357.66 81.56 356.85 80.3 356.32 79.88 356.28 78.77 350.7 74.98 349.82 74.41 346.68 72.46 346.64 71.96 344.96 71.65 344.62 69.67 343.7 67.68 342.82 65.34 342.59 63.97 343.31 62.78 344.5 62.51 345.88 61.98 347.52 63.28 347.75 64.12 348.9 64.46 348.9 65.65 351 67.56 351 68.52 352.3 68.94 353.6 71 355.94 72.8 356.2 73.8 358.46 74.75 360.72 76.47 362.82 78.54 363.55 78.58 363.7 80.57 364.66 81.52 364.88 82.4 366.68 82.94 368.17 83.74 367.98 87.53 367.56 88.18 367.45 89.67 370.24 92.23 370.43 94.07 372.23 95.44 373.38 94.6 373.49 93.53 372.92 92.34 373.15 91.62 375.48 91.58 377.09 90.85 377.24 88.83 378.77 89.4 379.92 88.1 380.57 88.1 380.87 89.94 380.41 90.59 380.76 91.12 386.57 91.08 387.79 91.85 387.99 93.15 389.82 93.72 389.9 95.14 390.55 95.48 390.63 97.01 391.27 98.23 391.35 99.8 392.54 104.39 394.49 107.76 394.33 108.33 396.36 110.97 392.61 114.22 396.36 119.39 396.44 120.61 395.37 123.67 394.07 125.39 393.99 127.07 388.9 125.54 381.1 128.45 374.22 121.53 371.31 123.48 370.74 122.9 370.7 120.65"/><polygon id="c565df09-86ac-4a4e-81b3-563f96e70512" data-name="polygon47" class="cfc7f736-1f58-40b7-bf1a-2fbb1958cc6d" points="407.87 93.86 406.21 95.92 406.15 96.67 407.7 97.99 410 99.02 408.73 100.74 407.13 101.31 405.29 102.4 405.18 103.89 403.63 104.58 403.74 105.44 402.6 105.96 402.02 105.85 401.85 103.84 401.27 101.26 401.05 100.05 399.55 99.31 398.58 99.08 397.26 98.04 397.2 96.38 397.66 95.29 396.74 94.2 397.14 93.17 399.67 93.22 401.22 93.57 401.27 92.82 400.3 92.14 402.08 88.64 408.62 91.73 408.05 92.54 407.87 93.86"/><polygon id="1a6d2da6-895c-464e-8c22-8d6f2854130f" data-name="polygon49" class="cfc7f736-1f58-40b7-bf1a-2fbb1958cc6d" points="420.78 76.53 419.81 79.69 419.75 82.9 421.47 85.42 418.77 86.63 416.13 86.57 415.96 84.62 413.32 84.05 413.21 81.75 415.85 81.18 414.58 76.76 411.31 74.92 412.81 73.2 414.64 74.41 415.27 70.91 419.98 71.08 418.89 72.69 420.78 76.53"/><polygon id="f991861a-ce87-4e10-8e81-d70e178ddcfe" data-name="polygon51" class="cfc7f736-1f58-40b7-bf1a-2fbb1958cc6d" points="449.29 71.71 429.44 61.16 432.08 56.05 439.43 57.83 452.62 64.48 449.29 71.71"/></g><polygon id="5b700519-8bc0-4c75-a2e8-f1bce4c95900" data-name="polygon7" class="ce2f9720-c81d-45f3-9086-105b6892400b" points="114.75 161.02 109.17 157.46 109.13 148.93 109.74 147.48 109.74 145.64 110.89 144.95 110.85 144.11 112.95 144.19 122.59 150.46 124.43 154.06 117.39 160.86 114.75 161.02"/><polygon id="737d1d7e-e650-4eb5-b302-3cb907365423" data-name="polygon9" class="873c5d73-9e3d-432c-b170-f56a04131397" points="125.92 139.48 124.69 140.02 122.59 139.14 121.79 139.48 121.25 139.14 122.51 137.76 117.27 133.06 104.39 137.46 110.85 144.11 112.95 144.19 122.59 150.46 123.97 149.81 126.83 140.33 125.92 139.48"/><polyline id="2e48101d-0748-45c7-a744-7540f5930eed" data-name="polyline11" class="873c5d73-9e3d-432c-b170-f56a04131397" points="109.74 145.64 109.74 147.48 109.13 148.93 109.17 157.46 114.75 161.02 117.39 160.86 114.86 164.34 112.65 175.32 110.47 173.18 109.89 171.84 110.24 170.12 110.05 169.47 109.09 170.27 104.81 163.77 102.47 163.96 101.44 163.54 100.56 163.66 99.87 160.98 103.97 161.25 98.65 152.22"/><polyline id="a1ed5d3e-b198-446d-b53c-c6a9aa09cec8" data-name="polyline13" class="ce2f9720-c81d-45f3-9086-105b6892400b" points="112.65 175.32 114.86 164.34 117.39 160.86 124.43 154.06 128.1 158.87 130.39 165.26"/><polygon id="13831d6a-5bfb-44c6-8688-214b337c462d" data-name="polygon15" class="873c5d73-9e3d-432c-b170-f56a04131397" points="127.41 140.82 127.68 141.82 134.29 148.4 135.02 147.75 136.28 148.47 135.86 150.57 136.97 151.26 132.04 164.23 130.39 165.26 128.1 158.87 124.43 154.06 122.59 150.46 123.97 149.81 126.83 140.33 127.41 140.82"/><polygon id="9c511994-aa03-484e-8b35-117795695aae" data-name="polygon17" class="873c5d73-9e3d-432c-b170-f56a04131397" points="100.22 139.22 100.83 141.01 99.11 141.74 92.61 130.73 89.7 132.14 88.78 129.77 77.96 129.62 71.69 131.3 71.49 132.56 73.25 134.86 72.64 135.58 73.14 137.57 72.49 138.87 73.18 139.14 77.58 142.93 82.36 144.72 85.84 145.14 86.03 146.22 83.92 148.78 86.53 152.49 86.98 153.44 89.89 154.51 98.65 152.22 110.89 144.95 110.85 144.11 104.39 137.46 100.22 139.22"/><polygon id="0799cce5-e06a-4e09-97fc-2b4cbf4a2487" data-name="polygon19" class="a256bd34-50ba-4f3a-8d0d-00b4223a21e8" points="109.2 132.1 111.96 130.84 110.77 126.02 106.95 127.4 100.06 120.48 97.16 122.43 96.32 122.69 94.79 124.19 94.63 125.3 93.41 125.98 96.09 129.23 94.75 130.07 94.56 129.62 94.06 129.66 92.61 130.73 99.11 141.74 100.83 141.01 100.22 139.22 110.47 135.35 109.2 132.1"/><polygon id="497b0704-63bb-4cf1-8d89-35fd3bf48e1f" data-name="polygon21" class="a256bd34-50ba-4f3a-8d0d-00b4223a21e8" points="82.09 123.73 82.09 124.38 83.2 125.03 84.04 127.55 84.96 127.93 86.33 126.29 88.21 126.9 88.55 126.44 89.78 127.21 90.81 125.83 93.41 125.98 96.09 129.23 94.75 130.07 94.56 129.62 94.06 129.66 92.61 130.73 89.7 132.14 88.78 129.77 77.96 129.62 71.69 131.3 67.56 124.34 66.25 118.75 72.99 116.77 81.02 122.35 82.09 123.73"/><polygon id="9cca54be-c14e-4f88-940d-4599e38f8452" data-name="polygon23" class="a256bd34-50ba-4f3a-8d0d-00b4223a21e8" points="119.91 124.34 121.21 122.62 122.28 119.56 125.08 119.33 127.68 121.2 128.9 119.56 131.88 121.74 131.73 122.96 133.34 123.96 131.77 125.98 132.65 127.17 131.92 128.39 129.44 136.43 127.37 136.62 126.45 138.53 125.08 137.3 124.85 135.7 124.46 135.74 122.51 137.76 117.27 133.06 110.47 135.35 109.2 132.1 111.96 130.84 110.77 126.02 114.75 124.49 119.84 126.02 119.91 124.34"/><polygon id="be114d5c-a555-48fa-909c-45e90f5bbc62" data-name="polygon25" class="873c5d73-9e3d-432c-b170-f56a04131397" points="121.79 139.48 121.25 139.14 124.46 135.74 124.85 135.7 125.08 137.3 126.45 138.53 127.37 136.62 129.44 136.43 131.66 129.43 132.65 129.88 132.46 131.11 134.06 132.41 134.1 133.4 137.89 136.04 142.09 136.65 143.93 137.72 136.28 145.18 135.02 147.75 134.29 148.4 127.68 141.82 127.41 140.82 125.92 139.48 124.69 140.02 122.59 139.14 121.79 139.48"/><polygon id="8d861211-63c2-4178-a47f-4ea68a703358" data-name="polygon27" class="873c5d73-9e3d-432c-b170-f56a04131397" points="150.85 137.38 152.12 137.27 154.91 139.33 153.88 148.7 153.38 150.42 152.08 149.66 149.71 155.47 149.02 155.47 147.83 157.42 148.29 158.34 152.08 158.8 151.69 161.47 144.54 158.61 143.43 158.76 135.13 156.12 136.97 151.26 135.86 150.57 136.28 148.47 135.02 147.75 136.28 145.18 143.93 137.72 147.34 138.79 149.82 139.03 150.85 137.38"/><polygon id="c6ecaf3e-e853-43cf-9df1-fb0bdfb412d3" data-name="polygon29" class="873c5d73-9e3d-432c-b170-f56a04131397" points="151.69 161.47 151.43 164.04 148.14 167.56 147.18 171.84 147.41 174.98 144.39 175.51 141.68 174.78 134.79 169.16 132.88 169.2 130.39 165.26 132.04 164.23 135.13 156.12 143.43 158.76 144.54 158.61 151.69 161.47"/><polygon id="f23ea563-9d16-4220-88f1-d347aba44344" data-name="polygon31" class="873c5d73-9e3d-432c-b170-f56a04131397" points="141.68 174.78 144.39 175.51 147.41 174.98 152.88 174.25 151.89 192.91 152.48 205.82 151.2 206.15 129.63 197.5 107.37 195.36 112.65 175.32 130.39 165.26 132.88 169.2 134.79 169.16 141.68 174.78"/><polygon id="fe1a4269-d0f3-44f5-a65d-003398709fd6" data-name="polygon33" class="a256bd34-50ba-4f3a-8d0d-00b4223a21e8" points="98.8 192.68 95.05 188.63 90.92 184.27 93.91 178.84 97.04 176.01 97.88 176.62 97.75 178.23 100.27 181.38 106.07 170.12 105.69 169.12 106.14 168.74 106.22 167.06 106.64 166.52 109.09 170.27 110.05 169.47 110.24 170.12 109.89 171.84 110.6 173.29 112.65 175.32 107.37 195.36 101.86 194.21 98.8 192.68"/><polygon id="02d86c0e-2561-4dec-90e1-e1cad58e6b7e" data-name="polygon35" class="873c5d73-9e3d-432c-b170-f56a04131397" points="101.44 163.54 100.56 163.66 99.3 165.43 84.67 166.24 83.52 171.69 90.92 184.27 93.91 178.84 97.04 176.01 97.88 176.62 97.75 178.23 100.27 181.38 106.07 170.12 105.69 169.12 106.14 168.74 106.22 167.06 106.64 166.52 104.81 163.77 102.47 163.96 101.44 163.54"/><polygon id="91064ddc-b563-4828-aa6d-cdacdeb0bf8e" data-name="polygon37" class="a256bd34-50ba-4f3a-8d0d-00b4223a21e8" points="100.56 163.66 99.3 165.43 84.67 166.24 85 163.54 79.98 160.1 84.23 158.15 85.61 155.74 89.36 155.93 89.89 154.51 98.65 152.22 103.97 161.25 99.87 160.98 100.56 163.66"/><polygon id="bf774790-47db-42f4-875a-8cc35c47bafe" data-name="polygon39" class="a256bd34-50ba-4f3a-8d0d-00b4223a21e8" points="81.8 177.82 79.16 178.8 78.59 180.06 73.94 180.75 72.68 179.89 68.32 180.52 68.38 181.09 70.21 182.7 71.47 185.97 70.9 186.37 74.34 191.08 75.38 195.03 78.3 198.65 80.83 197.5 94.54 196.13 95.11 205.13 96.6 205.71 99.24 204.73 100.62 206.16 104.52 206.51 105.9 199.63 111 201.81 116.57 205.94 121.61 207.6 121.73 209.55 127.01 212.42 129.13 214.48 131.08 215.06 132.4 214.14 134.92 214.6 137.05 211.56 140.2 211.04 140.89 216.15 141 227.62 139.34 238.18 141.87 242.08 146.91 246.72 153.17 254.93 154.77 259.52 156.38 261.24 156.9 263.99 158.16 265.83 158.85 268.58 160.11 271.33 159.71 272.37 158.27 272.25 157.35 271.62 156.09 271.16 155.18 270.13 154.03 269.96 149.9 267.09 148.81 267.03 148.06 268.29 148.12 270.88 146.97 273 145.59 272.08 143.99 270.01 142.27 269.96 139.86 273.46 139.17 273.86 138.82 274.66 135.33 276.33 134.81 276.44 133.09 278.16 132.11 280.06 131.08 280.17 129.25 279.25 127.75 278.79 126.78 278.33 126.09 278.56 125.23 279.54 123.56 280.69 121.9 280.74 119.32 282.24 117.83 282.64 116.74 283.5 112.61 287.86 111.75 290.21 111.75 297.72 111.23 298.3 110.2 298.53 109.17 300.76 109.05 301.86 108.13 303.52 105.72 306.27 104.86 307.76 103.49 309.6 103.54 311.95 103.66 312.47 103.6 316.43 103.26 317.29 103.54 319.75 104 320.96 105.84 323.2 106.01 323.65 107.39 324.74 107.73 325.78 108.65 327.73 110.2 329.39 111.29 329.56 113.24 328.24 115.08 328.13 117.25 330.37 119.15 332.66 119.84 333.35 119.78 334.21 119.03 336.5 118.4 338.8 121.1 338.57 123.8 337.82 126.95 337.48 131.54 341.73 132.28 341.61 133.49 339.89 134.75 338.74 135.56 337.42 137.68 335.42 139.74 335.42 140.72 334.44 142.73 333.81 144.68 332.14 145.14 331.28 146.69 330.31 148.46 330.14 150.76 328.36 155.92 328.01 158.85 329.51 161.49 331.46 163.26 330.31 164.24 329.05 166.53 328.7 168.83 331.23 169.69 332.6 170.55 333.64 170.49 337.54 170.15 339.55 171.12 341.38 173.13 341.21 174.79 342.3 177.89 345.34 180.47 348.72 181.97 351.42 183.28 353.66 183.4 354.17 184.6 355.09 184.83 356.01 186.21 357.39 188.51 359.85 191.2 362.32 191.83 362.49 197.4 366.74 208.24 367.54 209.5 366.68 209.85 365.99 206.81 360.94 201.53 356.81 203.19 354.69 202.04 352.86 201.87 352.17 199.35 349.24 197.97 347.23 196.31 342.87 195.56 340.41 191.49 336.27 189.25 335.24 189.14 333.41 190.57 331.74 190.17 329.51 189.08 327.67 186.5 321.13 186.38 320.67 185.47 319.24 183.51 313.85 182.19 310.12 182.19 308.57 179.61 300.65 178.18 297.67 177.32 293.42 175.2 289.18 175.2 288.2 172.73 281.89 170.09 276.27 166.71 267.83 166.02 263.13 165.22 260.84 165.33 255.5 164.64 254.12 164.53 253.09 163.84 251.08 163.78 246.21 154.54 212.53 153.91 207.71 152.48 206.62 152.48 205.82 151.2 206.15 129.63 197.5 107.37 195.36 101.86 194.21 98.8 192.68 90.92 184.27 83.52 171.69 82.66 176.16 81.74 176.28 81.8 177.82"/><polygon id="a207cd94-f593-426d-942d-a10985ce402b" data-name="polygon41" class="873c5d73-9e3d-432c-b170-f56a04131397" points="157.59 206.68 161.31 206.74 161.37 206.51 157.93 206.11 155.81 205.19 155.46 204.39 157.18 203.99 157.35 203.64 155.58 203.3 155.58 202.78 156.9 202.55 157.24 201.92 155.52 201.52 155.41 200.54 157.53 200.89 158.16 204.5 159.36 204.39 162.81 205.99 162.17 207.83 163.9 206.51 172.27 209.95 173.48 208.69 176.34 201.17 176.29 200.43 174.39 197.44 171.47 195.03 170.66 195.72 173.59 198.99 173.48 202.15 170.21 201.12 157.76 195.67 159.42 190.68 164.7 192.51 165.85 189.81 160.57 187.23 159.99 186.26 166.65 188.61 167.22 186.6 169.63 186.89 169.98 186.6 168.49 185.74 167.51 185.97 167.28 185.51 161.89 183.39 161.2 179.95 164.81 180.75 165.5 179.2 160.05 177.37 160.74 175.82 162.52 175.87 163.09 174.56 160.4 172.89 161.26 170.83 160.17 170.65 158.85 172.15 157.7 171.63 155.63 167.96 159.31 165.61 162.06 167.79 161.49 169.16 161.72 169.85 163.21 169.56 170.44 182.19 170.95 180.69 172.16 179.26 175.77 178.86 176.29 180.06 175.02 181.5 173.13 186.37 171.7 188.15 175.08 187.75 177.26 182.01 180.01 182.13 180.36 184.59 181.16 184.71 181.56 196.24 180.93 196.47 180.93 196.93 181.97 197.04 182.48 196.3 181.62 179.49 178.7 178.63 176.4 177.48 173.13 177.14 167.97 168.59 163.09 163.88 161.94 152.64 161.31 151.78 160.68 141 157.18 140.65 155.86 139.27 154.91 139.33 153.88 148.7 153.38 150.42 152.08 149.66 149.71 155.47 149.02 155.47 147.83 157.42 148.29 158.34 152.08 158.8 151.69 161.47 151.43 164.04 148.14 167.56 147.18 171.84 147.41 174.98 152.88 174.25 151.89 192.91 152.48 205.82 153.05 205.59 155.18 205.53 157.59 206.68"/><g id="73c6b58e-f357-497f-89aa-ec3b7c8391f6" data-name="g43"><polygon id="6c1f59de-345a-4d39-87c6-6518b436e3ab" data-name="polygon45" class="a256bd34-50ba-4f3a-8d0d-00b4223a21e8" points="96.55 119.6 95.63 119.33 94.94 118.18 95.4 117.3 95.47 116.15 96.55 115.43 96.47 114.63 93.79 114.36 93.18 113.71 93.18 112.44 94.02 112.06 93.94 110.23 93.45 108.62 92.26 106.63 92.53 104.11 93.18 103.11 93.3 101.97 93.72 101.51 93.91 100.47 95.17 98.79 96.09 98.6 96.78 98.68 97.16 98.22 97.16 97.61 96.05 96.19 95.93 95.58 93.18 93.82 92.84 92.59 90.58 91.52 90.04 91.3 89.78 90.76 88.78 90.49 87.06 89.23 86.98 87.66 83.92 84.53 83.81 83.19 83.54 82.69 83.5 80.51 82.7 79.25 82.17 78.83 82.13 77.72 76.54 73.93 75.66 73.36 72.53 71.41 72.49 70.91 70.81 70.6 70.46 68.61 69.54 66.63 68.67 64.29 68.44 62.92 69.16 61.73 70.35 61.46 71.72 60.93 73.37 62.23 73.6 63.07 74.75 63.41 74.75 64.6 76.85 66.51 76.85 67.47 78.15 67.89 79.45 69.95 81.78 71.75 82.05 72.75 84.31 73.7 86.56 75.42 88.67 77.49 89.39 77.53 89.55 79.52 90.5 80.47 90.73 81.35 92.53 81.89 94.02 82.69 93.83 86.48 93.41 87.13 93.3 88.62 96.09 91.18 96.28 93.02 98.08 94.39 99.22 93.55 99.34 92.48 98.76 91.3 98.99 90.57 101.33 90.53 102.93 89.8 103.08 87.78 104.61 88.35 105.76 87.05 106.41 87.05 106.72 88.89 106.26 89.54 106.6 90.07 112.42 90.03 113.64 90.8 113.83 92.1 115.67 92.67 115.74 94.09 116.39 94.43 116.47 95.96 117.12 97.19 117.2 98.75 118.38 103.34 120.33 106.71 120.18 107.28 122.21 109.92 118.46 113.17 122.21 118.33 122.28 119.56 121.21 122.62 119.91 124.34 119.84 126.02 114.75 124.49 106.95 127.4 100.06 120.48 97.16 122.43 96.58 121.85 96.55 119.6"/><polygon id="93718003-f605-44a1-85d4-e2372098333f" data-name="polygon47" class="a256bd34-50ba-4f3a-8d0d-00b4223a21e8" points="133.72 92.81 132.06 94.87 132 95.62 133.55 96.94 135.84 97.97 134.58 99.69 132.97 100.26 131.14 101.35 131.02 102.84 129.47 103.53 129.59 104.39 128.44 104.91 127.87 104.8 127.7 102.79 127.12 100.21 126.89 99 125.4 98.25 124.43 98.03 123.11 96.99 123.05 95.33 123.51 94.24 122.59 93.15 122.99 92.12 125.52 92.17 127.06 92.52 127.12 91.77 126.15 91.08 127.92 87.58 134.47 90.68 133.89 91.49 133.72 92.81"/><polygon id="6e57dfcf-9f2a-4fb3-b181-2051119f6a89" data-name="polygon49" class="a256bd34-50ba-4f3a-8d0d-00b4223a21e8" points="146.63 75.48 145.65 78.64 145.59 81.85 147.32 84.37 144.62 85.58 141.98 85.52 141.81 83.57 139.17 83 139.06 80.7 141.69 80.13 140.43 75.71 137.16 73.87 138.65 72.15 140.49 73.36 141.12 69.86 145.82 70.03 144.73 71.64 146.63 75.48"/><polygon id="70bec262-0f70-4ca4-a8aa-ffff9dc1e640" data-name="polygon51" class="a256bd34-50ba-4f3a-8d0d-00b4223a21e8" points="175.14 70.66 155.29 60.11 157.93 55 165.27 56.78 178.47 63.43 175.14 70.66"/></g></g><g id="7edcb3d2-6d9f-4ac6-8ae4-a3b6177e5266" data-name="titulos"><text class="b8fc1947-a122-4396-a7ef-e936f3c19b4e" transform="translate(262.41 51.85)"><tspan class="48dda030-c2c0-4b2a-9f04-0ed37be543b2">V</tspan><tspan x="6.52" y="0">ARIACIÓN INTERANUA</tspan><tspan class="4f274efe-7777-4741-af64-f480ac90505f" x="126.31" y="0">L</tspan><tspan x="132.02" y="0" xml:space="preserve"> DE PRECIO (%)</tspan></text><line class="08bd0884-457c-400e-9548-49f0ab7fb666" x1="263.5" y1="55.5" x2="493.5" y2="55.5"/><line class="08bd0884-457c-400e-9548-49f0ab7fb666" x1="9" y1="55.5" x2="240.5" y2="55.5"/><text class="63df765a-01da-4cc8-9e94-ee78931ae877" transform="translate(7 21.37)">Evolución del precio de la vivienda en <tspan class="d468a53a-b4fe-4a54-b52f-6494188058dc" x="385.12" y="0">V</tspan><tspan class="5195a716-523b-49a0-8528-d248de1e7a01" x="397.96" y="0">alencia</tspan></text><line class="c0aa9a12-56ef-4297-b389-975eb572525b" x1="53" y1="113.5" x2="104.5" y2="113.5"/><line class="c0aa9a12-56ef-4297-b389-975eb572525b" x1="136" y1="120.5" x2="155.5" y2="120.5"/><line class="c0aa9a12-56ef-4297-b389-975eb572525b" x1="104.5" y1="114" x2="104.5" y2="130"/><line class="c0aa9a12-56ef-4297-b389-975eb572525b" x1="136.5" y1="121" x2="136.5" y2="137"/><line class="c0aa9a12-56ef-4297-b389-975eb572525b" x1="321" y1="120.5" x2="373" y2="120.5"/><line class="c0aa9a12-56ef-4297-b389-975eb572525b" x1="372.75" y1="120.5" x2="372.75" y2="136.5"/></g><g id="adf1c12b-19a7-413a-8e82-1bc029c8a25a" data-name="Barrios"><line class="08bd0884-457c-400e-9548-49f0ab7fb666" x1="10" y1="374.5" x2="492.5" y2="374.5"/><text class="da9db9bf-7e1f-4465-8ceb-888a71871eb8" transform="translate(99.67 388.59)">6<tspan class="957841cf-11f1-4f88-8611-9eecc1b52743" x="6.67" y="0">. El Pla del Real</tspan><tspan x="0" y="14.4">7</tspan><tspan class="957841cf-11f1-4f88-8611-9eecc1b52743" x="6.67" y="14.4">. </tspan><tspan class="0b1d619b-b63a-438b-8d1b-0cef3692dc66" x="13.34" y="14.4">L</tspan><tspan class="957841cf-11f1-4f88-8611-9eecc1b52743" x="19.35" y="14.4">’Olivereta</tspan><tspan x="0" y="28.8">8</tspan><tspan class="957841cf-11f1-4f88-8611-9eecc1b52743" x="6.67" y="28.8">. Patraix</tspan><tspan x="0" y="43.2">9</tspan><tspan class="957841cf-11f1-4f88-8611-9eecc1b52743" x="6.67" y="43.2">. Jesús</tspan><tspan x="0" y="57.6">10</tspan><tspan class="957841cf-11f1-4f88-8611-9eecc1b52743" x="13.35" y="57.6">. Quatre Carreres</tspan></text><text class="da9db9bf-7e1f-4465-8ceb-888a71871eb8" transform="translate(365 388.59)">16<tspan class="957841cf-11f1-4f88-8611-9eecc1b52743" x="13.35" y="0">. Belicalap</tspan><tspan x="0" y="14.4">17</tspan><tspan class="957841cf-11f1-4f88-8611-9eecc1b52743" x="13.35" y="14.4">. Poblados del Norte</tspan><tspan x="0" y="28.8">18</tspan><tspan class="957841cf-11f1-4f88-8611-9eecc1b52743" x="13.35" y="28.8">. Poblados del Oeste</tspan><tspan x="0" y="43.2">19</tspan><tspan class="957841cf-11f1-4f88-8611-9eecc1b52743" x="13.35" y="43.2">. Poblados del Sur</tspan></text><text class="da9db9bf-7e1f-4465-8ceb-888a71871eb8" transform="translate(243.67 388.59)"><tspan class="48dda030-c2c0-4b2a-9f04-0ed37be543b2">1</tspan><tspan x="5.78" y="0">1</tspan><tspan class="957841cf-11f1-4f88-8611-9eecc1b52743" x="12.46" y="0">. Poblats Marítims</tspan><tspan x="0" y="14.4">12</tspan><tspan class="957841cf-11f1-4f88-8611-9eecc1b52743" x="13.35" y="14.4">. Camins al Grau</tspan><tspan x="0" y="28.8">13</tspan><tspan class="957841cf-11f1-4f88-8611-9eecc1b52743" x="13.35" y="28.8">.</tspan><tspan class="0b1d619b-b63a-438b-8d1b-0cef3692dc66" x="16.68" y="28.8"> </tspan><tspan class="957841cf-11f1-4f88-8611-9eecc1b52743" x="19.35" y="28.8">Algirós</tspan><tspan x="0" y="43.2">14</tspan><tspan class="957841cf-11f1-4f88-8611-9eecc1b52743" x="13.35" y="43.2">. Benimaclet</tspan><tspan x="0" y="57.6">15</tspan><tspan class="957841cf-11f1-4f88-8611-9eecc1b52743" x="13.35" y="57.6">. Rascanya</tspan></text><text class="da9db9bf-7e1f-4465-8ceb-888a71871eb8" transform="translate(8.67 389.59)">1<tspan class="957841cf-11f1-4f88-8611-9eecc1b52743" x="6.67" y="0">. Ciutat </tspan><tspan class="0b1d619b-b63a-438b-8d1b-0cef3692dc66" x="48.02" y="0">V</tspan><tspan class="957841cf-11f1-4f88-8611-9eecc1b52743" x="55.37" y="0">ella</tspan><tspan x="0" y="14.4">2</tspan><tspan class="957841cf-11f1-4f88-8611-9eecc1b52743" x="6.67" y="14.4">. </tspan><tspan class="0b1d619b-b63a-438b-8d1b-0cef3692dc66" x="13.34" y="14.4">L</tspan><tspan class="957841cf-11f1-4f88-8611-9eecc1b52743" x="19.35" y="14.4">’Eixample</tspan><tspan x="0" y="28.8">3</tspan><tspan class="957841cf-11f1-4f88-8611-9eecc1b52743" x="6.67" y="28.8">. Extramurs</tspan><tspan x="0" y="43.2">4</tspan><tspan class="957841cf-11f1-4f88-8611-9eecc1b52743" x="6.67" y="43.2">. Campanar</tspan><tspan x="0" y="57.6">5</tspan><tspan class="957841cf-11f1-4f88-8611-9eecc1b52743" x="6.67" y="57.6">. La Saïdia</tspan></text><text class="b8fc1947-a122-4396-a7ef-e936f3c19b4e" transform="translate(11.41 370.85)">DISTRI<tspan class="6dee1cab-97b7-4b56-882b-886f8a13d7e6" x="36.06" y="0">T</tspan><tspan x="42.58" y="0">OS DE </tspan><tspan class="48dda030-c2c0-4b2a-9f04-0ed37be543b2" x="79.86" y="0">V</tspan><tspan x="86.38" y="0">ALENCI</tspan><tspan class="f99c8b57-8354-49ec-bc01-f6d3a73ecc87" x="126.12" y="0">A</tspan></text></g><g id="7204509e-9325-4649-8112-29991f236c40" data-name="fuente"><text class="db1243f7-fe40-4ac5-9cd2-1566372494c0" transform="translate(396.67 465.59)">L<tspan class="f99c8b57-8354-49ec-bc01-f6d3a73ecc87" x="6.67" y="0">A</tspan><tspan x="14.02" y="0"> </tspan><tspan class="48dda030-c2c0-4b2a-9f04-0ed37be543b2" x="17.35" y="0">V</tspan><tspan x="24.46" y="0">ANGUARDI</tspan><tspan class="f99c8b57-8354-49ec-bc01-f6d3a73ecc87" x="87.8" y="0">A</tspan></text><text class="db1243f7-fe40-4ac5-9cd2-1566372494c0" transform="translate(6.67 465.59)">Fuente:<tspan class="6dee1cab-97b7-4b56-882b-886f8a13d7e6" x="40.69" y="0"> </tspan><tspan x="43.81" y="0">TINS</tspan><tspan class="f99c8b57-8354-49ec-bc01-f6d3a73ecc87" x="71.14" y="0">A</tspan></text></g><g id="b4291427-2564-44f6-ae80-5851861e0733" data-name="numeros"><text class="db1243f7-fe40-4ac5-9cd2-1566372494c0" transform="translate(100 189.58)">9</text><text class="db1243f7-fe40-4ac5-9cd2-1566372494c0" transform="translate(112 144.58)">5</text><text class="db1243f7-fe40-4ac5-9cd2-1566372494c0" transform="translate(107 167.58)">3</text><text class="db1243f7-fe40-4ac5-9cd2-1566372494c0" transform="translate(92 163.58)">7</text><text class="db1243f7-fe40-4ac5-9cd2-1566372494c0" transform="translate(160 162.58)"><tspan class="48dda030-c2c0-4b2a-9f04-0ed37be543b2">1</tspan><tspan x="5.78" y="0">1</tspan></text><text class="db1243f7-fe40-4ac5-9cd2-1566372494c0" transform="translate(39 117.58)">16</text><text class="db1243f7-fe40-4ac5-9cd2-1566372494c0" transform="translate(137 305.58)">19</text><text class="db1243f7-fe40-4ac5-9cd2-1566372494c0" transform="translate(112 156.58)">1</text><text class="db1243f7-fe40-4ac5-9cd2-1566372494c0" transform="translate(120 166.58)">2</text><text class="db1243f7-fe40-4ac5-9cd2-1566372494c0" transform="translate(72 130.58)">18</text><text class="db1243f7-fe40-4ac5-9cd2-1566372494c0" transform="translate(102 110.58)">17</text><text class="db1243f7-fe40-4ac5-9cd2-1566372494c0" transform="translate(138 150.58)">13</text><text class="db1243f7-fe40-4ac5-9cd2-1566372494c0" transform="translate(159 124.58)">14</text><text class="db1243f7-fe40-4ac5-9cd2-1566372494c0" transform="translate(117 132.58)">15</text><text class="db1243f7-fe40-4ac5-9cd2-1566372494c0" transform="translate(133 169.58)">12</text><text class="db1243f7-fe40-4ac5-9cd2-1566372494c0" transform="translate(124 188.58)">10</text><text class="db1243f7-fe40-4ac5-9cd2-1566372494c0" transform="translate(126 155.58)">6</text><text class="db1243f7-fe40-4ac5-9cd2-1566372494c0" transform="translate(95 148.58)">4</text><text class="db1243f7-fe40-4ac5-9cd2-1566372494c0" transform="translate(89 175.58)">8</text><text class="89e3199f-cc21-46bb-8b6c-3048dd889cf8" transform="translate(374 191.58)">9</text><text class="89e3199f-cc21-46bb-8b6c-3048dd889cf8" transform="translate(387 145.58)">5</text><text class="89e3199f-cc21-46bb-8b6c-3048dd889cf8" transform="translate(381 168.58)">3</text><text class="89e3199f-cc21-46bb-8b6c-3048dd889cf8" transform="translate(365 165.58)">7</text><text class="db1243f7-fe40-4ac5-9cd2-1566372494c0" transform="translate(438 163.58)"><tspan class="48dda030-c2c0-4b2a-9f04-0ed37be543b2">1</tspan><tspan x="5.78" y="0">1</tspan></text><text class="db1243f7-fe40-4ac5-9cd2-1566372494c0" transform="translate(311 118.58)">16</text><text class="db1243f7-fe40-4ac5-9cd2-1566372494c0" transform="translate(409 306.58)">19</text><text class="89e3199f-cc21-46bb-8b6c-3048dd889cf8" transform="translate(386 157.58)">1</text><text class="89e3199f-cc21-46bb-8b6c-3048dd889cf8" transform="translate(392 167.58)">2</text><text class="db1243f7-fe40-4ac5-9cd2-1566372494c0" transform="translate(340 130.58)">18</text><text class="89e3199f-cc21-46bb-8b6c-3048dd889cf8" transform="translate(374 111.58)">17</text><text class="89e3199f-cc21-46bb-8b6c-3048dd889cf8" transform="translate(412 151.58)">13</text><text class="db1243f7-fe40-4ac5-9cd2-1566372494c0" transform="translate(430 126.58)">14</text><text class="db1243f7-fe40-4ac5-9cd2-1566372494c0" transform="translate(390 134.58)">15</text><text class="89e3199f-cc21-46bb-8b6c-3048dd889cf8" transform="translate(407 170.58)">12</text><text class="89e3199f-cc21-46bb-8b6c-3048dd889cf8" transform="translate(396 189.58)">10</text><text class="89e3199f-cc21-46bb-8b6c-3048dd889cf8" transform="translate(400 156.58)">6</text><text class="89e3199f-cc21-46bb-8b6c-3048dd889cf8" transform="translate(364 149.58)">4</text><text class="89e3199f-cc21-46bb-8b6c-3048dd889cf8" transform="translate(362 177.58)">8</text></g><g id="bec4d2a4-a574-4635-a528-1d6abeb6408d" data-name="Leyenda"><rect class="a6662ed0-f970-431e-914c-072e9af2e689" x="8.75" y="338.5" width="21.25" height="14"/><rect class="5e4e9962-ce40-4495-91f9-76c5ae518649" x="8.75" y="325.5" width="21.25" height="14"/><rect class="b07d1d2f-d55c-4630-a0e8-10431caf5dae" x="8.75" y="312.5" width="21.25" height="14"/><rect class="469faa83-39ae-45f7-b9cb-1bd00abefb29" x="8.75" y="298.5" width="21.25" height="14"/><rect class="1e0595ec-e064-4b34-b84c-7c4e26110f27" x="8.75" y="284.5" width="21.25" height="14"/><rect class="a128c771-bb06-4d8e-9734-97f7f3a2022f" x="8.75" y="270.5" width="21.25" height="14"/><text class="c85d46ca-cf62-4605-bf0b-6c74a6243917" transform="translate(35.41 280.59)">0 - 1.000</text><text class="b8fc1947-a122-4396-a7ef-e936f3c19b4e" transform="translate(10.41 51.85)">PRECIO MEDIO (€/m<tspan class="c5829b98-b340-4501-8dc2-fb7eab99cbc9" x="106.34" y="-4">2</tspan><tspan x="110.24" y="0" xml:space="preserve">)     </tspan></text><text class="c85d46ca-cf62-4605-bf0b-6c74a6243917" transform="translate(35.41 294.59)">1.000 - 2.000</text><text class="c85d46ca-cf62-4605-bf0b-6c74a6243917" transform="translate(35.41 308.59)">2.000 - 3.000</text><text class="c85d46ca-cf62-4605-bf0b-6c74a6243917" transform="translate(35.41 322.59)">3.000 - 4.000</text><text class="c85d46ca-cf62-4605-bf0b-6c74a6243917" transform="translate(35.41 335.59)">4.000 - 5.000</text><text class="c85d46ca-cf62-4605-bf0b-6c74a6243917" transform="translate(35.41 349.59)">5.000 - 6.000</text><rect class="9e8d77a1-d24a-4c17-83e2-e47f325c99aa" x="262.75" y="342.5" width="21.25" height="14"/><rect class="1e6b2f0d-ccb8-4cb2-af89-5e451860da7f" x="262.75" y="329.5" width="21.25" height="14"/><rect class="68f00ef4-fb9f-45fb-81d7-c4c29fab246c" x="262.75" y="316.5" width="21.25" height="14"/><rect class="8aa8893a-3190-4c09-a7cd-42b0e6be62cd" x="262.75" y="302.5" width="21.25" height="14"/><rect class="d3bb7831-e37d-40da-b41d-f9bf897ca293" x="262.75" y="288.5" width="21.25" height="14"/><rect class="f6519068-dd47-446d-bb84-be639f7e3777" x="262.75" y="274.5" width="21.25" height="14"/><text class="c85d46ca-cf62-4605-bf0b-6c74a6243917" transform="translate(289.41 284.59)">Menos de -10%</text><text class="c85d46ca-cf62-4605-bf0b-6c74a6243917" transform="translate(289.41 298.59)">-10% a -5%</text><text class="c85d46ca-cf62-4605-bf0b-6c74a6243917" transform="translate(289.41 312.59)">-5% a 0%</text><text class="c85d46ca-cf62-4605-bf0b-6c74a6243917" transform="translate(289.41 326.59)">0% a 5%</text><text class="c85d46ca-cf62-4605-bf0b-6c74a6243917" transform="translate(289.41 339.59)">5% a 10%</text><text class="c85d46ca-cf62-4605-bf0b-6c74a6243917" transform="translate(289.41 353.59)">Más de 10%</text><polyline class="c0aa9a12-56ef-4297-b389-975eb572525b" points="410.5 140 410.5 124 430.5 124"/></g></svg>