<svg xmlns="http://www.w3.org/2000/svg" viewBox="0 0 500 487"><defs><style>.f64947f8-21c9-4542-9d9c-b4d172b26398{fill:#15acb1;}.\30 21f617f-aa89-41a9-a89a-505de145398a,.\30 30716f9-6f9b-4183-918c-330b7aeb8dfa,.\31 41eec2b-1026-4848-9e38-d717b86feb31,.\33 61380e2-3a6a-410d-b16f-0e1fc6e79ed6,.\33 fe8754d-3daa-4bcd-9da6-3c035e26dd7f,.\34 bcba2c1-9319-402f-801f-bca405a03c09,.\36 ea79c59-8f3a-41cb-80b7-c82d657a2e1f,.\37 930d7bf-aaf5-45b0-843f-afeb5187c4b3,.\38 07e56e0-36b4-4404-b394-628714a804b9,.\39 3a8e746-c338-4d70-ae52-1e43c67cb0a5,.b45d8185-83c9-42ae-b9a3-407216b0bd4e,.e1eea309-287b-49f9-ba07-b3f21f62ac7e,.ed3da77a-f28e-4e06-9e24-9bbb72c864f7,.ed591fb1-10c8-4b38-88b3-46e65428a6cc,.f64947f8-21c9-4542-9d9c-b4d172b26398{stroke:#fff;}.\30 21f617f-aa89-41a9-a89a-505de145398a,.\30 30716f9-6f9b-4183-918c-330b7aeb8dfa,.\31 41eec2b-1026-4848-9e38-d717b86feb31,.\31 d740890-067e-424d-9f8d-b96a0626e252,.\33 61380e2-3a6a-410d-b16f-0e1fc6e79ed6,.\33 fe8754d-3daa-4bcd-9da6-3c035e26dd7f,.\34 bcba2c1-9319-402f-801f-bca405a03c09,.\36 ea79c59-8f3a-41cb-80b7-c82d657a2e1f,.\37 930d7bf-aaf5-45b0-843f-afeb5187c4b3,.\38 07e56e0-36b4-4404-b394-628714a804b9,.\39 3a8e746-c338-4d70-ae52-1e43c67cb0a5,.b45d8185-83c9-42ae-b9a3-407216b0bd4e,.e1eea309-287b-49f9-ba07-b3f21f62ac7e,.ed3da77a-f28e-4e06-9e24-9bbb72c864f7,.ed591fb1-10c8-4b38-88b3-46e65428a6cc,.f63879cf-ac4d-4fe2-823a-987637ce2fe8,.f64947f8-21c9-4542-9d9c-b4d172b26398{stroke-miterlimit:10;}.\39 3a8e746-c338-4d70-ae52-1e43c67cb0a5{fill:#159094;}.\30 30716f9-6f9b-4183-918c-330b7aeb8dfa{fill:#136361;}.\38 07e56e0-36b4-4404-b394-628714a804b9{fill:#c9f3f4;}.\33 fe8754d-3daa-4bcd-9da6-3c035e26dd7f,.\36 ea79c59-8f3a-41cb-80b7-c82d657a2e1f{fill:#fecb41;}.\31 d740890-067e-424d-9f8d-b96a0626e252,.\33 fe8754d-3daa-4bcd-9da6-3c035e26dd7f,.ed3da77a-f28e-4e06-9e24-9bbb72c864f7,.ed591fb1-10c8-4b38-88b3-46e65428a6cc{stroke-width:0.5px;}.\31 41eec2b-1026-4848-9e38-d717b86feb31,.ed591fb1-10c8-4b38-88b3-46e65428a6cc{fill:#f9f077;}.\37 930d7bf-aaf5-45b0-843f-afeb5187c4b3,.ed3da77a-f28e-4e06-9e24-9bbb72c864f7{fill:#fff7c0;}.\31 d740890-067e-424d-9f8d-b96a0626e252,.f63879cf-ac4d-4fe2-823a-987637ce2fe8{fill:none;}.\31 d740890-067e-424d-9f8d-b96a0626e252{stroke:#323232;}.\35 427f24d-79bc-4232-9b0c-402ba45b94be{font-size:11px;}.\30 d906434-9323-430c-9046-2db41afb8587,.\31 13908e0-0284-412e-ae6a-852e5e0099c3,.\35 427f24d-79bc-4232-9b0c-402ba45b94be,.\35 a6992d4-6735-48fb-a2cd-4d655f2802fc,.aca08c91-e02f-40d8-ba21-a331bbfcf312{fill:#757575;}.\30 d906434-9323-430c-9046-2db41afb8587,.\35 427f24d-79bc-4232-9b0c-402ba45b94be,.aca08c91-e02f-40d8-ba21-a331bbfcf312,.eec1262b-8dec-47b9-bfd8-2d9fd2f4d8e4{font-family:ArialMT, Arial;}.cd5f1f64-e485-46c7-a211-ed85cbce04d8{letter-spacing:-0.07em;}.d50c6e70-7577-4649-8612-ca92959882b7{letter-spacing:-0.04em;}.f63879cf-ac4d-4fe2-823a-987637ce2fe8{stroke:#757575;}.f083da22-a14c-47ee-b277-49f878b03af8{font-size:21px;font-family:Arial-BoldMT, Arial;font-weight:700;}.eec1262b-8dec-47b9-bfd8-2d9fd2f4d8e4,.f083da22-a14c-47ee-b277-49f878b03af8{fill:#323232;}.a043767f-f0cd-4b5b-a317-59bcdb3643a7{letter-spacing:-0.06em;}.\39 42fc78c-37c7-435d-ab63-bcb94c94aee3{letter-spacing:0em;}.\30 d906434-9323-430c-9046-2db41afb8587,.eec1262b-8dec-47b9-bfd8-2d9fd2f4d8e4{font-size:12px;}.\35 a6992d4-6735-48fb-a2cd-4d655f2802fc,.\39 4fc3444-f7db-4192-af58-d8fae2907cca{letter-spacing:-0.06em;}.\33 b20057d-42d2-437b-9143-3944a0de5ae0{letter-spacing:-0.02em;}.\33 61380e2-3a6a-410d-b16f-0e1fc6e79ed6{fill:#af5b1c;}.\34 bcba2c1-9319-402f-801f-bca405a03c09{fill:#d57928;}.e1eea309-287b-49f9-ba07-b3f21f62ac7e{fill:#f49e20;}.aca08c91-e02f-40d8-ba21-a331bbfcf312{font-size:10px;}.\31 a2fd0c9-26eb-4614-bf59-8f5dc7719c9a{font-size:7px;}.b45d8185-83c9-42ae-b9a3-407216b0bd4e{fill:#89d2d8;}.\30 21f617f-aa89-41a9-a89a-505de145398a{fill:#e3ffff;}</style></defs><title>VALENCIA</title><g id="8232383d-2bc6-41bd-9e67-c451f4e19c6d" data-name="Capa 1"><polygon id="5feff1f3-666d-4d72-a33f-c88127aaa1fb" data-name="polygon7" class="f64947f8-21c9-4542-9d9c-b4d172b26398" points="384.47 165.22 379.15 161.83 379.11 153.71 379.7 152.33 379.7 150.58 380.79 149.93 380.75 149.13 382.75 149.2 391.93 155.17 393.68 158.59 386.98 165.07 384.47 165.22"/><polygon id="0bac9193-85bb-4af7-b45e-260b411eb4b1" data-name="polygon9" class="93a8e746-c338-4d70-ae52-1e43c67cb0a5" points="395.1 144.72 393.93 145.23 391.93 144.39 391.17 144.72 390.65 144.39 391.86 143.08 386.87 138.6 374.6 142.79 380.75 149.13 382.75 149.2 391.93 155.17 393.24 154.55 395.97 145.52 395.1 144.72"/><polyline id="df8f598f-177e-4c72-a26d-bb4106fb5f69" data-name="polyline11" class="f64947f8-21c9-4542-9d9c-b4d172b26398" points="379.7 150.58 379.7 152.33 379.11 153.71 379.15 161.83 384.47 165.22 386.98 165.07 384.57 168.39 382.46 178.84 380.39 176.8 379.84 175.52 380.17 173.88 379.99 173.27 379.08 174.03 375 167.84 372.78 168.02 371.8 167.62 370.96 167.73 370.3 165.18 374.2 165.44 369.14 156.84"/><polyline id="2e3876c7-17e9-4fa5-af69-1da4fc204be5" data-name="polyline13" class="93a8e746-c338-4d70-ae52-1e43c67cb0a5" points="382.46 178.84 384.57 168.39 386.98 165.07 393.68 158.59 397.17 163.18 399.36 169.26"/><polygon id="9c9b9416-1006-4964-ad09-acd38c539c8a" data-name="polygon15" class="93a8e746-c338-4d70-ae52-1e43c67cb0a5" points="396.52 145.99 396.77 146.94 403.07 153.2 403.76 152.58 404.96 153.28 404.56 155.28 405.62 155.93 400.92 168.28 399.36 169.26 397.17 163.18 393.68 158.59 391.93 155.17 393.24 154.55 395.97 145.52 396.52 145.99"/><polygon id="38140f2e-6238-4885-8ae6-a0c2a7106e53" data-name="polygon17" class="030716f9-6f9b-4183-918c-330b7aeb8dfa" points="370.63 144.47 371.21 146.18 369.57 146.87 363.38 136.38 360.62 137.73 359.74 135.47 349.44 135.33 343.47 136.93 343.29 138.13 344.96 140.31 344.38 141.01 344.85 142.9 344.23 144.14 344.89 144.39 349.07 148 353.63 149.71 356.94 150.11 357.12 151.13 355.12 153.57 357.6 157.1 358.03 158.01 360.8 159.03 369.14 156.84 380.79 149.93 380.75 149.13 374.6 142.79 370.63 144.47"/><polygon id="21326685-d639-43cd-9b18-c708e8bd75b4" data-name="polygon19" class="f64947f8-21c9-4542-9d9c-b4d172b26398" points="379.19 137.69 381.81 136.49 380.68 131.9 377.04 133.21 370.48 126.62 367.72 128.48 366.92 128.74 365.46 130.16 365.31 131.21 364.15 131.87 366.7 134.96 365.42 135.76 365.24 135.33 364.77 135.36 363.38 136.38 369.57 146.87 371.21 146.18 370.63 144.47 380.39 140.79 379.19 137.69"/><polygon id="e5eeaeca-7f27-4376-9d42-061a3c208673" data-name="polygon21" class="807e56e0-36b4-4404-b394-628714a804b9" points="353.37 129.72 353.37 130.34 354.43 130.96 355.23 133.36 356.1 133.72 357.41 132.16 359.2 132.74 359.52 132.3 360.69 133.03 361.67 131.72 364.15 131.87 366.7 134.96 365.42 135.76 365.24 135.33 364.77 135.36 363.38 136.38 360.62 137.73 359.74 135.47 349.44 135.33 343.47 136.93 339.54 130.3 338.3 124.99 344.7 123.09 352.35 128.41 353.37 129.72"/><polygon id="33ae8344-e7e0-40d8-8ffe-47047412cb16" data-name="polygon23" class="807e56e0-36b4-4404-b394-628714a804b9" points="389.38 130.3 390.62 128.66 391.64 125.75 394.3 125.53 396.77 127.32 397.94 125.75 400.78 127.83 400.63 128.99 402.16 129.94 400.67 131.87 401.51 133 400.81 134.16 398.45 141.81 396.48 141.99 395.61 143.81 394.3 142.64 394.08 141.12 393.71 141.15 391.86 143.08 386.87 138.6 380.39 140.79 379.19 137.69 381.81 136.49 380.68 131.9 384.47 130.45 389.31 131.9 389.38 130.3"/><polygon id="d145a6f7-81c6-4a4b-8feb-851c82fa855e" data-name="polygon25" class="030716f9-6f9b-4183-918c-330b7aeb8dfa" points="391.17 144.72 390.65 144.39 393.71 141.15 394.08 141.12 394.3 142.64 395.61 143.81 396.48 141.99 398.45 141.81 400.56 135.14 401.51 135.58 401.32 136.75 402.85 137.98 402.89 138.93 406.49 141.44 410.5 142.03 412.25 143.04 404.96 150.15 403.76 152.58 403.07 153.2 396.77 146.94 396.52 145.99 395.1 144.72 393.93 145.23 391.93 144.39 391.17 144.72"/><polygon id="d28abd48-82fc-45de-8b2b-a6b7d933ff53" data-name="polygon27" class="030716f9-6f9b-4183-918c-330b7aeb8dfa" points="418.84 142.72 420.04 142.61 422.7 144.57 421.71 153.5 421.24 155.13 420 154.41 417.75 159.94 417.09 159.94 415.96 161.8 416.4 162.67 420 163.11 419.64 165.66 412.83 162.93 411.77 163.07 403.87 160.56 405.62 155.93 404.56 155.28 404.96 153.28 403.76 152.58 404.96 150.15 412.25 143.04 415.49 144.06 417.85 144.28 418.84 142.72"/><polygon id="fe3bc7a2-baf4-4f8d-ab8f-fc3bab4ace9f" data-name="polygon29" class="030716f9-6f9b-4183-918c-330b7aeb8dfa" points="419.64 165.66 419.38 168.09 416.25 171.44 415.34 175.52 415.56 178.51 412.68 179.02 410.1 178.33 403.55 172.97 401.72 173.01 399.36 169.26 400.92 168.28 403.87 160.56 411.77 163.07 412.83 162.93 419.64 165.66"/><polygon id="5b2cdf10-68bf-4d10-8bbd-98c05addc752" data-name="polygon31" class="f64947f8-21c9-4542-9d9c-b4d172b26398" points="410.1 178.33 412.68 179.02 415.56 178.51 420.77 177.82 419.82 195.59 420.38 207.87 419.17 208.18 398.63 199.96 377.44 197.91 382.46 178.84 399.36 169.26 401.72 173.01 403.55 172.97 410.1 178.33"/><polygon id="26d88125-cc1d-454b-9fab-d43c6e9f4bd6" data-name="polygon33" class="f64947f8-21c9-4542-9d9c-b4d172b26398" points="369.28 195.37 365.71 191.51 361.78 187.36 364.62 182.19 367.61 179.49 368.41 180.07 368.28 181.6 370.68 184.61 376.2 173.88 375.84 172.94 376.27 172.57 376.35 170.97 376.75 170.46 379.08 174.03 379.99 173.27 380.17 173.88 379.84 175.52 380.51 176.91 382.46 178.84 377.44 197.91 372.19 196.82 369.28 195.37"/><polygon id="8c13602e-e254-4cb2-93f8-8bb2e0568f59" data-name="polygon35" class="030716f9-6f9b-4183-918c-330b7aeb8dfa" points="371.8 167.62 370.96 167.73 369.76 169.42 355.83 170.19 354.74 175.38 361.78 187.36 364.62 182.19 367.61 179.49 368.41 180.07 368.28 181.6 370.68 184.61 376.2 173.88 375.84 172.94 376.27 172.57 376.35 170.97 376.75 170.46 375 167.84 372.78 168.02 371.8 167.62"/><polygon id="7fb3eb8a-496a-4168-ab52-95c9e7712798" data-name="polygon37" class="f64947f8-21c9-4542-9d9c-b4d172b26398" points="370.96 167.73 369.76 169.42 355.83 170.19 356.14 167.62 351.37 164.34 355.41 162.49 356.72 160.19 360.29 160.38 360.8 159.03 369.14 156.84 374.2 165.44 370.3 165.18 370.96 167.73"/><polygon id="79c58539-da69-454c-99ed-c2f01e67b353" data-name="polygon39" class="807e56e0-36b4-4404-b394-628714a804b9" points="353.1 181.22 350.59 182.15 350.04 183.35 345.62 184.01 344.41 183.19 340.26 183.79 340.32 184.33 342.06 185.86 343.27 188.98 342.72 189.36 346 193.84 346.98 197.61 349.77 201.05 352.17 199.96 365.22 198.64 365.77 207.22 367.19 207.76 369.7 206.84 371.01 208.2 374.73 208.53 376.04 201.97 380.9 204.05 386.19 207.98 391 209.57 391.11 211.42 396.13 214.16 398.16 216.12 400.01 216.67 401.27 215.79 403.67 216.23 405.69 213.34 408.7 212.84 409.35 217.71 409.46 228.63 407.88 238.68 410.28 242.39 415.09 246.81 421.04 254.63 422.57 258.99 424.1 260.63 424.59 263.25 425.79 265 426.45 267.62 427.65 270.25 427.27 271.23 425.9 271.12 425.03 270.52 423.82 270.08 422.95 269.1 421.86 268.93 417.93 266.2 416.89 266.15 416.18 267.35 416.23 269.81 415.14 271.83 413.83 270.95 412.3 268.99 410.66 268.93 408.37 272.27 407.71 272.65 407.39 273.41 404.05 275 403.56 275.11 401.92 276.74 401 278.55 400.01 278.66 398.26 277.78 396.85 277.35 395.92 276.91 395.26 277.13 394.44 278.06 392.86 279.15 391.27 279.2 388.82 280.62 387.4 281 386.36 281.82 382.43 285.97 381.61 288.21 381.61 295.37 381.12 295.91 380.13 296.13 379.15 298.26 379.04 299.3 378.17 300.88 375.87 303.51 375.05 304.93 373.74 306.67 373.8 308.91 373.91 309.4 373.85 313.17 373.52 313.99 373.8 316.34 374.23 317.49 375.98 319.62 376.15 320.05 377.46 321.09 377.78 322.07 378.66 323.93 380.13 325.52 381.17 325.68 383.03 324.42 384.77 324.31 386.85 326.44 388.65 328.63 389.31 329.28 389.25 330.1 388.54 332.29 387.94 334.47 390.51 334.25 393.08 333.54 396.08 333.22 400.45 337.26 401.16 337.15 402.31 335.51 403.51 334.42 404.27 333.16 406.29 331.25 408.26 331.25 409.19 330.32 411.1 329.72 412.96 328.14 413.39 327.32 414.87 326.39 416.56 326.23 418.75 324.53 423.66 324.2 426.45 325.63 428.96 327.48 430.65 326.39 431.58 325.19 433.76 324.86 435.95 327.26 436.77 328.57 437.59 329.56 437.53 333.27 437.21 335.18 438.13 336.93 440.05 336.77 441.63 337.8 444.58 340.7 447.04 343.92 448.46 346.49 449.71 348.62 449.82 349.11 450.97 349.98 451.19 350.86 452.5 352.17 454.68 354.52 457.25 356.87 457.85 357.03 463.15 361.07 473.47 361.83 474.67 361.02 475 360.36 472.11 355.56 467.08 351.62 468.67 349.6 467.57 347.85 467.41 347.2 465 344.41 463.69 342.5 462.11 338.35 461.4 336 457.52 332.07 455.39 331.09 455.28 329.34 456.65 327.75 456.27 325.63 455.23 323.88 452.77 317.65 452.66 317.21 451.79 315.85 449.93 310.71 448.68 307.17 448.68 305.69 446.22 298.15 444.85 295.31 444.03 291.27 442.01 287.23 442.01 286.3 439.66 280.29 437.15 274.94 433.93 266.91 433.27 262.44 432.51 260.25 432.62 255.17 431.96 253.86 431.85 252.88 431.2 250.97 431.14 246.32 422.35 214.26 421.75 209.68 420.38 208.64 420.38 207.87 419.17 208.18 398.63 199.96 377.44 197.91 372.19 196.82 369.28 195.37 361.78 187.36 354.74 175.38 353.92 179.64 353.04 179.75 353.1 181.22"/><polygon id="fc260b7d-6498-47e4-9f28-bd40406693f6" data-name="polygon41" class="93a8e746-c338-4d70-ae52-1e43c67cb0a5" points="425.25 208.69 428.8 208.75 428.85 208.53 425.57 208.15 423.55 207.27 423.22 206.51 424.86 206.13 425.03 205.8 423.33 205.47 423.33 204.98 424.59 204.76 424.92 204.16 423.28 203.78 423.17 202.85 425.19 203.18 425.79 206.62 426.94 206.51 430.21 208.04 429.61 209.78 431.25 208.53 439.23 211.81 440.37 210.6 443.1 203.45 443.05 202.74 441.25 199.9 438.46 197.61 437.7 198.26 440.48 201.38 440.37 204.38 437.26 203.4 425.41 198.21 426.99 193.46 432.02 195.2 433.11 192.64 428.08 190.18 427.54 189.25 433.87 191.49 434.42 189.58 436.71 189.85 437.04 189.58 435.62 188.76 434.69 188.98 434.48 188.54 429.34 186.52 428.69 183.24 432.13 184.01 432.78 182.53 427.59 180.78 428.25 179.31 429.94 179.36 430.49 178.11 427.92 176.52 428.74 174.56 427.7 174.39 426.45 175.81 425.35 175.32 423.39 171.83 426.88 169.59 429.5 171.66 428.96 172.97 429.18 173.63 430.6 173.36 437.48 185.37 437.97 183.95 439.12 182.59 442.56 182.2 443.05 183.35 441.85 184.72 440.05 189.36 438.68 191.05 441.9 190.67 443.98 185.21 446.6 185.32 446.93 187.67 447.69 187.78 448.07 198.75 447.47 198.97 447.47 199.41 448.46 199.52 448.95 198.81 448.13 182.81 445.34 181.99 443.16 180.89 440.05 180.57 435.13 172.43 430.49 167.95 429.4 157.25 428.8 156.43 428.19 146.16 424.86 145.83 423.61 144.52 422.7 144.57 421.71 153.5 421.24 155.13 420 154.41 417.75 159.94 417.09 159.94 415.96 161.8 416.4 162.67 420 163.11 419.64 165.66 419.38 168.09 416.25 171.44 415.34 175.52 415.56 178.51 420.77 177.82 419.82 195.59 420.38 207.87 420.93 207.66 422.95 207.6 425.25 208.69"/><g id="238a6a45-c946-4f85-9cac-88066d5c8a03" data-name="g43"><polygon id="60b6f720-320d-41db-b486-dd112c713dbd" data-name="polygon45" class="93a8e746-c338-4d70-ae52-1e43c67cb0a5" points="367.13 125.79 366.26 125.53 365.61 124.44 366.04 123.6 366.12 122.51 367.13 121.82 367.06 121.05 364.51 120.8 363.93 120.18 363.93 118.98 364.73 118.61 364.66 116.87 364.19 115.34 363.06 113.44 363.31 111.04 363.93 110.09 364.04 109 364.44 108.56 364.62 107.58 365.82 105.98 366.7 105.8 367.35 105.87 367.72 105.43 367.72 104.85 366.66 103.5 366.55 102.92 363.93 101.25 363.6 100.08 361.45 99.06 360.94 98.84 360.69 98.33 359.74 98.08 358.11 96.88 358.03 95.38 355.12 92.4 355.01 91.12 354.75 90.65 354.72 88.58 353.95 87.37 353.44 86.97 353.41 85.92 348.09 82.31 347.25 81.77 344.27 79.91 344.23 79.44 342.63 79.14 342.3 77.25 341.43 75.36 340.59 73.14 340.37 71.83 341.06 70.7 342.19 70.44 343.5 69.93 345.07 71.17 345.29 71.97 346.38 72.3 346.38 73.43 348.38 75.25 348.38 76.16 349.62 76.56 350.86 78.53 353.08 80.24 353.33 81.18 355.48 82.09 357.63 83.73 359.63 85.7 360.33 85.73 360.47 87.63 361.38 88.54 361.6 89.38 363.31 89.89 364.73 90.65 364.55 94.25 364.15 94.87 364.04 96.29 366.7 98.73 366.88 100.48 368.59 101.79 369.68 100.99 369.79 99.97 369.25 98.84 369.46 98.15 371.69 98.11 373.21 97.42 373.36 95.49 374.82 96.04 375.91 94.8 376.53 94.8 376.82 96.55 376.38 97.17 376.71 97.68 382.25 97.64 383.41 98.37 383.59 99.61 385.34 100.15 385.41 101.5 386.03 101.83 386.1 103.28 386.72 104.45 386.8 105.94 387.93 110.31 389.78 113.52 389.64 114.06 391.57 116.58 388 119.67 391.57 124.58 391.64 125.75 390.62 128.66 389.38 130.3 389.31 131.9 384.47 130.45 377.04 133.21 370.48 126.62 367.72 128.48 367.17 127.94 367.13 125.79"/><polygon id="a970f75f-fab0-4425-a69c-55e26a028fb3" data-name="polygon47" class="93a8e746-c338-4d70-ae52-1e43c67cb0a5" points="402.52 100.28 400.94 102.25 400.89 102.96 402.36 104.21 404.55 105.2 403.34 106.83 401.81 107.38 400.07 108.42 399.96 109.84 398.48 110.49 398.59 111.31 397.5 111.81 396.95 111.7 396.79 109.78 396.24 107.33 396.03 106.18 394.61 105.47 393.68 105.25 392.42 104.27 392.37 102.68 392.8 101.65 391.93 100.61 392.31 99.63 394.71 99.68 396.19 100.01 396.24 99.3 395.32 98.64 397.01 95.31 403.24 98.26 402.69 99.03 402.52 100.28"/><polygon id="073bcb20-a539-4ebc-8e8e-1b28b51dec18" data-name="polygon49" class="93a8e746-c338-4d70-ae52-1e43c67cb0a5" points="414.81 83.79 413.88 86.79 413.83 89.85 415.47 92.25 412.9 93.4 410.39 93.34 410.23 91.49 407.71 90.94 407.6 88.76 410.12 88.21 408.92 84 405.8 82.26 407.22 80.62 408.97 81.77 409.57 78.44 414.05 78.6 413.01 80.13 414.81 83.79"/><polygon id="7b0239da-885c-4cf1-8a3d-432b99e735b8" data-name="polygon51" class="93a8e746-c338-4d70-ae52-1e43c67cb0a5" points="441.96 79.2 423.06 69.15 425.57 64.29 432.56 65.98 445.13 72.32 441.96 79.2"/></g><polygon id="303b56f9-3a15-436e-8a78-26ab47e67267" data-name="polygon7" class="3fe8754d-3daa-4bcd-9da6-3c035e26dd7f" points="123.47 164.22 118.15 160.83 118.11 152.71 118.7 151.33 118.7 149.58 119.79 148.93 119.75 148.13 121.75 148.2 130.93 154.17 132.68 157.59 125.98 164.07 123.47 164.22"/><polygon id="9bbc0a56-c274-428a-b0c0-b3305ba008a7" data-name="polygon9" class="ed591fb1-10c8-4b38-88b3-46e65428a6cc" points="134.1 143.72 132.93 144.23 130.93 143.39 130.16 143.72 129.66 143.39 130.86 142.08 125.87 137.6 113.6 141.79 119.75 148.13 121.75 148.2 130.93 154.17 132.24 153.55 134.97 144.52 134.1 143.72"/><polyline id="01116603-11ac-4c16-ab31-aa07bd72ca30" data-name="polyline11" class="ed591fb1-10c8-4b38-88b3-46e65428a6cc" points="118.7 149.58 118.7 151.33 118.11 152.71 118.15 160.83 123.47 164.22 125.98 164.07 123.58 167.39 121.46 177.84 119.39 175.8 118.84 174.52 119.17 172.88 118.99 172.27 118.08 173.03 114 166.84 111.78 167.02 110.8 166.62 109.96 166.73 109.3 164.18 113.2 164.44 108.14 155.84"/><polyline id="78214cc7-5635-49bd-a103-5b6672b59423" data-name="polyline13" class="3fe8754d-3daa-4bcd-9da6-3c035e26dd7f" points="121.46 177.84 123.58 167.39 125.98 164.07 132.68 157.59 136.17 162.18 138.36 168.26"/><polygon id="15f9a407-0057-4df7-9a53-107e01405aa6" data-name="polygon15" class="ed591fb1-10c8-4b38-88b3-46e65428a6cc" points="135.52 144.99 135.77 145.94 142.07 152.2 142.76 151.58 143.97 152.28 143.56 154.28 144.62 154.93 139.92 167.28 138.36 168.26 136.17 162.18 132.68 157.59 130.93 154.17 132.24 153.55 134.97 144.52 135.52 144.99"/><polygon id="7c5bb695-1b0c-4f8b-b819-bf4723bb5b33" data-name="polygon17" class="ed591fb1-10c8-4b38-88b3-46e65428a6cc" points="109.63 143.47 110.21 145.18 108.57 145.87 102.38 135.38 99.62 136.73 98.74 134.47 88.44 134.33 82.47 135.93 82.28 137.13 83.96 139.31 83.38 140.01 83.85 141.9 83.23 143.14 83.89 143.39 88.08 147 92.63 148.71 95.94 149.11 96.12 150.13 94.12 152.57 96.59 156.1 97.03 157.01 99.8 158.03 108.14 155.84 119.79 148.93 119.75 148.13 113.6 141.79 109.63 143.47"/><polygon id="8c2afd5d-61c3-422a-872c-7a5076722d31" data-name="polygon19" class="ed3da77a-f28e-4e06-9e24-9bbb72c864f7" points="118.19 136.69 120.81 135.49 119.68 130.9 116.04 132.21 109.48 125.62 106.72 127.48 105.92 127.74 104.46 129.16 104.31 130.21 103.15 130.87 105.7 133.96 104.42 134.76 104.24 134.33 103.77 134.36 102.38 135.38 108.57 145.87 110.21 145.18 109.63 143.47 119.39 139.79 118.19 136.69"/><polygon id="dd1c7b9f-d9a0-4c77-835d-efaa4857287a" data-name="polygon21" class="ed3da77a-f28e-4e06-9e24-9bbb72c864f7" points="92.37 128.72 92.37 129.34 93.43 129.96 94.23 132.36 95.1 132.72 96.41 131.16 98.2 131.74 98.53 131.3 99.69 132.03 100.67 130.72 103.15 130.87 105.7 133.96 104.42 134.76 104.24 134.33 103.77 134.36 102.38 135.38 99.62 136.73 98.74 134.47 88.44 134.33 82.47 135.93 78.53 129.3 77.3 123.99 83.7 122.09 91.35 127.41 92.37 128.72"/><polygon id="21aff485-5964-41c6-9cca-2d0be75fe8ca" data-name="polygon23" class="ed3da77a-f28e-4e06-9e24-9bbb72c864f7" points="128.38 129.3 129.62 127.66 130.64 124.75 133.3 124.53 135.77 126.32 136.94 124.75 139.78 126.83 139.63 127.99 141.16 128.94 139.67 130.87 140.51 132 139.81 133.16 137.45 140.81 135.48 140.99 134.61 142.81 133.3 141.64 133.08 140.12 132.71 140.15 130.86 142.08 125.87 137.6 119.39 139.79 118.19 136.69 120.81 135.49 119.68 130.9 123.47 129.45 128.31 130.9 128.38 129.3"/><polygon id="fcc64661-70e6-4814-a06d-b0d1a4eaed6c" data-name="polygon25" class="ed591fb1-10c8-4b38-88b3-46e65428a6cc" points="130.16 143.72 129.66 143.39 132.71 140.15 133.08 140.12 133.3 141.64 134.61 142.81 135.48 140.99 137.45 140.81 139.56 134.14 140.51 134.58 140.32 135.75 141.85 136.98 141.89 137.93 145.49 140.44 149.5 141.03 151.25 142.04 143.97 149.15 142.76 151.58 142.07 152.2 135.77 145.94 135.52 144.99 134.1 143.72 132.93 144.23 130.93 143.39 130.16 143.72"/><polygon id="24008615-b292-4c5b-900a-a1fb461a16d3" data-name="polygon27" class="ed591fb1-10c8-4b38-88b3-46e65428a6cc" points="157.84 141.72 159.04 141.61 161.7 143.57 160.71 152.5 160.24 154.13 159 153.41 156.75 158.94 156.09 158.94 154.96 160.8 155.4 161.67 159 162.11 158.64 164.66 151.83 161.93 150.77 162.07 142.87 159.56 144.62 154.93 143.56 154.28 143.97 152.28 142.76 151.58 143.97 149.15 151.25 142.04 154.49 143.06 156.85 143.28 157.84 141.72"/><polygon id="2654a1c5-2d45-45ee-a994-fe1b4431bec5" data-name="polygon29" class="ed591fb1-10c8-4b38-88b3-46e65428a6cc" points="158.64 164.66 158.38 167.09 155.25 170.44 154.34 174.52 154.56 177.51 151.68 178.02 149.1 177.33 142.54 171.97 140.72 172.01 138.36 168.26 139.92 167.28 142.87 159.56 150.77 162.07 151.83 161.93 158.64 164.66"/><polygon id="e82773fa-ccd9-43c6-907b-e8238cb10c7c" data-name="polygon31" class="ed591fb1-10c8-4b38-88b3-46e65428a6cc" points="149.1 177.33 151.68 178.02 154.56 177.51 159.77 176.82 158.82 194.59 159.38 206.87 158.16 207.18 137.63 198.96 116.44 196.91 121.46 177.84 138.36 168.26 140.72 172.01 142.54 171.97 149.1 177.33"/><polygon id="9975e632-161b-4423-8ca9-98a491bb32c7" data-name="polygon33" class="ed3da77a-f28e-4e06-9e24-9bbb72c864f7" points="108.28 194.37 104.71 190.51 100.78 186.36 103.62 181.19 106.61 178.49 107.41 179.07 107.28 180.6 109.68 183.61 115.2 172.88 114.84 171.94 115.27 171.57 115.35 169.97 115.75 169.46 118.08 173.03 118.99 172.27 119.17 172.88 118.84 174.52 119.52 175.91 121.46 177.84 116.44 196.91 111.19 195.82 108.28 194.37"/><polygon id="2cd54817-7c17-4176-8f93-3a49cce7cbe8" data-name="polygon35" class="ed591fb1-10c8-4b38-88b3-46e65428a6cc" points="110.8 166.62 109.96 166.73 108.76 168.42 94.83 169.19 93.74 174.38 100.78 186.36 103.62 181.19 106.61 178.49 107.41 179.07 107.28 180.6 109.68 183.61 115.2 172.88 114.84 171.94 115.27 171.57 115.35 169.97 115.75 169.46 114 166.84 111.78 167.02 110.8 166.62"/><polygon id="da699660-b7aa-4ed5-8f61-44c312593b1d" data-name="polygon37" class="ed3da77a-f28e-4e06-9e24-9bbb72c864f7" points="109.96 166.73 108.76 168.42 94.83 169.19 95.14 166.62 90.37 163.34 94.41 161.49 95.72 159.19 99.29 159.38 99.8 158.03 108.14 155.84 113.2 164.44 109.3 164.18 109.96 166.73"/><polygon id="72bcbed1-a06c-46de-a83b-58b9420e3274" data-name="polygon39" class="ed3da77a-f28e-4e06-9e24-9bbb72c864f7" points="92.1 180.22 89.59 181.15 89.04 182.35 84.61 183.01 83.41 182.19 79.26 182.79 79.32 183.33 81.06 184.86 82.27 187.98 81.72 188.36 85 192.84 85.98 196.61 88.77 200.05 91.17 198.96 104.22 197.64 104.77 206.22 106.19 206.76 108.7 205.84 110.01 207.2 113.73 207.53 115.04 200.97 119.9 203.05 125.19 206.98 130 208.57 130.11 210.42 135.13 213.16 137.16 215.12 139.01 215.67 140.27 214.79 142.67 215.23 144.69 212.34 147.7 211.84 148.35 216.71 148.46 227.63 146.88 237.68 149.28 241.39 154.09 245.81 160.04 253.63 161.57 257.99 163.1 259.63 163.59 262.25 164.79 264 165.45 266.62 166.65 269.25 166.27 270.23 164.9 270.12 164.03 269.52 162.82 269.08 161.95 268.1 160.86 267.93 156.93 265.2 155.89 265.15 155.18 266.35 155.23 268.81 154.14 270.83 152.83 269.95 151.3 267.99 149.66 267.93 147.37 271.27 146.71 271.65 146.39 272.41 143.05 274 142.56 274.11 140.92 275.74 140 277.55 139.01 277.66 137.26 276.78 135.84 276.35 134.92 275.91 134.26 276.13 133.44 277.06 131.86 278.15 130.27 278.2 127.82 279.62 126.4 280 125.36 280.82 121.43 284.97 120.61 287.21 120.61 294.37 120.12 294.91 119.13 295.13 118.15 297.26 118.04 298.3 117.17 299.88 114.87 302.51 114.05 303.93 112.74 305.67 112.8 307.91 112.91 308.4 112.85 312.17 112.52 312.99 112.8 315.34 113.23 316.49 114.98 318.62 115.15 319.05 116.46 320.09 116.78 321.07 117.66 322.93 119.13 324.52 120.17 324.68 122.03 323.42 123.78 323.31 125.85 325.44 127.65 327.63 128.31 328.28 128.25 329.1 127.54 331.29 126.94 333.47 129.51 333.25 132.08 332.54 135.08 332.22 139.45 336.26 140.16 336.15 141.31 334.51 142.51 333.42 143.27 332.16 145.29 330.25 147.26 330.25 148.19 329.32 150.1 328.72 151.96 327.14 152.39 326.32 153.87 325.39 155.56 325.23 157.75 323.53 162.66 323.2 165.45 324.63 167.96 326.48 169.65 325.39 170.58 324.19 172.76 323.86 174.95 326.26 175.77 327.57 176.59 328.56 176.53 332.27 176.21 334.18 177.13 335.93 179.05 335.77 180.63 336.8 183.58 339.7 186.04 342.92 187.46 345.49 188.71 347.62 188.82 348.11 189.97 348.98 190.19 349.86 191.5 351.17 193.68 353.52 196.25 355.87 196.85 356.03 202.15 360.07 212.47 360.83 213.67 360.02 214 359.36 211.1 354.56 206.08 350.62 207.66 348.6 206.57 346.85 206.41 346.2 204 343.41 202.69 341.5 201.11 337.35 200.4 335 196.52 331.07 194.39 330.09 194.28 328.34 195.65 326.75 195.27 324.63 194.23 322.88 191.77 316.65 191.66 316.21 190.79 314.85 188.93 309.71 187.68 306.17 187.68 304.69 185.22 297.15 183.85 294.31 183.03 290.27 181.01 286.23 181.01 285.3 178.66 279.29 176.15 273.94 172.93 265.91 172.27 261.44 171.51 259.25 171.62 254.17 170.96 252.86 170.85 251.88 170.2 249.97 170.14 245.32 161.35 213.26 160.75 208.68 159.38 207.64 159.38 206.87 158.16 207.18 137.63 198.96 116.44 196.91 111.19 195.82 108.28 194.37 100.78 186.36 93.74 174.38 92.92 178.64 92.04 178.75 92.1 180.22"/><polygon id="38993d2f-56c5-4273-9a63-0abcc0caa876" data-name="polygon41" class="ed591fb1-10c8-4b38-88b3-46e65428a6cc" points="164.25 207.69 167.79 207.75 167.85 207.53 164.57 207.15 162.55 206.27 162.22 205.51 163.86 205.13 164.03 204.8 162.33 204.47 162.33 203.98 163.59 203.76 163.92 203.16 162.28 202.78 162.17 201.85 164.19 202.18 164.79 205.62 165.94 205.51 169.22 207.04 168.61 208.78 170.25 207.53 178.23 210.81 179.37 209.6 182.1 202.45 182.05 201.74 180.25 198.9 177.46 196.61 176.7 197.26 179.48 200.38 179.37 203.38 176.26 202.4 164.41 197.21 165.99 192.46 171.02 194.2 172.11 191.64 167.09 189.18 166.54 188.25 172.87 190.49 173.42 188.58 175.71 188.85 176.04 188.58 174.62 187.76 173.69 187.98 173.47 187.54 168.34 185.52 167.69 182.24 171.13 183.01 171.78 181.53 166.59 179.78 167.25 178.31 168.94 178.36 169.49 177.11 166.92 175.52 167.74 173.56 166.7 173.39 165.45 174.81 164.35 174.32 162.39 170.83 165.88 168.59 168.5 170.66 167.96 171.97 168.18 172.63 169.6 172.36 176.48 184.37 176.97 182.95 178.12 181.59 181.56 181.2 182.05 182.35 180.85 183.72 179.05 188.36 177.68 190.05 180.9 189.67 182.98 184.21 185.6 184.32 185.93 186.67 186.69 186.78 187.07 197.75 186.47 197.97 186.47 198.41 187.46 198.52 187.95 197.81 187.13 181.81 184.34 180.99 182.16 179.89 179.05 179.57 174.13 171.43 169.49 166.95 168.4 156.25 167.79 155.43 167.19 145.16 163.86 144.83 162.61 143.52 161.7 143.57 160.71 152.5 160.24 154.13 159 153.41 156.75 158.94 156.09 158.94 154.96 160.8 155.4 161.67 159 162.11 158.64 164.66 158.38 167.09 155.25 170.44 154.34 174.52 154.56 177.51 159.77 176.82 158.82 194.59 159.38 206.87 159.93 206.66 161.95 206.6 164.25 207.69"/><g id="6cfaab76-47d4-451f-96a8-9dd32e2af4c3" data-name="g43"><polygon id="dfb7f63f-ebd4-4472-903d-76208890b114" data-name="polygon45" class="ed3da77a-f28e-4e06-9e24-9bbb72c864f7" points="106.13 124.79 105.26 124.53 104.61 123.44 105.04 122.6 105.11 121.51 106.13 120.82 106.06 120.05 103.51 119.8 102.93 119.18 102.93 117.98 103.73 117.61 103.66 115.87 103.19 114.34 102.06 112.44 102.31 110.04 102.93 109.09 103.04 108 103.44 107.56 103.62 106.58 104.82 104.98 105.7 104.8 106.35 104.87 106.72 104.43 106.72 103.85 105.66 102.5 105.55 101.92 102.93 100.25 102.6 99.08 100.45 98.06 99.94 97.84 99.69 97.33 98.74 97.08 97.11 95.88 97.03 94.38 94.12 91.4 94.01 90.12 93.75 89.65 93.72 87.58 92.95 86.37 92.44 85.97 92.41 84.92 87.09 81.31 86.25 80.77 83.27 78.91 83.23 78.44 81.63 78.14 81.3 76.25 80.43 74.36 79.59 72.14 79.37 70.83 80.06 69.7 81.19 69.44 82.5 68.93 84.07 70.17 84.29 70.97 85.38 71.3 85.38 72.43 87.38 74.25 87.38 75.16 88.62 75.56 89.86 77.53 92.08 79.24 92.33 80.18 94.48 81.09 96.63 82.73 98.63 84.7 99.33 84.73 99.47 86.63 100.38 87.54 100.6 88.38 102.31 88.89 103.73 89.65 103.55 93.25 103.15 93.87 103.04 95.29 105.7 97.73 105.88 99.48 107.59 100.79 108.68 99.99 108.79 98.97 108.25 97.84 108.47 97.15 110.69 97.11 112.22 96.42 112.36 94.49 113.82 95.04 114.91 93.8 115.53 93.8 115.82 95.55 115.38 96.17 115.71 96.68 121.25 96.64 122.41 97.37 122.59 98.61 124.34 99.15 124.41 100.5 125.03 100.83 125.1 102.28 125.72 103.45 125.8 104.94 126.92 109.31 128.78 112.52 128.64 113.06 130.57 115.58 127 118.67 130.57 123.58 130.64 124.75 129.62 127.66 128.38 129.3 128.31 130.9 123.47 129.45 116.04 132.21 109.48 125.62 106.72 127.48 106.17 126.94 106.13 124.79"/><polygon id="be6d9d5b-3bef-4abf-8892-85b9a5d2b7e4" data-name="polygon47" class="ed3da77a-f28e-4e06-9e24-9bbb72c864f7" points="141.53 99.28 139.94 101.25 139.89 101.96 141.36 103.21 143.55 104.2 142.34 105.83 140.81 106.38 139.07 107.42 138.96 108.84 137.48 109.49 137.59 110.31 136.5 110.81 135.95 110.7 135.79 108.78 135.24 106.33 135.03 105.18 133.61 104.47 132.68 104.25 131.42 103.27 131.37 101.68 131.8 100.65 130.93 99.61 131.31 98.63 133.72 98.68 135.19 99.01 135.24 98.3 134.32 97.64 136.01 94.31 142.24 97.26 141.69 98.03 141.53 99.28"/><polygon id="f70a1805-bbfc-427b-b901-93b5eb16f728" data-name="polygon49" class="ed3da77a-f28e-4e06-9e24-9bbb72c864f7" points="153.81 82.79 152.88 85.79 152.83 88.85 154.47 91.25 151.9 92.4 149.39 92.34 149.23 90.49 146.71 89.94 146.6 87.76 149.12 87.21 147.91 83 144.8 81.26 146.22 79.62 147.97 80.77 148.57 77.44 153.05 77.6 152.01 79.13 153.81 82.79"/><polygon id="b5fc4866-c783-453b-8298-3c2ba77cf2ca" data-name="polygon51" class="ed3da77a-f28e-4e06-9e24-9bbb72c864f7" points="180.96 78.2 162.06 68.15 164.57 63.29 171.56 64.98 184.13 71.32 180.96 78.2"/></g><line class="1d740890-067e-424d-9f8d-b96a0626e252" x1="58" y1="119.5" x2="109.5" y2="119.5"/><line class="1d740890-067e-424d-9f8d-b96a0626e252" x1="146" y1="127.5" x2="165.5" y2="127.5"/><line class="1d740890-067e-424d-9f8d-b96a0626e252" x1="109.75" y1="119.5" x2="109.75" y2="135.5"/><line class="1d740890-067e-424d-9f8d-b96a0626e252" x1="146.5" y1="128" x2="146.5" y2="144"/><line class="1d740890-067e-424d-9f8d-b96a0626e252" x1="321" y1="120.5" x2="372.5" y2="120.5"/><line class="1d740890-067e-424d-9f8d-b96a0626e252" x1="372.75" y1="120.5" x2="372.75" y2="136.5"/></g><g id="a364e235-cdd9-42ae-a8e2-ce1449074f10" data-name="titulos"><text class="5427f24d-79bc-4232-9b0c-402ba45b94be" transform="translate(262.41 51.85)"><tspan class="cd5f1f64-e485-46c7-a211-ed85cbce04d8">V</tspan><tspan x="6.52" y="0">ARIACIÓN INTERANUA</tspan><tspan class="d50c6e70-7577-4649-8612-ca92959882b7" x="126.31" y="0">L</tspan><tspan x="132.02" y="0" xml:space="preserve"> DE PRECIO (%)</tspan></text><line class="f63879cf-ac4d-4fe2-823a-987637ce2fe8" x1="263.5" y1="55.5" x2="493.5" y2="55.5"/><line class="f63879cf-ac4d-4fe2-823a-987637ce2fe8" x1="9" y1="55.5" x2="240.5" y2="55.5"/><text class="f083da22-a14c-47ee-b277-49f878b03af8" transform="translate(7 21.37)">Evolución del precio de la vivienda en <tspan class="a043767f-f0cd-4b5b-a317-59bcdb3643a7" x="385.12" y="0">V</tspan><tspan class="942fc78c-37c7-435d-ab63-bcb94c94aee3" x="397.96" y="0">alencia</tspan></text></g><g id="895493ff-712e-484d-94e8-b1bb73a29b6c" data-name="Barrios"><line class="f63879cf-ac4d-4fe2-823a-987637ce2fe8" x1="10" y1="374.5" x2="492.5" y2="374.5"/><text class="eec1262b-8dec-47b9-bfd8-2d9fd2f4d8e4" transform="translate(99.67 388.59)">6<tspan class="113908e0-0284-412e-ae6a-852e5e0099c3" x="6.67" y="0">. El Pla del Real</tspan><tspan x="0" y="14.4">7</tspan><tspan class="113908e0-0284-412e-ae6a-852e5e0099c3" x="6.67" y="14.4">. </tspan><tspan class="5a6992d4-6735-48fb-a2cd-4d655f2802fc" x="13.34" y="14.4">L</tspan><tspan class="113908e0-0284-412e-ae6a-852e5e0099c3" x="19.35" y="14.4">’Olivereta</tspan><tspan x="0" y="28.8">8</tspan><tspan class="113908e0-0284-412e-ae6a-852e5e0099c3" x="6.67" y="28.8">. Patraix</tspan><tspan x="0" y="43.2">9</tspan><tspan class="113908e0-0284-412e-ae6a-852e5e0099c3" x="6.67" y="43.2">. Jesús</tspan><tspan x="0" y="57.6">10</tspan><tspan class="113908e0-0284-412e-ae6a-852e5e0099c3" x="13.35" y="57.6">. Quatre Carreres</tspan></text><text class="eec1262b-8dec-47b9-bfd8-2d9fd2f4d8e4" transform="translate(365 388.59)">16<tspan class="113908e0-0284-412e-ae6a-852e5e0099c3" x="13.35" y="0">. Belicalap</tspan><tspan x="0" y="14.4">17</tspan><tspan class="113908e0-0284-412e-ae6a-852e5e0099c3" x="13.35" y="14.4">. Poblados del Norte</tspan><tspan x="0" y="28.8">18</tspan><tspan class="113908e0-0284-412e-ae6a-852e5e0099c3" x="13.35" y="28.8">. Poblados del Oeste</tspan><tspan x="0" y="43.2">19</tspan><tspan class="113908e0-0284-412e-ae6a-852e5e0099c3" x="13.35" y="43.2">. Poblados del Sur</tspan></text><text class="eec1262b-8dec-47b9-bfd8-2d9fd2f4d8e4" transform="translate(243.67 388.59)"><tspan class="cd5f1f64-e485-46c7-a211-ed85cbce04d8">1</tspan><tspan x="5.78" y="0">1</tspan><tspan class="113908e0-0284-412e-ae6a-852e5e0099c3" x="12.46" y="0">. Poblats Marítims</tspan><tspan x="0" y="14.4">12</tspan><tspan class="113908e0-0284-412e-ae6a-852e5e0099c3" x="13.35" y="14.4">. Camins al Grau</tspan><tspan x="0" y="28.8">13</tspan><tspan class="113908e0-0284-412e-ae6a-852e5e0099c3" x="13.35" y="28.8">.</tspan><tspan class="5a6992d4-6735-48fb-a2cd-4d655f2802fc" x="16.68" y="28.8"> </tspan><tspan class="113908e0-0284-412e-ae6a-852e5e0099c3" x="19.35" y="28.8">Algirós</tspan><tspan x="0" y="43.2">14</tspan><tspan class="113908e0-0284-412e-ae6a-852e5e0099c3" x="13.35" y="43.2">. Benimaclet</tspan><tspan x="0" y="57.6">15</tspan><tspan class="113908e0-0284-412e-ae6a-852e5e0099c3" x="13.35" y="57.6">. Rascanya</tspan></text><text class="eec1262b-8dec-47b9-bfd8-2d9fd2f4d8e4" transform="translate(8.67 389.59)">1<tspan class="113908e0-0284-412e-ae6a-852e5e0099c3" x="6.67" y="0">. Ciutat </tspan><tspan class="5a6992d4-6735-48fb-a2cd-4d655f2802fc" x="48.02" y="0">V</tspan><tspan class="113908e0-0284-412e-ae6a-852e5e0099c3" x="55.37" y="0">ella</tspan><tspan x="0" y="14.4">2</tspan><tspan class="113908e0-0284-412e-ae6a-852e5e0099c3" x="6.67" y="14.4">. </tspan><tspan class="5a6992d4-6735-48fb-a2cd-4d655f2802fc" x="13.34" y="14.4">L</tspan><tspan class="113908e0-0284-412e-ae6a-852e5e0099c3" x="19.35" y="14.4">’Eixample</tspan><tspan x="0" y="28.8">3</tspan><tspan class="113908e0-0284-412e-ae6a-852e5e0099c3" x="6.67" y="28.8">. Extramurs</tspan><tspan x="0" y="43.2">4</tspan><tspan class="113908e0-0284-412e-ae6a-852e5e0099c3" x="6.67" y="43.2">. Campanar</tspan><tspan x="0" y="57.6">5</tspan><tspan class="113908e0-0284-412e-ae6a-852e5e0099c3" x="6.67" y="57.6">. La Saïdia</tspan></text><text class="5427f24d-79bc-4232-9b0c-402ba45b94be" transform="translate(11.41 370.85)">DISTRI<tspan class="3b20057d-42d2-437b-9143-3944a0de5ae0" x="36.06" y="0">T</tspan><tspan x="42.58" y="0">OS DE </tspan><tspan class="cd5f1f64-e485-46c7-a211-ed85cbce04d8" x="79.86" y="0">V</tspan><tspan x="86.38" y="0">ALENCI</tspan><tspan class="94fc3444-f7db-4192-af58-d8fae2907cca" x="126.12" y="0">A</tspan></text></g><g id="a1e07f88-d123-4d74-84f0-ff407d1235f5" data-name="fuente"><text class="0d906434-9323-430c-9046-2db41afb8587" transform="translate(396.67 465.59)">L<tspan class="94fc3444-f7db-4192-af58-d8fae2907cca" x="6.67" y="0">A</tspan><tspan x="14.02" y="0"> </tspan><tspan class="cd5f1f64-e485-46c7-a211-ed85cbce04d8" x="17.35" y="0">V</tspan><tspan x="24.46" y="0">ANGUARDI</tspan><tspan class="94fc3444-f7db-4192-af58-d8fae2907cca" x="87.8" y="0">A</tspan></text><text class="0d906434-9323-430c-9046-2db41afb8587" transform="translate(6.67 465.59)">Fuente:<tspan class="3b20057d-42d2-437b-9143-3944a0de5ae0" x="40.69" y="0"> </tspan><tspan x="43.81" y="0">TINS</tspan><tspan class="94fc3444-f7db-4192-af58-d8fae2907cca" x="71.14" y="0">A</tspan></text></g><g id="33a7302a-701d-465f-8798-2a72b3a2563f" data-name="numeros"><text class="eec1262b-8dec-47b9-bfd8-2d9fd2f4d8e4" transform="translate(109 193.58)">9</text><text class="eec1262b-8dec-47b9-bfd8-2d9fd2f4d8e4" transform="translate(120 148.58)">5</text><text class="eec1262b-8dec-47b9-bfd8-2d9fd2f4d8e4" transform="translate(111 162.58)">3</text><text class="eec1262b-8dec-47b9-bfd8-2d9fd2f4d8e4" transform="translate(101 167.58)">7</text><text class="eec1262b-8dec-47b9-bfd8-2d9fd2f4d8e4" transform="translate(160 162.58)"><tspan class="cd5f1f64-e485-46c7-a211-ed85cbce04d8">1</tspan><tspan x="5.78" y="0">1</tspan></text><text class="eec1262b-8dec-47b9-bfd8-2d9fd2f4d8e4" transform="translate(39 123.58)">16</text><text class="eec1262b-8dec-47b9-bfd8-2d9fd2f4d8e4" transform="translate(147 301.58)">19</text><text class="eec1262b-8dec-47b9-bfd8-2d9fd2f4d8e4" transform="translate(120 160.58)">1</text><text class="eec1262b-8dec-47b9-bfd8-2d9fd2f4d8e4" transform="translate(127 170.58)">2</text><text class="eec1262b-8dec-47b9-bfd8-2d9fd2f4d8e4" transform="translate(72 130.58)">18</text><text class="eec1262b-8dec-47b9-bfd8-2d9fd2f4d8e4" transform="translate(109 114.58)">17</text><text class="eec1262b-8dec-47b9-bfd8-2d9fd2f4d8e4" transform="translate(145 154.58)">13</text><text class="eec1262b-8dec-47b9-bfd8-2d9fd2f4d8e4" transform="translate(168 131.58)">14</text><text class="eec1262b-8dec-47b9-bfd8-2d9fd2f4d8e4" transform="translate(128 131.58)">15</text><text class="eec1262b-8dec-47b9-bfd8-2d9fd2f4d8e4" transform="translate(141 171.58)">12</text><text class="eec1262b-8dec-47b9-bfd8-2d9fd2f4d8e4" transform="translate(134 189.58)">10</text><text class="eec1262b-8dec-47b9-bfd8-2d9fd2f4d8e4" transform="translate(135 159.58)">6</text><text class="eec1262b-8dec-47b9-bfd8-2d9fd2f4d8e4" transform="translate(95 148.58)">4</text><text class="eec1262b-8dec-47b9-bfd8-2d9fd2f4d8e4" transform="translate(97 178.58)">8</text><text class="eec1262b-8dec-47b9-bfd8-2d9fd2f4d8e4" transform="translate(370 194.58)">9</text><text class="eec1262b-8dec-47b9-bfd8-2d9fd2f4d8e4" transform="translate(381 149.58)">5</text><text class="eec1262b-8dec-47b9-bfd8-2d9fd2f4d8e4" transform="translate(372 163.58)">3</text><text class="eec1262b-8dec-47b9-bfd8-2d9fd2f4d8e4" transform="translate(362 168.58)">7</text><text class="eec1262b-8dec-47b9-bfd8-2d9fd2f4d8e4" transform="translate(421 163.58)"><tspan class="cd5f1f64-e485-46c7-a211-ed85cbce04d8">1</tspan><tspan x="5.78" y="0">1</tspan></text><text class="eec1262b-8dec-47b9-bfd8-2d9fd2f4d8e4" transform="translate(304 124.58)">16</text><text class="eec1262b-8dec-47b9-bfd8-2d9fd2f4d8e4" transform="translate(408 302.58)">19</text><text class="eec1262b-8dec-47b9-bfd8-2d9fd2f4d8e4" transform="translate(381 161.58)">1</text><text class="eec1262b-8dec-47b9-bfd8-2d9fd2f4d8e4" transform="translate(388 171.58)">2</text><text class="eec1262b-8dec-47b9-bfd8-2d9fd2f4d8e4" transform="translate(333 131.58)">18</text><text class="eec1262b-8dec-47b9-bfd8-2d9fd2f4d8e4" transform="translate(370 115.58)">17</text><text class="eec1262b-8dec-47b9-bfd8-2d9fd2f4d8e4" transform="translate(406 155.58)">13</text><text class="eec1262b-8dec-47b9-bfd8-2d9fd2f4d8e4" transform="translate(427 132.58)">14</text><text class="eec1262b-8dec-47b9-bfd8-2d9fd2f4d8e4" transform="translate(389 132.58)">15</text><text class="eec1262b-8dec-47b9-bfd8-2d9fd2f4d8e4" transform="translate(402 172.58)">12</text><text class="eec1262b-8dec-47b9-bfd8-2d9fd2f4d8e4" transform="translate(395 190.58)">10</text><text class="eec1262b-8dec-47b9-bfd8-2d9fd2f4d8e4" transform="translate(396 160.58)">6</text><text class="eec1262b-8dec-47b9-bfd8-2d9fd2f4d8e4" transform="translate(356 149.58)">4</text><text class="eec1262b-8dec-47b9-bfd8-2d9fd2f4d8e4" transform="translate(358 179.58)">8</text></g><g id="2d0f9899-5ce6-49bd-a880-03e7b0d3581f" data-name="Leyenda"><rect class="361380e2-3a6a-410d-b16f-0e1fc6e79ed6" x="8.75" y="338.5" width="21.25" height="14"/><rect class="4bcba2c1-9319-402f-801f-bca405a03c09" x="8.75" y="325.5" width="21.25" height="14"/><rect class="e1eea309-287b-49f9-ba07-b3f21f62ac7e" x="8.75" y="312.5" width="21.25" height="14"/><rect class="6ea79c59-8f3a-41cb-80b7-c82d657a2e1f" x="8.75" y="298.5" width="21.25" height="14"/><rect class="141eec2b-1026-4848-9e38-d717b86feb31" x="8.75" y="284.5" width="21.25" height="14"/><rect class="7930d7bf-aaf5-45b0-843f-afeb5187c4b3" x="8.75" y="270.5" width="21.25" height="14"/><text class="aca08c91-e02f-40d8-ba21-a331bbfcf312" transform="translate(35.41 280.59)">0 - 1.000</text><text class="5427f24d-79bc-4232-9b0c-402ba45b94be" transform="translate(10.41 51.85)">PRECIO MEDIO (€/m<tspan class="1a2fd0c9-26eb-4614-bf59-8f5dc7719c9a" x="106.34" y="-4">2</tspan><tspan x="110.24" y="0" xml:space="preserve">)     </tspan></text><text class="aca08c91-e02f-40d8-ba21-a331bbfcf312" transform="translate(35.41 294.59)">1.000 - 2.000</text><text class="aca08c91-e02f-40d8-ba21-a331bbfcf312" transform="translate(35.41 308.59)">2.000 - 3.000</text><text class="aca08c91-e02f-40d8-ba21-a331bbfcf312" transform="translate(35.41 322.59)">3.000 - 4.000</text><text class="aca08c91-e02f-40d8-ba21-a331bbfcf312" transform="translate(35.41 335.59)">4.000 - 5.000</text><text class="aca08c91-e02f-40d8-ba21-a331bbfcf312" transform="translate(35.41 349.59)">5.000 - 6.000</text><rect class="030716f9-6f9b-4183-918c-330b7aeb8dfa" x="262.75" y="342.5" width="21.25" height="14"/><rect class="93a8e746-c338-4d70-ae52-1e43c67cb0a5" x="262.75" y="329.5" width="21.25" height="14"/><rect class="f64947f8-21c9-4542-9d9c-b4d172b26398" x="262.75" y="316.5" width="21.25" height="14"/><rect class="b45d8185-83c9-42ae-b9a3-407216b0bd4e" x="262.75" y="302.5" width="21.25" height="14"/><rect class="807e56e0-36b4-4404-b394-628714a804b9" x="262.75" y="288.5" width="21.25" height="14"/><rect class="021f617f-aa89-41a9-a89a-505de145398a" x="262.75" y="274.5" width="21.25" height="14"/><text class="aca08c91-e02f-40d8-ba21-a331bbfcf312" transform="translate(289.41 284.59)">Menos de -10%</text><text class="aca08c91-e02f-40d8-ba21-a331bbfcf312" transform="translate(289.41 298.59)">-10% a -5%</text><text class="aca08c91-e02f-40d8-ba21-a331bbfcf312" transform="translate(289.41 312.59)">-5% a 0%</text><text class="aca08c91-e02f-40d8-ba21-a331bbfcf312" transform="translate(289.41 326.59)">0% a 5%</text><text class="aca08c91-e02f-40d8-ba21-a331bbfcf312" transform="translate(289.41 339.59)">5% a 10%</text><text class="aca08c91-e02f-40d8-ba21-a331bbfcf312" transform="translate(289.41 353.59)">Más de 10%</text><line class="1d740890-067e-424d-9f8d-b96a0626e252" x1="406" y1="128.5" x2="425.5" y2="128.5"/><line class="1d740890-067e-424d-9f8d-b96a0626e252" x1="406.5" y1="129" x2="406.5" y2="145"/></g></svg>