<svg id="95fb3015-9dd7-41fd-bfa8-803bb3660324" data-name="Capa 1" xmlns="http://www.w3.org/2000/svg" viewBox="0 0 633.67 558.67"><defs><style>.\30 313fbb1-2964-4b3d-b9ad-8496da13d2f4,.f1819b99-222f-4fc3-86d1-aff60d844fc4{fill:none;}.\30 313fbb1-2964-4b3d-b9ad-8496da13d2f4{stroke:#757575;}.\30 313fbb1-2964-4b3d-b9ad-8496da13d2f4,.\31 5ab0574-816b-4ed6-864c-9c551703ad77,.\32 52966c9-232b-4e3d-9347-8b2bc4d048e3,.\32 77cfa59-a924-4ebf-aecd-95ea534fc66c,.\32 c4951c2-ce0a-4e60-9d91-e7746f320c4f,.\33 da91911-80f6-4bf7-826f-9338d9d5c541,.\37 7f1716c-debc-4636-9091-7ece8b640854,.ea6d626f-86c5-4dea-9bb0-cf19a581f2c3,.f1819b99-222f-4fc3-86d1-aff60d844fc4{stroke-miterlimit:10;}.\30 a0be047-122a-4074-b0b3-b1644f0546af,.c7dc4b97-17c7-4c7c-a97e-6e23f0ca0816{font-size:16px;}.\30 a0be047-122a-4074-b0b3-b1644f0546af,.\38 9bf8677-1319-4df5-a337-d2879a939e76,.\39 1f69a0f-a91b-4d47-a7cf-6a0b6ecd4409,.c7dc4b97-17c7-4c7c-a97e-6e23f0ca0816{fill:#757575;}.\30 a0be047-122a-4074-b0b3-b1644f0546af,.\39 1f69a0f-a91b-4d47-a7cf-6a0b6ecd4409,.c7dc4b97-17c7-4c7c-a97e-6e23f0ca0816{font-family:ArialMT, Arial;}.\39 1f69a0f-a91b-4d47-a7cf-6a0b6ecd4409{font-size:13px;}.\38 9bf8677-1319-4df5-a337-d2879a939e76{font-size:15px;letter-spacing:-0.02em;}.\38 9bf8677-1319-4df5-a337-d2879a939e76,.\38 db8b090-2453-4d61-9f0c-e8dcc182b281{font-family:Arial-BoldMT, Arial;font-weight:700;}.c7dc4b97-17c7-4c7c-a97e-6e23f0ca0816{letter-spacing:-0.02em;}.f1819b99-222f-4fc3-86d1-aff60d844fc4{stroke:#d6d6d6;}.\38 db8b090-2453-4d61-9f0c-e8dcc182b281{font-size:26px;fill:#323232;}.acf9f07c-46cf-466c-b637-5274b1428e0b{fill:#283659;}.\32 8299e05-3ec2-4be2-8076-c56f159e5f5b{fill:#fff;}.\33 e7e37b1-def2-4bbf-836a-30d38cc8e763{opacity:0.82;}.ea6d626f-86c5-4dea-9bb0-cf19a581f2c3{fill:#991d26;}.\31 5ab0574-816b-4ed6-864c-9c551703ad77,.\32 52966c9-232b-4e3d-9347-8b2bc4d048e3,.\32 77cfa59-a924-4ebf-aecd-95ea534fc66c,.\32 c4951c2-ce0a-4e60-9d91-e7746f320c4f,.\33 da91911-80f6-4bf7-826f-9338d9d5c541,.\37 7f1716c-debc-4636-9091-7ece8b640854,.ea6d626f-86c5-4dea-9bb0-cf19a581f2c3{stroke:#fff;opacity:0.76;}.ea985b2d-32a3-48a5-9df2-baa1ca307bf9{opacity:0.86;}.\31 5ab0574-816b-4ed6-864c-9c551703ad77{fill:#59a5a5;}.\32 77cfa59-a924-4ebf-aecd-95ea534fc66c{fill:#3f4d78;}.\37 7f1716c-debc-4636-9091-7ece8b640854{fill:#efb21b;}.\39 ac725d8-4522-48df-b47d-2284249a7e2f{opacity:0.52;}.\32 c4951c2-ce0a-4e60-9d91-e7746f320c4f{fill:#ffe600;}.\32 52966c9-232b-4e3d-9347-8b2bc4d048e3{fill:#d57928;}.\33 da91911-80f6-4bf7-826f-9338d9d5c541{fill:#8e244f;}</style></defs><title>valoracion-lideres-politicos</title><line class="0313fbb1-2964-4b3d-b9ad-8496da13d2f4" x1="9" y1="452.5" x2="614" y2="452.5"/><text class="0a0be047-122a-4074-b0b3-b1644f0546af" transform="translate(8.66 446.52) scale(0.99 1)">0</text><text class="0a0be047-122a-4074-b0b3-b1644f0546af" transform="translate(7.66 386.52) scale(0.99 1)">5</text><text class="0a0be047-122a-4074-b0b3-b1644f0546af" transform="translate(5.5 323.52) scale(0.99 1)">10</text><text class="0a0be047-122a-4074-b0b3-b1644f0546af" transform="translate(7.83 199.52) scale(0.99 1)">20</text><text class="0a0be047-122a-4074-b0b3-b1644f0546af" transform="translate(7.83 136.52) scale(0.99 1)">25</text><text class="0a0be047-122a-4074-b0b3-b1644f0546af" transform="translate(8.68 73.5) scale(0.99 1)">30</text><text class="0a0be047-122a-4074-b0b3-b1644f0546af" transform="translate(7.83 261.52) scale(0.99 1)">15</text><text class="91f69a0f-a91b-4d47-a7cf-6a0b6ecd4409" transform="translate(8.5 545) scale(0.99 1)">Fuente: Barómetro de noviembre del CIS</text><text class="89bf8677-1319-4df5-a337-d2879a939e76" transform="translate(230.2 471.52)">Oriol <tspan x="-17.89" y="18">Junqueras</tspan></text><text class="c7dc4b97-17c7-4c7c-a97e-6e23f0ca0816" transform="translate(433.75 73.52)">Porcentaje de la población</text><text class="89bf8677-1319-4df5-a337-d2879a939e76" transform="translate(315.27 470.52)">Inés<tspan x="-21.34" y="18">Arrimadas</tspan></text><text class="89bf8677-1319-4df5-a337-d2879a939e76" transform="translate(556.61 471.52)">Carles<tspan x="4.02" y="18">Riera</tspan></text><text class="89bf8677-1319-4df5-a337-d2879a939e76" transform="translate(140.86 471.52)">Miquel<tspan x="6.5" y="18">Iceta</tspan></text><text class="89bf8677-1319-4df5-a337-d2879a939e76" transform="translate(58.03 471.52)">Carles<tspan x="-19.8" y="18">Puigdemont</tspan></text><text class="89bf8677-1319-4df5-a337-d2879a939e76" transform="translate(389.44 471.52)">Xavier<tspan x="-15.52" y="18">Domènech</tspan></text><text class="89bf8677-1319-4df5-a337-d2879a939e76" transform="translate(470.57 471.52)">Xavier<tspan x="-0.83" y="18">García</tspan><tspan x="1.69" y="36">Albiol</tspan></text><line class="f1819b99-222f-4fc3-86d1-aff60d844fc4" x1="9" y1="390.5" x2="613" y2="390.5"/><line class="f1819b99-222f-4fc3-86d1-aff60d844fc4" x1="9" y1="327.5" x2="613" y2="327.5"/><line class="f1819b99-222f-4fc3-86d1-aff60d844fc4" x1="9" y1="265.5" x2="613" y2="265.5"/><line class="f1819b99-222f-4fc3-86d1-aff60d844fc4" x1="9" y1="203.5" x2="613" y2="203.5"/><line class="f1819b99-222f-4fc3-86d1-aff60d844fc4" x1="9" y1="141.5" x2="613" y2="141.5"/><line class="f1819b99-222f-4fc3-86d1-aff60d844fc4" x1="9" y1="79.5" x2="613" y2="79.5"/><text class="8db8b090-2453-4d61-9f0c-e8dcc182b281" transform="translate(1.17 20.62)">¿Quién prefieren los catalanes que sea el próximo <tspan x="132.22" y="31.2">presidente de la Generalitat?</tspan></text><polygon class="acf9f07c-46cf-466c-b637-5274b1428e0b" points="518 534 614 534 614 549 518 549 518 534 518 534"/><path class="28299e05-3ec2-4be2-8076-c56f159e5f5b" d="M595,537h-4v.95l1,.23V545c0,.22-.26.35-.53.35a1.34,1.34,0,0,1-1.12-.88l-.79-1.65a1.49,1.49,0,0,0-1.56-1.14v-.12a2.58,2.58,0,0,0,2.24-2.34c0-1.42-1.38-2.21-2.88-2.21H584v.95l1,.23v6.91h0l-1.21.24-3.12-8.56a3.9,3.9,0,0,1-1.12,1l.13.35-2.84,7-.84.23V546h3v-.66h-1.06l.76-2.34h2.66l.79,2.32-1.14,0V546h7v-.66l-1-.23v-3.22s1,.44,1.21,1l1.16,2.25a2.06,2.06,0,0,0,1.77,1.2c.45,0,.82-.39,1.14-.39h2.85a4.35,4.35,0,1,0-.08-8.7Zm-16.13,5,1.12-3,1.08,3Zm8.23-1H587v-3h.27a1.5,1.5,0,0,1,1.45,1.43s0,.14,0,.19a1.52,1.52,0,0,1-1.57,1.5Zm7.87,4h-1v-7h1c1.89,0,3.07,1.39,3.07,3.55s-1.05,3.55-3.05,3.55Z"/><path class="28299e05-3ec2-4be2-8076-c56f159e5f5b" d="M534.38,545.11l-3.07-8.34a3.94,3.94,0,0,1-1.13,1l.12.35-2.85,7-.61.34-.18.57H529v-.67h-.76l1.06-2.33H532l1,2.31-.95,0V546h3v-.67l-.76-.23ZM529.51,542l1.13-3,1.08,3Z"/><polygon class="28299e05-3ec2-4be2-8076-c56f159e5f5b" points="527.06 543.79 526.75 543.49 524.96 545 523 545 523 538.18 524 537.95 524 537 521 537 521 537.95 522 538.18 522 545.09 521 545.33 521 546 526.24 546 527.06 543.79 527.06 543.79"/><polygon class="28299e05-3ec2-4be2-8076-c56f159e5f5b" points="542 537 542 537.95 542.75 538.18 540.45 543.74 538.04 538.17 539 537.95 539 537 535 537 535 537.95 536.27 538.14 539.77 546 540.12 546 543.39 538 543.41 538 544 537.95 544 537 542 537 542 537"/><path class="28299e05-3ec2-4be2-8076-c56f159e5f5b" d="M574,537.48v.46l1.13.24s.14,4.12.1,5.16a2.07,2.07,0,0,1-2.11,2H573a2,2,0,0,1-2.13-1.88c0-.08.1-.17.1-.25v-5.07l1-.22v-1h-4v1l1,.23v5.11c0,1.76,1.67,2.91,3.5,2.91s3.34-1,3.4-2.91l.1-5.1,1-.24v-.46Z"/><path class="28299e05-3ec2-4be2-8076-c56f159e5f5b" d="M610.37,545.09l-3.06-8.32a3.94,3.94,0,0,1-1.13,1l.12.35-2.86,7-.64.2-.81-.21v-6.94l1-.23V537h-3v.95l1,.24v6.92l-1,.23V546h5v-.67h-.76l1.06-2.33H608l1,2.31H608V546h3v-.68l-.77-.24ZM605.51,542l1.13-3,1.08,3Z"/><path class="28299e05-3ec2-4be2-8076-c56f159e5f5b" d="M556,537.48v.46l1.23.24.17,5.2L552.29,537H550v.94l1,.22.1,0-.07,6.88h0l-1,.24-3.14-8.56a3.94,3.94,0,0,1-1.09,1l.12.35-3,7-1,.23V546h3v-.67h-1l.87-2.33h2.66l1.18,2.31-.76,0V546h5v-.67l-1.06-.24-.13-6,5.95,7h.39l0-7.86L559,538v-.46ZM545.11,542l1.13-3,1.08,3Z"/><path class="28299e05-3ec2-4be2-8076-c56f159e5f5b" d="M565,541.55V542l1,.24v2.68c0,.41-1.14.63-1.81.62-1.89,0-3.07-1.57-3.07-3.79s1.2-4,3.16-4a2.78,2.78,0,0,1,2.62,2.26l.1-.16v-2.62l-.07-.13-.44.64a5.06,5.06,0,0,0-2.26-.59,4.64,4.64,0,0,0-4.64,4.58,4.23,4.23,0,0,0,4,4.43h.31a4.22,4.22,0,0,0,2.68-.8l.74.58H568v-4.44Z"/><g class="3e7e37b1-def2-4bbf-836a-30d38cc8e763"><rect class="ea6d626f-86c5-4dea-9bb0-cf19a581f2c3" x="138.5" y="254.5" width="43" height="197"/></g><g class="ea985b2d-32a3-48a5-9df2-baa1ca307bf9"><rect class="15ab0574-816b-4ed6-864c-9c551703ad77" x="469.5" y="417.5" width="43" height="34"/></g><g class="ea985b2d-32a3-48a5-9df2-baa1ca307bf9"><rect class="277cfa59-a924-4ebf-aecd-95ea534fc66c" x="55.5" y="102.5" width="43" height="349"/></g><g class="3e7e37b1-def2-4bbf-836a-30d38cc8e763"><rect class="77f1716c-debc-4636-9091-7ece8b640854" x="225.5" y="258.5" width="43" height="193"/></g><g class="9ac725d8-4522-48df-b47d-2284249a7e2f"><rect class="2c4951c2-ce0a-4e60-9d91-e7746f320c4f" x="554.5" y="433.5" width="42" height="18"/></g><g class="3e7e37b1-def2-4bbf-836a-30d38cc8e763"><polygon class="252966c9-232b-4e3d-9347-8b2bc4d048e3" points="304.18 269.5 347.5 269.5 347.5 451.5 304.25 451.5 304.18 269.5"/></g><g class="ea985b2d-32a3-48a5-9df2-baa1ca307bf9"><rect class="3da91911-80f6-4bf7-826f-9338d9d5c541" x="386.5" y="373.5" width="43" height="78"/></g></svg>